<svg xmlns="http://www.w3.org/2000/svg" xmlns:xlink="http://www.w3.org/1999/xlink" width="2000" zoomAndPan="magnify" viewBox="0 0 1500 1499.999933" height="2000" preserveAspectRatio="xMidYMid meet" version="1.0"><path fill="#71d6fc" d="M 508.066406 459.675781 L 991.933594 459.675781 C 993.519531 459.675781 995.101562 459.753906 996.679688 459.910156 C 998.253906 460.066406 999.820312 460.296875 1001.375 460.605469 C 1002.929688 460.917969 1004.464844 461.300781 1005.980469 461.761719 C 1007.496094 462.222656 1008.988281 462.753906 1010.453125 463.359375 C 1011.917969 463.96875 1013.347656 464.644531 1014.746094 465.390625 C 1016.140625 466.136719 1017.5 466.953125 1018.816406 467.832031 C 1020.136719 468.710938 1021.40625 469.65625 1022.632812 470.660156 C 1023.855469 471.667969 1025.03125 472.730469 1026.148438 473.847656 C 1027.269531 474.96875 1028.332031 476.144531 1029.339844 477.367188 C 1030.34375 478.59375 1031.289062 479.863281 1032.167969 481.183594 C 1033.046875 482.5 1033.863281 483.855469 1034.609375 485.253906 C 1035.355469 486.652344 1036.03125 488.082031 1036.640625 489.546875 C 1037.246094 491.011719 1037.777344 492.5 1038.238281 494.019531 C 1038.699219 495.535156 1039.082031 497.070312 1039.394531 498.625 C 1039.703125 500.179688 1039.933594 501.746094 1040.089844 503.320312 C 1040.246094 504.898438 1040.324219 506.480469 1040.324219 508.0625 L 1040.324219 991.933594 C 1040.324219 993.519531 1040.246094 995.101562 1040.089844 996.679688 C 1039.933594 998.253906 1039.703125 999.820312 1039.394531 1001.375 C 1039.082031 1002.929688 1038.699219 1004.464844 1038.238281 1005.980469 C 1037.777344 1007.496094 1037.246094 1008.988281 1036.640625 1010.453125 C 1036.03125 1011.917969 1035.355469 1013.347656 1034.609375 1014.746094 C 1033.863281 1016.140625 1033.046875 1017.5 1032.167969 1018.816406 C 1031.289062 1020.136719 1030.34375 1021.40625 1029.339844 1022.632812 C 1028.332031 1023.855469 1027.269531 1025.03125 1026.148438 1026.148438 C 1025.03125 1027.269531 1023.855469 1028.332031 1022.632812 1029.339844 C 1021.40625 1030.34375 1020.136719 1031.289062 1018.816406 1032.167969 C 1017.5 1033.046875 1016.140625 1033.863281 1014.746094 1034.609375 C 1013.347656 1035.355469 1011.917969 1036.03125 1010.453125 1036.640625 C 1008.988281 1037.246094 1007.496094 1037.777344 1005.980469 1038.238281 C 1004.464844 1038.699219 1002.929688 1039.082031 1001.375 1039.394531 C 999.820312 1039.703125 998.253906 1039.933594 996.679688 1040.089844 C 995.101562 1040.246094 993.519531 1040.324219 991.933594 1040.324219 L 508.066406 1040.324219 C 506.480469 1040.324219 504.898438 1040.246094 503.320312 1040.089844 C 501.746094 1039.933594 500.179688 1039.703125 498.625 1039.394531 C 497.070312 1039.082031 495.535156 1038.699219 494.019531 1038.238281 C 492.503906 1037.777344 491.011719 1037.246094 489.546875 1036.640625 C 488.082031 1036.03125 486.652344 1035.355469 485.253906 1034.609375 C 483.855469 1033.863281 482.5 1033.046875 481.183594 1032.167969 C 479.863281 1031.289062 478.59375 1030.34375 477.367188 1029.339844 C 476.144531 1028.332031 474.96875 1027.269531 473.851562 1026.148438 C 472.730469 1025.03125 471.667969 1023.855469 470.660156 1022.632812 C 469.65625 1021.40625 468.710938 1020.136719 467.832031 1018.816406 C 466.953125 1017.5 466.136719 1016.140625 465.390625 1014.746094 C 464.644531 1013.347656 463.96875 1011.917969 463.359375 1010.453125 C 462.753906 1008.988281 462.222656 1007.496094 461.761719 1005.980469 C 461.300781 1004.464844 460.917969 1002.929688 460.605469 1001.375 C 460.296875 999.820312 460.066406 998.253906 459.910156 996.679688 C 459.753906 995.101562 459.675781 993.519531 459.675781 991.933594 L 459.675781 508.0625 C 459.675781 506.480469 459.753906 504.898438 459.910156 503.320312 C 460.066406 501.746094 460.296875 500.179688 460.605469 498.625 C 460.917969 497.070312 461.300781 495.535156 461.761719 494.019531 C 462.222656 492.5 462.753906 491.011719 463.359375 489.546875 C 463.96875 488.082031 464.644531 486.652344 465.390625 485.253906 C 466.136719 483.855469 466.953125 482.5 467.832031 481.183594 C 468.710938 479.863281 469.65625 478.59375 470.660156 477.367188 C 471.667969 476.144531 472.730469 474.96875 473.851562 473.847656 C 474.96875 472.730469 476.144531 471.667969 477.367188 470.660156 C 478.59375 469.65625 479.863281 468.710938 481.183594 467.832031 C 482.5 466.953125 483.855469 466.136719 485.253906 465.390625 C 486.652344 464.644531 488.082031 463.96875 489.546875 463.359375 C 491.011719 462.753906 492.503906 462.222656 494.019531 461.761719 C 495.535156 461.300781 497.070312 460.917969 498.625 460.605469 C 500.179688 460.296875 501.746094 460.066406 503.320312 459.910156 C 504.898438 459.753906 506.480469 459.675781 508.066406 459.675781 Z M 508.066406 459.675781 " fill-opacity="1" fill-rule="nonzero"/><path fill="#407ad6" d="M 532.257812 362.902344 L 629.03125 362.902344 L 629.03125 459.675781 L 532.257812 459.675781 Z M 532.257812 362.902344 " fill-opacity="1" fill-rule="nonzero"/><path fill="#407ad6" d="M 701.613281 362.902344 L 798.386719 362.902344 L 798.386719 459.675781 L 701.613281 459.675781 Z M 701.613281 362.902344 " fill-opacity="1" fill-rule="nonzero"/><path fill="#407ad6" d="M 870.96875 362.902344 L 967.742188 362.902344 L 967.742188 459.675781 L 870.96875 459.675781 Z M 870.96875 362.902344 " fill-opacity="1" fill-rule="nonzero"/><path fill="#407ad6" d="M 362.902344 967.742188 L 362.902344 870.96875 L 459.675781 870.96875 L 459.675781 967.742188 Z M 362.902344 967.742188 " fill-opacity="1" fill-rule="nonzero"/><path fill="#407ad6" d="M 362.902344 798.386719 L 362.902344 701.613281 L 459.675781 701.613281 L 459.675781 798.386719 Z M 362.902344 798.386719 " fill-opacity="1" fill-rule="nonzero"/><path fill="#407ad6" d="M 362.902344 629.03125 L 362.902344 532.257812 L 459.675781 532.257812 L 459.675781 629.03125 Z M 362.902344 629.03125 " fill-opacity="1" fill-rule="nonzero"/><path fill="#407ad6" d="M 1040.324219 967.742188 L 1040.324219 870.96875 L 1137.097656 870.96875 L 1137.097656 967.742188 Z M 1040.324219 967.742188 " fill-opacity="1" fill-rule="nonzero"/><path fill="#407ad6" d="M 1040.324219 798.386719 L 1040.324219 701.613281 L 1137.097656 701.613281 L 1137.097656 798.386719 Z M 1040.324219 798.386719 " fill-opacity="1" fill-rule="nonzero"/><path fill="#407ad6" d="M 1040.324219 629.03125 L 1040.324219 532.257812 L 1137.097656 532.257812 L 1137.097656 629.03125 Z M 1040.324219 629.03125 " fill-opacity="1" fill-rule="nonzero"/><path fill="#407ad6" d="M 532.257812 1040.324219 L 629.03125 1040.324219 L 629.03125 1137.097656 L 532.257812 1137.097656 Z M 532.257812 1040.324219 " fill-opacity="1" fill-rule="nonzero"/><path fill="#407ad6" d="M 701.613281 1040.324219 L 798.386719 1040.324219 L 798.386719 1137.097656 L 701.613281 1137.097656 Z M 701.613281 1040.324219 " fill-opacity="1" fill-rule="nonzero"/><path fill="#407ad6" d="M 870.96875 1040.324219 L 967.742188 1040.324219 L 967.742188 1137.097656 L 870.96875 1137.097656 Z M 870.96875 1040.324219 " fill-opacity="1" fill-rule="nonzero"/><path fill="#407ad6" d="M 483.871094 290.324219 L 483.871094 193.546875 L 400.589844 183.136719 C 399.097656 179.121094 397.492188 175.171875 395.714844 171.304688 L 447.226562 105.074219 L 378.796875 36.644531 L 312.566406 88.15625 C 308.699219 86.378906 304.75 84.773438 300.734375 83.28125 L 290.324219 0 L 193.546875 0 L 183.136719 83.28125 C 179.121094 84.773438 175.171875 86.378906 171.304688 88.15625 L 105.074219 36.644531 L 36.644531 105.074219 L 88.15625 171.304688 C 86.378906 175.171875 84.773438 179.121094 83.28125 183.136719 L 0 193.546875 L 0 290.324219 L 83.28125 300.734375 C 84.773438 304.75 86.378906 308.699219 88.15625 312.566406 L 36.644531 378.796875 L 105.074219 447.226562 L 171.304688 395.714844 C 175.171875 397.492188 179.121094 399.097656 183.136719 400.589844 L 193.546875 483.871094 L 290.324219 483.871094 L 300.734375 400.589844 C 304.75 399.097656 308.699219 397.492188 312.566406 395.714844 L 378.796875 447.226562 L 447.226562 378.796875 L 395.714844 312.566406 C 397.492188 308.699219 399.097656 304.75 400.589844 300.734375 Z M 241.933594 338.710938 C 188.488281 338.710938 145.160156 295.382812 145.160156 241.933594 C 145.160156 188.488281 188.488281 145.160156 241.933594 145.160156 C 295.382812 145.160156 338.710938 188.488281 338.710938 241.933594 C 338.710938 295.382812 295.382812 338.710938 241.933594 338.710938 Z M 241.933594 338.710938 " fill-opacity="1" fill-rule="nonzero"/><path fill="#71d6fc" d="M 1258.0625 0 C 1124.449219 0 1016.128906 86.65625 1016.128906 193.546875 C 1016.128906 262.144531 1060.859375 322.261719 1128.132812 356.636719 L 1088.710938 435.484375 L 1217.121094 384.117188 C 1230.457031 385.941406 1244.078125 387.097656 1258.0625 387.097656 C 1391.679688 387.097656 1500 300.441406 1500 193.546875 C 1500 86.65625 1391.679688 0 1258.0625 0 Z M 1258.0625 0 " fill-opacity="1" fill-rule="nonzero"/><path fill="#1b498f" d="M 653.226562 846.773438 C 645.289062 846.773438 637.65625 842.851562 633.097656 836 L 580.644531 757.328125 L 580.644531 822.582031 C 580.644531 835.941406 569.824219 846.773438 556.453125 846.773438 C 543.078125 846.773438 532.257812 835.941406 532.257812 822.582031 L 532.257812 677.429688 C 532.257812 666.773438 539.226562 657.359375 549.433594 654.277344 C 559.640625 651.160156 570.699219 655.140625 576.582031 664.011719 L 629.03125 742.683594 L 629.03125 677.429688 C 629.03125 664.070312 639.851562 653.238281 653.226562 653.238281 C 666.597656 653.238281 677.417969 664.070312 677.417969 677.429688 L 677.417969 822.582031 C 677.417969 833.238281 670.449219 842.652344 660.242188 845.734375 C 657.925781 846.445312 655.566406 846.773438 653.226562 846.773438 Z M 653.226562 846.773438 " fill-opacity="1" fill-rule="nonzero"/><path fill="#1b498f" d="M 798.386719 846.773438 L 725.804688 846.773438 C 712.433594 846.773438 701.613281 835.941406 701.613281 822.582031 L 701.613281 677.417969 C 701.613281 664.058594 712.433594 653.226562 725.804688 653.226562 C 739.179688 653.226562 750 664.058594 750 677.417969 L 750 798.386719 L 798.386719 798.386719 C 811.757812 798.386719 822.582031 809.21875 822.582031 822.582031 C 822.582031 835.941406 811.757812 846.773438 798.386719 846.773438 Z M 798.386719 846.773438 " fill-opacity="1" fill-rule="nonzero"/><path fill="#1b498f" d="M 895.160156 653.226562 L 870.96875 653.226562 C 857.59375 653.226562 846.773438 664.058594 846.773438 677.417969 L 846.773438 822.582031 C 846.773438 835.941406 857.59375 846.773438 870.96875 846.773438 C 884.339844 846.773438 895.160156 835.941406 895.160156 822.582031 L 895.160156 798.386719 C 935.183594 798.386719 967.742188 765.828125 967.742188 725.804688 C 967.742188 685.78125 935.183594 653.226562 895.160156 653.226562 Z M 895.160156 750 L 895.160156 701.613281 C 908.511719 701.613281 919.355469 712.46875 919.355469 725.804688 C 919.355469 739.144531 908.511719 750 895.160156 750 Z M 895.160156 750 " fill-opacity="1" fill-rule="nonzero"/><path fill="#407ad6" d="M 1475.804688 1500 L 1088.710938 1500 C 1075.335938 1500 1064.515625 1489.167969 1064.515625 1475.804688 L 1064.515625 1088.710938 C 1064.515625 1075.347656 1075.335938 1064.515625 1088.710938 1064.515625 C 1102.082031 1064.515625 1112.902344 1075.347656 1112.902344 1088.710938 L 1112.902344 1451.613281 L 1475.804688 1451.613281 C 1489.179688 1451.613281 1500 1462.445312 1500 1475.804688 C 1500 1489.167969 1489.179688 1500 1475.804688 1500 Z M 1475.804688 1500 " fill-opacity="1" fill-rule="nonzero"/><path fill="#407ad6" d="M 1449.75 1200.4375 C 1447.296875 1194.515625 1442.585938 1189.800781 1436.664062 1187.347656 C 1433.707031 1186.125 1430.570312 1185.484375 1427.417969 1185.484375 L 1354.839844 1185.484375 C 1341.464844 1185.484375 1330.644531 1196.316406 1330.644531 1209.675781 C 1330.644531 1223.039062 1341.464844 1233.871094 1354.839844 1233.871094 L 1369.007812 1233.871094 L 1324.101562 1278.773438 L 1265.71875 1259.304688 C 1257 1256.375 1247.433594 1258.679688 1240.957031 1265.152344 L 1168.378906 1337.734375 C 1158.925781 1347.183594 1158.925781 1362.492188 1168.378906 1371.945312 C 1173.101562 1376.667969 1179.292969 1379.03125 1185.484375 1379.03125 C 1191.675781 1379.03125 1197.863281 1376.667969 1202.589844 1371.945312 L 1264.609375 1309.9375 L 1322.988281 1329.40625 C 1331.707031 1332.300781 1341.277344 1330.019531 1347.75 1323.558594 L 1403.226562 1268.082031 L 1403.226562 1282.257812 C 1403.226562 1295.617188 1414.046875 1306.453125 1427.417969 1306.453125 C 1440.792969 1306.453125 1451.613281 1295.617188 1451.613281 1282.257812 L 1451.613281 1209.675781 C 1451.613281 1206.527344 1450.972656 1203.394531 1449.75 1200.4375 Z M 1449.75 1200.4375 " fill-opacity="1" fill-rule="nonzero"/><path fill="#407ad6" d="M 1353.296875 257.625 L 1280.722656 64.085938 C 1277.175781 54.648438 1268.152344 48.386719 1258.0625 48.386719 C 1247.976562 48.386719 1238.953125 54.648438 1235.40625 64.085938 L 1162.832031 257.625 C 1158.152344 270.132812 1164.484375 284.074219 1176.984375 288.773438 C 1189.480469 293.382812 1203.441406 287.132812 1208.144531 274.613281 L 1220.402344 241.925781 L 1295.726562 241.925781 L 1307.984375 274.613281 C 1311.621094 284.320312 1320.859375 290.324219 1330.640625 290.324219 C 1333.476562 290.324219 1336.335938 289.816406 1339.144531 288.773438 C 1351.644531 284.074219 1357.976562 270.132812 1353.296875 257.625 Z M 1238.542969 193.542969 L 1258.0625 141.484375 L 1277.585938 193.542969 Z M 1238.542969 193.542969 " fill-opacity="1" fill-rule="nonzero"/><path fill="#71d6fc" d="M 413.710938 1282.257812 C 413.710938 1285.464844 413.632812 1288.671875 413.472656 1291.875 C 413.316406 1295.078125 413.082031 1298.273438 412.765625 1301.464844 C 412.453125 1304.65625 412.058594 1307.839844 411.589844 1311.011719 C 411.117188 1314.183594 410.570312 1317.34375 409.945312 1320.488281 C 409.320312 1323.636719 408.617188 1326.761719 407.835938 1329.875 C 407.058594 1332.984375 406.203125 1336.074219 405.269531 1339.144531 C 404.339844 1342.214844 403.335938 1345.257812 402.253906 1348.277344 C 401.171875 1351.296875 400.019531 1354.289062 398.792969 1357.25 C 397.566406 1360.214844 396.265625 1363.144531 394.894531 1366.042969 C 393.523438 1368.945312 392.082031 1371.808594 390.570312 1374.636719 C 389.058594 1377.464844 387.476562 1380.253906 385.828125 1383.003906 C 384.179688 1385.757812 382.464844 1388.464844 380.683594 1391.132812 C 378.902344 1393.796875 377.054688 1396.417969 375.144531 1398.996094 C 373.234375 1401.570312 371.261719 1404.097656 369.226562 1406.578125 C 367.191406 1409.058594 365.097656 1411.484375 362.945312 1413.863281 C 360.789062 1416.238281 358.578125 1418.558594 356.3125 1420.828125 C 354.042969 1423.097656 351.722656 1425.304688 349.347656 1427.460938 C 346.96875 1429.613281 344.542969 1431.707031 342.0625 1433.742188 C 339.582031 1435.777344 337.054688 1437.75 334.480469 1439.660156 C 331.902344 1441.570312 329.28125 1443.417969 326.617188 1445.199219 C 323.949219 1446.980469 321.242188 1448.695312 318.488281 1450.34375 C 315.738281 1451.992188 312.949219 1453.574219 310.121094 1455.085938 C 307.292969 1456.597656 304.429688 1458.039062 301.527344 1459.410156 C 298.628906 1460.78125 295.699219 1462.082031 292.734375 1463.308594 C 289.773438 1464.535156 286.78125 1465.691406 283.761719 1466.769531 C 280.742188 1467.851562 277.699219 1468.855469 274.628906 1469.789062 C 271.558594 1470.71875 268.46875 1471.574219 265.359375 1472.351562 C 262.246094 1473.132812 259.117188 1473.835938 255.972656 1474.460938 C 252.828125 1475.085938 249.667969 1475.632812 246.496094 1476.105469 C 243.324219 1476.574219 240.140625 1476.96875 236.949219 1477.28125 C 233.757812 1477.597656 230.5625 1477.832031 227.359375 1477.988281 C 224.15625 1478.148438 220.949219 1478.226562 217.742188 1478.226562 C 214.535156 1478.226562 211.328125 1478.148438 208.125 1477.988281 C 204.921875 1477.832031 201.726562 1477.597656 198.535156 1477.28125 C 195.34375 1476.96875 192.160156 1476.574219 188.988281 1476.105469 C 185.816406 1475.632812 182.65625 1475.085938 179.511719 1474.460938 C 176.363281 1473.835938 173.238281 1473.132812 170.125 1472.351562 C 167.015625 1471.574219 163.925781 1470.71875 160.855469 1469.789062 C 157.785156 1468.855469 154.742188 1467.851562 151.722656 1466.769531 C 148.703125 1465.691406 145.710938 1464.535156 142.75 1463.308594 C 139.785156 1462.082031 136.855469 1460.78125 133.953125 1459.410156 C 131.054688 1458.039062 128.191406 1456.597656 125.363281 1455.085938 C 122.535156 1453.574219 119.746094 1451.992188 116.996094 1450.34375 C 114.242188 1448.695312 111.535156 1446.980469 108.867188 1445.199219 C 106.203125 1443.417969 103.582031 1441.570312 101.003906 1439.660156 C 98.429688 1437.75 95.902344 1435.777344 93.421875 1433.742188 C 90.941406 1431.707031 88.515625 1429.613281 86.136719 1427.460938 C 83.761719 1425.304688 81.441406 1423.097656 79.171875 1420.828125 C 76.902344 1418.558594 74.691406 1416.238281 72.539062 1413.863281 C 70.386719 1411.484375 68.292969 1409.058594 66.257812 1406.578125 C 64.222656 1404.097656 62.25 1401.570312 60.339844 1398.996094 C 58.429688 1396.417969 56.582031 1393.796875 54.800781 1391.132812 C 53.019531 1388.464844 51.304688 1385.757812 49.65625 1383.003906 C 48.007812 1380.253906 46.425781 1377.464844 44.914062 1374.636719 C 43.402344 1371.808594 41.960938 1368.945312 40.589844 1366.042969 C 39.21875 1363.144531 37.917969 1360.214844 36.691406 1357.25 C 35.464844 1354.289062 34.308594 1351.296875 33.230469 1348.277344 C 32.148438 1345.257812 31.144531 1342.214844 30.210938 1339.144531 C 29.28125 1336.074219 28.425781 1332.984375 27.648438 1329.875 C 26.867188 1326.761719 26.164062 1323.636719 25.539062 1320.488281 C 24.914062 1317.34375 24.367188 1314.183594 23.894531 1311.011719 C 23.425781 1307.839844 23.03125 1304.65625 22.71875 1301.464844 C 22.402344 1298.273438 22.167969 1295.078125 22.011719 1291.875 C 21.851562 1288.671875 21.773438 1285.464844 21.773438 1282.257812 C 21.773438 1279.050781 21.851562 1275.84375 22.011719 1272.640625 C 22.167969 1269.4375 22.402344 1266.242188 22.71875 1263.050781 C 23.03125 1259.859375 23.425781 1256.675781 23.894531 1253.503906 C 24.367188 1250.332031 24.914062 1247.171875 25.539062 1244.027344 C 26.164062 1240.882812 26.867188 1237.753906 27.648438 1234.640625 C 28.425781 1231.53125 29.28125 1228.441406 30.210938 1225.371094 C 31.144531 1222.300781 32.148438 1219.257812 33.230469 1216.238281 C 34.308594 1213.21875 35.464844 1210.226562 36.691406 1207.265625 C 37.917969 1204.300781 39.21875 1201.371094 40.589844 1198.472656 C 41.960938 1195.570312 43.402344 1192.707031 44.914062 1189.878906 C 46.425781 1187.050781 48.007812 1184.261719 49.65625 1181.511719 C 51.304688 1178.757812 53.019531 1176.050781 54.800781 1173.382812 C 56.582031 1170.71875 58.429688 1168.097656 60.339844 1165.519531 C 62.25 1162.945312 64.222656 1160.417969 66.257812 1157.9375 C 68.292969 1155.457031 70.386719 1153.03125 72.539062 1150.652344 C 74.691406 1148.277344 76.902344 1145.957031 79.171875 1143.6875 C 81.441406 1141.421875 83.761719 1139.210938 86.136719 1137.054688 C 88.515625 1134.902344 90.941406 1132.808594 93.421875 1130.773438 C 95.902344 1128.738281 98.429688 1126.765625 101.003906 1124.855469 C 103.582031 1122.945312 106.203125 1121.097656 108.867188 1119.316406 C 111.535156 1117.535156 114.242188 1115.820312 116.996094 1114.171875 C 119.746094 1112.523438 122.535156 1110.941406 125.363281 1109.429688 C 128.191406 1107.917969 131.054688 1106.476562 133.953125 1105.105469 C 136.855469 1103.734375 139.785156 1102.433594 142.75 1101.207031 C 145.710938 1099.980469 148.703125 1098.824219 151.722656 1097.746094 C 154.742188 1096.664062 157.785156 1095.660156 160.855469 1094.730469 C 163.925781 1093.796875 167.015625 1092.941406 170.125 1092.164062 C 173.238281 1091.382812 176.363281 1090.679688 179.511719 1090.054688 C 182.65625 1089.429688 185.816406 1088.882812 188.988281 1088.410156 C 192.160156 1087.941406 195.34375 1087.546875 198.535156 1087.234375 C 201.726562 1086.917969 204.921875 1086.683594 208.125 1086.527344 C 211.328125 1086.367188 214.535156 1086.289062 217.742188 1086.289062 C 220.949219 1086.289062 224.15625 1086.367188 227.359375 1086.527344 C 230.5625 1086.683594 233.757812 1086.917969 236.949219 1087.234375 C 240.140625 1087.546875 243.324219 1087.941406 246.496094 1088.410156 C 249.667969 1088.882812 252.828125 1089.429688 255.972656 1090.054688 C 259.117188 1090.679688 262.246094 1091.382812 265.359375 1092.164062 C 268.46875 1092.941406 271.558594 1093.796875 274.628906 1094.730469 C 277.699219 1095.660156 280.742188 1096.664062 283.761719 1097.746094 C 286.78125 1098.824219 289.773438 1099.980469 292.734375 1101.207031 C 295.699219 1102.433594 298.628906 1103.734375 301.527344 1105.105469 C 304.429688 1106.476562 307.292969 1107.917969 310.121094 1109.429688 C 312.949219 1110.941406 315.738281 1112.523438 318.488281 1114.171875 C 321.242188 1115.820312 323.949219 1117.535156 326.617188 1119.316406 C 329.28125 1121.097656 331.902344 1122.945312 334.480469 1124.855469 C 337.054688 1126.765625 339.582031 1128.738281 342.0625 1130.773438 C 344.542969 1132.808594 346.96875 1134.902344 349.347656 1137.054688 C 351.722656 1139.210938 354.042969 1141.421875 356.3125 1143.6875 C 358.578125 1145.957031 360.789062 1148.277344 362.945312 1150.652344 C 365.097656 1153.03125 367.191406 1155.457031 369.226562 1157.9375 C 371.261719 1160.417969 373.234375 1162.945312 375.144531 1165.519531 C 377.054688 1168.097656 378.902344 1170.71875 380.683594 1173.382812 C 382.464844 1176.050781 384.179688 1178.757812 385.828125 1181.511719 C 387.476562 1184.261719 389.058594 1187.050781 390.570312 1189.878906 C 392.082031 1192.707031 393.523438 1195.570312 394.894531 1198.472656 C 396.265625 1201.371094 397.566406 1204.300781 398.792969 1207.265625 C 400.019531 1210.226562 401.171875 1213.21875 402.253906 1216.238281 C 403.335938 1219.257812 404.339844 1222.300781 405.269531 1225.371094 C 406.203125 1228.441406 407.058594 1231.53125 407.835938 1234.640625 C 408.617188 1237.753906 409.320312 1240.882812 409.945312 1244.027344 C 410.570312 1247.171875 411.117188 1250.332031 411.589844 1253.503906 C 412.058594 1256.675781 412.453125 1259.859375 412.765625 1263.050781 C 413.082031 1266.242188 413.316406 1269.4375 413.472656 1272.640625 C 413.632812 1275.84375 413.710938 1279.050781 413.710938 1282.257812 Z M 413.710938 1282.257812 " fill-opacity="1" fill-rule="nonzero"/><path fill="#407ad6" d="M 217.742188 1064.515625 C 97.6875 1064.515625 0 1162.191406 0 1282.257812 C 0 1402.324219 97.6875 1500 217.742188 1500 C 337.796875 1500 435.484375 1402.324219 435.484375 1282.257812 C 435.484375 1162.191406 337.796875 1064.515625 217.742188 1064.515625 Z M 391.933594 1282.257812 C 391.933594 1298.304688 389.578125 1313.78125 385.496094 1328.550781 C 372.898438 1324.601562 359.964844 1321.070312 346.546875 1318.066406 C 347.660156 1306.414062 348.386719 1294.515625 348.386719 1282.257812 C 348.386719 1270 347.660156 1258.101562 346.546875 1246.445312 C 359.964844 1243.445312 372.898438 1239.914062 385.496094 1235.964844 C 389.578125 1250.734375 391.933594 1266.210938 391.933594 1282.257812 Z M 43.546875 1282.257812 C 43.546875 1266.210938 45.90625 1250.734375 49.988281 1235.964844 C 62.582031 1239.914062 75.515625 1243.445312 88.9375 1246.445312 C 87.824219 1258.101562 87.097656 1270 87.097656 1282.257812 C 87.097656 1294.515625 87.824219 1306.414062 88.9375 1318.066406 C 75.519531 1321.066406 62.585938 1324.601562 49.988281 1328.550781 C 45.90625 1313.78125 43.546875 1298.304688 43.546875 1282.257812 Z M 130.644531 1282.257812 C 130.644531 1272.613281 131.171875 1263.347656 131.941406 1254.289062 C 152.746094 1257.222656 174.171875 1258.910156 195.96875 1259.65625 L 195.96875 1304.859375 C 174.171875 1305.605469 152.746094 1307.292969 131.941406 1310.226562 C 131.171875 1301.167969 130.644531 1291.898438 130.644531 1282.257812 Z M 239.515625 1114.539062 C 263.183594 1128.179688 285.484375 1162.890625 296.902344 1211.277344 C 278.277344 1213.882812 259.074219 1215.402344 239.515625 1216.117188 Z M 195.96875 1114.539062 L 195.96875 1216.117188 C 176.410156 1215.402344 157.207031 1213.882812 138.582031 1211.277344 C 149.996094 1162.890625 172.300781 1128.179688 195.96875 1114.539062 Z M 195.96875 1348.398438 L 195.96875 1449.976562 C 172.300781 1436.335938 149.996094 1401.625 138.582031 1353.238281 C 157.207031 1350.632812 176.410156 1349.113281 195.96875 1348.398438 Z M 239.515625 1449.976562 L 239.515625 1348.398438 C 259.074219 1349.113281 278.277344 1350.632812 296.902344 1353.238281 C 285.484375 1401.625 263.183594 1436.335938 239.515625 1449.976562 Z M 239.515625 1304.859375 L 239.515625 1259.65625 C 261.308594 1258.910156 282.738281 1257.222656 303.542969 1254.289062 C 304.3125 1263.347656 304.839844 1272.613281 304.839844 1282.257812 C 304.839844 1291.898438 304.3125 1301.167969 303.542969 1310.226562 C 282.738281 1307.292969 261.308594 1305.605469 239.515625 1304.859375 Z M 368.625 1195.585938 C 359.191406 1198.441406 349.679688 1201.175781 339.726562 1203.460938 C 334.328125 1179.648438 326.570312 1157.976562 316.835938 1139.179688 C 338.007812 1153.886719 355.699219 1173.179688 368.625 1195.585938 Z M 118.648438 1139.179688 C 108.914062 1157.976562 101.15625 1179.648438 95.757812 1203.460938 C 85.804688 1201.175781 76.289062 1198.441406 66.859375 1195.585938 C 79.785156 1173.179688 97.476562 1153.886719 118.648438 1139.179688 Z M 66.859375 1368.929688 C 76.289062 1366.074219 85.804688 1363.339844 95.757812 1361.054688 C 101.15625 1384.867188 108.914062 1406.542969 118.648438 1425.335938 C 97.476562 1410.628906 79.785156 1391.335938 66.859375 1368.929688 Z M 316.835938 1425.335938 C 326.570312 1406.542969 334.328125 1384.867188 339.726562 1361.054688 C 349.675781 1363.339844 359.191406 1366.074219 368.625 1368.929688 C 355.699219 1391.335938 338.007812 1410.628906 316.835938 1425.335938 Z M 316.835938 1425.335938 " fill-opacity="1" fill-rule="nonzero"/><path fill="#1b498f" d="M 580.644531 120.96875 L 629.03125 120.96875 L 629.03125 169.355469 L 580.644531 169.355469 Z M 580.644531 120.96875 " fill-opacity="1" fill-rule="nonzero"/><path fill="#1b498f" d="M 677.417969 120.96875 L 725.804688 120.96875 L 725.804688 169.355469 L 677.417969 169.355469 Z M 677.417969 120.96875 " fill-opacity="1" fill-rule="nonzero"/><path fill="#1b498f" d="M 774.195312 120.96875 L 822.582031 120.96875 L 822.582031 169.355469 L 774.195312 169.355469 Z M 774.195312 120.96875 " fill-opacity="1" fill-rule="nonzero"/><path fill="#1b498f" d="M 870.96875 120.96875 L 919.355469 120.96875 L 919.355469 169.355469 L 870.96875 169.355469 Z M 870.96875 120.96875 " fill-opacity="1" fill-rule="nonzero"/><path fill="#1b498f" d="M 580.644531 1330.644531 L 629.03125 1330.644531 L 629.03125 1379.03125 L 580.644531 1379.03125 Z M 580.644531 1330.644531 " fill-opacity="1" fill-rule="nonzero"/><path fill="#1b498f" d="M 677.417969 1330.644531 L 725.804688 1330.644531 L 725.804688 1379.03125 L 677.417969 1379.03125 Z M 677.417969 1330.644531 " fill-opacity="1" fill-rule="nonzero"/><path fill="#1b498f" d="M 774.195312 1330.644531 L 822.582031 1330.644531 L 822.582031 1379.03125 L 774.195312 1379.03125 Z M 774.195312 1330.644531 " fill-opacity="1" fill-rule="nonzero"/><path fill="#1b498f" d="M 870.96875 1330.644531 L 919.355469 1330.644531 L 919.355469 1379.03125 L 870.96875 1379.03125 Z M 870.96875 1330.644531 " fill-opacity="1" fill-rule="nonzero"/><path fill="#1b498f" d="M 1330.644531 580.644531 L 1379.03125 580.644531 L 1379.03125 629.03125 L 1330.644531 629.03125 Z M 1330.644531 580.644531 " fill-opacity="1" fill-rule="nonzero"/><path fill="#1b498f" d="M 1330.644531 677.417969 L 1379.03125 677.417969 L 1379.03125 725.804688 L 1330.644531 725.804688 Z M 1330.644531 677.417969 " fill-opacity="1" fill-rule="nonzero"/><path fill="#1b498f" d="M 1330.644531 774.195312 L 1379.03125 774.195312 L 1379.03125 822.582031 L 1330.644531 822.582031 Z M 1330.644531 774.195312 " fill-opacity="1" fill-rule="nonzero"/><path fill="#1b498f" d="M 1330.644531 870.96875 L 1379.03125 870.96875 L 1379.03125 919.355469 L 1330.644531 919.355469 Z M 1330.644531 870.96875 " fill-opacity="1" fill-rule="nonzero"/><path fill="#1b498f" d="M 120.96875 580.644531 L 169.355469 580.644531 L 169.355469 629.03125 L 120.96875 629.03125 Z M 120.96875 580.644531 " fill-opacity="1" fill-rule="nonzero"/><path fill="#1b498f" d="M 120.96875 677.417969 L 169.355469 677.417969 L 169.355469 725.804688 L 120.96875 725.804688 Z M 120.96875 677.417969 " fill-opacity="1" fill-rule="nonzero"/><path fill="#1b498f" d="M 120.96875 774.195312 L 169.355469 774.195312 L 169.355469 822.582031 L 120.96875 822.582031 Z M 120.96875 774.195312 " fill-opacity="1" fill-rule="nonzero"/><path fill="#1b498f" d="M 120.96875 870.96875 L 169.355469 870.96875 L 169.355469 919.355469 L 120.96875 919.355469 Z M 120.96875 870.96875 " fill-opacity="1" fill-rule="nonzero"/></svg>