<svg xmlns="http://www.w3.org/2000/svg" xmlns:xlink="http://www.w3.org/1999/xlink" width="2000" zoomAndPan="magnify" viewBox="0 0 1500 1499.999933" height="2000" preserveAspectRatio="xMidYMid meet" version="1.0"><defs><filter x="0%" y="0%" width="100%" height="100%" id="6b1b405320"><feColorMatrix values="0 0 0 0 1 0 0 0 0 1 0 0 0 0 1 0 0 0 1 0" color-interpolation-filters="sRGB"/></filter><mask id="de9582d362"><g filter="url(#6b1b405320)"><rect x="-150" width="1800" fill="#000000" y="-149.999993" height="1799.99992" fill-opacity="0.35"/></g></mask><clipPath id="a8e6fa3ecf"><rect x="0" width="1056" y="0" height="610"/></clipPath></defs><path fill="#7dcedc" d="M 1500 750 C 1500 762.273438 1499.699219 774.542969 1499.097656 786.800781 C 1498.496094 799.058594 1497.589844 811.296875 1496.386719 823.511719 C 1495.183594 835.726562 1493.683594 847.90625 1491.882812 860.046875 C 1490.082031 872.1875 1487.984375 884.277344 1485.589844 896.316406 C 1483.195312 908.355469 1480.503906 920.328125 1477.523438 932.234375 C 1474.539062 944.140625 1471.269531 955.96875 1467.703125 967.714844 C 1464.140625 979.460938 1460.292969 991.109375 1456.15625 1002.667969 C 1452.023438 1014.222656 1447.605469 1025.671875 1442.910156 1037.011719 C 1438.210938 1048.351562 1433.238281 1059.570312 1427.992188 1070.667969 C 1422.742188 1081.761719 1417.226562 1092.722656 1411.441406 1103.546875 C 1405.65625 1114.371094 1399.605469 1125.050781 1393.296875 1135.578125 C 1386.984375 1146.105469 1380.421875 1156.472656 1373.601562 1166.675781 C 1366.78125 1176.882812 1359.71875 1186.914062 1352.40625 1196.773438 C 1345.09375 1206.632812 1337.542969 1216.308594 1329.757812 1225.792969 C 1321.972656 1235.28125 1313.957031 1244.574219 1305.714844 1253.667969 C 1297.46875 1262.765625 1289.007812 1271.652344 1280.328125 1280.328125 C 1271.652344 1289.007812 1262.765625 1297.46875 1253.667969 1305.714844 C 1244.574219 1313.957031 1235.28125 1321.972656 1225.792969 1329.757812 C 1216.308594 1337.542969 1206.632812 1345.09375 1196.773438 1352.40625 C 1186.914062 1359.71875 1176.882812 1366.78125 1166.675781 1373.601562 C 1156.472656 1380.421875 1146.105469 1386.984375 1135.578125 1393.296875 C 1125.050781 1399.605469 1114.371094 1405.65625 1103.546875 1411.441406 C 1092.722656 1417.226562 1081.761719 1422.742188 1070.667969 1427.992188 C 1059.570312 1433.238281 1048.351562 1438.210938 1037.011719 1442.910156 C 1025.671875 1447.605469 1014.222656 1452.023438 1002.667969 1456.15625 C 991.109375 1460.292969 979.460938 1464.140625 967.714844 1467.703125 C 955.96875 1471.269531 944.140625 1474.539062 932.234375 1477.523438 C 920.328125 1480.503906 908.355469 1483.195312 896.316406 1485.589844 C 884.277344 1487.984375 872.1875 1490.082031 860.046875 1491.882812 C 847.90625 1493.683594 835.726562 1495.183594 823.511719 1496.386719 C 811.296875 1497.589844 799.058594 1498.492188 786.800781 1499.097656 C 774.542969 1499.699219 762.273438 1500 750 1500 C 737.726562 1500 725.457031 1499.699219 713.199219 1499.097656 C 700.941406 1498.496094 688.703125 1497.589844 676.488281 1496.386719 C 664.273438 1495.183594 652.09375 1493.683594 639.953125 1491.882812 C 627.8125 1490.082031 615.71875 1487.984375 603.683594 1485.589844 C 591.644531 1483.195312 579.671875 1480.503906 567.765625 1477.523438 C 555.859375 1474.539062 544.03125 1471.269531 532.285156 1467.703125 C 520.539062 1464.140625 508.890625 1460.292969 497.332031 1456.15625 C 485.777344 1452.023438 474.328125 1447.605469 462.988281 1442.910156 C 451.648438 1438.210938 440.429688 1433.238281 429.332031 1427.992188 C 418.238281 1422.742188 407.277344 1417.226562 396.453125 1411.441406 C 385.628906 1405.65625 374.949219 1399.605469 364.421875 1393.296875 C 353.894531 1386.984375 343.527344 1380.421875 333.324219 1373.601562 C 323.117188 1366.78125 313.085938 1359.71875 303.226562 1352.40625 C 293.367188 1345.09375 283.691406 1337.542969 274.203125 1329.757812 C 264.71875 1321.972656 255.425781 1313.957031 246.332031 1305.714844 C 237.234375 1297.46875 228.347656 1289.007812 219.667969 1280.328125 C 210.992188 1271.652344 202.53125 1262.765625 194.285156 1253.667969 C 186.042969 1244.574219 178.027344 1235.28125 170.242188 1225.792969 C 162.457031 1216.308594 154.90625 1206.632812 147.59375 1196.773438 C 140.28125 1186.914062 133.21875 1176.882812 126.398438 1166.675781 C 119.578125 1156.472656 113.015625 1146.105469 106.703125 1135.578125 C 100.394531 1125.050781 94.34375 1114.371094 88.558594 1103.546875 C 82.773438 1092.722656 77.257812 1081.761719 72.007812 1070.667969 C 66.761719 1059.570312 61.789062 1048.351562 57.089844 1037.011719 C 52.394531 1025.671875 47.976562 1014.222656 43.84375 1002.667969 C 39.707031 991.109375 35.859375 979.460938 32.292969 967.714844 C 28.730469 955.96875 25.460938 944.140625 22.476562 932.234375 C 19.496094 920.328125 16.804688 908.355469 14.410156 896.316406 C 12.015625 884.277344 9.917969 872.1875 8.117188 860.046875 C 6.316406 847.90625 4.816406 835.726562 3.613281 823.511719 C 2.410156 811.296875 1.503906 799.058594 0.902344 786.800781 C 0.300781 774.542969 0 762.273438 0 750 C 0 737.726562 0.300781 725.457031 0.902344 713.199219 C 1.503906 700.941406 2.410156 688.703125 3.613281 676.488281 C 4.816406 664.273438 6.316406 652.09375 8.117188 639.953125 C 9.917969 627.8125 12.015625 615.71875 14.410156 603.683594 C 16.804688 591.644531 19.496094 579.671875 22.476562 567.765625 C 25.460938 555.859375 28.730469 544.03125 32.292969 532.285156 C 35.859375 520.539062 39.707031 508.890625 43.84375 497.332031 C 47.976562 485.777344 52.394531 474.328125 57.089844 462.988281 C 61.789062 451.648438 66.761719 440.429688 72.007812 429.332031 C 77.257812 418.238281 82.773438 407.277344 88.558594 396.453125 C 94.34375 385.628906 100.394531 374.949219 106.703125 364.421875 C 113.015625 353.894531 119.578125 343.527344 126.398438 333.320312 C 133.21875 323.117188 140.28125 313.085938 147.59375 303.226562 C 154.90625 293.367188 162.457031 283.691406 170.242188 274.203125 C 178.027344 264.71875 186.042969 255.425781 194.285156 246.332031 C 202.53125 237.234375 210.992188 228.347656 219.667969 219.667969 C 228.347656 210.992188 237.234375 202.53125 246.332031 194.285156 C 255.425781 186.042969 264.71875 178.027344 274.203125 170.242188 C 283.691406 162.457031 293.367188 154.90625 303.226562 147.59375 C 313.085938 140.28125 323.117188 133.21875 333.324219 126.398438 C 343.527344 119.578125 353.894531 113.015625 364.421875 106.703125 C 374.949219 100.394531 385.628906 94.34375 396.453125 88.558594 C 407.277344 82.773438 418.238281 77.257812 429.332031 72.007812 C 440.429688 66.761719 451.648438 61.789062 462.988281 57.089844 C 474.328125 52.394531 485.777344 47.976562 497.332031 43.84375 C 508.890625 39.707031 520.539062 35.859375 532.285156 32.292969 C 544.03125 28.730469 555.859375 25.457031 567.765625 22.476562 C 579.671875 19.492188 591.644531 16.804688 603.683594 14.410156 C 615.71875 12.015625 627.8125 9.917969 639.953125 8.117188 C 652.09375 6.316406 664.273438 4.816406 676.488281 3.613281 C 688.703125 2.410156 700.941406 1.503906 713.199219 0.902344 C 725.457031 0.300781 737.726562 0 750 0 C 762.273438 0 774.542969 0.300781 786.800781 0.902344 C 799.058594 1.503906 811.296875 2.410156 823.511719 3.613281 C 835.726562 4.816406 847.90625 6.316406 860.046875 8.117188 C 872.1875 9.917969 884.277344 12.015625 896.316406 14.410156 C 908.355469 16.804688 920.328125 19.492188 932.234375 22.476562 C 944.140625 25.457031 955.96875 28.730469 967.714844 32.292969 C 979.460938 35.859375 991.109375 39.707031 1002.667969 43.84375 C 1014.222656 47.976562 1025.671875 52.394531 1037.011719 57.089844 C 1048.351562 61.789062 1059.570312 66.761719 1070.667969 72.007812 C 1081.761719 77.257812 1092.722656 82.773438 1103.546875 88.558594 C 1114.371094 94.34375 1125.050781 100.394531 1135.578125 106.703125 C 1146.105469 113.015625 1156.472656 119.578125 1166.675781 126.398438 C 1176.882812 133.21875 1186.914062 140.28125 1196.773438 147.59375 C 1206.632812 154.90625 1216.308594 162.457031 1225.792969 170.242188 C 1235.28125 178.027344 1244.574219 186.042969 1253.667969 194.285156 C 1262.765625 202.53125 1271.652344 210.992188 1280.328125 219.667969 C 1289.007812 228.347656 1297.46875 237.234375 1305.714844 246.332031 C 1313.957031 255.425781 1321.972656 264.71875 1329.757812 274.203125 C 1337.542969 283.691406 1345.09375 293.367188 1352.40625 303.226562 C 1359.71875 313.085938 1366.78125 323.117188 1373.601562 333.320312 C 1380.421875 343.527344 1386.984375 353.894531 1393.296875 364.421875 C 1399.605469 374.949219 1405.65625 385.628906 1411.441406 396.453125 C 1417.226562 407.277344 1422.742188 418.238281 1427.992188 429.332031 C 1433.238281 440.429688 1438.210938 451.648438 1442.910156 462.988281 C 1447.605469 474.328125 1452.023438 485.777344 1456.15625 497.332031 C 1460.292969 508.890625 1464.140625 520.539062 1467.707031 532.285156 C 1471.269531 544.03125 1474.539062 555.859375 1477.523438 567.765625 C 1480.503906 579.671875 1483.195312 591.644531 1485.589844 603.683594 C 1487.984375 615.71875 1490.082031 627.8125 1491.882812 639.953125 C 1493.683594 652.09375 1495.183594 664.273438 1496.386719 676.488281 C 1497.589844 688.703125 1498.492188 700.941406 1499.097656 713.199219 C 1499.699219 725.457031 1500 737.726562 1500 750 Z M 1500 750 " fill-opacity="1" fill-rule="nonzero"/><path fill="#474f59" d="M 1115.625 998.4375 L 1103.90625 998.4375 L 1103.90625 683.203125 C 1103.90625 670.3125 1093.359375 659.765625 1080.46875 659.765625 C 1067.578125 659.765625 1057.03125 670.3125 1057.03125 683.203125 L 1057.03125 806.25 C 1057.03125 826.171875 1041.796875 841.40625 1021.875 841.40625 C 1001.953125 841.40625 986.71875 825 986.71875 806.25 L 986.71875 533.203125 L 998.4375 533.203125 L 998.4375 807.421875 C 998.4375 820.3125 1008.984375 830.859375 1021.875 830.859375 C 1034.765625 830.859375 1045.3125 820.3125 1045.3125 807.421875 L 1045.3125 683.203125 C 1045.3125 663.28125 1061.71875 648.046875 1080.46875 648.046875 C 1100.390625 648.046875 1115.625 664.453125 1115.625 683.203125 Z M 1115.625 998.4375 " fill-opacity="1" fill-rule="nonzero"/><path fill="#474f59" d="M 486.328125 1055.859375 L 474.609375 1055.859375 L 474.609375 826.171875 C 474.609375 812.109375 462.890625 801.5625 450 801.5625 L 336.328125 801.5625 C 316.40625 801.5625 300 785.15625 300 765.234375 C 300 745.3125 316.40625 728.90625 336.328125 728.90625 L 503.90625 728.90625 C 517.96875 728.90625 528.515625 717.1875 528.515625 704.296875 L 528.515625 533.203125 L 540.234375 533.203125 L 540.234375 703.125 C 540.234375 723.046875 523.828125 739.453125 503.90625 739.453125 L 335.15625 739.453125 C 321.09375 739.453125 310.546875 751.171875 310.546875 764.0625 C 310.546875 778.125 322.265625 788.671875 335.15625 788.671875 L 448.828125 788.671875 C 468.75 788.671875 485.15625 805.078125 485.15625 825 L 485.15625 1055.859375 Z M 486.328125 1055.859375 " fill-opacity="1" fill-rule="nonzero"/><path fill="#ffffff" d="M 239.0625 759.375 L 227.34375 760.546875 C 228.515625 780.46875 230.859375 800.390625 234.375 820.3125 L 246.09375 817.96875 C 242.578125 799.21875 240.234375 779.296875 239.0625 759.375 Z M 239.0625 759.375 " fill-opacity="1" fill-rule="nonzero"/><path fill="#ffffff" d="M 249.609375 841.40625 L 237.890625 843.75 C 242.578125 863.671875 247.265625 883.59375 254.296875 902.34375 L 266.015625 898.828125 C 258.984375 880.078125 254.296875 861.328125 249.609375 841.40625 Z M 249.609375 841.40625 " fill-opacity="1" fill-rule="nonzero"/><path fill="#ffffff" d="M 237.890625 732.421875 C 237.890625 713.671875 239.0625 694.921875 241.40625 676.171875 L 229.6875 675 C 227.34375 693.75 226.171875 713.671875 226.171875 732.421875 L 226.171875 735.9375 L 237.890625 735.9375 Z M 237.890625 732.421875 " fill-opacity="1" fill-rule="nonzero"/><path fill="#ffffff" d="M 262.5 925.78125 C 269.53125 944.53125 278.90625 963.28125 288.28125 980.859375 L 298.828125 975 C 289.453125 957.421875 281.25 939.84375 274.21875 921.09375 Z M 262.5 925.78125 " fill-opacity="1" fill-rule="nonzero"/><path fill="#ffffff" d="M 256.640625 595.3125 L 244.921875 591.796875 C 239.0625 611.71875 235.546875 631.640625 232.03125 651.5625 L 243.75 653.90625 C 247.265625 633.984375 251.953125 614.0625 256.640625 595.3125 Z M 256.640625 595.3125 " fill-opacity="1" fill-rule="nonzero"/><path fill="#ffffff" d="M 1214.0625 516.796875 C 1222.265625 534.375 1229.296875 553.125 1236.328125 571.875 L 1248.046875 568.359375 C 1242.1875 549.609375 1233.984375 529.6875 1225.78125 512.109375 Z M 1214.0625 516.796875 " fill-opacity="1" fill-rule="nonzero"/><path fill="#ffffff" d="M 1214.0625 489.84375 C 1208.203125 479.296875 1202.34375 468.75 1196.484375 458.203125 L 1182.421875 458.203125 C 1190.625 469.921875 1197.65625 482.8125 1203.515625 494.53125 Z M 1214.0625 489.84375 " fill-opacity="1" fill-rule="nonzero"/><path fill="#ffffff" d="M 1255.078125 652.734375 L 1266.796875 650.390625 C 1263.28125 630.46875 1259.765625 610.546875 1253.90625 590.625 L 1242.1875 594.140625 C 1248.046875 612.890625 1251.5625 632.8125 1255.078125 652.734375 Z M 1255.078125 652.734375 " fill-opacity="1" fill-rule="nonzero"/><path fill="#ffffff" d="M 285.9375 516.796875 L 275.390625 512.109375 C 267.1875 530.859375 258.984375 549.609375 253.125 568.359375 L 264.84375 571.875 C 269.53125 553.125 277.734375 535.546875 285.9375 516.796875 Z M 285.9375 516.796875 " fill-opacity="1" fill-rule="nonzero"/><path fill="#ffffff" d="M 318.75 458.203125 L 304.6875 458.203125 C 297.65625 468.75 291.796875 479.296875 285.9375 489.84375 L 296.484375 495.703125 C 302.34375 482.8125 310.546875 471.09375 318.75 458.203125 Z M 318.75 458.203125 " fill-opacity="1" fill-rule="nonzero"/><path fill="#ffffff" d="M 1233.984375 897.65625 L 1245.703125 901.171875 C 1252.734375 882.421875 1257.421875 862.5 1262.109375 842.578125 L 1250.390625 840.234375 C 1245.703125 860.15625 1239.84375 880.078125 1233.984375 897.65625 Z M 1233.984375 897.65625 " fill-opacity="1" fill-rule="nonzero"/><path fill="#ffffff" d="M 1270.3125 675 L 1258.59375 676.171875 C 1260.9375 694.921875 1262.109375 713.671875 1262.109375 732.421875 L 1262.109375 734.765625 L 1273.828125 734.765625 L 1273.828125 732.421875 C 1273.828125 713.671875 1272.65625 693.75 1270.3125 675 Z M 1270.3125 675 " fill-opacity="1" fill-rule="nonzero"/><path fill="#ffffff" d="M 1253.90625 817.96875 L 1265.625 820.3125 C 1269.140625 800.390625 1271.484375 780.46875 1272.65625 760.546875 L 1260.9375 759.375 C 1259.765625 778.125 1257.421875 798.046875 1253.90625 817.96875 Z M 1253.90625 817.96875 " fill-opacity="1" fill-rule="nonzero"/><path fill="#ffffff" d="M 635.15625 1243.359375 C 655.078125 1248.046875 675 1251.5625 694.921875 1252.734375 L 696.09375 1241.015625 C 676.171875 1238.671875 656.25 1236.328125 637.5 1231.640625 Z M 635.15625 1243.359375 " fill-opacity="1" fill-rule="nonzero"/><path fill="#ffffff" d="M 554.296875 1218.75 C 573.046875 1225.78125 591.796875 1232.8125 611.71875 1237.5 L 615.234375 1225.78125 C 596.484375 1221.09375 577.734375 1214.0625 558.984375 1207.03125 Z M 554.296875 1218.75 " fill-opacity="1" fill-rule="nonzero"/><path fill="#dad9d8" d="M 941.015625 1389.84375 L 1135.546875 1389.84375 L 1135.546875 1453.125 L 941.015625 1453.125 Z M 941.015625 1389.84375 " fill-opacity="1" fill-rule="nonzero"/><path fill="#474f59" d="M 1379.296875 1294.921875 L 1379.296875 891.796875 C 1379.296875 878.90625 1368.75 869.53125 1357.03125 869.53125 L 719.53125 869.53125 C 706.640625 869.53125 697.265625 880.078125 697.265625 891.796875 L 697.265625 1293.75 L 1379.296875 1293.75 Z M 1379.296875 1294.921875 " fill-opacity="1" fill-rule="nonzero"/><path fill="#f3f3f3" d="M 1379.296875 1294.921875 L 1379.296875 1376.953125 C 1379.296875 1389.84375 1368.75 1399.21875 1357.03125 1399.21875 L 719.53125 1399.21875 C 706.640625 1399.21875 697.265625 1388.671875 697.265625 1376.953125 L 697.265625 1294.921875 Z M 1379.296875 1294.921875 " fill-opacity="1" fill-rule="nonzero"/><path fill="#f37c5a" d="M 733.59375 907.03125 L 1342.96875 907.03125 L 1342.96875 1259.765625 L 733.59375 1259.765625 Z M 733.59375 907.03125 " fill-opacity="1" fill-rule="nonzero"/><path fill="#f3f3f3" d="M 1181.25 1473.046875 L 895.3125 1473.046875 C 895.3125 1456.640625 908.203125 1443.75 924.609375 1443.75 L 1151.953125 1443.75 C 1168.359375 1442.578125 1181.25 1456.640625 1181.25 1473.046875 Z M 1181.25 1473.046875 " fill-opacity="1" fill-rule="nonzero"/><path fill="#474f59" d="M 1057.03125 1346.484375 C 1057.03125 1357.03125 1048.828125 1365.234375 1038.28125 1365.234375 C 1027.734375 1365.234375 1019.53125 1357.03125 1019.53125 1346.484375 C 1019.53125 1335.9375 1027.734375 1327.734375 1038.28125 1327.734375 C 1048.828125 1328.90625 1057.03125 1337.109375 1057.03125 1346.484375 Z M 1057.03125 1346.484375 " fill-opacity="1" fill-rule="nonzero"/><path fill="#f3f3f3" d="M 162.890625 1367.578125 L 577.734375 1367.578125 L 577.734375 1393.359375 L 162.890625 1393.359375 Z M 162.890625 1367.578125 " fill-opacity="1" fill-rule="nonzero"/><path fill="#f3f3f3" d="M 357.421875 1280.859375 L 383.203125 1280.859375 L 383.203125 1371.09375 L 357.421875 1371.09375 Z M 357.421875 1280.859375 " fill-opacity="1" fill-rule="nonzero"/><path fill="#474f59" d="M 607.03125 1001.953125 L 607.03125 1119.140625 C 607.03125 1127.34375 600 1133.203125 592.96875 1133.203125 L 150 1133.203125 C 141.796875 1133.203125 134.765625 1126.171875 134.765625 1119.140625 L 134.765625 1001.953125 C 134.765625 993.75 141.796875 987.890625 150 987.890625 L 591.796875 987.890625 C 600 986.71875 607.03125 993.75 607.03125 1001.953125 Z M 607.03125 1001.953125 " fill-opacity="1" fill-rule="nonzero"/><path fill="#25313b" d="M 418.359375 1013.671875 L 442.96875 1013.671875 L 442.96875 1038.28125 L 418.359375 1038.28125 Z M 418.359375 1013.671875 " fill-opacity="1" fill-rule="nonzero"/><path fill="#25313b" d="M 452.34375 1013.671875 L 476.953125 1013.671875 L 476.953125 1038.28125 L 452.34375 1038.28125 Z M 452.34375 1013.671875 " fill-opacity="1" fill-rule="nonzero"/><path fill="#25313b" d="M 486.328125 1013.671875 L 510.9375 1013.671875 L 510.9375 1038.28125 L 486.328125 1038.28125 Z M 486.328125 1013.671875 " fill-opacity="1" fill-rule="nonzero"/><path fill="#25313b" d="M 520.3125 1013.671875 L 544.921875 1013.671875 L 544.921875 1038.28125 L 520.3125 1038.28125 Z M 520.3125 1013.671875 " fill-opacity="1" fill-rule="nonzero"/><path fill="#25313b" d="M 554.296875 1013.671875 L 578.90625 1013.671875 L 578.90625 1038.28125 L 554.296875 1038.28125 Z M 554.296875 1013.671875 " fill-opacity="1" fill-rule="nonzero"/><path fill="#25313b" d="M 418.359375 1047.65625 L 442.96875 1047.65625 L 442.96875 1072.265625 L 418.359375 1072.265625 Z M 418.359375 1047.65625 " fill-opacity="1" fill-rule="nonzero"/><path fill="#25313b" d="M 452.34375 1047.65625 L 476.953125 1047.65625 L 476.953125 1072.265625 L 452.34375 1072.265625 Z M 452.34375 1047.65625 " fill-opacity="1" fill-rule="nonzero"/><path fill="#25313b" d="M 486.328125 1047.65625 L 510.9375 1047.65625 L 510.9375 1072.265625 L 486.328125 1072.265625 Z M 486.328125 1047.65625 " fill-opacity="1" fill-rule="nonzero"/><path fill="#25313b" d="M 520.3125 1047.65625 L 544.921875 1047.65625 L 544.921875 1072.265625 L 520.3125 1072.265625 Z M 520.3125 1047.65625 " fill-opacity="1" fill-rule="nonzero"/><path fill="#25313b" d="M 554.296875 1047.65625 L 578.90625 1047.65625 L 578.90625 1072.265625 L 554.296875 1072.265625 Z M 554.296875 1047.65625 " fill-opacity="1" fill-rule="nonzero"/><path fill="#25313b" d="M 418.359375 1081.640625 L 442.96875 1081.640625 L 442.96875 1106.25 L 418.359375 1106.25 Z M 418.359375 1081.640625 " fill-opacity="1" fill-rule="nonzero"/><path fill="#25313b" d="M 452.34375 1081.640625 L 476.953125 1081.640625 L 476.953125 1106.25 L 452.34375 1106.25 Z M 452.34375 1081.640625 " fill-opacity="1" fill-rule="nonzero"/><path fill="#25313b" d="M 486.328125 1081.640625 L 510.9375 1081.640625 L 510.9375 1106.25 L 486.328125 1106.25 Z M 486.328125 1081.640625 " fill-opacity="1" fill-rule="nonzero"/><path fill="#25313b" d="M 520.3125 1081.640625 L 544.921875 1081.640625 L 544.921875 1106.25 L 520.3125 1106.25 Z M 520.3125 1081.640625 " fill-opacity="1" fill-rule="nonzero"/><path fill="#25313b" d="M 554.296875 1081.640625 L 578.90625 1081.640625 L 578.90625 1106.25 L 554.296875 1106.25 Z M 554.296875 1081.640625 " fill-opacity="1" fill-rule="nonzero"/><path fill="#f37c5a" d="M 212.109375 1060.546875 C 212.109375 1061.160156 212.078125 1061.773438 212.019531 1062.382812 C 211.957031 1062.996094 211.867188 1063.601562 211.75 1064.203125 C 211.628906 1064.808594 211.480469 1065.402344 211.300781 1065.988281 C 211.125 1066.578125 210.917969 1067.15625 210.683594 1067.722656 C 210.445312 1068.289062 210.183594 1068.84375 209.894531 1069.386719 C 209.605469 1069.925781 209.289062 1070.453125 208.949219 1070.964844 C 208.609375 1071.472656 208.242188 1071.96875 207.851562 1072.441406 C 207.464844 1072.917969 207.050781 1073.371094 206.617188 1073.804688 C 206.183594 1074.238281 205.730469 1074.652344 205.253906 1075.039062 C 204.78125 1075.429688 204.285156 1075.796875 203.777344 1076.136719 C 203.265625 1076.476562 202.738281 1076.792969 202.199219 1077.082031 C 201.65625 1077.371094 201.101562 1077.632812 200.535156 1077.871094 C 199.96875 1078.105469 199.390625 1078.3125 198.800781 1078.488281 C 198.214844 1078.667969 197.621094 1078.816406 197.015625 1078.9375 C 196.414062 1079.054688 195.808594 1079.144531 195.195312 1079.207031 C 194.585938 1079.265625 193.972656 1079.296875 193.359375 1079.296875 C 192.746094 1079.296875 192.132812 1079.265625 191.523438 1079.207031 C 190.910156 1079.144531 190.304688 1079.054688 189.703125 1078.9375 C 189.097656 1078.816406 188.503906 1078.667969 187.917969 1078.488281 C 187.328125 1078.3125 186.75 1078.105469 186.183594 1077.871094 C 185.617188 1077.632812 185.0625 1077.371094 184.519531 1077.082031 C 183.980469 1076.792969 183.453125 1076.476562 182.941406 1076.136719 C 182.433594 1075.796875 181.9375 1075.429688 181.464844 1075.039062 C 180.988281 1074.652344 180.535156 1074.238281 180.101562 1073.804688 C 179.667969 1073.371094 179.253906 1072.917969 178.867188 1072.441406 C 178.476562 1071.96875 178.109375 1071.472656 177.769531 1070.964844 C 177.429688 1070.453125 177.113281 1069.925781 176.824219 1069.386719 C 176.535156 1068.84375 176.273438 1068.289062 176.035156 1067.722656 C 175.800781 1067.15625 175.59375 1066.578125 175.417969 1065.988281 C 175.238281 1065.402344 175.089844 1064.808594 174.96875 1064.203125 C 174.851562 1063.601562 174.761719 1062.996094 174.699219 1062.382812 C 174.640625 1061.773438 174.609375 1061.160156 174.609375 1060.546875 C 174.609375 1059.933594 174.640625 1059.320312 174.699219 1058.707031 C 174.761719 1058.097656 174.851562 1057.492188 174.96875 1056.890625 C 175.089844 1056.285156 175.238281 1055.691406 175.417969 1055.105469 C 175.59375 1054.515625 175.800781 1053.9375 176.035156 1053.371094 C 176.273438 1052.804688 176.535156 1052.25 176.824219 1051.707031 C 177.113281 1051.167969 177.429688 1050.640625 177.769531 1050.128906 C 178.109375 1049.621094 178.476562 1049.125 178.867188 1048.652344 C 179.253906 1048.175781 179.667969 1047.722656 180.101562 1047.289062 C 180.535156 1046.855469 180.988281 1046.441406 181.464844 1046.054688 C 181.9375 1045.664062 182.433594 1045.296875 182.941406 1044.957031 C 183.453125 1044.617188 183.980469 1044.300781 184.519531 1044.011719 C 185.0625 1043.722656 185.617188 1043.460938 186.183594 1043.222656 C 186.75 1042.988281 187.328125 1042.78125 187.917969 1042.605469 C 188.503906 1042.425781 189.097656 1042.277344 189.703125 1042.15625 C 190.304688 1042.039062 190.910156 1041.949219 191.523438 1041.886719 C 192.132812 1041.828125 192.746094 1041.796875 193.359375 1041.796875 C 193.972656 1041.796875 194.585938 1041.828125 195.195312 1041.886719 C 195.808594 1041.949219 196.414062 1042.039062 197.015625 1042.15625 C 197.621094 1042.277344 198.214844 1042.425781 198.800781 1042.605469 C 199.390625 1042.78125 199.96875 1042.988281 200.535156 1043.222656 C 201.101562 1043.460938 201.65625 1043.722656 202.199219 1044.011719 C 202.738281 1044.300781 203.265625 1044.617188 203.777344 1044.957031 C 204.285156 1045.296875 204.78125 1045.664062 205.253906 1046.054688 C 205.730469 1046.441406 206.183594 1046.855469 206.617188 1047.289062 C 207.050781 1047.722656 207.464844 1048.175781 207.851562 1048.652344 C 208.242188 1049.125 208.609375 1049.621094 208.949219 1050.128906 C 209.289062 1050.640625 209.605469 1051.167969 209.894531 1051.707031 C 210.183594 1052.25 210.445312 1052.804688 210.683594 1053.371094 C 210.917969 1053.9375 211.125 1054.515625 211.300781 1055.105469 C 211.480469 1055.691406 211.628906 1056.285156 211.75 1056.890625 C 211.867188 1057.492188 211.957031 1058.097656 212.019531 1058.710938 C 212.078125 1059.320312 212.109375 1059.933594 212.109375 1060.546875 Z M 212.109375 1060.546875 " fill-opacity="1" fill-rule="nonzero"/><path fill="#7dcedc" d="M 264.84375 1060.546875 C 264.84375 1061.160156 264.8125 1061.773438 264.753906 1062.382812 C 264.691406 1062.996094 264.601562 1063.601562 264.484375 1064.203125 C 264.363281 1064.808594 264.214844 1065.402344 264.035156 1065.988281 C 263.859375 1066.578125 263.652344 1067.15625 263.417969 1067.722656 C 263.179688 1068.289062 262.917969 1068.84375 262.628906 1069.386719 C 262.339844 1069.925781 262.023438 1070.453125 261.683594 1070.964844 C 261.34375 1071.472656 260.976562 1071.96875 260.585938 1072.441406 C 260.199219 1072.917969 259.785156 1073.371094 259.351562 1073.804688 C 258.917969 1074.238281 258.464844 1074.652344 257.988281 1075.039062 C 257.515625 1075.429688 257.019531 1075.796875 256.511719 1076.136719 C 256 1076.476562 255.472656 1076.792969 254.933594 1077.082031 C 254.390625 1077.371094 253.835938 1077.632812 253.269531 1077.871094 C 252.703125 1078.105469 252.125 1078.3125 251.535156 1078.488281 C 250.949219 1078.667969 250.355469 1078.816406 249.75 1078.9375 C 249.148438 1079.054688 248.542969 1079.144531 247.929688 1079.207031 C 247.320312 1079.265625 246.707031 1079.296875 246.09375 1079.296875 C 245.480469 1079.296875 244.867188 1079.265625 244.257812 1079.207031 C 243.644531 1079.144531 243.039062 1079.054688 242.4375 1078.9375 C 241.832031 1078.816406 241.238281 1078.667969 240.652344 1078.488281 C 240.0625 1078.3125 239.484375 1078.105469 238.917969 1077.871094 C 238.351562 1077.632812 237.796875 1077.371094 237.253906 1077.082031 C 236.714844 1076.792969 236.1875 1076.476562 235.675781 1076.136719 C 235.167969 1075.796875 234.671875 1075.429688 234.199219 1075.039062 C 233.722656 1074.652344 233.269531 1074.238281 232.835938 1073.804688 C 232.402344 1073.371094 231.988281 1072.917969 231.601562 1072.441406 C 231.210938 1071.96875 230.84375 1071.472656 230.503906 1070.964844 C 230.164062 1070.453125 229.847656 1069.925781 229.558594 1069.386719 C 229.269531 1068.84375 229.007812 1068.289062 228.769531 1067.722656 C 228.535156 1067.15625 228.328125 1066.578125 228.152344 1065.988281 C 227.972656 1065.402344 227.824219 1064.808594 227.703125 1064.203125 C 227.585938 1063.601562 227.496094 1062.996094 227.433594 1062.382812 C 227.375 1061.773438 227.34375 1061.160156 227.34375 1060.546875 C 227.34375 1059.933594 227.375 1059.320312 227.433594 1058.707031 C 227.496094 1058.097656 227.585938 1057.492188 227.703125 1056.890625 C 227.824219 1056.285156 227.972656 1055.691406 228.152344 1055.105469 C 228.328125 1054.515625 228.535156 1053.9375 228.769531 1053.371094 C 229.007812 1052.804688 229.269531 1052.25 229.558594 1051.707031 C 229.847656 1051.167969 230.164062 1050.640625 230.503906 1050.128906 C 230.84375 1049.621094 231.210938 1049.125 231.601562 1048.652344 C 231.988281 1048.175781 232.402344 1047.722656 232.835938 1047.289062 C 233.269531 1046.855469 233.722656 1046.441406 234.199219 1046.054688 C 234.671875 1045.664062 235.167969 1045.296875 235.675781 1044.957031 C 236.1875 1044.617188 236.714844 1044.300781 237.253906 1044.011719 C 237.796875 1043.722656 238.351562 1043.460938 238.917969 1043.222656 C 239.484375 1042.988281 240.0625 1042.78125 240.652344 1042.605469 C 241.238281 1042.425781 241.832031 1042.277344 242.4375 1042.15625 C 243.039062 1042.039062 243.644531 1041.949219 244.257812 1041.886719 C 244.867188 1041.828125 245.480469 1041.796875 246.09375 1041.796875 C 246.707031 1041.796875 247.320312 1041.828125 247.929688 1041.886719 C 248.542969 1041.949219 249.148438 1042.039062 249.75 1042.15625 C 250.355469 1042.277344 250.949219 1042.425781 251.535156 1042.605469 C 252.125 1042.78125 252.703125 1042.988281 253.269531 1043.222656 C 253.835938 1043.460938 254.390625 1043.722656 254.933594 1044.011719 C 255.472656 1044.300781 256 1044.617188 256.511719 1044.957031 C 257.019531 1045.296875 257.515625 1045.664062 257.988281 1046.054688 C 258.464844 1046.441406 258.917969 1046.855469 259.351562 1047.289062 C 259.785156 1047.722656 260.199219 1048.175781 260.585938 1048.652344 C 260.976562 1049.125 261.34375 1049.621094 261.683594 1050.128906 C 262.023438 1050.640625 262.339844 1051.167969 262.628906 1051.707031 C 262.917969 1052.25 263.179688 1052.804688 263.417969 1053.371094 C 263.652344 1053.9375 263.859375 1054.515625 264.035156 1055.105469 C 264.214844 1055.691406 264.363281 1056.285156 264.484375 1056.890625 C 264.601562 1057.492188 264.691406 1058.097656 264.753906 1058.710938 C 264.8125 1059.320312 264.84375 1059.933594 264.84375 1060.546875 Z M 264.84375 1060.546875 " fill-opacity="1" fill-rule="nonzero"/><path fill="#fdda7f" d="M 318.75 1060.546875 C 318.75 1061.160156 318.71875 1061.773438 318.660156 1062.382812 C 318.597656 1062.996094 318.507812 1063.601562 318.390625 1064.203125 C 318.269531 1064.808594 318.121094 1065.402344 317.941406 1065.988281 C 317.765625 1066.578125 317.558594 1067.15625 317.324219 1067.722656 C 317.085938 1068.289062 316.824219 1068.84375 316.535156 1069.386719 C 316.246094 1069.925781 315.929688 1070.453125 315.589844 1070.964844 C 315.25 1071.472656 314.882812 1071.96875 314.492188 1072.441406 C 314.105469 1072.917969 313.691406 1073.371094 313.257812 1073.804688 C 312.824219 1074.238281 312.371094 1074.652344 311.894531 1075.039062 C 311.421875 1075.429688 310.925781 1075.796875 310.417969 1076.136719 C 309.90625 1076.476562 309.378906 1076.792969 308.839844 1077.082031 C 308.296875 1077.371094 307.742188 1077.632812 307.175781 1077.871094 C 306.609375 1078.105469 306.03125 1078.3125 305.441406 1078.488281 C 304.855469 1078.667969 304.261719 1078.816406 303.65625 1078.9375 C 303.054688 1079.054688 302.449219 1079.144531 301.835938 1079.207031 C 301.226562 1079.265625 300.613281 1079.296875 300 1079.296875 C 299.386719 1079.296875 298.773438 1079.265625 298.164062 1079.207031 C 297.550781 1079.144531 296.945312 1079.054688 296.34375 1078.9375 C 295.738281 1078.816406 295.144531 1078.667969 294.558594 1078.488281 C 293.96875 1078.3125 293.390625 1078.105469 292.824219 1077.871094 C 292.257812 1077.632812 291.703125 1077.371094 291.160156 1077.082031 C 290.621094 1076.792969 290.09375 1076.476562 289.582031 1076.136719 C 289.074219 1075.796875 288.578125 1075.429688 288.105469 1075.039062 C 287.628906 1074.652344 287.175781 1074.238281 286.742188 1073.804688 C 286.308594 1073.371094 285.894531 1072.917969 285.507812 1072.441406 C 285.117188 1071.96875 284.75 1071.472656 284.410156 1070.964844 C 284.070312 1070.453125 283.753906 1069.925781 283.464844 1069.386719 C 283.175781 1068.84375 282.914062 1068.289062 282.675781 1067.722656 C 282.441406 1067.15625 282.234375 1066.578125 282.058594 1065.988281 C 281.878906 1065.402344 281.730469 1064.808594 281.609375 1064.203125 C 281.492188 1063.601562 281.402344 1062.996094 281.339844 1062.382812 C 281.28125 1061.773438 281.25 1061.160156 281.25 1060.546875 C 281.25 1059.933594 281.28125 1059.320312 281.339844 1058.707031 C 281.402344 1058.097656 281.492188 1057.492188 281.609375 1056.890625 C 281.730469 1056.285156 281.878906 1055.691406 282.058594 1055.105469 C 282.234375 1054.515625 282.441406 1053.9375 282.675781 1053.371094 C 282.914062 1052.804688 283.175781 1052.25 283.464844 1051.707031 C 283.753906 1051.167969 284.070312 1050.640625 284.410156 1050.128906 C 284.75 1049.621094 285.117188 1049.125 285.507812 1048.652344 C 285.894531 1048.175781 286.308594 1047.722656 286.742188 1047.289062 C 287.175781 1046.855469 287.628906 1046.441406 288.105469 1046.054688 C 288.578125 1045.664062 289.074219 1045.296875 289.582031 1044.957031 C 290.09375 1044.617188 290.621094 1044.300781 291.160156 1044.011719 C 291.703125 1043.722656 292.257812 1043.460938 292.824219 1043.222656 C 293.390625 1042.988281 293.96875 1042.78125 294.558594 1042.605469 C 295.144531 1042.425781 295.738281 1042.277344 296.34375 1042.15625 C 296.945312 1042.039062 297.550781 1041.949219 298.164062 1041.886719 C 298.773438 1041.828125 299.386719 1041.796875 300 1041.796875 C 300.613281 1041.796875 301.226562 1041.828125 301.835938 1041.886719 C 302.449219 1041.949219 303.054688 1042.039062 303.65625 1042.15625 C 304.261719 1042.277344 304.855469 1042.425781 305.441406 1042.605469 C 306.03125 1042.78125 306.609375 1042.988281 307.175781 1043.222656 C 307.742188 1043.460938 308.296875 1043.722656 308.839844 1044.011719 C 309.378906 1044.300781 309.90625 1044.617188 310.417969 1044.957031 C 310.925781 1045.296875 311.421875 1045.664062 311.894531 1046.054688 C 312.371094 1046.441406 312.824219 1046.855469 313.257812 1047.289062 C 313.691406 1047.722656 314.105469 1048.175781 314.492188 1048.652344 C 314.882812 1049.125 315.25 1049.621094 315.589844 1050.128906 C 315.929688 1050.640625 316.246094 1051.167969 316.535156 1051.707031 C 316.824219 1052.25 317.085938 1052.804688 317.324219 1053.371094 C 317.558594 1053.9375 317.765625 1054.515625 317.941406 1055.105469 C 318.121094 1055.691406 318.269531 1056.285156 318.390625 1056.890625 C 318.507812 1057.492188 318.597656 1058.097656 318.660156 1058.710938 C 318.71875 1059.320312 318.75 1059.933594 318.75 1060.546875 Z M 318.75 1060.546875 " fill-opacity="1" fill-rule="nonzero"/><path fill="#474f59" d="M 607.03125 1177.734375 L 607.03125 1294.921875 C 607.03125 1303.125 600 1310.15625 592.96875 1310.15625 L 150 1310.15625 C 141.796875 1310.15625 134.765625 1303.125 134.765625 1294.921875 L 134.765625 1177.734375 C 134.765625 1169.53125 141.796875 1163.671875 150 1163.671875 L 591.796875 1163.671875 C 600 1162.5 607.03125 1169.53125 607.03125 1177.734375 Z M 607.03125 1177.734375 " fill-opacity="1" fill-rule="nonzero"/><path fill="#25313b" d="M 418.359375 1189.453125 L 442.96875 1189.453125 L 442.96875 1214.0625 L 418.359375 1214.0625 Z M 418.359375 1189.453125 " fill-opacity="1" fill-rule="nonzero"/><path fill="#25313b" d="M 452.34375 1189.453125 L 476.953125 1189.453125 L 476.953125 1214.0625 L 452.34375 1214.0625 Z M 452.34375 1189.453125 " fill-opacity="1" fill-rule="nonzero"/><path fill="#25313b" d="M 486.328125 1189.453125 L 510.9375 1189.453125 L 510.9375 1214.0625 L 486.328125 1214.0625 Z M 486.328125 1189.453125 " fill-opacity="1" fill-rule="nonzero"/><path fill="#25313b" d="M 520.3125 1189.453125 L 544.921875 1189.453125 L 544.921875 1214.0625 L 520.3125 1214.0625 Z M 520.3125 1189.453125 " fill-opacity="1" fill-rule="nonzero"/><path fill="#25313b" d="M 554.296875 1189.453125 L 578.90625 1189.453125 L 578.90625 1214.0625 L 554.296875 1214.0625 Z M 554.296875 1189.453125 " fill-opacity="1" fill-rule="nonzero"/><path fill="#25313b" d="M 418.359375 1223.4375 L 442.96875 1223.4375 L 442.96875 1248.046875 L 418.359375 1248.046875 Z M 418.359375 1223.4375 " fill-opacity="1" fill-rule="nonzero"/><path fill="#25313b" d="M 452.34375 1223.4375 L 476.953125 1223.4375 L 476.953125 1248.046875 L 452.34375 1248.046875 Z M 452.34375 1223.4375 " fill-opacity="1" fill-rule="nonzero"/><path fill="#25313b" d="M 486.328125 1223.4375 L 510.9375 1223.4375 L 510.9375 1248.046875 L 486.328125 1248.046875 Z M 486.328125 1223.4375 " fill-opacity="1" fill-rule="nonzero"/><path fill="#25313b" d="M 520.3125 1223.4375 L 544.921875 1223.4375 L 544.921875 1248.046875 L 520.3125 1248.046875 Z M 520.3125 1223.4375 " fill-opacity="1" fill-rule="nonzero"/><path fill="#25313b" d="M 554.296875 1223.4375 L 578.90625 1223.4375 L 578.90625 1248.046875 L 554.296875 1248.046875 Z M 554.296875 1223.4375 " fill-opacity="1" fill-rule="nonzero"/><path fill="#25313b" d="M 418.359375 1258.59375 L 442.96875 1258.59375 L 442.96875 1283.203125 L 418.359375 1283.203125 Z M 418.359375 1258.59375 " fill-opacity="1" fill-rule="nonzero"/><path fill="#25313b" d="M 452.34375 1258.59375 L 476.953125 1258.59375 L 476.953125 1283.203125 L 452.34375 1283.203125 Z M 452.34375 1258.59375 " fill-opacity="1" fill-rule="nonzero"/><path fill="#25313b" d="M 486.328125 1258.59375 L 510.9375 1258.59375 L 510.9375 1283.203125 L 486.328125 1283.203125 Z M 486.328125 1258.59375 " fill-opacity="1" fill-rule="nonzero"/><path fill="#25313b" d="M 520.3125 1258.59375 L 544.921875 1258.59375 L 544.921875 1283.203125 L 520.3125 1283.203125 Z M 520.3125 1258.59375 " fill-opacity="1" fill-rule="nonzero"/><path fill="#25313b" d="M 554.296875 1258.59375 L 578.90625 1258.59375 L 578.90625 1283.203125 L 554.296875 1283.203125 Z M 554.296875 1258.59375 " fill-opacity="1" fill-rule="nonzero"/><path fill="#f37c5a" d="M 212.109375 1236.328125 C 212.109375 1236.941406 212.078125 1237.554688 212.019531 1238.164062 C 211.957031 1238.777344 211.867188 1239.382812 211.75 1239.984375 C 211.628906 1240.589844 211.480469 1241.183594 211.300781 1241.769531 C 211.125 1242.359375 210.917969 1242.9375 210.683594 1243.503906 C 210.445312 1244.070312 210.183594 1244.625 209.894531 1245.167969 C 209.605469 1245.707031 209.289062 1246.234375 208.949219 1246.746094 C 208.609375 1247.253906 208.242188 1247.75 207.851562 1248.222656 C 207.464844 1248.699219 207.050781 1249.152344 206.617188 1249.585938 C 206.183594 1250.019531 205.730469 1250.433594 205.253906 1250.820312 C 204.78125 1251.210938 204.285156 1251.578125 203.777344 1251.917969 C 203.265625 1252.257812 202.738281 1252.574219 202.199219 1252.863281 C 201.65625 1253.152344 201.101562 1253.414062 200.535156 1253.652344 C 199.96875 1253.886719 199.390625 1254.09375 198.800781 1254.269531 C 198.214844 1254.449219 197.621094 1254.597656 197.015625 1254.71875 C 196.414062 1254.835938 195.808594 1254.925781 195.195312 1254.988281 C 194.585938 1255.046875 193.972656 1255.078125 193.359375 1255.078125 C 192.746094 1255.078125 192.132812 1255.046875 191.523438 1254.988281 C 190.910156 1254.925781 190.304688 1254.835938 189.703125 1254.71875 C 189.097656 1254.597656 188.503906 1254.449219 187.917969 1254.269531 C 187.328125 1254.09375 186.75 1253.886719 186.183594 1253.652344 C 185.617188 1253.414062 185.0625 1253.152344 184.519531 1252.863281 C 183.980469 1252.574219 183.453125 1252.257812 182.941406 1251.917969 C 182.433594 1251.578125 181.9375 1251.210938 181.464844 1250.820312 C 180.988281 1250.433594 180.535156 1250.019531 180.101562 1249.585938 C 179.667969 1249.152344 179.253906 1248.699219 178.867188 1248.222656 C 178.476562 1247.75 178.109375 1247.253906 177.769531 1246.746094 C 177.429688 1246.234375 177.113281 1245.707031 176.824219 1245.167969 C 176.535156 1244.625 176.273438 1244.070312 176.035156 1243.503906 C 175.800781 1242.9375 175.59375 1242.359375 175.417969 1241.769531 C 175.238281 1241.183594 175.089844 1240.589844 174.96875 1239.984375 C 174.851562 1239.382812 174.761719 1238.777344 174.699219 1238.164062 C 174.640625 1237.554688 174.609375 1236.941406 174.609375 1236.328125 C 174.609375 1235.714844 174.640625 1235.101562 174.699219 1234.488281 C 174.761719 1233.878906 174.851562 1233.273438 174.96875 1232.671875 C 175.089844 1232.066406 175.238281 1231.472656 175.417969 1230.886719 C 175.59375 1230.296875 175.800781 1229.71875 176.035156 1229.152344 C 176.273438 1228.585938 176.535156 1228.03125 176.824219 1227.488281 C 177.113281 1226.949219 177.429688 1226.421875 177.769531 1225.910156 C 178.109375 1225.402344 178.476562 1224.90625 178.867188 1224.433594 C 179.253906 1223.957031 179.667969 1223.503906 180.101562 1223.070312 C 180.535156 1222.636719 180.988281 1222.222656 181.464844 1221.835938 C 181.9375 1221.445312 182.433594 1221.078125 182.941406 1220.738281 C 183.453125 1220.398438 183.980469 1220.082031 184.519531 1219.792969 C 185.0625 1219.503906 185.617188 1219.238281 186.183594 1219.003906 C 186.75 1218.769531 187.328125 1218.5625 187.917969 1218.386719 C 188.503906 1218.207031 189.097656 1218.058594 189.703125 1217.9375 C 190.304688 1217.820312 190.910156 1217.730469 191.523438 1217.667969 C 192.132812 1217.609375 192.746094 1217.578125 193.359375 1217.578125 C 193.972656 1217.578125 194.585938 1217.609375 195.195312 1217.667969 C 195.808594 1217.730469 196.414062 1217.820312 197.015625 1217.9375 C 197.621094 1218.058594 198.214844 1218.207031 198.800781 1218.386719 C 199.390625 1218.5625 199.96875 1218.769531 200.535156 1219.003906 C 201.101562 1219.238281 201.65625 1219.503906 202.199219 1219.792969 C 202.738281 1220.082031 203.265625 1220.398438 203.777344 1220.738281 C 204.285156 1221.078125 204.78125 1221.445312 205.253906 1221.835938 C 205.730469 1222.222656 206.183594 1222.636719 206.617188 1223.070312 C 207.050781 1223.503906 207.464844 1223.957031 207.851562 1224.433594 C 208.242188 1224.90625 208.609375 1225.402344 208.949219 1225.910156 C 209.289062 1226.421875 209.605469 1226.949219 209.894531 1227.488281 C 210.183594 1228.03125 210.445312 1228.585938 210.683594 1229.152344 C 210.917969 1229.71875 211.125 1230.296875 211.300781 1230.886719 C 211.480469 1231.472656 211.628906 1232.066406 211.75 1232.667969 C 211.867188 1233.273438 211.957031 1233.878906 212.019531 1234.488281 C 212.078125 1235.101562 212.109375 1235.714844 212.109375 1236.328125 Z M 212.109375 1236.328125 " fill-opacity="1" fill-rule="nonzero"/><path fill="#7dcedc" d="M 264.84375 1236.328125 C 264.84375 1236.941406 264.8125 1237.554688 264.753906 1238.164062 C 264.691406 1238.777344 264.601562 1239.382812 264.484375 1239.984375 C 264.363281 1240.589844 264.214844 1241.183594 264.035156 1241.769531 C 263.859375 1242.359375 263.652344 1242.9375 263.417969 1243.503906 C 263.179688 1244.070312 262.917969 1244.625 262.628906 1245.167969 C 262.339844 1245.707031 262.023438 1246.234375 261.683594 1246.746094 C 261.34375 1247.253906 260.976562 1247.75 260.585938 1248.222656 C 260.199219 1248.699219 259.785156 1249.152344 259.351562 1249.585938 C 258.917969 1250.019531 258.464844 1250.433594 257.988281 1250.820312 C 257.515625 1251.210938 257.019531 1251.578125 256.511719 1251.917969 C 256 1252.257812 255.472656 1252.574219 254.933594 1252.863281 C 254.390625 1253.152344 253.835938 1253.414062 253.269531 1253.652344 C 252.703125 1253.886719 252.125 1254.09375 251.535156 1254.269531 C 250.949219 1254.449219 250.355469 1254.597656 249.75 1254.71875 C 249.148438 1254.835938 248.542969 1254.925781 247.929688 1254.988281 C 247.320312 1255.046875 246.707031 1255.078125 246.09375 1255.078125 C 245.480469 1255.078125 244.867188 1255.046875 244.257812 1254.988281 C 243.644531 1254.925781 243.039062 1254.835938 242.4375 1254.71875 C 241.832031 1254.597656 241.238281 1254.449219 240.652344 1254.269531 C 240.0625 1254.09375 239.484375 1253.886719 238.917969 1253.652344 C 238.351562 1253.414062 237.796875 1253.152344 237.253906 1252.863281 C 236.714844 1252.574219 236.1875 1252.257812 235.675781 1251.917969 C 235.167969 1251.578125 234.671875 1251.210938 234.199219 1250.820312 C 233.722656 1250.433594 233.269531 1250.019531 232.835938 1249.585938 C 232.402344 1249.152344 231.988281 1248.699219 231.601562 1248.222656 C 231.210938 1247.75 230.84375 1247.253906 230.503906 1246.746094 C 230.164062 1246.234375 229.847656 1245.707031 229.558594 1245.167969 C 229.269531 1244.625 229.007812 1244.070312 228.769531 1243.503906 C 228.535156 1242.9375 228.328125 1242.359375 228.152344 1241.769531 C 227.972656 1241.183594 227.824219 1240.589844 227.703125 1239.984375 C 227.585938 1239.382812 227.496094 1238.777344 227.433594 1238.164062 C 227.375 1237.554688 227.34375 1236.941406 227.34375 1236.328125 C 227.34375 1235.714844 227.375 1235.101562 227.433594 1234.488281 C 227.496094 1233.878906 227.585938 1233.273438 227.703125 1232.671875 C 227.824219 1232.066406 227.972656 1231.472656 228.152344 1230.886719 C 228.328125 1230.296875 228.535156 1229.71875 228.769531 1229.152344 C 229.007812 1228.585938 229.269531 1228.03125 229.558594 1227.488281 C 229.847656 1226.949219 230.164062 1226.421875 230.503906 1225.910156 C 230.84375 1225.402344 231.210938 1224.90625 231.601562 1224.433594 C 231.988281 1223.957031 232.402344 1223.503906 232.835938 1223.070312 C 233.269531 1222.636719 233.722656 1222.222656 234.199219 1221.835938 C 234.671875 1221.445312 235.167969 1221.078125 235.675781 1220.738281 C 236.1875 1220.398438 236.714844 1220.082031 237.253906 1219.792969 C 237.796875 1219.503906 238.351562 1219.238281 238.917969 1219.003906 C 239.484375 1218.769531 240.0625 1218.5625 240.652344 1218.386719 C 241.238281 1218.207031 241.832031 1218.058594 242.4375 1217.9375 C 243.039062 1217.820312 243.644531 1217.730469 244.257812 1217.667969 C 244.867188 1217.609375 245.480469 1217.578125 246.09375 1217.578125 C 246.707031 1217.578125 247.320312 1217.609375 247.929688 1217.667969 C 248.542969 1217.730469 249.148438 1217.820312 249.75 1217.9375 C 250.355469 1218.058594 250.949219 1218.207031 251.535156 1218.386719 C 252.125 1218.5625 252.703125 1218.769531 253.269531 1219.003906 C 253.835938 1219.238281 254.390625 1219.503906 254.933594 1219.792969 C 255.472656 1220.082031 256 1220.398438 256.511719 1220.738281 C 257.019531 1221.078125 257.515625 1221.445312 257.988281 1221.835938 C 258.464844 1222.222656 258.917969 1222.636719 259.351562 1223.070312 C 259.785156 1223.503906 260.199219 1223.957031 260.585938 1224.433594 C 260.976562 1224.90625 261.34375 1225.402344 261.683594 1225.910156 C 262.023438 1226.421875 262.339844 1226.949219 262.628906 1227.488281 C 262.917969 1228.03125 263.179688 1228.585938 263.417969 1229.152344 C 263.652344 1229.71875 263.859375 1230.296875 264.035156 1230.886719 C 264.214844 1231.472656 264.363281 1232.066406 264.484375 1232.667969 C 264.601562 1233.273438 264.691406 1233.878906 264.753906 1234.488281 C 264.8125 1235.101562 264.84375 1235.714844 264.84375 1236.328125 Z M 264.84375 1236.328125 " fill-opacity="1" fill-rule="nonzero"/><path fill="#fdda7f" d="M 318.75 1236.328125 C 318.75 1236.941406 318.71875 1237.554688 318.660156 1238.164062 C 318.597656 1238.777344 318.507812 1239.382812 318.390625 1239.984375 C 318.269531 1240.589844 318.121094 1241.183594 317.941406 1241.769531 C 317.765625 1242.359375 317.558594 1242.9375 317.324219 1243.503906 C 317.085938 1244.070312 316.824219 1244.625 316.535156 1245.167969 C 316.246094 1245.707031 315.929688 1246.234375 315.589844 1246.746094 C 315.25 1247.253906 314.882812 1247.75 314.492188 1248.222656 C 314.105469 1248.699219 313.691406 1249.152344 313.257812 1249.585938 C 312.824219 1250.019531 312.371094 1250.433594 311.894531 1250.820312 C 311.421875 1251.210938 310.925781 1251.578125 310.417969 1251.917969 C 309.90625 1252.257812 309.378906 1252.574219 308.839844 1252.863281 C 308.296875 1253.152344 307.742188 1253.414062 307.175781 1253.652344 C 306.609375 1253.886719 306.03125 1254.09375 305.441406 1254.269531 C 304.855469 1254.449219 304.261719 1254.597656 303.65625 1254.71875 C 303.054688 1254.835938 302.449219 1254.925781 301.835938 1254.988281 C 301.226562 1255.046875 300.613281 1255.078125 300 1255.078125 C 299.386719 1255.078125 298.773438 1255.046875 298.164062 1254.988281 C 297.550781 1254.925781 296.945312 1254.835938 296.34375 1254.71875 C 295.738281 1254.597656 295.144531 1254.449219 294.558594 1254.269531 C 293.96875 1254.09375 293.390625 1253.886719 292.824219 1253.652344 C 292.257812 1253.414062 291.703125 1253.152344 291.160156 1252.863281 C 290.621094 1252.574219 290.09375 1252.257812 289.582031 1251.917969 C 289.074219 1251.578125 288.578125 1251.210938 288.105469 1250.820312 C 287.628906 1250.433594 287.175781 1250.019531 286.742188 1249.585938 C 286.308594 1249.152344 285.894531 1248.699219 285.507812 1248.222656 C 285.117188 1247.75 284.75 1247.253906 284.410156 1246.746094 C 284.070312 1246.234375 283.753906 1245.707031 283.464844 1245.167969 C 283.175781 1244.625 282.914062 1244.070312 282.675781 1243.503906 C 282.441406 1242.9375 282.234375 1242.359375 282.058594 1241.769531 C 281.878906 1241.183594 281.730469 1240.589844 281.609375 1239.984375 C 281.492188 1239.382812 281.402344 1238.777344 281.339844 1238.164062 C 281.28125 1237.554688 281.25 1236.941406 281.25 1236.328125 C 281.25 1235.714844 281.28125 1235.101562 281.339844 1234.488281 C 281.402344 1233.878906 281.492188 1233.273438 281.609375 1232.671875 C 281.730469 1232.066406 281.878906 1231.472656 282.058594 1230.886719 C 282.234375 1230.296875 282.441406 1229.71875 282.675781 1229.152344 C 282.914062 1228.585938 283.175781 1228.03125 283.464844 1227.488281 C 283.753906 1226.949219 284.070312 1226.421875 284.410156 1225.910156 C 284.75 1225.402344 285.117188 1224.90625 285.507812 1224.433594 C 285.894531 1223.957031 286.308594 1223.503906 286.742188 1223.070312 C 287.175781 1222.636719 287.628906 1222.222656 288.105469 1221.835938 C 288.578125 1221.445312 289.074219 1221.078125 289.582031 1220.738281 C 290.09375 1220.398438 290.621094 1220.082031 291.160156 1219.792969 C 291.703125 1219.503906 292.257812 1219.238281 292.824219 1219.003906 C 293.390625 1218.769531 293.96875 1218.5625 294.558594 1218.386719 C 295.144531 1218.207031 295.738281 1218.058594 296.34375 1217.9375 C 296.945312 1217.820312 297.550781 1217.730469 298.164062 1217.667969 C 298.773438 1217.609375 299.386719 1217.578125 300 1217.578125 C 300.613281 1217.578125 301.226562 1217.609375 301.835938 1217.667969 C 302.449219 1217.730469 303.054688 1217.820312 303.65625 1217.9375 C 304.261719 1218.058594 304.855469 1218.207031 305.441406 1218.386719 C 306.03125 1218.5625 306.609375 1218.769531 307.175781 1219.003906 C 307.742188 1219.238281 308.296875 1219.503906 308.839844 1219.792969 C 309.378906 1220.082031 309.90625 1220.398438 310.417969 1220.738281 C 310.925781 1221.078125 311.421875 1221.445312 311.894531 1221.835938 C 312.371094 1222.222656 312.824219 1222.636719 313.257812 1223.070312 C 313.691406 1223.503906 314.105469 1223.957031 314.492188 1224.433594 C 314.882812 1224.90625 315.25 1225.402344 315.589844 1225.910156 C 315.929688 1226.421875 316.246094 1226.949219 316.535156 1227.488281 C 316.824219 1228.03125 317.085938 1228.585938 317.324219 1229.152344 C 317.558594 1229.71875 317.765625 1230.296875 317.941406 1230.886719 C 318.121094 1231.472656 318.269531 1232.066406 318.390625 1232.667969 C 318.507812 1233.273438 318.597656 1233.878906 318.660156 1234.488281 C 318.71875 1235.101562 318.75 1235.714844 318.75 1236.328125 Z M 318.75 1236.328125 " fill-opacity="1" fill-rule="nonzero"/><path fill="#25313b" d="M 151.171875 1133.203125 L 589.453125 1133.203125 L 589.453125 1162.5 L 151.171875 1162.5 Z M 151.171875 1133.203125 " fill-opacity="1" fill-rule="nonzero"/><path fill="#f37c5a" d="M 399.609375 1380.46875 C 399.609375 1381.429688 399.5625 1382.386719 399.46875 1383.339844 C 399.375 1384.296875 399.234375 1385.242188 399.046875 1386.183594 C 398.859375 1387.125 398.625 1388.054688 398.347656 1388.972656 C 398.070312 1389.890625 397.746094 1390.792969 397.378906 1391.679688 C 397.011719 1392.566406 396.601562 1393.433594 396.148438 1394.277344 C 395.699219 1395.125 395.203125 1395.945312 394.671875 1396.746094 C 394.140625 1397.542969 393.566406 1398.3125 392.960938 1399.054688 C 392.351562 1399.796875 391.707031 1400.507812 391.027344 1401.183594 C 390.351562 1401.863281 389.640625 1402.507812 388.898438 1403.117188 C 388.15625 1403.722656 387.386719 1404.296875 386.589844 1404.828125 C 385.792969 1405.359375 384.96875 1405.855469 384.121094 1406.304688 C 383.277344 1406.757812 382.410156 1407.167969 381.523438 1407.535156 C 380.636719 1407.902344 379.734375 1408.226562 378.816406 1408.503906 C 377.898438 1408.78125 376.96875 1409.015625 376.027344 1409.203125 C 375.085938 1409.390625 374.140625 1409.53125 373.183594 1409.625 C 372.230469 1409.71875 371.273438 1409.765625 370.3125 1409.765625 C 369.351562 1409.765625 368.394531 1409.71875 367.441406 1409.625 C 366.484375 1409.53125 365.539062 1409.390625 364.597656 1409.203125 C 363.65625 1409.015625 362.726562 1408.78125 361.808594 1408.503906 C 360.890625 1408.226562 359.988281 1407.902344 359.101562 1407.535156 C 358.214844 1407.167969 357.347656 1406.757812 356.503906 1406.304688 C 355.65625 1405.855469 354.832031 1405.359375 354.035156 1404.828125 C 353.238281 1404.296875 352.46875 1403.722656 351.726562 1403.117188 C 350.984375 1402.507812 350.273438 1401.863281 349.597656 1401.183594 C 348.917969 1400.507812 348.273438 1399.796875 347.664062 1399.054688 C 347.058594 1398.3125 346.484375 1397.542969 345.953125 1396.746094 C 345.421875 1395.945312 344.925781 1395.125 344.476562 1394.277344 C 344.023438 1393.433594 343.613281 1392.566406 343.246094 1391.679688 C 342.878906 1390.792969 342.554688 1389.890625 342.277344 1388.972656 C 342 1388.054688 341.765625 1387.125 341.578125 1386.183594 C 341.390625 1385.242188 341.25 1384.296875 341.15625 1383.339844 C 341.0625 1382.386719 341.015625 1381.429688 341.015625 1380.46875 C 341.015625 1379.507812 341.0625 1378.550781 341.15625 1377.597656 C 341.25 1376.640625 341.390625 1375.695312 341.578125 1374.753906 C 341.765625 1373.8125 342 1372.882812 342.277344 1371.964844 C 342.554688 1371.046875 342.878906 1370.144531 343.246094 1369.257812 C 343.613281 1368.371094 344.023438 1367.503906 344.476562 1366.65625 C 344.925781 1365.8125 345.421875 1364.988281 345.953125 1364.191406 C 346.484375 1363.394531 347.058594 1362.625 347.664062 1361.882812 C 348.273438 1361.140625 348.917969 1360.429688 349.597656 1359.753906 C 350.273438 1359.074219 350.984375 1358.429688 351.726562 1357.820312 C 352.46875 1357.214844 353.238281 1356.640625 354.035156 1356.109375 C 354.832031 1355.574219 355.65625 1355.082031 356.503906 1354.632812 C 357.347656 1354.179688 358.214844 1353.769531 359.101562 1353.402344 C 359.988281 1353.035156 360.890625 1352.710938 361.808594 1352.433594 C 362.726562 1352.15625 363.65625 1351.921875 364.597656 1351.734375 C 365.539062 1351.546875 366.484375 1351.40625 367.441406 1351.3125 C 368.394531 1351.21875 369.351562 1351.171875 370.3125 1351.171875 C 371.273438 1351.171875 372.230469 1351.21875 373.183594 1351.3125 C 374.140625 1351.40625 375.085938 1351.546875 376.027344 1351.734375 C 376.96875 1351.921875 377.898438 1352.15625 378.816406 1352.433594 C 379.734375 1352.710938 380.636719 1353.035156 381.523438 1353.402344 C 382.410156 1353.769531 383.277344 1354.179688 384.121094 1354.632812 C 384.96875 1355.082031 385.792969 1355.574219 386.589844 1356.109375 C 387.386719 1356.640625 388.15625 1357.214844 388.898438 1357.820312 C 389.640625 1358.429688 390.351562 1359.074219 391.027344 1359.753906 C 391.707031 1360.429688 392.351562 1361.140625 392.960938 1361.882812 C 393.566406 1362.625 394.140625 1363.394531 394.671875 1364.191406 C 395.203125 1364.988281 395.699219 1365.8125 396.148438 1366.65625 C 396.601562 1367.503906 397.011719 1368.371094 397.378906 1369.257812 C 397.746094 1370.144531 398.070312 1371.046875 398.347656 1371.964844 C 398.625 1372.882812 398.859375 1373.8125 399.046875 1374.753906 C 399.234375 1375.695312 399.375 1376.640625 399.46875 1377.597656 C 399.5625 1378.550781 399.609375 1379.507812 399.609375 1380.46875 Z M 399.609375 1380.46875 " fill-opacity="1" fill-rule="nonzero"/><path fill="#ffffff" d="M 1266.796875 464.0625 C 1266.796875 537.890625 1207.03125 597.65625 1133.203125 597.65625 L 389.0625 597.65625 C 302.34375 597.65625 232.03125 527.34375 232.03125 440.625 C 232.03125 370.3125 277.734375 311.71875 341.015625 291.796875 C 341.015625 285.9375 339.84375 280.078125 339.84375 274.21875 C 339.84375 127.734375 459.375 8.203125 607.03125 8.203125 C 673.828125 8.203125 734.765625 32.8125 781.640625 73.828125 C 817.96875 55.078125 861.328125 46.875 905.859375 53.90625 C 1001.953125 69.140625 1072.265625 151.171875 1075.78125 244.921875 C 1082.8125 247.265625 1089.84375 249.609375 1095.703125 253.125 C 1126.171875 269.53125 1146.09375 298.828125 1151.953125 331.640625 C 1216.40625 339.84375 1266.796875 396.09375 1266.796875 464.0625 Z M 1266.796875 464.0625 " fill-opacity="1" fill-rule="nonzero"/><g mask="url(#de9582d362)"><g transform="matrix(1, 0, 0, 1, 222, 0.000000000000112861)"><g clip-path="url(#a8e6fa3ecf)"><path fill="#f3f3f3" d="M 270.1875 560.15625 C 219.796875 604.6875 143.625 611.71875 83.859375 574.21875 C 10.03125 528.515625 -12.234375 431.25 34.640625 357.421875 C 78 288.28125 165.890625 264.84375 237.375 300 C 188.15625 295.3125 138.9375 317.578125 110.8125 362.109375 C 70.96875 425.390625 89.71875 508.59375 153 547.265625 C 189.328125 570.703125 232.6875 574.21875 270.1875 560.15625 Z M 270.1875 560.15625 " fill-opacity="1" fill-rule="nonzero"/><path fill="#f3f3f3" d="M 1044.796875 464.0625 C 1044.796875 537.890625 985.03125 597.65625 911.203125 597.65625 C 880.734375 597.65625 852.609375 587.109375 829.171875 570.703125 C 839.71875 574.21875 849.09375 575.390625 860.8125 575.390625 C 921.75 575.390625 972.140625 526.171875 972.140625 464.0625 C 972.140625 401.953125 922.921875 352.734375 860.8125 352.734375 C 850.265625 352.734375 839.71875 353.90625 829.171875 357.421875 C 851.4375 339.84375 879.5625 329.296875 911.203125 329.296875 C 985.03125 330.46875 1044.796875 390.234375 1044.796875 464.0625 Z M 1044.796875 464.0625 " fill-opacity="1" fill-rule="nonzero"/><path fill="#f3f3f3" d="M 572.53125 85.546875 C 524.484375 37.5 457.6875 8.203125 385.03125 8.203125 C 237.375 8.203125 117.84375 127.734375 117.84375 274.21875 C 117.84375 287.109375 119.015625 300 121.359375 312.890625 C 130.734375 308.203125 141.28125 303.515625 151.828125 300 C 165.890625 295.3125 182.296875 294.140625 198.703125 294.140625 C 212.765625 176.953125 312.375 86.71875 433.078125 86.71875 C 468.234375 86.71875 502.21875 94.921875 532.6875 108.984375 C 544.40625 98.4375 557.296875 91.40625 572.53125 85.546875 Z M 572.53125 85.546875 " fill-opacity="1" fill-rule="nonzero"/><path fill="#f3f3f3" d="M 842.0625 287.109375 C 865.5 300 881.90625 322.265625 887.765625 346.875 C 901.828125 349.21875 917.0625 350.390625 931.125 352.734375 C 931.125 312.890625 910.03125 274.21875 872.53125 254.296875 C 818.625 223.828125 749.484375 243.75 720.1875 298.828125 C 714.328125 310.546875 709.640625 322.265625 707.296875 335.15625 C 708.46875 331.640625 709.640625 329.296875 711.984375 325.78125 C 737.765625 277.734375 796.359375 261.328125 842.0625 287.109375 Z M 842.0625 287.109375 " fill-opacity="1" fill-rule="nonzero"/><path fill="#f3f3f3" d="M 674.484375 119.53125 C 747.140625 131.25 802.21875 182.8125 823.3125 248.4375 C 833.859375 249.609375 843.234375 251.953125 852.609375 254.296875 C 853.78125 155.859375 782.296875 69.140625 682.6875 52.734375 C 572.53125 36.328125 469.40625 111.328125 451.828125 221.484375 C 445.96875 255.46875 449.484375 289.453125 461.203125 319.921875 C 460.03125 304.6875 460.03125 289.453125 462.375 274.21875 C 478.78125 173.4375 573.703125 104.296875 674.484375 119.53125 Z M 674.484375 119.53125 " fill-opacity="1" fill-rule="nonzero"/></g></g></g><path fill="#474f59" d="M 665.625 547.265625 L 665.625 460.546875 C 665.625 413.671875 703.125 376.171875 750 376.171875 C 796.875 376.171875 834.375 413.671875 834.375 460.546875 L 834.375 547.265625 L 882.421875 547.265625 L 882.421875 460.546875 C 882.421875 386.71875 822.65625 328.125 750 328.125 C 677.34375 328.125 617.578125 387.890625 617.578125 460.546875 L 617.578125 547.265625 Z M 665.625 547.265625 " fill-opacity="1" fill-rule="nonzero"/><path fill="#fdda7f" d="M 939.84375 561.328125 L 939.84375 793.359375 C 939.84375 808.59375 926.953125 821.484375 911.71875 821.484375 L 588.28125 821.484375 C 573.046875 821.484375 560.15625 808.59375 560.15625 793.359375 L 560.15625 561.328125 C 560.15625 546.09375 573.046875 533.203125 588.28125 533.203125 L 911.71875 533.203125 C 926.953125 533.203125 939.84375 544.921875 939.84375 561.328125 Z M 939.84375 561.328125 " fill-opacity="1" fill-rule="nonzero"/><path fill="#474f59" d="M 761.71875 684.375 L 773.4375 733.59375 L 725.390625 733.59375 L 737.109375 684.375 C 724.21875 679.6875 716.015625 666.796875 716.015625 652.734375 C 716.015625 633.984375 731.25 618.75 750 618.75 C 768.75 618.75 783.984375 633.984375 783.984375 652.734375 C 783.984375 667.96875 774.609375 679.6875 761.71875 684.375 Z M 761.71875 684.375 " fill-opacity="1" fill-rule="nonzero"/></svg>