<svg xmlns="http://www.w3.org/2000/svg" xmlns:xlink="http://www.w3.org/1999/xlink" width="2000" zoomAndPan="magnify" viewBox="0 0 1500 1499.999933" height="2000" preserveAspectRatio="xMidYMid meet" version="1.0"><defs><clipPath id="688f6058dc"><path d="M 1474 86 L 1498.5 86 L 1498.5 151 L 1474 151 Z M 1474 86 " clip-rule="nonzero"/></clipPath></defs><path fill="#8c7bff" d="M 649.488281 1336.210938 C 623.914062 1336.328125 603.117188 1315.972656 603.042969 1290.753906 C 602.960938 1265.542969 623.628906 1245 649.207031 1244.886719 C 674.78125 1244.777344 695.574219 1265.132812 695.652344 1290.34375 C 695.726562 1315.5625 675.0625 1336.097656 649.488281 1336.210938 Z M 749.75 1308.210938 L 749.644531 1272 L 726.75 1272.105469 C 724.742188 1263.828125 721.398438 1256.0625 716.96875 1249.050781 L 733.113281 1233.007812 L 707.066406 1207.519531 L 690.921875 1223.554688 C 683.773438 1219.238281 675.878906 1216.007812 667.476562 1214.089844 L 667.402344 1191.515625 L 630.679688 1191.679688 L 630.753906 1214.246094 C 622.359375 1216.246094 614.480469 1219.550781 607.355469 1223.925781 L 591.121094 1208.035156 L 565.230469 1233.753906 L 581.46875 1249.648438 C 577.085938 1256.703125 573.785156 1264.492188 571.828125 1272.789062 L 548.945312 1272.886719 L 549.050781 1309.097656 L 571.941406 1309 C 573.953125 1317.277344 577.289062 1325.03125 581.726562 1332.058594 L 565.582031 1348.089844 L 591.628906 1373.582031 L 607.773438 1357.550781 C 614.921875 1361.859375 622.816406 1365.101562 631.21875 1367.019531 L 631.292969 1389.589844 L 668.019531 1389.425781 L 667.941406 1366.851562 C 676.339844 1364.859375 684.21875 1361.558594 691.332031 1357.179688 L 707.578125 1373.074219 L 733.46875 1347.351562 L 717.226562 1331.457031 C 721.609375 1324.402344 724.90625 1316.609375 726.867188 1308.316406 L 749.75 1308.210938 " fill-opacity="1" fill-rule="nonzero"/><path fill="#4ada85" d="M 1021.308594 235.597656 C 999.996094 235.699219 982.648438 218.726562 982.578125 197.691406 C 982.519531 176.664062 999.75 159.539062 1021.074219 159.449219 C 1042.410156 159.355469 1059.746094 176.328125 1059.808594 197.355469 C 1059.878906 218.382812 1042.632812 235.503906 1021.308594 235.597656 Z M 1104.914062 212.25 L 1104.832031 182.0625 L 1085.734375 182.144531 C 1084.066406 175.238281 1081.273438 168.777344 1077.578125 162.917969 L 1091.042969 149.542969 L 1069.328125 128.292969 L 1055.863281 141.660156 C 1049.90625 138.066406 1043.316406 135.367188 1036.3125 133.761719 L 1036.25 114.941406 L 1005.625 115.074219 L 1005.6875 133.902344 C 998.691406 135.558594 992.132812 138.320312 986.183594 141.964844 L 972.648438 128.71875 L 951.058594 150.164062 L 964.59375 163.417969 C 960.933594 169.304688 958.195312 175.800781 956.558594 182.714844 L 937.472656 182.796875 L 937.570312 212.992188 L 956.648438 212.902344 C 958.328125 219.804688 961.121094 226.28125 964.808594 232.136719 L 951.351562 245.503906 L 973.078125 266.765625 L 986.53125 253.386719 C 992.488281 256.988281 999.066406 259.6875 1006.082031 261.285156 L 1006.132812 280.105469 L 1036.757812 279.972656 L 1036.710938 261.15625 C 1043.703125 259.484375 1050.273438 256.738281 1056.210938 253.082031 L 1069.757812 266.335938 L 1091.335938 244.882812 L 1077.792969 231.636719 C 1081.457031 225.753906 1084.199219 219.257812 1085.828125 212.332031 L 1104.914062 212.25 " fill-opacity="1" fill-rule="nonzero"/><path fill="#8c7bff" d="M 435.023438 823.386719 L 403.3125 823.386719 L 403.3125 1498.199219 L 435.023438 1498.199219 C 459.394531 1498.199219 479.152344 1478.441406 479.152344 1454.074219 L 479.152344 867.507812 C 479.152344 843.136719 459.394531 823.386719 435.023438 823.386719 " fill-opacity="1" fill-rule="nonzero"/><path fill="#000000" d="M 468.054688 900.171875 L 485.933594 900.171875 L 485.933594 955.589844 L 468.054688 955.589844 L 468.054688 900.171875 " fill-opacity="1" fill-rule="nonzero"/><path fill="#ffffff" d="M 465.019531 900.171875 L 475.441406 900.171875 L 475.441406 955.589844 L 465.019531 955.589844 L 465.019531 900.171875 " fill-opacity="1" fill-rule="nonzero"/><path fill="#000000" d="M 466.820312 953.789062 L 473.640625 953.789062 L 473.640625 901.976562 L 466.820312 901.976562 Z M 475.441406 957.394531 L 465.015625 957.394531 C 464.019531 957.394531 463.207031 956.589844 463.207031 955.589844 L 463.207031 900.171875 C 463.207031 899.171875 464.019531 898.359375 465.015625 898.359375 L 475.441406 898.359375 C 476.441406 898.359375 477.25 899.171875 477.25 900.171875 L 477.25 955.589844 C 477.25 956.589844 476.441406 957.394531 475.441406 957.394531 " fill-opacity="1" fill-rule="nonzero"/><path fill="#ffffff" d="M 55.0625 823.386719 L 403.257812 823.386719 C 432.414062 823.386719 456.042969 843.136719 456.042969 867.507812 L 456.042969 1454.074219 C 456.042969 1478.441406 432.414062 1498.199219 403.257812 1498.199219 L 55.0625 1498.199219 C 25.90625 1498.199219 2.273438 1478.441406 2.273438 1454.074219 L 2.273438 867.507812 C 2.273438 843.136719 25.90625 823.386719 55.0625 823.386719 " fill-opacity="1" fill-rule="nonzero"/><path fill="#000000" d="M 51.070312 825.195312 C 25.160156 825.195312 4.082031 846.261719 4.082031 872.171875 L 4.082031 1449.410156 C 4.082031 1475.308594 25.160156 1496.386719 51.070312 1496.386719 L 407.25 1496.386719 C 433.160156 1496.386719 454.238281 1475.308594 454.238281 1449.410156 L 454.238281 872.171875 C 454.238281 846.261719 433.160156 825.195312 407.25 825.195312 Z M 407.25 1500 L 51.070312 1500 C 23.167969 1500 0.46875 1477.300781 0.46875 1449.410156 L 0.46875 872.171875 C 0.46875 844.277344 23.167969 821.582031 51.070312 821.582031 L 407.25 821.582031 C 435.152344 821.582031 457.847656 844.277344 457.847656 872.171875 L 457.847656 1449.410156 C 457.847656 1477.300781 435.152344 1500 407.25 1500 " fill-opacity="1" fill-rule="nonzero"/><path fill="#000000" d="M 261.597656 842.582031 L 187.125 842.582031 C 186.125 842.582031 185.320312 841.769531 185.320312 840.777344 C 185.320312 839.78125 186.125 838.964844 187.125 838.964844 L 261.597656 838.964844 C 262.59375 838.964844 263.402344 839.78125 263.402344 840.777344 C 263.402344 841.769531 262.59375 842.582031 261.597656 842.582031 " fill-opacity="1" fill-rule="nonzero"/><path fill="#000000" d="M 274.769531 837.105469 C 272.746094 837.105469 271.09375 838.753906 271.09375 840.777344 C 271.09375 842.796875 272.746094 844.441406 274.769531 844.441406 C 276.792969 844.441406 278.441406 842.796875 278.441406 840.777344 C 278.441406 838.753906 276.792969 837.105469 274.769531 837.105469 Z M 274.769531 848.054688 C 270.753906 848.054688 267.484375 844.789062 267.484375 840.777344 C 267.484375 836.761719 270.753906 833.492188 274.769531 833.492188 C 278.785156 833.492188 282.050781 836.761719 282.050781 840.777344 C 282.050781 844.789062 278.785156 848.054688 274.769531 848.054688 " fill-opacity="1" fill-rule="nonzero"/><path fill="#fda4ff" d="M 350.605469 1133.316406 C 350.605469 1198.976562 297.390625 1252.195312 231.753906 1252.195312 C 166.109375 1252.195312 112.898438 1198.976562 112.898438 1133.316406 C 112.898438 1067.664062 166.109375 1014.445312 231.753906 1014.445312 C 297.390625 1014.445312 350.605469 1067.664062 350.605469 1133.316406 " fill-opacity="1" fill-rule="nonzero"/><path fill="#000000" d="M 134.066406 1086.335938 L 243.699219 1233.636719 L 340.96875 1086.386719 C 334.574219 1071.527344 325.230469 1058.246094 313.6875 1047.253906 L 241.539062 1156.484375 L 169.625 1059.863281 L 134.066406 1086.335938 " fill-opacity="1" fill-rule="nonzero"/><path fill="#ffffff" d="M 220.507812 1224.371094 L 110.875 1077.058594 L 146.433594 1050.582031 L 218.34375 1147.203125 L 334.800781 970.902344 L 371.78125 995.335938 L 220.507812 1224.371094 " fill-opacity="1" fill-rule="nonzero"/><path fill="#000000" d="M 113.398438 1077.425781 L 220.417969 1221.222656 L 369.28125 995.855469 L 335.3125 973.402344 L 219.851562 1148.203125 C 219.527344 1148.695312 218.980469 1149 218.394531 1149.015625 C 217.804688 1149.007812 217.246094 1148.761719 216.894531 1148.285156 L 146.058594 1053.105469 Z M 220.507812 1226.171875 C 219.9375 1226.171875 219.402344 1225.902344 219.058594 1225.441406 L 109.425781 1078.132812 C 108.828125 1077.335938 108.996094 1076.199219 109.796875 1075.605469 L 145.351562 1049.132812 C 145.738281 1048.84375 146.222656 1048.730469 146.695312 1048.796875 C 147.167969 1048.859375 147.59375 1049.121094 147.878906 1049.507812 L 218.253906 1144.066406 L 333.292969 969.902344 C 333.554688 969.5 333.96875 969.21875 334.441406 969.132812 C 334.90625 969.03125 335.394531 969.121094 335.796875 969.394531 L 372.777344 993.828125 C 373.613281 994.378906 373.839844 995.5 373.292969 996.328125 L 222.015625 1225.363281 C 221.691406 1225.851562 221.148438 1226.15625 220.558594 1226.171875 C 220.542969 1226.171875 220.523438 1226.171875 220.507812 1226.171875 " fill-opacity="1" fill-rule="nonzero"/><path fill="#000000" d="M 406.308594 538.523438 C 406.253906 538.523438 406.195312 538.523438 406.140625 538.523438 C 385.84375 538.613281 369.382812 554.960938 369.441406 574.96875 C 369.472656 584.546875 373.261719 593.582031 380.113281 600.378906 C 387.066406 607.269531 396.320312 611.066406 406.1875 611.066406 C 406.242188 611.066406 406.300781 611.066406 406.359375 611.066406 C 426.652344 610.976562 443.117188 594.628906 443.054688 574.632812 C 443.023438 565.042969 439.238281 556.015625 432.382812 549.222656 C 425.429688 542.320312 416.175781 538.523438 406.308594 538.523438 Z M 406.1875 614.679688 C 395.359375 614.679688 385.207031 610.515625 377.566406 602.933594 C 370.03125 595.460938 365.863281 585.535156 365.828125 574.972656 C 365.761719 552.984375 383.835938 535.015625 406.121094 534.917969 C 406.183594 534.917969 406.246094 534.917969 406.308594 534.917969 C 417.136719 534.917969 427.292969 539.082031 434.929688 546.65625 C 442.464844 554.140625 446.636719 564.066406 446.667969 574.621094 C 446.734375 596.617188 428.660156 614.582031 406.375 614.679688 C 406.3125 614.679688 406.25 614.679688 406.1875 614.679688 Z M 371.582031 628.851562 C 371.902344 628.851562 372.226562 628.941406 372.511719 629.113281 C 378.414062 632.679688 384.8125 635.261719 391.535156 636.796875 C 392.355469 636.984375 392.9375 637.714844 392.941406 638.554688 L 392.992188 655.566406 L 420.003906 655.441406 L 419.949219 638.425781 C 419.949219 637.589844 420.519531 636.859375 421.335938 636.664062 C 428.054688 635.074219 434.4375 632.425781 440.316406 628.808594 C 441.023438 628.378906 441.933594 628.484375 442.527344 629.066406 L 454.796875 641.074219 L 473.820312 622.164062 L 461.585938 610.199219 C 460.980469 609.605469 460.867188 608.671875 461.3125 607.949219 C 464.933594 602.132812 467.5625 595.816406 469.128906 589.195312 C 469.320312 588.382812 470.042969 587.808594 470.878906 587.804688 L 488.160156 587.730469 L 488.074219 561.148438 L 470.800781 561.222656 C 469.953125 561.261719 469.234375 560.65625 469.039062 559.84375 C 467.429688 553.230469 464.765625 546.941406 461.109375 541.15625 C 460.65625 540.441406 460.761719 539.507812 461.359375 538.910156 L 473.519531 526.828125 L 454.386719 508.097656 L 442.191406 520.214844 C 441.601562 520.796875 440.691406 520.910156 439.984375 520.476562 C 434.085938 516.917969 427.683594 514.328125 420.960938 512.792969 C 420.140625 512.605469 419.558594 511.886719 419.558594 511.039062 L 419.503906 494.03125 L 392.496094 494.148438 L 392.550781 511.164062 C 392.550781 512.007812 391.976562 512.738281 391.160156 512.925781 C 384.445312 514.523438 378.058594 517.164062 372.179688 520.78125 C 371.476562 521.210938 370.5625 521.117188 369.96875 520.535156 L 357.703125 508.523438 L 338.679688 527.425781 L 350.910156 539.402344 C 351.519531 539.992188 351.628906 540.925781 351.183594 541.644531 C 347.5625 547.46875 344.933594 553.777344 343.367188 560.402344 C 343.179688 561.210938 342.457031 561.785156 341.621094 561.796875 L 324.339844 561.871094 L 324.421875 588.449219 L 341.699219 588.378906 C 341.699219 588.378906 341.699219 588.378906 341.707031 588.378906 C 342.539062 588.378906 343.261719 588.945312 343.460938 589.753906 C 345.066406 596.359375 347.730469 602.648438 351.386719 608.441406 C 351.839844 609.15625 351.734375 610.089844 351.136719 610.6875 L 338.976562 622.769531 L 358.109375 641.5 L 370.304688 629.375 C 370.65625 629.035156 371.113281 628.851562 371.582031 628.851562 Z M 391.191406 659.179688 C 390.71875 659.179688 390.257812 658.992188 389.917969 658.664062 C 389.582031 658.316406 389.386719 657.859375 389.386719 657.386719 L 389.332031 639.984375 C 383.199219 638.449219 377.335938 636.074219 371.863281 632.925781 L 359.394531 645.3125 C 358.695312 646.007812 357.5625 646.015625 356.855469 645.320312 L 335.136719 624.066406 C 334.792969 623.730469 334.597656 623.269531 334.59375 622.789062 C 334.59375 622.304688 334.785156 621.835938 335.128906 621.5 L 347.574219 609.132812 C 344.34375 603.761719 341.902344 598.015625 340.300781 591.992188 L 322.628906 592.070312 C 322.625 592.070312 322.621094 592.070312 322.621094 592.070312 C 322.144531 592.070312 321.6875 591.886719 321.347656 591.550781 C 321.007812 591.214844 320.816406 590.753906 320.8125 590.269531 L 320.71875 560.074219 C 320.71875 559.082031 321.523438 558.261719 322.519531 558.261719 L 340.195312 558.1875 C 341.757812 552.148438 344.167969 546.375 347.363281 540.972656 L 334.84375 528.730469 C 334.496094 528.382812 334.300781 527.925781 334.300781 527.441406 C 334.300781 526.960938 334.492188 526.5 334.835938 526.15625 L 356.417969 504.714844 C 357.121094 504.007812 358.25 504.007812 358.957031 504.695312 L 371.5 516.976562 C 376.957031 513.769531 382.804688 511.355469 388.929688 509.761719 L 388.875 492.359375 C 388.875 491.363281 389.679688 490.546875 390.675781 490.546875 L 421.296875 490.410156 C 421.300781 490.410156 421.300781 490.410156 421.304688 490.410156 C 421.78125 490.410156 422.238281 490.597656 422.578125 490.9375 C 422.917969 491.273438 423.109375 491.730469 423.113281 492.214844 L 423.164062 509.613281 C 429.296875 511.148438 435.160156 513.515625 440.632812 516.671875 L 453.101562 504.289062 C 453.804688 503.582031 454.933594 503.582031 455.640625 504.269531 L 477.359375 525.523438 C 477.703125 525.867188 477.898438 526.328125 477.898438 526.8125 C 477.902344 527.296875 477.710938 527.753906 477.367188 528.097656 L 464.925781 540.457031 C 468.152344 545.828125 470.59375 551.582031 472.195312 557.597656 L 489.871094 557.523438 C 489.871094 557.523438 489.875 557.523438 489.878906 557.523438 C 490.355469 557.523438 490.808594 557.714844 491.148438 558.050781 C 491.488281 558.386719 491.679688 558.84375 491.683594 559.328125 L 491.777344 589.515625 C 491.78125 590.515625 490.976562 591.328125 489.980469 591.328125 L 472.300781 591.410156 C 470.738281 597.441406 468.328125 603.222656 465.136719 608.617188 L 477.652344 620.871094 C 478 621.207031 478.195312 621.671875 478.195312 622.15625 C 478.199219 622.640625 478.003906 623.097656 477.664062 623.445312 L 456.078125 644.886719 C 455.375 645.582031 454.246094 645.589844 453.539062 644.894531 L 440.996094 632.613281 C 435.542969 635.820312 429.691406 638.246094 423.566406 639.835938 L 423.621094 657.234375 C 423.625 658.238281 422.816406 659.046875 421.820312 659.046875 L 391.199219 659.179688 C 391.199219 659.179688 391.195312 659.179688 391.191406 659.179688 " fill-opacity="1" fill-rule="nonzero"/><path fill="#000000" d="M 1153.960938 3.046875 L 1440.871094 3.113281 C 1467.808594 3.113281 1489.636719 24.925781 1489.636719 51.8125 L 1489.507812 699.289062 C 1489.507812 726.179688 1467.667969 747.984375 1440.71875 747.976562 L 1153.820312 747.917969 C 1126.871094 747.914062 1105.042969 726.109375 1105.050781 699.214844 L 1105.171875 51.738281 C 1105.183594 24.847656 1127.019531 3.046875 1153.960938 3.046875 " fill-opacity="1" fill-rule="nonzero"/><g clip-path="url(#688f6058dc)"><path fill="#000000" d="M 1474.019531 86.691406 L 1498.03125 86.691406 L 1498.023438 150.1875 L 1474.007812 150.1875 L 1474.019531 86.691406 " fill-opacity="1" fill-rule="nonzero"/></g><path fill="#ffffff" d="M 1474.007812 87.867188 L 1485.539062 87.867188 L 1485.515625 149.050781 L 1474 149.050781 L 1474.007812 87.867188 " fill-opacity="1" fill-rule="nonzero"/><path fill="#000000" d="M 1475.800781 147.242188 L 1483.71875 147.242188 L 1483.730469 89.675781 L 1475.8125 89.675781 Z M 1485.527344 150.855469 L 1473.996094 150.855469 C 1473 150.855469 1472.191406 150.042969 1472.191406 149.050781 L 1472.210938 87.867188 C 1472.210938 87.382812 1472.394531 86.925781 1472.730469 86.59375 C 1473.066406 86.257812 1473.53125 86.0625 1474.003906 86.0625 L 1485.535156 86.0625 C 1486.53125 86.0625 1487.339844 86.875 1487.339844 87.867188 L 1487.332031 149.050781 C 1487.332031 149.523438 1487.136719 149.992188 1486.800781 150.324219 C 1486.46875 150.660156 1486.003906 150.855469 1485.527344 150.855469 " fill-opacity="1" fill-rule="nonzero"/><path fill="#8c7bff" d="M 1128.351562 3.046875 L 1415.257812 3.097656 C 1442.199219 3.097656 1464.027344 24.914062 1464.027344 51.800781 L 1463.898438 699.277344 C 1463.886719 726.179688 1442.046875 747.972656 1415.109375 747.964844 L 1128.195312 747.914062 C 1101.257812 747.910156 1079.429688 726.09375 1079.429688 699.203125 L 1079.558594 51.726562 C 1079.570312 24.835938 1101.410156 3.035156 1128.351562 3.046875 " fill-opacity="1" fill-rule="nonzero"/><path fill="#ffffff" d="M 1464.023438 637.988281 L 1080.003906 637.90625 L 1080.109375 102.363281 L 1464.128906 102.441406 L 1464.023438 637.988281 " fill-opacity="1" fill-rule="nonzero"/><path fill="#000000" d="M 1081.804688 636.097656 L 1462.214844 636.171875 L 1462.324219 104.238281 L 1081.910156 104.164062 Z M 1464.019531 639.792969 L 1079.996094 639.71875 C 1079.003906 639.71875 1078.203125 638.90625 1078.203125 637.898438 L 1078.300781 102.359375 C 1078.300781 101.878906 1078.492188 101.421875 1078.832031 101.089844 C 1079.164062 100.746094 1079.621094 100.554688 1080.101562 100.554688 L 1464.128906 100.628906 C 1465.132812 100.628906 1465.929688 101.441406 1465.929688 102.4375 L 1465.835938 637.988281 C 1465.835938 638.457031 1465.632812 638.914062 1465.304688 639.257812 C 1464.960938 639.601562 1464.5 639.792969 1464.019531 639.792969 " fill-opacity="1" fill-rule="nonzero"/><path fill="#000000" d="M 1128.003906 4.855469 C 1103.203125 4.855469 1081.441406 24.960938 1081.441406 47.894531 L 1081.296875 696.175781 C 1081.296875 724.636719 1101.324219 746.109375 1127.863281 746.109375 L 1415.585938 746.167969 C 1428.179688 746.167969 1439.855469 741.191406 1448.484375 732.160156 C 1457.296875 722.929688 1462.164062 710.175781 1462.164062 696.25 L 1462.292969 47.96875 C 1462.292969 37.222656 1457.332031 26.339844 1448.691406 18.136719 C 1439.710938 9.609375 1428.003906 4.910156 1415.730469 4.910156 L 1128.015625 4.855469 Z M 1415.585938 749.78125 L 1127.863281 749.722656 C 1099.253906 749.71875 1077.683594 726.695312 1077.699219 696.175781 L 1077.816406 47.894531 C 1077.828125 23.035156 1101.277344 1.242188 1128.003906 1.242188 L 1128.015625 1.242188 L 1415.730469 1.296875 C 1428.941406 1.296875 1441.519531 6.355469 1451.171875 15.515625 C 1460.542969 24.40625 1465.90625 36.230469 1465.894531 47.96875 L 1465.773438 696.25 C 1465.765625 711.109375 1460.5625 724.75 1451.097656 734.648438 C 1441.78125 744.40625 1429.167969 749.78125 1415.585938 749.78125 " fill-opacity="1" fill-rule="nonzero"/><path fill="#000000" d="M 1284.789062 27.960938 L 1202.464844 27.9375 C 1201.464844 27.9375 1200.660156 27.132812 1200.660156 26.132812 C 1200.660156 25.136719 1201.464844 24.332031 1202.464844 24.332031 L 1284.789062 24.351562 C 1285.78125 24.351562 1286.59375 25.15625 1286.59375 26.15625 C 1286.59375 27.15625 1285.78125 27.960938 1284.789062 27.960938 " fill-opacity="1" fill-rule="nonzero"/><path fill="#000000" d="M 1299.347656 21.914062 C 1297.003906 21.914062 1295.097656 23.820312 1295.097656 26.160156 C 1295.097656 28.5 1297.003906 30.394531 1299.347656 30.394531 C 1300.476562 30.394531 1301.542969 29.953125 1302.351562 29.15625 C 1303.148438 28.359375 1303.589844 27.292969 1303.589844 26.160156 C 1303.589844 23.820312 1301.683594 21.914062 1299.347656 21.914062 Z M 1299.347656 34.003906 C 1295.011719 34.003906 1291.488281 30.480469 1291.488281 26.160156 C 1291.488281 21.832031 1295.011719 18.304688 1299.347656 18.304688 C 1303.675781 18.304688 1307.210938 21.832031 1307.210938 26.160156 L 1305.402344 26.160156 L 1307.210938 26.160156 C 1307.203125 28.261719 1306.390625 30.230469 1304.894531 31.707031 C 1303.417969 33.195312 1301.445312 34.003906 1299.347656 34.003906 " fill-opacity="1" fill-rule="nonzero"/><path fill="#fda4ff" d="M 1379.199219 378.007812 C 1379.199219 443.652344 1325.992188 496.878906 1260.351562 496.878906 C 1194.707031 496.878906 1141.488281 443.652344 1141.488281 378.007812 C 1141.488281 312.347656 1194.707031 259.125 1260.351562 259.125 C 1325.992188 259.125 1379.199219 312.347656 1379.199219 378.007812 " fill-opacity="1" fill-rule="nonzero"/><path fill="#000000" d="M 1290.082031 451.402344 L 1369.5625 331.074219 C 1363.164062 316.210938 1353.820312 302.933594 1342.285156 291.945312 L 1270.128906 401.171875 L 1198.214844 304.546875 L 1162.65625 331.011719 L 1272.300781 478.328125 L 1290.082031 451.402344 " fill-opacity="1" fill-rule="nonzero"/><path fill="#ffffff" d="M 1249.089844 469.050781 L 1139.464844 321.746094 L 1175.019531 295.277344 L 1246.929688 391.90625 L 1363.386719 215.59375 L 1400.371094 240.027344 L 1249.089844 469.050781 " fill-opacity="1" fill-rule="nonzero"/><path fill="#000000" d="M 1141.992188 322.113281 L 1249.015625 465.917969 L 1397.867188 240.539062 L 1363.90625 218.09375 L 1248.441406 392.890625 C 1248.121094 393.386719 1247.566406 393.6875 1246.980469 393.707031 C 1246.402344 393.675781 1245.835938 393.449219 1245.488281 392.976562 L 1174.648438 297.804688 Z M 1249.101562 470.867188 C 1248.53125 470.867188 1247.988281 470.597656 1247.648438 470.132812 L 1138.019531 322.824219 C 1137.421875 322.023438 1137.585938 320.890625 1138.390625 320.304688 L 1173.949219 293.820312 C 1174.332031 293.53125 1174.8125 293.421875 1175.277344 293.480469 C 1175.757812 293.554688 1176.183594 293.8125 1176.46875 294.191406 L 1246.84375 388.753906 L 1361.886719 214.59375 C 1362.144531 214.191406 1362.558594 213.914062 1363.03125 213.824219 C 1363.492188 213.71875 1363.988281 213.824219 1364.386719 214.078125 L 1401.367188 238.519531 C 1402.203125 239.070312 1402.425781 240.191406 1401.882812 241.023438 L 1250.601562 470.054688 C 1250.28125 470.546875 1249.738281 470.84375 1249.152344 470.867188 C 1249.128906 470.867188 1249.109375 470.867188 1249.101562 470.867188 " fill-opacity="1" fill-rule="nonzero"/><path fill="#000000" d="M 1338.015625 434.011719 C 1337.023438 434.011719 1336.207031 433.210938 1336.207031 432.210938 L 1336.207031 378.003906 C 1336.207031 377.015625 1337.023438 376.199219 1338.015625 376.199219 C 1339.015625 376.199219 1339.816406 377.015625 1339.816406 378.003906 L 1339.816406 432.210938 C 1339.816406 433.210938 1339.015625 434.011719 1338.015625 434.011719 " fill-opacity="1" fill-rule="nonzero"/><path fill="#ffffff" d="M 1338.015625 379.816406 C 1337.023438 379.816406 1336.207031 379.003906 1336.207031 378.003906 L 1336.207031 369.464844 L 1316.070312 369.464844 C 1315.070312 369.464844 1314.265625 368.660156 1314.265625 367.65625 C 1314.265625 366.660156 1315.070312 365.855469 1316.070312 365.855469 L 1338.015625 365.855469 C 1339.015625 365.855469 1339.816406 366.660156 1339.816406 367.65625 L 1339.816406 378.003906 C 1339.816406 379.003906 1339.015625 379.816406 1338.015625 379.816406 " fill-opacity="1" fill-rule="nonzero"/><path fill="#000000" d="M 1316.0625 369.472656 L 1236.125 369.472656 C 1235.128906 369.472656 1234.320312 368.660156 1234.320312 367.664062 C 1234.320312 366.664062 1235.128906 365.855469 1236.125 365.855469 L 1316.0625 365.855469 C 1317.074219 365.855469 1317.875 366.664062 1317.875 367.664062 C 1317.875 368.660156 1317.074219 369.472656 1316.0625 369.472656 " fill-opacity="1" fill-rule="nonzero"/><path fill="#000000" d="M 1236.132812 369.457031 L 1172.164062 369.457031 C 1171.167969 369.457031 1170.363281 368.652344 1170.363281 367.65625 C 1170.363281 366.652344 1171.167969 365.847656 1172.164062 365.847656 L 1236.132812 365.847656 C 1237.132812 365.847656 1237.941406 366.652344 1237.941406 367.65625 C 1237.941406 368.652344 1237.132812 369.457031 1236.132812 369.457031 " fill-opacity="1" fill-rule="nonzero"/><path fill="#ffffff" d="M 1172.15625 369.46875 L 1141.484375 369.46875 C 1140.496094 369.46875 1139.679688 368.65625 1139.679688 367.660156 C 1139.679688 366.664062 1140.496094 365.859375 1141.484375 365.859375 L 1172.15625 365.859375 C 1173.160156 365.859375 1173.96875 366.664062 1173.96875 367.660156 C 1173.96875 368.65625 1173.160156 369.46875 1172.15625 369.46875 " fill-opacity="1" fill-rule="nonzero"/><path fill="#000000" d="M 167.066406 1049.335938 C 166.066406 1049.335938 165.261719 1048.535156 165.261719 1047.535156 L 165.261719 367.664062 C 165.261719 366.671875 166.066406 365.863281 167.066406 365.863281 L 1141.484375 365.863281 C 1142.484375 365.863281 1143.289062 366.671875 1143.289062 367.664062 C 1143.289062 368.664062 1142.484375 369.472656 1141.484375 369.472656 L 168.871094 369.472656 L 168.871094 1047.535156 C 168.871094 1048.535156 168.0625 1049.335938 167.066406 1049.335938 " fill-opacity="1" fill-rule="nonzero"/><path fill="#ffffff" d="M 295.765625 1049.335938 L 167.066406 1049.335938 C 166.070312 1049.335938 165.261719 1048.535156 165.261719 1047.53125 C 165.261719 1046.53125 166.070312 1045.730469 167.066406 1045.730469 L 295.765625 1045.730469 C 296.761719 1045.730469 297.570312 1046.53125 297.570312 1047.53125 C 297.570312 1048.535156 296.761719 1049.335938 295.765625 1049.335938 " fill-opacity="1" fill-rule="nonzero"/><path fill="#000000" d="M 1338.015625 1049.332031 L 295.765625 1049.332031 C 294.765625 1049.332031 293.957031 1048.535156 293.957031 1047.53125 C 293.957031 1046.53125 294.765625 1045.730469 295.765625 1045.730469 L 1336.207031 1045.730469 L 1336.207031 432.210938 C 1336.207031 431.207031 1337.023438 430.40625 1338.015625 430.40625 C 1339.015625 430.40625 1339.816406 431.207031 1339.816406 432.210938 L 1339.816406 1047.53125 C 1339.816406 1048.535156 1339.015625 1049.332031 1338.015625 1049.332031 " fill-opacity="1" fill-rule="nonzero"/><path fill="#000000" d="M 1289.335938 507.699219 C 1288.339844 507.699219 1287.53125 506.894531 1287.53125 505.894531 L 1287.53125 448.824219 C 1287.53125 447.824219 1288.339844 447.015625 1289.335938 447.015625 C 1290.335938 447.015625 1291.144531 447.824219 1291.144531 448.824219 L 1291.144531 505.894531 C 1291.144531 506.894531 1290.335938 507.699219 1289.335938 507.699219 " fill-opacity="1" fill-rule="nonzero"/><path fill="#ffffff" d="M 1289.335938 450.628906 C 1288.339844 450.628906 1287.53125 449.8125 1287.53125 448.824219 L 1287.53125 416.894531 L 1284.746094 416.894531 C 1283.742188 416.894531 1282.9375 416.082031 1282.9375 415.082031 C 1282.9375 414.09375 1283.742188 413.289062 1284.746094 413.289062 L 1289.335938 413.289062 C 1290.335938 413.289062 1291.144531 414.09375 1291.144531 415.082031 L 1291.144531 448.824219 C 1291.144531 449.8125 1290.335938 450.628906 1289.335938 450.628906 " fill-opacity="1" fill-rule="nonzero"/><path fill="#000000" d="M 1284.746094 416.890625 L 1208.9375 416.890625 C 1207.941406 416.890625 1207.128906 416.085938 1207.128906 415.085938 C 1207.128906 414.089844 1207.941406 413.277344 1208.9375 413.277344 L 1284.746094 413.277344 C 1285.746094 413.277344 1286.546875 414.089844 1286.546875 415.085938 C 1286.546875 416.085938 1285.746094 416.890625 1284.746094 416.890625 " fill-opacity="1" fill-rule="nonzero"/><path fill="#ffffff" d="M 1208.941406 416.886719 L 1147.390625 416.886719 C 1146.398438 416.886719 1145.582031 416.082031 1145.582031 415.082031 C 1145.582031 414.089844 1146.398438 413.273438 1147.390625 413.273438 L 1208.941406 413.273438 C 1209.933594 413.273438 1210.746094 414.089844 1210.746094 415.082031 C 1210.746094 416.082031 1209.933594 416.886719 1208.941406 416.886719 " fill-opacity="1" fill-rule="nonzero"/><path fill="#000000" d="M 1289.335938 1001.910156 L 217.664062 1001.910156 C 216.667969 1001.910156 215.859375 1001.109375 215.859375 1000.109375 L 215.09375 415.09375 C 215.089844 414.613281 215.28125 414.152344 215.621094 413.816406 C 215.957031 413.46875 216.417969 413.289062 216.898438 413.289062 L 1147.390625 413.289062 C 1148.378906 413.289062 1149.195312 414.09375 1149.195312 415.082031 C 1149.195312 416.082031 1148.378906 416.894531 1147.390625 416.894531 L 218.707031 416.894531 L 219.46875 998.304688 L 1287.53125 998.304688 L 1287.53125 505.894531 C 1287.53125 504.894531 1288.339844 504.089844 1289.335938 504.089844 C 1290.335938 504.089844 1291.144531 504.894531 1291.144531 505.894531 L 1291.144531 1000.109375 C 1291.144531 1001.109375 1290.335938 1001.910156 1289.335938 1001.910156 " fill-opacity="1" fill-rule="nonzero"/><path fill="#000000" d="M 583.234375 1180.351562 L 921.851562 1180.351562 L 921.851562 1049.589844 L 583.234375 1049.589844 Z M 923.652344 1183.96875 L 581.421875 1183.96875 C 580.429688 1183.96875 579.617188 1183.15625 579.617188 1182.164062 L 579.617188 1047.789062 C 579.617188 1046.785156 580.429688 1045.976562 581.421875 1045.976562 L 923.652344 1045.976562 C 924.65625 1045.976562 925.464844 1046.785156 925.464844 1047.789062 L 925.464844 1182.164062 C 925.464844 1183.15625 924.65625 1183.96875 923.652344 1183.96875 " fill-opacity="1" fill-rule="nonzero"/><path fill="#000000" d="M 1138.238281 1289.101562 L 830.414062 1289.101562 C 829.410156 1289.101562 828.601562 1288.289062 828.601562 1287.289062 C 828.601562 1286.296875 829.410156 1285.484375 830.414062 1285.484375 L 1134.105469 1285.484375 L 1128.539062 1279.484375 C 1072.210938 1218.78125 992.433594 1183.96875 909.65625 1183.96875 L 595.421875 1183.96875 C 512.636719 1183.96875 432.859375 1218.78125 376.539062 1279.484375 L 370.96875 1285.484375 L 657.34375 1285.484375 C 658.34375 1285.484375 659.148438 1286.296875 659.148438 1287.289062 C 659.148438 1288.289062 658.34375 1289.101562 657.34375 1289.101562 L 366.828125 1289.101562 C 366.109375 1289.101562 365.460938 1288.675781 365.175781 1288.019531 C 364.886719 1287.355469 365.015625 1286.59375 365.503906 1286.070312 L 373.894531 1277.027344 C 430.890625 1215.59375 511.636719 1180.355469 595.421875 1180.355469 L 909.65625 1180.355469 C 993.4375 1180.355469 1074.175781 1215.59375 1131.1875 1277.027344 L 1139.558594 1286.070312 C 1140.054688 1286.59375 1140.183594 1287.355469 1139.898438 1288.019531 C 1139.609375 1288.675781 1138.949219 1289.101562 1138.238281 1289.101562 " fill-opacity="1" fill-rule="nonzero"/><path fill="#fed101" d="M 937.3125 700.851562 C 937.3125 799.96875 856.980469 880.3125 757.890625 880.3125 C 658.800781 880.3125 578.46875 799.96875 578.46875 700.851562 C 578.46875 601.746094 658.800781 521.402344 757.890625 521.402344 C 856.980469 521.402344 937.3125 601.746094 937.3125 700.851562 " fill-opacity="1" fill-rule="nonzero"/><path fill="#000000" d="M 610.429688 629.917969 L 775.929688 852.300781 L 922.757812 630 C 913.109375 607.574219 899.007812 587.527344 881.578125 570.925781 L 772.65625 735.828125 L 664.105469 589.957031 L 610.429688 629.917969 " fill-opacity="1" fill-rule="nonzero"/><path fill="#ffffff" d="M 740.910156 838.292969 L 575.410156 615.917969 L 629.089844 575.949219 L 737.648438 721.820312 L 913.457031 455.664062 L 969.28125 492.558594 L 740.910156 838.292969 " fill-opacity="1" fill-rule="nonzero"/><path fill="#000000" d="M 577.9375 616.289062 L 740.832031 835.148438 L 966.78125 493.066406 L 913.960938 458.164062 L 739.160156 722.808594 C 738.828125 723.304688 738.289062 723.605469 737.699219 723.625 C 737.125 723.628906 736.550781 723.371094 736.195312 722.894531 L 628.71875 578.472656 Z M 740.910156 840.101562 C 740.347656 840.101562 739.804688 839.828125 739.46875 839.371094 L 573.96875 616.992188 C 573.371094 616.199219 573.535156 615.066406 574.335938 614.464844 L 628.015625 574.507812 C 628.402344 574.210938 628.875 574.105469 629.351562 574.164062 C 629.828125 574.238281 630.253906 574.492188 630.539062 574.878906 L 737.558594 718.671875 L 911.949219 454.664062 C 912.210938 454.269531 912.621094 453.984375 913.085938 453.894531 C 913.550781 453.792969 914.046875 453.882812 914.445312 454.15625 L 970.28125 491.046875 C 971.109375 491.597656 971.335938 492.722656 970.789062 493.546875 L 742.421875 839.285156 C 742.101562 839.78125 741.558594 840.082031 740.96875 840.101562 C 740.953125 840.101562 740.9375 840.101562 740.910156 840.101562 " fill-opacity="1" fill-rule="nonzero"/><path fill="#000000" d="M 617.96875 33.726562 C 617.96875 52.355469 602.871094 67.457031 584.234375 67.457031 C 565.605469 67.457031 550.492188 52.355469 550.492188 33.726562 C 550.492188 15.101562 565.605469 0 584.234375 0 C 602.871094 0 617.96875 15.101562 617.96875 33.726562 " fill-opacity="1" fill-rule="nonzero"/><path fill="#000000" d="M 670.808594 43.273438 C 670.808594 61.898438 655.703125 77 637.066406 77 C 618.441406 77 603.332031 61.898438 603.332031 43.273438 C 603.332031 24.648438 618.441406 9.542969 637.066406 9.542969 C 655.703125 9.542969 670.808594 24.648438 670.808594 43.273438 " fill-opacity="1" fill-rule="nonzero"/><path fill="#000000" d="M 723.636719 52.824219 C 723.636719 71.445312 708.535156 86.554688 689.898438 86.554688 C 671.273438 86.554688 656.167969 71.445312 656.167969 52.824219 C 656.167969 34.191406 671.273438 19.09375 689.898438 19.09375 C 708.535156 19.09375 723.636719 34.191406 723.636719 52.824219 " fill-opacity="1" fill-rule="nonzero"/><path fill="#fda4ff" d="M 584.839844 77.628906 L 558.261719 77.628906 L 558.261719 43.289062 L 584.839844 43.289062 L 584.839844 77.628906 " fill-opacity="1" fill-rule="nonzero"/><path fill="#000000" d="M 584.839844 53.359375 L 584.839844 43.289062 L 558.261719 43.289062 L 558.261719 65.519531 C 560.664062 66 565.441406 66.605469 570.925781 64.800781 C 579.527344 61.960938 583.742188 55.25 584.839844 53.359375 " fill-opacity="1" fill-rule="nonzero"/><path fill="#fda4ff" d="M 589.324219 35.445312 C 589.324219 48.484375 579.753906 59.0625 567.949219 59.0625 C 556.144531 59.0625 546.574219 48.484375 546.574219 35.445312 C 546.574219 22.402344 556.144531 11.824219 567.949219 11.824219 C 579.753906 11.824219 589.324219 22.402344 589.324219 35.445312 " fill-opacity="1" fill-rule="nonzero"/><path fill="#000000" d="M 567.738281 11.386719 C 565.515625 11.386719 563.378906 11.75 561.351562 12.433594 C 564.171875 26.972656 574.75 38.71875 588.613281 43.21875 C 589.320312 40.839844 589.714844 38.308594 589.714844 35.667969 C 589.714844 22.257812 579.875 11.386719 567.738281 11.386719 " fill-opacity="1" fill-rule="nonzero"/><path fill="#ffffff" d="M 577.234375 45.816406 C 575.171875 47.710938 572.515625 48.988281 569.503906 49.296875 C 562.8125 49.96875 556.78125 45.625 555.125 39.320312 L 577.234375 45.816406 " fill-opacity="1" fill-rule="nonzero"/><path fill="#000000" d="M 225.511719 596.710938 L 133.292969 611.023438 L 110.023438 461.15625 L 202.238281 446.84375 L 225.511719 596.710938 " fill-opacity="1" fill-rule="nonzero"/><path fill="#4ada85" d="M 39.046875 665.972656 L 77.304688 632.21875 L 106.457031 571.695312 L 166.625 579.425781 C 179.398438 581.0625 192.28125 577.28125 202.136719 568.992188 L 203.832031 567.566406 C 213.785156 559.1875 218.054688 545.859375 214.816406 533.261719 L 214.003906 530.089844 C 212.398438 523.835938 220.152344 519.539062 224.605469 524.207031 L 309.527344 613.1875 L 279.886719 641.644531 C 264.167969 656.738281 246.226562 669.335938 226.691406 679 L 218.859375 682.871094 C 171.234375 706.417969 120.300781 722.582031 67.808594 730.8125 L 30.136719 736.710938 L 14.570312 723.753906 L 13.960938 722.515625 C 9.597656 713.699219 9.269531 703.417969 13.0625 694.328125 L 13.117188 694.203125 C 14.988281 689.722656 17.800781 685.6875 21.363281 682.386719 L 39.046875 665.972656 " fill-opacity="1" fill-rule="nonzero"/><path fill="#ffffff" d="M 131.996094 574.972656 L 106.457031 571.695312 L 77.304688 632.21875 L 100.789062 620.613281 C 108.625 616.738281 114.941406 610.359375 118.734375 602.484375 L 131.996094 574.972656 " fill-opacity="1" fill-rule="nonzero"/><path fill="#000000" d="M 107.519531 573.65625 L 81.210938 628.277344 L 99.988281 618.992188 C 107.425781 615.3125 113.503906 609.171875 117.109375 601.695312 L 129.277344 576.449219 Z M 77.304688 634.03125 C 76.839844 634.03125 76.378906 633.851562 76.035156 633.507812 C 75.488281 632.964844 75.34375 632.140625 75.679688 631.441406 L 104.828125 570.910156 C 105.164062 570.214844 105.914062 569.8125 106.6875 569.902344 L 132.226562 573.1875 C 132.800781 573.261719 133.308594 573.605469 133.582031 574.117188 C 133.859375 574.621094 133.875 575.238281 133.621094 575.761719 L 120.363281 603.269531 C 116.414062 611.460938 109.746094 618.195312 101.589844 622.230469 L 78.105469 633.84375 C 77.851562 633.96875 77.578125 634.03125 77.304688 634.03125 " fill-opacity="1" fill-rule="nonzero"/><path fill="#ffffff" d="M 178.898438 631.679688 L 185.976562 645.992188 L 226.417969 593.410156 L 240.234375 619.066406 L 263.394531 564.851562 L 271.992188 563 L 314.972656 608.566406 L 279.585938 642.179688 C 264.0625 656.917969 246.410156 669.246094 227.214844 678.738281 L 218.859375 682.871094 C 171.234375 706.417969 120.300781 722.582031 67.808594 730.8125 L 30.136719 736.710938 L 14.570312 723.753906 L 33.035156 718.589844 C 100.652344 698.871094 135.9375 657.378906 135.9375 657.378906 L 141.289062 668.972656 L 178.898438 631.679688 " fill-opacity="1" fill-rule="nonzero"/><path fill="#000000" d="M 18.371094 724.566406 L 30.664062 734.804688 L 67.527344 729.023438 C 119.902344 720.816406 170.546875 704.746094 218.058594 681.253906 L 226.414062 677.113281 C 245.464844 667.695312 262.9375 655.5 278.339844 640.867188 L 312.421875 608.492188 L 271.375 564.984375 L 264.6875 566.417969 L 241.898438 619.769531 C 241.625 620.410156 241.007812 620.835938 240.3125 620.871094 C 239.589844 620.886719 238.972656 620.535156 238.644531 619.917969 L 226.152344 596.710938 L 187.40625 647.089844 C 187.027344 647.582031 186.425781 647.835938 185.800781 647.789062 C 185.175781 647.730469 184.632812 647.351562 184.355469 646.792969 L 178.386719 634.730469 L 142.558594 670.253906 C 142.144531 670.671875 141.542969 670.871094 140.96875 670.753906 C 140.386719 670.648438 139.894531 670.269531 139.648438 669.730469 L 135.433594 660.597656 C 127.222656 669.273438 92.285156 703.1875 33.542969 720.320312 Z M 30.136719 738.515625 C 29.71875 738.515625 29.308594 738.367188 28.980469 738.097656 L 13.417969 725.140625 C 12.902344 724.710938 12.664062 724.03125 12.804688 723.375 C 12.945312 722.71875 13.4375 722.195312 14.082031 722.015625 L 32.550781 716.851562 C 98.859375 697.507812 134.210938 656.621094 134.558594 656.210938 C 134.960938 655.738281 135.570312 655.5 136.179688 655.589844 C 136.792969 655.671875 137.320312 656.0625 137.578125 656.621094 L 141.847656 665.878906 L 177.621094 630.402344 C 178.035156 629.992188 178.621094 629.8125 179.191406 629.902344 C 179.765625 630 180.257812 630.359375 180.515625 630.886719 L 186.308594 642.597656 L 224.988281 592.300781 C 225.359375 591.820312 225.957031 591.566406 226.5625 591.609375 C 227.175781 591.65625 227.71875 592.007812 228.011719 592.550781 L 240.046875 614.910156 L 261.734375 564.140625 C 261.964844 563.597656 262.441406 563.203125 263.015625 563.082031 L 271.613281 561.238281 C 272.230469 561.097656 272.871094 561.300781 273.304688 561.761719 L 316.285156 607.320312 C 316.964844 608.050781 316.933594 609.1875 316.214844 609.867188 L 280.828125 643.484375 C 265.160156 658.371094 247.390625 670.769531 228.015625 680.351562 L 219.660156 684.484375 C 171.820312 708.148438 120.824219 724.335938 68.089844 732.597656 L 30.417969 738.5 C 30.324219 738.507812 30.230469 738.515625 30.136719 738.515625 " fill-opacity="1" fill-rule="nonzero"/><path fill="#000000" d="M 370.359375 821.558594 L 277.039062 821.558594 L 277.039062 720.582031 L 370.359375 720.582031 L 370.359375 821.558594 " fill-opacity="1" fill-rule="nonzero"/><path fill="#4ada85" d="M 153.367188 813.148438 L 202.625 799.851562 L 255.597656 758.515625 L 306.101562 792.113281 C 316.824219 799.246094 330.050781 801.566406 342.558594 798.5 L 344.714844 797.976562 C 357.34375 794.886719 367.089844 784.820312 369.773438 772.097656 L 370.449219 768.894531 C 371.78125 762.582031 380.636719 762.152344 382.5625 768.320312 L 419.21875 885.714844 L 380.03125 898.089844 C 359.246094 904.648438 337.582031 907.992188 315.785156 907.992188 L 307.046875 907.992188 C 253.917969 907.992188 201.089844 899.902344 150.394531 884.007812 L 114.007812 872.597656 L 105.804688 854.082031 L 105.804688 852.710938 C 105.804688 842.859375 110.070312 833.5 117.503906 827.039062 L 117.605469 826.949219 C 121.273438 823.769531 125.578125 821.402344 130.234375 820.019531 L 153.367188 813.148438 " fill-opacity="1" fill-rule="nonzero"/><path fill="#ffffff" d="M 277.03125 772.777344 L 255.597656 758.515625 L 202.625 799.851562 L 228.828125 799.851562 C 237.566406 799.851562 246.058594 796.9375 252.949219 791.558594 L 277.03125 772.777344 " fill-opacity="1" fill-rule="nonzero"/><path fill="#000000" d="M 207.875 798.050781 L 228.828125 798.050781 C 237.121094 798.050781 245.292969 795.238281 251.839844 790.132812 L 273.949219 772.894531 L 255.679688 760.738281 Z M 228.828125 801.65625 L 202.625 801.65625 C 201.855469 801.65625 201.171875 801.164062 200.917969 800.433594 C 200.667969 799.710938 200.90625 798.902344 201.515625 798.425781 L 254.484375 757.089844 C 255.101562 756.613281 255.949219 756.582031 256.601562 757.007812 L 278.035156 771.269531 C 278.519531 771.597656 278.820312 772.132812 278.839844 772.703125 C 278.863281 773.285156 278.601562 773.84375 278.144531 774.195312 L 254.058594 792.976562 C 246.886719 798.574219 237.925781 801.65625 228.828125 801.65625 " fill-opacity="1" fill-rule="nonzero"/><path fill="#ffffff" d="M 293.925781 844.394531 L 293.925781 860.359375 L 353.5 831.148438 L 354.5 860.269531 L 399.304688 821.941406 L 407.832031 824.097656 L 426.148438 883.984375 L 379.523438 898.425781 C 359.070312 904.769531 337.785156 907.992188 316.371094 907.992188 L 307.046875 907.992188 C 253.917969 907.992188 201.089844 899.902344 150.394531 884.007812 L 114.007812 872.597656 L 105.804688 854.082031 L 124.644531 857.640625 C 194 869.933594 244.023438 848.386719 244.023438 848.386719 L 243.679688 861.15625 L 293.925781 844.394531 " fill-opacity="1" fill-rule="nonzero"/><path fill="#000000" d="M 115.332031 871.121094 L 150.933594 882.289062 C 201.515625 898.140625 254.039062 906.179688 307.046875 906.179688 L 316.371094 906.179688 C 337.621094 906.179688 358.6875 902.992188 378.988281 896.707031 L 423.894531 882.796875 L 406.402344 825.597656 L 399.769531 823.917969 L 355.675781 861.636719 C 355.148438 862.089844 354.410156 862.207031 353.777344 861.925781 C 353.140625 861.648438 352.722656 861.023438 352.699219 860.335938 L 351.789062 834 L 294.722656 861.976562 C 294.164062 862.253906 293.496094 862.222656 292.96875 861.894531 C 292.441406 861.558594 292.121094 860.980469 292.121094 860.359375 L 292.121094 846.902344 L 244.25 862.867188 C 243.691406 863.058594 243.078125 862.953125 242.605469 862.605469 C 242.128906 862.253906 241.859375 861.691406 241.875 861.105469 L 242.144531 851.050781 C 230.945312 855.179688 184.589844 870.089844 124.328125 859.417969 L 108.847656 856.5 Z M 316.371094 909.792969 L 307.046875 909.792969 C 253.675781 909.792969 200.789062 901.695312 149.851562 885.730469 L 113.46875 874.320312 C 112.972656 874.171875 112.566406 873.800781 112.359375 873.335938 L 104.152344 854.820312 C 103.882812 854.203125 103.972656 853.492188 104.390625 852.96875 C 104.808594 852.433594 105.480469 852.179688 106.140625 852.3125 L 124.976562 855.867188 C 192.929688 867.910156 242.816406 846.941406 243.308594 846.730469 C 243.878906 846.492188 244.527344 846.546875 245.039062 846.894531 C 245.546875 847.238281 245.847656 847.820312 245.828125 848.433594 L 245.554688 858.621094 L 293.351562 842.679688 C 293.902344 842.492188 294.507812 842.589844 294.980469 842.925781 C 295.449219 843.269531 295.734375 843.8125 295.734375 844.394531 L 295.734375 857.460938 L 352.703125 829.535156 C 353.253906 829.253906 353.902344 829.289062 354.429688 829.597656 C 354.953125 829.917969 355.28125 830.476562 355.304688 831.089844 L 356.175781 856.457031 L 398.132812 820.566406 C 398.578125 820.1875 399.179688 820.050781 399.75 820.1875 L 408.273438 822.34375 C 408.886719 822.5 409.371094 822.964844 409.558594 823.566406 L 427.878906 883.460938 C 428.167969 884.410156 427.632812 885.417969 426.683594 885.703125 L 380.058594 900.15625 C 359.410156 906.546875 337.980469 909.792969 316.371094 909.792969 " fill-opacity="1" fill-rule="nonzero"/><path fill="#8c7bff" d="M 504.390625 243.847656 L 125.765625 243.847656 C 88.492188 243.847656 60.292969 277.550781 66.882812 314.222656 L 102.59375 513.125 L 226.824219 513.125 L 205.253906 372.007812 L 424.535156 372.007812 C 468.640625 372.007812 504.390625 336.253906 504.390625 292.164062 L 504.390625 243.847656 " fill-opacity="1" fill-rule="nonzero"/><path fill="#8c7bff" d="M 593.601562 299.878906 L 611.484375 229.375 L 467.898438 229.375 L 289.058594 367.328125 C 265.183594 385.734375 251.195312 414.1875 251.195312 444.332031 L 251.195312 741.089844 L 393.746094 741.089844 L 393.746094 466.109375 L 489.382812 371.433594 L 502.308594 371.355469 C 545.46875 371.082031 583 341.703125 593.601562 299.878906 " fill-opacity="1" fill-rule="nonzero"/><path fill="#000000" d="M 253.003906 740.679688 L 391.941406 740.679688 L 391.941406 466.109375 C 391.941406 465.625 392.136719 465.15625 392.476562 464.828125 L 488.113281 370.15625 C 488.445312 369.824219 488.898438 369.632812 489.371094 369.632812 L 502.300781 369.546875 C 544.625 369.292969 581.449219 340.457031 591.855469 299.441406 L 593.609375 299.882812 L 591.855469 299.441406 L 609.164062 231.1875 L 468.511719 231.1875 L 290.160156 368.757812 C 266.894531 386.695312 253.003906 414.953125 253.003906 444.335938 Z M 393.746094 744.289062 L 251.195312 744.289062 C 250.199219 744.289062 249.390625 743.480469 249.390625 742.480469 L 249.390625 444.335938 C 249.390625 413.839844 263.804688 384.527344 287.953125 365.894531 L 466.792969 227.953125 C 467.109375 227.707031 467.496094 227.574219 467.898438 227.574219 L 611.480469 227.574219 C 612.039062 227.574219 612.5625 227.832031 612.910156 228.265625 C 613.253906 228.710938 613.378906 229.28125 613.238281 229.820312 L 595.355469 300.320312 C 584.550781 342.933594 546.296875 372.890625 502.324219 373.164062 L 490.128906 373.238281 L 395.554688 466.859375 L 395.554688 742.480469 C 395.554688 743.480469 394.746094 744.289062 393.746094 744.289062 " fill-opacity="1" fill-rule="nonzero"/><path fill="#fda4ff" d="M 360.21875 157.402344 L 310.472656 140.730469 C 303.488281 138.390625 295.777344 140.328125 290.734375 145.699219 L 279.1875 157.976562 C 276.257812 161.089844 274.035156 164.800781 272.675781 168.855469 L 269.539062 178.210938 C 268.199219 182.21875 270.355469 186.542969 274.355469 187.878906 L 275.359375 188.21875 C 279.359375 189.554688 283.6875 187.40625 285.027344 183.402344 L 287.078125 177.300781 C 288.40625 173.332031 290.574219 169.710938 293.433594 166.667969 L 299.425781 160.292969 C 302.054688 157.492188 306.070312 156.488281 309.710938 157.703125 L 355.03125 172.890625 L 360.21875 157.402344 " fill-opacity="1" fill-rule="nonzero"/><path fill="#fda4ff" d="M 342.839844 164.449219 L 314.046875 154.800781 C 307.0625 152.460938 299.355469 154.398438 294.308594 159.765625 L 282.761719 172.042969 C 279.832031 175.160156 277.613281 178.871094 276.25 182.921875 L 273.117188 192.285156 C 271.773438 196.285156 273.929688 200.605469 277.929688 201.949219 L 278.933594 202.289062 C 282.933594 203.632812 287.261719 201.472656 288.605469 197.46875 L 290.648438 191.363281 C 291.980469 187.402344 294.148438 183.777344 297.011719 180.730469 L 303 174.363281 C 305.628906 171.566406 309.644531 170.550781 313.285156 171.777344 L 337.648438 179.9375 L 342.839844 164.449219 " fill-opacity="1" fill-rule="nonzero"/><path fill="#fda4ff" d="M 347.664062 177.082031 L 318.867188 167.425781 C 311.882812 165.082031 304.175781 167.019531 299.132812 172.394531 L 287.585938 184.667969 C 284.65625 187.785156 282.433594 191.5 281.074219 195.554688 L 277.9375 204.910156 C 276.597656 208.90625 278.753906 213.234375 282.753906 214.574219 L 283.757812 214.910156 C 287.753906 216.253906 292.085938 214.101562 293.425781 210.101562 L 295.472656 203.988281 C 296.800781 200.03125 298.972656 196.40625 301.832031 193.355469 L 307.824219 186.988281 C 310.453125 184.191406 314.46875 183.183594 318.109375 184.402344 L 342.472656 192.566406 L 347.664062 177.082031 " fill-opacity="1" fill-rule="nonzero"/><path fill="#fda4ff" d="M 418.027344 195.289062 L 418.027344 150.363281 L 341.78125 150.445312 L 322.0625 144.363281 L 309.566406 181.648438 L 337.027344 190.847656 L 336.484375 191.480469 C 334.210938 194.089844 330.917969 195.589844 327.457031 195.589844 L 312.070312 195.589844 C 307.964844 195.589844 304.636719 198.921875 304.636719 203.023438 L 304.636719 203.53125 C 304.636719 207.621094 307.941406 210.945312 312.03125 210.964844 C 318.777344 210.992188 331.953125 211.011719 333.519531 210.921875 C 334.359375 210.875 335.195312 210.761719 336.027344 210.609375 L 418.027344 195.289062 " fill-opacity="1" fill-rule="nonzero"/><path fill="#fda4ff" d="M 336.027344 210.597656 C 338.515625 210.132812 340.917969 209.191406 343.105469 207.800781 L 363.253906 195.28125 L 418.027344 195.28125 L 336.027344 210.597656 " fill-opacity="1" fill-rule="nonzero"/><path fill="#000000" d="M 286.191406 217.128906 C 285.179688 217.128906 284.167969 216.960938 283.183594 216.636719 L 282.175781 216.300781 C 279.785156 215.488281 277.847656 213.804688 276.726562 211.550781 C 275.597656 209.289062 275.421875 206.730469 276.222656 204.347656 L 279.359375 194.984375 C 280.8125 190.652344 283.136719 186.769531 286.269531 183.4375 L 297.816406 171.15625 C 303.324219 165.296875 311.816406 163.164062 319.441406 165.722656 L 324.078125 167.273438 C 325.019531 167.589844 325.53125 168.609375 325.214844 169.558594 C 324.894531 170.507812 323.875 171.019531 322.925781 170.695312 L 318.292969 169.144531 C 312 167.035156 304.996094 168.796875 300.445312 173.628906 L 288.898438 185.910156 C 286.128906 188.855469 284.070312 192.296875 282.785156 196.132812 L 279.648438 205.496094 C 279.152344 206.96875 279.261719 208.550781 279.957031 209.941406 C 280.652344 211.335938 281.847656 212.375 283.324219 212.867188 L 284.328125 213.203125 C 285.808594 213.699219 287.386719 213.59375 288.785156 212.898438 C 290.175781 212.207031 291.21875 211.011719 291.710938 209.539062 L 293.761719 203.417969 C 295.160156 199.234375 297.496094 195.339844 300.515625 192.125 L 306.503906 185.761719 C 309.605469 182.460938 314.386719 181.253906 318.679688 182.695312 L 336.71875 188.734375 C 337.660156 189.054688 338.171875 190.082031 337.855469 191.019531 C 337.535156 191.96875 336.515625 192.472656 335.566406 192.160156 L 317.535156 186.117188 C 314.570312 185.128906 311.277344 185.960938 309.136719 188.234375 L 303.148438 194.597656 C 300.484375 197.433594 298.421875 200.878906 297.183594 204.566406 L 295.136719 210.683594 C 294.332031 213.066406 292.648438 215.003906 290.390625 216.132812 C 289.066406 216.792969 287.632812 217.128906 286.191406 217.128906 " fill-opacity="1" fill-rule="nonzero"/><path fill="#000000" d="M 278.59375 203.96875 C 278.402344 203.96875 278.210938 203.9375 278.019531 203.878906 L 277.355469 203.660156 C 274.96875 202.851562 273.03125 201.167969 271.90625 198.914062 C 270.78125 196.652344 270.605469 194.09375 271.40625 191.699219 L 274.542969 182.34375 C 275.972656 178.070312 278.363281 174.074219 281.449219 170.800781 L 292.996094 158.523438 C 298.507812 152.65625 306.996094 150.523438 314.625 153.082031 L 323.132812 155.933594 C 324.078125 156.25 324.585938 157.269531 324.269531 158.210938 C 323.953125 159.171875 322.933594 159.679688 321.984375 159.359375 L 313.476562 156.5 C 307.183594 154.398438 300.175781 156.152344 295.628906 160.996094 L 284.082031 173.269531 C 281.351562 176.179688 279.234375 179.714844 277.96875 183.492188 L 274.832031 192.847656 C 274.335938 194.324219 274.445312 195.90625 275.140625 197.300781 C 275.835938 198.695312 277.03125 199.730469 278.507812 200.230469 L 279.167969 200.453125 C 280.117188 200.769531 280.621094 201.796875 280.308594 202.742188 C 280.054688 203.5 279.347656 203.96875 278.59375 203.96875 " fill-opacity="1" fill-rule="nonzero"/><path fill="#000000" d="M 324.890625 212.875 C 322.972656 212.875 320.914062 212.847656 318.699219 212.816406 C 316.628906 212.792969 314.414062 212.765625 312.027344 212.757812 C 306.953125 212.734375 302.832031 208.59375 302.832031 203.519531 L 302.832031 203.015625 C 302.832031 197.921875 306.976562 193.78125 312.070312 193.78125 L 327.457031 193.78125 C 330.398438 193.78125 333.195312 192.503906 335.121094 190.28125 L 335.667969 189.660156 C 336.320312 188.90625 337.464844 188.816406 338.210938 189.480469 C 338.96875 190.132812 339.046875 191.277344 338.394531 192.019531 L 337.851562 192.65625 C 335.230469 195.660156 331.445312 197.390625 327.457031 197.390625 L 312.070312 197.390625 C 308.96875 197.390625 306.445312 199.910156 306.445312 203.015625 L 306.445312 203.519531 C 306.445312 206.613281 308.957031 209.136719 312.039062 209.148438 C 314.441406 209.15625 316.664062 209.1875 318.742188 209.207031 C 330.648438 209.359375 337.199219 209.429688 342.132812 206.28125 L 362.300781 193.75 C 362.589844 193.570312 362.917969 193.480469 363.253906 193.480469 L 416.222656 193.480469 L 416.222656 152.304688 L 342.355469 152.234375 C 342.179688 152.234375 342.003906 152.214844 341.835938 152.164062 L 309.941406 142.464844 C 303.597656 140.335938 296.59375 142.105469 292.046875 146.9375 L 280.5 159.207031 C 277.730469 162.164062 275.675781 165.601562 274.386719 169.441406 L 271.25 178.796875 C 270.226562 181.84375 271.875 185.160156 274.925781 186.175781 C 275.871094 186.496094 276.378906 187.519531 276.0625 188.464844 C 275.75 189.410156 274.722656 189.921875 273.777344 189.601562 C 268.839844 187.941406 266.167969 182.585938 267.820312 177.652344 L 270.960938 168.296875 C 272.414062 163.953125 274.738281 160.074219 277.867188 156.738281 L 289.417969 144.46875 C 294.925781 138.597656 303.414062 136.464844 311.042969 139.03125 L 342.628906 148.625 L 418.027344 148.695312 C 419.027344 148.695312 419.835938 149.511719 419.835938 150.507812 L 419.835938 195.277344 C 419.835938 196.28125 419.027344 197.085938 418.027344 197.085938 L 363.769531 197.085938 L 344.0625 209.339844 C 339.296875 212.371094 333.503906 212.875 324.890625 212.875 " fill-opacity="1" fill-rule="nonzero"/><path fill="#fed101" d="M 507.089844 89.011719 L 464.824219 136.675781 C 459.121094 143.097656 450.933594 146.789062 442.335938 146.789062 L 370.957031 146.789062 L 370.957031 207.578125 L 460.273438 207.539062 C 473.679688 207.527344 486.445312 201.757812 495.300781 191.699219 L 564.113281 113.570312 L 533.726562 87.253906 C 525.867188 80.445312 513.992188 81.222656 507.089844 89.011719 " fill-opacity="1" fill-rule="nonzero"/><path fill="#fed101" d="M 622.914062 257.546875 L 449.765625 257.546875 L 450.351562 236.796875 L 491.078125 236.796875 L 496.78125 116.550781 C 498.113281 92.941406 515.402344 74.96875 538.375 74.96875 L 590.011719 74.96875 L 622.914062 257.546875 " fill-opacity="1" fill-rule="nonzero"/><path fill="#000000" d="M 309.570312 239.757812 L 133.011719 239.757812 L 49.980469 97.558594 L 226.535156 97.558594 L 309.570312 239.757812 " fill-opacity="1" fill-rule="nonzero"/><path fill="#000000" d="M 133.015625 257.714844 L 450.460938 257.714844 L 450.460938 239.757812 L 133.015625 239.757812 L 133.015625 257.714844 " fill-opacity="1" fill-rule="nonzero"/><path fill="#ffffff" d="M 166.535156 173.488281 C 164.675781 166.707031 168.394531 159.789062 174.839844 158.019531 C 181.285156 156.253906 188.019531 160.316406 189.871094 167.09375 C 191.734375 173.867188 188.015625 180.796875 181.566406 182.566406 C 175.121094 184.332031 168.394531 180.261719 166.535156 173.488281 " fill-opacity="1" fill-rule="nonzero"/><path fill="#fda4ff" d="M 473.820312 190.714844 L 407.847656 190.6875 L 407.847656 244.625 L 473.820312 244.644531 L 473.820312 190.714844 " fill-opacity="1" fill-rule="nonzero"/><path fill="#fda4ff" d="M 348.617188 207.453125 L 342.765625 213.785156 C 339.804688 216.972656 339.507812 221.8125 342.054688 225.339844 L 347.800781 233.320312 L 361.734375 217.773438 L 449.28125 217.773438 L 449.28125 199.460938 L 366.914062 199.460938 C 359.96875 199.460938 353.335938 202.363281 348.617188 207.453125 " fill-opacity="1" fill-rule="nonzero"/><path fill="#fda4ff" d="M 351.316406 196.03125 L 348.007812 199.601562 C 345.046875 202.796875 344.75 207.632812 347.296875 211.164062 L 353.042969 219.148438 L 366.980469 203.597656 L 449.285156 203.597656 L 449.285156 190.863281 L 435.3125 190.863281 C 429.535156 190.863281 419.230469 185.289062 406.1875 185.289062 L 375.902344 185.289062 C 366.570312 185.289062 357.65625 189.179688 351.316406 196.03125 " fill-opacity="1" fill-rule="nonzero"/><path fill="#000000" d="M 342.054688 227.144531 C 341.492188 227.144531 340.9375 226.886719 340.585938 226.402344 C 337.554688 222.183594 337.910156 216.367188 341.4375 212.558594 L 347.289062 206.230469 C 352.335938 200.785156 359.488281 197.660156 366.910156 197.660156 L 383.027344 197.660156 C 384.023438 197.660156 384.832031 198.464844 384.832031 199.46875 C 384.832031 200.464844 384.023438 201.269531 383.027344 201.269531 L 366.910156 201.269531 C 360.492188 201.269531 354.304688 203.976562 349.941406 208.6875 L 344.085938 215.003906 C 341.722656 217.558594 341.484375 221.46875 343.515625 224.292969 C 344.101562 225.097656 343.917969 226.226562 343.105469 226.808594 C 342.785156 227.039062 342.417969 227.144531 342.054688 227.144531 " fill-opacity="1" fill-rule="nonzero"/><path fill="#fda4ff" d="M 346.570312 219.769531 L 339.546875 227.359375 C 336.589844 230.546875 336.292969 235.386719 338.835938 238.921875 L 344.585938 246.902344 L 358.519531 231.351562 L 412.757812 231.351562 L 412.757812 213.039062 L 361.984375 213.039062 C 356.132812 213.039062 350.546875 215.480469 346.570312 219.769531 " fill-opacity="1" fill-rule="nonzero"/><path fill="#000000" d="M 341.078125 243.820312 C 340.519531 243.820312 339.964844 243.5625 339.613281 243.070312 L 337.375 239.964844 C 334.339844 235.753906 334.695312 229.929688 338.222656 226.125 L 345.25 218.527344 C 349.550781 213.886719 355.652344 211.21875 361.984375 211.21875 L 383.179688 211.21875 C 384.175781 211.21875 384.988281 212.027344 384.988281 213.023438 C 384.988281 214.019531 384.175781 214.835938 383.179688 214.835938 L 361.984375 214.835938 C 356.652344 214.835938 351.519531 217.070312 347.898438 220.984375 L 340.875 228.570312 C 338.511719 231.132812 338.269531 235.035156 340.308594 237.855469 L 342.542969 240.960938 C 343.125 241.769531 342.941406 242.898438 342.132812 243.484375 C 341.816406 243.714844 341.445312 243.820312 341.078125 243.820312 " fill-opacity="1" fill-rule="nonzero"/><path fill="#fda4ff" d="M 349.140625 233.105469 L 341.8125 241.019531 C 339.097656 243.953125 338.824219 248.398438 341.160156 251.636719 C 344.296875 255.988281 350.660156 256.328125 354.238281 252.332031 L 358.214844 247.894531 C 360.117188 245.777344 362.828125 244.570312 365.675781 244.570312 L 411.21875 244.570312 C 423.128906 244.570312 431.507812 243.886719 442.980469 226.234375 L 364.828125 226.246094 C 358.871094 226.246094 353.183594 228.738281 349.140625 233.105469 " fill-opacity="1" fill-rule="nonzero"/><path fill="#000000" d="M 347.992188 256.941406 C 347.808594 256.941406 347.621094 256.933594 347.4375 256.921875 C 344.332031 256.753906 341.511719 255.210938 339.695312 252.691406 C 336.863281 248.773438 337.199219 243.34375 340.488281 239.796875 L 347.8125 231.875 C 352.1875 227.15625 358.386719 224.445312 364.828125 224.445312 L 382.464844 224.445312 C 383.460938 224.445312 384.269531 225.257812 384.269531 226.253906 C 384.269531 227.25 383.460938 228.0625 382.464844 228.0625 L 364.828125 228.0625 C 359.390625 228.0625 354.15625 230.34375 350.464844 234.335938 L 343.136719 242.25 C 341.011719 244.539062 340.796875 248.050781 342.625 250.578125 C 343.796875 252.214844 345.625 253.203125 347.628906 253.320312 C 349.640625 253.421875 351.550781 252.625 352.894531 251.132812 L 356.871094 246.699219 C 359.109375 244.199219 362.320312 242.765625 365.675781 242.765625 L 416.046875 242.765625 C 424.214844 242.765625 431.828125 238.71875 436.417969 231.960938 C 436.984375 231.132812 438.101562 230.921875 438.929688 231.472656 C 439.753906 232.035156 439.96875 233.160156 439.410156 233.984375 C 434.144531 241.746094 425.410156 246.375 416.046875 246.375 L 365.675781 246.375 C 363.347656 246.375 361.113281 247.363281 359.558594 249.105469 L 355.585938 253.539062 C 353.632812 255.714844 350.890625 256.933594 347.992188 256.941406 " fill-opacity="1" fill-rule="nonzero"/><path fill="#000000" d="M 473.824219 246.453125 L 398.664062 246.453125 C 397.664062 246.453125 396.855469 245.640625 396.855469 244.648438 C 396.855469 243.640625 397.664062 242.839844 398.664062 242.839844 L 472.011719 242.839844 L 472.011719 192.511719 L 437.929688 192.511719 C 432.414062 192.511719 428.144531 191.332031 423.621094 190.082031 C 418.285156 188.617188 412.765625 187.09375 404.167969 187.09375 L 375.898438 187.09375 C 367.097656 187.09375 358.621094 190.792969 352.640625 197.257812 L 349.328125 200.839844 C 347.285156 203.046875 346.792969 206.226562 348.070312 208.941406 C 348.492188 209.839844 348.105469 210.910156 347.203125 211.339844 C 346.304688 211.761719 345.222656 211.382812 344.800781 210.472656 C 342.890625 206.421875 343.632812 201.667969 346.675781 198.378906 L 349.992188 194.804688 C 356.652344 187.613281 366.09375 183.480469 375.898438 183.480469 L 404.167969 183.480469 C 413.253906 183.480469 419.273438 185.144531 424.582031 186.605469 C 429.046875 187.835938 432.90625 188.898438 437.929688 188.898438 L 473.824219 188.898438 C 474.820312 188.898438 475.625 189.710938 475.625 190.703125 L 475.625 244.648438 C 475.625 245.640625 474.820312 246.453125 473.824219 246.453125 " fill-opacity="1" fill-rule="nonzero"/><path fill="#fed101" d="M 593.433594 74.96875 L 589.378906 74.96875 L 563.695312 176.269531 C 562.03125 182.847656 556.101562 187.445312 549.316406 187.445312 L 455.824219 187.371094 L 455.773438 252 L 566.53125 252.09375 C 592.667969 252.113281 615.480469 234.386719 621.90625 209.0625 L 640.566406 135.550781 C 648.375 104.820312 625.144531 74.96875 593.433594 74.96875 " fill-opacity="1" fill-rule="nonzero"/><path fill="#000000" d="M 566.582031 253.902344 C 566.566406 253.902344 566.546875 253.902344 566.53125 253.902344 L 455.769531 253.808594 C 454.773438 253.808594 453.964844 253.003906 453.964844 252 L 454.015625 187.367188 C 454.015625 186.886719 454.210938 186.425781 454.550781 186.09375 C 454.886719 185.761719 455.34375 185.5625 455.824219 185.5625 C 455.824219 185.5625 455.824219 185.5625 455.828125 185.5625 L 549.320312 185.644531 C 549.320312 185.644531 549.320312 185.644531 549.328125 185.644531 C 555.292969 185.644531 560.480469 181.605469 561.945312 175.824219 L 574.613281 125.855469 C 574.859375 124.882812 575.84375 124.3125 576.8125 124.542969 C 577.78125 124.792969 578.359375 125.773438 578.113281 126.742188 L 565.445312 176.710938 C 563.570312 184.101562 556.945312 189.257812 549.328125 189.257812 C 549.320312 189.257812 549.320312 189.257812 549.3125 189.257812 L 457.628906 189.183594 L 457.578125 250.195312 L 566.539062 250.292969 C 566.546875 250.292969 566.566406 250.292969 566.582031 250.292969 C 591.898438 250.292969 613.925781 233.160156 620.15625 208.621094 L 638.820312 135.105469 C 642.394531 121 639.328125 106.328125 630.390625 94.84375 C 621.453125 83.363281 607.984375 76.777344 593.433594 76.777344 L 585.691406 76.777344 C 584.699219 76.777344 583.886719 75.972656 583.886719 74.972656 C 583.886719 73.96875 584.699219 73.164062 585.691406 73.164062 L 593.433594 73.164062 C 609.105469 73.164062 623.617188 80.261719 633.242188 92.632812 C 642.867188 105 646.171875 120.804688 642.320312 135.992188 L 623.660156 209.507812 C 617.019531 235.65625 593.554688 253.902344 566.582031 253.902344 " fill-opacity="1" fill-rule="nonzero"/><path fill="#4ada85" d="M 1320.570312 988.804688 C 1320.464844 988.804688 1320.355469 988.804688 1320.246094 988.804688 C 1280.0625 988.980469 1247.480469 1021.933594 1247.601562 1062.261719 C 1247.675781 1081.851562 1255.339844 1100.222656 1269.203125 1113.980469 C 1283.011719 1127.671875 1301.363281 1135.171875 1320.703125 1135.074219 C 1360.875 1134.894531 1393.457031 1101.945312 1393.335938 1061.613281 C 1393.273438 1042.023438 1385.597656 1023.65625 1371.734375 1009.894531 C 1358.011719 996.285156 1339.851562 988.804688 1320.570312 988.804688 Z M 1320.355469 1138.6875 C 1300.113281 1138.6875 1281.070312 1130.835938 1266.667969 1116.550781 C 1252.101562 1102.105469 1244.058594 1082.828125 1243.996094 1062.277344 C 1243.863281 1019.960938 1278.066406 985.382812 1320.226562 985.195312 C 1320.347656 985.195312 1320.464844 985.195312 1320.570312 985.195312 C 1340.828125 985.195312 1359.878906 993.046875 1374.273438 1007.335938 C 1388.824219 1021.777344 1396.878906 1041.050781 1396.945312 1061.605469 C 1397.074219 1103.917969 1362.882812 1138.5 1320.710938 1138.6875 C 1320.59375 1138.6875 1320.472656 1138.6875 1320.355469 1138.6875 Z M 1253.429688 1170.074219 C 1253.765625 1170.074219 1254.089844 1170.160156 1254.382812 1170.34375 C 1265.941406 1177.449219 1278.488281 1182.609375 1291.667969 1185.671875 C 1292.480469 1185.859375 1293.0625 1186.582031 1293.0625 1187.425781 L 1293.160156 1222.65625 L 1348.773438 1222.410156 L 1348.664062 1187.171875 C 1348.664062 1186.335938 1349.222656 1185.605469 1350.042969 1185.410156 C 1363.195312 1182.234375 1375.707031 1176.964844 1387.226562 1169.753906 C 1387.941406 1169.3125 1388.871094 1169.417969 1389.460938 1170.007812 L 1414.367188 1194.8125 L 1453.570312 1155.171875 L 1428.664062 1130.351562 C 1428.058594 1129.769531 1427.953125 1128.84375 1428.382812 1128.136719 C 1435.488281 1116.515625 1440.648438 1103.917969 1443.710938 1090.695312 C 1443.898438 1089.875 1444.621094 1089.300781 1445.464844 1089.296875 L 1480.5625 1089.140625 L 1480.386719 1033.320312 L 1445.289062 1033.476562 C 1444.535156 1033.523438 1443.722656 1032.910156 1443.527344 1032.089844 C 1440.378906 1018.894531 1435.140625 1006.34375 1427.984375 994.789062 C 1427.527344 994.082031 1427.636719 993.164062 1428.21875 992.566406 L 1452.988281 967.523438 L 1413.535156 928.238281 L 1388.792969 953.269531 C 1388.210938 953.863281 1387.28125 953.976562 1386.558594 953.53125 C 1374.996094 946.425781 1362.449219 941.273438 1349.277344 938.214844 C 1348.46875 938.015625 1347.886719 937.296875 1347.886719 936.460938 L 1347.777344 901.21875 L 1292.179688 901.464844 L 1292.273438 936.707031 C 1292.273438 937.542969 1291.714844 938.273438 1290.902344 938.46875 C 1277.746094 941.644531 1265.230469 946.910156 1253.710938 954.125 C 1252.996094 954.570312 1252.070312 954.464844 1251.484375 953.878906 L 1226.578125 929.066406 L 1187.378906 968.707031 L 1212.285156 993.527344 C 1212.878906 994.113281 1212.988281 995.03125 1212.554688 995.746094 C 1205.449219 1007.359375 1200.300781 1019.960938 1197.234375 1033.1875 C 1197.039062 1034 1196.316406 1034.582031 1195.472656 1034.582031 L 1160.375 1034.738281 L 1160.550781 1090.558594 L 1195.648438 1090.402344 L 1195.660156 1090.402344 C 1196.488281 1090.402344 1197.222656 1090.972656 1197.410156 1091.789062 C 1200.570312 1104.992188 1205.796875 1117.539062 1212.964844 1129.089844 C 1213.410156 1129.800781 1213.300781 1130.722656 1212.71875 1131.3125 L 1187.960938 1156.351562 L 1227.390625 1195.640625 L 1252.15625 1170.613281 C 1252.5 1170.261719 1252.964844 1170.074219 1253.429688 1170.074219 Z M 1291.367188 1226.277344 C 1290.890625 1226.277344 1290.4375 1226.089844 1290.09375 1225.753906 C 1289.761719 1225.417969 1289.566406 1224.957031 1289.550781 1224.476562 L 1289.445312 1188.851562 C 1276.878906 1185.785156 1264.863281 1180.851562 1253.710938 1174.164062 L 1228.6875 1199.476562 C 1228.351562 1199.820312 1227.875 1200 1227.410156 1200.007812 C 1226.925781 1200.007812 1226.472656 1199.820312 1226.136719 1199.484375 L 1184.128906 1157.640625 C 1183.425781 1156.941406 1183.425781 1155.800781 1184.117188 1155.089844 L 1209.152344 1129.777344 C 1202.40625 1118.648438 1197.394531 1106.632812 1194.234375 1094.023438 L 1158.757812 1094.179688 C 1158.226562 1094.203125 1157.816406 1093.988281 1157.472656 1093.65625 C 1157.125 1093.3125 1156.945312 1092.859375 1156.945312 1092.375 L 1156.761719 1032.949219 C 1156.75 1031.949219 1157.558594 1031.136719 1158.550781 1031.136719 L 1194.039062 1030.972656 C 1197.117188 1018.34375 1202.0625 1006.277344 1208.734375 995.082031 L 1183.542969 969.992188 C 1182.84375 969.292969 1182.84375 968.15625 1183.535156 967.449219 L 1225.285156 925.238281 C 1225.617188 924.902344 1226.105469 924.761719 1226.570312 924.707031 C 1227.042969 924.707031 1227.496094 924.894531 1227.84375 925.230469 L 1253.019531 950.308594 C 1264.128906 943.527344 1276.101562 938.484375 1288.667969 935.304688 L 1288.550781 899.679688 C 1288.550781 898.679688 1289.347656 897.867188 1290.351562 897.867188 L 1349.558594 897.605469 C 1350.109375 897.589844 1350.507812 897.789062 1350.84375 898.125 C 1351.191406 898.464844 1351.371094 898.925781 1351.371094 899.402344 L 1351.492188 935.023438 C 1364.082031 938.097656 1376.074219 943.03125 1387.226562 949.710938 L 1412.253906 924.410156 C 1412.589844 924.066406 1413.054688 923.875 1413.527344 923.875 C 1414.011719 923.875 1414.476562 924.066406 1414.8125 924.402344 L 1456.808594 966.238281 C 1457.523438 966.941406 1457.523438 968.082031 1456.820312 968.785156 L 1431.792969 994.097656 C 1438.542969 1005.238281 1443.550781 1017.253906 1446.703125 1029.859375 L 1482.191406 1029.703125 C 1482.679688 1029.703125 1483.128906 1029.890625 1483.464844 1030.230469 C 1483.800781 1030.566406 1484.003906 1031.023438 1484.003906 1031.5 L 1484.1875 1090.933594 C 1484.1875 1091.925781 1483.390625 1092.738281 1482.386719 1092.746094 L 1446.898438 1092.902344 C 1443.820312 1105.53125 1438.875 1117.597656 1432.203125 1128.792969 L 1457.394531 1153.882812 C 1458.105469 1154.589844 1458.105469 1155.726562 1457.402344 1156.4375 L 1415.667969 1198.640625 C 1415.328125 1198.980469 1414.867188 1199.179688 1414.378906 1199.179688 C 1413.960938 1199.117188 1413.441406 1198.992188 1413.105469 1198.648438 L 1387.929688 1173.570312 C 1376.832031 1180.351562 1364.835938 1185.394531 1352.28125 1188.582031 L 1352.386719 1224.207031 C 1352.386719 1225.203125 1351.585938 1226.015625 1350.585938 1226.015625 L 1291.378906 1226.277344 C 1291.367188 1226.277344 1291.367188 1226.277344 1291.367188 1226.277344 " fill-opacity="1" fill-rule="nonzero"/><path fill="#fed101" d="M 1258.335938 1363.328125 C 1235.8125 1363.429688 1217.511719 1345.191406 1217.441406 1322.582031 C 1217.371094 1299.984375 1235.566406 1281.574219 1258.085938 1281.476562 C 1280.605469 1281.378906 1298.921875 1299.625 1298.992188 1322.222656 C 1299.0625 1344.828125 1280.855469 1363.230469 1258.335938 1363.328125 Z M 1346.632812 1338.238281 L 1346.535156 1305.789062 L 1326.378906 1305.878906 C 1324.609375 1298.460938 1321.671875 1291.503906 1317.761719 1285.214844 L 1331.972656 1270.835938 L 1309.042969 1247.992188 L 1294.820312 1262.363281 C 1288.53125 1258.496094 1281.574219 1255.589844 1274.171875 1253.871094 L 1274.109375 1233.640625 L 1241.773438 1233.789062 L 1241.835938 1254.019531 C 1234.441406 1255.804688 1227.503906 1258.761719 1221.234375 1262.6875 L 1206.929688 1248.445312 L 1184.132812 1271.492188 L 1198.445312 1285.738281 C 1194.570312 1292.066406 1191.675781 1299.050781 1189.953125 1306.476562 L 1169.789062 1306.566406 L 1169.898438 1339.027344 L 1190.050781 1338.933594 C 1191.824219 1346.351562 1194.769531 1353.304688 1198.671875 1359.597656 L 1184.449219 1373.96875 L 1207.386719 1396.820312 L 1221.613281 1382.445312 C 1227.910156 1386.3125 1234.859375 1389.210938 1242.253906 1390.933594 L 1242.324219 1411.164062 L 1274.65625 1411.027344 L 1274.597656 1390.792969 C 1281.980469 1389.007812 1288.917969 1386.042969 1295.1875 1382.113281 L 1309.5 1396.367188 L 1332.292969 1373.3125 L 1317.988281 1359.066406 C 1321.851562 1352.746094 1324.753906 1345.765625 1326.480469 1338.328125 L 1346.632812 1338.238281 " fill-opacity="1" fill-rule="nonzero"/><path fill="#ffffff" d="M 393.746094 612.65625 C 393.558594 612.65625 393.363281 612.632812 393.171875 612.5625 C 376.871094 607.089844 365.878906 591.984375 365.828125 574.972656 C 365.773438 557.539062 377.03125 542.214844 393.835938 536.851562 C 394.785156 536.539062 395.804688 537.066406 396.105469 538.015625 C 396.410156 538.964844 395.886719 539.984375 394.933594 540.285156 C 379.640625 545.171875 369.394531 559.105469 369.441406 574.96875 C 369.488281 590.425781 379.488281 604.15625 394.324219 609.136719 C 395.269531 609.457031 395.777344 610.484375 395.460938 611.425781 C 395.207031 612.179688 394.503906 612.65625 393.746094 612.65625 Z M 391.191406 659.179688 C 390.199219 659.179688 389.390625 658.375 389.386719 657.386719 L 389.332031 639.984375 C 383.199219 638.449219 377.335938 636.074219 371.863281 632.925781 L 359.394531 645.3125 C 358.695312 646.007812 357.5625 646.015625 356.855469 645.320312 L 335.136719 624.066406 C 334.792969 623.730469 334.597656 623.269531 334.59375 622.789062 C 334.59375 622.304688 334.785156 621.835938 335.128906 621.5 L 347.574219 609.132812 C 344.34375 603.761719 341.902344 598.015625 340.300781 591.992188 L 322.628906 592.070312 C 322.625 592.070312 322.621094 592.070312 322.621094 592.070312 C 322.144531 592.070312 321.6875 591.886719 321.347656 591.550781 C 321.007812 591.214844 320.816406 590.753906 320.8125 590.269531 L 320.71875 560.074219 C 320.71875 559.082031 321.523438 558.261719 322.519531 558.261719 L 340.195312 558.1875 C 341.757812 552.148438 344.167969 546.375 347.363281 540.972656 L 334.84375 528.730469 C 334.496094 528.382812 334.300781 527.925781 334.300781 527.441406 C 334.300781 526.960938 334.492188 526.5 334.835938 526.15625 L 356.417969 504.714844 C 357.121094 504.007812 358.25 504.007812 358.957031 504.695312 L 371.5 516.976562 C 376.957031 513.769531 382.804688 511.355469 388.929688 509.761719 L 388.875 492.359375 C 388.875 491.363281 389.679688 490.546875 390.675781 490.546875 L 393.742188 490.53125 C 393.742188 490.53125 393.746094 490.53125 393.75 490.53125 C 394.742188 490.53125 395.550781 491.335938 395.554688 492.328125 C 395.558594 493.328125 394.753906 494.140625 393.757812 494.140625 L 392.496094 494.148438 L 392.550781 511.164062 C 392.550781 512.007812 391.976562 512.738281 391.160156 512.925781 C 384.445312 514.523438 378.058594 517.164062 372.179688 520.78125 C 371.476562 521.210938 370.5625 521.117188 369.96875 520.535156 L 357.703125 508.523438 L 338.679688 527.425781 L 350.910156 539.402344 C 351.519531 539.992188 351.628906 540.925781 351.183594 541.644531 C 347.5625 547.46875 344.933594 553.777344 343.367188 560.402344 C 343.179688 561.210938 342.457031 561.785156 341.621094 561.796875 L 324.339844 561.871094 L 324.421875 588.449219 L 341.699219 588.378906 C 341.699219 588.378906 341.699219 588.378906 341.707031 588.378906 C 342.539062 588.378906 343.261719 588.945312 343.460938 589.753906 C 345.066406 596.359375 347.730469 602.648438 351.386719 608.441406 C 351.839844 609.15625 351.734375 610.089844 351.136719 610.6875 L 338.976562 622.769531 L 358.109375 641.5 L 370.304688 629.375 C 370.894531 628.792969 371.804688 628.679688 372.511719 629.113281 C 378.414062 632.679688 384.8125 635.261719 391.535156 636.796875 C 392.355469 636.984375 392.9375 637.714844 392.941406 638.554688 L 392.996094 657.378906 C 393 658.371094 392.195312 659.179688 391.199219 659.179688 C 391.199219 659.179688 391.195312 659.179688 391.191406 659.179688 " fill-opacity="1" fill-rule="nonzero"/><path fill="#000000" d="M 905.929688 99.851562 C 893.730469 99.90625 883.8125 90.207031 883.78125 78.179688 C 883.734375 66.15625 893.589844 56.367188 905.789062 56.3125 C 917.976562 56.257812 927.898438 65.964844 927.929688 77.988281 C 927.96875 90.011719 918.117188 99.800781 905.929688 99.851562 Z M 953.726562 86.503906 L 953.660156 69.238281 L 942.761719 69.292969 C 941.804688 65.34375 940.214844 61.640625 938.09375 58.292969 L 945.785156 50.644531 L 933.375 38.492188 L 925.679688 46.140625 C 922.269531 44.085938 918.503906 42.535156 914.5 41.628906 L 914.457031 30.867188 L 896.960938 30.9375 L 896.996094 41.699219 C 892.992188 42.652344 889.238281 44.226562 885.84375 46.320312 L 878.09375 38.738281 L 865.75 51.007812 L 873.496094 58.582031 C 871.398438 61.941406 869.835938 65.664062 868.902344 69.609375 L 857.992188 69.664062 L 858.035156 86.929688 L 868.949219 86.878906 C 869.914062 90.824219 871.503906 94.523438 873.613281 97.863281 L 865.917969 105.511719 L 878.34375 117.664062 L 886.039062 110.027344 C 889.449219 112.082031 893.207031 113.621094 897.210938 114.542969 L 897.242188 125.304688 L 914.757812 125.21875 L 914.722656 114.457031 C 918.726562 113.503906 922.480469 111.929688 925.875 109.84375 L 933.625 117.417969 L 945.960938 105.160156 L 938.222656 97.585938 C 940.308594 94.21875 941.882812 90.503906 942.816406 86.546875 L 953.726562 86.503906 " fill-opacity="1" fill-rule="nonzero"/></svg>