<svg xmlns="http://www.w3.org/2000/svg" xmlns:xlink="http://www.w3.org/1999/xlink" width="2000" zoomAndPan="magnify" viewBox="0 0 1500 1499.999933" height="2000" preserveAspectRatio="xMidYMid meet" version="1.0"><path fill="#402037" d="M 985.503906 597.453125 C 983.042969 592.496094 976.085938 592.363281 973.441406 597.222656 L 936.390625 665.273438 C 940.507812 677.226562 941.210938 691.425781 940.675781 699.953125 C 940.632812 700.585938 941.140625 701.660156 942.378906 702.285156 C 948.660156 705.445312 953.308594 711.976562 956.15625 718.109375 C 957.613281 721.238281 958.675781 724.429688 959.28125 727.3125 C 959.859375 730.089844 960.085938 732.960938 959.515625 735.261719 C 959.050781 737.132812 957.160156 738.273438 955.289062 737.808594 C 953.417969 737.34375 952.273438 735.449219 952.738281 733.578125 C 952.933594 732.789062 952.949219 731.148438 952.445312 728.738281 C 951.964844 726.425781 951.078125 723.746094 949.828125 721.054688 C 947.269531 715.546875 943.488281 710.65625 939.238281 708.519531 C 936.21875 706.996094 933.445312 703.664062 933.707031 699.511719 C 934.234375 691.203125 933.445312 677.214844 929.308594 666.210938 C 927.429688 661.210938 924.960938 657.089844 921.847656 654.347656 C 918.839844 651.6875 915.117188 650.210938 910.285156 650.589844 C 910.285156 650.589844 910.28125 650.589844 910.28125 650.589844 C 910.277344 650.589844 910.277344 650.589844 910.277344 650.59375 C 910.25 650.625 910.191406 650.726562 910.199219 650.90625 C 910.257812 651.867188 910.320312 652.992188 910.398438 654.269531 C 911.332031 669.898438 913.597656 707.898438 910.023438 734.878906 C 909.769531 736.789062 908.015625 738.132812 906.105469 737.882812 C 904.191406 737.628906 902.847656 735.875 903.101562 733.960938 C 906.578125 707.703125 904.363281 670.398438 903.429688 654.664062 C 903.355469 653.398438 903.285156 652.273438 903.230469 651.304688 C 903.023438 647.617188 905.574219 643.957031 909.738281 643.632812 C 916.53125 643.097656 922.101562 645.253906 926.46875 649.113281 C 929.019531 651.363281 931.113281 654.140625 932.835938 657.210938 L 967.308594 593.886719 C 972.65625 584.058594 986.785156 584.332031 991.753906 594.351562 C 993.441406 597.746094 993.671875 601.683594 992.390625 605.246094 L 978.601562 643.699219 C 981.425781 643.4375 984.210938 644.027344 986.648438 645.265625 C 990.074219 646.996094 992.902344 650.042969 994.25 653.8125 L 994.894531 653.582031 C 1004.945312 649.980469 1015.441406 657.386719 1015.644531 667.984375 C 1017.039062 667.910156 1018.539062 667.957031 1020.03125 668.195312 C 1023.921875 668.824219 1028.507812 670.933594 1030.308594 676.332031 C 1032.375 682.535156 1031.710938 688.925781 1029.460938 695.855469 C 1027.246094 702.652344 1023.386719 710.328125 1018.617188 719.296875 C 1011.035156 741.972656 999.660156 769.117188 986.816406 784.40625 C 985.574219 785.882812 983.371094 786.074219 981.898438 784.835938 C 980.421875 783.589844 980.230469 781.390625 981.46875 779.914062 C 992.335938 766.984375 1002.464844 744.234375 1009.902344 723.183594 C 1005.933594 723.488281 1002.0625 722.445312 998.925781 720.800781 C 996.375 719.460938 994.113281 717.628906 992.515625 715.519531 C 992.265625 715.1875 992.023438 714.84375 991.800781 714.484375 C 988.539062 716.273438 984.621094 716.800781 980.824219 715.710938 C 976.371094 714.429688 972.9375 710.984375 971.589844 706.640625 C 969.054688 708.222656 966.03125 709.109375 962.601562 708.628906 C 958.316406 708.03125 953.953125 705.996094 951.0625 701.628906 C 950 700.023438 950.4375 697.855469 952.042969 696.792969 C 953.652344 695.726562 955.816406 696.167969 956.882812 697.773438 C 958.429688 700.109375 960.789062 701.328125 963.566406 701.714844 C 966.21875 702.085938 968.847656 700.679688 971.160156 697.625 C 972.0625 696.429688 972.851562 695.0625 973.480469 693.625 L 987.351562 662.15625 C 987.917969 660.867188 988.136719 659.652344 988.109375 658.546875 C 988.046875 655.550781 986.179688 652.855469 983.496094 651.492188 C 981.128906 650.296875 978.269531 650.207031 975.636719 651.964844 L 965.878906 679.179688 C 965.230469 680.996094 963.230469 681.9375 961.414062 681.285156 C 959.597656 680.636719 958.65625 678.636719 959.304688 676.824219 L 985.820312 602.890625 C 986.457031 601.113281 986.34375 599.144531 985.503906 597.453125 Z M 977.601562 700.613281 L 978.03125 703.550781 C 978.410156 706.160156 980.265625 708.285156 982.757812 709 C 985.78125 709.871094 988.984375 708.753906 990.839844 706.285156 C 991.117188 705.914062 991.363281 705.511719 991.582031 705.082031 L 1007.609375 672.796875 C 1007.863281 672.292969 1008.066406 671.773438 1008.230469 671.238281 C 1008.519531 670.285156 1008.664062 669.300781 1008.664062 668.296875 C 1008.664062 662.296875 1002.785156 658.171875 997.25 660.15625 L 994.917969 660.992188 C 994.710938 662.3125 994.320312 663.648438 993.742188 664.96875 L 979.875 696.445312 C 979.246094 697.867188 978.484375 699.277344 977.601562 700.613281 Z M 997.132812 709.441406 C 997.234375 709.898438 997.496094 710.527344 998.085938 711.308594 C 998.972656 712.480469 1000.386719 713.683594 1002.171875 714.621094 C 1005.511719 716.371094 1009.464844 716.875 1012.824219 715.324219 C 1017.425781 706.636719 1020.871094 699.679688 1022.820312 693.691406 C 1024.816406 687.550781 1025.105469 682.808594 1023.683594 678.539062 C 1023.015625 676.535156 1021.382812 675.488281 1018.917969 675.089844 C 1017.199219 674.8125 1015.453125 674.941406 1014.207031 675.164062 C 1014.101562 675.410156 1013.984375 675.65625 1013.867188 675.898438 L 997.832031 708.1875 C 997.617188 708.621094 997.382812 709.039062 997.132812 709.441406 Z M 997.132812 709.441406 " fill-opacity="1" fill-rule="evenodd"/><path fill="#402037" d="M 303.355469 736.859375 C 305.238281 737.269531 306.433594 739.125 306.023438 741.011719 C 300.828125 764.953125 290.617188 802.027344 280.371094 822.539062 C 293.121094 832.886719 310.574219 845.660156 328.175781 857.070312 C 346.875 869.191406 365.453125 879.585938 378.652344 884 C 404.433594 892.625 422.914062 886.953125 435.03125 875.296875 C 446.804688 863.972656 453.027344 846.550781 453.5625 829.484375 C 420.867188 816.632812 411.191406 781.855469 408.457031 767.085938 C 408.105469 765.191406 409.355469 763.371094 411.253906 763.019531 C 413.148438 762.667969 414.96875 763.921875 415.324219 765.816406 C 418.082031 780.71875 427.5625 813.082031 458.242188 823.773438 C 459.246094 824.125 461.695312 825.03125 464.917969 826.226562 C 468.726562 827.636719 473.609375 829.441406 478.460938 831.203125 C 482.980469 832.84375 487.507812 834.457031 491.226562 835.710938 C 495.082031 837.007812 497.726562 837.804688 498.703125 837.964844 L 500.796875 838.308594 L 534.371094 940.992188 L 260.207031 940.992188 L 260.207031 840.023438 L 261.15625 839.019531 C 265.09375 834.835938 269.058594 828.921875 272.894531 821.792969 C 283.070312 802.890625 293.78125 764.488281 299.199219 739.53125 C 299.613281 737.644531 301.46875 736.453125 303.355469 736.859375 Z M 460.4375 832.011719 C 459.390625 849.746094 452.699219 867.992188 439.875 880.332031 C 425.636719 894.027344 404.339844 899.957031 376.433594 890.621094 C 362.34375 885.90625 343.136719 875.09375 324.375 862.929688 C 307.042969 851.695312 289.84375 839.144531 276.988281 828.785156 C 273.878906 834.167969 270.601562 838.9375 267.191406 842.765625 L 267.191406 934.011719 L 524.742188 934.011719 L 495.429688 844.351562 C 493.699219 843.878906 491.4375 843.148438 488.996094 842.324219 C 485.203125 841.046875 480.613281 839.414062 476.078125 837.765625 C 471.066406 835.945312 466.160156 834.128906 462.386719 832.730469 C 461.699219 832.476562 461.042969 832.234375 460.4375 832.011719 Z M 460.4375 832.011719 " fill-opacity="1" fill-rule="evenodd"/><path fill="#402037" d="M 263.699219 841.410156 C 267.921875 836.921875 272.054688 830.71875 275.96875 823.449219 C 301.980469 844.902344 350.25 878.179688 377.542969 887.308594 C 431.234375 905.269531 457.09375 864.109375 457.09375 827.074219 C 461.441406 828.589844 466.683594 830.164062 471.957031 831.03125 L 529.554688 937.5 L 263.699219 937.5 Z M 263.699219 841.410156 " fill-opacity="1" fill-rule="nonzero"/><path fill="#402037" d="M 426.578125 808.339844 C 382.09375 822.421875 304.9375 786.488281 308.648438 747.253906 C 308.886719 744.753906 311.824219 743.804688 313.824219 745.324219 C 350.277344 773.058594 379.867188 768.210938 412.613281 766.453125 L 412.976562 768.230469 C 415.816406 782.117188 420.386719 795.59375 426.578125 808.339844 Z M 426.578125 808.339844 " fill-opacity="1" fill-rule="nonzero"/><path fill="#ffc25e" d="M 983.679688 1491.363281 C 976.464844 1491.363281 970.953125 1484.957031 972.070312 1477.867188 L 981.453125 1418.316406 L 768.546875 1418.316406 C 748.375 1418.316406 732.023438 1434.667969 732.023438 1454.839844 C 732.023438 1475.011719 748.375 1491.363281 768.546875 1491.363281 Z M 983.679688 1491.363281 " fill-opacity="1" fill-rule="nonzero"/><path fill="#ffc25e" d="M 1065.535156 1099.824219 C 1045.648438 1099.824219 1028.722656 1114.492188 1025.644531 1134.398438 L 981.726562 1418.316406 L 972.515625 1477.867188 C 971.417969 1484.957031 976.828125 1491.363281 983.910156 1491.363281 L 1007.460938 1491.363281 L 1054.191406 1186.9375 C 1059.398438 1153.039062 1076.585938 1122.128906 1102.632812 1099.824219 Z M 1065.535156 1099.824219 " fill-opacity="1" fill-rule="nonzero"/><path fill="#402037" d="M 1066.8125 1103.316406 C 1048.261719 1103.316406 1032.496094 1116.746094 1029.632812 1134.941406 L 975.519531 1478.410156 C 974.742188 1483.359375 978.589844 1487.871094 983.679688 1487.871094 L 1375.917969 1487.871094 C 1397.476562 1487.871094 1415.769531 1472.175781 1418.945312 1450.996094 L 1464.671875 1146.25 C 1468.0625 1123.660156 1450.46875 1103.316406 1427.449219 1103.316406 Z M 1375.917969 1494.855469 C 1400.910156 1494.855469 1422.160156 1476.65625 1425.851562 1452.03125 L 1471.574219 1147.289062 C 1475.605469 1120.433594 1454.691406 1096.332031 1427.449219 1096.332031 L 1066.8125 1096.332031 C 1044.851562 1096.332031 1026.140625 1112.242188 1022.738281 1133.855469 L 978.46875 1414.824219 L 768.546875 1414.824219 C 746.445312 1414.824219 728.53125 1432.738281 728.53125 1454.839844 C 728.53125 1476.9375 746.445312 1494.855469 768.546875 1494.855469 Z M 970.851562 1487.871094 C 968.914062 1484.878906 968.015625 1481.179688 968.625 1477.324219 L 977.371094 1421.804688 L 768.546875 1421.804688 C 750.304688 1421.804688 735.511719 1436.597656 735.511719 1454.839844 C 735.511719 1473.082031 750.304688 1487.871094 768.546875 1487.871094 Z M 970.851562 1487.871094 " fill-opacity="1" fill-rule="evenodd"/><path fill="#ffc25e" d="M 1294.132812 1320.792969 C 1294.132812 1346.484375 1272.4375 1367.308594 1245.675781 1367.308594 C 1218.914062 1367.308594 1197.21875 1346.484375 1197.21875 1320.792969 C 1197.21875 1295.097656 1218.914062 1274.273438 1245.675781 1274.273438 C 1272.4375 1274.273438 1294.132812 1295.097656 1294.132812 1320.792969 Z M 1294.132812 1320.792969 " fill-opacity="1" fill-rule="nonzero"/><path fill="#402037" d="M 1245.675781 1277.765625 C 1220.707031 1277.765625 1200.707031 1297.160156 1200.707031 1320.792969 C 1200.707031 1344.425781 1220.707031 1363.820312 1245.675781 1363.820312 C 1270.648438 1363.820312 1290.640625 1344.425781 1290.640625 1320.792969 C 1290.640625 1297.160156 1270.648438 1277.765625 1245.675781 1277.765625 Z M 1193.726562 1320.792969 C 1193.726562 1293.039062 1217.121094 1270.78125 1245.675781 1270.78125 C 1274.230469 1270.78125 1297.625 1293.039062 1297.625 1320.792969 C 1297.625 1348.542969 1274.230469 1370.800781 1245.675781 1370.800781 C 1217.121094 1370.800781 1193.726562 1348.542969 1193.726562 1320.792969 Z M 1193.726562 1320.792969 " fill-opacity="1" fill-rule="evenodd"/><path fill="#8d95ff" d="M 263.566406 839.652344 C 74.140625 894.941406 0.0390625 1111.320312 98.136719 1363.867188 C 111.753906 1397.621094 133.652344 1418.15625 161.273438 1427.984375 L 161.273438 1483.8125 C 161.273438 1485.738281 162.800781 1487.304688 164.726562 1487.304688 C 196.964844 1487.335938 244.101562 1487.78125 290.816406 1488.222656 C 331.339844 1488.605469 371.542969 1488.984375 401.429688 1489.085938 C 413.355469 1489.128906 425.203125 1489.105469 436.90625 1488.984375 C 453.59375 1488.816406 469.976562 1488.457031 485.871094 1487.832031 C 640.671875 1488.722656 683.90625 1495.988281 691.597656 1482.691406 C 694.75 1477.242188 691.9375 1468.34375 688.386719 1454.140625 L 649.617188 1248.628906 C 815.835938 1195.441406 923.910156 961.933594 965.488281 844.574219 C 970.03125 831.746094 973.78125 820.3125 976.722656 810.648438 C 977.679688 807.507812 978.851562 804.464844 980.101562 801.566406 C 983.777344 793.078125 984.078125 784.605469 981.09375 777.226562 C 978.972656 771.976562 975.183594 767.289062 969.761719 763.542969 L 950.558594 750.289062 L 937.753906 742.144531 C 929.820312 737.417969 922.765625 735.292969 916.582031 735.285156 C 902.738281 735.265625 893.222656 745.828125 887.921875 761.511719 L 869.757812 785.707031 L 716.273438 990.144531 C 710.042969 998.441406 697.160156 997.363281 691.707031 988.535156 C 659.175781 935.855469 589.390625 860.789062 471.859375 829.625 C 471.054688 829.410156 470.332031 830.207031 470.613281 830.984375 C 478.210938 852.332031 470.890625 894.289062 430.472656 913.769531 C 423.023438 917.363281 414.730469 919.082031 406.460938 919.378906 C 356.246094 921.1875 330.964844 894.828125 308.558594 871.476562 C 295.359375 857.714844 283.160156 844.996094 267.453125 839.695312 C 266.203125 839.273438 264.832031 839.285156 263.566406 839.652344 Z M 523.058594 1148.363281 C 545.160156 1159.632812 560.53125 1189.820312 561.675781 1218.699219 C 561.742188 1220.390625 561.761719 1222.070312 561.726562 1223.746094 L 562.101562 1223.746094 C 562.511719 1223.746094 562.867188 1223.78125 563.277344 1223.832031 C 589.257812 1227 724.386719 1151.5 682.445312 1128.902344 C 693.210938 1119.09375 688.386719 1103.316406 669.746094 1109.417969 L 675.636719 1103.421875 C 678.707031 1100.296875 679.4375 1095.566406 677.449219 1091.664062 C 674.902344 1086.644531 668.765625 1084.644531 663.75 1087.199219 L 631.242188 1103.726562 C 630.273438 1104.21875 629.46875 1103.121094 630.238281 1102.351562 C 637.0625 1095.507812 649.878906 1081.476562 650.09375 1069.105469 C 650.152344 1065.867188 646.976562 1063.859375 643.789062 1064.421875 C 617.777344 1069.039062 604.433594 1087.074219 593.703125 1101.578125 C 590.109375 1106.433594 586.808594 1110.898438 583.425781 1114.324219 C 579.625 1118.175781 575.371094 1114.253906 576.289062 1108.921875 C 577.722656 1100.59375 577.585938 1090.386719 571.679688 1079.640625 C 569.890625 1076.382812 565.648438 1075.644531 562.824219 1078.050781 C 546.058594 1092.339844 531.386719 1119.582031 522.574219 1146.949219 L 522.261719 1147.984375 C 522.527344 1148.105469 522.792969 1148.230469 523.058594 1148.363281 Z M 523.058594 1148.363281 " fill-opacity="1" fill-rule="evenodd"/><path fill="#ffc25e" d="M 785.902344 888.882812 L 626.828125 877.328125 C 605.527344 875.78125 587.050781 891.914062 585.71875 913.230469 L 574.9375 1085.859375 L 574.9375 1086.609375 C 574.9375 1090.738281 574.371094 1094.863281 573.757812 1098.945312 C 573.613281 1099.914062 573.464844 1100.964844 573.328125 1102.070312 C 570.910156 1121.027344 584.125 1118.222656 595.804688 1103.097656 C 607.136719 1088.425781 622.085938 1072.339844 634.636719 1066.242188 C 636.683594 1065.246094 638.902344 1064.617188 641.175781 1064.558594 C 649.511719 1064.347656 653.238281 1070.429688 637.769531 1099.824219 L 658.714844 1089.351562 C 669.1875 1084.113281 691.878906 1087.605469 670.933594 1106.804688 C 683.152344 1106.804688 693.625 1112.042969 684.894531 1132.988281 C 704.097656 1155.675781 639.515625 1197.566406 587.152344 1218.511719 L 761.078125 1230.996094 C 782.214844 1232.515625 800.589844 1216.621094 802.125 1195.480469 L 821.417969 929.964844 C 822.953125 908.8125 807.054688 890.421875 785.902344 888.882812 Z M 785.902344 888.882812 " fill-opacity="1" fill-rule="nonzero"/><path fill="#402037" d="M 903.972656 734.726562 C 907.78125 732.8125 911.996094 731.789062 916.585938 731.796875 C 923.574219 731.804688 931.242188 734.199219 939.539062 739.148438 L 939.582031 739.171875 L 952.484375 747.382812 L 971.742188 760.671875 C 977.675781 764.765625 981.929688 769.980469 984.332031 775.917969 C 987.714844 784.28125 987.292969 793.734375 983.304688 802.953125 C 982.09375 805.757812 980.972656 808.679688 980.0625 811.667969 C 977.101562 821.382812 973.339844 832.871094 968.777344 845.734375 C 942.292969 920.503906 888.824219 1042.484375 810.414062 1135.265625 C 809.171875 1136.734375 806.96875 1136.921875 805.496094 1135.679688 C 804.023438 1134.429688 803.839844 1132.230469 805.085938 1130.757812 C 882.707031 1038.910156 935.828125 917.835938 962.199219 843.40625 C 966.726562 830.625 970.457031 819.242188 973.382812 809.632812 C 974.390625 806.335938 975.605469 803.167969 976.898438 800.179688 C 980.257812 792.417969 980.441406 784.921875 977.859375 778.535156 C 976.015625 773.976562 972.691406 769.808594 967.777344 766.417969 L 948.625 753.199219 L 935.964844 745.144531 C 935.953125 745.132812 935.9375 745.125 935.921875 745.117188 C 928.375 740.625 921.953125 738.785156 916.574219 738.777344 C 913.066406 738.769531 909.925781 739.542969 907.113281 740.960938 C 899.097656 745 893.582031 752.222656 888.460938 760.917969 C 886.777344 763.777344 885.195312 766.683594 883.578125 769.652344 C 882.722656 771.226562 881.859375 772.820312 880.960938 774.433594 C 878.417969 779.003906 875.703125 783.601562 872.550781 787.804688 L 793.96875 892.46875 C 792.8125 894.011719 790.621094 894.324219 789.082031 893.167969 C 787.539062 892.007812 787.230469 889.820312 788.386719 888.28125 L 866.964844 783.613281 C 869.828125 779.800781 872.359375 775.535156 874.859375 771.039062 C 875.6875 769.546875 876.519531 768.015625 877.363281 766.46875 C 879.015625 763.429688 880.703125 760.328125 882.445312 757.375 C 887.730469 748.402344 894.09375 739.703125 903.972656 734.726562 Z M 646.144531 1068.191406 C 645.753906 1067.914062 645.113281 1067.734375 644.394531 1067.859375 C 628.046875 1070.757812 616.976562 1079.261719 608.234375 1088.902344 C 603.839844 1093.75 600.066406 1098.847656 596.472656 1103.703125 L 596.402344 1103.800781 C 592.890625 1108.546875 589.46875 1113.171875 585.910156 1116.773438 C 584.523438 1118.179688 582.828125 1119.140625 580.917969 1119.328125 C 578.988281 1119.519531 577.226562 1118.871094 575.875 1117.765625 C 573.261719 1115.625 572.230469 1111.925781 572.847656 1108.332031 C 574.1875 1100.539062 574.042969 1091.1875 568.621094 1081.320312 C 567.914062 1080.039062 566.261719 1079.710938 565.085938 1080.707031 C 549.394531 1094.085938 535.257812 1119.757812 526.480469 1146.238281 C 537.515625 1152.449219 546.683594 1162.953125 553.300781 1175.277344 C 560.296875 1188.296875 564.570312 1203.582031 565.160156 1218.5625 C 565.191406 1219.1875 565.207031 1219.8125 565.21875 1220.4375 C 567.804688 1220.402344 571.625 1219.707031 576.585938 1218.242188 C 582.492188 1216.492188 589.589844 1213.777344 597.332031 1210.324219 C 612.820312 1203.421875 630.664062 1193.671875 646.390625 1183.132812 C 662.207031 1172.53125 675.527344 1161.367188 682.316406 1151.707031 C 685.734375 1146.847656 687.140625 1142.867188 686.949219 1139.820312 C 686.804688 1137.566406 685.738281 1135.308594 682.816406 1133.226562 C 673.210938 1141.402344 659.601562 1149.375 652.785156 1152.84375 C 651.066406 1153.71875 648.964844 1153.03125 648.09375 1151.3125 C 647.214844 1149.59375 647.902344 1147.496094 649.621094 1146.621094 C 656.683594 1143.03125 671.144531 1134.476562 680.09375 1126.324219 C 684.71875 1122.109375 685.285156 1117.332031 683.996094 1114.746094 C 682.945312 1112.628906 679.523438 1110.0625 671.410156 1112.550781 L 642.078125 1135.746094 C 640.566406 1136.945312 638.371094 1136.691406 637.171875 1135.175781 C 635.980469 1133.664062 636.234375 1131.46875 637.746094 1130.273438 L 667.410156 1106.816406 L 673.144531 1100.976562 C 675.164062 1098.921875 675.644531 1095.808594 674.339844 1093.242188 C 672.660156 1089.945312 668.628906 1088.632812 665.332031 1090.308594 L 632.824219 1106.835938 C 630.871094 1107.832031 628.546875 1107.316406 627.273438 1105.578125 C 625.992188 1103.832031 626.207031 1101.445312 627.765625 1099.886719 C 631.125 1096.519531 635.863281 1091.472656 639.769531 1085.820312 C 643.746094 1080.066406 646.515625 1074.171875 646.605469 1069.046875 C 646.609375 1068.695312 646.480469 1068.425781 646.144531 1068.191406 Z M 679.1875 1104.65625 C 684.28125 1105.105469 688.203125 1107.515625 690.25 1111.640625 C 692.78125 1116.738281 691.628906 1123.035156 687.761719 1128.21875 C 691.5 1131.191406 693.632812 1134.945312 693.917969 1139.378906 C 694.257812 1144.773438 691.789062 1150.375 688.027344 1155.722656 C 680.464844 1166.476562 666.246094 1178.226562 650.273438 1188.929688 C 634.21875 1199.691406 616.027344 1209.632812 600.179688 1216.703125 C 592.257812 1220.230469 584.859375 1223.074219 578.566406 1224.933594 C 573.460938 1226.445312 568.773438 1227.414062 565.035156 1227.417969 C 564.183594 1235.472656 559.804688 1242.492188 554.160156 1247.761719 C 550.195312 1251.460938 546.203125 1255.140625 542.183594 1258.796875 C 534.425781 1265.859375 526.570312 1272.835938 518.636719 1279.703125 C 459.679688 1330.722656 394.871094 1375.273438 333.585938 1404.089844 C 272.445312 1432.835938 214.191406 1446.214844 168.675781 1433.945312 C 167.363281 1433.589844 166.058594 1433.214844 164.765625 1432.820312 L 164.765625 1483.8125 C 196.976562 1483.84375 244.15625 1484.289062 290.890625 1484.730469 C 331.425781 1485.113281 371.625 1485.496094 401.4375 1485.597656 C 413.355469 1485.636719 425.1875 1485.613281 436.871094 1485.496094 C 453.527344 1485.324219 469.882812 1484.964844 485.734375 1484.34375 L 485.8125 1484.339844 L 485.890625 1484.339844 C 534.773438 1484.621094 572.542969 1485.539062 601.558594 1486.242188 C 604.953125 1486.324219 608.222656 1486.40625 611.378906 1486.480469 C 641.648438 1487.203125 661.027344 1487.519531 673.199219 1486.3125 C 679.304688 1485.703125 683.191406 1484.746094 685.632812 1483.5 C 687.859375 1482.363281 688.78125 1481.054688 689.195312 1479.363281 C 689.6875 1477.375 689.539062 1474.554688 688.71875 1470.339844 C 688.113281 1467.226562 687.207031 1463.675781 686.140625 1459.492188 C 685.777344 1458.066406 685.394531 1456.566406 685 1454.988281 L 684.976562 1454.886719 L 646.167969 1249.183594 L 642.800781 1223.644531 C 642.550781 1221.738281 643.898438 1219.980469 645.804688 1219.730469 C 647.71875 1219.476562 649.472656 1220.820312 649.722656 1222.734375 L 652.527344 1243.996094 C 667.699219 1238.84375 682.394531 1232.171875 696.597656 1224.195312 C 698.28125 1223.25 700.40625 1223.847656 701.351562 1225.527344 C 702.292969 1227.210938 701.699219 1229.339844 700.015625 1230.28125 C 685.109375 1238.648438 669.640625 1245.644531 653.617188 1250.996094 L 691.796875 1453.394531 C 692.160156 1454.835938 692.515625 1456.238281 692.863281 1457.597656 C 693.945312 1461.847656 694.921875 1465.675781 695.570312 1469 C 696.421875 1473.375 696.851562 1477.476562 695.976562 1481.035156 C 695.027344 1484.890625 692.648438 1487.757812 688.804688 1489.71875 C 685.175781 1491.570312 680.226562 1492.628906 673.890625 1493.257812 C 661.183594 1494.519531 641.28125 1494.175781 611.210938 1493.460938 C 608.054688 1493.382812 604.777344 1493.304688 601.390625 1493.222656 C 572.386719 1492.519531 534.703125 1491.605469 485.929688 1491.324219 C 470.023438 1491.945312 453.625 1492.304688 436.941406 1492.476562 C 425.222656 1492.59375 413.355469 1492.621094 401.417969 1492.578125 C 371.464844 1492.476562 331.257812 1492.097656 290.742188 1491.710938 C 244.066406 1491.273438 196.984375 1490.824219 164.726562 1490.792969 C 160.824219 1490.789062 157.785156 1487.621094 157.785156 1483.8125 L 157.785156 1430.417969 C 130.234375 1419.914062 108.476562 1398.824219 94.898438 1365.175781 L 94.882812 1365.132812 C 60.921875 1277.703125 47.453125 1194.457031 52.257812 1120.542969 C 52.382812 1118.617188 54.042969 1117.160156 55.96875 1117.285156 C 57.890625 1117.410156 59.351562 1119.070312 59.226562 1120.996094 C 54.496094 1193.734375 67.734375 1275.957031 101.378906 1362.582031 C 114.664062 1395.484375 135.859375 1415.234375 162.445312 1424.695312 C 165.074219 1425.632812 167.757812 1426.464844 170.496094 1427.207031 C 213.566406 1438.816406 269.914062 1426.3125 330.613281 1397.769531 C 391.175781 1369.292969 455.457031 1325.144531 514.066406 1274.421875 C 521.957031 1267.59375 529.769531 1260.65625 537.488281 1253.636719 C 541.484375 1250 545.453125 1246.335938 549.398438 1242.65625 C 554.511719 1237.882812 557.925781 1231.847656 558.1875 1225.382812 C 558.210938 1224.820312 558.226562 1224.25 558.238281 1223.679688 C 558.265625 1222.074219 558.25 1220.460938 558.1875 1218.839844 C 557.636719 1204.941406 553.65625 1190.6875 547.148438 1178.578125 C 540.632812 1166.445312 531.714844 1156.695312 521.472656 1151.472656 C 521.378906 1151.429688 521.289062 1151.382812 521.195312 1151.335938 C 521.074219 1151.277344 520.949219 1151.21875 520.824219 1151.164062 C 515.15625 1148.601562 508.230469 1149.707031 501.613281 1152.816406 L 219.039062 1285.714844 C 217.296875 1286.535156 215.214844 1285.789062 214.394531 1284.042969 C 213.574219 1282.296875 214.324219 1280.21875 216.070312 1279.398438 L 237.980469 1269.09375 C 231.058594 1239.617188 226.761719 1203.140625 225.058594 1170.679688 C 224.179688 1153.921875 223.992188 1138.175781 224.496094 1124.964844 C 224.996094 1111.835938 226.191406 1100.9375 228.191406 1094.019531 C 228.726562 1092.167969 230.660156 1091.101562 232.511719 1091.632812 C 234.363281 1092.171875 235.433594 1094.105469 234.898438 1095.960938 C 233.148438 1102.007812 231.96875 1112.1875 231.472656 1125.230469 C 230.976562 1138.1875 231.160156 1153.714844 232.03125 1170.3125 C 233.691406 1201.984375 237.839844 1237.363281 244.441406 1266.050781 L 498.640625 1146.5 C 505.019531 1143.5 512.707031 1141.625 520.027344 1143.511719 C 529.003906 1116.667969 543.578125 1089.867188 560.558594 1075.394531 C 565.035156 1071.574219 571.867188 1072.730469 574.742188 1077.957031 C 581.128906 1089.585938 581.253906 1100.648438 579.730469 1109.515625 C 579.433594 1111.230469 580.058594 1112.160156 580.292969 1112.359375 C 580.398438 1112.316406 580.617188 1112.199219 580.941406 1111.871094 C 584.105469 1108.664062 587.242188 1104.445312 590.859375 1099.546875 L 590.933594 1099.449219 C 594.480469 1094.65625 598.429688 1089.324219 603.066406 1084.210938 C 612.457031 1073.855469 624.820312 1064.242188 643.179688 1060.984375 C 647.839844 1060.15625 653.691406 1063.089844 653.582031 1069.167969 C 653.457031 1076.410156 649.710938 1083.71875 645.515625 1089.789062 C 644.457031 1091.320312 643.339844 1092.808594 642.21875 1094.226562 L 662.167969 1084.085938 C 668.902344 1080.660156 677.140625 1083.34375 680.5625 1090.082031 C 682.980469 1094.835938 682.398438 1100.511719 679.1875 1104.65625 Z M 679.1875 1104.65625 " fill-opacity="1" fill-rule="evenodd"/><path fill="#402037" d="M 277.367188 380.320312 C 248.347656 392.046875 216.847656 424.3125 204.246094 480.503906 C 203.847656 482.285156 202.738281 483.867188 201.25 484.867188 C 168.945312 506.527344 162.140625 529.128906 166.304688 546.449219 C 170.578125 564.210938 186.597656 577.753906 202.527344 580.796875 C 205.046875 581.277344 207.277344 583.078125 208.078125 585.730469 L 219.527344 623.664062 C 223.960938 618.980469 229.703125 615.535156 236.503906 614.179688 C 245.808594 612.320312 256.636719 614.449219 268.21875 621.792969 C 269.753906 622.765625 270.691406 622.917969 271.207031 622.785156 C 273.054688 622.316406 274.417969 620.9375 275.195312 617.753906 C 275.996094 614.453125 275.957031 609.878906 275.25 604.460938 C 273.84375 593.6875 270.023438 581 267.214844 571.683594 C 264.738281 563.488281 264.441406 557.382812 266.136719 552.675781 C 267.886719 547.808594 271.496094 545.148438 275.050781 543.316406 C 276.617188 542.507812 278.28125 541.8125 279.808594 541.164062 C 279.980469 541.09375 280.152344 541.023438 280.324219 540.949219 C 282.042969 540.222656 283.605469 539.542969 285.023438 538.746094 C 287.78125 537.199219 289.796875 535.347656 290.84375 532.269531 C 291.976562 528.941406 295.347656 526.277344 299.28125 526.683594 C 307.265625 527.5 319.652344 525.835938 330.933594 521.578125 C 342.359375 517.265625 351.554688 510.722656 354.617188 502.582031 C 355.460938 500.332031 357.234375 498.683594 359.148438 497.757812 C 361.0625 496.832031 363.492188 496.453125 365.820312 497.277344 C 373.4375 499.96875 384.394531 499.5625 396.589844 496.398438 C 408.460938 493.320312 421.058594 487.742188 432.0625 480.5625 L 434.078125 477.359375 C 436.988281 472.746094 441.398438 469.382812 446.144531 467.289062 C 466.585938 458.28125 474.644531 446.421875 475.578125 435.390625 C 476.53125 424.171875 470.25 412.4375 459.113281 403.523438 C 436.929688 385.773438 397.347656 380.769531 367.707031 414.761719 C 367.058594 415.503906 365.164062 417.292969 362.480469 416.582031 C 361.152344 416.230469 359.636719 415.433594 358.324219 414.707031 C 357.675781 414.347656 356.984375 413.949219 356.28125 413.546875 L 356.09375 413.441406 C 355.324219 413 354.53125 412.546875 353.714844 412.097656 C 350.34375 410.238281 347.023438 408.6875 344.199219 408.328125 C 341.066406 407.925781 337.175781 405.664062 336.390625 401.535156 C 334.039062 389.1875 326.539062 381.167969 316.175781 377.496094 C 305.664062 373.765625 291.917969 374.433594 277.367188 380.320312 Z M 432.597656 488.476562 C 421.796875 495.0625 409.796875 500.1875 398.34375 503.15625 C 385.578125 506.46875 373.015625 507.226562 363.492188 503.859375 C 363.265625 503.777344 362.785156 503.753906 362.1875 504.039062 C 361.589844 504.332031 361.261719 504.753906 361.152344 505.039062 C 356.996094 516.09375 345.339844 523.605469 333.398438 528.109375 C 321.320312 532.667969 307.835938 534.578125 298.570312 533.625 C 298.441406 533.613281 298.238281 533.644531 297.992188 533.808594 C 297.746094 533.984375 297.546875 534.246094 297.453125 534.523438 C 295.667969 539.757812 292.125 542.769531 288.4375 544.835938 C 286.636719 545.84375 284.753906 546.65625 283.039062 547.382812 C 282.871094 547.453125 282.703125 547.523438 282.539062 547.59375 C 280.96875 548.253906 279.5625 548.84375 278.253906 549.523438 C 275.421875 550.980469 273.601562 552.550781 272.707031 555.039062 C 271.757812 557.683594 271.601562 562.058594 273.894531 569.664062 L 273.933594 569.792969 C 276.707031 578.972656 280.683594 592.164062 282.171875 603.554688 C 282.914062 609.25 283.085938 614.847656 281.976562 619.40625 C 280.839844 624.070312 278.15625 628.21875 272.933594 629.550781 C 269.492188 630.429688 266.394531 628.902344 264.480469 627.6875 C 254.050781 621.074219 245.035156 619.597656 237.871094 621.023438 C 230.699219 622.460938 224.921875 626.894531 221.09375 633 C 215.164062 642.46875 214.097656 655.691406 219.933594 666.847656 C 225.675781 677.839844 238.445312 687.382812 261.277344 688.804688 C 264.207031 688.988281 267.070312 690.332031 269.015625 692.726562 L 295.300781 725.144531 C 305.4375 737.648438 317.722656 748.15625 332.410156 753.5625 C 368.878906 766.980469 401.992188 766.292969 428.238281 756.855469 C 459 745.800781 480.371094 722.742188 487.058594 695.984375 C 490.234375 683.28125 487.335938 669.847656 483.265625 656.375 Z M 438.410156 483.578125 L 489.953125 654.359375 C 494.046875 667.925781 497.507812 682.980469 493.835938 697.675781 C 486.511719 726.96875 463.273438 751.683594 430.597656 763.429688 C 402.660156 773.472656 367.851562 774.042969 330 760.117188 C 313.746094 754.132812 300.503906 742.648438 289.875 729.542969 L 263.59375 697.125 C 262.972656 696.359375 261.976562 695.84375 260.84375 695.773438 C 236.117188 694.234375 220.855469 683.683594 213.746094 670.085938 C 207 657.183594 207.890625 642.039062 214.351562 630.679688 L 201.394531 587.746094 C 201.394531 587.746094 201.394531 587.746094 201.394531 587.742188 C 201.390625 587.742188 201.390625 587.738281 201.382812 587.734375 C 201.382812 587.734375 201.378906 587.726562 201.371094 587.722656 C 201.34375 587.699219 201.292969 587.671875 201.21875 587.652344 C 182.816406 584.136719 164.484375 568.726562 159.519531 548.085938 C 154.445312 527.003906 163.523438 501.757812 197.363281 479.066406 C 197.359375 479.070312 197.363281 479.066406 197.375 479.058594 C 197.378906 479.050781 197.386719 479.042969 197.394531 479.035156 C 197.398438 479.027344 197.402344 479.023438 197.410156 479.015625 C 197.417969 478.996094 197.425781 478.984375 197.433594 478.972656 C 197.4375 478.964844 197.433594 478.964844 197.433594 478.976562 C 210.453125 420.917969 243.273438 386.566406 274.75 373.84375 C 290.445312 367.5 305.992188 366.476562 318.507812 370.914062 C 331.171875 375.40625 340.425781 385.402344 343.25 400.230469 C 343.265625 400.300781 343.34375 400.539062 343.71875 400.832031 C 344.097656 401.132812 344.609375 401.339844 345.085938 401.402344 C 349.355469 401.949219 353.710938 404.121094 357.085938 405.984375 C 357.953125 406.460938 358.789062 406.941406 359.5625 407.382812 L 359.746094 407.488281 C 360.457031 407.894531 361.105469 408.261719 361.707031 408.597656 C 362.292969 408.921875 362.773438 409.175781 363.15625 409.363281 C 395.535156 373.039062 438.988281 378.476562 463.472656 398.074219 C 475.761719 407.90625 483.746094 421.699219 482.535156 435.980469 C 481.308594 450.445312 470.789062 464.058594 448.964844 473.675781 C 445.230469 475.324219 442.015625 477.863281 439.984375 481.085938 Z M 438.410156 483.578125 " fill-opacity="1" fill-rule="evenodd"/><path fill="#402037" d="M 298.925781 530.15625 C 316.175781 531.925781 350.667969 523.007812 357.882812 503.808594 C 358.835938 501.277344 362.097656 499.667969 364.644531 500.589844 C 380.269531 506.289062 406.609375 500.613281 428.492188 488.144531 C 432.816406 485.683594 436.175781 481.882812 438.527344 477.503906 C 440.019531 474.71875 442.609375 472.566406 445.53125 471.351562 C 533.722656 434.671875 427.652344 340.703125 365.074219 412.464844 C 364.636719 412.972656 364 413.367188 363.40625 413.054688 C 360.414062 411.496094 353.757812 402.75 346.722656 402.582031 C 343.851562 402.515625 339.945312 401.019531 339.230469 398.234375 C 326.070312 347.179688 226.039062 367.386719 200.839844 479.742188 C 200.636719 480.632812 200.066406 481.457031 199.304688 481.96875 C 133.160156 526.316406 167.542969 577.664062 201.871094 584.222656 C 203.21875 584.484375 204.339844 585.429688 204.734375 586.738281 L 218.136719 631.148438 C 226.671875 617.535156 244.335938 610.777344 266.347656 624.738281 C 268.074219 625.835938 270.089844 626.671875 272.070312 626.167969 C 286.214844 622.5625 276.140625 589.179688 270.554688 570.671875 C 261.019531 539.074219 288.484375 550.023438 294.148438 533.394531 C 294.832031 531.394531 296.820312 529.9375 298.925781 530.15625 Z M 298.925781 530.15625 " fill-opacity="1" fill-rule="nonzero"/><path fill="#402037" d="M 442.792969 561.972656 C 436.429688 559.03125 428.894531 560.546875 424.171875 565.722656 L 421.308594 568.863281 C 420.011719 570.289062 417.800781 570.390625 416.375 569.089844 C 414.953125 567.789062 414.851562 565.582031 416.148438 564.160156 L 419.015625 561.019531 C 425.792969 553.59375 436.601562 551.414062 445.722656 555.636719 C 447.472656 556.453125 448.234375 558.523438 447.421875 560.273438 C 446.613281 562.023438 444.539062 562.785156 442.792969 561.972656 Z M 442.792969 561.972656 " fill-opacity="1" fill-rule="evenodd"/><path fill="#402037" d="M 347.972656 590.589844 C 341.613281 587.644531 334.078125 589.160156 329.355469 594.339844 L 326.492188 597.480469 C 325.191406 598.902344 322.984375 599.003906 321.558594 597.707031 C 320.136719 596.402344 320.035156 594.199219 321.332031 592.773438 L 324.199219 589.636719 C 330.972656 582.207031 341.785156 580.027344 350.90625 584.257812 C 352.65625 585.066406 353.417969 587.140625 352.605469 588.886719 C 351.796875 590.636719 349.722656 591.398438 347.972656 590.589844 Z M 347.972656 590.589844 " fill-opacity="1" fill-rule="evenodd"/><path fill="#402037" d="M 350.175781 600.4375 C 345.695312 598.402344 340.398438 600 337.792969 604.175781 C 337.277344 604.992188 336.203125 605.238281 335.386719 604.730469 C 334.570312 604.214844 334.316406 603.140625 334.832031 602.324219 C 338.367188 596.664062 345.542969 594.5 351.617188 597.253906 C 352.5 597.652344 352.886719 598.691406 352.488281 599.566406 C 352.089844 600.445312 351.054688 600.832031 350.175781 600.4375 Z M 350.175781 600.4375 " fill-opacity="1" fill-rule="evenodd"/><path fill="#402037" d="M 440.703125 573.542969 C 437.238281 571.523438 432.8125 572.390625 430.359375 575.566406 L 429.015625 577.308594 C 428.425781 578.070312 427.332031 578.214844 426.566406 577.625 C 425.804688 577.035156 425.664062 575.9375 426.253906 575.175781 L 427.597656 573.429688 C 431.121094 568.871094 437.476562 567.625 442.460938 570.523438 C 443.292969 571.007812 443.578125 572.078125 443.089844 572.910156 C 442.605469 573.742188 441.539062 574.023438 440.703125 573.542969 Z M 440.703125 573.542969 " fill-opacity="1" fill-rule="evenodd"/><path fill="#402037" d="M 412.085938 629.933594 L 387.074219 584.714844 L 393.183594 581.335938 L 418.195312 626.554688 C 426.023438 640.707031 414.890625 657.863281 398.777344 656.480469 L 399.371094 649.523438 C 409.921875 650.429688 417.210938 639.199219 412.085938 629.933594 Z M 412.085938 629.933594 " fill-opacity="1" fill-rule="evenodd"/><path fill="#402037" d="M 375.695312 664.96875 L 376.734375 666.335938 C 384.105469 676.050781 396.734375 680.15625 408.40625 676.632812 L 410.425781 683.316406 C 395.957031 687.679688 380.304688 682.59375 371.175781 670.554688 L 370.132812 669.1875 Z M 375.695312 664.96875 " fill-opacity="1" fill-rule="evenodd"/><path fill="#8d95ff" d="M 333.003906 578.0625 C 317.066406 582.875 308.046875 599.691406 312.855469 615.632812 C 317.667969 631.570312 334.484375 640.59375 350.425781 635.785156 C 366.363281 630.972656 375.386719 614.152344 370.578125 598.210938 C 365.765625 582.273438 348.945312 573.253906 333.003906 578.0625 Z M 301.316406 602.628906 C 302.996094 586.878906 313.867188 572.898438 329.984375 568.039062 C 348.207031 562.535156 367.289062 570.460938 376.609375 586.113281 C 382.4375 581.679688 389.425781 579.007812 396.730469 578.433594 C 396.5625 560.835938 407.929688 544.511719 425.625 539.171875 C 447.097656 532.691406 469.761719 544.847656 476.242188 566.324219 C 482.726562 587.800781 470.566406 610.464844 449.09375 616.945312 C 427.617188 623.425781 404.953125 611.269531 398.472656 589.796875 C 398.375 589.476562 398.28125 589.148438 398.191406 588.828125 C 391.761719 589.1875 385.636719 591.777344 380.890625 596.179688 C 386.707031 617.355469 374.597656 639.429688 353.453125 645.808594 C 331.976562 652.289062 309.308594 640.132812 302.832031 618.65625 C 302.28125 616.832031 301.863281 615 301.578125 613.171875 L 209.019531 626.554688 C 199.265625 627.964844 192.441406 637.394531 194.238281 647.738281 L 183.921875 649.535156 C 181.160156 633.65625 191.644531 618.484375 207.519531 616.191406 Z M 428.648438 549.199219 C 412.707031 554.007812 403.6875 570.832031 408.496094 586.769531 C 413.308594 602.707031 430.125 611.730469 446.066406 606.917969 C 462.003906 602.109375 471.027344 585.289062 466.21875 569.351562 C 461.40625 553.410156 444.585938 544.386719 428.648438 549.199219 Z M 428.648438 549.199219 " fill-opacity="1" fill-rule="evenodd"/><path fill="#402037" d="M 356.375 612.28125 C 357.871094 617.234375 355.066406 622.460938 350.117188 623.953125 C 345.164062 625.449219 339.9375 622.644531 338.445312 617.695312 C 336.949219 612.742188 339.753906 607.515625 344.703125 606.019531 C 349.65625 604.527344 354.882812 607.332031 356.375 612.28125 Z M 356.375 612.28125 " fill-opacity="1" fill-rule="nonzero"/><path fill="#402037" d="M 446.042969 585.222656 C 447.535156 590.171875 445.179688 595.265625 440.777344 596.59375 C 436.375 597.921875 431.597656 594.984375 430.101562 590.035156 C 428.605469 585.078125 430.964844 579.988281 435.367188 578.660156 C 439.769531 577.332031 444.546875 580.269531 446.042969 585.222656 Z M 446.042969 585.222656 " fill-opacity="1" fill-rule="nonzero"/><path fill="#402037" d="M 142.074219 1084.113281 C 142.074219 1090.863281 138.949219 1096.332031 135.09375 1096.332031 C 131.238281 1096.332031 128.113281 1090.863281 128.113281 1084.113281 C 128.113281 1077.367188 131.238281 1071.898438 135.09375 1071.898438 C 138.949219 1071.898438 142.074219 1077.367188 142.074219 1084.113281 Z M 142.074219 1084.113281 " fill-opacity="1" fill-rule="nonzero"/><path fill="#402037" d="M 444.558594 1283.996094 C 434.441406 1292.667969 386.027344 1328.3125 313.632812 1338.90625 L 312.621094 1332 C 383.347656 1321.648438 430.582031 1286.78125 440.011719 1278.695312 Z M 444.558594 1283.996094 " fill-opacity="1" fill-rule="evenodd"/><path fill="#402037" d="M 271.453125 893.859375 C 206.355469 897.929688 138.585938 956.710938 138.585938 1054.441406 L 131.601562 1054.441406 C 131.601562 953.199219 202.070312 891.199219 271.019531 886.890625 Z M 271.453125 893.859375 " fill-opacity="1" fill-rule="evenodd"/><path fill="#402037" d="M 582.234375 913.011719 C 583.691406 889.757812 603.839844 872.15625 627.082031 873.847656 L 786.152344 885.40625 C 809.226562 887.078125 826.574219 907.144531 824.898438 930.21875 L 805.609375 1195.738281 C 803.933594 1218.796875 783.890625 1236.140625 760.828125 1234.480469 L 586.90625 1221.996094 L 587.40625 1215.03125 L 761.328125 1227.515625 C 780.546875 1228.898438 797.246094 1214.449219 798.644531 1195.230469 L 817.933594 929.714844 C 819.335938 910.484375 804.878906 893.765625 785.648438 892.367188 L 626.574219 880.808594 C 607.207031 879.402344 590.414062 894.070312 589.207031 913.449219 L 578.417969 1086.082031 L 571.453125 1085.644531 Z M 582.234375 913.011719 " fill-opacity="1" fill-rule="evenodd"/><path fill="#8d95ff" d="M 722.761719 1035.042969 C 722.871094 1051.425781 709.675781 1064.800781 693.289062 1064.910156 C 676.902344 1065.023438 663.527344 1051.828125 663.417969 1035.441406 C 663.304688 1019.054688 676.5 1005.679688 692.886719 1005.570312 C 709.277344 1005.460938 722.648438 1018.652344 722.761719 1035.042969 Z M 722.761719 1035.042969 " fill-opacity="1" fill-rule="nonzero"/><path fill="#402037" d="M 692.910156 1009.058594 C 678.453125 1009.15625 666.808594 1020.960938 666.910156 1035.417969 C 667.007812 1049.878906 678.804688 1061.519531 693.265625 1061.421875 C 707.726562 1061.324219 719.367188 1049.523438 719.269531 1035.066406 C 719.171875 1020.601562 707.371094 1008.960938 692.910156 1009.058594 Z M 659.925781 1035.46875 C 659.800781 1017.152344 674.550781 1002.203125 692.863281 1002.078125 C 711.179688 1001.957031 726.125 1016.699219 726.253906 1035.015625 C 726.375 1053.332031 711.628906 1068.28125 693.3125 1068.402344 C 674.996094 1068.527344 660.046875 1053.78125 659.925781 1035.46875 Z M 659.925781 1035.46875 " fill-opacity="1" fill-rule="evenodd"/><path fill="#402037" d="M 631.734375 918.214844 C 629.917969 918.121094 628.332031 919.445312 628.097656 921.253906 L 621.65625 971.207031 L 614.734375 970.316406 L 621.175781 920.359375 C 621.875 914.9375 626.628906 910.964844 632.089844 911.238281 L 690.511719 914.195312 L 690.15625 921.171875 Z M 631.734375 918.214844 " fill-opacity="1" fill-rule="evenodd"/><path fill="#ffc25e" d="M 213.773438 299.117188 C 224.375 301.550781 235.433594 302.835938 246.800781 302.835938 C 258.167969 302.835938 269.226562 301.550781 279.832031 299.117188 C 342.949219 284.625 389.921875 229.515625 389.921875 163.746094 C 389.921875 114.3125 363.386719 70.898438 323.402344 46.234375 C 353.640625 187.9375 305.261719 290.746094 143.992188 260.515625 C 162.679688 279.261719 186.746094 292.914062 213.773438 299.117188 Z M 213.773438 299.117188 " fill-opacity="1" fill-rule="nonzero"/><path fill="#402037" d="M 215.457031 31.574219 C 177.816406 66.628906 158.539062 113.304688 157.628906 160.257812 L 243.308594 160.257812 L 243.308594 28.1875 C 233.753906 28.414062 224.4375 29.574219 215.457031 31.574219 Z M 250.289062 28.1875 L 250.289062 160.257812 L 335.96875 160.257812 C 335.058594 113.304688 315.785156 66.628906 278.144531 31.574219 C 269.164062 29.574219 259.847656 28.414062 250.289062 28.1875 Z M 291.847656 35.355469 C 325.078125 70.601562 342.113281 115.308594 342.949219 160.257812 L 386.386719 160.257812 C 384.875 102.25 345.835938 53.210938 291.847656 35.355469 Z M 386.386719 167.238281 L 342.949219 167.238281 C 342.113281 212.183594 325.078125 256.890625 291.847656 292.132812 C 345.835938 274.277344 384.875 225.242188 386.386719 167.238281 Z M 278.144531 295.917969 C 315.785156 260.863281 335.058594 214.191406 335.96875 167.238281 L 250.289062 167.238281 L 250.289062 299.304688 C 259.847656 299.078125 269.164062 297.917969 278.144531 295.917969 Z M 243.308594 299.304688 L 243.308594 167.238281 L 157.628906 167.238281 C 158.539062 214.191406 177.816406 260.863281 215.457031 295.917969 C 224.4375 297.917969 233.753906 299.078125 243.308594 299.304688 Z M 201.75 292.132812 C 168.519531 256.890625 151.484375 212.183594 150.648438 167.238281 L 107.214844 167.238281 C 108.722656 225.242188 147.765625 274.277344 201.75 292.132812 Z M 107.214844 160.257812 L 150.648438 160.257812 C 151.484375 115.308594 168.519531 70.601562 201.75 35.355469 C 147.765625 53.210938 108.722656 102.25 107.214844 160.257812 Z M 212.992188 24.976562 C 223.847656 22.484375 235.167969 21.164062 246.800781 21.164062 C 258.429688 21.164062 269.753906 22.484375 280.609375 24.976562 C 345.214844 39.804688 393.414062 96.25 393.414062 163.746094 C 393.414062 231.246094 345.214844 287.6875 280.609375 302.519531 C 269.753906 305.011719 258.429688 306.328125 246.800781 306.328125 C 235.167969 306.328125 223.847656 305.011719 212.992188 302.519531 C 148.382812 287.6875 100.1875 231.246094 100.1875 163.746094 C 100.1875 96.25 148.382812 39.804688 212.992188 24.976562 Z M 212.992188 24.976562 " fill-opacity="1" fill-rule="evenodd"/><path fill="#ffc25e" d="M 1235.019531 362.296875 C 1235.019531 389.480469 1212.984375 411.515625 1185.804688 411.515625 L 807.851562 411.515625 C 806.765625 411.515625 805.734375 412.027344 805.074219 412.894531 L 745.59375 491.15625 C 743.574219 493.816406 739.324219 492.386719 739.324219 489.042969 L 739.324219 414.644531 C 739.324219 412.8125 737.902344 411.304688 736.089844 411.054688 C 712.101562 407.765625 693.625 387.1875 693.625 362.296875 L 693.625 295.191406 C 864.890625 285.304688 1212.9375 237.59375 1235.019531 125.886719 Z M 1235.019531 362.296875 " fill-opacity="1" fill-rule="nonzero"/><path fill="#402037" d="M 1238.511719 52.929688 C 1238.511719 23.816406 1214.914062 0.21875 1185.804688 0.21875 L 742.839844 0.21875 C 713.730469 0.21875 690.132812 23.816406 690.132812 52.929688 L 690.132812 362.296875 C 690.132812 388.957031 709.921875 410.988281 735.613281 414.515625 C 735.703125 414.527344 735.769531 414.570312 735.8125 414.613281 C 735.828125 414.628906 735.835938 414.640625 735.835938 414.644531 L 735.835938 489.042969 C 735.835938 495.730469 744.332031 498.589844 748.375 493.269531 L 807.851562 415.007812 L 1185.804688 415.007812 C 1214.914062 415.007812 1238.511719 391.410156 1238.511719 362.296875 Z M 1185.804688 7.199219 C 1211.058594 7.199219 1231.527344 27.675781 1231.527344 52.929688 L 1231.527344 362.296875 C 1231.527344 387.550781 1211.058594 408.027344 1185.804688 408.027344 L 807.851562 408.027344 C 805.671875 408.027344 803.613281 409.046875 802.296875 410.785156 L 742.816406 489.042969 L 742.816406 414.644531 C 742.816406 410.921875 739.960938 408.0625 736.5625 407.597656 C 714.28125 404.539062 697.113281 385.417969 697.113281 362.296875 L 697.113281 52.929688 C 697.113281 27.675781 717.585938 7.199219 742.839844 7.199219 Z M 1185.804688 7.199219 " fill-opacity="1" fill-rule="evenodd"/><path fill="#8d95ff" d="M 746.382812 256.832031 C 746.382812 254.902344 747.945312 253.339844 749.875 253.339844 L 1094.398438 253.339844 C 1096.328125 253.339844 1097.890625 254.902344 1097.890625 256.832031 C 1097.890625 258.757812 1096.328125 260.324219 1094.398438 260.324219 L 749.875 260.324219 C 747.945312 260.324219 746.382812 258.757812 746.382812 256.832031 Z M 753.414062 291.988281 C 753.414062 290.058594 754.972656 288.496094 756.90625 288.496094 L 883.464844 288.496094 C 885.390625 288.496094 886.953125 290.058594 886.953125 291.988281 C 886.953125 293.914062 885.390625 295.480469 883.464844 295.480469 L 756.90625 295.480469 C 754.972656 295.480469 753.414062 293.914062 753.414062 291.988281 Z M 922.160156 291.988281 C 922.160156 290.058594 923.722656 288.496094 925.648438 288.496094 L 988.933594 288.496094 C 990.859375 288.496094 992.421875 290.058594 992.421875 291.988281 C 992.421875 293.914062 990.859375 295.480469 988.933594 295.480469 L 925.648438 295.480469 C 923.722656 295.480469 922.160156 293.914062 922.160156 291.988281 Z M 1027.628906 291.988281 C 1027.628906 290.058594 1029.191406 288.496094 1031.117188 288.496094 L 1094.398438 288.496094 C 1096.328125 288.496094 1097.890625 290.058594 1097.890625 291.988281 C 1097.890625 293.914062 1096.328125 295.480469 1094.398438 295.480469 L 1031.117188 295.480469 C 1029.191406 295.480469 1027.628906 293.914062 1027.628906 291.988281 Z M 837.785156 334.175781 C 837.785156 332.242188 839.351562 330.683594 841.277344 330.683594 L 904.558594 330.683594 C 906.484375 330.683594 908.050781 332.242188 908.050781 334.175781 C 908.050781 336.101562 906.484375 337.664062 904.558594 337.664062 L 841.277344 337.664062 C 839.351562 337.664062 837.785156 336.101562 837.785156 334.175781 Z M 964.347656 334.175781 C 964.347656 332.242188 965.910156 330.683594 967.835938 330.683594 L 1094.398438 330.683594 C 1096.328125 330.683594 1097.890625 332.242188 1097.890625 334.175781 C 1097.890625 336.101562 1096.328125 337.664062 1094.398438 337.664062 L 967.835938 337.664062 C 965.910156 337.664062 964.347656 336.101562 964.347656 334.175781 Z M 964.347656 334.175781 " fill-opacity="1" fill-rule="evenodd"/><path fill="#ffc25e" d="M 1009.484375 35.5625 C 1011.171875 36.496094 1011.78125 38.621094 1010.851562 40.308594 L 902.636719 235.792969 C 901.699219 237.480469 899.578125 238.089844 897.890625 237.15625 C 896.203125 236.222656 895.59375 234.101562 896.527344 232.414062 L 1004.742188 36.925781 C 1005.675781 35.242188 1007.800781 34.628906 1009.484375 35.5625 Z M 1009.484375 35.5625 " fill-opacity="1" fill-rule="evenodd"/><path fill="#8d95ff" d="M 870.179688 42.746094 C 871.753906 43.859375 872.125 46.039062 871.015625 47.613281 L 799.90625 148.355469 L 869.921875 189.199219 C 871.589844 190.171875 872.148438 192.308594 871.179688 193.972656 C 870.207031 195.636719 868.070312 196.199219 866.40625 195.230469 L 796.386719 154.382812 C 792.847656 152.320312 791.839844 147.671875 794.199219 144.328125 L 865.3125 43.585938 C 866.425781 42.011719 868.601562 41.636719 870.179688 42.746094 Z M 870.179688 42.746094 " fill-opacity="1" fill-rule="evenodd"/><path fill="#8d95ff" d="M 1023.417969 77.539062 C 1021.777344 78.550781 1021.265625 80.703125 1022.28125 82.34375 L 1069.378906 158.597656 L 1023.316406 189.308594 C 1021.710938 190.378906 1021.277344 192.546875 1022.347656 194.148438 C 1023.417969 195.753906 1025.582031 196.1875 1027.1875 195.117188 L 1073.253906 164.40625 C 1076.382812 162.320312 1077.296875 158.128906 1075.320312 154.929688 L 1028.222656 78.671875 C 1027.207031 77.035156 1025.058594 76.523438 1023.417969 77.539062 Z M 1023.417969 77.539062 " fill-opacity="1" fill-rule="evenodd"/><path fill="#8d95ff" d="M 1129.972656 42.109375 C 1128.046875 42.109375 1126.484375 43.671875 1126.484375 45.601562 L 1126.484375 347.9375 C 1126.484375 349.867188 1128.046875 351.429688 1129.972656 351.429688 C 1131.902344 351.429688 1133.464844 349.867188 1133.464844 347.9375 L 1133.464844 45.601562 C 1133.464844 43.671875 1131.902344 42.109375 1129.972656 42.109375 Z M 1129.972656 42.109375 " fill-opacity="1" fill-rule="evenodd"/><path fill="#8d95ff" d="M 1171.863281 235.8125 C 1171.863281 245.519531 1179.730469 253.390625 1189.441406 253.390625 C 1199.148438 253.390625 1207.019531 245.519531 1207.019531 235.8125 C 1207.019531 226.101562 1199.148438 218.234375 1189.441406 218.234375 C 1179.730469 218.234375 1171.863281 226.101562 1171.863281 235.8125 Z M 1171.863281 235.8125 " fill-opacity="1" fill-rule="nonzero"/><path fill="#402037" d="M 1189.441406 221.726562 C 1197.222656 221.726562 1203.527344 228.03125 1203.527344 235.8125 C 1203.527344 243.589844 1197.222656 249.898438 1189.441406 249.898438 C 1181.664062 249.898438 1175.355469 243.589844 1175.355469 235.8125 C 1175.355469 228.03125 1181.664062 221.726562 1189.441406 221.726562 Z M 1210.511719 235.8125 C 1210.511719 224.175781 1201.078125 214.742188 1189.441406 214.742188 C 1177.804688 214.742188 1168.375 224.175781 1168.375 235.8125 C 1168.375 247.449219 1177.804688 256.882812 1189.441406 256.882812 C 1201.078125 256.882812 1210.511719 247.449219 1210.511719 235.8125 Z M 1210.511719 235.8125 " fill-opacity="1" fill-rule="evenodd"/><path fill="#8d95ff" d="M 1171.984375 73.648438 C 1171.984375 83.359375 1179.855469 91.226562 1189.5625 91.226562 C 1199.273438 91.226562 1207.140625 83.359375 1207.140625 73.648438 C 1207.140625 63.941406 1199.273438 56.074219 1189.5625 56.074219 C 1179.855469 56.074219 1171.984375 63.941406 1171.984375 73.648438 Z M 1171.984375 73.648438 " fill-opacity="1" fill-rule="nonzero"/><path fill="#402037" d="M 1189.5625 59.5625 C 1197.34375 59.5625 1203.652344 65.871094 1203.652344 73.648438 C 1203.652344 81.429688 1197.34375 87.738281 1189.5625 87.738281 C 1181.785156 87.738281 1175.476562 81.429688 1175.476562 73.648438 C 1175.476562 65.871094 1181.785156 59.5625 1189.5625 59.5625 Z M 1210.632812 73.648438 C 1210.632812 62.015625 1201.199219 52.582031 1189.5625 52.582031 C 1177.925781 52.582031 1168.496094 62.015625 1168.496094 73.648438 C 1168.496094 85.285156 1177.925781 94.71875 1189.5625 94.71875 C 1201.199219 94.71875 1210.632812 85.285156 1210.632812 73.648438 Z M 1210.632812 73.648438 " fill-opacity="1" fill-rule="evenodd"/><path fill="#8d95ff" d="M 1171.863281 320.1875 C 1171.863281 329.894531 1179.730469 337.761719 1189.441406 337.761719 C 1199.148438 337.761719 1207.019531 329.894531 1207.019531 320.1875 C 1207.019531 310.480469 1199.148438 302.605469 1189.441406 302.605469 C 1179.730469 302.605469 1171.863281 310.480469 1171.863281 320.1875 Z M 1171.863281 320.1875 " fill-opacity="1" fill-rule="nonzero"/><path fill="#402037" d="M 1189.441406 306.097656 C 1197.222656 306.097656 1203.527344 312.40625 1203.527344 320.1875 C 1203.527344 327.964844 1197.222656 334.273438 1189.441406 334.273438 C 1181.664062 334.273438 1175.355469 327.964844 1175.355469 320.1875 C 1175.355469 312.40625 1181.664062 306.097656 1189.441406 306.097656 Z M 1210.511719 320.1875 C 1210.511719 308.546875 1201.078125 299.117188 1189.441406 299.117188 C 1177.804688 299.117188 1168.375 308.546875 1168.375 320.1875 C 1168.375 331.820312 1177.804688 341.253906 1189.441406 341.253906 C 1201.078125 341.253906 1210.511719 331.820312 1210.511719 320.1875 Z M 1210.511719 320.1875 " fill-opacity="1" fill-rule="evenodd"/><path fill="#8d95ff" d="M 1171.984375 158.023438 C 1171.984375 167.730469 1179.855469 175.601562 1189.5625 175.601562 C 1199.273438 175.601562 1207.140625 167.730469 1207.140625 158.023438 C 1207.140625 148.316406 1199.273438 140.445312 1189.5625 140.445312 C 1179.855469 140.445312 1171.984375 148.316406 1171.984375 158.023438 Z M 1171.984375 158.023438 " fill-opacity="1" fill-rule="nonzero"/><path fill="#402037" d="M 1189.5625 143.9375 C 1197.34375 143.9375 1203.652344 150.242188 1203.652344 158.023438 C 1203.652344 165.804688 1197.34375 172.109375 1189.5625 172.109375 C 1181.785156 172.109375 1175.476562 165.804688 1175.476562 158.023438 C 1175.476562 150.242188 1181.785156 143.9375 1189.5625 143.9375 Z M 1210.632812 158.023438 C 1210.632812 146.386719 1201.199219 136.957031 1189.5625 136.957031 C 1177.925781 136.957031 1168.496094 146.386719 1168.496094 158.023438 C 1168.496094 169.660156 1177.925781 179.09375 1189.5625 179.09375 C 1201.199219 179.09375 1210.632812 169.660156 1210.632812 158.023438 Z M 1210.632812 158.023438 " fill-opacity="1" fill-rule="evenodd"/><path fill="#ffc25e" d="M 1102.046875 925.710938 L 1468.582031 925.710938 C 1484.003906 925.710938 1496.507812 913.207031 1496.507812 897.785156 L 1496.507812 626.160156 C 1496.507812 702.769531 1400.511719 871.175781 1074.121094 828.535156 L 1074.121094 897.785156 C 1074.121094 913.207031 1086.625 925.710938 1102.046875 925.710938 Z M 1102.046875 925.710938 " fill-opacity="1" fill-rule="nonzero"/><path fill="#402037" d="M 1070.628906 565.730469 C 1070.628906 548.378906 1084.695312 534.3125 1102.046875 534.3125 L 1468.582031 534.3125 C 1485.933594 534.3125 1500 548.378906 1500 565.730469 L 1500 897.78125 C 1500 915.136719 1485.933594 929.199219 1468.582031 929.199219 L 1102.046875 929.199219 C 1084.695312 929.199219 1070.628906 915.136719 1070.628906 897.78125 Z M 1102.046875 541.292969 C 1088.550781 541.292969 1077.613281 552.234375 1077.613281 565.730469 L 1077.613281 897.78125 C 1077.613281 911.277344 1088.550781 922.21875 1102.046875 922.21875 L 1468.582031 922.21875 C 1482.078125 922.21875 1493.019531 911.277344 1493.019531 897.78125 L 1493.019531 565.730469 C 1493.019531 552.234375 1482.078125 541.292969 1468.582031 541.292969 Z M 1102.046875 541.292969 " fill-opacity="1" fill-rule="evenodd"/><path fill="#8d95ff" d="M 1308.003906 738.738281 C 1308.003906 736.8125 1309.570312 735.246094 1311.496094 735.246094 L 1465.089844 735.246094 C 1467.019531 735.246094 1468.582031 736.8125 1468.582031 738.738281 C 1468.582031 740.667969 1467.019531 742.230469 1465.089844 742.230469 L 1311.496094 742.230469 C 1309.570312 742.230469 1308.003906 740.667969 1308.003906 738.738281 Z M 1308.003906 812.046875 C 1308.003906 810.117188 1309.570312 808.554688 1311.496094 808.554688 L 1465.089844 808.554688 C 1467.019531 808.554688 1468.582031 810.117188 1468.582031 812.046875 C 1468.582031 813.976562 1467.019531 815.535156 1465.089844 815.535156 L 1311.496094 815.535156 C 1309.570312 815.535156 1308.003906 813.976562 1308.003906 812.046875 Z M 1308.003906 812.046875 " fill-opacity="1" fill-rule="evenodd"/><path fill="#8d95ff" d="M 1308.003906 616.558594 C 1308.003906 614.632812 1309.570312 613.070312 1311.496094 613.070312 L 1465.089844 613.070312 C 1467.019531 613.070312 1468.582031 614.632812 1468.582031 616.558594 C 1468.582031 618.492188 1467.019531 620.050781 1465.089844 620.050781 L 1311.496094 620.050781 C 1309.570312 620.050781 1308.003906 618.492188 1308.003906 616.558594 Z M 1308.003906 689.867188 C 1308.003906 687.941406 1309.570312 686.375 1311.496094 686.375 L 1465.089844 686.375 C 1467.019531 686.375 1468.582031 687.941406 1468.582031 689.867188 C 1468.582031 691.796875 1467.019531 693.359375 1465.089844 693.359375 L 1311.496094 693.359375 C 1309.570312 693.359375 1308.003906 691.796875 1308.003906 689.867188 Z M 1308.003906 689.867188 " fill-opacity="1" fill-rule="evenodd"/><path fill="#402037" d="M 386.433594 188.722656 C 386.433594 186.796875 387.996094 185.230469 389.921875 185.230469 L 408.464844 185.230469 C 410.398438 185.230469 411.957031 186.796875 411.957031 188.722656 C 411.957031 190.652344 410.398438 192.214844 408.464844 192.214844 L 389.921875 192.214844 C 387.996094 192.214844 386.433594 190.652344 386.433594 188.722656 Z M 442.070312 188.722656 C 442.070312 186.796875 443.628906 185.230469 445.558594 185.230469 L 482.644531 185.230469 C 484.578125 185.230469 486.136719 186.796875 486.136719 188.722656 C 486.136719 190.652344 484.578125 192.214844 482.644531 192.214844 L 445.558594 192.214844 C 443.628906 192.214844 442.070312 190.652344 442.070312 188.722656 Z M 516.25 188.722656 C 516.25 186.796875 517.808594 185.230469 519.738281 185.230469 L 556.824219 185.230469 C 558.757812 185.230469 560.316406 186.796875 560.316406 188.722656 C 560.316406 190.652344 558.757812 192.214844 556.824219 192.214844 L 519.738281 192.214844 C 517.808594 192.214844 516.25 190.652344 516.25 188.722656 Z M 590.429688 188.722656 C 590.429688 186.796875 591.988281 185.230469 593.917969 185.230469 L 631.003906 185.230469 C 632.9375 185.230469 634.496094 186.796875 634.496094 188.722656 C 634.496094 190.652344 632.9375 192.214844 631.003906 192.214844 L 593.917969 192.214844 C 591.988281 192.214844 590.429688 190.652344 590.429688 188.722656 Z M 664.609375 188.722656 C 664.609375 186.796875 666.167969 185.230469 668.097656 185.230469 L 686.640625 185.230469 C 688.570312 185.230469 690.132812 186.796875 690.132812 188.722656 C 690.132812 190.652344 688.570312 192.214844 686.640625 192.214844 L 668.097656 192.214844 C 666.167969 192.214844 664.609375 190.652344 664.609375 188.722656 Z M 664.609375 188.722656 " fill-opacity="1" fill-rule="evenodd"/><path fill="#402037" d="M 1231.207031 279.484375 C 1231.207031 277.558594 1232.773438 275.992188 1234.699219 275.992188 L 1249.097656 275.992188 C 1251.023438 275.992188 1252.589844 277.558594 1252.589844 279.484375 C 1252.589844 281.410156 1251.023438 282.976562 1249.097656 282.976562 L 1234.699219 282.976562 C 1232.773438 282.976562 1231.207031 281.410156 1231.207031 279.484375 Z M 1274.40625 279.484375 C 1274.40625 277.558594 1275.96875 275.992188 1277.898438 275.992188 L 1292.296875 275.992188 C 1298.082031 275.992188 1302.769531 280.679688 1302.769531 286.464844 L 1302.769531 307.121094 C 1302.769531 309.046875 1301.207031 310.613281 1299.277344 310.613281 C 1297.351562 310.613281 1295.789062 309.046875 1295.789062 307.121094 L 1295.789062 286.464844 C 1295.789062 284.539062 1294.222656 282.976562 1292.296875 282.976562 L 1277.898438 282.976562 C 1275.96875 282.976562 1274.40625 281.410156 1274.40625 279.484375 Z M 1299.277344 344.9375 C 1301.207031 344.9375 1302.769531 346.5 1302.769531 348.425781 L 1302.769531 389.734375 C 1302.769531 391.664062 1301.207031 393.226562 1299.277344 393.226562 C 1297.351562 393.226562 1295.789062 391.664062 1295.789062 389.734375 L 1295.789062 348.425781 C 1295.789062 346.5 1297.351562 344.9375 1299.277344 344.9375 Z M 1299.277344 427.554688 C 1301.207031 427.554688 1302.769531 429.113281 1302.769531 431.042969 L 1302.769531 472.351562 C 1302.769531 474.277344 1301.207031 475.84375 1299.277344 475.84375 C 1297.351562 475.84375 1295.789062 474.277344 1295.789062 472.351562 L 1295.789062 431.042969 C 1295.789062 429.113281 1297.351562 427.554688 1299.277344 427.554688 Z M 1299.277344 510.167969 C 1301.207031 510.167969 1302.769531 511.730469 1302.769531 513.65625 L 1302.769531 534.3125 C 1302.769531 536.238281 1301.207031 537.804688 1299.277344 537.804688 C 1297.351562 537.804688 1295.789062 536.238281 1295.789062 534.3125 L 1295.789062 513.65625 C 1295.789062 511.730469 1297.351562 510.167969 1299.277344 510.167969 Z M 1299.277344 510.167969 " fill-opacity="1" fill-rule="evenodd"/><path fill="#402037" d="M 1297.53125 923.539062 C 1299.460938 923.539062 1301.023438 925.101562 1301.023438 927.027344 L 1301.023438 943.394531 C 1301.023438 945.320312 1299.460938 946.882812 1297.53125 946.882812 C 1295.605469 946.882812 1294.042969 945.320312 1294.042969 943.394531 L 1294.042969 927.027344 C 1294.042969 925.101562 1295.605469 923.539062 1297.53125 923.539062 Z M 1297.53125 972.625 C 1299.460938 972.625 1301.023438 974.191406 1301.023438 976.117188 L 1301.023438 1008.847656 C 1301.023438 1010.773438 1299.460938 1012.335938 1297.53125 1012.335938 C 1295.605469 1012.335938 1294.042969 1010.773438 1294.042969 1008.847656 L 1294.042969 976.117188 C 1294.042969 974.191406 1295.605469 972.625 1297.53125 972.625 Z M 1297.53125 1038.078125 C 1299.460938 1038.078125 1301.023438 1039.640625 1301.023438 1041.570312 L 1301.023438 1067.96875 C 1301.023438 1069.898438 1299.460938 1071.460938 1297.53125 1071.460938 C 1295.605469 1071.460938 1294.042969 1069.898438 1294.042969 1067.96875 L 1294.042969 1041.570312 C 1294.042969 1039.640625 1295.605469 1038.078125 1297.53125 1038.078125 Z M 1297.53125 1084.550781 C 1299.460938 1084.550781 1301.023438 1086.117188 1301.023438 1088.042969 L 1301.023438 1098.078125 C 1301.023438 1100.003906 1299.460938 1101.570312 1297.53125 1101.570312 C 1295.605469 1101.570312 1294.042969 1100.003906 1294.042969 1098.078125 L 1294.042969 1088.042969 C 1294.042969 1086.117188 1295.605469 1084.550781 1297.53125 1084.550781 Z M 1297.53125 1084.550781 " fill-opacity="1" fill-rule="evenodd"/><path fill="#402037" d="M 1328.949219 1042.226562 C 1328.949219 1058.609375 1315.664062 1071.898438 1299.277344 1071.898438 C 1282.890625 1071.898438 1269.605469 1058.609375 1269.605469 1042.226562 C 1269.605469 1025.839844 1282.890625 1012.554688 1299.277344 1012.554688 C 1315.664062 1012.554688 1328.949219 1025.839844 1328.949219 1042.226562 Z M 1328.949219 1042.226562 " fill-opacity="1" fill-rule="nonzero"/><path fill="#402037" d="M 1314.667969 1044.921875 C 1314.667969 1042.992188 1316.234375 1041.433594 1318.160156 1041.433594 L 1385.59375 1041.433594 C 1387.527344 1041.433594 1389.085938 1042.992188 1389.085938 1044.921875 C 1389.085938 1046.851562 1387.527344 1048.414062 1385.59375 1048.414062 L 1318.160156 1048.414062 C 1316.234375 1048.414062 1314.667969 1046.851562 1314.667969 1044.921875 Z M 1314.667969 1044.921875 " fill-opacity="1" fill-rule="evenodd"/><path fill="#402037" d="M 1206.773438 1044.921875 C 1206.773438 1042.992188 1208.335938 1041.433594 1210.261719 1041.433594 L 1277.699219 1041.433594 C 1279.625 1041.433594 1281.1875 1042.992188 1281.1875 1044.921875 C 1281.1875 1046.851562 1279.625 1048.414062 1277.699219 1048.414062 L 1210.261719 1048.414062 C 1208.335938 1048.414062 1206.773438 1046.851562 1206.773438 1044.921875 Z M 1206.773438 1044.921875 " fill-opacity="1" fill-rule="evenodd"/><path fill="#402037" d="M 1185.746094 598.363281 C 1145.714844 598.363281 1113.226562 631.023438 1113.226562 671.355469 C 1113.226562 680.273438 1117.605469 691.496094 1123.070312 701.882812 C 1128.460938 712.136719 1134.617188 721.046875 1137.613281 725.183594 C 1138.648438 726.621094 1139.761719 728.007812 1140.941406 729.472656 C 1141.074219 729.636719 1141.207031 729.800781 1141.339844 729.964844 C 1152.316406 743.636719 1159.289062 757.042969 1164.863281 767.765625 C 1166.003906 769.957031 1167.085938 772.039062 1168.132812 773.988281 C 1171.261719 779.8125 1173.953125 784.242188 1176.835938 787.214844 C 1179.585938 790.0625 1182.335938 791.417969 1185.746094 791.417969 C 1188.917969 791.417969 1192.367188 789.554688 1196.257812 785.445312 C 1200.101562 781.382812 1203.890625 775.628906 1207.742188 768.984375 C 1210.25 764.652344 1212.703125 760.089844 1215.179688 755.480469 C 1216.519531 753 1217.859375 750.503906 1219.222656 748.015625 C 1223.066406 741.019531 1227.039062 734.195312 1231.207031 728.742188 C 1231.445312 728.429688 1231.664062 728.152344 1231.871094 727.882812 C 1232.226562 727.421875 1232.558594 726.996094 1232.90625 726.519531 C 1235.148438 723.488281 1241.558594 714.554688 1247.386719 703.828125 C 1253.300781 692.957031 1258.273438 680.863281 1258.273438 671.355469 C 1258.273438 631.023438 1225.78125 598.363281 1185.746094 598.363281 Z M 1106.242188 671.355469 C 1106.242188 627.207031 1141.820312 591.378906 1185.746094 591.378906 C 1229.679688 591.378906 1265.253906 627.207031 1265.253906 671.355469 C 1265.253906 682.757812 1259.488281 696.1875 1253.519531 707.164062 C 1247.472656 718.289062 1240.855469 727.519531 1238.519531 730.671875 C 1238.128906 731.203125 1237.710938 731.742188 1237.320312 732.25 C 1237.121094 732.503906 1236.933594 732.746094 1236.753906 732.976562 C 1232.929688 737.988281 1229.167969 744.40625 1225.34375 751.378906 C 1224.042969 753.742188 1222.730469 756.183594 1221.410156 758.640625 C 1218.890625 763.320312 1216.339844 768.0625 1213.78125 772.484375 C 1209.871094 779.230469 1205.753906 785.566406 1201.328125 790.242188 C 1196.949219 794.875 1191.773438 798.398438 1185.746094 798.398438 C 1180.027344 798.398438 1175.558594 795.941406 1171.816406 792.070312 C 1168.191406 788.324219 1165.109375 783.113281 1161.980469 777.289062 C 1160.878906 775.238281 1159.757812 773.082031 1158.589844 770.839844 C 1153.015625 760.132812 1146.402344 747.417969 1135.894531 734.339844 C 1135.765625 734.175781 1135.628906 734.007812 1135.496094 733.839844 C 1134.335938 732.394531 1133.105469 730.867188 1131.953125 729.273438 C 1128.863281 725.003906 1122.5 715.800781 1116.890625 705.132812 C 1111.351562 694.601562 1106.242188 682.089844 1106.242188 671.355469 Z M 1106.242188 671.355469 " fill-opacity="1" fill-rule="evenodd"/><path fill="#ffc25e" d="M 1219.738281 645.007812 C 1217.28125 644.707031 1214.558594 646.734375 1213.78125 650.378906 L 1208.714844 674.105469 C 1215.703125 676.0625 1220.949219 675.472656 1224.644531 673.769531 C 1228.832031 671.839844 1231.492188 668.269531 1232.578125 664.183594 C 1233.679688 660.058594 1233.132812 655.550781 1231.015625 651.964844 C 1228.945312 648.464844 1225.292969 645.683594 1219.738281 645.007812 Z M 1207.253906 680.945312 C 1215.292969 683.113281 1222.136719 682.617188 1227.570312 680.109375 C 1233.839844 677.214844 1237.761719 671.851562 1239.324219 665.984375 C 1240.878906 660.160156 1240.15625 653.710938 1237.027344 648.414062 C 1233.847656 643.035156 1228.277344 639.015625 1220.585938 638.074219 C 1213.335938 637.191406 1208.207031 643.066406 1206.953125 648.917969 L 1202.246094 670.960938 C 1201.523438 670.300781 1200.832031 669.535156 1200.179688 668.683594 C 1197.292969 664.925781 1193.863281 661.085938 1189.820312 659.484375 C 1187.652344 658.632812 1185.277344 658.402344 1182.820312 659.160156 C 1180.429688 659.894531 1178.273438 661.460938 1176.289062 663.660156 C 1175.570312 664.457031 1174.882812 665.238281 1174.21875 665.996094 C 1172.96875 667.414062 1171.796875 668.75 1170.605469 669.960938 L 1166.273438 649.675781 C 1165.027344 643.828125 1159.894531 637.949219 1152.648438 638.835938 C 1137.855469 640.644531 1131.566406 653.492188 1133.445312 664.621094 C 1134.390625 670.214844 1137.394531 675.578125 1142.523438 679.089844 C 1147.6875 682.625 1154.65625 684.042969 1163.074219 682.382812 C 1164.078125 682.1875 1165.035156 681.910156 1165.949219 681.574219 L 1182.609375 759.5625 C 1183.011719 761.449219 1184.867188 762.648438 1186.753906 762.25 C 1187.421875 762.105469 1188.003906 761.777344 1188.460938 761.335938 C 1189.523438 760.921875 1190.363281 760 1190.621094 758.804688 Z M 1200.652344 678.429688 C 1198.203125 676.984375 1196.214844 674.996094 1194.632812 672.929688 C 1191.738281 669.144531 1189.320312 666.796875 1187.257812 665.984375 C 1186.371094 665.628906 1185.628906 665.597656 1184.871094 665.832031 C 1184.050781 666.082031 1182.90625 666.75 1181.46875 668.339844 C 1180.914062 668.957031 1180.339844 669.613281 1179.742188 670.292969 C 1177.5625 672.789062 1175.101562 675.597656 1172.296875 677.863281 L 1186.535156 744.515625 Z M 1164.46875 674.632812 L 1159.445312 651.136719 C 1158.667969 647.496094 1155.949219 645.464844 1153.496094 645.765625 C 1143.367188 647.003906 1138.984375 655.507812 1140.328125 663.457031 C 1140.996094 667.402344 1143.078125 671.007812 1146.46875 673.328125 C 1149.820312 675.625 1154.804688 676.898438 1161.726562 675.535156 C 1162.675781 675.34375 1163.585938 675.042969 1164.46875 674.632812 Z M 1164.46875 674.632812 " fill-opacity="1" fill-rule="evenodd"/><path fill="#402037" d="M 1187.082031 572.710938 C 1189.011719 572.710938 1190.574219 574.277344 1190.574219 576.203125 L 1190.574219 581.535156 C 1190.574219 583.464844 1189.011719 585.027344 1187.082031 585.027344 C 1185.152344 585.027344 1183.59375 583.464844 1183.59375 581.535156 L 1183.59375 576.203125 C 1183.59375 574.277344 1185.152344 572.710938 1187.082031 572.710938 Z M 1118.667969 602.085938 C 1119.945312 600.644531 1122.15625 600.515625 1123.59375 601.796875 L 1127.109375 604.917969 C 1128.550781 606.199219 1128.679688 608.40625 1127.398438 609.847656 C 1126.117188 611.289062 1123.910156 611.417969 1122.46875 610.136719 L 1118.957031 607.015625 C 1117.515625 605.734375 1117.386719 603.527344 1118.667969 602.085938 Z M 1254.3125 602.085938 C 1255.589844 603.527344 1255.460938 605.734375 1254.019531 607.015625 L 1250.507812 610.136719 C 1249.066406 611.417969 1246.859375 611.289062 1245.578125 609.847656 C 1244.296875 608.40625 1244.425781 606.199219 1245.867188 604.917969 L 1249.382812 601.796875 C 1250.824219 600.515625 1253.03125 600.644531 1254.3125 602.085938 Z M 1091.574219 668.21875 C 1091.574219 666.289062 1093.140625 664.730469 1095.066406 664.730469 L 1100.398438 664.730469 C 1102.328125 664.730469 1103.890625 666.289062 1103.890625 668.21875 C 1103.890625 670.148438 1102.328125 671.710938 1100.398438 671.710938 L 1095.066406 671.710938 C 1093.140625 671.710938 1091.574219 670.148438 1091.574219 668.21875 Z M 1270.273438 668.21875 C 1270.273438 666.289062 1271.835938 664.730469 1273.765625 664.730469 L 1279.097656 664.730469 C 1281.023438 664.730469 1282.589844 666.289062 1282.589844 668.21875 C 1282.589844 670.148438 1281.023438 671.710938 1279.097656 671.710938 L 1273.765625 671.710938 C 1271.835938 671.710938 1270.273438 670.148438 1270.273438 668.21875 Z M 1270.273438 668.21875 " fill-opacity="1" fill-rule="evenodd"/><path fill="#402037" d="M 1221.753906 778.902344 L 1221.753906 759.628906 C 1221.753906 759.230469 1221.429688 758.902344 1221.027344 758.902344 L 1153.140625 758.902344 C 1152.738281 758.902344 1152.410156 759.230469 1152.410156 759.628906 L 1152.410156 778.902344 C 1152.410156 798.054688 1167.933594 813.578125 1187.082031 813.578125 C 1206.230469 813.578125 1221.753906 798.054688 1221.753906 778.902344 Z M 1221.753906 778.902344 " fill-opacity="1" fill-rule="nonzero"/><path fill="#402037" d="M 1140.5625 768.082031 L 1233.535156 768.082031 L 1233.535156 775.992188 L 1140.5625 775.992188 Z M 1140.5625 768.082031 " fill-opacity="1" fill-rule="nonzero"/><path fill="#402037" d="M 1140.5625 787.859375 L 1233.535156 787.859375 L 1233.535156 795.773438 L 1140.5625 795.773438 Z M 1140.5625 787.859375 " fill-opacity="1" fill-rule="nonzero"/></svg>