<svg xmlns="http://www.w3.org/2000/svg" xmlns:xlink="http://www.w3.org/1999/xlink" width="2000" zoomAndPan="magnify" viewBox="0 0 1500 1499.999933" height="2000" preserveAspectRatio="xMidYMid meet" version="1.0"><defs><clipPath id="70636e1a3a"><path d="M 1102 104 L 1494.75 104 L 1494.75 505 L 1102 505 Z M 1102 104 " clip-rule="nonzero"/></clipPath></defs><path fill="#047aff" d="M 591.824219 1457.617188 C 589.582031 1457.242188 589.710938 1459.289062 580.234375 1454.675781 C 569.492188 1449.441406 561.3125 1439.472656 558.148438 1427.679688 C 558.128906 1427.609375 264.984375 335.503906 264.984375 335.503906 C 262.683594 326.933594 263.085938 317.667969 266.117188 309.34375 C 268.96875 301.496094 272.378906 296.800781 278.730469 291.789062 C 280.082031 290.722656 281.589844 289.015625 280.785156 287.46875 C 278.621094 287.460938 276.597656 288.488281 274.707031 289.566406 C 264.371094 295.464844 255.375 303.53125 246.726562 311.820312 C 234.550781 323.484375 215.480469 340.144531 220.964844 359.5 C 223.9375 370.007812 232.722656 408.105469 237.917969 424.136719 C 317.203125 719.511719 375.605469 937.09375 454.367188 1230.523438 C 463.621094 1265 492.515625 1372.644531 502.835938 1411.09375 C 502.835938 1411.683594 507.777344 1433.269531 512.90625 1439.875 C 522.710938 1452.5 526.433594 1448.722656 567.667969 1457.519531 C 576.464844 1459.398438 585.699219 1461.898438 594.648438 1459.558594 C 594.660156 1459.554688 592.386719 1457.710938 591.824219 1457.617188 Z M 331.292969 692.082031 L 290.664062 550.125 C 290 547.820312 291.285156 545.398438 293.527344 544.71875 C 295.753906 544.042969 298.125 545.355469 298.785156 547.664062 L 339.417969 689.617188 C 340.078125 691.925781 338.796875 694.347656 336.550781 695.027344 C 334.363281 695.699219 331.96875 694.429688 331.292969 692.082031 Z M 363.046875 803.890625 C 361.1875 803.890625 359.476562 802.617188 358.964844 800.679688 L 338.128906 721.828125 C 337.515625 719.507812 338.84375 717.113281 341.097656 716.484375 C 343.390625 715.832031 345.683594 717.222656 346.296875 719.542969 L 367.132812 798.390625 C 367.859375 801.152344 365.847656 803.890625 363.046875 803.890625 Z M 363.046875 803.890625 " fill-opacity="1" fill-rule="nonzero"/><path fill="#047aff" d="M 242.042969 919.214844 C 242.042969 920.367188 242.007812 921.523438 241.941406 922.675781 C 241.875 923.832031 241.773438 924.984375 241.636719 926.132812 C 241.503906 927.285156 241.335938 928.429688 241.136719 929.574219 C 240.933594 930.714844 240.699219 931.855469 240.433594 932.988281 C 240.167969 934.121094 239.867188 935.246094 239.535156 936.367188 C 239.199219 937.488281 238.835938 938.601562 238.4375 939.707031 C 238.039062 940.8125 237.609375 941.910156 237.148438 942.996094 C 236.6875 944.085938 236.195312 945.164062 235.671875 946.230469 C 235.148438 947.296875 234.59375 948.355469 234.007812 949.398438 C 233.421875 950.445312 232.804688 951.476562 232.160156 952.496094 C 231.515625 953.511719 230.839844 954.519531 230.136719 955.507812 C 229.433594 956.5 228.699219 957.476562 227.9375 958.4375 C 227.179688 959.398438 226.390625 960.34375 225.574219 961.269531 C 224.757812 962.199219 223.917969 963.109375 223.046875 964.003906 C 222.179688 964.894531 221.285156 965.769531 220.363281 966.625 C 219.445312 967.480469 218.5 968.320312 217.53125 969.136719 C 216.5625 969.953125 215.574219 970.75 214.558594 971.523438 C 213.542969 972.300781 212.507812 973.054688 211.449219 973.789062 C 210.390625 974.519531 209.308594 975.230469 208.210938 975.921875 C 207.109375 976.609375 205.992188 977.273438 204.851562 977.914062 C 203.714844 978.558594 202.558594 979.175781 201.382812 979.769531 C 200.207031 980.363281 199.015625 980.933594 197.808594 981.476562 C 196.601562 982.023438 195.378906 982.542969 194.140625 983.035156 C 192.902344 983.53125 191.652344 983.996094 190.386719 984.441406 C 189.121094 984.882812 187.84375 985.296875 186.554688 985.6875 C 185.265625 986.078125 183.964844 986.4375 182.652344 986.773438 C 181.34375 987.109375 180.023438 987.417969 178.695312 987.699219 C 177.367188 987.980469 176.03125 988.230469 174.6875 988.457031 C 173.34375 988.683594 171.996094 988.878906 170.640625 989.050781 C 169.285156 989.21875 167.929688 989.359375 166.566406 989.472656 C 165.203125 989.585938 163.835938 989.671875 162.46875 989.730469 C 161.101562 989.785156 159.734375 989.8125 158.363281 989.8125 C 156.992188 989.8125 155.625 989.785156 154.257812 989.730469 C 152.890625 989.671875 151.523438 989.585938 150.160156 989.472656 C 148.796875 989.359375 147.441406 989.21875 146.085938 989.050781 C 144.730469 988.878906 143.382812 988.683594 142.039062 988.457031 C 140.695312 988.230469 139.359375 987.980469 138.03125 987.699219 C 136.703125 987.417969 135.382812 987.109375 134.074219 986.773438 C 132.761719 986.4375 131.460938 986.078125 130.171875 985.6875 C 128.882812 985.296875 127.605469 984.882812 126.339844 984.441406 C 125.074219 983.996094 123.824219 983.53125 122.585938 983.035156 C 121.347656 982.542969 120.125 982.023438 118.917969 981.476562 C 117.710938 980.933594 116.519531 980.363281 115.34375 979.769531 C 114.167969 979.175781 113.011719 978.558594 111.875 977.914062 C 110.734375 977.273438 109.617188 976.609375 108.515625 975.921875 C 107.417969 975.230469 106.335938 974.519531 105.277344 973.789062 C 104.21875 973.054688 103.183594 972.300781 102.167969 971.523438 C 101.152344 970.75 100.164062 969.953125 99.195312 969.136719 C 98.226562 968.320312 97.28125 967.480469 96.363281 966.625 C 95.441406 965.769531 94.546875 964.894531 93.679688 964.003906 C 92.808594 963.109375 91.96875 962.199219 91.152344 961.269531 C 90.335938 960.34375 89.546875 959.398438 88.789062 958.4375 C 88.027344 957.476562 87.292969 956.5 86.589844 955.507812 C 85.886719 954.519531 85.210938 953.511719 84.566406 952.496094 C 83.921875 951.476562 83.304688 950.445312 82.71875 949.398438 C 82.132812 948.355469 81.578125 947.296875 81.054688 946.230469 C 80.53125 945.164062 80.039062 944.085938 79.578125 942.996094 C 79.117188 941.910156 78.6875 940.8125 78.289062 939.707031 C 77.890625 938.601562 77.527344 937.488281 77.191406 936.367188 C 76.859375 935.246094 76.558594 934.121094 76.292969 932.988281 C 76.027344 931.855469 75.792969 930.714844 75.589844 929.574219 C 75.390625 928.429688 75.222656 927.285156 75.089844 926.132812 C 74.953125 924.984375 74.851562 923.832031 74.785156 922.675781 C 74.71875 921.523438 74.683594 920.367188 74.683594 919.214844 C 74.683594 918.058594 74.71875 916.902344 74.785156 915.75 C 74.851562 914.59375 74.953125 913.441406 75.089844 912.292969 C 75.222656 911.144531 75.390625 909.996094 75.589844 908.855469 C 75.792969 907.710938 76.027344 906.574219 76.292969 905.441406 C 76.558594 904.304688 76.859375 903.179688 77.191406 902.058594 C 77.527344 900.9375 77.890625 899.824219 78.289062 898.71875 C 78.6875 897.613281 79.117188 896.515625 79.578125 895.429688 C 80.039062 894.339844 80.53125 893.261719 81.054688 892.195312 C 81.578125 891.128906 82.132812 890.070312 82.71875 889.027344 C 83.304688 887.984375 83.921875 886.949219 84.566406 885.933594 C 85.210938 884.914062 85.886719 883.90625 86.589844 882.917969 C 87.292969 881.925781 88.027344 880.949219 88.789062 879.988281 C 89.546875 879.027344 90.335938 878.085938 91.152344 877.15625 C 91.96875 876.226562 92.808594 875.316406 93.679688 874.425781 C 94.546875 873.53125 95.441406 872.65625 96.363281 871.800781 C 97.28125 870.945312 98.226562 870.109375 99.195312 869.289062 C 100.164062 868.472656 101.152344 867.675781 102.167969 866.902344 C 103.183594 866.125 104.21875 865.371094 105.277344 864.636719 C 106.335938 863.90625 107.417969 863.195312 108.515625 862.507812 C 109.617188 861.816406 110.734375 861.152344 111.875 860.511719 C 113.011719 859.867188 114.167969 859.25 115.34375 858.65625 C 116.519531 858.0625 117.710938 857.492188 118.917969 856.949219 C 120.125 856.402344 121.347656 855.882812 122.585938 855.390625 C 123.824219 854.898438 125.074219 854.429688 126.339844 853.988281 C 127.605469 853.542969 128.882812 853.128906 130.171875 852.738281 C 131.460938 852.351562 132.761719 851.988281 134.074219 851.652344 C 135.382812 851.316406 136.703125 851.007812 138.03125 850.726562 C 139.359375 850.449219 140.695312 850.195312 142.039062 849.96875 C 143.382812 849.742188 144.730469 849.546875 146.085938 849.375 C 147.441406 849.207031 148.796875 849.066406 150.160156 848.953125 C 151.523438 848.839844 152.890625 848.753906 154.257812 848.699219 C 155.625 848.640625 156.992188 848.613281 158.363281 848.613281 C 159.734375 848.613281 161.101562 848.640625 162.46875 848.699219 C 163.835938 848.753906 165.203125 848.839844 166.566406 848.953125 C 167.929688 849.066406 169.285156 849.207031 170.640625 849.375 C 171.996094 849.546875 173.34375 849.742188 174.6875 849.96875 C 176.03125 850.195312 177.367188 850.449219 178.695312 850.726562 C 180.023438 851.007812 181.34375 851.316406 182.652344 851.652344 C 183.964844 851.988281 185.265625 852.351562 186.554688 852.738281 C 187.84375 853.128906 189.121094 853.542969 190.386719 853.988281 C 191.652344 854.429688 192.902344 854.898438 194.140625 855.390625 C 195.378906 855.882812 196.601562 856.402344 197.808594 856.949219 C 199.015625 857.492188 200.207031 858.0625 201.382812 858.65625 C 202.558594 859.25 203.714844 859.867188 204.851562 860.511719 C 205.992188 861.152344 207.109375 861.816406 208.210938 862.503906 C 209.308594 863.195312 210.390625 863.90625 211.449219 864.636719 C 212.507812 865.371094 213.542969 866.125 214.558594 866.902344 C 215.574219 867.675781 216.5625 868.472656 217.53125 869.289062 C 218.5 870.109375 219.445312 870.945312 220.363281 871.800781 C 221.285156 872.65625 222.179688 873.53125 223.046875 874.425781 C 223.917969 875.316406 224.757812 876.226562 225.574219 877.15625 C 226.390625 878.085938 227.179688 879.027344 227.9375 879.988281 C 228.699219 880.949219 229.433594 881.925781 230.136719 882.917969 C 230.839844 883.90625 231.515625 884.914062 232.160156 885.933594 C 232.804688 886.949219 233.421875 887.984375 234.007812 889.027344 C 234.59375 890.070312 235.148438 891.128906 235.671875 892.195312 C 236.195312 893.261719 236.6875 894.339844 237.148438 895.429688 C 237.609375 896.515625 238.039062 897.613281 238.4375 898.71875 C 238.835938 899.824219 239.199219 900.9375 239.535156 902.058594 C 239.867188 903.179688 240.167969 904.304688 240.433594 905.441406 C 240.699219 906.574219 240.933594 907.710938 241.136719 908.855469 C 241.335938 909.996094 241.503906 911.144531 241.636719 912.292969 C 241.773438 913.441406 241.875 914.59375 241.941406 915.75 C 242.007812 916.902344 242.042969 918.058594 242.042969 919.214844 Z M 242.042969 919.214844 " fill-opacity="1" fill-rule="nonzero"/><path fill="#000000" d="M 1172.390625 1031.210938 C 1172.25 1032.003906 1172.097656 1032.800781 1171.941406 1033.601562 L 1107.992188 1294.40625 C 1106.882812 1292.234375 1105.898438 1290 1104.792969 1287.824219 L 1036.84375 1056.640625 C 1050.195312 1030.679688 1047.398438 1028.449219 1049.804688 1025.777344 C 1051.015625 1024.433594 1052.96875 1024.242188 1054.660156 1023.667969 C 1067.183594 1019.414062 1066.917969 1008.6875 1081.691406 1012.796875 C 1097.195312 1017.109375 1113.746094 1017.96875 1129.734375 1019.917969 C 1143.445312 1021.59375 1160.046875 1021.175781 1173.082031 1025.695312 C 1172.992188 1027.546875 1172.722656 1029.375 1172.390625 1031.210938 Z M 1172.390625 1031.210938 " fill-opacity="1" fill-rule="nonzero"/><g clip-path="url(#70636e1a3a)"><path fill="#000000" d="M 1102.773438 219.660156 C 1110.421875 150.765625 1169.699219 100.136719 1236.761719 104.898438 C 1280.515625 108.007812 1320.941406 135.484375 1344.957031 173.257812 C 1381.109375 230.113281 1381.527344 304.363281 1416.949219 361.609375 C 1434.625 390.175781 1462.503906 414.011719 1495.183594 417.964844 C 1483.828125 429.296875 1468.746094 436.320312 1453.125 438.460938 C 1442.085938 439.976562 1418.082031 440.734375 1410.386719 429.984375 C 1421.875 446.183594 1440.8125 456.515625 1460.285156 457.207031 C 1463.882812 457.335938 1467.734375 457.222656 1470.761719 459.234375 C 1435.550781 522.734375 1347.101562 512.988281 1300.652344 469.691406 C 1267.660156 438.9375 1250.949219 391.207031 1255.558594 345.640625 C 1257.773438 323.738281 1264.53125 301.5 1259.324219 280.144531 C 1254.175781 259.003906 1236.449219 241.53125 1215.597656 237.734375 C 1194.746094 233.9375 1171.980469 244.382812 1161.28125 263.1875 " fill-opacity="1" fill-rule="nonzero"/></g><path fill="#047aff" d="M 1290.542969 681.058594 C 1281.070312 702.007812 1269.089844 721.773438 1262.808594 743.90625 L 1188.976562 973.214844 C 1185.628906 985.871094 1182.59375 998.578125 1179.246094 1011.183594 C 1175.269531 1026.207031 1176.835938 1025.882812 1163.703125 1025.882812 C 1150.832031 1025.882812 1136.914062 1022.003906 1124.144531 1020.175781 C 1106.734375 1017.679688 1083.417969 1009.578125 1066.558594 1017.414062 C 1089.285156 1006.792969 1113.277344 999.058594 1137.828125 994.433594 C 1126.425781 974.140625 1118.363281 951.867188 1114.082031 928.839844 C 1051.757812 923.816406 1050.117188 907.359375 1032.53125 899.242188 C 1026.019531 896.234375 1017.757812 895.675781 1012.234375 900.328125 C 1022.664062 910.542969 1031.90625 922.039062 1039.699219 934.492188 C 1031.917969 915.21875 1012.019531 901.621094 991.738281 901.621094 L 893.027344 568.875 C 891.71875 568.449219 891.371094 566.582031 891.707031 565.210938 C 892.046875 563.839844 893.023438 562.75 893.960938 561.71875 C 926.566406 525.953125 954.835938 496.796875 1003.21875 491.226562 C 1023 488.964844 1038.75 495.265625 1057.691406 498.550781 C 1069.988281 500.648438 1082.230469 502.804688 1094.476562 505.011719 C 1095.105469 510.9375 1095.890625 516.804688 1096.464844 522.785156 C 1097.199219 530.429688 1096.570312 538.507812 1101.226562 544.59375 C 1105.832031 550.625 1112.109375 555.527344 1118.914062 557.304688 C 1143.925781 563.820312 1171.449219 553.585938 1188.035156 531.617188 C 1187.667969 528.492188 1187.355469 525.421875 1186.988281 522.300781 C 1205.25 526.5 1223.304688 531.777344 1241.09375 538.9375 C 1259.199219 546.265625 1276.519531 556.980469 1288.34375 572.921875 C 1311.890625 604.640625 1305.875 647.347656 1290.542969 681.058594 Z M 1290.542969 681.058594 " fill-opacity="1" fill-rule="nonzero"/><path fill="#000000" d="M 1117.816406 561.519531 C 1110.441406 559.59375 1103.324219 554.519531 1097.761719 547.238281 C 1093.25 541.339844 1092.824219 534.128906 1092.449219 527.765625 C 1091.5625 512.363281 1089.421875 508.441406 1089.019531 484.78125 C 1088.980469 482.375 1090.898438 480.390625 1093.304688 480.351562 C 1095.605469 480.359375 1097.695312 482.230469 1097.734375 484.632812 C 1098.121094 507.921875 1100.175781 510.734375 1101.148438 527.253906 C 1101.476562 532.863281 1101.792969 538.164062 1104.6875 541.949219 C 1109.011719 547.613281 1114.597656 551.675781 1120.015625 553.089844 C 1142.664062 558.992188 1167.960938 549.863281 1183.507812 530.347656 C 1183.386719 529.265625 1174.976562 453.304688 1174.863281 452.210938 C 1174.605469 449.816406 1176.339844 447.671875 1178.734375 447.417969 C 1181.121094 447.128906 1183.273438 448.894531 1183.523438 451.289062 C 1192.355469 534.503906 1193.433594 531.695312 1191.511719 534.238281 C 1174.28125 557.066406 1144.789062 568.550781 1117.816406 561.519531 Z M 1117.816406 561.519531 " fill-opacity="1" fill-rule="nonzero"/><path fill="#000000" d="M 1176.320312 455.347656 C 1174.53125 453.742188 1174.378906 450.988281 1175.988281 449.199219 C 1186.5 437.480469 1193.183594 423.132812 1196.414062 405.324219 L 1196.601562 404.269531 C 1197.136719 401.101562 1200.847656 399.542969 1203.492188 401.5 C 1207.464844 404.453125 1213.789062 405.429688 1219.601562 404.003906 C 1224.894531 402.707031 1229.558594 398.949219 1232.074219 393.953125 C 1234.582031 388.964844 1235.21875 382.554688 1233.960938 374.898438 C 1232.183594 364.074219 1226.710938 353.667969 1215.832031 353.433594 C 1210.339844 353.300781 1204.507812 355.964844 1200.113281 360.511719 C 1198.4375 362.246094 1195.683594 362.292969 1193.953125 360.621094 C 1192.222656 358.949219 1192.171875 356.191406 1193.84375 354.460938 C 1210.265625 337.46875 1237.339844 341.707031 1242.558594 373.484375 C 1244.121094 383 1243.210938 391.203125 1239.855469 397.867188 C 1233.058594 411.367188 1217.261719 416.503906 1204.042969 411.578125 C 1200.230469 428.871094 1193.144531 443.121094 1182.472656 455.015625 C 1180.871094 456.804688 1178.121094 456.957031 1176.320312 455.347656 Z M 1176.320312 455.347656 " fill-opacity="1" fill-rule="nonzero"/><path fill="#000000" d="M 1053.332031 461.609375 C 1033.957031 438.132812 1021.40625 401.515625 1019.761719 363.660156 C 1018.335938 330.746094 1028.824219 292.265625 1050.253906 267.789062 C 1051.839844 265.984375 1054.59375 265.792969 1056.402344 267.378906 C 1058.214844 268.964844 1058.398438 271.714844 1056.8125 273.523438 C 1036.898438 296.269531 1027.128906 332.421875 1028.46875 363.28125 C 1030.015625 398.878906 1042.480469 440.761719 1067.925781 464.453125 C 1082.082031 477.652344 1099.75 484.40625 1116.410156 483.0625 C 1124.824219 482.375 1134.164062 479.558594 1143.429688 474.921875 C 1145.585938 473.847656 1148.199219 474.71875 1149.273438 476.863281 C 1150.351562 479.015625 1149.480469 481.632812 1147.332031 482.710938 C 1137.082031 487.84375 1126.632812 490.96875 1117.125 491.746094 C 1092.550781 493.777344 1069.269531 480.925781 1053.332031 461.609375 Z M 1053.332031 461.609375 " fill-opacity="1" fill-rule="nonzero"/><path fill="#000000" d="M 1021.042969 365.988281 C 1019.214844 364.429688 1018.996094 361.679688 1020.558594 359.851562 C 1023.246094 356.703125 1026.898438 355.347656 1030.109375 354.332031 C 1038.640625 351.628906 1045.695312 350.535156 1052.355469 350.867188 C 1054.757812 350.988281 1056.605469 353.03125 1056.484375 355.4375 C 1056.363281 357.839844 1054.40625 359.703125 1051.910156 359.566406 C 1046.347656 359.269531 1040.246094 360.257812 1032.746094 362.632812 C 1030.589844 363.316406 1028.382812 364.105469 1027.183594 365.503906 C 1025.632812 367.328125 1022.878906 367.558594 1021.042969 365.988281 Z M 1021.042969 365.988281 " fill-opacity="1" fill-rule="nonzero"/><path fill="#000000" d="M 1202.019531 291.0625 C 1196.1875 269.617188 1188.46875 248.792969 1171.859375 233.761719 C 1156.847656 220.175781 1134.1875 218.09375 1116.195312 226.828125 C 1115.257812 227.285156 1114.273438 227.796875 1113.203125 227.894531 C 1110.347656 228.097656 1108.308594 225.269531 1106.523438 223 C 1097.742188 212.167969 1082.035156 209.203125 1068.796875 212.933594 C 1058.199219 215.921875 1049.21875 221.101562 1041.617188 227.835938 C 1042.230469 228.960938 1042.824219 230.019531 1043.398438 230.847656 C 1045.738281 234.179688 1046.65625 237.105469 1051.304688 236.84375 C 1054.679688 236.648438 1056.902344 231.425781 1059.398438 231.199219 C 1062.585938 227.632812 1067.710938 223.894531 1071.546875 226.71875 C 1073.417969 228.128906 1073.761719 229.636719 1080.835938 244.113281 C 1081.332031 245.125 1081.835938 246.1875 1082.761719 246.84375 C 1084.730469 248.253906 1087.5 246.996094 1089.304688 245.300781 C 1091.0625 243.609375 1092.621094 241.410156 1094.917969 240.671875 C 1099.222656 239.332031 1103.121094 243.527344 1105.75 247.25 C 1113.34375 258.03125 1120.886719 268.765625 1128.476562 279.496094 C 1120.816406 275.167969 1113.160156 270.890625 1105.445312 266.566406 C 1100.695312 263.824219 1095.476562 261.074219 1090.054688 261.882812 C 1083.5625 262.835938 1077.664062 268.917969 1071.332031 266.957031 C 1070.789062 260.558594 1069.273438 254.246094 1066.769531 248.34375 C 1065.34375 244.964844 1063.441406 245.511719 1061.175781 248.425781 C 1057.527344 253.191406 1052.496094 256.820312 1046.898438 258.59375 C 1045.394531 259.046875 1043.730469 259.410156 1042.242188 258.804688 C 1040.457031 258.113281 1040.269531 257.449219 1029.207031 242.085938 C 1014.574219 263.78125 1016.570312 279.464844 1006.246094 292.53125 C 999.910156 300.558594 987.566406 304.910156 979.710938 298.457031 C 989.160156 315.753906 1000.539062 334.636719 1019.210938 339.585938 C 1033.550781 343.390625 1049.007812 337.601562 1060.554688 328.054688 C 1072.101562 318.507812 1080.457031 305.578125 1088.628906 292.863281 C 1103.382812 324.507812 1140.132812 339.054688 1171.949219 324.855469 C 1172.785156 324.480469 1173.664062 324.078125 1174.574219 324.171875 C 1176.746094 324.394531 1177.683594 327.0625 1178.136719 329.257812 C 1181.410156 345.144531 1183.851562 362.457031 1188.363281 377.945312 C 1188.023438 376.773438 1194.042969 369.308594 1194.914062 367.625 C 1197.191406 363.242188 1199.003906 358.429688 1200.777344 353.8125 C 1210.097656 329.550781 1208.792969 315.964844 1202.019531 291.0625 Z M 1202.019531 291.0625 " fill-opacity="1" fill-rule="nonzero"/><path fill="#000000" d="M 1214.535156 380.464844 C 1214.335938 378.007812 1214.019531 375.449219 1213.058594 373.394531 C 1212.265625 371.6875 1211.003906 370.441406 1209.757812 370.136719 C 1208.90625 369.9375 1207.886719 370.386719 1207.6875 370.890625 C 1206.808594 373.128906 1204.277344 374.230469 1202.039062 373.347656 C 1199.800781 372.464844 1198.699219 369.933594 1199.582031 367.695312 C 1201.394531 363.089844 1206.757812 360.441406 1211.824219 361.675781 C 1215.691406 362.617188 1219.023438 365.550781 1220.960938 369.71875 C 1222.496094 373.015625 1222.953125 376.492188 1223.21875 379.761719 C 1223.414062 382.160156 1221.628906 384.261719 1219.230469 384.457031 C 1216.710938 384.636719 1214.722656 382.773438 1214.535156 380.464844 Z M 1214.535156 380.464844 " fill-opacity="1" fill-rule="nonzero"/><path fill="#000000" d="M 1069.886719 406.257812 C 1065.894531 398.867188 1070.476562 391.085938 1072.703125 385.222656 C 1075.203125 378.65625 1075 370.917969 1072.140625 364.003906 C 1071.226562 361.78125 1072.285156 359.234375 1074.507812 358.316406 C 1076.742188 357.398438 1079.277344 358.464844 1080.199219 360.679688 C 1083.890625 369.625 1084.128906 379.699219 1080.851562 388.320312 C 1079.007812 393.167969 1075.785156 398.84375 1077.554688 402.121094 C 1078.855469 404.53125 1082.890625 405.359375 1089.515625 404.5625 C 1091.921875 404.261719 1094.074219 405.984375 1094.359375 408.371094 C 1094.644531 410.757812 1092.9375 412.929688 1090.550781 413.210938 C 1082.394531 414.195312 1073.792969 413.488281 1069.886719 406.257812 Z M 1069.886719 406.257812 " fill-opacity="1" fill-rule="nonzero"/><path fill="#000000" d="M 1091.585938 441.0625 C 1089.285156 440.371094 1087.980469 437.9375 1088.675781 435.636719 C 1089.371094 433.332031 1091.800781 432.039062 1094.105469 432.722656 C 1098.457031 434.046875 1103.722656 431.894531 1106.066406 427.851562 C 1107.269531 425.769531 1109.941406 425.066406 1112.023438 426.269531 C 1114.101562 427.476562 1114.808594 430.144531 1113.605469 432.222656 C 1109.246094 439.738281 1099.78125 443.527344 1091.585938 441.0625 Z M 1091.585938 441.0625 " fill-opacity="1" fill-rule="nonzero"/><path fill="#000000" d="M 1126.234375 368.789062 C 1126.378906 369.605469 1126.484375 370.421875 1126.546875 371.238281 C 1126.609375 372.054688 1126.628906 372.855469 1126.605469 373.636719 C 1126.582031 374.421875 1126.519531 375.171875 1126.414062 375.890625 C 1126.308594 376.613281 1126.160156 377.285156 1125.976562 377.914062 C 1125.792969 378.542969 1125.570312 379.117188 1125.3125 379.628906 C 1125.054688 380.144531 1124.765625 380.589844 1124.445312 380.96875 C 1124.125 381.347656 1123.78125 381.652344 1123.410156 381.882812 C 1123.039062 382.113281 1122.652344 382.261719 1122.246094 382.335938 C 1121.839844 382.40625 1121.425781 382.398438 1120.996094 382.308594 C 1120.570312 382.21875 1120.144531 382.050781 1119.710938 381.804688 C 1119.28125 381.554688 1118.859375 381.234375 1118.441406 380.839844 C 1118.023438 380.445312 1117.621094 379.984375 1117.230469 379.457031 C 1116.839844 378.929688 1116.472656 378.34375 1116.128906 377.703125 C 1115.78125 377.0625 1115.464844 376.378906 1115.175781 375.652344 C 1114.890625 374.921875 1114.632812 374.164062 1114.414062 373.375 C 1114.195312 372.585938 1114.011719 371.785156 1113.867188 370.964844 C 1113.722656 370.148438 1113.621094 369.332031 1113.558594 368.515625 C 1113.496094 367.699219 1113.476562 366.898438 1113.496094 366.117188 C 1113.519531 365.332031 1113.582031 364.582031 1113.6875 363.863281 C 1113.796875 363.140625 1113.941406 362.46875 1114.125 361.839844 C 1114.3125 361.210938 1114.53125 360.636719 1114.789062 360.125 C 1115.046875 359.609375 1115.335938 359.164062 1115.65625 358.785156 C 1115.976562 358.40625 1116.320312 358.101562 1116.691406 357.871094 C 1117.0625 357.640625 1117.449219 357.492188 1117.855469 357.417969 C 1118.261719 357.347656 1118.679688 357.355469 1119.105469 357.445312 C 1119.53125 357.535156 1119.960938 357.703125 1120.390625 357.949219 C 1120.820312 358.199219 1121.246094 358.519531 1121.664062 358.914062 C 1122.078125 359.308594 1122.484375 359.769531 1122.871094 360.296875 C 1123.261719 360.824219 1123.628906 361.410156 1123.972656 362.050781 C 1124.320312 362.691406 1124.636719 363.375 1124.925781 364.101562 C 1125.214844 364.832031 1125.46875 365.589844 1125.6875 366.378906 C 1125.910156 367.167969 1126.09375 367.96875 1126.234375 368.789062 Z M 1126.234375 368.789062 " fill-opacity="1" fill-rule="nonzero"/><path fill="#000000" d="M 1053.742188 382.589844 C 1053.886719 383.40625 1053.988281 384.222656 1054.050781 385.039062 C 1054.113281 385.855469 1054.132812 386.65625 1054.109375 387.4375 C 1054.089844 388.222656 1054.023438 388.972656 1053.917969 389.691406 C 1053.8125 390.414062 1053.667969 391.085938 1053.480469 391.714844 C 1053.296875 392.34375 1053.074219 392.917969 1052.816406 393.429688 C 1052.558594 393.945312 1052.269531 394.390625 1051.953125 394.769531 C 1051.632812 395.148438 1051.285156 395.453125 1050.914062 395.683594 C 1050.546875 395.914062 1050.15625 396.0625 1049.75 396.136719 C 1049.347656 396.207031 1048.929688 396.199219 1048.503906 396.109375 C 1048.078125 396.019531 1047.648438 395.851562 1047.21875 395.605469 C 1046.789062 395.355469 1046.363281 395.035156 1045.945312 394.640625 C 1045.527344 394.246094 1045.125 393.785156 1044.734375 393.257812 C 1044.347656 392.730469 1043.980469 392.144531 1043.632812 391.503906 C 1043.289062 390.863281 1042.972656 390.179688 1042.683594 389.453125 C 1042.394531 388.722656 1042.140625 387.964844 1041.917969 387.175781 C 1041.699219 386.386719 1041.515625 385.585938 1041.371094 384.765625 C 1041.226562 383.949219 1041.125 383.132812 1041.0625 382.316406 C 1041 381.5 1040.980469 380.699219 1041.003906 379.917969 C 1041.023438 379.132812 1041.089844 378.382812 1041.195312 377.660156 C 1041.300781 376.941406 1041.445312 376.269531 1041.632812 375.640625 C 1041.816406 375.011719 1042.039062 374.4375 1042.296875 373.925781 C 1042.554688 373.410156 1042.839844 372.964844 1043.160156 372.585938 C 1043.480469 372.207031 1043.828125 371.902344 1044.195312 371.671875 C 1044.566406 371.441406 1044.957031 371.292969 1045.363281 371.21875 C 1045.765625 371.148438 1046.183594 371.15625 1046.609375 371.246094 C 1047.035156 371.335938 1047.464844 371.503906 1047.894531 371.75 C 1048.324219 372 1048.75 372.320312 1049.167969 372.714844 C 1049.585938 373.109375 1049.988281 373.570312 1050.378906 374.097656 C 1050.765625 374.625 1051.132812 375.210938 1051.480469 375.851562 C 1051.824219 376.492188 1052.140625 377.175781 1052.429688 377.902344 C 1052.71875 378.632812 1052.972656 379.390625 1053.195312 380.179688 C 1053.414062 380.96875 1053.597656 381.769531 1053.742188 382.589844 Z M 1053.742188 382.589844 " fill-opacity="1" fill-rule="nonzero"/><path fill="#000000" d="M 1143.484375 353.578125 C 1132.40625 347.078125 1117.0625 346.816406 1105.320312 352.914062 C 1103.1875 354.027344 1100.558594 353.195312 1099.449219 351.054688 C 1098.339844 348.921875 1099.167969 346.292969 1101.304688 345.183594 C 1115.832031 337.632812 1134.113281 337.980469 1147.894531 346.0625 C 1149.96875 347.277344 1150.664062 349.945312 1149.449219 352.023438 C 1148.226562 354.105469 1145.550781 354.789062 1143.484375 353.578125 Z M 1143.484375 353.578125 " fill-opacity="1" fill-rule="nonzero"/><path fill="#047aff" d="M 1174.164062 244.234375 C 1156.109375 225.335938 1128.261719 217.128906 1103.230469 223.292969 C 1100.921875 223.878906 1098.535156 222.445312 1097.957031 220.109375 C 1097.378906 217.773438 1098.804688 215.410156 1101.144531 214.835938 C 1129.148438 207.921875 1160.285156 217.097656 1180.464844 238.214844 C 1182.128906 239.953125 1182.0625 242.714844 1180.324219 244.375 C 1178.589844 246.03125 1175.828125 245.976562 1174.164062 244.234375 Z M 1174.164062 244.234375 " fill-opacity="1" fill-rule="nonzero"/><path fill="#000000" d="M 1013.601562 913.015625 C 1013.601562 907.292969 1022.257812 907.289062 1022.257812 913.015625 C 1022.257812 914.285156 1021.957031 915.03125 1021.039062 916.097656 C 1018.414062 918.71875 1013.601562 917.105469 1013.601562 913.015625 Z M 1013.601562 913.015625 " fill-opacity="1" fill-rule="nonzero"/><path fill="#000000" d="M 1024.863281 780.652344 C 1000.703125 765.996094 984.46875 740.382812 982.5 713.804688 C 978.914062 665.355469 1022.371094 633.25 1042.023438 643.671875 C 1051.921875 648.914062 1055.703125 664.207031 1055.914062 675.222656 C 1058.878906 672.804688 1062.371094 670.585938 1066.390625 668.578125 C 1075.613281 663.972656 1089.394531 659.449219 1102.734375 664.074219 C 1116.613281 668.890625 1126.785156 683.117188 1128.042969 699.464844 C 1129.117188 713.363281 1123.898438 728.339844 1113.722656 740.554688 C 1105.753906 750.125 1094.699219 758.371094 1079.925781 765.757812 C 1077.785156 766.839844 1075.160156 765.964844 1074.078125 763.8125 C 1073.003906 761.660156 1073.875 759.042969 1076.027344 757.964844 C 1089.699219 751.125 1099.839844 743.609375 1107.03125 734.980469 C 1115.761719 724.496094 1120.257812 711.792969 1119.359375 700.132812 C 1118.375 687.390625 1110.363281 675.945312 1099.875 672.304688 C 1089.417969 668.664062 1078.011719 672.503906 1070.289062 676.371094 C 1061.328125 680.851562 1055.675781 686.308594 1053.496094 692.585938 C 1052.71875 694.824219 1050.304688 696.035156 1048.03125 695.300781 C 1045.773438 694.566406 1044.519531 692.160156 1045.207031 689.890625 C 1048.046875 680.542969 1047.863281 670.308594 1044.695312 661.082031 C 1041.128906 650.6875 1035.273438 647.445312 1023.851562 652.84375 C 1003.066406 662.660156 989.332031 688.027344 991.191406 713.164062 C 992.957031 736.980469 1007.589844 759.984375 1029.382812 773.203125 C 1031.441406 774.453125 1032.09375 777.128906 1030.847656 779.1875 C 1029.59375 781.25 1026.914062 781.894531 1024.863281 780.652344 Z M 1024.863281 780.652344 " fill-opacity="1" fill-rule="nonzero"/><path fill="#047aff" d="M 1162.894531 1343.957031 C 1148.371094 1291.898438 1090.800781 1105.300781 1068.992188 1018.015625 C 1069.839844 1016.972656 1067.527344 1016.738281 1066.394531 1017.4375 C 1049.464844 1028.355469 1045.121094 1052.574219 1029.433594 1065.292969 C 1024.523438 1069.300781 1018.710938 1072.03125 1012.898438 1074.527344 C 967.542969 1094.011719 944.71875 1090.320312 910.984375 1067.269531 L 912.84375 1072.03125 L 917.699219 1093.984375 C 921.988281 1112.859375 910.816406 1130.808594 892.8125 1134.058594 L 681.195312 1172.332031 C 663.191406 1175.585938 645.132812 1162.921875 640.902344 1144.046875 C 640.902344 1144.046875 597.503906 951.109375 597.449219 950.820312 C 592.933594 930.78125 605.519531 914.113281 624.253906 911.152344 C 627.882812 910.570312 806.984375 883.714844 829.777344 880.3125 C 835.703125 880.3125 841.574219 882.75 846.03125 886.816406 C 851.957031 892.21875 854.945312 900.292969 857.429688 908.074219 C 863.46875 926.949219 867.925781 946.289062 870.804688 965.917969 L 873.0625 971.613281 C 875.714844 956.335938 881.695312 941.816406 892.023438 930.667969 C 898.511719 923.636719 906.46875 918.238281 914.539062 913.242188 C 952.277344 889.648438 971.96875 891.820312 1015.832031 906.15625 C 1016.566406 898.199219 1027.570312 893.84375 1033.328125 899.128906 C 1030.449219 878.453125 1022.492188 858.355469 1016.171875 838.378906 C 972.0625 698.476562 992.953125 766.066406 960.191406 655.082031 C 918.667969 513.492188 847.160156 271.671875 847.160156 270.773438 C 841.289062 250.734375 822.160156 238.191406 802.070312 241.09375 L 348.300781 306.722656 C 324.015625 310.183594 307.703125 335.027344 314.386719 359.921875 L 607.550781 1452.101562 C 613.191406 1473.066406 633.394531 1486.25 654.21875 1482.535156 C 666.898438 1480.28125 563.257812 1498.683594 1130.503906 1397.972656 C 1154.882812 1393.613281 1170.0625 1368.292969 1162.894531 1343.957031 Z M 862.734375 689.347656 L 890.894531 803.761719 C 895.746094 823.335938 885.195312 841.28125 867.304688 843.835938 L 742.367188 861.84375 C 724.476562 864.398438 706.136719 850.632812 701.339844 831.058594 L 673.125 716.585938 C 668.324219 697.070312 678.878906 679.125 696.769531 676.570312 L 821.707031 658.566406 C 839.539062 656.011719 857.9375 669.773438 862.734375 689.347656 Z M 633.675781 464.464844 L 758.675781 446.460938 C 776.507812 443.90625 794.902344 457.667969 799.699219 477.242188 L 827.859375 591.660156 C 832.65625 611.230469 822.101562 629.175781 804.269531 631.734375 L 679.273438 649.738281 C 661.441406 652.292969 643.101562 638.527344 638.25 618.957031 L 610.089844 504.480469 C 605.292969 484.964844 615.84375 467.019531 633.675781 464.464844 Z M 417.882812 652.523438 L 389.722656 538.109375 C 384.871094 518.535156 395.480469 500.589844 413.3125 498.035156 L 538.25 480.03125 C 556.140625 477.476562 574.480469 491.238281 579.332031 510.8125 L 607.492188 625.226562 C 612.289062 644.800781 601.738281 662.746094 583.90625 665.300781 L 458.910156 683.308594 C 441.074219 685.863281 422.679688 672.097656 417.882812 652.523438 Z M 484.867188 867.128906 L 456.652344 752.652344 C 451.855469 733.082031 462.40625 715.191406 480.296875 712.578125 L 605.234375 694.632812 C 623.066406 692.078125 641.464844 705.839844 646.261719 725.414062 L 674.421875 839.832031 C 679.273438 859.402344 668.722656 877.347656 650.832031 879.90625 L 525.894531 897.851562 C 508.003906 900.40625 489.664062 886.640625 484.867188 867.128906 Z M 484.867188 867.128906 " fill-opacity="0.45" fill-rule="nonzero"/><path fill="#047aff" d="M 234.414062 246.417969 C 214 237.945312 192.21875 228.347656 170.699219 215.492188 C 147.242188 243.691406 105.4375 244.578125 80.878906 218.1875 C 77.5 214.527344 77.753906 214.648438 71.980469 215.613281 C 36.222656 221.742188 1.398438 180.414062 3.742188 143.503906 C 4.871094 126.738281 12.371094 112.789062 23.996094 105.539062 C 23.476562 86.605469 31.757812 66.621094 47.863281 56.359375 C 57.046875 50.5625 67.101562 48.511719 73.808594 46.21875 C 76.664062 45.246094 79.785156 44.179688 82.980469 43.742188 C 85.941406 27.289062 100.785156 16.136719 113.339844 11.402344 C 139.003906 1.734375 169.023438 8.214844 188.777344 27.488281 C 233.949219 21.265625 267.679688 32.132812 271.4375 77.75 C 273.238281 99.679688 266.957031 118.011719 254.511719 127.789062 C 260.664062 141.195312 259.125 157.960938 250.304688 169.875 C 242.480469 180.445312 230.605469 189.429688 217.285156 189.429688 C 223.324219 206.980469 230.914062 224.058594 239.898438 240.28125 C 241.882812 243.875 238.222656 247.992188 234.414062 246.417969 Z M 171.921875 206.042969 C 190.136719 217.234375 208.710938 225.988281 226.519531 233.636719 C 218.679688 218.125 212.054688 201.949219 206.777344 185.410156 C 205.714844 182.078125 208.820312 178.914062 212.175781 179.914062 C 224.191406 183.515625 236.445312 173.953125 243.296875 164.691406 C 250.777344 154.585938 251.550781 139.425781 245.128906 128.636719 C 243.910156 126.589844 244.566406 123.941406 246.601562 122.695312 C 260.488281 114.191406 264.050781 94.269531 262.75 78.464844 C 261.816406 67.109375 259.082031 58.433594 254.398438 51.941406 C 240.453125 32.5625 211.480469 32.996094 187.84375 36.417969 C 186.457031 36.613281 185.046875 36.136719 184.078125 35.125 C 167.03125 17.371094 139.207031 10.976562 116.414062 19.554688 C 105.324219 23.738281 92.066406 33.746094 91.207031 48.195312 C 91.070312 50.558594 89.042969 52.457031 86.511719 52.28125 C 82.550781 51.976562 77.097656 54.492188 72.3125 55.851562 C 65.574219 57.765625 58.496094 59.949219 52.53125 63.71875 C 38.445312 72.6875 31.667969 90.972656 32.824219 107.699219 C 32.945312 109.433594 32.023438 111.070312 30.480469 111.871094 C 20.332031 117.113281 13.417969 129.449219 12.441406 144.070312 C 10.429688 175.65625 40.636719 212.152344 70.59375 207.011719 L 71.8125 206.8125 C 79.015625 205.609375 82.070312 206.621094 86.898438 211.863281 C 109.882812 236.570312 147.402344 233.078125 166.109375 207.203125 C 167.441406 205.363281 169.96875 204.847656 171.921875 206.042969 Z M 171.921875 206.042969 " fill-opacity="1" fill-rule="nonzero"/><path fill="#000000" d="M 553.941406 1428.8125 L 260.777344 336.628906 C 253.40625 309.183594 271.386719 281.816406 298.285156 277.988281 L 752.042969 212.359375 C 774.476562 209.148438 795.429688 222.90625 801.9375 245.125 L 993.742188 897.0625 C 994.417969 899.371094 993.097656 901.792969 990.789062 902.472656 C 988.5 903.140625 986.058594 901.832031 985.378906 899.519531 L 793.578125 247.578125 C 788.300781 229.558594 771.355469 218.402344 753.289062 220.980469 L 299.523438 286.613281 C 277.734375 289.71875 263.191406 312.011719 269.191406 334.371094 L 562.355469 1426.550781 C 567.441406 1445.433594 585.375 1457.171875 604.050781 1453.824219 L 1080.339844 1369.261719 C 1102.503906 1365.300781 1115.644531 1342.28125 1109.3125 1320.765625 L 1032.496094 1059.664062 C 1031.816406 1057.359375 1033.140625 1054.9375 1035.449219 1054.257812 C 1037.746094 1053.59375 1040.179688 1054.898438 1040.855469 1057.210938 L 1117.671875 1318.308594 C 1125.589844 1345.1875 1108.703125 1373.042969 1081.867188 1377.835938 L 605.582031 1462.398438 C 582.546875 1466.523438 560.242188 1452.222656 553.941406 1428.8125 Z M 553.941406 1428.8125 " fill-opacity="1" fill-rule="nonzero"/><path fill="#000000" d="M 895.386719 1062.398438 C 867.011719 1033.78125 858.675781 981.226562 877.1875 947.640625 C 906.640625 894.195312 975.496094 873.761719 1024.273438 913.417969 C 1026.136719 914.9375 1026.421875 917.679688 1024.90625 919.542969 C 1023.382812 921.410156 1020.636719 921.683594 1018.773438 920.175781 C 974.429688 884.117188 911.769531 902.941406 884.820312 951.84375 C 868.304688 981.808594 876.132812 1030.605469 901.574219 1056.269531 C 934.117188 1089.089844 1001.429688 1093.882812 1031.628906 1056.554688 C 1033.140625 1054.683594 1035.886719 1054.390625 1037.757812 1055.910156 C 1039.625 1057.417969 1039.917969 1060.164062 1038.402344 1062.035156 C 1004.976562 1103.351562 931.664062 1099 895.386719 1062.398438 Z M 895.386719 1062.398438 " fill-opacity="1" fill-rule="nonzero"/><path fill="#000000" d="M 1032.277344 1062.679688 C 1030.40625 1061.167969 1030.113281 1058.425781 1031.628906 1056.554688 C 1037.078125 1049.8125 1041.539062 1042.117188 1044.886719 1033.675781 C 1045.777344 1031.433594 1048.304688 1030.335938 1050.542969 1031.230469 C 1052.78125 1032.117188 1053.878906 1034.648438 1052.988281 1036.886719 C 1049.316406 1046.148438 1044.410156 1054.605469 1038.402344 1062.035156 C 1036.90625 1063.886719 1034.171875 1064.207031 1032.277344 1062.679688 Z M 1032.277344 1062.679688 " fill-opacity="1" fill-rule="nonzero"/><path fill="#047aff" d="M 962.707031 1045.988281 C 978.332031 1052.183594 991.28125 1050.964844 1005.589844 1037.210938 C 1005.960938 1036.855469 1011.320312 1030.949219 1010.914062 1030.839844 C 1005.203125 1029.300781 1001.460938 1021.699219 1005.597656 1012.59375 C 999.417969 1014.269531 992.570312 1013.125 987.226562 1009.519531 C 983.066406 1016.394531 973.296875 1014.230469 967.605469 1011.3125 C 958.910156 1006.851562 950.527344 998.808594 944.375 991.203125 C 940.101562 985.914062 936.835938 977.675781 937.730469 970.703125 C 938.789062 962.429688 949.898438 960.066406 949.695312 952.046875 C 949.625 949.199219 947.695312 946.804688 945.828125 944.699219 C 942.972656 941.46875 940.03125 938.320312 937.007812 935.253906 C 930.144531 928.292969 924.253906 924.980469 916.058594 930.40625 C 905.96875 937.078125 902.046875 950.1875 900.261719 962.394531 C 899.527344 967.410156 901.328125 973.050781 902.863281 977.84375 C 913.054688 1009.664062 932.121094 1033.859375 962.707031 1045.988281 Z M 962.707031 1045.988281 " fill-opacity="1" fill-rule="nonzero"/><path fill="#000000" d="M 1019.226562 1033.625 C 1009.566406 1031.84375 1002.890625 1024.0625 1004.566406 1014.847656 C 994.59375 1015.082031 986.757812 1008.101562 988.535156 999.175781 C 982 997.285156 977.082031 991.363281 976.9375 984.5625 C 976.800781 978.449219 980.554688 972.605469 985.804688 969.417969 C 981.40625 961.589844 985.429688 951.941406 992.539062 946.582031 C 999.285156 941.324219 1008.035156 939.933594 1014.792969 937.820312 C 1019.125 936.5 1027.960938 934.050781 1032.992188 933.371094 C 1030.996094 930.300781 1027.476562 926.832031 1025.210938 923.796875 L 1009.617188 902.847656 C 1008.109375 900.832031 1008.625 897.953125 1010.753906 896.578125 C 1027.355469 885.90625 1048.472656 902.75 1063.75 911.910156 C 1077.921875 920.429688 1103.242188 930.132812 1117.84375 922.304688 C 1119.621094 921.34375 1121.8125 921.746094 1123.15625 923.246094 C 1124.382812 924.625 1124.601562 926.609375 1123.746094 928.207031 C 1126.984375 942.199219 1131.621094 954.816406 1137.964844 970.386719 L 1140.898438 977.75 C 1142.464844 981.707031 1144.058594 985.734375 1145.59375 989.417969 C 1146.117188 990.675781 1146.023438 992.101562 1145.339844 993.277344 C 1144.660156 994.453125 1143.46875 995.242188 1142.121094 995.414062 C 1106.144531 999.984375 1070.949219 1024.863281 1034.265625 1032.675781 C 1031.117188 1033.363281 1024.246094 1034.484375 1019.226562 1033.625 Z M 1015.226562 1012.859375 C 1013.074219 1014.304688 1012.558594 1017.867188 1013.539062 1020.089844 C 1014.617188 1022.566406 1017.3125 1024.414062 1020.75 1025.046875 C 1032.96875 1027.136719 1063.371094 1014.234375 1074.636719 1009.339844 C 1094.65625 1000.609375 1114.863281 991.296875 1135.449219 987.625 C 1134.566406 985.429688 1133.675781 983.179688 1132.792969 980.949219 L 1129.894531 973.660156 C 1124.796875 961.160156 1119.542969 947.726562 1115.808594 932.496094 C 1098.730469 937.507812 1074.378906 928.46875 1059.265625 919.378906 C 1047.347656 912.230469 1031.789062 900.175781 1019.996094 902.195312 C 1033.753906 920.472656 1031.070312 917.445312 1035.15625 922.140625 C 1039.425781 927.039062 1044.835938 933.222656 1041.84375 938.199219 C 1039.488281 942.109375 1034.121094 941.792969 1031.453125 942.402344 C 1024.0625 944.039062 1016.777344 946.371094 1012.25 947.601562 C 1007.09375 948.996094 1001.761719 950.441406 997.839844 953.496094 C 994.640625 955.910156 992.628906 959.449219 992.664062 962.5625 C 992.71875 964.570312 994.003906 966.613281 995.59375 967.144531 C 997.617188 967.816406 998.851562 969.851562 998.519531 971.953125 C 998.1875 974.058594 996.386719 975.617188 994.253906 975.632812 C 992.234375 975.648438 989.984375 976.738281 988.230469 978.546875 C 981.726562 985.246094 988.976562 992.828125 994.851562 990.761719 C 996.996094 990.003906 999.363281 991.015625 1000.292969 993.09375 C 1001.21875 995.171875 1000.386719 997.613281 998.386719 998.695312 C 997.347656 999.257812 996.695312 1001.3125 997.140625 1002.617188 C 997.855469 1004.675781 1000.300781 1005.734375 1002.175781 1006.007812 C 1005.121094 1006.449219 1008.402344 1005.734375 1011.882812 1004.984375 C 1016.605469 1003.976562 1019.148438 1010.21875 1015.226562 1012.859375 Z M 1015.226562 1012.859375 " fill-opacity="1" fill-rule="nonzero"/><path fill="#000000" d="M 998.292969 976.035156 C 995.898438 975.800781 994.144531 973.667969 994.378906 971.273438 C 994.613281 968.878906 996.75 967.148438 999.140625 967.363281 C 1008.65625 968.335938 1019.292969 962.570312 1030.558594 961.425781 C 1032.953125 961.148438 1035.089844 962.929688 1035.335938 965.320312 C 1035.578125 967.714844 1033.832031 969.851562 1031.441406 970.09375 C 1020.789062 971.175781 1010.238281 977.191406 998.292969 976.035156 Z M 998.292969 976.035156 " fill-opacity="1" fill-rule="nonzero"/><path fill="#000000" d="M 994.648438 995.4375 C 994.375 993.046875 996.085938 990.886719 998.480469 990.613281 C 1008.007812 989.515625 1017.316406 986.714844 1026.140625 982.292969 C 1028.300781 981.21875 1030.914062 982.089844 1031.988281 984.238281 C 1033.066406 986.386719 1032.199219 989.003906 1030.042969 990.082031 C 1020.304688 994.960938 1010.019531 998.050781 999.476562 999.265625 C 997.117188 999.542969 994.925781 997.851562 994.648438 995.4375 Z M 994.648438 995.4375 " fill-opacity="1" fill-rule="nonzero"/><path fill="#000000" d="M 1009.96875 1010.414062 C 1008.960938 1008.230469 1009.910156 1005.640625 1012.09375 1004.632812 C 1021.015625 1000.507812 1030.191406 996.722656 1039.375 993.382812 C 1041.632812 992.558594 1044.136719 993.726562 1044.960938 995.988281 C 1045.777344 998.25 1044.613281 1000.75 1042.351562 1001.574219 C 1033.398438 1004.824219 1024.449219 1008.515625 1015.753906 1012.539062 C 1013.59375 1013.539062 1010.992188 1012.617188 1009.96875 1010.414062 Z M 1009.96875 1010.414062 " fill-opacity="1" fill-rule="nonzero"/><path fill="#047aff" d="M 1253.507812 548.421875 C 1284.464844 558.742188 1306.058594 587.046875 1324.425781 614.691406 C 1363.574219 673.617188 1397.125 736.480469 1424.445312 802.089844 C 1449.210938 861.566406 1430.359375 897.097656 1400.007812 911.632812 C 1394.730469 914.160156 1430.757812 896.601562 1149.226562 1034.230469 L 1093.570312 913.058594 L 1277.667969 829.339844 L 1222.007812 741.210938 " fill-opacity="1" fill-rule="nonzero"/><path fill="#000000" d="M 1091.003906 910.105469 C 1090.082031 907.882812 1091.136719 905.332031 1093.355469 904.410156 L 1227.460938 848.78125 C 1229.683594 847.851562 1232.230469 848.917969 1233.15625 851.136719 C 1234.078125 853.359375 1233.023438 855.910156 1230.800781 856.832031 L 1096.699219 912.460938 C 1094.5 913.371094 1091.9375 912.347656 1091.003906 910.105469 Z M 1091.003906 910.105469 " fill-opacity="1" fill-rule="nonzero"/><path fill="#000000" d="M 1244.792969 788.4375 C 1239.695312 780.488281 1235.359375 771.96875 1231.914062 763.128906 C 1231.039062 760.882812 1232.148438 758.359375 1234.390625 757.488281 C 1236.632812 756.609375 1239.15625 757.722656 1240.03125 759.964844 C 1243.273438 768.269531 1247.34375 776.269531 1252.128906 783.738281 C 1253.425781 785.761719 1252.835938 788.457031 1250.8125 789.753906 C 1248.777344 791.058594 1246.085938 790.453125 1244.792969 788.4375 Z M 1244.792969 788.4375 " fill-opacity="1" fill-rule="nonzero"/><path fill="#000000" d="M 470.90625 301.242188 C 470.539062 298.863281 472.167969 296.636719 474.542969 296.265625 L 597.140625 277.191406 C 599.523438 276.855469 601.75 278.449219 602.117188 280.828125 C 602.484375 283.203125 600.859375 285.429688 598.480469 285.800781 L 475.882812 304.875 C 473.453125 305.242188 471.269531 303.578125 470.90625 301.242188 Z M 470.90625 301.242188 " fill-opacity="1" fill-rule="nonzero"/><path fill="#000000" d="M 115.195312 158.523438 C 98.976562 164.269531 89.5 149.753906 84.6875 133.164062 C 80.453125 118.582031 83.417969 100.738281 98.203125 95.492188 C 104.890625 93.121094 110.960938 94.207031 116.402344 98.746094 C 121.105469 102.683594 124.519531 108.304688 126.636719 115.609375 C 131.820312 133.453125 132.714844 152.304688 115.195312 158.523438 Z M 100.363281 103.089844 C 90.46875 106.601562 89.015625 119.921875 91.90625 129.914062 C 95.324219 141.683594 101.460938 155.070312 113.003906 150.984375 C 124.46875 146.917969 122.808594 131.414062 119.433594 119.765625 C 116.335938 109.105469 110.867188 99.363281 100.363281 103.089844 Z M 100.363281 103.089844 " fill-opacity="1" fill-rule="nonzero"/><path fill="#000000" d="M 158.402344 141.558594 C 148.5 144.929688 145.367188 146.941406 144.183594 142.871094 C 143.417969 140.230469 145.035156 138.199219 149.023438 136.785156 L 150.867188 136.175781 L 152.457031 135.699219 C 150.070312 127.460938 149.308594 130.890625 145.058594 109.339844 C 143.679688 102.46875 142.472656 97.300781 141.449219 93.855469 C 138.828125 97.789062 137.046875 99.921875 136.109375 100.253906 C 134.011719 100.996094 131.78125 99.707031 131.203125 97.703125 C 130.847656 96.472656 131.511719 94.589844 133.1875 92.0625 C 138.230469 85.125 139.042969 80.839844 143.027344 79.429688 C 144.730469 78.828125 145.875 79.53125 146.460938 81.550781 C 146.917969 83.125 147.125 85.597656 147.566406 87.089844 C 148.140625 89.09375 149.410156 92.476562 150.113281 94.855469 C 150.980469 97.84375 151.96875 102.398438 153.066406 108.53125 C 156.277344 126.253906 157.46875 125.285156 159.824219 132.824219 L 163.8125 131.324219 C 167.371094 130.066406 169.886719 133.910156 168.339844 136.867188 C 167.128906 139.199219 165.171875 138.878906 158.402344 141.558594 Z M 158.402344 141.558594 " fill-opacity="1" fill-rule="nonzero"/><path fill="#000000" d="M 193.585938 129.085938 C 183.941406 132.355469 180.5625 134.519531 179.363281 130.402344 C 177.933594 125.460938 185.382812 124.066406 186.050781 123.703125 L 187.636719 123.226562 C 185.320312 115.242188 184.519531 118.496094 180.238281 96.867188 C 178.859375 89.996094 177.65625 84.828125 176.628906 81.386719 C 174.007812 85.316406 172.230469 87.449219 171.289062 87.78125 C 169.144531 88.535156 166.957031 87.199219 166.390625 85.230469 C 166.027344 84 166.691406 82.121094 168.363281 79.59375 C 173.371094 72.761719 174.199219 68.378906 178.210938 66.957031 C 181.195312 65.902344 181.738281 68.917969 182.195312 71.84375 C 183.429688 79.832031 184.585938 75.648438 188.246094 96.0625 C 191.542969 114.242188 192.566406 112.449219 195.003906 120.351562 L 198.988281 118.855469 C 202.546875 117.59375 205.058594 121.425781 203.527344 124.398438 C 203.027344 125.351562 200.367188 126.402344 193.585938 129.085938 Z M 193.585938 129.085938 " fill-opacity="1" fill-rule="nonzero"/><path fill="#047aff" d="M 494.109375 710.914062 C 494.699219 711.929688 495.242188 712.96875 495.738281 714.03125 C 496.234375 715.097656 496.679688 716.179688 497.074219 717.28125 C 497.46875 718.386719 497.8125 719.5 498.105469 720.632812 C 498.394531 721.761719 498.632812 722.902344 498.816406 724.050781 C 499 725.199219 499.128906 726.351562 499.207031 727.507812 C 499.28125 728.660156 499.300781 729.8125 499.265625 730.964844 C 499.230469 732.113281 499.144531 733.253906 499 734.390625 C 498.855469 735.523438 498.660156 736.644531 498.40625 737.75 C 498.15625 738.859375 497.851562 739.945312 497.496094 741.015625 C 497.140625 742.085938 496.730469 743.132812 496.273438 744.15625 C 495.816406 745.175781 495.308594 746.171875 494.75 747.132812 C 494.195312 748.097656 493.59375 749.03125 492.945312 749.929688 C 492.296875 750.824219 491.605469 751.683594 490.871094 752.507812 C 490.136719 753.328125 489.363281 754.109375 488.550781 754.847656 C 487.738281 755.585938 486.886719 756.28125 486.003906 756.929688 C 485.121094 757.578125 484.203125 758.175781 483.257812 758.726562 C 482.3125 759.28125 481.339844 759.78125 480.339844 760.230469 C 479.339844 760.679688 478.316406 761.074219 477.273438 761.417969 C 476.230469 761.761719 475.167969 762.046875 474.089844 762.28125 C 473.011719 762.515625 471.925781 762.691406 470.824219 762.8125 C 469.722656 762.933594 468.617188 763 467.5 763.007812 C 466.386719 763.015625 465.273438 762.964844 464.160156 762.859375 C 463.042969 762.753906 461.929688 762.59375 460.824219 762.375 C 459.71875 762.160156 458.621094 761.886719 457.535156 761.558594 C 456.445312 761.230469 455.375 760.851562 454.316406 760.417969 C 453.257812 759.980469 452.222656 759.496094 451.203125 758.957031 C 450.1875 758.421875 449.191406 757.835938 448.226562 757.199219 C 447.257812 756.566406 446.320312 755.886719 445.410156 755.160156 C 444.503906 754.433594 443.628906 753.664062 442.789062 752.851562 C 441.945312 752.042969 441.144531 751.191406 440.378906 750.304688 C 439.617188 749.417969 438.890625 748.496094 438.210938 747.539062 C 437.53125 746.585938 436.894531 745.601562 436.300781 744.585938 C 435.710938 743.570312 435.167969 742.53125 434.671875 741.46875 C 434.175781 740.40625 433.730469 739.320312 433.335938 738.21875 C 432.941406 737.117188 432.597656 736 432.308594 734.867188 C 432.015625 733.738281 431.777344 732.597656 431.59375 731.449219 C 431.410156 730.300781 431.28125 729.148438 431.207031 727.996094 C 431.128906 726.839844 431.109375 725.6875 431.144531 724.539062 C 431.179688 723.386719 431.265625 722.246094 431.410156 721.113281 C 431.554688 719.976562 431.75 718.855469 432.003906 717.75 C 432.253906 716.644531 432.558594 715.554688 432.914062 714.484375 C 433.269531 713.414062 433.679688 712.367188 434.136719 711.347656 C 434.597656 710.324219 435.101562 709.332031 435.660156 708.367188 C 436.214844 707.402344 436.816406 706.472656 437.464844 705.574219 C 438.113281 704.675781 438.804688 703.816406 439.539062 702.992188 C 440.273438 702.171875 441.046875 701.390625 441.859375 700.652344 C 442.671875 699.914062 443.523438 699.21875 444.40625 698.570312 C 445.289062 697.921875 446.207031 697.324219 447.152344 696.773438 C 448.097656 696.222656 449.070312 695.722656 450.070312 695.273438 C 451.074219 694.824219 452.09375 694.425781 453.136719 694.082031 C 454.179688 693.742188 455.242188 693.453125 456.320312 693.21875 C 457.398438 692.988281 458.484375 692.808594 459.585938 692.6875 C 460.6875 692.566406 461.796875 692.503906 462.910156 692.496094 C 464.023438 692.484375 465.136719 692.535156 466.253906 692.640625 C 467.367188 692.746094 468.480469 692.90625 469.585938 693.125 C 470.691406 693.339844 471.789062 693.613281 472.878906 693.941406 C 473.964844 694.269531 475.035156 694.648438 476.09375 695.085938 C 477.152344 695.519531 478.191406 696.003906 479.207031 696.542969 C 480.226562 697.078125 481.21875 697.664062 482.183594 698.300781 C 483.152344 698.933594 484.089844 699.617188 485 700.34375 C 485.90625 701.070312 486.78125 701.835938 487.621094 702.648438 C 488.464844 703.457031 489.265625 704.308594 490.03125 705.195312 C 490.796875 706.082031 491.519531 707.003906 492.199219 707.960938 C 492.878906 708.914062 493.515625 709.902344 494.109375 710.914062 Z M 494.109375 710.914062 " fill-opacity="1" fill-rule="nonzero"/><path fill="#000000" d="M 459.152344 746.285156 C 456.933594 745.359375 455.882812 742.808594 456.8125 740.589844 L 470.003906 708.992188 C 470.929688 706.777344 473.472656 705.730469 475.699219 706.652344 C 477.917969 707.578125 478.96875 710.128906 478.042969 712.351562 L 464.851562 743.945312 C 463.921875 746.167969 461.371094 747.210938 459.152344 746.285156 Z M 459.152344 746.285156 " fill-opacity="1" fill-rule="nonzero"/><path fill="#000000" d="M 478.675781 741.664062 L 450.054688 720.824219 C 448.109375 719.40625 447.679688 716.683594 449.097656 714.738281 C 450.511719 712.789062 453.238281 712.367188 455.183594 713.78125 L 483.804688 734.621094 C 485.75 736.039062 486.179688 738.765625 484.765625 740.707031 C 483.351562 742.640625 480.636719 743.085938 478.675781 741.664062 Z M 478.675781 741.664062 " fill-opacity="1" fill-rule="nonzero"/><path fill="#047aff" d="M 647.726562 449.363281 C 648.296875 450.34375 648.824219 451.347656 649.300781 452.378906 C 649.78125 453.40625 650.210938 454.453125 650.59375 455.523438 C 650.976562 456.589844 651.308594 457.667969 651.589844 458.761719 C 651.871094 459.855469 652.101562 460.960938 652.28125 462.070312 C 652.457031 463.183594 652.582031 464.296875 652.65625 465.414062 C 652.726562 466.53125 652.746094 467.644531 652.714844 468.757812 C 652.679688 469.871094 652.59375 470.972656 652.457031 472.070312 C 652.316406 473.167969 652.128906 474.253906 651.882812 475.324219 C 651.640625 476.394531 651.347656 477.449219 651 478.484375 C 650.65625 479.519531 650.261719 480.53125 649.816406 481.519531 C 649.375 482.507812 648.882812 483.46875 648.34375 484.402344 C 647.808594 485.335938 647.226562 486.238281 646.597656 487.105469 C 645.96875 487.972656 645.300781 488.804688 644.589844 489.601562 C 643.878906 490.394531 643.132812 491.152344 642.34375 491.867188 C 641.558594 492.582031 640.738281 493.25 639.882812 493.878906 C 639.027344 494.507812 638.140625 495.085938 637.226562 495.621094 C 636.308594 496.152344 635.367188 496.636719 634.402344 497.070312 C 633.433594 497.507812 632.445312 497.890625 631.433594 498.222656 C 630.425781 498.554688 629.398438 498.832031 628.355469 499.058594 C 627.3125 499.28125 626.261719 499.453125 625.195312 499.570312 C 624.128906 499.6875 623.058594 499.75 621.980469 499.757812 C 620.902344 499.765625 619.824219 499.71875 618.746094 499.617188 C 617.667969 499.515625 616.59375 499.359375 615.519531 499.148438 C 614.449219 498.941406 613.390625 498.675781 612.335938 498.359375 C 611.285156 498.042969 610.246094 497.675781 609.222656 497.253906 C 608.199219 496.832031 607.195312 496.363281 606.210938 495.84375 C 605.226562 495.324219 604.269531 494.757812 603.332031 494.144531 C 602.394531 493.527344 601.488281 492.871094 600.609375 492.167969 C 599.730469 491.464844 598.882812 490.722656 598.070312 489.9375 C 597.257812 489.152344 596.480469 488.332031 595.742188 487.472656 C 595 486.613281 594.300781 485.722656 593.644531 484.796875 C 592.984375 483.875 592.367188 482.921875 591.796875 481.9375 C 591.226562 480.957031 590.699219 479.953125 590.21875 478.921875 C 589.738281 477.894531 589.308594 476.847656 588.925781 475.777344 C 588.542969 474.710938 588.210938 473.632812 587.929688 472.539062 C 587.648438 471.445312 587.417969 470.339844 587.242188 469.230469 C 587.0625 468.121094 586.9375 467.003906 586.867188 465.886719 C 586.792969 464.769531 586.773438 463.65625 586.804688 462.542969 C 586.839844 461.429688 586.925781 460.328125 587.0625 459.230469 C 587.203125 458.132812 587.394531 457.046875 587.636719 455.976562 C 587.878906 454.90625 588.175781 453.851562 588.519531 452.816406 C 588.863281 451.78125 589.257812 450.769531 589.703125 449.78125 C 590.148438 448.792969 590.636719 447.832031 591.175781 446.898438 C 591.714844 445.964844 592.296875 445.0625 592.921875 444.195312 C 593.550781 443.328125 594.21875 442.496094 594.929688 441.699219 C 595.640625 440.90625 596.390625 440.148438 597.175781 439.433594 C 597.960938 438.71875 598.785156 438.050781 599.640625 437.421875 C 600.492188 436.792969 601.378906 436.214844 602.296875 435.679688 C 603.210938 435.148438 604.152344 434.664062 605.121094 434.230469 C 606.089844 433.792969 607.078125 433.410156 608.085938 433.078125 C 609.097656 432.746094 610.121094 432.46875 611.164062 432.242188 C 612.207031 432.019531 613.261719 431.847656 614.328125 431.730469 C 615.390625 431.613281 616.460938 431.550781 617.539062 431.542969 C 618.617188 431.535156 619.695312 431.582031 620.773438 431.683594 C 621.855469 431.785156 622.929688 431.941406 624 432.152344 C 625.070312 432.359375 626.132812 432.625 627.183594 432.941406 C 628.238281 433.257812 629.273438 433.625 630.296875 434.046875 C 631.320312 434.46875 632.324219 434.9375 633.308594 435.457031 C 634.292969 435.976562 635.253906 436.542969 636.191406 437.15625 C 637.125 437.773438 638.035156 438.429688 638.914062 439.132812 C 639.792969 439.835938 640.636719 440.578125 641.449219 441.363281 C 642.265625 442.148438 643.039062 442.96875 643.78125 443.828125 C 644.519531 444.6875 645.21875 445.578125 645.878906 446.503906 C 646.535156 447.425781 647.152344 448.378906 647.726562 449.363281 Z M 647.726562 449.363281 " fill-opacity="1" fill-rule="nonzero"/><path fill="#000000" d="M 613.847656 483.714844 C 611.632812 482.792969 610.582031 480.238281 611.507812 478.019531 L 624.269531 447.449219 C 625.199219 445.234375 627.742188 444.179688 629.96875 445.109375 C 632.1875 446.035156 633.238281 448.585938 632.308594 450.808594 L 619.546875 481.375 C 618.621094 483.597656 616.066406 484.640625 613.847656 483.714844 Z M 613.847656 483.714844 " fill-opacity="1" fill-rule="nonzero"/><path fill="#000000" d="M 632.710938 479.230469 L 605.019531 459.066406 C 603.074219 457.648438 602.644531 454.921875 604.058594 452.980469 C 605.476562 451.03125 608.203125 450.609375 610.148438 452.023438 L 637.839844 472.183594 C 639.785156 473.601562 640.210938 476.328125 638.796875 478.269531 C 637.386719 480.207031 634.667969 480.652344 632.710938 479.230469 Z M 632.710938 479.230469 " fill-opacity="1" fill-rule="nonzero"/><path fill="#047aff" d="M 658.617188 599.90625 L 640.585938 521.632812 C 639.871094 518.5 640.460938 515.226562 642.210938 512.65625 C 643.902344 510.167969 646.472656 508.550781 649.445312 508.097656 C 764 490.792969 753.273438 492.324219 760.589844 491.335938 C 763.605469 490.925781 766.621094 490.523438 769.574219 489.980469 C 770.789062 489.761719 773.316406 489.292969 775.859375 490.855469 C 778.511719 492.476562 779.476562 495.082031 780.140625 497.871094 C 798.070312 575.515625 799.035156 573.96875 798.910156 581.746094 C 798.820312 586.726562 795.898438 588.941406 790.925781 589.683594 L 671.660156 608.980469 C 665.683594 609.953125 660 605.902344 658.617188 599.90625 Z M 771.292969 498.523438 C 762.167969 499.980469 806.660156 493.203125 650.746094 516.714844 C 649.40625 516.914062 648.765625 518.3125 649.078125 519.679688 L 667.109375 597.953125 C 667.464844 599.492188 668.925781 600.625 670.265625 600.382812 C 834.617188 573.796875 777.941406 582.992188 790.195312 580.980469 C 790.171875 579.261719 790.007812 577.707031 789.703125 576.179688 C 769.140625 489.214844 771.503906 499.066406 771.292969 498.523438 Z M 771.292969 498.523438 " fill-opacity="1" fill-rule="nonzero"/><path fill="#047aff" d="M 721.40625 552.636719 C 719.460938 552.378906 723.914062 553.847656 646.84375 520.457031 C 644.636719 519.496094 643.628906 516.929688 644.589844 514.726562 C 645.554688 512.523438 648.125 511.523438 650.320312 512.472656 L 720.945312 543.222656 L 769.996094 495.5 C 771.71875 493.828125 774.484375 493.863281 776.15625 495.585938 C 777.832031 497.3125 777.796875 500.066406 776.070312 501.746094 L 724.996094 551.4375 C 724.070312 552.339844 722.765625 552.804688 721.40625 552.636719 Z M 721.40625 552.636719 " fill-opacity="1" fill-rule="nonzero"/><path fill="#047aff" d="M 663.078125 604.621094 C 661.15625 603.171875 660.777344 600.441406 662.230469 598.519531 L 703.726562 543.628906 C 705.179688 541.710938 707.914062 541.328125 709.828125 542.78125 C 711.75 544.230469 712.128906 546.960938 710.675781 548.882812 L 669.179688 603.773438 C 667.726562 605.699219 664.988281 606.070312 663.078125 604.621094 Z M 663.078125 604.621094 " fill-opacity="1" fill-rule="nonzero"/><path fill="#047aff" d="M 787.507812 582.859375 L 730.914062 544.859375 C 728.914062 543.515625 728.382812 540.8125 729.722656 538.8125 C 731.066406 536.808594 733.785156 536.289062 735.769531 537.625 L 792.363281 575.628906 C 794.363281 576.96875 794.894531 579.675781 793.554688 581.671875 C 792.207031 583.683594 789.480469 584.191406 787.507812 582.859375 Z M 787.507812 582.859375 " fill-opacity="1" fill-rule="nonzero"/><path fill="#000000" d="M 143.304688 946.414062 C 120.800781 898.535156 120.558594 899.265625 120.652344 894.265625 C 120.722656 890.546875 123.050781 886.589844 126.625 886.066406 C 131.351562 885.375 134.75 890.464844 136.910156 894.847656 C 143.0625 907.316406 149.214844 919.785156 155.367188 932.253906 C 155.167969 931.851562 160.007812 926.859375 160.519531 926.261719 C 210.183594 868.195312 221.328125 849.542969 242.238281 837.542969 C 249.03125 833.644531 251.71875 835.960938 249.367188 840.085938 C 247.296875 843.726562 246.28125 844.914062 229.710938 867.085938 C 226.777344 871.011719 223.300781 874.746094 220.214844 878.601562 C 155.402344 959.589844 159.3125 955.367188 156.558594 956.683594 C 153.292969 958.246094 149.253906 956.886719 146.667969 954.308594 C 144.082031 951.730469 144.871094 949.75 143.304688 946.414062 Z M 143.304688 946.414062 " fill-opacity="1" fill-rule="nonzero"/><path fill="#000000" d="M 156.507812 1098.972656 C 146.398438 1063.945312 171.597656 1025.230469 212.683594 1012.667969 C 252.601562 1000.460938 295.246094 1017.285156 305.699219 1053.5 C 315.8125 1088.527344 290.613281 1127.242188 249.523438 1139.804688 C 209.605469 1152.011719 166.964844 1135.191406 156.507812 1098.972656 Z M 215.234375 1021 C 178.667969 1032.175781 156.082031 1066.074219 164.882812 1096.558594 C 168.585938 1109.382812 177.597656 1120.222656 190.261719 1127.082031 C 206.566406 1135.914062 227.238281 1137.515625 246.976562 1131.472656 C 283.539062 1120.292969 306.128906 1086.398438 297.328125 1055.917969 C 288.09375 1023.933594 249.945312 1010.382812 215.234375 1021 Z M 215.234375 1021 " fill-opacity="1" fill-rule="nonzero"/><path fill="#047aff" d="M 225.042969 1102.996094 C 194.414062 1068.421875 194.433594 1069.117188 193.316406 1064.945312 C 192.472656 1061.796875 193.46875 1057.871094 196.351562 1056.507812 C 200.160156 1054.710938 204.253906 1058.121094 207.136719 1061.25 C 215.34375 1070.160156 223.546875 1079.070312 231.753906 1087.976562 C 231.488281 1087.6875 234.347656 1082.246094 234.632812 1081.609375 C 261.957031 1020.78125 267.09375 1001.492188 281.84375 985.9375 C 286.625 980.894531 289.429688 982.183594 288.460938 986.242188 C 287.597656 989.847656 287.019531 991.144531 278.476562 1014.019531 C 276.964844 1018.074219 274.945312 1022.113281 273.285156 1026.152344 C 238.421875 1110.96875 240.683594 1106.410156 238.6875 1108.226562 C 236.320312 1110.378906 232.589844 1110.273438 229.789062 1108.769531 C 226.988281 1107.269531 227.167969 1105.398438 225.042969 1102.996094 Z M 225.042969 1102.996094 " fill-opacity="1" fill-rule="nonzero"/><path fill="#047aff" d="M 78.566406 568.78125 C 36.925781 529.601562 26.40625 469.441406 36.835938 439.503906 C 0.1875 392.542969 5.835938 316.019531 49.078125 275.367188 C 50.824219 273.722656 53.589844 273.800781 55.238281 275.558594 C 56.882812 277.3125 56.800781 280.066406 55.046875 281.714844 C 15.996094 318.425781 9.972656 386.65625 40.992188 430.496094 C 53.886719 408.785156 81.625 404.75 93.648438 425.3125 C 97.410156 431.742188 98.1875 439.03125 95.78125 445.304688 C 90.933594 457.984375 76.082031 462.695312 64.535156 459.929688 C 57.269531 458.191406 50.378906 454.027344 43.640625 447.273438 C 42.117188 453.679688 41.585938 461.101562 42.011719 469.671875 C 45.726562 543.628906 106.832031 600.597656 177.941406 597.664062 C 180.34375 597.542969 182.371094 599.445312 182.46875 601.847656 C 182.558594 604.25 180.6875 606.277344 178.28125 606.371094 C 141.21875 607.828125 105.023438 593.667969 78.566406 568.78125 Z M 46.871094 437.976562 C 53.425781 445.441406 59.898438 449.863281 66.5625 451.457031 C 74.285156 453.304688 84.542969 450.285156 87.640625 442.191406 C 91.058594 433.273438 83.070312 422.167969 73.691406 420.773438 C 64.300781 419.402344 53.777344 425.507812 48.070312 435.664062 C 47.648438 436.414062 47.25 437.183594 46.871094 437.976562 Z M 46.871094 437.976562 " fill-opacity="1" fill-rule="nonzero"/><path fill="#000000" d="M 570.308594 735.484375 C 529.230469 730.222656 499.117188 772.394531 516.007812 814.25 C 519.433594 822.734375 525.773438 829.753906 532.359375 835.855469 C 540.839844 843.710938 550.996094 848.148438 562.046875 849.5625 C 592.238281 853.429688 618.601562 831.007812 620.882812 799.507812 C 623.164062 768.003906 600.5 739.351562 570.308594 735.484375 Z M 559.34375 817.933594 L 547.15625 779.976562 L 594.089844 785.710938 Z M 559.34375 817.933594 " fill-opacity="1" fill-rule="nonzero"/><path fill="#047aff" d="M 928.371094 1186.242188 C 938.847656 1184.324219 949.296875 1191.8125 951.558594 1202.828125 C 953.761719 1213.554688 947.332031 1223.609375 937.113281 1225.414062 C 937.113281 1225.414062 666.210938 1273.257812 666.054688 1273.285156 C 660.667969 1274.234375 654.910156 1272.667969 650.433594 1269.03125 C 645.085938 1264.6875 640.320312 1255.015625 643.386719 1248.574219 C 650.621094 1233.375 665.734375 1234.414062 685.617188 1230.75 C 749.664062 1218.953125 864.835938 1197.867188 928.371094 1186.242188 Z M 928.371094 1186.242188 " fill-opacity="1" fill-rule="nonzero"/><path fill="#000000" d="M 825.078125 1214.621094 C 831.011719 1213.539062 836.921875 1217.777344 838.203125 1224.011719 C 839.453125 1230.082031 835.8125 1235.773438 830.027344 1236.796875 C 830.027344 1236.796875 676.6875 1263.875 676.597656 1263.890625 C 673.546875 1264.429688 670.289062 1263.542969 667.757812 1261.484375 C 664.730469 1259.027344 662.03125 1253.550781 663.769531 1249.90625 C 667.882812 1241.257812 676.507812 1241.875 687.671875 1239.816406 C 719.960938 1233.871094 774.386719 1223.902344 806.96875 1217.9375 C 813.007812 1216.832031 819.042969 1215.726562 825.078125 1214.621094 Z M 825.078125 1214.621094 " fill-opacity="1" fill-rule="nonzero"/><path fill="#047aff" d="M 517.449219 538.851562 C 517.960938 539.730469 518.433594 540.636719 518.867188 541.558594 C 519.296875 542.484375 519.683594 543.425781 520.027344 544.386719 C 520.371094 545.34375 520.667969 546.316406 520.921875 547.296875 C 521.175781 548.28125 521.382812 549.273438 521.542969 550.269531 C 521.699219 551.269531 521.8125 552.269531 521.878906 553.273438 C 521.945312 554.277344 521.960938 555.28125 521.933594 556.28125 C 521.902344 557.28125 521.824219 558.273438 521.699219 559.257812 C 521.574219 560.246094 521.402344 561.21875 521.183594 562.183594 C 520.964844 563.144531 520.703125 564.089844 520.390625 565.023438 C 520.082031 565.953125 519.726562 566.863281 519.328125 567.75 C 518.929688 568.640625 518.488281 569.503906 518.003906 570.339844 C 517.519531 571.179688 516.996094 571.988281 516.433594 572.769531 C 515.871094 573.550781 515.269531 574.296875 514.628906 575.011719 C 513.992188 575.726562 513.320312 576.40625 512.613281 577.050781 C 511.90625 577.691406 511.167969 578.292969 510.398438 578.859375 C 509.628906 579.421875 508.832031 579.941406 508.011719 580.421875 C 507.1875 580.902344 506.339844 581.335938 505.472656 581.726562 C 504.601562 582.117188 503.714844 582.460938 502.804688 582.761719 C 501.898438 583.058594 500.976562 583.308594 500.039062 583.511719 C 499.101562 583.714844 498.15625 583.871094 497.199219 583.972656 C 496.242188 584.078125 495.277344 584.136719 494.308594 584.144531 C 493.339844 584.148438 492.371094 584.109375 491.402344 584.015625 C 490.433594 583.925781 489.464844 583.785156 488.503906 583.597656 C 487.542969 583.40625 486.585938 583.171875 485.640625 582.886719 C 484.695312 582.601562 483.765625 582.269531 482.84375 581.890625 C 481.925781 581.515625 481.023438 581.089844 480.136719 580.625 C 479.253906 580.15625 478.390625 579.648438 477.546875 579.097656 C 476.707031 578.542969 475.890625 577.953125 475.101562 577.320312 C 474.3125 576.691406 473.550781 576.019531 472.820312 575.316406 C 472.089844 574.613281 471.390625 573.875 470.726562 573.101562 C 470.0625 572.332031 469.433594 571.527344 468.839844 570.699219 C 468.25 569.867188 467.695312 569.011719 467.183594 568.128906 C 466.667969 567.246094 466.195312 566.34375 465.765625 565.417969 C 465.332031 564.492188 464.945312 563.550781 464.601562 562.59375 C 464.257812 561.632812 463.960938 560.664062 463.707031 559.679688 C 463.453125 558.695312 463.25 557.707031 463.089844 556.707031 C 462.929688 555.707031 462.816406 554.707031 462.75 553.703125 C 462.683594 552.699219 462.667969 551.699219 462.699219 550.699219 C 462.726562 549.699219 462.804688 548.707031 462.929688 547.71875 C 463.054688 546.734375 463.226562 545.757812 463.445312 544.796875 C 463.664062 543.832031 463.925781 542.886719 464.238281 541.957031 C 464.546875 541.027344 464.902344 540.117188 465.300781 539.226562 C 465.699219 538.339844 466.140625 537.476562 466.625 536.636719 C 467.109375 535.796875 467.632812 534.988281 468.195312 534.207031 C 468.757812 533.429688 469.359375 532.679688 470 531.964844 C 470.636719 531.25 471.308594 530.570312 472.015625 529.929688 C 472.722656 529.289062 473.460938 528.683594 474.230469 528.121094 C 475 527.558594 475.796875 527.035156 476.617188 526.554688 C 477.441406 526.078125 478.289062 525.640625 479.15625 525.25 C 480.027344 524.859375 480.917969 524.515625 481.824219 524.21875 C 482.730469 523.917969 483.652344 523.667969 484.589844 523.464844 C 485.527344 523.261719 486.472656 523.109375 487.433594 523.003906 C 488.390625 522.898438 489.351562 522.84375 490.320312 522.835938 C 491.289062 522.828125 492.257812 522.871094 493.226562 522.960938 C 494.199219 523.054688 495.164062 523.195312 496.125 523.382812 C 497.089844 523.570312 498.042969 523.808594 498.988281 524.09375 C 499.933594 524.378906 500.867188 524.707031 501.785156 525.085938 C 502.707031 525.464844 503.605469 525.886719 504.492188 526.355469 C 505.375 526.820312 506.238281 527.332031 507.082031 527.882812 C 507.921875 528.433594 508.738281 529.027344 509.527344 529.65625 C 510.316406 530.289062 511.078125 530.957031 511.808594 531.660156 C 512.539062 532.367188 513.238281 533.105469 513.902344 533.875 C 514.566406 534.648438 515.195312 535.449219 515.789062 536.28125 C 516.378906 537.113281 516.933594 537.96875 517.449219 538.851562 Z M 517.449219 538.851562 " fill-opacity="1" fill-rule="nonzero"/><path fill="#047aff" d="M 558.152344 607.300781 C 550.066406 596.957031 539.917969 587.882812 528.296875 582.0625 C 514.691406 575.246094 498.027344 573.746094 485.875 581.671875 C 478.375 586.5625 473.28125 594.460938 469.089844 602.5625 C 465.71875 609.070312 461.660156 616.746094 460.886719 624.304688 C 460.722656 625.910156 460.734375 627.617188 461.449219 629.105469 C 463.214844 632.777344 468.863281 632.167969 471.988281 632.269531 C 476.632812 632.417969 481.269531 632.289062 485.878906 631.933594 C 507.265625 630.28125 536.59375 621.605469 555.355469 614.894531 C 556.679688 614.421875 559.078125 613.976562 559.71875 612.558594 C 560.535156 610.761719 559.359375 608.84375 558.152344 607.300781 Z M 558.152344 607.300781 " fill-opacity="1" fill-rule="nonzero"/><path fill="#047aff" d="M 429.195312 487.296875 C 429.789062 488.3125 430.332031 489.351562 430.828125 490.417969 C 431.324219 491.480469 431.769531 492.5625 432.164062 493.664062 C 432.558594 494.769531 432.902344 495.886719 433.191406 497.015625 C 433.484375 498.148438 433.722656 499.285156 433.90625 500.433594 C 434.089844 501.582031 434.21875 502.734375 434.292969 503.890625 C 434.371094 505.042969 434.390625 506.195312 434.355469 507.347656 C 434.320312 508.496094 434.234375 509.636719 434.089844 510.773438 C 433.945312 511.90625 433.75 513.027344 433.496094 514.132812 C 433.246094 515.242188 432.941406 516.328125 432.585938 517.398438 C 432.226562 518.46875 431.820312 519.515625 431.363281 520.539062 C 430.902344 521.558594 430.394531 522.554688 429.839844 523.519531 C 429.285156 524.480469 428.683594 525.414062 428.035156 526.3125 C 427.386719 527.207031 426.695312 528.070312 425.960938 528.890625 C 425.226562 529.714844 424.453125 530.492188 423.640625 531.230469 C 422.824219 531.972656 421.976562 532.664062 421.09375 533.3125 C 420.210938 533.960938 419.292969 534.558594 418.347656 535.113281 C 417.402344 535.664062 416.425781 536.164062 415.425781 536.613281 C 414.425781 537.0625 413.40625 537.457031 412.363281 537.800781 C 411.316406 538.144531 410.257812 538.429688 409.179688 538.664062 C 408.101562 538.898438 407.011719 539.074219 405.914062 539.195312 C 404.8125 539.316406 403.703125 539.382812 402.589844 539.390625 C 401.476562 539.398438 400.363281 539.347656 399.246094 539.242188 C 398.132812 539.140625 397.019531 538.976562 395.914062 538.761719 C 394.808594 538.542969 393.710938 538.269531 392.621094 537.941406 C 391.535156 537.613281 390.460938 537.234375 389.40625 536.800781 C 388.347656 536.363281 387.308594 535.878906 386.292969 535.34375 C 385.273438 534.804688 384.28125 534.21875 383.316406 533.582031 C 382.347656 532.949219 381.410156 532.269531 380.5 531.542969 C 379.59375 530.816406 378.71875 530.046875 377.875 529.234375 C 377.035156 528.425781 376.234375 527.578125 375.46875 526.6875 C 374.703125 525.800781 373.980469 524.878906 373.300781 523.925781 C 372.621094 522.96875 371.984375 521.984375 371.390625 520.96875 C 370.800781 519.953125 370.257812 518.914062 369.761719 517.851562 C 369.265625 516.789062 368.820312 515.703125 368.425781 514.601562 C 368.03125 513.5 367.6875 512.382812 367.394531 511.25 C 367.105469 510.121094 366.867188 508.980469 366.683594 507.832031 C 366.5 506.683594 366.371094 505.53125 366.292969 504.378906 C 366.21875 503.222656 366.199219 502.070312 366.234375 500.921875 C 366.265625 499.769531 366.355469 498.628906 366.5 497.496094 C 366.644531 496.359375 366.839844 495.242188 367.089844 494.132812 C 367.34375 493.027344 367.648438 491.9375 368.003906 490.867188 C 368.359375 489.796875 368.769531 488.75 369.226562 487.730469 C 369.683594 486.707031 370.191406 485.714844 370.75 484.75 C 371.304688 483.785156 371.90625 482.855469 372.554688 481.957031 C 373.203125 481.058594 373.894531 480.199219 374.628906 479.375 C 375.363281 478.554688 376.136719 477.773438 376.949219 477.035156 C 377.761719 476.296875 378.613281 475.601562 379.496094 474.953125 C 380.378906 474.308594 381.292969 473.707031 382.242188 473.15625 C 383.1875 472.605469 384.160156 472.105469 385.160156 471.65625 C 386.160156 471.207031 387.183594 470.808594 388.226562 470.464844 C 389.269531 470.125 390.332031 469.835938 391.410156 469.601562 C 392.484375 469.371094 393.574219 469.191406 394.675781 469.070312 C 395.777344 468.949219 396.882812 468.886719 397.996094 468.878906 C 399.109375 468.871094 400.226562 468.917969 401.339844 469.023438 C 402.457031 469.128906 403.566406 469.289062 404.675781 469.507812 C 405.78125 469.726562 406.878906 469.996094 407.964844 470.324219 C 409.054688 470.652344 410.125 471.035156 411.183594 471.46875 C 412.242188 471.902344 413.277344 472.386719 414.296875 472.925781 C 415.3125 473.460938 416.304688 474.046875 417.273438 474.683594 C 418.242188 475.320312 419.179688 476 420.089844 476.726562 C 420.996094 477.453125 421.871094 478.21875 422.710938 479.03125 C 423.550781 479.84375 424.355469 480.691406 425.121094 481.578125 C 425.882812 482.464844 426.605469 483.386719 427.289062 484.34375 C 427.96875 485.300781 428.605469 486.285156 429.195312 487.296875 Z M 429.195312 487.296875 " fill-opacity="1" fill-rule="nonzero"/><path fill="#000000" d="M 394.238281 522.667969 C 392.019531 521.742188 390.972656 519.191406 391.898438 516.96875 L 405.09375 485.375 C 406.019531 483.15625 408.5625 482.109375 410.789062 483.035156 C 413.011719 483.960938 414.058594 486.511719 413.132812 488.734375 L 399.9375 520.328125 C 399.007812 522.550781 396.457031 523.59375 394.238281 522.667969 Z M 394.238281 522.667969 " fill-opacity="1" fill-rule="nonzero"/><path fill="#000000" d="M 413.761719 518.046875 L 385.140625 497.207031 C 383.195312 495.789062 382.769531 493.0625 384.183594 491.121094 C 385.605469 489.171875 388.320312 488.746094 390.269531 490.160156 L 418.890625 511.003906 C 420.839844 512.421875 421.265625 515.144531 419.851562 517.089844 C 418.441406 519.023438 415.722656 519.46875 413.761719 518.046875 Z M 413.761719 518.046875 " fill-opacity="1" fill-rule="nonzero"/></svg>