<svg xmlns="http://www.w3.org/2000/svg" xmlns:xlink="http://www.w3.org/1999/xlink" width="2000" zoomAndPan="magnify" viewBox="0 0 1500 1499.999933" height="2000" preserveAspectRatio="xMidYMid meet" version="1.0"><path fill="#084c94" d="M 909.960938 455.039062 C 909.609375 455.390625 909.140625 455.742188 908.789062 456.09375 C 895.898438 466.054688 887.929688 478.007812 884.296875 492.1875 L 1125 492.1875 C 1125 285.351562 956.835938 117.1875 750 117.1875 C 543.164062 117.1875 375 285.351562 375 492.1875 L 540.820312 492.1875 C 545.039062 456.679688 558.28125 425.742188 579.726562 403.476562 C 601.171875 380.859375 630.117188 366.328125 658.828125 363.75 C 682.382812 361.523438 703.476562 368.90625 722.109375 375.46875 C 725.15625 376.523438 728.320312 377.695312 731.367188 378.632812 C 744.492188 383.085938 754.570312 380.039062 772.851562 373.828125 C 781.992188 370.78125 792.304688 367.148438 803.90625 365.15625 C 842.460938 358.242188 881.953125 371.71875 912.070312 402.1875 C 920.039062 410.273438 924.492188 420.585938 924.140625 430.664062 C 923.90625 438.632812 920.625 445.78125 914.882812 450.820312 Z M 757.96875 323.4375 C 754.21875 324.375 750.820312 321.328125 750.9375 316.875 C 751.054688 296.132812 757.5 240.585938 819.726562 222.890625 C 823.359375 221.835938 826.640625 224.648438 826.640625 229.101562 C 826.289062 250.546875 819.492188 309.375 757.96875 323.4375 Z M 757.96875 323.4375 " fill-opacity="1" fill-rule="nonzero"/><path fill="#084c94" d="M 269.53125 257.8125 C 269.53125 141.5 364.15625 46.875 480.46875 46.875 L 1019.53125 46.875 C 1135.84375 46.875 1230.46875 141.5 1230.46875 257.8125 L 1230.46875 492.1875 L 1277.34375 492.1875 L 1277.34375 257.8125 C 1277.34375 115.652344 1161.691406 0 1019.53125 0 L 480.46875 0 C 338.308594 0 222.65625 115.652344 222.65625 257.8125 L 222.65625 492.1875 L 269.53125 492.1875 Z M 269.53125 257.8125 " fill-opacity="1" fill-rule="nonzero"/><path fill="#084c94" d="M 1335.9375 539.0625 L 164.0625 539.0625 C 151.121094 539.0625 140.625 549.554688 140.625 562.5 C 140.625 575.441406 151.121094 585.9375 164.0625 585.9375 L 1335.9375 585.9375 C 1348.882812 585.9375 1359.375 575.441406 1359.375 562.5 C 1359.375 549.554688 1348.882812 539.0625 1335.9375 539.0625 Z M 1335.9375 539.0625 " fill-opacity="1" fill-rule="nonzero"/><path fill="#084c94" d="M 351.5625 632.8125 L 234.375 632.8125 C 195.601562 632.8125 164.0625 664.351562 164.0625 703.125 L 164.0625 820.3125 C 164.0625 859.085938 195.601562 890.625 234.375 890.625 L 351.5625 890.625 C 390.335938 890.625 421.875 859.085938 421.875 820.3125 L 421.875 703.125 C 421.875 664.351562 390.335938 632.8125 351.5625 632.8125 Z M 351.5625 632.8125 " fill-opacity="1" fill-rule="nonzero"/><path fill="#084c94" d="M 656.25 632.8125 L 539.0625 632.8125 C 500.289062 632.8125 468.75 664.351562 468.75 703.125 L 468.75 820.3125 C 468.75 859.085938 500.289062 890.625 539.0625 890.625 L 656.25 890.625 C 695.023438 890.625 726.5625 859.085938 726.5625 820.3125 L 726.5625 703.125 C 726.5625 664.351562 695.023438 632.8125 656.25 632.8125 Z M 679.6875 820.3125 C 679.6875 833.238281 669.175781 843.75 656.25 843.75 L 539.0625 843.75 C 526.136719 843.75 515.625 833.238281 515.625 820.3125 L 515.625 703.125 C 515.625 690.199219 526.136719 679.6875 539.0625 679.6875 L 656.25 679.6875 C 669.175781 679.6875 679.6875 690.199219 679.6875 703.125 Z M 679.6875 820.3125 " fill-opacity="1" fill-rule="nonzero"/><path fill="#084c94" d="M 960.9375 632.8125 L 843.75 632.8125 C 804.976562 632.8125 773.4375 664.351562 773.4375 703.125 L 773.4375 820.3125 C 773.4375 859.085938 804.976562 890.625 843.75 890.625 L 960.9375 890.625 C 999.710938 890.625 1031.25 859.085938 1031.25 820.3125 L 1031.25 703.125 C 1031.25 664.351562 999.710938 632.8125 960.9375 632.8125 Z M 960.9375 632.8125 " fill-opacity="1" fill-rule="nonzero"/><path fill="#084c94" d="M 1265.625 632.8125 L 1148.4375 632.8125 C 1109.664062 632.8125 1078.125 664.351562 1078.125 703.125 L 1078.125 820.3125 C 1078.125 859.085938 1109.664062 890.625 1148.4375 890.625 L 1265.625 890.625 C 1304.398438 890.625 1335.9375 859.085938 1335.9375 820.3125 L 1335.9375 703.125 C 1335.9375 664.351562 1304.398438 632.8125 1265.625 632.8125 Z M 1289.0625 820.3125 C 1289.0625 833.238281 1278.550781 843.75 1265.625 843.75 L 1148.4375 843.75 C 1135.511719 843.75 1125 833.238281 1125 820.3125 L 1125 703.125 C 1125 690.199219 1135.511719 679.6875 1148.4375 679.6875 L 1265.625 679.6875 C 1278.550781 679.6875 1289.0625 690.199219 1289.0625 703.125 Z M 1289.0625 820.3125 " fill-opacity="1" fill-rule="nonzero"/><path fill="#084c94" d="M 351.5625 937.5 L 234.375 937.5 C 195.601562 937.5 164.0625 969.039062 164.0625 1007.8125 L 164.0625 1125 C 164.0625 1163.773438 195.601562 1195.3125 234.375 1195.3125 L 351.5625 1195.3125 C 390.335938 1195.3125 421.875 1163.773438 421.875 1125 L 421.875 1007.8125 C 421.875 969.039062 390.335938 937.5 351.5625 937.5 Z M 375 1125 C 375 1137.925781 364.488281 1148.4375 351.5625 1148.4375 L 234.375 1148.4375 C 221.449219 1148.4375 210.9375 1137.925781 210.9375 1125 L 210.9375 1007.8125 C 210.9375 994.886719 221.449219 984.375 234.375 984.375 L 351.5625 984.375 C 364.488281 984.375 375 994.886719 375 1007.8125 Z M 375 1125 " fill-opacity="1" fill-rule="nonzero"/><path fill="#084c94" d="M 656.25 937.5 L 539.0625 937.5 C 500.289062 937.5 468.75 969.039062 468.75 1007.8125 L 468.75 1125 C 468.75 1163.773438 500.289062 1195.3125 539.0625 1195.3125 L 656.25 1195.3125 C 695.023438 1195.3125 726.5625 1163.773438 726.5625 1125 L 726.5625 1007.8125 C 726.5625 969.039062 695.023438 937.5 656.25 937.5 Z M 656.25 937.5 " fill-opacity="1" fill-rule="nonzero"/><path fill="#084c94" d="M 960.9375 937.5 L 843.75 937.5 C 804.976562 937.5 773.4375 969.039062 773.4375 1007.8125 L 773.4375 1125 C 773.4375 1163.773438 804.976562 1195.3125 843.75 1195.3125 L 960.9375 1195.3125 C 999.710938 1195.3125 1031.25 1163.773438 1031.25 1125 L 1031.25 1007.8125 C 1031.25 969.039062 999.710938 937.5 960.9375 937.5 Z M 984.375 1125 C 984.375 1137.925781 973.863281 1148.4375 960.9375 1148.4375 L 843.75 1148.4375 C 830.824219 1148.4375 820.3125 1137.925781 820.3125 1125 L 820.3125 1007.8125 C 820.3125 994.886719 830.824219 984.375 843.75 984.375 L 960.9375 984.375 C 973.863281 984.375 984.375 994.886719 984.375 1007.8125 Z M 984.375 1125 " fill-opacity="1" fill-rule="nonzero"/><path fill="#084c94" d="M 1265.625 937.5 L 1148.4375 937.5 C 1109.664062 937.5 1078.125 969.039062 1078.125 1007.8125 L 1078.125 1125 C 1078.125 1163.773438 1109.664062 1195.3125 1148.4375 1195.3125 L 1265.625 1195.3125 C 1304.398438 1195.3125 1335.9375 1163.773438 1335.9375 1125 L 1335.9375 1007.8125 C 1335.9375 969.039062 1304.398438 937.5 1265.625 937.5 Z M 1265.625 937.5 " fill-opacity="1" fill-rule="nonzero"/><path fill="#084c94" d="M 351.5625 1242.1875 L 234.375 1242.1875 C 195.601562 1242.1875 164.0625 1273.726562 164.0625 1312.5 L 164.0625 1429.6875 C 164.0625 1468.460938 195.601562 1500 234.375 1500 L 351.5625 1500 C 390.335938 1500 421.875 1468.460938 421.875 1429.6875 L 421.875 1312.5 C 421.875 1273.726562 390.335938 1242.1875 351.5625 1242.1875 Z M 351.5625 1242.1875 " fill-opacity="1" fill-rule="nonzero"/><path fill="#084c94" d="M 656.25 1242.1875 L 539.0625 1242.1875 C 500.289062 1242.1875 468.75 1273.726562 468.75 1312.5 L 468.75 1429.6875 C 468.75 1468.460938 500.289062 1500 539.0625 1500 L 656.25 1500 C 695.023438 1500 726.5625 1468.460938 726.5625 1429.6875 L 726.5625 1312.5 C 726.5625 1273.726562 695.023438 1242.1875 656.25 1242.1875 Z M 679.6875 1429.6875 C 679.6875 1442.613281 669.175781 1453.125 656.25 1453.125 L 539.0625 1453.125 C 526.136719 1453.125 515.625 1442.613281 515.625 1429.6875 L 515.625 1312.5 C 515.625 1299.574219 526.136719 1289.0625 539.0625 1289.0625 L 656.25 1289.0625 C 669.175781 1289.0625 679.6875 1299.574219 679.6875 1312.5 Z M 679.6875 1429.6875 " fill-opacity="1" fill-rule="nonzero"/><path fill="#084c94" d="M 960.9375 1242.1875 L 843.75 1242.1875 C 804.976562 1242.1875 773.4375 1273.726562 773.4375 1312.5 L 773.4375 1429.6875 C 773.4375 1468.460938 804.976562 1500 843.75 1500 L 960.9375 1500 C 999.710938 1500 1031.25 1468.460938 1031.25 1429.6875 L 1031.25 1312.5 C 1031.25 1273.726562 999.710938 1242.1875 960.9375 1242.1875 Z M 960.9375 1242.1875 " fill-opacity="1" fill-rule="nonzero"/><path fill="#084c94" d="M 1265.625 1242.1875 L 1148.4375 1242.1875 C 1109.664062 1242.1875 1078.125 1273.726562 1078.125 1312.5 L 1078.125 1429.6875 C 1078.125 1468.460938 1109.664062 1500 1148.4375 1500 L 1265.625 1500 C 1304.398438 1500 1335.9375 1468.460938 1335.9375 1429.6875 L 1335.9375 1312.5 C 1335.9375 1273.726562 1304.398438 1242.1875 1265.625 1242.1875 Z M 1289.0625 1429.6875 C 1289.0625 1442.613281 1278.550781 1453.125 1265.625 1453.125 L 1148.4375 1453.125 C 1135.511719 1453.125 1125 1442.613281 1125 1429.6875 L 1125 1312.5 C 1125 1299.574219 1135.511719 1289.0625 1148.4375 1289.0625 L 1265.625 1289.0625 C 1278.550781 1289.0625 1289.0625 1299.574219 1289.0625 1312.5 Z M 1289.0625 1429.6875 " fill-opacity="1" fill-rule="nonzero"/><path fill="#084c94" d="M 1476.5625 539.0625 L 1429.6875 539.0625 C 1416.742188 539.0625 1406.25 549.554688 1406.25 562.5 C 1406.25 575.441406 1416.742188 585.9375 1429.6875 585.9375 L 1476.5625 585.9375 C 1489.507812 585.9375 1500 575.441406 1500 562.5 C 1500 549.554688 1489.507812 539.0625 1476.5625 539.0625 Z M 1476.5625 539.0625 " fill-opacity="1" fill-rule="nonzero"/><path fill="#084c94" d="M 70.3125 539.0625 L 23.4375 539.0625 C 10.496094 539.0625 0 549.554688 0 562.5 C 0 575.441406 10.496094 585.9375 23.4375 585.9375 L 70.3125 585.9375 C 83.257812 585.9375 93.75 575.441406 93.75 562.5 C 93.75 549.554688 83.257812 539.0625 70.3125 539.0625 Z M 70.3125 539.0625 " fill-opacity="1" fill-rule="nonzero"/></svg>