<svg xmlns="http://www.w3.org/2000/svg" xmlns:xlink="http://www.w3.org/1999/xlink" width="2000" zoomAndPan="magnify" viewBox="0 0 1500 1499.999933" height="2000" preserveAspectRatio="xMidYMid meet" version="1.0"><path fill="#fda4ff" d="M 260.019531 482.792969 L 184.746094 482.792969 L 184.746094 458.039062 L 260.019531 458.039062 L 260.019531 482.792969 " fill-opacity="1" fill-rule="nonzero"/><path fill="#8c7bff" d="M 593.40625 443.191406 L 252.804688 443.191406 L 252.804688 418.433594 L 593.40625 418.433594 L 593.40625 443.191406 " fill-opacity="1" fill-rule="nonzero"/><path fill="#fda4ff" d="M 309.886719 325.703125 L 184.746094 325.703125 L 184.746094 300.953125 L 309.886719 300.953125 L 309.886719 325.703125 " fill-opacity="1" fill-rule="nonzero"/><path fill="#fda4ff" d="M 410.558594 364.832031 L 252.800781 364.832031 L 252.800781 340.082031 L 410.558594 340.082031 L 410.558594 364.832031 " fill-opacity="1" fill-rule="nonzero"/><path fill="#fda4ff" d="M 714.78125 639.234375 L 517.191406 639.234375 L 517.191406 614.484375 L 714.78125 614.484375 L 714.78125 639.234375 " fill-opacity="1" fill-rule="nonzero"/><path fill="#8c7bff" d="M 958.46875 678.214844 L 636.453125 678.214844 L 636.453125 653.464844 L 958.46875 653.464844 L 958.46875 678.214844 " fill-opacity="1" fill-rule="nonzero"/><path fill="#8c7bff" d="M 537.578125 364.832031 L 443.125 364.832031 L 443.125 340.082031 L 537.578125 340.082031 L 537.578125 364.832031 " fill-opacity="1" fill-rule="nonzero"/><path fill="#fda4ff" d="M 326.507812 247.53125 L 126.097656 247.53125 L 126.097656 222.78125 L 326.507812 222.78125 L 326.507812 247.53125 " fill-opacity="1" fill-rule="nonzero"/><path fill="#fda4ff" d="M 325.566406 521.941406 L 184.746094 521.941406 L 184.746094 497.1875 L 325.566406 497.1875 L 325.566406 521.941406 " fill-opacity="1" fill-rule="nonzero"/><path fill="#fda4ff" d="M 425.925781 600.683594 L 301.257812 600.683594 L 301.257812 575.925781 L 425.925781 575.925781 L 425.925781 600.683594 " fill-opacity="1" fill-rule="nonzero"/><path fill="#fda4ff" d="M 491.789062 639.234375 L 360.769531 639.234375 L 360.769531 614.484375 L 491.789062 614.484375 L 491.789062 639.234375 " fill-opacity="1" fill-rule="nonzero"/><path fill="#8c7bff" d="M 537.582031 678.214844 L 363.59375 678.214844 L 363.59375 653.464844 L 537.582031 653.464844 L 537.582031 678.214844 " fill-opacity="1" fill-rule="nonzero"/><path fill="#8c7bff" d="M 874.832031 639.234375 L 735.246094 639.234375 L 735.246094 614.484375 L 874.832031 614.484375 L 874.832031 639.234375 " fill-opacity="1" fill-rule="nonzero"/><path fill="#8c7bff" d="M 600.71875 600.683594 L 447.878906 600.683594 L 447.878906 575.925781 L 600.71875 575.925781 L 600.71875 600.683594 " fill-opacity="1" fill-rule="nonzero"/><path fill="#8c7bff" d="M 746.664062 600.683594 L 628.113281 600.683594 L 628.113281 575.925781 L 746.664062 575.925781 L 746.664062 600.683594 " fill-opacity="1" fill-rule="nonzero"/><path fill="#fda4ff" d="M 473.179688 561.414062 L 252.804688 561.414062 L 252.804688 536.664062 L 473.179688 536.664062 L 473.179688 561.414062 " fill-opacity="1" fill-rule="nonzero"/><path fill="#8c7bff" d="M 540.554688 561.414062 L 493.824219 561.414062 L 493.824219 536.664062 L 540.554688 536.664062 L 540.554688 561.414062 " fill-opacity="1" fill-rule="nonzero"/><path fill="#8c7bff" d="M 608.722656 678.214844 L 561.988281 678.214844 L 561.988281 653.464844 L 608.722656 653.464844 L 608.722656 678.214844 " fill-opacity="1" fill-rule="nonzero"/><path fill="#8c7bff" d="M 826.953125 601.152344 L 780.222656 601.152344 L 780.222656 576.402344 L 826.953125 576.402344 L 826.953125 601.152344 " fill-opacity="1" fill-rule="nonzero"/><path fill="#8c7bff" d="M 944.875 637.984375 L 892.921875 637.984375 L 892.921875 613.234375 L 944.875 613.234375 L 944.875 637.984375 " fill-opacity="1" fill-rule="nonzero"/><path fill="#8c7bff" d="M 670.859375 521.78125 L 367.367188 521.78125 L 367.367188 497.027344 L 670.859375 497.027344 L 670.859375 521.78125 " fill-opacity="1" fill-rule="nonzero"/><path fill="#8c7bff" d="M 630.714844 286.1875 L 299.910156 286.1875 L 299.910156 261.441406 L 630.714844 261.441406 L 630.714844 286.1875 " fill-opacity="1" fill-rule="nonzero"/><path fill="#8c7bff" d="M 859.992188 286.1875 L 652.035156 286.1875 L 652.035156 261.441406 L 859.992188 261.441406 L 859.992188 286.1875 " fill-opacity="1" fill-rule="nonzero"/><path fill="#8c7bff" d="M 958.472656 286.1875 L 888.835938 286.1875 L 888.835938 261.441406 L 958.472656 261.441406 L 958.472656 286.1875 " fill-opacity="1" fill-rule="nonzero"/><path fill="#fda4ff" d="M 252.804688 286.1875 L 126.097656 286.1875 L 126.097656 261.441406 L 252.804688 261.441406 L 252.804688 286.1875 " fill-opacity="1" fill-rule="nonzero"/><path fill="#8c7bff" d="M 836.625 404.097656 L 777.1875 404.097656 L 777.1875 379.34375 L 836.625 379.34375 L 836.625 404.097656 " fill-opacity="1" fill-rule="nonzero"/><path fill="#8c7bff" d="M 371.667969 403.675781 L 252.804688 403.675781 L 252.804688 378.921875 L 371.667969 378.921875 L 371.667969 403.675781 " fill-opacity="1" fill-rule="nonzero"/><path fill="#8c7bff" d="M 746.65625 404.097656 L 410.558594 404.097656 L 410.558594 379.34375 L 746.65625 379.34375 L 746.65625 404.097656 " fill-opacity="1" fill-rule="nonzero"/><path fill="#000000" d="M 47.078125 841.816406 L 1154.363281 841.816406 L 1154.363281 96.804688 L 47.078125 96.804688 Z M 1156.144531 845.382812 L 45.296875 845.382812 C 44.3125 845.382812 43.519531 844.582031 43.519531 843.605469 L 43.519531 95.027344 C 43.519531 94.039062 44.3125 93.246094 45.296875 93.246094 L 1156.144531 93.246094 C 1157.132812 93.246094 1157.925781 94.039062 1157.925781 95.027344 L 1157.925781 843.605469 C 1157.925781 844.582031 1157.132812 845.382812 1156.144531 845.382812 " fill-opacity="1" fill-rule="nonzero"/><path fill="#000000" d="M 1111.441406 801.789062 L 223.089844 801.789062 C 222.105469 801.789062 221.3125 800.992188 221.3125 800.003906 C 221.3125 799.027344 222.105469 798.226562 223.089844 798.226562 L 1109.660156 798.226562 L 1109.660156 140.398438 L 804.75 140.398438 C 803.757812 140.398438 802.964844 139.605469 802.964844 138.625 C 802.964844 137.644531 803.757812 136.839844 804.75 136.839844 L 1111.441406 136.839844 C 1112.425781 136.839844 1113.21875 137.644531 1113.21875 138.625 L 1113.21875 800.003906 C 1113.21875 800.992188 1112.425781 801.789062 1111.441406 801.789062 " fill-opacity="1" fill-rule="nonzero"/><path fill="#000000" d="M 427.207031 1078.078125 L 774.242188 1078.078125 L 774.242188 845.378906 L 427.207031 845.378906 Z M 776.019531 1081.632812 L 425.425781 1081.632812 C 424.445312 1081.632812 423.644531 1080.839844 423.644531 1079.855469 L 423.644531 843.601562 C 423.644531 842.617188 424.445312 841.816406 425.425781 841.816406 L 776.019531 841.816406 C 777.003906 841.816406 777.796875 842.617188 777.796875 843.601562 L 777.796875 1079.855469 C 777.796875 1080.839844 777.003906 1081.632812 776.019531 1081.632812 " fill-opacity="1" fill-rule="nonzero"/><path fill="#000000" d="M 209.671875 1185.855469 L 991.777344 1185.855469 L 985.957031 1179.574219 C 928.25 1117.332031 846.507812 1081.632812 761.679688 1081.632812 L 439.769531 1081.632812 C 354.941406 1081.632812 273.199219 1117.332031 215.488281 1179.574219 Z M 995.851562 1189.40625 L 205.59375 1189.40625 C 204.882812 1189.40625 204.246094 1188.988281 203.960938 1188.339844 C 203.679688 1187.695312 203.808594 1186.9375 204.289062 1186.417969 L 212.882812 1177.15625 C 271.257812 1114.1875 353.957031 1078.078125 439.769531 1078.078125 L 761.679688 1078.078125 C 847.492188 1078.078125 930.191406 1114.1875 988.570312 1177.15625 L 997.160156 1186.417969 C 997.636719 1186.9375 997.765625 1187.695312 997.480469 1188.339844 C 997.199219 1188.988281 996.5625 1189.40625 995.851562 1189.40625 " fill-opacity="1" fill-rule="nonzero"/><path fill="#8c7bff" d="M 964.804688 1341.851562 L 904.714844 1341.851562 L 904.714844 1327.476562 L 964.804688 1327.476562 L 964.804688 1341.851562 " fill-opacity="1" fill-rule="nonzero"/><path fill="#8c7bff" d="M 1085 1289.691406 L 959.054688 1289.691406 L 959.054688 1275.316406 L 1085 1275.316406 L 1085 1289.691406 " fill-opacity="1" fill-rule="nonzero"/><path fill="#fda4ff" d="M 1186.402344 1289.691406 L 1106.1875 1289.691406 L 1106.1875 1275.320312 L 1186.402344 1275.320312 L 1186.402344 1289.691406 " fill-opacity="1" fill-rule="nonzero"/><path fill="#fda4ff" d="M 1017.136719 1366.375 L 904.714844 1366.375 L 904.714844 1351.992188 L 1017.136719 1351.992188 L 1017.136719 1366.375 " fill-opacity="1" fill-rule="nonzero"/><path fill="#8c7bff" d="M 1292.8125 1366.277344 L 1050.515625 1366.277344 L 1050.515625 1351.90625 L 1292.8125 1351.90625 L 1292.8125 1366.277344 " fill-opacity="1" fill-rule="nonzero"/><path fill="#fda4ff" d="M 1425.160156 1317.835938 L 1369.726562 1317.835938 L 1369.726562 1303.453125 L 1425.160156 1303.453125 L 1425.160156 1317.835938 " fill-opacity="1" fill-rule="nonzero"/><path fill="#8c7bff" d="M 1053.949219 1317.589844 L 959.058594 1317.589844 L 959.058594 1303.210938 L 1053.949219 1303.210938 L 1053.949219 1317.589844 " fill-opacity="1" fill-rule="nonzero"/><path fill="#8c7bff" d="M 1353.347656 1317.835938 L 1085 1317.835938 L 1085 1303.449219 L 1353.347656 1303.449219 L 1353.347656 1317.835938 " fill-opacity="1" fill-rule="nonzero"/><path fill="#000000" d="M 788.703125 1250.527344 C 769.34375 1250.527344 753.589844 1266.269531 753.589844 1285.625 L 753.589844 1355.886719 C 753.589844 1375.238281 769.34375 1390.988281 788.703125 1390.988281 L 1417.464844 1390.988281 C 1436.816406 1390.988281 1452.570312 1375.238281 1452.570312 1355.886719 L 1452.570312 1285.625 C 1452.570312 1266.269531 1436.816406 1250.527344 1417.464844 1250.527344 Z M 1417.464844 1394.542969 L 788.703125 1394.542969 C 767.378906 1394.542969 750.035156 1377.203125 750.035156 1355.886719 L 750.035156 1285.625 C 750.035156 1264.3125 767.378906 1246.964844 788.703125 1246.964844 L 1417.464844 1246.964844 C 1438.789062 1246.964844 1456.132812 1264.3125 1456.132812 1285.625 L 1456.132812 1355.886719 C 1456.132812 1377.203125 1438.789062 1394.542969 1417.464844 1394.542969 " fill-opacity="1" fill-rule="nonzero"/><path fill="#000000" d="M 813.675781 1306.128906 L 784.933594 1317.449219 L 813.675781 1328.769531 L 813.675781 1333.609375 L 779.699219 1320.023438 L 779.699219 1314.871094 L 813.675781 1301.214844 L 813.675781 1306.128906 " fill-opacity="1" fill-rule="nonzero"/><path fill="#000000" d="M 842.972656 1279.042969 L 848.050781 1279.042969 L 822.273438 1352.582031 L 817.1875 1352.582031 L 842.972656 1279.042969 " fill-opacity="1" fill-rule="nonzero"/><path fill="#000000" d="M 884.769531 1314.871094 L 884.769531 1320.023438 L 850.78125 1333.609375 L 850.78125 1328.769531 L 879.53125 1317.449219 L 850.78125 1306.128906 L 850.78125 1301.214844 L 884.769531 1314.871094 " fill-opacity="1" fill-rule="nonzero"/><path fill="#8c7bff" d="M 576.3125 1333.425781 L 555.90625 1374.695312 L 500.71875 1486.328125 L 500.71875 1497.714844 L 243.917969 1497.714844 L 243.917969 1305.304688 L 447.40625 1322.523438 L 447.476562 1322.523438 L 535.398438 1329.957031 L 576.3125 1333.425781 " fill-opacity="1" fill-rule="nonzero"/><path fill="#8c7bff" d="M 716.445312 1497.714844 L 327.285156 1497.714844 L 472.875 1380.335938 C 472.894531 1380.335938 472.894531 1380.335938 472.910156 1380.320312 L 535.398438 1329.957031 L 545.039062 1322.183594 L 580.0625 1293.960938 L 588.535156 1287.140625 L 588.535156 1376 L 716.445312 1497.714844 " fill-opacity="1" fill-rule="nonzero"/><path fill="#000000" d="M 588.535156 1376 L 588.535156 1293.910156 L 243.910156 1296.117188 L 243.910156 1393.664062 C 315.421875 1445.917969 390.804688 1417.605469 425.652344 1398.863281 C 471.394531 1374.261719 505.511719 1371.949219 588.535156 1376 " fill-opacity="1" fill-rule="nonzero"/><path fill="#000000" d="M 243.917969 1499.492188 C 242.929688 1499.492188 242.136719 1498.691406 242.136719 1497.714844 L 242.136719 1316.996094 C 242.136719 1316.011719 242.929688 1315.21875 243.917969 1315.21875 C 244.902344 1315.21875 245.695312 1316.011719 245.695312 1316.996094 L 245.695312 1497.714844 C 245.695312 1498.691406 244.902344 1499.492188 243.917969 1499.492188 " fill-opacity="1" fill-rule="nonzero"/><path fill="#955b50" d="M 444.296875 824.570312 L 376.285156 824.570312 L 376.285156 725.277344 L 444.296875 725.277344 L 444.296875 824.570312 " fill-opacity="1" fill-rule="nonzero"/><path fill="#000000" d="M 508.734375 549.125 L 508.734375 627.785156 C 508.734375 656.609375 485.441406 679.976562 456.703125 679.976562 L 433.242188 679.976562 L 360.488281 694.203125 L 360.488281 670.011719 C 360.488281 644.230469 374.675781 620.554688 397.378906 608.457031 L 508.734375 549.125 " fill-opacity="1" fill-rule="nonzero"/><path fill="#955b50" d="M 361.367188 718.195312 C 366.75 751.253906 395.277344 774.089844 425.09375 769.207031 C 454.90625 764.320312 474.714844 733.5625 469.335938 700.515625 C 463.957031 667.460938 435.425781 644.625 405.609375 649.503906 C 375.796875 654.386719 355.988281 685.140625 361.367188 718.195312 " fill-opacity="1" fill-rule="nonzero"/><path fill="#000000" d="M 417.070312 771.640625 C 401.277344 771.640625 385.886719 764.367188 374.683594 751.308594 C 374.042969 750.558594 374.128906 749.433594 374.875 748.796875 C 375.621094 748.160156 376.746094 748.238281 377.386719 748.988281 C 389.734375 763.390625 407.46875 770.289062 424.804688 767.445312 C 453.605469 762.734375 472.792969 732.839844 467.578125 700.796875 C 464.898438 684.347656 456.019531 669.632812 443.21875 660.421875 C 432.0625 652.398438 418.808594 649.140625 405.898438 651.269531 C 404.933594 651.429688 404.011719 650.765625 403.855469 649.796875 C 403.695312 648.824219 404.351562 647.90625 405.320312 647.75 C 419.164062 645.480469 433.367188 648.953125 445.296875 657.535156 C 458.859375 667.289062 468.261719 682.855469 471.089844 700.226562 C 476.617188 734.195312 456.117188 765.925781 425.382812 770.960938 C 422.613281 771.414062 419.832031 771.640625 417.070312 771.640625 " fill-opacity="1" fill-rule="nonzero"/><path fill="#000000" d="M 359.367188 724.933594 C 367.851562 756.441406 396.40625 777.335938 426.179688 772.453125 C 455.953125 767.582031 476.402344 738.664062 474.453125 706.089844 L 359.367188 724.933594 " fill-opacity="1" fill-rule="nonzero"/><path fill="#ffffff" d="M 444.441406 737.574219 C 441.796875 741.667969 437.890625 745 432.984375 746.832031 C 422.03125 750.929688 409.988281 746.257812 404.429688 736.359375 L 444.441406 737.574219 " fill-opacity="1" fill-rule="nonzero"/><path fill="#000000" d="M 414.105469 637.402344 C 384.492188 637.402344 360.488281 664.011719 360.488281 696.839844 C 360.488281 699.789062 360.691406 702.6875 361.0625 705.527344 L 395.78125 679.839844 L 464.515625 679.839844 C 457.914062 655.296875 438.382812 637.402344 414.105469 637.402344 " fill-opacity="1" fill-rule="nonzero"/><path fill="#4ada85" d="M 392.566406 678.628906 C 391.476562 678.628906 390.382812 678.714844 389.289062 678.890625 C 378.238281 680.679688 370.707031 691.152344 372.488281 702.238281 C 373.355469 707.617188 376.261719 712.335938 380.671875 715.523438 C 385.0625 718.6875 390.417969 719.949219 395.757812 719.09375 C 406.804688 717.300781 414.339844 706.828125 412.554688 695.742188 C 411.6875 690.359375 408.785156 685.640625 404.375 682.464844 C 400.882812 679.945312 396.785156 678.628906 392.566406 678.628906 Z M 392.472656 722.914062 C 387.515625 722.914062 382.691406 721.371094 378.589844 718.40625 C 373.40625 714.664062 369.992188 709.121094 368.976562 702.800781 C 366.878906 689.785156 375.734375 677.476562 388.71875 675.378906 C 394.996094 674.359375 401.296875 675.847656 406.457031 679.570312 C 411.640625 683.316406 415.054688 688.855469 416.070312 695.175781 C 418.167969 708.199219 409.3125 720.5 396.324219 722.609375 C 395.039062 722.808594 393.753906 722.914062 392.472656 722.914062 " fill-opacity="1" fill-rule="nonzero"/><path fill="#4ada85" d="M 454.816406 668.542969 C 453.730469 668.542969 452.628906 668.632812 451.539062 668.800781 C 440.492188 670.59375 432.957031 681.066406 434.738281 692.152344 C 435.605469 697.535156 438.515625 702.253906 442.925781 705.4375 C 447.3125 708.597656 452.671875 709.867188 458.007812 709.007812 C 469.058594 707.214844 476.59375 696.742188 474.804688 685.65625 C 473.941406 680.273438 471.035156 675.5625 466.625 672.371094 C 463.132812 669.859375 459.03125 668.542969 454.816406 668.542969 Z M 454.71875 712.828125 C 449.765625 712.828125 444.941406 711.28125 440.839844 708.324219 C 435.65625 704.578125 432.246094 699.035156 431.226562 692.71875 C 429.128906 679.695312 437.984375 667.394531 450.96875 665.292969 C 457.246094 664.273438 463.542969 665.761719 468.707031 669.488281 C 473.886719 673.230469 477.304688 678.773438 478.320312 685.089844 C 480.417969 698.109375 471.5625 710.414062 458.578125 712.515625 C 457.289062 712.726562 456 712.828125 454.71875 712.828125 " fill-opacity="1" fill-rule="nonzero"/><path fill="#4ada85" d="M 414.3125 697.242188 C 413.457031 697.242188 412.699219 696.621094 412.554688 695.746094 C 412.398438 694.777344 413.058594 693.855469 414.03125 693.707031 L 431.917969 690.804688 C 432.894531 690.648438 433.804688 691.304688 433.960938 692.277344 C 434.117188 693.246094 433.460938 694.15625 432.492188 694.316406 L 414.597656 697.21875 C 414.503906 697.234375 414.40625 697.242188 414.3125 697.242188 " fill-opacity="1" fill-rule="nonzero"/><path fill="#4ada85" d="M 352.015625 707.328125 C 351.160156 707.328125 350.402344 706.710938 350.257812 705.832031 C 350.105469 704.863281 350.761719 703.949219 351.734375 703.796875 L 369.433594 700.925781 C 370.394531 700.777344 371.316406 701.429688 371.472656 702.398438 C 371.628906 703.375 370.96875 704.28125 369.996094 704.445312 L 352.300781 707.3125 C 352.207031 707.328125 352.109375 707.328125 352.015625 707.328125 " fill-opacity="1" fill-rule="nonzero"/><path fill="#955b50" d="M 1006.617188 988.585938 L 1057.316406 961.144531 C 1057.316406 961.144531 1052.160156 932.054688 1080.792969 917.148438 C 1087.441406 913.6875 1101.714844 907.785156 1113.828125 902.933594 C 1127.597656 897.425781 1140.5625 890.109375 1152.429688 881.191406 L 1166.019531 870.96875 C 1172.859375 865.828125 1182.515625 867.007812 1187.914062 873.644531 L 1189.066406 875.058594 C 1194.535156 881.78125 1193.671875 891.65625 1187.101562 897.304688 L 1144.730469 933.6875 L 1167.898438 947.707031 C 1179.78125 954.890625 1193.414062 958.617188 1207.277344 958.460938 L 1263.304688 958.957031 C 1272.617188 959.035156 1280.441406 966.003906 1281.632812 975.261719 L 1281.828125 976.84375 L 1311.886719 974.125 C 1320.761719 973.605469 1328.46875 980.183594 1329.390625 989.046875 C 1330.292969 997.757812 1324.332031 1005.683594 1315.722656 1007.195312 L 1104.113281 1044.332031 L 1048.402344 1073.671875 L 1006.617188 988.585938 " fill-opacity="1" fill-rule="nonzero"/><path fill="#000000" d="M 995.242188 996.601562 L 1035.457031 1078.511719 L 1103.277344 1042.757812 C 1103.4375 1042.675781 1103.613281 1042.609375 1103.800781 1042.578125 L 1315.425781 1005.4375 C 1323.066406 1004.101562 1328.425781 996.980469 1327.621094 989.230469 C 1326.792969 981.289062 1319.957031 975.429688 1311.992188 975.898438 L 1282 978.613281 C 1281.046875 978.703125 1280.191406 978.015625 1280.074219 977.070312 L 1279.867188 975.488281 C 1278.796875 967.148438 1271.667969 960.804688 1263.296875 960.730469 L 1207.273438 960.246094 C 1193.101562 960.433594 1179.15625 956.59375 1166.984375 949.222656 L 1143.8125 935.214844 C 1143.324219 934.914062 1143.007812 934.40625 1142.957031 933.839844 C 1142.910156 933.269531 1143.136719 932.710938 1143.578125 932.335938 L 1185.933594 895.949219 C 1191.734375 890.972656 1192.511719 882.101562 1187.695312 876.179688 L 1186.53125 874.757812 C 1181.726562 868.859375 1173.179688 867.808594 1167.101562 872.390625 L 1153.5 882.613281 C 1141.503906 891.636719 1128.382812 899.03125 1114.488281 904.589844 C 1103.222656 909.101562 1088.359375 915.214844 1081.625 918.722656 C 1054.53125 932.828125 1058.871094 959.707031 1059.074219 960.835938 C 1059.203125 961.597656 1058.839844 962.347656 1058.171875 962.71875 Z M 1034.667969 1082.71875 C 1034.480469 1082.71875 1034.292969 1082.6875 1034.109375 1082.632812 C 1033.65625 1082.484375 1033.273438 1082.15625 1033.066406 1081.726562 L 991.289062 996.632812 C 990.867188 995.777344 991.203125 994.730469 992.039062 994.28125 L 1055.410156 960.15625 C 1054.820312 954.179688 1054.019531 929.082031 1079.972656 915.5625 C 1086.847656 911.992188 1101.824219 905.828125 1113.171875 901.285156 C 1126.761719 895.839844 1139.613281 888.597656 1151.355469 879.765625 L 1164.964844 869.542969 C 1172.589844 863.808594 1183.269531 865.117188 1189.296875 872.511719 L 1190.457031 873.933594 C 1196.484375 881.34375 1195.503906 892.425781 1188.253906 898.648438 L 1147.757812 933.433594 L 1168.820312 946.1875 C 1180.4375 953.210938 1193.769531 956.847656 1207.261719 956.683594 L 1263.324219 957.175781 C 1273.425781 957.265625 1282.039062 964.878906 1283.386719 974.914062 L 1311.738281 972.34375 C 1321.660156 971.816406 1330.144531 979.027344 1331.160156 988.859375 C 1332.164062 998.460938 1325.515625 1007.28125 1316.035156 1008.949219 L 1104.695312 1046.035156 L 1035.496094 1082.511719 C 1035.230469 1082.648438 1034.953125 1082.71875 1034.667969 1082.71875 " fill-opacity="1" fill-rule="nonzero"/><path fill="#000000" d="M 1125.980469 951.34375 C 1125.484375 951.34375 1124.980469 951.136719 1124.625 950.714844 C 1124 949.964844 1124.085938 948.847656 1124.835938 948.210938 L 1143.574219 932.332031 C 1144.332031 931.695312 1145.453125 931.789062 1146.085938 932.542969 C 1146.722656 933.292969 1146.636719 934.417969 1145.878906 935.046875 L 1127.136719 950.925781 C 1126.800781 951.207031 1126.398438 951.34375 1125.980469 951.34375 " fill-opacity="1" fill-rule="nonzero"/><path fill="#000000" d="M 1050.800781 1074.015625 L 1006.609375 988.589844 L 1039.621094 970.726562 L 1059.707031 1069.078125 L 1050.800781 1074.015625 " fill-opacity="1" fill-rule="nonzero"/><path fill="#955b50" d="M 1188.972656 985.390625 L 1205.117188 984.296875 C 1215.386719 983.59375 1225.226562 979.925781 1233.449219 973.734375 L 1278.472656 939.796875 C 1284.945312 934.917969 1294.132812 936.164062 1299.089844 942.585938 C 1303.8125 948.703125 1303.066406 957.429688 1297.378906 962.652344 L 1250.855469 1005.363281 C 1247.097656 1008.8125 1242.683594 1011.46875 1237.882812 1013.183594 L 1212.015625 1022.402344 L 1188.972656 985.390625 " fill-opacity="1" fill-rule="nonzero"/><path fill="#000000" d="M 1237.890625 1014.957031 C 1237.15625 1014.957031 1236.480469 1014.507812 1236.207031 1013.78125 C 1235.890625 1012.851562 1236.363281 1011.832031 1237.289062 1011.507812 C 1241.882812 1009.871094 1246.066406 1007.359375 1249.660156 1004.054688 L 1296.183594 961.335938 C 1301.152344 956.773438 1301.8125 949.015625 1297.679688 943.667969 C 1293.347656 938.050781 1285.214844 936.953125 1279.546875 941.21875 L 1245.085938 967.421875 C 1244.304688 968.011719 1243.183594 967.867188 1242.59375 967.082031 C 1241.992188 966.300781 1242.148438 965.183594 1242.929688 964.585938 L 1277.398438 938.382812 C 1284.625 932.941406 1294.984375 934.339844 1300.507812 941.492188 C 1305.746094 948.289062 1304.90625 958.15625 1298.589844 963.957031 L 1252.070312 1006.667969 C 1248.113281 1010.304688 1243.539062 1013.050781 1238.492188 1014.855469 C 1238.289062 1014.925781 1238.082031 1014.957031 1237.890625 1014.957031 " fill-opacity="1" fill-rule="nonzero"/><path fill="#955b50" d="M 1147.660156 996.75 L 1163.398438 992.992188 C 1173.398438 990.605469 1182.5 985.355469 1189.589844 977.882812 L 1228.402344 936.945312 C 1233.984375 931.066406 1243.253906 930.765625 1249.199219 936.277344 C 1254.867188 941.523438 1255.566406 950.253906 1250.820312 956.347656 L 1211.96875 1006.1875 C 1208.832031 1010.210938 1204.925781 1013.574219 1200.460938 1016.054688 L 1176.472656 1029.433594 L 1147.660156 996.75 " fill-opacity="1" fill-rule="nonzero"/><path fill="#000000" d="M 1190.449219 1023.421875 C 1189.828125 1023.421875 1189.21875 1023.078125 1188.890625 1022.492188 C 1188.414062 1021.632812 1188.742188 1020.550781 1189.59375 1020.074219 L 1190.261719 1019.71875 C 1200.347656 1014.175781 1209.902344 1008.949219 1216.726562 999.664062 L 1249.386719 955.285156 C 1253.566406 949.925781 1252.9375 942.164062 1247.988281 937.574219 C 1242.785156 932.761719 1234.582031 933.023438 1229.703125 938.171875 L 1190.890625 979.097656 C 1183.539062 986.847656 1174.183594 992.246094 1163.8125 994.71875 L 1130.921875 1000.003906 C 1129.949219 1000.148438 1129.046875 999.496094 1128.878906 998.527344 C 1128.730469 997.554688 1129.390625 996.640625 1130.359375 996.488281 L 1163.117188 991.234375 C 1172.683594 988.949219 1181.429688 983.890625 1188.300781 976.648438 L 1227.128906 935.722656 C 1233.335938 929.160156 1243.789062 928.824219 1250.40625 934.964844 C 1256.707031 940.800781 1257.503906 950.671875 1252.226562 957.4375 L 1219.597656 1001.773438 C 1212.304688 1011.695312 1202.421875 1017.109375 1191.976562 1022.835938 L 1191.308594 1023.203125 C 1191.039062 1023.347656 1190.746094 1023.421875 1190.449219 1023.421875 " fill-opacity="1" fill-rule="nonzero"/><path fill="#955b50" d="M 105.929688 751.140625 L 105.929688 595.535156 C 105.929688 586.679688 113.105469 579.503906 121.957031 579.503906 C 130.8125 579.503906 137.992188 586.679688 137.992188 595.535156 L 137.992188 751.140625 L 105.929688 751.140625 " fill-opacity="1" fill-rule="nonzero"/><path fill="#955b50" d="M 43.582031 726.769531 C 36.625 726.792969 30.964844 721.164062 30.933594 714.1875 L 30.917969 695.855469 L 14.453125 695.925781 L 14.414062 686.320312 C 14.355469 670.96875 25.34375 662.5 25.230469 662.652344 C 35.945312 653.050781 55.953125 657.417969 56.019531 673.421875 L 56.121094 714.082031 C 56.152344 721.066406 50.535156 726.738281 43.582031 726.769531 " fill-opacity="1" fill-rule="nonzero"/><path fill="#955b50" d="M 137.675781 776.707031 L 169.726562 745.347656 C 177.375 737.871094 187.632812 733.6875 198.3125 733.6875 L 201.277344 733.6875 C 209.554688 733.6875 216.261719 726.953125 216.261719 718.648438 L 216.261719 716.839844 C 216.261719 708.539062 209.554688 701.808594 201.277344 701.808594 L 182.472656 701.808594 C 171.773438 701.808594 161.503906 706.003906 153.855469 713.503906 L 116.707031 749.921875 L 116.707031 684.648438 L 14.050781 684.648438 L 14.050781 882.769531 L 137.992188 881.96875 L 137.675781 776.707031 " fill-opacity="1" fill-rule="nonzero"/><path fill="#000000" d="M 137.847656 831.511719 L 137.992188 881.96875 L 14.046875 882.769531 L 14.046875 853.242188 L 137.847656 831.511719 " fill-opacity="1" fill-rule="nonzero"/><path fill="#955b50" d="M 93.644531 760.691406 C 86.691406 760.714844 81.027344 755.082031 81 748.109375 L 80.980469 695.855469 L 64.515625 695.925781 L 64.480469 686.320312 C 64.414062 670.96875 75.410156 662.5 75.296875 662.652344 C 86.007812 653.050781 106.019531 657.417969 106.082031 673.421875 L 106.1875 748.003906 C 106.214844 754.988281 100.601562 760.664062 93.644531 760.691406 " fill-opacity="1" fill-rule="nonzero"/><path fill="#000000" d="M 93.589844 762.46875 C 85.933594 762.46875 79.632812 756.480469 79.238281 748.8125 L 79.234375 735.519531 C 79.234375 734.542969 80.035156 733.742188 81.015625 733.742188 C 82 733.742188 82.796875 734.542969 82.796875 735.519531 L 82.796875 748.714844 C 83.09375 754.402344 87.828125 758.914062 93.589844 758.914062 C 93.605469 758.914062 93.621094 758.914062 93.636719 758.914062 C 96.523438 758.898438 99.234375 757.765625 101.269531 755.707031 C 103.304688 753.644531 104.421875 750.910156 104.410156 748.011719 L 104.300781 673.421875 C 104.277344 667.855469 101.558594 663.476562 96.652344 661.09375 C 90.632812 658.183594 82.691406 659.0625 77.351562 663.25 C 76.574219 663.855469 75.460938 663.71875 74.851562 662.941406 C 74.242188 662.167969 74.382812 661.050781 75.15625 660.445312 C 81.628906 655.371094 90.890625 654.351562 98.207031 657.894531 C 104.3125 660.851562 107.832031 666.507812 107.859375 673.417969 L 107.96875 748.003906 C 107.984375 751.847656 106.503906 755.46875 103.800781 758.210938 C 101.097656 760.9375 97.488281 762.460938 93.652344 762.46875 C 93.632812 762.46875 93.609375 762.46875 93.589844 762.46875 " fill-opacity="1" fill-rule="nonzero"/><path fill="#955b50" d="M 68.554688 748.207031 C 61.597656 748.230469 55.9375 742.597656 55.910156 735.625 L 55.886719 695.855469 L 39.425781 695.925781 L 39.390625 686.320312 C 39.324219 670.96875 50.320312 662.5 50.207031 662.652344 C 60.917969 653.050781 80.925781 657.417969 80.988281 673.421875 L 81.097656 735.519531 C 81.125 742.503906 75.511719 748.179688 68.554688 748.207031 " fill-opacity="1" fill-rule="nonzero"/><path fill="#000000" d="M 68.5 749.984375 C 64.683594 749.984375 61.089844 748.496094 58.378906 745.796875 C 55.65625 743.089844 54.144531 739.480469 54.132812 735.632812 L 54.121094 716.765625 C 54.121094 715.78125 54.914062 714.988281 55.902344 714.988281 C 56.882812 714.988281 57.679688 715.78125 57.679688 716.765625 L 57.691406 735.625 C 57.703125 738.515625 58.839844 741.242188 60.890625 743.277344 C 62.9375 745.320312 65.648438 746.4375 68.546875 746.429688 C 74.507812 746.402344 79.339844 741.515625 79.316406 735.527344 L 79.210938 673.421875 C 79.1875 667.847656 76.46875 663.46875 71.554688 661.09375 C 65.519531 658.175781 57.582031 659.074219 52.242188 663.265625 C 51.472656 663.871094 50.351562 663.734375 49.746094 662.964844 C 49.136719 662.191406 49.269531 661.070312 50.042969 660.460938 C 56.515625 655.378906 65.785156 654.34375 73.105469 657.882812 C 79.21875 660.851562 82.742188 666.507812 82.769531 673.417969 L 82.878906 735.519531 C 82.90625 743.460938 76.488281 749.953125 68.5625 749.984375 C 68.542969 749.984375 68.519531 749.984375 68.5 749.984375 " fill-opacity="1" fill-rule="nonzero"/><path fill="#000000" d="M 137.988281 883.746094 L 14.414062 883.746094 C 13.941406 883.746094 13.488281 883.558594 13.152344 883.21875 C 12.820312 882.890625 12.636719 882.4375 12.636719 881.96875 L 12.703125 745.828125 L 12.636719 686.320312 C 12.578125 672.023438 21.492188 663.25 24.0625 661.34375 L 24.046875 661.328125 C 30.257812 655.757812 39.925781 654.242188 47.554688 657.625 C 54.035156 660.503906 57.765625 666.253906 57.796875 673.417969 L 57.90625 714.082031 C 57.933594 722.023438 51.511719 728.515625 43.589844 728.546875 C 43.566406 728.546875 43.550781 728.546875 43.527344 728.546875 C 39.710938 728.546875 36.117188 727.058594 33.402344 724.359375 C 30.679688 721.65625 29.171875 718.042969 29.15625 714.195312 L 29.136719 697.1875 C 29.136719 696.207031 29.933594 695.410156 30.914062 695.410156 C 30.914062 695.410156 30.917969 695.410156 30.917969 695.410156 C 31.898438 695.410156 32.695312 696.207031 32.695312 697.1875 L 32.71875 714.1875 C 32.726562 717.082031 33.863281 719.796875 35.914062 721.839844 C 37.957031 723.878906 40.65625 724.992188 43.527344 724.992188 C 43.542969 724.992188 43.558594 724.992188 43.570312 724.992188 C 49.535156 724.964844 54.371094 720.082031 54.34375 714.09375 L 54.238281 673.421875 C 54.203125 665.632812 49.132812 662.214844 46.113281 660.871094 C 39.71875 658.039062 31.625 659.3125 26.417969 663.976562 C 26.351562 664.03125 26.28125 664.089844 26.203125 664.140625 C 25.554688 664.664062 16.140625 672.582031 16.191406 686.308594 L 16.261719 745.828125 L 16.191406 880.191406 L 136.203125 880.191406 L 135.894531 776.707031 C 135.890625 776.230469 136.082031 775.769531 136.429688 775.429688 L 168.484375 744.078125 C 176.511719 736.230469 187.101562 731.90625 198.3125 731.90625 L 201.277344 731.90625 C 208.558594 731.90625 214.484375 725.960938 214.484375 718.648438 L 214.484375 716.839844 C 214.484375 709.535156 208.558594 703.589844 201.277344 703.589844 L 182.472656 703.589844 C 172.179688 703.589844 162.460938 707.5625 155.101562 714.777344 L 139.1875 730.382812 C 138.671875 730.882812 137.910156 731.027344 137.25 730.75 C 136.585938 730.472656 136.160156 729.824219 136.160156 729.105469 L 136.207031 594.375 C 136.207031 587.160156 130.355469 581.28125 123.171875 581.28125 L 120.746094 581.28125 C 113.558594 581.28125 107.710938 587.160156 107.710938 594.375 L 107.710938 674.171875 C 107.710938 675.160156 106.910156 675.960938 105.929688 675.960938 C 104.949219 675.960938 104.148438 675.160156 104.148438 674.171875 L 104.148438 594.375 C 104.148438 585.191406 111.59375 577.726562 120.746094 577.726562 L 123.171875 577.726562 C 132.324219 577.726562 139.769531 585.191406 139.769531 594.375 L 139.71875 724.871094 L 152.609375 712.234375 C 160.640625 704.359375 171.242188 700.023438 182.472656 700.023438 L 201.277344 700.023438 C 210.523438 700.023438 218.042969 707.570312 218.042969 716.839844 L 218.042969 718.648438 C 218.042969 727.917969 210.523438 735.464844 201.277344 735.464844 L 198.3125 735.464844 C 188.039062 735.464844 178.328125 739.421875 170.972656 746.621094 L 139.457031 777.449219 L 139.769531 881.960938 C 139.769531 882.4375 139.582031 882.890625 139.246094 883.21875 C 138.914062 883.558594 138.460938 883.746094 137.988281 883.746094 " fill-opacity="1" fill-rule="nonzero"/><path fill="#fed101" d="M 596.097656 1322.425781 L 239.910156 1323.65625 L 239.910156 886.644531 C 239.910156 846.941406 260.730469 818.878906 300.308594 818.878906 L 524.507812 818.867188 C 579.535156 818.867188 596.097656 863.617188 596.097656 918.820312 L 596.097656 1322.425781 " fill-opacity="1" fill-rule="nonzero"/><path fill="#fed101" d="M 1072.511719 1107.578125 L 1010.722656 958.261719 L 815.535156 1039.535156 L 567.476562 832.476562 L 480.535156 962.511719 L 744.648438 1191.847656 C 769.566406 1213.488281 804.542969 1219.152344 834.992188 1206.472656 L 1072.511719 1107.578125 " fill-opacity="1" fill-rule="nonzero"/><path fill="#000000" d="M 238.132812 1325.441406 L 238.132812 1035.753906 C 238.132812 1034.773438 238.925781 1033.976562 239.910156 1033.976562 C 240.894531 1033.976562 241.691406 1034.773438 241.691406 1035.753906 L 241.691406 1321.867188 L 596.394531 1320.648438 L 596.394531 991.382812 C 596.394531 990.398438 597.199219 989.605469 598.183594 989.605469 C 599.160156 989.605469 599.960938 990.398438 599.960938 991.382812 L 599.960938 1324.195312 L 598.191406 1324.203125 L 238.132812 1325.441406 " fill-opacity="1" fill-rule="nonzero"/><path fill="#fed101" d="M 227.257812 1077.671875 L 140.378906 1193.789062 L 28.617188 1081.679688 L 215.3125 865.445312 C 268.265625 807.183594 321.355469 818.867188 376.285156 818.867188 L 227.257812 1077.671875 " fill-opacity="1" fill-rule="nonzero"/><path fill="#000000" d="M 140.378906 1195.566406 C 139.910156 1195.566406 139.457031 1195.378906 139.121094 1195.039062 L 27.355469 1082.933594 C 26.695312 1082.269531 26.664062 1081.214844 27.273438 1080.511719 L 222.890625 856.53125 C 245.25 830.925781 277.535156 816.242188 311.46875 816.242188 L 374.289062 816.242188 C 375.273438 816.242188 376.070312 817.042969 376.070312 818.019531 C 376.070312 819.007812 375.273438 819.796875 374.289062 819.796875 L 311.46875 819.796875 C 278.558594 819.796875 247.257812 834.042969 225.574219 858.867188 L 31.050781 1081.597656 L 140.164062 1191.050781 L 236.367188 1058.0625 C 236.945312 1057.261719 238.058594 1057.082031 238.851562 1057.65625 C 239.652344 1058.230469 239.828125 1059.347656 239.253906 1060.148438 L 141.828125 1194.832031 C 141.519531 1195.25 141.042969 1195.515625 140.523438 1195.554688 C 140.476562 1195.566406 140.425781 1195.566406 140.378906 1195.566406 " fill-opacity="1" fill-rule="nonzero"/><path fill="#000000" d="M 237.808594 1060.882812 C 237.441406 1060.882812 237.070312 1060.769531 236.757812 1060.535156 C 235.964844 1059.953125 235.792969 1058.839844 236.378906 1058.046875 L 272.125 1009.433594 C 272.710938 1008.652344 273.820312 1008.480469 274.613281 1009.0625 C 275.410156 1009.644531 275.578125 1010.75 274.996094 1011.550781 L 239.242188 1060.15625 C 238.898438 1060.632812 238.355469 1060.882812 237.808594 1060.882812 " fill-opacity="1" fill-rule="nonzero"/><path fill="#fed101" d="M 159.8125 869.984375 L 1.753906 869.984375 L 1.753906 1141.613281 C 1.753906 1185.394531 37.136719 1220.890625 80.785156 1220.890625 C 124.429688 1220.890625 159.8125 1186.003906 159.8125 1142.226562 L 159.8125 869.984375 " fill-opacity="1" fill-rule="nonzero"/><path fill="#000000" d="M 80.785156 1222.667969 C 36.226562 1222.667969 -0.0234375 1186.304688 -0.0234375 1141.613281 L -0.0234375 869.984375 C -0.0234375 869.007812 0.773438 868.207031 1.753906 868.207031 L 159.8125 868.207031 C 160.796875 868.207031 161.597656 869.007812 161.597656 869.984375 L 161.597656 1059.976562 C 161.597656 1060.957031 160.796875 1061.753906 159.8125 1061.753906 C 158.832031 1061.753906 158.035156 1060.957031 158.035156 1059.976562 L 158.035156 871.769531 L 3.535156 871.769531 L 3.535156 1141.613281 C 3.535156 1184.34375 38.1875 1219.101562 80.78125 1219.101562 C 103.085938 1219.101562 124.296875 1209.4375 138.984375 1192.566406 L 153.691406 1173.03125 C 154.285156 1172.246094 155.398438 1172.082031 156.183594 1172.671875 C 156.972656 1173.261719 157.125 1174.378906 156.539062 1175.167969 L 141.75 1194.804688 C 126.308594 1212.550781 104.117188 1222.667969 80.785156 1222.667969 " fill-opacity="1" fill-rule="nonzero"/><path fill="#ffffff" d="M 643.710938 64.316406 C 572.15625 126.277344 564.390625 234.480469 626.367188 306.007812 C 688.351562 377.535156 796.597656 385.300781 868.152344 323.347656 C 939.707031 261.390625 947.472656 153.183594 885.496094 81.660156 C 823.523438 10.132812 715.265625 2.367188 643.710938 64.316406 " fill-opacity="1" fill-rule="nonzero"/><path fill="#8c7bff" d="M 643.710938 64.320312 L 644.875 65.65625 C 610.632812 95.316406 589.984375 136.519531 586.742188 181.695312 C 583.5 226.875 598.054688 270.605469 627.71875 304.839844 C 688.949219 375.515625 796.285156 383.207031 866.984375 321.992188 C 901.234375 292.339844 921.878906 251.140625 925.128906 205.964844 C 928.367188 160.785156 913.824219 117.054688 884.144531 82.820312 C 822.914062 12.140625 715.574219 4.445312 644.875 65.65625 Z M 756.050781 366.875 C 707.507812 366.875 659.234375 346.640625 625.027344 307.171875 C 594.746094 272.210938 579.878906 227.570312 583.191406 181.449219 C 586.496094 135.3125 607.578125 93.242188 642.550781 62.972656 C 714.730469 0.46875 824.328125 8.328125 886.835938 80.488281 C 917.136719 115.449219 931.992188 160.089844 928.679688 206.210938 C 925.367188 252.332031 904.289062 294.414062 869.320312 324.683594 C 836.621094 353 796.242188 366.875 756.050781 366.875 " fill-opacity="1" fill-rule="nonzero"/><path fill="#4ada85" d="M 769.523438 193.386719 C 769.542969 202.015625 762.675781 208.875 754.199219 208.699219 C 745.765625 208.53125 738.921875 201.429688 738.914062 192.851562 C 738.894531 184.269531 745.707031 177.421875 754.140625 177.550781 C 762.605469 177.667969 769.507812 184.757812 769.523438 193.386719 " fill-opacity="1" fill-rule="nonzero"/><path fill="#000000" d="M 755.9375 143.679688 C 699.949219 143.679688 654.402344 165.910156 654.402344 193.234375 C 654.402344 220.554688 699.949219 242.785156 755.9375 242.785156 C 811.914062 242.785156 857.457031 220.554688 857.457031 193.234375 C 857.457031 165.910156 811.914062 143.679688 755.9375 143.679688 Z M 755.9375 246.347656 C 697.984375 246.347656 650.847656 222.515625 650.847656 193.234375 C 650.847656 163.941406 697.984375 140.121094 755.9375 140.121094 C 813.875 140.121094 861.007812 163.941406 861.007812 193.234375 C 861.007812 222.515625 813.875 246.347656 755.9375 246.347656 " fill-opacity="1" fill-rule="nonzero"/><path fill="#000000" d="M 796.46875 104.425781 C 772.671875 104.425781 739.394531 127.164062 713.710938 163.328125 C 697.890625 185.597656 687.335938 209.570312 683.988281 230.824219 C 680.707031 251.632812 684.75 267.246094 695.351562 274.773438 C 717.636719 290.589844 762.140625 266.324219 794.539062 220.695312 C 810.359375 198.433594 820.910156 174.460938 824.265625 153.210938 C 827.542969 132.402344 823.5 116.789062 812.90625 109.261719 C 808.277344 105.984375 802.699219 104.425781 796.46875 104.425781 Z M 711.445312 283.019531 C 704.574219 283.019531 698.40625 281.300781 693.292969 277.667969 C 681.523438 269.316406 676.972656 252.488281 680.472656 230.265625 C 683.898438 208.480469 694.675781 183.980469 710.804688 161.273438 C 744.347656 114.046875 791.074219 89.414062 814.960938 106.363281 C 826.730469 114.71875 831.277344 131.546875 827.78125 153.765625 C 824.347656 175.546875 813.578125 200.054688 797.445312 222.761719 C 771.09375 259.871094 736.605469 283.019531 711.445312 283.019531 " fill-opacity="1" fill-rule="nonzero"/><path fill="#000000" d="M 719.304688 102.507812 C 714.367188 102.507812 709.808594 103.621094 705.777344 105.941406 C 694.515625 112.441406 689.035156 127.601562 690.347656 148.628906 C 691.6875 170.105469 699.949219 194.949219 713.609375 218.613281 C 741.597656 267.070312 783.632812 295.386719 807.300781 281.722656 C 818.5625 275.222656 824.042969 260.0625 822.734375 239.035156 C 821.390625 217.558594 813.132812 192.710938 799.46875 169.0625 C 776.242188 128.851562 743.347656 102.507812 719.304688 102.507812 Z M 794.109375 288.617188 C 768.605469 288.617188 734.394531 261.714844 710.527344 220.386719 C 696.59375 196.273438 688.164062 170.867188 686.792969 148.859375 C 685.394531 126.402344 691.5 110.070312 703.996094 102.867188 C 729.375 88.214844 773.582031 117.117188 802.554688 167.277344 C 816.476562 191.402344 824.910156 216.808594 826.28125 238.808594 C 827.6875 261.261719 821.578125 277.59375 809.085938 284.808594 C 804.617188 287.386719 799.558594 288.617188 794.109375 288.617188 " fill-opacity="1" fill-rule="nonzero"/><path fill="#ffffff" d="M 1144.613281 729.007812 C 1167.140625 819.445312 1258.742188 874.503906 1349.21875 851.984375 C 1439.679688 829.472656 1494.757812 737.90625 1472.230469 647.472656 C 1449.710938 557.042969 1358.109375 501.980469 1267.648438 524.492188 C 1177.171875 547.015625 1122.09375 638.574219 1144.613281 729.007812 " fill-opacity="1" fill-rule="nonzero"/><path fill="#8c7bff" d="M 1308.429688 521.246094 C 1295.105469 521.246094 1281.585938 522.859375 1268.089844 526.222656 C 1224.789062 536.988281 1188.285156 563.976562 1165.296875 602.195312 C 1142.300781 640.414062 1135.570312 685.296875 1146.351562 728.578125 C 1168.605469 817.910156 1259.417969 872.503906 1348.800781 850.257812 C 1392.089844 839.476562 1428.597656 812.5 1451.59375 774.277344 C 1474.578125 736.058594 1481.300781 691.175781 1470.53125 647.898438 C 1451.625 572.050781 1383.324219 521.246094 1308.429688 521.246094 Z M 1308.449219 858.785156 C 1231.953125 858.789062 1162.199219 806.90625 1142.902344 729.433594 C 1131.894531 685.230469 1138.757812 639.390625 1162.25 600.351562 C 1185.722656 561.316406 1223.011719 533.769531 1267.230469 522.765625 C 1358.507812 500.03125 1451.25 555.789062 1473.972656 647.035156 C 1484.984375 691.242188 1478.113281 737.078125 1454.628906 776.113281 C 1431.160156 815.140625 1393.867188 842.703125 1349.652344 853.707031 C 1335.875 857.132812 1322.054688 858.785156 1308.449219 858.785156 " fill-opacity="1" fill-rule="nonzero"/><path fill="#4ada85" d="M 1412.167969 688.226562 L 1360.296875 778.035156 L 1256.578125 778.035156 L 1204.707031 688.226562 L 1256.578125 598.433594 L 1360.296875 598.433594 L 1412.167969 688.226562 " fill-opacity="1" fill-rule="nonzero"/><path fill="#1ec15f" d="M 1412.167969 688.226562 L 1360.296875 778.035156 L 1308.445312 778.035156 L 1308.445312 598.433594 L 1360.296875 598.433594 L 1412.167969 688.226562 " fill-opacity="1" fill-rule="nonzero"/><path fill="#ffffff" d="M 1009.976562 216.777344 C 960.605469 293.570312 982.855469 395.839844 1059.6875 445.199219 C 1136.519531 494.550781 1238.824219 472.308594 1288.195312 395.503906 C 1337.570312 318.710938 1315.3125 216.441406 1238.492188 167.078125 C 1161.65625 117.730469 1059.351562 139.972656 1009.976562 216.777344 " fill-opacity="1" fill-rule="nonzero"/><path fill="#8c7bff" d="M 1149.335938 142.667969 C 1095.480469 142.667969 1042.699219 169.179688 1011.46875 217.734375 C 987.847656 254.484375 979.945312 298.222656 989.234375 340.902344 C 998.523438 383.582031 1023.886719 420.089844 1060.648438 443.707031 C 1136.523438 492.445312 1237.933594 470.402344 1286.699219 394.539062 C 1310.320312 357.800781 1318.210938 314.066406 1308.929688 271.386719 C 1299.640625 228.707031 1274.289062 192.199219 1237.519531 168.578125 C 1210.21875 151.042969 1179.609375 142.667969 1149.335938 142.667969 Z M 1148.816406 473.171875 C 1117.882812 473.171875 1086.628906 464.625 1058.71875 446.691406 C 1021.164062 422.566406 995.246094 385.265625 985.761719 341.652344 C 976.273438 298.050781 984.34375 253.359375 1008.476562 215.816406 C 1058.300781 138.3125 1161.917969 115.78125 1239.449219 165.597656 C 1277.011719 189.71875 1302.910156 227.023438 1312.414062 270.625 C 1321.894531 314.238281 1313.824219 358.925781 1289.691406 396.46875 C 1257.792969 446.082031 1203.84375 473.171875 1148.816406 473.171875 " fill-opacity="1" fill-rule="nonzero"/><path fill="#4ada85" d="M 1195.835938 312.878906 C 1195.835938 340.25 1173.945312 361.765625 1147.207031 360.941406 C 1120.757812 360.117188 1099.523438 337.699219 1099.523438 310.855469 C 1099.523438 284 1120.757812 262.476562 1147.207031 262.773438 C 1173.945312 263.070312 1195.835938 285.5 1195.835938 312.878906 " fill-opacity="1" fill-rule="nonzero"/><path fill="#000000" d="M 1149.085938 219.425781 C 1098.601562 219.425781 1057.53125 260.484375 1057.53125 310.949219 C 1057.53125 361.410156 1098.601562 402.46875 1149.085938 402.46875 C 1199.574219 402.46875 1240.644531 361.410156 1240.644531 310.949219 C 1240.644531 260.484375 1199.574219 219.425781 1149.085938 219.425781 Z M 1149.085938 406.027344 C 1096.636719 406.027344 1053.972656 363.375 1053.972656 310.949219 C 1053.972656 258.519531 1096.636719 215.867188 1149.085938 215.867188 C 1201.535156 215.867188 1244.207031 258.519531 1244.207031 310.949219 C 1244.207031 363.375 1201.535156 406.027344 1149.085938 406.027344 " fill-opacity="1" fill-rule="nonzero"/><path fill="#1ec15f" d="M 1213.925781 229.144531 C 1213.925781 240.804688 1204.542969 250.179688 1193.007812 250.082031 C 1181.542969 249.988281 1172.28125 240.539062 1172.28125 228.96875 C 1172.28125 217.402344 1181.542969 208.03125 1193.007812 208.03125 C 1204.542969 208.03125 1213.925781 217.480469 1213.925781 229.144531 " fill-opacity="1" fill-rule="nonzero"/></svg>