<svg xmlns="http://www.w3.org/2000/svg" xmlns:xlink="http://www.w3.org/1999/xlink" width="2000" zoomAndPan="magnify" viewBox="0 0 1500 1499.999933" height="2000" preserveAspectRatio="xMidYMid meet" version="1.0"><path fill="#caddff" d="M 361.746094 413.132812 C 507.75 265.699219 465.945312 173.296875 565.851562 105.03125 C 719.5625 -0.00390625 1006.441406 90.367188 1175.710938 234.832031 C 1382.996094 411.78125 1489.957031 734.875 1368.125 1027.15625 C 1238.371094 1338.429688 896.976562 1500.015625 592.347656 1451.316406 C 320.316406 1407.832031 52.902344 1192.710938 26.109375 934.703125 C 23.203125 906.746094 10.382812 755.574219 100.300781 625.238281 C 174.625 517.515625 246.015625 530.003906 361.746094 413.132812 " fill-opacity="1" fill-rule="nonzero"/><path fill="#99b9ff" d="M 980.988281 477.914062 C 963.058594 482.828125 944.546875 472.261719 939.632812 454.328125 C 934.714844 436.386719 945.285156 417.863281 963.207031 412.949219 C 981.144531 408.035156 999.65625 418.601562 1004.570312 436.535156 C 1009.476562 454.476562 998.925781 473 980.988281 477.914062 Z M 1039.074219 433.867188 L 1035.621094 421.246094 L 1021.351562 421.894531 C 1020.027344 419.121094 1018.5 416.480469 1016.765625 414.015625 L 1024.316406 401.917969 L 1015.023438 392.714844 L 1002.992188 400.414062 C 1000.480469 398.695312 997.832031 397.183594 995.082031 395.902344 L 995.582031 381.628906 L 982.925781 378.308594 L 976.359375 390.976562 C 973.359375 390.746094 970.3125 390.769531 967.25 391.042969 L 960.542969 378.429688 L 947.933594 381.882812 L 948.570312 396.15625 C 945.800781 397.480469 943.164062 399.015625 940.699219 400.742188 L 928.605469 393.183594 L 919.410156 402.492188 L 927.101562 414.527344 C 925.382812 417.03125 923.878906 419.679688 922.597656 422.4375 L 908.324219 421.945312 L 905.003906 434.59375 L 917.664062 441.167969 C 917.4375 444.164062 917.460938 447.214844 917.730469 450.277344 L 905.128906 456.996094 L 908.585938 469.617188 L 922.851562 468.96875 C 924.164062 471.742188 925.703125 474.371094 927.429688 476.835938 L 919.875 488.945312 L 929.179688 498.148438 L 941.214844 490.449219 C 943.714844 492.167969 946.363281 493.671875 949.113281 494.949219 L 948.628906 509.238281 L 961.265625 512.554688 L 967.84375 499.878906 C 970.832031 500.117188 973.882812 500.09375 976.945312 499.824219 L 983.652344 512.433594 L 996.261719 508.972656 L 995.621094 494.707031 C 998.390625 493.382812 1001.03125 491.847656 1003.496094 490.113281 L 1015.597656 497.671875 L 1024.792969 488.371094 L 1017.09375 476.335938 C 1018.8125 473.824219 1020.324219 471.179688 1021.59375 468.425781 L 1035.878906 468.917969 L 1039.191406 456.257812 L 1026.523438 449.695312 C 1026.753906 446.6875 1026.742188 443.648438 1026.460938 440.578125 L 1039.074219 433.867188 " fill-opacity="1" fill-rule="nonzero"/><path fill="#000000" d="M 200.601562 319.449219 C 200.308594 319.449219 200.011719 319.394531 199.71875 319.28125 C 198.40625 318.796875 197.738281 317.335938 198.222656 316.027344 L 202.785156 303.753906 C 203.277344 302.441406 204.738281 301.773438 206.050781 302.261719 C 207.363281 302.746094 208.03125 304.203125 207.546875 305.519531 L 202.980469 317.789062 C 202.601562 318.8125 201.632812 319.449219 200.601562 319.449219 " fill-opacity="1" fill-rule="nonzero"/><path fill="#000000" d="M 189.972656 348.027344 C 189.679688 348.027344 189.378906 347.976562 189.089844 347.875 C 187.777344 347.382812 187.105469 345.925781 187.59375 344.605469 L 192.15625 332.347656 C 192.644531 331.027344 194.109375 330.363281 195.417969 330.847656 C 196.730469 331.339844 197.398438 332.796875 196.914062 334.105469 L 192.351562 346.378906 C 191.96875 347.398438 191 348.027344 189.972656 348.027344 " fill-opacity="1" fill-rule="nonzero"/><path fill="#000000" d="M 189.410156 324.570312 C 189.117188 324.570312 188.816406 324.519531 188.527344 324.417969 L 176.253906 319.855469 C 174.941406 319.363281 174.269531 317.902344 174.757812 316.59375 C 175.25 315.277344 176.714844 314.613281 178.019531 315.097656 L 190.292969 319.65625 C 191.609375 320.148438 192.277344 321.609375 191.789062 322.917969 C 191.410156 323.941406 190.4375 324.570312 189.410156 324.570312 " fill-opacity="1" fill-rule="nonzero"/><path fill="#000000" d="M 217.996094 335.191406 C 217.703125 335.191406 217.40625 335.140625 217.113281 335.039062 L 204.839844 330.476562 C 203.527344 329.984375 202.859375 328.53125 203.347656 327.21875 C 203.835938 325.902344 205.300781 325.234375 206.609375 325.722656 L 218.882812 330.28125 C 220.195312 330.769531 220.867188 332.230469 220.378906 333.546875 C 220 334.566406 219.027344 335.191406 217.996094 335.191406 " fill-opacity="1" fill-rule="nonzero"/><path fill="#000000" d="M 1257.4375 241.277344 C 1256.046875 241.277344 1254.910156 240.140625 1254.910156 238.746094 L 1254.910156 225.65625 C 1254.910156 224.253906 1256.046875 223.117188 1257.4375 223.117188 C 1258.84375 223.117188 1259.988281 224.253906 1259.988281 225.65625 L 1259.988281 238.746094 C 1259.988281 240.140625 1258.84375 241.277344 1257.4375 241.277344 " fill-opacity="1" fill-rule="nonzero"/><path fill="#000000" d="M 1257.4375 271.773438 C 1256.035156 271.773438 1254.910156 270.640625 1254.910156 269.238281 L 1254.910156 256.152344 C 1254.910156 254.746094 1256.035156 253.609375 1257.4375 253.609375 C 1258.839844 253.609375 1259.984375 254.746094 1259.984375 256.152344 L 1259.984375 269.238281 C 1259.984375 270.640625 1258.839844 271.773438 1257.4375 271.773438 " fill-opacity="1" fill-rule="nonzero"/><path fill="#000000" d="M 1248.742188 249.984375 L 1235.648438 249.984375 C 1234.246094 249.984375 1233.105469 248.851562 1233.105469 247.445312 C 1233.105469 246.054688 1234.246094 244.917969 1235.648438 244.917969 L 1248.742188 244.917969 C 1250.144531 244.917969 1251.269531 246.054688 1251.269531 247.445312 C 1251.269531 248.851562 1250.144531 249.984375 1248.742188 249.984375 " fill-opacity="1" fill-rule="nonzero"/><path fill="#000000" d="M 1279.242188 249.984375 L 1266.148438 249.984375 C 1264.742188 249.984375 1263.609375 248.851562 1263.609375 247.445312 C 1263.609375 246.042969 1264.742188 244.910156 1266.148438 244.910156 L 1279.242188 244.910156 C 1280.644531 244.910156 1281.777344 246.042969 1281.777344 247.445312 C 1281.777344 248.851562 1280.644531 249.984375 1279.242188 249.984375 " fill-opacity="1" fill-rule="nonzero"/><path fill="#000000" d="M 278.464844 1400.628906 C 278.132812 1400.628906 277.792969 1400.566406 277.46875 1400.429688 C 200.433594 1367.570312 141.300781 1318.039062 101.714844 1253.199219 C 100.984375 1252.007812 101.363281 1250.441406 102.558594 1249.714844 C 103.753906 1248.980469 105.316406 1249.363281 106.042969 1250.558594 C 145.070312 1314.46875 203.417969 1363.328125 279.460938 1395.757812 C 280.75 1396.308594 281.351562 1397.800781 280.800781 1399.089844 C 280.386719 1400.054688 279.449219 1400.628906 278.464844 1400.628906 " fill-opacity="1" fill-rule="nonzero"/><path fill="#000000" d="M 91 1230.761719 C 90.152344 1230.761719 89.324219 1230.332031 88.84375 1229.566406 C 63.457031 1188.851562 55.925781 1157.503906 55.617188 1156.1875 C 55.296875 1154.824219 56.144531 1153.460938 57.507812 1153.140625 C 58.875 1152.816406 60.234375 1153.660156 60.554688 1155.019531 C 60.628906 1155.335938 68.242188 1186.9375 93.148438 1226.878906 C 93.890625 1228.066406 93.527344 1229.636719 92.339844 1230.371094 C 91.917969 1230.628906 91.457031 1230.761719 91 1230.761719 " fill-opacity="1" fill-rule="nonzero"/><path fill="#000000" d="M 290.65625 1437.820312 C 290.40625 1437.820312 290.148438 1437.78125 289.894531 1437.703125 C 209.796875 1412.523438 155.242188 1364.84375 123.582031 1329.277344 C 89.261719 1290.71875 73.644531 1257.601562 73.488281 1257.273438 C 72.898438 1256.003906 73.449219 1254.496094 74.714844 1253.902344 C 75.992188 1253.308594 77.5 1253.859375 78.089844 1255.128906 C 78.242188 1255.457031 93.621094 1288.023438 127.5 1326.042969 C 158.722656 1361.078125 212.503906 1408.054688 291.417969 1432.867188 C 292.753906 1433.289062 293.496094 1434.710938 293.074219 1436.050781 C 292.734375 1437.128906 291.734375 1437.820312 290.65625 1437.820312 " fill-opacity="1" fill-rule="nonzero"/><path fill="#000000" d="M 1126.027344 502.757812 C 1118.539062 502.277344 1109.730469 504.617188 1092.125 509.292969 C 1076.25 513.519531 1071.847656 516.351562 1069.90625 521.230469 C 1066.703125 529.207031 1071.480469 539.046875 1072.921875 541.992188 C 1081.027344 558.683594 1095.882812 560.871094 1105.679688 568.5 C 1137.363281 593.179688 1121.210938 635.074219 1147.480469 661.285156 C 1172.503906 686.242188 1195.890625 656.917969 1240.882812 680.71875 C 1276.3125 699.460938 1273.003906 723.5625 1301.894531 734.179688 C 1337.167969 747.148438 1392.453125 729.71875 1414.878906 677.632812 C 1429.234375 644.269531 1434.570312 553.863281 1385.3125 542.238281 C 1368.546875 538.277344 1354.011719 550.039062 1337.679688 551.074219 C 1321.355469 552.097656 1304.445312 546.652344 1292.441406 535.394531 C 1282.234375 525.808594 1275.5625 512.820312 1264.78125 503.890625 C 1241.601562 484.707031 1213.136719 493.5625 1190.3125 507.859375 C 1186.910156 510 1179.050781 518.316406 1175.730469 518.570312 C 1154.621094 520.21875 1150.226562 504.3125 1126.027344 502.757812 " fill-opacity="1" fill-rule="nonzero"/><path fill="#5479f7" d="M 1048.121094 744.921875 C 1031.238281 848.296875 1029.273438 849.820312 1027 860.644531 C 1027 860.644531 1020.296875 891.085938 1018.441406 920.414062 C 1016.839844 945.863281 1021.621094 1098.683594 1100.628906 1132.335938 C 1129.15625 1144.484375 1137.429688 1122.144531 1198.179688 1124.574219 C 1260.441406 1127.0625 1273.074219 1149.210938 1300.230469 1141.445312 C 1359.019531 1124.648438 1378.226562 998.542969 1374.984375 920.617188 C 1372.347656 857.148438 1340.753906 797.21875 1277.566406 677.351562 C 1267.933594 659.101562 1252.535156 631.222656 1227.726562 627.667969 C 1216.339844 626.046875 1211.792969 627.796875 1166.113281 640.328125 C 1116.433594 653.964844 1103.824219 639.464844 1082.5 652.894531 C 1060.457031 666.78125 1056.574219 693.195312 1048.121094 744.921875 " fill-opacity="1" fill-rule="nonzero"/><path fill="#ffffff" d="M 1138.808594 1343.484375 L 1138.808594 1393.46875 L 1162.859375 1392.007812 L 1167.605469 1343.484375 L 1138.808594 1343.484375 " fill-opacity="1" fill-rule="nonzero"/><path fill="#000000" d="M 1141.347656 1346.019531 L 1141.347656 1390.773438 L 1160.550781 1389.609375 L 1164.808594 1346.019531 Z M 1138.816406 1396.011719 C 1138.160156 1396.011719 1137.542969 1395.765625 1137.074219 1395.324219 C 1136.558594 1394.839844 1136.265625 1394.175781 1136.265625 1393.46875 L 1136.265625 1343.476562 C 1136.265625 1342.082031 1137.414062 1340.941406 1138.816406 1340.941406 L 1167.601562 1340.941406 C 1168.316406 1340.941406 1168.996094 1341.246094 1169.476562 1341.777344 C 1169.957031 1342.304688 1170.199219 1343.019531 1170.132812 1343.730469 L 1165.386719 1392.25 C 1165.269531 1393.492188 1164.269531 1394.464844 1163.023438 1394.542969 L 1138.960938 1396 C 1138.910156 1396.011719 1138.859375 1396.011719 1138.816406 1396.011719 " fill-opacity="1" fill-rule="nonzero"/><path fill="#ffffff" d="M 1166.480469 1455.800781 C 1156.691406 1456.851562 1140.65625 1457.53125 1121.972656 1454.316406 C 1115.84375 1453.261719 1111.96875 1447.15625 1113.644531 1441.179688 C 1118.332031 1424.519531 1127.589844 1393.46875 1134.957031 1378.601562 L 1139.402344 1386.707031 L 1142.953125 1378.148438 C 1143.550781 1377.132812 1144.613281 1376.464844 1145.789062 1376.355469 L 1155.015625 1375.5 C 1156.941406 1375.316406 1159.253906 1377.214844 1159.578125 1379.121094 L 1165.664062 1386.707031 L 1169.167969 1377.691406 L 1175.730469 1444.386719 C 1176.289062 1450.082031 1172.179688 1455.191406 1166.480469 1455.800781 " fill-opacity="1" fill-rule="nonzero"/><path fill="#000000" d="M 1135.140625 1384.238281 C 1127.914062 1400.878906 1119.554688 1429.519531 1116.082031 1441.871094 C 1115.464844 1444.050781 1115.792969 1446.308594 1117.007812 1448.222656 C 1118.210938 1450.121094 1120.171875 1451.429688 1122.386719 1451.8125 C 1140.613281 1454.953125 1156.28125 1454.347656 1166.207031 1453.285156 C 1170.488281 1452.824219 1173.621094 1448.945312 1173.199219 1444.632812 L 1167.65625 1388.269531 C 1167.257812 1388.777344 1166.695312 1389.113281 1166.042969 1389.214844 C 1165.140625 1389.351562 1164.25 1388.996094 1163.679688 1388.296875 L 1157.597656 1380.707031 C 1157.328125 1380.371094 1157.15625 1379.980469 1157.078125 1379.558594 C 1156.957031 1378.886719 1155.703125 1378.003906 1155.246094 1378.027344 L 1146.023438 1378.886719 C 1145.695312 1378.917969 1145.394531 1379.085938 1145.195312 1379.335938 L 1141.730469 1387.683594 C 1141.359375 1388.578125 1140.5 1389.1875 1139.53125 1389.242188 C 1138.527344 1389.265625 1137.632812 1388.785156 1137.164062 1387.925781 Z M 1166.476562 1455.804688 L 1166.496094 1455.804688 Z M 1149.753906 1459.210938 C 1141.523438 1459.210938 1131.933594 1458.605469 1121.527344 1456.820312 C 1117.890625 1456.191406 1114.6875 1454.042969 1112.71875 1450.933594 C 1110.753906 1447.832031 1110.210938 1444.03125 1111.195312 1440.492188 C 1115.042969 1426.800781 1124.855469 1393.257812 1132.6875 1377.46875 C 1133.09375 1376.625 1133.953125 1376.085938 1134.902344 1376.0625 C 1135.859375 1376.046875 1136.722656 1376.558594 1137.171875 1377.386719 L 1139.078125 1380.847656 L 1140.605469 1377.179688 C 1140.648438 1377.0625 1140.699219 1376.949219 1140.769531 1376.839844 C 1141.789062 1375.144531 1143.574219 1374.015625 1145.550781 1373.832031 L 1154.773438 1372.976562 C 1157.753906 1372.707031 1160.976562 1375.050781 1161.894531 1377.960938 L 1164.890625 1381.6875 L 1166.796875 1376.773438 C 1167.222656 1375.679688 1168.347656 1375.035156 1169.507812 1375.183594 C 1170.671875 1375.339844 1171.578125 1376.277344 1171.691406 1377.445312 L 1178.257812 1444.144531 C 1178.949219 1451.210938 1173.789062 1457.570312 1166.746094 1458.332031 C 1162.164062 1458.820312 1156.394531 1459.210938 1149.753906 1459.210938 " fill-opacity="1" fill-rule="nonzero"/><path fill="#000000" d="M 1143.214844 1447.886719 C 1135.925781 1447.886719 1127.769531 1447.175781 1119.699219 1445.054688 C 1118.328125 1444.695312 1117.527344 1443.308594 1117.878906 1441.953125 C 1118.242188 1440.601562 1119.636719 1439.796875 1120.980469 1440.148438 C 1143.453125 1446.058594 1167.363281 1440.203125 1167.605469 1440.140625 C 1168.972656 1439.800781 1170.34375 1440.628906 1170.679688 1441.984375 C 1171.023438 1443.347656 1170.199219 1444.726562 1168.84375 1445.0625 C 1168.164062 1445.230469 1157.320312 1447.886719 1143.214844 1447.886719 " fill-opacity="1" fill-rule="nonzero"/><path fill="#000000" d="M 1156.917969 1421.917969 L 1134.953125 1421.917969 C 1133.554688 1421.917969 1132.425781 1420.785156 1132.425781 1419.382812 C 1132.425781 1417.980469 1133.554688 1416.847656 1134.953125 1416.847656 L 1156.917969 1416.847656 C 1158.308594 1416.847656 1159.453125 1417.980469 1159.453125 1419.382812 C 1159.453125 1420.785156 1158.308594 1421.917969 1156.917969 1421.917969 " fill-opacity="1" fill-rule="nonzero"/><path fill="#ffffff" d="M 1315.777344 1317.035156 L 1322.898438 1377.300781 L 1345.449219 1376.519531 L 1345.449219 1317.035156 L 1315.777344 1317.035156 " fill-opacity="1" fill-rule="nonzero"/><path fill="#000000" d="M 1318.636719 1319.566406 L 1325.140625 1374.6875 L 1342.910156 1374.070312 L 1342.910156 1319.566406 Z M 1322.890625 1379.839844 C 1321.621094 1379.839844 1320.527344 1378.882812 1320.378906 1377.597656 L 1313.257812 1317.324219 C 1313.183594 1316.605469 1313.40625 1315.886719 1313.890625 1315.339844 C 1314.375 1314.804688 1315.0625 1314.492188 1315.78125 1314.492188 L 1345.453125 1314.492188 C 1346.847656 1314.492188 1347.984375 1315.632812 1347.984375 1317.035156 L 1347.984375 1376.519531 C 1347.984375 1377.886719 1346.90625 1379.007812 1345.53125 1379.050781 L 1322.976562 1379.835938 C 1322.960938 1379.839844 1322.929688 1379.839844 1322.890625 1379.839844 " fill-opacity="1" fill-rule="nonzero"/><path fill="#ffffff" d="M 1317.535156 1362.921875 C 1317.535156 1362.921875 1314.628906 1389.6875 1315.53125 1400.453125 C 1316.167969 1408.160156 1326.75 1431.429688 1332.699219 1444.042969 C 1335.160156 1449.234375 1339.832031 1452.554688 1345.027344 1452.785156 C 1351.34375 1453.054688 1360.15625 1453.375 1367.234375 1453.382812 C 1377.003906 1453.390625 1383.71875 1442.296875 1380.238281 1431.953125 C 1377.011719 1422.410156 1371.90625 1410.441406 1363.882812 1397.703125 C 1357.832031 1388.109375 1348.996094 1362.042969 1348.996094 1362.042969 L 1330.617188 1362.042969 L 1327.007812 1377.300781 L 1317.535156 1362.921875 " fill-opacity="1" fill-rule="nonzero"/><path fill="#000000" d="M 1319.351562 1370.304688 C 1318.570312 1378.941406 1317.46875 1393.222656 1318.054688 1400.246094 C 1318.5 1405.550781 1324.675781 1421.117188 1334.996094 1442.957031 C 1337.039062 1447.273438 1340.921875 1450.066406 1345.128906 1450.253906 C 1351.292969 1450.511719 1360.132812 1450.832031 1367.25 1450.84375 C 1370.671875 1450.84375 1373.757812 1449.164062 1375.953125 1446.117188 C 1378.671875 1442.335938 1379.375 1437.347656 1377.828125 1432.769531 C 1373.898438 1421.109375 1368.480469 1409.765625 1361.730469 1399.058594 C 1356.429688 1390.660156 1349.273438 1370.625 1347.171875 1364.578125 L 1332.613281 1364.578125 L 1329.476562 1377.882812 C 1329.238281 1378.867188 1328.445312 1379.621094 1327.453125 1379.796875 C 1326.453125 1379.972656 1325.4375 1379.535156 1324.882812 1378.695312 Z M 1367.25 1455.917969 C 1367.25 1455.917969 1367.25 1455.917969 1367.238281 1455.917969 C 1360.042969 1455.910156 1351.121094 1455.589844 1344.910156 1455.324219 C 1338.8125 1455.054688 1333.257812 1451.148438 1330.410156 1445.125 C 1322.816406 1429.066406 1313.636719 1408.324219 1313.003906 1400.667969 C 1312.089844 1389.777344 1314.886719 1363.75 1315.007812 1362.648438 C 1315.117188 1361.582031 1315.890625 1360.703125 1316.933594 1360.449219 C 1317.972656 1360.203125 1319.058594 1360.632812 1319.644531 1361.519531 L 1325.882812 1370.992188 L 1328.148438 1361.460938 C 1328.414062 1360.3125 1329.4375 1359.507812 1330.609375 1359.507812 L 1348.988281 1359.507812 C 1350.078125 1359.507812 1351.042969 1360.195312 1351.390625 1361.230469 C 1351.480469 1361.484375 1360.203125 1387.121094 1366.015625 1396.347656 C 1372.984375 1407.402344 1378.582031 1419.109375 1382.640625 1431.144531 C 1384.707031 1437.277344 1383.742188 1443.976562 1380.070312 1449.082031 C 1376.945312 1453.429688 1372.28125 1455.917969 1367.25 1455.917969 " fill-opacity="1" fill-rule="nonzero"/><path fill="#000000" d="M 1323.902344 1412.683594 Z M 1353.234375 1444.441406 C 1344.957031 1444.441406 1337.460938 1439.671875 1333.652344 1431.976562 C 1325.839844 1416.230469 1324.03125 1413.019531 1323.605469 1412.402344 C 1322.800781 1411.488281 1322.75 1410.097656 1323.539062 1409.117188 C 1324.425781 1408.03125 1326.027344 1407.867188 1327.113281 1408.75 C 1327.726562 1409.246094 1328.25 1409.675781 1338.191406 1429.726562 C 1341.148438 1435.675781 1346.902344 1439.375 1353.234375 1439.375 C 1353.234375 1439.375 1353.234375 1439.375 1353.246094 1439.375 L 1374.179688 1439.351562 C 1375.570312 1439.351562 1376.707031 1440.484375 1376.71875 1441.882812 C 1376.71875 1443.285156 1375.582031 1444.417969 1374.179688 1444.425781 L 1353.253906 1444.441406 C 1353.246094 1444.441406 1353.234375 1444.441406 1353.234375 1444.441406 " fill-opacity="1" fill-rule="nonzero"/><path fill="#000000" d="M 1364.507812 1422.667969 L 1344.386719 1422.667969 C 1342.992188 1422.667969 1341.855469 1421.527344 1341.855469 1420.125 C 1341.855469 1418.722656 1342.992188 1417.589844 1344.386719 1417.589844 L 1364.507812 1417.589844 C 1365.914062 1417.589844 1367.042969 1418.722656 1367.042969 1420.125 C 1367.042969 1421.527344 1365.914062 1422.667969 1364.507812 1422.667969 " fill-opacity="1" fill-rule="nonzero"/><path fill="#000000" d="M 1100.15625 843.707031 C 1100.15625 843.707031 1102.550781 1027.652344 1110.28125 1147.398438 C 1118.015625 1267.148438 1133.265625 1358.710938 1133.265625 1358.710938 C 1133.265625 1358.710938 1159.511719 1368.136719 1176.734375 1363.199219 C 1176.734375 1363.199219 1191.003906 1258.152344 1194.242188 1222.644531 C 1197.476562 1187.140625 1188.871094 1169.523438 1188.152344 1140.460938 C 1187.425781 1111.40625 1200.679688 983.101562 1200.679688 983.101562 C 1200.679688 983.101562 1299.59375 1273.160156 1310.90625 1337.222656 C 1310.90625 1337.222656 1334.867188 1341.285156 1351.75 1332.054688 C 1351.75 1332.054688 1352.277344 1217.988281 1349.886719 1200.367188 C 1345.449219 1167.714844 1319.9375 1135.570312 1315.351562 1100.878906 C 1310.769531 1066.199219 1308.113281 979.152344 1295.492188 926.949219 C 1282.878906 874.742188 1258.113281 816.085938 1258.113281 816.085938 L 1100.15625 843.707031 " fill-opacity="1" fill-rule="nonzero"/><path fill="#ffffff" d="M 1268.675781 912.722656 C 1268.351562 912.722656 1268.027344 912.664062 1267.714844 912.53125 C 1233.722656 898.609375 1223.9375 866.285156 1223.542969 864.914062 C 1223.152344 863.566406 1223.925781 862.164062 1225.265625 861.769531 C 1226.621094 861.375 1228.015625 862.152344 1228.414062 863.492188 C 1228.507812 863.804688 1237.964844 894.863281 1269.644531 907.839844 C 1270.9375 908.371094 1271.554688 909.851562 1271.027344 911.148438 C 1270.632812 912.132812 1269.683594 912.722656 1268.675781 912.722656 " fill-opacity="1" fill-rule="nonzero"/><path fill="#ffffff" d="M 1298.558594 998.4375 C 1297.300781 998.4375 1296.210938 997.503906 1296.046875 996.226562 C 1284.773438 909.632812 1251.019531 851.8125 1250.683594 851.238281 C 1249.964844 850.03125 1250.371094 848.476562 1251.574219 847.761719 C 1252.769531 847.050781 1254.335938 847.449219 1255.050781 848.652344 C 1255.394531 849.234375 1289.660156 907.886719 1301.074219 995.574219 C 1301.261719 996.960938 1300.273438 998.238281 1298.890625 998.414062 C 1298.777344 998.429688 1298.664062 998.4375 1298.558594 998.4375 " fill-opacity="1" fill-rule="nonzero"/><path fill="#ffffff" d="M 793.261719 651.484375 L 836.375 669.40625 L 852.121094 703.261719 C 861.546875 709.546875 870.949219 714.652344 880.269531 718.761719 C 878.570312 722.394531 876.886719 726.019531 875.292969 729.691406 C 872.703125 735.652344 870.207031 741.65625 867.734375 747.664062 C 848.886719 728.925781 841.644531 711.367188 841.644531 711.367188 C 815.039062 709.816406 814.382812 689.304688 815.699219 683.996094 C 817.007812 678.6875 814.589844 672.65625 802.367188 664.617188 C 788.988281 655.832031 793.261719 651.484375 793.261719 651.484375 " fill-opacity="1" fill-rule="nonzero"/><path fill="#000000" d="M 795.773438 655.273438 C 796.714844 656.890625 798.929688 659.324219 803.761719 662.5 C 815.421875 670.15625 819.996094 677.183594 818.15625 684.605469 C 817.660156 686.632812 817.230469 693.792969 821.703125 699.863281 C 825.691406 705.277344 832.457031 708.289062 841.789062 708.835938 C 842.761719 708.886719 843.613281 709.5 843.988281 710.394531 C 844.054688 710.558594 850.59375 726.070312 866.863281 743.140625 C 868.738281 738.59375 870.820312 733.617188 872.964844 728.679688 C 874.257812 725.699219 875.589844 722.792969 876.886719 720.019531 C 867.957031 715.925781 859.164062 711.007812 850.710938 705.375 C 850.320312 705.113281 850.015625 704.753906 849.8125 704.332031 L 834.492188 671.367188 Z M 867.734375 750.199219 C 867.066406 750.199219 866.425781 749.941406 865.949219 749.464844 C 849.851562 733.464844 842.113281 718.441406 839.941406 713.785156 C 829.8125 712.898438 822.308594 709.230469 817.621094 702.871094 C 812.558594 696.011719 812.222656 687.460938 813.234375 683.386719 C 814.023438 680.21875 813.601562 675.035156 800.976562 666.738281 C 794.183594 662.28125 790.53125 658.054688 790.113281 654.195312 C 789.824219 651.507812 791.179688 649.984375 791.449219 649.707031 C 792.175781 648.964844 793.277344 648.738281 794.234375 649.144531 L 837.347656 667.066406 C 837.929688 667.300781 838.40625 667.761719 838.671875 668.335938 L 854.117188 701.546875 C 862.894531 707.347656 872.035156 712.355469 881.292969 716.4375 C 881.917969 716.710938 882.40625 717.230469 882.644531 717.867188 C 882.890625 718.511719 882.859375 719.214844 882.566406 719.835938 C 880.964844 723.257812 879.257812 726.933594 877.621094 730.699219 C 874.917969 736.925781 872.3125 743.214844 870.078125 748.628906 C 869.753906 749.410156 869.066406 749.984375 868.242188 750.152344 C 868.070312 750.183594 867.902344 750.199219 867.734375 750.199219 " fill-opacity="1" fill-rule="nonzero"/><path fill="#ffffff" d="M 1082.15625 640.429688 C 1082.15625 640.429688 1141.1875 631.988281 1199.308594 630.300781 C 1199.308594 630.300781 1272.191406 820.371094 1272.183594 833.203125 C 1272.175781 846.027344 1241.066406 862.433594 1199.308594 851.96875 C 1157.550781 841.5 1104.492188 840.460938 1074.660156 847.429688 C 1029.964844 857.871094 1082.15625 640.429688 1082.15625 640.429688 " fill-opacity="1" fill-rule="nonzero"/><path fill="#000000" d="M 1121.570312 840.46875 C 1147.601562 840.46875 1176.238281 843.578125 1199.925781 849.507812 C 1228.347656 856.628906 1252.40625 850.988281 1263.644531 842.230469 C 1267.457031 839.257812 1269.636719 835.96875 1269.648438 833.195312 C 1269.648438 824.199219 1226.792969 709.140625 1197.582031 632.890625 C 1146.304688 634.511719 1094.210938 641.34375 1084.222656 642.703125 C 1072.195312 693.332031 1046.625 823.121094 1066.371094 842.996094 C 1068.453125 845.078125 1070.890625 845.707031 1074.085938 844.964844 C 1087.023438 841.9375 1103.683594 840.46875 1121.570312 840.46875 Z M 1225.535156 857.878906 C 1217.378906 857.878906 1208.378906 856.859375 1198.683594 854.433594 C 1159.410156 844.585938 1106.328125 842.644531 1075.234375 849.902344 C 1070.382812 851.035156 1066.0625 849.886719 1062.769531 846.570312 C 1036.726562 820.363281 1077.921875 647.195312 1079.691406 639.84375 C 1079.929688 638.828125 1080.773438 638.070312 1081.796875 637.921875 C 1082.390625 637.839844 1141.644531 629.441406 1199.230469 627.765625 C 1200.285156 627.703125 1201.285156 628.390625 1201.671875 629.398438 C 1209.15625 648.890625 1274.726562 820.28125 1274.714844 833.207031 C 1274.714844 837.605469 1271.894531 842.230469 1266.773438 846.234375 C 1258.863281 852.390625 1244.460938 857.878906 1225.535156 857.878906 " fill-opacity="1" fill-rule="nonzero"/><path fill="#5479f7" d="M 863.65625 704.066406 L 836.449219 721.320312 C 836.449219 721.320312 865.148438 787.648438 927.585938 807.914062 C 990.039062 828.179688 1049.066406 770.753906 1049.066406 770.753906 L 1043.6875 893.886719 C 1043.6875 893.886719 1073.859375 911.765625 1073.859375 910.1875 C 1073.859375 908.605469 1087.046875 635.496094 1087.046875 635.496094 C 1087.046875 635.496094 1062.691406 635.882812 1051.835938 651.328125 C 1040.972656 666.785156 999.867188 730.648438 952.625 731.417969 C 905.371094 732.195312 863.65625 704.066406 863.65625 704.066406 " fill-opacity="1" fill-rule="nonzero"/><path fill="#000000" d="M 1013.753906 691.570312 L 1121.058594 680.519531 C 1124.664062 680.519531 1128.066406 683.535156 1128.671875 687.261719 L 1154.578125 847.164062 C 1155.183594 850.894531 1152.757812 853.910156 1149.152344 853.910156 L 1035.363281 848.324219 C 1031.769531 848.324219 1027.988281 850.894531 1027.382812 847.164062 L 1001.46875 687.261719 C 1000.863281 683.535156 1010.144531 691.570312 1013.753906 691.570312 " fill-opacity="1" fill-rule="nonzero"/><path fill="#000000" d="M 1035.367188 845.796875 L 1149.28125 851.382812 C 1150.09375 851.371094 1150.875 851.039062 1151.414062 850.402344 C 1152.027344 849.691406 1152.257812 848.6875 1152.082031 847.570312 L 1126.175781 687.671875 C 1125.773438 685.210938 1123.496094 683.117188 1121.167969 683.050781 L 1014.015625 694.101562 C 1013.921875 694.113281 1013.835938 694.113281 1013.753906 694.113281 C 1011.644531 694.113281 1009.214844 692.800781 1005.742188 690.785156 C 1005.363281 690.5625 1004.941406 690.316406 1004.496094 690.070312 L 1029.867188 846.628906 C 1030.335938 846.578125 1031.027344 846.433594 1031.519531 846.324219 C 1032.671875 846.078125 1033.976562 845.796875 1035.367188 845.796875 Z M 1149.164062 856.449219 L 1035.238281 850.863281 C 1034.523438 850.871094 1033.542969 851.082031 1032.605469 851.277344 C 1030.738281 851.6875 1028.609375 852.148438 1026.84375 850.945312 C 1025.789062 850.222656 1025.132812 849.09375 1024.882812 847.570312 L 998.96875 687.671875 C 998.632812 685.632812 999.753906 684.628906 1000.242188 684.292969 C 1002.269531 682.898438 1004.667969 684.292969 1008.292969 686.402344 C 1009.835938 687.296875 1012.660156 688.933594 1013.675781 689.027344 L 1120.800781 677.992188 C 1120.886719 677.984375 1120.96875 677.984375 1121.066406 677.984375 C 1125.925781 677.984375 1130.371094 681.878906 1131.183594 686.855469 L 1157.085938 846.757812 C 1157.503906 849.324219 1156.851562 851.855469 1155.289062 853.695312 C 1153.769531 855.46875 1151.59375 856.449219 1149.164062 856.449219 " fill-opacity="1" fill-rule="nonzero"/><path fill="#ffffff" d="M 1003.351562 680.511719 L 1117.519531 680.511719 C 1121.121094 680.511719 1124.527344 683.535156 1125.128906 687.261719 L 1151.035156 847.152344 C 1151.640625 850.890625 1149.210938 853.90625 1145.609375 853.90625 L 1031.453125 853.90625 C 1027.851562 853.90625 1024.445312 850.890625 1023.84375 847.152344 L 997.925781 687.261719 C 997.320312 683.535156 999.757812 680.511719 1003.351562 680.511719 " fill-opacity="1" fill-rule="nonzero"/><path fill="#000000" d="M 1003.359375 683.050781 C 1002.414062 683.050781 1001.632812 683.382812 1001.085938 684.019531 C 1000.484375 684.734375 1000.253906 685.730469 1000.433594 686.855469 L 1026.347656 846.75 C 1026.75 849.25 1029.089844 851.371094 1031.453125 851.371094 L 1145.613281 851.371094 C 1146.550781 851.371094 1147.339844 851.027344 1147.875 850.398438 C 1148.480469 849.683594 1148.71875 848.679688 1148.53125 847.566406 L 1122.625 687.660156 C 1122.222656 685.160156 1119.875 683.050781 1117.519531 683.050781 Z M 1145.613281 856.449219 L 1031.453125 856.449219 C 1026.585938 856.449219 1022.136719 852.542969 1021.335938 847.566406 L 995.417969 687.660156 C 995.011719 685.09375 995.667969 682.566406 997.222656 680.734375 C 998.738281 678.949219 1000.917969 677.980469 1003.359375 677.980469 L 1117.519531 677.980469 C 1122.375 677.980469 1126.816406 681.878906 1127.632812 686.855469 L 1153.546875 846.75 C 1153.960938 849.328125 1153.304688 851.855469 1151.742188 853.691406 C 1150.226562 855.460938 1148.046875 856.449219 1145.613281 856.449219 " fill-opacity="1" fill-rule="nonzero"/><path fill="#ffffff" d="M 1142.90625 752.902344 L 1141.667969 767.949219 L 1095.960938 759.648438 C 1095.960938 759.648438 1094.902344 761.164062 1094.261719 763.59375 C 1093.417969 766.867188 1093.324219 771.804688 1097.511719 777.027344 C 1099.507812 779.507812 1107.402344 779.574219 1106.789062 784.503906 C 1106.253906 788.808594 1124.121094 792.164062 1139.582031 795.039062 C 1156.882812 798.246094 1155.40625 773.589844 1151.128906 760.96875 C 1147.792969 751.128906 1142.90625 752.902344 1142.90625 752.902344 " fill-opacity="1" fill-rule="nonzero"/><path fill="#000000" d="M 1109.335938 784.449219 C 1111.773438 787.292969 1130.101562 790.699219 1140.042969 792.542969 C 1143.652344 793.210938 1146.292969 792.511719 1148.136719 790.394531 C 1152.695312 785.117188 1151.996094 771.441406 1148.71875 761.789062 C 1147.554688 758.355469 1146.257812 756.625 1145.207031 755.855469 L 1144.199219 768.164062 C 1144.140625 768.871094 1143.78125 769.53125 1143.21875 769.972656 C 1142.644531 770.410156 1141.929688 770.582031 1141.222656 770.453125 L 1097.324219 762.480469 C 1097.121094 762.964844 1096.898438 763.554688 1096.71875 764.238281 C 1095.710938 768.132812 1096.640625 771.902344 1099.484375 775.4375 C 1099.800781 775.820312 1101.347656 776.417969 1102.257812 776.769531 C 1105.066406 777.84375 1109.703125 779.636719 1109.335938 784.449219 Z M 1142.484375 797.859375 C 1141.453125 797.859375 1140.332031 797.757812 1139.113281 797.527344 C 1114.300781 792.929688 1103.507812 790.273438 1104.265625 784.191406 C 1104.378906 783.28125 1103.558594 782.710938 1100.441406 781.5 C 1098.597656 780.789062 1096.683594 780.054688 1095.523438 778.613281 C 1090.664062 772.570312 1090.816406 766.765625 1091.808594 762.964844 C 1092.535156 760.171875 1093.730469 758.390625 1093.867188 758.203125 C 1094.441406 757.382812 1095.421875 756.980469 1096.402344 757.152344 L 1139.367188 764.964844 L 1140.367188 752.695312 C 1140.453125 751.714844 1141.101562 750.859375 1142.039062 750.519531 C 1142.40625 750.382812 1144.390625 749.785156 1146.863281 750.960938 C 1149.675781 752.3125 1151.917969 755.414062 1153.523438 760.164062 C 1156.632812 769.332031 1158.792969 785.839844 1151.96875 793.710938 C 1150.226562 795.71875 1147.257812 797.859375 1142.484375 797.859375 " fill-opacity="1" fill-rule="nonzero"/><path fill="#5479f7" d="M 1148.617188 794.449219 L 1157.785156 780.519531 C 1157.785156 780.519531 1203.25 789.734375 1224.242188 780.519531 C 1260.90625 764.414062 1253.976562 708.148438 1247.730469 680.148438 C 1241.5 652.144531 1227.714844 627.675781 1227.714844 627.675781 C 1227.714844 627.675781 1261.390625 646.703125 1284.230469 688.53125 C 1307.074219 730.355469 1314.507812 823.964844 1238.121094 840.875 C 1188.144531 851.945312 1148.617188 794.449219 1148.617188 794.449219 " fill-opacity="1" fill-rule="nonzero"/><path fill="#ffffff" d="M 1277.183594 823.347656 C 1276.46875 823.347656 1275.75 823.039062 1275.242188 822.4375 C 1274.347656 821.367188 1274.488281 819.765625 1275.554688 818.867188 C 1298.460938 799.617188 1296.9375 757.238281 1296.90625 756.820312 C 1296.847656 755.417969 1297.945312 754.230469 1299.339844 754.175781 C 1300.769531 754.125 1301.921875 755.199219 1301.988281 756.597656 C 1302.0625 758.433594 1303.644531 801.882812 1278.816406 822.75 C 1278.34375 823.148438 1277.769531 823.347656 1277.183594 823.347656 " fill-opacity="1" fill-rule="nonzero"/><path fill="#ffffff" d="M 1136.210938 560.066406 C 1135.078125 560.742188 1133.628906 560.265625 1133.125 559.035156 C 1130.753906 553.21875 1126.960938 541.933594 1119.183594 540.144531 C 1109.230469 537.851562 1093.105469 534.878906 1091.722656 542.75 C 1090.5 549.660156 1091.929688 561.566406 1084.664062 570.195312 C 1083.96875 571.027344 1084.578125 572.351562 1085.433594 573 L 1090.007812 576.855469 C 1090.96875 577.589844 1091.796875 580.039062 1091.914062 581.261719 C 1092.277344 585.003906 1092.753906 592.96875 1094.050781 593.996094 C 1096.5625 596 1109.164062 595.230469 1109.164062 595.230469 L 1119.269531 629.945312 C 1119.652344 631.273438 1118.871094 632.648438 1117.558594 632.988281 L 1105.535156 637.074219 C 1105.535156 637.074219 1115.179688 650.597656 1145.347656 648.554688 C 1164.617188 647.257812 1178.726562 633.671875 1178.726562 633.671875 C 1178.726562 633.671875 1141.25 628.355469 1136.183594 584.058594 C 1136.082031 583.078125 1136.507812 582.117188 1137.273438 581.539062 C 1140.273438 579.285156 1148.320312 572.671875 1146.90625 565.964844 C 1145.417969 558.847656 1140.089844 557.753906 1136.210938 560.066406 " fill-opacity="1" fill-rule="nonzero"/><path fill="#000000" d="M 1136.21875 560.058594 L 1136.246094 560.058594 Z M 1095.96875 592.371094 Z M 1110.285156 638.132812 C 1114.746094 641.628906 1125.269531 647.363281 1145.175781 646.019531 C 1157.65625 645.175781 1167.988281 638.808594 1173.238281 634.894531 C 1162.375 631.503906 1137.746094 619.957031 1133.679688 584.339844 C 1133.460938 582.480469 1134.269531 580.625 1135.769531 579.496094 C 1138.066406 577.761719 1145.53125 571.691406 1144.441406 566.476562 C 1143.925781 564.046875 1142.894531 562.433594 1141.464844 561.800781 C 1140.289062 561.28125 1138.847656 561.445312 1137.523438 562.234375 C 1136.34375 562.9375 1134.925781 563.09375 1133.636719 562.660156 C 1132.34375 562.226562 1131.3125 561.253906 1130.789062 559.976562 C 1130.582031 559.476562 1130.363281 558.914062 1130.128906 558.328125 C 1127.992188 552.953125 1124.429688 543.949219 1118.628906 542.609375 C 1106.328125 539.773438 1098.507812 539.382812 1095.394531 541.449219 C 1094.71875 541.898438 1094.351562 542.4375 1094.222656 543.183594 C 1093.945312 544.777344 1093.816406 546.792969 1093.667969 548.917969 C 1093.207031 555.738281 1092.636719 564.160156 1087.167969 571.136719 L 1091.65625 574.910156 C 1093.40625 576.238281 1094.316406 579.660156 1094.449219 581.007812 C 1094.507812 581.585938 1094.5625 582.285156 1094.632812 583.027344 C 1094.828125 585.328125 1095.28125 590.53125 1095.855469 592.121094 C 1097.453125 592.753906 1103.378906 593.03125 1109.015625 592.683594 C 1110.171875 592.605469 1111.28125 593.371094 1111.613281 594.507812 L 1121.710938 629.242188 C 1122.09375 630.523438 1121.921875 631.9375 1121.253906 633.101562 C 1120.601562 634.238281 1119.5625 635.050781 1118.300781 635.398438 Z M 1139.292969 651.300781 C 1112.90625 651.300781 1103.871094 639.09375 1103.472656 638.53125 C 1103.003906 637.878906 1102.875 637.046875 1103.125 636.285156 C 1103.367188 635.53125 1103.96875 634.921875 1104.722656 634.664062 L 1116.75 630.574219 C 1116.808594 630.558594 1116.878906 630.53125 1116.941406 630.515625 L 1107.308594 597.855469 C 1102.164062 598.070312 1094.988281 597.964844 1092.476562 595.972656 C 1090.8125 594.652344 1090.289062 591.6875 1089.578125 583.460938 C 1089.511719 582.742188 1089.449219 582.066406 1089.398438 581.5 C 1089.320312 580.71875 1088.757812 579.183594 1088.410156 578.800781 L 1083.804688 574.925781 C 1082.777344 574.152344 1082.015625 572.84375 1081.859375 571.523438 C 1081.734375 570.433594 1082.050781 569.375 1082.734375 568.558594 C 1087.648438 562.71875 1088.175781 554.878906 1088.601562 548.582031 C 1088.757812 546.316406 1088.902344 544.171875 1089.226562 542.304688 C 1089.597656 540.191406 1090.761719 538.429688 1092.589844 537.226562 C 1097.097656 534.230469 1105.488281 534.367188 1119.765625 537.664062 C 1128.167969 539.597656 1132.1875 549.742188 1134.847656 556.457031 L 1135.328125 557.652344 C 1137.980469 556.210938 1140.941406 556.03125 1143.492188 557.152344 C 1146.457031 558.453125 1148.558594 561.390625 1149.402344 565.433594 C 1151.007812 573.078125 1143.457031 580.070312 1138.816406 583.558594 C 1138.746094 583.597656 1138.710938 583.6875 1138.71875 583.757812 C 1143.480469 625.492188 1177.644531 630.941406 1179.101562 631.15625 C 1180.058594 631.296875 1180.855469 631.964844 1181.152344 632.882812 C 1181.449219 633.8125 1181.195312 634.820312 1180.5 635.484375 C 1179.890625 636.070312 1165.5 649.730469 1145.523438 651.085938 C 1143.355469 651.230469 1141.261719 651.300781 1139.292969 651.300781 " fill-opacity="1" fill-rule="nonzero"/><path fill="#ffffff" d="M 1166.355469 142.417969 C 1174.570312 142.417969 1181.898438 149.847656 1182.710938 159.015625 L 1192.777344 273.214844 C 1193.582031 282.382812 1187.582031 289.8125 1179.355469 289.8125 L 906.613281 289.8125 L 845.339844 348.6875 L 856.984375 289.8125 L 811.296875 289.8125 C 803.074219 289.8125 795.765625 282.382812 794.957031 273.214844 L 784.886719 159.015625 C 784.074219 149.847656 790.085938 142.417969 798.300781 142.417969 L 1166.355469 142.417969 " fill-opacity="1" fill-rule="nonzero"/><path fill="#000000" d="M 845.265625 354.191406 C 844.636719 354.191406 844.003906 354.035156 843.425781 353.714844 C 841.933594 352.90625 841.167969 351.226562 841.523438 349.566406 L 853.855469 292.34375 L 811.308594 292.34375 C 801.820312 292.34375 793.34375 283.863281 792.425781 273.433594 L 782.363281 159.234375 C 781.878906 153.800781 783.535156 148.582031 786.902344 144.914062 C 789.867188 141.664062 793.925781 139.871094 798.3125 139.871094 L 925.21875 139.175781 C 925.21875 139.175781 925.21875 139.175781 925.226562 139.175781 C 926.625 139.175781 927.753906 140.296875 927.765625 141.703125 C 927.777344 143.09375 926.644531 144.238281 925.25 144.246094 L 798.3125 144.941406 C 795.359375 144.941406 792.648438 146.15625 790.632812 148.339844 C 788.230469 150.964844 787.058594 154.769531 787.417969 158.789062 L 797.480469 272.988281 C 798.179688 280.871094 804.386719 287.269531 811.308594 287.269531 L 860.132812 287.269531 L 847.375 346.492188 L 905.445312 288.953125 L 1179.34375 287.269531 C 1182.304688 287.269531 1185.027344 286.070312 1187.03125 283.882812 C 1189.433594 281.257812 1190.613281 277.453125 1190.253906 273.433594 L 1180.183594 159.234375 C 1179.484375 151.351562 1173.289062 144.941406 1166.363281 144.941406 L 956.742188 145.371094 L 956.730469 145.371094 C 955.328125 145.371094 954.195312 144.238281 954.195312 142.84375 C 954.195312 141.4375 955.328125 140.296875 956.722656 140.296875 L 1166.355469 139.871094 C 1175.855469 139.871094 1184.320312 148.363281 1185.238281 158.789062 L 1195.308594 272.988281 C 1195.785156 278.421875 1194.128906 283.640625 1190.769531 287.308594 C 1187.796875 290.5625 1183.75 292.34375 1179.359375 292.34375 L 907.546875 294.007812 L 847.9375 353.078125 C 847.199219 353.816406 846.242188 354.191406 845.265625 354.191406 " fill-opacity="1" fill-rule="nonzero"/><path fill="#99b9ff" d="M 1138.894531 191.890625 L 839.621094 191.890625 C 835.316406 191.890625 831.449219 188.414062 830.988281 184.132812 C 830.535156 179.839844 833.644531 176.359375 837.949219 176.359375 L 1137.222656 176.359375 C 1141.523438 176.359375 1145.390625 179.839844 1145.855469 184.132812 C 1146.308594 188.414062 1143.199219 191.890625 1138.894531 191.890625 " fill-opacity="1" fill-rule="nonzero"/><path fill="#caddff" d="M 1142.484375 225.363281 L 843.199219 225.363281 C 838.898438 225.363281 835.039062 221.890625 834.578125 217.597656 C 834.125 213.308594 837.234375 209.828125 841.535156 209.828125 L 1140.8125 209.828125 C 1145.113281 209.828125 1148.972656 213.308594 1149.433594 217.597656 C 1149.90625 221.890625 1146.789062 225.363281 1142.484375 225.363281 " fill-opacity="1" fill-rule="nonzero"/><path fill="#caddff" d="M 1146.074219 258.820312 L 846.808594 258.820312 C 842.5 258.820312 838.628906 255.339844 838.167969 251.054688 C 837.71875 246.757812 840.828125 243.285156 845.132812 243.285156 L 1144.410156 243.285156 C 1148.707031 243.285156 1152.566406 246.757812 1153.035156 251.054688 C 1153.5 255.339844 1150.378906 258.820312 1146.074219 258.820312 " fill-opacity="1" fill-rule="nonzero"/><path fill="#ffffff" d="M 1381.863281 441.214844 C 1389.253906 441.324219 1394.917969 435.453125 1394.496094 428.105469 L 1389.246094 336.617188 C 1388.824219 329.269531 1382.492188 323.238281 1375.09375 323.128906 L 1135.347656 318.304688 C 1127.953125 318.207031 1112.984375 323.621094 1113.414062 330.96875 L 1113.625 424.191406 C 1114.042969 431.53125 1120.386719 437.570312 1127.785156 437.667969 L 1157.289062 437.261719 L 1171.628906 485.34375 L 1198.640625 438.109375 L 1381.863281 441.214844 " fill-opacity="1" fill-rule="nonzero"/><path fill="#000000" d="M 1161.816406 434.695312 L 1172.582031 478.570312 L 1197.183594 435.539062 L 1198.691406 435.5625 L 1371.679688 438.941406 C 1371.738281 438.941406 1371.800781 438.941406 1371.859375 438.941406 C 1376.316406 438.941406 1381.839844 436.6875 1384.738281 433.648438 C 1386.214844 432.113281 1386.914062 430.539062 1386.824219 428.964844 L 1386.714844 336.609375 C 1386.363281 330.71875 1381.140625 325.746094 1375.058594 325.667969 L 1130.25 321.691406 C 1130.183594 321.691406 1130.109375 321.691406 1130.035156 321.691406 C 1125.527344 321.691406 1120.421875 323.621094 1117.820312 326.34375 C 1116.484375 327.726562 1115.855469 329.234375 1115.945312 330.820312 L 1116.175781 424.179688 C 1116.503906 430.070312 1121.738281 435.042969 1127.820312 435.121094 Z M 1170.695312 492.121094 L 1157.847656 439.816406 L 1127.820312 440.207031 C 1119.066406 440.078125 1111.589844 432.960938 1111.089844 424.328125 L 1110.878906 330.96875 C 1110.710938 328.109375 1111.835938 325.25 1114.152344 322.835938 C 1118.359375 318.441406 1125.367188 316.527344 1130.332031 316.617188 L 1375.128906 320.59375 C 1383.8125 320.710938 1391.289062 327.828125 1391.777344 336.460938 L 1391.890625 428.824219 C 1392.058594 431.671875 1390.851562 434.605469 1388.410156 437.15625 C 1384.460938 441.273438 1377.613281 444.082031 1371.597656 444.011719 L 1200.097656 440.664062 L 1170.695312 492.121094 " fill-opacity="1" fill-rule="nonzero"/><path fill="#ffffff" d="M 1153.742188 394.515625 L 1355.671875 397.34375 L 1153.742188 394.515625 " fill-opacity="1" fill-rule="nonzero"/><path fill="#000000" d="M 1355.671875 399.871094 C 1355.652344 399.871094 1355.652344 399.871094 1355.632812 399.871094 L 1153.710938 397.0625 C 1152.304688 397.039062 1151.183594 395.890625 1151.203125 394.484375 C 1151.222656 393.097656 1152.355469 391.984375 1153.738281 391.984375 C 1153.761719 391.984375 1153.761719 391.984375 1153.777344 391.984375 L 1355.703125 394.796875 C 1357.109375 394.816406 1358.230469 395.964844 1358.210938 397.371094 C 1358.183594 398.761719 1357.058594 399.871094 1355.671875 399.871094 " fill-opacity="1" fill-rule="nonzero"/><path fill="#ffffff" d="M 1311.90625 369.960938 L 1354.136719 370.542969 L 1311.90625 369.960938 " fill-opacity="1" fill-rule="nonzero"/><path fill="#000000" d="M 1354.140625 373.082031 C 1354.128906 373.082031 1354.113281 373.082031 1354.113281 373.082031 L 1311.882812 372.496094 C 1310.476562 372.476562 1309.355469 371.328125 1309.378906 369.921875 C 1309.40625 368.539062 1310.527344 367.414062 1311.914062 367.414062 C 1311.929688 367.414062 1311.929688 367.414062 1311.953125 367.414062 L 1354.179688 368.011719 C 1355.574219 368.03125 1356.695312 369.179688 1356.675781 370.585938 C 1356.65625 371.96875 1355.527344 373.082031 1354.140625 373.082031 " fill-opacity="1" fill-rule="nonzero"/><path fill="#ffffff" d="M 1152.199219 367.730469 L 1284.933594 369.582031 L 1152.199219 367.730469 " fill-opacity="1" fill-rule="nonzero"/><path fill="#000000" d="M 1284.933594 372.121094 C 1284.917969 372.121094 1284.898438 372.121094 1284.898438 372.121094 L 1152.171875 370.269531 C 1150.765625 370.25 1149.644531 369.09375 1149.664062 367.695312 C 1149.691406 366.304688 1150.8125 365.195312 1152.203125 365.195312 C 1152.21875 365.195312 1152.21875 365.195312 1152.238281 365.195312 L 1284.964844 367.050781 C 1286.363281 367.070312 1287.484375 368.21875 1287.460938 369.617188 C 1287.445312 371.003906 1286.308594 372.121094 1284.933594 372.121094 " fill-opacity="1" fill-rule="nonzero"/><path fill="#5479f7" d="M 219.628906 1326.296875 L 807.777344 1326.296875 C 833.128906 1326.296875 851.074219 1305.820312 847.886719 1280.5625 L 703.0625 136.777344 C 699.859375 111.511719 676.726562 91.035156 651.378906 91.035156 L 92.753906 84.515625 C 28.628906 84.515625 19.929688 111.511719 23.128906 136.777344 L 167.949219 1280.5625 C 171.148438 1305.820312 194.285156 1326.296875 219.628906 1326.296875 " fill-opacity="1" fill-rule="nonzero"/><path fill="#ffffff" d="M 255.023438 1326.296875 L 843.175781 1326.296875 C 868.515625 1326.296875 886.476562 1305.757812 883.273438 1280.414062 L 738.460938 132.976562 C 735.257812 107.640625 712.117188 87.097656 686.777344 87.097656 L 98.625 87.097656 C 73.277344 87.097656 55.324219 107.640625 58.523438 132.976562 L 203.34375 1280.414062 C 206.539062 1305.757812 229.679688 1326.296875 255.023438 1326.296875 " fill-opacity="1" fill-rule="nonzero"/><path fill="#000000" d="M 118.992188 636.636719 C 117.726562 636.636719 116.628906 635.695312 116.476562 634.402344 L 56 133.289062 C 54.359375 120.246094 57.933594 107.964844 66.078125 98.730469 C 74.132812 89.59375 85.691406 84.5625 98.621094 84.5625 L 166.882812 84.5625 C 168.28125 84.5625 169.417969 85.707031 169.417969 87.101562 C 169.417969 88.503906 168.28125 89.632812 166.882812 89.632812 L 98.621094 89.632812 C 87.167969 89.632812 76.964844 94.0625 69.882812 102.09375 C 62.714844 110.21875 59.574219 121.078125 61.039062 132.667969 L 121.511719 633.800781 C 121.679688 635.191406 120.6875 636.453125 119.300781 636.625 C 119.195312 636.636719 119.089844 636.636719 118.992188 636.636719 " fill-opacity="1" fill-rule="nonzero"/><path fill="#000000" d="M 596.167969 90.496094 L 208.730469 89.632812 C 207.328125 89.632812 206.195312 88.503906 206.199219 87.101562 C 206.203125 85.699219 207.335938 84.5625 208.734375 84.5625 C 208.738281 84.5625 208.738281 84.5625 208.742188 84.5625 L 596.175781 85.417969 C 597.574219 85.425781 598.710938 86.558594 598.710938 87.960938 C 598.703125 89.363281 597.570312 90.496094 596.167969 90.496094 " fill-opacity="1" fill-rule="nonzero"/><path fill="#000000" d="M 858.285156 1078.769531 C 857.019531 1078.769531 855.933594 1077.828125 855.773438 1076.542969 L 831.871094 881.226562 C 831.703125 879.832031 832.691406 878.570312 834.085938 878.394531 C 835.472656 878.242188 836.742188 879.222656 836.914062 880.609375 L 860.808594 1075.921875 C 860.980469 1077.3125 859.992188 1078.578125 858.597656 1078.757812 C 858.492188 1078.761719 858.390625 1078.769531 858.285156 1078.769531 " fill-opacity="1" fill-rule="nonzero"/><path fill="#000000" d="M 617.480469 1328.832031 L 415.222656 1328.832031 C 413.820312 1328.832031 412.683594 1327.699219 412.683594 1326.296875 C 412.683594 1324.894531 413.820312 1323.761719 415.222656 1323.761719 L 617.480469 1323.761719 C 618.878906 1323.761719 620.011719 1324.894531 620.011719 1326.296875 C 620.011719 1327.699219 618.878906 1328.832031 617.480469 1328.832031 " fill-opacity="1" fill-rule="nonzero"/><path fill="#000000" d="M 314.644531 1328.832031 L 255.023438 1328.832031 C 228.484375 1328.832031 204.171875 1307.257812 200.824219 1280.738281 L 178.664062 1105.152344 C 178.488281 1103.761719 179.472656 1102.488281 180.863281 1102.316406 C 182.261719 1102.144531 183.523438 1103.121094 183.699219 1104.515625 L 205.859375 1280.101562 C 208.894531 1304.171875 230.953125 1323.761719 255.023438 1323.761719 L 314.644531 1323.761719 C 316.046875 1323.761719 317.183594 1324.894531 317.183594 1326.296875 C 317.183594 1327.699219 316.046875 1328.832031 314.644531 1328.832031 " fill-opacity="1" fill-rule="nonzero"/><path fill="#99b9ff" d="M 849.757812 1281.992188 L 711.476562 186.390625 C 710.742188 180.535156 705.398438 175.800781 699.550781 175.800781 L 108.234375 175.800781 C 102.382812 175.800781 98.238281 180.535156 98.976562 186.390625 L 237.257812 1281.992188 C 237.996094 1287.847656 243.335938 1292.589844 249.1875 1292.589844 L 840.503906 1292.589844 C 846.351562 1292.589844 850.492188 1287.847656 849.757812 1281.992188 " fill-opacity="1" fill-rule="nonzero"/><path fill="#caddff" d="M 400.0625 145.453125 C 409.558594 145.453125 416.28125 137.761719 415.085938 128.269531 C 413.886719 118.777344 405.21875 111.085938 395.726562 111.085938 C 386.230469 111.085938 379.503906 118.777344 380.699219 128.269531 C 381.898438 137.761719 390.566406 145.453125 400.0625 145.453125 " fill-opacity="1" fill-rule="nonzero"/><path fill="#000000" d="M 731.632812 921.203125 C 731.539062 921.203125 731.449219 921.203125 731.359375 921.203125 C 703.039062 921.121094 673.894531 904.070312 644.738281 870.535156 C 624.304688 847.023438 611.300781 823.769531 610.753906 822.792969 C 606.421875 814.988281 609.234375 805.160156 617.035156 800.828125 C 624.828125 796.492188 634.671875 799.296875 639.003906 807.097656 C 651.679688 829.820312 692.976562 888.785156 731.457031 888.890625 C 731.511719 888.890625 731.570312 888.890625 731.632812 888.890625 C 743.832031 888.890625 753.265625 885.125 760.472656 877.382812 C 777.703125 858.84375 778.964844 821.796875 777.992188 809.085938 C 777.320312 800.191406 783.980469 792.429688 792.878906 791.746094 C 801.769531 791.074219 809.542969 797.734375 810.222656 806.632812 C 810.40625 809.070312 814.425781 866.796875 784.144531 899.378906 C 770.679688 913.863281 753.011719 921.203125 731.632812 921.203125 " fill-opacity="1" fill-rule="nonzero"/><path fill="#000000" d="M 845.097656 804.808594 L 749.390625 804.808594 C 740.46875 804.808594 733.234375 797.574219 733.234375 788.644531 C 733.234375 779.726562 740.46875 772.492188 749.390625 772.492188 L 845.097656 772.492188 C 854.019531 772.492188 861.257812 779.726562 861.257812 788.644531 C 861.257812 797.574219 854.019531 804.808594 845.097656 804.808594 " fill-opacity="1" fill-rule="nonzero"/><path fill="#ffffff" d="M 714.863281 582.539062 L 713.574219 582.539062 L 713.574219 487 L 714.863281 487 C 741.226562 487 762.601562 508.367188 762.601562 534.726562 L 762.601562 534.800781 C 762.601562 561.160156 741.226562 582.539062 714.863281 582.539062 " fill-opacity="1" fill-rule="nonzero"/><path fill="#000000" d="M 716.113281 489.558594 L 716.113281 579.980469 C 740.460938 579.3125 760.066406 559.308594 760.066406 534.800781 C 760.066406 510.230469 740.460938 490.222656 716.113281 489.558594 Z M 714.863281 585.070312 L 713.574219 585.070312 C 712.175781 585.070312 711.03125 583.9375 711.03125 582.539062 L 711.03125 487 C 711.03125 485.597656 712.175781 484.464844 713.574219 484.464844 L 714.863281 484.464844 C 742.585938 484.464844 765.136719 507.011719 765.136719 534.726562 C 765.136719 562.523438 742.585938 585.070312 714.863281 585.070312 " fill-opacity="1" fill-rule="nonzero"/><path fill="#ffffff" d="M 280.839844 582.539062 L 282.128906 582.539062 L 282.128906 487 L 280.839844 487 C 254.472656 487 233.101562 508.367188 233.101562 534.726562 L 233.101562 534.800781 C 233.101562 561.160156 254.472656 582.539062 280.839844 582.539062 " fill-opacity="1" fill-rule="nonzero"/><path fill="#000000" d="M 279.589844 489.558594 C 255.242188 490.222656 235.636719 510.230469 235.636719 534.726562 C 235.636719 559.300781 255.242188 579.3125 279.589844 579.980469 Z M 282.128906 585.070312 L 280.839844 585.070312 C 253.113281 585.070312 230.558594 562.523438 230.558594 534.800781 C 230.558594 507.011719 253.113281 484.464844 280.839844 484.464844 L 282.128906 484.464844 C 283.527344 484.464844 284.664062 485.597656 284.664062 487 L 284.664062 582.539062 C 284.664062 583.9375 283.527344 585.070312 282.128906 585.070312 " fill-opacity="1" fill-rule="nonzero"/><path fill="#ffffff" d="M 266.679688 530.832031 C 266.679688 428.175781 370.175781 321.988281 497.84375 321.988281 C 625.515625 321.988281 729.019531 428.175781 729.019531 530.832031 C 729.019531 633.480469 625.515625 693.730469 497.84375 693.730469 C 370.175781 693.730469 266.679688 633.480469 266.679688 530.832031 " fill-opacity="1" fill-rule="nonzero"/><path fill="#000000" d="M 497.851562 324.519531 C 366.996094 324.519531 269.21875 433.4375 269.21875 530.820312 C 269.21875 578.871094 292.246094 619.613281 335.796875 648.65625 C 376.929688 676.082031 434.476562 691.183594 497.851562 691.183594 C 561.21875 691.183594 618.773438 676.082031 659.902344 648.65625 C 703.460938 619.613281 726.476562 578.871094 726.476562 530.820312 C 726.476562 433.4375 628.710938 324.519531 497.851562 324.519531 Z M 497.851562 696.253906 C 433.492188 696.253906 374.9375 680.847656 332.984375 652.875 C 287.949219 622.851562 264.148438 580.644531 264.148438 530.820312 C 264.148438 479.808594 289.117188 427.039062 332.652344 386.054688 C 378.285156 343.105469 436.953125 319.445312 497.851562 319.445312 C 558.746094 319.445312 617.417969 343.105469 663.050781 386.054688 C 706.585938 427.039062 731.554688 479.808594 731.554688 530.820312 C 731.554688 580.644531 707.75 622.851562 662.722656 652.875 C 620.765625 680.847656 562.214844 696.253906 497.851562 696.253906 " fill-opacity="1" fill-rule="nonzero"/><path fill="#ffffff" d="M 555.75 724.558594 L 439.945312 724.558594 C 389.1875 724.558594 348.039062 765.703125 348.039062 816.441406 C 348.039062 849.96875 351.3125 883.417969 357.808594 916.304688 L 374.460938 1000.605469 C 386.097656 1059.523438 437.78125 1101.988281 497.847656 1101.988281 C 557.917969 1101.988281 609.605469 1059.523438 621.238281 1000.605469 L 637.894531 916.304688 C 644.390625 883.417969 647.660156 849.96875 647.660156 816.441406 C 647.660156 765.703125 606.511719 724.558594 555.75 724.558594 " fill-opacity="1" fill-rule="nonzero"/><path fill="#000000" d="M 439.945312 727.101562 C 390.667969 727.101562 350.582031 767.179688 350.582031 816.441406 C 350.582031 849.730469 353.851562 883.164062 360.300781 915.808594 L 376.949219 1000.113281 C 388.316406 1057.679688 439.160156 1099.457031 497.847656 1099.457031 C 556.539062 1099.457031 607.386719 1057.679688 618.75 1000.113281 L 635.398438 915.808594 C 641.851562 883.164062 645.121094 849.730469 645.121094 816.441406 C 645.121094 767.179688 605.027344 727.101562 555.75 727.101562 Z M 497.851562 1104.53125 C 436.746094 1104.53125 383.804688 1061.03125 371.972656 1001.101562 L 355.320312 916.796875 C 348.808594 883.824219 345.503906 850.058594 345.503906 816.441406 C 345.503906 764.382812 387.871094 722.027344 439.945312 722.027344 L 555.75 722.027344 C 607.828125 722.027344 650.191406 764.382812 650.191406 816.441406 C 650.191406 850.058594 646.894531 883.824219 640.382812 916.796875 L 623.726562 1001.101562 C 611.898438 1061.03125 558.957031 1104.53125 497.851562 1104.53125 " fill-opacity="1" fill-rule="nonzero"/><path fill="#5479f7" d="M 497.898438 928.144531 L 497.800781 928.144531 C 463.015625 928.144531 434.8125 899.945312 434.8125 865.175781 L 434.8125 724.558594 L 560.886719 724.558594 L 560.886719 865.175781 C 560.886719 899.945312 532.6875 928.144531 497.898438 928.144531 " fill-opacity="1" fill-rule="nonzero"/><path fill="#000000" d="M 560.886719 727.101562 L 434.8125 727.101562 C 433.414062 727.101562 432.277344 725.960938 432.277344 724.558594 C 432.277344 723.160156 433.414062 722.027344 434.8125 722.027344 L 560.886719 722.027344 C 562.289062 722.027344 563.421875 723.160156 563.421875 724.558594 C 563.421875 725.960938 562.289062 727.101562 560.886719 727.101562 " fill-opacity="1" fill-rule="nonzero"/><path fill="#000000" d="M 653.265625 500.015625 L 430.65625 500.015625 C 407.53125 500.015625 388.785156 520.210938 388.785156 545.125 L 388.785156 574.554688 C 388.785156 593.554688 398.929688 613.6875 416.425781 616.980469 C 478.113281 628.5625 605.808594 628.5625 667.5 616.980469 C 684.996094 613.6875 695.136719 593.554688 695.136719 574.554688 L 695.136719 545.125 C 695.136719 520.210938 676.390625 500.015625 653.265625 500.015625 " fill-opacity="1" fill-rule="nonzero"/><path fill="#5479f7" d="M 489.65625 559.242188 C 489.65625 567.585938 483.375 574.351562 475.625 574.351562 C 467.878906 574.351562 461.597656 567.585938 461.597656 559.242188 C 461.597656 550.894531 467.878906 544.128906 475.625 544.128906 C 483.375 544.128906 489.65625 550.894531 489.65625 559.242188 " fill-opacity="1" fill-rule="nonzero"/><path fill="#5479f7" d="M 638.90625 559.242188 C 638.90625 567.585938 632.625 574.351562 624.878906 574.351562 C 617.136719 574.351562 610.855469 567.585938 610.855469 559.242188 C 610.855469 550.894531 617.136719 544.128906 624.878906 544.128906 C 632.625 544.128906 638.90625 550.894531 638.90625 559.242188 " fill-opacity="1" fill-rule="nonzero"/><path fill="#000000" d="M 349.992188 994.640625 C 318.328125 994.640625 275.496094 990.132812 248.035156 969.085938 C 232.210938 956.960938 222.964844 940.941406 220.5625 921.488281 C 209.753906 834.144531 315.179688 784.152344 319.675781 782.0625 C 327.769531 778.3125 337.378906 781.824219 341.136719 789.917969 C 344.890625 798 341.386719 807.601562 333.304688 811.363281 C 332.417969 811.773438 244.722656 853.566406 252.632812 917.523438 C 253.957031 928.203125 258.886719 936.6875 267.699219 943.445312 C 297.890625 966.582031 363.722656 963.335938 386.539062 960.128906 C 395.375 958.890625 403.546875 965.042969 404.789062 973.878906 C 406.03125 982.714844 399.871094 990.882812 391.035156 992.121094 C 389.414062 992.351562 372.535156 994.640625 349.992188 994.640625 " fill-opacity="1" fill-rule="nonzero"/><path fill="#000000" d="M 461.570312 1011.820312 L 430.539062 1011.820312 C 413.582031 1011.820312 399.523438 999.101562 397.835938 982.238281 L 396.757812 971.4375 C 395.835938 962.21875 398.871094 952.996094 405.089844 946.125 C 411.308594 939.257812 420.191406 935.316406 429.457031 935.316406 L 478.957031 935.316406 C 487.882812 935.316406 495.117188 942.550781 495.117188 951.46875 C 495.117188 960.390625 487.882812 967.625 478.957031 967.625 L 429.457031 967.625 C 429.367188 967.625 429.214844 967.625 429.054688 967.808594 C 428.890625 967.984375 428.90625 968.136719 428.917969 968.21875 L 429.996094 979.023438 C 430.023438 979.300781 430.257812 979.511719 430.539062 979.511719 L 461.570312 979.511719 C 470.496094 979.511719 477.730469 986.75 477.730469 995.667969 C 477.730469 1004.585938 470.496094 1011.820312 461.570312 1011.820312 " fill-opacity="1" fill-rule="nonzero"/><path fill="#ffffff" d="M 996.105469 1276.6875 C 996.105469 1371.734375 919.042969 1448.78125 823.96875 1448.78125 C 728.890625 1448.78125 651.824219 1371.734375 651.824219 1276.6875 C 651.824219 1181.632812 728.890625 1104.585938 823.96875 1104.585938 C 919.042969 1104.585938 996.105469 1181.632812 996.105469 1276.6875 " fill-opacity="1" fill-rule="nonzero"/><path fill="#000000" d="M 823.96875 1107.121094 C 730.445312 1107.121094 654.359375 1183.1875 654.359375 1276.6875 C 654.359375 1370.179688 730.445312 1446.25 823.96875 1446.25 C 917.488281 1446.25 993.574219 1370.179688 993.574219 1276.6875 C 993.574219 1183.1875 917.488281 1107.121094 823.96875 1107.121094 Z M 823.96875 1451.324219 C 727.652344 1451.324219 649.28125 1372.984375 649.28125 1276.6875 C 649.28125 1180.386719 727.652344 1102.042969 823.96875 1102.042969 C 920.289062 1102.042969 998.648438 1180.386719 998.648438 1276.6875 C 998.648438 1372.984375 920.289062 1451.324219 823.96875 1451.324219 " fill-opacity="1" fill-rule="nonzero"/><path fill="#5479f7" d="M 979.898438 1277.308594 C 979.898438 1362.371094 910.921875 1431.324219 825.839844 1431.324219 C 740.753906 1431.324219 671.78125 1362.371094 671.78125 1277.308594 C 671.78125 1192.242188 740.753906 1123.289062 825.839844 1123.289062 C 910.921875 1123.289062 979.898438 1192.242188 979.898438 1277.308594 " fill-opacity="1" fill-rule="nonzero"/></svg>