<svg xmlns="http://www.w3.org/2000/svg" xmlns:xlink="http://www.w3.org/1999/xlink" width="2000" zoomAndPan="magnify" viewBox="0 0 1500 1499.999933" height="2000" preserveAspectRatio="xMidYMid meet" version="1.0"><path fill="#b392c5" d="M 1477.359375 749.96875 C 1477.359375 761.871094 1477.066406 773.769531 1476.480469 785.65625 C 1475.898438 797.546875 1475.023438 809.414062 1473.855469 821.261719 C 1472.6875 833.105469 1471.234375 844.917969 1469.484375 856.691406 C 1467.738281 868.464844 1465.703125 880.1875 1463.382812 891.863281 C 1461.058594 903.539062 1458.453125 915.148438 1455.5625 926.695312 C 1452.667969 938.242188 1449.496094 949.710938 1446.039062 961.101562 C 1442.585938 972.492188 1438.851562 983.792969 1434.839844 995 C 1430.832031 1006.207031 1426.546875 1017.308594 1421.992188 1028.304688 C 1417.4375 1039.300781 1412.617188 1050.179688 1407.527344 1060.941406 C 1402.4375 1071.703125 1397.085938 1082.332031 1391.476562 1092.828125 C 1385.863281 1103.328125 1380 1113.679688 1373.878906 1123.890625 C 1367.761719 1134.101562 1361.394531 1144.152344 1354.78125 1154.050781 C 1348.167969 1163.949219 1341.316406 1173.675781 1334.226562 1183.238281 C 1327.132812 1192.796875 1319.8125 1202.179688 1312.261719 1211.382812 C 1304.710938 1220.582031 1296.9375 1229.59375 1288.945312 1238.414062 C 1280.949219 1247.234375 1272.746094 1255.851562 1264.328125 1264.269531 C 1255.910156 1272.683594 1247.292969 1280.890625 1238.472656 1288.882812 C 1229.652344 1296.878906 1220.644531 1304.648438 1211.441406 1312.203125 C 1202.242188 1319.753906 1192.859375 1327.074219 1183.300781 1334.164062 C 1173.738281 1341.253906 1164.007812 1348.105469 1154.113281 1354.71875 C 1144.214844 1361.332031 1134.160156 1367.699219 1123.953125 1373.820312 C 1113.742188 1379.9375 1103.386719 1385.804688 1092.890625 1391.414062 C 1082.390625 1397.027344 1071.761719 1402.375 1061.003906 1407.464844 C 1050.242188 1412.554688 1039.363281 1417.378906 1028.367188 1421.933594 C 1017.371094 1426.488281 1006.265625 1430.769531 995.058594 1434.78125 C 983.851562 1438.789062 972.554688 1442.523438 961.164062 1445.980469 C 949.773438 1449.433594 938.304688 1452.609375 926.757812 1455.5 C 915.210938 1458.390625 903.601562 1461 891.925781 1463.320312 C 880.25 1465.644531 868.527344 1467.679688 856.75 1469.425781 C 844.976562 1471.171875 833.167969 1472.628906 821.320312 1473.792969 C 809.476562 1474.960938 797.609375 1475.835938 785.71875 1476.421875 C 773.828125 1477.003906 761.933594 1477.296875 750.03125 1477.296875 C 738.128906 1477.296875 726.230469 1477.003906 714.34375 1476.421875 C 702.453125 1475.835938 690.585938 1474.960938 678.738281 1473.792969 C 666.894531 1472.628906 655.082031 1471.171875 643.308594 1469.425781 C 631.535156 1467.679688 619.808594 1465.644531 608.136719 1463.320312 C 596.460938 1461 584.851562 1458.390625 573.304688 1455.5 C 561.757812 1452.609375 550.289062 1449.433594 538.898438 1445.980469 C 527.507812 1442.523438 516.207031 1438.789062 505 1434.78125 C 493.792969 1430.769531 482.691406 1426.488281 471.695312 1421.933594 C 460.695312 1417.378906 449.816406 1412.554688 439.058594 1407.464844 C 428.296875 1402.375 417.667969 1397.027344 407.171875 1391.414062 C 396.671875 1385.804688 386.320312 1379.9375 376.109375 1373.820312 C 365.898438 1367.699219 355.847656 1361.332031 345.949219 1354.71875 C 336.050781 1348.105469 326.324219 1341.253906 316.761719 1334.164062 C 307.203125 1327.074219 297.820312 1319.753906 288.617188 1312.203125 C 279.417969 1304.648438 270.40625 1296.878906 261.585938 1288.882812 C 252.765625 1280.890625 244.148438 1272.683594 235.730469 1264.269531 C 227.316406 1255.851562 219.109375 1247.234375 211.117188 1238.414062 C 203.121094 1229.59375 195.351562 1220.582031 187.796875 1211.382812 C 180.246094 1202.179688 172.925781 1192.796875 165.835938 1183.238281 C 158.746094 1173.675781 151.894531 1163.949219 145.28125 1154.050781 C 138.667969 1144.152344 132.300781 1134.101562 126.179688 1123.890625 C 120.0625 1113.679688 114.195312 1103.328125 108.585938 1092.828125 C 102.972656 1082.332031 97.625 1071.703125 92.535156 1060.941406 C 87.445312 1050.179688 82.621094 1039.300781 78.066406 1028.304688 C 73.511719 1017.308594 69.230469 1006.207031 65.21875 995 C 61.210938 983.792969 57.476562 972.492188 54.019531 961.101562 C 50.566406 949.710938 47.390625 938.242188 44.5 926.695312 C 41.609375 915.148438 39 903.539062 36.679688 891.863281 C 34.355469 880.1875 32.320312 868.464844 30.574219 856.691406 C 28.828125 844.917969 27.371094 833.105469 26.207031 821.261719 C 25.039062 809.414062 24.164062 797.546875 23.578125 785.65625 C 22.996094 773.769531 22.703125 761.871094 22.703125 749.96875 C 22.703125 738.066406 22.996094 726.171875 23.578125 714.28125 C 24.164062 702.390625 25.039062 690.523438 26.207031 678.679688 C 27.371094 666.832031 28.828125 655.023438 30.574219 643.25 C 32.320312 631.472656 34.355469 619.75 36.679688 608.074219 C 39 596.398438 41.609375 584.789062 44.5 573.242188 C 47.390625 561.695312 50.566406 550.226562 54.019531 538.835938 C 57.476562 527.445312 61.210938 516.148438 65.21875 504.941406 C 69.230469 493.734375 73.511719 482.628906 78.066406 471.632812 C 82.621094 460.636719 87.445312 449.757812 92.535156 438.996094 C 97.625 428.238281 102.972656 417.605469 108.585938 407.109375 C 114.195312 396.613281 120.0625 386.257812 126.179688 376.046875 C 132.300781 365.839844 138.667969 355.785156 145.28125 345.886719 C 151.894531 335.992188 158.746094 326.261719 165.835938 316.699219 C 172.925781 307.140625 180.246094 297.757812 187.796875 288.558594 C 195.351562 279.355469 203.121094 270.347656 211.117188 261.527344 C 219.109375 252.707031 227.316406 244.089844 235.730469 235.671875 C 244.148438 227.253906 252.765625 219.050781 261.585938 211.054688 C 270.40625 203.0625 279.417969 195.289062 288.617188 187.738281 C 297.820312 180.1875 307.203125 172.863281 316.761719 165.773438 C 326.324219 158.683594 336.050781 151.832031 345.949219 145.21875 C 355.847656 138.605469 365.898438 132.238281 376.109375 126.121094 C 386.320312 120 396.671875 114.136719 407.171875 108.523438 C 417.667969 102.914062 428.296875 97.5625 439.058594 92.472656 C 449.816406 87.382812 460.695312 82.5625 471.695312 78.007812 C 482.691406 73.453125 493.792969 69.167969 505 65.160156 C 516.207031 61.148438 527.507812 57.414062 538.898438 53.960938 C 550.289062 50.503906 561.757812 47.332031 573.304688 44.4375 C 584.851562 41.546875 596.460938 38.941406 608.136719 36.617188 C 619.808594 34.296875 631.535156 32.261719 643.308594 30.515625 C 655.082031 28.765625 666.894531 27.3125 678.738281 26.144531 C 690.585938 24.976562 702.453125 24.101562 714.34375 23.519531 C 726.230469 22.933594 738.128906 22.640625 750.03125 22.640625 C 761.933594 22.640625 773.828125 22.933594 785.71875 23.519531 C 797.609375 24.101562 809.476562 24.976562 821.320312 26.144531 C 833.167969 27.3125 844.976562 28.765625 856.75 30.515625 C 868.527344 32.261719 880.25 34.296875 891.925781 36.617188 C 903.601562 38.941406 915.210938 41.546875 926.757812 44.4375 C 938.304688 47.332031 949.773438 50.503906 961.164062 53.960938 C 972.554688 57.414062 983.851562 61.148438 995.058594 65.160156 C 1006.265625 69.167969 1017.371094 73.453125 1028.367188 78.007812 C 1039.363281 82.5625 1050.242188 87.382812 1061.003906 92.472656 C 1071.761719 97.5625 1082.390625 102.914062 1092.890625 108.523438 C 1103.386719 114.136719 1113.742188 120 1123.953125 126.121094 C 1134.160156 132.238281 1144.214844 138.605469 1154.113281 145.21875 C 1164.007812 151.832031 1173.738281 158.683594 1183.300781 165.773438 C 1192.859375 172.863281 1202.242188 180.1875 1211.441406 187.738281 C 1220.644531 195.289062 1229.652344 203.0625 1238.472656 211.054688 C 1247.292969 219.050781 1255.910156 227.253906 1264.328125 235.671875 C 1272.746094 244.089844 1280.949219 252.707031 1288.945312 261.527344 C 1296.9375 270.347656 1304.710938 279.355469 1312.261719 288.558594 C 1319.8125 297.757812 1327.132812 307.140625 1334.226562 316.699219 C 1341.316406 326.261719 1348.167969 335.992188 1354.78125 345.886719 C 1361.394531 355.785156 1367.761719 365.839844 1373.878906 376.046875 C 1380 386.257812 1385.863281 396.613281 1391.476562 407.109375 C 1397.085938 417.605469 1402.4375 428.238281 1407.527344 438.996094 C 1412.617188 449.757812 1417.4375 460.636719 1421.992188 471.632812 C 1426.546875 482.628906 1430.832031 493.734375 1434.839844 504.941406 C 1438.851562 516.148438 1442.585938 527.445312 1446.039062 538.835938 C 1449.496094 550.226562 1452.667969 561.695312 1455.5625 573.242188 C 1458.453125 584.789062 1461.058594 596.398438 1463.382812 608.074219 C 1465.703125 619.75 1467.738281 631.472656 1469.484375 643.25 C 1471.234375 655.023438 1472.6875 666.832031 1473.855469 678.679688 C 1475.023438 690.523438 1475.898438 702.390625 1476.480469 714.28125 C 1477.066406 726.171875 1477.359375 738.066406 1477.359375 749.96875 Z M 1477.359375 749.96875 " fill-opacity="1" fill-rule="nonzero"/><path fill="#a882bd" d="M 186.382812 296.449219 L 184.429688 292.734375 C 186.09375 290.675781 187.738281 288.605469 189.425781 286.570312 Z M 186.382812 296.449219 " fill-opacity="1" fill-rule="evenodd"/><path fill="#c4abd2" d="M 22.734375 752.210938 L 38.898438 780.601562 L 26.550781 825.117188 C 24.089844 801.140625 22.808594 776.816406 22.734375 752.210938 Z M 22.734375 752.210938 " fill-opacity="1" fill-rule="evenodd"/><path fill="#bea3cd" d="M 38.898438 780.601562 L 22.734375 752.210938 C 22.730469 751.460938 22.707031 750.71875 22.707031 749.96875 C 22.707031 738.507812 23.003906 727.113281 23.53125 715.777344 Z M 38.898438 780.601562 " fill-opacity="1" fill-rule="evenodd"/><path fill="#d6c5df" d="M 260.945312 1288.304688 L 431.503906 1256.65625 L 411.832031 1393.988281 C 357.046875 1365.160156 306.359375 1329.585938 260.945312 1288.304688 Z M 260.945312 1288.304688 " fill-opacity="1" fill-rule="evenodd"/><path fill="#d2bedc" d="M 192.875 1217.449219 L 318.019531 726.792969 L 431.503906 1256.65625 L 260.945312 1288.304688 C 236.695312 1266.253906 213.96875 1242.558594 192.875 1217.449219 Z M 192.875 1217.449219 " fill-opacity="1" fill-rule="evenodd"/><path fill="#c4a9d1" d="M 318.019531 726.789062 L 43.867188 575.320312 C 48.121094 558.058594 52.992188 541.039062 58.457031 524.285156 L 333.914062 463.191406 Z M 318.019531 726.789062 " fill-opacity="1" fill-rule="evenodd"/><path fill="#ab86be" d="M 184.429688 292.738281 L 186.382812 296.449219 L 180.777344 297.273438 C 181.988281 295.75 183.210938 294.242188 184.429688 292.738281 Z M 184.429688 292.738281 " fill-opacity="1" fill-rule="evenodd"/><path fill="#b494c5" d="M 180.777344 297.273438 L 186.382812 296.449219 L 145.597656 345.328125 C 156.675781 328.8125 168.421875 312.789062 180.777344 297.273438 Z M 180.777344 297.273438 " fill-opacity="1" fill-rule="evenodd"/><path fill="#ba9cca" d="M 145.597656 345.324219 L 186.382812 296.449219 L 333.914062 463.191406 L 58.457031 524.289062 C 79.335938 460.277344 108.816406 400.152344 145.597656 345.324219 Z M 145.597656 345.324219 " fill-opacity="1" fill-rule="evenodd"/><path fill="#c4abd2" d="M 38.898438 780.601562 L 23.53125 715.777344 C 25.761719 667.582031 32.699219 620.621094 43.867188 575.324219 L 318.019531 726.792969 Z M 38.898438 780.601562 " fill-opacity="1" fill-rule="evenodd"/><path fill="#cebada" d="M 45.46875 931.175781 L 318.019531 726.789062 L 192.875 1217.449219 C 124.011719 1135.457031 72.878906 1038.078125 45.46875 931.175781 Z M 45.46875 931.175781 " fill-opacity="1" fill-rule="evenodd"/><path fill="#cbb4d7" d="M 26.550781 825.117188 L 38.898438 780.601562 L 318.019531 726.792969 L 45.46875 931.179688 C 36.636719 896.742188 30.265625 861.324219 26.550781 825.117188 Z M 26.550781 825.117188 " fill-opacity="1" fill-rule="evenodd"/><path fill="#d1bddc" d="M 613.039062 1019.949219 L 318.019531 726.789062 L 513.171875 670.304688 Z M 613.039062 1019.949219 " fill-opacity="1" fill-rule="evenodd"/><path fill="#c1a6cf" d="M 513.171875 670.304688 L 333.914062 463.191406 L 458.746094 248.03125 Z M 513.171875 670.304688 " fill-opacity="1" fill-rule="evenodd"/><path fill="#c9b3d6" d="M 318.019531 726.789062 L 333.914062 463.191406 L 513.171875 670.304688 Z M 318.019531 726.789062 " fill-opacity="1" fill-rule="evenodd"/><path fill="#b99bca" d="M 1026.09375 576.164062 L 880.847656 315.28125 L 1131.539062 130.667969 C 1142.007812 137.128906 1152.296875 143.851562 1162.402344 150.824219 Z M 1026.09375 576.164062 " fill-opacity="1" fill-rule="evenodd"/><path fill="#ae8cc1" d="M 186.382812 296.449219 L 189.425781 286.570312 C 225.96875 242.410156 267.632812 202.652344 313.5 168.175781 L 458.742188 248.027344 Z M 186.382812 296.449219 " fill-opacity="1" fill-rule="evenodd"/><path fill="#b799c8" d="M 333.914062 463.191406 L 186.382812 296.449219 L 458.746094 248.03125 Z M 333.914062 463.191406 " fill-opacity="1" fill-rule="evenodd"/><path fill="#ab86be" d="M 458.746094 248.03125 L 313.5 168.183594 C 357.679688 134.980469 405.777344 106.730469 456.949219 84.167969 Z M 458.746094 248.03125 " fill-opacity="1" fill-rule="evenodd"/><path fill="#d4c1dd" d="M 431.503906 1256.65625 L 318.019531 726.789062 L 613.039062 1019.949219 Z M 431.503906 1256.65625 " fill-opacity="1" fill-rule="evenodd"/><path fill="#d0bcdb" d="M 955.75 950.023438 L 765.113281 820.933594 L 1026.09375 576.164062 Z M 955.75 950.023438 " fill-opacity="1" fill-rule="evenodd"/><path fill="#d8c7e1" d="M 411.832031 1393.988281 L 431.503906 1256.65625 L 563.835938 1453.199219 C 510.523438 1439.109375 459.609375 1419.132812 411.832031 1393.988281 Z M 411.832031 1393.988281 " fill-opacity="1" fill-rule="evenodd"/><path fill="#c6aed4" d="M 765.113281 820.933594 L 880.847656 315.28125 L 1026.09375 576.164062 Z M 765.113281 820.933594 " fill-opacity="1" fill-rule="evenodd"/><path fill="#ab86be" d="M 458.746094 248.03125 L 456.949219 84.164062 C 482.316406 72.984375 508.429688 63.183594 535.214844 54.90625 L 774.183594 105.464844 Z M 458.746094 248.03125 " fill-opacity="1" fill-rule="evenodd"/><path fill="#d2bedc" d="M 613.039062 1019.949219 L 513.171875 670.304688 L 765.113281 820.933594 Z M 613.039062 1019.949219 " fill-opacity="1" fill-rule="evenodd"/><path fill="#d9c9e2" d="M 796.875 1463.734375 L 431.503906 1256.65625 L 613.039062 1019.949219 Z M 796.875 1463.734375 " fill-opacity="1" fill-rule="evenodd"/><path fill="#dbcbe4" d="M 563.835938 1453.199219 L 431.503906 1256.65625 L 796.875 1463.730469 L 771.054688 1476.96875 C 764.070312 1477.167969 757.066406 1477.292969 750.03125 1477.292969 C 685.664062 1477.292969 623.269531 1468.894531 563.835938 1453.199219 Z M 563.835938 1453.199219 " fill-opacity="1" fill-rule="evenodd"/><path fill="#c9b3d6" d="M 765.113281 820.933594 L 513.171875 670.304688 L 880.847656 315.28125 Z M 765.113281 820.933594 " fill-opacity="1" fill-rule="evenodd"/><path fill="#bea3cd" d="M 513.171875 670.304688 L 458.746094 248.03125 L 880.847656 315.28125 Z M 513.171875 670.304688 " fill-opacity="1" fill-rule="evenodd"/><path fill="#b392c5" d="M 880.847656 315.28125 L 458.746094 248.03125 L 774.179688 105.464844 Z M 880.847656 315.28125 " fill-opacity="1" fill-rule="evenodd"/><path fill="#e0d3e7" d="M 771.054688 1476.96875 L 796.878906 1463.730469 L 802.601562 1475.386719 C 792.144531 1476.132812 781.628906 1476.671875 771.054688 1476.96875 Z M 771.054688 1476.96875 " fill-opacity="1" fill-rule="evenodd"/><path fill="#dccde4" d="M 796.875 1463.734375 L 613.039062 1019.949219 L 935.328125 1383.070312 Z M 796.875 1463.734375 " fill-opacity="1" fill-rule="evenodd"/><path fill="#d9c9e2" d="M 935.328125 1383.070312 L 613.039062 1019.949219 L 955.75 950.023438 Z M 935.328125 1383.070312 " fill-opacity="1" fill-rule="evenodd"/><path fill="#e2d5e9" d="M 802.601562 1475.390625 L 796.875 1463.734375 L 935.328125 1383.070312 L 926.902344 1455.59375 C 886.6875 1465.640625 845.15625 1472.351562 802.601562 1475.390625 Z M 802.601562 1475.390625 " fill-opacity="1" fill-rule="evenodd"/><path fill="#d4c1dd" d="M 613.039062 1019.949219 L 765.113281 820.933594 L 955.75 950.023438 Z M 613.039062 1019.949219 " fill-opacity="1" fill-rule="evenodd"/><path fill="#ae8cc1" d="M 880.847656 315.28125 L 774.179688 105.464844 L 1071.804688 97.570312 C 1092.28125 107.6875 1112.210938 118.734375 1131.539062 130.667969 Z M 880.847656 315.28125 " fill-opacity="1" fill-rule="evenodd"/><path fill="#dbcbe4" d="M 935.328125 1383.070312 L 955.75 950.023438 L 1169.074219 1089.875 Z M 935.328125 1383.070312 " fill-opacity="1" fill-rule="evenodd"/><path fill="#a882bd" d="M 774.179688 105.464844 L 535.210938 54.90625 C 544.785156 51.953125 554.453125 49.207031 564.1875 46.640625 L 1042.617188 83.949219 C 1052.460938 88.277344 1062.191406 92.820312 1071.800781 97.570312 Z M 774.179688 105.464844 " fill-opacity="1" fill-rule="evenodd"/><path fill="#dacae3" d="M 1268.917969 1259.566406 L 1169.074219 1089.875 L 1316.566406 928.523438 L 1337.773438 1178.40625 C 1316.796875 1207.125 1293.78125 1234.25 1268.917969 1259.566406 Z M 1268.917969 1259.566406 " fill-opacity="1" fill-rule="evenodd"/><path fill="#d5c4df" d="M 1169.074219 1089.875 L 955.75 950.023438 L 1316.566406 928.523438 Z M 1169.074219 1089.875 " fill-opacity="1" fill-rule="evenodd"/><path fill="#c4abd2" d="M 1316.566406 928.523438 L 1026.09375 576.164062 L 1336.519531 319.8125 C 1348.289062 335.832031 1359.421875 352.34375 1369.875 369.324219 Z M 1316.566406 928.523438 " fill-opacity="1" fill-rule="evenodd"/><path fill="#b799c8" d="M 1026.09375 576.164062 L 1162.402344 150.820312 C 1229.449219 197.054688 1288.339844 254.246094 1336.519531 319.8125 Z M 1026.09375 576.164062 " fill-opacity="1" fill-rule="evenodd"/><path fill="#e0d3e7" d="M 1090.207031 1392.945312 L 935.328125 1383.070312 L 1169.074219 1089.878906 L 1268.917969 1259.570312 C 1216.761719 1312.65625 1156.535156 1357.78125 1090.207031 1392.945312 Z M 1090.207031 1392.945312 " fill-opacity="1" fill-rule="evenodd"/><path fill="#cebada" d="M 955.75 950.023438 L 1026.09375 576.164062 L 1316.566406 928.523438 Z M 955.75 950.023438 " fill-opacity="1" fill-rule="evenodd"/><path fill="#e5dbec" d="M 926.902344 1455.59375 L 935.328125 1383.070312 L 1090.207031 1392.945312 C 1039.082031 1420.046875 984.347656 1441.238281 926.902344 1455.59375 Z M 926.902344 1455.59375 " fill-opacity="1" fill-rule="evenodd"/><path fill="#a37bb8" d="M 860.917969 31.042969 L 613.777344 35.441406 C 657.917969 27.078125 703.453125 22.640625 750.03125 22.640625 C 787.730469 22.640625 824.761719 25.515625 860.917969 31.042969 Z M 860.917969 31.042969 " fill-opacity="1" fill-rule="evenodd"/><path fill="#a882bd" d="M 1042.621094 83.949219 L 564.191406 46.640625 C 580.5 42.339844 597.042969 38.617188 613.78125 35.441406 L 860.921875 31.042969 C 924.578125 40.796875 985.515625 58.824219 1042.621094 83.949219 Z M 1042.621094 83.949219 " fill-opacity="1" fill-rule="evenodd"/><path fill="#c2a8d0" d="M 1316.566406 928.523438 L 1369.875 369.324219 C 1436.519531 477.621094 1475.558594 604.707031 1477.242188 740.796875 Z M 1316.566406 928.523438 " fill-opacity="1" fill-rule="evenodd"/><path fill="#c6add4" d="M 1316.566406 928.523438 L 1477.242188 740.796875 C 1477.277344 743.855469 1477.359375 746.902344 1477.359375 749.96875 C 1477.359375 799.207031 1472.433594 847.289062 1463.113281 893.785156 Z M 1316.566406 928.523438 " fill-opacity="1" fill-rule="evenodd"/><path fill="#d8c7e1" d="M 1337.769531 1178.40625 L 1316.5625 928.523438 L 1423.871094 1024.085938 C 1401.410156 1079.222656 1372.398438 1130.988281 1337.769531 1178.40625 Z M 1337.769531 1178.40625 " fill-opacity="1" fill-rule="evenodd"/><path fill="#d0bcdb" d="M 1423.875 1024.085938 L 1316.566406 928.523438 L 1463.113281 893.785156 C 1454.054688 938.863281 1440.835938 982.429688 1423.875 1024.085938 Z M 1423.875 1024.085938 " fill-opacity="1" fill-rule="evenodd"/><path fill="#544a59" d="M 750.03125 -0.0625 C 957.144531 -0.0625 1144.652344 83.890625 1280.378906 219.621094 C 1416.109375 355.347656 1500.0625 542.855469 1500.0625 749.96875 C 1500.0625 957.082031 1416.109375 1144.589844 1280.378906 1280.320312 C 1144.652344 1416.046875 957.144531 1500 750.03125 1500 C 542.917969 1500 355.410156 1416.046875 219.679688 1280.320312 C 83.953125 1144.589844 0 957.082031 0 749.96875 C 0 542.855469 83.953125 355.347656 219.679688 219.621094 C 355.410156 83.890625 542.917969 -0.0625 750.03125 -0.0625 Z M 1248.242188 251.757812 C 1120.738281 124.257812 944.59375 45.398438 750.03125 45.398438 C 555.46875 45.398438 379.320312 124.257812 251.820312 251.757812 C 124.320312 379.261719 45.457031 555.40625 45.457031 749.96875 C 45.457031 944.53125 124.320312 1120.679688 251.820312 1248.179688 C 379.320312 1375.679688 555.46875 1454.542969 750.03125 1454.542969 C 944.59375 1454.542969 1120.738281 1375.679688 1248.242188 1248.179688 C 1375.742188 1120.679688 1454.601562 944.53125 1454.601562 749.96875 C 1454.601562 555.40625 1375.742188 379.261719 1248.242188 251.757812 Z M 1248.242188 251.757812 " fill-opacity="1" fill-rule="nonzero"/><path fill="#544a59" d="M 1158.5625 1009.09375 C 1178.515625 1029.050781 1189.5 1055.582031 1189.5 1083.796875 C 1189.5 1112.015625 1178.515625 1138.542969 1158.5625 1158.496094 C 1138.609375 1178.449219 1112.078125 1189.433594 1083.863281 1189.433594 C 1055.644531 1189.433594 1029.117188 1178.449219 1009.160156 1158.496094 L 735.894531 885.230469 L 777.398438 843.71875 L 1056.800781 1123.121094 C 1058.683594 1125.007812 1061.160156 1125.953125 1063.625 1125.953125 C 1066.105469 1125.953125 1068.570312 1125.007812 1070.460938 1123.121094 C 1074.226562 1119.347656 1074.226562 1113.230469 1070.460938 1109.464844 L 791.058594 830.0625 L 830.125 790.992188 L 1109.527344 1070.394531 C 1111.410156 1072.28125 1113.886719 1073.226562 1116.355469 1073.226562 C 1118.832031 1073.226562 1121.296875 1072.28125 1123.183594 1070.394531 C 1126.949219 1066.625 1126.949219 1060.507812 1123.183594 1056.742188 L 843.78125 777.339844 L 885.285156 735.835938 Z M 1158.5625 1009.09375 " fill-opacity="1" fill-rule="evenodd"/><path fill="#544a59" d="M 703.261719 675.472656 L 675.539062 703.191406 L 388.570312 416.222656 C 387.691406 415.347656 386.664062 414.648438 385.523438 414.160156 L 335.644531 392.921875 L 312.804688 351.6875 L 351.75 312.742188 L 392.984375 335.578125 L 414.226562 385.457031 C 414.703125 386.589844 415.410156 387.628906 416.285156 388.503906 Z M 703.261719 675.472656 " fill-opacity="1" fill-rule="evenodd"/><path fill="#544a59" d="M 640.296875 953.503906 C 637.65625 956.140625 636.777344 960.078125 638.035156 963.59375 C 660.003906 1024.804688 644.503906 1094.046875 598.527344 1140.015625 C 556.269531 1182.28125 494.308594 1198.792969 437.023438 1184.09375 L 539.816406 1081.300781 C 541.628906 1079.488281 542.648438 1077.03125 542.648438 1074.472656 C 542.648438 1071.914062 541.628906 1069.457031 539.816406 1067.644531 L 432.285156 960.113281 C 428.511719 956.339844 422.394531 956.339844 418.628906 960.113281 L 315.820312 1062.90625 C 301.121094 1005.621094 317.636719 943.660156 359.90625 901.394531 C 405.871094 855.425781 475.117188 839.921875 536.324219 861.894531 C 539.839844 863.15625 543.773438 862.273438 546.414062 859.628906 L 859.683594 546.363281 C 862.324219 543.71875 863.207031 539.789062 861.945312 536.269531 C 839.972656 475.066406 855.480469 405.820312 901.445312 359.851562 C 943.710938 317.582031 1005.664062 301.066406 1062.957031 315.769531 L 960.164062 418.570312 C 956.394531 422.335938 956.394531 428.453125 960.164062 432.226562 L 1067.699219 539.757812 C 1069.511719 541.574219 1071.96875 542.589844 1074.523438 542.589844 C 1077.082031 542.589844 1079.542969 541.570312 1081.351562 539.757812 L 1184.15625 436.960938 C 1198.855469 494.25 1182.34375 556.203125 1140.070312 598.472656 C 1094.109375 644.441406 1024.863281 659.941406 963.652344 637.972656 C 960.132812 636.710938 956.203125 637.597656 953.5625 640.234375 Z M 640.296875 953.503906 " fill-opacity="1" fill-rule="evenodd"/></svg>