<svg xmlns="http://www.w3.org/2000/svg" xmlns:xlink="http://www.w3.org/1999/xlink" width="2000" zoomAndPan="magnify" viewBox="0 0 1500 1499.999933" height="2000" preserveAspectRatio="xMidYMid meet" version="1.0"><path fill="#8ac9fe" d="M 346.746094 824.683594 L 805.71875 824.683594 C 818.25 824.683594 827.527344 813.328125 825.023438 801.046875 C 801.425781 685.234375 699.011719 598.085938 576.234375 598.085938 C 453.449219 598.085938 351.035156 685.234375 327.4375 801.046875 C 324.941406 813.324219 334.21875 824.683594 346.746094 824.683594 Z M 346.746094 824.683594 " fill-opacity="1" fill-rule="evenodd"/><path fill="#60b7ff" d="M 760.84375 824.679688 L 805.71875 824.679688 C 818.25 824.679688 827.527344 813.324219 825.023438 801.042969 C 801.425781 685.230469 699.011719 598.082031 576.234375 598.082031 C 568.671875 598.082031 561.1875 598.417969 553.796875 599.066406 C 666.453125 608.929688 758.007812 692.363281 780.152344 801.046875 C 782.65625 813.324219 773.378906 824.679688 760.84375 824.679688 Z M 760.84375 824.679688 " fill-opacity="1" fill-rule="evenodd"/><path fill="#ffe177" d="M 594.554688 598.746094 C 588.503906 598.316406 582.394531 598.082031 576.234375 598.082031 C 570.070312 598.082031 563.960938 598.3125 557.910156 598.746094 L 516.957031 727.5 C 515.175781 733.105469 516.234375 738.753906 519.929688 743.332031 L 570.941406 806.53125 C 573.664062 809.902344 578.804688 809.902344 581.523438 806.53125 L 632.535156 743.332031 C 636.230469 738.753906 637.292969 733.105469 635.507812 727.5 Z M 594.554688 598.746094 " fill-opacity="1" fill-rule="evenodd"/><path fill="#ffd064" d="M 594.554688 598.746094 C 588.503906 598.316406 582.394531 598.082031 576.234375 598.082031 C 573.285156 598.082031 570.347656 598.136719 567.421875 598.238281 C 570.609375 598.34375 573.78125 598.519531 576.9375 598.742188 L 617.886719 727.5 C 619.671875 733.105469 618.609375 738.753906 614.914062 743.332031 L 567.421875 802.171875 L 570.941406 806.53125 C 573.664062 809.902344 578.804688 809.902344 581.523438 806.53125 L 632.535156 743.332031 C 636.230469 738.753906 637.292969 733.105469 635.507812 727.5 Z M 594.554688 598.746094 " fill-opacity="1" fill-rule="evenodd"/><path fill="#ffd064" d="M 594.554688 598.746094 L 594.484375 598.742188 C 593.753906 598.691406 593.019531 598.640625 592.289062 598.59375 C 591.027344 598.515625 589.761719 598.441406 588.5 598.386719 L 586.980469 598.316406 C 585.398438 598.25 583.808594 598.195312 582.21875 598.15625 L 581.777344 598.144531 C 579.933594 598.105469 578.085938 598.082031 576.234375 598.082031 L 574.792969 598.082031 L 574.503906 598.085938 L 574.464844 598.085938 L 574.210938 598.089844 L 573.757812 598.089844 L 573.636719 598.09375 L 573.402344 598.097656 L 573.347656 598.097656 L 573.058594 598.105469 L 572.773438 598.105469 L 572.484375 598.109375 L 572.34375 598.113281 L 572.199219 598.117188 L 571.636719 598.125 L 571.621094 598.125 C 567.019531 598.210938 562.449219 598.421875 557.910156 598.746094 L 557.683594 599.445312 C 571.160156 600.832031 584.316406 603.273438 597.082031 606.6875 Z M 594.554688 598.746094 " fill-opacity="1" fill-rule="evenodd"/><path fill="#ffc338" d="M 594.554688 598.746094 L 594.484375 598.742188 C 593.753906 598.691406 593.019531 598.640625 592.289062 598.59375 C 591.027344 598.515625 589.761719 598.441406 588.5 598.386719 L 586.980469 598.316406 C 585.398438 598.25 583.808594 598.195312 582.21875 598.15625 L 581.777344 598.144531 C 579.933594 598.105469 578.085938 598.082031 576.234375 598.082031 L 574.808594 598.082031 L 574.707031 598.085938 L 574.011719 598.085938 L 573.742188 598.089844 L 573.597656 598.089844 L 573.460938 598.09375 L 573.183594 598.097656 L 573.046875 598.101562 L 572.910156 598.101562 L 572.496094 598.105469 L 572.355469 598.109375 L 572.328125 598.109375 L 571.269531 598.128906 L 571.253906 598.128906 L 571.117188 598.132812 C 569.878906 598.15625 568.644531 598.191406 567.40625 598.234375 C 570.59375 598.34375 573.765625 598.515625 576.921875 598.738281 L 578.082031 602.386719 C 584.496094 603.582031 590.832031 605.015625 597.066406 606.683594 Z M 594.554688 598.746094 " fill-opacity="1" fill-rule="evenodd"/><path fill="#f6dccd" d="M 605.765625 314.582031 C 607.8125 315.0625 609.84375 315.597656 611.863281 316.179688 C 613.878906 316.761719 615.882812 317.394531 617.871094 318.074219 C 619.859375 318.753906 621.828125 319.484375 623.78125 320.261719 C 625.730469 321.039062 627.664062 321.867188 629.574219 322.738281 C 631.484375 323.609375 633.375 324.53125 635.242188 325.496094 C 637.105469 326.460938 638.949219 327.46875 640.765625 328.527344 C 642.582031 329.582031 644.371094 330.679688 646.132812 331.824219 C 647.898438 332.96875 649.628906 334.152344 651.335938 335.382812 C 653.039062 336.609375 654.710938 337.882812 656.355469 339.191406 C 657.996094 340.503906 659.605469 341.851562 661.179688 343.242188 C 662.757812 344.632812 664.296875 346.058594 665.800781 347.523438 C 667.308594 348.992188 668.777344 350.492188 670.210938 352.03125 C 671.640625 353.566406 673.035156 355.136719 674.390625 356.746094 C 675.742188 358.351562 677.058594 359.988281 678.332031 361.660156 C 679.605469 363.328125 680.839844 365.03125 682.03125 366.761719 C 683.222656 368.492188 684.371094 370.25 685.472656 372.039062 C 686.578125 373.824219 687.636719 375.640625 688.652344 377.480469 C 689.667969 379.316406 690.636719 381.179688 691.5625 383.066406 C 692.488281 384.953125 693.363281 386.863281 694.195312 388.792969 C 695.023438 390.722656 695.804688 392.671875 696.542969 394.640625 C 697.277344 396.609375 697.960938 398.59375 698.597656 400.597656 C 699.234375 402.597656 699.824219 404.617188 700.363281 406.648438 C 700.898438 408.675781 701.386719 410.71875 701.824219 412.777344 C 702.261719 414.832031 702.648438 416.894531 702.988281 418.96875 C 703.324219 421.042969 703.609375 423.125 703.84375 425.210938 C 704.078125 427.300781 704.257812 429.390625 704.390625 431.488281 C 704.523438 433.585938 704.601562 435.683594 704.632812 437.785156 C 704.660156 439.886719 704.636719 441.988281 704.5625 444.085938 C 704.488281 446.1875 704.359375 448.28125 704.183594 450.375 C 704.007812 452.46875 703.777344 454.558594 703.496094 456.640625 C 703.21875 458.722656 702.886719 460.796875 702.503906 462.863281 C 702.121094 464.929688 701.691406 466.984375 701.207031 469.027344 C 700.722656 471.074219 700.191406 473.105469 699.609375 475.125 C 699.027344 477.140625 698.394531 479.144531 697.714844 481.132812 C 697.03125 483.121094 696.304688 485.089844 695.527344 487.042969 C 694.746094 488.996094 693.921875 490.925781 693.050781 492.835938 C 692.179688 494.75 691.257812 496.636719 690.292969 498.503906 C 689.328125 500.371094 688.316406 502.210938 687.261719 504.027344 C 686.207031 505.84375 685.105469 507.632812 683.964844 509.394531 C 682.820312 511.160156 681.632812 512.890625 680.40625 514.597656 C 679.175781 516.300781 677.90625 517.972656 676.597656 519.617188 C 675.285156 521.257812 673.9375 522.867188 672.546875 524.441406 C 671.15625 526.019531 669.730469 527.558594 668.261719 529.066406 C 666.796875 530.570312 665.296875 532.039062 663.757812 533.472656 C 662.222656 534.902344 660.648438 536.296875 659.042969 537.652344 C 657.4375 539.007812 655.800781 540.320312 654.128906 541.59375 C 652.457031 542.871094 650.757812 544.101562 649.027344 545.292969 C 647.296875 546.484375 645.535156 547.632812 643.75 548.734375 C 641.960938 549.839844 640.148438 550.902344 638.308594 551.914062 C 636.46875 552.929688 634.605469 553.902344 632.71875 554.824219 C 630.832031 555.75 628.925781 556.625 626.996094 557.457031 C 625.066406 558.285156 623.117188 559.070312 621.148438 559.804688 C 619.179688 560.539062 617.191406 561.222656 615.191406 561.859375 C 613.1875 562.5 611.171875 563.085938 609.140625 563.625 C 607.109375 564.160156 605.066406 564.648438 603.011719 565.085938 C 600.957031 565.523438 598.894531 565.914062 596.820312 566.25 C 594.746094 566.585938 592.664062 566.871094 590.578125 567.105469 C 588.488281 567.339844 586.394531 567.523438 584.300781 567.652344 C 582.203125 567.785156 580.105469 567.863281 578.003906 567.894531 C 575.902344 567.921875 573.800781 567.898438 571.703125 567.824219 C 569.601562 567.75 567.503906 567.625 565.414062 567.445312 C 563.320312 567.269531 561.230469 567.039062 559.148438 566.757812 C 557.066406 566.480469 554.992188 566.148438 552.925781 565.765625 C 550.859375 565.382812 548.804688 564.953125 546.761719 564.46875 C 544.714844 563.988281 542.683594 563.453125 540.664062 562.871094 C 538.644531 562.289062 536.644531 561.65625 534.65625 560.976562 C 532.667969 560.292969 530.699219 559.566406 528.746094 558.789062 C 526.792969 558.011719 524.863281 557.183594 522.953125 556.3125 C 521.039062 555.441406 519.152344 554.519531 517.285156 553.554688 C 515.417969 552.589844 513.578125 551.582031 511.761719 550.523438 C 509.945312 549.46875 508.15625 548.371094 506.390625 547.226562 C 504.628906 546.082031 502.894531 544.898438 501.191406 543.667969 C 499.488281 542.441406 497.8125 541.167969 496.171875 539.859375 C 494.53125 538.546875 492.921875 537.199219 491.34375 535.808594 C 489.769531 534.417969 488.230469 532.992188 486.722656 531.527344 C 485.21875 530.058594 483.75 528.558594 482.316406 527.019531 C 480.886719 525.484375 479.492188 523.910156 478.136719 522.304688 C 476.78125 520.699219 475.46875 519.0625 474.191406 517.390625 C 472.917969 515.722656 471.6875 514.019531 470.496094 512.289062 C 469.304688 510.558594 468.15625 508.800781 467.050781 507.011719 C 465.949219 505.226562 464.886719 503.410156 463.871094 501.570312 C 462.855469 499.734375 461.886719 497.871094 460.964844 495.984375 C 460.039062 494.09375 459.164062 492.1875 458.332031 490.257812 C 457.5 488.328125 456.71875 486.378906 455.984375 484.410156 C 455.25 482.441406 454.5625 480.457031 453.925781 478.453125 C 453.289062 476.453125 452.703125 474.433594 452.164062 472.402344 C 451.625 470.371094 451.136719 468.332031 450.699219 466.273438 C 450.261719 464.21875 449.875 462.15625 449.539062 460.082031 C 449.203125 458.007812 448.917969 455.925781 448.683594 453.839844 C 448.449219 451.75 448.265625 449.660156 448.136719 447.5625 C 448.003906 445.464844 447.921875 443.367188 447.894531 441.265625 C 447.867188 439.164062 447.890625 437.0625 447.964844 434.964844 C 448.039062 432.863281 448.164062 430.769531 448.34375 428.675781 C 448.519531 426.582031 448.75 424.492188 449.027344 422.410156 C 449.308594 420.328125 449.640625 418.253906 450.023438 416.1875 C 450.402344 414.121094 450.835938 412.066406 451.320312 410.023438 C 451.800781 407.976562 452.335938 405.945312 452.917969 403.925781 C 453.5 401.910156 454.132812 399.90625 454.8125 397.917969 C 455.492188 395.929688 456.222656 393.960938 457 392.007812 C 457.777344 390.054688 458.601562 388.125 459.476562 386.214844 C 460.347656 384.300781 461.265625 382.414062 462.230469 380.546875 C 463.199219 378.679688 464.207031 376.839844 465.261719 375.023438 C 466.320312 373.207031 467.417969 371.417969 468.5625 369.65625 C 469.707031 367.890625 470.890625 366.160156 472.121094 364.453125 C 473.347656 362.75 474.617188 361.078125 475.929688 359.433594 C 477.238281 357.792969 478.589844 356.183594 479.980469 354.609375 C 481.371094 353.03125 482.796875 351.492188 484.261719 349.984375 C 485.726562 348.480469 487.230469 347.011719 488.765625 345.578125 C 490.304688 344.148438 491.875 342.753906 493.480469 341.398438 C 495.089844 340.042969 496.726562 338.730469 498.398438 337.457031 C 500.066406 336.179688 501.769531 334.949219 503.5 333.757812 C 505.230469 332.566406 506.988281 331.417969 508.777344 330.316406 C 510.5625 329.210938 512.375 328.148438 514.214844 327.136719 C 516.054688 326.121094 517.917969 325.148438 519.804688 324.226562 C 521.691406 323.300781 523.601562 322.425781 525.53125 321.59375 C 527.460938 320.765625 529.410156 319.980469 531.378906 319.246094 C 533.347656 318.511719 535.332031 317.828125 537.335938 317.191406 C 539.335938 316.550781 541.351562 315.964844 543.382812 315.425781 C 545.414062 314.890625 547.457031 314.402344 549.511719 313.964844 C 551.566406 313.523438 553.632812 313.136719 555.707031 312.800781 C 557.78125 312.464844 559.863281 312.179688 561.949219 311.945312 C 564.039062 311.710938 566.128906 311.527344 568.226562 311.398438 C 570.324219 311.265625 572.421875 311.183594 574.523438 311.15625 C 576.625 311.128906 578.722656 311.152344 580.824219 311.226562 C 582.921875 311.300781 585.019531 311.425781 587.113281 311.605469 C 589.207031 311.78125 591.296875 312.011719 593.378906 312.292969 C 595.460938 312.570312 597.535156 312.902344 599.601562 313.285156 C 601.667969 313.667969 603.722656 314.097656 605.765625 314.582031 Z M 605.765625 314.582031 " fill-opacity="1" fill-rule="nonzero"/><path fill="#f1cbbc" d="M 576.234375 311.082031 C 647.136719 311.082031 704.617188 368.558594 704.617188 439.460938 C 704.617188 510.363281 647.136719 567.839844 576.234375 567.839844 C 570.167969 567.839844 564.195312 567.40625 558.351562 566.59375 C 620.785156 557.890625 668.847656 504.292969 668.847656 439.460938 C 668.847656 374.632812 620.785156 321.035156 558.351562 312.328125 C 564.195312 311.511719 570.164062 311.082031 576.234375 311.082031 Z M 576.234375 311.082031 " fill-opacity="1" fill-rule="evenodd"/><path fill="#eceff1" d="M 1151.46875 553.179688 C 1165.101562 553.179688 1176.222656 564.300781 1176.222656 577.933594 L 1176.222656 1033.425781 C 1176.222656 1047.058594 1165.101562 1058.183594 1151.46875 1058.183594 L 770.242188 1058.183594 C 756.605469 1058.183594 745.484375 1047.0625 745.484375 1033.425781 L 745.484375 577.933594 C 745.484375 564.300781 756.605469 553.175781 770.242188 553.175781 L 1151.46875 553.175781 Z M 1151.46875 553.179688 " fill-opacity="1" fill-rule="evenodd"/><path fill="#d1d1d6" d="M 1151.46875 553.179688 C 1165.101562 553.179688 1176.222656 564.300781 1176.222656 577.933594 L 1176.222656 1033.425781 C 1176.222656 1047.058594 1165.101562 1058.183594 1151.46875 1058.183594 L 1115.359375 1058.183594 L 1115.359375 553.179688 Z M 1151.46875 553.179688 " fill-opacity="1" fill-rule="evenodd"/><path fill="#a79ba7" d="M 1151.46875 528.984375 C 1164.960938 528.984375 1177.203125 534.476562 1186.0625 543.339844 C 1194.917969 552.195312 1200.414062 564.4375 1200.414062 577.933594 L 1200.414062 1033.425781 C 1200.414062 1046.921875 1194.921875 1059.164062 1186.0625 1068.023438 C 1177.203125 1076.882812 1164.960938 1082.375 1151.46875 1082.375 L 770.242188 1082.375 C 756.746094 1082.375 744.5 1076.886719 735.644531 1068.023438 C 726.785156 1059.167969 721.292969 1046.925781 721.292969 1033.425781 L 721.292969 577.933594 C 721.292969 564.4375 726.78125 552.195312 735.644531 543.335938 C 744.5 534.476562 756.742188 528.984375 770.242188 528.984375 Z M 1151.851562 577.546875 C 1151.742188 577.4375 1151.605469 577.371094 1151.46875 577.371094 L 770.242188 577.371094 C 770.101562 577.371094 769.960938 577.441406 769.855469 577.546875 C 769.746094 577.65625 769.679688 577.796875 769.679688 577.933594 L 769.679688 1033.425781 C 769.679688 1033.5625 769.75 1033.703125 769.855469 1033.808594 C 769.964844 1033.917969 770.105469 1033.984375 770.242188 1033.984375 L 1151.464844 1033.984375 C 1151.605469 1033.984375 1151.738281 1033.914062 1151.847656 1033.808594 C 1151.957031 1033.699219 1152.023438 1033.558594 1152.023438 1033.425781 L 1152.023438 577.933594 C 1152.027344 577.796875 1151.957031 577.65625 1151.851562 577.546875 Z M 1151.851562 577.546875 " fill-opacity="1" fill-rule="evenodd"/><path fill="#837683" d="M 1151.46875 528.984375 C 1164.960938 528.984375 1177.203125 534.476562 1186.0625 543.339844 C 1194.917969 552.195312 1200.414062 564.4375 1200.414062 577.933594 L 1200.414062 1033.425781 C 1200.414062 1046.921875 1194.921875 1059.164062 1186.0625 1068.023438 C 1177.203125 1076.882812 1164.960938 1082.375 1151.46875 1082.375 L 1115.359375 1082.375 L 1115.359375 1033.988281 L 1151.46875 1033.988281 C 1151.605469 1033.988281 1151.742188 1033.921875 1151.851562 1033.8125 C 1151.960938 1033.707031 1152.027344 1033.566406 1152.027344 1033.429688 L 1152.027344 577.933594 C 1152.027344 577.792969 1151.957031 577.65625 1151.851562 577.546875 C 1151.742188 577.4375 1151.605469 577.371094 1151.46875 577.371094 L 1115.359375 577.371094 L 1115.359375 528.984375 Z M 1151.46875 528.984375 " fill-opacity="1" fill-rule="evenodd"/><path fill="#a79ba7" d="M 843.941406 685.113281 C 830.578125 685.113281 819.746094 674.28125 819.746094 660.917969 C 819.746094 647.558594 830.578125 636.726562 843.941406 636.726562 L 1077.769531 636.726562 C 1091.128906 636.726562 1101.960938 647.558594 1101.960938 660.917969 C 1101.960938 674.28125 1091.128906 685.113281 1077.769531 685.113281 Z M 843.941406 1006.8125 C 830.578125 1006.8125 819.746094 995.980469 819.746094 982.621094 C 819.746094 969.261719 830.578125 958.425781 843.941406 958.425781 L 1077.769531 958.425781 C 1091.128906 958.425781 1101.960938 969.261719 1101.960938 982.621094 C 1101.960938 995.980469 1091.128906 1006.8125 1077.769531 1006.8125 Z M 843.941406 926.390625 C 830.578125 926.390625 819.746094 915.554688 819.746094 902.195312 C 819.746094 888.835938 830.578125 878 843.941406 878 L 1077.769531 878 C 1091.128906 878 1101.960938 888.835938 1101.960938 902.195312 C 1101.960938 915.554688 1091.128906 926.390625 1077.769531 926.390625 Z M 843.941406 845.964844 C 830.578125 845.964844 819.746094 835.132812 819.746094 821.769531 C 819.746094 808.410156 830.578125 797.578125 843.941406 797.578125 L 1077.769531 797.578125 C 1091.128906 797.578125 1101.960938 808.410156 1101.960938 821.769531 C 1101.960938 835.132812 1091.128906 845.964844 1077.769531 845.964844 Z M 843.941406 765.539062 C 830.578125 765.539062 819.746094 754.707031 819.746094 741.34375 C 819.746094 727.984375 830.578125 717.152344 843.941406 717.152344 L 1077.769531 717.152344 C 1091.128906 717.152344 1101.960938 727.984375 1101.960938 741.34375 C 1101.960938 754.707031 1091.128906 765.539062 1077.769531 765.539062 Z M 843.941406 765.539062 " fill-opacity="1" fill-rule="evenodd"/><path fill="#f1ba84" d="M 874.621094 521 L 919.949219 521 C 924.402344 502.535156 941.027344 488.820312 960.855469 488.820312 C 980.683594 488.820312 997.3125 502.535156 1001.765625 521 L 1047.089844 521 C 1052.085938 521 1056.164062 525.074219 1056.164062 530.070312 L 1056.164062 576.289062 C 1056.164062 581.285156 1052.085938 585.363281 1047.089844 585.363281 L 874.625 585.363281 C 869.628906 585.363281 865.550781 581.285156 865.550781 576.289062 L 865.550781 530.070312 C 865.546875 525.074219 869.621094 521 874.621094 521 Z M 874.621094 521 " fill-opacity="1" fill-rule="evenodd"/><path fill="#e3a76f" d="M 1042.121094 521 L 1047.085938 521 C 1052.082031 521 1056.160156 525.074219 1056.160156 530.070312 L 1056.160156 576.289062 C 1056.160156 581.285156 1052.082031 585.363281 1047.085938 585.363281 L 874.621094 585.363281 C 869.625 585.363281 865.546875 581.285156 865.546875 576.289062 L 865.546875 570.488281 L 1033.050781 570.488281 C 1038.046875 570.488281 1042.125 566.410156 1042.125 561.414062 L 1042.125 521 Z M 1042.121094 521 " fill-opacity="1" fill-rule="evenodd"/><path fill="#a79ba7" d="M 750 0 C 957.101562 0 1144.601562 83.949219 1280.324219 219.671875 C 1416.050781 355.398438 1500 542.898438 1500 750 C 1500 957.101562 1416.050781 1144.601562 1280.328125 1280.328125 C 1144.601562 1416.050781 957.101562 1500 750 1500 C 542.898438 1500 355.398438 1416.050781 219.671875 1280.328125 C 83.949219 1144.601562 0 957.101562 0 750 C 0 542.898438 83.949219 355.398438 219.671875 219.675781 C 355.398438 83.949219 542.898438 0 750 0 Z M 1246.117188 253.882812 C 1119.152344 126.917969 943.746094 48.386719 750 48.386719 C 556.253906 48.386719 380.847656 126.917969 253.882812 253.882812 C 126.917969 380.847656 48.386719 556.253906 48.386719 750 C 48.386719 943.746094 126.917969 1119.152344 253.882812 1246.117188 C 380.847656 1373.082031 556.253906 1451.613281 750 1451.613281 C 943.746094 1451.613281 1119.152344 1373.082031 1246.117188 1246.117188 C 1373.082031 1119.152344 1451.613281 943.746094 1451.613281 750 C 1451.613281 556.253906 1373.082031 380.847656 1246.117188 253.882812 Z M 1246.117188 253.882812 " fill-opacity="1" fill-rule="evenodd"/><path fill="#ffe177" d="M 422.429688 456.929688 C 627.5 456.929688 730.039062 456.929688 730.039062 456.929688 C 741.378906 456.929688 750.65625 447.65625 750.65625 436.320312 C 750.65625 424.980469 741.382812 415.707031 730.039062 415.707031 L 725.886719 415.707031 C 726.1875 411.835938 726.339844 407.925781 726.339844 403.980469 C 726.339844 337.210938 682.738281 280.636719 622.457031 261.144531 C 624.722656 237.519531 595.691406 230.109375 576.234375 230.117188 C 556.78125 230.109375 527.75 237.519531 530.015625 261.144531 C 469.734375 280.636719 426.128906 337.210938 426.128906 403.980469 C 426.128906 407.925781 426.289062 411.835938 426.585938 415.707031 L 422.429688 415.707031 C 411.09375 415.707031 401.820312 424.980469 401.820312 436.320312 C 401.8125 447.65625 411.089844 456.929688 422.429688 456.929688 Z M 422.429688 456.929688 " fill-opacity="1" fill-rule="evenodd"/><path fill="#ffd064" d="M 708.335938 456.933594 L 730.039062 456.933594 C 741.378906 456.933594 750.65625 447.660156 750.65625 436.320312 C 750.65625 424.984375 741.382812 415.707031 730.039062 415.707031 L 725.886719 415.707031 C 726.183594 411.839844 726.339844 407.929688 726.339844 403.984375 C 726.339844 337.210938 682.738281 280.640625 622.457031 261.148438 C 624.722656 237.527344 595.691406 230.109375 576.234375 230.121094 C 572.835938 230.117188 569.144531 230.34375 565.378906 230.84375 C 583.167969 233.199219 602.609375 241.652344 600.742188 261.148438 C 661.023438 280.640625 704.628906 337.210938 704.628906 403.984375 C 704.628906 407.929688 704.472656 411.839844 704.171875 415.707031 L 708.328125 415.707031 C 719.664062 415.707031 728.941406 424.984375 728.941406 436.320312 C 728.9375 447.652344 719.667969 456.925781 708.335938 456.933594 Z M 708.335938 456.933594 " fill-opacity="1" fill-rule="evenodd"/><path fill="#ffd064" d="M 562.410156 341.140625 C 573.476562 341.140625 582.691406 341.140625 590.0625 341.140625 C 602.738281 341.140625 613.292969 331.867188 614.925781 319.296875 L 622.347656 262.121094 C 625.519531 237.6875 595.910156 231.457031 576.234375 230.117188 C 556.558594 231.457031 526.949219 237.6875 530.121094 262.121094 L 537.546875 319.296875 C 539.175781 331.867188 549.734375 341.140625 562.410156 341.140625 Z M 562.410156 341.140625 " fill-opacity="1" fill-rule="evenodd"/><path fill="#ffc338" d="M 562.40625 341.140625 C 573.476562 341.140625 582.691406 341.140625 590.058594 341.140625 C 602.734375 341.140625 613.292969 331.867188 614.921875 319.300781 L 622.34375 262.125 C 623.84375 250.585938 618.03125 243.113281 609.410156 238.289062 C 610.089844 240.980469 610.273438 243.976562 609.835938 247.316406 L 602.414062 304.492188 C 600.78125 317.058594 590.226562 326.335938 577.550781 326.335938 C 570.183594 326.335938 560.964844 326.335938 549.898438 326.335938 C 545.796875 326.335938 541.917969 325.363281 538.492188 323.621094 C 541.710938 333.9375 551.238281 341.140625 562.40625 341.140625 Z M 562.40625 341.140625 " fill-opacity="1" fill-rule="evenodd"/><path fill="#ffc338" d="M 422.429688 415.707031 C 411.089844 415.707031 401.816406 424.980469 401.816406 436.320312 C 401.816406 447.65625 411.089844 456.929688 422.429688 456.929688 C 524.964844 456.929688 627.5 456.929688 730.039062 456.929688 C 741.378906 456.929688 750.65625 447.65625 750.65625 436.320312 C 750.65625 424.980469 741.382812 415.707031 730.039062 415.707031 C 627.503906 415.707031 524.964844 415.707031 422.429688 415.707031 Z M 422.429688 415.707031 " fill-opacity="1" fill-rule="evenodd"/><path fill="#ffd064" d="M 401.816406 436.320312 C 401.816406 447.660156 411.089844 456.933594 422.429688 456.933594 C 524.964844 456.933594 627.5 456.933594 730.039062 456.933594 C 741.378906 456.933594 750.65625 447.660156 750.65625 436.320312 Z M 401.816406 436.320312 " fill-opacity="1" fill-rule="evenodd"/><path fill="#d8ecfe" d="M 639.609375 1255.734375 L 580.351562 1289.949219 L 328.828125 854.296875 L 282.949219 821.804688 L 252.289062 721.734375 L 311.550781 687.519531 L 382.886719 764.109375 L 388.089844 820.082031 Z M 639.609375 1255.734375 " fill-opacity="1" fill-rule="evenodd"/><path fill="#c4e2ff" d="M 639.609375 1255.734375 L 616.582031 1269.03125 L 365.058594 833.378906 L 359.859375 777.402344 L 288.523438 700.8125 L 311.550781 687.519531 L 382.886719 764.109375 L 388.089844 820.082031 Z M 639.609375 1255.734375 " fill-opacity="1" fill-rule="evenodd"/><path fill="#f1ba84" d="M 723.503906 1356.226562 L 625.433594 1412.847656 C 620.367188 1415.773438 613.828125 1414.023438 610.90625 1408.957031 L 475.289062 1174.0625 C 469.542969 1164.109375 472.984375 1151.265625 482.9375 1145.515625 L 563.238281 1099.152344 C 573.191406 1093.40625 586.035156 1096.847656 591.78125 1106.800781 L 727.398438 1341.695312 C 730.320312 1346.765625 728.570312 1353.300781 723.503906 1356.226562 Z M 723.503906 1356.226562 " fill-opacity="1" fill-rule="evenodd"/><path fill="#e3a76f" d="M 723.503906 1356.226562 L 625.433594 1412.847656 C 620.363281 1415.773438 613.828125 1414.023438 610.90625 1408.953125 L 602.925781 1395.136719 L 687.179688 1346.492188 C 692.246094 1343.566406 694 1337.027344 691.074219 1331.960938 L 558.304688 1102 L 563.238281 1099.152344 C 573.191406 1093.40625 586.035156 1096.847656 591.785156 1106.800781 L 727.398438 1341.695312 C 730.320312 1346.765625 728.570312 1353.300781 723.503906 1356.226562 Z M 723.503906 1356.226562 " fill-opacity="1" fill-rule="evenodd"/><path fill="#9facba" d="M 137.855469 991.386719 C 98.75 996.335938 58.683594 977.980469 37.738281 941.707031 C 18.074219 907.640625 20.523438 866.875 40.636719 836.039062 L 91.371094 923.914062 L 144.007812 923.914062 L 170.320312 878.335938 L 119.585938 790.457031 C 156.347656 788.457031 192.878906 806.71875 212.546875 840.78125 C 233.492188 877.0625 229.351562 920.933594 205.515625 952.328125 L 391.652344 1274.722656 C 430.757812 1269.777344 470.820312 1288.128906 491.765625 1324.40625 C 511.433594 1358.472656 508.980469 1399.238281 488.871094 1430.074219 L 438.136719 1342.199219 L 385.503906 1342.199219 L 359.191406 1387.777344 L 409.921875 1475.652344 C 373.160156 1477.652344 336.632812 1459.394531 316.960938 1425.328125 C 296.015625 1389.050781 300.152344 1345.175781 323.992188 1313.785156 Z M 137.855469 991.386719 " fill-opacity="1" fill-rule="evenodd"/><path fill="#8d9ca8" d="M 115.21875 991.679688 C 114.75 991.632812 114.285156 991.585938 113.816406 991.53125 C 114.226562 991.488281 114.636719 991.4375 115.050781 991.386719 Z M 30.105469 857.296875 C 32.757812 849.855469 36.285156 842.710938 40.640625 836.035156 L 91.375 923.914062 L 121.199219 923.914062 L 68.566406 923.914062 Z M 120.457031 791.964844 C 148.570312 797.109375 174.328125 814.089844 189.742188 840.78125 C 210.6875 877.058594 206.546875 920.929688 182.710938 952.324219 L 369.011719 1275.007812 C 376.574219 1274.050781 384.164062 1273.964844 391.648438 1274.710938 L 205.515625 952.324219 C 229.351562 920.933594 233.492188 877.058594 212.546875 840.78125 C 192.878906 806.71875 156.347656 788.457031 119.585938 790.457031 Z M 392.878906 1274.578125 C 431.589844 1270.164062 471.035156 1288.503906 491.761719 1324.402344 C 511.429688 1358.46875 508.976562 1399.234375 488.863281 1430.070312 L 476.589844 1408.8125 C 486.195312 1381.894531 484.367188 1351.09375 468.957031 1324.402344 C 452.3125 1295.578125 423.597656 1278.070312 392.878906 1274.578125 Z M 385.496094 1342.195312 L 362.691406 1342.195312 L 336.378906 1387.773438 L 386.242188 1474.144531 C 394.011719 1475.5625 401.960938 1476.085938 409.921875 1475.648438 L 359.183594 1387.773438 Z M 385.496094 1342.195312 " fill-opacity="1" fill-rule="evenodd"/><path fill="#ffe177" d="M 1294.511719 61.710938 C 1314.5 66.46875 1333.585938 74.390625 1351.078125 85.160156 L 1387.839844 68.835938 L 1431.164062 112.160156 L 1414.839844 148.910156 C 1425.617188 166.402344 1433.539062 185.5 1438.296875 205.492188 L 1475.800781 219.925781 L 1475.800781 281.191406 L 1438.289062 295.628906 C 1433.53125 315.617188 1425.609375 334.707031 1414.835938 352.199219 L 1431.160156 388.957031 L 1387.835938 432.28125 L 1351.089844 415.960938 C 1333.59375 426.734375 1314.496094 434.660156 1294.507812 439.414062 L 1280.070312 476.917969 L 1218.804688 476.917969 L 1204.367188 439.40625 C 1184.378906 434.648438 1165.292969 426.726562 1147.800781 415.953125 L 1111.039062 432.277344 L 1067.714844 388.953125 L 1084.039062 352.207031 C 1073.261719 334.710938 1065.339844 315.613281 1060.582031 295.625 L 1023.078125 281.191406 L 1023.078125 219.917969 L 1060.585938 205.480469 C 1065.34375 185.496094 1073.269531 166.402344 1084.039062 148.90625 L 1067.714844 112.15625 L 1111.039062 68.832031 L 1147.800781 85.15625 C 1165.292969 74.382812 1184.382812 66.460938 1204.367188 61.707031 L 1218.808594 24.195312 L 1280.074219 24.195312 Z M 1294.511719 61.710938 " fill-opacity="1" fill-rule="evenodd"/><path fill="#ffd064" d="M 1147.796875 415.960938 L 1111.039062 432.285156 L 1105.375 426.625 L 1139.839844 411.320312 C 1142.457031 412.929688 1145.109375 414.476562 1147.796875 415.960938 Z M 1294.511719 61.710938 C 1314.5 66.46875 1333.585938 74.390625 1351.078125 85.160156 L 1340.632812 89.804688 C 1323.140625 79.03125 1296.09375 66.46875 1276.105469 61.710938 L 1261.667969 24.199219 L 1280.070312 24.199219 Z M 1351.089844 415.960938 C 1333.597656 426.738281 1314.5 434.660156 1294.507812 439.417969 L 1280.074219 476.921875 L 1261.671875 476.921875 L 1276.105469 439.417969 C 1296.097656 434.660156 1323.148438 422.09375 1340.644531 411.320312 Z M 1105.378906 74.496094 L 1111.039062 68.832031 L 1147.800781 85.160156 C 1145.113281 86.640625 1142.460938 88.1875 1139.84375 89.800781 Z M 1375.09375 74.496094 L 1387.839844 68.832031 L 1431.164062 112.160156 L 1414.839844 148.90625 C 1425.617188 166.398438 1433.539062 185.496094 1438.296875 205.488281 L 1475.800781 219.921875 L 1475.800781 281.191406 L 1438.289062 295.628906 C 1433.53125 315.613281 1425.609375 334.703125 1414.835938 352.195312 L 1431.160156 388.953125 L 1387.835938 432.277344 L 1375.089844 426.621094 L 1412.753906 388.957031 L 1396.425781 352.199219 C 1407.199219 334.703125 1415.121094 315.617188 1419.878906 295.628906 L 1457.390625 281.191406 L 1457.390625 219.925781 L 1419.890625 205.492188 C 1415.132812 185.5 1407.207031 166.402344 1396.433594 148.910156 L 1412.753906 112.160156 Z M 1375.09375 74.496094 " fill-opacity="1" fill-rule="evenodd"/><path fill="#eceff1" d="M 1356.285156 250.558594 C 1356.285156 252.308594 1356.242188 254.054688 1356.15625 255.804688 C 1356.070312 257.550781 1355.941406 259.292969 1355.769531 261.03125 C 1355.597656 262.773438 1355.382812 264.507812 1355.128906 266.238281 C 1354.871094 267.96875 1354.570312 269.691406 1354.230469 271.40625 C 1353.890625 273.121094 1353.507812 274.824219 1353.082031 276.523438 C 1352.65625 278.21875 1352.191406 279.902344 1351.683594 281.574219 C 1351.175781 283.25 1350.628906 284.910156 1350.039062 286.554688 C 1349.449219 288.203125 1348.820312 289.832031 1348.152344 291.449219 C 1347.480469 293.0625 1346.773438 294.660156 1346.027344 296.242188 C 1345.277344 297.824219 1344.492188 299.382812 1343.667969 300.925781 C 1342.84375 302.46875 1341.980469 303.988281 1341.082031 305.488281 C 1340.183594 306.988281 1339.25 308.464844 1338.277344 309.921875 C 1337.304688 311.375 1336.300781 312.804688 1335.257812 314.207031 C 1334.214844 315.613281 1333.140625 316.992188 1332.03125 318.34375 C 1330.921875 319.695312 1329.78125 321.015625 1328.605469 322.3125 C 1327.433594 323.609375 1326.226562 324.875 1324.988281 326.109375 C 1323.753906 327.347656 1322.488281 328.554688 1321.191406 329.726562 C 1319.894531 330.902344 1318.574219 332.042969 1317.222656 333.152344 C 1315.871094 334.261719 1314.492188 335.335938 1313.085938 336.378906 C 1311.683594 337.421875 1310.253906 338.425781 1308.800781 339.398438 C 1307.34375 340.371094 1305.867188 341.304688 1304.367188 342.203125 C 1302.867188 343.101562 1301.347656 343.964844 1299.804688 344.789062 C 1298.261719 345.613281 1296.703125 346.398438 1295.121094 347.148438 C 1293.539062 347.894531 1291.941406 348.601562 1290.328125 349.273438 C 1288.710938 349.941406 1287.082031 350.570312 1285.433594 351.160156 C 1283.789062 351.75 1282.128906 352.296875 1280.453125 352.804688 C 1278.78125 353.3125 1277.097656 353.777344 1275.402344 354.203125 C 1273.703125 354.628906 1272 355.011719 1270.285156 355.351562 C 1268.570312 355.691406 1266.847656 355.992188 1265.117188 356.25 C 1263.386719 356.503906 1261.652344 356.71875 1259.910156 356.890625 C 1258.171875 357.0625 1256.429688 357.191406 1254.683594 357.277344 C 1252.933594 357.363281 1251.1875 357.40625 1249.4375 357.40625 C 1247.691406 357.40625 1245.941406 357.363281 1244.195312 357.277344 C 1242.449219 357.191406 1240.707031 357.0625 1238.964844 356.890625 C 1237.226562 356.71875 1235.492188 356.503906 1233.761719 356.25 C 1232.03125 355.992188 1230.308594 355.691406 1228.59375 355.351562 C 1226.878906 355.011719 1225.175781 354.628906 1223.476562 354.203125 C 1221.78125 353.777344 1220.097656 353.3125 1218.425781 352.804688 C 1216.75 352.296875 1215.089844 351.75 1213.445312 351.160156 C 1211.796875 350.570312 1210.167969 349.941406 1208.550781 349.273438 C 1206.9375 348.601562 1205.335938 347.894531 1203.757812 347.148438 C 1202.175781 346.398438 1200.613281 345.613281 1199.074219 344.789062 C 1197.53125 343.964844 1196.011719 343.101562 1194.511719 342.203125 C 1193.011719 341.304688 1191.535156 340.371094 1190.078125 339.398438 C 1188.625 338.425781 1187.195312 337.421875 1185.792969 336.378906 C 1184.386719 335.335938 1183.007812 334.261719 1181.65625 333.152344 C 1180.304688 332.042969 1178.984375 330.902344 1177.6875 329.726562 C 1176.390625 328.554688 1175.125 327.347656 1173.886719 326.109375 C 1172.652344 324.875 1171.445312 323.609375 1170.273438 322.3125 C 1169.097656 321.015625 1167.957031 319.695312 1166.847656 318.34375 C 1165.738281 316.992188 1164.664062 315.613281 1163.621094 314.207031 C 1162.578125 312.804688 1161.574219 311.375 1160.601562 309.921875 C 1159.628906 308.464844 1158.695312 306.988281 1157.796875 305.488281 C 1156.894531 303.988281 1156.035156 302.46875 1155.210938 300.925781 C 1154.386719 299.382812 1153.601562 297.824219 1152.851562 296.242188 C 1152.105469 294.660156 1151.398438 293.0625 1150.726562 291.449219 C 1150.058594 289.832031 1149.429688 288.203125 1148.839844 286.554688 C 1148.25 284.910156 1147.703125 283.25 1147.195312 281.574219 C 1146.6875 279.902344 1146.222656 278.21875 1145.796875 276.523438 C 1145.371094 274.824219 1144.988281 273.121094 1144.648438 271.40625 C 1144.304688 269.691406 1144.007812 267.96875 1143.75 266.238281 C 1143.496094 264.507812 1143.28125 262.773438 1143.109375 261.03125 C 1142.9375 259.292969 1142.808594 257.550781 1142.722656 255.804688 C 1142.636719 254.054688 1142.59375 252.308594 1142.59375 250.558594 C 1142.59375 248.8125 1142.636719 247.0625 1142.722656 245.316406 C 1142.808594 243.570312 1142.9375 241.828125 1143.109375 240.085938 C 1143.28125 238.347656 1143.496094 236.613281 1143.75 234.882812 C 1144.007812 233.152344 1144.304688 231.429688 1144.648438 229.714844 C 1144.988281 228 1145.371094 226.296875 1145.796875 224.597656 C 1146.222656 222.902344 1146.6875 221.21875 1147.195312 219.546875 C 1147.703125 217.871094 1148.25 216.210938 1148.839844 214.566406 C 1149.429688 212.917969 1150.058594 211.289062 1150.726562 209.671875 C 1151.398438 208.058594 1152.105469 206.460938 1152.851562 204.878906 C 1153.601562 203.296875 1154.386719 201.734375 1155.210938 200.195312 C 1156.035156 198.652344 1156.894531 197.132812 1157.796875 195.632812 C 1158.695312 194.132812 1159.628906 192.65625 1160.601562 191.199219 C 1161.574219 189.746094 1162.578125 188.316406 1163.621094 186.914062 C 1164.664062 185.507812 1165.738281 184.128906 1166.847656 182.777344 C 1167.957031 181.425781 1169.097656 180.101562 1170.273438 178.808594 C 1171.445312 177.511719 1172.652344 176.246094 1173.886719 175.011719 C 1175.125 173.773438 1176.390625 172.566406 1177.6875 171.394531 C 1178.984375 170.21875 1180.304688 169.078125 1181.65625 167.96875 C 1183.007812 166.859375 1184.386719 165.785156 1185.792969 164.742188 C 1187.195312 163.699219 1188.625 162.695312 1190.078125 161.722656 C 1191.535156 160.75 1193.011719 159.816406 1194.511719 158.917969 C 1196.011719 158.019531 1197.53125 157.15625 1199.074219 156.332031 C 1200.617188 155.507812 1202.175781 154.722656 1203.757812 153.972656 C 1205.339844 153.226562 1206.9375 152.519531 1208.550781 151.847656 C 1210.167969 151.179688 1211.796875 150.550781 1213.445312 149.960938 C 1215.089844 149.371094 1216.75 148.824219 1218.425781 148.316406 C 1220.097656 147.808594 1221.78125 147.34375 1223.476562 146.917969 C 1225.175781 146.492188 1226.878906 146.109375 1228.59375 145.769531 C 1230.308594 145.425781 1232.03125 145.128906 1233.761719 144.871094 C 1235.492188 144.617188 1237.226562 144.402344 1238.96875 144.230469 C 1240.707031 144.058594 1242.449219 143.929688 1244.195312 143.84375 C 1245.941406 143.757812 1247.691406 143.714844 1249.4375 143.714844 C 1251.1875 143.714844 1252.933594 143.757812 1254.683594 143.84375 C 1256.429688 143.929688 1258.171875 144.058594 1259.910156 144.230469 C 1261.652344 144.402344 1263.386719 144.617188 1265.117188 144.871094 C 1266.847656 145.128906 1268.570312 145.425781 1270.285156 145.769531 C 1272 146.109375 1273.703125 146.492188 1275.398438 146.917969 C 1277.097656 147.34375 1278.78125 147.808594 1280.453125 148.316406 C 1282.128906 148.824219 1283.789062 149.371094 1285.433594 149.960938 C 1287.082031 150.550781 1288.710938 151.179688 1290.328125 151.847656 C 1291.941406 152.519531 1293.539062 153.226562 1295.121094 153.972656 C 1296.703125 154.722656 1298.261719 155.507812 1299.804688 156.332031 C 1301.347656 157.15625 1302.867188 158.019531 1304.367188 158.917969 C 1305.867188 159.816406 1307.34375 160.75 1308.800781 161.722656 C 1310.253906 162.695312 1311.683594 163.699219 1313.085938 164.742188 C 1314.492188 165.785156 1315.871094 166.859375 1317.222656 167.96875 C 1318.574219 169.078125 1319.894531 170.21875 1321.191406 171.394531 C 1322.488281 172.566406 1323.753906 173.773438 1324.988281 175.011719 C 1326.226562 176.246094 1327.433594 177.511719 1328.605469 178.808594 C 1329.78125 180.101562 1330.921875 181.425781 1332.03125 182.777344 C 1333.140625 184.128906 1334.214844 185.507812 1335.257812 186.914062 C 1336.300781 188.316406 1337.304688 189.746094 1338.277344 191.199219 C 1339.25 192.65625 1340.183594 194.132812 1341.082031 195.632812 C 1341.980469 197.132812 1342.84375 198.652344 1343.667969 200.195312 C 1344.492188 201.734375 1345.277344 203.296875 1346.027344 204.878906 C 1346.773438 206.460938 1347.480469 208.058594 1348.152344 209.671875 C 1348.820312 211.289062 1349.449219 212.917969 1350.039062 214.566406 C 1350.628906 216.210938 1351.175781 217.871094 1351.683594 219.546875 C 1352.191406 221.21875 1352.65625 222.902344 1353.082031 224.597656 C 1353.507812 226.296875 1353.890625 228 1354.230469 229.714844 C 1354.570312 231.429688 1354.871094 233.152344 1355.128906 234.882812 C 1355.382812 236.613281 1355.597656 238.347656 1355.769531 240.085938 C 1355.941406 241.828125 1356.070312 243.570312 1356.15625 245.316406 C 1356.242188 247.0625 1356.285156 248.8125 1356.285156 250.558594 Z M 1356.285156 250.558594 " fill-opacity="1" fill-rule="nonzero"/><path fill="#d1d1d6" d="M 1249.4375 143.714844 C 1190.421875 143.714844 1142.589844 191.546875 1142.589844 250.5625 C 1142.589844 309.578125 1190.421875 357.410156 1249.4375 357.410156 C 1252.296875 357.410156 1255.132812 357.292969 1257.933594 357.074219 C 1202.894531 352.742188 1159.585938 306.714844 1159.585938 250.5625 C 1159.585938 194.410156 1202.894531 148.386719 1257.933594 144.054688 C 1255.132812 143.832031 1252.300781 143.714844 1249.4375 143.714844 Z M 1249.4375 143.714844 " fill-opacity="1" fill-rule="evenodd"/></svg>