<svg xmlns="http://www.w3.org/2000/svg" xmlns:xlink="http://www.w3.org/1999/xlink" width="2000" zoomAndPan="magnify" viewBox="0 0 1500 1499.999933" height="2000" preserveAspectRatio="xMidYMid meet" version="1.0"><defs><clipPath id="7327a4826d"><path d="M 1447 172 L 1495.5 172 L 1495.5 295 L 1447 295 Z M 1447 172 " clip-rule="nonzero"/></clipPath></defs><path fill="#4ada85" d="M 569.039062 561.003906 C 541.90625 573.492188 509.769531 561.632812 497.273438 534.496094 C 484.773438 507.355469 496.640625 475.238281 523.78125 462.738281 C 550.914062 450.238281 583.054688 462.101562 595.550781 489.238281 C 608.042969 516.375 596.183594 548.5 569.039062 561.003906 Z M 661.871094 482.3125 L 643.929688 443.351562 L 619.636719 454.535156 C 613.417969 446.59375 606.050781 439.84375 597.890625 434.433594 L 607.152344 409.335938 L 566.90625 394.476562 L 557.636719 419.566406 C 547.90625 418.371094 537.925781 418.710938 528.039062 420.710938 L 516.855469 396.425781 L 477.886719 414.367188 L 489.070312 438.660156 C 481.125 444.863281 474.378906 452.230469 468.960938 460.402344 L 443.867188 451.140625 L 429.003906 491.375 L 454.097656 500.644531 C 452.90625 510.375 453.238281 520.355469 455.238281 530.238281 L 430.683594 542.816406 L 448.898438 580.382812 L 473.183594 569.199219 C 479.398438 577.144531 486.769531 583.890625 494.9375 589.3125 L 485.671875 614.398438 L 525.917969 629.257812 L 535.183594 604.171875 C 544.914062 605.359375 554.898438 605.023438 564.789062 603.027344 L 575.964844 627.316406 L 614.933594 609.367188 L 603.75 585.085938 C 611.691406 578.871094 618.441406 571.503906 623.859375 563.339844 L 648.953125 572.605469 L 663.820312 532.359375 L 638.730469 523.097656 C 639.914062 513.371094 639.585938 503.378906 637.578125 493.5 L 661.871094 482.3125 " fill-opacity="1" fill-rule="nonzero"/><path fill="#8c7bff" d="M 735.136719 1.8125 L 1380.828125 1.8125 C 1434.886719 1.8125 1478.710938 45.609375 1478.710938 99.640625 L 1478.710938 1400.355469 C 1478.710938 1454.386719 1434.886719 1498.191406 1380.828125 1498.191406 L 735.136719 1498.191406 C 681.078125 1498.191406 637.253906 1454.386719 637.253906 1400.355469 L 637.253906 99.640625 C 637.253906 45.609375 681.078125 1.8125 735.136719 1.8125 " fill-opacity="1" fill-rule="nonzero"/><g clip-path="url(#7327a4826d)"><path fill="#000000" d="M 1447.355469 172.078125 L 1495.550781 172.078125 L 1495.550781 294.972656 L 1447.355469 294.972656 L 1447.355469 172.078125 " fill-opacity="1" fill-rule="nonzero"/></g><path fill="#ffffff" d="M 1447.347656 172.082031 L 1470.480469 172.082031 L 1470.480469 294.984375 L 1447.347656 294.984375 L 1447.347656 172.082031 " fill-opacity="1" fill-rule="nonzero"/><path fill="#000000" d="M 1449.160156 293.179688 L 1468.667969 293.179688 L 1468.667969 173.890625 L 1449.160156 173.890625 Z M 1472.289062 296.785156 L 1445.542969 296.785156 L 1445.542969 170.277344 L 1472.289062 170.277344 L 1472.289062 296.785156 " fill-opacity="1" fill-rule="nonzero"/><path fill="#ffffff" d="M 683.875 1.8125 L 1329.574219 1.8125 C 1383.621094 1.8125 1427.449219 45.609375 1427.449219 99.640625 L 1427.449219 1400.355469 C 1427.449219 1454.386719 1383.621094 1498.191406 1329.574219 1498.191406 L 683.875 1498.191406 C 629.816406 1498.191406 585.992188 1454.386719 585.992188 1400.355469 L 585.992188 99.640625 C 585.992188 45.609375 629.816406 1.8125 683.875 1.8125 " fill-opacity="1" fill-rule="nonzero"/><path fill="#000000" d="M 585.992188 986.695312 C 585.003906 986.695312 584.191406 985.882812 584.191406 984.882812 L 584.191406 597.46875 C 584.191406 596.46875 585.003906 595.65625 585.992188 595.65625 C 586.996094 595.65625 587.804688 596.46875 587.804688 597.46875 L 587.804688 984.882812 C 587.804688 985.882812 586.996094 986.695312 585.992188 986.695312 " fill-opacity="1" fill-rule="nonzero"/><path fill="#000000" d="M 1328.496094 1499.992188 L 684.953125 1499.992188 C 629.390625 1499.992188 584.191406 1454.8125 584.191406 1399.277344 L 584.191406 984.882812 C 584.191406 983.882812 585 983.078125 585.992188 983.078125 C 586.992188 983.078125 587.804688 983.882812 587.804688 984.882812 L 587.804688 1399.277344 C 587.804688 1452.820312 631.382812 1496.378906 684.953125 1496.378906 L 1328.496094 1496.378906 C 1382.054688 1496.378906 1425.640625 1452.820312 1425.640625 1399.277344 L 1425.640625 100.722656 C 1425.640625 47.183594 1382.054688 3.621094 1328.496094 3.621094 L 684.953125 3.621094 C 654.585938 3.621094 626.511719 17.429688 607.953125 41.507812 C 607.339844 42.292969 606.207031 42.449219 605.421875 41.835938 C 604.625 41.226562 604.480469 40.09375 605.09375 39.300781 C 624.34375 14.335938 653.449219 0.0078125 684.953125 0.0078125 L 1328.496094 0.0078125 C 1384.046875 0.0078125 1429.257812 45.1875 1429.257812 100.722656 L 1429.257812 1399.277344 C 1429.257812 1454.8125 1384.046875 1499.992188 1328.496094 1499.992188 " fill-opacity="1" fill-rule="nonzero"/><path fill="#000000" d="M 585.992188 194.285156 C 585 194.285156 584.191406 193.476562 584.191406 192.484375 L 584.191406 100.71875 C 584.191406 78.277344 591.421875 57.039062 605.09375 39.304688 C 605.699219 38.515625 606.828125 38.367188 607.625 38.972656 C 608.414062 39.582031 608.5625 40.722656 607.953125 41.507812 C 594.773438 58.605469 587.804688 79.078125 587.804688 100.71875 L 587.804688 192.484375 C 587.804688 193.476562 586.992188 194.285156 585.992188 194.285156 " fill-opacity="1" fill-rule="nonzero"/><path fill="#000000" d="M 585.992188 599.277344 C 585 599.277344 584.191406 598.457031 584.191406 597.476562 L 584.191406 188.019531 C 584.191406 187.023438 585 186.214844 585.992188 186.214844 C 586.992188 186.214844 587.804688 187.023438 587.804688 188.019531 L 587.804688 597.476562 C 587.804688 598.457031 586.992188 599.277344 585.992188 599.277344 " fill-opacity="1" fill-rule="nonzero"/><path fill="#000000" d="M 1067.617188 42.179688 L 902.441406 42.179688 C 901.441406 42.179688 900.628906 41.367188 900.628906 40.378906 C 900.628906 39.378906 901.441406 38.566406 902.441406 38.566406 L 1067.617188 38.566406 C 1068.617188 38.566406 1069.425781 39.378906 1069.425781 40.378906 C 1069.425781 41.367188 1068.617188 42.179688 1067.617188 42.179688 " fill-opacity="1" fill-rule="nonzero"/><path fill="#000000" d="M 1096.835938 30.039062 C 1091.128906 30.039062 1086.496094 34.671875 1086.496094 40.375 C 1086.496094 46.070312 1091.128906 50.714844 1096.835938 50.714844 C 1102.542969 50.714844 1107.183594 46.070312 1107.183594 40.375 C 1107.183594 34.671875 1102.542969 30.039062 1096.835938 30.039062 Z M 1096.835938 54.328125 C 1089.144531 54.328125 1082.878906 48.066406 1082.878906 40.375 C 1082.878906 32.683594 1089.144531 26.421875 1096.835938 26.421875 C 1104.535156 26.421875 1110.800781 32.683594 1110.800781 40.375 C 1110.800781 48.066406 1104.535156 54.328125 1096.835938 54.328125 " fill-opacity="1" fill-rule="nonzero"/><path fill="#000000" d="M 1242.238281 630.828125 L 1242.21875 630.828125 L 1242.21875 458.515625 L 1242.238281 458.515625 C 1272.757812 458.515625 1297.496094 483.246094 1297.496094 513.765625 L 1297.496094 575.578125 C 1297.496094 606.085938 1272.757812 630.828125 1242.238281 630.828125 " fill-opacity="1" fill-rule="nonzero"/><path fill="#000000" d="M 807.609375 630.828125 L 807.617188 630.828125 L 807.617188 458.511719 L 807.609375 458.511719 C 777.089844 458.511719 752.339844 483.257812 752.339844 513.773438 L 752.339844 575.574219 C 752.339844 606.089844 777.089844 630.828125 807.609375 630.828125 " fill-opacity="1" fill-rule="nonzero"/><path fill="#fcb503" d="M 1139.566406 314.257812 L 1149.601562 150.34375 L 1154.527344 150.34375 L 1163.355469 314.257812 L 1139.566406 314.257812 " fill-opacity="1" fill-rule="nonzero"/><path fill="#fed101" d="M 1137.476562 314.257812 L 1147.546875 150.34375 L 1151.894531 150.34375 L 1153.925781 314.257812 L 1137.476562 314.257812 " fill-opacity="1" fill-rule="nonzero"/><path fill="#000000" d="M 1175.929688 355.695312 L 1123.261719 355.695312 L 1123.261719 303.066406 L 1175.929688 303.066406 L 1175.929688 355.695312 " fill-opacity="1" fill-rule="nonzero"/><path fill="#000000" d="M 1167.191406 154.589844 C 1167.191406 163.679688 1159.824219 171.035156 1150.746094 171.035156 C 1141.65625 171.035156 1134.296875 163.679688 1134.296875 154.589844 C 1134.296875 145.515625 1141.65625 138.15625 1150.746094 138.15625 C 1159.824219 138.15625 1167.191406 145.515625 1167.191406 154.589844 " fill-opacity="1" fill-rule="nonzero"/><path fill="#fed101" d="M 1271.414062 544.601562 C 1271.414062 680.234375 1161.394531 790.183594 1025.695312 790.183594 C 889.992188 790.183594 779.984375 680.234375 779.984375 544.601562 C 779.984375 477.59375 780.117188 299.015625 780.117188 299.015625 C 780.117188 299.015625 957.035156 299.015625 1025.695312 299.015625 C 1161.394531 299.015625 1271.414062 408.960938 1271.414062 544.601562 " fill-opacity="1" fill-rule="nonzero"/><path fill="#fed101" d="M 1271.414062 544.601562 C 1271.414062 680.234375 1161.394531 790.183594 1025.695312 790.183594 C 889.992188 790.183594 779.984375 680.234375 779.984375 544.601562 C 779.984375 477.59375 780.117188 299.015625 780.117188 299.015625 C 780.117188 299.015625 957.035156 299.015625 1025.695312 299.015625 C 1161.394531 299.015625 1271.414062 408.960938 1271.414062 544.601562 " fill-opacity="1" fill-rule="nonzero"/><path fill="#ffffff" d="M 987.699219 688.925781 C 1005.003906 704.792969 1027.296875 715.511719 1052.441406 718.0625 C 1108.515625 723.765625 1159.058594 687.335938 1172.960938 634.46875 L 987.699219 688.925781 " fill-opacity="1" fill-rule="nonzero"/><path fill="#000000" d="M 1155.199219 586.699219 L 897.027344 586.699219 C 858.570312 586.699219 827.394531 555.523438 827.394531 517.070312 L 827.394531 516.976562 C 827.394531 478.527344 858.570312 447.355469 897.027344 447.355469 L 1155.199219 447.355469 C 1193.652344 447.355469 1224.835938 478.527344 1224.835938 516.976562 L 1224.835938 517.070312 C 1224.835938 555.523438 1193.652344 586.699219 1155.199219 586.699219 " fill-opacity="1" fill-rule="nonzero"/><path fill="#ffffff" d="M 1185.390625 517.019531 C 1185.390625 538.640625 1167.886719 556.15625 1146.289062 556.15625 C 1124.6875 556.15625 1107.183594 538.640625 1107.183594 517.019531 C 1107.183594 495.402344 1124.6875 477.882812 1146.289062 477.882812 C 1167.886719 477.882812 1185.390625 495.402344 1185.390625 517.019531 " fill-opacity="1" fill-rule="nonzero"/><path fill="#000000" d="M 1146.285156 488.070312 C 1130.332031 488.070312 1117.34375 501.0625 1117.34375 517.027344 C 1117.34375 533.003906 1130.332031 545.988281 1146.285156 545.988281 C 1162.234375 545.988281 1175.210938 533.003906 1175.210938 517.027344 C 1175.210938 501.0625 1162.234375 488.070312 1146.285156 488.070312 Z M 1146.285156 549.605469 C 1128.34375 549.605469 1113.738281 534.996094 1113.738281 517.027344 C 1113.738281 499.070312 1128.34375 484.453125 1146.285156 484.453125 C 1164.226562 484.453125 1178.828125 499.070312 1178.828125 517.027344 C 1178.828125 534.996094 1164.226562 549.605469 1146.285156 549.605469 " fill-opacity="1" fill-rule="nonzero"/><path fill="#ffffff" d="M 949.640625 517.027344 C 949.640625 538.640625 932.132812 556.164062 910.539062 556.164062 C 888.949219 556.164062 871.433594 538.640625 871.433594 517.027344 C 871.433594 495.410156 888.949219 477.886719 910.539062 477.886719 C 932.132812 477.886719 949.640625 495.410156 949.640625 517.027344 " fill-opacity="1" fill-rule="nonzero"/><path fill="#000000" d="M 910.925781 488.058594 C 894.972656 488.058594 881.984375 501.050781 881.984375 517.027344 C 881.984375 532.992188 894.972656 545.988281 910.925781 545.988281 C 926.878906 545.988281 939.851562 532.992188 939.851562 517.027344 C 939.851562 501.050781 926.878906 488.058594 910.925781 488.058594 Z M 910.925781 549.601562 C 892.980469 549.601562 878.371094 534.984375 878.371094 517.027344 C 878.371094 499.066406 892.980469 484.453125 910.925781 484.453125 C 928.871094 484.453125 943.46875 499.066406 943.46875 517.027344 C 943.46875 534.984375 928.871094 549.601562 910.925781 549.601562 " fill-opacity="1" fill-rule="nonzero"/><path fill="#ffffff" d="M 1347.148438 982.46875 C 1347.148438 1022.03125 1315.097656 1054.097656 1275.550781 1054.097656 C 1236.015625 1054.097656 1203.953125 1022.03125 1203.953125 982.46875 C 1203.953125 942.910156 1236.015625 910.847656 1275.550781 910.847656 C 1315.097656 910.847656 1347.148438 942.910156 1347.148438 982.46875 " fill-opacity="1" fill-rule="nonzero"/><path fill="#000000" d="M 1275.554688 912.644531 C 1237.078125 912.644531 1205.769531 943.964844 1205.769531 982.464844 C 1205.769531 1020.972656 1237.078125 1052.292969 1275.554688 1052.292969 C 1314.042969 1052.292969 1345.355469 1020.972656 1345.355469 982.464844 C 1345.355469 943.964844 1314.042969 912.644531 1275.554688 912.644531 Z M 1275.554688 1055.90625 C 1235.085938 1055.90625 1202.160156 1022.964844 1202.160156 982.464844 C 1202.160156 941.972656 1235.085938 909.03125 1275.554688 909.03125 C 1316.039062 909.03125 1348.96875 941.972656 1348.96875 982.464844 C 1348.96875 1022.964844 1316.039062 1055.90625 1275.554688 1055.90625 " fill-opacity="1" fill-rule="nonzero"/><path fill="#fed101" d="M 1275.554688 987.300781 C 1255.039062 987.300781 1236.269531 994.828125 1221.863281 1007.257812 C 1231.230469 1027.546875 1251.75 1041.628906 1275.554688 1041.628906 C 1299.371094 1041.628906 1319.890625 1027.546875 1329.257812 1007.257812 C 1314.84375 994.828125 1296.082031 987.300781 1275.554688 987.300781 " fill-opacity="1" fill-rule="nonzero"/><path fill="#fed101" d="M 1295.636719 957.015625 C 1295.636719 968.113281 1286.648438 977.105469 1275.554688 977.105469 C 1264.46875 977.105469 1255.476562 968.113281 1255.476562 957.015625 C 1255.476562 945.925781 1264.46875 936.925781 1275.554688 936.925781 C 1286.648438 936.925781 1295.636719 945.925781 1295.636719 957.015625 " fill-opacity="1" fill-rule="nonzero"/><path fill="#ffffff" d="M 686.816406 1241.121094 C 686.816406 1280.675781 718.878906 1312.746094 758.414062 1312.746094 C 797.960938 1312.746094 830.015625 1280.675781 830.015625 1241.121094 C 830.015625 1201.5625 797.960938 1169.488281 758.414062 1169.488281 C 718.878906 1169.488281 686.816406 1201.5625 686.816406 1241.121094 " fill-opacity="1" fill-rule="nonzero"/><path fill="#000000" d="M 758.414062 1171.289062 C 719.933594 1171.289062 688.625 1202.617188 688.625 1241.121094 C 688.625 1279.617188 719.933594 1310.945312 758.414062 1310.945312 C 796.902344 1310.945312 828.210938 1279.617188 828.210938 1241.121094 C 828.210938 1202.617188 796.902344 1171.289062 758.414062 1171.289062 Z M 758.414062 1314.554688 C 717.941406 1314.554688 685.015625 1281.609375 685.015625 1241.121094 C 685.015625 1200.625 717.941406 1167.683594 758.414062 1167.683594 C 798.894531 1167.683594 831.828125 1200.625 831.828125 1241.121094 C 831.828125 1281.609375 798.894531 1314.554688 758.414062 1314.554688 " fill-opacity="1" fill-rule="nonzero"/><path fill="#000000" d="M 798.535156 1268.085938 L 798.535156 1236.273438 C 804.164062 1236.273438 808.742188 1240.835938 808.742188 1246.480469 L 808.742188 1257.886719 C 808.742188 1263.519531 804.164062 1268.085938 798.535156 1268.085938 " fill-opacity="1" fill-rule="nonzero"/><path fill="#000000" d="M 718.304688 1268.085938 L 718.304688 1236.273438 C 712.671875 1236.273438 708.097656 1240.835938 708.097656 1246.480469 L 708.097656 1257.886719 C 708.097656 1263.519531 712.664062 1268.085938 718.304688 1268.085938 " fill-opacity="1" fill-rule="nonzero"/><path fill="#fed101" d="M 803.917969 1252.164062 C 803.917969 1277.207031 783.613281 1297.503906 758.5625 1297.503906 C 733.507812 1297.503906 713.203125 1277.207031 713.203125 1252.164062 C 713.203125 1239.796875 713.230469 1206.832031 713.230469 1206.832031 C 713.230469 1206.832031 745.890625 1206.832031 758.5625 1206.832031 C 783.613281 1206.832031 803.917969 1227.128906 803.917969 1252.164062 " fill-opacity="1" fill-rule="nonzero"/><path fill="#fed101" d="M 803.917969 1252.164062 C 803.917969 1277.207031 783.613281 1297.503906 758.5625 1297.503906 C 733.507812 1297.503906 713.203125 1277.207031 713.203125 1252.164062 C 713.203125 1239.796875 713.230469 1206.832031 713.230469 1206.832031 C 713.230469 1206.832031 745.890625 1206.832031 758.5625 1206.832031 C 783.613281 1206.832031 803.917969 1227.128906 803.917969 1252.164062 " fill-opacity="1" fill-rule="nonzero"/><path fill="#ffffff" d="M 751.542969 1278.8125 C 754.742188 1281.742188 758.859375 1283.714844 763.496094 1284.191406 C 773.851562 1285.242188 783.183594 1278.519531 785.746094 1268.757812 L 751.542969 1278.8125 " fill-opacity="1" fill-rule="nonzero"/><path fill="#8c7bff" d="M 667.074219 951.304688 L 1118.402344 951.304688 L 1118.402344 977.109375 L 667.074219 977.109375 L 667.074219 951.304688 " fill-opacity="1" fill-rule="nonzero"/><path fill="#8c7bff" d="M 667.074219 1013.769531 L 1057.984375 1013.769531 L 1057.984375 1039.570312 L 667.074219 1039.570312 L 667.074219 1013.769531 " fill-opacity="1" fill-rule="nonzero"/><path fill="#8c7bff" d="M 895.828125 1167.691406 L 1347.148438 1167.691406 L 1347.148438 1193.496094 L 895.828125 1193.496094 L 895.828125 1167.691406 " fill-opacity="1" fill-rule="nonzero"/><path fill="#8c7bff" d="M 895.828125 1230.160156 L 1347.148438 1230.160156 L 1347.148438 1255.972656 L 895.828125 1255.972656 L 895.828125 1230.160156 " fill-opacity="1" fill-rule="nonzero"/><path fill="#8c7bff" d="M 895.828125 1289.164062 L 1172.960938 1289.164062 L 1172.960938 1314.96875 L 895.828125 1314.96875 L 895.828125 1289.164062 " fill-opacity="1" fill-rule="nonzero"/><path fill="#000000" d="M 513.136719 828.554688 L 704.492188 828.554688 L 789.933594 701.449219 L 598.578125 701.449219 Z M 706.417969 832.171875 L 506.355469 832.171875 L 596.660156 697.835938 L 796.714844 697.835938 L 706.417969 832.171875 " fill-opacity="1" fill-rule="nonzero"/><path fill="#000000" d="M 400.109375 846.023438 L 703.351562 846.023438 L 703.351562 832.171875 L 400.109375 832.171875 Z M 706.960938 849.628906 L 396.496094 849.628906 L 396.496094 828.554688 L 706.960938 828.554688 L 706.960938 849.628906 " fill-opacity="1" fill-rule="nonzero"/><path fill="#000000" d="M 648.4375 760.910156 C 643.375 760.910156 639.269531 765.03125 639.269531 770.105469 C 639.269531 775.179688 643.375 779.304688 648.4375 779.304688 C 653.492188 779.304688 657.601562 775.179688 657.601562 770.105469 C 657.601562 765.03125 653.492188 760.910156 648.4375 760.910156 Z M 648.4375 782.917969 C 641.382812 782.917969 635.65625 777.171875 635.65625 770.105469 C 635.65625 763.039062 641.382812 757.292969 648.4375 757.292969 C 655.484375 757.292969 661.214844 763.039062 661.214844 770.105469 C 661.214844 777.171875 655.484375 782.917969 648.4375 782.917969 " fill-opacity="1" fill-rule="nonzero"/><path fill="#8c7bff" d="M 245.109375 1471.519531 L 221.851562 1471.519531 C 220.855469 1471.519531 220.042969 1470.707031 220.042969 1469.707031 L 220.042969 1007.414062 C 220.042969 1006.421875 220.855469 1005.613281 221.851562 1005.613281 C 222.847656 1005.613281 223.65625 1006.421875 223.65625 1007.414062 L 223.65625 1467.902344 L 243.304688 1467.902344 L 243.304688 1008.53125 C 243.304688 1007.53125 244.113281 1006.71875 245.109375 1006.71875 C 246.109375 1006.71875 246.917969 1007.53125 246.917969 1008.53125 L 246.917969 1469.707031 C 246.917969 1470.707031 246.109375 1471.519531 245.109375 1471.519531 " fill-opacity="1" fill-rule="nonzero"/><path fill="#8c7bff" d="M 83.839844 1495.011719 L 382.371094 1495.011719 L 382.371094 1483.417969 L 244.953125 1471.507812 L 221.851562 1471.519531 L 83.839844 1483.417969 Z M 384.179688 1498.621094 L 82.035156 1498.621094 C 81.035156 1498.621094 80.230469 1497.8125 80.230469 1496.820312 L 80.230469 1481.765625 C 80.230469 1480.828125 80.945312 1480.042969 81.882812 1479.96875 L 221.695312 1467.910156 L 245.109375 1467.902344 L 384.335938 1479.96875 C 385.269531 1480.042969 385.984375 1480.828125 385.984375 1481.765625 L 385.984375 1496.820312 C 385.984375 1497.8125 385.175781 1498.621094 384.179688 1498.621094 " fill-opacity="1" fill-rule="nonzero"/><path fill="#8c7bff" d="M 3.640625 688.484375 L 3.640625 792.710938 C 3.640625 910.433594 96.652344 1006.207031 210.980469 1006.207031 L 520.34375 1006.207031 L 520.34375 995.21875 C 520.34375 919.671875 450.835938 853.398438 371.59375 853.398438 C 371.089844 853.398438 370.625 853.195312 370.296875 852.851562 C 298.132812 846.398438 241.320312 783.882812 241.320312 707.976562 L 241.320312 688.484375 Z M 522.148438 1009.824219 L 210.980469 1009.824219 C 94.660156 1009.824219 0.03125 912.425781 0.03125 792.710938 L 0.03125 686.679688 C 0.03125 685.683594 0.835938 684.867188 1.835938 684.867188 L 243.125 684.867188 C 244.125 684.867188 244.929688 685.683594 244.929688 686.679688 L 244.929688 707.976562 C 244.929688 786.171875 306.707031 849.792969 382.640625 849.792969 C 383.132812 849.792969 383.582031 849.988281 383.90625 850.308594 C 459.828125 856.734375 523.957031 921.695312 523.957031 995.21875 L 523.957031 1008.019531 C 523.957031 1009.011719 523.148438 1009.824219 522.148438 1009.824219 " fill-opacity="1" fill-rule="nonzero"/><path fill="#8c7bff" d="M 243.652344 714.460938 L 232.226562 884.441406 L 118.628906 884.441406 L 130.054688 714.460938 L 243.652344 714.460938 " fill-opacity="1" fill-rule="nonzero"/><path fill="#955b50" d="M 550.726562 1241.871094 L 636.550781 1213.972656 L 693.03125 1388.660156 L 607.210938 1416.558594 L 550.726562 1241.871094 " fill-opacity="1" fill-rule="nonzero"/><path fill="#020202" d="M 652.402344 1262.988281 L 573.410156 1312 L 550.726562 1241.871094 L 636.550781 1213.972656 L 652.402344 1262.988281 " fill-opacity="1" fill-rule="nonzero"/><path fill="#020202" d="M 579.386719 1330.5 L 665.210938 1302.601562 L 693.03125 1388.660156 L 607.210938 1416.558594 L 579.386719 1330.5 " fill-opacity="1" fill-rule="nonzero"/><path fill="#fda4ff" d="M 587.496094 1359.242188 L 586.109375 1360.996094 C 570.246094 1381.050781 570.84375 1398.386719 562.523438 1426.992188 L 668.488281 1465.597656 L 826.980469 1467.589844 L 854.054688 1451.632812 L 844.90625 1429.105469 L 757.25 1400.050781 L 696.980469 1361.816406 L 684.546875 1343.199219 L 667.832031 1343.199219 L 653.804688 1356.320312 L 653.804688 1372.707031 C 637.941406 1382.230469 635.0625 1386.773438 627.1875 1386.773438 C 627.015625 1386.714844 613.832031 1388.042969 609.628906 1375.394531 L 605.308594 1362.386719 C 602.722656 1354.617188 592.566406 1352.820312 587.496094 1359.242188 " fill-opacity="1" fill-rule="nonzero"/><path fill="#020202" d="M 854.054688 1451.632812 L 804.609375 1461.132812 L 673.578125 1458.484375 L 562.523438 1426.992188 L 546.554688 1441.515625 L 539.867188 1478.019531 L 582.582031 1496.804688 C 582.582031 1496.804688 613.316406 1496.671875 652.3125 1496.804688 L 661.746094 1487.464844 L 676.371094 1487.464844 L 685.910156 1496.804688 C 746.855469 1496.976562 812.863281 1496.804688 812.863281 1496.804688 L 848.335938 1478.574219 L 854.054688 1467.492188 L 854.054688 1451.632812 " fill-opacity="1" fill-rule="nonzero"/><path fill="#000000" d="M 694.023438 1384.503906 C 693.449219 1384.503906 692.882812 1384.230469 692.539062 1383.730469 C 691.964844 1382.910156 692.167969 1381.78125 692.988281 1381.214844 L 710.464844 1369.097656 C 711.285156 1368.527344 712.410156 1368.742188 712.976562 1369.558594 C 713.550781 1370.378906 713.34375 1371.5 712.523438 1372.066406 L 695.046875 1384.183594 C 694.738281 1384.402344 694.375 1384.503906 694.023438 1384.503906 " fill-opacity="1" fill-rule="nonzero"/><path fill="#000000" d="M 709.121094 1394.675781 C 708.546875 1394.675781 707.992188 1394.402344 707.636719 1393.894531 C 707.066406 1393.074219 707.269531 1391.953125 708.089844 1391.378906 L 725.566406 1379.265625 C 726.386719 1378.699219 727.511719 1378.902344 728.085938 1379.722656 C 728.648438 1380.542969 728.441406 1381.664062 727.625 1382.238281 L 710.144531 1394.34375 C 709.835938 1394.566406 709.476562 1394.675781 709.121094 1394.675781 " fill-opacity="1" fill-rule="nonzero"/><path fill="#000000" d="M 724.222656 1404.835938 C 723.648438 1404.835938 723.09375 1404.566406 722.738281 1404.058594 C 722.171875 1403.238281 722.378906 1402.117188 723.199219 1401.550781 L 740.667969 1389.4375 C 741.484375 1388.863281 742.609375 1389.070312 743.183594 1389.886719 C 743.75 1390.707031 743.542969 1391.839844 742.726562 1392.402344 L 725.257812 1404.515625 C 724.9375 1404.738281 724.585938 1404.835938 724.222656 1404.835938 " fill-opacity="1" fill-rule="nonzero"/><path fill="#fed101" d="M 558.1875 1290.773438 L 409.4375 880.800781 L 443.339844 868.433594 C 489.527344 851.582031 540.59375 875.472656 557.398438 921.785156 L 675.714844 1247.898438 L 558.1875 1290.773438 " fill-opacity="1" fill-rule="nonzero"/><path fill="#955b50" d="M 314.023438 1167.3125 L 389.058594 1205.964844 L 307.695312 1364.78125 L 232.660156 1326.132812 L 314.023438 1167.3125 " fill-opacity="1" fill-rule="nonzero"/><path fill="#020202" d="M 371.257812 1240.710938 L 276.421875 1240.710938 L 314.023438 1167.3125 L 389.058594 1205.964844 L 371.257812 1240.710938 " fill-opacity="1" fill-rule="nonzero"/><path fill="#020202" d="M 271.5 1250.316406 L 346.535156 1288.96875 L 307.695312 1364.78125 L 232.660156 1326.132812 L 271.5 1250.316406 " fill-opacity="1" fill-rule="nonzero"/><path fill="#fda4ff" d="M 184.988281 1339.90625 C 205.425781 1318.273438 212.789062 1302.574219 236.039062 1292.003906 L 238.070312 1291.078125 C 245.507812 1287.691406 253.726562 1293.9375 252.480469 1302.035156 L 250.402344 1315.59375 C 248.378906 1328.765625 260.707031 1333.625 260.832031 1333.757812 C 267.84375 1337.363281 272.46875 1334.640625 290.914062 1333.445312 L 298.382812 1318.863281 L 316.847656 1313.617188 L 331.710938 1321.273438 L 334.289062 1343.535156 L 373.65625 1403.378906 L 434.515625 1430.460938 L 445.4375 1452.183594 L 419.722656 1469.589844 L 318.949219 1469.589844 L 261.644531 1422.796875 L 184.988281 1339.90625 " fill-opacity="1" fill-rule="nonzero"/><path fill="#000000" d="M 319.59375 1467.789062 L 419.171875 1467.789062 L 443.113281 1451.582031 L 433.191406 1431.855469 L 372.4375 1404.8125 L 332.539062 1344.167969 L 330.03125 1322.4375 L 316.652344 1315.550781 L 299.636719 1320.386719 L 292.054688 1335.175781 L 291.035156 1335.238281 C 285.070312 1335.632812 280.5625 1336.179688 276.9375 1336.617188 C 269.386719 1337.542969 265.226562 1338.042969 260.007812 1335.363281 L 259.945312 1335.328125 C 256.667969 1333.773438 246.675781 1327.945312 248.613281 1315.320312 L 250.695312 1301.765625 C 251.179688 1298.617188 249.957031 1295.589844 247.421875 1293.675781 C 244.90625 1291.773438 241.683594 1291.414062 238.816406 1292.722656 L 236.785156 1293.640625 C 220.570312 1301.019531 212.109375 1311.125 201.398438 1323.910156 C 197.367188 1328.730469 192.835938 1334.140625 187.457031 1339.910156 L 262.882812 1421.476562 Z M 420.277344 1471.402344 L 318.308594 1471.402344 L 260.316406 1424.015625 L 182.515625 1339.890625 L 183.675781 1338.664062 C 189.492188 1332.511719 194.347656 1326.707031 198.628906 1321.601562 C 209.632812 1308.453125 218.328125 1298.078125 235.289062 1290.355469 L 237.320312 1289.4375 C 241.417969 1287.566406 246.007812 1288.078125 249.605469 1290.796875 C 253.210938 1293.527344 254.953125 1297.828125 254.265625 1302.3125 L 252.183594 1315.863281 C 250.660156 1325.796875 258.148438 1330.484375 261.441406 1332.035156 C 261.527344 1332.078125 261.613281 1332.117188 261.695312 1332.164062 C 265.910156 1334.320312 269.238281 1333.921875 276.503906 1333.035156 C 279.960938 1332.617188 284.214844 1332.09375 289.773438 1331.707031 L 297.132812 1317.347656 L 317.035156 1311.683594 L 333.394531 1320.109375 L 336.035156 1342.90625 L 374.875 1401.941406 L 435.835938 1429.074219 L 447.765625 1452.789062 L 420.277344 1471.402344 " fill-opacity="1" fill-rule="nonzero"/><path fill="#020202" d="M 164.164062 1345.511719 L 184.988281 1339.90625 L 269.417969 1418.796875 L 338.9375 1459.707031 L 396 1461.246094 L 445.519531 1452.132812 L 445.394531 1467.992188 L 439.589844 1479.027344 L 403.980469 1496.738281 C 403.980469 1496.738281 383.210938 1497.066406 342.261719 1496.738281 C 342.261719 1496.738281 278.730469 1466.730469 262.917969 1458.535156 L 258.695312 1445.851562 L 245.683594 1439.15625 L 233.039062 1443.140625 C 198.410156 1425.15625 171.015625 1411.191406 171.015625 1411.191406 L 141.582031 1374.910156 L 164.164062 1345.511719 " fill-opacity="1" fill-rule="nonzero"/><path fill="#000000" d="M 322.132812 1362.558594 C 321.242188 1362.558594 320.464844 1361.894531 320.34375 1360.984375 C 320.214844 1360.003906 320.914062 1359.09375 321.898438 1358.960938 L 342.964844 1356.1875 C 343.953125 1356.058594 344.859375 1356.757812 344.992188 1357.75 C 345.121094 1358.742188 344.425781 1359.640625 343.433594 1359.773438 L 322.371094 1362.542969 C 322.289062 1362.550781 322.214844 1362.558594 322.132812 1362.558594 " fill-opacity="1" fill-rule="nonzero"/><path fill="#000000" d="M 330.933594 1378.519531 C 330.039062 1378.519531 329.265625 1377.863281 329.148438 1376.953125 C 329.015625 1375.960938 329.714844 1375.050781 330.699219 1374.917969 L 351.765625 1372.15625 C 352.757812 1372.019531 353.660156 1372.722656 353.789062 1373.707031 C 353.921875 1374.699219 353.222656 1375.609375 352.238281 1375.738281 L 331.171875 1378.503906 C 331.089844 1378.519531 331.011719 1378.519531 330.933594 1378.519531 " fill-opacity="1" fill-rule="nonzero"/><path fill="#000000" d="M 339.734375 1394.484375 C 338.839844 1394.484375 338.066406 1393.820312 337.941406 1392.910156 C 337.816406 1391.917969 338.511719 1391.019531 339.5 1390.886719 L 360.5625 1388.117188 C 361.554688 1387.988281 362.460938 1388.679688 362.589844 1389.671875 C 362.722656 1390.667969 362.023438 1391.566406 361.035156 1391.695312 L 339.96875 1394.46875 C 339.890625 1394.476562 339.808594 1394.484375 339.734375 1394.484375 " fill-opacity="1" fill-rule="nonzero"/><path fill="#fed101" d="M 481.941406 862.21875 L 261.207031 862.21875 L 263.722656 824.835938 L 122.980469 824.835938 L 118.492188 891.121094 C 114.941406 943.941406 156.710938 988.742188 209.503906 988.742188 L 374.410156 988.742188 L 274.285156 1183.660156 L 386.554688 1241.402344 L 535.730469 950.613281 C 556.441406 910.253906 527.210938 862.21875 481.941406 862.21875 " fill-opacity="1" fill-rule="nonzero"/><path fill="#fcb503" d="M 482.121094 862.230469 C 479.792969 868.621094 478.511719 875.523438 478.511719 882.726562 C 478.511719 915.824219 505.265625 942.644531 538.269531 942.644531 C 538.566406 942.644531 538.851562 942.628906 539.144531 942.628906 C 552.523438 904.238281 524.335938 862.34375 482.121094 862.230469 " fill-opacity="1" fill-rule="nonzero"/><path fill="#000000" d="M 261.597656 856.398438 L 263.722656 824.835938 L 122.980469 824.835938 L 119.972656 869.292969 C 141.617188 876.210938 169.847656 873.3125 181.449219 865.867188 C 194.976562 857.1875 222.78125 846.734375 261.597656 856.398438 " fill-opacity="1" fill-rule="nonzero"/><path fill="#000000" d="M 387.339844 1243.835938 L 271.855469 1184.449219 L 371.449219 990.546875 L 209.503906 990.546875 C 183.515625 990.546875 159.417969 980.078125 141.644531 961.074219 C 123.796875 941.988281 114.933594 917.105469 116.6875 891 L 121.179688 824.71875 C 121.246094 823.722656 122.097656 822.964844 123.101562 823.039062 C 124.097656 823.105469 124.851562 823.964844 124.785156 824.957031 L 120.296875 891.246094 C 118.609375 916.335938 127.128906 940.261719 144.28125 958.605469 C 161.367188 976.875 184.527344 986.929688 209.503906 986.929688 L 377.367188 986.929688 L 276.714844 1182.882812 L 385.773438 1238.972656 L 534.125 949.792969 C 543.578125 931.359375 542.777344 909.800781 531.976562 892.121094 C 521.226562 874.53125 502.519531 864.023438 481.941406 864.023438 L 220.929688 864.023438 C 219.933594 864.023438 219.121094 863.21875 219.121094 862.21875 C 219.121094 861.222656 219.933594 860.417969 220.929688 860.417969 L 481.941406 860.417969 C 503.792969 860.417969 523.644531 871.5625 535.058594 890.246094 C 546.523438 909 547.375 931.875 537.339844 951.441406 L 387.339844 1243.835938 " fill-opacity="1" fill-rule="nonzero"/><path fill="#000000" d="M 126.292969 562.492188 C 136.355469 572.851562 136.148438 589.429688 125.824219 599.519531 C 115.5 609.617188 98.96875 609.402344 88.902344 599.050781 C 78.839844 588.699219 79.046875 572.125 89.371094 562.027344 C 99.695312 551.9375 116.226562 552.140625 126.292969 562.492188 " fill-opacity="1" fill-rule="nonzero"/><path fill="#000000" d="M 79.601562 561.902344 C 89.667969 572.253906 89.460938 588.832031 79.136719 598.929688 C 68.808594 609.019531 52.28125 608.8125 42.214844 598.460938 C 32.148438 588.105469 32.359375 571.527344 42.683594 561.4375 C 53.007812 551.347656 69.535156 551.550781 79.601562 561.902344 " fill-opacity="1" fill-rule="nonzero"/><path fill="#000000" d="M 172.980469 563.089844 C 183.046875 573.445312 182.835938 590.019531 172.511719 600.105469 C 162.191406 610.207031 145.660156 609.996094 135.59375 599.640625 C 125.527344 589.289062 125.734375 572.714844 136.058594 562.625 C 146.382812 552.523438 162.914062 552.738281 172.980469 563.089844 " fill-opacity="1" fill-rule="nonzero"/><path fill="#000000" d="M 266.359375 564.28125 C 276.425781 574.632812 276.21875 591.207031 265.890625 601.296875 C 255.566406 611.394531 239.035156 611.183594 228.972656 600.832031 C 218.902344 590.476562 219.117188 573.902344 229.4375 563.804688 C 239.761719 553.714844 256.292969 553.925781 266.359375 564.28125 " fill-opacity="1" fill-rule="nonzero"/><path fill="#000000" d="M 359.738281 565.460938 C 369.800781 575.8125 369.59375 592.386719 359.269531 602.484375 C 348.945312 612.574219 332.414062 612.371094 322.347656 602.019531 C 312.285156 591.664062 312.492188 575.089844 322.816406 564.992188 C 333.144531 554.902344 349.671875 555.109375 359.738281 565.460938 " fill-opacity="1" fill-rule="nonzero"/><path fill="#000000" d="M 313.050781 564.871094 C 323.113281 575.222656 322.90625 591.796875 312.582031 601.894531 C 302.257812 611.984375 285.726562 611.769531 275.660156 601.417969 C 265.59375 591.070312 265.804688 574.492188 276.128906 564.402344 C 286.453125 554.304688 302.980469 554.519531 313.050781 564.871094 " fill-opacity="1" fill-rule="nonzero"/><path fill="#955b50" d="M 196.117188 679.761719 L 158.476562 677.558594 L 163.558594 590.269531 L 201.199219 592.476562 L 196.117188 679.761719 " fill-opacity="1" fill-rule="nonzero"/><path fill="#955b50" d="M 164.179688 590.519531 C 163.023438 610.335938 176.722656 627.265625 194.769531 628.320312 C 212.816406 629.378906 228.386719 614.167969 229.539062 594.347656 C 230.695312 574.519531 217 557.601562 198.949219 556.542969 C 180.898438 555.488281 165.332031 570.699219 164.179688 590.519531 " fill-opacity="1" fill-rule="nonzero"/><path fill="#ffffff" d="M 188.199219 612.25 C 190.4375 614.558594 193.398438 616.207031 196.816406 616.757812 C 204.441406 617.984375 211.640625 613.394531 213.964844 606.265625 L 188.199219 612.25 " fill-opacity="1" fill-rule="nonzero"/><path fill="#000000" d="M 197.121094 630.214844 C 196.5 630.214844 195.878906 630.1875 195.257812 630.15625 C 191.808594 629.953125 188.433594 629.1875 185.234375 627.886719 C 184.308594 627.507812 183.867188 626.453125 184.246094 625.527344 C 184.621094 624.605469 185.679688 624.164062 186.601562 624.542969 C 189.429688 625.699219 192.414062 626.371094 195.46875 626.550781 C 203.515625 627.023438 211.3125 624.007812 217.390625 618.066406 C 223.515625 612.082031 227.175781 603.851562 227.695312 594.894531 C 228.769531 576.460938 216.058594 560.667969 199.359375 559.691406 C 183.792969 558.78125 170.070312 570.914062 167.492188 587.921875 C 167.34375 588.902344 166.417969 589.582031 165.4375 589.433594 C 164.449219 589.289062 163.769531 588.363281 163.921875 587.378906 C 166.777344 568.507812 182.09375 555.050781 199.574219 556.085938 C 218.261719 557.175781 232.492188 574.679688 231.304688 595.097656 C 230.730469 604.960938 226.683594 614.042969 219.914062 620.65625 C 213.566406 626.863281 205.53125 630.214844 197.121094 630.214844 " fill-opacity="1" fill-rule="nonzero"/><path fill="#000000" d="M 199.035156 579.042969 L 229.296875 596.253906 C 229.417969 595.347656 229.535156 594.425781 229.585938 593.492188 C 230.734375 573.757812 217.097656 556.90625 199.125 555.855469 C 181.148438 554.796875 164.449219 570.671875 163.300781 590.410156 C 163.222656 591.746094 163.222656 593.066406 163.28125 594.378906 L 199.035156 579.042969 " fill-opacity="1" fill-rule="nonzero"/><path fill="#8c7bff" d="M 99.394531 833.984375 L 143.441406 648.886719 L 205.488281 648.886719 C 225.230469 648.886719 241.703125 663.773438 243.960938 682.960938 L 244.804688 687.269531 C 246.617188 696.53125 252.773438 704.171875 261.128906 708.523438 C 270.765625 713.550781 277.324219 723.671875 277.25 735.320312 C 277.203125 742.796875 274.425781 749.617188 269.871094 754.835938 C 263.625 761.992188 261.339844 771.792969 263.164062 781.121094 L 272.824219 833.988281 L 99.394531 833.984375 " fill-opacity="1" fill-rule="nonzero"/><path fill="#000000" d="M 272.824219 835.796875 C 271.96875 835.796875 271.207031 835.1875 271.046875 834.308594 L 261.386719 781.453125 C 259.425781 771.410156 262.085938 761.007812 268.507812 753.648438 C 272.9375 748.574219 275.402344 742.054688 275.445312 735.304688 C 275.511719 724.679688 269.703125 715.03125 260.292969 710.125 C 251.191406 705.386719 244.902344 697.179688 243.03125 687.617188 L 242.191406 683.304688 C 239.988281 664.65625 224.21875 650.6875 205.488281 650.6875 L 197.875 650.6875 C 196.878906 650.6875 196.070312 649.878906 196.070312 648.886719 C 196.070312 647.886719 196.878906 647.074219 197.875 647.074219 L 205.488281 647.074219 C 226.050781 647.074219 243.363281 662.410156 245.757812 682.746094 L 246.578125 686.917969 C 248.234375 695.402344 253.839844 702.691406 261.960938 706.925781 C 272.582031 712.457031 279.132812 723.34375 279.058594 735.328125 C 279.007812 742.941406 276.230469 750.292969 271.230469 756.015625 C 265.535156 762.546875 263.179688 771.804688 264.9375 780.777344 L 274.601562 833.664062 C 274.78125 834.644531 274.132812 835.589844 273.148438 835.761719 C 273.039062 835.785156 272.933594 835.796875 272.824219 835.796875 " fill-opacity="1" fill-rule="nonzero"/><path fill="#000000" d="M 221.277344 762.230469 C 220.703125 762.230469 220.140625 761.957031 219.789062 761.449219 C 219.222656 760.628906 219.425781 759.507812 220.25 758.941406 C 228.105469 753.507812 232.652344 744.574219 232.417969 735.03125 C 232.109375 722.828125 224.070312 712.261719 212.398438 708.765625 C 211.445312 708.464844 210.90625 707.46875 211.191406 706.507812 C 211.476562 705.550781 212.488281 705.019531 213.441406 705.300781 C 226.609375 709.253906 235.683594 721.171875 236.027344 734.953125 C 236.296875 745.707031 231.160156 755.785156 222.300781 761.910156 C 221.988281 762.132812 221.628906 762.230469 221.277344 762.230469 " fill-opacity="1" fill-rule="nonzero"/><path fill="#955b50" d="M 335.832031 784.398438 L 335.832031 840.71875 L 438.785156 840.71875 C 441.902344 840.71875 444.871094 842.046875 446.953125 844.375 L 451.304688 849.242188 C 455.222656 853.628906 462.1875 853.261719 465.617188 848.480469 C 467.910156 845.296875 467.890625 841.054688 465.734375 837.894531 L 468.164062 834.515625 C 470.945312 830.636719 470.625 825.324219 467.386719 821.824219 L 464.941406 819.171875 C 467.398438 815.34375 466.984375 810.292969 463.867188 806.925781 L 459.785156 802.5 L 459.847656 802.457031 C 461.554688 798.8125 460.941406 794.410156 458.128906 791.367188 L 454.503906 787.441406 C 447.566406 779.925781 437.816406 775.644531 427.601562 775.644531 L 393.191406 775.644531 C 378.917969 775.644531 375.25 784.398438 368.925781 784.398438 L 335.832031 784.398438 " fill-opacity="1" fill-rule="nonzero"/><path fill="#000000" d="M 464.941406 820.984375 C 464.605469 820.984375 464.265625 820.886719 463.964844 820.695312 C 463.128906 820.15625 462.878906 819.039062 463.421875 818.195312 C 465.449219 815.042969 465.085938 810.90625 462.539062 808.148438 L 456.128906 801.203125 C 451.324219 796 444.507812 793.007812 437.433594 793.007812 L 419.796875 793.007812 C 418.800781 793.007812 417.988281 792.203125 417.988281 791.203125 C 417.988281 790.203125 418.800781 789.402344 419.796875 789.402344 L 437.433594 789.402344 C 445.515625 789.402344 453.296875 792.8125 458.785156 798.753906 L 465.191406 805.695312 C 468.851562 809.664062 469.375 815.605469 466.460938 820.144531 C 466.117188 820.6875 465.535156 820.984375 464.941406 820.984375 " fill-opacity="1" fill-rule="nonzero"/><path fill="#000000" d="M 465.710938 839.726562 C 465.347656 839.726562 464.976562 839.621094 464.65625 839.390625 C 463.847656 838.8125 463.660156 837.679688 464.246094 836.875 L 466.699219 833.457031 C 468.972656 830.292969 468.707031 825.917969 466.058594 823.050781 L 458.371094 814.722656 C 454.375 810.390625 448.710938 807.90625 442.828125 807.90625 L 419.632812 807.90625 C 418.636719 807.90625 417.824219 807.097656 417.824219 806.105469 C 417.824219 805.105469 418.636719 804.292969 419.632812 804.292969 L 442.828125 804.292969 C 449.714844 804.292969 456.347656 807.203125 461.027344 812.269531 L 468.710938 820.597656 C 472.515625 824.71875 472.898438 831.015625 469.628906 835.566406 L 467.179688 838.980469 C 466.824219 839.464844 466.273438 839.726562 465.710938 839.726562 " fill-opacity="1" fill-rule="nonzero"/><path fill="#000000" d="M 402.683594 842.523438 L 334.027344 842.523438 L 334.027344 782.589844 L 368.925781 782.589844 C 370.90625 782.589844 372.746094 781.367188 375.082031 779.820312 C 378.875 777.296875 384.074219 773.84375 393.191406 773.84375 L 427.601562 773.84375 C 438.285156 773.84375 448.578125 778.351562 455.832031 786.210938 L 459.457031 790.136719 C 462.742188 793.703125 463.539062 798.832031 461.484375 803.21875 C 461.058594 804.125 459.984375 804.515625 459.082031 804.089844 C 458.179688 803.664062 457.789062 802.589844 458.210938 801.6875 C 459.640625 798.636719 459.089844 795.066406 456.804688 792.589844 L 453.179688 788.664062 C 446.605469 781.539062 437.28125 777.457031 427.601562 777.457031 L 393.191406 777.457031 C 385.167969 777.457031 380.867188 780.3125 377.082031 782.828125 C 374.46875 784.566406 372 786.207031 368.925781 786.207031 L 337.640625 786.207031 L 337.640625 838.917969 L 402.683594 838.917969 C 403.683594 838.917969 404.496094 839.722656 404.496094 840.71875 C 404.496094 841.71875 403.683594 842.523438 402.683594 842.523438 " fill-opacity="1" fill-rule="nonzero"/><path fill="#000000" d="M 458.144531 854.121094 C 455.015625 854.121094 452.058594 852.804688 449.960938 850.449219 L 445.609375 845.582031 C 443.871094 843.636719 441.386719 842.523438 438.789062 842.523438 L 383.660156 842.523438 C 373.464844 842.523438 363.957031 837.46875 358.230469 829 C 357.671875 828.171875 357.886719 827.046875 358.714844 826.492188 C 359.539062 825.933594 360.664062 826.144531 361.21875 826.976562 C 366.28125 834.449219 374.664062 838.917969 383.660156 838.917969 L 438.789062 838.917969 C 442.410156 838.917969 445.878906 840.46875 448.296875 843.171875 L 452.652344 848.039062 C 454.15625 849.71875 456.300781 850.613281 458.546875 850.5 C 460.792969 850.375 462.835938 849.261719 464.152344 847.425781 C 466.203125 844.570312 465.960938 840.628906 463.578125 838.050781 L 455.558594 829.359375 C 451.488281 824.949219 445.714844 822.417969 439.71875 822.417969 L 420.414062 822.417969 C 419.421875 822.417969 418.609375 821.613281 418.609375 820.613281 C 418.609375 819.613281 419.421875 818.804688 420.414062 818.804688 L 439.71875 818.804688 C 446.71875 818.804688 453.460938 821.761719 458.214844 826.90625 L 466.234375 835.597656 C 469.773438 839.433594 470.132812 845.296875 467.085938 849.53125 C 465.128906 852.261719 462.085938 853.925781 458.738281 854.105469 C 458.542969 854.113281 458.34375 854.121094 458.144531 854.121094 " fill-opacity="1" fill-rule="nonzero"/><path fill="#8c7bff" d="M 346.894531 775.964844 L 230.285156 775.964844 L 157.023438 648.886719 L 134.832031 648.886719 C 108.058594 648.886719 91.316406 677.933594 104.679688 701.199219 L 165.605469 807.261719 C 180.023438 832.359375 206.710938 847.828125 235.59375 847.828125 L 346.894531 847.828125 L 346.894531 775.964844 " fill-opacity="1" fill-rule="nonzero"/><path fill="#6155ff" d="M 196.09375 802.746094 C 185.757812 802.746094 176.25 806.277344 168.683594 812.1875 C 183.628906 834.367188 208.652344 847.828125 235.59375 847.828125 L 240.738281 847.828125 C 240.738281 847.71875 240.742188 847.625 240.742188 847.515625 C 240.742188 822.785156 220.753906 802.746094 196.09375 802.746094 " fill-opacity="1" fill-rule="nonzero"/><path fill="#000000" d="M 348.703125 849.628906 L 235.59375 849.628906 C 206.152344 849.628906 178.734375 833.746094 164.039062 808.164062 L 103.113281 702.097656 C 96.5 690.582031 96.523438 676.84375 103.175781 665.355469 C 109.796875 653.910156 121.636719 647.085938 134.832031 647.085938 L 160.144531 647.085938 C 161.140625 647.085938 161.949219 647.886719 161.949219 648.886719 C 161.949219 649.886719 161.140625 650.6875 160.144531 650.6875 L 134.832031 650.6875 C 122.941406 650.6875 112.273438 656.851562 106.300781 667.164062 C 100.300781 677.523438 100.28125 689.910156 106.242188 700.296875 L 167.175781 806.367188 C 181.226562 830.828125 207.441406 846.023438 235.59375 846.023438 L 345.089844 846.023438 L 345.089844 777.769531 L 229.242188 777.769531 L 186.632812 703.863281 C 186.132812 702.992188 186.429688 701.894531 187.292969 701.394531 C 188.15625 700.894531 189.265625 701.1875 189.761719 702.058594 L 231.328125 774.164062 L 348.703125 774.164062 L 348.703125 849.628906 " fill-opacity="1" fill-rule="nonzero"/><path fill="#000000" d="M 1101.421875 872.957031 L 196.980469 872.957031 L 196.980469 846.019531 L 449.757812 846.019531 C 450.753906 846.019531 451.5625 846.824219 451.5625 847.820312 C 451.5625 848.824219 450.753906 849.628906 449.757812 849.628906 L 200.59375 849.628906 L 200.59375 869.335938 L 1097.808594 869.335938 L 1097.808594 849.628906 L 466.050781 849.628906 C 465.054688 849.628906 464.246094 848.824219 464.246094 847.820312 C 464.246094 846.824219 465.054688 846.019531 466.050781 846.019531 L 1101.421875 846.019531 L 1101.421875 872.957031 " fill-opacity="1" fill-rule="nonzero"/><path fill="#000000" d="M 468.867188 1495.074219 L 492.761719 1495.074219 L 356.691406 872.960938 L 337.101562 872.960938 L 201.027344 1495.074219 L 224.925781 1495.074219 L 346.894531 937.425781 Z M 497.25 1498.6875 L 465.957031 1498.6875 L 465.648438 1497.269531 L 346.894531 954.332031 L 227.839844 1498.6875 L 196.542969 1498.6875 L 197.023438 1496.492188 L 334.191406 869.34375 L 359.597656 869.34375 L 497.25 1498.6875 " fill-opacity="1" fill-rule="nonzero"/><path fill="#000000" d="M 1096.003906 1495.074219 L 1119.894531 1495.074219 L 983.828125 872.957031 L 964.234375 872.957031 L 828.164062 1495.074219 L 852.066406 1495.074219 L 974.035156 937.421875 Z M 1124.390625 1498.6875 L 1093.089844 1498.6875 L 974.035156 954.328125 L 854.96875 1498.6875 L 823.683594 1498.6875 L 824.15625 1496.492188 L 961.332031 869.335938 L 986.734375 869.335938 L 987.042969 870.761719 L 1124.390625 1498.6875 " fill-opacity="1" fill-rule="nonzero"/><path fill="#000000" d="M 53.753906 442.421875 L 419.800781 442.421875 L 419.800781 35.148438 L 53.753906 35.148438 L 53.753906 442.421875 " fill-opacity="1" fill-rule="nonzero"/><path fill="#955b50" d="M 38.171875 71 C 38.128906 70.992188 38.089844 70.992188 38.050781 70.980469 C 38.089844 70.992188 38.128906 70.992188 38.171875 71 " fill-opacity="1" fill-rule="nonzero"/><path fill="#ffffff" d="M 35.351562 423.839844 L 401.390625 423.839844 L 401.390625 16.578125 L 35.351562 16.578125 L 35.351562 423.839844 " fill-opacity="1" fill-rule="nonzero"/><path fill="#000000" d="M 37.15625 422.042969 L 399.585938 422.042969 L 399.585938 18.378906 L 37.15625 18.378906 Z M 403.199219 425.648438 L 33.542969 425.648438 L 33.542969 14.769531 L 403.199219 14.769531 L 403.199219 425.648438 " fill-opacity="1" fill-rule="nonzero"/><path fill="#8c7bff" d="M 88.101562 382.222656 L 117.257812 382.222656 L 117.257812 256.835938 L 88.101562 256.835938 L 88.101562 382.222656 " fill-opacity="1" fill-rule="nonzero"/><path fill="#8c7bff" d="M 145.921875 382.222656 L 175.078125 382.222656 L 175.078125 295.289062 L 145.921875 295.289062 L 145.921875 382.222656 " fill-opacity="1" fill-rule="nonzero"/><path fill="#fda4ff" d="M 203.738281 382.230469 L 232.898438 382.230469 L 232.898438 320.835938 L 203.738281 320.835938 L 203.738281 382.230469 " fill-opacity="1" fill-rule="nonzero"/><path fill="#8c7bff" d="M 261.558594 382.222656 L 290.714844 382.222656 L 290.714844 295.289062 L 261.558594 295.289062 L 261.558594 382.222656 " fill-opacity="1" fill-rule="nonzero"/><path fill="#4ada85" d="M 319.375 382.21875 L 348.53125 382.21875 L 348.53125 270.882812 L 319.375 270.882812 L 319.375 382.21875 " fill-opacity="1" fill-rule="nonzero"/><path fill="#fda4ff" d="M 281.566406 219.867188 L 218.386719 156.6875 L 281.566406 93.519531 C 316.460938 128.410156 316.460938 184.976562 281.566406 219.867188 " fill-opacity="1" fill-rule="nonzero"/><path fill="#4ada85" d="M 293.164062 65.707031 L 229.984375 128.878906 L 229.984375 39.542969 C 254.65625 39.542969 276.992188 49.535156 293.164062 65.707031 " fill-opacity="1" fill-rule="nonzero"/><path fill="#8c7bff" d="M 218.382812 156.699219 L 281.5625 219.867188 C 246.671875 254.757812 190.097656 254.757812 155.207031 219.867188 C 120.3125 184.980469 120.3125 128.410156 155.207031 93.523438 C 172.652344 76.082031 195.515625 67.359375 218.382812 67.359375 L 218.382812 156.699219 " fill-opacity="1" fill-rule="nonzero"/><path fill="#4ada85" d="M 546.335938 459.582031 C 539.027344 459.582031 531.601562 461.117188 524.539062 464.371094 C 511.851562 470.214844 502.199219 480.644531 497.363281 493.746094 C 492.519531 506.847656 493.074219 521.050781 498.914062 533.734375 C 510.976562 559.925781 542.097656 571.417969 568.289062 559.359375 C 580.976562 553.515625 590.625 543.078125 595.460938 529.976562 C 600.3125 516.878906 599.753906 502.675781 593.917969 489.992188 C 585.097656 470.871094 566.132812 459.582031 546.335938 459.582031 Z M 546.5 567.761719 C 525.335938 567.761719 505.054688 555.699219 495.636719 535.246094 C 489.386719 521.683594 488.800781 506.5 493.972656 492.5 C 499.144531 478.492188 509.464844 467.339844 523.027344 461.089844 C 551.023438 448.195312 584.300781 460.488281 597.191406 488.480469 C 603.441406 502.046875 604.027344 517.226562 598.863281 531.234375 C 593.691406 545.234375 583.371094 556.394531 569.796875 562.644531 C 562.25 566.109375 554.3125 567.761719 546.5 567.761719 Z M 487.992188 613.324219 L 524.851562 626.933594 L 533.492188 603.535156 C 533.785156 602.75 534.578125 602.273438 535.402344 602.378906 C 545.105469 603.5625 554.875 603.191406 564.429688 601.246094 C 565.25 601.085938 566.074219 601.503906 566.425781 602.265625 L 576.855469 624.90625 L 612.546875 608.480469 L 602.109375 585.832031 C 601.765625 585.066406 601.984375 584.171875 602.644531 583.652344 C 610.320312 577.648438 616.953125 570.484375 622.363281 562.335938 C 622.820312 561.640625 623.703125 561.34375 624.488281 561.640625 L 647.886719 570.273438 L 661.507812 533.429688 L 638.101562 524.789062 C 637.3125 524.492188 636.835938 523.703125 636.941406 522.871094 C 638.128906 513.164062 637.746094 503.402344 635.8125 493.855469 C 635.648438 493.035156 636.066406 492.203125 636.832031 491.855469 L 659.480469 481.425781 L 643.046875 445.746094 L 620.394531 456.171875 C 619.632812 456.523438 618.730469 456.300781 618.214844 455.648438 C 612.210938 447.964844 605.035156 441.335938 596.894531 435.933594 C 596.191406 435.46875 595.902344 434.585938 596.191406 433.796875 L 604.832031 410.402344 L 567.976562 396.792969 L 559.335938 420.1875 C 559.042969 420.976562 558.253906 421.449219 557.429688 421.355469 C 547.71875 420.167969 537.953125 420.542969 528.402344 422.476562 C 527.582031 422.648438 526.75 422.222656 526.402344 421.457031 L 515.96875 398.820312 L 480.285156 415.25 L 490.714844 437.890625 C 491.066406 438.65625 490.847656 439.554688 490.1875 440.070312 C 482.507812 446.074219 475.875 453.25 470.46875 461.398438 C 470.003906 462.09375 469.121094 462.382812 468.335938 462.09375 L 444.941406 453.453125 L 431.324219 490.304688 L 454.726562 498.941406 C 455.511719 499.230469 455.996094 500.027344 455.894531 500.859375 C 454.703125 510.5625 455.078125 520.320312 457.015625 529.875 C 457.175781 530.667969 456.785156 531.46875 456.066406 531.84375 L 433.082031 543.621094 L 449.753906 578 L 472.4375 567.5625 C 473.195312 567.203125 474.097656 567.421875 474.613281 568.078125 C 480.613281 575.761719 487.789062 582.390625 495.9375 587.800781 C 496.636719 588.257812 496.925781 589.148438 496.636719 589.929688 Z M 525.917969 631.0625 C 525.710938 631.0625 525.496094 631.019531 525.292969 630.949219 L 485.046875 616.085938 C 484.597656 615.925781 484.234375 615.578125 484.03125 615.144531 C 483.832031 614.714844 483.808594 614.222656 483.976562 613.773438 L 492.753906 590.003906 C 485.164062 584.804688 478.414062 578.574219 472.65625 571.433594 L 449.65625 582.027344 C 448.761719 582.433594 447.707031 582.058594 447.277344 581.167969 L 429.058594 543.605469 C 428.632812 542.722656 428.988281 541.65625 429.863281 541.214844 L 453.210938 529.246094 C 451.519531 520.210938 451.15625 511 452.144531 501.84375 L 428.378906 493.066406 C 427.929688 492.898438 427.566406 492.558594 427.363281 492.125 C 427.167969 491.695312 427.144531 491.195312 427.3125 490.742188 L 442.179688 450.507812 C 442.519531 449.566406 443.566406 449.09375 444.496094 449.441406 L 468.261719 458.210938 C 473.460938 450.628906 479.699219 443.878906 486.839844 438.121094 L 476.246094 415.125 C 476.046875 414.683594 476.027344 414.191406 476.195312 413.742188 C 476.359375 413.292969 476.699219 412.929688 477.128906 412.722656 L 516.101562 394.78125 C 517.011719 394.367188 518.082031 394.753906 518.496094 395.664062 L 529.089844 418.660156 C 538.105469 416.984375 547.292969 416.625 556.441406 417.609375 L 565.21875 393.851562 C 565.558594 392.910156 566.601562 392.433594 567.535156 392.78125 L 607.785156 407.644531 C 608.226562 407.804688 608.597656 408.144531 608.792969 408.578125 C 608.996094 409.019531 609.011719 409.511719 608.851562 409.960938 L 600.074219 433.722656 C 607.664062 438.917969 614.40625 445.160156 620.171875 452.296875 L 643.171875 441.707031 C 644.085938 441.289062 645.152344 441.679688 645.574219 442.589844 L 663.507812 481.554688 C 663.71875 481.992188 663.738281 482.484375 663.570312 482.933594 C 663.398438 483.386719 663.058594 483.75 662.628906 483.953125 L 639.625 494.542969 C 641.3125 503.554688 641.664062 512.738281 640.679688 521.890625 L 664.449219 530.667969 C 664.898438 530.828125 665.257812 531.164062 665.46875 531.609375 C 665.664062 532.039062 665.691406 532.53125 665.511719 532.980469 L 650.652344 573.226562 C 650.304688 574.167969 649.261719 574.640625 648.332031 574.289062 L 624.566406 565.515625 C 619.371094 573.105469 613.125 579.855469 605.988281 585.613281 L 616.578125 608.609375 C 616.78125 609.039062 616.808594 609.539062 616.628906 609.992188 C 616.46875 610.4375 616.128906 610.804688 615.695312 611.007812 L 576.730469 628.949219 C 575.824219 629.367188 574.753906 628.96875 574.328125 628.058594 L 563.742188 605.0625 C 554.722656 606.75 545.53125 607.105469 536.386719 606.125 L 527.609375 629.882812 C 527.339844 630.613281 526.652344 631.0625 525.917969 631.0625 " fill-opacity="1" fill-rule="nonzero"/></svg>