<svg xmlns="http://www.w3.org/2000/svg" xmlns:xlink="http://www.w3.org/1999/xlink" width="2000" zoomAndPan="magnify" viewBox="0 0 1500 1499.999933" height="2000" preserveAspectRatio="xMidYMid meet" version="1.0"><path fill="#ff7443" d="M 424.890625 455.808594 C 424.890625 458.027344 424.835938 460.246094 424.726562 462.460938 C 424.617188 464.675781 424.453125 466.890625 424.238281 469.097656 C 424.019531 471.304688 423.746094 473.507812 423.421875 475.699219 C 423.097656 477.894531 422.71875 480.082031 422.285156 482.257812 C 421.851562 484.433594 421.367188 486.597656 420.828125 488.75 C 420.289062 490.902344 419.695312 493.039062 419.050781 495.160156 C 418.410156 497.285156 417.710938 499.390625 416.964844 501.480469 C 416.21875 503.566406 415.417969 505.636719 414.570312 507.6875 C 413.722656 509.738281 412.824219 511.765625 411.875 513.769531 C 410.925781 515.777344 409.929688 517.757812 408.882812 519.714844 C 407.835938 521.667969 406.742188 523.601562 405.601562 525.503906 C 404.460938 527.40625 403.277344 529.277344 402.042969 531.125 C 400.8125 532.96875 399.535156 534.78125 398.210938 536.5625 C 396.890625 538.347656 395.527344 540.09375 394.117188 541.808594 C 392.710938 543.523438 391.261719 545.203125 389.773438 546.847656 C 388.28125 548.492188 386.753906 550.097656 385.183594 551.667969 C 383.617188 553.234375 382.007812 554.765625 380.367188 556.253906 C 378.722656 557.746094 377.042969 559.191406 375.328125 560.601562 C 373.613281 562.007812 371.863281 563.371094 370.082031 564.695312 C 368.300781 566.015625 366.488281 567.292969 364.640625 568.527344 C 362.796875 569.757812 360.921875 570.945312 359.019531 572.085938 C 357.117188 573.226562 355.1875 574.320312 353.230469 575.363281 C 351.273438 576.410156 349.292969 577.40625 347.289062 578.355469 C 345.28125 579.304688 343.253906 580.203125 341.207031 581.054688 C 339.15625 581.902344 337.085938 582.699219 334.996094 583.449219 C 332.910156 584.195312 330.800781 584.890625 328.679688 585.535156 C 326.554688 586.179688 324.417969 586.769531 322.265625 587.308594 C 320.113281 587.847656 317.949219 588.335938 315.773438 588.765625 C 313.597656 589.199219 311.414062 589.578125 309.21875 589.90625 C 307.023438 590.230469 304.824219 590.5 302.613281 590.71875 C 300.40625 590.9375 298.195312 591.101562 295.980469 591.207031 C 293.761719 591.316406 291.546875 591.371094 289.328125 591.371094 C 287.109375 591.371094 284.890625 591.316406 282.675781 591.207031 C 280.460938 591.101562 278.25 590.9375 276.039062 590.71875 C 273.832031 590.5 271.632812 590.230469 269.4375 589.90625 C 267.242188 589.578125 265.058594 589.199219 262.882812 588.765625 C 260.703125 588.335938 258.539062 587.847656 256.390625 587.308594 C 254.238281 586.769531 252.097656 586.179688 249.976562 585.535156 C 247.851562 584.890625 245.746094 584.195312 243.660156 583.449219 C 241.570312 582.699219 239.5 581.902344 237.449219 581.054688 C 235.402344 580.203125 233.375 579.304688 231.367188 578.355469 C 229.363281 577.40625 227.382812 576.410156 225.425781 575.363281 C 223.46875 574.320312 221.539062 573.226562 219.636719 572.085938 C 217.730469 570.945312 215.859375 569.757812 214.011719 568.527344 C 212.167969 567.292969 210.355469 566.015625 208.574219 564.695312 C 206.792969 563.371094 205.042969 562.007812 203.328125 560.601562 C 201.613281 559.191406 199.933594 557.746094 198.289062 556.253906 C 196.644531 554.765625 195.039062 553.234375 193.472656 551.667969 C 191.902344 550.097656 190.371094 548.492188 188.882812 546.847656 C 187.394531 545.203125 185.945312 543.523438 184.535156 541.808594 C 183.128906 540.09375 181.765625 538.347656 180.445312 536.5625 C 179.121094 534.78125 177.84375 532.96875 176.613281 531.125 C 175.378906 529.277344 174.191406 527.40625 173.050781 525.503906 C 171.910156 523.601562 170.820312 521.667969 169.773438 519.714844 C 168.726562 517.757812 167.730469 515.777344 166.78125 513.769531 C 165.832031 511.765625 164.933594 509.738281 164.085938 507.6875 C 163.234375 505.636719 162.4375 503.566406 161.691406 501.480469 C 160.941406 499.390625 160.246094 497.285156 159.601562 495.160156 C 158.960938 493.039062 158.367188 490.902344 157.828125 488.75 C 157.289062 486.597656 156.804688 484.433594 156.371094 482.257812 C 155.9375 480.082031 155.558594 477.894531 155.234375 475.699219 C 154.90625 473.507812 154.636719 471.304688 154.417969 469.097656 C 154.199219 466.890625 154.039062 464.675781 153.929688 462.460938 C 153.820312 460.246094 153.765625 458.027344 153.765625 455.808594 C 153.765625 453.589844 153.820312 451.375 153.929688 449.15625 C 154.039062 446.941406 154.199219 444.730469 154.417969 442.523438 C 154.636719 440.316406 154.90625 438.113281 155.234375 435.917969 C 155.558594 433.722656 155.9375 431.539062 156.371094 429.363281 C 156.804688 427.1875 157.289062 425.023438 157.828125 422.871094 C 158.367188 420.71875 158.960938 418.582031 159.601562 416.457031 C 160.246094 414.335938 160.941406 412.230469 161.691406 410.140625 C 162.4375 408.050781 163.234375 405.980469 164.085938 403.933594 C 164.933594 401.882812 165.832031 399.855469 166.78125 397.847656 C 167.730469 395.84375 168.726562 393.863281 169.773438 391.90625 C 170.820312 389.949219 171.910156 388.019531 173.050781 386.117188 C 174.191406 384.214844 175.378906 382.339844 176.613281 380.496094 C 177.84375 378.652344 179.121094 376.835938 180.445312 375.054688 C 181.765625 373.273438 183.128906 371.523438 184.535156 369.808594 C 185.945312 368.09375 187.394531 366.414062 188.882812 364.773438 C 190.371094 363.128906 191.902344 361.523438 193.472656 359.953125 C 195.039062 358.382812 196.644531 356.855469 198.289062 355.363281 C 199.933594 353.875 201.613281 352.425781 203.328125 351.019531 C 205.042969 349.613281 206.792969 348.246094 208.574219 346.925781 C 210.355469 345.605469 212.167969 344.328125 214.011719 343.09375 C 215.859375 341.863281 217.730469 340.675781 219.636719 339.535156 C 221.539062 338.394531 223.46875 337.300781 225.425781 336.253906 C 227.382812 335.210938 229.363281 334.210938 231.367188 333.261719 C 233.375 332.316406 235.402344 331.414062 237.449219 330.566406 C 239.5 329.71875 241.570312 328.917969 243.660156 328.171875 C 245.746094 327.425781 247.851562 326.730469 249.976562 326.085938 C 252.097656 325.441406 254.238281 324.847656 256.390625 324.308594 C 258.539062 323.769531 260.703125 323.285156 262.882812 322.851562 C 265.058594 322.417969 267.242188 322.039062 269.4375 321.714844 C 271.632812 321.390625 273.832031 321.117188 276.039062 320.902344 C 278.25 320.683594 280.460938 320.519531 282.675781 320.410156 C 284.890625 320.300781 287.109375 320.246094 289.328125 320.246094 C 291.546875 320.246094 293.761719 320.300781 295.980469 320.410156 C 298.195312 320.519531 300.40625 320.683594 302.613281 320.902344 C 304.824219 321.117188 307.023438 321.390625 309.21875 321.714844 C 311.414062 322.039062 313.597656 322.417969 315.773438 322.851562 C 317.949219 323.285156 320.113281 323.769531 322.265625 324.308594 C 324.417969 324.847656 326.554688 325.441406 328.679688 326.085938 C 330.800781 326.730469 332.910156 327.425781 334.996094 328.171875 C 337.085938 328.917969 339.15625 329.71875 341.207031 330.566406 C 343.253906 331.414062 345.28125 332.316406 347.289062 333.261719 C 349.292969 334.210938 351.273438 335.210938 353.230469 336.253906 C 355.1875 337.300781 357.117188 338.394531 359.019531 339.535156 C 360.921875 340.675781 362.796875 341.863281 364.640625 343.09375 C 366.488281 344.328125 368.300781 345.605469 370.082031 346.925781 C 371.863281 348.246094 373.613281 349.613281 375.328125 351.019531 C 377.042969 352.425781 378.722656 353.875 380.367188 355.363281 C 382.007812 356.855469 383.617188 358.382812 385.183594 359.953125 C 386.753906 361.523438 388.28125 363.128906 389.773438 364.773438 C 391.261719 366.414062 392.710938 368.09375 394.117188 369.808594 C 395.527344 371.523438 396.890625 373.273438 398.210938 375.054688 C 399.535156 376.835938 400.8125 378.652344 402.042969 380.496094 C 403.277344 382.339844 404.460938 384.214844 405.601562 386.117188 C 406.742188 388.019531 407.835938 389.949219 408.882812 391.90625 C 409.929688 393.863281 410.925781 395.84375 411.875 397.847656 C 412.824219 399.855469 413.722656 401.882812 414.570312 403.933594 C 415.417969 405.980469 416.21875 408.050781 416.964844 410.140625 C 417.710938 412.230469 418.410156 414.335938 419.050781 416.457031 C 419.695312 418.582031 420.289062 420.71875 420.828125 422.871094 C 421.367188 425.023438 421.851562 427.1875 422.285156 429.363281 C 422.71875 431.539062 423.097656 433.722656 423.421875 435.917969 C 423.746094 438.113281 424.019531 440.316406 424.238281 442.523438 C 424.453125 444.730469 424.617188 446.941406 424.726562 449.15625 C 424.835938 451.375 424.890625 453.589844 424.890625 455.808594 Z M 424.890625 455.808594 " fill-opacity="1" fill-rule="nonzero"/><path fill="#41464b" d="M 314.714844 719.800781 L 264.054688 719.800781 L 252.605469 662.902344 C 240.773438 660.816406 229.03125 657.660156 217.582031 653.488281 L 179.359375 697.03125 L 135.488281 671.753906 L 154.058594 616.765625 C 144.796875 608.980469 136.183594 600.363281 128.363281 591.066406 L 73.425781 609.605469 L 48.175781 565.863281 L 91.609375 527.507812 C 87.457031 516.082031 84.300781 504.363281 82.207031 492.574219 L 25.480469 481.210938 L 25.386719 430.40625 L 82.207031 418.972656 C 84.296875 407.1875 87.445312 395.488281 91.597656 384.070312 L 48.175781 345.640625 L 73.429688 302.003906 L 128.359375 320.476562 C 136.160156 311.207031 144.765625 302.59375 154.050781 294.773438 L 135.488281 239.753906 L 179.359375 214.519531 L 217.621094 258.03125 C 229.070312 253.871094 240.800781 250.71875 252.613281 248.628906 L 264.058594 191.8125 L 314.714844 191.8125 L 326.15625 248.644531 C 337.945312 250.738281 349.660156 253.886719 361.101562 258.046875 L 399.34375 214.515625 L 443.222656 239.753906 L 424.671875 294.726562 C 433.988281 302.554688 442.628906 311.179688 450.4375 320.453125 L 505.335938 302.003906 L 530.570312 345.640625 L 487.234375 383.980469 C 491.398438 395.433594 494.5625 407.179688 496.671875 419.019531 L 553.273438 430.398438 L 553.273438 481.207031 L 496.671875 492.519531 C 494.5625 504.355469 491.394531 516.109375 487.214844 527.589844 L 530.566406 565.855469 L 505.339844 609.601562 L 450.433594 591.085938 C 442.601562 600.378906 433.96875 609 424.660156 616.804688 L 443.222656 671.742188 L 399.433594 697.023438 L 361.132812 653.464844 C 349.691406 657.628906 337.96875 660.78125 326.164062 662.875 Z M 275.824219 705.425781 L 302.933594 705.425781 L 314.035156 650.234375 L 319.011719 649.484375 C 333.085938 647.359375 347.085938 643.59375 360.621094 638.296875 L 365.316406 636.464844 L 402.445312 678.691406 L 425.824219 665.1875 L 407.828125 611.929688 L 411.765625 608.789062 C 423.058594 599.773438 433.375 589.476562 442.417969 578.195312 L 445.558594 574.28125 L 498.761719 592.226562 L 512.230469 568.871094 L 470.203125 531.777344 L 472.03125 527.101562 C 477.339844 513.519531 481.121094 499.484375 483.269531 485.378906 L 484.03125 480.402344 L 538.886719 469.441406 L 538.886719 442.195312 L 484.03125 431.164062 L 483.269531 426.191406 C 481.121094 412.074219 477.347656 398.054688 472.054688 384.507812 L 470.226562 379.832031 L 512.226562 342.679688 L 498.765625 319.386719 L 445.554688 337.277344 L 442.417969 333.359375 C 433.398438 322.105469 423.085938 311.808594 411.773438 302.761719 L 407.84375 299.621094 L 425.824219 246.347656 L 402.371094 232.863281 L 365.296875 275.070312 L 360.601562 273.238281 C 347.058594 267.949219 333.0625 264.191406 319.007812 262.054688 L 314.027344 261.296875 L 302.9375 206.195312 L 275.824219 206.195312 L 264.726562 261.273438 L 259.75 262.03125 C 245.667969 264.15625 231.660156 267.921875 218.113281 273.210938 L 213.421875 275.046875 L 176.324219 232.851562 L 152.882812 246.339844 L 170.863281 299.644531 L 166.941406 302.789062 C 155.671875 311.832031 145.386719 322.117188 136.375 333.371094 L 133.234375 337.289062 L 79.976562 319.382812 L 66.503906 342.671875 L 108.589844 379.921875 L 106.761719 384.597656 C 101.484375 398.105469 97.730469 412.074219 95.601562 426.125 L 94.84375 431.101562 L 39.785156 442.179688 L 39.832031 469.429688 L 94.84375 480.4375 L 95.605469 485.421875 C 97.738281 499.484375 101.503906 513.464844 106.785156 527 L 108.613281 531.675781 L 66.507812 568.855469 L 79.988281 592.210938 L 133.234375 574.242188 L 136.378906 578.167969 C 145.429688 589.460938 155.71875 599.75 166.953125 608.742188 L 170.882812 611.890625 L 152.886719 665.179688 L 176.328125 678.6875 L 213.394531 636.46875 L 218.089844 638.308594 C 231.628906 643.609375 245.640625 647.375 259.746094 649.496094 L 264.726562 650.246094 Z M 275.824219 705.425781 " fill-opacity="1" fill-rule="nonzero"/><path fill="#ffffff" d="M 246.335938 495.929688 L 206.214844 455.8125 L 246.335938 415.683594 L 256.5 425.847656 L 226.546875 455.8125 L 256.5 485.761719 Z M 246.335938 495.929688 " fill-opacity="1" fill-rule="nonzero"/><path fill="#ffffff" d="M 332.332031 495.929688 L 322.167969 485.761719 L 352.121094 455.8125 L 322.167969 425.855469 L 332.332031 415.691406 L 372.449219 455.8125 Z M 332.332031 495.929688 " fill-opacity="1" fill-rule="nonzero"/><path fill="#ffffff" d="M 292.757812 394.988281 L 306.917969 397.484375 L 285.90625 516.617188 L 271.746094 514.121094 Z M 292.757812 394.988281 " fill-opacity="1" fill-rule="nonzero"/><path fill="#41464b" d="M 282.140625 284.304688 L 296.519531 284.304688 L 296.519531 298.683594 L 282.140625 298.683594 Z M 282.140625 284.304688 " fill-opacity="1" fill-rule="nonzero"/><path fill="#41464b" d="M 282.140625 612.9375 L 296.519531 612.9375 L 296.519531 627.316406 L 282.140625 627.316406 Z M 282.140625 612.9375 " fill-opacity="1" fill-rule="nonzero"/><path fill="#41464b" d="M 117.824219 448.617188 L 132.203125 448.617188 L 132.203125 462.996094 L 117.824219 462.996094 Z M 117.824219 448.617188 " fill-opacity="1" fill-rule="nonzero"/><path fill="#41464b" d="M 446.460938 448.617188 L 460.835938 448.617188 L 460.835938 462.996094 L 446.460938 462.996094 Z M 446.460938 448.617188 " fill-opacity="1" fill-rule="nonzero"/><path fill="#ffffff" d="M 1004.941406 567.960938 C 999.707031 562.792969 992.925781 560.136719 986.078125 560.136719 L 242.089844 560.136719 C 235.292969 560.136719 228.410156 562.792969 223.273438 567.960938 C 218.042969 573.171875 215.457031 579.953125 215.457031 586.722656 L 215.457031 1046.132812 L 1012.699219 1046.132812 L 1012.699219 586.722656 C 1012.703125 579.949219 1010.070312 573.171875 1004.941406 567.960938 Z M 1004.941406 567.960938 " fill-opacity="1" fill-rule="nonzero"/><path fill="#41464b" d="M 1019.894531 1046.132812 L 1005.515625 1046.132812 L 1005.515625 586.722656 C 1005.515625 581.609375 1003.492188 576.734375 999.820312 572.996094 C 996.136719 569.367188 991.230469 567.324219 986.085938 567.324219 L 242.089844 567.324219 C 236.976562 567.324219 231.972656 569.402344 228.371094 573.023438 C 224.675781 576.71875 222.652344 581.570312 222.652344 586.722656 L 222.652344 1046.132812 L 208.273438 1046.132812 L 208.273438 586.722656 C 208.273438 577.722656 211.796875 569.246094 218.203125 562.867188 C 224.457031 556.566406 233.171875 552.945312 242.09375 552.945312 L 986.085938 552.945312 C 995.035156 552.945312 1003.527344 556.460938 1009.992188 562.839844 C 1016.410156 569.363281 1019.894531 577.8125 1019.894531 586.722656 Z M 1019.894531 1046.132812 " fill-opacity="1" fill-rule="nonzero"/><path fill="#41464b" d="M 1058.28125 1124.234375 L 169.953125 1124.234375 C 158.605469 1124.234375 147.886719 1119.808594 139.78125 1111.777344 C 131.71875 1103.734375 127.289062 1093.023438 127.289062 1081.59375 L 127.289062 1038.914062 L 499.210938 1038.914062 L 517.9375 1059.496094 L 710.285156 1059.496094 L 729.015625 1038.914062 L 1100.917969 1038.914062 L 1100.917969 1081.59375 C 1100.917969 1093.082031 1096.472656 1103.800781 1088.402344 1111.789062 C 1080.316406 1119.808594 1069.621094 1124.234375 1058.28125 1124.234375 Z M 141.671875 1053.296875 L 141.671875 1081.59375 C 141.671875 1089.171875 144.601562 1096.277344 149.921875 1101.582031 C 155.300781 1106.910156 162.417969 1109.855469 169.957031 1109.855469 L 1058.285156 1109.855469 C 1065.800781 1109.855469 1072.90625 1106.910156 1078.28125 1101.566406 C 1083.613281 1096.296875 1086.542969 1089.203125 1086.542969 1081.589844 L 1086.542969 1053.292969 L 735.371094 1053.292969 L 716.644531 1073.875 L 511.585938 1073.875 L 492.859375 1053.296875 Z M 141.671875 1053.296875 " fill-opacity="1" fill-rule="nonzero"/><path fill="#41464b" d="M 208.273438 1074.398438 L 222.652344 1074.398438 L 222.652344 1088.773438 L 208.273438 1088.773438 Z M 208.273438 1074.398438 " fill-opacity="1" fill-rule="nonzero"/><path fill="#41464b" d="M 237.027344 1074.398438 L 251.40625 1074.398438 L 251.40625 1088.773438 L 237.027344 1088.773438 Z M 237.027344 1074.398438 " fill-opacity="1" fill-rule="nonzero"/><path fill="#41464b" d="M 265.785156 1074.398438 L 280.164062 1074.398438 L 280.164062 1088.773438 L 265.785156 1088.773438 Z M 265.785156 1074.398438 " fill-opacity="1" fill-rule="nonzero"/><path fill="#41464b" d="M 948.003906 1074.398438 L 1019.894531 1074.398438 L 1019.894531 1088.773438 L 948.003906 1088.773438 Z M 948.003906 1074.398438 " fill-opacity="1" fill-rule="nonzero"/><path fill="#4cbed8" d="M 263.460938 608.136719 L 964.777344 608.136719 L 964.777344 998.191406 L 263.460938 998.191406 Z M 263.460938 608.136719 " fill-opacity="1" fill-rule="nonzero"/><path fill="#ffffff" d="M 607.703125 861.722656 L 593.328125 861.722656 L 593.328125 744.601562 L 643.324219 744.601562 C 652.078125 744.601562 660.320312 748.03125 666.542969 754.25 C 672.746094 760.464844 676.164062 768.722656 676.164062 777.5 C 676.164062 786.253906 672.746094 794.492188 666.542969 800.710938 C 660.316406 806.933594 652.074219 810.355469 643.324219 810.355469 L 607.707031 810.355469 L 607.707031 861.722656 Z M 607.703125 795.980469 L 643.320312 795.980469 C 648.230469 795.980469 652.867188 794.050781 656.367188 790.550781 C 659.855469 787.058594 661.78125 782.421875 661.78125 777.503906 C 661.78125 772.5625 659.855469 767.914062 656.363281 764.417969 C 652.859375 760.910156 648.230469 758.980469 643.320312 758.980469 L 607.703125 758.980469 Z M 607.703125 795.980469 " fill-opacity="1" fill-rule="nonzero"/><path fill="#ffffff" d="M 559.75 861.722656 L 545.371094 861.722656 L 545.371094 777.5 C 545.371094 772.550781 543.453125 767.902344 539.96875 764.414062 C 536.453125 760.914062 531.800781 758.972656 526.878906 758.972656 L 509.742188 758.972656 C 504.820312 758.972656 500.183594 760.90625 496.695312 764.414062 C 493.195312 767.902344 491.273438 772.550781 491.273438 777.5 L 491.273438 861.722656 L 476.894531 861.722656 L 476.894531 777.5 C 476.894531 768.707031 480.3125 760.453125 486.519531 754.25 C 492.726562 748.027344 500.976562 744.601562 509.742188 744.601562 L 526.878906 744.601562 C 535.628906 744.601562 543.886719 748.027344 550.128906 754.242188 C 556.335938 760.460938 559.75 768.714844 559.75 777.5 Z M 559.75 861.722656 " fill-opacity="1" fill-rule="nonzero"/><path fill="#ffffff" d="M 476.894531 795.980469 L 559.746094 795.980469 L 559.746094 810.359375 L 476.894531 810.359375 Z M 476.894531 795.980469 " fill-opacity="1" fill-rule="nonzero"/><path fill="#ffffff" d="M 723.269531 751.792969 L 737.648438 751.792969 L 737.648438 854.535156 L 723.269531 854.535156 Z M 723.269531 751.792969 " fill-opacity="1" fill-rule="nonzero"/><path fill="#ffffff" d="M 709.570312 744.605469 L 751.335938 744.605469 L 751.335938 758.980469 L 709.570312 758.980469 Z M 709.570312 744.605469 " fill-opacity="1" fill-rule="nonzero"/><path fill="#ffffff" d="M 709.570312 847.347656 L 751.335938 847.347656 L 751.335938 861.722656 L 709.570312 861.722656 Z M 709.570312 847.347656 " fill-opacity="1" fill-rule="nonzero"/><path fill="#41464b" d="M 790.484375 795.980469 L 804.859375 795.980469 L 804.859375 810.359375 L 790.484375 810.359375 Z M 790.484375 795.980469 " fill-opacity="1" fill-rule="nonzero"/><path fill="#41464b" d="M 423.359375 795.980469 L 437.734375 795.980469 L 437.734375 810.359375 L 423.359375 810.359375 Z M 423.359375 795.980469 " fill-opacity="1" fill-rule="nonzero"/><path fill="#ffffff" d="M 864.007812 611.484375 L 1488.410156 611.484375 L 1488.410156 1240.003906 L 864.007812 1240.003906 Z M 864.007812 611.484375 " fill-opacity="1" fill-rule="nonzero"/><path fill="#41464b" d="M 1495.601562 1247.195312 L 1021.136719 1247.195312 L 1021.136719 604.296875 L 1495.601562 604.296875 Z M 1035.515625 1232.816406 L 1481.222656 1232.816406 L 1481.222656 618.671875 L 1035.515625 618.671875 Z M 1035.515625 1232.816406 " fill-opacity="1" fill-rule="nonzero"/><path fill="#afafaf" d="M 864.007812 508.789062 L 1488.410156 508.789062 L 1488.410156 611.484375 L 864.007812 611.484375 Z M 864.007812 508.789062 " fill-opacity="1" fill-rule="nonzero"/><path fill="#41464b" d="M 1495.601562 618.671875 L 856.816406 618.671875 L 856.816406 501.597656 L 1495.601562 501.597656 Z M 871.195312 604.296875 L 1481.222656 604.296875 L 1481.222656 515.980469 L 871.195312 515.980469 Z M 871.195312 604.296875 " fill-opacity="1" fill-rule="nonzero"/><path fill="#41464b" d="M 1035.515625 1247.195312 L 856.816406 1247.195312 L 856.816406 604.296875 L 1035.515625 604.296875 Z M 871.195312 1232.816406 L 1021.132812 1232.816406 L 1021.132812 618.671875 L 871.195312 618.671875 Z M 871.195312 1232.816406 " fill-opacity="1" fill-rule="nonzero"/><path fill="#41464b" d="M 864.007812 918.5625 L 1028.324219 918.5625 L 1028.324219 932.941406 L 864.007812 932.941406 Z M 864.007812 918.5625 " fill-opacity="1" fill-rule="nonzero"/><path fill="#41464b" d="M 897.898438 552.945312 L 912.273438 552.945312 L 912.273438 567.324219 L 897.898438 567.324219 Z M 897.898438 552.945312 " fill-opacity="1" fill-rule="nonzero"/><path fill="#41464b" d="M 926.648438 552.945312 L 941.027344 552.945312 L 941.027344 567.324219 L 926.648438 567.324219 Z M 926.648438 552.945312 " fill-opacity="1" fill-rule="nonzero"/><path fill="#41464b" d="M 955.40625 552.945312 L 969.785156 552.945312 L 969.785156 567.324219 L 955.40625 567.324219 Z M 955.40625 552.945312 " fill-opacity="1" fill-rule="nonzero"/><path fill="#41464b" d="M 984.164062 552.945312 L 1454.523438 552.945312 L 1454.523438 567.324219 L 984.164062 567.324219 Z M 984.164062 552.945312 " fill-opacity="1" fill-rule="nonzero"/><path fill="#41464b" d="M 897.898438 674.128906 L 912.273438 674.128906 L 912.273438 688.507812 L 897.898438 688.507812 Z M 897.898438 674.128906 " fill-opacity="1" fill-rule="nonzero"/><path fill="#41464b" d="M 926.65625 674.128906 L 994.433594 674.128906 L 994.433594 688.507812 L 926.65625 688.507812 Z M 926.65625 674.128906 " fill-opacity="1" fill-rule="nonzero"/><path fill="#41464b" d="M 897.898438 645.375 L 912.273438 645.375 L 912.273438 659.75 L 897.898438 659.75 Z M 897.898438 645.375 " fill-opacity="1" fill-rule="nonzero"/><path fill="#41464b" d="M 926.65625 645.375 L 994.433594 645.375 L 994.433594 659.75 L 926.65625 659.75 Z M 926.65625 645.375 " fill-opacity="1" fill-rule="nonzero"/><path fill="#41464b" d="M 897.898438 702.886719 L 912.273438 702.886719 L 912.273438 717.265625 L 897.898438 717.265625 Z M 897.898438 702.886719 " fill-opacity="1" fill-rule="nonzero"/><path fill="#41464b" d="M 926.65625 702.886719 L 994.433594 702.886719 L 994.433594 717.265625 L 926.65625 717.265625 Z M 926.65625 702.886719 " fill-opacity="1" fill-rule="nonzero"/><path fill="#41464b" d="M 897.898438 731.640625 L 912.273438 731.640625 L 912.273438 746.019531 L 897.898438 746.019531 Z M 897.898438 731.640625 " fill-opacity="1" fill-rule="nonzero"/><path fill="#41464b" d="M 926.65625 731.640625 L 994.433594 731.640625 L 994.433594 746.019531 L 926.65625 746.019531 Z M 926.65625 731.640625 " fill-opacity="1" fill-rule="nonzero"/><path fill="#41464b" d="M 897.898438 760.398438 L 912.273438 760.398438 L 912.273438 774.773438 L 897.898438 774.773438 Z M 897.898438 760.398438 " fill-opacity="1" fill-rule="nonzero"/><path fill="#41464b" d="M 926.65625 760.398438 L 994.433594 760.398438 L 994.433594 774.773438 L 926.65625 774.773438 Z M 926.65625 760.398438 " fill-opacity="1" fill-rule="nonzero"/><path fill="#41464b" d="M 897.898438 861.050781 L 912.273438 861.050781 L 912.273438 875.425781 L 897.898438 875.425781 Z M 897.898438 861.050781 " fill-opacity="1" fill-rule="nonzero"/><path fill="#41464b" d="M 926.65625 861.050781 L 994.433594 861.050781 L 994.433594 875.425781 L 926.65625 875.425781 Z M 926.65625 861.050781 " fill-opacity="1" fill-rule="nonzero"/><path fill="#41464b" d="M 897.898438 889.804688 L 912.273438 889.804688 L 912.273438 904.183594 L 897.898438 904.183594 Z M 897.898438 889.804688 " fill-opacity="1" fill-rule="nonzero"/><path fill="#41464b" d="M 926.65625 889.804688 L 994.433594 889.804688 L 994.433594 904.183594 L 926.65625 904.183594 Z M 926.65625 889.804688 " fill-opacity="1" fill-rule="nonzero"/><path fill="#41464b" d="M 897.898438 1047.964844 L 912.273438 1047.964844 L 912.273438 1062.339844 L 897.898438 1062.339844 Z M 897.898438 1047.964844 " fill-opacity="1" fill-rule="nonzero"/><path fill="#41464b" d="M 926.65625 1047.964844 L 994.433594 1047.964844 L 994.433594 1062.339844 L 926.65625 1062.339844 Z M 926.65625 1047.964844 " fill-opacity="1" fill-rule="nonzero"/><path fill="#41464b" d="M 897.898438 1076.71875 L 912.273438 1076.71875 L 912.273438 1091.089844 L 897.898438 1091.089844 Z M 897.898438 1076.71875 " fill-opacity="1" fill-rule="nonzero"/><path fill="#41464b" d="M 926.65625 1076.71875 L 994.433594 1076.71875 L 994.433594 1091.089844 L 926.65625 1091.089844 Z M 926.65625 1076.71875 " fill-opacity="1" fill-rule="nonzero"/><path fill="#41464b" d="M 897.898438 1105.46875 L 912.273438 1105.46875 L 912.273438 1119.847656 L 897.898438 1119.847656 Z M 897.898438 1105.46875 " fill-opacity="1" fill-rule="nonzero"/><path fill="#41464b" d="M 926.65625 1105.46875 L 994.433594 1105.46875 L 994.433594 1119.847656 L 926.65625 1119.847656 Z M 926.65625 1105.46875 " fill-opacity="1" fill-rule="nonzero"/><path fill="#41464b" d="M 897.898438 1134.226562 L 912.273438 1134.226562 L 912.273438 1148.605469 L 897.898438 1148.605469 Z M 897.898438 1134.226562 " fill-opacity="1" fill-rule="nonzero"/><path fill="#41464b" d="M 926.65625 1134.226562 L 994.433594 1134.226562 L 994.433594 1148.605469 L 926.65625 1148.605469 Z M 926.65625 1134.226562 " fill-opacity="1" fill-rule="nonzero"/><path fill="#41464b" d="M 897.898438 1162.980469 L 912.273438 1162.980469 L 912.273438 1177.355469 L 897.898438 1177.355469 Z M 897.898438 1162.980469 " fill-opacity="1" fill-rule="nonzero"/><path fill="#41464b" d="M 926.65625 1162.980469 L 994.433594 1162.980469 L 994.433594 1177.355469 L 926.65625 1177.355469 Z M 926.65625 1162.980469 " fill-opacity="1" fill-rule="nonzero"/><path fill="#41464b" d="M 897.898438 1191.738281 L 912.273438 1191.738281 L 912.273438 1206.113281 L 897.898438 1206.113281 Z M 897.898438 1191.738281 " fill-opacity="1" fill-rule="nonzero"/><path fill="#41464b" d="M 926.65625 1191.738281 L 994.433594 1191.738281 L 994.433594 1206.113281 L 926.65625 1206.113281 Z M 926.65625 1191.738281 " fill-opacity="1" fill-rule="nonzero"/><path fill="#41464b" d="M 1454.523438 861.050781 L 1123.835938 861.050781 L 1123.835938 760.398438 L 1454.523438 760.398438 Z M 1138.214844 846.671875 L 1440.144531 846.671875 L 1440.144531 774.773438 L 1138.214844 774.773438 Z M 1138.214844 846.671875 " fill-opacity="1" fill-rule="nonzero"/><path fill="#41464b" d="M 1454.523438 1091.097656 L 1123.835938 1091.097656 L 1123.835938 990.453125 L 1454.523438 990.453125 Z M 1138.214844 1076.71875 L 1440.144531 1076.71875 L 1440.144531 1004.832031 L 1138.214844 1004.832031 Z M 1138.214844 1076.71875 " fill-opacity="1" fill-rule="nonzero"/><path fill="#ff7443" d="M 1152.589844 1019.207031 L 1425.765625 1019.207031 L 1425.765625 1062.339844 L 1152.589844 1062.339844 Z M 1152.589844 1019.207031 " fill-opacity="1" fill-rule="nonzero"/><path fill="#41464b" d="M 1339.5 976.074219 L 1123.835938 976.074219 L 1123.835938 875.429688 L 1339.5 875.429688 Z M 1138.214844 961.695312 L 1325.121094 961.695312 L 1325.121094 889.804688 L 1138.214844 889.804688 Z M 1138.214844 961.695312 " fill-opacity="1" fill-rule="nonzero"/><path fill="#41464b" d="M 1224.480469 746.019531 L 1123.839844 746.019531 L 1123.839844 645.375 L 1224.480469 645.375 Z M 1138.214844 731.640625 L 1210.105469 731.640625 L 1210.105469 659.75 L 1138.214844 659.75 Z M 1138.214844 731.640625 " fill-opacity="1" fill-rule="nonzero"/><path fill="#41464b" d="M 1339.5 746.019531 L 1238.855469 746.019531 L 1238.855469 645.375 L 1339.5 645.375 Z M 1253.230469 731.640625 L 1325.121094 731.640625 L 1325.121094 659.75 L 1253.230469 659.75 Z M 1253.230469 731.640625 " fill-opacity="1" fill-rule="nonzero"/><path fill="#41464b" d="M 1454.523438 746.019531 L 1353.878906 746.019531 L 1353.878906 645.375 L 1454.523438 645.375 Z M 1368.253906 731.640625 L 1440.144531 731.640625 L 1440.144531 659.75 L 1368.253906 659.75 Z M 1368.253906 731.640625 " fill-opacity="1" fill-rule="nonzero"/><path fill="#4cbed8" d="M 1382.632812 674.128906 L 1425.765625 674.128906 L 1425.765625 717.261719 L 1382.632812 717.261719 Z M 1382.632812 674.128906 " fill-opacity="1" fill-rule="nonzero"/><path fill="#41464b" d="M 1454.523438 1206.113281 L 1353.878906 1206.113281 L 1353.878906 1105.46875 L 1454.523438 1105.46875 Z M 1368.253906 1191.738281 L 1440.144531 1191.738281 L 1440.144531 1119.847656 L 1368.253906 1119.847656 Z M 1368.253906 1191.738281 " fill-opacity="1" fill-rule="nonzero"/><path fill="#41464b" d="M 1366.148438 1107.554688 L 1452.414062 1193.824219 L 1442.25 1203.988281 L 1355.984375 1117.71875 Z M 1366.148438 1107.554688 " fill-opacity="1" fill-rule="nonzero"/><path fill="#41464b" d="M 1131.023438 1047.964844 L 1062.214844 1047.964844 L 1062.214844 688.507812 L 1131.023438 688.507812 L 1131.023438 702.886719 L 1076.59375 702.886719 L 1076.59375 1033.582031 L 1131.023438 1033.582031 Z M 1131.023438 1047.964844 " fill-opacity="1" fill-rule="nonzero"/><path fill="#41464b" d="M 1069.402344 803.53125 L 1131.023438 803.53125 L 1131.023438 817.910156 L 1069.402344 817.910156 Z M 1069.402344 803.53125 " fill-opacity="1" fill-rule="nonzero"/><path fill="#41464b" d="M 1069.402344 918.5625 L 1131.023438 918.5625 L 1131.023438 932.941406 L 1069.402344 932.941406 Z M 1069.402344 918.5625 " fill-opacity="1" fill-rule="nonzero"/><path fill="#41464b" d="M 1382.632812 918.5625 L 1397.007812 918.5625 L 1397.007812 932.941406 L 1382.632812 932.941406 Z M 1382.632812 918.5625 " fill-opacity="1" fill-rule="nonzero"/><path fill="#41464b" d="M 1411.386719 918.5625 L 1425.765625 918.5625 L 1425.765625 932.941406 L 1411.386719 932.941406 Z M 1411.386719 918.5625 " fill-opacity="1" fill-rule="nonzero"/><path fill="#41464b" d="M 1440.144531 918.5625 L 1454.523438 918.5625 L 1454.523438 932.941406 L 1440.144531 932.941406 Z M 1440.144531 918.5625 " fill-opacity="1" fill-rule="nonzero"/><path fill="#41464b" d="M 1062.214844 1162.980469 L 1339.5 1162.980469 L 1339.5 1177.355469 L 1062.214844 1177.355469 Z M 1062.214844 1162.980469 " fill-opacity="1" fill-rule="nonzero"/><path fill="#41464b" d="M 1062.214844 1191.738281 L 1339.5 1191.738281 L 1339.5 1206.113281 L 1062.214844 1206.113281 Z M 1062.214844 1191.738281 " fill-opacity="1" fill-rule="nonzero"/><path fill="#41464b" d="M 1062.214844 1134.226562 L 1102.371094 1134.226562 L 1102.371094 1148.605469 L 1062.214844 1148.605469 Z M 1062.214844 1134.226562 " fill-opacity="1" fill-rule="nonzero"/><path fill="#41464b" d="M 1116.75 1134.226562 L 1156.898438 1134.226562 L 1156.898438 1148.605469 L 1116.75 1148.605469 Z M 1116.75 1134.226562 " fill-opacity="1" fill-rule="nonzero"/><path fill="#41464b" d="M 1171.277344 1134.226562 L 1211.433594 1134.226562 L 1211.433594 1148.605469 L 1171.277344 1148.605469 Z M 1171.277344 1134.226562 " fill-opacity="1" fill-rule="nonzero"/><path fill="#41464b" d="M 901.664062 1303.890625 L 1171.703125 1303.890625 L 1171.703125 1318.261719 L 901.664062 1318.261719 Z M 901.664062 1303.890625 " fill-opacity="1" fill-rule="nonzero"/><path fill="#41464b" d="M 1226.382812 1303.890625 L 1319.679688 1303.890625 L 1319.679688 1318.261719 L 1226.382812 1318.261719 Z M 1226.382812 1303.890625 " fill-opacity="1" fill-rule="nonzero"/><path fill="#41464b" d="M 1188.96875 1335.53125 C 1175.488281 1335.53125 1164.515625 1324.5625 1164.515625 1311.074219 C 1164.515625 1297.597656 1175.488281 1286.621094 1188.96875 1286.621094 C 1202.457031 1286.621094 1213.433594 1297.597656 1213.433594 1311.074219 C 1213.433594 1324.5625 1202.460938 1335.53125 1188.96875 1335.53125 Z M 1188.96875 1301 C 1183.417969 1301 1178.890625 1305.523438 1178.890625 1311.074219 C 1178.890625 1316.636719 1183.414062 1321.152344 1188.96875 1321.152344 C 1194.527344 1321.152344 1199.058594 1316.640625 1199.058594 1311.074219 C 1199.058594 1305.527344 1194.535156 1301 1188.96875 1301 Z M 1188.96875 1301 " fill-opacity="1" fill-rule="nonzero"/><path fill="#41464b" d="M 901.664062 1347.0625 L 1106.476562 1347.0625 L 1106.476562 1361.4375 L 901.664062 1361.4375 Z M 901.664062 1347.0625 " fill-opacity="1" fill-rule="nonzero"/><path fill="#41464b" d="M 1161.152344 1347.0625 L 1319.679688 1347.0625 L 1319.679688 1361.4375 L 1161.152344 1361.4375 Z M 1161.152344 1347.0625 " fill-opacity="1" fill-rule="nonzero"/><path fill="#41464b" d="M 1123.742188 1378.707031 C 1110.261719 1378.707031 1099.289062 1367.730469 1099.289062 1354.25 C 1099.289062 1340.761719 1110.261719 1329.792969 1123.742188 1329.792969 C 1137.226562 1329.792969 1148.199219 1340.761719 1148.199219 1354.25 C 1148.199219 1367.730469 1137.226562 1378.707031 1123.742188 1378.707031 Z M 1123.742188 1344.171875 C 1118.191406 1344.171875 1113.664062 1348.6875 1113.664062 1354.25 C 1113.664062 1359.804688 1118.1875 1364.328125 1123.742188 1364.328125 C 1129.296875 1364.328125 1133.820312 1359.808594 1133.820312 1354.25 C 1133.816406 1348.6875 1129.296875 1344.171875 1123.742188 1344.171875 Z M 1123.742188 1344.171875 " fill-opacity="1" fill-rule="nonzero"/><path fill="#41464b" d="M 901.664062 1390.230469 L 966.980469 1390.230469 L 966.980469 1404.605469 L 901.664062 1404.605469 Z M 901.664062 1390.230469 " fill-opacity="1" fill-rule="nonzero"/><path fill="#41464b" d="M 1021.660156 1390.230469 L 1319.679688 1390.230469 L 1319.679688 1404.605469 L 1021.660156 1404.605469 Z M 1021.660156 1390.230469 " fill-opacity="1" fill-rule="nonzero"/><path fill="#41464b" d="M 984.25 1421.875 C 970.765625 1421.875 959.792969 1410.902344 959.792969 1397.417969 C 959.792969 1383.929688 970.765625 1372.960938 984.25 1372.960938 C 997.734375 1372.960938 1008.710938 1383.929688 1008.710938 1397.417969 C 1008.710938 1410.902344 997.734375 1421.875 984.25 1421.875 Z M 984.25 1387.339844 C 978.695312 1387.339844 974.167969 1391.851562 974.167969 1397.417969 C 974.167969 1402.972656 978.691406 1407.496094 984.25 1407.496094 C 989.8125 1407.496094 994.335938 1402.976562 994.335938 1397.417969 C 994.335938 1391.851562 989.804688 1387.339844 984.25 1387.339844 Z M 984.25 1387.339844 " fill-opacity="1" fill-rule="nonzero"/><path fill="#41464b" d="M 901.664062 1433.398438 L 1200.488281 1433.398438 L 1200.488281 1447.773438 L 901.664062 1447.773438 Z M 901.664062 1433.398438 " fill-opacity="1" fill-rule="nonzero"/><path fill="#41464b" d="M 1255.171875 1433.398438 L 1319.679688 1433.398438 L 1319.679688 1447.773438 L 1255.171875 1447.773438 Z M 1255.171875 1433.398438 " fill-opacity="1" fill-rule="nonzero"/><path fill="#41464b" d="M 1217.75 1465.042969 C 1204.269531 1465.042969 1193.296875 1454.066406 1193.296875 1440.589844 C 1193.296875 1427.105469 1204.269531 1416.125 1217.75 1416.125 C 1231.238281 1416.125 1242.214844 1427.105469 1242.214844 1440.589844 C 1242.214844 1454.066406 1231.238281 1465.042969 1217.75 1465.042969 Z M 1217.75 1430.503906 C 1212.199219 1430.503906 1207.675781 1435.027344 1207.675781 1440.589844 C 1207.675781 1446.140625 1212.195312 1450.667969 1217.75 1450.667969 C 1223.3125 1450.667969 1227.835938 1446.144531 1227.835938 1440.589844 C 1227.832031 1435.027344 1223.3125 1430.503906 1217.75 1430.503906 Z M 1217.75 1430.503906 " fill-opacity="1" fill-rule="nonzero"/><path fill="#fed65c" d="M 655.578125 1419.351562 C 655.578125 1430.648438 646.332031 1439.890625 635.039062 1439.890625 L 470.296875 1439.890625 C 459 1439.890625 449.757812 1430.644531 449.757812 1419.351562 L 449.757812 1254.609375 C 449.757812 1243.308594 459 1234.074219 470.296875 1234.074219 L 635.039062 1234.074219 C 646.332031 1234.074219 655.578125 1243.3125 655.578125 1254.609375 Z M 655.578125 1419.351562 " fill-opacity="1" fill-rule="nonzero"/><path fill="#41464b" d="M 588.605469 1372.921875 L 602.984375 1372.921875 L 602.984375 1387.296875 L 588.605469 1387.296875 Z M 588.605469 1372.921875 " fill-opacity="1" fill-rule="nonzero"/><path fill="#41464b" d="M 574.226562 1387.296875 L 559.851562 1387.296875 L 559.851562 1372.921875 L 574.226562 1372.921875 Z M 545.472656 1387.296875 L 531.09375 1387.296875 L 531.09375 1372.921875 L 545.472656 1372.921875 Z M 545.472656 1387.296875 " fill-opacity="1" fill-rule="nonzero"/><path fill="#41464b" d="M 502.335938 1372.921875 L 516.714844 1372.921875 L 516.714844 1387.296875 L 502.335938 1387.296875 Z M 502.335938 1372.921875 " fill-opacity="1" fill-rule="nonzero"/><path fill="#41464b" d="M 516.714844 1358.539062 L 502.335938 1358.539062 L 502.335938 1344.164062 L 516.714844 1344.164062 Z M 516.714844 1329.785156 L 502.335938 1329.785156 L 502.335938 1315.417969 L 516.714844 1315.417969 Z M 516.714844 1329.785156 " fill-opacity="1" fill-rule="nonzero"/><path fill="#41464b" d="M 502.335938 1286.660156 L 516.714844 1286.660156 L 516.714844 1301.039062 L 502.335938 1301.039062 Z M 502.335938 1286.660156 " fill-opacity="1" fill-rule="nonzero"/><path fill="#41464b" d="M 574.226562 1301.039062 L 559.851562 1301.039062 L 559.851562 1286.660156 L 574.226562 1286.660156 Z M 545.472656 1301.039062 L 531.09375 1301.039062 L 531.09375 1286.660156 L 545.472656 1286.660156 Z M 545.472656 1301.039062 " fill-opacity="1" fill-rule="nonzero"/><path fill="#41464b" d="M 588.605469 1286.660156 L 602.984375 1286.660156 L 602.984375 1301.039062 L 588.605469 1301.039062 Z M 588.605469 1286.660156 " fill-opacity="1" fill-rule="nonzero"/><path fill="#41464b" d="M 602.984375 1358.539062 L 588.605469 1358.539062 L 588.605469 1344.171875 L 602.984375 1344.171875 Z M 602.984375 1329.792969 L 588.605469 1329.792969 L 588.605469 1315.417969 L 602.984375 1315.417969 Z M 602.984375 1329.792969 " fill-opacity="1" fill-rule="nonzero"/><path fill="#41464b" d="M 682.316406 1173.960938 L 754.199219 1173.960938 L 754.199219 1188.332031 L 682.316406 1188.332031 Z M 682.316406 1173.960938 " fill-opacity="1" fill-rule="nonzero"/><path fill="#41464b" d="M 634.480469 1265.355469 L 624.308594 1255.1875 L 679.335938 1200.148438 L 754.199219 1200.148438 L 754.199219 1214.527344 L 685.289062 1214.527344 Z M 634.480469 1265.355469 " fill-opacity="1" fill-rule="nonzero"/><path fill="#41464b" d="M 351.136719 1485.625 L 423.027344 1485.625 L 423.027344 1500 L 351.136719 1500 Z M 351.136719 1485.625 " fill-opacity="1" fill-rule="nonzero"/><path fill="#41464b" d="M 426 1473.816406 L 351.136719 1473.816406 L 351.136719 1459.433594 L 420.046875 1459.433594 L 470.863281 1408.597656 L 481.023438 1418.761719 Z M 426 1473.816406 " fill-opacity="1" fill-rule="nonzero"/><path fill="#41464b" d="M 754.199219 1473.816406 L 679.335938 1473.816406 L 624.308594 1418.761719 L 634.480469 1408.597656 L 685.289062 1459.433594 L 754.199219 1459.433594 Z M 754.199219 1473.816406 " fill-opacity="1" fill-rule="nonzero"/><path fill="#41464b" d="M 682.316406 1485.625 L 696.691406 1485.625 L 696.691406 1500 L 682.316406 1500 Z M 682.316406 1485.625 " fill-opacity="1" fill-rule="nonzero"/><path fill="#41464b" d="M 711.054688 1485.625 L 725.453125 1485.625 L 725.453125 1500 L 711.054688 1500 Z M 711.054688 1485.625 " fill-opacity="1" fill-rule="nonzero"/><path fill="#41464b" d="M 739.804688 1485.625 L 754.195312 1485.625 L 754.195312 1500 L 739.804688 1500 Z M 739.804688 1485.625 " fill-opacity="1" fill-rule="nonzero"/><path fill="#41464b" d="M 470.863281 1265.355469 L 420.046875 1214.527344 L 351.136719 1214.527344 L 351.136719 1200.148438 L 426 1200.148438 L 481.023438 1255.1875 Z M 470.863281 1265.355469 " fill-opacity="1" fill-rule="nonzero"/><path fill="#41464b" d="M 351.136719 1173.960938 L 365.53125 1173.960938 L 365.53125 1188.332031 L 351.136719 1188.332031 Z M 351.136719 1173.960938 " fill-opacity="1" fill-rule="nonzero"/><path fill="#41464b" d="M 379.871094 1173.960938 L 394.277344 1173.960938 L 394.277344 1188.332031 L 379.871094 1188.332031 Z M 379.871094 1173.960938 " fill-opacity="1" fill-rule="nonzero"/><path fill="#41464b" d="M 408.660156 1173.960938 L 423.023438 1173.960938 L 423.023438 1188.332031 L 408.660156 1188.332031 Z M 408.660156 1173.960938 " fill-opacity="1" fill-rule="nonzero"/><path fill="#41464b" d="M 170.160156 1312.539062 L 162.96875 1312.539062 L 162.96875 1298.164062 L 170.160156 1298.164062 C 173.417969 1298.164062 176.476562 1296.890625 178.777344 1294.589844 C 181.085938 1292.277344 182.355469 1289.214844 182.355469 1285.964844 L 182.355469 1208.433594 C 182.355469 1205.175781 181.085938 1202.113281 178.78125 1199.800781 C 176.480469 1197.507812 173.417969 1196.238281 170.160156 1196.238281 L 162.96875 1196.238281 L 162.96875 1181.859375 L 170.160156 1181.859375 C 177.257812 1181.859375 183.929688 1184.621094 188.945312 1189.636719 C 193.964844 1194.660156 196.734375 1201.335938 196.734375 1208.433594 L 196.734375 1285.964844 C 196.734375 1293.058594 193.96875 1299.734375 188.945312 1304.746094 C 183.9375 1309.769531 177.261719 1312.539062 170.160156 1312.539062 Z M 170.160156 1312.539062 " fill-opacity="1" fill-rule="nonzero"/><path fill="#41464b" d="M 72.679688 1312.539062 L 65.492188 1312.539062 C 58.390625 1312.539062 51.71875 1309.769531 46.699219 1304.746094 C 41.679688 1299.726562 38.921875 1293.046875 38.921875 1285.964844 L 38.921875 1208.433594 C 38.921875 1201.339844 41.679688 1194.667969 46.695312 1189.644531 C 51.726562 1184.625 58.402344 1181.859375 65.492188 1181.859375 L 72.679688 1181.859375 L 72.679688 1196.238281 L 65.492188 1196.238281 C 62.234375 1196.238281 59.167969 1197.507812 56.863281 1199.808594 C 54.566406 1202.105469 53.300781 1205.179688 53.300781 1208.433594 L 53.300781 1285.964844 C 53.300781 1289.214844 54.566406 1292.277344 56.871094 1294.589844 C 59.171875 1296.890625 62.242188 1298.164062 65.5 1298.164062 L 72.6875 1298.164062 L 72.6875 1312.539062 Z M 72.679688 1312.539062 " fill-opacity="1" fill-rule="nonzero"/><path fill="#41464b" d="M 82.816406 1240.015625 L 97.207031 1240.015625 L 97.207031 1254.394531 L 82.816406 1254.394531 Z M 82.816406 1240.015625 " fill-opacity="1" fill-rule="nonzero"/><path fill="#41464b" d="M 108.699219 1240.015625 L 123.078125 1240.015625 L 123.078125 1254.394531 L 108.699219 1254.394531 Z M 108.699219 1240.015625 " fill-opacity="1" fill-rule="nonzero"/><path fill="#41464b" d="M 134.574219 1240.015625 L 148.960938 1240.015625 L 148.960938 1254.394531 L 134.574219 1254.394531 Z M 134.574219 1240.015625 " fill-opacity="1" fill-rule="nonzero"/><path fill="#41464b" d="M 625.898438 244.28125 L 669.488281 244.28125 L 669.488281 258.660156 L 625.898438 258.660156 Z M 625.898438 244.28125 " fill-opacity="1" fill-rule="nonzero"/><path fill="#41464b" d="M 669.492188 301.796875 L 712.167969 301.796875 L 712.167969 316.175781 L 669.492188 316.175781 Z M 669.492188 301.796875 " fill-opacity="1" fill-rule="nonzero"/><path fill="#41464b" d="M 669.492188 330.527344 L 712.167969 330.527344 L 712.167969 344.90625 L 669.492188 344.90625 Z M 669.492188 330.527344 " fill-opacity="1" fill-rule="nonzero"/><path fill="#41464b" d="M 625.898438 273.007812 L 712.167969 273.007812 L 712.167969 287.386719 L 625.898438 287.386719 Z M 625.898438 273.007812 " fill-opacity="1" fill-rule="nonzero"/><path fill="#41464b" d="M 669.492188 186.753906 L 712.167969 186.753906 L 712.167969 201.132812 L 669.492188 201.132812 Z M 669.492188 186.753906 " fill-opacity="1" fill-rule="nonzero"/><path fill="#41464b" d="M 669.492188 215.519531 L 712.167969 215.519531 L 712.167969 229.898438 L 669.492188 229.898438 Z M 669.492188 215.519531 " fill-opacity="1" fill-rule="nonzero"/><path fill="#41464b" d="M 625.898438 157.996094 L 712.167969 157.996094 L 712.167969 172.375 L 625.898438 172.375 Z M 625.898438 157.996094 " fill-opacity="1" fill-rule="nonzero"/><path fill="#41464b" d="M 861.648438 244.246094 L 905.234375 244.246094 L 905.234375 258.625 L 861.648438 258.625 Z M 861.648438 244.246094 " fill-opacity="1" fill-rule="nonzero"/><path fill="#41464b" d="M 818.976562 186.71875 L 861.652344 186.71875 L 861.652344 201.097656 L 818.976562 201.097656 Z M 818.976562 186.71875 " fill-opacity="1" fill-rule="nonzero"/><path fill="#41464b" d="M 818.976562 157.996094 L 861.652344 157.996094 L 861.652344 172.375 L 818.976562 172.375 Z M 818.976562 157.996094 " fill-opacity="1" fill-rule="nonzero"/><path fill="#41464b" d="M 818.976562 215.519531 L 905.242188 215.519531 L 905.242188 229.898438 L 818.976562 229.898438 Z M 818.976562 215.519531 " fill-opacity="1" fill-rule="nonzero"/><path fill="#41464b" d="M 818.976562 301.765625 L 861.652344 301.765625 L 861.652344 316.144531 L 818.976562 316.144531 Z M 818.976562 301.765625 " fill-opacity="1" fill-rule="nonzero"/><path fill="#41464b" d="M 818.976562 273.007812 L 861.652344 273.007812 L 861.652344 287.386719 L 818.976562 287.386719 Z M 818.976562 273.007812 " fill-opacity="1" fill-rule="nonzero"/><path fill="#41464b" d="M 818.976562 330.527344 L 905.242188 330.527344 L 905.242188 344.90625 L 818.976562 344.90625 Z M 818.976562 330.527344 " fill-opacity="1" fill-rule="nonzero"/><path fill="#41464b" d="M 959.300781 258.636719 C 951.648438 258.636719 944.421875 255.644531 938.949219 250.222656 C 933.472656 244.75 930.46875 237.507812 930.46875 229.804688 L 930.46875 139.585938 C 930.46875 135.722656 928.96875 132.09375 926.242188 129.359375 C 923.527344 126.628906 919.902344 125.132812 916.019531 125.132812 L 905.242188 125.132812 L 905.242188 110.753906 L 916.019531 110.753906 C 923.769531 110.753906 931.011719 113.757812 936.425781 119.214844 C 941.847656 124.648438 944.847656 131.886719 944.847656 139.582031 L 944.847656 229.804688 C 944.847656 233.667969 946.351562 237.296875 949.089844 240.023438 C 951.832031 242.75 955.46875 244.253906 959.300781 244.253906 Z M 959.300781 258.636719 " fill-opacity="1" fill-rule="nonzero"/><path fill="#41464b" d="M 916.019531 392.144531 L 905.242188 392.144531 L 905.242188 377.765625 L 916.019531 377.765625 C 919.902344 377.765625 923.523438 376.273438 926.222656 373.554688 C 928.964844 370.804688 930.46875 367.167969 930.46875 363.3125 L 930.46875 273.09375 C 930.46875 265.390625 933.472656 258.148438 938.929688 252.695312 C 944.425781 247.25 951.652344 244.257812 959.300781 244.257812 L 959.300781 258.636719 C 955.46875 258.636719 951.832031 260.144531 949.070312 262.890625 C 946.351562 265.601562 944.847656 269.230469 944.847656 273.09375 L 944.847656 363.316406 C 944.847656 371.007812 941.847656 378.246094 936.414062 383.695312 C 931.007812 389.140625 923.765625 392.144531 916.019531 392.144531 Z M 916.019531 392.144531 " fill-opacity="1" fill-rule="nonzero"/><path fill="#41464b" d="M 571.835938 258.636719 L 571.835938 244.257812 C 575.671875 244.257812 579.296875 242.753906 582.03125 240.03125 C 584.773438 237.296875 586.28125 233.667969 586.28125 229.808594 L 586.28125 139.585938 C 586.28125 131.894531 589.273438 124.65625 594.703125 119.207031 C 600.136719 113.753906 607.382812 110.753906 615.109375 110.753906 L 625.902344 110.753906 L 625.902344 125.132812 L 615.109375 125.132812 C 611.234375 125.132812 607.605469 126.632812 604.890625 129.355469 C 602.164062 132.089844 600.660156 135.726562 600.660156 139.585938 L 600.660156 229.808594 C 600.660156 237.519531 597.648438 244.765625 592.183594 250.210938 C 586.734375 255.640625 579.503906 258.636719 571.835938 258.636719 Z M 571.835938 258.636719 " fill-opacity="1" fill-rule="nonzero"/><path fill="#41464b" d="M 625.898438 392.144531 L 615.105469 392.144531 C 607.382812 392.144531 600.140625 389.144531 594.703125 383.695312 C 589.265625 378.238281 586.277344 371 586.277344 363.316406 L 586.277344 273.09375 C 586.277344 269.230469 584.769531 265.605469 582.03125 262.878906 C 579.292969 260.144531 575.667969 258.640625 571.832031 258.640625 L 571.832031 244.261719 C 579.503906 244.261719 586.734375 247.257812 592.183594 252.703125 C 597.644531 258.144531 600.65625 265.386719 600.65625 273.097656 L 600.65625 363.320312 C 600.65625 367.175781 602.160156 370.808594 604.886719 373.554688 C 607.597656 376.277344 611.226562 377.777344 615.101562 377.777344 L 625.894531 377.777344 L 625.894531 392.144531 Z M 625.898438 392.144531 " fill-opacity="1" fill-rule="nonzero"/><path fill="#ff7443" d="M 736.8125 64.191406 L 736.804688 402.253906 L 794.3125 402.253906 L 794.316406 64.191406 L 765.5625 92.941406 Z M 736.8125 64.191406 " fill-opacity="1" fill-rule="nonzero"/><path fill="#afafaf" d="M 781.996094 488.519531 C 785.148438 488.519531 788.300781 487.3125 790.707031 484.910156 C 793.117188 482.5 794.316406 479.347656 794.316406 476.195312 L 794.316406 459.765625 L 736.808594 459.765625 L 736.808594 476.195312 C 736.808594 479.347656 738.015625 482.5 740.417969 484.910156 C 742.820312 487.316406 745.976562 488.519531 749.128906 488.519531 Z M 781.996094 488.519531 " fill-opacity="1" fill-rule="nonzero"/><path fill="#41464b" d="M 758.371094 92.941406 L 772.75 92.941406 L 772.75 402.253906 L 758.371094 402.253906 Z M 758.371094 92.941406 " fill-opacity="1" fill-rule="nonzero"/><path fill="#41464b" d="M 788.09375 67.78125 L 765.5625 28.765625 L 743.042969 67.78125 L 730.589844 60.597656 L 765.5625 0 L 800.539062 60.597656 Z M 788.09375 67.78125 " fill-opacity="1" fill-rule="nonzero"/><path fill="#41464b" d="M 743.996094 402.253906 L 729.617188 402.253906 L 729.625 64.191406 C 729.625 61.285156 731.378906 58.664062 734.0625 57.550781 C 736.75 56.449219 739.839844 57.050781 741.898438 59.113281 L 765.5625 82.777344 L 789.238281 59.113281 C 791.292969 57.054688 794.382812 56.449219 797.070312 57.550781 C 799.757812 58.664062 801.511719 61.285156 801.511719 64.191406 L 801.503906 402.253906 L 787.125 402.253906 L 787.128906 81.546875 L 770.644531 98.023438 C 767.839844 100.832031 763.289062 100.832031 760.484375 98.023438 L 744.007812 81.550781 Z M 743.996094 402.253906 " fill-opacity="1" fill-rule="nonzero"/><path fill="#41464b" d="M 801.507812 466.953125 L 729.617188 466.953125 L 729.617188 395.066406 L 801.507812 395.066406 Z M 743.996094 452.574219 L 787.128906 452.574219 L 787.128906 409.441406 L 743.996094 409.441406 Z M 743.996094 452.574219 " fill-opacity="1" fill-rule="nonzero"/><path fill="#41464b" d="M 781.996094 495.707031 L 749.128906 495.707031 C 743.921875 495.707031 739.019531 493.675781 735.335938 489.988281 C 731.644531 486.300781 729.617188 481.402344 729.617188 476.191406 L 729.617188 452.574219 L 801.507812 452.574219 L 801.507812 476.191406 C 801.507812 481.402344 799.480469 486.304688 795.785156 489.988281 C 792.101562 493.675781 787.207031 495.707031 781.996094 495.707031 Z M 743.996094 466.953125 L 743.996094 476.195312 C 743.996094 477.570312 744.527344 478.855469 745.5 479.828125 C 746.472656 480.796875 747.761719 481.332031 749.128906 481.332031 L 781.996094 481.332031 C 783.363281 481.332031 784.652344 480.796875 785.625 479.828125 C 786.59375 478.859375 787.125 477.570312 787.125 476.195312 L 787.125 466.953125 Z M 743.996094 466.953125 " fill-opacity="1" fill-rule="nonzero"/><path fill="#41464b" d="M 736.804688 423.820312 L 794.3125 423.820312 L 794.3125 438.199219 L 736.804688 438.199219 Z M 736.804688 423.820312 " fill-opacity="1" fill-rule="nonzero"/><path fill="#fed65c" d="M 1021.710938 245.402344 L 1157.273438 245.402344 L 1157.273438 380.96875 L 1021.710938 380.96875 Z M 1021.710938 245.402344 " fill-opacity="1" fill-rule="nonzero"/><path fill="#41464b" d="M 1239.304688 463 L 1101.691406 463 L 1101.691406 325.382812 L 1239.304688 325.382812 Z M 1116.0625 448.621094 L 1224.925781 448.621094 L 1224.925781 339.761719 L 1116.0625 339.761719 Z M 1116.0625 448.621094 " fill-opacity="1" fill-rule="nonzero"/><path fill="#41464b" d="M 1326.976562 318.195312 L 1296.550781 318.195312 L 1287.773438 295.203125 C 1283.226562 293.769531 1278.808594 291.9375 1274.566406 289.714844 L 1252.074219 299.738281 L 1230.589844 278.261719 L 1240.625 255.777344 C 1238.414062 251.546875 1236.574219 247.125 1235.140625 242.558594 L 1212.15625 233.800781 L 1212.15625 203.347656 L 1235.144531 194.582031 C 1236.578125 190.035156 1238.410156 185.617188 1240.628906 181.367188 L 1230.589844 158.890625 L 1252.078125 137.386719 L 1274.558594 147.445312 C 1278.769531 145.234375 1283.199219 143.394531 1287.773438 141.953125 L 1296.550781 118.976562 L 1326.976562 118.976562 L 1335.757812 141.953125 C 1340.34375 143.394531 1344.765625 145.230469 1348.972656 147.445312 L 1371.46875 137.386719 L 1392.9375 158.890625 L 1382.917969 181.367188 C 1385.121094 185.609375 1386.960938 190.035156 1388.398438 194.582031 L 1411.386719 203.351562 L 1411.386719 233.800781 L 1388.402344 242.558594 C 1386.964844 247.132812 1385.125 251.550781 1382.921875 255.777344 L 1392.9375 278.257812 L 1371.472656 299.738281 L 1348.964844 289.714844 C 1344.71875 291.933594 1340.304688 293.773438 1335.757812 295.203125 Z M 1306.453125 303.816406 L 1317.082031 303.816406 L 1324.921875 283.292969 L 1328.480469 282.351562 C 1334.25 280.824219 1339.808594 278.515625 1345.011719 275.484375 L 1348.1875 273.632812 L 1368.292969 282.582031 L 1375.789062 275.085938 L 1366.832031 254.996094 L 1368.6875 251.8125 C 1371.699219 246.660156 1374.003906 241.09375 1375.546875 235.273438 L 1376.488281 231.710938 L 1397.007812 223.886719 L 1397.007812 213.25 L 1376.492188 205.417969 L 1375.546875 201.867188 C 1374.011719 196.078125 1371.699219 190.503906 1368.675781 185.296875 L 1366.832031 182.117188 L 1375.785156 162.050781 L 1368.292969 154.550781 L 1348.175781 163.546875 L 1344.976562 161.667969 C 1339.871094 158.667969 1334.320312 156.359375 1328.480469 154.808594 L 1324.917969 153.871094 L 1317.078125 133.351562 L 1306.449219 133.351562 L 1298.613281 153.867188 L 1295.054688 154.808594 C 1289.214844 156.351562 1283.664062 158.660156 1278.542969 161.671875 L 1275.347656 163.546875 L 1255.242188 154.550781 L 1247.746094 162.050781 L 1256.707031 182.117188 L 1254.859375 185.296875 C 1251.832031 190.511719 1249.523438 196.085938 1247.988281 201.867188 L 1247.039062 205.417969 L 1226.527344 213.246094 L 1226.527344 223.886719 L 1247.042969 231.710938 L 1247.988281 235.273438 C 1249.527344 241.082031 1251.835938 246.644531 1254.851562 251.8125 L 1256.703125 255 L 1247.742188 275.082031 L 1255.242188 282.582031 L 1275.332031 273.632812 L 1278.511719 275.484375 C 1283.714844 278.511719 1289.277344 280.820312 1295.050781 282.351562 L 1298.613281 283.292969 Z M 1306.453125 303.816406 " fill-opacity="1" fill-rule="nonzero"/><path fill="#afafaf" d="M 1311.769531 261.789062 C 1287.902344 261.789062 1268.550781 242.441406 1268.550781 218.574219 C 1268.550781 194.726562 1287.898438 175.34375 1311.769531 175.34375 C 1335.625 175.34375 1354.988281 194.726562 1354.988281 218.574219 C 1354.984375 242.4375 1335.625 261.789062 1311.769531 261.789062 Z M 1311.769531 261.789062 " fill-opacity="1" fill-rule="nonzero"/><path fill="#41464b" d="M 144.851562 878.433594 C 129.5625 878.433594 117.125 865.980469 117.125 850.667969 C 117.125 835.382812 129.5625 822.945312 144.851562 822.945312 C 160.140625 822.945312 172.582031 835.378906 172.582031 850.667969 C 172.582031 865.980469 160.140625 878.433594 144.851562 878.433594 Z M 144.851562 837.324219 C 137.488281 837.324219 131.5 843.3125 131.5 850.667969 C 131.5 858.054688 137.484375 864.058594 144.851562 864.058594 C 152.214844 864.058594 158.203125 858.054688 158.203125 850.667969 C 158.203125 843.3125 152.210938 837.324219 144.851562 837.324219 Z M 144.851562 837.324219 " fill-opacity="1" fill-rule="nonzero"/><path fill="#41464b" d="M 55.835938 810.601562 L 55.828125 796.226562 C 60.09375 796.226562 64.285156 795.566406 68.292969 794.265625 L 72.726562 807.9375 C 67.292969 809.699219 61.609375 810.601562 55.835938 810.601562 Z M 38.9375 807.953125 C 33.480469 806.195312 28.347656 803.582031 23.675781 800.203125 L 32.117188 788.558594 C 35.5625 791.058594 39.339844 792.972656 43.363281 794.273438 Z M 87.980469 800.167969 L 79.527344 788.542969 C 82.960938 786.039062 85.960938 783.039062 88.453125 779.625 L 100.078125 788.085938 C 96.707031 792.722656 92.632812 796.78125 87.980469 800.167969 Z M 11.5625 788.125 C 8.164062 783.476562 5.539062 778.351562 3.757812 772.886719 L 17.421875 768.425781 C 18.742188 772.445312 20.671875 776.21875 23.167969 779.644531 Z M 107.871094 772.84375 L 94.195312 768.390625 C 95.5 764.390625 96.15625 760.195312 96.15625 755.929688 L 110.535156 755.742188 L 110.535156 755.929688 C 110.535156 761.710938 109.636719 767.398438 107.871094 772.84375 Z M 1.070312 755.988281 L 1.070312 755.929688 C 1.070312 750.1875 1.957031 744.515625 3.710938 739.085938 L 17.386719 743.503906 C 16.09375 747.507812 15.445312 751.6875 15.445312 755.929688 Z M 94.148438 743.316406 C 92.828125 739.304688 90.886719 735.535156 88.378906 732.105469 L 99.972656 723.609375 C 103.382812 728.257812 106.019531 733.382812 107.808594 738.828125 Z M 23.113281 732.269531 L 11.472656 723.828125 C 14.847656 719.179688 18.90625 715.105469 23.542969 711.714844 L 32.023438 723.324219 C 28.597656 725.832031 25.601562 728.839844 23.113281 732.269531 Z M 79.417969 723.203125 C 75.972656 720.714844 72.183594 718.796875 68.164062 717.503906 L 72.566406 703.816406 C 78.023438 705.574219 83.15625 708.171875 87.828125 711.550781 Z M 43.238281 717.566406 L 38.769531 703.90625 C 44.203125 702.125 49.886719 701.21875 55.652344 701.195312 L 55.703125 715.574219 C 51.4375 715.585938 47.246094 716.261719 43.238281 717.566406 Z M 43.238281 717.566406 " fill-opacity="1" fill-rule="nonzero"/></svg>