<svg xmlns="http://www.w3.org/2000/svg" xmlns:xlink="http://www.w3.org/1999/xlink" width="2000" zoomAndPan="magnify" viewBox="0 0 1500 1499.999933" height="2000" preserveAspectRatio="xMidYMid meet" version="1.0"><path fill="#ffffff" d="M 728.226562 73.515625 C 727.796875 66.183594 727.796875 58.851562 728.226562 51.953125 C 728.226562 44.191406 734.695312 37.722656 742.453125 38.15625 C 750.214844 38.15625 756.683594 44.625 756.683594 52.386719 C 756.683594 55.835938 756.683594 59.285156 756.683594 63.164062 C 756.683594 67.046875 756.683594 70.496094 756.683594 74.375 C 756.683594 82.136719 749.785156 88.605469 742.023438 88.605469 C 734.695312 87.3125 728.226562 81.273438 728.226562 73.515625 Z M 962.777344 307.65625 C 962.777344 315.847656 968.8125 322.316406 977.003906 322.316406 C 984.335938 322.746094 991.664062 322.746094 998.992188 322.316406 C 1006.753906 321.886719 1012.789062 315.417969 1012.789062 307.65625 C 1012.789062 299.894531 1006.753906 293.855469 999.425781 293.425781 C 995.542969 292.996094 992.09375 293.425781 988.214844 293.425781 C 984.335938 293.425781 980.886719 293.425781 977.003906 293.425781 C 969.242188 293.425781 963.207031 299.894531 962.777344 307.65625 Z M 852.398438 117.066406 C 852.398438 117.066406 852.832031 117.496094 852.832031 117.496094 C 859.730469 121.378906 868.351562 119.222656 872.234375 112.320312 C 876.113281 106.285156 879.996094 99.816406 883.445312 92.917969 C 884.304688 91.191406 884.738281 89.46875 885.167969 87.742188 C 885.597656 80.84375 881.289062 74.808594 874.820312 72.652344 C 868.785156 70.925781 861.886719 73.082031 858.867188 78.6875 C 854.988281 84.726562 851.539062 91.191406 848.089844 97.660156 C 843.34375 104.128906 845.5 112.753906 852.398438 117.066406 Z M 946.390625 205.03125 C 947.6875 205.03125 949.410156 204.597656 950.703125 204.167969 C 958.464844 199.855469 966.226562 195.976562 973.554688 190.800781 C 979.160156 186.488281 980.453125 178.726562 976.574219 172.691406 C 973.125 166.652344 965.363281 164.066406 958.894531 166.652344 C 951.136719 170.535156 943.804688 174.847656 936.476562 179.589844 C 931.734375 183.46875 930.007812 189.507812 932.164062 195.542969 C 934.320312 201.148438 940.355469 205.03125 946.390625 205.03125 Z M 614.402344 113.617188 C 617.851562 118.359375 624.316406 120.515625 629.921875 118.359375 C 635.957031 116.203125 640.269531 110.164062 639.839844 103.699219 C 639.839844 102.402344 639.40625 100.679688 638.976562 99.386719 C 635.097656 92.054688 630.785156 84.292969 626.472656 77.394531 C 622.160156 71.359375 613.96875 70.0625 607.933594 73.945312 C 601.464844 77.394531 598.878906 85.15625 601.898438 91.625 C 605.347656 99.386719 609.65625 106.714844 614.402344 113.617188 Z M 511.785156 190.800781 C 519.113281 195.976562 526.445312 200.285156 534.636719 203.738281 C 543.691406 207.617188 553.605469 200.285156 554.902344 189.507812 C 553.175781 185.625 550.589844 182.175781 548.003906 179.15625 C 541.105469 174.414062 534.207031 170.101562 526.445312 166.652344 C 519.976562 163.632812 512.648438 166.222656 508.765625 172.257812 C 504.886719 178.296875 506.179688 186.488281 511.785156 190.800781 Z M 1496.121094 620.707031 C 1492.238281 615.53125 1484.476562 614.671875 1478.441406 614.671875 L 1440.929688 614.671875 L 1440.929688 571.550781 L 1392.640625 571.550781 L 1384.449219 323.179688 L 934.75 338.269531 C 949.410156 283.941406 939.0625 231.332031 903.707031 180.882812 C 865.765625 127.414062 804.542969 95.9375 739.003906 97.230469 C 673.46875 98.523438 612.675781 132.589844 576.890625 188.214844 C 548.433594 232.195312 538.949219 278.335938 548.003906 326.628906 L 511.355469 321.886719 C 517.390625 320.589844 522.132812 314.984375 522.5625 308.519531 C 522.996094 300.324219 516.527344 293.855469 508.765625 293.425781 C 501.4375 292.996094 494.109375 292.996094 486.777344 293.425781 C 479.015625 293.855469 472.980469 299.894531 472.980469 308.085938 C 472.980469 311.96875 474.273438 314.984375 476.859375 317.574219 L 156.078125 277.472656 L 145.300781 365.003906 L 92.269531 366.730469 L 94.421875 431.410156 C 83.644531 432.703125 73.726562 437.445312 66.828125 445.640625 C 51.738281 457.28125 38.804688 477.117188 35.785156 490.484375 L 3.449219 632.351562 C 0.863281 643.5625 3.019531 655.203125 9.054688 664.691406 C 15.089844 674.175781 24.574219 681.074219 35.785156 683.664062 L 103.476562 699.1875 L 103.476562 699.617188 L 53.894531 1096.753906 L 117.273438 1104.515625 L 120.722656 1208.867188 L 216.011719 1205.847656 C 228.945312 1349.867188 350.101562 1462.84375 497.125 1462.84375 C 650.617188 1462.84375 775.652344 1339.949219 779.101562 1187.304688 L 1259.414062 1247.242188 L 1268.898438 1170.058594 L 1412.90625 1165.3125 L 1403.851562 893.226562 C 1417.648438 889.777344 1428.425781 879.429688 1432.738281 865.628906 C 1442.226562 833.289062 1451.710938 800.519531 1461.195312 767.746094 C 1468.527344 742.738281 1475.425781 717.726562 1482.324219 692.71875 C 1484.046875 687.113281 1485.339844 681.507812 1487.066406 676.332031 C 1490.515625 664.257812 1493.964844 651.753906 1497.414062 639.679688 C 1498.707031 633.644531 1500 625.882812 1496.121094 620.707031 Z M 1496.121094 620.707031 " fill-opacity="1" fill-rule="nonzero"/><path fill="#70b2e2" d="M 1361.167969 428.390625 L 921.816406 373.199219 C 927.421875 361.554688 931.300781 349.914062 934.75 338.269531 L 1384.449219 323.179688 L 1392.640625 571.550781 L 1343.488281 571.550781 Z M 1394.367188 894.519531 C 1362.460938 894.519531 1332.277344 894.519531 1302.960938 894.519531 L 1268.46875 1170.488281 L 1412.472656 1165.746094 L 1403.421875 893.65625 C 1400.402344 894.089844 1397.382812 894.519531 1394.367188 894.519531 Z M 103.046875 699.617188 L 103.046875 699.1875 Z M 214.71875 1161.433594 C 214.285156 1154.964844 213.855469 1148.496094 213.855469 1142.03125 C 213.855469 1133.835938 214.285156 1125.210938 215.148438 1117.019531 L 116.414062 1104.515625 L 119.863281 1208.867188 L 215.148438 1205.847656 C 214.285156 1197.65625 213.855469 1189.03125 213.855469 1180.835938 C 214.285156 1174.371094 214.285156 1167.902344 214.71875 1161.433594 Z M 107.789062 432.273438 L 135.382812 438.742188 L 144.4375 365.003906 L 91.40625 366.730469 L 93.5625 431.410156 C 98.304688 430.980469 103.046875 431.410156 107.789062 432.273438 Z M 291.464844 948.421875 L 138.832031 929.449219 L 137.96875 938.070312 L 284.566406 956.183594 C 286.71875 953.59375 288.875 951.007812 291.464844 948.421875 Z M 1114.976562 529.722656 L 1124.890625 451.675781 L 1116.269531 450.816406 L 1106.351562 530.15625 C 1109.371094 529.722656 1112.386719 529.722656 1114.976562 529.722656 Z M 1065.824219 924.273438 L 1243.03125 946.265625 L 1242.167969 954.886719 L 1064.960938 932.898438 L 1051.164062 1043.714844 L 1228.371094 1065.707031 L 1227.507812 1074.332031 L 1050.300781 1052.339844 L 1036.074219 1167.46875 L 1027.449219 1166.609375 L 1041.679688 1051.476562 L 868.785156 1029.917969 L 854.554688 1145.046875 L 845.933594 1144.183594 L 860.160156 1029.054688 L 748.058594 1015.257812 C 746.335938 1012.238281 744.609375 1009.21875 743.316406 1005.769531 L 861.453125 1020.429688 L 875.25 909.613281 L 823.941406 903.144531 L 831.703125 895.382812 L 876.542969 900.988281 L 890.339844 790.167969 L 776.085938 775.941406 L 776.085938 773.351562 L 773.929688 775.507812 L 717.445312 768.609375 L 707.960938 843.207031 L 698.046875 853.554688 L 708.824219 767.746094 L 535.929688 746.1875 L 522.132812 857.003906 L 676.488281 876.410156 L 669.15625 884.171875 L 578.613281 872.960938 C 560.503906 867.355469 541.535156 863.90625 521.703125 862.179688 C 518.683594 861.75 516.097656 861.75 513.078125 861.316406 C 507.902344 860.886719 502.730469 860.886719 497.554688 860.886719 C 493.675781 860.886719 489.796875 860.886719 485.914062 861.316406 L 339.753906 843.207031 L 329.40625 914.785156 C 325.957031 917.375 322.9375 919.53125 319.917969 922.117188 L 330.265625 840.621094 L 152.628906 818.628906 L 153.492188 810.003906 L 330.699219 831.996094 L 340.613281 753.085938 L 342.339844 753.515625 C 344.496094 753.949219 346.652344 754.378906 348.808594 754.378906 L 338.890625 833.289062 L 511.785156 854.851562 L 525.582031 744.03125 L 400.546875 728.507812 C 402.703125 725.921875 404.859375 723.332031 406.582031 720.746094 L 526.445312 735.839844 L 540.242188 625.019531 L 433.3125 611.652344 L 435.039062 603.027344 L 541.105469 616.394531 L 554.902344 505.578125 L 382.007812 484.015625 L 380.710938 494.796875 L 372.089844 493.070312 L 373.382812 483.15625 L 277.664062 471.082031 L 198.332031 452.96875 L 198.332031 452.539062 L 375.539062 474.53125 L 389.765625 359.398438 L 398.390625 360.261719 L 384.160156 475.394531 L 557.054688 496.953125 L 570.421875 390.015625 C 572.578125 394.328125 575.164062 398.640625 577.320312 402.949219 L 565.25 498.246094 L 637.253906 507.300781 C 638.113281 509.027344 638.546875 510.75 639.40625 512.476562 C 640.269531 514.632812 641.5625 515.925781 642.855469 516.789062 L 564.386719 506.871094 L 550.589844 617.6875 L 723.484375 639.25 L 728.226562 601.734375 C 731.246094 601.734375 733.832031 601.734375 736.847656 601.734375 L 732.105469 640.542969 L 905 662.101562 L 918.796875 551.285156 L 831.703125 540.503906 L 832.996094 531.878906 L 920.09375 542.660156 L 934.320312 427.53125 L 942.941406 428.390625 L 928.714844 543.523438 L 960.621094 547.402344 C 959.328125 549.992188 958.464844 552.578125 957.601562 555.597656 L 927.421875 551.714844 L 913.625 662.535156 L 956.308594 667.707031 C 956.308594 670.726562 956.308594 673.3125 956.308594 676.332031 L 912.332031 670.726562 L 898.535156 781.546875 L 958.035156 788.875 C 958.035156 791.894531 958.035156 794.480469 958.035156 797.5 L 897.242188 789.738281 L 883.445312 900.558594 L 1056.339844 922.117188 L 1059.789062 893.65625 C 1062.804688 893.65625 1065.390625 893.65625 1068.410156 893.65625 Z M 723.050781 647.875 L 550.15625 626.3125 L 536.359375 737.132812 L 709.253906 758.691406 Z M 890.773438 781.113281 L 904.570312 670.296875 L 731.675781 648.734375 L 717.878906 759.554688 Z M 1056.339844 931.601562 L 883.445312 910.042969 L 869.644531 1020.863281 L 1042.539062 1042.421875 Z M 325.09375 710.398438 L 115.980469 662.964844 L 111.671875 662.101562 L 107.359375 661.242188 L 101.320312 659.945312 L 58.207031 650.027344 C 39.667969 645.71875 28.023438 627.175781 32.335938 608.632812 L 64.671875 466.769531 C 65.96875 461.164062 68.554688 456.421875 72.003906 452.109375 C 77.175781 446.070312 84.074219 442.191406 91.40625 440.464844 C 92.269531 440.464844 93.128906 440.035156 93.992188 440.035156 C 95.285156 440.035156 96.578125 439.601562 98.304688 439.601562 C 100.890625 439.601562 103.476562 440.035156 106.066406 440.464844 L 114.6875 442.191406 L 134.519531 446.933594 L 143.144531 448.660156 L 372.519531 501.695312 L 381.144531 503.421875 L 413.480469 510.75 C 432.019531 515.0625 443.660156 533.605469 439.351562 552.148438 L 427.710938 602.164062 L 425.984375 610.789062 L 420.378906 634.507812 L 411.757812 671.589844 L 406.582031 694.011719 C 406.152344 696.597656 405.289062 698.753906 403.996094 701.34375 C 400.113281 709.105469 393.648438 715.140625 385.886719 718.589844 C 379.417969 721.175781 372.519531 722.039062 365.621094 720.316406 L 353.980469 717.726562 L 345.359375 716.003906 Z M 239.722656 568.964844 L 336.304688 590.953125 L 360.878906 596.558594 L 363.035156 596.992188 L 363.464844 594.40625 L 371.660156 557.753906 L 365.621094 556.457031 L 248.777344 529.292969 Z M 212.5625 584.054688 C 212.128906 581.035156 211.269531 578.019531 209.972656 575 C 209.113281 572.84375 208.25 571.121094 206.957031 568.964844 C 201.78125 560.339844 193.160156 554.300781 183.242188 552.148438 L 178.929688 551.285156 C 187.554688 546.109375 193.160156 536.625 193.160156 525.414062 C 193.160156 508.59375 179.792969 495.226562 162.976562 495.226562 C 146.164062 495.226562 132.796875 508.59375 132.796875 525.414062 C 132.796875 531.449219 134.519531 537.054688 137.539062 541.796875 L 133.660156 540.933594 C 132.796875 540.503906 131.503906 540.503906 130.640625 540.503906 C 129.347656 540.503906 127.621094 540.074219 126.328125 540.074219 C 125.035156 540.074219 123.3125 540.074219 122.019531 540.074219 C 115.980469 540.503906 110.375 542.660156 105.203125 545.679688 C 102.183594 547.402344 99.597656 549.992188 97.441406 552.578125 C 93.128906 557.320312 90.113281 562.925781 88.820312 569.394531 L 78.902344 613.378906 L 100.027344 618.121094 L 112.53125 621.140625 L 116.84375 622 L 121.15625 622.863281 L 202.214844 641.40625 L 212.128906 597.421875 C 213.421875 593.109375 213.421875 588.367188 212.5625 584.054688 Z M 228.082031 620.277344 L 353.980469 649.167969 L 362.605469 650.890625 L 376.402344 653.910156 L 385.457031 614.671875 L 367.777344 610.789062 L 359.15625 609.066406 L 294.480469 594.40625 L 237.136719 581.46875 L 235.84375 587.074219 Z M 1489.222656 625.882812 C 1487.925781 624.15625 1484.476562 623.292969 1478.441406 623.292969 L 1294.769531 623.292969 C 1290.886719 623.292969 1287.007812 623.292969 1282.695312 623.292969 C 1280.972656 623.292969 1278.816406 623.292969 1277.089844 623.292969 C 1275.367188 623.292969 1273.640625 623.292969 1271.917969 623.292969 C 1215.867188 623.292969 1159.816406 623.292969 1103.335938 623.292969 C 1100.316406 623.292969 1097.730469 623.292969 1094.710938 623.292969 C 1084.363281 623.292969 1074.445312 623.292969 1064.097656 623.292969 C 1064.097656 623.292969 1063.667969 623.292969 1063.667969 623.292969 C 1049.007812 623.292969 1036.503906 633.210938 1032.625 647.011719 C 1030.039062 656.929688 1027.019531 666.847656 1024 676.761719 C 1023.570312 678.488281 1022.707031 680.644531 1022.277344 682.371094 C 1021.84375 683.230469 1021.84375 684.09375 1021.414062 684.957031 C 1019.257812 692.71875 1016.671875 700.910156 1014.515625 708.671875 C 1014.085938 709.964844 1013.652344 711.257812 1013.652344 712.121094 C 1011.929688 718.160156 1010.203125 724.195312 1008.480469 730.664062 C 1007.1875 735.40625 1005.890625 740.148438 1004.597656 744.460938 C 1004.167969 746.1875 1003.304688 748.34375 1002.875 750.066406 C 1001.582031 755.242188 999.855469 759.984375 998.5625 765.160156 C 997.699219 767.316406 997.269531 769.902344 996.40625 772.058594 C 995.542969 774.644531 994.683594 777.664062 994.25 780.25 C 992.957031 784.5625 991.664062 788.445312 990.800781 792.757812 C 989.941406 795.34375 989.078125 798.363281 988.214844 800.949219 C 981.746094 824.234375 974.847656 847.519531 968.382812 870.804688 C 967.949219 871.667969 967.949219 872.960938 967.519531 873.824219 C 967.519531 875.117188 967.089844 876.410156 967.519531 877.273438 C 967.519531 877.273438 967.519531 877.703125 967.519531 877.703125 C 967.519531 878.996094 967.949219 879.859375 968.8125 880.722656 C 969.242188 881.152344 969.242188 881.152344 969.675781 881.585938 C 971.398438 882.878906 973.554688 883.738281 975.710938 884.171875 C 977.003906 884.171875 977.867188 884.601562 979.160156 884.601562 C 1007.617188 884.601562 1034.78125 884.601562 1061.082031 884.601562 C 1064.097656 884.601562 1066.6875 884.601562 1069.703125 884.601562 C 1147.742188 884.601562 1217.160156 884.601562 1294.769531 884.601562 C 1296.0625 884.601562 1297.785156 884.601562 1299.082031 884.601562 C 1300.375 884.601562 1302.097656 884.601562 1303.390625 884.601562 C 1331.847656 884.601562 1361.597656 884.601562 1393.503906 884.601562 C 1396.523438 884.601562 1399.539062 884.171875 1402.558594 883.308594 C 1412.476562 880.289062 1420.667969 872.527344 1423.683594 862.179688 C 1427.996094 848.382812 1431.875 834.152344 1436.1875 819.921875 C 1437.480469 814.746094 1439.207031 810.003906 1440.5 804.832031 C 1444.378906 791.464844 1448.261719 777.664062 1452.140625 764.296875 C 1459.472656 739.289062 1466.371094 714.277344 1473.269531 689.269531 C 1473.699219 687.976562 1474.128906 686.679688 1474.5625 684.957031 C 1475.425781 681.507812 1476.285156 678.058594 1477.578125 675.039062 C 1481.027344 662.101562 1484.910156 649.167969 1488.359375 636.230469 C 1490.515625 631.488281 1490.515625 627.605469 1489.222656 625.882812 Z M 821.789062 549.558594 L 663.121094 549.558594 L 663.121094 554.300781 C 663.121094 564.652344 663.550781 574.570312 663.550781 584.917969 C 663.550781 591.816406 664.847656 593.109375 671.746094 593.109375 C 676.054688 593.109375 680.367188 593.109375 684.679688 593.109375 L 695.457031 593.109375 L 695.457031 597.421875 C 695.457031 599.148438 695.457031 600.871094 695.457031 602.597656 C 695.457031 606.046875 695.457031 609.496094 695.457031 612.515625 L 695.457031 613.378906 C 695.457031 613.808594 695.457031 613.808594 695.457031 614.238281 C 695.457031 615.53125 696.320312 616.828125 697.183594 617.6875 C 698.476562 618.550781 699.769531 618.984375 701.0625 618.984375 C 704.082031 618.550781 706.238281 615.964844 705.804688 613.378906 L 705.804688 612.515625 C 705.804688 609.496094 705.804688 606.046875 705.804688 603.027344 C 705.804688 602.164062 705.375 598.285156 707.960938 595.699219 C 710.117188 593.542969 713.136719 593.109375 715.292969 593.109375 C 720.035156 593.109375 724.777344 593.109375 729.519531 593.109375 C 732.539062 593.109375 735.125 593.109375 738.144531 593.109375 C 748.058594 593.109375 757.976562 593.109375 768.324219 593.109375 C 768.324219 593.109375 768.753906 593.109375 768.753906 593.109375 C 771.34375 593.109375 774.359375 593.542969 776.515625 595.699219 C 778.671875 598.285156 778.671875 601.734375 778.671875 603.890625 C 778.242188 606.910156 778.242188 609.496094 778.671875 612.515625 C 778.671875 615.964844 781.257812 618.550781 784.277344 618.550781 C 786.863281 618.550781 789.449219 616.394531 789.449219 613.378906 C 789.882812 609.066406 789.882812 605.183594 789.449219 601.304688 C 789.449219 600.441406 789.449219 596.992188 791.605469 594.835938 C 793.761719 592.679688 796.78125 592.679688 798.074219 592.679688 C 804.542969 592.679688 810.148438 592.679688 815.320312 592.679688 L 816.183594 592.679688 C 816.613281 592.679688 817.046875 592.679688 817.476562 592.679688 C 820.496094 592.25 822.648438 589.660156 822.21875 586.644531 L 822.21875 575 C 821.789062 566.808594 821.789062 558.183594 821.789062 549.558594 Z M 823.511719 540.933594 L 823.945312 539.640625 L 824.375 537.054688 L 825.238281 532.742188 L 825.667969 531.019531 L 827.394531 518.511719 C 807.128906 518.511719 786.863281 518.511719 767.03125 518.511719 L 742.023438 518.511719 C 740.730469 518.511719 739.867188 518.511719 738.574219 518.511719 C 734.261719 518.511719 729.949219 518.511719 725.640625 518.511719 C 702.789062 518.511719 680.367188 518.511719 657.515625 518.511719 L 659.671875 532.3125 L 660.535156 536.625 L 661.398438 540.933594 Z M 742.453125 87.742188 C 750.214844 87.742188 757.113281 81.707031 757.113281 73.515625 C 757.546875 69.632812 757.113281 66.183594 757.113281 62.300781 C 757.113281 58.851562 757.113281 55.402344 757.113281 51.523438 C 756.683594 43.761719 750.648438 37.722656 742.886719 37.292969 C 735.125 37.292969 728.65625 43.328125 728.65625 51.089844 C 728.226562 58.421875 728.226562 65.753906 728.65625 72.652344 C 728.226562 81.273438 734.695312 87.3125 742.453125 87.742188 Z M 486.347656 322.316406 C 489.796875 322.746094 493.246094 322.316406 496.695312 322.316406 C 500.574219 322.316406 504.023438 322.316406 507.90625 322.316406 C 509.199219 322.316406 510.058594 322.316406 511.355469 321.886719 C 517.390625 320.589844 522.132812 314.984375 522.5625 308.519531 C 522.996094 300.324219 516.527344 293.855469 508.765625 293.425781 C 501.4375 292.996094 494.109375 292.996094 486.777344 293.425781 C 479.015625 293.855469 472.980469 299.894531 472.980469 308.085938 C 472.980469 311.96875 474.273438 314.984375 476.859375 317.574219 C 478.585938 320.160156 482.464844 322.316406 486.347656 322.316406 Z M 962.777344 307.65625 C 962.777344 315.847656 968.8125 322.316406 977.003906 322.316406 C 984.335938 322.746094 991.664062 322.746094 998.992188 322.316406 C 1006.753906 321.886719 1012.789062 315.417969 1012.789062 307.65625 C 1012.789062 299.894531 1006.753906 293.855469 999.425781 293.425781 C 995.542969 292.996094 992.09375 293.425781 988.214844 293.425781 C 984.335938 293.425781 980.886719 293.425781 977.003906 293.425781 C 969.242188 293.425781 963.207031 299.894531 962.777344 307.65625 Z M 852.398438 117.066406 C 852.398438 117.066406 852.832031 117.496094 852.832031 117.496094 C 859.730469 121.378906 868.351562 119.222656 872.234375 112.320312 C 876.113281 106.285156 879.996094 99.816406 883.445312 92.917969 C 884.304688 91.191406 884.738281 89.46875 885.167969 87.742188 C 885.597656 80.84375 881.289062 74.808594 874.820312 72.652344 C 868.785156 70.925781 861.886719 73.082031 858.867188 78.6875 C 854.988281 84.726562 851.539062 91.191406 848.089844 97.660156 C 843.34375 104.128906 845.5 112.753906 852.398438 117.066406 Z M 946.390625 205.03125 C 947.6875 205.03125 949.410156 204.597656 950.703125 204.167969 C 958.464844 199.855469 966.226562 195.976562 973.554688 190.800781 C 979.160156 186.488281 980.453125 178.726562 976.574219 172.691406 C 973.125 166.652344 965.363281 164.066406 958.894531 166.652344 C 951.136719 170.535156 943.804688 174.847656 936.476562 179.589844 C 931.734375 183.46875 930.007812 189.507812 932.164062 195.542969 C 934.320312 201.148438 940.355469 205.03125 946.390625 205.03125 Z M 614.402344 113.617188 C 617.851562 118.359375 624.316406 120.515625 629.921875 118.359375 C 635.957031 116.203125 640.269531 110.164062 639.839844 103.699219 C 639.839844 102.402344 639.40625 100.679688 638.976562 99.386719 C 635.097656 92.054688 630.785156 84.292969 626.472656 77.394531 C 622.160156 71.359375 613.96875 70.0625 607.933594 73.945312 C 601.464844 77.394531 598.878906 85.15625 601.898438 91.625 C 605.347656 99.386719 609.65625 106.714844 614.402344 113.617188 Z M 511.785156 190.800781 C 519.113281 195.976562 526.445312 200.285156 534.636719 203.738281 C 543.691406 207.617188 553.605469 200.285156 554.902344 189.507812 C 553.175781 185.625 550.589844 182.175781 548.003906 179.15625 C 541.105469 174.414062 534.207031 170.101562 526.445312 166.652344 C 519.976562 163.632812 512.648438 166.222656 508.765625 172.257812 C 504.886719 178.296875 506.179688 186.488281 511.785156 190.800781 Z M 625.179688 336.113281 C 626.042969 337.839844 626.472656 339.132812 627.335938 340.859375 C 628.199219 342.582031 629.058594 343.875 629.921875 345.601562 C 630.355469 346.894531 631.214844 347.757812 631.648438 348.621094 C 645.011719 371.042969 664.847656 389.152344 688.992188 400.363281 L 688.992188 449.953125 C 688.992188 456.851562 694.597656 462.027344 701.0625 462.027344 L 707.53125 462.027344 C 714.429688 462.027344 719.601562 456.421875 719.601562 449.953125 L 719.601562 410.28125 C 726.933594 411.574219 734.261719 412.4375 742.023438 412.4375 C 745.472656 412.4375 748.921875 412.4375 751.941406 412.007812 C 751.941406 412.007812 752.371094 412.007812 752.371094 412.007812 L 752.371094 450.382812 C 752.371094 452.96875 753.234375 455.558594 754.957031 457.714844 C 757.113281 460.730469 760.5625 462.457031 764.875 462.457031 L 771.34375 462.457031 C 778.242188 462.457031 783.414062 456.851562 783.414062 450.382812 L 783.414062 405.105469 C 803.679688 398.207031 821.355469 386.566406 836.015625 371.042969 C 837.308594 369.75 838.171875 368.457031 839.464844 367.160156 C 840.757812 365.867188 841.621094 364.574219 842.914062 363.28125 C 848.519531 356.382812 853.261719 349.050781 857.144531 340.859375 C 865.765625 323.609375 870.941406 303.773438 870.941406 283.078125 C 870.941406 211.929688 813.164062 154.578125 742.453125 154.578125 C 671.746094 154.578125 613.96875 212.359375 613.96875 283.507812 C 613.96875 302.050781 617.851562 320.160156 625.179688 336.113281 Z M 766.597656 1100.203125 C 761.855469 1069.15625 751.507812 1039.835938 737.28125 1013.101562 C 735.554688 1010.082031 733.832031 1006.632812 732.105469 1003.613281 C 730.382812 1000.59375 728.65625 998.007812 726.933594 994.988281 L 707.53125 993.695312 L 701.496094 993.265625 L 695.027344 992.832031 L 688.992188 992.402344 L 680.367188 991.972656 L 670.882812 991.539062 L 666.570312 995.421875 L 664.414062 997.578125 C 666.140625 999.734375 668.296875 1002.320312 670.019531 1004.476562 C 672.605469 1007.925781 675.195312 1010.945312 677.351562 1014.394531 C 679.9375 1018.273438 682.523438 1021.722656 684.679688 1025.605469 C 704.511719 1058.375 715.722656 1096.753906 715.722656 1138.148438 C 715.722656 1149.359375 714.859375 1160.140625 713.136719 1170.917969 C 713.136719 1172.214844 712.703125 1173.9375 712.273438 1175.230469 C 711.84375 1176.523438 711.84375 1178.25 711.410156 1179.542969 C 710.550781 1182.992188 710.117188 1186.441406 709.253906 1189.894531 C 685.972656 1286.050781 599.742188 1357.628906 496.261719 1357.628906 C 397.960938 1357.628906 315.175781 1292.949219 287.152344 1204.121094 C 280.683594 1183.425781 277.234375 1161.433594 277.234375 1138.578125 C 277.234375 1134.269531 277.234375 1129.957031 277.667969 1125.210938 C 277.667969 1123.917969 277.667969 1122.195312 278.097656 1120.902344 C 278.097656 1119.605469 278.097656 1117.882812 278.527344 1116.589844 C 281.546875 1085.109375 291.464844 1055.359375 306.554688 1029.484375 C 310.003906 1023.878906 313.453125 1017.84375 317.332031 1012.667969 C 329.835938 994.988281 344.496094 979.464844 361.3125 966.53125 C 364.761719 963.941406 367.777344 961.355469 371.226562 959.199219 C 406.582031 934.621094 449.699219 919.960938 496.261719 919.960938 C 498.851562 919.960938 501.867188 919.960938 504.457031 919.960938 C 507.472656 919.960938 510.058594 920.390625 513.078125 920.390625 C 560.074219 923.839844 603.191406 942.382812 637.253906 971.273438 L 644.152344 964.804688 L 642.855469 951.007812 L 642.425781 945.402344 L 641.996094 940.226562 L 639.839844 913.0625 L 641.5625 911.335938 C 605.777344 888.914062 563.953125 874.253906 519.546875 870.371094 C 516.527344 869.941406 513.941406 869.941406 510.921875 869.511719 C 506.179688 869.078125 501.4375 869.078125 496.261719 869.078125 C 432.882812 869.078125 374.246094 891.070312 327.679688 927.292969 C 324.230469 929.878906 321.214844 932.464844 318.195312 935.054688 C 312.589844 939.796875 306.984375 944.96875 301.8125 950.144531 C 299.222656 952.730469 296.636719 955.320312 294.480469 957.90625 C 258.695312 996.714844 234.117188 1045.871094 225.925781 1100.632812 C 225.496094 1103.652344 225.066406 1107.101562 224.632812 1110.121094 C 224.632812 1111.414062 224.203125 1113.140625 224.203125 1114.433594 C 224.203125 1115.726562 224.203125 1117.449219 223.769531 1118.746094 C 223.339844 1123.054688 223.339844 1126.9375 222.910156 1131.25 C 222.910156 1135.128906 222.476562 1138.578125 222.476562 1142.460938 C 222.476562 1148.929688 222.910156 1155.398438 223.339844 1161.863281 C 224.203125 1176.957031 226.789062 1191.617188 230.238281 1205.847656 C 259.125 1326.152344 367.347656 1415.84375 496.261719 1415.84375 C 631.648438 1415.84375 744.179688 1317.097656 766.167969 1187.738281 C 766.167969 1187.304688 766.167969 1186.875 766.597656 1186.441406 C 767.03125 1185.148438 767.03125 1183.425781 767.460938 1182.132812 C 767.460938 1180.835938 767.894531 1179.113281 767.894531 1177.820312 C 768.753906 1172.644531 769.1875 1167.039062 769.617188 1161.863281 C 770.046875 1155.398438 770.480469 1148.929688 770.480469 1142.460938 C 770.480469 1138.578125 770.480469 1134.699219 770.046875 1131.25 C 769.1875 1120.46875 768.324219 1110.121094 766.597656 1100.203125 Z M 569.992188 991.972656 C 557.488281 985.933594 544.121094 981.191406 529.894531 978.171875 C 522.132812 976.449219 514.371094 975.585938 506.179688 975.15625 C 505.75 975.15625 504.886719 975.15625 504.457031 975.15625 C 502.300781 975.15625 499.710938 975.15625 497.558594 975.15625 C 497.125 975.15625 496.695312 975.15625 496.261719 975.15625 C 484.621094 975.15625 472.980469 976.449219 461.769531 978.605469 C 391.921875 993.265625 338.460938 1051.046875 330.265625 1123.054688 C 330.265625 1124.351562 329.835938 1126.074219 329.835938 1127.367188 C 329.835938 1128.664062 329.40625 1130.386719 329.40625 1131.679688 C 329.40625 1135.128906 328.972656 1138.578125 328.972656 1142.03125 C 328.972656 1163.160156 332.855469 1183.425781 340.183594 1201.964844 C 364.328125 1264.492188 425.121094 1308.902344 495.832031 1308.902344 C 570.855469 1308.902344 634.234375 1259.316406 655.359375 1191.1875 C 657.085938 1185.148438 658.808594 1179.113281 659.671875 1172.644531 C 660.101562 1171.351562 660.101562 1169.625 660.535156 1168.332031 C 660.964844 1167.039062 660.964844 1165.3125 660.964844 1164.019531 C 661.828125 1156.691406 662.691406 1149.359375 662.691406 1141.597656 C 662.691406 1100.632812 648.03125 1063.550781 623.886719 1034.230469 L 586.804688 1069.15625 C 601.464844 1088.128906 610.089844 1112.277344 610.089844 1138.148438 C 610.089844 1144.617188 609.65625 1151.515625 608.363281 1157.550781 C 607.933594 1158.847656 607.933594 1160.570312 607.503906 1161.863281 C 607.070312 1163.160156 607.070312 1164.882812 606.640625 1166.175781 C 604.054688 1175.664062 600.605469 1184.71875 595.859375 1193.34375 C 576.457031 1228.269531 538.949219 1252.417969 496.261719 1252.417969 C 456.164062 1252.417969 420.8125 1231.71875 400.546875 1200.242188 C 388.90625 1182.5625 382.4375 1161.433594 382.4375 1138.578125 C 382.4375 1137.285156 382.4375 1135.5625 382.4375 1134.269531 C 382.4375 1132.972656 382.4375 1131.25 382.867188 1129.957031 C 387.179688 1072.605469 433.746094 1027.328125 491.519531 1024.742188 C 493.246094 1024.742188 494.96875 1024.742188 496.261719 1024.742188 C 497.558594 1024.742188 498.851562 1024.742188 500.144531 1024.742188 C 522.5625 1025.605469 543.691406 1032.9375 560.9375 1044.578125 L 597.585938 1009.21875 C 588.960938 1002.320312 579.476562 996.714844 569.992188 991.972656 Z M 496.261719 1100.632812 C 498.417969 1100.632812 500.144531 1100.632812 501.867188 1101.066406 L 526.011719 1077.78125 C 516.957031 1073.46875 507.042969 1070.882812 496.261719 1070.882812 C 495.402344 1070.882812 494.96875 1070.882812 494.109375 1070.882812 C 491.089844 1070.882812 488.070312 1071.3125 485.484375 1071.742188 C 454.441406 1076.917969 430.296875 1103.222656 429.003906 1135.128906 C 429.003906 1135.992188 429.003906 1137.285156 429.003906 1138.148438 C 429.003906 1138.578125 429.003906 1139.011719 429.003906 1139.441406 C 429.003906 1140.734375 429.003906 1142.460938 429.433594 1143.753906 C 431.589844 1167.039062 445.386719 1186.875 464.789062 1197.65625 C 474.273438 1202.828125 485.054688 1205.414062 496.695312 1205.414062 C 509.628906 1205.414062 521.703125 1201.535156 532.050781 1195.066406 C 544.984375 1186.875 554.902344 1174.800781 560.074219 1160.140625 C 560.503906 1158.847656 560.9375 1157.550781 561.367188 1155.828125 C 561.800781 1154.535156 562.230469 1153.242188 562.660156 1151.515625 C 563.523438 1147.203125 563.957031 1142.460938 563.957031 1137.71875 C 563.957031 1124.351562 560.074219 1111.414062 553.175781 1101.066406 L 529.03125 1123.917969 C 529.894531 1126.9375 530.757812 1130.386719 530.757812 1134.269531 C 530.757812 1139.011719 529.894531 1143.324219 528.167969 1147.636719 C 527.738281 1148.929688 526.875 1150.222656 526.011719 1151.515625 C 525.152344 1152.808594 524.289062 1154.101562 523.425781 1155.398438 C 517.390625 1163.15625 507.90625 1167.902344 497.125 1167.902344 C 483.328125 1167.902344 471.6875 1159.707031 466.511719 1148.066406 C 465.652344 1146.773438 465.21875 1145.046875 464.789062 1143.324219 C 464.359375 1142.03125 463.925781 1140.304688 463.925781 1139.011719 C 463.496094 1137.285156 463.496094 1135.5625 463.496094 1133.835938 C 462.632812 1115.726562 477.722656 1100.632812 496.261719 1100.632812 Z M 496.261719 1100.632812 " fill-opacity="1" fill-rule="nonzero"/><path fill="#000000" d="M 112.53125 621.140625 L 116.84375 622 L 121.15625 622.863281 L 202.214844 641.40625 L 212.128906 597.421875 C 212.992188 592.679688 213.421875 588.367188 212.5625 583.625 C 212.128906 580.605469 211.269531 577.585938 209.972656 574.570312 C 209.113281 572.414062 208.25 570.6875 206.957031 568.53125 C 201.78125 559.910156 193.160156 553.871094 183.242188 551.714844 L 178.929688 550.851562 C 187.554688 545.679688 193.160156 536.191406 193.160156 524.980469 C 193.160156 508.164062 179.792969 494.796875 162.976562 494.796875 C 146.164062 494.796875 132.796875 508.164062 132.796875 524.980469 C 132.796875 531.019531 134.519531 536.625 137.539062 541.367188 L 133.660156 540.503906 C 132.796875 540.074219 131.503906 540.074219 130.640625 540.074219 C 129.347656 540.074219 127.621094 539.640625 126.328125 539.640625 C 125.035156 539.640625 123.3125 539.640625 122.019531 539.640625 C 115.980469 540.074219 110.375 542.230469 105.203125 545.246094 C 102.183594 546.972656 99.597656 549.558594 97.441406 552.148438 C 93.128906 556.890625 90.113281 562.496094 88.820312 568.964844 L 78.902344 612.945312 L 100.027344 617.6875 Z M 89.25 606.910156 L 97.441406 571.550781 C 97.871094 570.257812 97.871094 569.394531 98.304688 568.53125 C 101.753906 558.183594 111.238281 550.851562 121.585938 549.128906 C 122.878906 548.695312 124.605469 548.695312 125.898438 548.695312 C 127.191406 548.695312 128.917969 548.695312 130.210938 549.128906 C 131.070312 549.128906 131.503906 549.128906 132.367188 549.558594 L 181.519531 560.769531 C 189.277344 562.496094 195.746094 567.238281 199.625 573.707031 C 201.351562 576.726562 202.644531 579.742188 203.507812 582.761719 C 204.367188 587.074219 204.367188 591.386719 203.507812 595.699219 L 195.316406 631.054688 L 121.585938 614.238281 L 117.273438 613.378906 L 112.964844 612.515625 L 99.167969 609.496094 Z M 163.839844 504.285156 C 175.914062 504.285156 185.398438 513.769531 185.398438 525.84375 C 185.398438 537.917969 175.914062 547.402344 163.839844 547.402344 C 151.769531 547.402344 142.28125 537.917969 142.28125 525.84375 C 142.28125 513.769531 151.769531 504.285156 163.839844 504.285156 Z M 360.449219 596.128906 L 362.605469 596.558594 L 363.035156 593.972656 L 371.226562 557.320312 L 365.191406 556.027344 L 248.777344 529.292969 L 239.722656 568.53125 L 336.304688 590.523438 Z M 361.3125 563.789062 L 356.136719 586.210938 L 249.640625 562.0625 L 254.816406 539.640625 Z M 362.171875 650.890625 L 375.96875 653.910156 L 385.023438 614.671875 L 367.347656 610.789062 L 358.722656 609.066406 L 294.050781 594.40625 L 236.707031 581.46875 L 235.414062 587.074219 L 227.652344 620.707031 L 353.550781 649.597656 Z M 363.464844 642.699219 L 354.84375 640.972656 L 238 614.238281 L 243.171875 591.816406 L 357.863281 618.121094 L 366.484375 619.84375 L 375.109375 622 L 369.933594 644.421875 Z M 1496.121094 620.707031 C 1492.238281 615.53125 1484.476562 614.671875 1478.441406 614.671875 L 1440.929688 614.671875 L 1440.929688 571.550781 L 1343.488281 571.550781 L 1361.597656 427.960938 L 921.816406 373.199219 C 927.421875 361.554688 931.300781 349.914062 934.75 338.269531 C 949.410156 283.941406 939.0625 231.332031 903.707031 180.882812 C 865.765625 127.414062 804.542969 95.9375 739.003906 97.230469 C 673.46875 98.523438 612.675781 132.589844 576.890625 188.214844 C 548.433594 232.195312 538.949219 278.335938 548.003906 326.628906 L 511.355469 321.886719 C 510.492188 322.316406 509.199219 322.316406 507.90625 322.316406 C 504.023438 322.316406 500.574219 322.316406 496.695312 322.316406 C 493.246094 322.316406 489.796875 322.316406 486.347656 322.316406 C 482.464844 322.316406 478.585938 320.160156 476 317.574219 L 155.21875 277.472656 L 144.4375 365.003906 L 135.382812 438.742188 L 107.789062 432.273438 C 103.046875 431.410156 98.304688 430.980469 93.5625 431.410156 C 82.78125 432.703125 72.867188 437.445312 65.96875 445.640625 C 50.875 457.28125 37.941406 477.117188 34.925781 490.484375 L 2.585938 632.351562 C 0 643.5625 2.15625 655.203125 8.191406 664.691406 C 14.226562 674.175781 23.714844 681.074219 34.925781 683.664062 L 102.617188 699.1875 L 102.617188 699.617188 L 53.03125 1096.753906 L 116.414062 1104.515625 L 215.148438 1117.019531 C 214.285156 1125.210938 213.855469 1133.40625 213.855469 1142.03125 C 213.855469 1148.496094 214.285156 1154.964844 214.71875 1161.433594 C 214.285156 1167.902344 213.855469 1174.371094 213.855469 1180.835938 C 213.855469 1189.460938 214.285156 1197.65625 215.148438 1205.847656 C 228.082031 1349.867188 349.238281 1462.84375 496.261719 1462.84375 C 649.753906 1462.84375 774.792969 1339.949219 778.242188 1187.304688 L 1258.550781 1247.242188 L 1268.035156 1170.058594 L 1302.53125 894.089844 C 1331.417969 894.089844 1361.597656 894.089844 1393.933594 894.089844 C 1396.953125 894.089844 1400.402344 893.65625 1403.421875 892.796875 C 1417.21875 889.34375 1427.996094 878.996094 1432.308594 865.199219 C 1441.792969 832.859375 1451.277344 800.085938 1460.765625 767.316406 C 1468.09375 742.304688 1474.992188 717.296875 1481.890625 692.285156 C 1483.617188 686.679688 1484.910156 681.074219 1486.632812 675.902344 C 1490.082031 663.828125 1493.53125 651.324219 1496.980469 639.25 C 1498.707031 633.644531 1500 625.882812 1496.121094 620.707031 Z M 1474.992188 686.25 C 1474.5625 687.542969 1474.128906 688.835938 1473.699219 690.5625 C 1466.800781 715.570312 1459.472656 740.582031 1452.574219 765.589844 C 1448.691406 778.957031 1444.8125 792.324219 1440.929688 806.125 C 1439.636719 811.296875 1437.914062 816.042969 1436.621094 821.214844 C 1432.738281 835.445312 1428.425781 849.242188 1424.117188 863.472656 C 1421.097656 873.824219 1412.90625 881.585938 1402.988281 884.601562 C 1399.972656 885.464844 1396.953125 885.894531 1393.933594 885.894531 C 1362.460938 885.894531 1332.710938 885.894531 1303.824219 885.894531 C 1302.53125 885.894531 1300.804688 885.894531 1299.511719 885.894531 C 1298.21875 885.894531 1296.492188 885.894531 1295.199219 885.894531 C 1218.023438 885.894531 1148.175781 885.894531 1070.136719 885.894531 C 1067.117188 885.894531 1064.53125 885.894531 1061.511719 885.894531 C 1035.210938 885.894531 1008.046875 885.894531 979.59375 885.894531 C 978.730469 885.894531 977.4375 885.894531 976.140625 885.464844 C 973.988281 885.035156 971.832031 884.601562 970.105469 882.878906 C 969.675781 882.445312 969.242188 882.445312 969.242188 882.015625 C 968.382812 881.152344 968.382812 879.859375 967.949219 878.996094 C 967.949219 878.996094 967.949219 878.566406 967.949219 878.566406 C 967.949219 877.273438 967.949219 875.976562 967.949219 875.117188 C 967.949219 873.824219 968.382812 872.960938 968.8125 872.097656 C 975.28125 848.8125 982.179688 825.527344 988.644531 802.242188 C 989.507812 799.65625 990.371094 796.636719 991.234375 794.050781 C 992.527344 789.738281 993.820312 785.855469 994.683594 781.546875 C 995.542969 778.957031 996.40625 775.941406 996.839844 773.351562 C 997.699219 771.195312 998.132812 768.609375 998.992188 766.453125 C 1000.289062 761.277344 1002.011719 756.535156 1003.304688 751.363281 C 1003.738281 749.636719 1004.597656 747.480469 1005.03125 745.753906 C 1006.324219 741.011719 1007.617188 736.269531 1008.910156 731.957031 C 1010.636719 725.921875 1012.359375 719.453125 1014.085938 713.414062 C 1014.515625 712.121094 1014.945312 710.828125 1014.945312 709.964844 C 1017.101562 702.203125 1019.257812 694.011719 1021.84375 686.25 C 1022.277344 685.386719 1022.277344 684.523438 1022.707031 683.664062 C 1023.140625 681.9375 1024 679.78125 1024.433594 678.058594 C 1027.449219 668.140625 1030.039062 658.222656 1033.054688 648.304688 C 1036.9375 634.074219 1049.441406 624.589844 1064.097656 624.589844 C 1064.097656 624.589844 1064.53125 624.589844 1064.53125 624.589844 C 1074.878906 624.589844 1084.792969 624.589844 1095.140625 624.589844 C 1098.160156 624.589844 1100.746094 624.589844 1103.765625 624.589844 C 1159.816406 624.589844 1215.867188 624.589844 1272.347656 624.589844 C 1274.074219 624.589844 1275.796875 624.589844 1277.523438 624.589844 C 1279.246094 624.589844 1281.402344 624.589844 1283.128906 624.589844 C 1287.007812 624.589844 1290.886719 624.589844 1295.199219 624.589844 L 1478.875 624.589844 C 1484.910156 624.589844 1488.359375 625.449219 1489.652344 627.175781 C 1490.945312 628.898438 1490.945312 632.78125 1489.222656 638.386719 C 1485.339844 651.324219 1481.890625 664.257812 1478.441406 677.195312 C 1476.71875 679.351562 1475.855469 682.800781 1474.992188 686.25 Z M 829.980469 1185.582031 L 778.671875 1179.113281 C 778.671875 1173.074219 778.242188 1167.46875 777.808594 1161.863281 C 778.242188 1155.398438 778.671875 1148.929688 778.671875 1142.460938 C 778.671875 1096.320312 767.460938 1052.769531 748.058594 1014.394531 C 746.335938 1011.375 744.609375 1008.355469 743.316406 1004.90625 C 740.730469 1000.164062 738.144531 995.851562 735.554688 991.539062 L 823.945312 902.714844 L 831.703125 894.953125 L 864.472656 862.179688 L 779.964844 855.710938 L 776.515625 775.941406 L 776.515625 773.351562 L 774.359375 775.507812 L 708.824219 843.207031 L 698.90625 853.554688 L 677.351562 875.976562 L 670.019531 883.738281 L 649.753906 904.867188 C 628.199219 891.070312 604.484375 880.289062 579.476562 872.527344 C 561.367188 866.921875 542.398438 863.472656 522.5625 861.75 C 519.546875 861.316406 516.957031 861.316406 513.941406 860.886719 C 508.765625 860.457031 503.59375 860.457031 498.417969 860.457031 C 494.539062 860.457031 490.65625 860.457031 486.777344 860.886719 C 429.003906 863.472656 375.539062 883.308594 331.5625 915.21875 C 328.113281 917.804688 325.09375 919.960938 322.074219 922.546875 C 312.160156 930.742188 302.671875 939.363281 293.617188 948.851562 C 291.03125 951.4375 288.875 954.027344 286.71875 956.613281 C 250.070312 998.441406 225.496094 1051.046875 218.597656 1109.257812 L 118.570312 1096.753906 L 65.105469 1090.285156 L 106.925781 755.242188 L 113.394531 701.773438 L 341.046875 753.515625 L 342.769531 753.949219 C 344.925781 754.378906 347.082031 754.8125 349.238281 754.8125 C 366.054688 754.8125 388.042969 743.167969 400.976562 728.9375 C 403.132812 726.351562 405.289062 723.765625 407.011719 721.175781 C 409.167969 717.726562 410.894531 714.277344 411.757812 710.828125 L 412.617188 703.929688 C 413.480469 701.34375 414.773438 698.753906 415.207031 696.167969 L 434.175781 612.082031 L 435.902344 603.460938 L 447.109375 554.300781 C 452.285156 531.019531 438.058594 508.164062 414.773438 502.558594 L 381.574219 494.796875 L 372.953125 493.070312 L 277.664062 471.082031 L 198.332031 452.96875 L 144.007812 440.464844 L 153.492188 364.574219 L 163.410156 286.957031 L 549.726562 335.253906 C 551.019531 340.425781 552.3125 345.601562 554.039062 351.207031 C 554.46875 352.5 554.902344 353.792969 555.332031 355.085938 C 559.644531 367.160156 564.816406 378.804688 570.855469 390.015625 C 573.007812 394.328125 575.597656 398.640625 577.753906 402.949219 C 583.355469 412.867188 589.394531 422.355469 595.429688 431.839844 L 599.308594 437.878906 C 613.105469 459.871094 627.335938 482.722656 637.683594 507.300781 C 638.546875 509.027344 638.976562 510.75 639.839844 512.476562 C 640.703125 514.632812 641.996094 515.925781 643.289062 516.789062 C 645.445312 518.082031 647.601562 518.511719 649.324219 518.511719 L 654.066406 549.558594 L 654.5 549.558594 L 654.5 554.300781 C 654.5 564.21875 654.929688 574.570312 654.929688 584.488281 C 654.929688 596.128906 660.105469 601.304688 671.3125 601.304688 C 675.625 601.304688 679.9375 601.304688 684.679688 601.304688 L 686.835938 601.304688 C 686.835938 601.304688 686.835938 601.734375 686.835938 601.734375 C 686.835938 605.183594 686.835938 608.632812 686.835938 612.082031 C 686.835938 612.515625 686.835938 613.378906 686.835938 613.808594 C 687.265625 617.6875 688.992188 620.707031 691.578125 623.292969 C 694.164062 625.882812 698.046875 626.746094 701.925781 626.746094 C 709.6875 626.3125 715.292969 619.414062 714.859375 612.082031 C 714.859375 608.632812 714.859375 605.183594 714.859375 601.734375 C 714.859375 601.734375 714.859375 601.304688 714.859375 601.304688 C 714.859375 601.304688 715.292969 601.304688 715.722656 601.304688 C 720.035156 601.304688 724.347656 601.304688 728.65625 601.304688 C 731.675781 601.304688 734.261719 601.304688 737.28125 601.304688 C 747.628906 601.304688 757.976562 601.304688 768.753906 601.304688 C 769.617188 601.304688 770.050781 601.304688 770.480469 601.304688 C 770.480469 601.734375 770.480469 602.164062 770.480469 603.027344 C 770.050781 606.476562 770.050781 609.925781 770.480469 612.945312 C 770.480469 620.707031 776.515625 627.175781 784.707031 627.175781 C 792.039062 627.175781 798.503906 621.140625 798.503906 613.808594 C 798.9375 609.925781 798.9375 605.617188 798.503906 601.734375 C 804.542969 601.734375 810.148438 601.734375 815.75 601.734375 C 816.613281 601.734375 817.476562 601.734375 818.769531 601.734375 C 826.53125 600.871094 831.703125 593.542969 830.84375 586.210938 L 830.84375 575.429688 C 830.84375 566.808594 830.84375 558.183594 830.84375 549.992188 L 831.273438 549.992188 L 832.566406 540.933594 L 833.859375 532.3125 L 836.015625 518.945312 C 840.328125 518.945312 844.207031 516.355469 845.5 512.476562 L 848.519531 506.4375 C 855.417969 492.210938 862.746094 477.546875 870.507812 463.75 C 876.546875 452.96875 883.011719 442.191406 889.480469 431.839844 C 898.964844 416.316406 908.449219 400.363281 917.074219 383.976562 C 917.503906 383.117188 917.9375 382.253906 918.367188 381.820312 L 1352.113281 436.152344 L 1335.296875 571.980469 L 1250.789062 571.980469 C 1247.773438 566.808594 1244.324219 561.632812 1241.304688 556.890625 L 1234.835938 546.542969 C 1229.230469 536.191406 1218.453125 529.722656 1206.382812 529.722656 C 1176.199219 529.722656 1145.585938 529.722656 1114.976562 529.722656 C 1111.957031 529.722656 1109.371094 529.722656 1106.351562 529.722656 C 1067.546875 529.722656 1029.175781 529.722656 990.371094 529.722656 C 977.003906 529.722656 966.226562 536.625 960.621094 547.835938 C 959.328125 550.421875 958.464844 553.007812 957.601562 556.027344 C 957.171875 556.890625 957.171875 558.183594 957.171875 559.476562 C 956.308594 565.082031 956.738281 570.257812 957.171875 575.863281 C 957.601562 579.3125 957.601562 582.761719 957.601562 586.210938 C 956.308594 609.925781 956.742188 634.074219 957.171875 657.789062 C 957.171875 661.671875 957.171875 665.121094 957.171875 669.003906 C 957.171875 672.019531 957.171875 674.609375 957.171875 677.625 C 957.171875 679.351562 957.171875 681.074219 957.171875 682.800781 C 957.171875 694.875 957.601562 726.351562 958.464844 759.554688 C 958.464844 769.472656 958.894531 779.820312 958.894531 790.167969 C 958.894531 793.1875 958.894531 795.773438 958.894531 798.792969 C 959.328125 832.425781 959.757812 864.335938 959.757812 875.546875 C 959.757812 876.410156 959.757812 877.703125 959.757812 878.566406 C 959.757812 878.996094 959.757812 878.996094 959.757812 879.429688 C 959.757812 879.429688 959.757812 879.859375 959.757812 879.859375 C 959.757812 882.015625 960.191406 883.738281 961.050781 885.035156 C 961.484375 886.328125 962.34375 887.621094 962.777344 888.484375 C 965.363281 891.5 970.105469 895.382812 980.023438 895.382812 C 1008.480469 895.382812 1035.210938 895.382812 1061.082031 895.382812 C 1064.097656 895.382812 1066.6875 895.382812 1069.703125 895.382812 C 1110.234375 895.382812 1148.175781 895.382812 1186.546875 895.382812 C 1221.902344 895.382812 1257.257812 895.382812 1294.769531 895.382812 L 1260.277344 1171.78125 L 1252.082031 1239.050781 Z M 223.769531 1118.3125 C 223.769531 1117.019531 223.769531 1115.296875 224.203125 1114 C 224.203125 1112.707031 224.632812 1110.984375 224.632812 1109.6875 C 225.066406 1106.671875 225.496094 1103.222656 225.925781 1100.203125 C 234.550781 1045.871094 259.125 996.714844 294.480469 957.476562 C 297.066406 954.886719 299.222656 952.300781 301.8125 949.714844 C 306.984375 944.539062 312.589844 939.363281 318.195312 934.621094 C 321.214844 932.035156 324.664062 929.449219 327.679688 926.859375 C 374.246094 890.640625 432.453125 868.648438 496.261719 868.648438 C 501.007812 868.648438 506.179688 868.648438 510.921875 869.078125 C 513.941406 869.078125 516.527344 869.511719 519.546875 869.941406 C 563.953125 873.824219 605.777344 888.050781 641.5625 910.90625 L 639.839844 912.628906 L 641.996094 939.796875 L 642.425781 944.96875 L 642.855469 950.578125 L 644.152344 964.375 L 637.253906 970.84375 L 617.851562 989.382812 L 610.089844 997.144531 L 597.585938 1009.21875 L 560.9375 1044.578125 L 526.011719 1078.210938 L 501.867188 1101.496094 C 500.144531 1101.066406 497.988281 1101.066406 496.261719 1101.066406 C 477.722656 1101.066406 462.203125 1116.15625 462.203125 1135.128906 C 462.203125 1136.855469 462.203125 1138.578125 462.632812 1140.304688 C 463.0625 1142.03125 463.0625 1143.324219 463.496094 1144.617188 C 463.925781 1146.339844 464.359375 1147.636719 465.21875 1149.359375 C 470.394531 1161.003906 482.464844 1169.195312 495.832031 1169.195312 C 506.609375 1169.195312 516.097656 1164.453125 522.132812 1156.691406 C 522.996094 1155.398438 523.855469 1154.101562 524.71875 1152.808594 C 525.582031 1151.515625 526.445312 1150.222656 526.875 1148.929688 C 528.601562 1145.046875 529.460938 1140.304688 529.460938 1135.5625 C 529.460938 1132.113281 529.03125 1128.664062 527.738281 1125.210938 L 551.882812 1102.359375 L 586.375 1070.019531 L 623.453125 1035.089844 L 657.085938 1003.613281 L 663.121094 998.007812 L 665.277344 995.851562 L 669.589844 991.972656 L 679.074219 992.402344 L 687.699219 992.835938 L 693.734375 993.265625 L 700.199219 993.695312 L 706.238281 994.128906 L 725.640625 995.421875 C 727.363281 998.441406 729.089844 1001.027344 730.8125 1004.046875 C 732.539062 1007.0625 734.261719 1010.082031 735.988281 1013.53125 C 750.214844 1040.265625 760.5625 1069.589844 765.304688 1100.632812 C 767.03125 1110.550781 767.894531 1120.902344 768.324219 1131.25 C 768.324219 1135.128906 768.753906 1138.578125 768.753906 1142.460938 C 768.753906 1148.929688 768.324219 1155.398438 767.894531 1161.863281 C 767.460938 1167.039062 767.03125 1172.644531 766.167969 1177.820312 C 766.167969 1179.113281 765.738281 1180.839844 765.738281 1182.132812 C 765.738281 1183.425781 765.304688 1185.148438 764.875 1186.445312 C 764.875 1186.875 764.875 1187.304688 764.445312 1187.738281 C 742.886719 1317.097656 629.921875 1415.84375 494.539062 1415.84375 C 365.621094 1415.84375 256.96875 1326.152344 228.515625 1205.847656 C 225.066406 1191.617188 222.910156 1176.957031 221.617188 1161.863281 C 221.183594 1155.398438 220.753906 1148.929688 220.753906 1142.460938 C 220.753906 1138.578125 220.753906 1134.699219 221.183594 1131.25 C 223.339844 1126.507812 223.339844 1122.625 223.769531 1118.3125 Z M 93.992188 440.035156 C 95.285156 440.035156 96.578125 439.601562 98.304688 439.601562 C 100.890625 439.601562 103.476562 440.035156 106.066406 440.464844 L 114.6875 442.191406 L 134.519531 446.933594 L 143.144531 448.660156 L 372.519531 501.695312 L 381.144531 503.421875 L 413.480469 510.75 C 432.019531 515.0625 443.660156 533.605469 439.351562 552.148438 L 427.710938 602.164062 L 425.984375 610.789062 L 420.378906 634.507812 L 411.757812 671.589844 L 406.582031 694.011719 C 406.152344 696.597656 405.289062 698.753906 403.996094 701.34375 C 400.113281 709.105469 393.648438 715.140625 385.886719 718.589844 C 379.417969 721.175781 372.519531 722.039062 365.621094 720.316406 L 353.980469 717.726562 L 345.359375 716.003906 L 325.09375 710.398438 L 115.980469 662.964844 L 111.671875 662.101562 L 107.359375 661.242188 L 101.320312 659.945312 L 58.207031 650.027344 C 39.667969 645.71875 28.023438 627.175781 32.335938 608.632812 L 64.671875 466.769531 C 65.96875 461.164062 68.554688 456.421875 72.003906 452.109375 C 77.175781 446.070312 84.074219 442.191406 91.40625 440.464844 C 92.269531 440.464844 93.128906 440.464844 93.992188 440.035156 Z M 583.789062 192.957031 C 617.851562 139.917969 676.054688 107.578125 739.003906 106.285156 C 802.386719 104.992188 859.730469 133.882812 896.378906 186.058594 C 930.871094 234.78125 940.355469 286.097656 925.695312 339.132812 C 922.679688 350.34375 918.367188 361.554688 912.761719 372.765625 C 911.898438 374.0625 911.46875 375.355469 910.605469 376.648438 C 910.175781 377.941406 909.3125 378.804688 908.882812 380.097656 C 908.882812 380.097656 908.882812 380.527344 908.449219 380.527344 C 900.257812 396.484375 890.773438 412.007812 881.289062 427.097656 C 874.820312 437.449219 868.351562 448.226562 862.316406 459.007812 C 854.125 473.238281 847.226562 487.898438 840.328125 502.128906 L 837.308594 508.59375 C 837.308594 508.59375 837.308594 509.027344 836.878906 509.027344 C 836.445312 509.457031 835.585938 509.890625 835.152344 509.890625 L 834.722656 509.890625 C 817.046875 509.890625 799.367188 509.890625 781.691406 509.890625 C 776.515625 509.890625 771.773438 509.890625 766.597656 509.890625 L 742.453125 509.890625 C 741.59375 509.890625 741.160156 509.890625 740.296875 509.890625 C 712.703125 509.890625 685.109375 509.890625 657.515625 509.890625 C 655.359375 509.890625 652.773438 509.890625 650.617188 509.890625 C 649.753906 509.890625 648.894531 509.890625 648.460938 509.890625 C 648.460938 509.890625 648.460938 509.890625 648.03125 509.457031 C 648.03125 509.027344 648.03125 509.027344 647.601562 508.59375 C 636.820312 481.859375 621.300781 457.28125 606.640625 433.566406 L 602.757812 427.53125 C 595 415.023438 586.804688 402.089844 579.90625 388.722656 C 579.046875 386.996094 577.753906 384.839844 576.890625 383.117188 C 571.714844 373.199219 567.402344 362.847656 563.523438 352.5 C 563.523438 352.070312 563.09375 351.636719 563.09375 351.207031 C 561.367188 346.464844 560.074219 341.71875 558.78125 336.976562 C 558.351562 335.683594 557.917969 333.960938 557.488281 332.664062 C 557.054688 331.371094 557.054688 329.648438 556.625 328.351562 C 547.570312 280.921875 556.195312 235.644531 583.789062 192.957031 Z M 821.789062 586.644531 C 822.21875 589.660156 820.0625 592.25 817.046875 592.679688 C 816.613281 592.679688 816.183594 592.679688 815.75 592.679688 L 814.890625 592.679688 C 809.714844 592.679688 804.109375 592.679688 797.644531 592.679688 C 796.78125 592.679688 793.761719 592.679688 791.175781 594.835938 C 789.019531 596.992188 789.019531 600.011719 789.019531 601.304688 C 789.019531 605.183594 789.019531 609.066406 789.019531 613.378906 C 789.019531 616.394531 786.863281 618.550781 783.847656 618.550781 C 780.828125 618.550781 778.242188 615.964844 778.242188 612.515625 C 777.808594 609.496094 777.808594 606.476562 778.242188 603.890625 C 778.671875 601.734375 778.671875 598.285156 776.085938 595.699219 C 773.929688 593.109375 770.480469 593.109375 768.324219 593.109375 C 768.324219 593.109375 767.894531 593.109375 767.894531 593.109375 C 757.546875 593.109375 747.628906 593.542969 737.710938 593.109375 C 734.695312 593.109375 732.105469 593.109375 729.089844 593.109375 C 724.347656 593.109375 719.601562 593.109375 714.859375 593.109375 C 712.703125 593.109375 709.6875 593.542969 707.53125 595.699219 C 705.375 598.285156 705.375 601.734375 705.375 603.027344 C 705.375 606.046875 705.375 609.496094 705.375 612.515625 L 705.375 613.378906 C 705.804688 616.394531 703.21875 618.984375 700.632812 618.984375 C 699.339844 618.984375 697.613281 618.550781 696.75 617.6875 C 695.457031 616.828125 695.027344 615.535156 695.027344 614.238281 C 695.027344 613.808594 695.027344 613.808594 695.027344 613.378906 L 695.027344 612.515625 C 695.027344 609.066406 695.027344 606.046875 695.027344 602.597656 C 695.027344 600.871094 695.027344 599.148438 695.027344 597.421875 L 695.027344 593.109375 L 684.25 593.109375 C 679.503906 593.109375 675.625 593.109375 671.3125 593.109375 C 664.414062 593.109375 663.121094 591.816406 663.121094 584.917969 C 663.121094 574.570312 663.121094 564.652344 662.691406 554.300781 L 662.691406 549.558594 L 821.355469 549.558594 C 821.355469 558.183594 821.355469 566.808594 821.355469 575 L 821.355469 586.210938 Z M 824.804688 530.585938 L 824.375 532.3125 L 823.511719 536.625 L 823.082031 539.210938 L 822.648438 540.503906 L 661.398438 540.503906 L 659.671875 531.878906 L 657.515625 518.082031 C 680.367188 518.082031 702.789062 518.082031 725.640625 518.082031 C 729.949219 518.082031 734.261719 518.082031 738.574219 518.082031 C 739.867188 518.082031 740.730469 518.082031 742.023438 518.082031 L 766.167969 518.082031 C 786.433594 518.082031 806.699219 518.082031 826.53125 518.082031 Z M 1432.308594 580.175781 L 1432.308594 614.671875 L 1294.335938 614.671875 C 1288.300781 614.671875 1282.695312 614.671875 1276.660156 614.671875 C 1274.933594 614.671875 1273.210938 614.671875 1271.484375 614.671875 C 1269.761719 614.671875 1268.035156 614.671875 1266.3125 614.671875 C 1212.417969 614.671875 1158.089844 614.671875 1104.195312 614.671875 C 1101.179688 614.671875 1098.589844 614.671875 1095.574219 614.671875 C 1085.226562 614.671875 1074.445312 614.671875 1064.097656 614.671875 C 1045.558594 614.238281 1029.175781 626.746094 1024.433594 644.855469 C 1021.414062 655.203125 1018.394531 665.550781 1015.808594 675.902344 C 1015.378906 677.195312 1014.945312 678.917969 1014.515625 680.214844 C 1014.085938 681.507812 1013.652344 682.800781 1013.222656 684.09375 C 1011.066406 691.425781 1008.910156 699.1875 1006.753906 706.515625 C 1005.460938 710.828125 1004.167969 715.140625 1003.304688 719.453125 L 1003.304688 580.605469 L 1432.308594 580.605469 Z M 1432.308594 580.175781 " fill-opacity="1" fill-rule="nonzero"/></svg>