<svg xmlns="http://www.w3.org/2000/svg" xmlns:xlink="http://www.w3.org/1999/xlink" width="2000" zoomAndPan="magnify" viewBox="0 0 1500 1499.999933" height="2000" preserveAspectRatio="xMidYMid meet" version="1.0"><path fill="#cfcfcf" d="M 585.238281 298.769531 C 575.570312 275.042969 569.421875 249.5625 569.421875 221.441406 C 569.421875 114.234375 656.414062 27.242188 763.621094 27.242188 C 870.824219 27.242188 957.820312 114.234375 957.820312 221.441406 C 957.820312 248.683594 952.546875 275.042969 942.003906 298.769531 L 1144.113281 640.597656 L 1301.40625 640.597656 C 1403.339844 640.597656 1485.941406 723.199219 1485.941406 825.132812 L 1485.941406 1314.585938 C 1485.941406 1417.398438 1403.339844 1500 1301.40625 1500 L 226.714844 1500 C 123.902344 1500 41.300781 1417.398438 41.300781 1314.585938 L 41.300781 825.132812 C 41.300781 723.199219 123.902344 640.597656 226.714844 640.597656 L 383.128906 640.597656 Z M 773.285156 415.640625 C 769.769531 415.640625 767.136719 415.640625 763.621094 415.640625 C 760.984375 415.640625 757.46875 415.640625 754.832031 415.640625 L 624.78125 640.597656 L 902.460938 640.597656 Z M 763.621094 263.621094 C 786.46875 263.621094 805.800781 245.167969 805.800781 221.441406 C 805.800781 198.59375 786.46875 180.140625 763.621094 180.140625 C 740.773438 180.140625 721.441406 198.59375 721.441406 221.441406 C 721.441406 245.167969 740.773438 263.621094 763.621094 263.621094 Z M 763.621094 263.621094 " fill-opacity="1" fill-rule="evenodd"/><path fill="#e6e6e6" d="M 557.996094 271.527344 C 548.332031 247.804688 542.179688 222.320312 542.179688 194.199219 C 542.179688 86.996094 629.175781 0 736.378906 0 C 843.585938 0 930.578125 86.996094 930.578125 194.199219 C 930.578125 222.320312 925.308594 247.804688 914.761719 271.527344 L 1116.871094 613.355469 L 1274.164062 613.355469 C 1376.097656 613.355469 1458.699219 695.957031 1458.699219 797.890625 L 1458.699219 1287.347656 C 1458.699219 1390.15625 1376.097656 1472.757812 1274.164062 1472.757812 L 199.472656 1472.757812 C 96.660156 1472.757812 14.058594 1390.15625 14.058594 1287.347656 L 14.058594 797.890625 C 14.058594 695.957031 96.660156 613.355469 199.472656 613.355469 L 355.886719 613.355469 Z M 746.046875 388.402344 C 742.53125 388.402344 739.894531 388.402344 736.378906 388.402344 C 733.742188 388.402344 730.226562 388.402344 727.59375 388.402344 L 597.539062 613.355469 L 875.21875 613.355469 Z M 736.378906 236.378906 C 759.226562 236.378906 778.558594 217.925781 778.558594 194.199219 C 778.558594 171.351562 759.226562 152.898438 736.378906 152.898438 C 713.53125 152.898438 695.078125 171.351562 695.078125 194.199219 C 695.078125 217.925781 713.53125 236.378906 736.378906 236.378906 Z M 736.378906 236.378906 " fill-opacity="1" fill-rule="evenodd"/><path fill="#00b389" d="M 499.121094 686.292969 C 496.484375 686.292969 492.96875 685.414062 490.332031 684.535156 C 486.820312 681.898438 484.183594 678.382812 483.304688 673.988281 C 450.789062 680.140625 392.792969 686.292969 388.402344 686.292969 C 385.765625 686.292969 382.25 685.414062 380.492188 684.535156 C 372.582031 679.261719 369.945312 669.59375 374.339844 661.6875 L 609.839844 264.5 C 614.234375 256.589844 624.78125 253.953125 632.6875 259.226562 C 639.71875 263.621094 642.355469 273.285156 637.960938 281.195312 L 683.65625 318.101562 C 688.050781 310.191406 697.714844 307.558594 705.625 311.949219 C 713.53125 316.34375 716.167969 326.890625 711.773438 333.917969 L 513.179688 678.382812 C 509.667969 683.65625 504.394531 686.292969 499.121094 686.292969 Z M 974.515625 686.292969 C 968.367188 686.292969 963.09375 683.65625 960.457031 678.382812 L 761.863281 333.917969 C 756.589844 326.890625 759.226562 316.34375 767.136719 311.949219 C 775.042969 307.558594 785.589844 310.191406 789.980469 318.101562 L 834.796875 281.195312 C 830.402344 273.285156 833.039062 263.621094 840.949219 258.347656 C 848.859375 253.953125 858.523438 256.589844 862.917969 264.5 L 1098.417969 661.6875 C 1103.691406 669.59375 1101.054688 679.261719 1093.144531 684.535156 C 1090.507812 685.414062 1087.875 686.292969 1084.359375 686.292969 C 1079.085938 686.292969 1073.8125 683.65625 1070.296875 678.382812 L 1070.296875 677.503906 C 1040.421875 680.140625 987.699219 681.019531 982.425781 684.535156 C 979.789062 685.414062 977.152344 686.292969 974.515625 686.292969 Z M 974.515625 686.292969 " fill-opacity="1" fill-rule="evenodd"/><path fill="#076e6d" d="M 1274.164062 1432.335938 L 199.472656 1432.335938 C 119.507812 1432.335938 54.480469 1367.3125 54.480469 1287.347656 L 54.480469 797.890625 C 54.480469 718.804688 119.507812 653.777344 199.472656 653.777344 L 1274.164062 653.777344 C 1353.25 653.777344 1418.277344 718.804688 1418.277344 797.890625 L 1418.277344 1287.347656 C 1418.277344 1367.3125 1353.25 1432.335938 1274.164062 1432.335938 Z M 707.382812 1123.023438 L 629.175781 1123.023438 C 619.507812 1123.023438 612.476562 1115.992188 612.476562 1106.328125 C 612.476562 1097.539062 619.507812 1090.507812 629.175781 1090.507812 L 652.019531 1090.507812 L 652.019531 992.96875 L 629.175781 992.96875 C 619.507812 992.96875 612.476562 985.941406 612.476562 977.152344 C 612.476562 967.488281 619.507812 960.457031 629.175781 960.457031 L 707.382812 960.457031 C 717.046875 960.457031 724.078125 967.488281 724.078125 977.152344 C 724.078125 985.941406 717.046875 992.96875 707.382812 992.96875 L 684.535156 992.96875 L 684.535156 1090.507812 L 707.382812 1090.507812 C 717.046875 1090.507812 724.078125 1097.539062 724.078125 1106.328125 C 724.078125 1115.992188 717.046875 1123.023438 707.382812 1123.023438 Z M 702.109375 1334.796875 L 700.351562 1334.796875 C 670.472656 1334.796875 646.75 1311.070312 646.75 1282.074219 L 646.75 1225.835938 C 646.75 1196.835938 670.472656 1172.230469 700.351562 1172.230469 L 702.988281 1172.230469 C 718.804688 1172.230469 732.863281 1179.261719 742.53125 1191.5625 C 748.683594 1198.59375 746.925781 1209.136719 739.894531 1214.410156 C 732.863281 1220.5625 722.320312 1218.804688 717.046875 1211.773438 C 713.53125 1207.382812 708.261719 1204.746094 702.988281 1204.746094 L 700.351562 1204.746094 C 688.929688 1204.746094 679.261719 1214.410156 679.261719 1225.835938 L 679.261719 1282.074219 C 679.261719 1293.496094 688.929688 1302.285156 700.351562 1302.285156 L 702.109375 1302.285156 C 712.652344 1302.285156 720.5625 1294.375 720.5625 1283.832031 L 720.5625 1265.378906 L 709.140625 1265.378906 C 700.351562 1265.378906 693.320312 1258.347656 693.320312 1249.558594 C 693.320312 1240.773438 700.351562 1232.863281 709.140625 1232.863281 L 737.257812 1232.863281 C 746.046875 1232.863281 753.074219 1240.773438 753.074219 1249.558594 L 753.074219 1283.832031 C 753.074219 1311.949219 730.226562 1334.796875 702.109375 1334.796875 Z M 525.484375 1334.796875 C 480.667969 1334.796875 444.640625 1298.769531 444.640625 1253.953125 C 444.640625 1209.136719 480.667969 1172.230469 525.484375 1172.230469 C 570.296875 1172.230469 607.207031 1209.136719 607.207031 1253.953125 C 607.207031 1298.769531 570.296875 1334.796875 525.484375 1334.796875 Z M 525.484375 1204.746094 C 499.121094 1204.746094 477.152344 1226.714844 477.152344 1253.953125 C 477.152344 1280.316406 499.121094 1302.285156 525.484375 1302.285156 C 552.722656 1302.285156 573.8125 1280.316406 573.8125 1253.953125 C 573.8125 1226.714844 552.722656 1204.746094 525.484375 1204.746094 Z M 397.1875 1334.796875 C 396.308594 1334.796875 395.429688 1334.796875 394.550781 1334.796875 C 385.765625 1333.917969 379.613281 1326.011719 380.492188 1317.222656 C 383.128906 1297.890625 380.492188 1282.953125 374.339844 1275.921875 C 369.945312 1270.648438 364.675781 1269.769531 364.675781 1269.769531 L 348.859375 1269.769531 L 348.859375 1318.980469 C 348.859375 1327.769531 341.828125 1334.796875 332.160156 1334.796875 C 323.375 1334.796875 316.34375 1327.769531 316.34375 1318.980469 L 316.34375 1188.929688 C 316.34375 1180.140625 323.375 1172.230469 332.160156 1172.230469 L 364.675781 1172.230469 C 391.914062 1172.230469 413.882812 1194.199219 413.882812 1221.441406 C 413.882812 1234.621094 408.613281 1246.925781 399.824219 1255.710938 C 412.125 1270.648438 416.519531 1292.617188 413.003906 1320.738281 C 412.125 1328.648438 405.097656 1334.796875 397.1875 1334.796875 Z M 348.859375 1237.257812 L 364.675781 1237.257812 C 374.339844 1237.257812 381.371094 1230.226562 381.371094 1221.441406 C 381.371094 1212.652344 373.460938 1204.746094 364.675781 1204.746094 L 348.859375 1204.746094 Z M 206.503906 1334.796875 C 197.714844 1334.796875 190.683594 1327.769531 190.683594 1318.980469 L 190.683594 1188.929688 C 190.683594 1180.140625 197.714844 1172.230469 206.503906 1172.230469 L 239.015625 1172.230469 C 266.257812 1172.230469 288.226562 1194.199219 288.226562 1221.441406 C 288.226562 1248.683594 266.257812 1269.769531 239.015625 1269.769531 L 223.199219 1269.769531 L 223.199219 1318.980469 C 223.199219 1327.769531 215.289062 1334.796875 206.503906 1334.796875 Z M 223.199219 1237.257812 L 239.015625 1237.257812 C 247.804688 1237.257812 254.832031 1230.226562 254.832031 1221.441406 C 254.832031 1212.652344 247.804688 1204.746094 239.015625 1204.746094 L 223.199219 1204.746094 Z M 1233.742188 1334.796875 C 1207.382812 1334.796875 1185.414062 1312.828125 1185.414062 1286.46875 C 1185.414062 1277.679688 1192.441406 1269.769531 1201.230469 1269.769531 C 1210.894531 1269.769531 1217.925781 1277.679688 1217.925781 1286.46875 C 1217.925781 1295.253906 1224.957031 1302.285156 1233.742188 1302.285156 C 1242.53125 1302.285156 1250.4375 1295.253906 1250.4375 1286.46875 C 1250.4375 1277.679688 1242.53125 1269.769531 1233.742188 1269.769531 C 1207.382812 1269.769531 1185.414062 1247.804688 1185.414062 1221.441406 C 1185.414062 1194.199219 1207.382812 1172.230469 1233.742188 1172.230469 C 1260.984375 1172.230469 1282.953125 1194.199219 1282.953125 1221.441406 C 1282.953125 1230.226562 1275.921875 1237.257812 1266.257812 1237.257812 C 1257.46875 1237.257812 1250.4375 1230.226562 1250.4375 1221.441406 C 1250.4375 1212.652344 1243.410156 1204.746094 1233.742188 1204.746094 C 1224.957031 1204.746094 1217.925781 1212.652344 1217.925781 1221.441406 C 1217.925781 1230.226562 1224.957031 1237.257812 1233.742188 1237.257812 C 1260.984375 1237.257812 1282.953125 1259.226562 1282.953125 1286.46875 C 1282.953125 1312.828125 1260.984375 1334.796875 1233.742188 1334.796875 Z M 1107.207031 1334.796875 C 1079.964844 1334.796875 1057.996094 1312.828125 1057.996094 1286.46875 C 1057.996094 1277.679688 1065.90625 1269.769531 1074.691406 1269.769531 C 1083.480469 1269.769531 1090.507812 1277.679688 1090.507812 1286.46875 C 1090.507812 1295.253906 1098.417969 1302.285156 1107.207031 1302.285156 C 1115.992188 1302.285156 1123.023438 1295.253906 1123.023438 1286.46875 C 1123.023438 1277.679688 1115.992188 1269.769531 1107.207031 1269.769531 C 1079.964844 1269.769531 1057.996094 1247.804688 1057.996094 1221.441406 C 1057.996094 1194.199219 1079.964844 1172.230469 1107.207031 1172.230469 C 1133.566406 1172.230469 1155.535156 1194.199219 1155.535156 1221.441406 C 1155.535156 1230.226562 1148.507812 1237.257812 1139.71875 1237.257812 C 1130.050781 1237.257812 1123.023438 1230.226562 1123.023438 1221.441406 C 1123.023438 1212.652344 1115.992188 1204.746094 1107.207031 1204.746094 C 1098.417969 1204.746094 1090.507812 1212.652344 1090.507812 1221.441406 C 1090.507812 1230.226562 1098.417969 1237.257812 1107.207031 1237.257812 C 1133.566406 1237.257812 1155.535156 1259.226562 1155.535156 1286.46875 C 1155.535156 1312.828125 1133.566406 1334.796875 1107.207031 1334.796875 Z M 1007.910156 1334.796875 L 947.277344 1334.796875 C 938.488281 1334.796875 931.457031 1327.769531 931.457031 1318.980469 L 931.457031 1188.929688 C 931.457031 1180.140625 938.488281 1172.230469 947.277344 1172.230469 L 1007.910156 1172.230469 C 1016.695312 1172.230469 1023.726562 1180.140625 1023.726562 1188.929688 C 1023.726562 1197.714844 1016.695312 1204.746094 1007.910156 1204.746094 L 963.972656 1204.746094 L 963.972656 1237.257812 L 1007.910156 1237.257812 C 1016.695312 1237.257812 1023.726562 1245.167969 1023.726562 1253.953125 C 1023.726562 1262.742188 1016.695312 1269.769531 1007.910156 1269.769531 L 963.972656 1269.769531 L 963.972656 1302.285156 L 1007.910156 1302.285156 C 1016.695312 1302.285156 1023.726562 1310.191406 1023.726562 1318.980469 C 1023.726562 1327.769531 1016.695312 1334.796875 1007.910156 1334.796875 Z M 870.824219 1334.796875 C 869.945312 1334.796875 869.945312 1334.796875 869.070312 1334.796875 C 860.28125 1333.917969 854.128906 1326.011719 855.007812 1317.222656 C 857.644531 1292.617188 853.25 1282.074219 848.859375 1275.921875 C 844.464844 1271.527344 839.191406 1270.648438 838.3125 1269.769531 L 822.496094 1269.769531 L 822.496094 1318.980469 C 822.496094 1327.769531 815.464844 1334.796875 806.679688 1334.796875 C 797.890625 1334.796875 789.980469 1327.769531 789.980469 1318.980469 L 789.980469 1188.929688 C 789.980469 1180.140625 797.890625 1172.230469 806.679688 1172.230469 L 839.191406 1172.230469 C 865.554688 1172.230469 887.523438 1194.199219 887.523438 1221.441406 C 887.523438 1234.621094 882.25 1246.925781 873.460938 1255.710938 C 885.765625 1270.648438 890.15625 1292.617188 887.523438 1320.738281 C 885.765625 1328.648438 878.734375 1334.796875 870.824219 1334.796875 Z M 822.496094 1237.257812 L 839.191406 1237.257812 C 847.980469 1237.257812 855.007812 1230.226562 855.007812 1221.441406 C 855.007812 1212.652344 847.980469 1204.746094 839.191406 1204.746094 L 822.496094 1204.746094 Z M 884.886719 913.882812 C 884.007812 913.882812 883.128906 913.882812 882.25 913.882812 C 873.460938 913.003906 867.3125 904.21875 868.191406 895.429688 C 870.824219 871.703125 866.433594 860.28125 862.039062 855.007812 C 857.644531 849.734375 853.25 848.859375 852.371094 848.859375 L 836.554688 848.859375 L 836.554688 897.1875 C 836.554688 906.855469 829.527344 913.882812 819.859375 913.882812 C 811.070312 913.882812 804.042969 906.855469 804.042969 897.1875 L 804.042969 768.015625 C 804.042969 758.347656 811.070312 751.316406 819.859375 751.316406 L 852.371094 751.316406 C 879.613281 751.316406 901.582031 773.285156 901.582031 799.648438 C 901.582031 813.707031 896.308594 825.132812 887.523438 833.917969 C 899.824219 848.859375 904.21875 870.824219 900.703125 899.824219 C 899.824219 907.734375 892.792969 913.882812 884.886719 913.882812 Z M 836.554688 816.34375 L 852.371094 816.34375 C 861.160156 816.34375 869.070312 809.316406 869.070312 799.648438 C 869.070312 790.859375 861.160156 783.832031 852.371094 783.832031 L 836.554688 783.832031 Z M 1043.9375 913.882812 C 1039.542969 913.882812 1035.148438 912.125 1032.511719 909.488281 L 992.96875 870.824219 L 992.96875 897.1875 C 992.96875 906.855469 985.941406 913.882812 977.152344 913.882812 C 968.367188 913.882812 960.457031 906.855469 960.457031 897.1875 L 960.457031 768.015625 C 960.457031 758.347656 968.367188 751.316406 977.152344 751.316406 C 985.941406 751.316406 992.96875 758.347656 992.96875 768.015625 L 992.96875 793.496094 L 1032.511719 755.710938 C 1038.664062 749.558594 1049.210938 749.558594 1055.359375 756.589844 C 1061.511719 762.742188 1061.511719 773.285156 1055.359375 779.4375 L 1000 832.160156 L 1055.359375 885.765625 C 1061.511719 891.914062 1061.511719 902.460938 1055.359375 908.613281 C 1051.84375 912.125 1047.453125 913.882812 1043.9375 913.882812 Z M 671.351562 913.882812 C 626.539062 913.882812 589.632812 876.976562 589.632812 832.160156 C 589.632812 787.347656 626.539062 751.316406 671.351562 751.316406 C 716.167969 751.316406 752.195312 787.347656 752.195312 832.160156 C 752.195312 876.976562 716.167969 913.882812 671.351562 913.882812 Z M 671.351562 783.832031 C 644.113281 783.832031 622.144531 805.800781 622.144531 832.160156 C 622.144531 859.402344 644.113281 881.371094 671.351562 881.371094 C 697.714844 881.371094 719.683594 859.402344 719.683594 832.160156 C 719.683594 805.800781 697.714844 783.832031 671.351562 783.832031 Z M 539.542969 913.882812 C 535.148438 913.882812 531.632812 913.003906 528.121094 909.488281 L 484.183594 866.433594 L 441.125 909.488281 C 435.851562 913.882812 429.703125 915.640625 423.550781 913.003906 C 417.398438 910.367188 413.003906 904.21875 413.003906 898.066406 L 413.003906 767.136719 C 413.003906 758.347656 420.914062 751.316406 429.703125 751.316406 C 438.488281 751.316406 445.519531 758.347656 445.519531 767.136719 L 445.519531 859.402344 L 473.636719 832.160156 C 479.789062 826.011719 489.457031 826.011719 495.605469 832.160156 L 523.726562 859.402344 L 523.726562 767.136719 C 523.726562 758.347656 530.753906 751.316406 539.542969 751.316406 C 548.332031 751.316406 556.238281 758.347656 556.238281 767.136719 L 556.238281 898.066406 C 556.238281 904.21875 551.84375 910.367188 545.695312 913.003906 C 543.9375 913.882812 542.179688 913.882812 539.542969 913.882812 Z M 844.464844 1123.023438 C 838.3125 1123.023438 832.160156 1119.507812 829.527344 1114.234375 L 795.253906 1045.695312 L 795.253906 1106.328125 C 795.253906 1115.992188 788.226562 1123.023438 779.4375 1123.023438 C 770.648438 1123.023438 762.742188 1115.992188 762.742188 1106.328125 L 762.742188 977.152344 C 762.742188 969.242188 768.015625 962.214844 775.921875 960.457031 C 782.953125 958.699219 790.859375 963.09375 793.496094 969.242188 L 827.769531 1037.785156 L 827.769531 977.152344 C 827.769531 967.488281 835.675781 960.457031 844.464844 960.457031 C 853.25 960.457031 860.28125 967.488281 860.28125 977.152344 L 860.28125 1106.328125 C 860.28125 1114.234375 855.007812 1120.386719 847.980469 1122.144531 C 847.101562 1123.023438 845.34375 1123.023438 844.464844 1123.023438 Z M 844.464844 1123.023438 " fill-opacity="1" fill-rule="evenodd"/><path fill="#076e6d" d="M 736.378906 347.980469 C 652.019531 347.980469 583.480469 279.4375 583.480469 194.199219 C 583.480469 109.839844 652.019531 41.300781 736.378906 41.300781 C 821.617188 41.300781 890.15625 109.839844 890.15625 194.199219 C 890.15625 279.4375 821.617188 347.980469 736.378906 347.980469 Z M 736.378906 276.800781 C 690.683594 276.800781 653.777344 239.894531 653.777344 194.199219 C 653.777344 149.386719 690.683594 111.597656 736.378906 111.597656 C 782.074219 111.597656 818.980469 149.386719 818.980469 194.199219 C 818.980469 239.894531 782.074219 276.800781 736.378906 276.800781 Z M 736.378906 276.800781 " fill-opacity="1" fill-rule="evenodd"/></svg>