<svg xmlns="http://www.w3.org/2000/svg" xmlns:xlink="http://www.w3.org/1999/xlink" width="2000" zoomAndPan="magnify" viewBox="0 0 1500 1499.999933" height="2000" preserveAspectRatio="xMidYMid meet" version="1.0"><defs><clipPath id="2a225d8d2c"><path d="M 6 81.816406 L 1500 81.816406 L 1500 1418.316406 L 6 1418.316406 Z M 6 81.816406 " clip-rule="nonzero"/></clipPath></defs><path fill="#f5f6f7" d="M 1274.488281 530.652344 C 1319.203125 711.234375 1289.96875 873.84375 1209.191406 893.851562 C 1192.53125 897.976562 1174.984375 895.699219 1157.226562 887.925781 L 1157.3125 888.265625 L 831.742188 834.796875 C 831.742188 834.796875 788.980469 745.121094 766.945312 656.203125 C 744.941406 567.273438 740.917969 467.996094 740.917969 467.996094 L 1003.910156 268.757812 L 1004.070312 269.390625 C 1016.144531 254.230469 1030.605469 244.027344 1047.261719 239.902344 C 1086.402344 230.207031 1130.460938 255.773438 1170.570312 305.246094 L 1170.648438 305.378906 C 1182.808594 295.113281 1198.503906 288.902344 1215.664062 288.902344 C 1254.253906 288.902344 1285.535156 320.1875 1285.535156 358.78125 C 1285.535156 389.019531 1266.296875 414.695312 1239.421875 424.429688 L 1239.617188 424.765625 C 1253.261719 457.242188 1265.125 492.839844 1274.488281 530.652344 Z M 201 1145.957031 L 58.523438 1147.097656 C 58.523438 1147.097656 24.328125 1303.269531 30.027344 1416.125 C 134.320312 1416.125 229.496094 1416.125 229.496094 1416.125 C 229.496094 1416.125 229.78125 1348.867188 222.941406 1284.175781 C 216.101562 1219.484375 201 1145.957031 201 1145.957031 Z M 102.121094 988.789062 C 101.265625 993.0625 100.269531 994.917969 102.121094 996.625 C 102.121094 996.625 118.433594 994.988281 123.777344 975.539062 C 129.121094 956.085938 115.65625 947.75 115.441406 924.667969 C 115.230469 911.203125 118.863281 907.996094 118.863281 907.996094 C 118.863281 907.996094 125.914062 925.308594 144.507812 925.308594 C 157.972656 925.523438 165.238281 918.46875 167.589844 904.363281 C 169.941406 890.253906 171.4375 871.875 171.4375 871.875 C 171.4375 871.875 193.234375 876.789062 203.707031 871.019531 C 209.265625 866.957031 215.890625 839.171875 215.890625 839.171875 C 215.890625 839.171875 223.582031 836.820312 224.863281 832.117188 C 226.148438 827.417969 215.890625 817.796875 215.890625 817.796875 L 214.179688 808.605469 C 214.179688 808.605469 223.15625 806.683594 222.726562 793.324219 C 223.582031 793.644531 227.324219 803.691406 225.933594 807.003906 C 228.820312 807.324219 232.984375 802.089844 233.308594 790.761719 C 233.628906 779.433594 232.34375 757.382812 204.703125 745.695312 C 177.0625 734.011719 136.316406 730.734375 106.824219 753.820312 C 77.328125 776.902344 77.613281 807.964844 83.742188 825.066406 C 89.867188 842.164062 97.847656 862.539062 107.820312 866.816406 C 107.820312 866.816406 85.308594 864.535156 73.484375 890.46875 C 61.65625 916.402344 88.300781 953.308594 91.292969 956.300781 C 94.285156 959.292969 105.253906 967.558594 102.121094 988.789062 Z M 200.144531 976.960938 L 154.554688 1013.726562 L 151.417969 1036.523438 L 164.527344 1066.449219 L 176.777344 1069.296875 L 209.265625 1047.070312 L 229.496094 1037.949219 L 228.640625 1004.890625 L 239.753906 993.492188 L 237.757812 978.101562 Z M 279.078125 948.75 L 293.609375 951.3125 C 293.609375 951.3125 283.066406 972.972656 287.910156 987.507812 L 322.535156 1004.460938 C 322.535156 1004.460938 332.648438 991.355469 340.628906 983.375 C 348.605469 975.394531 358.4375 965.847656 358.4375 965.847656 L 380.804688 970.121094 L 409.300781 833.328125 L 307.574219 811.957031 Z M 515.589844 851.285156 L 552.0625 841.308594 C 552.0625 841.308594 567.878906 670.320312 587.539062 670.320312 C 607.203125 670.320312 614.683594 656.640625 614.683594 643.816406 C 614.683594 630.992188 614.683594 511.296875 614.683594 511.296875 L 614.183594 395.734375 L 648.519531 360.253906 C 648.519531 360.253906 686.277344 321.78125 697.390625 308.671875 C 708.503906 295.5625 731.160156 264.929688 731.160156 264.929688 L 772.191406 202.089844 C 772.191406 202.089844 796.699219 156.347656 799.40625 146.660156 C 802.113281 136.96875 801.683594 128.136719 794.988281 125 C 801.542969 115.167969 792.136719 111.464844 788.433594 113.601562 C 792.992188 105.480469 784.015625 101.632812 778.746094 102.628906 C 780.3125 94.363281 771.621094 92.65625 765.066406 98.496094 C 758.511719 104.339844 750.960938 115.597656 750.960938 115.597656 L 743.125 125.570312 C 743.125 125.570312 742.984375 100.066406 738.707031 92.511719 C 734.433594 84.960938 727.878906 82.964844 725.886719 85.816406 C 723.890625 88.664062 725.03125 107.1875 723.035156 120.011719 C 721.042969 132.839844 712.207031 151.933594 712.207031 157.0625 C 712.207031 162.191406 712.207031 175.871094 710.5 179.003906 C 689.980469 206.078125 615.039062 285.589844 615.039062 285.589844 L 568.875 330.332031 L 500.773438 328.90625 L 497.351562 316.082031 L 507.894531 310.382812 C 512.453125 301.832031 512.738281 285.019531 510.175781 281.882812 C 517.015625 276.753906 518.152344 270.769531 518.152344 270.769531 C 518.152344 270.769531 516.730469 267.636719 507.039062 259.371094 C 518.152344 224.886719 494.503906 196.105469 450.621094 197.8125 C 406.734375 199.523438 375.960938 223.464844 373.398438 262.222656 C 370.832031 300.980469 387.359375 329.191406 387.359375 329.191406 C 387.359375 329.191406 311.847656 329.191406 294.179688 329.191406 C 276.511719 329.191406 273.09375 347.429688 273.09375 355.410156 C 273.09375 363.390625 273.09375 425.515625 273.09375 439.765625 C 267.964844 446.605469 237.472656 485.078125 240.324219 504.457031 C 245.167969 535.519531 272.949219 568.152344 272.949219 568.152344 C 272.949219 568.152344 272.949219 621.160156 272.949219 644.242188 C 272.949219 667.324219 289.621094 669.75 298.597656 669.75 C 307.570312 669.75 452.898438 669.75 452.898438 669.75 C 452.898438 669.75 486.808594 810.816406 492.792969 831.90625 C 498.777344 852.992188 515.589844 851.285156 515.589844 851.285156 Z M 871.78125 1112.328125 L 871.78125 1043.078125 L 913.671875 1043.078125 C 924.53125 1043.078125 933.332031 1034.273438 933.332031 1023.414062 L 933.332031 959.007812 C 933.332031 948.148438 924.53125 939.34375 913.671875 939.34375 L 525.5625 939.34375 C 514.703125 939.34375 505.902344 948.148438 505.902344 959.007812 L 505.902344 1023.414062 C 505.902344 1034.273438 514.703125 1043.078125 525.5625 1043.078125 L 840.207031 1043.078125 Z M 766.96875 656.289062 C 766.960938 656.261719 766.953125 656.230469 766.945312 656.203125 C 766.9375 656.167969 766.929688 656.136719 766.921875 656.105469 Z M 1481.949219 473.722656 L 1362.765625 473.722656 C 1353.796875 473.722656 1346.523438 480.996094 1346.523438 489.96875 L 1346.523438 537.988281 C 1346.523438 546.957031 1353.796875 554.230469 1362.765625 554.230469 L 1481.949219 554.230469 C 1490.917969 554.230469 1498.191406 546.957031 1498.191406 537.988281 L 1498.191406 489.96875 C 1498.191406 480.996094 1490.917969 473.722656 1481.949219 473.722656 Z M 1372.046875 677.898438 C 1339.878906 677.898438 1313.800781 703.980469 1313.800781 736.152344 C 1313.800781 768.320312 1339.878906 794.402344 1372.046875 794.402344 C 1404.214844 794.402344 1430.292969 768.320312 1430.292969 736.152344 C 1430.292969 703.980469 1404.214844 677.898438 1372.046875 677.898438 Z M 1109.148438 1205.804688 C 1106.871094 1207.230469 1093.191406 1243.992188 1093.191406 1243.992188 L 1055.863281 1365.394531 C 1055.863281 1365.394531 1078.089844 1274.199219 1072.105469 1237.4375 C 1066.121094 1200.675781 1044.75 1190.699219 1044.75 1190.699219 C 1051.617188 1191.371094 1063.488281 1192.054688 1071.394531 1181.582031 C 1078.535156 1172.125 1073.53125 1159.066406 1073.53125 1159.066406 C 1073.53125 1159.066406 1087.496094 1157.949219 1089.347656 1146.742188 C 1092.980469 1124.726562 1070.964844 1124.300781 1064.128906 1113.183594 C 1050.59375 1091.1875 1074.949219 1049.699219 1006.132812 1044.476562 C 977.050781 1042.269531 956.738281 1047.953125 944.550781 1058.167969 C 919.371094 1079.273438 920.082031 1128.144531 926.921875 1134.558594 C 914.527344 1142.253906 917.945312 1177.589844 943.308594 1176.734375 C 932.765625 1198.394531 962.183594 1217.703125 979.925781 1202.3125 L 963.46875 1230.101562 C 963.46875 1230.101562 932.691406 1299.566406 923.289062 1314.953125 C 882.46875 1320.511719 814.082031 1307.257812 814.082031 1307.257812 L 786.9375 1295.71875 L 768.988281 1283.535156 L 761.933594 1279.472656 C 761.933594 1279.472656 748.683594 1191.199219 746.761719 1182.007812 C 744.835938 1172.816406 741.417969 1173.246094 741.417969 1173.246094 C 741.417969 1173.246094 739.410156 1173.84375 732.65625 1175.382812 C 725.898438 1176.921875 727.097656 1180.511719 727.097656 1180.511719 L 734.863281 1225.328125 C 734.863281 1225.328125 743.980469 1283.75 742.84375 1285.601562 C 737.429688 1285.601562 733.011719 1295.433594 733.011719 1295.433594 C 733.011719 1295.433594 728.023438 1294.578125 724.605469 1295.71875 C 721.183594 1296.855469 721.328125 1300.5625 721.328125 1300.5625 C 721.328125 1300.5625 717.910156 1300.277344 716.625 1303.695312 C 715.34375 1307.117188 716.484375 1308.683594 721.613281 1310.820312 L 670.25 1388.265625 C 665.976562 1393.609375 657.101562 1407.5625 656.785156 1410.066406 C 656.472656 1412.574219 659.5625 1414.554688 659.5625 1414.554688 L 756.378906 1413.914062 C 756.378906 1413.914062 759.15625 1413.488281 759.582031 1410.496094 C 760.011719 1407.503906 756.804688 1407.289062 756.804688 1407.289062 L 666.617188 1407.289062 L 724.230469 1320.121094 C 725.226562 1320.832031 726.347656 1321.625 727.738281 1322.648438 C 723.75 1331.199219 741.988281 1336.46875 741.988281 1336.46875 L 748.683594 1400.304688 C 748.683594 1400.304688 749.109375 1404.4375 752.53125 1404.722656 C 755.949219 1405.007812 755.238281 1399.878906 755.238281 1399.878906 L 754.097656 1388.765625 L 751.53125 1351.429688 L 753.242188 1354.566406 C 753.242188 1354.566406 760.082031 1400.449219 760.9375 1406.71875 C 761.792969 1412.988281 766.636719 1413.558594 766.636719 1413.558594 C 766.636719 1413.558594 772.335938 1411.5625 776.894531 1410.421875 C 781.453125 1409.28125 780.597656 1404.722656 780.597656 1404.722656 L 771.480469 1344.59375 C 771.480469 1344.59375 892.300781 1371.664062 914.8125 1375.941406 C 937.324219 1380.214844 948.152344 1368.816406 948.152344 1368.816406 L 947.296875 1385.34375 L 843.574219 1385.058594 C 843.574219 1385.058594 837.019531 1383.066406 833.886719 1385.34375 C 829.324219 1398.167969 835.023438 1399.59375 835.023438 1399.59375 C 835.023438 1399.59375 843.003906 1399.59375 858.390625 1401.304688 C 860.957031 1411.847656 864.089844 1408.144531 864.089844 1408.144531 L 941.027344 1407.859375 L 941.027344 1416.125 L 1106.300781 1416.125 L 1143.058594 1289.875 C 1143.058594 1289.875 1159.871094 1231.453125 1159.304688 1224.042969 C 1156.453125 1219.484375 1111.144531 1204.664062 1109.148438 1205.804688 Z M 580.558594 194.417969 C 611.175781 194.417969 635.996094 169.597656 635.996094 138.976562 C 635.996094 108.359375 611.175781 83.535156 580.558594 83.535156 C 549.941406 83.535156 525.125 108.359375 525.125 138.976562 C 525.125 169.597656 549.941406 194.417969 580.558594 194.417969 Z M 580.558594 194.417969 " fill-opacity="1" fill-rule="nonzero"/><path fill="#5383ff" d="M 580.558594 194.417969 C 611.175781 194.417969 635.996094 169.597656 635.996094 138.976562 C 635.996094 108.359375 611.175781 83.535156 580.558594 83.535156 C 549.941406 83.535156 525.125 108.359375 525.125 138.976562 C 525.125 169.597656 549.941406 194.417969 580.558594 194.417969 Z M 570.773438 127.019531 L 580.558594 107.183594 L 590.347656 127.019531 L 612.230469 130.199219 L 596.394531 145.636719 L 600.132812 167.433594 L 580.558594 157.144531 L 560.984375 167.433594 L 564.722656 145.636719 L 548.886719 130.199219 Z M 1372.046875 731.703125 C 1379.949219 731.703125 1386.351562 725.296875 1386.351562 717.398438 C 1386.351562 709.496094 1379.949219 703.09375 1372.046875 703.09375 C 1364.148438 703.09375 1357.746094 709.496094 1357.746094 717.398438 C 1357.746094 725.296875 1364.148438 731.703125 1372.046875 731.703125 Z M 1372.046875 741.335938 C 1358.253906 741.335938 1347.066406 753.816406 1347.066406 769.207031 L 1397.027344 769.207031 C 1397.027344 753.816406 1385.84375 741.335938 1372.046875 741.335938 Z M 1411.753906 497.234375 C 1401.144531 489.277344 1392.746094 504.308594 1392.746094 504.308594 C 1392.746094 504.308594 1384.34375 489.277344 1373.734375 497.234375 C 1361.667969 506.285156 1383.460938 533.042969 1392.746094 533.042969 C 1402.027344 533.042969 1423.820312 506.285156 1411.753906 497.234375 Z M 1251.226562 354.507812 L 1200.683594 326.824219 C 1197.433594 325.046875 1193.46875 327.394531 1193.46875 331.101562 L 1193.46875 386.464844 C 1193.46875 390.167969 1197.433594 392.515625 1200.683594 390.738281 L 1222.9375 378.550781 L 1251.226562 363.058594 C 1254.601562 361.207031 1254.601562 356.355469 1251.226562 354.507812 Z M 740.703125 468.835938 L 614.46875 510.871094 C 614.46875 510.871094 614.46875 638.6875 614.46875 649.371094 C 614.46875 660.058594 602.5 669.890625 590.960938 669.890625 C 579.417969 669.890625 502.054688 669.890625 502.054688 669.890625 C 502.054688 669.890625 521.289062 772.484375 551.210938 837.890625 C 558.046875 859.261719 584.121094 872.089844 606.347656 870.804688 L 831.175781 835.324219 C 831.175781 835.324219 787.578125 739.570312 765.351562 650.65625 C 743.125 561.738281 740.703125 468.835938 740.703125 468.835938 Z M 264.828125 1024.695312 C 264.828125 1024.695312 259.699219 1013.367188 248.585938 983.660156 C 237.472656 953.949219 223.582031 928.300781 209.265625 918.898438 C 194.945312 909.492188 167.804688 903.722656 167.804688 903.722656 C 167.804688 903.722656 166.519531 925.523438 146.21875 925.308594 C 125.914062 925.09375 118.078125 907.996094 118.078125 907.996094 C 108.675781 929.941406 128.050781 958.722656 123.492188 975.539062 C 118.933594 992.351562 103.261719 998.335938 101.265625 996.054688 C 103.261719 986.082031 98.949219 965.988281 87.304688 949.035156 C 77.613281 934.925781 69.066406 917.6875 70.207031 907.140625 C 59.378906 911.699219 38.292969 919.394531 27.746094 937.632812 C 10.082031 970.691406 7.230469 1032.535156 15.210938 1077.5625 C 23.1875 1122.589844 51.113281 1122.875 51.113281 1122.875 L 51.113281 1146.8125 L 209.265625 1146.8125 L 209.476562 1103.566406 C 209.476562 1103.566406 234.054688 1123.015625 248.160156 1128.574219 C 262.265625 1134.132812 274.234375 1123.230469 293.894531 1093.308594 C 313.558594 1063.382812 329.800781 1008.878906 329.800781 1008.878906 L 284.492188 987.292969 Z M 226.894531 995.308594 C 226.894531 995.308594 209.476562 999.371094 207.449219 1002.363281 C 222.300781 1000.117188 224.972656 1007.597656 220.804688 1011.125 C 228.605469 1014.652344 221.445312 1021.0625 221.445312 1021.0625 C 221.445312 1021.0625 222.835938 1022.667969 223.691406 1028.222656 C 224.222656 1036.667969 213.753906 1040.515625 210.121094 1040.085938 C 206.484375 1039.660156 206.914062 1035.382812 206.914062 1035.382812 C 206.914062 1035.382812 204.5625 1036.453125 199.433594 1039.230469 C 193.023438 1048.421875 184.6875 1055.902344 178.273438 1061.675781 C 171.863281 1067.445312 164.8125 1066.164062 164.8125 1066.164062 L 151.347656 1037.09375 C 151.347656 1037.09375 160.25 1023.84375 173.789062 1010.589844 C 187.324219 997.339844 211.1875 988.46875 215.78125 987.1875 C 220.378906 985.902344 234.804688 982.695312 235.765625 988.789062 C 236.726562 994.878906 226.894531 995.308594 226.894531 995.308594 Z M 226.894531 995.308594 " fill-opacity="1" fill-rule="nonzero"/><g clip-path="url(#2a225d8d2c)"><path fill="#0a0147" d="M 1241.671875 425.367188 C 1268.285156 414.933594 1287.210938 389.054688 1287.210938 358.78125 C 1287.210938 319.328125 1255.113281 287.230469 1215.664062 287.230469 C 1198.734375 287.230469 1183.183594 293.171875 1170.917969 303.039062 C 1129.023438 251.832031 1085.003906 228.828125 1046.863281 238.277344 C 1030.46875 242.335938 1015.949219 252.148438 1003.671875 267.125 C 1003.398438 267.164062 1003.132812 267.246094 1002.902344 267.425781 L 739.964844 466.621094 L 615.75 508.707031 L 615.75 396.023438 C 649.765625 362.257812 689.464844 322.152344 710.667969 295.464844 C 760.800781 232.371094 791.746094 168.460938 792.207031 167.503906 C 802.058594 149.5625 805.386719 133.628906 800.683594 126.898438 C 799.703125 125.492188 798.355469 124.605469 796.796875 124.160156 C 800.660156 118.785156 798.785156 115.367188 797.65625 114.039062 C 796.109375 112.21875 793.480469 111.246094 790.96875 111.28125 C 791.875 106.59375 789.589844 104.277344 788.417969 103.4375 C 786.300781 101.929688 783.292969 101.660156 780.246094 102.453125 C 781.195312 97.8125 779.035156 95.589844 777.925781 94.796875 C 774.460938 92.320312 768.542969 93.367188 763.851562 97.28125 C 761.128906 99.558594 755.671875 105.609375 751.609375 112.207031 C 751.507812 112.292969 751.398438 112.367188 751.316406 112.480469 L 744.773438 121.542969 C 744.527344 117.1875 744.046875 110.132812 743.15625 101.398438 C 742.054688 90.652344 734.269531 82.710938 728.335938 82.871094 C 727.074219 82.921875 722.960938 83.605469 722.855469 90.089844 L 722.816406 93.835938 C 722.710938 106.242188 722.558594 124.992188 715.296875 142.160156 C 710.25 154.101562 710.355469 163.71875 710.421875 170.082031 C 710.464844 173.695312 710.496094 176.550781 709.46875 178.265625 C 705.714844 186.253906 621.972656 279.140625 569.542969 327.59375 C 569.417969 327.566406 569.296875 327.519531 569.164062 327.519531 L 501.449219 327.519531 L 498.617188 318.082031 C 504.082031 315.863281 508.546875 313.257812 509.664062 310.417969 C 512.984375 301.960938 514.035156 292.601562 512.867188 281.824219 C 515.292969 279.800781 521.121094 274.347656 519.402344 269.910156 C 518.003906 266.292969 511.503906 261.269531 508.527344 259.109375 C 512.386719 253.34375 513.707031 245.933594 512.34375 237.550781 C 510.316406 225.089844 502.644531 212.828125 492.800781 206.3125 C 476.664062 195.632812 451.363281 193.453125 425.109375 200.472656 C 403.746094 206.1875 388.367188 217.503906 379.390625 234.121094 C 368.226562 254.78125 367.871094 282.519531 378.363281 314.328125 C 380.050781 319.4375 382.402344 323.769531 385.1875 327.519531 L 296.851562 327.519531 C 283.046875 327.519531 271.8125 338.753906 271.8125 352.558594 L 271.8125 439.320312 C 250.394531 463.785156 234.832031 490.273438 239.835938 511.398438 C 244.273438 530.148438 257.351562 549.710938 271.925781 567.152344 C 271.859375 567.332031 271.8125 567.519531 271.8125 567.722656 L 271.8125 646.449219 C 271.8125 660.257812 283.046875 671.492188 296.851562 671.492188 L 452.003906 671.492188 L 492.402344 834.65625 C 495.035156 845.28125 503.632812 852.59375 512.640625 852.59375 C 513.960938 852.59375 515.292969 852.433594 516.613281 852.109375 L 552.03125 843.335938 C 562.152344 861.476562 581.105469 872.601562 601.730469 872.601562 C 604.769531 872.601562 607.839844 872.363281 610.925781 871.871094 L 831.746094 836.492188 L 1157.039062 889.917969 C 1157.132812 889.933594 1157.222656 889.941406 1157.3125 889.941406 C 1157.367188 889.941406 1157.414062 889.917969 1157.464844 889.914062 C 1169.324219 894.96875 1181 897.570312 1192.308594 897.570312 C 1198.175781 897.566406 1203.949219 896.875 1209.59375 895.476562 C 1291.136719 875.28125 1320.976562 711.4375 1276.113281 530.25 C 1267.042969 493.621094 1255.453125 458.351562 1241.671875 425.367188 Z M 1215.664062 290.578125 C 1253.269531 290.578125 1283.863281 321.175781 1283.863281 358.78125 C 1283.863281 396.390625 1253.269531 426.988281 1215.664062 426.988281 C 1178.0625 426.988281 1147.46875 396.390625 1147.46875 358.78125 C 1147.46875 321.175781 1178.0625 290.578125 1215.664062 290.578125 Z M 1088.691406 682.273438 C 1088.710938 682.269531 1088.726562 682.253906 1088.746094 682.25 C 1088.777344 682.242188 1088.808594 682.246094 1088.839844 682.238281 C 1097.273438 680.148438 1102.394531 667.636719 1103.261719 647 C 1104.097656 627.019531 1100.972656 601.535156 1094.460938 575.238281 C 1080.644531 519.441406 1056.507812 479.019531 1039.5625 483.226562 C 1039.527344 483.234375 1039.496094 483.25 1039.460938 483.261719 C 1039.445312 483.265625 1039.429688 483.257812 1039.417969 483.261719 L 985.296875 496.667969 C 973.113281 374.28125 998.636719 277.742188 1053.28125 264.207031 C 1083.929688 256.613281 1120.1875 276.550781 1155.441406 320.308594 C 1148.308594 331.433594 1144.121094 344.617188 1144.121094 358.78125 C 1144.121094 398.234375 1176.214844 430.335938 1215.664062 430.335938 C 1216.65625 430.335938 1217.621094 430.226562 1218.605469 430.183594 C 1232.554688 463.203125 1244.289062 498.746094 1253.476562 535.855469 C 1294.804688 702.742188 1272.234375 852.433594 1203.171875 869.542969 C 1198.828125 870.621094 1194.410156 871.148438 1189.914062 871.148438 C 1137.917969 871.136719 1077.230469 800.539062 1034.585938 695.675781 Z M 1040.367188 486.476562 C 1040.921875 486.339844 1041.492188 486.273438 1042.082031 486.273438 C 1055.390625 486.273438 1077.558594 520.910156 1091.210938 576.042969 C 1097.648438 602.035156 1100.738281 627.1875 1099.914062 646.859375 C 1099.128906 665.601562 1094.796875 677.3125 1088.035156 678.988281 C 1081.269531 680.671875 1071.980469 672.328125 1062.539062 656.117188 C 1052.628906 639.101562 1043.628906 615.417969 1037.191406 589.421875 C 1022.933594 531.84375 1027.324219 489.707031 1040.367188 486.476562 Z M 788.675781 115.265625 C 789.28125 114.84375 790.171875 114.628906 791.121094 114.628906 C 792.59375 114.628906 794.199219 115.144531 795.105469 116.207031 C 796.558594 117.921875 795.605469 120.789062 792.496094 124.113281 C 787.480469 125.984375 776.933594 136.65625 773.394531 144.636719 C 772.78125 146.019531 772.394531 147.292969 772.238281 148.445312 C 770.9375 148.957031 769.035156 148.820312 767.6875 147.722656 C 765.894531 146.261719 765.761719 143.546875 767.308594 140.074219 C 771.238281 131.269531 779.621094 121.53125 788.675781 115.265625 Z M 786.472656 106.164062 C 788.464844 107.589844 787.882812 110.449219 787.25 112.253906 C 787.089844 112.34375 786.917969 112.40625 786.769531 112.511719 C 777.101562 119.203125 768.472656 129.242188 764.25 138.710938 C 763.640625 140.078125 763.320312 141.273438 763.121094 142.378906 C 759.847656 141.722656 757.890625 140.40625 757.296875 138.296875 C 755.039062 130.296875 770.136719 113.300781 776.253906 108.191406 C 779.976562 105.082031 784.453125 104.722656 786.472656 106.164062 Z M 765.996094 99.851562 C 769.769531 96.707031 774.113281 96.191406 775.980469 97.523438 C 777.890625 98.886719 777.0625 102.003906 776.398438 103.742188 C 776.355469 103.851562 776.359375 103.96875 776.339844 104.082031 C 775.570312 104.53125 774.820312 105.027344 774.109375 105.621094 C 771.230469 108.027344 758.898438 120.222656 754.972656 130.769531 C 751.023438 130.203125 750.371094 128.300781 750.164062 127.644531 C 747.96875 120.714844 760.378906 104.546875 765.996094 99.851562 Z M 630.871094 271.117188 C 669.566406 230.386719 711.027344 183.484375 712.441406 179.777344 C 713.851562 177.480469 713.820312 174.359375 713.769531 170.042969 C 713.699219 163.597656 713.605469 154.761719 718.378906 143.464844 C 725.898438 125.683594 726.058594 106.535156 726.164062 93.863281 L 726.203125 90.144531 C 726.246094 87.601562 727.011719 86.28125 728.480469 86.214844 C 731.816406 86.035156 738.828125 92.003906 739.824219 101.738281 C 741.328125 116.460938 741.65625 126.359375 741.660156 126.457031 C 741.660156 126.503906 741.699219 126.535156 741.707031 126.582031 L 741.667969 126.585938 C 741.667969 126.585938 743.027344 139.007812 744.167969 149.269531 C 745.261719 159.097656 744.203125 174.21875 740.945312 180.199219 C 740.5 181.011719 740.800781 182.027344 741.613281 182.46875 C 741.867188 182.609375 742.140625 182.675781 742.414062 182.675781 C 743.007812 182.675781 743.578125 182.359375 743.882812 181.800781 C 747.496094 175.179688 748.667969 159.441406 747.496094 148.898438 C 746.507812 140.003906 745.355469 129.5 745.066406 126.859375 L 746.625 124.699219 C 746.496094 126.117188 746.589844 127.449219 746.972656 128.65625 C 747.625 130.71875 749.417969 133.207031 754.039062 134.011719 C 753.679688 135.859375 753.628906 137.621094 754.074219 139.207031 C 755.074219 142.75 758.105469 144.957031 763.046875 145.800781 C 763.453125 148.195312 764.753906 149.648438 765.570312 150.316406 C 767.503906 151.890625 770.230469 152.417969 772.578125 151.84375 C 772.628906 151.964844 772.6875 152.089844 772.746094 152.210938 C 773.742188 154.175781 775.394531 155.347656 777.535156 155.59375 C 777.820312 155.625 778.109375 155.640625 778.402344 155.640625 C 784.214844 155.640625 791.597656 149.441406 795.046875 145.316406 C 795.640625 144.605469 795.546875 143.550781 794.839844 142.957031 C 794.128906 142.359375 793.070312 142.457031 792.480469 143.167969 C 788.507812 147.914062 781.714844 152.65625 777.917969 152.269531 C 776.894531 152.148438 776.222656 151.667969 775.734375 150.699219 C 775.617188 150.46875 775.546875 150.191406 775.519531 149.875 C 775.589844 149.609375 775.597656 149.332031 775.535156 149.0625 C 775.625 148.210938 775.933594 147.167969 776.457031 145.992188 C 779.953125 138.105469 790.433594 128.253906 793.773438 127.21875 C 795.640625 126.964844 797.007812 127.476562 797.9375 128.8125 C 801.097656 133.335938 799.722656 146.886719 789.242188 165.953125 C 789.234375 165.964844 789.234375 165.980469 789.230469 165.996094 C 789.222656 166.011719 789.207031 166.019531 789.199219 166.035156 C 788.894531 166.671875 758.074219 230.421875 708.046875 293.382812 C 697.199219 307.035156 681.449219 324.253906 664.089844 342.347656 L 616.984375 285.597656 C 621.710938 280.71875 626.363281 275.859375 630.871094 271.117188 Z M 503.171875 344.921875 C 498.753906 345.5 487.054688 346.640625 474.3125 344.769531 L 474.3125 325.082031 C 478.285156 324.246094 487.433594 322.175781 495.484375 319.285156 Z M 516.28125 271.117188 C 517.019531 273.027344 513.148438 277.375 510.070312 279.78125 C 509.609375 280.140625 509.371094 280.71875 509.4375 281.300781 C 510.699219 291.902344 509.753906 301.023438 506.546875 309.191406 C 504.800781 313.632812 485.625 319.371094 472.566406 322.027344 C 472.539062 322.03125 472.519531 322.050781 472.492188 322.058594 C 471.640625 322.132812 470.964844 322.828125 470.964844 323.703125 L 470.964844 361.242188 C 470.957031 361.648438 470.6875 371.121094 457.003906 371.121094 C 438.910156 371.121094 430.230469 360.957031 428.574219 358.773438 L 428.574219 348.578125 C 432.355469 348.945312 435.972656 349.101562 439.246094 349.101562 C 448.625 349.101562 455.269531 347.976562 455.472656 347.941406 C 455.941406 347.855469 456.351562 347.578125 456.601562 347.171875 C 456.851562 346.765625 456.921875 346.273438 456.785156 345.816406 L 443.929688 302.421875 C 443.789062 301.949219 443.445312 301.558594 442.988281 301.363281 C 442.53125 301.167969 442.011719 301.179688 441.570312 301.40625 C 431.296875 306.589844 423.089844 303.875 418.832031 299.605469 C 414.578125 295.34375 413.613281 289.390625 416.316406 284.074219 C 422.402344 272.085938 435.171875 276.351562 435.710938 276.539062 C 436.027344 276.648438 436.378906 276.664062 436.707031 276.574219 C 437.125 276.460938 477.460938 264.824219 484.023438 219.632812 C 488.863281 225.945312 498.554688 241.902344 504.589844 260.027344 C 504.710938 260.394531 504.949219 260.691406 505.246094 260.886719 C 508.980469 263.453125 515.265625 268.488281 516.28125 271.117188 Z M 381.542969 313.277344 C 371.347656 282.367188 371.617188 255.546875 382.335938 235.710938 C 390.855469 219.941406 405.539062 209.175781 425.976562 203.707031 C 435.882812 201.058594 445.625 199.753906 454.742188 199.753906 C 468.9375 199.753906 481.605469 202.917969 490.953125 209.105469 C 499.914062 215.039062 507.183594 226.683594 509.039062 238.089844 C 509.835938 243.003906 509.964844 249.769531 506.65625 255.753906 C 499.070312 234.664062 487.441406 217.410156 483.878906 214.460938 C 483.402344 214.066406 482.742188 213.96875 482.175781 214.203125 C 481.601562 214.4375 481.207031 214.96875 481.144531 215.585938 C 476.820312 258.921875 440.6875 271.792969 436.257812 273.210938 C 433.359375 272.402344 419.964844 269.496094 413.328125 282.558594 C 410.003906 289.109375 411.230469 296.726562 416.460938 301.972656 C 421.285156 306.8125 430.230469 310.046875 441.273438 305.242188 L 453.023438 344.914062 C 442.832031 346.238281 393.835938 350.550781 381.542969 313.277344 Z M 324.1875 616.457031 C 321.617188 613.6875 317.792969 609.988281 312.953125 605.308594 C 291.445312 584.496094 251.414062 545.761719 243.09375 510.625 C 241.378906 503.386719 242.410156 495.304688 245.398438 486.789062 L 304.460938 509.527344 C 306.601562 513.773438 316.832031 529.492188 363.925781 593.511719 C 364.15625 593.824219 364.492188 594.046875 364.871094 594.140625 C 375.839844 596.882812 381.421875 599.09375 394.910156 604.4375 L 398.296875 605.78125 C 406.785156 609.136719 421.101562 618.011719 430.359375 627.058594 C 436.132812 632.699219 436.855469 636.910156 435.957031 637.910156 C 435.449219 638.488281 433.535156 638.308594 430.882812 636.136719 C 430.804688 636.070312 430.707031 636.046875 430.621094 635.996094 C 413.316406 620.308594 399.128906 615.195312 398.515625 614.980469 C 397.644531 614.671875 396.691406 615.136719 396.382812 616.007812 C 396.078125 616.878906 396.535156 617.835938 397.40625 618.140625 C 397.558594 618.191406 412.554688 623.59375 430.09375 640.046875 C 433.222656 642.980469 434.242188 645.84375 432.757812 647.519531 C 431.742188 648.667969 429.589844 649.089844 428.113281 647.859375 C 411.703125 634.164062 394.820312 625.171875 394.652344 625.082031 C 393.832031 624.648438 392.820312 624.964844 392.390625 625.78125 C 391.957031 626.597656 392.269531 627.609375 393.085938 628.042969 C 393.242188 628.125 407.855469 635.910156 423.003906 648.011719 C 423.003906 648.128906 422.980469 648.246094 423.007812 648.363281 C 423.011719 648.386719 423.453125 650.652344 422.328125 651.722656 C 421.402344 652.59375 419.382812 652.667969 416.632812 651.933594 C 406.773438 649.289062 387.875 635.832031 387.683594 635.695312 C 386.933594 635.15625 385.890625 635.328125 385.347656 636.082031 C 384.8125 636.835938 384.984375 637.878906 385.738281 638.417969 C 386.355469 638.859375 397.761719 646.972656 407.730469 651.914062 C 407.777344 653.660156 407.109375 654.222656 406.597656 654.488281 C 403.136719 656.300781 392.296875 652.667969 375.917969 640.472656 C 375.664062 640.285156 375.363281 640.171875 375.046875 640.148438 C 374.921875 640.136719 362.226562 639.140625 353.558594 637.054688 C 347.207031 635.535156 335.3125 628.4375 324.1875 616.457031 Z M 362.230469 668.144531 L 361.515625 641.957031 C 367.300781 642.828125 372.675781 643.308594 374.304688 643.445312 C 387.195312 652.988281 398.007812 658.226562 404.507812 658.226562 C 405.9375 658.226562 407.15625 657.972656 408.148438 657.457031 C 409.285156 656.859375 410.535156 655.640625 410.917969 653.402344 C 412.644531 654.152344 414.292969 654.773438 415.765625 655.167969 C 417.300781 655.578125 418.679688 655.785156 419.90625 655.785156 C 421.914062 655.785156 423.503906 655.234375 424.652344 654.132812 C 425.710938 653.117188 426.152344 651.839844 426.328125 650.679688 C 427.480469 651.511719 428.851562 651.941406 430.234375 651.941406 C 432.109375 651.941406 433.976562 651.191406 435.265625 649.738281 C 436.890625 647.898438 437.519531 644.964844 435.542969 641.488281 C 436.804688 641.382812 437.804688 640.867188 438.449219 640.144531 C 440.796875 637.527344 439.925781 631.726562 432.699219 624.664062 C 422.777344 614.972656 408.203125 606.097656 399.527344 602.667969 L 396.140625 601.328125 C 383.140625 596.175781 377.082031 593.777344 366.269531 591.042969 C 364.199219 588.226562 362.039062 585.285156 359.820312 582.253906 L 356.550781 459.671875 C 356.53125 459.03125 356.152344 458.457031 355.566406 458.191406 C 354.988281 457.921875 354.300781 458.015625 353.808594 458.425781 C 349.179688 462.265625 310.542969 494.496094 304.644531 506.007812 L 246.558594 483.644531 C 251.96875 470.199219 262.039062 455.792969 274.148438 441.875 C 274.597656 441.679688 274.921875 441.285156 275.066406 440.808594 C 299.40625 413.109375 331.554688 387.523438 350.628906 375.640625 C 377.984375 358.609375 419.980469 360.554688 426.011719 360.933594 C 428.214844 363.773438 437.773438 374.472656 457.003906 374.472656 C 471.425781 374.472656 473.824219 365.199219 474.222656 362.199219 C 478.75 362.097656 504.339844 361.472656 531.160156 359.925781 C 543.359375 358.570312 580.511719 323.136719 614.640625 288.015625 L 661.746094 344.773438 C 645.851562 361.273438 628.789062 378.363281 612.949219 394.085938 C 612.914062 394.117188 612.886719 394.148438 612.855469 394.179688 C 607.183594 399.808594 601.660156 405.277344 596.425781 410.449219 C 570.964844 435.632812 557.617188 448.914062 556.242188 451.890625 C 554.53125 455.59375 551.378906 616.621094 550.414062 668.144531 L 503.132812 668.144531 C 502.804688 667.96875 502.429688 667.878906 502.042969 667.953125 C 501.871094 667.984375 501.71875 668.066406 501.574219 668.144531 Z M 515.808594 848.859375 C 507.28125 850.96875 498.226562 844.242188 495.652344 833.851562 L 455.453125 671.492188 L 501.03125 671.492188 C 504.195312 687.839844 507.878906 704.542969 511.996094 721.175781 C 525.023438 773.789062 539.246094 813.125 548.886719 836.863281 C 549.359375 838.03125 549.886719 839.164062 550.425781 840.285156 Z M 610.394531 868.558594 C 585.496094 872.554688 561.488281 859 551.988281 835.601562 C 542.390625 811.96875 528.226562 772.789062 515.246094 720.371094 C 511.195312 704.007812 507.574219 687.582031 504.445312 671.492188 L 590.710938 671.492188 C 604.519531 671.492188 615.75 660.257812 615.75 646.449219 L 615.75 512.246094 L 739.351562 470.363281 C 740.117188 485.625 745.339844 575.792969 765.292969 656.496094 C 765.296875 656.5 765.296875 656.503906 765.296875 656.507812 C 765.308594 656.554688 765.324219 656.605469 765.332031 656.652344 C 765.335938 656.664062 765.339844 656.679688 765.34375 656.691406 C 785.378906 737.511719 822.925781 819.832031 829.285156 833.492188 Z M 832.882812 833.285156 C 828.625 824.222656 789.238281 739.175781 768.582031 655.847656 C 747.945312 572.484375 743.097656 478.8125 742.628906 468.800781 L 997.011719 276.085938 C 982.871094 296.988281 972.265625 325.632812 965.90625 360.988281 C 953.535156 429.8125 958.660156 515.941406 980.34375 603.5 C 1002.023438 691.0625 1037.679688 769.628906 1080.734375 824.726562 C 1102.644531 852.761719 1125.164062 872.976562 1147.214844 884.910156 Z M 1208.789062 892.226562 C 1170.390625 901.730469 1125.859375 877.027344 1083.375 822.664062 C 1040.601562 767.933594 1005.164062 689.8125 983.59375 602.699219 C 962.019531 515.582031 956.910156 429.953125 969.203125 361.578125 C 981.414062 293.671875 1009.277344 251.03125 1047.664062 241.527344 C 1084.507812 232.402344 1127.332031 255.042969 1168.375 305.234375 C 1164.269531 308.863281 1160.578125 312.941406 1157.390625 317.417969 C 1121.476562 273.15625 1084.269531 253.074219 1052.476562 260.957031 C 981.621094 278.507812 957.957031 430.015625 999.726562 598.699219 C 1038.832031 756.625 1121.628906 874.472656 1190.175781 874.460938 C 1194.84375 874.460938 1199.457031 873.914062 1203.976562 872.796875 C 1274.832031 855.246094 1298.496094 703.730469 1256.730469 535.050781 C 1247.601562 498.191406 1235.964844 462.871094 1222.152344 430.007812 C 1227.832031 429.492188 1233.304688 428.289062 1238.527344 426.523438 C 1252.265625 459.386719 1263.820312 494.542969 1272.863281 531.054688 C 1317.285156 710.453125 1288.539062 872.476562 1208.789062 892.226562 Z M 501.90625 290.285156 C 491.882812 286.648438 481.839844 285.152344 476.746094 284.582031 C 475.351562 284.4375 474.019531 285.011719 473.179688 286.136719 C 472.324219 287.28125 472.148438 288.75 472.703125 290.058594 C 477.441406 301.292969 483.914062 303.609375 488.441406 303.609375 C 489.320312 303.609375 490.128906 303.519531 490.835938 303.394531 C 497.558594 302.191406 502.808594 296.351562 503.007812 291.9375 C 503.042969 291.207031 502.59375 290.535156 501.90625 290.285156 Z M 490.242188 300.097656 C 484.449219 301.140625 479.3125 297.105469 475.785156 288.757812 C 475.660156 288.460938 475.796875 288.226562 475.863281 288.136719 C 475.945312 288.03125 476.085938 287.90625 476.304688 287.90625 C 476.328125 287.90625 476.351562 287.90625 476.371094 287.910156 C 481.089844 288.4375 490.171875 289.78125 499.410156 292.957031 C 498.449219 295.660156 494.828125 299.277344 490.242188 300.097656 Z M 580.558594 196.09375 C 612.050781 196.09375 637.667969 170.472656 637.667969 138.980469 C 637.667969 107.484375 612.050781 81.863281 580.558594 81.863281 C 549.066406 81.863281 523.449219 107.484375 523.449219 138.976562 C 523.449219 170.472656 549.066406 196.09375 580.558594 196.09375 Z M 580.558594 85.210938 C 610.203125 85.210938 634.320312 109.332031 634.320312 138.976562 C 634.320312 168.625 610.203125 192.746094 580.558594 192.746094 C 550.914062 192.746094 526.796875 168.625 526.796875 138.976562 C 526.796875 109.332031 550.914062 85.210938 580.558594 85.210938 Z M 562.925781 146.21875 L 559.335938 167.152344 C 559.226562 167.78125 559.484375 168.414062 560 168.789062 C 560.519531 169.167969 561.203125 169.214844 561.765625 168.917969 L 580.558594 159.035156 L 599.355469 168.917969 C 599.601562 169.046875 599.867188 169.109375 600.136719 169.109375 C 600.480469 169.109375 600.828125 169 601.117188 168.789062 C 601.632812 168.414062 601.890625 167.78125 601.785156 167.152344 L 598.195312 146.21875 L 613.398438 131.394531 C 613.855469 130.953125 614.019531 130.285156 613.824219 129.679688 C 613.625 129.074219 613.101562 128.632812 612.472656 128.542969 L 591.457031 125.488281 L 582.058594 106.445312 C 581.496094 105.300781 579.621094 105.300781 579.058594 106.445312 L 569.660156 125.488281 L 548.648438 128.542969 C 548.015625 128.632812 547.492188 129.074219 547.296875 129.679688 C 547.101562 130.285156 547.261719 130.953125 547.71875 131.394531 Z M 571.011719 128.675781 C 571.558594 128.597656 572.03125 128.253906 572.273438 127.757812 L 580.558594 110.96875 L 588.847656 127.757812 C 589.089844 128.253906 589.558594 128.597656 590.105469 128.675781 L 608.632812 131.367188 L 595.226562 144.4375 C 594.832031 144.820312 594.652344 145.375 594.746094 145.917969 L 597.910156 164.375 L 581.339844 155.660156 C 581.09375 155.53125 580.828125 155.46875 580.558594 155.46875 C 580.289062 155.46875 580.023438 155.53125 579.777344 155.660156 L 563.207031 164.375 L 566.375 145.917969 C 566.464844 145.375 566.285156 144.820312 565.890625 144.4375 L 552.484375 131.367188 Z M 870.257812 1113.023438 C 870.535156 1113.628906 871.136719 1114.003906 871.785156 1114.003906 C 871.902344 1114.003906 872.019531 1113.988281 872.136719 1113.964844 C 872.910156 1113.796875 873.457031 1113.117188 873.457031 1112.328125 L 873.457031 1044.753906 L 913.671875 1044.753906 C 925.4375 1044.753906 935.007812 1035.179688 935.007812 1023.414062 L 935.007812 959.007812 C 935.007812 947.242188 925.4375 937.667969 913.671875 937.667969 L 525.5625 937.667969 C 513.800781 937.667969 504.226562 947.242188 504.226562 959.007812 L 504.226562 1023.414062 C 504.226562 1035.179688 513.800781 1044.753906 525.5625 1044.753906 L 839.132812 1044.753906 Z M 507.574219 1023.414062 L 507.574219 959.007812 C 507.574219 949.089844 515.644531 941.019531 525.5625 941.019531 L 913.671875 941.019531 C 923.589844 941.019531 931.660156 949.089844 931.660156 959.007812 L 931.660156 1023.414062 C 931.660156 1033.332031 923.589844 1041.402344 913.671875 1041.402344 L 871.785156 1041.402344 C 870.859375 1041.402344 870.109375 1042.152344 870.109375 1043.078125 L 870.109375 1104.621094 L 841.730469 1042.386719 C 841.457031 1041.785156 840.863281 1041.402344 840.207031 1041.402344 L 525.5625 1041.402344 C 515.644531 1041.402344 507.574219 1033.332031 507.574219 1023.414062 Z M 544.65625 967.523438 L 899.140625 967.523438 C 900.066406 967.523438 900.8125 966.773438 900.8125 965.847656 C 900.8125 964.921875 900.066406 964.175781 899.140625 964.175781 L 544.65625 964.175781 C 543.730469 964.175781 542.980469 964.921875 542.980469 965.847656 C 542.980469 966.773438 543.730469 967.523438 544.65625 967.523438 Z M 544.65625 992.886719 L 899.140625 992.886719 C 900.066406 992.886719 900.8125 992.136719 900.8125 991.210938 C 900.8125 990.285156 900.066406 989.539062 899.140625 989.539062 L 544.65625 989.539062 C 543.730469 989.539062 542.980469 990.285156 542.980469 991.210938 C 542.980469 992.136719 543.730469 992.886719 544.65625 992.886719 Z M 900.8125 1019.425781 C 900.8125 1018.5 900.066406 1017.75 899.140625 1017.75 L 544.65625 1017.75 C 543.730469 1017.75 542.980469 1018.5 542.980469 1019.425781 C 542.980469 1020.351562 543.730469 1021.101562 544.65625 1021.101562 L 899.140625 1021.101562 C 900.066406 1021.101562 900.8125 1020.351562 900.8125 1019.425781 Z M 979.101562 1130.636719 C 968.410156 1131.984375 958.683594 1135.273438 953.832031 1137.117188 C 952.515625 1137.621094 951.585938 1138.75 951.351562 1140.148438 C 951.113281 1141.5625 951.625 1142.960938 952.726562 1143.878906 C 958.484375 1148.703125 963.289062 1150.253906 967.085938 1150.253906 C 970.726562 1150.253906 973.441406 1148.828125 975.175781 1147.503906 C 980.664062 1143.324219 982.691406 1135.65625 980.832031 1131.597656 C 980.53125 1130.933594 979.839844 1130.53125 979.101562 1130.636719 Z M 973.144531 1144.84375 C 968.402344 1148.453125 961.910156 1147.210938 954.875 1141.3125 C 954.617188 1141.097656 954.636719 1140.8125 954.65625 1140.703125 C 954.679688 1140.550781 954.765625 1140.34375 955.023438 1140.25 C 959.515625 1138.542969 968.320312 1135.554688 978.105469 1134.148438 C 978.492188 1137.027344 976.902344 1141.980469 973.144531 1144.84375 Z M 1481.949219 472.046875 L 1362.765625 472.046875 C 1352.886719 472.046875 1344.847656 480.085938 1344.847656 489.964844 L 1344.847656 537.988281 C 1344.847656 547.867188 1352.886719 555.90625 1362.765625 555.90625 L 1481.949219 555.90625 C 1491.828125 555.90625 1499.863281 547.867188 1499.863281 537.988281 L 1499.863281 489.964844 C 1499.863281 480.085938 1491.828125 472.046875 1481.949219 472.046875 Z M 1496.515625 537.988281 C 1496.515625 546.023438 1489.980469 552.558594 1481.949219 552.558594 L 1362.765625 552.558594 C 1354.730469 552.558594 1348.195312 546.023438 1348.195312 537.988281 L 1348.195312 489.964844 C 1348.195312 481.933594 1354.730469 475.394531 1362.765625 475.394531 L 1481.949219 475.394531 C 1489.980469 475.394531 1496.515625 481.933594 1496.515625 489.964844 Z M 1412.757812 495.894531 C 1409.691406 493.59375 1406.476562 492.777344 1403.199219 493.472656 C 1398.359375 494.5 1394.664062 498.632812 1392.746094 501.261719 C 1390.824219 498.632812 1387.128906 494.5 1382.289062 493.472656 C 1379.011719 492.777344 1375.796875 493.59375 1372.730469 495.894531 C 1368.53125 499.042969 1367.429688 504.410156 1369.628906 511 C 1373.320312 522.085938 1385.636719 534.71875 1392.746094 534.71875 C 1399.851562 534.71875 1412.167969 522.085938 1415.863281 511 C 1418.058594 504.410156 1416.957031 499.042969 1412.757812 495.894531 Z M 1412.683594 509.941406 C 1409.304688 520.082031 1397.914062 531.371094 1392.746094 531.371094 C 1387.574219 531.371094 1376.183594 520.082031 1372.804688 509.941406 C 1371.050781 504.679688 1371.699219 500.851562 1374.738281 498.574219 C 1376.515625 497.242188 1378.261719 496.582031 1380.039062 496.582031 C 1380.550781 496.582031 1381.0625 496.636719 1381.585938 496.746094 C 1387.179688 497.925781 1391.242188 505.054688 1391.285156 505.125 C 1391.875 506.179688 1393.613281 506.179688 1394.203125 505.125 C 1394.246094 505.054688 1398.308594 497.925781 1403.902344 496.746094 C 1406.21875 496.257812 1408.457031 496.855469 1410.75 498.574219 C 1413.789062 500.851562 1414.4375 504.679688 1412.683594 509.941406 Z M 1448.0625 496.5625 L 1441.496094 496.5625 L 1431.753906 520.484375 L 1431.753906 525.433594 L 1442.539062 525.433594 L 1442.539062 533.042969 L 1448.0625 533.042969 L 1448.0625 525.433594 L 1451.03125 525.433594 L 1451.03125 520.222656 L 1448.0625 520.222656 Z M 1442.539062 520.222656 L 1436.960938 520.222656 L 1442.539062 505.890625 Z M 1473.957031 496.5625 L 1468.015625 496.5625 L 1460.722656 511.363281 L 1460.722656 496.5625 L 1455.195312 496.5625 L 1455.195312 533.042969 L 1460.722656 533.042969 L 1460.722656 522.046875 L 1462.804688 518.035156 L 1468.589844 533.042969 L 1474.53125 533.042969 L 1466.191406 512.039062 Z M 1372.046875 733.375 C 1380.859375 733.375 1388.027344 726.207031 1388.027344 717.398438 C 1388.027344 708.585938 1380.859375 701.417969 1372.046875 701.417969 C 1363.238281 701.417969 1356.070312 708.585938 1356.070312 717.398438 C 1356.070312 726.207031 1363.238281 733.375 1372.046875 733.375 Z M 1372.046875 704.765625 C 1379.011719 704.765625 1384.679688 710.433594 1384.679688 717.398438 C 1384.679688 724.363281 1379.011719 730.027344 1372.046875 730.027344 C 1365.082031 730.027344 1359.417969 724.363281 1359.417969 717.398438 C 1359.417969 710.433594 1365.085938 704.765625 1372.046875 704.765625 Z M 1372.046875 739.660156 C 1357.351562 739.660156 1345.394531 752.914062 1345.394531 769.207031 C 1345.394531 770.132812 1346.140625 770.882812 1347.066406 770.882812 L 1397.027344 770.882812 C 1397.953125 770.882812 1398.703125 770.132812 1398.703125 769.207031 C 1398.703125 752.914062 1386.746094 739.660156 1372.046875 739.660156 Z M 1348.789062 767.535156 C 1349.558594 753.867188 1359.695312 743.007812 1372.046875 743.007812 C 1384.398438 743.007812 1394.535156 753.867188 1395.304688 767.535156 Z M 1372.046875 676.222656 C 1339.007812 676.222656 1312.128906 703.105469 1312.128906 736.148438 C 1312.128906 769.191406 1339.007812 796.074219 1372.046875 796.074219 C 1405.085938 796.074219 1431.96875 769.191406 1431.96875 736.148438 C 1431.96875 703.105469 1405.085938 676.222656 1372.046875 676.222656 Z M 1372.046875 792.726562 C 1340.855469 792.726562 1315.476562 767.347656 1315.476562 736.148438 C 1315.476562 704.953125 1340.855469 679.574219 1372.046875 679.574219 C 1403.242188 679.574219 1428.621094 704.953125 1428.621094 736.148438 C 1428.621094 767.347656 1403.242188 792.726562 1372.046875 792.726562 Z M 1195.003906 392.097656 C 1196.042969 392.710938 1197.1875 393.023438 1198.339844 393.023438 C 1199.417969 393.023438 1200.496094 392.75 1201.484375 392.207031 L 1252.027344 364.523438 C 1254.160156 363.359375 1255.433594 361.210938 1255.433594 358.78125 C 1255.433594 356.351562 1254.160156 354.203125 1252.027344 353.039062 L 1201.484375 325.355469 C 1199.4375 324.234375 1197.007812 324.273438 1195.003906 325.464844 C 1192.992188 326.65625 1191.792969 328.761719 1191.792969 331.097656 L 1191.792969 386.464844 C 1191.792969 388.800781 1192.992188 390.90625 1195.003906 392.097656 Z M 1195.140625 331.097656 C 1195.140625 329.957031 1195.726562 328.929688 1196.707031 328.347656 C 1197.21875 328.046875 1197.777344 327.894531 1198.339844 327.894531 C 1198.863281 327.894531 1199.394531 328.027344 1199.878906 328.292969 L 1250.421875 355.976562 C 1251.460938 356.546875 1252.085938 357.59375 1252.085938 358.78125 C 1252.085938 359.96875 1251.460938 361.015625 1250.421875 361.589844 L 1222.132812 377.082031 L 1199.878906 389.269531 C 1198.875 389.820312 1197.691406 389.800781 1196.710938 389.21875 C 1195.726562 388.636719 1195.140625 387.605469 1195.140625 386.464844 Z M 1336.832031 399.832031 C 1337.195312 399.832031 1337.5625 399.714844 1337.871094 399.464844 L 1439.316406 318.53125 C 1440.039062 317.953125 1440.15625 316.898438 1439.582031 316.175781 C 1439.007812 315.457031 1437.953125 315.335938 1437.226562 315.914062 L 1335.785156 396.851562 C 1335.0625 397.425781 1334.941406 398.480469 1335.519531 399.203125 C 1335.851562 399.617188 1336.339844 399.832031 1336.832031 399.832031 Z M 1491.074219 653.011719 L 1359.996094 623.371094 C 1359.085938 623.167969 1358.195312 623.734375 1357.992188 624.636719 C 1357.789062 625.539062 1358.355469 626.433594 1359.253906 626.640625 L 1490.335938 656.277344 C 1490.457031 656.304688 1490.582031 656.320312 1490.707031 656.320312 C 1491.472656 656.320312 1492.160156 655.789062 1492.335938 655.015625 C 1492.542969 654.113281 1491.972656 653.214844 1491.074219 653.011719 Z M 308.945312 989.570312 C 308.957031 989.570312 308.972656 989.570312 308.988281 989.570312 C 309.914062 989.546875 310.640625 988.777344 310.617188 987.851562 C 310.472656 982.167969 313.867188 978.894531 321.621094 977.230469 C 330.433594 975.34375 336.695312 969.296875 336.953125 969.039062 C 337.617188 968.390625 337.625 967.335938 336.980469 966.675781 C 336.335938 966.015625 335.277344 966 334.617188 966.644531 C 334.554688 966.703125 328.761719 972.28125 320.917969 973.953125 C 311.675781 975.9375 307.085938 980.640625 307.269531 987.9375 C 307.296875 988.847656 308.039062 989.570312 308.945312 989.570312 Z M 409.953125 831.753906 L 307.007812 810.332031 C 306.574219 810.246094 306.125 810.328125 305.75 810.574219 C 305.378906 810.816406 305.117188 811.199219 305.027344 811.632812 L 276.558594 948.488281 C 276.46875 948.921875 276.554688 949.375 276.796875 949.746094 C 277.042969 950.117188 277.421875 950.378906 277.859375 950.464844 L 290.859375 953.167969 C 289.730469 955.625 288.628906 958.269531 287.441406 962.875 C 285.253906 971.339844 285.808594 981.214844 286.265625 985.929688 L 286.125 985.863281 C 285.316406 985.484375 284.359375 985.800781 283.9375 986.585938 L 265.148438 1021.558594 C 261.089844 1010.214844 247.660156 973.910156 230.414062 940.570312 C 214.78125 910.347656 177.660156 903.796875 169.214844 902.675781 L 172.21875 873.660156 C 179.871094 874.84375 201.75 877.613281 205.953125 871.304688 C 211.488281 863.007812 216.359375 849.804688 217.503906 840.152344 C 220.242188 838.71875 226.917969 834.71875 226.199219 830.113281 C 225.539062 825.90625 219.109375 818.683594 217.3125 816.730469 C 217.039062 814.3125 216.707031 811.921875 216.324219 809.578125 C 217.089844 809.429688 218.828125 808.894531 220.40625 806.992188 C 222.132812 804.917969 223.125 801.917969 223.382812 798.027344 C 224.027344 800.890625 224.402344 804.558594 224.402344 807.964844 C 224.402344 808.558594 224.714844 809.101562 225.222656 809.40625 C 225.730469 809.707031 226.363281 809.71875 226.878906 809.433594 C 227.4375 809.128906 240.484375 801.617188 232.25 771.617188 C 229.421875 761.304688 221.359375 752.289062 208.9375 745.550781 C 187.332031 733.828125 156.226562 731.242188 131.535156 739.113281 C 90.089844 752.328125 70.183594 787.296875 81.996094 826.121094 C 89.207031 849.804688 97.855469 860.527344 103.832031 865.355469 C 95.46875 865.6875 82.289062 869.160156 73.566406 885.847656 C 70.175781 892.332031 68.910156 899.039062 69.003906 905.660156 C 64.386719 907.007812 29.277344 918.3125 18.3125 953.234375 C 7.050781 989.113281 0.0234375 1087.121094 30.628906 1114.15625 C 35.902344 1118.816406 42.023438 1121.902344 48.6875 1123.796875 C 48.636719 1123.957031 48.585938 1124.121094 48.585938 1124.296875 L 48.585938 1146.527344 C 48.585938 1147.453125 49.332031 1148.203125 50.257812 1148.203125 L 56.042969 1148.203125 C 53.125 1160.832031 27.320312 1276.527344 27.21875 1415.015625 L 8.371094 1415.015625 C 7.445312 1415.015625 6.695312 1415.765625 6.695312 1416.691406 C 6.695312 1417.617188 7.445312 1418.367188 8.371094 1418.367188 L 248.300781 1418.367188 C 249.226562 1418.367188 249.976562 1417.617188 249.976562 1416.691406 C 249.976562 1415.765625 249.226562 1415.015625 248.300781 1415.015625 L 231.449219 1415.015625 C 231.347656 1276.527344 205.542969 1160.832031 202.625 1148.203125 L 209.460938 1148.203125 C 210.386719 1148.203125 211.136719 1147.453125 211.136719 1146.527344 L 211.136719 1106.953125 C 219.144531 1114.648438 241.945312 1134.601562 258.8125 1130.203125 C 294.777344 1121.535156 331.140625 1013.984375 332.671875 1009.410156 C 332.941406 1008.605469 332.5625 1007.726562 331.796875 1007.363281 L 325.03125 1004.179688 C 326.953125 1001.222656 333.261719 992.050781 343.199219 983.039062 C 353.070312 974.089844 357.296875 968.980469 358.601562 967.285156 L 380.804688 971.886719 C 380.917969 971.910156 381.03125 971.921875 381.144531 971.921875 C 381.921875 971.921875 382.617188 971.378906 382.78125 970.585938 L 411.253906 833.734375 C 411.441406 832.828125 410.859375 831.941406 409.953125 831.753906 Z M 120.875 905.539062 C 123.9375 901.171875 132.894531 888.410156 128.78125 876.207031 C 132.835938 875.75 136.34375 874.015625 139.238281 871.023438 C 146.636719 863.367188 147.757812 849.71875 147.566406 845.542969 C 147.546875 845.035156 147.296875 844.570312 146.890625 844.269531 C 146.484375 843.96875 145.960938 843.863281 145.476562 843.996094 C 134.652344 846.8125 127.394531 842.535156 124.226562 837.597656 C 121.066406 832.671875 121.378906 826.820312 125.039062 822.328125 C 133.292969 812.195312 144.546875 818.878906 145.019531 819.167969 C 145.148438 819.246094 145.289062 819.308594 145.429688 819.351562 C 155.804688 822.347656 165.488281 821.339844 174.207031 816.351562 C 191.34375 806.550781 200.03125 784.296875 202.957031 775.253906 C 206.289062 782.464844 212.070312 799.421875 214.042969 817.648438 C 214.082031 818.007812 214.238281 818.351562 214.488281 818.613281 C 217.511719 821.824219 222.464844 827.921875 222.886719 830.628906 C 223.195312 832.585938 218.625 835.910156 215.207031 837.558594 C 214.679688 837.816406 214.324219 838.324219 214.269531 838.90625 C 213.398438 847.996094 208.523438 861.414062 203.167969 869.449219 C 200.664062 873.203125 182.855469 872.074219 171.015625 870.074219 C 170.566406 870 170.089844 870.113281 169.722656 870.390625 C 169.351562 870.671875 169.117188 871.09375 169.070312 871.550781 L 165.707031 904.015625 C 165.644531 904.820312 163.917969 923.707031 146.289062 923.707031 C 129.828125 923.707031 121.0625 910.472656 119.535156 907.941406 C 119.929688 907.082031 120.363281 906.265625 120.875 905.539062 Z M 228.101562 1415.015625 L 30.566406 1415.015625 C 30.671875 1273.601562 57.652344 1155.984375 59.480469 1148.203125 L 199.1875 1148.203125 C 201.011719 1155.984375 227.996094 1273.601562 228.101562 1415.015625 Z M 257.996094 1126.957031 C 239.519531 1131.761719 210.960938 1102.070312 210.675781 1101.769531 C 210.199219 1101.269531 209.472656 1101.113281 208.839844 1101.371094 C 208.203125 1101.621094 207.785156 1102.242188 207.785156 1102.925781 L 207.785156 1144.851562 L 51.933594 1144.851562 L 51.933594 1124.65625 C 56.621094 1125.6875 61.550781 1126.160156 66.640625 1126.160156 C 105.769531 1126.160156 154.1875 1098.445312 172.632812 1085.042969 C 173.269531 1084.582031 173.5 1083.742188 173.183594 1083.023438 L 166.390625 1067.421875 C 166.628906 1067.433594 166.863281 1067.449219 167.097656 1067.449219 C 182.804688 1067.445312 198.847656 1043.484375 201.125 1039.957031 C 202.742188 1039.128906 204.207031 1038.449219 205.578125 1037.859375 C 205.664062 1038.59375 205.878906 1039.449219 206.433594 1040.199219 C 207.085938 1041.085938 208.050781 1041.644531 209.222656 1041.8125 C 209.300781 1041.824219 209.382812 1041.828125 209.460938 1041.828125 C 209.546875 1041.828125 209.632812 1041.824219 209.71875 1041.808594 C 223.390625 1039.691406 226.015625 1033.855469 225.8125 1029.332031 C 225.617188 1025.039062 224.234375 1022.640625 223.234375 1021.433594 C 225.734375 1019.148438 225.824219 1016.769531 225.566406 1015.410156 C 225.273438 1013.84375 224.394531 1012.515625 223.3125 1011.546875 C 224.230469 1010.496094 224.707031 1009.070312 224.527344 1007.472656 C 224.097656 1003.695312 220.273438 1000.140625 213.8125 1000.738281 C 213.539062 1000.761719 213.320312 1000.800781 213.054688 1000.828125 C 217.597656 999.472656 222.328125 998.441406 225.753906 997.699219 C 227.578125 997.304688 229.113281 996.96875 230.195312 996.6875 C 235.941406 995.1875 237.925781 991.472656 237.335938 988.65625 C 236.679688 985.519531 232.65625 982.375 223.480469 983.820312 C 207.730469 986.324219 200.335938 990.226562 190.027344 996.367188 C 166.992188 1010.082031 150.914062 1035.824219 150.242188 1036.914062 C 150.214844 1036.957031 150.214844 1037.003906 150.191406 1037.046875 C 150.140625 1037.152344 150.101562 1037.257812 150.070312 1037.375 C 150.046875 1037.472656 150.023438 1037.570312 150.015625 1037.671875 C 150.007812 1037.78125 150.015625 1037.882812 150.03125 1037.992188 C 150.042969 1038.105469 150.0625 1038.210938 150.101562 1038.320312 C 150.117188 1038.367188 150.109375 1038.414062 150.132812 1038.460938 L 169.574219 1083.121094 C 167.214844 1084.808594 164.59375 1086.570312 161.792969 1088.371094 L 140.890625 1044.285156 C 140.496094 1043.449219 139.503906 1043.09375 138.664062 1043.488281 C 137.828125 1043.886719 137.46875 1044.882812 137.867188 1045.71875 L 158.945312 1090.171875 C 124.089844 1111.867188 62.390625 1137.746094 32.847656 1111.644531 C 4.902344 1086.957031 8.785156 994.769531 21.507812 954.238281 C 31.519531 922.347656 62.789062 911.097656 69.179688 909.105469 C 70.6875 926.863281 81.40625 943.574219 87.539062 953.101562 L 88.386719 954.425781 C 101.703125 975.207031 100.425781 985.917969 99.742188 991.671875 C 99.472656 993.9375 99.273438 995.570312 100.132812 996.941406 C 100.726562 997.890625 101.722656 998.234375 102.867188 998.234375 C 104.683594 998.234375 106.863281 997.359375 108.34375 996.648438 C 117.417969 992.257812 132.386719 977.792969 124.074219 954.457031 C 119.285156 941.015625 115.515625 923.359375 118.183594 911.976562 C 121.839844 917.074219 130.949219 927.054688 146.289062 927.054688 C 163.636719 927.054688 167.867188 911.246094 168.792969 906.015625 C 176.699219 907.128906 212.746094 913.695312 227.4375 942.109375 C 247.984375 981.832031 263.09375 1025.796875 263.246094 1026.238281 C 263.460938 1026.867188 264.027344 1027.3125 264.691406 1027.363281 C 265.335938 1027.410156 265.988281 1027.070312 266.304688 1026.488281 L 279.453125 1002.011719 L 324.730469 1021.574219 C 313.636719 1051.125 284.976562 1120.453125 257.996094 1126.957031 Z M 196.828125 1006.945312 C 196.84375 1007.019531 196.878906 1007.089844 196.902344 1007.160156 C 196.953125 1007.296875 197.003906 1007.429688 197.089844 1007.550781 C 197.101562 1007.566406 197.101562 1007.589844 197.117188 1007.609375 C 197.152344 1007.652344 197.199219 1007.675781 197.238281 1007.71875 C 197.308594 1007.796875 197.363281 1007.886719 197.449219 1007.953125 C 197.484375 1007.980469 197.523438 1007.984375 197.558594 1008.007812 C 197.628906 1008.050781 197.707031 1008.078125 197.78125 1008.113281 C 197.90625 1008.167969 198.027344 1008.222656 198.160156 1008.246094 C 198.234375 1008.257812 198.3125 1008.253906 198.390625 1008.257812 C 198.523438 1008.261719 198.652344 1008.265625 198.785156 1008.238281 C 198.871094 1008.222656 198.949219 1008.183594 199.03125 1008.152344 C 199.148438 1008.109375 199.261719 1008.066406 199.371094 1007.996094 C 199.394531 1007.980469 199.425781 1007.976562 199.453125 1007.957031 C 199.492188 1007.929688 203.601562 1005 214.109375 1004.074219 C 218.929688 1003.664062 221 1006.101562 221.203125 1007.851562 C 221.265625 1008.402344 221.238281 1009.703125 219.667969 1009.921875 C 219.613281 1009.929688 219.566406 1009.941406 219.511719 1009.949219 C 219.507812 1009.949219 219.507812 1009.949219 219.507812 1009.949219 C 206.863281 1011.738281 201.804688 1014.378906 201.597656 1014.492188 C 200.785156 1014.921875 200.476562 1015.933594 200.910156 1016.746094 C 201.207031 1017.316406 201.789062 1017.636719 202.390625 1017.636719 C 202.652344 1017.636719 202.921875 1017.574219 203.167969 1017.445312 C 203.214844 1017.421875 207.992188 1014.984375 219.785156 1013.292969 C 220.683594 1013.535156 222.011719 1014.625 222.277344 1016.03125 C 222.59375 1017.695312 221.152344 1019.019531 219.796875 1019.878906 C 209.433594 1022.105469 203.035156 1024.871094 202.761719 1024.988281 C 201.917969 1025.359375 201.527344 1026.34375 201.898438 1027.1875 C 202.171875 1027.820312 202.789062 1028.195312 203.433594 1028.195312 C 203.65625 1028.195312 203.882812 1028.148438 204.101562 1028.054688 C 204.164062 1028.03125 210.421875 1025.34375 220.316406 1023.195312 C 220.574219 1023.414062 222.261719 1025.007812 222.46875 1029.480469 C 222.722656 1035.101562 215.636719 1037.464844 209.511719 1038.453125 C 208.746094 1038.1875 208.839844 1037.085938 208.886719 1036.746094 C 208.894531 1036.6875 208.875 1036.628906 208.878906 1036.570312 C 211.886719 1035.507812 214.492188 1034.898438 217.273438 1034.320312 C 218.175781 1034.132812 218.757812 1033.25 218.570312 1032.34375 C 218.382812 1031.4375 217.492188 1030.832031 216.589844 1031.042969 C 211.375 1032.125 206.777344 1033.265625 199.1875 1037.1875 C 198.921875 1037.324219 198.699219 1037.527344 198.539062 1037.785156 C 198.367188 1038.058594 181.222656 1065.269531 166.238281 1064.066406 C 165.792969 1064.035156 165.398438 1064.179688 165.085938 1064.425781 L 153.558594 1037.945312 C 156.25 1033.796875 171.410156 1011.347656 191.742188 999.242188 C 201.707031 993.3125 208.847656 989.535156 224.007812 987.128906 C 230.8125 986.050781 233.75 987.859375 234.058594 989.34375 C 234.335938 990.664062 232.78125 992.550781 229.351562 993.449219 C 228.300781 993.71875 226.8125 994.042969 225.046875 994.425781 C 216.308594 996.320312 201.691406 999.492188 197.113281 1005.609375 C 197.09375 1005.636719 197.089844 1005.671875 197.070312 1005.703125 C 197.007812 1005.796875 196.972656 1005.894531 196.929688 1005.996094 C 196.890625 1006.101562 196.84375 1006.199219 196.824219 1006.304688 C 196.808594 1006.398438 196.8125 1006.488281 196.8125 1006.578125 C 196.808594 1006.703125 196.804688 1006.824219 196.828125 1006.945312 Z M 329.011719 1009.757812 C 328.441406 1011.398438 327.378906 1014.417969 325.898438 1018.429688 L 281.042969 999.050781 L 286.132812 989.570312 Z M 340.949219 980.5625 C 330.179688 990.328125 323.675781 1000.050781 321.972656 1002.742188 L 289.820312 987.605469 C 289.480469 984.855469 288.253906 973.125 290.679688 963.714844 C 291.996094 958.617188 293.203125 956.046875 294.476562 953.328125 C 295.933594 950.222656 297.582031 946.703125 299.546875 939.082031 C 299.945312 937.550781 300.335938 935.921875 300.71875 934.3125 C 301.519531 930.949219 302.707031 925.972656 303.507812 924.679688 C 304.4375 924.644531 306.125 924.78125 307.394531 926.1875 C 308.984375 927.9375 310.410156 932.101562 308.257812 941.695312 C 303.300781 953.253906 306.226562 959.484375 306.355469 959.742188 C 306.753906 960.566406 307.742188 960.90625 308.570312 960.511719 C 309.398438 960.117188 309.753906 959.121094 309.371094 958.289062 C 309.363281 958.277344 309.1875 957.824219 309.019531 957.019531 L 354.910156 966.523438 C 352.964844 968.839844 348.769531 973.464844 340.949219 980.5625 Z M 379.84375 968.269531 L 308.785156 953.550781 C 308.855469 950.976562 309.4375 947.402344 311.429688 942.726562 C 313.488281 933.664062 312.964844 927.34375 309.875 923.9375 C 307.265625 921.066406 303.703125 921.265625 302.679688 921.394531 C 300.46875 921.683594 299.59375 924.597656 297.460938 933.535156 C 297.082031 935.121094 296.699219 936.730469 296.308594 938.246094 C 294.78125 944.148438 293.503906 947.378906 292.300781 950.046875 L 280.175781 947.53125 L 307.964844 813.953125 L 407.632812 834.691406 Z M 192.105469 856.933594 C 192.652344 857.085938 193.210938 857.160156 193.773438 857.160156 C 195.347656 857.160156 196.941406 856.558594 198.390625 855.398438 C 200.191406 853.953125 201.566406 851.777344 202.269531 849.269531 C 202.972656 846.765625 202.925781 844.1875 202.140625 842.015625 C 201.28125 839.652344 199.660156 838.027344 197.570312 837.441406 C 195.480469 836.855469 193.25 837.402344 191.285156 838.976562 C 189.488281 840.421875 188.109375 842.597656 187.40625 845.105469 C 186.703125 847.609375 186.75 850.1875 187.535156 852.355469 C 188.394531 854.722656 190.019531 856.347656 192.105469 856.933594 Z M 190.628906 846.007812 C 191.136719 844.195312 192.140625 842.582031 193.382812 841.589844 C 193.902344 841.171875 194.839844 840.566406 195.917969 840.566406 C 196.160156 840.566406 196.414062 840.59375 196.667969 840.667969 C 198.042969 841.050781 198.714844 842.394531 198.992188 843.160156 C 199.535156 844.65625 199.554688 846.554688 199.046875 848.367188 C 198.539062 850.179688 197.535156 851.792969 196.292969 852.785156 C 195.65625 853.296875 194.378906 854.097656 193.007812 853.707031 C 191.632812 853.320312 190.960938 851.980469 190.683594 851.214844 C 190.140625 849.71875 190.121094 847.820312 190.628906 846.007812 Z M 1160.886719 1223.480469 C 1158.058594 1218.671875 1114.875 1203.707031 1108.644531 1204.28125 C 1105.09375 1204.601562 1096.703125 1226.507812 1061.535156 1342.601562 C 1065.847656 1320.507812 1071.097656 1292.953125 1073.472656 1278.027344 C 1078.976562 1243.480469 1069.800781 1209.289062 1051.050781 1192.703125 C 1057.636719 1192.628906 1066.398438 1190.972656 1072.730469 1182.589844 C 1078.707031 1174.667969 1076.890625 1164.664062 1075.726562 1160.457031 C 1081.285156 1159.417969 1089.558594 1155.730469 1090.996094 1147.011719 C 1093.546875 1131.558594 1084.203125 1125.871094 1075.957031 1120.851562 C 1071.722656 1118.273438 1067.726562 1115.839844 1065.550781 1112.308594 C 1061.816406 1106.234375 1061.113281 1098.457031 1060.371094 1090.226562 C 1058.527344 1069.785156 1056.4375 1046.617188 1006.257812 1042.804688 C 978.679688 1040.738281 956.960938 1045.578125 943.476562 1056.882812 C 923.773438 1073.394531 921.445312 1103.449219 921.199219 1112.265625 C 920.929688 1122.070312 922.222656 1130.273438 924.566406 1134.21875 C 918.738281 1139.222656 916.59375 1150.34375 919.71875 1160.652344 C 922.9375 1171.265625 930.71875 1177.738281 940.796875 1178.375 C 937.425781 1187.660156 940.417969 1197.453125 948.796875 1203.882812 C 953.164062 1207.238281 959.085938 1209.53125 965.261719 1209.527344 C 968.324219 1209.527344 971.441406 1208.941406 974.46875 1207.664062 C 971.011719 1212.894531 967.828125 1218.273438 965.386719 1223.152344 C 944.351562 1265.226562 925.949219 1307.085938 923.070312 1313.679688 C 914.035156 1313.839844 840.738281 1311.6875 814.527344 1305.625 C 810.316406 1304.652344 804.542969 1303.316406 791.097656 1296.394531 C 786.082031 1293.808594 781.980469 1290.773438 778.007812 1287.835938 C 773.542969 1284.527344 768.898438 1281.128906 763.082031 1278.460938 L 747.703125 1177.625 C 747.402344 1175.648438 746.25 1173.917969 744.542969 1172.878906 C 742.832031 1171.839844 740.761719 1171.613281 739.058594 1172.207031 L 730.429688 1174.054688 C 727.347656 1175.109375 725.464844 1178.210938 725.953125 1181.433594 L 741.597656 1284.101562 C 739.714844 1283.851562 737.8125 1284.632812 736.753906 1286.210938 L 731.488281 1293.859375 C 722.117188 1292.304688 720.425781 1296.214844 720.140625 1297.480469 C 719.9375 1298.382812 720.058594 1299.296875 720.394531 1300.175781 C 716.535156 1299.945312 715.179688 1301.777344 714.710938 1303.128906 C 713.796875 1305.769531 715.601562 1309.4375 718.390625 1311.078125 C 717.777344 1311.789062 717.246094 1312.71875 717.152344 1313.914062 C 717.117188 1314.351562 717.210938 1314.792969 717.300781 1315.230469 L 655.246094 1408.203125 C 654.210938 1409.75 654.117188 1411.726562 654.992188 1413.363281 C 655.355469 1414.042969 655.882812 1414.582031 656.480469 1415.019531 L 627.503906 1415.019531 C 626.582031 1415.019531 625.832031 1415.765625 625.832031 1416.691406 C 625.832031 1417.617188 626.582031 1418.367188 627.503906 1418.367188 L 1130.519531 1418.367188 C 1131.445312 1418.367188 1132.195312 1417.617188 1132.195312 1416.691406 C 1132.195312 1415.765625 1131.445312 1415.019531 1130.519531 1415.019531 L 1108.269531 1415.019531 C 1108.472656 1414.824219 1108.671875 1414.617188 1108.757812 1414.328125 C 1125.484375 1358.734375 1164.042969 1228.84375 1160.886719 1223.480469 Z M 1045.476562 1192.449219 C 1045.527344 1192.5 1045.558594 1192.5625 1045.621094 1192.605469 C 1065.398438 1206.9375 1075.71875 1242.640625 1070.167969 1277.496094 C 1065.816406 1304.8125 1051.796875 1374.621094 1051.65625 1375.324219 C 1051.65625 1375.335938 1051.660156 1375.34375 1051.65625 1375.351562 C 1051.097656 1377.214844 1050.558594 1379.011719 1049.984375 1380.914062 L 1049.242188 1383.386719 L 948.359375 1383.386719 L 950.730469 1368.265625 C 979.199219 1345.492188 1008.1875 1287.410156 1009.632812 1284.488281 C 1009.6875 1284.382812 1009.730469 1284.265625 1009.757812 1284.144531 C 1010.234375 1282.214844 1021.207031 1236.550781 1003.265625 1217.332031 C 997.160156 1210.789062 988.433594 1208.164062 977.335938 1209.425781 C 983.089844 1200.746094 989.621094 1192.460938 994.523438 1187.945312 C 994.59375 1187.878906 994.625 1187.796875 994.683594 1187.722656 C 994.753906 1187.632812 994.832031 1187.550781 994.882812 1187.449219 C 994.933594 1187.34375 994.949219 1187.234375 994.980469 1187.125 C 995.003906 1187.027344 995.042969 1186.933594 995.046875 1186.832031 C 995.058594 1186.703125 995.03125 1186.578125 995.011719 1186.449219 C 995 1186.371094 995.011719 1186.292969 994.988281 1186.21875 L 991.273438 1174.179688 L 1009.390625 1169.195312 C 1010.46875 1171.46875 1011.863281 1173.707031 1013.707031 1175.839844 C 1023.796875 1187.492188 1037.863281 1191.710938 1044.585938 1192.367188 C 1044.863281 1192.394531 1045.167969 1192.421875 1045.476562 1192.449219 Z M 1064.128906 1386.734375 C 1065.402344 1386.734375 1066.441406 1387.773438 1066.441406 1389.050781 L 1066.441406 1396.03125 C 1066.441406 1397.308594 1065.402344 1398.347656 1064.128906 1398.347656 L 836.164062 1398.347656 C 834.886719 1398.347656 833.847656 1397.308594 833.847656 1396.03125 L 833.847656 1389.050781 C 833.847656 1387.773438 834.886719 1386.734375 836.164062 1386.734375 Z M 951.589844 1157.867188 C 946.847656 1150.753906 944.0625 1142.261719 943.070312 1131.90625 C 943.015625 1131.324219 942.660156 1130.816406 942.132812 1130.558594 C 938.714844 1128.910156 934.144531 1125.585938 934.449219 1123.628906 C 934.871094 1120.921875 939.828125 1114.824219 942.847656 1111.617188 C 943.097656 1111.351562 943.253906 1111.011719 943.292969 1110.648438 C 945.101562 1093.96875 950.09375 1078.355469 953.484375 1070.296875 C 954.390625 1080.476562 957.960938 1100.203125 971.933594 1110.21875 C 981.988281 1117.433594 995.472656 1118.140625 1012 1112.320312 C 1012.109375 1112.28125 1012.21875 1112.226562 1012.316406 1112.167969 C 1012.792969 1111.878906 1024.046875 1105.199219 1032.300781 1115.324219 C 1035.960938 1119.816406 1036.273438 1125.671875 1033.113281 1130.597656 C 1029.945312 1135.535156 1022.707031 1139.816406 1011.863281 1136.996094 C 1011.070312 1136.800781 1010.253906 1137.183594 1009.917969 1137.925781 C 1009.589844 1138.648438 1003.496094 1152.507812 1008.117188 1166.070312 L 990.285156 1170.972656 L 988.203125 1164.230469 C 987.988281 1163.527344 987.339844 1163.050781 986.605469 1163.050781 C 986.597656 1163.050781 986.589844 1163.050781 986.585938 1163.050781 C 973.570312 1163.246094 954.160156 1161.722656 951.589844 1157.867188 Z M 729.261719 1180.929688 C 729.015625 1179.308594 729.964844 1177.753906 731.320312 1177.277344 L 739.949219 1175.429688 C 740.902344 1175.105469 741.945312 1175.222656 742.804688 1175.738281 C 743.664062 1176.261719 744.242188 1177.132812 744.390625 1178.125 L 763.273438 1301.90625 C 760.296875 1301.554688 757.082031 1300.59375 752.878906 1299.289062 C 751.097656 1298.738281 749.15625 1298.136719 747.027344 1297.519531 L 746.507812 1294.101562 L 745.914062 1288.492188 C 745.847656 1287.890625 745.65625 1287.335938 745.394531 1286.8125 Z M 739.527344 1288.09375 C 739.914062 1287.511719 740.628906 1287.226562 741.320312 1287.394531 C 741.660156 1287.480469 741.957031 1287.667969 742.179688 1287.917969 L 743.183594 1294.523438 L 743.394531 1296.511719 C 740.898438 1295.847656 738.148438 1295.183594 735.078125 1294.546875 Z M 717.875 1304.226562 C 718.160156 1303.398438 720.226562 1303.089844 724.078125 1304.359375 C 734.695312 1307.863281 754.859375 1313.085938 755.0625 1313.136719 C 755.949219 1313.363281 756.867188 1312.832031 757.101562 1311.933594 C 757.332031 1311.039062 756.792969 1310.125 755.898438 1309.894531 C 755.714844 1309.84375 738.707031 1305.441406 727.804688 1302.039062 C 727.734375 1302.007812 727.675781 1301.957031 727.597656 1301.933594 C 724.699219 1301.167969 723.179688 1299.21875 723.40625 1298.214844 C 723.617188 1297.292969 726.015625 1296.222656 731.570312 1297.261719 C 736.710938 1298.230469 741 1299.300781 744.714844 1300.34375 C 744.945312 1300.480469 745.210938 1300.550781 745.492188 1300.5625 C 747.84375 1301.234375 749.953125 1301.886719 751.886719 1302.488281 C 756.953125 1304.058594 760.957031 1305.300781 764.871094 1305.421875 C 764.949219 1305.425781 765.03125 1305.425781 765.109375 1305.425781 C 767.277344 1305.425781 769.757812 1304.496094 770.601562 1302.363281 C 771.652344 1299.703125 769.890625 1296.410156 765.210938 1292.300781 C 765.207031 1292.296875 765.199219 1292.292969 765.191406 1292.289062 L 763.699219 1282.503906 C 768.246094 1284.839844 772.066406 1287.601562 776.019531 1290.523438 C 780.09375 1293.542969 784.308594 1296.664062 789.566406 1299.371094 C 803.382812 1306.488281 809.386719 1307.875 813.773438 1308.890625 C 828.703125 1312.34375 857.789062 1314.4375 879.558594 1315.59375 C 899.5 1316.648438 910.800781 1317.039062 917.234375 1317.039062 C 920.363281 1317.039062 922.339844 1316.949219 923.597656 1316.792969 C 923.65625 1316.816406 923.71875 1316.835938 923.777344 1316.851562 L 923.804688 1316.769531 C 925.691406 1316.511719 925.792969 1316.105469 925.902344 1315.679688 C 925.917969 1315.609375 925.929688 1315.542969 925.9375 1315.476562 C 928.003906 1310.738281 946.808594 1267.808594 968.382812 1224.648438 C 970.191406 1221.03125 972.464844 1217.082031 974.960938 1213.113281 C 986.285156 1211.207031 994.992188 1213.382812 1000.816406 1219.613281 C 1017 1236.941406 1007.28125 1280.050781 1006.550781 1283.171875 C 1004.433594 1287.390625 964.074219 1367.140625 933.839844 1373.589844 C 910.328125 1378.617188 867.5625 1366.859375 833.203125 1357.421875 C 821.542969 1354.21875 810.53125 1351.191406 801.691406 1349.226562 C 800.742188 1349.019531 799.042969 1348.679688 796.785156 1348.226562 C 742.707031 1337.429688 729.695312 1330.242188 728.304688 1326.117188 C 728.164062 1325.695312 728.136719 1325.152344 728.734375 1324.386719 C 737.625 1328.113281 749.472656 1331.078125 750.117188 1331.234375 C 750.253906 1331.269531 750.386719 1331.285156 750.523438 1331.285156 C 751.273438 1331.285156 751.957031 1330.773438 752.144531 1330.011719 C 752.367188 1329.117188 751.820312 1328.207031 750.921875 1327.984375 C 750.722656 1327.9375 730.914062 1322.992188 723.820312 1318.136719 C 720.714844 1316.011719 720.457031 1314.664062 720.492188 1314.183594 C 720.546875 1313.359375 721.515625 1312.683594 721.90625 1312.472656 C 735.113281 1317.105469 752.5 1321.925781 752.683594 1321.972656 C 752.832031 1322.015625 752.984375 1322.035156 753.132812 1322.035156 C 753.863281 1322.035156 754.539062 1321.550781 754.742188 1320.808594 C 754.988281 1319.917969 754.46875 1318.996094 753.574219 1318.75 C 753.378906 1318.695312 733.859375 1313.28125 720.597656 1308.453125 C 718.835938 1307.8125 717.472656 1305.386719 717.875 1304.226562 Z M 766.050781 1297.925781 C 767.765625 1300.066406 767.539062 1301.003906 767.488281 1301.132812 C 767.382812 1301.402344 767.050781 1301.628906 766.640625 1301.796875 Z M 757.046875 1400.507812 L 753.6875 1364.09375 L 760.027344 1406.921875 C 759.160156 1406.21875 758.070312 1405.78125 756.871094 1405.78125 L 754.144531 1405.785156 L 754.140625 1405.578125 C 754.835938 1405.261719 755.457031 1404.785156 755.949219 1404.171875 C 756.796875 1403.128906 757.183594 1401.820312 757.046875 1400.507812 Z M 725.132812 1327.1875 C 726.28125 1330.585938 731.429688 1333.984375 740.976562 1337.546875 L 747.054688 1401.539062 C 747.261719 1403.511719 748.835938 1405.1875 750.828125 1405.78125 L 750.828125 1405.792969 L 668.832031 1405.953125 L 724.628906 1322.476562 C 724.96875 1322.65625 725.308594 1322.832031 725.667969 1323.007812 C 724.699219 1324.636719 724.78125 1326.144531 725.132812 1327.1875 Z M 750.382812 1401.203125 L 744.457031 1338.792969 C 745.613281 1339.183594 746.835938 1339.582031 748.101562 1339.980469 L 753.714844 1400.835938 C 753.761719 1401.28125 753.628906 1401.71875 753.347656 1402.066406 C 753.089844 1402.386719 752.722656 1402.597656 752.308594 1402.664062 C 751.398438 1402.621094 750.460938 1401.910156 750.382812 1401.203125 Z M 753.753906 1341.675781 C 758.539062 1343.042969 764.011719 1344.441406 770.074219 1345.878906 L 778.761719 1405.640625 C 779.007812 1407.257812 778.058594 1408.8125 776.703125 1409.292969 L 768.078125 1411.136719 C 767.121094 1411.464844 766.085938 1411.34375 765.222656 1410.824219 C 764.363281 1410.300781 763.785156 1409.433594 763.636719 1408.4375 Z M 756.882812 1412.476562 L 659.421875 1412.667969 C 658.804688 1412.667969 658.238281 1412.328125 657.945312 1411.785156 C 657.652344 1411.238281 657.6875 1410.582031 658.03125 1410.0625 L 719.152344 1318.492188 C 719.847656 1319.25 720.679688 1320.007812 721.75 1320.757812 L 662.558594 1409.316406 L 756.882812 1409.128906 C 757.804688 1409.128906 758.554688 1409.878906 758.554688 1410.800781 C 758.558594 1411.722656 757.808594 1412.476562 756.882812 1412.476562 Z M 940.015625 1415.015625 L 759.589844 1415.015625 C 760.632812 1414.347656 761.394531 1413.300781 761.71875 1412.074219 C 762.210938 1412.699219 762.785156 1413.261719 763.484375 1413.6875 C 764.574219 1414.351562 765.8125 1414.683594 767.003906 1414.683594 C 767.683594 1414.683594 768.347656 1414.578125 768.964844 1414.359375 L 777.589844 1412.511719 C 780.675781 1411.460938 782.558594 1408.355469 782.070312 1405.144531 L 773.578125 1346.699219 C 780.34375 1348.253906 787.828125 1349.851562 796.128906 1351.507812 C 798.359375 1351.953125 800.027344 1352.289062 800.964844 1352.496094 C 809.722656 1354.441406 820.699219 1357.457031 832.316406 1360.648438 C 861.191406 1368.582031 895.9375 1378.128906 920.800781 1378.128906 C 925.828125 1378.128906 930.449219 1377.734375 934.539062 1376.867188 C 938.554688 1376.007812 942.703125 1373.996094 946.890625 1371.132812 L 944.96875 1383.386719 L 836.164062 1383.386719 C 833.042969 1383.386719 830.5 1385.925781 830.5 1389.050781 L 830.5 1396.03125 C 830.5 1399.15625 833.042969 1401.695312 836.164062 1401.695312 L 856.3125 1401.695312 C 856.113281 1402.234375 855.988281 1402.804688 855.988281 1403.410156 L 855.988281 1404.753906 C 855.988281 1407.507812 858.226562 1409.746094 860.984375 1409.746094 L 940.839844 1409.746094 Z M 1039.871094 1415.015625 L 943.402344 1415.015625 L 944.230469 1409.746094 L 1041.503906 1409.746094 C 1040.632812 1412.632812 1040.144531 1414.1875 1039.871094 1415.015625 Z M 1105.992188 1415.015625 L 1043.390625 1415.015625 C 1043.789062 1413.78125 1044.304688 1412.074219 1045 1409.746094 L 1058.828125 1409.746094 C 1061.582031 1409.746094 1063.820312 1407.507812 1063.820312 1404.753906 L 1063.820312 1403.410156 C 1063.820312 1402.808594 1063.695312 1402.234375 1063.5 1401.695312 L 1064.128906 1401.695312 C 1067.25 1401.695312 1069.789062 1399.15625 1069.789062 1396.03125 L 1069.789062 1389.050781 C 1069.789062 1385.925781 1067.25 1383.386719 1064.128906 1383.386719 L 1052.738281 1383.386719 L 1053.191406 1381.875 C 1068.230469 1331.796875 1103.214844 1215.296875 1109.367188 1207.605469 C 1116.117188 1207.769531 1154.246094 1221.476562 1157.90625 1225.089844 C 1158.519531 1233.488281 1127.050781 1341.902344 1105.550781 1413.359375 C 1105.367188 1413.972656 1105.566406 1414.597656 1105.992188 1415.015625 Z M 1105.992188 1415.015625 " fill-opacity="1" fill-rule="nonzero"/></g></svg>