<svg xmlns="http://www.w3.org/2000/svg" xmlns:xlink="http://www.w3.org/1999/xlink" width="2000" zoomAndPan="magnify" viewBox="0 0 1500 1499.999933" height="2000" preserveAspectRatio="xMidYMid meet" version="1.0"><defs><clipPath id="6032f33088"><path d="M 1212 221 L 1494.75 221 L 1494.75 639 L 1212 639 Z M 1212 221 " clip-rule="nonzero"/></clipPath><clipPath id="eb06c2a245"><path d="M 1212 221 L 1494.75 221 L 1494.75 474 L 1212 474 Z M 1212 221 " clip-rule="nonzero"/></clipPath></defs><path fill="#759df5" d="M 1357.980469 1392.851562 C 1357.980469 1241.199219 1291.734375 1095.441406 1208.246094 1034.460938 C 1207.625 1034.035156 1207.125 1033.675781 1206.746094 1033.375 C 1207.246094 1033.730469 1207.75 1034.097656 1208.246094 1034.460938 C 1225.191406 1046.015625 1329.402344 1102.84375 1357.59375 1189.980469 C 1350.023438 1160.621094 1383.734375 906.417969 1310.898438 837.417969 C 1309.769531 836.417969 1308.945312 835.691406 1308.476562 835.222656 C 1309.296875 835.929688 1310.105469 836.664062 1310.898438 837.417969 C 1328.078125 852.597656 1415.597656 930.835938 1390.914062 1131.570312 C 1386.328125 1168.855469 1381.878906 1202.101562 1377.664062 1231.523438 C 1397.28125 1122.804688 1441.78125 915.183594 1462.828125 954.464844 C 1483.875 993.742188 1491.476562 1063.183594 1492.644531 1092.996094 C 1482.707031 1055.585938 1460.371094 986.027344 1450.550781 1007.070312 C 1439.167969 1031.449219 1391.644531 1191.191406 1391.644531 1392.851562 Z M 1357.980469 1392.851562 " fill-opacity="1" fill-rule="nonzero"/><path fill="#253036" d="M 1282.238281 1348.828125 C 1281.277344 1342.464844 1286.207031 1336.738281 1292.644531 1336.738281 L 1443.578125 1336.738281 C 1450.015625 1336.738281 1454.949219 1342.464844 1453.988281 1348.828125 L 1432.800781 1489.113281 C 1432.023438 1494.257812 1427.601562 1498.0625 1422.398438 1498.0625 L 1313.828125 1498.0625 C 1308.625 1498.0625 1304.199219 1494.257812 1303.421875 1489.113281 Z M 1282.238281 1348.828125 " fill-opacity="1" fill-rule="nonzero"/><path fill="#f2f2f2" d="M 101.992188 35.605469 C 101.992188 16.234375 117.699219 0.53125 137.070312 0.53125 L 1294.703125 0.53125 C 1314.078125 0.53125 1329.785156 16.234375 1329.785156 35.605469 L 1329.785156 877.308594 L 101.992188 877.308594 Z M 101.992188 35.605469 " fill-opacity="1" fill-rule="nonzero"/><path fill="#3e77f4" d="M 101.464844 37.289062 C 101.464844 17.917969 117.171875 2.214844 136.542969 2.214844 L 1295.328125 2.214844 C 1314.703125 2.214844 1330.40625 17.917969 1330.40625 37.289062 L 1330.40625 74.488281 L 101.464844 74.488281 Z M 101.464844 37.289062 " fill-opacity="1" fill-rule="nonzero"/><g clip-path="url(#6032f33088)"><path fill="#759df5" d="M 1212.722656 256.113281 C 1212.722656 236.742188 1228.425781 221.042969 1247.800781 221.042969 L 1459.578125 221.042969 C 1478.949219 221.042969 1494.660156 236.742188 1494.660156 256.113281 L 1494.660156 603.546875 C 1494.660156 622.917969 1478.949219 638.617188 1459.578125 638.617188 L 1247.800781 638.617188 C 1228.425781 638.617188 1212.722656 622.917969 1212.722656 603.546875 Z M 1212.722656 256.113281 " fill-opacity="1" fill-rule="nonzero"/></g><path fill="#759df5" d="M 762.925781 209.9375 C 762.925781 190.570312 778.632812 174.867188 798.003906 174.867188 L 1071.226562 174.867188 C 1090.601562 174.867188 1106.308594 190.570312 1106.308594 209.9375 L 1106.308594 649.722656 C 1106.308594 669.085938 1090.601562 684.792969 1071.226562 684.792969 L 798.003906 684.792969 C 778.632812 684.792969 762.925781 669.085938 762.925781 649.722656 Z M 762.925781 209.9375 " fill-opacity="1" fill-rule="nonzero"/><g clip-path="url(#eb06c2a245)"><path fill="#3e77f4" d="M 1212.722656 256.113281 C 1212.722656 236.742188 1228.425781 221.042969 1247.800781 221.042969 L 1459.578125 221.042969 C 1478.949219 221.042969 1494.660156 236.742188 1494.660156 256.113281 L 1494.660156 473.996094 L 1212.722656 473.996094 Z M 1212.722656 256.113281 " fill-opacity="1" fill-rule="nonzero"/></g><path fill="#3e77f4" d="M 762.925781 209.9375 C 762.925781 190.570312 778.632812 174.867188 798.003906 174.867188 L 1071.226562 174.867188 C 1090.601562 174.867188 1106.308594 190.570312 1106.308594 209.9375 L 1106.308594 484.03125 L 762.925781 484.03125 Z M 762.925781 209.9375 " fill-opacity="1" fill-rule="nonzero"/><path fill="#f2f2f2" d="M 1031.605469 542.183594 C 1031.605469 537.878906 1028.113281 534.390625 1023.8125 534.390625 L 846.460938 534.390625 C 842.15625 534.390625 838.667969 537.878906 838.667969 542.183594 C 838.667969 546.488281 842.15625 549.980469 846.460938 549.980469 L 1023.8125 549.980469 C 1028.113281 549.980469 1031.605469 546.488281 1031.605469 542.183594 Z M 1031.605469 542.183594 " fill-opacity="1" fill-rule="nonzero"/><path fill="#f2f2f2" d="M 1259.625 520.367188 C 1259.625 517.347656 1262.070312 514.910156 1265.082031 514.910156 L 1389.226562 514.910156 C 1392.238281 514.910156 1394.679688 517.347656 1394.679688 520.367188 C 1394.679688 523.378906 1392.238281 525.820312 1389.226562 525.820312 L 1265.082031 525.820312 C 1262.070312 525.820312 1259.625 523.378906 1259.625 520.367188 Z M 1259.625 520.367188 " fill-opacity="1" fill-rule="nonzero"/><path fill="#f2f2f2" d="M 1031.605469 581.152344 C 1031.605469 576.847656 1028.113281 573.359375 1023.8125 573.359375 L 846.460938 573.359375 C 842.15625 573.359375 838.667969 576.847656 838.667969 581.152344 C 838.667969 585.457031 842.15625 588.945312 846.460938 588.945312 L 1023.8125 588.945312 C 1028.113281 588.945312 1031.605469 585.457031 1031.605469 581.152344 Z M 1031.605469 581.152344 " fill-opacity="1" fill-rule="nonzero"/><path fill="#f2f2f2" d="M 1259.625 547.640625 C 1259.625 544.628906 1262.070312 542.183594 1265.082031 542.183594 L 1389.226562 542.183594 C 1392.238281 542.183594 1394.679688 544.628906 1394.679688 547.640625 C 1394.679688 550.652344 1392.238281 553.09375 1389.226562 553.09375 L 1265.082031 553.09375 C 1262.070312 553.09375 1259.625 550.652344 1259.625 547.640625 Z M 1259.625 547.640625 " fill-opacity="1" fill-rule="nonzero"/><path fill="#f2f2f2" d="M 1031.605469 620.121094 C 1031.605469 615.816406 1028.113281 612.324219 1023.8125 612.324219 L 846.460938 612.324219 C 842.15625 612.324219 838.667969 615.816406 838.667969 620.121094 C 838.667969 624.425781 842.15625 627.914062 846.460938 627.914062 L 1023.8125 627.914062 C 1028.113281 627.914062 1031.605469 624.425781 1031.605469 620.121094 Z M 1031.605469 620.121094 " fill-opacity="1" fill-rule="nonzero"/><path fill="#f2f2f2" d="M 1259.625 574.917969 C 1259.625 571.90625 1262.070312 569.460938 1265.082031 569.460938 L 1389.226562 569.460938 C 1392.238281 569.460938 1394.679688 571.90625 1394.679688 574.917969 C 1394.679688 577.929688 1392.238281 580.371094 1389.226562 580.371094 L 1265.082031 580.371094 C 1262.070312 580.371094 1259.625 577.929688 1259.625 574.917969 Z M 1259.625 574.917969 " fill-opacity="1" fill-rule="nonzero"/><path fill="#f2f2f2" d="M 933.382812 273.632812 C 948.535156 274.566406 956.535156 253.023438 958.640625 242.132812 C 974.074219 242.132812 1013.785156 253.796875 1049.144531 300.46875 L 1020.730469 333.136719 L 998.628906 306.300781 C 993.964844 335.617188 988.136719 395.898438 997.453125 426.738281 C 998.871094 431.4375 995.535156 436.96875 990.625 436.96875 L 876.140625 436.96875 C 871.230469 436.96875 867.890625 431.4375 869.3125 426.738281 C 878.625 395.898438 872.800781 335.617188 868.132812 306.304688 L 846.035156 333.136719 L 817.617188 300.46875 C 852.980469 253.800781 892.691406 242.132812 908.125 242.132812 C 910.230469 253.023438 918.226562 274.566406 933.382812 273.632812 Z M 933.382812 273.632812 " fill-opacity="1" fill-rule="nonzero"/><path fill="#759df5" d="M 381.78125 256.113281 C 381.78125 236.742188 397.484375 221.042969 416.859375 221.042969 L 628.632812 221.042969 C 648.007812 221.042969 663.714844 236.742188 663.714844 256.113281 L 663.714844 603.546875 C 663.714844 622.917969 648.007812 638.617188 628.632812 638.617188 L 416.859375 638.617188 C 397.484375 638.617188 381.78125 622.917969 381.78125 603.546875 Z M 381.78125 256.113281 " fill-opacity="1" fill-rule="nonzero"/><path fill="#3e77f4" d="M 381.78125 256.113281 C 381.78125 236.742188 397.484375 221.042969 416.859375 221.042969 L 628.632812 221.042969 C 648.007812 221.042969 663.714844 236.742188 663.714844 256.113281 L 663.714844 473.996094 L 381.78125 473.996094 Z M 381.78125 256.113281 " fill-opacity="1" fill-rule="nonzero"/><path fill="#f2f2f2" d="M 621.359375 520.367188 C 621.359375 517.347656 618.917969 514.910156 615.898438 514.910156 L 491.757812 514.910156 C 488.742188 514.910156 486.300781 517.347656 486.300781 520.367188 C 486.300781 523.378906 488.742188 525.820312 491.757812 525.820312 L 615.898438 525.820312 C 618.917969 525.820312 621.359375 523.378906 621.359375 520.367188 Z M 621.359375 520.367188 " fill-opacity="1" fill-rule="nonzero"/><path fill="#f2f2f2" d="M 621.359375 547.640625 C 621.359375 544.628906 618.917969 542.183594 615.898438 542.183594 L 491.757812 542.183594 C 488.742188 542.183594 486.300781 544.628906 486.300781 547.640625 C 486.300781 550.652344 488.742188 553.09375 491.757812 553.09375 L 615.898438 553.09375 C 618.917969 553.09375 621.359375 550.652344 621.359375 547.640625 Z M 621.359375 547.640625 " fill-opacity="1" fill-rule="nonzero"/><path fill="#f2f2f2" d="M 621.359375 574.917969 C 621.359375 571.90625 618.917969 569.460938 615.898438 569.460938 L 491.757812 569.460938 C 488.742188 569.460938 486.300781 571.90625 486.300781 574.917969 C 486.300781 577.929688 488.742188 580.371094 491.757812 580.371094 L 615.898438 580.371094 C 618.917969 580.371094 621.359375 577.929688 621.359375 574.917969 Z M 621.359375 574.917969 " fill-opacity="1" fill-rule="nonzero"/><path fill="#f2f2f2" d="M 463.015625 296.625 C 501.726562 286.289062 539 286.320312 577.722656 296.714844 C 581.488281 297.722656 584.3125 300.828125 585.082031 304.652344 L 606.171875 409.335938 C 606.839844 412.65625 605.050781 415.988281 601.859375 417.109375 C 583.5 423.582031 551.179688 431.203125 530.835938 423.175781 C 528.441406 422.234375 527.015625 419.839844 526.855469 417.269531 C 526.074219 404.46875 523.070312 368.804688 521.378906 359.035156 L 513.746094 418.285156 C 513.492188 420.28125 512.414062 422.09375 510.632812 423.027344 C 498.539062 429.339844 470.390625 434.972656 442.554688 417.46875 C 440.308594 416.054688 439.191406 413.402344 439.589844 410.777344 L 455.5625 305.058594 C 456.175781 301.019531 459.066406 297.675781 463.015625 296.625 Z M 463.015625 296.625 " fill-opacity="1" fill-rule="nonzero"/><path fill="#759df5" d="M 281.933594 256.113281 C 281.933594 236.742188 266.226562 221.042969 246.851562 221.042969 L 35.078125 221.042969 C 15.703125 221.042969 0 236.742188 0 256.113281 L 0 603.546875 C 0 622.917969 15.703125 638.617188 35.078125 638.617188 L 246.851562 638.617188 C 266.226562 638.617188 281.933594 622.917969 281.933594 603.546875 Z M 281.933594 256.113281 " fill-opacity="1" fill-rule="nonzero"/><path fill="#3e77f4" d="M 281.933594 256.113281 C 281.933594 236.742188 266.226562 221.042969 246.851562 221.042969 L 35.078125 221.042969 C 15.703125 221.042969 0 236.742188 0 256.113281 L 0 473.996094 L 281.933594 473.996094 Z M 281.933594 256.113281 " fill-opacity="1" fill-rule="nonzero"/><path fill="#f2f2f2" d="M 42.355469 520.367188 C 42.355469 517.347656 44.800781 514.910156 47.8125 514.910156 L 171.957031 514.910156 C 174.96875 514.910156 177.414062 517.347656 177.414062 520.367188 C 177.414062 523.378906 174.96875 525.820312 171.957031 525.820312 L 47.8125 525.820312 C 44.800781 525.820312 42.355469 523.378906 42.355469 520.367188 Z M 42.355469 520.367188 " fill-opacity="1" fill-rule="nonzero"/><path fill="#f2f2f2" d="M 42.355469 547.640625 C 42.355469 544.628906 44.800781 542.183594 47.8125 542.183594 L 171.957031 542.183594 C 174.96875 542.183594 177.414062 544.628906 177.414062 547.640625 C 177.414062 550.652344 174.96875 553.09375 171.957031 553.09375 L 47.8125 553.09375 C 44.800781 553.09375 42.355469 550.652344 42.355469 547.640625 Z M 42.355469 547.640625 " fill-opacity="1" fill-rule="nonzero"/><path fill="#f2f2f2" d="M 42.355469 574.917969 C 42.355469 571.90625 44.800781 569.460938 47.8125 569.460938 L 171.957031 569.460938 C 174.96875 569.460938 177.414062 571.90625 177.414062 574.917969 C 177.414062 577.929688 174.96875 580.371094 171.957031 580.371094 L 47.8125 580.371094 C 44.800781 580.371094 42.355469 577.929688 42.355469 574.917969 Z M 42.355469 574.917969 " fill-opacity="1" fill-rule="nonzero"/><path fill="#f2f2f2" d="M 200.699219 296.625 C 161.988281 286.289062 124.710938 286.320312 85.992188 296.714844 C 82.222656 297.722656 79.402344 300.828125 78.632812 304.652344 L 57.542969 409.335938 C 56.875 412.65625 58.660156 415.988281 61.851562 417.109375 C 80.214844 423.582031 112.535156 431.203125 132.878906 423.175781 C 135.273438 422.234375 136.699219 419.839844 136.855469 417.269531 C 137.640625 404.46875 140.640625 368.804688 142.332031 359.035156 L 149.964844 418.285156 C 150.222656 420.28125 151.296875 422.09375 153.082031 423.027344 C 165.175781 429.339844 193.324219 434.972656 221.15625 417.46875 C 223.40625 416.054688 224.519531 413.402344 224.125 410.777344 L 208.148438 305.058594 C 207.539062 301.019531 204.648438 297.675781 200.699219 296.625 Z M 200.699219 296.625 " fill-opacity="1" fill-rule="nonzero"/><path fill="#f2f2f2" d="M 1352.585938 268.628906 C 1311.03125 268.628906 1277.339844 303.785156 1277.339844 347.148438 C 1277.339844 352.351562 1277.824219 357.433594 1278.746094 362.351562 L 1426.425781 362.351562 C 1427.347656 357.433594 1427.832031 352.351562 1427.832031 347.148438 C 1427.832031 303.785156 1394.144531 268.628906 1352.585938 268.628906 Z M 1352.585938 268.628906 " fill-opacity="1" fill-rule="nonzero"/><path fill="#759df5" d="M 1352.585938 272.136719 C 1313.105469 272.136719 1280.847656 305.582031 1280.847656 347.148438 C 1280.847656 351.128906 1281.140625 355.035156 1281.714844 358.84375 L 1423.457031 358.84375 C 1424.027344 355.035156 1424.324219 351.128906 1424.324219 347.148438 C 1424.324219 305.582031 1392.0625 272.136719 1352.585938 272.136719 Z M 1426.425781 362.351562 L 1278.746094 362.351562 C 1277.824219 357.433594 1277.339844 352.351562 1277.339844 347.148438 C 1277.339844 303.785156 1311.03125 268.628906 1352.585938 268.628906 C 1394.144531 268.628906 1427.832031 303.785156 1427.832031 347.148438 C 1427.832031 352.351562 1427.347656 357.433594 1426.425781 362.351562 Z M 1426.425781 362.351562 " fill-opacity="1" fill-rule="evenodd"/><path fill="#f2f2f2" d="M 1277.34375 349.6875 L 1427.835938 349.6875 L 1432.785156 382.671875 C 1434.742188 395.738281 1422.59375 406.488281 1409.859375 402.953125 L 1363.1875 389.988281 C 1357.738281 388.472656 1351.984375 388.433594 1346.519531 389.875 L 1295.011719 403.425781 C 1282.339844 406.761719 1270.386719 396.042969 1272.328125 383.082031 Z M 1277.34375 349.6875 " fill-opacity="1" fill-rule="nonzero"/><path fill="#759df5" d="M 1280.363281 353.191406 L 1275.800781 383.601562 C 1274.230469 394.070312 1283.882812 402.726562 1294.121094 400.035156 L 1345.625 386.480469 C 1351.695312 384.886719 1358.078125 384.929688 1364.125 386.609375 L 1410.800781 399.570312 C 1421.082031 402.425781 1430.898438 393.746094 1429.316406 383.191406 L 1424.816406 353.191406 Z M 1427.835938 349.6875 L 1277.34375 349.6875 L 1272.328125 383.082031 C 1270.386719 396.042969 1282.339844 406.761719 1295.011719 403.425781 L 1346.519531 389.875 C 1351.984375 388.433594 1357.738281 388.472656 1363.1875 389.988281 L 1409.859375 402.953125 C 1422.59375 406.488281 1434.742188 395.738281 1432.785156 382.671875 Z M 1427.835938 349.6875 " fill-opacity="1" fill-rule="evenodd"/><path fill="#759df5" d="M 182.675781 39.5 C 182.675781 48.109375 176.394531 55.085938 168.644531 55.085938 C 160.894531 55.085938 154.613281 48.109375 154.613281 39.5 C 154.613281 30.890625 160.894531 23.914062 168.644531 23.914062 C 176.394531 23.914062 182.675781 30.890625 182.675781 39.5 Z M 182.675781 39.5 " fill-opacity="1" fill-rule="nonzero"/><path fill="#759df5" d="M 228.277344 39.5 C 228.277344 48.109375 221.996094 55.085938 214.246094 55.085938 C 206.496094 55.085938 200.214844 48.109375 200.214844 39.5 C 200.214844 30.890625 206.496094 23.914062 214.246094 23.914062 C 221.996094 23.914062 228.277344 30.890625 228.277344 39.5 Z M 228.277344 39.5 " fill-opacity="1" fill-rule="nonzero"/><path fill="#759df5" d="M 273.882812 39.5 C 273.882812 48.109375 267.597656 55.085938 259.851562 55.085938 C 252.101562 55.085938 245.816406 48.109375 245.816406 39.5 C 245.816406 30.890625 252.101562 23.914062 259.851562 23.914062 C 267.597656 23.914062 273.882812 30.890625 273.882812 39.5 Z M 273.882812 39.5 " fill-opacity="1" fill-rule="nonzero"/><path fill="#253036" d="M 271.019531 1141.167969 L 313.410156 1141.167969 L 313.410156 1357.773438 L 271.019531 1357.773438 Z M 271.019531 1141.167969 " fill-opacity="1" fill-rule="nonzero"/><path fill="#f2f2f2" d="M 247.46875 1074.144531 L 336.957031 1074.144531 L 336.957031 1123.730469 C 336.957031 1135.351562 327.53125 1144.773438 315.90625 1144.773438 L 268.515625 1144.773438 C 256.890625 1144.773438 247.46875 1135.351562 247.46875 1123.730469 Z M 247.46875 1074.144531 " fill-opacity="1" fill-rule="nonzero"/><path fill="#253036" d="M 468.835938 1451.949219 C 468.835938 1477.957031 447.746094 1499.039062 421.734375 1499.039062 C 395.722656 1499.039062 374.632812 1477.957031 374.632812 1451.949219 C 374.632812 1425.945312 395.722656 1404.863281 421.734375 1404.863281 C 447.746094 1404.863281 468.835938 1425.945312 468.835938 1451.949219 Z M 468.835938 1451.949219 " fill-opacity="1" fill-rule="nonzero"/><path fill="#3e77f4" d="M 70.746094 601.78125 C 66.390625 552.558594 105.183594 510.1875 154.609375 510.1875 L 302.8125 510.1875 C 346.433594 510.1875 382.828125 543.5 386.675781 586.941406 L 405.886719 803.96875 C 410.242188 853.1875 371.449219 895.558594 322.023438 895.558594 L 173.820312 895.558594 C 130.199219 895.558594 93.804688 862.25 89.957031 818.804688 Z M 70.746094 601.78125 " fill-opacity="1" fill-rule="nonzero"/><path fill="#253036" d="M 302.8125 513.695312 L 154.609375 513.695312 C 107.242188 513.695312 70.066406 554.300781 74.242188 601.472656 L 93.453125 818.496094 C 97.136719 860.125 132.019531 892.050781 173.820312 892.050781 L 322.023438 892.050781 C 369.390625 892.050781 406.566406 851.445312 402.390625 804.277344 L 383.179688 587.25 C 379.496094 545.617188 344.613281 513.695312 302.8125 513.695312 Z M 154.609375 510.1875 C 105.183594 510.1875 66.390625 552.558594 70.746094 601.78125 L 89.957031 818.804688 C 93.804688 862.25 130.199219 895.558594 173.820312 895.558594 L 322.023438 895.558594 C 371.449219 895.558594 410.242188 853.1875 405.886719 803.96875 L 386.675781 586.941406 C 382.828125 543.5 346.433594 510.1875 302.8125 510.1875 Z M 154.609375 510.1875 " fill-opacity="1" fill-rule="evenodd"/><path fill="#3e77f4" d="M 49.644531 1035.320312 C 49.644531 1013.214844 67.566406 995.292969 89.675781 995.292969 L 494.738281 995.292969 C 516.847656 995.292969 534.769531 1013.214844 534.769531 1035.320312 C 534.769531 1057.425781 516.847656 1075.34375 494.738281 1075.34375 L 89.675781 1075.34375 C 67.566406 1075.34375 49.644531 1057.425781 49.644531 1035.320312 Z M 49.644531 1035.320312 " fill-opacity="1" fill-rule="nonzero"/><path fill="#253036" d="M 153.269531 1372.957031 C 153.269531 1363.273438 161.121094 1355.417969 170.808594 1355.417969 L 430.101562 1355.417969 C 439.789062 1355.417969 447.644531 1363.273438 447.644531 1372.957031 L 447.644531 1421.34375 C 447.644531 1427.84375 442.371094 1433.117188 435.867188 1433.117188 C 429.367188 1433.117188 424.09375 1427.84375 424.09375 1421.34375 L 424.09375 1393.089844 L 176.820312 1393.089844 L 176.820312 1421.34375 C 176.820312 1427.84375 171.546875 1433.117188 165.042969 1433.117188 C 158.539062 1433.117188 153.269531 1427.84375 153.269531 1421.34375 Z M 153.269531 1372.957031 " fill-opacity="1" fill-rule="evenodd"/><path fill="#253036" d="M 223.917969 1451.949219 C 223.917969 1477.957031 202.828125 1499.039062 176.816406 1499.039062 C 150.804688 1499.039062 129.714844 1477.957031 129.714844 1451.949219 C 129.714844 1425.945312 150.804688 1404.863281 176.816406 1404.863281 C 202.828125 1404.863281 223.917969 1425.945312 223.917969 1451.949219 Z M 223.917969 1451.949219 " fill-opacity="1" fill-rule="nonzero"/><path fill="#f2f2f2" d="M 209.789062 1451.949219 C 209.789062 1470.15625 195.027344 1484.914062 176.816406 1484.914062 C 158.609375 1484.914062 143.847656 1470.15625 143.847656 1451.949219 C 143.847656 1433.746094 158.609375 1418.988281 176.816406 1418.988281 C 195.027344 1418.988281 209.789062 1433.746094 209.789062 1451.949219 Z M 209.789062 1451.949219 " fill-opacity="1" fill-rule="nonzero"/><path fill="#f2f2f2" d="M 454.703125 1451.949219 C 454.703125 1470.15625 439.941406 1484.914062 421.734375 1484.914062 C 403.527344 1484.914062 388.765625 1470.15625 388.765625 1451.949219 C 388.765625 1433.746094 403.527344 1418.988281 421.734375 1418.988281 C 439.941406 1418.988281 454.703125 1433.746094 454.703125 1451.949219 Z M 454.703125 1451.949219 " fill-opacity="1" fill-rule="nonzero"/><path fill="#3e77f4" d="M 214.496094 868.058594 L 271.011719 868.058594 L 272.9375 879.605469 C 281.050781 928.285156 294.160156 975.996094 312.050781 1021.992188 L 318.113281 1037.574219 L 261.59375 1037.574219 L 255.53125 1021.992188 C 237.640625 975.996094 224.535156 928.285156 216.417969 879.605469 Z M 214.496094 868.058594 " fill-opacity="1" fill-rule="nonzero"/><path fill="#fcbfbc" d="M 572.765625 1364.546875 C 581.964844 1354.398438 568.484375 1283.691406 568.238281 1281.953125 L 634.246094 1272.679688 C 634.488281 1274.417969 644.523438 1333.214844 670.308594 1340.214844 C 652.78125 1366.761719 591.363281 1366.652344 572.765625 1364.546875 Z M 572.765625 1364.546875 " fill-opacity="1" fill-rule="nonzero"/><path fill="#3e77f4" d="M 637.601562 1315.46875 C 625.214844 1321.761719 630.597656 1327.863281 620.261719 1339.820312 C 600.648438 1362.5 584.578125 1324.316406 571.089844 1337.960938 C 562.675781 1346.476562 567.664062 1387.007812 572.707031 1407.050781 C 607.738281 1409.507812 674.585938 1409.15625 719.761719 1405.316406 C 733.332031 1404.160156 749.433594 1403.417969 757.210938 1392.269531 C 768.796875 1375.667969 727.289062 1355.484375 699.976562 1345.945312 C 695.234375 1343.058594 690.652344 1340.078125 686.417969 1337.285156 L 685.210938 1336.484375 C 682.375 1334.605469 679.613281 1332.6875 676.925781 1330.804688 C 672.816406 1327.929688 668.882812 1325.136719 665.121094 1322.675781 C 654.574219 1315.777344 645.386719 1311.511719 637.601562 1315.46875 Z M 637.601562 1315.46875 " fill-opacity="1" fill-rule="nonzero"/><path fill="#253036" d="M 649.804688 1316.671875 C 645.496094 1315.328125 641.757812 1315.324219 638.398438 1317.03125 C 635.453125 1318.527344 633.671875 1319.960938 632.457031 1321.382812 C 631.246094 1322.808594 630.519531 1324.324219 629.796875 1326.160156 C 629.605469 1326.652344 629.414062 1327.160156 629.214844 1327.6875 C 627.910156 1331.1875 626.28125 1335.539062 621.589844 1340.96875 C 616.421875 1346.941406 611.261719 1349.136719 606.132812 1348.933594 C 601.164062 1348.734375 596.554688 1346.285156 592.460938 1343.773438 C 591.460938 1343.15625 590.535156 1342.566406 589.636719 1341.996094 C 588.589844 1341.328125 587.574219 1340.683594 586.503906 1340.035156 C 584.585938 1338.878906 582.808594 1337.929688 581.125 1337.335938 C 579.453125 1336.746094 577.953125 1336.542969 576.574219 1336.78125 C 575.21875 1337.015625 573.8125 1337.710938 572.339844 1339.191406 L 569.847656 1336.730469 C 571.746094 1334.800781 573.792969 1333.703125 575.976562 1333.324219 C 578.128906 1332.953125 580.253906 1333.316406 582.289062 1334.03125 C 584.316406 1334.742188 586.335938 1335.839844 588.3125 1337.03125 C 589.351562 1337.65625 590.480469 1338.375 591.601562 1339.089844 C 592.527344 1339.675781 593.441406 1340.257812 594.296875 1340.785156 C 598.363281 1343.277344 602.292969 1345.269531 606.269531 1345.429688 C 610.09375 1345.578125 614.296875 1344.039062 618.9375 1338.671875 C 623.203125 1333.738281 624.628906 1329.925781 625.925781 1326.480469 C 626.128906 1325.9375 626.324219 1325.40625 626.53125 1324.878906 C 627.308594 1322.910156 628.203125 1320.972656 629.789062 1319.109375 C 631.375 1317.246094 633.5625 1315.554688 636.808594 1313.902344 C 641.238281 1311.65625 645.984375 1311.804688 650.851562 1313.328125 C 655.683594 1314.839844 660.785156 1317.742188 666.085938 1321.207031 C 669.277344 1323.292969 672.59375 1325.625 676.007812 1328.019531 C 676.648438 1328.46875 677.289062 1328.917969 677.933594 1329.367188 C 680.621094 1331.25 683.367188 1333.15625 686.183594 1335.023438 L 687.386719 1335.820312 M 683.292969 1337.308594 C 681.050781 1335.808594 678.855469 1334.292969 676.71875 1332.800781 C 676.480469 1332.890625 676.21875 1332.984375 675.957031 1333.082031 C 675.625 1333.203125 675.261719 1333.335938 674.871094 1333.476562 L 674.742188 1333.523438 C 674.300781 1333.683594 673.828125 1333.855469 673.324219 1334.039062 C 671.3125 1334.777344 668.863281 1335.71875 666.421875 1336.875 C 663.96875 1338.03125 661.582031 1339.378906 659.660156 1340.90625 C 657.730469 1342.449219 656.410156 1344.0625 655.871094 1345.722656 L 652.535156 1344.636719 C 653.375 1342.058594 655.28125 1339.914062 657.476562 1338.164062 C 659.691406 1336.402344 662.34375 1334.921875 664.917969 1333.703125 C 667.503906 1332.480469 670.066406 1331.496094 672.113281 1330.742188 C 672.5 1330.605469 672.867188 1330.46875 673.214844 1330.34375 C 670.375 1328.351562 667.636719 1326.441406 664.988281 1324.683594 C 664.871094 1324.734375 664.75 1324.792969 664.625 1324.851562 C 662.695312 1325.75 659.261719 1327.347656 655.640625 1329.457031 C 653.308594 1330.816406 650.980469 1332.34375 649.050781 1333.953125 C 647.097656 1335.582031 645.6875 1337.1875 645.011719 1338.667969 L 641.816406 1337.21875 C 642.8125 1335.03125 644.695312 1333.015625 646.804688 1331.257812 C 648.941406 1329.476562 651.449219 1327.839844 653.875 1326.425781 C 656.679688 1324.792969 659.484375 1323.402344 661.5 1322.441406 C 657.289062 1319.828125 653.402344 1317.800781 649.804688 1316.671875 M 686.5 1339.4375 C 685.496094 1340.128906 684.222656 1340.824219 682.921875 1341.515625 C 682.492188 1341.742188 682.046875 1341.976562 681.59375 1342.214844 C 680.011719 1343.046875 678.316406 1343.933594 676.625 1344.929688 C 674.453125 1346.207031 672.378906 1347.601562 670.691406 1349.15625 C 669.003906 1350.714844 667.792969 1352.347656 667.226562 1354.078125 L 663.894531 1352.988281 C 664.710938 1350.484375 666.371094 1348.367188 668.316406 1346.578125 C 670.261719 1344.78125 672.582031 1343.238281 674.851562 1341.90625 C 676.617188 1340.867188 678.410156 1339.921875 680 1339.085938 C 680.441406 1338.855469 680.871094 1338.632812 681.277344 1338.417969 C 682.046875 1338.007812 682.714844 1337.640625 683.292969 1337.308594 M 686.5 1339.4375 C 689.484375 1341.398438 692.628906 1343.441406 695.878906 1345.472656 C 692.722656 1346.621094 688.992188 1348.195312 685.546875 1350.070312 C 683.101562 1351.402344 680.75 1352.914062 678.847656 1354.566406 C 676.960938 1356.203125 675.378906 1358.097656 674.683594 1360.222656 L 678.015625 1361.3125 C 678.425781 1360.054688 679.472656 1358.664062 681.144531 1357.214844 C 682.792969 1355.785156 684.910156 1354.414062 687.222656 1353.152344 C 691.617188 1350.757812 696.550781 1348.863281 699.945312 1347.796875 C 713.445312 1352.542969 730.199219 1359.828125 742.203125 1367.914062 C 748.308594 1372.023438 753.015625 1376.230469 755.507812 1380.285156 C 756.742188 1382.292969 757.386719 1384.1875 757.449219 1385.964844 C 757.515625 1387.71875 757.023438 1389.480469 755.777344 1391.265625 L 758.652344 1393.273438 C 760.304688 1390.910156 761.050781 1388.40625 760.957031 1385.835938 C 760.863281 1383.296875 759.949219 1380.816406 758.496094 1378.449219 C 755.609375 1373.75 750.402344 1369.207031 744.164062 1365.003906 C 731.695312 1356.609375 714.425781 1349.144531 700.734375 1344.355469 M 660.367188 1384.117188 C 629.714844 1384.5625 599.03125 1383.59375 578.644531 1382.445312 L 578.84375 1378.945312 C 599.15625 1380.089844 629.757812 1381.058594 660.3125 1380.613281 C 690.910156 1380.167969 721.316406 1378.3125 741.324219 1373.847656 L 742.085938 1377.269531 C 721.699219 1381.820312 690.976562 1383.675781 660.367188 1384.117188 Z M 660.367188 1384.117188 " fill-opacity="1" fill-rule="evenodd"/><path fill="#fcbfbc" d="M 401.449219 1406.4375 C 412.832031 1398.816406 416.859375 1326.949219 417.046875 1325.207031 L 483.328125 1332.171875 C 483.148438 1333.914062 478.65625 1393.390625 501.980469 1406.421875 C 478.554688 1427.941406 418.984375 1412.980469 401.449219 1406.4375 Z M 401.449219 1406.4375 " fill-opacity="1" fill-rule="nonzero"/><path fill="#3e77f4" d="M 476.234375 1374.5 C 462.695312 1377.609375 466.441406 1384.832031 453.515625 1393.933594 C 428.996094 1411.195312 422.644531 1370.257812 406.253906 1380.238281 C 396.035156 1386.464844 391.066406 1427 391.105469 1447.667969 C 424.5 1458.523438 489.453125 1474.347656 534.210938 1481.550781 C 547.664062 1483.714844 563.460938 1486.882812 573.707031 1477.949219 C 588.96875 1464.640625 553.574219 1435.015625 529.378906 1419.160156 C 525.480469 1415.207031 521.753906 1411.210938 518.324219 1407.472656 L 517.347656 1406.40625 C 515.046875 1403.894531 512.832031 1401.371094 510.675781 1398.890625 C 507.390625 1395.109375 504.246094 1391.445312 501.191406 1388.148438 C 492.628906 1378.90625 484.746094 1372.542969 476.234375 1374.5 Z M 476.234375 1374.5 " fill-opacity="1" fill-rule="nonzero"/><path fill="#253036" d="M 487.78125 1378.621094 C 483.929688 1376.273438 480.300781 1375.363281 476.628906 1376.210938 C 473.40625 1376.949219 471.332031 1377.90625 469.8125 1378.996094 C 468.289062 1380.085938 467.21875 1381.378906 466.074219 1382.988281 C 465.769531 1383.417969 465.460938 1383.867188 465.140625 1384.332031 C 463.023438 1387.40625 460.394531 1391.238281 454.523438 1395.371094 C 448.066406 1399.917969 442.527344 1400.792969 437.601562 1399.355469 C 432.828125 1397.964844 428.945312 1394.472656 425.589844 1391.046875 C 424.761719 1390.207031 424.007812 1389.410156 423.273438 1388.640625 C 422.421875 1387.742188 421.59375 1386.867188 420.703125 1385.976562 C 419.128906 1384.394531 417.632812 1383.046875 416.140625 1382.058594 C 414.660156 1381.085938 413.257812 1380.523438 411.859375 1380.421875 C 410.484375 1380.320312 408.953125 1380.648438 407.171875 1381.738281 L 405.34375 1378.742188 C 407.660156 1377.335938 409.90625 1376.761719 412.117188 1376.921875 C 414.300781 1377.082031 416.273438 1377.945312 418.074219 1379.136719 C 419.867188 1380.316406 421.5625 1381.867188 423.1875 1383.5 C 424.042969 1384.359375 424.96875 1385.332031 425.886719 1386.296875 C 426.636719 1387.085938 427.386719 1387.875 428.089844 1388.589844 C 431.433594 1391.996094 434.761719 1394.875 438.585938 1395.992188 C 442.257812 1397.0625 446.707031 1396.585938 452.503906 1392.5 C 457.839844 1388.746094 460.148438 1385.390625 462.238281 1382.359375 C 462.566406 1381.882812 462.886719 1381.414062 463.214844 1380.953125 C 464.441406 1379.234375 465.777344 1377.566406 467.769531 1376.144531 C 469.757812 1374.71875 472.292969 1373.609375 475.84375 1372.789062 C 480.683594 1371.679688 485.25 1372.972656 489.609375 1375.628906 C 493.929688 1378.261719 498.175781 1382.3125 502.480469 1386.960938 C 505.074219 1389.757812 507.730469 1392.820312 510.460938 1395.964844 C 510.972656 1396.554688 511.488281 1397.148438 512.003906 1397.742188 C 514.152344 1400.214844 516.359375 1402.730469 518.640625 1405.222656 L 519.617188 1406.289062 C 519.617188 1406.289062 519.617188 1406.289062 519.621094 1406.289062 M 515.28125 1406.742188 C 513.46875 1404.742188 511.707031 1402.746094 509.992188 1400.777344 C 509.738281 1400.808594 509.464844 1400.839844 509.1875 1400.867188 C 508.835938 1400.90625 508.449219 1400.945312 508.039062 1400.988281 L 507.898438 1401 C 507.433594 1401.050781 506.933594 1401.101562 506.402344 1401.160156 C 504.269531 1401.386719 501.664062 1401.710938 499.015625 1402.238281 C 496.359375 1402.773438 493.714844 1403.503906 491.480469 1404.519531 C 489.234375 1405.550781 487.5625 1406.796875 486.636719 1408.273438 L 483.664062 1406.414062 C 485.105469 1404.117188 487.46875 1402.5 490.027344 1401.332031 C 492.601562 1400.15625 495.535156 1399.359375 498.328125 1398.800781 C 501.132812 1398.242188 503.855469 1397.90625 506.027344 1397.667969 C 506.433594 1397.628906 506.824219 1397.585938 507.191406 1397.550781 C 504.914062 1394.925781 502.722656 1392.410156 500.574219 1390.066406 C 500.453125 1390.089844 500.320312 1390.117188 500.183594 1390.140625 C 498.09375 1390.546875 494.371094 1391.265625 490.347656 1392.4375 C 487.761719 1393.191406 485.132812 1394.109375 482.871094 1395.203125 C 480.578125 1396.3125 478.820312 1397.53125 477.808594 1398.804688 L 475.0625 1396.625 C 476.554688 1394.742188 478.871094 1393.242188 481.339844 1392.046875 C 483.84375 1390.835938 486.675781 1389.851562 489.371094 1389.070312 C 492.488281 1388.160156 495.542969 1387.492188 497.734375 1387.046875 C 494.28125 1383.496094 491 1380.585938 487.78125 1378.621094 M 517.878906 1409.582031 C 516.734375 1410.011719 515.335938 1410.375 513.90625 1410.734375 C 513.429688 1410.851562 512.945312 1410.972656 512.445312 1411.089844 C 510.710938 1411.515625 508.851562 1411.972656 506.96875 1412.527344 C 504.554688 1413.238281 502.199219 1414.09375 500.1875 1415.191406 C 498.171875 1416.292969 496.605469 1417.585938 495.640625 1419.128906 L 492.664062 1417.269531 C 494.0625 1415.035156 496.1875 1413.382812 498.503906 1412.113281 C 500.832031 1410.84375 503.453125 1409.90625 505.976562 1409.164062 C 507.949219 1408.582031 509.914062 1408.101562 511.660156 1407.675781 C 512.144531 1407.554688 512.613281 1407.441406 513.058594 1407.328125 C 513.902344 1407.121094 514.640625 1406.925781 515.28125 1406.742188 M 517.878906 1409.582031 C 520.296875 1412.210938 522.855469 1414.953125 525.515625 1417.710938 C 522.179688 1418.058594 518.175781 1418.683594 514.378906 1419.667969 C 511.683594 1420.371094 509.039062 1421.269531 506.789062 1422.414062 C 504.570312 1423.546875 502.570312 1424.996094 501.382812 1426.894531 L 504.351562 1428.757812 C 505.058594 1427.632812 506.410156 1426.542969 508.378906 1425.539062 C 510.328125 1424.550781 512.707031 1423.730469 515.261719 1423.066406 C 520.101562 1421.804688 525.351562 1421.164062 528.902344 1420.941406 C 540.851562 1428.820312 555.347656 1439.941406 565.039062 1450.6875 C 569.964844 1456.152344 573.515625 1461.371094 574.949219 1465.910156 C 575.664062 1468.15625 575.828125 1470.152344 575.464844 1471.894531 C 575.101562 1473.609375 574.199219 1475.199219 572.558594 1476.628906 L 574.863281 1479.273438 C 577.039062 1477.375 578.367188 1475.132812 578.894531 1472.617188 C 579.421875 1470.125 579.136719 1467.5 578.296875 1464.851562 C 576.632812 1459.59375 572.679688 1453.921875 567.644531 1448.335938 C 557.574219 1437.175781 542.625 1425.757812 530.496094 1417.796875 M 481.707031 1446.617188 C 451.859375 1439.636719 422.320312 1431.269531 402.820312 1425.230469 L 403.859375 1421.878906 C 423.292969 1427.902344 452.75 1436.246094 482.507812 1443.203125 C 512.300781 1450.175781 542.257812 1455.726562 562.746094 1456.230469 L 562.660156 1459.738281 C 541.78125 1459.222656 511.519531 1453.589844 481.707031 1446.617188 Z M 481.707031 1446.617188 " fill-opacity="1" fill-rule="evenodd"/><path fill="#fcbfbc" d="M 492.871094 724.121094 C 492.871094 718.507812 485.855469 690.222656 485.855469 680.28125 C 480.59375 673.269531 438.496094 685.542969 433.238281 685.542969 C 432.066406 696.0625 435.691406 728.328125 438.496094 738.148438 C 441.304688 747.96875 490.617188 798.804688 515.757812 826.277344 C 525.113281 824.523438 543.824219 818.910156 543.824219 810.492188 C 542.421875 804.882812 510.410156 749.257812 492.871094 724.121094 Z M 492.871094 724.121094 " fill-opacity="1" fill-rule="nonzero"/><path fill="#fcbfbc" d="M 305.71875 494.957031 C 334.367188 487.714844 341.488281 440.125 341.464844 417.230469 C 344.125 427.296875 363.960938 476.988281 401.453125 482.25 C 400.898438 488.117188 400.550781 499.0625 402.078125 507.574219 C 403.109375 513.316406 403.914062 519.757812 400.585938 524.550781 C 377.976562 557.128906 328.890625 519.585938 305.71875 494.957031 Z M 305.71875 494.957031 " fill-opacity="1" fill-rule="nonzero"/><path fill="#fcbfbc" d="M 358.472656 382.507812 C 403.65625 383.089844 422.265625 352.679688 426.332031 336.226562 C 436.027344 340.28125 455.34375 353.628906 455.042969 374.542969 C 454.664062 400.6875 456.398438 478.769531 412.039062 482.523438 C 408.367188 482.835938 404.839844 482.722656 401.453125 482.246094 C 363.957031 476.984375 344.125 427.296875 341.464844 417.230469 C 320.425781 404.03125 321.246094 380.0625 330.644531 372.722656 C 338.164062 366.847656 352.332031 376.800781 358.472656 382.507812 Z M 358.472656 382.507812 " fill-opacity="1" fill-rule="nonzero"/><path fill="#253036" d="M 405.753906 451.644531 C 406.472656 451 407.582031 451.054688 408.230469 451.777344 C 409.664062 453.371094 415.113281 456.628906 423.820312 453.171875 C 424.71875 452.820312 425.738281 453.257812 426.097656 454.160156 C 426.453125 455.054688 426.011719 456.078125 425.109375 456.433594 C 415.109375 460.40625 408.082031 456.859375 405.621094 454.121094 C 404.976562 453.402344 405.03125 452.292969 405.753906 451.644531 Z M 405.753906 451.644531 " fill-opacity="1" fill-rule="evenodd"/><path fill="#253036" d="M 335.574219 382.601562 C 336.03125 381.746094 337.097656 381.425781 337.949219 381.882812 C 340.117188 383.046875 343.261719 385.320312 345.828125 388.4375 C 348.394531 391.558594 350.507812 395.683594 350.238281 400.496094 C 350.183594 401.460938 349.355469 402.199219 348.390625 402.148438 C 347.421875 402.09375 346.683594 401.269531 346.734375 400.300781 C 346.9375 396.671875 345.355469 393.386719 343.117188 390.667969 C 340.882812 387.945312 338.105469 385.953125 336.289062 384.972656 C 335.4375 384.515625 335.113281 383.453125 335.574219 382.601562 Z M 341.015625 415.539062 C 341.949219 415.289062 342.910156 415.847656 343.15625 416.785156 C 344.4375 421.625 349.980469 436.378906 359.835938 450.542969 C 369.710938 464.734375 383.671875 477.980469 401.695312 480.515625 C 402.65625 480.648438 403.324219 481.535156 403.191406 482.492188 C 403.054688 483.453125 402.167969 484.121094 401.207031 483.988281 C 381.738281 481.253906 367.035156 467.03125 356.953125 452.546875 C 346.855469 438.03125 341.148438 422.902344 339.769531 417.679688 C 339.519531 416.746094 340.078125 415.785156 341.015625 415.539062 Z M 341.015625 415.539062 " fill-opacity="1" fill-rule="evenodd"/><path fill="#253036" d="M 358.472656 382.507812 C 403.65625 383.089844 422.265625 352.679688 426.332031 336.226562 C 436.027344 340.28125 455.34375 353.628906 455.039062 374.542969 C 454.660156 400.6875 456.398438 478.769531 412.039062 482.523438 C 408.367188 482.835938 404.839844 482.722656 401.453125 482.246094 C 400.886719 488.214844 400.539062 499.429688 402.15625 507.996094 C 422.253906 520.808594 439.925781 544.914062 446.464844 557.917969 C 449.433594 563.828125 461.089844 582.046875 464.8125 595.691406 L 479.160156 561.652344 C 492.625 541.492188 499.074219 526.570312 487.617188 507.996094 C 475.804688 488.851562 475.390625 474.023438 484.070312 455.265625 C 492.746094 436.511719 491.59375 418.222656 484.070312 404.554688 C 476.542969 390.890625 471.082031 376.511719 472.660156 340.605469 C 473.921875 311.878906 431.210938 293.75 409.695312 288.28125 C 385.128906 282.667969 331.582031 283.222656 313.902344 330.320312 C 299.953125 368.957031 325.984375 379.304688 294.671875 385.265625 C 256.242188 392.585938 307.285156 438.519531 280.640625 453.652344 C 265.03125 463.535156 239.644531 483.59375 270.121094 516.78125 L 305.71875 494.957031 C 334.367188 487.714844 341.484375 440.125 341.464844 417.230469 C 320.425781 404.03125 321.246094 380.0625 330.644531 372.722656 C 338.164062 366.847656 352.332031 376.800781 358.472656 382.507812 Z M 358.472656 382.507812 " fill-opacity="1" fill-rule="nonzero"/><path fill="#253036" d="M 391.753906 384.828125 C 388.257812 388.941406 385.609375 394.992188 384.75 402.019531 C 383.886719 409.042969 384.988281 415.554688 387.382812 420.390625 C 389.785156 425.242188 393.363281 428.210938 397.40625 428.703125 C 401.445312 429.203125 405.632812 427.183594 409.136719 423.0625 C 412.628906 418.949219 415.277344 412.898438 416.140625 405.871094 C 417.003906 398.84375 415.898438 392.332031 413.507812 387.5 C 411.105469 382.648438 407.527344 379.683594 403.484375 379.1875 C 399.441406 378.6875 395.253906 380.703125 391.753906 384.828125 Z M 389.078125 382.558594 C 393.0625 377.867188 398.324219 375.015625 403.914062 375.703125 C 409.503906 376.390625 413.917969 380.425781 416.648438 385.941406 C 419.085938 390.871094 420.285156 397.132812 419.855469 403.816406 C 421.011719 403.617188 422.3125 403.492188 423.613281 403.527344 C 424.925781 403.5625 426.386719 403.769531 427.722656 404.339844 C 428.765625 398.609375 431.042969 393.566406 434.0625 389.898438 C 437.453125 385.785156 441.96875 383.207031 446.816406 383.800781 C 451.667969 384.398438 455.421875 387.988281 457.71875 392.800781 C 460.023438 397.632812 460.984375 403.933594 460.167969 410.570312 C 459.351562 417.203125 456.898438 423.082031 453.492188 427.21875 C 450.101562 431.332031 445.582031 433.90625 440.738281 433.308594 C 435.980469 432.726562 432.265625 429.253906 429.964844 424.578125 C 427.753906 420.082031 426.722656 414.273438 427.230469 408.089844 C 426.425781 407.4375 425.160156 407.074219 423.519531 407.035156 C 422.089844 406.996094 420.621094 407.207031 419.464844 407.476562 C 418.390625 414.597656 415.601562 420.871094 411.8125 425.332031 C 407.828125 430.023438 402.566406 432.871094 396.976562 432.1875 C 391.386719 431.5 386.972656 427.460938 384.238281 421.949219 C 381.5 416.414062 380.332031 409.199219 381.265625 401.589844 C 382.203125 393.980469 385.082031 387.265625 389.078125 382.558594 Z M 436.769531 392.128906 C 433.851562 395.671875 431.613281 400.894531 430.871094 406.96875 C 430.84375 407.195312 430.820312 407.414062 430.792969 407.636719 C 430.179688 413.570312 431.136719 419.015625 433.113281 423.03125 C 435.097656 427.0625 437.980469 429.4375 441.167969 429.828125 C 444.410156 430.226562 447.847656 428.550781 450.78125 424.988281 C 453.703125 421.441406 455.9375 416.214844 456.6875 410.140625 C 457.429688 404.066406 456.523438 398.457031 454.550781 394.308594 C 452.5625 390.144531 449.636719 387.679688 446.390625 387.285156 C 443.144531 386.886719 439.707031 388.5625 436.769531 392.128906 Z M 436.769531 392.128906 " fill-opacity="1" fill-rule="evenodd"/><path fill="#253036" d="M 414.132812 405.59375 C 413.707031 409.058594 411.484375 411.636719 409.175781 411.355469 C 406.863281 411.070312 405.335938 408.03125 405.761719 404.566406 C 406.183594 401.101562 408.40625 398.519531 410.71875 398.800781 C 413.03125 399.085938 414.554688 402.128906 414.132812 405.59375 Z M 414.132812 405.59375 " fill-opacity="1" fill-rule="nonzero"/><path fill="#253036" d="M 451.628906 411.609375 C 451.199219 415.074219 448.984375 417.65625 446.671875 417.371094 C 444.359375 417.089844 442.828125 414.046875 443.253906 410.582031 C 443.683594 407.117188 445.898438 404.535156 448.210938 404.820312 C 450.523438 405.105469 452.050781 408.144531 451.628906 411.609375 Z M 451.628906 411.609375 " fill-opacity="1" fill-rule="nonzero"/><path fill="#253036" d="M 385.515625 391.121094 L 358.046875 384.210938 L 358.902344 380.8125 L 386.371094 387.71875 Z M 385.515625 391.121094 " fill-opacity="1" fill-rule="evenodd"/><path fill="#3e77f4" d="M 187.144531 683.980469 C 178.128906 681.117188 170.132812 678.042969 164.238281 675.46875 C 170.863281 630.191406 185.25 592.59375 195.472656 571.5625 C 196.226562 569.808594 197.210938 567.855469 198.554688 565.46875 C 201.460938 559.972656 203.824219 556.210938 205.273438 554.472656 C 232.46875 511.941406 257.835938 504.925781 305.722656 494.957031 C 308.429688 494.273438 310.941406 493.230469 313.277344 491.882812 C 339.394531 515.855469 392.058594 551.410156 401.746094 507.128906 C 428.058594 522.910156 464.515625 564.992188 477.144531 600.0625 C 484.90625 621.625 494.710938 659.6875 494.710938 696.511719 C 483.875 702.863281 457.726562 706.769531 429.8125 703.527344 L 427.515625 674.234375 C 423.867188 682.105469 419.410156 689.53125 413.941406 696.0625 C 389.875 797.769531 410.003906 815.75 410.003906 905.183594 C 338.605469 873.621094 259.824219 891.15625 189.515625 922.722656 C 179.316406 876.835938 179.929688 733.847656 187.144531 683.980469 Z M 187.144531 683.980469 " fill-opacity="1" fill-rule="nonzero"/><path fill="#253036" d="M 400.246094 506.226562 C 400.746094 505.398438 401.820312 505.128906 402.652344 505.625 C 416.035156 513.65625 431.875 528.28125 445.925781 545.246094 C 459.984375 562.210938 472.386719 581.675781 478.792969 599.46875 C 486.601562 621.15625 496.464844 659.425781 496.464844 696.511719 L 496.464844 697.515625 L 495.597656 698.023438 C 489.871094 701.382812 480.34375 703.984375 468.875 705.359375 C 457.359375 706.738281 443.703125 706.90625 429.613281 705.265625 C 428.648438 705.15625 427.960938 704.285156 428.070312 703.324219 C 428.183594 702.363281 429.054688 701.671875 430.015625 701.785156 C 443.835938 703.390625 457.214844 703.226562 468.460938 701.875 C 479.140625 700.59375 487.730469 698.265625 492.957031 695.484375 C 492.777344 659.242188 483.140625 621.894531 475.492188 600.65625 C 469.273438 583.378906 457.132812 564.265625 443.226562 547.484375 C 429.316406 530.691406 413.773438 516.386719 400.847656 508.632812 C 400.015625 508.132812 399.75 507.054688 400.246094 506.226562 Z M 400.246094 506.226562 " fill-opacity="1" fill-rule="evenodd"/><path fill="#253036" d="M 182.464844 751.453125 C 183.433594 751.484375 184.195312 752.289062 184.167969 753.257812 C 183.273438 783.902344 183.304688 818.398438 184.433594 849.140625 C 185.558594 879.929688 187.78125 906.828125 191.230469 922.34375 C 191.441406 923.285156 190.84375 924.222656 189.898438 924.433594 C 188.953125 924.644531 188.015625 924.046875 187.804688 923.101562 C 184.28125 907.242188 182.054688 880.058594 180.925781 849.273438 C 179.796875 818.445312 179.765625 783.871094 180.660156 753.15625 C 180.691406 752.1875 181.496094 751.421875 182.464844 751.453125 Z M 182.464844 751.453125 " fill-opacity="1" fill-rule="evenodd"/><path fill="#253036" d="M 259.824219 689.496094 C 235.925781 700.175781 190.335938 686.296875 167.539062 676.871094 C 166.179688 676.308594 166.109375 674.441406 167.402344 673.734375 C 167.875 673.476562 168.4375 673.445312 168.933594 673.648438 C 179.578125 678.046875 195.292969 683.441406 211.34375 686.761719 C 228.464844 690.304688 245.1875 691.316406 256.644531 687.011719 C 261.675781 652.46875 265.695312 609.355469 267.839844 581.414062 C 267.882812 580.871094 268.175781 580.382812 268.632812 580.085938 C 269.851562 579.296875 271.449219 580.226562 271.339844 581.675781 C 269.148438 610.195312 265.011719 654.519531 259.824219 689.496094 Z M 259.824219 689.496094 " fill-opacity="1" fill-rule="nonzero"/><path fill="#253036" d="M 443.9375 598.3125 C 444.90625 598.382812 445.632812 599.21875 445.566406 600.183594 C 444.664062 613.292969 442.878906 630.609375 438.445312 648.085938 C 434.015625 665.550781 426.90625 683.296875 415.289062 697.191406 C 408.097656 705.78125 395.046875 711.816406 375.511719 713.59375 C 374.546875 713.679688 373.695312 712.96875 373.605469 712.003906 C 373.519531 711.039062 374.230469 710.1875 375.195312 710.101562 C 394.246094 708.367188 406.238281 702.539062 412.597656 694.9375 C 423.75 681.613281 430.679688 664.421875 435.042969 647.222656 C 439.402344 630.039062 441.171875 612.964844 442.070312 599.941406 C 442.136719 598.976562 442.972656 598.246094 443.9375 598.3125 Z M 443.9375 598.3125 " fill-opacity="1" fill-rule="evenodd"/><path fill="#253036" d="M 285.984375 1031.441406 C 208.816406 1055.992188 176.066406 929.152344 191.269531 896.417969 C 238.625 883.5625 347.019531 865.554688 401.746094 896.417969 C 447.933594 915.707031 588.019531 962.703125 596.441406 996.371094 C 604.695312 1029.367188 628.785156 1169.5 647.902344 1280.726562 L 649.058594 1287.460938 C 637.367188 1293.890625 588.371094 1318.320312 563.113281 1308.5 C 547.902344 1283.617188 520.652344 1119.113281 509.234375 1050.195312 L 508.742188 1047.222656 C 503.65625 1047.488281 496.046875 1046.609375 487.167969 1045.03125 C 494.839844 1128.78125 496.257812 1289.144531 501.726562 1348.832031 C 485.941406 1362.863281 445.601562 1362.863281 410.519531 1362.863281 C 386.664062 1323.582031 391.808594 1131.394531 387.714844 1082.292969 Z M 285.984375 1031.441406 " fill-opacity="1" fill-rule="nonzero"/><path fill="#f2f2f2" d="M 331.949219 895.351562 C 332.539062 894.582031 333.640625 894.4375 334.410156 895.027344 C 340.570312 899.757812 351.726562 906.25 365.378906 913.910156 C 368.890625 915.882812 372.566406 917.925781 376.351562 920.035156 C 387.222656 926.089844 399.027344 932.671875 410.65625 939.488281 C 426.34375 948.683594 441.769531 958.359375 454.261719 967.867188 C 466.6875 977.320312 476.464844 986.796875 480.519531 995.640625 C 482.566406 1000.097656 484.285156 1007.792969 485.785156 1017.78125 C 487.292969 1027.832031 488.601562 1040.402344 489.761719 1054.738281 C 492.078125 1083.417969 493.789062 1119.273438 495.234375 1156.445312 C 496.066406 1177.761719 496.808594 1199.5 497.53125 1220.574219 C 499.320312 1273.0625 500.972656 1321.402344 503.472656 1348.675781 C 503.5625 1349.640625 502.851562 1350.492188 501.886719 1350.578125 C 500.921875 1350.667969 500.070312 1349.960938 499.980469 1348.996094 C 497.46875 1321.613281 495.8125 1273.097656 494.019531 1220.554688 C 493.300781 1199.507812 492.558594 1177.820312 491.730469 1156.582031 C 490.28125 1119.417969 488.574219 1083.621094 486.265625 1055.019531 C 485.109375 1040.71875 483.804688 1028.238281 482.316406 1018.304688 C 480.8125 1008.300781 479.144531 1001.058594 477.332031 997.101562 C 473.667969 989.113281 464.53125 980.085938 452.140625 970.65625 C 439.816406 961.28125 424.527344 951.691406 408.886719 942.515625 C 397.289062 935.714844 385.535156 929.167969 374.667969 923.113281 C 370.878906 921.003906 367.195312 918.949219 363.664062 916.96875 C 350.078125 909.339844 338.679688 902.722656 332.273438 897.808594 C 331.503906 897.222656 331.359375 896.121094 331.949219 895.351562 Z M 331.949219 895.351562 " fill-opacity="1" fill-rule="evenodd"/><path fill="#fcbfbc" d="M 398.15625 808.464844 C 371.847656 808.464844 180.746094 773.667969 171.976562 750.875 C 165.71875 734.605469 168.050781 702.335938 173.535156 679.246094 C 192.53125 686.460938 221.597656 694.777344 243.804688 693.148438 C 241.746094 703.535156 241.484375 713.296875 238.542969 720.613281 C 291.164062 727.628906 301.6875 743.410156 394.738281 775.421875 C 414.617188 772.5 456.828125 768.410156 466.648438 775.421875 C 476.945312 782.777344 481.074219 799.996094 480.066406 808.464844 C 487.757812 815.609375 497.640625 826.25 496.464844 829.78125 C 495.0625 833.992188 480.09375 823.355469 472.785156 817.507812 C 478.746094 829.652344 484.175781 844.515625 478.925781 845.566406 C 472.304688 846.886719 465.683594 827.226562 459.820312 817.507812 C 452.738281 816.339844 436.480469 815.402344 428.0625 821.015625 C 417.539062 828.03125 412.195312 809.960938 398.15625 808.464844 Z M 398.15625 808.464844 " fill-opacity="1" fill-rule="nonzero"/><path fill="#253036" d="M 244.144531 691.429688 C 245.09375 691.617188 245.714844 692.539062 245.523438 693.488281 C 244.789062 697.195312 244.289062 700.796875 243.804688 704.289062 C 243.617188 705.636719 243.433594 706.972656 243.238281 708.289062 C 242.667969 712.132812 242.007812 715.828125 240.929688 719.171875 C 266.171875 722.730469 281.8125 728.414062 302.164062 737.03125 C 305.582031 738.480469 309.140625 740.011719 312.898438 741.632812 C 332.054688 749.882812 356.472656 760.40625 395.3125 773.765625 C 396.226562 774.078125 396.714844 775.078125 396.398438 775.996094 C 396.082031 776.910156 395.082031 777.398438 394.167969 777.082031 C 355.199219 763.675781 330.660156 753.105469 311.5 744.847656 C 307.746094 743.230469 304.203125 741.703125 300.796875 740.261719 C 280.035156 731.472656 264.410156 725.832031 238.3125 722.351562 L 236.074219 722.054688 L 236.914062 719.960938 C 238.300781 716.511719 239.078125 712.417969 239.765625 707.773438 C 239.953125 706.523438 240.136719 705.226562 240.316406 703.902344 C 240.804688 700.378906 241.328125 696.621094 242.082031 692.808594 C 242.273438 691.859375 243.195312 691.242188 244.144531 691.429688 Z M 244.144531 691.429688 " fill-opacity="1" fill-rule="evenodd"/><path fill="#759df5" d="M 357.8125 804.785156 L 838.40625 804.785156 L 838.40625 829.335938 L 357.8125 829.335938 Z M 357.8125 804.785156 " fill-opacity="1" fill-rule="nonzero"/><path fill="#253036" d="M 834.898438 808.292969 L 361.320312 808.292969 L 361.320312 825.828125 L 834.898438 825.828125 Z M 357.8125 804.785156 L 357.8125 829.335938 L 838.40625 829.335938 L 838.40625 804.785156 Z M 357.8125 804.785156 " fill-opacity="1" fill-rule="evenodd"/><path fill="#759df5" d="M 528.535156 631.605469 C 529.175781 628.308594 532.066406 625.921875 535.425781 625.921875 L 875.511719 625.921875 C 879.917969 625.921875 883.234375 629.941406 882.398438 634.269531 L 845.492188 825.152344 L 491.117188 825.152344 Z M 528.535156 631.605469 " fill-opacity="1" fill-rule="nonzero"/><path fill="#759df5" d="M 526.804688 631.25 C 527.609375 627.136719 531.214844 624.167969 535.410156 624.167969 L 875.496094 624.167969 C 881.015625 624.167969 885.160156 629.203125 884.105469 634.613281 L 847.144531 824.410156 C 846.960938 825.359375 846.039062 825.980469 845.089844 825.796875 C 844.136719 825.609375 843.519531 824.691406 843.699219 823.738281 L 880.664062 633.941406 C 881.296875 630.695312 878.808594 627.675781 875.496094 627.675781 L 535.410156 627.675781 C 532.894531 627.675781 530.730469 629.457031 530.246094 631.925781 L 492.839844 822.65625 C 492.652344 823.605469 491.730469 824.226562 490.78125 824.042969 C 489.828125 823.855469 489.207031 822.933594 489.394531 821.984375 Z M 526.804688 631.25 " fill-opacity="1" fill-rule="evenodd"/><path fill="#f2f2f2" d="M 722.644531 736.394531 C 722.644531 750.921875 710.863281 762.699219 696.332031 762.699219 C 681.804688 762.699219 670.023438 750.921875 670.023438 736.394531 C 670.023438 721.871094 681.804688 710.09375 696.332031 710.09375 C 710.863281 710.09375 722.644531 721.871094 722.644531 736.394531 Z M 722.644531 736.394531 " fill-opacity="1" fill-rule="nonzero"/><path fill="#253036" d="M 216.363281 843.78125 L 264.769531 845.363281 L 240.410156 1499.589844 L 192 1498.003906 Z M 216.363281 843.78125 " fill-opacity="1" fill-rule="nonzero"/><path fill="#253036" d="M 1099.976562 843.78125 L 1051.570312 845.363281 L 1075.929688 1499.589844 L 1124.335938 1498.003906 Z M 1099.976562 843.78125 " fill-opacity="1" fill-rule="nonzero"/><path stroke-linecap="butt" transform="matrix(3.507979, 0, 0, 3.507099, -150.843059, -146.765266)" fill-opacity="1" fill="#3e77f4" fill-rule="nonzero" stroke-linejoin="miter" d="M 47.499777 277.821453 L 403.580881 277.821453 L 403.580881 297.297576 L 47.499777 297.297576 Z M 47.499777 277.821453 " stroke="#253036" stroke-width="1" stroke-opacity="1" stroke-miterlimit="4"/><path fill="#253036" d="M 14.03125 824.074219 L 1266.664062 824.074219 L 1266.664062 827.582031 L 14.03125 827.582031 Z M 14.03125 824.074219 " fill-opacity="1" fill-rule="evenodd"/><path fill="#253036" d="M 14.03125 895.886719 L 1266.664062 895.886719 L 1266.664062 899.394531 L 14.03125 899.394531 Z M 14.03125 895.886719 " fill-opacity="1" fill-rule="evenodd"/></svg>