<svg xmlns="http://www.w3.org/2000/svg" xmlns:xlink="http://www.w3.org/1999/xlink" width="2000" zoomAndPan="magnify" viewBox="0 0 1500 1499.999933" height="2000" preserveAspectRatio="xMidYMid meet" version="1.0"><defs><clipPath id="36a628ff41"><path d="M 526 1172 L 1337 1172 L 1337 1453.5 L 526 1453.5 Z M 526 1172 " clip-rule="nonzero"/></clipPath><clipPath id="3aa3e0ae82"><path d="M 909 601 L 1425 601 L 1425 1117 L 909 1117 Z M 909 601 " clip-rule="nonzero"/></clipPath></defs><path fill="#47218a" d="M 1209.367188 203.261719 C 1207.796875 203.261719 1206.210938 202.757812 1204.875 201.714844 C 1184.015625 185.488281 1162.007812 170.3125 1139.464844 156.601562 C 1136.007812 154.5 1134.910156 149.992188 1137.011719 146.535156 C 1139.113281 143.078125 1143.621094 141.976562 1147.082031 144.082031 C 1170.101562 158.078125 1192.574219 173.578125 1213.875 190.148438 C 1217.066406 192.632812 1217.640625 197.238281 1215.15625 200.433594 C 1213.710938 202.289062 1211.550781 203.261719 1209.367188 203.261719 Z M 1072.363281 119.980469 C 1071.339844 119.980469 1070.296875 119.761719 1069.304688 119.308594 C 1045.304688 108.277344 1020.410156 98.539062 995.3125 90.359375 C 991.460938 89.109375 989.359375 84.972656 990.613281 81.125 C 991.867188 77.277344 996.003906 75.171875 999.851562 76.425781 C 1025.488281 84.777344 1050.914062 94.726562 1075.425781 105.992188 C 1079.105469 107.683594 1080.714844 112.035156 1079.023438 115.710938 C 1077.789062 118.394531 1075.136719 119.980469 1072.363281 119.980469 Z M 919.917969 70.308594 C 919.4375 70.308594 918.949219 70.261719 918.460938 70.164062 C 892.628906 64.949219 866.15625 61.175781 839.777344 58.945312 C 835.746094 58.605469 832.753906 55.058594 833.09375 51.027344 C 833.433594 46.992188 836.980469 44 841.011719 44.339844 C 867.949219 46.617188 894.980469 50.472656 921.359375 55.796875 C 925.328125 56.597656 927.894531 60.460938 927.09375 64.429688 C 926.390625 67.90625 923.335938 70.308594 919.917969 70.308594 Z M 680.148438 63.664062 C 680.082031 63.664062 680.015625 63.664062 679.949219 63.660156 C 675.90625 63.550781 672.6875 60.183594 672.796875 56.136719 C 672.898438 52.394531 675.769531 49.378906 679.40625 49.039062 C 705.875 45.203125 732.949219 42.867188 759.886719 42.089844 C 763.945312 41.96875 767.304688 45.15625 767.421875 49.203125 C 767.539062 53.25 764.355469 56.621094 760.308594 56.738281 C 733.828125 57.503906 707.214844 59.808594 681.203125 63.585938 C 680.851562 63.636719 680.5 63.664062 680.148438 63.664062 Z M 680.148438 63.664062 " fill-opacity="1" fill-rule="nonzero"/><g clip-path="url(#36a628ff41)"><path fill="#47218a" d="M 769.328125 1453.304688 C 769.289062 1453.304688 769.25 1453.304688 769.210938 1453.304688 C 742.1875 1452.878906 714.964844 1450.890625 688.289062 1447.390625 C 684.277344 1446.867188 681.453125 1443.1875 681.976562 1439.171875 C 682.503906 1435.160156 686.191406 1432.332031 690.195312 1432.859375 C 716.316406 1436.285156 742.976562 1438.234375 769.441406 1438.648438 C 773.488281 1438.714844 776.714844 1442.046875 776.652344 1446.089844 C 776.589844 1450.101562 773.320312 1453.304688 769.328125 1453.304688 Z M 849.542969 1450.019531 C 845.820312 1450.019531 842.632812 1447.191406 842.261719 1443.40625 C 841.867188 1439.375 844.8125 1435.792969 848.839844 1435.398438 C 875.179688 1432.816406 901.597656 1428.695312 927.351562 1423.144531 C 931.308594 1422.289062 935.207031 1424.804688 936.058594 1428.761719 C 936.910156 1432.71875 934.394531 1436.617188 930.441406 1437.46875 C 904.140625 1443.140625 877.167969 1447.347656 850.265625 1449.984375 C 850.023438 1450.007812 849.785156 1450.019531 849.542969 1450.019531 Z M 610.371094 1432.433594 C 609.78125 1432.433594 609.179688 1432.359375 608.582031 1432.207031 C 582.433594 1425.640625 556.386719 1417.464844 531.164062 1407.914062 C 527.378906 1406.480469 525.472656 1402.25 526.902344 1398.46875 C 528.335938 1394.683594 532.566406 1392.777344 536.351562 1394.207031 C 561.050781 1403.558594 586.554688 1411.5625 612.152344 1417.996094 C 616.078125 1418.980469 618.460938 1422.964844 617.476562 1426.886719 C 616.640625 1430.210938 613.652344 1432.433594 610.371094 1432.433594 Z M 1006.273438 1416.203125 C 1003.226562 1416.203125 1000.378906 1414.285156 999.339844 1411.234375 C 998.035156 1407.402344 1000.082031 1403.242188 1003.914062 1401.9375 C 1028.898438 1393.433594 1053.660156 1383.367188 1077.511719 1372.023438 C 1081.167969 1370.285156 1085.535156 1371.835938 1087.273438 1375.492188 C 1089.011719 1379.148438 1087.457031 1383.519531 1083.804688 1385.257812 C 1059.445312 1396.84375 1034.152344 1407.125 1008.636719 1415.808594 C 1007.855469 1416.078125 1007.058594 1416.203125 1006.273438 1416.203125 Z M 1151.0625 1347.351562 C 1148.621094 1347.351562 1146.234375 1346.132812 1144.84375 1343.914062 C 1142.695312 1340.484375 1143.734375 1335.960938 1147.164062 1333.8125 C 1169.523438 1319.8125 1191.328125 1304.347656 1211.972656 1287.847656 C 1215.136719 1285.324219 1219.746094 1285.835938 1222.269531 1289 C 1224.796875 1292.160156 1224.285156 1296.769531 1221.121094 1299.296875 C 1200.042969 1316.144531 1177.777344 1331.9375 1154.941406 1346.234375 C 1153.734375 1346.992188 1152.386719 1347.351562 1151.0625 1347.351562 Z M 1276.296875 1247.261719 C 1274.429688 1247.261719 1272.5625 1246.550781 1271.132812 1245.132812 C 1268.261719 1242.28125 1268.246094 1237.640625 1271.097656 1234.769531 C 1289.710938 1216.03125 1307.433594 1196.019531 1323.777344 1175.289062 C 1326.28125 1172.109375 1330.886719 1171.5625 1334.066406 1174.070312 C 1337.246094 1176.574219 1337.789062 1181.183594 1335.285156 1184.359375 C 1318.597656 1205.527344 1300.5 1225.964844 1281.496094 1245.097656 C 1280.0625 1246.539062 1278.179688 1247.261719 1276.296875 1247.261719 Z M 1276.296875 1247.261719 " fill-opacity="1" fill-rule="nonzero"/></g><path fill="#47218a" d="M 86.769531 834.554688 C 83.089844 834.554688 79.917969 831.792969 79.496094 828.050781 C 76.511719 801.726562 75 774.933594 75 748.410156 C 75 746.710938 75.007812 745.015625 75.019531 743.316406 C 75.046875 739.289062 78.324219 736.042969 82.34375 736.042969 C 82.363281 736.042969 82.378906 736.042969 82.398438 736.042969 C 86.445312 736.070312 89.703125 739.375 89.671875 743.421875 C 89.660156 745.085938 89.65625 746.746094 89.65625 748.40625 C 89.65625 774.382812 91.136719 800.625 94.058594 826.398438 C 94.511719 830.421875 91.625 834.050781 87.601562 834.507812 C 87.320312 834.539062 87.042969 834.554688 86.769531 834.554688 Z M 87.941406 666.914062 C 87.636719 666.914062 87.328125 666.894531 87.015625 666.855469 C 83 666.347656 80.15625 662.683594 80.664062 658.667969 C 84.210938 630.601562 89.476562 602.539062 96.308594 575.25 C 97.289062 571.324219 101.269531 568.941406 105.195312 569.921875 C 109.121094 570.90625 111.507812 574.886719 110.523438 578.8125 C 103.832031 605.535156 98.679688 633.019531 95.203125 660.503906 C 94.734375 664.207031 91.582031 666.914062 87.941406 666.914062 Z M 128.699219 504.273438 C 127.824219 504.273438 126.9375 504.117188 126.074219 503.785156 C 122.296875 502.335938 120.410156 498.097656 121.859375 494.316406 C 131.960938 467.984375 143.785156 441.996094 157.003906 417.070312 C 158.902344 413.496094 163.335938 412.132812 166.910156 414.03125 C 170.488281 415.925781 171.847656 420.359375 169.953125 423.9375 C 157.011719 448.339844 145.433594 473.785156 135.542969 499.566406 C 134.421875 502.480469 131.644531 504.273438 128.699219 504.273438 Z M 207.226562 356.15625 C 205.78125 356.15625 204.324219 355.730469 203.046875 354.839844 C 199.726562 352.527344 198.910156 347.960938 201.222656 344.640625 C 217.332031 321.515625 235.027344 299.113281 253.824219 278.058594 C 256.519531 275.039062 261.152344 274.773438 264.171875 277.46875 C 267.191406 280.164062 267.453125 284.796875 264.757812 287.816406 C 246.351562 308.4375 229.023438 330.375 213.246094 353.015625 C 211.824219 355.0625 209.542969 356.15625 207.226562 356.15625 Z M 207.226562 356.15625 " fill-opacity="1" fill-rule="nonzero"/><path fill="#efe1ff" d="M 1293.695312 747.585938 C 1293.695312 755.976562 1293.488281 764.367188 1293.078125 772.746094 C 1292.664062 781.128906 1292.046875 789.496094 1291.226562 797.851562 C 1290.402344 806.203125 1289.375 814.53125 1288.144531 822.832031 C 1286.910156 831.132812 1285.476562 839.398438 1283.839844 847.632812 C 1282.203125 855.863281 1280.363281 864.050781 1278.324219 872.191406 C 1276.285156 880.332031 1274.046875 888.417969 1271.613281 896.449219 C 1269.175781 904.480469 1266.542969 912.449219 1263.714844 920.347656 C 1260.886719 928.25 1257.867188 936.078125 1254.65625 943.832031 C 1251.445312 951.585938 1248.042969 959.257812 1244.457031 966.84375 C 1240.867188 974.429688 1237.09375 981.925781 1233.136719 989.328125 C 1229.183594 996.730469 1225.046875 1004.03125 1220.730469 1011.226562 C 1216.417969 1018.425781 1211.925781 1025.515625 1207.265625 1032.492188 C 1202.601562 1039.472656 1197.769531 1046.332031 1192.769531 1053.074219 C 1187.769531 1059.8125 1182.609375 1066.429688 1177.285156 1072.917969 C 1171.960938 1079.402344 1166.480469 1085.757812 1160.84375 1091.976562 C 1155.207031 1098.195312 1149.421875 1104.269531 1143.484375 1110.203125 C 1137.550781 1116.140625 1131.472656 1121.925781 1125.253906 1127.5625 C 1119.035156 1133.195312 1112.683594 1138.675781 1106.195312 1144 C 1099.707031 1149.324219 1093.09375 1154.488281 1086.351562 1159.488281 C 1079.609375 1164.488281 1072.75 1169.316406 1065.773438 1173.980469 C 1058.792969 1178.644531 1051.703125 1183.132812 1044.503906 1187.445312 C 1037.304688 1191.761719 1030.003906 1195.898438 1022.605469 1199.855469 C 1015.203125 1203.808594 1007.707031 1207.582031 1000.121094 1211.171875 C 992.53125 1214.757812 984.863281 1218.160156 977.109375 1221.371094 C 969.355469 1224.582031 961.527344 1227.601562 953.621094 1230.429688 C 945.71875 1233.257812 937.753906 1235.890625 929.722656 1238.324219 C 921.691406 1240.761719 913.605469 1243 905.460938 1245.039062 C 897.320312 1247.078125 889.132812 1248.914062 880.902344 1250.554688 C 872.671875 1252.191406 864.402344 1253.625 856.101562 1254.855469 C 847.800781 1256.089844 839.472656 1257.113281 831.117188 1257.9375 C 822.765625 1258.761719 814.398438 1259.378906 806.015625 1259.789062 C 797.632812 1260.199219 789.246094 1260.40625 780.851562 1260.40625 C 772.457031 1260.40625 764.070312 1260.199219 755.6875 1259.789062 C 747.304688 1259.378906 738.9375 1258.761719 730.585938 1257.9375 C 722.230469 1257.113281 713.902344 1256.089844 705.601562 1254.855469 C 697.300781 1253.625 689.03125 1252.191406 680.800781 1250.554688 C 672.570312 1248.914062 664.382812 1247.078125 656.242188 1245.039062 C 648.097656 1243 640.011719 1240.761719 631.980469 1238.324219 C 623.949219 1235.890625 615.984375 1233.257812 608.082031 1230.429688 C 600.175781 1227.601562 592.347656 1224.582031 584.59375 1221.371094 C 576.839844 1218.160156 569.171875 1214.757812 561.582031 1211.171875 C 553.996094 1207.582031 546.5 1203.808594 539.097656 1199.855469 C 531.695312 1195.898438 524.398438 1191.761719 517.199219 1187.445312 C 510 1183.132812 502.910156 1178.644531 495.929688 1173.980469 C 488.953125 1169.316406 482.09375 1164.488281 475.351562 1159.488281 C 468.609375 1154.488281 461.996094 1149.324219 455.507812 1144 C 449.019531 1138.675781 442.667969 1133.195312 436.449219 1127.5625 C 430.230469 1121.925781 424.152344 1116.140625 418.21875 1110.203125 C 412.28125 1104.269531 406.496094 1098.195312 400.859375 1091.976562 C 395.222656 1085.757812 389.742188 1079.402344 384.417969 1072.914062 C 379.09375 1066.429688 373.933594 1059.8125 368.933594 1053.074219 C 363.933594 1046.332031 359.101562 1039.472656 354.4375 1032.492188 C 349.777344 1025.515625 345.285156 1018.425781 340.972656 1011.226562 C 336.65625 1004.03125 332.519531 996.730469 328.566406 989.328125 C 324.609375 981.925781 320.835938 974.429688 317.246094 966.84375 C 313.660156 959.257812 310.257812 951.585938 307.046875 943.832031 C 303.835938 936.078125 300.816406 928.25 297.988281 920.351562 C 295.160156 912.449219 292.527344 904.480469 290.09375 896.449219 C 287.65625 888.417969 285.417969 880.332031 283.378906 872.191406 C 281.339844 864.050781 279.5 855.863281 277.863281 847.632812 C 276.226562 839.398438 274.792969 831.132812 273.558594 822.832031 C 272.328125 814.53125 271.300781 806.203125 270.480469 797.851562 C 269.65625 789.5 269.039062 781.128906 268.625 772.75 C 268.214844 764.367188 268.007812 755.976562 268.007812 747.585938 C 268.007812 739.191406 268.214844 730.804688 268.625 722.421875 C 269.039062 714.039062 269.65625 705.671875 270.480469 697.320312 C 271.300781 688.96875 272.328125 680.640625 273.558594 672.339844 C 274.792969 664.035156 276.226562 655.769531 277.863281 647.539062 C 279.5 639.308594 281.339844 631.121094 283.378906 622.980469 C 285.417969 614.839844 287.65625 606.753906 290.09375 598.722656 C 292.527344 590.691406 295.160156 582.722656 297.988281 574.820312 C 300.816406 566.917969 303.835938 559.089844 307.046875 551.335938 C 310.257812 543.582031 313.660156 535.914062 317.246094 528.324219 C 320.835938 520.738281 324.609375 513.246094 328.566406 505.84375 C 332.519531 498.441406 336.65625 491.140625 340.972656 483.941406 C 345.285156 476.742188 349.777344 469.65625 354.4375 462.675781 C 359.101562 455.699219 363.933594 448.839844 368.933594 442.097656 C 373.933594 435.355469 379.09375 428.742188 384.417969 422.253906 C 389.742188 415.765625 395.222656 409.414062 400.859375 403.195312 C 406.496094 396.976562 412.28125 390.898438 418.21875 384.964844 C 424.152344 379.03125 430.230469 373.246094 436.449219 367.609375 C 442.667969 361.972656 449.019531 356.492188 455.507812 351.167969 C 461.996094 345.84375 468.609375 340.683594 475.351562 335.683594 C 482.09375 330.683594 488.953125 325.851562 495.929688 321.1875 C 502.910156 316.527344 510 312.039062 517.199219 307.722656 C 524.398438 303.410156 531.695312 299.273438 539.097656 295.316406 C 546.5 291.359375 553.996094 287.585938 561.582031 284 C 569.171875 280.410156 576.839844 277.011719 584.59375 273.800781 C 592.347656 270.585938 600.175781 267.566406 608.082031 264.742188 C 615.984375 261.914062 623.949219 259.28125 631.980469 256.84375 C 640.011719 254.410156 648.097656 252.171875 656.242188 250.132812 C 664.382812 248.09375 672.570312 246.253906 680.800781 244.617188 C 689.03125 242.980469 697.300781 241.546875 705.601562 240.3125 C 713.902344 239.082031 722.230469 238.054688 730.585938 237.234375 C 738.9375 236.410156 747.304688 235.792969 755.6875 235.378906 C 764.070312 234.96875 772.457031 234.761719 780.851562 234.761719 C 789.246094 234.761719 797.632812 234.96875 806.015625 235.382812 C 814.398438 235.792969 822.765625 236.410156 831.117188 237.234375 C 839.472656 238.054688 847.800781 239.082031 856.101562 240.3125 C 864.402344 241.546875 872.671875 242.980469 880.902344 244.617188 C 889.132812 246.253906 897.320312 248.09375 905.460938 250.132812 C 913.605469 252.171875 921.691406 254.410156 929.722656 256.84375 C 937.753906 259.28125 945.722656 261.914062 953.625 264.742188 C 961.527344 267.566406 969.355469 270.585938 977.109375 273.800781 C 984.863281 277.011719 992.53125 280.410156 1000.121094 284 C 1007.707031 287.585938 1015.203125 291.359375 1022.605469 295.316406 C 1030.007812 299.273438 1037.304688 303.410156 1044.503906 307.722656 C 1051.703125 312.039062 1058.792969 316.527344 1065.773438 321.1875 C 1072.75 325.851562 1079.609375 330.683594 1086.351562 335.683594 C 1093.09375 340.683594 1099.707031 345.84375 1106.195312 351.167969 C 1112.683594 356.492188 1119.035156 361.972656 1125.253906 367.609375 C 1131.472656 373.246094 1137.550781 379.03125 1143.484375 384.964844 C 1149.421875 390.898438 1155.207031 396.976562 1160.84375 403.195312 C 1166.480469 409.414062 1171.960938 415.765625 1177.285156 422.253906 C 1182.609375 428.742188 1187.769531 435.355469 1192.769531 442.097656 C 1197.769531 448.839844 1202.601562 455.699219 1207.265625 462.675781 C 1211.929688 469.65625 1216.417969 476.742188 1220.730469 483.941406 C 1225.046875 491.140625 1229.183594 498.441406 1233.136719 505.84375 C 1237.09375 513.246094 1240.867188 520.738281 1244.457031 528.324219 C 1248.042969 535.914062 1251.445312 543.582031 1254.65625 551.335938 C 1257.867188 559.089844 1260.886719 566.917969 1263.714844 574.820312 C 1266.542969 582.722656 1269.175781 590.691406 1271.613281 598.722656 C 1274.046875 606.753906 1276.285156 614.839844 1278.324219 622.980469 C 1280.363281 631.121094 1282.203125 639.308594 1283.839844 647.539062 C 1285.476562 655.769531 1286.910156 664.035156 1288.144531 672.339844 C 1289.375 680.640625 1290.402344 688.96875 1291.226562 697.320312 C 1292.046875 705.671875 1292.664062 714.039062 1293.078125 722.421875 C 1293.488281 730.804688 1293.695312 739.191406 1293.695312 747.585938 Z M 1293.695312 747.585938 " fill-opacity="1" fill-rule="nonzero"/><path fill="#ffed6e" d="M 1064.671875 724.371094 C 1047.414062 724.371094 1031.164062 713.816406 1024.738281 696.703125 L 965.199219 538.175781 C 924.898438 430.851562 979.421875 310.746094 1086.753906 270.4375 C 1138.742188 250.910156 1195.226562 252.804688 1245.796875 275.761719 C 1296.371094 298.71875 1334.972656 339.996094 1354.496094 391.984375 C 1354.589844 392.230469 1354.679688 392.46875 1354.761719 392.714844 L 1372.738281 443.367188 C 1380.617188 465.566406 1369.011719 489.945312 1346.808594 497.820312 C 1324.601562 505.71875 1300.234375 494.09375 1292.351562 471.894531 L 1274.511719 421.636719 C 1262.957031 391.132812 1240.25 366.917969 1210.539062 353.429688 C 1180.707031 339.898438 1147.40625 338.773438 1116.742188 350.289062 C 1053.441406 374.0625 1021.289062 444.890625 1045.054688 508.1875 L 1104.59375 666.71875 C 1112.878906 688.765625 1101.714844 713.355469 1079.660156 721.636719 C 1074.722656 723.488281 1069.65625 724.371094 1064.671875 724.371094 Z M 1064.671875 724.371094 " fill-opacity="1" fill-rule="nonzero"/><path fill="#47218a" d="M 1064.671875 731.695312 C 1043.964844 731.695312 1025.160156 718.667969 1017.878906 699.28125 L 958.339844 540.753906 C 916.617188 429.644531 973.066406 305.304688 1084.175781 263.578125 C 1137.996094 243.363281 1196.46875 245.320312 1248.828125 269.09375 C 1301.175781 292.851562 1341.140625 335.582031 1361.355469 389.410156 C 1361.460938 389.683594 1361.574219 389.988281 1361.679688 390.300781 L 1379.644531 440.917969 C 1388.863281 466.886719 1375.230469 495.515625 1349.261719 504.730469 C 1336.679688 509.203125 1323.113281 508.503906 1311.058594 502.761719 C 1299.011719 497.023438 1289.914062 486.933594 1285.445312 474.347656 L 1267.632812 424.164062 C 1256.761719 395.519531 1235.414062 372.769531 1207.511719 360.101562 C 1179.457031 347.378906 1148.132812 346.332031 1119.316406 357.152344 C 1059.804688 379.5 1029.570312 446.101562 1051.914062 505.613281 L 1111.457031 664.140625 C 1116.148438 676.636719 1115.695312 690.214844 1110.179688 702.367188 C 1104.660156 714.523438 1094.738281 723.800781 1082.238281 728.496094 C 1076.574219 730.621094 1070.667969 731.695312 1064.671875 731.695312 Z M 1159.9375 264.386719 C 1136.132812 264.386719 1112.28125 268.679688 1089.328125 277.296875 C 985.785156 316.183594 933.179688 432.058594 972.058594 535.601562 L 1031.601562 694.128906 C 1036.746094 707.835938 1050.035156 717.042969 1064.671875 717.042969 C 1068.902344 717.042969 1073.078125 716.28125 1077.089844 714.777344 C 1085.917969 711.457031 1092.933594 704.902344 1096.832031 696.308594 C 1100.734375 687.71875 1101.054688 678.125 1097.734375 669.292969 L 1038.195312 510.765625 C 1013.007812 443.6875 1047.089844 368.621094 1114.164062 343.429688 C 1146.644531 331.234375 1181.949219 332.414062 1213.566406 346.757812 C 1245.046875 361.046875 1269.121094 386.71875 1281.363281 419.039062 C 1281.382812 419.089844 1281.398438 419.136719 1281.417969 419.183594 L 1299.257812 469.445312 C 1302.417969 478.339844 1308.847656 485.472656 1317.359375 489.53125 C 1325.878906 493.585938 1335.464844 494.082031 1344.355469 490.917969 C 1362.714844 484.402344 1372.347656 464.171875 1365.832031 445.816406 L 1347.855469 395.164062 C 1347.847656 395.136719 1347.835938 395.109375 1347.828125 395.078125 C 1347.773438 394.921875 1347.714844 394.765625 1347.65625 394.609375 C 1328.796875 344.398438 1291.554688 304.578125 1242.769531 282.4375 C 1216.304688 270.421875 1188.15625 264.386719 1159.9375 264.386719 Z M 1159.9375 264.386719 " fill-opacity="1" fill-rule="nonzero"/><path fill="#ffffff" d="M 1353.121094 1109.578125 L 981.015625 1109.578125 C 945.5 1109.578125 916.441406 1080.523438 916.441406 1045.007812 L 916.441406 672.917969 C 916.441406 637.402344 945.5 608.347656 981.015625 608.347656 L 1353.121094 608.347656 C 1388.636719 608.347656 1417.695312 637.402344 1417.695312 672.917969 L 1417.695312 1045.007812 C 1417.695312 1080.523438 1388.636719 1109.578125 1353.121094 1109.578125 Z M 1353.121094 1109.578125 " fill-opacity="1" fill-rule="nonzero"/><g clip-path="url(#3aa3e0ae82)"><path fill="#47218a" d="M 1353.121094 1116.90625 L 981.015625 1116.90625 C 941.371094 1116.90625 909.117188 1084.652344 909.117188 1045.007812 L 909.117188 672.917969 C 909.117188 633.273438 941.371094 601.019531 981.015625 601.019531 L 1353.121094 601.019531 C 1392.769531 601.019531 1425.023438 633.273438 1425.023438 672.917969 L 1425.023438 1045.007812 C 1425.023438 1084.652344 1392.769531 1116.90625 1353.121094 1116.90625 Z M 981.015625 615.675781 C 949.449219 615.675781 923.769531 641.355469 923.769531 672.917969 L 923.769531 1045.007812 C 923.769531 1076.574219 949.449219 1102.25 981.015625 1102.25 L 1353.121094 1102.25 C 1384.6875 1102.25 1410.367188 1076.574219 1410.367188 1045.007812 L 1410.367188 672.917969 C 1410.367188 641.351562 1384.6875 615.675781 1353.121094 615.675781 Z M 981.015625 615.675781 " fill-opacity="1" fill-rule="nonzero"/></g><path fill="#47218a" d="M 1094.085938 970.789062 C 1092.210938 970.789062 1090.335938 970.074219 1088.90625 968.640625 L 987.390625 867.128906 C 984.527344 864.265625 984.527344 859.628906 987.390625 856.765625 L 1091.085938 753.074219 C 1093.945312 750.210938 1098.589844 750.210938 1101.449219 753.074219 C 1104.3125 755.933594 1104.3125 760.574219 1101.449219 763.4375 L 1002.933594 861.949219 L 1099.269531 958.277344 C 1102.132812 961.140625 1102.132812 965.78125 1099.269531 968.640625 C 1097.839844 970.074219 1095.960938 970.789062 1094.085938 970.789062 Z M 1094.085938 970.789062 " fill-opacity="1" fill-rule="nonzero"/><path fill="#47218a" d="M 1119.746094 1018.953125 C 1118.984375 1018.953125 1118.210938 1018.832031 1117.449219 1018.582031 C 1113.605469 1017.316406 1111.515625 1013.171875 1112.785156 1009.328125 L 1213.464844 704.007812 C 1214.730469 700.164062 1218.875 698.078125 1222.71875 699.34375 C 1226.5625 700.609375 1228.652344 704.753906 1227.382812 708.597656 L 1126.703125 1013.917969 C 1125.6875 1017 1122.820312 1018.953125 1119.746094 1018.953125 Z M 1119.746094 1018.953125 " fill-opacity="1" fill-rule="nonzero"/><path fill="#47218a" d="M 1237.871094 970.789062 C 1235.996094 970.789062 1234.121094 970.074219 1232.691406 968.640625 C 1229.828125 965.78125 1229.828125 961.140625 1232.691406 958.277344 L 1331.203125 859.769531 L 1234.867188 763.4375 C 1232.007812 760.574219 1232.007812 755.933594 1234.867188 753.074219 C 1237.730469 750.210938 1242.371094 750.210938 1245.230469 753.074219 L 1346.75 854.585938 C 1349.609375 857.449219 1349.609375 862.085938 1346.75 864.949219 L 1243.050781 968.640625 C 1241.621094 970.074219 1239.746094 970.789062 1237.871094 970.789062 Z M 1237.871094 970.789062 " fill-opacity="1" fill-rule="nonzero"/><path fill="#d3a1ff" d="M 572.972656 362.445312 L 673.605469 415.332031 C 693.296875 425.929688 708.464844 443.296875 716.316406 464.234375 L 772.324219 614.175781 C 783.210938 643.21875 774.234375 675.957031 750.09375 695.402344 L 735.734375 706.976562 C 731.316406 710.535156 725.8125 712.476562 720.136719 712.476562 L 247.488281 712.476562 C 241.8125 712.476562 236.308594 710.535156 231.890625 706.976562 L 217.527344 695.402344 C 193.390625 675.957031 184.457031 643.21875 195.300781 614.175781 L 251.308594 464.234375 C 259.160156 443.292969 274.324219 425.929688 294.019531 415.332031 L 394.648438 362.445312 Z M 572.972656 362.445312 " fill-opacity="1" fill-rule="nonzero"/><path fill="#47218a" d="M 720.136719 719.804688 L 247.488281 719.804688 C 240.164062 719.804688 232.992188 717.273438 227.292969 712.679688 L 212.929688 701.105469 C 186.300781 679.65625 176.457031 643.691406 188.433594 611.613281 L 244.441406 461.671875 C 252.921875 439.058594 269.296875 420.316406 290.546875 408.882812 C 290.570312 408.871094 290.589844 408.859375 290.609375 408.851562 L 391.242188 355.960938 C 394.824219 354.078125 399.253906 355.457031 401.136719 359.039062 C 403.019531 362.621094 401.640625 367.050781 398.058594 368.933594 L 297.464844 421.804688 C 279.351562 431.554688 265.394531 447.539062 258.167969 466.808594 L 202.164062 616.742188 C 192.398438 642.894531 200.421875 672.214844 222.125 689.695312 L 236.488281 701.269531 C 239.59375 703.773438 243.5 705.152344 247.488281 705.152344 L 289.863281 705.148438 L 678.347656 705.148438 L 720.136719 705.152344 C 724.125 705.152344 728.03125 703.773438 731.136719 701.269531 L 745.496094 689.695312 C 767.230469 672.191406 775.253906 642.875 765.460938 616.75 L 709.453125 466.800781 C 702.226562 447.539062 688.273438 431.554688 670.15625 421.804688 L 569.566406 368.933594 C 565.984375 367.050781 564.605469 362.621094 566.488281 359.039062 C 568.371094 355.457031 572.800781 354.078125 576.382812 355.960938 L 677.015625 408.851562 C 677.035156 408.859375 677.054688 408.871094 677.078125 408.882812 C 698.328125 420.316406 714.703125 439.058594 723.179688 461.664062 L 779.1875 611.613281 C 791.203125 643.660156 781.359375 679.628906 754.695312 701.109375 L 740.332031 712.683594 C 734.628906 717.273438 727.457031 719.804688 720.136719 719.804688 Z M 720.136719 719.804688 " fill-opacity="1" fill-rule="nonzero"/><path fill="#ffffff" d="M 606.128906 210.160156 C 632.347656 214.066406 632.96875 248.132812 625.488281 267.410156 C 619.921875 281.949219 609.492188 291.257812 593.582031 291.257812 C 593.414062 291.257812 593.082031 299.027344 593.082031 299.027344 C 593.082031 330.226562 579.996094 358.355469 559.011719 378.296875 C 557.558594 379.710938 556.0625 381.039062 554.484375 382.367188 C 535.414062 398.613281 510.691406 408.375 483.726562 408.375 C 456.722656 408.375 432 398.613281 412.929688 382.367188 C 411.390625 381.039062 409.855469 379.707031 408.398438 378.296875 C 387.460938 358.355469 374.371094 330.226562 374.371094 299.027344 C 374.371094 299.027344 374 291.257812 373.832031 291.257812 C 357.960938 291.257812 347.53125 281.949219 341.921875 267.410156 C 334.484375 248.132812 331.660156 221.375 357.917969 217.46875 L 356.648438 158.105469 C 356.648438 158.105469 380.53125 83.050781 481.421875 83.050781 C 582.316406 83.050781 606.128906 210.160156 606.128906 210.160156 Z M 606.128906 210.160156 " fill-opacity="1" fill-rule="nonzero"/><path fill="#47218a" d="M 483.726562 415.703125 C 456.019531 415.703125 429.191406 405.847656 408.175781 387.945312 C 408.164062 387.933594 408.136719 387.914062 408.125 387.902344 C 406.546875 386.539062 404.914062 385.125 403.320312 383.578125 C 379.96875 361.328125 367.09375 331.371094 367.042969 299.207031 C 367.027344 298.832031 367.007812 298.449219 366.984375 298.0625 C 352.433594 295.773438 341.25 286.027344 335.085938 270.046875 C 330.964844 259.367188 325.332031 239.25 333.914062 224.519531 C 336.523438 220.039062 341.429688 214.570312 350.464844 211.683594 L 349.320312 158.265625 C 349.300781 157.457031 349.417969 156.652344 349.660156 155.886719 C 349.925781 155.050781 356.394531 135.214844 375.992188 115.421875 C 393.925781 97.3125 426.777344 75.722656 481.421875 75.722656 C 525.425781 75.722656 562.257812 98.953125 587.9375 142.910156 C 602.871094 168.46875 609.867188 193.753906 612.296875 204.042969 C 620.207031 206.425781 626.550781 211.460938 630.824219 218.816406 C 639.632812 233.972656 637.773438 256.003906 632.320312 270.058594 C 626.210938 286.015625 615.035156 295.765625 600.460938 298.058594 C 600.441406 298.441406 600.425781 298.820312 600.410156 299.1875 C 600.367188 331.378906 587.472656 361.34375 564.089844 383.582031 C 562.628906 384.996094 561.03125 386.433594 559.203125 387.976562 C 538.222656 405.847656 511.40625 415.703125 483.726562 415.703125 Z M 364 159.304688 L 365.246094 217.3125 C 365.324219 221 362.648438 224.175781 358.996094 224.71875 C 352.929688 225.621094 348.867188 227.96875 346.578125 231.898438 C 342.621094 238.6875 343.4375 250.976562 348.757812 264.773438 C 353.660156 277.484375 362.097656 283.929688 373.832031 283.929688 C 376.96875 283.929688 380.601562 286.046875 381.175781 290.695312 C 381.210938 290.984375 381.25 291.394531 381.289062 291.886719 C 381.351562 292.65625 381.417969 293.683594 381.476562 294.710938 C 381.59375 296.691406 381.691406 298.675781 381.691406 298.675781 C 381.695312 298.792969 381.699219 298.910156 381.699219 299.027344 C 381.699219 327.222656 392.976562 353.488281 413.453125 372.992188 C 413.46875 373.007812 413.488281 373.023438 413.503906 373.042969 C 414.804688 374.304688 416.214844 375.523438 417.710938 376.816406 C 436.042969 392.433594 459.5 401.050781 483.726562 401.050781 C 507.925781 401.050781 531.367188 392.433594 549.730469 376.789062 C 551.355469 375.421875 552.671875 374.238281 553.90625 373.042969 C 553.925781 373.023438 553.945312 373.003906 553.960938 372.984375 C 574.460938 353.5 585.753906 327.234375 585.753906 299.027344 C 585.753906 298.921875 585.753906 298.816406 585.757812 298.710938 C 585.757812 298.710938 585.84375 296.730469 585.949219 294.75 C 586.003906 293.722656 586.066406 292.695312 586.125 291.921875 C 586.160156 291.429688 586.199219 291.019531 586.230469 290.734375 C 586.78125 286.058594 590.425781 283.929688 593.578125 283.929688 C 605.347656 283.929688 613.78125 277.488281 618.644531 264.789062 C 622.910156 253.796875 624.179688 236.546875 618.152344 226.179688 C 615.230469 221.15625 610.945312 218.285156 605.046875 217.40625 C 601.960938 216.945312 599.503906 214.582031 598.925781 211.511719 C 598.867188 211.203125 592.890625 180.292969 575.085938 149.964844 C 551.871094 110.425781 520.355469 90.378906 481.421875 90.378906 C 441.910156 90.378906 410.117188 102.101562 386.914062 125.222656 C 371.96875 140.117188 365.539062 155.253906 364 159.304688 Z M 364 159.304688 " fill-opacity="1" fill-rule="nonzero"/><path fill="#ffffff" d="M 678.351562 712.476562 L 289.867188 712.476562 L 289.867188 489.9375 C 289.867188 476.210938 300.992188 465.085938 314.71875 465.085938 L 653.496094 465.085938 C 667.222656 465.085938 678.347656 476.210938 678.347656 489.9375 L 678.347656 712.476562 Z M 678.351562 712.476562 " fill-opacity="1" fill-rule="nonzero"/><path fill="#47218a" d="M 678.347656 719.800781 L 289.863281 719.800781 C 285.816406 719.800781 282.539062 716.523438 282.539062 712.476562 L 282.539062 489.9375 C 282.539062 472.191406 296.972656 457.757812 314.71875 457.757812 L 653.496094 457.757812 C 671.242188 457.757812 685.675781 472.191406 685.675781 489.9375 L 685.675781 712.476562 C 685.679688 716.523438 682.394531 719.800781 678.347656 719.800781 Z M 297.191406 705.148438 L 671.019531 705.148438 L 671.019531 489.9375 C 671.019531 480.273438 663.160156 472.410156 653.496094 472.410156 L 314.71875 472.410156 C 305.054688 472.410156 297.191406 480.273438 297.191406 489.9375 Z M 297.191406 705.148438 " fill-opacity="1" fill-rule="nonzero"/><path fill="#47218a" d="M 561.140625 277.738281 L 520.175781 277.738281 C 511.011719 277.738281 502.863281 271.910156 499.90625 263.238281 C 499.886719 263.183594 499.871094 263.128906 499.851562 263.074219 L 490.933594 234.769531 L 476.691406 234.769531 L 469.105469 262.058594 C 466.539062 271.292969 458.054688 277.738281 448.472656 277.738281 L 407.503906 277.738281 C 398.339844 277.738281 390.191406 271.910156 387.234375 263.238281 C 387.214844 263.183594 387.199219 263.128906 387.179688 263.074219 L 376.648438 229.644531 C 375.945312 227.417969 376.347656 224.992188 377.726562 223.109375 C 379.105469 221.226562 381.300781 220.117188 383.636719 220.117188 L 470.953125 220.117188 C 471.0625 220.113281 471.171875 220.113281 471.285156 220.117188 L 496.140625 220.117188 C 496.253906 220.113281 496.367188 220.113281 496.476562 220.117188 L 583.792969 220.117188 C 586.082031 220.117188 588.242188 221.1875 589.628906 223.011719 C 591.015625 224.832031 591.46875 227.199219 590.855469 229.40625 L 581.777344 262.058594 C 579.207031 271.289062 570.722656 277.738281 561.140625 277.738281 Z M 513.800781 258.574219 C 514.75 261.273438 517.304688 263.082031 520.175781 263.082031 L 561.140625 263.082031 C 564.167969 263.082031 566.84375 261.046875 567.65625 258.132812 L 574.148438 234.769531 L 506.296875 234.769531 Z M 401.128906 258.570312 C 402.082031 261.273438 404.632812 263.082031 407.503906 263.082031 L 448.472656 263.082031 C 451.496094 263.082031 454.175781 261.046875 454.984375 258.132812 L 461.480469 234.769531 L 393.628906 234.769531 Z M 401.128906 258.570312 " fill-opacity="1" fill-rule="nonzero"/><path fill="#47218a" d="M 289.855469 624.226562 C 288.558594 624.226562 287.25 623.886719 286.0625 623.164062 L 250.496094 601.601562 C 247.035156 599.503906 245.929688 595 248.027344 591.539062 C 250.125 588.078125 254.632812 586.972656 258.09375 589.070312 L 293.660156 610.632812 C 297.121094 612.730469 298.226562 617.238281 296.128906 620.699219 C 294.75 622.972656 292.332031 624.226562 289.855469 624.226562 Z M 289.855469 624.226562 " fill-opacity="1" fill-rule="nonzero"/><path fill="#47218a" d="M 678.34375 624.226562 C 675.867188 624.226562 673.449219 622.972656 672.074219 620.699219 C 669.972656 617.238281 671.078125 612.730469 674.539062 610.632812 L 710.105469 589.070312 C 713.566406 586.972656 718.074219 588.074219 720.171875 591.539062 C 722.269531 594.996094 721.164062 599.503906 717.703125 601.601562 L 682.136719 623.164062 C 680.949219 623.886719 679.640625 624.226562 678.34375 624.226562 Z M 678.34375 624.226562 " fill-opacity="1" fill-rule="nonzero"/><path fill="#ffed6e" d="M 419.386719 131.976562 C 419.386719 131.976562 520.945312 221.835938 638.164062 209.109375 C 638.164062 209.109375 626.460938 170.707031 596.058594 139.820312 L 638.164062 149.644531 C 638.164062 149.644531 635.085938 109.371094 607.050781 82.71875 C 584.855469 61.617188 545.976562 58.496094 545.976562 58.496094 L 587.917969 36.207031 C 587.917969 36.207031 525.46875 7.164062 465.355469 39.195312 L 472.066406 8.324219 C 472.066406 8.324219 394.167969 4.9375 360.808594 75.5625 C 327.453125 146.1875 348.742188 196.105469 357.898438 217.464844 Z M 419.386719 131.976562 " fill-opacity="1" fill-rule="nonzero"/><path fill="#47218a" d="M 357.898438 224.792969 C 357.632812 224.792969 357.367188 224.777344 357.097656 224.75 C 354.472656 224.460938 352.203125 222.78125 351.160156 220.351562 C 346.4375 209.328125 338.527344 190.882812 336.117188 165.6875 C 333.207031 135.34375 339.285156 103.96875 354.183594 72.433594 C 368.691406 41.710938 393.734375 19.609375 426.601562 8.515625 C 451.257812 0.195312 471.535156 0.96875 472.382812 1.003906 C 474.539062 1.097656 476.550781 2.140625 477.867188 3.851562 C 479.1875 5.5625 479.683594 7.769531 479.226562 9.878906 L 475.632812 26.40625 C 498.363281 17.480469 523.839844 14.722656 550.199219 18.433594 C 574.132812 21.800781 590.328125 29.246094 591.007812 29.558594 C 593.527344 30.734375 595.167969 33.230469 595.242188 36.007812 C 595.316406 38.789062 593.8125 41.371094 591.359375 42.675781 L 568.054688 55.058594 C 581.765625 58.601562 599.285156 65.226562 612.097656 77.40625 C 641.835938 105.679688 645.335938 147.324219 645.472656 149.085938 C 645.648438 151.414062 644.707031 153.6875 642.9375 155.207031 C 641.164062 156.726562 638.777344 157.3125 636.5 156.78125 L 616.179688 152.039062 C 636.515625 179.105469 644.765625 205.625 645.175781 206.972656 C 645.8125 209.058594 645.484375 211.324219 644.28125 213.144531 C 643.078125 214.964844 641.125 216.15625 638.957031 216.394531 C 611.34375 219.390625 582.328125 217.078125 552.71875 209.527344 C 529.164062 203.515625 505.179688 194.195312 481.429688 181.8125 C 452.164062 166.554688 430.730469 150.609375 420.75 142.632812 L 363.847656 221.746094 C 362.460938 223.671875 360.238281 224.792969 357.898438 224.792969 Z M 424.242188 126.488281 C 424.625 126.824219 449.773438 148.835938 488.550781 168.996094 C 522.195312 186.488281 572.960938 205.964844 627.960938 202.621094 C 622.800781 189.941406 611.105469 165.550781 590.835938 144.960938 C 588.546875 142.636719 588.070312 139.082031 589.667969 136.238281 C 591.261719 133.390625 594.546875 131.945312 597.722656 132.6875 L 629.199219 140.027344 C 626.433594 127.109375 619.355469 104.527344 602 88.027344 C 582 69.011719 545.75 65.828125 545.382812 65.800781 C 542.144531 65.535156 539.460938 63.160156 538.804688 59.976562 C 538.148438 56.789062 539.667969 53.550781 542.539062 52.023438 L 569.769531 37.554688 C 563.773438 35.828125 556.25 34.058594 547.6875 32.878906 C 518.742188 28.894531 492.199219 33.195312 468.800781 45.664062 C 466.28125 47.003906 463.210938 46.761719 460.933594 45.039062 C 458.660156 43.316406 457.589844 40.429688 458.195312 37.640625 L 462.910156 15.953125 C 455.347656 16.539062 443.667969 18.167969 430.796875 22.570312 C 401.628906 32.550781 380.3125 51.433594 367.4375 78.691406 C 340.660156 135.378906 350.605469 178.054688 359.691406 202.425781 L 413.4375 127.699219 C 414.648438 126.015625 416.515625 124.925781 418.574219 124.695312 C 420.632812 124.464844 422.691406 125.117188 424.242188 126.488281 Z M 424.242188 126.488281 " fill-opacity="1" fill-rule="nonzero"/><path fill="#47218a" d="M 410.007812 1376 L 302.207031 1376 C 289.769531 1376 279.652344 1365.882812 279.652344 1353.445312 L 279.652344 1295.59375 C 279.652344 1291.546875 282.933594 1288.265625 286.980469 1288.265625 C 291.027344 1288.265625 294.304688 1291.546875 294.304688 1295.59375 L 294.304688 1353.445312 C 294.304688 1357.800781 297.851562 1361.34375 302.207031 1361.34375 L 410.007812 1361.34375 C 414.058594 1361.34375 417.335938 1364.625 417.335938 1368.671875 C 417.335938 1372.71875 414.058594 1376 410.007812 1376 Z M 410.007812 1376 " fill-opacity="1" fill-rule="nonzero"/><path fill="#47218a" d="M 190.742188 1194.726562 L 155.046875 1194.726562 C 142.609375 1194.726562 132.492188 1184.609375 132.492188 1172.175781 L 132.492188 976.242188 C 132.492188 972.195312 135.773438 968.914062 139.820312 968.914062 C 143.867188 968.914062 147.148438 972.195312 147.148438 976.242188 L 147.148438 1172.175781 C 147.148438 1176.53125 150.691406 1180.074219 155.046875 1180.074219 L 190.742188 1180.074219 C 194.789062 1180.074219 198.070312 1183.355469 198.070312 1187.398438 C 198.070312 1191.445312 194.789062 1194.726562 190.742188 1194.726562 Z M 190.742188 1194.726562 " fill-opacity="1" fill-rule="nonzero"/><path fill="#47218a" d="M 190.742188 1335.191406 C 186.695312 1335.191406 183.414062 1331.910156 183.414062 1327.863281 L 183.414062 1070.453125 C 183.414062 1058.015625 193.53125 1047.898438 205.96875 1047.898438 L 247.945312 1047.898438 C 251.992188 1047.898438 255.273438 1051.179688 255.273438 1055.226562 C 255.273438 1059.273438 251.992188 1062.554688 247.945312 1062.554688 L 205.96875 1062.554688 C 201.613281 1062.554688 198.070312 1066.097656 198.070312 1070.453125 L 198.070312 1327.863281 C 198.070312 1331.910156 194.789062 1335.191406 190.742188 1335.191406 Z M 190.742188 1335.191406 " fill-opacity="1" fill-rule="nonzero"/><path fill="#d3a1ff" d="M 452.433594 1371.101562 C 452.433594 1371.773438 452.402344 1372.445312 452.335938 1373.117188 C 452.269531 1373.785156 452.171875 1374.453125 452.039062 1375.113281 C 451.90625 1375.773438 451.746094 1376.425781 451.550781 1377.070312 C 451.351562 1377.710938 451.125 1378.34375 450.871094 1378.96875 C 450.613281 1379.589844 450.324219 1380.199219 450.007812 1380.792969 C 449.691406 1381.386719 449.34375 1381.960938 448.96875 1382.519531 C 448.59375 1383.082031 448.195312 1383.621094 447.769531 1384.140625 C 447.339844 1384.660156 446.890625 1385.160156 446.414062 1385.636719 C 445.9375 1386.113281 445.4375 1386.5625 444.917969 1386.992188 C 444.398438 1387.417969 443.859375 1387.820312 443.296875 1388.191406 C 442.738281 1388.566406 442.160156 1388.914062 441.566406 1389.230469 C 440.972656 1389.546875 440.367188 1389.835938 439.746094 1390.09375 C 439.121094 1390.351562 438.488281 1390.578125 437.84375 1390.773438 C 437.199219 1390.96875 436.546875 1391.128906 435.886719 1391.261719 C 435.226562 1391.394531 434.5625 1391.492188 433.894531 1391.558594 C 433.222656 1391.625 432.550781 1391.65625 431.878906 1391.65625 C 431.203125 1391.65625 430.53125 1391.625 429.863281 1391.558594 C 429.191406 1391.492188 428.527344 1391.394531 427.867188 1391.261719 C 427.207031 1391.128906 426.554688 1390.96875 425.910156 1390.773438 C 425.265625 1390.578125 424.632812 1390.351562 424.011719 1390.09375 C 423.390625 1389.835938 422.78125 1389.546875 422.1875 1389.230469 C 421.59375 1388.914062 421.015625 1388.566406 420.457031 1388.191406 C 419.898438 1387.820312 419.359375 1387.417969 418.835938 1386.992188 C 418.316406 1386.5625 417.820312 1386.113281 417.34375 1385.636719 C 416.867188 1385.160156 416.414062 1384.660156 415.988281 1384.140625 C 415.558594 1383.621094 415.160156 1383.082031 414.785156 1382.519531 C 414.410156 1381.960938 414.066406 1381.386719 413.75 1380.792969 C 413.429688 1380.199219 413.144531 1379.589844 412.886719 1378.96875 C 412.628906 1378.34375 412.402344 1377.710938 412.207031 1377.070312 C 412.011719 1376.425781 411.847656 1375.773438 411.714844 1375.113281 C 411.585938 1374.453125 411.488281 1373.785156 411.421875 1373.117188 C 411.355469 1372.445312 411.320312 1371.773438 411.320312 1371.101562 C 411.320312 1370.429688 411.355469 1369.757812 411.421875 1369.085938 C 411.488281 1368.417969 411.585938 1367.75 411.714844 1367.089844 C 411.847656 1366.429688 412.011719 1365.777344 412.207031 1365.132812 C 412.402344 1364.492188 412.628906 1363.855469 412.886719 1363.234375 C 413.144531 1362.613281 413.429688 1362.003906 413.75 1361.410156 C 414.066406 1360.816406 414.410156 1360.242188 414.785156 1359.679688 C 415.160156 1359.121094 415.5625 1358.582031 415.988281 1358.0625 C 416.414062 1357.542969 416.867188 1357.042969 417.34375 1356.566406 C 417.820312 1356.089844 418.316406 1355.640625 418.835938 1355.210938 C 419.359375 1354.785156 419.898438 1354.382812 420.457031 1354.011719 C 421.015625 1353.636719 421.59375 1353.289062 422.1875 1352.972656 C 422.78125 1352.65625 423.390625 1352.367188 424.011719 1352.109375 C 424.632812 1351.851562 425.265625 1351.625 425.910156 1351.429688 C 426.554688 1351.234375 427.207031 1351.074219 427.867188 1350.941406 C 428.527344 1350.808594 429.191406 1350.710938 429.863281 1350.644531 C 430.53125 1350.578125 431.203125 1350.546875 431.878906 1350.546875 C 432.550781 1350.546875 433.222656 1350.578125 433.894531 1350.644531 C 434.5625 1350.710938 435.226562 1350.808594 435.886719 1350.941406 C 436.546875 1351.074219 437.199219 1351.234375 437.84375 1351.429688 C 438.488281 1351.625 439.121094 1351.851562 439.746094 1352.109375 C 440.367188 1352.367188 440.972656 1352.65625 441.566406 1352.972656 C 442.160156 1353.289062 442.738281 1353.636719 443.296875 1354.011719 C 443.859375 1354.382812 444.398438 1354.785156 444.917969 1355.210938 C 445.4375 1355.640625 445.9375 1356.089844 446.414062 1356.566406 C 446.890625 1357.042969 447.339844 1357.542969 447.769531 1358.0625 C 448.195312 1358.582031 448.59375 1359.121094 448.96875 1359.679688 C 449.34375 1360.242188 449.691406 1360.816406 450.007812 1361.410156 C 450.324219 1362.003906 450.613281 1362.613281 450.871094 1363.234375 C 451.125 1363.855469 451.351562 1364.492188 451.550781 1365.132812 C 451.746094 1365.777344 451.90625 1366.429688 452.039062 1367.089844 C 452.171875 1367.75 452.269531 1368.417969 452.335938 1369.085938 C 452.402344 1369.757812 452.433594 1370.429688 452.433594 1371.101562 Z M 452.433594 1371.101562 " fill-opacity="1" fill-rule="nonzero"/><path fill="#47218a" d="M 431.878906 1398.984375 C 416.503906 1398.984375 403.996094 1386.476562 403.996094 1371.101562 C 403.996094 1355.726562 416.503906 1343.21875 431.878906 1343.21875 C 447.253906 1343.21875 459.761719 1355.726562 459.761719 1371.101562 C 459.761719 1386.476562 447.253906 1398.984375 431.878906 1398.984375 Z M 431.878906 1357.875 C 424.582031 1357.875 418.652344 1363.808594 418.652344 1371.101562 C 418.652344 1378.394531 424.585938 1384.328125 431.878906 1384.328125 C 439.171875 1384.328125 445.105469 1378.394531 445.105469 1371.101562 C 445.105469 1363.808594 439.171875 1357.875 431.878906 1357.875 Z M 431.878906 1357.875 " fill-opacity="1" fill-rule="nonzero"/><path fill="#d3a1ff" d="M 211.296875 1344.992188 C 211.296875 1345.667969 211.265625 1346.339844 211.199219 1347.007812 C 211.132812 1347.679688 211.035156 1348.34375 210.902344 1349.003906 C 210.773438 1349.664062 210.609375 1350.316406 210.414062 1350.960938 C 210.21875 1351.605469 209.992188 1352.238281 209.734375 1352.859375 C 209.476562 1353.480469 209.1875 1354.089844 208.871094 1354.683594 C 208.554688 1355.277344 208.207031 1355.855469 207.832031 1356.414062 C 207.460938 1356.972656 207.058594 1357.511719 206.632812 1358.035156 C 206.203125 1358.554688 205.753906 1359.050781 205.277344 1359.527344 C 204.800781 1360.003906 204.304688 1360.457031 203.78125 1360.882812 C 203.261719 1361.308594 202.722656 1361.710938 202.164062 1362.085938 C 201.601562 1362.457031 201.027344 1362.804688 200.433594 1363.121094 C 199.839844 1363.4375 199.230469 1363.726562 198.609375 1363.984375 C 197.984375 1364.242188 197.351562 1364.46875 196.707031 1364.664062 C 196.066406 1364.859375 195.414062 1365.023438 194.753906 1365.152344 C 194.089844 1365.285156 193.425781 1365.382812 192.757812 1365.449219 C 192.085938 1365.515625 191.414062 1365.550781 190.742188 1365.550781 C 190.070312 1365.550781 189.398438 1365.515625 188.726562 1365.449219 C 188.058594 1365.382812 187.390625 1365.285156 186.730469 1365.152344 C 186.070312 1365.023438 185.417969 1364.859375 184.773438 1364.664062 C 184.128906 1364.46875 183.496094 1364.242188 182.875 1363.984375 C 182.253906 1363.726562 181.644531 1363.4375 181.050781 1363.121094 C 180.457031 1362.804688 179.882812 1362.457031 179.320312 1362.085938 C 178.761719 1361.710938 178.222656 1361.308594 177.699219 1360.882812 C 177.179688 1360.457031 176.683594 1360.003906 176.207031 1359.527344 C 175.730469 1359.050781 175.277344 1358.554688 174.851562 1358.035156 C 174.425781 1357.511719 174.023438 1356.972656 173.648438 1356.414062 C 173.277344 1355.855469 172.929688 1355.277344 172.613281 1354.683594 C 172.296875 1354.089844 172.007812 1353.480469 171.75 1352.859375 C 171.492188 1352.238281 171.265625 1351.605469 171.070312 1350.960938 C 170.875 1350.316406 170.710938 1349.664062 170.582031 1349.003906 C 170.449219 1348.34375 170.351562 1347.679688 170.285156 1347.007812 C 170.21875 1346.339844 170.183594 1345.667969 170.183594 1344.992188 C 170.183594 1344.320312 170.21875 1343.648438 170.285156 1342.980469 C 170.351562 1342.308594 170.449219 1341.644531 170.582031 1340.984375 C 170.710938 1340.324219 170.875 1339.671875 171.070312 1339.027344 C 171.265625 1338.382812 171.492188 1337.75 171.75 1337.128906 C 172.007812 1336.503906 172.296875 1335.898438 172.613281 1335.304688 C 172.929688 1334.710938 173.277344 1334.132812 173.648438 1333.574219 C 174.023438 1333.015625 174.425781 1332.472656 174.851562 1331.953125 C 175.277344 1331.433594 175.730469 1330.933594 176.207031 1330.457031 C 176.683594 1329.984375 177.179688 1329.53125 177.699219 1329.105469 C 178.222656 1328.675781 178.761719 1328.277344 179.320312 1327.902344 C 179.882812 1327.527344 180.457031 1327.183594 181.050781 1326.867188 C 181.644531 1326.546875 182.253906 1326.261719 182.875 1326.003906 C 183.496094 1325.746094 184.128906 1325.519531 184.773438 1325.324219 C 185.417969 1325.128906 186.070312 1324.964844 186.730469 1324.832031 C 187.390625 1324.703125 188.058594 1324.601562 188.726562 1324.539062 C 189.398438 1324.472656 190.070312 1324.4375 190.742188 1324.4375 C 191.414062 1324.4375 192.085938 1324.472656 192.757812 1324.539062 C 193.425781 1324.601562 194.089844 1324.703125 194.753906 1324.832031 C 195.414062 1324.964844 196.066406 1325.128906 196.707031 1325.324219 C 197.351562 1325.519531 197.984375 1325.746094 198.609375 1326.003906 C 199.230469 1326.261719 199.839844 1326.546875 200.433594 1326.863281 C 201.027344 1327.183594 201.601562 1327.527344 202.164062 1327.902344 C 202.722656 1328.277344 203.261719 1328.675781 203.78125 1329.105469 C 204.304688 1329.53125 204.800781 1329.984375 205.277344 1330.457031 C 205.753906 1330.933594 206.203125 1331.433594 206.632812 1331.953125 C 207.058594 1332.472656 207.460938 1333.015625 207.832031 1333.574219 C 208.207031 1334.132812 208.554688 1334.710938 208.871094 1335.304688 C 209.1875 1335.898438 209.476562 1336.503906 209.734375 1337.128906 C 209.992188 1337.75 210.21875 1338.382812 210.414062 1339.027344 C 210.609375 1339.671875 210.773438 1340.324219 210.902344 1340.984375 C 211.035156 1341.644531 211.132812 1342.308594 211.199219 1342.980469 C 211.265625 1343.648438 211.296875 1344.320312 211.296875 1344.992188 Z M 211.296875 1344.992188 " fill-opacity="1" fill-rule="nonzero"/><path fill="#47218a" d="M 190.742188 1372.875 C 175.367188 1372.875 162.859375 1360.367188 162.859375 1344.992188 C 162.859375 1329.617188 175.367188 1317.113281 190.742188 1317.113281 C 206.117188 1317.113281 218.625 1329.617188 218.625 1344.992188 C 218.625 1360.367188 206.117188 1372.875 190.742188 1372.875 Z M 190.742188 1331.765625 C 183.449219 1331.765625 177.511719 1337.699219 177.511719 1344.992188 C 177.511719 1352.289062 183.449219 1358.222656 190.742188 1358.222656 C 198.035156 1358.222656 203.96875 1352.289062 203.96875 1344.992188 C 203.96875 1337.699219 198.035156 1331.765625 190.742188 1331.765625 Z M 190.742188 1331.765625 " fill-opacity="1" fill-rule="nonzero"/><path fill="#d3a1ff" d="M 160.375 959.113281 C 160.375 959.785156 160.34375 960.457031 160.277344 961.125 C 160.210938 961.796875 160.113281 962.460938 159.980469 963.121094 C 159.851562 963.78125 159.6875 964.433594 159.492188 965.078125 C 159.296875 965.722656 159.070312 966.355469 158.8125 966.976562 C 158.554688 967.597656 158.265625 968.207031 157.949219 968.800781 C 157.632812 969.394531 157.285156 969.972656 156.910156 970.53125 C 156.539062 971.089844 156.136719 971.632812 155.710938 972.152344 C 155.28125 972.671875 154.832031 973.171875 154.355469 973.644531 C 153.878906 974.121094 153.382812 974.574219 152.859375 975 C 152.339844 975.429688 151.800781 975.828125 151.238281 976.203125 C 150.679688 976.578125 150.105469 976.921875 149.511719 977.238281 C 148.917969 977.558594 148.308594 977.84375 147.6875 978.101562 C 147.0625 978.359375 146.429688 978.585938 145.785156 978.78125 C 145.144531 978.976562 144.492188 979.140625 143.832031 979.273438 C 143.167969 979.402344 142.503906 979.5 141.835938 979.566406 C 141.164062 979.632812 140.492188 979.667969 139.820312 979.667969 C 139.148438 979.667969 138.476562 979.632812 137.804688 979.566406 C 137.136719 979.5 136.46875 979.402344 135.808594 979.273438 C 135.148438 979.140625 134.496094 978.976562 133.851562 978.78125 C 133.207031 978.585938 132.574219 978.359375 131.953125 978.101562 C 131.332031 977.84375 130.722656 977.558594 130.128906 977.238281 C 129.535156 976.921875 128.960938 976.578125 128.398438 976.203125 C 127.839844 975.828125 127.300781 975.429688 126.777344 975 C 126.257812 974.574219 125.761719 974.121094 125.285156 973.644531 C 124.808594 973.171875 124.355469 972.671875 123.929688 972.152344 C 123.503906 971.632812 123.101562 971.089844 122.726562 970.53125 C 122.355469 969.972656 122.007812 969.394531 121.691406 968.800781 C 121.375 968.207031 121.085938 967.597656 120.828125 966.976562 C 120.570312 966.355469 120.34375 965.722656 120.148438 965.078125 C 119.953125 964.433594 119.789062 963.78125 119.660156 963.121094 C 119.527344 962.460938 119.429688 961.796875 119.363281 961.125 C 119.296875 960.457031 119.261719 959.785156 119.261719 959.113281 C 119.261719 958.4375 119.296875 957.765625 119.363281 957.097656 C 119.429688 956.425781 119.527344 955.761719 119.660156 955.101562 C 119.789062 954.441406 119.953125 953.789062 120.148438 953.144531 C 120.34375 952.5 120.570312 951.867188 120.828125 951.246094 C 121.085938 950.625 121.375 950.015625 121.691406 949.421875 C 122.007812 948.828125 122.355469 948.25 122.726562 947.691406 C 123.101562 947.132812 123.503906 946.589844 123.929688 946.070312 C 124.355469 945.550781 124.808594 945.050781 125.285156 944.578125 C 125.761719 944.101562 126.257812 943.648438 126.777344 943.222656 C 127.300781 942.792969 127.839844 942.394531 128.398438 942.019531 C 128.960938 941.644531 129.535156 941.300781 130.128906 940.984375 C 130.722656 940.664062 131.332031 940.378906 131.953125 940.121094 C 132.574219 939.863281 133.207031 939.636719 133.851562 939.441406 C 134.496094 939.246094 135.148438 939.082031 135.808594 938.949219 C 136.46875 938.820312 137.136719 938.722656 137.804688 938.65625 C 138.476562 938.589844 139.148438 938.554688 139.820312 938.554688 C 140.492188 938.554688 141.164062 938.589844 141.835938 938.65625 C 142.503906 938.722656 143.167969 938.820312 143.832031 938.949219 C 144.492188 939.082031 145.144531 939.246094 145.785156 939.441406 C 146.429688 939.636719 147.0625 939.863281 147.6875 940.121094 C 148.308594 940.378906 148.917969 940.664062 149.511719 940.984375 C 150.105469 941.300781 150.679688 941.644531 151.238281 942.019531 C 151.800781 942.394531 152.339844 942.792969 152.859375 943.222656 C 153.382812 943.648438 153.878906 944.101562 154.355469 944.578125 C 154.832031 945.050781 155.28125 945.550781 155.710938 946.070312 C 156.136719 946.589844 156.539062 947.132812 156.910156 947.691406 C 157.285156 948.25 157.632812 948.828125 157.949219 949.421875 C 158.265625 950.015625 158.554688 950.625 158.8125 951.246094 C 159.070312 951.867188 159.296875 952.5 159.492188 953.144531 C 159.6875 953.789062 159.851562 954.441406 159.980469 955.101562 C 160.113281 955.761719 160.210938 956.425781 160.277344 957.097656 C 160.34375 957.765625 160.375 958.4375 160.375 959.113281 Z M 160.375 959.113281 " fill-opacity="1" fill-rule="nonzero"/><path fill="#47218a" d="M 139.820312 986.996094 C 124.445312 986.996094 111.9375 974.488281 111.9375 959.113281 C 111.9375 943.738281 124.445312 931.230469 139.820312 931.230469 C 155.195312 931.230469 167.703125 943.738281 167.703125 959.113281 C 167.703125 974.488281 155.195312 986.996094 139.820312 986.996094 Z M 139.820312 945.882812 C 132.527344 945.882812 126.59375 951.816406 126.59375 959.113281 C 126.59375 966.40625 132.527344 972.339844 139.820312 972.339844 C 147.113281 972.339844 153.046875 966.40625 153.046875 959.113281 C 153.046875 951.820312 147.113281 945.882812 139.820312 945.882812 Z M 139.820312 945.882812 " fill-opacity="1" fill-rule="nonzero"/><path fill="#ffffff" d="M 763.0625 926.320312 L 763.0625 1250.582031 C 763.0625 1272.132812 745.574219 1289.617188 724.023438 1289.617188 L 286.96875 1289.617188 C 265.414062 1289.617188 247.929688 1272.132812 247.929688 1250.582031 L 247.929688 926.320312 Z M 763.0625 926.320312 " fill-opacity="1" fill-rule="nonzero"/><path fill="#47218a" d="M 724.023438 1296.945312 L 286.96875 1296.945312 C 261.402344 1296.945312 240.601562 1276.148438 240.601562 1250.582031 L 240.601562 926.320312 C 240.601562 922.269531 243.882812 918.992188 247.929688 918.992188 L 763.0625 918.992188 C 767.109375 918.992188 770.390625 922.273438 770.390625 926.320312 L 770.390625 1250.582031 C 770.390625 1276.148438 749.589844 1296.945312 724.023438 1296.945312 Z M 255.257812 933.644531 L 255.257812 1250.582031 C 255.257812 1268.066406 269.484375 1282.292969 286.96875 1282.292969 L 724.023438 1282.292969 C 741.507812 1282.292969 755.734375 1268.066406 755.734375 1250.582031 L 755.734375 933.644531 Z M 255.257812 933.644531 " fill-opacity="1" fill-rule="nonzero"/><path fill="#d3a1ff" d="M 763.0625 884.394531 L 763.0625 926.316406 L 247.929688 926.316406 L 247.929688 884.394531 C 247.929688 862.792969 265.414062 845.359375 286.964844 845.359375 L 724.023438 845.359375 C 745.574219 845.359375 763.0625 862.792969 763.0625 884.394531 Z M 763.0625 884.394531 " fill-opacity="1" fill-rule="nonzero"/><path fill="#47218a" d="M 763.0625 933.644531 L 247.929688 933.644531 C 243.882812 933.644531 240.601562 930.367188 240.601562 926.320312 L 240.601562 884.394531 C 240.601562 858.828125 261.402344 838.03125 286.964844 838.03125 L 724.023438 838.03125 C 749.589844 838.03125 770.390625 858.828125 770.390625 884.394531 L 770.390625 926.320312 C 770.390625 930.367188 767.109375 933.644531 763.0625 933.644531 Z M 255.257812 918.992188 L 755.734375 918.992188 L 755.734375 884.394531 C 755.734375 866.910156 741.511719 852.6875 724.023438 852.6875 L 286.96875 852.6875 C 269.484375 852.6875 255.257812 866.910156 255.257812 884.394531 Z M 255.257812 918.992188 " fill-opacity="1" fill-rule="nonzero"/><path fill="#ffed6e" d="M 434.242188 1098.195312 L 525.449219 1098.195312 C 525.449219 1148.226562 484.273438 1189.398438 434.242188 1189.398438 C 384.207031 1189.398438 343.035156 1148.226562 343.035156 1098.195312 C 343.035156 1048.160156 384.207031 1006.992188 434.242188 1006.992188 Z M 434.242188 1098.195312 " fill-opacity="1" fill-rule="nonzero"/><path fill="#47218a" d="M 434.242188 1196.722656 C 408.085938 1196.722656 383.386719 1186.429688 364.695312 1167.738281 C 346.003906 1149.046875 335.707031 1124.347656 335.707031 1098.195312 C 335.707031 1072.039062 346 1047.339844 364.695312 1028.648438 C 383.386719 1009.957031 408.085938 999.664062 434.242188 999.664062 C 438.289062 999.664062 441.570312 1002.945312 441.570312 1006.992188 L 441.570312 1090.867188 L 525.449219 1090.867188 C 529.496094 1090.867188 532.773438 1094.144531 532.773438 1098.191406 C 532.773438 1124.347656 522.480469 1149.046875 503.789062 1167.738281 C 485.097656 1186.429688 460.398438 1196.722656 434.242188 1196.722656 Z M 426.914062 1014.636719 C 384.082031 1018.363281 350.363281 1054.414062 350.363281 1098.195312 C 350.363281 1144.441406 387.992188 1182.070312 434.242188 1182.070312 C 478.019531 1182.070312 514.074219 1148.351562 517.800781 1105.523438 L 434.242188 1105.523438 C 430.195312 1105.523438 426.914062 1102.242188 426.914062 1098.195312 Z M 426.914062 1014.636719 " fill-opacity="1" fill-rule="nonzero"/><path fill="#ffed6e" d="M 471.488281 1062.320312 L 471.488281 998.417969 C 488.429688 998.417969 504.699219 1005.15625 516.679688 1017.132812 C 528.65625 1029.113281 535.394531 1045.378906 535.394531 1062.320312 Z M 471.488281 1062.320312 " fill-opacity="1" fill-rule="nonzero"/><path fill="#47218a" d="M 535.394531 1069.648438 L 471.488281 1069.648438 C 467.441406 1069.648438 464.160156 1066.367188 464.160156 1062.320312 L 464.160156 998.417969 C 464.160156 994.371094 467.441406 991.089844 471.488281 991.089844 C 490.242188 991.089844 508.601562 998.695312 521.859375 1011.953125 C 535.117188 1025.210938 542.722656 1043.570312 542.722656 1062.320312 C 542.722656 1066.367188 539.441406 1069.648438 535.394531 1069.648438 Z M 478.816406 1054.992188 L 527.582031 1054.992188 C 525.953125 1042.726562 520.289062 1031.109375 511.496094 1022.316406 C 502.703125 1013.523438 491.082031 1007.859375 478.816406 1006.230469 Z M 478.816406 1054.992188 " fill-opacity="1" fill-rule="nonzero"/><path fill="#d3a1ff" d="M 544.464844 1140.816406 L 589.699219 1140.816406 L 589.699219 1189.394531 L 544.464844 1189.394531 Z M 544.464844 1140.816406 " fill-opacity="1" fill-rule="nonzero"/><path fill="#47218a" d="M 589.699219 1196.722656 C 585.652344 1196.722656 582.371094 1193.441406 582.371094 1189.394531 L 582.371094 1148.144531 L 551.792969 1148.144531 L 551.792969 1189.394531 C 551.792969 1193.445312 548.515625 1196.722656 544.46875 1196.722656 C 540.421875 1196.722656 537.140625 1193.441406 537.140625 1189.394531 L 537.140625 1140.816406 C 537.140625 1136.769531 540.421875 1133.492188 544.46875 1133.492188 L 589.699219 1133.492188 C 593.746094 1133.492188 597.027344 1136.769531 597.027344 1140.816406 L 597.027344 1189.394531 C 597.027344 1193.441406 593.746094 1196.722656 589.699219 1196.722656 Z M 589.699219 1196.722656 " fill-opacity="1" fill-rule="nonzero"/><path fill="#d3a1ff" d="M 617.054688 1070.371094 L 662.246094 1070.371094 L 662.246094 1189.394531 L 617.054688 1189.394531 Z M 617.054688 1070.371094 " fill-opacity="1" fill-rule="nonzero"/><path fill="#47218a" d="M 662.246094 1196.722656 C 658.199219 1196.722656 654.917969 1193.441406 654.917969 1189.394531 L 654.917969 1077.699219 L 624.382812 1077.699219 L 624.382812 1189.394531 C 624.382812 1193.441406 621.101562 1196.722656 617.054688 1196.722656 C 613.007812 1196.722656 609.726562 1193.441406 609.726562 1189.394531 L 609.726562 1070.371094 C 609.726562 1066.324219 613.007812 1063.042969 617.054688 1063.042969 L 662.246094 1063.042969 C 666.292969 1063.042969 669.574219 1066.324219 669.574219 1070.371094 L 669.574219 1189.394531 C 669.574219 1193.441406 666.292969 1196.722656 662.246094 1196.722656 Z M 662.246094 1196.722656 " fill-opacity="1" fill-rule="nonzero"/><path fill="#47218a" d="M 662.246094 1196.722656 L 544.46875 1196.722656 C 540.417969 1196.722656 537.140625 1193.441406 537.140625 1189.394531 C 537.140625 1185.351562 540.421875 1182.070312 544.46875 1182.070312 L 662.246094 1182.070312 C 666.292969 1182.070312 669.574219 1185.351562 669.574219 1189.394531 C 669.574219 1193.441406 666.292969 1196.722656 662.246094 1196.722656 Z M 662.246094 1196.722656 " fill-opacity="1" fill-rule="nonzero"/><path fill="#47218a" d="M 320.597656 892.484375 L 286.980469 892.484375 C 282.933594 892.484375 279.652344 889.203125 279.652344 885.15625 C 279.652344 881.113281 282.933594 877.832031 286.980469 877.832031 L 320.597656 877.832031 C 324.648438 877.832031 327.925781 881.113281 327.925781 885.15625 C 327.925781 889.203125 324.644531 892.484375 320.597656 892.484375 Z M 320.597656 892.484375 " fill-opacity="1" fill-rule="nonzero"/></svg>