<svg xmlns="http://www.w3.org/2000/svg" xmlns:xlink="http://www.w3.org/1999/xlink" width="2000" zoomAndPan="magnify" viewBox="0 0 1500 1499.999933" height="2000" preserveAspectRatio="xMidYMid meet" version="1.0"><defs><clipPath id="e00daf820b"><path d="M 172 219 L 1454.4375 219 L 1454.4375 1130 L 172 1130 Z M 172 219 " clip-rule="nonzero"/></clipPath></defs><path fill="#000000" d="M 1360.222656 263.078125 L 197.335938 218.1875 C 169.675781 218.1875 147.179688 240.6875 147.179688 268.335938 L 147.179688 1079.933594 C 147.179688 1107.582031 169.675781 1130.078125 197.335938 1130.078125 L 617.519531 1101.617188 L 563.574219 1298.472656 L 506.496094 1298.925781 C 488.699219 1298.925781 474.21875 1313.398438 474.21875 1331.195312 C 474.21875 1348.988281 488.699219 1363.460938 506.496094 1363.460938 L 984.523438 1340.671875 C 1002.320312 1340.671875 969.015625 1130.078125 969.015625 1130.078125 C 969.015625 1130.078125 1387.878906 263.078125 1360.222656 263.078125 " fill-opacity="1" fill-rule="nonzero"/><path fill="#ffffff" d="M 961.5 1026.3125 L 664.960938 1026.3125 L 580.835938 1333.296875 L 1045.625 1333.296875 L 961.5 1026.3125 " fill-opacity="1" fill-rule="nonzero"/><path fill="#000000" d="M 583.253906 1331.441406 L 1043.199219 1331.441406 L 960.089844 1028.167969 L 666.375 1028.167969 Z M 1045.625 1335.144531 L 580.835938 1335.144531 C 580.253906 1335.144531 579.710938 1334.875 579.359375 1334.414062 C 579.007812 1333.957031 578.894531 1333.359375 579.050781 1332.8125 L 663.175781 1025.832031 C 663.394531 1025.027344 664.125 1024.46875 664.960938 1024.46875 L 961.5 1024.46875 C 962.335938 1024.46875 963.066406 1025.027344 963.285156 1025.832031 L 1047.410156 1332.8125 C 1047.558594 1333.359375 1047.445312 1333.957031 1047.101562 1334.414062 C 1046.75 1334.875 1046.199219 1335.144531 1045.625 1335.144531 " fill-opacity="1" fill-rule="nonzero"/><path fill="#ffffff" d="M 1405.261719 221.03125 L 221.195312 221.03125 C 195.058594 221.03125 173.875 242.207031 173.875 268.332031 L 173.875 1079.933594 C 173.875 1106.058594 195.058594 1127.242188 221.195312 1127.242188 L 1405.261719 1127.242188 C 1431.398438 1127.242188 1452.585938 1106.058594 1452.585938 1079.933594 L 1452.585938 268.332031 C 1452.585938 242.207031 1431.398438 221.03125 1405.261719 221.03125 " fill-opacity="1" fill-rule="nonzero"/><g clip-path="url(#e00daf820b)"><path fill="#000000" d="M 221.195312 222.871094 C 196.125 222.871094 175.726562 243.261719 175.726562 268.328125 L 175.726562 1079.929688 C 175.726562 1104.996094 196.125 1125.390625 221.195312 1125.390625 L 1405.273438 1125.390625 C 1430.347656 1125.390625 1450.742188 1104.996094 1450.742188 1079.929688 L 1450.742188 268.328125 C 1450.742188 243.261719 1430.347656 222.871094 1405.273438 222.871094 Z M 1405.273438 1129.09375 L 221.195312 1129.09375 C 194.082031 1129.09375 172.027344 1107.039062 172.027344 1079.929688 L 172.027344 268.328125 C 172.027344 241.226562 194.082031 219.171875 221.195312 219.171875 L 1405.273438 219.171875 C 1432.382812 219.171875 1454.445312 241.226562 1454.445312 268.328125 L 1454.445312 1079.929688 C 1454.445312 1107.039062 1432.382812 1129.09375 1405.273438 1129.09375 " fill-opacity="1" fill-rule="nonzero"/></g><path fill="#ffffff" d="M 1096.105469 1301.761719 L 530.355469 1301.761719 C 514.09375 1301.761719 500.910156 1314.9375 500.910156 1331.195312 C 500.910156 1347.449219 514.09375 1360.632812 530.355469 1360.632812 L 1096.105469 1360.632812 C 1112.359375 1360.632812 1125.542969 1347.449219 1125.542969 1331.195312 C 1125.542969 1314.9375 1112.359375 1301.761719 1096.105469 1301.761719 " fill-opacity="1" fill-rule="nonzero"/><path fill="#000000" d="M 530.355469 1303.605469 C 515.140625 1303.605469 502.765625 1315.976562 502.765625 1331.195312 C 502.765625 1346.402344 515.140625 1358.78125 530.355469 1358.78125 L 1096.109375 1358.78125 C 1111.320312 1358.78125 1123.695312 1346.402344 1123.695312 1331.195312 C 1123.695312 1315.976562 1111.320312 1303.605469 1096.109375 1303.605469 Z M 1096.109375 1362.476562 L 530.355469 1362.476562 C 513.101562 1362.476562 499.0625 1348.445312 499.0625 1331.195312 C 499.0625 1313.945312 513.101562 1299.90625 530.355469 1299.90625 L 1096.109375 1299.90625 C 1113.359375 1299.90625 1127.402344 1313.945312 1127.402344 1331.195312 C 1127.402344 1348.445312 1113.359375 1362.476562 1096.109375 1362.476562 " fill-opacity="1" fill-rule="nonzero"/><path fill="#ffffff" d="M 215.9375 866.671875 L 215.9375 1061.667969 C 215.9375 1074.65625 226.46875 1085.195312 239.46875 1085.195312 L 1386.992188 1085.195312 C 1399.996094 1085.195312 1410.527344 1074.65625 1410.527344 1061.667969 L 1410.527344 741.886719 L 215.9375 866.671875 " fill-opacity="1" fill-rule="nonzero"/><path fill="#000000" d="M 1386.988281 1087.039062 L 239.46875 1087.039062 C 225.472656 1087.039062 214.085938 1075.65625 214.085938 1061.667969 L 214.085938 866.671875 C 214.085938 865.648438 214.914062 864.816406 215.9375 864.816406 C 216.957031 864.816406 217.785156 865.648438 217.785156 866.671875 L 217.785156 1061.667969 C 217.785156 1073.617188 227.511719 1083.34375 239.46875 1083.34375 L 1386.988281 1083.34375 C 1398.945312 1083.34375 1408.675781 1073.617188 1408.675781 1061.667969 L 1408.675781 741.886719 C 1408.675781 740.863281 1409.503906 740.035156 1410.527344 740.035156 C 1411.539062 740.035156 1412.371094 740.863281 1412.371094 741.886719 L 1412.371094 1061.667969 C 1412.371094 1075.65625 1400.988281 1087.039062 1386.988281 1087.039062 " fill-opacity="1" fill-rule="nonzero"/><path fill="#000000" d="M 215.9375 377.957031 C 214.914062 377.957031 214.085938 377.128906 214.085938 376.105469 L 214.085938 326.210938 C 214.085938 325.1875 214.914062 324.359375 215.9375 324.359375 C 216.957031 324.359375 217.785156 325.1875 217.785156 326.210938 L 217.785156 376.105469 C 217.785156 377.128906 216.957031 377.957031 215.9375 377.957031 " fill-opacity="1" fill-rule="nonzero"/><path fill="#ffffff" d="M 307.710938 263.074219 L 239.46875 263.074219 C 226.46875 263.074219 215.9375 273.609375 215.9375 286.597656 L 307.710938 263.074219 " fill-opacity="1" fill-rule="nonzero"/><path fill="#000000" d="M 215.9375 288.449219 C 214.914062 288.449219 214.085938 287.625 214.085938 286.601562 C 214.085938 272.613281 225.472656 261.234375 239.46875 261.234375 L 307.710938 261.234375 C 308.734375 261.234375 309.558594 262.058594 309.558594 263.082031 C 309.558594 264.101562 308.734375 264.925781 307.710938 264.925781 L 239.46875 264.925781 C 227.511719 264.925781 217.785156 274.65625 217.785156 286.601562 C 217.785156 287.625 216.957031 288.449219 215.9375 288.449219 " fill-opacity="1" fill-rule="nonzero"/><path fill="#ffffff" d="M 1410.527344 326.199219 L 1410.527344 286.601562 C 1410.527344 273.613281 1399.996094 263.082031 1386.992188 263.082031 L 1316.816406 263.082031 L 1410.527344 326.199219 " fill-opacity="1" fill-rule="nonzero"/><path fill="#000000" d="M 1410.527344 328.050781 C 1409.503906 328.050781 1408.675781 327.222656 1408.675781 326.207031 L 1408.675781 286.609375 C 1408.675781 274.648438 1398.945312 264.933594 1386.988281 264.933594 L 1316.816406 264.933594 C 1315.796875 264.933594 1314.964844 264.109375 1314.964844 263.082031 C 1314.964844 262.058594 1315.796875 261.230469 1316.816406 261.230469 L 1386.988281 261.230469 C 1400.988281 261.230469 1412.371094 272.609375 1412.371094 286.609375 L 1412.371094 326.207031 C 1412.371094 327.222656 1411.539062 328.050781 1410.527344 328.050781 " fill-opacity="1" fill-rule="nonzero"/><path fill="#000000" d="M 1410.527344 438.597656 C 1409.503906 438.597656 1408.675781 437.769531 1408.675781 436.746094 L 1408.675781 381.585938 C 1408.675781 380.570312 1409.503906 379.742188 1410.527344 379.742188 C 1411.539062 379.742188 1412.371094 380.570312 1412.371094 381.585938 L 1412.371094 436.746094 C 1412.371094 437.769531 1411.539062 438.597656 1410.527344 438.597656 " fill-opacity="1" fill-rule="nonzero"/><path fill="#ffffff" d="M 1245.753906 1082.109375 L 360.328125 1082.109375 L 360.328125 2.011719 L 1245.753906 2.011719 L 1245.753906 1082.109375 " fill-opacity="1" fill-rule="nonzero"/><path fill="#000000" d="M 362.175781 1080.261719 L 1243.90625 1080.261719 L 1243.90625 3.871094 L 362.175781 3.871094 Z M 1245.746094 1083.957031 L 360.324219 1083.957031 C 359.304688 1083.957031 358.476562 1083.132812 358.476562 1082.113281 L 358.476562 2.019531 C 358.476562 1 359.304688 0.167969 360.324219 0.167969 L 1245.746094 0.167969 C 1246.769531 0.167969 1247.597656 1 1247.597656 2.019531 L 1247.597656 1082.113281 C 1247.597656 1083.132812 1246.769531 1083.957031 1245.746094 1083.957031 " fill-opacity="1" fill-rule="nonzero"/><path fill="#000000" d="M 427.558594 91.679688 L 851.28125 91.679688 L 851.28125 68.417969 L 427.558594 68.417969 Z M 853.128906 95.375 L 425.707031 95.375 C 424.6875 95.375 423.855469 94.542969 423.855469 93.527344 L 423.855469 66.558594 C 423.855469 65.542969 424.6875 64.714844 425.707031 64.714844 L 853.128906 64.714844 C 854.15625 64.714844 854.984375 65.542969 854.984375 66.558594 L 854.984375 93.527344 C 854.984375 94.542969 854.15625 95.375 853.128906 95.375 " fill-opacity="1" fill-rule="nonzero"/><path fill="#000000" d="M 571.335938 138.5 L 1067.25 138.5 L 1067.25 114.132812 L 571.335938 114.132812 Z M 1069.105469 142.207031 L 569.484375 142.207031 C 568.460938 142.207031 567.632812 141.367188 567.632812 140.347656 L 567.632812 112.285156 C 567.632812 111.265625 568.460938 110.4375 569.484375 110.4375 L 1069.105469 110.4375 C 1070.125 110.4375 1070.957031 111.265625 1070.957031 112.285156 L 1070.957031 140.347656 C 1070.957031 141.367188 1070.125 142.207031 1069.105469 142.207031 " fill-opacity="1" fill-rule="nonzero"/><path fill="#000000" d="M 682.605469 184.773438 L 1178.527344 184.773438 L 1178.527344 160.410156 L 682.605469 160.410156 Z M 1180.375 188.476562 L 680.753906 188.476562 C 679.734375 188.476562 678.910156 187.644531 678.910156 186.621094 L 678.910156 158.554688 C 678.910156 157.53125 679.734375 156.707031 680.753906 156.707031 L 1180.375 156.707031 C 1181.394531 156.707031 1182.21875 157.53125 1182.21875 158.554688 L 1182.21875 186.621094 C 1182.21875 187.644531 1181.394531 188.476562 1180.375 188.476562 " fill-opacity="1" fill-rule="nonzero"/><path fill="#000000" d="M 863.738281 231.042969 L 1118.28125 231.042969 L 1118.28125 206.679688 L 863.738281 206.679688 Z M 1120.132812 234.746094 L 861.886719 234.746094 C 860.863281 234.746094 860.035156 233.914062 860.035156 232.894531 L 860.035156 204.828125 C 860.035156 203.808594 860.863281 202.980469 861.886719 202.980469 L 1120.132812 202.980469 C 1121.148438 202.980469 1121.976562 203.808594 1121.976562 204.828125 L 1121.976562 232.894531 C 1121.976562 233.914062 1121.148438 234.746094 1120.132812 234.746094 " fill-opacity="1" fill-rule="nonzero"/><path fill="#000000" d="M 427.554688 461.855469 L 851.285156 461.855469 L 851.285156 438.589844 L 427.554688 438.589844 Z M 853.125 465.554688 L 425.703125 465.554688 C 424.683594 465.554688 423.855469 464.726562 423.855469 463.703125 L 423.855469 436.746094 C 423.855469 435.722656 424.683594 434.894531 425.703125 434.894531 L 853.125 434.894531 C 854.152344 434.894531 854.976562 435.722656 854.976562 436.746094 L 854.976562 463.703125 C 854.976562 464.726562 854.152344 465.554688 853.125 465.554688 " fill-opacity="1" fill-rule="nonzero"/><path fill="#000000" d="M 571.335938 508.679688 L 1067.246094 508.679688 L 1067.246094 484.3125 L 571.335938 484.3125 Z M 1069.101562 512.382812 L 569.480469 512.382812 C 568.453125 512.382812 567.628906 511.550781 567.628906 510.535156 L 567.628906 482.464844 C 567.628906 481.441406 568.453125 480.617188 569.480469 480.617188 L 1069.101562 480.617188 C 1070.125 480.617188 1070.949219 481.441406 1070.949219 482.464844 L 1070.949219 510.535156 C 1070.949219 511.550781 1070.125 512.382812 1069.101562 512.382812 " fill-opacity="1" fill-rule="nonzero"/><path fill="#000000" d="M 682.601562 554.949219 L 1178.523438 554.949219 L 1178.523438 530.585938 L 682.601562 530.585938 Z M 1180.375 558.644531 L 680.75 558.644531 C 679.734375 558.644531 678.910156 557.824219 678.910156 556.796875 L 678.910156 528.738281 C 678.910156 527.710938 679.734375 526.886719 680.75 526.886719 L 1180.375 526.886719 C 1181.390625 526.886719 1182.222656 527.710938 1182.222656 528.738281 L 1182.222656 556.796875 C 1182.222656 557.824219 1181.390625 558.644531 1180.375 558.644531 " fill-opacity="1" fill-rule="nonzero"/><path fill="#000000" d="M 863.730469 601.222656 L 1178.523438 601.222656 L 1178.523438 576.855469 L 863.730469 576.855469 Z M 1180.375 604.914062 L 861.878906 604.914062 C 860.863281 604.914062 860.042969 604.09375 860.042969 603.070312 L 860.042969 575.003906 C 860.042969 573.976562 860.863281 573.152344 861.878906 573.152344 L 1180.375 573.152344 C 1181.390625 573.152344 1182.222656 573.976562 1182.222656 575.003906 L 1182.222656 603.070312 C 1182.222656 604.09375 1181.390625 604.914062 1180.375 604.914062 " fill-opacity="1" fill-rule="nonzero"/><path fill="#000000" d="M 571.339844 277.320312 L 1067.25 277.320312 L 1067.25 252.945312 L 571.339844 252.945312 Z M 1069.105469 281.015625 L 569.484375 281.015625 C 568.460938 281.015625 567.632812 280.183594 567.632812 279.164062 L 567.632812 251.101562 C 567.632812 250.082031 568.460938 249.25 569.484375 249.25 L 1069.105469 249.25 C 1070.132812 249.25 1070.960938 250.082031 1070.960938 251.101562 L 1070.960938 279.164062 C 1070.960938 280.183594 1070.132812 281.015625 1069.105469 281.015625 " fill-opacity="1" fill-rule="nonzero"/><path fill="#000000" d="M 682.605469 323.582031 L 1178.53125 323.582031 L 1178.53125 299.222656 L 682.605469 299.222656 Z M 1180.371094 327.285156 L 680.753906 327.285156 C 679.738281 327.285156 678.914062 326.460938 678.914062 325.433594 L 678.914062 297.371094 C 678.914062 296.347656 679.738281 295.519531 680.753906 295.519531 L 1180.371094 295.519531 C 1181.394531 295.519531 1182.230469 296.347656 1182.230469 297.371094 L 1182.230469 325.433594 C 1182.230469 326.460938 1181.394531 327.285156 1180.371094 327.285156 " fill-opacity="1" fill-rule="nonzero"/><path fill="#000000" d="M 863.726562 416.140625 L 1058.03125 416.140625 L 1058.03125 391.773438 L 863.726562 391.773438 Z M 1059.878906 419.84375 L 861.875 419.84375 C 860.863281 419.84375 860.027344 419.007812 860.027344 417.988281 L 860.027344 389.921875 C 860.027344 388.902344 860.863281 388.074219 861.875 388.074219 L 1059.878906 388.074219 C 1060.894531 388.074219 1061.730469 388.902344 1061.730469 389.921875 L 1061.730469 417.988281 C 1061.730469 419.007812 1060.894531 419.84375 1059.878906 419.84375 " fill-opacity="1" fill-rule="nonzero"/><path fill="#000000" d="M 863.730469 369.863281 L 1178.523438 369.863281 L 1178.523438 345.492188 L 863.730469 345.492188 Z M 1180.375 373.5625 L 861.878906 373.5625 C 860.863281 373.5625 860.042969 372.730469 860.042969 371.714844 L 860.042969 343.644531 C 860.042969 342.625 860.863281 341.796875 861.878906 341.796875 L 1180.375 341.796875 C 1181.390625 341.796875 1182.222656 342.625 1182.222656 343.644531 L 1182.222656 371.714844 C 1182.222656 372.730469 1181.390625 373.5625 1180.375 373.5625 " fill-opacity="1" fill-rule="nonzero"/><path fill="#000000" d="M 427.558594 646.941406 L 851.28125 646.941406 L 851.28125 623.675781 L 427.558594 623.675781 Z M 853.125 650.648438 L 425.707031 650.648438 C 424.6875 650.648438 423.855469 649.808594 423.855469 648.792969 L 423.855469 621.832031 C 423.855469 620.808594 424.6875 619.980469 425.707031 619.980469 L 853.125 619.980469 C 854.152344 619.980469 854.980469 620.808594 854.980469 621.832031 L 854.980469 648.792969 C 854.980469 649.808594 854.152344 650.648438 853.125 650.648438 " fill-opacity="1" fill-rule="nonzero"/><path fill="#000000" d="M 571.335938 693.777344 L 1067.246094 693.777344 L 1067.246094 669.410156 L 571.335938 669.410156 Z M 1069.101562 697.464844 L 569.480469 697.464844 C 568.453125 697.464844 567.628906 696.636719 567.628906 695.613281 L 567.628906 667.550781 C 567.628906 666.53125 568.453125 665.703125 569.480469 665.703125 L 1069.101562 665.703125 C 1070.125 665.703125 1070.949219 666.53125 1070.949219 667.550781 L 1070.949219 695.613281 C 1070.949219 696.636719 1070.125 697.464844 1069.101562 697.464844 " fill-opacity="1" fill-rule="nonzero"/><path fill="#000000" d="M 682.601562 740.042969 L 1162.457031 740.042969 L 1162.457031 715.675781 L 682.601562 715.675781 Z M 1164.292969 743.742188 L 680.746094 743.742188 C 679.730469 743.742188 678.898438 742.914062 678.898438 741.886719 L 678.898438 713.828125 C 678.898438 712.8125 679.730469 711.980469 680.746094 711.980469 L 1164.292969 711.980469 C 1165.316406 711.980469 1166.152344 712.8125 1166.152344 713.828125 L 1166.152344 741.886719 C 1166.152344 742.914062 1165.316406 743.742188 1164.292969 743.742188 " fill-opacity="1" fill-rule="nonzero"/><path fill="#000000" d="M 863.730469 786.308594 L 1178.523438 786.308594 L 1178.523438 761.9375 L 863.730469 761.9375 Z M 1180.375 790.007812 L 861.878906 790.007812 C 860.863281 790.007812 860.042969 789.175781 860.042969 788.15625 L 860.042969 760.097656 C 860.042969 759.070312 860.863281 758.246094 861.878906 758.246094 L 1180.375 758.246094 C 1181.390625 758.246094 1182.222656 759.070312 1182.222656 760.097656 L 1182.222656 788.15625 C 1182.222656 789.175781 1181.390625 790.007812 1180.375 790.007812 " fill-opacity="1" fill-rule="nonzero"/><path fill="#000000" d="M 682.601562 1017.667969 L 948.867188 1017.667969 L 948.867188 993.296875 L 682.601562 993.296875 Z M 950.71875 1021.367188 L 680.75 1021.367188 C 679.734375 1021.367188 678.90625 1020.535156 678.90625 1019.511719 L 678.90625 991.453125 C 678.90625 990.429688 679.734375 989.601562 680.75 989.601562 L 950.71875 989.601562 C 951.742188 989.601562 952.574219 990.429688 952.574219 991.453125 L 952.574219 1019.511719 C 952.574219 1020.535156 951.742188 1021.367188 950.71875 1021.367188 " fill-opacity="1" fill-rule="nonzero"/><path fill="#000000" d="M 571.335938 832.578125 L 1067.246094 832.578125 L 1067.246094 808.214844 L 571.335938 808.214844 Z M 1069.101562 836.277344 L 569.480469 836.277344 C 568.453125 836.277344 567.628906 835.449219 567.628906 834.4375 L 567.628906 806.367188 C 567.628906 805.355469 568.453125 804.519531 569.480469 804.519531 L 1069.101562 804.519531 C 1070.125 804.519531 1070.949219 805.355469 1070.949219 806.367188 L 1070.949219 834.4375 C 1070.949219 835.449219 1070.125 836.277344 1069.101562 836.277344 " fill-opacity="1" fill-rule="nonzero"/><path fill="#000000" d="M 682.601562 878.859375 L 1178.523438 878.859375 L 1178.523438 854.488281 L 682.601562 854.488281 Z M 1180.375 882.550781 L 680.75 882.550781 C 679.734375 882.550781 678.910156 881.722656 678.910156 880.699219 L 678.910156 852.636719 C 678.910156 851.609375 679.734375 850.789062 680.75 850.789062 L 1180.375 850.789062 C 1181.390625 850.789062 1182.222656 851.609375 1182.222656 852.636719 L 1182.222656 880.699219 C 1182.222656 881.722656 1181.390625 882.550781 1180.375 882.550781 " fill-opacity="1" fill-rule="nonzero"/><path fill="#000000" d="M 863.730469 971.394531 L 1178.523438 971.394531 L 1178.523438 947.027344 L 863.730469 947.027344 Z M 1180.375 975.097656 L 861.878906 975.097656 C 860.863281 975.097656 860.042969 974.265625 860.042969 973.242188 L 860.042969 945.175781 C 860.042969 944.160156 860.863281 943.332031 861.878906 943.332031 L 1180.375 943.332031 C 1181.390625 943.332031 1182.222656 944.160156 1182.222656 945.175781 L 1182.222656 973.242188 C 1182.222656 974.265625 1181.390625 975.097656 1180.375 975.097656 " fill-opacity="1" fill-rule="nonzero"/><path fill="#000000" d="M 863.734375 925.125 L 1042.363281 925.125 L 1042.363281 900.761719 L 863.734375 900.761719 Z M 1044.214844 928.820312 L 861.878906 928.820312 C 860.863281 928.820312 860.035156 927.992188 860.035156 926.976562 L 860.035156 898.910156 C 860.035156 897.886719 860.863281 897.054688 861.878906 897.054688 L 1044.214844 897.054688 C 1045.242188 897.054688 1046.066406 897.886719 1046.066406 898.910156 L 1046.066406 926.976562 C 1046.066406 927.992188 1045.242188 928.820312 1044.214844 928.820312 " fill-opacity="1" fill-rule="nonzero"/><path fill="#000000" d="M 1003.289062 1413.113281 L 990.632812 1413.113281 C 989.605469 1413.113281 988.78125 1412.285156 988.78125 1411.261719 C 988.78125 1410.238281 989.605469 1409.410156 990.632812 1409.410156 L 1003.289062 1409.410156 C 1004.3125 1409.410156 1005.140625 1410.238281 1005.140625 1411.261719 C 1005.140625 1412.285156 1004.3125 1413.113281 1003.289062 1413.113281 " fill-opacity="1" fill-rule="nonzero"/><path fill="#000000" d="M 968.007812 1413.113281 L 900.070312 1413.113281 C 899.046875 1413.113281 898.21875 1412.285156 898.21875 1411.261719 C 898.21875 1410.238281 899.046875 1409.410156 900.070312 1409.410156 L 968.007812 1409.410156 C 969.03125 1409.410156 969.859375 1410.238281 969.859375 1411.261719 C 969.859375 1412.285156 969.03125 1413.113281 968.007812 1413.113281 " fill-opacity="1" fill-rule="nonzero"/><path fill="#000000" d="M 868.46875 1413.113281 L 444.097656 1413.113281 C 429.429688 1413.113281 417.5 1401.183594 417.5 1386.519531 L 417.5 1194.335938 C 417.5 1181.710938 407.226562 1171.445312 394.601562 1171.445312 L 122.488281 1171.445312 C 107.820312 1171.445312 95.890625 1159.511719 95.890625 1144.851562 L 95.890625 1038.96875 C 95.890625 1037.945312 96.71875 1037.113281 97.742188 1037.113281 C 98.761719 1037.113281 99.59375 1037.945312 99.59375 1038.96875 L 99.59375 1144.851562 C 99.59375 1157.480469 109.863281 1167.75 122.488281 1167.75 L 394.601562 1167.75 C 409.269531 1167.75 421.203125 1179.671875 421.203125 1194.335938 L 421.203125 1386.519531 C 421.203125 1399.140625 431.46875 1409.410156 444.097656 1409.410156 L 868.46875 1409.410156 C 869.488281 1409.410156 870.3125 1410.238281 870.3125 1411.261719 C 870.3125 1412.285156 869.488281 1413.113281 868.46875 1413.113281 " fill-opacity="1" fill-rule="nonzero"/><path fill="#000000" d="M 97.742188 997.304688 C 96.71875 997.304688 95.890625 996.476562 95.890625 995.460938 L 95.890625 973.539062 C 95.890625 972.523438 96.71875 971.695312 97.742188 971.695312 C 98.761719 971.695312 99.59375 972.523438 99.59375 973.539062 L 99.59375 995.460938 C 99.59375 996.476562 98.761719 997.304688 97.742188 997.304688 " fill-opacity="1" fill-rule="nonzero"/><path fill="#000000" d="M 97.742188 951.53125 C 96.71875 951.53125 95.890625 950.699219 95.890625 949.675781 L 95.890625 903.496094 C 95.890625 902.472656 96.71875 901.648438 97.742188 901.648438 C 98.761719 901.648438 99.59375 902.472656 99.59375 903.496094 L 99.59375 949.675781 C 99.59375 950.699219 98.761719 951.53125 97.742188 951.53125 " fill-opacity="1" fill-rule="nonzero"/><path fill="#ffffff" d="M 523.511719 1408.152344 C 527.496094 1404.128906 550.507812 1332.554688 550.507812 1332.554688 L 595.984375 1364.992188 L 546.128906 1431.976562 L 523.511719 1408.152344 " fill-opacity="1" fill-rule="nonzero"/><path fill="#000000" d="M 525.835938 1407.917969 L 545.957031 1429.109375 L 593.367188 1365.402344 L 551.488281 1335.53125 C 546.660156 1350.480469 531.101562 1398.148438 525.835938 1407.917969 Z M 546.128906 1433.828125 C 545.621094 1433.828125 545.132812 1433.625 544.785156 1433.257812 L 522.167969 1409.425781 C 521.484375 1408.703125 521.492188 1407.574219 522.1875 1406.859375 C 525.003906 1403.730469 539.96875 1359.277344 548.746094 1331.992188 C 548.925781 1331.425781 549.367188 1330.984375 549.925781 1330.800781 C 550.480469 1330.617188 551.097656 1330.707031 551.578125 1331.046875 L 597.058594 1363.492188 C 597.460938 1363.78125 597.730469 1364.214844 597.8125 1364.703125 C 597.886719 1365.199219 597.761719 1365.699219 597.46875 1366.097656 L 547.613281 1433.085938 C 547.285156 1433.527344 546.785156 1433.796875 546.234375 1433.828125 C 546.203125 1433.828125 546.164062 1433.828125 546.128906 1433.828125 " fill-opacity="1" fill-rule="nonzero"/><path fill="#000000" d="M 605.460938 1498.648438 L 575.21875 1498.46875 C 555.210938 1498.347656 536.597656 1488.183594 525.6875 1471.417969 L 495.785156 1424.09375 C 487.519531 1411.007812 492.144531 1393.679688 505.8125 1386.421875 C 518.289062 1379.785156 531.367188 1373.324219 534.433594 1373.621094 C 540.65625 1374.210938 543.167969 1403.640625 543.167969 1403.640625 L 570.105469 1404.671875 C 570.105469 1404.671875 583.417969 1460.011719 595.132812 1466.296875 C 603.667969 1470.878906 609.617188 1477.605469 613.625 1483.75 C 617.824219 1490.1875 613.140625 1498.691406 605.460938 1498.648438 " fill-opacity="1" fill-rule="nonzero"/><path fill="#ffffff" d="M 602.417969 1488.695312 C 602.328125 1488.695312 602.238281 1488.683594 602.140625 1488.667969 L 560.777344 1482.441406 C 550.917969 1480.957031 542.324219 1475.199219 537.199219 1466.652344 L 500.648438 1405.597656 C 500.125 1404.722656 500.410156 1403.582031 501.285156 1403.058594 C 502.164062 1402.542969 503.300781 1402.820312 503.824219 1403.699219 L 540.375 1464.75 C 544.925781 1472.347656 552.566406 1477.46875 561.328125 1478.785156 L 602.699219 1485.015625 C 603.703125 1485.167969 604.402344 1486.113281 604.246094 1487.117188 C 604.109375 1488.039062 603.320312 1488.695312 602.417969 1488.695312 " fill-opacity="1" fill-rule="nonzero"/><path fill="#ffffff" d="M 551.359375 1442.785156 C 550.550781 1442.785156 549.804688 1442.246094 549.570312 1441.417969 C 549.308594 1440.433594 549.890625 1439.417969 550.875 1439.148438 L 573.917969 1432.878906 C 574.902344 1432.605469 575.917969 1433.191406 576.1875 1434.171875 C 576.460938 1435.15625 575.875 1436.171875 574.894531 1436.441406 L 551.84375 1442.71875 C 551.6875 1442.761719 551.523438 1442.785156 551.359375 1442.785156 " fill-opacity="1" fill-rule="nonzero"/><path fill="#ffffff" d="M 563.359375 1454.617188 C 562.535156 1454.617188 561.769531 1454.054688 561.5625 1453.203125 C 561.328125 1452.210938 561.933594 1451.210938 562.925781 1450.972656 L 578.378906 1447.1875 C 579.371094 1446.949219 580.367188 1447.554688 580.617188 1448.546875 C 580.851562 1449.539062 580.246094 1450.539062 579.253906 1450.78125 L 563.800781 1454.5625 C 563.65625 1454.601562 563.507812 1454.617188 563.359375 1454.617188 " fill-opacity="1" fill-rule="nonzero"/><path fill="#ffffff" d="M 678.675781 1394.5 L 731.472656 1447.53125 L 759.46875 1437.253906 L 710.792969 1369.410156 L 678.675781 1394.5 " fill-opacity="1" fill-rule="nonzero"/><path fill="#000000" d="M 681.464844 1394.675781 L 731.949219 1445.382812 L 756.542969 1436.363281 L 710.414062 1372.046875 Z M 731.472656 1449.382812 C 730.988281 1449.382812 730.515625 1449.195312 730.164062 1448.832031 L 677.367188 1395.804688 C 676.996094 1395.429688 676.800781 1394.910156 676.832031 1394.386719 C 676.863281 1393.855469 677.121094 1393.371094 677.535156 1393.042969 L 709.652344 1367.949219 C 710.054688 1367.640625 710.5625 1367.507812 711.054688 1367.574219 C 711.554688 1367.648438 712.003906 1367.917969 712.300781 1368.328125 L 760.964844 1436.179688 C 761.304688 1436.648438 761.402344 1437.246094 761.230469 1437.796875 C 761.066406 1438.351562 760.644531 1438.792969 760.097656 1438.992188 L 732.113281 1449.269531 C 731.898438 1449.34375 731.6875 1449.382812 731.472656 1449.382812 " fill-opacity="1" fill-rule="nonzero"/><path fill="#000000" d="M 714.792969 1439.238281 C 714.792969 1439.238281 712.242188 1461.796875 716.570312 1481.738281 C 718.875 1492.355469 728.457031 1499.832031 739.328125 1499.832031 L 868.90625 1499.832031 C 878.167969 1499.832031 882.367188 1488.273438 875.265625 1482.328125 C 852.222656 1463.027344 809.84375 1433.566406 757.734375 1424.910156 L 743.203125 1445.25 L 714.792969 1439.238281 " fill-opacity="1" fill-rule="nonzero"/><path fill="#ffffff" d="M 862.742188 1483.867188 L 728.457031 1483.867188 C 727.433594 1483.867188 726.601562 1483.039062 726.601562 1482.023438 C 726.601562 1481 727.433594 1480.171875 728.457031 1480.171875 L 862.742188 1480.171875 C 863.765625 1480.171875 864.59375 1481 864.59375 1482.023438 C 864.59375 1483.039062 863.765625 1483.867188 862.742188 1483.867188 " fill-opacity="1" fill-rule="nonzero"/><path fill="#ffffff" d="M 787.8125 1460.023438 C 787.582031 1460.023438 787.339844 1459.980469 787.109375 1459.878906 C 786.164062 1459.488281 785.714844 1458.414062 786.109375 1457.464844 L 793.214844 1440.230469 C 793.609375 1439.289062 794.691406 1438.835938 795.632812 1439.21875 C 796.574219 1439.613281 797.023438 1440.695312 796.632812 1441.636719 L 789.523438 1458.871094 C 789.230469 1459.59375 788.542969 1460.023438 787.8125 1460.023438 " fill-opacity="1" fill-rule="nonzero"/><path fill="#ffffff" d="M 811.183594 1464.550781 C 810.996094 1464.550781 810.796875 1464.527344 810.605469 1464.460938 C 809.632812 1464.140625 809.109375 1463.09375 809.429688 1462.125 L 814.574219 1446.574219 C 814.894531 1445.605469 815.945312 1445.074219 816.910156 1445.398438 C 817.878906 1445.71875 818.402344 1446.757812 818.082031 1447.734375 L 812.945312 1463.28125 C 812.683594 1464.0625 811.960938 1464.550781 811.183594 1464.550781 " fill-opacity="1" fill-rule="nonzero"/><path fill="#000000" d="M 399.210938 1023.398438 C 399.210938 1023.398438 640.5 995.316406 712.257812 1057.40625 C 784.007812 1119.5 598.992188 1386.519531 598.992188 1386.519531 L 540.480469 1343.136719 L 595.984375 1154.40625 L 372.933594 1091.085938 L 399.210938 1023.398438 " fill-opacity="1" fill-rule="nonzero"/><path fill="#000000" d="M 266.414062 1146.285156 C 301.464844 1157.417969 364.179688 1171.789062 451.832031 1170.59375 C 476.738281 1170.257812 499.730469 1184.007812 511.046875 1206.191406 C 537.007812 1257.097656 593.207031 1348.75 684.742188 1408.152344 L 728.457031 1384.601562 L 616.878906 1133.496094 C 606.6875 1110.566406 587.632812 1092.75 564.074219 1084.113281 L 342.9375 1003.042969 C 342.9375 1003.042969 274.363281 983.878906 240.746094 1045.078125 C 234.742188 1056.015625 230.660156 1065.863281 228.003906 1074.679688 C 218.90625 1104.921875 236.308594 1136.742188 266.414062 1146.285156 " fill-opacity="1" fill-rule="nonzero"/><path fill="#ffffff" d="M 667.300781 1248.820312 C 666.59375 1248.820312 665.914062 1248.410156 665.613281 1247.722656 L 615.179688 1134.25 C 605.253906 1111.910156 586.394531 1094.269531 563.441406 1085.847656 L 457.535156 1047.03125 C 456.578125 1046.679688 456.085938 1045.613281 456.4375 1044.652344 C 456.789062 1043.695312 457.851562 1043.203125 458.808594 1043.554688 L 564.710938 1082.375 C 588.609375 1091.136719 608.230469 1109.492188 618.570312 1132.75 L 668.988281 1246.226562 C 669.40625 1247.148438 668.980469 1248.25 668.046875 1248.65625 C 667.808594 1248.773438 667.550781 1248.820312 667.300781 1248.820312 " fill-opacity="1" fill-rule="nonzero"/><path fill="#ffffff" d="M 608.425781 1346.367188 C 607.945312 1346.367188 607.449219 1346.175781 607.09375 1345.800781 C 596.941406 1335.253906 586.96875 1323.929688 577.425781 1312.136719 C 576.78125 1311.339844 576.902344 1310.175781 577.699219 1309.535156 C 578.492188 1308.890625 579.65625 1309.011719 580.304688 1309.808594 C 589.769531 1321.519531 599.691406 1332.761719 609.757812 1343.234375 C 610.46875 1343.972656 610.445312 1345.144531 609.707031 1345.851562 C 609.347656 1346.203125 608.886719 1346.367188 608.425781 1346.367188 " fill-opacity="1" fill-rule="nonzero"/><path fill="#ffffff" d="M 578.859375 1312.824219 C 578.328125 1312.824219 577.789062 1312.585938 577.425781 1312.136719 C 572.730469 1306.332031 568.066406 1300.316406 563.539062 1294.253906 C 562.933594 1293.433594 563.097656 1292.28125 563.917969 1291.664062 C 564.738281 1291.058594 565.902344 1291.222656 566.507812 1292.042969 C 571 1298.074219 575.640625 1304.046875 580.304688 1309.808594 C 580.941406 1310.601562 580.820312 1311.769531 580.027344 1312.414062 C 579.679688 1312.683594 579.269531 1312.824219 578.859375 1312.824219 " fill-opacity="1" fill-rule="nonzero"/><path fill="#000000" d="M 360.1875 693.800781 C 360.1875 693.800781 388.929688 658.929688 418.488281 676.320312 C 435.730469 686.464844 450.585938 703.65625 474.078125 714.367188 C 483.828125 718.816406 489.527344 719.84375 489.527344 719.84375 C 489.527344 719.84375 473.328125 729.601562 426.914062 731.214844 C 380.5 732.832031 360.1875 693.800781 360.1875 693.800781 " fill-opacity="1" fill-rule="nonzero"/><path fill="#000000" d="M 442.234375 663.414062 C 418.609375 659.609375 404.230469 636.179688 399.914062 623.300781 C 396.953125 614.464844 398.453125 609.769531 399.394531 607.671875 C 402.570312 600.574219 410.65625 597.925781 413.90625 596.753906 C 443.898438 585.960938 444.96875 563.273438 468.382812 560.746094 C 487.378906 558.699219 487.761719 573.515625 519.230469 576.253906 C 525.617188 576.808594 535.378906 577.046875 545.25 583.421875 C 549.964844 586.464844 556.597656 590.75 557.53125 596.648438 C 558.472656 602.613281 553.796875 611.582031 492.011719 644.523438 C 456.6875 663.347656 450.191406 664.699219 442.234375 663.414062 " fill-opacity="1" fill-rule="nonzero"/><path fill="#ffffff" d="M 504.464844 622.222656 C 504.464844 622.222656 469.957031 609.5625 457.933594 610.269531 C 445.914062 610.976562 446.40625 641.558594 446.40625 641.558594 C 446.40625 641.558594 434.046875 627.511719 426.734375 636.558594 C 419.421875 645.597656 438.601562 655.71875 438.601562 655.71875 L 377.9375 711.289062 L 434.152344 725.882812 L 462.707031 694.773438 C 462.707031 694.773438 472.261719 705.804688 480.984375 703.535156 C 489.707031 701.265625 502.414062 678.359375 502.414062 678.359375 C 507.152344 677.632812 510.199219 672.941406 508.957031 668.3125 L 506.734375 660.070312 C 505.382812 655.046875 505.316406 649.761719 506.539062 644.707031 C 508.175781 637.960938 507.734375 630.871094 505.28125 624.382812 L 504.464844 622.222656 " fill-opacity="1" fill-rule="nonzero"/><path fill="#000000" d="M 381.695312 710.355469 L 433.539062 723.808594 L 461.34375 693.519531 C 461.699219 693.136719 462.195312 692.890625 462.734375 692.925781 C 463.261719 692.929688 463.757812 693.160156 464.105469 693.5625 C 464.191406 693.660156 473.011719 703.699219 480.519531 701.75 C 487.042969 700.042969 497.371094 683.648438 500.796875 677.464844 C 501.074219 676.964844 501.566406 676.625 502.132812 676.535156 C 503.871094 676.261719 505.417969 675.261719 506.378906 673.789062 C 507.339844 672.3125 507.625 670.492188 507.167969 668.796875 L 504.945312 660.554688 C 503.519531 655.242188 503.449219 649.613281 504.742188 644.269531 C 506.292969 637.851562 505.882812 631.207031 503.554688 625.039062 L 503.039062 623.675781 C 497.839844 621.808594 468.558594 611.496094 458.042969 612.113281 C 449.683594 612.605469 448.140625 634.050781 448.253906 641.523438 C 448.269531 642.296875 447.796875 643 447.074219 643.277344 C 446.351562 643.554688 445.53125 643.359375 445.019531 642.777344 C 443.1875 640.703125 437.4375 635.371094 432.726562 635.371094 C 432.679688 635.371094 432.632812 635.371094 432.589844 635.371094 C 430.863281 635.414062 429.417969 636.179688 428.171875 637.71875 C 427.089844 639.058594 426.714844 640.441406 427.03125 641.957031 C 428.078125 647.066406 436.363281 652.4375 439.464844 654.089844 C 439.996094 654.367188 440.359375 654.890625 440.4375 655.480469 C 440.511719 656.078125 440.296875 656.675781 439.851562 657.078125 Z M 434.152344 727.734375 C 433.992188 727.734375 433.839844 727.710938 433.683594 727.667969 L 377.472656 713.074219 C 376.816406 712.910156 376.308594 712.394531 376.140625 711.730469 C 375.976562 711.074219 376.1875 710.375 376.6875 709.929688 L 435.5 656.054688 C 431.773438 653.734375 424.613281 648.597656 423.40625 642.703125 C 422.863281 640.074219 423.5 637.613281 425.292969 635.394531 C 427.242188 632.984375 429.675781 631.730469 432.519531 631.671875 C 437.058594 631.566406 441.671875 634.722656 444.617188 637.257812 C 444.964844 628.207031 446.980469 609.058594 457.828125 608.417969 C 470.085938 607.714844 503.679688 619.964844 505.101562 620.488281 C 505.609375 620.667969 506.007812 621.070312 506.199219 621.570312 L 507.011719 623.726562 C 509.609375 630.601562 510.066406 638 508.335938 645.136719 C 507.1875 649.882812 507.25 654.875 508.519531 659.59375 L 510.742188 667.832031 C 511.472656 670.550781 511.011719 673.453125 509.476562 675.8125 C 508.117188 677.902344 506.015625 679.394531 503.613281 680.007812 C 501.070312 684.484375 490.042969 703.09375 481.449219 705.328125 C 473.75 707.328125 465.882812 700.609375 462.730469 697.488281 L 435.511719 727.128906 C 435.15625 727.523438 434.660156 727.734375 434.152344 727.734375 " fill-opacity="1" fill-rule="nonzero"/><path fill="#000000" d="M 462.710938 696.628906 C 462.1875 696.628906 461.667969 696.40625 461.304688 695.976562 C 453.585938 687 451.890625 678.378906 451.820312 678.015625 C 451.628906 677.015625 452.289062 676.050781 453.296875 675.863281 C 454.292969 675.671875 455.269531 676.328125 455.457031 677.328125 C 455.480469 677.464844 457.101562 685.40625 464.113281 693.570312 C 464.773438 694.339844 464.6875 695.511719 463.914062 696.175781 C 463.5625 696.480469 463.136719 696.628906 462.710938 696.628906 " fill-opacity="1" fill-rule="nonzero"/><path fill="#ffffff" d="M 735.867188 660.339844 L 706.515625 660.339844 C 706.515625 660.339844 703.875 753.660156 614.453125 764.09375 C 565.417969 769.816406 529.128906 758.503906 506.328125 747.117188 C 501.625 744.230469 496.46875 741.25 490.875 738.257812 C 488.65625 736.796875 486.71875 735.429688 485.066406 734.199219 L 489.527344 719.84375 C 489.527344 719.84375 476.101562 730.480469 421.894531 699.503906 C 396.644531 685.070312 390.851562 682.644531 372.933594 683.726562 C 264.488281 690.265625 294.578125 744.273438 294.578125 744.273438 C 248.601562 792.867188 216.96875 826.917969 196.199219 874.765625 C 172.125 930.230469 136.78125 1061.976562 204.53125 1108.214844 C 258.21875 1144.863281 353.355469 1106.859375 353.355469 1106.859375 C 421.300781 1081.746094 461.859375 1016.636719 461.859375 1016.636719 C 461.859375 1016.636719 432.46875 1019.609375 430.539062 948.136719 C 429.90625 924.699219 439.75 896.289062 453.261719 868.679688 C 483.953125 887.941406 537.867188 903.496094 624.496094 874.765625 C 779.253906 823.433594 735.867188 660.339844 735.867188 660.339844 " fill-opacity="1" fill-rule="nonzero"/><path fill="#000000" d="M 379.578125 685.351562 C 377.570312 685.351562 375.417969 685.433594 373.042969 685.570312 C 331.703125 688.070312 305.082031 698.085938 296.058594 714.558594 C 288.253906 728.792969 296.109375 743.230469 296.191406 743.371094 C 296.585938 744.074219 296.476562 744.953125 295.921875 745.539062 C 252.957031 790.964844 219.019531 826.835938 197.894531 875.503906 C 176.851562 923.984375 137.207031 1060.027344 205.570312 1106.691406 C 257.84375 1142.363281 351.730469 1105.515625 352.671875 1105.148438 C 411.679688 1083.335938 450.265625 1030.46875 458.597656 1018.21875 C 455.925781 1017.710938 452 1016.324219 447.859375 1012.6875 C 439.714844 1005.523438 429.78125 988.519531 428.691406 948.183594 C 428.121094 927.109375 435.832031 900.085938 451.605469 867.867188 C 451.832031 867.402344 452.25 867.046875 452.757812 866.898438 C 453.261719 866.761719 453.804688 866.835938 454.246094 867.113281 C 483.8125 885.671875 537.246094 901.761719 623.914062 873.011719 C 687.355469 851.96875 725.195312 809.945312 736.375 748.097656 C 743.875 706.613281 736.171875 669.675781 734.414062 662.191406 L 708.269531 662.191406 C 707.863281 668.183594 705.808594 688.039062 695.683594 709.109375 C 684.6875 732.003906 661.691406 760.449219 614.664062 765.933594 C 564.558594 771.773438 527.640625 759.824219 505.5 748.769531 C 500.386719 745.640625 495.21875 742.671875 490.003906 739.886719 C 487.78125 738.4375 485.796875 737.050781 483.960938 735.683594 C 483.332031 735.21875 483.0625 734.402344 483.296875 733.652344 L 486.652344 722.859375 C 479.359375 724.421875 460.890625 723.917969 420.972656 701.109375 C 399.261719 688.703125 392.347656 685.351562 379.578125 685.351562 Z M 265.613281 1126.136719 C 243.738281 1126.136719 221.453125 1122.003906 203.488281 1109.746094 C 173.652344 1089.382812 160.03125 1049.644531 164.085938 994.8125 C 167.417969 949.75 181.984375 902.875 194.503906 874.03125 C 215.742188 825.097656 249.558594 789.171875 292.359375 743.925781 C 290.503906 740.363281 289.035156 733.316406 288.914062 729.296875 C 288.433594 713.507812 298.703125 686.347656 372.820312 681.882812 C 391.21875 680.777344 397.246094 683.285156 422.808594 697.898438 C 474.519531 727.449219 488.285156 718.460938 488.417969 718.359375 C 489.0625 717.898438 489.953125 717.894531 490.59375 718.359375 C 491.234375 718.816406 491.53125 719.632812 491.296875 720.382812 L 487.222656 733.488281 C 488.699219 734.5625 490.269531 735.644531 491.890625 736.714844 C 497.027344 739.445312 502.261719 742.445312 507.296875 745.539062 C 528.84375 756.292969 565.023438 767.996094 614.238281 762.261719 C 650.601562 758.015625 676.863281 739.632812 692.289062 707.625 C 703.855469 683.613281 704.652344 660.519531 704.660156 660.292969 C 704.695312 659.289062 705.515625 658.496094 706.515625 658.496094 L 735.867188 658.496094 C 736.710938 658.496094 737.441406 659.0625 737.652344 659.867188 C 737.769531 660.28125 748.515625 701.585938 740.039062 748.628906 C 732.195312 792.179688 705.882812 849.722656 625.074219 876.519531 C 538.71875 905.171875 484.605469 889.835938 454.035156 871.324219 C 439.125 902.195312 431.84375 928.007812 432.390625 948.085938 C 433.441406 987.085938 442.710938 1003.230469 450.300781 1009.910156 C 456.394531 1015.265625 461.625 1014.800781 461.675781 1014.800781 C 462.371094 1014.726562 463.054688 1015.0625 463.429688 1015.660156 C 463.804688 1016.257812 463.804688 1017.023438 463.429688 1017.621094 C 463.019531 1018.277344 421.753906 1083.546875 354 1108.597656 C 351.410156 1109.632812 309.335938 1126.136719 265.613281 1126.136719 " fill-opacity="1" fill-rule="nonzero"/><path fill="#ffffff" d="M 714.253906 643.15625 C 715.457031 640.746094 721.480469 633.585938 724.238281 631.527344 L 753.210938 604.582031 C 753.210938 604.582031 756.984375 617.5625 752.417969 625.21875 C 761.3125 625.511719 768.355469 627.027344 768.355469 627.027344 C 768.355469 627.027344 781.589844 615.367188 784.886719 613.351562 C 788.191406 611.34375 792.492188 608.15625 796.929688 608.210938 C 801.367188 608.277344 805.78125 611.667969 805.78125 611.667969 L 780.320312 643.933594 L 734.023438 656.667969 L 724.40625 736.371094 L 703.300781 708.101562 L 714.253906 643.15625 " fill-opacity="1" fill-rule="nonzero"/><path fill="#000000" d="M 705.253906 707.632812 L 723.121094 731.5625 L 732.1875 656.445312 C 732.277344 655.703125 732.808594 655.085938 733.53125 654.882812 L 779.238281 642.3125 L 803.074219 612.105469 C 801.574219 611.226562 799.199219 610.097656 796.902344 610.0625 C 793.613281 610.039062 790.125 612.238281 787.3125 614.023438 C 786.804688 614.34375 786.320312 614.644531 785.851562 614.933594 C 783.261719 616.511719 773.21875 625.199219 769.574219 628.410156 C 769.132812 628.804688 768.53125 628.960938 767.960938 628.835938 C 767.890625 628.820312 760.957031 627.355469 752.351562 627.066406 C 751.695312 627.042969 751.105469 626.675781 750.792969 626.101562 C 750.472656 625.527344 750.488281 624.832031 750.824219 624.273438 C 753.664062 619.511719 752.886719 612.210938 752.121094 608.121094 L 725.488281 632.878906 C 725.441406 632.917969 725.394531 632.96875 725.339844 633.003906 C 722.890625 634.835938 717.367188 641.375 716.03125 643.753906 Z M 724.40625 738.214844 C 723.832031 738.214844 723.277344 737.953125 722.925781 737.476562 L 701.816406 709.214844 C 701.511719 708.804688 701.390625 708.296875 701.472656 707.796875 L 712.429688 642.84375 C 712.457031 642.664062 712.515625 642.484375 712.605469 642.320312 C 713.898438 639.730469 719.996094 632.433594 723.039062 630.109375 L 751.960938 603.226562 C 752.421875 602.785156 753.089844 602.632812 753.703125 602.796875 C 754.324219 602.964844 754.808594 603.453125 754.992188 604.066406 C 755.140625 604.574219 758.195312 615.335938 755.253906 623.503906 C 761.160156 623.863281 765.894531 624.667969 767.820312 625.039062 C 770.613281 622.585938 780.933594 613.597656 783.929688 611.777344 C 784.375 611.496094 784.84375 611.203125 785.335938 610.890625 C 788.527344 608.875 792.492188 606.367188 796.804688 606.367188 C 796.855469 606.367188 796.902344 606.367188 796.949219 606.367188 C 801.953125 606.433594 806.707031 610.054688 806.902344 610.203125 C 807.296875 610.507812 807.550781 610.957031 807.617188 611.441406 C 807.671875 611.933594 807.53125 612.433594 807.230469 612.820312 L 781.769531 645.074219 C 781.523438 645.382812 781.191406 645.605469 780.8125 645.710938 L 735.710938 658.117188 L 726.246094 736.59375 C 726.15625 737.339844 725.613281 737.960938 724.882812 738.160156 C 724.726562 738.199219 724.5625 738.214844 724.40625 738.214844 " fill-opacity="1" fill-rule="nonzero"/><path fill="#ffffff" d="M 602.878906 980.398438 C 604.46875 979.457031 619.109375 956.78125 635.183594 952.0625 C 651.257812 947.332031 686.214844 982.601562 686.214844 982.601562 L 602.878906 980.398438 " fill-opacity="1" fill-rule="nonzero"/><path fill="#000000" d="M 606.789062 978.652344 L 681.542969 980.636719 C 670.0625 969.769531 646.789062 950.570312 635.699219 953.832031 C 623.523438 957.414062 611.878906 972.195312 606.902344 978.503906 C 606.871094 978.554688 606.828125 978.605469 606.789062 978.652344 Z M 686.214844 984.457031 C 686.199219 984.457031 686.183594 984.457031 686.167969 984.457031 L 602.828125 982.25 C 602.007812 982.226562 601.296875 981.667969 601.09375 980.863281 C 600.894531 980.117188 601.1875 979.335938 601.8125 978.890625 C 602.132812 978.589844 603.082031 977.382812 604.003906 976.21875 C 609.191406 969.632812 621.355469 954.191406 634.660156 950.28125 C 651.582031 945.308594 686.070312 979.835938 687.539062 981.308594 C 688.0625 981.839844 688.21875 982.644531 687.914062 983.339844 C 687.628906 984.019531 686.957031 984.457031 686.214844 984.457031 " fill-opacity="1" fill-rule="nonzero"/><path fill="#ffffff" d="M 432.46875 773.007812 C 435.1875 794.285156 441.691406 821.3125 457.113281 849.058594 C 506.328125 937.578125 605.042969 959.070312 624.527344 962.910156 L 605 984.640625 C 605 984.640625 395.3125 1019.039062 334.503906 827.523438 C 334.503906 827.523438 311.410156 756.023438 362.765625 738.355469 C 373.453125 734.675781 387.511719 732.527344 400.960938 737.765625 C 424.257812 746.835938 431.558594 769.9375 432.46875 773.007812 " fill-opacity="1" fill-rule="nonzero"/><path fill="#000000" d="M 383.707031 736.488281 C 375.988281 736.488281 368.867188 738.207031 363.363281 740.101562 C 314.332031 756.976562 336.042969 826.261719 336.265625 826.957031 C 367.425781 925.082031 438.703125 962.230469 493.015625 976.113281 C 548.46875 990.28125 597.933594 983.808594 604.066406 982.914062 L 620.992188 964.074219 C 589.957031 957.472656 501.039062 931.878906 455.5 849.960938 C 442.550781 826.664062 434.1875 800.90625 430.652344 773.402344 C 429.289062 768.890625 421.882812 747.894531 400.285156 739.492188 C 394.707031 737.3125 389.0625 736.488281 383.707031 736.488281 Z M 567.703125 988.855469 C 547.285156 988.855469 520.453125 986.9375 492.097656 979.691406 C 436.882812 965.582031 364.410156 927.820312 332.742188 828.089844 C 332.511719 827.359375 309.699219 754.65625 362.160156 736.601562 C 372.066406 733.191406 386.957031 730.332031 401.632812 736.042969 C 425.066406 745.167969 432.910156 768.003906 434.242188 772.488281 C 434.273438 772.582031 434.292969 772.683594 434.304688 772.78125 C 437.769531 799.875 445.988281 825.234375 458.730469 848.164062 C 505.171875 931.6875 597.648438 955.722656 624.886719 961.101562 C 625.535156 961.222656 626.066406 961.695312 626.28125 962.332031 C 626.492188 962.960938 626.347656 963.648438 625.902344 964.148438 L 606.378906 985.882812 C 606.101562 986.191406 605.714844 986.394531 605.304688 986.46875 C 605.027344 986.511719 590.289062 988.855469 567.703125 988.855469 " fill-opacity="1" fill-rule="nonzero"/><path fill="#000000" d="M 307.707031 736.878906 C 307.410156 736.878906 307.105469 736.804688 306.828125 736.652344 C 305.929688 736.167969 305.597656 735.042969 306.085938 734.140625 C 306.375 733.621094 335.640625 681.441406 398.046875 707.171875 C 398.988281 707.558594 399.441406 708.640625 399.050781 709.582031 C 398.664062 710.535156 397.582031 710.984375 396.636719 710.589844 C 337.359375 686.144531 310.453125 733.871094 309.335938 735.910156 C 309 736.527344 308.363281 736.878906 307.707031 736.878906 " fill-opacity="1" fill-rule="nonzero"/><path fill="#000000" d="M 467.707031 872.792969 C 467.269531 872.792969 466.828125 872.636719 466.476562 872.316406 C 465.714844 871.636719 465.652344 870.472656 466.332031 869.710938 C 497.777344 834.546875 492.121094 784.945312 492.058594 784.445312 C 491.933594 783.425781 492.652344 782.511719 493.667969 782.378906 C 494.671875 782.265625 495.605469 782.976562 495.730469 783.992188 C 495.796875 784.5 501.675781 835.734375 469.089844 872.175781 C 468.722656 872.578125 468.214844 872.792969 467.707031 872.792969 " fill-opacity="1" fill-rule="nonzero"/><path fill="#000000" d="M 892.847656 976.746094 L 715.308594 976.746094 L 846.921875 774.371094 C 851.035156 768.042969 858.199219 764.210938 865.90625 764.210938 L 1009.992188 764.210938 C 1019.140625 764.210938 1024.707031 774 1019.820312 781.519531 L 892.847656 976.746094 " fill-opacity="1" fill-rule="nonzero"/><path fill="#ffffff" d="M 930.71875 835.179688 C 924.949219 844.046875 912.546875 851.230469 903.011719 851.230469 C 893.46875 851.230469 890.421875 844.046875 896.191406 835.179688 C 901.957031 826.300781 914.367188 819.117188 923.898438 819.117188 C 933.441406 819.117188 936.488281 826.300781 930.71875 835.179688 " fill-opacity="1" fill-rule="nonzero"/><path fill="#000000" d="M 880.4375 993.632812 L 574.253906 993.632812 C 567.046875 993.632812 561.203125 987.796875 561.203125 980.597656 L 561.203125 975.292969 L 893.488281 975.292969 L 893.488281 980.597656 C 893.488281 987.796875 887.644531 993.632812 880.4375 993.632812 " fill-opacity="1" fill-rule="nonzero"/><path fill="#ffffff" d="M 883.617188 978.777344 L 731.148438 978.777344 C 730.121094 978.777344 729.292969 977.949219 729.292969 976.925781 C 729.292969 975.898438 730.121094 975.070312 731.148438 975.070312 L 883.617188 975.070312 C 884.636719 975.070312 885.460938 975.898438 885.460938 976.925781 C 885.460938 977.949219 884.636719 978.777344 883.617188 978.777344 " fill-opacity="1" fill-rule="nonzero"/><path fill="#000000" d="M 845.066406 532.351562 C 817 540.027344 788.027344 523.519531 780.347656 495.460938 C 772.664062 467.414062 789.183594 438.449219 817.242188 430.769531 C 845.296875 423.089844 874.273438 439.601562 881.949219 467.65625 C 889.632812 495.703125 873.121094 524.667969 845.066406 532.351562 Z M 935.945312 463.476562 L 930.539062 443.746094 L 908.210938 444.765625 C 906.144531 440.417969 903.742188 436.304688 901.042969 432.441406 L 912.863281 413.515625 L 898.304688 399.128906 L 879.476562 411.167969 C 875.570312 408.484375 871.425781 406.125 867.109375 404.117188 L 867.878906 381.789062 L 848.085938 376.601562 L 837.816406 396.410156 C 833.117188 396.050781 828.355469 396.082031 823.5625 396.511719 L 813.0625 376.789062 L 793.324219 382.195312 L 794.335938 404.515625 C 790 406.582031 785.882812 408.980469 782.019531 411.691406 L 763.082031 399.867188 L 748.695312 414.410156 L 760.738281 433.242188 C 758.046875 437.160156 755.695312 441.292969 753.6875 445.605469 L 731.355469 444.832031 L 726.164062 464.625 L 745.976562 474.890625 C 745.621094 479.589844 745.644531 484.347656 746.082031 489.144531 L 726.351562 499.640625 L 731.765625 519.371094 L 754.085938 518.355469 C 756.160156 522.699219 758.550781 526.820312 761.253906 530.671875 L 749.4375 549.597656 L 763.984375 563.984375 L 782.808594 551.945312 C 786.738281 554.632812 790.871094 556.988281 795.179688 558.996094 L 794.414062 581.335938 L 814.203125 586.523438 L 824.480469 566.707031 C 829.179688 567.074219 833.941406 567.039062 838.734375 566.601562 L 849.234375 586.328125 L 868.972656 580.921875 L 867.957031 558.609375 C 872.300781 556.535156 876.421875 554.140625 880.273438 551.425781 L 899.214844 563.238281 L 913.597656 548.707031 L 901.554688 529.882812 C 904.242188 525.957031 906.609375 521.824219 908.605469 517.519531 L 930.945312 518.28125 L 936.132812 498.496094 L 916.320312 488.226562 C 916.6875 483.535156 916.644531 478.765625 916.214844 473.972656 L 935.945312 463.476562 " fill-opacity="1" fill-rule="nonzero"/><path fill="#ffffff" d="M 845.054688 532.359375 L 845.074219 532.359375 Z M 831.21875 430.734375 C 826.714844 430.734375 822.1875 431.335938 817.722656 432.5625 C 804.632812 436.144531 793.722656 444.613281 786.988281 456.402344 C 780.269531 468.191406 778.535156 481.890625 782.125 494.984375 C 785.707031 508.074219 794.175781 518.988281 805.96875 525.703125 C 817.765625 532.429688 831.472656 534.15625 844.566406 530.574219 C 857.65625 526.984375 868.574219 518.515625 875.300781 506.734375 C 882.015625 494.933594 883.742188 481.238281 880.160156 468.152344 C 876.570312 455.054688 868.109375 444.148438 856.308594 437.421875 C 848.542969 432.992188 839.9375 430.734375 831.21875 430.734375 Z M 831.054688 536.09375 C 821.707031 536.09375 812.484375 533.675781 804.132812 528.914062 C 791.488281 521.710938 782.402344 510.003906 778.550781 495.957031 C 774.710938 481.914062 776.558594 467.210938 783.773438 454.566406 C 790.992188 441.914062 802.699219 432.839844 816.742188 428.992188 C 830.796875 425.144531 845.5 427 858.148438 434.210938 C 870.808594 441.417969 879.886719 453.132812 883.726562 467.171875 C 887.574219 481.210938 885.71875 495.914062 878.511719 508.5625 C 871.296875 521.210938 859.589844 530.289062 845.542969 534.136719 C 840.75 535.449219 835.890625 536.09375 831.054688 536.09375 Z M 796.308594 579.917969 L 813.25 584.359375 L 822.832031 565.859375 C 823.167969 565.199219 823.847656 564.800781 824.617188 564.863281 C 829.179688 565.226562 833.871094 565.191406 838.558594 564.765625 C 839.316406 564.691406 840.015625 565.085938 840.355469 565.738281 L 850.167969 584.160156 L 867.054688 579.53125 L 866.101562 558.699219 C 866.066406 557.949219 866.488281 557.261719 867.15625 556.9375 C 871.410156 554.917969 875.472656 552.558594 879.210938 549.929688 C 879.808594 549.5 880.625 549.476562 881.242188 549.867188 L 898.929688 560.898438 L 911.238281 548.460938 L 899.996094 530.882812 C 899.59375 530.253906 899.597656 529.449219 900.027344 528.835938 C 902.640625 525.015625 904.960938 520.945312 906.917969 516.738281 C 907.234375 516.066406 907.929688 515.65625 908.664062 515.675781 L 929.527344 516.386719 L 933.960938 499.460938 L 915.464844 489.875 C 914.796875 489.535156 914.410156 488.828125 914.46875 488.089844 C 914.820312 483.53125 914.785156 478.84375 914.367188 474.144531 C 914.296875 473.40625 914.683594 472.691406 915.335938 472.351562 L 933.761719 462.542969 L 929.140625 445.667969 L 908.292969 446.613281 C 907.554688 446.65625 906.859375 446.234375 906.53125 445.566406 C 904.515625 441.304688 902.152344 437.253906 899.511719 433.519531 C 899.09375 432.90625 899.066406 432.101562 899.460938 431.472656 L 910.503906 413.800781 L 898.0625 401.492188 L 880.46875 412.734375 C 879.84375 413.140625 879.046875 413.121094 878.429688 412.699219 C 874.605469 410.082031 870.53125 407.765625 866.332031 405.804688 C 865.644531 405.496094 865.234375 404.808594 865.257812 404.0625 L 865.980469 383.210938 L 849.050781 378.773438 L 839.445312 397.269531 C 839.109375 397.929688 838.433594 398.316406 837.667969 398.265625 C 833.097656 397.90625 828.410156 397.941406 823.71875 398.359375 C 822.964844 398.4375 822.265625 398.042969 821.921875 397.390625 L 812.121094 378.976562 L 795.234375 383.597656 L 796.1875 404.4375 C 796.222656 405.179688 795.800781 405.871094 795.132812 406.191406 C 790.878906 408.210938 786.824219 410.570312 783.078125 413.207031 C 782.472656 413.636719 781.671875 413.65625 781.035156 413.257812 L 763.359375 402.222656 L 751.054688 414.667969 L 762.300781 432.246094 C 762.695312 432.875 762.6875 433.679688 762.265625 434.289062 C 759.636719 438.121094 757.320312 442.191406 755.359375 446.390625 C 755.050781 447.066406 754.398438 447.480469 753.617188 447.460938 L 732.761719 446.742188 L 728.320312 463.667969 L 746.824219 473.25 C 747.484375 473.597656 747.878906 474.300781 747.820312 475.046875 C 747.46875 479.597656 747.492188 484.289062 747.921875 488.984375 C 747.992188 489.722656 747.605469 490.433594 746.941406 490.78125 L 728.527344 500.585938 L 733.148438 517.460938 L 753.996094 516.515625 C 754.726562 516.472656 755.429688 516.894531 755.746094 517.574219 C 757.773438 521.820312 760.136719 525.875 762.765625 529.613281 C 763.195312 530.21875 763.222656 531.027344 762.824219 531.65625 L 751.78125 549.335938 L 764.226562 561.632812 L 781.816406 550.394531 C 782.4375 549.992188 783.242188 550.007812 783.859375 550.425781 C 787.675781 553.046875 791.757812 555.367188 795.953125 557.324219 C 796.632812 557.640625 797.054688 558.328125 797.03125 559.066406 Z M 814.199219 588.375 C 814.046875 588.375 813.890625 588.351562 813.738281 588.308594 L 793.9375 583.117188 C 793.105469 582.914062 792.527344 582.140625 792.5625 581.273438 L 793.292969 560.15625 C 789.660156 558.40625 786.136719 556.394531 782.789062 554.160156 L 764.972656 565.550781 C 764.242188 566.023438 763.289062 565.910156 762.679688 565.308594 L 748.136719 550.925781 C 747.519531 550.308594 747.40625 549.363281 747.859375 548.632812 L 759.035156 530.726562 C 756.792969 527.4375 754.75 523.925781 752.945312 520.269531 L 731.839844 521.222656 C 730.984375 521.265625 730.203125 520.695312 729.96875 519.863281 L 724.566406 500.140625 C 724.34375 499.308594 724.714844 498.421875 725.476562 498.015625 L 744.132812 488.089844 C 743.824219 484.019531 743.792969 479.960938 744.046875 475.980469 L 725.304688 466.269531 C 724.53125 465.875 724.152344 464.996094 724.367188 464.15625 L 729.558594 444.371094 C 729.773438 443.539062 730.5625 442.988281 731.414062 442.988281 L 752.535156 443.71875 C 754.289062 440.097656 756.289062 436.574219 758.519531 433.21875 L 747.128906 415.414062 C 746.667969 414.6875 746.773438 413.730469 747.378906 413.121094 L 761.769531 398.574219 C 762.367188 397.964844 763.324219 397.855469 764.0625 398.308594 L 781.960938 409.480469 C 785.269531 407.238281 788.777344 405.1875 792.4375 403.382812 L 791.472656 382.285156 C 791.429688 381.425781 791.996094 380.644531 792.839844 380.421875 L 812.570312 375.019531 C 813.390625 374.785156 814.285156 375.164062 814.6875 375.929688 L 824.617188 394.582031 C 828.683594 394.261719 832.746094 394.238281 836.730469 394.488281 L 846.4375 375.757812 C 846.832031 374.996094 847.707031 374.597656 848.558594 374.820312 L 868.339844 380.007812 C 869.183594 380.222656 869.75 380.996094 869.726562 381.855469 L 868.996094 402.980469 C 872.621094 404.722656 876.152344 406.734375 879.5 408.964844 L 897.316406 397.578125 C 898.035156 397.113281 898.992188 397.210938 899.609375 397.820312 L 914.160156 412.210938 C 914.761719 412.8125 914.882812 413.765625 914.417969 414.503906 L 903.25 432.402344 C 905.492188 435.6875 907.535156 439.203125 909.339844 442.867188 L 930.445312 441.90625 C 931.304688 441.863281 932.085938 442.429688 932.320312 443.265625 L 937.722656 462.996094 C 937.953125 463.832031 937.566406 464.707031 936.804688 465.121094 L 918.15625 475.035156 C 918.460938 479.109375 918.496094 483.179688 918.242188 487.144531 L 936.976562 496.859375 C 937.746094 497.253906 938.136719 498.140625 937.921875 498.972656 L 932.730469 518.757812 C 932.507812 519.589844 931.8125 520.15625 930.886719 520.140625 L 909.746094 519.410156 C 908 523.039062 905.992188 526.5625 903.765625 529.914062 L 915.148438 547.714844 C 915.617188 548.445312 915.515625 549.394531 914.90625 550.007812 L 900.519531 564.550781 C 899.910156 565.171875 898.957031 565.28125 898.226562 564.816406 L 880.324219 553.65625 C 877.023438 555.890625 873.511719 557.933594 869.851562 559.746094 L 870.816406 580.84375 C 870.847656 581.703125 870.28125 582.484375 869.449219 582.714844 L 849.71875 588.121094 C 848.894531 588.339844 848.003906 587.960938 847.597656 587.207031 L 837.667969 568.554688 C 833.597656 568.863281 829.535156 568.898438 825.558594 568.640625 L 815.84375 587.378906 C 815.523438 587.996094 814.886719 588.375 814.199219 588.375 " fill-opacity="1" fill-rule="nonzero"/><path fill="#ffffff" d="M 1333.449219 170.972656 C 1320.472656 174.53125 1307.058594 166.894531 1303.496094 153.914062 C 1299.953125 140.929688 1307.589844 127.527344 1320.574219 123.96875 C 1333.558594 120.421875 1346.957031 128.058594 1350.515625 141.042969 C 1354.070312 154.023438 1346.421875 167.417969 1333.449219 170.972656 Z M 1375.5 139.109375 L 1373 129.984375 L 1362.667969 130.445312 C 1361.710938 128.441406 1360.601562 126.53125 1359.359375 124.75 L 1364.828125 115.992188 L 1358.09375 109.332031 L 1349.375 114.902344 C 1347.554688 113.660156 1345.652344 112.570312 1343.644531 111.644531 L 1344.007812 101.304688 L 1334.847656 98.910156 L 1330.09375 108.078125 C 1327.925781 107.902344 1325.726562 107.925781 1323.503906 108.121094 L 1318.640625 99.003906 L 1309.511719 101.5 L 1309.972656 111.820312 C 1307.96875 112.789062 1306.066406 113.886719 1304.28125 115.140625 L 1295.519531 109.671875 L 1288.855469 116.40625 L 1294.429688 125.121094 C 1293.1875 126.929688 1292.09375 128.839844 1291.171875 130.835938 L 1280.835938 130.488281 L 1278.429688 139.636719 L 1287.601562 144.390625 C 1287.4375 146.5625 1287.449219 148.761719 1287.644531 150.984375 L 1278.523438 155.84375 L 1281.023438 164.972656 L 1291.355469 164.5 C 1292.3125 166.511719 1293.421875 168.417969 1294.675781 170.203125 L 1289.207031 178.960938 L 1295.929688 185.613281 L 1304.648438 180.039062 C 1306.457031 181.285156 1308.382812 182.375 1310.363281 183.308594 L 1310.015625 193.636719 L 1319.175781 196.046875 L 1323.929688 186.878906 C 1326.097656 187.042969 1328.308594 187.03125 1330.519531 186.824219 L 1335.382812 195.953125 L 1344.511719 193.457031 L 1344.039062 183.121094 C 1346.054688 182.167969 1347.964844 181.058594 1349.746094 179.804688 L 1358.503906 185.273438 L 1365.15625 178.539062 L 1359.59375 169.835938 C 1360.828125 168.027344 1361.917969 166.101562 1362.855469 164.109375 L 1373.1875 164.46875 L 1375.59375 155.308594 L 1366.421875 150.5625 C 1366.59375 148.390625 1366.574219 146.183594 1366.371094 143.964844 L 1375.5 139.109375 " fill-opacity="1" fill-rule="nonzero"/><path fill="#000000" d="M 1326.992188 124.957031 C 1325.035156 124.957031 1323.046875 125.21875 1321.0625 125.761719 C 1315.257812 127.347656 1310.417969 131.105469 1307.433594 136.332031 C 1304.457031 141.550781 1303.683594 147.621094 1305.28125 153.425781 C 1308.554688 165.40625 1320.96875 172.472656 1332.953125 169.203125 C 1338.757812 167.605469 1343.59375 163.863281 1346.570312 158.632812 C 1349.558594 153.402344 1350.320312 147.335938 1348.722656 141.539062 C 1345.984375 131.546875 1336.894531 124.957031 1326.992188 124.957031 Z M 1333.445312 170.980469 L 1333.46875 170.980469 Z M 1327.011719 173.699219 C 1315.492188 173.699219 1304.902344 166.042969 1301.71875 154.402344 C 1299.867188 147.652344 1300.753906 140.582031 1304.222656 134.5 C 1307.691406 128.417969 1313.320312 124.042969 1320.085938 122.191406 C 1334.011719 118.382812 1348.472656 126.617188 1352.304688 140.5625 C 1354.148438 147.3125 1353.261719 154.382812 1349.78125 160.464844 C 1346.3125 166.546875 1340.683594 170.921875 1333.929688 172.761719 C 1331.621094 173.402344 1329.296875 173.699219 1327.011719 173.699219 Z M 1311.910156 192.234375 L 1318.210938 193.878906 L 1322.277344 186.027344 C 1322.617188 185.371094 1323.308594 184.976562 1324.058594 185.039062 C 1326.113281 185.195312 1328.238281 185.183594 1330.347656 184.988281 C 1331.109375 184.925781 1331.796875 185.304688 1332.148438 185.964844 L 1336.316406 193.785156 L 1342.59375 192.066406 L 1342.1875 183.21875 C 1342.152344 182.464844 1342.566406 181.777344 1343.246094 181.457031 C 1345.160156 180.550781 1346.992188 179.484375 1348.667969 178.296875 C 1349.289062 177.867188 1350.089844 177.847656 1350.71875 178.246094 L 1358.222656 182.929688 L 1362.804688 178.296875 L 1358.015625 170.835938 C 1357.625 170.210938 1357.636719 169.40625 1358.058594 168.789062 C 1359.242188 167.058594 1360.292969 165.230469 1361.167969 163.335938 C 1361.472656 162.667969 1362.183594 162.246094 1362.90625 162.265625 L 1371.769531 162.574219 L 1373.425781 156.273438 L 1365.5625 152.210938 C 1364.902344 151.871094 1364.511719 151.160156 1364.574219 150.421875 C 1364.726562 148.363281 1364.71875 146.253906 1364.523438 144.144531 C 1364.453125 143.398438 1364.84375 142.691406 1365.503906 142.339844 L 1373.316406 138.171875 L 1371.605469 131.894531 L 1362.742188 132.296875 C 1362.011719 132.328125 1361.3125 131.917969 1360.992188 131.25 C 1360.074219 129.324219 1359.015625 127.503906 1357.832031 125.824219 C 1357.410156 125.207031 1357.378906 124.40625 1357.769531 123.777344 L 1362.464844 116.273438 L 1357.832031 111.695312 L 1350.371094 116.46875 C 1349.730469 116.871094 1348.929688 116.859375 1348.320312 116.441406 C 1346.601562 115.257812 1344.769531 114.207031 1342.863281 113.332031 C 1342.195312 113.011719 1341.773438 112.332031 1341.804688 111.582031 L 1342.101562 102.730469 L 1335.804688 101.074219 L 1331.738281 108.9375 C 1331.386719 109.597656 1330.707031 109.988281 1329.945312 109.925781 C 1327.886719 109.757812 1325.777344 109.78125 1323.65625 109.976562 C 1322.917969 110.039062 1322.207031 109.65625 1321.867188 108.996094 L 1317.695312 101.175781 L 1311.417969 102.894531 L 1311.816406 111.746094 C 1311.859375 112.488281 1311.4375 113.175781 1310.769531 113.503906 C 1308.851562 114.410156 1307.03125 115.484375 1305.34375 116.664062 C 1304.734375 117.085938 1303.921875 117.109375 1303.292969 116.714844 L 1295.792969 112.035156 L 1291.210938 116.664062 L 1295.988281 124.125 C 1296.386719 124.753906 1296.367188 125.558594 1295.957031 126.164062 C 1294.769531 127.894531 1293.71875 129.726562 1292.847656 131.628906 C 1292.527344 132.296875 1291.855469 132.71875 1291.097656 132.6875 L 1282.246094 132.390625 L 1280.597656 138.679688 L 1288.441406 142.753906 C 1289.109375 143.09375 1289.5 143.804688 1289.441406 144.542969 C 1289.285156 146.601562 1289.296875 148.710938 1289.480469 150.820312 C 1289.550781 151.5625 1289.160156 152.273438 1288.515625 152.621094 L 1280.6875 156.789062 L 1282.40625 163.058594 L 1291.261719 162.65625 C 1291.992188 162.625 1292.703125 163.035156 1293.023438 163.71875 C 1293.929688 165.632812 1295 167.464844 1296.183594 169.140625 C 1296.605469 169.746094 1296.632812 170.550781 1296.234375 171.1875 L 1291.550781 178.6875 L 1296.171875 183.269531 L 1303.644531 178.492188 C 1304.273438 178.09375 1305.074219 178.101562 1305.691406 178.527344 C 1307.414062 179.707031 1309.242188 180.746094 1311.140625 181.632812 C 1311.816406 181.953125 1312.242188 182.628906 1312.21875 183.371094 Z M 1319.167969 197.894531 C 1319.011719 197.894531 1318.859375 197.875 1318.707031 197.832031 L 1309.53125 195.433594 C 1308.699219 195.214844 1308.125 194.445312 1308.15625 193.582031 L 1308.472656 184.453125 C 1307.15625 183.796875 1305.859375 183.050781 1304.625 182.261719 L 1296.933594 187.179688 C 1296.203125 187.644531 1295.234375 187.550781 1294.625 186.933594 L 1287.894531 180.285156 C 1287.277344 179.667969 1287.175781 178.722656 1287.628906 177.992188 L 1292.464844 170.25 C 1291.660156 169.023438 1290.898438 167.742188 1290.222656 166.414062 L 1281.101562 166.824219 C 1280.238281 166.863281 1279.464844 166.296875 1279.230469 165.464844 L 1276.726562 156.339844 C 1276.5 155.503906 1276.882812 154.621094 1277.652344 154.214844 L 1285.703125 149.925781 C 1285.621094 148.433594 1285.609375 146.953125 1285.671875 145.480469 L 1277.570312 141.28125 C 1276.808594 140.890625 1276.417969 140.015625 1276.636719 139.171875 L 1279.035156 130.023438 C 1279.261719 129.179688 1280.011719 128.613281 1280.898438 128.644531 L 1290.027344 128.953125 C 1290.683594 127.632812 1291.414062 126.347656 1292.21875 125.101562 L 1287.296875 117.40625 C 1286.824219 116.675781 1286.929688 115.730469 1287.542969 115.113281 L 1294.195312 108.378906 C 1294.804688 107.761719 1295.761719 107.660156 1296.492188 108.113281 L 1304.234375 112.941406 C 1305.457031 112.136719 1306.742188 111.386719 1308.070312 110.707031 L 1307.660156 101.589844 C 1307.617188 100.722656 1308.183594 99.953125 1309.019531 99.714844 L 1318.148438 97.214844 C 1318.972656 96.988281 1319.867188 97.367188 1320.269531 98.128906 L 1324.5625 106.199219 C 1326.054688 106.105469 1327.535156 106.097656 1329 106.160156 L 1333.199219 98.070312 C 1333.601562 97.296875 1334.476562 96.90625 1335.320312 97.121094 L 1344.472656 99.53125 C 1345.304688 99.746094 1345.878906 100.519531 1345.847656 101.382812 L 1345.542969 110.511719 C 1346.859375 111.171875 1348.144531 111.910156 1349.390625 112.703125 L 1357.089844 107.785156 C 1357.8125 107.320312 1358.769531 107.414062 1359.386719 108.019531 L 1366.109375 114.679688 C 1366.726562 115.285156 1366.835938 116.242188 1366.386719 116.976562 L 1361.558594 124.710938 C 1362.363281 125.9375 1363.101562 127.226562 1363.78125 128.550781 L 1372.910156 128.140625 C 1373.746094 128.097656 1374.546875 128.664062 1374.785156 129.496094 L 1377.289062 138.628906 C 1377.503906 139.460938 1377.132812 140.347656 1376.371094 140.746094 L 1368.300781 145.039062 C 1368.394531 146.519531 1368.402344 148.011719 1368.332031 149.472656 L 1376.433594 153.671875 C 1377.207031 154.074219 1377.597656 154.949219 1377.367188 155.78125 L 1374.972656 164.941406 C 1374.757812 165.777344 1373.953125 166.351562 1373.117188 166.320312 L 1363.988281 166.007812 C 1363.328125 167.320312 1362.597656 168.617188 1361.792969 169.859375 L 1366.714844 177.558594 C 1367.191406 178.28125 1367.074219 179.238281 1366.46875 179.851562 L 1359.820312 186.582031 C 1359.199219 187.199219 1358.253906 187.304688 1357.523438 186.851562 L 1349.78125 182.015625 C 1348.558594 182.828125 1347.269531 183.566406 1345.941406 184.257812 L 1346.355469 193.375 C 1346.394531 194.242188 1345.828125 195.011719 1344.996094 195.238281 L 1335.863281 197.738281 C 1335.042969 197.964844 1334.144531 197.59375 1333.746094 196.824219 L 1329.453125 188.765625 C 1327.960938 188.855469 1326.476562 188.867188 1325.003906 188.796875 L 1320.804688 196.894531 C 1320.484375 197.523438 1319.835938 197.894531 1319.167969 197.894531 " fill-opacity="1" fill-rule="nonzero"/><path fill="#000000" d="M 1107.621094 376.964844 C 1059.613281 390.109375 1010.027344 361.855469 996.875 313.847656 C 983.734375 265.847656 1012 216.285156 1060.007812 203.140625 C 1108.019531 190.003906 1157.601562 218.257812 1170.742188 266.257812 C 1183.894531 314.253906 1155.632812 363.824219 1107.621094 376.964844 Z M 1263.128906 259.109375 L 1253.890625 225.351562 L 1215.691406 227.085938 C 1212.148438 219.65625 1208.054688 212.601562 1203.410156 206.007812 L 1223.644531 173.617188 L 1198.753906 149.003906 L 1166.515625 169.609375 C 1159.808594 165 1152.730469 160.972656 1145.351562 157.539062 L 1146.667969 119.320312 L 1112.796875 110.449219 L 1095.222656 144.351562 C 1087.191406 143.71875 1079.042969 143.789062 1070.832031 144.527344 L 1052.863281 110.777344 L 1019.09375 120.027344 L 1020.828125 158.214844 C 1013.398438 161.753906 1006.351562 165.847656 999.746094 170.484375 L 967.355469 150.261719 L 942.726562 175.148438 L 963.332031 207.363281 C 958.738281 214.070312 954.695312 221.160156 951.273438 228.527344 L 913.035156 227.210938 L 904.171875 261.070312 L 938.070312 278.648438 C 937.449219 286.683594 937.511719 294.828125 938.257812 303.035156 L 904.488281 320.992188 L 913.738281 354.761719 L 951.9375 353.027344 C 955.480469 360.457031 959.585938 367.496094 964.222656 374.09375 L 943.996094 406.484375 L 968.886719 431.105469 L 1001.113281 410.496094 C 1007.820312 415.097656 1014.894531 419.132812 1022.269531 422.558594 L 1020.964844 460.777344 L 1054.820312 469.652344 L 1072.402344 435.75 C 1080.441406 436.382812 1088.597656 436.320312 1096.796875 435.574219 L 1114.769531 469.324219 L 1148.535156 460.085938 L 1146.796875 421.886719 C 1154.234375 418.355469 1161.285156 414.253906 1167.875 409.617188 L 1200.285156 429.839844 L 1224.902344 404.949219 L 1204.296875 372.734375 C 1208.890625 366.027344 1212.925781 358.953125 1216.363281 351.574219 L 1254.582031 352.890625 L 1263.46875 319.03125 L 1229.546875 301.460938 C 1230.179688 293.429688 1230.121094 285.273438 1229.382812 277.074219 L 1263.128906 259.109375 " fill-opacity="1" fill-rule="nonzero"/><path fill="#ffffff" d="M 1083.953125 201.761719 C 1076.121094 201.761719 1068.25 202.8125 1060.5 204.925781 C 1013.542969 217.785156 985.8125 266.433594 998.660156 313.363281 C 1011.519531 360.308594 1060.175781 388.046875 1107.128906 375.1875 L 1107.617188 376.964844 L 1107.128906 375.1875 C 1154.074219 362.332031 1181.816406 313.691406 1168.957031 266.75 C 1162.730469 244.007812 1148.019531 225.0625 1127.53125 213.378906 C 1114.027344 205.683594 1099.082031 201.761719 1083.953125 201.761719 Z M 1083.839844 382.023438 C 1043.417969 382.023438 1006.265625 355.15625 995.09375 314.347656 C 981.699219 265.441406 1010.59375 214.757812 1059.519531 201.359375 C 1083.214844 194.878906 1108.019531 198.007812 1129.371094 210.167969 C 1150.71875 222.332031 1166.03125 242.078125 1172.527344 265.769531 C 1185.917969 314.683594 1157.015625 365.367188 1108.097656 378.753906 C 1100.015625 380.972656 1091.855469 382.023438 1083.839844 382.023438 Z M 1022.851562 459.375 L 1053.855469 467.496094 L 1070.753906 434.902344 C 1071.101562 434.25 1071.785156 433.851562 1072.542969 433.914062 C 1080.414062 434.535156 1088.511719 434.476562 1096.621094 433.738281 C 1097.386719 433.667969 1098.070312 434.054688 1098.429688 434.710938 L 1115.695312 467.160156 L 1146.617188 458.699219 L 1144.945312 421.972656 C 1144.910156 421.242188 1145.332031 420.542969 1146.007812 420.226562 C 1153.347656 416.722656 1160.359375 412.65625 1166.808594 408.105469 C 1167.421875 407.6875 1168.21875 407.65625 1168.851562 408.054688 L 1200.003906 427.496094 L 1222.535156 404.714844 L 1202.722656 373.738281 C 1202.335938 373.113281 1202.335938 372.304688 1202.765625 371.691406 C 1207.292969 365.101562 1211.300781 358.066406 1214.671875 350.800781 C 1214.992188 350.128906 1215.667969 349.71875 1216.414062 349.738281 L 1253.175781 350.996094 L 1261.292969 319.996094 L 1228.703125 303.113281 C 1228.035156 302.765625 1227.648438 302.058594 1227.699219 301.324219 C 1228.324219 293.445312 1228.273438 285.339844 1227.527344 277.246094 C 1227.460938 276.507812 1227.851562 275.796875 1228.507812 275.445312 L 1260.953125 258.175781 L 1252.488281 227.269531 L 1215.769531 228.933594 C 1215.023438 228.976562 1214.335938 228.554688 1214.011719 227.894531 C 1210.515625 220.542969 1206.433594 213.542969 1201.886719 207.082031 C 1201.464844 206.472656 1201.4375 205.660156 1201.832031 205.039062 L 1221.277344 173.898438 L 1198.492188 151.359375 L 1167.515625 171.167969 C 1166.890625 171.566406 1166.082031 171.558594 1165.472656 171.136719 C 1158.867188 166.613281 1151.835938 162.605469 1144.566406 159.234375 C 1143.898438 158.914062 1143.480469 158.230469 1143.5 157.484375 L 1144.757812 120.742188 L 1113.761719 112.617188 L 1096.863281 145.207031 C 1096.527344 145.863281 1095.832031 146.261719 1095.078125 146.199219 C 1087.191406 145.585938 1079.09375 145.636719 1070.988281 146.375 C 1070.242188 146.449219 1069.546875 146.058594 1069.203125 145.402344 L 1051.921875 112.953125 L 1021.007812 121.425781 L 1022.675781 158.136719 C 1022.707031 158.882812 1022.296875 159.570312 1021.625 159.894531 C 1014.28125 163.382812 1007.277344 167.460938 1000.808594 172.007812 C 1000.207031 172.4375 999.398438 172.457031 998.765625 172.058594 L 967.617188 152.628906 L 945.074219 175.410156 L 964.882812 206.378906 C 965.292969 207.003906 965.285156 207.808594 964.855469 208.421875 C 960.335938 215.023438 956.320312 222.054688 952.945312 229.3125 C 952.628906 229.988281 951.953125 230.40625 951.195312 230.386719 L 914.453125 229.121094 L 906.328125 260.117188 L 938.917969 277.011719 C 939.582031 277.347656 939.984375 278.050781 939.917969 278.789062 C 939.296875 286.667969 939.359375 294.773438 940.09375 302.867188 C 940.15625 303.613281 939.777344 304.320312 939.113281 304.667969 L 906.667969 321.941406 L 915.128906 352.847656 L 951.847656 351.179688 C 952.574219 351.140625 953.292969 351.558594 953.609375 352.230469 C 957.105469 359.570312 961.183594 366.574219 965.722656 373.042969 C 966.152344 373.644531 966.171875 374.449219 965.785156 375.074219 L 946.339844 406.214844 L 969.125 428.75 L 1000.113281 408.945312 C 1000.738281 408.546875 1001.535156 408.554688 1002.148438 408.976562 C 1008.75 413.503906 1015.785156 417.507812 1023.054688 420.894531 C 1023.726562 421.210938 1024.144531 421.894531 1024.117188 422.628906 Z M 1054.828125 471.515625 C 1054.675781 471.515625 1054.511719 471.492188 1054.347656 471.449219 L 1020.476562 462.570312 C 1019.652344 462.355469 1019.066406 461.589844 1019.105469 460.722656 L 1020.382812 423.722656 C 1013.6875 420.542969 1007.207031 416.855469 1001.074219 412.71875 L 969.882812 432.667969 C 969.144531 433.128906 968.199219 433.035156 967.574219 432.417969 L 942.691406 407.808594 C 942.078125 407.199219 941.964844 406.246094 942.425781 405.511719 L 962.003906 374.15625 C 957.839844 368.136719 954.089844 361.675781 950.800781 354.929688 L 913.820312 356.609375 C 912.972656 356.648438 912.1875 356.085938 911.949219 355.246094 L 902.707031 321.492188 C 902.472656 320.652344 902.851562 319.773438 903.628906 319.363281 L 936.300781 301.980469 C 935.675781 294.5 935.636719 287.027344 936.136719 279.730469 L 903.308594 262.722656 C 902.546875 262.324219 902.15625 261.445312 902.371094 260.605469 L 911.246094 226.746094 C 911.46875 225.910156 912.257812 225.335938 913.09375 225.367188 L 950.113281 226.644531 C 953.292969 219.960938 956.980469 213.480469 961.121094 207.347656 L 941.167969 176.15625 C 940.695312 175.429688 940.800781 174.46875 941.414062 173.859375 L 966.03125 148.96875 C 966.640625 148.359375 967.59375 148.246094 968.320312 148.703125 L 999.691406 168.277344 C 1005.714844 164.128906 1012.175781 160.367188 1018.925781 157.085938 L 1017.246094 120.109375 C 1017.203125 119.25 1017.769531 118.472656 1018.605469 118.25 L 1052.371094 108.996094 C 1053.191406 108.773438 1054.089844 109.152344 1054.488281 109.917969 L 1071.886719 142.582031 C 1079.359375 141.96875 1086.835938 141.917969 1094.136719 142.421875 L 1111.15625 109.601562 C 1111.554688 108.835938 1112.425781 108.445312 1113.273438 108.671875 L 1147.140625 117.542969 C 1147.980469 117.757812 1148.539062 118.535156 1148.519531 119.390625 L 1147.242188 156.390625 C 1153.917969 159.570312 1160.398438 163.261719 1166.542969 167.398438 L 1197.746094 147.449219 C 1198.472656 146.988281 1199.421875 147.089844 1200.035156 147.691406 L 1224.929688 172.3125 C 1225.542969 172.917969 1225.664062 173.867188 1225.203125 174.605469 L 1205.617188 205.960938 C 1209.777344 211.976562 1213.539062 218.4375 1216.8125 225.195312 L 1253.796875 223.507812 C 1254.667969 223.476562 1255.445312 224.039062 1255.667969 224.867188 L 1264.921875 258.625 C 1265.144531 259.464844 1264.769531 260.339844 1264 260.75 L 1231.328125 278.136719 C 1231.941406 285.617188 1231.992188 293.085938 1231.492188 300.386719 L 1264.308594 317.398438 C 1265.085938 317.800781 1265.464844 318.667969 1265.25 319.507812 L 1256.371094 353.367188 C 1256.148438 354.203125 1255.359375 354.765625 1254.523438 354.746094 L 1217.515625 353.46875 C 1214.335938 360.15625 1210.636719 366.644531 1206.503906 372.777344 L 1226.449219 403.957031 C 1226.921875 404.695312 1226.820312 405.640625 1226.207031 406.257812 L 1201.589844 431.140625 C 1200.976562 431.757812 1200.023438 431.871094 1199.296875 431.410156 L 1167.925781 411.835938 C 1161.914062 415.988281 1155.453125 419.746094 1148.695312 423.027344 L 1150.382812 460.007812 C 1150.421875 460.863281 1149.847656 461.640625 1149.023438 461.875 L 1115.246094 471.113281 C 1114.425781 471.339844 1113.539062 470.960938 1113.121094 470.207031 L 1095.730469 437.53125 C 1088.246094 438.144531 1080.773438 438.195312 1073.472656 437.695312 L 1056.464844 470.511719 C 1056.132812 471.132812 1055.5 471.515625 1054.828125 471.515625 " fill-opacity="1" fill-rule="nonzero"/><path fill="#000000" d="M 1277.671875 1069.015625 L 1035.109375 1069.015625 C 1020.710938 1069.015625 1008.996094 1057.308594 1008.996094 1042.917969 L 1008.996094 1011.292969 C 1008.996094 998.945312 998.945312 988.894531 986.59375 988.894531 L 913.457031 988.894531 C 912.433594 988.894531 911.601562 988.070312 911.601562 987.046875 C 911.601562 986.027344 912.433594 985.191406 913.457031 985.191406 L 986.59375 985.191406 C 1000.988281 985.191406 1012.695312 996.902344 1012.695312 1011.292969 L 1012.695312 1042.917969 C 1012.695312 1055.265625 1022.753906 1065.3125 1035.109375 1065.3125 L 1277.671875 1065.3125 C 1290.027344 1065.3125 1300.078125 1055.265625 1300.078125 1042.917969 L 1300.078125 677.671875 C 1300.078125 676.660156 1300.910156 675.828125 1301.933594 675.828125 C 1302.953125 675.828125 1303.785156 676.660156 1303.785156 677.671875 L 1303.785156 1042.917969 C 1303.785156 1057.308594 1292.070312 1069.015625 1277.671875 1069.015625 " fill-opacity="1" fill-rule="nonzero"/><path fill="#ffffff" d="M 1366.980469 1315.699219 L 1218.019531 1315.699219 C 1218.019531 1315.699219 1197.59375 1439.886719 1286.511719 1449.789062 C 1375.414062 1459.707031 1366.980469 1315.699219 1366.980469 1315.699219 " fill-opacity="1" fill-rule="nonzero"/><path fill="#000000" d="M 1219.613281 1317.550781 C 1218.230469 1327.820312 1211.679688 1386.5625 1238.257812 1421.628906 C 1249.757812 1436.796875 1266.050781 1445.65625 1286.707031 1447.960938 C 1305.40625 1450.046875 1321.136719 1445.214844 1333.386719 1433.582031 C 1366.640625 1402.042969 1365.613281 1329.707031 1365.199219 1317.550781 Z M 1295.015625 1452.128906 C 1292.183594 1452.128906 1289.273438 1451.964844 1286.28125 1451.636719 C 1264.597656 1449.210938 1247.441406 1439.871094 1235.304688 1423.847656 C 1205.28125 1384.246094 1215.722656 1318.191406 1216.1875 1315.398438 C 1216.34375 1314.503906 1217.109375 1313.847656 1218.007812 1313.847656 L 1366.964844 1313.847656 C 1367.957031 1313.847656 1368.765625 1314.609375 1368.828125 1315.597656 C 1369.019531 1319.054688 1373.355469 1400.773438 1335.933594 1436.261719 C 1324.816406 1446.808594 1311.074219 1452.128906 1295.015625 1452.128906 " fill-opacity="1" fill-rule="nonzero"/><path fill="#000000" d="M 1320.945312 1289.222656 C 1329.082031 1289.460938 1346.429688 1289.722656 1362.753906 1278.601562 C 1368.808594 1274.488281 1385.390625 1263.1875 1383.835938 1248.328125 C 1382.511719 1235.585938 1368.222656 1223.851562 1348.84375 1221.746094 C 1371.839844 1224.46875 1390.347656 1207.242188 1390.367188 1189.441406 C 1390.398438 1175.808594 1379.570312 1162.265625 1363.585938 1157.785156 C 1388.363281 1139.0625 1401.386719 1108.886719 1397.261719 1078.941406 C 1393.261719 1049.816406 1373.09375 1021.144531 1342.632812 1012.292969 C 1338.796875 1011.179688 1305.71875 1002.113281 1281.875 1022.414062 C 1261.878906 1039.457031 1261.65625 1065.886719 1261.503906 1083.914062 C 1261.242188 1115.972656 1274.105469 1140.339844 1281.875 1152.5625 C 1280.261719 1152.453125 1263.804688 1147.046875 1248.433594 1160.699219 C 1232.777344 1174.609375 1232.003906 1206.585938 1239.644531 1219.246094 C 1247.632812 1232.488281 1266.878906 1229.6875 1270.3125 1230.652344 C 1255.910156 1243.363281 1256.410156 1253.960938 1256.566406 1255.960938 C 1258.203125 1276.640625 1295.714844 1288.484375 1320.945312 1289.222656 " fill-opacity="1" fill-rule="nonzero"/><path fill="#ffffff" d="M 1312.695312 1303.703125 C 1311.785156 1303.703125 1310.996094 1303.03125 1310.867188 1302.105469 C 1296.25 1194.128906 1330.382812 1072.4375 1330.730469 1071.226562 C 1331.003906 1070.238281 1332.042969 1069.675781 1333.007812 1069.957031 C 1333.996094 1070.234375 1334.566406 1071.257812 1334.28125 1072.230469 C 1333.933594 1073.445312 1300.023438 1194.410156 1314.53125 1301.605469 C 1314.667969 1302.613281 1313.957031 1303.546875 1312.941406 1303.6875 C 1312.863281 1303.695312 1312.78125 1303.703125 1312.695312 1303.703125 " fill-opacity="1" fill-rule="nonzero"/><path fill="#ffffff" d="M 1290.097656 1291.804688 C 1293.476562 1283.539062 1308.125 1245.324219 1289.125 1213.125 C 1285.222656 1206.503906 1272.144531 1184.355469 1253.175781 1185.917969 C 1239.03125 1187.089844 1230.109375 1200.734375 1228.136719 1203.90625 C 1233.847656 1183.132812 1223.605469 1162.101562 1206.539062 1154.835938 C 1186.355469 1146.246094 1159.550781 1158.128906 1152.121094 1183.007812 C 1147.132812 1181.589844 1133.667969 1178.527344 1120.058594 1184.953125 C 1102.15625 1193.398438 1091.367188 1214.804688 1093.824219 1238.375 C 1101.28125 1263.664062 1124.386719 1279.144531 1146.289062 1276.261719 C 1170.09375 1273.136719 1181.453125 1249.789062 1182.246094 1248.09375 C 1178.53125 1253.921875 1173.082031 1264.761719 1176.414062 1275.292969 C 1182.027344 1292.984375 1209.867188 1301.761719 1229.855469 1296.664062 C 1248.410156 1291.925781 1253.777344 1276.855469 1268.71875 1278.199219 C 1278.5625 1279.09375 1285.863281 1286.5 1290.097656 1291.804688 " fill-opacity="1" fill-rule="nonzero"/><path fill="#000000" d="M 1181.015625 1254.03125 C 1178.011719 1260.09375 1175.914062 1267.570312 1178.1875 1274.734375 C 1183.574219 1291.753906 1210.605469 1299.671875 1229.414062 1294.867188 C 1237.609375 1292.769531 1243.027344 1288.640625 1248.273438 1284.636719 C 1254.371094 1279.976562 1260.121094 1275.558594 1268.890625 1276.363281 C 1276.167969 1277.019531 1283.101562 1281.011719 1289.511719 1288.238281 C 1295.183594 1273.242188 1303.671875 1241.402344 1287.539062 1214.058594 C 1276.671875 1195.632812 1265.210938 1186.792969 1253.335938 1187.757812 C 1240.988281 1188.785156 1232.703125 1200.066406 1229.722656 1204.878906 C 1229.234375 1205.65625 1228.246094 1205.960938 1227.410156 1205.59375 C 1226.566406 1205.230469 1226.117188 1204.296875 1226.371094 1203.414062 C 1231.625 1184.269531 1222.59375 1163.683594 1205.820312 1156.539062 C 1196.726562 1152.664062 1185.886719 1153.089844 1176.089844 1157.683594 C 1165.386719 1162.707031 1157.304688 1172.132812 1153.90625 1183.53125 C 1153.613281 1184.507812 1152.613281 1185.0625 1151.625 1184.785156 C 1145.355469 1183.007812 1133.023438 1180.878906 1120.851562 1186.621094 C 1103.488281 1194.816406 1093.367188 1215.460938 1095.660156 1238.019531 C 1102.699219 1261.636719 1124.359375 1277.273438 1146.058594 1274.429688 C 1162.714844 1272.234375 1173.097656 1259.53125 1177.738281 1252.304688 C 1178.671875 1250.425781 1179.683594 1248.675781 1180.695312 1247.097656 C 1181.207031 1246.273438 1182.285156 1246 1183.140625 1246.46875 C 1183.996094 1246.9375 1184.34375 1247.984375 1183.929688 1248.871094 C 1183.789062 1249.15625 1182.828125 1251.175781 1181.015625 1254.03125 Z M 1218.039062 1299.90625 C 1199.730469 1299.90625 1179.507812 1291.144531 1174.660156 1275.847656 C 1173.300781 1271.546875 1173.261719 1267.207031 1174.019531 1263.089844 C 1167.863281 1269.707031 1158.769531 1276.484375 1146.542969 1278.09375 C 1122.992188 1281.195312 1099.554688 1264.339844 1092.058594 1238.898438 C 1092.027344 1238.789062 1091.996094 1238.683594 1091.988281 1238.566406 C 1089.472656 1214.386719 1100.4375 1192.160156 1119.28125 1183.277344 C 1131.488281 1177.515625 1143.757812 1179 1150.902344 1180.769531 C 1154.886719 1169.125 1163.402344 1159.554688 1174.515625 1154.339844 C 1185.265625 1149.285156 1197.214844 1148.851562 1207.265625 1153.136719 C 1223.378906 1159.996094 1233.015625 1178.042969 1231.363281 1196.414062 C 1236.082031 1190.964844 1243.40625 1184.875 1253.03125 1184.082031 C 1266.394531 1182.972656 1279.070312 1192.429688 1290.726562 1212.179688 C 1308.820312 1242.847656 1297.515625 1278.570312 1291.820312 1292.5 C 1291.5625 1293.105469 1291.019531 1293.539062 1290.363281 1293.628906 C 1289.714844 1293.730469 1289.066406 1293.46875 1288.660156 1292.957031 C 1282.324219 1285.027344 1275.566406 1280.675781 1268.5625 1280.042969 C 1261.21875 1279.386719 1256.507812 1283 1250.515625 1287.582031 C 1245.234375 1291.605469 1239.257812 1296.171875 1230.316406 1298.449219 C 1226.476562 1299.429688 1222.308594 1299.90625 1218.039062 1299.90625 " fill-opacity="1" fill-rule="nonzero"/><path fill="#000000" d="M 1291.589844 1302.097656 C 1290.703125 1302.097656 1289.921875 1301.464844 1289.769531 1300.5625 C 1289.355469 1298.261719 1279.210938 1243.914062 1228.507812 1224.640625 C 1192.097656 1210.800781 1159.382812 1224.660156 1150.222656 1229.230469 C 1149.3125 1229.6875 1148.199219 1229.3125 1147.742188 1228.402344 C 1147.292969 1227.484375 1147.65625 1226.378906 1148.570312 1225.921875 C 1158.074219 1221.171875 1192.011719 1206.808594 1229.8125 1221.183594 C 1282.46875 1241.203125 1292.992188 1297.53125 1293.40625 1299.925781 C 1293.589844 1300.933594 1292.914062 1301.890625 1291.90625 1302.066406 C 1291.800781 1302.089844 1291.695312 1302.097656 1291.589844 1302.097656 " fill-opacity="1" fill-rule="nonzero"/><path fill="#000000" d="M 285.253906 124.558594 C 276.785156 124.558594 269.894531 131.445312 269.894531 139.90625 C 269.894531 148.378906 276.785156 155.257812 285.253906 155.257812 C 293.71875 155.257812 300.609375 148.378906 300.609375 139.90625 C 300.609375 131.445312 293.71875 124.558594 285.253906 124.558594 Z M 285.253906 158.957031 C 274.742188 158.957031 266.199219 150.417969 266.199219 139.90625 C 266.199219 129.398438 274.742188 120.859375 285.253906 120.859375 C 295.761719 120.859375 304.308594 129.398438 304.308594 139.90625 C 304.308594 150.417969 295.761719 158.957031 285.253906 158.957031 " fill-opacity="1" fill-rule="nonzero"/><path fill="#000000" d="M 1409.53125 1294.214844 C 1408.503906 1294.214844 1407.679688 1293.382812 1407.679688 1292.371094 L 1407.679688 1277.78125 C 1407.679688 1276.765625 1408.503906 1275.9375 1409.53125 1275.9375 C 1410.554688 1275.9375 1411.378906 1276.765625 1411.378906 1277.78125 L 1411.378906 1292.371094 C 1411.378906 1293.382812 1410.554688 1294.214844 1409.53125 1294.214844 " fill-opacity="1" fill-rule="nonzero"/><path fill="#000000" d="M 1409.53125 1328.191406 C 1408.503906 1328.191406 1407.679688 1327.351562 1407.679688 1326.335938 L 1407.679688 1311.75 C 1407.679688 1310.734375 1408.503906 1309.90625 1409.53125 1309.90625 C 1410.554688 1309.90625 1411.378906 1310.734375 1411.378906 1311.75 L 1411.378906 1326.335938 C 1411.378906 1327.351562 1410.554688 1328.191406 1409.53125 1328.191406 " fill-opacity="1" fill-rule="nonzero"/><path fill="#000000" d="M 1399.832031 1303.910156 L 1385.25 1303.910156 C 1384.222656 1303.910156 1383.390625 1303.082031 1383.390625 1302.066406 C 1383.390625 1301.042969 1384.222656 1300.210938 1385.25 1300.210938 L 1399.832031 1300.210938 C 1400.847656 1300.210938 1401.679688 1301.042969 1401.679688 1302.066406 C 1401.679688 1303.082031 1400.847656 1303.910156 1399.832031 1303.910156 " fill-opacity="1" fill-rule="nonzero"/><path fill="#000000" d="M 1433.800781 1303.90625 L 1419.21875 1303.90625 C 1418.199219 1303.90625 1417.375 1303.082031 1417.375 1302.0625 C 1417.375 1301.042969 1418.199219 1300.210938 1419.21875 1300.210938 L 1433.800781 1300.210938 C 1434.828125 1300.210938 1435.65625 1301.042969 1435.65625 1302.0625 C 1435.65625 1303.082031 1434.828125 1303.90625 1433.800781 1303.90625 " fill-opacity="1" fill-rule="nonzero"/><path fill="#000000" d="M 1203.449219 83.890625 C 1202.433594 83.890625 1201.601562 83.0625 1201.601562 82.039062 L 1201.601562 67.453125 C 1201.601562 66.4375 1202.433594 65.609375 1203.449219 65.609375 C 1204.464844 65.609375 1205.296875 66.4375 1205.296875 67.453125 L 1205.296875 82.039062 C 1205.296875 83.0625 1204.464844 83.890625 1203.449219 83.890625 " fill-opacity="1" fill-rule="nonzero"/><path fill="#000000" d="M 1203.453125 117.855469 C 1202.425781 117.855469 1201.605469 117.035156 1201.605469 116.007812 L 1201.605469 101.425781 C 1201.605469 100.410156 1202.425781 99.578125 1203.453125 99.578125 C 1204.472656 99.578125 1205.296875 100.410156 1205.296875 101.425781 L 1205.296875 116.007812 C 1205.296875 117.035156 1204.472656 117.855469 1203.453125 117.855469 " fill-opacity="1" fill-rule="nonzero"/><path fill="#000000" d="M 1193.757812 93.582031 L 1179.171875 93.582031 C 1178.148438 93.582031 1177.324219 92.753906 1177.324219 91.730469 C 1177.324219 90.707031 1178.148438 89.878906 1179.171875 89.878906 L 1193.757812 89.878906 C 1194.78125 89.878906 1195.605469 90.707031 1195.605469 91.730469 C 1195.605469 92.753906 1194.78125 93.582031 1193.757812 93.582031 " fill-opacity="1" fill-rule="nonzero"/><path fill="#000000" d="M 1227.734375 93.582031 L 1213.148438 93.582031 C 1212.125 93.582031 1211.296875 92.753906 1211.296875 91.730469 C 1211.296875 90.707031 1212.125 89.878906 1213.148438 89.878906 L 1227.734375 89.878906 C 1228.757812 89.878906 1229.585938 90.707031 1229.585938 91.730469 C 1229.585938 92.753906 1228.757812 93.582031 1227.734375 93.582031 " fill-opacity="1" fill-rule="nonzero"/><path fill="#000000" d="M 282.519531 1365.3125 C 273.460938 1365.3125 266.097656 1372.679688 266.097656 1381.726562 C 266.097656 1390.78125 273.460938 1398.140625 282.519531 1398.140625 C 291.570312 1398.140625 298.9375 1390.78125 298.9375 1381.726562 C 298.9375 1372.679688 291.570312 1365.3125 282.519531 1365.3125 Z M 282.519531 1401.84375 C 271.421875 1401.84375 262.398438 1392.8125 262.398438 1381.726562 C 262.398438 1370.640625 271.421875 1361.617188 282.519531 1361.617188 C 293.613281 1361.617188 302.636719 1370.640625 302.636719 1381.726562 C 302.636719 1392.8125 293.613281 1401.84375 282.519531 1401.84375 " fill-opacity="1" fill-rule="nonzero"/><path fill="#000000" d="M 357.210938 1366.910156 C 356.792969 1366.910156 356.378906 1366.769531 356.03125 1366.484375 C 355.425781 1365.984375 294.796875 1315.363281 229.199219 1223.6875 C 228.601562 1222.859375 228.796875 1221.703125 229.625 1221.105469 C 230.457031 1220.515625 231.613281 1220.707031 232.207031 1221.542969 C 297.527344 1312.824219 357.789062 1363.140625 358.390625 1363.632812 C 359.175781 1364.289062 359.289062 1365.449219 358.636719 1366.238281 C 358.269531 1366.679688 357.742188 1366.910156 357.210938 1366.910156 " fill-opacity="1" fill-rule="nonzero"/><path fill="#000000" d="M 198.367188 1224.457031 C 197.792969 1224.457031 197.226562 1224.195312 196.863281 1223.695312 C 193.039062 1218.394531 189.207031 1212.976562 185.476562 1207.585938 C 184.894531 1206.75 185.105469 1205.59375 185.941406 1205.011719 C 186.78125 1204.429688 187.933594 1204.640625 188.519531 1205.488281 C 192.234375 1210.855469 196.050781 1216.257812 199.867188 1221.523438 C 200.464844 1222.351562 200.273438 1223.507812 199.449219 1224.105469 C 199.121094 1224.34375 198.742188 1224.457031 198.367188 1224.457031 " fill-opacity="1" fill-rule="nonzero"/><path fill="#000000" d="M 291.03125 1332.644531 C 290.589844 1332.644531 290.144531 1332.492188 289.792969 1332.171875 C 289.371094 1331.789062 247.09375 1293.179688 196.863281 1223.695312 C 196.269531 1222.871094 196.457031 1221.714844 197.28125 1221.117188 C 198.113281 1220.515625 199.265625 1220.695312 199.867188 1221.523438 C 249.871094 1290.703125 291.863281 1329.050781 292.277344 1329.433594 C 293.035156 1330.113281 293.089844 1331.285156 292.40625 1332.039062 C 292.039062 1332.441406 291.539062 1332.644531 291.03125 1332.644531 " fill-opacity="1" fill-rule="nonzero"/><path fill="#000000" d="M 48.035156 335.359375 C 47.8125 335.359375 47.589844 335.320312 47.375 335.230469 C 46.421875 334.871094 45.941406 333.796875 46.304688 332.847656 C 46.832031 331.476562 100.234375 194.808594 215.28125 151.429688 C 216.238281 151.070312 217.304688 151.558594 217.664062 152.503906 C 218.027344 153.460938 217.546875 154.535156 216.589844 154.894531 C 103.113281 197.679688 50.28125 332.808594 49.761719 334.164062 C 49.480469 334.902344 48.78125 335.359375 48.035156 335.359375 " fill-opacity="1" fill-rule="nonzero"/><path fill="#000000" d="M 48.039062 276.453125 C 47.824219 276.453125 47.613281 276.417969 47.402344 276.347656 C 46.445312 275.992188 45.949219 274.941406 46.296875 273.976562 C 46.421875 273.632812 58.996094 239.613281 92.421875 199.917969 C 123.238281 163.308594 178.636719 114.175781 267.527344 87.964844 C 268.507812 87.675781 269.535156 88.234375 269.824219 89.21875 C 270.113281 90.191406 269.554688 91.226562 268.574219 91.515625 C 180.566406 117.46875 125.742188 166.082031 95.246094 202.296875 C 62.242188 241.496094 49.898438 274.910156 49.777344 275.238281 C 49.503906 275.984375 48.792969 276.453125 48.039062 276.453125 " fill-opacity="1" fill-rule="nonzero"/></svg>