<svg xmlns="http://www.w3.org/2000/svg" xmlns:xlink="http://www.w3.org/1999/xlink" width="2000" zoomAndPan="magnify" viewBox="0 0 1500 1499.999933" height="2000" preserveAspectRatio="xMidYMid meet" version="1.0"><defs><clipPath id="11d4e0591c"><path d="M 1033 79 L 1497.113281 79 L 1497.113281 867 L 1033 867 Z M 1033 79 " clip-rule="nonzero"/></clipPath></defs><path fill="#000000" d="M 547.414062 571.238281 C 545.460938 571.238281 543.867188 569.644531 543.867188 567.6875 C 543.867188 548.308594 543.683594 528.96875 543.390625 509.601562 C 543.363281 507.648438 544.929688 506.027344 546.882812 506 C 548.6875 506.332031 550.460938 507.519531 550.488281 509.492188 C 550.785156 528.886719 550.964844 548.28125 550.964844 567.6875 C 550.964844 569.644531 549.371094 571.238281 547.414062 571.238281 Z M 545.835938 454.984375 C 543.90625 454.984375 542.328125 453.445312 542.285156 451.503906 C 541.753906 427.324219 541.339844 408.855469 541.042969 393.390625 C 540.941406 388.585938 548.078125 388.742188 548.140625 393.253906 C 548.441406 408.808594 548.816406 425.550781 549.386719 451.351562 C 549.429688 453.320312 547.875 454.941406 545.90625 454.984375 C 545.890625 454.984375 545.863281 454.984375 545.835938 454.984375 Z M 1103.507812 314.796875 L 1078.183594 314.796875 C 1073.488281 314.796875 1073.488281 307.695312 1078.183594 307.695312 L 1103.507812 307.695312 C 1105.464844 307.695312 1107.054688 309.289062 1107.054688 311.246094 C 1107.054688 313.203125 1105.464844 314.796875 1103.507812 314.796875 Z M 1020.046875 314.796875 L 961.914062 314.796875 C 957.214844 314.796875 957.21875 307.695312 961.914062 307.695312 L 1020.046875 307.695312 C 1024.746094 307.695312 1024.742188 314.796875 1020.046875 314.796875 Z M 903.761719 314.796875 L 845.625 314.796875 C 840.929688 314.796875 840.933594 307.695312 845.625 307.695312 L 903.761719 307.695312 C 908.460938 307.695312 908.457031 314.796875 903.761719 314.796875 Z M 787.492188 314.796875 L 729.355469 314.796875 C 724.660156 314.796875 724.660156 307.695312 729.355469 307.695312 L 787.492188 307.695312 C 792.1875 307.695312 792.183594 314.796875 787.492188 314.796875 Z M 671.207031 314.796875 L 613.070312 314.796875 C 608.375 314.796875 608.375 307.695312 613.070312 307.695312 L 671.207031 307.695312 C 675.902344 307.695312 675.898438 314.796875 671.207031 314.796875 Z M 671.207031 314.796875 " fill-opacity="1" fill-rule="nonzero"/><path fill="#000000" d="M 1239.175781 1222.101562 L 1229.460938 1222.101562 C 1224.765625 1222.101562 1224.769531 1215.003906 1229.460938 1215.003906 L 1235.625 1215.003906 L 1235.625 1170.125 C 1235.625 1168.167969 1237.21875 1166.574219 1239.175781 1166.574219 C 1241.132812 1166.574219 1242.726562 1168.167969 1242.726562 1170.125 L 1242.726562 1218.550781 C 1242.726562 1220.507812 1241.132812 1222.101562 1239.175781 1222.101562 Z M 1171.328125 1222.101562 L 1113.191406 1222.101562 C 1108.496094 1222.101562 1108.496094 1215.003906 1113.191406 1215.003906 L 1171.328125 1215.003906 C 1176.023438 1215.003906 1176.019531 1222.101562 1171.328125 1222.101562 Z M 1239.175781 1115.546875 C 1237.21875 1115.546875 1235.625 1113.953125 1235.625 1111.996094 L 1235.625 1053.871094 C 1235.625 1051.914062 1237.21875 1050.320312 1239.175781 1050.320312 C 1241.132812 1050.320312 1242.726562 1051.914062 1242.726562 1053.871094 L 1242.726562 1111.996094 C 1242.726562 1113.953125 1241.132812 1115.546875 1239.175781 1115.546875 Z M 1235.625 995.742188 L 1235.625 937.601562 C 1235.625 932.90625 1242.726562 932.910156 1242.726562 937.601562 L 1242.726562 995.742188 C 1242.726562 1000.4375 1235.625 1000.4375 1235.625 995.742188 Z M 1235.625 879.476562 L 1235.625 821.347656 C 1235.625 816.652344 1242.726562 816.65625 1242.726562 821.347656 L 1242.726562 879.476562 C 1242.726562 884.171875 1235.625 884.167969 1235.625 879.476562 Z M 1235.625 879.476562 " fill-opacity="1" fill-rule="nonzero"/><path fill="#19345d" d="M 1133.722656 1347.4375 C 1133 1371.957031 1132.089844 1402.863281 1132.183594 1399.925781 C 1131.742188 1410.511719 1122.039062 1418.886719 1111.335938 1413.570312 L 218.5625 1408.5 L 190.671875 1413.589844 C 187.730469 1413.578125 134.246094 1413.363281 137.515625 1413.375 C 128.910156 1413.375 122.300781 1406.980469 122.515625 1399.484375 L 125.820312 1344.132812 C 125.820312 1343.035156 125.820312 1341.925781 126.046875 1341.042969 L 165.527344 1350.3125 C 168.40625 1350.339844 216.4375 1350.78125 213.382812 1350.753906 C 216.320312 1350.742188 384.425781 1350.042969 373.933594 1350.085938 C 1124.210938 1347.535156 3.875 1351.378906 1133.722656 1347.4375 Z M 1133.722656 1347.4375 " fill-opacity="1" fill-rule="nonzero"/><path fill="#000000" d="M 213.609375 1354.273438 C 213.15625 1358.246094 211.175781 1361.554688 208.308594 1364.203125 C 207.867188 1364.859375 207.210938 1365.527344 206.542969 1365.742188 C 197.015625 1375.332031 174.917969 1371.453125 161.777344 1378.746094 C 152.074219 1384.488281 146.777344 1396.609375 148.984375 1407.636719 C 149.425781 1409.628906 150.082031 1411.609375 151.191406 1413.375 L 137.515625 1413.375 C 128.910156 1413.375 122.300781 1406.980469 122.515625 1399.484375 C 127.378906 1320.1875 122.726562 1349.382812 138.398438 1307.75 L 138.613281 1307.75 C 163.988281 1303.449219 191.308594 1316.578125 206.984375 1337.078125 C 210.078125 1341.042969 212.941406 1345.671875 213.382812 1350.753906 C 213.609375 1351.851562 213.824219 1353.175781 213.609375 1354.273438 Z M 213.609375 1354.273438 " fill-opacity="1" fill-rule="nonzero"/><path fill="#095da4" d="M 1030.496094 554.382812 L 1030.496094 1099.09375 C 1030.496094 1102.429688 1030.019531 1104.8125 1029.066406 1107.667969 C 1026.203125 1113.867188 1020.011719 1118.15625 1012.867188 1118.15625 C 1012.867188 1118.15625 236.890625 1118.15625 234.519531 1118.15625 C 204.914062 1118.15625 213.875 1060.886719 212.117188 1019.984375 C 212.117188 795.359375 212 710.601562 212.59375 615.863281 C 212.59375 593.9375 209.734375 567.730469 217.832031 547.238281 C 224.035156 531.03125 245.480469 534.847656 259.78125 534.847656 L 1012.867188 534.847656 C 1022.875 534.847656 1030.496094 543.425781 1030.496094 554.382812 Z M 1030.496094 554.382812 " fill-opacity="1" fill-rule="nonzero"/><path fill="#19345d" d="M 1030.496094 1033.804688 L 1030.496094 1099.09375 C 1030.496094 1102.429688 1030.019531 1104.8125 1029.066406 1107.667969 C 1026.203125 1113.867188 1020.011719 1118.15625 1012.867188 1118.15625 C 1012.867188 1118.15625 236.890625 1118.15625 234.519531 1118.15625 C 204.914062 1118.15625 213.875 1060.886719 212.117188 1019.984375 C 212.117188 795.359375 212 710.601562 212.59375 615.863281 C 212.59375 593.9375 209.734375 567.730469 217.832031 547.238281 C 224.035156 531.03125 245.480469 534.847656 259.78125 534.847656 L 286.464844 534.847656 C 304.105469 636.832031 337.945312 736.429688 400.863281 817.921875 C 466.632812 903.703125 561.960938 964.703125 664.445312 999.015625 C 767.394531 1033.804688 877.023438 1042.859375 985.21875 1037.140625 C 999.996094 1036.1875 1015.242188 1035.234375 1030.496094 1033.804688 Z M 1030.496094 1033.804688 " fill-opacity="1" fill-rule="nonzero"/><path fill="#f2f8fd" d="M 994.917969 595.308594 L 994.917969 1041.15625 C 994.917969 1055.804688 982.707031 1067.703125 968.058594 1067.703125 L 264.847656 1067.703125 C 260.851562 1054.730469 263.132812 1020.605469 261.792969 1000.566406 C 261.792969 834.417969 261.703125 757.242188 262.097656 687.773438 L 262.097656 655.117188 C 262.40625 636.199219 259.960938 613.921875 267.285156 595.917969 C 272.785156 582.183594 292.316406 585.542969 305.742188 585.542969 L 984.84375 585.542969 C 990.335938 585.542969 994.917969 589.8125 994.917969 595.308594 Z M 994.917969 595.308594 " fill-opacity="1" fill-rule="nonzero"/><path fill="#ffca28" d="M 994.917969 592.46875 L 994.917969 659.019531 L 262.097656 659.019531 L 262.097656 635.519531 C 262.40625 621.902344 259.960938 605.867188 267.285156 592.90625 C 272.785156 583.023438 292.316406 585.441406 305.742188 585.441406 L 984.84375 585.441406 C 990.335938 585.441406 994.917969 588.515625 994.917969 592.46875 Z M 994.917969 592.46875 " fill-opacity="1" fill-rule="nonzero"/><path fill="#d0dcee" d="M 1133.722656 1349.429688 L 1133.722656 1350.527344 C 1133.28125 1360.894531 1124.902344 1370.15625 1113.21875 1370.15625 C 1108.367188 1370.125 141.960938 1363.734375 145.679688 1363.761719 C 131.035156 1363.761719 122 1348.25 127.144531 1336.195312 C 128.296875 1333.304688 214.445312 1116.941406 208.976562 1130.671875 L 218.238281 1107.308594 L 218.238281 1107.082031 L 219.121094 1104.875 C 222.195312 1096.761719 230.074219 1091.867188 238.085938 1091.867188 L 1004.042969 1091.867188 C 1011.765625 1091.867188 1018.378906 1096.28125 1021.910156 1102.894531 C 1022.125 1103.109375 1022.125 1103.335938 1022.351562 1103.558594 L 1022.351562 1103.777344 L 1026.097656 1111.710938 L 1026.097656 1111.9375 L 1026.3125 1111.9375 C 1026.753906 1112.59375 1026.980469 1113.261719 1027.195312 1114.132812 C 1137.738281 1354.664062 1133.507812 1343.003906 1133.507812 1347.4375 C 1133.722656 1348.105469 1133.722656 1348.761719 1133.722656 1349.429688 Z M 1133.722656 1349.429688 " fill-opacity="1" fill-rule="nonzero"/><path fill="#000000" d="M 1113.21875 1372.839844 L 145.664062 1366.441406 C 129.277344 1366.441406 118.828125 1349.058594 124.671875 1335.140625 C 125.867188 1332.140625 221.613281 1091.566406 215.609375 1106.660156 C 215.636719 1106.449219 215.679688 1106.238281 215.75 1106.085938 L 216.628906 1103.878906 C 220.046875 1094.878906 228.933594 1089.179688 238.082031 1089.179688 L 1004.046875 1089.179688 C 1012.5 1089.179688 1020.035156 1093.789062 1024.210938 1101.515625 C 1024.351562 1101.710938 1024.464844 1101.894531 1024.535156 1102.019531 C 1024.925781 1102.425781 1025.007812 1102.703125 1025.039062 1103.164062 L 1028.363281 1110.222656 C 1028.417969 1110.277344 1028.476562 1110.363281 1028.53125 1110.429688 C 1029.1875 1111.394531 1029.507812 1112.347656 1029.800781 1113.464844 C 1142.421875 1358.742188 1136.402344 1341.558594 1136.402344 1349.433594 L 1136.402344 1350.523438 C 1135.886719 1363.085938 1125.699219 1372.839844 1113.21875 1372.839844 Z M 1113.234375 1367.472656 C 1123.925781 1367.472656 1130.6875 1358.796875 1131.039062 1350.414062 L 1131.039062 1349.433594 C 1131.039062 1343.761719 1139.335938 1364.175781 1024.773438 1115.253906 C 1024.546875 1114.511719 1024.410156 1114.105469 1024.296875 1113.828125 C 1023.878906 1113.449219 1023.582031 1112.960938 1023.472656 1112.429688 L 1019.921875 1104.925781 C 1019.867188 1104.785156 1019.8125 1104.632812 1019.769531 1104.492188 C 1019.753906 1104.464844 1019.742188 1104.4375 1019.726562 1104.421875 C 1016.316406 1098.136719 1010.53125 1094.542969 1004.046875 1094.542969 C 203.320312 1094.75 238.046875 1094.019531 234.210938 1095.101562 C 228.4375 1096.304688 223.699219 1100.386719 221.617188 1105.820312 L 220.863281 1107.722656 C 219.699219 1110.644531 129.117188 1338.257812 128.699219 1341.375 C 126.757812 1350.109375 134.515625 1361.074219 145.679688 1361.074219 C 1471.621094 1369.84375 1014.300781 1366.820312 1113.234375 1367.472656 Z M 1113.234375 1367.472656 " fill-opacity="1" fill-rule="nonzero"/><path fill="#ffca28" d="M 929.34375 1300.289062 L 929.34375 1302.007812 C 929.058594 1308.015625 924.195312 1313.738281 917.039062 1313.738281 C 913.964844 1313.71875 433.976562 1310.566406 437.355469 1310.589844 L 378.96875 1310.304688 L 342.332031 1309.730469 C 335.179688 1309.730469 330.316406 1304.582031 330.316406 1298.285156 L 330.316406 1296.570312 C 330.316406 1295.421875 330.878906 1294.566406 330.878906 1293.707031 C 332.054688 1290.757812 382.714844 1163.542969 379.542969 1171.515625 L 385.265625 1157.492188 L 385.550781 1156.347656 C 386.984375 1152.34375 390.414062 1149.769531 393.851562 1148.621094 L 394.710938 1148.621094 C 397.65625 1147.648438 404.261719 1148.335938 852.070312 1148.335938 C 856.933594 1148.335938 860.9375 1150.910156 862.65625 1154.917969 C 863.226562 1154.917969 863.226562 1154.917969 863.226562 1155.203125 L 865.234375 1160.070312 C 865.804688 1160.640625 865.804688 1160.929688 866.09375 1161.5 C 867.421875 1164.386719 929.539062 1299.449219 928.199219 1296.570312 C 929.058594 1298 929.34375 1298.855469 929.34375 1300.289062 Z M 929.34375 1300.289062 " fill-opacity="1" fill-rule="nonzero"/><path fill="#ff9f1c" d="M 929.414062 1300.125 L 929.414062 1301.878906 C 928.976562 1308.023438 924.152344 1313.726562 917.125 1313.726562 C 906.621094 1313.660156 434.546875 1310.640625 437.429688 1310.65625 C 434.488281 1310.628906 336.050781 1309.722656 342.195312 1309.777344 C 335.164062 1309.777344 330.34375 1304.511719 330.34375 1298.367188 L 330.34375 1296.613281 C 330.34375 1295.296875 330.78125 1294.421875 330.78125 1293.542969 C 331.960938 1290.59375 382.675781 1163.582031 379.492188 1171.550781 L 385.203125 1157.511719 L 385.644531 1156.191406 C 387.234375 1151.386719 392.234375 1148.292969 397.054688 1148.292969 L 420.316406 1148.292969 C 454.980469 1190.421875 509.402344 1216.308594 562.953125 1234.304688 C 676.617188 1272.917969 799.066406 1286.957031 918.441406 1275.550781 L 928.097656 1296.613281 C 928.976562 1297.929688 929.414062 1298.808594 929.414062 1300.125 Z M 929.414062 1300.125 " fill-opacity="1" fill-rule="nonzero"/><path fill="#f72f43" d="M 1478.785156 132.390625 L 1478.785156 813.007812 C 1478.785156 841.824219 1455.792969 865.136719 1426.964844 865.136719 L 1069.765625 865.136719 C 1040.945312 865.136719 1017.953125 841.824219 1017.953125 813.007812 L 1017.953125 132.390625 C 1017.953125 103.902344 1040.945312 80.585938 1069.765625 80.585938 L 1426.964844 80.585938 C 1455.792969 80.585938 1478.785156 103.902344 1478.785156 132.390625 Z M 1478.785156 132.390625 " fill-opacity="1" fill-rule="nonzero"/><path fill="#000000" d="M 1156.882812 865.140625 L 1069.765625 865.140625 C 1040.945312 865.140625 1017.953125 841.824219 1017.953125 813.007812 L 1017.953125 759.257812 C 1035.765625 690.613281 1023.457031 614.199219 1048.394531 547.171875 C 1060.417969 515.101562 1080.367188 499.019531 1112.191406 510.585938 C 1133.234375 518.355469 1150.410156 534.867188 1162.386719 554.296875 C 1174.050781 573.398438 1180.847656 595.417969 1186.027344 617.113281 C 1206.554688 702.210938 1205.113281 792.066406 1156.882812 865.140625 Z M 1156.882812 865.140625 " fill-opacity="1" fill-rule="nonzero"/><path fill="#095da4" d="M 1496.214844 131.726562 L 1496.214844 814.101562 C 1496.214844 842.148438 1473.582031 865.097656 1445.207031 865.097656 L 1086.273438 865.097656 C 1058.226562 865.097656 1035.273438 842.148438 1035.273438 814.101562 L 1035.273438 131.726562 C 1035.273438 103.675781 1058.226562 80.726562 1086.273438 80.726562 L 1445.207031 80.726562 C 1473.582031 80.726562 1496.214844 103.675781 1496.214844 131.726562 Z M 1496.214844 131.726562 " fill-opacity="1" fill-rule="nonzero"/><path fill="#19345d" d="M 1496.214844 812.507812 L 1496.214844 814.101562 C 1496.214844 842.148438 1473.582031 865.097656 1445.207031 865.097656 L 1086.273438 865.097656 C 1058.226562 865.097656 1035.273438 842.148438 1035.273438 814.101562 L 1035.273438 131.726562 C 1035.273438 103.675781 1058.226562 80.726562 1086.273438 80.726562 L 1096.15625 80.726562 C 1095.835938 198.652344 1098.710938 317.21875 1128.351562 431 C 1162.144531 560.71875 1234.824219 686.296875 1350.535156 754.820312 C 1395.796875 781.59375 1445.207031 798.804688 1496.214844 812.507812 Z M 1496.214844 812.507812 " fill-opacity="1" fill-rule="nonzero"/><path fill="#000000" d="M 1291.988281 812.011719 C 1291.988281 813.148438 1291.933594 814.285156 1291.820312 815.417969 C 1291.707031 816.546875 1291.542969 817.671875 1291.320312 818.789062 C 1291.097656 819.90625 1290.820312 821.007812 1290.492188 822.097656 C 1290.160156 823.183594 1289.777344 824.253906 1289.34375 825.304688 C 1288.90625 826.355469 1288.421875 827.382812 1287.882812 828.386719 C 1287.347656 829.390625 1286.765625 830.367188 1286.132812 831.3125 C 1285.5 832.257812 1284.824219 833.171875 1284.101562 834.050781 C 1283.378906 834.929688 1282.617188 835.773438 1281.8125 836.578125 C 1281.007812 837.378906 1280.164062 838.144531 1279.285156 838.867188 C 1278.40625 839.585938 1277.492188 840.265625 1276.546875 840.898438 C 1275.597656 841.527344 1274.625 842.113281 1273.621094 842.648438 C 1272.617188 843.1875 1271.589844 843.671875 1270.539062 844.105469 C 1269.488281 844.542969 1268.417969 844.925781 1267.328125 845.253906 C 1266.238281 845.585938 1265.136719 845.863281 1264.019531 846.082031 C 1262.902344 846.304688 1261.78125 846.472656 1260.648438 846.585938 C 1259.515625 846.695312 1258.378906 846.75 1257.242188 846.75 C 1256.105469 846.75 1254.96875 846.695312 1253.835938 846.585938 C 1252.703125 846.472656 1251.578125 846.304688 1250.464844 846.082031 C 1249.347656 845.863281 1248.246094 845.585938 1247.15625 845.253906 C 1246.066406 844.925781 1244.996094 844.542969 1243.945312 844.105469 C 1242.894531 843.671875 1241.867188 843.183594 1240.863281 842.648438 C 1239.859375 842.113281 1238.882812 841.527344 1237.9375 840.894531 C 1236.992188 840.265625 1236.078125 839.585938 1235.199219 838.867188 C 1234.320312 838.144531 1233.476562 837.378906 1232.671875 836.574219 C 1231.867188 835.773438 1231.105469 834.929688 1230.382812 834.050781 C 1229.660156 833.171875 1228.984375 832.257812 1228.351562 831.3125 C 1227.71875 830.367188 1227.136719 829.390625 1226.597656 828.386719 C 1226.0625 827.382812 1225.578125 826.355469 1225.140625 825.304688 C 1224.707031 824.253906 1224.324219 823.183594 1223.992188 822.097656 C 1223.664062 821.007812 1223.386719 819.90625 1223.164062 818.789062 C 1222.941406 817.671875 1222.773438 816.546875 1222.664062 815.417969 C 1222.550781 814.285156 1222.496094 813.148438 1222.496094 812.011719 C 1222.496094 810.875 1222.550781 809.738281 1222.664062 808.605469 C 1222.773438 807.472656 1222.941406 806.351562 1223.164062 805.234375 C 1223.386719 804.117188 1223.664062 803.015625 1223.992188 801.925781 C 1224.324219 800.839844 1224.707031 799.769531 1225.140625 798.714844 C 1225.578125 797.664062 1226.0625 796.636719 1226.597656 795.636719 C 1227.136719 794.632812 1227.71875 793.65625 1228.351562 792.710938 C 1228.984375 791.765625 1229.660156 790.851562 1230.382812 789.972656 C 1231.105469 789.09375 1231.867188 788.25 1232.671875 787.445312 C 1233.476562 786.640625 1234.320312 785.878906 1235.199219 785.15625 C 1236.078125 784.433594 1236.992188 783.757812 1237.9375 783.125 C 1238.882812 782.492188 1239.859375 781.910156 1240.863281 781.375 C 1241.867188 780.835938 1242.894531 780.351562 1243.945312 779.914062 C 1244.996094 779.480469 1246.066406 779.097656 1247.15625 778.765625 C 1248.246094 778.4375 1249.347656 778.160156 1250.464844 777.9375 C 1251.578125 777.714844 1252.703125 777.550781 1253.835938 777.4375 C 1254.96875 777.328125 1256.105469 777.269531 1257.242188 777.269531 C 1258.378906 777.269531 1259.515625 777.328125 1260.648438 777.4375 C 1261.78125 777.550781 1262.902344 777.714844 1264.019531 777.9375 C 1265.136719 778.160156 1266.238281 778.4375 1267.328125 778.765625 C 1268.417969 779.097656 1269.488281 779.480469 1270.539062 779.914062 C 1271.589844 780.351562 1272.617188 780.835938 1273.621094 781.375 C 1274.625 781.910156 1275.597656 782.492188 1276.546875 783.125 C 1277.492188 783.757812 1278.40625 784.433594 1279.285156 785.15625 C 1280.164062 785.878906 1281.007812 786.640625 1281.8125 787.445312 C 1282.617188 788.25 1283.378906 789.09375 1284.101562 789.972656 C 1284.824219 790.851562 1285.5 791.765625 1286.132812 792.710938 C 1286.765625 793.65625 1287.347656 794.632812 1287.882812 795.636719 C 1288.421875 796.636719 1288.90625 797.664062 1289.34375 798.714844 C 1289.777344 799.769531 1290.160156 800.839844 1290.492188 801.925781 C 1290.820312 803.015625 1291.097656 804.117188 1291.320312 805.234375 C 1291.542969 806.351562 1291.707031 807.472656 1291.820312 808.605469 C 1291.933594 809.738281 1291.988281 810.875 1291.988281 812.011719 Z M 1291.988281 812.011719 " fill-opacity="1" fill-rule="nonzero"/><path fill="#f2f8fd" d="M 1288.695312 830.996094 C 1269.597656 859.644531 1224.941406 846.296875 1224.941406 811.871094 C 1224.941406 792.597656 1240.777344 777.132812 1259.691406 777.132812 C 1286.953125 777.132812 1303.929688 807.417969 1288.695312 830.996094 Z M 1288.695312 830.996094 " fill-opacity="1" fill-rule="nonzero"/><path fill="#d0dcee" d="M 1288.695312 830.996094 C 1269.597656 859.644531 1224.941406 846.296875 1224.941406 811.871094 C 1224.941406 798.484375 1232.589844 786.691406 1244.070312 780.957031 C 1246.171875 813.191406 1257.804688 822.609375 1274.351562 828.125 C 1278.8125 829.71875 1283.917969 830.675781 1288.695312 830.996094 Z M 1288.695312 830.996094 " fill-opacity="1" fill-rule="nonzero"/><g clip-path="url(#11d4e0591c)"><path fill="#000000" d="M 1450.476562 866.605469 L 1081.132812 866.605469 C 1054.972656 866.605469 1033.6875 845.328125 1033.6875 819.167969 L 1033.6875 126.5 C 1033.6875 100.339844 1054.972656 79.0625 1081.132812 79.0625 L 1450.476562 79.0625 C 1476.636719 79.0625 1497.921875 100.339844 1497.921875 126.5 L 1497.921875 819.167969 C 1497.921875 845.328125 1476.636719 866.605469 1450.476562 866.605469 Z M 1081.132812 82.300781 C 1056.761719 82.300781 1036.929688 102.128906 1036.929688 126.5 L 1036.929688 819.167969 C 1036.929688 843.539062 1056.761719 863.367188 1081.132812 863.367188 L 1450.476562 863.367188 C 1474.847656 863.367188 1494.679688 843.539062 1494.679688 819.167969 L 1494.679688 126.5 C 1494.679688 102.128906 1474.847656 82.300781 1450.476562 82.300781 Z M 1081.132812 82.300781 " fill-opacity="1" fill-rule="nonzero"/></g><path fill="#f2f8fd" d="M 1451.097656 173.097656 L 1451.097656 722.242188 C 1451.097656 744.847656 1433.070312 763.164062 1410.171875 763.164062 L 1121.386719 763.164062 C 1098.777344 763.164062 1080.175781 744.847656 1080.175781 722.242188 L 1080.175781 173.097656 C 1080.175781 150.488281 1098.777344 131.890625 1121.386719 131.890625 L 1410.171875 131.890625 C 1433.070312 131.890625 1451.097656 150.488281 1451.097656 173.097656 Z M 1451.097656 173.097656 " fill-opacity="1" fill-rule="nonzero"/><path fill="#f2f8fd" d="M 955.78125 622.113281 C 955.78125 622.691406 955.75 623.265625 955.695312 623.839844 C 955.640625 624.414062 955.554688 624.980469 955.441406 625.546875 C 955.328125 626.113281 955.191406 626.671875 955.023438 627.222656 C 954.855469 627.773438 954.660156 628.316406 954.441406 628.847656 C 954.21875 629.382812 953.972656 629.902344 953.703125 630.410156 C 953.429688 630.917969 953.132812 631.414062 952.8125 631.890625 C 952.492188 632.371094 952.152344 632.832031 951.785156 633.277344 C 951.417969 633.722656 951.03125 634.152344 950.625 634.558594 C 950.21875 634.964844 949.789062 635.351562 949.34375 635.71875 C 948.898438 636.085938 948.4375 636.425781 947.957031 636.746094 C 947.476562 637.066406 946.984375 637.363281 946.476562 637.636719 C 945.96875 637.90625 945.445312 638.152344 944.914062 638.375 C 944.382812 638.59375 943.839844 638.789062 943.289062 638.957031 C 942.734375 639.121094 942.179688 639.261719 941.613281 639.375 C 941.046875 639.488281 940.476562 639.570312 939.902344 639.628906 C 939.328125 639.683594 938.753906 639.714844 938.179688 639.714844 C 937.601562 639.714844 937.027344 639.683594 936.453125 639.628906 C 935.878906 639.570312 935.308594 639.488281 934.746094 639.375 C 934.179688 639.261719 933.621094 639.121094 933.070312 638.957031 C 932.515625 638.789062 931.976562 638.59375 931.441406 638.375 C 930.910156 638.152344 930.390625 637.90625 929.882812 637.636719 C 929.371094 637.363281 928.878906 637.066406 928.398438 636.746094 C 927.921875 636.425781 927.457031 636.085938 927.011719 635.71875 C 926.566406 635.351562 926.140625 634.964844 925.730469 634.558594 C 925.324219 634.152344 924.9375 633.722656 924.570312 633.277344 C 924.207031 632.832031 923.863281 632.371094 923.542969 631.890625 C 923.222656 631.414062 922.925781 630.917969 922.65625 630.410156 C 922.382812 629.902344 922.136719 629.382812 921.917969 628.847656 C 921.695312 628.316406 921.5 627.773438 921.335938 627.222656 C 921.167969 626.671875 921.027344 626.113281 920.914062 625.546875 C 920.800781 624.980469 920.71875 624.414062 920.660156 623.839844 C 920.605469 623.265625 920.578125 622.691406 920.578125 622.113281 C 920.578125 621.539062 920.605469 620.960938 920.660156 620.390625 C 920.71875 619.816406 920.800781 619.246094 920.914062 618.679688 C 921.027344 618.117188 921.167969 617.558594 921.335938 617.003906 C 921.5 616.453125 921.695312 615.910156 921.917969 615.378906 C 922.136719 614.847656 922.382812 614.328125 922.65625 613.816406 C 922.925781 613.308594 923.222656 612.816406 923.542969 612.335938 C 923.863281 611.855469 924.207031 611.394531 924.570312 610.949219 C 924.9375 610.503906 925.324219 610.078125 925.730469 609.667969 C 926.140625 609.261719 926.566406 608.875 927.011719 608.511719 C 927.457031 608.144531 927.921875 607.800781 928.398438 607.480469 C 928.878906 607.160156 929.371094 606.863281 929.882812 606.59375 C 930.390625 606.320312 930.910156 606.074219 931.441406 605.855469 C 931.976562 605.632812 932.515625 605.441406 933.070312 605.273438 C 933.621094 605.105469 934.179688 604.964844 934.746094 604.851562 C 935.308594 604.742188 935.878906 604.65625 936.453125 604.601562 C 937.027344 604.542969 937.601562 604.515625 938.179688 604.515625 C 938.753906 604.515625 939.328125 604.542969 939.902344 604.601562 C 940.476562 604.65625 941.046875 604.742188 941.613281 604.851562 C 942.179688 604.964844 942.734375 605.105469 943.289062 605.273438 C 943.839844 605.441406 944.382812 605.632812 944.914062 605.855469 C 945.445312 606.074219 945.96875 606.320312 946.476562 606.59375 C 946.984375 606.863281 947.476562 607.160156 947.957031 607.480469 C 948.4375 607.800781 948.898438 608.144531 949.34375 608.511719 C 949.789062 608.875 950.21875 609.261719 950.625 609.667969 C 951.03125 610.078125 951.417969 610.503906 951.785156 610.949219 C 952.152344 611.394531 952.492188 611.855469 952.8125 612.335938 C 953.132812 612.816406 953.429688 613.308594 953.703125 613.816406 C 953.972656 614.328125 954.21875 614.847656 954.441406 615.378906 C 954.660156 615.910156 954.855469 616.453125 955.023438 617.003906 C 955.191406 617.558594 955.328125 618.117188 955.441406 618.679688 C 955.554688 619.246094 955.640625 619.816406 955.695312 620.390625 C 955.75 620.960938 955.78125 621.539062 955.78125 622.113281 Z M 955.78125 622.113281 " fill-opacity="1" fill-rule="nonzero"/><path fill="#f2f8fd" d="M 897.851562 622.113281 C 897.851562 622.691406 897.824219 623.265625 897.765625 623.839844 C 897.710938 624.414062 897.625 624.980469 897.515625 625.546875 C 897.402344 626.113281 897.261719 626.671875 897.09375 627.222656 C 896.925781 627.773438 896.734375 628.316406 896.511719 628.847656 C 896.292969 629.382812 896.046875 629.902344 895.773438 630.410156 C 895.5 630.917969 895.207031 631.414062 894.886719 631.890625 C 894.566406 632.371094 894.222656 632.832031 893.855469 633.277344 C 893.492188 633.722656 893.105469 634.152344 892.695312 634.558594 C 892.289062 634.964844 891.863281 635.351562 891.417969 635.71875 C 890.972656 636.085938 890.507812 636.425781 890.027344 636.746094 C 889.550781 637.066406 889.054688 637.363281 888.546875 637.636719 C 888.039062 637.90625 887.519531 638.152344 886.984375 638.375 C 886.453125 638.59375 885.910156 638.789062 885.359375 638.957031 C 884.808594 639.121094 884.25 639.261719 883.683594 639.375 C 883.117188 639.488281 882.550781 639.570312 881.976562 639.628906 C 881.402344 639.683594 880.828125 639.714844 880.25 639.714844 C 879.671875 639.714844 879.097656 639.683594 878.523438 639.628906 C 877.953125 639.570312 877.382812 639.488281 876.816406 639.375 C 876.25 639.261719 875.691406 639.121094 875.140625 638.957031 C 874.589844 638.789062 874.046875 638.59375 873.515625 638.375 C 872.980469 638.152344 872.460938 637.90625 871.953125 637.636719 C 871.445312 637.363281 870.949219 637.066406 870.472656 636.746094 C 869.992188 636.425781 869.53125 636.085938 869.082031 635.71875 C 868.636719 635.351562 868.210938 634.964844 867.804688 634.558594 C 867.394531 634.152344 867.007812 633.722656 866.644531 633.277344 C 866.277344 632.832031 865.933594 632.371094 865.613281 631.890625 C 865.292969 631.414062 865 630.917969 864.726562 630.410156 C 864.457031 629.902344 864.207031 629.382812 863.988281 628.847656 C 863.769531 628.316406 863.574219 627.773438 863.40625 627.222656 C 863.238281 626.671875 863.097656 626.113281 862.988281 625.546875 C 862.875 624.980469 862.789062 624.414062 862.734375 623.839844 C 862.675781 623.265625 862.648438 622.691406 862.648438 622.113281 C 862.648438 621.539062 862.675781 620.960938 862.734375 620.390625 C 862.789062 619.816406 862.875 619.246094 862.988281 618.679688 C 863.097656 618.117188 863.238281 617.558594 863.40625 617.003906 C 863.574219 616.453125 863.769531 615.910156 863.988281 615.378906 C 864.207031 614.847656 864.453125 614.328125 864.726562 613.816406 C 865 613.308594 865.292969 612.816406 865.613281 612.335938 C 865.933594 611.855469 866.277344 611.394531 866.644531 610.949219 C 867.007812 610.503906 867.394531 610.078125 867.804688 609.667969 C 868.210938 609.261719 868.636719 608.875 869.082031 608.511719 C 869.53125 608.144531 869.992188 607.800781 870.472656 607.480469 C 870.949219 607.160156 871.445312 606.863281 871.953125 606.59375 C 872.460938 606.320312 872.980469 606.074219 873.515625 605.855469 C 874.046875 605.632812 874.589844 605.441406 875.140625 605.273438 C 875.691406 605.105469 876.25 604.964844 876.816406 604.851562 C 877.382812 604.742188 877.953125 604.65625 878.523438 604.601562 C 879.097656 604.542969 879.671875 604.515625 880.25 604.515625 C 880.828125 604.515625 881.402344 604.542969 881.976562 604.601562 C 882.550781 604.65625 883.117188 604.742188 883.683594 604.851562 C 884.25 604.964844 884.808594 605.105469 885.359375 605.273438 C 885.910156 605.441406 886.453125 605.632812 886.984375 605.855469 C 887.519531 606.074219 888.039062 606.320312 888.546875 606.59375 C 889.054688 606.863281 889.550781 607.160156 890.027344 607.480469 C 890.507812 607.800781 890.972656 608.144531 891.417969 608.511719 C 891.863281 608.875 892.289062 609.261719 892.695312 609.667969 C 893.105469 610.078125 893.492188 610.503906 893.855469 610.949219 C 894.222656 611.394531 894.566406 611.855469 894.886719 612.335938 C 895.207031 612.816406 895.5 613.308594 895.773438 613.816406 C 896.046875 614.328125 896.292969 614.847656 896.511719 615.378906 C 896.734375 615.910156 896.925781 616.453125 897.09375 617.003906 C 897.261719 617.558594 897.402344 618.117188 897.515625 618.679688 C 897.625 619.246094 897.710938 619.816406 897.765625 620.390625 C 897.824219 620.960938 897.851562 621.539062 897.851562 622.113281 Z M 897.851562 622.113281 " fill-opacity="1" fill-rule="nonzero"/><path fill="#f2f8fd" d="M 839.953125 622.113281 C 839.953125 622.691406 839.925781 623.265625 839.867188 623.839844 C 839.8125 624.414062 839.726562 624.980469 839.613281 625.546875 C 839.5 626.113281 839.363281 626.671875 839.195312 627.222656 C 839.027344 627.773438 838.832031 628.316406 838.613281 628.847656 C 838.390625 629.382812 838.144531 629.902344 837.875 630.410156 C 837.601562 630.917969 837.304688 631.414062 836.984375 631.890625 C 836.664062 632.371094 836.324219 632.832031 835.957031 633.277344 C 835.589844 633.722656 835.203125 634.152344 834.796875 634.558594 C 834.390625 634.964844 833.960938 635.351562 833.515625 635.71875 C 833.070312 636.085938 832.609375 636.425781 832.128906 636.746094 C 831.648438 637.066406 831.15625 637.363281 830.648438 637.636719 C 830.140625 637.90625 829.617188 638.152344 829.085938 638.375 C 828.554688 638.59375 828.011719 638.789062 827.460938 638.957031 C 826.910156 639.121094 826.351562 639.261719 825.785156 639.375 C 825.21875 639.488281 824.648438 639.570312 824.074219 639.628906 C 823.503906 639.683594 822.925781 639.714844 822.351562 639.714844 C 821.773438 639.714844 821.199219 639.683594 820.625 639.628906 C 820.050781 639.570312 819.480469 639.488281 818.917969 639.375 C 818.351562 639.261719 817.792969 639.121094 817.242188 638.957031 C 816.6875 638.789062 816.148438 638.59375 815.613281 638.375 C 815.082031 638.152344 814.5625 637.90625 814.054688 637.636719 C 813.542969 637.363281 813.050781 637.066406 812.570312 636.746094 C 812.09375 636.425781 811.628906 636.085938 811.183594 635.71875 C 810.738281 635.351562 810.3125 634.964844 809.902344 634.558594 C 809.496094 634.152344 809.109375 633.722656 808.746094 633.277344 C 808.378906 632.832031 808.035156 632.371094 807.714844 631.890625 C 807.394531 631.414062 807.097656 630.917969 806.828125 630.410156 C 806.554688 629.902344 806.308594 629.382812 806.089844 628.847656 C 805.867188 628.316406 805.675781 627.773438 805.507812 627.222656 C 805.339844 626.671875 805.199219 626.113281 805.085938 625.546875 C 804.972656 624.980469 804.890625 624.414062 804.832031 623.839844 C 804.777344 623.265625 804.75 622.691406 804.75 622.113281 C 804.75 621.539062 804.777344 620.960938 804.832031 620.390625 C 804.890625 619.816406 804.972656 619.246094 805.085938 618.679688 C 805.199219 618.117188 805.339844 617.558594 805.507812 617.003906 C 805.675781 616.453125 805.867188 615.910156 806.089844 615.378906 C 806.308594 614.847656 806.554688 614.328125 806.828125 613.816406 C 807.097656 613.308594 807.394531 612.816406 807.714844 612.335938 C 808.035156 611.855469 808.378906 611.394531 808.746094 610.949219 C 809.109375 610.503906 809.496094 610.078125 809.902344 609.667969 C 810.3125 609.261719 810.738281 608.875 811.183594 608.511719 C 811.628906 608.144531 812.09375 607.800781 812.570312 607.480469 C 813.050781 607.160156 813.542969 606.863281 814.054688 606.59375 C 814.5625 606.320312 815.082031 606.074219 815.613281 605.855469 C 816.148438 605.632812 816.6875 605.441406 817.242188 605.273438 C 817.792969 605.105469 818.351562 604.964844 818.917969 604.851562 C 819.480469 604.742188 820.050781 604.65625 820.625 604.601562 C 821.199219 604.542969 821.773438 604.515625 822.351562 604.515625 C 822.925781 604.515625 823.503906 604.542969 824.074219 604.601562 C 824.648438 604.65625 825.21875 604.742188 825.785156 604.851562 C 826.351562 604.964844 826.910156 605.105469 827.460938 605.273438 C 828.011719 605.441406 828.554688 605.632812 829.085938 605.855469 C 829.617188 606.074219 830.140625 606.320312 830.648438 606.59375 C 831.15625 606.863281 831.648438 607.160156 832.128906 607.480469 C 832.609375 607.800781 833.070312 608.144531 833.515625 608.511719 C 833.960938 608.875 834.390625 609.261719 834.796875 609.667969 C 835.203125 610.078125 835.589844 610.503906 835.957031 610.949219 C 836.324219 611.394531 836.664062 611.855469 836.984375 612.335938 C 837.304688 612.816406 837.601562 613.308594 837.875 613.816406 C 838.144531 614.328125 838.390625 614.847656 838.613281 615.378906 C 838.832031 615.910156 839.027344 616.453125 839.195312 617.003906 C 839.363281 617.558594 839.5 618.117188 839.613281 618.679688 C 839.726562 619.246094 839.8125 619.816406 839.867188 620.390625 C 839.925781 620.960938 839.953125 621.539062 839.953125 622.113281 Z M 839.953125 622.113281 " fill-opacity="1" fill-rule="nonzero"/><path fill="#00c6c5" d="M 305.375 724.816406 L 742.15625 724.816406 L 742.15625 872.761719 L 305.375 872.761719 Z M 305.375 724.816406 " fill-opacity="1" fill-rule="nonzero"/><path fill="#f72f43" d="M 764.792969 724.816406 L 967.34375 724.816406 L 967.34375 872.761719 L 764.792969 872.761719 Z M 764.792969 724.816406 " fill-opacity="1" fill-rule="nonzero"/><path fill="#d0dcee" d="M 311.5 893.996094 L 738.464844 893.996094 L 738.464844 916.6875 L 311.5 916.6875 Z M 311.5 893.996094 " fill-opacity="1" fill-rule="nonzero"/><path fill="#d0dcee" d="M 311.5 944.960938 L 635.027344 944.960938 L 635.027344 967.65625 L 311.5 967.65625 Z M 311.5 944.960938 " fill-opacity="1" fill-rule="nonzero"/><path fill="#d0dcee" d="M 311.5 995.925781 L 516.652344 995.925781 L 516.652344 1018.621094 L 311.5 1018.621094 Z M 311.5 995.925781 " fill-opacity="1" fill-rule="nonzero"/><path fill="#d0dcee" d="M 764.792969 897.402344 L 967.34375 897.402344 L 967.34375 913.972656 L 764.792969 913.972656 Z M 764.792969 897.402344 " fill-opacity="1" fill-rule="nonzero"/><path fill="#d0dcee" d="M 764.792969 951.085938 L 967.34375 951.085938 L 967.34375 967.65625 L 764.792969 967.65625 Z M 764.792969 951.085938 " fill-opacity="1" fill-rule="nonzero"/><path fill="#d0dcee" d="M 764.792969 1004.769531 L 967.34375 1004.769531 L 967.34375 1021.339844 L 764.792969 1021.339844 Z M 764.792969 1004.769531 " fill-opacity="1" fill-rule="nonzero"/><path fill="#00c6c5" d="M 1111.191406 281.496094 L 1415.371094 281.496094 L 1415.371094 384.515625 L 1111.191406 384.515625 Z M 1111.191406 281.496094 " fill-opacity="1" fill-rule="nonzero"/><path fill="#f72f43" d="M 1110.332031 588.976562 L 1248.683594 588.976562 L 1248.683594 690.019531 L 1110.332031 690.019531 Z M 1110.332031 588.976562 " fill-opacity="1" fill-rule="nonzero"/><path fill="#d0dcee" d="M 1115.453125 447.527344 L 1412.765625 447.527344 L 1412.765625 463.324219 L 1115.453125 463.324219 Z M 1115.453125 447.527344 " fill-opacity="1" fill-rule="nonzero"/><path fill="#d0dcee" d="M 1115.453125 483.011719 L 1340.757812 483.011719 L 1340.757812 498.808594 L 1115.453125 498.808594 Z M 1115.453125 483.011719 " fill-opacity="1" fill-rule="nonzero"/><path fill="#d0dcee" d="M 1115.453125 518.523438 L 1258.328125 518.523438 L 1258.328125 534.320312 L 1115.453125 534.320312 Z M 1115.453125 518.523438 " fill-opacity="1" fill-rule="nonzero"/><path fill="#d0dcee" d="M 1270.695312 597.191406 L 1409.046875 597.191406 L 1409.046875 608.519531 L 1270.695312 608.519531 Z M 1270.695312 597.191406 " fill-opacity="1" fill-rule="nonzero"/><path fill="#d0dcee" d="M 1270.695312 633.847656 L 1409.046875 633.847656 L 1409.046875 645.179688 L 1270.695312 645.179688 Z M 1270.695312 633.847656 " fill-opacity="1" fill-rule="nonzero"/><path fill="#d0dcee" d="M 1270.695312 670.503906 L 1409.046875 670.503906 L 1409.046875 681.835938 L 1270.695312 681.835938 Z M 1270.695312 670.503906 " fill-opacity="1" fill-rule="nonzero"/><path fill="#ffca28" d="M 1451.097656 173.097656 L 1451.097656 206.003906 L 1080.175781 206.003906 L 1080.175781 173.097656 C 1080.175781 150.488281 1098.777344 131.890625 1121.386719 131.890625 L 1410.171875 131.890625 C 1433.070312 131.890625 1451.097656 150.488281 1451.097656 173.097656 Z M 1451.097656 173.097656 " fill-opacity="1" fill-rule="nonzero"/><path fill="#f2f8fd" d="M 1426.933594 170.148438 C 1426.933594 171.070312 1426.84375 171.984375 1426.664062 172.886719 C 1426.484375 173.789062 1426.21875 174.664062 1425.867188 175.515625 C 1425.515625 176.367188 1425.082031 177.175781 1424.570312 177.941406 C 1424.058594 178.707031 1423.476562 179.414062 1422.828125 180.066406 C 1422.175781 180.714844 1421.464844 181.296875 1420.699219 181.808594 C 1419.933594 182.320312 1419.128906 182.753906 1418.277344 183.105469 C 1417.425781 183.457031 1416.546875 183.722656 1415.644531 183.902344 C 1414.742188 184.082031 1413.832031 184.171875 1412.910156 184.171875 C 1411.988281 184.171875 1411.078125 184.082031 1410.171875 183.902344 C 1409.269531 183.722656 1408.394531 183.457031 1407.542969 183.105469 C 1406.691406 182.753906 1405.882812 182.320312 1405.117188 181.808594 C 1404.351562 181.296875 1403.644531 180.714844 1402.992188 180.066406 C 1402.34375 179.414062 1401.761719 178.707031 1401.25 177.941406 C 1400.738281 177.175781 1400.304688 176.367188 1399.953125 175.515625 C 1399.601562 174.664062 1399.335938 173.789062 1399.15625 172.886719 C 1398.976562 171.984375 1398.886719 171.070312 1398.886719 170.148438 C 1398.886719 169.230469 1398.976562 168.316406 1399.15625 167.414062 C 1399.335938 166.511719 1399.601562 165.632812 1399.953125 164.785156 C 1400.304688 163.933594 1400.738281 163.125 1401.25 162.359375 C 1401.761719 161.59375 1402.34375 160.886719 1402.992188 160.234375 C 1403.644531 159.582031 1404.351562 159.003906 1405.117188 158.492188 C 1405.882812 157.980469 1406.691406 157.546875 1407.542969 157.195312 C 1408.394531 156.84375 1409.269531 156.578125 1410.171875 156.398438 C 1411.078125 156.21875 1411.988281 156.128906 1412.910156 156.128906 C 1413.832031 156.128906 1414.742188 156.21875 1415.644531 156.398438 C 1416.546875 156.578125 1417.425781 156.84375 1418.277344 157.195312 C 1419.128906 157.546875 1419.933594 157.980469 1420.699219 158.492188 C 1421.464844 159.003906 1422.175781 159.582031 1422.828125 160.234375 C 1423.476562 160.886719 1424.058594 161.59375 1424.570312 162.359375 C 1425.082031 163.125 1425.515625 163.933594 1425.867188 164.785156 C 1426.21875 165.632812 1426.484375 166.511719 1426.664062 167.414062 C 1426.84375 168.316406 1426.933594 169.230469 1426.933594 170.148438 Z M 1426.933594 170.148438 " fill-opacity="1" fill-rule="nonzero"/><path fill="#f2f8fd" d="M 1375.246094 170.148438 C 1375.246094 171.070312 1375.15625 171.984375 1374.976562 172.886719 C 1374.796875 173.789062 1374.53125 174.664062 1374.175781 175.515625 C 1373.824219 176.367188 1373.394531 177.175781 1372.882812 177.941406 C 1372.371094 178.707031 1371.789062 179.414062 1371.136719 180.066406 C 1370.484375 180.714844 1369.777344 181.296875 1369.011719 181.808594 C 1368.246094 182.320312 1367.4375 182.753906 1366.585938 183.105469 C 1365.738281 183.457031 1364.859375 183.722656 1363.957031 183.902344 C 1363.054688 184.082031 1362.140625 184.171875 1361.222656 184.171875 C 1360.300781 184.171875 1359.386719 184.082031 1358.484375 183.902344 C 1357.582031 183.722656 1356.703125 183.457031 1355.855469 183.105469 C 1355.003906 182.753906 1354.195312 182.320312 1353.429688 181.808594 C 1352.664062 181.296875 1351.957031 180.714844 1351.304688 180.066406 C 1350.652344 179.414062 1350.070312 178.707031 1349.558594 177.941406 C 1349.046875 177.175781 1348.617188 176.367188 1348.265625 175.515625 C 1347.910156 174.664062 1347.644531 173.789062 1347.464844 172.886719 C 1347.285156 171.984375 1347.195312 171.070312 1347.195312 170.148438 C 1347.195312 169.230469 1347.285156 168.316406 1347.464844 167.414062 C 1347.644531 166.511719 1347.910156 165.632812 1348.265625 164.785156 C 1348.617188 163.933594 1349.046875 163.125 1349.558594 162.359375 C 1350.070312 161.59375 1350.652344 160.886719 1351.304688 160.234375 C 1351.957031 159.582031 1352.664062 159.003906 1353.429688 158.492188 C 1354.195312 157.980469 1355.003906 157.546875 1355.855469 157.195312 C 1356.703125 156.84375 1357.582031 156.578125 1358.484375 156.398438 C 1359.386719 156.21875 1360.300781 156.128906 1361.222656 156.128906 C 1362.140625 156.128906 1363.054688 156.21875 1363.957031 156.398438 C 1364.859375 156.578125 1365.738281 156.84375 1366.585938 157.195312 C 1367.4375 157.546875 1368.246094 157.980469 1369.011719 158.492188 C 1369.777344 159.003906 1370.484375 159.582031 1371.136719 160.234375 C 1371.789062 160.886719 1372.371094 161.59375 1372.882812 162.359375 C 1373.394531 163.125 1373.824219 163.933594 1374.175781 164.785156 C 1374.53125 165.632812 1374.796875 166.511719 1374.976562 167.414062 C 1375.15625 168.316406 1375.246094 169.230469 1375.246094 170.148438 Z M 1375.246094 170.148438 " fill-opacity="1" fill-rule="nonzero"/><path fill="#f2f8fd" d="M 1323.527344 170.148438 C 1323.527344 171.070312 1323.4375 171.984375 1323.257812 172.886719 C 1323.078125 173.789062 1322.8125 174.664062 1322.460938 175.515625 C 1322.105469 176.367188 1321.675781 177.175781 1321.164062 177.941406 C 1320.652344 178.707031 1320.070312 179.414062 1319.417969 180.066406 C 1318.769531 180.714844 1318.058594 181.296875 1317.292969 181.808594 C 1316.527344 182.320312 1315.71875 182.753906 1314.871094 183.105469 C 1314.019531 183.457031 1313.140625 183.722656 1312.238281 183.902344 C 1311.335938 184.082031 1310.425781 184.171875 1309.503906 184.171875 C 1308.582031 184.171875 1307.671875 184.082031 1306.765625 183.902344 C 1305.863281 183.722656 1304.988281 183.457031 1304.136719 183.105469 C 1303.285156 182.753906 1302.476562 182.320312 1301.710938 181.808594 C 1300.945312 181.296875 1300.238281 180.714844 1299.585938 180.066406 C 1298.933594 179.414062 1298.355469 178.707031 1297.84375 177.941406 C 1297.332031 177.175781 1296.898438 176.367188 1296.546875 175.515625 C 1296.195312 174.664062 1295.929688 173.789062 1295.75 172.886719 C 1295.570312 171.984375 1295.480469 171.070312 1295.480469 170.148438 C 1295.480469 169.230469 1295.570312 168.316406 1295.75 167.414062 C 1295.929688 166.511719 1296.195312 165.632812 1296.546875 164.785156 C 1296.898438 163.933594 1297.332031 163.125 1297.84375 162.359375 C 1298.355469 161.59375 1298.933594 160.886719 1299.585938 160.234375 C 1300.238281 159.582031 1300.945312 159.003906 1301.710938 158.492188 C 1302.476562 157.980469 1303.285156 157.546875 1304.136719 157.195312 C 1304.988281 156.84375 1305.863281 156.578125 1306.765625 156.398438 C 1307.671875 156.21875 1308.582031 156.128906 1309.503906 156.128906 C 1310.425781 156.128906 1311.335938 156.21875 1312.238281 156.398438 C 1313.140625 156.578125 1314.019531 156.84375 1314.871094 157.195312 C 1315.71875 157.546875 1316.527344 157.980469 1317.292969 158.492188 C 1318.058594 159.003906 1318.769531 159.582031 1319.417969 160.234375 C 1320.070312 160.886719 1320.652344 161.59375 1321.164062 162.359375 C 1321.675781 163.125 1322.105469 163.933594 1322.460938 164.785156 C 1322.8125 165.632812 1323.078125 166.511719 1323.257812 167.414062 C 1323.4375 168.316406 1323.527344 169.230469 1323.527344 170.148438 Z M 1323.527344 170.148438 " fill-opacity="1" fill-rule="nonzero"/><path fill="#28b6f4" d="M 625.386719 357.097656 C 566.421875 428.964844 449.660156 387.101562 449.660156 294.140625 C 449.660156 238.992188 494.570312 195.132812 548.6875 195.132812 C 631.566406 195.132812 678.0625 291.265625 625.386719 357.097656 Z M 625.386719 357.097656 " fill-opacity="1" fill-rule="nonzero"/><path fill="#095da4" d="M 625.386719 357.097656 C 566.421875 428.964844 449.660156 387.101562 449.660156 294.140625 C 449.660156 257.515625 469.695312 225.179688 499.460938 208.292969 C 494.882812 230.042969 494.882812 252.648438 499.175781 274.398438 C 510.796875 335.449219 550.238281 360.503906 611.363281 357.957031 C 615.949219 357.671875 620.8125 357.386719 625.386719 357.097656 Z M 625.386719 357.097656 " fill-opacity="1" fill-rule="nonzero"/><path fill="#f2f8fd" d="M 529.402344 350.550781 L 493.585938 309.835938 C 490.605469 306.453125 490.941406 301.285156 494.324219 298.308594 C 497.691406 295.34375 502.847656 295.667969 505.855469 299.046875 L 534.867188 332.039062 L 590.136719 254.433594 C 592.734375 250.773438 597.808594 249.890625 601.527344 252.519531 C 605.203125 255.132812 606.054688 260.230469 603.441406 263.90625 L 542.1875 349.894531 C 539.15625 354.121094 532.945312 354.535156 529.402344 350.550781 Z M 529.402344 350.550781 " fill-opacity="1" fill-rule="nonzero"/><path fill="#000000" d="M 929.34375 1300.289062 L 929.34375 1302.007812 C 929.058594 1308.015625 924.195312 1313.738281 917.039062 1313.738281 C 913.964844 1313.71875 433.976562 1310.566406 437.355469 1310.589844 L 378.96875 1310.304688 L 342.332031 1309.730469 C 335.179688 1309.730469 330.316406 1304.582031 330.316406 1298.285156 L 330.316406 1296.570312 C 330.316406 1295.421875 330.878906 1294.566406 330.878906 1293.707031 C 332.054688 1290.757812 382.714844 1163.542969 379.542969 1171.515625 L 385.265625 1157.492188 L 385.550781 1156.347656 C 386.984375 1152.34375 390.414062 1149.769531 393.851562 1148.621094 L 394.710938 1148.621094 C 441.074219 1216.15625 516.347656 1261.65625 596.769531 1277.394531 C 640.738281 1286.1875 662.507812 1285.710938 927.625 1295.136719 L 928.199219 1296.570312 C 929.058594 1298 929.34375 1298.855469 929.34375 1300.289062 Z M 929.34375 1300.289062 " fill-opacity="1" fill-rule="nonzero"/></svg>