<svg xmlns="http://www.w3.org/2000/svg" xmlns:xlink="http://www.w3.org/1999/xlink" width="2000" zoomAndPan="magnify" viewBox="0 0 1500 1499.999933" height="2000" preserveAspectRatio="xMidYMid meet" version="1.0"><defs><clipPath id="e929c7969a"><path d="M 2 45.210938 L 1500 45.210938 L 1500 1454 L 2 1454 Z M 2 45.210938 " clip-rule="nonzero"/></clipPath></defs><g clip-path="url(#e929c7969a)"><path fill="#fbeeec" d="M 1500.101562 1324.867188 C 1500.101562 1331.074219 1495.214844 1336.183594 1489.011719 1336.457031 L 1338.730469 1335.964844 C 1332.425781 1307.59375 1337.070312 1285.058594 1337.355469 1283.71875 L 1324.441406 1287.761719 L 1307.757812 1227.371094 L 1297.972656 1384.34375 L 1279.574219 1384.066406 L 1279.519531 1384.347656 L 1286.65625 1389.054688 L 1320.5625 1411.433594 C 1327.828125 1415.519531 1335.46875 1418.898438 1343.382812 1421.523438 L 1372.445312 1431.15625 C 1377.191406 1432.730469 1380.398438 1437.171875 1380.398438 1442.175781 C 1380.398438 1448.382812 1375.511719 1453.492188 1369.308594 1453.765625 L 1219.027344 1453.273438 C 1212.527344 1424.023438 1217.679688 1400.898438 1217.679688 1400.898438 L 1217.277344 1383.125 L 1216.269531 1338.839844 L 999.015625 1338.839844 L 999.015625 1340.304688 L 1055.820312 1340.304688 C 1086.722656 1340.304688 1112.507812 1362.105469 1118.6875 1391.160156 C 1132.351562 1394.582031 1142.484375 1406.910156 1142.484375 1421.632812 C 1142.484375 1439 1128.402344 1453.082031 1111.027344 1453.082031 C 1093.652344 1453.082031 1079.570312 1439.003906 1079.570312 1421.632812 C 1079.570312 1410.023438 1085.875 1399.914062 1095.234375 1394.460938 C 1090.710938 1376.894531 1074.78125 1363.855469 1055.820312 1363.855469 L 918.019531 1363.855469 C 899.121094 1363.855469 883.234375 1376.804688 878.652344 1394.277344 C 888.175781 1399.683594 894.613281 1409.898438 894.613281 1421.628906 C 894.613281 1438.996094 880.53125 1453.078125 863.15625 1453.078125 C 845.785156 1453.078125 831.699219 1439 831.699219 1421.628906 C 831.699219 1407.039062 841.648438 1394.804688 855.125 1391.253906 C 861.269531 1362.152344 887.082031 1340.304688 918.015625 1340.304688 L 975.164062 1340.304688 L 975.164062 1338.839844 L 303.867188 1338.839844 L 200.085938 853.90625 L 65.261719 983.320312 C 54.460938 993.6875 37.296875 993.335938 26.929688 982.539062 L 10.480469 965.410156 C 0.113281 954.613281 0.460938 937.457031 11.261719 927.085938 L 180.902344 764.261719 L 27.15625 45.875 L 998.570312 45.875 L 1114.980469 589.800781 L 1119.863281 589.75 C 1126.542969 589.679688 1132.851562 592.808594 1136.835938 598.167969 L 1140.484375 603.074219 C 1144.433594 608.386719 1147.109375 614.53125 1148.308594 621.035156 L 1153.300781 648.113281 C 1153.300781 648.113281 1231.636719 740.394531 1240.640625 784.976562 C 1247.597656 819.421875 1233.476562 836.367188 1192.808594 831.28125 C 1184.367188 830.226562 1175.027344 827.90625 1165.261719 824.757812 L 1182.925781 907.308594 C 1226.074219 898.777344 1275.023438 889.597656 1284.746094 889.847656 C 1284.753906 889.847656 1284.761719 889.84375 1284.769531 889.84375 C 1286.878906 889.828125 1288.925781 890.050781 1290.925781 890.464844 C 1324.894531 895.910156 1335.132812 939.320312 1347.78125 1004.757812 C 1347.785156 1004.785156 1347.789062 1004.8125 1347.796875 1004.839844 C 1359.128906 1063.5 1396.449219 1265.195312 1396.449219 1265.207031 L 1406.355469 1271.746094 L 1440.253906 1294.121094 C 1447.519531 1298.210938 1455.164062 1301.585938 1463.078125 1304.210938 L 1492.136719 1313.847656 C 1496.894531 1315.421875 1500.101562 1319.863281 1500.101562 1324.867188 Z M 1500.101562 1324.867188 " fill-opacity="1" fill-rule="nonzero"/></g><path fill="#fec045" d="M 579.160156 942.148438 L 638.203125 1218.03125 L 360.71875 1218.03125 L 301.675781 942.148438 Z M 229.789062 618.230469 L 247.382812 700.445312 L 333.039062 618.230469 Z M 518.773438 671.972656 C 488.988281 662.789062 460.539062 648.292969 434.949219 628.476562 L 266.570312 790.09375 L 288.828125 894.113281 L 566.3125 894.113281 Z M 380.945312 572.242188 C 322.839844 490.570312 316.722656 383.589844 361.582031 296.644531 L 161.742188 296.644531 L 220.785156 572.527344 L 380.652344 572.527344 Z M 1240.644531 784.980469 C 1231.640625 740.394531 1153.304688 648.117188 1153.304688 648.117188 L 1101.378906 661.695312 L 1069.164062 640.28125 L 1036.167969 627.445312 C 1032.9375 626.1875 1031.929688 622.109375 1034.203125 619.492188 L 1035.667969 617.804688 C 1036.191406 617.203125 1036.808594 616.710938 1037.421875 616.222656 C 1037.394531 616.21875 1037.363281 616.214844 1037.332031 616.210938 C 1036.644531 616.113281 1035.894531 616.03125 1035.101562 615.957031 C 1034.972656 615.949219 1034.835938 615.941406 1034.707031 615.929688 C 1029.519531 615.492188 1022.703125 615.554688 1019.566406 615.519531 L 956.652344 615.308594 C 956.652344 615.308594 920.96875 619.417969 888.304688 636.320312 C 875.730469 642.828125 863.628906 651.238281 854.160156 662.039062 C 853.488281 662.804688 852.804688 663.558594 852.164062 664.347656 C 851.5625 665.082031 850.953125 665.878906 850.34375 666.648438 C 841.820312 677.484375 832.621094 691.734375 823.59375 707.570312 C 822.726562 709.097656 821.855469 710.628906 820.992188 712.179688 C 813.613281 725.425781 806.429688 739.597656 799.894531 753.675781 C 799.183594 755.21875 798.476562 756.753906 797.777344 758.289062 C 796.082031 762.011719 794.429688 765.726562 792.847656 769.40625 C 779.847656 799.601562 770.859375 827.472656 770.859375 842.304688 C 770.863281 863.890625 791.261719 872.019531 806.140625 873.820312 C 810.574219 874.359375 815.277344 874.796875 820.144531 875.160156 C 843.035156 876.867188 869.804688 876.738281 892.457031 875.59375 L 892.03125 921.484375 L 934.75 921.484375 L 944.414062 873.203125 L 926.453125 872.703125 L 926.878906 819.609375 L 960.734375 791.660156 L 980.871094 691.042969 L 1159.265625 691.042969 L 1134.847656 813.042969 C 1145.125 817.546875 1155.410156 821.585938 1165.261719 824.761719 C 1175.027344 827.90625 1184.367188 830.226562 1192.8125 831.28125 C 1233.480469 836.367188 1247.601562 819.425781 1240.644531 784.980469 Z M 960.734375 791.664062 L 960.683594 791.917969 Z M 960.734375 791.664062 " fill-opacity="1" fill-rule="nonzero"/><path fill="#7b95f9" d="M 674.539062 196.578125 L 456.886719 606.765625 C 446.703125 599.160156 436.953125 590.714844 427.859375 581.246094 C 426.300781 579.625 424.835938 577.945312 423.335938 576.292969 L 630.457031 185.933594 C 645.398438 188.046875 660.160156 191.597656 674.539062 196.578125 Z M 456.871094 606.796875 C 457.753906 607.453125 458.628906 608.117188 459.515625 608.761719 C 458.628906 608.117188 457.769531 607.421875 456.886719 606.765625 Z M 420.050781 572.640625 C 420.804688 573.503906 421.582031 574.355469 422.351562 575.210938 C 421.570312 574.339844 420.855469 573.4375 420.09375 572.5625 Z M 434.628906 249.011719 C 343.820312 336.175781 338.339844 478.648438 420.089844 572.5625 L 625.597656 185.25 C 558.046875 177.128906 487.539062 198.230469 434.628906 249.011719 Z M 604.34375 653.34375 C 605.921875 653.296875 607.496094 653.214844 609.070312 653.132812 C 607.511719 653.210938 605.945312 653.222656 604.382812 653.265625 Z M 766.9375 255.78125 C 741.464844 229.253906 711.230469 210.125 678.894531 198.203125 L 460.621094 609.570312 C 503.28125 640.164062 553.980469 654.753906 604.378906 653.269531 L 795.78125 292.546875 C 787.546875 279.609375 777.96875 267.269531 766.9375 255.78125 Z M 795.789062 292.535156 L 795.785156 292.542969 C 796.089844 293.023438 796.425781 293.488281 796.730469 293.96875 C 796.425781 293.484375 796.09375 293.015625 795.789062 292.535156 Z M 675.871094 197.039062 C 676.886719 197.398438 677.882812 197.832031 678.894531 198.203125 L 678.9375 198.125 C 677.921875 197.75 676.894531 197.402344 675.871094 197.039062 Z M 609.695312 653.101562 C 664.101562 650.273438 717.785156 628.699219 760.167969 588.015625 C 840.972656 510.453125 854.238281 389.070312 798.589844 297.089844 Z M 1084.183594 691.046875 L 980.871094 691.046875 L 960.683594 791.917969 L 956.652344 812.0625 L 993.886719 813.324219 L 1035.101562 812.578125 C 1039.589844 812.496094 1043.355469 815.953125 1043.660156 820.429688 C 1043.894531 823.929688 1042.097656 827.25 1039.039062 828.964844 L 1031.9375 832.945312 L 1019.886719 857.84375 C 1017.441406 862.902344 1012.859375 866.605469 1007.398438 867.9375 L 990.34375 872.09375 C 984.519531 873.515625 978.53125 874.148438 972.539062 873.984375 L 944.414062 873.203125 L 934.753906 921.476562 L 1113.148438 921.476562 L 1134.851562 813.046875 L 1159.269531 691.046875 Z M 1084.183594 691.046875 " fill-opacity="1" fill-rule="nonzero"/><path fill="#f26b6d" d="M 774.796875 615.921875 C 776.96875 613.96875 779.160156 612.042969 781.285156 610.003906 C 841.945312 551.78125 868.824219 471.457031 861.5625 393.617188 C 861.421875 392.082031 861.277344 390.542969 861.105469 389.007812 C 859.558594 375.03125 856.945312 361.152344 853.183594 347.511719 C 852.757812 345.964844 852.253906 344.441406 851.800781 342.898438 C 847.613281 328.738281 842.261719 314.847656 835.664062 301.402344 C 834.902344 299.855469 834.105469 298.328125 833.3125 296.792969 C 821.859375 274.574219 807.109375 253.601562 788.929688 234.675781 C 746.195312 190.171875 691.546875 163.890625 634.722656 155.878906 C 609.9375 152.386719 584.753906 152.378906 559.945312 155.878906 C 506.675781 163.398438 455.195312 187.015625 413.511719 227.027344 C 391.886719 247.785156 374.617188 271.382812 361.582031 296.648438 C 316.722656 383.59375 322.839844 490.574219 380.945312 572.246094 L 380.648438 572.53125 L 333.039062 618.230469 L 247.382812 700.445312 L 180.898438 764.261719 L 11.261719 927.085938 C 0.460938 937.457031 0.109375 954.613281 10.480469 965.410156 L 26.925781 982.539062 C 37.296875 993.335938 54.457031 993.6875 65.257812 983.320312 L 200.082031 853.90625 L 266.570312 790.09375 L 434.945312 628.476562 C 460.539062 648.292969 488.988281 662.789062 518.769531 671.972656 C 575.105469 689.335938 636.191406 687.648438 691.710938 666.644531 C 695.519531 665.203125 699.296875 663.65625 703.050781 662.03125 C 726.683594 651.816406 749.128906 637.980469 769.578125 620.535156 C 771.339844 619.035156 773.066406 617.476562 774.796875 615.921875 Z M 609.695312 653.101562 L 609.691406 653.105469 C 609.484375 653.117188 609.277344 653.125 609.070312 653.132812 C 557.136719 655.695312 504.609375 641.113281 460.625 609.566406 L 460.621094 609.578125 C 460.25 609.3125 459.886719 609.027344 459.515625 608.757812 C 448.363281 600.660156 437.738281 591.53125 427.859375 581.242188 C 426.300781 579.621094 424.835938 577.941406 423.335938 576.289062 L 423.328125 576.300781 C 422.996094 575.941406 422.675781 575.570312 422.347656 575.210938 C 338.191406 481.34375 342.972656 336.988281 434.628906 249.011719 C 487.535156 198.226562 558.046875 177.128906 625.597656 185.25 L 625.605469 185.242188 C 627.230469 185.433594 628.84375 185.691406 630.464844 185.921875 L 630.460938 185.933594 C 645.402344 188.042969 660.164062 191.59375 674.539062 196.574219 L 674.542969 196.5625 C 674.988281 196.71875 675.429688 196.875 675.871094 197.035156 C 709.355469 208.859375 740.667969 228.421875 766.9375 255.777344 C 778.378906 267.6875 788.296875 280.5 796.730469 293.964844 C 797.371094 294.988281 797.984375 296.023438 798.609375 297.054688 L 798.59375 297.089844 C 854.238281 389.066406 840.976562 510.449219 760.171875 588.011719 C 717.785156 628.699219 664.097656 650.273438 609.695312 653.101562 Z M 1173.664062 1105.035156 C 1178.800781 1111.085938 1181.910156 1118.910156 1181.910156 1127.472656 C 1181.910156 1146.644531 1166.363281 1162.1875 1147.1875 1162.1875 L 823.695312 1162.1875 L 822.589844 1162.472656 L 813.773438 1128.3125 L 812.585938 1123.703125 L 801.871094 1082.207031 L 800.683594 1077.597656 L 789.972656 1036.101562 L 788.777344 1031.488281 L 778.164062 990.371094 L 776.976562 985.761719 L 766.261719 944.265625 L 765.074219 939.652344 L 730.160156 804.390625 L 728.972656 799.78125 L 724.976562 784.304688 C 722.609375 775.136719 724.144531 765.882812 728.535156 758.285156 C 729.472656 756.660156 730.558594 755.128906 731.746094 753.675781 C 736.261719 748.148438 742.480469 743.933594 749.921875 742.019531 C 763.449219 738.527344 777.148438 743.535156 785.457031 753.675781 C 786.636719 755.113281 787.699219 756.648438 788.644531 758.285156 C 790.179688 760.945312 791.414062 763.835938 792.222656 766.957031 L 792.851562 769.402344 C 779.851562 799.597656 770.863281 827.472656 770.863281 842.300781 C 770.863281 863.890625 791.261719 872.015625 806.144531 873.816406 C 810.578125 874.355469 815.28125 874.792969 820.148438 875.15625 L 836.796875 939.65625 L 837.988281 944.265625 L 848.699219 985.761719 L 849.886719 990.375 L 860.503906 1031.492188 L 861.695312 1036.101562 L 872.40625 1077.597656 L 873.597656 1082.210938 L 876.320312 1092.757812 L 943.460938 1092.757812 C 1002.992188 1111.773438 1115.34375 1108.417969 1173.664062 1105.035156 Z M 1406.363281 1271.746094 C 1401.058594 1276.496094 1395.605469 1283.527344 1392.804688 1293.632812 L 1337.625 1283.632812 L 1396.457031 1265.207031 C 1396.453125 1265.199219 1359.136719 1063.5 1347.804688 1004.84375 C 1347.796875 1004.816406 1347.792969 1004.792969 1347.789062 1004.765625 C 1347.792969 1004.792969 1347.796875 1004.816406 1347.804688 1004.847656 C 1359.136719 1063.503906 1396.457031 1265.199219 1396.457031 1265.210938 Z M 1284.777344 889.847656 C 1286.886719 889.832031 1288.933594 890.054688 1290.933594 890.46875 C 1288.945312 890.148438 1286.910156 889.910156 1284.753906 889.855469 C 1284.761719 889.851562 1284.769531 889.847656 1284.777344 889.847656 Z M 1279.519531 1384.347656 L 1286.65625 1389.054688 C 1281.355469 1393.804688 1275.902344 1400.835938 1273.101562 1410.941406 L 1217.675781 1400.898438 L 1217.269531 1383.125 L 1279.566406 1384.066406 Z M 1046.769531 613.472656 C 1043.378906 613.09375 1040.050781 614.140625 1037.421875 616.21875 C 1036.808594 616.707031 1036.191406 617.199219 1035.667969 617.800781 L 1034.203125 619.488281 C 1031.929688 622.101562 1032.9375 626.183594 1036.167969 627.441406 L 1069.164062 640.277344 L 1101.378906 661.691406 L 1153.304688 648.109375 L 1148.3125 621.035156 C 1147.113281 614.527344 1144.433594 608.382812 1140.488281 603.074219 L 1136.835938 598.164062 C 1132.855469 592.804688 1126.546875 589.675781 1119.867188 589.746094 L 1114.980469 589.796875 L 1082.660156 590.132812 C 1075.925781 590.203125 1070.277344 595.238281 1069.4375 601.917969 L 1069.285156 603.125 L 1069.246094 603.144531 L 1069.160156 603.949219 L 1067.574219 619.628906 L 1053.746094 614.253906 Z M 1130.726562 627.882812 L 1149.464844 643.3125 L 1125.21875 642.039062 L 1092.195312 629.203125 C 1096.855469 628.238281 1101.976562 621.476562 1104.519531 617.695312 Z M 920.042969 553.539062 C 916.515625 544.132812 921.21875 530.675781 934.753906 531.058594 C 935.539062 531.078125 936.34375 531.128906 937.1875 531.25 C 939.355469 531.554688 941.3125 532.109375 943.105469 532.816406 L 966.9375 493.566406 C 1002.820312 492.128906 1023.546875 519.035156 1031.683594 532.625 C 1033.347656 532.007812 1035.164062 531.53125 1037.136719 531.25 C 1037.769531 531.160156 1038.363281 531.140625 1038.960938 531.109375 C 1052.953125 530.308594 1057.859375 544 1054.28125 553.542969 C 1050.136719 564.597656 1041.636719 569.019531 1035.457031 570.804688 C 1034.726562 577.257812 1032.398438 583.21875 1028.875 588.292969 L 1010.777344 581.257812 C 1006.871094 579.738281 1002.46875 581.675781 1000.945312 585.585938 C 1000.394531 587.003906 1000.3125 588.488281 1000.597656 589.875 C 1001.105469 592.308594 1002.785156 594.445312 1005.273438 595.414062 L 1019.570312 600.972656 L 1019.570312 615.519531 L 956.652344 615.308594 L 956.652344 597.695312 C 948.140625 591.628906 942.226562 582.191406 940.84375 571.320312 C 936.695312 570.394531 930.878906 568.21875 926.074219 563.214844 C 923.699219 560.734375 921.566406 557.605469 920.042969 553.539062 Z M 960.683594 791.917969 L 956.652344 812.0625 L 993.886719 813.324219 L 1035.101562 812.578125 C 1039.589844 812.496094 1043.355469 815.953125 1043.660156 820.429688 C 1043.894531 823.929688 1042.097656 827.25 1039.039062 828.964844 L 1031.9375 832.945312 L 1019.886719 857.84375 C 1017.441406 862.902344 1012.859375 866.605469 1007.398438 867.9375 L 990.34375 872.09375 C 984.519531 873.515625 978.53125 874.148438 972.539062 873.984375 L 944.414062 873.203125 L 926.453125 872.703125 L 926.878906 819.609375 L 960.734375 791.660156 Z M 960.683594 791.917969 " fill-opacity="1" fill-rule="nonzero"/><path fill="#4724e3" d="M 559.945312 155.878906 L 131.125 155.878906 C 129.851562 155.878906 128.820312 154.847656 128.820312 153.574219 C 128.820312 152.300781 129.851562 151.265625 131.125 151.265625 L 940.710938 151.265625 C 941.984375 151.265625 943.015625 152.300781 943.015625 153.574219 C 943.015625 154.847656 941.984375 155.878906 940.710938 155.878906 L 634.726562 155.878906 C 609.9375 152.382812 584.753906 152.375 559.945312 155.878906 Z M 691.710938 666.644531 L 850.34375 666.644531 C 850.949219 665.871094 851.5625 665.078125 852.160156 664.34375 C 852.804688 663.554688 853.488281 662.796875 854.15625 662.03125 L 703.050781 662.03125 C 699.296875 663.65625 695.519531 665.203125 691.710938 666.644531 Z M 861.5625 393.617188 L 988.039062 393.617188 C 989.3125 393.617188 990.34375 392.585938 990.34375 391.3125 C 990.34375 390.039062 989.3125 389.007812 988.039062 389.007812 L 861.105469 389.007812 C 861.277344 390.539062 861.421875 392.082031 861.5625 393.617188 Z M 853.183594 347.507812 L 978.078125 347.507812 C 979.355469 347.507812 980.386719 346.476562 980.386719 345.203125 C 980.386719 343.929688 979.355469 342.898438 978.078125 342.898438 L 851.804688 342.898438 C 852.257812 344.4375 852.757812 345.964844 853.183594 347.507812 Z M 835.664062 301.402344 L 969.230469 301.402344 C 970.503906 301.402344 971.539062 300.371094 971.539062 299.097656 C 971.539062 297.820312 970.503906 296.789062 969.230469 296.789062 L 833.316406 296.789062 C 834.105469 298.324219 834.902344 299.855469 835.664062 301.402344 Z M 1067.574219 619.628906 L 1069.164062 603.949219 L 1028.871094 588.289062 L 1010.777344 581.257812 C 1006.867188 579.734375 1002.464844 581.671875 1000.945312 585.582031 C 1000.390625 587 1000.308594 588.484375 1000.597656 589.875 C 1001.105469 592.304688 1002.78125 594.445312 1005.269531 595.414062 L 1019.566406 600.96875 L 1053.746094 614.253906 Z M 888.304688 636.316406 C 920.964844 619.414062 956.648438 615.304688 956.648438 615.304688 L 956.648438 597.691406 C 948.136719 591.625 942.222656 582.1875 940.835938 571.3125 C 936.691406 570.390625 930.871094 568.214844 926.070312 563.210938 C 912.011719 574.753906 893.109375 593.851562 888.316406 615.925781 L 774.792969 615.925781 C 773.0625 617.480469 771.335938 619.039062 769.578125 620.535156 L 887.539062 620.535156 C 886.914062 625.675781 887.078125 630.953125 888.304688 636.316406 Z M 731.746094 753.671875 L 603.511719 753.671875 C 602.238281 753.671875 601.203125 754.703125 601.203125 755.976562 C 601.203125 757.25 602.238281 758.28125 603.511719 758.28125 L 728.53125 758.28125 C 729.472656 756.65625 730.554688 755.125 731.746094 753.671875 Z M 1149.464844 643.3125 L 1130.726562 627.882812 L 1104.519531 617.695312 C 1101.976562 621.476562 1096.855469 628.238281 1092.195312 629.199219 L 1125.21875 642.035156 Z M 1035.105469 615.953125 C 1035.054688 615.949219 1035.007812 615.921875 1034.957031 615.921875 L 1034.710938 615.921875 C 1034.835938 615.933594 1034.976562 615.941406 1035.105469 615.953125 Z M 934.753906 514.828125 L 934.753906 531.058594 C 935.539062 531.078125 936.339844 531.128906 937.1875 531.25 C 939.355469 531.554688 941.308594 532.109375 943.101562 532.816406 L 966.9375 493.566406 C 1002.816406 492.128906 1023.542969 519.035156 1031.679688 532.625 C 1033.347656 532.007812 1035.160156 531.53125 1037.136719 531.25 C 1037.769531 531.160156 1038.363281 531.140625 1038.960938 531.109375 L 1038.960938 514.835938 C 1038.960938 490.394531 1019.144531 470.582031 994.699219 470.582031 L 979.011719 470.582031 C 954.570312 470.578125 934.753906 490.390625 934.753906 514.828125 Z M 800.679688 1077.597656 L 678.878906 1077.597656 C 677.605469 1077.597656 676.570312 1078.628906 676.570312 1079.902344 C 676.570312 1081.175781 677.605469 1082.207031 678.878906 1082.207031 L 801.871094 1082.207031 Z M 728.96875 799.777344 L 613.472656 799.777344 C 612.195312 799.777344 611.164062 800.808594 611.164062 802.085938 C 611.164062 803.359375 612.195312 804.390625 613.472656 804.390625 L 730.160156 804.390625 Z M 592.355469 709.867188 C 592.355469 711.140625 593.386719 712.171875 594.664062 712.171875 L 820.988281 712.171875 C 821.855469 710.621094 822.722656 709.089844 823.59375 707.5625 L 594.664062 707.5625 C 593.386719 707.5625 592.355469 708.59375 592.355469 709.867188 Z M 1347.800781 1004.84375 C 1347.796875 1004.816406 1347.789062 1004.792969 1347.785156 1004.765625 C 1335.136719 939.328125 1324.902344 895.917969 1290.929688 890.46875 C 1288.945312 890.148438 1286.90625 889.910156 1284.753906 889.855469 C 1275.027344 889.605469 1226.078125 898.78125 1182.929688 907.3125 C 1145.90625 914.632812 1113.148438 921.476562 1113.148438 921.476562 L 892.035156 921.476562 C 892.035156 921.480469 890.324219 928.46875 888.585938 939.652344 L 836.796875 939.652344 L 837.984375 944.261719 L 887.902344 944.261719 C 886.328125 955.523438 884.925781 970.039062 884.980469 985.757812 L 848.695312 985.757812 L 849.886719 990.367188 L 885.027344 990.367188 C 885.324219 1003.808594 886.792969 1017.925781 890.148438 1031.488281 L 860.5 1031.488281 L 861.691406 1036.097656 L 891.371094 1036.097656 C 895.269531 1049.847656 901.25 1062.859375 910.214844 1073.757812 C 911.3125 1075.089844 912.585938 1076.359375 913.953125 1077.59375 L 872.402344 1077.59375 L 873.59375 1082.203125 L 919.988281 1082.203125 C 926.277344 1086.3125 934.230469 1089.800781 943.457031 1092.753906 C 1002.988281 1111.773438 1115.339844 1108.414062 1173.660156 1105.035156 C 1196.367188 1103.71875 1210.894531 1102.398438 1210.898438 1102.398438 L 1216.261719 1338.839844 L 1217.269531 1383.125 L 1279.5625 1384.066406 L 1297.960938 1384.347656 L 1307.746094 1227.375 L 1324.429688 1287.765625 L 1337.34375 1283.71875 L 1337.617188 1283.636719 L 1396.449219 1265.210938 C 1396.453125 1265.199219 1359.136719 1063.5 1347.800781 1004.84375 Z M 1118.6875 1391.15625 C 1112.507812 1362.105469 1086.71875 1340.304688 1055.816406 1340.304688 L 999.011719 1340.304688 L 999.011719 1162.183594 L 975.160156 1162.183594 L 975.160156 1340.304688 L 918.011719 1340.304688 C 887.078125 1340.304688 861.261719 1362.152344 855.121094 1391.253906 C 841.644531 1394.804688 831.695312 1407.039062 831.695312 1421.628906 C 831.695312 1438.996094 845.777344 1453.078125 863.152344 1453.078125 C 880.527344 1453.078125 894.613281 1439 894.613281 1421.628906 C 894.613281 1409.898438 888.171875 1399.683594 878.648438 1394.277344 C 883.230469 1376.800781 899.121094 1363.855469 918.019531 1363.855469 L 1055.820312 1363.855469 C 1074.777344 1363.855469 1090.710938 1376.890625 1095.230469 1394.460938 C 1085.875 1399.910156 1079.566406 1410.023438 1079.566406 1421.632812 C 1079.566406 1439 1093.648438 1453.082031 1111.023438 1453.082031 C 1128.398438 1453.082031 1142.480469 1439.003906 1142.480469 1421.632812 C 1142.480469 1406.90625 1132.347656 1394.582031 1118.6875 1391.15625 Z M 688.835938 1123.703125 C 687.5625 1123.703125 686.53125 1124.734375 686.53125 1126.007812 C 686.53125 1127.28125 687.5625 1128.3125 688.835938 1128.3125 L 813.773438 1128.3125 L 812.585938 1123.703125 Z M 799.894531 753.671875 L 785.457031 753.671875 C 786.636719 755.109375 787.699219 756.648438 788.644531 758.28125 L 797.777344 758.28125 C 798.472656 756.746094 799.179688 755.210938 799.894531 753.671875 Z M 765.074219 939.652344 L 652.417969 939.652344 C 651.144531 939.652344 650.113281 940.683594 650.113281 941.957031 C 650.113281 943.230469 651.144531 944.261719 652.417969 944.261719 L 766.261719 944.261719 Z M 776.976562 985.757812 L 661.269531 985.757812 C 659.996094 985.757812 658.960938 986.789062 658.960938 988.0625 C 658.960938 989.335938 659.996094 990.367188 661.269531 990.367188 L 778.167969 990.367188 Z M 788.777344 1031.488281 L 670.027344 1031.488281 C 668.753906 1031.488281 667.722656 1032.519531 667.722656 1033.792969 C 667.722656 1035.066406 668.753906 1036.097656 670.027344 1036.097656 L 789.96875 1036.097656 Z M 788.777344 1031.488281 " fill-opacity="1" fill-rule="nonzero"/></svg>