<svg xmlns="http://www.w3.org/2000/svg" xmlns:xlink="http://www.w3.org/1999/xlink" width="2000" zoomAndPan="magnify" viewBox="0 0 1500 1499.999933" height="2000" preserveAspectRatio="xMidYMid meet" version="1.0"><path fill="#d1d3d4" d="M 1426.542969 1384.195312 L 193.945312 1384.195312 C 181.992188 1384.195312 172.300781 1374.503906 172.300781 1362.546875 L 172.300781 129.953125 C 172.300781 117.996094 181.992188 108.304688 193.945312 108.304688 L 1426.535156 108.304688 C 1438.492188 108.304688 1448.183594 117.996094 1448.183594 129.953125 L 1448.183594 1362.546875 C 1448.1875 1374.503906 1438.5 1384.195312 1426.542969 1384.195312 Z M 215.589844 1340.902344 L 1404.890625 1340.902344 L 1404.890625 151.597656 L 215.589844 151.597656 Z M 215.589844 1340.902344 " fill-opacity="1" fill-rule="nonzero"/><path fill="#58595b" d="M 1452.050781 1173.097656 L 803 1173.097656 C 776.53125 1173.097656 755.070312 1151.640625 755.070312 1125.167969 L 755.070312 367.800781 C 755.070312 341.328125 776.53125 319.871094 803 319.871094 L 1452.050781 319.871094 C 1478.519531 319.871094 1499.976562 341.328125 1499.976562 367.800781 L 1499.976562 1125.175781 C 1499.976562 1151.640625 1478.511719 1173.097656 1452.050781 1173.097656 Z M 1452.050781 1173.097656 " fill-opacity="1" fill-rule="nonzero"/><path fill="#f1f2f2" d="M 1420.425781 1106.277344 L 834.625 1106.277344 C 825.800781 1106.277344 818.652344 1099.128906 818.652344 1090.304688 L 818.652344 402.824219 C 818.652344 394 825.800781 386.847656 834.625 386.847656 L 1420.425781 386.847656 C 1429.25 386.847656 1436.398438 394 1436.398438 402.824219 L 1436.398438 1090.296875 C 1436.398438 1099.121094 1429.25 1106.277344 1420.425781 1106.277344 Z M 1420.425781 1106.277344 " fill-opacity="1" fill-rule="nonzero"/><path fill="#e6e7e8" d="M 1420.425781 386.847656 L 1364.25 386.847656 L 1364.25 1018.15625 C 1364.25 1026.980469 1357.101562 1034.128906 1348.277344 1034.128906 L 818.644531 1034.128906 L 818.644531 1090.304688 C 818.644531 1099.128906 825.792969 1106.277344 834.617188 1106.277344 L 1420.417969 1106.277344 C 1429.242188 1106.277344 1436.394531 1099.128906 1436.394531 1090.304688 L 1436.394531 402.824219 C 1436.398438 394 1429.25 386.847656 1420.425781 386.847656 Z M 1420.425781 386.847656 " fill-opacity="1" fill-rule="nonzero"/><path fill="#d1d3d4" d="M 1420.425781 386.847656 L 1400.324219 386.847656 L 1400.324219 1054.230469 C 1400.324219 1063.054688 1393.175781 1070.203125 1384.351562 1070.203125 L 818.644531 1070.203125 L 818.644531 1090.304688 C 818.644531 1099.128906 825.792969 1106.277344 834.617188 1106.277344 L 1420.417969 1106.277344 C 1429.242188 1106.277344 1436.394531 1099.128906 1436.394531 1090.304688 L 1436.394531 402.824219 C 1436.398438 394 1429.25 386.847656 1420.425781 386.847656 Z M 1420.425781 386.847656 " fill-opacity="1" fill-rule="nonzero"/><path fill="#d1d3d4" d="M 1291.832031 521.367188 L 1160.589844 521.367188 C 1150.121094 521.367188 1141.636719 512.878906 1141.636719 502.410156 C 1141.636719 491.941406 1150.121094 483.457031 1160.589844 483.457031 L 1291.832031 483.457031 C 1302.300781 483.457031 1310.785156 491.941406 1310.785156 502.410156 C 1310.785156 512.878906 1302.300781 521.367188 1291.832031 521.367188 Z M 1291.832031 521.367188 " fill-opacity="1" fill-rule="nonzero"/><path fill="#d1d3d4" d="M 1329.054688 587.050781 L 1160.589844 587.050781 C 1150.121094 587.050781 1141.636719 578.566406 1141.636719 568.097656 C 1141.636719 557.628906 1150.121094 549.144531 1160.589844 549.144531 L 1329.054688 549.144531 C 1339.523438 549.144531 1348.007812 557.628906 1348.007812 568.097656 C 1348.007812 578.566406 1339.523438 587.050781 1329.054688 587.050781 Z M 1329.054688 587.050781 " fill-opacity="1" fill-rule="nonzero"/><path fill="#d1d3d4" d="M 1291.832031 719.367188 L 1160.589844 719.367188 C 1150.121094 719.367188 1141.636719 710.882812 1141.636719 700.414062 C 1141.636719 689.945312 1150.121094 681.460938 1160.589844 681.460938 L 1291.832031 681.460938 C 1302.300781 681.460938 1310.785156 689.945312 1310.785156 700.414062 C 1310.785156 710.875 1302.300781 719.367188 1291.832031 719.367188 Z M 1291.832031 719.367188 " fill-opacity="1" fill-rule="nonzero"/><path fill="#d1d3d4" d="M 1329.054688 785.050781 L 1160.589844 785.050781 C 1150.121094 785.050781 1141.636719 776.566406 1141.636719 766.097656 C 1141.636719 755.628906 1150.121094 747.144531 1160.589844 747.144531 L 1329.054688 747.144531 C 1339.523438 747.144531 1348.007812 755.628906 1348.007812 766.097656 C 1348.007812 776.566406 1339.523438 785.050781 1329.054688 785.050781 Z M 1329.054688 785.050781 " fill-opacity="1" fill-rule="nonzero"/><path fill="#d1d3d4" d="M 1291.832031 917.359375 L 1160.589844 917.359375 C 1150.121094 917.359375 1141.636719 908.875 1141.636719 898.40625 C 1141.636719 887.9375 1150.121094 879.453125 1160.589844 879.453125 L 1291.832031 879.453125 C 1302.300781 879.453125 1310.785156 887.9375 1310.785156 898.40625 C 1310.785156 908.875 1302.300781 917.359375 1291.832031 917.359375 Z M 1291.832031 917.359375 " fill-opacity="1" fill-rule="nonzero"/><path fill="#d1d3d4" d="M 1329.054688 983.046875 L 1160.589844 983.046875 C 1150.121094 983.046875 1141.636719 974.5625 1141.636719 964.09375 C 1141.636719 953.625 1150.121094 945.140625 1160.589844 945.140625 L 1329.054688 945.140625 C 1339.523438 945.140625 1348.007812 953.625 1348.007812 964.09375 C 1348.007812 974.5625 1339.523438 983.046875 1329.054688 983.046875 Z M 1329.054688 983.046875 " fill-opacity="1" fill-rule="nonzero"/><path fill="#478cf7" d="M 1064.53125 537.578125 C 1064.53125 538.867188 1064.5 540.152344 1064.4375 541.441406 C 1064.371094 542.726562 1064.277344 544.011719 1064.152344 545.296875 C 1064.027344 546.578125 1063.867188 547.855469 1063.679688 549.132812 C 1063.488281 550.40625 1063.269531 551.675781 1063.019531 552.941406 C 1062.765625 554.203125 1062.484375 555.460938 1062.171875 556.710938 C 1061.859375 557.960938 1061.515625 559.203125 1061.140625 560.4375 C 1060.765625 561.667969 1060.363281 562.890625 1059.929688 564.105469 C 1059.492188 565.320312 1059.03125 566.519531 1058.535156 567.710938 C 1058.042969 568.902344 1057.523438 570.078125 1056.96875 571.246094 C 1056.417969 572.410156 1055.839844 573.5625 1055.234375 574.699219 C 1054.625 575.832031 1053.992188 576.953125 1053.328125 578.058594 C 1052.664062 579.164062 1051.976562 580.253906 1051.261719 581.324219 C 1050.542969 582.398438 1049.800781 583.449219 1049.035156 584.484375 C 1048.265625 585.519531 1047.472656 586.535156 1046.65625 587.53125 C 1045.839844 588.527344 1044.996094 589.503906 1044.132812 590.460938 C 1043.265625 591.414062 1042.378906 592.347656 1041.46875 593.257812 C 1040.554688 594.167969 1039.621094 595.058594 1038.667969 595.921875 C 1037.714844 596.789062 1036.738281 597.628906 1035.742188 598.449219 C 1034.746094 599.265625 1033.730469 600.058594 1032.695312 600.824219 C 1031.660156 601.59375 1030.605469 602.335938 1029.535156 603.050781 C 1028.464844 603.765625 1027.375 604.457031 1026.269531 605.117188 C 1025.164062 605.78125 1024.042969 606.417969 1022.90625 607.023438 C 1021.769531 607.632812 1020.617188 608.210938 1019.453125 608.761719 C 1018.289062 609.3125 1017.109375 609.835938 1015.921875 610.328125 C 1014.730469 610.820312 1013.527344 611.285156 1012.316406 611.71875 C 1011.101562 612.152344 1009.878906 612.558594 1008.644531 612.929688 C 1007.410156 613.304688 1006.167969 613.648438 1004.917969 613.960938 C 1003.667969 614.273438 1002.414062 614.558594 1001.148438 614.808594 C 999.882812 615.058594 998.613281 615.28125 997.339844 615.46875 C 996.066406 615.660156 994.789062 615.816406 993.503906 615.941406 C 992.222656 616.070312 990.9375 616.164062 989.648438 616.226562 C 988.363281 616.289062 987.074219 616.320312 985.785156 616.320312 C 984.496094 616.320312 983.210938 616.289062 981.921875 616.226562 C 980.636719 616.164062 979.351562 616.070312 978.066406 615.941406 C 976.785156 615.816406 975.507812 615.660156 974.230469 615.46875 C 972.957031 615.28125 971.6875 615.058594 970.425781 614.808594 C 969.160156 614.558594 967.902344 614.273438 966.652344 613.960938 C 965.402344 613.648438 964.160156 613.304688 962.929688 612.929688 C 961.695312 612.558594 960.472656 612.152344 959.257812 611.71875 C 958.042969 611.285156 956.84375 610.820312 955.652344 610.328125 C 954.460938 609.835938 953.285156 609.3125 952.117188 608.761719 C 950.953125 608.210938 949.804688 607.632812 948.667969 607.023438 C 947.53125 606.417969 946.410156 605.78125 945.304688 605.117188 C 944.199219 604.457031 943.109375 603.765625 942.039062 603.050781 C 940.964844 602.335938 939.914062 601.59375 938.878906 600.824219 C 937.84375 600.058594 936.828125 599.265625 935.832031 598.449219 C 934.835938 597.628906 933.859375 596.789062 932.90625 595.921875 C 931.949219 595.058594 931.015625 594.167969 930.105469 593.257812 C 929.195312 592.347656 928.304688 591.414062 927.441406 590.460938 C 926.574219 589.503906 925.734375 588.527344 924.914062 587.53125 C 924.097656 586.535156 923.304688 585.519531 922.539062 584.484375 C 921.769531 583.449219 921.027344 582.398438 920.3125 581.324219 C 919.597656 580.253906 918.90625 579.164062 918.246094 578.058594 C 917.582031 576.953125 916.949219 575.832031 916.339844 574.699219 C 915.734375 573.5625 915.152344 572.410156 914.601562 571.246094 C 914.050781 570.082031 913.527344 568.902344 913.035156 567.710938 C 912.542969 566.519531 912.078125 565.320312 911.644531 564.105469 C 911.210938 562.890625 910.804688 561.667969 910.433594 560.4375 C 910.058594 559.203125 909.714844 557.960938 909.402344 556.710938 C 909.089844 555.460938 908.804688 554.203125 908.554688 552.941406 C 908.304688 551.675781 908.082031 550.40625 907.894531 549.132812 C 907.703125 547.855469 907.546875 546.578125 907.421875 545.296875 C 907.292969 544.011719 907.199219 542.726562 907.136719 541.441406 C 907.074219 540.152344 907.042969 538.867188 907.042969 537.578125 C 907.042969 536.289062 907.074219 535 907.136719 533.714844 C 907.199219 532.425781 907.292969 531.140625 907.421875 529.859375 C 907.546875 528.578125 907.703125 527.296875 907.894531 526.023438 C 908.082031 524.75 908.304688 523.480469 908.554688 522.214844 C 908.804688 520.953125 909.089844 519.695312 909.402344 518.445312 C 909.714844 517.195312 910.058594 515.953125 910.433594 514.71875 C 910.804688 513.484375 911.210938 512.261719 911.644531 511.050781 C 912.078125 509.835938 912.542969 508.632812 913.035156 507.441406 C 913.527344 506.253906 914.050781 505.074219 914.601562 503.910156 C 915.152344 502.746094 915.734375 501.59375 916.339844 500.457031 C 916.949219 499.320312 917.582031 498.199219 918.246094 497.09375 C 918.90625 495.988281 919.597656 494.902344 920.3125 493.828125 C 921.027344 492.757812 921.769531 491.703125 922.539062 490.667969 C 923.304688 489.632812 924.097656 488.617188 924.914062 487.621094 C 925.734375 486.625 926.574219 485.652344 927.441406 484.695312 C 928.304688 483.742188 929.195312 482.808594 930.105469 481.898438 C 931.015625 480.984375 931.949219 480.097656 932.90625 479.230469 C 933.859375 478.367188 934.835938 477.523438 935.832031 476.707031 C 936.828125 475.890625 937.84375 475.097656 938.878906 474.328125 C 939.914062 473.5625 940.964844 472.820312 942.039062 472.105469 C 943.109375 471.386719 944.199219 470.699219 945.304688 470.035156 C 946.410156 469.375 947.53125 468.738281 948.667969 468.132812 C 949.804688 467.523438 950.953125 466.945312 952.117188 466.394531 C 953.285156 465.84375 954.460938 465.320312 955.652344 464.828125 C 956.84375 464.332031 958.042969 463.871094 959.257812 463.4375 C 960.472656 463 961.695312 462.597656 962.929688 462.222656 C 964.160156 461.847656 965.402344 461.507812 966.652344 461.191406 C 967.902344 460.878906 969.160156 460.597656 970.425781 460.347656 C 971.6875 460.09375 972.957031 459.875 974.230469 459.683594 C 975.507812 459.496094 976.785156 459.339844 978.066406 459.210938 C 979.351562 459.085938 980.636719 458.992188 981.921875 458.929688 C 983.210938 458.863281 984.496094 458.832031 985.785156 458.832031 C 987.074219 458.832031 988.363281 458.863281 989.648438 458.925781 C 990.9375 458.992188 992.222656 459.085938 993.503906 459.210938 C 994.789062 459.339844 996.066406 459.496094 997.339844 459.683594 C 998.613281 459.875 999.882812 460.09375 1001.148438 460.347656 C 1002.414062 460.597656 1003.667969 460.878906 1004.917969 461.191406 C 1006.167969 461.507812 1007.410156 461.847656 1008.644531 462.222656 C 1009.878906 462.597656 1011.101562 463 1012.316406 463.4375 C 1013.527344 463.871094 1014.730469 464.332031 1015.921875 464.828125 C 1017.109375 465.320312 1018.289062 465.84375 1019.453125 466.394531 C 1020.617188 466.945312 1021.769531 467.523438 1022.90625 468.132812 C 1024.042969 468.738281 1025.164062 469.375 1026.269531 470.035156 C 1027.375 470.699219 1028.464844 471.386719 1029.535156 472.105469 C 1030.605469 472.820312 1031.660156 473.5625 1032.695312 474.328125 C 1033.730469 475.097656 1034.746094 475.890625 1035.742188 476.707031 C 1036.738281 477.523438 1037.714844 478.367188 1038.667969 479.230469 C 1039.621094 480.097656 1040.554688 480.984375 1041.46875 481.898438 C 1042.378906 482.808594 1043.265625 483.742188 1044.132812 484.695312 C 1044.996094 485.652344 1045.839844 486.625 1046.65625 487.621094 C 1047.472656 488.617188 1048.265625 489.632812 1049.035156 490.667969 C 1049.800781 491.703125 1050.542969 492.757812 1051.261719 493.828125 C 1051.976562 494.902344 1052.664062 495.988281 1053.328125 497.09375 C 1053.992188 498.199219 1054.625 499.320312 1055.234375 500.457031 C 1055.839844 501.59375 1056.417969 502.746094 1056.96875 503.910156 C 1057.523438 505.074219 1058.042969 506.253906 1058.535156 507.441406 C 1059.03125 508.632812 1059.492188 509.835938 1059.929688 511.050781 C 1060.363281 512.261719 1060.765625 513.484375 1061.140625 514.71875 C 1061.515625 515.953125 1061.859375 517.195312 1062.171875 518.445312 C 1062.484375 519.695312 1062.765625 520.953125 1063.019531 522.214844 C 1063.269531 523.480469 1063.488281 524.75 1063.679688 526.023438 C 1063.867188 527.296875 1064.027344 528.578125 1064.152344 529.859375 C 1064.277344 531.140625 1064.371094 532.425781 1064.4375 533.714844 C 1064.5 535 1064.53125 536.289062 1064.53125 537.578125 Z M 1064.53125 537.578125 " fill-opacity="1" fill-rule="nonzero"/><path fill="#ffffff" d="M 977.257812 579.308594 C 973.722656 579.308594 970.195312 577.960938 967.496094 575.269531 L 940.316406 548.089844 C 934.929688 542.699219 934.929688 533.960938 940.316406 528.574219 C 945.707031 523.183594 954.445312 523.183594 959.835938 528.574219 L 977.25 545.996094 L 1011.816406 511.429688 C 1017.207031 506.039062 1025.945312 506.039062 1031.335938 511.429688 C 1036.722656 516.820312 1036.722656 525.558594 1031.335938 530.945312 L 987.003906 575.277344 C 984.320312 577.96875 980.785156 579.308594 977.257812 579.308594 Z M 977.257812 579.308594 " fill-opacity="1" fill-rule="nonzero"/><path fill="#76a34f" d="M 907.035156 733.253906 C 907.035156 689.761719 942.289062 654.511719 985.777344 654.511719 C 1029.269531 654.511719 1064.523438 689.769531 1064.523438 733.253906 C 1064.523438 776.746094 1029.265625 812 985.777344 812 C 942.292969 812 907.035156 776.746094 907.035156 733.253906 Z M 907.035156 733.253906 " fill-opacity="1" fill-rule="nonzero"/><path fill="#ffffff" d="M 977.257812 774.988281 C 973.722656 774.988281 970.195312 773.636719 967.496094 770.945312 L 940.316406 743.769531 C 934.929688 738.378906 934.929688 729.640625 940.316406 724.25 C 945.707031 718.863281 954.445312 718.863281 959.835938 724.25 L 977.25 741.675781 L 1011.816406 707.109375 C 1017.207031 701.71875 1025.945312 701.71875 1031.335938 707.109375 C 1036.722656 712.5 1036.722656 721.234375 1031.335938 726.625 L 987.003906 770.953125 C 984.320312 773.636719 980.785156 774.988281 977.257812 774.988281 Z M 977.257812 774.988281 " fill-opacity="1" fill-rule="nonzero"/><path fill="#ffa91a" d="M 1059.261719 898.503906 C 1059.757812 899.691406 1060.226562 900.894531 1060.664062 902.105469 C 1061.105469 903.316406 1061.511719 904.539062 1061.890625 905.773438 C 1062.269531 907.003906 1062.617188 908.246094 1062.933594 909.496094 C 1063.253906 910.746094 1063.539062 912.003906 1063.796875 913.265625 C 1064.050781 914.53125 1064.277344 915.796875 1064.46875 917.074219 C 1064.664062 918.347656 1064.824219 919.625 1064.957031 920.910156 C 1065.085938 922.191406 1065.1875 923.476562 1065.253906 924.765625 C 1065.320312 926.050781 1065.355469 927.339844 1065.363281 928.628906 C 1065.367188 929.917969 1065.339844 931.207031 1065.28125 932.496094 C 1065.21875 933.785156 1065.128906 935.070312 1065.007812 936.351562 C 1064.886719 937.636719 1064.734375 938.917969 1064.546875 940.191406 C 1064.363281 941.46875 1064.148438 942.738281 1063.898438 944.003906 C 1063.652344 945.269531 1063.375 946.527344 1063.066406 947.78125 C 1062.757812 949.03125 1062.417969 950.273438 1062.046875 951.511719 C 1061.675781 952.746094 1061.277344 953.96875 1060.847656 955.1875 C 1060.417969 956.402344 1059.957031 957.605469 1059.46875 958.796875 C 1058.976562 959.992188 1058.460938 961.171875 1057.914062 962.339844 C 1057.363281 963.507812 1056.789062 964.660156 1056.183594 965.796875 C 1055.582031 966.9375 1054.949219 968.0625 1054.289062 969.167969 C 1053.632812 970.277344 1052.945312 971.367188 1052.234375 972.441406 C 1051.519531 973.515625 1050.78125 974.574219 1050.015625 975.613281 C 1049.253906 976.648438 1048.464844 977.667969 1047.648438 978.667969 C 1046.835938 979.667969 1045.996094 980.648438 1045.132812 981.605469 C 1044.269531 982.5625 1043.386719 983.5 1042.476562 984.414062 C 1041.566406 985.328125 1040.636719 986.222656 1039.683594 987.089844 C 1038.734375 987.960938 1037.757812 988.804688 1036.765625 989.625 C 1035.773438 990.449219 1034.757812 991.242188 1033.726562 992.015625 C 1032.691406 992.785156 1031.640625 993.53125 1030.570312 994.253906 C 1029.5 994.972656 1028.414062 995.664062 1027.3125 996.332031 C 1026.207031 997 1025.089844 997.636719 1023.953125 998.25 C 1022.820312 998.859375 1021.667969 999.445312 1020.507812 1000 C 1019.34375 1000.554688 1018.164062 1001.082031 1016.976562 1001.578125 C 1015.785156 1002.078125 1014.585938 1002.542969 1013.375 1002.984375 C 1012.160156 1003.421875 1010.9375 1003.828125 1009.707031 1004.207031 C 1008.472656 1004.585938 1007.230469 1004.933594 1005.984375 1005.253906 C 1004.734375 1005.570312 1003.476562 1005.855469 1002.210938 1006.113281 C 1000.949219 1006.367188 999.679688 1006.59375 998.40625 1006.785156 C 997.128906 1006.980469 995.851562 1007.140625 994.570312 1007.273438 C 993.285156 1007.402344 992 1007.503906 990.714844 1007.570312 C 989.425781 1007.636719 988.136719 1007.671875 986.847656 1007.679688 C 985.558594 1007.683594 984.269531 1007.65625 982.984375 1007.597656 C 981.695312 1007.539062 980.410156 1007.445312 979.125 1007.324219 C 977.84375 1007.203125 976.5625 1007.050781 975.285156 1006.863281 C 974.011719 1006.679688 972.738281 1006.464844 971.472656 1006.214844 C 970.207031 1005.96875 968.949219 1005.691406 967.699219 1005.382812 C 966.445312 1005.074219 965.203125 1004.734375 963.96875 1004.363281 C 962.734375 1003.992188 961.507812 1003.59375 960.292969 1003.164062 C 959.078125 1002.734375 957.875 1002.273438 956.679688 1001.785156 C 955.488281 1001.292969 954.308594 1000.777344 953.140625 1000.230469 C 951.972656 999.683594 950.820312 999.105469 949.679688 998.503906 C 948.542969 997.898438 947.417969 997.265625 946.308594 996.609375 C 945.199219 995.949219 944.109375 995.261719 943.035156 994.550781 C 941.960938 993.835938 940.90625 993.097656 939.867188 992.335938 C 938.828125 991.570312 937.808594 990.78125 936.808594 989.964844 C 935.8125 989.152344 934.832031 988.3125 933.875 987.449219 C 932.914062 986.585938 931.980469 985.703125 931.0625 984.792969 C 930.148438 983.882812 929.257812 982.953125 928.386719 982 C 927.519531 981.050781 926.671875 980.078125 925.851562 979.082031 C 925.03125 978.089844 924.234375 977.074219 923.464844 976.042969 C 922.691406 975.007812 921.945312 973.957031 921.226562 972.886719 C 920.507812 971.820312 919.8125 970.730469 919.144531 969.628906 C 918.480469 968.523438 917.839844 967.40625 917.230469 966.269531 C 916.617188 965.136719 916.035156 963.988281 915.476562 962.824219 C 914.921875 961.660156 914.398438 960.484375 913.898438 959.292969 C 913.402344 958.105469 912.933594 956.902344 912.496094 955.691406 C 912.058594 954.476562 911.648438 953.253906 911.269531 952.023438 C 910.890625 950.789062 910.542969 949.550781 910.226562 948.300781 C 909.910156 947.050781 909.621094 945.792969 909.367188 944.53125 C 909.109375 943.265625 908.886719 941.996094 908.691406 940.722656 C 908.5 939.449219 908.335938 938.167969 908.207031 936.886719 C 908.074219 935.601562 907.976562 934.316406 907.910156 933.03125 C 907.839844 931.742188 907.804688 930.453125 907.800781 929.164062 C 907.796875 927.875 907.824219 926.585938 907.882812 925.300781 C 907.941406 924.011719 908.03125 922.726562 908.152344 921.441406 C 908.277344 920.160156 908.429688 918.878906 908.613281 917.601562 C 908.796875 916.328125 909.015625 915.054688 909.261719 913.792969 C 909.507812 912.527344 909.789062 911.265625 910.097656 910.015625 C 910.40625 908.761719 910.746094 907.519531 911.113281 906.285156 C 911.484375 905.050781 911.886719 903.824219 912.316406 902.609375 C 912.746094 901.394531 913.207031 900.191406 913.695312 898.996094 C 914.183594 897.804688 914.703125 896.625 915.25 895.457031 C 915.796875 894.289062 916.371094 893.136719 916.976562 891.996094 C 917.582031 890.859375 918.210938 889.734375 918.871094 888.625 C 919.53125 887.519531 920.214844 886.425781 920.929688 885.351562 C 921.640625 884.277344 922.378906 883.222656 923.144531 882.183594 C 923.910156 881.144531 924.699219 880.125 925.511719 879.125 C 926.328125 878.128906 927.164062 877.148438 928.027344 876.191406 C 928.890625 875.230469 929.777344 874.296875 930.683594 873.378906 C 931.59375 872.464844 932.523438 871.574219 933.476562 870.703125 C 934.429688 869.835938 935.402344 868.992188 936.394531 868.167969 C 937.390625 867.347656 938.402344 866.550781 939.4375 865.78125 C 940.46875 865.007812 941.519531 864.261719 942.589844 863.542969 C 943.660156 862.824219 944.746094 862.128906 945.851562 861.464844 C 946.953125 860.796875 948.074219 860.15625 949.207031 859.546875 C 950.34375 858.933594 951.492188 858.351562 952.65625 857.796875 C 953.820312 857.238281 954.996094 856.714844 956.183594 856.214844 C 957.375 855.71875 958.574219 855.25 959.789062 854.8125 C 961 854.375 962.222656 853.964844 963.457031 853.585938 C 964.6875 853.207031 965.929688 852.859375 967.179688 852.542969 C 968.429688 852.226562 969.683594 851.9375 970.949219 851.683594 C 972.210938 851.425781 973.480469 851.203125 974.757812 851.007812 C 976.03125 850.816406 977.308594 850.652344 978.59375 850.523438 C 979.875 850.390625 981.160156 850.292969 982.449219 850.226562 C 983.734375 850.15625 985.023438 850.121094 986.3125 850.117188 C 987.601562 850.113281 988.890625 850.140625 990.179688 850.199219 C 991.46875 850.257812 992.753906 850.347656 994.035156 850.46875 C 995.320312 850.59375 996.597656 850.746094 997.875 850.929688 C 999.152344 851.117188 1000.421875 851.332031 1001.6875 851.578125 C 1002.953125 851.824219 1004.210938 852.105469 1005.464844 852.414062 C 1006.714844 852.722656 1007.957031 853.0625 1009.195312 853.433594 C 1010.429688 853.800781 1011.652344 854.203125 1012.871094 854.632812 C 1014.085938 855.0625 1015.289062 855.523438 1016.480469 856.011719 C 1017.675781 856.5 1018.855469 857.019531 1020.023438 857.566406 C 1021.1875 858.113281 1022.34375 858.6875 1023.480469 859.292969 C 1024.621094 859.898438 1025.746094 860.527344 1026.851562 861.1875 C 1027.960938 861.847656 1029.050781 862.53125 1030.125 863.246094 C 1031.199219 863.957031 1032.257812 864.695312 1033.296875 865.460938 C 1034.332031 866.226562 1035.351562 867.015625 1036.351562 867.828125 C 1037.351562 868.644531 1038.328125 869.484375 1039.289062 870.34375 C 1040.246094 871.207031 1041.183594 872.09375 1042.097656 873.003906 C 1043.011719 873.910156 1043.90625 874.839844 1044.773438 875.792969 C 1045.644531 876.746094 1046.488281 877.71875 1047.308594 878.714844 C 1048.128906 879.707031 1048.925781 880.71875 1049.699219 881.753906 C 1050.46875 882.785156 1051.214844 883.835938 1051.9375 884.90625 C 1052.65625 885.976562 1053.347656 887.0625 1054.015625 888.167969 C 1054.683594 889.269531 1055.320312 890.390625 1055.933594 891.523438 C 1056.542969 892.660156 1057.128906 893.808594 1057.683594 894.972656 C 1058.238281 896.136719 1058.765625 897.3125 1059.261719 898.503906 Z M 1059.261719 898.503906 " fill-opacity="1" fill-rule="nonzero"/><path fill="#ffffff" d="M 977.257812 970.664062 C 973.722656 970.664062 970.195312 969.316406 967.496094 966.625 L 940.316406 939.445312 C 934.929688 934.058594 934.929688 925.320312 940.316406 919.929688 C 945.707031 914.539062 954.445312 914.539062 959.835938 919.929688 L 977.25 937.347656 L 1011.816406 902.78125 C 1017.207031 897.390625 1025.945312 897.390625 1031.335938 902.78125 C 1036.722656 908.167969 1036.722656 916.90625 1031.335938 922.296875 L 987.003906 966.625 C 984.320312 969.316406 980.785156 970.664062 977.257812 970.664062 Z M 977.257812 970.664062 " fill-opacity="1" fill-rule="nonzero"/><path fill="#478cf7" d="M 733.058594 21.402344 C 733.058594 7.5625 749.402344 0.21875 759.753906 9.402344 L 882.042969 117.953125 C 889.226562 124.339844 889.226562 135.566406 882.042969 141.949219 L 759.753906 250.507812 C 749.410156 259.691406 733.058594 252.347656 733.058594 238.507812 Z M 733.058594 21.402344 " fill-opacity="1" fill-rule="nonzero"/><path fill="#76a34f" d="M 887.429688 1253.992188 C 887.429688 1240.152344 871.089844 1232.808594 860.734375 1241.992188 L 738.457031 1350.550781 C 731.261719 1356.933594 731.261719 1368.160156 738.457031 1374.546875 L 860.734375 1483.105469 C 871.082031 1492.289062 887.429688 1484.945312 887.429688 1471.105469 Z M 887.429688 1253.992188 " fill-opacity="1" fill-rule="nonzero"/><path fill="#ffa91a" d="M 424.234375 1013.132812 C 483.042969 999.972656 538.894531 970.28125 584.378906 924.0625 C 708.441406 797.960938 707.640625 592.519531 582.640625 467.347656 C 453.320312 337.851562 241.832031 340.492188 115.867188 475.277344 C 0.410156 598.820312 -0.0078125 792.894531 114.949219 916.898438 C 161.933594 967.585938 220.953125 999.726562 283.21875 1013.398438 C 288.867188 1014.640625 293.679688 1018.320312 296.15625 1023.542969 L 337.042969 1109.792969 C 343.703125 1123.839844 363.695312 1123.839844 370.355469 1109.792969 L 411.378906 1023.261719 C 413.839844 1018.0625 418.613281 1014.394531 424.234375 1013.132812 Z M 424.234375 1013.132812 " fill-opacity="1" fill-rule="nonzero"/><path fill="#ffc91d" d="M 146.679688 901.871094 C 142.710938 901.871094 138.890625 900.21875 136.21875 897.324219 C 136.148438 897.324219 136.148438 897.324219 136.148438 897.253906 C 130.734375 891.480469 131.023438 882.316406 136.867188 876.90625 C 142.496094 871.710938 152.09375 872.074219 157.289062 877.636719 C 162.699219 883.480469 162.335938 892.640625 156.492188 898.054688 C 153.824219 900.507812 150.359375 901.871094 146.679688 901.871094 Z M 112.121094 855.839844 C 107.070312 855.839844 102.308594 853.097656 99.710938 848.839844 C 72.292969 803.023438 57.792969 750.425781 57.792969 696.601562 C 57.71875 621.207031 85.859375 549.5625 136.941406 494.945312 C 193.507812 434.410156 270.203125 400.996094 352.957031 400.996094 L 353.175781 400.996094 C 432.179688 400.996094 506.421875 431.8125 562.195312 487.730469 C 567.820312 493.355469 567.820312 502.519531 562.195312 508.148438 C 556.710938 513.558594 547.257812 513.558594 541.773438 508.148438 C 491.414062 457.714844 424.386719 429.9375 353.101562 429.855469 C 278.425781 429.945312 209.164062 460.03125 158.007812 514.640625 C 111.976562 563.917969 86.652344 628.492188 86.652344 696.609375 C 86.652344 745.160156 99.710938 792.707031 124.457031 833.984375 C 126.480469 837.304688 127.054688 841.121094 126.117188 844.878906 C 125.179688 848.632812 122.800781 851.804688 119.550781 853.746094 C 117.242188 855.125 114.71875 855.839844 112.121094 855.839844 Z M 112.121094 855.839844 " fill-opacity="1" fill-rule="nonzero"/><path fill="#f79219" d="M 582.640625 467.347656 C 576.488281 461.183594 570.152344 455.328125 563.644531 449.765625 C 671.347656 575.910156 666.4375 767.910156 548.304688 887.980469 C 502.828125 934.207031 446.96875 963.890625 388.160156 977.050781 C 382.539062 978.304688 377.761719 981.980469 375.296875 987.179688 L 334.269531 1073.710938 C 332.085938 1078.328125 328.457031 1081.421875 324.335938 1083.011719 L 337.035156 1109.785156 C 343.695312 1123.832031 363.6875 1123.832031 370.347656 1109.785156 L 411.371094 1023.253906 C 413.839844 1018.054688 418.613281 1014.386719 424.234375 1013.125 C 483.042969 999.964844 538.894531 970.277344 584.378906 924.058594 C 708.441406 797.960938 707.640625 592.519531 582.640625 467.347656 Z M 582.640625 467.347656 " fill-opacity="1" fill-rule="nonzero"/><path fill="#76a34f" d="M 355.84375 550.757812 L 355.84375 666.71875 C 355.84375 681.082031 367.488281 692.730469 381.855469 692.730469 L 418.613281 692.730469 C 430.144531 692.730469 438.464844 703.773438 435.28125 714.859375 L 420.65625 765.738281 C 415.878906 782.359375 428.355469 798.933594 445.65625 798.933594 L 445.664062 798.933594 C 454.820312 798.933594 463.304688 794.121094 467.996094 786.257812 L 520.144531 698.890625 C 522.546875 694.859375 523.824219 690.253906 523.824219 685.558594 L 523.824219 550.757812 C 523.824219 536.394531 512.179688 524.75 497.8125 524.75 L 381.855469 524.75 C 367.488281 524.75 355.84375 536.394531 355.84375 550.757812 Z M 355.84375 550.757812 " fill-opacity="1" fill-rule="nonzero"/><path fill="#478cf7" d="M 319.046875 651.71875 L 319.046875 767.679688 C 319.046875 782.042969 307.402344 793.6875 293.039062 793.6875 L 256.277344 793.6875 C 244.746094 793.6875 236.429688 804.734375 239.609375 815.816406 L 254.234375 866.695312 C 259.011719 883.320312 246.535156 899.894531 229.234375 899.894531 L 229.226562 899.894531 C 220.070312 899.894531 211.585938 895.082031 206.898438 887.214844 L 154.746094 799.851562 C 152.34375 795.816406 151.066406 791.214844 151.066406 786.515625 L 151.066406 651.71875 C 151.066406 637.355469 162.710938 625.707031 177.078125 625.707031 L 293.039062 625.707031 C 307.402344 625.707031 319.046875 637.355469 319.046875 651.71875 Z M 319.046875 651.71875 " fill-opacity="1" fill-rule="nonzero"/></svg>