<svg xmlns="http://www.w3.org/2000/svg" xmlns:xlink="http://www.w3.org/1999/xlink" width="2000" zoomAndPan="magnify" viewBox="0 0 1500 1499.999933" height="2000" preserveAspectRatio="xMidYMid meet" version="1.0"><path fill="#808080" d="M 547.453125 376.25 L 605.277344 376.25 C 622.167969 376.25 635.8125 390.21875 635.8125 406.789062 L 635.8125 429.203125 C 635.8125 443.171875 644.910156 455.191406 658.550781 458.765625 C 685.515625 465.914062 711.179688 476.632812 734.894531 490.601562 C 747.238281 497.75 761.855469 495.800781 771.929688 485.730469 L 787.847656 469.8125 C 799.867188 457.789062 819.355469 457.789062 831.050781 469.8125 L 871.984375 510.742188 C 884.003906 522.761719 884.003906 542.253906 871.984375 554.273438 L 856.066406 570.191406 C 845.996094 580.261719 844.046875 595.207031 851.191406 607.226562 C 864.835938 630.941406 875.558594 656.601562 882.703125 683.566406 C 886.277344 697.210938 898.296875 706.308594 912.265625 706.308594 L 934.679688 706.308594 C 951.574219 706.308594 965.21875 720.277344 965.21875 736.84375 L 965.21875 794.667969 C 965.21875 811.558594 951.574219 825.203125 934.679688 825.203125 L 912.265625 825.203125 C 898.296875 825.203125 886.277344 834.300781 882.703125 847.945312 C 875.558594 874.90625 864.835938 900.570312 851.191406 924.285156 C 844.046875 936.628906 845.996094 951.25 856.066406 961.320312 L 871.984375 977.238281 C 884.003906 989.257812 884.003906 1008.75 871.984375 1020.441406 L 831.050781 1061.375 C 819.03125 1073.394531 799.539062 1073.394531 787.847656 1061.375 L 771.929688 1045.457031 C 761.855469 1035.386719 747.238281 1033.4375 734.894531 1040.585938 C 711.179688 1054.230469 685.515625 1064.949219 658.550781 1072.421875 C 644.910156 1075.992188 635.8125 1088.011719 635.8125 1101.984375 L 635.8125 1124.398438 C 635.8125 1141.289062 622.167969 1154.933594 605.277344 1154.933594 L 547.453125 1154.933594 C 530.558594 1154.933594 516.914062 1141.289062 516.914062 1124.398438 L 516.914062 1101.984375 C 516.914062 1088.015625 507.820312 1075.992188 494.175781 1072.421875 C 467.210938 1065.273438 441.546875 1054.554688 417.832031 1040.585938 C 405.8125 1033.4375 390.871094 1035.386719 380.800781 1045.457031 L 364.882812 1061.375 C 352.863281 1073.394531 333.371094 1073.394531 321.351562 1061.375 L 280.417969 1020.445312 C 268.398438 1008.421875 268.398438 988.933594 280.417969 977.238281 L 296.335938 961.320312 C 306.40625 951.25 308.355469 936.628906 301.210938 924.285156 C 287.566406 900.570312 276.84375 874.90625 269.375 847.945312 C 265.800781 834.300781 253.78125 825.203125 239.8125 825.203125 L 217.398438 825.203125 C 200.503906 825.203125 186.859375 811.234375 186.859375 794.667969 L 186.859375 736.84375 C 186.859375 719.949219 200.828125 706.308594 217.398438 706.308594 L 239.8125 706.308594 C 253.78125 706.308594 265.800781 697.210938 269.375 683.566406 C 276.519531 656.605469 287.242188 630.941406 301.210938 607.226562 C 308.355469 595.207031 306.40625 580.261719 296.335938 570.191406 L 280.417969 554.273438 C 268.398438 542.253906 268.398438 522.761719 280.417969 510.742188 L 321.351562 469.8125 C 333.371094 457.792969 352.863281 457.792969 364.882812 469.8125 L 380.800781 485.730469 C 390.871094 495.800781 405.8125 497.75 417.832031 490.601562 C 441.546875 476.957031 467.210938 466.238281 494.175781 458.765625 C 507.820312 455.191406 516.914062 443.171875 516.914062 429.203125 L 516.914062 406.789062 C 516.914062 389.894531 530.558594 376.25 547.453125 376.25 Z M 547.453125 376.25 " fill-opacity="1" fill-rule="evenodd"/><path fill="#b3b3b3" d="M 576.6875 573.765625 C 682.265625 573.765625 767.703125 659.203125 767.703125 764.78125 C 767.703125 870.035156 682.265625 955.472656 576.6875 955.472656 C 471.433594 955.472656 385.996094 870.035156 385.996094 764.78125 C 385.996094 659.203125 471.433594 573.765625 576.6875 573.765625 Z M 576.6875 573.765625 " fill-opacity="1" fill-rule="evenodd"/><path fill="#e6e6e6" d="M 751.785156 688.113281 C 761.855469 711.503906 767.703125 737.167969 767.703125 764.457031 C 767.703125 869.710938 682.265625 955.148438 576.6875 955.148438 C 517.890625 955.148438 465.585938 928.507812 430.503906 886.925781 C 420.433594 863.539062 414.585938 837.550781 414.585938 810.585938 C 414.585938 705.007812 500.023438 619.570312 605.277344 619.570312 C 664.074219 619.894531 716.703125 646.207031 751.785156 688.113281 Z M 751.785156 688.113281 " fill-opacity="1" fill-rule="evenodd"/><path fill="#ffffff" d="M 678.042969 674.46875 C 705.007812 674.46875 726.773438 696.234375 726.773438 723.199219 C 726.773438 750.164062 705.007812 771.929688 678.042969 771.929688 C 651.082031 771.929688 629.316406 750.164062 629.316406 723.199219 C 629.316406 696.234375 651.082031 674.46875 678.042969 674.46875 Z M 678.042969 674.46875 " fill-opacity="1" fill-rule="evenodd"/><path fill="#b3b3b3" d="M 753.085938 559.472656 C 765.429688 559.472656 775.5 569.542969 775.5 581.886719 C 775.5 594.230469 765.429688 604.300781 753.085938 604.300781 C 740.742188 604.300781 730.671875 594.230469 730.671875 581.886719 C 730.671875 569.542969 740.742188 559.472656 753.085938 559.472656 Z M 753.085938 559.472656 " fill-opacity="1" fill-rule="evenodd"/><path fill="#ff6666" d="M 1350.5 765.753906 C 1350.5 1003.226562 1157.859375 1195.867188 920.386719 1195.867188 C 682.917969 1195.867188 490.277344 1003.226562 490.277344 765.753906 L 661.800781 765.753906 C 661.800781 908.691406 777.449219 1024.339844 920.386719 1024.339844 C 1063.324219 1024.339844 1178.972656 908.367188 1178.972656 765.753906 L 1181.246094 436.351562 L 1084.117188 436.351562 L 1266.035156 119.941406 L 1447.957031 436.351562 L 1350.824219 436.351562 Z M 1350.5 765.753906 " fill-opacity="1" fill-rule="evenodd"/><path fill="#ff9966" d="M 1350.5 765.753906 C 1350.5 861.589844 1318.988281 949.949219 1266.035156 1021.417969 C 1187.746094 1126.996094 1062.023438 1195.867188 920.386719 1195.867188 C 903.171875 1195.867188 885.953125 1194.890625 869.058594 1192.941406 C 1116.925781 1133.820312 1266.035156 971.066406 1266.035156 717.027344 L 1266.035156 119.941406 L 1447.957031 436.351562 L 1350.824219 436.351562 Z M 1350.5 765.753906 " fill-opacity="1" fill-rule="evenodd"/><path fill="#eeb9a2" d="M 864.1875 10.460938 C 890.5 10.460938 911.941406 31.578125 911.941406 58.214844 C 911.941406 84.53125 890.824219 105.972656 864.1875 105.972656 C 837.875 105.972656 816.433594 84.53125 816.433594 58.214844 C 816.433594 31.902344 837.875 10.460938 864.1875 10.460938 Z M 864.1875 10.460938 " fill-opacity="1" fill-rule="evenodd"/><path fill="#eeb9a2" d="M 937.28125 159.898438 C 949.949219 159.898438 960.34375 170.292969 960.34375 182.960938 C 960.34375 195.632812 950.273438 206.027344 937.28125 206.027344 C 924.609375 206.027344 914.214844 195.957031 914.214844 182.960938 C 914.214844 170.292969 924.609375 159.898438 937.28125 159.898438 Z M 937.28125 159.898438 " fill-opacity="1" fill-rule="evenodd"/><path fill="#eeb9a2" d="M 688.765625 1472.320312 C 711.828125 1472.320312 730.671875 1453.476562 730.671875 1430.414062 C 730.671875 1407.347656 711.828125 1388.507812 688.765625 1388.507812 C 665.699219 1388.507812 646.859375 1407.347656 646.859375 1430.414062 C 646.859375 1453.476562 665.699219 1472.320312 688.765625 1472.320312 Z M 688.765625 1472.320312 " fill-opacity="1" fill-rule="evenodd"/><path fill="#eeb9a2" d="M 570.839844 1407.023438 C 583.511719 1407.023438 593.90625 1396.953125 593.90625 1384.285156 C 593.90625 1371.613281 583.835938 1361.21875 570.839844 1361.21875 C 558.171875 1361.21875 548.101562 1371.289062 548.101562 1384.285156 C 548.101562 1396.628906 558.171875 1407.023438 570.839844 1407.023438 Z M 570.839844 1407.023438 " fill-opacity="1" fill-rule="evenodd"/><path fill="#eeb9a2" d="M 125.136719 350.589844 C 137.808594 350.589844 148.203125 340.191406 148.203125 327.523438 C 148.203125 314.855469 138.132812 304.457031 125.136719 304.457031 C 112.46875 304.457031 102.074219 314.855469 102.074219 327.523438 C 102.074219 340.191406 112.46875 350.589844 125.136719 350.589844 Z M 125.136719 350.589844 " fill-opacity="1" fill-rule="evenodd"/><path fill="#eeb9a2" d="M 1262.785156 1237.449219 C 1275.457031 1237.449219 1285.851562 1227.050781 1285.851562 1214.382812 C 1285.851562 1201.714844 1275.78125 1191.316406 1262.785156 1191.316406 C 1250.117188 1191.316406 1239.722656 1201.714844 1239.722656 1214.382812 C 1240.046875 1227.050781 1250.117188 1237.449219 1262.785156 1237.449219 Z M 1262.785156 1237.449219 " fill-opacity="1" fill-rule="evenodd"/><path fill="#010101" d="M 1262.785156 1227.703125 C 1280.003906 1227.703125 1280.003906 1201.390625 1262.785156 1201.390625 C 1251.417969 1201.390625 1244.917969 1215.03125 1253.367188 1223.804688 C 1255.964844 1226.078125 1259.214844 1227.703125 1262.785156 1227.703125 Z M 1285.851562 1237.773438 C 1273.183594 1250.441406 1252.390625 1250.441406 1239.722656 1237.773438 C 1219.257812 1217.308594 1233.875 1182.222656 1262.785156 1182.222656 C 1291.699219 1181.898438 1306.644531 1216.980469 1285.851562 1237.773438 Z M 125.136719 340.84375 C 142.355469 340.84375 142.355469 314.527344 125.136719 314.527344 C 107.917969 314.203125 107.59375 340.84375 125.136719 340.84375 Z M 148.203125 350.589844 C 127.734375 371.054688 92.652344 356.433594 92.652344 327.523438 C 92.652344 298.609375 127.734375 283.992188 148.203125 304.457031 C 161.195312 317.128906 161.195312 337.917969 148.203125 350.589844 Z M 570.839844 1396.953125 C 588.382812 1396.953125 588.382812 1370.640625 570.839844 1370.640625 C 559.472656 1370.640625 552.972656 1384.285156 561.421875 1393.054688 C 564.019531 1395.652344 567.269531 1396.953125 570.839844 1396.953125 Z M 593.90625 1407.023438 C 581.238281 1419.691406 560.445312 1419.691406 547.777344 1407.023438 C 527.308594 1386.558594 541.929688 1351.472656 570.839844 1351.472656 C 600.078125 1351.472656 614.695312 1386.558594 593.90625 1407.023438 Z M 688.765625 1462.574219 C 717.351562 1462.574219 731.644531 1427.8125 711.503906 1407.671875 C 691.363281 1387.53125 656.605469 1401.824219 656.605469 1430.414062 C 656.605469 1448.28125 670.898438 1462.574219 688.765625 1462.574219 Z M 725.148438 1466.796875 C 692.664062 1499.28125 637.113281 1476.21875 637.113281 1430.414062 C 637.113281 1384.609375 692.664062 1361.542969 725.148438 1394.027344 C 745.289062 1414.171875 745.289062 1446.980469 725.148438 1466.796875 Z M 937.28125 150.152344 C 946.375 150.152344 954.496094 153.726562 960.34375 159.898438 C 980.8125 180.363281 966.191406 215.773438 937.28125 215.773438 C 908.367188 215.773438 893.75 180.363281 914.214844 159.898438 C 920.0625 153.726562 928.183594 150.152344 937.28125 150.152344 Z M 946.375 173.539062 C 934.355469 161.195312 915.515625 180.039062 927.859375 192.058594 C 940.203125 204.402344 958.71875 185.5625 946.375 173.539062 Z M 864.1875 0.71875 C 915.191406 0.71875 940.855469 62.441406 904.792969 98.824219 C 868.734375 135.207031 806.6875 109.21875 806.6875 58.214844 C 806.6875 26.378906 832.351562 0.71875 864.1875 0.71875 Z M 890.824219 31.253906 C 867.109375 7.539062 826.179688 24.429688 826.179688 57.890625 C 826.179688 91.675781 867.109375 108.570312 890.824219 84.855469 C 905.769531 70.238281 905.769531 46.195312 890.824219 31.253906 Z M 514.316406 934.679688 C 492.226562 881.40625 480.855469 824.230469 480.855469 765.753906 C 480.855469 760.234375 485.402344 756.011719 490.601562 756.011719 L 662.125 756.011719 C 667.324219 756.011719 671.871094 760.234375 671.871094 765.753906 C 671.871094 810.585938 683.566406 853.792969 705.980469 891.476562 C 775.824219 820.65625 775.5 706.632812 705.007812 636.460938 C 634.1875 565.644531 519.515625 565.644531 449.019531 636.460938 C 354.8125 730.347656 390.871094 889.203125 514.316406 934.679688 Z M 691.039062 905.121094 C 667.324219 866.136719 654.003906 821.628906 652.378906 775.5 L 500.347656 775.5 C 501.648438 833.652344 514.640625 889.527344 538.679688 941.503906 C 593.257812 953.199219 649.132812 939.230469 691.039062 905.121094 Z M 888.226562 1012.648438 C 1037.011719 1032.136719 1169.554688 916.164062 1169.554688 765.753906 C 1169.554688 765.429688 1169.554688 765.105469 1169.554688 764.78125 L 1171.828125 446.097656 L 1084.765625 446.097656 C 1077.292969 446.097656 1072.421875 437.976562 1076.320312 431.152344 L 1257.914062 115.066406 C 1261.488281 108.570312 1271.234375 108.570312 1274.808594 115.066406 L 1456.726562 431.476562 C 1460.625 437.976562 1455.753906 446.097656 1448.28125 446.097656 L 1360.894531 446.097656 L 1360.570312 765.753906 C 1360.570312 1008.75 1163.707031 1205.613281 920.710938 1205.613281 C 819.683594 1205.613281 723.199219 1171.175781 645.882812 1109.128906 C 645.882812 1126.023438 647.507812 1139.339844 633.863281 1152.660156 C 626.71875 1160.132812 616.320312 1164.679688 605.277344 1164.679688 L 547.453125 1164.679688 C 525.363281 1164.679688 507.167969 1146.488281 507.167969 1124.398438 L 507.167969 1101.984375 C 507.167969 1092.238281 500.996094 1084.441406 491.578125 1081.839844 C 464.289062 1074.371094 437.324219 1063.324219 412.960938 1049.355469 C 404.515625 1044.484375 394.769531 1045.78125 387.621094 1052.605469 C 373.328125 1066.898438 363.582031 1080.21875 343.117188 1080.21875 C 332.722656 1080.21875 322.324219 1076.320312 314.527344 1068.199219 L 273.597656 1027.265625 C 258.003906 1011.671875 258.003906 986.007812 273.597656 970.089844 L 289.515625 954.171875 C 296.335938 947.351562 297.636719 937.28125 292.761719 928.832031 C 278.46875 904.144531 267.425781 877.507812 259.953125 850.21875 C 257.355469 840.796875 249.558594 834.625 239.8125 834.625 C 219.671875 834.625 203.429688 837.222656 188.808594 822.605469 C 181.664062 815.457031 177.113281 805.0625 177.113281 794.019531 L 177.113281 736.195312 C 177.113281 714.101562 195.304688 695.910156 217.398438 695.910156 L 239.8125 695.910156 C 249.558594 695.910156 257.355469 689.738281 259.953125 680.316406 C 267.425781 652.707031 278.46875 626.390625 292.761719 601.703125 C 297.636719 593.257812 296.335938 583.511719 289.515625 576.363281 C 275.222656 562.070312 261.902344 552.324219 261.902344 531.859375 C 261.902344 521.789062 265.800781 510.742188 273.597656 503.269531 L 314.527344 462.339844 C 330.121094 446.746094 356.109375 446.746094 371.703125 462.339844 L 387.621094 478.257812 C 394.445312 485.078125 404.515625 486.378906 412.960938 481.503906 C 437.648438 467.210938 464.289062 456.167969 491.574219 448.695312 C 500.996094 446.097656 507.167969 438.300781 507.167969 428.554688 L 507.167969 406.789062 C 507.167969 384.375 525.359375 366.507812 547.453125 366.507812 L 605.277344 366.507812 C 627.691406 366.507812 645.558594 384.699219 645.558594 406.789062 L 645.558594 429.203125 C 645.558594 438.949219 651.730469 446.746094 661.152344 449.34375 C 673.820312 452.59375 689.738281 458.117188 701.433594 462.988281 C 714.753906 468.511719 727.421875 474.683594 739.765625 481.832031 C 748.214844 486.703125 758.285156 485.402344 765.105469 478.582031 C 779.398438 464.289062 788.820312 450.96875 809.609375 450.96875 C 820.007812 450.96875 830.402344 454.867188 838.199219 462.664062 L 879.128906 503.597656 C 894.722656 519.1875 894.722656 545.175781 879.128906 560.769531 L 863.210938 576.6875 C 856.390625 583.511719 855.089844 593.582031 859.964844 602.027344 C 874.257812 626.714844 885.304688 653.03125 892.449219 680.644531 C 895.046875 690.0625 903.171875 696.234375 912.589844 696.234375 C 932.730469 696.234375 948.976562 693.636719 963.59375 707.929688 C 971.066406 715.402344 975.613281 725.472656 975.613281 736.519531 L 975.613281 794.34375 C 975.613281 816.757812 957.421875 834.625 935.332031 834.625 L 912.914062 834.625 C 903.171875 834.625 895.375 840.796875 892.773438 850.21875 C 885.304688 877.832031 874.257812 904.46875 860.289062 928.832031 C 855.417969 937.28125 856.714844 947.351562 863.539062 954.171875 C 877.832031 968.464844 891.152344 978.210938 891.152344 998.679688 C 890.5 1003.226562 889.851562 1008.097656 888.226562 1012.648438 Z M 650.429688 1088.015625 C 817.082031 1227.703125 1063.324219 1217.308594 1217.632812 1063 C 1293.648438 986.984375 1340.753906 881.730469 1340.753906 765.753906 L 1341.078125 436.351562 C 1341.078125 431.152344 1345.625 426.605469 1350.824219 426.605469 L 1431.0625 426.605469 L 1266.035156 139.429688 L 1101.007812 426.605469 L 1181.246094 426.605469 C 1186.445312 426.605469 1190.992188 430.828125 1190.992188 436.351562 L 1188.71875 764.78125 C 1188.71875 765.105469 1188.71875 765.429688 1188.71875 765.753906 C 1188.71875 931.757812 1039.609375 1057.800781 875.558594 1030.515625 L 837.875 1068.199219 C 822.28125 1083.789062 796.617188 1083.789062 780.699219 1068.199219 L 764.78125 1052.28125 C 757.960938 1045.457031 747.886719 1044.15625 739.441406 1049.03125 C 714.753906 1063.324219 688.441406 1074.371094 660.828125 1081.515625 C 656.605469 1082.492188 653.03125 1084.765625 650.429688 1088.015625 Z M 752.113281 1214.707031 C 764.132812 1210.160156 771.277344 1228.027344 759.257812 1232.898438 C 517.566406 1327.433594 243.386719 1222.503906 127.410156 990.230469 C 85.503906 906.09375 67.3125 810.910156 76.734375 716.378906 L 62.765625 736.195312 C 55.292969 746.914062 39.375 735.542969 46.847656 725.148438 L 79.332031 678.695312 C 83.230469 673.171875 92.003906 672.847656 95.898438 679.667969 L 126.761719 730.019531 C 133.582031 741.066406 117.015625 751.136719 110.195312 740.09375 L 96.226562 717.351562 C 77.382812 904.46875 169.316406 1087.6875 334.996094 1183.195312 C 463.636719 1257.589844 616.320312 1267.984375 752.113281 1214.707031 Z M 1096.136719 810.585938 C 1102.308594 799.214844 1119.199219 808.636719 1113.027344 820.007812 L 1079.890625 880.105469 C 1076.320312 886.601562 1067.546875 886.925781 1063.324219 880.753906 L 1026.941406 827.476562 C 1019.792969 816.757812 1035.710938 806.039062 1042.859375 816.757812 L 1060.074219 842.097656 C 1064.625 739.441406 1048.054688 639.710938 1006.472656 552.648438 C 967.167969 470.136719 905.117188 399.316406 816.757812 348.640625 C 586.109375 215.449219 290.8125 294.710938 157.949219 525.035156 C 151.449219 536.082031 134.882812 526.335938 141.054688 515.289062 C 279.121094 275.222656 587.734375 193.03125 826.503906 331.746094 C 918.113281 384.699219 982.761719 458.441406 1023.691406 544.527344 C 1066.574219 633.539062 1083.789062 735.542969 1079.242188 840.148438 Z M 576.6875 564.019531 C 687.464844 564.019531 777.449219 654.003906 777.449219 764.78125 C 777.449219 875.558594 687.464844 965.21875 576.6875 965.21875 C 465.914062 965.21875 376.25 875.558594 376.25 764.78125 C 376.25 654.003906 465.914062 564.019531 576.6875 564.019531 Z M 604.953125 385.996094 L 547.125 385.996094 C 535.757812 385.996094 526.335938 395.417969 526.335938 406.789062 L 526.335938 429.203125 C 526.335938 447.71875 514.316406 463.3125 496.449219 468.1875 C 470.460938 475.332031 445.769531 485.402344 422.382812 498.722656 C 406.464844 508.144531 386.648438 505.542969 373.652344 492.226562 L 357.734375 476.308594 C 349.613281 468.1875 336.292969 468.1875 328.171875 476.308594 L 287.242188 517.238281 C 279.121094 525.359375 279.121094 538.679688 287.242188 546.800781 L 303.160156 562.71875 C 316.152344 575.714844 318.753906 595.53125 309.65625 611.449219 C 296.335938 634.511719 285.941406 659.527344 279.121094 685.515625 C 274.570312 703.382812 258.652344 715.402344 240.136719 715.402344 L 217.722656 715.402344 C 206.351562 715.402344 196.929688 724.824219 196.929688 736.195312 L 196.929688 794.019531 C 196.929688 805.386719 206.351562 814.808594 217.722656 814.808594 L 240.136719 814.808594 C 258.652344 814.808594 274.246094 826.828125 279.121094 844.695312 C 286.265625 870.683594 296.335938 895.375 309.65625 918.761719 C 319.078125 934.679688 316.476562 954.496094 303.160156 967.492188 L 287.242188 983.410156 C 279.121094 991.53125 279.121094 1004.851562 287.242188 1012.972656 L 328.171875 1053.902344 C 336.292969 1062.023438 349.613281 1062.023438 357.734375 1053.902344 L 373.652344 1037.984375 C 386.648438 1024.992188 406.464844 1022.394531 422.382812 1031.488281 C 445.769531 1044.808594 470.136719 1055.203125 496.449219 1062.023438 C 514.316406 1066.898438 526.335938 1082.492188 526.335938 1101.007812 L 526.335938 1123.421875 C 526.335938 1134.792969 535.757812 1144.214844 547.125 1144.214844 L 604.953125 1144.214844 C 616.320312 1144.214844 625.742188 1134.792969 625.742188 1123.421875 L 625.742188 1101.007812 C 625.742188 1082.492188 637.761719 1066.898438 655.628906 1062.023438 C 681.617188 1055.203125 706.308594 1044.808594 729.695312 1031.488281 C 745.613281 1022.394531 765.429688 1024.992188 778.425781 1037.984375 L 794.34375 1053.902344 C 802.464844 1062.023438 815.785156 1062.023438 823.90625 1053.902344 L 864.835938 1012.972656 C 868.734375 1008.75 871.007812 1003.550781 871.007812 998.027344 C 871.007812 977.886719 841.121094 972.039062 837.550781 944.101562 C 836.574219 935.65625 838.199219 926.558594 842.746094 918.4375 C 856.066406 895.375 866.460938 870.359375 873.285156 844.371094 C 878.15625 826.503906 893.75 814.484375 912.265625 814.484375 L 934.679688 814.484375 C 946.050781 814.484375 955.472656 805.0625 955.472656 793.691406 L 955.472656 735.867188 C 955.472656 724.5 946.050781 715.078125 934.679688 715.078125 L 912.265625 715.078125 C 893.75 715.078125 878.15625 703.058594 873.285156 685.191406 C 866.460938 659.203125 856.066406 634.1875 842.746094 611.125 C 833.652344 595.207031 836.25 575.390625 849.242188 562.394531 L 865.160156 546.476562 C 873.285156 538.355469 873.285156 525.035156 865.160156 516.914062 L 824.230469 475.984375 C 816.109375 467.863281 802.789062 467.863281 794.667969 475.984375 L 778.75 491.902344 C 765.753906 504.894531 745.9375 507.492188 730.019531 498.398438 C 718.328125 491.902344 706.308594 485.730469 693.960938 480.53125 C 681.941406 475.332031 668.949219 471.109375 655.953125 467.535156 C 638.085938 462.988281 626.066406 447.070312 626.066406 428.554688 L 626.066406 406.789062 C 626.066406 395.417969 616.644531 385.996094 604.953125 385.996094 Z M 604.953125 385.996094 " fill-opacity="1" fill-rule="nonzero"/></svg>