<svg xmlns="http://www.w3.org/2000/svg" xmlns:xlink="http://www.w3.org/1999/xlink" width="2000" zoomAndPan="magnify" viewBox="0 0 1500 1499.999933" height="2000" preserveAspectRatio="xMidYMid meet" version="1.0"><defs><clipPath id="b60a7c5988"><path d="M 994 1018 L 1500 1018 L 1500 1483.5 L 994 1483.5 Z M 994 1018 " clip-rule="nonzero"/></clipPath></defs><path fill="#102770" d="M 938.847656 1386.519531 L 567.878906 1386.519531 C 566.03125 1386.519531 564.289062 1385.640625 563.191406 1384.148438 C 562.09375 1382.660156 561.777344 1380.738281 562.324219 1378.972656 L 608.871094 1229.195312 C 609.625 1226.761719 611.882812 1225.101562 614.425781 1225.101562 L 892.300781 1225.101562 C 894.84375 1225.101562 897.101562 1226.761719 897.855469 1229.195312 L 944.402344 1378.972656 C 944.949219 1380.738281 944.632812 1382.660156 943.535156 1384.148438 C 942.4375 1385.640625 940.691406 1386.519531 938.847656 1386.519531 Z M 575.785156 1374.878906 L 930.941406 1374.878906 L 888.015625 1236.742188 L 618.710938 1236.742188 Z M 575.785156 1374.878906 " fill-opacity="1" fill-rule="nonzero"/><path fill="#102770" d="M 1000.28125 1091.953125 L 365.714844 1091.953125 C 364.339844 1091.953125 363.011719 1091.46875 361.960938 1090.578125 C 356.4375 1085.914062 351.253906 1081.910156 346.113281 1078.34375 C 337.113281 1072 327.75 1066.441406 318.25 1061.796875 C 314.105469 1059.722656 310.015625 1057.910156 305.804688 1056.089844 C 303.070312 1054.996094 300.070312 1053.84375 297.070312 1052.691406 C 293.535156 1051.480469 290.964844 1050.582031 288.390625 1049.800781 L 284.609375 1048.65625 C 280.558594 1047.382812 277.132812 1046.5 273.597656 1045.726562 C 269.667969 1044.804688 265.71875 1043.898438 261.65625 1043.21875 C 257.9375 1042.523438 254.226562 1041.960938 250.511719 1041.511719 C 247.589844 1041.15625 245.394531 1038.675781 245.394531 1035.734375 L 245.394531 989.871094 C 245.394531 986.65625 247.996094 984.050781 251.210938 984.050781 L 265.523438 984.050781 C 270.335938 984.050781 274.253906 980.136719 274.253906 975.324219 L 274.253906 945.289062 C 274.253906 940.542969 270.335938 936.679688 265.523438 936.679688 L 221.539062 936.679688 C 218.324219 936.679688 215.722656 934.074219 215.722656 930.859375 L 215.722656 415.089844 C 215.722656 371.320312 251.375 335.710938 295.203125 335.710938 L 1211.609375 335.710938 C 1255.367188 335.710938 1290.972656 371.320312 1290.972656 415.089844 L 1290.972656 1012.566406 C 1290.972656 1016.460938 1290.636719 1020.601562 1289.972656 1024.875 C 1289.527344 1027.707031 1287.089844 1029.800781 1284.222656 1029.800781 L 1061.140625 1029.800781 C 1030.792969 1029.800781 1006.101562 1054.492188 1006.101562 1084.851562 L 1006.101562 1086.132812 C 1006.101562 1089.347656 1003.496094 1091.953125 1000.28125 1091.953125 Z M 367.832031 1080.3125 L 994.617188 1080.3125 C 996.953125 1045.648438 1025.894531 1018.160156 1061.140625 1018.160156 L 1279.078125 1018.160156 C 1279.25 1016.230469 1279.335938 1014.367188 1279.335938 1012.566406 L 1279.335938 415.089844 C 1279.335938 377.738281 1248.953125 347.347656 1211.609375 347.347656 L 295.203125 347.347656 C 257.789062 347.347656 227.359375 377.738281 227.359375 415.089844 L 227.359375 925.039062 L 265.523438 925.039062 C 276.753906 925.039062 285.890625 934.125 285.890625 945.289062 L 285.890625 975.324219 C 285.890625 986.554688 276.753906 995.691406 265.523438 995.691406 L 257.03125 995.691406 L 257.03125 1030.644531 C 259.273438 1030.976562 261.5 1031.347656 263.6875 1031.757812 C 267.886719 1032.457031 272.085938 1033.414062 276.171875 1034.375 C 279.984375 1035.207031 283.773438 1036.191406 287.566406 1037.410156 C 287.878906 1037.472656 289.015625 1037.730469 289.316406 1037.839844 L 292.117188 1038.777344 C 294.390625 1039.457031 296.96875 1040.347656 299.46875 1041.25 C 299.628906 1041.289062 299.78125 1041.328125 299.921875 1041.375 C 300.015625 1041.40625 301.152344 1041.792969 301.242188 1041.824219 C 304.289062 1042.992188 307.34375 1044.167969 310.28125 1045.347656 C 314.832031 1047.316406 319.117188 1049.21875 323.402344 1051.363281 C 333.414062 1056.253906 343.3125 1062.128906 352.777344 1068.804688 C 357.675781 1072.203125 362.632812 1075.984375 367.832031 1080.3125 Z M 367.832031 1080.3125 " fill-opacity="1" fill-rule="nonzero"/><path fill="#102770" d="M 1000.28125 1236.753906 L 441.476562 1236.753906 C 438.480469 1236.753906 435.96875 1234.476562 435.6875 1231.492188 C 430.378906 1176.53125 404.191406 1126.484375 361.949219 1090.566406 C 356.4375 1085.914062 351.253906 1081.910156 346.113281 1078.34375 C 337.113281 1072 327.75 1066.441406 318.25 1061.796875 C 314.105469 1059.722656 310.015625 1057.910156 305.804688 1056.089844 C 303.070312 1054.996094 300.070312 1053.84375 297.070312 1052.691406 L 294.46875 1051.835938 C 292.433594 1051.125 290.445312 1050.425781 288.390625 1049.800781 L 284.609375 1048.65625 C 280.558594 1047.382812 277.132812 1046.5 273.597656 1045.726562 C 269.667969 1044.804688 265.71875 1043.898438 261.65625 1043.21875 C 257.9375 1042.523438 254.226562 1041.960938 250.511719 1041.511719 C 215.730469 1037.285156 183.019531 1041.375 152.296875 1052.492188 C 150.519531 1053.136719 148.523438 1052.871094 146.980469 1051.78125 C 145.425781 1050.695312 144.5 1048.914062 144.5 1047.019531 L 144.5 385.066406 C 144.5 312.921875 203.175781 254.230469 275.296875 254.230469 L 1231.390625 254.230469 C 1303.511719 254.230469 1362.191406 312.921875 1362.191406 385.066406 L 1362.191406 1023.980469 C 1362.191406 1027.191406 1359.589844 1029.800781 1356.371094 1029.800781 L 1061.140625 1029.800781 C 1030.792969 1029.800781 1006.101562 1054.492188 1006.101562 1084.851562 L 1006.101562 1230.933594 C 1006.101562 1234.148438 1003.496094 1236.753906 1000.28125 1236.753906 Z M 446.699219 1225.113281 L 994.464844 1225.113281 L 994.464844 1084.851562 C 994.464844 1048.078125 1024.375 1018.160156 1061.140625 1018.160156 L 1350.554688 1018.160156 L 1350.554688 385.066406 C 1350.554688 319.339844 1297.097656 265.871094 1231.390625 265.871094 L 275.296875 265.871094 C 209.59375 265.871094 156.136719 319.339844 156.136719 385.066406 L 156.136719 1038.886719 C 186.890625 1029.03125 219.917969 1026.066406 251.910156 1029.957031 C 255.875 1030.433594 259.847656 1031.035156 263.6875 1031.757812 C 267.886719 1032.457031 272.085938 1033.414062 276.171875 1034.375 C 279.984375 1035.207031 283.773438 1036.191406 287.566406 1037.410156 C 287.878906 1037.472656 289.015625 1037.730469 289.316406 1037.839844 L 292.117188 1038.777344 C 293.984375 1039.335938 296.132812 1040.085938 298.320312 1040.855469 L 299.421875 1041.238281 C 299.601562 1041.28125 299.765625 1041.324219 299.921875 1041.375 C 300.015625 1041.40625 301.152344 1041.792969 301.242188 1041.824219 C 304.289062 1042.992188 307.34375 1044.167969 310.28125 1045.347656 C 314.832031 1047.316406 319.117188 1049.21875 323.402344 1051.363281 C 333.410156 1056.253906 343.3125 1062.128906 352.777344 1068.804688 C 358.1875 1072.558594 363.664062 1076.777344 369.472656 1081.6875 C 412.691406 1118.4375 439.976562 1169.199219 446.699219 1225.113281 Z M 446.699219 1225.113281 " fill-opacity="1" fill-rule="nonzero"/><path fill="#102770" d="M 892.558594 1156.40625 L 614.167969 1156.40625 C 610.949219 1156.40625 608.347656 1153.800781 608.347656 1150.589844 C 608.347656 1147.375 610.949219 1144.769531 614.167969 1144.769531 L 892.558594 1144.769531 C 895.777344 1144.769531 898.378906 1147.375 898.378906 1150.589844 C 898.378906 1153.800781 895.777344 1156.40625 892.558594 1156.40625 Z M 892.558594 1156.40625 " fill-opacity="1" fill-rule="nonzero"/><path fill="#102770" d="M 107.089844 287.902344 C 103.875 287.902344 101.273438 285.296875 101.273438 282.082031 L 101.273438 227.679688 C 101.273438 224.464844 103.875 221.859375 107.089844 221.859375 C 110.304688 221.859375 112.910156 224.464844 112.910156 227.679688 L 112.910156 282.082031 C 112.910156 285.296875 110.304688 287.902344 107.089844 287.902344 Z M 107.089844 287.902344 " fill-opacity="1" fill-rule="nonzero"/><path fill="#102770" d="M 134.289062 260.699219 C 134.289062 260.699219 134.289062 260.699219 134.285156 260.699219 L 79.875 260.664062 C 76.664062 260.660156 74.058594 258.054688 74.058594 254.839844 C 74.058594 251.628906 76.667969 249.023438 79.878906 249.023438 C 79.878906 249.023438 79.878906 249.023438 79.882812 249.023438 L 134.296875 249.058594 C 137.507812 249.0625 140.109375 251.667969 140.109375 254.878906 C 140.109375 258.09375 137.5 260.699219 134.289062 260.699219 Z M 134.289062 260.699219 " fill-opacity="1" fill-rule="nonzero"/><path fill="#102770" d="M 44.378906 527.546875 C 27.398438 527.546875 13.585938 513.730469 13.585938 496.75 C 13.585938 479.765625 27.398438 465.945312 44.378906 465.945312 C 61.355469 465.945312 75.167969 479.765625 75.167969 496.75 C 75.167969 513.730469 61.355469 527.546875 44.378906 527.546875 Z M 44.378906 477.585938 C 33.8125 477.585938 25.222656 486.183594 25.222656 496.75 C 25.222656 507.316406 33.8125 515.910156 44.378906 515.910156 C 54.941406 515.910156 63.53125 507.316406 63.53125 496.75 C 63.53125 486.183594 54.941406 477.585938 44.378906 477.585938 Z M 44.378906 477.585938 " fill-opacity="1" fill-rule="nonzero"/><path fill="#102770" d="M 121.523438 388.839844 C 121.523438 389.789062 121.433594 390.726562 121.246094 391.65625 C 121.0625 392.585938 120.789062 393.488281 120.425781 394.363281 C 120.0625 395.238281 119.617188 396.070312 119.09375 396.859375 C 118.566406 397.648438 117.96875 398.375 117.296875 399.046875 C 116.628906 399.714844 115.898438 400.316406 115.113281 400.839844 C 114.324219 401.367188 113.492188 401.8125 112.617188 402.175781 C 111.742188 402.539062 110.839844 402.8125 109.910156 402.996094 C 108.980469 403.183594 108.042969 403.273438 107.09375 403.273438 C 106.148438 403.273438 105.207031 403.183594 104.28125 402.996094 C 103.351562 402.8125 102.449219 402.539062 101.574219 402.175781 C 100.699219 401.8125 99.867188 401.367188 99.078125 400.839844 C 98.289062 400.316406 97.5625 399.714844 96.890625 399.046875 C 96.222656 398.375 95.625 397.648438 95.097656 396.859375 C 94.570312 396.070312 94.125 395.238281 93.761719 394.363281 C 93.402344 393.488281 93.128906 392.585938 92.941406 391.65625 C 92.757812 390.726562 92.664062 389.789062 92.664062 388.839844 C 92.664062 387.894531 92.757812 386.953125 92.941406 386.023438 C 93.128906 385.09375 93.402344 384.191406 93.761719 383.316406 C 94.125 382.441406 94.570312 381.609375 95.097656 380.820312 C 95.625 380.035156 96.222656 379.304688 96.890625 378.632812 C 97.5625 377.964844 98.289062 377.367188 99.078125 376.839844 C 99.867188 376.3125 100.699219 375.867188 101.574219 375.507812 C 102.449219 375.144531 103.351562 374.871094 104.28125 374.683594 C 105.207031 374.5 106.148438 374.40625 107.09375 374.40625 C 108.042969 374.40625 108.980469 374.5 109.910156 374.683594 C 110.839844 374.871094 111.742188 375.144531 112.617188 375.507812 C 113.492188 375.867188 114.324219 376.3125 115.113281 376.839844 C 115.898438 377.367188 116.628906 377.964844 117.296875 378.632812 C 117.96875 379.304688 118.566406 380.035156 119.09375 380.820312 C 119.617188 381.609375 120.0625 382.441406 120.425781 383.316406 C 120.789062 384.191406 121.0625 385.09375 121.246094 386.023438 C 121.433594 386.953125 121.523438 387.894531 121.523438 388.839844 Z M 121.523438 388.839844 " fill-opacity="1" fill-rule="nonzero"/><path fill="#102770" d="M 126.34375 636.6875 C 126.34375 637.320312 126.3125 637.949219 126.25 638.574219 C 126.1875 639.203125 126.09375 639.824219 125.972656 640.445312 C 125.847656 641.0625 125.695312 641.671875 125.511719 642.277344 C 125.332031 642.878906 125.117188 643.472656 124.878906 644.054688 C 124.636719 644.636719 124.367188 645.207031 124.070312 645.765625 C 123.773438 646.320312 123.449219 646.859375 123.097656 647.382812 C 122.75 647.910156 122.375 648.414062 121.972656 648.902344 C 121.574219 649.390625 121.152344 649.855469 120.703125 650.300781 C 120.257812 650.746094 119.792969 651.171875 119.304688 651.570312 C 118.816406 651.972656 118.3125 652.347656 117.789062 652.695312 C 117.265625 653.046875 116.722656 653.371094 116.167969 653.667969 C 115.613281 653.964844 115.042969 654.234375 114.460938 654.476562 C 113.878906 654.714844 113.285156 654.929688 112.683594 655.113281 C 112.078125 655.292969 111.46875 655.449219 110.851562 655.570312 C 110.230469 655.695312 109.609375 655.785156 108.980469 655.847656 C 108.355469 655.910156 107.726562 655.941406 107.09375 655.941406 C 106.464844 655.941406 105.835938 655.910156 105.207031 655.847656 C 104.582031 655.785156 103.957031 655.695312 103.339844 655.570312 C 102.722656 655.449219 102.109375 655.292969 101.507812 655.113281 C 100.902344 654.929688 100.3125 654.714844 99.730469 654.476562 C 99.148438 654.234375 98.578125 653.964844 98.019531 653.667969 C 97.464844 653.371094 96.925781 653.046875 96.402344 652.695312 C 95.878906 652.347656 95.371094 651.972656 94.882812 651.570312 C 94.398438 651.171875 93.929688 650.746094 93.484375 650.300781 C 93.039062 649.855469 92.617188 649.390625 92.214844 648.902344 C 91.816406 648.414062 91.441406 647.910156 91.089844 647.382812 C 90.742188 646.859375 90.417969 646.320312 90.121094 645.765625 C 89.824219 645.207031 89.554688 644.636719 89.3125 644.054688 C 89.070312 643.472656 88.859375 642.878906 88.675781 642.277344 C 88.492188 641.671875 88.339844 641.0625 88.21875 640.445312 C 88.09375 639.824219 88 639.203125 87.941406 638.574219 C 87.878906 637.949219 87.847656 637.320312 87.847656 636.6875 C 87.847656 636.058594 87.878906 635.429688 87.941406 634.800781 C 88 634.175781 88.09375 633.550781 88.21875 632.933594 C 88.339844 632.3125 88.492188 631.703125 88.675781 631.101562 C 88.859375 630.496094 89.070312 629.902344 89.3125 629.320312 C 89.554688 628.738281 89.824219 628.167969 90.121094 627.613281 C 90.417969 627.058594 90.742188 626.515625 91.089844 625.992188 C 91.441406 625.46875 91.816406 624.960938 92.214844 624.476562 C 92.617188 623.988281 93.039062 623.519531 93.484375 623.074219 C 93.929688 622.628906 94.398438 622.207031 94.882812 621.804688 C 95.371094 621.40625 95.878906 621.03125 96.402344 620.679688 C 96.925781 620.332031 97.464844 620.007812 98.019531 619.710938 C 98.578125 619.414062 99.148438 619.144531 99.730469 618.902344 C 100.3125 618.660156 100.902344 618.449219 101.507812 618.265625 C 102.109375 618.082031 102.722656 617.929688 103.339844 617.804688 C 103.957031 617.683594 104.582031 617.589844 105.207031 617.527344 C 105.835938 617.46875 106.464844 617.4375 107.09375 617.4375 C 107.726562 617.4375 108.355469 617.46875 108.980469 617.527344 C 109.609375 617.589844 110.230469 617.683594 110.851562 617.804688 C 111.46875 617.929688 112.078125 618.082031 112.683594 618.265625 C 113.285156 618.449219 113.878906 618.660156 114.460938 618.902344 C 115.042969 619.144531 115.613281 619.414062 116.167969 619.710938 C 116.722656 620.007812 117.265625 620.332031 117.789062 620.679688 C 118.3125 621.03125 118.816406 621.40625 119.304688 621.804688 C 119.792969 622.207031 120.257812 622.628906 120.703125 623.074219 C 121.152344 623.519531 121.574219 623.988281 121.972656 624.476562 C 122.375 624.960938 122.75 625.46875 123.097656 625.992188 C 123.449219 626.515625 123.773438 627.058594 124.070312 627.613281 C 124.367188 628.167969 124.636719 628.738281 124.878906 629.320312 C 125.117188 629.902344 125.332031 630.496094 125.511719 631.101562 C 125.695312 631.703125 125.847656 632.3125 125.972656 632.933594 C 126.09375 633.550781 126.1875 634.175781 126.25 634.800781 C 126.3125 635.429688 126.34375 636.058594 126.34375 636.6875 Z M 126.34375 636.6875 " fill-opacity="1" fill-rule="nonzero"/><path fill="#102770" d="M 1409.011719 128.355469 C 1405.796875 128.355469 1403.191406 125.75 1403.191406 122.535156 L 1403.191406 68.132812 C 1403.191406 64.921875 1405.796875 62.3125 1409.011719 62.3125 C 1412.226562 62.3125 1414.828125 64.921875 1414.828125 68.132812 L 1414.828125 122.535156 C 1414.828125 125.75 1412.226562 128.355469 1409.011719 128.355469 Z M 1409.011719 128.355469 " fill-opacity="1" fill-rule="nonzero"/><path fill="#102770" d="M 1381.8125 101.15625 C 1378.601562 101.15625 1375.992188 98.550781 1375.992188 95.339844 C 1375.992188 92.125 1378.59375 89.519531 1381.804688 89.515625 L 1436.21875 89.480469 C 1436.222656 89.480469 1436.222656 89.480469 1436.222656 89.480469 C 1439.433594 89.480469 1442.042969 92.082031 1442.042969 95.296875 C 1442.042969 98.511719 1439.4375 101.117188 1436.230469 101.117188 L 1381.816406 101.15625 C 1381.8125 101.15625 1381.8125 101.15625 1381.8125 101.15625 Z M 1381.8125 101.15625 " fill-opacity="1" fill-rule="nonzero"/><path fill="#102770" d="M 1469.933594 302.882812 C 1452.957031 302.882812 1439.144531 289.0625 1439.144531 272.082031 C 1439.144531 255.097656 1452.957031 241.28125 1469.933594 241.28125 C 1486.914062 241.28125 1500.726562 255.097656 1500.726562 272.082031 C 1500.726562 289.0625 1486.914062 302.882812 1469.933594 302.882812 Z M 1469.933594 252.921875 C 1459.371094 252.921875 1450.78125 261.515625 1450.78125 272.082031 C 1450.78125 282.648438 1459.371094 291.242188 1469.933594 291.242188 C 1480.496094 291.242188 1489.089844 282.648438 1489.089844 272.082031 C 1489.089844 261.515625 1480.496094 252.921875 1469.933594 252.921875 Z M 1469.933594 252.921875 " fill-opacity="1" fill-rule="nonzero"/><path fill="#102770" d="M 1457.152344 416.824219 C 1457.152344 417.769531 1457.058594 418.710938 1456.875 419.640625 C 1456.691406 420.566406 1456.417969 421.472656 1456.054688 422.347656 C 1455.691406 423.222656 1455.246094 424.054688 1454.722656 424.839844 C 1454.195312 425.628906 1453.597656 426.359375 1452.925781 427.027344 C 1452.257812 427.699219 1451.527344 428.296875 1450.738281 428.824219 C 1449.953125 429.351562 1449.121094 429.796875 1448.246094 430.15625 C 1447.371094 430.519531 1446.46875 430.792969 1445.539062 430.980469 C 1444.609375 431.164062 1443.671875 431.257812 1442.722656 431.257812 C 1441.777344 431.257812 1440.835938 431.164062 1439.90625 430.980469 C 1438.976562 430.792969 1438.078125 430.519531 1437.199219 430.15625 C 1436.324219 429.796875 1435.492188 429.351562 1434.707031 428.824219 C 1433.917969 428.296875 1433.1875 427.699219 1432.519531 427.027344 C 1431.847656 426.359375 1431.25 425.628906 1430.726562 424.839844 C 1430.199219 424.054688 1429.753906 423.222656 1429.390625 422.347656 C 1429.027344 421.472656 1428.753906 420.566406 1428.570312 419.640625 C 1428.386719 418.710938 1428.292969 417.769531 1428.292969 416.824219 C 1428.292969 415.875 1428.386719 414.9375 1428.570312 414.007812 C 1428.753906 413.078125 1429.027344 412.175781 1429.390625 411.300781 C 1429.753906 410.425781 1430.199219 409.59375 1430.726562 408.804688 C 1431.25 408.015625 1431.847656 407.285156 1432.519531 406.617188 C 1433.1875 405.945312 1433.917969 405.347656 1434.707031 404.820312 C 1435.492188 404.296875 1436.324219 403.851562 1437.199219 403.488281 C 1438.074219 403.125 1438.976562 402.851562 1439.90625 402.667969 C 1440.835938 402.480469 1441.777344 402.390625 1442.722656 402.390625 C 1443.671875 402.390625 1444.609375 402.480469 1445.539062 402.667969 C 1446.46875 402.851562 1447.371094 403.125 1448.246094 403.488281 C 1449.121094 403.851562 1449.953125 404.296875 1450.738281 404.820312 C 1451.527344 405.347656 1452.257812 405.945312 1452.925781 406.617188 C 1453.597656 407.285156 1454.195312 408.015625 1454.722656 408.804688 C 1455.246094 409.59375 1455.691406 410.425781 1456.054688 411.300781 C 1456.417969 412.175781 1456.691406 413.078125 1456.875 414.007812 C 1457.058594 414.9375 1457.152344 415.875 1457.152344 416.824219 Z M 1457.152344 416.824219 " fill-opacity="1" fill-rule="nonzero"/><path fill="#102770" d="M 1305.117188 19.472656 C 1305.117188 20.101562 1305.085938 20.730469 1305.023438 21.359375 C 1304.960938 21.988281 1304.871094 22.609375 1304.746094 23.230469 C 1304.625 23.847656 1304.46875 24.457031 1304.289062 25.0625 C 1304.105469 25.664062 1303.890625 26.257812 1303.652344 26.839844 C 1303.410156 27.421875 1303.140625 27.992188 1302.84375 28.546875 C 1302.546875 29.105469 1302.222656 29.644531 1301.871094 30.167969 C 1301.523438 30.691406 1301.148438 31.199219 1300.746094 31.6875 C 1300.347656 32.171875 1299.925781 32.640625 1299.480469 33.085938 C 1299.03125 33.53125 1298.566406 33.953125 1298.078125 34.355469 C 1297.59375 34.753906 1297.085938 35.128906 1296.5625 35.480469 C 1296.039062 35.832031 1295.496094 36.15625 1294.941406 36.453125 C 1294.386719 36.75 1293.816406 37.019531 1293.234375 37.257812 C 1292.652344 37.5 1292.058594 37.714844 1291.457031 37.894531 C 1290.851562 38.078125 1290.242188 38.230469 1289.625 38.355469 C 1289.003906 38.476562 1288.382812 38.570312 1287.753906 38.632812 C 1287.128906 38.695312 1286.5 38.726562 1285.867188 38.726562 C 1285.238281 38.726562 1284.609375 38.695312 1283.980469 38.632812 C 1283.355469 38.570312 1282.730469 38.476562 1282.113281 38.355469 C 1281.496094 38.230469 1280.886719 38.078125 1280.28125 37.894531 C 1279.679688 37.714844 1279.085938 37.5 1278.503906 37.257812 C 1277.921875 37.019531 1277.351562 36.75 1276.796875 36.453125 C 1276.238281 36.15625 1275.699219 35.832031 1275.175781 35.480469 C 1274.652344 35.128906 1274.144531 34.753906 1273.660156 34.355469 C 1273.171875 33.953125 1272.703125 33.53125 1272.257812 33.085938 C 1271.8125 32.640625 1271.390625 32.171875 1270.992188 31.6875 C 1270.589844 31.199219 1270.214844 30.691406 1269.863281 30.167969 C 1269.515625 29.644531 1269.191406 29.105469 1268.894531 28.546875 C 1268.597656 27.992188 1268.328125 27.421875 1268.085938 26.839844 C 1267.84375 26.257812 1267.632812 25.664062 1267.449219 25.0625 C 1267.265625 24.457031 1267.113281 23.847656 1266.992188 23.230469 C 1266.867188 22.609375 1266.777344 21.988281 1266.714844 21.359375 C 1266.652344 20.730469 1266.621094 20.101562 1266.621094 19.472656 C 1266.621094 18.84375 1266.652344 18.214844 1266.714844 17.585938 C 1266.777344 16.957031 1266.867188 16.335938 1266.992188 15.714844 C 1267.113281 15.097656 1267.265625 14.488281 1267.449219 13.882812 C 1267.632812 13.28125 1267.84375 12.6875 1268.085938 12.105469 C 1268.328125 11.523438 1268.597656 10.953125 1268.894531 10.398438 C 1269.191406 9.839844 1269.515625 9.300781 1269.863281 8.777344 C 1270.214844 8.253906 1270.589844 7.746094 1270.988281 7.257812 C 1271.390625 6.773438 1271.8125 6.304688 1272.257812 5.859375 C 1272.703125 5.414062 1273.171875 4.992188 1273.660156 4.589844 C 1274.144531 4.191406 1274.652344 3.816406 1275.175781 3.464844 C 1275.699219 3.113281 1276.238281 2.789062 1276.796875 2.492188 C 1277.351562 2.195312 1277.921875 1.925781 1278.503906 1.6875 C 1279.085938 1.445312 1279.679688 1.230469 1280.28125 1.050781 C 1280.882812 0.867188 1281.496094 0.714844 1282.113281 0.589844 C 1282.730469 0.46875 1283.355469 0.375 1283.980469 0.3125 C 1284.609375 0.25 1285.238281 0.21875 1285.867188 0.21875 C 1286.5 0.21875 1287.128906 0.25 1287.753906 0.3125 C 1288.382812 0.375 1289.003906 0.46875 1289.625 0.589844 C 1290.242188 0.714844 1290.851562 0.867188 1291.457031 1.050781 C 1292.058594 1.230469 1292.652344 1.445312 1293.234375 1.6875 C 1293.816406 1.925781 1294.386719 2.195312 1294.941406 2.492188 C 1295.496094 2.789062 1296.039062 3.113281 1296.5625 3.464844 C 1297.085938 3.816406 1297.59375 4.191406 1298.078125 4.589844 C 1298.566406 4.992188 1299.03125 5.414062 1299.480469 5.859375 C 1299.925781 6.304688 1300.347656 6.773438 1300.746094 7.257812 C 1301.148438 7.746094 1301.523438 8.253906 1301.871094 8.777344 C 1302.222656 9.300781 1302.546875 9.839844 1302.84375 10.398438 C 1303.140625 10.953125 1303.410156 11.523438 1303.652344 12.105469 C 1303.890625 12.6875 1304.105469 13.28125 1304.289062 13.882812 C 1304.46875 14.488281 1304.625 15.097656 1304.746094 15.714844 C 1304.871094 16.335938 1304.960938 16.957031 1305.023438 17.585938 C 1305.085938 18.214844 1305.117188 18.84375 1305.117188 19.472656 Z M 1305.117188 19.472656 " fill-opacity="1" fill-rule="nonzero"/><path fill="#102770" d="M 1038.101562 1480.257812 L 468.589844 1480.257812 C 461.339844 1480.257812 455.4375 1474.410156 455.4375 1467.21875 C 455.4375 1442.496094 465.058594 1419.328125 482.527344 1401.980469 C 499.832031 1384.542969 522.992188 1374.921875 547.71875 1374.921875 L 958.96875 1374.921875 C 974.4375 1374.921875 989.695312 1378.832031 1003.09375 1386.234375 C 1004.945312 1387.257812 1006.101562 1389.207031 1006.101562 1391.328125 L 1006.101562 1416.824219 C 1006.101562 1440.066406 1020.804688 1460.820312 1042.699219 1468.480469 C 1044.964844 1469.273438 1046.511719 1471.378906 1046.589844 1473.777344 C 1046.675781 1476.179688 1045.273438 1478.382812 1043.0625 1479.328125 C 1041.605469 1479.945312 1039.941406 1480.257812 1038.101562 1480.257812 Z M 547.71875 1386.558594 C 526.117188 1386.558594 505.886719 1394.960938 490.757812 1410.210938 C 475.472656 1425.386719 467.074219 1445.625 467.074219 1467.21875 C 467.074219 1467.992188 467.753906 1468.617188 468.589844 1468.617188 L 1019.304688 1468.617188 C 1003.917969 1456.257812 994.464844 1437.339844 994.464844 1416.824219 L 994.464844 1394.847656 C 983.53125 1389.414062 971.332031 1386.558594 958.96875 1386.558594 Z M 547.71875 1386.558594 " fill-opacity="1" fill-rule="nonzero"/><path fill="#102770" d="M 456.886719 637 C 457.625 650.109375 460.714844 660.75 466.167969 668.929688 C 476.542969 684.238281 494.839844 691.890625 521.046875 691.890625 C 532.785156 691.890625 543.472656 690.214844 553.125 686.863281 C 571.78125 680.359375 581.113281 668.71875 581.113281 651.945312 C 581.113281 639.363281 577.179688 630.394531 569.320312 625.046875 C 561.347656 619.808594 548.878906 615.246094 531.890625 611.363281 L 500.597656 604.289062 C 480.160156 599.671875 465.699219 594.589844 457.199219 589.03125 C 442.527344 579.386719 435.191406 564.96875 435.191406 545.777344 C 435.191406 525.019531 442.371094 507.980469 456.730469 494.660156 C 471.097656 481.347656 491.425781 474.6875 517.742188 474.6875 C 541.957031 474.6875 562.53125 480.535156 579.457031 492.222656 C 596.390625 503.917969 604.855469 522.605469 604.855469 548.296875 L 575.445312 548.296875 C 573.878906 535.925781 570.519531 526.429688 565.386719 519.828125 C 555.847656 507.773438 539.652344 501.738281 516.792969 501.738281 C 498.347656 501.738281 485.085938 505.621094 477.011719 513.378906 C 468.945312 521.140625 464.90625 530.15625 464.90625 540.433594 C 464.90625 551.753906 469.628906 560.039062 479.0625 565.28125 C 485.242188 568.640625 499.242188 572.832031 521.046875 577.863281 L 553.4375 585.253906 C 569.050781 588.824219 581.113281 593.695312 589.601562 599.886719 C 604.273438 610.683594 611.609375 626.363281 611.609375 646.910156 C 611.609375 672.496094 602.3125 690.792969 583.703125 701.800781 C 565.097656 712.8125 543.472656 718.3125 518.84375 718.3125 C 490.117188 718.3125 467.636719 710.976562 451.386719 696.296875 C 435.136719 681.726562 427.171875 661.957031 427.484375 637 Z M 456.886719 637 " fill-opacity="1" fill-rule="nonzero"/><path fill="#102770" d="M 654.226562 480.507812 L 822.625 480.507812 L 822.625 508.820312 L 684.730469 508.820312 L 684.730469 578.964844 L 812.253906 578.964844 L 812.253906 605.703125 L 684.730469 605.703125 L 684.730469 684.027344 L 824.988281 684.027344 L 824.988281 711.550781 L 654.226562 711.550781 Z M 654.226562 480.507812 " fill-opacity="1" fill-rule="nonzero"/><path fill="#102770" d="M 1056.292969 513.535156 C 1071.601562 533.980469 1079.253906 560.144531 1079.253906 592.019531 C 1079.253906 626.519531 1070.496094 655.191406 1052.992188 678.050781 C 1032.449219 704.898438 1003.148438 718.3125 965.09375 718.3125 C 929.558594 718.3125 901.625 706.574219 881.285156 683.085938 C 863.152344 660.4375 854.082031 631.8125 854.082031 597.207031 C 854.082031 565.964844 861.84375 539.226562 877.355469 516.996094 C 897.269531 488.476562 926.734375 474.214844 965.722656 474.214844 C 1006.5 474.214844 1036.691406 487.324219 1056.292969 513.535156 Z M 1028.699219 660.671875 C 1041.015625 640.910156 1047.175781 618.183594 1047.175781 592.492188 C 1047.175781 565.335938 1040.074219 543.472656 1025.871094 526.90625 C 1011.664062 510.339844 992.242188 502.054688 967.613281 502.054688 C 943.710938 502.054688 924.214844 510.257812 909.117188 526.671875 C 894.019531 543.082031 886.472656 567.273438 886.472656 599.253906 C 886.472656 624.839844 892.945312 646.414062 905.894531 663.976562 C 918.839844 681.539062 939.828125 690.320312 968.867188 690.320312 C 996.441406 690.320312 1016.378906 680.4375 1028.699219 660.671875 Z M 1028.699219 660.671875 " fill-opacity="1" fill-rule="nonzero"/><path fill="#102770" d="M 1110.234375 959.246094 L 396.492188 959.246094 C 352.550781 959.246094 316.804688 923.488281 316.804688 879.539062 C 316.804688 858.179688 325.113281 838.167969 340.1875 823.1875 C 355.136719 808.132812 375.136719 799.828125 396.492188 799.828125 L 1110.234375 799.828125 C 1154.175781 799.828125 1189.925781 835.585938 1189.925781 879.539062 C 1189.925781 900.898438 1181.621094 920.90625 1166.546875 935.890625 C 1151.589844 950.941406 1131.582031 959.246094 1110.234375 959.246094 Z M 396.492188 811.46875 C 378.261719 811.46875 361.1875 818.554688 348.421875 831.414062 C 335.527344 844.222656 328.441406 861.300781 328.441406 879.539062 C 328.441406 917.070312 358.964844 947.605469 396.492188 947.605469 L 1110.234375 947.605469 C 1128.464844 947.605469 1145.539062 940.523438 1158.316406 927.65625 C 1171.203125 914.851562 1178.289062 897.773438 1178.289062 879.539062 C 1178.289062 842.003906 1147.761719 811.46875 1110.234375 811.46875 Z M 396.492188 811.46875 " fill-opacity="1" fill-rule="nonzero"/><path fill="#102770" d="M 1110.234375 959.246094 L 1083.496094 959.246094 C 1039.554688 959.246094 1003.808594 923.488281 1003.808594 879.539062 C 1003.808594 858.183594 1012.113281 838.171875 1027.1875 823.1875 C 1042.140625 808.132812 1062.148438 799.828125 1083.496094 799.828125 L 1110.234375 799.828125 C 1154.175781 799.828125 1189.925781 835.585938 1189.925781 879.539062 C 1189.925781 900.898438 1181.621094 920.90625 1166.546875 935.890625 C 1151.589844 950.941406 1131.582031 959.246094 1110.234375 959.246094 Z M 1083.496094 811.46875 C 1065.265625 811.46875 1048.191406 818.554688 1035.414062 831.417969 C 1022.527344 844.226562 1015.445312 861.304688 1015.445312 879.539062 C 1015.445312 917.070312 1045.972656 947.605469 1083.496094 947.605469 L 1110.234375 947.605469 C 1128.464844 947.605469 1145.539062 940.523438 1158.316406 927.65625 C 1171.203125 914.851562 1178.289062 897.773438 1178.289062 879.539062 C 1178.289062 842.003906 1147.761719 811.46875 1110.234375 811.46875 Z M 1083.496094 811.46875 " fill-opacity="1" fill-rule="nonzero"/><path fill="#102770" d="M 1091.046875 909.570312 C 1081.472656 909.570312 1072.472656 905.839844 1065.707031 899.070312 C 1058.933594 892.300781 1055.203125 883.292969 1055.203125 873.71875 C 1055.203125 864.144531 1058.933594 855.140625 1065.707031 848.371094 C 1079.238281 834.824219 1102.847656 834.824219 1116.394531 848.371094 C 1130.367188 862.347656 1130.367188 885.089844 1116.394531 899.070312 C 1109.621094 905.839844 1100.621094 909.570312 1091.046875 909.570312 Z M 1091.046875 849.507812 C 1084.582031 849.507812 1078.507812 852.027344 1073.933594 856.597656 C 1069.359375 861.175781 1066.839844 867.253906 1066.839844 873.71875 C 1066.839844 880.1875 1069.359375 886.265625 1073.933594 890.839844 C 1083.082031 899.984375 1099.019531 899.984375 1108.167969 890.839844 C 1117.601562 881.398438 1117.601562 866.039062 1108.167969 856.597656 C 1103.59375 852.027344 1097.511719 849.507812 1091.046875 849.507812 Z M 1091.046875 849.507812 " fill-opacity="1" fill-rule="nonzero"/><path fill="#102770" d="M 1132.707031 921.210938 C 1131.21875 921.210938 1129.730469 920.640625 1128.59375 919.503906 L 1108.167969 899.070312 C 1105.894531 896.796875 1105.894531 893.109375 1108.167969 890.839844 C 1110.441406 888.566406 1114.121094 888.566406 1116.394531 890.839844 L 1136.820312 911.273438 C 1139.09375 913.546875 1139.09375 917.230469 1136.820312 919.503906 C 1135.6875 920.640625 1134.195312 921.210938 1132.707031 921.210938 Z M 1132.707031 921.210938 " fill-opacity="1" fill-rule="nonzero"/><path fill="#102770" d="M 386.664062 885.457031 C 386.878906 889.257812 387.773438 892.339844 389.351562 894.710938 C 392.363281 899.148438 397.664062 901.367188 405.261719 901.367188 C 408.664062 901.367188 411.761719 900.882812 414.558594 899.910156 C 419.964844 898.023438 422.671875 894.652344 422.671875 889.789062 C 422.671875 886.140625 421.53125 883.542969 419.253906 881.992188 C 416.941406 880.472656 413.328125 879.152344 408.40625 878.027344 L 399.335938 875.976562 C 393.410156 874.636719 389.214844 873.164062 386.753906 871.554688 C 382.5 868.757812 380.375 864.578125 380.375 859.015625 C 380.375 853 382.457031 848.058594 386.617188 844.199219 C 390.78125 840.339844 396.675781 838.410156 404.300781 838.410156 C 411.320312 838.410156 417.285156 840.105469 422.191406 843.492188 C 427.097656 846.882812 429.550781 852.300781 429.550781 859.746094 L 421.03125 859.746094 C 420.574219 856.160156 419.601562 853.410156 418.113281 851.496094 C 415.347656 848 410.652344 846.25 404.027344 846.25 C 398.679688 846.25 394.835938 847.375 392.5 849.625 C 390.160156 851.875 388.988281 854.488281 388.988281 857.464844 C 388.988281 860.75 390.355469 863.148438 393.089844 864.667969 C 394.882812 865.640625 398.941406 866.859375 405.261719 868.316406 L 414.648438 870.460938 C 419.175781 871.492188 422.671875 872.90625 425.132812 874.699219 C 429.386719 877.828125 431.511719 882.371094 431.511719 888.328125 C 431.511719 895.746094 428.816406 901.050781 423.421875 904.242188 C 418.027344 907.429688 411.761719 909.027344 404.621094 909.027344 C 396.296875 909.027344 389.777344 906.898438 385.070312 902.644531 C 380.359375 898.421875 378.050781 892.691406 378.140625 885.457031 Z M 386.664062 885.457031 " fill-opacity="1" fill-rule="nonzero"/><path fill="#102770" d="M 472.304688 859.585938 C 475.554688 861.210938 478.03125 863.316406 479.734375 865.898438 C 481.375 868.363281 482.46875 871.234375 483.015625 874.515625 C 483.5 876.765625 483.742188 880.351562 483.742188 885.277344 L 447.964844 885.277344 C 448.117188 890.230469 449.289062 894.203125 451.476562 897.195312 C 453.664062 900.191406 457.050781 901.6875 461.640625 901.6875 C 465.921875 901.6875 469.339844 900.273438 471.894531 897.449219 C 473.351562 895.804688 474.386719 893.90625 474.992188 891.75 L 483.058594 891.75 C 482.847656 893.542969 482.140625 895.539062 480.941406 897.742188 C 479.742188 899.949219 478.394531 901.75 476.90625 903.144531 C 474.414062 905.578125 471.332031 907.21875 467.65625 908.070312 C 465.679688 908.554688 463.445312 908.800781 460.953125 908.800781 C 454.878906 908.800781 449.726562 906.589844 445.503906 902.167969 C 441.28125 897.742188 439.167969 891.550781 439.167969 883.589844 C 439.167969 875.746094 441.296875 869.378906 445.550781 864.488281 C 449.804688 859.59375 455.363281 857.148438 462.230469 857.148438 C 465.695312 857.148438 469.050781 857.960938 472.304688 859.585938 Z M 475.3125 878.757812 C 474.976562 875.199219 474.203125 872.359375 472.988281 870.230469 C 470.738281 866.28125 466.988281 864.304688 461.730469 864.304688 C 457.960938 864.304688 454.800781 865.664062 452.25 868.386719 C 449.699219 871.105469 448.34375 874.5625 448.195312 878.757812 Z M 475.3125 878.757812 " fill-opacity="1" fill-rule="nonzero"/><path fill="#102770" d="M 519.976562 877.480469 C 521.863281 877.238281 523.121094 876.445312 523.761719 875.109375 C 524.125 874.378906 524.308594 873.332031 524.308594 871.964844 C 524.308594 869.167969 523.3125 867.140625 521.320312 865.878906 C 519.332031 864.617188 516.484375 863.984375 512.777344 863.984375 C 508.492188 863.984375 505.453125 865.140625 503.660156 867.449219 C 502.65625 868.726562 502.003906 870.625 501.699219 873.148438 L 494.042969 873.148438 C 494.195312 867.132812 496.148438 862.945312 499.902344 860.589844 C 503.652344 858.234375 508.007812 857.054688 512.957031 857.054688 C 518.703125 857.054688 523.367188 858.148438 526.949219 860.339844 C 530.503906 862.527344 532.285156 865.929688 532.285156 870.550781 L 532.285156 898.679688 C 532.285156 899.53125 532.457031 900.214844 532.808594 900.730469 C 533.15625 901.246094 533.894531 901.503906 535.019531 901.503906 C 535.382812 901.503906 535.792969 901.480469 536.25 901.4375 C 536.703125 901.390625 537.191406 901.324219 537.707031 901.230469 L 537.707031 907.292969 C 536.429688 907.660156 535.457031 907.886719 534.789062 907.980469 C 534.121094 908.070312 533.210938 908.117188 532.054688 908.117188 C 529.230469 908.117188 527.179688 907.113281 525.902344 905.105469 C 525.234375 904.042969 524.761719 902.539062 524.488281 900.59375 C 522.820312 902.78125 520.417969 904.679688 517.289062 906.292969 C 514.160156 907.902344 510.710938 908.707031 506.941406 908.707031 C 502.414062 908.707031 498.714844 907.332031 495.84375 904.582031 C 492.972656 901.832031 491.539062 898.390625 491.539062 894.257812 C 491.539062 889.726562 492.949219 886.21875 495.777344 883.726562 C 498.601562 881.234375 502.308594 879.699219 506.898438 879.121094 Z M 502.703125 899.679688 C 504.4375 901.050781 506.488281 901.734375 508.855469 901.734375 C 511.742188 901.734375 514.539062 901.0625 517.242188 899.726562 C 521.800781 897.507812 524.078125 893.875 524.078125 888.832031 L 524.078125 882.222656 C 523.078125 882.859375 521.785156 883.390625 520.207031 883.816406 C 518.625 884.242188 517.074219 884.546875 515.554688 884.726562 L 510.589844 885.367188 C 507.609375 885.761719 505.378906 886.386719 503.890625 887.234375 C 501.367188 888.664062 500.105469 890.945312 500.105469 894.074219 C 500.105469 896.445312 500.972656 898.3125 502.703125 899.679688 Z M 502.703125 899.679688 " fill-opacity="1" fill-rule="nonzero"/><path fill="#102770" d="M 545.957031 858.242188 L 553.75 858.242188 L 553.75 866.675781 C 554.386719 865.035156 555.953125 863.035156 558.445312 860.679688 C 560.9375 858.324219 563.808594 857.148438 567.058594 857.148438 C 567.210938 857.148438 567.46875 857.164062 567.832031 857.191406 C 568.199219 857.222656 568.820312 857.285156 569.703125 857.375 L 569.703125 866.035156 C 569.214844 865.945312 568.769531 865.886719 568.359375 865.855469 C 567.949219 865.824219 567.5 865.808594 567.011719 865.808594 C 562.878906 865.808594 559.707031 867.140625 557.488281 869.796875 C 555.269531 872.457031 554.160156 875.519531 554.160156 878.984375 L 554.160156 907.066406 L 545.957031 907.066406 Z M 545.957031 858.242188 " fill-opacity="1" fill-rule="nonzero"/><path fill="#102770" d="M 609.058594 860.839844 C 612.507812 863.515625 614.582031 868.117188 615.277344 874.652344 L 607.304688 874.652344 C 606.816406 871.644531 605.707031 869.144531 603.976562 867.152344 C 602.246094 865.164062 599.464844 864.167969 595.636719 864.167969 C 590.410156 864.167969 586.671875 866.722656 584.421875 871.828125 C 582.964844 875.140625 582.234375 879.226562 582.234375 884.089844 C 582.234375 888.984375 583.269531 893.101562 585.335938 896.445312 C 587.402344 899.789062 590.652344 901.460938 595.089844 901.460938 C 598.492188 901.460938 601.1875 900.417969 603.179688 898.335938 C 605.167969 896.253906 606.542969 893.40625 607.304688 889.789062 L 615.277344 889.789062 C 614.367188 896.261719 612.089844 900.996094 608.441406 903.988281 C 604.796875 906.984375 600.132812 908.480469 594.449219 908.480469 C 588.070312 908.480469 582.980469 906.148438 579.183594 901.480469 C 575.382812 896.816406 573.484375 890.988281 573.484375 884 C 573.484375 875.429688 575.566406 868.757812 579.730469 863.984375 C 583.890625 859.214844 589.195312 856.828125 595.636719 856.828125 C 601.136719 856.828125 605.609375 858.164062 609.058594 860.839844 Z M 609.058594 860.839844 " fill-opacity="1" fill-rule="nonzero"/><path fill="#102770" d="M 623.484375 839.871094 L 631.6875 839.871094 L 631.6875 864.851562 C 633.632812 862.390625 635.378906 860.65625 636.929688 859.65625 C 639.570312 857.921875 642.867188 857.054688 646.820312 857.054688 C 653.898438 857.054688 658.699219 859.53125 661.222656 864.488281 C 662.589844 867.191406 663.273438 870.945312 663.273438 875.746094 L 663.273438 907.066406 L 654.839844 907.066406 L 654.839844 876.292969 C 654.839844 872.707031 654.382812 870.078125 653.472656 868.40625 C 651.984375 865.734375 649.1875 864.394531 645.085938 864.394531 C 641.683594 864.394531 638.597656 865.566406 635.835938 867.90625 C 633.070312 870.246094 631.6875 874.667969 631.6875 881.171875 L 631.6875 907.066406 L 623.484375 907.066406 Z M 623.484375 839.871094 " fill-opacity="1" fill-rule="nonzero"/><path fill="#102770" d="M 99.355469 1079.269531 C 97.5625 1079.269531 95.789062 1078.4375 94.652344 1076.882812 L 74.167969 1048.828125 C 73.257812 1047.578125 72.878906 1046.023438 73.117188 1044.496094 C 73.355469 1042.96875 74.191406 1041.601562 75.441406 1040.691406 L 102.089844 1021.253906 C 104.691406 1019.359375 108.328125 1019.929688 110.214844 1022.523438 L 132.558594 1053.136719 C 133.574219 1054.527344 133.921875 1056.296875 133.507812 1057.96875 C 133.089844 1059.640625 131.960938 1061.042969 130.410156 1061.796875 C 120.972656 1066.410156 111.648438 1071.929688 102.691406 1078.214844 C 101.675781 1078.925781 100.511719 1079.269531 99.355469 1079.269531 Z M 87 1046.664062 L 100.726562 1065.464844 C 106.742188 1061.464844 112.902344 1057.792969 119.128906 1054.484375 L 104.242188 1034.085938 Z M 87 1046.664062 " fill-opacity="1" fill-rule="nonzero"/><path fill="#102770" d="M 66.484375 1058.152344 C 65.703125 1058.152344 64.90625 1058.089844 64.109375 1057.964844 C 60.242188 1057.339844 56.832031 1055.253906 54.515625 1052.09375 L 43.574219 1037.199219 C 38.78125 1030.683594 40.222656 1021.441406 46.792969 1016.609375 L 87.765625 986.570312 C 94.398438 981.878906 103.601562 983.347656 108.339844 989.804688 L 119.296875 1004.835938 C 121.621094 1007.992188 122.558594 1011.894531 121.925781 1015.8125 C 121.300781 1019.671875 119.222656 1023.078125 116.066406 1025.398438 L 75.066406 1055.339844 C 72.566406 1057.183594 69.578125 1058.152344 66.484375 1058.152344 Z M 96.429688 995.429688 C 95.78125 995.429688 95.125 995.621094 94.554688 996.019531 L 53.679688 1025.992188 C 52.285156 1027.015625 51.957031 1028.953125 52.953125 1030.304688 L 63.890625 1045.207031 C 64.390625 1045.886719 65.128906 1046.339844 65.957031 1046.472656 C 66.441406 1046.542969 67.34375 1046.578125 68.203125 1045.941406 L 109.160156 1016.035156 C 109.160156 1016.03125 109.164062 1016.027344 109.171875 1016.023438 C 109.851562 1015.523438 110.300781 1014.789062 110.4375 1013.953125 C 110.511719 1013.488281 110.546875 1012.574219 109.910156 1011.714844 L 98.953125 996.675781 C 98.351562 995.863281 97.402344 995.429688 96.429688 995.429688 Z M 96.429688 995.429688 " fill-opacity="1" fill-rule="nonzero"/><path fill="#102770" d="M 349.421875 1079.382812 C 348.261719 1079.382812 347.089844 1079.039062 346.074219 1078.320312 C 337.113281 1072 327.75 1066.441406 318.25 1061.796875 C 316.695312 1061.042969 315.5625 1059.632812 315.152344 1057.960938 C 314.738281 1056.285156 315.089844 1054.515625 316.105469 1053.125 L 338.566406 1022.511719 C 340.464844 1019.933594 344.097656 1019.367188 346.6875 1021.253906 L 373.335938 1040.691406 C 375.933594 1042.585938 376.5 1046.222656 374.613281 1048.820312 L 354.128906 1076.988281 C 352.996094 1078.550781 351.222656 1079.382812 349.421875 1079.382812 Z M 329.539062 1054.492188 C 335.816406 1057.828125 342.011719 1061.53125 348.050781 1065.558594 L 361.785156 1046.671875 L 344.523438 1034.078125 Z M 329.539062 1054.492188 " fill-opacity="1" fill-rule="nonzero"/><path fill="#102770" d="M 382.273438 1058.171875 C 379.292969 1058.171875 376.273438 1057.257812 373.625 1055.367188 L 332.625 1025.425781 C 329.429688 1023.074219 327.363281 1019.640625 326.78125 1015.738281 C 326.210938 1011.855469 327.167969 1007.976562 329.492188 1004.8125 L 340.285156 989.84375 C 345.0625 983.351562 354.246094 981.878906 360.808594 986.511719 L 401.96875 1016.597656 C 405.15625 1018.941406 407.21875 1022.375 407.792969 1026.28125 C 408.371094 1030.164062 407.40625 1034.042969 405.082031 1037.203125 L 394.144531 1052.09375 C 391.230469 1056.066406 386.796875 1058.171875 382.273438 1058.171875 Z M 352.261719 995.417969 C 351.285156 995.417969 350.3125 995.855469 349.691406 996.691406 L 338.902344 1011.667969 C 338.375 1012.382812 338.167969 1013.203125 338.292969 1014.027344 C 338.363281 1014.496094 338.613281 1015.378906 339.492188 1016.027344 L 380.460938 1045.945312 C 381.832031 1046.929688 383.71875 1046.640625 384.769531 1045.207031 L 395.707031 1030.308594 C 395.707031 1030.308594 395.707031 1030.308594 395.707031 1030.304688 C 396.199219 1029.632812 396.40625 1028.808594 396.285156 1027.984375 C 396.210938 1027.515625 395.96875 1026.628906 395.085938 1025.984375 L 354.023438 995.960938 C 353.5 995.59375 352.878906 995.417969 352.261719 995.417969 Z M 352.261719 995.417969 " fill-opacity="1" fill-rule="nonzero"/><path fill="#102770" d="M 197.566406 1041.550781 C 196.152344 1041.550781 194.777344 1041.035156 193.703125 1040.085938 C 192.457031 1038.980469 191.746094 1037.398438 191.746094 1035.734375 L 191.746094 989.871094 C 191.746094 986.65625 194.351562 984.050781 197.566406 984.050781 L 251.210938 984.050781 C 254.425781 984.050781 257.03125 986.65625 257.03125 989.871094 L 257.03125 1035.734375 C 257.03125 1037.398438 256.3125 1038.984375 255.070312 1040.089844 C 253.820312 1041.195312 252.152344 1041.699219 250.511719 1041.511719 C 232.550781 1039.328125 215.300781 1039.464844 198.257812 1041.511719 C 198.027344 1041.539062 197.792969 1041.550781 197.566406 1041.550781 Z M 203.386719 995.691406 L 203.386719 1029.265625 C 217.785156 1027.933594 231.699219 1027.984375 245.394531 1029.257812 L 245.394531 995.691406 Z M 203.386719 995.691406 " fill-opacity="1" fill-rule="nonzero"/><path fill="#102770" d="M 224.328125 1476.300781 C 100.875 1476.300781 0.4375 1375.835938 0.4375 1252.347656 C 0.4375 1179.261719 36.167969 1110.601562 96.015625 1068.679688 C 105.464844 1062.054688 115.316406 1056.214844 125.308594 1051.339844 C 133.535156 1047.289062 141.097656 1044.074219 148.398438 1041.523438 C 164.15625 1035.828125 180.484375 1031.929688 196.875 1029.957031 C 215.765625 1027.683594 233.988281 1027.773438 251.910156 1029.957031 C 276.808594 1033.007812 300.851562 1040.207031 323.378906 1051.351562 C 333.414062 1056.253906 343.3125 1062.128906 352.777344 1068.804688 C 358.1875 1072.558594 363.664062 1076.777344 369.472656 1081.691406 C 414.042969 1119.585938 441.667969 1172.382812 447.265625 1230.375 C 447.976562 1237.597656 448.339844 1244.996094 448.339844 1252.347656 C 448.339844 1375.835938 347.847656 1476.300781 224.328125 1476.300781 Z M 224.796875 1039.921875 C 215.835938 1039.921875 207.0625 1040.457031 198.257812 1041.511719 C 182.753906 1043.378906 167.285156 1047.074219 152.296875 1052.492188 C 145.382812 1054.910156 138.246094 1057.945312 130.425781 1061.792969 C 120.972656 1066.410156 111.648438 1071.929688 102.691406 1078.214844 C 45.949219 1117.960938 12.074219 1183.058594 12.074219 1252.347656 C 12.074219 1369.417969 107.289062 1464.664062 224.328125 1464.664062 C 341.429688 1464.664062 436.703125 1369.417969 436.703125 1252.347656 C 436.703125 1245.277344 436.367188 1238.457031 435.6875 1231.503906 C 430.378906 1176.53125 404.191406 1126.484375 361.949219 1090.566406 C 356.4375 1085.914062 351.253906 1081.910156 346.113281 1078.34375 C 337.113281 1072 327.75 1066.441406 318.25 1061.796875 C 296.871094 1051.21875 274.085938 1044.398438 250.5 1041.511719 C 241.828125 1040.457031 233.183594 1039.921875 224.796875 1039.921875 Z M 224.796875 1039.921875 " fill-opacity="1" fill-rule="nonzero"/><path fill="#102770" d="M 224.351562 1425.410156 C 128.945312 1425.410156 51.328125 1347.769531 51.328125 1252.339844 C 51.328125 1156.910156 128.945312 1079.269531 224.351562 1079.269531 C 319.761719 1079.269531 397.378906 1156.910156 397.378906 1252.339844 C 397.378906 1347.769531 319.761719 1425.410156 224.351562 1425.410156 Z M 224.351562 1090.910156 C 135.363281 1090.910156 62.964844 1163.328125 62.964844 1252.339844 C 62.964844 1341.351562 135.363281 1413.769531 224.351562 1413.769531 C 313.339844 1413.769531 385.742188 1341.351562 385.742188 1252.339844 C 385.742188 1163.328125 313.339844 1090.910156 224.351562 1090.910156 Z M 224.351562 1090.910156 " fill-opacity="1" fill-rule="nonzero"/><path fill="#102770" d="M 224.351562 1116.535156 C 221.136719 1116.535156 218.535156 1113.929688 218.535156 1110.714844 L 218.535156 1085.566406 C 218.535156 1082.351562 221.136719 1079.746094 224.351562 1079.746094 C 227.566406 1079.746094 230.171875 1082.351562 230.171875 1085.566406 L 230.171875 1110.714844 C 230.171875 1113.929688 227.566406 1116.535156 224.351562 1116.535156 Z M 224.351562 1116.535156 " fill-opacity="1" fill-rule="nonzero"/><path fill="#102770" d="M 224.351562 1425.410156 C 221.136719 1425.410156 218.535156 1422.804688 218.535156 1419.589844 L 218.535156 1394.441406 C 218.535156 1391.226562 221.136719 1388.621094 224.351562 1388.621094 C 227.566406 1388.621094 230.171875 1391.226562 230.171875 1394.441406 L 230.171875 1419.589844 C 230.171875 1422.804688 227.566406 1425.410156 224.351562 1425.410156 Z M 224.351562 1425.410156 " fill-opacity="1" fill-rule="nonzero"/><path fill="#102770" d="M 82.519531 1258.40625 L 57.378906 1258.40625 C 54.160156 1258.40625 51.558594 1255.800781 51.558594 1252.585938 C 51.558594 1249.371094 54.160156 1246.765625 57.378906 1246.765625 L 82.519531 1246.765625 C 85.738281 1246.765625 88.339844 1249.371094 88.339844 1252.585938 C 88.339844 1255.800781 85.738281 1258.40625 82.519531 1258.40625 Z M 82.519531 1258.40625 " fill-opacity="1" fill-rule="nonzero"/><path fill="#102770" d="M 391.320312 1258.40625 L 366.175781 1258.40625 C 362.960938 1258.40625 360.359375 1255.800781 360.359375 1252.585938 C 360.359375 1249.371094 362.960938 1246.765625 366.175781 1246.765625 L 391.320312 1246.765625 C 394.535156 1246.765625 397.136719 1249.371094 397.136719 1252.585938 C 397.136719 1255.800781 394.535156 1258.40625 391.320312 1258.40625 Z M 391.320312 1258.40625 " fill-opacity="1" fill-rule="nonzero"/><path fill="#102770" d="M 124.0625 1158.082031 C 122.574219 1158.082031 121.085938 1157.511719 119.949219 1156.375 L 102.167969 1138.59375 C 99.898438 1136.320312 99.898438 1132.636719 102.167969 1130.363281 C 104.441406 1128.089844 108.125 1128.089844 110.398438 1130.363281 L 128.175781 1148.148438 C 130.449219 1150.421875 130.449219 1154.101562 128.175781 1156.375 C 127.039062 1157.511719 125.550781 1158.082031 124.0625 1158.082031 Z M 124.0625 1158.082031 " fill-opacity="1" fill-rule="nonzero"/><path fill="#102770" d="M 342.414062 1376.484375 C 340.925781 1376.484375 339.4375 1375.917969 338.300781 1374.78125 L 320.519531 1356.996094 C 318.25 1354.722656 318.25 1351.039062 320.519531 1348.765625 C 322.792969 1346.492188 326.476562 1346.492188 328.75 1348.765625 L 346.527344 1366.550781 C 348.800781 1368.824219 348.800781 1372.507812 346.527344 1374.78125 C 345.390625 1375.917969 343.902344 1376.484375 342.414062 1376.484375 Z M 342.414062 1376.484375 " fill-opacity="1" fill-rule="nonzero"/><path fill="#102770" d="M 106.285156 1376.496094 C 104.792969 1376.496094 103.304688 1375.929688 102.167969 1374.792969 C 99.898438 1372.519531 99.898438 1368.832031 102.167969 1366.5625 L 119.953125 1348.777344 C 122.226562 1346.503906 125.910156 1346.503906 128.183594 1348.777344 C 130.457031 1351.050781 130.457031 1354.738281 128.183594 1357.007812 L 110.398438 1374.792969 C 109.261719 1375.929688 107.773438 1376.496094 106.285156 1376.496094 Z M 106.285156 1376.496094 " fill-opacity="1" fill-rule="nonzero"/><path fill="#102770" d="M 324.636719 1158.085938 C 323.144531 1158.085938 321.65625 1157.519531 320.519531 1156.382812 C 318.25 1154.109375 318.25 1150.425781 320.519531 1148.152344 L 338.300781 1130.367188 C 340.574219 1128.09375 344.253906 1128.09375 346.527344 1130.367188 C 348.800781 1132.640625 348.800781 1136.324219 346.527344 1138.597656 L 328.75 1156.382812 C 327.613281 1157.519531 326.125 1158.085938 324.636719 1158.085938 Z M 324.636719 1158.085938 " fill-opacity="1" fill-rule="nonzero"/><path fill="#102770" d="M 265.523438 995.691406 L 183.132812 995.691406 C 171.96875 995.691406 162.886719 986.554688 162.886719 975.324219 L 162.886719 945.289062 C 162.886719 934.125 171.96875 925.039062 183.132812 925.039062 L 265.523438 925.039062 C 276.753906 925.039062 285.890625 934.125 285.890625 945.289062 L 285.890625 975.324219 C 285.890625 986.554688 276.753906 995.691406 265.523438 995.691406 Z M 183.132812 936.679688 C 178.304688 936.679688 174.527344 940.460938 174.527344 945.289062 L 174.527344 975.324219 C 174.527344 980.136719 178.390625 984.050781 183.132812 984.050781 L 265.523438 984.050781 C 270.335938 984.050781 274.253906 980.136719 274.253906 975.324219 L 274.253906 945.289062 C 274.253906 940.542969 270.335938 936.679688 265.523438 936.679688 Z M 183.132812 936.679688 " fill-opacity="1" fill-rule="nonzero"/><path fill="#102770" d="M 224.328125 1331.152344 C 221.113281 1331.152344 218.511719 1328.546875 218.511719 1325.332031 L 218.511719 1277.957031 C 218.511719 1274.742188 221.113281 1272.136719 224.328125 1272.136719 C 227.546875 1272.136719 230.148438 1274.742188 230.148438 1277.957031 L 230.148438 1325.332031 C 230.148438 1328.546875 227.546875 1331.152344 224.328125 1331.152344 Z M 224.328125 1331.152344 " fill-opacity="1" fill-rule="nonzero"/><path fill="#102770" d="M 224.328125 1232.5625 C 221.113281 1232.5625 218.511719 1229.957031 218.511719 1226.742188 L 218.511719 1134.4375 C 218.511719 1131.222656 221.113281 1128.617188 224.328125 1128.617188 C 227.546875 1128.617188 230.148438 1131.222656 230.148438 1134.4375 L 230.148438 1226.742188 C 230.148438 1229.957031 227.546875 1232.5625 224.328125 1232.5625 Z M 224.328125 1232.5625 " fill-opacity="1" fill-rule="nonzero"/><path fill="#102770" d="M 224.351562 1283.757812 C 207.03125 1283.757812 192.941406 1269.664062 192.941406 1252.339844 C 192.941406 1235.015625 207.03125 1220.917969 224.351562 1220.917969 C 241.675781 1220.917969 255.769531 1235.015625 255.769531 1252.339844 C 255.769531 1269.664062 241.675781 1283.757812 224.351562 1283.757812 Z M 224.351562 1232.558594 C 213.449219 1232.558594 204.578125 1241.433594 204.578125 1252.339844 C 204.578125 1263.246094 213.449219 1272.117188 224.351562 1272.117188 C 235.253906 1272.117188 244.132812 1263.246094 244.132812 1252.339844 C 244.132812 1241.433594 235.253906 1232.558594 224.351562 1232.558594 Z M 224.351562 1232.558594 " fill-opacity="1" fill-rule="nonzero"/><path fill="#102770" d="M 1493.65625 1131.554688 L 1000.28125 1131.554688 C 997.066406 1131.554688 994.464844 1128.949219 994.464844 1125.734375 L 994.464844 1084.828125 C 994.464844 1048.066406 1024.363281 1018.15625 1061.113281 1018.15625 L 1432.820312 1018.15625 C 1469.570312 1018.15625 1499.476562 1048.066406 1499.476562 1084.828125 L 1499.476562 1125.734375 C 1499.476562 1128.949219 1496.875 1131.554688 1493.65625 1131.554688 Z M 1006.101562 1119.914062 L 1487.839844 1119.914062 L 1487.839844 1084.828125 C 1487.839844 1054.484375 1463.15625 1029.796875 1432.820312 1029.796875 L 1061.113281 1029.796875 C 1030.777344 1029.796875 1006.101562 1054.484375 1006.101562 1084.828125 Z M 1006.101562 1119.914062 " fill-opacity="1" fill-rule="nonzero"/><g clip-path="url(#b60a7c5988)"><path fill="#102770" d="M 1432.824219 1483.289062 L 1061.140625 1483.289062 C 1053.316406 1483.289062 1045.796875 1481.996094 1038.789062 1479.441406 C 1012.304688 1470.179688 994.464844 1445.003906 994.464844 1416.824219 L 994.464844 1084.851562 C 994.464844 1048.078125 1024.375 1018.160156 1061.140625 1018.160156 L 1432.824219 1018.160156 C 1469.59375 1018.160156 1499.503906 1048.078125 1499.503906 1084.851562 L 1499.503906 1416.824219 C 1499.503906 1453.472656 1469.59375 1483.289062 1432.824219 1483.289062 Z M 1061.140625 1029.800781 C 1030.792969 1029.800781 1006.101562 1054.492188 1006.101562 1084.851562 L 1006.101562 1416.824219 C 1006.101562 1440.066406 1020.804688 1460.820312 1042.699219 1468.480469 C 1048.578125 1470.621094 1054.585938 1471.648438 1061.140625 1471.648438 L 1432.824219 1471.648438 C 1463.171875 1471.648438 1487.867188 1447.054688 1487.867188 1416.824219 L 1487.867188 1084.851562 C 1487.867188 1054.492188 1463.171875 1029.800781 1432.824219 1029.800781 Z M 1061.140625 1029.800781 " fill-opacity="1" fill-rule="nonzero"/></g><path fill="#102770" d="M 1493.65625 1131.554688 L 1000.28125 1131.554688 C 997.066406 1131.554688 994.464844 1128.949219 994.464844 1125.734375 L 994.464844 1084.828125 C 994.464844 1048.066406 1024.363281 1018.15625 1061.113281 1018.15625 L 1432.820312 1018.15625 C 1469.570312 1018.15625 1499.476562 1048.066406 1499.476562 1084.828125 L 1499.476562 1125.734375 C 1499.476562 1128.949219 1496.875 1131.554688 1493.65625 1131.554688 Z M 1006.101562 1119.914062 L 1487.839844 1119.914062 L 1487.839844 1084.828125 C 1487.839844 1054.484375 1463.15625 1029.796875 1432.820312 1029.796875 L 1061.113281 1029.796875 C 1030.777344 1029.796875 1006.101562 1054.484375 1006.101562 1084.828125 Z M 1006.101562 1119.914062 " fill-opacity="1" fill-rule="nonzero"/><path fill="#102770" d="M 1438.445312 1082.832031 L 1265.601562 1082.832031 C 1262.386719 1082.832031 1259.78125 1080.226562 1259.78125 1077.011719 C 1259.78125 1073.796875 1262.386719 1071.191406 1265.601562 1071.191406 L 1438.445312 1071.191406 C 1441.660156 1071.191406 1444.261719 1073.796875 1444.261719 1077.011719 C 1444.261719 1080.226562 1441.660156 1082.832031 1438.445312 1082.832031 Z M 1438.445312 1082.832031 " fill-opacity="1" fill-rule="nonzero"/><path fill="#102770" d="M 1312.195312 1442.078125 L 1274.640625 1442.078125 C 1265.664062 1442.078125 1258.363281 1434.773438 1258.363281 1425.792969 L 1258.363281 1340.707031 C 1258.363281 1331.777344 1265.664062 1324.515625 1274.640625 1324.515625 L 1312.195312 1324.515625 C 1321.171875 1324.515625 1328.472656 1331.777344 1328.472656 1340.707031 L 1328.472656 1425.792969 C 1328.472656 1434.773438 1321.171875 1442.078125 1312.195312 1442.078125 Z M 1274.640625 1336.15625 C 1272.085938 1336.15625 1270 1338.195312 1270 1340.707031 L 1270 1425.792969 C 1270 1428.355469 1272.085938 1430.4375 1274.640625 1430.4375 L 1312.195312 1430.4375 C 1314.75 1430.4375 1316.835938 1428.355469 1316.835938 1425.792969 L 1316.835938 1340.707031 C 1316.835938 1338.195312 1314.75 1336.15625 1312.195312 1336.15625 Z M 1274.640625 1336.15625 " fill-opacity="1" fill-rule="nonzero"/><path fill="#102770" d="M 1219.292969 1442.078125 L 1181.648438 1442.078125 C 1172.726562 1442.078125 1165.464844 1434.773438 1165.464844 1425.792969 L 1165.464844 1286.90625 C 1165.464844 1277.980469 1172.726562 1270.71875 1181.648438 1270.71875 L 1219.292969 1270.71875 C 1228.21875 1270.71875 1235.480469 1277.980469 1235.480469 1286.90625 L 1235.480469 1425.792969 C 1235.480469 1434.773438 1228.21875 1442.078125 1219.292969 1442.078125 Z M 1181.648438 1282.359375 C 1179.140625 1282.359375 1177.101562 1284.398438 1177.101562 1286.90625 L 1177.101562 1425.792969 C 1177.101562 1428.3125 1179.183594 1430.4375 1181.648438 1430.4375 L 1219.292969 1430.4375 C 1221.84375 1430.4375 1223.84375 1428.394531 1223.84375 1425.792969 L 1223.84375 1286.90625 C 1223.84375 1284.355469 1221.84375 1282.359375 1219.292969 1282.359375 Z M 1181.648438 1282.359375 " fill-opacity="1" fill-rule="nonzero"/><path fill="#102770" d="M 1405.1875 1442.078125 L 1367.539062 1442.078125 C 1358.617188 1442.078125 1351.355469 1434.773438 1351.355469 1425.792969 L 1351.355469 1224.210938 C 1351.355469 1215.230469 1358.617188 1207.921875 1367.539062 1207.921875 L 1405.1875 1207.921875 C 1414.109375 1207.921875 1421.371094 1215.230469 1421.371094 1224.210938 L 1421.371094 1425.792969 C 1421.371094 1434.773438 1414.109375 1442.078125 1405.1875 1442.078125 Z M 1367.539062 1219.5625 C 1365.070312 1219.5625 1362.992188 1221.691406 1362.992188 1224.210938 L 1362.992188 1425.792969 C 1362.992188 1428.3125 1365.070312 1430.4375 1367.539062 1430.4375 L 1405.1875 1430.4375 C 1407.691406 1430.4375 1409.734375 1428.355469 1409.734375 1425.792969 L 1409.734375 1224.210938 C 1409.734375 1221.605469 1407.738281 1219.5625 1405.1875 1219.5625 Z M 1367.539062 1219.5625 " fill-opacity="1" fill-rule="nonzero"/><path fill="#102770" d="M 1126.394531 1442.078125 L 1088.75 1442.078125 C 1079.824219 1442.078125 1072.5625 1434.773438 1072.5625 1425.792969 L 1072.5625 1253.558594 C 1072.5625 1244.574219 1079.824219 1237.269531 1088.75 1237.269531 L 1126.394531 1237.269531 C 1135.316406 1237.269531 1142.578125 1244.574219 1142.578125 1253.558594 L 1142.578125 1425.792969 C 1142.578125 1434.773438 1135.316406 1442.078125 1126.394531 1442.078125 Z M 1088.75 1248.90625 C 1086.199219 1248.90625 1084.199219 1250.949219 1084.199219 1253.558594 L 1084.199219 1425.792969 C 1084.199219 1428.394531 1086.199219 1430.4375 1088.75 1430.4375 L 1126.394531 1430.4375 C 1128.863281 1430.4375 1130.941406 1428.3125 1130.941406 1425.792969 L 1130.941406 1253.558594 C 1130.941406 1251.035156 1128.863281 1248.90625 1126.394531 1248.90625 Z M 1088.75 1248.90625 " fill-opacity="1" fill-rule="nonzero"/><path fill="#102770" d="M 1292.839844 1249.210938 C 1287.246094 1249.210938 1281.628906 1247.226562 1277.175781 1243.234375 L 1205.582031 1179.058594 C 1201.910156 1175.78125 1196.707031 1175.078125 1192.324219 1177.308594 L 1109.992188 1218.9375 C 1107.117188 1220.375 1103.617188 1219.230469 1102.171875 1216.371094 C 1100.722656 1213.5 1101.871094 1210 1104.742188 1208.546875 L 1187.074219 1166.917969 C 1195.761719 1162.527344 1206.082031 1163.882812 1213.34375 1170.386719 L 1284.9375 1234.566406 C 1289.585938 1238.726562 1296.710938 1238.570312 1301.164062 1234.179688 L 1382.28125 1154.308594 C 1384.566406 1152.046875 1388.25 1152.082031 1390.511719 1154.371094 C 1392.761719 1156.660156 1392.730469 1160.347656 1390.441406 1162.601562 L 1309.324219 1242.476562 C 1304.777344 1246.957031 1298.8125 1249.210938 1292.839844 1249.210938 Z M 1292.839844 1249.210938 " fill-opacity="1" fill-rule="nonzero"/><path fill="#102770" d="M 1386.363281 1182.320312 C 1383.148438 1182.320312 1380.542969 1179.714844 1380.542969 1176.503906 L 1380.542969 1164.273438 L 1368.320312 1164.273438 C 1365.105469 1164.273438 1362.503906 1161.667969 1362.503906 1158.453125 C 1362.503906 1155.238281 1365.105469 1152.632812 1368.320312 1152.632812 L 1386.363281 1152.632812 C 1389.578125 1152.632812 1392.179688 1155.238281 1392.179688 1158.453125 L 1392.179688 1176.503906 C 1392.179688 1179.714844 1389.578125 1182.320312 1386.363281 1182.320312 Z M 1386.363281 1182.320312 " fill-opacity="1" fill-rule="nonzero"/></svg>