<svg xmlns="http://www.w3.org/2000/svg" xmlns:xlink="http://www.w3.org/1999/xlink" width="2000" zoomAndPan="magnify" viewBox="0 0 1500 1499.999933" height="2000" preserveAspectRatio="xMidYMid meet" version="1.0"><defs><clipPath id="bed9dd096c"><path d="M 1 55.910156 L 1499 55.910156 L 1499 1444.160156 L 1 1444.160156 Z M 1 55.910156 " clip-rule="nonzero"/></clipPath><clipPath id="6524c5c101"><path d="M 1103 1415 L 1252 1415 L 1252 1444.160156 L 1103 1444.160156 Z M 1103 1415 " clip-rule="nonzero"/></clipPath><clipPath id="fa583aedb1"><path d="M 1 55.910156 L 1346 55.910156 L 1346 1395 L 1 1395 Z M 1 55.910156 " clip-rule="nonzero"/></clipPath><clipPath id="7646b38ee9"><path d="M 7 55.910156 L 1424 55.910156 L 1424 1395 L 7 1395 Z M 7 55.910156 " clip-rule="nonzero"/></clipPath><clipPath id="921b553883"><path d="M 1340 1371 L 1447 1371 L 1447 1444.160156 L 1340 1444.160156 Z M 1340 1371 " clip-rule="nonzero"/></clipPath><clipPath id="fa73527736"><path d="M 1103 1415 L 1252 1415 L 1252 1444.160156 L 1103 1444.160156 Z M 1103 1415 " clip-rule="nonzero"/></clipPath></defs><path fill="#f5f5f5" d="M 7.847656 400.667969 L 373.484375 400.667969 L 373.484375 194.984375 L 7.847656 194.984375 Z M 7.847656 400.667969 " fill-opacity="1" fill-rule="nonzero"/><path fill="#f5f5f5" d="M 642.398438 720.332031 L 1046.128906 720.332031 L 1046.128906 900.621094 L 642.398438 900.621094 Z M 642.398438 720.332031 " fill-opacity="1" fill-rule="nonzero"/><g clip-path="url(#bed9dd096c)"><path fill="#f5f5f5" d="M 1498.445312 936.269531 C 1498.445312 936.238281 1498.460938 936.207031 1498.460938 936.179688 C 1498.371094 933.949219 1497.828125 928.054688 1497.09375 920.6875 L 1497.089844 920.679688 C 1495.152344 901.28125 1491.867188 871.65625 1491.863281 871.652344 L 1476.148438 730.964844 L 1471.625 654.710938 L 1432.0625 656.316406 L 1477.980469 654.457031 C 1477.167969 641.160156 1476.210938 627.875 1475.203125 614.59375 C 1473.847656 598.917969 1472.539062 583.242188 1470.582031 567.605469 C 1468.742188 552.871094 1459.339844 540.964844 1446.777344 535.179688 C 1446.796875 535.070312 1446.804688 534.992188 1446.804688 534.992188 C 1416.886719 522.074219 1387.660156 513.644531 1358.691406 509.730469 L 1348.25 445.550781 C 1351.925781 442.734375 1354.464844 438.863281 1355.242188 434.292969 C 1355.957031 430.089844 1355.585938 426.035156 1354.402344 422.539062 C 1361.816406 402.75 1358.367188 380.425781 1345.441406 363.804688 L 1345.441406 55.910156 L 445.910156 55.910156 L 445.910156 493.027344 L 349.296875 602.5625 L 317.847656 613.625 L 302.765625 618.652344 L 296.433594 620.515625 C 295.976562 618.972656 295.492188 617.507812 294.992188 616.085938 C 296.878906 610.332031 298.9375 604.085938 295.753906 597.4375 C 305.730469 595.328125 338.84375 583.035156 315.695312 515.003906 C 315.695312 515.003906 315.695312 515.007812 315.691406 515.007812 C 326.707031 490.570312 304.367188 477.066406 292.796875 474.800781 C 228.027344 462.117188 203.875 517.480469 204.675781 548.550781 C 205.265625 571.601562 162.398438 564.699219 162.433594 601.6875 C 162.445312 616.320312 160.492188 624.140625 157.621094 628.703125 C 156.597656 629.816406 155.597656 630.984375 154.621094 632.191406 C 150.855469 635.378906 146.34375 635.902344 142.550781 638.761719 C 131.375 647.183594 128.535156 658.828125 131.859375 670.625 C 87.808594 759.957031 68.832031 886.445312 68.832031 886.445312 C 73.179688 888.554688 77.441406 890.410156 81.667969 892.152344 C 81.664062 892.152344 81.664062 892.152344 81.660156 892.148438 C 78.0625 916.066406 74.378906 974.628906 117.65625 1002.078125 L 1.507812 1002.078125 L 1.507812 1394.175781 L 363.289062 1394.175781 L 363.289062 1298.511719 L 363.847656 1311.785156 L 375.726562 1313.269531 L 374.8125 1381.671875 L 525.867188 1409.304688 C 525.867188 1409.304688 524.410156 1389.339844 495.21875 1377.433594 C 483.085938 1372.484375 463.945312 1367.417969 450.417969 1343.179688 C 447.234375 1337.472656 444.058594 1329.5625 441.21875 1321.453125 L 459.242188 1323.707031 L 459.019531 1206.628906 L 508.640625 1286.226562 L 521.78125 1276.449219 L 551.300781 1336.945312 L 676.101562 1247.46875 C 676.101562 1247.46875 660.730469 1234.648438 631.890625 1247.378906 C 619.902344 1252.671875 600.894531 1266.949219 579.683594 1252.140625 C 575.964844 1249.542969 572.457031 1245.609375 569.261719 1241.113281 L 581.894531 1231.714844 L 459.78125 979.847656 L 461.757812 1153.878906 L 459.746094 976.914062 C 459.734375 976.144531 459.269531 975.574219 458.578125 975.300781 L 458.386719 874.816406 C 458.386719 874.816406 466.90625 822.007812 396.335938 834.617188 C 373.320312 838.730469 335.066406 844.738281 293.074219 851.085938 L 296.191406 834.914062 C 296.328125 834.910156 296.484375 834.902344 296.601562 834.898438 C 297.59375 834.867188 298.375 834.035156 298.34375 833.039062 C 298.34375 832.988281 298.316406 832.949219 298.308594 832.898438 L 420.742188 819.070312 L 421.316406 816.488281 L 456.027344 832.976562 C 459.632812 834.6875 464.242188 832.519531 466.324219 828.132812 L 471.253906 817.757812 C 478.921875 817.265625 485.542969 816.371094 486.269531 815.800781 C 491.152344 813.109375 491.597656 808.246094 491.597656 808.246094 C 502.25 801.714844 498.125 795.65625 498.101562 794.882812 C 508.773438 787.519531 504.03125 779.367188 504.03125 779.367188 C 504.109375 779.328125 504.183594 779.269531 504.28125 779.230469 C 511.039062 775.105469 509.433594 764.742188 501.804688 762.589844 C 501.773438 762.582031 499.957031 762.421875 497.628906 762.210938 L 527.726562 698.832031 C 529.808594 694.445312 528.574219 689.503906 524.972656 687.792969 L 446.949219 650.738281 C 443.347656 649.027344 438.734375 651.195312 436.652344 655.582031 L 385.375 763.566406 L 307.722656 761.582031 C 307.742188 760.597656 306.980469 759.777344 306 759.734375 L 305.988281 759.734375 C 306.183594 753.894531 306.742188 734.113281 306.238281 710.222656 L 324.953125 701.765625 L 332.796875 698.207031 L 379.96875 674.519531 C 384.910156 672.039062 389.253906 668.515625 392.699219 664.195312 L 445.90625 601.433594 L 445.90625 637.175781 L 1014.527344 637.175781 C 1015.835938 638.863281 1017.769531 640.050781 1020.019531 640.328125 L 1020.535156 640.300781 C 1020.535156 640.34375 1020.527344 640.382812 1020.527344 640.425781 C 1017.238281 641.46875 1015.046875 644.726562 1015.484375 648.285156 C 1015.929688 651.933594 1019.023438 654.683594 1022.699219 654.714844 C 1023.71875 654.722656 1025.632812 654.550781 1027.847656 654.3125 C 1041.316406 658.003906 1051.148438 659.808594 1059.042969 660.011719 C 1074.335938 693.609375 1110.585938 773.023438 1110.585938 773.023438 C 1118.078125 789.867188 1139.605469 796.152344 1154.109375 784.777344 C 1154.742188 784.289062 1155.351562 783.765625 1155.949219 783.210938 C 1158.59375 780.773438 1160.683594 777.957031 1162.222656 774.925781 L 1209.476562 674.097656 C 1209.710938 674.542969 1210.136719 674.847656 1210.621094 674.976562 C 1212.726562 699.789062 1214.167969 721.390625 1214.167969 732.917969 C 1214.167969 763.722656 1209.496094 817.988281 1209.496094 840.535156 C 1209.496094 844.414062 1211.339844 847.882812 1214.234375 850.121094 L 1213.324219 874.890625 C 1213.421875 874.871094 1213.511719 874.832031 1213.613281 874.832031 C 1212.621094 874.832031 1211.8125 875.640625 1211.8125 876.632812 C 1211.8125 877.628906 1212.621094 878.4375 1213.613281 878.4375 C 1214.988281 878.4375 1216.277344 878.304688 1217.53125 878.121094 C 1216.277344 878.304688 1214.984375 878.4375 1213.613281 878.4375 C 1213.464844 878.4375 1213.335938 878.386719 1213.195312 878.351562 L 1205.195312 1096.035156 L 1196.304688 1304.722656 C 1195.480469 1305.21875 1194.886719 1306.066406 1194.84375 1307.09375 L 1193.457031 1338.402344 C 1193.410156 1339.460938 1193.953125 1340.363281 1194.757812 1340.925781 L 1194.734375 1341.503906 L 1196.347656 1341.503906 C 1195.152344 1356.414062 1192.972656 1366.492188 1189.644531 1374.878906 C 1189.648438 1374.875 1189.65625 1374.871094 1189.660156 1374.867188 C 1179.023438 1388.152344 1151.171875 1405.078125 1129.578125 1415.566406 L 1138.957031 1430.210938 L 1251.476562 1430.210938 C 1251.753906 1418.636719 1251.082031 1401.730469 1246.28125 1386.957031 C 1246.210938 1373.019531 1248.164062 1354.335938 1249.75 1341.507812 L 1255.898438 1341.507812 C 1255.929688 1341.402344 1255.964844 1341.289062 1255.996094 1341.183594 C 1256.71875 1340.839844 1257.304688 1340.234375 1257.550781 1339.433594 C 1260.195312 1330.914062 1263.34375 1320.234375 1266.625 1308 C 1266.867188 1307.09375 1266.644531 1306.203125 1266.148438 1305.511719 C 1280.265625 1252.429688 1296.925781 1171.746094 1285.035156 1110.085938 L 1318.015625 886.585938 L 1298.382812 885.347656 L 1326.183594 887.097656 C 1326.222656 887.101562 1326.257812 887.101562 1326.292969 887.101562 C 1326.316406 887.101562 1326.335938 887.089844 1326.355469 887.089844 C 1326.355469 887.089844 1326.351562 887.089844 1326.351562 887.089844 L 1339.105469 1304.78125 C 1338.265625 1305.332031 1337.691406 1306.246094 1337.726562 1307.324219 L 1338.722656 1338.636719 C 1338.757812 1339.691406 1339.367188 1340.566406 1340.214844 1341.066406 L 1340.230469 1341.515625 L 1343.648438 1341.515625 C 1343.628906 1342.46875 1343.578125 1343.386719 1343.578125 1344.378906 C 1343.578125 1361.808594 1342.558594 1375.144531 1341.710938 1393.714844 C 1341.648438 1395.105469 1341.585938 1396.53125 1341.527344 1397.984375 C 1341.503906 1398.527344 1341.484375 1399.09375 1341.460938 1399.644531 C 1341.429688 1400.46875 1341.398438 1401.289062 1341.367188 1402.136719 C 1341.332031 1403.035156 1341.296875 1403.957031 1341.265625 1404.878906 C 1341.246094 1405.410156 1341.226562 1405.945312 1341.210938 1406.484375 C 1341.175781 1407.589844 1341.136719 1408.710938 1341.101562 1409.859375 C 1341.089844 1410.183594 1341.085938 1410.515625 1341.074219 1410.84375 C 1340.835938 1418.929688 1340.664062 1428.019531 1340.621094 1438.640625 C 1340.605469 1441.648438 1343.035156 1444.109375 1346.046875 1444.109375 L 1441.34375 1444.109375 C 1444.664062 1444.109375 1447.261719 1441.144531 1446.722656 1437.867188 C 1444.707031 1425.527344 1436.777344 1416.847656 1427.734375 1408.605469 C 1427.738281 1408.605469 1427.742188 1408.605469 1427.746094 1408.609375 C 1427.421875 1408.3125 1427.085938 1408.019531 1426.761719 1407.726562 C 1424.03125 1405.269531 1421.242188 1402.828125 1418.46875 1400.34375 C 1417.824219 1399.761719 1417.183594 1399.179688 1416.546875 1398.589844 C 1415.863281 1397.964844 1415.191406 1397.335938 1414.519531 1396.695312 C 1413.835938 1396.046875 1413.167969 1395.386719 1412.5 1394.730469 C 1411.890625 1394.128906 1411.289062 1393.523438 1410.695312 1392.90625 C 1410.015625 1392.195312 1409.359375 1391.46875 1408.707031 1390.738281 C 1408.164062 1390.136719 1407.621094 1389.535156 1407.097656 1388.914062 C 1406.433594 1388.121094 1405.804688 1387.292969 1405.179688 1386.46875 C 1404.726562 1385.871094 1404.253906 1385.285156 1403.820312 1384.671875 C 1403.152344 1383.730469 1402.550781 1382.734375 1401.945312 1381.738281 C 1401.617188 1381.195312 1401.253906 1380.675781 1400.941406 1380.121094 C 1400.074219 1378.570312 1399.28125 1376.960938 1398.585938 1375.28125 C 1398.574219 1375.253906 1398.5625 1375.234375 1398.554688 1375.210938 C 1398.265625 1374.515625 1398.03125 1373.820312 1397.773438 1373.121094 C 1393.921875 1362.660156 1393.300781 1352.113281 1393.679688 1341.515625 L 1401.265625 1341.515625 C 1401.285156 1341.398438 1401.308594 1341.261719 1401.328125 1341.144531 C 1402.121094 1340.730469 1402.730469 1340.007812 1402.894531 1339.074219 C 1404.429688 1330.289062 1406.308594 1319.480469 1408.308594 1307.742188 C 1408.488281 1306.679688 1408.046875 1305.710938 1407.308594 1305.058594 C 1412.074219 1275.871094 1417.507812 1241.523438 1420.640625 1218.046875 C 1427.09375 1169.601562 1417.53125 1098.398438 1417.53125 1098.398438 L 1421.847656 878.441406 C 1420.496094 878.441406 1419.226562 878.3125 1417.992188 878.132812 C 1419.238281 878.316406 1420.519531 878.445312 1421.882812 878.445312 C 1422.875 878.445312 1423.683594 877.640625 1423.683594 876.644531 C 1423.683594 875.652344 1422.875 874.84375 1421.882812 874.84375 C 1421.894531 874.84375 1421.902344 874.851562 1421.917969 874.851562 L 1422.390625 850.734375 C 1425.695312 848.539062 1427.855469 844.832031 1427.855469 840.648438 C 1427.855469 830.441406 1426.894531 813.667969 1425.839844 795.515625 C 1434.605469 826.839844 1444.839844 863.320312 1448.613281 876.769531 L 1448.574219 876.78125 C 1447.625 877.074219 1447.089844 878.078125 1447.378906 879.035156 C 1447.503906 879.449219 1447.777344 879.761719 1448.113281 879.984375 C 1447.898438 880.335938 1447.640625 880.691406 1447.453125 881.035156 C 1441.628906 891.777344 1440.476562 899.046875 1442.121094 914.363281 C 1441.453125 914.695312 1441.070312 915.398438 1441.15625 916.144531 C 1440.964844 916.101562 1440.792969 916.015625 1440.597656 915.988281 C 1436.566406 915.5 1433.058594 918.734375 1433.222656 922.792969 L 1434.082031 943.980469 C 1434.160156 945.949219 1435.117188 947.777344 1436.691406 948.96875 L 1450.890625 959.710938 C 1451.953125 961.800781 1453.261719 963.226562 1454.433594 964.140625 C 1455.457031 964.945312 1456.710938 965.363281 1457.984375 965.363281 C 1458.152344 965.363281 1458.316406 965.296875 1458.488281 965.285156 C 1460.753906 966.59375 1463.589844 966.527344 1465.722656 964.914062 L 1495.851562 942.171875 C 1497.578125 940.871094 1498.554688 938.808594 1498.46875 936.648438 Z M 239.089844 881.757812 C 239.089844 881.757812 239.023438 881.808594 238.902344 881.898438 C 239.019531 881.8125 239.089844 881.757812 239.089844 881.757812 Z M 292.3125 592.410156 C 292.175781 592.257812 292.046875 592.105469 291.902344 591.949219 C 292.046875 592.105469 292.175781 592.257812 292.3125 592.410156 Z M 294.652344 595.476562 C 294.722656 595.582031 294.792969 595.691406 294.859375 595.796875 C 294.789062 595.6875 294.71875 595.578125 294.652344 595.476562 Z M 293.386719 593.683594 C 293.503906 593.835938 293.617188 593.984375 293.726562 594.132812 C 293.617188 593.984375 293.503906 593.835938 293.386719 593.683594 Z M 310.578125 523.78125 C 310.679688 523.636719 310.765625 523.5 310.863281 523.355469 C 310.765625 523.5 310.683594 523.636719 310.578125 523.78125 Z M 314.304688 517.824219 C 314.304688 517.820312 314.308594 517.820312 314.308594 517.816406 C 314.304688 517.820312 314.304688 517.820312 314.304688 517.824219 Z M 312.59375 520.765625 C 312.640625 520.695312 312.675781 520.628906 312.71875 520.558594 C 312.671875 520.628906 312.640625 520.695312 312.59375 520.765625 Z M 272.792969 1002.082031 L 272.785156 1002.082031 C 275.4375 1001.261719 278.15625 1000.394531 280.898438 999.496094 C 278.160156 1000.394531 275.441406 1001.261719 272.792969 1002.082031 Z M 282.175781 999.078125 C 287.664062 997.269531 293.28125 995.304688 298.894531 993.191406 C 293.277344 995.304688 287.664062 997.265625 282.175781 999.078125 Z M 300.566406 992.558594 C 306.074219 990.457031 311.554688 988.210938 316.878906 985.828125 C 311.550781 988.210938 306.078125 990.453125 300.566406 992.558594 Z M 318.722656 984.996094 C 323.957031 982.609375 329.007812 980.089844 333.761719 977.441406 C 329.007812 980.089844 323.957031 982.609375 318.722656 984.996094 Z M 335.507812 976.457031 C 337.847656 975.117188 340.140625 973.753906 342.300781 972.351562 C 340.140625 973.757812 337.847656 975.117188 335.507812 976.457031 Z M 266.066406 1000.355469 C 267.789062 999.84375 269.546875 999.3125 271.324219 998.765625 C 269.546875 999.3125 267.789062 999.847656 266.066406 1000.355469 Z M 272.730469 998.332031 C 274.695312 997.722656 276.691406 997.089844 278.710938 996.4375 C 276.691406 997.089844 274.699219 997.722656 272.730469 998.332031 Z M 260.132812 1002.082031 L 260.125 1002.082031 C 261.828125 1001.59375 263.558594 1001.101562 265.335938 1000.574219 C 263.5625 1001.097656 261.835938 1001.597656 260.132812 1002.082031 Z M 335.078125 972.550781 C 336.878906 971.496094 338.652344 970.425781 340.339844 969.328125 C 338.652344 970.425781 336.878906 971.496094 335.078125 972.550781 Z M 279.910156 996.042969 C 281.652344 995.472656 283.414062 994.886719 285.179688 994.285156 C 283.414062 994.886719 281.652344 995.472656 279.910156 996.042969 Z M 286.644531 993.785156 C 288.6875 993.085938 290.746094 992.359375 292.800781 991.613281 C 290.742188 992.359375 288.6875 993.085938 286.644531 993.785156 Z M 294.222656 991.09375 C 296 990.445312 297.777344 989.78125 299.554688 989.101562 C 297.777344 989.78125 296 990.441406 294.222656 991.09375 Z M 300.894531 988.589844 C 302.949219 987.792969 305.003906 986.972656 307.042969 986.136719 C 305.003906 986.972656 302.949219 987.792969 300.894531 988.589844 Z M 308.535156 985.515625 C 310.335938 984.765625 312.125 984 313.890625 983.222656 C 312.125 984.003906 310.335938 984.765625 308.535156 985.515625 Z M 314.953125 982.765625 C 316.957031 981.871094 318.9375 980.957031 320.890625 980.023438 C 318.9375 980.953125 316.957031 981.871094 314.953125 982.765625 Z M 322.328125 979.328125 C 324.144531 978.445312 325.9375 977.550781 327.691406 976.636719 C 325.9375 977.550781 324.144531 978.449219 322.328125 979.328125 Z M 328.273438 976.335938 C 330.160156 975.347656 331.988281 974.332031 333.785156 973.300781 C 331.988281 974.332031 330.160156 975.347656 328.273438 976.335938 Z M 459.25 820.230469 L 454.257812 817.859375 L 459.25 820.230469 L 460.257812 818.109375 Z M 443.992188 662.9375 L 517.390625 697.792969 L 443.992188 662.9375 L 416.382812 721.078125 Z M 1345.871094 1394.554688 C 1346.167969 1394.566406 1346.464844 1394.578125 1346.761719 1394.566406 C 1346.460938 1394.578125 1346.167969 1394.566406 1345.871094 1394.554688 Z M 1355.972656 1390.488281 C 1356.667969 1389.886719 1357.367188 1389.238281 1358.078125 1388.476562 C 1358.984375 1387.511719 1359.890625 1386.597656 1360.800781 1385.707031 C 1359.890625 1386.597656 1358.984375 1387.511719 1358.078125 1388.476562 C 1357.367188 1389.238281 1356.667969 1389.890625 1355.972656 1390.488281 Z M 1347.605469 1394.5 C 1347.945312 1394.460938 1348.289062 1394.402344 1348.640625 1394.332031 C 1348.289062 1394.40625 1347.945312 1394.460938 1347.605469 1394.5 Z M 1349.40625 1394.175781 C 1350 1394.015625 1350.597656 1393.820312 1351.210938 1393.5625 C 1350.597656 1393.816406 1349.996094 1394.015625 1349.40625 1394.175781 Z M 1351.667969 1393.332031 C 1352.175781 1393.097656 1352.683594 1392.832031 1353.199219 1392.515625 C 1352.683594 1392.832031 1352.175781 1393.097656 1351.667969 1393.332031 Z M 1353.886719 1392.074219 C 1354.359375 1391.757812 1354.84375 1391.398438 1355.328125 1391.011719 C 1354.84375 1391.398438 1354.359375 1391.757812 1353.886719 1392.074219 Z M 1387.695312 1371.710938 C 1385.996094 1371.800781 1384.304688 1372.042969 1382.613281 1372.441406 C 1381.652344 1372.664062 1380.695312 1372.953125 1379.734375 1373.273438 C 1384.042969 1371.832031 1388.386719 1371.332031 1392.734375 1371.921875 C 1391.054688 1371.695312 1389.375 1371.625 1387.695312 1371.710938 Z M 1361.640625 1384.914062 C 1362.285156 1384.304688 1362.933594 1383.710938 1363.582031 1383.136719 C 1362.929688 1383.710938 1362.285156 1384.304688 1361.640625 1384.914062 Z M 1364.539062 1382.304688 C 1365.183594 1381.757812 1365.832031 1381.230469 1366.484375 1380.71875 C 1365.835938 1381.226562 1365.1875 1381.753906 1364.539062 1382.304688 Z M 1367.355469 1380.03125 C 1368.285156 1379.328125 1369.214844 1378.660156 1370.152344 1378.039062 C 1369.21875 1378.660156 1368.285156 1379.332031 1367.355469 1380.03125 Z M 1370.167969 1378.03125 C 1371.097656 1377.417969 1372.039062 1376.851562 1372.980469 1376.316406 C 1372.039062 1376.851562 1371.101562 1377.414062 1370.167969 1378.03125 Z M 1373.859375 1375.847656 C 1374.523438 1375.492188 1375.1875 1375.152344 1375.855469 1374.839844 C 1375.1875 1375.152344 1374.523438 1375.492188 1373.859375 1375.847656 Z M 1376.847656 1374.394531 C 1377.515625 1374.101562 1378.1875 1373.839844 1378.855469 1373.59375 C 1378.1875 1373.839844 1377.511719 1374.101562 1376.847656 1374.394531 Z M 1393.949219 1372.144531 C 1394.386719 1372.222656 1394.824219 1372.285156 1395.261719 1372.386719 C 1394.824219 1372.285156 1394.386719 1372.222656 1393.949219 1372.144531 Z M 1174.394531 637.175781 L 1207.375 654.886719 Z M 1237.449219 855.089844 C 1237.445312 855.089844 1237.441406 855.089844 1237.4375 855.089844 C 1237.441406 855.089844 1237.445312 855.089844 1237.449219 855.089844 Z M 1239.640625 859.042969 C 1239.609375 859.113281 1239.585938 859.175781 1239.554688 859.246094 C 1239.589844 859.175781 1239.613281 859.113281 1239.640625 859.042969 Z M 1238.894531 860.609375 C 1238.683594 861.039062 1238.457031 861.46875 1238.226562 861.902344 C 1238.457031 861.46875 1238.683594 861.035156 1238.894531 860.609375 Z M 1237.621094 863.023438 C 1237.183594 863.789062 1236.710938 864.550781 1236.210938 865.304688 C 1236.714844 864.550781 1237.183594 863.789062 1237.621094 863.023438 Z M 1229.328125 868.1875 C 1229.246094 868.269531 1229.160156 868.339844 1229.082031 868.417969 C 1229.160156 868.339844 1229.25 868.269531 1229.328125 868.1875 Z M 1227.101562 870.152344 C 1226.945312 870.273438 1226.792969 870.402344 1226.636719 870.519531 C 1226.792969 870.402344 1226.945312 870.273438 1227.101562 870.152344 Z M 1224.210938 872.101562 C 1224.054688 872.191406 1223.886719 872.265625 1223.726562 872.355469 C 1223.882812 872.269531 1224.054688 872.191406 1224.210938 872.101562 Z M 1221.222656 873.476562 C 1221.082031 873.527344 1220.949219 873.589844 1220.8125 873.640625 C 1220.953125 873.589844 1221.082031 873.527344 1221.222656 873.476562 Z M 1237.449219 855.09375 C 1237.324219 855.410156 1237.191406 855.726562 1237.058594 856.046875 C 1237.1875 855.726562 1237.324219 855.40625 1237.449219 855.09375 Z M 1236.484375 857.371094 C 1236.355469 857.664062 1236.230469 857.949219 1236.09375 858.242188 C 1236.230469 857.953125 1236.355469 857.664062 1236.484375 857.371094 Z M 1235.046875 860.316406 C 1234.910156 860.5625 1234.773438 860.804688 1234.632812 861.050781 C 1234.769531 860.804688 1234.910156 860.5625 1235.046875 860.316406 Z M 1233.460938 863 C 1233.378906 863.121094 1233.3125 863.246094 1233.230469 863.367188 C 1233.308594 863.25 1233.378906 863.121094 1233.460938 863 Z M 1231.644531 865.550781 C 1231.496094 865.738281 1231.351562 865.921875 1231.199219 866.105469 C 1231.351562 865.917969 1231.5 865.734375 1231.644531 865.550781 Z M 1231.117188 871.433594 C 1230.394531 872.121094 1229.632812 872.773438 1228.828125 873.382812 C 1229.628906 872.773438 1230.390625 872.121094 1231.117188 871.433594 Z M 1235.648438 866.132812 C 1235.183594 866.808594 1234.6875 867.46875 1234.167969 868.121094 C 1234.6875 867.472656 1235.179688 866.808594 1235.648438 866.132812 Z M 1233.773438 868.625 C 1233.117188 869.414062 1232.410156 870.171875 1231.671875 870.90625 C 1232.410156 870.171875 1233.117188 869.414062 1233.773438 868.625 Z M 1259.886719 857.59375 C 1260.050781 857.609375 1260.222656 857.625 1260.386719 857.640625 C 1260.222656 857.625 1260.050781 857.613281 1259.886719 857.59375 Z M 1299.621094 860.050781 C 1299.105469 860.03125 1298.59375 860.019531 1298.074219 860.003906 C 1298.589844 860.019531 1299.105469 860.035156 1299.621094 860.050781 Z M 1338.957031 860.105469 C 1338.109375 860.132812 1337.257812 860.15625 1336.40625 860.179688 C 1337.257812 860.15625 1338.109375 860.132812 1338.957031 860.105469 Z M 1401.835938 868.714844 C 1402.484375 869.488281 1403.171875 870.238281 1403.898438 870.957031 C 1403.171875 870.238281 1402.484375 869.488281 1401.835938 868.714844 Z M 1406.558594 873.265625 C 1405.816406 872.695312 1405.109375 872.089844 1404.4375 871.460938 C 1405.105469 872.089844 1405.816406 872.695312 1406.558594 873.265625 Z M 1401.304688 868.050781 C 1400.816406 867.433594 1400.347656 866.804688 1399.902344 866.167969 C 1400.34375 866.800781 1400.8125 867.433594 1401.304688 868.050781 Z M 1399.386719 865.429688 C 1398.886719 864.679688 1398.421875 863.917969 1397.988281 863.160156 C 1398.425781 863.917969 1398.886719 864.679688 1399.386719 865.429688 Z M 1397.367188 862.035156 C 1397.128906 861.585938 1396.898438 861.148438 1396.679688 860.703125 C 1396.898438 861.144531 1397.125 861.585938 1397.367188 862.035156 Z M 1395.539062 858.261719 C 1395.453125 858.074219 1395.367188 857.882812 1395.289062 857.695312 C 1395.367188 857.882812 1395.457031 858.070312 1395.539062 858.261719 Z M 1398.246094 855.503906 C 1398.246094 855.507812 1398.25 855.511719 1398.25 855.511719 C 1398.25 855.507812 1398.246094 855.503906 1398.246094 855.503906 Z M 1399.167969 857.640625 C 1399.265625 857.847656 1399.363281 858.058594 1399.464844 858.273438 C 1399.363281 858.058594 1399.265625 857.851562 1399.167969 857.640625 Z M 1400.601562 860.515625 C 1400.675781 860.65625 1400.761719 860.796875 1400.839844 860.9375 C 1400.761719 860.796875 1400.679688 860.65625 1400.601562 860.515625 Z M 1402.0625 862.964844 C 1402.164062 863.121094 1402.265625 863.285156 1402.367188 863.441406 C 1402.261719 863.285156 1402.164062 863.121094 1402.0625 862.964844 Z M 1403.960938 865.632812 C 1404.089844 865.800781 1404.226562 865.957031 1404.359375 866.121094 C 1404.226562 865.957031 1404.089844 865.800781 1403.960938 865.632812 Z M 1406.207031 868.179688 C 1406.234375 868.210938 1406.261719 868.242188 1406.292969 868.273438 C 1406.261719 868.242188 1406.238281 868.210938 1406.207031 868.179688 Z M 1407.78125 854.1875 C 1411.101562 853.695312 1414.410156 853.183594 1417.675781 852.628906 C 1414.410156 853.183594 1411.105469 853.699219 1407.78125 854.1875 Z M 1414.761719 873.648438 C 1414.597656 873.589844 1414.441406 873.519531 1414.28125 873.460938 C 1414.441406 873.519531 1414.597656 873.589844 1414.761719 873.648438 Z M 1411.785156 872.339844 C 1411.648438 872.265625 1411.507812 872.207031 1411.375 872.128906 C 1411.507812 872.207031 1411.648438 872.265625 1411.785156 872.339844 Z M 1408.957031 870.550781 C 1408.785156 870.425781 1408.621094 870.292969 1408.453125 870.164062 C 1408.621094 870.292969 1408.785156 870.421875 1408.957031 870.550781 Z M 1377.398438 857.8125 C 1376.367188 857.90625 1375.339844 858 1374.304688 858.085938 C 1375.339844 858 1376.367188 857.910156 1377.398438 857.8125 Z M 1346.613281 413.019531 C 1347.402344 413.402344 1348.15625 413.859375 1348.859375 414.402344 C 1348.152344 413.859375 1347.402344 413.398438 1346.613281 413.019531 Z M 1354.402344 422.523438 C 1354.117188 421.675781 1353.765625 420.875 1353.386719 420.101562 C 1353.765625 420.878906 1354.121094 421.675781 1354.402344 422.523438 Z M 1352.863281 419.109375 C 1352.425781 418.347656 1351.960938 417.605469 1351.433594 416.945312 C 1351.960938 417.609375 1352.425781 418.347656 1352.863281 419.109375 Z M 1350.96875 416.425781 C 1350.46875 415.851562 1349.941406 415.324219 1349.375 414.84375 C 1349.941406 415.324219 1350.46875 415.847656 1350.96875 416.425781 Z M 1346.0625 412.777344 C 1345.863281 412.695312 1345.644531 412.664062 1345.445312 412.589844 L 1345.445312 412.507812 C 1345.65625 412.589844 1345.855469 412.691406 1346.0625 412.777344 Z M 1132.242188 684.125 L 1101.601562 637.175781 L 1151.875 637.175781 Z M 1217.054688 851.734375 C 1216.890625 851.664062 1216.730469 851.589844 1216.570312 851.511719 C 1216.730469 851.585938 1216.890625 851.664062 1217.054688 851.734375 Z M 1217.785156 874.421875 C 1217.546875 874.464844 1217.308594 874.5 1217.066406 874.535156 C 1217.304688 874.5 1217.546875 874.464844 1217.785156 874.421875 Z M 1221.925781 877.089844 C 1220.820312 877.464844 1219.644531 877.742188 1218.429688 877.96875 C 1219.644531 877.742188 1220.820312 877.464844 1221.925781 877.089844 Z M 1228.597656 873.566406 C 1227.71875 874.214844 1226.777344 874.804688 1225.800781 875.34375 C 1226.777344 874.804688 1227.71875 874.214844 1228.597656 873.566406 Z M 1225.125 875.695312 C 1224.148438 876.199219 1223.136719 876.660156 1222.058594 877.035156 C 1223.136719 876.660156 1224.148438 876.203125 1225.125 875.695312 Z M 1197.8125 1304.242188 C 1197.507812 1304.242188 1197.222656 1304.324219 1196.941406 1304.410156 C 1197.214844 1304.3125 1197.503906 1304.242188 1197.8125 1304.242188 Z M 1195.480469 1341.296875 C 1195.761719 1341.394531 1196.050781 1341.472656 1196.359375 1341.480469 C 1196.046875 1341.472656 1195.757812 1341.40625 1195.480469 1341.296875 Z M 1265.140625 1304.589844 C 1265.152344 1304.59375 1265.15625 1304.605469 1265.167969 1304.613281 C 1265.15625 1304.605469 1265.152344 1304.59375 1265.140625 1304.589844 Z M 1327.558594 886.574219 C 1327.585938 886.554688 1327.59375 886.515625 1327.621094 886.492188 C 1327.59375 886.515625 1327.585938 886.554688 1327.558594 886.574219 Z M 1327.9375 886.050781 C 1328.03125 885.851562 1328.09375 885.628906 1328.105469 885.398438 C 1328.09375 885.628906 1328.035156 885.851562 1327.9375 886.050781 Z M 1340.710938 1304.242188 C 1340.382812 1304.242188 1340.078125 1304.335938 1339.785156 1304.433594 C 1340.070312 1304.316406 1340.375 1304.242188 1340.710938 1304.242188 Z M 1399.988281 1341.492188 L 1341.699219 1341.492188 C 1341.386719 1341.492188 1341.097656 1341.421875 1340.820312 1341.320312 C 1341.101562 1341.410156 1341.390625 1341.492188 1341.699219 1341.492188 L 1399.988281 1341.492188 C 1400.269531 1341.492188 1400.527344 1341.425781 1400.785156 1341.355469 C 1400.53125 1341.4375 1400.269531 1341.492188 1399.988281 1341.492188 Z M 1405.402344 1304.242188 C 1405.796875 1304.242188 1406.15625 1304.335938 1406.488281 1304.488281 C 1406.152344 1304.351562 1405.796875 1304.242188 1405.402344 1304.242188 Z M 1407.003906 873.617188 C 1407.867188 874.253906 1408.785156 874.824219 1409.738281 875.355469 C 1408.785156 874.824219 1407.871094 874.253906 1407.003906 873.617188 Z M 1413.65625 877.101562 C 1414.742188 877.46875 1415.898438 877.742188 1417.085938 877.964844 C 1415.894531 877.742188 1414.742188 877.46875 1413.65625 877.101562 Z M 1410.4375 875.714844 C 1411.351562 876.179688 1412.296875 876.601562 1413.296875 876.957031 C 1412.292969 876.605469 1411.347656 876.183594 1410.4375 875.714844 Z M 1417.769531 874.429688 C 1417.996094 874.472656 1418.230469 874.503906 1418.460938 874.535156 C 1418.226562 874.5 1417.996094 874.472656 1417.769531 874.429688 Z M 1420.125 851.925781 C 1420.183594 851.902344 1420.238281 851.867188 1420.296875 851.84375 C 1420.234375 851.871094 1420.179688 851.898438 1420.125 851.925781 Z M 1423.199219 732.910156 C 1423.199219 734.933594 1423.222656 737.074219 1423.261719 739.285156 C 1423.222656 737.074219 1423.199219 734.933594 1423.199219 732.910156 Z M 1423.3125 741.597656 C 1423.34375 743.105469 1423.378906 744.613281 1423.425781 746.191406 C 1423.378906 744.613281 1423.34375 743.105469 1423.3125 741.597656 Z M 1423.519531 749.097656 C 1423.570312 750.546875 1423.617188 751.992188 1423.675781 753.480469 C 1423.617188 751.992188 1423.570312 750.546875 1423.519531 749.097656 Z M 1423.8125 756.773438 C 1423.875 758.214844 1423.933594 759.664062 1424.003906 761.140625 C 1423.933594 759.664062 1423.875 758.214844 1423.8125 756.773438 Z M 1424.167969 764.617188 C 1424.242188 766.082031 1424.3125 767.554688 1424.390625 769.039062 C 1424.3125 767.554688 1424.242188 766.085938 1424.167969 764.617188 Z M 1424.574219 772.605469 C 1424.652344 774.125 1424.734375 775.644531 1424.816406 777.167969 C 1424.734375 775.640625 1424.65625 774.125 1424.574219 772.605469 Z M 1425.492188 789.097656 C 1425.589844 790.78125 1425.6875 792.457031 1425.78125 794.117188 C 1425.683594 792.449219 1425.589844 790.785156 1425.492188 789.097656 Z M 1425.011719 780.679688 C 1425.101562 782.257812 1425.1875 783.835938 1425.28125 785.410156 C 1425.1875 783.832031 1425.101562 782.257812 1425.011719 780.679688 Z M 1425.011719 780.679688 " fill-opacity="1" fill-rule="nonzero"/></g><g clip-path="url(#6524c5c101)"><path fill="#f5f5f5" d="M 1129.59375 1415.554688 C 1126.3125 1417.148438 1123.167969 1418.59375 1120.257812 1419.859375 C 1107.460938 1425.40625 1104.230469 1431.800781 1103.40625 1437.957031 C 1102.976562 1441.203125 1105.523438 1444.089844 1108.800781 1444.089844 L 1245.660156 1444.089844 C 1248.5 1444.089844 1250.863281 1441.90625 1251.070312 1439.074219 C 1251.238281 1436.757812 1251.410156 1433.714844 1251.492188 1430.199219 L 1138.972656 1430.199219 Z M 1129.59375 1415.554688 " fill-opacity="1" fill-rule="nonzero"/></g><g clip-path="url(#fa583aedb1)"><path fill="#f5f5f5" d="M 1035.402344 888.460938 L 649.3125 888.460938 L 649.3125 728.921875 L 1035.402344 728.921875 Z M 445.910156 55.910156 L 445.910156 637.175781 L 1345.445312 637.175781 L 1345.445312 55.910156 Z M 1.507812 1394.179688 L 270.816406 1394.179688 L 270.816406 1002.082031 L 1.507812 1002.082031 Z M 7.847656 194.984375 L 7.847656 400.664062 L 373.484375 400.664062 L 373.484375 194.984375 Z M 443.992188 662.9375 L 385.851562 785.375 L 459.25 820.230469 L 517.390625 697.792969 Z M 443.992188 662.9375 " fill-opacity="1" fill-rule="nonzero"/></g><g clip-path="url(#7646b38ee9)"><path fill="#e0e0e0" d="M 83.765625 282.886719 C 83.765625 290.292969 77.757812 296.300781 70.351562 296.300781 C 62.941406 296.300781 56.9375 290.292969 56.9375 282.886719 C 56.9375 275.476562 62.941406 269.472656 70.351562 269.472656 C 77.757812 269.472656 83.765625 275.476562 83.765625 282.886719 Z M 615.964844 542.8125 L 627.039062 542.8125 L 627.039062 171.316406 L 615.964844 171.316406 Z M 70.351562 325.300781 C 62.941406 325.300781 56.9375 331.308594 56.9375 338.714844 C 56.9375 346.121094 62.941406 352.128906 70.351562 352.128906 C 77.757812 352.128906 83.765625 346.121094 83.765625 338.714844 C 83.765625 331.308594 77.757812 325.300781 70.351562 325.300781 Z M 560.417969 217.910156 L 508.699219 217.910156 L 508.699219 256.445312 L 560.417969 256.445312 Z M 325.242188 269.472656 L 109.097656 269.472656 L 109.097656 296.300781 L 325.238281 296.300781 L 325.238281 269.472656 Z M 509.207031 404.003906 L 560.925781 404.003906 L 560.925781 365.464844 L 509.207031 365.464844 Z M 509.207031 329.96875 L 560.925781 329.96875 L 560.925781 291.433594 L 509.207031 291.433594 Z M 7.847656 222.921875 L 373.484375 222.921875 L 373.484375 194.984375 L 7.847656 194.984375 Z M 109.097656 352.128906 L 325.238281 352.128906 L 325.238281 325.300781 L 109.097656 325.300781 Z M 509.207031 478.035156 L 560.925781 478.035156 L 560.925781 439.496094 L 509.207031 439.496094 Z M 938.167969 147.425781 C 924.292969 147.425781 912.757812 157.386719 910.28125 170.539062 L 681.09375 170.539062 L 681.09375 181.613281 L 910.367188 181.613281 C 913.039062 194.519531 924.46875 204.21875 938.167969 204.21875 C 951.863281 204.21875 963.292969 194.519531 965.964844 181.613281 L 1052.570312 181.613281 L 1052.570312 170.539062 L 966.046875 170.539062 C 963.574219 157.386719 952.039062 147.425781 938.167969 147.425781 Z M 642.398438 720.332031 L 1046.128906 720.332031 L 1046.128906 900.621094 L 642.398438 900.621094 Z M 926.152344 874.589844 L 1021.371094 874.589844 L 1021.371094 784.445312 L 926.152344 784.445312 Z M 738.25 775.875 L 844.894531 775.875 L 844.894531 765.71875 L 738.25 765.71875 Z M 674.773438 833.964844 L 851.882812 833.964844 L 851.882812 823.804688 L 674.773438 823.804688 Z M 674.773438 856.816406 L 832.835938 856.816406 L 832.835938 846.660156 L 674.773438 846.660156 Z M 445.910156 55.910156 L 1345.445312 55.910156 L 1345.445312 125.457031 L 445.910156 125.457031 Z M 549.03125 93.085938 C 549.03125 99.007812 553.835938 103.808594 559.753906 103.808594 C 565.675781 103.808594 570.476562 99.003906 570.476562 93.085938 C 570.476562 87.164062 565.675781 82.363281 559.753906 82.363281 C 553.835938 82.363281 549.03125 87.160156 549.03125 93.085938 Z M 513.289062 93.085938 C 513.289062 99.007812 518.089844 103.808594 524.011719 103.808594 C 529.929688 103.808594 534.734375 99.003906 534.734375 93.085938 C 534.734375 87.164062 529.929688 82.363281 524.011719 82.363281 C 518.089844 82.363281 513.289062 87.160156 513.289062 93.085938 Z M 477.542969 93.085938 C 477.542969 99.007812 482.34375 103.808594 488.261719 103.808594 C 494.183594 103.808594 498.984375 99.003906 498.984375 93.085938 C 498.984375 87.164062 494.183594 82.363281 488.261719 82.363281 C 482.34375 82.363281 477.542969 87.160156 477.542969 93.085938 Z M 1100.414062 567.976562 L 1271.792969 567.976562 L 1271.792969 175.3125 L 1100.414062 175.3125 Z M 1041.613281 385.75 L 1041.613281 552.070312 L 690.574219 552.070312 L 690.574219 385.75 Z M 1004.375 490.066406 L 727.808594 490.066406 L 727.808594 523.53125 L 1004.375 523.53125 Z M 1004.375 417.046875 L 727.8125 417.046875 L 727.8125 450.511719 L 1004.375 450.511719 Z M 881.378906 290.417969 C 867.503906 290.417969 855.972656 300.378906 853.492188 313.535156 L 681.09375 313.535156 L 681.09375 324.605469 L 853.578125 324.605469 C 856.25 337.511719 867.679688 347.210938 881.378906 347.210938 C 895.074219 347.210938 906.503906 337.511719 909.175781 324.605469 L 1052.570312 324.605469 L 1052.570312 313.535156 L 909.261719 313.535156 C 906.785156 300.378906 895.253906 290.417969 881.378906 290.417969 Z M 681.09375 252.601562 L 1052.570312 252.601562 L 1052.570312 241.53125 L 681.09375 241.53125 Z M 1421.898438 874.820312 C 1400.441406 874.820312 1395.546875 846.550781 1395.5 846.265625 C 1395.339844 845.289062 1394.378906 844.601562 1393.429688 844.78125 C 1392.449219 844.945312 1391.785156 845.867188 1391.945312 846.847656 C 1391.996094 847.164062 1397.371094 878.425781 1421.898438 878.425781 C 1422.894531 878.425781 1423.703125 877.617188 1423.703125 876.625 C 1423.703125 875.628906 1422.894531 874.820312 1421.898438 874.820312 Z M 1326.425781 883.484375 L 1298.625 881.730469 C 1297.5 881.652344 1296.777344 882.425781 1296.714844 883.417969 C 1296.648438 884.410156 1297.40625 885.265625 1298.402344 885.328125 L 1326.199219 887.078125 C 1326.242188 887.082031 1326.277344 887.082031 1326.3125 887.082031 C 1327.261719 887.082031 1328.050781 886.347656 1328.109375 885.394531 C 1328.171875 884.402344 1327.414062 883.546875 1326.425781 883.484375 Z M 1242.097656 844.78125 C 1241.128906 844.601562 1240.195312 845.285156 1240.03125 846.269531 C 1239.980469 846.554688 1235.132812 874.820312 1213.625 874.820312 C 1212.632812 874.820312 1211.824219 875.628906 1211.824219 876.625 C 1211.824219 877.617188 1212.632812 878.425781 1213.625 878.425781 C 1238.160156 878.425781 1243.535156 847.164062 1243.582031 846.847656 C 1243.746094 845.867188 1243.074219 844.941406 1242.097656 844.78125 Z M 457.921875 975.140625 C 456.925781 975.152344 456.128906 975.964844 456.140625 976.964844 L 458.152344 1153.929688 C 458.160156 1154.917969 458.96875 1155.710938 459.953125 1155.710938 C 459.960938 1155.710938 459.964844 1155.710938 459.972656 1155.710938 C 460.96875 1155.699219 461.765625 1154.886719 461.753906 1153.886719 L 459.742188 976.921875 C 459.730469 975.925781 458.96875 975.25 457.921875 975.140625 Z M 342.300781 972.355469 C 343.132812 971.816406 343.371094 970.699219 342.832031 969.863281 C 342.289062 969.027344 341.171875 968.800781 340.335938 969.332031 C 300.878906 994.917969 228.058594 1010.226562 227.328125 1010.378906 C 226.351562 1010.582031 225.726562 1011.53125 225.929688 1012.507812 C 226.105469 1013.359375 226.855469 1013.941406 227.6875 1013.941406 C 227.808594 1013.941406 227.933594 1013.929688 228.058594 1013.902344 C 228.425781 1013.828125 246.710938 1009.984375 269.921875 1002.964844 L 269.921875 1394.183594 L 363.285156 1394.183594 L 363.285156 1002.082031 L 272.785156 1002.082031 C 295.777344 994.988281 322.941406 984.90625 342.300781 972.355469 Z M 527.726562 698.839844 L 466.324219 828.140625 C 464.242188 832.527344 459.632812 834.695312 456.027344 832.984375 L 378.003906 795.929688 C 374.402344 794.21875 373.167969 789.273438 375.253906 784.890625 L 436.652344 655.585938 C 438.734375 651.203125 443.347656 649.035156 446.949219 650.746094 L 524.972656 687.800781 C 528.574219 689.511719 529.808594 694.453125 527.726562 698.839844 Z M 517.390625 697.792969 L 443.992188 662.9375 L 385.851562 785.375 L 459.25 820.230469 Z M 517.390625 697.792969 " fill-opacity="1" fill-rule="nonzero"/></g><path fill="#f5c0a2" d="M 504.28125 779.238281 C 504.183594 779.277344 504.109375 779.332031 504.03125 779.375 C 504.03125 779.375 508.773438 787.527344 498.101562 794.886719 C 498.121094 795.664062 502.25 801.726562 491.597656 808.25 C 491.597656 808.25 491.148438 813.113281 486.269531 815.808594 C 484.703125 817.027344 455.800781 819.816406 447.917969 816.660156 L 439.105469 814.566406 L 432.132812 812.902344 L 421.738281 814.59375 L 431.574219 770.3125 L 437.070312 770.214844 L 439.101562 769.554688 L 467.070312 760.53125 L 493.324219 736.714844 C 493.324219 736.714844 503.613281 741.285156 487.613281 761.292969 C 489.046875 761.464844 501.722656 762.578125 501.800781 762.597656 C 509.4375 764.75 511.042969 775.109375 504.28125 779.238281 Z M 560.578125 399.09375 C 567.515625 391.113281 564.132812 381.6875 564.132812 381.6875 L 537.191406 404.164062 L 518.375 425.175781 C 527.085938 408.503906 518.761719 404.144531 518.761719 404.144531 L 505.472656 423.324219 C 495.8125 439.339844 491.96875 455.117188 491.96875 455.117188 L 490.265625 457.589844 L 483.933594 466.707031 L 480.476562 471.691406 L 511.929688 502.058594 L 517.792969 493.59375 L 520.847656 489.183594 L 521.449219 488.304688 C 529.136719 485.011719 541.890625 472.035156 547.53125 466.03125 C 547.660156 465.902344 547.769531 465.777344 547.878906 465.664062 C 548.902344 464.566406 552.136719 457.796875 552.539062 457.355469 C 554.625 452.011719 557.839844 444.015625 557.839844 444.015625 C 559.027344 432.0625 550.609375 431.898438 550.609375 431.898438 C 552.148438 417.640625 539.59375 423.695312 539.117188 423.933594 L 548.707031 412.128906 Z M 315.695312 515.003906 C 314.027344 518.699219 311.621094 522.644531 308.269531 526.839844 C 308.269531 526.839844 311.566406 541.558594 301.921875 548.070312 C 301.921875 548.070312 300.460938 543.640625 297.636719 541.210938 C 294.652344 538.648438 289.066406 536.574219 284.878906 542.261719 C 279.289062 549.855469 285.015625 557.722656 289.105469 560.84375 C 295.570312 565.773438 277.371094 578.539062 290.1875 590.246094 C 292.863281 592.6875 294.632812 595.089844 295.753906 597.4375 C 305.730469 595.328125 338.847656 583.035156 315.695312 515.003906 Z M 1156.003906 627.300781 L 1132.242188 684.125 L 1088.417969 616.96875 C 1086.054688 599.089844 1064.234375 577.84375 1054.203125 567.53125 C 1049.171875 562.355469 1047.308594 561.335938 1045.011719 563.921875 C 1041.953125 567.371094 1042.625 573.441406 1045.1875 580.0625 C 1047.476562 585.96875 1050.984375 591.605469 1051.960938 594.8125 C 1042.433594 592.871094 1031.453125 592.136719 1025.238281 591.25 C 1025.222656 591.246094 1025.191406 591.242188 1025.164062 591.234375 C 1025.128906 591.226562 1025.09375 591.230469 1025.054688 591.222656 C 1024.921875 591.203125 1024.773438 591.183594 1024.644531 591.160156 C 1024.515625 591.144531 1024.429688 591.152344 1024.316406 591.144531 C 1020.640625 590.820312 1017.097656 592.75 1015.46875 596.132812 L 1015.359375 596.359375 C 1013 601.253906 1016.738281 606.613281 1021.574219 607.332031 C 1020.734375 607.234375 1020 607.171875 1019.40625 607.152344 C 1014.839844 607 1010.964844 610.457031 1010.609375 615.011719 L 1010.589844 615.238281 C 1010.234375 619.808594 1013.5625 623.84375 1018.109375 624.386719 C 1018.707031 624.457031 1019.65625 624.511719 1020.808594 624.566406 L 1020.753906 624.566406 C 1016.160156 624.53125 1012.75 627.625 1012.78125 632.21875 C 1012.8125 636.351562 1015.921875 639.820312 1020.023438 640.324219 L 1020.539062 640.296875 C 1020.539062 640.339844 1020.53125 640.378906 1020.53125 640.421875 C 1017.242188 641.464844 1015.050781 644.722656 1015.488281 648.28125 C 1015.933594 651.929688 1019.027344 654.679688 1022.703125 654.710938 C 1023.722656 654.71875 1025.636719 654.546875 1027.851562 654.308594 C 1041.320312 658 1051.152344 659.804688 1059.046875 660.007812 C 1074.339844 693.605469 1110.585938 773.019531 1110.585938 773.019531 C 1118.082031 789.863281 1139.609375 796.148438 1154.113281 784.773438 C 1154.746094 784.285156 1155.351562 783.761719 1155.953125 783.207031 C 1158.597656 780.769531 1160.6875 777.953125 1162.226562 774.921875 L 1216.242188 659.65625 Z M 1196.433594 1341.492188 C 1196.40625 1341.492188 1196.386719 1341.480469 1196.359375 1341.480469 C 1195.167969 1356.398438 1192.988281 1366.476562 1189.660156 1374.867188 C 1189.664062 1374.867188 1189.671875 1374.859375 1189.675781 1374.855469 C 1207.914062 1398.921875 1232.476562 1393.992188 1246.292969 1386.933594 C 1246.292969 1386.9375 1246.296875 1386.9375 1246.296875 1386.945312 C 1246.226562 1373.011719 1248.175781 1354.324219 1249.765625 1341.492188 Z M 1393.695312 1341.492188 L 1343.664062 1341.492188 C 1343.640625 1342.449219 1343.59375 1343.367188 1343.59375 1344.359375 C 1343.59375 1361.785156 1342.574219 1375.121094 1341.726562 1393.691406 C 1346.09375 1395.421875 1351.804688 1395.183594 1358.078125 1388.476562 C 1370.695312 1375.007812 1384.277344 1368.605469 1397.792969 1373.101562 C 1393.941406 1362.640625 1393.316406 1352.089844 1393.695312 1341.492188 Z M 1498.445312 936.269531 C 1498.445312 936.238281 1498.460938 936.207031 1498.460938 936.179688 C 1498.371094 933.949219 1497.828125 928.054688 1497.09375 920.6875 L 1497.089844 920.679688 C 1495.152344 901.28125 1491.867188 871.65625 1491.863281 871.652344 L 1476.148438 730.964844 L 1471.625 654.710938 L 1430.242188 656.386719 C 1426.296875 688.695312 1423.199219 718.582031 1423.199219 732.917969 C 1423.199219 749.769531 1424.59375 773.632812 1425.859375 795.496094 C 1435 828.171875 1445.761719 866.523438 1449.101562 878.425781 C 1448.480469 879.296875 1447.929688 880.164062 1447.46875 881.015625 C 1441.382812 892.246094 1440.390625 899.660156 1442.375 916.457031 C 1441.820312 916.222656 1441.234375 916.046875 1440.617188 915.976562 C 1436.585938 915.484375 1433.074219 918.722656 1433.242188 922.777344 L 1434.097656 943.964844 C 1434.179688 945.933594 1435.132812 947.761719 1436.707031 948.953125 L 1453.445312 961.613281 C 1453.445312 961.613281 1453.445312 961.609375 1453.445312 961.609375 L 1457.796875 964.898438 C 1460.144531 966.675781 1463.386719 966.675781 1465.734375 964.902344 L 1495.867188 942.160156 C 1497.59375 940.859375 1498.570312 938.792969 1498.480469 936.636719 Z M 1359.035156 511.796875 L 1348.253906 445.546875 C 1351.929688 442.726562 1354.46875 438.859375 1355.246094 434.285156 C 1357.097656 423.382812 1351.792969 413.382812 1343.390625 411.953125 C 1334.988281 410.523438 1333.058594 418.457031 1332.128906 423.921875 L 1331.898438 425.277344 C 1328.113281 425.113281 1324.929688 425.179688 1324.929688 425.179688 C 1320.714844 412.722656 1326.492188 392.910156 1324.28125 377.964844 C 1281.332031 369.460938 1265.628906 387.488281 1247.222656 380.007812 C 1245.738281 385.175781 1245 390.652344 1245.207031 396.316406 L 1247.203125 450.675781 C 1247.886719 468.390625 1259.578125 484.621094 1277.488281 490.113281 C 1278.460938 490.414062 1279.4375 490.625 1280.414062 490.851562 L 1282.5 517.867188 C 1284.1875 538.1875 1301.367188 553.75 1322.96875 551.910156 C 1344.574219 550.078125 1360.71875 532.113281 1359.035156 511.796875 Z M 1359.035156 511.796875 " fill-opacity="1" fill-rule="nonzero"/><path fill="#ec5d67" d="M 503.738281 1239.484375 L 551.558594 1205.203125 C 551.558594 1205.203125 563.671875 1240.972656 579.675781 1252.144531 C 600.886719 1266.957031 619.894531 1252.675781 631.882812 1247.386719 C 660.726562 1234.65625 676.09375 1247.476562 676.09375 1247.476562 L 551.292969 1336.949219 Z M 374.808594 1381.675781 L 525.863281 1409.308594 C 525.863281 1409.308594 524.40625 1389.34375 495.21875 1377.4375 C 483.082031 1372.488281 463.941406 1367.421875 450.414062 1343.183594 C 440.5 1325.414062 430.679688 1286.308594 430.679688 1286.308594 L 376.203125 1277.429688 Z M 306.242188 710.226562 L 324.957031 701.769531 L 332.800781 698.210938 L 379.972656 674.523438 C 384.910156 672.042969 389.257812 668.519531 392.703125 664.199219 L 521.953125 511.738281 L 471.972656 463.476562 L 349.292969 602.5625 L 317.84375 613.625 L 302.761719 618.652344 L 296.429688 620.515625 C 295.132812 616.136719 293.679688 612.21875 292.039062 608.933594 C 286 596.855469 272.949219 598.253906 250.527344 600.609375 C 229.886719 602.777344 177.417969 596.867188 150.269531 638.089844 C 93.039062 725.003906 68.828125 886.449219 68.828125 886.449219 C 169.230469 935.261719 239.082031 881.757812 239.082031 881.757812 L 293.019531 851.320312 L 296.53125 833.109375 L 420.730469 819.082031 L 432.796875 764.785156 L 305.914062 761.539062 C 305.921875 761.539062 306.839844 738.777344 306.242188 710.226562 Z M 1477.984375 654.449219 C 1477.171875 641.152344 1476.214844 627.871094 1475.207031 614.585938 C 1473.851562 598.910156 1472.542969 583.234375 1470.585938 567.597656 C 1468.746094 552.863281 1459.34375 540.957031 1446.78125 535.175781 C 1446.800781 535.0625 1446.808594 534.988281 1446.808594 534.988281 C 1416.886719 522.066406 1387.664062 513.640625 1358.695312 509.722656 L 1359.035156 511.796875 C 1360.71875 532.113281 1344.574219 550.078125 1322.96875 551.914062 C 1301.367188 553.75 1284.1875 538.1875 1282.5 517.871094 L 1281.898438 510.042969 C 1256.632812 513.707031 1231.269531 520.882812 1205.503906 531.636719 C 1205.460938 531.652344 1205.421875 531.683594 1205.375 531.699219 C 1195.53125 535.113281 1187.042969 542.34375 1182.339844 552.585938 L 1147.050781 622.496094 L 1208.925781 655.726562 C 1211.910156 688.285156 1214.171875 718.484375 1214.171875 732.914062 C 1214.171875 763.71875 1209.5 817.984375 1209.5 840.53125 C 1209.5 846.523438 1213.871094 851.59375 1219.785156 852.550781 C 1283.460938 862.859375 1355.675781 863.164062 1417.671875 852.632812 C 1423.550781 851.636719 1427.871094 846.585938 1427.871094 840.625 C 1427.871094 818.136719 1423.195312 763.761719 1423.195312 732.914062 C 1423.195312 718.582031 1426.292969 688.691406 1430.238281 656.382812 Z M 1266.636719 1307.980469 C 1267.144531 1306.097656 1265.714844 1304.238281 1263.765625 1304.238281 L 1197.824219 1304.238281 C 1196.234375 1304.238281 1194.925781 1305.492188 1194.855469 1307.082031 L 1193.46875 1338.394531 C 1193.390625 1340.085938 1194.738281 1341.496094 1196.433594 1341.496094 L 1254.730469 1341.496094 C 1256.03125 1341.496094 1257.179688 1340.660156 1257.566406 1339.417969 C 1260.210938 1330.898438 1263.359375 1320.21875 1266.636719 1307.980469 M 1408.328125 1307.71875 C 1408.636719 1305.90625 1407.238281 1304.242188 1405.398438 1304.242188 L 1340.707031 1304.242188 C 1339.027344 1304.242188 1337.683594 1305.628906 1337.738281 1307.308594 L 1338.734375 1338.621094 C 1338.785156 1340.226562 1340.101562 1341.496094 1341.703125 1341.496094 L 1399.988281 1341.496094 C 1401.429688 1341.496094 1402.660156 1340.472656 1402.910156 1339.054688 C 1404.449219 1330.265625 1406.320312 1319.457031 1408.328125 1307.71875 M 807.347656 246.8125 C 807.347656 262.496094 794.636719 275.207031 778.953125 275.207031 C 763.269531 275.207031 750.558594 262.496094 750.558594 246.8125 C 750.558594 231.128906 763.269531 218.417969 778.953125 218.417969 C 794.636719 218.417969 807.347656 231.128906 807.347656 246.8125 Z M 674.773438 748.578125 L 674.773438 793.015625 L 723.019531 793.015625 L 723.019531 748.578125 Z M 858.925781 485.59375 L 795.769531 485.59375 L 795.769531 527.824219 L 858.925781 527.824219 Z M 858.925781 485.59375 " fill-opacity="1" fill-rule="nonzero"/><path fill="#293237" d="M 191.246094 735.210938 C 190.269531 734.964844 189.308594 735.582031 189.074219 736.546875 C 188.34375 739.628906 171.414062 812.195312 189.640625 828.144531 C 196.574219 834.210938 233.699219 835.429688 262.480469 835.429688 C 279.140625 835.429688 293.007812 835.023438 296.597656 834.902344 C 297.589844 834.871094 298.371094 834.039062 298.339844 833.039062 C 298.304688 832.0625 297.507812 831.300781 296.539062 831.300781 C 296.519531 831.300781 296.496094 831.300781 296.476562 831.300781 C 258.597656 832.539062 199.488281 831.972656 192.011719 825.429688 C 175.40625 810.898438 192.402344 738.109375 192.578125 737.375 C 192.808594 736.410156 192.210938 735.441406 191.246094 735.210938 Z M 191.246094 735.210938 " fill-opacity="1" fill-rule="nonzero"/><path fill="#293237" d="M 538.035156 458.800781 C 538.105469 458.808594 538.175781 458.8125 538.246094 458.8125 C 538.644531 458.8125 539.007812 458.660156 539.3125 458.433594 C 539.261719 460.972656 539.714844 463.226562 541.015625 464.789062 C 542.574219 466.660156 544.082031 467.179688 545.285156 467.179688 C 545.671875 467.179688 546.023438 467.125 546.339844 467.046875 C 551.644531 465.691406 554.402344 453.6875 555.121094 450.042969 C 555.316406 449.066406 554.679688 448.117188 553.703125 447.925781 C 552.742188 447.714844 551.78125 448.367188 551.585938 449.347656 C 550.320312 455.773438 547.546875 463.019531 545.445312 463.554688 C 544.90625 463.660156 544.167969 462.941406 543.785156 462.480469 C 540.683594 458.765625 545.660156 445.59375 549.523438 438.167969 C 549.984375 437.289062 549.636719 436.199219 548.753906 435.742188 C 547.890625 435.292969 546.789062 435.621094 546.328125 436.507812 C 545.542969 438.015625 540.632812 447.695312 539.515625 455.769531 C 539.238281 455.480469 538.875 455.265625 538.449219 455.214844 C 536.515625 454.992188 535.269531 454.238281 534.523438 452.859375 C 531.707031 447.613281 536.753906 435.265625 538.9375 430.949219 C 539.382812 430.0625 539.027344 428.976562 538.140625 428.527344 C 537.261719 428.085938 536.167969 428.433594 535.71875 429.324219 C 534.832031 431.078125 527.140625 446.726562 531.351562 454.5625 C 532.648438 456.972656 534.957031 458.445312 538.035156 458.800781 Z M 538.035156 458.800781 " fill-opacity="1" fill-rule="nonzero"/><path fill="#293237" d="M 1211.066406 675.050781 C 1211.132812 675.050781 1211.195312 675.046875 1211.253906 675.039062 C 1212.246094 674.941406 1212.964844 674.058594 1212.863281 673.066406 L 1206.53125 611.472656 C 1206.433594 610.480469 1205.476562 609.734375 1204.558594 609.863281 C 1203.566406 609.964844 1202.847656 610.847656 1202.949219 611.839844 L 1209.28125 673.433594 C 1209.375 674.363281 1210.15625 675.050781 1211.066406 675.050781 Z M 1211.066406 675.050781 " fill-opacity="1" fill-rule="nonzero"/><path fill="#293237" d="M 516.105469 467.964844 C 515.722656 468.886719 516.152344 469.941406 517.070312 470.324219 C 517.300781 470.417969 517.535156 470.464844 517.765625 470.464844 C 518.46875 470.464844 519.140625 470.050781 519.429688 469.359375 C 526.296875 452.980469 516.582031 440.421875 516.164062 439.890625 C 515.550781 439.113281 514.421875 438.980469 513.640625 439.597656 C 512.859375 440.210938 512.726562 441.34375 513.339844 442.125 C 513.699219 442.589844 522.128906 453.601562 516.105469 467.964844 Z M 516.105469 467.964844 " fill-opacity="1" fill-rule="nonzero"/><path fill="#293237" d="M 156.871094 702.496094 C 171.738281 712.824219 204.308594 720.585938 225.851562 720.0625 C 280.585938 718.730469 297.992188 706.378906 306.730469 679.886719 C 312.660156 661.898438 303.929688 642.460938 295.152344 631.539062 C 286.378906 620.621094 307.902344 606.429688 290.1875 590.25 C 277.375 578.542969 295.570312 565.777344 289.109375 560.847656 C 285.019531 557.726562 279.289062 549.859375 284.882812 542.265625 C 289.070312 536.582031 294.660156 538.652344 297.640625 541.210938 C 300.46875 543.640625 301.925781 548.074219 301.925781 548.074219 C 311.570312 541.5625 308.273438 526.84375 308.273438 526.84375 C 333.746094 494.902344 306.117188 477.417969 292.800781 474.808594 C 228.03125 462.121094 203.878906 517.488281 204.679688 548.558594 C 205.269531 571.609375 162.402344 564.707031 162.4375 601.695312 C 162.46875 637.421875 150.808594 632.546875 142.550781 638.769531 C 120.585938 655.320312 130.691406 684.300781 156.871094 702.496094 Z M 156.871094 702.496094 " fill-opacity="1" fill-rule="nonzero"/><path fill="#293237" d="M 1237.449219 855.089844 C 1231.507812 854.316406 1225.601562 853.488281 1219.789062 852.546875 C 1217.699219 852.210938 1215.820312 851.335938 1214.242188 850.113281 L 1213.332031 874.878906 C 1213.429688 874.859375 1213.519531 874.820312 1213.621094 874.820312 C 1227.253906 874.820312 1234.179688 863.480469 1237.449219 855.089844 Z M 1237.449219 855.089844 " fill-opacity="1" fill-rule="nonzero"/><path fill="#293237" d="M 1324.285156 377.96875 C 1326.492188 392.914062 1320.71875 412.726562 1324.933594 425.183594 C 1324.933594 425.183594 1328.117188 425.117188 1331.902344 425.28125 L 1332.132812 423.925781 C 1333.0625 418.464844 1334.992188 410.53125 1343.394531 411.957031 C 1348.554688 412.835938 1352.53125 416.964844 1354.410156 422.53125 C 1363.828125 397.394531 1355.785156 368.117188 1332.9375 351.703125 C 1305.601562 332.070312 1259.46875 340.398438 1245.179688 379.152344 C 1264.515625 388.949219 1279.742188 369.148438 1324.285156 377.96875 Z M 1324.285156 377.96875 " fill-opacity="1" fill-rule="nonzero"/><path fill="#293237" d="M 1430.015625 657.992188 C 1430.101562 658 1430.183594 658.007812 1430.265625 658.007812 C 1431.152344 658.007812 1431.921875 657.351562 1432.046875 656.453125 L 1440.535156 594.527344 C 1440.671875 593.539062 1439.980469 592.632812 1438.996094 592.5 C 1438.019531 592.355469 1437.101562 593.046875 1436.96875 594.035156 L 1428.480469 655.960938 C 1428.339844 656.945312 1429.03125 657.855469 1430.015625 657.992188 Z M 1430.015625 657.992188 " fill-opacity="1" fill-rule="nonzero"/><path fill="#293237" d="M 1449.121094 880.285156 C 1449.296875 880.285156 1449.476562 880.257812 1449.648438 880.207031 L 1455.726562 878.347656 C 1456.679688 878.058594 1457.210938 877.050781 1456.921875 876.097656 C 1456.632812 875.148438 1455.636719 874.609375 1454.671875 874.902344 L 1448.59375 876.761719 C 1447.640625 877.050781 1447.109375 878.058594 1447.398438 879.011719 C 1447.636719 879.78125 1448.351562 880.285156 1449.121094 880.285156 Z M 1449.121094 880.285156 " fill-opacity="1" fill-rule="nonzero"/><path fill="#293237" d="M 1421.898438 874.820312 C 1421.914062 874.820312 1421.921875 874.828125 1421.9375 874.828125 L 1422.40625 850.714844 C 1421.007812 851.648438 1419.425781 852.335938 1417.675781 852.628906 C 1411.308594 853.710938 1404.8125 854.652344 1398.246094 855.503906 C 1401.589844 863.847656 1408.527344 874.820312 1421.898438 874.820312 Z M 1421.898438 874.820312 " fill-opacity="1" fill-rule="nonzero"/><g clip-path="url(#921b553883)"><path fill="#293237" d="M 1427.742188 1408.582031 C 1427.746094 1408.582031 1427.753906 1408.582031 1427.757812 1408.585938 C 1427.433594 1408.289062 1427.097656 1408 1426.769531 1407.703125 C 1424.042969 1405.246094 1421.25 1402.808594 1418.480469 1400.320312 C 1417.835938 1399.742188 1417.195312 1399.15625 1416.558594 1398.570312 C 1415.875 1397.941406 1415.203125 1397.3125 1414.527344 1396.675781 C 1413.847656 1396.027344 1413.175781 1395.367188 1412.511719 1394.707031 C 1411.902344 1394.105469 1411.300781 1393.5 1410.707031 1392.882812 C 1410.023438 1392.175781 1409.371094 1391.445312 1408.71875 1390.714844 C 1408.175781 1390.113281 1407.632812 1389.511719 1407.109375 1388.890625 C 1406.445312 1388.097656 1405.816406 1387.269531 1405.191406 1386.445312 C 1404.734375 1385.847656 1404.265625 1385.265625 1403.832031 1384.652344 C 1403.164062 1383.707031 1402.5625 1382.714844 1401.957031 1381.71875 C 1401.625 1381.175781 1401.265625 1380.65625 1400.953125 1380.101562 C 1400.085938 1378.546875 1399.292969 1376.941406 1398.597656 1375.257812 C 1398.585938 1375.234375 1398.570312 1375.210938 1398.5625 1375.191406 C 1398.277344 1374.496094 1398.042969 1373.800781 1397.785156 1373.101562 C 1394.417969 1371.980469 1391.046875 1371.539062 1387.6875 1371.710938 C 1385.992188 1371.800781 1384.296875 1372.042969 1382.605469 1372.441406 C 1374.21875 1374.402344 1365.953125 1380.058594 1358.070312 1388.476562 C 1353.28125 1393.59375 1348.828125 1394.929688 1345.042969 1394.515625 C 1343.871094 1394.386719 1342.753906 1394.097656 1341.71875 1393.691406 C 1341.65625 1395.082031 1341.59375 1396.507812 1341.535156 1397.964844 C 1341.511719 1398.503906 1341.492188 1399.070312 1341.46875 1399.621094 C 1341.4375 1400.445312 1341.40625 1401.269531 1341.371094 1402.113281 C 1341.339844 1403.011719 1341.304688 1403.933594 1341.273438 1404.855469 C 1341.253906 1405.390625 1341.234375 1405.921875 1341.21875 1406.464844 C 1341.179688 1407.566406 1341.144531 1408.691406 1341.109375 1409.835938 C 1341.097656 1410.160156 1341.089844 1410.492188 1341.082031 1410.820312 C 1340.84375 1418.910156 1340.667969 1428 1340.625 1438.617188 C 1340.613281 1441.625 1343.042969 1444.085938 1346.050781 1444.085938 L 1441.351562 1444.085938 C 1444.667969 1444.085938 1447.265625 1441.121094 1446.730469 1437.847656 C 1444.71875 1425.503906 1436.789062 1416.828125 1427.742188 1408.582031 Z M 1427.742188 1408.582031 " fill-opacity="1" fill-rule="nonzero"/></g><path fill="#293237" d="M 1254.730469 1341.492188 L 1196.433594 1341.492188 C 1195.800781 1341.492188 1195.25 1341.25 1194.773438 1340.914062 L 1194.746094 1341.492188 L 1255.914062 1341.492188 C 1255.945312 1341.390625 1255.976562 1341.273438 1256.011719 1341.167969 C 1255.617188 1341.359375 1255.191406 1341.492188 1254.730469 1341.492188 Z M 1254.730469 1341.492188 " fill-opacity="1" fill-rule="nonzero"/><path fill="#293237" d="M 1189.675781 1374.855469 C 1179.039062 1388.144531 1151.183594 1405.066406 1129.59375 1415.554688 L 1138.972656 1430.199219 L 1251.492188 1430.199219 C 1251.769531 1418.625 1251.097656 1401.710938 1246.292969 1386.9375 C 1232.476562 1393.988281 1207.910156 1398.921875 1189.675781 1374.855469 Z M 1189.675781 1374.855469 " fill-opacity="1" fill-rule="nonzero"/><path fill="#293237" d="M 1474.78125 902.199219 C 1473.792969 902.167969 1472.917969 902.84375 1472.832031 903.835938 L 1471.148438 923.355469 L 1460.226562 960.0625 C 1460.007812 960.804688 1459.429688 961.390625 1458.683594 961.628906 C 1457.972656 961.859375 1457.242188 961.726562 1456.671875 961.285156 C 1454.285156 959.414062 1452.910156 956.320312 1452.578125 952.085938 C 1451.640625 940.109375 1452.246094 925.871094 1452.253906 925.726562 C 1452.285156 924.992188 1451.855469 924.300781 1451.183594 924 C 1450.992188 923.917969 1446.535156 921.828125 1444.65625 915.410156 C 1444.378906 914.457031 1443.386719 913.898438 1442.421875 914.1875 C 1441.46875 914.464844 1440.917969 915.46875 1441.199219 916.421875 C 1442.972656 922.484375 1446.726562 925.503906 1448.617188 926.679688 C 1448.492188 930.3125 1448.191406 942.128906 1448.988281 952.367188 C 1449.5 958.941406 1452.238281 962.386719 1454.449219 964.121094 C 1455.472656 964.921875 1456.726562 965.339844 1457.996094 965.339844 C 1458.59375 965.339844 1459.195312 965.25 1459.78125 965.0625 C 1461.65625 964.460938 1463.121094 962.976562 1463.679688 961.089844 L 1474.652344 924.203125 C 1474.6875 924.089844 1474.710938 923.96875 1474.722656 923.84375 L 1476.421875 904.144531 C 1476.503906 903.152344 1475.773438 902.28125 1474.78125 902.199219 Z M 1474.78125 902.199219 " fill-opacity="1" fill-rule="nonzero"/><g clip-path="url(#fa73527736)"><path fill="#293237" d="M 1129.59375 1415.554688 C 1126.3125 1417.148438 1123.167969 1418.59375 1120.257812 1419.859375 C 1107.460938 1425.40625 1104.230469 1431.800781 1103.40625 1437.957031 C 1102.976562 1441.203125 1105.523438 1444.089844 1108.800781 1444.089844 L 1245.660156 1444.089844 C 1248.5 1444.089844 1250.863281 1441.90625 1251.070312 1439.074219 C 1251.238281 1436.757812 1251.410156 1433.714844 1251.492188 1430.199219 L 1138.972656 1430.199219 Z M 1129.59375 1415.554688 " fill-opacity="1" fill-rule="nonzero"/></g><path fill="#293237" d="M 461.753906 1153.886719 C 461.765625 1154.882812 460.96875 1155.699219 459.972656 1155.710938 C 459.964844 1155.710938 459.960938 1155.710938 459.953125 1155.710938 C 458.96875 1155.710938 458.160156 1154.917969 458.152344 1153.929688 L 456.140625 976.964844 C 456.128906 975.96875 456.925781 975.152344 457.921875 975.140625 C 458.15625 975.167969 458.375 975.226562 458.574219 975.308594 L 458.386719 874.824219 C 458.386719 874.824219 466.902344 822.015625 396.332031 834.625 C 373.316406 838.738281 335.0625 844.742188 293.070312 851.09375 L 293.027344 851.320312 L 239.089844 881.757812 C 239.089844 881.757812 175.125 930.671875 81.660156 892.15625 C 76.683594 925.257812 71.476562 1024.753906 190.9375 1016.222656 C 190.9375 1016.222656 209.152344 1014.277344 236.675781 1007.824219 L 238.234375 1007.859375 C 260.152344 1002.539062 310.050781 988.960938 340.335938 969.328125 C 341.171875 968.800781 342.289062 969.023438 342.832031 969.859375 C 343.367188 970.695312 343.132812 971.8125 342.300781 972.351562 C 316.453125 989.109375 276.683594 1001.476562 251.535156 1008.179688 L 336.585938 1010.257812 L 352.242188 1035.367188 L 363.84375 1311.789062 L 459.238281 1323.714844 L 459.015625 1206.636719 L 508.636719 1286.234375 L 581.886719 1231.71875 L 459.777344 979.855469 Z M 461.753906 1153.886719 " fill-opacity="1" fill-rule="nonzero"/><path fill="#293237" d="M 305.925781 763.339844 C 306.890625 763.339844 307.683594 762.578125 307.726562 761.613281 C 307.769531 760.621094 306.992188 759.78125 306.003906 759.738281 L 261.953125 757.957031 C 260.972656 757.984375 260.121094 758.691406 260.078125 759.683594 C 260.035156 760.675781 260.8125 761.515625 261.800781 761.558594 L 305.851562 763.339844 C 305.875 763.339844 305.902344 763.339844 305.925781 763.339844 Z M 305.925781 763.339844 " fill-opacity="1" fill-rule="nonzero"/><path fill="#293237" d="M 1050.175781 611.015625 C 1050.203125 610.992188 1050.238281 610.980469 1050.265625 610.960938 C 1052.117188 609.621094 1053.292969 607.589844 1053.664062 605.085938 C 1054.0625 602.40625 1053.578125 597.53125 1045.847656 595.003906 C 1044.90625 594.703125 1043.882812 595.210938 1043.574219 596.15625 C 1043.265625 597.097656 1043.785156 598.121094 1044.726562 598.429688 C 1050.71875 600.386719 1050.25 603.527344 1050.101562 604.554688 C 1049.867188 606.097656 1049.214844 607.269531 1048.148438 608.042969 C 1047.164062 608.757812 1045.859375 609.058594 1044.527344 608.914062 C 1044.492188 608.910156 1044.46875 608.898438 1044.4375 608.898438 C 1044.421875 608.898438 1044.410156 608.902344 1044.398438 608.902344 C 1044.308594 608.890625 1044.214844 608.894531 1044.125 608.882812 C 1041.734375 608.476562 1038.035156 607.914062 1034.28125 607.359375 C 1033.304688 607.265625 1032.378906 607.890625 1032.234375 608.878906 C 1032.089844 609.863281 1032.765625 610.777344 1033.753906 610.925781 C 1037.480469 611.472656 1041.152344 612.03125 1043.523438 612.433594 C 1043.753906 612.472656 1043.980469 612.46875 1044.210938 612.492188 C 1044.214844 612.492188 1044.214844 612.496094 1044.21875 612.496094 C 1046.480469 612.632812 1048.488281 613.742188 1049.59375 615.457031 C 1050.601562 617.015625 1050.765625 618.882812 1050.070312 620.722656 C 1049.15625 623.109375 1046.910156 624.097656 1043.355469 623.648438 C 1043.25 623.632812 1043.097656 623.621094 1042.980469 623.609375 C 1042.960938 623.609375 1042.949219 623.605469 1042.929688 623.605469 C 1042.925781 623.605469 1042.917969 623.605469 1042.914062 623.605469 C 1041.179688 623.414062 1038.445312 623.269531 1034.0625 623.140625 C 1033 623.234375 1032.238281 623.898438 1032.207031 624.890625 C 1032.179688 625.882812 1032.964844 626.714844 1033.957031 626.746094 C 1036.765625 626.824219 1040.695312 626.964844 1042.769531 627.214844 C 1044.535156 627.347656 1046.0625 628.15625 1046.96875 629.453125 C 1047.792969 630.636719 1048.003906 632.105469 1047.5625 633.59375 C 1046.894531 635.855469 1044.828125 637.324219 1042.261719 637.289062 L 1033.914062 637.753906 C 1032.917969 637.808594 1032.15625 638.65625 1032.210938 639.648438 C 1032.265625 640.609375 1033.058594 641.351562 1034.007812 641.351562 C 1034.042969 641.351562 1034.078125 641.351562 1034.105469 641.347656 L 1037.320312 641.167969 C 1037.453125 641.1875 1037.582031 641.222656 1037.722656 641.210938 C 1039.347656 641.035156 1040.886719 641.605469 1041.996094 642.789062 C 1043.101562 643.96875 1043.574219 645.558594 1043.300781 647.136719 C 1042.898438 649.429688 1041 651.148438 1038.691406 651.324219 C 1037.699219 651.402344 1036.957031 652.269531 1037.027344 653.261719 C 1037.105469 654.207031 1037.890625 654.925781 1038.824219 654.925781 C 1038.875 654.925781 1038.917969 654.925781 1038.964844 654.921875 C 1042.917969 654.617188 1046.160156 651.679688 1046.847656 647.761719 C 1047.304688 645.148438 1046.542969 642.5625 1044.808594 640.578125 C 1047.734375 639.808594 1050.125 637.628906 1051.015625 634.621094 C 1051.769531 632.058594 1051.386719 629.496094 1049.917969 627.394531 C 1049.683594 627.054688 1049.378906 626.773438 1049.097656 626.476562 C 1051.082031 625.617188 1052.605469 624.167969 1053.421875 622.007812 C 1054.527344 619.113281 1054.230469 616.019531 1052.609375 613.511719 C 1051.992188 612.515625 1051.125 611.714844 1050.175781 611.015625 Z M 1050.175781 611.015625 " fill-opacity="1" fill-rule="nonzero"/><path fill="#293237" d="M 1086 639.261719 C 1085.023438 638.988281 1084.042969 639.546875 1083.773438 640.503906 C 1081.054688 650.078125 1076.425781 655.707031 1070.019531 657.230469 C 1069.050781 657.457031 1068.453125 658.429688 1068.683594 659.398438 C 1068.882812 660.226562 1069.621094 660.785156 1070.433594 660.785156 C 1070.570312 660.785156 1070.710938 660.773438 1070.847656 660.738281 C 1078.625 658.886719 1084.136719 652.414062 1087.242188 641.492188 C 1087.511719 640.535156 1086.957031 639.535156 1086 639.261719 Z M 1086 639.261719 " fill-opacity="1" fill-rule="nonzero"/><path fill="#293237" d="M 1399.988281 1341.492188 L 1341.703125 1341.492188 C 1341.15625 1341.492188 1340.671875 1341.308594 1340.226562 1341.042969 L 1340.242188 1341.492188 L 1401.285156 1341.492188 C 1401.300781 1341.375 1401.328125 1341.242188 1401.34375 1341.121094 C 1400.929688 1341.339844 1400.484375 1341.492188 1399.988281 1341.492188 Z M 1399.988281 1341.492188 " fill-opacity="1" fill-rule="nonzero"/><path fill="#293237" d="M 1417.546875 1098.375 L 1421.863281 878.421875 C 1405.988281 878.398438 1398.171875 865.308594 1394.601562 855.988281 C 1345.265625 862.058594 1291.269531 861.78125 1241.078125 855.558594 C 1237.589844 864.90625 1229.765625 878.425781 1213.617188 878.425781 C 1213.46875 878.425781 1213.335938 878.375 1213.199219 878.339844 L 1205.199219 1096.023438 L 1196.308594 1304.710938 C 1196.757812 1304.4375 1197.253906 1304.242188 1197.8125 1304.242188 L 1263.757812 1304.242188 C 1264.769531 1304.242188 1265.617188 1304.75 1266.152344 1305.496094 C 1280.269531 1252.417969 1296.929688 1171.734375 1285.039062 1110.070312 L 1318.019531 886.570312 L 1298.386719 885.332031 C 1297.394531 885.265625 1296.640625 884.414062 1296.699219 883.421875 C 1296.765625 882.433594 1297.488281 881.65625 1298.609375 881.734375 L 1326.410156 883.488281 C 1327.402344 883.550781 1328.15625 884.40625 1328.097656 885.394531 C 1328.039062 886.328125 1327.273438 887.046875 1326.351562 887.074219 L 1339.105469 1304.769531 C 1339.570312 1304.464844 1340.097656 1304.242188 1340.695312 1304.242188 L 1405.386719 1304.242188 C 1406.148438 1304.242188 1406.792969 1304.574219 1407.3125 1305.035156 C 1412.078125 1275.851562 1417.511719 1241.503906 1420.640625 1218.023438 C 1427.113281 1169.578125 1417.546875 1098.375 1417.546875 1098.375 Z M 1417.546875 1098.375 " fill-opacity="1" fill-rule="nonzero"/></svg>