<svg xmlns="http://www.w3.org/2000/svg" xmlns:xlink="http://www.w3.org/1999/xlink" width="2000" zoomAndPan="magnify" viewBox="0 0 1500 1499.999933" height="2000" preserveAspectRatio="xMidYMid meet" version="1.0"><path fill="#084c94" d="M 775 75 L 1000 75 L 1000 167.96875 C 1000 179.101562 1007.324219 188.867188 1018.066406 191.992188 C 1048.925781 200.878906 1078.222656 212.988281 1105.175781 227.832031 C 1114.84375 233.203125 1127.050781 231.542969 1134.960938 223.632812 L 1200.488281 158.105469 L 1341.894531 299.511719 L 1276.367188 365.039062 C 1268.457031 372.949219 1266.699219 385.15625 1272.167969 394.824219 C 1287.011719 421.777344 1299.121094 451.074219 1308.007812 481.933594 C 1311.132812 492.675781 1320.898438 500 1332.03125 500 L 1450 500 C 1463.769531 500 1475 488.769531 1475 475 C 1475 461.230469 1463.769531 450 1450 450 L 1350.488281 450 C 1343.261719 428.320312 1334.667969 407.421875 1324.707031 387.402344 L 1394.921875 317.1875 C 1404.785156 307.421875 1404.785156 291.601562 1394.921875 281.835938 L 1218.164062 105.078125 C 1208.398438 95.214844 1192.578125 95.214844 1182.8125 105.078125 L 1112.597656 175.292969 C 1092.578125 165.332031 1071.679688 156.738281 1050 149.511719 L 1050 50 C 1050 36.230469 1038.769531 25 1025 25 L 775 25 C 761.230469 25 750 36.230469 750 50 C 750 63.769531 761.230469 75 775 75 " fill-opacity="1" fill-rule="nonzero"/><path fill="#084c94" d="M 982.324219 742.675781 C 987.207031 747.558594 993.554688 750 1000 750 C 1006.445312 750 1012.792969 747.558594 1017.675781 742.675781 C 1027.441406 732.910156 1027.441406 717.089844 1017.675781 707.324219 L 788.867188 478.613281 C 779.101562 468.847656 763.28125 468.847656 753.613281 478.613281 C 743.847656 488.28125 743.847656 504.101562 753.613281 513.867188 L 982.324219 742.675781 " fill-opacity="1" fill-rule="nonzero"/><path fill="#084c94" d="M 525 1325 C 525 1311.230469 536.230469 1300 550 1300 C 563.769531 1300 575 1311.230469 575 1325 C 575 1338.769531 563.769531 1350 550 1350 C 536.230469 1350 525 1338.769531 525 1325 Z M 625 1325 C 625 1283.59375 591.40625 1250 550 1250 C 508.59375 1250 475 1283.59375 475 1325 C 475 1366.40625 508.59375 1400 550 1400 C 591.40625 1400 625 1366.40625 625 1325 " fill-opacity="1" fill-rule="nonzero"/><path fill="#084c94" d="M 1200 1450 C 1131.054688 1450 1075 1393.945312 1075 1325 C 1075 1256.054688 1131.054688 1200 1200 1200 C 1268.945312 1200 1325 1256.054688 1325 1325 C 1325 1393.945312 1268.945312 1450 1200 1450 Z M 458.105469 900.488281 L 523.632812 834.960938 C 531.542969 827.050781 533.300781 814.84375 527.832031 805.175781 C 512.988281 778.222656 500.878906 748.925781 491.992188 718.066406 C 488.867188 707.324219 479.101562 700 467.96875 700 L 375 700 L 375 500 L 421.875 500 C 455.46875 531.542969 498.339844 547.460938 541.40625 547.460938 C 561.230469 547.460938 580.957031 543.847656 599.902344 537.207031 L 912.109375 849.21875 C 908.105469 849.414062 904.101562 850 900 850 C 788.574219 850 689.648438 775.292969 659.375 668.164062 C 655.566406 654.882812 641.699219 647.167969 628.515625 650.976562 C 615.234375 654.6875 607.519531 668.457031 611.328125 681.835938 C 631.25 752.441406 676.171875 811.230469 734.863281 850 L 625 850 C 615.527344 850 606.933594 855.371094 602.636719 863.769531 L 542.1875 984.667969 Z M 771.191406 390.136719 C 777.34375 384.082031 782.617188 377.636719 787.597656 370.996094 L 1124.902344 708.496094 C 1094.628906 771.289062 1039.355469 818.652344 972.363281 838.769531 L 645.996094 512.597656 C 652.636719 507.617188 659.082031 502.34375 665.136719 496.191406 Z M 1150 600 C 1150 619.335938 1147.65625 638.085938 1143.457031 656.347656 L 843.847656 356.542969 C 862.109375 352.34375 880.761719 350 900 350 C 1037.890625 350 1150 462.109375 1150 600 Z M 1263.867188 1050 L 565.429688 1050 L 640.429688 900 L 900 900 L 900 975 C 900 988.769531 911.230469 1000 925 1000 C 938.769531 1000 950 988.769531 950 975 L 950 900 L 1207.617188 900 Z M 250 1200 C 250 1213.769531 238.769531 1225 225 1225 L 200 1225 L 200 1190.429688 C 200 1178.710938 208.300781 1168.457031 219.726562 1166.015625 L 250 1159.472656 Z M 1484.863281 1127.050781 L 1319.628906 1056.25 L 1302.539062 1010.546875 L 1394.921875 918.164062 C 1404.785156 908.398438 1404.785156 892.578125 1394.921875 882.8125 L 1324.707031 812.597656 C 1334.667969 792.578125 1343.261719 771.679688 1350.488281 750 L 1450 750 C 1463.769531 750 1475 738.769531 1475 725 L 1475 575 C 1475 561.230469 1463.769531 550 1450 550 C 1436.230469 550 1425 561.230469 1425 575 L 1425 700 L 1332.03125 700 C 1320.898438 700 1311.132812 707.324219 1308.007812 718.066406 C 1299.121094 748.925781 1287.011719 778.222656 1272.167969 805.175781 C 1266.699219 814.84375 1268.457031 827.050781 1276.367188 834.960938 L 1341.894531 900.488281 L 1283.300781 959.179688 L 1248.4375 866.210938 C 1244.726562 856.445312 1235.449219 850 1225 850 L 1065.722656 850 C 1115.527344 816.992188 1155.273438 769.53125 1178.125 712.695312 C 1192.675781 677.246094 1200 639.355469 1200 600 C 1200 434.570312 1065.429688 300 900 300 C 871.191406 300 843.164062 304.003906 816.308594 311.914062 C 831.933594 253.417969 816.992188 188.476562 771.191406 142.675781 L 665.136719 36.621094 C 641.601562 12.988281 610.15625 0 576.757812 0 C 543.359375 0 512.011719 12.988281 488.378906 36.621094 L 453.027344 71.972656 C 443.261719 81.738281 443.261719 97.558594 453.027344 107.324219 L 500 154.296875 C 509.765625 164.0625 525.585938 164.0625 535.351562 154.296875 C 545.117188 144.53125 545.117188 128.710938 535.351562 118.945312 L 506.054688 89.648438 L 523.730469 71.972656 C 552.148438 43.652344 601.464844 43.652344 629.785156 71.972656 L 735.839844 178.027344 C 784.667969 226.757812 784.667969 306.054688 735.839844 354.785156 L 629.785156 460.839844 C 581.054688 509.667969 501.757812 509.667969 453.027344 460.839844 L 346.972656 354.785156 C 332.8125 340.625 325 321.777344 325 301.757812 C 325 281.738281 332.8125 262.890625 346.972656 248.730469 L 364.648438 231.054688 L 488.378906 354.785156 C 517.675781 384.082031 565.234375 383.984375 594.433594 354.785156 L 629.785156 319.433594 C 659.082031 290.234375 659.082031 242.675781 629.785156 213.378906 L 606.054688 189.648438 C 596.289062 179.882812 580.46875 179.882812 570.703125 189.648438 C 560.9375 199.414062 560.9375 215.234375 570.703125 225 L 594.433594 248.730469 C 604.199219 258.496094 604.199219 274.316406 594.433594 284.082031 L 559.082031 319.433594 C 549.316406 329.199219 533.496094 329.199219 523.730469 319.433594 L 382.324219 178.027344 C 377.636719 173.339844 371.289062 170.703125 364.648438 170.703125 C 358.007812 170.703125 351.660156 173.339844 346.972656 178.027344 L 311.621094 213.378906 C 287.988281 237.011719 275 268.359375 275 301.757812 C 275 335.15625 287.988281 366.601562 311.621094 390.136719 L 371.386719 450 L 350 450 C 336.230469 450 325 461.230469 325 475 L 325 540.625 C 302.246094 547.558594 279.980469 555.957031 258.886719 567.285156 L 212.890625 521.289062 C 203.125 511.523438 187.304688 511.523438 177.539062 521.289062 L 71.289062 627.539062 C 61.523438 637.304688 61.523438 653.125 71.289062 662.890625 L 117.285156 708.886719 C 105.957031 729.980469 96.777344 752.148438 89.84375 775 L 25 775 C 11.230469 775 0 786.230469 0 800 L 0 950 C 0 963.769531 11.230469 975 25 975 L 89.84375 975 C 96.777344 997.851562 105.957031 1020.019531 117.285156 1041.113281 L 71.289062 1087.109375 C 61.523438 1096.875 61.523438 1112.695312 71.289062 1122.460938 C 76.171875 1127.34375 82.617188 1129.785156 88.964844 1129.785156 C 95.410156 1129.785156 101.757812 1127.34375 106.640625 1122.460938 L 166.210938 1062.890625 C 174.414062 1054.785156 175.878906 1041.992188 169.824219 1032.128906 C 153.125 1004.882812 140.820312 975.195312 133.300781 944.140625 C 130.664062 932.910156 120.605469 925 108.984375 925 L 50 925 L 50 825 L 108.984375 825 C 120.605469 825 130.664062 817.089844 133.300781 805.859375 C 140.820312 774.804688 153.125 745.117188 169.824219 717.871094 C 175.878906 708.007812 174.414062 695.214844 166.210938 687.109375 L 124.316406 645.214844 L 195.214844 574.316406 L 237.109375 616.210938 C 245.214844 624.414062 257.910156 625.878906 267.871094 619.824219 C 285.9375 608.691406 305.175781 599.804688 325 592.773438 L 325 702.441406 C 263.085938 737.988281 225 802.441406 225 875 C 225 945.800781 261.230469 1009.960938 321.875 1046.386719 C 325.878906 1048.828125 330.371094 1050 334.765625 1050 C 343.164062 1050 351.464844 1045.703125 356.152344 1037.890625 C 363.28125 1026.074219 359.472656 1010.644531 347.65625 1003.613281 C 302.148438 976.171875 275 928.125 275 875 C 275 822.851562 301.171875 776.074219 344.238281 748.828125 C 346.09375 749.316406 347.949219 750 350 750 L 449.511719 750 C 456.738281 771.679688 465.332031 792.578125 475.292969 812.597656 L 405.078125 882.8125 C 395.214844 892.578125 395.214844 908.398438 405.078125 918.164062 L 518.652344 1031.835938 L 508.007812 1053.027344 L 209.277344 1117.089844 C 174.902344 1124.414062 150 1155.273438 150 1190.429688 L 150 1350 C 150 1363.769531 161.230469 1375 175 1375 L 382.324219 1375 C 403.90625 1447.167969 470.898438 1500 550 1500 C 646.484375 1500 725 1421.484375 725 1325 C 725 1228.515625 646.484375 1150 550 1150 C 523.925781 1150 498.535156 1155.761719 474.707031 1167.1875 C 462.207031 1173.144531 456.933594 1188.085938 462.890625 1200.585938 C 468.847656 1212.988281 483.691406 1218.261719 496.289062 1212.304688 C 513.28125 1204.101562 531.445312 1200 550 1200 C 618.945312 1200 675 1256.054688 675 1325 C 675 1393.945312 618.945312 1450 550 1450 C 481.054688 1450 425 1393.945312 425 1325 C 425 1306.445312 429.101562 1288.28125 437.304688 1271.191406 C 443.261719 1258.789062 437.988281 1243.847656 425.488281 1237.890625 C 413.085938 1231.933594 398.144531 1237.207031 392.1875 1249.707031 C 380.761719 1273.535156 375 1298.925781 375 1325 L 200 1325 L 200 1275 L 225 1275 C 266.40625 1275 300 1241.40625 300 1200 L 300 1148.828125 L 527.636719 1100 L 1294.921875 1100 L 1450 1166.503906 L 1450 1175 L 1425 1175 C 1411.230469 1175 1400 1186.230469 1400 1200 C 1400 1213.769531 1411.230469 1225 1425 1225 L 1450 1225 L 1450 1325 L 1375 1325 C 1375 1228.515625 1296.484375 1150 1200 1150 C 1103.515625 1150 1025 1228.515625 1025 1325 L 797.753906 1325 C 783.886719 1325 772.753906 1336.230469 772.753906 1350 C 772.753906 1363.769531 783.886719 1375 797.753906 1375 L 1032.324219 1375 C 1053.90625 1447.167969 1120.898438 1500 1200 1500 C 1279.101562 1500 1346.09375 1447.167969 1367.675781 1375 L 1475 1375 C 1488.769531 1375 1500 1363.769531 1500 1350 L 1500 1150 C 1500 1139.941406 1494.042969 1130.957031 1484.863281 1127.050781 " fill-opacity="1" fill-rule="nonzero"/><path fill="#084c94" d="M 1200 1350 C 1186.230469 1350 1175 1338.769531 1175 1325 C 1175 1311.230469 1186.230469 1300 1200 1300 C 1213.769531 1300 1225 1311.230469 1225 1325 C 1225 1338.769531 1213.769531 1350 1200 1350 Z M 1200 1250 C 1158.59375 1250 1125 1283.59375 1125 1325 C 1125 1366.40625 1158.59375 1400 1200 1400 C 1241.40625 1400 1275 1366.40625 1275 1325 C 1275 1283.59375 1241.40625 1250 1200 1250 " fill-opacity="1" fill-rule="nonzero"/><path fill="#084c94" d="M 875 1200 C 888.769531 1200 900 1188.769531 900 1175 C 900 1161.230469 888.769531 1150 875 1150 L 825 1150 C 811.230469 1150 800 1161.230469 800 1175 C 800 1188.769531 811.230469 1200 825 1200 L 875 1200 " fill-opacity="1" fill-rule="nonzero"/></svg>