<svg xmlns="http://www.w3.org/2000/svg" xmlns:xlink="http://www.w3.org/1999/xlink" width="2000" zoomAndPan="magnify" viewBox="0 0 1500 1499.999933" height="2000" preserveAspectRatio="xMidYMid meet" version="1.0"><path fill="#084c94" d="M 486.742188 873.488281 C 390.632812 839.128906 232.875 839.128906 136.761719 873.488281 C 52.1875 903.722656 52.1875 940.582031 136.761719 970.816406 C 232.871094 1005.171875 390.636719 1005.171875 486.746094 970.816406 C 571.324219 940.582031 571.324219 903.722656 486.746094 873.488281 Z M 584.167969 921.664062 C 584.175781 921.824219 584.175781 921.988281 584.175781 922.152344 L 584.175781 1382.207031 C 584.175781 1415.371094 551.28125 1443.707031 498.105469 1462.71875 C 394.648438 1499.703125 228.851562 1499.703125 125.394531 1462.71875 C 72.21875 1443.707031 39.324219 1415.367188 39.324219 1382.207031 L 39.324219 922.152344 C 39.324219 888.929688 72.351562 860.601562 125.394531 841.640625 C 228.851562 804.65625 394.648438 804.65625 498.105469 841.640625 C 551.019531 860.558594 583.847656 888.714844 584.167969 921.664062 Z M 143.859375 1049.847656 C 132.820312 1046.207031 120.941406 1041.5625 111.335938 1036.761719 C 103.019531 1032.601562 92.898438 1035.976562 88.742188 1044.292969 C 84.582031 1052.613281 87.953125 1062.730469 96.273438 1066.890625 C 108.449219 1072.976562 120.34375 1077.691406 133.289062 1081.957031 C 142.15625 1084.878906 151.710938 1080.054688 154.632812 1071.1875 C 157.550781 1062.324219 152.730469 1052.765625 143.859375 1049.847656 Z M 73.15625 1075.4375 L 73.15625 976.414062 C 172.632812 1048.3125 450.871094 1048.3125 550.347656 976.414062 L 550.347656 1075.4375 C 550.347656 1092.71875 526.039062 1110.050781 486.742188 1124.101562 C 390.632812 1158.460938 232.871094 1158.460938 136.761719 1124.101562 C 97.464844 1110.050781 73.15625 1092.722656 73.15625 1075.4375 Z M 143.859375 1203.230469 C 132.417969 1199.457031 121.691406 1195.242188 111.335938 1190.082031 C 102.980469 1185.921875 92.835938 1189.324219 88.671875 1197.679688 C 84.511719 1206.035156 87.917969 1216.183594 96.273438 1220.34375 C 107.847656 1226.113281 120.601562 1231.164062 133.289062 1235.34375 C 142.15625 1238.261719 151.710938 1233.441406 154.632812 1224.574219 C 157.550781 1215.707031 152.730469 1206.152344 143.859375 1203.230469 Z M 73.15625 1228.820312 C 73.15625 1246.105469 97.464844 1263.4375 136.761719 1277.488281 C 232.871094 1311.84375 390.632812 1311.84375 486.738281 1277.488281 C 526.039062 1263.4375 550.34375 1246.105469 550.34375 1228.820312 L 550.34375 1129.695312 C 450.867188 1201.597656 172.628906 1201.597656 73.152344 1129.695312 L 73.152344 1228.820312 Z M 550.347656 1283.082031 C 450.878906 1354.980469 172.640625 1354.984375 73.15625 1283.082031 L 73.15625 1382.207031 C 73.15625 1399.488281 97.464844 1416.824219 136.761719 1430.871094 C 232.871094 1465.230469 390.632812 1465.230469 486.742188 1430.871094 C 526.039062 1416.824219 550.347656 1399.488281 550.347656 1382.207031 Z M 143.859375 1356.617188 C 132.835938 1352.980469 120.925781 1348.324219 111.335938 1343.53125 C 103.019531 1339.371094 92.898438 1342.742188 88.742188 1351.0625 C 84.582031 1359.378906 87.953125 1369.5 96.273438 1373.660156 C 108.441406 1379.746094 120.351562 1384.464844 133.289062 1388.726562 C 142.15625 1391.648438 151.710938 1386.824219 154.632812 1377.957031 C 157.550781 1369.089844 152.730469 1359.535156 143.859375 1356.613281 Z M 1363.546875 873.488281 C 1267.433594 839.128906 1109.679688 839.128906 1013.566406 873.488281 C 928.992188 903.722656 928.992188 940.582031 1013.566406 970.816406 C 1109.675781 1005.171875 1267.441406 1005.171875 1363.550781 970.816406 C 1448.128906 940.582031 1448.128906 903.722656 1363.550781 873.488281 Z M 1460.972656 921.664062 C 1460.980469 921.824219 1460.980469 921.988281 1460.980469 922.152344 L 1460.980469 1382.207031 C 1460.980469 1415.371094 1428.085938 1443.707031 1374.910156 1462.71875 C 1271.453125 1499.703125 1105.65625 1499.703125 1002.199219 1462.71875 C 949.023438 1443.707031 916.128906 1415.367188 916.128906 1382.207031 L 916.128906 922.152344 C 916.128906 888.929688 949.15625 860.601562 1002.199219 841.640625 C 1105.65625 804.65625 1271.453125 804.65625 1374.910156 841.640625 C 1427.824219 860.558594 1460.652344 888.714844 1460.972656 921.664062 Z M 1020.664062 1049.847656 C 1009.625 1046.207031 997.746094 1041.5625 988.140625 1036.761719 C 979.824219 1032.601562 969.703125 1035.976562 965.546875 1044.292969 C 961.386719 1052.613281 964.757812 1062.730469 973.078125 1066.890625 C 985.253906 1072.976562 997.148438 1077.691406 1010.09375 1081.957031 C 1018.960938 1084.878906 1028.515625 1080.054688 1031.4375 1071.1875 C 1034.355469 1062.324219 1029.535156 1052.765625 1020.664062 1049.847656 Z M 949.960938 1075.4375 L 949.960938 976.414062 C 1049.4375 1048.3125 1327.675781 1048.3125 1427.152344 976.414062 L 1427.152344 1075.4375 C 1427.152344 1092.71875 1402.84375 1110.050781 1363.546875 1124.101562 C 1267.4375 1158.460938 1109.671875 1158.460938 1013.566406 1124.101562 C 974.265625 1110.050781 949.960938 1092.722656 949.960938 1075.4375 Z M 1020.664062 1203.230469 C 1009.222656 1199.457031 998.492188 1195.242188 988.140625 1190.082031 C 979.785156 1185.921875 969.640625 1189.324219 965.476562 1197.679688 C 961.316406 1206.035156 964.722656 1216.183594 973.078125 1220.34375 C 984.652344 1226.113281 997.40625 1231.164062 1010.09375 1235.34375 C 1018.960938 1238.261719 1028.515625 1233.441406 1031.4375 1224.574219 C 1034.355469 1215.707031 1029.535156 1206.152344 1020.664062 1203.230469 Z M 949.960938 1228.820312 C 949.960938 1246.105469 974.269531 1263.4375 1013.566406 1277.488281 C 1109.675781 1311.84375 1267.433594 1311.84375 1363.542969 1277.488281 C 1402.839844 1263.4375 1427.148438 1246.105469 1427.148438 1228.820312 L 1427.148438 1129.695312 C 1327.667969 1201.601562 1049.429688 1201.597656 949.957031 1129.695312 L 949.957031 1228.820312 Z M 1427.152344 1283.082031 C 1327.671875 1354.984375 1049.445312 1354.984375 949.960938 1283.082031 L 949.960938 1382.207031 C 949.960938 1399.488281 974.269531 1416.824219 1013.566406 1430.871094 C 1109.675781 1465.230469 1267.433594 1465.230469 1363.546875 1430.871094 C 1402.84375 1416.824219 1427.152344 1399.488281 1427.152344 1382.207031 Z M 1020.664062 1356.617188 C 1009.640625 1352.980469 997.730469 1348.324219 988.140625 1343.53125 C 979.824219 1339.371094 969.703125 1342.742188 965.546875 1351.0625 C 961.386719 1359.378906 964.757812 1369.5 973.078125 1373.660156 C 985.246094 1379.746094 997.15625 1384.464844 1010.09375 1388.726562 C 1018.960938 1391.648438 1028.515625 1386.824219 1031.4375 1377.957031 C 1034.355469 1369.085938 1029.535156 1359.535156 1020.664062 1356.613281 Z M 592.492188 737.691406 L 592.492188 592.832031 C 592.492188 583.492188 600.066406 575.917969 609.40625 575.917969 L 640.382812 575.917969 L 542.527344 457.570312 L 444.667969 575.917969 L 475.640625 575.917969 C 484.984375 575.917969 492.554688 583.492188 492.554688 592.832031 L 492.554688 737.691406 Z M 1007.75 592.835938 L 1007.75 447.976562 L 907.8125 447.976562 L 907.8125 592.835938 C 907.8125 602.175781 900.238281 609.75 890.898438 609.75 L 859.925781 609.75 L 957.78125 728.097656 L 1055.636719 609.75 L 1024.664062 609.75 C 1015.324219 609.75 1007.75 602.175781 1007.75 592.835938 Z M 1039.011719 682.882812 L 970.800781 765.378906 C 963.902344 773.714844 951.269531 773.378906 944.570312 765.144531 L 876.554688 682.882812 L 626.324219 682.882812 L 626.324219 754.605469 C 626.324219 763.949219 618.75 771.519531 609.40625 771.519531 L 475.640625 771.519531 C 466.300781 771.519531 458.726562 763.949219 458.726562 754.605469 L 458.726562 682.882812 L 389.367188 682.882812 C 277.980469 682.882812 186.898438 591.8125 186.898438 480.417969 C 186.898438 369.027344 271.964844 286.566406 380.109375 278.59375 C 380.984375 131.84375 500.226562 13.238281 647.089844 13.238281 C 747.644531 13.238281 838.371094 69.464844 884.015625 157.09375 C 970.421875 135.195312 1057.730469 190.796875 1074.910156 277.953125 L 1110.945312 277.953125 C 1222.332031 277.953125 1313.414062 369.03125 1313.414062 480.417969 C 1313.414062 591.808594 1222.332031 682.882812 1110.945312 682.882812 Z M 1041.582031 431.058594 C 1041.582031 421.71875 1034.007812 414.144531 1024.667969 414.144531 L 890.902344 414.144531 C 881.5625 414.144531 873.988281 421.71875 873.988281 431.058594 L 873.988281 575.917969 L 824.019531 575.917969 L 824.019531 575.941406 C 810.15625 575.933594 801.789062 592.460938 811.007812 603.605469 L 848.589844 649.054688 L 626.328125 649.054688 L 626.328125 609.75 L 676.296875 609.75 C 690.339844 609.75 698.957031 593.128906 688.785156 581.425781 L 555.542969 420.289062 C 549.597656 413.101562 538.949219 412.09375 531.757812 418.042969 C 528.40625 420.816406 409.375 565.585938 395.746094 582.0625 C 386.527344 593.207031 394.894531 609.734375 408.761719 609.726562 L 408.761719 609.75 L 458.726562 609.75 L 458.726562 649.054688 L 389.367188 649.054688 C 296.652344 649.054688 220.730469 573.136719 220.730469 480.421875 C 220.730469 380.8125 300.167969 311.785156 397.453125 311.785156 C 406.792969 311.785156 414.367188 304.210938 414.367188 294.871094 L 413.976562 287.109375 C 411.957031 220.820312 438.445312 159.128906 482.21875 115.351562 C 597.722656 -0.152344 792.949219 36.320312 859.722656 184.34375 C 863.519531 192.769531 873.371094 196.558594 881.820312 192.90625 C 887.867188 190.800781 894.28125 189.144531 901.019531 187.976562 C 971.320312 175.804688 1036.898438 226.125 1043.582031 296.453125 C 1044.40625 305.1875 1051.761719 311.730469 1060.363281 311.722656 L 1060.363281 311.78125 L 1110.941406 311.78125 C 1203.65625 311.78125 1279.578125 387.699219 1279.578125 480.417969 C 1279.578125 573.136719 1203.65625 649.054688 1110.941406 649.054688 L 1066.980469 649.054688 L 1104.035156 604.242188 C 1114.210938 592.539062 1105.59375 575.917969 1091.546875 575.917969 L 1041.578125 575.917969 L 1041.578125 431.058594 Z M 1041.582031 431.058594 " fill-opacity="1" fill-rule="evenodd"/></svg>