<svg xmlns="http://www.w3.org/2000/svg" xmlns:xlink="http://www.w3.org/1999/xlink" width="1080" zoomAndPan="magnify" viewBox="0 0 810 809.999993" height="1080" preserveAspectRatio="xMidYMid meet" version="1.2"><defs><clipPath id="cfae554982"><path d="M 810 405 C 810 411.628906 809.835938 418.253906 809.511719 424.871094 C 809.1875 431.492188 808.699219 438.101562 808.050781 444.695312 C 807.398438 451.292969 806.589844 457.871094 805.617188 464.425781 C 804.644531 470.980469 803.511719 477.511719 802.21875 484.011719 C 800.925781 490.511719 799.472656 496.976562 797.863281 503.40625 C 796.253906 509.835938 794.484375 516.222656 792.5625 522.566406 C 790.636719 528.90625 788.558594 535.199219 786.324219 541.441406 C 784.09375 547.679688 781.707031 553.863281 779.171875 559.988281 C 776.632812 566.109375 773.949219 572.167969 771.117188 578.160156 C 768.28125 584.152344 765.300781 590.070312 762.179688 595.914062 C 759.054688 601.761719 755.789062 607.527344 752.378906 613.210938 C 748.972656 618.898438 745.425781 624.496094 741.746094 630.003906 C 738.0625 635.515625 734.246094 640.933594 730.300781 646.257812 C 726.351562 651.582031 722.273438 656.804688 718.070312 661.929688 C 713.863281 667.054688 709.535156 672.070312 705.085938 676.980469 C 700.632812 681.890625 696.066406 686.691406 691.378906 691.378906 C 686.691406 696.066406 681.890625 700.632812 676.980469 705.085938 C 672.070312 709.535156 667.054688 713.863281 661.929688 718.070312 C 656.804688 722.273438 651.582031 726.351562 646.257812 730.300781 C 640.933594 734.246094 635.515625 738.0625 630.007812 741.746094 C 624.496094 745.425781 618.898438 748.972656 613.210938 752.378906 C 607.527344 755.789062 601.761719 759.054688 595.914062 762.179688 C 590.070312 765.300781 584.152344 768.28125 578.160156 771.117188 C 572.167969 773.949219 566.109375 776.632812 559.988281 779.171875 C 553.863281 781.707031 547.679688 784.09375 541.441406 786.324219 C 535.199219 788.558594 528.90625 790.636719 522.566406 792.5625 C 516.222656 794.484375 509.835938 796.253906 503.40625 797.863281 C 496.976562 799.472656 490.511719 800.925781 484.011719 802.21875 C 477.511719 803.511719 470.980469 804.644531 464.425781 805.617188 C 457.871094 806.589844 451.292969 807.398438 444.695312 808.050781 C 438.101562 808.699219 431.492188 809.1875 424.871094 809.511719 C 418.253906 809.835938 411.628906 810 405 810 C 398.371094 810 391.746094 809.835938 385.128906 809.511719 C 378.507812 809.1875 371.898438 808.699219 365.304688 808.050781 C 358.707031 807.398438 352.128906 806.589844 345.574219 805.617188 C 339.019531 804.644531 332.488281 803.511719 325.988281 802.21875 C 319.488281 800.925781 313.023438 799.472656 306.59375 797.863281 C 300.164062 796.253906 293.777344 794.484375 287.433594 792.5625 C 281.09375 790.636719 274.800781 788.558594 268.558594 786.324219 C 262.320312 784.09375 256.136719 781.707031 250.011719 779.171875 C 243.890625 776.632812 237.832031 773.949219 231.839844 771.117188 C 225.847656 768.28125 219.929688 765.300781 214.085938 762.179688 C 208.238281 759.054688 202.472656 755.789062 196.789062 752.378906 C 191.101562 748.972656 185.503906 745.425781 179.992188 741.746094 C 174.484375 738.0625 169.066406 734.246094 163.742188 730.300781 C 158.417969 726.351562 153.195312 722.273438 148.070312 718.070312 C 142.945312 713.863281 137.929688 709.535156 133.019531 705.085938 C 128.109375 700.632812 123.308594 696.066406 118.621094 691.378906 C 113.933594 686.691406 109.367188 681.890625 104.914062 676.980469 C 100.464844 672.070312 96.136719 667.054688 91.929688 661.929688 C 87.726562 656.804688 83.648438 651.582031 79.699219 646.257812 C 75.753906 640.933594 71.9375 635.515625 68.253906 630.007812 C 64.574219 624.496094 61.027344 618.898438 57.621094 613.210938 C 54.210938 607.527344 50.945312 601.761719 47.820312 595.914062 C 44.699219 590.070312 41.71875 584.152344 38.882812 578.160156 C 36.050781 572.167969 33.367188 566.109375 30.828125 559.988281 C 28.292969 553.863281 25.90625 547.679688 23.675781 541.441406 C 21.441406 535.199219 19.363281 528.90625 17.4375 522.566406 C 15.515625 516.222656 13.746094 509.835938 12.136719 503.40625 C 10.527344 496.976562 9.074219 490.511719 7.78125 484.011719 C 6.488281 477.511719 5.355469 470.980469 4.382812 464.425781 C 3.410156 457.871094 2.601562 451.292969 1.949219 444.695312 C 1.300781 438.101562 0.8125 431.492188 0.488281 424.871094 C 0.164062 418.253906 0 411.628906 0 405 C 0 398.371094 0.164062 391.746094 0.488281 385.128906 C 0.8125 378.507812 1.300781 371.898438 1.949219 365.304688 C 2.601562 358.707031 3.410156 352.128906 4.382812 345.574219 C 5.355469 339.019531 6.488281 332.488281 7.78125 325.988281 C 9.074219 319.488281 10.527344 313.023438 12.136719 306.59375 C 13.746094 300.164062 15.515625 293.777344 17.4375 287.433594 C 19.363281 281.09375 21.441406 274.800781 23.675781 268.558594 C 25.90625 262.320312 28.292969 256.136719 30.828125 250.011719 C 33.367188 243.890625 36.050781 237.832031 38.882812 231.839844 C 41.71875 225.847656 44.699219 219.929688 47.820312 214.085938 C 50.945312 208.238281 54.210938 202.472656 57.621094 196.789062 C 61.027344 191.101562 64.574219 185.503906 68.253906 179.992188 C 71.9375 174.484375 75.753906 169.066406 79.699219 163.742188 C 83.648438 158.417969 87.726562 153.195312 91.929688 148.070312 C 96.136719 142.945312 100.464844 137.929688 104.914062 133.019531 C 109.367188 128.109375 113.933594 123.308594 118.621094 118.621094 C 123.308594 113.933594 128.109375 109.367188 133.019531 104.914062 C 137.929688 100.464844 142.945312 96.136719 148.070312 91.929688 C 153.195312 87.726562 158.417969 83.648438 163.742188 79.699219 C 169.066406 75.753906 174.484375 71.9375 179.992188 68.253906 C 185.503906 64.574219 191.101562 61.027344 196.789062 57.621094 C 202.472656 54.210938 208.238281 50.945312 214.085938 47.820312 C 219.929688 44.699219 225.847656 41.71875 231.839844 38.882812 C 237.832031 36.050781 243.890625 33.367188 250.011719 30.828125 C 256.136719 28.292969 262.320312 25.90625 268.558594 23.675781 C 274.800781 21.441406 281.09375 19.363281 287.433594 17.4375 C 293.777344 15.515625 300.164062 13.746094 306.59375 12.136719 C 313.023438 10.527344 319.488281 9.074219 325.988281 7.78125 C 332.488281 6.488281 339.019531 5.355469 345.574219 4.382812 C 352.128906 3.410156 358.707031 2.601562 365.304688 1.949219 C 371.898438 1.300781 378.507812 0.8125 385.128906 0.488281 C 391.746094 0.164062 398.371094 0 405 0 C 411.628906 0 418.253906 0.164062 424.871094 0.488281 C 431.492188 0.8125 438.101562 1.300781 444.695312 1.949219 C 451.292969 2.601562 457.871094 3.410156 464.425781 4.382812 C 470.980469 5.355469 477.511719 6.488281 484.011719 7.78125 C 490.511719 9.074219 496.976562 10.527344 503.40625 12.136719 C 509.835938 13.746094 516.222656 15.515625 522.566406 17.4375 C 528.90625 19.363281 535.199219 21.441406 541.441406 23.675781 C 547.679688 25.90625 553.863281 28.292969 559.988281 30.828125 C 566.109375 33.367188 572.167969 36.050781 578.160156 38.882812 C 584.152344 41.71875 590.070312 44.699219 595.914062 47.820312 C 601.761719 50.945312 607.527344 54.210938 613.210938 57.621094 C 618.898438 61.027344 624.496094 64.574219 630.003906 68.253906 C 635.515625 71.9375 640.933594 75.753906 646.257812 79.699219 C 651.582031 83.648438 656.804688 87.726562 661.929688 91.929688 C 667.054688 96.136719 672.070312 100.464844 676.980469 104.914062 C 681.890625 109.367188 686.691406 113.933594 691.378906 118.621094 C 696.066406 123.308594 700.632812 128.109375 705.085938 133.019531 C 709.535156 137.929688 713.863281 142.945312 718.070312 148.070312 C 722.273438 153.195312 726.351562 158.417969 730.300781 163.742188 C 734.246094 169.066406 738.0625 174.484375 741.746094 179.992188 C 745.425781 185.503906 748.972656 191.101562 752.378906 196.789062 C 755.789062 202.472656 759.054688 208.238281 762.179688 214.085938 C 765.300781 219.929688 768.28125 225.847656 771.117188 231.839844 C 773.949219 237.832031 776.632812 243.890625 779.171875 250.011719 C 781.707031 256.136719 784.09375 262.320312 786.324219 268.558594 C 788.558594 274.800781 790.636719 281.09375 792.5625 287.433594 C 794.484375 293.777344 796.253906 300.164062 797.863281 306.59375 C 799.472656 313.023438 800.925781 319.488281 802.21875 325.988281 C 803.511719 332.488281 804.644531 339.019531 805.617188 345.574219 C 806.589844 352.128906 807.398438 358.707031 808.050781 365.304688 C 808.699219 371.898438 809.1875 378.507812 809.511719 385.128906 C 809.835938 391.746094 810 398.371094 810 405 Z M 810 405 "/></clipPath><linearGradient x1="1416.67004" gradientTransform="matrix(0.285815,0,0,0.285815,0.0000035,0.00002)" y1="0.000000000000000001" x2="1416.67004" gradientUnits="userSpaceOnUse" y2="2834.000004" id="b9f7abe3ba"><stop style="stop-color:#000066;stop-opacity:1;" offset="0"/><stop style="stop-color:#000066;stop-opacity:1;" offset="0.0078125"/><stop style="stop-color:#010167;stop-opacity:1;" offset="0.015625"/><stop style="stop-color:#010267;stop-opacity:1;" offset="0.0234375"/><stop style="stop-color:#010367;stop-opacity:1;" offset="0.03125"/><stop style="stop-color:#020468;stop-opacity:1;" offset="0.0390625"/><stop style="stop-color:#020468;stop-opacity:1;" offset="0.046875"/><stop style="stop-color:#030569;stop-opacity:1;" offset="0.0546875"/><stop style="stop-color:#030669;stop-opacity:1;" offset="0.0625"/><stop style="stop-color:#030769;stop-opacity:1;" offset="0.0703125"/><stop style="stop-color:#04086a;stop-opacity:1;" offset="0.078125"/><stop style="stop-color:#04086a;stop-opacity:1;" offset="0.0859375"/><stop style="stop-color:#05096b;stop-opacity:1;" offset="0.09375"/><stop style="stop-color:#050a6b;stop-opacity:1;" offset="0.101563"/><stop style="stop-color:#050b6b;stop-opacity:1;" offset="0.109375"/><stop style="stop-color:#060c6c;stop-opacity:1;" offset="0.117188"/><stop style="stop-color:#060c6c;stop-opacity:1;" offset="0.125"/><stop style="stop-color:#070d6d;stop-opacity:1;" offset="0.132812"/><stop style="stop-color:#070e6d;stop-opacity:1;" offset="0.140625"/><stop style="stop-color:#070f6d;stop-opacity:1;" offset="0.148438"/><stop style="stop-color:#08106e;stop-opacity:1;" offset="0.15625"/><stop style="stop-color:#08106e;stop-opacity:1;" offset="0.164063"/><stop style="stop-color:#09116f;stop-opacity:1;" offset="0.171875"/><stop style="stop-color:#09126f;stop-opacity:1;" offset="0.179688"/><stop style="stop-color:#09136f;stop-opacity:1;" offset="0.1875"/><stop style="stop-color:#0a1470;stop-opacity:1;" offset="0.195312"/><stop style="stop-color:#0a1470;stop-opacity:1;" offset="0.203125"/><stop style="stop-color:#0b1571;stop-opacity:1;" offset="0.210938"/><stop style="stop-color:#0b1671;stop-opacity:1;" offset="0.21875"/><stop style="stop-color:#0b1771;stop-opacity:1;" offset="0.226562"/><stop style="stop-color:#0c1872;stop-opacity:1;" offset="0.234375"/><stop style="stop-color:#0c1872;stop-opacity:1;" offset="0.242188"/><stop style="stop-color:#0d1973;stop-opacity:1;" offset="0.25"/><stop style="stop-color:#0d1a73;stop-opacity:1;" offset="0.257813"/><stop style="stop-color:#0d1b73;stop-opacity:1;" offset="0.265625"/><stop style="stop-color:#0e1b74;stop-opacity:1;" offset="0.273438"/><stop style="stop-color:#0e1c74;stop-opacity:1;" offset="0.28125"/><stop style="stop-color:#0f1d75;stop-opacity:1;" offset="0.289063"/><stop style="stop-color:#0f1e75;stop-opacity:1;" offset="0.296875"/><stop style="stop-color:#0f1f75;stop-opacity:1;" offset="0.304688"/><stop style="stop-color:#101f76;stop-opacity:1;" offset="0.3125"/><stop style="stop-color:#102076;stop-opacity:1;" offset="0.320313"/><stop style="stop-color:#112177;stop-opacity:1;" offset="0.328125"/><stop style="stop-color:#112277;stop-opacity:1;" offset="0.335938"/><stop style="stop-color:#112377;stop-opacity:1;" offset="0.34375"/><stop style="stop-color:#122378;stop-opacity:1;" offset="0.351563"/><stop style="stop-color:#122478;stop-opacity:1;" offset="0.359375"/><stop style="stop-color:#132579;stop-opacity:1;" offset="0.367188"/><stop style="stop-color:#132679;stop-opacity:1;" offset="0.375"/><stop style="stop-color:#132779;stop-opacity:1;" offset="0.382813"/><stop style="stop-color:#14277a;stop-opacity:1;" offset="0.390625"/><stop style="stop-color:#14287a;stop-opacity:1;" offset="0.398438"/><stop style="stop-color:#15297b;stop-opacity:1;" offset="0.40625"/><stop style="stop-color:#152a7b;stop-opacity:1;" offset="0.414063"/><stop style="stop-color:#152b7b;stop-opacity:1;" offset="0.421875"/><stop style="stop-color:#162b7c;stop-opacity:1;" offset="0.429688"/><stop style="stop-color:#162c7c;stop-opacity:1;" offset="0.4375"/><stop style="stop-color:#172d7d;stop-opacity:1;" offset="0.445313"/><stop style="stop-color:#172e7d;stop-opacity:1;" offset="0.453125"/><stop style="stop-color:#172f7d;stop-opacity:1;" offset="0.460938"/><stop style="stop-color:#182f7e;stop-opacity:1;" offset="0.46875"/><stop style="stop-color:#18307e;stop-opacity:1;" offset="0.476563"/><stop style="stop-color:#19317f;stop-opacity:1;" offset="0.484375"/><stop style="stop-color:#19327f;stop-opacity:1;" offset="0.492188"/><stop style="stop-color:#19337f;stop-opacity:1;" offset="0.5"/><stop style="stop-color:#1a3380;stop-opacity:1;" offset="0.507812"/><stop style="stop-color:#1a3480;stop-opacity:1;" offset="0.515625"/><stop style="stop-color:#1b3580;stop-opacity:1;" offset="0.523438"/><stop style="stop-color:#1b3681;stop-opacity:1;" offset="0.53125"/><stop style="stop-color:#1b3781;stop-opacity:1;" offset="0.539062"/><stop style="stop-color:#1c3782;stop-opacity:1;" offset="0.546875"/><stop style="stop-color:#1c3882;stop-opacity:1;" offset="0.554687"/><stop style="stop-color:#1c3982;stop-opacity:1;" offset="0.5625"/><stop style="stop-color:#1d3a83;stop-opacity:1;" offset="0.570312"/><stop style="stop-color:#1d3b83;stop-opacity:1;" offset="0.578125"/><stop style="stop-color:#1e3b84;stop-opacity:1;" offset="0.585938"/><stop style="stop-color:#1e3c84;stop-opacity:1;" offset="0.59375"/><stop style="stop-color:#1e3d84;stop-opacity:1;" offset="0.601562"/><stop style="stop-color:#1f3e85;stop-opacity:1;" offset="0.609375"/><stop style="stop-color:#1f3f85;stop-opacity:1;" offset="0.617188"/><stop style="stop-color:#203f86;stop-opacity:1;" offset="0.625"/><stop style="stop-color:#204086;stop-opacity:1;" offset="0.632812"/><stop style="stop-color:#204186;stop-opacity:1;" offset="0.640625"/><stop style="stop-color:#214287;stop-opacity:1;" offset="0.648438"/><stop style="stop-color:#214387;stop-opacity:1;" offset="0.65625"/><stop style="stop-color:#224388;stop-opacity:1;" offset="0.664062"/><stop style="stop-color:#224488;stop-opacity:1;" offset="0.671875"/><stop style="stop-color:#224588;stop-opacity:1;" offset="0.679688"/><stop style="stop-color:#234689;stop-opacity:1;" offset="0.6875"/><stop style="stop-color:#234789;stop-opacity:1;" offset="0.695312"/><stop style="stop-color:#24478a;stop-opacity:1;" offset="0.703125"/><stop style="stop-color:#24488a;stop-opacity:1;" offset="0.710938"/><stop style="stop-color:#24498a;stop-opacity:1;" offset="0.71875"/><stop style="stop-color:#254a8b;stop-opacity:1;" offset="0.726562"/><stop style="stop-color:#254b8b;stop-opacity:1;" offset="0.734375"/><stop style="stop-color:#264b8c;stop-opacity:1;" offset="0.742187"/><stop style="stop-color:#264c8c;stop-opacity:1;" offset="0.75"/><stop style="stop-color:#264d8c;stop-opacity:1;" offset="0.757813"/><stop style="stop-color:#274e8d;stop-opacity:1;" offset="0.765625"/><stop style="stop-color:#274f8d;stop-opacity:1;" offset="0.773438"/><stop style="stop-color:#284f8e;stop-opacity:1;" offset="0.78125"/><stop style="stop-color:#28508e;stop-opacity:1;" offset="0.789062"/><stop style="stop-color:#28518e;stop-opacity:1;" offset="0.796875"/><stop style="stop-color:#29528f;stop-opacity:1;" offset="0.804688"/><stop style="stop-color:#29528f;stop-opacity:1;" offset="0.8125"/><stop style="stop-color:#2a5390;stop-opacity:1;" offset="0.820312"/><stop style="stop-color:#2a5490;stop-opacity:1;" offset="0.828125"/><stop style="stop-color:#2a5590;stop-opacity:1;" offset="0.835938"/><stop style="stop-color:#2b5691;stop-opacity:1;" offset="0.84375"/><stop style="stop-color:#2b5691;stop-opacity:1;" offset="0.851562"/><stop style="stop-color:#2c5792;stop-opacity:1;" offset="0.859375"/><stop style="stop-color:#2c5892;stop-opacity:1;" offset="0.867188"/><stop style="stop-color:#2c5992;stop-opacity:1;" offset="0.875"/><stop style="stop-color:#2d5a93;stop-opacity:1;" offset="0.882812"/><stop style="stop-color:#2d5a93;stop-opacity:1;" offset="0.890625"/><stop style="stop-color:#2e5b94;stop-opacity:1;" offset="0.898438"/><stop style="stop-color:#2e5c94;stop-opacity:1;" offset="0.90625"/><stop style="stop-color:#2e5d94;stop-opacity:1;" offset="0.914062"/><stop style="stop-color:#2f5e95;stop-opacity:1;" offset="0.921875"/><stop style="stop-color:#2f5e95;stop-opacity:1;" offset="0.929688"/><stop style="stop-color:#305f96;stop-opacity:1;" offset="0.9375"/><stop style="stop-color:#306096;stop-opacity:1;" offset="0.945313"/><stop style="stop-color:#306196;stop-opacity:1;" offset="0.953125"/><stop style="stop-color:#316297;stop-opacity:1;" offset="0.960938"/><stop style="stop-color:#316297;stop-opacity:1;" offset="0.96875"/><stop style="stop-color:#326398;stop-opacity:1;" offset="0.976562"/><stop style="stop-color:#326498;stop-opacity:1;" offset="0.984375"/><stop style="stop-color:#326598;stop-opacity:1;" offset="0.992188"/><stop style="stop-color:#336699;stop-opacity:1;" offset="1"/></linearGradient></defs><g id="515acc76ac"><g clip-rule="nonzero" clip-path="url(#cfae554982)"><rect x="0" width="810" y="0" height="809.999993" style="fill:url(#linear0);stroke:none;"/></g><path style=" stroke:none;fill-rule:evenodd;fill:#ffffff;fill-opacity:1;" d="M 579.347656 648.800781 L 330.972656 648.800781 C 313.824219 648.800781 299.820312 634.796875 299.820312 617.644531 L 299.820312 192.066406 C 299.820312 174.917969 313.824219 160.914062 330.972656 160.914062 L 579.347656 160.914062 C 596.210938 160.914062 610.214844 174.917969 610.214844 192.066406 L 610.214844 617.644531 C 610.214844 634.796875 596.210938 648.800781 579.347656 648.800781 Z M 311.253906 568.773438 L 598.78125 568.773438 L 598.78125 192.066406 C 598.78125 181.207031 589.921875 172.347656 579.347656 172.347656 L 330.972656 172.347656 C 320.113281 172.347656 311.253906 181.207031 311.253906 192.066406 Z M 311.253906 568.773438 "/><path style=" stroke:none;fill-rule:evenodd;fill:#ffffff;fill-opacity:1;" d="M 511.609375 234.367188 L 398.710938 234.367188 C 386.136719 234.367188 376.132812 224.363281 376.132812 212.074219 L 376.132812 166.628906 C 376.132812 163.484375 378.703125 160.914062 381.847656 160.914062 L 528.1875 160.914062 C 531.332031 160.914062 533.902344 163.484375 533.902344 166.628906 L 533.902344 212.074219 C 533.902344 224.363281 523.898438 234.367188 511.609375 234.367188 Z M 511.609375 234.367188 "/><path style=" stroke:none;fill-rule:evenodd;fill:#ffffff;fill-opacity:1;" d="M 565.914062 342.976562 L 344.121094 342.976562 C 340.976562 342.976562 338.40625 340.40625 338.40625 337.261719 L 338.40625 267.523438 C 338.40625 264.378906 340.976562 261.808594 344.121094 261.808594 L 565.914062 261.808594 C 569.058594 261.808594 571.628906 264.378906 571.628906 267.523438 L 571.628906 337.261719 C 571.628906 340.40625 569.058594 342.976562 565.914062 342.976562 Z M 565.914062 342.976562 "/><path style=" stroke:none;fill-rule:evenodd;fill:#ffffff;fill-opacity:1;" d="M 565.914062 380.707031 L 399.285156 380.707031 C 396.140625 380.707031 393.566406 378.132812 393.566406 374.988281 C 393.566406 371.84375 396.140625 369.273438 399.285156 369.273438 L 565.914062 369.273438 C 569.058594 369.273438 571.628906 371.84375 571.628906 374.988281 C 571.628906 378.132812 569.058594 380.707031 565.914062 380.707031 Z M 369.273438 380.707031 L 344.121094 380.707031 C 340.976562 380.707031 338.40625 378.132812 338.40625 374.988281 C 338.40625 371.84375 340.976562 369.273438 344.121094 369.273438 L 369.273438 369.273438 C 372.417969 369.273438 374.988281 371.84375 374.988281 374.988281 C 374.988281 378.132812 372.417969 380.707031 369.273438 380.707031 Z M 369.273438 380.707031 "/><path style=" stroke:none;fill-rule:evenodd;fill:#ffffff;fill-opacity:1;" d="M 565.914062 408.429688 L 540.761719 408.429688 C 537.617188 408.429688 535.046875 405.859375 535.046875 402.714844 C 535.046875 399.570312 537.617188 396.996094 540.761719 396.996094 L 565.914062 396.996094 C 569.058594 396.996094 571.628906 399.570312 571.628906 402.714844 C 571.628906 405.859375 569.058594 408.429688 565.914062 408.429688 Z M 510.75 408.429688 L 344.121094 408.429688 C 340.976562 408.429688 338.40625 405.859375 338.40625 402.714844 C 338.40625 399.570312 340.976562 396.996094 344.121094 396.996094 L 510.75 396.996094 C 514.179688 396.996094 516.46875 399.570312 516.46875 402.714844 C 516.46875 405.859375 514.179688 408.429688 510.75 408.429688 Z M 510.75 408.429688 "/><path style=" stroke:none;fill-rule:evenodd;fill:#ffffff;fill-opacity:1;" d="M 565.914062 435.867188 L 399.285156 435.867188 C 396.140625 435.867188 393.566406 433.296875 393.566406 430.152344 C 393.566406 427.007812 396.140625 424.433594 399.285156 424.433594 L 565.914062 424.433594 C 569.058594 424.433594 571.628906 427.007812 571.628906 430.152344 C 571.628906 433.296875 569.058594 435.867188 565.914062 435.867188 Z M 369.273438 435.867188 L 344.121094 435.867188 C 340.976562 435.867188 338.40625 433.296875 338.40625 430.152344 C 338.40625 427.007812 340.976562 424.433594 344.121094 424.433594 L 369.273438 424.433594 C 372.417969 424.433594 374.988281 427.007812 374.988281 430.152344 C 374.988281 433.296875 372.417969 435.867188 369.273438 435.867188 Z M 369.273438 435.867188 "/><path style=" stroke:none;fill-rule:evenodd;fill:#ffffff;fill-opacity:1;" d="M 565.914062 463.59375 L 540.761719 463.59375 C 537.617188 463.59375 535.046875 461.019531 535.046875 457.875 C 535.046875 454.730469 537.617188 452.160156 540.761719 452.160156 L 565.914062 452.160156 C 569.058594 452.160156 571.628906 454.730469 571.628906 457.875 C 571.628906 461.019531 569.058594 463.59375 565.914062 463.59375 Z M 510.75 463.59375 L 344.121094 463.59375 C 340.976562 463.59375 338.40625 461.019531 338.40625 457.875 C 338.40625 454.730469 340.976562 452.160156 344.121094 452.160156 L 510.75 452.160156 C 514.179688 452.160156 516.46875 454.730469 516.46875 457.875 C 516.46875 461.019531 514.179688 463.59375 510.75 463.59375 Z M 510.75 463.59375 "/><path style=" stroke:none;fill-rule:evenodd;fill:#ffffff;fill-opacity:1;" d="M 507.035156 545.050781 C 506.179688 545.050781 505.320312 544.761719 504.464844 544.476562 C 501.605469 543.046875 500.460938 539.332031 501.890625 536.761719 L 527.328125 486.742188 C 528.757812 484.171875 532.1875 483.027344 535.046875 484.457031 C 537.617188 485.886719 538.761719 489.316406 537.332031 491.886719 L 512.179688 541.90625 C 511.324219 543.90625 509.324219 545.050781 507.035156 545.050781 Z M 507.035156 545.050781 "/><path style=" stroke:none;fill-rule:evenodd;fill:#ffffff;fill-opacity:1;" d="M 551.335938 545.050781 C 550.480469 545.050781 549.335938 544.761719 548.480469 544.191406 C 545.90625 542.476562 544.761719 539.046875 546.476562 536.476562 L 559.339844 514.46875 L 546.476562 492.171875 C 544.761719 489.601562 545.90625 486.171875 548.480469 484.457031 C 551.335938 483.027344 554.765625 483.886719 556.195312 486.457031 L 570.773438 511.324219 C 571.914062 513.324219 571.914062 515.324219 570.773438 517.324219 L 556.195312 542.191406 C 555.339844 543.90625 553.339844 545.050781 551.335938 545.050781 Z M 551.335938 545.050781 "/><path style=" stroke:none;fill-rule:evenodd;fill:#ffffff;fill-opacity:1;" d="M 488.171875 545.050781 C 486.171875 545.050781 484.171875 543.90625 483.027344 542.191406 L 468.738281 517.324219 C 467.59375 515.324219 467.59375 513.324219 468.738281 511.609375 L 483.027344 486.457031 C 484.742188 483.886719 488.171875 483.027344 491.03125 484.457031 C 493.601562 486.171875 494.460938 489.601562 493.03125 492.460938 L 480.167969 514.46875 L 493.03125 536.476562 C 494.460938 539.046875 493.601562 542.476562 491.03125 544.191406 C 489.886719 544.761719 489.03125 545.050781 488.171875 545.050781 Z M 488.171875 545.050781 "/><path style=" stroke:none;fill-rule:evenodd;fill:#ffffff;fill-opacity:1;" d="M 449.871094 495.316406 L 381.5625 495.316406 C 378.417969 495.316406 375.847656 492.746094 375.847656 489.601562 C 375.847656 486.457031 378.417969 483.886719 381.5625 483.886719 L 449.871094 483.886719 C 453.015625 483.886719 455.589844 486.457031 455.589844 489.601562 C 455.589844 492.746094 453.015625 495.316406 449.871094 495.316406 Z M 356.125 495.316406 L 344.121094 495.316406 C 340.976562 495.316406 338.40625 492.746094 338.40625 489.601562 C 338.40625 486.457031 340.976562 483.886719 344.121094 483.886719 L 356.125 483.886719 C 359.269531 483.886719 361.84375 486.457031 361.84375 489.601562 C 361.84375 492.746094 359.269531 495.316406 356.125 495.316406 Z M 356.125 495.316406 "/><path style=" stroke:none;fill-rule:evenodd;fill:#ffffff;fill-opacity:1;" d="M 449.871094 522.753906 L 437.867188 522.753906 C 434.726562 522.753906 432.152344 520.183594 432.152344 517.039062 C 432.152344 513.894531 434.726562 511.324219 437.867188 511.324219 L 449.871094 511.324219 C 453.015625 511.324219 455.589844 513.894531 455.589844 517.039062 C 455.589844 520.183594 453.015625 522.753906 449.871094 522.753906 Z M 412.429688 522.753906 L 344.121094 522.753906 C 340.976562 522.753906 338.40625 520.183594 338.40625 517.039062 C 338.40625 513.894531 340.976562 511.324219 344.121094 511.324219 L 412.429688 511.324219 C 415.574219 511.324219 418.148438 513.894531 418.148438 517.039062 C 418.148438 520.183594 415.574219 522.753906 412.429688 522.753906 Z M 412.429688 522.753906 "/><path style=" stroke:none;fill-rule:evenodd;fill:#ffffff;fill-opacity:1;" d="M 305.535156 545.90625 L 290.386719 545.90625 C 283.527344 545.90625 277.8125 540.476562 276.667969 533.046875 L 273.238281 502.75 C 268.378906 501.035156 263.808594 499.03125 259.234375 496.746094 L 235.511719 515.609375 C 229.507812 520.183594 221.222656 520.183594 216.078125 515.039062 L 194.925781 493.886719 C 190.066406 489.03125 189.78125 481.027344 194.640625 475.308594 L 213.503906 451.300781 C 211.21875 446.730469 209.214844 441.871094 207.789062 437.011719 L 177.777344 433.582031 C 170.058594 432.722656 164.34375 426.722656 164.34375 419.578125 L 164.34375 389.851562 C 164.34375 382.707031 169.773438 376.988281 177.492188 376.132812 L 207.789062 372.703125 C 209.214844 367.84375 211.21875 362.984375 213.503906 358.414062 L 194.925781 334.976562 C 190.066406 328.6875 190.351562 320.683594 195.210938 315.539062 L 216.363281 294.390625 C 221.222656 289.53125 229.507812 289.53125 235.226562 294.105469 L 259.234375 312.96875 C 263.808594 310.679688 268.378906 308.679688 273.238281 306.964844 L 276.667969 277.242188 C 277.8125 269.523438 283.527344 263.808594 290.675781 263.808594 L 305.535156 263.808594 C 308.679688 263.808594 311.253906 266.378906 311.253906 269.523438 L 311.253906 348.121094 C 310.96875 345.265625 308.679688 342.976562 305.535156 342.976562 C 271.238281 342.976562 243.515625 370.703125 243.515625 405 C 243.515625 439.011719 271.238281 467.023438 305.535156 467.023438 C 308.679688 467.023438 310.96875 464.734375 311.253906 461.589844 L 311.253906 540.191406 C 311.253906 543.335938 308.679688 545.90625 305.535156 545.90625 Z M 305.535156 545.90625 "/><path style=" stroke:none;fill-rule:evenodd;fill:#ffffff;fill-opacity:1;" d="M 639.652344 531.332031 C 636.511719 531.332031 633.9375 528.757812 633.9375 525.613281 L 633.9375 347.550781 C 633.9375 344.40625 636.511719 341.835938 639.652344 341.835938 C 642.796875 341.835938 645.371094 344.40625 645.371094 347.550781 L 645.371094 525.613281 C 645.371094 528.757812 642.796875 531.332031 639.652344 531.332031 Z M 639.652344 531.332031 "/><path style=" stroke:none;fill-rule:evenodd;fill:#ffffff;fill-opacity:1;" d="M 639.652344 317.828125 C 636.511719 317.828125 633.9375 315.253906 633.9375 312.109375 L 633.9375 284.386719 C 633.9375 280.957031 636.511719 278.667969 639.652344 278.667969 C 642.796875 278.667969 645.371094 280.957031 645.371094 284.386719 L 645.371094 312.109375 C 645.371094 315.253906 642.796875 317.828125 639.652344 317.828125 Z M 639.652344 317.828125 "/></g></svg>