<svg xmlns="http://www.w3.org/2000/svg" xmlns:xlink="http://www.w3.org/1999/xlink" width="1080" zoomAndPan="magnify" viewBox="0 0 810 809.999993" height="1080" preserveAspectRatio="xMidYMid meet" version="1.2"><g id="ab60bfbdec"><path style=" stroke:none;fill-rule:nonzero;fill:#caddff;fill-opacity:1;" d="M 133.566406 642.011719 C 50.296875 557.65625 40.589844 457.207031 22.246094 267.527344 C 7.335938 113.28125 37.328125 88.441406 46.367188 82.097656 C 120.835938 29.878906 297.703125 164.230469 322.804688 131.179688 C 337.292969 112.113281 279.816406 65.519531 293.121094 42.101562 C 316.960938 0.152344 574.042969 22.03125 690.15625 182.082031 C 802.335938 336.722656 778.136719 613.761719 588.871094 721.484375 C 433.636719 809.828125 235.648438 745.433594 133.566406 642.011719 "/><path style=" stroke:none;fill-rule:nonzero;fill:#000000;fill-opacity:1;" d="M 358.835938 71.949219 L 47.78125 52.617188 C 34.765625 52.617188 24.804688 63.171875 25.539062 76.199219 L 60.457031 695.914062 C 61.191406 708.941406 72.339844 719.5 85.359375 719.5 L 394.910156 699.449219 C 407.929688 699.449219 426.867188 708.941406 426.128906 695.914062 L 391.210938 76.199219 C 390.476562 63.171875 371.855469 71.949219 358.835938 71.949219 "/><path style=" stroke:none;fill-rule:nonzero;fill:#000000;fill-opacity:1;" d="M 47.699219 53.949219 C 41.863281 53.957031 36.433594 56.253906 32.488281 60.429688 C 28.53125 64.617188 26.539062 70.1875 26.871094 76.125 L 61.789062 695.839844 C 62.484375 708.148438 73.058594 718.164062 85.359375 718.164062 L 394.824219 698.117188 C 394.832031 698.117188 394.835938 698.117188 394.84375 698.117188 C 399.074219 698.117188 403.699219 699.03125 408.167969 699.910156 C 414.492188 701.15625 421.042969 702.449219 423.542969 700.269531 C 424.5 699.4375 424.910156 698.035156 424.796875 695.988281 L 389.875 76.277344 C 389.757812 74.179688 389.136719 72.722656 387.976562 71.796875 C 384.933594 69.386719 378.074219 70.597656 371.433594 71.765625 C 367.183594 72.515625 362.792969 73.289062 358.839844 73.289062 C 358.8125 73.289062 358.78125 73.289062 358.753906 73.285156 Z M 85.441406 720.832031 C 71.660156 720.832031 59.894531 709.6875 59.121094 695.988281 L 24.203125 76.277344 C 23.828125 69.601562 26.078125 63.316406 30.546875 58.59375 C 35 53.878906 41.121094 51.28125 47.78125 51.28125 L 358.878906 70.613281 C 362.589844 70.609375 366.847656 69.859375 370.972656 69.132812 C 378.519531 67.800781 385.652344 66.542969 389.636719 69.703125 C 391.40625 71.105469 392.386719 73.269531 392.546875 76.125 L 427.460938 695.839844 C 427.625 698.726562 426.898438 700.894531 425.300781 702.285156 C 421.804688 705.328125 414.925781 703.96875 407.652344 702.535156 C 403.300781 701.675781 398.800781 700.789062 394.910156 700.789062 L 85.445312 720.832031 C 85.445312 720.832031 85.445312 720.832031 85.441406 720.832031 "/><path style=" stroke:none;fill-rule:nonzero;fill:#99b9ff;fill-opacity:1;" d="M 382.089844 52.617188 L 63.566406 52.617188 C 50.546875 52.617188 40.589844 63.171875 41.320312 76.199219 L 76.238281 695.914062 C 76.972656 708.941406 88.125 719.5 101.144531 719.5 L 419.667969 719.5 C 432.6875 719.5 442.644531 708.941406 441.914062 695.914062 L 406.996094 76.199219 C 406.265625 63.171875 395.109375 52.617188 382.089844 52.617188 "/><path style=" stroke:none;fill-rule:nonzero;fill:#000000;fill-opacity:1;" d="M 63.566406 53.957031 C 57.648438 53.957031 52.214844 56.253906 48.269531 60.429688 C 44.316406 64.617188 42.320312 70.1875 42.65625 76.125 L 77.574219 695.839844 C 78.265625 708.148438 88.839844 718.164062 101.144531 718.164062 L 419.664062 718.164062 C 425.585938 718.164062 431.019531 715.859375 434.964844 711.683594 C 438.921875 707.5 440.917969 701.925781 440.578125 695.988281 L 405.660156 76.277344 C 404.964844 63.96875 394.390625 53.957031 382.089844 53.957031 Z M 419.664062 720.835938 L 101.144531 720.835938 C 87.449219 720.835938 75.675781 709.6875 74.90625 695.988281 L 39.988281 76.277344 C 39.613281 69.601562 41.863281 63.316406 46.328125 58.59375 C 50.785156 53.878906 56.90625 51.28125 63.566406 51.28125 L 382.089844 51.28125 C 395.785156 51.28125 407.558594 62.425781 408.328125 76.125 L 443.25 695.839844 C 443.621094 702.515625 441.367188 708.796875 436.90625 713.523438 C 432.453125 718.238281 426.328125 720.835938 419.664062 720.835938 "/><path style=" stroke:none;fill-rule:nonzero;fill:#000000;fill-opacity:1;" d="M 130.441406 52.617188 L 131.1875 65.839844 C 131.980469 79.890625 144.007812 91.289062 158.058594 91.289062 L 291.960938 91.289062 C 306.007812 91.289062 316.753906 79.890625 315.960938 65.839844 L 315.214844 52.617188 L 130.441406 52.617188 "/><path style=" stroke:none;fill-rule:nonzero;fill:#99b9ff;fill-opacity:1;" d="M 224.335938 79.34375 C 219.226562 79.34375 214.855469 75.203125 214.566406 70.097656 C 214.28125 64.988281 218.183594 60.84375 223.292969 60.84375 C 228.398438 60.84375 232.769531 64.988281 233.058594 70.097656 C 233.347656 75.203125 229.441406 79.34375 224.335938 79.34375 "/><path style=" stroke:none;fill-rule:nonzero;fill:#000000;fill-opacity:1;" d="M 223.292969 62.183594 C 221.195312 62.183594 219.273438 62.992188 217.882812 64.46875 C 216.488281 65.945312 215.78125 67.917969 215.902344 70.019531 C 216.148438 74.425781 219.933594 78.007812 224.335938 78.007812 C 226.429688 78.007812 228.351562 77.199219 229.742188 75.722656 C 231.140625 74.246094 231.84375 72.273438 231.726562 70.167969 C 231.476562 65.765625 227.695312 62.183594 223.292969 62.183594 Z M 224.335938 80.683594 C 218.539062 80.683594 213.558594 75.964844 213.234375 70.167969 C 213.074219 67.324219 214.035156 64.648438 215.941406 62.632812 C 217.84375 60.621094 220.453125 59.507812 223.292969 59.507812 C 229.085938 59.507812 234.066406 64.222656 234.394531 70.019531 C 234.550781 72.867188 233.59375 75.542969 231.683594 77.558594 C 229.78125 79.570312 227.171875 80.683594 224.335938 80.683594 "/><path style=" stroke:none;fill-rule:nonzero;fill:#ffffff;fill-opacity:1;" d="M 106.320312 340.109375 C 105.976562 340.109375 105.636719 339.976562 105.375 339.714844 C 104.851562 339.191406 104.851562 338.34375 105.375 337.820312 L 362.921875 80.171875 C 363.445312 79.648438 364.292969 79.648438 364.8125 80.171875 C 365.335938 80.691406 365.335938 81.535156 364.8125 82.058594 L 107.265625 339.714844 C 107.003906 339.976562 106.660156 340.109375 106.320312 340.109375 "/><path style=" stroke:none;fill-rule:nonzero;fill:#ffffff;fill-opacity:1;" d="M 95.039062 413.714844 C 94.695312 413.714844 94.355469 413.585938 94.09375 413.324219 C 93.574219 412.804688 93.574219 411.957031 94.09375 411.433594 L 122.546875 382.972656 C 123.066406 382.449219 123.914062 382.449219 124.433594 382.972656 C 124.957031 383.496094 124.957031 384.339844 124.433594 384.863281 L 95.984375 413.324219 C 95.722656 413.585938 95.382812 413.714844 95.039062 413.714844 "/><path style=" stroke:none;fill-rule:nonzero;fill:#ffffff;fill-opacity:1;" d="M 172.839844 335.882812 C 172.5 335.882812 172.15625 335.75 171.894531 335.488281 C 171.375 334.96875 171.375 334.125 171.894531 333.601562 L 351.644531 153.78125 C 352.164062 153.257812 353.011719 153.257812 353.535156 153.78125 C 354.054688 154.300781 354.054688 155.152344 353.535156 155.671875 L 173.785156 335.488281 C 173.523438 335.75 173.183594 335.882812 172.839844 335.882812 "/><path style=" stroke:none;fill-rule:nonzero;fill:#99b9ff;fill-opacity:1;" d="M 437.15625 700.382812 C 433.097656 697.796875 444.496094 683.859375 439.761719 663.273438 C 437.273438 652.429688 432.929688 651.148438 432.578125 641.058594 C 432.082031 626.714844 440.40625 616.148438 441.617188 614.660156 C 447.699219 607.160156 450.484375 609.582031 460.535156 600.925781 C 465.976562 596.246094 478.367188 585.574219 480.1875 570.496094 C 481.097656 562.9375 478.316406 561.898438 480.1875 555.652344 C 483.597656 544.265625 496 534.152344 503.183594 537.101562 C 507.957031 539.054688 510.105469 546.671875 509.859375 552.6875 C 509.328125 565.808594 496.277344 568.039062 493.539062 581.628906 C 490.949219 594.480469 501.46875 598.148438 498.734375 609.089844 C 495.027344 623.917969 474.574219 621.78125 467.574219 638.78125 C 462.941406 650.027344 470.484375 654.386719 466.832031 669.210938 C 461.847656 689.4375 441.703125 703.277344 437.15625 700.382812 "/><path style=" stroke:none;fill-rule:nonzero;fill:#ffffff;fill-opacity:1;" d="M 492.375 555.042969 C 492.105469 561.234375 491.390625 567.417969 490.007812 573.472656 C 488.636719 579.527344 486.617188 585.449219 483.871094 591.035156 C 481.117188 596.617188 477.625 601.839844 473.519531 606.527344 C 471.464844 608.871094 469.261719 611.082031 466.957031 613.171875 C 464.65625 615.265625 462.242188 617.234375 459.832031 619.175781 C 457.425781 621.117188 455 623.027344 452.761719 625.105469 C 450.535156 627.175781 448.480469 629.445312 447.148438 632.097656 C 446.480469 633.421875 445.972656 634.816406 445.675781 636.269531 C 445.386719 637.71875 445.285156 639.203125 445.34375 640.691406 C 445.433594 643.667969 446.214844 646.59375 447.296875 649.4375 C 448.367188 652.292969 449.667969 655.121094 450.65625 658.128906 C 451.65625 661.121094 452.300781 664.328125 452.214844 667.558594 C 452.242188 668.371094 452.121094 669.167969 452.039062 669.96875 C 451.988281 670.367188 451.960938 670.773438 451.886719 671.167969 L 451.632812 672.347656 C 451.332031 673.929688 450.851562 675.460938 450.257812 676.953125 C 449.078125 679.9375 447.410156 682.714844 445.421875 685.203125 C 445.035156 685.683594 444.332031 685.761719 443.855469 685.378906 C 443.375 685 443.296875 684.296875 443.679688 683.816406 C 443.679688 683.816406 443.6875 683.804688 443.6875 683.804688 C 445.585938 681.488281 447.167969 678.921875 448.296875 676.160156 C 448.871094 674.785156 449.335938 673.359375 449.632812 671.902344 L 449.882812 670.816406 C 449.953125 670.453125 449.976562 670.082031 450.03125 669.714844 C 450.121094 668.980469 450.242188 668.25 450.222656 667.503906 C 450.332031 664.546875 449.789062 661.585938 448.867188 658.703125 C 447.960938 655.820312 446.710938 652.996094 445.644531 650.042969 C 444.570312 647.109375 443.753906 643.957031 443.695312 640.738281 C 443.65625 639.128906 443.789062 637.519531 444.125 635.9375 C 444.46875 634.355469 445.039062 632.824219 445.789062 631.398438 C 447.285156 628.519531 449.492188 626.164062 451.808594 624.0625 C 454.132812 621.957031 456.601562 620.074219 459.027344 618.15625 C 461.457031 616.25 463.867188 614.332031 466.167969 612.292969 C 468.46875 610.253906 470.667969 608.105469 472.722656 605.824219 C 476.828125 601.253906 480.335938 596.144531 483.125 590.664062 C 485.90625 585.175781 487.980469 579.332031 489.417969 573.335938 C 490.871094 567.339844 491.65625 561.191406 492.007812 555.027344 C 492.011719 554.921875 492.097656 554.847656 492.203125 554.851562 C 492.304688 554.855469 492.378906 554.945312 492.375 555.042969 "/><path style=" stroke:none;fill-rule:nonzero;fill:#ffffff;fill-opacity:1;" d="M 449.769531 462.878906 C 456.226562 461.589844 464.828125 479.335938 469.796875 489.597656 C 478.550781 507.65625 484.613281 520.164062 481.667969 534.128906 C 477.523438 553.8125 460.640625 551.914062 453.480469 572.722656 C 445.824219 594.953125 463.386719 602.042969 455.703125 626.90625 C 450.335938 644.265625 437.523438 654.558594 442.347656 667.722656 C 444.144531 672.625 446.757812 673.488281 447.539062 678.859375 C 449.292969 690.84375 438.96875 704.984375 431.964844 704.089844 C 429.390625 703.761719 427.796875 701.480469 421.574219 689.246094 C 414.023438 674.398438 410.246094 666.976562 409.707031 664.753906 C 404.648438 644.066406 425.5 636.015625 426.027344 612.058594 C 426.53125 589.285156 407.886719 587.09375 408.21875 565.304688 C 408.554688 543.59375 427.128906 541.492188 438.636719 508.894531 C 447.753906 483.082031 443.25 464.175781 449.769531 462.878906 "/><path style=" stroke:none;fill-rule:nonzero;fill:#caddff;fill-opacity:1;" d="M 446.863281 532.410156 C 442.601562 537.914062 438.917969 543.886719 436.273438 550.316406 C 433.625 556.734375 431.9375 563.574219 431.691406 570.5 C 431.664062 571.367188 431.59375 572.230469 431.601562 573.09375 L 431.699219 575.6875 C 431.71875 576.121094 431.71875 576.550781 431.757812 576.984375 L 431.90625 578.269531 C 432.019531 579.125 432.09375 579.988281 432.230469 580.839844 C 432.808594 584.25 433.75 587.585938 434.878906 590.867188 C 436.019531 594.140625 437.359375 597.367188 438.5 600.691406 C 439.632812 604.007812 440.652344 607.433594 441 610.980469 C 441.160156 611.855469 441.132812 612.75 441.195312 613.636719 L 441.257812 614.96875 C 441.28125 615.414062 441.226562 615.859375 441.210938 616.304688 L 441.074219 618.964844 L 440.683594 621.597656 C 440.113281 625.097656 439.175781 628.554688 437.730469 631.804688 C 436.324219 635.070312 434.503906 638.128906 432.578125 641.058594 C 430.660156 643.996094 428.660156 646.839844 427.101562 649.871094 C 423.863281 655.886719 423.25 662.945312 424.574219 669.613281 C 425.878906 676.300781 429.117188 682.507812 433.234375 687.964844 C 433.605469 688.457031 433.511719 689.15625 433.019531 689.523438 C 432.527344 689.894531 431.832031 689.796875 431.457031 689.304688 L 431.457031 689.296875 C 427.246094 683.597656 423.910156 677.070312 422.609375 669.988281 C 422.304688 668.226562 422.054688 666.445312 422.011719 664.648438 C 421.9375 663.757812 422.023438 662.855469 422.03125 661.957031 L 422.070312 660.609375 L 422.246094 659.269531 C 422.664062 655.6875 423.839844 652.199219 425.523438 649.046875 C 427.191406 645.886719 429.257812 643.023438 431.183594 640.136719 C 433.121094 637.257812 434.914062 634.3125 436.304688 631.179688 C 437.730469 628.058594 438.671875 624.734375 439.257812 621.355469 L 439.664062 618.816406 L 439.824219 616.25 C 439.839844 615.828125 439.902344 615.398438 439.882812 614.96875 L 439.832031 613.6875 C 439.785156 612.832031 439.824219 611.972656 439.675781 611.125 C 439.015625 604.257812 436.070312 597.859375 433.824219 591.226562 C 432.714844 587.894531 431.792969 584.484375 431.246094 581 C 431.109375 580.125 431.042969 579.246094 430.941406 578.371094 L 430.800781 577.058594 C 430.765625 576.617188 430.773438 576.175781 430.75 575.738281 L 430.683594 573.09375 C 430.6875 572.214844 430.769531 571.339844 430.804688 570.457031 C 431.128906 563.421875 432.917969 556.503906 435.65625 550.0625 C 438.398438 543.59375 442.175781 537.621094 446.515625 532.132812 C 446.589844 532.042969 446.726562 532.027344 446.824219 532.097656 C 446.921875 532.175781 446.9375 532.316406 446.863281 532.410156 "/><path style=" stroke:none;fill-rule:nonzero;fill:#5479f7;fill-opacity:1;" d="M 436.566406 738.230469 L 431.808594 738.230469 C 420.828125 738.230469 411.929688 729.332031 411.929688 718.347656 L 411.929688 693.703125 L 456.445312 693.703125 L 456.445312 718.347656 C 456.445312 729.332031 447.542969 738.230469 436.566406 738.230469 "/><path style=" stroke:none;fill-rule:nonzero;fill:#ffffff;fill-opacity:1;" d="M 93.03125 101.640625 C 87.332031 104.9375 80.035156 102.992188 76.734375 97.292969 C 73.433594 91.589844 75.382812 84.289062 81.082031 80.988281 C 86.78125 77.6875 94.078125 79.636719 97.378906 85.339844 C 100.675781 91.039062 98.730469 98.339844 93.03125 101.640625 Z M 108.957031 81.308594 L 106.636719 77.296875 L 101.808594 78.8125 C 101.105469 77.972656 100.34375 77.210938 99.527344 76.519531 L 101.023438 71.695312 L 97.007812 69.378906 L 93.582031 73.105469 C 92.566406 72.746094 91.523438 72.464844 90.464844 72.277344 L 89.347656 67.335938 L 84.714844 67.34375 L 83.605469 72.277344 C 82.558594 72.464844 81.515625 72.75 80.492188 73.117188 L 77.054688 69.402344 L 73.046875 71.726562 L 74.554688 76.558594 C 73.722656 77.261719 72.957031 78.019531 72.273438 78.835938 L 67.445312 77.34375 L 65.132812 81.359375 L 68.855469 84.789062 C 68.492188 85.796875 68.214844 86.84375 68.023438 87.90625 L 63.089844 89.019531 L 63.09375 93.660156 L 68.023438 94.765625 C 68.214844 95.816406 68.496094 96.855469 68.867188 97.878906 L 65.152344 101.320312 L 67.472656 105.332031 L 72.304688 103.824219 C 73.007812 104.652344 73.769531 105.417969 74.585938 106.105469 L 73.085938 110.933594 L 77.101562 113.246094 L 80.53125 109.519531 C 81.546875 109.890625 82.585938 110.164062 83.644531 110.355469 L 84.765625 115.289062 L 89.398438 115.285156 L 90.503906 110.351562 C 91.554688 110.164062 92.597656 109.882812 93.621094 109.511719 L 97.054688 113.226562 L 101.066406 110.902344 L 99.558594 106.070312 C 100.390625 105.367188 101.152344 104.609375 101.839844 103.792969 L 106.667969 105.292969 L 108.980469 101.273438 L 105.257812 97.84375 C 105.621094 96.828125 105.898438 95.785156 106.089844 94.722656 L 111.023438 93.609375 L 111.019531 88.96875 L 106.089844 87.863281 C 105.898438 86.8125 105.613281 85.773438 105.246094 84.75 L 108.957031 81.308594 "/><path style=" stroke:none;fill-rule:nonzero;fill:#ffffff;fill-opacity:1;" d="M 147.917969 183.984375 C 135.808594 190.996094 120.308594 186.859375 113.300781 174.742188 C 106.292969 162.628906 110.429688 147.125 122.539062 140.113281 C 134.648438 133.101562 150.148438 137.238281 157.15625 149.355469 C 164.164062 161.46875 160.03125 176.972656 147.917969 183.984375 Z M 181.757812 140.796875 L 176.828125 132.273438 L 166.566406 135.480469 C 165.074219 133.714844 163.453125 132.085938 161.722656 130.628906 L 164.902344 120.367188 L 156.375 115.457031 L 149.089844 123.367188 C 146.933594 122.59375 144.722656 122.003906 142.472656 121.597656 L 140.09375 111.113281 L 130.253906 111.121094 L 127.902344 121.597656 C 125.671875 122.003906 123.460938 122.609375 121.285156 123.394531 L 113.984375 115.5 L 105.46875 120.433594 L 108.671875 130.695312 C 106.902344 132.191406 105.28125 133.808594 103.820312 135.542969 L 93.566406 132.363281 L 88.65625 140.894531 L 96.5625 148.179688 C 95.792969 150.332031 95.203125 152.550781 94.796875 154.800781 L 84.3125 157.179688 L 84.324219 167.027344 L 94.796875 169.378906 C 95.203125 171.609375 95.800781 173.820312 96.589844 176 L 88.699219 183.300781 L 93.628906 191.820312 L 103.890625 188.617188 C 105.386719 190.382812 107.003906 192.003906 108.734375 193.46875 L 105.558594 203.730469 L 114.085938 208.640625 L 121.367188 200.730469 C 123.523438 201.503906 125.734375 202.09375 127.984375 202.5 L 130.363281 212.984375 L 140.207031 212.976562 L 142.554688 202.5 C 144.785156 202.09375 146.996094 201.488281 149.171875 200.703125 L 156.472656 208.597656 L 164.992188 203.660156 L 161.785156 193.402344 C 163.554688 191.902344 165.175781 190.285156 166.636719 188.550781 L 176.890625 191.734375 L 181.804688 183.203125 L 173.894531 175.917969 C 174.664062 173.757812 175.257812 171.546875 175.660156 169.296875 L 186.148438 166.914062 L 186.136719 157.070312 L 175.660156 154.71875 C 175.257812 152.488281 174.65625 150.277344 173.867188 148.097656 L 181.757812 140.796875 "/><path style=" stroke:none;fill-rule:nonzero;fill:#000000;fill-opacity:1;" d="M 143.242188 182.738281 L 143.25 182.738281 Z M 130.507812 136.789062 C 126.34375 136.789062 122.230469 137.882812 118.527344 140.023438 C 107.074219 146.65625 103.148438 161.375 109.777344 172.832031 C 116.40625 184.289062 131.117188 188.210938 142.570312 181.582031 C 154.023438 174.953125 157.949219 160.234375 151.320312 148.777344 C 148.109375 143.226562 142.929688 139.257812 136.734375 137.605469 C 134.675781 137.058594 132.585938 136.789062 130.507812 136.789062 Z M 130.59375 187.480469 C 121.378906 187.480469 112.40625 182.703125 107.464844 174.167969 C 100.097656 161.4375 104.460938 145.082031 117.1875 137.714844 C 123.355469 134.144531 130.539062 133.1875 137.425781 135.023438 C 144.308594 136.859375 150.0625 141.269531 153.632812 147.4375 C 161 160.171875 156.636719 176.527344 143.910156 183.894531 C 139.714844 186.324219 135.125 187.480469 130.59375 187.480469 Z M 116.691406 198.148438 C 116.839844 198.148438 116.992188 198.175781 117.140625 198.226562 C 119.21875 198.972656 121.371094 199.546875 123.542969 199.9375 C 124.070312 200.03125 124.492188 200.433594 124.609375 200.957031 L 126.75 210.402344 L 134.453125 210.394531 L 136.570312 200.957031 C 136.6875 200.433594 137.109375 200.03125 137.636719 199.9375 C 139.777344 199.546875 141.929688 198.96875 144.039062 198.203125 C 144.542969 198.015625 145.109375 198.152344 145.476562 198.550781 L 152.050781 205.65625 L 158.71875 201.796875 L 155.828125 192.550781 C 155.671875 192.039062 155.832031 191.484375 156.242188 191.132812 C 157.953125 189.691406 159.53125 188.109375 160.9375 186.441406 C 161.285156 186.035156 161.839844 185.871094 162.351562 186.03125 L 171.585938 188.894531 L 175.433594 182.214844 L 168.308594 175.65625 C 167.914062 175.289062 167.777344 174.726562 167.957031 174.21875 C 168.699219 172.136719 169.277344 169.984375 169.664062 167.8125 C 169.757812 167.285156 170.160156 166.867188 170.683594 166.746094 L 180.128906 164.605469 L 180.121094 156.898438 L 170.6875 154.78125 C 170.164062 154.660156 169.761719 154.242188 169.664062 153.714844 C 169.277344 151.574219 168.695312 149.417969 167.929688 147.3125 C 167.75 146.800781 167.886719 146.238281 168.28125 145.871094 L 175.386719 139.296875 L 171.527344 132.628906 L 162.285156 135.515625 C 161.773438 135.671875 161.214844 135.507812 160.867188 135.101562 C 159.417969 133.386719 157.84375 131.808594 156.183594 130.402344 C 155.769531 130.058594 155.609375 129.5 155.765625 128.988281 L 158.628906 119.75 L 151.953125 115.902344 L 145.394531 123.03125 C 145.027344 123.421875 144.464844 123.5625 143.960938 123.378906 C 141.882812 122.636719 139.726562 122.0625 137.554688 121.671875 C 137.027344 121.578125 136.609375 121.175781 136.488281 120.652344 L 134.347656 111.203125 L 126.644531 111.214844 L 124.527344 120.652344 C 124.410156 121.175781 123.988281 121.578125 123.460938 121.671875 C 121.320312 122.0625 119.164062 122.640625 117.058594 123.40625 C 116.550781 123.589844 115.988281 123.449219 115.625 123.058594 L 109.050781 115.945312 L 102.378906 119.8125 L 105.269531 129.054688 C 105.425781 129.570312 105.265625 130.125 104.855469 130.476562 C 103.144531 131.917969 101.566406 133.496094 100.164062 135.160156 C 99.816406 135.574219 99.257812 135.738281 98.746094 135.578125 L 89.511719 132.714844 L 85.667969 139.394531 L 92.789062 145.953125 C 93.183594 146.316406 93.320312 146.882812 93.140625 147.386719 C 92.394531 149.472656 91.820312 151.625 91.433594 153.792969 C 91.339844 154.320312 90.9375 154.742188 90.414062 154.863281 L 80.96875 157.003906 L 80.976562 164.710938 L 90.410156 166.828125 C 90.933594 166.945312 91.335938 167.367188 91.433594 167.894531 C 91.820312 170.035156 92.402344 172.191406 93.167969 174.300781 C 93.351562 174.804688 93.214844 175.371094 92.820312 175.738281 L 85.714844 182.3125 L 89.570312 188.980469 L 98.8125 186.09375 C 99.328125 185.933594 99.882812 186.09375 100.230469 186.507812 C 101.675781 188.214844 103.253906 189.796875 104.917969 191.203125 C 105.328125 191.550781 105.492188 192.105469 105.332031 192.621094 L 102.46875 201.859375 L 109.144531 205.707031 L 115.707031 198.578125 C 115.964844 198.296875 116.324219 198.148438 116.691406 198.148438 Z M 125.683594 213.078125 C 125.058594 213.078125 124.519531 212.648438 124.378906 212.039062 L 122.195312 202.402344 C 120.46875 202.054688 118.753906 201.59375 117.078125 201.035156 L 110.386719 208.300781 C 109.964844 208.761719 109.28125 208.867188 108.738281 208.554688 L 100.210938 203.640625 C 99.667969 203.328125 99.414062 202.683594 99.601562 202.085938 L 102.519531 192.664062 C 101.207031 191.507812 99.953125 190.246094 98.773438 188.910156 L 89.347656 191.855469 C 88.753906 192.039062 88.109375 191.785156 87.796875 191.246094 L 82.867188 182.726562 C 82.550781 182.183594 82.65625 181.496094 83.113281 181.074219 L 90.363281 174.367188 C 89.789062 172.675781 89.320312 170.960938 88.972656 169.246094 L 79.351562 167.085938 C 78.742188 166.949219 78.308594 166.40625 78.308594 165.78125 L 78.296875 155.9375 C 78.296875 155.3125 78.730469 154.769531 79.335938 154.628906 L 88.96875 152.449219 C 89.316406 150.71875 89.773438 149.003906 90.335938 147.328125 L 83.070312 140.632812 C 82.613281 140.210938 82.503906 139.523438 82.816406 138.980469 L 87.730469 130.453125 C 88.042969 129.914062 88.683594 129.65625 89.28125 129.839844 L 98.699219 132.761719 C 99.859375 131.453125 101.117188 130.195312 102.457031 129.011719 L 99.511719 119.585938 C 99.324219 118.988281 99.578125 118.34375 100.117188 118.03125 L 108.636719 113.097656 C 109.179688 112.789062 109.863281 112.890625 110.285156 113.351562 L 116.988281 120.597656 C 118.679688 120.027344 120.398438 119.558594 122.113281 119.207031 L 124.269531 109.585938 C 124.40625 108.976562 124.949219 108.539062 125.570312 108.539062 L 135.414062 108.53125 C 136.039062 108.53125 136.578125 108.960938 136.71875 109.570312 L 138.902344 119.207031 C 140.632812 119.554688 142.347656 120.011719 144.019531 120.574219 L 150.710938 113.304688 C 151.132812 112.847656 151.816406 112.738281 152.359375 113.054688 L 160.890625 117.964844 C 161.429688 118.277344 161.683594 118.925781 161.5 119.523438 L 158.578125 128.945312 C 159.890625 130.101562 161.144531 131.355469 162.324219 132.699219 L 171.75 129.753906 C 172.347656 129.570312 172.992188 129.820312 173.304688 130.359375 L 178.234375 138.882812 C 178.546875 139.425781 178.441406 140.105469 177.984375 140.53125 L 170.738281 147.238281 C 171.3125 148.933594 171.777344 150.648438 172.125 152.363281 L 181.75 154.523438 C 182.355469 154.660156 182.789062 155.199219 182.792969 155.828125 L 182.800781 165.671875 C 182.804688 166.296875 182.371094 166.839844 181.761719 166.972656 L 172.128906 169.160156 C 171.78125 170.886719 171.324219 172.601562 170.761719 174.277344 L 178.027344 180.976562 C 178.488281 181.394531 178.59375 182.085938 178.28125 182.621094 L 173.371094 191.15625 C 173.058594 191.695312 172.417969 191.953125 171.816406 191.761719 L 162.398438 188.839844 C 161.238281 190.152344 159.980469 191.414062 158.640625 192.589844 L 161.585938 202.019531 C 161.773438 202.613281 161.523438 203.261719 160.980469 203.574219 L 152.460938 208.507812 C 151.921875 208.820312 151.238281 208.71875 150.8125 208.257812 L 144.109375 201.011719 C 142.417969 201.582031 140.699219 202.046875 138.988281 202.398438 L 136.828125 212.023438 C 136.691406 212.632812 136.152344 213.0625 135.527344 213.070312 L 125.683594 213.078125 "/><path style=" stroke:none;fill-rule:nonzero;fill:#ffffff;fill-opacity:1;" d="M 475.25 250.558594 L 454.890625 250.558594 L 454.890625 193.578125 L 475.25 193.578125 C 480.144531 193.578125 484.117188 197.550781 484.117188 202.445312 L 484.117188 241.691406 C 484.117188 246.589844 480.144531 250.558594 475.25 250.558594 "/><path style=" stroke:none;fill-rule:nonzero;fill:#000000;fill-opacity:1;" d="M 456.226562 249.226562 L 458.074219 249.226562 C 471.695312 249.226562 482.78125 238.140625 482.78125 224.507812 L 482.78125 219.628906 C 482.78125 206 471.695312 194.914062 458.074219 194.914062 L 456.226562 194.914062 Z M 458.074219 251.898438 L 454.886719 251.898438 C 454.152344 251.898438 453.554688 251.300781 453.554688 250.5625 L 453.554688 193.578125 C 453.554688 192.835938 454.152344 192.238281 454.886719 192.238281 L 458.074219 192.238281 C 473.167969 192.238281 485.449219 204.527344 485.449219 219.628906 L 485.449219 224.507812 C 485.449219 239.609375 473.167969 251.898438 458.074219 251.898438 "/><path style=" stroke:none;fill-rule:nonzero;fill:#ffffff;fill-opacity:1;" d="M 177.339844 250.558594 L 197.699219 250.558594 L 197.699219 193.578125 L 177.339844 193.578125 C 172.441406 193.578125 168.476562 197.550781 168.476562 202.445312 L 168.476562 241.691406 C 168.476562 246.589844 172.441406 250.558594 177.339844 250.558594 "/><path style=" stroke:none;fill-rule:nonzero;fill:#000000;fill-opacity:1;" d="M 194.515625 194.914062 C 180.894531 194.914062 169.8125 206 169.8125 219.628906 L 169.8125 224.507812 C 169.8125 238.140625 180.894531 249.226562 194.515625 249.226562 L 196.363281 249.226562 L 196.363281 194.914062 Z M 197.699219 251.898438 L 194.515625 251.898438 C 179.417969 251.898438 167.136719 239.609375 167.136719 224.507812 L 167.136719 219.628906 C 167.136719 204.527344 179.417969 192.238281 194.515625 192.238281 L 197.699219 192.238281 C 198.4375 192.238281 199.035156 192.835938 199.035156 193.578125 L 199.035156 250.5625 C 199.035156 251.300781 198.4375 251.898438 197.699219 251.898438 "/><path style=" stroke:none;fill-rule:nonzero;fill:#ffffff;fill-opacity:1;" d="M 188.492188 219.714844 C 188.492188 158.488281 250.1875 95.148438 326.292969 95.148438 C 402.398438 95.148438 464.089844 158.488281 464.089844 219.714844 C 464.089844 280.949219 402.398438 316.886719 326.292969 316.886719 C 250.1875 316.886719 188.492188 280.949219 188.492188 219.714844 "/><path style=" stroke:none;fill-rule:nonzero;fill:#000000;fill-opacity:1;" d="M 326.292969 96.484375 C 248.1875 96.484375 189.828125 161.542969 189.828125 219.714844 C 189.828125 248.433594 203.578125 272.792969 229.59375 290.152344 C 254.140625 306.527344 288.484375 315.546875 326.292969 315.546875 C 364.101562 315.546875 398.441406 306.527344 422.988281 290.152344 C 449.003906 272.792969 462.757812 248.433594 462.757812 219.714844 C 462.757812 161.542969 404.398438 96.484375 326.292969 96.484375 Z M 326.292969 318.226562 C 287.960938 318.226562 253.09375 309.046875 228.113281 292.375 C 201.316406 274.496094 187.15625 249.375 187.15625 219.714844 C 187.15625 189.332031 202.019531 157.90625 227.9375 133.496094 C 255.109375 107.902344 290.035156 93.808594 326.292969 93.808594 C 362.546875 93.808594 397.480469 107.902344 424.648438 133.496094 C 450.566406 157.90625 465.425781 189.332031 465.425781 219.714844 C 465.425781 249.375 451.265625 274.496094 424.476562 292.375 C 399.496094 309.046875 364.625 318.226562 326.292969 318.226562 "/><path style=" stroke:none;fill-rule:nonzero;fill:#ffffff;fill-opacity:1;" d="M 360.808594 335.277344 L 291.777344 335.277344 C 261.519531 335.277344 236.992188 359.820312 236.992188 390.089844 C 236.992188 410.085938 238.941406 430.035156 242.816406 449.65625 L 252.738281 499.941406 C 259.675781 535.082031 290.484375 560.414062 326.292969 560.414062 C 362.101562 560.414062 392.910156 535.082031 399.847656 499.941406 L 409.773438 449.65625 C 413.644531 430.035156 415.597656 410.085938 415.597656 390.089844 C 415.597656 359.820312 391.070312 335.277344 360.808594 335.277344 "/><path style=" stroke:none;fill-rule:nonzero;fill:#000000;fill-opacity:1;" d="M 291.777344 336.617188 C 262.304688 336.617188 238.328125 360.605469 238.328125 390.089844 C 238.328125 409.953125 240.277344 429.902344 244.125 449.398438 L 254.050781 499.683594 C 260.84375 534.097656 291.222656 559.078125 326.292969 559.078125 C 361.363281 559.078125 391.742188 534.097656 398.539062 499.683594 L 408.460938 449.398438 C 412.308594 429.910156 414.261719 409.957031 414.261719 390.089844 C 414.261719 360.605469 390.28125 336.617188 360.808594 336.617188 Z M 326.292969 561.753906 C 289.953125 561.753906 258.46875 535.863281 251.429688 500.199219 L 241.503906 449.914062 C 237.625 430.25 235.65625 410.125 235.65625 390.089844 C 235.65625 359.128906 260.832031 333.941406 291.777344 333.941406 L 360.808594 333.941406 C 391.753906 333.941406 416.933594 359.128906 416.933594 390.089844 C 416.933594 410.128906 414.960938 430.257812 411.082031 449.914062 L 401.160156 500.199219 C 394.117188 535.863281 362.632812 561.753906 326.292969 561.753906 "/><path style=" stroke:none;fill-rule:nonzero;fill:#5479f7;fill-opacity:1;" d="M 329.511719 456.714844 L 323.074219 456.714844 C 304.097656 456.714844 288.71875 441.328125 288.71875 422.34375 L 288.71875 335.277344 L 363.871094 335.277344 L 363.871094 422.34375 C 363.871094 441.328125 348.488281 456.714844 329.511719 456.714844 "/><path style=" stroke:none;fill-rule:nonzero;fill:#000000;fill-opacity:1;" d="M 363.871094 336.617188 L 288.71875 336.617188 C 287.976562 336.617188 287.378906 336.019531 287.378906 335.277344 C 287.378906 334.542969 287.976562 333.941406 288.71875 333.941406 L 363.871094 333.941406 C 364.609375 333.941406 365.207031 334.542969 365.207031 335.277344 C 365.207031 336.019531 364.609375 336.617188 363.871094 336.617188 "/><path style=" stroke:none;fill-rule:nonzero;fill:#000000;fill-opacity:1;" d="M 418.9375 201.339844 L 286.242188 201.339844 C 272.453125 201.339844 261.28125 213.386719 261.28125 228.246094 L 261.28125 245.800781 C 261.28125 257.132812 267.328125 269.144531 277.753906 271.105469 C 314.527344 278.015625 390.648438 278.015625 427.417969 271.105469 C 437.851562 269.144531 443.898438 257.132812 443.898438 245.800781 L 443.898438 228.246094 C 443.898438 213.386719 432.722656 201.339844 418.9375 201.339844 "/><path style=" stroke:none;fill-rule:nonzero;fill:#5479f7;fill-opacity:1;" d="M 322.210938 236.664062 C 322.210938 241.648438 318.46875 245.683594 313.847656 245.683594 C 309.230469 245.683594 305.488281 241.648438 305.488281 236.664062 C 305.488281 231.6875 309.230469 227.652344 313.847656 227.652344 C 318.46875 227.652344 322.210938 231.6875 322.210938 236.664062 "/><path style=" stroke:none;fill-rule:nonzero;fill:#5479f7;fill-opacity:1;" d="M 406.8125 236.664062 C 406.8125 241.648438 403.070312 245.683594 398.453125 245.683594 C 393.835938 245.683594 390.089844 241.648438 390.089844 236.664062 C 390.089844 231.6875 393.835938 227.652344 398.453125 227.652344 C 403.070312 227.652344 406.8125 231.6875 406.8125 236.664062 "/><path style=" stroke:none;fill-rule:nonzero;fill:#ffffff;fill-opacity:1;" d="M 301.269531 409.492188 C 300.929688 409.492188 300.585938 409.363281 300.324219 409.101562 C 299.804688 408.578125 299.804688 407.730469 300.324219 407.210938 L 350.371094 357.140625 C 350.894531 356.621094 351.742188 356.621094 352.261719 357.140625 C 352.78125 357.667969 352.78125 358.511719 352.261719 359.03125 L 302.214844 409.101562 C 301.957031 409.363281 301.613281 409.492188 301.269531 409.492188 "/><path style=" stroke:none;fill-rule:nonzero;fill:#ffffff;fill-opacity:1;" d="M 312.21875 430.417969 C 311.878906 430.417969 311.535156 430.289062 311.273438 430.027344 C 310.753906 429.503906 310.753906 428.65625 311.273438 428.136719 L 339.421875 399.976562 C 339.945312 399.453125 340.792969 399.453125 341.3125 399.976562 C 341.832031 400.496094 341.832031 401.34375 341.3125 401.867188 L 313.164062 430.027344 C 312.90625 430.289062 312.5625 430.417969 312.21875 430.417969 "/><path style=" stroke:none;fill-rule:nonzero;fill:#000000;fill-opacity:1;" d="M 569.609375 241.90625 C 565.183594 241.664062 559.976562 242.84375 549.558594 245.207031 C 540.171875 247.328125 537.578125 248.761719 536.421875 251.222656 C 534.527344 255.246094 537.355469 260.207031 538.203125 261.691406 C 543 270.109375 551.785156 271.210938 557.574219 275.058594 C 576.3125 287.5 566.757812 308.628906 582.292969 321.84375 C 597.09375 334.425781 610.914062 319.644531 637.523438 331.644531 C 658.46875 341.09375 656.515625 353.242188 673.597656 358.597656 C 694.464844 365.140625 727.148438 356.34375 740.402344 330.085938 C 753.011719 305.109375 744.296875 271.765625 727.261719 263.25 C 711.789062 255.515625 699.84375 272.609375 679.164062 264.585938 C 658.777344 256.683594 657.210938 234.789062 641.300781 235.0625 C 637.496094 235.128906 638.289062 236.367188 613.253906 245.429688 C 601.648438 249.625 600.257812 249.800781 599 249.882812 C 586.515625 250.714844 583.917969 242.691406 569.609375 241.90625 "/><path style=" stroke:none;fill-rule:nonzero;fill:#5479f7;fill-opacity:1;" d="M 524.863281 370.125 C 515.953125 424.722656 514.914062 425.527344 513.707031 431.242188 C 513.707031 431.242188 510.175781 447.324219 509.195312 462.8125 C 508.34375 476.25 510.871094 556.960938 552.574219 574.734375 C 567.632812 581.152344 571.996094 569.351562 604.0625 570.636719 C 636.925781 571.949219 643.582031 583.644531 657.921875 579.546875 C 688.949219 570.679688 699.085938 504.074219 697.375 462.917969 C 695.988281 429.398438 679.308594 397.75 645.960938 334.445312 C 640.878906 324.804688 632.75 310.078125 619.652344 308.203125 C 613.644531 307.34375 611.246094 308.265625 587.136719 314.882812 C 560.914062 322.085938 554.257812 314.429688 543.003906 321.523438 C 531.375 328.855469 529.316406 342.808594 524.863281 370.125 "/><path style=" stroke:none;fill-rule:nonzero;fill:#ffffff;fill-opacity:1;" d="M 572.722656 686.25 L 572.722656 712.652344 L 585.421875 711.878906 L 587.921875 686.25 L 572.722656 686.25 "/><path style=" stroke:none;fill-rule:nonzero;fill:#000000;fill-opacity:1;" d="M 574.0625 687.585938 L 574.0625 711.230469 L 584.207031 710.613281 L 586.449219 687.585938 Z M 572.722656 713.988281 C 572.386719 713.988281 572.058594 713.859375 571.8125 713.625 C 571.542969 713.371094 571.390625 713.019531 571.390625 712.652344 L 571.390625 686.25 C 571.390625 685.511719 571.988281 684.914062 572.722656 684.914062 L 587.921875 684.914062 C 588.300781 684.914062 588.660156 685.070312 588.910156 685.347656 C 589.164062 685.632812 589.292969 686.003906 589.257812 686.378906 L 586.757812 712.007812 C 586.691406 712.660156 586.164062 713.175781 585.503906 713.210938 L 572.808594 713.984375 C 572.777344 713.984375 572.753906 713.988281 572.722656 713.988281 "/><path style=" stroke:none;fill-rule:nonzero;fill:#ffffff;fill-opacity:1;" d="M 587.328125 745.570312 C 582.15625 746.125 573.699219 746.484375 563.832031 744.789062 C 560.601562 744.230469 558.554688 741.007812 559.441406 737.847656 C 561.917969 729.046875 566.796875 712.652344 570.691406 704.796875 L 573.039062 709.078125 L 574.910156 704.558594 C 575.226562 704.023438 575.785156 703.671875 576.40625 703.613281 L 581.277344 703.15625 C 582.296875 703.0625 583.511719 704.066406 583.691406 705.070312 L 586.894531 709.078125 L 588.742188 704.316406 L 592.207031 739.542969 C 592.507812 742.546875 590.332031 745.246094 587.328125 745.570312 "/><path style=" stroke:none;fill-rule:nonzero;fill:#000000;fill-opacity:1;" d="M 570.785156 707.765625 C 566.964844 716.558594 562.554688 731.691406 560.726562 738.210938 C 560.398438 739.363281 560.574219 740.558594 561.214844 741.570312 C 561.847656 742.574219 562.878906 743.265625 564.054688 743.472656 C 573.675781 745.128906 581.945312 744.804688 587.179688 744.242188 C 589.441406 744 591.101562 741.953125 590.878906 739.675781 L 587.949219 709.898438 C 587.742188 710.164062 587.4375 710.347656 587.097656 710.402344 C 586.621094 710.472656 586.148438 710.285156 585.851562 709.917969 L 582.640625 705.910156 C 582.5 705.730469 582.40625 705.523438 582.371094 705.304688 C 582.304688 704.949219 581.664062 704.445312 581.398438 704.492188 L 576.527344 704.941406 C 576.351562 704.960938 576.195312 705.050781 576.089844 705.1875 L 574.265625 709.59375 C 574.0625 710.066406 573.613281 710.386719 573.101562 710.417969 C 572.574219 710.441406 572.105469 710.175781 571.859375 709.722656 Z M 587.324219 745.570312 L 587.332031 745.570312 Z M 578.5 747.367188 C 574.152344 747.367188 569.089844 747.050781 563.601562 746.105469 C 561.683594 745.773438 559.988281 744.644531 558.949219 743 C 557.917969 741.359375 557.628906 739.351562 558.152344 737.488281 C 560.183594 730.257812 565.355469 712.542969 569.488281 704.203125 C 569.707031 703.757812 570.160156 703.46875 570.65625 703.460938 C 571.164062 703.429688 571.617188 703.71875 571.859375 704.15625 L 572.859375 705.992188 L 573.667969 704.046875 C 573.695312 703.988281 573.722656 703.925781 573.757812 703.867188 C 574.292969 702.976562 575.242188 702.382812 576.277344 702.28125 L 581.144531 701.832031 C 582.722656 701.683594 584.417969 702.921875 584.902344 704.457031 L 586.488281 706.433594 L 587.5 703.832031 C 587.71875 703.257812 588.3125 702.914062 588.921875 702.992188 C 589.535156 703.078125 590.011719 703.570312 590.070312 704.1875 L 593.535156 739.410156 C 593.90625 743.144531 591.179688 746.503906 587.464844 746.902344 C 585.050781 747.160156 582.003906 747.367188 578.5 747.367188 "/><path style=" stroke:none;fill-rule:nonzero;fill:#000000;fill-opacity:1;" d="M 575.046875 741.386719 C 571.207031 741.386719 566.898438 741.011719 562.632812 739.894531 C 561.921875 739.703125 561.496094 738.972656 561.683594 738.261719 C 561.871094 737.546875 562.601562 737.117188 563.3125 737.308594 C 575.179688 740.425781 587.800781 737.332031 587.925781 737.304688 C 588.640625 737.121094 589.367188 737.558594 589.546875 738.273438 C 589.726562 738.988281 589.285156 739.714844 588.578125 739.894531 C 588.21875 739.984375 582.492188 741.386719 575.046875 741.386719 "/><path style=" stroke:none;fill-rule:nonzero;fill:#000000;fill-opacity:1;" d="M 582.273438 727.675781 L 570.6875 727.675781 C 569.949219 727.675781 569.355469 727.074219 569.355469 726.335938 C 569.355469 725.597656 569.949219 725 570.6875 725 L 582.273438 725 C 583.015625 725 583.609375 725.597656 583.609375 726.335938 C 583.609375 727.074219 583.015625 727.675781 582.273438 727.675781 "/><path style=" stroke:none;fill-rule:nonzero;fill:#ffffff;fill-opacity:1;" d="M 666.128906 672.28125 L 669.882812 704.109375 L 681.785156 703.699219 L 681.785156 672.28125 L 666.128906 672.28125 "/><path style=" stroke:none;fill-rule:nonzero;fill:#000000;fill-opacity:1;" d="M 667.632812 673.617188 L 671.070312 702.734375 L 680.445312 702.40625 L 680.445312 673.617188 Z M 669.886719 705.449219 C 669.207031 705.449219 668.632812 704.941406 668.558594 704.269531 L 664.804688 672.4375 C 664.761719 672.058594 664.878906 671.679688 665.128906 671.390625 C 665.386719 671.109375 665.746094 670.941406 666.128906 670.941406 L 681.785156 670.941406 C 682.523438 670.941406 683.121094 671.539062 683.121094 672.28125 L 683.121094 703.699219 C 683.121094 704.417969 682.550781 705.011719 681.835938 705.035156 L 669.929688 705.449219 C 669.914062 705.449219 669.898438 705.449219 669.886719 705.449219 "/><path style=" stroke:none;fill-rule:nonzero;fill:#ffffff;fill-opacity:1;" d="M 667.054688 696.515625 C 667.054688 696.515625 665.523438 710.65625 665.996094 716.339844 C 666.335938 720.40625 671.914062 732.699219 675.0625 739.359375 C 676.359375 742.101562 678.824219 743.859375 681.5625 743.972656 C 684.90625 744.121094 689.546875 744.289062 693.292969 744.289062 C 698.441406 744.296875 701.988281 738.4375 700.152344 732.976562 C 698.453125 727.9375 695.753906 721.613281 691.515625 714.886719 C 688.324219 709.820312 683.660156 696.050781 683.660156 696.050781 L 673.957031 696.050781 L 672.054688 704.109375 L 667.054688 696.515625 "/><path style=" stroke:none;fill-rule:nonzero;fill:#000000;fill-opacity:1;" d="M 668.007812 700.402344 C 667.597656 704.96875 667.019531 712.519531 667.328125 716.230469 C 667.554688 719.027344 670.820312 727.25 676.269531 738.789062 C 677.34375 741.070312 679.394531 742.546875 681.617188 742.644531 C 684.871094 742.785156 689.542969 742.949219 693.289062 742.957031 C 693.292969 742.957031 693.292969 742.957031 693.296875 742.957031 C 695.105469 742.957031 696.726562 742.070312 697.886719 740.460938 C 699.324219 738.464844 699.699219 735.824219 698.882812 733.402344 C 696.808594 727.246094 693.949219 721.257812 690.382812 715.597656 C 687.582031 711.167969 683.808594 700.582031 682.695312 697.390625 L 675.011719 697.390625 L 673.351562 704.417969 C 673.234375 704.933594 672.808594 705.332031 672.285156 705.425781 C 671.757812 705.519531 671.230469 705.289062 670.9375 704.847656 Z M 693.296875 745.628906 C 693.292969 745.628906 693.289062 745.628906 693.285156 745.628906 C 689.492188 745.625 684.789062 745.453125 681.507812 745.3125 C 678.285156 745.171875 675.355469 743.113281 673.855469 739.933594 C 669.84375 731.449219 664.992188 720.488281 664.660156 716.449219 C 664.183594 710.703125 665.65625 696.957031 665.722656 696.371094 C 665.78125 695.8125 666.1875 695.351562 666.738281 695.21875 C 667.285156 695.082031 667.859375 695.3125 668.171875 695.78125 L 671.464844 700.789062 L 672.652344 695.746094 C 672.800781 695.140625 673.339844 694.714844 673.957031 694.714844 L 683.65625 694.714844 C 684.226562 694.714844 684.734375 695.082031 684.917969 695.625 C 684.96875 695.757812 689.566406 709.300781 692.640625 714.171875 C 696.316406 720.007812 699.269531 726.191406 701.410156 732.550781 C 702.5 735.785156 701.992188 739.328125 700.054688 742.019531 C 698.410156 744.316406 695.949219 745.628906 693.296875 745.628906 "/><path style=" stroke:none;fill-rule:nonzero;fill:#000000;fill-opacity:1;" d="M 670.414062 722.796875 C 670.417969 722.796875 670.417969 722.796875 670.417969 722.796875 C 670.417969 722.796875 670.417969 722.796875 670.414062 722.796875 Z M 685.890625 739.570312 C 681.53125 739.570312 677.570312 737.050781 675.554688 732.984375 C 671.347656 724.496094 670.449219 722.933594 670.257812 722.648438 C 669.832031 722.164062 669.808594 721.429688 670.230469 720.914062 C 670.695312 720.34375 671.535156 720.253906 672.105469 720.722656 C 672.429688 720.984375 672.703125 721.210938 677.949219 731.796875 C 679.511719 734.945312 682.550781 736.894531 685.890625 736.894531 C 685.890625 736.894531 685.898438 736.894531 685.902344 736.894531 L 696.945312 736.886719 L 696.949219 736.886719 C 697.683594 736.886719 698.277344 737.480469 698.277344 738.21875 C 698.285156 738.957031 697.6875 739.558594 696.949219 739.558594 L 685.902344 739.570312 C 685.898438 739.570312 685.890625 739.570312 685.890625 739.570312 "/><path style=" stroke:none;fill-rule:nonzero;fill:#000000;fill-opacity:1;" d="M 691.847656 728.066406 L 681.226562 728.066406 C 680.492188 728.066406 679.890625 727.46875 679.890625 726.726562 C 679.890625 725.988281 680.492188 725.390625 681.226562 725.390625 L 691.847656 725.390625 C 692.585938 725.390625 693.183594 725.988281 693.183594 726.726562 C 693.183594 727.46875 692.585938 728.066406 691.847656 728.066406 "/><path style=" stroke:none;fill-rule:nonzero;fill:#000000;fill-opacity:1;" d="M 552.316406 422.300781 C 552.316406 422.300781 553.589844 519.445312 557.664062 582.691406 C 561.75 645.9375 569.800781 694.292969 569.800781 694.292969 C 569.800781 694.292969 583.644531 699.273438 592.742188 696.664062 C 592.742188 696.664062 600.265625 641.183594 601.972656 622.4375 C 603.6875 603.683594 599.144531 594.375 598.761719 579.027344 C 598.378906 563.679688 605.375 495.917969 605.375 495.917969 C 605.375 495.917969 657.585938 649.109375 663.558594 682.941406 C 663.558594 682.941406 676.203125 685.085938 685.109375 680.21875 C 685.109375 680.21875 685.390625 619.972656 684.121094 610.664062 C 681.785156 593.417969 668.324219 576.441406 665.902344 558.128906 C 663.480469 539.804688 662.078125 493.835938 655.417969 466.265625 C 648.757812 438.691406 635.699219 407.710938 635.699219 407.710938 L 552.316406 422.300781 "/><path style=" stroke:none;fill-rule:nonzero;fill:#ffffff;fill-opacity:1;" d="M 641.269531 458.746094 C 641.101562 458.746094 640.925781 458.714844 640.765625 458.644531 C 622.816406 451.292969 617.660156 434.222656 617.449219 433.5 C 617.242188 432.789062 617.644531 432.050781 618.355469 431.84375 C 619.066406 431.628906 619.804688 432.042969 620.011719 432.75 C 620.058594 432.914062 625.054688 449.320312 641.777344 456.175781 C 642.460938 456.453125 642.785156 457.230469 642.503906 457.914062 C 642.292969 458.429688 641.792969 458.746094 641.269531 458.746094 "/><path style=" stroke:none;fill-rule:nonzero;fill:#ffffff;fill-opacity:1;" d="M 657.039062 504.015625 C 656.378906 504.015625 655.804688 503.519531 655.71875 502.851562 C 649.769531 457.113281 631.953125 426.574219 631.769531 426.273438 C 631.398438 425.636719 631.609375 424.816406 632.246094 424.441406 C 632.878906 424.066406 633.695312 424.277344 634.070312 424.910156 C 634.257812 425.21875 652.339844 456.195312 658.367188 502.503906 C 658.464844 503.234375 657.945312 503.90625 657.21875 504.003906 C 657.15625 504.011719 657.097656 504.015625 657.039062 504.015625 "/><path style=" stroke:none;fill-rule:nonzero;fill:#ffffff;fill-opacity:1;" d="M 390.339844 320.777344 L 413.101562 330.242188 L 421.410156 348.121094 C 426.386719 351.445312 431.347656 354.140625 436.265625 356.308594 C 435.371094 358.226562 434.484375 360.144531 433.640625 362.082031 C 432.269531 365.230469 430.957031 368.402344 429.652344 371.574219 C 419.707031 361.679688 415.878906 352.40625 415.878906 352.40625 C 401.839844 351.589844 401.492188 340.757812 402.1875 337.949219 C 402.878906 335.144531 401.601562 331.957031 395.148438 327.714844 C 388.089844 323.074219 390.339844 320.777344 390.339844 320.777344 "/><path style=" stroke:none;fill-rule:nonzero;fill:#000000;fill-opacity:1;" d="M 391.667969 322.773438 C 392.164062 323.625 393.324219 324.917969 395.886719 326.597656 C 402.039062 330.644531 404.453125 334.351562 403.484375 338.269531 C 403.21875 339.34375 402.996094 343.121094 405.355469 346.332031 C 407.460938 349.1875 411.03125 350.785156 415.957031 351.070312 C 416.46875 351.101562 416.914062 351.421875 417.113281 351.894531 C 417.152344 351.980469 420.601562 360.171875 429.191406 369.191406 C 430.210938 366.714844 431.289062 364.132812 432.414062 361.550781 C 433.097656 359.976562 433.800781 358.4375 434.484375 356.972656 C 429.769531 354.8125 425.128906 352.210938 420.667969 349.238281 C 420.460938 349.101562 420.300781 348.910156 420.195312 348.6875 L 412.105469 331.277344 Z M 429.652344 372.910156 C 429.300781 372.910156 428.964844 372.773438 428.710938 372.523438 C 420.214844 364.070312 416.128906 356.136719 414.988281 353.679688 C 409.640625 353.210938 405.675781 351.277344 403.203125 347.917969 C 400.535156 344.292969 400.359375 339.777344 400.886719 337.628906 C 401.304688 335.953125 401.085938 333.214844 394.414062 328.832031 C 390.835938 326.472656 388.90625 324.25 388.6875 322.214844 C 388.535156 320.792969 389.242188 319.988281 389.390625 319.84375 C 389.773438 319.449219 390.355469 319.332031 390.855469 319.542969 L 413.613281 329.007812 C 413.921875 329.136719 414.171875 329.375 414.3125 329.679688 L 422.460938 347.21875 C 427.09375 350.285156 431.917969 352.929688 436.808594 355.085938 C 437.136719 355.230469 437.394531 355.507812 437.519531 355.839844 C 437.644531 356.175781 437.632812 356.550781 437.476562 356.878906 C 436.632812 358.679688 435.730469 360.628906 434.867188 362.617188 C 433.464844 365.835938 432.132812 369.0625 430.886719 372.082031 C 430.714844 372.492188 430.351562 372.796875 429.917969 372.886719 C 429.828125 372.902344 429.738281 372.910156 429.652344 372.910156 "/><path style=" stroke:none;fill-rule:nonzero;fill:#ffffff;fill-opacity:1;" d="M 542.820312 314.941406 C 542.820312 314.941406 573.984375 310.484375 604.652344 309.59375 C 604.652344 309.59375 643.121094 409.976562 643.117188 416.75 C 643.113281 423.523438 626.691406 432.191406 604.652344 426.660156 C 582.613281 421.132812 554.609375 420.585938 538.867188 424.269531 C 515.273438 429.78125 542.820312 314.941406 542.820312 314.941406 "/><path style=" stroke:none;fill-rule:nonzero;fill:#000000;fill-opacity:1;" d="M 563.625 420.589844 C 577.359375 420.589844 592.480469 422.230469 604.980469 425.363281 C 619.984375 429.132812 632.683594 426.148438 638.609375 421.519531 C 640.628906 419.949219 641.78125 418.210938 641.78125 416.75 C 641.785156 411.996094 619.167969 351.226562 603.746094 310.953125 C 576.683594 311.804688 549.179688 315.421875 543.910156 316.140625 C 537.5625 342.871094 524.0625 411.433594 534.492188 421.925781 C 535.585938 423.027344 536.882812 423.355469 538.5625 422.96875 C 545.394531 421.367188 554.179688 420.589844 563.625 420.589844 Z M 618.503906 429.78125 C 614.195312 429.78125 609.445312 429.242188 604.328125 427.957031 C 583.597656 422.757812 555.582031 421.734375 539.167969 425.566406 C 536.609375 426.164062 534.335938 425.554688 532.59375 423.808594 C 518.847656 409.972656 540.59375 318.519531 541.527344 314.632812 C 541.648438 314.097656 542.09375 313.695312 542.632812 313.617188 C 542.949219 313.570312 574.222656 309.136719 604.613281 308.253906 C 605.207031 308.246094 605.699219 308.582031 605.902344 309.109375 C 609.84375 319.414062 644.457031 409.925781 644.453125 416.75 C 644.453125 419.074219 642.964844 421.519531 640.253906 423.625 C 636.089844 426.882812 628.484375 429.78125 618.503906 429.78125 "/><path style=" stroke:none;fill-rule:nonzero;fill:#5479f7;fill-opacity:1;" d="M 427.5 348.546875 L 413.136719 357.660156 C 413.136719 357.660156 428.28125 392.695312 461.242188 403.394531 C 494.203125 414.101562 525.355469 383.769531 525.355469 383.769531 L 522.519531 448.804688 C 522.519531 448.804688 538.441406 458.246094 538.441406 457.410156 C 538.441406 456.574219 545.402344 312.332031 545.402344 312.332031 C 545.402344 312.332031 532.546875 312.535156 526.820312 320.699219 C 521.085938 328.859375 499.394531 362.585938 474.453125 362.996094 C 449.519531 363.398438 427.5 348.546875 427.5 348.546875 "/><path style=" stroke:none;fill-rule:nonzero;fill:#000000;fill-opacity:1;" d="M 506.722656 341.949219 L 563.359375 336.109375 C 565.257812 336.109375 567.0625 337.703125 567.378906 339.671875 L 581.058594 424.117188 C 581.375 426.085938 580.089844 427.6875 578.1875 427.6875 L 518.132812 424.738281 C 516.230469 424.738281 514.238281 426.085938 513.921875 424.117188 L 500.242188 339.671875 C 499.921875 337.703125 504.828125 341.949219 506.722656 341.949219 "/><path style=" stroke:none;fill-rule:nonzero;fill:#000000;fill-opacity:1;" d="M 518.132812 423.402344 L 578.257812 426.351562 C 578.6875 426.351562 579.097656 426.171875 579.386719 425.835938 C 579.707031 425.457031 579.828125 424.925781 579.734375 424.332031 L 566.058594 339.886719 C 565.847656 338.585938 564.644531 337.480469 563.417969 337.449219 L 506.859375 343.277344 C 506.8125 343.28125 506.769531 343.285156 506.71875 343.285156 C 505.609375 343.285156 504.328125 342.59375 502.5 341.53125 C 502.300781 341.414062 502.070312 341.28125 501.832031 341.148438 L 515.226562 423.84375 C 515.46875 423.820312 515.835938 423.742188 516.101562 423.683594 C 516.710938 423.550781 517.398438 423.402344 518.132812 423.402344 Z M 578.1875 429.023438 L 518.066406 426.078125 C 517.679688 426.078125 517.171875 426.1875 516.667969 426.292969 C 515.683594 426.507812 514.566406 426.753906 513.632812 426.121094 C 513.078125 425.742188 512.730469 425.136719 512.601562 424.332031 L 498.925781 339.886719 C 498.753906 338.8125 499.332031 338.285156 499.589844 338.105469 C 500.664062 337.371094 501.925781 338.105469 503.84375 339.214844 C 504.652344 339.6875 506.148438 340.554688 506.679688 340.609375 L 563.222656 334.78125 C 563.269531 334.773438 563.3125 334.773438 563.359375 334.773438 C 565.925781 334.773438 568.273438 336.828125 568.691406 339.457031 L 582.371094 423.910156 C 582.589844 425.269531 582.242188 426.601562 581.421875 427.570312 C 580.625 428.507812 579.476562 429.023438 578.1875 429.023438 "/><path style=" stroke:none;fill-rule:nonzero;fill:#ffffff;fill-opacity:1;" d="M 501.226562 336.113281 L 561.480469 336.113281 C 563.382812 336.113281 565.179688 337.707031 565.496094 339.675781 L 579.171875 424.121094 C 579.492188 426.089844 578.210938 427.6875 576.308594 427.6875 L 516.058594 427.6875 C 514.160156 427.6875 512.355469 426.089844 512.039062 424.121094 L 498.363281 339.675781 C 498.046875 337.707031 499.332031 336.113281 501.226562 336.113281 "/><path style=" stroke:none;fill-rule:nonzero;fill:#000000;fill-opacity:1;" d="M 501.230469 337.445312 C 500.734375 337.445312 500.320312 337.625 500.039062 337.957031 C 499.710938 338.335938 499.59375 338.867188 499.6875 339.457031 L 513.363281 423.910156 C 513.578125 425.230469 514.816406 426.347656 516.058594 426.347656 L 576.316406 426.347656 C 576.8125 426.347656 577.226562 426.167969 577.515625 425.835938 C 577.832031 425.453125 577.957031 424.929688 577.863281 424.335938 L 564.1875 339.886719 C 563.972656 338.5625 562.734375 337.445312 561.488281 337.445312 Z M 576.316406 429.019531 L 516.058594 429.019531 C 513.492188 429.019531 511.148438 426.960938 510.722656 424.332031 L 497.050781 339.886719 C 496.832031 338.527344 497.179688 337.195312 498 336.226562 C 498.796875 335.285156 499.949219 334.773438 501.230469 334.773438 L 561.488281 334.773438 C 564.054688 334.773438 566.398438 336.828125 566.824219 339.457031 L 580.496094 423.910156 C 580.714844 425.265625 580.371094 426.597656 579.546875 427.5625 C 578.75 428.507812 577.605469 429.019531 576.316406 429.019531 "/><path style=" stroke:none;fill-rule:nonzero;fill:#ffffff;fill-opacity:1;" d="M 574.882812 374.347656 L 574.238281 382.292969 L 550.101562 377.902344 C 550.101562 377.902344 549.546875 378.699219 549.210938 379.992188 C 548.765625 381.71875 548.71875 384.328125 550.921875 387.082031 C 551.976562 388.394531 556.148438 388.429688 555.820312 391.03125 C 555.535156 393.308594 564.96875 395.078125 573.128906 396.59375 C 582.261719 398.292969 581.480469 385.269531 579.222656 378.601562 C 577.464844 373.40625 574.882812 374.347656 574.882812 374.347656 "/><path style=" stroke:none;fill-rule:nonzero;fill:#000000;fill-opacity:1;" d="M 557.167969 391.003906 C 558.449219 392.507812 568.128906 394.300781 573.375 395.277344 C 575.289062 395.632812 576.679688 395.261719 577.652344 394.144531 C 580.058594 391.355469 579.6875 384.132812 577.960938 379.03125 C 577.304688 377.089844 576.585938 376.261719 576.101562 375.898438 L 575.566406 382.398438 C 575.539062 382.777344 575.347656 383.121094 575.046875 383.351562 C 574.753906 383.582031 574.367188 383.671875 573.996094 383.601562 L 550.828125 379.390625 C 550.71875 379.648438 550.601562 379.964844 550.511719 380.324219 C 549.976562 382.382812 550.464844 384.371094 551.964844 386.242188 C 552.132812 386.445312 552.949219 386.761719 553.4375 386.949219 C 554.917969 387.519531 557.359375 388.464844 557.167969 391.003906 Z M 574.664062 398.078125 C 574.121094 398.078125 573.527344 398.023438 572.886719 397.90625 C 559.792969 395.476562 554.097656 394.074219 554.5 390.863281 C 554.558594 390.382812 554.121094 390.078125 552.476562 389.441406 C 551.503906 389.066406 550.492188 388.679688 549.882812 387.917969 C 547.316406 384.722656 547.398438 381.65625 547.925781 379.65625 C 548.304688 378.175781 548.9375 377.238281 549.003906 377.140625 C 549.308594 376.710938 549.824219 376.492188 550.347656 376.589844 L 573.023438 380.710938 L 573.554688 374.234375 C 573.597656 373.710938 573.941406 373.265625 574.429688 373.082031 C 574.628906 373.015625 575.667969 372.695312 576.976562 373.316406 C 578.457031 374.035156 579.640625 375.660156 580.488281 378.171875 C 582.132812 383.015625 583.269531 391.738281 579.667969 395.894531 C 578.753906 396.949219 577.183594 398.078125 574.664062 398.078125 "/><path style=" stroke:none;fill-rule:nonzero;fill:#5479f7;fill-opacity:1;" d="M 577.898438 396.28125 L 582.738281 388.925781 C 582.738281 388.925781 606.742188 393.789062 617.820312 388.925781 C 637.171875 380.417969 633.507812 350.703125 630.214844 335.917969 C 626.925781 321.125 619.648438 308.207031 619.648438 308.207031 C 619.648438 308.207031 637.425781 318.25 649.476562 340.339844 C 661.53125 362.433594 665.457031 411.871094 625.144531 420.804688 C 598.765625 426.648438 577.898438 396.28125 577.898438 396.28125 "/><path style=" stroke:none;fill-rule:nonzero;fill:#ffffff;fill-opacity:1;" d="M 645.761719 411.542969 C 645.378906 411.542969 644.996094 411.382812 644.730469 411.066406 C 644.257812 410.5 644.332031 409.65625 644.898438 409.183594 C 657.003906 399 656.179688 376.632812 656.167969 376.414062 C 656.136719 375.675781 656.714844 375.046875 657.445312 375.015625 C 658.214844 374.972656 658.804688 375.554688 658.839844 376.292969 C 658.886719 377.265625 659.71875 400.210938 646.617188 411.230469 C 646.371094 411.445312 646.0625 411.542969 645.761719 411.542969 "/><path style=" stroke:none;fill-rule:nonzero;fill:#ffffff;fill-opacity:1;" d="M 571.351562 272.496094 C 570.753906 272.855469 569.992188 272.601562 569.730469 271.953125 C 568.480469 268.875 566.46875 262.921875 562.371094 261.976562 C 557.113281 260.765625 548.605469 259.195312 547.867188 263.355469 C 547.230469 266.996094 547.984375 273.289062 544.148438 277.847656 C 543.78125 278.285156 544.09375 278.984375 544.550781 279.328125 L 546.96875 281.363281 C 547.472656 281.746094 547.910156 283.046875 547.972656 283.6875 C 548.167969 285.667969 548.410156 289.871094 549.101562 290.417969 C 550.429688 291.472656 557.074219 291.0625 557.074219 291.0625 L 562.410156 309.410156 C 562.613281 310.105469 562.207031 310.828125 561.503906 311.003906 L 555.160156 313.167969 C 555.160156 313.167969 560.253906 320.3125 576.175781 319.234375 C 586.34375 318.542969 593.792969 311.371094 593.792969 311.371094 C 593.792969 311.371094 574.011719 308.558594 571.339844 285.167969 C 571.28125 284.652344 571.503906 284.148438 571.917969 283.835938 C 573.496094 282.648438 577.742188 279.152344 577.003906 275.613281 C 576.210938 271.851562 573.402344 271.277344 571.351562 272.496094 "/><path style=" stroke:none;fill-rule:nonzero;fill:#000000;fill-opacity:1;" d="M 571.351562 272.5 L 571.363281 272.5 Z M 550.101562 289.566406 Z M 557.65625 313.726562 C 560.015625 315.582031 565.570312 318.609375 576.082031 317.894531 C 582.667969 317.453125 588.125 314.085938 590.894531 312.019531 C 585.167969 310.230469 572.160156 304.136719 570.015625 285.320312 C 569.902344 284.339844 570.324219 283.363281 571.113281 282.769531 C 572.332031 281.851562 576.269531 278.644531 575.695312 275.882812 C 575.421875 274.605469 574.875 273.75 574.117188 273.414062 C 573.5 273.144531 572.738281 273.226562 572.035156 273.648438 C 572.03125 273.648438 572.03125 273.648438 572.03125 273.648438 C 571.417969 274.015625 570.667969 274.097656 569.988281 273.871094 C 569.3125 273.644531 568.765625 273.128906 568.488281 272.460938 L 568.140625 271.589844 C 567.015625 268.742188 565.128906 263.984375 562.066406 263.28125 C 555.574219 261.78125 551.453125 261.578125 549.804688 262.667969 C 549.441406 262.90625 549.253906 263.191406 549.179688 263.589844 C 549.035156 264.429688 548.964844 265.492188 548.886719 266.617188 C 548.648438 270.210938 548.34375 274.667969 545.457031 278.347656 L 547.824219 280.34375 C 548.75 281.039062 549.234375 282.847656 549.296875 283.558594 C 549.332031 283.871094 549.363281 284.238281 549.394531 284.636719 C 549.5 285.851562 549.742188 288.597656 550.046875 289.429688 C 550.882812 289.769531 554.011719 289.914062 556.996094 289.730469 C 557.597656 289.691406 558.183594 290.09375 558.359375 290.691406 L 563.691406 309.039062 C 563.890625 309.714844 563.800781 310.460938 563.453125 311.070312 C 563.105469 311.675781 562.554688 312.101562 561.890625 312.289062 Z M 572.972656 320.679688 C 559.046875 320.679688 554.28125 314.238281 554.074219 313.941406 C 553.824219 313.601562 553.757812 313.160156 553.886719 312.757812 C 554.019531 312.355469 554.332031 312.035156 554.726562 311.90625 L 561.074219 309.742188 C 561.105469 309.730469 561.140625 309.722656 561.175781 309.714844 L 556.09375 292.457031 C 553.625 292.558594 549.609375 292.53125 548.269531 291.464844 C 547.382812 290.765625 547.109375 289.207031 546.734375 284.867188 C 546.703125 284.480469 546.671875 284.125 546.640625 283.824219 C 546.601562 283.410156 546.300781 282.597656 546.117188 282.394531 L 543.6875 280.347656 C 543.148438 279.941406 542.742188 279.253906 542.667969 278.554688 C 542.597656 277.976562 542.761719 277.417969 543.121094 276.988281 C 545.714844 273.90625 545.996094 269.761719 546.222656 266.4375 C 546.300781 265.238281 546.378906 264.105469 546.550781 263.125 C 546.746094 262.003906 547.363281 261.078125 548.324219 260.441406 C 550.710938 258.863281 555.128906 258.933594 562.664062 260.675781 C 567.101562 261.699219 569.21875 267.058594 570.625 270.601562 L 570.878906 271.230469 C 572.28125 270.46875 573.835938 270.375 575.191406 270.964844 C 576.753906 271.648438 577.859375 273.203125 578.308594 275.339844 C 579.152344 279.375 575.167969 283.0625 572.71875 284.90625 C 572.683594 284.929688 572.664062 284.976562 572.664062 285.015625 C 575.179688 307.058594 593.21875 309.9375 593.980469 310.046875 C 594.484375 310.121094 594.90625 310.476562 595.0625 310.960938 C 595.21875 311.445312 595.085938 311.980469 594.71875 312.339844 C 594.398438 312.644531 586.800781 319.855469 576.261719 320.566406 C 575.117188 320.644531 574.015625 320.679688 572.972656 320.679688 "/><path style=" stroke:none;fill-rule:nonzero;fill:#5479f7;fill-opacity:1;" d="M 64.308594 690.636719 C 23.746094 653.234375 44.742188 629.105469 44.742188 629.105469 C 44.742188 629.105469 62.863281 599.742188 126.449219 638.132812 C 190.039062 676.523438 251.585938 662.25 265.503906 656.496094 C 279.425781 650.742188 328.058594 614.566406 355.46875 612.535156 C 370.714844 611.40625 388.96875 622.875 372.957031 653.882812 C 339.84375 718.003906 249.910156 725.320312 249.910156 725.320312 C 249.910156 725.320312 206.316406 733.511719 161.53125 725.574219 C 161.53125 725.574219 104.871094 728.042969 64.308594 690.636719 "/><path style=" stroke:none;fill-rule:nonzero;fill:#ffffff;fill-opacity:1;" d="M 169.570312 698.300781 L 183.933594 706.335938 L 176.761719 721.246094 L 164.875 713.628906 L 169.570312 698.300781 "/><path style=" stroke:none;fill-rule:nonzero;fill:#000000;fill-opacity:1;" d="M 166.445312 713.050781 L 176.210938 719.304688 L 182.183594 706.890625 L 170.363281 700.273438 Z M 176.761719 722.582031 C 176.507812 722.582031 176.257812 722.507812 176.042969 722.371094 L 164.152344 714.757812 C 163.648438 714.429688 163.417969 713.8125 163.59375 713.238281 L 168.292969 697.90625 C 168.410156 697.519531 168.699219 697.210938 169.074219 697.058594 C 169.445312 696.910156 169.871094 696.933594 170.222656 697.132812 L 184.585938 705.171875 C 185.203125 705.515625 185.441406 706.28125 185.136719 706.917969 L 177.964844 721.828125 C 177.800781 722.167969 177.496094 722.425781 177.128906 722.535156 C 177.007812 722.566406 176.882812 722.582031 176.761719 722.582031 "/><path style=" stroke:none;fill-rule:nonzero;fill:#000000;fill-opacity:1;" d="M 178.296875 704.4375 C 179.960938 702.292969 183.207031 702.320312 184.816406 704.507812 L 191.789062 713.964844 L 182.371094 726.105469 L 169.898438 720.367188 C 170.753906 714.984375 175.117188 708.542969 178.296875 704.4375 "/><path style=" stroke:none;fill-rule:nonzero;fill:#ffffff;fill-opacity:1;" d="M 176.847656 714.511719 L 180.65625 710.65625 C 182.027344 709.269531 184.171875 709.003906 185.835938 710.015625 L 188.546875 711.65625 L 189.128906 710.394531 C 189.757812 709.03125 191.308594 708.355469 192.734375 708.832031 C 201.417969 711.738281 230.273438 721.683594 239.925781 728.835938 C 251.34375 737.296875 243.234375 756.121094 223.324219 754.203125 C 207.546875 752.679688 185.980469 735.078125 177.710938 727.835938 C 176.085938 726.414062 176.496094 723.785156 178.472656 722.917969 L 178.492188 722.910156 L 176.386719 719.878906 C 175.226562 718.210938 175.421875 715.953125 176.847656 714.511719 "/><path style=" stroke:none;fill-rule:nonzero;fill:#000000;fill-opacity:1;" d="M 177.800781 715.449219 C 176.824219 716.4375 176.695312 717.976562 177.484375 719.117188 L 179.589844 722.144531 C 179.816406 722.476562 179.886719 722.886719 179.777344 723.277344 C 179.667969 723.660156 179.390625 723.976562 179.023438 724.136719 C 178.492188 724.371094 178.144531 724.820312 178.058594 725.375 C 177.972656 725.929688 178.167969 726.457031 178.589844 726.832031 C 186.96875 734.167969 208.121094 751.390625 223.453125 752.871094 C 234.683594 753.953125 241.007812 748.265625 243.003906 743.0625 C 244.898438 738.121094 243.414062 733.085938 239.132812 729.90625 C 229.644531 722.875 200.894531 712.972656 192.308594 710.101562 C 191.53125 709.84375 190.6875 710.210938 190.339844 710.957031 L 189.757812 712.214844 C 189.597656 712.566406 189.296875 712.824219 188.933594 712.9375 C 188.570312 713.042969 188.175781 712.996094 187.851562 712.796875 L 185.144531 711.160156 C 184 710.464844 182.550781 710.640625 181.609375 711.59375 Z M 226.191406 755.679688 C 225.230469 755.679688 224.230469 755.632812 223.195312 755.53125 C 207.089844 753.980469 185.40625 736.347656 176.828125 728.839844 C 175.722656 727.871094 175.195312 726.425781 175.417969 724.972656 C 175.558594 724.042969 175.992188 723.210938 176.632812 722.578125 L 175.289062 720.644531 C 173.761719 718.445312 174.019531 715.472656 175.898438 713.570312 L 179.707031 709.71875 C 181.519531 707.878906 184.324219 707.53125 186.53125 708.875 L 187.960938 709.738281 C 188.90625 707.820312 191.121094 706.886719 193.15625 707.5625 C 201.835938 710.464844 230.914062 720.492188 240.722656 727.761719 C 245.933594 731.625 247.808594 738.007812 245.496094 744.019531 C 243.351562 749.601562 237.066406 755.679688 226.191406 755.679688 "/><path style=" stroke:none;fill-rule:nonzero;fill:#000000;fill-opacity:1;" d="M 201.613281 736.414062 C 201.421875 736.414062 201.226562 736.375 201.039062 736.285156 C 200.375 735.972656 200.089844 735.171875 200.410156 734.503906 L 206.855469 720.9375 C 207.175781 720.269531 207.96875 719.988281 208.636719 720.304688 C 209.304688 720.621094 209.585938 721.417969 209.269531 722.085938 L 202.820312 735.652344 C 202.59375 736.136719 202.113281 736.414062 201.613281 736.414062 "/><path style=" stroke:none;fill-rule:nonzero;fill:#000000;fill-opacity:1;" d="M 231.5 698.441406 C 231.128906 698.441406 230.761719 698.285156 230.496094 697.988281 L 228.390625 695.597656 C 228.144531 695.316406 228.027344 694.953125 228.0625 694.585938 C 228.097656 694.214844 228.28125 693.878906 228.574219 693.65625 L 295.628906 641.894531 C 296.210938 641.441406 297.050781 641.550781 297.503906 642.132812 C 297.949219 642.71875 297.847656 643.558594 297.261719 644.011719 L 231.335938 694.898438 L 232.5 696.21875 C 232.988281 696.773438 232.9375 697.621094 232.382812 698.109375 C 232.128906 698.332031 231.816406 698.441406 231.5 698.441406 "/><path style=" stroke:none;fill-rule:nonzero;fill:#ffffff;fill-opacity:1;" d="M 233.808594 701.289062 L 204.621094 711.773438 L 209.238281 727.65625 L 244.480469 718.046875 L 233.808594 701.289062 "/><path style=" stroke:none;fill-rule:nonzero;fill:#000000;fill-opacity:1;" d="M 206.253906 712.605469 L 210.15625 726.023438 L 242.378906 717.234375 L 233.257812 702.90625 Z M 209.238281 728.996094 C 208.660156 728.996094 208.125 728.617188 207.957031 728.03125 L 203.335938 712.144531 C 203.140625 711.464844 203.503906 710.75 204.167969 710.511719 L 233.359375 700.03125 C 233.945312 699.816406 234.601562 700.042969 234.9375 700.566406 L 245.605469 717.328125 C 245.832031 717.6875 245.878906 718.128906 245.726562 718.527344 C 245.570312 718.921875 245.242188 719.222656 244.832031 719.332031 L 209.589844 728.945312 C 209.472656 728.976562 209.355469 728.996094 209.238281 728.996094 "/><path style=" stroke:none;fill-rule:nonzero;fill:#000000;fill-opacity:1;" d="M 210.492188 710.828125 C 209.207031 708.4375 206 707.929688 204.050781 709.816406 L 195.617188 718.003906 L 202.910156 731.527344 L 216.15625 727.921875 C 216.195312 722.46875 212.953125 715.394531 210.492188 710.828125 "/><path style=" stroke:none;fill-rule:nonzero;fill:#ffffff;fill-opacity:1;" d="M 210.261719 721 L 207.140625 716.570312 C 206.019531 714.976562 203.949219 714.363281 202.136719 715.085938 L 199.195312 716.253906 L 198.828125 714.917969 C 198.433594 713.46875 197.015625 712.546875 195.53125 712.78125 C 186.484375 714.21875 156.386719 719.273438 145.6875 724.738281 C 133.035156 731.203125 137.933594 751.109375 157.886719 752.496094 C 173.703125 753.59375 197.871094 739.78125 207.222656 734.003906 C 209.058594 732.863281 209.085938 730.207031 207.277344 729.023438 L 207.257812 729.011719 L 209.835938 726.371094 C 211.253906 724.914062 211.433594 722.65625 210.261719 721 "/><path style=" stroke:none;fill-rule:nonzero;fill:#000000;fill-opacity:1;" d="M 195.992188 714.082031 C 195.90625 714.082031 195.824219 714.089844 195.738281 714.101562 C 186.800781 715.523438 156.8125 720.558594 146.296875 725.929688 C 141.546875 728.355469 139.253906 733.082031 140.3125 738.265625 C 141.425781 743.726562 146.722656 750.378906 157.980469 751.160156 C 158.558594 751.203125 159.152344 751.222656 159.753906 751.222656 C 175.113281 751.222656 197.402344 738.5 206.519531 732.863281 C 206.996094 732.570312 207.273438 732.082031 207.28125 731.519531 C 207.289062 730.953125 207.019531 730.453125 206.546875 730.144531 C 206.210938 729.925781 205.984375 729.566406 205.941406 729.164062 C 205.898438 728.769531 206.023438 728.363281 206.300781 728.078125 L 208.878906 725.4375 C 209.847656 724.445312 209.96875 722.902344 209.171875 721.769531 L 206.050781 717.339844 C 205.277344 716.246094 203.878906 715.828125 202.632812 716.324219 L 199.691406 717.5 C 199.335938 717.640625 198.941406 717.625 198.601562 717.457031 C 198.261719 717.285156 198.007812 716.980469 197.910156 716.613281 L 197.542969 715.269531 C 197.34375 714.558594 196.703125 714.082031 195.992188 714.082031 Z M 159.703125 753.890625 C 159.058594 753.890625 158.421875 753.871094 157.796875 753.828125 C 145.042969 752.941406 138.996094 745.179688 137.691406 738.796875 C 136.40625 732.484375 139.304688 726.5 145.082031 723.546875 C 155.949219 717.996094 186.285156 712.894531 195.320312 711.460938 C 197.441406 711.132812 199.472656 712.410156 200.089844 714.464844 L 201.640625 713.84375 C 204.03125 712.886719 206.746094 713.691406 208.230469 715.800781 L 211.351562 720.230469 C 212.894531 722.414062 212.65625 725.390625 210.792969 727.300781 L 209.144531 728.996094 C 209.679688 729.730469 209.964844 730.617188 209.953125 731.550781 C 209.933594 733.027344 209.175781 734.367188 207.921875 735.136719 C 198.601562 740.898438 175.792969 753.890625 159.703125 753.890625 "/><path style=" stroke:none;fill-rule:nonzero;fill:#000000;fill-opacity:1;" d="M 182.449219 738.542969 C 181.867188 738.542969 181.332031 738.164062 181.164062 737.574219 L 177.039062 723.132812 C 176.832031 722.417969 177.246094 721.679688 177.957031 721.480469 C 178.660156 721.277344 179.402344 721.683594 179.605469 722.394531 L 183.734375 736.839844 C 183.9375 737.550781 183.527344 738.289062 182.816406 738.496094 C 182.695312 738.527344 182.570312 738.542969 182.449219 738.542969 "/><path style=" stroke:none;fill-rule:nonzero;fill:#000000;fill-opacity:1;" d="M 159.023438 749.671875 C 158.78125 749.671875 158.535156 749.605469 158.316406 749.46875 C 141.976562 739.234375 148.503906 725.90625 148.570312 725.773438 C 148.90625 725.113281 149.710938 724.851562 150.367188 725.1875 C 151.023438 725.519531 151.285156 726.320312 150.953125 726.980469 C 150.714844 727.460938 145.535156 738.308594 159.734375 747.203125 C 160.359375 747.59375 160.546875 748.417969 160.15625 749.046875 C 159.902344 749.449219 159.46875 749.671875 159.023438 749.671875 "/><path style=" stroke:none;fill-rule:nonzero;fill:#000000;fill-opacity:1;" d="M 170.476562 696.050781 C 170.390625 696.050781 170.300781 696.042969 170.210938 696.023438 C 169.488281 695.875 169.019531 695.167969 169.167969 694.445312 L 170.015625 690.257812 C 166.757812 687.664062 151.136719 675.3125 126.550781 657.222656 C 98.945312 636.914062 92.894531 632.75 92.835938 632.710938 C 92.226562 632.292969 92.070312 631.460938 92.488281 630.851562 C 92.902344 630.242188 93.738281 630.085938 94.34375 630.503906 C 94.402344 630.546875 100.457031 634.707031 128.132812 655.070312 C 155.816406 675.4375 172.164062 688.550781 172.328125 688.679688 C 172.714844 688.992188 172.898438 689.496094 172.796875 689.992188 L 171.785156 694.976562 C 171.65625 695.613281 171.101562 696.050781 170.476562 696.050781 "/><path style=" stroke:none;fill-rule:nonzero;fill:#000000;fill-opacity:1;" d="M 314.007812 598.230469 C 311.925781 588.890625 298.613281 554.46875 288.574219 529.105469 C 280.5625 508.863281 261.195312 494.269531 238.140625 491.332031 C 220.980469 489.148438 202.375 488.707031 184.488281 490.117188 C 154.65625 492.46875 129.039062 510.734375 119.171875 536.921875 C 110.285156 560.5 100.601562 589.457031 100.378906 604.125 C 100.148438 619.75 109.585938 634.679688 119.882812 646.277344 C 132.875 660.902344 151.40625 670.023438 171.421875 671.875 C 200.015625 674.527344 244.632812 677.179688 264.898438 670.554688 C 295.976562 660.398438 319.054688 620.828125 314.007812 598.230469 "/><path style=" stroke:none;fill-rule:nonzero;fill:#ffffff;fill-opacity:1;" d="M 273.769531 552.558594 L 138.667969 552.558594 C 132.535156 552.558594 127.566406 557.53125 127.566406 563.667969 L 127.566406 653.03125 C 127.566406 659.160156 132.535156 664.132812 138.667969 664.132812 L 273.769531 664.132812 C 279.898438 664.132812 284.867188 659.160156 284.867188 653.03125 L 284.867188 563.667969 C 284.867188 557.53125 279.898438 552.558594 273.769531 552.558594 "/><path style=" stroke:none;fill-rule:nonzero;fill:#000000;fill-opacity:1;" d="M 138.667969 553.898438 C 133.28125 553.898438 128.902344 558.277344 128.902344 563.667969 L 128.902344 653.03125 C 128.902344 658.414062 133.28125 662.796875 138.667969 662.796875 L 273.769531 662.796875 C 279.152344 662.796875 283.53125 658.414062 283.53125 653.03125 L 283.53125 563.667969 C 283.53125 558.277344 279.152344 553.898438 273.769531 553.898438 Z M 273.769531 665.46875 L 138.667969 665.46875 C 131.808594 665.46875 126.230469 659.886719 126.230469 653.03125 L 126.230469 563.667969 C 126.230469 556.804688 131.808594 551.222656 138.667969 551.222656 L 273.769531 551.222656 C 280.625 551.222656 286.207031 556.804688 286.207031 563.667969 L 286.207031 653.03125 C 286.207031 659.886719 280.625 665.46875 273.769531 665.46875 "/><path style=" stroke:none;fill-rule:nonzero;fill:#caddff;fill-opacity:1;" d="M 282.71875 664.671875 L 127.414062 664.671875 C 123.554688 664.671875 120.425781 667.800781 120.425781 671.664062 C 120.425781 675.523438 123.554688 678.652344 127.414062 678.652344 L 282.71875 678.652344 C 286.578125 678.652344 289.707031 675.523438 289.707031 671.664062 C 289.707031 667.800781 286.578125 664.671875 282.71875 664.671875 "/><path style=" stroke:none;fill-rule:nonzero;fill:#000000;fill-opacity:1;" d="M 127.414062 666.007812 C 124.296875 666.007812 121.761719 668.542969 121.761719 671.664062 C 121.761719 674.78125 124.296875 677.316406 127.414062 677.316406 L 282.71875 677.316406 C 285.835938 677.316406 288.371094 674.78125 288.371094 671.664062 C 288.371094 668.542969 285.835938 666.007812 282.71875 666.007812 Z M 282.71875 679.988281 L 127.414062 679.988281 C 122.824219 679.988281 119.089844 676.253906 119.089844 671.664062 C 119.089844 667.070312 122.824219 663.332031 127.414062 663.332031 L 282.71875 663.332031 C 287.308594 663.332031 291.042969 667.070312 291.042969 671.664062 C 291.042969 676.253906 287.308594 679.988281 282.71875 679.988281 "/><path style=" stroke:none;fill-rule:nonzero;fill:#99b9ff;fill-opacity:1;" d="M 212.078125 578.066406 C 212.078125 582.539062 208.453125 586.160156 203.988281 586.160156 C 199.515625 586.160156 195.894531 582.539062 195.894531 578.066406 C 195.894531 573.597656 199.515625 569.972656 203.988281 569.972656 C 208.453125 569.972656 212.078125 573.597656 212.078125 578.066406 "/><path style=" stroke:none;fill-rule:nonzero;fill:#ffffff;fill-opacity:1;" d="M 218.167969 490.796875 L 219.621094 470.167969 C 220.605469 470.101562 221.289062 470.054688 221.488281 470.054688 C 227.242188 469.988281 229.109375 468.125 229.605469 463.394531 C 229.914062 460.441406 230.023438 456.046875 228.582031 450.554688 C 228.429688 449.96875 228.464844 449.34375 228.703125 448.785156 L 229.6875 446.480469 C 229.890625 445.726562 229.628906 444.910156 229.023438 444.414062 L 228.496094 443.984375 C 226.621094 442.445312 225.0625 440.550781 223.8125 438.449219 C 222.65625 436.519531 220.703125 432.898438 219.359375 432.253906 C 215.578125 430.449219 200.242188 422.417969 191.667969 436.445312 C 184.984375 447.386719 195.90625 462.4375 199.875 467.371094 C 200.835938 468.5625 193.398438 491.9375 193.398438 491.9375 L 183.777344 494.261719 C 183.777344 494.261719 191.199219 507.449219 213.746094 501.996094 C 229.800781 498.113281 227.25 492.136719 227.25 492.136719 L 218.167969 490.796875 "/><path style=" stroke:none;fill-rule:nonzero;fill:#000000;fill-opacity:1;" d="M 186.03125 495.09375 C 188.707031 498.210938 196.589844 504.769531 213.429688 500.695312 C 222.449219 498.515625 225.007812 495.769531 225.730469 494.324219 C 225.929688 493.929688 226.015625 493.582031 226.046875 493.3125 L 217.972656 492.121094 C 217.28125 492.019531 216.785156 491.402344 216.832031 490.703125 L 218.289062 470.070312 C 218.335938 469.410156 218.863281 468.878906 219.527344 468.832031 C 220.554688 468.761719 221.265625 468.71875 221.472656 468.71875 C 226.84375 468.65625 227.878906 467.058594 228.277344 463.257812 C 228.710938 459.117188 228.386719 455.074219 227.292969 450.894531 C 227.058594 450.011719 227.125 449.074219 227.472656 448.261719 L 228.410156 446.066406 C 228.445312 445.835938 228.355469 445.597656 228.175781 445.445312 L 227.648438 445.019531 C 225.726562 443.4375 224.046875 441.460938 222.664062 439.136719 C 222.5 438.867188 222.328125 438.566406 222.140625 438.25 C 221.371094 436.929688 219.570312 433.839844 218.785156 433.464844 L 218.371094 433.261719 C 213.941406 431.125 200.472656 424.613281 192.808594 437.144531 C 186.753906 447.054688 196.460938 460.996094 200.917969 466.53125 C 201.410156 467.144531 202.328125 468.28125 194.667969 492.34375 C 194.527344 492.789062 194.164062 493.125 193.710938 493.234375 Z M 203.351562 504.667969 C 188.308594 504.667969 182.878906 495.398438 182.613281 494.917969 C 182.40625 494.554688 182.386719 494.117188 182.550781 493.726562 C 182.71875 493.34375 183.054688 493.0625 183.460938 492.964844 L 192.351562 490.816406 C 195.484375 480.910156 198.566406 470.066406 198.628906 467.949219 C 193.734375 461.804688 183.6875 446.945312 190.53125 435.746094 C 196.449219 426.0625 206.207031 424.414062 219.535156 430.855469 L 219.9375 431.046875 C 221.355469 431.726562 222.757812 434 224.449219 436.898438 C 224.632812 437.214844 224.804688 437.503906 224.957031 437.765625 C 226.183594 439.824219 227.660156 441.566406 229.34375 442.949219 L 229.871094 443.382812 C 230.882812 444.210938 231.316406 445.566406 230.976562 446.832031 C 230.957031 446.886719 230.9375 446.949219 230.914062 447.003906 L 229.929688 449.3125 C 229.816406 449.582031 229.796875 449.90625 229.875 450.214844 C 231.054688 454.714844 231.402344 459.070312 230.933594 463.535156 C 230.351562 469.117188 227.707031 471.320312 221.503906 471.390625 C 221.402344 471.390625 221.1875 471.40625 220.871094 471.425781 L 219.585938 489.65625 L 227.441406 490.816406 C 227.902344 490.878906 228.292969 491.183594 228.476562 491.613281 C 228.550781 491.789062 229.183594 493.402344 228.121094 495.523438 C 226.464844 498.820312 221.734375 501.4375 214.058594 503.296875 C 210.042969 504.265625 206.488281 504.667969 203.351562 504.667969 "/><path style=" stroke:none;fill-rule:nonzero;fill:#000000;fill-opacity:1;" d="M 196.394531 418.617188 C 200.554688 417.71875 205.332031 418.355469 207.347656 417.613281 C 210.601562 416.417969 210.691406 412.519531 215.191406 411.421875 C 220.640625 410.097656 222.914062 412.421875 225.046875 415.671875 C 225.402344 416.210938 225.714844 416.8125 225.96875 417.5 C 229.394531 426.6875 225.070312 431.171875 223.144531 432.628906 C 223.144531 432.628906 210.886719 438.96875 208.785156 440.777344 C 206.824219 442.472656 204.558594 446.484375 205.980469 452.246094 C 206.167969 452.988281 205.84375 453.757812 205.214844 454.136719 C 204.476562 454.582031 203.523438 454.375 203.015625 453.636719 C 201.425781 451.328125 197.941406 446.855469 195.460938 447.914062 C 192.351562 449.242188 193.320312 458.582031 200.1875 459.65625 C 202.296875 459.988281 204.011719 462.148438 203.800781 464.351562 C 203.664062 465.792969 202.308594 467.542969 200.289062 468.007812 C 199.058594 468.289062 197.839844 467.792969 196.753906 467.097656 C 192.273438 464.238281 179.632812 452.097656 178.0625 441.21875 C 176.167969 428.105469 190.863281 419.808594 196.394531 418.617188 "/><path style=" stroke:none;fill-rule:nonzero;fill:#000000;fill-opacity:1;" d="M 221.167969 471.203125 C 221.152344 471.203125 221.136719 471.203125 221.125 471.199219 C 220.910156 471.191406 215.875 470.972656 212.238281 467.882812 C 211.714844 467.4375 211.648438 466.660156 212.09375 466.132812 C 212.535156 465.613281 213.320312 465.546875 213.84375 465.992188 C 216.832031 468.527344 221.171875 468.714844 221.214844 468.71875 C 221.898438 468.742188 222.433594 469.320312 222.410156 470.003906 C 222.386719 470.675781 221.835938 471.203125 221.167969 471.203125 "/><path style=" stroke:none;fill-rule:nonzero;fill:#99b9ff;fill-opacity:1;" d="M 450.15625 147.890625 C 448.984375 132.796875 450.144531 111.289062 463.09375 93.339844 C 498.910156 43.6875 603.453125 50.964844 623.761719 91.488281 C 634.078125 112.054688 622.917969 141.640625 606.261719 157.929688 C 581.625 182.011719 540.066406 181.78125 514.703125 167.308594 C 490.550781 153.519531 483.046875 127.941406 467.714844 130.320312 C 459.191406 131.644531 453.507812 140.792969 450.15625 147.890625 "/><path style=" stroke:none;fill-rule:nonzero;fill:#ffffff;fill-opacity:1;" d="M 588.246094 107.378906 L 500.222656 107.378906 C 499.488281 107.378906 498.890625 106.777344 498.890625 106.042969 C 498.890625 105.304688 499.488281 104.703125 500.222656 104.703125 L 588.246094 104.703125 C 588.984375 104.703125 589.578125 105.304688 589.578125 106.042969 C 589.578125 106.777344 588.984375 107.378906 588.246094 107.378906 "/><path style=" stroke:none;fill-rule:nonzero;fill:#ffffff;fill-opacity:1;" d="M 564.835938 122.851562 L 520.550781 122.851562 C 519.8125 122.851562 519.214844 122.253906 519.214844 121.511719 C 519.214844 120.773438 519.8125 120.175781 520.550781 120.175781 L 564.835938 120.175781 C 565.570312 120.175781 566.171875 120.773438 566.171875 121.511719 C 566.171875 122.253906 565.570312 122.851562 564.835938 122.851562 "/><path style=" stroke:none;fill-rule:nonzero;fill:#ffffff;fill-opacity:1;" d="M 680.960938 244.199219 C 683.203125 241.050781 708.433594 204.273438 692.585938 162.324219 C 681.460938 132.875 653.164062 109.015625 620.3125 107.730469 C 614.769531 107.515625 579.816406 106.152344 561.054688 134.082031 C 548.425781 152.894531 547.039062 179.175781 559.320312 198.296875 C 573.910156 221.023438 601.777344 224.261719 605.921875 224.675781 C 634.863281 227.59375 650.820312 209.015625 666.605469 217.984375 C 676.265625 223.46875 679.601562 235.71875 680.960938 244.199219 "/><path style=" stroke:none;fill-rule:nonzero;fill:#000000;fill-opacity:1;" d="M 657.148438 214.1875 C 660.578125 214.1875 663.921875 214.921875 667.265625 216.820312 C 674.402344 220.878906 679.246094 228.90625 681.679688 240.707031 C 687.863281 230.894531 704.960938 198.871094 691.335938 162.800781 C 679.648438 131.867188 651.085938 110.273438 620.257812 109.070312 C 608.308594 108.601562 578.71875 110.175781 562.164062 134.828125 C 549.515625 153.660156 548.808594 179.464844 560.441406 197.578125 C 574.28125 219.128906 600.859375 222.828125 606.046875 223.351562 C 619.777344 224.730469 630.441406 221.210938 639.847656 218.097656 C 646.027344 216.054688 651.691406 214.1875 657.148438 214.1875 Z M 680.957031 245.539062 C 680.855469 245.539062 680.753906 245.527344 680.660156 245.5 C 680.125 245.378906 679.726562 244.949219 679.636719 244.414062 C 677.589844 231.652344 672.984375 223.148438 665.945312 219.148438 C 658.316406 214.8125 650.535156 217.382812 640.691406 220.636719 C 631.023438 223.828125 620.082031 227.449219 605.777344 226.007812 C 598.191406 225.242188 572.328125 221.042969 558.195312 199.023438 C 546 180.039062 546.722656 153.027344 559.941406 133.335938 C 577.25 107.570312 607.96875 105.917969 620.363281 106.398438 C 636.371094 107.023438 651.945312 112.90625 665.414062 123.414062 C 678.125 133.324219 688.214844 146.976562 693.835938 161.855469 C 709.792969 204.101562 684.933594 240.921875 682.046875 244.980469 C 681.792969 245.332031 681.390625 245.539062 680.957031 245.539062 "/><path style=" stroke:none;fill-rule:nonzero;fill:#000000;fill-opacity:1;" d="M 665.058594 161.460938 L 582.308594 161.460938 C 581.566406 161.460938 580.972656 160.859375 580.972656 160.121094 C 580.972656 159.386719 581.566406 158.785156 582.308594 158.785156 L 665.058594 158.785156 C 665.792969 158.785156 666.394531 159.386719 666.394531 160.121094 C 666.394531 160.859375 665.792969 161.460938 665.058594 161.460938 "/><path style=" stroke:none;fill-rule:nonzero;fill:#000000;fill-opacity:1;" d="M 637.871094 172.25 L 608.265625 172.25 C 607.527344 172.25 606.929688 171.652344 606.929688 170.914062 C 606.929688 170.171875 607.527344 169.574219 608.265625 169.574219 L 637.871094 169.574219 C 638.609375 169.574219 639.207031 170.171875 639.207031 170.914062 C 639.207031 171.652344 638.609375 172.25 637.871094 172.25 "/><path style=" stroke:none;fill-rule:nonzero;fill:#ffffff;fill-opacity:1;" d="M 420.453125 732.5625 C 419.757812 732.5625 419.175781 732.023438 419.125 731.320312 C 419.078125 730.582031 419.628906 729.945312 420.367188 729.890625 C 471.691406 726.28125 521.40625 710.75 564.132812 684.992188 C 564.761719 684.609375 565.585938 684.8125 565.96875 685.445312 C 566.347656 686.078125 566.144531 686.902344 565.515625 687.28125 C 522.421875 713.257812 472.292969 728.917969 420.550781 732.5625 C 420.519531 732.5625 420.492188 732.5625 420.453125 732.5625 "/><path style=" stroke:none;fill-rule:nonzero;fill:#ffffff;fill-opacity:1;" d="M 395.429688 742.742188 C 394.667969 742.742188 393.902344 742.742188 393.132812 742.734375 C 392.398438 742.730469 391.800781 742.128906 391.808594 741.390625 C 391.816406 740.65625 392.410156 740.066406 393.144531 740.066406 C 393.148438 740.066406 393.152344 740.066406 393.15625 740.066406 C 447.128906 740.402344 500.402344 728.179688 547.179688 704.664062 C 547.84375 704.335938 548.644531 704.597656 548.976562 705.261719 C 549.304688 705.917969 549.042969 706.722656 548.382812 707.054688 C 501.890625 730.421875 449.050781 742.742188 395.429688 742.742188 "/><path style=" stroke:none;fill-rule:nonzero;fill:#ffffff;fill-opacity:1;" d="M 544.289062 717.097656 C 543.988281 717.097656 543.683594 717.128906 543.375 717.183594 C 542.082031 717.425781 540.957031 718.160156 540.210938 719.242188 C 539.464844 720.328125 539.191406 721.640625 539.429688 722.9375 C 539.667969 724.234375 540.394531 725.355469 541.484375 726.105469 C 542.566406 726.851562 543.878906 727.128906 545.179688 726.886719 C 546.46875 726.648438 547.59375 725.917969 548.34375 724.832031 C 549.085938 723.742188 549.363281 722.433594 549.125 721.136719 C 548.886719 719.84375 548.15625 718.714844 547.070312 717.972656 C 546.242188 717.398438 545.277344 717.097656 544.289062 717.097656 Z M 544.261719 729.644531 C 542.738281 729.644531 541.253906 729.1875 539.96875 728.304688 C 538.300781 727.15625 537.167969 725.421875 536.800781 723.421875 C 536.429688 721.425781 536.859375 719.402344 538.011719 717.730469 C 539.160156 716.054688 540.894531 714.925781 542.890625 714.554688 C 544.890625 714.1875 546.910156 714.617188 548.582031 715.765625 C 550.257812 716.917969 551.382812 718.65625 551.75 720.648438 C 552.121094 722.648438 551.695312 724.667969 550.542969 726.34375 C 549.390625 728.019531 547.660156 729.144531 545.664062 729.515625 C 545.195312 729.605469 544.726562 729.644531 544.261719 729.644531 "/><path style=" stroke:none;fill-rule:nonzero;fill:#ffffff;fill-opacity:1;" d="M 509.40625 732.039062 L 521.199219 741.921875 L 522.734375 726.761719 C 519.84375 728.148438 514.53125 730.542969 509.40625 732.039062 Z M 522.273438 745.898438 C 521.964844 745.898438 521.65625 745.792969 521.417969 745.585938 L 505.710938 732.429688 C 505.324219 732.101562 505.152344 731.585938 505.269531 731.089844 C 505.386719 730.597656 505.773438 730.214844 506.269531 730.101562 C 513.945312 728.339844 523.601562 723.351562 523.695312 723.304688 C 524.132812 723.078125 524.660156 723.109375 525.0625 723.386719 C 525.46875 723.660156 525.691406 724.136719 525.640625 724.625 L 523.601562 744.699219 C 523.550781 745.191406 523.234375 745.617188 522.777344 745.800781 C 522.613281 745.871094 522.441406 745.898438 522.273438 745.898438 "/><path style=" stroke:none;fill-rule:nonzero;fill:#000000;fill-opacity:1;" d="M 691.847656 554.328125 C 691.609375 554.328125 691.378906 554.269531 691.167969 554.140625 C 690.535156 553.765625 690.320312 552.949219 690.699219 552.3125 C 695.5625 544.085938 699.882812 535.40625 703.535156 526.511719 C 717.144531 493.382812 721.578125 456.972656 716.34375 421.210938 C 716.242188 420.480469 716.746094 419.800781 717.476562 419.695312 C 718.207031 419.59375 718.882812 420.097656 718.992188 420.824219 C 724.292969 457.0625 719.796875 493.957031 706.007812 527.527344 C 702.304688 536.542969 697.925781 545.339844 693 553.671875 C 692.746094 554.09375 692.304688 554.328125 691.847656 554.328125 "/><path style=" stroke:none;fill-rule:nonzero;fill:#000000;fill-opacity:1;" d="M 697.082031 572.707031 C 696.847656 572.707031 696.617188 572.648438 696.40625 572.519531 C 695.769531 572.144531 695.558594 571.320312 695.929688 570.6875 C 701.992188 560.441406 707.371094 549.632812 711.914062 538.566406 C 728.867188 497.316406 734.382812 451.976562 727.871094 407.449219 C 727.765625 406.71875 728.269531 406.039062 729.003906 405.933594 C 729.730469 405.828125 730.414062 406.328125 730.515625 407.0625 C 737.097656 452.0625 731.523438 497.886719 714.394531 539.578125 C 709.792969 550.773438 704.359375 561.691406 698.234375 572.050781 C 697.984375 572.472656 697.539062 572.707031 697.082031 572.707031 "/><path style=" stroke:none;fill-rule:nonzero;fill:#000000;fill-opacity:1;" d="M 746.445312 426.496094 L 746.457031 426.496094 Z M 741.914062 421.0625 C 740.511719 421.0625 739.175781 421.898438 738.609375 423.277344 C 738.242188 424.15625 738.25 425.128906 738.617188 426.007812 C 738.988281 426.886719 739.671875 427.570312 740.550781 427.933594 C 742.367188 428.679688 744.460938 427.808594 745.210938 425.992188 C 745.957031 424.167969 745.085938 422.082031 743.261719 421.332031 C 742.824219 421.152344 742.367188 421.0625 741.914062 421.0625 Z M 741.898438 430.875 C 741.113281 430.875 740.308594 430.722656 739.539062 430.40625 C 737.996094 429.773438 736.792969 428.574219 736.152344 427.039062 C 735.507812 425.5 735.503906 423.800781 736.140625 422.257812 C 737.449219 419.074219 741.101562 417.554688 744.285156 418.859375 C 747.464844 420.167969 748.988281 423.820312 747.683594 427.003906 C 746.691406 429.417969 744.359375 430.875 741.898438 430.875 "/><path style=" stroke:none;fill-rule:nonzero;fill:#000000;fill-opacity:1;" d="M 739.757812 444.855469 L 739.414062 450.070312 L 743.847656 447.46875 C 742.789062 446.765625 741.335938 445.820312 739.757812 444.855469 Z M 737.917969 453.835938 C 737.675781 453.835938 737.429688 453.773438 737.21875 453.640625 C 736.800781 453.378906 736.550781 452.90625 736.582031 452.414062 L 737.230469 442.503906 C 737.261719 442.042969 737.527344 441.632812 737.9375 441.414062 C 738.34375 441.195312 738.832031 441.203125 739.234375 441.433594 C 743.246094 443.75 746.957031 446.34375 747.117188 446.453125 C 747.488281 446.714844 747.699219 447.148438 747.683594 447.601562 C 747.664062 448.058594 747.417969 448.472656 747.027344 448.703125 L 738.597656 453.65625 C 738.390625 453.777344 738.160156 453.835938 737.917969 453.835938 "/><path style=" stroke:none;fill-rule:nonzero;fill:#000000;fill-opacity:1;" d="M 736.0625 499.230469 C 735.363281 499.230469 734.777344 498.6875 734.726562 497.980469 C 734.707031 497.65625 734.257812 496.816406 733.933594 496.199219 C 733.097656 494.640625 732.058594 492.699219 732.546875 490.789062 C 732.957031 489.1875 734.527344 488.042969 736.046875 486.9375 C 737.097656 486.164062 738.417969 485.203125 738.550781 484.53125 C 738.789062 483.339844 737.984375 481.738281 737.210938 480.179688 C 736.328125 478.425781 735.421875 476.609375 735.683594 474.8125 C 735.988281 472.800781 737.347656 471.121094 738.539062 469.636719 C 739.363281 468.617188 740.207031 467.566406 740.285156 466.867188 C 740.617188 463.953125 737.882812 461.699219 737.859375 461.679688 C 737.285156 461.21875 737.183594 460.378906 737.648438 459.800781 C 738.101562 459.226562 738.941406 459.125 739.519531 459.582031 C 739.679688 459.710938 743.441406 462.75 742.941406 467.164062 C 742.777344 468.640625 741.730469 469.9375 740.617188 471.316406 C 739.589844 472.59375 738.523438 473.917969 738.332031 475.210938 C 738.183594 476.167969 738.902344 477.601562 739.601562 478.988281 C 740.527344 480.851562 741.589844 482.964844 741.167969 485.058594 C 740.832031 486.75 739.199219 487.941406 737.621094 489.09375 C 736.589844 489.84375 735.308594 490.78125 735.136719 491.453125 C 734.90625 492.355469 735.667969 493.789062 736.285156 494.941406 C 736.847656 495.996094 737.335938 496.902344 737.394531 497.804688 C 737.441406 498.539062 736.886719 499.175781 736.148438 499.226562 C 736.117188 499.226562 736.089844 499.230469 736.0625 499.230469 "/><path style=" stroke:none;fill-rule:nonzero;fill:#000000;fill-opacity:1;" d="M 667.332031 99.644531 C 666.769531 99.644531 666.246094 99.289062 666.058594 98.726562 C 665.984375 98.492188 664.15625 92.796875 667.652344 88.578125 C 668.792969 87.203125 670.769531 86.566406 672.863281 85.890625 C 674.914062 85.230469 677.03125 84.550781 678.207031 83.226562 C 679.109375 82.214844 679.351562 80.121094 679.59375 78.09375 C 679.90625 75.378906 680.238281 72.574219 682.058594 70.726562 C 683.503906 69.257812 686.011719 69.128906 688.429688 69.011719 C 690.207031 68.917969 692.226562 68.8125 692.972656 68.132812 C 693.960938 67.230469 694.144531 65.167969 694.308594 63.355469 C 694.4375 61.875 694.550781 60.601562 695.082031 59.667969 C 695.449219 59.023438 696.261719 58.796875 696.90625 59.160156 C 697.546875 59.523438 697.773438 60.335938 697.40625 60.980469 C 697.167969 61.414062 697.058594 62.574219 696.964844 63.59375 C 696.777344 65.78125 696.527344 68.503906 694.773438 70.105469 C 693.316406 71.433594 690.902344 71.558594 688.566406 71.679688 C 686.75 71.769531 684.679688 71.875 683.964844 72.597656 C 682.785156 73.796875 682.511719 76.140625 682.242188 78.410156 C 681.960938 80.84375 681.667969 83.367188 680.199219 85.007812 C 678.539062 86.871094 675.960938 87.703125 673.683594 88.433594 C 672.046875 88.964844 670.351562 89.511719 669.710938 90.285156 C 667.144531 93.371094 668.589844 97.84375 668.605469 97.886719 C 668.828125 98.589844 668.453125 99.347656 667.753906 99.578125 C 667.613281 99.625 667.46875 99.644531 667.332031 99.644531 "/><path style=" stroke:none;fill-rule:nonzero;fill:#000000;fill-opacity:1;" d="M 682.660156 100.488281 L 682.667969 100.488281 Z M 687.847656 99.078125 C 687.546875 99.078125 687.230469 99.109375 686.921875 99.167969 C 685.625 99.414062 684.511719 100.148438 683.765625 101.234375 C 683.765625 101.238281 683.765625 101.238281 683.765625 101.238281 C 682.234375 103.484375 682.816406 106.5625 685.0625 108.089844 C 687.3125 109.621094 690.386719 109.039062 691.917969 106.792969 C 692.660156 105.703125 692.929688 104.390625 692.683594 103.09375 C 692.441406 101.804688 691.707031 100.679688 690.617188 99.9375 C 689.789062 99.375 688.832031 99.078125 687.847656 99.078125 Z M 687.832031 111.617188 C 686.355469 111.617188 684.867188 111.195312 683.558594 110.300781 C 680.09375 107.9375 679.195312 103.199219 681.554688 99.734375 C 682.699219 98.050781 684.425781 96.921875 686.425781 96.542969 C 688.417969 96.164062 690.441406 96.585938 692.121094 97.730469 C 693.800781 98.871094 694.933594 100.601562 695.3125 102.601562 C 695.691406 104.59375 695.269531 106.621094 694.125 108.300781 C 692.65625 110.457031 690.261719 111.617188 687.832031 111.617188 "/></g></svg>