<svg xmlns="http://www.w3.org/2000/svg" xmlns:xlink="http://www.w3.org/1999/xlink" width="1080" zoomAndPan="magnify" viewBox="0 0 810 809.999993" height="1080" preserveAspectRatio="xMidYMid meet" version="1.2"><g id="dccbafc0fe"><path style=" stroke:none;fill-rule:nonzero;fill:#e3e7f0;fill-opacity:1;" d="M 768.945312 501.320312 L 768.945312 514.003906 C 768.945312 517.199219 766.757812 520.558594 762.640625 522.992188 L 638.03125 594.8125 C 629.546875 599.597656 615.933594 599.597656 607.53125 594.8125 L 483.761719 522.824219 C 479.5625 520.558594 477.628906 517.367188 477.460938 514.171875 L 477.460938 500.984375 C 477.628906 504.09375 479.5625 507.285156 483.761719 509.554688 L 528.128906 535.425781 L 556.613281 551.972656 L 607.53125 581.539062 C 615.933594 586.328125 629.546875 586.328125 638.03125 581.539062 L 762.640625 509.722656 C 766.507812 507.453125 768.691406 504.261719 768.945312 501.320312 Z M 768.945312 501.320312 "/><path style=" stroke:none;fill-rule:nonzero;fill:#e3e7f0;fill-opacity:1;" d="M 571.484375 647.730469 L 571.484375 659.65625 C 571.484375 662.511719 569.550781 665.453125 565.773438 667.636719 L 317.5625 810.851562 C 309.914062 815.304688 297.730469 815.304688 290.253906 810.851562 L 130.101562 717.867188 C 126.40625 715.683594 124.472656 712.828125 124.472656 710.054688 L 124.472656 697.625 C 124.472656 700.394531 126.40625 703.335938 130.101562 705.519531 L 290.253906 798.503906 C 297.730469 802.871094 309.914062 802.871094 317.5625 798.503906 L 565.773438 655.203125 C 569.300781 653.105469 571.234375 650.417969 571.484375 647.730469 Z M 571.484375 647.730469 "/><path style=" stroke:none;fill-rule:nonzero;fill:#c9cee2;fill-opacity:1;" d="M 743.316406 440.507812 L 639.292969 500.566406 C 628.957031 506.53125 616.1875 506.445312 605.851562 500.480469 L 502.835938 440.59375 C 501.324219 439.753906 501.324219 437.566406 502.835938 436.644531 L 508.550781 433.367188 L 607.53125 490.90625 C 615.933594 495.695312 629.546875 495.695312 638.03125 490.90625 L 675.339844 469.402344 L 701.472656 454.367188 L 737.855469 433.367188 L 743.316406 436.558594 C 744.828125 437.398438 744.828125 439.585938 743.316406 440.507812 Z M 743.316406 440.507812 "/><path style=" stroke:none;fill-rule:nonzero;fill:#c9cee2;fill-opacity:1;" d="M 743.316406 349.875 L 639.292969 409.933594 C 628.957031 415.898438 616.1875 415.898438 605.851562 409.847656 L 502.835938 349.960938 C 501.324219 349.117188 501.324219 346.933594 502.835938 346.011719 L 508.550781 342.734375 L 539.976562 361.046875 L 568.125 377.425781 L 607.53125 400.273438 C 615.933594 405.144531 629.546875 405.144531 638.03125 400.273438 L 737.855469 342.734375 L 743.316406 345.925781 C 744.828125 346.765625 744.828125 348.953125 743.316406 349.875 Z M 743.316406 349.875 "/><path style=" stroke:none;fill-rule:nonzero;fill:#c9cee2;fill-opacity:1;" d="M 536.109375 257.457031 L 552.625 267.015625 L 623.425781 226.175781 L 693.355469 266.777344 L 709.871094 257.21875 L 623.425781 207.058594 Z M 536.109375 257.457031 "/><path style=" stroke:none;fill-rule:nonzero;fill:#2e58ff;fill-opacity:1;" d="M 727.820312 309.621094 C 728.105469 309.789062 728.359375 310 728.585938 310.257812 C 728.808594 310.519531 729 310.820312 729.152344 311.160156 C 729.308594 311.503906 729.421875 311.878906 729.5 312.292969 C 729.578125 312.703125 729.617188 313.144531 729.617188 313.609375 C 729.617188 314.074219 729.578125 314.558594 729.496094 315.0625 C 729.417969 315.5625 729.300781 316.074219 729.144531 316.59375 C 728.988281 317.113281 728.800781 317.628906 728.574219 318.144531 C 728.347656 318.660156 728.09375 319.167969 727.804688 319.660156 C 727.519531 320.152344 727.207031 320.625 726.871094 321.074219 C 726.535156 321.527344 726.179688 321.949219 725.804688 322.339844 C 725.429688 322.734375 725.042969 323.085938 724.648438 323.40625 C 724.25 323.722656 723.847656 323.996094 723.445312 324.230469 C 723.039062 324.460938 722.640625 324.644531 722.242188 324.78125 C 721.84375 324.914062 721.460938 325 721.085938 325.035156 C 720.710938 325.070312 720.359375 325.054688 720.023438 324.988281 C 719.683594 324.921875 719.375 324.804688 719.089844 324.640625 C 718.804688 324.472656 718.546875 324.261719 718.324219 324.003906 C 718.097656 323.746094 717.910156 323.445312 717.753906 323.101562 C 717.601562 322.757812 717.484375 322.382812 717.40625 321.96875 C 717.328125 321.558594 717.289062 321.121094 717.289062 320.652344 C 717.292969 320.1875 717.332031 319.703125 717.410156 319.203125 C 717.492188 318.699219 717.609375 318.1875 717.761719 317.667969 C 717.917969 317.148438 718.109375 316.632812 718.335938 316.117188 C 718.558594 315.601562 718.816406 315.097656 719.101562 314.601562 C 719.390625 314.109375 719.699219 313.636719 720.039062 313.1875 C 720.375 312.734375 720.730469 312.3125 721.105469 311.921875 C 721.480469 311.53125 721.863281 311.175781 722.261719 310.855469 C 722.660156 310.539062 723.058594 310.265625 723.464844 310.035156 C 723.867188 309.800781 724.269531 309.617188 724.667969 309.484375 C 725.0625 309.347656 725.449219 309.261719 725.820312 309.226562 C 726.195312 309.191406 726.550781 309.207031 726.886719 309.273438 C 727.222656 309.339844 727.535156 309.457031 727.820312 309.621094 Z M 727.820312 309.621094 "/><path style=" stroke:none;fill-rule:nonzero;fill:#2e58ff;fill-opacity:1;" d="M 748.195312 297.882812 C 748.480469 298.050781 748.734375 298.261719 748.960938 298.519531 C 749.183594 298.78125 749.375 299.082031 749.527344 299.421875 C 749.683594 299.765625 749.796875 300.140625 749.875 300.554688 C 749.953125 300.964844 749.992188 301.40625 749.992188 301.871094 C 749.992188 302.335938 749.953125 302.820312 749.871094 303.324219 C 749.792969 303.824219 749.675781 304.335938 749.519531 304.855469 C 749.363281 305.375 749.175781 305.890625 748.949219 306.40625 C 748.722656 306.921875 748.46875 307.425781 748.179688 307.921875 C 747.894531 308.414062 747.582031 308.886719 747.246094 309.335938 C 746.910156 309.789062 746.554688 310.210938 746.179688 310.601562 C 745.804688 310.992188 745.417969 311.347656 745.023438 311.667969 C 744.625 311.984375 744.222656 312.257812 743.820312 312.488281 C 743.414062 312.722656 743.015625 312.90625 742.617188 313.039062 C 742.21875 313.175781 741.835938 313.261719 741.460938 313.296875 C 741.085938 313.332031 740.734375 313.316406 740.398438 313.25 C 740.058594 313.183594 739.75 313.066406 739.464844 312.902344 C 739.179688 312.734375 738.921875 312.523438 738.699219 312.265625 C 738.472656 312.003906 738.285156 311.703125 738.128906 311.363281 C 737.976562 311.019531 737.859375 310.644531 737.78125 310.230469 C 737.703125 309.820312 737.664062 309.382812 737.664062 308.914062 C 737.664062 308.449219 737.707031 307.964844 737.785156 307.460938 C 737.867188 306.960938 737.984375 306.449219 738.136719 305.929688 C 738.292969 305.410156 738.484375 304.894531 738.710938 304.378906 C 738.933594 303.863281 739.191406 303.359375 739.476562 302.863281 C 739.765625 302.371094 740.074219 301.898438 740.414062 301.449219 C 740.75 300.996094 741.105469 300.574219 741.480469 300.183594 C 741.855469 299.792969 742.238281 299.4375 742.636719 299.117188 C 743.035156 298.800781 743.433594 298.527344 743.839844 298.296875 C 744.242188 298.0625 744.644531 297.878906 745.042969 297.746094 C 745.4375 297.609375 745.824219 297.523438 746.195312 297.488281 C 746.570312 297.453125 746.925781 297.46875 747.261719 297.535156 C 747.597656 297.601562 747.910156 297.71875 748.195312 297.882812 Z M 748.195312 297.882812 "/><path style=" stroke:none;fill-rule:nonzero;fill:#2e58ff;fill-opacity:1;" d="M 707.453125 321.363281 C 707.738281 321.53125 707.992188 321.742188 708.21875 322.003906 C 708.441406 322.261719 708.628906 322.5625 708.785156 322.902344 C 708.9375 323.246094 709.054688 323.621094 709.132812 324.035156 C 709.210938 324.445312 709.25 324.886719 709.25 325.351562 C 709.25 325.816406 709.210938 326.300781 709.128906 326.804688 C 709.050781 327.304688 708.933594 327.816406 708.777344 328.335938 C 708.621094 328.855469 708.429688 329.371094 708.207031 329.886719 C 707.980469 330.40625 707.726562 330.910156 707.4375 331.402344 C 707.152344 331.894531 706.839844 332.367188 706.503906 332.820312 C 706.167969 333.269531 705.808594 333.691406 705.4375 334.082031 C 705.0625 334.476562 704.675781 334.832031 704.28125 335.148438 C 703.882812 335.464844 703.480469 335.742188 703.078125 335.972656 C 702.671875 336.203125 702.269531 336.386719 701.875 336.523438 C 701.476562 336.660156 701.09375 336.742188 700.71875 336.78125 C 700.34375 336.816406 699.988281 336.800781 699.652344 336.730469 C 699.316406 336.664062 699.007812 336.550781 698.722656 336.382812 C 698.433594 336.21875 698.179688 336.003906 697.957031 335.746094 C 697.730469 335.488281 697.542969 335.1875 697.386719 334.84375 C 697.234375 334.503906 697.117188 334.125 697.039062 333.714844 C 696.960938 333.300781 696.921875 332.863281 696.921875 332.394531 C 696.921875 331.929688 696.964844 331.445312 697.042969 330.945312 C 697.121094 330.441406 697.238281 329.929688 697.394531 329.414062 C 697.550781 328.894531 697.742188 328.375 697.96875 327.859375 C 698.191406 327.34375 698.449219 326.839844 698.734375 326.347656 C 699.023438 325.851562 699.332031 325.378906 699.671875 324.929688 C 700.007812 324.476562 700.363281 324.058594 700.738281 323.664062 C 701.109375 323.273438 701.496094 322.917969 701.894531 322.601562 C 702.289062 322.28125 702.691406 322.007812 703.097656 321.777344 C 703.5 321.546875 703.902344 321.363281 704.296875 321.226562 C 704.695312 321.089844 705.082031 321.003906 705.453125 320.96875 C 705.828125 320.933594 706.183594 320.949219 706.519531 321.015625 C 706.855469 321.082031 707.167969 321.199219 707.453125 321.363281 Z M 707.453125 321.363281 "/><path style=" stroke:none;fill-rule:nonzero;fill:#2e58ff;fill-opacity:1;" d="M 727.820312 401.925781 C 728.105469 402.09375 728.359375 402.304688 728.585938 402.5625 C 728.808594 402.824219 729 403.125 729.152344 403.464844 C 729.308594 403.808594 729.421875 404.183594 729.5 404.597656 C 729.578125 405.007812 729.617188 405.449219 729.617188 405.914062 C 729.617188 406.378906 729.578125 406.863281 729.496094 407.367188 C 729.417969 407.867188 729.300781 408.378906 729.144531 408.898438 C 728.988281 409.417969 728.800781 409.933594 728.574219 410.449219 C 728.347656 410.964844 728.09375 411.472656 727.804688 411.964844 C 727.519531 412.457031 727.207031 412.929688 726.871094 413.378906 C 726.535156 413.832031 726.179688 414.253906 725.804688 414.644531 C 725.429688 415.039062 725.042969 415.390625 724.648438 415.710938 C 724.25 416.027344 723.847656 416.300781 723.445312 416.535156 C 723.039062 416.765625 722.640625 416.949219 722.242188 417.085938 C 721.84375 417.21875 721.460938 417.304688 721.085938 417.339844 C 720.710938 417.375 720.359375 417.359375 720.023438 417.292969 C 719.683594 417.226562 719.375 417.109375 719.089844 416.945312 C 718.804688 416.777344 718.546875 416.566406 718.324219 416.308594 C 718.097656 416.046875 717.910156 415.75 717.753906 415.40625 C 717.601562 415.0625 717.484375 414.6875 717.40625 414.273438 C 717.328125 413.863281 717.289062 413.425781 717.289062 412.957031 C 717.292969 412.492188 717.332031 412.007812 717.410156 411.503906 C 717.488281 411.003906 717.609375 410.492188 717.761719 409.972656 C 717.917969 409.453125 718.109375 408.9375 718.335938 408.421875 C 718.558594 407.90625 718.816406 407.402344 719.101562 406.90625 C 719.390625 406.414062 719.699219 405.941406 720.039062 405.492188 C 720.375 405.039062 720.730469 404.617188 721.105469 404.226562 C 721.480469 403.835938 721.863281 403.480469 722.261719 403.160156 C 722.660156 402.84375 723.058594 402.570312 723.464844 402.339844 C 723.867188 402.105469 724.269531 401.921875 724.667969 401.789062 C 725.0625 401.652344 725.449219 401.566406 725.820312 401.53125 C 726.195312 401.496094 726.550781 401.511719 726.886719 401.578125 C 727.222656 401.644531 727.535156 401.761719 727.820312 401.925781 Z M 727.820312 401.925781 "/><path style=" stroke:none;fill-rule:nonzero;fill:#2e58ff;fill-opacity:1;" d="M 748.1875 390.191406 C 748.472656 390.359375 748.726562 390.570312 748.953125 390.828125 C 749.175781 391.089844 749.367188 391.390625 749.519531 391.730469 C 749.675781 392.074219 749.789062 392.449219 749.871094 392.863281 C 749.949219 393.273438 749.988281 393.714844 749.984375 394.179688 C 749.984375 394.644531 749.945312 395.128906 749.867188 395.632812 C 749.785156 396.132812 749.667969 396.644531 749.511719 397.164062 C 749.355469 397.683594 749.167969 398.199219 748.941406 398.714844 C 748.714844 399.230469 748.460938 399.738281 748.171875 400.230469 C 747.886719 400.722656 747.574219 401.195312 747.238281 401.644531 C 746.902344 402.097656 746.546875 402.519531 746.171875 402.910156 C 745.796875 403.304688 745.410156 403.65625 745.015625 403.976562 C 744.617188 404.292969 744.21875 404.566406 743.8125 404.800781 C 743.40625 405.03125 743.007812 405.214844 742.609375 405.351562 C 742.214844 405.484375 741.828125 405.570312 741.453125 405.605469 C 741.082031 405.640625 740.726562 405.625 740.390625 405.558594 C 740.054688 405.492188 739.742188 405.375 739.457031 405.210938 C 739.171875 405.042969 738.914062 404.832031 738.691406 404.574219 C 738.46875 404.3125 738.277344 404.015625 738.125 403.671875 C 737.96875 403.328125 737.851562 402.953125 737.773438 402.539062 C 737.695312 402.128906 737.65625 401.691406 737.65625 401.222656 C 737.660156 400.757812 737.699219 400.273438 737.777344 399.769531 C 737.859375 399.269531 737.976562 398.757812 738.132812 398.238281 C 738.285156 397.71875 738.476562 397.203125 738.703125 396.6875 C 738.929688 396.171875 739.183594 395.667969 739.46875 395.171875 C 739.757812 394.679688 740.070312 394.207031 740.40625 393.757812 C 740.742188 393.304688 741.097656 392.882812 741.472656 392.492188 C 741.847656 392.101562 742.230469 391.746094 742.628906 391.425781 C 743.027344 391.109375 743.425781 390.835938 743.832031 390.605469 C 744.238281 390.371094 744.636719 390.1875 745.035156 390.054688 C 745.429688 389.917969 745.816406 389.832031 746.191406 389.796875 C 746.5625 389.761719 746.917969 389.777344 747.253906 389.84375 C 747.589844 389.910156 747.902344 390.027344 748.1875 390.191406 Z M 748.1875 390.191406 "/><path style=" stroke:none;fill-rule:nonzero;fill:#2e58ff;fill-opacity:1;" d="M 707.453125 413.667969 C 707.738281 413.835938 707.992188 414.046875 708.21875 414.308594 C 708.441406 414.566406 708.628906 414.867188 708.785156 415.207031 C 708.9375 415.550781 709.054688 415.925781 709.132812 416.339844 C 709.210938 416.75 709.25 417.191406 709.25 417.65625 C 709.25 418.121094 709.210938 418.605469 709.128906 419.109375 C 709.050781 419.609375 708.933594 420.121094 708.777344 420.640625 C 708.621094 421.160156 708.429688 421.675781 708.207031 422.191406 C 707.980469 422.710938 707.726562 423.214844 707.4375 423.707031 C 707.152344 424.199219 706.839844 424.671875 706.503906 425.125 C 706.167969 425.574219 705.808594 425.996094 705.4375 426.386719 C 705.0625 426.78125 704.675781 427.136719 704.28125 427.453125 C 703.882812 427.769531 703.480469 428.046875 703.078125 428.277344 C 702.671875 428.507812 702.269531 428.691406 701.875 428.828125 C 701.476562 428.964844 701.09375 429.046875 700.71875 429.082031 C 700.34375 429.121094 699.988281 429.105469 699.652344 429.035156 C 699.316406 428.96875 699.007812 428.855469 698.722656 428.6875 C 698.433594 428.523438 698.179688 428.308594 697.957031 428.050781 C 697.730469 427.792969 697.542969 427.492188 697.386719 427.148438 C 697.234375 426.808594 697.117188 426.429688 697.039062 426.019531 C 696.960938 425.605469 696.921875 425.167969 696.921875 424.699219 C 696.921875 424.234375 696.964844 423.75 697.042969 423.25 C 697.121094 422.746094 697.238281 422.234375 697.394531 421.714844 C 697.550781 421.199219 697.742188 420.679688 697.96875 420.164062 C 698.191406 419.648438 698.449219 419.144531 698.734375 418.652344 C 699.023438 418.15625 699.332031 417.683594 699.671875 417.234375 C 700.007812 416.78125 700.363281 416.363281 700.738281 415.96875 C 701.109375 415.578125 701.496094 415.222656 701.894531 414.90625 C 702.289062 414.585938 702.691406 414.3125 703.097656 414.082031 C 703.5 413.851562 703.902344 413.667969 704.296875 413.53125 C 704.695312 413.394531 705.082031 413.308594 705.453125 413.273438 C 705.828125 413.238281 706.183594 413.253906 706.519531 413.320312 C 706.855469 413.386719 707.167969 413.503906 707.453125 413.667969 Z M 707.453125 413.667969 "/><path style=" stroke:none;fill-rule:nonzero;fill:#2e58ff;fill-opacity:1;" d="M 727.8125 494.234375 C 728.097656 494.402344 728.351562 494.613281 728.578125 494.871094 C 728.800781 495.132812 728.992188 495.433594 729.144531 495.773438 C 729.300781 496.117188 729.414062 496.492188 729.496094 496.90625 C 729.574219 497.316406 729.613281 497.757812 729.609375 498.222656 C 729.609375 498.6875 729.570312 499.171875 729.492188 499.675781 C 729.410156 500.175781 729.292969 500.6875 729.136719 501.207031 C 728.984375 501.726562 728.792969 502.242188 728.566406 502.757812 C 728.339844 503.273438 728.085938 503.78125 727.796875 504.273438 C 727.511719 504.765625 727.199219 505.238281 726.863281 505.6875 C 726.527344 506.140625 726.171875 506.5625 725.796875 506.953125 C 725.421875 507.347656 725.035156 507.699219 724.640625 508.019531 C 724.242188 508.335938 723.84375 508.609375 723.4375 508.84375 C 723.03125 509.074219 722.632812 509.257812 722.234375 509.394531 C 721.839844 509.527344 721.453125 509.613281 721.078125 509.648438 C 720.707031 509.683594 720.351562 509.667969 720.015625 509.601562 C 719.679688 509.535156 719.367188 509.417969 719.082031 509.253906 C 718.796875 509.085938 718.539062 508.875 718.316406 508.617188 C 718.09375 508.359375 717.902344 508.058594 717.75 507.714844 C 717.59375 507.371094 717.476562 506.996094 717.398438 506.582031 C 717.320312 506.171875 717.28125 505.734375 717.28125 505.265625 C 717.285156 504.800781 717.324219 504.316406 717.402344 503.816406 C 717.484375 503.3125 717.601562 502.800781 717.757812 502.28125 C 717.910156 501.761719 718.101562 501.246094 718.328125 500.730469 C 718.554688 500.214844 718.808594 499.710938 719.09375 499.214844 C 719.382812 498.722656 719.695312 498.25 720.03125 497.800781 C 720.367188 497.347656 720.722656 496.925781 721.097656 496.535156 C 721.472656 496.144531 721.855469 495.789062 722.253906 495.46875 C 722.652344 495.152344 723.050781 494.878906 723.457031 494.648438 C 723.863281 494.414062 724.261719 494.230469 724.660156 494.097656 C 725.054688 493.960938 725.441406 493.875 725.816406 493.839844 C 726.1875 493.804688 726.542969 493.820312 726.878906 493.886719 C 727.214844 493.953125 727.527344 494.070312 727.8125 494.234375 Z M 727.8125 494.234375 "/><path style=" stroke:none;fill-rule:nonzero;fill:#2e58ff;fill-opacity:1;" d="M 748.179688 482.5 C 748.464844 482.667969 748.722656 482.878906 748.945312 483.136719 C 749.167969 483.398438 749.359375 483.699219 749.511719 484.039062 C 749.667969 484.382812 749.785156 484.757812 749.863281 485.171875 C 749.941406 485.582031 749.980469 486.023438 749.980469 486.488281 C 749.976562 486.953125 749.9375 487.4375 749.859375 487.941406 C 749.777344 488.441406 749.660156 488.953125 749.503906 489.472656 C 749.351562 489.992188 749.160156 490.507812 748.933594 491.023438 C 748.707031 491.539062 748.453125 492.046875 748.167969 492.539062 C 747.878906 493.03125 747.566406 493.503906 747.230469 493.953125 C 746.894531 494.40625 746.539062 494.828125 746.164062 495.21875 C 745.789062 495.613281 745.40625 495.964844 745.007812 496.285156 C 744.609375 496.601562 744.210938 496.875 743.804688 497.109375 C 743.398438 497.339844 743 497.523438 742.601562 497.660156 C 742.207031 497.792969 741.820312 497.878906 741.445312 497.914062 C 741.074219 497.949219 740.71875 497.933594 740.382812 497.867188 C 740.046875 497.800781 739.734375 497.683594 739.449219 497.519531 C 739.164062 497.351562 738.910156 497.140625 738.683594 496.882812 C 738.460938 496.621094 738.269531 496.324219 738.117188 495.980469 C 737.960938 495.636719 737.84375 495.261719 737.765625 494.847656 C 737.6875 494.4375 737.648438 494 737.652344 493.53125 C 737.652344 493.066406 737.691406 492.582031 737.769531 492.078125 C 737.851562 491.578125 737.96875 491.066406 738.125 490.546875 C 738.277344 490.027344 738.46875 489.511719 738.695312 488.996094 C 738.921875 488.480469 739.175781 487.976562 739.464844 487.480469 C 739.75 486.988281 740.0625 486.515625 740.398438 486.066406 C 740.734375 485.613281 741.089844 485.191406 741.464844 484.800781 C 741.839844 484.410156 742.226562 484.054688 742.621094 483.734375 C 743.019531 483.417969 743.417969 483.144531 743.824219 482.914062 C 744.230469 482.679688 744.628906 482.496094 745.027344 482.363281 C 745.421875 482.226562 745.808594 482.140625 746.183594 482.105469 C 746.554688 482.070312 746.910156 482.085938 747.246094 482.152344 C 747.582031 482.21875 747.894531 482.335938 748.179688 482.5 Z M 748.179688 482.5 "/><path style=" stroke:none;fill-rule:nonzero;fill:#2e58ff;fill-opacity:1;" d="M 707.453125 505.972656 C 707.738281 506.140625 707.992188 506.351562 708.21875 506.613281 C 708.441406 506.871094 708.628906 507.171875 708.785156 507.511719 C 708.9375 507.855469 709.054688 508.230469 709.132812 508.644531 C 709.210938 509.054688 709.25 509.496094 709.25 509.960938 C 709.25 510.425781 709.210938 510.910156 709.128906 511.414062 C 709.050781 511.914062 708.933594 512.425781 708.777344 512.945312 C 708.621094 513.464844 708.433594 513.980469 708.207031 514.496094 C 707.980469 515.011719 707.726562 515.519531 707.4375 516.011719 C 707.152344 516.503906 706.839844 516.976562 706.503906 517.429688 C 706.167969 517.878906 705.8125 518.300781 705.4375 518.691406 C 705.0625 519.085938 704.675781 519.4375 704.28125 519.757812 C 703.882812 520.074219 703.480469 520.347656 703.078125 520.582031 C 702.671875 520.8125 702.269531 520.996094 701.875 521.132812 C 701.476562 521.265625 701.09375 521.351562 700.71875 521.386719 C 700.34375 521.421875 699.988281 521.40625 699.652344 521.339844 C 699.316406 521.273438 699.007812 521.160156 698.722656 520.992188 C 698.433594 520.828125 698.179688 520.613281 697.957031 520.355469 C 697.730469 520.097656 697.542969 519.796875 697.386719 519.453125 C 697.234375 519.113281 697.117188 518.734375 697.039062 518.324219 C 696.960938 517.910156 696.921875 517.472656 696.921875 517.003906 C 696.921875 516.539062 696.964844 516.054688 697.042969 515.554688 C 697.121094 515.050781 697.238281 514.539062 697.394531 514.019531 C 697.550781 513.503906 697.742188 512.984375 697.96875 512.46875 C 698.191406 511.953125 698.449219 511.449219 698.734375 510.953125 C 699.023438 510.460938 699.332031 509.988281 699.671875 509.539062 C 700.007812 509.085938 700.363281 508.664062 700.738281 508.273438 C 701.109375 507.882812 701.496094 507.527344 701.894531 507.210938 C 702.289062 506.890625 702.691406 506.617188 703.097656 506.386719 C 703.5 506.15625 703.902344 505.972656 704.296875 505.835938 C 704.695312 505.699219 705.082031 505.613281 705.453125 505.578125 C 705.828125 505.542969 706.183594 505.558594 706.519531 505.625 C 706.855469 505.691406 707.167969 505.808594 707.453125 505.972656 Z M 707.453125 505.972656 "/><path style=" stroke:none;fill-rule:nonzero;fill:#e3e7f0;fill-opacity:1;" d="M 330.285156 686.882812 L 373.585938 712.070312 C 375.648438 713.269531 378.195312 713.273438 380.265625 712.082031 L 461.492188 665.171875 C 463.707031 663.890625 463.710938 660.695312 461.496094 659.410156 L 418.136719 634.277344 C 416.078125 633.082031 413.535156 633.078125 411.46875 634.269531 L 330.292969 681.121094 C 328.078125 682.402344 328.074219 685.59375 330.285156 686.882812 Z M 330.285156 686.882812 "/><path style=" stroke:none;fill-rule:nonzero;fill:#ff342b;fill-opacity:1;" d="M 281.210938 454.816406 C 280.613281 455.160156 280.148438 455.621094 279.785156 456.25 C 279.390625 456.898438 279.222656 457.527344 279.257812 458.15625 L 279.394531 458.957031 L 288.171875 484.535156 C 288.40625 485.125 288.738281 485.507812 289.203125 485.621094 C 289.671875 485.769531 290.167969 485.675781 290.765625 485.328125 C 291.363281 484.984375 291.894531 484.449219 292.390625 483.742188 C 292.886719 483.039062 293.214844 482.3125 293.378906 481.53125 L 300.4375 451.503906 L 307.609375 473.316406 C 307.8125 473.890625 308.144531 474.230469 308.609375 474.382812 C 309.109375 474.515625 309.640625 474.4375 310.238281 474.09375 C 310.832031 473.746094 311.332031 473.269531 311.792969 472.582031 C 312.257812 471.933594 312.585938 471.171875 312.851562 470.292969 L 321.421875 434.699219 L 321.550781 433.746094 C 321.582031 433.078125 321.414062 432.640625 321.050781 432.433594 C 320.652344 432.246094 320.1875 432.320312 319.589844 432.667969 C 319.125 432.933594 318.726562 433.316406 318.363281 433.871094 C 318 434.421875 317.769531 435.015625 317.601562 435.644531 L 310.253906 467.976562 L 302.710938 444.316406 C 302.542969 443.839844 302.277344 443.535156 301.84375 443.441406 C 301.410156 443.308594 300.945312 443.425781 300.414062 443.730469 C 299.886719 444.039062 299.386719 444.476562 298.957031 445.109375 C 298.527344 445.699219 298.261719 446.308594 298.097656 446.976562 L 290.714844 479.253906 L 283.207031 455.496094 C 283.039062 455.058594 282.804688 454.734375 282.4375 454.605469 C 282.105469 454.453125 281.675781 454.550781 281.210938 454.816406 Z M 281.210938 454.816406 "/><path style=" stroke:none;fill-rule:nonzero;fill:#ff342b;fill-opacity:1;" d="M 236.496094 480.625 C 235.898438 480.96875 235.433594 481.425781 235.070312 482.058594 C 234.675781 482.707031 234.511719 483.335938 234.546875 483.964844 L 234.679688 484.761719 L 243.457031 510.34375 C 243.691406 510.933594 244.027344 511.3125 244.492188 511.425781 C 244.957031 511.578125 245.453125 511.480469 246.050781 511.136719 C 246.648438 510.792969 247.179688 510.257812 247.675781 509.550781 C 248.171875 508.84375 248.503906 508.121094 248.664062 507.339844 L 255.722656 477.3125 L 262.894531 499.125 C 263.097656 499.695312 263.429688 500.039062 263.894531 500.1875 C 264.394531 500.320312 264.925781 500.242188 265.523438 499.898438 C 266.121094 499.554688 266.617188 499.078125 267.082031 498.390625 C 267.542969 497.742188 267.875 496.976562 268.136719 496.101562 L 276.707031 460.507812 L 276.839844 459.554688 C 276.871094 458.886719 276.703125 458.449219 276.335938 458.242188 C 275.96875 458.03125 275.472656 458.128906 274.875 458.472656 C 274.410156 458.742188 274.011719 459.125 273.648438 459.675781 C 273.285156 460.230469 273.054688 460.820312 272.890625 461.449219 L 265.539062 493.785156 L 257.996094 470.125 C 257.863281 469.628906 257.5625 469.34375 257.128906 469.25 C 256.699219 469.117188 256.234375 469.234375 255.703125 469.539062 C 255.171875 469.84375 254.675781 470.285156 254.242188 470.914062 C 253.8125 471.507812 253.550781 472.117188 253.386719 472.785156 L 246 505.058594 L 238.492188 481.304688 C 238.359375 480.847656 238.089844 480.542969 237.726562 480.410156 C 237.390625 480.257812 236.960938 480.355469 236.496094 480.625 Z M 236.496094 480.625 "/><path style=" stroke:none;fill-rule:nonzero;fill:#ff342b;fill-opacity:1;" d="M 191.78125 506.429688 C 191.183594 506.777344 190.722656 507.234375 190.359375 507.863281 C 189.960938 508.511719 189.796875 509.140625 189.832031 509.769531 L 189.96875 510.570312 L 198.746094 536.152344 C 198.980469 536.742188 199.3125 537.121094 199.777344 537.234375 C 200.242188 537.386719 200.742188 537.289062 201.339844 536.945312 C 201.933594 536.597656 202.464844 536.0625 202.960938 535.359375 C 203.457031 534.652344 203.789062 533.925781 203.953125 533.144531 L 211.011719 503.121094 L 218.183594 524.933594 C 218.382812 525.503906 218.714844 525.84375 219.183594 525.996094 C 219.679688 526.128906 220.210938 526.050781 220.808594 525.707031 C 221.40625 525.363281 221.9375 524.863281 222.367188 524.195312 C 222.828125 523.546875 223.160156 522.785156 223.421875 521.90625 L 231.992188 486.3125 L 232.125 485.359375 C 232.15625 484.695312 231.988281 484.257812 231.621094 484.046875 C 231.257812 483.839844 230.757812 483.9375 230.160156 484.28125 C 229.695312 484.546875 229.296875 484.929688 228.933594 485.484375 C 228.570312 486.039062 228.339844 486.628906 228.175781 487.257812 L 220.824219 519.589844 L 213.28125 495.929688 C 213.148438 495.433594 212.847656 495.152344 212.417969 495.054688 C 211.984375 494.925781 211.519531 495.039062 210.988281 495.347656 C 210.457031 495.652344 209.960938 496.09375 209.53125 496.722656 C 209.101562 497.3125 208.835938 497.925781 208.671875 498.589844 L 201.289062 530.867188 L 193.777344 507.109375 C 193.644531 506.65625 193.378906 506.351562 193.011719 506.21875 C 192.679688 506.066406 192.246094 506.164062 191.78125 506.429688 Z M 191.78125 506.429688 "/><path style=" stroke:none;fill-rule:nonzero;fill:#c9cee2;fill-opacity:1;" d="M 268.964844 13.183594 L 298.261719 30.238281 C 283.695312 21.753906 263.554688 23 241.417969 35.8125 C 201.886719 58.609375 169.34375 110.191406 162.855469 157.03125 L 133.558594 139.976562 C 139.96875 93.136719 172.589844 41.554688 212.039062 18.757812 C 234.261719 5.945312 254.402344 4.78125 268.964844 13.183594 Z M 268.964844 13.183594 "/><path style=" stroke:none;fill-rule:nonzero;fill:#c9cee2;fill-opacity:1;" d="M 18.832031 351.1875 L 48.160156 368.226562 C 37.652344 362.121094 31.140625 349.132812 31.085938 330.667969 C 30.984375 293.554688 57.09375 248.34375 89.453125 229.667969 C 95.191406 226.355469 100.71875 224.082031 105.984375 222.878906 L 76.65625 205.839844 C 71.390625 207.042969 65.863281 209.320312 60.125 212.628906 C 27.765625 231.308594 1.65625 276.519531 1.757812 313.628906 C 1.8125 332.09375 8.324219 345.082031 18.832031 351.1875 Z M 18.832031 351.1875 "/><path style=" stroke:none;fill-rule:nonzero;fill:#2e58ff;fill-opacity:1;" d="M 195.808594 223.023438 L 195.769531 203.0625 L 182.734375 210.570312 L 203.835938 163.742188 L 225.15625 186.050781 L 212.121094 193.5625 L 212.339844 248.675781 L 195.878906 258.171875 L 195.84375 241.113281 "/><path style=" stroke:none;fill-rule:nonzero;fill:#ff342b;fill-opacity:1;" d="M 265.234375 163.363281 L 265.277344 183.320312 L 278.3125 175.8125 L 257.210938 222.640625 L 235.886719 200.332031 L 248.925781 192.820312 L 248.703125 137.707031 L 265.164062 128.210938 L 265.199219 145.269531 "/><path style=" stroke:none;fill-rule:nonzero;fill:#2f2f2f;fill-opacity:1;" d="M 228.316406 289.195312 C 228.300781 290.363281 229.226562 291.3125 230.382812 291.328125 C 230.398438 291.328125 230.410156 291.328125 230.417969 291.328125 C 231.5625 291.328125 232.5 290.410156 232.519531 289.261719 L 232.59375 284.164062 L 337.765625 223.433594 C 370.589844 204.550781 397.21875 158.433594 397.132812 120.636719 C 397.125 118.511719 397 116.480469 396.828125 114.484375 L 401.121094 112.007812 C 402.125 111.425781 402.472656 110.136719 401.890625 109.136719 C 401.316406 108.128906 400.023438 107.789062 399.019531 108.363281 L 396.246094 109.96875 C 394.191406 96.679688 388.324219 86.832031 379.363281 81.707031 C 378.230469 80.558594 384.308594 84.546875 349.714844 64.316406 C 341.84375 59.707031 332.121094 58.96875 321.550781 61.859375 C 317.757812 45.097656 309.039062 34.109375 299.320312 28.429688 L 270.015625 11.367188 C 254.714844 2.546875 234.496094 4.132812 213.070312 15.851562 C 212.054688 16.410156 211.679688 17.691406 212.238281 18.707031 C 212.796875 19.726562 214.074219 20.085938 215.089844 19.542969 C 235.183594 8.535156 253.941406 6.945312 267.910156 15 L 281.421875 22.867188 C 270.972656 21.992188 255.886719 24.996094 240.300781 33.988281 C 200.496094 56.988281 168.578125 108.199219 161.238281 153.660156 L 135.835938 138.871094 C 139.226562 115.96875 149.183594 91.222656 163.957031 69.023438 C 164.601562 68.054688 164.339844 66.753906 163.375 66.113281 C 162.40625 65.472656 161.105469 65.726562 160.460938 66.695312 C 145.328125 89.421875 135.179688 114.792969 131.714844 138.324219 C 104.707031 143.664062 81.410156 176.949219 74.941406 204.191406 C 62.625 207.371094 51.488281 214.84375 42.078125 223.46875 C 41.226562 224.253906 41.167969 225.582031 41.953125 226.4375 C 42.738281 227.296875 44.074219 227.347656 44.917969 226.566406 C 53.609375 218.601562 64.835938 210.9375 76.328125 208.078125 L 100.65625 222.210938 C 71.253906 232.105469 39.542969 269.890625 31.054688 311.65625 C 27.945312 326.84375 27.683594 345.175781 35.664062 358.535156 L 19.886719 349.375 C 9.597656 343.394531 3.90625 330.695312 3.863281 313.617188 C 3.828125 302.832031 6.144531 291.035156 10.730469 278.558594 C 11.128906 277.476562 10.570312 276.269531 9.484375 275.867188 C 8.386719 275.464844 7.195312 276.023438 6.785156 277.113281 C 2.023438 290.050781 -0.371094 302.339844 -0.339844 313.632812 C -0.289062 332.261719 6.144531 346.246094 17.777344 353 C 18.621094 353.488281 49.1875 371.230469 47.222656 370.101562 C 60.847656 377.9375 77.285156 373.816406 90.90625 365.976562 L 228.355469 286.609375 Z M 133.125 142.203125 L 157.21875 156.195312 C 132.140625 163.863281 111.285156 193.675781 104.601562 219.644531 L 79.054688 204.804688 C 85.746094 177.144531 109.09375 146.53125 133.125 142.203125 Z M 88.804688 362.332031 C 50.574219 384.386719 25.542969 357.492188 35.371094 311.359375 C 44.832031 267.230469 79.363281 231.097656 106.453125 224.925781 C 107.296875 224.476562 107.84375 224.171875 108.035156 223.328125 C 108.035156 223.324219 108.039062 223.324219 108.039062 223.320312 C 113.648438 197.996094 134.765625 166.601562 160.046875 159.957031 C 161.085938 159.6875 162.171875 159.269531 163.171875 159.117188 C 163.941406 158.996094 164.558594 158.421875 164.804688 157.644531 C 165.839844 154.355469 166.308594 139.570312 177.71875 113.964844 C 192.015625 81.917969 215.84375 52.984375 242.472656 37.632812 C 290.304688 9.949219 327.40625 38.6875 318.089844 98.742188 C 317.777344 100.777344 320.207031 101.898438 321.585938 100.605469 C 355.753906 69.234375 392.726562 76.269531 392.933594 120.652344 C 393.015625 157.105469 367.328125 201.582031 335.671875 219.792969 Z M 88.804688 362.332031 "/><path style=" stroke:none;fill-rule:nonzero;fill:#2f2f2f;fill-opacity:1;" d="M 229.859375 326.308594 C 229.847656 326.308594 229.835938 326.308594 229.828125 326.308594 C 228.683594 326.308594 227.742188 327.226562 227.726562 328.375 L 227.519531 342.039062 C 227.503906 343.203125 228.433594 344.15625 229.589844 344.171875 C 229.601562 344.171875 229.613281 344.171875 229.621094 344.171875 C 230.765625 344.171875 231.707031 343.253906 231.722656 342.105469 L 231.925781 328.441406 C 231.945312 327.273438 231.015625 326.324219 229.859375 326.308594 Z M 229.859375 326.308594 "/><path style=" stroke:none;fill-rule:nonzero;fill:#2f2f2f;fill-opacity:1;" d="M 232.324219 302.019531 C 232.339844 300.851562 231.414062 299.902344 230.257812 299.886719 C 230.246094 299.886719 230.234375 299.886719 230.226562 299.886719 C 229.078125 299.886719 228.140625 300.804688 228.125 301.953125 L 227.917969 315.617188 C 227.902344 316.785156 228.828125 317.734375 229.988281 317.75 C 230 317.75 230.011719 317.75 230.019531 317.75 C 231.164062 317.75 232.105469 316.832031 232.121094 315.683594 Z M 232.324219 302.019531 "/><path style=" stroke:none;fill-rule:nonzero;fill:#2f2f2f;fill-opacity:1;" d="M 770.792969 438.382812 C 770.726562 434.335938 768.132812 430.628906 763.449219 427.941406 L 757.507812 424.472656 L 763.714844 420.894531 C 768.304688 418.179688 771.042969 414.175781 771.042969 410.179688 C 770.992188 397.691406 770.957031 349.019531 770.777344 347.699219 C 770.675781 343.667969 768.101562 339.976562 763.449219 337.308594 L 757.503906 333.839844 L 763.714844 330.261719 C 768.304688 327.546875 771.042969 323.542969 771.042969 319.546875 C 770.992188 307.136719 770.960938 258.359375 770.769531 257.050781 C 770.667969 253.035156 768.113281 249.347656 763.480469 246.65625 C 631.296875 170.226562 640.429688 174.226562 633.589844 172.273438 C 632.445312 171.921875 631.304688 172.59375 630.992188 173.71875 C 630.671875 174.832031 631.316406 175.988281 632.433594 176.308594 C 638.140625 177.9375 629.777344 174.148438 761.371094 250.28125 C 768.402344 254.378906 768.335938 260.3125 761.277344 264.375 C 748.53125 271.730469 807.4375 237.734375 636.648438 336.296875 C 629.054688 340.671875 616.035156 340.707031 608.304688 336.214844 L 484.550781 264.324219 C 477.910156 260.464844 477.476562 254.480469 484.644531 250.347656 C 616.5625 174.40625 608.695312 178.253906 613.191406 176.726562 C 614.289062 176.359375 614.875 175.160156 614.503906 174.070312 C 614.125 172.960938 612.941406 172.355469 611.835938 172.757812 C 606.5 174.574219 613.535156 171.339844 482.546875 246.707031 C 477.84375 249.429688 475.246094 253.179688 475.207031 257.28125 C 475.191406 258.804688 475.367188 320.683594 475.367188 319.835938 C 475.589844 324.019531 478.222656 327.675781 482.707031 330.105469 L 488.820312 333.667969 L 482.542969 337.308594 C 477.789062 340.054688 475.175781 343.859375 475.179688 348.011719 C 475.183594 348.886719 475.363281 411.316406 475.367188 410.46875 C 475.589844 414.660156 478.222656 418.316406 482.707031 420.730469 L 488.832031 424.292969 L 482.542969 427.941406 C 477.808594 430.679688 475.191406 434.460938 475.179688 438.578125 C 475.179688 439.457031 475.347656 501.949219 475.367188 501.101562 C 475.589844 505.292969 478.222656 508.953125 482.707031 511.363281 L 527.070312 537.234375 C 528.066406 537.816406 529.359375 537.488281 529.941406 536.480469 C 530.527344 535.480469 530.1875 534.191406 529.1875 533.609375 L 484.761719 507.703125 C 481.550781 505.972656 479.707031 503.546875 479.5625 500.976562 L 479.394531 447.070312 C 480.265625 447.839844 481.261719 448.5625 482.375 449.210938 L 606.140625 521.109375 C 615.316406 526.441406 629.992188 526.230469 638.832031 521.207031 C 651.566406 513.863281 592.703125 547.8125 763.367188 449.375 C 764.617188 448.644531 765.71875 447.832031 766.675781 446.960938 L 766.851562 501.140625 C 766.644531 503.53125 764.628906 506.121094 761.59375 507.902344 L 637 579.710938 C 629.121094 584.15625 616.375 584.164062 608.585938 579.726562 L 557.667969 550.164062 C 556.671875 549.570312 555.378906 549.917969 554.796875 550.917969 C 554.210938 551.925781 554.554688 553.207031 555.558594 553.789062 L 606.492188 583.359375 C 615.570312 588.539062 629.871094 588.550781 639.082031 583.359375 L 763.707031 511.535156 C 767.976562 509.023438 770.714844 505.277344 771.035156 501.503906 C 771.347656 497.816406 770.796875 439.238281 770.792969 438.382812 Z M 484.648438 340.933594 L 492.992188 336.097656 L 538.917969 362.859375 C 539.90625 363.441406 541.203125 363.113281 541.789062 362.105469 C 542.375 361.101562 542.035156 359.816406 541.035156 359.234375 L 484.765625 326.445312 C 481.550781 324.707031 479.707031 322.277344 479.5625 319.710938 L 479.417969 265.835938 C 480.28125 266.597656 481.265625 267.304688 482.375 267.945312 L 606.15625 339.941406 C 615.304688 345.160156 629.953125 345.011719 638.8125 339.914062 C 809.503906 241.507812 750.632812 275.449219 763.367188 268.109375 C 764.625 267.371094 765.734375 266.558594 766.699219 265.679688 L 766.84375 319.554688 C 766.84375 322.042969 764.875 324.691406 761.59375 326.636719 L 636.988281 398.449219 C 629.121094 402.96875 616.378906 402.980469 608.585938 398.460938 L 569.179688 375.613281 C 568.179688 375.023438 566.890625 375.367188 566.308594 376.378906 C 565.726562 377.378906 566.070312 378.664062 567.070312 379.238281 L 606.476562 402.085938 C 615.59375 407.375 629.90625 407.355469 639.082031 402.09375 L 753.3125 336.253906 L 761.34375 340.941406 C 768.394531 344.992188 768.371094 350.9375 761.253906 355.023438 C 748.515625 362.378906 807.410156 328.390625 636.648438 426.929688 C 629.410156 431.097656 616.222656 431.414062 608.332031 426.847656 L 484.558594 354.941406 C 477.902344 351.113281 477.414062 345.136719 484.648438 340.933594 Z M 484.648438 431.566406 L 493.007812 426.722656 L 606.492188 492.726562 C 615.570312 497.902344 629.871094 497.917969 639.082031 492.726562 L 676.390625 471.226562 C 677.394531 470.644531 677.738281 469.363281 677.160156 468.355469 C 676.574219 467.347656 675.289062 467.011719 674.289062 467.585938 L 637 489.074219 C 629.121094 493.523438 616.375 493.53125 608.585938 489.09375 L 484.761719 417.070312 C 481.550781 415.339844 479.707031 412.914062 479.5625 410.34375 L 479.417969 356.453125 C 480.28125 357.222656 481.269531 357.9375 482.375 358.578125 L 606.15625 430.574219 C 615.261719 435.769531 629.886719 435.65625 638.832031 430.574219 C 809.496094 332.132812 750.632812 366.085938 763.367188 358.742188 C 764.625 358.003906 765.734375 357.191406 766.699219 356.3125 L 766.84375 410.1875 C 766.84375 412.675781 764.875 415.324219 761.59375 417.269531 L 700.421875 452.546875 C 699.417969 453.132812 699.074219 454.417969 699.65625 455.417969 C 700.230469 456.429688 701.519531 456.75 702.523438 456.191406 L 753.316406 426.890625 L 761.34375 431.574219 C 768.441406 435.644531 768.316406 441.542969 761.253906 445.660156 C 590.472656 544.085938 649.375 510.136719 636.632812 517.484375 C 629.132812 521.882812 615.976562 521.902344 608.332031 517.484375 L 484.574219 445.585938 C 477.660156 441.542969 477.648438 435.632812 484.648438 431.566406 Z M 484.648438 431.566406 "/><path style=" stroke:none;fill-rule:nonzero;fill:#2f2f2f;fill-opacity:1;" d="M 633.746094 256.148438 C 627.683594 252.644531 618.222656 252.636719 612.207031 256.15625 C 605.460938 260.078125 605.496094 267.109375 612.289062 271.035156 C 618.289062 274.503906 627.738281 274.546875 633.796875 271.027344 C 640.566406 267.097656 640.546875 260.085938 633.746094 256.148438 Z M 614.386719 267.394531 C 610.4375 265.117188 610.371094 262.085938 614.3125 259.78125 C 616.234375 258.671875 618.738281 258.128906 621.304688 257.929688 L 621.3125 262.101562 C 621.316406 263.257812 622.257812 264.195312 623.414062 264.195312 L 623.417969 264.195312 C 624.578125 264.195312 625.519531 263.25 625.515625 262.085938 L 625.507812 258.027344 C 627.757812 258.296875 629.933594 258.800781 631.644531 259.789062 C 641.644531 265.550781 624.523438 273.253906 614.386719 267.394531 Z M 614.386719 267.394531 "/><path style=" stroke:none;fill-rule:nonzero;fill:#2f2f2f;fill-opacity:1;" d="M 535.054688 259.273438 C 629.125 313.84375 620.425781 308.800781 621.519531 309.433594 C 622.195312 309.828125 623.003906 309.804688 623.625 309.441406 C 632.550781 304.289062 591.285156 328.109375 710.929688 259.042969 C 712.324219 258.226562 712.320312 256.199219 710.929688 255.410156 L 624.550781 205.183594 C 624.148438 204.941406 622.804688 204.992188 622.371094 205.242188 C 502.71875 274.21875 543.988281 250.425781 535.0625 255.574219 C 533.652344 256.394531 533.664062 258.464844 535.054688 259.273438 Z M 621.207031 210.773438 C 621.214844 211.636719 621.320312 225.875 621.3125 224.964844 L 552.648438 264.574219 L 540.347656 257.425781 C 548.613281 252.65625 510.394531 274.707031 621.207031 210.773438 Z M 622.578125 305.191406 L 556.84375 267.011719 L 623.417969 228.601562 C 624.28125 229.105469 693.480469 269.324219 689.132812 266.796875 Z M 622.578125 305.191406 "/><path style=" stroke:none;fill-rule:nonzero;fill:#2f2f2f;fill-opacity:1;" d="M 573.503906 620.199219 C 573.515625 616.417969 571.144531 612.957031 566.824219 610.46875 L 406.675781 517.402344 C 401.671875 514.476562 394.613281 513.382812 388.027344 514.121094 C 392.707031 508.617188 395.875 501.230469 395.875 494.597656 L 395.371094 309.449219 C 395.320312 304.523438 393.53125 300.800781 390.359375 298.898438 C 387.765625 297.34375 365.964844 284.714844 366.8125 285.210938 C 363.378906 283.207031 358.535156 284.113281 355.007812 286.152344 L 231.492188 357.445312 L 231.535156 354.859375 C 231.550781 353.703125 230.625 352.746094 229.464844 352.726562 C 228.359375 352.753906 227.351562 353.640625 227.332031 354.796875 L 227.253906 359.890625 C 212.757812 368.257812 128.984375 416.613281 106.703125 429.472656 C 98.710938 434.007812 92.027344 445.199219 92.027344 454.902344 C 92.027344 454.902344 92.027344 454.902344 92.027344 454.910156 L 92.554688 640.074219 C 92.554688 645.027344 94.351562 648.769531 97.597656 650.605469 C 120.660156 663.753906 120.832031 664.664062 123.964844 665.246094 C 122.878906 666.859375 122.292969 668.613281 122.289062 670.449219 C 122.289062 670.460938 122.277344 670.46875 122.277344 670.480469 C 122.277344 670.480469 122.277344 670.480469 122.277344 670.492188 C 122.277344 670.5 122.277344 670.507812 122.277344 670.515625 L 122.34375 697.691406 C 122.445312 701.730469 125.625 705.3125 129.050781 707.328125 L 289.195312 800.316406 C 297.339844 805.078125 310.273438 805.089844 318.609375 800.324219 L 566.84375 657.011719 C 570.863281 654.617188 573.253906 651.394531 573.585938 647.726562 C 573.5625 639.582031 573.496094 618.976562 573.5 620.222656 C 573.5 620.214844 573.503906 620.207031 573.503906 620.199219 Z M 404.5625 521.027344 L 564.71875 614.105469 C 570.660156 617.523438 571.019531 622.578125 564.636719 626.253906 L 316.429688 769.554688 C 309.523438 773.546875 297.886719 773.441406 291.226562 769.5625 L 131.070312 676.488281 C 128.113281 674.78125 126.488281 672.640625 126.488281 670.457031 C 126.488281 666.238281 131.851562 664.09375 132.695312 663.445312 C 132.707031 663.4375 132.714844 663.425781 132.726562 663.425781 C 136.113281 661.476562 150.210938 653.359375 149.3125 653.878906 L 160.070312 660.089844 C 160.699219 660.457031 161.519531 660.46875 162.167969 660.089844 C 162.171875 660.085938 162.171875 660.082031 162.175781 660.082031 L 224.011719 624.152344 C 224.660156 623.785156 225.054688 623.09375 225.058594 622.347656 C 225.070312 618.867188 224.042969 615.148438 222.367188 611.679688 L 295.390625 569.511719 L 305.71875 575.46875 C 306.347656 575.835938 307.167969 575.847656 307.816406 575.46875 C 307.820312 575.464844 307.820312 575.460938 307.824219 575.460938 L 369.660156 539.539062 C 370.304688 539.171875 370.703125 538.480469 370.707031 537.734375 C 370.71875 534.402344 369.789062 530.84375 368.238281 527.496094 L 379.507812 520.960938 C 386.394531 517.089844 397.863281 517.121094 404.5625 521.027344 Z M 153.246094 638.046875 L 211.148438 604.40625 C 216.191406 607.886719 220.335938 615.070312 220.8125 621.160156 L 162.921875 654.789062 C 161.933594 648.984375 158.402344 642.328125 153.246094 638.046875 Z M 298.898438 553.4375 L 356.800781 519.789062 C 361.847656 523.273438 365.988281 530.460938 366.460938 536.546875 L 308.570312 570.167969 C 307.519531 563.929688 303.609375 557.320312 298.898438 553.4375 Z M 379.148438 516.367188 C 361.371094 526.613281 367.546875 523.054688 366.203125 523.828125 C 363.976562 520.371094 361.113281 517.371094 357.894531 515.515625 C 357.242188 515.136719 356.433594 515.144531 355.789062 515.523438 L 293.972656 551.4375 C 293.96875 551.441406 293.964844 551.441406 293.960938 551.441406 C 293.300781 551.824219 292.910156 552.527344 292.90625 553.253906 L 292.867188 566.113281 L 220.277344 608.03125 C 218.089844 604.75 215.328125 601.914062 212.242188 600.132812 C 211.589844 599.757812 210.78125 599.765625 210.136719 600.144531 L 148.320312 636.050781 C 148.316406 636.054688 148.3125 636.050781 148.308594 636.054688 C 147.609375 636.460938 147.253906 637.238281 147.253906 637.867188 L 147.21875 650.230469 C 119.332031 666.3125 150.570312 648.304688 130.671875 659.761719 C 124.640625 663.136719 120.269531 660.683594 120.269531 653.683594 C 119.527344 399.933594 119.785156 487.480469 119.730469 468.535156 C 119.667969 460.367188 125.929688 450.320312 132.308594 446.773438 C 473.097656 250.007812 354.804688 318.308594 380.546875 303.445312 C 386.347656 300.066406 391.097656 302.066406 391.167969 309.484375 L 391.671875 494.605469 C 391.671875 502.617188 386.035156 512.386719 379.148438 516.367188 Z M 99.6875 646.964844 C 97.800781 645.898438 96.757812 643.445312 96.757812 640.066406 L 96.226562 454.894531 C 96.230469 451.476562 97.355469 447.683594 99.136719 444.144531 L 118.921875 455.675781 C 116.796875 459.84375 115.480469 464.359375 115.480469 468.570312 C 115.542969 487.503906 115.269531 399.988281 116.0625 653.714844 C 116.0625 654.722656 116.140625 655.691406 116.292969 656.601562 Z M 564.71875 653.386719 L 316.519531 796.683594 C 313.589844 798.355469 309.878906 799.164062 306.097656 799.445312 L 306.097656 776.492188 C 310.578125 776.191406 314.984375 775.21875 318.527344 773.199219 L 566.738281 629.894531 C 567.6875 629.34375 568.539062 628.753906 569.296875 628.128906 L 569.386719 647.242188 C 569.457031 649.753906 566.898438 652.089844 564.71875 653.386719 Z M 564.71875 653.386719 "/><path style=" stroke:none;fill-rule:nonzero;fill:#2f2f2f;fill-opacity:1;" d="M 399.113281 616 L 232.308594 712.25 L 169.113281 675.550781 L 249.132812 629.351562 C 250.140625 628.769531 250.484375 627.484375 249.902344 626.480469 C 249.324219 625.472656 248.027344 625.136719 247.035156 625.710938 L 163.875 673.722656 C 162.476562 674.535156 162.472656 676.542969 163.871094 677.355469 L 231.25 716.492188 C 231.925781 716.886719 232.734375 716.863281 233.355469 716.5 L 401.210938 619.640625 C 402.21875 619.058594 402.5625 617.769531 401.980469 616.769531 C 401.402344 615.761719 400.109375 615.425781 399.113281 616 Z M 399.113281 616 "/><path style=" stroke:none;fill-rule:nonzero;fill:#2f2f2f;fill-opacity:1;" d="M 275.839844 611.503906 C 276.40625 612.492188 277.683594 612.855469 278.707031 612.273438 L 400.6875 541.851562 L 463.882812 578.617188 L 440.15625 592.308594 C 439.152344 592.890625 438.804688 594.179688 439.386719 595.179688 C 439.960938 596.179688 441.246094 596.515625 442.257812 595.949219 L 469.121094 580.449219 C 470.515625 579.636719 470.523438 577.628906 469.128906 576.8125 L 401.75 537.613281 C 401.101562 537.242188 400.296875 537.226562 399.640625 537.605469 L 276.605469 608.632812 C 275.601562 609.214844 275.257812 610.503906 275.839844 611.503906 Z M 275.839844 611.503906 "/><path style=" stroke:none;fill-rule:nonzero;fill:#2f2f2f;fill-opacity:1;" d="M 401.75 551.449219 C 401.101562 551.082031 400.296875 551.066406 399.640625 551.441406 L 378.328125 563.746094 C 377.320312 564.328125 376.976562 565.617188 377.558594 566.617188 C 378.125 567.605469 379.402344 567.96875 380.425781 567.390625 L 400.6875 555.691406 L 409.613281 560.882812 C 410.605469 561.464844 411.898438 561.121094 412.492188 560.128906 C 413.074219 559.128906 412.734375 557.839844 411.730469 557.257812 Z M 401.75 551.449219 "/><path style=" stroke:none;fill-rule:nonzero;fill:#2f2f2f;fill-opacity:1;" d="M 360.910156 578.652344 L 369.160156 573.894531 C 370.167969 573.3125 370.511719 572.03125 369.933594 571.023438 C 369.351562 570.011719 368.066406 569.675781 367.058594 570.25 L 358.808594 575.007812 C 357.804688 575.589844 357.460938 576.871094 358.039062 577.878906 C 358.617188 578.878906 359.894531 579.230469 360.910156 578.652344 Z M 360.910156 578.652344 "/><path style=" stroke:none;fill-rule:nonzero;fill:#2f2f2f;fill-opacity:1;" d="M 375.453125 331.679688 C 375.453125 328.566406 371.777344 326.707031 369.289062 328.144531 L 140.101562 460.421875 C 138.296875 461.589844 135.601562 465.933594 135.480469 468.519531 C 135.996094 640.09375 135.949219 623.667969 135.949219 624.792969 C 135.960938 627.941406 139.371094 629.890625 142.097656 628.328125 L 371.1875 496.097656 C 371.210938 496.082031 371.238281 496.066406 371.261719 496.046875 C 373.265625 494.785156 375.773438 490.460938 375.898438 487.960938 C 375.851562 471.980469 376.0625 545.847656 375.453125 331.679688 Z M 139.679688 468.625 C 139.734375 467.609375 141.511719 464.5625 142.328125 464.03125 L 371.234375 331.699219 L 371.308594 356.527344 L 139.753906 490.167969 C 139.75 489.304688 139.675781 467.238281 139.679688 468.625 Z M 369.042969 492.488281 L 140.152344 624.777344 L 139.761719 495.011719 L 371.320312 361.375 L 371.699219 487.863281 C 371.648438 488.902344 369.925781 491.890625 369.042969 492.488281 Z M 369.042969 492.488281 "/><path style=" stroke:none;fill-rule:nonzero;fill:#2f2f2f;fill-opacity:1;" d="M 452.582031 82.304688 L 463.304688 76.121094 C 464.308594 75.539062 464.652344 74.25 464.070312 73.25 C 463.496094 72.238281 462.210938 71.894531 461.203125 72.476562 L 450.480469 78.664062 C 449.476562 79.246094 449.132812 80.53125 449.714844 81.535156 C 450.285156 82.527344 451.5625 82.882812 452.582031 82.304688 Z M 452.582031 82.304688 "/><path style=" stroke:none;fill-rule:nonzero;fill:#2f2f2f;fill-opacity:1;" d="M 411.128906 106.230469 L 421.847656 100.046875 C 422.855469 99.464844 423.199219 98.175781 422.617188 97.175781 C 422.042969 96.175781 420.753906 95.832031 419.75 96.40625 L 409.027344 102.589844 C 408.023438 103.171875 407.679688 104.460938 408.261719 105.460938 C 408.832031 106.457031 410.109375 106.8125 411.128906 106.230469 Z M 411.128906 106.230469 "/><path style=" stroke:none;fill-rule:nonzero;fill:#2f2f2f;fill-opacity:1;" d="M 431.855469 94.273438 L 442.578125 88.078125 C 443.582031 87.496094 443.925781 86.210938 443.34375 85.207031 C 442.757812 84.199219 441.460938 83.863281 440.476562 84.4375 L 429.753906 90.628906 C 428.75 91.214844 428.40625 92.5 428.988281 93.5 C 429.578125 94.519531 430.867188 94.839844 431.855469 94.273438 Z M 431.855469 94.273438 "/><path style=" stroke:none;fill-rule:nonzero;fill:#2f2f2f;fill-opacity:1;" d="M 473.304688 70.34375 L 475.621094 69.007812 L 475.628906 71.683594 C 475.632812 72.839844 476.570312 73.773438 477.730469 73.773438 L 477.734375 73.773438 C 478.894531 73.773438 479.832031 72.832031 479.828125 71.664062 L 479.8125 65.367188 C 479.8125 63.769531 478.0625 62.738281 476.664062 63.554688 L 471.207031 66.703125 C 470.199219 67.285156 469.855469 68.574219 470.4375 69.574219 C 471.007812 70.574219 472.292969 70.910156 473.304688 70.34375 Z M 473.304688 70.34375 "/><path style=" stroke:none;fill-rule:nonzero;fill:#2f2f2f;fill-opacity:1;" d="M 477.851562 125.074219 L 477.847656 125.074219 C 476.6875 125.074219 475.746094 126.019531 475.75 127.183594 L 475.777344 138.75 C 475.78125 139.90625 476.71875 140.839844 477.875 140.839844 L 477.878906 140.839844 C 479.042969 140.839844 479.980469 139.898438 479.976562 138.730469 L 479.953125 127.167969 C 479.949219 126.007812 479.007812 125.074219 477.851562 125.074219 Z M 477.851562 125.074219 "/><path style=" stroke:none;fill-rule:nonzero;fill:#2f2f2f;fill-opacity:1;" d="M 477.902344 147.433594 L 477.898438 147.433594 C 476.734375 147.433594 475.796875 148.378906 475.800781 149.542969 L 475.824219 161.101562 C 475.828125 162.257812 476.769531 163.191406 477.925781 163.191406 L 477.929688 163.191406 C 479.089844 163.191406 480.03125 162.25 480.027344 161.085938 L 480 149.527344 C 479.996094 148.371094 479.058594 147.433594 477.902344 147.433594 Z M 477.902344 147.433594 "/><path style=" stroke:none;fill-rule:nonzero;fill:#2f2f2f;fill-opacity:1;" d="M 477.753906 80.367188 L 477.75 80.367188 C 476.589844 80.367188 475.648438 81.3125 475.652344 82.476562 L 475.675781 94.042969 C 475.679688 95.199219 476.621094 96.132812 477.777344 96.132812 L 477.78125 96.132812 C 478.941406 96.132812 479.882812 95.191406 479.878906 94.027344 L 479.855469 82.460938 C 479.851562 81.304688 478.910156 80.367188 477.753906 80.367188 Z M 477.753906 80.367188 "/><path style=" stroke:none;fill-rule:nonzero;fill:#2f2f2f;fill-opacity:1;" d="M 477.800781 102.722656 L 477.796875 102.722656 C 476.636719 102.722656 475.699219 103.664062 475.703125 104.828125 L 475.726562 116.394531 C 475.730469 117.550781 476.671875 118.488281 477.828125 118.488281 L 477.832031 118.488281 C 478.992188 118.488281 479.933594 117.542969 479.929688 116.378906 L 479.902344 104.8125 C 479.898438 103.65625 478.960938 102.722656 477.800781 102.722656 Z M 477.800781 102.722656 "/><path style=" stroke:none;fill-rule:nonzero;fill:#2f2f2f;fill-opacity:1;" d="M 477.949219 169.789062 L 477.945312 169.789062 C 476.785156 169.789062 475.84375 170.730469 475.851562 171.894531 L 475.867188 178.195312 C 475.867188 179.800781 477.621094 180.8125 479.019531 180.007812 L 484.476562 176.851562 C 485.480469 176.269531 485.824219 174.980469 485.242188 173.980469 C 484.65625 172.960938 483.363281 172.644531 482.367188 173.207031 L 480.058594 174.554688 L 480.050781 171.878906 C 480.046875 170.722656 479.105469 169.789062 477.949219 169.789062 Z M 477.949219 169.789062 "/><path style=" stroke:none;fill-rule:nonzero;fill:#2f2f2f;fill-opacity:1;" d="M 556.5625 135.203125 L 567.273438 129.019531 C 568.277344 128.4375 568.621094 127.148438 568.039062 126.148438 C 567.453125 125.140625 566.167969 124.804688 565.171875 125.378906 L 554.464844 131.5625 C 553.457031 132.144531 553.113281 133.433594 553.695312 134.433594 C 554.273438 135.433594 555.546875 135.78125 556.5625 135.203125 Z M 556.5625 135.203125 "/><path style=" stroke:none;fill-rule:nonzero;fill:#2f2f2f;fill-opacity:1;" d="M 577.265625 123.246094 L 587.972656 117.058594 C 588.980469 116.476562 589.324219 115.191406 588.742188 114.1875 C 588.15625 113.179688 586.867188 112.835938 585.875 113.417969 L 575.164062 119.601562 C 574.160156 120.183594 573.816406 121.472656 574.398438 122.472656 C 574.976562 123.472656 576.25 123.824219 577.265625 123.246094 Z M 577.265625 123.246094 "/><path style=" stroke:none;fill-rule:nonzero;fill:#2f2f2f;fill-opacity:1;" d="M 597.964844 111.285156 L 608.671875 105.101562 C 609.679688 104.519531 610.023438 103.230469 609.441406 102.230469 C 608.855469 101.21875 607.570312 100.882812 606.574219 101.457031 L 595.863281 107.644531 C 594.859375 108.226562 594.515625 109.511719 595.097656 110.515625 C 595.675781 111.511719 596.949219 111.863281 597.964844 111.285156 Z M 597.964844 111.285156 "/><path style=" stroke:none;fill-rule:nonzero;fill:#2f2f2f;fill-opacity:1;" d="M 535.863281 147.164062 L 546.574219 140.980469 C 547.578125 140.398438 547.921875 139.109375 547.339844 138.109375 C 546.753906 137.101562 545.46875 136.753906 544.472656 137.335938 L 533.765625 143.523438 C 532.757812 144.105469 532.414062 145.394531 532.996094 146.394531 C 533.574219 147.390625 534.847656 147.742188 535.863281 147.164062 Z M 535.863281 147.164062 "/><path style=" stroke:none;fill-rule:nonzero;fill:#2f2f2f;fill-opacity:1;" d="M 515.164062 159.125 L 525.871094 152.941406 C 526.875 152.355469 527.21875 151.070312 526.636719 150.070312 C 526.050781 149.066406 524.765625 148.722656 523.769531 149.296875 L 513.0625 155.480469 C 512.058594 156.066406 511.710938 157.351562 512.292969 158.351562 C 512.875 159.351562 514.144531 159.703125 515.164062 159.125 Z M 515.164062 159.125 "/><path style=" stroke:none;fill-rule:nonzero;fill:#2f2f2f;fill-opacity:1;" d="M 494.464844 171.085938 L 505.171875 164.898438 C 506.175781 164.316406 506.523438 163.027344 505.941406 162.027344 C 505.351562 161.019531 504.070312 160.683594 503.070312 161.257812 L 492.363281 167.441406 C 491.359375 168.023438 491.011719 169.3125 491.597656 170.3125 C 492.175781 171.3125 493.445312 171.660156 494.464844 171.085938 Z M 494.464844 171.085938 "/><path style=" stroke:none;fill-rule:nonzero;fill:#2f2f2f;fill-opacity:1;" d="M 618.671875 99.324219 L 620.984375 97.988281 L 620.988281 100.664062 C 620.992188 101.820312 621.933594 102.753906 623.089844 102.753906 L 623.09375 102.753906 C 624.253906 102.753906 625.195312 101.8125 625.191406 100.644531 L 625.179688 94.347656 C 625.179688 92.742188 623.421875 91.722656 622.027344 92.535156 L 616.570312 95.683594 C 615.566406 96.265625 615.222656 97.554688 615.804688 98.554688 C 616.378906 99.554688 617.664062 99.890625 618.671875 99.324219 Z M 618.671875 99.324219 "/><path style=" stroke:none;fill-rule:nonzero;fill:#2f2f2f;fill-opacity:1;" d="M 621.152344 184.011719 L 621.183594 196.390625 C 621.1875 197.546875 622.125 198.480469 623.28125 198.480469 L 623.289062 198.480469 C 624.449219 198.480469 625.386719 197.539062 625.382812 196.375 L 625.355469 183.996094 C 625.34375 181.195312 621.144531 181.21875 621.152344 184.011719 Z M 621.152344 184.011719 "/><path style=" stroke:none;fill-rule:nonzero;fill:#2f2f2f;fill-opacity:1;" d="M 623.378906 246.34375 L 623.382812 246.34375 C 624.542969 246.34375 625.480469 245.402344 625.476562 244.238281 L 625.453125 231.859375 C 625.449219 230.703125 624.511719 229.765625 623.351562 229.765625 L 623.347656 229.765625 C 622.1875 229.765625 621.25 230.710938 621.253906 231.875 L 621.277344 244.253906 C 621.28125 245.410156 622.21875 246.34375 623.378906 246.34375 Z M 623.378906 246.34375 "/><path style=" stroke:none;fill-rule:nonzero;fill:#2f2f2f;fill-opacity:1;" d="M 623.210938 157.976562 L 623.207031 157.976562 C 622.042969 157.976562 621.105469 158.917969 621.109375 160.085938 L 621.132812 172.460938 C 621.136719 173.617188 622.078125 174.554688 623.234375 174.554688 L 623.238281 174.554688 C 624.398438 174.554688 625.339844 173.609375 625.335938 172.445312 L 625.308594 160.066406 C 625.304688 158.910156 624.367188 157.976562 623.210938 157.976562 Z M 623.210938 157.976562 "/><path style=" stroke:none;fill-rule:nonzero;fill:#2f2f2f;fill-opacity:1;" d="M 623.160156 134.039062 L 623.15625 134.039062 C 621.996094 134.039062 621.054688 134.984375 621.058594 136.148438 L 621.085938 148.535156 C 621.089844 149.691406 622.027344 150.625 623.183594 150.625 L 623.1875 150.625 C 624.351562 150.625 625.289062 149.683594 625.285156 148.519531 L 625.261719 136.132812 C 625.257812 134.976562 624.316406 134.039062 623.160156 134.039062 Z M 623.160156 134.039062 "/><path style=" stroke:none;fill-rule:nonzero;fill:#2f2f2f;fill-opacity:1;" d="M 623.109375 110.113281 L 623.105469 110.113281 C 621.945312 110.113281 621.007812 111.054688 621.011719 112.21875 L 621.035156 124.597656 C 621.039062 125.753906 621.976562 126.691406 623.136719 126.691406 L 623.140625 126.691406 C 624.300781 126.691406 625.238281 125.746094 625.234375 124.582031 L 625.210938 112.203125 C 625.207031 111.046875 624.269531 110.113281 623.109375 110.113281 Z M 623.109375 110.113281 "/><path style=" stroke:none;fill-rule:nonzero;fill:#2f2f2f;fill-opacity:1;" d="M 175.976562 52.726562 C 183.253906 44.046875 191.007812 36.449219 199.027344 30.144531 C 199.941406 29.429688 200.097656 28.109375 199.378906 27.199219 C 198.652344 26.289062 197.332031 26.125 196.433594 26.84375 C 188.183594 33.324219 180.214844 41.132812 172.757812 50.035156 C 172.015625 50.921875 172.128906 52.242188 173.019531 52.988281 C 173.917969 53.738281 175.242188 53.617188 175.976562 52.726562 Z M 175.976562 52.726562 "/><path style=" stroke:none;fill-rule:nonzero;fill:#2f2f2f;fill-opacity:1;" d="M 17.6875 262.996094 C 22.054688 254.589844 26.820312 247.101562 31.863281 240.734375 C 32.582031 239.824219 32.425781 238.503906 31.519531 237.78125 C 30.613281 237.074219 29.28125 237.214844 28.566406 238.125 C 23.363281 244.703125 18.449219 252.421875 13.964844 261.0625 C 12.679688 263.53125 16.414062 265.460938 17.6875 262.996094 Z M 17.6875 262.996094 "/><path style=" stroke:none;fill-rule:nonzero;fill:#2f2f2f;fill-opacity:1;" d="M 205.355469 162.289062 C 204.324219 161.199219 202.519531 161.542969 201.917969 162.882812 L 180.816406 209.710938 C 179.984375 211.558594 182.007812 213.398438 183.78125 212.394531 L 193.675781 206.691406 L 193.710938 223.03125 C 193.714844 224.191406 194.652344 225.125 195.8125 225.125 L 195.816406 225.125 C 196.976562 225.125 197.914062 224.179688 197.910156 223.015625 L 197.871094 203.050781 C 197.871094 201.457031 196.125 200.421875 194.71875 201.238281 L 187.316406 205.503906 L 204.472656 167.449219 L 221.789062 185.570312 L 211.070312 191.738281 C 210.417969 192.117188 210.015625 192.8125 210.019531 193.566406 L 210.234375 247.46875 L 197.972656 254.539062 L 197.949219 241.113281 C 197.945312 239.945312 197.003906 239.011719 195.847656 239.011719 L 195.84375 239.011719 C 194.683594 239.011719 193.742188 239.957031 193.746094 241.113281 L 193.78125 258.175781 C 193.78125 259.816406 195.5625 260.789062 196.929688 259.996094 L 213.390625 250.496094 C 214.042969 250.117188 214.445312 249.421875 214.441406 248.667969 L 214.222656 194.773438 L 226.207031 187.875 C 227.359375 187.214844 227.632812 185.605469 226.675781 184.601562 Z M 205.355469 162.289062 "/><path style=" stroke:none;fill-rule:nonzero;fill:#2f2f2f;fill-opacity:1;" d="M 277.261719 173.988281 L 267.367188 179.6875 L 267.339844 163.367188 C 267.335938 162.199219 266.394531 161.265625 265.238281 161.265625 L 265.234375 161.265625 C 264.074219 161.265625 263.132812 162.207031 263.136719 163.367188 L 263.175781 183.324219 C 263.175781 184.9375 264.929688 185.957031 266.324219 185.144531 L 273.726562 180.878906 L 256.574219 218.929688 L 239.253906 200.8125 L 249.972656 194.644531 C 250.628906 194.265625 251.03125 193.566406 251.027344 192.8125 L 250.808594 138.914062 L 263.070312 131.839844 L 263.101562 145.277344 C 263.105469 146.433594 264.042969 147.371094 265.199219 147.371094 L 265.203125 147.371094 C 266.367188 147.371094 267.304688 146.425781 267.300781 145.261719 L 267.265625 128.199219 C 267.265625 126.59375 265.507812 125.574219 264.113281 126.386719 L 247.652344 135.886719 C 247 136.261719 246.597656 136.960938 246.601562 137.714844 L 246.820312 191.609375 L 234.835938 198.507812 C 233.683594 199.167969 233.410156 200.777344 234.367188 201.777344 L 255.691406 224.089844 C 256.71875 225.171875 258.519531 224.851562 259.125 223.5 L 280.230469 176.671875 C 281.070312 174.804688 278.996094 172.972656 277.261719 173.988281 Z M 277.261719 173.988281 "/><path style=" stroke:none;fill-rule:nonzero;fill:#2f2f2f;fill-opacity:1;" d="M 782.199219 640.625 L 791.238281 631.59375 C 792.058594 630.773438 792.058594 629.441406 791.238281 628.621094 C 790.417969 627.800781 789.089844 627.800781 788.269531 628.621094 L 779.230469 637.65625 L 770.195312 628.621094 C 769.375 627.800781 768.046875 627.800781 767.226562 628.621094 C 766.40625 629.441406 766.40625 630.773438 767.226562 631.59375 L 776.261719 640.625 L 767.226562 649.65625 C 766.40625 650.476562 766.40625 651.804688 767.226562 652.625 C 768.046875 653.445312 769.375 653.445312 770.195312 652.625 L 779.230469 643.59375 L 788.265625 652.625 C 789.085938 653.445312 790.414062 653.445312 791.234375 652.625 C 792.054688 651.804688 792.054688 650.476562 791.234375 649.65625 Z M 782.199219 640.625 "/><path style=" stroke:none;fill-rule:nonzero;fill:#2e58ff;fill-opacity:1;" d="M 595.820312 770.832031 C 595.820312 771.632812 595.742188 772.425781 595.585938 773.207031 C 595.429688 773.992188 595.199219 774.753906 594.894531 775.492188 C 594.585938 776.230469 594.210938 776.929688 593.769531 777.597656 C 593.324219 778.261719 592.820312 778.875 592.253906 779.441406 C 591.6875 780.003906 591.074219 780.511719 590.410156 780.953125 C 589.746094 781.398438 589.042969 781.773438 588.304688 782.078125 C 587.566406 782.382812 586.804688 782.617188 586.019531 782.769531 C 585.238281 782.925781 584.445312 783.003906 583.644531 783.003906 C 582.847656 783.003906 582.054688 782.925781 581.269531 782.769531 C 580.484375 782.617188 579.726562 782.382812 578.984375 782.078125 C 578.246094 781.773438 577.546875 781.398438 576.882812 780.953125 C 576.214844 780.511719 575.601562 780.003906 575.035156 779.441406 C 574.472656 778.875 573.964844 778.261719 573.523438 777.597656 C 573.078125 776.929688 572.703125 776.230469 572.398438 775.492188 C 572.089844 774.753906 571.859375 773.992188 571.703125 773.207031 C 571.546875 772.425781 571.46875 771.632812 571.46875 770.832031 C 571.46875 770.035156 571.546875 769.242188 571.703125 768.460938 C 571.859375 767.675781 572.089844 766.914062 572.398438 766.175781 C 572.703125 765.4375 573.078125 764.738281 573.523438 764.070312 C 573.964844 763.40625 574.472656 762.792969 575.035156 762.226562 C 575.601562 761.664062 576.214844 761.15625 576.882812 760.714844 C 577.546875 760.269531 578.246094 759.894531 578.984375 759.589844 C 579.726562 759.285156 580.484375 759.050781 581.269531 758.898438 C 582.054688 758.742188 582.847656 758.664062 583.644531 758.664062 C 584.445312 758.664062 585.238281 758.742188 586.019531 758.898438 C 586.804688 759.050781 587.566406 759.285156 588.304688 759.589844 C 589.042969 759.894531 589.746094 760.269531 590.410156 760.714844 C 591.074219 761.15625 591.6875 761.664062 592.253906 762.226562 C 592.820312 762.792969 593.324219 763.40625 593.769531 764.070312 C 594.210938 764.738281 594.585938 765.4375 594.894531 766.175781 C 595.199219 766.914062 595.429688 767.675781 595.585938 768.460938 C 595.742188 769.242188 595.820312 770.035156 595.820312 770.832031 Z M 595.820312 770.832031 "/><path style=" stroke:none;fill-rule:nonzero;fill:#b0b8cf;fill-opacity:1;" d="M 716.851562 90.320312 C 709.683594 90.320312 703.851562 84.488281 703.851562 77.324219 C 703.851562 70.164062 709.683594 64.332031 716.851562 64.332031 C 724.136719 64.332031 729.847656 70.042969 729.847656 77.324219 C 729.847656 84.488281 724.019531 90.320312 716.851562 90.320312 Z M 716.851562 68.53125 C 712 68.53125 708.054688 72.476562 708.054688 77.324219 C 708.054688 82.171875 712 86.117188 716.851562 86.117188 C 721.699219 86.117188 725.648438 82.171875 725.648438 77.324219 C 725.648438 72.394531 721.78125 68.53125 716.851562 68.53125 Z M 716.851562 68.53125 "/><path style=" stroke:none;fill-rule:nonzero;fill:#ff342b;fill-opacity:1;" d="M 45.304688 651.214844 C 45.304688 652.011719 45.226562 652.804688 45.070312 653.589844 C 44.917969 654.371094 44.683594 655.132812 44.378906 655.871094 C 44.074219 656.609375 43.699219 657.3125 43.253906 657.976562 C 42.808594 658.640625 42.304688 659.253906 41.738281 659.820312 C 41.175781 660.386719 40.558594 660.890625 39.894531 661.332031 C 39.230469 661.777344 38.527344 662.152344 37.789062 662.457031 C 37.050781 662.765625 36.289062 662.996094 35.507812 663.152344 C 34.722656 663.308594 33.929688 663.382812 33.132812 663.382812 C 32.332031 663.382812 31.539062 663.308594 30.753906 663.152344 C 29.972656 662.996094 29.210938 662.765625 28.472656 662.457031 C 27.734375 662.152344 27.03125 661.777344 26.367188 661.332031 C 25.703125 660.890625 25.085938 660.386719 24.523438 659.820312 C 23.957031 659.253906 23.453125 658.640625 23.007812 657.976562 C 22.5625 657.3125 22.1875 656.609375 21.882812 655.871094 C 21.578125 655.132812 21.347656 654.371094 21.191406 653.589844 C 21.035156 652.804688 20.957031 652.011719 20.957031 651.214844 C 20.957031 650.414062 21.035156 649.621094 21.191406 648.839844 C 21.34375 648.054688 21.578125 647.292969 21.882812 646.554688 C 22.1875 645.816406 22.5625 645.117188 23.007812 644.453125 C 23.453125 643.785156 23.957031 643.171875 24.523438 642.605469 C 25.085938 642.042969 25.703125 641.539062 26.367188 641.09375 C 27.03125 640.648438 27.734375 640.273438 28.472656 639.96875 C 29.210938 639.664062 29.972656 639.433594 30.753906 639.277344 C 31.539062 639.121094 32.332031 639.042969 33.132812 639.042969 C 33.929688 639.042969 34.722656 639.121094 35.507812 639.277344 C 36.289062 639.433594 37.050781 639.664062 37.789062 639.96875 C 38.527344 640.273438 39.230469 640.648438 39.894531 641.09375 C 40.558594 641.539062 41.175781 642.042969 41.738281 642.605469 C 42.304688 643.171875 42.808594 643.785156 43.253906 644.453125 C 43.699219 645.117188 44.074219 645.816406 44.378906 646.554688 C 44.683594 647.292969 44.917969 648.054688 45.070312 648.839844 C 45.226562 649.621094 45.304688 650.414062 45.304688 651.214844 Z M 45.304688 651.214844 "/><path style=" stroke:none;fill-rule:nonzero;fill:#2e58ff;fill-opacity:1;" d="M 160.644531 462.191406 C 160.832031 462.300781 161.003906 462.441406 161.148438 462.613281 C 161.296875 462.785156 161.421875 462.984375 161.527344 463.207031 C 161.628906 463.433594 161.703125 463.683594 161.757812 463.957031 C 161.808594 464.230469 161.832031 464.519531 161.832031 464.828125 C 161.832031 465.136719 161.804688 465.457031 161.753906 465.789062 C 161.699219 466.121094 161.621094 466.457031 161.519531 466.800781 C 161.417969 467.144531 161.289062 467.488281 161.140625 467.828125 C 160.992188 468.171875 160.824219 468.503906 160.632812 468.828125 C 160.445312 469.15625 160.238281 469.46875 160.015625 469.765625 C 159.792969 470.066406 159.558594 470.34375 159.308594 470.605469 C 159.0625 470.863281 158.808594 471.097656 158.542969 471.308594 C 158.28125 471.519531 158.015625 471.699219 157.75 471.851562 C 157.480469 472.007812 157.214844 472.128906 156.953125 472.21875 C 156.691406 472.308594 156.4375 472.363281 156.191406 472.386719 C 155.941406 472.410156 155.707031 472.402344 155.484375 472.355469 C 155.261719 472.3125 155.058594 472.234375 154.867188 472.125 C 154.679688 472.015625 154.511719 471.875 154.363281 471.703125 C 154.214844 471.535156 154.089844 471.335938 153.988281 471.109375 C 153.886719 470.882812 153.808594 470.632812 153.757812 470.359375 C 153.707031 470.089844 153.679688 469.796875 153.679688 469.488281 C 153.679688 469.179688 153.707031 468.859375 153.761719 468.527344 C 153.8125 468.195312 153.890625 467.859375 153.992188 467.515625 C 154.097656 467.171875 154.222656 466.828125 154.371094 466.488281 C 154.519531 466.148438 154.691406 465.8125 154.878906 465.488281 C 155.070312 465.160156 155.277344 464.847656 155.5 464.550781 C 155.722656 464.25 155.957031 463.972656 156.203125 463.714844 C 156.453125 463.453125 156.707031 463.21875 156.96875 463.007812 C 157.230469 462.800781 157.496094 462.617188 157.765625 462.464844 C 158.03125 462.3125 158.296875 462.191406 158.558594 462.101562 C 158.820312 462.011719 159.078125 461.953125 159.324219 461.929688 C 159.570312 461.90625 159.804688 461.917969 160.027344 461.960938 C 160.25 462.003906 160.457031 462.082031 160.644531 462.191406 Z M 160.644531 462.191406 "/><path style=" stroke:none;fill-rule:nonzero;fill:#2e58ff;fill-opacity:1;" d="M 177.398438 452.523438 C 177.589844 452.632812 177.757812 452.773438 177.90625 452.945312 C 178.054688 453.117188 178.179688 453.316406 178.28125 453.539062 C 178.382812 453.765625 178.457031 454.015625 178.511719 454.289062 C 178.5625 454.5625 178.589844 454.851562 178.585938 455.160156 C 178.585938 455.46875 178.558594 455.789062 178.507812 456.121094 C 178.453125 456.453125 178.378906 456.789062 178.273438 457.132812 C 178.171875 457.476562 178.046875 457.820312 177.894531 458.160156 C 177.746094 458.503906 177.578125 458.835938 177.386719 459.160156 C 177.199219 459.488281 176.992188 459.800781 176.769531 460.097656 C 176.546875 460.398438 176.3125 460.675781 176.0625 460.9375 C 175.816406 461.195312 175.5625 461.429688 175.300781 461.640625 C 175.035156 461.851562 174.769531 462.03125 174.503906 462.183594 C 174.234375 462.339844 173.972656 462.460938 173.707031 462.550781 C 173.445312 462.640625 173.191406 462.695312 172.945312 462.71875 C 172.695312 462.742188 172.460938 462.734375 172.238281 462.6875 C 172.019531 462.644531 171.8125 462.566406 171.625 462.457031 C 171.433594 462.347656 171.265625 462.207031 171.117188 462.035156 C 170.96875 461.867188 170.84375 461.667969 170.742188 461.441406 C 170.640625 461.214844 170.5625 460.964844 170.511719 460.691406 C 170.460938 460.421875 170.433594 460.128906 170.433594 459.820312 C 170.4375 459.511719 170.460938 459.191406 170.515625 458.859375 C 170.566406 458.527344 170.644531 458.191406 170.75 457.847656 C 170.851562 457.503906 170.976562 457.160156 171.125 456.820312 C 171.277344 456.480469 171.445312 456.144531 171.632812 455.820312 C 171.824219 455.492188 172.03125 455.179688 172.253906 454.882812 C 172.476562 454.582031 172.710938 454.304688 172.957031 454.046875 C 173.207031 453.785156 173.460938 453.550781 173.722656 453.339844 C 173.984375 453.132812 174.25 452.949219 174.519531 452.796875 C 174.785156 452.644531 175.050781 452.523438 175.3125 452.433594 C 175.578125 452.34375 175.832031 452.285156 176.078125 452.261719 C 176.324219 452.238281 176.558594 452.25 176.78125 452.292969 C 177.003906 452.335938 177.210938 452.414062 177.398438 452.523438 Z M 177.398438 452.523438 "/><path style=" stroke:none;fill-rule:nonzero;fill:#2e58ff;fill-opacity:1;" d="M 194.144531 442.855469 C 194.335938 442.964844 194.503906 443.105469 194.652344 443.277344 C 194.800781 443.449219 194.925781 443.648438 195.027344 443.871094 C 195.128906 444.097656 195.207031 444.347656 195.257812 444.621094 C 195.308594 444.894531 195.335938 445.183594 195.332031 445.492188 C 195.332031 445.800781 195.304688 446.121094 195.253906 446.453125 C 195.199219 446.785156 195.125 447.121094 195.019531 447.464844 C 194.917969 447.808594 194.792969 448.152344 194.640625 448.492188 C 194.492188 448.835938 194.324219 449.167969 194.132812 449.492188 C 193.945312 449.820312 193.738281 450.132812 193.515625 450.429688 C 193.292969 450.730469 193.058594 451.007812 192.808594 451.269531 C 192.5625 451.527344 192.308594 451.761719 192.046875 451.972656 C 191.78125 452.183594 191.515625 452.363281 191.25 452.515625 C 190.980469 452.671875 190.71875 452.792969 190.453125 452.882812 C 190.191406 452.972656 189.9375 453.027344 189.691406 453.050781 C 189.441406 453.074219 189.207031 453.066406 188.988281 453.019531 C 188.765625 452.976562 188.558594 452.898438 188.371094 452.789062 C 188.179688 452.679688 188.011719 452.539062 187.863281 452.367188 C 187.714844 452.199219 187.589844 452 187.488281 451.773438 C 187.386719 451.546875 187.308594 451.296875 187.257812 451.023438 C 187.207031 450.75 187.179688 450.460938 187.179688 450.152344 C 187.183594 449.84375 187.207031 449.523438 187.261719 449.191406 C 187.3125 448.859375 187.390625 448.523438 187.496094 448.179688 C 187.597656 447.835938 187.722656 447.492188 187.871094 447.152344 C 188.023438 446.8125 188.191406 446.476562 188.378906 446.152344 C 188.570312 445.824219 188.777344 445.511719 189 445.214844 C 189.222656 444.914062 189.457031 444.636719 189.703125 444.378906 C 189.953125 444.117188 190.207031 443.882812 190.46875 443.671875 C 190.730469 443.464844 190.996094 443.28125 191.265625 443.128906 C 191.53125 442.976562 191.796875 442.855469 192.058594 442.765625 C 192.324219 442.671875 192.578125 442.617188 192.824219 442.59375 C 193.070312 442.570312 193.304688 442.582031 193.527344 442.625 C 193.75 442.667969 193.957031 442.746094 194.144531 442.855469 Z M 194.144531 442.855469 "/></g></svg>