<svg xmlns="http://www.w3.org/2000/svg" xmlns:xlink="http://www.w3.org/1999/xlink" width="1080" zoomAndPan="magnify" viewBox="0 0 810 809.999993" height="1080" preserveAspectRatio="xMidYMid meet" version="1.2"><g id="a86bef7100"><path style=" stroke:none;fill-rule:nonzero;fill:#ff9096;fill-opacity:1;" d="M 405.042969 810.085938 C 181.703125 810.085938 0 628.382812 0 405.042969 C 0 181.703125 181.703125 0 405.042969 0 C 628.382812 0 810.085938 181.703125 810.085938 405.042969 C 810.085938 628.382812 628.382812 810.085938 405.042969 810.085938 Z M 405.042969 810.085938 "/><path style=" stroke:none;fill-rule:nonzero;fill:#f4e9de;fill-opacity:1;" d="M 405.042969 770.460938 C 203.550781 770.460938 39.625 606.535156 39.625 405.042969 C 39.625 203.550781 203.550781 39.625 405.042969 39.625 C 606.535156 39.625 770.460938 203.550781 770.460938 405.042969 C 770.460938 606.535156 606.535156 770.460938 405.042969 770.460938 Z M 405.042969 770.460938 "/><path style=" stroke:none;fill-rule:nonzero;fill:#ffb700;fill-opacity:1;" d="M 477.574219 405.042969 C 477.574219 445.101562 445.101562 477.574219 405.042969 477.574219 C 364.984375 477.574219 332.511719 445.101562 332.511719 405.042969 C 332.511719 364.984375 364.984375 332.511719 405.042969 332.511719 C 445.101562 332.511719 477.574219 364.984375 477.574219 405.042969 Z M 477.574219 405.042969 "/><path style=" stroke:none;fill-rule:nonzero;fill:#2c3f2d;fill-opacity:1;" d="M 158.246094 294.160156 C 157.953125 295.183594 157.402344 296.121094 157.027344 297.097656 C 156.683594 297.992188 156.539062 298.988281 156.117188 299.859375 C 155.695312 300.730469 155.15625 301.550781 154.660156 302.378906 C 154.160156 303.207031 153.503906 303.933594 152.925781 304.707031 C 152.34375 305.480469 151.757812 306.25 151.09375 306.945312 C 150.425781 307.652344 149.824219 308.4375 149.074219 309.039062 C 148.324219 309.644531 147.519531 310.226562 146.6875 310.714844 C 145.859375 311.199219 144.878906 311.402344 143.96875 311.753906 C 143.082031 312.101562 142.21875 312.601562 141.253906 312.800781 C 140.3125 313 139.34375 313.125 138.382812 313.25 C 137.433594 313.375 136.453125 313.273438 135.488281 313.328125 C 134.53125 313.390625 133.570312 313.605469 132.605469 313.59375 C 131.640625 313.578125 130.683594 313.378906 129.722656 313.296875 C 128.761719 313.21875 127.804688 313.105469 126.855469 312.960938 C 125.902344 312.816406 124.90625 312.847656 123.964844 312.640625 C 123.019531 312.429688 122.132812 311.976562 121.214844 311.703125 C 120.285156 311.429688 119.347656 311.191406 118.445312 310.855469 C 117.539062 310.519531 116.679688 310.078125 115.804688 309.679688 C 114.925781 309.277344 113.996094 308.894531 113.074219 308.410156 C 112.207031 307.957031 111.34375 307.441406 110.460938 306.917969 C 109.605469 306.410156 108.707031 305.953125 107.863281 305.390625 C 107.035156 304.835938 106.238281 304.210938 105.433594 303.601562 C 104.632812 302.996094 103.808594 302.40625 103.050781 301.753906 C 102.289062 301.089844 101.695312 300.246094 100.996094 299.539062 C 100.28125 298.816406 99.488281 298.179688 98.855469 297.414062 C 98.210938 296.625 97.757812 295.71875 97.222656 294.890625 C 96.671875 294.03125 96.179688 293.175781 95.773438 292.277344 C 95.375 291.398438 95.121094 290.484375 94.847656 289.570312 C 94.574219 288.644531 94.316406 287.738281 94.160156 286.796875 C 94.007812 285.847656 93.621094 284.917969 93.585938 283.960938 C 93.542969 283.003906 93.703125 282.039062 93.773438 281.074219 C 93.851562 280.121094 94.011719 279.171875 94.183594 278.226562 C 94.363281 277.28125 94.4375 276.304688 94.714844 275.382812 C 94.988281 274.464844 95.523438 273.625 95.886719 272.742188 C 96.253906 271.851562 96.769531 271.042969 97.222656 270.199219 C 97.675781 269.347656 97.972656 268.417969 98.507812 267.625 C 99.046875 266.824219 99.75 266.15625 100.363281 265.417969 C 101.035156 264.617188 101.570312 263.707031 102.320312 263.03125 C 103.085938 262.332031 103.871094 261.644531 104.714844 261.066406 C 105.5625 260.492188 106.613281 260.269531 107.542969 259.804688 C 108.445312 259.351562 109.28125 258.710938 110.265625 258.355469 C 111.085938 258.058594 112.070312 257.949219 113.023438 257.769531 C 113.972656 257.585938 114.886719 257.589844 115.773438 257.714844 C 117.117188 257.90625 118.019531 258.085938 118.507812 258.800781 C 118.980469 259.5 118.976562 260.578125 119.359375 261.710938 C 119.808594 263.039062 120.074219 264.054688 120.015625 264.925781 C 119.9375 266.097656 119.523438 267.0625 118.5625 267.828125 C 117.847656 268.402344 116.792969 268.792969 115.605469 269.378906 C 114.796875 269.777344 113.988281 270.179688 113.226562 270.640625 C 112.449219 271.109375 111.703125 271.625 111.003906 272.175781 C 110.296875 272.730469 109.765625 273.46875 109.164062 274.132812 C 108.566406 274.792969 108.089844 275.511719 107.625 276.292969 C 107.179688 277.046875 106.78125 277.804688 106.492188 278.691406 C 106.15625 279.703125 105.609375 280.613281 105.503906 281.550781 C 105.382812 282.59375 105.546875 283.617188 105.679688 284.570312 C 105.816406 285.582031 105.996094 286.589844 106.378906 287.503906 C 106.761719 288.417969 107.523438 289.136719 108.113281 289.953125 C 108.6875 290.753906 109.347656 291.46875 110.078125 292.175781 C 110.78125 292.863281 111.335938 293.753906 112.144531 294.359375 C 112.941406 294.953125 113.863281 295.390625 114.726562 295.910156 C 115.582031 296.425781 116.386719 297.0625 117.277344 297.515625 C 118.113281 297.9375 119.082031 298.195312 120.007812 298.59375 C 120.882812 298.96875 121.851562 299.179688 122.792969 299.511719 C 123.703125 299.832031 124.597656 300.242188 125.546875 300.496094 C 126.488281 300.75 127.40625 301.191406 128.367188 301.359375 C 129.335938 301.527344 130.332031 301.648438 131.296875 301.707031 C 132.28125 301.769531 133.289062 301.765625 134.246094 301.695312 C 135.230469 301.625 136.210938 301.386719 137.144531 301.152344 C 138.09375 300.917969 138.964844 300.4375 139.84375 300.007812 C 140.703125 299.585938 141.636719 299.21875 142.414062 298.59375 C 143.105469 298.027344 143.605469 297.230469 144.183594 296.519531 C 144.753906 295.824219 145.28125 295.09375 145.722656 294.292969 C 146.164062 293.5 146.71875 292.734375 147.011719 291.878906 C 147.304688 291.011719 147.421875 290.085938 147.546875 289.195312 C 147.683594 288.285156 147.859375 287.359375 147.796875 286.460938 C 147.730469 285.503906 147.40625 284.421875 147.148438 283.328125 C 146.898438 282.273438 146.703125 281.210938 146.589844 280.203125 C 146.460938 279.046875 146.234375 277.90625 146.722656 277.042969 C 147.167969 276.265625 148.152344 275.910156 149.480469 275.578125 C 150.683594 275.277344 151.699219 274.851562 152.613281 274.90625 C 153.804688 274.96875 154.792969 275.429688 155.59375 276.042969 C 156.375 276.640625 156.84375 277.570312 157.367188 278.640625 C 157.785156 279.5 158.382812 280.410156 158.695312 281.554688 C 158.96875 282.574219 159.132812 283.644531 159.226562 284.699219 C 159.328125 285.75 159.109375 286.808594 159.058594 287.875 C 159.003906 288.929688 159.15625 290.015625 158.976562 291.058594 C 158.796875 292.101562 158.527344 293.148438 158.246094 294.160156 Z M 169.949219 214.0625 C 170.710938 214.589844 171.4375 215.160156 172.164062 215.714844 C 172.898438 216.277344 173.671875 216.789062 174.367188 217.378906 C 175.066406 217.976562 175.714844 218.632812 176.375 219.261719 C 177.039062 219.898438 177.753906 220.492188 178.375 221.160156 C 178.996094 221.835938 179.566406 222.570312 180.140625 223.28125 C 180.714844 223.992188 181.148438 224.820312 181.675781 225.570312 C 182.199219 226.316406 182.761719 227.046875 183.238281 227.835938 C 183.710938 228.613281 184.148438 229.421875 184.566406 230.234375 C 184.984375 231.046875 185.367188 231.878906 185.726562 232.730469 C 186.082031 233.566406 186.398438 234.425781 186.707031 235.300781 C 187.035156 236.253906 187.46875 237.167969 187.664062 238.117188 C 187.867188 239.097656 187.765625 240.117188 187.832031 241.085938 C 187.902344 242.082031 187.777344 243.050781 187.707031 244.027344 C 187.640625 245.019531 187.535156 245.984375 187.332031 246.9375 C 187.125 247.910156 186.890625 248.851562 186.550781 249.769531 C 186.210938 250.699219 185.808594 251.582031 185.339844 252.449219 C 184.875 253.316406 184.355469 254.132812 183.773438 254.929688 C 183.191406 255.722656 182.574219 256.472656 181.886719 257.183594 C 181.207031 257.886719 180.496094 258.550781 179.710938 259.15625 C 178.941406 259.753906 178.1875 260.40625 177.328125 260.898438 C 176.484375 261.386719 175.570312 261.769531 174.648438 262.140625 C 173.746094 262.503906 172.84375 262.925781 171.871094 263.171875 C 170.933594 263.40625 169.945312 263.558594 168.945312 263.675781 C 167.984375 263.789062 166.988281 263.78125 165.980469 263.773438 C 165.066406 263.765625 164.128906 263.769531 163.199219 263.671875 C 162.28125 263.578125 161.363281 263.375 160.449219 263.195312 C 159.535156 263.023438 158.621094 262.851562 157.722656 262.609375 C 156.824219 262.367188 155.984375 261.929688 155.113281 261.632812 C 154.226562 261.328125 153.265625 261.21875 152.425781 260.867188 C 151.511719 260.480469 150.722656 259.835938 149.84375 259.402344 C 148.957031 258.960938 148.066406 258.550781 147.21875 258.066406 C 146.359375 257.574219 145.570312 256.984375 144.75 256.449219 C 143.921875 255.910156 143.0625 255.433594 142.269531 254.851562 C 141.472656 254.269531 140.683594 253.6875 139.921875 253.0625 C 139.164062 252.4375 138.488281 251.71875 137.757812 251.058594 C 137.03125 250.394531 136.289062 249.75 135.59375 249.054688 C 134.894531 248.359375 134.019531 247.832031 133.359375 247.101562 C 132.695312 246.375 132.175781 245.511719 131.546875 244.757812 C 130.914062 244.007812 130.394531 243.167969 129.785156 242.382812 C 129.171875 241.585938 128.609375 240.796875 128.125 239.980469 C 127.613281 239.113281 127.015625 238.320312 126.644531 237.4375 C 126.261719 236.515625 125.972656 235.566406 125.734375 234.632812 C 125.484375 233.671875 125.191406 232.710938 125.082031 231.746094 C 124.976562 230.765625 125.285156 229.769531 125.316406 228.796875 C 125.34375 227.816406 125.402344 226.859375 125.5625 225.894531 C 125.722656 224.925781 125.734375 223.921875 126.019531 222.988281 C 126.296875 222.050781 126.914062 221.238281 127.304688 220.34375 C 127.6875 219.441406 128.09375 218.570312 128.574219 217.71875 C 129.0625 216.867188 129.589844 216.0625 130.160156 215.269531 C 130.734375 214.472656 131.320312 213.710938 131.96875 212.980469 C 132.625 212.246094 133.277344 211.535156 133.992188 210.882812 C 134.722656 210.214844 135.496094 209.625 136.28125 209.0625 C 137.082031 208.480469 137.800781 207.800781 138.648438 207.332031 C 139.519531 206.851562 140.453125 206.542969 141.351562 206.203125 C 142.300781 205.839844 143.183594 205.324219 144.125 205.15625 C 145.105469 204.976562 146.121094 205.058594 147.085938 205.058594 C 148.070312 205.058594 149.050781 205.164062 150.015625 205.308594 C 150.984375 205.457031 151.914062 205.785156 152.863281 206.042969 C 153.804688 206.296875 154.710938 206.664062 155.636719 206.988281 C 156.5625 207.316406 157.476562 207.65625 158.382812 208.015625 C 159.300781 208.378906 160.304688 208.519531 161.207031 208.878906 C 161.996094 209.191406 162.648438 209.78125 163.390625 210.195312 C 164.128906 210.605469 164.867188 211.003906 165.578125 211.464844 C 166.289062 211.925781 167.152344 212.160156 167.855469 212.628906 C 168.566406 213.089844 169.230469 213.621094 169.949219 214.0625 Z M 148.691406 246.628906 C 149.492188 247.007812 150.289062 247.449219 151.136719 247.886719 C 151.933594 248.292969 152.792969 248.632812 153.628906 249.050781 C 154.445312 249.457031 155.253906 249.898438 156.101562 250.273438 C 156.941406 250.640625 157.824219 250.898438 158.695312 251.207031 C 159.589844 251.523438 160.445312 251.832031 161.328125 252.03125 C 162.253906 252.242188 163.136719 252.535156 164.039062 252.589844 C 164.976562 252.648438 165.894531 252.546875 166.796875 252.40625 C 167.703125 252.261719 168.582031 252.023438 169.441406 251.65625 C 170.253906 251.300781 171.042969 250.84375 171.808594 250.253906 C 172.496094 249.722656 173.171875 249.105469 173.8125 248.355469 C 174.417969 247.652344 174.757812 246.832031 175.164062 246.046875 C 175.582031 245.242188 176.105469 244.496094 176.300781 243.617188 C 176.492188 242.753906 176.703125 241.847656 176.671875 240.925781 C 176.648438 240.054688 176.480469 239.136719 176.253906 238.230469 C 176.042969 237.394531 175.703125 236.539062 175.316406 235.679688 C 174.964844 234.894531 174.53125 234.085938 174.03125 233.285156 C 173.511719 232.460938 172.964844 231.660156 172.390625 230.890625 C 171.808594 230.113281 171.175781 229.371094 170.542969 228.648438 C 169.902344 227.921875 169.210938 227.238281 168.515625 226.570312 C 167.816406 225.902344 167.015625 225.355469 166.269531 224.742188 C 165.523438 224.132812 164.78125 223.515625 163.988281 222.960938 C 163.195312 222.417969 162.320312 222 161.484375 221.511719 C 160.65625 221.027344 159.828125 220.546875 158.957031 220.117188 C 158.09375 219.691406 157.246094 219.238281 156.34375 218.867188 C 155.460938 218.503906 154.535156 218.226562 153.609375 217.914062 C 152.710938 217.609375 151.832031 217.328125 150.941406 217.191406 C 150 217.042969 149.074219 217.023438 148.175781 217.042969 C 147.226562 217.066406 146.285156 217.015625 145.402344 217.210938 C 144.476562 217.414062 143.679688 217.941406 142.859375 218.320312 C 142.003906 218.714844 141.082031 218.976562 140.371094 219.546875 C 139.640625 220.128906 139.023438 220.851562 138.488281 221.597656 C 137.9375 222.363281 137.390625 223.183594 137.035156 224.078125 C 136.6875 224.953125 136.527344 225.921875 136.371094 226.875 C 136.222656 227.804688 136.1875 228.773438 136.230469 229.730469 C 136.269531 230.679688 136.304688 231.65625 136.539062 232.582031 C 136.765625 233.503906 137.144531 234.410156 137.570312 235.265625 C 137.988281 236.109375 138.726562 236.757812 139.34375 237.5 C 139.894531 238.171875 140.351562 238.929688 140.960938 239.5625 C 141.558594 240.179688 142.105469 240.871094 142.757812 241.480469 C 143.378906 242.0625 144.035156 242.625 144.695312 243.214844 C 145.332031 243.792969 146.109375 244.238281 146.777344 244.84375 C 147.410156 245.417969 148.042969 246.007812 148.691406 246.628906 Z M 181.527344 186.007812 C 182.222656 186.699219 183.183594 186.988281 184.109375 187.167969 C 184.972656 187.34375 185.929688 187.382812 186.910156 187.242188 C 187.800781 187.113281 188.714844 186.835938 189.632812 186.558594 C 190.527344 186.285156 191.476562 186.105469 192.339844 185.777344 C 193.25 185.429688 194.085938 184.957031 194.914062 184.652344 C 195.703125 184.355469 196.421875 183.894531 197.203125 183.578125 C 197.980469 183.261719 198.742188 182.910156 199.507812 182.570312 C 200.273438 182.230469 201.105469 182.027344 201.863281 181.65625 C 202.617188 181.285156 203.382812 180.9375 204.117188 180.535156 C 204.992188 180.199219 205.804688 179.824219 206.640625 179.597656 C 207.539062 179.355469 208.421875 179.195312 209.273438 179.070312 C 210.191406 178.933594 211.085938 179.058594 211.949219 179.050781 C 212.871094 179.042969 213.75 178.992188 214.613281 179.121094 C 215.515625 179.257812 216.40625 179.367188 217.246094 179.640625 C 218.101562 179.917969 218.867188 180.382812 219.660156 180.789062 C 220.449219 181.191406 221.253906 181.566406 221.992188 182.085938 C 222.714844 182.597656 223.496094 183.0625 224.167969 183.671875 C 224.820312 184.269531 225.425781 184.941406 226.027344 185.617188 C 226.652344 186.3125 227.28125 186.996094 227.765625 187.746094 C 228.265625 188.523438 228.671875 189.363281 229.023438 190.191406 C 229.378906 191.03125 229.535156 191.945312 229.734375 192.832031 C 229.933594 193.714844 230.183594 194.609375 230.226562 195.523438 C 230.269531 196.421875 230.003906 197.320312 229.902344 198.238281 C 229.804688 199.121094 229.863281 200.054688 229.628906 200.949219 C 229.40625 201.808594 229.023438 202.644531 228.675781 203.503906 C 228.339844 204.324219 227.914062 205.128906 227.46875 205.945312 C 227.042969 206.726562 226.5625 207.492188 226.035156 208.257812 C 225.539062 208.988281 225.050781 209.761719 224.460938 210.476562 C 223.898438 211.164062 223.332031 211.894531 222.6875 212.5625 C 222.066406 213.207031 221.460938 213.90625 220.765625 214.527344 C 220.027344 215.191406 219.089844 215.566406 218.34375 216.113281 C 217.539062 216.703125 216.886719 217.449219 216.089844 217.917969 C 215.234375 218.425781 214.234375 218.570312 213.398438 218.953125 C 212.492188 219.367188 211.699219 219.945312 210.832031 220.234375 C 209.875 220.554688 208.933594 220.785156 208.050781 220.980469 C 207.054688 221.199219 206.117188 221.449219 205.234375 221.550781 C 204.183594 221.667969 203.207031 221.664062 202.371094 221.671875 C 201.125 221.679688 200.148438 221.542969 199.527344 221.476562 C 198.148438 221.484375 197.144531 221.363281 196.507812 220.992188 C 195.609375 220.464844 195.4375 219.472656 195.386719 218.28125 C 195.34375 217.421875 195.46875 216.414062 195.53125 215.25 C 195.585938 214.214844 195.6875 213.339844 195.828125 212.59375 C 196.027344 211.53125 196.1875 210.660156 196.9375 210.269531 C 197.53125 209.964844 198.402344 210.078125 199.59375 210.246094 C 200.425781 210.363281 201.46875 210.207031 202.613281 210.140625 C 203.550781 210.085938 204.574219 210.097656 205.617188 209.914062 C 206.585938 209.742188 207.550781 209.398438 208.53125 209.117188 C 209.503906 208.835938 210.472656 208.535156 211.378906 208.140625 C 212.335938 207.726562 213.175781 207.179688 213.96875 206.636719 C 214.777344 206.125 215.492188 205.515625 216.097656 204.738281 C 216.683594 203.984375 217.074219 203.117188 217.457031 202.21875 C 217.84375 201.320312 218.164062 200.425781 218.335938 199.488281 C 218.519531 198.492188 218.730469 197.527344 218.65625 196.621094 C 218.574219 195.554688 218.246094 194.628906 217.796875 193.882812 C 217.246094 192.96875 216.648438 192.308594 215.988281 191.84375 C 215.191406 191.28125 214.347656 191.007812 213.441406 190.933594 C 212.558594 190.859375 211.644531 190.964844 210.710938 191.191406 C 209.835938 191.402344 209.015625 191.867188 208.148438 192.191406 C 207.289062 192.507812 206.34375 192.609375 205.488281 192.941406 C 204.632812 193.273438 203.734375 193.492188 202.882812 193.832031 C 202.027344 194.171875 201.1875 194.546875 200.335938 194.890625 C 199.488281 195.234375 198.644531 195.632812 197.796875 195.976562 C 196.949219 196.324219 196.097656 196.675781 195.25 197.027344 C 194.40625 197.382812 193.554688 197.730469 192.710938 198.085938 C 191.789062 198.46875 190.898438 198.785156 189.988281 199.007812 C 189.03125 199.246094 188.09375 199.421875 187.160156 199.492188 C 186.175781 199.570312 185.210938 199.671875 184.269531 199.578125 C 183.300781 199.476562 182.359375 199.238281 181.445312 198.964844 C 180.519531 198.6875 179.574219 198.433594 178.71875 197.992188 C 177.871094 197.550781 177.058594 196.992188 176.296875 196.394531 C 175.546875 195.8125 174.875 195.097656 174.226562 194.375 C 173.578125 193.652344 172.9375 192.960938 172.40625 192.222656 C 171.84375 191.4375 171.386719 190.605469 170.949219 189.808594 C 170.480469 188.964844 170.046875 188.128906 169.71875 187.28125 C 169.375 186.386719 169.261719 185.441406 169.0625 184.550781 C 168.855469 183.625 168.480469 182.726562 168.417969 181.808594 C 168.351562 180.867188 168.625 179.9375 168.703125 179.011719 C 168.785156 178.082031 168.882812 177.164062 169.101562 176.253906 C 169.324219 175.351562 169.691406 174.5 170.039062 173.632812 C 170.382812 172.765625 170.6875 171.894531 171.144531 171.070312 C 171.59375 170.261719 172.070312 169.464844 172.625 168.703125 C 173.167969 167.953125 173.832031 167.296875 174.464844 166.601562 C 175.085938 165.910156 175.710938 165.226562 176.410156 164.597656 C 177.199219 163.890625 177.804688 163.046875 178.582031 162.472656 C 179.417969 161.855469 180.359375 161.453125 181.207031 160.972656 C 182.085938 160.476562 183.027344 160.152344 183.957031 159.773438 C 184.863281 159.398438 185.792969 159.058594 186.78125 158.78125 C 187.710938 158.519531 188.644531 158.117188 189.675781 157.914062 C 191.433594 157.566406 192.339844 157.433594 193.101562 157.34375 C 194.011719 157.234375 194.730469 157.109375 196.535156 157.015625 C 197.480469 156.964844 198.046875 158.242188 198.511719 159.480469 C 198.9375 160.605469 199.1875 161.839844 199.1875 162.617188 C 199.1875 163.722656 199.425781 164.609375 199.382812 165.335938 C 199.316406 166.453125 198.875 167.019531 198.167969 167.558594 C 197.644531 167.953125 196.933594 168.246094 195.75 168.511719 C 194.863281 168.710938 193.867188 168.859375 192.800781 169.027344 C 191.847656 169.179688 190.835938 169.355469 189.824219 169.5625 C 188.847656 169.757812 187.855469 170.042969 186.902344 170.363281 C 185.941406 170.6875 184.976562 171.074219 184.117188 171.589844 C 183.265625 172.105469 182.59375 172.894531 181.925781 173.675781 C 181.3125 174.386719 180.714844 175.078125 180.328125 175.847656 C 179.898438 176.679688 179.855469 177.605469 179.6875 178.457031 C 179.503906 179.363281 179.300781 180.226562 179.398438 181.101562 C 179.5 182.003906 179.722656 182.875 180.113281 183.683594 C 180.496094 184.480469 180.875 185.359375 181.527344 186.007812 Z M 235.890625 136.03125 C 236.398438 136.828125 236.71875 137.5625 237.210938 138.332031 C 237.71875 139.125 238.320312 139.839844 238.816406 140.609375 C 239.324219 141.398438 239.609375 142.316406 240.105469 143.082031 C 240.613281 143.878906 241.125 144.652344 241.625 145.429688 C 242.132812 146.214844 242.589844 147.023438 243.085938 147.796875 C 243.59375 148.589844 244.152344 149.328125 244.652344 150.109375 C 245.152344 150.890625 245.6875 151.648438 246.179688 152.421875 C 246.679688 153.199219 247.40625 153.832031 247.898438 154.609375 C 248.394531 155.386719 248.792969 156.214844 249.285156 156.988281 C 249.789062 157.78125 250.410156 158.550781 250.957031 159.410156 C 251.460938 160.21875 251.984375 161.050781 252.519531 161.902344 C 253.027344 162.714844 253.242188 163.738281 253.761719 164.578125 C 254.28125 165.402344 254.914062 166.171875 255.433594 167.007812 C 255.957031 167.84375 256.371094 168.746094 256.894531 169.574219 C 257.425781 170.417969 258.089844 171.167969 258.605469 171.992188 C 259.144531 172.839844 259.621094 173.707031 260.132812 174.515625 C 260.683594 175.375 261.253906 176.175781 261.761719 176.964844 C 262.46875 178.058594 262.792969 178.914062 262.96875 179.636719 C 263.199219 180.578125 263.050781 181.246094 262.082031 182.148438 C 261.523438 182.671875 260.84375 183.371094 259.804688 184.050781 C 258.742188 184.75 257.90625 185.414062 257.15625 185.820312 C 256.125 186.371094 255.226562 186.335938 254.214844 185.527344 C 253.628906 185.058594 253.035156 184.265625 252.285156 183.09375 C 251.792969 182.332031 251.210938 181.613281 250.707031 180.828125 C 250.210938 180.058594 249.738281 179.269531 249.238281 178.476562 C 248.746094 177.703125 248.410156 176.816406 247.910156 176.027344 C 247.421875 175.25 246.828125 174.523438 246.328125 173.734375 C 245.839844 172.957031 245.265625 172.222656 244.773438 171.433594 C 244.285156 170.648438 243.902344 169.789062 243.410156 169 C 242.917969 168.210938 242.351562 167.46875 241.863281 166.675781 C 241.371094 165.882812 240.773438 165.152344 240.28125 164.359375 C 239.789062 163.566406 239.339844 162.746094 238.855469 161.953125 C 238.363281 161.15625 237.804688 160.40625 237.320312 159.609375 C 236.828125 158.804688 236.363281 157.988281 235.878906 157.195312 C 235.390625 156.390625 235.011719 155.527344 234.53125 154.738281 C 234.046875 153.9375 233.460938 153.210938 232.988281 152.425781 C 232.503906 151.621094 232.226562 150.710938 231.757812 149.929688 C 231.257812 149.097656 230.507812 148.316406 229.957031 147.445312 C 229.375 146.53125 228.878906 145.589844 228.375 144.808594 C 227.410156 143.328125 228.15625 142.742188 226.722656 142.230469 C 225.355469 141.742188 225.683594 142.671875 224.078125 143.460938 C 223.324219 143.832031 222.476562 144.34375 221.507812 144.851562 C 220.699219 145.277344 219.859375 145.800781 218.953125 146.3125 C 218.1875 146.683594 217.417969 147.273438 216.625 147.703125 C 215.734375 148.175781 214.789062 148.261719 213.988281 148.140625 C 212.910156 147.976562 212.082031 147.589844 211.507812 146.84375 C 210.953125 146.121094 210.765625 145.058594 210.203125 144.253906 C 209.78125 143.652344 209.148438 142.976562 208.929688 142.089844 C 208.734375 141.304688 208.726562 140.421875 208.996094 139.5625 C 209.222656 138.839844 210.210938 138.164062 210.980469 137.699219 C 211.777344 137.214844 212.601562 136.773438 213.402344 136.289062 C 214.199219 135.808594 215.027344 135.371094 215.828125 134.886719 C 216.625 134.402344 217.382812 133.847656 218.179688 133.363281 C 218.976562 132.878906 219.871094 132.554688 220.671875 132.070312 C 221.46875 131.589844 222.292969 131.148438 223.097656 130.664062 C 223.894531 130.183594 224.71875 129.738281 225.519531 129.257812 C 226.320312 128.777344 226.984375 128.070312 227.785156 127.585938 C 228.589844 127.105469 229.488281 126.792969 230.289062 126.3125 C 231.089844 125.832031 231.796875 125.195312 232.59375 124.714844 C 233.394531 124.234375 234.261719 123.863281 235.0625 123.382812 C 235.859375 122.902344 236.597656 122.3125 237.398438 121.835938 C 238.199219 121.355469 239.015625 120.90625 239.820312 120.425781 C 240.761719 119.863281 241.5625 119.433594 242.273438 119.355469 C 243.144531 119.25 243.96875 119.601562 244.722656 120.304688 C 245.242188 120.789062 245.855469 121.449219 246.417969 122.355469 C 247.023438 123.339844 247.464844 124.257812 247.746094 125.050781 C 248.125 126.121094 248.019531 127.074219 247.566406 127.9375 C 247.199219 128.632812 246.5625 129.339844 245.492188 129.996094 C 244.691406 130.492188 243.886719 130.980469 243.054688 131.496094 C 242.285156 131.972656 241.484375 132.460938 240.632812 132.988281 C 239.867188 133.460938 239.054688 133.945312 238.179688 134.484375 C 237.40625 134.953125 236.765625 135.492188 235.890625 136.03125 Z M 307.03125 104.5625 C 307.175781 105.480469 307.117188 106.28125 307.21875 107.027344 C 307.34375 107.953125 307.652344 108.734375 307.765625 109.484375 C 307.902344 110.363281 308.019531 111.148438 308.230469 111.917969 C 308.445312 112.703125 308.535156 113.683594 308.824219 114.613281 C 309.105469 115.519531 309.507812 116.402344 309.769531 117.210938 C 310.257812 118.699219 309.40625 119.238281 310.585938 119.941406 C 311.640625 120.570312 311.640625 119.5625 313.035156 119.160156 C 313.734375 118.957031 314.558594 118.789062 315.417969 118.574219 C 316.199219 118.378906 316.953125 117.890625 317.757812 117.738281 C 318.726562 117.554688 319.761719 117.683594 320.726562 117.476562 C 321.691406 117.269531 322.589844 116.753906 323.550781 116.53125 C 324.519531 116.308594 325.5 116.175781 326.457031 115.945312 C 327.425781 115.710938 328.429688 115.648438 329.386719 115.417969 C 330.34375 115.191406 331.3125 114.710938 332.257812 114.492188 C 332.6875 115.34375 333.109375 116.1875 333.449219 116.898438 C 333.875 117.789062 334.023438 118.664062 334.292969 119.363281 C 334.679688 120.355469 335.152344 121.121094 335.160156 121.8125 C 335.167969 122.71875 334.746094 123.496094 333.953125 124.09375 C 333.40625 124.503906 332.53125 124.648438 331.53125 125.011719 C 330.828125 125.269531 330.089844 125.757812 329.140625 126.027344 C 328.316406 126.316406 327.425781 126.460938 326.566406 126.730469 C 325.726562 126.996094 324.910156 127.394531 324.046875 127.648438 C 323.199219 127.894531 322.324219 128.097656 321.457031 128.335938 C 320.597656 128.582031 319.703125 128.742188 318.835938 128.984375 C 317.964844 129.222656 317.125 129.554688 316.253906 129.796875 C 315.390625 130.035156 314.46875 130.171875 313.621094 130.417969 C 313.667969 131.402344 313.75 132.304688 313.894531 133.121094 C 314.0625 134.035156 314.410156 134.847656 314.617188 135.707031 C 314.804688 136.5 314.949219 137.339844 315.195312 138.152344 C 315.4375 138.96875 315.769531 139.757812 316.023438 140.527344 C 316.316406 141.398438 316.390625 142.28125 316.644531 142.976562 C 317.15625 144.378906 316.5625 144.664062 317.722656 145.109375 C 319.09375 145.644531 318.859375 145.097656 320.539062 144.609375 C 321.375 144.367188 322.316406 144.003906 323.351562 143.71875 C 324.269531 143.457031 325.242188 143.199219 326.207031 142.941406 C 327.1875 142.683594 328.125 142.273438 329.097656 141.980469 C 330.066406 141.6875 330.988281 141.226562 331.957031 140.921875 C 332.925781 140.625 333.953125 140.496094 334.921875 140.207031 C 335.894531 139.917969 336.90625 139.78125 337.886719 139.523438 C 338.867188 139.265625 339.816406 138.902344 340.808594 138.703125 C 341.835938 138.492188 342.664062 138.691406 343.417969 139.117188 C 344.144531 139.535156 344.851562 140.117188 345.582031 140.738281 C 346.246094 141.308594 346.636719 142.078125 347.0625 142.742188 C 347.554688 143.503906 347.859375 144.234375 347.953125 145 C 348.0625 145.863281 348.070312 146.699219 347.554688 147.375 C 347.121094 147.941406 346.433594 148.472656 345.476562 148.773438 C 344.621094 149.042969 343.695312 149.0625 342.839844 149.328125 C 341.984375 149.589844 341.179688 150.007812 340.328125 150.261719 C 339.46875 150.515625 338.625 150.824219 337.769531 151.066406 C 336.910156 151.3125 336.027344 151.46875 335.167969 151.710938 C 334.308594 151.949219 333.421875 152.085938 332.558594 152.320312 C 331.695312 152.554688 330.902344 153.046875 330.035156 153.273438 C 329.171875 153.5 328.234375 153.445312 327.367188 153.667969 C 326.503906 153.894531 325.632812 154.089844 324.765625 154.304688 C 323.898438 154.523438 323.117188 155.089844 322.25 155.300781 C 321.378906 155.515625 320.441406 155.433594 319.574219 155.640625 C 318.703125 155.847656 317.847656 156.113281 316.980469 156.3125 C 316.105469 156.519531 315.234375 156.707031 314.367188 156.910156 C 313.585938 157.089844 312.34375 156.769531 311.234375 156.148438 C 310.109375 155.515625 309.074219 154.652344 308.855469 153.898438 C 308.609375 153.035156 308.539062 152.121094 308.296875 151.25 C 308.046875 150.386719 307.632812 149.566406 307.386719 148.695312 C 307.144531 147.828125 307.128906 146.898438 306.882812 146.023438 C 306.636719 145.15625 306.082031 144.378906 305.835938 143.507812 C 305.59375 142.636719 305.472656 141.734375 305.230469 140.863281 C 304.992188 139.996094 304.699219 139.144531 304.457031 138.273438 C 304.21875 137.410156 304.007812 136.53125 303.765625 135.660156 C 303.527344 134.789062 303.195312 133.945312 302.957031 133.074219 C 302.714844 132.203125 302.640625 131.289062 302.398438 130.414062 C 302.164062 129.542969 301.703125 128.730469 301.464844 127.855469 C 301.226562 126.988281 301.34375 126.019531 301.109375 125.144531 C 300.871094 124.273438 300.429688 123.453125 300.191406 122.582031 C 299.953125 121.707031 299.839844 120.800781 299.601562 119.925781 C 299.363281 119.050781 298.839844 118.253906 298.601562 117.375 C 298.363281 116.503906 298.410156 115.546875 298.171875 114.667969 C 297.933594 113.792969 297.644531 112.929688 297.40625 112.050781 C 297.171875 111.171875 296.816406 110.324219 296.582031 109.445312 C 296.347656 108.566406 296.105469 107.691406 295.867188 106.808594 C 295.628906 105.925781 295.488281 105.023438 295.253906 104.144531 C 295.019531 103.269531 294.589844 102.441406 294.351562 101.5625 C 294.117188 100.683594 294.066406 99.757812 293.828125 98.878906 C 293.59375 98 293.464844 97.1875 293.230469 96.3125 C 294.179688 95.984375 294.964844 95.484375 295.894531 95.210938 C 296.855469 94.929688 297.863281 94.882812 298.800781 94.640625 C 299.773438 94.394531 300.710938 94.101562 301.660156 93.882812 C 302.625 93.664062 303.578125 93.433594 304.523438 93.222656 C 305.496094 93.007812 306.496094 92.980469 307.449219 92.753906 C 308.40625 92.527344 309.347656 92.246094 310.28125 91.988281 C 311.226562 91.730469 312.105469 91.261719 313.03125 90.953125 C 313.878906 90.667969 314.785156 90.546875 315.628906 90.257812 C 316.476562 89.964844 317.28125 89.550781 318.125 89.257812 C 318.972656 88.972656 319.777344 88.542969 320.628906 88.269531 C 321.480469 87.992188 322.410156 87.960938 323.265625 87.707031 C 324.121094 87.453125 324.984375 87.21875 325.851562 86.996094 C 326.984375 86.671875 327.886719 86.210938 328.6875 86.117188 C 330.003906 85.957031 330.921875 86.261719 331.558594 86.601562 C 332.414062 87.066406 332.773438 87.910156 333.050781 88.957031 C 333.28125 89.800781 333.4375 90.78125 333.726562 91.792969 C 333.980469 93.101562 333.921875 94.058594 333.785156 94.835938 C 333.578125 95.976562 333.070312 96.617188 332.074219 97.121094 C 331.3125 97.507812 330.316406 97.675781 329.140625 98.003906 C 328.214844 98.261719 327.285156 98.519531 326.363281 98.78125 C 325.441406 99.039062 324.582031 99.53125 323.65625 99.796875 C 322.738281 100.058594 321.828125 100.375 320.898438 100.640625 C 319.980469 100.90625 319.019531 101.046875 318.089844 101.3125 C 317.179688 101.574219 316.289062 101.945312 315.363281 102.210938 C 314.449219 102.472656 313.449219 102.480469 312.519531 102.75 C 311.59375 103.015625 310.691406 103.375 309.75 103.644531 C 308.828125 103.914062 307.972656 104.292969 307.03125 104.5625 Z M 366.261719 91.429688 C 366.351562 92.355469 366.316406 93.152344 366.402344 94.039062 C 366.492188 94.957031 366.566406 95.859375 366.652344 96.761719 C 366.742188 97.65625 367.011719 98.535156 367.097656 99.433594 C 367.183594 100.320312 366.992188 101.242188 367.078125 102.152344 C 367.164062 103.042969 367.511719 103.917969 367.605469 104.84375 C 367.6875 105.726562 367.667969 106.589844 367.757812 107.527344 C 368.730469 107.429688 369.644531 107.460938 370.578125 107.363281 C 371.542969 107.269531 372.484375 107.128906 373.417969 107.035156 C 374.382812 106.9375 375.320312 106.6875 376.257812 106.59375 C 377.21875 106.503906 378.164062 106.394531 379.109375 106.304688 C 380.050781 106.21875 381.007812 106.386719 381.949219 106.304688 C 383.023438 106.214844 384.09375 105.890625 385.175781 105.835938 C 386.265625 105.78125 387.363281 105.808594 388.4375 105.90625 C 389.46875 106 390.203125 106.460938 390.78125 106.929688 C 391.429688 107.460938 391.96875 108.144531 392.089844 109.089844 C 392.183594 109.832031 391.972656 110.699219 391.773438 111.664062 C 391.582031 112.570312 391.367188 113.515625 390.980469 114.308594 C 390.5625 115.164062 390.027344 116.03125 389.066406 116.289062 C 388.226562 116.507812 387.328125 116.476562 386.46875 116.621094 C 385.613281 116.761719 384.765625 116.941406 383.898438 117.03125 C 383.039062 117.125 382.167969 117.121094 381.304688 117.195312 C 380.441406 117.265625 379.582031 117.402344 378.722656 117.484375 C 377.859375 117.5625 376.996094 117.628906 376.140625 117.746094 C 375.269531 117.777344 374.433594 117.941406 373.636719 118.035156 C 372.71875 118.136719 371.867188 118.222656 371.144531 118.351562 C 369.671875 118.613281 369.550781 117.910156 368.78125 118.890625 C 368.03125 119.84375 368.558594 119.839844 368.59375 121.25 C 368.609375 121.976562 368.800781 122.804688 368.859375 123.660156 C 368.917969 124.460938 368.832031 125.308594 368.953125 126.085938 C 369.089844 127.003906 369.238281 127.921875 369.363281 128.84375 C 369.492188 129.765625 369.535156 130.691406 369.640625 131.617188 C 369.746094 132.539062 369.890625 133.453125 369.960938 134.382812 C 370.039062 135.308594 370.386719 136.222656 370.417969 137.148438 C 370.445312 138.078125 370.324219 139.011719 370.296875 139.941406 C 370.273438 140.675781 370.335938 141.570312 370.222656 142.421875 C 370.121094 143.230469 369.929688 144.113281 369.195312 144.660156 C 368.675781 145.046875 367.835938 145.140625 366.769531 145.246094 C 365.660156 145.351562 364.632812 145.273438 363.695312 145.222656 C 362.503906 145.148438 361.460938 145.140625 360.703125 144.683594 C 359.839844 144.15625 359.464844 143.308594 359.402344 142.085938 C 359.34375 140.855469 359.011719 139.878906 358.90625 138.949219 C 358.789062 137.90625 358.605469 136.945312 358.511719 135.820312 C 358.425781 134.871094 358.675781 133.894531 358.59375 132.945312 C 358.507812 131.996094 358.167969 131.070312 358.085938 130.121094 C 358.003906 129.171875 358.105469 128.207031 358.023438 127.257812 C 357.9375 126.3125 357.9375 125.355469 357.851562 124.40625 C 357.773438 123.457031 357.316406 122.542969 357.238281 121.59375 C 357.15625 120.644531 357.359375 119.671875 357.277344 118.722656 C 357.195312 117.773438 357.039062 116.832031 356.957031 115.886719 C 356.878906 114.9375 356.632812 114.003906 356.554688 113.054688 C 356.472656 112.109375 356.566406 111.144531 356.488281 110.199219 C 356.40625 109.25 356.351562 108.296875 356.269531 107.347656 C 356.191406 106.398438 356.109375 105.453125 356.027344 104.503906 C 355.949219 103.554688 355.683594 102.621094 355.605469 101.671875 C 355.523438 100.722656 355.394531 99.777344 355.316406 98.828125 C 355.234375 97.882812 355.195312 96.929688 355.117188 95.980469 C 355.066406 95.363281 355.238281 94.214844 355.09375 93.097656 C 354.949219 91.980469 354.675781 90.894531 354.683594 90.273438 C 354.699219 89.269531 354.816406 88.308594 354.828125 87.414062 C 354.835938 86.347656 354.546875 85.378906 354.550781 84.554688 C 354.554688 82.824219 353.683594 82.726562 354.566406 81.625 C 355.339844 80.65625 355.695312 81.753906 357.175781 81.554688 C 357.890625 81.460938 358.703125 81.203125 359.597656 81.082031 C 360.382812 80.972656 361.242188 81.027344 362.089844 80.90625 C 362.910156 80.789062 363.71875 80.496094 364.53125 80.375 C 365.417969 80.242188 366.289062 79.972656 367.179688 79.859375 C 368.070312 79.746094 368.976562 79.761719 369.867188 79.664062 C 370.761719 79.566406 371.675781 79.699219 372.570312 79.613281 C 373.464844 79.527344 374.355469 79.441406 375.253906 79.363281 C 376.148438 79.289062 377.042969 79.207031 377.9375 79.136719 C 378.832031 79.0625 379.722656 78.90625 380.617188 78.839844 C 381.519531 78.773438 382.402344 78.546875 383.296875 78.476562 C 384.191406 78.40625 385.105469 78.523438 385.996094 78.445312 C 386.890625 78.371094 387.765625 78.09375 388.65625 78.011719 C 389.816406 77.90625 390.902344 77.886719 391.804688 78.066406 C 392.847656 78.277344 393.539062 78.90625 394.03125 80 C 394.363281 80.734375 394.640625 81.671875 394.644531 83.007812 C 394.640625 84.285156 394.375 85.242188 394.074219 86.050781 C 393.667969 87.140625 393.101562 87.832031 392.140625 88.296875 C 391.324219 88.691406 390.335938 88.84375 389.117188 88.96875 C 388.164062 89.0625 387.238281 89.460938 386.277344 89.554688 C 385.328125 89.648438 384.339844 89.402344 383.382812 89.492188 C 382.429688 89.585938 381.503906 89.980469 380.539062 90.074219 C 379.589844 90.167969 378.625 90.160156 377.660156 90.253906 C 376.707031 90.347656 375.730469 90.261719 374.765625 90.355469 C 373.820312 90.449219 372.890625 90.804688 371.925781 90.898438 C 370.972656 90.992188 370.007812 91.058594 369.03125 91.152344 C 368.089844 91.234375 367.238281 91.335938 366.261719 91.429688 Z M 425.191406 89.855469 C 425.117188 90.785156 424.941406 91.5625 424.871094 92.449219 C 424.796875 93.367188 424.710938 94.269531 424.640625 95.171875 C 424.566406 96.070312 424.679688 96.980469 424.605469 97.878906 C 424.535156 98.769531 424.179688 99.640625 424.109375 100.550781 C 424.035156 101.441406 424.226562 102.367188 424.152344 103.296875 C 424.078125 104.179688 423.90625 105.023438 423.832031 105.960938 C 424.808594 106.039062 425.699219 106.226562 426.636719 106.300781 C 427.601562 106.375 428.554688 106.40625 429.488281 106.476562 C 430.457031 106.550781 431.421875 106.464844 432.363281 106.542969 C 433.324219 106.617188 434.273438 106.679688 435.214844 106.757812 C 436.160156 106.839844 437.074219 107.171875 438.015625 107.257812 C 439.089844 107.355469 440.195312 107.226562 441.273438 107.363281 C 442.351562 107.5 443.433594 107.722656 444.46875 108.007812 C 445.46875 108.28125 446.109375 108.863281 446.59375 109.429688 C 447.140625 110.0625 447.550781 110.832031 447.503906 111.78125 C 447.464844 112.53125 447.105469 113.347656 446.738281 114.261719 C 446.390625 115.121094 446.015625 116.011719 445.492188 116.722656 C 444.929688 117.492188 444.253906 118.253906 443.257812 118.335938 C 442.394531 118.40625 441.515625 118.214844 440.644531 118.207031 C 439.78125 118.195312 438.910156 118.222656 438.042969 118.160156 C 437.183594 118.097656 436.324219 117.945312 435.460938 117.863281 C 434.597656 117.78125 433.730469 117.761719 432.871094 117.691406 C 432.003906 117.617188 431.144531 117.53125 430.28125 117.496094 C 429.417969 117.375 428.570312 117.386719 427.769531 117.339844 C 426.84375 117.28125 425.992188 117.214844 425.257812 117.214844 C 423.761719 117.210938 423.765625 116.5 422.835938 117.328125 C 421.933594 118.132812 422.449219 118.222656 422.238281 119.617188 C 422.128906 120.335938 422.164062 121.183594 422.074219 122.035156 C 421.988281 122.832031 421.757812 123.65625 421.738281 124.441406 C 421.714844 125.367188 421.695312 126.296875 421.660156 127.226562 C 421.621094 128.152344 421.503906 129.074219 421.441406 130.003906 C 421.382812 130.929688 421.363281 131.855469 421.273438 132.78125 C 421.183594 133.707031 421.363281 134.667969 421.234375 135.585938 C 421.097656 136.503906 420.8125 137.402344 420.621094 138.308594 C 420.472656 139.03125 420.375 139.921875 420.113281 140.738281 C 419.871094 141.515625 419.527344 142.355469 418.710938 142.765625 C 418.128906 143.054688 417.285156 142.996094 416.21875 142.910156 C 415.105469 142.824219 414.109375 142.5625 413.195312 142.347656 C 412.035156 142.066406 411.011719 141.875 410.347656 141.289062 C 409.589844 140.621094 409.367188 139.71875 409.523438 138.503906 C 409.679688 137.285156 409.527344 136.265625 409.585938 135.328125 C 409.65625 134.28125 409.644531 133.308594 409.746094 132.179688 C 409.832031 131.230469 410.25 130.316406 410.335938 129.367188 C 410.417969 128.417969 410.246094 127.445312 410.332031 126.5 C 410.421875 125.550781 410.691406 124.617188 410.773438 123.667969 C 410.859375 122.722656 411.027344 121.78125 411.113281 120.832031 C 411.199219 119.882812 410.910156 118.902344 411 117.953125 C 411.085938 117.007812 411.460938 116.085938 411.542969 115.136719 C 411.632812 114.1875 411.640625 113.234375 411.730469 112.289062 C 411.820312 111.339844 411.742188 110.378906 411.828125 109.429688 C 411.917969 108.484375 412.179688 107.554688 412.265625 106.605469 C 412.355469 105.65625 412.46875 104.714844 412.558594 103.765625 C 412.644531 102.816406 412.730469 101.867188 412.816406 100.921875 C 412.90625 99.972656 412.808594 99.007812 412.902344 98.058594 C 412.988281 97.113281 413.027344 96.160156 413.117188 95.210938 C 413.203125 94.265625 413.335938 93.320312 413.421875 92.371094 C 413.480469 91.753906 413.851562 90.65625 413.90625 89.53125 C 413.960938 88.40625 413.882812 87.285156 414 86.679688 C 414.191406 85.691406 414.480469 84.769531 414.644531 83.890625 C 414.839844 82.84375 414.726562 81.839844 414.875 81.027344 C 415.183594 79.324219 414.347656 79.074219 415.410156 78.148438 C 416.339844 77.328125 416.496094 78.472656 417.988281 78.539062 C 418.710938 78.566406 419.550781 78.457031 420.457031 78.496094 C 421.246094 78.527344 422.082031 78.734375 422.9375 78.761719 C 423.765625 78.792969 424.613281 78.648438 425.4375 78.671875 C 426.328125 78.695312 427.234375 78.582031 428.132812 78.628906 C 429.027344 78.671875 429.917969 78.851562 430.8125 78.910156 C 431.710938 78.972656 432.585938 79.261719 433.480469 79.335938 C 434.375 79.40625 435.265625 79.476562 436.164062 79.5625 C 437.058594 79.644531 437.953125 79.722656 438.847656 79.808594 C 439.742188 79.898438 440.644531 79.902344 441.539062 79.992188 C 442.433594 80.082031 443.347656 80.019531 444.238281 80.105469 C 445.132812 80.191406 446.011719 80.46875 446.902344 80.550781 C 447.792969 80.632812 448.707031 80.515625 449.597656 80.589844 C 450.757812 80.691406 451.828125 80.863281 452.6875 81.199219 C 453.675781 81.589844 454.242188 82.332031 454.535156 83.492188 C 454.730469 84.277344 454.84375 85.246094 454.609375 86.5625 C 454.382812 87.820312 453.953125 88.714844 453.511719 89.457031 C 452.921875 90.457031 452.242188 91.039062 451.214844 91.328125 C 450.34375 91.570312 449.339844 91.550781 448.121094 91.453125 C 447.164062 91.378906 446.183594 91.613281 445.222656 91.535156 C 444.269531 91.457031 443.339844 91.042969 442.382812 90.964844 C 441.429688 90.886719 440.449219 91.113281 439.484375 91.035156 C 438.53125 90.960938 437.582031 90.785156 436.617188 90.707031 C 435.664062 90.628906 434.71875 90.375 433.75 90.296875 C 432.804688 90.21875 431.824219 90.40625 430.859375 90.328125 C 429.90625 90.253906 428.945312 90.152344 427.96875 90.070312 C 427.023438 89.984375 426.167969 89.9375 425.191406 89.855469 Z M 483.496094 99.351562 C 483.148438 100.210938 482.683594 100.867188 482.386719 101.558594 C 482.019531 102.414062 481.878906 103.242188 481.589844 103.945312 C 481.253906 104.769531 480.949219 105.503906 480.734375 106.273438 C 480.515625 107.054688 480.085938 107.941406 479.855469 108.890625 C 479.628906 109.808594 479.515625 110.773438 479.324219 111.597656 C 478.976562 113.125 477.96875 113.148438 478.613281 114.359375 C 479.195312 115.441406 479.714844 114.582031 481.117188 114.953125 C 481.824219 115.140625 482.617188 115.421875 483.460938 115.679688 C 484.234375 115.917969 485.128906 115.886719 485.898438 116.167969 C 486.824219 116.507812 487.640625 117.15625 488.574219 117.476562 C 489.511719 117.792969 490.546875 117.816406 491.484375 118.121094 C 492.429688 118.425781 493.335938 118.820312 494.28125 119.117188 C 495.226562 119.414062 496.121094 119.878906 497.058594 120.175781 C 497.996094 120.472656 499.074219 120.5625 500 120.863281 C 499.925781 121.8125 499.851562 122.753906 499.777344 123.535156 C 499.683594 124.519531 499.359375 125.347656 499.234375 126.082031 C 499.050781 127.132812 499.0625 128.035156 498.710938 128.632812 C 498.25 129.410156 497.488281 129.859375 496.5 129.960938 C 495.820312 130.03125 494.996094 129.703125 493.953125 129.5 C 493.214844 129.355469 492.332031 129.398438 491.382812 129.140625 C 490.523438 128.960938 489.691406 128.628906 488.8125 128.417969 C 487.953125 128.210938 487.050781 128.128906 486.179688 127.902344 C 485.324219 127.679688 484.472656 127.402344 483.605469 127.160156 C 482.742188 126.925781 481.894531 126.601562 481.023438 126.363281 C 480.160156 126.117188 479.265625 125.96875 478.394531 125.726562 C 477.53125 125.488281 476.671875 125.132812 475.816406 124.902344 C 475.351562 125.769531 474.957031 126.585938 474.660156 127.359375 C 474.332031 128.230469 474.210938 129.105469 473.945312 129.949219 C 473.699219 130.726562 473.390625 131.519531 473.179688 132.339844 C 472.964844 133.167969 472.84375 134.015625 472.667969 134.804688 C 472.46875 135.703125 472.074219 136.496094 471.933594 137.226562 C 471.648438 138.6875 470.996094 138.625 471.761719 139.609375 C 472.660156 140.773438 472.742188 140.183594 474.429688 140.628906 C 475.273438 140.851562 476.269531 141.027344 477.300781 141.3125 C 478.222656 141.566406 479.1875 141.847656 480.148438 142.125 C 481.121094 142.40625 482.136719 142.539062 483.121094 142.789062 C 484.101562 143.035156 485.128906 143.117188 486.117188 143.355469 C 487.101562 143.597656 488.046875 144.019531 489.027344 144.269531 C 490.007812 144.523438 490.945312 144.925781 491.917969 145.214844 C 492.890625 145.5 493.890625 145.675781 494.847656 146.015625 C 495.835938 146.367188 496.441406 146.960938 496.867188 147.71875 C 497.277344 148.449219 497.582031 149.308594 497.886719 150.21875 C 498.164062 151.050781 498.101562 151.910156 498.125 152.703125 C 498.152344 153.609375 498.035156 154.390625 497.726562 155.09375 C 497.371094 155.886719 496.949219 156.609375 496.160156 156.921875 C 495.492188 157.1875 494.632812 157.285156 493.65625 157.050781 C 492.785156 156.84375 491.980469 156.382812 491.109375 156.167969 C 490.242188 155.953125 489.335938 155.894531 488.476562 155.671875 C 487.609375 155.445312 486.730469 155.277344 485.871094 155.046875 C 485.007812 154.8125 484.167969 154.492188 483.308594 154.253906 C 482.445312 154.019531 481.617188 153.675781 480.757812 153.433594 C 479.898438 153.191406 478.964844 153.203125 478.105469 152.949219 C 477.246094 152.699219 476.472656 152.167969 475.617188 151.914062 C 474.757812 151.660156 473.914062 151.382812 473.054688 151.117188 C 472.199219 150.855469 471.238281 150.941406 470.386719 150.675781 C 469.53125 150.410156 468.769531 149.859375 467.917969 149.585938 C 467.066406 149.316406 466.195312 149.101562 465.347656 148.828125 C 464.496094 148.554688 463.652344 148.265625 462.804688 147.992188 C 462.039062 147.742188 461.140625 146.828125 460.511719 145.722656 C 459.871094 144.601562 459.429688 143.328125 459.632812 142.570312 C 459.867188 141.703125 460.277344 140.882812 460.515625 140.007812 C 460.75 139.140625 460.816406 138.226562 461.054688 137.351562 C 461.292969 136.488281 461.761719 135.679688 462 134.804688 C 462.238281 133.9375 462.164062 132.980469 462.402344 132.109375 C 462.640625 131.238281 463 130.402344 463.242188 129.53125 C 463.484375 128.664062 463.671875 127.78125 463.914062 126.914062 C 464.15625 126.046875 464.429688 125.1875 464.671875 124.316406 C 464.914062 123.445312 465.066406 122.554688 465.308594 121.683594 C 465.550781 120.8125 465.960938 119.988281 466.203125 119.117188 C 466.449219 118.25 466.472656 117.3125 466.71875 116.441406 C 466.964844 115.574219 467.566406 114.804688 467.8125 113.933594 C 468.054688 113.066406 468.101562 112.136719 468.351562 111.265625 C 468.597656 110.394531 468.964844 109.558594 469.210938 108.683594 C 469.457031 107.8125 469.417969 106.859375 469.671875 105.988281 C 469.917969 105.117188 470.449219 104.320312 470.695312 103.445312 C 470.941406 102.570312 471.136719 101.683594 471.390625 100.808594 C 471.640625 99.933594 471.773438 99.023438 472.023438 98.148438 C 472.273438 97.273438 472.519531 96.398438 472.773438 95.519531 C 473.023438 94.644531 473.367188 93.796875 473.617188 92.921875 C 473.867188 92.046875 473.929688 91.121094 474.179688 90.242188 C 474.429688 89.371094 474.863281 88.550781 475.113281 87.675781 C 475.363281 86.800781 475.671875 86.035156 475.921875 85.167969 C 476.90625 85.375 477.835938 85.351562 478.769531 85.597656 C 479.742188 85.851562 480.628906 86.328125 481.558594 86.605469 C 482.515625 86.894531 483.472656 87.128906 484.394531 87.429688 C 485.339844 87.738281 486.273438 88.035156 487.191406 88.339844 C 488.136719 88.65625 489.007812 89.148438 489.9375 89.445312 C 490.875 89.746094 491.828125 89.992188 492.761719 90.25 C 493.707031 90.515625 494.703125 90.566406 495.65625 90.777344 C 496.527344 90.96875 497.363281 91.335938 498.238281 91.523438 C 499.113281 91.710938 500.015625 91.765625 500.894531 91.953125 C 501.769531 92.144531 502.675781 92.191406 503.546875 92.394531 C 504.417969 92.597656 505.230469 93.046875 506.097656 93.273438 C 506.960938 93.496094 507.824219 93.742188 508.679688 93.996094 C 509.816406 94.300781 510.828125 94.375 511.5625 94.703125 C 512.773438 95.242188 513.40625 95.980469 513.773438 96.601562 C 514.265625 97.4375 514.136719 98.347656 513.835938 99.386719 C 513.597656 100.230469 513.226562 101.148438 512.953125 102.167969 C 512.496094 103.417969 511.953125 104.210938 511.433594 104.804688 C 510.671875 105.675781 509.90625 105.960938 508.792969 105.882812 C 507.941406 105.820312 507 105.449219 505.820312 105.125 C 504.898438 104.871094 503.96875 104.613281 503.042969 104.359375 C 502.117188 104.105469 501.128906 104.085938 500.199219 103.832031 C 499.277344 103.585938 498.332031 103.386719 497.402344 103.136719 C 496.480469 102.890625 495.582031 102.515625 494.648438 102.265625 C 493.730469 102.019531 492.78125 101.878906 491.851562 101.628906 C 490.929688 101.382812 490.070312 100.875 489.132812 100.625 C 488.203125 100.375 487.246094 100.21875 486.300781 99.964844 C 485.375 99.71875 484.441406 99.605469 483.496094 99.351562 Z M 532.40625 174.214844 C 531.386719 173.910156 530.457031 173.351562 529.484375 172.964844 C 528.59375 172.609375 527.601562 172.457031 526.730469 172.023438 C 525.867188 171.59375 525.050781 171.042969 524.230469 170.539062 C 523.40625 170.027344 522.6875 169.367188 521.921875 168.777344 C 521.152344 168.1875 520.390625 167.59375 519.703125 166.921875 C 519.003906 166.25 518.226562 165.636719 517.632812 164.882812 C 517.035156 164.125 516.464844 163.316406 515.984375 162.476562 C 515.507812 161.644531 515.3125 160.660156 514.972656 159.746094 C 514.636719 158.855469 514.148438 157.988281 513.957031 157.019531 C 513.769531 156.074219 513.65625 155.109375 513.539062 154.148438 C 513.425781 153.195312 513.535156 152.214844 513.492188 151.25 C 513.441406 150.289062 513.242188 149.328125 513.261719 148.363281 C 513.285156 147.398438 513.496094 146.445312 513.589844 145.484375 C 513.679688 144.527344 513.800781 143.570312 513.957031 142.621094 C 514.113281 141.667969 514.09375 140.675781 514.308594 139.734375 C 514.527344 138.792969 514.992188 137.914062 515.277344 136.996094 C 515.5625 136.070312 515.808594 135.136719 516.15625 134.238281 C 516.5 133.335938 516.953125 132.476562 517.359375 131.609375 C 517.773438 130.734375 518.164062 129.808594 518.65625 128.894531 C 519.121094 128.03125 519.644531 127.171875 520.179688 126.296875 C 520.695312 125.449219 521.160156 124.554688 521.734375 123.71875 C 522.300781 122.894531 522.933594 122.105469 523.550781 121.308594 C 524.164062 120.511719 524.765625 119.695312 525.425781 118.945312 C 526.09375 118.1875 526.945312 117.605469 527.660156 116.914062 C 528.390625 116.207031 529.039062 115.425781 529.808594 114.800781 C 530.605469 114.160156 531.515625 113.71875 532.351562 113.195312 C 533.214844 112.652344 534.078125 112.171875 534.980469 111.777344 C 535.863281 111.386719 536.777344 111.140625 537.695312 110.878906 C 538.625 110.613281 539.53125 110.367188 540.476562 110.222656 C 541.429688 110.078125 542.359375 109.703125 543.320312 109.675781 C 544.277344 109.648438 545.242188 109.8125 546.203125 109.894531 C 547.15625 109.984375 548.101562 110.152344 549.046875 110.339844 C 549.988281 110.53125 550.964844 110.617188 551.882812 110.902344 C 552.800781 111.183594 553.632812 111.726562 554.511719 112.101562 C 555.398438 112.476562 556.199219 113.007812 557.039062 113.464844 C 557.882812 113.929688 558.8125 114.238281 559.601562 114.777344 C 560.394531 115.324219 561.054688 116.039062 561.78125 116.660156 C 562.578125 117.339844 563.480469 117.886719 564.152344 118.640625 C 564.839844 119.414062 565.515625 120.207031 566.085938 121.058594 C 566.652344 121.910156 566.863281 122.964844 567.320312 123.902344 C 567.761719 124.808594 568.390625 125.652344 568.734375 126.636719 C 569.023438 127.460938 569.121094 128.445312 569.292969 129.402344 C 569.464844 130.351562 569.453125 131.265625 569.316406 132.152344 C 569.109375 133.492188 568.921875 134.394531 568.199219 134.875 C 567.496094 135.335938 566.417969 135.324219 565.28125 135.695312 C 563.949219 136.128906 562.929688 136.382812 562.0625 136.3125 C 560.890625 136.222656 559.929688 135.796875 559.175781 134.828125 C 558.605469 134.105469 558.226562 133.046875 557.65625 131.855469 C 557.265625 131.042969 556.871094 130.230469 556.421875 129.460938 C 555.960938 128.679688 555.453125 127.929688 554.910156 127.222656 C 554.363281 126.507812 553.628906 125.972656 552.972656 125.363281 C 552.320312 124.757812 551.609375 124.273438 550.832031 123.796875 C 550.082031 123.347656 549.328125 122.941406 548.445312 122.640625 C 547.4375 122.292969 546.53125 121.738281 545.597656 121.621094 C 544.554688 121.488281 543.527344 121.640625 542.578125 121.761719 C 541.566406 121.890625 540.550781 122.054688 539.636719 122.429688 C 538.71875 122.804688 537.988281 123.558594 537.164062 124.136719 C 536.363281 124.703125 535.640625 125.355469 534.921875 126.078125 C 534.226562 126.773438 533.332031 127.316406 532.71875 128.121094 C 532.113281 128.90625 531.667969 129.824219 531.140625 130.683594 C 530.613281 131.53125 529.96875 132.328125 529.503906 133.214844 C 529.074219 134.046875 528.804688 135.011719 528.398438 135.9375 C 528.011719 136.804688 527.789062 137.773438 527.449219 138.707031 C 527.117188 139.613281 526.699219 140.503906 526.433594 141.453125 C 526.167969 142.390625 525.71875 143.304688 525.539062 144.261719 C 525.359375 145.226562 525.230469 146.222656 525.15625 147.1875 C 525.085938 148.171875 525.078125 149.175781 525.136719 150.136719 C 525.199219 151.121094 525.425781 152.105469 525.648438 153.042969 C 525.875 153.992188 526.34375 154.867188 526.761719 155.75 C 527.175781 156.617188 527.53125 157.554688 528.152344 158.335938 C 528.707031 159.035156 529.496094 159.542969 530.203125 160.132812 C 530.890625 160.707031 531.617188 161.242188 532.414062 161.695312 C 533.203125 162.144531 533.957031 162.703125 534.8125 163.007812 C 535.675781 163.3125 536.601562 163.4375 537.492188 163.574219 C 538.398438 163.71875 539.324219 163.902344 540.21875 163.851562 C 541.179688 163.800781 542.265625 163.484375 543.363281 163.238281 C 544.417969 163.003906 545.484375 162.816406 546.492188 162.714844 C 547.648438 162.601562 548.792969 162.386719 549.648438 162.882812 C 550.421875 163.335938 550.765625 164.324219 551.082031 165.65625 C 551.371094 166.867188 551.785156 167.882812 551.722656 168.796875 C 551.644531 169.988281 551.175781 170.96875 550.550781 171.765625 C 549.949219 172.539062 549.011719 173 547.9375 173.507812 C 547.070312 173.914062 546.152344 174.503906 545.007812 174.804688 C 543.984375 175.066406 542.914062 175.214844 541.859375 175.300781 C 540.804688 175.386719 539.746094 175.160156 538.683594 175.097656 C 537.632812 175.035156 536.542969 175.171875 535.5 174.980469 C 534.460938 174.789062 533.417969 174.511719 532.410156 174.214844 Z M 602.871094 155.847656 C 602.324219 156.621094 601.761719 157.191406 601.238281 157.941406 C 600.695312 158.707031 600.261719 159.535156 599.734375 160.28125 C 599.191406 161.050781 598.449219 161.660156 597.929688 162.410156 C 597.386719 163.183594 596.859375 163.949219 596.332031 164.703125 C 595.792969 165.46875 595.214844 166.199219 594.6875 166.949219 C 594.148438 167.71875 593.667969 168.515625 593.136719 169.273438 C 592.601562 170.03125 592.101562 170.808594 591.570312 171.5625 C 591.039062 172.316406 590.726562 173.226562 590.195312 173.976562 C 589.660156 174.730469 589.042969 175.410156 588.511719 176.160156 C 587.96875 176.925781 587.488281 177.789062 586.898438 178.621094 C 586.34375 179.394531 585.769531 180.191406 585.179688 181.007812 C 584.621094 181.785156 583.753906 182.371094 583.175781 183.167969 C 582.601562 183.957031 582.128906 184.835938 581.554688 185.632812 C 580.976562 186.433594 580.296875 187.15625 579.726562 187.953125 C 579.144531 188.765625 578.699219 189.660156 578.132812 190.449219 C 577.550781 191.269531 576.929688 192.039062 576.375 192.816406 C 575.785156 193.652344 575.253906 194.480469 574.71875 195.25 C 573.972656 196.316406 573.304688 196.941406 572.699219 197.375 C 571.910156 197.945312 571.238281 198.058594 570.035156 197.5 C 569.34375 197.179688 568.4375 196.8125 567.414062 196.109375 C 566.367188 195.386719 565.4375 194.867188 564.777344 194.324219 C 563.878906 193.574219 563.574219 192.730469 563.941406 191.488281 C 564.152344 190.769531 564.664062 189.921875 565.464844 188.785156 C 565.988281 188.042969 566.429688 187.230469 566.972656 186.464844 C 567.496094 185.71875 568.050781 184.980469 568.59375 184.21875 C 569.125 183.472656 569.816406 182.828125 570.363281 182.066406 C 570.898438 181.320312 571.34375 180.496094 571.886719 179.738281 C 572.425781 178.988281 572.890625 178.183594 573.433594 177.429688 C 573.976562 176.679688 574.628906 176.003906 575.171875 175.25 C 575.71875 174.496094 576.191406 173.6875 576.742188 172.9375 C 577.292969 172.183594 577.738281 171.355469 578.289062 170.601562 C 578.839844 169.84375 579.429688 169.121094 579.980469 168.371094 C 580.53125 167.613281 581.019531 166.8125 581.570312 166.066406 C 582.132812 165.308594 582.714844 164.566406 583.265625 163.820312 C 583.824219 163.0625 584.480469 162.386719 585.03125 161.644531 C 585.589844 160.894531 586.042969 160.074219 586.59375 159.34375 C 587.15625 158.589844 587.894531 157.988281 588.441406 157.261719 C 589.023438 156.484375 589.460938 155.496094 590.0625 154.65625 C 590.6875 153.773438 591.375 152.960938 591.90625 152.199219 C 592.914062 150.746094 593.738281 151.21875 593.667969 149.695312 C 593.609375 148.242188 592.871094 148.902344 591.535156 147.710938 C 590.90625 147.152344 590.113281 146.558594 589.277344 145.855469 C 588.574219 145.265625 587.773438 144.683594 586.960938 144.039062 C 586.328125 143.46875 585.492188 142.980469 584.792969 142.40625 C 584.019531 141.761719 583.585938 140.917969 583.394531 140.132812 C 583.136719 139.070312 583.183594 138.160156 583.660156 137.34375 C 584.121094 136.554688 585.035156 135.984375 585.566406 135.160156 C 585.960938 134.542969 586.351562 133.699219 587.089844 133.164062 C 587.742188 132.6875 588.558594 132.347656 589.457031 132.269531 C 590.210938 132.207031 591.210938 132.867188 591.929688 133.402344 C 592.679688 133.960938 593.398438 134.554688 594.148438 135.117188 C 594.894531 135.675781 595.613281 136.277344 596.363281 136.835938 C 597.113281 137.390625 597.914062 137.882812 598.660156 138.441406 C 599.410156 138.996094 600.050781 139.699219 600.800781 140.257812 C 601.546875 140.816406 602.265625 141.414062 603.015625 141.972656 C 603.761719 142.535156 604.484375 143.128906 605.234375 143.6875 C 605.980469 144.246094 606.882812 144.597656 607.636719 145.160156 C 608.382812 145.71875 609.011719 146.4375 609.757812 146.996094 C 610.503906 147.554688 611.363281 147.96875 612.109375 148.527344 C 612.855469 149.085938 613.527344 149.75 614.273438 150.308594 C 615.019531 150.867188 615.84375 151.328125 616.589844 151.890625 C 617.332031 152.449219 618.058594 153.039062 618.808594 153.601562 C 619.683594 154.257812 620.378906 154.839844 620.722656 155.46875 C 621.152344 156.238281 621.132812 157.136719 620.769531 158.09375 C 620.515625 158.757812 620.136719 159.574219 619.507812 160.4375 C 618.824219 161.371094 618.140625 162.128906 617.515625 162.6875 C 616.667969 163.445312 615.742188 163.703125 614.769531 163.605469 C 613.988281 163.53125 613.09375 163.207031 612.078125 162.464844 C 611.320312 161.910156 610.566406 161.347656 609.773438 160.769531 C 609.042969 160.238281 608.289062 159.683594 607.476562 159.089844 C 606.753906 158.5625 605.996094 157.992188 605.167969 157.386719 C 604.441406 156.847656 603.699219 156.453125 602.871094 155.847656 Z M 621.335938 199.3125 C 620.679688 200.003906 619.867188 200.546875 619.210938 201.238281 C 618.554688 201.929688 617.949219 202.667969 617.292969 203.359375 C 616.640625 204.050781 615.925781 204.695312 615.273438 205.382812 C 614.617188 206.074219 614.007812 206.816406 613.355469 207.507812 C 612.699219 208.195312 612.023438 208.871094 611.367188 209.5625 C 610.714844 210.253906 610.117188 211.007812 609.460938 211.695312 C 608.804688 212.382812 608.105469 213.039062 607.449219 213.726562 C 606.789062 214.414062 606.167969 215.140625 605.503906 215.828125 C 604.980469 216.371094 604.257812 216.777344 603.667969 217.367188 C 603.125 217.910156 602.675781 218.585938 602.113281 219.203125 C 601.589844 219.769531 600.9375 220.269531 600.417969 220.921875 C 599.761719 221.753906 598.988281 221.71875 597.945312 221.25 C 597.1875 220.90625 596.441406 220.273438 595.613281 219.589844 C 594.882812 218.984375 594.121094 218.339844 593.421875 217.675781 C 592.925781 217.296875 591.78125 216.472656 591.425781 215.316406 C 591.144531 214.394531 591.332031 213.304688 592.222656 212.378906 C 593.015625 211.554688 593.726562 210.9375 594.339844 210.390625 C 595.167969 209.648438 595.746094 208.96875 596.351562 208.339844 C 596.96875 207.691406 597.75 207.191406 598.382812 206.535156 C 599.003906 205.890625 599.722656 205.320312 600.355469 204.667969 C 600.980469 204.015625 601.449219 203.210938 602.082031 202.550781 C 602.710938 201.898438 603.457031 201.355469 604.089844 200.699219 C 604.71875 200.046875 605.179688 199.230469 605.8125 198.570312 C 606.445312 197.917969 607.039062 197.230469 607.671875 196.574219 C 608.300781 195.921875 609.179688 195.503906 609.8125 194.847656 C 610.441406 194.191406 610.894531 193.355469 611.527344 192.699219 C 612.164062 192.039062 612.933594 191.511719 613.570312 190.855469 C 614.203125 190.199219 614.902344 189.597656 615.535156 188.941406 C 616.171875 188.277344 616.539062 187.363281 617.179688 186.703125 C 617.8125 186.046875 618.65625 185.585938 619.292969 184.929688 C 619.929688 184.269531 620.515625 183.5625 621.144531 182.90625 C 621.789062 182.242188 622.308594 181.464844 622.945312 180.808594 C 623.582031 180.144531 624.347656 179.609375 624.980469 178.953125 C 625.617188 178.292969 626.273438 177.65625 626.902344 177.003906 C 627.542969 176.339844 628.175781 175.679688 628.808594 175.03125 C 629.441406 174.375 629.933594 173.597656 630.550781 172.957031 C 631.292969 172.191406 631.917969 171.511719 632.503906 171.003906 C 633.398438 170.226562 634.195312 169.742188 634.832031 169.488281 C 635.824219 169.09375 636.542969 169.5625 637.347656 170.117188 C 637.960938 170.539062 638.675781 171.046875 639.449219 171.820312 C 640.226562 172.59375 640.777344 173.296875 641.210938 173.921875 C 641.777344 174.742188 642.246094 175.484375 641.933594 176.480469 C 641.722656 177.148438 641.265625 177.976562 640.535156 178.910156 C 640.058594 179.523438 639.210938 180 638.472656 180.78125 C 637.851562 181.433594 637.3125 182.214844 636.652344 182.910156 C 636.023438 183.574219 635.257812 184.136719 634.597656 184.828125 C 633.96875 185.492188 633.453125 186.289062 632.808594 186.96875 C 632.167969 187.640625 631.636719 188.425781 630.988281 189.105469 C 630.34375 189.785156 629.609375 190.378906 628.960938 191.058594 C 628.316406 191.738281 627.507812 192.269531 626.863281 192.9375 C 626.207031 193.632812 625.558594 194.320312 624.917969 194.996094 C 624.261719 195.6875 623.625 196.367188 622.996094 197.03125 C 622.339844 197.730469 621.957031 198.65625 621.335938 199.3125 Z M 637.84375 236.839844 C 638.027344 237.167969 639.191406 237.109375 640.566406 236.75 C 641.328125 236.550781 642.125 236.007812 643.042969 235.707031 C 643.871094 235.429688 644.714844 235.089844 645.558594 234.789062 C 646.433594 234.472656 647.304688 234.195312 648.089844 233.910156 C 649.085938 233.542969 650.03125 233.417969 650.65625 233.210938 C 651.53125 232.921875 652.339844 232.453125 653.210938 232.15625 C 654.082031 231.859375 654.964844 231.601562 655.832031 231.296875 C 656.699219 230.992188 657.566406 230.679688 658.429688 230.371094 C 659.296875 230.066406 660.222656 229.925781 661.09375 229.613281 C 661.957031 229.296875 662.847656 229.054688 663.710938 228.738281 C 664.578125 228.421875 665.4375 228.089844 666.300781 227.773438 C 667.164062 227.460938 667.957031 226.953125 668.820312 226.636719 C 669.683594 226.320312 670.539062 225.980469 671.40625 225.667969 C 671.835938 225.511719 672.941406 225.175781 674.023438 224.785156 C 675.105469 224.394531 676.195312 224.019531 676.628906 223.863281 C 677.703125 223.484375 678.609375 223.171875 679.40625 222.96875 C 680.597656 222.664062 681.511719 222.710938 682.269531 222.761719 C 683.355469 222.835938 684.121094 223.117188 684.835938 223.816406 C 685.417969 224.382812 685.878906 225.214844 686.585938 226.117188 C 687.382812 227.132812 688.363281 227.828125 688.679688 228.5625 C 689.015625 229.351562 688.726562 230.191406 687.144531 231.085938 C 686.441406 231.480469 685.480469 231.964844 684.195312 232.449219 C 683.355469 232.761719 682.449219 232.933594 681.582031 233.257812 C 680.738281 233.570312 679.832031 233.757812 678.964844 234.078125 C 678.121094 234.394531 677.328125 234.882812 676.460938 235.207031 C 675.613281 235.523438 674.789062 235.925781 673.921875 236.25 C 673.082031 236.558594 672.203125 236.808594 671.347656 237.125 C 670.5 237.4375 669.589844 237.613281 668.730469 237.925781 C 667.878906 238.242188 667.070312 238.679688 666.210938 238.996094 C 665.359375 239.308594 664.546875 239.742188 663.691406 240.054688 C 662.839844 240.371094 661.914062 240.507812 661.054688 240.824219 C 660.195312 241.140625 659.328125 241.4375 658.46875 241.753906 C 657.605469 242.070312 656.777344 242.484375 655.917969 242.800781 C 655.054688 243.121094 654.132812 243.285156 653.273438 243.597656 C 652.402344 243.914062 651.554688 244.257812 650.6875 244.574219 C 649.820312 244.890625 648.988281 245.308594 648.132812 245.625 C 647.261719 245.941406 646.339844 246.101562 645.480469 246.417969 C 644.613281 246.734375 643.773438 247.109375 642.914062 247.417969 C 642.046875 247.738281 641.152344 247.964844 640.300781 248.273438 C 639.429688 248.589844 638.6875 249.214844 637.839844 249.527344 C 636.964844 249.84375 636.046875 250.007812 635.195312 250.316406 C 634.324219 250.632812 633.496094 251.019531 632.65625 251.324219 C 631.785156 251.640625 630.925781 251.933594 630.085938 252.238281 C 629.023438 252.625 628.144531 252.875 627.355469 252.882812 C 626.460938 252.894531 625.722656 252.503906 624.863281 251.808594 C 624.277344 251.335938 623.652344 250.699219 622.945312 249.800781 C 622.25 248.910156 621.804688 248.09375 621.398438 247.402344 C 620.816406 246.417969 620.371094 245.671875 620.417969 244.804688 C 620.460938 243.992188 620.851562 243.195312 621.480469 242.199219 C 621.960938 241.433594 622.464844 240.679688 622.945312 239.914062 C 623.425781 239.148438 623.761719 238.289062 624.242188 237.523438 C 624.726562 236.757812 625.175781 235.96875 625.660156 235.203125 C 626.140625 234.441406 626.734375 233.742188 627.21875 232.976562 C 627.699219 232.214844 628.074219 231.375 628.554688 230.613281 C 629.042969 229.851562 629.78125 229.246094 630.265625 228.484375 C 630.753906 227.722656 631.089844 226.863281 631.574219 226.097656 C 632.058594 225.335938 632.597656 224.609375 633.085938 223.839844 C 633.570312 223.074219 634.125 222.355469 634.613281 221.59375 C 635.101562 220.828125 635.527344 220.015625 636.015625 219.253906 C 636.503906 218.488281 636.851562 217.636719 637.335938 216.875 C 637.824219 216.113281 638.519531 215.480469 639.003906 214.71875 C 639.488281 213.957031 639.972656 213.1875 640.457031 212.425781 C 640.945312 211.660156 641.167969 210.730469 641.652344 209.96875 C 642.140625 209.203125 642.792969 208.546875 643.277344 207.785156 C 643.765625 207.019531 644.15625 206.195312 644.640625 205.433594 C 645.132812 204.671875 645.832031 204.046875 646.320312 203.285156 C 646.8125 202.519531 647.285156 201.753906 647.777344 200.992188 C 648.265625 200.230469 648.796875 199.496094 649.285156 198.730469 C 649.773438 197.96875 650.203125 197.175781 650.691406 196.410156 C 650.929688 196.042969 651.40625 195.222656 652.011719 194.320312 C 652.460938 193.648438 652.738281 192.765625 653.210938 192.113281 C 653.84375 191.234375 654.53125 190.546875 654.878906 190.277344 C 656.027344 189.371094 657.199219 189.25 658.167969 189.832031 C 658.964844 190.308594 659.777344 191.253906 660.523438 192.386719 C 661.015625 193.132812 661.511719 194.144531 662.132812 194.9375 C 662.867188 195.871094 663.464844 196.660156 662.964844 197.507812 C 662.527344 198.25 661.957031 198.945312 661.472656 199.730469 C 661.019531 200.472656 660.679688 201.3125 660.1875 202.078125 C 659.714844 202.816406 659.175781 203.539062 658.679688 204.300781 C 658.199219 205.035156 657.746094 205.804688 657.25 206.550781 C 656.761719 207.289062 656.136719 207.953125 655.636719 208.695312 C 655.140625 209.4375 654.746094 210.253906 654.246094 210.992188 C 653.746094 211.738281 653.382812 212.578125 652.886719 213.3125 C 652.378906 214.066406 651.898438 214.824219 651.414062 215.558594 C 650.90625 216.320312 650.273438 216.976562 649.792969 217.699219 C 649.285156 218.464844 648.757812 219.191406 648.289062 219.914062 C 647.875 220.558594 647.425781 221.417969 646.816406 222.324219 C 646.324219 223.050781 645.765625 223.832031 645.207031 224.65625 C 644.6875 225.421875 643.996094 226.105469 643.457031 226.90625 C 642.925781 227.703125 642.480469 228.566406 641.96875 229.347656 C 641.421875 230.171875 640.976562 231.027344 640.496094 231.785156 C 639.933594 232.675781 639.316406 233.4375 638.914062 234.148438 C 638.144531 235.492188 637.6875 236.566406 637.84375 236.839844 Z M 694.714844 263.066406 C 693.84375 263.386719 693.046875 263.480469 692.335938 263.726562 C 691.449219 264.027344 690.742188 264.480469 690.03125 264.738281 C 689.195312 265.039062 688.445312 265.304688 687.730469 265.664062 C 687.003906 266.027344 686.058594 266.300781 685.199219 266.765625 C 684.363281 267.214844 683.574219 267.78125 682.835938 268.191406 C 681.46875 268.957031 680.773438 268.226562 680.3125 269.519531 C 679.898438 270.675781 680.886719 270.484375 681.550781 271.773438 C 681.886719 272.421875 682.210938 273.195312 682.585938 274 C 682.929688 274.730469 683.550781 275.371094 683.859375 276.132812 C 684.226562 277.046875 684.296875 278.089844 684.6875 278.992188 C 685.078125 279.902344 685.757812 280.683594 686.160156 281.585938 C 686.566406 282.488281 686.886719 283.425781 687.296875 284.324219 C 687.710938 285.226562 687.96875 286.199219 688.378906 287.09375 C 688.789062 287.988281 689.445312 288.847656 689.839844 289.734375 C 689.089844 290.316406 688.339844 290.894531 687.710938 291.367188 C 686.917969 291.957031 686.089844 292.269531 685.457031 292.671875 C 684.554688 293.242188 683.894531 293.855469 683.21875 293.992188 C 682.332031 294.175781 681.488281 293.910156 680.75 293.25 C 680.238281 292.792969 679.929688 291.960938 679.382812 291.050781 C 678.992188 290.410156 678.367188 289.78125 677.921875 288.898438 C 677.480469 288.148438 677.167969 287.304688 676.734375 286.511719 C 676.3125 285.738281 675.765625 285.011719 675.347656 284.214844 C 674.941406 283.429688 674.578125 282.613281 674.171875 281.808594 C 673.769531 281.011719 673.4375 280.167969 673.03125 279.359375 C 672.632812 278.554688 672.140625 277.792969 671.738281 276.984375 C 671.335938 276.183594 671.023438 275.308594 670.621094 274.519531 C 669.664062 274.757812 668.792969 275.011719 668.023438 275.3125 C 667.15625 275.648438 666.425781 276.148438 665.621094 276.519531 C 664.882812 276.855469 664.085938 277.160156 663.335938 277.558594 C 662.578125 277.953125 661.871094 278.429688 661.164062 278.828125 C 660.367188 279.285156 659.511719 279.527344 658.878906 279.910156 C 657.601562 280.683594 657.210938 280.15625 656.996094 281.382812 C 656.738281 282.832031 657.226562 282.492188 658.03125 284.046875 C 658.429688 284.820312 658.96875 285.675781 659.449219 286.632812 C 659.878906 287.484375 660.320312 288.390625 660.761719 289.285156 C 661.203125 290.195312 661.789062 291.042969 662.261719 291.9375 C 662.738281 292.832031 663.367188 293.644531 663.851562 294.539062 C 664.332031 295.429688 664.652344 296.414062 665.125 297.308594 C 665.597656 298.207031 665.925781 299.171875 666.367188 300.085938 C 666.808594 300.996094 667.347656 301.859375 667.738281 302.796875 C 668.140625 303.761719 668.105469 304.609375 667.832031 305.433594 C 667.5625 306.230469 667.128906 307.03125 666.660156 307.871094 C 666.230469 308.632812 665.550781 309.164062 664.980469 309.710938 C 664.328125 310.339844 663.667969 310.78125 662.9375 311.019531 C 662.113281 311.292969 661.296875 311.464844 660.53125 311.085938 C 659.890625 310.769531 659.238281 310.199219 658.757812 309.316406 C 658.328125 308.53125 658.128906 307.625 657.703125 306.839844 C 657.28125 306.050781 656.714844 305.339844 656.304688 304.550781 C 655.890625 303.757812 655.425781 302.992188 655.019531 302.199219 C 654.613281 301.40625 654.285156 300.566406 653.886719 299.769531 C 653.484375 298.972656 653.183594 298.128906 652.785156 297.328125 C 652.386719 296.527344 651.75 295.84375 651.363281 295.039062 C 650.972656 294.234375 650.847656 293.300781 650.460938 292.496094 C 650.074219 291.691406 649.710938 290.875 649.332031 290.0625 C 648.953125 289.253906 648.246094 288.601562 647.871094 287.789062 C 647.492188 286.976562 647.390625 286.042969 647.019531 285.226562 C 646.648438 284.414062 646.222656 283.625 645.859375 282.8125 C 645.488281 281.996094 645.136719 281.179688 644.769531 280.367188 C 644.445312 279.632812 644.515625 278.351562 644.914062 277.144531 C 645.320312 275.917969 645.964844 274.734375 646.664062 274.375 C 647.460938 273.96875 648.34375 273.722656 649.152344 273.316406 C 649.953125 272.90625 650.675781 272.339844 651.484375 271.929688 C 652.285156 271.523438 653.199219 271.332031 654.007812 270.921875 C 654.8125 270.515625 655.46875 269.820312 656.277344 269.410156 C 657.082031 269.003906 657.941406 268.707031 658.753906 268.300781 C 659.554688 267.902344 660.335938 267.449219 661.140625 267.046875 C 661.945312 266.644531 662.769531 266.269531 663.578125 265.863281 C 664.382812 265.460938 665.148438 264.972656 665.957031 264.570312 C 666.761719 264.164062 667.648438 263.914062 668.457031 263.511719 C 669.265625 263.109375 669.976562 262.5 670.789062 262.097656 C 671.59375 261.695312 672.566406 261.628906 673.378906 261.226562 C 674.1875 260.824219 674.90625 260.234375 675.71875 259.832031 C 676.53125 259.429688 677.394531 259.144531 678.210938 258.738281 C 679.019531 258.339844 679.703125 257.667969 680.519531 257.269531 C 681.328125 256.867188 682.277344 256.730469 683.089844 256.324219 C 683.90625 255.921875 684.695312 255.46875 685.511719 255.070312 C 686.328125 254.667969 687.09375 254.15625 687.910156 253.753906 C 688.726562 253.355469 689.539062 252.949219 690.359375 252.546875 C 691.175781 252.144531 692.035156 251.832031 692.851562 251.429688 C 693.667969 251.03125 694.398438 250.449219 695.214844 250.046875 C 696.03125 249.648438 696.929688 249.417969 697.746094 249.015625 C 698.5625 248.613281 699.335938 248.332031 700.148438 247.933594 C 700.652344 248.800781 701.296875 249.476562 701.742188 250.335938 C 702.203125 251.222656 702.445312 252.203125 702.863281 253.078125 C 703.289062 253.984375 703.757812 254.847656 704.15625 255.734375 C 704.558594 256.640625 704.96875 257.53125 705.359375 258.417969 C 705.757812 259.332031 705.976562 260.308594 706.382812 261.195312 C 706.789062 262.09375 707.246094 262.960938 707.683594 263.828125 C 708.117188 264.707031 708.746094 265.480469 709.226562 266.328125 C 709.671875 267.105469 709.960938 267.96875 710.410156 268.742188 C 710.859375 269.519531 711.425781 270.226562 711.871094 271 C 712.320312 271.777344 712.890625 272.484375 713.328125 273.265625 C 713.761719 274.046875 713.972656 274.949219 714.386719 275.742188 C 714.800781 276.535156 715.199219 277.335938 715.585938 278.140625 C 716.121094 279.191406 716.746094 279.988281 716.996094 280.753906 C 717.40625 282.015625 717.285156 282.976562 717.070312 283.667969 C 716.78125 284.59375 716.019531 285.109375 715.046875 285.585938 C 714.265625 285.972656 713.335938 286.3125 712.394531 286.796875 C 711.164062 287.296875 710.210938 287.421875 709.421875 287.4375 C 708.261719 287.457031 707.539062 287.082031 706.847656 286.199219 C 706.324219 285.53125 705.964844 284.585938 705.417969 283.492188 C 704.984375 282.636719 704.554688 281.773438 704.121094 280.917969 C 703.6875 280.0625 703.039062 279.316406 702.601562 278.457031 C 702.164062 277.609375 701.679688 276.773438 701.238281 275.917969 C 700.804688 275.066406 700.480469 274.152344 700.039062 273.289062 C 699.605469 272.445312 699.070312 271.644531 698.632812 270.789062 C 698.199219 269.941406 697.996094 268.964844 697.550781 268.101562 C 697.117188 267.246094 696.589844 266.429688 696.144531 265.558594 C 695.703125 264.703125 695.160156 263.9375 694.714844 263.066406 Z M 423.21875 415.140625 C 423.21875 418.988281 421.972656 422.066406 419.480469 424.367188 C 416.988281 426.671875 413.625 428.121094 409.398438 428.71875 L 409.398438 436.683594 L 401.429688 436.683594 L 401.429688 428.878906 C 398.339844 428.609375 395.507812 427.753906 392.933594 426.320312 C 390.359375 424.882812 387.855469 422.753906 385.414062 419.9375 L 391.835938 413.839844 C 393.300781 415.683594 394.816406 417.1875 396.390625 418.351562 C 397.960938 419.515625 399.640625 420.289062 401.429688 420.667969 L 401.429688 407.742188 C 399.75 407.253906 398.109375 406.65625 396.511719 405.953125 C 394.914062 405.25 393.503906 404.339844 392.285156 403.230469 C 391.0625 402.117188 390.089844 400.761719 389.355469 399.164062 C 388.625 397.566406 388.257812 395.65625 388.257812 393.433594 C 388.257812 391.914062 388.488281 390.425781 388.953125 388.960938 C 389.410156 387.496094 390.15625 386.167969 391.1875 384.976562 C 392.214844 383.785156 393.570312 382.769531 395.25 381.929688 C 396.929688 381.085938 398.992188 380.503906 401.429688 380.179688 L 401.429688 372.210938 L 409.398438 372.210938 L 409.398438 380.179688 C 412.214844 380.613281 414.789062 381.535156 417.121094 382.945312 C 419.449219 384.355469 421.644531 386.332031 423.707031 388.878906 L 417.285156 394.40625 C 415.007812 391.210938 412.378906 389.203125 409.398438 388.390625 L 409.398438 400.34375 C 411.132812 400.828125 412.824219 401.46875 414.480469 402.253906 C 416.132812 403.039062 417.609375 404.015625 418.910156 405.179688 C 420.210938 406.347656 421.253906 407.742188 422.039062 409.367188 C 422.828125 410.992188 423.21875 412.917969 423.21875 415.140625 Z M 397.039062 392.78125 C 397.039062 394.082031 397.417969 395.113281 398.179688 395.871094 C 398.9375 396.628906 400.019531 397.308594 401.429688 397.902344 L 401.429688 388.308594 C 399.859375 388.691406 398.734375 389.257812 398.054688 390.015625 C 397.378906 390.777344 397.039062 391.699219 397.039062 392.78125 Z M 414.4375 415.871094 C 414.4375 414.300781 413.964844 413.078125 413.015625 412.210938 C 412.066406 411.347656 410.863281 410.613281 409.398438 410.015625 L 409.398438 420.667969 C 410.96875 420.289062 412.203125 419.691406 413.097656 418.878906 C 413.992188 418.066406 414.4375 417.0625 414.4375 415.871094 Z M 613.128906 439.890625 C 613.585938 417.285156 614.019531 394.679688 614.476562 372.054688 C 597.515625 369.003906 580.558594 365.972656 563.597656 362.921875 C 559.753906 348.480469 553.992188 334.828125 546.582031 322.226562 C 551.800781 316.71875 557.226562 310.578125 562.699219 303.773438 C 568.230469 296.898438 573.113281 290.210938 577.40625 283.871094 C 560.824219 266.992188 544.242188 250.113281 527.660156 233.230469 C 514.683594 243.316406 501.726562 253.421875 488.769531 263.523438 C 483.191406 260.429688 476.839844 257.273438 469.742188 254.304688 C 461.933594 251.042969 454.589844 248.578125 447.957031 246.703125 C 446.191406 228.199219 444.410156 209.675781 442.625 191.171875 C 418.21875 191.308594 393.789062 191.46875 369.382812 191.625 C 366.566406 210.089844 363.773438 228.535156 360.960938 247.019531 C 360.703125 247.09375 360.445312 247.167969 360.1875 247.238281 C 348.472656 250.566406 336.582031 255.015625 324.605469 260.8125 C 311.648438 250.707031 298.671875 240.621094 285.714844 230.519531 C 269.289062 247.535156 252.847656 264.574219 236.421875 281.613281 C 245.160156 295.027344 253.894531 308.4375 262.652344 321.871094 C 259.445312 328.796875 256.25 335.925781 253.089844 343.25 C 250.269531 349.785156 247.582031 356.226562 245.019531 362.566406 C 228.734375 364.367188 212.449219 366.171875 196.164062 367.996094 C 195.726562 391.808594 195.273438 415.621094 194.816406 439.4375 C 211.242188 440.941406 227.683594 442.449219 244.109375 443.972656 C 246.285156 450.054688 248.753906 456.398438 251.554688 462.945312 C 255.226562 471.535156 259.050781 479.488281 262.871094 486.789062 C 252.6875 500.417969 242.523438 514.011719 232.339844 527.621094 C 249.082031 544.363281 265.824219 561.082031 282.542969 577.824219 C 296.074219 567.601562 309.628906 557.378906 323.160156 547.136719 C 336.214844 554.703125 350.421875 560.507812 365.4375 564.253906 C 367.042969 580.675781 368.667969 597.121094 370.273438 613.546875 L 439.933594 613.546875 C 442.152344 596.941406 444.390625 580.339844 446.628906 563.738281 C 461.84375 559.753906 476.207031 553.632812 489.382812 545.6875 C 501.984375 555.933594 514.605469 566.214844 527.203125 576.457031 C 543.925781 559.894531 560.667969 543.3125 577.410156 526.730469 C 567.265625 513.535156 557.121094 500.359375 546.976562 487.183594 C 554.246094 474.683594 559.914062 461.152344 563.679688 446.847656 C 580.164062 444.527344 596.644531 442.210938 613.128906 439.890625 Z M 405.042969 509.652344 C 347.269531 509.652344 300.433594 462.816406 300.433594 405.042969 C 300.433594 347.269531 347.269531 300.433594 405.042969 300.433594 C 462.816406 300.433594 509.652344 347.269531 509.652344 405.042969 C 509.652344 462.816406 462.816406 509.652344 405.042969 509.652344 Z M 507.359375 697.464844 C 557.949219 679.96875 592.226562 653.664062 604.617188 643.164062 C 640.511719 612.746094 659.742188 580.976562 667.953125 567.410156 C 677.464844 551.699219 695.097656 518.632812 706.355469 473.6875 C 710.84375 455.753906 718.363281 425.730469 716.511719 385.480469 C 715.671875 367.203125 712.980469 348.917969 708.507812 331.132812 C 707.929688 328.84375 705.601562 327.453125 703.324219 328.03125 C 701.035156 328.605469 699.644531 330.929688 700.222656 333.214844 C 704.554688 350.449219 707.167969 368.167969 707.980469 385.871094 C 709.773438 424.871094 702.445312 454.132812 698.070312 471.613281 C 687.082031 515.472656 669.90625 547.6875 660.644531 562.984375 C 652.648438 576.195312 633.925781 607.132812 599.09375 636.648438 C 587.074219 646.835938 553.792969 672.367188 504.566406 689.390625 C 465.664062 702.847656 424.949219 708.398438 383.566406 705.890625 C 325.003906 702.339844 281.796875 683.191406 265.9375 675.125 C 247.859375 665.933594 201.605469 638.855469 162.621094 586.074219 C 123.242188 532.765625 110.417969 479.382812 106.273438 452.308594 C 100.472656 414.382812 102.058594 376.074219 110.984375 338.449219 C 111.527344 336.152344 110.109375 333.851562 107.816406 333.304688 C 105.511719 332.761719 103.214844 334.179688 102.671875 336.476562 C 93.492188 375.175781 91.863281 414.582031 97.832031 453.601562 C 102.089844 481.457031 115.28125 536.363281 155.75 591.152344 C 195.816406 645.398438 243.445312 673.273438 262.0625 682.738281 C 278.398438 691.046875 322.886719 710.769531 383.050781 714.417969 C 389.675781 714.820312 396.28125 715.019531 402.871094 715.019531 C 438.550781 715.019531 473.617188 709.136719 507.359375 697.464844 Z M 125.378906 393.757812 C 127.621094 393.019531 128.835938 390.601562 128.097656 388.363281 L 110.886719 336.125 C 110.394531 334.632812 109.121094 333.53125 107.578125 333.257812 C 106.027344 332.984375 104.457031 333.578125 103.480469 334.808594 L 65.679688 382.503906 C 64.214844 384.351562 64.523438 387.039062 66.371094 388.503906 C 68.21875 389.96875 70.90625 389.660156 72.371094 387.8125 L 105.253906 346.328125 L 119.984375 391.035156 C 120.578125 392.832031 122.246094 393.972656 124.042969 393.972656 C 124.484375 393.972656 124.9375 393.902344 125.378906 393.757812 Z M 405.042969 481.84375 C 362.695312 481.84375 328.238281 447.390625 328.238281 405.042969 C 328.238281 362.695312 362.695312 328.238281 405.042969 328.238281 C 447.394531 328.238281 481.847656 362.695312 481.847656 405.042969 C 481.847656 447.390625 447.394531 481.84375 405.042969 481.84375 Z M 405.042969 336.78125 C 367.402344 336.78125 336.78125 367.402344 336.78125 405.042969 C 336.78125 442.683594 367.402344 473.304688 405.042969 473.304688 C 442.683594 473.304688 473.304688 442.679688 473.304688 405.042969 C 473.304688 367.40625 442.683594 336.78125 405.042969 336.78125 Z M 405.042969 336.78125 "/></g></svg>