<svg xmlns="http://www.w3.org/2000/svg" xmlns:xlink="http://www.w3.org/1999/xlink" width="1080" zoomAndPan="magnify" viewBox="0 0 810 809.999993" height="1080" preserveAspectRatio="xMidYMid meet" version="1.2"><g id="13c422d7ec"><path style=" stroke:none;fill-rule:nonzero;fill:#aaaaaa;fill-opacity:1;" d="M 432.445312 185.605469 L 377.554688 185.605469 L 377.554688 624.738281 L 432.445312 624.738281 C 553.722656 624.738281 652.015625 526.449219 652.015625 405.171875 C 652.015625 283.894531 553.722656 185.605469 432.445312 185.605469 Z M 432.445312 185.605469 "/><path style=" stroke:none;fill-rule:nonzero;fill:#8c8c8c;fill-opacity:1;" d="M 598.152344 261.078125 L 528.507812 261.078125 L 528.507812 274.804688 L 609.128906 274.804688 C 605.699219 270 601.925781 265.539062 598.152344 261.078125 Z M 598.152344 261.078125 "/><path style=" stroke:none;fill-rule:nonzero;fill:#8c8c8c;fill-opacity:1;" d="M 638.632812 329.695312 L 569.675781 329.695312 L 569.675781 343.417969 L 643.265625 343.417969 C 641.894531 338.785156 640.347656 334.15625 638.632812 329.695312 Z M 638.632812 329.695312 "/><path style=" stroke:none;fill-rule:nonzero;fill:#8c8c8c;fill-opacity:1;" d="M 583.398438 412.03125 L 651.84375 412.03125 C 651.84375 409.804688 652.015625 407.402344 652.015625 405.171875 C 652.015625 402.941406 652.015625 400.539062 651.84375 398.308594 L 583.398438 398.308594 Z M 583.398438 412.03125 "/><path style=" stroke:none;fill-rule:nonzero;fill:#8c8c8c;fill-opacity:1;" d="M 643.265625 466.925781 L 569.675781 466.925781 L 569.675781 480.648438 L 638.632812 480.648438 C 640.347656 476.1875 641.894531 471.554688 643.265625 466.925781 Z M 643.265625 466.925781 "/><path style=" stroke:none;fill-rule:nonzero;fill:#8c8c8c;fill-opacity:1;" d="M 609.128906 535.539062 L 535.195312 535.539062 L 535.195312 549.261719 L 598.152344 549.261719 C 601.925781 544.804688 605.699219 540.34375 609.128906 535.539062 Z M 609.128906 535.539062 "/><path style=" stroke:none;fill-rule:nonzero;fill:#bebebe;fill-opacity:1;" d="M 597.121094 405.171875 C 597.121094 408.765625 597.035156 412.355469 596.859375 415.945312 C 596.679688 419.535156 596.417969 423.117188 596.066406 426.691406 C 595.710938 430.269531 595.273438 433.835938 594.746094 437.390625 C 594.21875 440.941406 593.605469 444.484375 592.902344 448.007812 C 592.203125 451.53125 591.414062 455.035156 590.542969 458.523438 C 589.667969 462.007812 588.710938 465.46875 587.667969 468.910156 C 586.625 472.347656 585.496094 475.757812 584.285156 479.140625 C 583.078125 482.523438 581.785156 485.875 580.410156 489.195312 C 579.03125 492.515625 577.578125 495.800781 576.042969 499.050781 C 574.503906 502.296875 572.890625 505.507812 571.195312 508.675781 C 569.5 511.84375 567.730469 514.96875 565.882812 518.050781 C 564.035156 521.132812 562.113281 524.167969 560.117188 527.15625 C 558.121094 530.144531 556.054688 533.082031 553.914062 535.96875 C 551.773438 538.855469 549.5625 541.6875 547.28125 544.464844 C 545.003906 547.242188 542.65625 549.960938 540.242188 552.625 C 537.828125 555.285156 535.351562 557.886719 532.8125 560.429688 C 530.269531 562.96875 527.667969 565.449219 525.007812 567.859375 C 522.34375 570.273438 519.625 572.621094 516.847656 574.898438 C 514.070312 577.179688 511.238281 579.390625 508.351562 581.53125 C 505.464844 583.671875 502.527344 585.738281 499.539062 587.734375 C 496.550781 589.730469 493.515625 591.652344 490.433594 593.5 C 487.351562 595.347656 484.226562 597.121094 481.058594 598.8125 C 477.886719 600.507812 474.679688 602.121094 471.429688 603.660156 C 468.183594 605.195312 464.898438 606.652344 461.578125 608.027344 C 458.257812 609.402344 454.90625 610.695312 451.523438 611.90625 C 448.140625 613.113281 444.730469 614.242188 441.292969 615.285156 C 437.851562 616.328125 434.390625 617.285156 430.90625 618.160156 C 427.417969 619.03125 423.914062 619.820312 420.390625 620.519531 C 416.863281 621.222656 413.324219 621.835938 409.769531 622.363281 C 406.214844 622.890625 402.652344 623.328125 399.074219 623.683594 C 395.5 624.035156 391.917969 624.296875 388.328125 624.476562 C 384.738281 624.652344 381.148438 624.738281 377.554688 624.738281 C 373.960938 624.738281 370.371094 624.652344 366.78125 624.476562 C 363.191406 624.296875 359.609375 624.035156 356.03125 623.683594 C 352.457031 623.328125 348.890625 622.890625 345.335938 622.363281 C 341.78125 621.835938 338.242188 621.222656 334.71875 620.519531 C 331.195312 619.820312 327.6875 619.03125 324.203125 618.160156 C 320.71875 617.285156 317.253906 616.328125 313.816406 615.285156 C 310.378906 614.242188 306.96875 613.113281 303.582031 611.90625 C 300.199219 610.695312 296.847656 609.402344 293.527344 608.027344 C 290.210938 606.652344 286.925781 605.195312 283.675781 603.660156 C 280.429688 602.121094 277.21875 600.507812 274.050781 598.8125 C 270.882812 597.117188 267.753906 595.347656 264.671875 593.5 C 261.589844 591.652344 258.554688 589.730469 255.570312 587.734375 C 252.582031 585.738281 249.644531 583.671875 246.757812 581.53125 C 243.871094 579.390625 241.039062 577.179688 238.261719 574.898438 C 235.484375 572.621094 232.761719 570.273438 230.101562 567.859375 C 227.4375 565.449219 224.835938 562.96875 222.296875 560.429688 C 219.753906 557.886719 217.277344 555.285156 214.863281 552.625 C 212.453125 549.960938 210.105469 547.242188 207.824219 544.464844 C 205.546875 541.6875 203.335938 538.855469 201.195312 535.96875 C 199.054688 533.082031 196.984375 530.144531 194.988281 527.15625 C 192.992188 524.167969 191.070312 521.132812 189.222656 518.050781 C 187.375 514.96875 185.605469 511.84375 183.914062 508.675781 C 182.21875 505.507812 180.601562 502.296875 179.066406 499.050781 C 177.53125 495.800781 176.074219 492.515625 174.699219 489.195312 C 173.324219 485.875 172.03125 482.523438 170.820312 479.140625 C 169.609375 475.757812 168.484375 472.347656 167.441406 468.910156 C 166.398438 465.46875 165.4375 462.007812 164.566406 458.523438 C 163.691406 455.035156 162.90625 451.53125 162.203125 448.007812 C 161.503906 444.484375 160.890625 440.941406 160.363281 437.390625 C 159.835938 433.835938 159.394531 430.269531 159.042969 426.691406 C 158.691406 423.117188 158.425781 419.535156 158.25 415.945312 C 158.074219 412.355469 157.984375 408.765625 157.984375 405.171875 C 157.984375 401.578125 158.074219 397.988281 158.25 394.398438 C 158.425781 390.808594 158.691406 387.226562 159.042969 383.648438 C 159.394531 380.074219 159.835938 376.507812 160.363281 372.953125 C 160.890625 369.398438 161.503906 365.859375 162.203125 362.335938 C 162.90625 358.8125 163.691406 355.304688 164.566406 351.820312 C 165.4375 348.335938 166.398438 344.871094 167.441406 341.433594 C 168.484375 337.996094 169.609375 334.585938 170.820312 331.203125 C 172.03125 327.816406 173.324219 324.464844 174.699219 321.144531 C 176.074219 317.828125 177.53125 314.542969 179.066406 311.292969 C 180.601562 308.046875 182.21875 304.835938 183.914062 301.667969 C 185.605469 298.5 187.375 295.375 189.222656 292.289062 C 191.070312 289.207031 192.992188 286.175781 194.988281 283.1875 C 196.984375 280.199219 199.054688 277.261719 201.195312 274.375 C 203.335938 271.488281 205.546875 268.65625 207.824219 265.878906 C 210.105469 263.101562 212.453125 260.382812 214.863281 257.71875 C 217.277344 255.054688 219.753906 252.453125 222.296875 249.914062 C 224.835938 247.371094 227.4375 244.894531 230.101562 242.480469 C 232.761719 240.070312 235.484375 237.722656 238.261719 235.441406 C 241.039062 233.164062 243.871094 230.953125 246.757812 228.8125 C 249.644531 226.671875 252.582031 224.605469 255.570312 222.605469 C 258.554688 220.609375 261.589844 218.6875 264.671875 216.839844 C 267.753906 214.996094 270.882812 213.222656 274.050781 211.53125 C 277.21875 209.835938 280.429688 208.222656 283.675781 206.683594 C 286.925781 205.148438 290.210938 203.691406 293.527344 202.316406 C 296.847656 200.941406 300.199219 199.648438 303.582031 198.4375 C 306.96875 197.226562 310.378906 196.101562 313.816406 195.058594 C 317.253906 194.015625 320.71875 193.058594 324.203125 192.183594 C 327.6875 191.3125 331.195312 190.523438 334.71875 189.824219 C 338.242188 189.121094 341.78125 188.507812 345.335938 187.980469 C 348.890625 187.453125 352.457031 187.011719 356.03125 186.660156 C 359.609375 186.308594 363.191406 186.042969 366.78125 185.867188 C 370.371094 185.691406 373.960938 185.605469 377.554688 185.605469 C 381.148438 185.605469 384.738281 185.691406 388.328125 185.867188 C 391.917969 186.042969 395.5 186.308594 399.074219 186.660156 C 402.652344 187.011719 406.214844 187.453125 409.769531 187.980469 C 413.324219 188.507812 416.863281 189.121094 420.390625 189.824219 C 423.914062 190.523438 427.417969 191.3125 430.90625 192.183594 C 434.390625 193.058594 437.851562 194.015625 441.292969 195.058594 C 444.730469 196.101562 448.140625 197.226562 451.523438 198.4375 C 454.90625 199.648438 458.257812 200.941406 461.578125 202.316406 C 464.898438 203.691406 468.183594 205.148438 471.429688 206.683594 C 474.679688 208.222656 477.886719 209.835938 481.058594 211.53125 C 484.226562 213.222656 487.351562 214.996094 490.433594 216.839844 C 493.515625 218.6875 496.550781 220.609375 499.539062 222.605469 C 502.527344 224.605469 505.464844 226.671875 508.351562 228.8125 C 511.238281 230.953125 514.070312 233.164062 516.847656 235.441406 C 519.625 237.722656 522.34375 240.070312 525.007812 242.480469 C 527.667969 244.894531 530.269531 247.371094 532.8125 249.914062 C 535.351562 252.453125 537.828125 255.054688 540.242188 257.71875 C 542.65625 260.382812 545.003906 263.101562 547.28125 265.878906 C 549.5625 268.65625 551.773438 271.488281 553.914062 274.375 C 556.054688 277.261719 558.121094 280.199219 560.117188 283.1875 C 562.113281 286.175781 564.035156 289.207031 565.882812 292.289062 C 567.730469 295.375 569.5 298.5 571.195312 301.667969 C 572.890625 304.835938 574.503906 308.046875 576.039062 311.292969 C 577.578125 314.542969 579.03125 317.828125 580.410156 321.144531 C 581.785156 324.464844 583.078125 327.816406 584.285156 331.203125 C 585.496094 334.585938 586.625 337.996094 587.667969 341.433594 C 588.710938 344.871094 589.667969 348.335938 590.542969 351.820312 C 591.414062 355.304688 592.203125 358.8125 592.902344 362.335938 C 593.605469 365.859375 594.21875 369.398438 594.746094 372.953125 C 595.273438 376.507812 595.710938 380.074219 596.066406 383.648438 C 596.417969 387.226562 596.679688 390.808594 596.855469 394.398438 C 597.035156 397.988281 597.121094 401.578125 597.121094 405.171875 Z M 597.121094 405.171875 "/><path style=" stroke:none;fill-rule:nonzero;fill:#8c8c8c;fill-opacity:1;" d="M 281.492188 281.664062 L 336.386719 281.664062 L 336.386719 322.832031 L 281.492188 322.832031 Z M 281.492188 281.664062 "/><path style=" stroke:none;fill-rule:nonzero;fill:#aaaaaa;fill-opacity:1;" d="M 336.386719 254.21875 L 281.492188 254.21875 C 273.945312 254.21875 267.769531 260.394531 267.769531 267.941406 C 267.769531 275.488281 273.945312 281.664062 281.492188 281.664062 L 336.386719 281.664062 C 343.933594 281.664062 350.109375 275.488281 350.109375 267.941406 C 350.109375 260.394531 343.933594 254.21875 336.386719 254.21875 Z M 336.386719 254.21875 "/><path style=" stroke:none;fill-rule:nonzero;fill:#aaaaaa;fill-opacity:1;" d="M 418.722656 418.894531 C 418.722656 420.691406 418.679688 422.488281 418.589844 424.28125 C 418.503906 426.074219 418.371094 427.867188 418.195312 429.65625 C 418.019531 431.441406 417.796875 433.226562 417.535156 435.003906 C 417.269531 436.78125 416.964844 438.550781 416.613281 440.3125 C 416.261719 442.074219 415.871094 443.828125 415.433594 445.570312 C 414.996094 447.3125 414.515625 449.042969 413.996094 450.761719 C 413.472656 452.480469 412.910156 454.1875 412.304688 455.878906 C 411.699219 457.570312 411.054688 459.246094 410.367188 460.90625 C 409.679688 462.566406 408.949219 464.207031 408.183594 465.832031 C 407.414062 467.457031 406.605469 469.0625 405.761719 470.644531 C 404.914062 472.230469 404.027344 473.792969 403.105469 475.335938 C 402.179688 476.875 401.21875 478.394531 400.222656 479.886719 C 399.222656 481.382812 398.1875 482.847656 397.117188 484.292969 C 396.046875 485.734375 394.941406 487.152344 393.804688 488.539062 C 392.664062 489.929688 391.488281 491.289062 390.285156 492.621094 C 389.078125 493.953125 387.839844 495.253906 386.566406 496.523438 C 385.296875 497.792969 383.996094 499.03125 382.664062 500.238281 C 381.335938 501.445312 379.972656 502.617188 378.585938 503.757812 C 377.195312 504.898438 375.78125 506.003906 374.335938 507.074219 C 372.894531 508.144531 371.425781 509.179688 369.933594 510.175781 C 368.4375 511.175781 366.921875 512.136719 365.378906 513.058594 C 363.839844 513.984375 362.273438 514.867188 360.691406 515.714844 C 359.105469 516.5625 357.5 517.371094 355.878906 518.136719 C 354.253906 518.90625 352.613281 519.632812 350.953125 520.320312 C 349.292969 521.007812 347.617188 521.65625 345.925781 522.261719 C 344.230469 522.867188 342.527344 523.429688 340.808594 523.953125 C 339.089844 524.472656 337.355469 524.953125 335.613281 525.386719 C 333.871094 525.824219 332.117188 526.21875 330.355469 526.570312 C 328.59375 526.917969 326.824219 527.226562 325.046875 527.488281 C 323.269531 527.753906 321.488281 527.972656 319.699219 528.148438 C 317.910156 528.324219 316.121094 528.457031 314.324219 528.546875 C 312.53125 528.632812 310.734375 528.679688 308.9375 528.679688 C 307.140625 528.679688 305.347656 528.632812 303.550781 528.546875 C 301.757812 528.457031 299.964844 528.324219 298.179688 528.148438 C 296.390625 527.972656 294.609375 527.753906 292.832031 527.488281 C 291.054688 527.226562 289.285156 526.917969 287.519531 526.570312 C 285.757812 526.21875 284.007812 525.824219 282.261719 525.386719 C 280.519531 524.953125 278.789062 524.472656 277.070312 523.953125 C 275.351562 523.429688 273.644531 522.867188 271.953125 522.261719 C 270.261719 521.65625 268.585938 521.007812 266.925781 520.320312 C 265.265625 519.632812 263.625 518.90625 262 518.136719 C 260.375 517.371094 258.773438 516.5625 257.1875 515.714844 C 255.601562 514.867188 254.039062 513.984375 252.5 513.058594 C 250.957031 512.136719 249.441406 511.175781 247.945312 510.175781 C 246.453125 509.179688 244.984375 508.144531 243.539062 507.074219 C 242.097656 506.003906 240.679688 504.898438 239.292969 503.757812 C 237.902344 502.617188 236.542969 501.445312 235.210938 500.238281 C 233.882812 499.03125 232.582031 497.792969 231.308594 496.523438 C 230.039062 495.253906 228.800781 493.953125 227.59375 492.621094 C 226.386719 491.289062 225.214844 489.929688 224.074219 488.539062 C 222.933594 487.152344 221.828125 485.734375 220.757812 484.292969 C 219.6875 482.847656 218.65625 481.382812 217.65625 479.886719 C 216.660156 478.394531 215.699219 476.875 214.773438 475.335938 C 213.851562 473.792969 212.964844 472.230469 212.117188 470.644531 C 211.269531 469.0625 210.464844 467.457031 209.695312 465.832031 C 208.925781 464.207031 208.199219 462.566406 207.511719 460.90625 C 206.824219 459.246094 206.179688 457.570312 205.574219 455.878906 C 204.96875 454.1875 204.402344 452.480469 203.882812 450.761719 C 203.359375 449.042969 202.882812 447.3125 202.445312 445.570312 C 202.007812 443.828125 201.613281 442.074219 201.265625 440.3125 C 200.914062 438.550781 200.605469 436.78125 200.34375 435.003906 C 200.078125 433.226562 199.859375 431.441406 199.683594 429.65625 C 199.507812 427.867188 199.375 426.074219 199.289062 424.28125 C 199.199219 422.488281 199.15625 420.691406 199.15625 418.894531 C 199.15625 417.097656 199.199219 415.300781 199.289062 413.507812 C 199.375 411.714844 199.507812 409.921875 199.683594 408.132812 C 199.859375 406.34375 200.078125 404.5625 200.34375 402.785156 C 200.605469 401.007812 200.914062 399.238281 201.265625 397.476562 C 201.613281 395.714844 202.007812 393.960938 202.445312 392.21875 C 202.882812 390.476562 203.359375 388.746094 203.882812 387.027344 C 204.402344 385.304688 204.96875 383.601562 205.574219 381.910156 C 206.179688 380.21875 206.824219 378.542969 207.511719 376.882812 C 208.199219 375.222656 208.925781 373.578125 209.695312 371.957031 C 210.464844 370.332031 211.269531 368.726562 212.117188 367.144531 C 212.964844 365.558594 213.851562 363.996094 214.773438 362.453125 C 215.699219 360.914062 216.660156 359.394531 217.65625 357.902344 C 218.65625 356.40625 219.6875 354.9375 220.757812 353.496094 C 221.828125 352.054688 222.933594 350.636719 224.074219 349.25 C 225.214844 347.859375 226.386719 346.5 227.59375 345.167969 C 228.800781 343.835938 230.039062 342.535156 231.308594 341.265625 C 232.582031 339.996094 233.882812 338.757812 235.210938 337.550781 C 236.542969 336.34375 237.902344 335.171875 239.292969 334.03125 C 240.679688 332.890625 242.097656 331.785156 243.539062 330.714844 C 244.984375 329.644531 246.453125 328.609375 247.945312 327.613281 C 249.441406 326.613281 250.957031 325.652344 252.5 324.730469 C 254.039062 323.804688 255.601562 322.921875 257.1875 322.074219 C 258.773438 321.226562 260.375 320.417969 262 319.652344 C 263.625 318.882812 265.265625 318.15625 266.925781 317.46875 C 268.585938 316.78125 270.261719 316.132812 271.953125 315.527344 C 273.644531 314.921875 275.351562 314.359375 277.070312 313.835938 C 278.789062 313.316406 280.519531 312.835938 282.261719 312.402344 C 284.007812 311.964844 285.757812 311.570312 287.519531 311.21875 C 289.285156 310.871094 291.054688 310.5625 292.832031 310.296875 C 294.609375 310.035156 296.390625 309.816406 298.179688 309.640625 C 299.964844 309.464844 301.757812 309.332031 303.550781 309.242188 C 305.347656 309.15625 307.140625 309.109375 308.9375 309.109375 C 310.734375 309.109375 312.53125 309.15625 314.324219 309.242188 C 316.121094 309.332031 317.910156 309.464844 319.699219 309.640625 C 321.488281 309.816406 323.269531 310.035156 325.046875 310.296875 C 326.824219 310.5625 328.59375 310.871094 330.355469 311.21875 C 332.117188 311.570312 333.871094 311.964844 335.613281 312.402344 C 337.355469 312.835938 339.089844 313.316406 340.808594 313.835938 C 342.527344 314.359375 344.230469 314.921875 345.925781 315.527344 C 347.617188 316.132812 349.292969 316.78125 350.953125 317.46875 C 352.613281 318.15625 354.253906 318.882812 355.878906 319.652344 C 357.5 320.417969 359.105469 321.226562 360.691406 322.074219 C 362.273438 322.921875 363.839844 323.804688 365.378906 324.730469 C 366.921875 325.652344 368.4375 326.613281 369.933594 327.613281 C 371.425781 328.609375 372.894531 329.644531 374.335938 330.714844 C 375.78125 331.785156 377.195312 332.890625 378.585938 334.03125 C 379.972656 335.171875 381.335938 336.34375 382.664062 337.550781 C 383.996094 338.757812 385.296875 339.996094 386.566406 341.265625 C 387.839844 342.535156 389.078125 343.835938 390.285156 345.167969 C 391.488281 346.5 392.664062 347.859375 393.804688 349.25 C 394.941406 350.636719 396.046875 352.054688 397.117188 353.496094 C 398.1875 354.9375 399.222656 356.40625 400.222656 357.902344 C 401.21875 359.394531 402.179688 360.914062 403.105469 362.453125 C 404.027344 363.996094 404.914062 365.558594 405.761719 367.144531 C 406.605469 368.726562 407.414062 370.332031 408.183594 371.957031 C 408.949219 373.578125 409.679688 375.222656 410.367188 376.882812 C 411.054688 378.542969 411.699219 380.21875 412.304688 381.910156 C 412.910156 383.601562 413.472656 385.304688 413.996094 387.027344 C 414.515625 388.746094 414.996094 390.476562 415.433594 392.21875 C 415.871094 393.960938 416.261719 395.714844 416.613281 397.476562 C 416.964844 399.238281 417.269531 401.007812 417.535156 402.785156 C 417.796875 404.5625 418.019531 406.34375 418.195312 408.132812 C 418.371094 409.921875 418.503906 411.714844 418.589844 413.507812 C 418.679688 415.300781 418.722656 417.097656 418.722656 418.894531 Z M 418.722656 418.894531 "/><path style=" stroke:none;fill-rule:nonzero;fill:#8380f3;fill-opacity:1;" d="M 802.96875 89.542969 L 679.460938 7.203125 L 679.460938 62.097656 L 408.429688 62.097656 C 209.445312 62.097656 48.203125 223.34375 48.203125 422.324219 L 48.203125 597.292969 L 103.09375 597.292969 L 103.09375 425.757812 C 103.09375 255.246094 241.351562 116.988281 411.863281 116.988281 L 679.460938 116.988281 L 679.460938 171.878906 Z M 802.96875 89.542969 "/><path style=" stroke:none;fill-rule:nonzero;fill:#8380f3;fill-opacity:1;" d="M 706.90625 213.050781 L 706.90625 384.585938 C 706.90625 555.09375 568.648438 693.355469 398.136719 693.355469 L 130.539062 693.355469 L 130.539062 638.460938 L 7.03125 720.800781 L 130.539062 803.136719 L 130.539062 748.246094 L 401.570312 748.246094 C 600.550781 748.246094 761.796875 587 761.796875 388.019531 L 761.796875 213.050781 Z M 706.90625 213.050781 "/><path style=" stroke:none;fill-rule:nonzero;fill:#dfdfdf;fill-opacity:1;" d="M 459.378906 466.925781 L 514.785156 466.925781 L 514.785156 453.203125 L 462.980469 453.203125 C 464.867188 444.28125 466.066406 435.019531 466.582031 425.757812 L 528.507812 425.757812 L 528.507812 412.03125 L 466.582031 412.03125 C 466.066406 397.796875 463.496094 384.074219 459.378906 370.863281 L 542.230469 370.863281 L 542.230469 357.140625 L 454.230469 357.140625 C 450.113281 347.535156 445.140625 338.273438 439.136719 329.695312 L 528.507812 329.695312 L 528.507812 315.972656 L 428.671875 315.972656 C 425.070312 311.855469 421.296875 307.910156 417.351562 304.136719 L 407.917969 314.085938 C 437.078125 341.53125 453.03125 378.753906 453.03125 418.894531 C 453.03125 459.035156 436.90625 496.257812 407.917969 523.703125 L 417.351562 533.652344 C 425.585938 525.761719 432.960938 517.183594 439.308594 508.09375 L 501.0625 508.09375 L 501.0625 494.371094 L 447.710938 494.371094 C 452.515625 485.621094 456.289062 476.359375 459.378906 466.925781 Z M 459.378906 466.925781 "/><path style=" stroke:none;fill-rule:nonzero;fill:#dfdfdf;fill-opacity:1;" d="M 542.230469 412.03125 L 569.675781 412.03125 L 569.675781 425.757812 L 542.230469 425.757812 Z M 542.230469 412.03125 "/><path style=" stroke:none;fill-rule:nonzero;fill:#dfdfdf;fill-opacity:1;" d="M 514.785156 494.371094 L 542.230469 494.371094 L 542.230469 508.09375 L 514.785156 508.09375 Z M 514.785156 494.371094 "/><path style=" stroke:none;fill-rule:nonzero;fill:#8c8c8c;fill-opacity:1;" d="M 226.601562 346.335938 L 249.242188 368.976562 L 259.023438 359.199219 L 236.378906 336.554688 C 232.949219 339.644531 229.6875 342.902344 226.601562 346.335938 Z M 226.601562 346.335938 "/><path style=" stroke:none;fill-rule:nonzero;fill:#8c8c8c;fill-opacity:1;" d="M 199.15625 418.894531 C 199.15625 421.125 199.328125 423.527344 199.328125 425.757812 L 240.324219 425.757812 L 240.324219 412.03125 L 199.328125 412.03125 C 199.328125 414.261719 199.15625 416.664062 199.15625 418.894531 Z M 199.15625 418.894531 "/><path style=" stroke:none;fill-rule:nonzero;fill:#8c8c8c;fill-opacity:1;" d="M 226.601562 491.453125 C 229.6875 494.886719 232.949219 498.144531 236.378906 501.234375 L 259.023438 478.589844 L 249.242188 468.8125 Z M 226.601562 491.453125 "/><path style=" stroke:none;fill-rule:nonzero;fill:#8c8c8c;fill-opacity:1;" d="M 302.078125 528.507812 C 304.308594 528.679688 306.710938 528.679688 308.9375 528.679688 C 311.167969 528.679688 313.570312 528.507812 315.800781 528.507812 L 315.800781 487.507812 L 302.078125 487.507812 Z M 302.078125 528.507812 "/><path style=" stroke:none;fill-rule:nonzero;fill:#8c8c8c;fill-opacity:1;" d="M 368.632812 468.984375 L 358.855469 478.761719 L 381.5 501.402344 C 384.929688 498.316406 388.1875 495.058594 391.277344 491.625 Z M 368.632812 468.984375 "/><path style=" stroke:none;fill-rule:nonzero;fill:#8c8c8c;fill-opacity:1;" d="M 377.554688 425.757812 L 418.550781 425.757812 C 418.722656 423.527344 418.722656 421.125 418.722656 418.894531 C 418.722656 416.664062 418.550781 414.261719 418.550781 412.03125 L 377.554688 412.03125 Z M 377.554688 425.757812 "/><path style=" stroke:none;fill-rule:nonzero;fill:#8c8c8c;fill-opacity:1;" d="M 381.5 336.554688 L 358.855469 359.199219 L 368.632812 368.976562 L 391.277344 346.335938 C 388.1875 342.902344 384.929688 339.644531 381.5 336.554688 Z M 381.5 336.554688 "/><path style=" stroke:none;fill-rule:nonzero;fill:#dfdfdf;fill-opacity:1;" d="M 272.574219 464.867188 L 262.796875 455.089844 L 301.90625 415.976562 L 301.90625 336.554688 L 315.628906 336.554688 L 315.628906 418.894531 C 315.628906 420.78125 314.941406 422.496094 313.570312 423.699219 Z M 272.574219 464.867188 "/><path style=" stroke:none;fill-rule:nonzero;fill:#5a5a9e;fill-opacity:1;" d="M 806.742188 83.882812 L 683.234375 1.542969 C 681.175781 0.171875 678.429688 0 676.199219 1.199219 C 673.972656 2.402344 672.597656 4.804688 672.597656 7.203125 L 672.597656 55.234375 L 408.429688 55.234375 C 310.3125 55.234375 218.195312 93.488281 148.894531 162.789062 C 79.59375 232.089844 41.339844 324.207031 41.339844 422.324219 L 41.339844 597.292969 L 55.0625 597.292969 L 55.0625 422.324219 C 55.0625 227.457031 213.5625 68.957031 408.429688 68.957031 L 679.460938 68.957031 C 683.234375 68.957031 686.320312 65.871094 686.320312 62.097656 L 686.320312 20.070312 L 790.617188 89.542969 L 686.320312 159.015625 L 686.320312 116.988281 C 686.320312 113.214844 683.234375 110.128906 679.460938 110.128906 L 411.863281 110.128906 C 237.75 110.128906 96.234375 251.644531 96.234375 425.757812 L 96.234375 597.292969 L 109.957031 597.292969 L 109.957031 425.757812 C 109.957031 259.363281 245.46875 123.851562 411.863281 123.851562 L 672.597656 123.851562 L 672.597656 171.878906 C 672.597656 174.453125 673.96875 176.683594 676.199219 177.882812 C 678.429688 179.085938 681.175781 178.914062 683.234375 177.542969 L 806.742188 95.203125 C 808.628906 94.003906 809.828125 91.773438 809.828125 89.542969 C 809.828125 87.3125 808.628906 85.082031 806.742188 83.882812 Z M 806.742188 83.882812 "/><path style=" stroke:none;fill-rule:nonzero;fill:#5a5a9e;fill-opacity:1;" d="M 432.445312 631.601562 C 557.324219 631.601562 658.875 530.050781 658.875 405.171875 C 658.875 280.292969 557.324219 178.742188 432.445312 178.742188 L 377.554688 178.742188 C 252.675781 178.742188 151.125 280.292969 151.125 405.171875 C 151.125 530.050781 252.675781 631.601562 377.554688 631.601562 Z M 459.890625 616.164062 C 496.085938 601.925781 527.820312 578.765625 552.179688 549.261719 L 588.886719 549.261719 C 555.78125 585.113281 510.496094 609.644531 459.890625 616.164062 Z M 600.382812 535.539062 L 562.644531 535.539062 C 574.480469 518.730469 584.085938 500.375 591.117188 480.648438 L 631.429688 480.648438 C 623.710938 500.546875 613.246094 519.074219 600.382812 535.539062 Z M 636.0625 466.925781 L 595.40625 466.925781 C 600.382812 449.429688 603.296875 431.074219 603.8125 412.03125 L 644.980469 412.03125 C 644.464844 431.074219 641.378906 449.429688 636.0625 466.925781 Z M 644.980469 398.308594 L 603.8125 398.308594 C 603.296875 379.269531 600.382812 360.914062 595.40625 343.417969 L 636.0625 343.417969 C 641.378906 360.914062 644.464844 379.269531 644.980469 398.308594 Z M 600.382812 274.804688 C 613.246094 291.269531 623.710938 309.796875 631.257812 329.695312 L 590.945312 329.695312 C 583.914062 309.96875 574.308594 291.613281 562.472656 274.804688 Z M 588.714844 261.078125 L 552.007812 261.078125 C 527.648438 231.574219 495.914062 208.417969 459.71875 194.179688 C 510.496094 200.699219 555.78125 225.230469 588.714844 261.078125 Z M 164.847656 405.171875 C 164.847656 287.839844 260.222656 192.464844 377.554688 192.464844 C 494.886719 192.464844 590.261719 287.839844 590.261719 405.171875 C 590.261719 522.503906 494.886719 617.878906 377.554688 617.878906 C 260.222656 617.878906 164.847656 522.503906 164.847656 405.171875 Z M 164.847656 405.171875 "/><path style=" stroke:none;fill-rule:nonzero;fill:#5a5a9e;fill-opacity:1;" d="M 754.9375 388.019531 C 754.9375 582.882812 596.4375 741.386719 401.570312 741.386719 L 130.539062 741.386719 C 126.765625 741.386719 123.679688 744.472656 123.679688 748.246094 L 123.679688 790.273438 L 19.382812 720.800781 L 123.679688 651.328125 L 123.679688 693.355469 C 123.679688 697.128906 126.765625 700.214844 130.539062 700.214844 L 398.136719 700.214844 C 572.25 700.214844 713.765625 558.699219 713.765625 384.585938 L 713.765625 213.050781 L 700.042969 213.050781 L 700.042969 384.585938 C 700.042969 550.976562 564.53125 686.492188 398.136719 686.492188 L 137.402344 686.492188 L 137.402344 638.460938 C 137.402344 635.890625 136.027344 633.660156 133.800781 632.457031 C 131.570312 631.257812 128.824219 631.429688 126.765625 632.800781 L 3.257812 715.140625 C 1.371094 716.339844 0.171875 718.570312 0.171875 720.800781 C 0.171875 723.03125 1.371094 725.261719 3.257812 726.460938 L 126.765625 808.800781 C 127.96875 809.484375 129.167969 810 130.539062 810 C 131.570312 810 132.769531 809.65625 133.800781 809.140625 C 136.027344 807.941406 137.402344 805.539062 137.402344 803.136719 L 137.402344 755.109375 L 401.570312 755.109375 C 499.6875 755.109375 591.804688 716.855469 661.105469 647.554688 C 730.40625 578.253906 768.660156 486.136719 768.660156 388.019531 L 768.660156 213.050781 L 754.9375 213.050781 Z M 754.9375 388.019531 "/><path style=" stroke:none;fill-rule:nonzero;fill:#5a5a9e;fill-opacity:1;" d="M 425.585938 418.894531 C 425.585938 366.574219 390.933594 322.148438 343.246094 307.394531 L 343.246094 287.324219 C 351.308594 284.410156 356.96875 276.863281 356.96875 267.941406 C 356.96875 256.621094 347.707031 247.355469 336.386719 247.355469 L 281.492188 247.355469 C 270.171875 247.355469 260.910156 256.621094 260.910156 267.941406 C 260.910156 276.863281 266.570312 284.410156 274.632812 287.324219 L 274.632812 307.394531 C 226.945312 322.148438 192.292969 366.574219 192.292969 418.894531 C 192.292969 483.222656 244.613281 535.539062 308.9375 535.539062 C 373.265625 535.539062 425.585938 483.222656 425.585938 418.894531 Z M 281.492188 261.078125 L 336.386719 261.078125 C 340.160156 261.078125 343.246094 264.167969 343.246094 267.941406 C 343.246094 271.714844 340.160156 274.804688 336.386719 274.804688 L 281.492188 274.804688 C 277.71875 274.804688 274.632812 271.714844 274.632812 267.941406 C 274.632812 264.167969 277.71875 261.078125 281.492188 261.078125 Z M 329.523438 288.527344 L 329.523438 304.136719 C 322.832031 302.933594 315.972656 302.25 308.9375 302.25 C 301.90625 302.25 295.042969 302.933594 288.355469 304.136719 L 288.355469 288.527344 Z M 376.695312 496.257812 C 360.230469 510.667969 339.128906 519.929688 315.800781 521.472656 L 315.800781 487.507812 L 302.078125 487.507812 L 302.078125 521.644531 C 278.921875 520.101562 257.648438 510.839844 241.183594 496.429688 L 258.851562 478.761719 L 249.074219 468.984375 L 231.402344 486.652344 C 216.996094 470.183594 207.730469 449.085938 206.1875 425.757812 L 240.324219 425.757812 L 240.324219 412.03125 L 206.1875 412.03125 C 207.730469 388.875 216.996094 367.605469 231.402344 351.136719 L 249.074219 368.804688 L 258.851562 359.027344 L 241.183594 341.359375 C 259.363281 325.578125 283.035156 315.800781 308.9375 315.800781 C 334.839844 315.800781 358.511719 325.40625 376.695312 341.359375 L 359.027344 359.027344 L 368.804688 368.804688 L 386.472656 351.136719 C 400.882812 367.605469 410.144531 388.703125 411.691406 412.03125 L 377.554688 412.03125 L 377.554688 425.757812 L 411.691406 425.757812 C 410.144531 448.914062 400.882812 470.183594 386.472656 486.652344 L 368.804688 468.984375 L 359.027344 478.761719 Z M 376.695312 496.257812 "/><path style=" stroke:none;fill-rule:nonzero;fill:#5a5a9e;fill-opacity:1;" d="M 302.078125 415.976562 L 262.96875 455.089844 L 272.746094 464.867188 L 313.914062 423.699219 C 315.285156 422.324219 315.972656 420.609375 315.972656 418.894531 L 315.972656 336.554688 L 302.25 336.554688 L 302.25 415.976562 Z M 302.078125 415.976562 "/><path style=" stroke:none;fill-rule:nonzero;fill:#5a5a9e;fill-opacity:1;" d="M 453.03125 418.894531 C 453.03125 459.035156 436.90625 496.257812 407.917969 523.703125 L 417.351562 533.652344 C 425.585938 525.761719 432.960938 517.183594 439.308594 508.09375 L 501.0625 508.09375 L 501.0625 494.371094 L 447.710938 494.371094 C 452.515625 485.621094 456.460938 476.359375 459.378906 466.925781 L 514.785156 466.925781 L 514.785156 453.203125 L 462.980469 453.203125 C 464.867188 444.28125 466.066406 435.019531 466.582031 425.757812 L 528.507812 425.757812 L 528.507812 412.03125 L 466.582031 412.03125 C 466.066406 397.796875 463.496094 384.074219 459.378906 370.863281 L 542.230469 370.863281 L 542.230469 357.140625 L 454.230469 357.140625 C 450.113281 347.535156 445.140625 338.273438 439.136719 329.695312 L 528.507812 329.695312 L 528.507812 315.972656 L 428.671875 315.972656 C 425.070312 311.855469 421.296875 307.910156 417.351562 304.136719 L 407.917969 314.085938 C 436.90625 341.53125 453.03125 378.753906 453.03125 418.894531 Z M 453.03125 418.894531 "/><path style=" stroke:none;fill-rule:nonzero;fill:#5a5a9e;fill-opacity:1;" d="M 542.230469 412.03125 L 569.675781 412.03125 L 569.675781 425.757812 L 542.230469 425.757812 Z M 542.230469 412.03125 "/><path style=" stroke:none;fill-rule:nonzero;fill:#5a5a9e;fill-opacity:1;" d="M 514.785156 494.371094 L 542.230469 494.371094 L 542.230469 508.09375 L 514.785156 508.09375 Z M 514.785156 494.371094 "/></g></svg>