<svg xmlns="http://www.w3.org/2000/svg" xmlns:xlink="http://www.w3.org/1999/xlink" width="1080" zoomAndPan="magnify" viewBox="0 0 810 809.999993" height="1080" preserveAspectRatio="xMidYMid meet" version="1.2"><g id="16911d6519"><path style=" stroke:none;fill-rule:evenodd;fill:#d10000;fill-opacity:1;" d="M 326.558594 189.464844 L 348.914062 211.496094 L 379.554688 204.652344 L 365.503906 232.722656 L 381.476562 259.734375 L 350.4375 255.039062 L 329.667969 278.582031 L 324.542969 247.621094 L 295.722656 235.152344 L 323.601562 220.703125 Z M 444.835938 183.878906 L 457.914062 196.769531 L 475.835938 192.761719 L 467.617188 209.179688 L 476.960938 224.984375 L 458.800781 222.242188 L 446.660156 236.007812 L 443.65625 217.894531 L 426.789062 210.609375 L 443.101562 202.15625 Z M 483.433594 620.367188 L 486.390625 589.128906 L 514.265625 574.683594 L 485.453125 562.207031 L 480.320312 531.253906 L 459.558594 554.789062 L 428.511719 550.101562 L 444.492188 577.109375 L 430.433594 605.183594 L 461.078125 598.332031 Z M 577.632812 548.636719 L 579.363281 530.363281 L 595.664062 521.914062 L 578.8125 514.617188 L 575.808594 496.511719 L 563.660156 510.28125 L 545.511719 507.539062 L 554.855469 523.335938 L 546.625 539.761719 L 564.550781 535.761719 Z M 365.15625 625.953125 L 366.886719 607.679688 L 383.1875 599.226562 L 366.339844 591.933594 L 363.335938 573.828125 L 351.1875 587.601562 L 333.035156 584.855469 L 342.382812 600.65625 L 334.160156 617.074219 L 352.085938 613.074219 Z M 232.363281 261.191406 L 245.4375 274.082031 L 263.359375 270.074219 L 255.144531 286.484375 L 264.484375 302.292969 L 246.328125 299.546875 L 234.183594 313.3125 L 231.1875 295.203125 L 214.332031 287.910156 L 230.636719 279.472656 Z M 125.808594 391.410156 L 144.628906 384.5625 C 147.105469 353.203125 155.230469 322.734375 168.359375 294.589844 C 196.59375 234.050781 247.941406 184.277344 315.695312 159.621094 C 383.445312 134.964844 454.789062 140.097656 515.347656 168.332031 C 543.496094 181.457031 569.316406 199.574219 591.371094 222.011719 L 610.1875 215.164062 C 585.375 188.367188 555.699219 166.914062 523.097656 151.71875 C 458.277344 121.5 381.929688 116.007812 309.421875 142.390625 C 236.917969 168.773438 181.957031 222.050781 151.738281 286.847656 C 136.53125 319.4375 127.601562 354.945312 125.808594 391.410156 Z M 655.445312 198.691406 C 624.382812 160.988281 585.46875 131.226562 542.085938 111.003906 C 466.851562 75.925781 378.230469 69.546875 294.050781 100.171875 C 209.878906 130.800781 146.097656 192.640625 111.015625 267.859375 C 90.789062 311.226562 80.113281 359.039062 80.550781 407.886719 L 98.910156 401.207031 C 99.445312 357.390625 109.449219 314.59375 127.636719 275.613281 C 160.726562 204.648438 220.917969 146.304688 300.332031 117.40625 C 379.746094 88.511719 463.363281 94.527344 534.335938 127.628906 C 573.332031 145.804688 608.507812 172.152344 637.097656 205.375 Z M 684.1875 418.414062 L 665.367188 425.261719 C 662.894531 456.613281 654.769531 487.089844 641.640625 515.234375 C 613.398438 575.777344 562.054688 625.554688 494.304688 650.207031 C 426.546875 674.863281 355.210938 669.726562 294.65625 641.492188 C 266.5 628.371094 240.675781 610.25 218.628906 587.820312 L 199.808594 594.667969 C 224.617188 621.460938 254.296875 642.917969 286.902344 658.113281 C 351.710938 688.324219 428.070312 693.824219 500.578125 667.4375 C 573.082031 641.054688 628.03125 587.777344 658.261719 522.980469 C 673.46875 490.386719 682.410156 454.882812 684.1875 418.414062 Z M 729.4375 401.949219 L 711.089844 408.625 C 710.550781 452.441406 700.546875 495.234375 682.355469 534.222656 C 649.261719 605.1875 589.082031 663.53125 509.664062 692.425781 C 430.25 721.324219 346.632812 715.308594 275.652344 682.210938 C 236.65625 664.039062 201.472656 637.683594 172.898438 604.460938 L 154.539062 611.140625 C 185.605469 648.847656 224.527344 678.605469 267.902344 698.828125 C 343.136719 733.910156 431.761719 740.289062 515.929688 709.664062 C 600.101562 679.035156 663.886719 617.195312 698.964844 541.972656 C 719.214844 498.601562 729.886719 450.792969 729.4375 401.949219 Z M 66.320312 619.367188 L 802.320312 351.554688 L 809.996094 372.636719 L 754.929688 392.675781 C 764.386719 401.527344 776.597656 409.355469 776.078125 421.117188 C 775.265625 439.699219 743.640625 445.71875 740.40625 464.042969 C 737.171875 482.363281 764.847656 498.839844 759.242188 516.582031 C 753.644531 534.332031 721.539062 531.957031 713.664062 548.824219 C 705.804688 565.679688 728.257812 588.753906 718.265625 604.445312 C 708.273438 620.128906 677.855469 609.527344 665.898438 623.785156 C 653.933594 638.035156 669.652344 666.128906 655.941406 678.703125 C 642.222656 691.261719 615.582031 673.167969 600.34375 683.832031 C 585.097656 694.507812 593.015625 725.71875 576.507812 734.300781 C 559.996094 742.894531 538.964844 718.519531 521.476562 724.882812 C 503.996094 731.246094 503.550781 763.433594 485.382812 767.457031 C 467.21875 771.488281 453.214844 742.496094 434.671875 744.113281 C 416.140625 745.738281 407.371094 776.714844 388.792969 775.910156 C 370.203125 775.089844 364.183594 743.464844 345.851562 740.238281 C 327.523438 737.003906 311.042969 764.667969 293.296875 759.078125 C 275.554688 753.480469 277.917969 721.378906 261.058594 713.507812 C 244.1875 705.652344 221.117188 728.097656 205.410156 718.101562 C 189.71875 708.113281 200.328125 677.707031 186.066406 665.75 C 171.808594 653.789062 143.710938 669.503906 131.136719 655.789062 C 123.183594 647.113281 127.503906 633.265625 129.054688 620.410156 L 73.988281 640.449219 Z M 288.511719 84.949219 C 306 78.585938 306.4375 46.402344 324.609375 42.371094 C 342.773438 38.34375 356.78125 67.335938 375.316406 65.710938 C 393.847656 64.09375 402.617188 33.113281 421.207031 33.921875 C 439.792969 34.738281 445.816406 66.363281 464.140625 69.589844 C 482.464844 72.824219 498.949219 45.160156 516.691406 50.753906 C 534.433594 56.351562 532.070312 88.453125 548.929688 96.320312 C 565.804688 104.179688 588.875 81.726562 604.578125 91.726562 C 620.273438 101.71875 609.667969 132.125 623.921875 144.082031 C 638.179688 156.035156 666.285156 140.328125 678.855469 154.042969 C 686.804688 162.71875 682.484375 176.558594 680.933594 189.417969 L 736 169.378906 L 743.675781 190.460938 L 7.675781 458.273438 L 0 437.191406 L 55.066406 417.15625 C 45.613281 408.300781 33.402344 400.472656 33.914062 388.71875 C 34.734375 370.136719 66.359375 364.109375 69.589844 345.792969 C 72.828125 327.472656 45.148438 310.996094 50.746094 293.253906 C 56.351562 275.503906 88.457031 277.875 96.324219 261.011719 C 104.183594 244.15625 81.730469 221.082031 91.726562 205.390625 C 101.722656 189.699219 132.132812 200.300781 144.097656 186.046875 C 156.0625 171.796875 140.335938 143.699219 154.054688 131.128906 C 167.773438 118.566406 194.40625 136.660156 209.644531 125.992188 C 224.894531 115.320312 216.976562 84.113281 233.484375 75.523438 C 249.992188 66.941406 271.027344 91.3125 288.511719 84.949219 Z M 288.511719 84.949219 "/><path style=" stroke:none;fill-rule:nonzero;fill:#d10000;fill-opacity:1;" d="M 730.644531 343.09375 L 791.21875 321.050781 L 783.464844 299.746094 L 748.96875 312.292969 L 741.71875 292.390625 L 772.851562 281.0625 L 765.394531 260.59375 L 734.265625 271.917969 L 728.035156 254.816406 L 761.273438 242.722656 L 753.515625 221.417969 L 694.203125 243 Z M 671.984375 291.886719 L 697.230469 282.703125 L 694.933594 276.398438 C 687.890625 257.054688 674.558594 247.933594 651.003906 256.503906 C 623.949219 266.351562 620.253906 283.253906 634.183594 321.523438 C 647.757812 358.8125 659.566406 371.183594 688.867188 360.519531 C 705.5625 354.445312 719.515625 341.75 709.308594 313.710938 L 706.605469 306.289062 L 681.367188 315.46875 C 688.257812 334.390625 688.890625 340.511719 682.441406 342.855469 C 674.453125 345.761719 670.953125 338.78125 661.105469 311.730469 C 651.257812 284.671875 649.445312 277.078125 657.433594 274.171875 C 662.484375 272.335938 665.8125 274.933594 669.945312 286.289062 Z M 572.339844 400.699219 L 596.742188 391.820312 L 574.234375 330.003906 L 574.511719 329.898438 L 614.40625 385.394531 L 643.019531 374.984375 L 606.578125 274.894531 L 582.175781 283.769531 L 604.632812 345.453125 L 604.359375 345.554688 L 565.074219 289.996094 L 535.902344 300.609375 Z M 520.957031 377.324219 L 506.375 382.625 L 498.0625 337.546875 L 498.339844 337.445312 Z M 486.378906 431.976562 L 514.15625 421.871094 L 510.4375 403.378906 L 531.1875 395.828125 L 540.230469 412.382812 L 567.992188 402.285156 L 507.15625 311.066406 L 474.339844 323.003906 Z M 456.945312 442.6875 L 483.023438 433.199219 L 446.582031 333.109375 L 420.503906 342.597656 Z M 393.007812 465.953125 L 451.195312 444.777344 L 443.441406 423.472656 L 411.320312 435.164062 L 382.640625 356.378906 L 356.570312 365.867188 Z M 313.207031 402.917969 L 318.105469 401.136719 C 324.703125 398.738281 329.640625 401.382812 332.648438 409.65625 C 335.710938 418.066406 333.582031 423.128906 326.988281 425.527344 L 322.085938 427.308594 Z M 316.730469 493.707031 L 342.808594 484.21875 L 328.925781 446.085938 L 338.035156 442.773438 C 359.207031 435.066406 366.96875 420.175781 359.519531 399.710938 C 353.140625 382.1875 339.3125 372.140625 319.410156 379.382812 L 280.289062 393.621094 Z M 210.441406 532.386719 L 234.839844 523.511719 L 207.6875 448.929688 L 207.964844 448.824219 L 248.996094 518.355469 L 267.78125 511.519531 L 254.507812 431.890625 L 254.785156 431.785156 L 281.9375 506.367188 L 306.339844 497.488281 L 269.898438 397.402344 L 232.605469 410.96875 L 243.679688 474.097656 L 243.402344 474.199219 L 211.300781 418.730469 L 174 432.304688 Z M 139.207031 501.628906 C 129.359375 474.570312 127.546875 466.976562 135.546875 464.066406 C 143.53125 461.160156 147.03125 468.144531 156.878906 495.195312 C 166.726562 522.253906 168.539062 529.847656 160.554688 532.75 C 152.5625 535.667969 149.0625 528.6875 139.207031 501.628906 Z M 112.292969 511.421875 C 125.917969 548.851562 140.34375 560.109375 166.980469 550.414062 C 193.625 540.71875 197.425781 522.832031 183.796875 485.402344 C 170.171875 447.972656 155.753906 436.707031 129.109375 446.398438 C 102.476562 456.101562 98.667969 473.992188 112.292969 511.421875 Z M 74.800781 509.191406 L 100.042969 500.003906 L 97.75 493.695312 C 90.703125 474.351562 77.378906 465.230469 53.820312 473.804688 C 26.753906 483.648438 23.070312 500.550781 37 538.820312 C 50.574219 576.113281 62.382812 588.480469 91.683594 577.816406 C 108.371094 571.746094 122.324219 559.046875 112.117188 531.015625 L 109.414062 523.589844 L 84.175781 532.773438 C 91.066406 551.691406 91.703125 557.816406 85.253906 560.160156 C 77.269531 563.066406 73.769531 556.085938 63.921875 529.03125 C 54.074219 501.972656 52.261719 494.382812 60.25 491.472656 C 65.292969 489.636719 68.625 492.234375 72.761719 503.589844 Z M 74.800781 509.191406 "/></g></svg>