<svg xmlns="http://www.w3.org/2000/svg" xmlns:xlink="http://www.w3.org/1999/xlink" width="1080" zoomAndPan="magnify" viewBox="0 0 810 809.999993" height="1080" preserveAspectRatio="xMidYMid meet" version="1.2"><g id="0cd89b8593"><path style=" stroke:none;fill-rule:nonzero;fill:#7dcedc;fill-opacity:1;" d="M 751.148438 416.867188 C 751.148438 618.023438 588.515625 780.59375 387.28125 780.59375 C 186.046875 780.59375 23.414062 618.023438 23.414062 416.867188 C 23.414062 336.53125 49.359375 261.890625 93.65625 201.796875 C 160.101562 111.972656 266.414062 53.144531 387.28125 53.144531 C 507.515625 53.144531 614.460938 111.339844 680.90625 201.796875 C 725.203125 261.890625 751.148438 335.898438 751.148438 416.867188 Z M 751.148438 416.867188 "/><path style=" stroke:none;fill-rule:nonzero;fill:#474f59;fill-opacity:1;" d="M 327.164062 29.105469 L 649.898438 29.105469 L 649.898438 454.191406 L 327.164062 454.191406 Z M 327.164062 29.105469 "/><path style=" stroke:none;fill-rule:nonzero;fill:#f37c5a;fill-opacity:1;" d="M 327.164062 29.105469 L 649.898438 29.105469 L 649.898438 58.203125 L 327.164062 58.203125 Z M 327.164062 29.105469 "/><path style=" stroke:none;fill-rule:nonzero;fill:#dad9d8;fill-opacity:1;" d="M 458.15625 86.667969 L 353.109375 86.667969 C 352.476562 86.667969 351.210938 86.035156 351.210938 84.769531 C 351.210938 84.140625 351.84375 82.875 353.109375 82.875 L 457.523438 82.875 C 458.15625 82.875 459.421875 83.507812 459.421875 84.769531 C 460.054688 86.035156 458.789062 86.667969 458.15625 86.667969 Z M 458.15625 86.667969 "/><path style=" stroke:none;fill-rule:nonzero;fill:#fdda7f;fill-opacity:1;" d="M 527.132812 86.667969 L 469.546875 86.667969 C 468.914062 86.667969 467.648438 86.035156 467.648438 84.769531 C 467.648438 84.140625 468.28125 82.875 469.546875 82.875 L 527.132812 82.875 C 527.765625 82.875 529.03125 83.507812 529.03125 84.769531 C 529.03125 86.035156 527.765625 86.667969 527.132812 86.667969 Z M 527.132812 86.667969 "/><path style=" stroke:none;fill-rule:nonzero;fill:#f37c5a;fill-opacity:1;" d="M 423.351562 106.277344 L 353.109375 106.277344 C 352.476562 106.277344 351.210938 105.644531 351.210938 104.382812 C 351.210938 103.117188 351.84375 102.484375 353.109375 102.484375 L 423.351562 102.484375 C 423.984375 102.484375 425.25 103.117188 425.25 104.382812 C 425.25 105.644531 424.617188 106.277344 423.351562 106.277344 Z M 423.351562 106.277344 "/><path style=" stroke:none;fill-rule:nonzero;fill:#ffffff;fill-opacity:1;" d="M 504.351562 106.277344 L 434.109375 106.277344 C 433.476562 106.277344 432.210938 105.644531 432.210938 104.382812 C 432.210938 103.117188 432.84375 102.484375 434.109375 102.484375 L 504.351562 102.484375 C 504.984375 102.484375 506.25 103.117188 506.25 104.382812 C 506.25 105.644531 505.617188 106.277344 504.351562 106.277344 Z M 504.351562 106.277344 "/><path style=" stroke:none;fill-rule:nonzero;fill:#fdda7f;fill-opacity:1;" d="M 479.039062 125.253906 L 353.109375 125.253906 C 352.476562 125.253906 351.210938 124.625 351.210938 123.359375 C 351.210938 122.09375 351.84375 121.460938 353.109375 121.460938 L 479.039062 121.460938 C 479.671875 121.460938 480.9375 122.09375 480.9375 123.359375 C 480.9375 124.625 479.671875 125.253906 479.039062 125.253906 Z M 479.039062 125.253906 "/><path style=" stroke:none;fill-rule:nonzero;fill:#7dcedc;fill-opacity:1;" d="M 624.585938 125.253906 L 491.695312 125.253906 C 491.0625 125.253906 489.796875 124.625 489.796875 123.359375 C 489.796875 122.09375 490.429688 121.460938 491.695312 121.460938 L 624.585938 121.460938 C 625.21875 121.460938 626.484375 122.09375 626.484375 123.359375 C 626.484375 124.625 625.21875 125.253906 624.585938 125.253906 Z M 624.585938 125.253906 "/><path style=" stroke:none;fill-rule:nonzero;fill:#f37c5a;fill-opacity:1;" d="M 392.34375 144.863281 L 353.109375 144.863281 C 352.476562 144.863281 351.210938 144.234375 351.210938 142.96875 C 351.210938 142.335938 351.84375 141.070312 353.109375 141.070312 L 392.34375 141.070312 C 392.976562 141.070312 394.242188 141.703125 394.242188 142.96875 C 394.242188 144.234375 392.976562 144.863281 392.34375 144.863281 Z M 392.34375 144.863281 "/><path style=" stroke:none;fill-rule:nonzero;fill:#25313b;fill-opacity:1;" d="M 442.96875 144.863281 L 403.734375 144.863281 C 403.101562 144.863281 401.835938 144.234375 401.835938 142.96875 C 401.835938 142.335938 402.46875 141.070312 403.734375 141.070312 L 442.96875 141.070312 C 443.601562 141.070312 444.867188 141.703125 444.867188 142.96875 C 444.867188 144.234375 444.234375 144.863281 442.96875 144.863281 Z M 442.96875 144.863281 "/><path style=" stroke:none;fill-rule:nonzero;fill:#f37c5a;fill-opacity:1;" d="M 493.59375 144.863281 L 454.359375 144.863281 C 453.726562 144.863281 452.460938 144.234375 452.460938 142.96875 C 452.460938 142.335938 453.09375 141.070312 454.359375 141.070312 L 493.59375 141.070312 C 494.226562 141.070312 495.492188 141.703125 495.492188 142.96875 C 495.492188 144.234375 494.859375 144.863281 493.59375 144.863281 Z M 493.59375 144.863281 "/><path style=" stroke:none;fill-rule:nonzero;fill:#25313b;fill-opacity:1;" d="M 544.21875 144.863281 L 504.984375 144.863281 C 504.351562 144.863281 503.085938 144.234375 503.085938 142.96875 C 503.085938 142.335938 503.71875 141.070312 504.984375 141.070312 L 544.21875 141.070312 C 544.851562 141.070312 546.117188 141.703125 546.117188 142.96875 C 546.117188 144.234375 545.484375 144.863281 544.21875 144.863281 Z M 544.21875 144.863281 "/><path style=" stroke:none;fill-rule:nonzero;fill:#ffffff;fill-opacity:1;" d="M 424.617188 164.476562 L 353.109375 164.476562 C 352.476562 164.476562 351.210938 163.84375 351.210938 162.578125 C 351.210938 161.945312 351.84375 160.679688 353.109375 160.679688 L 424.617188 160.679688 C 425.25 160.679688 426.515625 161.3125 426.515625 162.578125 C 426.515625 163.210938 425.882812 164.476562 424.617188 164.476562 Z M 424.617188 164.476562 "/><path style=" stroke:none;fill-rule:nonzero;fill:#7dcedc;fill-opacity:1;" d="M 532.828125 164.476562 L 433.476562 164.476562 C 432.84375 164.476562 431.578125 163.84375 431.578125 162.578125 C 431.578125 161.945312 432.210938 160.679688 433.476562 160.679688 L 532.828125 160.679688 C 533.460938 160.679688 534.726562 161.3125 534.726562 162.578125 C 534.726562 163.210938 534.09375 164.476562 532.828125 164.476562 Z M 532.828125 164.476562 "/><path style=" stroke:none;fill-rule:nonzero;fill:#ffffff;fill-opacity:1;" d="M 563.835938 183.453125 L 353.109375 183.453125 C 352.476562 183.453125 351.210938 182.820312 351.210938 181.554688 C 351.210938 180.289062 351.84375 179.65625 353.109375 179.65625 L 563.835938 179.65625 C 564.46875 179.65625 565.734375 180.289062 565.734375 181.554688 C 565.734375 182.820312 565.101562 183.453125 563.835938 183.453125 Z M 563.835938 183.453125 "/><path style=" stroke:none;fill-rule:nonzero;fill:#f6bb53;fill-opacity:1;" d="M 479.039062 203.0625 L 353.109375 203.0625 C 352.476562 203.0625 351.210938 202.429688 351.210938 201.164062 C 351.210938 199.898438 351.84375 199.265625 353.109375 199.265625 L 479.039062 199.265625 C 479.671875 199.265625 480.9375 199.898438 480.9375 201.164062 C 480.9375 202.429688 479.671875 203.0625 479.039062 203.0625 Z M 479.039062 203.0625 "/><path style=" stroke:none;fill-rule:nonzero;fill:#f37c5a;fill-opacity:1;" d="M 580.289062 203.0625 L 491.0625 203.0625 C 490.429688 203.0625 489.164062 202.429688 489.164062 201.164062 C 489.164062 199.898438 489.796875 199.265625 491.0625 199.265625 L 580.289062 199.265625 C 580.921875 199.265625 582.1875 199.898438 582.1875 201.164062 C 582.1875 202.429688 581.554688 203.0625 580.289062 203.0625 Z M 580.289062 203.0625 "/><path style=" stroke:none;fill-rule:nonzero;fill:#f3f3f3;fill-opacity:1;" d="M 432.210938 222.671875 L 353.109375 222.671875 C 352.476562 222.671875 351.210938 222.039062 351.210938 220.773438 C 351.210938 220.140625 351.84375 218.875 353.109375 218.875 L 432.210938 218.875 C 432.84375 218.875 434.109375 219.507812 434.109375 220.773438 C 434.109375 221.40625 433.476562 222.671875 432.210938 222.671875 Z M 432.210938 222.671875 "/><path style=" stroke:none;fill-rule:nonzero;fill:#25313b;fill-opacity:1;" d="M 460.054688 222.671875 L 439.804688 222.671875 C 439.171875 222.671875 437.90625 222.039062 437.90625 220.773438 C 437.90625 220.140625 438.539062 218.875 439.804688 218.875 L 460.054688 218.875 C 460.6875 218.875 461.953125 219.507812 461.953125 220.773438 C 461.953125 221.40625 460.6875 222.671875 460.054688 222.671875 Z M 460.054688 222.671875 "/><path style=" stroke:none;fill-rule:nonzero;fill:#25313b;fill-opacity:1;" d="M 489.164062 222.671875 L 468.914062 222.671875 C 468.28125 222.671875 467.015625 222.039062 467.015625 220.773438 C 467.015625 220.140625 467.648438 218.875 468.914062 218.875 L 489.164062 218.875 C 489.796875 218.875 491.0625 219.507812 491.0625 220.773438 C 491.0625 221.40625 490.429688 222.671875 489.164062 222.671875 Z M 489.164062 222.671875 "/><path style=" stroke:none;fill-rule:nonzero;fill:#f3f3f3;fill-opacity:1;" d="M 561.9375 222.671875 L 498.023438 222.671875 C 497.390625 222.671875 496.125 222.039062 496.125 220.773438 C 496.125 220.140625 496.757812 218.875 498.023438 218.875 L 561.9375 218.875 C 562.570312 218.875 563.835938 219.507812 563.835938 220.773438 C 563.835938 221.40625 563.203125 222.671875 561.9375 222.671875 Z M 561.9375 222.671875 "/><path style=" stroke:none;fill-rule:nonzero;fill:#7dcedc;fill-opacity:1;" d="M 384.75 241.648438 L 353.109375 241.648438 C 352.476562 241.648438 351.210938 241.015625 351.210938 239.75 C 351.210938 238.484375 351.84375 237.851562 353.109375 237.851562 L 384.75 237.851562 C 385.382812 237.851562 386.648438 238.484375 386.648438 239.75 C 386.648438 241.015625 385.382812 241.648438 384.75 241.648438 Z M 384.75 241.648438 "/><path style=" stroke:none;fill-rule:nonzero;fill:#ffffff;fill-opacity:1;" d="M 609.398438 241.648438 L 394.875 241.648438 C 394.242188 241.648438 392.976562 241.015625 392.976562 239.75 C 392.976562 238.484375 393.609375 237.851562 394.875 237.851562 L 609.398438 237.851562 C 610.03125 237.851562 611.296875 238.484375 611.296875 239.75 C 611.296875 241.015625 610.03125 241.648438 609.398438 241.648438 Z M 609.398438 241.648438 "/><path style=" stroke:none;fill-rule:nonzero;fill:#f37c5a;fill-opacity:1;" d="M 439.804688 261.257812 L 353.109375 261.257812 C 352.476562 261.257812 351.210938 260.625 351.210938 259.359375 C 351.210938 258.09375 351.84375 257.460938 353.109375 257.460938 L 439.171875 257.460938 C 439.804688 257.460938 441.070312 258.09375 441.070312 259.359375 C 441.070312 260.625 440.4375 261.257812 439.804688 261.257812 Z M 439.804688 261.257812 "/><path style=" stroke:none;fill-rule:nonzero;fill:#f37c5a;fill-opacity:1;" d="M 580.289062 261.257812 L 450.5625 261.257812 C 449.929688 261.257812 448.664062 260.625 448.664062 259.359375 C 448.664062 258.09375 449.296875 257.460938 450.5625 257.460938 L 580.289062 257.460938 C 580.921875 257.460938 582.1875 258.09375 582.1875 259.359375 C 582.1875 260.625 581.554688 261.257812 580.289062 261.257812 Z M 580.289062 261.257812 "/><path style=" stroke:none;fill-rule:nonzero;fill:#fdda7f;fill-opacity:1;" d="M 810 339.0625 L 810 310.597656 L 783.421875 306.800781 C 782.15625 301.109375 780.890625 294.785156 778.992188 289.089844 L 800.507812 272.644531 L 785.953125 247.972656 L 760.640625 258.09375 C 756.84375 253.667969 752.414062 249.238281 747.984375 245.441406 L 758.109375 220.140625 L 733.429688 205.589844 L 716.976562 227.097656 C 711.28125 225.199219 705.585938 223.304688 699.257812 222.671875 L 695.460938 195.46875 L 666.984375 195.46875 L 663.1875 222.671875 C 656.859375 223.9375 651.164062 225.199219 645.46875 227.097656 L 629.015625 205.589844 L 604.335938 220.140625 L 614.460938 245.441406 C 610.03125 249.238281 605.601562 253.667969 601.804688 258.09375 L 576.492188 247.972656 L 561.9375 272.644531 L 583.453125 289.089844 C 581.554688 294.785156 579.65625 300.476562 579.023438 306.800781 L 551.8125 310.597656 L 551.8125 339.0625 L 579.023438 342.859375 C 580.289062 348.550781 581.554688 354.878906 583.453125 360.570312 L 561.9375 377.648438 L 576.492188 402.320312 L 601.804688 392.199219 C 605.601562 396.625 610.03125 401.054688 614.460938 404.851562 L 604.335938 430.152344 L 629.015625 444.703125 L 645.46875 423.195312 C 651.164062 425.09375 656.859375 426.988281 663.1875 427.621094 L 666.984375 454.824219 L 695.460938 454.824219 L 699.257812 427.621094 C 704.953125 426.355469 711.28125 425.09375 716.976562 423.195312 L 733.429688 444.703125 L 758.109375 430.152344 L 747.984375 404.851562 C 752.414062 401.054688 756.84375 396.625 760.640625 392.199219 L 785.953125 402.320312 L 800.507812 377.648438 L 778.359375 360.570312 C 780.257812 354.878906 782.15625 349.183594 782.789062 342.859375 Z M 680.273438 382.078125 C 648.632812 382.078125 623.320312 356.773438 623.320312 325.148438 C 623.320312 293.519531 648.632812 268.214844 680.273438 268.214844 C 711.914062 268.214844 737.226562 293.519531 737.226562 325.148438 C 737.226562 356.773438 711.914062 382.078125 680.273438 382.078125 Z M 680.273438 382.078125 "/><path style=" stroke:none;fill-rule:nonzero;fill:#25313b;fill-opacity:1;" d="M 681.539062 294.785156 L 93.65625 294.785156 C 82.265625 294.785156 72.773438 304.273438 72.773438 315.65625 L 72.773438 711.011719 C 72.773438 718.601562 79.101562 724.929688 86.695312 724.929688 L 689.132812 724.929688 C 696.726562 724.929688 703.054688 718.601562 703.054688 711.011719 L 703.054688 316.289062 C 702.421875 304.273438 692.929688 294.785156 681.539062 294.785156 Z M 681.539062 294.785156 "/><path style=" stroke:none;fill-rule:nonzero;fill:#ffffff;fill-opacity:1;" d="M 89.226562 321.351562 L 685.335938 321.351562 L 685.335938 692.667969 L 89.226562 692.667969 Z M 89.226562 321.351562 "/><path style=" stroke:none;fill-rule:nonzero;fill:#f3f3f3;fill-opacity:1;" d="M 0 717.96875 L 775.195312 717.96875 L 775.195312 733.152344 L 0 733.152344 Z M 0 717.96875 "/><path style=" stroke:none;fill-rule:nonzero;fill:#dad9d8;fill-opacity:1;" d="M 0 733.152344 C 8.859375 739.476562 19.617188 742.640625 30.375 742.640625 L 744.1875 742.640625 C 754.945312 742.640625 765.703125 739.476562 774.5625 733.152344 Z M 0 733.152344 "/><path style=" stroke:none;fill-rule:nonzero;fill:#ffffff;fill-opacity:1;" d="M 334.125 717.96875 C 334.125 723.664062 338.554688 728.089844 344.25 728.089844 L 430.945312 728.089844 C 436.640625 728.089844 441.070312 723.664062 441.070312 717.96875 Z M 334.125 717.96875 "/><path style=" stroke:none;fill-rule:nonzero;fill:#f37c5a;fill-opacity:1;" d="M 546.75 343.492188 L 228.445312 343.492188 C 225.914062 343.492188 224.015625 345.390625 224.015625 347.917969 L 224.015625 488.347656 C 224.015625 490.878906 225.914062 492.777344 228.445312 492.777344 C 230.976562 492.777344 232.875 490.878906 232.875 488.347656 L 232.875 352.347656 L 329.695312 352.347656 L 329.695312 378.28125 L 296.789062 378.28125 C 294.257812 378.28125 292.359375 380.179688 292.359375 382.710938 C 292.359375 385.242188 294.257812 387.136719 296.789062 387.136719 L 370.828125 387.136719 C 373.359375 387.136719 375.257812 385.242188 375.257812 382.710938 C 375.257812 380.179688 373.359375 378.28125 370.828125 378.28125 L 337.921875 378.28125 L 337.921875 352.347656 L 436.640625 352.347656 L 436.640625 378.28125 L 403.734375 378.28125 C 401.203125 378.28125 399.304688 380.179688 399.304688 382.710938 C 399.304688 385.242188 401.203125 387.136719 403.734375 387.136719 L 477.773438 387.136719 C 480.304688 387.136719 482.203125 385.242188 482.203125 382.710938 C 482.203125 380.179688 480.304688 378.28125 477.773438 378.28125 L 444.867188 378.28125 L 444.867188 352.347656 L 541.6875 352.347656 L 541.6875 488.347656 C 541.6875 490.878906 543.585938 492.777344 546.117188 492.777344 C 548.648438 492.777344 550.546875 490.878906 550.546875 488.347656 L 550.546875 347.917969 C 551.179688 345.390625 549.28125 343.492188 546.75 343.492188 Z M 546.75 343.492188 "/><path style=" stroke:none;fill-rule:nonzero;fill:#f37c5a;fill-opacity:1;" d="M 263.25 376.382812 C 260.71875 376.382812 258.820312 378.28125 258.820312 380.8125 L 258.820312 453.558594 C 258.820312 456.085938 260.71875 457.984375 263.25 457.984375 L 294.890625 457.984375 L 294.890625 491.511719 C 294.890625 494.042969 296.789062 495.941406 299.320312 495.941406 C 301.851562 495.941406 303.75 494.042969 303.75 491.511719 L 303.75 457.984375 L 335.390625 457.984375 C 337.921875 457.984375 339.820312 456.085938 339.820312 453.558594 C 339.820312 451.027344 337.921875 449.128906 335.390625 449.128906 L 303.75 449.128906 L 303.75 416.867188 C 303.75 414.339844 301.851562 412.441406 299.320312 412.441406 C 296.789062 412.441406 294.890625 414.339844 294.890625 416.867188 L 294.890625 449.128906 L 267.046875 449.128906 L 267.046875 380.179688 C 267.679688 378.28125 265.78125 376.382812 263.25 376.382812 Z M 263.25 376.382812 "/><path style=" stroke:none;fill-rule:nonzero;fill:#f37c5a;fill-opacity:1;" d="M 475.875 412.441406 C 473.34375 412.441406 471.445312 414.339844 471.445312 416.867188 L 471.445312 449.128906 L 439.804688 449.128906 C 437.273438 449.128906 435.375 451.027344 435.375 453.558594 C 435.375 456.085938 437.273438 457.984375 439.804688 457.984375 L 471.445312 457.984375 L 471.445312 491.511719 C 471.445312 494.042969 473.34375 495.941406 475.875 495.941406 C 478.40625 495.941406 480.304688 494.042969 480.304688 491.511719 L 480.304688 457.984375 L 511.945312 457.984375 C 514.476562 457.984375 516.375 456.085938 516.375 453.558594 L 516.375 380.179688 C 516.375 377.648438 514.476562 375.75 511.945312 375.75 C 509.414062 375.75 507.515625 377.648438 507.515625 380.179688 L 507.515625 449.128906 L 479.671875 449.128906 L 479.671875 416.867188 C 479.671875 414.339844 477.773438 412.441406 475.875 412.441406 Z M 475.875 412.441406 "/><path style=" stroke:none;fill-rule:nonzero;fill:#f37c5a;fill-opacity:1;" d="M 443.601562 413.707031 L 331.59375 413.707031 C 329.0625 413.707031 327.164062 415.605469 327.164062 418.132812 C 327.164062 420.664062 329.0625 422.5625 331.59375 422.5625 L 442.96875 422.5625 C 445.5 422.5625 447.398438 420.664062 447.398438 418.132812 C 447.398438 415.605469 445.5 413.707031 443.601562 413.707031 Z M 443.601562 413.707031 "/><path style=" stroke:none;fill-rule:nonzero;fill:#f37c5a;fill-opacity:1;" d="M 546.75 521.875 C 544.21875 521.875 542.320312 523.773438 542.320312 526.300781 L 542.320312 662.304688 L 445.5 662.304688 L 445.5 636.371094 L 478.40625 636.371094 C 480.9375 636.371094 482.835938 634.472656 482.835938 631.941406 C 482.835938 629.410156 480.9375 627.511719 478.40625 627.511719 L 404.367188 627.511719 C 401.835938 627.511719 399.9375 629.410156 399.9375 631.941406 C 399.9375 634.472656 401.835938 636.371094 404.367188 636.371094 L 437.273438 636.371094 L 437.273438 662.304688 L 337.921875 662.304688 L 337.921875 636.371094 L 370.828125 636.371094 C 373.359375 636.371094 375.257812 634.472656 375.257812 631.941406 C 375.257812 629.410156 373.359375 627.511719 370.828125 627.511719 L 296.789062 627.511719 C 294.257812 627.511719 292.359375 629.410156 292.359375 631.941406 C 292.359375 634.472656 294.257812 636.371094 296.789062 636.371094 L 329.695312 636.371094 L 329.695312 662.304688 L 232.242188 662.304688 L 232.242188 526.300781 C 232.242188 523.773438 230.34375 521.875 227.8125 521.875 C 225.28125 521.875 223.382812 523.773438 223.382812 526.300781 L 223.382812 666.730469 C 223.382812 669.261719 225.28125 671.160156 227.8125 671.160156 L 546.75 671.160156 C 549.28125 671.160156 551.179688 669.261719 551.179688 666.730469 L 551.179688 526.300781 C 551.179688 523.773438 549.28125 521.875 546.75 521.875 Z M 546.75 521.875 "/><path style=" stroke:none;fill-rule:nonzero;fill:#f37c5a;fill-opacity:1;" d="M 511.945312 638.265625 C 514.476562 638.265625 516.375 636.371094 516.375 633.839844 L 516.375 561.09375 C 516.375 558.5625 514.476562 556.664062 511.945312 556.664062 L 480.304688 556.664062 L 480.304688 523.140625 C 480.304688 520.609375 478.40625 518.710938 475.875 518.710938 C 473.34375 518.710938 471.445312 520.609375 471.445312 523.140625 L 471.445312 556.664062 L 439.804688 556.664062 C 437.273438 556.664062 435.375 558.5625 435.375 561.09375 C 435.375 563.625 437.273438 565.523438 439.804688 565.523438 L 471.445312 565.523438 L 471.445312 597.78125 C 471.445312 600.3125 473.34375 602.210938 475.875 602.210938 C 478.40625 602.210938 480.304688 600.3125 480.304688 597.78125 L 480.304688 565.523438 L 508.148438 565.523438 L 508.148438 634.472656 C 507.515625 636.371094 509.414062 638.265625 511.945312 638.265625 Z M 511.945312 638.265625 "/><path style=" stroke:none;fill-rule:nonzero;fill:#f37c5a;fill-opacity:1;" d="M 258.820312 633.839844 C 258.820312 636.371094 260.71875 638.265625 263.25 638.265625 C 265.78125 638.265625 267.679688 636.371094 267.679688 633.839844 L 267.679688 564.890625 L 295.523438 564.890625 L 295.523438 597.148438 C 295.523438 599.679688 297.421875 601.578125 299.953125 601.578125 C 302.484375 601.578125 304.382812 599.679688 304.382812 597.148438 L 304.382812 564.890625 L 336.023438 564.890625 C 338.554688 564.890625 340.453125 562.992188 340.453125 560.460938 C 340.453125 557.929688 338.554688 556.035156 336.023438 556.035156 L 304.382812 556.035156 L 304.382812 522.507812 C 304.382812 519.976562 302.484375 518.078125 299.953125 518.078125 C 297.421875 518.078125 295.523438 519.976562 295.523438 522.507812 L 295.523438 556.664062 L 263.882812 556.664062 C 261.351562 556.664062 259.453125 558.5625 259.453125 561.09375 L 259.453125 633.839844 Z M 258.820312 633.839844 "/><path style=" stroke:none;fill-rule:nonzero;fill:#f37c5a;fill-opacity:1;" d="M 327.164062 596.519531 C 327.164062 599.046875 329.0625 600.945312 331.59375 600.945312 L 442.96875 600.945312 C 445.5 600.945312 447.398438 599.046875 447.398438 596.519531 C 447.398438 593.988281 445.5 592.089844 442.96875 592.089844 L 331.59375 592.089844 C 329.0625 592.089844 327.164062 593.988281 327.164062 596.519531 Z M 327.164062 596.519531 "/><path style=" stroke:none;fill-rule:nonzero;fill:#f37c5a;fill-opacity:1;" d="M 515.742188 487.714844 C 515.742188 485.1875 513.84375 483.289062 511.3125 483.289062 C 508.78125 483.289062 506.882812 485.1875 506.882812 487.714844 L 506.882812 526.300781 C 506.882812 528.832031 508.78125 530.730469 511.3125 530.730469 C 513.84375 530.730469 515.742188 528.832031 515.742188 526.300781 Z M 515.742188 487.714844 "/><path style=" stroke:none;fill-rule:nonzero;fill:#f37c5a;fill-opacity:1;" d="M 258.820312 526.300781 C 258.820312 528.832031 260.71875 530.730469 263.25 530.730469 C 265.78125 530.730469 267.679688 528.832031 267.679688 526.300781 L 267.679688 487.714844 C 267.679688 485.1875 265.78125 483.289062 263.25 483.289062 C 260.71875 483.289062 258.820312 485.1875 258.820312 487.714844 Z M 258.820312 526.300781 "/><path style=" stroke:none;fill-rule:nonzero;fill:#f37c5a;fill-opacity:1;" d="M 404.367188 518.710938 C 401.835938 518.710938 399.9375 520.609375 399.9375 523.140625 L 399.9375 561.09375 C 399.9375 563.625 401.835938 565.523438 404.367188 565.523438 C 406.898438 565.523438 408.796875 563.625 408.796875 561.09375 L 408.796875 527.566406 L 441.703125 527.566406 C 444.234375 527.566406 446.132812 525.671875 446.132812 523.140625 L 446.132812 488.347656 C 446.132812 485.820312 444.234375 483.921875 441.703125 483.921875 L 408.796875 483.921875 L 408.796875 453.558594 C 408.796875 451.027344 406.898438 449.128906 404.367188 449.128906 C 401.835938 449.128906 399.9375 451.027344 399.9375 453.558594 L 399.9375 488.347656 C 399.9375 490.878906 401.835938 492.777344 404.367188 492.777344 L 437.273438 492.777344 L 437.273438 518.710938 Z M 404.367188 518.710938 "/><path style=" stroke:none;fill-rule:nonzero;fill:#f37c5a;fill-opacity:1;" d="M 370.828125 564.890625 C 373.359375 564.890625 375.257812 562.992188 375.257812 560.460938 L 375.257812 522.507812 C 375.257812 519.976562 373.359375 518.078125 370.828125 518.078125 L 337.921875 518.078125 L 337.921875 491.511719 L 370.828125 491.511719 C 373.359375 491.511719 375.257812 489.613281 375.257812 487.082031 L 375.257812 452.292969 C 375.257812 449.761719 373.359375 447.863281 370.828125 447.863281 C 368.296875 447.863281 366.398438 449.761719 366.398438 452.292969 L 366.398438 482.65625 L 333.492188 482.65625 C 330.960938 482.65625 329.0625 484.554688 329.0625 487.082031 L 329.0625 521.875 C 329.0625 524.40625 330.960938 526.304688 333.492188 526.304688 L 366.398438 526.304688 L 366.398438 559.828125 C 366.398438 562.992188 368.296875 564.890625 370.828125 564.890625 Z M 370.828125 564.890625 "/><path style=" stroke:none;fill-rule:nonzero;fill:#ffffff;fill-opacity:1;" d="M 361.96875 43.65625 C 361.96875 44.320312 361.902344 44.976562 361.773438 45.628906 C 361.644531 46.28125 361.453125 46.914062 361.199219 47.527344 C 360.945312 48.140625 360.632812 48.726562 360.261719 49.277344 C 359.894531 49.832031 359.472656 50.339844 359.003906 50.8125 C 358.53125 51.28125 358.023438 51.699219 357.46875 52.070312 C 356.917969 52.4375 356.332031 52.75 355.71875 53.003906 C 355.105469 53.257812 354.472656 53.453125 353.820312 53.582031 C 353.167969 53.710938 352.507812 53.777344 351.84375 53.777344 C 351.179688 53.777344 350.519531 53.710938 349.867188 53.582031 C 349.214844 53.453125 348.582031 53.257812 347.96875 53.003906 C 347.355469 52.75 346.769531 52.4375 346.21875 52.070312 C 345.664062 51.699219 345.15625 51.28125 344.683594 50.8125 C 344.214844 50.339844 343.792969 49.832031 343.425781 49.277344 C 343.054688 48.726562 342.742188 48.140625 342.488281 47.527344 C 342.234375 46.914062 342.042969 46.28125 341.914062 45.628906 C 341.785156 44.976562 341.71875 44.320312 341.71875 43.65625 C 341.71875 42.988281 341.785156 42.332031 341.914062 41.679688 C 342.042969 41.027344 342.234375 40.394531 342.488281 39.78125 C 342.742188 39.167969 343.054688 38.585938 343.425781 38.03125 C 343.792969 37.480469 344.214844 36.96875 344.683594 36.496094 C 345.15625 36.027344 345.664062 35.609375 346.21875 35.238281 C 346.769531 34.871094 347.355469 34.558594 347.96875 34.304688 C 348.582031 34.050781 349.214844 33.859375 349.867188 33.726562 C 350.519531 33.597656 351.179688 33.535156 351.84375 33.535156 C 352.507812 33.535156 353.167969 33.597656 353.820312 33.726562 C 354.472656 33.859375 355.105469 34.050781 355.71875 34.304688 C 356.332031 34.558594 356.917969 34.871094 357.46875 35.238281 C 358.023438 35.609375 358.53125 36.027344 359.003906 36.496094 C 359.472656 36.96875 359.894531 37.480469 360.261719 38.03125 C 360.632812 38.585938 360.945312 39.167969 361.199219 39.78125 C 361.453125 40.394531 361.644531 41.027344 361.773438 41.679688 C 361.902344 42.332031 361.96875 42.988281 361.96875 43.65625 Z M 361.96875 43.65625 "/><path style=" stroke:none;fill-rule:nonzero;fill:#ffffff;fill-opacity:1;" d="M 391.078125 43.65625 C 391.078125 44.320312 391.011719 44.976562 390.882812 45.628906 C 390.753906 46.28125 390.5625 46.914062 390.308594 47.527344 C 390.054688 48.140625 389.742188 48.726562 389.371094 49.277344 C 389.003906 49.832031 388.582031 50.339844 388.113281 50.8125 C 387.640625 51.28125 387.132812 51.699219 386.578125 52.070312 C 386.027344 52.4375 385.441406 52.75 384.828125 53.003906 C 384.214844 53.257812 383.582031 53.453125 382.929688 53.582031 C 382.277344 53.710938 381.617188 53.777344 380.953125 53.777344 C 380.289062 53.777344 379.628906 53.710938 378.976562 53.582031 C 378.324219 53.453125 377.691406 53.257812 377.078125 53.003906 C 376.464844 52.75 375.878906 52.4375 375.328125 52.070312 C 374.773438 51.699219 374.265625 51.28125 373.792969 50.8125 C 373.324219 50.339844 372.902344 49.832031 372.535156 49.277344 C 372.164062 48.726562 371.851562 48.140625 371.597656 47.527344 C 371.34375 46.914062 371.152344 46.28125 371.023438 45.628906 C 370.894531 44.976562 370.828125 44.320312 370.828125 43.65625 C 370.828125 42.988281 370.894531 42.332031 371.023438 41.679688 C 371.152344 41.027344 371.34375 40.394531 371.597656 39.78125 C 371.851562 39.167969 372.164062 38.585938 372.535156 38.03125 C 372.902344 37.480469 373.324219 36.96875 373.792969 36.496094 C 374.265625 36.027344 374.773438 35.609375 375.328125 35.238281 C 375.878906 34.871094 376.464844 34.558594 377.078125 34.304688 C 377.691406 34.050781 378.324219 33.859375 378.976562 33.726562 C 379.628906 33.597656 380.289062 33.535156 380.953125 33.535156 C 381.617188 33.535156 382.277344 33.597656 382.929688 33.726562 C 383.582031 33.859375 384.214844 34.050781 384.828125 34.304688 C 385.441406 34.558594 386.027344 34.871094 386.578125 35.238281 C 387.132812 35.609375 387.640625 36.027344 388.113281 36.496094 C 388.582031 36.96875 389.003906 37.480469 389.371094 38.03125 C 389.742188 38.585938 390.054688 39.167969 390.308594 39.78125 C 390.5625 40.394531 390.753906 41.027344 390.882812 41.679688 C 391.011719 42.332031 391.078125 42.988281 391.078125 43.65625 Z M 391.078125 43.65625 "/><path style=" stroke:none;fill-rule:nonzero;fill:#ffffff;fill-opacity:1;" d="M 420.1875 43.65625 C 420.1875 44.320312 420.121094 44.976562 419.992188 45.628906 C 419.863281 46.28125 419.671875 46.914062 419.417969 47.527344 C 419.164062 48.140625 418.851562 48.726562 418.480469 49.277344 C 418.113281 49.832031 417.691406 50.339844 417.222656 50.8125 C 416.75 51.28125 416.242188 51.699219 415.6875 52.070312 C 415.136719 52.4375 414.550781 52.75 413.9375 53.003906 C 413.324219 53.257812 412.691406 53.453125 412.039062 53.582031 C 411.386719 53.710938 410.726562 53.777344 410.0625 53.777344 C 409.398438 53.777344 408.738281 53.710938 408.085938 53.582031 C 407.433594 53.453125 406.800781 53.257812 406.1875 53.003906 C 405.574219 52.75 404.988281 52.4375 404.4375 52.070312 C 403.882812 51.699219 403.375 51.28125 402.902344 50.8125 C 402.433594 50.339844 402.011719 49.832031 401.644531 49.277344 C 401.273438 48.726562 400.960938 48.140625 400.707031 47.527344 C 400.453125 46.914062 400.261719 46.28125 400.132812 45.628906 C 400.003906 44.976562 399.9375 44.320312 399.9375 43.65625 C 399.9375 42.988281 400.003906 42.332031 400.132812 41.679688 C 400.261719 41.027344 400.453125 40.394531 400.707031 39.78125 C 400.960938 39.167969 401.273438 38.585938 401.644531 38.03125 C 402.011719 37.480469 402.433594 36.96875 402.902344 36.496094 C 403.375 36.027344 403.882812 35.609375 404.4375 35.238281 C 404.988281 34.871094 405.574219 34.558594 406.1875 34.304688 C 406.800781 34.050781 407.433594 33.859375 408.085938 33.726562 C 408.738281 33.597656 409.398438 33.535156 410.0625 33.535156 C 410.726562 33.535156 411.386719 33.597656 412.039062 33.726562 C 412.691406 33.859375 413.324219 34.050781 413.9375 34.304688 C 414.550781 34.558594 415.136719 34.871094 415.6875 35.238281 C 416.242188 35.609375 416.75 36.027344 417.222656 36.496094 C 417.691406 36.96875 418.113281 37.480469 418.480469 38.03125 C 418.851562 38.585938 419.164062 39.167969 419.417969 39.78125 C 419.671875 40.394531 419.863281 41.027344 419.992188 41.679688 C 420.121094 42.332031 420.1875 42.988281 420.1875 43.65625 Z M 420.1875 43.65625 "/><path style=" stroke:none;fill-rule:nonzero;fill:#f6bb53;fill-opacity:1;" d="M 98.71875 127.785156 L 201.867188 127.785156 L 201.867188 185.980469 L 98.71875 185.980469 Z M 98.71875 127.785156 "/><path style=" stroke:none;fill-rule:nonzero;fill:#fdda7f;fill-opacity:1;" d="M 201.234375 127.785156 L 304.382812 127.785156 L 304.382812 185.980469 L 201.234375 185.980469 Z M 201.234375 127.785156 "/><path style=" stroke:none;fill-rule:nonzero;fill:#fdda7f;fill-opacity:1;" d="M 172.125 53.777344 L 201.234375 53.777344 L 201.234375 259.359375 L 172.125 259.359375 Z M 172.125 53.777344 "/><path style=" stroke:none;fill-rule:nonzero;fill:#f6bb53;fill-opacity:1;" d="M 201.234375 53.777344 L 230.34375 53.777344 L 230.34375 259.359375 L 201.234375 259.359375 Z M 201.234375 53.777344 "/><path style=" stroke:none;fill-rule:nonzero;fill:#474f59;fill-opacity:1;" d="M 201.234375 65.792969 L 183.515625 89.199219 L 218.953125 89.199219 Z M 201.234375 65.792969 "/><path style=" stroke:none;fill-rule:nonzero;fill:#474f59;fill-opacity:1;" d="M 201.234375 247.339844 L 218.953125 223.9375 L 183.515625 223.9375 Z M 201.234375 247.339844 "/><path style=" stroke:none;fill-rule:nonzero;fill:#474f59;fill-opacity:1;" d="M 291.726562 156.882812 L 268.3125 138.539062 L 268.3125 174.597656 Z M 291.726562 156.882812 "/><path style=" stroke:none;fill-rule:nonzero;fill:#474f59;fill-opacity:1;" d="M 110.742188 156.882812 L 134.15625 174.597656 L 134.15625 138.539062 Z M 110.742188 156.882812 "/></g></svg>