<svg xmlns="http://www.w3.org/2000/svg" xmlns:xlink="http://www.w3.org/1999/xlink" width="1080" zoomAndPan="magnify" viewBox="0 0 810 809.999993" height="1080" preserveAspectRatio="xMidYMid meet" version="1.2"><defs><clipPath id="0be2bbde0a"><path d="M 0 7.59375 L 810 7.59375 L 810 802.59375 L 0 802.59375 Z M 0 7.59375 "/></clipPath></defs><g id="f5e2a119cf"><path style=" stroke:none;fill-rule:nonzero;fill:#000000;fill-opacity:1;" d="M 386.527344 720.695312 C 386.527344 718.199219 384.53125 715.703125 381.535156 715.703125 L 262.710938 715.703125 C 260.214844 715.703125 257.71875 717.699219 257.71875 720.695312 C 257.71875 723.195312 259.71875 725.691406 262.710938 725.691406 L 381.535156 725.691406 C 384.03125 725.691406 386.527344 723.195312 386.527344 720.695312 Z M 386.527344 720.695312 "/><path style=" stroke:none;fill-rule:nonzero;fill:#000000;fill-opacity:1;" d="M 424.96875 720.695312 C 424.96875 718.199219 422.972656 715.703125 419.976562 715.703125 L 400.507812 715.703125 C 398.011719 715.703125 395.515625 717.699219 395.515625 720.695312 C 395.515625 723.195312 397.511719 725.691406 400.507812 725.691406 L 419.976562 725.691406 C 422.972656 725.691406 424.96875 723.195312 424.96875 720.695312 Z M 424.96875 720.695312 "/><path style=" stroke:none;fill-rule:nonzero;fill:#000000;fill-opacity:1;" d="M 436.953125 725.691406 L 449.933594 725.691406 C 452.429688 725.691406 454.925781 723.691406 454.925781 720.695312 C 454.925781 718.199219 452.929688 715.703125 449.933594 715.703125 L 436.953125 715.703125 C 434.457031 715.703125 431.960938 717.699219 431.960938 720.695312 C 431.960938 723.195312 433.957031 725.691406 436.953125 725.691406 Z M 436.953125 725.691406 "/><path style=" stroke:none;fill-rule:nonzero;fill:#000000;fill-opacity:1;" d="M 532.808594 739.671875 L 413.988281 739.671875 C 411.492188 739.671875 408.992188 741.671875 408.992188 744.667969 C 408.992188 747.164062 410.992188 749.660156 413.988281 749.660156 L 532.808594 749.660156 C 535.304688 749.660156 537.800781 747.664062 537.800781 744.667969 C 537.800781 742.167969 535.304688 739.671875 532.808594 739.671875 Z M 532.808594 739.671875 "/><path style=" stroke:none;fill-rule:nonzero;fill:#000000;fill-opacity:1;" d="M 395.015625 739.671875 L 375.542969 739.671875 C 373.046875 739.671875 370.550781 741.671875 370.550781 744.667969 C 370.550781 747.164062 372.546875 749.660156 375.542969 749.660156 L 395.015625 749.660156 C 397.511719 749.660156 400.007812 747.664062 400.007812 744.667969 C 400.007812 742.167969 397.511719 739.671875 395.015625 739.671875 Z M 395.015625 739.671875 "/><path style=" stroke:none;fill-rule:nonzero;fill:#000000;fill-opacity:1;" d="M 358.570312 739.671875 L 345.589844 739.671875 C 343.09375 739.671875 340.597656 741.671875 340.597656 744.667969 C 340.597656 747.164062 342.59375 749.660156 345.589844 749.660156 L 358.570312 749.660156 C 361.066406 749.660156 363.5625 747.664062 363.5625 744.667969 C 363.5625 742.167969 361.566406 739.671875 358.570312 739.671875 Z M 358.570312 739.671875 "/><path style=" stroke:none;fill-rule:nonzero;fill:#000000;fill-opacity:1;" d="M 202.800781 492.984375 C 202.800781 455.53125 172.347656 425.070312 134.902344 425.070312 C 97.460938 425.070312 67.003906 455.03125 67.003906 492.984375 C 67.003906 530.4375 97.460938 560.898438 134.902344 560.898438 C 172.347656 560.898438 202.800781 530.4375 202.800781 492.984375 Z M 134.902344 550.910156 C 102.953125 550.910156 76.492188 524.941406 76.492188 492.484375 C 76.492188 460.523438 102.453125 434.058594 134.902344 434.058594 C 167.355469 434.058594 193.316406 460.023438 193.316406 492.484375 C 192.816406 524.941406 166.855469 550.910156 134.902344 550.910156 Z M 134.902344 550.910156 "/><path style=" stroke:none;fill-rule:nonzero;fill:#000000;fill-opacity:1;" d="M 134.902344 481 C 144.886719 481 152.875 473.007812 152.875 463.019531 C 152.875 453.035156 144.886719 445.042969 134.902344 445.042969 C 124.917969 445.042969 116.929688 453.035156 116.929688 463.019531 C 116.929688 473.007812 124.917969 481 134.902344 481 Z M 134.902344 455.03125 C 139.398438 455.03125 142.890625 458.527344 142.890625 463.019531 C 142.890625 467.515625 139.398438 471.011719 134.902344 471.011719 C 130.410156 471.011719 126.914062 467.515625 126.914062 463.019531 C 126.914062 459.027344 130.410156 455.03125 134.902344 455.03125 Z M 134.902344 455.03125 "/><path style=" stroke:none;fill-rule:nonzero;fill:#000000;fill-opacity:1;" d="M 134.902344 504.46875 C 124.917969 504.46875 116.929688 512.457031 116.929688 522.445312 C 116.929688 532.433594 124.917969 540.421875 134.902344 540.421875 C 144.886719 540.421875 152.875 532.433594 152.875 522.445312 C 152.875 512.457031 144.390625 504.46875 134.902344 504.46875 Z M 134.902344 530.4375 C 130.410156 530.4375 126.914062 526.941406 126.914062 522.445312 C 126.914062 517.953125 130.410156 514.457031 134.902344 514.457031 C 139.398438 514.457031 142.890625 517.953125 142.890625 522.445312 C 142.890625 526.441406 139.398438 530.4375 134.902344 530.4375 Z M 134.902344 530.4375 "/><path style=" stroke:none;fill-rule:nonzero;fill:#000000;fill-opacity:1;" d="M 164.359375 475.003906 C 154.375 475.003906 146.386719 482.996094 146.386719 492.984375 C 146.386719 502.96875 154.375 510.960938 164.359375 510.960938 C 174.34375 510.960938 182.332031 502.96875 182.332031 492.984375 C 182.332031 482.996094 173.84375 475.003906 164.359375 475.003906 Z M 164.359375 500.972656 C 159.867188 500.972656 156.371094 497.476562 156.371094 492.984375 C 156.371094 488.488281 159.867188 484.992188 164.359375 484.992188 C 168.851562 484.992188 172.347656 488.488281 172.347656 492.984375 C 172.347656 496.976562 168.851562 500.972656 164.359375 500.972656 Z M 164.359375 500.972656 "/><path style=" stroke:none;fill-rule:nonzero;fill:#000000;fill-opacity:1;" d="M 122.921875 492.984375 C 122.921875 482.996094 114.933594 475.003906 104.949219 475.003906 C 94.964844 475.003906 86.976562 482.996094 86.976562 492.984375 C 86.976562 502.96875 94.964844 510.960938 104.949219 510.960938 C 114.933594 510.960938 122.921875 502.472656 122.921875 492.984375 Z M 105.449219 500.972656 C 100.953125 500.972656 97.460938 497.476562 97.460938 492.984375 C 97.460938 488.488281 100.953125 484.992188 105.449219 484.992188 C 109.941406 484.992188 113.4375 488.488281 113.4375 492.984375 C 113.4375 496.976562 109.441406 500.972656 105.449219 500.972656 Z M 105.449219 500.972656 "/><path style=" stroke:none;fill-rule:nonzero;fill:#000000;fill-opacity:1;" d="M 390.523438 560.898438 C 427.964844 560.898438 458.421875 530.4375 458.421875 492.984375 C 458.421875 455.53125 427.964844 425.070312 390.523438 425.070312 C 353.078125 425.070312 322.625 455.53125 322.625 492.984375 C 322.625 530.4375 353.078125 560.898438 390.523438 560.898438 Z M 390.523438 434.558594 C 422.472656 434.558594 448.933594 460.523438 448.933594 492.984375 C 448.933594 524.941406 422.972656 551.410156 390.523438 551.410156 C 358.570312 551.410156 332.109375 525.441406 332.109375 492.984375 C 332.109375 460.523438 358.570312 434.558594 390.523438 434.558594 Z M 390.523438 434.558594 "/><path style=" stroke:none;fill-rule:nonzero;fill:#000000;fill-opacity:1;" d="M 354.074219 508.964844 L 374.046875 508.964844 L 374.046875 528.9375 C 374.046875 531.433594 376.042969 533.933594 379.039062 533.933594 L 402.003906 533.933594 C 404.5 533.933594 406.996094 531.933594 406.996094 528.9375 L 406.996094 508.964844 L 426.96875 508.964844 C 429.464844 508.964844 431.960938 506.964844 431.960938 503.96875 L 431.960938 481 C 431.960938 478.5 429.960938 476.003906 426.96875 476.003906 L 406.996094 476.003906 L 406.996094 456.03125 C 406.996094 453.53125 405 451.035156 402.003906 451.035156 L 379.039062 451.035156 C 376.542969 451.035156 374.046875 453.035156 374.046875 456.03125 L 374.046875 476.003906 L 354.074219 476.003906 C 351.578125 476.003906 349.082031 478.003906 349.082031 481 L 349.082031 503.96875 C 349.082031 506.964844 351.578125 508.964844 354.074219 508.964844 Z M 359.070312 485.992188 L 379.039062 485.992188 C 381.535156 485.992188 384.03125 483.996094 384.03125 481 L 384.03125 461.023438 L 397.011719 461.023438 L 397.011719 481 C 397.011719 483.496094 399.007812 485.992188 402.003906 485.992188 L 421.976562 485.992188 L 421.976562 498.976562 L 402.003906 498.976562 C 399.507812 498.976562 397.011719 500.972656 397.011719 503.96875 L 397.011719 523.945312 L 384.03125 523.945312 L 384.03125 503.96875 C 384.03125 501.472656 382.035156 498.976562 379.039062 498.976562 L 359.070312 498.976562 Z M 359.070312 485.992188 "/><path style=" stroke:none;fill-rule:nonzero;fill:#000000;fill-opacity:1;" d="M 283.679688 510.960938 C 293.667969 510.960938 301.65625 502.96875 301.65625 492.984375 C 301.65625 482.996094 293.667969 475.003906 283.679688 475.003906 C 273.695312 475.003906 265.707031 482.996094 265.707031 492.984375 C 265.707031 502.96875 273.695312 510.960938 283.679688 510.960938 Z M 283.679688 484.492188 C 288.175781 484.492188 292.167969 487.988281 292.167969 492.984375 C 292.167969 497.476562 288.671875 501.472656 283.679688 501.472656 C 279.1875 501.472656 275.195312 497.976562 275.195312 492.984375 C 275.195312 487.988281 279.1875 484.492188 283.679688 484.492188 Z M 283.679688 484.492188 "/><path style=" stroke:none;fill-rule:nonzero;fill:#000000;fill-opacity:1;" d="M 241.742188 510.960938 C 251.730469 510.960938 259.71875 502.96875 259.71875 492.984375 C 259.71875 482.996094 251.730469 475.003906 241.742188 475.003906 C 231.757812 475.003906 223.769531 482.996094 223.769531 492.984375 C 223.769531 502.96875 231.757812 510.960938 241.742188 510.960938 Z M 241.742188 484.492188 C 246.238281 484.492188 250.230469 487.988281 250.230469 492.984375 C 250.230469 497.476562 246.738281 501.472656 241.742188 501.472656 C 237.25 501.472656 233.257812 497.976562 233.257812 492.984375 C 233.257812 487.988281 237.25 484.492188 241.742188 484.492188 Z M 241.742188 484.492188 "/><path style=" stroke:none;fill-rule:nonzero;fill:#000000;fill-opacity:1;" d="M 350.582031 22.574219 C 342.59375 22.574219 335.605469 29.066406 335.605469 37.554688 C 335.605469 45.546875 342.09375 52.539062 350.582031 52.539062 C 358.570312 52.539062 365.558594 46.046875 365.558594 37.554688 C 365.558594 29.566406 359.070312 22.574219 350.582031 22.574219 Z M 350.582031 42.550781 C 347.585938 42.550781 345.589844 40.054688 345.589844 37.554688 C 345.589844 35.058594 348.085938 32.5625 350.582031 32.5625 C 353.578125 32.5625 355.574219 35.058594 355.574219 37.554688 C 355.574219 40.054688 353.578125 42.550781 350.582031 42.550781 Z M 350.582031 42.550781 "/><path style=" stroke:none;fill-rule:nonzero;fill:#000000;fill-opacity:1;" d="M 390.023438 22.574219 C 382.035156 22.574219 375.042969 29.066406 375.042969 37.554688 C 375.042969 45.546875 381.535156 52.539062 390.023438 52.539062 C 398.011719 52.539062 405 46.046875 405 37.554688 C 405 29.566406 398.011719 22.574219 390.023438 22.574219 Z M 390.023438 42.550781 C 387.027344 42.550781 385.03125 40.054688 385.03125 37.554688 C 385.03125 35.058594 387.527344 32.5625 390.023438 32.5625 C 393.019531 32.5625 395.015625 35.058594 395.015625 37.554688 C 395.015625 40.054688 392.519531 42.550781 390.023438 42.550781 Z M 390.023438 42.550781 "/><path style=" stroke:none;fill-rule:nonzero;fill:#000000;fill-opacity:1;" d="M 428.964844 22.574219 C 420.976562 22.574219 413.988281 29.066406 413.988281 37.554688 C 413.988281 45.546875 420.476562 52.539062 428.964844 52.539062 C 436.953125 52.539062 443.941406 46.046875 443.941406 37.554688 C 443.941406 29.566406 437.453125 22.574219 428.964844 22.574219 Z M 428.964844 42.550781 C 425.96875 42.550781 423.972656 40.054688 423.972656 37.554688 C 423.972656 35.058594 426.46875 32.5625 428.964844 32.5625 C 431.960938 32.5625 433.957031 35.058594 433.957031 37.554688 C 433.957031 40.054688 431.960938 42.550781 428.964844 42.550781 Z M 428.964844 42.550781 "/><g clip-rule="nonzero" clip-path="url(#0be2bbde0a)"><path style=" stroke:none;fill-rule:nonzero;fill:#000000;fill-opacity:1;" d="M 805.902344 514.457031 L 781.9375 507.464844 C 790.921875 474.507812 795.417969 440.550781 795.417969 405.59375 C 795.417969 315.707031 764.464844 227.816406 708.546875 157.90625 L 708.546875 33.0625 C 708.546875 22.574219 702.054688 13.585938 693.070312 9.589844 C 690.074219 8.09375 686.578125 7.59375 683.085938 7.59375 L 338.101562 7.59375 C 330.609375 7.59375 323.621094 11.089844 319.128906 16.082031 C 134.402344 53.035156 0.605469 216.332031 0.605469 405.59375 C 0.605469 467.015625 14.085938 525.941406 41.042969 580.871094 L 41.042969 627.8125 C 41.042969 662.769531 69.5 691.234375 104.449219 691.234375 C 109.441406 691.234375 114.933594 690.734375 119.425781 689.238281 C 194.316406 762.644531 292.667969 802.59375 397.511719 802.59375 C 501.355469 802.59375 599.210938 763.144531 673.597656 690.734375 C 681.585938 690.234375 688.578125 692.730469 690.074219 687.238281 L 696.066406 667.265625 C 699.558594 663.269531 703.054688 659.273438 706.550781 654.78125 C 709.546875 653.28125 713.039062 652.28125 716.035156 650.785156 L 742.996094 665.265625 C 744.992188 666.265625 747.488281 665.765625 748.984375 664.269531 L 782.933594 630.308594 C 784.433594 628.8125 784.933594 626.316406 783.933594 624.316406 L 769.457031 597.351562 C 772.449219 591.859375 774.449219 586.367188 776.445312 580.375 L 805.902344 571.382812 C 807.898438 570.886719 809.394531 568.886719 809.394531 566.890625 L 809.394531 518.453125 C 809.394531 516.953125 807.898438 514.957031 805.902344 514.457031 Z M 769.457031 488.488281 L 779.941406 468.515625 C 778.441406 478.5 776.445312 488.488281 773.949219 498.476562 C 772.449219 494.980469 770.953125 491.984375 769.457031 488.488281 Z M 784.933594 405.59375 C 784.933594 422.074219 783.933594 438.550781 781.9375 454.53125 L 748.984375 421.574219 C 747.488281 420.074219 744.992188 419.574219 742.996094 420.574219 L 716.035156 435.054688 C 713.539062 433.558594 710.542969 432.558594 708.046875 431.558594 L 708.046875 173.386719 C 757.972656 240.300781 784.933594 322.199219 784.933594 405.59375 Z M 539.300781 461.523438 L 553.777344 488.488281 C 550.78125 493.980469 548.785156 499.476562 546.789062 505.46875 L 517.332031 514.457031 C 515.335938 514.957031 513.835938 516.953125 513.835938 518.949219 L 513.835938 530.4375 L 484.382812 530.4375 L 484.382812 494.480469 C 484.382812 442.546875 442.941406 399.601562 391.519531 399.101562 C 391.019531 399.101562 391.019531 399.101562 390.523438 399.101562 C 366.558594 399.101562 344.089844 408.089844 326.617188 424.570312 C 325.121094 425.566406 324.121094 426.566406 322.625 427.566406 L 322.625 67.519531 L 698.5625 67.519531 L 698.5625 425.070312 L 690.574219 398.101562 C 690.074219 396.105469 688.078125 394.605469 686.078125 394.605469 L 637.652344 394.605469 C 635.65625 394.605469 633.660156 396.105469 633.160156 398.101562 L 624.171875 427.566406 C 618.179688 429.5625 612.691406 432.058594 607.199219 434.558594 L 580.238281 420.074219 C 578.242188 419.078125 575.746094 419.574219 574.246094 421.074219 L 540.296875 455.03125 C 538.300781 457.027344 537.800781 459.523438 539.300781 461.523438 Z M 539.796875 630.808594 L 573.746094 664.765625 C 575.246094 666.265625 577.742188 666.765625 579.738281 665.765625 L 606.699219 651.285156 C 612.191406 654.28125 617.683594 656.277344 623.671875 658.273438 L 630.664062 681.746094 L 454.425781 681.746094 C 472.398438 670.261719 484.382812 650.785156 484.382812 628.3125 L 484.382812 539.925781 L 513.835938 539.925781 L 513.835938 566.890625 C 513.835938 568.886719 515.335938 570.886719 517.332031 571.382812 L 546.789062 580.375 C 548.785156 586.367188 551.28125 591.859375 553.777344 597.351562 L 539.300781 624.316406 C 537.800781 626.816406 538.300781 629.3125 539.796875 630.808594 Z M 237.25 360.648438 L 117.429688 360.648438 C 105.945312 360.648438 96.960938 351.660156 96.960938 340.175781 C 96.960938 328.691406 105.945312 319.703125 117.429688 319.703125 L 267.707031 319.703125 C 281.683594 319.703125 293.167969 308.214844 293.167969 294.234375 C 293.167969 280.25 281.683594 268.765625 267.707031 268.765625 L 206.796875 268.765625 C 187.824219 268.765625 172.847656 253.285156 172.847656 234.808594 C 172.847656 215.832031 188.324219 200.851562 206.796875 200.851562 L 312.636719 200.851562 L 312.636719 431.558594 C 310.640625 432.058594 308.144531 432.558594 305.648438 432.558594 L 267.207031 432.558594 L 267.207031 391.109375 C 267.707031 374.132812 254.226562 360.648438 237.25 360.648438 Z M 698.0625 33.0625 L 698.0625 58.03125 L 322.625 58.03125 L 322.625 33.0625 C 322.625 24.574219 329.613281 17.082031 338.597656 17.082031 L 683.085938 17.082031 C 685.082031 17.082031 687.078125 17.582031 689.074219 18.082031 C 694.066406 21.078125 698.0625 26.570312 698.0625 33.0625 Z M 10.589844 405.59375 C 10.589844 223.820312 137.398438 66.519531 313.636719 27.570312 C 313.136719 29.566406 313.136719 31.0625 313.136719 33.0625 L 313.136719 191.363281 L 206.796875 191.363281 C 182.832031 191.363281 162.863281 210.839844 162.863281 235.308594 C 162.863281 259.777344 182.332031 279.253906 206.796875 279.253906 L 267.707031 279.253906 C 276.191406 279.253906 283.183594 286.242188 283.183594 294.734375 C 283.183594 303.222656 276.191406 310.214844 267.707031 310.214844 L 117.929688 310.214844 C 101.453125 310.214844 87.472656 323.695312 87.472656 340.675781 C 87.472656 357.152344 100.953125 371.136719 117.929688 371.136719 L 237.75 371.136719 C 249.234375 371.136719 258.21875 380.125 258.21875 391.609375 L 258.21875 433.058594 L 219.777344 433.058594 C 211.789062 433.058594 204.300781 430.0625 198.808594 425.070312 C 181.335938 408.589844 158.367188 399.601562 133.90625 399.601562 C 82.980469 399.601562 41.042969 442.546875 41.042969 494.480469 L 41.042969 556.902344 C 20.574219 508.964844 10.589844 458.527344 10.589844 405.59375 Z M 51.027344 627.3125 L 51.027344 493.980469 C 51.027344 447.039062 88.472656 409.089844 133.90625 408.589844 C 155.371094 408.589844 175.84375 416.578125 191.820312 431.0625 C 199.308594 438.050781 208.792969 441.546875 219.277344 441.546875 L 305.648438 441.546875 C 316.132812 441.546875 325.617188 437.554688 333.109375 431.0625 C 348.585938 416.578125 369.054688 408.589844 390.523438 408.589844 C 391.019531 408.589844 391.019531 408.589844 391.519531 408.589844 C 437.453125 409.089844 474.394531 447.539062 474.394531 493.980469 L 474.394531 626.816406 C 474.394531 656.277344 450.433594 680.246094 420.476562 680.246094 C 397.511719 680.246094 377.539062 665.765625 369.554688 643.792969 L 338.101562 573.882812 C 331.609375 559.398438 317.132812 549.910156 301.15625 549.910156 L 223.769531 549.910156 C 207.792969 549.910156 193.316406 559.398438 186.824219 573.882812 L 155.371094 645.292969 C 147.882812 666.765625 127.414062 681.246094 104.949219 681.246094 C 74.992188 681.246094 51.027344 657.277344 51.027344 627.3125 Z M 387.027344 681.246094 L 138.398438 681.246094 C 150.378906 673.753906 159.367188 662.769531 164.359375 648.789062 L 195.8125 578.875 C 200.804688 567.890625 211.789062 560.398438 223.769531 560.398438 L 301.15625 560.398438 C 313.136719 560.398438 324.621094 567.390625 329.113281 578.875 L 360.566406 648.289062 C 365.558594 662.269531 375.042969 673.753906 387.027344 681.246094 Z M 135.902344 691.234375 C 189.320312 691.234375 591.222656 691.234375 659.621094 691.234375 C 588.226562 757.152344 495.863281 793.105469 398.011719 793.105469 C 300.15625 793.105469 207.792969 756.652344 135.902344 691.234375 Z M 799.410156 563.394531 L 770.953125 571.882812 C 769.457031 572.382812 767.957031 573.382812 767.457031 575.378906 C 765.460938 582.371094 762.464844 588.863281 758.972656 595.355469 C 757.972656 596.851562 757.972656 598.351562 758.972656 599.847656 L 772.949219 625.816406 L 743.992188 654.78125 L 718.03125 640.796875 C 716.535156 639.796875 715.035156 639.796875 713.539062 640.796875 C 707.046875 644.292969 700.558594 646.789062 693.570312 649.285156 C 692.070312 649.785156 690.574219 650.785156 690.074219 652.78125 L 687.078125 663.769531 L 682.085938 681.246094 C 681.085938 681.246094 639.148438 681.246094 641.148438 681.246094 L 632.660156 652.78125 C 632.160156 651.285156 631.164062 649.785156 629.164062 649.285156 C 622.175781 647.289062 615.1875 644.292969 609.195312 640.796875 C 607.695312 639.796875 606.199219 639.796875 604.703125 640.796875 L 578.742188 654.78125 L 549.785156 625.816406 L 563.761719 599.847656 C 564.761719 598.351562 564.761719 596.851562 563.761719 595.355469 C 560.269531 588.863281 557.773438 582.371094 555.277344 575.378906 C 554.777344 573.882812 553.777344 572.382812 551.78125 571.882812 L 523.324219 563.394531 L 523.324219 522.445312 L 551.78125 513.957031 C 553.277344 513.457031 554.777344 512.457031 555.277344 510.460938 C 557.273438 503.46875 560.269531 496.976562 563.761719 490.484375 C 564.761719 488.988281 564.761719 487.488281 563.761719 485.992188 L 549.785156 460.023438 L 578.742188 431.0625 L 604.703125 445.042969 C 606.199219 446.042969 607.695312 446.042969 609.195312 445.042969 C 615.683594 441.546875 622.175781 439.050781 629.164062 436.554688 C 630.664062 436.054688 632.160156 435.054688 632.660156 433.058594 L 641.148438 404.59375 L 682.085938 404.59375 L 690.574219 433.058594 C 691.074219 434.558594 692.070312 436.054688 694.066406 436.554688 C 701.058594 438.550781 708.046875 441.546875 714.039062 445.042969 C 715.535156 446.042969 717.035156 446.042969 718.53125 445.042969 L 744.492188 431.0625 L 773.449219 460.023438 L 759.46875 485.992188 C 758.472656 487.488281 758.472656 488.988281 759.46875 490.484375 C 762.964844 496.976562 765.460938 503.46875 767.957031 510.460938 C 768.457031 511.960938 769.457031 513.457031 771.453125 513.957031 L 774.945312 514.957031 L 799.910156 522.445312 L 799.910156 563.394531 Z M 799.410156 563.394531 "/></g><path style=" stroke:none;fill-rule:nonzero;fill:#000000;fill-opacity:1;" d="M 406 104.472656 L 360.066406 104.472656 C 357.570312 104.472656 355.074219 106.46875 355.074219 109.464844 C 355.074219 111.960938 357.070312 114.460938 360.066406 114.460938 L 406 114.460938 C 408.496094 114.460938 410.992188 112.460938 410.992188 109.464844 C 410.992188 106.96875 408.992188 104.472656 406 104.472656 Z M 406 104.472656 "/><path style=" stroke:none;fill-rule:nonzero;fill:#000000;fill-opacity:1;" d="M 425.96875 114.460938 L 444.941406 114.460938 C 447.4375 114.460938 449.933594 112.460938 449.933594 109.464844 C 449.933594 106.96875 447.9375 104.472656 444.941406 104.472656 L 425.96875 104.472656 C 423.472656 104.472656 420.976562 106.46875 420.976562 109.464844 C 421.476562 112.460938 423.472656 114.460938 425.96875 114.460938 Z M 425.96875 114.460938 "/><path style=" stroke:none;fill-rule:nonzero;fill:#000000;fill-opacity:1;" d="M 406 124.445312 L 360.066406 124.445312 C 357.570312 124.445312 355.074219 126.445312 355.074219 129.441406 C 355.074219 131.9375 357.070312 134.433594 360.066406 134.433594 L 406 134.433594 C 408.496094 134.433594 410.992188 132.4375 410.992188 129.441406 C 410.992188 126.445312 408.992188 124.445312 406 124.445312 Z M 406 124.445312 "/><path style=" stroke:none;fill-rule:nonzero;fill:#000000;fill-opacity:1;" d="M 425.96875 134.433594 L 444.941406 134.433594 C 447.4375 134.433594 449.933594 132.4375 449.933594 129.441406 C 449.933594 126.945312 447.9375 124.445312 444.941406 124.445312 L 425.96875 124.445312 C 423.472656 124.445312 420.976562 126.445312 420.976562 129.441406 C 421.476562 131.9375 423.472656 134.433594 425.96875 134.433594 Z M 425.96875 134.433594 "/><path style=" stroke:none;fill-rule:nonzero;fill:#000000;fill-opacity:1;" d="M 431.460938 157.40625 C 431.460938 159.902344 433.457031 162.398438 436.453125 162.398438 L 482.382812 162.398438 C 484.878906 162.398438 487.375 160.402344 487.375 157.40625 C 487.375 154.910156 485.378906 152.410156 482.382812 152.410156 L 436.453125 152.410156 C 433.957031 152.410156 431.460938 154.410156 431.460938 157.40625 Z M 431.460938 157.40625 "/><path style=" stroke:none;fill-rule:nonzero;fill:#000000;fill-opacity:1;" d="M 505.847656 161.898438 L 551.78125 161.898438 C 554.277344 161.898438 556.773438 159.902344 556.773438 156.90625 C 556.773438 154.410156 554.777344 151.914062 551.78125 151.914062 L 505.847656 151.914062 C 503.351562 151.914062 500.855469 153.910156 500.855469 156.90625 C 500.855469 159.902344 502.855469 161.898438 505.847656 161.898438 Z M 505.847656 161.898438 "/><path style=" stroke:none;fill-rule:nonzero;fill:#000000;fill-opacity:1;" d="M 574.746094 161.898438 L 660.617188 161.898438 C 663.113281 161.898438 665.609375 159.902344 665.609375 156.90625 C 665.609375 154.410156 663.613281 151.914062 660.617188 151.914062 L 574.746094 151.914062 C 572.25 151.914062 569.753906 153.910156 569.753906 156.90625 C 569.753906 159.902344 572.25 161.898438 574.746094 161.898438 Z M 574.746094 161.898438 "/><path style=" stroke:none;fill-rule:nonzero;fill:#000000;fill-opacity:1;" d="M 431.460938 183.871094 C 431.460938 186.367188 433.457031 188.867188 436.453125 188.867188 L 557.273438 188.867188 C 559.769531 188.867188 562.265625 186.867188 562.265625 183.871094 C 562.265625 181.375 560.269531 178.878906 557.273438 178.878906 L 436.453125 178.878906 C 433.957031 179.378906 431.460938 181.375 431.460938 183.871094 Z M 431.460938 183.871094 "/><path style=" stroke:none;fill-rule:nonzero;fill:#000000;fill-opacity:1;" d="M 574.746094 188.867188 L 638.652344 188.867188 C 641.148438 188.867188 643.644531 186.867188 643.644531 183.871094 C 643.644531 181.375 641.644531 178.878906 638.652344 178.878906 L 574.746094 178.878906 C 572.25 178.878906 569.753906 180.875 569.753906 183.871094 C 569.753906 186.867188 572.25 188.867188 574.746094 188.867188 Z M 574.746094 188.867188 "/><path style=" stroke:none;fill-rule:nonzero;fill:#000000;fill-opacity:1;" d="M 514.835938 199.851562 L 436.453125 199.851562 C 433.957031 199.851562 431.460938 201.847656 431.460938 204.84375 C 431.460938 207.34375 433.457031 209.839844 436.453125 209.839844 L 514.835938 209.839844 C 517.332031 209.839844 519.828125 207.84375 519.828125 204.84375 C 519.828125 201.847656 517.832031 199.851562 514.835938 199.851562 Z M 514.835938 199.851562 "/><path style=" stroke:none;fill-rule:nonzero;fill:#000000;fill-opacity:1;" d="M 618.679688 204.84375 C 618.679688 202.347656 616.683594 199.851562 613.6875 199.851562 L 535.304688 199.851562 C 532.808594 199.851562 530.3125 201.847656 530.3125 204.84375 C 530.3125 207.34375 532.308594 209.839844 535.304688 209.839844 L 613.6875 209.839844 C 616.683594 209.839844 618.679688 207.34375 618.679688 204.84375 Z M 618.679688 204.84375 "/><path style=" stroke:none;fill-rule:nonzero;fill:#000000;fill-opacity:1;" d="M 406 238.304688 L 360.066406 238.304688 C 357.570312 238.304688 355.074219 240.300781 355.074219 243.296875 C 355.074219 245.792969 357.070312 248.289062 360.066406 248.289062 L 406 248.289062 C 408.496094 248.289062 410.992188 246.292969 410.992188 243.296875 C 410.992188 240.300781 408.992188 238.304688 406 238.304688 Z M 406 238.304688 "/><path style=" stroke:none;fill-rule:nonzero;fill:#000000;fill-opacity:1;" d="M 425.96875 248.289062 L 444.941406 248.289062 C 447.4375 248.289062 449.933594 246.292969 449.933594 243.296875 C 449.933594 240.800781 447.9375 238.304688 444.941406 238.304688 L 425.96875 238.304688 C 423.472656 238.304688 420.976562 240.300781 420.976562 243.296875 C 421.476562 245.792969 423.472656 248.289062 425.96875 248.289062 Z M 425.96875 248.289062 "/><path style=" stroke:none;fill-rule:nonzero;fill:#000000;fill-opacity:1;" d="M 406 258.277344 L 360.066406 258.277344 C 357.570312 258.277344 355.074219 260.277344 355.074219 263.273438 C 355.074219 265.769531 357.070312 268.265625 360.066406 268.265625 L 406 268.265625 C 408.496094 268.265625 410.992188 266.269531 410.992188 263.273438 C 410.992188 260.277344 408.992188 258.277344 406 258.277344 Z M 406 258.277344 "/><path style=" stroke:none;fill-rule:nonzero;fill:#000000;fill-opacity:1;" d="M 449.933594 263.273438 C 449.933594 260.773438 447.9375 258.277344 444.941406 258.277344 L 425.96875 258.277344 C 423.472656 258.277344 420.976562 260.277344 420.976562 263.273438 C 420.976562 265.769531 422.972656 268.265625 425.96875 268.265625 L 444.941406 268.265625 C 447.9375 267.765625 449.933594 265.769531 449.933594 263.273438 Z M 449.933594 263.273438 "/><path style=" stroke:none;fill-rule:nonzero;fill:#000000;fill-opacity:1;" d="M 431.460938 290.738281 C 431.460938 293.234375 433.457031 295.730469 436.453125 295.730469 L 482.382812 295.730469 C 484.878906 295.730469 487.375 293.734375 487.375 290.738281 C 487.375 288.242188 485.378906 285.742188 482.382812 285.742188 L 436.453125 285.742188 C 433.957031 285.742188 431.460938 288.242188 431.460938 290.738281 Z M 431.460938 290.738281 "/><path style=" stroke:none;fill-rule:nonzero;fill:#000000;fill-opacity:1;" d="M 500.855469 290.738281 C 500.855469 293.234375 502.855469 295.730469 505.847656 295.730469 L 551.78125 295.730469 C 554.277344 295.730469 556.773438 293.734375 556.773438 290.738281 C 556.773438 288.242188 554.777344 285.742188 551.78125 285.742188 L 505.847656 285.742188 C 502.855469 285.742188 500.855469 288.242188 500.855469 290.738281 Z M 500.855469 290.738281 "/><path style=" stroke:none;fill-rule:nonzero;fill:#000000;fill-opacity:1;" d="M 660.617188 285.742188 L 574.746094 285.742188 C 572.25 285.742188 569.753906 287.742188 569.753906 290.738281 C 569.753906 293.234375 571.75 295.730469 574.746094 295.730469 L 660.617188 295.730469 C 663.113281 295.730469 665.609375 293.734375 665.609375 290.738281 C 665.609375 288.242188 663.113281 285.742188 660.617188 285.742188 Z M 660.617188 285.742188 "/><path style=" stroke:none;fill-rule:nonzero;fill:#000000;fill-opacity:1;" d="M 436.453125 322.699219 L 557.273438 322.699219 C 559.769531 322.699219 562.265625 320.699219 562.265625 317.703125 C 562.265625 315.207031 560.269531 312.710938 557.273438 312.710938 L 436.453125 312.710938 C 433.957031 312.710938 431.460938 314.707031 431.460938 317.703125 C 431.460938 320.699219 433.957031 322.699219 436.453125 322.699219 Z M 436.453125 322.699219 "/><path style=" stroke:none;fill-rule:nonzero;fill:#000000;fill-opacity:1;" d="M 639.148438 312.710938 L 574.746094 312.710938 C 572.25 312.710938 569.753906 314.707031 569.753906 317.703125 C 569.753906 320.199219 571.75 322.699219 574.746094 322.699219 L 638.652344 322.699219 C 641.148438 322.699219 643.644531 320.699219 643.644531 317.703125 C 643.644531 315.207031 641.644531 312.710938 639.148438 312.710938 Z M 639.148438 312.710938 "/><path style=" stroke:none;fill-rule:nonzero;fill:#000000;fill-opacity:1;" d="M 514.835938 333.683594 L 436.453125 333.683594 C 433.957031 333.683594 431.460938 335.679688 431.460938 338.675781 C 431.460938 341.175781 433.457031 343.671875 436.453125 343.671875 L 514.835938 343.671875 C 517.332031 343.671875 519.828125 341.671875 519.828125 338.675781 C 519.828125 335.679688 517.832031 333.683594 514.835938 333.683594 Z M 514.835938 333.683594 "/><path style=" stroke:none;fill-rule:nonzero;fill:#000000;fill-opacity:1;" d="M 618.679688 338.675781 C 618.679688 336.179688 616.683594 333.683594 613.6875 333.683594 L 535.304688 333.683594 C 532.808594 333.683594 530.3125 335.679688 530.3125 338.675781 C 530.3125 341.175781 532.308594 343.671875 535.304688 343.671875 L 613.6875 343.671875 C 616.683594 343.171875 618.679688 341.175781 618.679688 338.675781 Z M 618.679688 338.675781 "/><path style=" stroke:none;fill-rule:nonzero;fill:#000000;fill-opacity:1;" d="M 574.746094 544.417969 L 623.175781 566.890625 L 623.175781 554.90625 L 587.226562 538.425781 L 587.226562 536.929688 L 623.175781 520.449219 L 623.175781 508.964844 L 574.746094 531.433594 Z M 574.746094 544.417969 "/><path style=" stroke:none;fill-rule:nonzero;fill:#000000;fill-opacity:1;" d="M 634.15625 590.859375 L 644.640625 590.859375 L 689.074219 494.980469 L 678.589844 494.980469 Z M 634.15625 590.859375 "/><path style=" stroke:none;fill-rule:nonzero;fill:#000000;fill-opacity:1;" d="M 699.558594 520.449219 L 736.003906 536.929688 L 736.003906 538.425781 L 699.558594 554.90625 L 699.558594 566.890625 L 748.488281 544.417969 L 748.488281 531.433594 L 699.558594 508.964844 Z M 699.558594 520.449219 "/></g></svg>