<svg xmlns="http://www.w3.org/2000/svg" xmlns:xlink="http://www.w3.org/1999/xlink" width="1080" zoomAndPan="magnify" viewBox="0 0 810 809.999993" height="1080" preserveAspectRatio="xMidYMid meet" version="1.2"><defs><clipPath id="5ad6b5d80f"><path d="M 184 15.695312 L 764 15.695312 L 764 488 L 184 488 Z M 184 15.695312 "/></clipPath><clipPath id="7676a4b2b6"><path d="M 59 591 L 334 591 L 334 794.195312 L 59 794.195312 Z M 59 591 "/></clipPath><clipPath id="2076898c79"><path d="M 203 646 L 227 646 L 227 794.195312 L 203 794.195312 Z M 203 646 "/></clipPath><clipPath id="5fd6db8a8f"><path d="M 629 646 L 654 646 L 654 794.195312 L 629 794.195312 Z M 629 646 "/></clipPath></defs><g id="6f1ee3e826"><path style=" stroke:none;fill-rule:nonzero;fill:#d7e0e2;fill-opacity:1;" d="M 759.894531 793.476562 L 686.363281 793.476562 L 673.496094 669.945312 L 772.761719 669.945312 Z M 759.894531 793.476562 "/><path style=" stroke:none;fill-rule:nonzero;fill:#d7e0e2;fill-opacity:1;" d="M 735.394531 718.125 C 734.527344 718.125 733.78125 717.46875 733.6875 716.585938 C 733.542969 715.132812 719.582031 570.734375 777.945312 509.945312 C 778.597656 509.257812 779.6875 509.242188 780.367188 509.894531 C 781.050781 510.550781 781.074219 511.636719 780.417969 512.320312 C 723.152344 571.96875 736.953125 714.800781 737.101562 716.238281 C 737.203125 717.242188 736.417969 718.128906 735.390625 718.128906 Z M 735.394531 718.125 "/><path style=" stroke:none;fill-rule:nonzero;fill:#d7e0e2;fill-opacity:1;" d="M 738.703125 608.433594 C 727.460938 576.941406 729.753906 543.632812 743.40625 514.542969 L 752.28125 525.027344 L 748.652344 511.132812 C 748.652344 511.132812 764.585938 489.703125 793.027344 485.183594 C 798.222656 484.355469 799.902344 485.742188 800.84375 486.542969 C 809.863281 494.222656 793.09375 528.664062 776.488281 558.101562 C 772.453125 559.175781 768.417969 560.25 764.382812 561.324219 L 774.066406 562.132812 C 767.984375 581.6875 755.394531 597.566406 738.707031 608.433594 Z M 738.703125 608.433594 "/><path style=" stroke:none;fill-rule:nonzero;fill:#d7e0e2;fill-opacity:1;" d="M 721.902344 718.125 C 720.953125 718.125 720.1875 717.355469 720.1875 716.410156 L 720.1875 462.414062 C 720.1875 461.464844 720.957031 460.699219 721.902344 460.699219 C 722.847656 460.699219 723.617188 461.46875 723.617188 462.414062 L 723.617188 716.410156 C 723.617188 717.359375 722.847656 718.125 721.902344 718.125 Z M 721.902344 718.125 "/><path style=" stroke:none;fill-rule:nonzero;fill:#d7e0e2;fill-opacity:1;" d="M 721.902344 539.210938 C 714.570312 528.359375 703.386719 508.226562 702.664062 481.871094 C 701.808594 450.589844 716.199219 421.683594 724.847656 419.339844 C 741.1875 414.917969 743.40625 468.960938 743.40625 468.960938 L 735.742188 478.101562 L 743.40625 475.011719 C 745.09375 498.785156 737.210938 521.554688 721.902344 539.210938 Z M 721.902344 539.210938 "/><path style=" stroke:none;fill-rule:nonzero;fill:#d7e0e2;fill-opacity:1;" d="M 716.25 728.351562 C 715.375 728.351562 714.628906 727.683594 714.542969 726.796875 C 714.449219 725.8125 705.175781 627.84375 696.820312 586.207031 C 688.574219 545.128906 659.082031 520.34375 658.785156 520.097656 C 658.054688 519.492188 657.953125 518.410156 658.554688 517.683594 C 659.15625 516.953125 660.238281 516.847656 660.96875 517.453125 C 661.273438 517.703125 691.691406 543.21875 700.183594 585.535156 C 708.574219 627.347656 717.867188 725.492188 717.957031 726.476562 C 718.050781 727.484375 717.261719 728.351562 716.246094 728.351562 Z M 716.25 728.351562 "/><path style=" stroke:none;fill-rule:nonzero;fill:#d7e0e2;fill-opacity:1;" d="M 697.355469 580.789062 C 700.53125 553.753906 693.664062 527.789062 679.199219 505.871094 L 671.621094 513.9375 L 675.703125 501.066406 C 656.460938 482.722656 637.3125 474.023438 626.722656 480.371094 C 626.195312 480.6875 623.847656 482.191406 622.1875 484.929688 C 612.742188 500.511719 646.726562 537.816406 649.820312 541.164062 C 652.507812 539.210938 655.195312 537.265625 657.886719 535.316406 C 656.609375 538.339844 655.332031 541.367188 654.054688 544.390625 C 663.355469 562.039062 678.96875 574.832031 697.359375 580.789062 Z M 697.355469 580.789062 "/><g clip-rule="nonzero" clip-path="url(#5ad6b5d80f)"><path style=" stroke:none;fill-rule:nonzero;fill:#a1d3ec;fill-opacity:1;" d="M 203.929688 15.683594 L 744.222656 15.683594 C 744.863281 15.683594 745.496094 15.714844 746.132812 15.777344 C 746.765625 15.839844 747.394531 15.933594 748.019531 16.054688 C 748.644531 16.179688 749.261719 16.335938 749.871094 16.519531 C 750.480469 16.707031 751.082031 16.917969 751.671875 17.164062 C 752.257812 17.40625 752.835938 17.679688 753.398438 17.980469 C 753.957031 18.28125 754.503906 18.609375 755.035156 18.960938 C 755.5625 19.316406 756.074219 19.695312 756.566406 20.097656 C 757.0625 20.503906 757.53125 20.929688 757.984375 21.382812 C 758.433594 21.832031 758.859375 22.304688 759.265625 22.796875 C 759.667969 23.289062 760.050781 23.800781 760.402344 24.328125 C 760.757812 24.859375 761.085938 25.40625 761.382812 25.96875 C 761.683594 26.527344 761.957031 27.105469 762.199219 27.691406 C 762.445312 28.28125 762.660156 28.878906 762.84375 29.492188 C 763.03125 30.101562 763.183594 30.71875 763.308594 31.34375 C 763.433594 31.96875 763.527344 32.597656 763.589844 33.230469 C 763.652344 33.867188 763.683594 34.5 763.683594 35.136719 L 763.683594 467.675781 C 763.683594 468.3125 763.652344 468.945312 763.589844 469.582031 C 763.527344 470.214844 763.433594 470.84375 763.308594 471.46875 C 763.183594 472.09375 763.03125 472.710938 762.84375 473.320312 C 762.660156 473.929688 762.445312 474.53125 762.199219 475.121094 C 761.957031 475.707031 761.683594 476.285156 761.382812 476.84375 C 761.085938 477.40625 760.757812 477.953125 760.402344 478.484375 C 760.050781 479.011719 759.667969 479.523438 759.265625 480.015625 C 758.859375 480.507812 758.433594 480.980469 757.984375 481.429688 C 757.53125 481.882812 757.0625 482.308594 756.566406 482.714844 C 756.074219 483.117188 755.5625 483.496094 755.035156 483.851562 C 754.503906 484.203125 753.957031 484.53125 753.398438 484.832031 C 752.835938 485.132812 752.257812 485.40625 751.671875 485.648438 C 751.082031 485.894531 750.480469 486.105469 749.871094 486.292969 C 749.261719 486.476562 748.644531 486.632812 748.019531 486.757812 C 747.394531 486.878906 746.765625 486.972656 746.132812 487.035156 C 745.496094 487.097656 744.863281 487.128906 744.222656 487.128906 L 203.929688 487.128906 C 203.292969 487.128906 202.65625 487.097656 202.023438 487.035156 C 201.390625 486.972656 200.761719 486.878906 200.136719 486.757812 C 199.511719 486.632812 198.890625 486.476562 198.28125 486.292969 C 197.671875 486.105469 197.074219 485.894531 196.484375 485.648438 C 195.894531 485.40625 195.320312 485.132812 194.757812 484.832031 C 194.195312 484.53125 193.652344 484.203125 193.121094 483.851562 C 192.589844 483.496094 192.078125 483.117188 191.585938 482.714844 C 191.09375 482.308594 190.621094 481.882812 190.171875 481.429688 C 189.722656 480.980469 189.292969 480.507812 188.890625 480.015625 C 188.484375 479.523438 188.105469 479.011719 187.753906 478.484375 C 187.398438 477.953125 187.070312 477.40625 186.769531 476.84375 C 186.46875 476.285156 186.199219 475.707031 185.953125 475.121094 C 185.710938 474.53125 185.496094 473.929688 185.3125 473.320312 C 185.125 472.710938 184.972656 472.09375 184.847656 471.46875 C 184.722656 470.84375 184.628906 470.214844 184.566406 469.582031 C 184.503906 468.945312 184.472656 468.3125 184.472656 467.675781 L 184.472656 35.136719 C 184.472656 34.5 184.503906 33.867188 184.566406 33.230469 C 184.628906 32.597656 184.722656 31.96875 184.847656 31.34375 C 184.972656 30.71875 185.125 30.101562 185.3125 29.492188 C 185.496094 28.878906 185.710938 28.28125 185.953125 27.691406 C 186.199219 27.105469 186.46875 26.527344 186.769531 25.96875 C 187.070312 25.40625 187.398438 24.859375 187.753906 24.328125 C 188.105469 23.800781 188.484375 23.289062 188.890625 22.796875 C 189.292969 22.304688 189.722656 21.832031 190.171875 21.382812 C 190.621094 20.929688 191.09375 20.503906 191.585938 20.097656 C 192.078125 19.695312 192.589844 19.316406 193.121094 18.960938 C 193.652344 18.609375 194.195312 18.28125 194.757812 17.980469 C 195.320312 17.679688 195.894531 17.40625 196.484375 17.164062 C 197.074219 16.917969 197.671875 16.707031 198.28125 16.519531 C 198.890625 16.335938 199.511719 16.179688 200.136719 16.054688 C 200.761719 15.933594 201.390625 15.839844 202.023438 15.777344 C 202.65625 15.714844 203.292969 15.683594 203.929688 15.683594 Z M 203.929688 15.683594 "/></g><path style=" stroke:none;fill-rule:nonzero;fill:#579dc4;fill-opacity:1;" d="M 740.222656 41.390625 L 684.257812 41.390625 C 680.789062 41.390625 677.976562 38.582031 677.976562 35.109375 C 677.976562 31.054688 681.007812 28.550781 684.257812 28.550781 L 740.222656 28.550781 C 743.691406 28.550781 746.503906 31.363281 746.503906 34.832031 C 746.503906 38.890625 743.472656 41.390625 740.222656 41.390625 Z M 740.222656 41.390625 "/><path style=" stroke:none;fill-rule:nonzero;fill:#ffffff;fill-opacity:1;" d="M 298.515625 59.675781 L 644.898438 59.675781 C 645.480469 59.675781 646.058594 59.703125 646.640625 59.761719 C 647.21875 59.820312 647.792969 59.902344 648.363281 60.019531 C 648.9375 60.132812 649.5 60.273438 650.058594 60.441406 C 650.613281 60.609375 651.164062 60.804688 651.699219 61.03125 C 652.238281 61.253906 652.765625 61.5 653.277344 61.773438 C 653.792969 62.050781 654.289062 62.347656 654.773438 62.671875 C 655.257812 62.996094 655.726562 63.34375 656.175781 63.710938 C 656.625 64.082031 657.058594 64.472656 657.46875 64.882812 C 657.878906 65.292969 658.269531 65.726562 658.640625 66.175781 C 659.007812 66.625 659.355469 67.09375 659.679688 67.578125 C 660.003906 68.0625 660.300781 68.558594 660.578125 69.074219 C 660.851562 69.585938 661.101562 70.113281 661.324219 70.648438 C 661.546875 71.1875 661.742188 71.734375 661.910156 72.292969 C 662.078125 72.851562 662.222656 73.414062 662.335938 73.984375 C 662.449219 74.554688 662.535156 75.132812 662.589844 75.710938 C 662.648438 76.289062 662.675781 76.871094 662.675781 77.453125 L 662.675781 280 C 662.675781 280.582031 662.648438 281.164062 662.589844 281.742188 C 662.535156 282.324219 662.449219 282.898438 662.335938 283.46875 C 662.222656 284.039062 662.078125 284.605469 661.910156 285.160156 C 661.742188 285.71875 661.546875 286.265625 661.324219 286.804688 C 661.101562 287.34375 660.851562 287.867188 660.578125 288.382812 C 660.300781 288.894531 660.003906 289.394531 659.679688 289.878906 C 659.355469 290.363281 659.007812 290.828125 658.640625 291.277344 C 658.269531 291.730469 657.878906 292.160156 657.46875 292.570312 C 657.058594 292.984375 656.625 293.375 656.175781 293.742188 C 655.726562 294.113281 655.257812 294.460938 654.773438 294.78125 C 654.289062 295.105469 653.792969 295.40625 653.277344 295.679688 C 652.765625 295.953125 652.238281 296.203125 651.699219 296.425781 C 651.164062 296.648438 650.613281 296.84375 650.058594 297.011719 C 649.5 297.183594 648.9375 297.324219 648.363281 297.4375 C 647.792969 297.550781 647.21875 297.636719 646.640625 297.691406 C 646.058594 297.75 645.480469 297.777344 644.898438 297.777344 L 298.515625 297.777344 C 297.933594 297.777344 297.351562 297.75 296.769531 297.691406 C 296.191406 297.636719 295.617188 297.550781 295.046875 297.4375 C 294.472656 297.324219 293.910156 297.183594 293.351562 297.011719 C 292.796875 296.84375 292.246094 296.648438 291.710938 296.425781 C 291.171875 296.203125 290.644531 295.953125 290.132812 295.679688 C 289.621094 295.40625 289.121094 295.105469 288.636719 294.78125 C 288.152344 294.460938 287.683594 294.113281 287.234375 293.742188 C 286.785156 293.375 286.355469 292.984375 285.941406 292.570312 C 285.53125 292.160156 285.140625 291.730469 284.769531 291.277344 C 284.402344 290.828125 284.054688 290.363281 283.730469 289.878906 C 283.40625 289.394531 283.109375 288.894531 282.832031 288.382812 C 282.558594 287.867188 282.3125 287.34375 282.085938 286.804688 C 281.863281 286.265625 281.667969 285.71875 281.5 285.160156 C 281.332031 284.605469 281.191406 284.039062 281.074219 283.46875 C 280.960938 282.898438 280.878906 282.324219 280.820312 281.742188 C 280.761719 281.164062 280.734375 280.582031 280.734375 280 L 280.734375 77.453125 C 280.734375 76.871094 280.761719 76.289062 280.820312 75.710938 C 280.878906 75.132812 280.960938 74.554688 281.074219 73.984375 C 281.191406 73.414062 281.332031 72.851562 281.5 72.292969 C 281.667969 71.734375 281.863281 71.1875 282.085938 70.648438 C 282.3125 70.113281 282.558594 69.585938 282.832031 69.074219 C 283.109375 68.558594 283.40625 68.0625 283.730469 67.578125 C 284.054688 67.09375 284.402344 66.625 284.769531 66.175781 C 285.140625 65.726562 285.53125 65.292969 285.941406 64.882812 C 286.355469 64.472656 286.785156 64.082031 287.234375 63.710938 C 287.683594 63.34375 288.152344 62.996094 288.636719 62.671875 C 289.121094 62.347656 289.621094 62.050781 290.132812 61.773438 C 290.644531 61.5 291.171875 61.253906 291.710938 61.03125 C 292.246094 60.804688 292.796875 60.609375 293.351562 60.441406 C 293.910156 60.273438 294.472656 60.132812 295.046875 60.019531 C 295.617188 59.902344 296.191406 59.820312 296.769531 59.761719 C 297.351562 59.703125 297.933594 59.675781 298.515625 59.675781 Z M 298.515625 59.675781 "/><path style=" stroke:none;fill-rule:nonzero;fill:#f8d26e;fill-opacity:1;" d="M 578.019531 159.175781 C 578.019531 160.785156 577.953125 162.390625 577.816406 163.988281 C 577.679688 165.589844 577.476562 167.179688 577.207031 168.757812 C 576.9375 170.335938 576.601562 171.894531 576.199219 173.433594 C 575.796875 174.972656 575.332031 176.484375 574.804688 177.96875 C 574.273438 179.457031 573.683594 180.910156 573.03125 182.328125 C 572.378906 183.746094 571.667969 185.125 570.898438 186.460938 C 570.128906 187.796875 569.304688 189.089844 568.425781 190.332031 C 567.546875 191.574219 566.621094 192.765625 565.640625 193.902344 C 564.664062 195.039062 563.636719 196.121094 562.566406 197.140625 C 561.496094 198.160156 560.386719 199.117188 559.238281 200.011719 C 558.085938 200.90625 556.898438 201.730469 555.679688 202.488281 C 554.457031 203.246094 553.207031 203.933594 551.929688 204.550781 C 550.652344 205.164062 549.347656 205.707031 548.023438 206.171875 C 546.699219 206.640625 545.359375 207.03125 544 207.34375 C 542.644531 207.65625 541.277344 207.894531 539.898438 208.050781 C 538.519531 208.210938 537.140625 208.289062 535.753906 208.289062 C 534.371094 208.289062 532.988281 208.210938 531.613281 208.050781 C 530.234375 207.894531 528.867188 207.65625 527.507812 207.34375 C 526.152344 207.03125 524.8125 206.640625 523.484375 206.171875 C 522.160156 205.707031 520.859375 205.164062 519.582031 204.550781 C 518.300781 203.933594 517.050781 203.246094 515.832031 202.488281 C 514.609375 201.730469 513.425781 200.90625 512.273438 200.011719 C 511.121094 199.117188 510.011719 198.160156 508.941406 197.140625 C 507.871094 196.121094 506.847656 195.039062 505.871094 193.902344 C 504.890625 192.765625 503.960938 191.574219 503.082031 190.332031 C 502.207031 189.089844 501.382812 187.796875 500.613281 186.460938 C 499.84375 185.125 499.132812 183.746094 498.480469 182.328125 C 497.828125 180.910156 497.238281 179.457031 496.707031 177.96875 C 496.175781 176.484375 495.710938 174.972656 495.308594 173.433594 C 494.90625 171.894531 494.570312 170.335938 494.300781 168.757812 C 494.03125 167.179688 493.828125 165.589844 493.695312 163.988281 C 493.558594 162.390625 493.488281 160.785156 493.488281 159.175781 C 493.488281 157.566406 493.558594 155.964844 493.695312 154.363281 C 493.828125 152.761719 494.03125 151.171875 494.300781 149.59375 C 494.570312 148.015625 494.90625 146.457031 495.308594 144.917969 C 495.710938 143.378906 496.175781 141.867188 496.707031 140.382812 C 497.238281 138.894531 497.828125 137.445312 498.480469 136.023438 C 499.132812 134.605469 499.84375 133.226562 500.613281 131.890625 C 501.382812 130.554688 502.207031 129.261719 503.082031 128.019531 C 503.960938 126.777344 504.890625 125.585938 505.871094 124.449219 C 506.847656 123.3125 507.871094 122.234375 508.941406 121.210938 C 510.011719 120.191406 511.121094 119.234375 512.273438 118.339844 C 513.425781 117.449219 514.609375 116.621094 515.832031 115.863281 C 517.050781 115.105469 518.300781 114.417969 519.582031 113.800781 C 520.859375 113.1875 522.160156 112.644531 523.484375 112.179688 C 524.8125 111.710938 526.152344 111.320312 527.507812 111.007812 C 528.867188 110.695312 530.234375 110.457031 531.613281 110.300781 C 532.988281 110.144531 534.371094 110.0625 535.753906 110.0625 C 537.140625 110.0625 538.519531 110.144531 539.898438 110.300781 C 541.277344 110.457031 542.644531 110.695312 544 111.007812 C 545.359375 111.320312 546.699219 111.710938 548.023438 112.179688 C 549.347656 112.644531 550.652344 113.1875 551.929688 113.800781 C 553.207031 114.417969 554.457031 115.105469 555.679688 115.863281 C 556.898438 116.621094 558.085938 117.449219 559.238281 118.339844 C 560.386719 119.234375 561.496094 120.191406 562.566406 121.210938 C 563.636719 122.234375 564.664062 123.3125 565.640625 124.449219 C 566.621094 125.585938 567.546875 126.777344 568.425781 128.019531 C 569.304688 129.261719 570.128906 130.554688 570.898438 131.890625 C 571.667969 133.226562 572.378906 134.605469 573.03125 136.023438 C 573.683594 137.445312 574.273438 138.894531 574.804688 140.382812 C 575.332031 141.867188 575.796875 143.378906 576.199219 144.917969 C 576.601562 146.457031 576.9375 148.015625 577.207031 149.59375 C 577.476562 151.171875 577.679688 152.761719 577.816406 154.363281 C 577.953125 155.964844 578.019531 157.566406 578.019531 159.175781 Z M 578.019531 159.175781 "/><path style=" stroke:none;fill-rule:nonzero;fill:#f8d26e;fill-opacity:1;" d="M 411.058594 126.605469 L 551.253906 126.605469 L 551.253906 212.570312 L 411.058594 212.570312 Z M 411.058594 126.605469 "/><path style=" stroke:none;fill-rule:nonzero;fill:#f8d26e;fill-opacity:1;" d="M 490.953125 150.050781 C 481.683594 196.453125 561.398438 261.363281 585.632812 244.726562 C 600.476562 234.535156 595.03125 193.367188 589.914062 173.703125 C 586.734375 161.472656 575.082031 116.707031 544.304688 111.71875 C 521.484375 108.023438 495.484375 127.375 490.953125 150.050781 Z M 490.953125 150.050781 "/><path style=" stroke:none;fill-rule:nonzero;fill:#f8d26e;fill-opacity:1;" d="M 449.921875 159.175781 C 449.921875 160.785156 449.851562 162.390625 449.71875 163.988281 C 449.582031 165.589844 449.378906 167.179688 449.109375 168.757812 C 448.839844 170.335938 448.503906 171.894531 448.101562 173.433594 C 447.699219 174.972656 447.234375 176.484375 446.703125 177.96875 C 446.171875 179.457031 445.582031 180.910156 444.929688 182.328125 C 444.277344 183.746094 443.566406 185.125 442.796875 186.460938 C 442.027344 187.796875 441.203125 189.089844 440.328125 190.332031 C 439.449219 191.574219 438.519531 192.765625 437.542969 193.902344 C 436.5625 195.039062 435.539062 196.121094 434.46875 197.140625 C 433.398438 198.160156 432.289062 199.117188 431.136719 200.011719 C 429.984375 200.90625 428.800781 201.730469 427.578125 202.488281 C 426.359375 203.246094 425.109375 203.933594 423.828125 204.550781 C 422.550781 205.164062 421.25 205.707031 419.925781 206.171875 C 418.597656 206.640625 417.257812 207.03125 415.902344 207.34375 C 414.542969 207.65625 413.175781 207.894531 411.796875 208.050781 C 410.421875 208.210938 409.039062 208.289062 407.65625 208.289062 C 406.269531 208.289062 404.890625 208.210938 403.511719 208.050781 C 402.136719 207.894531 400.765625 207.65625 399.410156 207.34375 C 398.050781 207.03125 396.710938 206.640625 395.386719 206.171875 C 394.0625 205.707031 392.761719 205.164062 391.480469 204.550781 C 390.203125 203.933594 388.953125 203.246094 387.730469 202.488281 C 386.511719 201.730469 385.324219 200.90625 384.175781 200.011719 C 383.023438 199.117188 381.914062 198.160156 380.84375 197.140625 C 379.773438 196.121094 378.746094 195.039062 377.769531 193.902344 C 376.789062 192.765625 375.863281 191.574219 374.984375 190.332031 C 374.105469 189.089844 373.28125 187.796875 372.511719 186.460938 C 371.742188 185.125 371.03125 183.746094 370.378906 182.328125 C 369.726562 180.910156 369.136719 179.457031 368.605469 177.96875 C 368.078125 176.484375 367.613281 174.972656 367.210938 173.433594 C 366.808594 171.894531 366.472656 170.335938 366.203125 168.757812 C 365.933594 167.179688 365.730469 165.589844 365.59375 163.988281 C 365.457031 162.390625 365.390625 160.785156 365.390625 159.175781 C 365.390625 157.566406 365.457031 155.964844 365.59375 154.363281 C 365.730469 152.761719 365.933594 151.171875 366.203125 149.59375 C 366.472656 148.015625 366.808594 146.457031 367.210938 144.917969 C 367.613281 143.378906 368.078125 141.867188 368.605469 140.382812 C 369.136719 138.894531 369.726562 137.445312 370.378906 136.023438 C 371.03125 134.605469 371.742188 133.226562 372.511719 131.890625 C 373.28125 130.554688 374.105469 129.261719 374.984375 128.019531 C 375.863281 126.777344 376.789062 125.585938 377.769531 124.449219 C 378.746094 123.3125 379.773438 122.234375 380.84375 121.210938 C 381.914062 120.191406 383.023438 119.234375 384.171875 118.339844 C 385.324219 117.449219 386.511719 116.621094 387.730469 115.863281 C 388.953125 115.105469 390.203125 114.417969 391.480469 113.800781 C 392.761719 113.1875 394.0625 112.644531 395.386719 112.179688 C 396.710938 111.710938 398.050781 111.320312 399.410156 111.007812 C 400.765625 110.695312 402.136719 110.457031 403.511719 110.300781 C 404.890625 110.144531 406.269531 110.0625 407.65625 110.0625 C 409.039062 110.0625 410.421875 110.144531 411.796875 110.300781 C 413.175781 110.457031 414.542969 110.695312 415.902344 111.007812 C 417.257812 111.320312 418.597656 111.710938 419.925781 112.179688 C 421.25 112.644531 422.550781 113.1875 423.828125 113.800781 C 425.109375 114.417969 426.359375 115.105469 427.578125 115.863281 C 428.800781 116.621094 429.984375 117.449219 431.136719 118.339844 C 432.289062 119.234375 433.398438 120.191406 434.46875 121.210938 C 435.539062 122.234375 436.5625 123.3125 437.542969 124.449219 C 438.519531 125.585938 439.449219 126.777344 440.328125 128.019531 C 441.203125 129.261719 442.027344 130.554688 442.796875 131.890625 C 443.566406 133.226562 444.277344 134.605469 444.929688 136.023438 C 445.582031 137.445312 446.171875 138.894531 446.703125 140.382812 C 447.234375 141.867188 447.699219 143.378906 448.101562 144.917969 C 448.503906 146.457031 448.839844 148.015625 449.109375 149.59375 C 449.378906 151.171875 449.582031 152.761719 449.71875 154.363281 C 449.851562 155.964844 449.921875 157.566406 449.921875 159.175781 Z M 449.921875 159.175781 "/><path style=" stroke:none;fill-rule:nonzero;fill:#f8d26e;fill-opacity:1;" d="M 452.457031 150.050781 C 461.726562 196.453125 382.011719 261.363281 357.777344 244.726562 C 342.933594 234.535156 348.378906 193.367188 353.496094 173.703125 C 356.675781 161.472656 368.328125 116.707031 399.105469 111.71875 C 421.925781 108.023438 447.925781 127.375 452.457031 150.050781 Z M 452.457031 150.050781 "/><path style=" stroke:none;fill-rule:nonzero;fill:#f0b44a;fill-opacity:1;" d="M 445.023438 159.175781 C 445.023438 160.398438 444.964844 161.621094 444.84375 162.839844 C 444.722656 164.054688 444.542969 165.265625 444.304688 166.464844 C 444.066406 167.664062 443.769531 168.851562 443.414062 170.023438 C 443.058594 171.191406 442.648438 172.34375 442.179688 173.472656 C 441.710938 174.605469 441.1875 175.710938 440.609375 176.789062 C 440.035156 177.867188 439.40625 178.917969 438.726562 179.933594 C 438.046875 180.953125 437.316406 181.933594 436.542969 182.878906 C 435.765625 183.824219 434.945312 184.730469 434.078125 185.597656 C 433.214844 186.460938 432.308594 187.28125 431.359375 188.058594 C 430.414062 188.835938 429.433594 189.5625 428.414062 190.242188 C 427.398438 190.921875 426.351562 191.550781 425.269531 192.128906 C 424.191406 192.703125 423.085938 193.226562 421.957031 193.695312 C 420.824219 194.164062 419.671875 194.574219 418.503906 194.929688 C 417.332031 195.285156 416.144531 195.582031 414.945312 195.820312 C 413.746094 196.058594 412.535156 196.238281 411.316406 196.359375 C 410.101562 196.480469 408.878906 196.539062 407.65625 196.539062 C 406.429688 196.539062 405.210938 196.480469 403.992188 196.359375 C 402.773438 196.238281 401.566406 196.058594 400.363281 195.820312 C 399.164062 195.582031 397.980469 195.285156 396.808594 194.929688 C 395.636719 194.574219 394.484375 194.164062 393.355469 193.695312 C 392.222656 193.226562 391.121094 192.703125 390.039062 192.128906 C 388.960938 191.550781 387.914062 190.921875 386.894531 190.242188 C 385.878906 189.5625 384.894531 188.835938 383.949219 188.058594 C 383.003906 187.28125 382.097656 186.460938 381.230469 185.597656 C 380.367188 184.730469 379.546875 183.824219 378.769531 182.878906 C 377.992188 181.933594 377.265625 180.953125 376.585938 179.933594 C 375.90625 178.917969 375.277344 177.867188 374.699219 176.789062 C 374.121094 175.710938 373.601562 174.605469 373.132812 173.472656 C 372.664062 172.34375 372.25 171.191406 371.894531 170.023438 C 371.539062 168.851562 371.242188 167.664062 371.003906 166.464844 C 370.765625 165.265625 370.585938 164.054688 370.46875 162.839844 C 370.347656 161.621094 370.285156 160.398438 370.285156 159.175781 C 370.285156 157.953125 370.347656 156.730469 370.46875 155.515625 C 370.585938 154.296875 370.765625 153.085938 371.003906 151.886719 C 371.242188 150.6875 371.539062 149.5 371.894531 148.332031 C 372.25 147.160156 372.664062 146.007812 373.132812 144.878906 C 373.601562 143.746094 374.121094 142.640625 374.699219 141.5625 C 375.277344 140.484375 375.90625 139.4375 376.585938 138.417969 C 377.265625 137.402344 377.992188 136.417969 378.769531 135.472656 C 379.546875 134.527344 380.367188 133.621094 381.230469 132.757812 C 382.097656 131.890625 383.003906 131.070312 383.949219 130.292969 C 384.894531 129.519531 385.878906 128.789062 386.894531 128.109375 C 387.914062 127.429688 388.960938 126.800781 390.039062 126.226562 C 391.121094 125.648438 392.222656 125.125 393.355469 124.65625 C 394.484375 124.1875 395.636719 123.777344 396.808594 123.421875 C 397.980469 123.066406 399.164062 122.769531 400.363281 122.53125 C 401.566406 122.292969 402.773438 122.113281 403.992188 121.992188 C 405.210938 121.871094 406.429688 121.8125 407.65625 121.8125 C 408.878906 121.8125 410.101562 121.871094 411.316406 121.992188 C 412.535156 122.113281 413.746094 122.292969 414.945312 122.53125 C 416.144531 122.769531 417.332031 123.066406 418.503906 123.421875 C 419.671875 123.777344 420.824219 124.1875 421.957031 124.65625 C 423.085938 125.125 424.191406 125.648438 425.269531 126.226562 C 426.351562 126.800781 427.398438 127.429688 428.414062 128.109375 C 429.433594 128.789062 430.414062 129.519531 431.363281 130.292969 C 432.308594 131.070312 433.214844 131.890625 434.078125 132.757812 C 434.945312 133.621094 435.765625 134.527344 436.542969 135.472656 C 437.316406 136.417969 438.046875 137.402344 438.726562 138.417969 C 439.40625 139.4375 440.035156 140.484375 440.609375 141.5625 C 441.1875 142.640625 441.710938 143.746094 442.179688 144.878906 C 442.648438 146.007812 443.058594 147.160156 443.414062 148.332031 C 443.769531 149.5 444.066406 150.6875 444.304688 151.886719 C 444.542969 153.085938 444.722656 154.296875 444.84375 155.515625 C 444.964844 156.730469 445.023438 157.953125 445.023438 159.175781 Z M 445.023438 159.175781 "/><path style=" stroke:none;fill-rule:nonzero;fill:#f0b44a;fill-opacity:1;" d="M 573.125 159.175781 C 573.125 160.398438 573.0625 161.621094 572.945312 162.839844 C 572.824219 164.054688 572.644531 165.265625 572.40625 166.464844 C 572.167969 167.664062 571.871094 168.851562 571.515625 170.023438 C 571.160156 171.191406 570.746094 172.34375 570.277344 173.472656 C 569.8125 174.605469 569.289062 175.710938 568.710938 176.789062 C 568.132812 177.867188 567.503906 178.917969 566.824219 179.933594 C 566.144531 180.953125 565.417969 181.933594 564.640625 182.878906 C 563.863281 183.824219 563.042969 184.730469 562.179688 185.597656 C 561.3125 186.460938 560.40625 187.28125 559.460938 188.058594 C 558.515625 188.835938 557.535156 189.5625 556.515625 190.242188 C 555.5 190.921875 554.449219 191.550781 553.371094 192.128906 C 552.292969 192.703125 551.1875 193.226562 550.054688 193.695312 C 548.925781 194.164062 547.773438 194.574219 546.601562 194.929688 C 545.429688 195.285156 544.246094 195.582031 543.046875 195.820312 C 541.84375 196.058594 540.636719 196.238281 539.417969 196.359375 C 538.199219 196.480469 536.980469 196.539062 535.753906 196.539062 C 534.53125 196.539062 533.308594 196.480469 532.09375 196.359375 C 530.875 196.238281 529.664062 196.058594 528.464844 195.820312 C 527.265625 195.582031 526.078125 195.285156 524.90625 194.929688 C 523.738281 194.574219 522.585938 194.164062 521.453125 193.695312 C 520.324219 193.226562 519.21875 192.703125 518.140625 192.128906 C 517.0625 191.550781 516.011719 190.921875 514.996094 190.242188 C 513.976562 189.5625 512.996094 188.835938 512.050781 188.058594 C 511.101562 187.28125 510.199219 186.460938 509.332031 185.597656 C 508.464844 184.730469 507.644531 183.824219 506.871094 182.878906 C 506.09375 181.933594 505.363281 180.953125 504.683594 179.933594 C 504.003906 178.917969 503.375 177.867188 502.800781 176.789062 C 502.222656 175.710938 501.699219 174.605469 501.230469 173.472656 C 500.761719 172.34375 500.351562 171.191406 499.996094 170.023438 C 499.640625 168.851562 499.34375 167.664062 499.105469 166.464844 C 498.867188 165.265625 498.6875 164.054688 498.566406 162.839844 C 498.445312 161.621094 498.386719 160.398438 498.386719 159.175781 C 498.386719 157.953125 498.445312 156.730469 498.566406 155.515625 C 498.6875 154.296875 498.867188 153.085938 499.105469 151.886719 C 499.34375 150.6875 499.640625 149.5 499.996094 148.332031 C 500.351562 147.160156 500.761719 146.007812 501.230469 144.878906 C 501.699219 143.746094 502.222656 142.640625 502.800781 141.5625 C 503.375 140.484375 504.003906 139.4375 504.683594 138.417969 C 505.363281 137.402344 506.09375 136.417969 506.871094 135.472656 C 507.644531 134.527344 508.464844 133.621094 509.332031 132.757812 C 510.199219 131.890625 511.101562 131.070312 512.050781 130.292969 C 512.996094 129.519531 513.976562 128.789062 514.996094 128.109375 C 516.011719 127.429688 517.0625 126.800781 518.140625 126.226562 C 519.21875 125.648438 520.324219 125.125 521.453125 124.65625 C 522.585938 124.1875 523.738281 123.777344 524.90625 123.421875 C 526.078125 123.066406 527.265625 122.769531 528.464844 122.53125 C 529.664062 122.292969 530.875 122.113281 532.09375 121.992188 C 533.308594 121.871094 534.53125 121.8125 535.753906 121.8125 C 536.980469 121.8125 538.199219 121.871094 539.417969 121.992188 C 540.636719 122.113281 541.84375 122.292969 543.046875 122.53125 C 544.246094 122.769531 545.429688 123.066406 546.601562 123.421875 C 547.773438 123.777344 548.925781 124.1875 550.054688 124.65625 C 551.1875 125.125 552.292969 125.648438 553.371094 126.226562 C 554.449219 126.800781 555.5 127.429688 556.515625 128.109375 C 557.535156 128.789062 558.515625 129.519531 559.460938 130.292969 C 560.40625 131.070312 561.3125 131.890625 562.179688 132.757812 C 563.042969 133.621094 563.863281 134.527344 564.640625 135.472656 C 565.417969 136.417969 566.144531 137.402344 566.824219 138.417969 C 567.503906 139.4375 568.132812 140.484375 568.710938 141.5625 C 569.289062 142.640625 569.8125 143.746094 570.277344 144.878906 C 570.746094 146.007812 571.160156 147.160156 571.515625 148.332031 C 571.871094 149.5 572.167969 150.6875 572.40625 151.886719 C 572.644531 153.085938 572.824219 154.296875 572.945312 155.515625 C 573.0625 156.730469 573.125 157.953125 573.125 159.175781 Z M 573.125 159.175781 "/><path style=" stroke:none;fill-rule:nonzero;fill:#f8d26e;fill-opacity:1;" d="M 417.546875 138.136719 C 417.546875 138.785156 417.484375 139.429688 417.355469 140.066406 C 417.230469 140.703125 417.042969 141.320312 416.792969 141.921875 C 416.546875 142.519531 416.242188 143.089844 415.878906 143.632812 C 415.519531 144.171875 415.109375 144.671875 414.648438 145.128906 C 414.191406 145.589844 413.691406 146 413.152344 146.359375 C 412.609375 146.71875 412.039062 147.023438 411.441406 147.273438 C 410.839844 147.523438 410.222656 147.710938 409.585938 147.835938 C 408.949219 147.964844 408.304688 148.027344 407.65625 148.027344 C 407.003906 148.027344 406.363281 147.964844 405.726562 147.835938 C 405.089844 147.710938 404.46875 147.523438 403.871094 147.273438 C 403.269531 147.023438 402.699219 146.71875 402.160156 146.359375 C 401.621094 146 401.121094 145.589844 400.660156 145.128906 C 400.203125 144.671875 399.792969 144.171875 399.429688 143.632812 C 399.070312 143.089844 398.765625 142.519531 398.515625 141.921875 C 398.269531 141.320312 398.082031 140.703125 397.953125 140.066406 C 397.828125 139.429688 397.765625 138.785156 397.765625 138.136719 C 397.765625 137.488281 397.828125 136.84375 397.953125 136.207031 C 398.082031 135.570312 398.269531 134.953125 398.515625 134.351562 C 398.765625 133.75 399.070312 133.183594 399.429688 132.640625 C 399.792969 132.101562 400.203125 131.601562 400.660156 131.144531 C 401.121094 130.683594 401.621094 130.273438 402.160156 129.914062 C 402.699219 129.550781 403.269531 129.246094 403.871094 129 C 404.46875 128.75 405.089844 128.5625 405.726562 128.4375 C 406.363281 128.308594 407.003906 128.246094 407.65625 128.246094 C 408.304688 128.246094 408.949219 128.308594 409.585938 128.4375 C 410.222656 128.5625 410.839844 128.75 411.441406 129 C 412.039062 129.246094 412.609375 129.550781 413.152344 129.914062 C 413.691406 130.273438 414.191406 130.683594 414.648438 131.144531 C 415.109375 131.601562 415.519531 132.101562 415.878906 132.640625 C 416.242188 133.183594 416.546875 133.75 416.792969 134.351562 C 417.042969 134.953125 417.230469 135.570312 417.355469 136.207031 C 417.484375 136.84375 417.546875 137.488281 417.546875 138.136719 Z M 417.546875 138.136719 "/><path style=" stroke:none;fill-rule:nonzero;fill:#f8d26e;fill-opacity:1;" d="M 417.546875 179.324219 C 417.546875 179.976562 417.484375 180.617188 417.355469 181.253906 C 417.230469 181.890625 417.042969 182.511719 416.792969 183.109375 C 416.546875 183.710938 416.242188 184.28125 415.878906 184.820312 C 415.519531 185.359375 415.109375 185.859375 414.648438 186.320312 C 414.191406 186.777344 413.691406 187.1875 413.152344 187.546875 C 412.609375 187.910156 412.039062 188.214844 411.441406 188.460938 C 410.839844 188.710938 410.222656 188.898438 409.585938 189.023438 C 408.949219 189.152344 408.304688 189.214844 407.65625 189.214844 C 407.003906 189.214844 406.363281 189.152344 405.726562 189.023438 C 405.089844 188.898438 404.46875 188.710938 403.871094 188.460938 C 403.269531 188.214844 402.699219 187.910156 402.160156 187.546875 C 401.621094 187.1875 401.121094 186.777344 400.660156 186.320312 C 400.203125 185.859375 399.792969 185.359375 399.429688 184.820312 C 399.070312 184.28125 398.765625 183.710938 398.515625 183.109375 C 398.269531 182.511719 398.082031 181.890625 397.953125 181.253906 C 397.828125 180.617188 397.765625 179.976562 397.765625 179.324219 C 397.765625 178.675781 397.828125 178.03125 397.953125 177.394531 C 398.082031 176.757812 398.269531 176.140625 398.515625 175.539062 C 398.765625 174.941406 399.070312 174.371094 399.429688 173.832031 C 399.792969 173.289062 400.203125 172.792969 400.660156 172.332031 C 401.121094 171.871094 401.621094 171.460938 402.160156 171.101562 C 402.699219 170.742188 403.269531 170.4375 403.871094 170.1875 C 404.46875 169.941406 405.089844 169.75 405.726562 169.625 C 406.363281 169.5 407.003906 169.433594 407.65625 169.433594 C 408.304688 169.433594 408.949219 169.5 409.585938 169.625 C 410.222656 169.75 410.839844 169.941406 411.441406 170.1875 C 412.039062 170.4375 412.609375 170.742188 413.152344 171.101562 C 413.691406 171.460938 414.191406 171.871094 414.648438 172.332031 C 415.109375 172.792969 415.519531 173.289062 415.878906 173.832031 C 416.242188 174.371094 416.546875 174.941406 416.792969 175.539062 C 417.042969 176.140625 417.230469 176.757812 417.355469 177.394531 C 417.484375 178.03125 417.546875 178.675781 417.546875 179.324219 Z M 417.546875 179.324219 "/><path style=" stroke:none;fill-rule:nonzero;fill:#f8d26e;fill-opacity:1;" d="M 438.144531 158.730469 C 438.144531 159.382812 438.082031 160.023438 437.957031 160.660156 C 437.828125 161.296875 437.640625 161.917969 437.390625 162.515625 C 437.144531 163.117188 436.839844 163.6875 436.476562 164.226562 C 436.117188 164.765625 435.707031 165.265625 435.25 165.726562 C 434.789062 166.183594 434.289062 166.59375 433.75 166.957031 C 433.210938 167.316406 432.640625 167.621094 432.039062 167.871094 C 431.4375 168.117188 430.820312 168.304688 430.183594 168.433594 C 429.546875 168.558594 428.902344 168.621094 428.253906 168.621094 C 427.605469 168.621094 426.960938 168.558594 426.324219 168.433594 C 425.6875 168.304688 425.070312 168.117188 424.46875 167.871094 C 423.867188 167.621094 423.296875 167.316406 422.757812 166.957031 C 422.21875 166.59375 421.71875 166.183594 421.257812 165.726562 C 420.800781 165.265625 420.390625 164.765625 420.03125 164.226562 C 419.667969 163.6875 419.363281 163.117188 419.117188 162.515625 C 418.867188 161.917969 418.679688 161.296875 418.550781 160.660156 C 418.425781 160.023438 418.363281 159.382812 418.363281 158.730469 C 418.363281 158.082031 418.425781 157.441406 418.550781 156.800781 C 418.679688 156.164062 418.867188 155.546875 419.117188 154.949219 C 419.363281 154.347656 419.667969 153.777344 420.03125 153.238281 C 420.390625 152.699219 420.800781 152.199219 421.257812 151.738281 C 421.71875 151.28125 422.21875 150.871094 422.757812 150.507812 C 423.296875 150.148438 423.867188 149.84375 424.46875 149.59375 C 425.070312 149.347656 425.6875 149.160156 426.324219 149.03125 C 426.960938 148.90625 427.605469 148.84375 428.253906 148.84375 C 428.902344 148.84375 429.546875 148.90625 430.183594 149.03125 C 430.820312 149.160156 431.4375 149.347656 432.039062 149.59375 C 432.640625 149.84375 433.210938 150.148438 433.75 150.507812 C 434.289062 150.871094 434.789062 151.28125 435.25 151.738281 C 435.707031 152.199219 436.117188 152.699219 436.476562 153.238281 C 436.839844 153.777344 437.144531 154.347656 437.390625 154.949219 C 437.640625 155.546875 437.828125 156.164062 437.957031 156.800781 C 438.082031 157.441406 438.144531 158.082031 438.144531 158.730469 Z M 438.144531 158.730469 "/><path style=" stroke:none;fill-rule:nonzero;fill:#f8d26e;fill-opacity:1;" d="M 396.949219 158.730469 C 396.949219 159.382812 396.886719 160.023438 396.761719 160.660156 C 396.632812 161.296875 396.445312 161.917969 396.199219 162.515625 C 395.949219 163.117188 395.644531 163.6875 395.285156 164.226562 C 394.921875 164.765625 394.511719 165.265625 394.054688 165.726562 C 393.59375 166.183594 393.09375 166.59375 392.554688 166.957031 C 392.015625 167.316406 391.445312 167.621094 390.84375 167.871094 C 390.246094 168.117188 389.625 168.304688 388.988281 168.433594 C 388.351562 168.558594 387.707031 168.621094 387.058594 168.621094 C 386.410156 168.621094 385.765625 168.558594 385.128906 168.433594 C 384.492188 168.304688 383.875 168.117188 383.273438 167.871094 C 382.675781 167.621094 382.105469 167.316406 381.5625 166.957031 C 381.023438 166.59375 380.523438 166.183594 380.066406 165.726562 C 379.605469 165.265625 379.195312 164.765625 378.835938 164.226562 C 378.472656 163.6875 378.167969 163.117188 377.921875 162.515625 C 377.671875 161.917969 377.484375 161.296875 377.359375 160.660156 C 377.230469 160.023438 377.167969 159.382812 377.167969 158.730469 C 377.167969 158.082031 377.230469 157.441406 377.359375 156.800781 C 377.484375 156.164062 377.671875 155.546875 377.921875 154.949219 C 378.167969 154.347656 378.472656 153.777344 378.835938 153.238281 C 379.195312 152.699219 379.605469 152.199219 380.066406 151.738281 C 380.523438 151.28125 381.023438 150.871094 381.5625 150.507812 C 382.105469 150.148438 382.675781 149.84375 383.273438 149.59375 C 383.875 149.347656 384.492188 149.160156 385.128906 149.03125 C 385.765625 148.90625 386.410156 148.84375 387.058594 148.84375 C 387.707031 148.84375 388.351562 148.90625 388.988281 149.03125 C 389.625 149.160156 390.246094 149.347656 390.84375 149.59375 C 391.445312 149.84375 392.015625 150.148438 392.554688 150.507812 C 393.09375 150.871094 393.59375 151.28125 394.054688 151.738281 C 394.511719 152.199219 394.921875 152.699219 395.285156 153.238281 C 395.644531 153.777344 395.949219 154.347656 396.199219 154.949219 C 396.445312 155.546875 396.632812 156.164062 396.761719 156.800781 C 396.886719 157.441406 396.949219 158.082031 396.949219 158.730469 Z M 396.949219 158.730469 "/><path style=" stroke:none;fill-rule:nonzero;fill:#f8d26e;fill-opacity:1;" d="M 537.945312 186.15625 C 531.445312 186.15625 527.382812 181.308594 527.382812 176.042969 L 527.382812 141.433594 C 527.382812 135.847656 531.910156 131.320312 537.496094 131.320312 C 543.996094 131.320312 548.0625 136.167969 548.0625 141.433594 L 548.0625 176.042969 C 548.0625 181.628906 543.53125 186.15625 537.945312 186.15625 Z M 537.945312 186.15625 "/><path style=" stroke:none;fill-rule:nonzero;fill:#f8d26e;fill-opacity:1;" d="M 510.296875 158.960938 C 510.296875 152.464844 515.148438 148.402344 520.414062 148.402344 L 555.027344 148.402344 C 560.617188 148.402344 565.144531 152.929688 565.144531 158.515625 C 565.144531 165.011719 560.292969 169.078125 555.027344 169.078125 L 520.414062 169.078125 C 514.828125 169.078125 510.296875 164.550781 510.296875 158.960938 Z M 510.296875 158.960938 "/><path style=" stroke:none;fill-rule:nonzero;fill:#f0b44a;fill-opacity:1;" d="M 455.667969 204.441406 L 441.296875 204.441406 C 438.6875 204.441406 436.570312 202.324219 436.570312 199.714844 C 436.570312 196.667969 438.84375 194.777344 441.296875 194.777344 L 455.667969 194.777344 C 458.277344 194.777344 460.394531 196.894531 460.394531 199.503906 C 460.394531 202.550781 458.121094 204.441406 455.667969 204.441406 Z M 455.667969 204.441406 "/><path style=" stroke:none;fill-rule:nonzero;fill:#f0b44a;fill-opacity:1;" d="M 498.824219 204.441406 L 484.457031 204.441406 C 481.84375 204.441406 479.726562 202.324219 479.726562 199.714844 C 479.726562 196.667969 482.003906 194.777344 484.457031 194.777344 L 498.824219 194.777344 C 501.4375 194.777344 503.554688 196.894531 503.554688 199.503906 C 503.554688 202.550781 501.277344 204.441406 498.824219 204.441406 Z M 498.824219 204.441406 "/><path style=" stroke:none;fill-rule:nonzero;fill:#ffffff;fill-opacity:1;" d="M 719 352.34375 L 247.191406 352.34375 C 242.507812 352.34375 238.714844 348.546875 238.714844 343.863281 C 238.714844 338.414062 242.78125 335.011719 247.191406 335.011719 L 719.003906 335.011719 C 723.6875 335.011719 727.480469 338.804688 727.480469 343.488281 C 727.480469 348.9375 723.414062 352.34375 719.003906 352.34375 Z M 719 352.34375 "/><path style=" stroke:none;fill-rule:nonzero;fill:#ffffff;fill-opacity:1;" d="M 719 400.859375 L 247.191406 400.859375 C 242.507812 400.859375 238.714844 397.066406 238.714844 392.382812 C 238.714844 386.933594 242.78125 383.53125 247.191406 383.53125 L 719.003906 383.53125 C 723.6875 383.53125 727.480469 387.324219 727.480469 392.007812 C 727.480469 397.457031 723.414062 400.859375 719.003906 400.859375 Z M 719 400.859375 "/><path style=" stroke:none;fill-rule:nonzero;fill:#ffffff;fill-opacity:1;" d="M 719 449.382812 L 247.191406 449.382812 C 242.507812 449.382812 238.714844 445.585938 238.714844 440.902344 C 238.714844 435.453125 242.78125 432.050781 247.191406 432.050781 L 719.003906 432.050781 C 723.6875 432.050781 727.480469 435.84375 727.480469 440.527344 C 727.480469 445.976562 723.414062 449.382812 719.003906 449.382812 Z M 719 449.382812 "/><path style=" stroke:none;fill-rule:nonzero;fill:#f8d26e;fill-opacity:1;" d="M 424.675781 352.34375 L 247.191406 352.34375 C 242.507812 352.34375 238.710938 348.546875 238.710938 343.863281 C 238.710938 338.414062 242.777344 335.011719 247.191406 335.011719 L 424.675781 335.011719 C 429.359375 335.011719 433.152344 338.804688 433.152344 343.488281 C 433.152344 348.9375 429.085938 352.34375 424.675781 352.34375 Z M 424.675781 352.34375 "/><path style=" stroke:none;fill-rule:nonzero;fill:#f0b44a;fill-opacity:1;" d="M 529.5625 400.859375 L 247.191406 400.859375 C 242.507812 400.859375 238.710938 397.066406 238.710938 392.382812 C 238.710938 386.933594 242.777344 383.53125 247.191406 383.53125 L 529.5625 383.53125 C 534.246094 383.53125 538.042969 387.324219 538.042969 392.007812 C 538.042969 397.457031 533.972656 400.859375 529.5625 400.859375 Z M 529.5625 400.859375 "/><path style=" stroke:none;fill-rule:nonzero;fill:#f8d26e;fill-opacity:1;" d="M 719 449.382812 L 559.730469 449.382812 C 555.046875 449.382812 551.25 445.585938 551.25 440.902344 C 551.25 435.453125 555.320312 432.050781 559.730469 432.050781 L 719 432.050781 C 723.683594 432.050781 727.480469 435.84375 727.480469 440.527344 C 727.480469 445.976562 723.410156 449.382812 719 449.382812 Z M 719 449.382812 "/><path style=" stroke:none;fill-rule:nonzero;fill:#579dc4;fill-opacity:1;" d="M 93.050781 96.53125 L 225.757812 96.53125 C 226.347656 96.53125 226.941406 96.5625 227.53125 96.617188 C 228.121094 96.675781 228.707031 96.765625 229.289062 96.878906 C 229.871094 96.996094 230.445312 97.140625 231.011719 97.3125 C 231.578125 97.484375 232.136719 97.683594 232.683594 97.910156 C 233.234375 98.136719 233.769531 98.390625 234.292969 98.667969 C 234.816406 98.949219 235.324219 99.253906 235.816406 99.582031 C 236.308594 99.914062 236.785156 100.265625 237.242188 100.640625 C 237.703125 101.015625 238.140625 101.414062 238.558594 101.835938 C 238.980469 102.253906 239.375 102.691406 239.753906 103.152344 C 240.128906 103.609375 240.480469 104.085938 240.8125 104.578125 C 241.140625 105.070312 241.445312 105.578125 241.726562 106.101562 C 242.003906 106.625 242.257812 107.160156 242.484375 107.707031 C 242.710938 108.253906 242.910156 108.8125 243.082031 109.378906 C 243.253906 109.949219 243.398438 110.523438 243.515625 111.105469 C 243.628906 111.6875 243.71875 112.269531 243.777344 112.863281 C 243.832031 113.453125 243.863281 114.042969 243.863281 114.636719 L 243.863281 350.917969 C 243.863281 351.511719 243.832031 352.101562 243.777344 352.691406 C 243.71875 353.285156 243.628906 353.867188 243.515625 354.449219 C 243.398438 355.03125 243.253906 355.605469 243.082031 356.175781 C 242.910156 356.742188 242.710938 357.300781 242.484375 357.847656 C 242.257812 358.394531 242.003906 358.929688 241.726562 359.453125 C 241.445312 359.976562 241.140625 360.484375 240.8125 360.976562 C 240.480469 361.46875 240.128906 361.945312 239.753906 362.402344 C 239.375 362.863281 238.980469 363.300781 238.558594 363.71875 C 238.140625 364.140625 237.703125 364.539062 237.242188 364.914062 C 236.785156 365.289062 236.308594 365.640625 235.816406 365.972656 C 235.324219 366.300781 234.816406 366.605469 234.292969 366.886719 C 233.769531 367.164062 233.234375 367.417969 232.683594 367.644531 C 232.136719 367.871094 231.578125 368.070312 231.011719 368.242188 C 230.445312 368.414062 229.871094 368.558594 229.289062 368.675781 C 228.707031 368.789062 228.121094 368.878906 227.53125 368.9375 C 226.941406 368.992188 226.347656 369.023438 225.757812 369.023438 L 93.050781 369.023438 C 92.457031 369.023438 91.867188 368.992188 91.273438 368.9375 C 90.683594 368.878906 90.097656 368.789062 89.515625 368.675781 C 88.9375 368.558594 88.363281 368.414062 87.792969 368.242188 C 87.226562 368.070312 86.667969 367.871094 86.121094 367.644531 C 85.574219 367.417969 85.039062 367.164062 84.515625 366.886719 C 83.992188 366.605469 83.484375 366.300781 82.992188 365.972656 C 82.496094 365.640625 82.023438 365.289062 81.5625 364.914062 C 81.105469 364.539062 80.664062 364.140625 80.246094 363.71875 C 79.828125 363.300781 79.429688 362.863281 79.054688 362.402344 C 78.675781 361.945312 78.324219 361.46875 77.996094 360.976562 C 77.664062 360.484375 77.359375 359.976562 77.082031 359.453125 C 76.800781 358.929688 76.546875 358.394531 76.320312 357.847656 C 76.09375 357.300781 75.894531 356.742188 75.722656 356.175781 C 75.550781 355.605469 75.40625 355.03125 75.289062 354.449219 C 75.175781 353.867188 75.089844 353.285156 75.03125 352.691406 C 74.972656 352.101562 74.941406 351.511719 74.941406 350.917969 L 74.941406 114.636719 C 74.941406 114.042969 74.972656 113.453125 75.03125 112.863281 C 75.089844 112.269531 75.175781 111.6875 75.289062 111.105469 C 75.40625 110.523438 75.550781 109.949219 75.722656 109.378906 C 75.894531 108.8125 76.09375 108.253906 76.320312 107.707031 C 76.546875 107.160156 76.800781 106.625 77.082031 106.101562 C 77.359375 105.578125 77.664062 105.070312 77.996094 104.578125 C 78.324219 104.085938 78.675781 103.609375 79.054688 103.152344 C 79.429688 102.691406 79.828125 102.253906 80.246094 101.835938 C 80.664062 101.414062 81.105469 101.015625 81.5625 100.640625 C 82.023438 100.265625 82.496094 99.914062 82.992188 99.582031 C 83.484375 99.253906 83.992188 98.949219 84.515625 98.667969 C 85.039062 98.390625 85.574219 98.136719 86.121094 97.910156 C 86.667969 97.683594 87.226562 97.484375 87.792969 97.3125 C 88.363281 97.140625 88.9375 96.996094 89.515625 96.878906 C 90.097656 96.765625 90.683594 96.675781 91.273438 96.617188 C 91.867188 96.5625 92.457031 96.53125 93.050781 96.53125 Z M 93.050781 96.53125 "/><path style=" stroke:none;fill-rule:nonzero;fill:#a1d3ec;fill-opacity:1;" d="M 227.5 117.492188 L 201.609375 117.492188 C 199.160156 117.492188 197.175781 115.507812 197.175781 113.058594 C 197.175781 110.21875 199.292969 108.4375 201.609375 108.4375 L 227.5 108.4375 C 229.945312 108.4375 231.929688 110.417969 231.929688 112.867188 C 231.929688 115.707031 229.8125 117.492188 227.5 117.492188 Z M 227.5 117.492188 "/><path style=" stroke:none;fill-rule:nonzero;fill:#a1d3ec;fill-opacity:1;" d="M 114.828125 345.207031 C 113.449219 345.207031 112.332031 344.089844 112.332031 342.710938 L 112.332031 135.394531 C 112.332031 134.015625 113.449219 132.894531 114.828125 132.894531 C 116.207031 132.894531 117.324219 134.015625 117.324219 135.394531 L 117.324219 342.710938 C 117.324219 344.089844 116.207031 345.207031 114.828125 345.207031 Z M 114.828125 345.207031 "/><path style=" stroke:none;fill-rule:nonzero;fill:#a1d3ec;fill-opacity:1;" d="M 229.308594 142.21875 L 127.261719 142.21875 C 125.882812 142.21875 124.761719 141.101562 124.761719 139.722656 C 124.761719 138.34375 125.882812 137.226562 127.261719 137.226562 L 229.308594 137.226562 C 230.6875 137.226562 231.804688 138.34375 231.804688 139.722656 C 231.804688 141.101562 230.6875 142.21875 229.308594 142.21875 Z M 229.308594 142.21875 "/><path style=" stroke:none;fill-rule:nonzero;fill:#a1d3ec;fill-opacity:1;" d="M 201.242188 159.707031 L 127.261719 159.707031 C 125.882812 159.707031 124.761719 158.589844 124.761719 157.210938 C 124.761719 155.832031 125.882812 154.714844 127.261719 154.714844 L 201.242188 154.714844 C 202.621094 154.714844 203.738281 155.832031 203.738281 157.210938 C 203.738281 158.589844 202.621094 159.707031 201.242188 159.707031 Z M 201.242188 159.707031 "/><path style=" stroke:none;fill-rule:nonzero;fill:#a1d3ec;fill-opacity:1;" d="M 178.28125 175.859375 L 127.257812 175.859375 C 125.878906 175.859375 124.761719 174.742188 124.761719 173.363281 C 124.761719 171.984375 125.878906 170.867188 127.257812 170.867188 L 178.28125 170.867188 C 179.660156 170.867188 180.78125 171.984375 180.78125 173.363281 C 180.78125 174.742188 179.660156 175.859375 178.28125 175.859375 Z M 178.28125 175.859375 "/><path style=" stroke:none;fill-rule:nonzero;fill:#a1d3ec;fill-opacity:1;" d="M 104.964844 143.015625 L 87.945312 143.015625 C 86.566406 143.015625 85.449219 141.898438 85.449219 140.519531 C 85.449219 139.140625 86.566406 138.023438 87.945312 138.023438 L 104.964844 138.023438 C 106.34375 138.023438 107.460938 139.140625 107.460938 140.519531 C 107.460938 141.898438 106.34375 143.015625 104.964844 143.015625 Z M 104.964844 143.015625 "/><path style=" stroke:none;fill-rule:nonzero;fill:#a1d3ec;fill-opacity:1;" d="M 104.964844 159.707031 L 87.945312 159.707031 C 86.566406 159.707031 85.449219 158.589844 85.449219 157.210938 C 85.449219 155.832031 86.566406 154.714844 87.945312 154.714844 L 104.964844 154.714844 C 106.34375 154.714844 107.460938 155.832031 107.460938 157.210938 C 107.460938 158.589844 106.34375 159.707031 104.964844 159.707031 Z M 104.964844 159.707031 "/><path style=" stroke:none;fill-rule:nonzero;fill:#a1d3ec;fill-opacity:1;" d="M 229.308594 201.214844 L 127.261719 201.214844 C 125.882812 201.214844 124.761719 200.097656 124.761719 198.71875 C 124.761719 197.339844 125.882812 196.222656 127.261719 196.222656 L 229.308594 196.222656 C 230.6875 196.222656 231.804688 197.339844 231.804688 198.71875 C 231.804688 200.097656 230.6875 201.214844 229.308594 201.214844 Z M 229.308594 201.214844 "/><path style=" stroke:none;fill-rule:nonzero;fill:#a1d3ec;fill-opacity:1;" d="M 201.242188 218.707031 L 127.261719 218.707031 C 125.882812 218.707031 124.761719 217.585938 124.761719 216.207031 C 124.761719 214.828125 125.882812 213.710938 127.261719 213.710938 L 201.242188 213.710938 C 202.621094 213.710938 203.738281 214.828125 203.738281 216.207031 C 203.738281 217.585938 202.621094 218.707031 201.242188 218.707031 Z M 201.242188 218.707031 "/><path style=" stroke:none;fill-rule:nonzero;fill:#a1d3ec;fill-opacity:1;" d="M 178.28125 234.855469 L 127.257812 234.855469 C 125.878906 234.855469 124.761719 233.738281 124.761719 232.359375 C 124.761719 230.980469 125.878906 229.863281 127.257812 229.863281 L 178.28125 229.863281 C 179.660156 229.863281 180.78125 230.980469 180.78125 232.359375 C 180.78125 233.738281 179.660156 234.855469 178.28125 234.855469 Z M 178.28125 234.855469 "/><path style=" stroke:none;fill-rule:nonzero;fill:#a1d3ec;fill-opacity:1;" d="M 104.964844 202.011719 L 87.945312 202.011719 C 86.566406 202.011719 85.449219 200.894531 85.449219 199.515625 C 85.449219 198.136719 86.566406 197.019531 87.945312 197.019531 L 104.964844 197.019531 C 106.34375 197.019531 107.460938 198.136719 107.460938 199.515625 C 107.460938 200.894531 106.34375 202.011719 104.964844 202.011719 Z M 104.964844 202.011719 "/><path style=" stroke:none;fill-rule:nonzero;fill:#a1d3ec;fill-opacity:1;" d="M 104.964844 218.707031 L 87.945312 218.707031 C 86.566406 218.707031 85.449219 217.585938 85.449219 216.207031 C 85.449219 214.828125 86.566406 213.710938 87.945312 213.710938 L 104.964844 213.710938 C 106.34375 213.710938 107.460938 214.828125 107.460938 216.207031 C 107.460938 217.585938 106.34375 218.707031 104.964844 218.707031 Z M 104.964844 218.707031 "/><path style=" stroke:none;fill-rule:nonzero;fill:#a1d3ec;fill-opacity:1;" d="M 229.308594 260.214844 L 127.261719 260.214844 C 125.882812 260.214844 124.761719 259.09375 124.761719 257.714844 C 124.761719 256.335938 125.882812 255.21875 127.261719 255.21875 L 229.308594 255.21875 C 230.6875 255.21875 231.804688 256.335938 231.804688 257.714844 C 231.804688 259.09375 230.6875 260.214844 229.308594 260.214844 Z M 229.308594 260.214844 "/><path style=" stroke:none;fill-rule:nonzero;fill:#a1d3ec;fill-opacity:1;" d="M 201.242188 277.703125 L 127.261719 277.703125 C 125.882812 277.703125 124.761719 276.582031 124.761719 275.203125 C 124.761719 273.824219 125.882812 272.707031 127.261719 272.707031 L 201.242188 272.707031 C 202.621094 272.707031 203.738281 273.824219 203.738281 275.203125 C 203.738281 276.582031 202.621094 277.703125 201.242188 277.703125 Z M 201.242188 277.703125 "/><path style=" stroke:none;fill-rule:nonzero;fill:#a1d3ec;fill-opacity:1;" d="M 178.28125 293.851562 L 127.257812 293.851562 C 125.878906 293.851562 124.761719 292.730469 124.761719 291.355469 C 124.761719 289.976562 125.878906 288.855469 127.257812 288.855469 L 178.28125 288.855469 C 179.660156 288.855469 180.78125 289.976562 180.78125 291.355469 C 180.78125 292.730469 179.660156 293.851562 178.28125 293.851562 Z M 178.28125 293.851562 "/><path style=" stroke:none;fill-rule:nonzero;fill:#a1d3ec;fill-opacity:1;" d="M 104.964844 261.007812 L 87.945312 261.007812 C 86.566406 261.007812 85.449219 259.886719 85.449219 258.507812 C 85.449219 257.128906 86.566406 256.011719 87.945312 256.011719 L 104.964844 256.011719 C 106.34375 256.011719 107.460938 257.128906 107.460938 258.507812 C 107.460938 259.886719 106.34375 261.007812 104.964844 261.007812 Z M 104.964844 261.007812 "/><path style=" stroke:none;fill-rule:nonzero;fill:#a1d3ec;fill-opacity:1;" d="M 104.964844 277.703125 L 87.945312 277.703125 C 86.566406 277.703125 85.449219 276.582031 85.449219 275.203125 C 85.449219 273.824219 86.566406 272.707031 87.945312 272.707031 L 104.964844 272.707031 C 106.34375 272.707031 107.460938 273.824219 107.460938 275.203125 C 107.460938 276.582031 106.34375 277.703125 104.964844 277.703125 Z M 104.964844 277.703125 "/><path style=" stroke:none;fill-rule:nonzero;fill:#a1d3ec;fill-opacity:1;" d="M 237.292969 324.320312 L 135.246094 324.320312 C 133.867188 324.320312 132.75 323.203125 132.75 321.824219 C 132.75 320.445312 133.867188 319.324219 135.246094 319.324219 L 237.292969 319.324219 C 238.671875 319.324219 239.789062 320.445312 239.789062 321.824219 C 239.789062 323.203125 238.671875 324.320312 237.292969 324.320312 Z M 237.292969 324.320312 "/><path style=" stroke:none;fill-rule:nonzero;fill:#a1d3ec;fill-opacity:1;" d="M 209.226562 341.808594 L 135.246094 341.808594 C 133.867188 341.808594 132.75 340.691406 132.75 339.3125 C 132.75 337.933594 133.867188 336.816406 135.246094 336.816406 L 209.226562 336.816406 C 210.605469 336.816406 211.726562 337.933594 211.726562 339.3125 C 211.726562 340.691406 210.605469 341.808594 209.226562 341.808594 Z M 209.226562 341.808594 "/><path style=" stroke:none;fill-rule:nonzero;fill:#a1d3ec;fill-opacity:1;" d="M 186.269531 357.957031 L 135.246094 357.957031 C 133.867188 357.957031 132.75 356.839844 132.75 355.460938 C 132.75 354.082031 133.867188 352.964844 135.246094 352.964844 L 186.269531 352.964844 C 187.648438 352.964844 188.769531 354.082031 188.769531 355.460938 C 188.769531 356.839844 187.648438 357.957031 186.269531 357.957031 Z M 186.269531 357.957031 "/><path style=" stroke:none;fill-rule:nonzero;fill:#a1d3ec;fill-opacity:1;" d="M 112.949219 325.117188 L 95.929688 325.117188 C 94.550781 325.117188 93.433594 323.996094 93.433594 322.617188 C 93.433594 321.238281 94.550781 320.121094 95.929688 320.121094 L 112.949219 320.121094 C 114.328125 320.121094 115.445312 321.238281 115.445312 322.617188 C 115.445312 323.996094 114.328125 325.117188 112.949219 325.117188 Z M 112.949219 325.117188 "/><path style=" stroke:none;fill-rule:nonzero;fill:#a1d3ec;fill-opacity:1;" d="M 112.949219 341.808594 L 95.929688 341.808594 C 94.550781 341.808594 93.433594 340.691406 93.433594 339.3125 C 93.433594 337.933594 94.550781 336.816406 95.929688 336.816406 L 112.949219 336.816406 C 114.328125 336.816406 115.445312 337.933594 115.445312 339.3125 C 115.445312 340.691406 114.328125 341.808594 112.949219 341.808594 Z M 112.949219 341.808594 "/><path style=" stroke:none;fill-rule:nonzero;fill:#579dc4;fill-opacity:1;" d="M 442.695312 345.007812 C 442.695312 345.886719 442.609375 346.757812 442.4375 347.617188 C 442.265625 348.480469 442.011719 349.316406 441.675781 350.125 C 441.339844 350.9375 440.929688 351.707031 440.441406 352.4375 C 439.953125 353.167969 439.398438 353.84375 438.78125 354.460938 C 438.160156 355.082031 437.484375 355.636719 436.753906 356.125 C 436.023438 356.613281 435.253906 357.023438 434.441406 357.359375 C 433.628906 357.695312 432.792969 357.949219 431.933594 358.121094 C 431.070312 358.292969 430.203125 358.378906 429.324219 358.378906 C 428.445312 358.378906 427.578125 358.292969 426.714844 358.121094 C 425.855469 357.949219 425.019531 357.695312 424.207031 357.359375 C 423.398438 357.023438 422.625 356.613281 421.894531 356.125 C 421.167969 355.636719 420.492188 355.082031 419.871094 354.460938 C 419.25 353.84375 418.695312 353.167969 418.207031 352.4375 C 417.71875 351.707031 417.308594 350.9375 416.972656 350.125 C 416.636719 349.316406 416.382812 348.480469 416.210938 347.617188 C 416.039062 346.757812 415.953125 345.886719 415.953125 345.007812 C 415.953125 344.132812 416.039062 343.261719 416.210938 342.402344 C 416.382812 341.539062 416.636719 340.703125 416.972656 339.894531 C 417.308594 339.082031 417.71875 338.3125 418.207031 337.582031 C 418.695312 336.851562 419.25 336.175781 419.871094 335.554688 C 420.492188 334.9375 421.167969 334.382812 421.894531 333.894531 C 422.625 333.40625 423.398438 332.996094 424.207031 332.660156 C 425.019531 332.324219 425.855469 332.070312 426.714844 331.898438 C 427.578125 331.726562 428.445312 331.640625 429.324219 331.640625 C 430.203125 331.640625 431.070312 331.726562 431.933594 331.898438 C 432.792969 332.070312 433.628906 332.324219 434.441406 332.660156 C 435.253906 332.996094 436.023438 333.40625 436.753906 333.894531 C 437.484375 334.382812 438.160156 334.9375 438.78125 335.554688 C 439.398438 336.175781 439.953125 336.851562 440.441406 337.582031 C 440.929688 338.3125 441.339844 339.082031 441.675781 339.894531 C 442.011719 340.703125 442.265625 341.539062 442.4375 342.402344 C 442.609375 343.261719 442.695312 344.132812 442.695312 345.007812 Z M 442.695312 345.007812 "/><path style=" stroke:none;fill-rule:nonzero;fill:#579dc4;fill-opacity:1;" d="M 547.582031 393.527344 C 547.582031 394.40625 547.496094 395.273438 547.328125 396.136719 C 547.15625 396.996094 546.902344 397.832031 546.566406 398.644531 C 546.230469 399.453125 545.816406 400.226562 545.328125 400.957031 C 544.84375 401.683594 544.289062 402.359375 543.667969 402.980469 C 543.046875 403.601562 542.371094 404.15625 541.640625 404.644531 C 540.910156 405.132812 540.140625 405.542969 539.328125 405.878906 C 538.519531 406.214844 537.683594 406.46875 536.820312 406.640625 C 535.960938 406.8125 535.089844 406.898438 534.210938 406.898438 C 533.335938 406.898438 532.464844 406.8125 531.605469 406.640625 C 530.742188 406.46875 529.90625 406.214844 529.097656 405.878906 C 528.285156 405.542969 527.515625 405.132812 526.785156 404.644531 C 526.054688 404.15625 525.378906 403.601562 524.757812 402.980469 C 524.136719 402.359375 523.582031 401.683594 523.09375 400.957031 C 522.609375 400.226562 522.195312 399.453125 521.859375 398.644531 C 521.523438 397.832031 521.269531 396.996094 521.097656 396.136719 C 520.925781 395.273438 520.84375 394.40625 520.84375 393.527344 C 520.84375 392.648438 520.925781 391.78125 521.097656 390.917969 C 521.269531 390.058594 521.523438 389.222656 521.859375 388.410156 C 522.195312 387.601562 522.609375 386.832031 523.09375 386.101562 C 523.582031 385.371094 524.136719 384.695312 524.757812 384.074219 C 525.378906 383.453125 526.054688 382.898438 526.785156 382.410156 C 527.515625 381.925781 528.285156 381.511719 529.097656 381.175781 C 529.90625 380.839844 530.742188 380.585938 531.605469 380.414062 C 532.464844 380.246094 533.335938 380.160156 534.210938 380.160156 C 535.089844 380.160156 535.960938 380.246094 536.820312 380.414062 C 537.683594 380.585938 538.519531 380.839844 539.328125 381.175781 C 540.140625 381.511719 540.910156 381.925781 541.640625 382.410156 C 542.371094 382.898438 543.046875 383.453125 543.667969 384.074219 C 544.289062 384.695312 544.84375 385.371094 545.328125 386.101562 C 545.816406 386.832031 546.230469 387.601562 546.566406 388.410156 C 546.902344 389.222656 547.15625 390.058594 547.328125 390.917969 C 547.496094 391.78125 547.582031 392.648438 547.582031 393.527344 Z M 547.582031 393.527344 "/><path style=" stroke:none;fill-rule:nonzero;fill:#579dc4;fill-opacity:1;" d="M 568.972656 439.378906 C 568.972656 440.257812 568.886719 441.128906 568.714844 441.988281 C 568.542969 442.847656 568.289062 443.683594 567.953125 444.496094 C 567.617188 445.308594 567.207031 446.078125 566.71875 446.808594 C 566.230469 447.539062 565.675781 448.210938 565.054688 448.832031 C 564.4375 449.453125 563.761719 450.007812 563.03125 450.496094 C 562.300781 450.984375 561.53125 451.394531 560.71875 451.730469 C 559.90625 452.066406 559.070312 452.320312 558.210938 452.492188 C 557.347656 452.664062 556.480469 452.75 555.601562 452.75 C 554.722656 452.75 553.855469 452.664062 552.992188 452.492188 C 552.132812 452.320312 551.296875 452.066406 550.484375 451.730469 C 549.675781 451.394531 548.902344 450.984375 548.171875 450.496094 C 547.445312 450.007812 546.769531 449.453125 546.148438 448.832031 C 545.527344 448.210938 544.972656 447.539062 544.484375 446.808594 C 543.996094 446.078125 543.585938 445.308594 543.25 444.496094 C 542.914062 443.683594 542.660156 442.847656 542.488281 441.988281 C 542.316406 441.128906 542.230469 440.257812 542.230469 439.378906 C 542.230469 438.503906 542.316406 437.632812 542.488281 436.773438 C 542.660156 435.910156 542.914062 435.074219 543.25 434.265625 C 543.585938 433.453125 543.996094 432.683594 544.484375 431.953125 C 544.972656 431.222656 545.527344 430.546875 546.148438 429.925781 C 546.769531 429.304688 547.445312 428.75 548.171875 428.265625 C 548.902344 427.777344 549.675781 427.363281 550.484375 427.027344 C 551.296875 426.691406 552.132812 426.4375 552.992188 426.269531 C 553.855469 426.097656 554.722656 426.011719 555.601562 426.011719 C 556.480469 426.011719 557.347656 426.097656 558.210938 426.269531 C 559.070312 426.4375 559.90625 426.691406 560.71875 427.027344 C 561.53125 427.363281 562.300781 427.777344 563.03125 428.265625 C 563.761719 428.75 564.4375 429.304688 565.054688 429.925781 C 565.675781 430.546875 566.230469 431.222656 566.71875 431.953125 C 567.207031 432.683594 567.617188 433.453125 567.953125 434.265625 C 568.289062 435.074219 568.542969 435.910156 568.714844 436.773438 C 568.886719 437.632812 568.972656 438.503906 568.972656 439.378906 Z M 568.972656 439.378906 "/><path style=" stroke:none;fill-rule:nonzero;fill:#579dc4;fill-opacity:1;" d="M 690.46875 117.777344 L 775.183594 117.777344 C 775.761719 117.777344 776.335938 117.835938 776.90625 117.949219 C 777.472656 118.0625 778.027344 118.230469 778.5625 118.453125 C 779.097656 118.671875 779.605469 118.945312 780.089844 119.265625 C 780.570312 119.589844 781.015625 119.953125 781.425781 120.363281 C 781.835938 120.773438 782.203125 121.21875 782.523438 121.703125 C 782.847656 122.183594 783.117188 122.691406 783.339844 123.230469 C 783.5625 123.765625 783.730469 124.316406 783.84375 124.882812 C 783.953125 125.453125 784.011719 126.027344 784.011719 126.605469 L 784.011719 255.582031 C 784.011719 256.164062 783.953125 256.738281 783.84375 257.304688 C 783.730469 257.875 783.5625 258.425781 783.339844 258.960938 C 783.117188 259.496094 782.847656 260.003906 782.523438 260.488281 C 782.203125 260.96875 781.835938 261.414062 781.425781 261.824219 C 781.015625 262.234375 780.570312 262.601562 780.085938 262.921875 C 779.605469 263.246094 779.097656 263.515625 778.5625 263.738281 C 778.027344 263.960938 777.472656 264.128906 776.90625 264.242188 C 776.335938 264.355469 775.761719 264.410156 775.183594 264.410156 L 690.46875 264.410156 C 689.890625 264.410156 689.316406 264.355469 688.746094 264.242188 C 688.179688 264.128906 687.625 263.960938 687.089844 263.738281 C 686.554688 263.515625 686.046875 263.246094 685.5625 262.921875 C 685.082031 262.601562 684.636719 262.234375 684.226562 261.824219 C 683.816406 261.414062 683.449219 260.96875 683.128906 260.488281 C 682.804688 260.003906 682.535156 259.496094 682.3125 258.960938 C 682.089844 258.425781 681.921875 257.875 681.808594 257.304688 C 681.695312 256.738281 681.640625 256.164062 681.640625 255.582031 L 681.640625 126.605469 C 681.640625 126.027344 681.695312 125.453125 681.808594 124.882812 C 681.921875 124.316406 682.089844 123.765625 682.3125 123.230469 C 682.535156 122.691406 682.804688 122.183594 683.128906 121.703125 C 683.449219 121.21875 683.816406 120.773438 684.226562 120.363281 C 684.636719 119.953125 685.082031 119.589844 685.5625 119.265625 C 686.046875 118.945312 686.554688 118.671875 687.089844 118.453125 C 687.625 118.230469 688.179688 118.0625 688.746094 117.949219 C 689.316406 117.835938 689.890625 117.777344 690.46875 117.777344 Z M 690.46875 117.777344 "/><path style=" stroke:none;fill-rule:nonzero;fill:#e78d44;fill-opacity:1;" d="M 695.359375 132.417969 L 728.542969 132.417969 L 728.542969 165.601562 L 695.359375 165.601562 Z M 695.359375 132.417969 "/><path style=" stroke:none;fill-rule:nonzero;fill:#f0b44a;fill-opacity:1;" d="M 736.140625 132.417969 L 769.324219 132.417969 L 769.324219 165.601562 L 736.140625 165.601562 Z M 736.140625 132.417969 "/><path style=" stroke:none;fill-rule:nonzero;fill:#f0b44a;fill-opacity:1;" d="M 695.359375 174.707031 L 728.542969 174.707031 L 728.542969 207.890625 L 695.359375 207.890625 Z M 695.359375 174.707031 "/><path style=" stroke:none;fill-rule:nonzero;fill:#f8d26e;fill-opacity:1;" d="M 736.140625 174.707031 L 769.324219 174.707031 L 769.324219 207.890625 L 736.140625 207.890625 Z M 736.140625 174.707031 "/><path style=" stroke:none;fill-rule:nonzero;fill:#204f7f;fill-opacity:1;" d="M 695.359375 216.996094 L 728.542969 216.996094 L 728.542969 250.179688 L 695.359375 250.179688 Z M 695.359375 216.996094 "/><path style=" stroke:none;fill-rule:nonzero;fill:#a1d3ec;fill-opacity:1;" d="M 736.140625 216.996094 L 769.324219 216.996094 L 769.324219 250.179688 L 736.140625 250.179688 Z M 736.140625 216.996094 "/><path style=" stroke:none;fill-rule:nonzero;fill:#f7cfbd;fill-opacity:1;" d="M 215.75 357.011719 C 218.414062 358.019531 222.367188 359.695312 226.808594 362.335938 C 253.261719 378.070312 262.273438 407.355469 267.046875 422.253906 C 278.277344 457.296875 295.480469 504.570312 316.324219 563.585938 C 359.25 574.316406 402.175781 585.046875 445.105469 595.773438 C 443.691406 601.929688 442.28125 608.085938 440.867188 614.242188 C 421.734375 615.617188 392.972656 616.234375 358.515625 611.191406 C 320.390625 605.609375 301.289062 603.082031 284.808594 589.675781 C 266.359375 574.667969 258.332031 550.644531 242.277344 502.59375 C 226.738281 456.085938 217.683594 408.046875 215.75 357.011719 Z M 215.75 357.011719 "/><path style=" stroke:none;fill-rule:nonzero;fill:#2e355c;fill-opacity:1;" d="M 112.3125 247.78125 C 104.515625 256.761719 76.050781 342.660156 39.449219 336.558594 C 2.851562 330.460938 0.140625 346.722656 0.140625 346.722656 L 6.238281 357.011719 C 6.238281 357.011719 11.492188 349.402344 24.203125 349.585938 C 24.203125 349.585938 12.339844 354.007812 8.953125 366.039062 C 8.953125 366.039062 16.914062 412.585938 54.53125 416.929688 C 80.027344 414.40625 92.316406 405.105469 98.757812 397.71875 C 127.210938 365.109375 93.953125 309.582031 134.613281 242.089844 C 129.988281 242.425781 118.980469 240.101562 112.3125 247.777344 Z M 112.3125 247.78125 "/><path style=" stroke:none;fill-rule:nonzero;fill:#f7cfbd;fill-opacity:1;" d="M 124.523438 354.691406 L 132.351562 293.515625 L 163.84375 297.542969 L 156.019531 358.71875 Z M 124.523438 354.691406 "/><path style=" stroke:none;fill-rule:nonzero;fill:#2e355c;fill-opacity:1;" d="M 138.390625 312.984375 C 138.390625 312.984375 138.296875 332.222656 158.632812 338.230469 L 161.347656 317.015625 Z M 138.390625 312.984375 "/><path style=" stroke:none;fill-rule:nonzero;fill:#f7cfbd;fill-opacity:1;" d="M 188.84375 281.117188 C 188.84375 282.113281 188.796875 283.105469 188.699219 284.097656 C 188.601562 285.085938 188.457031 286.070312 188.261719 287.046875 C 188.066406 288.023438 187.824219 288.988281 187.535156 289.941406 C 187.246094 290.894531 186.914062 291.828125 186.53125 292.75 C 186.148438 293.667969 185.726562 294.566406 185.253906 295.445312 C 184.785156 296.324219 184.273438 297.175781 183.722656 298.003906 C 183.167969 298.832031 182.578125 299.628906 181.945312 300.398438 C 181.3125 301.167969 180.644531 301.90625 179.941406 302.609375 C 179.238281 303.316406 178.5 303.980469 177.730469 304.613281 C 176.960938 305.246094 176.164062 305.835938 175.335938 306.390625 C 174.507812 306.945312 173.652344 307.457031 172.773438 307.925781 C 171.898438 308.394531 171 308.820312 170.078125 309.199219 C 169.160156 309.582031 168.222656 309.914062 167.269531 310.203125 C 166.316406 310.492188 165.351562 310.734375 164.375 310.929688 C 163.398438 311.125 162.414062 311.269531 161.425781 311.367188 C 160.433594 311.464844 159.441406 311.515625 158.445312 311.515625 C 157.449219 311.515625 156.457031 311.464844 155.464844 311.367188 C 154.472656 311.269531 153.488281 311.125 152.511719 310.929688 C 151.535156 310.734375 150.570312 310.492188 149.621094 310.203125 C 148.667969 309.914062 147.730469 309.582031 146.808594 309.199219 C 145.890625 308.820312 144.992188 308.394531 144.113281 307.925781 C 143.234375 307.457031 142.382812 306.945312 141.554688 306.390625 C 140.726562 305.835938 139.925781 305.246094 139.15625 304.613281 C 138.386719 303.980469 137.652344 303.316406 136.949219 302.609375 C 136.242188 301.90625 135.574219 301.167969 134.945312 300.398438 C 134.3125 299.628906 133.71875 298.832031 133.167969 298.003906 C 132.613281 297.175781 132.101562 296.324219 131.632812 295.445312 C 131.164062 294.566406 130.738281 293.667969 130.355469 292.75 C 129.976562 291.828125 129.640625 290.894531 129.351562 289.941406 C 129.0625 288.988281 128.820312 288.023438 128.628906 287.046875 C 128.433594 286.070312 128.289062 285.085938 128.191406 284.097656 C 128.09375 283.105469 128.042969 282.113281 128.042969 281.117188 C 128.042969 280.121094 128.09375 279.128906 128.191406 278.136719 C 128.289062 277.148438 128.433594 276.164062 128.628906 275.1875 C 128.820312 274.210938 129.0625 273.246094 129.351562 272.292969 C 129.640625 271.339844 129.976562 270.402344 130.355469 269.484375 C 130.738281 268.5625 131.164062 267.664062 131.632812 266.789062 C 132.101562 265.910156 132.613281 265.058594 133.167969 264.230469 C 133.71875 263.402344 134.3125 262.601562 134.945312 261.832031 C 135.574219 261.0625 136.242188 260.328125 136.949219 259.621094 C 137.652344 258.917969 138.386719 258.25 139.15625 257.621094 C 139.925781 256.988281 140.726562 256.394531 141.554688 255.84375 C 142.382812 255.289062 143.234375 254.777344 144.113281 254.308594 C 144.992188 253.839844 145.890625 253.414062 146.808594 253.035156 C 147.730469 252.652344 148.667969 252.316406 149.621094 252.027344 C 150.570312 251.738281 151.535156 251.496094 152.511719 251.304688 C 153.488281 251.109375 154.472656 250.964844 155.464844 250.867188 C 156.457031 250.769531 157.449219 250.71875 158.445312 250.71875 C 159.441406 250.71875 160.433594 250.769531 161.425781 250.867188 C 162.414062 250.964844 163.398438 251.109375 164.375 251.304688 C 165.351562 251.496094 166.316406 251.738281 167.269531 252.027344 C 168.222656 252.316406 169.160156 252.652344 170.078125 253.035156 C 171 253.414062 171.898438 253.839844 172.773438 254.308594 C 173.652344 254.777344 174.507812 255.289062 175.335938 255.84375 C 176.164062 256.394531 176.960938 256.988281 177.730469 257.621094 C 178.5 258.25 179.238281 258.917969 179.941406 259.621094 C 180.644531 260.328125 181.3125 261.0625 181.945312 261.832031 C 182.578125 262.601562 183.167969 263.402344 183.722656 264.230469 C 184.273438 265.058594 184.785156 265.910156 185.253906 266.789062 C 185.726562 267.664062 186.148438 268.5625 186.53125 269.484375 C 186.914062 270.402344 187.246094 271.339844 187.535156 272.292969 C 187.824219 273.246094 188.066406 274.210938 188.261719 275.1875 C 188.457031 276.164062 188.601562 277.148438 188.699219 278.136719 C 188.796875 279.128906 188.84375 280.121094 188.84375 281.117188 Z M 188.84375 281.117188 "/><path style=" stroke:none;fill-rule:nonzero;fill:#f7cfbd;fill-opacity:1;" d="M 188.078125 287.914062 C 187.570312 293.949219 184.507812 326.898438 170.300781 329.8125 C 169.5625 329.964844 168.71875 330.050781 167.257812 329.957031 C 152.796875 329.035156 139.214844 314.441406 132.910156 306.824219 Z M 188.078125 287.914062 "/><path style=" stroke:none;fill-rule:nonzero;fill:#fef9df;fill-opacity:1;" d="M 143 339.78125 L 50.414062 363.226562 C 38.519531 366.242188 31.535156 378.550781 35.046875 390.300781 L 95.03125 591.03125 L 248.886719 591.03125 L 237.832031 383.453125 C 237.152344 370.722656 228.164062 359.953125 215.753906 357.011719 L 143.003906 339.777344 Z M 143 339.78125 "/><g clip-rule="nonzero" clip-path="url(#7676a4b2b6)"><path style=" stroke:none;fill-rule:nonzero;fill:#e78d44;fill-opacity:1;" d="M 95.027344 591.03125 C 95.027344 591.03125 45.890625 714.371094 63.171875 794.171875 L 333.609375 794.171875 L 248.886719 591.03125 Z M 95.027344 591.03125 "/></g><path style=" stroke:none;fill-rule:nonzero;fill:#2e355c;fill-opacity:1;" d="M 257.359375 611.347656 C 229.167969 614.128906 205.519531 614.6875 187.980469 614.574219 C 157.917969 614.378906 149.242188 612.234375 141.144531 608.273438 C 127.320312 601.515625 119.496094 591.296875 104.421875 571.144531 C 96.363281 560.367188 85.574219 544.546875 74.941406 523.8125 C 65.820312 495.617188 56.703125 467.425781 47.582031 439.230469 L 161.34375 589.375 L 257.355469 611.34375 Z M 257.359375 611.347656 "/><path style=" stroke:none;fill-rule:nonzero;fill:#2e355c;fill-opacity:1;" d="M 95.027344 591.03125 L 85.457031 618.066406 C 117.917969 616.628906 150.378906 615.183594 182.839844 613.746094 C 169.855469 604.546875 156.867188 595.347656 143.882812 586.144531 L 95.03125 591.03125 Z M 95.027344 591.03125 "/><path style=" stroke:none;fill-rule:nonzero;fill:#f7cfbd;fill-opacity:1;" d="M 63.660156 359.875 C 96.484375 425.632812 129.304688 491.390625 162.128906 557.152344 C 221.660156 568.671875 281.191406 580.195312 340.722656 591.710938 C 339.707031 599.394531 338.691406 607.074219 337.675781 614.753906 C 313.503906 614.375 278.175781 613.238281 235.503906 609.691406 C 181.269531 605.1875 154.15625 602.929688 139.761719 595.78125 C 112.316406 582.144531 90.738281 534.507812 47.585938 439.234375 C 37.121094 416.128906 25.671875 389.484375 37.792969 372.941406 C 44.257812 364.125 55.273438 361.046875 63.664062 359.875 Z M 63.660156 359.875 "/><path style=" stroke:none;fill-rule:nonzero;fill:#204f7f;fill-opacity:1;" d="M 402.339844 626.917969 L 608.253906 626.917969 C 612.285156 626.917969 615.679688 623.902344 616.15625 619.902344 L 634.265625 467.605469 C 634.832031 462.871094 631.132812 458.710938 626.363281 458.710938 L 416.171875 458.710938 C 412.058594 458.710938 408.621094 461.847656 408.25 465.945312 L 394.414062 618.246094 C 393.992188 622.902344 397.660156 626.917969 402.339844 626.917969 Z M 402.339844 626.917969 "/><path style=" stroke:none;fill-rule:nonzero;fill:#204f7f;fill-opacity:1;" d="M 334.261719 623.03125 L 611.902344 623.03125 C 612.164062 623.03125 612.421875 623.054688 612.679688 623.105469 C 612.933594 623.15625 613.183594 623.234375 613.425781 623.332031 C 613.667969 623.433594 613.894531 623.554688 614.113281 623.699219 C 614.328125 623.84375 614.53125 624.011719 614.714844 624.195312 C 614.898438 624.378906 615.066406 624.578125 615.210938 624.796875 C 615.355469 625.015625 615.476562 625.242188 615.578125 625.484375 C 615.675781 625.726562 615.753906 625.972656 615.804688 626.230469 C 615.855469 626.484375 615.878906 626.746094 615.878906 627.003906 L 615.878906 633.726562 C 615.878906 633.988281 615.855469 634.246094 615.804688 634.503906 C 615.753906 634.757812 615.675781 635.007812 615.578125 635.25 C 615.476562 635.488281 615.355469 635.71875 615.210938 635.9375 C 615.066406 636.152344 614.898438 636.355469 614.714844 636.539062 C 614.53125 636.722656 614.328125 636.886719 614.113281 637.03125 C 613.894531 637.179688 613.667969 637.300781 613.425781 637.398438 C 613.183594 637.5 612.933594 637.574219 612.679688 637.625 C 612.421875 637.675781 612.164062 637.703125 611.902344 637.703125 L 334.261719 637.703125 C 334 637.703125 333.742188 637.675781 333.484375 637.625 C 333.230469 637.574219 332.980469 637.5 332.738281 637.398438 C 332.5 637.300781 332.269531 637.179688 332.054688 637.03125 C 331.835938 636.886719 331.636719 636.722656 331.449219 636.539062 C 331.265625 636.355469 331.101562 636.152344 330.957031 635.9375 C 330.8125 635.71875 330.6875 635.488281 330.589844 635.25 C 330.488281 635.007812 330.414062 634.757812 330.363281 634.503906 C 330.3125 634.246094 330.285156 633.988281 330.285156 633.726562 L 330.285156 627.003906 C 330.285156 626.746094 330.3125 626.484375 330.363281 626.230469 C 330.414062 625.972656 330.488281 625.726562 330.589844 625.484375 C 330.6875 625.242188 330.8125 625.015625 330.957031 624.796875 C 331.101562 624.578125 331.265625 624.378906 331.449219 624.195312 C 331.636719 624.011719 331.835938 623.84375 332.054688 623.699219 C 332.269531 623.554688 332.5 623.433594 332.738281 623.332031 C 332.980469 623.234375 333.230469 623.15625 333.484375 623.105469 C 333.742188 623.054688 334 623.03125 334.261719 623.03125 Z M 334.261719 623.03125 "/><path style=" stroke:none;fill-rule:nonzero;fill:#ffffff;fill-opacity:1;" d="M 534.203125 544.089844 C 534.203125 545.074219 534.105469 546.050781 533.914062 547.015625 C 533.722656 547.980469 533.4375 548.921875 533.058594 549.832031 C 532.683594 550.738281 532.21875 551.605469 531.671875 552.421875 C 531.125 553.242188 530.503906 554 529.808594 554.695312 C 529.109375 555.394531 528.351562 556.015625 527.535156 556.5625 C 526.714844 557.109375 525.851562 557.570312 524.941406 557.949219 C 524.03125 558.324219 523.09375 558.609375 522.125 558.800781 C 521.160156 558.992188 520.183594 559.089844 519.199219 559.089844 C 518.214844 559.089844 517.238281 558.992188 516.273438 558.800781 C 515.304688 558.609375 514.367188 558.324219 513.457031 557.949219 C 512.546875 557.570312 511.683594 557.109375 510.863281 556.5625 C 510.046875 556.015625 509.289062 555.394531 508.589844 554.695312 C 507.894531 554 507.273438 553.242188 506.726562 552.421875 C 506.179688 551.605469 505.714844 550.738281 505.339844 549.832031 C 504.960938 548.921875 504.675781 547.980469 504.484375 547.015625 C 504.292969 546.050781 504.195312 545.074219 504.195312 544.089844 C 504.195312 543.105469 504.292969 542.128906 504.484375 541.164062 C 504.675781 540.199219 504.960938 539.257812 505.339844 538.351562 C 505.714844 537.441406 506.179688 536.574219 506.726562 535.757812 C 507.273438 534.9375 507.894531 534.179688 508.589844 533.484375 C 509.289062 532.785156 510.046875 532.164062 510.863281 531.617188 C 511.683594 531.070312 512.546875 530.609375 513.457031 530.230469 C 514.367188 529.855469 515.304688 529.570312 516.273438 529.378906 C 517.238281 529.1875 518.214844 529.089844 519.199219 529.089844 C 520.183594 529.089844 521.160156 529.1875 522.125 529.378906 C 523.09375 529.570312 524.03125 529.855469 524.941406 530.230469 C 525.851562 530.609375 526.714844 531.070312 527.535156 531.617188 C 528.351562 532.164062 529.109375 532.785156 529.808594 533.484375 C 530.503906 534.179688 531.125 534.9375 531.671875 535.757812 C 532.21875 536.574219 532.683594 537.441406 533.058594 538.351562 C 533.4375 539.257812 533.722656 540.199219 533.914062 541.164062 C 534.105469 542.128906 534.203125 543.105469 534.203125 544.089844 Z M 534.203125 544.089844 "/><g clip-rule="nonzero" clip-path="url(#2076898c79)"><path style=" stroke:none;fill-rule:nonzero;fill:#f8d26e;fill-opacity:1;" d="M 203.472656 646.605469 L 226.855469 646.605469 L 226.855469 794.171875 L 203.472656 794.171875 Z M 203.472656 646.605469 "/></g><g clip-rule="nonzero" clip-path="url(#5fd6db8a8f)"><path style=" stroke:none;fill-rule:nonzero;fill:#f8d26e;fill-opacity:1;" d="M 629.726562 646.605469 L 653.109375 646.605469 L 653.109375 794.171875 L 629.726562 794.171875 Z M 629.726562 646.605469 "/></g><path style=" stroke:none;fill-rule:nonzero;fill:#f8d26e;fill-opacity:1;" d="M 152.433594 637.703125 L 703.421875 637.703125 L 703.421875 662.042969 L 152.433594 662.042969 Z M 152.433594 637.703125 "/><path style=" stroke:none;fill-rule:nonzero;fill:#fef9df;fill-opacity:1;" d="M 70.195312 358.21875 C 70.195312 358.21875 25.046875 360.871094 28.605469 393.148438 C 32.160156 425.421875 67.269531 498.144531 67.269531 498.144531 L 123.125 469.082031 Z M 70.195312 358.21875 "/><path style=" stroke:none;fill-rule:nonzero;fill:#fef9df;fill-opacity:1;" d="M 204.773438 354.414062 C 204.773438 354.414062 234.988281 357.0625 251.9375 382.304688 C 268.882812 407.550781 285.65625 454.140625 285.65625 454.140625 L 242.554688 472.140625 L 204.773438 354.417969 Z M 204.773438 354.414062 "/><path style=" stroke:none;fill-rule:nonzero;fill:#f7cfbd;fill-opacity:1;" d="M 143 339.78125 L 116.574219 346.472656 C 116.574219 346.472656 147.8125 375.949219 168.738281 345.878906 Z M 143 339.78125 "/><path style=" stroke:none;fill-rule:nonzero;fill:#f7cfbd;fill-opacity:1;" d="M 371.480469 601.28125 C 367.539062 596.964844 340.726562 591.710938 340.726562 591.710938 C 336.234375 599.324219 331.742188 606.941406 327.246094 614.550781 C 330.722656 614.617188 334.199219 614.683594 337.675781 614.753906 C 339.523438 616.027344 342.617188 617.804688 346.679688 618.398438 C 355.449219 619.679688 359.273438 614.054688 367.15625 614.753906 C 376.484375 615.574219 380.691406 623.867188 382.660156 623.03125 C 387.109375 621.144531 375.417969 605.601562 371.476562 601.285156 Z M 371.480469 601.28125 "/><path style=" stroke:none;fill-rule:nonzero;fill:#2e355c;fill-opacity:1;" d="M 127.875 291.019531 C 131.554688 293.917969 134.324219 294.3125 136.285156 294 C 144.121094 292.765625 149.867188 278.621094 149.867188 278.621094 L 161.347656 280.027344 C 161.347656 280.027344 169.386719 272.660156 170.90625 260.386719 C 170.90625 260.386719 177.839844 268.015625 176.125 281.113281 L 186.417969 282.050781 L 187.4375 294.003906 C 187.4375 294.003906 194.992188 281.195312 194.757812 269.972656 C 194.523438 258.75 186.804688 239.222656 168.566406 243.082031 C 168.566406 243.082031 141.324219 236.183594 129.042969 244.71875 C 116.765625 253.253906 121.753906 291.320312 121.753906 291.320312 L 126.9375 294.003906 C 127.25 293.007812 127.5625 292.011719 127.875 291.015625 Z M 127.875 291.019531 "/><path style=" stroke:none;fill-rule:nonzero;fill:#f7cfbd;fill-opacity:1;" d="M 138.957031 304.601562 C 136.324219 307.648438 132.402344 307.589844 129.933594 305.453125 L 123.003906 299.464844 C 120.386719 297.203125 120.097656 293.242188 122.359375 290.621094 C 124.992188 287.574219 128.917969 287.632812 131.386719 289.769531 L 138.316406 295.757812 C 140.933594 298.023438 141.222656 301.980469 138.957031 304.601562 Z M 138.957031 304.601562 "/><path style=" stroke:none;fill-rule:nonzero;fill:#2e355c;fill-opacity:1;" d="M 119.195312 471.128906 L 78.054688 505.601562 L 73.117188 495.101562 Z M 119.195312 471.128906 "/><path style=" stroke:none;fill-rule:nonzero;fill:#2e355c;fill-opacity:1;" d="M 278.691406 457.046875 L 243.296875 486.117188 L 242.554688 472.136719 Z M 278.691406 457.046875 "/><path style=" stroke:none;fill-rule:nonzero;fill:#2e355c;fill-opacity:1;" d="M 118.441406 471.480469 L 75.011719 378.382812 C 74.816406 377.96875 75 377.472656 75.414062 377.277344 C 75.828125 377.082031 76.324219 377.261719 76.519531 377.679688 L 119.945312 470.777344 C 120.414062 471.773438 118.902344 472.476562 118.4375 471.480469 Z M 118.441406 471.480469 "/><path style=" stroke:none;fill-rule:nonzero;fill:#2e355c;fill-opacity:1;" d="M 242.554688 472.96875 C 242.113281 472.96875 241.742188 472.625 241.722656 472.179688 L 237.882812 392.050781 C 237.832031 390.992188 239.492188 390.804688 239.546875 391.96875 L 243.386719 472.097656 C 243.394531 472.273438 243.273438 472.972656 242.554688 472.972656 Z M 242.554688 472.96875 "/><path style=" stroke:none;fill-rule:nonzero;fill:#2e355c;fill-opacity:1;" d="M 380.640625 614.609375 C 380.277344 614.609375 379.949219 614.367188 379.84375 614.003906 C 373.40625 591.683594 341.082031 592.523438 340.753906 592.542969 L 273.78125 579.503906 C 273.328125 579.414062 273.035156 578.976562 273.125 578.527344 C 273.210938 578.074219 273.652344 577.785156 274.101562 577.867188 L 340.796875 590.878906 C 342.808594 590.84375 374.828125 590.609375 381.445312 613.546875 C 381.597656 614.078125 381.199219 614.609375 380.644531 614.609375 Z M 380.640625 614.609375 "/><path style=" stroke:none;fill-rule:nonzero;fill:#2e355c;fill-opacity:1;" d="M 203.472656 662.039062 L 226.855469 662.039062 L 226.855469 675.242188 L 203.472656 675.242188 Z M 203.472656 662.039062 "/><path style=" stroke:none;fill-rule:nonzero;fill:#2e355c;fill-opacity:1;" d="M 629.726562 662.039062 L 653.109375 662.039062 L 653.109375 675.242188 L 629.726562 675.242188 Z M 629.726562 662.039062 "/></g></svg>