<svg xmlns="http://www.w3.org/2000/svg" xmlns:xlink="http://www.w3.org/1999/xlink" width="1080" zoomAndPan="magnify" viewBox="0 0 810 809.999993" height="1080" preserveAspectRatio="xMidYMid meet" version="1.2"><g id="19f761f643"><path style=" stroke:none;fill-rule:nonzero;fill:#64c8f0;fill-opacity:1;" d="M 506.25 135 L 438.75 67.5 L 438.75 101.25 L 270 101.25 L 270 0 L 0 0 L 0 270 L 101.25 270 L 101.25 236.25 C 101.25 217.609375 116.359375 202.5 135 202.5 C 153.640625 202.5 168.75 217.609375 168.75 236.25 L 168.75 270 L 270 270 L 270 168.75 L 438.75 168.75 L 438.75 202.5 Z M 506.25 135 "/><path style=" stroke:none;fill-rule:nonzero;fill:#3cc8b4;fill-opacity:1;" d="M 810 270 L 810 0 L 540 0 L 540 101.25 L 573.75 101.25 C 592.390625 101.25 607.5 116.359375 607.5 135 C 607.5 153.640625 592.390625 168.75 573.75 168.75 L 540 168.75 L 540 270 L 641.25 270 L 641.25 438.75 L 607.5 438.75 L 675 506.25 L 742.5 438.75 L 708.75 438.75 L 708.75 270 Z M 810 270 "/><path style=" stroke:none;fill-rule:nonzero;fill:#fab400;fill-opacity:1;" d="M 708.75 540 L 708.75 573.75 C 708.75 592.390625 693.640625 607.5 675 607.5 C 656.359375 607.5 641.25 592.390625 641.25 573.75 L 641.25 540 L 540 540 L 540 641.25 L 371.25 641.25 L 371.25 607.5 L 303.75 675 L 371.25 742.5 L 371.25 708.75 L 540 708.75 L 540 810 L 810 810 L 810 540 Z M 708.75 540 "/><path style=" stroke:none;fill-rule:nonzero;fill:#dc9600;fill-opacity:1;" d="M 371.25 641.25 L 371.25 607.5 L 303.75 675 L 371.25 742.5 L 371.25 708.75 L 337.5 675 Z M 371.25 641.25 "/><path style=" stroke:none;fill-rule:nonzero;fill:#fa6450;fill-opacity:1;" d="M 238.054688 641.25 L 270 641.25 L 270 540 L 168.75 540 L 168.75 371.25 L 202.5 371.25 L 135 303.75 L 67.5 371.25 L 101.25 371.25 L 101.25 540 L 0 540 L 0 810 L 270 810 L 270 708.75 L 236.25 708.75 C 217.609375 708.761719 202.488281 693.664062 202.476562 675.023438 C 202.476562 673.113281 202.636719 671.210938 202.957031 669.328125 C 206.3125 652.703125 221.097656 640.875 238.054688 641.25 Z M 238.054688 641.25 "/><path style=" stroke:none;fill-rule:nonzero;fill:#1eaa96;fill-opacity:1;" d="M 540 0 L 573.75 0 L 573.75 101.25 L 540 101.25 Z M 540 0 "/><path style=" stroke:none;fill-rule:nonzero;fill:#1eaa96;fill-opacity:1;" d="M 540 168.75 L 573.75 168.75 L 573.75 270 L 540 270 Z M 540 168.75 "/><path style=" stroke:none;fill-rule:nonzero;fill:#1eaa96;fill-opacity:1;" d="M 641.25 135 C 641.25 116.359375 626.140625 101.25 607.5 101.25 L 573.75 101.25 C 592.390625 101.25 607.5 116.359375 607.5 135 C 607.5 153.640625 592.390625 168.75 573.75 168.75 L 607.5 168.75 C 626.140625 168.75 641.25 153.640625 641.25 135 Z M 641.25 135 "/><path style=" stroke:none;fill-rule:nonzero;fill:#dc9600;fill-opacity:1;" d="M 708.75 607.5 C 727.390625 607.5 742.5 592.390625 742.5 573.75 L 742.5 540 L 708.75 540 L 708.75 573.75 C 708.71875 585.757812 702.285156 596.839844 691.875 602.824219 C 696.984375 605.851562 702.808594 607.464844 708.75 607.5 Z M 708.75 607.5 "/><path style=" stroke:none;fill-rule:nonzero;fill:#dc9600;fill-opacity:1;" d="M 540 540 L 573.75 540 L 573.75 641.25 L 540 641.25 Z M 540 540 "/><path style=" stroke:none;fill-rule:nonzero;fill:#dc9600;fill-opacity:1;" d="M 540 708.75 L 573.75 708.75 L 573.75 810 L 540 810 Z M 540 708.75 "/><path style=" stroke:none;fill-rule:nonzero;fill:#46aad2;fill-opacity:1;" d="M 0 0 L 33.75 0 L 33.75 270 L 0 270 Z M 0 0 "/><path style=" stroke:none;fill-rule:nonzero;fill:#dc4632;fill-opacity:1;" d="M 0 540 L 33.75 540 L 33.75 810 L 0 810 Z M 0 540 "/><path style=" stroke:none;fill-rule:nonzero;fill:#dc4632;fill-opacity:1;" d="M 151.875 320.625 L 135 303.75 L 67.5 371.25 L 101.25 371.25 Z M 151.875 320.625 "/><path style=" stroke:none;fill-rule:nonzero;fill:#dc4632;fill-opacity:1;" d="M 101.25 371.25 L 135 371.25 L 135 540 L 101.25 540 Z M 101.25 371.25 "/><path style=" stroke:none;fill-rule:nonzero;fill:#1eaa96;fill-opacity:1;" d="M 641.25 270 L 675 270 L 675 438.75 L 641.25 438.75 Z M 641.25 270 "/><path style=" stroke:none;fill-rule:nonzero;fill:#1eaa96;fill-opacity:1;" d="M 641.25 438.75 L 607.5 438.75 L 675 506.25 L 691.875 489.375 Z M 641.25 438.75 "/><path style=" stroke:none;fill-rule:nonzero;fill:#505050;fill-opacity:1;" d="M 573.75 438.75 L 573.75 371.25 L 535.578125 371.25 C 532.4375 359.058594 527.597656 347.367188 521.203125 336.519531 L 548.199219 309.519531 L 500.480469 261.796875 L 473.480469 288.796875 C 462.632812 282.402344 450.941406 277.5625 438.75 274.421875 L 438.75 236.25 L 371.25 236.25 L 371.25 274.421875 C 359.058594 277.5625 347.367188 282.402344 336.519531 288.796875 L 309.519531 261.796875 L 261.796875 309.519531 L 288.796875 336.519531 C 282.402344 347.367188 277.5625 359.058594 274.421875 371.25 L 236.25 371.25 L 236.25 438.75 L 274.421875 438.75 C 277.5625 450.941406 282.402344 462.632812 288.796875 473.480469 L 261.796875 500.480469 L 309.519531 548.203125 L 336.519531 521.203125 C 347.367188 527.597656 359.058594 532.4375 371.25 535.578125 L 371.25 573.75 L 438.75 573.75 L 438.75 535.578125 C 450.941406 532.4375 462.632812 527.597656 473.480469 521.203125 L 500.480469 548.203125 L 548.199219 500.480469 L 521.203125 473.480469 C 527.597656 462.632812 532.4375 450.941406 535.578125 438.75 Z M 405 472.5 C 367.722656 472.5 337.5 442.277344 337.5 405 C 337.5 367.722656 367.722656 337.5 405 337.5 C 442.277344 337.5 472.5 367.722656 472.5 405 C 472.5 442.277344 442.277344 472.5 405 472.5 Z M 405 472.5 "/><path style=" stroke:none;fill-rule:nonzero;fill:#3c3c3c;fill-opacity:1;" d="M 370.269531 288.796875 C 381.117188 282.402344 392.808594 277.5625 405 274.421875 L 405 236.25 L 371.25 236.25 L 371.25 274.421875 C 367.300781 275.449219 363.554688 276.917969 359.742188 278.269531 Z M 370.269531 288.796875 "/><path style=" stroke:none;fill-rule:nonzero;fill:#3c3c3c;fill-opacity:1;" d="M 370.269531 521.203125 L 359.742188 531.730469 C 363.554688 533.082031 367.300781 534.550781 371.25 535.578125 L 371.25 573.75 L 405 573.75 L 405 535.578125 C 392.808594 532.4375 381.117188 527.597656 370.269531 521.203125 Z M 370.269531 521.203125 "/><path style=" stroke:none;fill-rule:nonzero;fill:#3c3c3c;fill-opacity:1;" d="M 438.75 337.5 C 433.046875 337.570312 427.375 338.375 421.875 339.894531 C 457.832031 349.046875 479.558594 385.613281 470.410156 421.570312 C 464.339844 445.414062 445.722656 464.03125 421.875 470.105469 C 427.375 471.625 433.046875 472.429688 438.75 472.5 C 476.027344 472.5 506.25 442.277344 506.25 405 C 506.25 367.722656 476.027344 337.5 438.75 337.5 Z M 438.75 337.5 "/><path style=" stroke:none;fill-rule:nonzero;fill:#3c3c3c;fill-opacity:1;" d="M 274.421875 371.25 L 308.171875 371.25 C 311.3125 359.058594 316.152344 347.367188 322.546875 336.519531 L 295.546875 309.519531 L 326.394531 278.671875 L 309.519531 261.796875 L 261.796875 309.519531 L 288.796875 336.519531 C 282.402344 347.367188 277.5625 359.058594 274.421875 371.25 Z M 274.421875 371.25 "/><path style=" stroke:none;fill-rule:nonzero;fill:#3c3c3c;fill-opacity:1;" d="M 295.566406 500.460938 L 322.566406 473.460938 C 316.164062 462.621094 311.320312 450.9375 308.171875 438.75 L 274.421875 438.75 C 277.5625 450.941406 282.402344 462.632812 288.796875 473.480469 L 261.796875 500.480469 L 309.519531 548.203125 L 326.394531 531.328125 Z M 295.566406 500.460938 "/><path style=" stroke:none;fill-rule:nonzero;fill:#3c3c3c;fill-opacity:1;" d="M 236.25 371.25 L 270 371.25 L 270 438.75 L 236.25 438.75 Z M 236.25 371.25 "/></g></svg>