<svg xmlns="http://www.w3.org/2000/svg" xmlns:xlink="http://www.w3.org/1999/xlink" width="1080" zoomAndPan="magnify" viewBox="0 0 810 809.999993" height="1080" preserveAspectRatio="xMidYMid meet" version="1.2"><defs><clipPath id="79b3c22dd2"><path d="M 213 21.261719 L 563 21.261719 L 563 75 L 213 75 Z M 213 21.261719 "/></clipPath><clipPath id="13c6acd060"><path d="M 315 758 L 354 758 L 354 788.511719 L 315 788.511719 Z M 315 758 "/></clipPath><clipPath id="ce1a22599c"><path d="M 303 780 L 367 780 L 367 788.511719 L 303 788.511719 Z M 303 780 "/></clipPath><clipPath id="fd5cb7cbac"><path d="M 459 758 L 499 758 L 499 788.511719 L 459 788.511719 Z M 459 758 "/></clipPath><clipPath id="a236163dc2"><path d="M 447 780 L 511 780 L 511 788.511719 L 447 788.511719 Z M 447 780 "/></clipPath></defs><g id="eeb49988b4"><path style=" stroke:none;fill-rule:nonzero;fill:#373059;fill-opacity:1;" d="M 224.535156 777.664062 C 223.914062 777.664062 223.28125 777.523438 222.6875 777.226562 C 207.441406 769.617188 192.523438 760.933594 178.351562 751.410156 C 176.453125 750.132812 175.949219 747.5625 177.222656 745.664062 C 178.5 743.765625 181.074219 743.261719 182.972656 744.535156 C 196.851562 753.859375 211.457031 762.367188 226.386719 769.816406 C 228.433594 770.839844 229.265625 773.324219 228.242188 775.371094 C 227.519531 776.824219 226.054688 777.664062 224.535156 777.664062 Z M 140.421875 721.15625 C 139.453125 721.15625 138.476562 720.816406 137.691406 720.128906 C 124.871094 708.886719 112.644531 696.703125 101.359375 683.917969 C 99.847656 682.203125 100.011719 679.585938 101.726562 678.070312 C 103.441406 676.558594 106.058594 676.722656 107.574219 678.4375 C 118.625 690.960938 130.597656 702.890625 143.152344 713.902344 C 144.875 715.410156 145.046875 718.023438 143.539062 719.746094 C 142.71875 720.679688 141.574219 721.15625 140.421875 721.15625 Z M 73.386719 645.1875 C 72.058594 645.1875 70.753906 644.550781 69.953125 643.367188 C 60.386719 629.230469 51.652344 614.347656 43.996094 599.132812 C 42.96875 597.089844 43.792969 594.597656 45.835938 593.570312 C 47.878906 592.542969 50.371094 593.367188 51.398438 595.410156 C 58.894531 610.3125 67.445312 624.882812 76.8125 638.726562 C 78.09375 640.621094 77.597656 643.195312 75.703125 644.476562 C 74.992188 644.957031 74.183594 645.1875 73.386719 645.1875 Z M 27.867188 554.703125 C 26.15625 554.703125 24.554688 553.632812 23.957031 551.925781 C 18.324219 535.84375 13.691406 519.226562 10.1875 502.539062 C 9.714844 500.300781 11.152344 498.105469 13.390625 497.632812 C 15.628906 497.164062 17.824219 498.597656 18.292969 500.835938 C 21.726562 517.175781 26.261719 533.445312 31.777344 549.191406 C 32.53125 551.351562 31.394531 553.710938 29.234375 554.46875 C 28.78125 554.625 28.320312 554.703125 27.867188 554.703125 Z M 7.023438 455.589844 C 4.882812 455.589844 3.070312 453.945312 2.898438 451.773438 C 2.078125 441.316406 1.660156 430.671875 1.660156 420.136719 C 1.660156 413.605469 1.820312 407 2.136719 400.496094 C 2.246094 398.214844 4.1875 396.449219 6.476562 396.5625 C 8.761719 396.671875 10.523438 398.613281 10.414062 400.898438 C 10.101562 407.265625 9.945312 413.738281 9.945312 420.136719 C 9.945312 430.457031 10.355469 440.886719 11.15625 451.125 C 11.335938 453.40625 9.632812 455.398438 7.351562 455.578125 C 7.242188 455.585938 7.132812 455.589844 7.023438 455.589844 Z M 7.023438 455.589844 "/><path style=" stroke:none;fill-rule:nonzero;fill:#373059;fill-opacity:1;" d="M 581.589844 775.210938 C 580.089844 775.210938 578.640625 774.394531 577.90625 772.96875 C 576.855469 770.9375 577.652344 768.4375 579.683594 767.390625 C 592.171875 760.945312 604.449219 753.734375 616.179688 745.964844 C 618.085938 744.699219 620.65625 745.222656 621.921875 747.128906 C 623.183594 749.035156 622.664062 751.605469 620.753906 752.867188 C 608.777344 760.804688 596.238281 768.164062 583.488281 774.75 C 582.878906 775.0625 582.230469 775.210938 581.589844 775.210938 Z M 652.796875 728.046875 C 651.609375 728.046875 650.429688 727.535156 649.609375 726.550781 C 648.148438 724.789062 648.390625 722.179688 650.148438 720.71875 C 660.964844 711.734375 671.414062 702.058594 681.207031 691.960938 C 682.800781 690.320312 685.421875 690.277344 687.0625 691.871094 C 688.707031 693.460938 688.746094 696.082031 687.15625 697.726562 C 677.15625 708.035156 666.488281 717.914062 655.441406 727.089844 C 654.667969 727.730469 653.730469 728.046875 652.796875 728.046875 Z M 712.257812 666.71875 C 711.367188 666.71875 710.46875 666.429688 709.714844 665.84375 C 707.910156 664.4375 707.585938 661.835938 708.992188 660.03125 C 717.644531 648.929688 725.78125 637.242188 733.175781 625.292969 C 734.378906 623.347656 736.929688 622.746094 738.875 623.949219 C 740.824219 625.152344 741.425781 627.703125 740.222656 629.648438 C 732.671875 641.851562 724.363281 653.789062 715.527344 665.121094 C 714.710938 666.167969 713.488281 666.71875 712.257812 666.71875 Z M 757.195312 594.066406 C 756.59375 594.066406 755.988281 593.9375 755.414062 593.660156 C 753.347656 592.675781 752.472656 590.203125 753.457031 588.140625 C 759.519531 575.441406 764.945312 562.273438 769.582031 549.003906 C 770.335938 546.847656 772.699219 545.707031 774.859375 546.460938 C 777.015625 547.214844 778.15625 549.578125 777.402344 551.734375 C 772.667969 565.289062 767.125 578.734375 760.933594 591.707031 C 760.226562 593.195312 758.738281 594.066406 757.195312 594.066406 Z M 785.382812 513.414062 C 785.074219 513.414062 784.761719 513.378906 784.445312 513.308594 C 782.21875 512.792969 780.828125 510.570312 781.34375 508.339844 C 784.503906 494.652344 786.945312 480.621094 788.605469 466.632812 C 788.875 464.359375 790.929688 462.734375 793.207031 463.007812 C 795.480469 463.277344 797.101562 465.335938 796.832031 467.605469 C 795.136719 481.894531 792.640625 496.226562 789.414062 510.203125 C 788.972656 512.117188 787.269531 513.414062 785.382812 513.414062 Z M 785.382812 513.414062 "/><g clip-rule="nonzero" clip-path="url(#79b3c22dd2)"><path style=" stroke:none;fill-rule:nonzero;fill:#373059;fill-opacity:1;" d="M 217.84375 74.3125 C 216.351562 74.3125 214.910156 73.503906 214.171875 72.089844 C 213.109375 70.066406 213.894531 67.5625 215.921875 66.503906 C 230.882812 58.675781 246.484375 51.746094 262.296875 45.898438 C 264.445312 45.105469 266.828125 46.203125 267.621094 48.347656 C 268.414062 50.492188 267.316406 52.875 265.171875 53.667969 C 249.6875 59.390625 234.410156 66.179688 219.761719 73.839844 C 219.148438 74.160156 218.492188 74.3125 217.84375 74.3125 Z M 557.921875 62.109375 C 557.371094 62.109375 556.8125 62 556.273438 61.765625 C 541.117188 55.179688 525.390625 49.507812 509.523438 44.917969 C 507.328125 44.28125 506.0625 41.984375 506.699219 39.789062 C 507.335938 37.589844 509.628906 36.324219 511.828125 36.960938 C 528.03125 41.652344 544.097656 47.441406 559.578125 54.171875 C 561.675781 55.082031 562.636719 57.519531 561.722656 59.617188 C 561.046875 61.179688 559.523438 62.109375 557.921875 62.109375 Z M 311.855469 39.570312 C 309.96875 39.570312 308.261719 38.273438 307.820312 36.355469 C 307.308594 34.128906 308.699219 31.90625 310.929688 31.394531 C 327.34375 27.621094 344.191406 24.871094 361.011719 23.210938 C 363.292969 22.984375 365.316406 24.648438 365.539062 26.925781 C 365.765625 29.203125 364.101562 31.230469 361.824219 31.453125 C 345.355469 33.078125 328.855469 35.773438 312.785156 39.464844 C 312.472656 39.535156 312.160156 39.570312 311.855469 39.570312 Z M 461.644531 34.230469 C 461.433594 34.230469 461.21875 34.214844 461.003906 34.183594 C 444.722656 31.65625 428.066406 30.148438 411.5 29.699219 C 409.214844 29.636719 407.410156 27.730469 407.472656 25.445312 C 407.535156 23.160156 409.4375 21.355469 411.726562 21.417969 C 428.640625 21.878906 445.648438 23.421875 462.273438 25.996094 C 464.53125 26.347656 466.082031 28.464844 465.730469 30.722656 C 465.414062 32.769531 463.648438 34.230469 461.644531 34.230469 Z M 461.644531 34.230469 "/></g><path style=" stroke:none;fill-rule:nonzero;fill:#cef5f4;fill-opacity:1;" d="M 690.542969 420.136719 C 690.542969 424.878906 690.429688 429.621094 690.195312 434.355469 C 689.960938 439.09375 689.613281 443.824219 689.148438 448.542969 C 688.683594 453.261719 688.101562 457.96875 687.40625 462.660156 C 686.710938 467.351562 685.898438 472.023438 684.972656 476.675781 C 684.046875 481.328125 683.007812 485.953125 681.855469 490.554688 C 680.703125 495.15625 679.4375 499.726562 678.0625 504.265625 C 676.683594 508.804688 675.195312 513.304688 673.597656 517.773438 C 672 522.238281 670.292969 526.660156 668.476562 531.042969 C 666.660156 535.425781 664.738281 539.761719 662.710938 544.046875 C 660.683594 548.335938 658.550781 552.570312 656.3125 556.753906 C 654.078125 560.9375 651.738281 565.0625 649.300781 569.128906 C 646.859375 573.199219 644.324219 577.203125 641.6875 581.148438 C 639.050781 585.09375 636.320312 588.96875 633.496094 592.777344 C 630.667969 596.589844 627.75 600.324219 624.742188 603.992188 C 621.730469 607.660156 618.632812 611.25 615.445312 614.761719 C 612.261719 618.277344 608.988281 621.710938 605.636719 625.066406 C 602.28125 628.417969 598.84375 631.6875 595.328125 634.875 C 591.816406 638.058594 588.222656 641.15625 584.554688 644.164062 C 580.886719 647.175781 577.148438 650.09375 573.339844 652.917969 C 569.527344 655.742188 565.648438 658.472656 561.703125 661.109375 C 557.761719 663.742188 553.753906 666.28125 549.683594 668.71875 C 545.613281 671.15625 541.488281 673.492188 537.304688 675.730469 C 533.117188 677.964844 528.882812 680.097656 524.59375 682.125 C 520.304688 684.152344 515.96875 686.074219 511.585938 687.890625 C 507.203125 689.703125 502.777344 691.410156 498.308594 693.007812 C 493.84375 694.605469 489.339844 696.09375 484.800781 697.472656 C 480.257812 698.847656 475.6875 700.113281 471.085938 701.265625 C 466.484375 702.417969 461.855469 703.457031 457.203125 704.382812 C 452.550781 705.308594 447.875 706.117188 443.183594 706.8125 C 438.488281 707.507812 433.78125 708.089844 429.0625 708.554688 C 424.339844 709.019531 419.609375 709.367188 414.871094 709.601562 C 410.132812 709.835938 405.390625 709.949219 400.644531 709.949219 C 395.902344 709.949219 391.160156 709.835938 386.421875 709.601562 C 381.683594 709.367188 376.953125 709.019531 372.230469 708.554688 C 367.507812 708.089844 362.800781 707.507812 358.109375 706.8125 C 353.414062 706.117188 348.742188 705.308594 344.089844 704.382812 C 339.4375 703.457031 334.808594 702.417969 330.207031 701.265625 C 325.605469 700.113281 321.03125 698.847656 316.492188 697.472656 C 311.953125 696.09375 307.449219 694.605469 302.980469 693.007812 C 298.515625 691.410156 294.089844 689.703125 289.707031 687.890625 C 285.324219 686.074219 280.988281 684.152344 276.699219 682.125 C 272.410156 680.097656 268.171875 677.964844 263.988281 675.730469 C 259.804688 673.492188 255.675781 671.15625 251.609375 668.71875 C 247.539062 666.28125 243.53125 663.742188 239.585938 661.109375 C 235.640625 658.472656 231.765625 655.742188 227.953125 652.917969 C 224.144531 650.09375 220.402344 647.175781 216.734375 644.164062 C 213.070312 641.15625 209.476562 638.058594 205.960938 634.875 C 202.445312 631.6875 199.011719 628.417969 195.65625 625.066406 C 192.300781 621.710938 189.03125 618.277344 185.84375 614.761719 C 182.660156 611.25 179.5625 607.660156 176.550781 603.992188 C 173.542969 600.324219 170.625 596.589844 167.796875 592.777344 C 164.972656 588.96875 162.238281 585.09375 159.605469 581.148438 C 156.96875 577.203125 154.429688 573.199219 151.992188 569.128906 C 149.550781 565.0625 147.214844 560.9375 144.976562 556.753906 C 142.742188 552.570312 140.609375 548.335938 138.582031 544.046875 C 136.550781 539.761719 134.628906 535.425781 132.8125 531.042969 C 131 526.660156 129.292969 522.238281 127.695312 517.773438 C 126.09375 513.304688 124.605469 508.804688 123.230469 504.265625 C 121.851562 499.726562 120.589844 495.15625 119.433594 490.554688 C 118.28125 485.953125 117.242188 481.328125 116.316406 476.675781 C 115.390625 472.023438 114.582031 467.351562 113.886719 462.660156 C 113.1875 457.96875 112.609375 453.261719 112.144531 448.542969 C 111.679688 443.824219 111.328125 439.09375 111.097656 434.355469 C 110.863281 429.621094 110.746094 424.878906 110.746094 420.136719 C 110.746094 415.394531 110.863281 410.652344 111.097656 405.914062 C 111.328125 401.179688 111.679688 396.449219 112.144531 391.730469 C 112.609375 387.007812 113.1875 382.304688 113.886719 377.613281 C 114.582031 372.917969 115.390625 368.246094 116.316406 363.597656 C 117.242188 358.945312 118.28125 354.316406 119.433594 349.71875 C 120.589844 345.117188 121.851562 340.546875 123.230469 336.007812 C 124.605469 331.46875 126.09375 326.964844 127.695312 322.5 C 129.292969 318.035156 131 313.609375 132.8125 309.230469 C 134.628906 304.847656 136.550781 300.511719 138.582031 296.222656 C 140.609375 291.9375 142.742188 287.703125 144.976562 283.519531 C 147.214844 279.335938 149.550781 275.210938 151.992188 271.140625 C 154.429688 267.074219 156.96875 263.066406 159.605469 259.125 C 162.238281 255.179688 164.972656 251.304688 167.796875 247.492188 C 170.625 243.683594 173.542969 239.945312 176.550781 236.28125 C 179.5625 232.613281 182.660156 229.023438 185.84375 225.507812 C 189.03125 221.996094 192.300781 218.558594 195.65625 215.207031 C 199.011719 211.851562 202.445312 208.582031 205.960938 205.398438 C 209.476562 202.210938 213.070312 199.117188 216.734375 196.105469 C 220.402344 193.097656 224.144531 190.179688 227.953125 187.355469 C 231.765625 184.53125 235.640625 181.800781 239.585938 179.164062 C 243.53125 176.527344 247.539062 173.992188 251.609375 171.554688 C 255.675781 169.117188 259.804688 166.777344 263.988281 164.542969 C 268.171875 162.304688 272.410156 160.175781 276.699219 158.148438 C 280.988281 156.117188 285.324219 154.199219 289.707031 152.382812 C 294.089844 150.566406 298.515625 148.859375 302.980469 147.261719 C 307.449219 145.664062 311.953125 144.175781 316.492188 142.800781 C 321.03125 141.425781 325.605469 140.160156 330.207031 139.007812 C 334.808594 137.855469 339.4375 136.816406 344.089844 135.890625 C 348.742188 134.964844 353.414062 134.15625 358.109375 133.457031 C 362.800781 132.761719 367.507812 132.183594 372.230469 131.71875 C 376.953125 131.253906 381.683594 130.902344 386.421875 130.671875 C 391.160156 130.4375 395.902344 130.320312 400.644531 130.320312 C 405.390625 130.320312 410.132812 130.4375 414.871094 130.671875 C 419.609375 130.902344 424.339844 131.253906 429.0625 131.71875 C 433.78125 132.183594 438.488281 132.761719 443.183594 133.457031 C 447.875 134.15625 452.550781 134.964844 457.203125 135.890625 C 461.855469 136.816406 466.484375 137.855469 471.085938 139.007812 C 475.6875 140.160156 480.257812 141.425781 484.800781 142.800781 C 489.339844 144.175781 493.84375 145.664062 498.308594 147.261719 C 502.777344 148.859375 507.203125 150.566406 511.585938 152.382812 C 515.96875 154.199219 520.304688 156.117188 524.59375 158.148438 C 528.882812 160.175781 533.117188 162.304688 537.304688 164.542969 C 541.488281 166.777344 545.613281 169.117188 549.683594 171.554688 C 553.753906 173.992188 557.761719 176.527344 561.703125 179.164062 C 565.648438 181.800781 569.527344 184.53125 573.339844 187.355469 C 577.148438 190.179688 580.886719 193.097656 584.554688 196.105469 C 588.222656 199.117188 591.816406 202.210938 595.328125 205.398438 C 598.84375 208.582031 602.28125 211.851562 605.636719 215.207031 C 608.988281 218.558594 612.261719 221.996094 615.445312 225.507812 C 618.632812 229.023438 621.730469 232.613281 624.742188 236.28125 C 627.75 239.945312 630.667969 243.683594 633.496094 247.492188 C 636.320312 251.304688 639.050781 255.179688 641.6875 259.125 C 644.324219 263.066406 646.859375 267.074219 649.300781 271.140625 C 651.738281 275.210938 654.078125 279.335938 656.3125 283.519531 C 658.550781 287.703125 660.683594 291.9375 662.710938 296.222656 C 664.738281 300.511719 666.660156 304.847656 668.476562 309.230469 C 670.292969 313.609375 672 318.035156 673.597656 322.5 C 675.195312 326.964844 676.683594 331.46875 678.0625 336.007812 C 679.4375 340.546875 680.703125 345.117188 681.855469 349.71875 C 683.007812 354.316406 684.046875 358.945312 684.972656 363.597656 C 685.898438 368.246094 686.710938 372.917969 687.40625 377.613281 C 688.101562 382.304688 688.683594 387.007812 689.148438 391.730469 C 689.613281 396.449219 689.960938 401.179688 690.195312 405.914062 C 690.429688 410.652344 690.542969 415.394531 690.542969 420.136719 Z M 690.542969 420.136719 "/><path style=" stroke:none;fill-rule:nonzero;fill:#ffe37d;fill-opacity:1;" d="M 587.195312 384.222656 L 671.554688 384.222656 L 671.554688 433.417969 L 587.195312 433.417969 Z M 587.195312 384.222656 "/><path style=" stroke:none;fill-rule:nonzero;fill:#373059;fill-opacity:1;" d="M 671.554688 437.558594 L 587.195312 437.558594 C 584.90625 437.558594 583.054688 435.703125 583.054688 433.417969 L 583.054688 384.222656 C 583.054688 381.933594 584.90625 380.082031 587.195312 380.082031 L 671.554688 380.082031 C 673.839844 380.082031 675.695312 381.933594 675.695312 384.222656 L 675.695312 433.417969 C 675.695312 435.703125 673.84375 437.558594 671.554688 437.558594 Z M 591.335938 429.277344 L 667.410156 429.277344 L 667.410156 388.363281 L 591.335938 388.363281 Z M 591.335938 429.277344 "/><path style=" stroke:none;fill-rule:nonzero;fill:#373059;fill-opacity:1;" d="M 705.410156 437.558594 L 553.339844 437.558594 C 551.054688 437.558594 549.199219 435.703125 549.199219 433.417969 C 549.199219 431.128906 551.054688 429.277344 553.339844 429.277344 L 705.410156 429.277344 C 707.695312 429.277344 709.550781 431.128906 709.550781 433.417969 C 709.550781 435.703125 707.695312 437.558594 705.410156 437.558594 Z M 705.410156 437.558594 "/><path style=" stroke:none;fill-rule:nonzero;fill:#ffffff;fill-opacity:1;" d="M 794.195312 394.722656 L 464.554688 394.722656 C 458.109375 394.722656 452.886719 389.503906 452.886719 383.058594 L 452.886719 155.613281 C 452.886719 149.171875 458.109375 143.949219 464.554688 143.949219 L 794.195312 143.949219 C 800.636719 143.949219 805.863281 149.171875 805.863281 155.613281 L 805.863281 383.058594 C 805.863281 389.503906 800.636719 394.722656 794.195312 394.722656 Z M 794.195312 394.722656 "/><path style=" stroke:none;fill-rule:nonzero;fill:#373059;fill-opacity:1;" d="M 794.195312 398.867188 L 464.554688 398.867188 C 455.835938 398.867188 448.746094 391.773438 448.746094 383.058594 L 448.746094 155.613281 C 448.746094 146.898438 455.835938 139.808594 464.554688 139.808594 L 794.195312 139.808594 C 802.910156 139.808594 810.003906 146.898438 810.003906 155.613281 L 810.003906 383.058594 C 810.003906 391.777344 802.910156 398.867188 794.195312 398.867188 Z M 464.554688 148.089844 C 460.40625 148.089844 457.03125 151.464844 457.03125 155.613281 L 457.03125 383.058594 C 457.03125 387.207031 460.40625 390.582031 464.554688 390.582031 L 794.195312 390.582031 C 798.34375 390.582031 801.71875 387.207031 801.71875 383.058594 L 801.71875 155.613281 C 801.71875 151.464844 798.34375 148.089844 794.195312 148.089844 Z M 464.554688 148.089844 "/><path style=" stroke:none;fill-rule:nonzero;fill:#9df2ef;fill-opacity:1;" d="M 749.382812 223.417969 C 749.382812 225.378906 749.332031 227.34375 749.238281 229.304688 C 749.140625 231.265625 748.996094 233.222656 748.804688 235.175781 C 748.613281 237.128906 748.371094 239.078125 748.082031 241.019531 C 747.796875 242.964844 747.460938 244.898438 747.074219 246.824219 C 746.691406 248.75 746.261719 250.664062 745.785156 252.566406 C 745.308594 254.472656 744.785156 256.363281 744.214844 258.242188 C 743.644531 260.121094 743.027344 261.984375 742.367188 263.835938 C 741.707031 265.683594 741 267.515625 740.246094 269.328125 C 739.496094 271.144531 738.699219 272.9375 737.859375 274.710938 C 737.019531 276.488281 736.136719 278.238281 735.210938 279.972656 C 734.285156 281.703125 733.316406 283.410156 732.308594 285.09375 C 731.296875 286.78125 730.25 288.4375 729.15625 290.070312 C 728.066406 291.703125 726.933594 293.308594 725.765625 294.882812 C 724.59375 296.460938 723.386719 298.007812 722.140625 299.527344 C 720.894531 301.042969 719.613281 302.53125 718.292969 303.984375 C 716.976562 305.441406 715.621094 306.863281 714.234375 308.25 C 712.84375 309.640625 711.421875 310.992188 709.964844 312.3125 C 708.511719 313.628906 707.023438 314.910156 705.507812 316.15625 C 703.988281 317.402344 702.441406 318.609375 700.863281 319.78125 C 699.285156 320.949219 697.679688 322.078125 696.046875 323.171875 C 694.414062 324.261719 692.753906 325.3125 691.070312 326.320312 C 689.386719 327.332031 687.679688 328.296875 685.945312 329.222656 C 684.214844 330.148438 682.460938 331.03125 680.683594 331.871094 C 678.910156 332.710938 677.113281 333.503906 675.300781 334.257812 C 673.484375 335.007812 671.652344 335.714844 669.804688 336.375 C 667.953125 337.039062 666.089844 337.652344 664.210938 338.222656 C 662.332031 338.792969 660.441406 339.316406 658.535156 339.792969 C 656.628906 340.269531 654.714844 340.703125 652.785156 341.085938 C 650.859375 341.46875 648.925781 341.804688 646.984375 342.089844 C 645.039062 342.378906 643.09375 342.621094 641.136719 342.8125 C 639.183594 343.003906 637.226562 343.148438 635.261719 343.246094 C 633.300781 343.339844 631.339844 343.390625 629.375 343.390625 C 627.410156 343.390625 625.449219 343.339844 623.488281 343.246094 C 621.523438 343.148438 619.566406 343.003906 617.613281 342.8125 C 615.65625 342.621094 613.707031 342.378906 611.765625 342.089844 C 609.824219 341.804688 607.890625 341.46875 605.960938 341.085938 C 604.035156 340.703125 602.121094 340.269531 600.214844 339.792969 C 598.308594 339.316406 596.417969 338.792969 594.539062 338.222656 C 592.660156 337.652344 590.792969 337.039062 588.945312 336.375 C 587.097656 335.714844 585.265625 335.007812 583.449219 334.257812 C 581.636719 333.503906 579.839844 332.710938 578.066406 331.871094 C 576.289062 331.03125 574.535156 330.148438 572.804688 329.222656 C 571.070312 328.296875 569.363281 327.332031 567.679688 326.320312 C 565.992188 325.3125 564.335938 324.261719 562.703125 323.171875 C 561.070312 322.078125 559.464844 320.949219 557.886719 319.78125 C 556.308594 318.609375 554.761719 317.402344 553.242188 316.15625 C 551.726562 314.910156 550.238281 313.628906 548.78125 312.3125 C 547.328125 310.992188 545.90625 309.640625 544.515625 308.25 C 543.128906 306.863281 541.773438 305.441406 540.457031 303.984375 C 539.136719 302.53125 537.855469 301.042969 536.609375 299.527344 C 535.363281 298.007812 534.152344 296.460938 532.984375 294.882812 C 531.8125 293.308594 530.683594 291.703125 529.59375 290.070312 C 528.5 288.4375 527.449219 286.78125 526.441406 285.09375 C 525.429688 283.410156 524.464844 281.703125 523.539062 279.972656 C 522.613281 278.238281 521.730469 276.488281 520.890625 274.710938 C 520.050781 272.9375 519.253906 271.144531 518.503906 269.328125 C 517.75 267.515625 517.042969 265.683594 516.382812 263.835938 C 515.722656 261.984375 515.105469 260.121094 514.535156 258.242188 C 513.964844 256.363281 513.441406 254.472656 512.964844 252.566406 C 512.488281 250.664062 512.054688 248.75 511.671875 246.824219 C 511.289062 244.898438 510.953125 242.964844 510.667969 241.019531 C 510.378906 239.078125 510.136719 237.128906 509.945312 235.175781 C 509.753906 233.222656 509.609375 231.265625 509.511719 229.304688 C 509.414062 227.34375 509.367188 225.378906 509.367188 223.417969 C 509.367188 221.453125 509.414062 219.492188 509.511719 217.53125 C 509.609375 215.570312 509.753906 213.613281 509.945312 211.65625 C 510.136719 209.703125 510.378906 207.753906 510.667969 205.8125 C 510.953125 203.871094 511.289062 201.9375 511.671875 200.011719 C 512.054688 198.085938 512.488281 196.171875 512.964844 194.265625 C 513.441406 192.363281 513.964844 190.46875 514.535156 188.589844 C 515.105469 186.710938 515.722656 184.847656 516.382812 183 C 517.042969 181.152344 517.75 179.320312 518.503906 177.503906 C 519.253906 175.691406 520.050781 173.898438 520.890625 172.121094 C 521.730469 170.347656 522.613281 168.59375 523.539062 166.863281 C 524.464844 165.132812 525.429688 163.421875 526.441406 161.738281 C 527.449219 160.054688 528.5 158.398438 529.59375 156.765625 C 530.683594 155.132812 531.8125 153.527344 532.984375 151.949219 C 534.152344 150.371094 535.363281 148.824219 536.609375 147.308594 C 537.855469 145.789062 539.136719 144.304688 540.457031 142.847656 C 541.773438 141.394531 543.128906 139.972656 544.515625 138.582031 C 545.90625 137.195312 547.328125 135.84375 548.78125 134.523438 C 550.238281 133.203125 551.726562 131.921875 553.242188 130.675781 C 554.761719 129.429688 556.308594 128.222656 557.886719 127.054688 C 559.464844 125.882812 561.070312 124.753906 562.703125 123.664062 C 564.335938 122.574219 565.992188 121.523438 567.679688 120.511719 C 569.363281 119.503906 571.070312 118.535156 572.804688 117.609375 C 574.535156 116.683594 576.289062 115.804688 578.066406 114.964844 C 579.839844 114.125 581.636719 113.328125 583.449219 112.578125 C 585.265625 111.824219 587.097656 111.121094 588.945312 110.457031 C 590.792969 109.796875 592.660156 109.179688 594.539062 108.609375 C 596.417969 108.039062 598.308594 107.515625 600.214844 107.039062 C 602.121094 106.5625 604.035156 106.132812 605.960938 105.75 C 607.890625 105.367188 609.824219 105.03125 611.765625 104.742188 C 613.707031 104.457031 615.65625 104.214844 617.613281 104.023438 C 619.566406 103.828125 621.523438 103.6875 623.488281 103.589844 C 625.449219 103.492188 627.410156 103.445312 629.375 103.445312 C 631.339844 103.445312 633.300781 103.492188 635.261719 103.589844 C 637.226562 103.6875 639.183594 103.828125 641.136719 104.023438 C 643.09375 104.214844 645.039062 104.457031 646.984375 104.742188 C 648.925781 105.03125 650.859375 105.367188 652.785156 105.75 C 654.714844 106.132812 656.628906 106.5625 658.535156 107.039062 C 660.4375 107.515625 662.332031 108.039062 664.210938 108.609375 C 666.089844 109.179688 667.953125 109.796875 669.804688 110.457031 C 671.652344 111.121094 673.484375 111.824219 675.300781 112.578125 C 677.113281 113.328125 678.910156 114.125 680.683594 114.964844 C 682.460938 115.804688 684.214844 116.683594 685.945312 117.609375 C 687.679688 118.535156 689.386719 119.503906 691.070312 120.511719 C 692.753906 121.523438 694.414062 122.574219 696.046875 123.664062 C 697.679688 124.753906 699.285156 125.882812 700.863281 127.054688 C 702.441406 128.222656 703.988281 129.429688 705.507812 130.675781 C 707.023438 131.921875 708.511719 133.203125 709.964844 134.523438 C 711.421875 135.84375 712.84375 137.195312 714.234375 138.582031 C 715.621094 139.972656 716.976562 141.394531 718.292969 142.847656 C 719.613281 144.304688 720.894531 145.789062 722.140625 147.308594 C 723.386719 148.824219 724.59375 150.371094 725.765625 151.949219 C 726.933594 153.527344 728.066406 155.132812 729.15625 156.765625 C 730.25 158.398438 731.296875 160.054688 732.308594 161.738281 C 733.316406 163.421875 734.285156 165.132812 735.210938 166.863281 C 736.136719 168.59375 737.019531 170.347656 737.859375 172.121094 C 738.699219 173.898438 739.496094 175.691406 740.246094 177.503906 C 741 179.320312 741.707031 181.152344 742.367188 183 C 743.027344 184.847656 743.644531 186.710938 744.214844 188.589844 C 744.785156 190.46875 745.308594 192.363281 745.785156 194.265625 C 746.261719 196.171875 746.691406 198.085938 747.074219 200.011719 C 747.460938 201.9375 747.796875 203.871094 748.082031 205.8125 C 748.371094 207.753906 748.613281 209.703125 748.804688 211.65625 C 748.996094 213.613281 749.140625 215.570312 749.238281 217.53125 C 749.332031 219.492188 749.382812 221.453125 749.382812 223.417969 Z M 749.382812 223.417969 "/><path style=" stroke:none;fill-rule:nonzero;fill:#373059;fill-opacity:1;" d="M 629.375 347.53125 C 612.617188 347.53125 596.355469 344.25 581.046875 337.777344 C 566.265625 331.523438 552.988281 322.574219 541.585938 311.179688 C 530.1875 299.78125 521.234375 286.507812 514.984375 271.730469 C 508.507812 256.425781 505.226562 240.171875 505.226562 223.417969 C 505.226562 206.664062 508.507812 190.410156 514.984375 175.105469 C 521.234375 160.324219 530.1875 147.054688 541.585938 135.65625 C 552.988281 124.257812 566.265625 115.308594 581.046875 109.058594 C 596.355469 102.585938 612.617188 99.304688 629.375 99.304688 C 646.132812 99.304688 662.390625 102.585938 677.699219 109.058594 C 692.484375 115.3125 705.761719 124.257812 717.160156 135.65625 C 728.5625 147.054688 737.511719 160.324219 743.765625 175.105469 C 750.242188 190.410156 753.523438 206.664062 753.523438 223.417969 C 753.523438 240.171875 750.242188 256.425781 743.765625 271.730469 C 737.511719 286.507812 728.5625 299.78125 717.160156 311.179688 C 705.761719 322.574219 692.484375 331.523438 677.699219 337.777344 C 662.390625 344.25 646.132812 347.53125 629.375 347.53125 Z M 629.375 107.585938 C 565.488281 107.585938 513.511719 159.546875 513.511719 223.417969 C 513.511719 287.285156 565.488281 339.25 629.375 339.25 C 693.261719 339.25 745.238281 287.285156 745.238281 223.417969 C 745.238281 159.546875 693.261719 107.585938 629.375 107.585938 Z M 629.375 107.585938 "/><path style=" stroke:none;fill-rule:nonzero;fill:#373059;fill-opacity:1;" d="M 629.375 347.53125 C 611.167969 347.53125 594.273438 334.257812 581.804688 310.152344 C 569.78125 286.917969 563.160156 256.113281 563.160156 223.417969 C 563.160156 190.722656 569.78125 159.917969 581.804688 136.679688 C 594.273438 112.578125 611.167969 99.304688 629.375 99.304688 C 647.582031 99.304688 664.476562 112.578125 676.945312 136.679688 C 688.96875 159.917969 695.589844 190.722656 695.589844 223.417969 C 695.589844 256.113281 688.96875 286.917969 676.945312 310.152344 C 664.476562 334.257812 647.582031 347.53125 629.375 347.53125 Z M 629.375 107.585938 C 614.421875 107.585938 600.140625 119.269531 589.160156 140.488281 C 577.738281 162.570312 571.445312 192.019531 571.445312 223.417969 C 571.445312 254.8125 577.738281 284.265625 589.160156 306.347656 C 600.140625 327.5625 614.421875 339.25 629.375 339.25 C 644.328125 339.25 658.609375 327.566406 669.585938 306.347656 C 681.011719 284.265625 687.304688 254.8125 687.304688 223.417969 C 687.304688 192.023438 681.011719 162.570312 669.585938 140.488281 C 658.609375 119.269531 644.328125 107.585938 629.375 107.585938 Z M 629.375 107.585938 "/><path style=" stroke:none;fill-rule:nonzero;fill:#373059;fill-opacity:1;" d="M 629.375 347.53125 C 627.085938 347.53125 625.234375 345.675781 625.234375 343.390625 L 625.234375 103.445312 C 625.234375 101.15625 627.085938 99.304688 629.375 99.304688 C 631.664062 99.304688 633.515625 101.15625 633.515625 103.445312 L 633.515625 343.390625 C 633.515625 345.675781 631.664062 347.53125 629.375 347.53125 Z M 629.375 347.53125 "/><path style=" stroke:none;fill-rule:nonzero;fill:#373059;fill-opacity:1;" d="M 749.382812 227.558594 L 509.367188 227.558594 C 507.078125 227.558594 505.226562 225.703125 505.226562 223.417969 C 505.226562 221.128906 507.078125 219.277344 509.367188 219.277344 L 749.382812 219.277344 C 751.667969 219.277344 753.523438 221.128906 753.523438 223.417969 C 753.523438 225.703125 751.667969 227.558594 749.382812 227.558594 Z M 749.382812 227.558594 "/><path style=" stroke:none;fill-rule:nonzero;fill:#ffffff;fill-opacity:1;" d="M 314.113281 357.203125 C 353.757812 357.203125 385.898438 325.074219 385.898438 285.4375 C 385.898438 249.511719 359.460938 219.839844 324.992188 214.585938 C 325.613281 211.34375 325.964844 208.007812 325.964844 204.585938 C 325.964844 175.191406 302.128906 151.363281 272.730469 151.363281 C 263.78125 151.363281 255.363281 153.59375 247.964844 157.492188 C 230.996094 132.667969 202.480469 116.363281 170.136719 116.363281 C 118.101562 116.363281 75.921875 158.53125 75.921875 210.546875 C 75.921875 211.605469 76.046875 212.632812 76.082031 213.683594 C 76.027344 213.683594 75.976562 213.675781 75.921875 213.675781 C 36.277344 213.675781 4.136719 245.804688 4.136719 285.4375 C 4.136719 325.074219 36.277344 353.238281 75.921875 353.238281 Z M 314.113281 357.203125 "/><path style=" stroke:none;fill-rule:nonzero;fill:#373059;fill-opacity:1;" d="M 314.113281 361.34375 C 311.824219 361.34375 309.972656 359.492188 309.972656 357.203125 C 309.972656 354.917969 311.824219 353.0625 314.113281 353.0625 C 351.410156 353.0625 381.757812 322.726562 381.757812 285.4375 C 381.757812 252.367188 357.085938 223.667969 324.371094 218.679688 C 323.257812 218.511719 322.261719 217.894531 321.613281 216.976562 C 320.960938 216.058594 320.714844 214.917969 320.925781 213.8125 C 321.519531 210.6875 321.820312 207.582031 321.820312 204.585938 C 321.820312 177.523438 299.796875 155.503906 272.730469 155.503906 C 264.695312 155.503906 257.015625 157.40625 249.894531 161.15625 C 248.03125 162.136719 245.730469 161.566406 244.542969 159.828125 C 227.714844 135.203125 199.898438 120.503906 170.136719 120.503906 C 120.46875 120.503906 80.066406 160.898438 80.066406 210.546875 C 80.066406 211.023438 80.101562 211.542969 80.140625 212.09375 C 80.171875 212.554688 80.203125 213.035156 80.222656 213.542969 C 80.257812 214.667969 79.839844 215.753906 79.058594 216.5625 C 78.277344 217.367188 77.203125 217.824219 76.082031 217.824219 C 75.992188 217.824219 75.902344 217.820312 75.8125 217.816406 C 38.5625 217.875 8.28125 248.1875 8.28125 285.441406 C 8.28125 321.730469 37.359375 349.097656 75.921875 349.097656 C 78.210938 349.097656 80.066406 350.953125 80.066406 353.242188 C 80.066406 355.527344 78.210938 357.382812 75.921875 357.382812 C 55.441406 357.382812 36.414062 350.230469 22.351562 337.246094 C 7.9375 323.929688 -0.00390625 305.535156 -0.00390625 285.441406 C -0.00390625 265.164062 7.894531 246.101562 22.234375 231.765625 C 35.597656 218.410156 53.058594 210.644531 71.785156 209.644531 C 72.015625 183.71875 82.226562 159.378906 100.589844 141.019531 C 119.164062 122.449219 143.863281 112.222656 170.136719 112.222656 C 201.441406 112.222656 230.773438 127.113281 249.308594 152.238281 C 256.660156 148.949219 264.683594 147.222656 272.730469 147.222656 C 304.367188 147.222656 330.105469 172.957031 330.105469 204.585938 C 330.105469 206.765625 329.972656 208.988281 329.703125 211.230469 C 345.871094 214.617188 360.589844 223.238281 371.5 235.796875 C 383.457031 249.558594 390.042969 267.1875 390.042969 285.441406 C 390.042969 305.714844 382.144531 324.777344 367.804688 339.113281 C 353.460938 353.449219 334.394531 361.34375 314.113281 361.34375 Z M 314.113281 361.34375 "/><path style=" stroke:none;fill-rule:nonzero;fill:#373059;fill-opacity:1;" d="M 233.472656 434.917969 C 231.183594 434.917969 229.332031 433.0625 229.332031 430.777344 L 229.332031 371.648438 L 208.082031 371.648438 C 205.792969 371.648438 203.9375 369.792969 203.9375 367.507812 L 203.9375 308.757812 C 203.9375 306.46875 205.792969 304.613281 208.082031 304.613281 C 210.367188 304.613281 212.222656 306.46875 212.222656 308.757812 L 212.222656 363.363281 L 233.472656 363.363281 C 235.761719 363.363281 237.613281 365.21875 237.613281 367.507812 L 237.613281 430.777344 C 237.613281 433.0625 235.761719 434.917969 233.472656 434.917969 Z M 233.472656 434.917969 "/><path style=" stroke:none;fill-rule:nonzero;fill:#9df2ef;fill-opacity:1;" d="M 249.636719 412.605469 C 250.164062 413.136719 250.667969 413.691406 251.144531 414.269531 C 251.617188 414.847656 252.0625 415.449219 252.480469 416.070312 C 252.894531 416.695312 253.28125 417.335938 253.632812 417.996094 C 253.988281 418.65625 254.304688 419.332031 254.59375 420.023438 C 254.878906 420.714844 255.132812 421.417969 255.347656 422.136719 C 255.566406 422.851562 255.75 423.578125 255.894531 424.3125 C 256.039062 425.046875 256.152344 425.785156 256.222656 426.53125 C 256.296875 427.277344 256.335938 428.023438 256.335938 428.773438 C 256.335938 429.523438 256.296875 430.269531 256.222656 431.015625 C 256.152344 431.757812 256.039062 432.5 255.894531 433.234375 C 255.75 433.96875 255.566406 434.691406 255.347656 435.410156 C 255.132812 436.125 254.878906 436.832031 254.59375 437.523438 C 254.308594 438.214844 253.988281 438.890625 253.632812 439.550781 C 253.28125 440.210938 252.894531 440.851562 252.480469 441.476562 C 252.0625 442.097656 251.617188 442.699219 251.144531 443.277344 C 250.667969 443.855469 250.164062 444.410156 249.636719 444.9375 C 249.105469 445.46875 248.550781 445.972656 247.972656 446.445312 C 247.394531 446.921875 246.792969 447.367188 246.171875 447.78125 C 245.546875 448.199219 244.90625 448.582031 244.246094 448.9375 C 243.585938 449.289062 242.910156 449.609375 242.21875 449.894531 C 241.523438 450.183594 240.820312 450.433594 240.105469 450.652344 C 239.386719 450.867188 238.660156 451.050781 237.925781 451.195312 C 237.191406 451.34375 236.453125 451.453125 235.707031 451.527344 C 234.960938 451.597656 234.214844 451.636719 233.464844 451.636719 C 232.714844 451.636719 231.96875 451.597656 231.222656 451.527344 C 230.476562 451.453125 229.738281 451.34375 229.003906 451.195312 C 228.269531 451.050781 227.542969 450.867188 226.828125 450.652344 C 226.109375 450.433594 225.40625 450.183594 224.714844 449.894531 C 224.023438 449.609375 223.34375 449.289062 222.683594 448.9375 C 222.023438 448.582031 221.382812 448.199219 220.761719 447.78125 C 220.136719 447.367188 219.535156 446.921875 218.957031 446.445312 C 218.378906 445.972656 217.824219 445.46875 217.292969 444.941406 C 216.765625 444.410156 216.261719 443.855469 215.789062 443.277344 C 215.3125 442.699219 214.867188 442.097656 214.449219 441.476562 C 214.035156 440.851562 213.648438 440.210938 213.296875 439.550781 C 212.941406 438.890625 212.625 438.214844 212.335938 437.523438 C 212.050781 436.832031 211.796875 436.128906 211.582031 435.410156 C 211.363281 434.695312 211.179688 433.96875 211.035156 433.234375 C 210.890625 432.5 210.78125 431.761719 210.707031 431.015625 C 210.632812 430.269531 210.597656 429.523438 210.597656 428.773438 C 210.597656 428.023438 210.632812 427.277344 210.707031 426.53125 C 210.78125 425.789062 210.890625 425.046875 211.035156 424.3125 C 211.179688 423.578125 211.363281 422.855469 211.582031 422.136719 C 211.796875 421.421875 212.050781 420.714844 212.335938 420.023438 C 212.625 419.332031 212.941406 418.65625 213.296875 417.996094 C 213.648438 417.335938 214.035156 416.695312 214.449219 416.070312 C 214.867188 415.449219 215.3125 414.847656 215.785156 414.269531 C 216.261719 413.691406 216.765625 413.136719 217.292969 412.605469 C 217.824219 412.078125 218.378906 411.574219 218.957031 411.101562 C 219.535156 410.625 220.136719 410.179688 220.757812 409.765625 C 221.382812 409.347656 222.023438 408.964844 222.683594 408.609375 C 223.34375 408.257812 224.019531 407.9375 224.714844 407.652344 C 225.40625 407.363281 226.109375 407.113281 226.824219 406.894531 C 227.542969 406.679688 228.269531 406.496094 229.003906 406.351562 C 229.738281 406.203125 230.476562 406.09375 231.222656 406.019531 C 231.96875 405.949219 232.714844 405.910156 233.464844 405.910156 C 234.214844 405.910156 234.960938 405.949219 235.707031 406.019531 C 236.453125 406.09375 237.191406 406.203125 237.925781 406.351562 C 238.660156 406.496094 239.386719 406.679688 240.101562 406.894531 C 240.820312 407.113281 241.523438 407.363281 242.214844 407.652344 C 242.910156 407.9375 243.585938 408.257812 244.246094 408.609375 C 244.90625 408.964844 245.546875 409.347656 246.171875 409.765625 C 246.792969 410.179688 247.394531 410.625 247.972656 411.101562 C 248.550781 411.574219 249.105469 412.078125 249.636719 412.605469 Z M 249.636719 412.605469 "/><path style=" stroke:none;fill-rule:nonzero;fill:#373059;fill-opacity:1;" d="M 233.472656 455.777344 C 218.578125 455.777344 206.460938 443.664062 206.460938 428.773438 C 206.460938 413.882812 218.578125 401.769531 233.472656 401.769531 C 248.367188 401.769531 260.484375 413.886719 260.484375 428.773438 C 260.484375 443.664062 248.367188 455.777344 233.472656 455.777344 Z M 233.472656 410.054688 C 223.144531 410.054688 214.746094 418.453125 214.746094 428.773438 C 214.746094 439.097656 223.148438 447.496094 233.472656 447.496094 C 243.796875 447.496094 252.199219 439.097656 252.199219 428.773438 C 252.199219 418.453125 243.796875 410.054688 233.472656 410.054688 Z M 233.472656 410.054688 "/><path style=" stroke:none;fill-rule:nonzero;fill:#373059;fill-opacity:1;" d="M 146.363281 454.574219 C 144.074219 454.574219 142.21875 452.71875 142.21875 450.433594 L 142.21875 352.304688 C 142.21875 350.019531 144.074219 348.164062 146.363281 348.164062 L 167.613281 348.164062 L 167.613281 308.757812 C 167.613281 306.46875 169.464844 304.613281 171.753906 304.613281 C 174.042969 304.613281 175.894531 306.46875 175.894531 308.757812 L 175.894531 352.304688 C 175.894531 354.59375 174.042969 356.445312 171.753906 356.445312 L 150.503906 356.445312 L 150.503906 450.433594 C 150.503906 452.71875 148.652344 454.574219 146.363281 454.574219 Z M 146.363281 454.574219 "/><path style=" stroke:none;fill-rule:nonzero;fill:#373059;fill-opacity:1;" d="M 96.816406 409.636719 C 94.527344 409.636719 92.675781 407.785156 92.675781 405.496094 L 92.675781 308.757812 C 92.675781 306.46875 94.527344 304.613281 96.816406 304.613281 C 99.105469 304.613281 100.960938 306.46875 100.960938 308.757812 L 100.960938 405.496094 C 100.960938 407.785156 99.105469 409.636719 96.816406 409.636719 Z M 96.816406 409.636719 "/><path style=" stroke:none;fill-rule:nonzero;fill:#373059;fill-opacity:1;" d="M 289.777344 409.636719 C 287.488281 409.636719 285.636719 407.785156 285.636719 405.496094 L 285.636719 308.757812 C 285.636719 306.46875 287.488281 304.613281 289.777344 304.613281 C 292.066406 304.613281 293.921875 306.46875 293.921875 308.757812 L 293.921875 405.496094 C 293.921875 407.785156 292.066406 409.636719 289.777344 409.636719 Z M 289.777344 409.636719 "/><path style=" stroke:none;fill-rule:nonzero;fill:#ffe37d;fill-opacity:1;" d="M 169.230469 450.433594 C 169.230469 451.179688 169.195312 451.929688 169.121094 452.671875 C 169.046875 453.417969 168.9375 454.160156 168.792969 454.894531 C 168.644531 455.628906 168.464844 456.351562 168.246094 457.070312 C 168.03125 457.785156 167.777344 458.488281 167.492188 459.179688 C 167.203125 459.875 166.882812 460.550781 166.53125 461.210938 C 166.179688 461.871094 165.792969 462.511719 165.378906 463.132812 C 164.960938 463.757812 164.515625 464.359375 164.039062 464.9375 C 163.566406 465.515625 163.0625 466.070312 162.535156 466.597656 C 162.003906 467.128906 161.449219 467.628906 160.871094 468.105469 C 160.292969 468.582031 159.691406 469.027344 159.066406 469.441406 C 158.445312 469.859375 157.804688 470.242188 157.144531 470.59375 C 156.484375 470.949219 155.804688 471.269531 155.113281 471.554688 C 154.421875 471.839844 153.71875 472.09375 153 472.3125 C 152.285156 472.527344 151.558594 472.710938 150.824219 472.855469 C 150.089844 473 149.351562 473.113281 148.605469 473.183594 C 147.859375 473.257812 147.113281 473.296875 146.363281 473.296875 C 145.613281 473.296875 144.867188 473.257812 144.121094 473.183594 C 143.375 473.113281 142.636719 473 141.902344 472.855469 C 141.167969 472.710938 140.441406 472.527344 139.722656 472.3125 C 139.007812 472.09375 138.304688 471.839844 137.609375 471.554688 C 136.917969 471.269531 136.242188 470.949219 135.582031 470.59375 C 134.921875 470.242188 134.28125 469.859375 133.65625 469.441406 C 133.035156 469.027344 132.433594 468.582031 131.855469 468.105469 C 131.277344 467.628906 130.722656 467.128906 130.191406 466.597656 C 129.664062 466.070312 129.160156 465.515625 128.683594 464.9375 C 128.210938 464.359375 127.765625 463.757812 127.347656 463.132812 C 126.933594 462.511719 126.546875 461.871094 126.195312 461.210938 C 125.839844 460.550781 125.519531 459.875 125.234375 459.179688 C 124.949219 458.488281 124.695312 457.785156 124.476562 457.070312 C 124.261719 456.351562 124.078125 455.628906 123.933594 454.894531 C 123.785156 454.160156 123.675781 453.417969 123.605469 452.671875 C 123.53125 451.929688 123.492188 451.179688 123.492188 450.433594 C 123.492188 449.683594 123.53125 448.9375 123.605469 448.191406 C 123.675781 447.445312 123.785156 446.707031 123.933594 445.972656 C 124.078125 445.238281 124.261719 444.511719 124.476562 443.796875 C 124.695312 443.078125 124.949219 442.375 125.234375 441.683594 C 125.519531 440.992188 125.839844 440.316406 126.195312 439.65625 C 126.546875 438.996094 126.933594 438.351562 127.347656 437.730469 C 127.765625 437.109375 128.210938 436.507812 128.683594 435.929688 C 129.160156 435.351562 129.664062 434.796875 130.191406 434.265625 C 130.722656 433.738281 131.277344 433.234375 131.855469 432.757812 C 132.433594 432.285156 133.035156 431.839844 133.65625 431.421875 C 134.28125 431.007812 134.921875 430.621094 135.582031 430.269531 C 136.242188 429.917969 136.917969 429.597656 137.609375 429.308594 C 138.304688 429.023438 139.007812 428.773438 139.722656 428.554688 C 140.441406 428.335938 141.167969 428.15625 141.902344 428.007812 C 142.636719 427.863281 143.375 427.753906 144.121094 427.679688 C 144.867188 427.605469 145.613281 427.570312 146.363281 427.570312 C 147.113281 427.570312 147.859375 427.605469 148.605469 427.679688 C 149.351562 427.753906 150.089844 427.863281 150.824219 428.007812 C 151.558594 428.15625 152.285156 428.335938 153 428.554688 C 153.71875 428.773438 154.421875 429.023438 155.113281 429.308594 C 155.804688 429.597656 156.484375 429.917969 157.144531 430.269531 C 157.804688 430.621094 158.445312 431.007812 159.066406 431.421875 C 159.691406 431.839844 160.292969 432.285156 160.871094 432.757812 C 161.449219 433.234375 162.003906 433.738281 162.535156 434.265625 C 163.0625 434.796875 163.566406 435.351562 164.039062 435.929688 C 164.515625 436.507812 164.960938 437.109375 165.378906 437.730469 C 165.792969 438.351562 166.179688 438.996094 166.53125 439.65625 C 166.882812 440.316406 167.203125 440.992188 167.492188 441.683594 C 167.777344 442.375 168.03125 443.078125 168.246094 443.796875 C 168.464844 444.511719 168.644531 445.238281 168.792969 445.972656 C 168.9375 446.707031 169.046875 447.445312 169.121094 448.191406 C 169.195312 448.9375 169.230469 449.683594 169.230469 450.433594 Z M 169.230469 450.433594 "/><path style=" stroke:none;fill-rule:nonzero;fill:#373059;fill-opacity:1;" d="M 146.363281 477.4375 C 131.46875 477.4375 119.351562 465.320312 119.351562 450.433594 C 119.351562 435.542969 131.46875 423.429688 146.363281 423.429688 C 161.257812 423.429688 173.375 435.542969 173.375 450.433594 C 173.375 465.324219 161.257812 477.4375 146.363281 477.4375 Z M 146.363281 431.710938 C 136.035156 431.710938 127.636719 440.109375 127.636719 450.433594 C 127.636719 460.753906 136.035156 469.152344 146.363281 469.152344 C 156.6875 469.152344 165.089844 460.753906 165.089844 450.433594 C 165.089844 440.109375 156.6875 431.710938 146.363281 431.710938 Z M 146.363281 431.710938 "/><path style=" stroke:none;fill-rule:nonzero;fill:#9df2ef;fill-opacity:1;" d="M 118.71875 398.871094 C 118.933594 399.589844 119.117188 400.3125 119.261719 401.046875 C 119.40625 401.78125 119.515625 402.523438 119.589844 403.269531 C 119.664062 404.011719 119.699219 404.761719 119.699219 405.507812 C 119.699219 406.257812 119.660156 407.003906 119.585938 407.75 C 119.515625 408.496094 119.402344 409.234375 119.257812 409.96875 C 119.109375 410.703125 118.929688 411.429688 118.710938 412.144531 C 118.492188 412.863281 118.242188 413.566406 117.953125 414.257812 C 117.667969 414.949219 117.347656 415.625 116.992188 416.285156 C 116.640625 416.945312 116.253906 417.585938 115.839844 418.207031 C 115.421875 418.832031 114.976562 419.429688 114.5 420.011719 C 114.023438 420.589844 113.523438 421.140625 112.992188 421.671875 C 112.460938 422.199219 111.90625 422.703125 111.328125 423.175781 C 110.75 423.652344 110.148438 424.097656 109.523438 424.511719 C 108.902344 424.929688 108.261719 425.3125 107.597656 425.664062 C 106.9375 426.019531 106.261719 426.335938 105.570312 426.625 C 104.878906 426.910156 104.171875 427.160156 103.457031 427.378906 C 102.738281 427.59375 102.015625 427.777344 101.277344 427.921875 C 100.542969 428.066406 99.804688 428.175781 99.058594 428.25 C 98.3125 428.324219 97.566406 428.359375 96.816406 428.359375 C 96.066406 428.359375 95.320312 428.320312 94.574219 428.246094 C 93.832031 428.171875 93.089844 428.0625 92.355469 427.917969 C 91.621094 427.769531 90.894531 427.589844 90.179688 427.371094 C 89.460938 427.152344 88.757812 426.902344 88.066406 426.613281 C 87.375 426.328125 86.699219 426.007812 86.039062 425.652344 C 85.378906 425.300781 84.738281 424.914062 84.113281 424.5 C 83.492188 424.082031 82.890625 423.636719 82.3125 423.160156 C 81.734375 422.6875 81.179688 422.183594 80.648438 421.652344 C 80.121094 421.125 79.617188 420.570312 79.144531 419.992188 C 78.667969 419.410156 78.222656 418.808594 77.808594 418.1875 C 77.390625 417.566406 77.007812 416.921875 76.65625 416.261719 C 76.300781 415.601562 75.984375 414.925781 75.695312 414.234375 C 75.410156 413.542969 75.160156 412.835938 74.941406 412.121094 C 74.726562 411.402344 74.542969 410.679688 74.398438 409.945312 C 74.253906 409.210938 74.144531 408.46875 74.070312 407.722656 C 73.996094 406.980469 73.960938 406.230469 73.960938 405.484375 C 73.960938 404.734375 74 403.988281 74.070312 403.242188 C 74.144531 402.496094 74.257812 401.757812 74.402344 401.023438 C 74.550781 400.289062 74.730469 399.5625 74.949219 398.847656 C 75.167969 398.132812 75.417969 397.425781 75.707031 396.734375 C 75.992188 396.042969 76.3125 395.367188 76.667969 394.707031 C 77.019531 394.046875 77.40625 393.40625 77.820312 392.785156 C 78.238281 392.160156 78.683594 391.5625 79.160156 390.984375 C 79.636719 390.402344 80.136719 389.851562 80.667969 389.320312 C 81.199219 388.792969 81.753906 388.289062 82.332031 387.816406 C 82.910156 387.339844 83.511719 386.894531 84.136719 386.480469 C 84.757812 386.0625 85.398438 385.679688 86.0625 385.328125 C 86.722656 384.976562 87.398438 384.65625 88.089844 384.371094 C 88.78125 384.082031 89.488281 383.832031 90.203125 383.613281 C 90.921875 383.398438 91.644531 383.214844 92.382812 383.070312 C 93.117188 382.925781 93.855469 382.816406 94.601562 382.742188 C 95.347656 382.667969 96.09375 382.632812 96.84375 382.632812 C 97.59375 382.632812 98.339844 382.671875 99.085938 382.746094 C 99.828125 382.820312 100.570312 382.929688 101.304688 383.074219 C 102.039062 383.222656 102.765625 383.402344 103.480469 383.621094 C 104.199219 383.839844 104.902344 384.09375 105.59375 384.378906 C 106.285156 384.664062 106.960938 384.984375 107.621094 385.339844 C 108.28125 385.691406 108.921875 386.078125 109.546875 386.492188 C 110.167969 386.910156 110.769531 387.355469 111.347656 387.832031 C 111.925781 388.308594 112.480469 388.808594 113.011719 389.339844 C 113.539062 389.867188 114.042969 390.421875 114.515625 391.003906 C 114.992188 391.582031 115.4375 392.183594 115.851562 392.804688 C 116.269531 393.429688 116.652344 394.070312 117.003906 394.730469 C 117.359375 395.390625 117.675781 396.066406 117.964844 396.757812 C 118.25 397.449219 118.5 398.15625 118.71875 398.871094 Z M 118.71875 398.871094 "/><path style=" stroke:none;fill-rule:nonzero;fill:#373059;fill-opacity:1;" d="M 96.816406 432.5 C 81.921875 432.5 69.804688 420.386719 69.804688 405.496094 C 69.804688 390.609375 81.921875 378.492188 96.816406 378.492188 C 111.710938 378.492188 123.828125 390.609375 123.828125 405.496094 C 123.828125 420.386719 111.710938 432.5 96.816406 432.5 Z M 96.816406 386.777344 C 86.492188 386.777344 78.089844 395.175781 78.089844 405.496094 C 78.089844 415.820312 86.492188 424.21875 96.816406 424.21875 C 107.144531 424.21875 115.542969 415.820312 115.542969 405.496094 C 115.542969 395.175781 107.144531 386.777344 96.816406 386.777344 Z M 96.816406 386.777344 "/><path style=" stroke:none;fill-rule:nonzero;fill:#ffe37d;fill-opacity:1;" d="M 312.648438 399.027344 C 312.648438 399.777344 312.609375 400.523438 312.535156 401.269531 C 312.464844 402.011719 312.355469 402.753906 312.207031 403.488281 C 312.0625 404.222656 311.878906 404.945312 311.664062 405.664062 C 311.445312 406.378906 311.191406 407.085938 310.90625 407.777344 C 310.621094 408.46875 310.300781 409.144531 309.945312 409.804688 C 309.59375 410.464844 309.207031 411.105469 308.792969 411.730469 C 308.375 412.351562 307.929688 412.953125 307.457031 413.53125 C 306.980469 414.109375 306.476562 414.664062 305.949219 415.191406 C 305.417969 415.722656 304.863281 416.226562 304.285156 416.699219 C 303.707031 417.175781 303.105469 417.621094 302.484375 418.035156 C 301.859375 418.453125 301.21875 418.835938 300.558594 419.191406 C 299.898438 419.542969 299.222656 419.863281 298.53125 420.148438 C 297.835938 420.4375 297.132812 420.6875 296.417969 420.90625 C 295.699219 421.121094 294.972656 421.304688 294.238281 421.449219 C 293.503906 421.597656 292.765625 421.707031 292.019531 421.78125 C 291.273438 421.851562 290.527344 421.890625 289.777344 421.890625 C 289.027344 421.890625 288.28125 421.851562 287.535156 421.78125 C 286.789062 421.707031 286.050781 421.597656 285.316406 421.449219 C 284.582031 421.304688 283.855469 421.121094 283.140625 420.90625 C 282.421875 420.6875 281.71875 420.4375 281.027344 420.148438 C 280.335938 419.863281 279.65625 419.542969 278.996094 419.191406 C 278.335938 418.835938 277.695312 418.453125 277.070312 418.035156 C 276.449219 417.621094 275.847656 417.175781 275.269531 416.699219 C 274.691406 416.226562 274.136719 415.722656 273.605469 415.191406 C 273.078125 414.664062 272.574219 414.109375 272.097656 413.53125 C 271.625 412.953125 271.179688 412.351562 270.761719 411.730469 C 270.347656 411.105469 269.960938 410.464844 269.609375 409.804688 C 269.253906 409.144531 268.9375 408.46875 268.648438 407.777344 C 268.363281 407.085938 268.109375 406.378906 267.894531 405.664062 C 267.675781 404.945312 267.492188 404.222656 267.347656 403.488281 C 267.203125 402.753906 267.09375 402.011719 267.019531 401.269531 C 266.945312 400.523438 266.910156 399.777344 266.910156 399.027344 C 266.910156 398.277344 266.945312 397.53125 267.019531 396.785156 C 267.09375 396.039062 267.203125 395.300781 267.347656 394.566406 C 267.492188 393.832031 267.675781 393.105469 267.894531 392.390625 C 268.109375 391.671875 268.363281 390.96875 268.648438 390.277344 C 268.9375 389.585938 269.253906 388.910156 269.609375 388.25 C 269.960938 387.589844 270.347656 386.949219 270.761719 386.324219 C 271.179688 385.703125 271.625 385.101562 272.097656 384.523438 C 272.574219 383.945312 273.078125 383.390625 273.605469 382.859375 C 274.136719 382.332031 274.691406 381.828125 275.269531 381.355469 C 275.847656 380.878906 276.449219 380.433594 277.074219 380.015625 C 277.695312 379.601562 278.335938 379.21875 278.996094 378.863281 C 279.65625 378.511719 280.335938 378.191406 281.027344 377.90625 C 281.71875 377.617188 282.421875 377.367188 283.140625 377.148438 C 283.855469 376.929688 284.582031 376.75 285.316406 376.605469 C 286.050781 376.457031 286.789062 376.347656 287.535156 376.273438 C 288.28125 376.203125 289.027344 376.164062 289.777344 376.164062 C 290.527344 376.164062 291.273438 376.203125 292.019531 376.273438 C 292.765625 376.347656 293.503906 376.457031 294.238281 376.605469 C 294.972656 376.75 295.699219 376.929688 296.417969 377.148438 C 297.132812 377.367188 297.835938 377.617188 298.53125 377.90625 C 299.222656 378.191406 299.898438 378.511719 300.558594 378.863281 C 301.21875 379.21875 301.859375 379.601562 302.484375 380.015625 C 303.105469 380.433594 303.707031 380.878906 304.285156 381.355469 C 304.863281 381.828125 305.417969 382.332031 305.949219 382.859375 C 306.476562 383.390625 306.980469 383.945312 307.457031 384.523438 C 307.929688 385.101562 308.375 385.703125 308.792969 386.324219 C 309.207031 386.949219 309.59375 387.589844 309.945312 388.25 C 310.300781 388.910156 310.621094 389.585938 310.90625 390.277344 C 311.191406 390.96875 311.445312 391.671875 311.664062 392.390625 C 311.878906 393.105469 312.0625 393.832031 312.207031 394.566406 C 312.355469 395.300781 312.464844 396.039062 312.535156 396.785156 C 312.609375 397.53125 312.648438 398.277344 312.648438 399.027344 Z M 312.648438 399.027344 "/><path style=" stroke:none;fill-rule:nonzero;fill:#373059;fill-opacity:1;" d="M 289.777344 426.03125 C 274.882812 426.03125 262.765625 413.917969 262.765625 399.027344 C 262.765625 384.136719 274.882812 372.023438 289.777344 372.023438 C 304.671875 372.023438 316.789062 384.136719 316.789062 399.027344 C 316.789062 413.917969 304.671875 426.03125 289.777344 426.03125 Z M 289.777344 380.304688 C 279.453125 380.304688 271.050781 388.703125 271.050781 399.027344 C 271.050781 409.351562 279.453125 417.75 289.777344 417.75 C 300.105469 417.75 308.503906 409.351562 308.503906 399.027344 C 308.503906 388.703125 300.105469 380.304688 289.777344 380.304688 Z M 289.777344 380.304688 "/><path style=" stroke:none;fill-rule:nonzero;fill:#ffe37d;fill-opacity:1;" d="M 344.457031 565.945312 L 349.761719 587.894531 L 319.714844 587.894531 L 325.019531 565.945312 Z M 344.457031 565.945312 "/><path style=" stroke:none;fill-rule:nonzero;fill:#373059;fill-opacity:1;" d="M 349.761719 592.039062 L 319.714844 592.039062 C 318.445312 592.039062 317.246094 591.457031 316.460938 590.457031 C 315.675781 589.460938 315.390625 588.15625 315.6875 586.925781 L 320.992188 564.976562 C 321.527344 562.75 323.765625 561.386719 325.988281 561.921875 C 328.214844 562.457031 329.582031 564.695312 329.042969 566.917969 L 324.976562 583.753906 L 344.496094 583.753906 L 340.429688 566.917969 C 339.894531 564.695312 341.261719 562.457031 343.484375 561.921875 C 345.707031 561.382812 347.945312 562.75 348.484375 564.976562 L 353.785156 586.925781 C 354.082031 588.15625 353.800781 589.460938 353.015625 590.457031 C 352.230469 591.457031 351.03125 592.039062 349.761719 592.039062 Z M 349.761719 592.039062 "/><path style=" stroke:none;fill-rule:nonzero;fill:#ffffff;fill-opacity:1;" d="M 379.800781 505.621094 L 379.800781 562.101562 C 379.800781 564.230469 378.074219 565.957031 375.945312 565.957031 L 293.527344 565.957031 C 291.398438 565.957031 289.671875 564.230469 289.671875 562.101562 L 289.671875 505.621094 C 289.671875 503.492188 291.398438 501.765625 293.527344 501.765625 L 375.945312 501.765625 C 378.074219 501.765625 379.800781 503.492188 379.800781 505.621094 Z M 379.800781 505.621094 "/><path style=" stroke:none;fill-rule:nonzero;fill:#373059;fill-opacity:1;" d="M 375.945312 570.097656 L 293.527344 570.097656 C 289.117188 570.097656 285.527344 566.507812 285.527344 562.097656 L 285.527344 505.621094 C 285.527344 501.210938 289.117188 497.625 293.527344 497.625 L 375.945312 497.625 C 380.355469 497.625 383.945312 501.210938 383.945312 505.621094 L 383.945312 562.101562 C 383.945312 566.507812 380.355469 570.097656 375.945312 570.097656 Z M 293.8125 561.8125 L 375.660156 561.8125 L 375.660156 505.90625 L 293.8125 505.90625 Z M 293.8125 561.8125 "/><path style=" stroke:none;fill-rule:nonzero;fill:#373059;fill-opacity:1;" d="M 362.277344 592.039062 L 307.199219 592.039062 C 304.910156 592.039062 303.054688 590.183594 303.054688 587.894531 C 303.054688 585.609375 304.910156 583.753906 307.199219 583.753906 L 362.277344 583.753906 C 364.566406 583.753906 366.417969 585.609375 366.417969 587.894531 C 366.417969 590.183594 364.566406 592.039062 362.277344 592.039062 Z M 362.277344 592.039062 "/><path style=" stroke:none;fill-rule:nonzero;fill:#ffe37d;fill-opacity:1;" d="M 344.457031 762.328125 L 349.761719 784.277344 L 319.714844 784.277344 L 325.019531 762.328125 Z M 344.457031 762.328125 "/><g clip-rule="nonzero" clip-path="url(#13c6acd060)"><path style=" stroke:none;fill-rule:nonzero;fill:#373059;fill-opacity:1;" d="M 349.761719 788.421875 L 319.714844 788.421875 C 318.445312 788.421875 317.246094 787.839844 316.460938 786.839844 C 315.675781 785.84375 315.390625 784.539062 315.6875 783.308594 L 320.992188 761.359375 C 321.527344 759.136719 323.765625 757.765625 325.988281 758.304688 C 328.214844 758.84375 329.582031 761.078125 329.042969 763.300781 L 324.976562 780.136719 L 344.496094 780.136719 L 340.429688 763.300781 C 339.894531 761.078125 341.261719 758.839844 343.484375 758.304688 C 345.707031 757.765625 347.945312 759.136719 348.484375 761.359375 L 353.785156 783.308594 C 354.082031 784.539062 353.800781 785.84375 353.015625 786.839844 C 352.230469 787.839844 351.03125 788.421875 349.761719 788.421875 Z M 349.761719 788.421875 "/></g><path style=" stroke:none;fill-rule:nonzero;fill:#ffffff;fill-opacity:1;" d="M 379.800781 702.003906 L 379.800781 758.484375 C 379.800781 760.613281 378.074219 762.339844 375.945312 762.339844 L 293.527344 762.339844 C 291.398438 762.339844 289.671875 760.613281 289.671875 758.484375 L 289.671875 702.003906 C 289.671875 699.875 291.398438 698.148438 293.527344 698.148438 L 375.945312 698.148438 C 378.074219 698.148438 379.800781 699.875 379.800781 702.003906 Z M 379.800781 702.003906 "/><path style=" stroke:none;fill-rule:nonzero;fill:#373059;fill-opacity:1;" d="M 375.945312 766.480469 L 293.527344 766.480469 C 289.117188 766.480469 285.527344 762.890625 285.527344 758.484375 L 285.527344 702.003906 C 285.527344 697.59375 289.117188 694.007812 293.527344 694.007812 L 375.945312 694.007812 C 380.355469 694.007812 383.945312 697.59375 383.945312 702.003906 L 383.945312 758.484375 C 383.945312 762.890625 380.355469 766.480469 375.945312 766.480469 Z M 293.8125 758.195312 L 375.660156 758.195312 L 375.660156 702.289062 L 293.8125 702.289062 Z M 293.8125 758.195312 "/><g clip-rule="nonzero" clip-path="url(#ce1a22599c)"><path style=" stroke:none;fill-rule:nonzero;fill:#373059;fill-opacity:1;" d="M 362.277344 788.421875 L 307.199219 788.421875 C 304.910156 788.421875 303.054688 786.566406 303.054688 784.277344 C 303.054688 781.992188 304.910156 780.136719 307.199219 780.136719 L 362.277344 780.136719 C 364.566406 780.136719 366.417969 781.992188 366.417969 784.277344 C 366.417969 786.566406 364.566406 788.421875 362.277344 788.421875 Z M 362.277344 788.421875 "/></g><path style=" stroke:none;fill-rule:nonzero;fill:#ffe37d;fill-opacity:1;" d="M 244.644531 672.828125 L 249.945312 694.777344 L 219.902344 694.777344 L 225.203125 672.828125 Z M 244.644531 672.828125 "/><path style=" stroke:none;fill-rule:nonzero;fill:#373059;fill-opacity:1;" d="M 249.945312 698.917969 L 219.902344 698.917969 C 218.632812 698.917969 217.433594 698.335938 216.648438 697.339844 C 215.863281 696.34375 215.578125 695.039062 215.875 693.804688 L 221.179688 671.855469 C 221.714844 669.632812 223.953125 668.265625 226.175781 668.804688 C 228.402344 669.339844 229.769531 671.578125 229.230469 673.800781 L 225.164062 690.636719 L 244.683594 690.636719 L 240.617188 673.800781 C 240.082031 671.578125 241.449219 669.339844 243.671875 668.804688 C 245.894531 668.265625 248.132812 669.632812 248.671875 671.855469 L 253.972656 693.804688 C 254.269531 695.039062 253.988281 696.34375 253.203125 697.339844 C 252.417969 698.335938 251.21875 698.917969 249.945312 698.917969 Z M 249.945312 698.917969 "/><path style=" stroke:none;fill-rule:nonzero;fill:#ffffff;fill-opacity:1;" d="M 279.988281 612.503906 L 279.988281 668.980469 C 279.988281 671.113281 278.261719 672.835938 276.132812 672.835938 L 193.714844 672.835938 C 191.585938 672.835938 189.859375 671.113281 189.859375 668.980469 L 189.859375 612.503906 C 189.859375 610.371094 191.582031 608.648438 193.714844 608.648438 L 276.132812 608.648438 C 278.261719 608.644531 279.988281 610.371094 279.988281 612.503906 Z M 279.988281 612.503906 "/><path style=" stroke:none;fill-rule:nonzero;fill:#373059;fill-opacity:1;" d="M 276.132812 676.980469 L 193.714844 676.980469 C 189.304688 676.980469 185.714844 673.390625 185.714844 668.980469 L 185.714844 612.5 C 185.714844 608.09375 189.304688 604.503906 193.714844 604.503906 L 276.132812 604.503906 C 280.542969 604.503906 284.132812 608.09375 284.132812 612.5 L 284.132812 668.980469 C 284.132812 673.390625 280.542969 676.980469 276.132812 676.980469 Z M 194 668.695312 L 275.847656 668.695312 L 275.847656 612.789062 L 194 612.789062 Z M 194 668.695312 "/><path style=" stroke:none;fill-rule:nonzero;fill:#373059;fill-opacity:1;" d="M 262.464844 698.917969 L 207.386719 698.917969 C 205.097656 698.917969 203.242188 697.066406 203.242188 694.777344 C 203.242188 692.492188 205.097656 690.636719 207.386719 690.636719 L 262.464844 690.636719 C 264.753906 690.636719 266.605469 692.492188 266.605469 694.777344 C 266.605469 697.066406 264.753906 698.917969 262.464844 698.917969 Z M 262.464844 698.917969 "/><path style=" stroke:none;fill-rule:nonzero;fill:#373059;fill-opacity:1;" d="M 334.738281 681.855469 C 332.449219 681.855469 330.59375 680 330.59375 677.714844 L 330.59375 607.652344 C 330.59375 605.363281 332.449219 603.511719 334.738281 603.511719 C 337.027344 603.511719 338.878906 605.363281 338.878906 607.652344 L 338.878906 677.714844 C 338.878906 680 337.027344 681.855469 334.738281 681.855469 Z M 334.738281 681.855469 "/><path style=" stroke:none;fill-rule:nonzero;fill:#ffe37d;fill-opacity:1;" d="M 469.34375 565.945312 L 464.042969 587.894531 L 494.085938 587.894531 L 488.785156 565.945312 Z M 469.34375 565.945312 "/><path style=" stroke:none;fill-rule:nonzero;fill:#373059;fill-opacity:1;" d="M 494.085938 592.039062 L 464.042969 592.039062 C 462.773438 592.039062 461.574219 591.457031 460.789062 590.457031 C 460.003906 589.460938 459.71875 588.15625 460.015625 586.925781 L 465.320312 564.976562 C 465.855469 562.75 468.089844 561.382812 470.316406 561.921875 C 472.539062 562.457031 473.910156 564.695312 473.371094 566.917969 L 469.304688 583.753906 L 488.824219 583.753906 L 484.757812 566.917969 C 484.222656 564.695312 485.589844 562.457031 487.8125 561.921875 C 490.035156 561.382812 492.273438 562.75 492.8125 564.976562 L 498.113281 586.925781 C 498.410156 588.15625 498.125 589.460938 497.339844 590.457031 C 496.554688 591.457031 495.355469 592.039062 494.085938 592.039062 Z M 494.085938 592.039062 "/><path style=" stroke:none;fill-rule:nonzero;fill:#ffffff;fill-opacity:1;" d="M 434 505.621094 L 434 562.101562 C 434 564.230469 435.726562 565.957031 437.855469 565.957031 L 520.277344 565.957031 C 522.40625 565.957031 524.132812 564.230469 524.132812 562.101562 L 524.132812 505.621094 C 524.132812 503.492188 522.40625 501.765625 520.277344 501.765625 L 437.855469 501.765625 C 435.726562 501.765625 434 503.492188 434 505.621094 Z M 434 505.621094 "/><path style=" stroke:none;fill-rule:nonzero;fill:#373059;fill-opacity:1;" d="M 520.277344 570.097656 L 437.855469 570.097656 C 433.445312 570.097656 429.859375 566.507812 429.859375 562.097656 L 429.859375 505.621094 C 429.859375 501.210938 433.445312 497.625 437.855469 497.625 L 520.277344 497.625 C 524.6875 497.625 528.273438 501.210938 528.273438 505.621094 L 528.273438 562.101562 C 528.273438 566.507812 524.6875 570.097656 520.277344 570.097656 Z M 438.144531 561.8125 L 519.988281 561.8125 L 519.988281 505.90625 L 438.144531 505.90625 Z M 520.277344 505.90625 Z M 520.277344 505.90625 "/><path style=" stroke:none;fill-rule:nonzero;fill:#373059;fill-opacity:1;" d="M 506.605469 592.039062 L 451.523438 592.039062 C 449.238281 592.039062 447.382812 590.183594 447.382812 587.894531 C 447.382812 585.609375 449.238281 583.753906 451.523438 583.753906 L 506.605469 583.753906 C 508.890625 583.753906 510.746094 585.609375 510.746094 587.894531 C 510.746094 590.183594 508.890625 592.039062 506.605469 592.039062 Z M 506.605469 592.039062 "/><path style=" stroke:none;fill-rule:nonzero;fill:#ffe37d;fill-opacity:1;" d="M 469.34375 762.328125 L 464.042969 784.277344 L 494.085938 784.277344 L 488.785156 762.328125 Z M 469.34375 762.328125 "/><g clip-rule="nonzero" clip-path="url(#fd5cb7cbac)"><path style=" stroke:none;fill-rule:nonzero;fill:#373059;fill-opacity:1;" d="M 494.085938 788.421875 L 464.042969 788.421875 C 462.773438 788.421875 461.574219 787.839844 460.789062 786.839844 C 460.003906 785.84375 459.71875 784.539062 460.015625 783.308594 L 465.320312 761.359375 C 465.855469 759.136719 468.089844 757.765625 470.316406 758.304688 C 472.539062 758.84375 473.910156 761.078125 473.371094 763.300781 L 469.304688 780.136719 L 488.824219 780.136719 L 484.757812 763.300781 C 484.222656 761.078125 485.589844 758.839844 487.8125 758.304688 C 490.035156 757.765625 492.273438 759.136719 492.8125 761.359375 L 498.113281 783.308594 C 498.410156 784.542969 498.125 785.84375 497.339844 786.839844 C 496.554688 787.839844 495.355469 788.421875 494.085938 788.421875 Z M 494.085938 788.421875 "/></g><path style=" stroke:none;fill-rule:nonzero;fill:#ffffff;fill-opacity:1;" d="M 434 702.003906 L 434 758.484375 C 434 760.613281 435.726562 762.339844 437.855469 762.339844 L 520.277344 762.339844 C 522.40625 762.339844 524.132812 760.613281 524.132812 758.484375 L 524.132812 702.003906 C 524.132812 699.875 522.40625 698.148438 520.277344 698.148438 L 437.855469 698.148438 C 435.726562 698.148438 434 699.875 434 702.003906 Z M 434 702.003906 "/><path style=" stroke:none;fill-rule:nonzero;fill:#373059;fill-opacity:1;" d="M 520.277344 766.480469 L 437.855469 766.480469 C 433.445312 766.480469 429.859375 762.890625 429.859375 758.484375 L 429.859375 702.003906 C 429.859375 697.59375 433.445312 694.007812 437.855469 694.007812 L 520.277344 694.007812 C 524.6875 694.007812 528.273438 697.59375 528.273438 702.003906 L 528.273438 758.484375 C 528.273438 762.890625 524.6875 766.480469 520.277344 766.480469 Z M 438.144531 758.195312 L 519.988281 758.195312 L 519.988281 702.289062 L 438.144531 702.289062 Z M 520.277344 702.289062 Z M 520.277344 702.289062 "/><g clip-rule="nonzero" clip-path="url(#a236163dc2)"><path style=" stroke:none;fill-rule:nonzero;fill:#373059;fill-opacity:1;" d="M 506.605469 788.421875 L 451.523438 788.421875 C 449.238281 788.421875 447.382812 786.566406 447.382812 784.277344 C 447.382812 781.992188 449.238281 780.136719 451.523438 780.136719 L 506.605469 780.136719 C 508.890625 780.136719 510.746094 781.992188 510.746094 784.277344 C 510.746094 786.566406 508.890625 788.421875 506.605469 788.421875 Z M 506.605469 788.421875 "/></g><path style=" stroke:none;fill-rule:nonzero;fill:#ffe37d;fill-opacity:1;" d="M 569.15625 672.828125 L 563.855469 694.777344 L 593.898438 694.777344 L 588.597656 672.828125 Z M 569.15625 672.828125 "/><path style=" stroke:none;fill-rule:nonzero;fill:#373059;fill-opacity:1;" d="M 593.898438 698.917969 L 563.855469 698.917969 C 562.585938 698.917969 561.386719 698.335938 560.601562 697.339844 C 559.816406 696.34375 559.53125 695.039062 559.828125 693.804688 L 565.128906 671.855469 C 565.667969 669.632812 567.90625 668.265625 570.128906 668.804688 C 572.351562 669.339844 573.71875 671.578125 573.183594 673.800781 L 569.117188 690.636719 L 588.636719 690.636719 L 584.570312 673.800781 C 584.03125 671.578125 585.402344 669.339844 587.625 668.804688 C 589.847656 668.265625 592.085938 669.632812 592.625 671.855469 L 597.925781 693.804688 C 598.222656 695.039062 597.9375 696.34375 597.152344 697.339844 C 596.367188 698.335938 595.167969 698.917969 593.898438 698.917969 Z M 593.898438 698.917969 "/><path style=" stroke:none;fill-rule:nonzero;fill:#ffffff;fill-opacity:1;" d="M 533.8125 612.503906 L 533.8125 668.980469 C 533.8125 671.113281 535.539062 672.835938 537.667969 672.835938 L 620.089844 672.835938 C 622.21875 672.835938 623.945312 671.113281 623.945312 668.980469 L 623.945312 612.503906 C 623.945312 610.371094 622.21875 608.648438 620.089844 608.648438 L 537.667969 608.648438 C 535.539062 608.644531 533.8125 610.371094 533.8125 612.503906 Z M 533.8125 612.503906 "/><path style=" stroke:none;fill-rule:nonzero;fill:#373059;fill-opacity:1;" d="M 620.089844 676.980469 L 537.667969 676.980469 C 533.257812 676.980469 529.671875 673.390625 529.671875 668.980469 L 529.671875 612.5 C 529.671875 608.09375 533.257812 604.503906 537.667969 604.503906 L 620.089844 604.503906 C 624.5 604.503906 628.085938 608.09375 628.085938 612.5 L 628.085938 668.980469 C 628.085938 673.390625 624.5 676.980469 620.089844 676.980469 Z M 537.957031 668.695312 L 619.800781 668.695312 L 619.800781 612.789062 L 537.957031 612.789062 Z M 620.089844 612.789062 Z M 620.089844 612.789062 "/><path style=" stroke:none;fill-rule:nonzero;fill:#373059;fill-opacity:1;" d="M 606.417969 698.917969 L 551.335938 698.917969 C 549.050781 698.917969 547.195312 697.066406 547.195312 694.777344 C 547.195312 692.492188 549.050781 690.636719 551.335938 690.636719 L 606.417969 690.636719 C 608.703125 690.636719 610.558594 692.492188 610.558594 694.777344 C 610.558594 697.066406 608.707031 698.917969 606.417969 698.917969 Z M 606.417969 698.917969 "/><path style=" stroke:none;fill-rule:nonzero;fill:#373059;fill-opacity:1;" d="M 479.066406 681.855469 C 476.777344 681.855469 474.921875 680 474.921875 677.714844 L 474.921875 607.652344 C 474.921875 605.363281 476.777344 603.511719 479.066406 603.511719 C 481.351562 603.511719 483.207031 605.363281 483.207031 607.652344 L 483.207031 677.714844 C 483.207031 680 481.351562 681.855469 479.066406 681.855469 Z M 479.066406 681.855469 "/><path style=" stroke:none;fill-rule:nonzero;fill:#373059;fill-opacity:1;" d="M 514.105469 646.824219 L 299.695312 646.824219 C 297.410156 646.824219 295.554688 644.96875 295.554688 642.683594 C 295.554688 640.394531 297.410156 638.542969 299.695312 638.542969 L 514.105469 638.542969 C 516.394531 638.542969 518.246094 640.394531 518.246094 642.683594 C 518.246094 644.96875 516.394531 646.824219 514.105469 646.824219 Z M 514.105469 646.824219 "/><path style=" stroke:none;fill-rule:nonzero;fill:#9df2ef;fill-opacity:1;" d="M 434.863281 642.683594 C 434.863281 643.597656 434.816406 644.511719 434.726562 645.421875 C 434.636719 646.332031 434.503906 647.238281 434.324219 648.136719 C 434.148438 649.035156 433.925781 649.921875 433.660156 650.796875 C 433.394531 651.671875 433.085938 652.535156 432.734375 653.378906 C 432.382812 654.226562 431.992188 655.050781 431.5625 655.859375 C 431.128906 656.667969 430.660156 657.453125 430.152344 658.210938 C 429.640625 658.972656 429.097656 659.707031 428.515625 660.414062 C 427.933594 661.125 427.320312 661.800781 426.671875 662.449219 C 426.027344 663.097656 425.347656 663.710938 424.640625 664.289062 C 423.933594 664.871094 423.199219 665.417969 422.4375 665.925781 C 421.675781 666.433594 420.890625 666.902344 420.082031 667.335938 C 419.273438 667.765625 418.449219 668.15625 417.601562 668.507812 C 416.753906 668.859375 415.894531 669.167969 415.019531 669.433594 C 414.140625 669.699219 413.253906 669.921875 412.355469 670.097656 C 411.457031 670.277344 410.554688 670.410156 409.640625 670.5 C 408.730469 670.589844 407.816406 670.636719 406.902344 670.636719 C 405.984375 670.636719 405.070312 670.589844 404.160156 670.5 C 403.25 670.410156 402.34375 670.277344 401.445312 670.097656 C 400.546875 669.921875 399.660156 669.699219 398.785156 669.433594 C 397.90625 669.167969 397.046875 668.859375 396.199219 668.507812 C 395.355469 668.15625 394.527344 667.765625 393.71875 667.335938 C 392.914062 666.902344 392.128906 666.433594 391.367188 665.925781 C 390.605469 665.417969 389.871094 664.871094 389.164062 664.289062 C 388.453125 663.710938 387.777344 663.097656 387.128906 662.449219 C 386.480469 661.800781 385.867188 661.125 385.285156 660.414062 C 384.707031 659.707031 384.160156 658.972656 383.652344 658.210938 C 383.144531 657.453125 382.671875 656.667969 382.242188 655.859375 C 381.808594 655.050781 381.417969 654.226562 381.066406 653.378906 C 380.71875 652.535156 380.410156 651.671875 380.144531 650.796875 C 379.878906 649.921875 379.65625 649.035156 379.476562 648.136719 C 379.296875 647.238281 379.164062 646.332031 379.074219 645.421875 C 378.984375 644.511719 378.941406 643.597656 378.941406 642.683594 C 378.941406 641.765625 378.984375 640.855469 379.074219 639.941406 C 379.164062 639.03125 379.296875 638.128906 379.476562 637.230469 C 379.65625 636.332031 379.878906 635.445312 380.144531 634.566406 C 380.410156 633.691406 380.71875 632.832031 381.066406 631.984375 C 381.417969 631.140625 381.808594 630.3125 382.242188 629.503906 C 382.671875 628.699219 383.144531 627.914062 383.652344 627.152344 C 384.160156 626.390625 384.707031 625.65625 385.285156 624.949219 C 385.867188 624.242188 386.480469 623.5625 387.128906 622.917969 C 387.777344 622.269531 388.453125 621.65625 389.164062 621.074219 C 389.871094 620.492188 390.605469 619.949219 391.367188 619.441406 C 392.128906 618.929688 392.914062 618.460938 393.71875 618.03125 C 394.527344 617.597656 395.355469 617.207031 396.199219 616.855469 C 397.046875 616.507812 397.90625 616.199219 398.785156 615.933594 C 399.660156 615.667969 400.546875 615.445312 401.445312 615.265625 C 402.34375 615.085938 403.25 614.953125 404.160156 614.863281 C 405.070312 614.773438 405.984375 614.730469 406.902344 614.730469 C 407.816406 614.730469 408.730469 614.773438 409.640625 614.863281 C 410.554688 614.953125 411.457031 615.085938 412.355469 615.265625 C 413.253906 615.445312 414.140625 615.667969 415.019531 615.933594 C 415.894531 616.199219 416.753906 616.507812 417.601562 616.855469 C 418.449219 617.207031 419.273438 617.597656 420.082031 618.03125 C 420.890625 618.460938 421.675781 618.929688 422.4375 619.441406 C 423.199219 619.949219 423.933594 620.492188 424.640625 621.074219 C 425.347656 621.65625 426.027344 622.269531 426.671875 622.917969 C 427.320312 623.5625 427.933594 624.242188 428.515625 624.949219 C 429.097656 625.65625 429.640625 626.390625 430.152344 627.152344 C 430.660156 627.914062 431.128906 628.699219 431.5625 629.503906 C 431.992188 630.3125 432.382812 631.140625 432.734375 631.984375 C 433.085938 632.832031 433.394531 633.691406 433.660156 634.566406 C 433.925781 635.445312 434.148438 636.332031 434.324219 637.230469 C 434.503906 638.128906 434.636719 639.03125 434.726562 639.941406 C 434.816406 640.855469 434.863281 641.765625 434.863281 642.683594 Z M 434.863281 642.683594 "/><path style=" stroke:none;fill-rule:nonzero;fill:#373059;fill-opacity:1;" d="M 406.902344 674.777344 C 389.199219 674.777344 374.796875 660.378906 374.796875 642.683594 C 374.796875 624.984375 389.199219 610.585938 406.902344 610.585938 C 424.601562 610.585938 439.003906 624.984375 439.003906 642.683594 C 439.003906 660.378906 424.605469 674.777344 406.902344 674.777344 Z M 406.902344 618.871094 C 393.765625 618.871094 383.082031 629.550781 383.082031 642.683594 C 383.082031 655.8125 393.765625 666.496094 406.902344 666.496094 C 420.035156 666.496094 430.71875 655.8125 430.71875 642.683594 C 430.71875 629.550781 420.035156 618.871094 406.902344 618.871094 Z M 406.902344 618.871094 "/></g></svg>