<svg xmlns="http://www.w3.org/2000/svg" xmlns:xlink="http://www.w3.org/1999/xlink" width="1080" zoomAndPan="magnify" viewBox="0 0 810 809.999993" height="1080" preserveAspectRatio="xMidYMid meet" version="1.2"><g id="4b21111710"><path style=" stroke:none;fill-rule:evenodd;fill:#fe5151;fill-opacity:1;" d="M 260.789062 639.757812 C 202.785156 639.757812 155.726562 592.742188 155.726562 534.6875 C 155.726562 476.652344 202.765625 429.617188 260.789062 429.617188 C 318.847656 429.617188 365.902344 476.636719 365.902344 534.6875 C 365.902344 592.742188 318.847656 639.757812 260.789062 639.757812 Z M 226.953125 809.921875 L 294.695312 809.921875 C 303.019531 809.921875 309.972656 803.800781 311.015625 795.476562 L 315.015625 763.269531 C 315.839844 756.816406 320.003906 751.742188 326.144531 749.707031 C 336.339844 746.277344 346.261719 742.0625 355.925781 737.019531 C 361.738281 733.960938 368.453125 734.582031 373.660156 738.632812 L 399.589844 758.796875 C 406.191406 763.949219 415.453125 763.363281 421.375 757.441406 L 469.257812 709.636719 C 475.125 703.714844 475.695312 694.402344 470.613281 687.859375 L 448.515625 659.539062 C 444.609375 654.496094 443.949219 648.15625 446.644531 642.398438 C 450.753906 633.617188 454.238281 624.582031 457.042969 615.378906 C 458.96875 609.039062 464.160156 604.675781 470.761719 603.851562 L 507.253906 599.320312 C 515.578125 598.277344 521.703125 591.3125 521.703125 582.953125 L 521.703125 515.292969 C 521.703125 506.9375 515.578125 499.96875 507.253906 498.925781 L 466.507812 493.882812 C 460.273438 493.097656 455.285156 489.210938 453.101562 483.289062 C 448.738281 471.648438 443.273438 460.320312 436.726562 449.46875 C 433.132812 443.492188 433.609375 436.328125 437.863281 430.808594 L 453.980469 410.132812 C 459.132812 403.535156 458.546875 394.238281 452.625 388.355469 L 415.5625 351.253906 C 409.640625 345.335938 400.324219 344.765625 393.777344 349.898438 L 368.820312 369.273438 C 363.722656 373.214844 357.230469 373.894531 351.453125 371.035156 C 339.863281 365.371094 329.921875 361.375 317.65625 358 C 311.109375 356.1875 306.835938 350.886719 305.699219 344.179688 L 301.167969 318.296875 C 299.71875 310.03125 293.15625 303.851562 284.792969 303.851562 L 236.820312 303.851562 C 228.457031 303.851562 221.855469 310.03125 220.445312 318.296875 L 215.914062 344.179688 C 214.777344 350.886719 210.503906 356.1875 203.957031 358 C 191.691406 361.375 181.769531 365.371094 170.160156 371.035156 C 164.382812 373.894531 157.890625 373.214844 152.738281 369.273438 L 127.835938 349.898438 C 121.234375 344.746094 111.972656 345.335938 106.050781 351.253906 L 68.933594 388.355469 C 63.066406 394.222656 62.496094 403.535156 67.578125 410.132812 L 83.75 430.808594 C 88.003906 436.308594 88.480469 443.492188 84.851562 449.46875 C 78.359375 460.320312 72.894531 471.648438 68.53125 483.289062 C 66.347656 489.210938 61.359375 493.113281 55.125 493.882812 L 14.378906 498.925781 C 6.050781 499.96875 -0.0742188 506.9375 -0.0742188 515.292969 L -0.0742188 582.953125 C -0.0742188 591.3125 6.050781 598.277344 14.378906 599.320312 L 50.871094 603.851562 C 57.472656 604.675781 62.625 609.039062 64.585938 615.378906 C 67.394531 624.582031 70.878906 633.617188 74.984375 642.398438 C 77.679688 648.171875 77.019531 654.496094 73.058594 659.539062 L 51.015625 687.859375 C 45.863281 694.402344 46.449219 703.714844 52.375 709.636719 L 100.253906 757.441406 C 106.179688 763.363281 115.4375 763.929688 122.042969 758.796875 L 147.972656 738.632812 C 153.160156 734.582031 159.871094 733.960938 165.703125 737.019531 C 175.367188 742.0625 185.308594 746.277344 195.484375 749.707031 C 201.609375 751.742188 205.773438 756.816406 206.617188 763.269531 L 210.613281 795.476562 C 211.660156 803.800781 218.574219 809.921875 226.953125 809.921875 Z M 226.953125 809.921875 "/><path style=" stroke:none;fill-rule:evenodd;fill:#d50000;fill-opacity:1;" d="M 226.953125 809.921875 L 294.695312 809.921875 C 303.019531 809.921875 309.972656 803.800781 311.015625 795.476562 L 315.015625 763.269531 C 315.839844 756.816406 320.003906 751.742188 326.144531 749.707031 C 332.234375 747.632812 338.25 745.34375 344.136719 742.683594 L 332.125 733.335938 C 326.933594 729.285156 320.222656 728.664062 314.355469 731.722656 C 304.746094 736.765625 294.804688 740.980469 284.628906 744.410156 C 278.503906 746.441406 274.339844 751.519531 273.496094 757.972656 L 269.5 790.179688 C 268.453125 798.5 261.484375 804.625 253.175781 804.625 L 214.871094 804.625 C 217.859375 807.90625 222.167969 809.921875 226.953125 809.921875 Z M 384.71875 747.269531 L 399.589844 758.796875 C 406.191406 763.949219 415.453125 763.363281 421.375 757.441406 L 469.257812 709.636719 C 475.125 703.714844 475.695312 694.402344 470.613281 687.859375 L 448.515625 659.539062 C 444.609375 654.496094 443.949219 648.15625 446.644531 642.398438 C 450.753906 633.617188 454.238281 624.582031 457.042969 615.378906 C 458.96875 609.039062 464.160156 604.675781 470.761719 603.851562 L 507.253906 599.320312 C 515.578125 598.277344 521.703125 591.3125 521.703125 582.953125 L 521.703125 515.292969 C 521.703125 506.9375 515.578125 499.96875 507.253906 498.925781 L 467.753906 494.050781 C 475.035156 495.863281 480.167969 502.371094 480.167969 509.996094 L 480.167969 577.65625 C 480.167969 586.015625 474.042969 592.980469 465.71875 594.023438 L 429.226562 598.550781 C 422.625 599.378906 417.433594 603.738281 415.507812 610.082031 C 412.703125 619.285156 409.21875 628.320312 405.109375 637.101562 C 402.414062 642.875 403.074219 649.199219 406.980469 654.242188 L 429.078125 682.5625 C 434.175781 689.160156 433.609375 698.417969 427.722656 704.335938 Z M 464.398438 493.480469 C 459.152344 492.179688 454.988281 488.550781 453.066406 483.289062 C 448.699219 471.648438 443.234375 460.320312 436.6875 449.46875 C 433.09375 443.492188 433.570312 436.328125 437.824219 430.808594 L 453.945312 410.132812 C 459.097656 403.535156 458.511719 394.238281 452.585938 388.355469 L 415.527344 351.253906 C 409.601562 345.335938 400.289062 344.765625 393.742188 349.898438 L 384.847656 356.808594 L 411.050781 383.039062 C 416.976562 388.960938 417.542969 398.21875 412.410156 404.816406 L 396.289062 425.546875 C 392.035156 431.011719 391.558594 438.179688 395.152344 444.152344 C 401.699219 455.003906 407.164062 466.332031 411.527344 477.972656 C 413.710938 483.894531 418.699219 487.800781 424.933594 488.570312 Z M 329.976562 361.921875 C 326.035156 360.511719 321.964844 359.230469 317.65625 358.019531 C 311.109375 356.203125 306.835938 350.90625 305.699219 344.199219 L 301.167969 318.316406 C 299.71875 310.046875 293.15625 303.871094 284.792969 303.871094 L 255.214844 303.871094 C 257.449219 306.308594 259.007812 309.480469 259.632812 313.015625 L 264.105469 338.898438 C 265.300781 345.609375 269.570312 350.960938 276.117188 352.722656 C 288.332031 356.09375 298.308594 360.109375 309.917969 365.773438 C 315.691406 368.632812 322.183594 367.953125 327.28125 364.011719 Z M 89.398438 746.589844 L 100.253906 757.441406 C 106.179688 763.363281 115.4375 763.929688 122.039062 758.796875 L 144.816406 741.070312 C 137.792969 738.378906 130.933594 735.261719 124.1875 731.722656 C 118.375 728.664062 111.660156 729.285156 106.453125 733.335938 Z M 89.398438 746.589844 "/><path style=" stroke:none;fill-rule:evenodd;fill:#63bbff;fill-opacity:1;" d="M 613.488281 252.910156 C 569.824219 252.910156 534.375 217.480469 534.429688 173.832031 C 534.375 130.132812 569.824219 94.753906 613.488281 94.753906 C 657.207031 94.753906 692.597656 130.132812 692.597656 173.832031 C 692.597656 217.480469 657.207031 252.910156 613.488281 252.910156 Z M 654.289062 345.867188 C 654.804688 341.082031 657.152344 337.652344 660.945312 335.269531 L 685.0625 326.125 C 689.480469 323.832031 694.523438 324.253906 698.429688 327.316406 L 717.980469 342.492188 C 722.910156 346.398438 729.878906 345.976562 734.355469 341.503906 L 770.371094 305.5 C 774.84375 301.027344 775.25 294.0625 771.417969 289.078125 L 754.785156 267.777344 C 751.867188 264.039062 751.355469 259.253906 753.371094 254.890625 C 756.488281 248.292969 759.09375 241.492188 761.21875 234.582031 C 762.667969 229.796875 766.574219 226.535156 771.507812 225.910156 L 799.015625 222.484375 C 805.25 221.695312 809.871094 216.453125 809.871094 210.164062 L 809.871094 159.242188 C 809.871094 152.953125 805.25 147.710938 799.015625 146.925781 L 768.296875 143.128906 C 763.621094 142.507812 759.882812 139.59375 758.210938 135.121094 C 754.929688 126.394531 750.824219 117.816406 745.945312 109.660156 C 743.25 105.1875 743.558594 99.777344 746.769531 95.636719 L 758.929688 80.054688 C 762.777344 75.125 762.355469 68.101562 757.882812 63.683594 L 729.972656 35.730469 C 725.496094 31.3125 718.527344 30.855469 713.539062 34.742188 L 694.835938 49.351562 C 690.984375 52.320312 686.105469 52.832031 681.742188 50.652344 C 673.011719 46.398438 665.53125 43.429688 656.269531 40.882812 C 651.335938 39.46875 648.164062 35.472656 647.285156 30.433594 L 643.910156 10.949219 C 642.808594 4.769531 637.878906 0.0976562 631.585938 0.0976562 L 595.460938 0.0976562 C 589.171875 0.0976562 584.238281 4.769531 583.136719 10.949219 L 579.761719 30.433594 C 578.882812 35.472656 575.65625 39.46875 570.722656 40.882812 C 561.515625 43.429688 554.035156 46.382812 545.304688 50.652344 C 540.941406 52.832031 536.046875 52.320312 532.210938 49.351562 L 513.46875 34.722656 C 508.484375 30.820312 501.515625 31.296875 497.039062 35.710938 L 469.128906 63.667969 C 464.652344 68.085938 464.25 75.105469 468.082031 80.035156 L 480.242188 95.617188 C 483.46875 99.777344 483.78125 105.1875 481.066406 109.640625 C 476.132812 117.796875 472.027344 126.375 468.742188 135.101562 C 467.128906 139.574219 463.390625 142.46875 458.65625 143.113281 L 427.996094 146.90625 C 421.761719 147.695312 417.140625 152.9375 417.140625 159.222656 L 417.140625 210.144531 C 417.140625 216.433594 421.761719 221.675781 427.996094 222.464844 L 455.449219 225.890625 C 460.4375 226.515625 464.34375 229.796875 465.792969 234.5625 C 467.917969 241.472656 470.523438 248.273438 473.640625 254.871094 C 475.675781 259.234375 475.144531 264.019531 472.191406 267.757812 L 455.613281 289.058594 C 451.761719 294.046875 452.183594 301.011719 456.660156 305.484375 L 492.675781 341.484375 C 497.09375 345.957031 504.117188 346.378906 509.050781 342.472656 L 528.542969 327.296875 C 532.488281 324.234375 537.53125 323.8125 541.949219 326.105469 C 549.175781 329.898438 556.65625 333.070312 564.304688 335.617188 C 568.980469 337.175781 572.097656 341.027344 572.667969 345.847656 L 575.675781 370.117188 C 576.460938 376.347656 581.707031 380.96875 587.996094 380.96875 L 638.996094 380.96875 C 645.285156 380.96875 650.476562 376.347656 651.265625 370.117188 C 652.308594 362.03125 653.300781 353.96875 654.289062 345.867188 Z M 654.289062 345.867188 "/><path style=" stroke:none;fill-rule:evenodd;fill:#2d9aed;fill-opacity:1;" d="M 654.289062 345.867188 C 654.804688 341.082031 657.152344 337.652344 660.945312 335.269531 L 680.585938 327.847656 L 670.867188 320.257812 C 666.960938 317.195312 661.917969 316.773438 657.5 319.066406 L 633.382812 328.214844 C 629.589844 330.597656 627.257812 334.023438 626.726562 338.808594 C 625.738281 346.855469 624.691406 354.976562 623.71875 363.078125 C 622.929688 369.308594 617.6875 373.929688 611.398438 373.929688 L 576.828125 373.929688 C 578.808594 378.144531 583.0625 380.988281 587.996094 380.988281 L 638.996094 380.988281 C 645.285156 380.988281 650.476562 376.367188 651.265625 370.136719 C 652.308594 362.03125 653.300781 353.96875 654.289062 345.867188 Z M 707.105469 334.078125 L 717.960938 342.492188 C 722.894531 346.398438 729.863281 345.976562 734.335938 341.503906 L 770.351562 305.5 C 774.828125 301.027344 775.230469 294.0625 771.398438 289.078125 L 754.765625 267.777344 C 751.847656 264.039062 751.335938 259.253906 753.351562 254.890625 C 756.472656 248.292969 759.074219 241.492188 761.203125 234.582031 C 762.652344 229.796875 766.558594 226.535156 771.488281 225.910156 L 798.996094 222.484375 C 805.230469 221.695312 809.851562 216.453125 809.851562 210.164062 L 809.851562 159.242188 C 809.851562 152.953125 805.230469 147.710938 798.996094 146.925781 L 779.707031 144.542969 C 781.320312 146.667969 782.308594 149.324219 782.308594 152.183594 L 782.308594 203.105469 C 782.308594 209.394531 777.6875 214.636719 771.453125 215.425781 L 743.945312 218.851562 C 739.011719 219.476562 735.105469 222.757812 733.601562 227.523438 C 731.53125 234.433594 728.871094 241.234375 725.808594 247.832031 C 723.738281 252.195312 724.304688 256.980469 727.222656 260.71875 L 743.855469 282.019531 C 747.703125 287.007812 747.28125 293.972656 742.808594 298.445312 Z M 760.027344 138.4375 C 759.292969 137.449219 758.671875 136.367188 758.210938 135.121094 C 754.929688 126.394531 750.824219 117.816406 745.945312 109.660156 C 743.25 105.1875 743.558594 99.777344 746.769531 95.636719 L 758.929688 80.054688 C 762.777344 75.125 762.355469 68.101562 757.882812 63.683594 L 729.972656 35.730469 C 725.496094 31.3125 718.527344 30.855469 713.539062 34.742188 L 710.679688 36.976562 L 730.320312 56.609375 C 734.738281 61.027344 735.199219 67.992188 731.3125 72.980469 L 719.207031 88.558594 C 715.980469 92.722656 715.613281 98.128906 718.328125 102.582031 C 723.261719 110.738281 727.367188 119.261719 730.648438 128.042969 C 732.320312 132.515625 736.058594 135.414062 740.738281 136.054688 Z M 665.109375 43.613281 C 662.304688 42.625 659.386719 41.6875 656.269531 40.863281 C 651.335938 39.453125 648.164062 35.457031 647.285156 30.414062 L 643.910156 10.929688 C 642.808594 4.753906 637.878906 0.078125 631.585938 0.078125 L 615.101562 0.078125 C 615.667969 1.214844 616.089844 2.515625 616.347656 3.871094 L 619.722656 23.359375 C 620.601562 28.398438 623.773438 32.394531 628.707031 33.75 C 637.96875 36.300781 645.449219 39.304688 654.125 43.578125 C 657.71875 45.335938 661.679688 45.335938 665.109375 43.613281 Z M 484.367188 333.199219 L 492.695312 341.519531 C 497.113281 345.992188 504.136719 346.414062 509.070312 342.511719 L 528.5625 327.332031 C 529.132812 326.910156 529.664062 326.546875 530.285156 326.234375 C 524.878906 324.164062 519.578125 321.761719 514.386719 319.066406 C 510.023438 316.773438 504.980469 317.195312 501.019531 320.257812 Z M 484.367188 333.199219 "/><path style=" stroke:none;fill-rule:evenodd;fill:#efd233;fill-opacity:1;" d="M 437.273438 81.59375 C 448.609375 81.59375 459.832031 82.273438 470.851562 83.519531 L 480.261719 95.617188 C 483.488281 99.777344 483.800781 105.1875 481.085938 109.640625 C 476.152344 117.796875 472.042969 126.375 468.761719 135.101562 C 467.3125 139.097656 464.085938 141.902344 460.03125 142.835938 C 457.226562 142.726562 454.476562 142.691406 451.617188 142.691406 C 331.957031 142.691406 234.949219 239.640625 234.949219 359.210938 C 234.949219 447.433594 287.761719 523.359375 363.5 557.125 C 356.21875 590.578125 332.929688 618.128906 302.050781 631.328125 C 209.109375 582.585938 145.679688 485.214844 145.679688 373.03125 C 145.699219 212.070312 276.230469 81.59375 437.273438 81.59375 Z M 565.238281 111.105469 C 662.140625 158.492188 728.835938 258.007812 728.835938 373.03125 C 728.835938 529.023438 606.261719 656.421875 452.074219 664.121094 L 448.480469 659.554688 C 444.574219 654.515625 443.914062 648.171875 446.609375 642.417969 C 450.71875 633.636719 454.203125 624.601562 457.007812 615.398438 C 458.933594 609.054688 464.121094 604.691406 470.722656 603.867188 L 507.21875 599.339844 C 515.542969 598.296875 521.667969 591.328125 521.667969 582.972656 L 521.667969 564.21875 C 606.921875 535.128906 668.265625 454.328125 668.265625 359.230469 C 668.265625 269.445312 613.578125 192.382812 535.660156 159.589844 C 539.253906 139.941406 550.074219 122.855469 565.238281 111.105469 Z M 565.238281 111.105469 "/><path style=" stroke:none;fill-rule:evenodd;fill:#efd233;fill-opacity:1;" d="M 437.273438 81.59375 C 448.609375 81.59375 459.832031 82.273438 470.851562 83.519531 L 480.261719 95.617188 C 483.488281 99.777344 483.800781 105.1875 481.085938 109.640625 C 476.152344 117.796875 472.042969 126.375 468.761719 135.101562 C 467.3125 139.097656 464.085938 141.902344 460.03125 142.835938 C 457.226562 142.726562 454.476562 142.691406 451.617188 142.691406 C 331.957031 142.691406 234.949219 239.640625 234.949219 359.210938 C 234.949219 447.433594 287.761719 523.359375 363.5 557.125 C 356.21875 590.578125 332.929688 618.128906 302.050781 631.328125 C 209.109375 582.585938 145.679688 485.214844 145.679688 373.03125 C 145.699219 212.070312 276.230469 81.59375 437.273438 81.59375 Z M 565.238281 111.105469 C 662.140625 158.492188 728.835938 258.007812 728.835938 373.03125 C 728.835938 529.023438 606.261719 656.421875 452.074219 664.121094 L 448.480469 659.554688 C 444.574219 654.515625 443.914062 648.171875 446.609375 642.417969 C 450.71875 633.636719 454.203125 624.601562 457.007812 615.398438 C 458.933594 609.054688 464.121094 604.691406 470.722656 603.867188 L 507.21875 599.339844 C 515.542969 598.296875 521.667969 591.328125 521.667969 582.972656 L 521.667969 564.21875 C 606.921875 535.128906 668.265625 454.328125 668.265625 359.230469 C 668.265625 269.445312 613.578125 192.382812 535.660156 159.589844 C 539.253906 139.941406 550.074219 122.855469 565.238281 111.105469 Z M 565.238281 111.105469 "/><path style=" stroke:none;fill-rule:evenodd;fill:#ff9609;fill-opacity:1;" d="M 474.335938 122.125 C 473.089844 124.671875 469.714844 132.773438 468.78125 135.121094 C 467.332031 139.117188 464.105469 141.921875 460.050781 142.855469 C 457.246094 142.746094 454.496094 142.707031 451.632812 142.707031 C 331.976562 142.707031 234.96875 239.660156 234.96875 359.230469 C 234.96875 411.542969 253.582031 459.570312 284.460938 496.984375 C 241.222656 457.386719 214.082031 400.492188 214.082031 337.25 C 214.0625 193.007812 338.597656 106.320312 474.335938 122.125 Z M 637.96875 161.660156 C 693.902344 214.765625 728.835938 289.847656 728.835938 373.03125 C 728.835938 529.023438 606.261719 656.421875 452.074219 664.121094 L 448.480469 659.554688 C 444.574219 654.515625 443.914062 648.171875 446.609375 642.417969 C 446.8125 641.902344 447.085938 641.371094 447.289062 640.859375 C 593.773438 625.425781 707.929688 501.546875 707.929688 351.070312 C 707.949219 278.738281 681.578125 212.585938 637.96875 161.660156 Z M 597.84375 199.441406 C 579.707031 182.871094 558.710938 169.304688 535.679688 159.589844 C 536.300781 156.054688 537.183594 152.570312 538.335938 149.253906 C 561.09375 162.285156 581.265625 179.332031 597.84375 199.441406 Z M 597.84375 199.441406 "/><path style=" stroke:none;fill-rule:evenodd;fill:#efd233;fill-opacity:1;" d="M 317.65625 155.027344 L 250.8125 141.207031 C 208.339844 128.171875 226.128906 83.792969 255.746094 86.433594 L 357.6875 96.203125 C 368.453125 97.871094 378.539062 104.214844 384.773438 114.386719 C 390.75 124.671875 391.539062 136.566406 387.890625 146.8125 L 348.058594 241.125 C 336.359375 268.457031 288.277344 262.992188 297.539062 219.457031 Z M 317.65625 155.027344 "/><path style=" stroke:none;fill-rule:evenodd;fill:#ff9609;fill-opacity:1;" d="M 359.613281 96.570312 C 369.644531 98.640625 378.90625 104.835938 384.773438 114.386719 C 390.75 124.671875 391.539062 136.566406 387.890625 146.8125 L 348.058594 241.125 C 339.386719 261.398438 310.742188 263.617188 300.234375 245.746094 C 311 246.164062 322.277344 240.445312 327.152344 229.0625 L 366.964844 134.699219 C 370.597656 124.46875 369.828125 112.554688 363.847656 102.269531 C 362.621094 100.199219 361.171875 98.273438 359.613281 96.570312 Z M 359.613281 96.570312 "/><path style=" stroke:none;fill-rule:nonzero;fill:#ffffff;fill-opacity:1;" d="M 163.210938 651.601562 C 176.835938 663.441406 158.789062 684.175781 145.164062 672.332031 C 116.519531 647.441406 96.460938 613.363281 88.976562 575.839844 C 85.4375 558.078125 112.414062 552.726562 115.953125 570.433594 C 122.296875 602.238281 138.984375 630.503906 163.210938 651.601562 Z M 113.789062 527.410156 C 112.066406 545.394531 84.777344 542.789062 86.5 524.863281 C 87.125 518.265625 88.058594 511.976562 89.472656 505.542969 C 93.214844 487.871094 120.097656 493.535156 116.355469 511.207031 C 115.128906 516.816406 114.503906 521.746094 113.789062 527.410156 Z M 113.789062 527.410156 "/></g></svg>