<svg xmlns="http://www.w3.org/2000/svg" xmlns:xlink="http://www.w3.org/1999/xlink" width="1080" zoomAndPan="magnify" viewBox="0 0 810 809.999993" height="1080" preserveAspectRatio="xMidYMid meet" version="1.2"><g id="41b64a824b"><path style=" stroke:none;fill-rule:nonzero;fill:#f0f6ff;fill-opacity:1;" d="M 736.519531 401.699219 C 736.519531 9.621094 354.117188 15.105469 216.171875 70.605469 C 0 189.988281 90.625 462.785156 183.519531 584.960938 C 394.816406 800.085938 736.519531 585.289062 736.519531 401.699219 Z M 736.519531 401.699219 "/><path style=" stroke:none;fill-rule:nonzero;fill:#f0f6ff;fill-opacity:1;" d="M 449.585938 630.542969 C 448.496094 630.542969 447.417969 630.503906 446.34375 630.425781 C 448.460938 630.507812 449.585938 630.542969 449.585938 630.542969 Z M 449.585938 630.542969 "/><path style=" stroke:none;fill-rule:nonzero;fill:#0c981c;fill-opacity:1;" d="M 492.664062 35.742188 L 761.824219 35.742188 C 768.148438 35.742188 774.414062 36.988281 780.257812 39.410156 C 786.105469 41.828125 791.414062 45.375 795.890625 49.847656 C 800.363281 54.320312 803.910156 59.628906 806.332031 65.472656 C 808.753906 71.316406 810 77.578125 810 83.902344 L 810 582.378906 C 810 595.152344 804.921875 607.402344 795.890625 616.433594 C 786.855469 625.464844 774.601562 630.539062 761.824219 630.539062 L 492.664062 630.539062 C 479.886719 630.539062 467.632812 625.464844 458.597656 616.433594 C 449.5625 607.402344 444.488281 595.152344 444.488281 582.378906 L 444.488281 83.902344 C 444.488281 71.128906 449.5625 58.878906 458.597656 49.847656 C 467.632812 40.816406 479.886719 35.742188 492.664062 35.742188 Z M 492.664062 35.742188 "/><path style=" stroke:none;fill-rule:nonzero;fill:#2a3038;fill-opacity:1;" d="M 739.074219 35.742188 L 469.914062 35.742188 C 443.308594 35.742188 421.738281 57.304688 421.738281 83.902344 L 421.738281 582.378906 C 421.738281 608.976562 443.308594 630.539062 469.914062 630.539062 L 739.074219 630.539062 C 765.679688 630.539062 787.25 608.976562 787.25 582.378906 L 787.25 83.902344 C 787.25 57.304688 765.679688 35.742188 739.074219 35.742188 Z M 739.074219 35.742188 "/><path style=" stroke:none;fill-rule:nonzero;fill:#f0f6ff;fill-opacity:1;" d="M 739.527344 64.507812 L 469.460938 64.507812 C 458.269531 64.507812 449.195312 73.578125 449.195312 84.769531 L 449.195312 581.511719 C 449.195312 592.703125 458.269531 601.773438 469.460938 601.773438 L 739.527344 601.773438 C 750.71875 601.773438 759.792969 592.703125 759.792969 581.511719 L 759.792969 84.769531 C 759.792969 73.578125 750.71875 64.507812 739.527344 64.507812 Z M 739.527344 64.507812 "/><path style=" stroke:none;fill-rule:nonzero;fill:#2a3038;fill-opacity:1;" d="M 659.457031 83.242188 L 549.53125 83.242188 C 542.195312 83.242188 536.246094 89.1875 536.246094 96.523438 C 536.246094 103.855469 542.195312 109.800781 549.53125 109.800781 L 659.457031 109.800781 C 666.792969 109.800781 672.742188 103.855469 672.742188 96.523438 C 672.742188 89.1875 666.792969 83.242188 659.457031 83.242188 Z M 659.457031 83.242188 "/><path style=" stroke:none;fill-rule:nonzero;fill:#fca703;fill-opacity:1;" d="M 487.855469 134.183594 L 590.460938 134.183594 C 592.476562 134.183594 594.40625 135.3125 595.832031 137.324219 C 597.253906 139.335938 598.054688 142.066406 598.054688 144.910156 L 598.054688 289.929688 C 598.054688 292.773438 597.253906 295.503906 595.832031 297.515625 C 594.40625 299.527344 592.476562 300.65625 590.460938 300.65625 L 487.855469 300.65625 C 485.84375 300.65625 483.910156 299.527344 482.488281 297.515625 C 481.0625 295.503906 480.265625 292.773438 480.265625 289.929688 L 480.265625 144.910156 C 480.265625 142.066406 481.0625 139.335938 482.488281 137.324219 C 483.910156 135.3125 485.84375 134.183594 487.855469 134.183594 Z M 487.855469 134.183594 "/><path style=" stroke:none;fill-rule:nonzero;fill:#fca703;fill-opacity:1;" d="M 618.566406 134.183594 L 721.175781 134.183594 C 723.1875 134.183594 725.117188 135.3125 726.542969 137.324219 C 727.964844 139.335938 728.765625 142.066406 728.765625 144.910156 L 728.765625 289.929688 C 728.765625 292.773438 727.964844 295.503906 726.542969 297.515625 C 725.117188 299.527344 723.1875 300.65625 721.175781 300.65625 L 618.566406 300.65625 C 616.554688 300.65625 614.625 299.527344 613.199219 297.515625 C 611.777344 295.503906 610.976562 292.773438 610.976562 289.929688 L 610.976562 144.910156 C 610.976562 142.066406 611.777344 139.335938 613.199219 137.324219 C 614.625 135.3125 616.554688 134.183594 618.566406 134.183594 Z M 618.566406 134.183594 "/><path style=" stroke:none;fill-rule:nonzero;fill:#fca703;fill-opacity:1;" d="M 487.8125 320.167969 L 590.414062 320.167969 C 592.429688 320.167969 594.359375 320.96875 595.78125 322.390625 C 597.207031 323.816406 598.007812 325.746094 598.007812 327.757812 L 598.007812 430.328125 C 598.007812 432.339844 597.207031 434.269531 595.78125 435.691406 C 594.359375 437.117188 592.429688 437.914062 590.414062 437.914062 L 487.8125 437.914062 C 485.796875 437.914062 483.867188 437.117188 482.445312 435.691406 C 481.019531 434.269531 480.222656 432.339844 480.222656 430.328125 L 480.222656 327.757812 C 480.222656 325.746094 481.019531 323.8125 482.445312 322.390625 C 483.867188 320.96875 485.796875 320.167969 487.8125 320.167969 Z M 487.8125 320.167969 "/><path style=" stroke:none;fill-rule:nonzero;fill:#fca703;fill-opacity:1;" d="M 618.574219 320.167969 L 721.175781 320.167969 C 723.191406 320.167969 725.121094 320.96875 726.542969 322.390625 C 727.96875 323.816406 728.769531 325.746094 728.769531 327.757812 L 728.769531 430.328125 C 728.769531 432.339844 727.96875 434.269531 726.542969 435.691406 C 725.121094 437.117188 723.191406 437.914062 721.175781 437.914062 L 618.574219 437.914062 C 616.558594 437.914062 614.628906 437.117188 613.207031 435.691406 C 611.78125 434.269531 610.984375 432.339844 610.984375 430.328125 L 610.984375 327.757812 C 610.984375 325.746094 611.78125 323.8125 613.207031 322.390625 C 614.628906 320.96875 616.558594 320.167969 618.574219 320.167969 Z M 618.574219 320.167969 "/><path style=" stroke:none;fill-rule:nonzero;fill:#fca703;fill-opacity:1;" d="M 487.8125 457.460938 L 590.414062 457.460938 C 592.429688 457.460938 594.359375 458.261719 595.78125 459.683594 C 597.207031 461.105469 598.007812 463.039062 598.007812 465.050781 L 598.007812 567.621094 C 598.007812 569.632812 597.207031 571.5625 595.78125 572.984375 C 594.359375 574.410156 592.429688 575.207031 590.414062 575.207031 L 487.8125 575.207031 C 485.796875 575.207031 483.867188 574.410156 482.445312 572.984375 C 481.019531 571.5625 480.222656 569.632812 480.222656 567.621094 L 480.222656 465.050781 C 480.222656 463.035156 481.019531 461.105469 482.445312 459.683594 C 483.867188 458.261719 485.796875 457.460938 487.8125 457.460938 Z M 487.8125 457.460938 "/><path style=" stroke:none;fill-rule:nonzero;fill:#fca703;fill-opacity:1;" d="M 618.574219 457.460938 L 721.175781 457.460938 C 723.191406 457.460938 725.121094 458.261719 726.542969 459.683594 C 727.96875 461.105469 728.769531 463.039062 728.769531 465.050781 L 728.769531 567.621094 C 728.769531 569.632812 727.96875 571.5625 726.542969 572.984375 C 725.121094 574.410156 723.191406 575.207031 721.175781 575.207031 L 618.574219 575.207031 C 616.558594 575.207031 614.628906 574.410156 613.207031 572.984375 C 611.78125 571.5625 610.984375 569.632812 610.984375 567.621094 L 610.984375 465.050781 C 610.984375 463.035156 611.78125 461.105469 613.207031 459.683594 C 614.628906 458.261719 616.558594 457.460938 618.574219 457.460938 Z M 618.574219 457.460938 "/><path style=" stroke:none;fill-rule:nonzero;fill:#0c981c;fill-opacity:1;" d="M 212.746094 55.929688 C 180.628906 55.929688 154.589844 81.925781 154.589844 113.996094 C 154.589844 137.675781 186.285156 194.769531 202.882812 223.03125 C 207.300781 230.5625 218.1875 230.5625 222.605469 223.03125 C 239.199219 194.769531 270.902344 137.675781 270.902344 113.996094 C 270.902344 81.925781 244.863281 55.929688 212.746094 55.929688 Z M 212.746094 148.433594 C 206.175781 148.433594 199.753906 146.488281 194.292969 142.84375 C 188.832031 139.199219 184.574219 134.019531 182.0625 127.960938 C 179.546875 121.902344 178.890625 115.234375 180.171875 108.800781 C 181.453125 102.371094 184.617188 96.460938 189.261719 91.824219 C 193.90625 87.183594 199.824219 84.027344 206.265625 82.746094 C 212.707031 81.46875 219.386719 82.125 225.453125 84.632812 C 231.523438 87.144531 236.710938 91.394531 240.359375 96.847656 C 244.011719 102.300781 245.957031 108.710938 245.957031 115.269531 C 245.957031 119.625 245.097656 123.9375 243.429688 127.960938 C 241.761719 131.984375 239.316406 135.640625 236.230469 138.71875 C 233.148438 141.800781 229.484375 144.242188 225.457031 145.910156 C 221.425781 147.574219 217.105469 148.433594 212.746094 148.433594 Z M 212.746094 148.433594 "/><path style=" stroke:none;fill-rule:nonzero;fill:#fca703;fill-opacity:1;" d="M 209.210938 134.183594 C 209.140625 134.183594 209.070312 134.183594 209.003906 134.179688 C 207.914062 134.152344 206.847656 133.894531 205.863281 133.425781 C 204.882812 132.960938 204.011719 132.292969 203.300781 131.46875 L 178.265625 102.359375 C 177.59375 101.585938 177.085938 100.683594 176.765625 99.710938 C 176.445312 98.738281 176.320312 97.710938 176.394531 96.691406 C 176.472656 95.667969 176.75 94.671875 177.210938 93.757812 C 177.671875 92.84375 178.308594 92.027344 179.085938 91.359375 C 179.863281 90.691406 180.761719 90.183594 181.738281 89.863281 C 182.710938 89.542969 183.738281 89.417969 184.757812 89.496094 C 185.777344 89.570312 186.777344 89.851562 187.6875 90.3125 C 188.601562 90.773438 189.417969 91.414062 190.085938 92.1875 L 209.523438 114.789062 L 261.164062 60.917969 C 261.871094 60.179688 262.71875 59.585938 263.65625 59.171875 C 264.59375 58.761719 265.605469 58.535156 266.628906 58.515625 C 267.652344 58.492188 268.671875 58.671875 269.625 59.042969 C 270.582031 59.414062 271.453125 59.972656 272.191406 60.683594 C 272.933594 61.390625 273.523438 62.238281 273.9375 63.175781 C 274.347656 64.117188 274.570312 65.125 274.59375 66.152344 C 274.613281 67.175781 274.433594 68.195312 274.058594 69.148438 C 273.6875 70.105469 273.128906 70.976562 272.417969 71.714844 L 214.839844 131.78125 C 214.113281 132.539062 213.238281 133.144531 212.269531 133.558594 C 211.304688 133.96875 210.261719 134.183594 209.210938 134.183594 Z M 209.210938 134.183594 "/><path style=" stroke:none;fill-rule:nonzero;fill:#2a3038;fill-opacity:1;" d="M 628.910156 380.003906 C 629.21875 384.527344 629.503906 389.144531 629.769531 393.851562 C 630.304688 403.503906 630.617188 412.761719 630.714844 421.625 C 630.746094 424.058594 630.757812 426.457031 630.753906 428.828125 C 630.753906 429.027344 630.753906 429.226562 630.75 429.425781 C 630.75 429.886719 630.75 430.347656 630.746094 430.808594 C 630.742188 431.476562 630.738281 432.136719 630.734375 432.800781 C 630.699219 436.800781 630.621094 440.71875 630.5 444.550781 C 630.367188 448.605469 630.195312 452.5625 629.976562 456.421875 C 629.75 460.285156 629.480469 464.054688 629.167969 467.730469 L 629.167969 467.734375 C 617.625 604.144531 545.773438 611.949219 513.242188 516.296875 C 503.921875 488.898438 497.832031 453.015625 497.304688 409.230469 L 497.308594 409.230469 L 497.308594 409.226562 L 497.304688 409.222656 C 497.203125 400.257812 497.335938 390.957031 497.710938 381.324219 L 497.710938 381.316406 C 497.769531 379.742188 497.839844 378.140625 497.917969 376.539062 L 497.917969 376.535156 C 498.027344 374.238281 498.152344 371.921875 498.289062 369.589844 C 498.65625 363.378906 499.105469 357.320312 499.636719 351.421875 C 501.425781 331.421875 504.109375 313.210938 507.492188 296.910156 C 531.023438 183.472656 588.519531 163.152344 616.1875 285.941406 C 617.585938 292.125 618.898438 298.675781 620.132812 305.585938 C 622.984375 321.546875 625.351562 339.503906 627.242188 359.453125 C 627.859375 366.078125 628.414062 372.925781 628.910156 380.003906 Z M 628.910156 380.003906 "/><path style=" stroke:none;fill-rule:nonzero;fill:#2a3038;fill-opacity:1;" d="M 242.816406 386.015625 C 200.863281 396.570312 208.058594 523.71875 214.949219 544.71875 C 221.839844 565.722656 311.394531 554.691406 321.464844 535.425781 C 331.535156 516.167969 301.480469 371.261719 242.816406 386.015625 Z M 281.148438 442.964844 C 278.851562 452.695312 237.472656 457.730469 232.441406 450.359375 C 227.414062 442.992188 231.054688 401.003906 249.105469 397.644531 C 266.835938 394.347656 283.441406 433.230469 281.148438 442.964844 Z M 281.148438 442.964844 "/><path style=" stroke:none;fill-rule:nonzero;fill:#fca703;fill-opacity:1;" d="M 232.769531 391.917969 C 190.816406 402.472656 198.011719 529.621094 204.902344 550.621094 C 211.792969 571.625 301.347656 560.59375 311.417969 541.328125 C 321.488281 522.070312 291.433594 377.164062 232.769531 391.917969 Z M 271.101562 448.867188 C 268.804688 458.597656 227.425781 463.632812 222.398438 456.261719 C 217.367188 448.894531 221.011719 406.90625 239.0625 403.546875 C 256.789062 400.25 273.394531 439.132812 271.101562 448.867188 Z M 271.101562 448.867188 "/><path style=" stroke:none;fill-rule:nonzero;fill:#f99573;fill-opacity:1;" d="M 291.117188 381.640625 C 285.609375 379.023438 280.746094 376.867188 276.433594 375.105469 C 252.644531 365.394531 245.550781 367.6875 237.988281 370.648438 C 229.058594 374.144531 214.609375 398.9375 219.621094 405.019531 C 224.636719 411.097656 229.136719 404.320312 236.1875 396.371094 C 243.234375 388.425781 251.378906 386.378906 256.078125 388.96875 C 269.277344 396.242188 248.847656 406.269531 253.890625 413.058594 C 258.496094 419.269531 274.3125 407.808594 274.3125 407.808594 C 274.3125 407.808594 277.953125 411.417969 286.277344 408.730469 C 294.601562 406.039062 296.949219 384.40625 291.117188 381.640625 Z M 291.117188 381.640625 "/><path style=" stroke:none;fill-rule:nonzero;fill:#fca703;fill-opacity:1;" d="M 630.71875 421.625 C 630.75 424.058594 630.765625 426.457031 630.757812 428.828125 C 630.757812 429.027344 630.757812 429.222656 630.757812 429.421875 C 630.753906 429.886719 630.753906 430.351562 630.75 430.8125 C 630.746094 431.476562 630.742188 432.140625 630.738281 432.800781 C 630.703125 436.804688 630.625 440.722656 630.503906 444.554688 C 630.246094 452.65625 629.800781 460.382812 629.171875 467.730469 C 627.554688 469.242188 625.886719 470.792969 624.167969 472.382812 C 622.9375 473.527344 621.671875 474.675781 620.371094 475.828125 C 589.847656 502.945312 541.554688 532.792969 531.453125 530.542969 C 524.550781 529.007812 522.585938 524.132812 522.058594 520.953125 C 521.890625 520.003906 521.835938 519.039062 521.898438 518.078125 C 521.898438 518.078125 535.703125 503.339844 554.347656 485.113281 C 558.070312 481.476562 561.984375 477.703125 566.015625 473.875 C 566.703125 473.222656 567.390625 472.570312 568.085938 471.917969 C 571.03125 469.140625 574.03125 466.34375 577.066406 463.570312 C 579.859375 461.007812 582.679688 458.460938 585.5 455.957031 C 601.765625 441.511719 618.183594 428.382812 630.71875 421.625 Z M 630.71875 421.625 "/><path style=" stroke:none;fill-rule:nonzero;fill:#2a3038;fill-opacity:1;" d="M 630.757812 429.421875 C 630.757812 429.886719 630.753906 430.351562 630.75 430.8125 C 630.746094 431.476562 630.742188 432.140625 630.738281 432.800781 C 630.703125 436.804688 630.625 440.722656 630.503906 444.554688 C 630.246094 452.65625 629.800781 460.382812 629.171875 467.730469 C 627.554688 469.242188 625.886719 470.792969 624.167969 472.382812 C 622.9375 473.527344 621.671875 474.675781 620.371094 475.828125 C 623.070312 458.820312 622.625 438.300781 622.625 438.300781 C 622.625 438.300781 627.492188 432.632812 630.757812 429.421875 Z M 630.757812 429.421875 "/><path style=" stroke:none;fill-rule:nonzero;fill:#0c981c;fill-opacity:1;" d="M 287.132812 418.1875 C 272.835938 427.597656 372.4375 489.378906 421.050781 473.210938 C 461.558594 459.738281 479.335938 436.707031 479.335938 436.707031 L 423.742188 377.28125 L 393.722656 399.933594 C 393.722656 399.933594 319.726562 364.449219 305.714844 372.660156 C 300.609375 396.601562 287.132812 418.1875 287.132812 418.1875 Z M 287.132812 418.1875 "/><path style=" stroke:none;fill-rule:nonzero;fill:#2a3038;fill-opacity:1;" d="M 283.378906 408.464844 C 283.257812 408.820312 283.117188 409.167969 282.953125 409.507812 C 275.621094 424.996094 296.027344 436.0625 309.050781 415.605469 C 322.214844 394.925781 317.011719 374.351562 309.625 371.753906 C 307.222656 370.917969 304.699219 370.492188 302.15625 370.492188 C 300.363281 370.492188 298.613281 371.0625 297.160156 372.113281 C 295.707031 373.167969 294.625 374.652344 294.0625 376.355469 Z M 283.378906 408.464844 "/><path style=" stroke:none;fill-rule:nonzero;fill:#0c981c;fill-opacity:1;" d="M 628.910156 380.003906 C 629.21875 384.527344 629.507812 389.144531 629.773438 393.855469 C 630.304688 403.5 630.621094 412.757812 630.71875 421.628906 C 630.75 424.058594 630.761719 426.460938 630.757812 428.828125 C 630.757812 429.492188 630.753906 430.15625 630.746094 430.8125 C 630.746094 431.476562 630.742188 432.140625 630.738281 432.800781 C 630.699219 436.804688 630.621094 440.722656 630.5 444.554688 C 621.789062 453.039062 610.925781 462.542969 599.414062 471.890625 C 588.089844 481.09375 576.140625 490.140625 565.003906 497.902344 C 545.875 511.253906 529.148438 520.824219 522.054688 520.953125 C 521.804688 520.960938 521.550781 520.953125 521.300781 520.929688 C 519.25 520.738281 516.507812 519.089844 513.242188 516.296875 C 503.425781 507.882812 488.914062 489.066406 474.425781 468.199219 C 472.765625 465.804688 471.105469 463.386719 469.441406 460.945312 C 450.316406 432.789062 432.179688 402.726562 426.066406 390.277344 C 424.933594 387.96875 424.210938 386.265625 423.96875 385.292969 C 423.886719 384.953125 423.816406 384.617188 423.753906 384.28125 L 423.753906 384.277344 C 423.289062 381.972656 423.289062 379.601562 423.742188 377.296875 L 423.742188 377.28125 C 425.355469 368.992188 432.753906 360.382812 445.945312 347.246094 C 447.042969 346.15625 448.179688 345.03125 449.355469 343.875 L 451.183594 342.355469 L 455.410156 338.824219 C 455.410156 338.832031 455.410156 338.832031 455.414062 338.824219 L 455.707031 338.582031 L 465.125 330.722656 L 467.246094 328.953125 L 477.707031 320.21875 L 478.210938 319.800781 L 484.054688 314.925781 L 493.351562 307.171875 C 493.351562 307.171875 494.089844 306.550781 495.394531 305.519531 C 497.828125 303.597656 502.238281 300.261719 507.492188 296.910156 C 514.105469 292.699219 522.050781 288.476562 529.082031 287.046875 C 533.027344 286.242188 536.6875 286.316406 539.660156 287.765625 C 549.644531 292.636719 599.648438 342.089844 628.910156 380.003906 Z M 628.910156 380.003906 "/><path style=" stroke:none;fill-rule:nonzero;fill:#2a3038;fill-opacity:1;" d="M 599.414062 471.894531 C 588.09375 481.09375 576.140625 490.140625 565.007812 497.90625 C 524.117188 450.148438 469.46875 369.683594 451.183594 342.355469 L 477.707031 320.222656 C 505.207031 363.636719 574.613281 443.691406 599.414062 471.894531 Z M 599.414062 471.894531 "/><path style=" stroke:none;fill-rule:nonzero;fill:#f0f6ff;fill-opacity:1;" d="M 573.171875 482.03125 C 528.792969 432.925781 469.476562 338.046875 468.882812 337.09375 L 471.292969 335.589844 C 471.886719 336.542969 531.074219 431.210938 575.28125 480.125 Z M 573.171875 482.03125 "/><path style=" stroke:none;fill-rule:nonzero;fill:#2a3038;fill-opacity:1;" d="M 481.925781 292.605469 C 448.664062 310.167969 437.890625 330.070312 437.890625 330.070312 L 457.058594 339.226562 L 470.089844 336.34375 L 484.210938 316.554688 Z M 481.925781 292.605469 "/><path style=" stroke:none;fill-rule:nonzero;fill:#f99573;fill-opacity:1;" d="M 482.292969 300.183594 C 480.585938 314.070312 475.601562 334.027344 466.683594 338.746094 C 457.769531 343.46875 444.925781 332.949219 444.925781 332.949219 L 435.089844 315.367188 L 425.289062 297.835938 L 454.777344 268.058594 C 454.777344 268.058594 463.09375 278.640625 471.175781 288.09375 C 475.332031 292.953125 479.425781 297.519531 482.292969 300.183594 Z M 482.292969 300.183594 "/><path style=" stroke:none;fill-rule:nonzero;fill:#2a3038;fill-opacity:1;" d="M 471.175781 288.09375 C 461.609375 302.671875 442.777344 312.011719 435.089844 315.367188 L 425.289062 297.835938 L 454.777344 268.058594 C 454.777344 268.058594 463.09375 278.640625 471.175781 288.09375 Z M 471.175781 288.09375 "/><path style=" stroke:none;fill-rule:nonzero;fill:#2a3038;fill-opacity:1;" d="M 495.507812 305.710938 C 485.972656 332.558594 460.503906 348.335938 445.730469 347.238281 C 440.621094 341.539062 437.890625 330.070312 437.890625 330.070312 C 437.890625 330.070312 439.824219 329.042969 446.835938 325.917969 C 456.878906 321.5 465.734375 330.828125 468.871094 334.734375 C 467.132812 329.851562 463.539062 316.851562 471.046875 308.863281 C 480.4375 298.875 481.925781 292.609375 481.925781 292.609375 C 481.925781 292.609375 491.835938 299.003906 495.507812 305.710938 Z M 495.507812 305.710938 "/><path style=" stroke:none;fill-rule:nonzero;fill:#2a3038;fill-opacity:1;" d="M 368.441406 211.832031 C 368.441406 211.832031 343.6875 227.34375 368.035156 242.9375 C 383.234375 264.164062 427.988281 243.765625 427.988281 243.765625 C 427.988281 243.765625 459.523438 254.910156 464.523438 249.359375 C 469.523438 243.808594 480.445312 234.933594 480.445312 234.933594 C 480.445312 234.933594 484.785156 214.949219 473.273438 205.359375 C 451.289062 129.554688 365.65625 184.363281 368.441406 211.832031 Z M 368.441406 211.832031 "/><path style=" stroke:none;fill-rule:nonzero;fill:#f99573;fill-opacity:1;" d="M 435.484375 213.617188 C 435.484375 213.617188 450.125 239.121094 463.519531 242.515625 C 459.308594 207.902344 500.195312 236.171875 470.605469 258.289062 C 476.078125 273.433594 468.371094 296.625 429.273438 307.632812 C 390.175781 318.640625 373.199219 291.050781 365.996094 234.503906 C 384.03125 214.074219 435.484375 213.617188 435.484375 213.617188 Z M 435.484375 213.617188 "/><path style=" stroke:none;fill-rule:nonzero;fill:#2a3038;fill-opacity:1;" d="M 388.953125 266.953125 C 388.453125 267.132812 387.925781 267.214844 387.398438 267.1875 C 386.871094 267.164062 386.351562 267.035156 385.875 266.8125 C 385.394531 266.585938 384.964844 266.269531 384.609375 265.878906 C 384.253906 265.488281 383.976562 265.03125 383.796875 264.535156 L 382.304688 260.40625 C 382.125 259.90625 382.042969 259.378906 382.066406 258.851562 C 382.09375 258.324219 382.222656 257.804688 382.445312 257.328125 C 382.671875 256.847656 382.988281 256.417969 383.378906 256.0625 C 383.769531 255.707031 384.226562 255.429688 384.722656 255.25 C 385.726562 254.886719 386.835938 254.9375 387.800781 255.390625 C 388.769531 255.847656 389.515625 256.664062 389.878906 257.667969 L 391.371094 261.800781 C 391.734375 262.804688 391.683594 263.910156 391.230469 264.878906 C 390.777344 265.84375 389.957031 266.589844 388.953125 266.953125 Z M 388.953125 266.953125 "/><path style=" stroke:none;fill-rule:nonzero;fill:#2a3038;fill-opacity:1;" d="M 418.757812 257.101562 C 418.257812 257.28125 417.730469 257.359375 417.203125 257.335938 C 416.675781 257.3125 416.15625 257.183594 415.679688 256.960938 C 415.199219 256.734375 414.769531 256.417969 414.414062 256.027344 C 414.058594 255.636719 413.78125 255.179688 413.601562 254.683594 L 412.109375 250.554688 C 411.929688 250.054688 411.847656 249.527344 411.871094 249 C 411.898438 248.472656 412.027344 247.953125 412.25 247.476562 C 412.476562 246.996094 412.792969 246.566406 413.183594 246.210938 C 413.574219 245.855469 414.03125 245.578125 414.527344 245.398438 C 415.53125 245.035156 416.640625 245.085938 417.605469 245.542969 C 418.574219 245.996094 419.320312 246.8125 419.683594 247.816406 L 421.175781 251.949219 C 421.539062 252.953125 421.488281 254.058594 421.035156 255.023438 C 420.582031 255.992188 419.761719 256.738281 418.757812 257.101562 Z M 418.757812 257.101562 "/><path style=" stroke:none;fill-rule:nonzero;fill:#2a3038;fill-opacity:1;" d="M 408.257812 276.824219 C 405.859375 277.035156 403.921875 276.464844 402.46875 275.121094 C 399.863281 272.703125 399.109375 267.953125 400.226562 261 C 400.753906 257.835938 401.523438 254.714844 402.53125 251.664062 C 402.652344 251.308594 402.910156 251.015625 403.25 250.851562 C 403.589844 250.6875 403.980469 250.664062 404.335938 250.785156 C 404.691406 250.90625 404.984375 251.164062 405.152344 251.503906 C 405.316406 251.84375 405.339844 252.234375 405.21875 252.589844 C 404.265625 255.496094 403.535156 258.472656 403.03125 261.488281 C 402.105469 267.257812 402.59375 271.359375 404.402344 273.035156 C 405.984375 274.5 408.84375 274.351562 412.914062 272.601562 C 413.261719 272.453125 413.652344 272.449219 414 272.589844 C 414.351562 272.730469 414.632812 273 414.78125 273.347656 C 414.929688 273.695312 414.933594 274.085938 414.796875 274.433594 C 414.65625 274.785156 414.382812 275.066406 414.039062 275.214844 C 412.207031 276.050781 410.257812 276.59375 408.257812 276.824219 Z M 408.257812 276.824219 "/><path style=" stroke:none;fill-rule:nonzero;fill:#2a3038;fill-opacity:1;" d="M 404.839844 229.722656 C 400.207031 230.976562 402.464844 237.847656 406.488281 237.273438 C 410.515625 236.699219 418.496094 233.878906 417.199219 230.8125 C 415.902344 227.75 407.59375 228.980469 404.839844 229.722656 Z M 404.839844 229.722656 "/><path style=" stroke:none;fill-rule:nonzero;fill:#2a3038;fill-opacity:1;" d="M 383.859375 237.71875 C 388.308594 235.917969 390.667969 242.75 387.113281 244.726562 C 383.558594 246.703125 375.496094 249.277344 374.675781 246.054688 C 373.855469 242.828125 381.21875 238.785156 383.859375 237.71875 Z M 383.859375 237.71875 "/><path style=" stroke:none;fill-rule:nonzero;fill:#2a3038;fill-opacity:1;" d="M 468.769531 461.183594 C 468.523438 461.207031 468.273438 461.164062 468.046875 461.058594 C 467.824219 460.953125 467.628906 460.792969 467.484375 460.589844 C 449.4375 435.039062 425.695312 392.664062 425.457031 392.238281 C 425.367188 392.078125 425.304688 391.898438 425.285156 391.710938 C 425.261719 391.523438 425.277344 391.335938 425.328125 391.15625 C 425.375 390.976562 425.460938 390.808594 425.578125 390.660156 C 425.695312 390.511719 425.839844 390.390625 426.003906 390.296875 C 426.164062 390.207031 426.34375 390.148438 426.53125 390.128906 C 426.71875 390.105469 426.90625 390.121094 427.085938 390.171875 C 427.265625 390.222656 427.433594 390.3125 427.582031 390.425781 C 427.726562 390.542969 427.847656 390.6875 427.941406 390.851562 C 428.175781 391.277344 451.84375 433.523438 469.808594 458.949219 C 469.953125 459.152344 470.039062 459.390625 470.0625 459.640625 C 470.085938 459.890625 470.039062 460.140625 469.9375 460.367188 C 469.832031 460.59375 469.667969 460.789062 469.464844 460.929688 C 469.257812 461.074219 469.019531 461.164062 468.769531 461.183594 Z M 468.769531 461.183594 "/><path style=" stroke:none;fill-rule:nonzero;fill:#2a3038;fill-opacity:1;" d="M 430.1875 296.03125 C 418.382812 301.539062 407.308594 291.996094 406.238281 288.179688 C 406.175781 287.976562 406.148438 287.765625 406.15625 287.554688 C 406.324219 284.472656 428.460938 269.214844 434.585938 269.140625 C 434.867188 269.140625 435.144531 269.183594 435.410156 269.269531 C 440.863281 271 442.128906 290.460938 430.1875 296.03125 Z M 430.1875 296.03125 "/><path style=" stroke:none;fill-rule:nonzero;fill:#f0f6ff;fill-opacity:1;" d="M 435.410156 269.269531 C 435.6875 273.09375 433.632812 278.429688 424.136719 284.335938 C 414.84375 290.121094 409.378906 289.882812 406.238281 288.179688 C 406.175781 287.976562 406.148438 287.765625 406.15625 287.554688 C 406.324219 284.472656 428.460938 269.214844 434.585938 269.140625 C 434.867188 269.140625 435.144531 269.183594 435.410156 269.269531 Z M 435.410156 269.269531 "/><path style=" stroke:none;fill-rule:nonzero;fill:#0c981c;fill-opacity:1;" d="M 627.242188 359.457031 C 621.6875 358.980469 615.949219 358.234375 610.195312 357.296875 C 595.726562 354.855469 581.425781 351.5 567.382812 347.257812 C 529.132812 335.730469 514.429688 294.628906 529.082031 287.046875 C 549.144531 276.664062 587.695312 280.761719 616.1875 285.945312 C 617.585938 292.128906 618.898438 298.675781 620.132812 305.585938 C 622.984375 321.546875 625.351562 339.503906 627.242188 359.457031 Z M 627.242188 359.457031 "/><path style=" stroke:none;fill-rule:nonzero;fill:#2a3038;fill-opacity:1;" d="M 597.6875 356.617188 C 597.625 356.617188 597.558594 356.613281 597.496094 356.605469 C 580.058594 354.609375 565.300781 350.332031 553.632812 343.898438 C 544.214844 338.703125 536.773438 332.101562 531.511719 324.273438 C 522.5 310.867188 523.03125 298.652344 523.058594 298.140625 C 523.078125 297.699219 523.277344 297.289062 523.601562 296.992188 C 523.929688 296.699219 524.359375 296.546875 524.800781 296.570312 C 525.238281 296.59375 525.652344 296.789062 525.945312 297.113281 C 526.242188 297.441406 526.394531 297.871094 526.371094 298.3125 C 526.363281 298.425781 525.898438 310.089844 534.382812 322.597656 C 539.367188 329.945312 546.429688 336.160156 555.375 341.070312 C 566.640625 347.253906 580.941406 351.371094 597.875 353.3125 C 598.292969 353.359375 598.679688 353.566406 598.953125 353.890625 C 599.226562 354.214844 599.367188 354.628906 599.34375 355.050781 C 599.316406 355.476562 599.132812 355.871094 598.824219 356.164062 C 598.515625 356.453125 598.109375 356.617188 597.6875 356.617188 Z M 597.6875 356.617188 "/><path style=" stroke:none;fill-rule:nonzero;fill:#0c981c;fill-opacity:1;" d="M 484.832031 264.234375 C 483.433594 265.667969 481.773438 266.820312 479.941406 267.632812 C 456.445312 277.953125 447.148438 222.921875 434.058594 216.9375 C 420.964844 210.957031 370.914062 230.589844 369.597656 235.945312 C 368.285156 241.296875 365.816406 257.140625 381.007812 289.210938 C 379.46875 289.449219 377.757812 289.035156 375.957031 288.058594 C 357.339844 277.972656 328.851562 207.730469 376.324219 174.636719 C 392.90625 163.078125 428.6875 149 465.03125 172.871094 C 490.65625 189.703125 501.675781 247.253906 484.832031 264.234375 Z M 484.832031 264.234375 "/><path style=" stroke:none;fill-rule:nonzero;fill:#2a3038;fill-opacity:1;" d="M 484.832031 264.234375 C 483.433594 265.667969 481.773438 266.820312 479.941406 267.632812 C 456.445312 277.953125 447.148438 222.917969 434.058594 216.9375 C 420.96875 210.953125 370.914062 230.585938 369.597656 235.941406 C 368.285156 241.292969 365.816406 257.136719 381.007812 289.207031 C 379.46875 289.445312 377.757812 289.035156 375.957031 288.054688 C 372.402344 280.898438 367.359375 268.503906 365.136719 255.742188 C 361.914062 237.25 363.742188 233.183594 373.0625 228.003906 C 382.378906 222.824219 413.171875 210.832031 425.320312 211.726562 C 437.46875 212.617188 442.390625 215.058594 446.792969 224.671875 C 451.195312 234.285156 463.292969 260.582031 471.617188 264.105469 C 476.207031 266.050781 481.238281 265.296875 484.832031 264.234375 Z M 484.832031 264.234375 "/><path style=" stroke:none;fill-rule:nonzero;fill:#2a3038;fill-opacity:1;" d="M 471.058594 232.453125 C 478.894531 230.785156 483.28125 220.214844 480.859375 208.839844 C 478.4375 197.46875 470.121094 189.601562 462.289062 191.269531 C 454.453125 192.9375 450.0625 203.507812 452.488281 214.882812 C 454.910156 226.253906 463.226562 234.121094 471.058594 232.453125 Z M 471.058594 232.453125 "/><path style=" stroke:none;fill-rule:nonzero;fill:#fca703;fill-opacity:1;" d="M 361.472656 193.476562 C 336.683594 216.371094 345.546875 246.695312 353.175781 251.398438 C 360.800781 256.101562 353.445312 238.007812 396.136719 226.53125 C 438.828125 215.054688 456.90625 232.550781 468.074219 223.535156 C 479.242188 214.515625 463.542969 183.710938 443.199219 177.671875 C 422.855469 171.632812 385.445312 171.332031 361.472656 193.476562 Z M 361.472656 193.476562 "/><path style=" stroke:none;fill-rule:nonzero;fill:#2a3038;fill-opacity:1;" d="M 256.898438 483.101562 C 256.953125 483.769531 256.929688 484.445312 256.816406 485.105469 L 241.703125 486.421875 C 241.476562 485.789062 241.335938 485.132812 241.277344 484.464844 C 241.269531 484.375 241.261719 484.289062 241.257812 484.203125 C 241.152344 482.171875 241.835938 480.179688 243.167969 478.644531 C 244.503906 477.109375 246.378906 476.152344 248.40625 475.976562 C 250.429688 475.800781 252.445312 476.417969 254.027344 477.699219 C 255.605469 478.976562 256.625 480.820312 256.867188 482.839844 C 256.878906 482.925781 256.890625 483.015625 256.898438 483.101562 Z M 256.898438 483.101562 "/><path style=" stroke:none;fill-rule:nonzero;fill:#0c981c;fill-opacity:1;" d="M 285.371094 514.636719 C 285.621094 517.488281 285.507812 520.359375 285.03125 523.183594 L 220.515625 528.8125 C 219.554688 526.113281 218.945312 523.304688 218.695312 520.453125 C 218.664062 520.074219 218.636719 519.699219 218.617188 519.328125 C 218.152344 510.660156 221.078125 502.15625 226.769531 495.605469 C 232.460938 489.054688 240.476562 484.96875 249.125 484.214844 C 257.773438 483.460938 266.375 486.09375 273.117188 491.5625 C 279.859375 497.027344 284.210938 504.898438 285.253906 513.511719 C 285.300781 513.886719 285.339844 514.257812 285.371094 514.636719 Z M 285.371094 514.636719 "/><path style=" stroke:none;fill-rule:nonzero;fill:#0c981c;fill-opacity:1;" d="M 292.050781 517.742188 C 292.109375 518.371094 292.039062 519.007812 291.847656 519.609375 C 291.65625 520.210938 291.351562 520.769531 290.945312 521.253906 C 290.539062 521.738281 290.042969 522.136719 289.480469 522.429688 C 288.921875 522.71875 288.308594 522.898438 287.675781 522.953125 L 217.867188 529.042969 C 217.238281 529.097656 216.601562 529.03125 216 528.839844 C 215.398438 528.648438 214.835938 528.34375 214.351562 527.9375 C 213.867188 527.53125 213.46875 527.035156 213.179688 526.476562 C 212.886719 525.914062 212.707031 525.300781 212.652344 524.671875 C 212.597656 524.042969 212.667969 523.410156 212.859375 522.808594 C 213.046875 522.203125 213.355469 521.644531 213.761719 521.164062 C 214.167969 520.679688 214.667969 520.28125 215.226562 519.988281 C 215.789062 519.699219 216.398438 519.519531 217.03125 519.464844 L 286.839844 513.375 C 287.46875 513.320312 288.105469 513.390625 288.707031 513.578125 C 289.308594 513.769531 289.867188 514.074219 290.351562 514.480469 C 290.835938 514.886719 291.234375 515.382812 291.527344 515.941406 C 291.816406 516.503906 291.996094 517.113281 292.050781 517.742188 Z M 292.050781 517.742188 "/><path style=" stroke:none;fill-rule:nonzero;fill:#f0f6ff;fill-opacity:1;" d="M 382.5 189.320312 C 362.21875 197.0625 352.421875 217.25 357.765625 226.105469 C 363.109375 234.957031 360.371094 215.113281 388.765625 209.164062 C 417.160156 203.210938 407.691406 179.703125 382.5 189.320312 Z M 382.5 189.320312 "/><path style=" stroke:none;fill-rule:nonzero;fill:#0c981c;fill-opacity:1;" d="M 328.644531 296.96875 L 158.511719 296.96875 C 153.898438 296.96875 150.160156 301.878906 150.160156 307.9375 L 150.160156 340.996094 C 150.160156 347.054688 153.898438 351.96875 158.511719 351.96875 L 328.644531 351.96875 C 333.257812 351.96875 336.996094 347.054688 336.996094 340.996094 L 336.996094 307.9375 C 336.996094 301.878906 333.257812 296.96875 328.644531 296.96875 Z M 328.644531 296.96875 "/><path style=" stroke:none;fill-rule:nonzero;fill:#fca703;fill-opacity:1;" d="M 193.65625 320.332031 L 187.089844 319.378906 C 186.839844 319.34375 186.597656 319.246094 186.394531 319.09375 C 186.1875 318.945312 186.023438 318.75 185.910156 318.519531 L 182.972656 312.574219 C 182.84375 312.3125 182.644531 312.089844 182.394531 311.9375 C 182.144531 311.78125 181.859375 311.699219 181.566406 311.699219 C 181.273438 311.699219 180.988281 311.78125 180.738281 311.9375 C 180.488281 312.089844 180.289062 312.3125 180.160156 312.574219 L 177.222656 318.519531 C 177.113281 318.75 176.945312 318.945312 176.738281 319.09375 C 176.535156 319.246094 176.292969 319.34375 176.042969 319.378906 L 169.476562 320.332031 C 169.1875 320.375 168.917969 320.496094 168.691406 320.683594 C 168.46875 320.875 168.300781 321.121094 168.210938 321.398438 C 168.121094 321.675781 168.109375 321.976562 168.179688 322.257812 C 168.25 322.542969 168.398438 322.800781 168.609375 323.007812 L 173.359375 327.636719 C 173.542969 327.8125 173.675781 328.03125 173.753906 328.273438 C 173.835938 328.515625 173.851562 328.773438 173.808594 329.023438 L 172.6875 335.558594 C 172.640625 335.847656 172.671875 336.144531 172.78125 336.417969 C 172.890625 336.6875 173.074219 336.921875 173.3125 337.09375 C 173.550781 337.265625 173.828125 337.367188 174.121094 337.390625 C 174.414062 337.410156 174.707031 337.347656 174.964844 337.210938 L 180.835938 334.128906 C 181.0625 334.007812 181.3125 333.945312 181.566406 333.945312 C 181.820312 333.945312 182.070312 334.007812 182.296875 334.128906 L 188.167969 337.210938 C 188.425781 337.347656 188.71875 337.410156 189.011719 337.390625 C 189.304688 337.367188 189.582031 337.265625 189.820312 337.09375 C 190.054688 336.921875 190.242188 336.6875 190.351562 336.417969 C 190.460938 336.144531 190.492188 335.847656 190.445312 335.558594 L 189.324219 329.023438 C 189.28125 328.773438 189.296875 328.515625 189.375 328.273438 C 189.457031 328.03125 189.59375 327.8125 189.773438 327.636719 L 194.523438 323.007812 C 194.734375 322.800781 194.882812 322.542969 194.953125 322.257812 C 195.023438 321.976562 195.011719 321.675781 194.921875 321.398438 C 194.832031 321.121094 194.664062 320.875 194.441406 320.683594 C 194.214844 320.496094 193.945312 320.375 193.65625 320.332031 Z M 193.65625 320.332031 "/><path style=" stroke:none;fill-rule:nonzero;fill:#fca703;fill-opacity:1;" d="M 224.695312 320.332031 L 218.128906 319.378906 C 217.878906 319.34375 217.640625 319.246094 217.433594 319.09375 C 217.226562 318.945312 217.0625 318.75 216.949219 318.519531 L 214.015625 312.574219 C 213.882812 312.3125 213.683594 312.089844 213.433594 311.9375 C 213.1875 311.78125 212.898438 311.699219 212.605469 311.699219 C 212.3125 311.699219 212.027344 311.78125 211.777344 311.9375 C 211.53125 312.089844 211.328125 312.3125 211.199219 312.574219 L 208.265625 318.519531 C 208.152344 318.75 207.984375 318.945312 207.78125 319.09375 C 207.574219 319.246094 207.335938 319.34375 207.082031 319.378906 L 200.519531 320.332031 C 200.230469 320.375 199.957031 320.496094 199.734375 320.683594 C 199.507812 320.875 199.34375 321.121094 199.253906 321.398438 C 199.164062 321.679688 199.152344 321.976562 199.222656 322.261719 C 199.292969 322.542969 199.441406 322.800781 199.648438 323.007812 L 204.398438 327.636719 C 204.582031 327.8125 204.71875 328.03125 204.796875 328.273438 C 204.875 328.515625 204.894531 328.773438 204.851562 329.023438 L 203.730469 335.558594 C 203.679688 335.847656 203.710938 336.144531 203.824219 336.417969 C 203.933594 336.6875 204.117188 336.921875 204.351562 337.09375 C 204.589844 337.265625 204.871094 337.367188 205.164062 337.390625 C 205.453125 337.410156 205.746094 337.347656 206.003906 337.214844 L 211.878906 334.128906 C 212.101562 334.007812 212.351562 333.945312 212.605469 333.945312 C 212.863281 333.945312 213.113281 334.007812 213.335938 334.128906 L 219.207031 337.214844 C 219.46875 337.347656 219.761719 337.410156 220.050781 337.390625 C 220.34375 337.367188 220.625 337.265625 220.859375 337.09375 C 221.097656 336.921875 221.28125 336.6875 221.390625 336.417969 C 221.503906 336.144531 221.535156 335.847656 221.484375 335.558594 L 220.363281 329.023438 C 220.320312 328.773438 220.339844 328.515625 220.417969 328.273438 C 220.496094 328.03125 220.632812 327.8125 220.816406 327.636719 L 225.566406 323.007812 C 225.773438 322.800781 225.921875 322.542969 225.992188 322.257812 C 226.0625 321.976562 226.050781 321.679688 225.960938 321.398438 C 225.871094 321.121094 225.703125 320.875 225.480469 320.683594 C 225.257812 320.496094 224.984375 320.375 224.695312 320.332031 Z M 224.695312 320.332031 "/><path style=" stroke:none;fill-rule:nonzero;fill:#fca703;fill-opacity:1;" d="M 255.738281 320.332031 L 249.171875 319.378906 C 248.921875 319.34375 248.679688 319.246094 248.476562 319.09375 C 248.269531 318.945312 248.101562 318.75 247.992188 318.519531 L 245.054688 312.574219 C 244.925781 312.3125 244.722656 312.089844 244.476562 311.9375 C 244.226562 311.78125 243.941406 311.699219 243.648438 311.699219 C 243.355469 311.699219 243.066406 311.78125 242.820312 311.9375 C 242.570312 312.089844 242.371094 312.3125 242.242188 312.574219 L 239.304688 318.519531 C 239.191406 318.75 239.027344 318.945312 238.820312 319.09375 C 238.613281 319.246094 238.375 319.34375 238.125 319.378906 L 231.558594 320.332031 C 231.269531 320.375 230.996094 320.496094 230.773438 320.683594 C 230.550781 320.875 230.382812 321.121094 230.292969 321.398438 C 230.203125 321.679688 230.191406 321.976562 230.261719 322.257812 C 230.332031 322.542969 230.480469 322.800781 230.691406 323.007812 L 235.441406 327.636719 C 235.621094 327.8125 235.757812 328.03125 235.835938 328.273438 C 235.914062 328.515625 235.933594 328.773438 235.890625 329.023438 L 234.769531 335.558594 C 234.71875 335.847656 234.753906 336.144531 234.863281 336.417969 C 234.972656 336.6875 235.15625 336.921875 235.394531 337.09375 C 235.628906 337.265625 235.910156 337.367188 236.203125 337.390625 C 236.496094 337.410156 236.789062 337.347656 237.046875 337.214844 L 242.917969 334.128906 C 243.144531 334.007812 243.394531 333.945312 243.648438 333.945312 C 243.902344 333.945312 244.152344 334.007812 244.378906 334.128906 L 250.25 337.214844 C 250.507812 337.347656 250.800781 337.410156 251.09375 337.390625 C 251.386719 337.367188 251.664062 337.265625 251.902344 337.09375 C 252.136719 336.921875 252.320312 336.6875 252.433594 336.417969 C 252.542969 336.144531 252.574219 335.847656 252.527344 335.558594 L 251.40625 329.023438 C 251.359375 328.773438 251.378906 328.515625 251.457031 328.273438 C 251.535156 328.03125 251.671875 327.8125 251.855469 327.636719 L 256.605469 323.007812 C 256.816406 322.804688 256.964844 322.542969 257.035156 322.261719 C 257.105469 321.976562 257.09375 321.679688 257.003906 321.398438 C 256.914062 321.121094 256.746094 320.875 256.523438 320.683594 C 256.296875 320.496094 256.027344 320.375 255.738281 320.332031 Z M 255.738281 320.332031 "/><path style=" stroke:none;fill-rule:nonzero;fill:#fca703;fill-opacity:1;" d="M 286.777344 320.332031 L 280.210938 319.378906 C 279.960938 319.34375 279.722656 319.246094 279.515625 319.09375 C 279.308594 318.945312 279.144531 318.75 279.03125 318.519531 L 276.09375 312.574219 C 275.964844 312.3125 275.765625 312.089844 275.515625 311.9375 C 275.269531 311.78125 274.980469 311.699219 274.6875 311.699219 C 274.394531 311.699219 274.109375 311.78125 273.859375 311.9375 C 273.609375 312.089844 273.410156 312.3125 273.28125 312.574219 L 270.34375 318.519531 C 270.234375 318.75 270.066406 318.945312 269.859375 319.09375 C 269.65625 319.246094 269.414062 319.34375 269.164062 319.378906 L 262.601562 320.332031 C 262.308594 320.375 262.039062 320.496094 261.8125 320.683594 C 261.589844 320.875 261.421875 321.121094 261.332031 321.398438 C 261.242188 321.675781 261.230469 321.976562 261.300781 322.257812 C 261.371094 322.542969 261.519531 322.800781 261.730469 323.007812 L 266.480469 327.636719 C 266.664062 327.8125 266.796875 328.03125 266.875 328.273438 C 266.957031 328.515625 266.972656 328.773438 266.929688 329.023438 L 265.808594 335.558594 C 265.761719 335.847656 265.792969 336.144531 265.902344 336.417969 C 266.011719 336.6875 266.195312 336.921875 266.433594 337.09375 C 266.671875 337.265625 266.949219 337.367188 267.242188 337.390625 C 267.535156 337.410156 267.828125 337.347656 268.085938 337.210938 L 273.957031 334.125 C 274.183594 334.007812 274.433594 333.945312 274.6875 333.945312 C 274.941406 333.945312 275.191406 334.007812 275.417969 334.125 L 281.289062 337.210938 C 281.546875 337.347656 281.839844 337.410156 282.132812 337.390625 C 282.425781 337.367188 282.703125 337.265625 282.941406 337.09375 C 283.179688 336.921875 283.363281 336.6875 283.472656 336.417969 C 283.582031 336.144531 283.613281 335.847656 283.566406 335.558594 L 282.445312 329.023438 C 282.402344 328.773438 282.417969 328.515625 282.5 328.273438 C 282.578125 328.03125 282.714844 327.8125 282.894531 327.636719 L 287.644531 323.007812 C 287.855469 322.800781 288.003906 322.542969 288.074219 322.257812 C 288.144531 321.976562 288.132812 321.675781 288.042969 321.398438 C 287.953125 321.121094 287.785156 320.875 287.5625 320.683594 C 287.339844 320.496094 287.066406 320.375 286.777344 320.332031 Z M 286.777344 320.332031 "/><path style=" stroke:none;fill-rule:nonzero;fill:#fca703;fill-opacity:1;" d="M 317.816406 320.332031 L 311.253906 319.378906 C 311 319.34375 310.761719 319.246094 310.554688 319.09375 C 310.351562 318.945312 310.183594 318.75 310.070312 318.519531 L 307.136719 312.574219 C 307.003906 312.3125 306.804688 312.089844 306.558594 311.9375 C 306.308594 311.78125 306.019531 311.699219 305.730469 311.699219 C 305.4375 311.699219 305.148438 311.78125 304.902344 311.9375 C 304.652344 312.089844 304.453125 312.3125 304.320312 312.574219 L 301.386719 318.519531 C 301.273438 318.75 301.105469 318.945312 300.902344 319.09375 C 300.695312 319.246094 300.457031 319.34375 300.203125 319.378906 L 293.640625 320.332031 C 293.351562 320.375 293.078125 320.496094 292.855469 320.683594 C 292.632812 320.875 292.464844 321.121094 292.375 321.398438 C 292.285156 321.679688 292.273438 321.976562 292.34375 322.257812 C 292.414062 322.542969 292.5625 322.800781 292.769531 323.007812 L 297.519531 327.636719 C 297.703125 327.8125 297.839844 328.03125 297.917969 328.273438 C 297.996094 328.515625 298.015625 328.773438 297.972656 329.023438 L 296.851562 335.558594 C 296.800781 335.847656 296.832031 336.144531 296.945312 336.417969 C 297.054688 336.6875 297.238281 336.921875 297.476562 337.09375 C 297.710938 337.265625 297.992188 337.367188 298.285156 337.390625 C 298.574219 337.410156 298.867188 337.347656 299.128906 337.210938 L 305 334.128906 C 305.222656 334.007812 305.472656 333.945312 305.730469 333.945312 C 305.984375 333.945312 306.234375 334.007812 306.457031 334.128906 L 312.332031 337.214844 C 312.589844 337.347656 312.882812 337.410156 313.171875 337.390625 C 313.464844 337.367188 313.746094 337.265625 313.980469 337.09375 C 314.21875 336.921875 314.402344 336.6875 314.511719 336.417969 C 314.625 336.144531 314.65625 335.847656 314.605469 335.558594 L 313.484375 329.023438 C 313.441406 328.773438 313.460938 328.515625 313.539062 328.273438 C 313.617188 328.03125 313.753906 327.8125 313.9375 327.636719 L 318.6875 323.007812 C 318.894531 322.800781 319.042969 322.542969 319.113281 322.257812 C 319.183594 321.976562 319.175781 321.675781 319.082031 321.398438 C 318.992188 321.121094 318.828125 320.875 318.601562 320.683594 C 318.378906 320.496094 318.105469 320.375 317.816406 320.332031 Z M 317.816406 320.332031 "/></g></svg>