<svg xmlns="http://www.w3.org/2000/svg" xmlns:xlink="http://www.w3.org/1999/xlink" width="1080" zoomAndPan="magnify" viewBox="0 0 810 809.999993" height="1080" preserveAspectRatio="xMidYMid meet" version="1.2"><g id="6d338c0f54"><path style=" stroke:none;fill-rule:nonzero;fill:#f9eeb6;fill-opacity:1;" d="M 768.601562 41.40625 L 740.554688 7.066406 L 712.503906 40.957031 L 683.300781 7.066406 L 652.941406 44.035156 L 625.277344 7.066406 L 594.917969 42.558594 L 565.394531 7.066406 L 540.300781 35.4375 L 507.050781 7.066406 L 507.050781 384.660156 L 288.507812 384.660156 L 288.507812 257.0625 C 288.507812 240.375 274.964844 226.832031 258.277344 226.832031 L 37.289062 226.832031 C 20.601562 226.832031 7.058594 240.375 7.058594 257.0625 L 7.058594 409.949219 C 7.058594 426.636719 20.601562 440.179688 37.289062 440.179688 L 43.003906 440.179688 L 43.003906 590.304688 C 30.871094 595.632812 23.746094 602.308594 23.746094 609.496094 L 23.746094 770.726562 C 23.746094 788.503906 67.714844 802.945312 121.949219 802.945312 C 176.121094 802.945312 220.085938 788.503906 220.085938 770.726562 L 220.085938 646.144531 L 507.050781 646.144531 L 507.050781 802.945312 L 544.984375 765.207031 L 575.472656 802.945312 L 605.832031 761.613281 L 637.023438 802.945312 L 667.574219 766.746094 L 698 802.816406 L 723.222656 774.707031 L 749.539062 802.945312 C 749.539062 802.945312 772.003906 772.90625 772.902344 772.90625 C 773.414062 773.421875 802.941406 802.945312 802.941406 802.945312 L 802.941406 7.066406 Z M 768.601562 41.40625 "/><path style=" stroke:none;fill-rule:nonzero;fill:#93b2b8;fill-opacity:1;" d="M 654.996094 79.144531 C 682.464844 79.144531 704.800781 101.417969 704.800781 128.886719 C 704.800781 156.421875 682.464844 178.695312 654.996094 178.695312 C 627.523438 178.695312 605.253906 156.421875 605.253906 128.886719 C 605.253906 101.417969 627.523438 79.144531 654.996094 79.144531 Z M 654.996094 79.144531 "/><path style=" stroke:none;fill-rule:nonzero;fill:#ffc05a;fill-opacity:1;" d="M 258.339844 384.660156 L 198.136719 384.660156 C 198.136719 367.972656 211.613281 354.492188 228.238281 354.492188 C 244.859375 354.492188 258.339844 367.972656 258.339844 384.660156 Z M 258.339844 384.660156 "/><path style=" stroke:none;fill-rule:nonzero;fill:#ffc05a;fill-opacity:1;" d="M 126.828125 248.589844 L 101.152344 282.609375 L 32.796875 282.609375 L 47.496094 263.738281 C 52.757812 256.933594 61.875 254.558594 69.769531 257.898438 C 74.003906 259.628906 78.816406 260.976562 83.566406 260.976562 C 96.019531 260.976562 125.03125 249.296875 126.828125 248.589844 Z M 126.828125 248.589844 "/><path style=" stroke:none;fill-rule:nonzero;fill:#2f84b9;fill-opacity:1;" d="M 7.058594 282.609375 L 288.507812 282.609375 L 288.507812 330.746094 L 7.058594 330.746094 Z M 7.058594 282.609375 "/><path style=" stroke:none;fill-rule:nonzero;fill:#8ecaef;fill-opacity:1;" d="M 288.507812 330.746094 L 288.507812 384.660156 L 258.339844 384.660156 C 258.339844 367.972656 244.859375 354.492188 228.238281 354.492188 C 211.613281 354.492188 198.136719 367.972656 198.136719 384.660156 L 43.003906 384.660156 L 43.003906 440.179688 L 37.289062 440.179688 C 20.601562 440.179688 7.058594 426.636719 7.058594 409.949219 L 7.058594 330.746094 Z M 288.507812 330.746094 "/><path style=" stroke:none;fill-rule:nonzero;fill:#8ecaef;fill-opacity:1;" d="M 126.828125 248.589844 C 125.03125 249.296875 96.019531 260.976562 83.566406 260.976562 C 78.816406 260.976562 74.003906 259.628906 69.769531 257.898438 C 61.875 254.558594 52.757812 256.933594 47.496094 263.738281 L 32.796875 282.609375 L 7.058594 282.609375 L 7.058594 257.0625 C 7.058594 240.375 20.601562 226.832031 37.289062 226.832031 L 258.277344 226.832031 C 274.964844 226.832031 288.507812 240.375 288.507812 257.0625 L 288.507812 282.609375 L 101.152344 282.609375 Z M 126.828125 248.589844 "/><path style=" stroke:none;fill-rule:nonzero;fill:#349370;fill-opacity:1;" d="M 288.183594 434.660156 C 243.640625 434.660156 207.441406 470.792969 207.441406 515.402344 C 207.441406 560.011719 243.640625 596.144531 288.183594 596.144531 C 332.792969 596.144531 368.992188 560.011719 368.992188 515.402344 C 368.992188 470.792969 332.792969 434.660156 288.183594 434.660156 Z M 288.183594 434.660156 "/><path style=" stroke:none;fill-rule:nonzero;fill:#53b79a;fill-opacity:1;" d="M 507.050781 440.179688 L 507.050781 590.625 C 490.363281 590.625 476.820312 604.167969 476.820312 620.855469 L 220.085938 620.855469 L 220.085938 609.496094 C 220.085938 591.652344 176.121094 577.210938 121.949219 577.210938 C 102.628906 577.210938 84.53125 579.074219 69.320312 582.28125 L 69.320312 440.179688 C 86.070312 440.179688 99.613281 426.636719 99.613281 409.882812 L 476.820312 409.882812 C 476.820312 426.636719 490.363281 440.179688 507.050781 440.179688 Z M 368.992188 515.402344 C 368.992188 470.792969 332.792969 434.660156 288.183594 434.660156 C 243.640625 434.660156 207.441406 470.792969 207.441406 515.402344 C 207.441406 560.011719 243.640625 596.144531 288.183594 596.144531 C 332.792969 596.144531 368.992188 560.011719 368.992188 515.402344 Z M 368.992188 515.402344 "/><path style=" stroke:none;fill-rule:nonzero;fill:#f9b132;fill-opacity:1;" d="M 220.085938 738.441406 L 220.085938 770.726562 C 220.085938 788.503906 176.121094 802.945312 121.949219 802.945312 C 67.714844 802.945312 23.746094 788.503906 23.746094 770.726562 L 23.746094 738.441406 C 23.746094 756.285156 67.714844 770.726562 121.949219 770.726562 C 176.121094 770.726562 220.085938 756.285156 220.085938 738.441406 Z M 220.085938 738.441406 "/><path style=" stroke:none;fill-rule:nonzero;fill:#f9b132;fill-opacity:1;" d="M 220.085938 673.9375 L 220.085938 706.222656 C 220.085938 724 176.121094 738.441406 121.949219 738.441406 C 67.714844 738.441406 23.746094 724 23.746094 706.222656 L 23.746094 673.9375 C 23.746094 691.78125 67.714844 706.222656 121.949219 706.222656 C 176.121094 706.222656 220.085938 691.78125 220.085938 673.9375 Z M 220.085938 673.9375 "/><path style=" stroke:none;fill-rule:nonzero;fill:#f9b132;fill-opacity:1;" d="M 220.085938 620.855469 L 220.085938 641.714844 C 220.085938 659.496094 176.121094 673.9375 121.949219 673.9375 C 67.714844 673.9375 23.746094 659.496094 23.746094 641.714844 L 23.746094 609.496094 C 23.746094 627.273438 67.714844 641.714844 121.949219 641.714844 C 176.121094 641.714844 220.085938 627.273438 220.085938 609.496094 Z M 220.085938 620.855469 "/><path style=" stroke:none;fill-rule:nonzero;fill:#ffc05a;fill-opacity:1;" d="M 220.085938 706.222656 L 220.085938 738.441406 C 220.085938 756.285156 176.121094 770.726562 121.949219 770.726562 C 67.714844 770.726562 23.746094 756.285156 23.746094 738.441406 L 23.746094 706.222656 C 23.746094 724 67.714844 738.441406 121.949219 738.441406 C 176.121094 738.441406 220.085938 724 220.085938 706.222656 Z M 220.085938 706.222656 "/><path style=" stroke:none;fill-rule:nonzero;fill:#ffc05a;fill-opacity:1;" d="M 121.949219 673.9375 C 176.121094 673.9375 220.085938 659.496094 220.085938 641.714844 L 220.085938 673.9375 C 220.085938 691.78125 176.121094 706.222656 121.949219 706.222656 C 67.714844 706.222656 23.746094 691.78125 23.746094 673.9375 L 23.746094 641.714844 C 23.746094 659.496094 67.714844 673.9375 121.949219 673.9375 Z M 121.949219 673.9375 "/><path style=" stroke:none;fill-rule:nonzero;fill:#ffc05a;fill-opacity:1;" d="M 220.085938 609.496094 C 220.085938 627.273438 176.121094 641.714844 121.949219 641.714844 C 67.714844 641.714844 23.746094 627.273438 23.746094 609.496094 C 23.746094 602.308594 30.871094 595.632812 43.003906 590.304688 C 50.191406 587.097656 59.113281 584.335938 69.320312 582.28125 C 84.53125 579.074219 102.628906 577.210938 121.949219 577.210938 C 176.121094 577.210938 220.085938 591.652344 220.085938 609.496094 Z M 220.085938 609.496094 "/><path style=" stroke:none;fill-rule:nonzero;fill:#349370;fill-opacity:1;" d="M 533.367188 578.625 L 533.367188 646.144531 L 220.085938 646.144531 L 220.085938 620.855469 L 476.820312 620.855469 C 476.820312 604.167969 490.363281 590.625 507.050781 590.625 L 507.050781 440.179688 C 490.363281 440.179688 476.820312 426.636719 476.820312 409.882812 L 99.613281 409.882812 C 99.613281 426.636719 86.070312 440.179688 69.320312 440.179688 L 69.320312 582.28125 C 59.113281 584.335938 50.191406 587.097656 43.003906 590.304688 L 43.003906 384.660156 L 533.367188 384.660156 Z M 533.367188 578.625 "/><path style=" stroke:none;fill-rule:nonzero;fill:#3a322b;fill-opacity:1;" d="M 805.398438 1.136719 C 802.996094 0.140625 800.238281 0.6875 798.402344 2.527344 L 769.101562 31.828125 L 745.554688 3.003906 C 744.339844 1.519531 742.523438 0.65625 740.605469 0.648438 C 740.597656 0.648438 740.589844 0.648438 740.585938 0.648438 C 738.671875 0.648438 736.863281 1.5 735.644531 2.972656 L 712.410156 31.03125 L 688.171875 2.875 C 686.941406 1.4375 685.265625 0.746094 683.230469 0.640625 C 681.335938 0.660156 679.546875 1.527344 678.347656 2.992188 L 653.207031 33.640625 L 630.40625 3.214844 C 629.238281 1.65625 627.421875 0.710938 625.476562 0.648438 C 623.550781 0.570312 621.660156 1.410156 620.394531 2.894531 L 595.011719 32.59375 L 570.300781 2.953125 C 569.097656 1.515625 567.332031 0.675781 565.460938 0.648438 C 563.597656 0.597656 561.792969 1.410156 560.554688 2.8125 L 539.652344 26.449219 L 511.25 2.183594 C 509.34375 0.550781 506.667969 0.179688 504.394531 1.230469 C 502.121094 2.285156 500.660156 4.558594 500.660156 7.058594 L 500.660156 378.210938 L 294.917969 378.210938 L 294.917969 257.035156 C 294.917969 236.84375 278.488281 220.414062 258.296875 220.414062 L 37.265625 220.414062 C 17.074219 220.414062 0.640625 236.839844 0.640625 257.035156 L 0.640625 409.96875 C 0.640625 429.941406 16.714844 446.199219 36.605469 446.558594 L 36.605469 586.152344 C 24.691406 592.199219 17.335938 599.992188 17.335938 609.46875 L 17.335938 770.699219 C 17.335938 796.085938 69.953125 809.363281 121.921875 809.363281 C 173.894531 809.363281 226.511719 796.085938 226.511719 770.699219 L 226.511719 652.558594 L 500.660156 652.558594 L 500.660156 802.945312 C 500.660156 805.539062 502.21875 807.875 504.613281 808.871094 C 505.410156 809.203125 506.242188 809.363281 507.078125 809.363281 C 508.742188 809.363281 510.378906 808.714844 511.601562 807.496094 L 544.472656 774.800781 L 570.5 806.984375 C 571.75 808.53125 573.714844 809.519531 575.640625 809.363281 C 577.628906 809.320312 579.488281 808.351562 580.664062 806.746094 L 605.882812 772.367188 L 631.882812 806.824219 C 633.066406 808.382812 634.882812 809.320312 636.832031 809.371094 C 638.796875 809.5 640.65625 808.589844 641.914062 807.097656 L 667.589844 776.703125 L 693.101562 806.988281 C 694.296875 808.414062 696.046875 809.25 697.910156 809.273438 C 699.757812 809.269531 701.546875 808.53125 702.789062 807.136719 L 723.332031 784.230469 L 744.839844 807.335938 C 746.136719 808.730469 747.984375 809.433594 749.886719 809.371094 C 751.785156 809.269531 753.542969 808.324219 754.6875 806.804688 C 761.425781 797.78125 768.839844 788.03125 773.28125 782.363281 L 798.414062 807.496094 C 800.25 809.332031 802.996094 809.871094 805.410156 808.890625 C 807.8125 807.894531 809.371094 805.550781 809.371094 802.960938 L 809.371094 7.078125 C 809.359375 4.46875 807.792969 2.132812 805.398438 1.136719 Z M 13.480469 289.027344 L 282.082031 289.027344 L 282.082031 324.316406 L 13.480469 324.316406 Z M 97.9375 276.191406 L 45.9375 276.191406 L 52.566406 267.671875 C 56.03125 263.222656 62.105469 261.640625 67.347656 263.800781 C 73.125 266.195312 78.59375 267.410156 83.59375 267.410156 C 90.03125 267.410156 99.785156 264.847656 108.664062 261.984375 Z M 37.265625 233.25 L 258.296875 233.25 C 271.40625 233.25 282.082031 243.925781 282.082031 257.035156 L 282.082031 276.191406 L 114.023438 276.191406 L 131.988281 252.382812 C 133.726562 250.074219 133.714844 246.890625 131.949219 244.597656 C 130.183594 242.308594 127.128906 241.484375 124.433594 242.578125 C 116.289062 245.914062 93.078125 254.574219 83.585938 254.574219 C 80.28125 254.574219 76.46875 253.6875 72.257812 251.941406 C 61.695312 247.5625 49.433594 250.785156 42.4375 259.785156 L 29.671875 276.191406 L 13.480469 276.191406 L 13.480469 257.035156 C 13.480469 243.917969 24.152344 233.25 37.265625 233.25 Z M 13.480469 409.96875 L 13.480469 337.152344 L 282.082031 337.152344 L 282.082031 378.210938 L 264.179688 378.210938 C 261.132812 361.117188 246.203125 348.09375 228.25 348.09375 C 210.296875 348.09375 195.363281 361.117188 192.3125 378.210938 L 43.023438 378.210938 C 39.480469 378.210938 36.605469 381.085938 36.605469 384.628906 L 36.605469 433.683594 C 23.800781 433.324219 13.480469 422.855469 13.480469 409.96875 Z M 250.953125 378.210938 L 205.546875 378.210938 C 208.367188 368.273438 217.421875 360.929688 228.25 360.929688 C 239.078125 360.929688 248.128906 368.273438 250.953125 378.210938 Z M 49.441406 391.046875 L 526.980469 391.046875 L 526.980469 639.714844 L 226.519531 639.714844 L 226.519531 627.289062 L 476.800781 627.289062 C 480.34375 627.289062 483.222656 624.414062 483.222656 620.871094 C 483.222656 607.710938 493.925781 597.007812 507.085938 597.007812 C 510.628906 597.007812 513.503906 594.128906 513.503906 590.585938 L 513.503906 440.171875 C 513.503906 436.628906 510.628906 433.753906 507.085938 433.753906 C 493.925781 433.753906 483.222656 423.046875 483.222656 409.890625 C 483.222656 406.347656 480.34375 403.472656 476.800781 403.472656 L 99.621094 403.472656 C 96.078125 403.472656 93.203125 406.347656 93.203125 409.890625 C 93.203125 423.046875 82.496094 433.753906 69.335938 433.753906 C 65.792969 433.753906 62.917969 436.628906 62.917969 440.171875 L 62.917969 577.089844 C 58.175781 578.214844 53.636719 579.457031 49.441406 580.875 Z M 213.679688 738.453125 C 213.679688 748.988281 177.9375 764.28125 121.929688 764.28125 C 65.921875 764.28125 30.179688 748.988281 30.179688 738.453125 L 30.179688 725.726562 C 48.921875 738.339844 85.550781 744.871094 121.929688 744.871094 C 158.308594 744.871094 194.9375 738.339844 213.679688 725.726562 Z M 226.519531 609.46875 C 226.519531 584.085938 173.898438 570.804688 121.929688 570.804688 C 106.089844 570.804688 90.210938 572.058594 75.761719 574.492188 L 75.761719 446.027344 C 90.863281 443.351562 102.804688 431.410156 105.480469 416.308594 L 470.949219 416.308594 C 473.625 431.410156 485.5625 443.351562 500.664062 446.027344 L 500.664062 584.734375 C 485.5625 587.410156 473.625 599.347656 470.949219 614.449219 L 226.519531 614.449219 Z M 213.679688 641.710938 C 213.679688 652.242188 177.9375 667.539062 121.929688 667.539062 C 65.921875 667.539062 30.171875 652.242188 30.171875 641.710938 L 30.171875 628.980469 C 48.914062 641.59375 85.542969 648.128906 121.921875 648.128906 C 158.304688 648.128906 194.933594 641.59375 213.675781 628.980469 L 213.675781 641.710938 Z M 121.921875 680.375 C 158.308594 680.375 194.933594 673.839844 213.675781 661.226562 L 213.675781 673.957031 C 213.675781 684.488281 177.929688 699.785156 121.921875 699.785156 C 65.917969 699.785156 30.171875 684.488281 30.171875 673.957031 L 30.171875 661.226562 C 48.914062 673.847656 85.542969 680.375 121.921875 680.375 Z M 213.679688 706.207031 C 213.679688 716.742188 177.9375 732.035156 121.929688 732.035156 C 65.921875 732.035156 30.179688 716.742188 30.179688 706.207031 L 30.179688 693.480469 C 48.921875 706.09375 85.550781 712.625 121.929688 712.625 C 158.308594 712.625 194.9375 706.09375 213.679688 693.480469 Z M 121.921875 583.644531 C 177.9375 583.644531 213.675781 598.9375 213.675781 609.46875 C 213.675781 620.003906 177.929688 635.296875 121.921875 635.296875 C 65.917969 635.296875 30.171875 619.996094 30.171875 609.46875 C 30.171875 598.945312 65.917969 583.644531 121.921875 583.644531 Z M 121.921875 796.527344 C 65.910156 796.527344 30.171875 781.234375 30.171875 770.699219 L 30.171875 757.972656 C 48.914062 770.585938 85.542969 777.117188 121.921875 777.117188 C 158.304688 777.117188 194.933594 770.585938 213.675781 757.972656 L 213.675781 770.699219 C 213.679688 781.226562 177.9375 796.527344 121.921875 796.527344 Z M 796.519531 787.453125 L 777.425781 768.359375 C 776.105469 767.035156 774.238281 766.375 772.40625 766.484375 C 769.019531 766.726562 768.601562 766.753906 748.992188 792.945312 L 727.933594 770.328125 C 726.707031 769.003906 725.1875 768.410156 723.179688 768.28125 C 721.375 768.292969 719.660156 769.070312 718.460938 770.417969 L 698.152344 793.054688 L 672.492188 762.59375 C 671.28125 761.144531 669.480469 760.308594 667.589844 760.308594 C 665.703125 760.308594 663.90625 761.144531 662.683594 762.585938 L 637.289062 792.664062 L 610.933594 757.742188 C 609.714844 756.125 607.890625 755.257812 605.765625 755.191406 C 603.738281 755.207031 601.832031 756.183594 600.640625 757.820312 L 575.246094 792.4375 L 549.984375 761.207031 C 548.84375 759.796875 547.15625 758.933594 545.34375 758.832031 C 543.527344 758.699219 541.757812 759.402344 540.472656 760.695312 L 513.507812 787.515625 L 513.507812 652.5625 L 533.40625 652.5625 C 536.949219 652.5625 539.824219 649.6875 539.824219 646.144531 L 539.824219 585.054688 L 661.734375 585.054688 C 665.277344 585.054688 668.152344 582.179688 668.152344 578.636719 C 668.152344 575.09375 665.277344 572.21875 661.734375 572.21875 L 539.816406 572.21875 L 539.816406 541.71875 L 661.734375 541.71875 C 665.277344 541.71875 668.152344 538.84375 668.152344 535.300781 C 668.152344 531.757812 665.277344 528.882812 661.734375 528.882812 L 539.816406 528.882812 L 539.816406 498.375 L 661.734375 498.375 C 665.277344 498.375 668.152344 495.5 668.152344 491.957031 C 668.152344 488.414062 665.277344 485.539062 661.734375 485.539062 L 539.816406 485.539062 L 539.816406 455.039062 L 661.734375 455.039062 C 665.277344 455.039062 668.152344 452.164062 668.152344 448.621094 C 668.152344 445.078125 665.277344 442.199219 661.734375 442.199219 L 539.816406 442.199219 L 539.816406 411.699219 L 661.734375 411.699219 C 665.277344 411.699219 668.152344 408.824219 668.152344 405.28125 C 668.152344 401.738281 665.277344 398.863281 661.734375 398.863281 L 539.816406 398.863281 L 539.816406 384.648438 C 539.816406 381.105469 536.941406 378.230469 533.398438 378.230469 L 513.503906 378.230469 L 513.503906 20.988281 L 536.113281 40.308594 C 538.777344 42.578125 542.777344 42.308594 545.085938 39.679688 L 565.222656 16.914062 L 590.011719 46.648438 C 591.214844 48.105469 593.007812 48.945312 594.902344 48.960938 C 594.914062 48.960938 594.925781 48.960938 594.9375 48.960938 C 596.8125 48.960938 598.597656 48.136719 599.816406 46.714844 L 624.9375 17.328125 L 647.832031 47.886719 C 649.015625 49.464844 650.855469 50.417969 652.828125 50.453125 C 654.84375 50.507812 656.675781 49.632812 657.929688 48.105469 L 683.417969 17.035156 L 707.632812 45.160156 C 708.867188 46.589844 710.539062 47.308594 712.5625 47.394531 C 714.449219 47.375 716.238281 46.527344 717.441406 45.070312 L 740.546875 17.164062 L 763.652344 45.441406 C 764.800781 46.847656 766.488281 47.703125 768.300781 47.792969 C 770.148438 47.886719 771.882812 47.199219 773.160156 45.917969 L 796.519531 22.554688 Z M 796.519531 787.453125 "/><path style=" stroke:none;fill-rule:nonzero;fill:#3a322b;fill-opacity:1;" d="M 655.007812 185.09375 C 685.984375 185.09375 711.1875 159.886719 711.1875 128.914062 C 711.1875 97.9375 685.984375 72.734375 655.007812 72.734375 C 624.035156 72.734375 598.835938 97.9375 598.835938 128.914062 C 598.835938 159.886719 624.035156 185.09375 655.007812 185.09375 Z M 655.007812 85.578125 C 678.910156 85.578125 698.351562 105.019531 698.351562 128.917969 C 698.351562 152.820312 678.910156 172.261719 655.007812 172.261719 C 631.113281 172.261719 611.671875 152.820312 611.671875 128.917969 C 611.671875 105.019531 631.113281 85.578125 655.007812 85.578125 Z M 655.007812 85.578125 "/><path style=" stroke:none;fill-rule:nonzero;fill:#3a322b;fill-opacity:1;" d="M 764.378906 238.027344 L 639.699219 238.027344 C 636.15625 238.027344 633.28125 240.902344 633.28125 244.445312 C 633.28125 247.988281 636.15625 250.863281 639.699219 250.863281 L 764.378906 250.863281 C 767.921875 250.863281 770.796875 247.988281 770.796875 244.445312 C 770.796875 240.902344 767.921875 238.027344 764.378906 238.027344 Z M 764.378906 238.027344 "/><path style=" stroke:none;fill-rule:nonzero;fill:#3a322b;fill-opacity:1;" d="M 545.644531 250.863281 L 606.988281 250.863281 C 610.53125 250.863281 613.40625 247.988281 613.40625 244.445312 C 613.40625 240.902344 610.53125 238.027344 606.988281 238.027344 L 545.644531 238.027344 C 542.101562 238.027344 539.226562 240.902344 539.226562 244.445312 C 539.226562 247.988281 542.097656 250.863281 545.644531 250.863281 Z M 545.644531 250.863281 "/><path style=" stroke:none;fill-rule:nonzero;fill:#3a322b;fill-opacity:1;" d="M 764.378906 273.890625 L 545.644531 273.890625 C 542.101562 273.890625 539.226562 276.765625 539.226562 280.308594 C 539.226562 283.851562 542.101562 286.726562 545.644531 286.726562 L 764.378906 286.726562 C 767.921875 286.726562 770.796875 283.851562 770.796875 280.308594 C 770.796875 276.765625 767.921875 273.890625 764.378906 273.890625 Z M 764.378906 273.890625 "/><path style=" stroke:none;fill-rule:nonzero;fill:#3a322b;fill-opacity:1;" d="M 752.484375 355.507812 L 711.976562 355.507812 C 708.433594 355.507812 705.558594 358.382812 705.558594 361.925781 C 705.558594 365.46875 708.433594 368.34375 711.976562 368.34375 L 752.484375 368.34375 C 756.027344 368.34375 758.902344 365.46875 758.902344 361.925781 C 758.902344 358.382812 756.027344 355.507812 752.484375 355.507812 Z M 752.484375 355.507812 "/><path style=" stroke:none;fill-rule:nonzero;fill:#3a322b;fill-opacity:1;" d="M 661.734375 355.507812 L 533.398438 355.507812 C 529.855469 355.507812 526.980469 358.382812 526.980469 361.925781 C 526.980469 365.46875 529.855469 368.34375 533.398438 368.34375 L 661.734375 368.34375 C 665.277344 368.34375 668.152344 365.46875 668.152344 361.925781 C 668.152344 358.382812 665.277344 355.507812 661.734375 355.507812 Z M 661.734375 355.507812 "/><path style=" stroke:none;fill-rule:nonzero;fill:#3a322b;fill-opacity:1;" d="M 752.484375 398.851562 L 711.976562 398.851562 C 708.433594 398.851562 705.558594 401.726562 705.558594 405.269531 C 705.558594 408.8125 708.433594 411.6875 711.976562 411.6875 L 752.484375 411.6875 C 756.027344 411.6875 758.902344 408.8125 758.902344 405.269531 C 758.902344 401.726562 756.027344 398.851562 752.484375 398.851562 Z M 752.484375 398.851562 "/><path style=" stroke:none;fill-rule:nonzero;fill:#3a322b;fill-opacity:1;" d="M 752.484375 442.1875 L 711.976562 442.1875 C 708.433594 442.1875 705.558594 445.0625 705.558594 448.605469 C 705.558594 452.148438 708.433594 455.023438 711.976562 455.023438 L 752.484375 455.023438 C 756.027344 455.023438 758.902344 452.148438 758.902344 448.605469 C 758.902344 445.0625 756.027344 442.1875 752.484375 442.1875 Z M 752.484375 442.1875 "/><path style=" stroke:none;fill-rule:nonzero;fill:#3a322b;fill-opacity:1;" d="M 752.484375 485.523438 L 711.976562 485.523438 C 708.433594 485.523438 705.558594 488.402344 705.558594 491.945312 C 705.558594 495.488281 708.433594 498.363281 711.976562 498.363281 L 752.484375 498.363281 C 756.027344 498.363281 758.902344 495.488281 758.902344 491.945312 C 758.902344 488.402344 756.027344 485.523438 752.484375 485.523438 Z M 752.484375 485.523438 "/><path style=" stroke:none;fill-rule:nonzero;fill:#3a322b;fill-opacity:1;" d="M 752.484375 528.867188 L 711.976562 528.867188 C 708.433594 528.867188 705.558594 531.742188 705.558594 535.285156 C 705.558594 538.828125 708.433594 541.707031 711.976562 541.707031 L 752.484375 541.707031 C 756.027344 541.707031 758.902344 538.828125 758.902344 535.285156 C 758.902344 531.742188 756.027344 528.867188 752.484375 528.867188 Z M 752.484375 528.867188 "/><path style=" stroke:none;fill-rule:nonzero;fill:#3a322b;fill-opacity:1;" d="M 752.484375 572.210938 L 711.976562 572.210938 C 708.433594 572.210938 705.558594 575.085938 705.558594 578.628906 C 705.558594 582.171875 708.433594 585.046875 711.976562 585.046875 L 752.484375 585.046875 C 756.027344 585.046875 758.902344 582.171875 758.902344 578.628906 C 758.902344 575.085938 756.027344 572.210938 752.484375 572.210938 Z M 752.484375 572.210938 "/><path style=" stroke:none;fill-rule:nonzero;fill:#3a322b;fill-opacity:1;" d="M 732.234375 636.066406 L 569.023438 636.066406 C 565.480469 636.066406 562.601562 638.945312 562.601562 642.488281 C 562.601562 646.03125 565.480469 648.90625 569.023438 648.90625 L 732.234375 648.90625 C 735.777344 648.90625 738.652344 646.03125 738.652344 642.488281 C 738.652344 638.945312 735.777344 636.066406 732.234375 636.066406 Z M 732.234375 636.066406 "/><path style=" stroke:none;fill-rule:nonzero;fill:#3a322b;fill-opacity:1;" d="M 732.234375 669.679688 L 591.132812 669.679688 C 587.589844 669.679688 584.714844 672.558594 584.714844 676.101562 C 584.714844 679.644531 587.589844 682.519531 591.132812 682.519531 L 732.234375 682.519531 C 735.777344 682.519531 738.652344 679.644531 738.652344 676.101562 C 738.652344 672.558594 735.777344 669.679688 732.234375 669.679688 Z M 732.234375 669.679688 "/><path style=" stroke:none;fill-rule:nonzero;fill:#3a322b;fill-opacity:1;" d="M 689.398438 707.929688 L 611.859375 707.929688 C 608.316406 707.929688 605.441406 710.804688 605.441406 714.347656 C 605.441406 717.890625 608.316406 720.765625 611.859375 720.765625 L 689.398438 720.765625 C 692.941406 720.765625 695.816406 717.890625 695.816406 714.347656 C 695.816406 710.804688 692.941406 707.929688 689.398438 707.929688 Z M 689.398438 707.929688 "/><path style=" stroke:none;fill-rule:nonzero;fill:#3a322b;fill-opacity:1;" d="M 288.210938 428.207031 C 240.144531 428.207031 201.035156 467.316406 201.035156 515.382812 C 201.035156 563.449219 240.144531 602.558594 288.210938 602.558594 C 336.277344 602.558594 375.386719 563.449219 375.386719 515.382812 C 375.386719 467.316406 336.277344 428.207031 288.210938 428.207031 Z M 288.210938 589.722656 C 247.222656 589.722656 213.875 556.371094 213.875 515.382812 C 213.875 474.394531 247.222656 441.046875 288.210938 441.046875 C 329.199219 441.046875 362.546875 474.394531 362.546875 515.382812 C 362.546875 556.371094 329.199219 589.722656 288.210938 589.722656 Z M 288.210938 589.722656 "/><path style=" stroke:none;fill-rule:nonzero;fill:#3a322b;fill-opacity:1;" d="M 305.238281 491.9375 C 305.238281 495.480469 308.113281 498.355469 311.65625 498.355469 C 315.199219 498.355469 318.074219 495.480469 318.074219 491.9375 C 318.074219 477.683594 308.019531 465.757812 294.636719 462.808594 L 294.636719 456.4375 C 294.636719 452.894531 291.761719 450.019531 288.21875 450.019531 C 284.675781 450.019531 281.800781 452.894531 281.800781 456.4375 L 281.800781 462.808594 C 268.417969 465.761719 258.351562 477.683594 258.351562 491.9375 C 258.351562 506.191406 268.417969 518.117188 281.800781 521.0625 L 281.800781 554.574219 C 275.585938 552.03125 271.191406 545.941406 271.191406 538.824219 C 271.191406 535.28125 268.3125 532.40625 264.769531 532.40625 C 261.226562 532.40625 258.351562 535.28125 258.351562 538.824219 C 258.351562 553.078125 268.417969 565.003906 281.800781 567.949219 L 281.800781 574.324219 C 281.800781 577.867188 284.675781 580.742188 288.21875 580.742188 C 291.761719 580.742188 294.636719 577.867188 294.636719 574.324219 L 294.636719 567.949219 C 308.019531 564.996094 318.074219 553.078125 318.074219 538.824219 C 318.074219 524.566406 308.019531 512.644531 294.636719 509.695312 L 294.636719 476.1875 C 300.84375 478.726562 305.238281 484.820312 305.238281 491.9375 Z M 271.183594 491.9375 C 271.183594 484.820312 275.578125 478.726562 281.792969 476.1875 L 281.792969 507.6875 C 275.578125 505.144531 271.183594 499.054688 271.183594 491.9375 Z M 305.238281 538.828125 C 305.238281 545.949219 300.84375 552.039062 294.636719 554.582031 L 294.636719 523.078125 C 300.84375 525.621094 305.238281 531.710938 305.238281 538.828125 Z M 305.238281 538.828125 "/></g></svg>