<svg xmlns="http://www.w3.org/2000/svg" xmlns:xlink="http://www.w3.org/1999/xlink" width="1080" zoomAndPan="magnify" viewBox="0 0 810 809.999993" height="1080" preserveAspectRatio="xMidYMid meet" version="1.2"><defs><clipPath id="7203e63bde"><path d="M 784 81 L 807 81 L 807 140 L 784 140 Z M 784 81 "/></clipPath></defs><g id="f81d7ff399"><path style=" stroke:none;fill-rule:nonzero;fill:#000000;fill-opacity:1;" d="M 488.617188 3.855469 L 754.121094 3.90625 C 779.046875 3.910156 799.257812 24.078125 799.25 48.953125 L 799.132812 647.746094 C 799.128906 672.617188 778.914062 692.78125 753.984375 692.773438 L 488.480469 692.722656 C 463.550781 692.71875 443.34375 672.546875 443.347656 647.675781 L 443.464844 48.882812 C 443.46875 24.007812 463.6875 3.847656 488.617188 3.855469 "/><g clip-rule="nonzero" clip-path="url(#7203e63bde)"><path style=" stroke:none;fill-rule:nonzero;fill:#000000;fill-opacity:1;" d="M 784.777344 81.214844 L 807.011719 81.21875 L 806.996094 139.945312 L 784.773438 139.941406 L 784.777344 81.214844 "/></g><path style=" stroke:none;fill-rule:nonzero;fill:#ffffff;fill-opacity:1;" d="M 784.785156 82.292969 L 795.449219 82.300781 L 795.4375 138.875 L 784.773438 138.871094 L 784.785156 82.292969 "/><path style=" stroke:none;fill-rule:nonzero;fill:#000000;fill-opacity:1;" d="M 785.746094 137.902344 L 794.460938 137.902344 L 794.480469 83.273438 L 785.757812 83.265625 Z M 795.441406 139.851562 L 784.773438 139.84375 C 784.515625 139.84375 784.269531 139.738281 784.085938 139.558594 C 783.902344 139.378906 783.804688 139.128906 783.804688 138.871094 L 783.808594 82.292969 C 783.808594 81.757812 784.25 81.324219 784.785156 81.324219 L 795.449219 81.324219 C 795.710938 81.324219 795.957031 81.429688 796.136719 81.609375 C 796.316406 81.792969 796.421875 82.039062 796.421875 82.296875 L 796.410156 138.875 C 796.410156 139.410156 795.976562 139.851562 795.441406 139.851562 "/><path style=" stroke:none;fill-rule:nonzero;fill:#8c7bff;fill-opacity:1;" d="M 464.902344 3.855469 L 730.40625 3.90625 C 755.335938 3.910156 775.546875 24.078125 775.539062 48.949219 L 775.417969 647.742188 C 775.417969 672.617188 755.199219 692.777344 730.273438 692.769531 L 464.765625 692.71875 C 439.839844 692.714844 419.632812 672.546875 419.632812 647.671875 L 419.753906 48.878906 C 419.757812 24.007812 439.972656 3.847656 464.902344 3.855469 "/><path style=" stroke:none;fill-rule:nonzero;fill:#ffffff;fill-opacity:1;" d="M 775.546875 591.050781 L 420.164062 590.976562 L 420.257812 95.699219 L 775.644531 95.769531 L 775.546875 591.050781 "/><path style=" stroke:none;fill-rule:nonzero;fill:#000000;fill-opacity:1;" d="M 421.136719 590.007812 L 774.570312 590.078125 L 774.667969 96.742188 L 421.238281 96.667969 Z M 775.542969 592.023438 L 420.167969 591.953125 C 419.910156 591.953125 419.660156 591.851562 419.480469 591.667969 C 419.296875 591.488281 419.195312 591.238281 419.195312 590.976562 L 419.292969 95.695312 C 419.292969 95.160156 419.730469 94.726562 420.269531 94.726562 L 775.644531 94.792969 C 775.902344 94.792969 776.152344 94.898438 776.328125 95.078125 C 776.511719 95.261719 776.617188 95.511719 776.617188 95.765625 L 776.519531 591.050781 C 776.519531 591.589844 776.082031 592.023438 775.542969 592.023438 "/><path style=" stroke:none;fill-rule:nonzero;fill:#000000;fill-opacity:1;" d="M 464.589844 4.820312 C 441.265625 4.820312 420.804688 23.742188 420.800781 45.316406 L 420.679688 644.863281 C 420.675781 671.582031 439.496094 691.742188 464.46875 691.746094 L 730.71875 691.796875 L 730.730469 691.796875 C 742.566406 691.796875 753.554688 687.117188 761.679688 678.621094 C 769.957031 669.953125 774.523438 657.988281 774.523438 644.929688 L 774.640625 45.386719 C 774.644531 35.253906 769.980469 25.019531 761.84375 17.296875 C 753.402344 9.285156 742.398438 4.878906 730.859375 4.871094 L 464.601562 4.820312 C 464.601562 4.820312 464.597656 4.820312 464.589844 4.820312 Z M 730.730469 693.742188 C 730.726562 693.742188 730.726562 693.742188 730.71875 693.742188 L 464.46875 693.6875 C 438.390625 693.683594 418.730469 672.695312 418.738281 644.863281 L 418.855469 45.316406 C 418.859375 22.707031 440.234375 2.875 464.589844 2.875 C 464.597656 2.875 464.601562 2.875 464.601562 2.875 L 730.859375 2.925781 C 742.898438 2.925781 754.378906 7.527344 763.175781 15.886719 C 771.699219 23.976562 776.585938 34.726562 776.585938 45.386719 L 776.46875 644.929688 C 776.464844 658.492188 771.710938 670.933594 763.082031 679.964844 C 754.59375 688.851562 743.105469 693.742188 730.730469 693.742188 "/><path style=" stroke:none;fill-rule:nonzero;fill:#000000;fill-opacity:1;" d="M 609.675781 26.199219 L 533.492188 26.179688 C 532.953125 26.179688 532.523438 25.746094 532.523438 25.207031 C 532.523438 24.667969 532.953125 24.234375 533.492188 24.234375 L 609.675781 24.253906 C 610.207031 24.253906 610.648438 24.6875 610.648438 25.226562 C 610.648438 25.765625 610.207031 26.199219 609.675781 26.199219 "/><path style=" stroke:none;fill-rule:nonzero;fill:#000000;fill-opacity:1;" d="M 623.148438 20.605469 C 620.59375 20.605469 618.515625 22.679688 618.515625 25.222656 C 618.515625 27.773438 620.59375 29.84375 623.148438 29.84375 C 625.699219 29.84375 627.777344 27.773438 627.777344 25.222656 C 627.777344 23.992188 627.292969 22.835938 626.417969 21.960938 C 625.542969 21.089844 624.386719 20.605469 623.148438 20.605469 Z M 623.148438 31.789062 C 619.523438 31.789062 616.570312 28.84375 616.570312 25.222656 C 616.574219 21.601562 619.523438 18.660156 623.148438 18.660156 C 624.90625 18.660156 626.550781 19.34375 627.800781 20.585938 C 629.042969 21.820312 629.730469 23.472656 629.722656 25.230469 C 629.722656 28.84375 626.777344 31.789062 623.148438 31.789062 "/><path style=" stroke:none;fill-rule:nonzero;fill:#8c7bff;fill-opacity:1;" d="M 759.488281 575.460938 L 439.792969 575.460938 L 439.792969 506.503906 L 759.488281 506.503906 L 759.488281 575.460938 "/><path style=" stroke:none;fill-rule:nonzero;fill:#ffffff;fill-opacity:1;" d="M 521.742188 560.800781 L 484.605469 560.800781 L 484.605469 531.613281 L 503.445312 516.246094 L 521.742188 531.613281 L 521.742188 560.800781 "/><path style=" stroke:none;fill-rule:nonzero;fill:#ffffff;fill-opacity:1;" d="M 625.390625 540.375 C 625.390625 552.242188 615.761719 561.855469 603.890625 561.855469 C 592.019531 561.855469 582.390625 552.242188 582.390625 540.375 C 582.390625 528.515625 592.019531 518.894531 603.890625 518.894531 C 615.761719 518.894531 625.390625 528.515625 625.390625 540.375 "/><path style=" stroke:none;fill-rule:nonzero;fill:#ffffff;fill-opacity:1;" d="M 722.972656 523.019531 L 686.246094 523.019531 C 685.171875 523.019531 684.300781 522.148438 684.300781 521.070312 C 684.300781 519.996094 685.171875 519.125 686.246094 519.125 L 722.972656 519.125 C 724.050781 519.125 724.917969 519.996094 724.917969 521.070312 C 724.917969 522.148438 724.050781 523.019531 722.972656 523.019531 "/><path style=" stroke:none;fill-rule:nonzero;fill:#ffffff;fill-opacity:1;" d="M 722.972656 541.164062 L 686.246094 541.164062 C 685.171875 541.164062 684.300781 540.292969 684.300781 539.21875 C 684.300781 538.140625 685.171875 537.269531 686.246094 537.269531 L 722.972656 537.269531 C 724.050781 537.269531 724.917969 538.140625 724.917969 539.21875 C 724.917969 540.292969 724.050781 541.164062 722.972656 541.164062 "/><path style=" stroke:none;fill-rule:nonzero;fill:#ffffff;fill-opacity:1;" d="M 722.972656 559.710938 L 686.246094 559.710938 C 685.171875 559.710938 684.300781 558.839844 684.300781 557.765625 C 684.300781 556.695312 685.171875 555.824219 686.246094 555.824219 L 722.972656 555.824219 C 724.050781 555.824219 724.917969 556.695312 724.917969 557.765625 C 724.917969 558.839844 724.050781 559.710938 722.972656 559.710938 "/><path style=" stroke:none;fill-rule:nonzero;fill:#8c7bff;fill-opacity:1;" d="M 440.425781 574.492188 L 758.515625 574.492188 L 758.515625 114.992188 L 440.425781 114.992188 Z M 759.484375 576.4375 L 439.453125 576.4375 C 438.910156 576.4375 438.476562 576 438.476562 575.460938 L 438.476562 114.015625 C 438.476562 113.480469 438.910156 113.046875 439.453125 113.046875 L 759.484375 113.046875 C 760.027344 113.046875 760.460938 113.480469 760.460938 114.015625 L 760.460938 575.460938 C 760.460938 576 760.027344 576.4375 759.484375 576.4375 "/><path style=" stroke:none;fill-rule:nonzero;fill:#fed101;fill-opacity:1;" d="M 610.425781 248.648438 L 610.375 203.742188 C 607.46875 206.839844 603.335938 208.777344 598.753906 208.78125 C 589.957031 208.792969 582.820312 201.699219 582.808594 192.945312 C 582.800781 184.191406 589.921875 177.082031 598.710938 177.074219 C 603.300781 177.066406 607.433594 178.996094 610.351562 182.082031 L 610.300781 137.179688 L 498.359375 137.3125 L 498.410156 181.480469 C 495.5625 178.828125 491.75 177.199219 487.539062 177.203125 C 478.746094 177.214844 471.632812 184.320312 471.636719 193.078125 C 471.652344 201.832031 478.789062 208.921875 487.578125 208.914062 C 491.785156 208.90625 495.597656 207.261719 498.441406 204.609375 L 498.488281 248.78125 L 543.011719 248.722656 C 540.25 251.582031 538.550781 255.453125 538.554688 259.730469 C 538.558594 268.484375 545.695312 275.574219 554.488281 275.566406 C 563.285156 275.558594 570.402344 268.449219 570.394531 259.695312 C 570.386719 255.417969 568.671875 251.546875 565.910156 248.699219 L 610.425781 248.648438 "/><path style=" stroke:none;fill-rule:nonzero;fill:#000000;fill-opacity:1;" d="M 543 247.753906 C 543.386719 247.753906 543.746094 247.984375 543.898438 248.347656 C 544.046875 248.707031 543.972656 249.121094 543.699219 249.402344 C 541.007812 252.195312 539.523438 255.859375 539.527344 259.734375 C 539.53125 267.929688 546.238281 274.59375 554.472656 274.59375 C 554.476562 274.59375 554.480469 274.59375 554.492188 274.59375 C 558.480469 274.59375 562.234375 273.035156 565.054688 270.222656 C 567.875 267.40625 569.429688 263.671875 569.421875 259.699219 C 569.417969 255.828125 567.921875 252.164062 565.21875 249.375 C 564.949219 249.097656 564.871094 248.679688 565.027344 248.324219 C 565.171875 247.960938 565.527344 247.726562 565.917969 247.726562 L 609.457031 247.671875 L 609.410156 205.976562 C 606.40625 208.421875 602.695312 209.753906 598.75 209.757812 C 598.742188 209.757812 598.738281 209.757812 598.726562 209.757812 C 589.421875 209.757812 581.851562 202.21875 581.835938 192.945312 C 581.828125 183.671875 589.398438 176.113281 598.710938 176.097656 C 598.71875 176.097656 598.722656 176.097656 598.734375 176.097656 C 602.671875 176.097656 606.378906 177.417969 609.378906 179.855469 L 609.328125 138.15625 L 499.332031 138.28125 L 499.382812 181.460938 C 499.382812 181.847656 499.152344 182.199219 498.796875 182.351562 C 498.445312 182.507812 498.035156 182.4375 497.746094 182.175781 C 494.972656 179.597656 491.355469 178.175781 487.558594 178.175781 C 487.554688 178.175781 487.546875 178.175781 487.539062 178.175781 C 483.550781 178.183594 479.800781 179.734375 476.976562 182.546875 C 474.15625 185.363281 472.609375 189.105469 472.613281 193.078125 C 472.625 201.273438 479.324219 207.941406 487.558594 207.941406 C 487.570312 207.941406 487.570312 207.941406 487.578125 207.941406 C 491.375 207.9375 494.996094 206.503906 497.773438 203.917969 C 498.058594 203.652344 498.472656 203.582031 498.824219 203.734375 C 499.183594 203.894531 499.414062 204.238281 499.414062 204.628906 L 499.464844 247.804688 Z M 554.472656 276.539062 C 545.164062 276.539062 537.585938 269.003906 537.582031 259.734375 C 537.578125 256.082031 538.738281 252.59375 540.902344 249.703125 L 498.492188 249.753906 C 498.234375 249.753906 497.988281 249.648438 497.800781 249.464844 C 497.621094 249.285156 497.519531 249.039062 497.519531 248.78125 L 497.46875 206.6875 C 494.597656 208.757812 491.164062 209.878906 487.578125 209.886719 C 487.570312 209.886719 487.570312 209.886719 487.558594 209.886719 C 478.253906 209.886719 470.679688 202.351562 470.664062 193.078125 C 470.660156 188.585938 472.417969 184.355469 475.601562 181.171875 C 478.789062 177.992188 483.027344 176.238281 487.539062 176.234375 C 487.542969 176.234375 487.554688 176.234375 487.558594 176.234375 C 491.140625 176.234375 494.566406 177.347656 497.433594 179.40625 L 497.382812 137.3125 C 497.382812 136.777344 497.820312 136.339844 498.355469 136.339844 L 610.296875 136.207031 C 610.835938 136.207031 611.273438 136.640625 611.273438 137.179688 L 611.328125 182.085938 C 611.328125 182.484375 611.082031 182.839844 610.714844 182.984375 C 610.339844 183.136719 609.921875 183.039062 609.640625 182.753906 C 606.78125 179.71875 602.902344 178.046875 598.734375 178.046875 C 598.722656 178.046875 598.71875 178.046875 598.710938 178.046875 C 590.472656 178.054688 583.777344 184.738281 583.777344 192.945312 C 583.792969 201.148438 590.496094 207.808594 598.726562 207.808594 C 598.738281 207.808594 598.742188 207.808594 598.742188 207.808594 C 602.929688 207.804688 606.804688 206.121094 609.671875 203.078125 C 609.945312 202.785156 610.367188 202.691406 610.734375 202.839844 C 611.105469 202.988281 611.347656 203.34375 611.347656 203.742188 L 611.398438 248.644531 C 611.398438 248.902344 611.296875 249.152344 611.117188 249.335938 C 610.933594 249.515625 610.6875 249.621094 610.425781 249.621094 L 568.023438 249.671875 C 570.1875 252.558594 571.359375 256.042969 571.367188 259.691406 C 571.371094 264.191406 569.617188 268.417969 566.429688 271.601562 C 563.242188 274.777344 559.003906 276.535156 554.492188 276.539062 C 554.484375 276.539062 554.476562 276.539062 554.472656 276.539062 "/><path style=" stroke:none;fill-rule:nonzero;fill:#4ada85;fill-opacity:1;" d="M 598.042969 208.773438 C 601.632812 208.757812 604.949219 207.570312 607.605469 205.570312 L 607.777344 248.632812 L 653.023438 248.457031 C 649.894531 245.570312 647.929688 241.460938 647.914062 236.886719 C 647.878906 228.128906 655.003906 221.003906 663.820312 220.964844 C 672.652344 220.933594 679.832031 228.007812 679.863281 236.765625 C 679.882812 241.332031 677.953125 245.457031 674.847656 248.375 L 720.09375 248.199219 L 719.65625 136.675781 L 607.335938 137.117188 L 607.503906 180.183594 C 604.828125 178.203125 601.511719 177.042969 597.917969 177.054688 C 589.09375 177.089844 581.96875 184.21875 582 192.976562 C 582.039062 201.738281 589.21875 208.804688 598.042969 208.773438 "/><path style=" stroke:none;fill-rule:nonzero;fill:#000000;fill-opacity:1;" d="M 607.609375 204.597656 C 607.75 204.597656 607.902344 204.628906 608.039062 204.699219 C 608.371094 204.863281 608.578125 205.199219 608.578125 205.570312 L 608.742188 247.660156 L 650.769531 247.496094 C 648.300781 244.511719 646.957031 240.824219 646.9375 236.890625 C 646.921875 232.394531 648.667969 228.164062 651.859375 224.964844 C 655.050781 221.78125 659.292969 220.007812 663.824219 219.992188 C 668.382812 220.007812 672.609375 221.710938 675.828125 224.875 C 679.039062 228.039062 680.820312 232.261719 680.839844 236.757812 C 680.855469 240.691406 679.535156 244.390625 677.089844 247.386719 L 719.117188 247.230469 L 718.6875 137.652344 L 608.3125 138.089844 L 608.476562 180.175781 C 608.484375 180.542969 608.273438 180.886719 607.949219 181.050781 C 607.617188 181.21875 607.222656 181.183594 606.925781 180.96875 C 604.308594 179.03125 601.148438 178.03125 597.917969 178.027344 C 589.644531 178.058594 582.941406 184.765625 582.972656 192.972656 C 583.011719 201.160156 589.730469 207.796875 597.976562 207.796875 C 597.996094 207.796875 598.011719 207.796875 598.039062 207.796875 C 601.308594 207.789062 604.417969 206.746094 607.027344 204.792969 C 607.191406 204.660156 607.398438 204.597656 607.609375 204.597656 Z M 607.773438 249.609375 C 607.515625 249.609375 607.273438 249.507812 607.089844 249.328125 C 606.90625 249.144531 606.800781 248.898438 606.800781 248.636719 L 606.640625 207.386719 C 604.046875 208.921875 601.113281 209.734375 598.042969 209.746094 C 598.023438 209.746094 597.996094 209.746094 597.976562 209.746094 C 588.664062 209.746094 581.0625 202.238281 581.03125 192.980469 C 580.992188 183.699219 588.566406 176.117188 597.910156 176.078125 C 600.992188 176.082031 603.917969 176.859375 606.53125 178.375 L 606.363281 137.125 C 606.363281 136.859375 606.464844 136.617188 606.648438 136.429688 C 606.828125 136.25 607.078125 136.144531 607.335938 136.144531 L 719.652344 135.703125 C 719.652344 135.703125 719.652344 135.703125 719.65625 135.703125 C 720.191406 135.703125 720.621094 136.136719 720.628906 136.675781 L 721.066406 248.1875 C 721.066406 248.453125 720.964844 248.695312 720.78125 248.882812 C 720.601562 249.0625 720.355469 249.167969 720.097656 249.167969 L 674.847656 249.347656 C 674.449219 249.347656 674.089844 249.101562 673.941406 248.734375 C 673.796875 248.359375 673.890625 247.9375 674.183594 247.660156 C 677.234375 244.796875 678.910156 240.925781 678.890625 236.769531 C 678.878906 232.792969 677.300781 229.0625 674.460938 226.261719 C 671.628906 223.472656 667.875 221.941406 663.886719 221.941406 C 663.871094 221.941406 663.851562 221.941406 663.828125 221.941406 C 659.820312 221.957031 656.058594 223.519531 653.238281 226.34375 C 650.414062 229.164062 648.871094 232.910156 648.886719 236.886719 C 648.902344 241.042969 650.605469 244.902344 653.683594 247.746094 C 653.972656 248.011719 654.074219 248.441406 653.929688 248.8125 C 653.785156 249.183594 653.429688 249.425781 653.023438 249.433594 L 607.777344 249.609375 L 607.773438 249.609375 "/><path style=" stroke:none;fill-rule:nonzero;fill:#fed101;fill-opacity:1;" d="M 630.484375 289.59375 C 630.515625 294.832031 632.269531 299.652344 635.195312 303.53125 L 572.3125 303.921875 L 572.722656 369.875 C 576.9375 365.304688 582.933594 362.425781 589.597656 362.386719 C 602.390625 362.308594 612.832031 372.671875 612.910156 385.53125 C 612.996094 398.386719 602.683594 408.882812 589.898438 408.964844 C 583.21875 409.003906 577.191406 406.207031 572.925781 401.691406 L 573.34375 467.644531 L 736.191406 466.621094 L 735.160156 302.894531 L 672.269531 303.292969 C 675.144531 299.382812 676.835938 294.535156 676.808594 289.300781 C 676.726562 276.4375 666.292969 266.078125 653.5 266.160156 C 640.707031 266.242188 630.40625 276.730469 630.484375 289.59375 "/><path style=" stroke:none;fill-rule:nonzero;fill:#000000;fill-opacity:1;" d="M 573.910156 403.980469 L 574.0625 467.101562 L 734.53125 466.539062 L 734.082031 304.371094 L 672.269531 304.261719 C 671.902344 304.261719 671.570312 304.054688 671.402344 303.730469 C 671.242188 303.398438 671.269531 303.007812 671.488281 302.707031 C 674.367188 298.808594 675.867188 294.171875 675.835938 289.304688 C 675.796875 283.34375 673.453125 277.753906 669.234375 273.566406 C 665.050781 269.414062 659.523438 267.132812 653.652344 267.132812 C 653.605469 267.132812 653.554688 267.132812 653.503906 267.132812 C 647.582031 267.167969 642.023438 269.519531 637.863281 273.761719 C 633.699219 278.003906 631.429688 283.621094 631.460938 289.582031 C 631.492188 294.453125 633.058594 299.070312 635.980469 302.9375 C 636.203125 303.230469 636.242188 303.625 636.070312 303.953125 C 635.910156 304.285156 635.578125 304.492188 635.203125 304.496094 L 573.777344 304.707031 L 573.703125 367.542969 C 578.09375 363.605469 583.648438 361.449219 589.601562 361.414062 C 589.65625 361.414062 589.703125 361.414062 589.753906 361.414062 C 596.144531 361.414062 602.164062 363.890625 606.714844 368.414062 C 611.300781 372.964844 613.847656 379.039062 613.890625 385.523438 C 613.929688 392 611.457031 398.105469 606.929688 402.71875 C 602.398438 407.332031 596.351562 409.894531 589.90625 409.933594 C 589.851562 409.933594 589.804688 409.933594 589.746094 409.933594 C 583.851562 409.933594 578.304688 407.84375 573.910156 403.980469 Z M 573.089844 469.050781 C 572.828125 469.050781 572.585938 468.949219 572.40625 468.769531 C 572.214844 468.585938 572.117188 468.339844 572.117188 468.078125 L 571.953125 401.6875 C 571.953125 401.289062 572.195312 400.929688 572.570312 400.78125 C 572.945312 400.636719 573.359375 400.726562 573.632812 401.019531 C 577.886719 405.519531 583.605469 407.988281 589.746094 407.988281 C 589.796875 407.988281 589.847656 407.988281 589.894531 407.988281 C 595.816406 407.953125 601.378906 405.59375 605.539062 401.351562 C 609.703125 397.109375 611.980469 391.496094 611.941406 385.53125 C 611.902344 379.574219 609.558594 373.984375 605.34375 369.792969 C 601.152344 365.644531 595.625 363.359375 589.753906 363.359375 C 589.703125 363.359375 589.660156 363.359375 589.613281 363.359375 C 583.414062 363.394531 577.667969 365.949219 573.445312 370.53125 C 573.171875 370.828125 572.75 370.925781 572.378906 370.78125 C 572 370.632812 571.753906 370.269531 571.753906 369.875 L 571.832031 303.734375 C 571.832031 303.203125 572.261719 302.769531 572.796875 302.769531 L 633.34375 302.554688 C 630.863281 298.695312 629.542969 294.253906 629.515625 289.59375 C 629.476562 283.113281 631.949219 277.011719 636.472656 272.398438 C 641.003906 267.789062 647.050781 265.222656 653.496094 265.1875 C 659.9375 265.152344 666.019531 267.628906 670.601562 272.179688 C 675.191406 276.738281 677.742188 282.8125 677.777344 289.289062 C 677.8125 293.953125 676.546875 298.425781 674.105469 302.316406 L 735.050781 302.425781 C 735.589844 302.425781 736.023438 302.855469 736.023438 303.398438 L 736.480469 467.503906 C 736.484375 468.039062 736.050781 468.476562 735.511719 468.476562 L 573.089844 469.050781 "/><path style=" stroke:none;fill-rule:nonzero;fill:#000000;fill-opacity:1;" d="M 313.324219 788.105469 L 347.425781 788.316406 L 275.394531 607.945312 L 260.152344 611 L 113.710938 611 L 69.761719 434.964844 C 67.046875 424.09375 56.03125 417.488281 45.152344 420.195312 C 34.273438 422.90625 27.65625 433.914062 30.371094 444.78125 L 71.457031 609.339844 L -0.0117188 788.316406 L 34.089844 788.105469 L 89.214844 691.589844 C 106.527344 661.277344 138.777344 642.566406 173.707031 642.566406 C 208.636719 642.566406 240.882812 661.277344 258.195312 691.589844 L 313.324219 788.105469 "/><path style=" stroke:none;fill-rule:nonzero;fill:#955b50;fill-opacity:1;" d="M 326.542969 530.15625 L 365.90625 687.816406 L 309.78125 701.804688 L 274.484375 560.429688 L 249.199219 565.925781 L 260.585938 504.765625 L 277.296875 500.597656 C 299.0625 495.171875 321.113281 508.40625 326.542969 530.15625 "/><path style=" stroke:none;fill-rule:nonzero;fill:#000000;fill-opacity:1;" d="M 267.84375 560.429688 L 225.78125 573.003906 L 211.78125 516.925781 L 265.820312 503.460938 L 267.84375 560.429688 "/><path style=" stroke:none;fill-rule:nonzero;fill:#fed101;fill-opacity:1;" d="M 294.519531 665.25 L 312.1875 720.152344 L 405.015625 680.816406 C 413.375 677.269531 419.84375 670.367188 422.824219 661.796875 L 441.007812 609.574219 C 413.085938 599.867188 400.488281 616.757812 395.828125 626.164062 C 393.914062 630.023438 390.707031 633.085938 386.773438 634.835938 L 371.277344 627.324219 L 294.519531 665.25 "/><path style=" stroke:none;fill-rule:nonzero;fill:#000000;fill-opacity:1;" d="M 394.261719 631.324219 C 394.039062 631.324219 393.820312 631.253906 393.644531 631.105469 C 393.226562 630.761719 393.171875 630.152344 393.511719 629.734375 C 394.363281 628.699219 395.097656 627.570312 395.691406 626.371094 C 402.160156 613.300781 415.328125 599.617188 441.332031 608.65625 C 441.835938 608.832031 442.105469 609.390625 441.925781 609.890625 C 441.75 610.402344 441.195312 610.671875 440.691406 610.496094 C 421.175781 603.710938 406.214844 609.5 397.433594 627.234375 C 396.777344 628.570312 395.957031 629.824219 395.011719 630.972656 C 394.816406 631.207031 394.539062 631.324219 394.261719 631.324219 "/><path style=" stroke:none;fill-rule:nonzero;fill:#020202;fill-opacity:1;" d="M 441.007812 609.574219 L 422.824219 661.796875 C 419.84375 670.367188 413.375 677.269531 405.015625 680.816406 L 312.1875 720.152344 L 310.875 720.710938 C 308.140625 721.972656 306.808594 725.09375 307.792969 727.9375 L 312.140625 738.558594 C 313.257812 741.78125 316.886719 743.367188 320.015625 742 L 419.070312 698.671875 C 430.914062 693.488281 440.058594 683.605469 444.308594 671.40625 L 463.160156 617.277344 C 464.183594 614.332031 462.628906 611.121094 459.6875 610.097656 L 448.191406 606.101562 C 445.25 605.082031 442.035156 606.636719 441.007812 609.574219 "/><path style=" stroke:none;fill-rule:nonzero;fill:#020202;fill-opacity:1;" d="M 338.882812 708.835938 C 334.476562 700.304688 326.925781 693.375 317.132812 689.972656 C 312.054688 688.207031 306.851562 687.558594 301.808594 687.894531 L 312.1875 720.152344 L 338.882812 708.835938 "/><path style=" stroke:none;fill-rule:nonzero;fill:#000000;fill-opacity:1;" d="M 405 663.804688 C 404.589844 663.804688 404.210938 663.542969 404.078125 663.136719 L 393.371094 630.78125 C 393.203125 630.273438 393.480469 629.722656 393.992188 629.554688 C 394.5 629.386719 395.050781 629.660156 395.21875 630.171875 L 405.925781 662.523438 C 406.09375 663.035156 405.820312 663.585938 405.308594 663.753906 C 405.207031 663.785156 405.101562 663.804688 405 663.804688 "/><path style=" stroke:none;fill-rule:nonzero;fill:#000000;fill-opacity:1;" d="M 385.816406 664.597656 C 385.308594 664.597656 384.878906 664.203125 384.84375 663.691406 L 383.734375 646.148438 C 383.703125 645.613281 384.113281 645.148438 384.644531 645.121094 C 385.195312 645.09375 385.644531 645.492188 385.679688 646.03125 L 386.789062 663.566406 C 386.820312 664.101562 386.414062 664.566406 385.878906 664.597656 C 385.855469 664.597656 385.835938 664.597656 385.816406 664.597656 "/><path style=" stroke:none;fill-rule:nonzero;fill:#8c7bff;fill-opacity:1;" d="M 268.121094 568.84375 L 172.191406 592.75 C 131.53125 602.886719 90.355469 578.152344 80.203125 537.5 L 249.746094 495.238281 L 268.121094 568.84375 "/><path style=" stroke:none;fill-rule:nonzero;fill:#955b50;fill-opacity:1;" d="M 279.671875 560.429688 L 212.148438 560.429688 L 212.148438 618.226562 L 262.445312 618.226562 L 262.445312 763.511719 L 320.289062 763.511719 L 320.289062 601.015625 C 320.289062 578.605469 302.101562 560.429688 279.671875 560.429688 "/><path style=" stroke:none;fill-rule:nonzero;fill:#000000;fill-opacity:1;" d="M 266.839844 560.429688 L 212.148438 560.429688 L 212.148438 618.226562 L 256.082031 618.347656 L 266.839844 560.429688 "/><path style=" stroke:none;fill-rule:nonzero;fill:#000000;fill-opacity:1;" d="M 263.421875 762.539062 L 319.320312 762.539062 L 319.320312 601.015625 C 319.320312 579.175781 301.535156 561.40625 279.671875 561.40625 L 213.121094 561.40625 L 213.121094 617.253906 L 262.445312 617.253906 C 262.984375 617.253906 263.421875 617.6875 263.421875 618.226562 Z M 320.289062 764.484375 L 262.445312 764.484375 C 261.910156 764.484375 261.472656 764.046875 261.472656 763.511719 L 261.472656 619.199219 L 212.148438 619.199219 C 211.609375 619.199219 211.175781 618.765625 211.175781 618.226562 L 211.175781 560.433594 C 211.175781 559.894531 211.609375 559.457031 212.148438 559.457031 L 279.671875 559.457031 C 302.605469 559.457031 321.261719 578.101562 321.261719 601.015625 L 321.261719 763.511719 C 321.261719 764.046875 320.828125 764.484375 320.289062 764.484375 "/><path style=" stroke:none;fill-rule:nonzero;fill:#fed101;fill-opacity:1;" d="M 419.597656 780.324219 L 419.597656 767.347656 C 419.597656 757.65625 412.460938 749.453125 402.859375 748.101562 L 376.027344 744.324219 C 371.769531 743.722656 367.726562 742.0625 364.28125 739.488281 L 358.164062 735.289062 C 344.910156 726.1875 341.65625 713.464844 340.894531 712.085938 L 253.644531 712.085938 L 248.035156 779.484375 L 419.597656 780.324219 "/><path style=" stroke:none;fill-rule:nonzero;fill:#000000;fill-opacity:1;" d="M 247.59375 778.988281 C 245.203125 778.988281 243.261719 780.917969 243.257812 783.308594 L 243.199219 801.144531 C 243.199219 803.742188 245.304688 805.847656 247.902344 805.847656 L 419.597656 805.847656 C 423.679688 805.847656 426.988281 802.539062 426.988281 798.460938 L 426.988281 786.375 C 426.988281 782.296875 423.679688 778.988281 419.597656 778.988281 L 247.59375 778.988281 "/><path style=" stroke:none;fill-rule:nonzero;fill:#000000;fill-opacity:1;" d="M 419.640625 779.957031 C 419.617188 779.957031 419.601562 779.957031 419.582031 779.953125 C 419.042969 779.921875 418.632812 779.460938 418.667969 778.925781 L 419.21875 769.429688 C 419.777344 759.699219 412.929688 751.265625 403.289062 749.800781 L 371.058594 744.914062 C 370.761719 744.867188 370.460938 745.003906 370.300781 745.25 L 353.675781 770.507812 C 353.378906 770.957031 352.78125 771.078125 352.328125 770.785156 C 351.882812 770.488281 351.753906 769.886719 352.050781 769.4375 L 368.671875 744.183594 C 369.257812 743.296875 370.304688 742.832031 371.351562 742.988281 L 403.578125 747.875 C 414.222656 749.488281 421.78125 758.800781 421.15625 769.539062 L 420.609375 779.039062 C 420.578125 779.554688 420.148438 779.957031 419.640625 779.957031 "/><path style=" stroke:none;fill-rule:nonzero;fill:#000000;fill-opacity:1;" d="M 340.894531 748.597656 C 340.5625 748.597656 340.234375 748.425781 340.054688 748.113281 C 339.785156 747.652344 339.9375 747.054688 340.402344 746.785156 L 358.011719 736.519531 C 358.472656 736.25 359.070312 736.410156 359.339844 736.875 C 359.613281 737.339844 359.449219 737.933594 358.988281 738.203125 L 341.386719 748.464844 C 341.230469 748.554688 341.0625 748.597656 340.894531 748.597656 "/><path style=" stroke:none;fill-rule:nonzero;fill:#020202;fill-opacity:1;" d="M 280.914062 779.84375 C 275.324219 757.292969 259.242188 747.730469 250.925781 744.203125 L 247.792969 779.070312 C 246.835938 779.070312 280.914062 779.84375 280.914062 779.84375 "/><path style=" stroke:none;fill-rule:nonzero;fill:#8c7bff;fill-opacity:1;" d="M 255.226562 627.441406 L 155.421875 624.429688 C 113.492188 624.429688 79.5 590.464844 79.5 548.570312 L 254.238281 548.570312 L 255.226562 627.441406 "/><path style=" stroke:none;fill-rule:nonzero;fill:#000000;fill-opacity:1;" d="M 255.953125 561.425781 C 255.953125 561.425781 255.949219 561.425781 255.945312 561.425781 L 204.566406 560.996094 C 204.03125 560.992188 203.597656 560.554688 203.601562 560.015625 C 203.605469 559.480469 204.042969 559.050781 204.574219 559.050781 C 204.578125 559.050781 204.578125 559.050781 204.582031 559.050781 L 255.960938 559.480469 C 256.5 559.484375 256.929688 559.921875 256.925781 560.460938 C 256.921875 560.996094 256.488281 561.425781 255.953125 561.425781 "/><path style=" stroke:none;fill-rule:nonzero;fill:#955b50;fill-opacity:1;" d="M 381.421875 411.640625 L 374.117188 401.648438 L 410.738281 375.867188 C 413.304688 374.058594 416.851562 374.671875 418.664062 377.242188 L 418.734375 377.339844 C 420.542969 379.910156 419.929688 383.453125 417.363281 385.261719 L 381.421875 411.640625 "/><path style=" stroke:none;fill-rule:nonzero;fill:#955b50;fill-opacity:1;" d="M 370.210938 389.945312 L 377.046875 399.640625 L 416.867188 371.609375 C 419.484375 369.769531 420.113281 366.148438 418.265625 363.53125 L 418.113281 363.3125 C 416.269531 360.699219 412.65625 360.070312 410.039062 361.914062 L 370.210938 389.945312 "/><path style=" stroke:none;fill-rule:nonzero;fill:#955b50;fill-opacity:1;" d="M 371.160156 389.332031 L 364.539062 379.941406 L 395.113281 358.417969 C 397.679688 356.609375 401.226562 357.226562 403.035156 359.792969 L 403.105469 359.890625 C 404.914062 362.457031 404.300781 366.003906 401.734375 367.816406 L 371.160156 389.332031 "/><path style=" stroke:none;fill-rule:nonzero;fill:#955b50;fill-opacity:1;" d="M 387.257812 408.550781 L 358.984375 369.722656 L 328.300781 391.152344 L 326.070312 402.136719 C 323.640625 414.113281 331.355469 425.796875 343.328125 428.273438 L 345.804688 428.789062 C 350.589844 429.78125 356.824219 430.578125 360.816406 427.769531 L 387.257812 408.550781 "/><path style=" stroke:none;fill-rule:nonzero;fill:#955b50;fill-opacity:1;" d="M 378.691406 361.03125 L 373.757812 348.589844 C 372.644531 345.789062 369.421875 344.488281 366.671875 345.734375 L 365.800781 346.125 C 363.238281 347.289062 362.035156 350.253906 363.074219 352.871094 L 366.511719 361.535156 C 367.054688 362.910156 366.589844 364.480469 365.375 365.332031 L 343.777344 380.53125 L 350.40625 389.933594 L 375.292969 372.421875 C 378.921875 369.867188 380.324219 365.15625 378.691406 361.03125 "/><path style=" stroke:none;fill-rule:nonzero;fill:#4ada85;fill-opacity:1;" d="M 493.058594 273.273438 C 487.78125 273.273438 482.90625 275.011719 478.984375 277.941406 L 478.984375 214.441406 L 412.476562 214.441406 C 417.0625 218.722656 419.914062 224.792969 419.914062 231.527344 C 419.914062 244.441406 409.402344 254.914062 396.4375 254.914062 C 383.46875 254.914062 372.953125 244.441406 372.953125 231.527344 C 372.953125 224.792969 375.808594 218.722656 380.390625 214.441406 L 313.886719 214.441406 L 313.886719 378.875 L 478.984375 378.875 L 478.984375 315.371094 C 482.90625 318.308594 487.78125 320.042969 493.058594 320.042969 C 506.03125 320.042969 516.542969 309.570312 516.542969 296.65625 C 516.542969 283.746094 506.03125 273.273438 493.058594 273.273438 "/><path style=" stroke:none;fill-rule:nonzero;fill:#000000;fill-opacity:1;" d="M 314.863281 377.902344 L 478.011719 377.902344 L 478.011719 315.371094 C 478.011719 315.007812 478.21875 314.671875 478.546875 314.503906 C 478.875 314.339844 479.273438 314.375 479.570312 314.597656 C 483.480469 317.523438 488.152344 319.070312 493.0625 319.070312 C 505.472656 319.070312 515.574219 309.011719 515.574219 296.65625 C 515.574219 284.300781 505.472656 274.25 493.0625 274.25 C 488.152344 274.25 483.480469 275.792969 479.570312 278.722656 C 479.273438 278.941406 478.875 278.976562 478.546875 278.8125 C 478.21875 278.648438 478.011719 278.3125 478.011719 277.941406 L 478.011719 215.417969 L 414.78125 215.417969 C 418.738281 219.871094 420.894531 225.511719 420.894531 231.53125 C 420.894531 244.964844 409.925781 255.886719 396.433594 255.886719 C 382.953125 255.886719 371.980469 244.964844 371.980469 231.53125 C 371.980469 225.511719 374.128906 219.871094 378.085938 215.417969 L 314.863281 215.417969 Z M 478.984375 379.851562 L 313.886719 379.851562 C 313.351562 379.851562 312.914062 379.410156 312.914062 378.875 L 312.914062 214.441406 C 312.914062 213.90625 313.351562 213.46875 313.886719 213.46875 L 380.390625 213.46875 C 380.792969 213.46875 381.152344 213.714844 381.300781 214.085938 C 381.445312 214.457031 381.351562 214.878906 381.058594 215.152344 C 376.457031 219.449219 373.921875 225.269531 373.921875 231.53125 C 373.921875 243.886719 384.023438 253.945312 396.433594 253.945312 C 408.847656 253.945312 418.945312 243.886719 418.945312 231.53125 C 418.945312 225.265625 416.414062 219.449219 411.808594 215.152344 C 411.515625 214.878906 411.425781 214.457031 411.570312 214.085938 C 411.714844 213.714844 412.070312 213.46875 412.472656 213.46875 L 478.984375 213.46875 C 479.523438 213.46875 479.957031 213.90625 479.957031 214.441406 L 479.957031 276.089844 C 483.871094 273.605469 488.363281 272.300781 493.0625 272.300781 C 506.542969 272.300781 517.515625 283.226562 517.515625 296.65625 C 517.515625 310.089844 506.542969 321.015625 493.0625 321.015625 C 488.363281 321.015625 483.871094 319.714844 479.957031 317.226562 L 479.957031 378.875 C 479.957031 379.410156 479.523438 379.851562 478.984375 379.851562 "/><path style=" stroke:none;fill-rule:nonzero;fill:#955b50;fill-opacity:1;" d="M 337.808594 390.429688 L 362.703125 426.566406 L 297.441406 476.503906 C 290.773438 481.609375 282.609375 484.378906 274.207031 484.382812 L 216.816406 484.433594 L 216.816406 440.480469 L 275.3125 440.632812 L 337.808594 390.429688 "/><path style=" stroke:none;fill-rule:nonzero;fill:#955b50;fill-opacity:1;" d="M 328.777344 354.542969 L 328.078125 354.574219 C 324.039062 354.746094 321.425781 358.917969 323.027344 362.628906 L 323.726562 364.234375 C 324.859375 366.859375 326.269531 369.667969 326.390625 372.519531 L 326.390625 402.472656 L 339.441406 401.914062 L 338.78125 374.472656 C 338.585938 369.960938 337.566406 365.511719 335.773438 361.363281 L 334.324219 358.019531 C 333.375 355.824219 331.167969 354.441406 328.777344 354.542969 "/><path style=" stroke:none;fill-rule:nonzero;fill:#000000;fill-opacity:1;" d="M 383.074219 396.371094 C 382.765625 396.371094 382.46875 396.226562 382.277344 395.957031 C 381.96875 395.519531 382.074219 394.914062 382.511719 394.601562 L 416.3125 370.8125 C 417.363281 370.070312 418.066406 368.964844 418.289062 367.695312 C 418.503906 366.429688 418.222656 365.152344 417.480469 364.105469 L 417.316406 363.871094 C 415.785156 361.699219 412.773438 361.179688 410.601562 362.707031 L 377.925781 385.703125 C 377.488281 386.015625 376.878906 385.910156 376.570312 385.472656 C 376.261719 385.03125 376.367188 384.425781 376.808594 384.113281 L 409.480469 361.117188 C 412.527344 358.96875 416.753906 359.699219 418.90625 362.75 L 419.070312 362.980469 C 420.109375 364.457031 420.515625 366.253906 420.207031 368.027344 C 419.898438 369.808594 418.910156 371.359375 417.4375 372.402344 L 383.632812 396.195312 C 383.464844 396.3125 383.269531 396.371094 383.074219 396.371094 "/><path style=" stroke:none;fill-rule:nonzero;fill:#000000;fill-opacity:1;" d="M 375.109375 387.472656 C 374.800781 387.472656 374.5 387.328125 374.3125 387.058594 C 374.007812 386.617188 374.113281 386.011719 374.550781 385.699219 L 401.179688 367.011719 C 402.207031 366.292969 402.890625 365.210938 403.105469 363.972656 C 403.320312 362.734375 403.039062 361.484375 402.316406 360.460938 L 402.238281 360.347656 C 400.742188 358.226562 397.800781 357.714844 395.675781 359.214844 L 366.644531 379.648438 C 366.203125 379.957031 365.597656 379.851562 365.289062 379.410156 C 364.980469 378.972656 365.085938 378.367188 365.523438 378.058594 L 394.558594 357.621094 C 397.558594 355.511719 401.714844 356.230469 403.828125 359.226562 L 403.90625 359.335938 C 404.929688 360.792969 405.324219 362.554688 405.023438 364.304688 C 404.71875 366.054688 403.753906 367.582031 402.296875 368.601562 L 375.667969 387.296875 C 375.5 387.414062 375.300781 387.472656 375.109375 387.472656 "/><path style=" stroke:none;fill-rule:nonzero;fill:#000000;fill-opacity:1;" d="M 216.816406 485.402344 C 216.554688 485.402344 216.308594 485.300781 216.125 485.117188 C 215.945312 484.9375 215.84375 484.6875 215.84375 484.433594 L 215.84375 440.480469 C 215.84375 440.222656 215.945312 439.976562 216.125 439.792969 C 216.308594 439.609375 216.554688 439.507812 216.816406 439.507812 L 274.519531 439.542969 L 325.308594 399.453125 L 325.308594 372.519531 C 325.203125 370.078125 324.117188 367.574219 323.058594 365.152344 L 322.136719 363.011719 C 321.257812 360.976562 321.433594 358.640625 322.609375 356.761719 C 323.789062 354.878906 325.820312 353.699219 328.039062 353.601562 L 328.734375 353.570312 C 331.507812 353.453125 334.117188 355.085938 335.214844 357.632812 L 336.664062 360.980469 C 338.429688 365.054688 339.425781 369.582031 339.636719 374.433594 L 339.636719 382.050781 L 364.820312 364.53125 C 365.664062 363.941406 365.988281 362.855469 365.605469 361.890625 L 362.167969 353.230469 C 360.941406 350.125 362.359375 346.617188 365.402344 345.238281 L 366.269531 344.847656 C 367.84375 344.132812 369.59375 344.097656 371.191406 344.742188 C 372.792969 345.386719 374.023438 346.628906 374.660156 348.234375 L 379.59375 360.671875 C 381.402344 365.230469 379.867188 370.390625 375.851562 373.214844 C 375.410156 373.523438 374.804688 373.417969 374.492188 372.980469 C 374.1875 372.539062 374.289062 371.933594 374.730469 371.625 C 378.003906 369.316406 379.261719 365.109375 377.785156 361.386719 L 372.851562 348.949219 C 372.414062 347.84375 371.566406 346.992188 370.460938 346.546875 C 369.363281 346.105469 368.15625 346.125 367.074219 346.617188 L 366.203125 347.011719 C 364.109375 347.960938 363.132812 350.378906 363.980469 352.511719 L 367.414062 361.175781 C 368.128906 362.976562 367.519531 365.015625 365.9375 366.128906 L 339.21875 384.710938 C 338.925781 384.917969 338.535156 384.945312 338.214844 384.777344 C 337.894531 384.609375 337.691406 384.277344 337.691406 383.917969 L 337.691406 374.472656 C 337.496094 369.902344 336.546875 365.605469 334.878906 361.753906 L 333.433594 358.40625 C 332.648438 356.59375 330.78125 355.429688 328.816406 355.515625 L 328.125 355.546875 C 326.519531 355.617188 325.109375 356.433594 324.261719 357.796875 C 323.410156 359.152344 323.285156 360.773438 323.921875 362.238281 L 324.84375 364.375 C 325.972656 366.964844 327.136719 369.636719 327.253906 372.480469 L 327.257812 399.925781 C 327.257812 400.222656 327.121094 400.503906 326.886719 400.6875 L 275.457031 441.277344 C 275.285156 441.417969 275.074219 441.492188 274.855469 441.492188 L 217.789062 441.457031 L 217.789062 483.457031 L 273.800781 483.410156 C 282.203125 483.40625 290.511719 480.601562 297.199219 475.511719 L 416.777344 384.480469 C 417.835938 383.738281 418.519531 382.65625 418.730469 381.417969 C 418.949219 380.183594 418.667969 378.9375 417.945312 377.90625 L 417.867188 377.792969 C 416.367188 375.675781 413.425781 375.167969 411.304688 376.660156 L 383.609375 396.15625 C 383.167969 396.464844 382.558594 396.359375 382.25 395.921875 C 381.941406 395.476562 382.046875 394.871094 382.484375 394.5625 L 410.179688 375.070312 C 413.179688 372.953125 417.34375 373.679688 419.453125 376.675781 L 419.535156 376.789062 C 420.554688 378.238281 420.953125 380.003906 420.648438 381.75 C 420.347656 383.5 419.378906 385.03125 417.925781 386.054688 L 298.375 477.058594 C 291.355469 482.40625 282.628906 485.351562 273.800781 485.359375 L 216.816406 485.402344 "/><path style=" stroke:none;fill-rule:nonzero;fill:#000000;fill-opacity:1;" d="M 222.375 484.433594 L 216.816406 484.433594 L 216.816406 440.480469 L 232.105469 440.480469 L 222.375 484.433594 "/><path style=" stroke:none;fill-rule:nonzero;fill:#fed101;fill-opacity:1;" d="M 220.253906 435.769531 L 107.363281 435.769531 C 83.417969 435.769531 64.007812 455.164062 64.007812 479.085938 L 64.007812 550.472656 L 203.878906 550.472656 L 203.878906 493.121094 L 220.253906 493.121094 L 220.253906 435.769531 "/><path style=" stroke:none;fill-rule:nonzero;fill:#000000;fill-opacity:1;" d="M 64.980469 549.5 L 202.90625 549.5 L 202.90625 493.121094 C 202.90625 492.582031 203.34375 492.144531 203.882812 492.144531 L 219.285156 492.144531 L 219.285156 436.742188 L 107.367188 436.742188 C 83.992188 436.742188 64.980469 455.738281 64.980469 479.089844 Z M 203.882812 551.449219 L 64.007812 551.449219 C 63.46875 551.449219 63.035156 551.011719 63.035156 550.472656 L 63.035156 479.089844 C 63.035156 454.664062 82.921875 434.796875 107.367188 434.796875 L 220.253906 434.796875 C 220.792969 434.796875 221.230469 435.230469 221.230469 435.769531 L 221.230469 493.121094 C 221.230469 493.65625 220.792969 494.09375 220.253906 494.09375 L 204.851562 494.09375 L 204.851562 550.472656 C 204.851562 551.011719 204.417969 551.449219 203.882812 551.449219 "/><path style=" stroke:none;fill-rule:nonzero;fill:#000000;fill-opacity:1;" d="M 203.878906 494.09375 C 203.378906 494.09375 202.953125 493.710938 202.910156 493.207031 L 201.742188 479.757812 C 201.695312 479.21875 202.089844 478.75 202.625 478.699219 C 203.167969 478.65625 203.632812 479.050781 203.679688 479.585938 L 204.847656 493.039062 C 204.894531 493.574219 204.5 494.042969 203.964844 494.089844 C 203.9375 494.09375 203.90625 494.09375 203.878906 494.09375 "/><path style=" stroke:none;fill-rule:nonzero;fill:#000000;fill-opacity:1;" d="M 126.796875 489.59375 L 68.464844 489.59375 C 67.925781 489.59375 67.492188 489.160156 67.492188 488.621094 C 67.492188 488.082031 67.925781 487.648438 68.464844 487.648438 L 125.824219 487.648438 L 125.824219 479.480469 C 125.824219 478.949219 126.261719 478.511719 126.796875 478.511719 C 127.335938 478.511719 127.769531 478.949219 127.769531 479.480469 L 127.769531 488.621094 C 127.769531 489.160156 127.335938 489.59375 126.796875 489.59375 "/><path style=" stroke:none;fill-rule:nonzero;fill:#955b50;fill-opacity:1;" d="M 193.265625 625.988281 L 225.347656 640.996094 C 228.152344 642.308594 229.433594 645.808594 228.207031 648.8125 L 227.902344 649.558594 C 226.675781 652.566406 223.410156 653.933594 220.605469 652.621094 L 188.519531 637.613281 L 193.265625 625.988281 "/><path style=" stroke:none;fill-rule:nonzero;fill:#955b50;fill-opacity:1;" d="M 204.015625 593.265625 L 154.171875 593.265625 L 153.589844 611.863281 C 149.957031 625.503906 159.519531 639.074219 172.769531 639.074219 L 205.15625 639.074219 L 204.015625 593.265625 "/><path style=" stroke:none;fill-rule:nonzero;fill:#955b50;fill-opacity:1;" d="M 234.3125 622.746094 L 241.890625 627.503906 C 243.457031 628.488281 244.417969 630.285156 244.417969 632.230469 L 244.417969 632.949219 C 244.417969 637.179688 240.125 639.8125 236.714844 637.675781 L 234.3125 636.164062 C 231.480469 634.386719 228.257812 633.449219 224.980469 633.449219 L 198.910156 633.449219 L 198.910156 620.035156 L 224.976562 620.035156 C 228.257812 620.035156 231.480469 620.96875 234.3125 622.746094 "/><path style=" stroke:none;fill-rule:nonzero;fill:#955b50;fill-opacity:1;" d="M 240.140625 609.355469 L 247.71875 614.113281 C 249.285156 615.09375 250.246094 616.890625 250.246094 618.835938 L 250.246094 619.554688 C 250.246094 623.789062 245.953125 626.421875 242.542969 624.277344 L 240.140625 622.773438 C 237.308594 620.992188 234.085938 620.054688 230.804688 620.054688 L 201.269531 620.054688 L 201.269531 606.636719 L 230.804688 606.636719 C 234.085938 606.636719 237.308594 607.574219 240.140625 609.355469 "/><path style=" stroke:none;fill-rule:nonzero;fill:#955b50;fill-opacity:1;" d="M 240.140625 595.984375 L 247.71875 600.742188 C 249.285156 601.730469 250.246094 603.523438 250.246094 605.464844 L 250.246094 606.1875 C 250.246094 610.417969 245.953125 613.050781 242.542969 610.910156 L 240.140625 609.402344 C 237.308594 607.621094 234.085938 606.683594 230.804688 606.683594 L 201.269531 606.683594 L 201.269531 593.265625 L 230.804688 593.265625 C 234.085938 593.265625 237.308594 594.203125 240.140625 595.984375 "/><path style=" stroke:none;fill-rule:nonzero;fill:#955b50;fill-opacity:1;" d="M 143.410156 559.875 L 181.351562 595.710938 L 183.429688 639.074219 L 175.914062 639.074219 C 161.664062 639.074219 149.015625 629.304688 144.523438 614.828125 L 131.320312 601.824219 L 112.457031 587.445312 L 143.410156 559.875 "/><path style=" stroke:none;fill-rule:nonzero;fill:#955b50;fill-opacity:1;" d="M 121.636719 538.339844 L 122.179688 488.328125 L 74.601562 488.320312 L 74.089844 535.691406 C 73.941406 549.597656 80.28125 562.691406 91.042969 570.703125 L 132.035156 601.207031 L 165.808594 632.644531 L 200.453125 613.203125 L 121.636719 538.339844 "/><path style=" stroke:none;fill-rule:nonzero;fill:#000000;fill-opacity:1;" d="M 100.925781 502.5 C 104.402344 508.613281 113.675781 508.21875 121.308594 505.914062 L 121.492188 489.011719 L 73.914062 489.050781 L 73.808594 499.195312 C 91.660156 494.714844 98.015625 497.382812 100.925781 502.5 "/><path style=" stroke:none;fill-rule:nonzero;fill:#000000;fill-opacity:1;" d="M 126.195312 544.613281 C 125.960938 544.613281 125.722656 544.53125 125.535156 544.355469 L 110.640625 530.589844 C 110.246094 530.226562 110.222656 529.609375 110.585938 529.214844 C 110.953125 528.820312 111.566406 528.796875 111.960938 529.160156 L 126.855469 542.929688 C 127.253906 543.292969 127.277344 543.90625 126.910156 544.304688 C 126.71875 544.511719 126.457031 544.613281 126.195312 544.613281 "/><path style=" stroke:none;fill-rule:nonzero;fill:#000000;fill-opacity:1;" d="M 239.300781 639.40625 C 238.230469 639.40625 237.160156 639.101562 236.195312 638.496094 L 233.792969 636.984375 C 231.121094 635.3125 228.074219 634.425781 224.980469 634.425781 L 209.214844 634.425781 C 208.675781 634.425781 208.242188 633.984375 208.242188 633.449219 C 208.242188 632.910156 208.675781 632.480469 209.214844 632.480469 L 224.980469 632.480469 C 228.441406 632.480469 231.847656 633.46875 234.828125 635.335938 L 237.230469 636.847656 C 238.46875 637.628906 239.90625 637.667969 241.175781 636.96875 C 242.597656 636.179688 243.445312 634.679688 243.445312 632.949219 L 243.445312 632.230469 C 243.445312 630.628906 242.652344 629.132812 241.375 628.328125 L 233.792969 623.566406 C 231.121094 621.890625 228.074219 621.003906 224.976562 621.003906 L 205.261719 621.003906 C 204.726562 621.003906 204.289062 620.566406 204.289062 620.035156 C 204.289062 619.492188 204.726562 619.054688 205.261719 619.054688 L 224.976562 619.054688 C 228.441406 619.054688 231.847656 620.046875 234.828125 621.917969 L 242.410156 626.679688 C 244.25 627.835938 245.390625 629.964844 245.390625 632.230469 L 245.390625 632.949219 C 245.390625 635.359375 244.136719 637.550781 242.117188 638.667969 C 241.226562 639.160156 240.261719 639.40625 239.300781 639.40625 "/><path style=" stroke:none;fill-rule:nonzero;fill:#000000;fill-opacity:1;" d="M 245.128906 626.011719 C 244.058594 626.011719 242.988281 625.707031 242.023438 625.105469 L 239.621094 623.59375 C 236.949219 621.914062 233.902344 621.027344 230.804688 621.027344 L 207.445312 621.027344 C 206.910156 621.027344 206.472656 620.59375 206.472656 620.054688 C 206.472656 619.519531 206.910156 619.082031 207.445312 619.082031 L 230.804688 619.082031 C 234.265625 619.082031 237.671875 620.074219 240.65625 621.945312 L 243.058594 623.457031 C 244.296875 624.230469 245.734375 624.273438 247 623.570312 C 248.421875 622.785156 249.273438 621.28125 249.273438 619.554688 L 249.273438 618.835938 C 249.273438 617.230469 248.480469 615.738281 247.203125 614.933594 L 239.621094 610.175781 C 236.949219 608.496094 233.898438 607.609375 230.804688 607.609375 L 206.808594 607.609375 C 206.269531 607.609375 205.835938 607.175781 205.835938 606.636719 C 205.835938 606.097656 206.269531 605.664062 206.808594 605.664062 L 230.804688 605.664062 C 234.265625 605.664062 237.671875 606.65625 240.65625 608.527344 L 248.234375 613.285156 C 250.074219 614.441406 251.21875 616.570312 251.21875 618.835938 L 251.21875 619.554688 C 251.21875 621.96875 249.964844 624.160156 247.945312 625.277344 C 247.054688 625.769531 246.089844 626.011719 245.128906 626.011719 "/><path style=" stroke:none;fill-rule:nonzero;fill:#000000;fill-opacity:1;" d="M 222.703125 654.019531 C 221.777344 654.019531 220.851562 653.8125 219.980469 653.402344 L 191.429688 640.046875 L 175.535156 640.046875 C 175.53125 640.046875 175.53125 640.046875 175.527344 640.046875 C 161.351562 640.035156 148.285156 629.894531 143.664062 615.347656 L 130.316406 602.054688 L 89.898438 571.59375 C 79.023438 563.394531 72.621094 550.011719 72.773438 535.792969 L 73.113281 488.828125 C 73.117188 488.292969 73.554688 487.859375 74.089844 487.859375 L 121.21875 487.90625 C 121.480469 487.90625 121.726562 488.011719 121.910156 488.191406 C 122.089844 488.378906 122.195312 488.628906 122.191406 488.890625 L 121.664062 538.035156 L 179.378906 592.296875 L 230.804688 592.296875 C 234.265625 592.296875 237.671875 593.285156 240.65625 595.160156 L 248.234375 599.921875 C 250.074219 601.074219 251.21875 603.199219 251.21875 605.464844 L 251.21875 606.1875 C 251.21875 608.597656 249.964844 610.789062 247.945312 611.90625 C 246.0625 612.945312 243.851562 612.878906 242.023438 611.734375 L 239.621094 610.222656 C 236.949219 608.546875 233.902344 607.664062 230.804688 607.664062 L 204.285156 607.664062 C 203.746094 607.664062 203.3125 607.222656 203.3125 606.683594 C 203.3125 606.152344 203.746094 605.714844 204.285156 605.714844 L 230.804688 605.714844 C 234.265625 605.714844 237.671875 606.703125 240.65625 608.578125 L 243.058594 610.085938 C 244.292969 610.867188 245.734375 610.90625 247 610.203125 C 248.421875 609.414062 249.273438 607.914062 249.273438 606.1875 L 249.273438 605.464844 C 249.273438 603.863281 248.480469 602.367188 247.203125 601.566406 L 239.621094 596.804688 C 236.949219 595.128906 233.898438 594.238281 230.804688 594.238281 L 178.992188 594.238281 C 178.746094 594.238281 178.507812 594.148438 178.328125 593.976562 L 120.023438 539.160156 C 119.824219 538.976562 119.710938 538.714844 119.714844 538.441406 L 120.234375 489.847656 L 75.054688 489.808594 L 74.71875 535.8125 C 74.574219 549.421875 80.6875 562.210938 91.070312 570.039062 L 131.542969 600.542969 C 131.578125 600.570312 131.609375 600.601562 131.644531 600.632812 L 145.210938 614.140625 C 145.320312 614.25 145.40625 614.390625 145.449219 614.542969 C 149.757812 628.414062 162.136719 638.101562 175.554688 638.101562 L 191.644531 638.101562 C 191.789062 638.101562 191.929688 638.132812 192.058594 638.191406 L 220.804688 651.644531 C 221.925781 652.167969 223.179688 652.210938 224.332031 651.761719 C 225.578125 651.273438 226.558594 650.28125 227.09375 648.96875 L 227.214844 648.671875 C 228.296875 646.023438 227.179688 642.929688 224.722656 641.78125 L 196.351562 628.507812 C 195.867188 628.277344 195.65625 627.699219 195.882812 627.214844 C 196.109375 626.726562 196.6875 626.515625 197.175781 626.742188 L 225.550781 640.015625 C 228.929688 641.597656 230.484375 645.8125 229.015625 649.40625 L 228.894531 649.703125 C 228.15625 651.515625 226.785156 652.890625 225.039062 653.574219 C 224.28125 653.867188 223.492188 654.019531 222.703125 654.019531 "/><path style=" stroke:none;fill-rule:nonzero;fill:#000000;fill-opacity:1;" d="M 187.105469 311.996094 L 187.105469 349.222656 C 187.105469 362.867188 176.039062 373.925781 162.382812 373.925781 L 151.238281 373.925781 L 116.667969 380.660156 L 116.667969 369.210938 C 116.667969 357.007812 123.410156 345.804688 134.195312 340.078125 L 187.105469 311.996094 "/><path style=" stroke:none;fill-rule:nonzero;fill:#955b50;fill-opacity:1;" d="M 122.890625 439.597656 L 156.507812 459.800781 L 156.507812 393.46875 L 122.890625 393.46875 L 122.890625 439.597656 "/><path style=" stroke:none;fill-rule:nonzero;fill:#000000;fill-opacity:1;" d="M 122.890625 408.847656 L 122.890625 393.46875 L 156.507812 393.46875 L 156.507812 427.417969 C 153.472656 428.148438 147.425781 429.0625 140.480469 426.300781 C 129.613281 421.980469 124.277344 411.722656 122.890625 408.847656 "/><path style=" stroke:none;fill-rule:nonzero;fill:#955b50;fill-opacity:1;" d="M 116.667969 382.324219 C 116.667969 401.976562 131.679688 417.90625 148.886719 417.90625 C 166.683594 417.90625 181.109375 401.976562 181.109375 382.324219 C 181.109375 362.679688 166.683594 346.75 148.886719 346.75 C 131.09375 346.75 116.667969 362.679688 116.667969 382.324219 "/><path style=" stroke:none;fill-rule:nonzero;fill:#000000;fill-opacity:1;" d="M 148.886719 418.882812 C 138.882812 418.882812 131.992188 417.355469 124.226562 409.300781 C 123.855469 408.914062 123.863281 408.300781 124.25 407.925781 C 124.640625 407.554688 125.253906 407.5625 125.625 407.953125 C 132.949219 415.546875 139.207031 416.933594 148.886719 416.933594 C 166.117188 416.933594 180.136719 401.410156 180.136719 382.324219 C 180.136719 363.242188 166.117188 347.722656 148.886719 347.722656 C 137.824219 347.722656 127.808594 353.996094 122.097656 364.511719 C 121.839844 364.984375 121.25 365.15625 120.777344 364.898438 C 120.304688 364.644531 120.128906 364.050781 120.386719 363.578125 C 126.355469 352.597656 137.277344 345.773438 148.886719 345.773438 C 167.191406 345.773438 182.082031 362.171875 182.082031 382.324219 C 182.082031 402.480469 167.191406 418.882812 148.886719 418.882812 "/><path style=" stroke:none;fill-rule:nonzero;fill:#000000;fill-opacity:1;" d="M 148.886719 346.75 C 131.09375 346.75 116.667969 362.679688 116.667969 382.324219 C 116.667969 384.09375 116.789062 385.828125 117.015625 387.53125 L 137.875 372.148438 L 179.765625 372.148438 C 175.796875 357.457031 163.480469 346.75 148.886719 346.75 "/><path style=" stroke:none;fill-rule:nonzero;fill:#ffffff;fill-opacity:1;" d="M 140.0625 402.582031 C 142.714844 405.015625 146.128906 406.652344 149.984375 407.042969 C 158.578125 407.917969 166.320312 402.339844 168.453125 394.25 L 140.0625 402.582031 "/><path style=" stroke:none;fill-rule:nonzero;fill:#fda4ff;fill-opacity:1;" d="M 698.535156 748.15625 L 698.523438 748.15625 C 699.402344 742.070312 699.878906 735.769531 699.878906 729.3125 C 699.878906 677.652344 670.304688 635.769531 633.832031 635.769531 C 597.355469 635.769531 567.785156 677.652344 567.785156 729.3125 C 567.785156 735.773438 568.269531 742.0625 569.152344 748.15625 L 531.554688 748.15625 L 531.554688 785.316406 L 741.554688 785.316406 L 741.554688 748.15625 L 698.535156 748.15625 "/><path style=" stroke:none;fill-rule:nonzero;fill:#000000;fill-opacity:1;" d="M 741.550781 786.292969 L 531.550781 786.292969 C 531.011719 786.292969 530.578125 785.855469 530.578125 785.316406 L 530.578125 748.15625 C 530.578125 747.621094 531.011719 747.1875 531.550781 747.1875 L 569.121094 747.1875 C 569.664062 747.1875 570.09375 747.621094 570.09375 748.15625 C 570.09375 748.695312 569.664062 749.128906 569.121094 749.128906 L 532.527344 749.128906 L 532.527344 784.34375 L 740.582031 784.34375 L 740.582031 749.128906 L 698.53125 749.128906 C 697.988281 749.128906 697.554688 748.695312 697.554688 748.15625 C 697.554688 747.621094 697.988281 747.1875 698.53125 747.1875 L 741.550781 747.1875 C 742.089844 747.1875 742.527344 747.621094 742.527344 748.15625 L 742.527344 785.316406 C 742.527344 785.855469 742.089844 786.292969 741.550781 786.292969 "/><path style=" stroke:none;fill-rule:nonzero;fill:#000000;fill-opacity:1;" d="M 574.179688 770.515625 C 573.773438 770.515625 573.398438 770.261719 573.261719 769.855469 C 568.980469 757.140625 566.804688 743.5 566.804688 729.316406 C 566.804688 677.195312 596.871094 634.800781 633.828125 634.800781 C 670.78125 634.800781 700.84375 677.195312 700.84375 729.316406 C 700.84375 739.996094 699.589844 750.472656 697.121094 760.460938 C 696.996094 760.980469 696.464844 761.300781 695.949219 761.167969 C 695.425781 761.042969 695.105469 760.511719 695.234375 759.992188 C 697.667969 750.160156 698.898438 739.835938 698.898438 729.316406 C 698.898438 678.273438 669.707031 636.742188 633.828125 636.742188 C 597.945312 636.742188 568.75 678.273438 568.75 729.316406 C 568.75 743.289062 570.890625 756.722656 575.101562 769.234375 C 575.277344 769.742188 575.003906 770.292969 574.492188 770.46875 C 574.386719 770.5 574.285156 770.515625 574.179688 770.515625 "/><path style=" stroke:none;fill-rule:nonzero;fill:#ffffff;fill-opacity:1;" d="M 539.917969 785.316406 C 545.335938 779.644531 548.851562 770.667969 548.851562 760.535156 C 548.851562 743.363281 538.796875 729.441406 526.398438 729.441406 C 513.996094 729.441406 503.9375 743.363281 503.9375 760.535156 C 503.9375 770.667969 507.453125 779.644531 512.871094 785.316406 L 539.917969 785.316406 "/><path style=" stroke:none;fill-rule:nonzero;fill:#ffffff;fill-opacity:1;" d="M 756.390625 785.316406 C 761.8125 779.640625 765.332031 770.667969 765.332031 760.53125 C 765.332031 743.363281 755.273438 729.441406 742.867188 729.441406 C 730.46875 729.441406 720.414062 743.363281 720.414062 760.53125 C 720.414062 770.667969 723.9375 779.640625 729.347656 785.316406 L 756.390625 785.316406 "/><path style=" stroke:none;fill-rule:nonzero;fill:#fda4ff;fill-opacity:1;" d="M 615.421875 714.191406 L 631.914062 787.003906 C 634.011719 796.25 628.199219 805.449219 618.945312 807.539062 C 609.683594 809.632812 600.480469 803.832031 598.386719 794.582031 L 578.984375 708.921875 L 615.421875 714.191406 "/><path style=" stroke:none;fill-rule:nonzero;fill:#fda4ff;fill-opacity:1;" d="M 650.835938 714.1875 L 634.34375 787.003906 C 632.246094 796.25 638.054688 805.449219 647.308594 807.539062 C 656.574219 809.632812 665.777344 803.832031 667.871094 794.582031 L 687.273438 708.917969 L 650.835938 714.1875 "/><path style=" stroke:none;fill-rule:nonzero;fill:#fda4ff;fill-opacity:1;" d="M 605.667969 666.789062 C 590.164062 659.007812 579.796875 644.835938 579.796875 628.648438 C 579.796875 604.078125 603.683594 584.15625 633.148438 584.15625 C 662.617188 584.15625 686.503906 604.078125 686.503906 628.648438 C 686.503906 643.515625 677.753906 656.683594 664.316406 664.761719 L 605.667969 666.789062 "/><path style=" stroke:none;fill-rule:nonzero;fill:#ffffff;fill-opacity:1;" d="M 633.144531 623.589844 C 617.988281 623.589844 605.703125 633.835938 605.703125 646.476562 C 605.703125 654.800781 610.5 663.410156 619.011719 666.09375 C 637.839844 672.042969 649.175781 665.050781 649.175781 665.050781 C 656.089844 660.898438 660.589844 654.125 660.589844 646.476562 C 660.589844 633.835938 648.296875 623.589844 633.144531 623.589844 "/><path style=" stroke:none;fill-rule:nonzero;fill:#000000;fill-opacity:1;" d="M 633.148438 624.5625 C 618.550781 624.5625 606.675781 634.394531 606.675781 646.476562 C 606.675781 654.742188 611.660156 662.089844 619.371094 665.191406 C 624.566406 667.277344 635.175781 669.976562 647.84375 664.570312 C 654.113281 661.898438 659.617188 653.441406 659.617188 646.476562 C 659.617188 634.394531 647.738281 624.5625 633.148438 624.5625 Z M 632.75 669.691406 C 626.660156 669.691406 621.742188 668.242188 618.644531 666.996094 C 610.1875 663.597656 604.730469 655.542969 604.730469 646.476562 C 604.730469 633.320312 617.476562 622.617188 633.148438 622.617188 C 648.816406 622.617188 661.5625 633.320312 661.5625 646.476562 C 661.5625 654.125 655.511719 663.417969 648.609375 666.359375 C 642.824219 668.832031 637.433594 669.691406 632.75 669.691406 "/><path style=" stroke:none;fill-rule:nonzero;fill:#020202;fill-opacity:1;" d="M 644.550781 636.328125 C 644.550781 638.652344 639.957031 640.535156 634.285156 640.535156 C 628.613281 640.535156 624.019531 638.652344 624.019531 636.328125 C 624.019531 634.003906 628.613281 632.125 634.285156 632.125 C 639.957031 632.125 644.550781 634.003906 644.550781 636.328125 "/><path style=" stroke:none;fill-rule:nonzero;fill:#000000;fill-opacity:1;" d="M 616.128906 617.316406 C 616.128906 619.597656 614.28125 621.445312 612 621.445312 C 609.71875 621.445312 607.867188 619.597656 607.867188 617.316406 C 607.867188 615.042969 609.71875 613.191406 612 613.191406 C 614.28125 613.191406 616.128906 615.042969 616.128906 617.316406 "/><path style=" stroke:none;fill-rule:nonzero;fill:#000000;fill-opacity:1;" d="M 661.367188 617.316406 C 661.367188 619.59375 659.515625 621.441406 657.234375 621.441406 C 654.957031 621.441406 653.109375 619.59375 653.109375 617.316406 C 653.109375 615.039062 654.957031 613.1875 657.234375 613.1875 C 659.515625 613.1875 661.367188 615.039062 661.367188 617.316406 "/><path style=" stroke:none;fill-rule:nonzero;fill:#000000;fill-opacity:1;" d="M 513.296875 784.34375 L 539.496094 784.34375 C 544.828125 778.574219 547.878906 769.921875 547.878906 760.535156 C 547.878906 743.929688 538.242188 730.414062 526.398438 730.414062 C 514.550781 730.414062 504.914062 743.929688 504.914062 760.535156 C 504.914062 769.921875 507.964844 778.574219 513.296875 784.34375 Z M 539.917969 786.292969 L 512.871094 786.292969 C 512.605469 786.292969 512.351562 786.179688 512.167969 785.992188 C 506.320312 779.859375 502.964844 770.582031 502.964844 760.535156 C 502.964844 742.855469 513.476562 728.472656 526.398438 728.472656 C 539.316406 728.472656 549.824219 742.855469 549.824219 760.535156 C 549.824219 770.585938 546.46875 779.863281 540.621094 785.992188 C 540.441406 786.179688 540.183594 786.292969 539.917969 786.292969 "/><path style=" stroke:none;fill-rule:nonzero;fill:#000000;fill-opacity:1;" d="M 729.769531 784.34375 L 755.972656 784.34375 C 761.304688 778.574219 764.355469 769.921875 764.355469 760.53125 C 764.355469 743.929688 754.714844 730.414062 742.867188 730.414062 C 731.023438 730.414062 721.390625 743.929688 721.390625 760.53125 C 721.390625 769.921875 724.445312 778.574219 729.769531 784.34375 Z M 756.394531 786.292969 L 729.347656 786.292969 C 729.085938 786.292969 728.828125 786.179688 728.648438 785.992188 C 722.796875 779.859375 719.445312 770.585938 719.445312 760.53125 C 719.445312 742.855469 729.957031 728.472656 742.867188 728.472656 C 755.792969 728.472656 766.300781 742.855469 766.300781 760.53125 C 766.300781 770.585938 762.949219 779.863281 757.101562 785.992188 C 756.917969 786.179688 756.664062 786.292969 756.394531 786.292969 "/><path style=" stroke:none;fill-rule:nonzero;fill:#000000;fill-opacity:1;" d="M 615.15625 808.941406 C 606.855469 808.941406 599.347656 803.214844 597.4375 794.796875 L 578.039062 709.136719 C 577.917969 708.609375 578.25 708.089844 578.773438 707.96875 C 579.296875 707.855469 579.820312 708.179688 579.9375 708.707031 L 599.339844 794.367188 C 601.316406 803.082031 610.015625 808.5625 618.730469 806.59375 C 622.957031 805.636719 626.554688 803.09375 628.867188 799.4375 C 631.179688 795.777344 631.925781 791.433594 630.972656 787.214844 L 614.476562 714.40625 C 614.355469 713.878906 614.6875 713.359375 615.214844 713.238281 C 615.730469 713.121094 616.257812 713.453125 616.378906 713.972656 L 632.863281 786.785156 C 633.941406 791.515625 633.101562 796.375 630.511719 800.476562 C 627.929688 804.574219 623.894531 807.417969 619.164062 808.488281 C 617.820312 808.792969 616.476562 808.941406 615.15625 808.941406 "/><path style=" stroke:none;fill-rule:nonzero;fill:#000000;fill-opacity:1;" d="M 651.101562 808.941406 C 649.78125 808.941406 648.4375 808.796875 647.097656 808.488281 C 642.363281 807.417969 638.332031 804.574219 635.746094 800.476562 C 633.15625 796.375 632.320312 791.515625 633.390625 786.785156 L 649.882812 713.976562 C 650 713.453125 650.523438 713.121094 651.046875 713.242188 C 651.566406 713.359375 651.898438 713.882812 651.78125 714.40625 L 635.289062 787.214844 C 634.332031 791.433594 635.078125 795.777344 637.390625 799.4375 C 639.703125 803.09375 643.296875 805.636719 647.523438 806.59375 C 656.25 808.5625 664.945312 803.082031 666.917969 794.367188 L 686.320312 708.707031 C 686.4375 708.179688 686.960938 707.851562 687.488281 707.96875 C 688.011719 708.089844 688.339844 708.609375 688.21875 709.136719 L 668.816406 794.796875 C 666.90625 803.214844 659.398438 808.941406 651.101562 808.941406 "/><path style=" stroke:none;fill-rule:nonzero;fill:#000000;fill-opacity:1;" d="M 605.667969 667.757812 C 605.519531 667.757812 605.371094 667.726562 605.226562 667.65625 C 588.695312 659.355469 578.824219 644.769531 578.824219 628.648438 C 578.824219 603.578125 603.191406 583.183594 633.144531 583.183594 C 663.105469 583.183594 687.476562 603.578125 687.476562 628.648438 C 687.476562 643.253906 679.003906 657.066406 664.816406 665.59375 C 664.351562 665.871094 663.761719 665.722656 663.484375 665.261719 C 663.203125 664.804688 663.355469 664.203125 663.8125 663.929688 C 677.410156 655.753906 685.53125 642.566406 685.53125 628.648438 C 685.53125 604.652344 662.03125 585.132812 633.144531 585.132812 C 604.265625 585.132812 580.765625 604.652344 580.765625 628.648438 C 580.765625 644.019531 590.238281 657.953125 606.101562 665.917969 C 606.578125 666.160156 606.773438 666.742188 606.535156 667.222656 C 606.363281 667.5625 606.019531 667.757812 605.667969 667.757812 "/><path style=" stroke:none;fill-rule:nonzero;fill:#fda4ff;fill-opacity:1;" d="M 674.335938 613.1875 C 684.023438 613.1875 691.875 605.34375 691.875 595.664062 C 691.875 585.980469 684.023438 578.132812 674.335938 578.132812 C 664.644531 578.132812 656.789062 585.980469 656.789062 595.664062 L 674.335938 613.1875 "/><path style=" stroke:none;fill-rule:nonzero;fill:#000000;fill-opacity:1;" d="M 674.335938 614.164062 C 673.792969 614.164062 673.359375 613.726562 673.359375 613.1875 C 673.359375 612.652344 673.792969 612.21875 674.335938 612.21875 C 683.46875 612.21875 690.902344 604.789062 690.902344 595.664062 C 690.902344 586.535156 683.46875 579.105469 674.335938 579.105469 C 665.195312 579.105469 657.765625 586.535156 657.765625 595.664062 C 657.765625 596.199219 657.328125 596.632812 656.789062 596.632812 C 656.253906 596.632812 655.816406 596.199219 655.816406 595.664062 C 655.816406 585.460938 664.121094 577.164062 674.335938 577.164062 C 684.542969 577.164062 692.847656 585.460938 692.847656 595.664062 C 692.847656 605.863281 684.542969 614.164062 674.335938 614.164062 "/><path style=" stroke:none;fill-rule:nonzero;fill:#fda4ff;fill-opacity:1;" d="M 590.324219 613.191406 C 580.636719 613.191406 572.78125 605.34375 572.78125 595.664062 C 572.78125 585.980469 580.636719 578.132812 590.324219 578.132812 C 600.019531 578.132812 607.867188 585.980469 607.867188 595.664062 L 590.324219 613.191406 "/><path style=" stroke:none;fill-rule:nonzero;fill:#000000;fill-opacity:1;" d="M 590.328125 614.164062 C 580.113281 614.164062 571.808594 605.863281 571.808594 595.664062 C 571.808594 585.460938 580.113281 577.164062 590.328125 577.164062 C 600.539062 577.164062 608.839844 585.460938 608.839844 595.664062 C 608.839844 596.199219 608.410156 596.632812 607.867188 596.632812 C 607.332031 596.632812 606.898438 596.199219 606.898438 595.664062 C 606.898438 586.535156 599.464844 579.109375 590.328125 579.109375 C 581.1875 579.109375 573.75 586.535156 573.75 595.664062 C 573.75 604.789062 581.1875 612.21875 590.328125 612.21875 C 590.859375 612.21875 591.300781 612.65625 591.300781 613.191406 C 591.300781 613.730469 590.859375 614.164062 590.328125 614.164062 "/><path style=" stroke:none;fill-rule:nonzero;fill:#000000;fill-opacity:1;" d="M 118.007812 173.328125 L 292.101562 173.328125 L 375.699219 173.3125 L 331.949219 136.832031 C 331.730469 136.652344 331.601562 136.371094 331.601562 136.089844 L 331.53125 34.140625 L 118.007812 34.140625 Z M 292.101562 175.277344 L 117.035156 175.277344 C 116.5 175.277344 116.0625 174.839844 116.0625 174.300781 L 116.0625 33.164062 C 116.0625 32.628906 116.5 32.191406 117.035156 32.191406 L 332.503906 32.191406 C 333.039062 32.191406 333.476562 32.628906 333.476562 33.164062 L 333.546875 135.628906 L 379.007812 173.535156 C 379.324219 173.800781 379.441406 174.230469 379.300781 174.617188 C 379.164062 174.996094 378.796875 175.257812 378.386719 175.257812 L 292.101562 175.277344 "/><path style=" stroke:none;fill-rule:nonzero;fill:#fed101;fill-opacity:1;" d="M 218.316406 152.742188 C 217.816406 152.742188 217.390625 152.363281 217.34375 151.859375 L 204.292969 5.347656 C 204.242188 4.808594 204.636719 4.335938 205.171875 4.289062 C 205.707031 4.242188 206.183594 4.640625 206.230469 5.171875 L 219.285156 151.683594 C 219.332031 152.222656 218.9375 152.695312 218.402344 152.742188 C 218.371094 152.742188 218.34375 152.742188 218.316406 152.742188 "/><path style=" stroke:none;fill-rule:nonzero;fill:#fed101;fill-opacity:1;" d="M 138.730469 107.605469 C 138.207031 107.605469 137.777344 107.199219 137.757812 106.671875 C 137.738281 106.136719 138.160156 105.679688 138.695312 105.664062 L 320.238281 99.214844 C 320.796875 99.199219 321.230469 99.621094 321.246094 100.15625 C 321.261719 100.691406 320.84375 101.140625 320.308594 101.160156 L 138.765625 107.605469 C 138.753906 107.605469 138.742188 107.605469 138.730469 107.605469 "/><path style=" stroke:none;fill-rule:nonzero;fill:#fed101;fill-opacity:1;" d="M 126.683594 143.289062 C 126.296875 143.289062 125.933594 143.054688 125.78125 142.671875 C 125.582031 142.175781 125.824219 141.609375 126.320312 141.414062 L 323.785156 62.429688 C 324.285156 62.230469 324.851562 62.472656 325.046875 62.972656 C 325.25 63.472656 325.003906 64.039062 324.507812 64.234375 L 127.046875 143.21875 C 126.929688 143.261719 126.804688 143.289062 126.683594 143.289062 "/><path style=" stroke:none;fill-rule:nonzero;fill:#fed101;fill-opacity:1;" d="M 244.773438 143.929688 C 244.453125 143.929688 244.136719 143.769531 243.953125 143.480469 L 164.902344 19.046875 C 164.613281 18.589844 164.75 17.992188 165.203125 17.703125 C 165.65625 17.414062 166.257812 17.546875 166.546875 18.003906 L 245.597656 142.4375 C 245.882812 142.886719 245.75 143.492188 245.296875 143.78125 C 245.132812 143.882812 244.953125 143.929688 244.773438 143.929688 "/><path style=" stroke:none;fill-rule:nonzero;fill:#fed101;fill-opacity:1;" d="M 214.691406 146.207031 C 214.648438 146.207031 214.605469 146.207031 214.5625 146.203125 C 214.027344 146.132812 213.65625 145.640625 213.726562 145.109375 L 233.140625 1.234375 C 233.214844 0.707031 233.710938 0.332031 234.238281 0.402344 C 234.769531 0.480469 235.144531 0.964844 235.070312 1.5 L 215.65625 145.371094 C 215.589844 145.855469 215.171875 146.207031 214.691406 146.207031 "/><path style=" stroke:none;fill-rule:nonzero;fill:#fed101;fill-opacity:1;" d="M 311.242188 122.222656 C 311.171875 122.222656 311.105469 122.21875 311.035156 122.203125 L 125.191406 82.230469 C 124.664062 82.121094 124.332031 81.597656 124.441406 81.074219 C 124.554688 80.546875 125.074219 80.214844 125.597656 80.328125 L 311.445312 120.304688 C 311.972656 120.414062 312.300781 120.933594 312.191406 121.460938 C 312.09375 121.910156 311.6875 122.222656 311.242188 122.222656 "/><path style=" stroke:none;fill-rule:nonzero;fill:#fed101;fill-opacity:1;" d="M 206.375 142.003906 C 206.253906 142.003906 206.128906 141.980469 206.007812 141.929688 C 205.511719 141.722656 205.273438 141.15625 205.476562 140.65625 L 252.261719 26.867188 C 252.464844 26.371094 253.035156 26.128906 253.53125 26.335938 C 254.027344 26.539062 254.265625 27.105469 254.058594 27.601562 L 207.277344 141.398438 C 207.121094 141.773438 206.761719 142.003906 206.375 142.003906 "/><path style=" stroke:none;fill-rule:nonzero;fill:#fed101;fill-opacity:1;" d="M 318.121094 145.003906 C 317.984375 145.003906 317.847656 144.976562 317.71875 144.914062 L 123.699219 55.945312 C 123.210938 55.714844 122.996094 55.140625 123.21875 54.652344 C 123.441406 54.164062 124.019531 53.949219 124.507812 54.171875 L 318.53125 143.148438 C 319.019531 143.371094 319.230469 143.945312 319.011719 144.4375 C 318.847656 144.792969 318.492188 145.003906 318.121094 145.003906 "/><path style=" stroke:none;fill-rule:nonzero;fill:#fed101;fill-opacity:1;" d="M 203.792969 139.746094 C 203.605469 139.746094 203.410156 139.6875 203.242188 139.574219 C 202.800781 139.265625 202.691406 138.65625 202.996094 138.21875 L 285.054688 19.265625 C 285.363281 18.820312 285.96875 18.710938 286.410156 19.015625 C 286.851562 19.320312 286.964844 19.925781 286.65625 20.367188 L 204.597656 139.324219 C 204.410156 139.59375 204.105469 139.746094 203.792969 139.746094 "/><path style=" stroke:none;fill-rule:nonzero;fill:#fed101;fill-opacity:1;" d="M 189.921875 129.105469 C 189.617188 129.105469 189.316406 128.960938 189.128906 128.695312 C 188.816406 128.253906 188.921875 127.644531 189.363281 127.335938 L 331.003906 27.402344 C 331.441406 27.09375 332.050781 27.195312 332.363281 27.636719 C 332.671875 28.074219 332.5625 28.6875 332.128906 28.996094 L 190.484375 128.929688 C 190.3125 129.046875 190.117188 129.105469 189.921875 129.105469 "/><path style=" stroke:none;fill-rule:nonzero;fill:#fed101;fill-opacity:1;" d="M 255.097656 131.035156 C 254.878906 131.035156 254.664062 130.96875 254.484375 130.820312 L 125.421875 25.730469 C 125.007812 25.394531 124.945312 24.773438 125.28125 24.363281 C 125.625 23.945312 126.234375 23.882812 126.652344 24.222656 L 255.710938 129.3125 C 256.128906 129.652344 256.191406 130.265625 255.851562 130.683594 C 255.660156 130.917969 255.378906 131.035156 255.097656 131.035156 "/><path style=" stroke:none;fill-rule:nonzero;fill:#fed101;fill-opacity:1;" d="M 226.410156 206.132812 L 214.691406 206.132812 L 214.691406 145.238281 L 226.410156 145.238281 L 226.410156 206.132812 "/><path style=" stroke:none;fill-rule:nonzero;fill:#000000;fill-opacity:1;" d="M 226.410156 206.132812 L 220.550781 206.132812 L 220.550781 145.238281 L 226.410156 145.238281 L 226.410156 206.132812 "/><path style=" stroke:none;fill-rule:nonzero;fill:#fed101;fill-opacity:1;" d="M 256.445312 220.972656 L 184.65625 220.972656 C 189.9375 211.757812 199.394531 206.132812 209.589844 206.132812 L 231.515625 206.132812 C 241.710938 206.132812 251.164062 211.757812 256.445312 220.972656 "/><path style=" stroke:none;fill-rule:nonzero;fill:#000000;fill-opacity:1;" d="M 215.664062 205.160156 L 225.4375 205.160156 L 225.4375 146.210938 L 215.664062 146.210938 Z M 226.410156 207.109375 L 214.691406 207.109375 C 214.152344 207.109375 213.71875 206.667969 213.71875 206.132812 L 213.71875 145.238281 C 213.71875 144.703125 214.152344 144.265625 214.691406 144.265625 L 226.410156 144.265625 C 226.949219 144.265625 227.382812 144.703125 227.382812 145.238281 L 227.382812 206.132812 C 227.382812 206.667969 226.949219 207.109375 226.410156 207.109375 "/><path style=" stroke:none;fill-rule:nonzero;fill:#000000;fill-opacity:1;" d="M 186.394531 219.996094 L 254.710938 219.996094 C 249.488281 212.003906 240.746094 207.105469 231.515625 207.105469 L 209.589844 207.105469 C 200.355469 207.105469 191.613281 212.003906 186.394531 219.996094 Z M 256.445312 221.941406 L 184.65625 221.941406 C 184.308594 221.941406 183.988281 221.757812 183.816406 221.457031 C 183.640625 221.160156 183.640625 220.789062 183.8125 220.484375 C 189.234375 211.035156 199.109375 205.15625 209.589844 205.15625 L 231.515625 205.15625 C 241.992188 205.15625 251.867188 211.035156 257.289062 220.484375 C 257.460938 220.789062 257.460938 221.160156 257.289062 221.457031 C 257.113281 221.757812 256.792969 221.941406 256.445312 221.941406 "/><path style=" stroke:none;fill-rule:nonzero;fill:#fed101;fill-opacity:1;" d="M 233.929688 206.246094 L 207.171875 206.246094 L 207.171875 205.425781 C 207.171875 201.777344 210.132812 198.8125 213.789062 198.8125 L 227.316406 198.8125 C 230.96875 198.8125 233.929688 201.777344 233.929688 205.425781 L 233.929688 206.246094 "/><path style=" stroke:none;fill-rule:nonzero;fill:#000000;fill-opacity:1;" d="M 208.148438 205.273438 L 232.953125 205.273438 C 232.871094 202.230469 230.375 199.789062 227.316406 199.789062 L 213.789062 199.789062 C 210.726562 199.789062 208.230469 202.230469 208.148438 205.273438 Z M 233.929688 207.21875 L 207.175781 207.21875 C 206.636719 207.21875 206.199219 206.785156 206.199219 206.246094 L 206.199219 205.429688 C 206.199219 201.246094 209.605469 197.839844 213.789062 197.839844 L 227.316406 197.839844 C 231.5 197.839844 234.902344 201.246094 234.902344 205.429688 L 234.902344 206.246094 C 234.902344 206.785156 234.464844 207.21875 233.929688 207.21875 "/><path style=" stroke:none;fill-rule:nonzero;fill:#fed101;fill-opacity:1;" d="M 226.042969 156.738281 L 215.058594 156.738281 C 211.328125 156.738281 208.304688 153.714844 208.304688 149.984375 L 208.304688 145.238281 L 232.796875 145.238281 L 232.796875 149.984375 C 232.796875 153.714844 229.773438 156.738281 226.042969 156.738281 "/><path style=" stroke:none;fill-rule:nonzero;fill:#000000;fill-opacity:1;" d="M 209.277344 146.210938 L 209.277344 149.988281 C 209.277344 153.171875 211.871094 155.765625 215.058594 155.765625 L 226.042969 155.765625 C 229.230469 155.765625 231.824219 153.171875 231.824219 149.988281 L 231.824219 146.210938 Z M 226.042969 157.710938 L 215.058594 157.710938 C 210.796875 157.710938 207.332031 154.242188 207.332031 149.988281 L 207.332031 145.238281 C 207.332031 144.703125 207.769531 144.265625 208.304688 144.265625 L 232.796875 144.265625 C 233.335938 144.265625 233.769531 144.703125 233.769531 145.238281 L 233.769531 149.988281 C 233.769531 154.242188 230.304688 157.710938 226.042969 157.710938 "/><path style=" stroke:none;fill-rule:nonzero;fill:#fed101;fill-opacity:1;" d="M 226.039062 151.675781 L 215.0625 151.675781 C 200.003906 151.675781 187.300781 140.472656 185.433594 125.542969 L 179.707031 79.769531 L 261.394531 79.769531 L 255.667969 125.542969 C 253.800781 140.472656 241.097656 151.675781 226.039062 151.675781 "/><path style=" stroke:none;fill-rule:nonzero;fill:#000000;fill-opacity:1;" d="M 231.515625 206.132812 L 218.023438 206.132812 C 228.21875 206.132812 237.675781 211.757812 242.957031 220.972656 L 256.445312 220.972656 C 251.164062 211.757812 241.710938 206.132812 231.515625 206.132812 "/><path style=" stroke:none;fill-rule:nonzero;fill:#000000;fill-opacity:1;" d="M 180.808594 80.742188 L 186.398438 125.425781 C 188.199219 139.835938 200.523438 150.707031 215.0625 150.707031 L 226.039062 150.707031 C 240.578125 150.707031 252.902344 139.835938 254.703125 125.425781 L 260.292969 80.742188 Z M 226.039062 152.652344 L 215.0625 152.652344 C 199.542969 152.652344 186.390625 141.046875 184.46875 125.660156 L 178.742188 79.890625 C 178.707031 79.613281 178.792969 79.335938 178.976562 79.125 C 179.164062 78.914062 179.429688 78.796875 179.707031 78.796875 L 261.394531 78.796875 C 261.675781 78.796875 261.9375 78.914062 262.121094 79.125 C 262.308594 79.335938 262.394531 79.613281 262.359375 79.890625 L 256.632812 125.660156 C 254.710938 141.046875 241.558594 152.652344 226.039062 152.652344 "/><path style=" stroke:none;fill-rule:nonzero;fill:#000000;fill-opacity:1;" d="M 247.902344 79.769531 L 242.175781 125.542969 C 240.363281 140.058594 228.308594 151.046875 213.804688 151.648438 C 214.222656 151.664062 214.640625 151.675781 215.0625 151.675781 L 226.039062 151.675781 C 241.097656 151.675781 253.800781 140.472656 255.667969 125.542969 L 261.394531 79.769531 L 247.902344 79.769531 "/><path style=" stroke:none;fill-rule:nonzero;fill:#000000;fill-opacity:1;" d="M 261.9375 80.652344 L 179.078125 80.652344 C 176.074219 80.652344 173.644531 78.21875 173.644531 75.226562 L 173.644531 70.933594 L 267.371094 70.933594 L 267.371094 75.226562 C 267.371094 78.21875 264.9375 80.652344 261.9375 80.652344 "/><path style=" stroke:none;fill-rule:nonzero;fill:#ffffff;fill-opacity:1;" d="M 216.25 129.515625 C 215.175781 129.515625 214.304688 128.640625 214.304688 127.566406 L 214.304688 96.113281 L 208.167969 102.117188 C 207.398438 102.867188 206.167969 102.851562 205.414062 102.085938 C 204.664062 101.3125 204.675781 100.082031 205.445312 99.332031 L 214.894531 90.097656 C 215.453125 89.550781 216.285156 89.390625 217.007812 89.691406 C 217.726562 89.996094 218.199219 90.703125 218.199219 91.488281 L 218.195312 127.566406 C 218.195312 128.640625 217.324219 129.515625 216.25 129.515625 "/><path style=" stroke:none;fill-rule:nonzero;fill:#4ada85;fill-opacity:1;" d="M 132.71875 240.304688 C 132.71875 213.90625 111.351562 192.511719 84.988281 192.511719 C 58.992188 192.511719 38.003906 212.914062 37.28125 238.9375 C 36.84375 254.515625 43.859375 268.464844 55.019531 277.492188 C 60.710938 282.09375 63.882812 289.132812 63.882812 296.457031 C 63.882812 308.128906 73.332031 317.59375 84.988281 317.59375 C 96.648438 317.59375 106.097656 308.128906 106.097656 296.457031 C 106.097656 289.011719 109.476562 281.988281 115.230469 277.269531 C 125.90625 268.507812 132.71875 255.203125 132.71875 240.304688 "/><path style=" stroke:none;fill-rule:nonzero;fill:#ffffff;fill-opacity:1;" d="M 85 331.246094 L 84.980469 331.246094 C 72.472656 331.246094 62.335938 321.109375 62.335938 308.601562 L 62.335938 297.296875 L 107.648438 297.296875 L 107.648438 308.601562 C 107.648438 321.109375 97.507812 331.246094 85 331.246094 "/><path style=" stroke:none;fill-rule:nonzero;fill:#000000;fill-opacity:1;" d="M 63.308594 298.273438 L 63.308594 308.601562 C 63.308594 320.554688 73.03125 330.273438 84.980469 330.273438 L 85 330.273438 C 96.949219 330.273438 106.671875 320.554688 106.671875 308.601562 L 106.671875 298.273438 Z M 85 332.222656 L 84.980469 332.222656 C 71.957031 332.222656 61.363281 321.628906 61.363281 308.601562 L 61.363281 297.296875 C 61.363281 296.761719 61.796875 296.324219 62.335938 296.324219 L 107.648438 296.324219 C 108.183594 296.324219 108.617188 296.761719 108.617188 297.296875 L 108.617188 308.601562 C 108.617188 321.628906 98.023438 332.222656 85 332.222656 "/><path style=" stroke:none;fill-rule:nonzero;fill:#000000;fill-opacity:1;" d="M 75.761719 296.324219 L 95.175781 296.324219 L 102.765625 241.871094 L 98.910156 242.605469 C 98.714844 242.640625 98.507812 242.621094 98.328125 242.535156 L 94.375 240.738281 L 90.105469 242.542969 C 89.867188 242.652344 89.59375 242.652344 89.351562 242.550781 L 84.96875 240.71875 L 79.933594 242.566406 C 79.71875 242.644531 79.480469 242.640625 79.261719 242.5625 L 74.3125 240.71875 L 69.839844 242.550781 C 69.65625 242.628906 69.453125 242.644531 69.257812 242.597656 L 66.285156 241.929688 Z M 96.023438 298.273438 L 74.945312 298.273438 C 74.472656 298.273438 74.066406 297.933594 73.988281 297.464844 L 64.117188 240.832031 C 64.0625 240.507812 64.167969 240.179688 64.40625 239.960938 C 64.640625 239.734375 64.972656 239.640625 65.289062 239.710938 L 69.386719 240.636719 L 73.925781 238.777344 C 74.152344 238.683594 74.402344 238.679688 74.632812 238.761719 L 79.601562 240.613281 L 84.65625 238.761719 C 84.886719 238.679688 85.140625 238.683594 85.363281 238.777344 L 89.722656 240.59375 L 94.007812 238.78125 C 94.261719 238.675781 94.542969 238.679688 94.792969 238.789062 L 98.851562 240.636719 L 103.734375 239.707031 C 104.042969 239.652344 104.363281 239.742188 104.589844 239.960938 C 104.816406 240.171875 104.925781 240.484375 104.882812 240.800781 L 96.988281 297.433594 C 96.917969 297.914062 96.507812 298.273438 96.023438 298.273438 "/><path style=" stroke:none;fill-rule:nonzero;fill:#000000;fill-opacity:1;" d="M 121.636719 186.011719 C 121.453125 186.011719 121.265625 185.957031 121.101562 185.851562 C 120.652344 185.554688 120.53125 184.949219 120.828125 184.5 L 134.75 163.476562 C 135.046875 163.027344 135.652344 162.90625 136.101562 163.203125 C 136.546875 163.5 136.667969 164.105469 136.375 164.554688 L 122.449219 185.578125 C 122.261719 185.855469 121.953125 186.011719 121.636719 186.011719 "/><path style=" stroke:none;fill-rule:nonzero;fill:#000000;fill-opacity:1;" d="M 48.761719 186.011719 C 48.445312 186.011719 48.136719 185.855469 47.953125 185.578125 L 34.027344 164.554688 C 33.730469 164.105469 33.855469 163.5 34.300781 163.203125 C 34.75 162.90625 35.355469 163.027344 35.652344 163.476562 L 49.574219 184.5 C 49.871094 184.949219 49.75 185.554688 49.300781 185.851562 C 49.132812 185.957031 48.949219 186.011719 48.761719 186.011719 "/><path style=" stroke:none;fill-rule:nonzero;fill:#000000;fill-opacity:1;" d="M 84.496094 181.039062 C 83.960938 181.039062 83.523438 180.605469 83.523438 180.070312 L 83.523438 149.351562 C 83.523438 148.816406 83.960938 148.378906 84.496094 148.378906 C 85.035156 148.378906 85.46875 148.816406 85.46875 149.351562 L 85.46875 180.070312 C 85.46875 180.605469 85.035156 181.039062 84.496094 181.039062 "/></g></svg>