<svg xmlns="http://www.w3.org/2000/svg" xmlns:xlink="http://www.w3.org/1999/xlink" width="1080" zoomAndPan="magnify" viewBox="0 0 810 809.999993" height="1080" preserveAspectRatio="xMidYMid meet" version="1.2"><g id="58c3a493f0"><path style=" stroke:none;fill-rule:nonzero;fill:#f8af23;fill-opacity:1;" d="M 113.070312 4.804688 L 292.5625 4.804688 L 292.5625 184.292969 L 113.070312 184.292969 Z M 113.070312 4.804688 "/><path style=" stroke:none;fill-rule:nonzero;fill:#f87023;fill-opacity:1;" d="M 113.070312 4.804688 L 160.558594 4.804688 L 160.558594 184.292969 L 113.070312 184.292969 Z M 113.070312 4.804688 "/><path style=" stroke:none;fill-rule:nonzero;fill:#f8af23;fill-opacity:1;" d="M 517.628906 588.855469 L 697.121094 588.855469 L 697.121094 768.34375 L 517.628906 768.34375 Z M 517.628906 588.855469 "/><path style=" stroke:none;fill-rule:nonzero;fill:#f8d323;fill-opacity:1;" d="M 649.628906 588.855469 L 697.121094 588.855469 L 697.121094 768.34375 L 649.628906 768.34375 Z M 649.628906 588.855469 "/><path style=" stroke:none;fill-rule:nonzero;fill:#63bce7;fill-opacity:1;" d="M 405.09375 4.804688 L 584.582031 4.804688 L 584.582031 184.292969 L 405.09375 184.292969 Z M 405.09375 4.804688 "/><path style=" stroke:none;fill-rule:nonzero;fill:#63e2e7;fill-opacity:1;" d="M 537.089844 4.804688 L 584.582031 4.804688 L 584.582031 184.292969 L 537.089844 184.292969 Z M 537.089844 4.804688 "/><path style=" stroke:none;fill-rule:nonzero;fill:#63bce7;fill-opacity:1;" d="M 225.605469 588.855469 L 405.09375 588.855469 L 405.09375 768.34375 L 225.605469 768.34375 Z M 225.605469 588.855469 "/><path style=" stroke:none;fill-rule:nonzero;fill:#6377e7;fill-opacity:1;" d="M 225.605469 588.855469 L 273.09375 588.855469 L 273.09375 768.34375 L 225.605469 768.34375 Z M 225.605469 588.855469 "/><path style=" stroke:none;fill-rule:nonzero;fill:#cecece;fill-opacity:1;" d="M 514.074219 426.253906 C 512.9375 429.441406 511.640625 432.503906 510.230469 435.542969 L 538.785156 464.101562 L 482.644531 520.253906 L 454.085938 491.695312 C 451.050781 493.109375 447.957031 494.398438 444.796875 495.542969 L 444.796875 535.941406 L 365.402344 535.941406 L 365.402344 495.542969 C 362.234375 494.402344 359.148438 493.109375 356.113281 491.695312 L 327.554688 520.253906 L 271.402344 464.101562 L 299.957031 435.542969 C 298.546875 432.503906 297.253906 429.441406 296.113281 426.253906 L 255.710938 426.253906 L 255.710938 346.867188 L 296.113281 346.867188 C 297.253906 343.699219 298.546875 340.613281 299.957031 337.578125 L 271.402344 309.019531 L 327.554688 252.871094 L 356.113281 281.457031 C 359.148438 280.042969 362.246094 278.722656 365.402344 277.578125 L 365.402344 237.207031 L 444.789062 237.207031 L 444.789062 277.578125 C 447.957031 278.722656 451.042969 280.042969 454.078125 281.457031 L 482.632812 252.867188 L 538.785156 309.019531 L 510.230469 337.574219 C 511.640625 340.613281 512.9375 343.707031 514.074219 346.863281 L 554.445312 346.863281 L 554.445312 426.25 L 514.074219 426.25 Z M 514.074219 426.253906 "/><path style=" stroke:none;fill-rule:nonzero;fill:#67beeb;fill-opacity:1;" d="M 455.648438 386.566406 C 455.648438 388.21875 455.566406 389.871094 455.40625 391.519531 C 455.242188 393.167969 455 394.804688 454.675781 396.425781 C 454.355469 398.050781 453.953125 399.65625 453.472656 401.238281 C 452.992188 402.824219 452.433594 404.382812 451.800781 405.910156 C 451.167969 407.441406 450.460938 408.933594 449.679688 410.394531 C 448.898438 411.855469 448.046875 413.273438 447.128906 414.652344 C 446.207031 416.027344 445.222656 417.355469 444.171875 418.636719 C 443.121094 419.914062 442.011719 421.140625 440.839844 422.3125 C 439.671875 423.480469 438.445312 424.59375 437.164062 425.644531 C 435.886719 426.695312 434.558594 427.679688 433.179688 428.597656 C 431.804688 429.519531 430.386719 430.367188 428.925781 431.148438 C 427.464844 431.929688 425.96875 432.636719 424.441406 433.269531 C 422.910156 433.902344 421.355469 434.460938 419.769531 434.941406 C 418.183594 435.421875 416.582031 435.824219 414.957031 436.148438 C 413.332031 436.46875 411.699219 436.710938 410.050781 436.875 C 408.402344 437.035156 406.75 437.117188 405.09375 437.117188 C 403.4375 437.117188 401.789062 437.035156 400.140625 436.875 C 398.492188 436.710938 396.855469 436.46875 395.234375 436.148438 C 393.609375 435.824219 392.003906 435.421875 390.421875 434.941406 C 388.835938 434.460938 387.277344 433.902344 385.75 433.269531 C 384.21875 432.636719 382.722656 431.929688 381.265625 431.148438 C 379.804688 430.367188 378.386719 429.519531 377.007812 428.597656 C 375.632812 427.679688 374.304688 426.695312 373.023438 425.644531 C 371.746094 424.59375 370.519531 423.480469 369.347656 422.3125 C 368.175781 421.140625 367.066406 419.914062 366.015625 418.636719 C 364.964844 417.355469 363.980469 416.027344 363.0625 414.652344 C 362.140625 413.273438 361.292969 411.855469 360.511719 410.394531 C 359.730469 408.933594 359.023438 407.441406 358.390625 405.910156 C 357.757812 404.382812 357.199219 402.824219 356.71875 401.238281 C 356.238281 399.65625 355.835938 398.050781 355.511719 396.425781 C 355.191406 394.804688 354.949219 393.167969 354.785156 391.519531 C 354.621094 389.871094 354.542969 388.21875 354.542969 386.566406 C 354.542969 384.910156 354.621094 383.257812 354.785156 381.609375 C 354.949219 379.960938 355.191406 378.328125 355.511719 376.703125 C 355.835938 375.078125 356.238281 373.472656 356.71875 371.890625 C 357.199219 370.304688 357.757812 368.75 358.390625 367.21875 C 359.023438 365.6875 359.730469 364.195312 360.511719 362.734375 C 361.292969 361.273438 362.140625 359.855469 363.0625 358.480469 C 363.980469 357.101562 364.964844 355.773438 366.015625 354.492188 C 367.066406 353.214844 368.175781 351.988281 369.347656 350.816406 C 370.519531 349.648438 371.746094 348.535156 373.023438 347.488281 C 374.304688 346.4375 375.632812 345.449219 377.007812 344.53125 C 378.386719 343.613281 379.804688 342.761719 381.265625 341.980469 C 382.722656 341.199219 384.21875 340.492188 385.75 339.859375 C 387.277344 339.226562 388.835938 338.667969 390.421875 338.1875 C 392.003906 337.707031 393.609375 337.304688 395.234375 336.984375 C 396.855469 336.660156 398.492188 336.417969 400.140625 336.253906 C 401.789062 336.09375 403.4375 336.011719 405.09375 336.011719 C 406.75 336.011719 408.402344 336.09375 410.050781 336.253906 C 411.699219 336.417969 413.332031 336.660156 414.957031 336.984375 C 416.582031 337.304688 418.183594 337.707031 419.769531 338.1875 C 421.355469 338.667969 422.910156 339.226562 424.441406 339.859375 C 425.96875 340.492188 427.464844 341.199219 428.925781 341.980469 C 430.386719 342.761719 431.804688 343.613281 433.179688 344.53125 C 434.558594 345.449219 435.886719 346.4375 437.164062 347.488281 C 438.445312 348.535156 439.671875 349.648438 440.839844 350.816406 C 442.011719 351.988281 443.121094 353.214844 444.171875 354.492188 C 445.222656 355.773438 446.207031 357.101562 447.128906 358.480469 C 448.046875 359.855469 448.898438 361.273438 449.679688 362.734375 C 450.460938 364.195312 451.167969 365.6875 451.800781 367.21875 C 452.433594 368.75 452.992188 370.304688 453.472656 371.890625 C 453.953125 373.472656 454.355469 375.078125 454.675781 376.703125 C 455 378.328125 455.242188 379.960938 455.40625 381.609375 C 455.566406 383.257812 455.648438 384.910156 455.648438 386.566406 Z M 455.648438 386.566406 "/><path style=" stroke:none;fill-rule:nonzero;fill:#3f3679;fill-opacity:1;" d="M 65.527344 800.605469 L 4.804688 800.605469 C 2.183594 800.605469 0.0585938 802.730469 0.0585938 805.351562 C 0.0585938 807.976562 2.183594 810.101562 4.804688 810.101562 L 65.527344 810.101562 C 68.148438 810.101562 70.277344 807.976562 70.277344 805.351562 C 70.277344 802.730469 68.152344 800.605469 65.527344 800.605469 Z M 65.527344 800.605469 "/><path style=" stroke:none;fill-rule:nonzero;fill:#3f3679;fill-opacity:1;" d="M 805.351562 800.605469 L 744.632812 800.605469 C 742.007812 800.605469 739.882812 802.730469 739.882812 805.351562 C 739.882812 807.976562 742.007812 810.101562 744.632812 810.101562 L 805.351562 810.101562 C 807.976562 810.101562 810.101562 807.976562 810.101562 805.351562 C 810.101562 802.730469 807.976562 800.605469 805.351562 800.605469 Z M 805.351562 800.605469 "/><path style=" stroke:none;fill-rule:nonzero;fill:#3f3679;fill-opacity:1;" d="M 710.238281 800.605469 L 99.917969 800.605469 C 97.296875 800.605469 95.171875 802.730469 95.171875 805.351562 C 95.171875 807.976562 97.296875 810.101562 99.917969 810.101562 L 710.238281 810.101562 C 712.863281 810.101562 714.988281 807.976562 714.988281 805.351562 C 714.988281 802.730469 712.863281 800.605469 710.238281 800.605469 Z M 710.238281 800.605469 "/><path style=" stroke:none;fill-rule:nonzero;fill:#3f3679;fill-opacity:1;" d="M 4.804688 773.089844 L 805.351562 773.089844 C 807.976562 773.089844 810.101562 770.964844 810.101562 768.34375 C 810.101562 765.722656 807.976562 763.59375 805.351562 763.59375 L 701.867188 763.59375 L 701.867188 588.855469 C 701.867188 586.230469 699.742188 584.105469 697.121094 584.105469 L 517.628906 584.105469 C 515.007812 584.105469 512.882812 586.230469 512.882812 588.855469 L 512.882812 673.867188 L 409.828125 673.867188 L 409.828125 588.855469 C 409.828125 586.230469 407.699219 584.105469 405.078125 584.105469 L 225.605469 584.105469 C 222.984375 584.105469 220.859375 586.230469 220.859375 588.855469 L 220.859375 763.59375 L 4.804688 763.59375 C 2.183594 763.59375 0.0585938 765.722656 0.0585938 768.34375 C 0.0585938 770.964844 2.183594 773.089844 4.804688 773.089844 Z M 522.378906 593.601562 L 692.371094 593.601562 L 692.371094 763.59375 L 522.378906 763.59375 Z M 512.882812 683.351562 L 512.882812 763.59375 L 409.828125 763.59375 L 409.828125 683.363281 Z M 230.355469 593.601562 L 400.332031 593.601562 L 400.332031 763.59375 L 230.355469 763.59375 Z M 230.355469 593.601562 "/><path style=" stroke:none;fill-rule:nonzero;fill:#3f3679;fill-opacity:1;" d="M 113.070312 189.042969 L 292.558594 189.042969 C 295.179688 189.042969 297.304688 186.914062 297.304688 184.292969 L 297.304688 99.300781 L 400.332031 99.300781 L 400.332031 184.292969 C 400.332031 186.914062 402.457031 189.042969 405.078125 189.042969 L 584.585938 189.042969 C 587.210938 189.042969 589.335938 186.914062 589.335938 184.292969 L 589.335938 99.300781 L 692.375 99.300781 L 692.375 381.824219 L 597.566406 381.824219 L 622.65625 356.734375 C 624.542969 354.914062 624.597656 351.90625 622.773438 350.019531 C 620.953125 348.132812 617.945312 348.082031 616.058594 349.902344 C 616.019531 349.941406 615.980469 349.980469 615.941406 350.019531 L 582.75 383.234375 C 580.898438 385.089844 580.898438 388.09375 582.75 389.949219 L 615.945312 423.125 C 617.765625 425.011719 620.773438 425.0625 622.660156 423.242188 C 624.546875 421.417969 624.597656 418.414062 622.777344 416.527344 C 622.738281 416.488281 622.699219 416.449219 622.660156 416.410156 L 597.570312 391.320312 L 697.117188 391.320312 C 699.742188 391.320312 701.867188 389.191406 701.867188 386.570312 L 701.867188 94.550781 C 701.867188 91.929688 699.742188 89.800781 697.117188 89.800781 L 589.335938 89.800781 L 589.335938 4.804688 C 589.335938 2.183594 587.210938 0.0585938 584.585938 0.0585938 L 405.078125 0.0585938 C 402.457031 0.0585938 400.332031 2.183594 400.332031 4.804688 L 400.332031 89.800781 L 297.304688 89.800781 L 297.304688 4.804688 C 297.304688 2.183594 295.175781 0.0585938 292.554688 0.0585938 L 113.070312 0.0585938 C 110.449219 0.0585938 108.320312 2.183594 108.320312 4.804688 L 108.320312 184.292969 C 108.320312 186.914062 110.449219 189.042969 113.070312 189.042969 Z M 409.828125 9.554688 L 579.835938 9.554688 L 579.835938 179.546875 L 409.828125 179.546875 Z M 117.808594 9.554688 L 287.808594 9.554688 L 287.808594 179.546875 L 117.820312 179.546875 Z M 117.808594 9.554688 "/><path style=" stroke:none;fill-rule:nonzero;fill:#3f3679;fill-opacity:1;" d="M 113.070312 683.363281 L 182.480469 683.363281 L 157.394531 708.449219 C 155.507812 710.273438 155.453125 713.28125 157.277344 715.164062 C 159.101562 717.050781 162.105469 717.105469 163.992188 715.28125 C 164.03125 715.242188 164.070312 715.203125 164.109375 715.164062 L 197.308594 681.96875 C 199.160156 680.113281 199.160156 677.109375 197.308594 675.253906 L 164.109375 642.046875 C 162.222656 640.226562 159.214844 640.277344 157.394531 642.164062 C 155.617188 644.003906 155.617188 646.921875 157.394531 648.761719 L 182.480469 673.855469 L 117.820312 673.855469 L 117.820312 391.324219 L 250.960938 391.324219 L 250.960938 426.25 C 250.960938 428.875 253.089844 431 255.710938 431 L 292.828125 431 C 293.285156 432.152344 293.777344 433.3125 294.28125 434.5 L 268.046875 460.742188 C 266.191406 462.597656 266.191406 465.601562 268.046875 467.457031 L 324.195312 523.605469 C 326.078125 525.390625 329.027344 525.390625 330.910156 523.605469 L 357.152344 497.363281 C 358.320312 497.875 359.488281 498.359375 360.652344 498.816406 L 360.652344 535.941406 C 360.652344 538.5625 362.78125 540.691406 365.402344 540.691406 L 444.785156 540.691406 C 447.40625 540.691406 449.535156 538.5625 449.535156 535.941406 L 449.535156 498.816406 C 450.699219 498.359375 451.859375 497.871094 453.015625 497.363281 L 479.257812 523.605469 C 481.113281 525.460938 484.117188 525.460938 485.972656 523.605469 L 542.144531 467.445312 C 543.996094 465.589844 543.996094 462.585938 542.144531 460.730469 L 515.902344 434.492188 C 516.417969 433.304688 516.90625 432.140625 517.355469 430.992188 L 554.445312 430.992188 C 557.070312 430.992188 559.195312 428.863281 559.195312 426.242188 L 559.195312 346.863281 C 559.195312 344.238281 557.070312 342.113281 554.445312 342.113281 L 517.355469 342.113281 C 516.890625 340.957031 516.402344 339.789062 515.902344 338.632812 L 542.144531 312.390625 C 543.996094 310.535156 543.996094 307.53125 542.144531 305.675781 L 485.988281 249.507812 C 484.105469 247.730469 481.15625 247.730469 479.273438 249.507812 L 453.035156 275.785156 C 451.835938 275.261719 450.671875 274.777344 449.535156 274.316406 L 449.535156 237.210938 C 449.535156 234.589844 447.40625 232.460938 444.785156 232.460938 L 365.398438 232.460938 C 362.777344 232.460938 360.648438 234.589844 360.648438 237.210938 L 360.648438 274.304688 C 359.515625 274.765625 358.347656 275.257812 357.148438 275.773438 L 330.914062 249.496094 C 330.023438 248.605469 328.8125 248.105469 327.554688 248.105469 C 326.292969 248.105469 325.085938 248.605469 324.195312 249.496094 L 268.046875 305.667969 C 266.191406 307.523438 266.191406 310.527344 268.046875 312.382812 L 294.273438 338.621094 C 293.765625 339.785156 293.28125 340.957031 292.820312 342.101562 L 255.710938 342.101562 C 253.089844 342.101562 250.960938 344.230469 250.960938 346.851562 L 250.960938 381.8125 L 113.070312 381.8125 C 110.449219 381.8125 108.320312 383.9375 108.320312 386.5625 L 108.320312 678.613281 C 108.320312 681.238281 110.449219 683.363281 113.070312 683.363281 Z M 260.460938 351.613281 L 296.113281 351.613281 C 298.109375 351.613281 299.898438 350.359375 300.578125 348.480469 C 301.628906 345.566406 302.867188 342.574219 304.261719 339.582031 C 305.105469 337.773438 304.722656 335.628906 303.3125 334.21875 L 278.113281 309.015625 L 327.546875 259.582031 L 352.746094 284.8125 C 354.15625 286.222656 356.296875 286.601562 358.109375 285.761719 C 361.351562 284.253906 364.261719 283.035156 367.015625 282.039062 C 368.894531 281.359375 370.144531 279.574219 370.144531 277.578125 L 370.144531 241.957031 L 440.03125 241.957031 L 440.03125 277.578125 C 440.03125 279.574219 441.285156 281.359375 443.164062 282.039062 C 445.914062 283.035156 448.828125 284.253906 452.074219 285.761719 C 453.882812 286.601562 456.023438 286.222656 457.433594 284.8125 L 482.628906 259.582031 L 532.066406 309.015625 L 506.863281 334.21875 C 505.453125 335.628906 505.074219 337.773438 505.914062 339.582031 C 507.316406 342.589844 508.554688 345.582031 509.601562 348.476562 C 510.28125 350.359375 512.066406 351.609375 514.066406 351.613281 L 549.695312 351.613281 L 549.695312 421.5 L 514.070312 421.5 C 512.0625 421.503906 510.273438 422.773438 509.601562 424.667969 C 508.589844 427.515625 507.386719 430.40625 505.917969 433.550781 C 505.078125 435.359375 505.457031 437.503906 506.871094 438.914062 L 532.070312 464.113281 L 482.644531 513.539062 L 457.445312 488.335938 C 456.03125 486.925781 453.890625 486.546875 452.082031 487.386719 C 449.09375 488.777344 446.101562 490.015625 443.175781 491.078125 C 441.296875 491.757812 440.046875 493.542969 440.046875 495.539062 L 440.046875 531.191406 L 370.148438 531.191406 L 370.148438 495.539062 C 370.148438 493.542969 368.894531 491.757812 367.015625 491.078125 C 364.09375 490.015625 361.101562 488.777344 358.113281 487.386719 C 356.304688 486.542969 354.160156 486.921875 352.75 488.335938 L 327.550781 513.539062 L 278.121094 464.101562 L 303.324219 438.902344 C 304.738281 437.488281 305.117188 435.347656 304.273438 433.539062 C 302.816406 430.40625 301.609375 427.5 300.59375 424.652344 C 299.921875 422.757812 298.132812 421.492188 296.121094 421.488281 L 260.457031 421.488281 L 260.457031 351.613281 Z M 260.460938 351.613281 "/><path style=" stroke:none;fill-rule:nonzero;fill:#3f3679;fill-opacity:1;" d="M 405.078125 441.867188 C 435.621094 441.867188 460.382812 417.105469 460.382812 386.566406 C 460.382812 356.023438 435.621094 331.261719 405.078125 331.261719 C 374.535156 331.261719 349.773438 356.023438 349.773438 386.566406 C 349.8125 417.09375 374.550781 441.832031 405.078125 441.867188 Z M 405.078125 340.761719 C 430.375 340.761719 450.882812 361.269531 450.882812 386.566406 C 450.882812 411.863281 430.375 432.371094 405.078125 432.371094 C 379.78125 432.371094 359.273438 411.863281 359.273438 386.566406 C 359.304688 361.28125 379.792969 340.789062 405.078125 340.761719 Z M 405.078125 340.761719 "/></g></svg>