<svg xmlns="http://www.w3.org/2000/svg" xmlns:xlink="http://www.w3.org/1999/xlink" width="1080" zoomAndPan="magnify" viewBox="0 0 810 809.999993" height="1080" preserveAspectRatio="xMidYMid meet" version="1.2"><defs><clipPath id="48581f6294"><path d="M 0 0 L 804.75 0 L 804.75 810 L 0 810 Z M 0 0 "/></clipPath></defs><g id="843567a9c6"><g clip-rule="nonzero" clip-path="url(#48581f6294)"><path style=" stroke:none;fill-rule:nonzero;fill:#336666;fill-opacity:1;" d="M 365.882812 215.976562 L 483.425781 151.300781 L 483.425781 464.230469 L 365.882812 464.230469 Z M 107.089844 464.25 L 107.089844 121.867188 L 265.457031 30.425781 L 265.457031 464.25 Z M 622.246094 586.570312 L 622.246094 586.761719 L 605.125 586.761719 C 592.609375 587.511719 582.015625 596.066406 578.699219 608.335938 C 574.597656 623.683594 568.507812 638.519531 560.550781 652.277344 C 557.339844 657.8125 555.996094 664.253906 556.832031 670.640625 C 558.421875 682.757812 566.675781 689.007812 574.792969 697.125 C 577.949219 700.285156 577.949219 705.484375 574.792969 708.644531 L 549.957031 733.488281 C 546.796875 736.644531 541.542969 736.644531 538.386719 733.488281 L 528.734375 723.832031 C 519.378906 714.421875 505.03125 712.609375 493.566406 719.222656 C 479.8125 727.183594 465.011719 733.328125 449.691406 737.433594 C 443.457031 739.074219 437.960938 742.667969 434.050781 747.820312 C 426.632812 757.472656 428.066406 767.808594 428.066406 779.1875 C 428.066406 783.640625 424.347656 787.359375 419.898438 787.359375 L 384.765625 787.359375 C 380.261719 787.359375 376.597656 783.640625 376.597656 779.1875 L 376.597656 765.539062 C 376.597656 752.269531 367.785156 740.835938 354.972656 737.433594 C 347.3125 735.355469 339.789062 732.824219 332.460938 729.804688 L 330.820312 729.105469 C 324.046875 726.1875 317.414062 722.925781 311.027344 719.207031 C 305.496094 715.996094 299.105469 714.652344 292.71875 715.488281 C 280.554688 717.078125 274.324219 725.335938 266.242188 733.453125 C 263.085938 736.609375 257.832031 736.609375 254.671875 733.503906 L 253.539062 732.371094 L 253.539062 732.316406 L 229.835938 708.609375 C 226.675781 705.449219 226.675781 700.25 229.835938 697.089844 L 239.488281 687.382812 C 248.894531 678.027344 250.710938 663.730469 244.09375 652.242188 C 236.136719 638.433594 230.046875 623.683594 225.945312 608.304688 C 224.269531 602.070312 220.65625 596.625 215.558594 592.660156 C 205.910156 585.292969 195.523438 586.675781 184.195312 586.675781 C 182.015625 586.675781 179.9375 585.835938 178.402344 584.300781 C 175.277344 581.140625 175.976562 576.878906 175.976562 572.8125 L 175.976562 571.085938 L 265.71875 571.085938 L 265.859375 572.671875 C 271.84375 643.480469 331.253906 697.960938 402.304688 697.960938 C 473.355469 697.960938 532.765625 643.480469 538.75 572.671875 L 538.890625 571.085938 L 628.582031 571.085938 L 628.582031 578.503906 C 628.632812 582.46875 625.910156 585.730469 622.246094 586.570312 Z M 403.824219 266.253906 L 403.824219 316.421875 L 424.75 316.421875 L 424.75 287.234375 L 447.351562 287.234375 L 447.351562 266.253906 Z M 403.824219 363.503906 L 403.824219 413.675781 L 424.75 413.675781 L 424.75 384.4375 L 447.351562 384.4375 L 447.351562 363.503906 Z M 217.21875 167.636719 L 151.820312 167.636719 C 146.027344 167.636719 141.386719 172.335938 141.386719 178.128906 L 141.386719 243.507812 C 141.386719 249.300781 146.027344 253.996094 151.820312 253.996094 L 217.21875 253.996094 C 223.011719 253.996094 227.65625 249.300781 227.65625 243.507812 L 227.65625 178.128906 C 227.65625 172.335938 222.996094 167.636719 217.21875 167.636719 Z M 151.804688 317.523438 C 146.011719 317.523438 141.367188 322.21875 141.367188 328.015625 L 141.367188 393.390625 C 141.367188 399.1875 146.011719 403.882812 151.804688 403.882812 L 217.199219 403.882812 C 222.996094 403.882812 227.636719 399.1875 227.636719 393.390625 L 227.636719 328.015625 C 227.636719 322.21875 222.996094 317.523438 217.199219 317.523438 Z M 12.304688 462.710938 L 84.382812 462.710938 L 84.382812 115.828125 L 84.4375 115.828125 C 84.4375 111.621094 86.617188 107.570312 90.527344 105.28125 L 269.121094 2.164062 C 271.355469 0.785156 273.222656 0.0859375 275.945312 0.0859375 L 537.109375 0.0859375 C 543.832031 0.0859375 549.328125 5.535156 549.328125 12.308594 L 549.328125 121.414062 L 708.078125 121.414062 C 714.796875 121.414062 720.242188 126.859375 720.242188 133.582031 L 720.242188 462.695312 L 792.375 462.695312 C 799.113281 462.695312 804.59375 468.195312 804.59375 474.914062 L 804.59375 560.628906 C 804.59375 567.402344 799.09375 572.847656 792.375 572.847656 L 651.320312 572.847656 L 651.320312 578.539062 C 651.320312 595.558594 637.464844 609.421875 620.449219 609.421875 L 620.449219 609.367188 L 606.851562 609.367188 L 606.851562 609.421875 C 603.78125 609.421875 601.40625 611.199219 600.621094 614.167969 C 595.980469 631.484375 589.101562 648.121094 580.097656 663.605469 C 578.613281 666.277344 578.960938 669.191406 581.179688 671.375 C 590.882812 681.082031 599.835938 687.855469 599.835938 702.847656 C 599.835938 710.773438 596.816406 718.683594 590.832031 724.671875 L 565.996094 749.511719 C 553.96875 761.539062 534.386719 761.539062 522.363281 749.511719 L 512.710938 739.859375 C 510.476562 737.675781 507.5625 737.292969 504.945312 738.8125 C 489.414062 747.765625 472.832031 754.695312 455.519531 759.304688 C 452.550781 760.089844 450.773438 762.464844 450.773438 765.539062 C 450.773438 779.242188 452.359375 790.378906 441.714844 801.007812 C 436.128906 806.597656 428.398438 810.070312 419.898438 810.070312 L 384.765625 810.070312 C 367.75 810.070312 353.890625 796.210938 353.890625 779.1875 C 353.890625 752.621094 356.910156 764.839844 323.765625 750.679688 C 315.511719 747.261719 307.484375 743.261719 299.71875 738.8125 C 297.097656 737.273438 294.183594 737.675781 291.949219 739.859375 C 282.246094 749.5625 275.527344 758.570312 260.484375 758.570312 C 252.71875 758.570312 244.550781 755.5 238.667969 749.511719 L 213.832031 724.671875 C 201.808594 712.644531 201.808594 693.109375 213.832031 681.027344 L 223.484375 671.375 C 225.71875 669.191406 226.050781 666.277344 224.53125 663.605469 C 215.578125 648.121094 208.699219 631.484375 204.039062 614.167969 C 203.253906 611.199219 200.882812 609.421875 197.808594 609.421875 C 184.109375 609.421875 173.027344 611.007812 162.382812 600.359375 C 156.796875 594.773438 153.324219 587.039062 153.324219 578.539062 L 153.324219 572.847656 L 12.304688 572.847656 C 5.53125 572.847656 0.0859375 567.402344 0.0859375 560.628906 L 0.0859375 474.914062 C 0.0859375 468.210938 5.515625 462.710938 12.304688 462.710938 Z M 515.976562 572.867188 L 288.703125 572.867188 C 294.640625 630.71875 343.523438 675.300781 402.339844 675.300781 C 461.15625 675.300781 509.988281 630.71875 515.976562 572.867188 Z M 780.160156 487.152344 L 24.519531 487.152344 L 24.519531 548.460938 L 780.160156 548.460938 Z M 570.007812 199.601562 L 582.226562 199.601562 L 582.226562 223.988281 L 550.460938 223.988281 L 550.460938 250.558594 L 526.027344 250.558594 L 526.027344 199.585938 L 570.007812 199.585938 Z M 663.714844 199.601562 L 675.929688 199.601562 L 675.929688 223.988281 L 644.167969 223.988281 L 644.167969 250.558594 L 619.734375 250.558594 L 619.734375 199.585938 L 663.714844 199.585938 Z M 663.714844 304.605469 L 675.929688 304.605469 L 675.929688 329.046875 L 644.167969 329.046875 L 644.167969 355.613281 L 619.734375 355.613281 L 619.734375 304.589844 L 663.714844 304.589844 Z M 570.007812 304.605469 L 582.226562 304.605469 L 582.226562 329.046875 L 550.460938 329.046875 L 550.460938 355.613281 L 526.027344 355.613281 L 526.027344 304.589844 L 570.007812 304.589844 Z M 493.863281 121.414062 L 524.875 121.414062 L 524.875 24.527344 L 288.164062 24.527344 L 288.164062 462.503906 L 343.226562 462.503906 L 343.226562 209.796875 C 343.226562 205.484375 345.496094 201.332031 349.5625 199.113281 L 487.335938 123.296875 C 489.707031 122.058594 490.949219 121.414062 493.863281 121.414062 Z M 695.863281 145.816406 L 506.078125 145.816406 L 506.078125 462.519531 L 695.863281 462.519531 Z M 480.164062 57.378906 L 492.378906 57.378906 L 492.378906 81.820312 L 462.988281 81.820312 L 462.988281 108.335938 L 438.554688 108.335938 L 438.554688 57.363281 L 480.164062 57.363281 Z M 362.214844 57.378906 L 374.433594 57.378906 L 374.433594 81.820312 L 345.09375 81.820312 L 345.09375 108.335938 L 320.660156 108.335938 L 320.660156 57.363281 L 362.214844 57.363281 Z M 205 340.234375 L 164.039062 340.234375 L 164.039062 381.152344 L 205 381.152344 Z M 205 190.351562 L 164.039062 190.351562 L 164.039062 231.269531 L 205 231.269531 Z M 205 190.351562 "/></g><path style=" stroke:none;fill-rule:evenodd;fill:#99cc66;fill-opacity:1;" d="M 365.882812 215.976562 L 483.425781 151.300781 L 483.425781 464.230469 L 365.882812 464.230469 Z M 107.089844 464.25 L 107.089844 121.867188 L 265.457031 30.425781 L 265.457031 464.25 Z M 622.246094 586.570312 L 622.246094 586.761719 L 605.125 586.761719 C 592.609375 587.511719 582.015625 596.066406 578.699219 608.335938 C 574.597656 623.683594 568.507812 638.519531 560.550781 652.277344 C 557.339844 657.8125 555.996094 664.253906 556.832031 670.640625 C 558.421875 682.757812 566.675781 689.007812 574.792969 697.125 C 577.949219 700.285156 577.949219 705.484375 574.792969 708.644531 L 549.957031 733.488281 C 546.796875 736.644531 541.542969 736.644531 538.386719 733.488281 L 528.734375 723.832031 C 519.378906 714.421875 505.03125 712.609375 493.566406 719.222656 C 479.8125 727.183594 465.011719 733.328125 449.691406 737.433594 C 443.457031 739.074219 437.960938 742.667969 434.050781 747.820312 C 426.632812 757.472656 428.066406 767.808594 428.066406 779.1875 C 428.066406 783.640625 424.347656 787.359375 419.898438 787.359375 L 384.765625 787.359375 C 380.261719 787.359375 376.597656 783.640625 376.597656 779.1875 L 376.597656 765.539062 C 376.597656 752.269531 367.785156 740.835938 354.972656 737.433594 C 347.3125 735.355469 339.789062 732.824219 332.460938 729.804688 L 330.820312 729.105469 C 324.046875 726.1875 317.414062 722.925781 311.027344 719.207031 C 305.496094 715.996094 299.105469 714.652344 292.71875 715.488281 C 280.554688 717.078125 274.324219 725.335938 266.242188 733.453125 C 263.085938 736.609375 257.832031 736.609375 254.671875 733.503906 L 253.539062 732.371094 L 253.539062 732.316406 L 229.835938 708.609375 C 226.675781 705.449219 226.675781 700.25 229.835938 697.089844 L 239.488281 687.382812 C 248.894531 678.027344 250.710938 663.730469 244.09375 652.242188 C 236.136719 638.433594 230.046875 623.683594 225.945312 608.304688 C 224.269531 602.070312 220.65625 596.625 215.558594 592.660156 C 205.910156 585.292969 195.523438 586.675781 184.195312 586.675781 C 182.015625 586.675781 179.9375 585.835938 178.402344 584.300781 C 175.277344 581.140625 175.976562 576.878906 175.976562 572.8125 L 175.976562 571.085938 L 265.71875 571.085938 L 265.859375 572.671875 C 271.84375 643.480469 331.253906 697.960938 402.304688 697.960938 C 473.355469 697.960938 532.765625 643.480469 538.75 572.671875 L 538.890625 571.085938 L 628.582031 571.085938 L 628.582031 578.503906 C 628.632812 582.46875 625.910156 585.730469 622.246094 586.570312 Z M 403.824219 266.253906 L 403.824219 316.421875 L 424.75 316.421875 L 424.75 287.234375 L 447.351562 287.234375 L 447.351562 266.253906 Z M 403.824219 363.503906 L 403.824219 413.675781 L 424.75 413.675781 L 424.75 384.4375 L 447.351562 384.4375 L 447.351562 363.503906 Z M 217.21875 167.636719 L 151.820312 167.636719 C 146.027344 167.636719 141.386719 172.335938 141.386719 178.128906 L 141.386719 243.507812 C 141.386719 249.300781 146.027344 253.996094 151.820312 253.996094 L 217.21875 253.996094 C 223.011719 253.996094 227.65625 249.300781 227.65625 243.507812 L 227.65625 178.128906 C 227.65625 172.335938 222.996094 167.636719 217.21875 167.636719 Z M 151.804688 317.523438 C 146.011719 317.523438 141.367188 322.21875 141.367188 328.015625 L 141.367188 393.390625 C 141.367188 399.1875 146.011719 403.882812 151.804688 403.882812 L 217.199219 403.882812 C 222.996094 403.882812 227.636719 399.1875 227.636719 393.390625 L 227.636719 328.015625 C 227.636719 322.21875 222.996094 317.523438 217.199219 317.523438 Z M 151.804688 317.523438 "/></g></svg>