<svg xmlns="http://www.w3.org/2000/svg" xmlns:xlink="http://www.w3.org/1999/xlink" width="1080" zoomAndPan="magnify" viewBox="0 0 810 809.999993" height="1080" preserveAspectRatio="xMidYMid meet" version="1.2"><defs><clipPath id="5bdb6c4b9f"><path d="M 78 32.730469 L 742 32.730469 L 742 777.480469 L 78 777.480469 Z M 78 32.730469 "/></clipPath></defs><g id="88bd6113ec"><path style=" stroke:none;fill-rule:nonzero;fill:#f9cfcf;fill-opacity:1;" d="M 9.457031 612.304688 L 38.558594 654.222656 C 40.910156 657.613281 40.910156 662.105469 38.558594 665.492188 L 9.457031 707.414062 C 4.910156 713.964844 9.59375 722.925781 17.570312 722.925781 L 88.878906 722.925781 C 94.214844 722.925781 98.542969 718.601562 98.542969 713.261719 L 98.542969 596.78125 L 17.570312 596.78125 C 9.59375 596.789062 4.910156 605.75 9.457031 612.304688 Z M 9.457031 612.304688 "/><path style=" stroke:none;fill-rule:nonzero;fill:#f9cfcf;fill-opacity:1;" d="M 811.042969 707.414062 L 781.941406 665.492188 C 779.589844 662.101562 779.589844 657.609375 781.941406 654.222656 L 811.042969 612.304688 C 815.589844 605.75 810.90625 596.789062 802.929688 596.789062 L 721.957031 596.789062 L 721.957031 713.269531 C 721.957031 718.605469 726.285156 722.933594 731.621094 722.933594 L 802.929688 722.933594 C 810.90625 722.929688 815.589844 713.964844 811.042969 707.414062 Z M 811.042969 707.414062 "/><path style=" stroke:none;fill-rule:nonzero;fill:#3762cc;fill-opacity:1;" d="M 88.878906 729.371094 L 17.570312 729.371094 C 11.472656 729.371094 5.933594 726.015625 3.109375 720.613281 C 0.285156 715.210938 0.691406 708.742188 4.164062 703.742188 L 33.265625 661.816406 C 34.082031 660.644531 34.082031 659.070312 33.265625 657.894531 L 4.164062 615.976562 C 0.691406 610.96875 0.285156 604.503906 3.109375 599.105469 C 5.933594 593.707031 11.472656 590.347656 17.570312 590.347656 L 98.542969 590.347656 C 102.097656 590.347656 104.984375 593.234375 104.984375 596.789062 L 104.984375 713.265625 C 104.984375 722.148438 97.757812 729.371094 88.878906 729.371094 Z M 17.570312 603.230469 C 15.691406 603.230469 14.816406 604.519531 14.527344 605.074219 C 14.234375 605.628906 13.679688 607.085938 14.746094 608.628906 L 43.847656 650.550781 C 47.714844 656.121094 47.714844 663.601562 43.847656 669.167969 L 14.746094 711.089844 C 13.675781 712.632812 14.234375 714.089844 14.527344 714.648438 C 14.816406 715.203125 15.691406 716.492188 17.570312 716.492188 L 88.878906 716.492188 C 90.652344 716.492188 92.101562 715.046875 92.101562 713.269531 L 92.101562 603.234375 L 17.570312 603.234375 Z M 17.570312 603.230469 "/><path style=" stroke:none;fill-rule:nonzero;fill:#3762cc;fill-opacity:1;" d="M 802.929688 729.371094 L 731.621094 729.371094 C 722.742188 729.371094 715.515625 722.148438 715.515625 713.265625 L 715.515625 596.789062 C 715.515625 593.234375 718.402344 590.347656 721.957031 590.347656 L 802.929688 590.347656 C 809.027344 590.347656 814.566406 593.703125 817.390625 599.105469 C 820.214844 604.507812 819.808594 610.972656 816.335938 615.976562 L 787.234375 657.898438 C 786.417969 659.070312 786.417969 660.648438 787.234375 661.824219 L 816.335938 703.742188 C 819.8125 708.75 820.214844 715.21875 817.390625 720.617188 C 814.566406 726.015625 809.023438 729.371094 802.929688 729.371094 Z M 728.398438 603.230469 L 728.398438 713.265625 C 728.398438 715.042969 729.84375 716.488281 731.621094 716.488281 L 802.929688 716.488281 C 804.808594 716.488281 805.683594 715.199219 805.972656 714.644531 C 806.265625 714.085938 806.824219 712.632812 805.75 711.089844 L 776.652344 669.167969 C 772.78125 663.597656 772.78125 656.113281 776.652344 650.546875 L 805.75 608.625 C 806.824219 607.082031 806.265625 605.625 805.972656 605.070312 C 805.683594 604.515625 804.808594 603.230469 802.929688 603.230469 Z M 728.398438 603.230469 "/><path style=" stroke:none;fill-rule:nonzero;fill:#ffea92;fill-opacity:1;" d="M 406.96875 770.640625 C 403.746094 770.292969 327.183594 761.65625 249.394531 714.640625 C 176.320312 670.472656 88.511719 583.390625 85.167969 419.332031 L 85.164062 72.15625 C 85.164062 53.96875 99.902344 39.226562 118.085938 39.226562 L 702.410156 39.226562 C 720.59375 39.226562 735.332031 53.96875 735.332031 72.15625 L 735.328125 419.328125 C 731.984375 583.382812 644.175781 670.46875 571.101562 714.636719 C 493.316406 761.652344 416.75 770.292969 413.527344 770.636719 L 410.25 770.988281 Z M 406.96875 770.640625 "/><path style=" stroke:none;fill-rule:nonzero;fill:#a4c9ff;fill-opacity:1;" d="M 132.46875 70.074219 C 123.378906 70.074219 116.007812 77.449219 116.007812 86.542969 L 116.007812 418.699219 C 121.625 694.414062 381.792969 736.171875 408.109375 739.691406 C 409.535156 739.882812 410.960938 739.882812 412.386719 739.691406 C 438.703125 736.171875 698.871094 694.414062 704.488281 418.699219 L 704.488281 86.542969 C 704.488281 77.449219 697.117188 70.074219 688.027344 70.074219 Z M 132.46875 70.074219 "/><path style=" stroke:none;fill-rule:nonzero;fill:#f9a7a7;fill-opacity:1;" d="M 508.507812 150.179688 C 445.75 87.410156 343.636719 87.410156 280.875 150.179688 L 308.457031 177.769531 C 356.003906 130.210938 433.378906 130.210938 480.925781 177.769531 C 528.476562 225.324219 528.476562 302.710938 480.925781 350.269531 L 508.507812 377.859375 C 571.261719 315.089844 571.261719 212.953125 508.507812 150.179688 Z M 508.507812 150.179688 "/><path style=" stroke:none;fill-rule:nonzero;fill:#ffea92;fill-opacity:1;" d="M 480.921875 177.769531 C 433.375 130.210938 356.003906 130.210938 308.453125 177.769531 L 336.035156 205.359375 C 368.375 173.011719 420.996094 173.011719 453.339844 205.359375 C 485.679688 237.707031 485.679688 290.335938 453.339844 322.683594 L 480.917969 350.269531 C 528.476562 302.714844 528.472656 225.328125 480.921875 177.769531 Z M 480.921875 177.769531 "/><path style=" stroke:none;fill-rule:nonzero;fill:#6bdddd;fill-opacity:1;" d="M 453.339844 205.359375 C 421 173.011719 368.378906 173.011719 336.039062 205.359375 L 369.554688 238.882812 C 377.363281 231.070312 387.902344 227.65625 398.097656 228.632812 C 406.03125 229.390625 413.753906 232.804688 419.828125 238.882812 C 425.902344 244.957031 429.320312 252.679688 430.074219 260.613281 C 431.050781 270.8125 427.632812 281.351562 419.828125 289.164062 L 453.34375 322.6875 C 485.683594 290.335938 485.683594 237.707031 453.339844 205.359375 Z M 453.339844 205.359375 "/><path style=" stroke:none;fill-rule:nonzero;fill:#3762cc;fill-opacity:1;" d="M 508.503906 384.304688 C 506.796875 384.304688 505.15625 383.625 503.949219 382.417969 L 476.367188 354.828125 C 473.851562 352.3125 473.851562 348.234375 476.367188 345.71875 C 498.148438 323.929688 510.144531 294.917969 510.144531 264.023438 C 510.144531 233.128906 498.144531 204.109375 476.367188 182.328125 C 454.585938 160.542969 425.578125 148.546875 394.6875 148.546875 C 363.796875 148.546875 334.792969 160.539062 313.011719 182.324219 C 310.59375 184.742188 306.316406 184.742188 303.902344 182.324219 L 276.320312 154.738281 C 275.113281 153.53125 274.433594 151.890625 274.433594 150.183594 C 274.433594 148.476562 275.113281 146.835938 276.320312 145.628906 C 341.589844 80.34375 447.792969 80.34375 513.0625 145.628906 C 544.632812 177.203125 562.015625 219.246094 562.015625 264.023438 C 562.015625 308.796875 544.632812 350.839844 513.0625 382.417969 C 511.851562 383.625 510.214844 384.304688 508.503906 384.304688 Z M 489.921875 350.160156 L 508.414062 368.65625 C 534.71875 340.097656 549.136719 303.1875 549.136719 264.019531 C 549.136719 222.691406 533.089844 183.878906 503.953125 154.734375 C 445.230469 96.007812 350.613281 94.519531 290.078125 150.273438 L 308.570312 168.765625 C 332.1875 147.367188 362.519531 135.65625 394.691406 135.65625 C 429.023438 135.65625 461.265625 148.996094 485.480469 173.210938 C 509.695312 197.429688 523.027344 229.679688 523.027344 264.015625 C 523.027344 296.195312 511.320312 326.539062 489.921875 350.160156 Z M 489.921875 350.160156 "/><path style=" stroke:none;fill-rule:nonzero;fill:#3762cc;fill-opacity:1;" d="M 480.921875 356.71875 C 479.214844 356.71875 477.578125 356.039062 476.367188 354.828125 L 448.789062 327.242188 C 446.273438 324.726562 446.273438 320.648438 448.789062 318.132812 C 478.617188 288.292969 478.617188 239.75 448.789062 209.914062 C 418.957031 180.082031 370.421875 180.078125 340.589844 209.914062 C 338.078125 212.429688 334 212.429688 331.484375 209.914062 L 303.902344 182.328125 C 302.695312 181.121094 302.015625 179.480469 302.015625 177.773438 C 302.015625 176.066406 302.695312 174.425781 303.902344 173.21875 C 353.960938 123.144531 435.417969 123.144531 485.480469 173.21875 C 509.695312 197.4375 523.027344 229.683594 523.027344 264.023438 C 523.027344 298.359375 509.691406 330.613281 485.480469 354.828125 C 484.269531 356.039062 482.632812 356.71875 480.921875 356.71875 Z M 462.289062 322.519531 L 480.800781 341.035156 C 499.773438 319.859375 510.144531 292.757812 510.144531 264.019531 C 510.144531 233.121094 498.148438 204.109375 476.371094 182.324219 C 432.863281 138.808594 362.992188 137.332031 317.691406 177.898438 L 336.199219 196.40625 C 371.28125 166.011719 424.578125 167.476562 457.894531 200.804688 C 491.214844 234.128906 492.679688 287.4375 462.289062 322.519531 Z M 462.289062 322.519531 "/><path style=" stroke:none;fill-rule:nonzero;fill:#3762cc;fill-opacity:1;" d="M 453.339844 329.128906 C 451.632812 329.128906 449.996094 328.449219 448.789062 327.238281 L 415.273438 293.71875 C 412.757812 291.203125 412.757812 287.125 415.273438 284.609375 C 421.441406 278.441406 424.496094 269.917969 423.667969 261.226562 C 423.027344 254.527344 420.042969 248.207031 415.277344 243.4375 C 410.503906 238.664062 404.183594 235.683594 397.488281 235.042969 C 388.804688 234.203125 380.277344 237.269531 374.113281 243.4375 C 371.695312 245.851562 367.417969 245.851562 365.003906 243.4375 L 331.488281 209.914062 C 330.277344 208.703125 329.601562 207.066406 329.601562 205.359375 C 329.601562 203.648438 330.277344 202.011719 331.488281 200.800781 C 366.339844 165.9375 423.046875 165.941406 457.898438 200.804688 C 492.75 235.664062 492.75 292.382812 457.898438 327.242188 C 456.6875 328.449219 455.050781 329.128906 453.339844 329.128906 Z M 428.589844 288.8125 L 453.152344 313.382812 C 478.539062 283.351562 477.082031 238.214844 448.789062 209.914062 C 420.492188 181.613281 375.367188 180.152344 345.335938 205.542969 L 369.898438 230.117188 C 378.148438 224.070312 388.339844 221.222656 398.710938 222.214844 C 408.378906 223.140625 417.496094 227.4375 424.382812 234.324219 C 431.265625 241.210938 435.5625 250.328125 436.488281 260.003906 C 437.480469 270.367188 434.632812 280.5625 428.589844 288.8125 Z M 428.589844 288.8125 "/><path style=" stroke:none;fill-rule:nonzero;fill:#f9a7a7;fill-opacity:1;" d="M 415.15625 299.824219 C 417.292969 317.101562 417.367188 334.992188 415.15625 352.859375 C 404.425781 429.226562 363.1875 482.382812 313.59375 505.617188 C 305.324219 509.492188 295.785156 509.492188 287.511719 505.617188 C 237.929688 482.390625 196.679688 429.242188 185.945312 352.859375 L 185.949219 352.859375 C 183.808594 335.582031 183.734375 317.695312 185.949219 299.824219 L 185.945312 299.824219 C 196.675781 223.457031 237.914062 170.300781 287.511719 147.070312 C 295.78125 143.195312 305.320312 143.195312 313.59375 147.070312 C 363.175781 170.292969 404.425781 223.441406 415.15625 299.824219 Z M 415.15625 299.824219 "/><path style=" stroke:none;fill-rule:nonzero;fill:#e0ebfc;fill-opacity:1;" d="M 362.433594 465.84375 C 341.890625 472.617188 319.800781 476.171875 297.097656 476.171875 C 274.390625 476.171875 252.308594 472.617188 231.761719 465.84375 C 222.941406 455.875 214.316406 443.84375 206.667969 429.378906 C 232.132812 444.320312 263.355469 453.121094 297.097656 453.121094 C 330.839844 453.121094 362.0625 444.320312 387.523438 429.375 C 379.882812 443.84375 371.253906 455.875 362.433594 465.84375 Z M 362.433594 465.84375 "/><path style=" stroke:none;fill-rule:nonzero;fill:#e0ebfc;fill-opacity:1;" d="M 231.765625 186.84375 C 252.308594 180.066406 274.394531 176.511719 297.101562 176.511719 C 319.804688 176.511719 341.890625 180.066406 362.4375 186.84375 C 371.257812 196.8125 379.882812 208.839844 387.527344 223.304688 C 362.066406 208.363281 330.84375 199.5625 297.101562 199.5625 C 263.359375 199.5625 232.136719 208.367188 206.671875 223.308594 C 214.316406 208.84375 222.941406 196.8125 231.765625 186.84375 Z M 231.765625 186.84375 "/><path style=" stroke:none;fill-rule:nonzero;fill:#f9cfcf;fill-opacity:1;" d="M 285.714844 246.636719 L 285.714844 406.042969 C 285.714844 412.332031 290.8125 417.429688 297.101562 417.429688 C 303.386719 417.429688 308.484375 412.332031 308.484375 406.042969 L 308.484375 246.636719 C 308.484375 240.351562 303.386719 235.25 297.101562 235.25 C 290.8125 235.253906 285.714844 240.351562 285.714844 246.636719 Z M 285.714844 246.636719 "/><path style=" stroke:none;fill-rule:nonzero;fill:#3762cc;fill-opacity:1;" d="M 297.097656 514.96875 C 291.714844 514.96875 286.335938 513.796875 281.328125 511.449219 C 225.660156 485.371094 186.324219 426.421875 176.117188 353.757812 C 173.863281 335.519531 173.863281 317.144531 176.105469 299.027344 C 186.328125 226.257812 225.660156 167.308594 281.328125 141.234375 C 291.351562 136.542969 302.847656 136.542969 312.871094 141.234375 C 368.539062 167.308594 407.871094 226.261719 418.082031 298.925781 C 418.085938 298.960938 418.09375 298.992188 418.09375 299.03125 C 420.332031 317.152344 420.332031 335.53125 418.09375 353.652344 C 407.871094 426.421875 368.535156 485.375 312.867188 511.449219 C 307.859375 513.796875 302.480469 514.96875 297.097656 514.96875 Z M 297.097656 150.601562 C 293.582031 150.601562 290.0625 151.371094 286.789062 152.90625 C 235.082031 177.125 198.476562 232.382812 188.871094 300.71875 C 186.777344 317.6875 186.777344 335.003906 188.890625 352.070312 C 198.476562 420.300781 235.078125 475.558594 286.789062 499.777344 C 293.34375 502.847656 300.855469 502.847656 307.410156 499.777344 C 359.117188 475.554688 395.722656 420.296875 405.324219 351.960938 C 407.421875 334.988281 407.417969 317.671875 405.308594 300.613281 C 395.683594 232.320312 359.089844 177.109375 307.40625 152.90625 C 304.132812 151.371094 300.613281 150.601562 297.097656 150.601562 Z M 297.097656 150.601562 "/><path style=" stroke:none;fill-rule:nonzero;fill:#3762cc;fill-opacity:1;" d="M 297.097656 423.875 C 287.269531 423.875 279.273438 415.875 279.273438 406.042969 L 279.273438 246.640625 C 279.273438 236.808594 287.269531 228.8125 297.097656 228.8125 C 306.925781 228.8125 314.921875 236.808594 314.921875 246.640625 L 314.921875 406.042969 C 314.921875 415.875 306.925781 423.875 297.097656 423.875 Z M 297.097656 241.695312 C 294.371094 241.695312 292.152344 243.914062 292.152344 246.640625 L 292.152344 406.042969 C 292.152344 408.773438 294.371094 410.988281 297.097656 410.988281 C 299.824219 410.988281 302.042969 408.773438 302.042969 406.042969 L 302.042969 246.640625 C 302.042969 243.914062 299.820312 241.695312 297.097656 241.695312 Z M 297.097656 241.695312 "/><path style=" stroke:none;fill-rule:nonzero;fill:#e0ebfc;fill-opacity:1;" d="M 268.824219 271.011719 C 268.824219 276.105469 272.953125 280.234375 278.042969 280.234375 L 316.152344 280.234375 C 321.246094 280.234375 325.375 276.105469 325.375 271.011719 C 325.375 265.921875 321.246094 261.789062 316.152344 261.789062 L 278.042969 261.789062 C 272.953125 261.789062 268.824219 265.921875 268.824219 271.011719 Z M 268.824219 271.011719 "/><path style=" stroke:none;fill-rule:nonzero;fill:#3762cc;fill-opacity:1;" d="M 316.152344 286.675781 L 278.042969 286.675781 C 269.410156 286.675781 262.386719 279.644531 262.386719 271.011719 C 262.386719 262.375 269.414062 255.347656 278.046875 255.347656 L 316.15625 255.347656 C 324.792969 255.347656 331.820312 262.375 331.820312 271.011719 C 331.816406 279.648438 324.789062 286.675781 316.152344 286.675781 Z M 278.042969 268.234375 C 276.511719 268.234375 275.265625 269.484375 275.265625 271.011719 C 275.265625 272.542969 276.511719 273.789062 278.042969 273.789062 L 316.152344 273.789062 C 317.683594 273.789062 318.929688 272.542969 318.929688 271.011719 C 318.929688 269.484375 317.683594 268.234375 316.152344 268.234375 Z M 278.042969 268.234375 "/><path style=" stroke:none;fill-rule:nonzero;fill:#e0ebfc;fill-opacity:1;" d="M 268.824219 307.898438 C 268.824219 312.992188 272.953125 317.121094 278.042969 317.121094 L 316.152344 317.121094 C 321.246094 317.121094 325.375 312.992188 325.375 307.898438 C 325.375 302.804688 321.246094 298.675781 316.152344 298.675781 L 278.042969 298.675781 C 272.953125 298.675781 268.824219 302.804688 268.824219 307.898438 Z M 268.824219 307.898438 "/><path style=" stroke:none;fill-rule:nonzero;fill:#3762cc;fill-opacity:1;" d="M 316.152344 323.5625 L 278.042969 323.5625 C 269.410156 323.5625 262.386719 316.535156 262.386719 307.902344 C 262.386719 299.261719 269.414062 292.238281 278.046875 292.238281 L 316.15625 292.238281 C 324.792969 292.238281 331.820312 299.265625 331.820312 307.902344 C 331.816406 316.535156 324.789062 323.5625 316.152344 323.5625 Z M 278.042969 305.121094 C 276.511719 305.121094 275.265625 306.367188 275.265625 307.898438 C 275.265625 309.429688 276.511719 310.675781 278.042969 310.675781 L 316.152344 310.675781 C 317.683594 310.675781 318.929688 309.429688 318.929688 307.898438 C 318.929688 306.367188 317.683594 305.121094 316.152344 305.121094 Z M 278.042969 305.121094 "/><path style=" stroke:none;fill-rule:nonzero;fill:#e0ebfc;fill-opacity:1;" d="M 268.824219 344.785156 C 268.824219 349.878906 272.953125 354.007812 278.042969 354.007812 L 316.152344 354.007812 C 321.246094 354.007812 325.375 349.878906 325.375 344.785156 C 325.375 339.691406 321.246094 335.5625 316.152344 335.5625 L 278.042969 335.5625 C 272.953125 335.5625 268.824219 339.691406 268.824219 344.785156 Z M 268.824219 344.785156 "/><path style=" stroke:none;fill-rule:nonzero;fill:#3762cc;fill-opacity:1;" d="M 316.152344 360.449219 L 278.042969 360.449219 C 269.410156 360.449219 262.386719 353.421875 262.386719 344.789062 C 262.386719 336.148438 269.414062 329.125 278.046875 329.125 L 316.15625 329.125 C 324.792969 329.125 331.820312 336.152344 331.820312 344.789062 C 331.816406 353.421875 324.789062 360.449219 316.152344 360.449219 Z M 278.042969 342.003906 C 276.511719 342.003906 275.265625 343.253906 275.265625 344.785156 C 275.265625 346.316406 276.511719 347.5625 278.042969 347.5625 L 316.152344 347.5625 C 317.683594 347.5625 318.929688 346.316406 318.929688 344.785156 C 318.929688 343.253906 317.683594 342.003906 316.152344 342.003906 Z M 278.042969 342.003906 "/><path style=" stroke:none;fill-rule:nonzero;fill:#e0ebfc;fill-opacity:1;" d="M 268.824219 381.671875 C 268.824219 386.765625 272.953125 390.894531 278.042969 390.894531 L 316.152344 390.894531 C 321.246094 390.894531 325.375 386.765625 325.375 381.671875 C 325.375 376.578125 321.246094 372.449219 316.152344 372.449219 L 278.042969 372.449219 C 272.953125 372.449219 268.824219 376.578125 268.824219 381.671875 Z M 268.824219 381.671875 "/><path style=" stroke:none;fill-rule:nonzero;fill:#3762cc;fill-opacity:1;" d="M 316.152344 397.335938 L 278.042969 397.335938 C 269.410156 397.335938 262.382812 390.308594 262.382812 381.671875 C 262.382812 373.035156 269.410156 366.011719 278.042969 366.011719 L 316.152344 366.011719 C 324.789062 366.011719 331.816406 373.039062 331.816406 381.671875 C 331.816406 390.308594 324.789062 397.335938 316.152344 397.335938 Z M 278.042969 378.890625 C 276.511719 378.890625 275.265625 380.136719 275.265625 381.667969 C 275.265625 383.199219 276.511719 384.449219 278.042969 384.449219 L 316.152344 384.449219 C 317.6875 384.449219 318.933594 383.199219 318.933594 381.667969 C 318.933594 380.136719 317.6875 378.890625 316.152344 378.890625 Z M 278.042969 378.890625 "/><path style=" stroke:none;fill-rule:nonzero;fill:#e0ebfc;fill-opacity:1;" d="M 639.636719 378.34375 C 639.636719 380.476562 639.585938 382.605469 639.480469 384.730469 C 639.375 386.859375 639.21875 388.984375 639.011719 391.105469 C 638.800781 393.222656 638.539062 395.335938 638.226562 397.445312 C 637.914062 399.550781 637.550781 401.652344 637.136719 403.742188 C 636.71875 405.828125 636.253906 407.90625 635.738281 409.976562 C 635.21875 412.042969 634.652344 414.09375 634.03125 416.132812 C 633.414062 418.171875 632.746094 420.195312 632.027344 422.199219 C 631.3125 424.207031 630.542969 426.191406 629.730469 428.160156 C 628.914062 430.128906 628.050781 432.074219 627.140625 434.003906 C 626.230469 435.929688 625.273438 437.832031 624.269531 439.710938 C 623.265625 441.589844 622.214844 443.441406 621.121094 445.269531 C 620.023438 447.097656 618.886719 448.894531 617.703125 450.667969 C 616.519531 452.4375 615.292969 454.179688 614.023438 455.890625 C 612.753906 457.601562 611.445312 459.28125 610.09375 460.925781 C 608.742188 462.574219 607.351562 464.1875 605.921875 465.765625 C 604.492188 467.34375 603.023438 468.886719 601.515625 470.394531 C 600.011719 471.898438 598.46875 473.367188 596.890625 474.800781 C 595.3125 476.230469 593.699219 477.621094 592.054688 478.972656 C 590.40625 480.324219 588.726562 481.632812 587.015625 482.902344 C 585.304688 484.171875 583.566406 485.398438 581.792969 486.582031 C 580.023438 487.765625 578.222656 488.90625 576.398438 490 C 574.570312 491.097656 572.71875 492.144531 570.839844 493.148438 C 568.960938 494.152344 567.058594 495.113281 565.132812 496.023438 C 563.207031 496.933594 561.261719 497.796875 559.292969 498.613281 C 557.324219 499.425781 555.339844 500.195312 553.332031 500.910156 C 551.328125 501.628906 549.304688 502.296875 547.265625 502.914062 C 545.226562 503.535156 543.175781 504.101562 541.109375 504.621094 C 539.042969 505.136719 536.964844 505.605469 534.878906 506.019531 C 532.789062 506.433594 530.691406 506.800781 528.582031 507.113281 C 526.476562 507.425781 524.363281 507.683594 522.242188 507.894531 C 520.125 508.101562 518 508.257812 515.871094 508.363281 C 513.746094 508.46875 511.617188 508.519531 509.484375 508.519531 C 507.355469 508.519531 505.226562 508.46875 503.101562 508.363281 C 500.972656 508.257812 498.847656 508.101562 496.730469 507.894531 C 494.609375 507.683594 492.496094 507.425781 490.390625 507.113281 C 488.28125 506.800781 486.183594 506.433594 484.09375 506.019531 C 482.003906 505.605469 479.929688 505.136719 477.863281 504.621094 C 475.796875 504.101562 473.742188 503.535156 471.707031 502.914062 C 469.667969 502.296875 467.644531 501.628906 465.640625 500.910156 C 463.632812 500.195312 461.648438 499.425781 459.679688 498.613281 C 457.710938 497.796875 455.765625 496.933594 453.839844 496.023438 C 451.914062 495.113281 450.011719 494.152344 448.132812 493.148438 C 446.253906 492.144531 444.402344 491.097656 442.574219 490 C 440.75 488.90625 438.949219 487.765625 437.179688 486.582031 C 435.40625 485.398438 433.667969 484.171875 431.957031 482.902344 C 430.246094 481.632812 428.566406 480.324219 426.917969 478.972656 C 425.273438 477.621094 423.660156 476.230469 422.082031 474.800781 C 420.503906 473.367188 418.960938 471.898438 417.457031 470.394531 C 415.949219 468.886719 414.480469 467.34375 413.050781 465.765625 C 411.621094 464.1875 410.230469 462.574219 408.878906 460.925781 C 407.527344 459.28125 406.21875 457.601562 404.949219 455.890625 C 403.679688 454.179688 402.453125 452.4375 401.269531 450.667969 C 400.085938 448.894531 398.945312 447.097656 397.851562 445.269531 C 396.757812 443.441406 395.707031 441.589844 394.703125 439.710938 C 393.699219 437.832031 392.742188 435.929688 391.832031 434.003906 C 390.921875 432.074219 390.058594 430.128906 389.242188 428.160156 C 388.425781 426.191406 387.660156 424.207031 386.945312 422.199219 C 386.226562 420.195312 385.558594 418.171875 384.941406 416.132812 C 384.320312 414.09375 383.753906 412.042969 383.234375 409.976562 C 382.71875 407.90625 382.25 405.828125 381.835938 403.742188 C 381.421875 401.652344 381.054688 399.550781 380.742188 397.445312 C 380.429688 395.335938 380.171875 393.222656 379.960938 391.105469 C 379.753906 388.984375 379.597656 386.859375 379.492188 384.730469 C 379.386719 382.605469 379.335938 380.476562 379.335938 378.34375 C 379.335938 376.214844 379.386719 374.085938 379.492188 371.957031 C 379.597656 369.828125 379.753906 367.703125 379.960938 365.585938 C 380.171875 363.464844 380.429688 361.351562 380.742188 359.242188 C 381.054688 357.136719 381.421875 355.039062 381.835938 352.949219 C 382.25 350.859375 382.71875 348.78125 383.234375 346.714844 C 383.753906 344.648438 384.320312 342.59375 384.941406 340.554688 C 385.558594 338.515625 386.226562 336.496094 386.945312 334.488281 C 387.660156 332.484375 388.425781 330.496094 389.242188 328.527344 C 390.058594 326.558594 390.921875 324.613281 391.832031 322.6875 C 392.742188 320.761719 393.699219 318.859375 394.703125 316.980469 C 395.707031 315.101562 396.757812 313.246094 397.851562 311.421875 C 398.945312 309.59375 400.085938 307.792969 401.269531 306.023438 C 402.453125 304.25 403.679688 302.507812 404.949219 300.796875 C 406.21875 299.085938 407.527344 297.40625 408.878906 295.761719 C 410.230469 294.113281 411.621094 292.5 413.050781 290.921875 C 414.480469 289.34375 415.949219 287.800781 417.457031 286.296875 C 418.960938 284.789062 420.503906 283.320312 422.082031 281.890625 C 423.660156 280.460938 425.273438 279.066406 426.917969 277.714844 C 428.566406 276.363281 430.246094 275.054688 431.957031 273.785156 C 433.667969 272.515625 435.40625 271.289062 437.179688 270.105469 C 438.949219 268.921875 440.75 267.785156 442.574219 266.6875 C 444.402344 265.59375 446.253906 264.542969 448.132812 263.539062 C 450.011719 262.535156 451.914062 261.578125 453.839844 260.667969 C 455.765625 259.753906 457.710938 258.890625 459.679688 258.078125 C 461.648438 257.261719 463.632812 256.496094 465.640625 255.777344 C 467.644531 255.058594 469.667969 254.390625 471.707031 253.773438 C 473.742188 253.15625 475.796875 252.585938 477.863281 252.070312 C 479.929688 251.550781 482.003906 251.085938 484.09375 250.667969 C 486.183594 250.253906 488.28125 249.890625 490.390625 249.578125 C 492.496094 249.265625 494.609375 249.003906 496.730469 248.792969 C 498.847656 248.585938 500.972656 248.429688 503.101562 248.324219 C 505.226562 248.21875 507.355469 248.167969 509.484375 248.167969 C 511.617188 248.167969 513.746094 248.21875 515.871094 248.324219 C 518 248.429688 520.125 248.585938 522.242188 248.792969 C 524.363281 249.003906 526.476562 249.265625 528.582031 249.578125 C 530.691406 249.890625 532.789062 250.253906 534.878906 250.667969 C 536.964844 251.085938 539.042969 251.550781 541.109375 252.070312 C 543.175781 252.585938 545.226562 253.15625 547.265625 253.773438 C 549.304688 254.390625 551.328125 255.058594 553.332031 255.777344 C 555.339844 256.496094 557.324219 257.261719 559.292969 258.078125 C 561.261719 258.890625 563.207031 259.753906 565.132812 260.667969 C 567.058594 261.578125 568.960938 262.535156 570.839844 263.539062 C 572.71875 264.542969 574.570312 265.59375 576.398438 266.6875 C 578.222656 267.785156 580.023438 268.921875 581.792969 270.105469 C 583.566406 271.289062 585.304688 272.515625 587.015625 273.785156 C 588.726562 275.054688 590.40625 276.363281 592.054688 277.714844 C 593.699219 279.066406 595.3125 280.460938 596.890625 281.890625 C 598.46875 283.320312 600.011719 284.789062 601.515625 286.296875 C 603.023438 287.800781 604.492188 289.34375 605.921875 290.921875 C 607.351562 292.5 608.742188 294.113281 610.09375 295.761719 C 611.445312 297.40625 612.753906 299.085938 614.023438 300.796875 C 615.292969 302.507812 616.519531 304.25 617.703125 306.023438 C 618.886719 307.792969 620.023438 309.59375 621.121094 311.421875 C 622.214844 313.246094 623.265625 315.101562 624.269531 316.980469 C 625.273438 318.859375 626.230469 320.761719 627.140625 322.6875 C 628.050781 324.613281 628.914062 326.558594 629.730469 328.527344 C 630.542969 330.496094 631.3125 332.484375 632.027344 334.488281 C 632.746094 336.496094 633.414062 338.515625 634.03125 340.554688 C 634.652344 342.59375 635.21875 344.648438 635.738281 346.714844 C 636.253906 348.78125 636.71875 350.859375 637.136719 352.949219 C 637.550781 355.039062 637.914062 357.136719 638.226562 359.242188 C 638.539062 361.351562 638.800781 363.464844 639.011719 365.585938 C 639.21875 367.703125 639.375 369.828125 639.480469 371.957031 C 639.585938 374.085938 639.636719 376.214844 639.636719 378.34375 Z M 639.636719 378.34375 "/><path style=" stroke:none;fill-rule:nonzero;fill:#4671c6;fill-opacity:1;" d="M 639.632812 378.46875 L 602.589844 351.546875 L 617.488281 305.6875 C 631.472656 326.4375 639.636719 351.4375 639.636719 378.34375 C 639.636719 378.386719 639.632812 378.425781 639.632812 378.46875 Z M 639.632812 378.46875 "/><path style=" stroke:none;fill-rule:nonzero;fill:#4671c6;fill-opacity:1;" d="M 552.070312 255.304688 L 509.484375 286.253906 L 466.898438 255.304688 C 480.246094 250.6875 494.570312 248.167969 509.484375 248.167969 C 524.402344 248.167969 538.730469 250.6875 552.070312 255.304688 Z M 552.070312 255.304688 "/><path style=" stroke:none;fill-rule:nonzero;fill:#4671c6;fill-opacity:1;" d="M 565.898438 459.789062 L 612.292969 458.167969 C 597.425781 477.292969 577.351562 492.167969 554.1875 500.636719 Z M 565.898438 459.789062 "/><path style=" stroke:none;fill-rule:nonzero;fill:#4671c6;fill-opacity:1;" d="M 464.773438 500.636719 C 441.617188 492.164062 421.542969 477.292969 406.679688 458.167969 L 453.066406 459.789062 Z M 464.773438 500.636719 "/><path style=" stroke:none;fill-rule:nonzero;fill:#4671c6;fill-opacity:1;" d="M 416.644531 351.542969 L 379.34375 378.652344 C 379.339844 378.652344 379.34375 378.652344 379.339844 378.648438 C 379.277344 351.511719 387.519531 326.300781 401.660156 305.421875 Z M 416.644531 351.542969 "/><path style=" stroke:none;fill-rule:nonzero;fill:#4671c6;fill-opacity:1;" d="M 509.484375 327.476562 L 561.0625 364.957031 L 541.359375 425.597656 L 477.613281 425.597656 L 457.910156 364.957031 Z M 509.484375 327.476562 "/><path style=" stroke:none;fill-rule:nonzero;fill:#3762cc;fill-opacity:1;" d="M 541.359375 432.039062 L 477.613281 432.039062 C 474.820312 432.039062 472.347656 430.242188 471.484375 427.585938 L 451.785156 366.945312 C 450.921875 364.289062 451.871094 361.382812 454.128906 359.742188 L 505.703125 322.261719 C 507.960938 320.621094 511.015625 320.621094 513.277344 322.261719 L 564.851562 359.742188 C 567.109375 361.382812 568.050781 364.289062 567.191406 366.945312 L 547.492188 427.585938 C 546.621094 430.246094 544.148438 432.039062 541.359375 432.039062 Z M 482.292969 419.152344 L 536.679688 419.152344 L 553.488281 367.410156 L 509.484375 335.433594 L 465.484375 367.410156 Z M 482.292969 419.152344 "/><path style=" stroke:none;fill-rule:nonzero;fill:#3762cc;fill-opacity:1;" d="M 509.484375 514.964844 C 434.167969 514.964844 372.894531 453.679688 372.894531 378.347656 C 372.894531 303.015625 434.167969 241.730469 509.484375 241.730469 C 584.804688 241.730469 646.078125 303.015625 646.078125 378.347656 C 646.078125 453.679688 584.804688 514.964844 509.484375 514.964844 Z M 509.484375 254.609375 C 441.273438 254.609375 385.777344 310.117188 385.777344 378.34375 C 385.777344 446.570312 441.269531 502.074219 509.484375 502.074219 C 577.703125 502.074219 633.195312 446.570312 633.195312 378.34375 C 633.195312 310.117188 577.699219 254.609375 509.484375 254.609375 Z M 509.484375 254.609375 "/><path style=" stroke:none;fill-rule:nonzero;fill:#3762cc;fill-opacity:1;" d="M 380.035156 384.59375 C 378.042969 384.59375 376.078125 383.671875 374.820312 381.9375 C 372.730469 379.058594 373.363281 375.03125 376.242188 372.9375 L 409.070312 349.085938 L 395.945312 308.683594 C 394.847656 305.296875 396.699219 301.664062 400.078125 300.5625 C 403.46875 299.46875 407.097656 301.316406 408.199219 304.699219 L 422.769531 349.554688 C 423.632812 352.207031 422.683594 355.117188 420.425781 356.753906 L 383.816406 383.363281 C 382.671875 384.195312 381.347656 384.59375 380.035156 384.59375 Z M 380.035156 384.59375 "/><path style=" stroke:none;fill-rule:nonzero;fill:#3762cc;fill-opacity:1;" d="M 457.910156 371.398438 C 457.25 371.398438 456.582031 371.296875 455.917969 371.082031 L 414.648438 357.671875 C 411.269531 356.570312 409.414062 352.933594 410.515625 349.550781 C 411.617188 346.167969 415.253906 344.328125 418.632812 345.414062 L 459.902344 358.824219 C 463.285156 359.925781 465.136719 363.558594 464.035156 366.945312 C 463.152344 369.667969 460.625 371.398438 457.910156 371.398438 Z M 457.910156 371.398438 "/><path style=" stroke:none;fill-rule:nonzero;fill:#3762cc;fill-opacity:1;" d="M 464.558594 506.332031 C 461.757812 506.332031 459.179688 504.492188 458.371094 501.667969 L 448.164062 466.066406 L 407.574219 464.648438 C 404.019531 464.523438 401.238281 461.539062 401.359375 457.984375 C 401.488281 454.425781 404.449219 451.550781 408.023438 451.769531 L 453.292969 453.351562 C 456.082031 453.449219 458.492188 455.328125 459.261719 458.011719 L 470.757812 498.109375 C 471.742188 501.535156 469.761719 505.101562 466.34375 506.082031 C 465.742188 506.25 465.144531 506.332031 464.558594 506.332031 Z M 464.558594 506.332031 "/><path style=" stroke:none;fill-rule:nonzero;fill:#3762cc;fill-opacity:1;" d="M 453.058594 466.234375 C 451.757812 466.234375 450.441406 465.839844 449.304688 465.023438 C 446.417969 462.945312 445.753906 458.921875 447.832031 456.03125 L 472.378906 421.839844 C 474.457031 418.953125 478.484375 418.296875 481.367188 420.367188 C 484.257812 422.441406 484.917969 426.46875 482.84375 429.359375 L 458.292969 463.550781 C 457.039062 465.300781 455.066406 466.234375 453.058594 466.234375 Z M 453.058594 466.234375 "/><path style=" stroke:none;fill-rule:nonzero;fill:#3762cc;fill-opacity:1;" d="M 565.894531 466.234375 C 562.441406 466.234375 559.585938 463.496094 559.464844 460.019531 C 559.335938 456.460938 562.121094 453.480469 565.675781 453.355469 L 567.492188 453.289062 C 567.550781 453.285156 567.597656 453.285156 611.277344 451.757812 C 614.78125 451.652344 617.8125 454.410156 617.941406 457.972656 C 618.0625 461.53125 615.28125 464.507812 611.726562 464.636719 C 570.769531 466.0625 568.234375 466.15625 568.03125 466.160156 L 566.125 466.230469 C 566.046875 466.234375 565.972656 466.234375 565.894531 466.234375 Z M 565.894531 466.234375 "/><path style=" stroke:none;fill-rule:nonzero;fill:#3762cc;fill-opacity:1;" d="M 554.472656 506.101562 C 553.886719 506.101562 553.289062 506.019531 552.695312 505.851562 C 549.277344 504.867188 547.300781 501.300781 548.28125 497.882812 L 558.847656 461.015625 L 536.125 429.355469 C 534.054688 426.464844 534.714844 422.441406 537.605469 420.367188 C 540.492188 418.296875 544.515625 418.953125 546.59375 421.84375 L 571.132812 456.039062 C 572.277344 457.636719 572.632812 459.675781 572.089844 461.566406 L 560.660156 501.429688 C 559.851562 504.257812 557.273438 506.101562 554.472656 506.101562 Z M 554.472656 506.101562 "/><path style=" stroke:none;fill-rule:nonzero;fill:#3762cc;fill-opacity:1;" d="M 638.605469 384.164062 C 637.292969 384.164062 635.96875 383.765625 634.824219 382.933594 L 598.804688 356.757812 C 596.546875 355.117188 595.605469 352.210938 596.464844 349.554688 L 610.980469 304.875 C 612.082031 301.492188 615.71875 299.644531 619.097656 300.738281 C 622.480469 301.839844 624.332031 305.472656 623.234375 308.859375 L 610.164062 349.089844 L 642.398438 372.511719 C 645.277344 374.601562 645.914062 378.632812 643.824219 381.511719 C 642.5625 383.242188 640.597656 384.164062 638.605469 384.164062 Z M 638.605469 384.164062 "/><path style=" stroke:none;fill-rule:nonzero;fill:#3762cc;fill-opacity:1;" d="M 561.0625 371.398438 C 558.339844 371.398438 555.8125 369.660156 554.933594 366.929688 C 553.839844 363.546875 555.699219 359.914062 559.082031 358.820312 L 600.613281 345.414062 C 603.992188 344.320312 607.628906 346.175781 608.722656 349.566406 C 609.8125 352.953125 607.957031 356.585938 604.570312 357.675781 L 563.042969 371.082031 C 562.382812 371.296875 561.714844 371.398438 561.0625 371.398438 Z M 561.0625 371.398438 "/><path style=" stroke:none;fill-rule:nonzero;fill:#3762cc;fill-opacity:1;" d="M 509.484375 292.699219 C 508.15625 292.699219 506.828125 292.289062 505.703125 291.46875 L 463.902344 261.089844 C 461.023438 259 460.386719 254.972656 462.476562 252.089844 C 464.570312 249.214844 468.605469 248.582031 471.476562 250.667969 L 509.488281 278.292969 L 547.59375 250.601562 C 550.472656 248.515625 554.5 249.15625 556.585938 252.027344 C 558.675781 254.910156 558.039062 258.9375 555.160156 261.027344 L 513.273438 291.464844 C 512.144531 292.289062 510.816406 292.699219 509.484375 292.699219 Z M 509.484375 292.699219 "/><path style=" stroke:none;fill-rule:nonzero;fill:#3762cc;fill-opacity:1;" d="M 509.484375 333.917969 C 505.929688 333.917969 503.042969 331.03125 503.042969 327.476562 L 503.042969 286.253906 C 503.042969 282.699219 505.929688 279.8125 509.484375 279.8125 C 513.042969 279.8125 515.925781 282.699219 515.925781 286.253906 L 515.925781 327.476562 C 515.925781 331.035156 513.042969 333.917969 509.484375 333.917969 Z M 509.484375 333.917969 "/><path style=" stroke:none;fill-rule:nonzero;fill:#3762cc;fill-opacity:1;" d="M 410.25 746.28125 C 409.25 746.28125 408.242188 746.214844 407.25 746.078125 C 377.382812 742.082031 115.273438 698.953125 109.566406 418.832031 L 109.566406 86.542969 C 109.566406 73.910156 119.839844 63.632812 132.46875 63.632812 L 688.027344 63.632812 C 700.652344 63.632812 710.929688 73.910156 710.929688 86.542969 L 710.929688 418.699219 C 705.222656 698.953125 443.113281 742.082031 413.242188 746.078125 C 412.253906 746.214844 411.25 746.28125 410.25 746.28125 Z M 132.472656 76.519531 C 126.945312 76.519531 122.449219 81.015625 122.449219 86.542969 L 122.449219 418.699219 C 127.9375 687.957031 380.21875 729.460938 408.964844 733.304688 C 409.832031 733.421875 410.667969 733.421875 411.53125 733.304688 C 440.285156 729.460938 692.5625 687.957031 698.050781 418.566406 L 698.050781 86.542969 C 698.050781 81.015625 693.554688 76.519531 688.03125 76.519531 Z M 132.472656 76.519531 "/><g clip-rule="nonzero" clip-path="url(#5bdb6c4b9f)"><path style=" stroke:none;fill-rule:nonzero;fill:#3762cc;fill-opacity:1;" d="M 410.25 777.429688 C 410.019531 777.429688 409.796875 777.417969 409.570312 777.394531 L 406.289062 777.046875 C 406.285156 777.042969 406.285156 777.042969 406.28125 777.042969 C 403 776.691406 324.996094 767.859375 246.066406 720.152344 C 171.605469 675.148438 82.136719 586.453125 78.730469 419.464844 L 78.726562 72.160156 C 78.726562 61.640625 82.820312 51.753906 90.253906 44.316406 C 97.691406 36.878906 107.574219 32.78125 118.09375 32.78125 L 702.414062 32.78125 C 712.929688 32.78125 722.816406 36.878906 730.253906 44.316406 C 737.691406 51.753906 741.785156 61.640625 741.785156 72.160156 L 741.78125 419.332031 C 738.378906 586.453125 648.90625 675.148438 574.445312 720.152344 C 495.515625 767.863281 417.507812 776.691406 414.230469 777.042969 L 410.941406 777.394531 C 410.703125 777.417969 410.480469 777.429688 410.25 777.429688 Z M 407.648438 764.230469 L 410.25 764.507812 L 412.851562 764.230469 C 416.011719 763.894531 491.261719 755.367188 567.777344 709.125 C 639.464844 665.792969 725.605469 580.324219 728.890625 419.199219 L 728.894531 72.160156 C 728.894531 65.082031 726.140625 58.429688 721.140625 53.429688 C 716.140625 48.425781 709.488281 45.671875 702.414062 45.671875 L 118.089844 45.671875 C 111.015625 45.671875 104.363281 48.425781 99.363281 53.429688 C 94.359375 58.433594 91.609375 65.082031 91.609375 72.160156 L 91.609375 419.332031 C 94.890625 580.324219 181.035156 665.792969 252.722656 709.125 C 329.191406 755.34375 404.386719 763.882812 407.648438 764.230469 Z M 407.648438 764.230469 "/></g><path style=" stroke:none;fill-rule:nonzero;fill:#f9cfcf;fill-opacity:1;" d="M 736.003906 688.839844 L 84.496094 688.839844 C 77.222656 688.839844 71.328125 682.941406 71.328125 675.667969 L 71.328125 545.652344 C 71.328125 538.378906 77.222656 532.480469 84.496094 532.480469 L 736.003906 532.480469 C 743.277344 532.480469 749.171875 538.378906 749.171875 545.652344 L 749.171875 675.667969 C 749.171875 682.941406 743.277344 688.839844 736.003906 688.839844 Z M 736.003906 688.839844 "/><path style=" stroke:none;fill-rule:nonzero;fill:#3762cc;fill-opacity:1;" d="M 736.003906 695.28125 L 84.496094 695.28125 C 73.679688 695.28125 64.886719 686.484375 64.886719 675.667969 L 64.886719 545.652344 C 64.886719 534.839844 73.679688 526.039062 84.496094 526.039062 L 736.003906 526.039062 C 746.816406 526.039062 755.613281 534.835938 755.613281 545.652344 L 755.613281 675.667969 C 755.613281 686.484375 746.816406 695.28125 736.003906 695.28125 Z M 84.496094 538.921875 C 80.785156 538.921875 77.769531 541.945312 77.769531 545.652344 L 77.769531 675.667969 C 77.769531 679.375 80.789062 682.398438 84.496094 682.398438 L 736.003906 682.398438 C 739.714844 682.398438 742.730469 679.375 742.730469 675.667969 L 742.730469 545.652344 C 742.730469 541.945312 739.710938 538.921875 736.003906 538.921875 Z M 84.496094 538.921875 "/><path style=" stroke:none;fill-rule:nonzero;fill:#3762cc;fill-opacity:1;" d="M 282.152344 665.5 C 279.308594 665.5 276.710938 663.601562 275.933594 660.726562 L 256.101562 587.050781 L 236.269531 660.726562 C 235.347656 664.164062 231.808594 666.210938 228.375 665.277344 C 224.941406 664.351562 222.90625 660.816406 223.832031 657.378906 L 249.882812 560.59375 C 250.640625 557.78125 253.191406 555.828125 256.101562 555.828125 C 259.015625 555.828125 261.566406 557.78125 262.320312 560.59375 L 288.371094 657.378906 C 289.296875 660.816406 287.261719 664.351562 283.828125 665.277344 C 283.269531 665.425781 282.703125 665.496094 282.152344 665.5 Z M 282.152344 665.5 "/><path style=" stroke:none;fill-rule:nonzero;fill:#3762cc;fill-opacity:1;" d="M 270.988281 628.269531 L 241.214844 628.269531 C 237.660156 628.269531 234.773438 625.382812 234.773438 621.828125 C 234.773438 618.273438 237.660156 615.386719 241.214844 615.386719 L 270.988281 615.386719 C 274.542969 615.386719 277.429688 618.273438 277.429688 621.828125 C 277.429688 625.382812 274.546875 628.269531 270.988281 628.269531 Z M 270.988281 628.269531 "/><path style=" stroke:none;fill-rule:nonzero;fill:#3762cc;fill-opacity:1;" d="M 179.441406 665.496094 C 175.882812 665.496094 173 662.609375 173 659.050781 L 173 562.265625 C 173 558.710938 175.882812 555.824219 179.441406 555.824219 L 231.546875 555.824219 C 235.101562 555.824219 237.988281 558.710938 237.988281 562.265625 C 237.988281 565.824219 235.101562 568.710938 231.546875 568.710938 L 185.878906 568.710938 L 185.878906 659.050781 C 185.878906 662.609375 182.996094 665.496094 179.441406 665.496094 Z M 179.441406 665.496094 "/><path style=" stroke:none;fill-rule:nonzero;fill:#3762cc;fill-opacity:1;" d="M 212.933594 605.9375 L 179.441406 605.9375 C 175.882812 605.9375 173 603.050781 173 599.496094 C 173 595.9375 175.882812 593.050781 179.441406 593.050781 L 212.9375 593.050781 C 216.492188 593.050781 219.378906 595.9375 219.378906 599.496094 C 219.378906 603.050781 216.492188 605.9375 212.933594 605.9375 Z M 212.933594 605.9375 "/><path style=" stroke:none;fill-rule:nonzero;fill:#3762cc;fill-opacity:1;" d="M 358.527344 665.496094 C 356.203125 665.496094 354 664.230469 352.859375 662.105469 L 312.867188 587.816406 L 312.867188 659.050781 C 312.867188 662.605469 309.984375 665.492188 306.425781 665.492188 C 302.871094 665.492188 299.988281 662.605469 299.988281 659.050781 L 299.988281 562.265625 C 299.988281 559.3125 301.992188 556.738281 304.851562 556.019531 C 307.710938 555.296875 310.699219 556.613281 312.097656 559.210938 L 352.089844 633.5 L 352.089844 562.265625 C 352.089844 558.710938 354.976562 555.824219 358.53125 555.824219 C 362.085938 555.824219 364.972656 558.710938 364.972656 562.265625 L 364.972656 659.050781 C 364.972656 662.003906 362.964844 664.578125 360.105469 665.296875 C 359.582031 665.429688 359.050781 665.496094 358.527344 665.496094 Z M 358.527344 665.496094 "/><path style=" stroke:none;fill-rule:nonzero;fill:#3762cc;fill-opacity:1;" d="M 541.84375 665.496094 L 526.953125 665.496094 C 513.140625 665.496094 501.90625 654.257812 501.90625 640.441406 C 501.90625 636.882812 504.789062 633.996094 508.347656 633.996094 C 511.902344 633.996094 514.789062 636.882812 514.789062 640.441406 C 514.789062 647.148438 520.246094 652.609375 526.953125 652.609375 L 541.84375 652.609375 C 548.550781 652.609375 554.011719 647.148438 554.011719 640.441406 L 554.011719 618.105469 C 554.011719 611.394531 548.550781 605.9375 541.84375 605.9375 L 526.953125 605.9375 C 513.140625 605.9375 501.90625 594.699219 501.90625 580.882812 C 501.90625 567.066406 513.140625 555.828125 526.953125 555.828125 L 541.84375 555.828125 C 555.65625 555.828125 566.894531 567.066406 566.894531 580.882812 C 566.894531 584.4375 564.007812 587.324219 560.453125 587.324219 C 556.894531 587.324219 554.011719 584.4375 554.011719 580.882812 C 554.011719 574.171875 548.550781 568.714844 541.84375 568.714844 L 526.953125 568.714844 C 520.246094 568.714844 514.789062 574.171875 514.789062 580.882812 C 514.789062 587.59375 520.246094 593.054688 526.953125 593.054688 L 541.84375 593.054688 C 555.65625 593.054688 566.894531 604.292969 566.894531 618.105469 L 566.894531 640.441406 C 566.894531 654.257812 555.652344 665.496094 541.84375 665.496094 Z M 541.84375 665.496094 "/><path style=" stroke:none;fill-rule:nonzero;fill:#3762cc;fill-opacity:1;" d="M 432.828125 568.710938 L 380.71875 568.710938 C 377.164062 568.710938 374.277344 565.824219 374.277344 562.265625 C 374.277344 558.710938 377.164062 555.824219 380.71875 555.824219 L 432.828125 555.824219 C 436.382812 555.824219 439.265625 558.710938 439.265625 562.265625 C 439.265625 565.824219 436.382812 568.710938 432.828125 568.710938 Z M 432.828125 568.710938 "/><path style=" stroke:none;fill-rule:nonzero;fill:#3762cc;fill-opacity:1;" d="M 406.773438 665.496094 C 403.214844 665.496094 400.332031 662.609375 400.332031 659.050781 L 400.332031 562.265625 C 400.332031 558.710938 403.214844 555.824219 406.773438 555.824219 C 410.328125 555.824219 413.210938 558.710938 413.210938 562.265625 L 413.210938 659.050781 C 413.210938 662.609375 410.332031 665.496094 406.773438 665.496094 Z M 406.773438 665.496094 "/><path style=" stroke:none;fill-rule:nonzero;fill:#3762cc;fill-opacity:1;" d="M 622.453125 628.269531 L 607.5625 628.269531 C 593.75 628.269531 582.511719 617.03125 582.511719 603.214844 L 582.511719 562.265625 C 582.511719 558.710938 585.398438 555.824219 588.953125 555.824219 C 592.511719 555.824219 595.394531 558.710938 595.394531 562.265625 L 595.394531 603.214844 C 595.394531 609.925781 600.855469 615.386719 607.5625 615.386719 L 622.453125 615.386719 C 629.160156 615.386719 634.617188 609.925781 634.617188 603.214844 L 634.617188 562.265625 C 634.617188 558.710938 637.503906 555.824219 641.058594 555.824219 C 644.617188 555.824219 647.5 558.710938 647.5 562.265625 L 647.5 603.214844 C 647.5 617.03125 636.265625 628.269531 622.453125 628.269531 Z M 622.453125 628.269531 "/><path style=" stroke:none;fill-rule:nonzero;fill:#3762cc;fill-opacity:1;" d="M 615.007812 665.496094 C 611.453125 665.496094 608.566406 662.609375 608.566406 659.050781 L 608.566406 621.828125 C 608.566406 618.273438 611.453125 615.386719 615.007812 615.386719 C 618.566406 615.386719 621.449219 618.273438 621.449219 621.828125 L 621.449219 659.050781 C 621.449219 662.609375 618.566406 665.496094 615.007812 665.496094 Z M 615.007812 665.496094 "/><path style=" stroke:none;fill-rule:nonzero;fill:#3762cc;fill-opacity:1;" d="M 483.429688 665.5 C 480.589844 665.5 477.992188 663.601562 477.214844 660.726562 L 457.382812 587.050781 L 437.550781 660.726562 C 436.625 664.164062 433.09375 666.210938 429.65625 665.277344 C 426.222656 664.351562 424.1875 660.816406 425.113281 657.378906 L 451.164062 560.59375 C 451.921875 557.78125 454.472656 555.828125 457.382812 555.828125 C 460.292969 555.828125 462.84375 557.78125 463.601562 560.59375 L 489.652344 657.378906 C 490.578125 660.816406 488.542969 664.351562 485.109375 665.277344 C 484.550781 665.425781 483.988281 665.496094 483.429688 665.5 Z M 483.429688 665.5 "/><path style=" stroke:none;fill-rule:nonzero;fill:#3762cc;fill-opacity:1;" d="M 472.273438 628.269531 L 442.496094 628.269531 C 438.941406 628.269531 436.054688 625.382812 436.054688 621.828125 C 436.054688 618.273438 438.941406 615.386719 442.496094 615.386719 L 472.273438 615.386719 C 475.828125 615.386719 478.714844 618.273438 478.714844 621.828125 C 478.714844 625.382812 475.828125 628.269531 472.273438 628.269531 Z M 472.273438 628.269531 "/></g></svg>