<svg xmlns="http://www.w3.org/2000/svg" xmlns:xlink="http://www.w3.org/1999/xlink" width="1080" zoomAndPan="magnify" viewBox="0 0 810 809.999993" height="1080" preserveAspectRatio="xMidYMid meet" version="1.2"><defs><clipPath id="33d7d46bd0"><path d="M 102 651 L 236 651 L 236 785.0625 L 102 785.0625 Z M 102 651 "/></clipPath><clipPath id="6561ef9159"><path d="M 611 651 L 745 651 L 745 785.0625 L 611 785.0625 Z M 611 651 "/></clipPath><clipPath id="525188d62e"><path d="M 0 764 L 180 764 L 180 785.0625 L 0 785.0625 Z M 0 764 "/></clipPath><clipPath id="8ee120ae40"><path d="M 667 764 L 810 764 L 810 785.0625 L 667 785.0625 Z M 667 764 "/></clipPath></defs><g id="70ae8a34e1"><g clip-rule="nonzero" clip-path="url(#33d7d46bd0)"><path style=" stroke:none;fill-rule:nonzero;fill:#000000;fill-opacity:1;" d="M 168.824219 785.058594 C 132.003906 785.058594 102.054688 755.09375 102.054688 718.253906 C 102.054688 681.417969 132.003906 651.453125 168.824219 651.453125 C 205.644531 651.453125 235.597656 681.417969 235.597656 718.253906 C 235.597656 755.09375 205.644531 785.058594 168.824219 785.058594 Z M 168.824219 672.023438 C 143.335938 672.023438 122.621094 692.753906 122.621094 718.253906 C 122.621094 743.753906 143.335938 764.484375 168.824219 764.484375 C 194.3125 764.484375 215.03125 743.753906 215.03125 718.253906 C 215.03125 692.753906 194.3125 672.023438 168.824219 672.023438 Z M 168.824219 672.023438 "/></g><g clip-rule="nonzero" clip-path="url(#6561ef9159)"><path style=" stroke:none;fill-rule:nonzero;fill:#000000;fill-opacity:1;" d="M 678.226562 785.058594 C 641.40625 785.058594 611.457031 755.09375 611.457031 718.253906 C 611.457031 681.417969 641.40625 651.453125 678.226562 651.453125 C 715.046875 651.453125 744.996094 681.417969 744.996094 718.253906 C 744.996094 755.09375 715.046875 785.058594 678.226562 785.058594 Z M 678.226562 672.023438 C 652.738281 672.023438 632.019531 692.753906 632.019531 718.253906 C 632.019531 743.753906 652.738281 764.484375 678.226562 764.484375 C 703.714844 764.484375 724.433594 743.753906 724.433594 718.253906 C 724.433594 692.753906 703.714844 672.023438 678.226562 672.023438 Z M 678.226562 672.023438 "/></g><path style=" stroke:none;fill-rule:nonzero;fill:#000000;fill-opacity:1;" d="M 113.15625 719.273438 L 38.386719 719.273438 C 32.707031 719.273438 28.105469 714.671875 28.105469 708.988281 L 28.105469 648.378906 C 28.105469 642.695312 32.707031 638.089844 38.386719 638.089844 L 99.753906 638.089844 C 105.4375 638.089844 110.039062 642.695312 110.039062 648.378906 C 110.039062 654.0625 105.4375 658.664062 99.753906 658.664062 L 48.671875 658.664062 L 48.671875 698.699219 L 113.15625 698.699219 C 118.835938 698.699219 123.4375 703.304688 123.4375 708.988281 C 123.4375 714.671875 118.835938 719.273438 113.15625 719.273438 Z M 113.15625 719.273438 "/><path style=" stroke:none;fill-rule:nonzero;fill:#000000;fill-opacity:1;" d="M 552.914062 605.269531 L 68.539062 605.269531 C 62.859375 605.269531 58.257812 600.664062 58.257812 594.980469 C 58.257812 589.296875 62.859375 584.695312 68.539062 584.695312 L 542.632812 584.695312 L 542.632812 312.507812 L 528.105469 312.507812 C 522.421875 312.507812 517.824219 307.90625 517.824219 302.21875 C 517.824219 296.535156 522.421875 291.933594 528.105469 291.933594 L 552.914062 291.933594 C 558.59375 291.933594 563.195312 296.535156 563.195312 302.21875 L 563.195312 594.980469 C 563.195312 600.664062 558.59375 605.269531 552.914062 605.269531 Z M 552.914062 605.269531 "/><path style=" stroke:none;fill-rule:nonzero;fill:#000000;fill-opacity:1;" d="M 288.597656 312.507812 L 68.539062 312.507812 C 62.859375 312.507812 58.257812 307.90625 58.257812 302.21875 C 58.257812 296.535156 62.859375 291.933594 68.539062 291.933594 L 288.597656 291.933594 C 294.277344 291.933594 298.878906 296.535156 298.878906 302.21875 C 298.878906 307.90625 294.277344 312.507812 288.597656 312.507812 Z M 288.597656 312.507812 "/><path style=" stroke:none;fill-rule:nonzero;fill:#000000;fill-opacity:1;" d="M 622.554688 719.257812 L 225.3125 719.257812 C 219.632812 719.257812 215.03125 714.65625 215.03125 708.972656 C 215.03125 703.289062 219.632812 698.683594 225.3125 698.683594 L 622.554688 698.683594 C 628.238281 698.683594 632.835938 703.289062 632.835938 708.972656 C 632.835938 714.65625 628.238281 719.257812 622.554688 719.257812 Z M 622.554688 719.257812 "/><path style=" stroke:none;fill-rule:nonzero;fill:#000000;fill-opacity:1;" d="M 799.414062 719.257812 L 734.714844 719.257812 C 729.03125 719.257812 724.433594 714.65625 724.433594 708.972656 C 724.433594 703.289062 729.03125 698.683594 734.714844 698.683594 L 789.132812 698.683594 L 789.132812 597.636719 L 699.933594 438.777344 L 552.929688 438.777344 C 547.246094 438.777344 542.648438 434.175781 542.648438 428.492188 C 542.648438 422.804688 547.246094 418.203125 552.929688 418.203125 L 705.953125 418.203125 C 709.671875 418.203125 713.085938 420.210938 714.90625 423.453125 L 808.371094 589.914062 C 809.234375 591.460938 809.699219 593.1875 809.699219 594.949219 L 809.699219 708.972656 C 809.699219 714.65625 805.097656 719.257812 799.414062 719.257812 Z M 799.414062 719.257812 "/><path style=" stroke:none;fill-rule:nonzero;fill:#000000;fill-opacity:1;" d="M 552.960938 658.664062 L 237.941406 658.664062 C 232.261719 658.664062 227.660156 654.0625 227.660156 648.378906 C 227.660156 642.695312 232.261719 638.089844 237.941406 638.089844 L 542.679688 638.089844 L 542.679688 595.027344 C 542.679688 589.34375 547.277344 584.742188 552.960938 584.742188 C 558.640625 584.742188 563.242188 589.34375 563.242188 595.027344 L 563.242188 648.378906 C 563.242188 654.0625 558.640625 658.664062 552.960938 658.664062 Z M 552.960938 658.664062 "/><path style=" stroke:none;fill-rule:nonzero;fill:#000000;fill-opacity:1;" d="M 609.125 658.664062 L 552.960938 658.664062 C 547.277344 658.664062 542.679688 654.0625 542.679688 648.378906 C 542.679688 642.695312 547.277344 638.089844 552.960938 638.089844 L 609.125 638.089844 C 614.804688 638.089844 619.40625 642.695312 619.40625 648.378906 C 619.40625 654.0625 614.804688 658.664062 609.125 658.664062 Z M 609.125 658.664062 "/><g clip-rule="nonzero" clip-path="url(#525188d62e)"><path style=" stroke:none;fill-rule:nonzero;fill:#000000;fill-opacity:1;" d="M 168.75 785.058594 L 10.585938 785.058594 C 4.902344 785.058594 0.300781 780.453125 0.300781 774.769531 C 0.300781 769.085938 4.902344 764.484375 10.585938 764.484375 L 168.75 764.484375 C 174.429688 764.484375 179.03125 769.085938 179.03125 774.769531 C 179.03125 780.453125 174.429688 785.058594 168.75 785.058594 Z M 168.75 785.058594 "/></g><g clip-rule="nonzero" clip-path="url(#8ee120ae40)"><path style=" stroke:none;fill-rule:nonzero;fill:#000000;fill-opacity:1;" d="M 799.414062 785.058594 L 678.226562 785.058594 C 672.542969 785.058594 667.945312 780.453125 667.945312 774.769531 C 667.945312 769.085938 672.542969 764.484375 678.226562 764.484375 L 799.414062 764.484375 C 805.097656 764.484375 809.699219 769.085938 809.699219 774.769531 C 809.699219 780.453125 805.097656 785.058594 799.414062 785.058594 Z M 799.414062 785.058594 "/></g><path style=" stroke:none;fill-rule:nonzero;fill:#000000;fill-opacity:1;" d="M 255.417969 385.628906 L 10.585938 385.628906 C 4.902344 385.628906 0.300781 381.023438 0.300781 375.339844 C 0.300781 369.65625 4.902344 365.054688 10.585938 365.054688 L 255.417969 365.054688 C 261.101562 365.054688 265.699219 369.65625 265.699219 375.339844 C 265.699219 381.023438 261.101562 385.628906 255.417969 385.628906 Z M 255.417969 385.628906 "/><path style=" stroke:none;fill-rule:nonzero;fill:#000000;fill-opacity:1;" d="M 255.417969 532.007812 L 10.585938 532.007812 C 4.902344 532.007812 0.300781 527.40625 0.300781 521.722656 C 0.300781 516.039062 4.902344 511.433594 10.585938 511.433594 L 255.417969 511.433594 C 261.101562 511.433594 265.699219 516.039062 265.699219 521.722656 C 265.699219 527.40625 261.101562 532.007812 255.417969 532.007812 Z M 255.417969 532.007812 "/><path style=" stroke:none;fill-rule:nonzero;fill:#000000;fill-opacity:1;" d="M 197.511719 458.824219 L 68.492188 458.824219 C 62.8125 458.824219 58.210938 454.222656 58.210938 448.539062 C 58.210938 442.855469 62.8125 438.253906 68.492188 438.253906 L 197.511719 438.253906 C 203.191406 438.253906 207.792969 442.855469 207.792969 448.539062 C 207.792969 454.222656 203.191406 458.824219 197.511719 458.824219 Z M 197.511719 458.824219 "/><path style=" stroke:none;fill-rule:nonzero;fill:#000000;fill-opacity:1;" d="M 408.132812 219.367188 C 377.289062 219.367188 352.203125 194.269531 352.203125 163.410156 C 352.203125 132.546875 377.289062 107.449219 408.132812 107.449219 C 438.980469 107.449219 464.066406 132.546875 464.066406 163.410156 C 464.066406 194.269531 438.980469 219.367188 408.132812 219.367188 Z M 408.132812 128.023438 C 388.636719 128.023438 372.765625 143.902344 372.765625 163.410156 C 372.765625 182.917969 388.636719 198.796875 408.132812 198.796875 C 427.632812 198.796875 443.503906 182.917969 443.503906 163.410156 C 443.503906 143.902344 427.632812 128.023438 408.132812 128.023438 Z M 408.132812 128.023438 "/><path style=" stroke:none;fill-rule:nonzero;fill:#000000;fill-opacity:1;" d="M 408.132812 381.457031 C 404.832031 381.457031 401.726562 379.851562 399.78125 377.164062 L 318.839844 264.472656 C 311.042969 256.421875 296.285156 235.878906 290.511719 224.851562 C 289.921875 224.019531 289.492188 223.152344 289.214844 222.257812 C 280.167969 204.015625 275.394531 183.71875 275.394531 163.410156 C 275.394531 123.433594 293.148438 85.976562 324.089844 60.617188 C 355.042969 35.285156 395.628906 25.367188 435.597656 33.371094 C 486.113281 43.546875 527.222656 84.433594 537.875 135.097656 C 544.300781 165.554688 540.347656 196.046875 526.484375 223.371094 C 526.191406 224.203125 525.773438 225.007812 525.234375 225.761719 L 524.96875 226.132812 C 521.09375 233.75 511.167969 247.835938 503.726562 257.195312 C 498.09375 264.300781 492.457031 271.390625 487.164062 278.757812 L 416.484375 377.164062 C 414.539062 379.851562 411.4375 381.457031 408.132812 381.457031 Z M 308.820312 215.492188 C 313.714844 224.773438 327.390625 243.789062 334.632812 251.386719 L 408.132812 353.5625 L 470.472656 266.757812 C 475.96875 259.125 481.789062 251.757812 487.640625 244.40625 C 495.25 234.800781 503.867188 222.242188 507.371094 215.632812 C 507.449219 215.445312 507.539062 215.261719 507.648438 215.074219 C 519.785156 191.722656 523.289062 165.539062 517.777344 139.328125 C 508.777344 96.589844 474.117188 62.113281 431.554688 53.542969 C 397.683594 46.667969 363.269531 55.101562 337.101562 76.527344 C 310.949219 97.964844 295.960938 129.628906 295.960938 163.410156 C 295.960938 181.542969 300.207031 198.933594 308.605469 215.074219 C 308.679688 215.214844 308.757812 215.351562 308.820312 215.492188 Z M 308.820312 215.492188 "/></g></svg>