<svg xmlns="http://www.w3.org/2000/svg" xmlns:xlink="http://www.w3.org/1999/xlink" width="1080" zoomAndPan="magnify" viewBox="0 0 810 809.999993" height="1080" preserveAspectRatio="xMidYMid meet" version="1.2"><g id="0bdf982916"><path style=" stroke:none;fill-rule:evenodd;fill:#c6d8fb;fill-opacity:1;" d="M 691.730469 412.1875 C 693.277344 471.070312 779.65625 471.070312 781.046875 412.1875 C 779.65625 353.148438 693.277344 353.304688 691.730469 412.1875 Z M 691.730469 412.1875 "/><path style=" stroke:none;fill-rule:evenodd;fill:#c6d8fb;fill-opacity:1;" d="M 689.722656 578.945312 C 688.175781 520.0625 601.796875 520.0625 600.40625 578.945312 C 601.796875 637.984375 688.175781 637.984375 689.722656 578.945312 Z M 689.722656 578.945312 "/><path style=" stroke:none;fill-rule:evenodd;fill:#c6d8fb;fill-opacity:1;" d="M 645.066406 289.9375 C 703.9375 288.390625 703.9375 201.996094 645.066406 200.605469 C 586.035156 202.152344 586.035156 288.546875 645.066406 289.9375 Z M 645.066406 289.9375 "/><path style=" stroke:none;fill-rule:nonzero;fill:#428dff;fill-opacity:1;" d="M 381.753906 790.679688 C 284.246094 791.300781 188.132812 751.117188 123.847656 677.550781 L 88.152344 703.515625 C 83.671875 706.914062 76.5625 704.132812 75.792969 698.414062 L 39.789062 485.90625 C 38.550781 479.726562 45.660156 474.46875 51.222656 477.5625 L 243.296875 576.78125 C 248.398438 579.257812 249.015625 586.984375 244.378906 590.230469 L 211.621094 614.03125 C 289.808594 696.40625 423.785156 702.277344 519.28125 646.484375 C 522.988281 644.320312 527.933594 645.558594 530.097656 649.421875 L 575.992188 728.859375 C 578.15625 732.570312 576.765625 737.671875 573.054688 739.679688 C 514.953125 772.90625 448.507812 790.679688 381.753906 790.679688 Z M 125.085938 658.847656 C 238.042969 782.027344 409.875 810 558.066406 729.632812 L 520.054688 663.949219 C 432.59375 711.242188 318.550781 712.632812 236.191406 655.292969 C 220.890625 644.628906 206.519531 632.113281 193.847656 618.046875 C 190.757812 614.800781 191.378906 608.929688 195.085938 606.300781 L 224.753906 584.820312 L 58.019531 498.890625 L 89.082031 683.269531 C 91.863281 681.878906 122.304688 657.304688 125.085938 658.847656 Z M 125.085938 658.847656 "/><path style=" stroke:none;fill-rule:nonzero;fill:#428dff;fill-opacity:1;" d="M 105.460938 420.070312 L 13.828125 420.070312 C 9.65625 420.222656 5.792969 416.359375 5.945312 412.1875 C 4.089844 248.207031 119.523438 85.3125 284.09375 54.402344 L 279.457031 10.355469 C 278.683594 4.636719 284.863281 0 290.117188 2.164062 L 492.085938 77.429688 C 497.957031 79.4375 499.039062 88.25 493.628906 91.492188 L 311.753906 208.335938 C 307.117188 211.578125 300.007812 208.179688 299.699219 202.460938 C 299.699219 202.460938 295.527344 162.125 295.527344 162.125 C 184.886719 188.550781 112.878906 301.527344 113.339844 412.1875 C 113.339844 416.515625 109.789062 420.070312 105.460938 420.070312 Z M 21.863281 404.304688 L 97.734375 404.304688 C 100.671875 304.773438 156.300781 205.398438 247.160156 162.742188 C 264.003906 154.707031 282.082031 148.679688 300.625 144.660156 C 305.109375 143.730469 309.742188 146.976562 310.207031 151.613281 L 314.070312 188.089844 L 471.839844 86.703125 L 296.609375 21.328125 L 300.625 59.8125 C 301.089844 63.984375 298.308594 67.691406 294.136719 68.464844 C 136.210938 94.585938 23.40625 247.898438 21.863281 404.304688 Z M 21.863281 404.304688 "/><path style=" stroke:none;fill-rule:nonzero;fill:#428dff;fill-opacity:1;" d="M 691.730469 420.070312 L 573.363281 420.070312 C 563.011719 420.070312 563.011719 404.304688 573.363281 404.304688 L 691.730469 404.304688 C 702.085938 404.304688 702.238281 420.070312 691.730469 420.070312 Z M 691.730469 420.070312 "/><path style=" stroke:none;fill-rule:nonzero;fill:#428dff;fill-opacity:1;" d="M 736.542969 464.734375 C 667.160156 462.878906 667.160156 361.339844 736.542969 359.484375 C 805.773438 361.339844 805.773438 462.878906 736.542969 464.734375 Z M 736.542969 375.402344 C 688.023438 376.640625 688.023438 447.734375 736.542969 448.96875 C 785.066406 447.734375 784.910156 376.640625 736.542969 375.402344 Z M 736.542969 375.402344 "/><path style=" stroke:none;fill-rule:nonzero;fill:#428dff;fill-opacity:1;" d="M 600.40625 586.984375 L 546.941406 586.984375 C 533.035156 586.984375 521.136719 580.027344 514.335938 568.128906 C 511.554688 561.792969 499.8125 549.738281 509.546875 544.019531 C 519.433594 538.453125 523.917969 554.527344 528.089844 560.246094 C 532.105469 567.355469 538.90625 571.21875 547.09375 571.21875 L 600.5625 571.21875 C 610.605469 571.066406 610.761719 586.828125 600.40625 586.984375 Z M 600.40625 586.984375 "/><path style=" stroke:none;fill-rule:nonzero;fill:#428dff;fill-opacity:1;" d="M 645.066406 631.648438 C 575.683594 629.792969 575.683594 528.253906 645.066406 526.398438 C 714.445312 528.253906 714.292969 629.792969 645.066406 631.648438 Z M 645.066406 542.164062 C 596.542969 543.398438 596.542969 614.492188 645.066406 615.730469 C 693.585938 614.492188 693.585938 543.554688 645.066406 542.164062 Z M 645.066406 542.164062 "/><path style=" stroke:none;fill-rule:nonzero;fill:#428dff;fill-opacity:1;" d="M 513.410156 281.4375 C 507.535156 281.589844 503.363281 274.636719 506.609375 269.535156 L 514.335938 256.246094 C 521.289062 244.34375 533.1875 237.390625 546.941406 237.390625 L 600.40625 237.390625 C 604.734375 237.390625 608.289062 240.945312 608.289062 245.273438 C 608.289062 249.597656 604.734375 253.152344 600.40625 253.152344 L 546.941406 253.152344 C 538.75 253.152344 532.105469 257.019531 527.933594 264.128906 C 524.6875 268.300781 520.207031 282.363281 513.410156 281.4375 Z M 513.410156 281.4375 "/><path style=" stroke:none;fill-rule:nonzero;fill:#428dff;fill-opacity:1;" d="M 645.066406 297.972656 C 575.683594 296.117188 575.683594 194.578125 645.066406 192.726562 C 714.292969 194.578125 714.292969 296.117188 645.066406 297.972656 Z M 645.066406 208.488281 C 596.542969 209.726562 596.542969 280.820312 645.066406 282.054688 C 693.585938 280.820312 693.585938 209.726562 645.066406 208.488281 Z M 645.066406 208.488281 "/><path style=" stroke:none;fill-rule:nonzero;fill:#428dff;fill-opacity:1;" d="M 413.277344 609.703125 L 354.402344 609.703125 C 340.957031 609.703125 329.988281 598.730469 329.988281 585.285156 L 329.988281 571.527344 C 322.878906 569.210938 316.078125 566.273438 309.433594 563.027344 L 299.699219 572.765625 C 290.117188 582.347656 274.667969 582.347656 265.085938 572.765625 L 223.363281 531.035156 C 213.9375 521.917969 213.9375 505.535156 223.363281 496.417969 C 223.363281 496.417969 233.097656 486.679688 233.097656 486.679688 C 229.855469 480.035156 226.917969 473.234375 224.601562 466.125 L 210.847656 466.125 C 197.402344 466.125 186.433594 455.152344 186.433594 441.707031 L 186.433594 382.820312 C 186.433594 369.375 197.402344 358.402344 210.847656 358.402344 L 224.601562 358.402344 C 226.917969 351.449219 229.855469 344.492188 233.097656 337.847656 L 223.363281 328.109375 C 213.785156 318.527344 213.785156 303.074219 223.363281 293.492188 L 265.085938 251.761719 C 274.667969 242.179688 290.117188 242.179688 299.699219 251.761719 L 309.433594 261.5 C 316.078125 258.253906 322.878906 255.316406 329.988281 253 L 329.988281 239.246094 C 329.988281 225.796875 340.957031 214.824219 354.402344 214.824219 L 413.277344 214.824219 C 426.71875 214.824219 437.691406 225.796875 437.691406 239.246094 L 437.691406 253 C 444.644531 255.316406 451.597656 258.253906 458.242188 261.5 L 467.976562 251.761719 C 477.558594 242.179688 493.011719 242.179688 502.59375 251.761719 L 544.3125 293.492188 C 553.894531 303.074219 553.894531 318.527344 544.3125 328.109375 L 534.578125 337.847656 C 537.824219 344.492188 540.761719 351.292969 543.078125 358.402344 L 556.832031 358.402344 C 570.273438 358.402344 581.246094 369.375 581.246094 382.820312 L 581.246094 441.707031 C 581.246094 455.152344 570.273438 466.125 556.832031 466.125 L 543.078125 466.125 C 540.761719 473.234375 537.824219 480.035156 534.578125 486.679688 L 544.3125 496.417969 C 553.738281 505.535156 553.738281 521.917969 544.3125 531.035156 L 502.59375 572.765625 C 493.011719 582.347656 477.558594 582.347656 467.976562 572.765625 L 458.242188 563.027344 C 451.597656 566.273438 444.800781 569.210938 437.691406 571.527344 L 437.691406 585.285156 C 437.847656 598.730469 426.875 609.703125 413.277344 609.703125 Z M 307.890625 545.410156 C 318.707031 548.65625 328.75 555.457031 340.03125 558.082031 C 343.429688 559.164062 345.59375 562.101562 345.59375 565.65625 L 345.59375 585.128906 C 345.59375 589.921875 349.457031 593.785156 354.246094 593.785156 L 413.121094 593.785156 C 417.910156 593.785156 421.773438 589.921875 421.773438 585.128906 C 422.703125 575.390625 418.53125 560.246094 427.339844 558.082031 C 437.226562 555.144531 446.808594 551.128906 455.769531 546.335938 C 458.859375 544.636719 462.722656 545.253906 465.042969 547.726562 C 472.152344 553.292969 481.578125 570.445312 491.003906 561.484375 L 532.726562 519.753906 C 535.96875 516.507812 536.125 510.636719 532.726562 507.542969 C 526.851562 500.28125 512.789062 492.242188 517.582031 484.363281 C 522.371094 475.398438 526.390625 465.816406 529.324219 455.925781 C 530.253906 452.523438 533.34375 450.359375 536.898438 450.359375 C 546.632812 449.277344 564.710938 454.535156 565.019531 441.707031 C 565.019531 441.707031 565.019531 382.820312 565.019531 382.820312 C 565.019531 378.03125 561.15625 374.167969 556.367188 374.167969 C 546.632812 373.238281 531.488281 377.414062 529.324219 368.601562 C 526.390625 358.710938 522.371094 349.128906 517.582031 340.167969 C 515.882812 337.074219 516.5 333.367188 518.972656 330.894531 L 532.726562 317.136719 C 536.125 313.738281 536.125 308.328125 532.726562 304.929688 L 491.003906 263.199219 C 481.578125 254.234375 472.152344 271.390625 465.042969 276.953125 C 462.570312 279.425781 458.859375 280.046875 455.769531 278.347656 C 446.808594 273.554688 437.226562 269.535156 427.339844 266.601562 C 418.375 264.28125 422.546875 249.445312 421.773438 239.554688 C 421.773438 234.761719 417.910156 230.898438 413.121094 230.898438 L 354.246094 230.898438 C 341.421875 231.207031 346.519531 249.289062 345.59375 259.027344 C 345.59375 262.582031 343.277344 265.519531 340.03125 266.601562 C 330.140625 269.535156 320.5625 273.554688 311.597656 278.347656 C 303.71875 282.980469 295.835938 269.226562 288.417969 263.199219 C 285.019531 259.800781 279.613281 259.800781 276.210938 263.199219 L 234.488281 304.929688 C 225.527344 314.355469 242.523438 323.785156 248.242188 330.894531 C 250.714844 333.367188 251.332031 337.230469 249.632812 340.164062 C 244.6875 349.128906 240.824219 358.710938 237.890625 368.601562 C 235.570312 377.566406 220.738281 373.394531 210.847656 374.167969 C 206.058594 374.167969 202.195312 378.03125 202.195312 382.820312 L 202.195312 441.707031 C 203.277344 459.941406 233.40625 442.015625 237.890625 456.078125 C 240.824219 465.96875 244.84375 475.550781 249.632812 484.515625 C 251.332031 487.605469 250.714844 491.472656 248.242188 493.945312 C 242.523438 501.207031 225.527344 510.636719 234.488281 519.910156 C 234.488281 519.910156 276.210938 561.636719 276.210938 561.636719 C 279.613281 565.039062 285.019531 565.039062 288.417969 561.636719 C 292.4375 558.390625 302.480469 544.792969 307.890625 545.410156 Z M 383.917969 517.125 C 326.125 517.125 278.992188 470.144531 278.992188 412.1875 C 283.9375 273.246094 483.894531 273.398438 488.839844 412.1875 C 488.839844 469.988281 441.707031 517.125 383.917969 517.125 Z M 383.917969 323.011719 C 266.167969 326.71875 266.167969 497.5 383.917969 501.207031 C 501.664062 497.5 501.664062 326.71875 383.917969 323.011719 Z M 383.917969 323.011719 "/></g></svg>