<svg xmlns="http://www.w3.org/2000/svg" xmlns:xlink="http://www.w3.org/1999/xlink" width="1080" zoomAndPan="magnify" viewBox="0 0 810 809.999993" height="1080" preserveAspectRatio="xMidYMid meet" version="1.2"><g id="62bbf651d6"><path style=" stroke:none;fill-rule:nonzero;fill:#ffffff;fill-opacity:1;" d="M 405 661.5 C 263.355469 661.5 148.5 546.644531 148.5 405 C 148.5 263.355469 263.355469 148.5 405 148.5 C 546.644531 148.5 661.5 263.355469 661.5 405 C 661.5 546.644531 546.644531 661.5 405 661.5 Z M 796.5 445.5 L 796.5 364.5 L 737.910156 349.839844 C 734.324219 327.851562 728.578125 306.597656 720.929688 286.242188 L 764.277344 244.320312 L 723.777344 174.183594 L 665.769531 190.792969 C 651.796875 173.761719 636.238281 158.203125 619.207031 144.230469 L 635.816406 86.222656 L 565.679688 45.722656 L 523.757812 89.070312 C 503.402344 81.421875 482.148438 75.675781 460.160156 72.089844 L 445.5 13.5 L 364.5 13.5 L 349.839844 72.089844 C 327.847656 75.675781 306.597656 81.421875 286.242188 89.070312 L 244.316406 45.722656 L 174.179688 86.222656 L 190.792969 144.230469 C 173.757812 158.203125 158.203125 173.761719 144.226562 190.792969 L 86.21875 174.183594 L 45.722656 244.320312 L 89.066406 286.242188 C 81.421875 306.597656 75.675781 327.851562 72.035156 349.839844 L 13.5 364.5 L 13.5 445.5 L 72.035156 460.160156 C 75.675781 482.148438 81.421875 503.402344 89.066406 523.757812 L 45.722656 565.679688 L 86.21875 635.816406 L 144.226562 619.207031 C 158.203125 636.238281 173.757812 651.796875 190.792969 665.769531 L 174.179688 723.777344 L 244.316406 764.277344 L 286.242188 720.929688 C 306.597656 728.578125 327.847656 734.324219 349.839844 737.964844 L 364.5 796.5 L 445.5 796.5 L 460.160156 737.964844 C 482.148438 734.324219 503.402344 728.578125 523.757812 720.929688 L 565.679688 764.277344 L 635.816406 723.777344 L 619.207031 665.769531 C 636.238281 651.796875 651.796875 636.238281 665.769531 619.207031 L 723.777344 635.816406 L 764.277344 565.679688 L 720.929688 523.757812 C 728.578125 503.402344 734.324219 482.148438 737.910156 460.160156 L 796.5 445.5 "/><path style=" stroke:none;fill-rule:nonzero;fill:#cbe889;fill-opacity:1;" d="M 526.078125 630.964844 C 490.058594 650.582031 448.714844 661.5 405 661.5 C 263.40625 661.5 148.5 546.589844 148.5 405 C 148.5 368.035156 156.355469 332.808594 170.648438 301.0625 C 164.953125 273.535156 162 245.164062 162 216 C 162 199.8125 162.949219 183.726562 164.6875 167.960938 C 157.515625 175.238281 150.660156 182.777344 144.175781 190.742188 L 86.273438 174.183594 L 45.773438 244.320312 L 89.121094 286.191406 C 81.421875 306.597656 75.726562 327.902344 72.089844 349.894531 L 13.5 364.5 L 13.5 445.5 L 72.089844 460.105469 C 75.726562 482.097656 81.421875 503.402344 89.121094 523.808594 L 45.773438 565.679688 L 86.273438 635.816406 L 144.175781 619.257812 C 158.203125 636.238281 173.757812 651.796875 190.738281 665.824219 L 174.128906 723.726562 L 244.371094 764.226562 L 286.1875 720.878906 C 306.597656 728.578125 327.902344 734.273438 349.890625 737.910156 L 364.5 796.5 L 445.5 796.5 L 460.105469 737.910156 C 482.097656 734.273438 503.402344 728.578125 523.808594 720.878906 L 565.679688 764.226562 L 635.816406 723.726562 L 619.257812 665.824219 C 633.550781 653.957031 646.785156 641.089844 658.914062 627.222656 C 633.550781 631.914062 607.339844 634.5 580.5 634.5 C 561.988281 634.5 543.902344 633.285156 526.078125 630.964844 "/><path style=" stroke:none;fill-rule:nonzero;fill:#cbe889;fill-opacity:1;" d="M 405 661.5 C 263.355469 661.5 148.5 546.644531 148.5 405 C 148.5 263.355469 263.355469 148.5 405 148.5 C 546.644531 148.5 661.5 263.355469 661.5 405 C 661.5 546.644531 546.644531 661.5 405 661.5 Z M 405 108 C 240.941406 108 108 240.945312 108 405 C 108 569.054688 240.941406 702 405 702 C 569.054688 702 702 569.054688 702 405 C 702 240.945312 569.054688 108 405 108 "/><path style=" stroke:none;fill-rule:nonzero;fill:#ffffff;fill-opacity:1;" d="M 486 410.644531 L 486 391.5 L 405 391.5 L 405 410.644531 C 405 423.402344 396.824219 434.742188 384.75 438.75 C 372.671875 442.757812 364.5 454.097656 364.5 466.855469 L 364.5 567 L 526.5 567 L 526.5 466.855469 C 526.5 454.097656 518.324219 442.757812 506.25 438.75 C 494.171875 434.742188 486 423.402344 486 410.644531 "/><path style=" stroke:none;fill-rule:nonzero;fill:#75c591;fill-opacity:1;" d="M 513 391.5 L 378 391.5 L 378 337.5 L 513 337.5 L 513 391.5 "/><path style=" stroke:none;fill-rule:nonzero;fill:#cbe889;fill-opacity:1;" d="M 526.5 526.5 L 526.5 567 L 364.5 567 L 364.5 466.855469 C 364.5 454.148438 372.621094 442.808594 384.75 438.75 C 396.878906 434.691406 405 423.351562 405 410.644531 L 405 391.5 L 486 391.5 L 486 410.644531 L 467.226562 410.644531 C 456.835938 410.644531 446.816406 415.917969 441.703125 424.988281 C 438.222656 431.316406 432.421875 436.324219 425.25 438.75 C 413.121094 442.808594 405 454.148438 405 466.855469 L 405 472.5 C 405 502.347656 429.152344 526.5 459 526.5 L 526.5 526.5 "/><path style=" stroke:none;fill-rule:nonzero;fill:#ffffff;fill-opacity:1;" d="M 318.566406 436.800781 L 248.429688 396.300781 L 329.429688 256.027344 L 399.566406 296.527344 L 318.566406 436.800781 "/><path style=" stroke:none;fill-rule:nonzero;fill:#cbe889;fill-opacity:1;" d="M 399.515625 296.472656 L 318.515625 436.851562 L 248.484375 396.351562 L 258.292969 379.214844 L 264.515625 382.851562 C 290.460938 397.722656 323.367188 388.917969 338.34375 363.023438 L 382.535156 286.613281 L 399.515625 296.472656 "/><path style=" stroke:none;fill-rule:nonzero;fill:#75c591;fill-opacity:1;" d="M 279.859375 476.824219 L 233.136719 449.824219 L 260.136719 403.050781 L 306.859375 430.050781 L 279.859375 476.824219 "/><path style=" stroke:none;fill-rule:nonzero;fill:#a6de99;fill-opacity:1;" d="M 387.859375 289.777344 L 341.136719 262.777344 L 368.136719 216 L 414.859375 243 L 387.859375 289.777344 "/><path style=" stroke:none;fill-rule:nonzero;fill:#75c591;fill-opacity:1;" d="M 248.429688 396.300781 L 318.566406 436.800781 L 372.566406 343.246094 L 302.429688 302.75 L 248.429688 396.300781 "/><path style=" stroke:none;fill-rule:nonzero;fill:#418786;fill-opacity:1;" d="M 783 434.953125 L 734.640625 447.027344 C 729.421875 448.347656 725.464844 452.621094 724.621094 457.945312 C 721.195312 478.828125 715.710938 499.339844 708.328125 519.011719 C 706.429688 524.019531 707.695312 529.714844 711.542969 533.460938 L 747.351562 568.054688 L 717.398438 619.945312 L 669.515625 606.234375 C 664.347656 604.808594 658.757812 606.496094 655.328125 610.664062 C 641.988281 626.957031 626.957031 641.988281 610.664062 655.328125 C 606.496094 658.757812 604.757812 664.347656 606.234375 669.515625 L 619.945312 717.398438 L 568.054688 747.351562 L 533.460938 711.542969 C 529.714844 707.695312 524.074219 706.375 519.011719 708.328125 C 499.339844 715.710938 478.828125 721.195312 457.945312 724.621094 C 452.617188 725.464844 448.347656 729.421875 447.027344 734.640625 L 434.953125 783 L 375.046875 783 L 362.96875 734.640625 C 361.652344 729.421875 357.378906 725.464844 352.054688 724.621094 C 331.171875 721.195312 310.65625 715.710938 290.988281 708.328125 C 285.976562 706.429688 280.28125 707.695312 276.539062 711.542969 L 241.945312 747.351562 L 190.054688 717.398438 L 203.765625 669.515625 C 205.242188 664.347656 203.5 658.757812 199.335938 655.328125 C 183.09375 641.988281 168.011719 626.957031 154.667969 610.664062 C 151.242188 606.496094 145.652344 604.808594 140.484375 606.234375 L 92.601562 619.945312 L 62.648438 568.054688 L 98.453125 533.460938 C 102.304688 529.714844 103.570312 524.019531 101.671875 519.011719 C 94.289062 499.339844 88.804688 478.828125 85.375 457.945312 C 84.480469 452.621094 80.578125 448.347656 75.355469 447.027344 L 27 434.953125 L 27 375.046875 L 75.355469 362.972656 C 80.578125 361.652344 84.480469 357.378906 85.375 352.054688 C 88.804688 331.171875 94.289062 310.660156 101.671875 290.988281 C 103.570312 285.980469 102.304688 280.285156 98.453125 276.539062 L 62.648438 241.945312 L 92.601562 190.054688 L 140.484375 203.765625 C 145.652344 205.191406 151.242188 203.503906 154.667969 199.335938 C 168.011719 183.042969 183.09375 168.011719 199.335938 154.671875 C 203.5 151.242188 205.242188 145.652344 203.765625 140.484375 L 190.054688 92.601562 L 241.945312 62.648438 L 276.539062 98.457031 C 280.28125 102.304688 285.976562 103.625 290.988281 101.671875 C 310.65625 94.289062 331.171875 88.804688 352.054688 85.378906 C 357.378906 84.535156 361.652344 80.578125 362.96875 75.359375 L 375.046875 27 L 434.953125 27 L 447.027344 75.359375 C 448.347656 80.578125 452.617188 84.535156 457.945312 85.378906 C 478.828125 88.804688 499.339844 94.289062 519.011719 101.671875 C 524.019531 103.570312 529.714844 102.304688 533.460938 98.457031 L 568.054688 62.648438 L 619.945312 92.601562 L 606.234375 140.484375 C 604.757812 145.652344 606.496094 151.242188 610.664062 154.671875 C 626.957031 168.011719 641.988281 183.042969 655.328125 199.335938 C 658.757812 203.503906 664.347656 205.191406 669.515625 203.765625 L 717.398438 190.054688 L 747.351562 241.945312 L 711.542969 276.539062 C 707.695312 280.285156 706.429688 285.980469 708.328125 290.988281 C 715.710938 310.660156 721.195312 331.171875 724.621094 352.054688 C 725.464844 357.378906 729.421875 361.652344 734.640625 362.972656 L 783 375.046875 Z M 799.769531 351.421875 L 749.671875 338.871094 C 746.507812 322.207031 742.128906 305.808594 736.59375 289.882812 L 773.664062 254.023438 C 778.148438 249.699219 779.097656 242.949219 775.984375 237.570312 L 735.484375 167.433594 C 732.375 162.054688 726.046875 159.523438 720.085938 161.210938 L 670.464844 175.394531 C 659.390625 162.582031 647.417969 150.609375 634.605469 139.535156 L 648.789062 89.914062 C 650.476562 83.953125 647.945312 77.574219 642.566406 74.515625 L 572.429688 34.015625 C 567.105469 30.902344 560.300781 31.851562 555.976562 36.335938 L 520.117188 73.40625 C 504.191406 67.871094 487.792969 63.492188 471.128906 60.328125 L 458.578125 10.230469 C 457.101562 4.21875 451.722656 0 445.5 0 L 364.5 0 C 358.277344 0 352.898438 4.21875 351.421875 10.230469 L 338.871094 60.328125 C 322.207031 63.492188 305.804688 67.871094 289.878906 73.40625 L 254.019531 36.335938 C 249.75 31.851562 242.945312 30.902344 237.566406 34.015625 L 167.429688 74.515625 C 162.050781 77.574219 159.519531 83.953125 161.207031 89.914062 L 175.394531 139.535156 C 162.632812 150.609375 150.609375 162.582031 139.535156 175.394531 L 89.910156 161.210938 C 83.953125 159.574219 77.625 162.054688 74.515625 167.433594 L 34.015625 237.570312 C 30.902344 242.949219 31.851562 249.699219 36.335938 254.023438 L 73.40625 289.882812 C 67.871094 305.808594 63.492188 322.207031 60.277344 338.871094 L 10.230469 351.421875 C 4.21875 352.898438 0 358.277344 0 364.5 L 0 445.5 C 0 451.722656 4.21875 457.101562 10.230469 458.578125 L 60.277344 471.128906 C 63.492188 487.792969 67.871094 504.191406 73.40625 520.117188 L 36.335938 555.976562 C 31.851562 560.300781 30.902344 567.050781 34.015625 572.429688 L 74.515625 642.566406 C 77.625 647.945312 83.953125 650.476562 89.910156 648.789062 L 139.535156 634.605469 C 150.609375 647.417969 162.632812 659.390625 175.394531 670.464844 L 161.207031 720.085938 C 159.519531 726.046875 162.050781 732.375 167.429688 735.484375 L 237.566406 775.984375 C 242.945312 779.042969 249.695312 778.148438 254.019531 773.71875 L 289.878906 736.59375 C 305.804688 742.128906 322.207031 746.507812 338.871094 749.671875 L 351.421875 799.769531 C 352.898438 805.78125 358.277344 810 364.5 810 L 445.5 810 C 451.722656 810 457.101562 805.78125 458.578125 799.769531 L 471.128906 749.671875 C 487.792969 746.507812 504.191406 742.128906 520.117188 736.59375 L 555.976562 773.71875 C 560.300781 778.148438 567.105469 779.042969 572.429688 775.984375 L 642.566406 735.484375 C 647.945312 732.375 650.476562 726.046875 648.789062 720.085938 L 634.605469 670.464844 C 647.417969 659.390625 659.390625 647.417969 670.464844 634.605469 L 720.085938 648.789062 C 726.046875 650.476562 732.375 647.945312 735.484375 642.566406 L 775.984375 572.429688 C 779.097656 567.050781 778.148438 560.300781 773.664062 555.976562 L 736.59375 520.117188 C 742.128906 504.191406 746.507812 487.792969 749.671875 471.128906 L 799.769531 458.578125 C 805.78125 457.101562 810 451.722656 810 445.5 L 810 364.5 C 810 358.277344 805.78125 352.898438 799.769531 351.421875 "/><path style=" stroke:none;fill-rule:nonzero;fill:#418786;fill-opacity:1;" d="M 405 648 C 271 648 162 538.996094 162 405 C 162 271.003906 271 162 405 162 C 538.996094 162 648 271.003906 648 405 C 648 538.996094 538.996094 648 405 648 Z M 405 135 C 256.128906 135 135 256.132812 135 405 C 135 553.867188 256.128906 675 405 675 C 553.867188 675 675 553.867188 675 405 C 675 256.132812 553.867188 135 405 135 "/><path style=" stroke:none;fill-rule:nonzero;fill:#418786;fill-opacity:1;" d="M 482.941406 210.726562 C 475.980469 207.933594 468.121094 211.359375 465.378906 218.269531 C 462.585938 225.175781 465.960938 233.035156 472.867188 235.828125 C 542.320312 263.671875 587.25 330.117188 587.25 405 C 587.25 439.542969 577.546875 473.183594 559.195312 502.242188 C 555.1875 508.515625 557.085938 516.847656 563.359375 520.855469 C 565.628906 522.226562 568.105469 522.914062 570.585938 522.914062 C 575.066406 522.914062 579.445312 520.699219 582.027344 516.636719 C 603.070312 483.257812 614.25 444.65625 614.25 405 C 614.25 319.042969 562.675781 242.738281 482.941406 210.726562 "/><path style=" stroke:none;fill-rule:nonzero;fill:#418786;fill-opacity:1;" d="M 228.972656 357.539062 C 237.09375 327.480469 252.964844 299.742188 274.902344 277.382812 C 280.125 272.058594 280.019531 263.515625 274.691406 258.292969 C 269.417969 253.019531 260.875 253.179688 255.601562 258.453125 C 230.449219 284.132812 212.203125 315.984375 202.921875 350.527344 C 200.96875 357.699219 205.242188 365.132812 212.414062 367.082031 C 213.625 367.402344 214.785156 367.503906 215.945312 367.503906 C 221.90625 367.503906 227.390625 363.550781 228.972656 357.539062 "/><path style=" stroke:none;fill-rule:nonzero;fill:#418786;fill-opacity:1;" d="M 322.363281 567.472656 C 305.121094 558.71875 289.457031 547.222656 275.746094 533.511719 C 270.472656 528.1875 261.929688 528.132812 256.65625 533.460938 C 251.382812 538.679688 251.332031 547.222656 256.605469 552.496094 C 272.320312 568.316406 290.300781 581.449219 310.078125 591.574219 C 312.082031 592.574219 314.191406 592.996094 316.246094 592.996094 C 321.152344 592.996094 325.898438 590.308594 328.269531 585.667969 C 331.644531 579.023438 329.007812 570.902344 322.363281 567.472656 "/><path style=" stroke:none;fill-rule:nonzero;fill:#418786;fill-opacity:1;" d="M 510.679688 558.085938 L 375.679688 558.085938 L 375.679688 471.445312 C 375.679688 464.484375 380.109375 458.367188 386.699219 456.152344 C 404.3125 450.300781 416.179688 433.847656 416.179688 415.230469 L 416.179688 409.589844 L 470.179688 409.589844 L 470.179688 415.230469 C 470.179688 433.847656 482.042969 450.300781 499.65625 456.152344 C 506.25 458.367188 510.679688 464.484375 510.679688 471.445312 Z M 497.179688 382.589844 L 389.179688 382.589844 L 389.179688 355.589844 L 497.179688 355.589844 Z M 311.289062 422.980469 L 264.566406 395.980469 L 278.066406 372.566406 L 301.429688 386.066406 C 303.539062 387.332031 305.859375 387.863281 308.179688 387.863281 C 312.820312 387.863281 317.355469 385.433594 319.886719 381.113281 C 323.578125 374.675781 321.363281 366.449219 314.929688 362.707031 L 291.566406 349.207031 L 305.066406 325.847656 L 351.789062 352.847656 Z M 272.636719 462.957031 L 249.222656 449.457031 L 262.722656 426.09375 L 286.136719 439.59375 Z M 332.066406 279.070312 L 378.789062 306.070312 L 365.289062 329.433594 L 318.566406 302.433594 Z M 370.722656 239.046875 L 394.136719 252.546875 L 380.636719 275.90625 L 357.222656 262.40625 Z M 508.199219 430.523438 C 501.609375 428.308594 497.179688 422.191406 497.179688 415.230469 L 497.179688 409.589844 L 510.679688 409.589844 C 518.167969 409.589844 524.179688 403.574219 524.179688 396.089844 L 524.179688 342.089844 C 524.179688 334.597656 518.167969 328.589844 510.679688 328.589844 L 396.984375 328.589844 L 408.953125 307.863281 C 410.746094 304.753906 411.222656 301.0625 410.273438 297.632812 C 409.375 294.152344 407.109375 291.199219 403.996094 289.40625 L 417.496094 266.046875 L 429.203125 272.796875 C 431.3125 274.007812 433.632812 274.589844 435.902344 274.589844 C 440.59375 274.589844 445.128906 272.164062 447.609375 267.839844 C 451.351562 261.351562 449.136719 253.125 442.703125 249.382812 L 349.152344 195.382812 C 342.71875 191.691406 334.441406 193.851562 330.695312 200.339844 C 327.003906 206.824219 329.21875 215.050781 335.652344 218.796875 L 347.359375 225.546875 L 333.859375 248.90625 C 327.375 245.164062 319.148438 247.378906 315.402344 253.863281 L 234.402344 394.136719 C 232.609375 397.246094 232.136719 400.941406 233.085938 404.417969 C 233.980469 407.847656 236.25 410.800781 239.359375 412.59375 L 219.109375 447.660156 C 215.367188 454.148438 217.582031 462.375 224.066406 466.117188 L 235.722656 472.867188 L 215.472656 507.9375 C 211.78125 514.371094 213.941406 522.648438 220.429688 526.394531 C 222.539062 527.605469 224.859375 528.1875 227.179688 528.1875 C 231.820312 528.1875 236.355469 525.761719 238.886719 521.4375 L 259.136719 486.367188 L 270.789062 493.117188 C 272.898438 494.277344 275.21875 494.910156 277.539062 494.910156 C 278.753906 494.910156 279.914062 494.753906 281.074219 494.488281 C 284.5 493.539062 287.453125 491.273438 289.246094 488.160156 L 309.496094 453.09375 C 311.660156 454.308594 313.980469 454.886719 316.246094 454.886719 C 320.886719 454.886719 325.421875 452.511719 327.953125 448.136719 L 362.179688 388.863281 L 362.179688 396.089844 C 362.179688 403.574219 368.242188 409.589844 375.679688 409.589844 L 389.179688 409.589844 L 389.179688 415.230469 C 389.179688 422.191406 384.75 428.308594 378.15625 430.523438 C 360.542969 436.429688 348.679688 452.832031 348.679688 471.445312 L 348.679688 571.585938 C 348.679688 579.074219 354.742188 585.085938 362.179688 585.085938 L 524.179688 585.085938 C 531.667969 585.085938 537.679688 579.074219 537.679688 571.585938 L 537.679688 471.445312 C 537.679688 452.832031 525.8125 436.429688 508.199219 430.523438 "/><path style=" stroke:none;fill-rule:nonzero;fill:#418786;fill-opacity:1;" d="M 470.179688 477.085938 L 456.679688 477.085938 L 456.679688 463.589844 C 456.679688 456.097656 450.667969 450.089844 443.179688 450.089844 C 435.742188 450.089844 429.679688 456.097656 429.679688 463.589844 L 429.679688 477.085938 L 416.179688 477.085938 C 408.742188 477.085938 402.679688 483.097656 402.679688 490.585938 C 402.679688 498.074219 408.742188 504.085938 416.179688 504.085938 L 429.679688 504.085938 L 429.679688 517.585938 C 429.679688 525.074219 435.742188 531.085938 443.179688 531.085938 C 450.667969 531.085938 456.679688 525.074219 456.679688 517.585938 L 456.679688 504.085938 L 470.179688 504.085938 C 477.667969 504.085938 483.679688 498.074219 483.679688 490.585938 C 483.679688 483.097656 477.667969 477.085938 470.179688 477.085938 "/></g></svg>