<svg xmlns="http://www.w3.org/2000/svg" xmlns:xlink="http://www.w3.org/1999/xlink" width="1080" zoomAndPan="magnify" viewBox="0 0 810 809.999993" height="1080" preserveAspectRatio="xMidYMid meet" version="1.2"><defs><clipPath id="930f463667"><path d="M 771.1875 108 L 688.5 108 L 688.5 83.488281 C 688.5 59.785156 669.214844 40.5 645.511719 40.5 L 505.089844 40.5 L 509.042969 36.546875 C 514.316406 31.273438 514.316406 22.726562 509.042969 17.453125 C 503.773438 12.183594 495.226562 12.183594 489.953125 17.453125 L 462.953125 44.453125 C 457.679688 49.726562 457.679688 58.273438 462.953125 63.546875 L 489.953125 90.546875 C 492.589844 93.183594 496.046875 94.5 499.5 94.5 C 502.953125 94.5 506.410156 93.183594 509.046875 90.546875 C 514.320312 85.273438 514.320312 76.726562 509.046875 71.453125 L 505.09375 67.5 L 645.511719 67.5 C 654.328125 67.5 661.5 74.671875 661.5 83.488281 L 661.5 108 L 432 108 L 432 61.773438 C 432 27.710938 404.289062 0 370.226562 0 L 115.773438 0 C 81.710938 0 54 27.710938 54 61.773438 L 54 108 L 38.8125 108 C 17.410156 108 0 125.410156 0 146.8125 L 0 609.1875 C 0 630.589844 17.410156 648 38.8125 648 L 332.582031 648 C 333.644531 671.832031 326.816406 695.609375 312.699219 715.5 L 286.472656 715.5 C 271.882812 715.5 258.285156 722.035156 249.167969 733.429688 L 220.808594 768.878906 C 214.675781 776.542969 213.507812 786.804688 217.761719 795.652344 C 222.011719 804.503906 230.753906 810 240.574219 810 L 569.425781 810 C 579.242188 810 587.984375 804.503906 592.238281 795.652344 C 596.492188 786.804688 595.324219 776.542969 589.191406 768.878906 L 560.832031 733.429688 C 551.714844 722.035156 538.117188 715.5 523.527344 715.5 L 497.300781 715.5 C 483.183594 695.609375 476.332031 671.832031 477.394531 648 L 771.1875 648 C 792.589844 648 810 630.589844 810 609.1875 L 810 146.8125 C 810 125.410156 792.589844 108 771.1875 108 Z M 439.773438 189 L 694.226562 189 C 713.398438 189 729 204.597656 729 223.773438 L 729 451.226562 C 729 470.398438 713.398438 486 694.226562 486 L 439.773438 486 C 420.597656 486 405 470.402344 405 451.226562 L 405 223.773438 C 405 204.597656 420.597656 189 439.773438 189 Z M 81 61.773438 C 81 42.597656 96.597656 27 115.773438 27 L 370.226562 27 C 389.402344 27 405 42.597656 405 61.773438 L 405 172.746094 C 388.714844 183.882812 378 202.597656 378 223.773438 L 378 323.105469 C 375.5 323.683594 372.902344 324 370.226562 324 L 115.773438 324 C 96.597656 324 81 308.402344 81 289.226562 Z M 38.8125 135 L 54 135 L 54 289.226562 C 54 323.289062 81.710938 351 115.773438 351 L 370.226562 351 C 372.863281 351 375.453125 350.816406 378 350.492188 L 378 451.226562 C 378 485.289062 405.710938 513 439.773438 513 L 694.226562 513 C 728.289062 513 756 485.289062 756 451.226562 L 756 223.773438 C 756 189.710938 728.289062 162 694.226562 162 L 439.773438 162 C 437.136719 162 434.546875 162.183594 432 162.507812 L 432 135 L 661.5 135 C 661.5 142.457031 667.542969 148.5 675 148.5 C 682.457031 148.5 688.5 142.457031 688.5 135 L 771.1875 135 C 777.703125 135 783 140.300781 783 146.8125 L 783 540 L 27 540 L 27 146.8125 C 27 140.300781 32.296875 135 38.8125 135 Z M 539.75 750.296875 L 565.910156 783 L 244.089844 783 L 270.25 750.296875 C 274.214844 745.339844 280.128906 742.5 286.472656 742.5 L 523.527344 742.5 C 529.871094 742.5 535.785156 745.34375 539.75 750.296875 Z M 465.746094 715.5 L 344.21875 715.5 C 355.160156 694.617188 360.433594 671.355469 359.609375 648 L 450.402344 648 C 449.574219 671.351562 454.8125 694.621094 465.746094 715.5 Z M 771.1875 621 L 38.8125 621 C 32.296875 621 27 615.699219 27 609.1875 L 27 567 L 783 567 L 783 609.1875 C 783 615.699219 777.703125 621 771.1875 621 Z M 499.5 594 C 499.5 601.457031 493.457031 607.5 486 607.5 L 324 607.5 C 316.542969 607.5 310.5 601.457031 310.5 594 C 310.5 586.542969 316.542969 580.5 324 580.5 L 486 580.5 C 493.457031 580.5 499.5 586.542969 499.5 594 Z M 769.5 594 C 769.5 601.457031 763.457031 607.5 756 607.5 L 729 607.5 C 721.542969 607.5 715.5 601.457031 715.5 594 C 715.5 586.542969 721.542969 580.5 729 580.5 L 756 580.5 C 763.457031 580.5 769.5 586.542969 769.5 594 Z M 702 594 C 702 601.457031 695.957031 607.5 688.5 607.5 L 661.5 607.5 C 654.042969 607.5 648 601.457031 648 594 C 648 586.542969 654.042969 580.5 661.5 580.5 L 688.5 580.5 C 695.957031 580.5 702 586.542969 702 594 Z M 634.5 594 C 634.5 601.457031 628.457031 607.5 621 607.5 L 594 607.5 C 586.542969 607.5 580.5 601.457031 580.5 594 C 580.5 586.542969 586.542969 580.5 594 580.5 L 621 580.5 C 628.457031 580.5 634.5 586.542969 634.5 594 Z M 121.5 429.511719 L 121.5 378 C 121.5 370.542969 127.542969 364.5 135 364.5 C 142.457031 364.5 148.5 370.542969 148.5 378 L 148.5 429.511719 C 148.5 438.328125 155.671875 445.5 164.488281 445.5 L 304.910156 445.5 L 300.957031 441.546875 C 295.683594 436.273438 295.683594 427.726562 300.957031 422.453125 C 306.226562 417.183594 314.773438 417.183594 320.046875 422.453125 L 347.046875 449.453125 C 352.320312 454.726562 352.320312 463.273438 347.046875 468.546875 L 320.046875 495.546875 C 317.410156 498.183594 313.953125 499.5 310.5 499.5 C 307.046875 499.5 303.589844 498.183594 300.953125 495.546875 C 295.679688 490.273438 295.679688 481.726562 300.953125 476.453125 L 304.90625 472.5 L 164.488281 472.5 C 140.785156 472.5 121.5 453.214844 121.5 429.511719 Z M 143.089844 295.867188 C 149.917969 298.859375 157.878906 295.746094 160.867188 288.910156 L 186.859375 229.5 L 299.140625 229.5 L 325.132812 288.910156 C 327.351562 293.980469 332.304688 297.003906 337.507812 297.003906 C 339.3125 297.003906 341.148438 296.640625 342.910156 295.867188 C 349.742188 292.878906 352.859375 284.917969 349.871094 278.089844 L 255.371094 62.089844 C 253.21875 57.175781 248.363281 54 243 54 C 237.636719 54 232.78125 57.175781 230.632812 62.089844 L 136.132812 278.089844 C 133.144531 284.917969 136.257812 292.878906 143.089844 295.867188 Z M 243 101.179688 L 287.328125 202.5 L 198.671875 202.5 Z M 459 283.5 C 459 276.042969 465.042969 270 472.5 270 L 553.5 270 L 553.5 243 C 553.5 235.542969 559.542969 229.5 567 229.5 C 574.457031 229.5 580.5 235.542969 580.5 243 L 580.5 270 L 661.5 270 C 668.957031 270 675 276.042969 675 283.5 C 675 290.957031 668.957031 297 661.5 297 L 633.867188 297 C 630.21875 336.421875 610.742188 373.261719 580 398.4375 C 593.214844 407.894531 608.1875 414.882812 624.277344 418.902344 C 631.507812 420.710938 635.90625 428.042969 634.097656 435.273438 C 632.566406 441.40625 627.058594 445.503906 621.011719 445.503906 C 619.929688 445.503906 618.828125 445.371094 617.726562 445.097656 C 595.570312 439.558594 575.167969 429.351562 557.671875 415.375 L 521.101562 442.800781 C 518.671875 444.621094 515.828125 445.5 513.011719 445.5 C 508.90625 445.5 504.855469 443.636719 502.203125 440.101562 C 497.726562 434.136719 498.9375 425.671875 504.902344 421.199219 L 537.835938 396.5 C 533.179688 391.214844 528.84375 385.605469 524.890625 379.675781 L 501.769531 344.988281 C 497.632812 338.785156 499.308594 330.402344 505.511719 326.269531 C 511.714844 322.132812 520.097656 323.808594 524.234375 330.011719 L 547.355469 364.699219 C 551.035156 370.214844 555.113281 375.386719 559.519531 380.222656 C 585.972656 360.113281 603.019531 329.746094 606.730469 297 L 472.5 297 C 465.042969 297 459 290.957031 459 283.5 Z M 459 283.5 "/></clipPath><linearGradient x1="1.995014" gradientTransform="matrix(1.6875,0,0,1.6875,-26.999996,-26.99998)" y1="481.994994" x2="481.994994" gradientUnits="userSpaceOnUse" y2="1.995014" id="25d66e2e2d"><stop style="stop-color:#5ebce5;stop-opacity:1;" offset="0"/><stop style="stop-color:#5ebce5;stop-opacity:1;" offset="0.0625"/><stop style="stop-color:#5ebce5;stop-opacity:1;" offset="0.09375"/><stop style="stop-color:#5ebce5;stop-opacity:1;" offset="0.109375"/><stop style="stop-color:#5ebce5;stop-opacity:1;" offset="0.117187"/><stop style="stop-color:#60bbe5;stop-opacity:1;" offset="0.121094"/><stop style="stop-color:#60bae5;stop-opacity:1;" offset="0.125"/><stop style="stop-color:#61bae5;stop-opacity:1;" offset="0.128906"/><stop style="stop-color:#62b9e5;stop-opacity:1;" offset="0.132812"/><stop style="stop-color:#63b8e5;stop-opacity:1;" offset="0.136719"/><stop style="stop-color:#64b8e5;stop-opacity:1;" offset="0.140625"/><stop style="stop-color:#64b7e5;stop-opacity:1;" offset="0.144531"/><stop style="stop-color:#65b6e5;stop-opacity:1;" offset="0.148437"/><stop style="stop-color:#66b6e5;stop-opacity:1;" offset="0.152344"/><stop style="stop-color:#67b5e5;stop-opacity:1;" offset="0.15625"/><stop style="stop-color:#68b5e5;stop-opacity:1;" offset="0.160156"/><stop style="stop-color:#69b4e5;stop-opacity:1;" offset="0.164062"/><stop style="stop-color:#69b3e5;stop-opacity:1;" offset="0.167969"/><stop style="stop-color:#6ab3e5;stop-opacity:1;" offset="0.171875"/><stop style="stop-color:#6bb2e5;stop-opacity:1;" offset="0.175781"/><stop style="stop-color:#6cb1e5;stop-opacity:1;" offset="0.179687"/><stop style="stop-color:#6db1e5;stop-opacity:1;" offset="0.183594"/><stop style="stop-color:#6db0e5;stop-opacity:1;" offset="0.1875"/><stop style="stop-color:#6eafe5;stop-opacity:1;" offset="0.191406"/><stop style="stop-color:#6fafe5;stop-opacity:1;" offset="0.195312"/><stop style="stop-color:#70aee5;stop-opacity:1;" offset="0.199219"/><stop style="stop-color:#71aee5;stop-opacity:1;" offset="0.203125"/><stop style="stop-color:#72ade5;stop-opacity:1;" offset="0.207031"/><stop style="stop-color:#72ace5;stop-opacity:1;" offset="0.210938"/><stop style="stop-color:#73ace5;stop-opacity:1;" offset="0.214844"/><stop style="stop-color:#74abe5;stop-opacity:1;" offset="0.21875"/><stop style="stop-color:#75aae5;stop-opacity:1;" offset="0.222656"/><stop style="stop-color:#76aae5;stop-opacity:1;" offset="0.226562"/><stop style="stop-color:#76a9e5;stop-opacity:1;" offset="0.230469"/><stop style="stop-color:#77a9e5;stop-opacity:1;" offset="0.234375"/><stop style="stop-color:#78a8e5;stop-opacity:1;" offset="0.238281"/><stop style="stop-color:#79a7e5;stop-opacity:1;" offset="0.242187"/><stop style="stop-color:#7aa7e5;stop-opacity:1;" offset="0.246094"/><stop style="stop-color:#7aa6e5;stop-opacity:1;" offset="0.25"/><stop style="stop-color:#7ba5e5;stop-opacity:1;" offset="0.253906"/><stop style="stop-color:#7ca5e5;stop-opacity:1;" offset="0.257812"/><stop style="stop-color:#7da4e5;stop-opacity:1;" offset="0.261719"/><stop style="stop-color:#7ea4e5;stop-opacity:1;" offset="0.265625"/><stop style="stop-color:#7fa3e5;stop-opacity:1;" offset="0.269531"/><stop style="stop-color:#7fa2e5;stop-opacity:1;" offset="0.273437"/><stop style="stop-color:#80a2e5;stop-opacity:1;" offset="0.277344"/><stop style="stop-color:#81a1e5;stop-opacity:1;" offset="0.28125"/><stop style="stop-color:#82a0e5;stop-opacity:1;" offset="0.285156"/><stop style="stop-color:#83a0e5;stop-opacity:1;" offset="0.289062"/><stop style="stop-color:#839fe5;stop-opacity:1;" offset="0.292969"/><stop style="stop-color:#849ee5;stop-opacity:1;" offset="0.296875"/><stop style="stop-color:#859ee5;stop-opacity:1;" offset="0.300781"/><stop style="stop-color:#869de5;stop-opacity:1;" offset="0.304688"/><stop style="stop-color:#879de5;stop-opacity:1;" offset="0.308594"/><stop style="stop-color:#889ce5;stop-opacity:1;" offset="0.3125"/><stop style="stop-color:#889be5;stop-opacity:1;" offset="0.316406"/><stop style="stop-color:#899be5;stop-opacity:1;" offset="0.320312"/><stop style="stop-color:#8a9ae5;stop-opacity:1;" offset="0.324219"/><stop style="stop-color:#8b99e6;stop-opacity:1;" offset="0.328125"/><stop style="stop-color:#8c99e6;stop-opacity:1;" offset="0.332031"/><stop style="stop-color:#8c98e6;stop-opacity:1;" offset="0.335937"/><stop style="stop-color:#8d98e6;stop-opacity:1;" offset="0.339844"/><stop style="stop-color:#8e97e6;stop-opacity:1;" offset="0.34375"/><stop style="stop-color:#8f96e6;stop-opacity:1;" offset="0.347656"/><stop style="stop-color:#9096e6;stop-opacity:1;" offset="0.351562"/><stop style="stop-color:#9195e6;stop-opacity:1;" offset="0.355469"/><stop style="stop-color:#9194e6;stop-opacity:1;" offset="0.359375"/><stop style="stop-color:#9294e6;stop-opacity:1;" offset="0.363281"/><stop style="stop-color:#9393e6;stop-opacity:1;" offset="0.367188"/><stop style="stop-color:#9493e6;stop-opacity:1;" offset="0.371094"/><stop style="stop-color:#9592e6;stop-opacity:1;" offset="0.375"/><stop style="stop-color:#9591e6;stop-opacity:1;" offset="0.378906"/><stop style="stop-color:#9691e6;stop-opacity:1;" offset="0.382812"/><stop style="stop-color:#9790e6;stop-opacity:1;" offset="0.386719"/><stop style="stop-color:#988fe6;stop-opacity:1;" offset="0.390625"/><stop style="stop-color:#998fe6;stop-opacity:1;" offset="0.394531"/><stop style="stop-color:#998ee6;stop-opacity:1;" offset="0.398437"/><stop style="stop-color:#9a8de6;stop-opacity:1;" offset="0.402344"/><stop style="stop-color:#9b8de6;stop-opacity:1;" offset="0.40625"/><stop style="stop-color:#9c8ce6;stop-opacity:1;" offset="0.410156"/><stop style="stop-color:#9d8ce6;stop-opacity:1;" offset="0.414062"/><stop style="stop-color:#9e8be6;stop-opacity:1;" offset="0.417969"/><stop style="stop-color:#9e8ae6;stop-opacity:1;" offset="0.421875"/><stop style="stop-color:#9f8ae6;stop-opacity:1;" offset="0.425781"/><stop style="stop-color:#a089e6;stop-opacity:1;" offset="0.429687"/><stop style="stop-color:#a188e6;stop-opacity:1;" offset="0.433594"/><stop style="stop-color:#a288e6;stop-opacity:1;" offset="0.4375"/><stop style="stop-color:#a287e6;stop-opacity:1;" offset="0.441406"/><stop style="stop-color:#a387e6;stop-opacity:1;" offset="0.445312"/><stop style="stop-color:#a486e6;stop-opacity:1;" offset="0.449219"/><stop style="stop-color:#a585e6;stop-opacity:1;" offset="0.453125"/><stop style="stop-color:#a685e6;stop-opacity:1;" offset="0.457031"/><stop style="stop-color:#a784e6;stop-opacity:1;" offset="0.460937"/><stop style="stop-color:#a783e6;stop-opacity:1;" offset="0.464844"/><stop style="stop-color:#a883e6;stop-opacity:1;" offset="0.46875"/><stop style="stop-color:#a982e6;stop-opacity:1;" offset="0.472656"/><stop style="stop-color:#aa82e6;stop-opacity:1;" offset="0.476562"/><stop style="stop-color:#ab81e6;stop-opacity:1;" offset="0.480469"/><stop style="stop-color:#ab80e6;stop-opacity:1;" offset="0.484375"/><stop style="stop-color:#ac80e6;stop-opacity:1;" offset="0.488281"/><stop style="stop-color:#ad7fe6;stop-opacity:1;" offset="0.492188"/><stop style="stop-color:#ae7ee6;stop-opacity:1;" offset="0.496094"/><stop style="stop-color:#af7ee6;stop-opacity:1;" offset="0.5"/><stop style="stop-color:#b07de6;stop-opacity:1;" offset="0.503906"/><stop style="stop-color:#b07de6;stop-opacity:1;" offset="0.507812"/><stop style="stop-color:#b17ce6;stop-opacity:1;" offset="0.511719"/><stop style="stop-color:#b27be6;stop-opacity:1;" offset="0.515625"/><stop style="stop-color:#b37be6;stop-opacity:1;" offset="0.519531"/><stop style="stop-color:#b47ae6;stop-opacity:1;" offset="0.523438"/><stop style="stop-color:#b479e6;stop-opacity:1;" offset="0.527344"/><stop style="stop-color:#b579e6;stop-opacity:1;" offset="0.53125"/><stop style="stop-color:#b678e5;stop-opacity:1;" offset="0.535156"/><stop style="stop-color:#b778e5;stop-opacity:1;" offset="0.539062"/><stop style="stop-color:#b778e3;stop-opacity:1;" offset="0.542969"/><stop style="stop-color:#b777e2;stop-opacity:1;" offset="0.546875"/><stop style="stop-color:#b877e1;stop-opacity:1;" offset="0.550781"/><stop style="stop-color:#b877df;stop-opacity:1;" offset="0.554688"/><stop style="stop-color:#b976de;stop-opacity:1;" offset="0.558594"/><stop style="stop-color:#b976dd;stop-opacity:1;" offset="0.5625"/><stop style="stop-color:#ba76db;stop-opacity:1;" offset="0.566406"/><stop style="stop-color:#ba75da;stop-opacity:1;" offset="0.570312"/><stop style="stop-color:#bb75d8;stop-opacity:1;" offset="0.574219"/><stop style="stop-color:#bb75d7;stop-opacity:1;" offset="0.578125"/><stop style="stop-color:#bb75d6;stop-opacity:1;" offset="0.582031"/><stop style="stop-color:#bc74d4;stop-opacity:1;" offset="0.585937"/><stop style="stop-color:#bc74d3;stop-opacity:1;" offset="0.589844"/><stop style="stop-color:#bd74d2;stop-opacity:1;" offset="0.59375"/><stop style="stop-color:#bd73d0;stop-opacity:1;" offset="0.597656"/><stop style="stop-color:#be73cf;stop-opacity:1;" offset="0.601562"/><stop style="stop-color:#be73ce;stop-opacity:1;" offset="0.605469"/><stop style="stop-color:#bf72cc;stop-opacity:1;" offset="0.609375"/><stop style="stop-color:#bf72cb;stop-opacity:1;" offset="0.613281"/><stop style="stop-color:#bf72ca;stop-opacity:1;" offset="0.617188"/><stop style="stop-color:#c072c8;stop-opacity:1;" offset="0.621094"/><stop style="stop-color:#c071c7;stop-opacity:1;" offset="0.625"/><stop style="stop-color:#c171c6;stop-opacity:1;" offset="0.628906"/><stop style="stop-color:#c171c4;stop-opacity:1;" offset="0.632812"/><stop style="stop-color:#c270c3;stop-opacity:1;" offset="0.636719"/><stop style="stop-color:#c270c1;stop-opacity:1;" offset="0.640625"/><stop style="stop-color:#c370c0;stop-opacity:1;" offset="0.644531"/><stop style="stop-color:#c370bf;stop-opacity:1;" offset="0.648437"/><stop style="stop-color:#c36fbd;stop-opacity:1;" offset="0.652344"/><stop style="stop-color:#c46fbc;stop-opacity:1;" offset="0.65625"/><stop style="stop-color:#c46fbb;stop-opacity:1;" offset="0.660156"/><stop style="stop-color:#c56eb9;stop-opacity:1;" offset="0.664062"/><stop style="stop-color:#c56eb8;stop-opacity:1;" offset="0.667969"/><stop style="stop-color:#c66eb7;stop-opacity:1;" offset="0.671875"/><stop style="stop-color:#c66db5;stop-opacity:1;" offset="0.675781"/><stop style="stop-color:#c76db4;stop-opacity:1;" offset="0.679687"/><stop style="stop-color:#c76db3;stop-opacity:1;" offset="0.683594"/><stop style="stop-color:#c76db1;stop-opacity:1;" offset="0.6875"/><stop style="stop-color:#c86cb0;stop-opacity:1;" offset="0.691406"/><stop style="stop-color:#c86caf;stop-opacity:1;" offset="0.695312"/><stop style="stop-color:#c96cad;stop-opacity:1;" offset="0.699219"/><stop style="stop-color:#c96bac;stop-opacity:1;" offset="0.703125"/><stop style="stop-color:#ca6baa;stop-opacity:1;" offset="0.707031"/><stop style="stop-color:#ca6ba9;stop-opacity:1;" offset="0.710938"/><stop style="stop-color:#cb6ba8;stop-opacity:1;" offset="0.714844"/><stop style="stop-color:#cb6aa6;stop-opacity:1;" offset="0.71875"/><stop style="stop-color:#cb6aa5;stop-opacity:1;" offset="0.722656"/><stop style="stop-color:#cc6aa4;stop-opacity:1;" offset="0.726562"/><stop style="stop-color:#cc69a2;stop-opacity:1;" offset="0.730469"/><stop style="stop-color:#cd69a1;stop-opacity:1;" offset="0.734375"/><stop style="stop-color:#cd69a0;stop-opacity:1;" offset="0.738281"/><stop style="stop-color:#ce689e;stop-opacity:1;" offset="0.742187"/><stop style="stop-color:#ce689d;stop-opacity:1;" offset="0.746094"/><stop style="stop-color:#cf689c;stop-opacity:1;" offset="0.75"/><stop style="stop-color:#cf689a;stop-opacity:1;" offset="0.753906"/><stop style="stop-color:#cf6799;stop-opacity:1;" offset="0.757812"/><stop style="stop-color:#d06798;stop-opacity:1;" offset="0.761719"/><stop style="stop-color:#d06796;stop-opacity:1;" offset="0.765625"/><stop style="stop-color:#d16695;stop-opacity:1;" offset="0.769531"/><stop style="stop-color:#d16693;stop-opacity:1;" offset="0.773438"/><stop style="stop-color:#d26692;stop-opacity:1;" offset="0.777344"/><stop style="stop-color:#d26591;stop-opacity:1;" offset="0.78125"/><stop style="stop-color:#d3658f;stop-opacity:1;" offset="0.785156"/><stop style="stop-color:#d3658e;stop-opacity:1;" offset="0.789062"/><stop style="stop-color:#d4658d;stop-opacity:1;" offset="0.792969"/><stop style="stop-color:#d4648b;stop-opacity:1;" offset="0.796875"/><stop style="stop-color:#d4648a;stop-opacity:1;" offset="0.800781"/><stop style="stop-color:#d56489;stop-opacity:1;" offset="0.804687"/><stop style="stop-color:#d56387;stop-opacity:1;" offset="0.808594"/><stop style="stop-color:#d66386;stop-opacity:1;" offset="0.8125"/><stop style="stop-color:#d66385;stop-opacity:1;" offset="0.816406"/><stop style="stop-color:#d76383;stop-opacity:1;" offset="0.820312"/><stop style="stop-color:#d76282;stop-opacity:1;" offset="0.824219"/><stop style="stop-color:#d86280;stop-opacity:1;" offset="0.828125"/><stop style="stop-color:#d8627f;stop-opacity:1;" offset="0.832031"/><stop style="stop-color:#d8617e;stop-opacity:1;" offset="0.835938"/><stop style="stop-color:#d9617c;stop-opacity:1;" offset="0.839844"/><stop style="stop-color:#d9617b;stop-opacity:1;" offset="0.84375"/><stop style="stop-color:#da607a;stop-opacity:1;" offset="0.847656"/><stop style="stop-color:#da6078;stop-opacity:1;" offset="0.851562"/><stop style="stop-color:#db6077;stop-opacity:1;" offset="0.855469"/><stop style="stop-color:#db6076;stop-opacity:1;" offset="0.859375"/><stop style="stop-color:#dc5f74;stop-opacity:1;" offset="0.863281"/><stop style="stop-color:#dc5f73;stop-opacity:1;" offset="0.867188"/><stop style="stop-color:#dc5f72;stop-opacity:1;" offset="0.871094"/><stop style="stop-color:#dd5e70;stop-opacity:1;" offset="0.875"/><stop style="stop-color:#dd5e6f;stop-opacity:1;" offset="0.878906"/><stop style="stop-color:#de5e6e;stop-opacity:1;" offset="0.882812"/><stop style="stop-color:#de5d6c;stop-opacity:1;" offset="0.886719"/><stop style="stop-color:#df5d6b;stop-opacity:1;" offset="0.890625"/><stop style="stop-color:#df5d69;stop-opacity:1;" offset="0.894531"/><stop style="stop-color:#e05d68;stop-opacity:1;" offset="0.898438"/><stop style="stop-color:#e05c67;stop-opacity:1;" offset="0.902344"/><stop style="stop-color:#e05c65;stop-opacity:1;" offset="0.90625"/><stop style="stop-color:#e15c64;stop-opacity:1;" offset="0.910156"/><stop style="stop-color:#e15b63;stop-opacity:1;" offset="0.914062"/><stop style="stop-color:#e25b62;stop-opacity:1;" offset="0.917969"/><stop style="stop-color:#e25b61;stop-opacity:1;" offset="0.921875"/><stop style="stop-color:#e25b61;stop-opacity:1;" offset="0.9375"/><stop style="stop-color:#e25b61;stop-opacity:1;" offset="1"/></linearGradient></defs><g id="2b257be8ab"><g clip-rule="nonzero" clip-path="url(#930f463667)"><rect x="0" width="810" y="0" height="809.999993" style="fill:url(#linear0);stroke:none;"/></g></g></svg>