<svg xmlns="http://www.w3.org/2000/svg" xmlns:xlink="http://www.w3.org/1999/xlink" width="1080" zoomAndPan="magnify" viewBox="0 0 810 809.999993" height="1080" preserveAspectRatio="xMidYMid meet" version="1.2"><g id="b270938caa"><path style=" stroke:none;fill-rule:evenodd;fill:#f07b52;fill-opacity:1;" d="M 662.578125 795.1875 L 44.304688 795.1875 C 38.207031 795.1875 33.265625 790.242188 33.265625 784.144531 L 33.265625 215.496094 C 33.265625 209.398438 38.207031 204.453125 44.304688 204.453125 C 140.324219 204.453125 239.402344 167.386719 341.847656 167.386719 C 448.476562 167.386719 558.554688 204.453125 662.578125 204.453125 C 668.675781 204.453125 673.617188 209.398438 673.617188 215.496094 L 673.617188 784.144531 C 673.621094 790.242188 668.675781 795.1875 662.578125 795.1875 Z M 662.578125 795.1875 "/><path style=" stroke:none;fill-rule:evenodd;fill:#e86f43;fill-opacity:1;" d="M 33.265625 239.902344 L 33.265625 215.496094 C 33.265625 209.398438 38.210938 204.453125 44.308594 204.453125 C 140.328125 204.453125 239.40625 167.386719 341.847656 167.386719 C 448.476562 167.386719 558.558594 204.453125 662.582031 204.453125 C 668.675781 204.453125 673.621094 209.398438 673.621094 215.496094 L 673.621094 239.902344 L 353.445312 188.257812 Z M 33.265625 239.902344 "/><path style=" stroke:none;fill-rule:evenodd;fill:#c3c4c6;fill-opacity:1;" d="M 695.703125 232.058594 C 695.117188 232.058594 694.527344 232.011719 693.945312 231.917969 L 353.441406 176.992188 L 12.941406 231.917969 C 9.746094 232.433594 6.488281 231.519531 4.027344 229.421875 C 1.5625 227.324219 0.144531 224.25 0.144531 221.015625 L 0.144531 165.808594 C 0.144531 160.519531 3.894531 155.972656 9.085938 154.96875 L 351.34375 88.71875 C 352.730469 88.449219 354.15625 88.449219 355.542969 88.71875 L 697.800781 154.96875 C 702.992188 155.972656 706.742188 160.519531 706.742188 165.808594 L 706.742188 221.015625 C 706.742188 224.25 705.324219 227.324219 702.859375 229.421875 C 700.847656 231.136719 698.304688 232.058594 695.703125 232.058594 Z M 695.703125 232.058594 "/><path style=" stroke:none;fill-rule:evenodd;fill:#74757b;fill-opacity:1;" d="M 596.339844 795.1875 L 110.554688 795.1875 L 110.554688 364.558594 C 110.554688 358.460938 115.496094 353.515625 121.59375 353.515625 L 585.296875 353.515625 C 591.394531 353.515625 596.339844 358.460938 596.339844 364.558594 Z M 596.339844 795.1875 "/><path style=" stroke:none;fill-rule:evenodd;fill:#c3c4c6;fill-opacity:1;" d="M 353.445312 331.433594 C 323.003906 331.433594 298.242188 306.667969 298.242188 276.226562 C 298.242188 245.78125 323.003906 221.015625 353.445312 221.015625 C 383.882812 221.015625 408.648438 245.78125 408.648438 276.226562 C 408.648438 306.667969 383.882812 331.433594 353.445312 331.433594 Z M 353.445312 331.433594 "/><path style=" stroke:none;fill-rule:evenodd;fill:#ffe17d;fill-opacity:1;" d="M 430.726562 651.644531 L 276.160156 651.644531 C 270.0625 651.644531 265.121094 646.703125 265.121094 640.605469 L 265.121094 497.0625 C 265.121094 490.960938 270.0625 486.019531 276.160156 486.019531 L 430.726562 486.019531 C 436.824219 486.019531 441.769531 490.964844 441.769531 497.0625 L 441.769531 640.605469 C 441.769531 646.703125 436.824219 651.644531 430.726562 651.644531 Z M 430.726562 651.644531 "/><path style=" stroke:none;fill-rule:evenodd;fill:#e6646e;fill-opacity:1;" d="M 320.324219 486.019531 L 386.566406 486.019531 L 386.566406 552.269531 C 386.566406 558.367188 381.621094 563.3125 375.523438 563.3125 L 331.363281 563.3125 C 325.265625 563.3125 320.324219 558.367188 320.324219 552.269531 Z M 320.324219 486.019531 "/><path style=" stroke:none;fill-rule:evenodd;fill:#ffd164;fill-opacity:1;" d="M 353.445312 795.1875 L 198.875 795.1875 C 192.777344 795.1875 187.835938 790.242188 187.835938 784.144531 L 187.835938 640.601562 C 187.835938 634.503906 192.777344 629.558594 198.875 629.558594 L 353.445312 629.558594 C 359.542969 629.558594 364.484375 634.503906 364.484375 640.601562 L 364.484375 784.144531 C 364.484375 790.242188 359.542969 795.1875 353.445312 795.1875 Z M 353.445312 795.1875 "/><path style=" stroke:none;fill-rule:evenodd;fill:#ffbc5a;fill-opacity:1;" d="M 353.445312 795.1875 L 334.230469 795.1875 C 332.355469 791.933594 331.285156 788.164062 331.285156 784.144531 L 331.285156 640.601562 C 331.285156 636.582031 332.355469 632.808594 334.230469 629.558594 L 353.445312 629.558594 C 359.542969 629.558594 364.484375 634.503906 364.484375 640.601562 L 364.484375 784.144531 C 364.484375 790.242188 359.542969 795.1875 353.445312 795.1875 Z M 353.445312 795.1875 "/><path style=" stroke:none;fill-rule:evenodd;fill:#e6646e;fill-opacity:1;" d="M 243.039062 629.558594 L 309.28125 629.558594 L 309.28125 695.808594 C 309.28125 701.90625 304.335938 706.851562 298.242188 706.851562 L 254.078125 706.851562 C 247.980469 706.851562 243.039062 701.90625 243.039062 695.8125 Z M 243.039062 629.558594 "/><path style=" stroke:none;fill-rule:evenodd;fill:#ffd164;fill-opacity:1;" d="M 508.015625 795.1875 L 353.445312 795.1875 C 347.347656 795.1875 342.40625 790.242188 342.40625 784.144531 L 342.40625 640.601562 C 342.40625 634.503906 347.347656 629.558594 353.445312 629.558594 L 508.015625 629.558594 C 514.113281 629.558594 519.054688 634.503906 519.054688 640.601562 L 519.054688 784.144531 C 519.054688 790.242188 514.113281 795.1875 508.015625 795.1875 Z M 508.015625 795.1875 "/><path style=" stroke:none;fill-rule:evenodd;fill:#e6646e;fill-opacity:1;" d="M 397.605469 629.558594 L 463.851562 629.558594 L 463.851562 695.808594 C 463.851562 701.90625 458.90625 706.851562 452.808594 706.851562 L 408.648438 706.851562 C 402.550781 706.851562 397.605469 701.90625 397.605469 695.8125 Z M 397.605469 629.558594 "/><path style=" stroke:none;fill-rule:evenodd;fill:#ffffff;fill-opacity:1;" d="M 353.445312 312.394531 C 333.5 312.394531 317.277344 296.167969 317.277344 276.226562 C 317.277344 256.28125 333.5 240.054688 353.445312 240.054688 C 373.386719 240.054688 389.609375 256.28125 389.609375 276.226562 C 389.609375 296.167969 373.386719 312.394531 353.445312 312.394531 Z M 353.445312 312.394531 "/><path style=" stroke:none;fill-rule:evenodd;fill:#6b6c71;fill-opacity:1;" d="M 585.300781 353.515625 L 121.59375 353.515625 C 115.496094 353.515625 110.554688 358.460938 110.554688 364.558594 L 110.554688 795.1875 L 132.558594 795.1875 L 132.558594 387.726562 C 132.558594 381.628906 137.503906 376.683594 143.597656 376.683594 L 596.339844 376.683594 L 596.339844 364.558594 C 596.339844 358.460938 591.398438 353.515625 585.300781 353.515625 Z M 585.300781 353.515625 "/><path style=" stroke:none;fill-rule:evenodd;fill:#e6646e;fill-opacity:1;" d="M 663.929688 393.109375 C 660.527344 393.109375 657.28125 391.6875 654.972656 389.183594 C 653.585938 387.683594 620.621094 351.832031 587.097656 306.230469 C 541.058594 243.601562 517.714844 194.929688 517.714844 161.578125 C 517.714844 80.945312 583.304688 15.347656 663.929688 15.347656 C 744.554688 15.347656 810.144531 80.945312 810.144531 161.578125 C 810.144531 194.929688 786.800781 243.601562 740.761719 306.230469 C 707.234375 351.832031 674.273438 387.683594 672.882812 389.183594 C 670.582031 391.6875 667.332031 393.109375 663.929688 393.109375 Z M 663.929688 393.109375 "/><path style=" stroke:none;fill-rule:evenodd;fill:#ffffff;fill-opacity:1;" d="M 663.929688 246.878906 C 616.898438 246.878906 578.636719 208.613281 578.636719 161.578125 C 578.636719 114.542969 616.898438 76.277344 663.929688 76.277344 C 710.960938 76.277344 749.222656 114.542969 749.222656 161.578125 C 749.222656 208.613281 710.960938 246.878906 663.929688 246.878906 Z M 663.929688 246.878906 "/></g></svg>