<svg xmlns="http://www.w3.org/2000/svg" xmlns:xlink="http://www.w3.org/1999/xlink" width="1080" zoomAndPan="magnify" viewBox="0 0 810 809.999993" height="1080" preserveAspectRatio="xMidYMid meet" version="1.2"><g id="1f12022bfd"><path style=" stroke:none;fill-rule:evenodd;fill:#cccccc;fill-opacity:1;" d="M 585.152344 537.289062 C 581.539062 539.097656 577.476562 540.453125 573.410156 540.453125 C 569.347656 540.453125 565.285156 539.097656 562.125 537.289062 L 562.125 540 C 562.125 553.09375 551.289062 563.929688 537.742188 563.929688 C 533.679688 563.929688 530.066406 563.027344 526.90625 561.222656 L 526.90625 580.183594 C 526.90625 603.210938 507.941406 622.175781 484.917969 622.175781 L 448.34375 622.175781 C 430.734375 622.175781 415.382812 610.886719 409.515625 595.082031 C 368.429688 588.3125 336.824219 552.191406 336.824219 509.296875 C 336.824219 480.402344 350.820312 455.117188 372.492188 439.3125 L 372.492188 367.976562 C 372.492188 356.238281 381.070312 346.304688 391.90625 344.046875 C 395.066406 255.101562 462.792969 182.40625 549.480469 171.121094 L 549.480469 78.5625 C 549.480469 72.691406 544.515625 67.726562 538.644531 67.726562 L 522.84375 67.726562 C 522.84375 69.082031 522.84375 70.433594 522.84375 71.789062 C 522.84375 100.234375 499.816406 123.710938 470.917969 123.710938 L 425.769531 123.710938 C 425.769531 123.710938 425.316406 123.710938 425.316406 123.710938 L 311.539062 123.710938 C 311.539062 123.710938 311.085938 123.710938 310.636719 123.710938 L 265.484375 123.710938 C 237.039062 123.710938 213.5625 100.234375 213.5625 71.789062 C 213.5625 70.433594 213.5625 69.082031 214.011719 67.726562 L 197.757812 67.726562 C 191.890625 67.726562 187.375 72.691406 187.375 78.5625 L 187.375 151.253906 C 187.375 153.058594 187.375 154.867188 187.375 156.671875 L 187.375 273.160156 C 211.304688 283.996094 228.011719 308.378906 228.011719 336.371094 L 228.011719 473.175781 C 231.171875 481.304688 243.8125 493.945312 249.230469 498.914062 C 272.257812 520.132812 281.289062 555.800781 281.738281 585.601562 C 282.640625 620.367188 274.0625 654.230469 259.617188 685.835938 C 264.128906 680.417969 270.902344 676.355469 279.03125 676.355469 L 457.824219 676.355469 C 470.917969 676.355469 481.753906 687.191406 481.753906 700.734375 C 481.753906 711.121094 474.984375 720.601562 465.5 723.3125 L 538.644531 723.3125 C 544.515625 723.3125 549.480469 718.796875 549.480469 712.925781 L 549.480469 579.734375 C 549.480469 566.640625 560.316406 555.800781 573.410156 555.800781 C 586.957031 555.800781 597.339844 566.640625 597.339844 579.734375 L 597.339844 712.925781 C 597.339844 745.433594 571.152344 771.621094 538.644531 771.621094 L 244.714844 771.621094 L 244.714844 773.878906 C 244.714844 786.972656 233.878906 797.808594 220.785156 797.808594 L 69.082031 797.808594 C 55.988281 797.808594 45.152344 786.972656 45.152344 773.878906 L 45.152344 704.347656 C 38.378906 656.035156 31.605469 607.273438 25.285156 558.964844 C 21.671875 531.421875 18.511719 503.429688 15.351562 475.886719 C 13.09375 457.375 10.835938 437.507812 9.933594 418.996094 C 9.03125 393.261719 7.675781 363.460938 13.996094 339.082031 C 19.867188 317.40625 32.058594 296.640625 43.34375 277.675781 L 110.617188 161.1875 C 117.390625 149.449219 127.324219 139.964844 139.0625 134.097656 L 139.0625 78.5625 C 139.0625 46.054688 165.703125 19.867188 197.757812 19.867188 L 470.917969 19.867188 C 471.371094 19.867188 471.371094 19.867188 471.371094 19.867188 L 538.644531 19.867188 C 571.152344 19.867188 597.792969 46.054688 597.792969 78.5625 L 597.792969 171.121094 C 684.480469 182.40625 751.753906 255.101562 755.367188 344.046875 C 766.203125 346.753906 774.332031 356.238281 774.332031 367.976562 L 774.332031 439.3125 C 796.003906 455.117188 810 480.402344 810 509.296875 C 810 552.191406 778.394531 588.3125 737.308594 595.082031 C 731.4375 610.886719 716.085938 622.175781 698.476562 622.175781 L 661.90625 622.175781 C 638.878906 622.175781 620.367188 603.210938 620.367188 580.183594 L 620.367188 561.222656 C 616.753906 563.027344 613.144531 563.929688 609.082031 563.929688 C 595.988281 563.929688 585.152344 553.09375 585.152344 540 Z M 585.152344 425.769531 L 585.152344 423.058594 C 585.152344 410.417969 594.632812 400.035156 606.824219 399.128906 C 597.339844 398.226562 589.664062 391.90625 586.503906 383.328125 C 582.894531 385.585938 578.378906 386.941406 573.410156 386.941406 C 568.894531 386.941406 564.382812 385.585938 560.769531 383.328125 C 557.609375 391.90625 549.480469 398.226562 540 399.128906 C 552.191406 400.035156 562.125 410.417969 562.125 423.058594 L 562.125 425.769531 C 565.285156 423.964844 569.347656 422.609375 573.410156 422.609375 C 577.476562 422.609375 581.539062 423.964844 585.152344 425.769531 Z M 630.300781 411.320312 C 636.621094 403.644531 645.652344 398.226562 656.035156 396.871094 L 656.035156 384.230469 C 652.425781 386.035156 648.8125 386.941406 644.75 386.941406 C 640.234375 386.941406 635.71875 385.585938 631.65625 383.328125 C 628.945312 391.90625 620.820312 398.226562 611.335938 399.128906 C 619.464844 400.035156 626.238281 404.546875 630.300781 411.320312 Z M 535.484375 399.128906 C 526.003906 398.226562 518.328125 391.90625 515.167969 383.328125 C 511.554688 385.585938 507.039062 386.941406 502.074219 386.941406 C 498.011719 386.941406 494.398438 386.035156 491.238281 384.230469 L 491.238281 396.871094 C 501.171875 398.226562 510.652344 403.644531 516.972656 411.320312 C 520.585938 404.546875 527.808594 400.035156 535.484375 399.128906 Z M 631.65625 306.121094 C 635.71875 303.863281 640.234375 302.507812 644.75 302.507812 C 658.292969 302.507812 668.679688 313.34375 668.679688 326.4375 L 668.679688 346.304688 C 670.484375 345.402344 672.742188 344.949219 674.546875 344.5 C 671.386719 291.671875 627.140625 249.683594 573.410156 249.683594 C 519.683594 249.683594 475.886719 291.671875 472.273438 344.5 C 474.53125 344.949219 476.335938 345.402344 478.144531 346.304688 L 478.144531 326.4375 C 478.144531 313.34375 488.980469 302.507812 502.074219 302.507812 C 507.039062 302.507812 511.554688 303.863281 515.167969 306.121094 C 518.328125 296.640625 527.359375 289.867188 537.742188 289.867188 C 548.128906 289.867188 557.15625 296.640625 560.769531 306.121094 C 564.382812 303.863281 568.894531 302.507812 573.410156 302.507812 C 578.378906 302.507812 582.894531 303.863281 586.503906 306.121094 C 589.664062 296.640625 598.695312 289.867188 609.082031 289.867188 C 619.464844 289.867188 628.496094 296.640625 631.65625 306.121094 Z M 442.925781 391.90625 L 420.800781 391.90625 L 420.800781 407.257812 C 426.671875 401.839844 434.347656 398.226562 442.925781 396.871094 Z M 726.019531 391.90625 L 703.894531 391.90625 L 703.894531 396.871094 C 712.476562 398.226562 720.152344 401.839844 726.019531 407.257812 Z M 255.550781 695.316406 C 251.941406 701.640625 248.777344 708.410156 244.714844 714.734375 L 244.714844 723.3125 L 271.355469 723.3125 C 261.871094 720.601562 254.648438 711.121094 254.648438 700.734375 C 254.648438 698.929688 255.101562 696.671875 255.550781 695.316406 Z M 255.550781 695.316406 "/><path style=" stroke:none;fill-rule:evenodd;fill:#e6e6e6;fill-opacity:1;" d="M 577.476562 529.617188 C 574.3125 531.871094 570.25 532.777344 566.1875 532.777344 C 561.671875 532.777344 557.609375 531.871094 554.449219 529.617188 L 554.449219 532.324219 C 554.449219 545.417969 543.613281 556.253906 530.519531 556.253906 C 526.453125 556.253906 522.390625 555.351562 519.230469 553.546875 L 519.230469 572.960938 C 519.230469 595.988281 500.265625 614.5 477.691406 614.5 L 441.121094 614.5 C 423.058594 614.5 407.710938 603.210938 401.839844 587.40625 C 360.753906 580.636719 329.597656 544.964844 329.597656 501.621094 C 329.597656 473.175781 343.59375 447.441406 365.265625 431.640625 L 365.265625 360.300781 C 365.265625 348.5625 373.394531 339.082031 384.230469 336.824219 C 387.84375 247.875 455.117188 174.734375 541.804688 163.445312 L 541.804688 70.886719 C 541.804688 65.015625 537.289062 60.5 531.421875 60.5 L 515.167969 60.5 C 515.617188 61.855469 515.617188 62.757812 515.617188 64.113281 C 515.617188 93.011719 492.140625 116.035156 463.695312 116.035156 L 418.546875 116.035156 C 418.09375 116.035156 417.640625 116.035156 417.640625 116.035156 L 303.863281 116.035156 C 303.863281 116.035156 303.410156 116.035156 303.410156 116.035156 L 258.261719 116.035156 C 229.363281 116.035156 206.335938 93.011719 206.335938 64.113281 C 206.335938 62.757812 206.335938 61.855469 206.335938 60.5 L 190.535156 60.5 C 184.664062 60.5 179.699219 65.015625 179.699219 70.886719 L 179.699219 143.578125 C 179.699219 145.382812 179.699219 147.191406 179.699219 148.996094 L 179.699219 265.484375 C 204.082031 276.773438 220.335938 301.152344 220.335938 328.695312 L 220.335938 465.5 C 223.945312 473.628906 236.136719 486.269531 241.554688 491.238281 C 264.582031 512.457031 273.613281 548.128906 274.515625 577.925781 C 275.417969 612.691406 266.386719 647.007812 252.390625 678.613281 C 256.453125 672.742188 263.679688 669.128906 271.355469 669.128906 L 450.152344 669.128906 C 463.695312 669.128906 474.53125 679.964844 474.53125 693.058594 C 474.53125 703.894531 467.308594 712.925781 457.824219 716.085938 L 531.421875 716.085938 C 537.289062 716.085938 541.804688 711.121094 541.804688 705.25 L 541.804688 572.058594 C 541.804688 558.964844 552.640625 548.128906 566.1875 548.128906 C 579.28125 548.128906 590.117188 558.964844 590.117188 572.058594 L 590.117188 705.25 C 590.117188 737.757812 563.476562 763.945312 531.421875 763.945312 L 237.492188 763.945312 L 237.492188 766.203125 C 237.492188 779.296875 226.65625 790.132812 213.109375 790.132812 L 61.855469 790.132812 C 48.3125 790.132812 37.476562 779.296875 37.476562 766.203125 L 37.476562 696.671875 C 30.703125 648.359375 24.382812 600.050781 18.058594 551.289062 C 14.449219 523.746094 10.835938 496.203125 7.675781 468.210938 C 5.417969 449.699219 3.160156 429.832031 2.710938 411.320312 C 1.804688 386.035156 0 356.238281 6.320312 331.40625 C 12.191406 310.183594 24.832031 289.414062 35.667969 270 L 102.941406 153.511719 C 109.714844 141.773438 119.648438 132.289062 131.839844 126.421875 L 131.839844 70.886719 C 131.839844 38.828125 158.027344 12.191406 190.535156 12.191406 L 531.421875 12.191406 C 563.476562 12.191406 590.117188 38.828125 590.117188 70.886719 L 590.117188 163.445312 C 676.804688 174.734375 744.53125 247.875 747.691406 336.824219 C 758.527344 339.082031 766.65625 348.5625 766.65625 360.300781 L 766.65625 431.640625 C 788.328125 447.441406 802.324219 473.175781 802.324219 501.621094 C 802.324219 544.964844 771.171875 580.636719 730.082031 587.40625 C 724.214844 603.210938 708.863281 614.5 690.800781 614.5 L 654.230469 614.5 C 631.65625 614.5 612.691406 595.988281 612.691406 572.960938 L 612.691406 553.546875 C 609.53125 555.351562 605.46875 556.253906 601.40625 556.253906 C 588.3125 556.253906 577.476562 545.417969 577.476562 532.324219 Z M 577.476562 418.09375 L 577.476562 415.835938 C 577.476562 403.195312 586.957031 392.808594 599.597656 391.453125 C 590.117188 391.003906 581.988281 384.230469 578.828125 375.652344 C 575.21875 377.910156 570.703125 379.265625 566.1875 379.265625 C 561.222656 379.265625 556.707031 377.910156 553.09375 375.652344 C 549.933594 384.230469 541.804688 391.003906 532.324219 391.453125 C 544.515625 392.808594 554.449219 403.195312 554.449219 415.835938 L 554.449219 418.09375 C 557.609375 416.289062 561.671875 415.382812 566.1875 415.382812 C 570.25 415.382812 574.3125 416.289062 577.476562 418.09375 Z M 622.625 403.644531 C 628.945312 396.421875 637.976562 391.003906 648.359375 389.199219 L 648.359375 376.554688 C 645.199219 378.359375 641.136719 379.265625 637.074219 379.265625 C 632.558594 379.265625 628.042969 377.910156 624.429688 375.652344 C 621.269531 384.230469 613.144531 391.003906 603.664062 391.453125 C 611.789062 392.359375 618.5625 396.871094 622.625 403.644531 Z M 528.261719 391.453125 C 518.777344 391.003906 510.652344 384.230469 507.492188 375.652344 C 503.878906 377.910156 499.363281 379.265625 494.847656 379.265625 C 490.785156 379.265625 486.722656 378.359375 483.5625 376.554688 L 483.5625 389.199219 C 493.945312 391.003906 502.976562 396.421875 509.296875 403.644531 C 513.359375 396.871094 520.132812 392.359375 528.261719 391.453125 Z M 624.429688 298.894531 C 628.042969 296.1875 632.558594 294.832031 637.074219 294.832031 C 650.617188 294.832031 661.453125 305.667969 661.453125 319.214844 L 661.453125 339.082031 C 663.261719 338.175781 665.066406 337.273438 667.324219 336.824219 C 663.710938 283.996094 619.464844 242.007812 566.1875 242.007812 C 512.457031 242.007812 468.210938 283.996094 464.597656 336.824219 C 466.855469 337.273438 468.664062 338.175781 470.46875 339.082031 L 470.46875 319.214844 C 470.46875 305.667969 481.304688 294.832031 494.847656 294.832031 C 499.363281 294.832031 503.878906 296.1875 507.492188 298.894531 C 510.652344 289.414062 519.683594 282.640625 530.519531 282.640625 C 540.902344 282.640625 549.933594 289.414062 553.09375 298.894531 C 556.707031 296.1875 561.222656 294.832031 566.1875 294.832031 C 570.703125 294.832031 575.21875 296.1875 578.828125 298.894531 C 581.988281 289.414062 591.019531 282.640625 601.40625 282.640625 C 612.242188 282.640625 621.269531 289.414062 624.429688 298.894531 Z M 435.25 384.230469 L 413.128906 384.230469 L 413.128906 399.582031 C 419.449219 394.164062 427.125 390.550781 435.25 389.199219 Z M 718.796875 384.230469 L 696.671875 384.230469 L 696.671875 389.199219 C 704.800781 390.550781 712.476562 394.164062 718.796875 399.582031 Z M 247.875 687.640625 C 244.714844 694.414062 241.105469 700.734375 237.492188 707.058594 L 237.492188 716.085938 L 264.128906 716.085938 C 254.199219 712.925781 247.425781 703.894531 247.425781 693.058594 C 247.425781 691.253906 247.425781 689.449219 247.875 687.640625 Z M 247.875 687.640625 "/><path style=" stroke:none;fill-rule:evenodd;fill:#10a997;fill-opacity:1;" d="M 463.695312 101.136719 L 258.261719 101.136719 C 237.941406 101.136719 221.238281 84.429688 221.238281 64.113281 C 221.238281 43.796875 237.941406 27.089844 258.261719 27.089844 L 463.695312 27.089844 C 484.011719 27.089844 500.265625 43.796875 500.265625 64.113281 C 500.265625 84.429688 484.011719 101.136719 463.695312 101.136719 Z M 258.261719 45.152344 C 247.875 45.152344 239.296875 53.730469 239.296875 64.113281 C 239.296875 74.5 247.875 83.078125 258.261719 83.078125 L 463.695312 83.078125 C 474.082031 83.078125 482.207031 74.5 482.207031 64.113281 C 482.207031 53.730469 474.082031 45.152344 463.695312 45.152344 Z M 258.261719 45.152344 "/><path style=" stroke:none;fill-rule:evenodd;fill:#10a997;fill-opacity:1;" d="M 417.640625 101.136719 L 303.863281 101.136719 C 283.546875 101.136719 267.289062 84.429688 267.289062 64.113281 C 267.289062 43.796875 283.546875 27.089844 303.863281 27.089844 L 417.640625 27.089844 C 437.960938 27.089844 454.664062 43.796875 454.664062 64.113281 C 454.664062 84.429688 437.960938 101.136719 417.640625 101.136719 Z M 392.808594 73.144531 L 329.148438 73.144531 C 324.179688 73.144531 320.117188 69.082031 320.117188 64.113281 C 320.117188 59.148438 324.179688 55.082031 329.148438 55.082031 L 392.808594 55.082031 C 397.777344 55.082031 401.839844 59.148438 401.839844 64.113281 C 401.839844 69.082031 397.777344 73.144531 392.808594 73.144531 Z M 392.808594 73.144531 "/><path style=" stroke:none;fill-rule:evenodd;fill:#26647d;fill-opacity:1;" d="M 213.109375 775.234375 L 61.855469 775.234375 C 56.890625 775.234375 52.824219 771.171875 52.824219 766.203125 L 52.824219 695.769531 C 50.570312 679.515625 18.964844 458.730469 17.609375 410.871094 C 15.351562 339.53125 16.707031 333.210938 48.761719 277.675781 L 116.035156 161.1875 C 124.164062 147.191406 138.160156 137.257812 154.414062 134.546875 C 158.929688 134.097656 163.894531 137.257812 164.800781 142.222656 C 165.25 146.289062 162.992188 246.070312 159.382812 274.964844 C 185.117188 279.03125 205.433594 301.605469 205.433594 328.695312 L 205.433594 467.757812 C 205.886719 469.566406 209.5 482.207031 231.621094 502.523438 C 261.871094 530.066406 278.578125 610.433594 222.140625 702.992188 L 222.140625 766.203125 C 222.140625 771.171875 218.078125 775.234375 213.109375 775.234375 Z M 213.109375 775.234375 "/><path style=" stroke:none;fill-rule:evenodd;fill:#26647d;fill-opacity:1;" d="M 531.421875 749.046875 L 213.109375 749.046875 C 208.144531 749.046875 204.082031 744.984375 204.082031 740.015625 C 204.082031 735.050781 208.144531 730.988281 213.109375 730.988281 L 531.421875 730.988281 C 545.417969 730.988281 557.15625 719.699219 557.15625 705.25 L 557.15625 572.058594 C 557.15625 567.089844 560.769531 563.027344 566.1875 563.027344 C 571.152344 563.027344 575.21875 567.089844 575.21875 572.058594 L 575.21875 705.25 C 575.21875 729.632812 555.351562 749.046875 531.421875 749.046875 Z M 155.769531 292.574219 C 150.800781 292.574219 146.738281 288.511719 146.738281 283.546875 L 146.738281 70.886719 C 146.738281 46.957031 166.152344 27.089844 190.535156 27.089844 L 531.421875 27.089844 C 555.351562 27.089844 575.21875 46.957031 575.21875 70.886719 L 575.21875 186.019531 C 575.21875 190.988281 571.152344 195.050781 566.1875 195.050781 C 560.769531 195.050781 557.15625 190.988281 557.15625 186.019531 L 557.15625 70.886719 C 557.15625 56.890625 545.417969 45.152344 531.421875 45.152344 L 190.535156 45.152344 C 176.085938 45.152344 164.800781 56.890625 164.800781 70.886719 L 164.800781 283.546875 C 164.800781 288.511719 160.734375 292.574219 155.769531 292.574219 Z M 155.769531 292.574219 "/><path style=" stroke:none;fill-rule:evenodd;fill:#10a997;fill-opacity:1;" d="M 450.152344 702.089844 L 271.355469 702.089844 C 266.386719 702.089844 262.324219 698.027344 262.324219 693.058594 C 262.324219 688.09375 266.386719 684.03125 271.355469 684.03125 L 450.152344 684.03125 C 455.117188 684.03125 459.179688 688.09375 459.179688 693.058594 C 459.179688 698.027344 455.117188 702.089844 450.152344 702.089844 Z M 450.152344 702.089844 "/><path style=" stroke:none;fill-rule:evenodd;fill:#10a997;fill-opacity:1;" d="M 715.636719 573.863281 L 708.410156 573.863281 C 703.445312 573.863281 699.382812 569.800781 699.382812 564.832031 L 699.382812 438.863281 C 699.382812 433.894531 703.445312 429.832031 708.410156 429.832031 L 715.636719 429.832031 C 754.917969 429.832031 787.425781 461.890625 787.425781 501.621094 C 787.425781 541.355469 754.917969 573.863281 715.636719 573.863281 Z M 715.636719 573.863281 "/><path style=" stroke:none;fill-rule:evenodd;fill:#10a997;fill-opacity:1;" d="M 690.800781 599.597656 L 681.773438 599.597656 L 681.773438 516.972656 C 681.773438 512.007812 677.710938 507.941406 672.742188 507.941406 C 667.777344 507.941406 663.710938 512.007812 663.710938 516.972656 L 663.710938 599.597656 L 654.230469 599.597656 C 639.78125 599.597656 627.59375 587.40625 627.59375 572.960938 L 627.59375 430.734375 C 627.59375 415.835938 639.78125 404.097656 654.230469 404.097656 L 690.800781 404.097656 C 705.703125 404.097656 717.441406 415.835938 717.441406 430.734375 L 717.441406 572.960938 C 717.441406 587.40625 705.703125 599.597656 690.800781 599.597656 Z M 690.800781 599.597656 "/><path style=" stroke:none;fill-rule:evenodd;fill:#10a997;fill-opacity:1;" d="M 477.691406 599.597656 L 468.210938 599.597656 L 468.210938 516.972656 C 468.210938 512.007812 464.148438 507.941406 459.179688 507.941406 C 454.214844 507.941406 450.152344 512.007812 450.152344 516.972656 L 450.152344 599.597656 L 441.121094 599.597656 C 426.222656 599.597656 414.480469 587.40625 414.480469 572.960938 L 414.480469 430.734375 C 414.480469 415.835938 426.222656 404.097656 441.121094 404.097656 L 477.691406 404.097656 C 492.140625 404.097656 504.332031 415.835938 504.332031 430.734375 L 504.332031 572.960938 C 504.332031 587.40625 492.140625 599.597656 477.691406 599.597656 Z M 477.691406 599.597656 "/><path style=" stroke:none;fill-rule:evenodd;fill:#10a997;fill-opacity:1;" d="M 423.511719 573.863281 L 416.289062 573.863281 C 377.007812 573.863281 344.5 541.355469 344.5 501.621094 C 344.5 461.890625 377.007812 429.832031 416.289062 429.832031 L 423.511719 429.832031 C 428.476562 429.832031 432.542969 433.894531 432.542969 438.863281 L 432.542969 564.832031 C 432.542969 569.800781 428.476562 573.863281 423.511719 573.863281 Z M 423.511719 573.863281 "/><path style=" stroke:none;fill-rule:evenodd;fill:#10a997;fill-opacity:1;" d="M 742.726562 454.214844 C 741.371094 454.214844 740.015625 453.761719 738.664062 453.3125 C 731.4375 449.699219 723.761719 447.894531 715.636719 447.894531 L 708.410156 447.894531 C 703.445312 447.894531 699.382812 443.828125 699.382812 438.863281 L 699.382812 430.734375 C 699.382812 425.769531 695.769531 422.15625 690.800781 422.15625 L 672.289062 422.15625 C 667.324219 422.15625 663.261719 418.09375 663.261719 413.128906 L 663.261719 360.300781 C 663.261719 355.335938 667.324219 351.269531 672.289062 351.269531 L 742.726562 351.269531 C 747.691406 351.269531 751.753906 355.335938 751.753906 360.300781 L 751.753906 445.183594 C 751.753906 448.34375 749.949219 451.054688 747.691406 452.859375 C 745.886719 453.761719 744.53125 454.214844 742.726562 454.214844 Z M 717.441406 429.832031 C 722.859375 429.832031 728.277344 430.734375 733.695312 432.089844 L 733.695312 369.332031 L 681.320312 369.332031 L 681.320312 404.097656 L 690.800781 404.097656 C 705.25 404.097656 716.988281 415.382812 717.441406 429.832031 Z M 717.441406 429.832031 "/><path style=" stroke:none;fill-rule:evenodd;fill:#10a997;fill-opacity:1;" d="M 389.199219 454.214844 C 387.390625 454.214844 386.035156 453.761719 384.230469 452.859375 C 381.972656 451.054688 380.167969 448.34375 380.167969 445.183594 L 380.167969 360.300781 C 380.167969 355.335938 384.230469 351.269531 389.199219 351.269531 L 459.632812 351.269531 C 464.597656 351.269531 468.664062 355.335938 468.664062 360.300781 L 468.664062 413.128906 C 468.664062 418.09375 464.597656 422.15625 459.632812 422.15625 L 441.121094 422.15625 C 436.152344 422.15625 432.542969 425.769531 432.542969 430.734375 L 432.542969 438.863281 C 432.542969 443.828125 428.476562 447.894531 423.511719 447.894531 L 416.289062 447.894531 C 408.160156 447.894531 400.484375 449.699219 393.261719 453.3125 C 391.90625 453.761719 390.550781 454.214844 389.199219 454.214844 Z M 398.226562 369.332031 L 398.226562 432.089844 C 403.644531 430.734375 409.0625 429.832031 414.480469 429.832031 C 414.933594 415.382812 426.671875 404.097656 441.121094 404.097656 L 450.601562 404.097656 L 450.601562 369.332031 Z M 398.226562 369.332031 "/><path style=" stroke:none;fill-rule:evenodd;fill:#10a997;fill-opacity:1;" d="M 723.761719 369.332031 L 691.707031 369.332031 C 686.289062 369.332031 682.675781 365.265625 682.675781 360.300781 L 682.675781 343.59375 C 682.675781 279.480469 630.300781 227.105469 566.1875 227.105469 C 501.621094 227.105469 449.246094 279.480469 449.246094 343.59375 L 449.246094 360.300781 C 449.246094 365.265625 445.636719 369.332031 440.21875 369.332031 L 408.160156 369.332031 C 403.195312 369.332031 399.128906 365.265625 399.128906 360.300781 L 399.128906 343.59375 C 399.128906 251.488281 474.082031 176.988281 566.1875 176.988281 C 657.84375 176.988281 732.792969 251.488281 732.792969 343.59375 L 732.792969 360.300781 C 732.792969 365.265625 728.730469 369.332031 723.761719 369.332031 Z M 723.761719 369.332031 "/><path style=" stroke:none;fill-rule:evenodd;fill:#10a997;fill-opacity:1;" d="M 494.847656 364.363281 C 489.882812 364.363281 485.820312 360.300781 485.820312 355.335938 L 485.820312 319.214844 C 485.820312 313.796875 489.882812 310.183594 494.847656 310.183594 C 499.816406 310.183594 503.878906 313.796875 503.878906 319.214844 L 503.878906 355.335938 C 503.878906 360.300781 499.816406 364.363281 494.847656 364.363281 Z M 494.847656 364.363281 "/><path style=" stroke:none;fill-rule:evenodd;fill:#10a997;fill-opacity:1;" d="M 530.519531 376.554688 C 525.101562 376.554688 521.488281 372.492188 521.488281 367.523438 L 521.488281 306.570312 C 521.488281 301.605469 525.550781 297.542969 530.519531 297.542969 C 535.484375 297.542969 539.546875 301.605469 539.546875 306.570312 L 539.546875 367.523438 C 539.546875 372.492188 535.484375 376.554688 530.519531 376.554688 Z M 530.519531 376.554688 "/><path style=" stroke:none;fill-rule:evenodd;fill:#10a997;fill-opacity:1;" d="M 566.1875 364.363281 C 560.769531 364.363281 557.15625 360.300781 557.15625 355.335938 L 557.15625 319.214844 C 557.15625 313.796875 560.769531 310.183594 566.1875 310.183594 C 571.152344 310.183594 575.21875 313.796875 575.21875 319.214844 L 575.21875 355.335938 C 575.21875 360.300781 571.152344 364.363281 566.1875 364.363281 Z M 566.1875 364.363281 "/><path style=" stroke:none;fill-rule:evenodd;fill:#10a997;fill-opacity:1;" d="M 601.40625 376.554688 C 596.4375 376.554688 592.375 372.492188 592.375 367.523438 L 592.375 306.570312 C 592.375 301.605469 596.4375 297.542969 601.40625 297.542969 C 606.371094 297.542969 610.433594 301.605469 610.433594 306.570312 L 610.433594 367.523438 C 610.433594 372.492188 606.371094 376.554688 601.40625 376.554688 Z M 601.40625 376.554688 "/><path style=" stroke:none;fill-rule:evenodd;fill:#10a997;fill-opacity:1;" d="M 637.074219 364.363281 C 632.105469 364.363281 628.042969 360.300781 628.042969 355.335938 L 628.042969 319.214844 C 628.042969 313.796875 632.105469 310.183594 637.074219 310.183594 C 642.039062 310.183594 646.105469 313.796875 646.105469 319.214844 L 646.105469 355.335938 C 646.105469 360.300781 642.039062 364.363281 637.074219 364.363281 Z M 637.074219 364.363281 "/><path style=" stroke:none;fill-rule:evenodd;fill:#10a997;fill-opacity:1;" d="M 530.519531 541.355469 C 525.101562 541.355469 521.488281 537.289062 521.488281 532.324219 L 521.488281 415.835938 C 521.488281 410.417969 525.550781 406.804688 530.519531 406.804688 C 535.484375 406.804688 539.546875 410.871094 539.546875 415.835938 L 539.546875 532.324219 C 539.546875 537.289062 535.484375 541.355469 530.519531 541.355469 Z M 530.519531 541.355469 "/><path style=" stroke:none;fill-rule:evenodd;fill:#10a997;fill-opacity:1;" d="M 566.1875 517.875 C 560.769531 517.875 557.15625 513.8125 557.15625 508.847656 L 557.15625 439.3125 C 557.15625 434.347656 560.769531 430.285156 566.1875 430.285156 C 571.152344 430.285156 575.21875 434.347656 575.21875 439.3125 L 575.21875 508.847656 C 575.21875 513.8125 571.152344 517.875 566.1875 517.875 Z M 566.1875 517.875 "/><path style=" stroke:none;fill-rule:evenodd;fill:#10a997;fill-opacity:1;" d="M 601.40625 541.355469 C 596.4375 541.355469 592.375 537.289062 592.375 532.324219 L 592.375 415.835938 C 592.375 410.417969 596.4375 406.804688 601.40625 406.804688 C 606.371094 406.804688 610.433594 410.871094 610.433594 415.835938 L 610.433594 532.324219 C 610.433594 537.289062 606.371094 541.355469 601.40625 541.355469 Z M 601.40625 541.355469 "/></g></svg>