<svg xmlns="http://www.w3.org/2000/svg" xmlns:xlink="http://www.w3.org/1999/xlink" width="1080" zoomAndPan="magnify" viewBox="0 0 810 809.999993" height="1080" preserveAspectRatio="xMidYMid meet" version="1.2"><defs><clipPath id="7f8d188f00"><path d="M 13 42 L 801 42 L 801 769.5 L 13 769.5 Z M 13 42 "/></clipPath></defs><g id="5ef90879b0"><g clip-rule="nonzero" clip-path="url(#7f8d188f00)"><path style=" stroke:none;fill-rule:nonzero;fill:#ffffff;fill-opacity:1;" d="M 777.128906 155.625 C 756.960938 139.609375 731.707031 141.492188 695.328125 161.84375 L 652.355469 185.394531 C 615.976562 182.382812 569.421875 189.351562 533.042969 201.976562 C 521.921875 195.945312 510.238281 190.859375 498.175781 186.335938 C 507.597656 183.511719 516.457031 180.683594 523.808594 178.234375 L 531.347656 175.597656 C 537.753906 173.335938 544.351562 171.265625 550.761719 169.003906 C 558.488281 166.175781 562.257812 161.089844 562.257812 152.796875 C 562.257812 121.710938 562.257812 90.242188 562.257812 59.152344 C 562.257812 55.761719 561.503906 53.125 560.183594 51.429688 C 557.734375 45.023438 540.960938 40.875 534.929688 43.136719 C 513.0625 50.675781 488.183594 58.398438 463.117188 66.125 C 464.4375 61.039062 464.4375 56.328125 462.925781 52.371094 C 461.417969 47.472656 456.707031 44.269531 451.808594 44.644531 C 444.832031 44.832031 438.425781 49.542969 432.957031 58.398438 C 432.203125 59.53125 431.640625 60.660156 430.886719 61.792969 C 429.941406 61.039062 429 60.472656 428.058594 59.71875 C 424.476562 57.644531 420.140625 57.644531 416.5625 59.53125 C 409.773438 62.921875 404.496094 68.574219 401.859375 75.546875 C 400.164062 79.691406 399.410156 83.273438 399.21875 86.285156 C 394.507812 87.792969 389.984375 89.300781 385.460938 90.996094 C 379.429688 92.691406 375.28125 98.535156 375.660156 104.75 C 375.660156 112.664062 375.660156 120.578125 375.660156 128.492188 C 367.554688 126.042969 358.507812 125.855469 350.402344 128.492188 C 329.292969 134.898438 311.765625 156.378906 309.691406 177.671875 C 253.898438 192.933594 204.894531 223.457031 168.703125 264.15625 C 163.992188 260.765625 158.714844 258.3125 153.25 256.429688 C 123.089844 235.703125 74.652344 248.328125 41.855469 286.390625 C 7.363281 326.523438 3.40625 379.46875 32.996094 404.90625 C 35.445312 406.976562 38.085938 408.863281 40.722656 410.371094 C 42.230469 412.066406 43.929688 413.761719 45.625 415.269531 C 56.179688 424.3125 69.75 429.023438 85.019531 429.023438 C 90.484375 429.023438 96.136719 428.457031 101.980469 427.140625 C 101.792969 430.152344 101.792969 433.355469 101.792969 436.371094 C 101.792969 444.285156 102.167969 452.199219 102.921875 459.925781 C 75.96875 476.503906 51.46875 492.144531 48.074219 494.40625 L 47.320312 494.972656 C 47.132812 494.972656 47.132812 494.78125 46.945312 494.78125 C 46.945312 494.972656 46.945312 495.160156 46.945312 495.160156 L 46.566406 495.347656 L 46.753906 495.722656 C 46.378906 499.679688 45.8125 503.636719 45.8125 507.59375 C 45.625 560.730469 45.625 614.054688 45.4375 667.1875 C 45.058594 671.332031 47.320312 675.101562 51.089844 676.984375 C 82.191406 694.695312 112.914062 712.597656 144.011719 730.496094 C 163.050781 741.425781 182.277344 752.355469 201.5 763.09375 L 200.558594 763.660156 L 202.066406 765.542969 C 204.328125 768.179688 206.777344 769.5 209.605469 769.5 C 211.679688 769.5 213.753906 768.746094 215.824219 767.425781 C 219.21875 765.355469 222.609375 763.28125 226.191406 761.210938 L 228.453125 759.890625 C 257.101562 743.308594 286.128906 726.539062 314.96875 709.769531 C 317.984375 720.886719 326.089844 730.121094 336.644531 734.265625 C 341.734375 737.84375 347.953125 739.542969 354.359375 739.542969 C 367.933594 739.542969 383.011719 732.382812 394.507812 719.003906 C 398.089844 714.859375 400.917969 710.523438 403.179688 705.8125 C 488.75 702.421875 564.707031 663.984375 615.222656 605.761719 C 623.515625 610.660156 632.1875 613.488281 640.289062 613.488281 C 646.132812 613.488281 651.789062 612.167969 656.6875 609.152344 C 662.53125 605.761719 667.054688 602.183594 670.449219 598.601562 C 684.207031 585.414062 681.757812 557.527344 664.417969 534.164062 C 663.472656 532.84375 662.34375 531.523438 661.402344 530.394531 C 664.226562 523.421875 666.679688 516.261719 668.941406 508.914062 C 673.085938 509.855469 677.421875 510.234375 682.132812 510.234375 C 692.5 510.234375 703.808594 507.972656 714.929688 503.261719 C 745.652344 490.261719 763.746094 463.128906 756.773438 440.515625 C 754.511719 433.355469 752.0625 427.515625 749.234375 422.996094 C 744.332031 413.949219 734.53125 407.921875 721.527344 405.660156 C 708.332031 403.398438 693.066406 405.28125 678.363281 411.125 C 677.046875 397.558594 674.59375 384.179688 671.015625 371.179688 C 713.046875 346.308594 739.808594 318.796875 731.515625 272.445312 L 733.402344 271.503906 C 765.820312 253.980469 780.523438 246.066406 793.339844 228.542969 C 810.113281 204.425781 795.222656 169.945312 777.128906 155.625 Z M 82.566406 312.578125 C 82.378906 312.203125 82.003906 311.824219 81.625 311.449219 C 82.003906 311.824219 82.378906 312.203125 82.566406 312.578125 Z M 154.945312 556.585938 C 148.160156 552.816406 141.5625 548.859375 134.777344 545.089844 C 141.375 548.859375 148.160156 552.816406 154.945312 556.585938 Z M 154.945312 556.585938 C 162.671875 561.105469 170.589844 565.441406 178.316406 569.960938 C 170.589844 565.441406 162.671875 561.105469 154.945312 556.585938 Z M 154.945312 556.585938 "/></g><path style=" stroke:none;fill-rule:nonzero;fill:#6eb2e2;fill-opacity:1;" d="M 594.113281 586.167969 C 595.808594 588.425781 597.503906 590.5 599.390625 592.574219 C 585.253906 609.152344 568.855469 623.851562 550.574219 636.476562 C 514.761719 661.347656 472.164062 678.304688 425.796875 683.957031 L 392.625 549.613281 C 427.492188 549.613281 462.363281 549.613281 497.230469 549.613281 C 508.351562 549.988281 517.777344 541.132812 518.152344 530.015625 C 518.152344 528.886719 518.152344 527.757812 517.964844 526.625 C 515.136719 497.984375 512.308594 469.15625 509.292969 440.515625 C 515.136719 439.953125 521.546875 438.820312 528.519531 437.125 L 649.148438 428.457031 C 645.378906 432.039062 642.175781 435.617188 639.535156 439.574219 C 631.433594 451.632812 629.359375 463.882812 633.882812 474.246094 C 633.882812 474.433594 634.070312 474.621094 634.070312 474.621094 C 635.203125 479.144531 637.273438 483.855469 640.289062 489.128906 C 642.550781 493.273438 645.757812 497.042969 649.714844 499.871094 C 648.773438 503.261719 647.640625 506.652344 646.511719 510.042969 C 645.945312 511.742188 645.378906 513.246094 644.8125 514.945312 C 640.855469 512.304688 636.710938 510.234375 632.5625 508.726562 C 620.6875 504.390625 609.566406 505.144531 601.652344 511.175781 C 601.464844 511.175781 601.464844 511.363281 601.273438 511.363281 C 597.695312 513.246094 594.113281 516.074219 590.152344 519.652344 C 574.699219 533.972656 576.394531 562.425781 594.113281 586.167969 Z M 192.832031 322.378906 C 191.132812 345.175781 180.957031 368.539062 163.992188 388.324219 C 151.929688 402.457031 137.417969 413.382812 122.148438 420.355469 C 121.773438 425.445312 121.582031 430.71875 121.582031 435.996094 C 121.582031 440.140625 121.773438 444.097656 121.960938 448.054688 C 137.039062 438.820312 151.550781 430.152344 162.109375 423.9375 L 168.703125 420.167969 C 181.898438 412.441406 195.46875 404.71875 208.851562 396.804688 C 213.375 394.164062 217.332031 395.671875 220.347656 397.367188 C 233.730469 405.09375 246.925781 412.820312 260.308594 420.542969 L 261.25 419.980469 L 276.515625 428.835938 C 277.835938 416.585938 279.15625 404.152344 280.285156 391.90625 C 281.792969 377.585938 283.300781 363.078125 285 348.757812 C 286.128906 337.640625 293.859375 330.292969 305.167969 329.914062 C 315.910156 329.539062 326.652344 329.726562 337.398438 329.539062 C 338.339844 329.539062 339.28125 329.347656 340.226562 329.160156 C 340.226562 324.636719 340.226562 320.117188 340.226562 315.78125 C 340.414062 284.503906 364.539062 260.386719 395.640625 260.765625 C 417.503906 261.328125 435.972656 274.707031 444.078125 293.738281 C 445.964844 292.796875 447.660156 291.664062 449.546875 290.722656 C 450.300781 290.347656 451.054688 289.96875 451.808594 289.59375 C 448.980469 287.894531 446.53125 285.636719 445.023438 282.621094 C 437.859375 267.359375 457.460938 243.429688 497.421875 218.371094 C 501 216.109375 505.148438 213.847656 509.292969 211.773438 C 495.535156 205.367188 481.023438 200.09375 466.132812 195.945312 C 453.503906 199.714844 441.0625 203.484375 431.074219 206.875 C 427.492188 207.816406 424.855469 210.457031 423.910156 213.660156 C 422.027344 218.933594 419.953125 224.210938 417.691406 229.675781 L 417.316406 230.617188 C 416.5625 232.6875 414.675781 234.007812 412.789062 234.007812 C 412.789062 234.007812 412.601562 234.007812 412.601562 234.007812 C 411.09375 234.007812 409.964844 232.878906 409.398438 231.371094 L 409.210938 230.992188 C 407.890625 226.660156 406.757812 222.324219 405.816406 218.179688 C 405.628906 217.617188 405.441406 216.671875 404.875 216.296875 C 404.6875 216.296875 404.496094 216.109375 404.308594 216.109375 C 403.933594 216.109375 403.179688 216.109375 402.425781 216.296875 C 401.671875 216.484375 400.726562 216.863281 399.972656 217.050781 C 399.410156 217.238281 398.84375 217.425781 398.277344 217.617188 C 398.089844 217.617188 397.710938 217.804688 397.523438 217.804688 C 394.132812 218.746094 391.304688 218.558594 389.230469 217.050781 C 386.96875 215.542969 386.027344 212.714844 386.027344 208.757812 C 386.027344 207.816406 386.027344 206.875 386.027344 205.746094 C 386.027344 205.179688 386.027344 204.425781 386.027344 203.859375 C 385.082031 204.804688 383.953125 205.746094 383.011719 206.6875 C 372.832031 215.542969 360.582031 220.441406 349.648438 220.441406 C 343.050781 220.441406 337.019531 218.746094 331.929688 215.167969 C 323.261719 211.773438 316.097656 204.613281 312.140625 195.945312 C 311.386719 196.136719 310.632812 196.324219 309.878906 196.511719 C 305.730469 197.644531 301.585938 198.960938 297.4375 200.46875 C 291.21875 202.542969 285.1875 204.804688 279.34375 207.441406 C 271.429688 210.832031 263.699219 214.414062 256.160156 218.558594 C 252.390625 220.628906 248.808594 222.703125 245.039062 224.777344 C 239.574219 227.980469 234.296875 231.558594 229.207031 235.140625 C 225.816406 237.589844 222.421875 240.039062 219.03125 242.488281 C 217.332031 243.804688 215.824219 245.125 214.128906 246.445312 C 209.230469 250.402344 204.515625 254.546875 199.992188 258.691406 C 198.484375 260.199219 196.976562 261.519531 195.46875 263.023438 C 192.453125 265.851562 189.625 268.867188 186.800781 271.878906 C 185.101562 273.765625 183.40625 275.648438 181.710938 277.535156 C 190.378906 289.402344 194.148438 305.042969 192.832031 322.378906 Z M 367.179688 290.347656 C 357.1875 301.273438 357.566406 314.273438 358.128906 327.464844 C 358.128906 328.21875 360.015625 329.539062 361.148438 329.539062 C 374.90625 329.539062 388.476562 329.539062 402.425781 329.539062 C 407.890625 320.871094 417.125 311.636719 429 303.160156 C 425.609375 292.796875 417.691406 284.316406 407.324219 280.359375 C 393 275.273438 377.355469 279.230469 367.179688 290.347656 Z M 549.820312 49.542969 C 553.777344 48.226562 556.792969 48.414062 558.867188 49.921875 C 559.242188 50.296875 559.621094 50.675781 559.996094 51.050781 C 557.546875 44.644531 540.769531 40.5 534.738281 42.761719 C 512.875 50.296875 487.996094 58.023438 462.925781 65.75 C 461.984375 69.140625 460.664062 72.53125 458.59375 76.300781 C 458.027344 77.429688 457.273438 78.371094 456.707031 79.503906 C 462.738281 77.617188 468.769531 75.734375 474.800781 73.851562 C 500.625 65.558594 527.390625 57.269531 549.820312 49.542969 Z M 386.402344 133.203125 C 386.402344 126.984375 386.402344 120.578125 386.402344 114.359375 C 386.027344 107.199219 390.738281 100.605469 397.523438 98.722656 C 399.03125 98.15625 400.351562 97.78125 401.859375 97.214844 C 399.972656 94.578125 398.84375 90.996094 399.03125 86.285156 C 394.320312 87.792969 389.796875 89.300781 385.273438 90.996094 C 379.242188 92.691406 375.09375 98.535156 375.472656 104.75 C 375.472656 112.664062 375.472656 120.578125 375.472656 128.492188 C 379.429688 129.621094 383.011719 131.128906 386.402344 133.203125 Z M 452.75 156.566406 C 455.386719 158.640625 458.402344 159.957031 461.796875 161.277344 C 462.925781 161.84375 464.058594 162.21875 465.191406 162.785156 C 466.886719 163.539062 468.394531 164.292969 470.089844 165.046875 C 472.539062 166.175781 474.992188 167.308594 477.628906 168.4375 C 478.949219 169.003906 480.269531 169.566406 481.585938 170.132812 L 487.242188 162.410156 C 492.707031 154.871094 497.984375 147.898438 503.261719 140.738281 C 506.65625 136.40625 509.671875 131.695312 512.5 126.984375 C 517.023438 119.070312 518.90625 111.910156 518.34375 105.695312 C 518.152344 103.808594 517.777344 101.925781 517.210938 100.230469 C 515.890625 95.894531 511.933594 93.257812 507.597656 93.632812 C 500.4375 93.824219 493.460938 99.097656 487.617188 108.707031 C 486.675781 110.214844 485.921875 111.722656 484.980469 113.042969 L 482.53125 117 L 480.832031 115.679688 C 479.136719 114.359375 477.441406 113.042969 475.554688 111.910156 C 474.046875 110.96875 472.351562 110.59375 470.46875 110.59375 C 468.769531 110.59375 467.074219 110.96875 465.378906 111.910156 C 457.839844 115.679688 451.996094 121.898438 448.980469 129.621094 C 444.269531 141.683594 445.398438 150.914062 452.75 156.566406 Z M 374.527344 494.59375 L 365.292969 500.058594 C 360.582031 502.882812 355.679688 505.710938 350.96875 508.539062 C 346.445312 511.175781 342.109375 513.8125 337.585938 516.449219 C 331.175781 520.21875 324.957031 523.988281 318.550781 527.945312 C 307.804688 534.351562 296.683594 541.132812 285.566406 547.539062 C 284.433594 548.105469 283.300781 548.859375 282.359375 549.425781 C 269.355469 556.960938 256.160156 564.308594 243.34375 571.65625 C 233.921875 577.121094 224.308594 582.398438 214.882812 587.863281 C 213.375 588.992188 211.679688 589.746094 209.792969 589.933594 C 209.605469 590.3125 209.605469 590.6875 209.605469 591.066406 C 209.605469 591.066406 209.605469 591.253906 209.605469 591.253906 C 209.984375 592.761719 209.984375 594.082031 209.792969 595.585938 C 209.792969 604.253906 209.792969 612.921875 209.792969 621.589844 C 209.792969 628.371094 209.792969 635.15625 209.792969 641.9375 C 209.792969 642.691406 209.792969 643.636719 209.792969 644.386719 C 209.792969 645.140625 209.792969 645.894531 209.792969 646.648438 C 209.792969 683.957031 209.792969 721.265625 209.792969 758.570312 C 209.792969 762.339844 209.417969 764.789062 207.15625 764.976562 C 209.039062 765.917969 210.925781 765.542969 213.375 764.035156 C 216.769531 761.773438 220.347656 759.703125 223.742188 757.816406 L 226.003906 756.5 C 255.03125 739.730469 284.246094 722.582031 313.648438 705.625 C 313.460938 703.929688 313.273438 702.234375 313.273438 700.347656 C 313.273438 699.03125 313.273438 697.523438 313.460938 696.203125 C 313.460938 695.640625 313.648438 694.886719 313.648438 694.320312 C 313.648438 693.753906 313.835938 693 314.027344 692.4375 C 314.96875 687.347656 316.664062 682.261719 319.113281 677.550781 C 326.277344 663.417969 339.28125 651.546875 354.171875 647.027344 C 361.148438 644.953125 368.496094 644.765625 375.660156 646.085938 C 375.660156 645.894531 375.660156 645.894531 375.660156 645.707031 C 375.660156 614.050781 375.847656 581.832031 375.847656 549.613281 C 375.847656 535.105469 375.847656 520.597656 375.847656 506.085938 C 375.847656 503.261719 375.847656 500.433594 375.847656 497.609375 C 375.847656 497.042969 375.847656 496.476562 376.035156 495.914062 C 376.035156 495.722656 376.035156 495.535156 376.035156 495.347656 C 376.035156 494.59375 376.035156 494.027344 376.035156 493.464844 Z M 291.785156 442.964844 L 292.726562 442.402344 L 275.953125 432.792969 L 261.25 424.3125 L 260.308594 424.878906 L 131.574219 503.449219 L 117.25 512.117188 L 115.550781 513.058594 L 113.855469 514 L 98.210938 523.609375 L 98.023438 523.800781 L 97.457031 524.175781 L 97.457031 527.566406 L 97.082031 602.9375 L 129.121094 621.210938 L 130.632812 554.136719 L 130.632812 541.886719 L 131.574219 541.324219 L 142.882812 534.351562 L 273.5 454.082031 Z M 590.34375 540.191406 C 589.964844 533.410156 590.90625 527.378906 592.980469 522.101562 C 592.792969 522.292969 592.792969 522.292969 592.605469 522.480469 C 578.65625 535.292969 580.542969 561.671875 596.941406 583.71875 C 598.070312 585.414062 599.390625 586.921875 600.710938 588.425781 L 608.058594 581.269531 C 607.117188 580.136719 606.175781 578.816406 605.234375 577.6875 C 596.5625 566.003906 591.285156 552.628906 590.34375 540.191406 Z M 661.210938 536.046875 C 670.449219 548.484375 675.347656 562.238281 675.347656 573.917969 C 675.347656 575.992188 675.347656 577.875 674.972656 579.761719 C 674.21875 586.167969 671.769531 591.628906 667.621094 595.398438 C 667.054688 595.964844 666.300781 596.71875 665.546875 597.285156 C 663.472656 598.789062 661.210938 599.921875 658.761719 600.675781 C 649.148438 603.691406 636.898438 600.488281 625.402344 592.574219 C 624.835938 592.195312 624.457031 591.820312 623.894531 591.628906 C 623.328125 591.253906 622.761719 590.878906 622.386719 590.5 C 618.238281 587.296875 614.28125 583.339844 610.699219 579.007812 C 610.699219 579.007812 610.511719 578.816406 610.511719 578.816406 C 609.757812 577.875 609.003906 576.933594 608.25 575.804688 C 599.957031 564.6875 594.867188 552.0625 594.113281 540.378906 C 593.359375 529.261719 596.75 520.21875 603.347656 515.132812 C 603.535156 514.945312 603.535156 514.945312 603.726562 514.753906 C 607.496094 511.929688 612.019531 510.421875 617.296875 510.421875 C 617.484375 510.421875 617.859375 510.421875 618.050781 510.421875 C 620.3125 510.421875 622.574219 510.609375 625.023438 511.175781 C 627.097656 511.550781 629.171875 512.117188 631.242188 512.871094 C 635.390625 514.378906 639.535156 516.640625 643.496094 519.277344 C 648.207031 522.480469 652.730469 526.625 656.878906 531.148438 C 657.441406 531.710938 657.820312 532.277344 658.386719 532.84375 C 658.761719 533.410156 659.328125 533.972656 659.703125 534.539062 C 660.082031 534.726562 660.648438 535.480469 661.210938 536.046875 Z M 667.433594 560.542969 C 665.734375 553.570312 662.34375 546.222656 657.253906 539.4375 C 657.253906 539.4375 657.253906 539.25 657.066406 539.25 C 656.6875 538.683594 656.3125 538.308594 655.933594 537.742188 C 655.558594 537.175781 654.992188 536.613281 654.617188 536.046875 C 650.46875 531.148438 645.945312 527.378906 641.234375 524.363281 C 640.289062 523.800781 639.347656 523.234375 638.21875 522.667969 C 636.898438 521.914062 635.390625 521.160156 634.070312 520.785156 C 632.75 520.21875 631.433594 519.84375 630.113281 519.464844 C 622.949219 517.582031 616.164062 518.148438 611.265625 521.914062 C 605.421875 526.25 602.78125 533.785156 603.535156 543.207031 C 604.289062 552.25 608.25 562.238281 614.84375 570.90625 C 615.035156 571.28125 615.410156 571.660156 615.597656 571.847656 C 615.976562 572.222656 616.351562 572.789062 616.730469 573.164062 C 620.125 577.3125 623.894531 580.703125 627.664062 583.527344 C 628.226562 583.90625 628.792969 584.28125 629.359375 584.660156 C 629.925781 585.035156 630.300781 585.222656 630.867188 585.601562 C 637.085938 589.558594 643.683594 591.632812 649.527344 591.632812 C 653.863281 591.632812 657.820312 590.5 661.023438 588.050781 C 662.910156 586.730469 664.226562 585.035156 665.546875 583.152344 C 667.054688 580.703125 667.996094 577.875 668.5625 574.671875 C 668.941406 572.789062 668.941406 570.714844 668.941406 568.457031 C 668.941406 567.136719 668.75 565.816406 668.5625 564.5 C 667.996094 563.367188 667.621094 561.859375 667.433594 560.542969 Z M 708.144531 488.1875 C 696.835938 492.898438 685.148438 495.535156 674.21875 495.535156 C 673.464844 495.535156 672.898438 495.535156 672.144531 495.535156 C 671.578125 495.535156 670.824219 495.535156 670.261719 495.535156 C 669.695312 495.535156 668.941406 495.535156 668.375 495.347656 C 666.488281 495.160156 664.605469 494.972656 662.71875 494.59375 C 658.761719 493.839844 655.179688 492.898438 651.789062 491.390625 C 648.394531 489.882812 645.191406 488.1875 642.550781 485.925781 C 642.742188 486.492188 643.117188 487.058594 643.496094 487.433594 C 645.378906 490.824219 647.832031 493.652344 650.65625 496.101562 C 654.804688 499.679688 660.082031 502.320312 666.113281 504.015625 C 666.679688 504.203125 667.433594 504.390625 667.996094 504.582031 C 668.5625 504.769531 669.128906 504.769531 669.882812 504.957031 C 682.699219 507.59375 697.96875 505.898438 713.234375 499.492188 C 715.308594 498.550781 717.378906 497.609375 719.453125 496.667969 L 713.234375 486.113281 C 711.347656 486.867188 709.839844 487.433594 708.144531 488.1875 Z M 748.480469 435.242188 C 748.859375 442.402344 746.40625 450.125 741.128906 457.664062 C 734.34375 467.648438 723.789062 476.503906 710.972656 482.722656 C 709.652344 483.476562 708.144531 484.042969 706.636719 484.609375 C 695.328125 489.316406 683.640625 491.769531 672.898438 491.578125 C 672.332031 491.578125 671.578125 491.578125 671.015625 491.578125 C 670.449219 491.578125 669.695312 491.578125 669.128906 491.578125 C 667.246094 491.390625 665.171875 491.203125 663.285156 490.824219 C 659.328125 490.070312 655.746094 489.128906 652.542969 487.621094 C 645.378906 484.417969 640.101562 479.707031 637.464844 473.492188 C 637.464844 473.300781 637.273438 473.113281 637.273438 472.925781 C 635.390625 468.402344 634.824219 463.316406 635.765625 458.230469 C 636.144531 455.589844 637.085938 452.765625 638.21875 450.125 C 639.347656 447.488281 640.855469 444.664062 642.742188 442.023438 C 646.132812 437.125 650.28125 432.414062 655.371094 428.269531 C 656.3125 427.515625 657.441406 426.574219 658.386719 425.820312 C 663.285156 422.050781 668.753906 418.847656 674.785156 416.023438 C 675.347656 415.835938 675.914062 415.457031 676.667969 415.269531 C 676.855469 415.082031 677.046875 415.082031 677.421875 414.890625 C 677.800781 414.703125 678.175781 414.515625 678.554688 414.515625 C 689.109375 410.179688 699.851562 407.921875 709.839844 407.921875 C 713.609375 407.921875 717.191406 408.296875 720.585938 408.863281 C 722.09375 409.050781 723.414062 409.429688 724.730469 409.804688 C 726.804688 410.371094 728.691406 410.933594 730.574219 411.6875 C 737.359375 414.515625 742.449219 418.660156 745.464844 424.125 C 745.84375 424.878906 746.21875 425.632812 746.597656 426.574219 C 747.726562 429.402344 748.292969 432.226562 748.480469 435.242188 Z M 734.53125 429.964844 C 733.402344 427.328125 731.707031 425.066406 729.632812 422.996094 C 727.746094 421.296875 725.484375 419.792969 722.847656 418.660156 C 720.394531 417.53125 717.378906 416.585938 714.363281 416.023438 C 713.988281 416.023438 713.609375 415.835938 713.234375 415.835938 C 712.292969 415.644531 711.347656 415.644531 710.40625 415.457031 C 708.898438 415.269531 707.578125 415.269531 706.070312 415.269531 C 697.589844 415.269531 688.542969 417.152344 679.683594 420.921875 C 679.308594 421.109375 679.117188 421.109375 678.742188 421.296875 C 678.175781 421.488281 677.421875 421.863281 676.855469 422.050781 C 676.292969 422.429688 675.539062 422.617188 674.972656 422.996094 C 668.5625 426.199219 662.910156 430.34375 658.386719 434.863281 C 657.441406 435.617188 656.6875 436.558594 655.933594 437.503906 C 654.804688 438.632812 653.863281 439.953125 653.109375 441.082031 C 652.164062 442.214844 651.410156 443.53125 650.847656 444.664062 C 646.324219 452.199219 645.003906 460.113281 648.019531 467.085938 C 649.527344 470.664062 651.976562 473.492188 655.179688 475.753906 C 659.515625 478.765625 664.980469 480.652344 671.390625 481.40625 C 671.957031 481.40625 672.710938 481.59375 673.277344 481.59375 C 673.839844 481.59375 674.59375 481.59375 675.160156 481.78125 C 675.726562 481.78125 676.480469 481.78125 677.046875 481.78125 C 685.148438 481.78125 694.195312 479.898438 703.054688 476.128906 C 704.1875 475.753906 705.128906 475.1875 706.070312 474.621094 C 716.0625 469.722656 724.542969 463.128906 730.007812 455.402344 C 736.230469 446.359375 737.738281 437.503906 734.53125 429.964844 Z M 348.328125 171.453125 L 348.328125 173.335938 L 348.707031 188.410156 L 348.894531 199.714844 L 365.859375 186.335938 L 375.472656 178.800781 L 386.027344 170.511719 L 386.214844 170.320312 L 386.78125 169.945312 L 386.214844 169.757812 L 382.632812 168.625 L 377.167969 166.929688 L 375.28125 166.363281 L 347.953125 157.699219 L 348.140625 169.566406 Z M 376.226562 703.550781 L 376.226562 701.667969 L 376.035156 685.839844 L 375.847656 673.40625 L 375.847656 669.070312 L 360.203125 681.128906 L 356.246094 684.144531 L 349.460938 689.421875 L 342.675781 694.695312 L 349.273438 699.03125 L 352.851562 701.480469 L 356.246094 703.742188 L 376.226562 717.117188 L 376.035156 705.4375 Z M 101.980469 423.183594 C 82.757812 427.515625 65.226562 424.691406 52.03125 415.269531 C 50.714844 414.328125 49.394531 413.382812 48.074219 412.253906 C 34.316406 400.382812 27.53125 381.917969 29.039062 360.0625 C 30.734375 338.015625 40.535156 315.40625 56.933594 296.375 C 73.332031 277.34375 94.253906 264.15625 115.742188 259.066406 C 121.773438 257.75 127.613281 256.996094 133.269531 256.996094 C 144.011719 256.996094 154.003906 259.445312 162.484375 264.34375 C 163.804688 265.097656 164.933594 265.851562 166.066406 266.605469 C 166.632812 266.980469 167.007812 267.359375 167.386719 267.734375 C 167.949219 268.113281 168.515625 268.488281 168.894531 269.054688 C 169.269531 269.429688 169.648438 269.621094 170.023438 269.996094 C 173.605469 273.011719 176.808594 276.589844 179.257812 280.546875 C 186.800781 291.664062 190.003906 305.984375 188.871094 322.1875 C 187.175781 344.234375 177.375 366.84375 160.976562 385.875 C 149.667969 398.875 136.472656 409.238281 122.335938 416.023438 C 116.871094 418.660156 111.21875 420.734375 105.75 422.242188 C 105.1875 422.429688 104.433594 422.617188 103.867188 422.804688 C 103.300781 422.996094 102.921875 422.996094 102.359375 423.183594 C 102.359375 422.996094 102.167969 422.996094 101.980469 423.183594 Z M 104.808594 396.050781 C 105.5625 394.355469 106.128906 392.660156 106.128906 390.773438 C 106.128906 390.207031 106.128906 389.644531 105.941406 389.078125 C 105.75 387.570312 104.996094 386.253906 104.054688 385.121094 C 103.300781 383.613281 101.605469 382.296875 99.53125 381.164062 L 108.011719 378.527344 L 112.160156 377.394531 L 123.46875 374.003906 C 123.089844 374.945312 122.902344 375.890625 122.902344 377.019531 C 122.902344 379.28125 124.597656 382.671875 126.859375 385.5 C 128.179688 387.195312 129.5 388.511719 131.007812 389.644531 C 131.007812 389.644531 131.007812 389.644531 131.195312 389.832031 C 132.515625 390.773438 134.023438 391.339844 135.53125 391.339844 C 135.71875 391.339844 135.910156 391.339844 135.910156 391.339844 C 136.851562 391.339844 137.980469 391.152344 138.925781 390.960938 C 144.578125 389.078125 148.347656 383.992188 148.726562 377.960938 C 148.726562 377.960938 148.726562 377.960938 148.726562 377.773438 C 148.726562 377.019531 148.535156 376.265625 148.347656 375.511719 C 148.347656 375.511719 148.347656 375.324219 148.347656 375.324219 C 148.347656 373.0625 145.332031 370.425781 141.75 368.539062 L 153.058594 365.148438 L 153.058594 351.207031 L 152.871094 351.207031 L 144.203125 347.8125 L 139.867188 349.132812 C 139.113281 349.320312 138.171875 349.699219 137.417969 349.886719 C 140.433594 348.191406 142.882812 345.742188 144.203125 342.539062 C 145.898438 338.769531 147.78125 335 149.480469 331.234375 L 150.042969 329.914062 C 154.003906 321.625 158.148438 313.144531 162.109375 304.855469 C 162.484375 304.289062 162.671875 303.535156 162.671875 302.78125 C 162.671875 302.40625 162.671875 302.027344 162.671875 301.652344 C 162.671875 300.519531 162.296875 299.765625 161.917969 299.011719 C 161.164062 296.1875 153.4375 292.605469 149.855469 292.796875 C 149.480469 292.796875 149.289062 292.796875 149.101562 292.984375 C 148.347656 293.171875 147.78125 293.359375 147.027344 293.550781 C 146.085938 293.738281 145.332031 294.113281 144.390625 294.304688 C 140.621094 295.433594 136.851562 296.5625 133.082031 297.695312 C 116.117188 302.78125 99.34375 308.058594 82.378906 313.144531 C 82.191406 312.769531 82.003906 312.578125 82.003906 312.203125 C 81.8125 311.636719 81.25 311.070312 80.496094 310.695312 L 73.707031 306.925781 C 73.144531 306.550781 72.390625 306.363281 71.636719 306.550781 C 67.488281 307.867188 63.53125 309 59.382812 310.320312 L 56.746094 311.070312 L 56.746094 320.871094 L 61.835938 329.160156 L 61.835938 329.347656 L 66.734375 327.839844 C 68.242188 327.464844 69.75 326.898438 71.257812 326.523438 C 75.40625 334.058594 79.550781 341.40625 83.699219 348.945312 C 83.886719 349.320312 83.886719 349.886719 83.699219 350.265625 C 82.945312 351.960938 82.003906 353.84375 81.058594 355.539062 C 79.550781 358.554688 78.042969 361.570312 76.914062 364.773438 C 75.214844 370.425781 77.289062 374.570312 81.4375 375.324219 C 81.625 377.585938 82.378906 379.46875 83.886719 380.976562 C 83.886719 380.976562 84.074219 381.164062 84.265625 381.164062 C 81.8125 383.425781 80.117188 386.441406 79.929688 390.019531 C 79.929688 394.164062 85.773438 402.644531 90.296875 403.773438 C 91.050781 403.964844 91.992188 404.152344 92.933594 404.152344 C 93.875 404.152344 95.007812 403.964844 95.949219 403.585938 C 100.285156 402.457031 103.300781 399.628906 104.808594 396.050781 Z M 104.808594 396.050781 "/><path style=" stroke:none;fill-rule:nonzero;fill:#000000;fill-opacity:1;" d="M 777.128906 155.625 C 756.960938 139.609375 731.707031 141.492188 695.328125 161.84375 L 652.355469 185.394531 C 615.976562 182.382812 569.421875 189.351562 533.042969 201.976562 C 521.921875 195.945312 510.238281 190.859375 498.175781 186.335938 C 507.597656 183.511719 516.457031 180.683594 523.808594 178.234375 L 531.347656 175.597656 C 537.753906 173.335938 544.351562 171.265625 550.761719 169.003906 C 558.488281 166.175781 562.257812 161.089844 562.257812 152.796875 C 562.257812 121.710938 562.257812 90.242188 562.257812 59.152344 C 562.257812 55.761719 561.503906 53.125 560.183594 51.429688 C 559.808594 51.050781 559.429688 50.675781 559.054688 50.296875 C 556.792969 48.789062 553.777344 48.601562 550.007812 49.921875 C 527.390625 57.269531 500.625 65.558594 474.800781 73.660156 C 468.769531 75.546875 462.738281 77.429688 456.707031 79.316406 C 457.273438 78.371094 458.027344 77.242188 458.59375 76.113281 C 460.664062 72.34375 461.984375 68.953125 462.925781 65.558594 C 464.246094 60.472656 464.246094 55.761719 462.738281 51.804688 C 461.230469 46.90625 456.519531 43.703125 451.617188 44.078125 C 444.644531 44.269531 438.234375 48.980469 432.769531 57.835938 C 432.015625 58.964844 431.449219 60.097656 430.695312 61.226562 C 429.753906 60.472656 428.8125 59.90625 427.871094 59.152344 C 424.289062 57.082031 419.953125 57.082031 416.371094 58.964844 C 409.585938 62.355469 404.308594 68.007812 401.671875 74.980469 C 399.972656 79.125 399.21875 82.707031 399.03125 85.722656 C 398.84375 90.429688 399.972656 94.011719 401.859375 96.648438 C 400.351562 97.214844 399.03125 97.589844 397.523438 98.15625 C 390.550781 100.039062 386.027344 106.824219 386.402344 113.796875 C 386.402344 120.011719 386.402344 126.417969 386.402344 132.636719 C 383.199219 130.566406 379.429688 129.058594 375.660156 127.925781 C 367.554688 125.476562 358.507812 125.289062 350.402344 127.925781 C 329.292969 134.332031 311.765625 155.8125 309.691406 177.105469 C 253.898438 192.367188 204.894531 222.890625 168.703125 263.589844 C 163.992188 260.199219 158.714844 257.75 153.25 255.863281 C 123.089844 235.140625 74.652344 247.761719 41.855469 285.824219 C 7.363281 325.957031 3.40625 378.902344 32.996094 404.339844 C 35.445312 406.414062 38.085938 408.296875 40.722656 409.804688 C 42.230469 411.5 43.929688 413.195312 45.625 414.703125 C 56.179688 423.746094 69.75 428.457031 85.019531 428.457031 C 90.484375 428.457031 96.136719 427.894531 101.980469 426.574219 C 101.792969 429.589844 101.792969 432.792969 101.792969 435.808594 C 101.792969 443.71875 102.167969 451.632812 102.921875 459.359375 C 75.96875 475.941406 51.46875 491.578125 48.074219 493.839844 L 47.320312 494.40625 C 47.132812 494.40625 47.132812 494.21875 46.945312 494.21875 C 46.945312 494.40625 46.945312 494.59375 46.945312 494.59375 L 46.566406 494.78125 L 46.753906 495.160156 C 46.378906 499.117188 45.8125 503.074219 45.8125 507.03125 C 45.625 560.164062 45.625 613.488281 45.4375 666.621094 C 45.058594 670.765625 47.320312 674.535156 51.089844 676.421875 C 82.191406 694.132812 112.914062 712.03125 144.011719 729.933594 C 163.050781 740.859375 181.332031 752.164062 200.558594 763.09375 L 202.066406 764.976562 C 204.328125 767.617188 206.777344 768.933594 209.605469 768.933594 C 211.679688 768.933594 213.753906 768.179688 215.824219 766.863281 C 219.21875 764.789062 222.609375 762.71875 226.191406 760.644531 L 228.453125 759.324219 C 257.101562 742.746094 286.128906 725.976562 314.96875 709.207031 C 317.984375 720.320312 326.089844 729.554688 336.644531 733.699219 C 341.734375 737.28125 347.953125 738.976562 354.359375 738.976562 C 367.933594 738.976562 383.011719 731.816406 394.507812 718.4375 C 398.089844 714.292969 400.917969 709.960938 403.179688 705.25 C 488.75 701.855469 564.707031 663.417969 615.222656 605.195312 C 623.515625 610.097656 632.1875 612.921875 640.289062 612.921875 C 646.132812 612.921875 651.789062 611.601562 656.6875 608.589844 C 662.53125 605.195312 667.054688 601.617188 670.449219 598.039062 C 684.207031 584.847656 681.757812 556.960938 664.417969 533.597656 C 663.472656 532.277344 662.34375 530.960938 661.402344 529.828125 C 664.226562 522.855469 666.679688 515.695312 668.941406 508.347656 C 673.085938 509.289062 677.421875 509.667969 682.132812 509.667969 C 692.5 509.667969 703.808594 507.40625 714.929688 502.695312 C 745.652344 489.695312 763.746094 462.5625 756.773438 439.953125 C 754.511719 432.792969 752.0625 426.949219 749.234375 422.429688 C 744.332031 413.382812 734.53125 407.355469 721.527344 405.09375 C 708.332031 402.832031 693.066406 404.71875 678.363281 410.558594 C 677.046875 396.992188 674.59375 383.613281 671.015625 370.613281 C 713.046875 345.742188 739.808594 318.230469 731.515625 271.878906 L 733.402344 270.9375 C 765.820312 253.414062 780.523438 245.5 793.339844 227.980469 C 810.113281 204.425781 795.222656 169.945312 777.128906 155.625 Z M 402.988281 84.96875 C 403.367188 82.519531 404.121094 79.878906 405.25 76.863281 C 407.703125 70.648438 412.226562 65.75 418.257812 62.734375 C 419.386719 61.980469 420.894531 61.792969 422.214844 61.792969 C 423.535156 61.792969 424.855469 62.167969 425.984375 62.734375 C 427.492188 63.675781 428.8125 64.617188 430.132812 65.75 L 431.828125 67.066406 L 433.902344 63.488281 C 434.65625 62.355469 435.21875 61.039062 435.972656 59.90625 C 440.6875 52.371094 446.152344 48.226562 451.808594 48.035156 C 455.199219 47.660156 458.214844 49.921875 459.15625 53.125 C 460.664062 57.082031 460.476562 61.792969 458.59375 67.066406 C 457.839844 69.328125 456.707031 71.777344 455.386719 74.226562 C 454.070312 76.488281 452.5625 78.75 451.054688 81.011719 C 450.488281 81.953125 449.921875 82.707031 449.167969 83.648438 C 448.792969 84.214844 448.414062 84.777344 447.847656 85.34375 C 447.660156 85.53125 447.472656 85.910156 447.285156 86.097656 C 443.324219 91.5625 439.179688 97.214844 435.03125 102.679688 L 430.507812 108.707031 L 427.492188 107.390625 C 424.101562 105.882812 420.894531 104.375 417.503906 102.867188 C 414.300781 101.738281 411.28125 100.230469 408.644531 98.535156 C 408.265625 98.34375 408.078125 98.15625 407.703125 97.96875 C 407.324219 97.78125 407.136719 97.402344 406.757812 97.214844 C 406.195312 96.648438 405.816406 96.273438 405.441406 95.707031 C 403.179688 93.070312 402.425781 89.300781 402.988281 84.96875 Z M 390.171875 114.171875 C 389.796875 108.707031 393.378906 103.808594 398.65625 102.300781 C 400.539062 101.738281 402.613281 100.984375 404.496094 100.417969 C 404.875 100.792969 405.25 101.171875 405.628906 101.359375 C 409.019531 103.621094 412.601562 105.503906 416.183594 106.824219 C 419.386719 108.332031 422.78125 109.839844 426.171875 111.347656 L 432.015625 113.984375 L 438.238281 105.503906 C 442.570312 99.664062 446.90625 93.824219 451.054688 87.980469 C 451.808594 86.851562 452.5625 85.722656 453.503906 84.589844 C 461.042969 82.140625 468.582031 79.878906 475.933594 77.429688 C 501.753906 69.328125 528.519531 60.847656 551.136719 53.3125 C 553.023438 52.746094 555.472656 52.183594 556.792969 53.125 C 558.300781 54.253906 558.488281 56.894531 558.488281 58.964844 C 558.488281 64.429688 558.488281 69.707031 558.488281 75.167969 C 558.488281 100.984375 558.488281 126.984375 558.488281 152.609375 C 558.488281 159.394531 555.851562 163.160156 549.628906 165.421875 C 543.222656 167.683594 536.8125 169.945312 530.214844 172.019531 L 522.675781 174.65625 C 514.007812 177.671875 503.453125 180.875 492.332031 184.265625 C 491.390625 184.640625 490.445312 184.832031 489.316406 185.207031 C 488.183594 185.585938 487.242188 185.773438 486.109375 186.148438 C 482.71875 187.089844 479.136719 188.222656 475.746094 189.164062 C 470.277344 190.859375 464.8125 192.367188 459.347656 194.0625 C 448.792969 197.265625 438.613281 200.46875 430.320312 203.105469 C 425.609375 204.238281 421.839844 207.816406 420.519531 212.527344 C 418.824219 217.617188 416.75 222.703125 414.488281 228.167969 L 414.109375 229.109375 C 413.921875 229.675781 413.546875 229.863281 413.355469 230.050781 L 413.355469 229.863281 C 412.226562 225.527344 410.90625 221.382812 409.964844 217.238281 C 409.585938 215.167969 408.644531 213.847656 407.324219 213.09375 C 406.949219 212.90625 406.570312 212.714844 406.195312 212.714844 C 405.628906 212.527344 405.0625 212.339844 404.496094 212.339844 C 403.742188 212.339844 402.800781 212.527344 402.046875 212.714844 C 401.105469 212.90625 400.164062 213.28125 399.21875 213.660156 C 398.65625 213.847656 398.089844 214.035156 397.710938 214.222656 C 397.523438 214.222656 397.335938 214.414062 397.148438 214.414062 C 395.449219 214.976562 393.378906 215.167969 392.058594 214.222656 C 390.550781 213.28125 390.363281 210.832031 390.363281 208.949219 C 390.363281 207.628906 390.363281 206.121094 390.363281 204.804688 C 390.363281 203.296875 390.363281 201.601562 390.363281 200.09375 C 394.320312 195.570312 397.335938 190.671875 399.597656 185.773438 C 401.859375 180.875 403.554688 175.976562 404.308594 171.074219 C 404.496094 170.511719 404.496094 169.757812 404.496094 169.191406 C 404.496094 168.625 404.6875 167.871094 404.6875 167.308594 C 405.628906 156.003906 402.234375 145.449219 394.320312 138.667969 C 393 137.535156 391.679688 136.59375 390.171875 135.652344 C 390.171875 128.492188 390.171875 121.332031 390.171875 114.171875 Z M 324.390625 177.671875 C 324.582031 176.917969 324.769531 176.351562 324.957031 175.597656 C 325.144531 174.84375 325.335938 174.277344 325.523438 173.523438 C 327.785156 166.929688 331.554688 160.335938 336.644531 154.304688 C 344.75 144.886719 354.925781 138.480469 365.292969 136.03125 C 368.6875 135.277344 372.078125 134.898438 375.28125 135.085938 C 379.242188 135.277344 382.820312 136.03125 386.027344 137.726562 C 386.78125 138.101562 387.347656 138.480469 387.910156 138.855469 C 388.476562 139.234375 389.230469 139.609375 389.796875 139.984375 C 390.363281 140.363281 390.925781 140.738281 391.492188 141.304688 C 397.710938 146.582031 400.726562 154.496094 400.726562 163.160156 C 400.726562 164.292969 400.726562 165.613281 400.539062 166.929688 C 400.539062 167.496094 400.351562 168.25 400.351562 168.816406 C 400.351562 169.378906 400.164062 170.132812 400.164062 170.699219 C 399.410156 175.597656 397.523438 180.683594 395.074219 185.585938 C 393.566406 188.410156 391.871094 191.238281 389.796875 194.0625 C 389.230469 194.816406 388.476562 195.570312 387.910156 196.324219 C 387.535156 196.699219 387.15625 197.265625 386.78125 197.644531 C 386.589844 198.019531 386.214844 198.207031 386.027344 198.585938 C 383.386719 201.410156 380.75 204.050781 377.921875 206.308594 C 369.628906 212.714844 360.390625 216.484375 351.722656 216.863281 C 344.183594 217.238281 337.210938 215.355469 331.929688 210.832031 C 326.84375 206.5 324.015625 200.28125 323.074219 193.496094 C 322.695312 188.222656 323.074219 182.945312 324.390625 177.671875 Z M 102.546875 422.996094 C 102.359375 422.996094 102.167969 422.996094 102.167969 423.183594 C 82.945312 427.515625 65.414062 424.691406 52.222656 415.269531 C 50.902344 414.328125 49.582031 413.382812 48.261719 412.253906 C 34.503906 400.382812 27.71875 381.917969 29.226562 360.0625 C 30.921875 338.015625 40.722656 315.40625 57.121094 296.375 C 73.519531 277.34375 94.441406 264.15625 115.929688 259.066406 C 121.960938 257.75 127.804688 256.996094 133.457031 256.996094 C 144.203125 256.996094 154.191406 259.445312 162.671875 264.34375 C 163.992188 265.097656 165.125 265.851562 166.253906 266.605469 C 166.820312 266.980469 167.195312 267.359375 167.574219 267.734375 C 168.140625 268.113281 168.703125 268.488281 169.082031 269.054688 C 169.457031 269.429688 169.835938 269.621094 170.210938 269.996094 C 173.792969 273.011719 176.996094 276.589844 179.449219 280.546875 C 186.988281 291.664062 190.191406 305.984375 189.0625 322.1875 C 187.363281 344.234375 177.5625 366.84375 161.164062 385.875 C 149.855469 398.875 136.664062 409.238281 122.527344 416.023438 C 117.058594 418.660156 111.40625 420.734375 105.941406 422.242188 C 105.375 422.429688 104.621094 422.617188 104.054688 422.804688 C 103.488281 422.804688 102.921875 422.996094 102.546875 422.996094 Z M 51.65625 496.289062 C 58.253906 491.957031 79.550781 478.578125 103.113281 463.882812 C 103.675781 463.503906 104.242188 463.128906 104.808594 462.75 C 105.375 462.375 105.941406 461.996094 106.695312 461.621094 C 111.78125 458.417969 117.058594 455.214844 122.148438 452.011719 C 137.792969 442.402344 152.871094 433.355469 163.992188 426.949219 L 170.589844 423.183594 C 183.785156 415.457031 197.355469 407.730469 210.738281 399.820312 C 213.1875 398.3125 215.261719 398.5 218.464844 400.382812 C 231.09375 407.730469 243.910156 415.082031 256.539062 422.429688 L 130.441406 499.304688 L 116.117188 507.972656 L 114.421875 509.101562 L 112.726562 510.042969 L 94.441406 521.160156 C 91.050781 519.277344 87.65625 517.203125 84.453125 515.320312 C 74.273438 509.480469 64.097656 503.449219 53.730469 497.421875 C 52.976562 497.421875 52.222656 496.855469 51.65625 496.289062 Z M 107.636719 693.566406 C 103.488281 691.304688 99.34375 688.855469 95.195312 686.40625 C 91.613281 684.332031 88.035156 682.261719 84.453125 680.1875 C 78.609375 676.796875 72.765625 673.40625 66.734375 670.015625 C 66.359375 669.824219 65.980469 669.449219 66.167969 668.695312 C 66.167969 659.273438 66.167969 649.851562 66.167969 640.433594 C 66.167969 633.648438 66.167969 626.867188 66.167969 620.082031 C 66.167969 619.894531 66.359375 619.707031 66.359375 619.707031 C 66.359375 619.707031 66.546875 619.515625 66.734375 619.515625 C 66.734375 619.515625 66.921875 619.515625 66.921875 619.515625 C 68.808594 620.460938 70.691406 621.589844 72.390625 622.53125 C 75.027344 624.039062 77.476562 625.546875 80.117188 627.054688 C 82.566406 628.5625 85.019531 629.878906 87.46875 631.386719 C 90.296875 633.082031 93.121094 634.589844 95.949219 636.285156 C 98.398438 637.792969 101.039062 639.113281 103.488281 640.621094 C 105.5625 641.75 107.636719 643.070312 109.710938 644.386719 L 112.160156 645.707031 C 112.160156 645.894531 112.160156 646.273438 112.160156 646.460938 L 112.160156 646.648438 C 112.160156 663.042969 112.160156 679.625 112.160156 696.015625 Z M 131.007812 541.699219 L 131.007812 553.945312 L 129.5 621.023438 L 97.457031 602.746094 L 97.835938 527.378906 L 97.835938 523.988281 L 98.398438 523.609375 L 98.589844 523.421875 L 114.234375 513.8125 L 117.625 511.929688 L 131.949219 503.261719 L 260.683594 424.691406 L 261.628906 424.125 L 276.328125 432.601562 L 293.105469 442.214844 L 292.160156 442.777344 L 274.253906 453.894531 L 143.636719 534.164062 L 132.328125 541.132812 Z M 154.945312 556.585938 C 148.160156 552.816406 141.5625 548.859375 134.777344 545.089844 C 141.375 548.859375 148.160156 552.816406 154.945312 556.585938 Z M 154.945312 556.585938 C 162.671875 561.105469 170.589844 565.441406 178.316406 569.960938 C 170.589844 565.441406 162.671875 561.105469 154.945312 556.585938 Z M 180.957031 571.28125 C 176.996094 569.019531 173.039062 566.570312 169.082031 564.308594 C 164.179688 561.484375 159.28125 558.65625 154.378906 555.832031 C 147.78125 552.0625 141.1875 548.292969 134.589844 544.527344 L 134.589844 543.773438 L 144.578125 537.554688 L 273.125 458.605469 L 295.367188 445.039062 C 305.542969 450.878906 315.722656 456.910156 325.898438 462.75 C 341.355469 471.605469 356.8125 480.652344 372.265625 489.507812 C 372.644531 489.695312 372.832031 489.882812 373.210938 490.070312 C 373.585938 490.261719 373.964844 490.449219 374.152344 490.636719 L 363.410156 497.042969 C 354.171875 502.507812 344.9375 507.972656 335.703125 513.4375 C 329.292969 517.203125 323.074219 520.972656 316.664062 524.929688 C 305.921875 531.335938 294.800781 538.121094 283.867188 544.527344 C 281.792969 545.65625 279.722656 546.976562 277.648438 548.105469 C 265.585938 555.078125 253.523438 561.859375 241.648438 568.644531 C 232.035156 574.109375 222.609375 579.382812 213 584.847656 L 212.808594 585.035156 C 211.679688 585.976562 210.171875 586.355469 208.664062 586.542969 L 207.53125 586.542969 C 198.484375 581.457031 189.625 576.367188 180.957031 571.28125 Z M 319.492188 677.550781 C 317.042969 682.261719 315.34375 687.347656 314.402344 692.4375 C 314.214844 693 314.214844 693.753906 314.027344 694.320312 C 314.027344 694.886719 313.835938 695.640625 313.835938 696.203125 C 313.648438 697.523438 313.648438 699.03125 313.648438 700.347656 C 313.648438 702.046875 313.835938 703.929688 314.027344 705.625 C 284.621094 722.582031 255.21875 739.542969 226.378906 756.5 L 224.117188 757.816406 C 220.726562 759.890625 217.144531 761.773438 213.753906 764.035156 C 211.300781 765.542969 209.417969 765.921875 207.53125 764.976562 C 209.792969 764.789062 210.171875 762.339844 210.171875 758.570312 C 210.171875 721.265625 210.171875 683.957031 210.171875 646.648438 C 210.171875 645.894531 210.171875 645.140625 210.171875 644.386719 C 210.171875 643.636719 210.171875 642.691406 210.171875 641.9375 C 210.171875 635.15625 210.171875 628.371094 210.171875 621.589844 C 210.171875 612.921875 210.171875 604.253906 210.171875 595.585938 C 210.359375 594.082031 210.171875 592.574219 209.984375 591.253906 C 209.984375 591.253906 209.984375 591.066406 209.984375 591.066406 C 209.984375 590.6875 210.171875 590.3125 210.171875 589.933594 C 212.054688 589.746094 213.753906 588.992188 215.261719 587.863281 C 224.683594 582.398438 234.296875 577.121094 243.722656 571.660156 C 256.539062 564.5 269.730469 556.960938 282.738281 549.425781 C 283.867188 548.859375 285 548.105469 285.941406 547.539062 C 297.0625 541.132812 308.183594 534.351562 318.925781 527.945312 C 325.335938 524.175781 331.554688 520.21875 337.964844 516.449219 C 342.488281 513.8125 346.820312 511.175781 351.34375 508.539062 C 356.058594 505.710938 360.957031 502.882812 365.671875 500.058594 L 374.90625 494.59375 L 376.601562 493.652344 C 376.789062 494.027344 376.789062 494.59375 376.601562 495.535156 C 376.601562 495.726562 376.601562 495.914062 376.601562 496.101562 C 376.601562 496.667969 376.414062 497.230469 376.414062 497.796875 C 376.414062 500.625 376.414062 503.449219 376.414062 506.277344 C 376.414062 520.785156 376.414062 535.292969 376.414062 549.800781 C 376.414062 582.019531 376.414062 614.054688 376.226562 645.894531 C 376.226562 646.085938 376.226562 646.085938 376.226562 646.273438 C 369.25 644.765625 361.710938 644.953125 354.738281 647.214844 C 339.660156 651.546875 326.652344 663.417969 319.492188 677.550781 Z M 400.726562 701.855469 C 400.351562 702.421875 400.164062 703.175781 399.785156 703.742188 C 399.410156 704.304688 399.21875 705.058594 398.84375 705.625 C 396.769531 709.207031 394.507812 712.785156 391.492188 716.175781 C 381.3125 727.859375 368.121094 734.640625 356.246094 735.394531 C 348.707031 735.773438 341.921875 733.886719 336.457031 729.367188 C 329.105469 723.148438 326.277344 713.164062 327.597656 702.234375 C 327.597656 701.480469 327.785156 700.726562 327.972656 699.972656 C 327.972656 699.785156 327.972656 699.785156 327.972656 699.597656 C 328.160156 699.03125 328.160156 698.464844 328.351562 697.710938 C 328.351562 697.523438 328.351562 697.523438 328.351562 697.335938 C 328.539062 696.769531 328.539062 696.394531 328.726562 695.828125 C 330.046875 690.929688 332.121094 685.839844 335.136719 681.128906 C 336.832031 678.304688 338.71875 675.667969 340.980469 673.027344 C 350.96875 661.535156 363.785156 654.75 375.472656 654 C 376.035156 654 376.789062 654 377.355469 654 C 377.542969 654 377.921875 654 378.109375 654 C 378.488281 654 378.863281 654 379.242188 654 C 385.460938 654.1875 391.304688 656.257812 395.828125 660.214844 C 401.859375 665.492188 404.875 673.40625 405.0625 682.074219 C 405.0625 683.390625 405.0625 684.710938 404.875 686.21875 C 404.496094 691.117188 402.988281 696.582031 400.726562 701.855469 Z M 661.210938 536.046875 C 670.449219 548.484375 675.347656 562.238281 675.347656 573.917969 C 675.347656 575.992188 675.347656 577.875 674.972656 579.761719 C 674.21875 586.167969 671.769531 591.628906 667.621094 595.398438 C 667.054688 595.964844 666.300781 596.71875 665.546875 597.285156 C 663.472656 598.789062 661.210938 599.921875 658.761719 600.675781 C 649.148438 603.691406 636.898438 600.488281 625.402344 592.574219 C 624.835938 592.195312 624.457031 591.820312 623.894531 591.628906 C 623.328125 591.253906 622.761719 590.878906 622.386719 590.5 C 618.238281 587.296875 614.28125 583.339844 610.699219 579.007812 C 610.699219 579.007812 610.511719 578.816406 610.511719 578.816406 C 609.757812 577.875 609.003906 576.933594 608.25 575.804688 C 599.957031 564.6875 594.867188 552.0625 594.113281 540.378906 C 593.359375 529.261719 596.75 520.21875 603.347656 515.132812 C 603.535156 514.945312 603.535156 514.945312 603.726562 514.753906 C 607.496094 511.929688 612.019531 510.421875 617.296875 510.421875 C 617.484375 510.421875 617.859375 510.421875 618.050781 510.421875 C 620.3125 510.421875 622.574219 510.609375 625.023438 511.175781 C 627.097656 511.550781 629.171875 512.117188 631.242188 512.871094 C 635.390625 514.378906 639.535156 516.640625 643.496094 519.277344 C 648.207031 522.480469 652.730469 526.625 656.878906 531.148438 C 657.441406 531.710938 657.820312 532.277344 658.386719 532.84375 C 658.761719 533.410156 659.328125 533.972656 659.703125 534.539062 C 660.082031 534.726562 660.648438 535.480469 661.210938 536.046875 Z M 590.34375 540.191406 C 591.097656 552.628906 596.375 566.003906 605.234375 577.6875 C 606.175781 579.007812 607.117188 580.136719 608.058594 581.269531 L 600.710938 588.425781 C 599.390625 586.921875 598.257812 585.414062 596.941406 583.71875 C 580.542969 561.671875 578.65625 535.292969 592.605469 522.480469 C 592.792969 522.292969 592.792969 522.292969 592.980469 522.101562 C 590.90625 527.378906 589.964844 533.410156 590.34375 540.191406 Z M 658.386719 526.8125 C 654.238281 522.292969 649.527344 518.335938 644.816406 515.132812 C 640.855469 512.492188 636.710938 510.421875 632.5625 508.914062 C 620.6875 504.582031 609.566406 505.335938 601.652344 511.363281 C 601.464844 511.363281 601.464844 511.550781 601.273438 511.550781 C 597.695312 513.4375 594.113281 516.261719 590.152344 519.84375 C 574.699219 533.972656 576.394531 562.613281 594.113281 586.167969 C 595.808594 588.425781 597.503906 590.5 599.390625 592.574219 C 603.347656 596.71875 607.496094 600.488281 611.828125 603.3125 C 562.445312 660.214844 488.183594 697.898438 404.875 701.667969 C 407.136719 696.394531 408.457031 690.929688 408.832031 685.652344 C 414.488281 685.277344 420.332031 684.710938 425.796875 683.957031 L 392.625 549.613281 C 388.476562 549.613281 384.140625 549.613281 379.996094 549.613281 C 379.996094 533.597656 379.996094 517.582031 379.996094 501.566406 C 379.996094 500.246094 379.996094 498.925781 379.996094 497.609375 C 379.996094 497.230469 379.996094 496.667969 379.996094 496.289062 C 380.183594 494.40625 380.371094 491.957031 378.296875 490.070312 C 377.734375 488 375.847656 487.058594 374.71875 486.492188 C 374.527344 486.304688 374.152344 486.304688 373.964844 486.113281 C 358.507812 477.257812 343.050781 468.402344 327.597656 459.359375 C 317.984375 453.894531 308.371094 448.242188 298.757812 442.777344 L 299.699219 442.214844 L 275.953125 428.457031 L 260.683594 419.601562 L 259.742188 420.167969 C 246.359375 412.441406 233.167969 404.71875 219.785156 396.992188 C 216.578125 395.109375 212.808594 393.601562 208.285156 396.425781 C 194.902344 404.339844 181.332031 412.253906 168.140625 419.789062 L 161.542969 423.558594 C 150.796875 429.777344 136.472656 438.445312 121.394531 447.675781 C 116.304688 450.878906 111.027344 454.082031 105.75 457.285156 C 105.1875 450.316406 104.808594 443.15625 104.808594 435.996094 C 104.808594 432.605469 104.808594 429.210938 104.996094 425.820312 C 110.652344 424.3125 116.117188 422.429688 121.582031 419.980469 C 137.039062 413.007812 151.363281 402.078125 163.425781 387.949219 C 180.390625 368.351562 190.570312 344.800781 192.265625 322 C 193.585938 304.664062 189.816406 289.214844 181.332031 277.15625 C 178.695312 273.386719 175.488281 269.808594 171.910156 266.792969 C 171.53125 266.417969 171.15625 266.226562 170.777344 265.851562 C 206.402344 226.09375 254.085938 196.136719 308.558594 181.0625 C 308.558594 181.0625 308.558594 181.25 308.558594 181.25 C 308.558594 186.335938 309.691406 191.238281 311.574219 195.570312 C 315.34375 204.238281 322.695312 211.398438 331.367188 214.789062 C 336.457031 218.371094 342.675781 220.066406 349.082031 220.066406 C 360.015625 220.066406 372.265625 215.355469 382.445312 206.308594 C 383.386719 205.367188 384.519531 204.425781 385.460938 203.484375 C 385.460938 204.050781 385.460938 204.804688 385.460938 205.367188 C 385.460938 206.308594 385.460938 207.253906 385.460938 208.382812 C 385.460938 212.339844 386.59375 215.167969 388.664062 216.671875 C 390.738281 218.179688 393.566406 218.371094 396.957031 217.425781 C 397.148438 217.425781 397.523438 217.238281 397.710938 217.238281 C 398.277344 217.050781 398.84375 216.863281 399.410156 216.671875 C 400.164062 216.296875 401.105469 216.109375 401.859375 215.917969 C 402.613281 215.730469 403.179688 215.730469 403.742188 215.730469 C 403.933594 215.730469 404.121094 215.730469 404.308594 215.917969 C 404.875 216.296875 405.0625 217.050781 405.25 217.804688 C 406.195312 222.136719 407.324219 226.28125 408.644531 230.617188 L 408.832031 230.992188 C 409.210938 232.5 410.527344 233.441406 412.035156 233.632812 C 412.035156 233.632812 412.226562 233.632812 412.226562 233.632812 C 414.109375 233.632812 415.996094 232.3125 416.75 230.238281 L 417.125 229.296875 C 419.386719 223.832031 421.460938 218.558594 423.347656 213.28125 C 424.289062 209.890625 426.925781 207.253906 430.507812 206.5 C 440.308594 203.105469 452.75 199.339844 465.566406 195.570312 C 468.960938 194.628906 472.539062 193.496094 475.933594 192.554688 C 481.023438 191.046875 486.300781 189.539062 491.390625 188.035156 C 503.828125 192.554688 515.890625 197.644531 527.390625 203.671875 C 520.792969 206.121094 514.574219 208.757812 508.730469 211.585938 C 504.394531 213.660156 500.4375 215.917969 496.855469 218.179688 C 456.707031 243.242188 437.105469 267.171875 444.457031 282.433594 C 445.964844 285.257812 448.414062 287.707031 451.242188 289.402344 C 450.488281 289.78125 449.734375 290.15625 448.980469 290.535156 C 447.09375 291.476562 445.210938 292.417969 443.515625 293.550781 C 438.046875 296.5625 432.957031 299.765625 428.433594 303.160156 C 416.5625 311.636719 407.324219 320.871094 401.859375 329.539062 C 396.203125 338.582031 394.507812 347.0625 397.902344 353.46875 C 400.164062 357.613281 404.308594 360.816406 410.152344 362.511719 C 394.886719 377.394531 388.855469 390.207031 393.378906 398.6875 C 397.902344 407.167969 412.226562 409.804688 433.335938 405.660156 C 431.449219 410.933594 431.261719 415.457031 433.335938 419.226562 C 438.238281 428.648438 454.824219 430.71875 479.136719 424.878906 C 478.949219 427.328125 479.515625 429.964844 480.457031 432.226562 C 483.660156 438.257812 491.390625 441.082031 502.507812 441.082031 C 504.582031 441.082031 506.65625 440.894531 508.917969 440.707031 C 514.761719 440.140625 521.167969 439.011719 528.144531 437.3125 L 648.773438 428.648438 C 645.003906 432.226562 641.796875 435.808594 639.160156 439.761719 C 631.054688 451.824219 628.980469 464.070312 633.503906 474.433594 C 633.503906 474.621094 633.695312 474.808594 633.695312 474.808594 C 634.824219 479.332031 636.898438 484.042969 639.914062 489.316406 C 642.175781 493.464844 645.378906 497.230469 649.339844 500.058594 C 653.671875 503.449219 658.949219 505.898438 664.792969 507.59375 C 663.097656 514.191406 660.835938 520.597656 658.386719 526.8125 Z M 713.046875 499.492188 C 697.96875 505.898438 682.511719 507.59375 669.695312 504.957031 C 669.128906 504.769531 668.5625 504.769531 667.808594 504.582031 C 667.242188 504.390625 666.488281 504.203125 665.925781 504.015625 C 660.082031 502.320312 654.804688 499.679688 650.46875 496.101562 C 647.640625 493.652344 645.191406 490.824219 643.304688 487.433594 C 642.929688 486.867188 642.742188 486.304688 642.363281 485.925781 C 645.003906 488 648.207031 489.882812 651.601562 491.390625 C 654.992188 492.710938 658.574219 493.839844 662.53125 494.59375 C 664.417969 494.972656 666.300781 495.160156 668.1875 495.347656 C 668.75 495.347656 669.507812 495.347656 670.070312 495.535156 C 670.636719 495.535156 671.390625 495.535156 671.957031 495.535156 C 672.710938 495.535156 673.277344 495.535156 674.03125 495.535156 C 684.960938 495.535156 696.648438 493.085938 707.957031 488.1875 C 709.652344 487.433594 711.160156 486.867188 712.667969 485.925781 L 718.886719 496.476562 C 717.191406 497.609375 715.117188 498.550781 713.046875 499.492188 Z M 676.480469 415.269531 C 676.667969 415.082031 676.855469 415.082031 677.234375 414.890625 C 677.609375 414.703125 677.988281 414.515625 678.363281 414.515625 C 688.917969 410.179688 699.664062 407.921875 709.652344 407.921875 C 713.421875 407.921875 717.003906 408.296875 720.398438 408.863281 C 721.90625 409.050781 723.222656 409.429688 724.542969 409.804688 C 726.617188 410.371094 728.5 410.933594 730.386719 411.6875 C 737.171875 414.515625 742.261719 418.660156 745.277344 424.125 C 745.652344 424.878906 746.03125 425.632812 746.40625 426.574219 C 747.539062 429.210938 748.292969 432.226562 748.292969 435.242188 C 748.667969 442.402344 746.21875 450.125 740.941406 457.664062 C 734.15625 467.648438 723.601562 476.503906 710.785156 482.722656 C 709.464844 483.476562 707.957031 484.042969 706.449219 484.609375 C 695.140625 489.316406 683.453125 491.769531 672.710938 491.578125 C 672.144531 491.578125 671.390625 491.578125 670.824219 491.578125 C 670.261719 491.578125 669.507812 491.578125 668.941406 491.578125 C 667.054688 491.390625 664.980469 491.203125 663.097656 490.824219 C 659.140625 490.070312 655.558594 489.128906 652.355469 487.621094 C 645.191406 484.417969 639.914062 479.707031 637.273438 473.492188 C 637.273438 473.300781 637.085938 473.113281 637.085938 472.925781 C 635.203125 468.402344 634.636719 463.316406 635.578125 458.230469 C 635.957031 455.589844 636.898438 452.765625 638.027344 450.125 C 639.160156 447.488281 640.667969 444.664062 642.554688 442.023438 C 645.945312 437.125 650.09375 432.414062 655.179688 428.269531 C 656.125 427.515625 657.253906 426.574219 658.195312 425.820312 C 663.097656 422.050781 668.5625 418.847656 674.59375 416.023438 C 675.160156 415.835938 675.726562 415.457031 676.480469 415.269531 Z M 674.21875 412.066406 C 668.375 414.703125 662.910156 417.71875 658.007812 421.296875 C 657.253906 407.542969 655.179688 394.164062 651.976562 380.976562 C 657.253906 378.148438 662.15625 375.511719 667.054688 372.6875 C 670.449219 385.5 672.898438 398.6875 674.21875 412.066406 Z M 789.757812 225.71875 C 777.507812 242.488281 763.9375 249.835938 730.953125 267.546875 L 726.617188 269.808594 L 726.804688 271.128906 C 735.476562 315.972656 710.785156 342.160156 669.316406 366.84375 C 668.753906 367.222656 668.1875 367.410156 667.621094 367.785156 C 667.054688 368.164062 666.488281 368.351562 665.925781 368.730469 C 661.023438 371.554688 656.125 374.191406 650.847656 377.019531 C 638.59375 383.613281 625.210938 390.207031 611.074219 396.992188 C 599.957031 402.457031 588.644531 408.109375 576.960938 413.949219 C 551.328125 427.140625 526.445312 435.054688 508.730469 436.558594 C 507.597656 436.75 506.277344 436.75 505.148438 436.75 C 494.40625 437.3125 486.863281 435.054688 484.226562 429.964844 C 483.09375 427.515625 482.90625 424.878906 483.660156 422.242188 L 483.847656 421.863281 L 484.039062 421.109375 C 486.300781 417.152344 491.953125 409.617188 505.148438 401.515625 C 507.976562 399.820312 511.179688 398.121094 514.574219 396.425781 C 516.269531 395.671875 517.964844 394.730469 519.851562 393.976562 C 531.722656 388.703125 542.65625 384.367188 551.515625 380.789062 C 553.398438 380.035156 555.097656 379.28125 556.792969 378.714844 C 571.304688 372.875 579.597656 369.292969 581.859375 365.902344 L 580.351562 364.773438 L 578.84375 363.640625 C 576.960938 366.46875 565.085938 371.179688 550.195312 377.394531 C 541.335938 380.976562 530.40625 385.308594 518.53125 390.585938 C 517.589844 390.960938 516.644531 391.339844 515.890625 391.714844 C 511.746094 393.601562 508.164062 395.484375 504.960938 397.367188 C 488.9375 406.789062 482.71875 415.644531 480.457031 420.167969 C 457.839844 425.820312 441.253906 424.5 437.292969 416.777344 C 435.597656 413.382812 436.164062 408.863281 438.992188 403.210938 L 440.308594 400.761719 C 446.152344 393.414062 458.59375 381.164062 480.457031 371.554688 C 487.617188 368.351562 494.78125 365.335938 501.378906 362.511719 C 502.132812 362.132812 503.074219 361.757812 503.828125 361.378906 C 510.046875 358.742188 515.703125 356.292969 520.605469 354.21875 C 522.113281 353.46875 523.808594 352.902344 525.128906 352.148438 C 539.453125 345.742188 547.558594 341.785156 549.628906 338.769531 L 546.613281 336.699219 C 545.105469 338.769531 537.191406 342.726562 526.257812 347.625 C 519.097656 350.828125 510.800781 354.410156 502.320312 357.988281 C 501.945312 358.175781 501.378906 358.367188 501 358.554688 C 494.027344 361.570312 486.488281 364.773438 478.949219 367.976562 C 453.691406 379.09375 440.6875 393.410156 435.597656 400.570312 C 415.617188 404.71875 401.480469 403.023438 397.902344 396.050781 C 394.132812 388.890625 401.105469 376.078125 416.371094 361.945312 L 416.9375 361.378906 L 419.199219 359.308594 C 426.738281 353.46875 439.742188 345.175781 458.59375 336.886719 C 465.378906 333.871094 472.164062 331.234375 478.761719 328.59375 C 484.226562 326.335938 489.691406 324.261719 494.78125 322.378906 C 496.101562 321.8125 497.421875 321.433594 498.738281 320.871094 C 518.90625 313.144531 528.707031 309.375 530.96875 305.984375 L 527.953125 303.914062 C 526.257812 306.363281 512.308594 311.824219 497.421875 317.476562 C 488.5625 320.871094 478.949219 324.449219 468.960938 328.59375 C 465.1875 330.101562 461.230469 331.796875 457.273438 333.496094 C 435.597656 342.914062 421.839844 352.523438 414.488281 358.367188 C 408.644531 357.046875 404.6875 354.410156 402.800781 350.828125 C 399.785156 345.175781 402.046875 337.261719 408.078125 328.59375 C 413.167969 321.246094 421.085938 313.523438 431.074219 306.171875 C 435.785156 302.59375 441.0625 299.203125 446.53125 296.1875 C 448.414062 295.054688 450.488281 293.925781 452.371094 292.984375 C 453.878906 292.230469 455.386719 291.476562 456.894531 290.722656 C 460.855469 289.214844 481.210938 281.679688 493.273438 275.460938 C 497.042969 273.578125 501.378906 270.375 506.089844 266.792969 C 507.976562 265.472656 509.859375 263.96875 511.933594 262.460938 C 522.488281 254.921875 535.871094 246.632812 553.589844 242.675781 C 555.851562 242.109375 558.113281 241.734375 560.375 241.355469 L 560.183594 240.601562 L 559.808594 237.777344 C 558.867188 237.964844 557.921875 238.152344 556.980469 238.152344 C 532.667969 242.296875 516.078125 254.546875 503.828125 263.589844 C 499.117188 267.171875 494.96875 270.183594 491.386719 271.878906 C 480.832031 277.34375 463.871094 283.75 457.460938 286.199219 C 454.070312 285.070312 451.054688 282.621094 449.355469 279.605469 C 443.136719 266.605469 462.738281 243.804688 500.4375 220.253906 C 504.769531 217.617188 509.484375 214.976562 514.761719 212.527344 C 520.605469 209.890625 526.824219 207.253906 533.421875 204.992188 C 534.175781 204.613281 535.117188 204.425781 535.871094 204.050781 C 536.625 203.859375 537.378906 203.484375 538.132812 203.296875 C 572.4375 191.992188 615.035156 185.582031 649.339844 187.84375 C 649.714844 187.84375 651.222656 188.035156 653.109375 188.597656 C 660.082031 190.105469 674.785156 195.003906 680.816406 208.007812 C 681.191406 208.757812 681.570312 209.703125 681.945312 210.644531 L 685.527344 209.324219 C 680.4375 194.816406 667.054688 188.597656 658.007812 185.960938 L 697.214844 165.234375 C 741.882812 140.175781 762.050781 148.652344 774.867188 158.640625 C 791.832031 172.019531 805.589844 204.050781 789.757812 225.71875 Z M 705.316406 238.71875 L 704 242.296875 C 703.808594 242.296875 703.621094 242.109375 702.867188 241.921875 C 697.777344 240.414062 675.726562 235.703125 655.746094 255.300781 C 643.871094 266.980469 640.289062 277.910156 636.710938 288.648438 C 636.144531 290.15625 635.578125 291.851562 635.011719 293.359375 C 634.824219 294.113281 634.449219 294.679688 634.257812 295.433594 C 633.882812 296.1875 633.695312 296.941406 633.316406 297.695312 C 632.1875 300.332031 631.054688 302.78125 629.546875 305.230469 C 628.039062 307.867188 625.964844 310.320312 623.515625 312.769531 C 622.574219 313.710938 621.632812 314.652344 620.5 315.59375 L 618.238281 312.578125 C 619.558594 311.636719 620.6875 310.507812 621.632812 309.375 C 626.15625 304.664062 628.605469 299.578125 630.679688 293.738281 C 630.867188 292.984375 631.242188 292.230469 631.433594 291.476562 C 631.621094 290.722656 631.996094 290.15625 632.1875 289.402344 C 632.375 288.648438 632.5625 288.085938 632.941406 287.332031 C 636.519531 276.78125 640.480469 264.722656 652.917969 252.472656 C 677.421875 229.109375 705.128906 238.71875 705.316406 238.71875 Z M 657.066406 539.25 C 656.6875 538.683594 656.3125 538.308594 655.933594 537.742188 C 655.558594 537.175781 654.992188 536.613281 654.617188 536.046875 C 650.46875 531.148438 645.945312 527.378906 641.234375 524.363281 C 640.289062 523.800781 639.347656 523.234375 638.21875 522.667969 C 636.898438 521.914062 635.390625 521.160156 634.070312 520.785156 C 632.75 520.21875 631.433594 519.84375 630.113281 519.464844 C 622.949219 517.582031 616.164062 518.148438 611.265625 521.914062 C 605.421875 526.25 602.78125 533.785156 603.535156 543.207031 C 604.289062 552.25 608.25 562.238281 614.84375 570.90625 C 615.035156 571.28125 615.410156 571.660156 615.597656 571.847656 C 615.976562 572.222656 616.351562 572.789062 616.730469 573.164062 C 620.125 577.3125 623.894531 580.703125 627.664062 583.527344 C 628.226562 583.90625 628.792969 584.28125 629.359375 584.660156 C 629.925781 585.035156 630.300781 585.222656 630.867188 585.601562 C 637.085938 589.558594 643.683594 591.632812 649.527344 591.632812 C 653.863281 591.632812 657.820312 590.5 661.023438 588.050781 C 662.910156 586.730469 664.226562 585.035156 665.546875 583.152344 C 667.054688 580.703125 667.996094 577.875 668.5625 574.671875 C 668.941406 572.789062 668.941406 570.714844 668.941406 568.457031 C 668.941406 567.136719 668.75 565.816406 668.5625 564.5 C 668.375 562.992188 668.1875 561.671875 667.808594 560.164062 C 665.734375 553.570312 662.34375 546.222656 657.066406 539.25 C 657.253906 539.25 657.066406 539.25 657.066406 539.25 Z M 662.71875 557.527344 C 663.097656 558.65625 663.472656 559.789062 663.664062 561.105469 C 663.851562 561.484375 663.851562 561.859375 663.851562 562.425781 C 666.113281 572.222656 664.226562 581.078125 658.386719 585.414062 C 651.976562 590.125 642.175781 588.804688 632.75 582.964844 C 632.1875 582.585938 631.808594 582.398438 631.242188 582.019531 C 630.679688 581.644531 630.113281 581.269531 629.546875 580.890625 C 625.964844 578.253906 622.386719 574.863281 619.179688 570.90625 C 618.617188 570.339844 618.050781 569.585938 617.671875 569.019531 C 611.640625 560.730469 607.871094 551.6875 607.117188 543.207031 C 606.363281 535.105469 608.625 528.699219 613.335938 525.117188 C 618.992188 520.972656 627.285156 521.539062 635.578125 525.683594 C 636.898438 526.4375 638.40625 527.191406 639.726562 528.132812 C 639.914062 528.320312 640.101562 528.320312 640.101562 528.511719 C 641.988281 529.828125 643.871094 531.148438 645.757812 532.84375 C 648.207031 535.105469 650.65625 537.554688 652.730469 540.378906 C 653.109375 540.945312 653.484375 541.324219 654.050781 541.886719 C 654.050781 541.886719 654.050781 542.074219 654.238281 542.074219 C 654.617188 542.640625 654.992188 543.207031 655.371094 543.773438 C 657.253906 546.410156 658.761719 549.046875 660.082031 551.6875 C 661.023438 553.382812 661.964844 555.453125 662.71875 557.527344 Z M 653.109375 440.894531 C 652.164062 442.023438 651.410156 443.34375 650.847656 444.472656 C 646.324219 452.011719 645.003906 459.925781 648.019531 466.894531 C 649.527344 470.476562 651.976562 473.300781 655.179688 475.5625 C 659.515625 478.578125 664.980469 480.460938 671.390625 481.214844 C 671.957031 481.214844 672.710938 481.40625 673.277344 481.40625 C 673.839844 481.40625 674.59375 481.40625 675.160156 481.59375 C 675.726562 481.59375 676.480469 481.59375 677.046875 481.59375 C 685.148438 481.59375 694.195312 479.707031 703.054688 475.941406 C 704.1875 475.5625 705.128906 475 706.070312 474.433594 C 716.0625 469.535156 724.542969 462.9375 730.007812 455.214844 C 736.230469 446.359375 737.738281 437.503906 734.722656 429.964844 C 733.589844 427.328125 731.894531 425.066406 729.820312 422.996094 C 727.9375 421.296875 725.675781 419.792969 723.035156 418.660156 C 720.585938 417.53125 717.570312 416.589844 714.554688 416.023438 C 714.175781 416.023438 713.800781 415.835938 713.421875 415.835938 C 712.480469 415.644531 711.539062 415.644531 710.59375 415.457031 C 709.085938 415.269531 707.769531 415.269531 706.261719 415.269531 C 697.777344 415.269531 688.730469 417.152344 679.871094 420.921875 C 679.496094 421.109375 679.308594 421.109375 678.929688 421.296875 C 678.363281 421.488281 677.609375 421.863281 677.046875 422.050781 C 676.480469 422.429688 675.726562 422.617188 675.160156 422.996094 C 668.75 426.199219 663.097656 430.34375 658.574219 434.863281 C 657.632812 435.617188 656.878906 436.558594 656.125 437.503906 C 654.992188 438.445312 654.050781 439.574219 653.109375 440.894531 Z M 658.386719 440.140625 C 659.328125 439.011719 660.457031 437.878906 661.777344 436.558594 C 663.285156 435.054688 664.980469 433.734375 666.867188 432.414062 C 669.507812 430.53125 672.332031 428.648438 675.347656 427.140625 C 675.914062 426.761719 676.480469 426.574219 677.234375 426.199219 C 677.800781 425.820312 678.363281 425.632812 679.117188 425.253906 C 679.871094 424.878906 680.4375 424.691406 681.191406 424.3125 C 686.09375 422.242188 690.992188 420.734375 695.894531 419.980469 C 697.96875 419.601562 700.039062 419.414062 702.113281 419.226562 C 703.433594 419.226562 704.5625 419.039062 705.882812 419.039062 C 706.261719 419.039062 706.636719 419.039062 707.015625 419.039062 C 709.085938 419.039062 710.972656 419.226562 712.855469 419.601562 C 722.09375 421.109375 728.691406 425.253906 731.328125 431.472656 C 733.96875 437.691406 732.460938 445.417969 727.183594 453.140625 C 722.09375 460.488281 713.988281 466.707031 704.375 471.417969 C 703.433594 471.796875 702.679688 472.171875 701.738281 472.550781 C 692.878906 476.316406 683.832031 478.011719 675.914062 477.824219 C 675.347656 477.824219 674.59375 477.824219 674.03125 477.824219 C 673.464844 477.824219 672.710938 477.636719 672.144531 477.636719 C 665.546875 476.882812 659.894531 474.808594 655.933594 471.417969 C 654.050781 469.722656 652.542969 467.839844 651.601562 465.390625 C 648.394531 457.851562 651.222656 448.808594 658.386719 440.515625 C 658.195312 440.328125 658.386719 440.140625 658.386719 440.140625 Z M 106.128906 390.960938 C 106.128906 390.398438 106.128906 389.832031 105.941406 389.265625 C 105.75 387.757812 104.996094 386.441406 104.054688 385.308594 C 103.300781 383.800781 101.605469 382.484375 99.53125 381.351562 L 108.011719 378.714844 L 110.085938 378.148438 L 112.160156 377.585938 L 123.46875 374.191406 C 123.089844 375.136719 122.902344 376.078125 122.902344 377.207031 C 122.902344 379.46875 124.597656 382.859375 126.859375 385.6875 C 128.179688 387.382812 129.5 388.703125 131.007812 389.832031 C 131.007812 389.832031 131.007812 389.832031 131.195312 390.019531 C 132.515625 390.960938 134.023438 391.527344 135.53125 391.527344 C 135.71875 391.527344 135.910156 391.527344 135.910156 391.527344 C 136.851562 391.527344 137.980469 391.339844 138.925781 391.152344 C 144.578125 389.265625 148.347656 384.179688 148.726562 378.148438 C 148.726562 378.148438 148.726562 378.148438 148.726562 377.960938 C 148.726562 377.207031 148.535156 376.453125 148.347656 375.699219 C 148.347656 375.699219 148.347656 375.511719 148.347656 375.511719 C 148.347656 373.25 145.332031 370.613281 141.75 368.730469 L 153.058594 365.335938 L 153.058594 351.207031 L 152.871094 351.207031 L 144.203125 347.8125 L 139.867188 349.132812 C 139.113281 349.320312 138.171875 349.699219 137.417969 349.886719 C 140.433594 348.191406 142.882812 345.742188 144.203125 342.539062 C 145.898438 338.769531 147.78125 335 149.480469 331.234375 L 150.042969 329.914062 C 154.003906 321.625 158.148438 313.144531 162.109375 304.855469 C 162.484375 304.289062 162.671875 303.535156 162.671875 302.78125 C 162.671875 302.40625 162.671875 302.027344 162.671875 301.652344 C 162.671875 300.519531 162.296875 299.765625 161.917969 299.011719 C 161.164062 296.1875 153.4375 292.605469 149.855469 292.796875 C 149.480469 292.796875 149.289062 292.796875 149.101562 292.984375 C 148.347656 293.171875 147.78125 293.359375 147.027344 293.550781 C 146.085938 293.738281 145.332031 294.113281 144.390625 294.304688 C 140.621094 295.433594 136.851562 296.5625 133.082031 297.695312 C 116.117188 302.78125 99.34375 308.058594 82.378906 313.144531 C 82.191406 312.769531 82.003906 312.578125 82.003906 312.203125 C 81.8125 311.636719 81.25 311.070312 80.496094 310.695312 L 73.707031 306.925781 C 73.144531 306.550781 72.390625 306.363281 71.636719 306.550781 C 67.488281 307.867188 63.53125 309 59.382812 310.320312 L 56.746094 311.070312 L 56.746094 320.871094 L 61.835938 329.160156 L 61.835938 329.347656 L 66.734375 327.839844 C 68.242188 327.464844 69.75 326.898438 71.257812 326.523438 C 75.40625 334.058594 79.550781 341.40625 83.699219 348.945312 C 83.886719 349.320312 83.886719 349.886719 83.699219 350.265625 C 82.945312 351.960938 82.003906 353.84375 81.058594 355.539062 C 79.550781 358.554688 78.042969 361.570312 76.914062 364.773438 C 75.214844 370.425781 77.289062 374.570312 81.4375 375.324219 C 81.625 377.585938 82.378906 379.46875 83.886719 380.976562 C 83.886719 380.976562 84.074219 381.164062 84.265625 381.164062 C 81.8125 383.425781 80.117188 386.441406 79.929688 390.019531 C 79.929688 394.164062 85.773438 402.644531 90.296875 403.773438 C 91.050781 403.964844 91.992188 404.152344 92.933594 404.152344 C 93.875 404.152344 95.007812 403.964844 95.949219 403.585938 C 99.71875 402.269531 102.734375 399.441406 104.433594 395.863281 C 105.5625 394.542969 106.128906 392.847656 106.128906 390.960938 Z M 143.636719 374.191406 C 144.765625 374.945312 145.332031 376.265625 145.332031 377.773438 C 145.144531 382.105469 142.128906 385.875 137.980469 387.195312 C 136.285156 387.757812 134.589844 387.570312 133.457031 386.628906 C 132.328125 385.875 131.761719 384.554688 131.761719 383.050781 C 132.140625 378.714844 134.964844 374.945312 139.113281 373.628906 C 140.996094 373.0625 142.503906 373.25 143.636719 374.191406 Z M 87.089844 378.527344 C 86.335938 377.773438 85.960938 376.832031 85.773438 375.511719 C 85.582031 374.382812 85.773438 373.0625 86.148438 371.554688 C 86.902344 369.292969 88.035156 367.03125 88.976562 364.960938 C 89.351562 364.207031 89.730469 363.453125 90.105469 362.699219 C 90.484375 361.757812 90.859375 361.003906 91.425781 360.0625 C 91.804688 359.121094 92.367188 358.175781 92.746094 357.234375 C 93.121094 356.292969 93.121094 355.351562 92.933594 354.410156 L 92.746094 354.21875 C 92.746094 354.21875 92.746094 354.03125 92.746094 354.03125 C 87.28125 344.046875 81.625 333.871094 76.160156 323.886719 C 75.78125 323.320312 75.027344 322.378906 73.707031 322.378906 C 73.332031 322.378906 72.953125 322.378906 72.578125 322.566406 C 71.824219 322.753906 70.882812 323.132812 70.128906 323.320312 C 68.808594 323.695312 67.675781 324.074219 66.359375 324.449219 L 66.359375 318.609375 L 70.882812 317.289062 C 73.707031 316.347656 76.722656 315.59375 79.550781 314.652344 C 80.117188 315.59375 80.496094 316.726562 81.058594 317.667969 C 81.625 318.609375 82.191406 319.738281 82.566406 320.683594 C 82.945312 321.625 84.074219 322.941406 86.527344 322.1875 C 103.488281 316.914062 120.265625 311.824219 137.226562 306.738281 C 138.171875 306.550781 138.925781 306.171875 139.867188 305.984375 C 140.433594 305.796875 140.808594 305.609375 141.375 305.609375 L 142.695312 305.230469 L 145.898438 304.289062 C 147.972656 303.535156 150.234375 302.96875 152.304688 302.40625 C 154.003906 301.839844 155.511719 301.460938 157.207031 300.898438 C 158.148438 300.710938 158.902344 300.710938 159.28125 300.898438 C 159.65625 301.085938 159.847656 301.839844 159.65625 302.78125 C 159.65625 302.96875 159.65625 303.160156 159.46875 303.535156 C 155.511719 311.824219 151.363281 320.304688 147.40625 328.59375 L 146.839844 329.914062 C 144.957031 333.683594 143.257812 337.453125 141.375 341.21875 C 140.054688 344.421875 137.417969 346.683594 134.210938 347.625 C 129.5 349.132812 124.976562 350.453125 120.265625 351.960938 C 119.511719 352.148438 118.757812 352.335938 118.003906 352.714844 L 115.929688 353.277344 L 108.203125 355.539062 C 105.375 356.480469 102.359375 357.234375 99.53125 358.175781 C 98.210938 358.554688 97.082031 359.496094 96.703125 360.625 C 96.328125 361.378906 95.949219 362.132812 95.574219 363.078125 C 95.007812 364.207031 94.628906 365.335938 94.066406 366.46875 L 93.121094 368.351562 C 92.933594 368.917969 91.992188 370.800781 93.121094 372.121094 C 93.6875 372.6875 94.253906 372.875 94.820312 372.875 C 95.574219 372.875 96.328125 372.6875 96.515625 372.6875 L 111.027344 368.164062 L 113.101562 367.597656 L 115.363281 366.84375 L 133.835938 361.191406 L 149.855469 356.292969 L 149.855469 362.132812 L 136.664062 366.089844 L 131.761719 367.597656 L 126.671875 369.105469 L 113.667969 373.0625 L 111.59375 373.628906 L 109.519531 374.191406 L 94.253906 378.902344 L 93.6875 379.09375 C 91.613281 379.65625 89.730469 379.65625 88.222656 379.09375 C 87.65625 379.09375 87.28125 378.902344 87.089844 378.527344 Z M 95.195312 400.195312 C 93.5 400.761719 91.804688 400.570312 90.671875 399.628906 C 89.542969 398.875 88.976562 397.558594 88.976562 396.050781 C 89.351562 391.714844 92.179688 387.949219 96.328125 386.628906 C 98.023438 386.0625 99.71875 386.253906 100.851562 387.195312 C 101.980469 387.949219 102.546875 389.265625 102.546875 390.773438 C 102.167969 395.109375 99.34375 398.875 95.195312 400.195312 Z M 446.71875 155.8125 C 447.847656 157.320312 449.167969 158.453125 450.488281 159.582031 C 453.503906 161.84375 456.894531 163.351562 460.289062 164.859375 C 461.417969 165.421875 462.550781 165.800781 463.492188 166.363281 C 467.640625 168.25 471.785156 170.132812 475.933594 172.019531 C 477.816406 172.769531 479.515625 173.523438 481.398438 174.46875 L 482.71875 175.03125 L 490.257812 164.859375 C 495.722656 157.320312 501 150.347656 506.277344 143.1875 C 509.671875 138.667969 512.875 133.957031 515.703125 129.058594 C 522.113281 117.5625 523.808594 107.578125 520.792969 99.289062 C 519.660156 95.519531 516.835938 92.503906 513.441406 90.996094 C 509.292969 87.792969 504.015625 85.34375 500.4375 85.34375 C 492.707031 85.53125 485.355469 91.183594 479.136719 101.171875 C 477.816406 103.246094 476.6875 105.503906 475.367188 107.578125 C 475.179688 107.578125 474.992188 107.390625 474.800781 107.390625 C 473.292969 106.070312 471.597656 104.941406 469.902344 103.808594 C 466.132812 101.738281 461.609375 101.546875 457.839844 103.808594 C 449.355469 108.332031 442.949219 115.867188 440.121094 125.101562 C 435.410156 140.738281 439.933594 149.972656 446.71875 155.8125 Z M 449.355469 129.433594 C 452.371094 121.710938 458.214844 115.492188 465.753906 111.722656 C 467.261719 110.78125 469.148438 110.402344 470.84375 110.402344 C 472.539062 110.402344 474.238281 110.78125 475.933594 111.722656 C 477.816406 112.855469 479.515625 114.171875 481.210938 115.492188 L 482.90625 116.808594 L 485.355469 112.855469 C 486.300781 111.347656 487.054688 109.839844 487.996094 108.519531 C 493.839844 98.910156 500.8125 93.824219 507.976562 93.445312 C 512.308594 93.070312 516.269531 95.707031 517.589844 100.039062 C 518.152344 101.738281 518.53125 103.621094 518.71875 105.503906 C 519.285156 111.722656 517.210938 118.695312 512.875 126.796875 C 510.046875 131.507812 507.03125 136.21875 503.640625 140.550781 C 498.363281 147.710938 493.273438 154.871094 487.617188 162.21875 L 481.964844 169.945312 C 480.644531 169.378906 479.324219 168.816406 478.007812 168.25 C 475.367188 167.117188 472.917969 165.988281 470.46875 164.859375 C 468.769531 164.105469 467.261719 163.351562 465.566406 162.597656 C 464.433594 162.03125 463.304688 161.65625 462.171875 161.089844 C 458.78125 159.582031 455.765625 158.261719 453.125 156.378906 C 445.398438 150.914062 444.269531 141.683594 449.355469 129.433594 Z M 449.355469 129.433594 "/></g></svg>