<svg xmlns="http://www.w3.org/2000/svg" xmlns:xlink="http://www.w3.org/1999/xlink" width="1080" zoomAndPan="magnify" viewBox="0 0 810 809.999993" height="1080" preserveAspectRatio="xMidYMid meet" version="1.2"><defs><clipPath id="6701c1255c"><path d="M 21 11.644531 L 809 11.644531 L 809 798.394531 L 21 798.394531 Z M 21 11.644531 "/></clipPath><clipPath id="ebef6291cf"><path d="M 146.140625 296 L 156.457031 296 L 156.457031 302.285156 L 146.140625 302.285156 Z M 146.140625 296 "/></clipPath><clipPath id="22f121ddcb"><path d="M 141.976562 300.980469 C 141.976562 300.980469 144.46875 297.445312 148.390625 296.464844 C 152.308594 295.484375 156.167969 297.425781 156.167969 297.425781 C 156.167969 297.425781 153.675781 300.957031 149.757812 301.9375 C 145.839844 302.917969 141.976562 300.980469 141.976562 300.980469 Z M 141.976562 300.980469 "/></clipPath><clipPath id="a5d5cf162b"><path d="M 684.707031 261.449219 L 695.882812 261.449219 L 695.882812 267.898438 L 684.707031 267.898438 Z M 684.707031 261.449219 "/></clipPath><clipPath id="4474961ba5"><path d="M 700.335938 264.777344 C 700.335938 264.777344 696.960938 261.660156 692.671875 261.511719 C 688.382812 261.363281 684.796875 264.238281 684.796875 264.238281 C 684.796875 264.238281 688.171875 267.355469 692.460938 267.507812 C 696.753906 267.652344 700.335938 264.777344 700.335938 264.777344 Z M 700.335938 264.777344 "/></clipPath></defs><g id="b0ebc43f65"><g clip-rule="nonzero" clip-path="url(#6701c1255c)"><path style=" stroke:none;fill-rule:nonzero;fill:#f2e6dc;fill-opacity:1;" d="M 808.496094 405.019531 C 808.496094 622.238281 632.414062 798.328125 415.207031 798.328125 C 198.003906 798.328125 21.921875 622.238281 21.921875 405.019531 C 21.921875 187.800781 198.003906 11.707031 415.207031 11.707031 C 632.414062 11.707031 808.496094 187.800781 808.496094 405.019531 "/></g><path style=" stroke:none;fill-rule:nonzero;fill:#e6d0be;fill-opacity:1;" d="M 56.894531 445.238281 L 166.046875 445.238281 L 166.046875 195.992188 L 56.894531 195.992188 L 56.894531 445.238281 "/><path style=" stroke:none;fill-rule:nonzero;fill:#f2e6dc;fill-opacity:1;" d="M 144.753906 227.054688 L 153.417969 227.054688 L 153.417969 212.601562 L 144.753906 212.601562 L 144.753906 227.054688 "/><path style=" stroke:none;fill-rule:nonzero;fill:#f2e6dc;fill-opacity:1;" d="M 119.925781 227.054688 L 128.59375 227.054688 L 128.59375 212.601562 L 119.925781 212.601562 L 119.925781 227.054688 "/><path style=" stroke:none;fill-rule:nonzero;fill:#f2e6dc;fill-opacity:1;" d="M 95.101562 227.054688 L 103.769531 227.054688 L 103.769531 212.601562 L 95.101562 212.601562 L 95.101562 227.054688 "/><path style=" stroke:none;fill-rule:nonzero;fill:#f2e6dc;fill-opacity:1;" d="M 70.277344 227.054688 L 78.941406 227.054688 L 78.941406 212.601562 L 70.277344 212.601562 L 70.277344 227.054688 "/><path style=" stroke:none;fill-rule:nonzero;fill:#f2e6dc;fill-opacity:1;" d="M 144.75 258.75 L 153.417969 258.75 L 153.417969 244.292969 L 144.75 244.292969 L 144.75 258.75 "/><path style=" stroke:none;fill-rule:nonzero;fill:#f2e6dc;fill-opacity:1;" d="M 119.925781 258.75 L 128.59375 258.75 L 128.59375 244.292969 L 119.925781 244.292969 L 119.925781 258.75 "/><path style=" stroke:none;fill-rule:nonzero;fill:#f2e6dc;fill-opacity:1;" d="M 95.101562 258.75 L 103.769531 258.75 L 103.769531 244.292969 L 95.101562 244.292969 L 95.101562 258.75 "/><path style=" stroke:none;fill-rule:nonzero;fill:#f2e6dc;fill-opacity:1;" d="M 70.277344 258.75 L 78.941406 258.75 L 78.941406 244.292969 L 70.277344 244.292969 L 70.277344 258.75 "/><path style=" stroke:none;fill-rule:nonzero;fill:#f2e6dc;fill-opacity:1;" d="M 144.75 290.441406 L 153.417969 290.441406 L 153.417969 275.992188 L 144.75 275.992188 L 144.75 290.441406 "/><path style=" stroke:none;fill-rule:nonzero;fill:#f2e6dc;fill-opacity:1;" d="M 119.925781 290.441406 L 128.59375 290.441406 L 128.59375 275.992188 L 119.925781 275.992188 L 119.925781 290.441406 "/><path style=" stroke:none;fill-rule:nonzero;fill:#f2e6dc;fill-opacity:1;" d="M 95.101562 290.441406 L 103.769531 290.441406 L 103.769531 275.992188 L 95.101562 275.992188 L 95.101562 290.441406 "/><path style=" stroke:none;fill-rule:nonzero;fill:#f2e6dc;fill-opacity:1;" d="M 70.277344 290.441406 L 78.941406 290.441406 L 78.941406 275.992188 L 70.277344 275.992188 L 70.277344 290.441406 "/><path style=" stroke:none;fill-rule:nonzero;fill:#f2e6dc;fill-opacity:1;" d="M 144.75 322.140625 L 153.417969 322.140625 L 153.417969 307.683594 L 144.75 307.683594 L 144.75 322.140625 "/><path style=" stroke:none;fill-rule:nonzero;fill:#f2e6dc;fill-opacity:1;" d="M 119.925781 322.140625 L 128.59375 322.140625 L 128.59375 307.683594 L 119.925781 307.683594 L 119.925781 322.140625 "/><path style=" stroke:none;fill-rule:nonzero;fill:#f2e6dc;fill-opacity:1;" d="M 95.101562 322.140625 L 103.769531 322.140625 L 103.769531 307.683594 L 95.101562 307.683594 L 95.101562 322.140625 "/><path style=" stroke:none;fill-rule:nonzero;fill:#f2e6dc;fill-opacity:1;" d="M 70.277344 322.140625 L 78.941406 322.140625 L 78.941406 307.683594 L 70.277344 307.683594 L 70.277344 322.140625 "/><path style=" stroke:none;fill-rule:nonzero;fill:#f2e6dc;fill-opacity:1;" d="M 144.75 353.835938 L 153.417969 353.835938 L 153.417969 339.382812 L 144.75 339.382812 L 144.75 353.835938 "/><path style=" stroke:none;fill-rule:nonzero;fill:#f2e6dc;fill-opacity:1;" d="M 119.925781 353.835938 L 128.59375 353.835938 L 128.59375 339.382812 L 119.925781 339.382812 L 119.925781 353.835938 "/><path style=" stroke:none;fill-rule:nonzero;fill:#f2e6dc;fill-opacity:1;" d="M 95.101562 353.835938 L 103.769531 353.835938 L 103.769531 339.382812 L 95.101562 339.382812 L 95.101562 353.835938 "/><path style=" stroke:none;fill-rule:nonzero;fill:#f2e6dc;fill-opacity:1;" d="M 70.277344 353.835938 L 78.941406 353.835938 L 78.941406 339.382812 L 70.277344 339.382812 L 70.277344 353.835938 "/><path style=" stroke:none;fill-rule:nonzero;fill:#f2e6dc;fill-opacity:1;" d="M 144.75 385.53125 L 153.417969 385.53125 L 153.417969 371.074219 L 144.75 371.074219 L 144.75 385.53125 "/><path style=" stroke:none;fill-rule:nonzero;fill:#f2e6dc;fill-opacity:1;" d="M 119.925781 385.53125 L 128.59375 385.53125 L 128.59375 371.074219 L 119.925781 371.074219 L 119.925781 385.53125 "/><path style=" stroke:none;fill-rule:nonzero;fill:#f2e6dc;fill-opacity:1;" d="M 95.101562 385.53125 L 103.769531 385.53125 L 103.769531 371.074219 L 95.101562 371.074219 L 95.101562 385.53125 "/><path style=" stroke:none;fill-rule:nonzero;fill:#f2e6dc;fill-opacity:1;" d="M 70.277344 385.53125 L 78.941406 385.53125 L 78.941406 371.074219 L 70.277344 371.074219 L 70.277344 385.53125 "/><path style=" stroke:none;fill-rule:nonzero;fill:#f2e6dc;fill-opacity:1;" d="M 144.75 417.226562 L 153.417969 417.226562 L 153.417969 402.769531 L 144.75 402.769531 L 144.75 417.226562 "/><path style=" stroke:none;fill-rule:nonzero;fill:#f2e6dc;fill-opacity:1;" d="M 119.925781 417.226562 L 128.59375 417.226562 L 128.59375 402.769531 L 119.925781 402.769531 L 119.925781 417.226562 "/><path style=" stroke:none;fill-rule:nonzero;fill:#f2e6dc;fill-opacity:1;" d="M 95.101562 417.226562 L 103.769531 417.226562 L 103.769531 402.769531 L 95.101562 402.769531 L 95.101562 417.226562 "/><path style=" stroke:none;fill-rule:nonzero;fill:#f2e6dc;fill-opacity:1;" d="M 70.277344 417.226562 L 78.941406 417.226562 L 78.941406 402.769531 L 70.277344 402.769531 L 70.277344 417.226562 "/><path style=" stroke:none;fill-rule:nonzero;fill:#e6d0be;fill-opacity:1;" d="M 21.964844 567.460938 L 160.101562 567.460938 L 160.101562 320.066406 L 21.964844 320.066406 L 21.964844 567.460938 "/><path style=" stroke:none;fill-rule:nonzero;fill:#f2e6dc;fill-opacity:1;" d="M 133.152344 356.984375 L 144.121094 356.984375 L 144.121094 339.804688 L 133.152344 339.804688 L 133.152344 356.984375 "/><path style=" stroke:none;fill-rule:nonzero;fill:#f2e6dc;fill-opacity:1;" d="M 101.734375 356.984375 L 112.703125 356.984375 L 112.703125 339.804688 L 101.734375 339.804688 L 101.734375 356.984375 "/><path style=" stroke:none;fill-rule:nonzero;fill:#f2e6dc;fill-opacity:1;" d="M 70.320312 356.984375 L 81.285156 356.984375 L 81.285156 339.804688 L 70.320312 339.804688 L 70.320312 356.984375 "/><path style=" stroke:none;fill-rule:nonzero;fill:#f2e6dc;fill-opacity:1;" d="M 38.902344 356.984375 L 49.871094 356.984375 L 49.871094 339.804688 L 38.902344 339.804688 L 38.902344 356.984375 "/><path style=" stroke:none;fill-rule:nonzero;fill:#f2e6dc;fill-opacity:1;" d="M 133.152344 396.28125 L 144.121094 396.28125 L 144.121094 379.097656 L 133.152344 379.097656 L 133.152344 396.28125 "/><path style=" stroke:none;fill-rule:nonzero;fill:#f2e6dc;fill-opacity:1;" d="M 101.734375 396.28125 L 112.703125 396.28125 L 112.703125 379.097656 L 101.734375 379.097656 L 101.734375 396.28125 "/><path style=" stroke:none;fill-rule:nonzero;fill:#f2e6dc;fill-opacity:1;" d="M 70.320312 396.28125 L 81.285156 396.28125 L 81.285156 379.097656 L 70.320312 379.097656 L 70.320312 396.28125 "/><path style=" stroke:none;fill-rule:nonzero;fill:#f2e6dc;fill-opacity:1;" d="M 38.902344 396.28125 L 49.871094 396.28125 L 49.871094 379.097656 L 38.902344 379.097656 L 38.902344 396.28125 "/><path style=" stroke:none;fill-rule:nonzero;fill:#f2e6dc;fill-opacity:1;" d="M 133.152344 435.570312 L 144.121094 435.570312 L 144.121094 418.394531 L 133.152344 418.394531 L 133.152344 435.570312 "/><path style=" stroke:none;fill-rule:nonzero;fill:#f2e6dc;fill-opacity:1;" d="M 101.734375 435.570312 L 112.703125 435.570312 L 112.703125 418.394531 L 101.734375 418.394531 L 101.734375 435.570312 "/><path style=" stroke:none;fill-rule:nonzero;fill:#f2e6dc;fill-opacity:1;" d="M 70.320312 435.570312 L 81.285156 435.570312 L 81.285156 418.394531 L 70.320312 418.394531 L 70.320312 435.570312 "/><path style=" stroke:none;fill-rule:nonzero;fill:#f2e6dc;fill-opacity:1;" d="M 38.902344 435.570312 L 49.871094 435.570312 L 49.871094 418.394531 L 38.902344 418.394531 L 38.902344 435.570312 "/><path style=" stroke:none;fill-rule:nonzero;fill:#f2e6dc;fill-opacity:1;" d="M 133.152344 474.867188 L 144.121094 474.867188 L 144.121094 457.6875 L 133.152344 457.6875 L 133.152344 474.867188 "/><path style=" stroke:none;fill-rule:nonzero;fill:#f2e6dc;fill-opacity:1;" d="M 101.734375 474.867188 L 112.703125 474.867188 L 112.703125 457.6875 L 101.734375 457.6875 L 101.734375 474.867188 "/><path style=" stroke:none;fill-rule:nonzero;fill:#f2e6dc;fill-opacity:1;" d="M 70.320312 474.867188 L 81.285156 474.867188 L 81.285156 457.6875 L 70.320312 457.6875 L 70.320312 474.867188 "/><path style=" stroke:none;fill-rule:nonzero;fill:#f2e6dc;fill-opacity:1;" d="M 38.902344 474.867188 L 49.871094 474.867188 L 49.871094 457.6875 L 38.902344 457.6875 L 38.902344 474.867188 "/><path style=" stroke:none;fill-rule:nonzero;fill:#f2e6dc;fill-opacity:1;" d="M 133.152344 514.160156 L 144.121094 514.160156 L 144.121094 496.984375 L 133.152344 496.984375 L 133.152344 514.160156 "/><path style=" stroke:none;fill-rule:nonzero;fill:#f2e6dc;fill-opacity:1;" d="M 101.734375 514.160156 L 112.703125 514.160156 L 112.703125 496.984375 L 101.734375 496.984375 L 101.734375 514.160156 "/><path style=" stroke:none;fill-rule:nonzero;fill:#f2e6dc;fill-opacity:1;" d="M 70.320312 514.160156 L 81.285156 514.160156 L 81.285156 496.984375 L 70.320312 496.984375 L 70.320312 514.160156 "/><path style=" stroke:none;fill-rule:nonzero;fill:#f2e6dc;fill-opacity:1;" d="M 38.902344 514.160156 L 49.871094 514.160156 L 49.871094 496.984375 L 38.902344 496.984375 L 38.902344 514.160156 "/><path style=" stroke:none;fill-rule:nonzero;fill:#e6d0be;fill-opacity:1;" d="M 518.363281 688.570312 L 188.554688 688.570312 L 188.554688 66.332031 L 518.363281 66.332031 L 518.363281 688.570312 "/><path style=" stroke:none;fill-rule:nonzero;fill:#363e44;fill-opacity:1;" d="M 196.308594 24.617188 C 178.707031 24.617188 164.390625 38.9375 164.390625 56.53125 L 164.390625 692.449219 C 164.390625 710.046875 178.707031 724.367188 196.308594 724.367188 L 508.335938 724.367188 C 525.929688 724.367188 540.25 710.046875 540.25 692.449219 L 540.25 56.53125 C 540.25 38.9375 525.929688 24.617188 508.335938 24.617188 Z M 508.335938 726.261719 L 196.308594 726.261719 C 177.664062 726.261719 162.496094 711.09375 162.496094 692.449219 L 162.496094 56.53125 C 162.496094 37.894531 177.664062 22.722656 196.308594 22.722656 L 508.335938 22.722656 C 526.976562 22.722656 542.144531 37.894531 542.144531 56.53125 L 542.144531 692.449219 C 542.144531 711.09375 526.976562 726.261719 508.335938 726.261719 "/><path style=" stroke:none;fill-rule:nonzero;fill:#ffffff;fill-opacity:1;" d="M 246.363281 175.667969 L 241.546875 175.667969 C 232.644531 175.667969 225.429688 168.453125 225.429688 159.550781 L 225.429688 66.332031 L 262.480469 66.332031 L 262.480469 159.550781 C 262.480469 168.453125 255.265625 175.667969 246.363281 175.667969 "/><path style=" stroke:none;fill-rule:nonzero;fill:#d87355;fill-opacity:1;" d="M 209.3125 175.667969 L 204.496094 175.667969 C 195.59375 175.667969 188.378906 168.453125 188.378906 159.550781 L 188.378906 66.332031 L 225.429688 66.332031 L 225.429688 159.550781 C 225.429688 168.453125 218.214844 175.667969 209.3125 175.667969 "/><path style=" stroke:none;fill-rule:nonzero;fill:#d87355;fill-opacity:1;" d="M 282.917969 175.667969 L 278.101562 175.667969 C 269.199219 175.667969 261.984375 168.453125 261.984375 159.550781 L 261.984375 66.332031 L 299.035156 66.332031 L 299.035156 159.550781 C 299.035156 168.453125 291.820312 175.667969 282.917969 175.667969 "/><path style=" stroke:none;fill-rule:nonzero;fill:#ffffff;fill-opacity:1;" d="M 319.472656 175.667969 L 314.65625 175.667969 C 305.753906 175.667969 298.539062 168.453125 298.539062 159.550781 L 298.539062 66.332031 L 335.589844 66.332031 L 335.589844 159.550781 C 335.589844 168.453125 328.375 175.667969 319.472656 175.667969 "/><path style=" stroke:none;fill-rule:nonzero;fill:#d87355;fill-opacity:1;" d="M 356.027344 175.667969 L 351.210938 175.667969 C 342.308594 175.667969 335.09375 168.453125 335.09375 159.550781 L 335.09375 66.332031 L 372.140625 66.332031 L 372.140625 159.550781 C 372.140625 168.453125 364.929688 175.667969 356.027344 175.667969 "/><path style=" stroke:none;fill-rule:nonzero;fill:#ffffff;fill-opacity:1;" d="M 392.582031 175.667969 L 387.761719 175.667969 C 378.863281 175.667969 371.648438 168.453125 371.648438 159.550781 L 371.648438 66.332031 L 408.699219 66.332031 L 408.699219 159.550781 C 408.699219 168.453125 401.484375 175.667969 392.582031 175.667969 "/><path style=" stroke:none;fill-rule:nonzero;fill:#d87355;fill-opacity:1;" d="M 429.136719 175.667969 L 424.320312 175.667969 C 415.417969 175.667969 408.207031 168.453125 408.207031 159.550781 L 408.207031 66.332031 L 445.257812 66.332031 L 445.257812 159.550781 C 445.257812 168.453125 438.039062 175.667969 429.136719 175.667969 "/><path style=" stroke:none;fill-rule:nonzero;fill:#ffffff;fill-opacity:1;" d="M 465.695312 175.667969 L 460.875 175.667969 C 451.976562 175.667969 444.757812 168.453125 444.757812 159.550781 L 444.757812 66.332031 L 481.804688 66.332031 L 481.804688 159.550781 C 481.804688 168.453125 474.589844 175.667969 465.695312 175.667969 "/><path style=" stroke:none;fill-rule:nonzero;fill:#d87355;fill-opacity:1;" d="M 502.242188 175.667969 L 497.429688 175.667969 C 488.523438 175.667969 481.3125 168.453125 481.3125 159.550781 L 481.3125 66.332031 L 518.363281 66.332031 L 518.363281 159.550781 C 518.363281 168.453125 511.148438 175.667969 502.242188 175.667969 "/><path style=" stroke:none;fill-rule:nonzero;fill:#d87355;fill-opacity:1;" d="M 518.25 67.273438 L 188.558594 67.273438 C 188.035156 67.273438 187.609375 66.847656 187.609375 66.324219 C 187.609375 65.804688 188.035156 65.378906 188.558594 65.378906 L 518.25 65.378906 C 518.773438 65.378906 519.203125 65.804688 519.203125 66.324219 C 519.203125 66.847656 518.773438 67.273438 518.25 67.273438 "/><path style=" stroke:none;fill-rule:nonzero;fill:#ffffff;fill-opacity:1;" d="M 302.753906 547.71875 L 409.617188 547.71875 L 409.617188 440.902344 L 302.753906 440.902344 Z M 410.5625 549.617188 L 301.808594 549.617188 C 301.285156 549.617188 300.859375 549.195312 300.859375 548.671875 L 300.859375 439.957031 C 300.859375 439.433594 301.285156 439.007812 301.808594 439.007812 L 410.5625 439.007812 C 411.085938 439.007812 411.511719 439.433594 411.511719 439.957031 L 411.511719 548.671875 C 411.511719 549.195312 411.085938 549.617188 410.5625 549.617188 "/><path style=" stroke:none;fill-rule:nonzero;fill:#ffffff;fill-opacity:1;" d="M 350.351562 532.230469 L 316.300781 501.273438 L 326.820312 488.308594 L 348.410156 505.558594 L 382.289062 456.390625 L 396.066406 465.875 L 350.351562 532.230469 "/><path style=" stroke:none;fill-rule:nonzero;fill:#363e44;fill-opacity:1;" d="M 299.132812 352.199219 C 298.691406 352.199219 298.308594 351.902344 298.207031 351.464844 L 272.492188 238.964844 L 240.59375 239.265625 L 240.585938 239.265625 C 240.066406 239.265625 239.640625 238.84375 239.636719 238.328125 C 239.632812 237.804688 240.050781 237.375 240.574219 237.371094 L 273.234375 237.058594 L 273.246094 237.058594 C 273.6875 237.058594 274.070312 237.367188 274.167969 237.792969 L 299.871094 350.238281 L 415.945312 340.472656 L 415.886719 266.730469 L 380.785156 266.757812 L 380.777344 266.757812 C 380.253906 266.757812 379.832031 266.332031 379.832031 265.808594 C 379.832031 265.289062 380.25 264.863281 380.777344 264.863281 L 416.832031 264.832031 C 417.355469 264.832031 417.777344 265.257812 417.777344 265.78125 L 417.839844 341.34375 C 417.839844 341.835938 417.464844 342.246094 416.972656 342.289062 L 299.210938 352.195312 L 299.132812 352.199219 "/><path style=" stroke:none;fill-rule:nonzero;fill:#363e44;fill-opacity:1;" d="M 386.285156 344.871094 C 385.789062 344.871094 385.375 344.488281 385.339844 343.988281 L 379.894531 266.8125 L 279.621094 266.84375 C 279.09375 266.84375 278.671875 266.417969 278.671875 265.894531 C 278.671875 265.375 279.09375 264.949219 279.617188 264.949219 L 380.777344 264.917969 C 381.273438 264.917969 381.6875 265.300781 381.722656 265.800781 L 387.230469 343.855469 C 387.269531 344.378906 386.875 344.832031 386.355469 344.871094 L 386.285156 344.871094 "/><path style=" stroke:none;fill-rule:nonzero;fill:#363e44;fill-opacity:1;" d="M 289.019531 366.109375 L 289.007812 366.109375 C 279.042969 366.117188 270.945312 374.230469 270.953125 384.191406 C 270.960938 394.152344 279.066406 402.246094 289.023438 402.246094 L 289.035156 402.246094 C 299 402.238281 307.097656 394.125 307.089844 384.164062 C 307.082031 374.203125 298.976562 366.109375 289.019531 366.109375 Z M 289.023438 404.140625 C 283.695312 404.140625 278.6875 402.070312 274.917969 398.304688 C 271.140625 394.539062 269.0625 389.527344 269.058594 384.191406 C 269.046875 373.183594 277.996094 364.222656 289.003906 364.214844 L 289.019531 364.214844 C 300.023438 364.214844 308.972656 373.15625 308.988281 384.164062 C 308.996094 395.171875 300.042969 404.132812 289.035156 404.140625 L 289.023438 404.140625 "/><path style=" stroke:none;fill-rule:nonzero;fill:#363e44;fill-opacity:1;" d="M 426.371094 365.996094 L 426.359375 365.996094 C 421.53125 366 416.996094 367.882812 413.582031 371.300781 C 410.175781 374.714844 408.296875 379.253906 408.300781 384.082031 C 408.304688 388.90625 410.1875 393.441406 413.605469 396.851562 C 417.019531 400.261719 421.546875 402.132812 426.371094 402.132812 L 426.382812 402.132812 C 431.210938 402.128906 435.75 400.246094 439.15625 396.835938 C 442.566406 393.417969 444.445312 388.878906 444.441406 384.050781 C 444.4375 379.222656 442.554688 374.6875 439.136719 371.28125 C 435.722656 367.871094 431.195312 365.996094 426.371094 365.996094 Z M 426.371094 404.03125 C 421.042969 404.03125 416.039062 401.957031 412.269531 398.195312 C 408.492188 394.425781 406.410156 389.414062 406.40625 384.082031 C 406.402344 378.75 408.476562 373.734375 412.242188 369.960938 C 416.011719 366.1875 421.023438 364.105469 426.351562 364.101562 L 426.371094 364.101562 C 431.695312 364.101562 436.707031 366.171875 440.476562 369.9375 C 444.25 373.703125 446.332031 378.714844 446.335938 384.050781 C 446.34375 395.058594 437.394531 404.019531 426.390625 404.03125 L 426.371094 404.03125 "/><path style=" stroke:none;fill-rule:nonzero;fill:#363e44;fill-opacity:1;" d="M 308.035156 384.980469 C 307.515625 384.980469 307.089844 384.554688 307.089844 384.03125 C 307.085938 383.507812 307.511719 383.082031 308.035156 383.082031 L 407.203125 383.003906 C 407.730469 383.003906 408.15625 383.425781 408.15625 383.949219 C 408.15625 384.472656 407.730469 384.898438 407.203125 384.898438 L 308.035156 384.980469 "/><path style=" stroke:none;fill-rule:nonzero;fill:#363e44;fill-opacity:1;" d="M 294.585938 366.9375 C 294.492188 366.9375 294.402344 366.925781 294.308594 366.894531 C 293.808594 366.742188 293.527344 366.210938 293.679688 365.710938 L 298.222656 350.980469 C 298.378906 350.476562 298.90625 350.195312 299.410156 350.351562 C 299.910156 350.503906 300.1875 351.035156 300.035156 351.53125 L 295.492188 366.269531 C 295.367188 366.675781 294.992188 366.9375 294.585938 366.9375 "/><path style=" stroke:none;fill-rule:nonzero;fill:#363e44;fill-opacity:1;" d="M 357.621094 347.28125 C 357.15625 347.28125 356.746094 346.941406 356.683594 346.464844 L 345.421875 266.449219 C 345.347656 265.929688 345.710938 265.449219 346.230469 265.378906 C 346.742188 265.304688 347.226562 265.664062 347.300781 266.1875 L 358.558594 346.203125 C 358.632812 346.722656 358.269531 347.199219 357.753906 347.273438 C 357.707031 347.28125 357.664062 347.28125 357.621094 347.28125 "/><path style=" stroke:none;fill-rule:nonzero;fill:#363e44;fill-opacity:1;" d="M 326.921875 349.867188 C 326.476562 349.867188 326.074219 349.546875 325.988281 349.085938 L 310.796875 266.035156 C 310.707031 265.519531 311.046875 265.027344 311.5625 264.933594 C 312.082031 264.839844 312.566406 265.179688 312.664062 265.695312 L 327.855469 348.746094 C 327.949219 349.261719 327.609375 349.757812 327.09375 349.847656 C 327.035156 349.859375 326.980469 349.867188 326.921875 349.867188 "/><path style=" stroke:none;fill-rule:nonzero;fill:#363e44;fill-opacity:1;" d="M 289.890625 311.789062 C 289.386719 311.789062 288.96875 311.394531 288.945312 310.886719 C 288.921875 310.367188 289.324219 309.917969 289.847656 309.898438 L 416.816406 303.949219 C 417.335938 303.941406 417.78125 304.328125 417.808594 304.851562 C 417.832031 305.371094 417.425781 305.816406 416.90625 305.839844 L 289.9375 311.789062 L 289.890625 311.789062 "/><path style=" stroke:none;fill-rule:nonzero;fill:#e6d0be;fill-opacity:1;" d="M 234.539062 746.390625 C 231.859375 751.253906 228.839844 757.960938 226.917969 766.328125 C 223.949219 779.273438 224.972656 790.300781 226.179688 797.128906 C 256.523438 797.128906 286.863281 797.128906 317.207031 797.128906 C 316.578125 793.070312 315.535156 789.453125 314.277344 786.261719 C 302.25 755.769531 263.769531 746.558594 255.035156 744.671875 C 248.203125 745.242188 241.371094 745.820312 234.539062 746.390625 "/><path style=" stroke:none;fill-rule:nonzero;fill:#bc8271;fill-opacity:1;" d="M 223.640625 715.617188 L 230.570312 747.746094 C 232.097656 754.222656 238.355469 758.613281 244.914062 757.488281 C 245.289062 757.425781 245.671875 757.347656 246.058594 757.253906 C 252.132812 755.796875 256.222656 750.085938 255.761719 743.859375 L 252.765625 712.421875 L 223.640625 715.617188 "/><path style=" stroke:none;fill-rule:nonzero;fill:#e6d0be;fill-opacity:1;" d="M 52.84375 736.847656 C 52.84375 736.847656 37.664062 766.164062 40.378906 797.128906 C 60.734375 797.128906 81.09375 797.128906 101.453125 797.128906 C 99.863281 790.453125 97.429688 782.671875 93.636719 774.339844 C 87.132812 760.054688 79.023438 749.410156 72.445312 742.125 L 52.84375 736.847656 "/><path style=" stroke:none;fill-rule:nonzero;fill:#bc8271;fill-opacity:1;" d="M 50.117188 743.921875 C 49.683594 733.222656 49.738281 713.476562 54.609375 697.589844 L 90.117188 708.074219 C 90.117188 708.074219 78.464844 725.792969 74.78125 745.578125 C 73.667969 751.5625 68.351562 755.890625 62.28125 755.4375 C 61.488281 755.378906 60.65625 755.28125 59.796875 755.125 C 54.351562 754.140625 50.339844 749.449219 50.117188 743.921875 "/><path style=" stroke:none;fill-rule:nonzero;fill:#363e44;fill-opacity:1;" d="M 111.667969 424.070312 C 111.667969 424.070312 44.953125 528.265625 44.121094 729.238281 L 92.839844 729.238281 C 92.839844 729.238281 151.265625 555.574219 189.738281 512.269531 L 175.507812 415.339844 L 111.667969 424.070312 "/><path style=" stroke:none;fill-rule:nonzero;fill:#363e44;fill-opacity:1;" d="M 142.300781 533.902344 C 142.300781 533.902344 203.976562 635.558594 218.265625 729.238281 L 263.71875 729.238281 C 263.71875 729.238281 267.667969 502.765625 184.769531 410.84375 L 144.414062 418.847656 L 142.300781 533.902344 "/><path style=" stroke:none;fill-rule:nonzero;fill:#ffffff;fill-opacity:1;" d="M 162.640625 551.851562 L 188.46875 495.761719 L 162.640625 551.851562 "/><path style=" stroke:none;fill-rule:nonzero;fill:#bc8271;fill-opacity:1;" d="M 169.941406 346.257812 C 169.941406 346.257812 221.460938 383.269531 264.542969 341.933594 L 273.695312 323.359375 C 273.695312 323.359375 284.261719 352.167969 276.796875 380.242188 C 269.328125 408.316406 238.636719 413.988281 196.539062 405.40625 L 169.941406 346.257812 "/><path style=" stroke:none;fill-rule:nonzero;fill:#efbc73;fill-opacity:1;" d="M 88.25 457.757812 C 114.609375 441.1875 169.769531 409.550781 208.746094 408.101562 C 208.746094 408.101562 213.203125 373.789062 174.472656 342.820312 C 174.472656 342.820312 129.734375 314.316406 70.660156 339.890625 C 70.660156 339.890625 29.660156 408.28125 49.292969 447.054688 C 56.554688 461.390625 74.644531 466.3125 88.25 457.757812 "/><path style=" stroke:none;fill-rule:nonzero;fill:#bc8271;fill-opacity:1;" d="M 71.824219 339.234375 C 71.824219 358.425781 72.753906 374.746094 74.375 402.46875 C 76.238281 434.3125 77.089844 449.808594 65.285156 454.519531 C -0.0078125 480.59375 17.375 367.960938 71.824219 339.234375 "/><path style=" stroke:none;fill-rule:nonzero;fill:#bc8271;fill-opacity:1;" d="M 59.152344 405.394531 C 59.152344 405.394531 98.355469 389.429688 119.734375 382.433594 C 142.1875 375.089844 176.40625 367.507812 177.402344 372.3125 C 177.972656 375.046875 173.519531 377.046875 161.261719 381.59375 C 162.113281 381.984375 164.351562 383.582031 164.460938 386.203125 C 164.628906 390.085938 161.570312 391.296875 161.339844 391.515625 C 161.640625 391.625 164.828125 392.882812 165.378906 395.464844 C 165.996094 398.371094 164.714844 400.605469 162.8125 401.953125 C 163.542969 402.246094 166.140625 403.605469 166.597656 406.097656 C 167.066406 408.664062 165.691406 411.679688 163.09375 412.488281 C 158.324219 413.972656 144.070312 418.105469 137.378906 420.964844 C 124.210938 426.589844 80.128906 452.832031 58.949219 455.929688 C 62.488281 437.742188 59.152344 405.394531 59.152344 405.394531 "/><path style=" stroke:none;fill-rule:nonzero;fill:#363e44;fill-opacity:1;" d="M 157.078125 412.480469 C 156.625 412.480469 156.230469 412.15625 156.144531 411.699219 L 155.410156 407.542969 C 155.320312 407.027344 155.664062 406.535156 156.179688 406.445312 C 156.695312 406.351562 157.1875 406.695312 157.277344 407.210938 L 158.011719 411.367188 C 158.105469 411.882812 157.761719 412.375 157.246094 412.46875 C 157.1875 412.476562 157.132812 412.480469 157.078125 412.480469 "/><path style=" stroke:none;fill-rule:nonzero;fill:#363e44;fill-opacity:1;" d="M 155.121094 402.492188 C 154.660156 402.492188 154.253906 402.148438 154.183594 401.679688 L 153.503906 396.953125 C 153.429688 396.433594 153.789062 395.957031 154.304688 395.878906 C 154.820312 395.808594 155.304688 396.164062 155.378906 396.683594 L 156.0625 401.410156 C 156.136719 401.925781 155.777344 402.40625 155.257812 402.476562 C 155.210938 402.488281 155.167969 402.492188 155.121094 402.492188 "/><path style=" stroke:none;fill-rule:nonzero;fill:#363e44;fill-opacity:1;" d="M 153.789062 391.851562 C 153.335938 391.851562 152.9375 391.53125 152.855469 391.070312 C 152.714844 390.292969 152.597656 389.589844 152.476562 388.886719 C 152.359375 388.191406 152.238281 387.488281 152.101562 386.71875 C 152.011719 386.203125 152.355469 385.710938 152.867188 385.621094 C 153.390625 385.523438 153.878906 385.875 153.96875 386.390625 C 154.105469 387.164062 154.226562 387.867188 154.34375 388.570312 C 154.464844 389.265625 154.582031 389.964844 154.722656 390.738281 C 154.8125 391.253906 154.46875 391.75 153.953125 391.839844 C 153.898438 391.847656 153.84375 391.851562 153.789062 391.851562 "/><path style=" stroke:none;fill-rule:nonzero;fill:#363e44;fill-opacity:1;" d="M 151.847656 383.21875 C 151.425781 383.21875 151.039062 382.933594 150.929688 382.507812 L 149.898438 378.445312 C 149.769531 377.9375 150.074219 377.421875 150.582031 377.292969 C 151.09375 377.164062 151.605469 377.46875 151.734375 377.976562 L 152.765625 382.039062 C 152.894531 382.546875 152.589844 383.0625 152.082031 383.191406 C 152.003906 383.207031 151.925781 383.21875 151.847656 383.21875 "/><path style=" stroke:none;fill-rule:nonzero;fill:#84524d;fill-opacity:1;" d="M 257.050781 372.054688 L 218.007812 372.054688 L 243.757812 311.808594 L 282.800781 311.808594 L 257.050781 372.054688 "/><path style=" stroke:none;fill-rule:nonzero;fill:#efbc73;fill-opacity:1;" d="M 252.589844 319.078125 C 252.589844 320.535156 251.410156 321.71875 249.953125 321.71875 C 248.496094 321.71875 247.3125 320.535156 247.3125 319.078125 C 247.3125 317.621094 248.496094 316.441406 249.953125 316.441406 C 251.410156 316.441406 252.589844 317.621094 252.589844 319.078125 "/><path style=" stroke:none;fill-rule:nonzero;fill:#bc8271;fill-opacity:1;" d="M 281.847656 332.398438 C 281.847656 336.355469 281.511719 339.5625 274.667969 339.5625 C 267.820312 339.5625 257.050781 336.355469 257.050781 332.398438 C 257.050781 328.449219 267.820312 325.242188 274.667969 325.242188 C 281.511719 325.242188 281.847656 328.449219 281.847656 332.398438 "/><path style=" stroke:none;fill-rule:nonzero;fill:#bc8271;fill-opacity:1;" d="M 253.414062 342.921875 C 253.414062 338.96875 264.183594 335.761719 271.03125 335.761719 C 277.878906 335.761719 278.210938 338.96875 278.210938 342.921875 L 253.414062 342.921875 "/><path style=" stroke:none;fill-rule:nonzero;fill:#bc8271;fill-opacity:1;" d="M 278.210938 342.921875 C 278.210938 346.875 277.878906 350.082031 271.03125 350.082031 C 264.183594 350.082031 253.414062 346.875 253.414062 342.921875 L 278.210938 342.921875 "/><path style=" stroke:none;fill-rule:nonzero;fill:#bc8271;fill-opacity:1;" d="M 249.777344 353.441406 C 249.777344 349.484375 260.546875 346.285156 267.394531 346.285156 C 274.242188 346.285156 274.574219 349.484375 274.574219 353.441406 L 249.777344 353.441406 "/><path style=" stroke:none;fill-rule:nonzero;fill:#bc8271;fill-opacity:1;" d="M 274.574219 353.441406 C 274.574219 357.394531 274.242188 360.601562 267.394531 360.601562 C 260.546875 360.601562 249.777344 357.394531 249.777344 353.441406 L 274.574219 353.441406 "/><path style=" stroke:none;fill-rule:nonzero;fill:#bc8271;fill-opacity:1;" d="M 251.230469 362.492188 C 251.230469 359.351562 259.789062 356.800781 265.230469 356.800781 C 270.675781 356.800781 270.9375 359.351562 270.9375 362.492188 L 251.230469 362.492188 "/><path style=" stroke:none;fill-rule:nonzero;fill:#bc8271;fill-opacity:1;" d="M 270.9375 362.492188 C 270.9375 365.636719 270.675781 368.183594 265.230469 368.183594 C 259.789062 368.183594 251.230469 365.636719 251.230469 362.492188 L 270.9375 362.492188 "/><path style=" stroke:none;fill-rule:nonzero;fill:#363e44;fill-opacity:1;" d="M 152.21875 291.40625 C 152.21875 305.320312 140.9375 316.601562 127.019531 316.601562 C 113.105469 316.601562 101.824219 305.320312 101.824219 291.40625 C 101.824219 277.488281 113.105469 266.207031 127.019531 266.207031 C 140.9375 266.207031 152.21875 277.488281 152.21875 291.40625 "/><path style=" stroke:none;fill-rule:nonzero;fill:#bc8271;fill-opacity:1;" d="M 144.425781 303.964844 C 141.238281 302.203125 135.773438 297.496094 134.011719 300.6875 L 113.34375 333.746094 C 111.582031 336.933594 122.152344 335.820312 125.34375 337.585938 C 128.53125 339.347656 132.542969 338.191406 134.304688 335 L 147.007812 312.929688 C 148.769531 309.738281 147.613281 305.730469 144.425781 303.964844 "/><path style=" stroke:none;fill-rule:nonzero;fill:#bc8271;fill-opacity:1;" d="M 142.039062 336.296875 C 142.039062 339.265625 134.058594 341.667969 124.214844 341.667969 C 114.371094 341.667969 106.390625 339.265625 106.390625 336.296875 C 106.390625 333.332031 114.371094 330.929688 124.214844 330.929688 C 134.058594 330.929688 142.039062 333.332031 142.039062 336.296875 "/><path style=" stroke:none;fill-rule:nonzero;fill:#bc8271;fill-opacity:1;" d="M 161.109375 313.0625 C 158.25 318.414062 141.484375 316.109375 141.484375 316.109375 L 126.867188 304.710938 C 123.058594 297.066406 126.160156 287.785156 133.800781 283.976562 C 141.441406 280.167969 150.722656 283.273438 154.53125 290.914062 C 154.53125 290.914062 164.023438 307.605469 161.109375 313.0625 "/><path style=" stroke:none;fill-rule:nonzero;fill:#bc8271;fill-opacity:1;" d="M 154.757812 295.34375 C 154.757812 295.34375 160.664062 297.472656 160.992188 298.652344 C 161.386719 300.054688 157.453125 302.992188 157.453125 302.992188 C 157.453125 302.992188 154.867188 295.304688 154.757812 295.34375 "/><path style=" stroke:none;fill-rule:nonzero;fill:#ffffff;fill-opacity:1;" d="M 141.976562 300.980469 C 141.976562 300.980469 143.671875 298.574219 146.464844 297.183594 C 147.058594 296.890625 148.308594 302.199219 147.609375 302.210938 C 144.539062 302.261719 141.976562 300.980469 141.976562 300.980469 "/><g clip-rule="nonzero" clip-path="url(#ebef6291cf)"><g clip-rule="nonzero" clip-path="url(#22f121ddcb)"><path style=" stroke:none;fill-rule:nonzero;fill:#363e44;fill-opacity:1;" d="M 146.523438 297.003906 C 147.449219 294.234375 150.441406 292.742188 153.207031 293.671875 C 155.976562 294.59375 157.46875 297.589844 156.542969 300.355469 C 155.617188 303.121094 152.621094 304.617188 149.855469 303.691406 C 147.089844 302.765625 145.59375 299.769531 146.523438 297.003906 "/></g></g><path style=" stroke:none;fill-rule:nonzero;fill:#363e44;fill-opacity:1;" d="M 154.257812 308.269531 C 154.140625 308.269531 154.023438 308.265625 153.910156 308.25 C 152.738281 308.117188 151.726562 307.3125 151.324219 306.199219 C 151.148438 305.707031 151.40625 305.164062 151.898438 304.988281 C 152.390625 304.8125 152.933594 305.066406 153.109375 305.5625 C 153.265625 306 153.664062 306.316406 154.121094 306.367188 C 154.597656 306.425781 155.0625 306.1875 155.308594 305.769531 C 155.578125 305.324219 156.160156 305.171875 156.609375 305.445312 C 157.058594 305.710938 157.207031 306.292969 156.9375 306.742188 C 156.371094 307.695312 155.34375 308.269531 154.257812 308.269531 "/><path style=" stroke:none;fill-rule:nonzero;fill:#363e44;fill-opacity:1;" d="M 115.847656 307.519531 C 115.847656 307.519531 137.570312 308.480469 151.308594 286.753906 C 165.042969 265.03125 127.351562 266.308594 111.695312 273.65625 C 101.671875 278.363281 115.847656 307.519531 115.847656 307.519531 "/><path style=" stroke:none;fill-rule:nonzero;fill:#ffffff;fill-opacity:1;" d="M 121.234375 325.574219 C 120.507812 325.574219 120.035156 325.5 119.980469 325.492188 C 119.460938 325.40625 119.109375 324.921875 119.195312 324.40625 C 119.28125 323.886719 119.765625 323.539062 120.285156 323.621094 C 120.3125 323.621094 123.554688 324.109375 126.019531 322.121094 C 127.78125 320.703125 128.769531 318.351562 128.957031 315.132812 C 129.242188 310.363281 125.828125 307.683594 123.335938 305.730469 C 121.730469 304.46875 120.460938 303.472656 120.734375 302.140625 C 120.980469 300.925781 122.378906 300.128906 125.890625 299.183594 C 137.539062 296.070312 144.316406 282.328125 144.386719 282.191406 C 144.613281 281.714844 145.179688 281.523438 145.652344 281.746094 C 146.121094 281.980469 146.320312 282.546875 146.089844 283.015625 C 145.800781 283.613281 138.859375 297.675781 126.378906 301.015625 C 123.070312 301.902344 122.632812 302.453125 122.578125 302.550781 C 122.671875 302.796875 123.730469 303.628906 124.507812 304.234375 C 127.167969 306.324219 131.191406 309.484375 130.851562 315.242188 C 130.628906 319.03125 129.398438 321.847656 127.1875 323.613281 C 125.101562 325.28125 122.675781 325.574219 121.234375 325.574219 "/><path style=" stroke:none;fill-rule:nonzero;fill:#363e44;fill-opacity:1;" d="M 86.804688 218.769531 C 86.804688 218.769531 65.28125 266.28125 115.414062 288.183594 C 115.414062 288.183594 93.019531 249.074219 130.570312 217.132812 L 86.804688 218.769531 "/><path style=" stroke:none;fill-rule:nonzero;fill:#efbc73;fill-opacity:1;" d="M 755.007812 281.804688 L 450.527344 281.804688 C 450.011719 281.804688 449.589844 281.390625 449.585938 280.867188 L 448.378906 182.316406 C 448.367188 181.789062 448.785156 181.363281 449.316406 181.351562 C 449.8125 181.351562 450.265625 181.769531 450.273438 182.289062 L 451.464844 279.90625 L 755.007812 279.90625 C 755.53125 279.90625 755.957031 280.332031 755.957031 280.855469 C 755.957031 281.378906 755.53125 281.804688 755.007812 281.804688 "/><path style=" stroke:none;fill-rule:nonzero;fill:#efbc73;fill-opacity:1;" d="M 472.542969 259.957031 L 498.449219 259.957031 L 498.449219 203.554688 L 472.542969 203.554688 L 472.542969 259.957031 "/><path style=" stroke:none;fill-rule:nonzero;fill:#efbc73;fill-opacity:1;" d="M 515.300781 259.957031 L 541.210938 259.957031 L 541.210938 214.539062 L 515.300781 214.539062 L 515.300781 259.957031 "/><path style=" stroke:none;fill-rule:nonzero;fill:#efbc73;fill-opacity:1;" d="M 558.054688 259.957031 L 583.96875 259.957031 L 583.96875 237.253906 L 558.054688 237.253906 L 558.054688 259.957031 "/><path style=" stroke:none;fill-rule:nonzero;fill:#efbc73;fill-opacity:1;" d="M 600.820312 121.808594 L 600.820312 259.957031 L 626.734375 259.957031 L 626.734375 121.808594 L 600.820312 121.808594 "/><path style=" stroke:none;fill-rule:nonzero;fill:#efbc73;fill-opacity:1;" d="M 643.585938 259.957031 L 669.492188 259.957031 L 669.492188 188.375 L 643.585938 188.375 L 643.585938 259.957031 "/><path style=" stroke:none;fill-rule:nonzero;fill:#efbc73;fill-opacity:1;" d="M 686.34375 259.957031 L 712.253906 259.957031 L 712.253906 201.328125 L 686.34375 201.328125 L 686.34375 259.957031 "/><path style=" stroke:none;fill-rule:nonzero;fill:#efbc73;fill-opacity:1;" d="M 729.097656 130.039062 L 729.097656 259.957031 L 755.007812 259.957031 L 755.007812 130.039062 L 729.097656 130.039062 "/><path style=" stroke:none;fill-rule:nonzero;fill:#d87355;fill-opacity:1;" d="M 734.152344 35.265625 L 651.632812 57.683594 L 673.5625 74.984375 L 592.949219 169.703125 L 552.550781 133.757812 L 456.117188 271.523438 L 549.097656 182.257812 L 589.511719 220.214844 L 709.921875 103.660156 L 731.578125 120.746094 L 734.152344 35.265625 "/><path style=" stroke:none;fill-rule:nonzero;fill:#e6d0be;fill-opacity:1;" d="M 675.371094 709.363281 C 675.371094 709.363281 688 717.546875 697.898438 749.835938 C 650.335938 775.976562 626.316406 788.621094 625.835938 787.78125 L 625.828125 787.722656 C 623.910156 783.597656 622.945312 779.753906 622.550781 776.324219 C 618.925781 744.984375 658.875 719.953125 662.203125 717.925781 C 666.59375 715.070312 670.980469 712.21875 675.371094 709.363281 "/><path style=" stroke:none;fill-rule:nonzero;fill:#bc8271;fill-opacity:1;" d="M 663.824219 686.375 L 678.746094 714.339844 C 681.917969 720.285156 679.613281 727.679688 673.628906 730.769531 C 668.1875 733.578125 661.503906 731.875 658.078125 726.804688 L 644.464844 706.695312 L 663.824219 686.375 "/><path style=" stroke:none;fill-rule:nonzero;fill:#efbc73;fill-opacity:1;" d="M 646.96875 407.683594 C 646.96875 407.683594 603.839844 503.832031 602.066406 592.601562 C 600.371094 677.371094 646.96875 720.476562 646.96875 720.476562 L 673.582031 694.460938 C 673.582031 694.460938 642.167969 554.96875 706.765625 494.496094 L 715.382812 416.074219 L 646.96875 407.683594 "/><path style=" stroke:none;fill-rule:nonzero;fill:#f2e6dc;fill-opacity:1;" d="M 712.195312 739.789062 C 712.195312 739.789062 719.410156 763 718.910156 788.953125 C 718.910156 788.953125 672.386719 788.953125 661.1875 788.953125 C 661.195312 788.925781 663.003906 756.5 697.1875 739.789062 L 712.195312 739.789062 "/><path style=" stroke:none;fill-rule:nonzero;fill:#bc8271;fill-opacity:1;" d="M 723.160156 717.269531 C 722.796875 718.21875 716.804688 735.234375 713.527344 744.546875 C 711.609375 750.011719 705.722656 753.097656 700.183594 751.390625 C 700.089844 751.363281 700.003906 751.332031 699.910156 751.304688 C 694.699219 749.59375 691.710938 744.09375 692.863281 738.726562 L 698.878906 710.703125 L 723.160156 717.269531 "/><path style=" stroke:none;fill-rule:nonzero;fill:#efbc73;fill-opacity:1;" d="M 724.886719 729.050781 C 724.886719 729.050781 707.167969 734.046875 686.851562 723.769531 C 686.851562 723.769531 697.199219 538.882812 678.578125 468.226562 L 685.023438 419.695312 L 759.097656 432.1875 C 759.097656 432.1875 783.617188 562.976562 724.886719 729.050781 "/><path style=" stroke:none;fill-rule:nonzero;fill:#363e44;fill-opacity:1;" d="M 686.425781 518.746094 C 685.964844 518.746094 685.566406 518.414062 685.488281 517.945312 L 682.191406 497.214844 C 682.109375 496.699219 682.460938 496.214844 682.980469 496.132812 C 683.496094 496.050781 683.976562 496.402344 684.0625 496.917969 L 687.363281 517.652344 C 687.445312 518.167969 687.089844 518.652344 686.574219 518.734375 C 686.523438 518.742188 686.46875 518.746094 686.425781 518.746094 "/><path style=" stroke:none;fill-rule:nonzero;fill:#ffffff;fill-opacity:1;" d="M 742.757812 303.933594 C 742.757812 303.933594 706.871094 292.089844 651.59375 304.195312 L 631.910156 441.628906 L 769.816406 441.628906 L 742.757812 303.933594 "/><path style=" stroke:none;fill-rule:nonzero;fill:#8b865c;fill-opacity:1;" d="M 721.710938 299.5 C 721.320312 299.464844 725.296875 367.359375 726.285156 411.273438 C 726.71875 430.574219 724.632812 448.472656 724.632812 448.472656 L 769.8125 441.628906 C 769.8125 441.628906 769.433594 431.789062 769.300781 428.511719 C 769.191406 425.578125 768.847656 416.785156 768.847656 416.785156 L 774.90625 308.136719 C 774.90625 308.136719 754.964844 302.082031 721.710938 299.5 "/><path style=" stroke:none;fill-rule:nonzero;fill:#8b865c;fill-opacity:1;" d="M 748.179688 409.472656 L 776.394531 419.457031 C 787.007812 423.210938 798.671875 417.800781 802.671875 407.273438 C 810 387.976562 809.972656 366.59375 802.296875 347.433594 C 796.53125 333.03125 787.773438 317.542969 774.910156 308.140625 L 748.179688 409.472656 "/><path style=" stroke:none;fill-rule:nonzero;fill:#363e44;fill-opacity:1;" d="M 765.4375 369.507812 C 764.96875 369.507812 764.558594 369.160156 764.492188 368.683594 L 761.761719 348.210938 C 761.683594 347.691406 762.050781 347.210938 762.574219 347.148438 C 763.085938 347.082031 763.566406 347.4375 763.636719 347.960938 L 766.375 368.429688 C 766.445312 368.953125 766.078125 369.425781 765.5625 369.496094 C 765.519531 369.503906 765.476562 369.507812 765.4375 369.507812 "/><path style=" stroke:none;fill-rule:nonzero;fill:#8b865c;fill-opacity:1;" d="M 672.09375 300.089844 L 663.839844 449.933594 L 620.84375 441.625 C 620.84375 441.625 622.484375 429.078125 623.214844 424.546875 C 626.460938 404.449219 623.550781 378.472656 623.550781 378.472656 L 620.84375 312.679688 C 620.84375 312.679688 644.765625 302.597656 672.09375 300.089844 "/><path style=" stroke:none;fill-rule:nonzero;fill:#8b865c;fill-opacity:1;" d="M 620.839844 312.683594 L 630.429688 374.640625 L 593.179688 395.429688 C 578.722656 403.5 560.464844 397.800781 553.148438 382.945312 L 548.320312 363.007812 L 620.839844 312.683594 "/><path style=" stroke:none;fill-rule:nonzero;fill:#363e44;fill-opacity:1;" d="M 623.484375 379.027344 C 622.992188 379.027344 622.574219 378.640625 622.546875 378.144531 L 620.855469 352.054688 C 620.824219 351.527344 621.21875 351.082031 621.742188 351.046875 C 622.265625 351.019531 622.714844 351.410156 622.75 351.929688 L 624.433594 378.019531 C 624.464844 378.542969 624.070312 378.992188 623.550781 379.027344 L 623.484375 379.027344 "/><path style=" stroke:none;fill-rule:nonzero;fill:#363e44;fill-opacity:1;" d="M 658.382812 383.101562 L 699.355469 383.101562 L 674.980469 324.753906 L 634.007812 324.753906 L 658.382812 383.101562 "/><path style=" stroke:none;fill-rule:nonzero;fill:#8b865c;fill-opacity:1;" d="M 648.574219 331.574219 C 648.574219 333.011719 647.40625 334.179688 645.964844 334.179688 C 644.527344 334.179688 643.359375 333.011719 643.359375 331.574219 C 643.359375 330.132812 644.527344 328.964844 645.964844 328.964844 C 647.40625 328.964844 648.574219 330.132812 648.574219 331.574219 "/><path style=" stroke:none;fill-rule:nonzero;fill:#bc8271;fill-opacity:1;" d="M 782.726562 378.59375 C 766.316406 371.890625 728.433594 354.183594 724.667969 352.605469 C 717.628906 349.648438 679.4375 334.773438 676.691406 340.058594 C 675.378906 342.585938 682.609375 345.78125 685.082031 346.792969 C 682.683594 346.960938 673.390625 346.613281 672.707031 349.730469 C 671.898438 353.390625 682.910156 355.496094 683.0625 355.636719 C 680.601562 355.5625 670.832031 354.871094 670.226562 357.183594 C 669.4375 360.191406 678.335938 363.570312 681.046875 364.457031 C 680.640625 364.730469 671.464844 362.71875 670.375 366.273438 C 669.574219 368.875 677.742188 371.960938 681.285156 373.308594 C 687.53125 375.9375 758.605469 410.464844 772.628906 415.191406 C 778.125 417.046875 787.28125 386.984375 782.726562 378.59375 "/><path style=" stroke:none;fill-rule:nonzero;fill:#363e44;fill-opacity:1;" d="M 782.945312 379.222656 C 782.820312 379.222656 782.699219 379.199219 782.578125 379.152344 C 777.3125 376.933594 755.765625 367.566406 747.539062 363.878906 C 747.0625 363.664062 746.84375 363.101562 747.0625 362.625 C 747.28125 362.144531 747.839844 361.933594 748.320312 362.144531 C 756.527344 365.832031 778.058594 375.1875 783.3125 377.398438 C 783.792969 377.605469 784.023438 378.160156 783.816406 378.644531 C 783.667969 379.007812 783.3125 379.222656 782.945312 379.222656 "/><path style=" stroke:none;fill-rule:nonzero;fill:#363e44;fill-opacity:1;" d="M 698.074219 350.621094 C 697.9375 350.621094 697.800781 350.589844 697.675781 350.535156 C 695.121094 349.355469 692.433594 348.496094 689.699219 347.980469 C 688.171875 347.699219 686.609375 347.511719 685.058594 347.4375 C 684.535156 347.414062 684.136719 346.96875 684.15625 346.445312 C 684.183594 345.921875 684.652344 345.535156 685.148438 345.542969 C 686.792969 345.617188 688.4375 345.816406 690.050781 346.117188 C 692.9375 346.660156 695.769531 347.570312 698.464844 348.8125 C 698.945312 349.03125 699.152344 349.59375 698.933594 350.066406 C 698.773438 350.414062 698.429688 350.621094 698.074219 350.621094 "/><path style=" stroke:none;fill-rule:nonzero;fill:#363e44;fill-opacity:1;" d="M 692.199219 359.140625 C 692.070312 359.140625 691.933594 359.109375 691.804688 359.054688 C 689.253906 357.875 686.570312 357.019531 683.832031 356.496094 C 683.496094 356.4375 683.171875 356.378906 682.851562 356.332031 C 682.328125 356.253906 681.980469 355.765625 682.058594 355.246094 C 682.144531 354.726562 682.628906 354.378906 683.144531 354.457031 C 683.484375 354.511719 683.824219 354.570312 684.179688 354.636719 C 687.074219 355.179688 689.910156 356.089844 692.601562 357.328125 C 693.074219 357.550781 693.28125 358.113281 693.058594 358.589844 C 692.898438 358.933594 692.558594 359.140625 692.199219 359.140625 "/><path style=" stroke:none;fill-rule:nonzero;fill:#363e44;fill-opacity:1;" d="M 686.546875 367.339844 C 686.414062 367.339844 686.28125 367.316406 686.152344 367.257812 C 684.480469 366.488281 682.753906 365.851562 681 365.359375 C 680.492188 365.222656 680.199219 364.699219 680.332031 364.195312 C 680.476562 363.691406 681.003906 363.398438 681.507812 363.535156 C 683.359375 364.046875 685.1875 364.722656 686.945312 365.539062 C 687.417969 365.757812 687.625 366.316406 687.410156 366.789062 C 687.25 367.140625 686.90625 367.339844 686.546875 367.339844 "/><path style=" stroke:none;fill-rule:nonzero;fill:#bc8271;fill-opacity:1;" d="M 588.253906 352.933594 C 575.867188 340.4375 562.996094 324.542969 555.921875 317.382812 C 541.335938 302.613281 517.648438 282.933594 514.941406 286.28125 C 513.402344 288.1875 516.078125 291.542969 523.824219 300.023438 C 523 299.988281 520.492188 300.488281 519.351562 302.492188 C 517.660156 305.460938 519.683594 307.480469 519.777344 307.746094 C 519.5 307.710938 516.320312 307.476562 514.859375 309.273438 C 513.203125 311.296875 513.488281 313.492188 514.433594 315.3125 C 513.746094 315.25 510.773438 315.449219 509.453125 317.246094 C 507.734375 319.578125 508.992188 322.523438 510.699219 324.203125 C 513.828125 327.28125 522.582031 335.46875 526.664062 340.394531 C 531.742188 346.519531 549.265625 370.152344 563.765625 387.558594 C 574.574219 400.542969 606.671875 371.503906 588.253906 352.933594 "/><path style=" stroke:none;fill-rule:nonzero;fill:#363e44;fill-opacity:1;" d="M 539.472656 333.78125 C 539.121094 333.78125 538.777344 333.578125 538.621094 333.238281 C 536.5625 328.90625 536.671875 324.925781 536.75 322.023438 C 536.832031 319.019531 536.804688 317.550781 535.339844 316.945312 C 533.484375 316.171875 531.742188 314.457031 530.164062 311.84375 C 529.550781 310.828125 529.632812 309.5625 530.375 308.625 C 531.128906 307.683594 532.347656 307.320312 533.488281 307.6875 L 546.308594 311.882812 C 546.808594 312.046875 547.078125 312.578125 546.914062 313.078125 C 546.75 313.578125 546.21875 313.847656 545.71875 313.683594 L 532.898438 309.492188 C 532.316406 309.300781 531.957031 309.683594 531.863281 309.808594 C 531.765625 309.929688 531.480469 310.351562 531.789062 310.867188 C 533.132812 313.089844 534.613281 314.589844 536.066406 315.195312 C 538.800781 316.324219 538.726562 318.988281 538.644531 322.074219 C 538.566406 324.9375 538.472656 328.5 540.332031 332.425781 C 540.554688 332.898438 540.351562 333.460938 539.878906 333.6875 C 539.75 333.75 539.613281 333.78125 539.472656 333.78125 "/><path style=" stroke:none;fill-rule:nonzero;fill:#363e44;fill-opacity:1;" d="M 517.890625 328.570312 C 517.648438 328.570312 517.40625 328.480469 517.222656 328.296875 C 516.851562 327.929688 516.847656 327.328125 517.21875 326.957031 C 519.347656 324.800781 519.445312 321.332031 517.441406 319.054688 L 515.664062 317.027344 C 515.34375 316.667969 515.351562 316.117188 515.679688 315.761719 C 516.007812 315.402344 516.550781 315.351562 516.945312 315.644531 L 521.191406 318.796875 C 522.5 319.761719 524.308594 319.660156 525.496094 318.550781 C 526.164062 317.921875 526.539062 317.074219 526.5625 316.160156 C 526.578125 315.246094 526.234375 314.382812 525.59375 313.726562 L 520.648438 308.703125 C 520.292969 308.347656 520.28125 307.769531 520.621094 307.398438 C 520.960938 307.027344 521.535156 306.988281 521.925781 307.304688 L 524.558594 309.46875 C 525.605469 310.324219 527.167969 310.183594 528.046875 309.152344 C 528.871094 308.1875 528.835938 306.753906 527.96875 305.824219 L 524.589844 302.214844 C 524.230469 301.832031 524.253906 301.230469 524.636719 300.875 C 525.015625 300.519531 525.617188 300.535156 525.972656 300.917969 L 529.351562 304.527344 C 530.882812 306.167969 530.9375 308.679688 529.484375 310.382812 C 528.699219 311.308594 527.597656 311.824219 526.464844 311.910156 L 526.945312 312.394531 C 527.945312 313.417969 528.484375 314.765625 528.453125 316.199219 C 528.429688 317.628906 527.835938 318.953125 526.789062 319.929688 C 525.042969 321.574219 522.421875 321.808594 520.421875 320.558594 C 521.25 323.207031 520.617188 326.207031 518.5625 328.285156 C 518.378906 328.476562 518.132812 328.570312 517.890625 328.570312 "/><path style=" stroke:none;fill-rule:nonzero;fill:#bc8271;fill-opacity:1;" d="M 683.546875 300.433594 L 689.464844 303.753906 C 698.285156 308.695312 709.40625 304.019531 712.042969 294.261719 L 719.089844 268.195312 C 721.660156 263.664062 719.0625 266.316406 714.535156 263.746094 C 710.015625 261.175781 697.058594 256.972656 694.484375 261.496094 L 683.546875 300.433594 "/><path style=" stroke:none;fill-rule:nonzero;fill:#bc8271;fill-opacity:1;" d="M 676.796875 283.648438 C 680.375 290.101562 700.65625 284.761719 700.65625 284.761719 L 718.269531 272.789062 C 722.746094 263.417969 718.785156 252.191406 709.421875 247.710938 C 700.054688 243.238281 688.835938 247.207031 684.351562 256.578125 C 684.351562 256.578125 673.148438 277.074219 676.796875 283.648438 "/><path style=" stroke:none;fill-rule:nonzero;fill:#bc8271;fill-opacity:1;" d="M 684.171875 261.96875 C 684.171875 261.96875 677.035156 264.679688 676.65625 266.117188 C 676.207031 267.828125 681.046875 271.324219 681.046875 271.324219 C 681.046875 271.324219 684.042969 261.917969 684.171875 261.96875 "/><path style=" stroke:none;fill-rule:nonzero;fill:#ffffff;fill-opacity:1;" d="M 700.335938 264.777344 C 700.335938 264.777344 698.042969 262.660156 694.835938 261.832031 C 694.148438 261.65625 694.023438 267.457031 694.753906 267.316406 C 697.960938 266.683594 700.335938 264.777344 700.335938 264.777344 "/><g clip-rule="nonzero" clip-path="url(#a5d5cf162b)"><g clip-rule="nonzero" clip-path="url(#4474961ba5)"><path style=" stroke:none;fill-rule:nonzero;fill:#363e44;fill-opacity:1;" d="M 694.734375 261.65625 C 693.152344 258.984375 689.714844 258.101562 687.039062 259.675781 C 684.371094 261.253906 683.476562 264.699219 685.058594 267.371094 C 686.632812 270.039062 690.082031 270.929688 692.746094 269.351562 C 695.417969 267.769531 696.308594 264.324219 694.734375 261.65625 "/></g></g><path style=" stroke:none;fill-rule:nonzero;fill:#363e44;fill-opacity:1;" d="M 729.488281 255.316406 C 729.488281 255.316406 729.003906 277.113281 713.742188 278.515625 L 711.585938 274.363281 L 702.546875 274.519531 L 709.390625 266.507812 C 711.632812 263.253906 710.34375 258.757812 706.714844 257.199219 L 690.875 250.371094 L 695.015625 242.109375 C 708.402344 240.421875 720.15625 243.957031 729.488281 255.316406 "/><path style=" stroke:none;fill-rule:nonzero;fill:#363e44;fill-opacity:1;" d="M 713.101562 245.058594 C 714.675781 246.261719 716.921875 245.960938 718.125 244.390625 C 719.328125 242.816406 719.664062 239.742188 718.089844 238.539062 C 716.527344 237.335938 713.644531 238.457031 712.441406 240.03125 C 711.238281 241.601562 711.53125 243.855469 713.101562 245.058594 "/><path style=" stroke:none;fill-rule:nonzero;fill:#363e44;fill-opacity:1;" d="M 710.238281 244.878906 C 712.195312 245.167969 714.015625 243.8125 714.304688 241.851562 C 714.59375 239.898438 713.390625 237.046875 711.433594 236.761719 C 711.234375 236.730469 711.03125 236.773438 710.84375 236.859375 C 705.277344 239.3125 706.859375 244.382812 710.238281 244.878906 "/><path style=" stroke:none;fill-rule:nonzero;fill:#363e44;fill-opacity:1;" d="M 704.074219 244.554688 C 706.757812 244.476562 708.867188 242.238281 708.792969 239.558594 C 708.714844 236.875 706.4375 233.359375 703.753906 233.441406 C 701.074219 233.515625 699.003906 237.15625 699.082031 239.84375 C 699.15625 242.523438 701.394531 244.636719 704.074219 244.554688 "/><path style=" stroke:none;fill-rule:nonzero;fill:#363e44;fill-opacity:1;" d="M 718.113281 247.746094 C 719.648438 249 721.902344 248.777344 723.160156 247.242188 C 724.410156 245.710938 724.839844 242.648438 723.316406 241.398438 C 721.78125 240.140625 718.867188 241.167969 717.613281 242.699219 C 716.359375 244.234375 716.582031 246.492188 718.113281 247.746094 "/><path style=" stroke:none;fill-rule:nonzero;fill:#363e44;fill-opacity:1;" d="M 699.644531 243.542969 C 701.429688 241.957031 701.589844 239.222656 700.003906 237.4375 C 698.414062 235.652344 694.859375 234.558594 693.070312 236.144531 C 691.285156 237.730469 691.953125 241.398438 693.539062 243.183594 C 695.125 244.972656 697.855469 245.128906 699.644531 243.542969 "/><path style=" stroke:none;fill-rule:nonzero;fill:#363e44;fill-opacity:1;" d="M 721.679688 250.796875 C 723.273438 252.679688 726.085938 252.921875 727.976562 251.332031 C 729.863281 249.746094 731.09375 246.09375 729.5 244.207031 C 727.914062 242.324219 724.109375 242.914062 722.226562 244.5 C 720.335938 246.09375 720.09375 248.910156 721.679688 250.796875 "/><path style=" stroke:none;fill-rule:nonzero;fill:#363e44;fill-opacity:1;" d="M 725.472656 253.214844 C 726.269531 256.445312 731.320312 257.507812 733.1875 251.886719 C 733.246094 251.703125 733.269531 251.496094 733.222656 251.308594 C 732.761719 249.441406 729.902344 248.539062 728.035156 249 C 726.160156 249.457031 725.015625 251.347656 725.472656 253.214844 "/><path style=" stroke:none;fill-rule:nonzero;fill:#363e44;fill-opacity:1;" d="M 696.4375 248.007812 C 697.898438 245.492188 697.039062 242.261719 694.519531 240.804688 C 692.003906 239.34375 687.457031 239.441406 686.003906 241.960938 C 684.539062 244.480469 686.71875 248.46875 689.234375 249.929688 C 691.753906 251.386719 694.980469 250.527344 696.4375 248.007812 "/><path style=" stroke:none;fill-rule:nonzero;fill:#bc8271;fill-opacity:1;" d="M 721.460938 273.15625 C 722.125 277.757812 718.019531 281.519531 713.496094 280.453125 C 710.96875 279.855469 709.003906 277.710938 708.636719 275.136719 C 707.96875 270.535156 712.070312 266.777344 716.597656 267.84375 C 719.125 268.441406 721.085938 270.585938 721.460938 273.15625 "/><path style=" stroke:none;fill-rule:nonzero;fill:#363e44;fill-opacity:1;" d="M 678.585938 269.277344 L 673.640625 284.277344 C 672.957031 286.363281 674.144531 288.601562 676.257812 289.199219 C 676.789062 289.347656 677.363281 289.503906 677.984375 289.664062 C 688.644531 292.398438 699.972656 289.433594 707.925781 281.808594 L 708.980469 279.917969 C 710.550781 277.125 710.738281 273.757812 709.492188 270.804688 L 705.992188 271.050781 C 705.992188 271.050781 700.304688 277.839844 697.128906 277.074219 C 693.945312 276.308594 689.632812 271.46875 678.585938 269.277344 "/><path style=" stroke:none;fill-rule:nonzero;fill:#bc8271;fill-opacity:1;" d="M 684.96875 277.476562 C 683.738281 277.476562 682.578125 276.835938 681.914062 275.765625 C 681.644531 275.324219 681.777344 274.738281 682.222656 274.464844 C 682.667969 274.191406 683.253906 274.328125 683.53125 274.773438 C 683.878906 275.339844 684.53125 275.65625 685.1875 275.570312 C 685.820312 275.484375 686.359375 275.035156 686.566406 274.429688 C 686.734375 273.933594 687.277344 273.667969 687.769531 273.835938 C 688.261719 274.007812 688.53125 274.542969 688.359375 275.042969 C 687.921875 276.324219 686.773438 277.273438 685.433594 277.449219 C 685.277344 277.46875 685.125 277.476562 684.96875 277.476562 "/><path style=" stroke:none;fill-rule:nonzero;fill:#bc8271;fill-opacity:1;" d="M 710.726562 260.546875 C 710.300781 260.546875 709.914062 260.257812 709.804688 259.828125 C 709.675781 259.320312 709.984375 258.804688 710.492188 258.679688 L 719.726562 256.375 C 720.234375 256.25 720.75 256.558594 720.875 257.066406 C 721.003906 257.574219 720.691406 258.085938 720.1875 258.214844 L 710.953125 260.515625 C 710.875 260.539062 710.796875 260.546875 710.726562 260.546875 "/><path style=" stroke:none;fill-rule:nonzero;fill:#8b865c;fill-opacity:1;" d="M 321.972656 785.953125 L 636.164062 785.953125 L 587.160156 514.589844 L 383.105469 514.589844 L 321.972656 785.953125 "/><path style=" stroke:none;fill-rule:nonzero;fill:#f7f1eb;fill-opacity:1;" d="M 454.152344 763.570312 C 453.730469 763.570312 453.339844 763.28125 453.234375 762.84375 C 443.808594 723.304688 396.808594 525.863281 397.453125 522.367188 C 397.546875 521.851562 398.039062 521.511719 398.550781 521.605469 C 399.046875 521.695312 399.378906 522.152344 399.328125 522.636719 C 399.40625 527.671875 435.816406 681.605469 455.078125 762.40625 C 455.199219 762.914062 454.882812 763.425781 454.378906 763.546875 C 454.300781 763.5625 454.226562 763.570312 454.152344 763.570312 "/><path style=" stroke:none;fill-rule:nonzero;fill:#f7f1eb;fill-opacity:1;" d="M 336.253906 775.472656 C 335.921875 775.472656 335.605469 775.300781 335.429688 774.996094 C 335.171875 774.542969 335.332031 773.960938 335.785156 773.703125 L 388.144531 743.984375 L 388.144531 528.871094 C 388.144531 528.351562 388.574219 527.925781 389.097656 527.925781 C 389.617188 527.925781 390.042969 528.351562 390.042969 528.871094 L 390.042969 744.535156 C 390.042969 744.878906 389.863281 745.191406 389.558594 745.359375 L 336.722656 775.355469 C 336.574219 775.433594 336.414062 775.472656 336.253906 775.472656 "/><path style=" stroke:none;fill-rule:nonzero;fill:#776e42;fill-opacity:1;" d="M 434.082031 531.730469 C 436.054688 531.730469 437.652344 530.128906 437.652344 528.15625 L 437.652344 476.503906 C 437.652344 464.429688 447.476562 454.605469 459.546875 454.605469 L 502.871094 454.605469 C 514.945312 454.605469 524.769531 464.429688 524.769531 476.503906 L 524.769531 528.15625 C 524.769531 530.128906 526.371094 531.730469 528.335938 531.730469 C 530.308594 531.730469 531.910156 530.128906 531.910156 528.15625 L 531.910156 476.503906 C 531.910156 460.492188 518.882812 447.460938 502.871094 447.460938 L 459.546875 447.460938 C 443.539062 447.460938 430.511719 460.492188 430.511719 476.503906 L 430.511719 528.15625 C 430.511719 530.128906 432.109375 531.730469 434.082031 531.730469 "/></g></svg>