<svg xmlns="http://www.w3.org/2000/svg" xmlns:xlink="http://www.w3.org/1999/xlink" width="1080" zoomAndPan="magnify" viewBox="0 0 810 809.999993" height="1080" preserveAspectRatio="xMidYMid meet" version="1.2"><defs><clipPath id="b9bc5cc196"><path d="M 22.273438 634 L 242 634 L 242 810 L 22.273438 810 Z M 22.273438 634 "/></clipPath></defs><g id="1c840878b6"><path style=" stroke:none;fill-rule:nonzero;fill:#9257ff;fill-opacity:1;" d="M 405.152344 803.675781 C 443.714844 803.675781 479.347656 791.152344 508.226562 769.96875 L 485.738281 681.394531 C 480.074219 659.078125 456.589844 640.820312 433.558594 640.820312 L 433.339844 640.820312 L 405.152344 682.851562 L 376.964844 640.820312 L 376.746094 640.820312 C 353.710938 640.820312 330.226562 659.078125 324.5625 681.394531 L 302.074219 769.96875 C 330.949219 791.152344 366.585938 803.675781 405.152344 803.675781 Z M 405.152344 803.675781 "/><path style=" stroke:none;fill-rule:nonzero;fill:#ffcebf;fill-opacity:1;" d="M 444.492188 588.328125 C 444.492188 617.992188 426.878906 629.34375 405.152344 629.34375 C 383.421875 629.34375 365.808594 617.992188 365.808594 588.328125 C 365.808594 558.664062 383.421875 521.917969 405.152344 521.917969 C 426.878906 521.917969 444.492188 558.664062 444.492188 588.328125 Z M 444.492188 588.328125 "/><path style=" stroke:none;fill-rule:nonzero;fill:#3a313a;fill-opacity:1;" d="M 456.367188 555.417969 C 458.460938 552.269531 459.691406 548.496094 459.691406 544.429688 C 459.691406 535.78125 454.152344 528.445312 446.429688 525.722656 C 446.652344 524.65625 446.773438 523.558594 446.773438 522.429688 C 446.773438 513.5625 439.578125 506.371094 430.710938 506.371094 C 428.359375 506.371094 426.152344 506.898438 424.144531 507.804688 C 420.488281 501.070312 413.355469 496.503906 405.152344 496.503906 C 396.949219 496.503906 389.816406 501.074219 386.160156 507.804688 C 384.152344 506.898438 381.941406 506.371094 379.59375 506.371094 C 370.726562 506.371094 363.535156 513.5625 363.535156 522.429688 C 363.535156 523.558594 363.652344 524.65625 363.875 525.722656 C 356.15625 528.445312 350.613281 535.78125 350.613281 544.429688 C 350.613281 548.496094 351.839844 552.269531 353.9375 555.417969 C 351.21875 558.292969 349.546875 562.164062 349.546875 566.425781 C 349.546875 575.296875 356.738281 582.488281 365.613281 582.488281 C 374.484375 582.488281 381.675781 575.296875 381.675781 566.425781 C 381.675781 565.15625 381.507812 563.925781 381.230469 562.738281 C 383.375 563.722656 385.753906 564.289062 388.273438 564.289062 C 397.59375 564.289062 405.15625 556.734375 405.15625 547.410156 C 405.15625 556.734375 412.714844 564.289062 422.035156 564.289062 C 424.554688 564.289062 426.929688 563.722656 429.074219 562.738281 C 428.796875 563.925781 428.636719 565.15625 428.636719 566.425781 C 428.636719 575.296875 435.824219 582.488281 444.695312 582.488281 C 453.566406 582.488281 460.757812 575.296875 460.757812 566.425781 C 460.753906 562.160156 459.082031 558.292969 456.367188 555.417969 Z M 456.367188 555.417969 "/><path style=" stroke:none;fill-rule:nonzero;fill:#ffcebf;fill-opacity:1;" d="M 171.476562 588.324219 C 171.476562 617.992188 153.863281 629.34375 132.132812 629.34375 C 110.410156 629.34375 92.792969 617.992188 92.792969 588.324219 C 92.792969 558.660156 110.410156 521.917969 132.132812 521.917969 C 153.863281 521.917969 171.476562 558.660156 171.476562 588.324219 Z M 171.476562 588.324219 "/><path style=" stroke:none;fill-rule:nonzero;fill:#935b50;fill-opacity:1;" d="M 132.132812 505.851562 C 62.875 505.851562 76.527344 621.714844 76.527344 621.714844 L 98.050781 621.714844 C 98.050781 581.621094 109.125 561.472656 109.125 561.472656 L 155.144531 561.472656 C 155.144531 561.472656 166.222656 581.621094 166.222656 621.714844 L 187.742188 621.714844 C 187.742188 621.714844 201.394531 505.851562 132.132812 505.851562 Z M 132.132812 505.851562 "/><path style=" stroke:none;fill-rule:nonzero;fill:#dedbee;fill-opacity:1;" d="M 132.132812 689.0625 C 143.878906 683.304688 160.324219 665.625 160.324219 640.824219 C 160.296875 640.953125 155.527344 663.050781 132.132812 663.050781 C 108.617188 663.050781 103.945312 640.816406 103.945312 640.816406 C 103.945312 665.625 120.390625 683.304688 132.132812 689.0625 Z M 132.132812 689.0625 "/><path style=" stroke:none;fill-rule:nonzero;fill:#fd4755;fill-opacity:1;" d="M 212.722656 681.394531 C 207.058594 659.078125 183.574219 640.820312 160.542969 640.820312 L 160.328125 640.820312 C 160.328125 640.820312 160.324219 640.824219 160.324219 640.824219 C 160.324219 665.625 143.878906 683.308594 132.132812 689.0625 C 120.390625 683.304688 103.945312 665.625 103.945312 640.820312 L 103.730469 640.820312 C 80.695312 640.820312 57.210938 659.078125 51.546875 681.394531 L 29.058594 769.96875 C 57.9375 791.152344 93.570312 803.675781 132.132812 803.675781 C 170.699219 803.675781 206.332031 791.152344 235.207031 769.96875 Z M 212.722656 681.394531 "/><path style=" stroke:none;fill-rule:nonzero;fill:#ffcebf;fill-opacity:1;" d="M 716.175781 588.328125 C 716.175781 617.992188 698.5625 629.34375 676.835938 629.34375 C 655.109375 629.34375 637.492188 617.992188 637.492188 588.328125 C 637.492188 558.660156 655.109375 521.917969 676.835938 521.917969 C 698.5625 521.917969 716.175781 558.660156 716.175781 588.328125 Z M 716.175781 588.328125 "/><path style=" stroke:none;fill-rule:nonzero;fill:#935b50;fill-opacity:1;" d="M 637.289062 582.488281 C 622.628906 582.488281 622.003906 538.054688 638.464844 530.953125 C 654.921875 523.847656 676.945312 552.890625 661.878906 554.605469 C 641.761719 556.894531 651.015625 582.488281 637.289062 582.488281 Z M 637.289062 582.488281 "/><path style=" stroke:none;fill-rule:nonzero;fill:#935b50;fill-opacity:1;" d="M 715.796875 582.488281 C 708.429688 581.875 718.074219 556.539062 676.832031 556.539062 C 635.589844 556.539062 630.269531 519.394531 646.402344 507.125 C 646.898438 513.976562 668.511719 518.601562 690.097656 516.03125 C 741.929688 509.863281 735.140625 584.089844 715.796875 582.488281 Z M 715.796875 582.488281 "/><path style=" stroke:none;fill-rule:nonzero;fill:#6fd7a3;fill-opacity:1;" d="M 758.753906 681.394531 C 753.089844 659.078125 729.609375 640.820312 706.574219 640.820312 L 706.355469 640.820312 L 705.402344 641.164062 L 699.523438 671.691406 L 678.164062 651.027344 L 656.804688 671.691406 L 650.925781 641.160156 L 649.972656 640.820312 L 649.753906 640.820312 C 626.722656 640.820312 603.238281 659.078125 597.574219 681.394531 L 575.089844 769.964844 C 603.96875 791.152344 639.601562 803.675781 678.164062 803.675781 C 716.730469 803.675781 752.363281 791.152344 781.238281 769.96875 Z M 758.753906 681.394531 "/><path style=" stroke:none;fill-rule:nonzero;fill:#ffffff;fill-opacity:1;" d="M 699.523438 671.691406 L 678.164062 651.023438 L 694.894531 636.839844 L 705.472656 640.820312 L 705.402344 641.164062 Z M 678.164062 651.023438 L 661.433594 636.839844 L 650.859375 640.820312 L 650.925781 641.164062 L 656.804688 671.691406 Z M 678.164062 651.023438 "/><path style=" stroke:none;fill-rule:nonzero;fill:#ffd15b;fill-opacity:1;" d="M 421.511719 384.601562 L 421.511719 316.953125 C 421.511719 308.570312 414.714844 301.777344 406.332031 301.777344 C 397.945312 301.777344 391.148438 308.570312 391.148438 316.953125 L 391.148438 384.601562 L 367.078125 384.601562 L 406.332031 448.636719 L 445.585938 384.601562 Z M 421.511719 384.601562 "/><path style=" stroke:none;fill-rule:nonzero;fill:#ffd15b;fill-opacity:1;" d="M 538.691406 349.617188 L 490.839844 301.78125 C 484.910156 295.855469 475.300781 295.855469 469.371094 301.777344 C 463.445312 307.707031 463.441406 317.3125 469.371094 323.238281 L 517.222656 371.074219 L 500.207031 388.089844 L 573.257812 405.625 L 555.714844 332.601562 Z M 538.691406 349.617188 "/><path style=" stroke:none;fill-rule:nonzero;fill:#ffd15b;fill-opacity:1;" d="M 273.972656 349.617188 L 321.828125 301.78125 C 327.757812 295.855469 337.367188 295.855469 343.292969 301.777344 C 349.222656 307.707031 349.222656 317.3125 343.296875 323.238281 L 295.441406 371.074219 L 312.460938 388.089844 L 239.40625 405.625 L 256.953125 332.601562 Z M 273.972656 349.617188 "/><path style=" stroke:none;fill-rule:nonzero;fill:#ffcebf;fill-opacity:1;" d="M 405.148438 282.621094 L 524.699219 213.625 L 524.699219 75.636719 L 405.148438 144.632812 Z M 405.148438 282.621094 "/><path style=" stroke:none;fill-rule:nonzero;fill:#935b50;fill-opacity:1;" d="M 331.851562 138.386719 L 361.261719 155.359375 L 361.261719 119.300781 L 480.8125 50.308594 L 451.398438 33.335938 L 331.851562 102.332031 Z M 331.851562 138.386719 "/><path style=" stroke:none;fill-rule:nonzero;fill:#ffcebf;fill-opacity:1;" d="M 361.261719 119.300781 L 361.261719 155.359375 L 331.851562 138.386719 L 331.851562 102.332031 L 451.398438 33.335938 L 405.148438 6.640625 L 285.601562 75.636719 L 331.847656 102.328125 L 285.601562 75.636719 L 285.601562 213.625 L 405.148438 282.621094 L 405.148438 144.632812 L 361.265625 119.304688 L 405.148438 144.632812 L 524.699219 75.636719 L 480.8125 50.308594 Z M 361.261719 119.300781 "/><path style=" stroke:none;fill-rule:nonzero;fill:#be9bff;fill-opacity:1;" d="M 413.0625 781.535156 C 398.140625 781.535156 383.425781 779.492188 369.222656 775.460938 L 380.09375 705.25 C 381.296875 697.496094 375.960938 690.207031 368.203125 689.007812 C 367.46875 688.894531 366.738281 688.839844 366.015625 688.839844 C 358.949219 688.839844 353.03125 693.910156 351.949219 700.898438 L 342.03125 764.960938 C 336.585938 762.261719 331.300781 759.257812 326.21875 755.972656 L 346.269531 676.988281 C 349.746094 663.289062 363.347656 651.03125 377.785156 647.910156 L 401.234375 682.867188 C 403.878906 686.816406 408.300781 689.175781 413.058594 689.175781 C 417.820312 689.175781 422.242188 686.816406 424.890625 682.867188 L 448.332031 647.910156 C 462.769531 651.03125 476.371094 663.289062 479.847656 676.988281 L 499.898438 755.972656 C 494.816406 759.257812 489.53125 762.261719 484.085938 764.957031 L 474.167969 700.894531 C 473.085938 693.910156 467.167969 688.839844 460.101562 688.839844 C 459.378906 688.839844 458.644531 688.894531 457.925781 689.003906 C 450.15625 690.210938 444.824219 697.496094 446.023438 705.25 L 456.898438 775.460938 C 442.691406 779.492188 427.976562 781.535156 413.0625 781.535156 Z M 413.0625 781.535156 "/><path style=" stroke:none;fill-rule:nonzero;fill:#ffdfcf;fill-opacity:1;" d="M 413.0625 607.207031 C 397.449219 607.207031 389.4375 600.132812 388.144531 585.039062 C 394.171875 581.730469 398.878906 576.484375 401.507812 570.148438 C 405.617188 569.425781 409.554688 567.878906 413.0625 565.621094 C 416.566406 567.878906 420.503906 569.425781 424.617188 570.148438 C 427.242188 576.480469 431.949219 581.722656 437.96875 585.03125 C 436.660156 600.148438 428.652344 607.207031 413.0625 607.207031 Z M 413.0625 607.207031 "/><path style=" stroke:none;fill-rule:nonzero;fill:#685e68;fill-opacity:1;" d="M 452.601562 560.347656 C 451.597656 560.347656 450.78125 559.527344 450.78125 558.519531 C 450.78125 558.46875 450.789062 558.324219 450.839844 558.09375 C 451.25 556.355469 451.316406 554.585938 451.070312 552.863281 C 451.722656 554.460938 452.675781 555.960938 453.921875 557.277344 C 454.253906 557.628906 454.425781 558.058594 454.425781 558.519531 C 454.425781 559.527344 453.609375 560.347656 452.601562 560.347656 Z M 373.519531 560.347656 C 372.511719 560.347656 371.691406 559.527344 371.691406 558.519531 C 371.691406 558.058594 371.867188 557.632812 372.195312 557.285156 C 373.441406 555.96875 374.394531 554.472656 375.046875 552.878906 C 374.804688 554.59375 374.871094 556.363281 375.277344 558.089844 C 375.320312 558.273438 375.34375 558.417969 375.34375 558.519531 C 375.34375 559.527344 374.523438 560.347656 373.519531 560.347656 Z M 450.160156 549.476562 C 449.277344 547.304688 447.863281 545.335938 445.992188 543.808594 C 443.460938 541.738281 440.257812 540.597656 436.980469 540.597656 C 434.910156 540.597656 432.90625 541.035156 431.027344 541.902344 C 430.664062 542.066406 430.3125 542.148438 429.941406 542.148438 C 428.484375 542.148438 427.296875 540.960938 427.296875 539.503906 C 427.296875 531.65625 420.910156 525.269531 413.058594 525.269531 C 405.207031 525.269531 398.820312 531.65625 398.820312 539.503906 C 398.820312 540.960938 397.636719 542.148438 396.179688 542.148438 C 395.808594 542.148438 395.453125 542.066406 395.09375 541.902344 C 393.214844 541.035156 391.207031 540.59375 389.136719 540.59375 C 385.863281 540.59375 382.660156 541.734375 380.125 543.808594 C 378.261719 545.332031 376.847656 547.289062 375.964844 549.457031 C 376.429688 546.113281 375.6875 542.617188 373.691406 539.621094 C 373.078125 538.699219 372.753906 537.628906 372.753906 536.523438 C 372.753906 534.152344 374.265625 532.027344 376.519531 531.234375 C 383.214844 528.871094 387.167969 521.847656 385.714844 514.898438 C 385.6875 514.785156 385.675781 514.648438 385.675781 514.519531 C 385.675781 513.511719 386.496094 512.695312 387.496094 512.695312 C 387.714844 512.695312 387.945312 512.75 388.210938 512.871094 C 390.054688 513.703125 392.027344 514.128906 394.058594 514.128906 C 399.285156 514.128906 404.082031 511.277344 406.578125 506.683594 C 407.867188 504.304688 410.351562 502.828125 413.058594 502.828125 C 415.757812 502.828125 418.242188 504.304688 419.535156 506.683594 C 422.027344 511.277344 426.824219 514.128906 432.050781 514.128906 C 434.082031 514.128906 436.050781 513.703125 437.90625 512.867188 C 438.164062 512.75 438.398438 512.691406 438.613281 512.691406 C 439.621094 512.691406 440.4375 513.511719 440.4375 514.519531 C 440.4375 514.597656 440.429688 514.730469 440.394531 514.910156 C 438.941406 521.847656 442.898438 528.871094 449.59375 531.234375 C 451.84375 532.027344 453.355469 534.152344 453.355469 536.519531 C 453.355469 537.628906 453.03125 538.707031 452.414062 539.632812 C 450.425781 542.632812 449.691406 546.132812 450.160156 549.476562 Z M 450.160156 549.476562 "/><path style=" stroke:none;fill-rule:nonzero;fill:#ffdfcf;fill-opacity:1;" d="M 140.042969 607.203125 C 131.253906 607.203125 124.757812 604.878906 120.683594 600.28125 C 121.777344 585.167969 124.542969 574.253906 126.648438 567.796875 L 153.445312 567.796875 C 155.550781 574.253906 158.316406 585.171875 159.410156 600.28125 C 155.335938 604.878906 148.835938 607.203125 140.042969 607.203125 Z M 140.042969 607.203125 "/><path style=" stroke:none;fill-rule:nonzero;fill:#ab695d;fill-opacity:1;" d="M 100.835938 555.214844 C 103.355469 542.875 107.699219 531.042969 115.007812 522.828125 C 121.46875 515.5625 129.425781 512.179688 140.042969 512.179688 C 150.660156 512.179688 158.613281 515.558594 165.070312 522.816406 C 172.355469 531 176.695312 542.796875 179.21875 555.109375 C 177.40625 550.238281 175.933594 547.441406 175.53125 546.707031 C 173.03125 542.160156 168.246094 539.332031 163.054688 539.332031 L 117.035156 539.332031 C 111.84375 539.332031 107.058594 542.160156 104.558594 546.710938 C 104.152344 547.449219 102.664062 550.277344 100.835938 555.214844 Z M 100.835938 555.214844 "/><path style=" stroke:none;fill-rule:nonzero;fill:#f9f7f8;fill-opacity:1;" d="M 124.90625 658.320312 C 129.398438 665.722656 135.320312 670.945312 140.042969 673.910156 C 144.769531 670.945312 150.699219 665.714844 155.191406 658.304688 C 150.953125 660.257812 145.933594 661.46875 140.042969 661.46875 C 134.15625 661.46875 129.140625 660.265625 124.90625 658.320312 Z M 124.90625 658.320312 "/><path style=" stroke:none;fill-rule:nonzero;fill:#fe646f;fill-opacity:1;" d="M 125.804688 780.910156 C 115.773438 780.027344 105.867188 778.203125 96.207031 775.460938 L 107.078125 705.25 C 108.28125 697.496094 102.945312 690.207031 95.183594 689.007812 C 94.449219 688.894531 93.722656 688.839844 93 688.839844 C 85.933594 688.839844 80.015625 693.910156 78.933594 700.898438 L 69.015625 764.957031 C 63.574219 762.261719 58.285156 759.257812 53.203125 755.972656 L 73.257812 676.992188 C 76.25 665.199219 86.996094 654.269531 99.335938 649.578125 C 104.160156 670.710938 117.929688 683.371094 125.800781 689.085938 L 125.800781 780.910156 Z M 125.804688 780.910156 "/><path style=" stroke:none;fill-rule:nonzero;fill:#fe646f;fill-opacity:1;" d="M 154.28125 689.085938 C 162.15625 683.375 175.925781 670.710938 180.75 649.578125 C 193.089844 654.265625 203.839844 665.199219 206.832031 676.992188 L 226.886719 755.972656 C 221.800781 759.257812 216.515625 762.261719 211.074219 764.957031 L 201.15625 700.898438 C 200.074219 693.910156 194.15625 688.839844 187.085938 688.839844 C 186.363281 688.839844 185.628906 688.894531 184.914062 689.007812 C 181.148438 689.589844 177.839844 691.597656 175.59375 694.664062 C 173.347656 697.734375 172.429688 701.492188 173.011719 705.25 L 183.882812 775.460938 C 174.222656 778.203125 164.3125 780.027344 154.28125 780.910156 Z M 154.28125 689.085938 "/><path style=" stroke:none;fill-rule:nonzero;fill:#ffdfcf;fill-opacity:1;" d="M 684.746094 607.207031 C 668.601562 607.207031 660.585938 599.644531 659.71875 583.46875 C 665.128906 578.574219 667.070312 571.570312 668.328125 567.042969 C 669.109375 564.222656 669.742188 562.335938 670.210938 561.417969 C 674.816406 562.375 679.691406 562.863281 684.742188 562.863281 C 703.230469 562.863281 704.628906 567.539062 706.246094 572.957031 C 706.875 575.0625 707.824219 578.238281 709.839844 581.234375 C 709.605469 598.949219 701.613281 607.207031 684.746094 607.207031 Z M 684.746094 607.207031 "/><path style=" stroke:none;fill-rule:nonzero;fill:#ab695d;fill-opacity:1;" d="M 645.199219 568.253906 C 646.207031 568.253906 646.726562 567.984375 648.511719 561.550781 C 649.675781 557.339844 651.320312 551.496094 655.441406 546.984375 C 650.566406 543.71875 646.628906 539.539062 643.875 534.527344 C 640.730469 540.957031 639.40625 551.367188 641.253906 560.300781 C 642.402344 565.851562 644.421875 568.253906 645.199219 568.253906 Z M 645.199219 568.253906 "/><path style=" stroke:none;fill-rule:nonzero;fill:#ab695d;fill-opacity:1;" d="M 723.796875 547.160156 C 716.96875 540.3125 705.285156 534.398438 684.742188 534.398438 C 672.164062 534.398438 663.453125 529.957031 660.839844 522.207031 C 660.585938 521.449219 660.398438 520.667969 660.277344 519.886719 C 669.9375 522.691406 680.640625 523.078125 685.773438 523.078125 C 690.441406 523.078125 695.125 522.800781 699.691406 522.257812 C 701.167969 522.082031 702.597656 521.992188 703.9375 521.992188 C 721.855469 521.992188 723.796875 539.445312 723.796875 546.945312 C 723.796875 547.015625 723.796875 547.089844 723.796875 547.160156 Z M 723.796875 547.160156 "/><path style=" stroke:none;fill-rule:nonzero;fill:#9be69d;fill-opacity:1;" d="M 686.074219 781.535156 C 671.15625 781.535156 656.445312 779.492188 642.238281 775.460938 L 653.109375 705.25 C 653.6875 701.496094 652.773438 697.738281 650.527344 694.667969 C 648.277344 691.601562 644.972656 689.589844 641.214844 689.007812 C 640.484375 688.898438 639.753906 688.84375 639.03125 688.84375 C 631.960938 688.84375 626.046875 693.914062 624.964844 700.898438 L 615.042969 764.960938 C 609.601562 762.261719 604.316406 759.257812 599.230469 755.972656 L 619.285156 676.992188 C 622.445312 664.542969 634.269531 653.078125 647.339844 648.859375 L 650.730469 666.472656 C 651.722656 671.613281 655.4375 675.78125 660.429688 677.355469 C 661.8125 677.792969 663.257812 678.015625 664.714844 678.015625 C 668.429688 678.015625 671.945312 676.59375 674.617188 674.007812 L 686.074219 662.925781 L 697.527344 674.007812 C 700.199219 676.59375 703.714844 678.015625 707.433594 678.015625 C 708.890625 678.015625 710.332031 677.792969 711.722656 677.355469 C 716.710938 675.78125 720.425781 671.609375 721.414062 666.472656 L 724.808594 648.863281 C 737.878906 653.082031 749.703125 664.542969 752.859375 676.992188 L 772.914062 755.972656 C 767.832031 759.257812 762.546875 762.261719 757.105469 764.960938 L 747.183594 700.898438 C 746.101562 693.914062 740.1875 688.839844 733.117188 688.839844 C 732.390625 688.839844 731.660156 688.898438 730.941406 689.007812 C 723.175781 690.210938 717.839844 697.496094 719.039062 705.25 L 729.914062 775.460938 C 715.707031 779.492188 700.992188 781.535156 686.074219 781.535156 Z M 686.074219 781.535156 "/><path style=" stroke:none;fill-rule:nonzero;fill:#ffffff;fill-opacity:1;" d="M 704.0625 636.164062 L 695.496094 643.425781 L 703.429688 651.105469 L 706.160156 636.953125 Z M 704.0625 636.164062 "/><path style=" stroke:none;fill-rule:nonzero;fill:#ffffff;fill-opacity:1;" d="M 668.09375 636.164062 L 665.992188 636.953125 L 668.71875 651.105469 L 676.65625 643.425781 Z M 668.09375 636.164062 "/><path style=" stroke:none;fill-rule:nonzero;fill:#fee45a;fill-opacity:1;" d="M 400.375 390.867188 C 407.613281 390.199219 413.296875 384.097656 413.296875 376.695312 L 413.296875 309.046875 C 413.296875 308.535156 413.730469 308.105469 414.242188 308.105469 C 414.753906 308.105469 415.183594 308.535156 415.183594 309.046875 L 415.183594 376.695312 C 415.183594 384.101562 420.871094 390.203125 428.109375 390.867188 L 414.242188 413.488281 Z M 400.375 390.867188 "/><path style=" stroke:none;fill-rule:nonzero;fill:#fee45a;fill-opacity:1;" d="M 536.089844 372.257812 C 540.738281 366.671875 540.441406 358.335938 535.199219 353.101562 L 487.347656 305.265625 C 487.160156 305.078125 487.074219 304.867188 487.074219 304.601562 C 487.074219 304.335938 487.160156 304.125 487.351562 303.933594 C 487.539062 303.75 487.75 303.660156 488.015625 303.660156 C 488.28125 303.660156 488.492188 303.75 488.683594 303.9375 L 536.535156 351.773438 C 539.226562 354.460938 542.800781 355.941406 546.605469 355.941406 C 549.964844 355.941406 553.148438 354.785156 555.699219 352.660156 L 561.898438 378.453125 Z M 536.089844 372.257812 "/><path style=" stroke:none;fill-rule:nonzero;fill:#fee45a;fill-opacity:1;" d="M 272.785156 352.660156 C 275.335938 354.785156 278.519531 355.941406 281.882812 355.941406 C 285.6875 355.941406 289.261719 354.460938 291.949219 351.773438 L 339.804688 303.9375 C 339.992188 303.75 340.207031 303.660156 340.472656 303.660156 C 340.738281 303.660156 340.949219 303.746094 341.136719 303.933594 C 341.5 304.296875 341.5 304.90625 341.136719 305.269531 L 293.285156 353.101562 C 290.597656 355.789062 289.113281 359.363281 289.113281 363.167969 C 289.113281 366.527344 290.269531 369.710938 292.394531 372.257812 L 266.589844 378.453125 Z M 272.785156 352.660156 "/><path style=" stroke:none;fill-rule:nonzero;fill:#ffdfcf;fill-opacity:1;" d="M 427.296875 144.941406 L 518.371094 92.382812 L 518.371094 197.5 L 427.296875 250.0625 Z M 427.296875 144.941406 "/><path style=" stroke:none;fill-rule:nonzero;fill:#ab695d;fill-opacity:1;" d="M 354 122.261719 L 354 102.640625 L 459.308594 41.863281 L 460.246094 42.402344 L 362.054688 99.070312 C 361.855469 99.183594 361.632812 99.328125 361.421875 99.476562 C 361.242188 99.59375 361.035156 99.730469 360.835938 99.875 C 360.652344 100.003906 360.417969 100.1875 360.1875 100.378906 C 359.910156 100.605469 359.644531 100.832031 359.394531 101.070312 C 359.226562 101.230469 359.019531 101.4375 358.816406 101.652344 C 358.617188 101.859375 358.425781 102.085938 358.230469 102.320312 C 357.980469 102.621094 357.773438 102.882812 357.582031 103.15625 C 357.472656 103.308594 357.359375 103.476562 357.25 103.652344 C 357.101562 103.855469 356.96875 104.066406 356.839844 104.292969 C 356.730469 104.480469 356.613281 104.707031 356.507812 104.929688 C 356.414062 105.113281 356.21875 105.515625 356.199219 105.5625 C 356.082031 105.832031 355.972656 106.101562 355.871094 106.378906 C 355.742188 106.722656 355.648438 106.992188 355.566406 107.269531 C 355.464844 107.605469 355.386719 107.882812 355.324219 108.167969 C 355.261719 108.421875 355.191406 108.789062 355.136719 109.160156 C 355.097656 109.378906 355.046875 109.71875 355.015625 110.058594 C 355 110.195312 354.988281 110.382812 354.980469 110.582031 C 354.953125 110.847656 354.9375 111.117188 354.9375 111.394531 L 354.9375 122.800781 Z M 354 122.261719 "/><path style=" stroke:none;fill-rule:nonzero;fill:#ffdfcf;fill-opacity:1;" d="M 397.648438 111.394531 L 488.722656 58.835938 L 504.132812 67.730469 L 413.058594 120.289062 Z M 397.648438 111.394531 "/><path style=" stroke:none;fill-rule:nonzero;fill:#ffdfcf;fill-opacity:1;" d="M 321.988281 67.730469 L 413.058594 15.167969 L 430.832031 25.425781 L 339.765625 77.988281 Z M 321.988281 67.730469 "/><path style=" stroke:none;fill-rule:nonzero;fill:#ffdfcf;fill-opacity:1;" d="M 307.75 197.5 L 307.75 92.382812 L 325.523438 102.636719 L 325.523438 130.476562 C 325.523438 135.546875 328.25 140.269531 332.640625 142.804688 L 362.054688 159.777344 C 364.214844 161.023438 366.679688 161.683594 369.171875 161.683594 C 371.667969 161.683594 374.128906 161.023438 376.292969 159.777344 C 380.683594 157.242188 383.410156 152.519531 383.410156 147.449219 L 383.410156 136.046875 L 398.820312 144.941406 L 398.820312 250.0625 Z M 307.75 197.5 "/><path style=" stroke:none;fill-rule:nonzero;fill:#000000;fill-opacity:1;" d="M 318.425781 679.839844 L 295.941406 768.414062 C 295.308594 770.914062 296.25 773.542969 298.332031 775.066406 C 329.476562 797.921875 366.414062 810 405.152344 810 C 443.882812 810 480.820312 797.921875 511.972656 775.066406 C 514.046875 773.542969 514.996094 770.910156 514.359375 768.414062 L 491.875 679.839844 C 485.527344 654.835938 459.367188 634.496094 433.558594 634.496094 L 433.339844 634.496094 C 431.230469 634.496094 429.257812 635.546875 428.085938 637.296875 L 405.152344 671.492188 L 382.222656 637.296875 C 381.046875 635.542969 379.078125 634.496094 376.964844 634.496094 L 376.746094 634.496094 C 350.933594 634.496094 324.773438 654.835938 318.425781 679.839844 Z M 373.671875 647.269531 L 399.894531 686.371094 C 401.070312 688.125 403.042969 689.175781 405.152344 689.175781 C 407.261719 689.175781 409.234375 688.125 410.40625 686.371094 L 436.632812 647.269531 C 455.703125 648.824219 474.929688 664.53125 479.605469 682.949219 L 501.027344 767.335938 C 491.214844 774.167969 480.804688 779.851562 469.957031 784.394531 L 458.4375 710.011719 C 457.902344 706.558594 454.683594 704.195312 451.214844 704.726562 C 447.761719 705.261719 445.394531 708.496094 445.929688 711.949219 L 457.851562 788.917969 C 441.023438 794.46875 423.304688 797.347656 405.148438 797.347656 C 386.996094 797.347656 369.273438 794.46875 352.449219 788.917969 L 364.367188 711.949219 C 364.902344 708.496094 362.535156 705.261719 359.082031 704.726562 C 355.605469 704.199219 352.390625 706.558594 351.859375 710.011719 L 340.339844 784.394531 C 329.496094 779.851562 319.085938 774.167969 309.269531 767.335938 L 330.691406 682.949219 C 335.371094 664.535156 354.601562 648.828125 373.671875 647.269531 Z M 373.671875 647.269531 "/><path style=" stroke:none;fill-rule:nonzero;fill:#000000;fill-opacity:1;" d="M 359.488281 587.941406 C 359.488281 588.070312 359.480469 588.199219 359.480469 588.328125 C 359.480469 617.972656 376.554688 635.671875 405.152344 635.671875 C 433.746094 635.671875 450.820312 617.972656 450.820312 588.328125 C 450.820312 588.199219 450.8125 588.070312 450.8125 587.941406 C 460.1875 585.273438 467.082031 576.648438 467.082031 566.425781 C 467.082031 562.304688 465.957031 558.324219 463.851562 554.859375 C 465.277344 551.585938 466.015625 548.046875 466.015625 544.429688 C 466.015625 535.0625 460.980469 526.515625 453.09375 521.878906 C 452.800781 509.789062 442.871094 500.042969 430.707031 500.042969 C 429.378906 500.042969 428.058594 500.164062 426.757812 500.402344 C 421.511719 493.996094 413.617188 490.175781 405.152344 490.175781 C 396.683594 490.175781 388.789062 493.996094 383.542969 500.402344 C 382.242188 500.164062 380.925781 500.042969 379.59375 500.042969 C 367.429688 500.042969 357.503906 509.789062 357.210938 521.875 C 349.320312 526.515625 344.28125 535.0625 344.28125 544.433594 C 344.28125 548.050781 345.023438 551.585938 346.449219 554.859375 C 344.34375 558.324219 343.214844 562.304688 343.214844 566.429688 C 343.214844 576.648438 350.109375 585.269531 359.488281 587.941406 Z M 359.199219 551.910156 C 357.71875 549.691406 356.9375 547.101562 356.9375 544.429688 C 356.9375 538.714844 360.570312 533.59375 365.980469 531.683594 C 368.96875 530.628906 370.714844 527.527344 370.066406 524.425781 C 369.929688 523.773438 369.859375 523.101562 369.859375 522.425781 C 369.859375 517.058594 374.226562 512.695312 379.589844 512.695312 C 380.933594 512.695312 382.265625 512.988281 383.554688 513.570312 C 386.570312 514.933594 390.136719 513.734375 391.71875 510.820312 C 394.394531 505.890625 399.542969 502.828125 405.148438 502.828125 C 410.757812 502.828125 415.902344 505.890625 418.578125 510.820312 C 420.160156 513.734375 423.722656 514.933594 426.738281 513.570312 C 428.03125 512.988281 429.363281 512.695312 430.707031 512.695312 C 436.074219 512.695312 440.441406 517.0625 440.441406 522.425781 C 440.441406 523.085938 440.371094 523.757812 440.230469 524.425781 C 439.582031 527.527344 441.328125 530.628906 444.320312 531.683594 C 449.726562 533.59375 453.359375 538.714844 453.359375 544.429688 C 453.359375 547.097656 452.578125 549.691406 451.09375 551.917969 C 449.464844 554.367188 449.742188 557.617188 451.761719 559.757812 C 453.480469 561.578125 454.425781 563.945312 454.425781 566.425781 C 454.425781 571.792969 450.058594 576.160156 444.691406 576.160156 C 439.324219 576.160156 434.957031 571.792969 434.957031 566.425781 C 434.957031 565.703125 435.050781 564.949219 435.230469 564.183594 C 435.785156 561.832031 434.949219 559.367188 433.074219 557.835938 C 431.925781 556.894531 430.503906 556.410156 429.070312 556.410156 C 428.175781 556.410156 427.269531 556.601562 426.425781 556.988281 C 425.023438 557.636719 423.546875 557.960938 422.035156 557.960938 C 416.214844 557.960938 411.480469 553.230469 411.480469 547.410156 C 411.480469 543.917969 408.644531 541.085938 405.152344 541.085938 C 401.65625 541.085938 398.824219 543.917969 398.824219 547.410156 C 398.824219 553.230469 394.089844 557.960938 388.269531 557.960938 C 386.753906 557.960938 385.273438 557.636719 383.875 556.992188 C 381.675781 555.976562 379.097656 556.308594 377.222656 557.839844 C 375.351562 559.367188 374.511719 561.832031 375.070312 564.1875 C 375.253906 564.972656 375.34375 565.703125 375.34375 566.425781 C 375.34375 571.796875 370.976562 576.160156 365.609375 576.160156 C 360.242188 576.160156 355.875 571.796875 355.875 566.425781 C 355.875 563.949219 356.820312 561.582031 358.535156 559.761719 C 360.558594 557.621094 360.835938 554.363281 359.199219 551.910156 Z M 405.152344 623.019531 C 390.089844 623.019531 372.136719 617 372.136719 588.328125 C 372.136719 588.15625 372.144531 587.988281 372.148438 587.820312 C 380.011719 585.414062 386.054688 578.800781 387.609375 570.605469 C 387.828125 570.609375 388.046875 570.613281 388.269531 570.613281 C 394.914062 570.613281 400.917969 567.808594 405.152344 563.320312 C 409.386719 567.804688 415.390625 570.613281 422.035156 570.613281 C 422.253906 570.613281 422.476562 570.609375 422.695312 570.605469 C 424.246094 578.800781 430.292969 585.410156 438.152344 587.816406 C 438.15625 587.988281 438.164062 588.15625 438.164062 588.328125 C 438.164062 617 420.210938 623.019531 405.152344 623.019531 Z M 405.152344 623.019531 "/><path style=" stroke:none;fill-rule:nonzero;fill:#000000;fill-opacity:1;" d="M 76.527344 628.039062 L 98.046875 628.039062 C 99.664062 628.039062 101.121094 627.417969 102.238281 626.421875 C 109.816406 632.429688 119.917969 635.667969 132.132812 635.667969 C 144.347656 635.667969 154.449219 632.429688 162.027344 626.421875 C 163.144531 627.417969 164.605469 628.039062 166.21875 628.039062 L 187.742188 628.039062 C 190.949219 628.039062 193.648438 625.640625 194.027344 622.453125 C 194.371094 619.523438 202.136719 550.347656 172.539062 517.074219 C 162.183594 505.429688 148.589844 499.527344 132.132812 499.527344 C 115.675781 499.527344 102.082031 505.429688 91.726562 517.074219 C 62.128906 550.347656 69.894531 619.527344 70.242188 622.457031 C 70.617188 625.640625 73.316406 628.039062 76.527344 628.039062 Z M 132.132812 512.179688 C 144.992188 512.179688 155.109375 516.527344 163.070312 525.464844 C 184.464844 549.5 183.085938 598.792969 181.9375 615.386719 L 172.460938 615.386719 C 171.386719 578.308594 161.152344 559.257812 160.691406 558.425781 C 159.582031 556.402344 157.453125 555.144531 155.144531 555.144531 L 109.125 555.144531 C 106.816406 555.144531 104.691406 556.402344 103.578125 558.425781 C 103.121094 559.257812 92.886719 578.308594 91.8125 615.386719 L 82.328125 615.386719 C 81.167969 598.808594 79.765625 549.558594 101.1875 525.476562 C 109.148438 516.527344 119.269531 512.179688 132.132812 512.179688 Z M 104.691406 610.613281 C 105.945312 588.207031 110.738281 573.835938 113.199219 567.796875 L 151.070312 567.796875 C 153.539062 573.851562 158.324219 588.21875 159.582031 610.609375 C 153.089844 620.433594 141.992188 623.015625 132.132812 623.015625 C 122.277344 623.019531 111.183594 620.4375 104.691406 610.613281 Z M 104.691406 610.613281 "/><g clip-rule="nonzero" clip-path="url(#b9bc5cc196)"><path style=" stroke:none;fill-rule:nonzero;fill:#000000;fill-opacity:1;" d="M 25.3125 775.066406 C 56.464844 797.917969 93.402344 810 132.132812 810 C 170.867188 810 207.804688 797.917969 238.953125 775.066406 C 241.03125 773.542969 241.976562 770.910156 241.34375 768.410156 L 218.855469 679.839844 C 212.511719 654.835938 186.351562 634.492188 160.542969 634.492188 L 160.328125 634.492188 C 157.371094 634.492188 154.800781 636.582031 154.148438 639.464844 C 153.746094 641.230469 149.730469 656.726562 132.136719 656.726562 C 114.5 656.726562 110.527344 641.246094 110.140625 639.519531 C 109.523438 636.589844 106.941406 634.492188 103.949219 634.492188 L 103.730469 634.492188 C 77.921875 634.492188 51.761719 654.835938 45.414062 679.839844 L 22.929688 768.410156 C 22.289062 770.910156 23.238281 773.542969 25.3125 775.066406 Z M 196.945312 784.394531 L 185.429688 710.011719 C 184.894531 706.558594 181.65625 704.195312 178.207031 704.726562 C 174.753906 705.261719 172.386719 708.496094 172.921875 711.949219 L 184.835938 788.917969 C 169.972656 793.820312 154.410156 796.644531 138.464844 797.230469 L 138.464844 692.785156 C 149.449219 686.050781 164.3125 670.976562 166.398438 647.632812 C 184.519531 650.398438 202.144531 665.429688 206.589844 682.953125 L 228.011719 767.335938 C 218.195312 774.167969 207.789062 779.851562 196.945312 784.394531 Z M 132.132812 681.816406 C 127.410156 678.851562 121.488281 673.628906 117 666.226562 C 121.230469 668.171875 126.246094 669.378906 132.132812 669.378906 C 138.027344 669.378906 143.042969 668.167969 147.28125 666.210938 C 142.789062 673.625 136.859375 678.851562 132.132812 681.816406 Z M 97.871094 647.632812 C 99.953125 670.976562 114.816406 686.050781 125.804688 692.78125 L 125.804688 797.226562 C 109.863281 796.644531 94.300781 793.820312 79.429688 788.917969 L 91.351562 711.945312 C 91.886719 708.492188 89.519531 705.261719 86.066406 704.726562 C 82.59375 704.199219 79.375 706.558594 78.84375 710.011719 L 67.324219 784.390625 C 56.480469 779.851562 46.070312 774.167969 36.253906 767.335938 L 57.679688 682.949219 C 62.128906 665.429688 79.746094 650.402344 97.871094 647.632812 Z M 97.871094 647.632812 "/></g><path style=" stroke:none;fill-rule:nonzero;fill:#000000;fill-opacity:1;" d="M 571.34375 775.066406 C 602.492188 797.917969 639.429688 810 678.164062 810 C 716.894531 810 753.835938 797.921875 784.984375 775.066406 C 787.0625 773.542969 788.007812 770.910156 787.375 768.414062 L 764.886719 679.839844 C 758.546875 654.855469 732.414062 634.523438 706.625 634.496094 L 698.476562 631.425781 C 713.820312 624.519531 722.503906 609.464844 722.503906 588.328125 C 722.503906 588.042969 722.488281 587.757812 722.488281 587.472656 C 731.683594 583.105469 736.457031 568.910156 736.453125 554.847656 C 736.449219 532.199219 723.945312 509.34375 696.023438 509.34375 C 693.871094 509.34375 691.625 509.480469 689.347656 509.75 C 685.585938 510.199219 681.722656 510.425781 677.859375 510.425781 C 663.71875 510.425781 654.644531 507.417969 652.558594 505.667969 C 652.113281 503.777344 650.8125 502.175781 649.003906 501.359375 C 646.882812 500.40625 644.414062 500.6875 642.570312 502.09375 C 635.050781 507.8125 631.121094 517.589844 631.714844 527.710938 C 620.664062 536.464844 618.164062 557.285156 620.949219 570.769531 C 623.027344 580.8125 627.3125 585.324219 631.183594 587.3125 C 631.179688 587.648438 631.164062 587.992188 631.164062 588.332031 C 631.164062 610.03125 640.324219 625.320312 656.441406 631.960938 L 649.707031 634.496094 C 623.914062 634.523438 597.785156 654.855469 591.441406 679.84375 L 568.953125 768.414062 C 568.320312 770.910156 569.265625 773.542969 571.34375 775.066406 Z M 658.082031 644.859375 L 660.179688 644.070312 L 668.746094 651.332031 L 660.808594 659.011719 Z M 687.585938 651.332031 L 696.152344 644.070312 L 698.246094 644.859375 L 695.519531 659.015625 Z M 645.679688 647.375 L 650.589844 672.886719 C 651.03125 675.167969 652.683594 677.023438 654.902344 677.722656 C 655.527344 677.921875 656.167969 678.015625 656.804688 678.015625 C 658.421875 678.015625 660.007812 677.394531 661.207031 676.234375 L 678.164062 659.828125 L 695.121094 676.234375 C 696.320312 677.394531 697.90625 678.015625 699.523438 678.015625 C 700.160156 678.015625 700.804688 677.921875 701.429688 677.722656 C 703.644531 677.023438 705.296875 675.167969 705.738281 672.886719 L 710.652344 647.375 C 729.386719 649.386719 748.027344 664.859375 752.617188 682.953125 L 774.042969 767.339844 C 764.230469 774.171875 753.820312 779.851562 742.972656 784.394531 L 731.457031 710.015625 C 730.921875 706.5625 727.699219 704.199219 724.234375 704.730469 C 720.78125 705.265625 718.414062 708.5 718.949219 711.949219 L 730.867188 788.921875 C 714.039062 794.46875 696.320312 797.351562 678.164062 797.351562 C 660.011719 797.351562 642.292969 794.472656 625.460938 788.921875 L 637.378906 711.949219 C 637.914062 708.5 635.546875 705.265625 632.09375 704.730469 C 628.632812 704.203125 625.40625 706.5625 624.871094 710.015625 L 613.355469 784.394531 C 602.511719 779.851562 592.097656 774.171875 582.285156 767.335938 L 603.707031 682.953125 C 608.300781 664.855469 626.941406 649.386719 645.679688 647.375 Z M 633.34375 568.207031 C 631.496094 559.273438 632.820312 548.863281 635.964844 542.433594 C 638.71875 547.445312 642.65625 551.628906 647.53125 554.890625 C 643.414062 559.402344 641.765625 565.246094 640.601562 569.457031 C 638.816406 575.890625 638.296875 576.160156 637.289062 576.160156 C 636.511719 576.160156 634.492188 573.757812 633.34375 568.207031 Z M 677.863281 523.078125 C 682.21875 523.078125 686.585938 522.820312 690.84375 522.3125 C 692.628906 522.101562 694.371094 521.992188 696.023438 521.992188 C 722.449219 521.992188 723.796875 549.363281 723.796875 554.851562 C 723.796875 565.386719 720.566406 572.636719 718.101562 575.179688 C 718.082031 575.113281 718.0625 575.046875 718.042969 574.984375 C 715.640625 566.941406 710.644531 550.210938 676.832031 550.210938 C 660.644531 550.210938 649.199219 543.808594 645.433594 532.640625 C 643.578125 527.140625 644.050781 521.210938 646.40625 516.761719 C 655.960938 522.679688 673.40625 523.078125 677.863281 523.078125 Z M 643.835938 587.347656 C 649.566406 584.421875 651.449219 577.6875 652.796875 572.835938 C 654.871094 565.355469 656.328125 561.988281 661.578125 561.042969 C 666.261719 562.234375 671.371094 562.863281 676.832031 562.863281 C 701.214844 562.863281 703.824219 571.589844 705.917969 578.601562 C 706.597656 580.875 707.570312 584.117188 709.8125 586.335938 C 709.828125 587 709.847656 587.664062 709.847656 588.328125 C 709.847656 617 691.894531 623.019531 676.835938 623.019531 C 661.777344 623.019531 643.820312 617 643.820312 588.328125 C 643.820312 588 643.835938 587.671875 643.835938 587.347656 Z M 676.835938 635.671875 C 680.628906 635.671875 684.210938 635.351562 687.589844 634.742188 L 678.164062 642.730469 L 669.324219 635.230469 C 671.730469 635.519531 674.234375 635.671875 676.835938 635.671875 Z M 676.835938 635.671875 "/><path style=" stroke:none;fill-rule:nonzero;fill:#000000;fill-opacity:1;" d="M 406.332031 295.453125 C 394.472656 295.453125 384.820312 305.097656 384.820312 316.953125 L 384.820312 378.277344 L 367.078125 378.277344 C 364.789062 378.277344 362.679688 379.511719 361.558594 381.507812 C 360.441406 383.507812 360.488281 385.953125 361.683594 387.90625 L 400.9375 451.941406 C 402.089844 453.816406 404.132812 454.960938 406.332031 454.960938 C 408.535156 454.960938 410.578125 453.816406 411.730469 451.941406 L 450.980469 387.90625 C 452.179688 385.953125 452.226562 383.507812 451.105469 381.507812 C 449.988281 379.511719 447.875 378.277344 445.585938 378.277344 L 427.839844 378.277344 L 427.839844 316.953125 C 427.839844 305.097656 418.191406 295.453125 406.332031 295.453125 Z M 406.332031 436.53125 L 378.378906 390.925781 L 391.148438 390.925781 C 394.644531 390.925781 397.476562 388.09375 397.476562 384.601562 L 397.476562 316.953125 C 397.476562 312.074219 401.449219 308.105469 406.332031 308.105469 C 411.210938 308.105469 415.183594 312.074219 415.183594 316.953125 L 415.183594 384.601562 C 415.183594 388.09375 418.015625 390.925781 421.511719 390.925781 L 434.285156 390.925781 Z M 406.332031 436.53125 "/><path style=" stroke:none;fill-rule:nonzero;fill:#000000;fill-opacity:1;" d="M 480.105469 291.007812 C 474.359375 291.007812 468.957031 293.246094 464.898438 297.304688 C 460.835938 301.363281 458.597656 306.765625 458.597656 312.507812 C 458.597656 318.25 460.835938 323.652344 464.898438 327.710938 L 508.277344 371.074219 L 495.730469 383.613281 C 494.113281 385.234375 493.492188 387.601562 494.113281 389.804688 C 494.738281 392.007812 496.5 393.703125 498.726562 394.238281 L 571.78125 411.773438 C 572.273438 411.890625 572.765625 411.945312 573.257812 411.945312 C 573.273438 411.945312 573.285156 411.945312 573.296875 411.945312 C 576.789062 411.945312 579.617188 409.113281 579.617188 405.621094 C 579.617188 404.886719 579.496094 404.183594 579.261719 403.527344 L 561.867188 331.121094 C 561.328125 328.894531 559.632812 327.132812 557.429688 326.507812 C 555.230469 325.890625 552.855469 326.507812 551.234375 328.125 L 538.691406 340.667969 L 495.3125 297.308594 C 491.25 293.246094 485.851562 291.007812 480.105469 291.007812 Z M 552.199219 345.058594 L 564.691406 397.0625 L 512.667969 384.574219 L 521.699219 375.546875 C 524.167969 373.078125 524.167969 369.070312 521.695312 366.601562 L 473.84375 318.765625 C 472.171875 317.09375 471.25 314.875 471.25 312.511719 C 471.25 310.148438 472.171875 307.921875 473.84375 306.25 C 475.519531 304.582031 477.738281 303.660156 480.101562 303.660156 C 482.46875 303.660156 484.691406 304.582031 486.363281 306.253906 L 534.21875 354.089844 C 535.402344 355.277344 537.015625 355.941406 538.691406 355.941406 C 540.371094 355.941406 541.980469 355.277344 543.167969 354.089844 Z M 552.199219 345.058594 "/><path style=" stroke:none;fill-rule:nonzero;fill:#000000;fill-opacity:1;" d="M 239.40625 411.949219 C 239.898438 411.949219 240.394531 411.890625 240.882812 411.773438 L 313.9375 394.238281 C 316.167969 393.707031 317.929688 392.007812 318.550781 389.804688 C 319.175781 387.601562 318.558594 385.234375 316.9375 383.617188 L 304.390625 371.074219 L 347.769531 327.714844 C 356.15625 319.332031 356.15625 305.691406 347.769531 297.304688 C 343.707031 293.246094 338.308594 291.007812 332.5625 291.007812 C 326.816406 291.007812 321.417969 293.246094 317.355469 297.308594 L 273.976562 340.667969 L 261.425781 328.128906 C 259.808594 326.507812 257.4375 325.894531 255.234375 326.511719 C 253.03125 327.132812 251.335938 328.894531 250.800781 331.121094 L 233.253906 404.144531 C 232.738281 406.285156 233.375 408.539062 234.933594 410.09375 C 236.132812 411.296875 237.75 411.949219 239.40625 411.949219 Z M 269.5 354.089844 C 270.6875 355.273438 272.296875 355.941406 273.972656 355.941406 C 275.648438 355.941406 277.261719 355.277344 278.449219 354.089844 L 326.300781 306.253906 C 327.976562 304.582031 330.199219 303.660156 332.5625 303.660156 C 334.925781 303.660156 337.148438 304.582031 338.816406 306.25 C 342.273438 309.703125 342.273438 315.316406 338.820312 318.769531 L 290.96875 366.601562 C 288.496094 369.074219 288.496094 373.078125 290.96875 375.550781 L 299.996094 384.574219 L 247.972656 397.0625 L 260.464844 345.0625 Z M 269.5 354.089844 "/><path style=" stroke:none;fill-rule:nonzero;fill:#000000;fill-opacity:1;" d="M 282.4375 219.105469 L 401.984375 288.097656 C 402.175781 288.207031 402.375 288.296875 402.574219 288.386719 C 402.621094 288.410156 402.667969 288.4375 402.71875 288.460938 C 403.050781 288.597656 403.398438 288.699219 403.746094 288.777344 C 403.839844 288.800781 403.933594 288.816406 404.027344 288.835938 C 404.398438 288.902344 404.773438 288.949219 405.148438 288.949219 C 405.527344 288.949219 405.902344 288.902344 406.273438 288.835938 C 406.367188 288.816406 406.460938 288.800781 406.554688 288.777344 C 406.902344 288.699219 407.246094 288.597656 407.582031 288.460938 C 407.628906 288.4375 407.679688 288.410156 407.730469 288.386719 C 407.925781 288.296875 408.125 288.207031 408.3125 288.097656 L 527.863281 219.105469 C 529.820312 217.976562 531.027344 215.886719 531.027344 213.625 L 531.027344 75.636719 C 531.027344 75.414062 531.003906 75.195312 530.984375 74.976562 C 530.976562 74.925781 530.980469 74.875 530.972656 74.828125 C 530.925781 74.464844 530.839844 74.117188 530.734375 73.773438 C 530.707031 73.683594 530.675781 73.597656 530.644531 73.507812 C 530.386719 72.796875 530.007812 72.136719 529.519531 71.5625 C 529.457031 71.488281 529.394531 71.414062 529.332031 71.34375 C 529.085938 71.082031 528.828125 70.835938 528.542969 70.613281 C 528.5 70.582031 528.453125 70.554688 528.410156 70.523438 C 528.230469 70.398438 528.054688 70.269531 527.863281 70.160156 L 408.3125 1.164062 C 406.355469 0.0351562 403.945312 0.0351562 401.984375 1.164062 L 282.4375 70.160156 C 282.246094 70.269531 282.070312 70.398438 281.890625 70.523438 C 281.847656 70.554688 281.800781 70.582031 281.757812 70.613281 C 281.46875 70.832031 281.210938 71.078125 280.96875 71.34375 C 280.902344 71.410156 280.84375 71.484375 280.777344 71.5625 C 280.289062 72.136719 279.914062 72.796875 279.65625 73.503906 C 279.625 73.59375 279.59375 73.679688 279.566406 73.769531 C 279.457031 74.113281 279.371094 74.464844 279.328125 74.828125 C 279.320312 74.875 279.320312 74.921875 279.316406 74.972656 C 279.292969 75.191406 279.273438 75.414062 279.273438 75.636719 L 279.273438 213.625 C 279.273438 215.886719 280.480469 217.972656 282.4375 219.105469 Z M 291.929688 86.59375 L 325.523438 105.980469 L 325.523438 138.382812 C 325.523438 140.644531 326.730469 142.734375 328.6875 143.863281 L 358.097656 160.835938 C 359.078125 161.402344 360.171875 161.683594 361.261719 161.683594 C 362.355469 161.683594 363.449219 161.402344 364.425781 160.835938 C 366.382812 159.707031 367.589844 157.617188 367.589844 155.359375 L 367.589844 130.257812 L 398.820312 148.28125 L 398.820312 271.664062 L 291.929688 209.976562 Z M 468.15625 50.308594 L 358.097656 113.824219 C 358.039062 113.859375 357.992188 113.90625 357.933594 113.945312 C 357.816406 114.015625 357.699219 114.089844 357.585938 114.171875 C 357.476562 114.25 357.371094 114.335938 357.265625 114.425781 C 357.148438 114.519531 357.035156 114.613281 356.929688 114.714844 C 356.835938 114.800781 356.75 114.886719 356.664062 114.980469 C 356.570312 115.078125 356.488281 115.179688 356.402344 115.285156 C 356.304688 115.398438 356.210938 115.515625 356.121094 115.636719 C 356.039062 115.75 355.96875 115.867188 355.894531 115.988281 C 355.863281 116.042969 355.816406 116.085938 355.785156 116.140625 C 355.753906 116.199219 355.738281 116.257812 355.703125 116.316406 C 355.640625 116.4375 355.574219 116.558594 355.515625 116.683594 C 355.453125 116.820312 355.402344 116.964844 355.347656 117.109375 C 355.304688 117.234375 355.257812 117.355469 355.21875 117.484375 C 355.183594 117.601562 355.148438 117.722656 355.121094 117.84375 C 355.085938 117.988281 355.0625 118.136719 355.039062 118.285156 C 355.011719 118.417969 354.992188 118.550781 354.980469 118.6875 C 354.964844 118.824219 354.960938 118.957031 354.953125 119.09375 C 354.953125 119.164062 354.933594 119.230469 354.933594 119.304688 L 354.933594 144.40625 L 338.175781 134.734375 L 338.175781 105.980469 L 451.398438 40.640625 Z M 512.042969 75.636719 L 405.148438 137.328125 L 373.917969 119.304688 L 480.8125 57.613281 Z M 411.476562 271.664062 L 411.476562 148.28125 L 518.371094 86.59375 L 518.371094 209.972656 Z M 331.855469 95.023438 L 298.257812 75.636719 L 405.148438 13.945312 L 438.742188 33.335938 Z M 331.855469 95.023438 "/></g></svg>