<svg xmlns="http://www.w3.org/2000/svg" xmlns:xlink="http://www.w3.org/1999/xlink" width="1080" zoomAndPan="magnify" viewBox="0 0 810 809.999993" height="1080" preserveAspectRatio="xMidYMid meet" version="1.2"><defs><clipPath id="322fb0208e"><path d="M 9.113281 0 L 421 0 L 421 733 L 9.113281 733 Z M 9.113281 0 "/></clipPath></defs><g id="983ddfde7b"><path style=" stroke:none;fill-rule:nonzero;fill:#579dc4;fill-opacity:1;" d="M 668.636719 407.042969 C 670.835938 356.078125 645.898438 295.941406 645.898438 295.941406 C 645.898438 295.941406 663.136719 256.339844 645.898438 238.285156 C 628.660156 220.222656 536.535156 218.917969 496.984375 222.980469 C 457.429688 227.042969 464.707031 268.078125 464.707031 268.078125 L 491.851562 328.488281 L 547.980469 508.25 C 547.980469 508.25 651.402344 522.183594 672.308594 495.050781 C 693.21875 467.914062 666.4375 458.015625 668.640625 407.050781 Z M 668.636719 407.042969 "/><g clip-rule="nonzero" clip-path="url(#322fb0208e)"><path style=" stroke:none;fill-rule:nonzero;fill:#d7e0e2;fill-opacity:1;" d="M 376.828125 732.890625 L 53.144531 732.890625 C 28.96875 732.890625 9.304688 713.234375 9.304688 689.066406 L 9.304688 43.832031 C 9.304688 19.664062 28.96875 0.00390625 53.144531 0.00390625 L 376.828125 0.00390625 C 401 0.00390625 420.667969 19.664062 420.667969 43.832031 L 420.667969 689.066406 C 420.667969 713.234375 401 732.890625 376.828125 732.890625 Z M 53.144531 8.496094 C 33.65625 8.496094 17.800781 24.347656 17.800781 43.832031 L 17.800781 689.066406 C 17.800781 708.546875 33.65625 724.398438 53.144531 724.398438 L 376.828125 724.398438 C 396.316406 724.398438 412.171875 708.550781 412.171875 689.066406 L 412.171875 43.832031 C 412.171875 24.347656 396.316406 8.496094 376.828125 8.496094 Z M 53.144531 8.496094 "/></g><path style=" stroke:none;fill-rule:nonzero;fill:#d7e0e2;fill-opacity:1;" d="M 63.539062 40.738281 L 366.4375 40.738281 C 367.308594 40.738281 368.179688 40.777344 369.046875 40.863281 C 369.917969 40.949219 370.78125 41.078125 371.636719 41.25 C 372.492188 41.417969 373.335938 41.628906 374.171875 41.882812 C 375.007812 42.136719 375.828125 42.429688 376.632812 42.765625 C 377.441406 43.097656 378.226562 43.46875 379 43.882812 C 379.769531 44.292969 380.515625 44.742188 381.242188 45.226562 C 381.96875 45.710938 382.667969 46.230469 383.339844 46.785156 C 384.015625 47.335938 384.664062 47.921875 385.28125 48.539062 C 385.894531 49.15625 386.480469 49.800781 387.035156 50.476562 C 387.589844 51.152344 388.109375 51.851562 388.59375 52.574219 C 389.078125 53.300781 389.527344 54.046875 389.9375 54.816406 C 390.347656 55.585938 390.722656 56.375 391.054688 57.179688 C 391.390625 57.988281 391.683594 58.808594 391.9375 59.644531 C 392.191406 60.476562 392.402344 61.324219 392.570312 62.179688 C 392.742188 63.035156 392.871094 63.898438 392.957031 64.765625 C 393.042969 65.632812 393.085938 66.503906 393.085938 67.375 L 393.085938 665.523438 C 393.085938 666.394531 393.042969 667.265625 392.957031 668.132812 C 392.871094 669 392.742188 669.863281 392.570312 670.71875 C 392.402344 671.574219 392.191406 672.421875 391.9375 673.253906 C 391.683594 674.089844 391.390625 674.910156 391.054688 675.714844 C 390.722656 676.523438 390.347656 677.308594 389.9375 678.078125 C 389.527344 678.847656 389.078125 679.597656 388.59375 680.320312 C 388.109375 681.046875 387.589844 681.746094 387.035156 682.421875 C 386.480469 683.097656 385.894531 683.742188 385.28125 684.359375 C 384.664062 684.976562 384.015625 685.5625 383.339844 686.113281 C 382.667969 686.667969 381.96875 687.1875 381.242188 687.671875 C 380.515625 688.15625 379.769531 688.605469 379 689.015625 C 378.226562 689.425781 377.441406 689.800781 376.632812 690.132812 C 375.828125 690.46875 375.007812 690.761719 374.171875 691.015625 C 373.335938 691.269531 372.492188 691.480469 371.636719 691.648438 C 370.78125 691.820312 369.917969 691.949219 369.046875 692.03125 C 368.179688 692.117188 367.308594 692.160156 366.4375 692.160156 L 63.539062 692.160156 C 62.664062 692.160156 61.792969 692.117188 60.925781 692.03125 C 60.058594 691.949219 59.195312 691.820312 58.339844 691.648438 C 57.484375 691.480469 56.636719 691.269531 55.800781 691.015625 C 54.96875 690.761719 54.144531 690.46875 53.339844 690.132812 C 52.535156 689.800781 51.746094 689.425781 50.976562 689.015625 C 50.207031 688.605469 49.457031 688.15625 48.734375 687.671875 C 48.007812 687.1875 47.308594 686.667969 46.632812 686.113281 C 45.957031 685.5625 45.3125 684.976562 44.695312 684.359375 C 44.078125 683.742188 43.492188 683.097656 42.9375 682.421875 C 42.386719 681.746094 41.867188 681.046875 41.382812 680.320312 C 40.894531 679.597656 40.449219 678.847656 40.035156 678.078125 C 39.625 677.308594 39.253906 676.523438 38.917969 675.714844 C 38.585938 674.910156 38.289062 674.089844 38.039062 673.253906 C 37.785156 672.421875 37.574219 671.574219 37.402344 670.71875 C 37.230469 669.863281 37.105469 669 37.019531 668.132812 C 36.933594 667.265625 36.890625 666.394531 36.890625 665.523438 L 36.890625 67.375 C 36.890625 66.503906 36.933594 65.632812 37.019531 64.765625 C 37.105469 63.898438 37.230469 63.035156 37.402344 62.179688 C 37.574219 61.324219 37.785156 60.476562 38.039062 59.644531 C 38.289062 58.808594 38.585938 57.988281 38.917969 57.179688 C 39.253906 56.375 39.625 55.585938 40.035156 54.816406 C 40.449219 54.046875 40.894531 53.300781 41.382812 52.574219 C 41.867188 51.851562 42.386719 51.152344 42.9375 50.476562 C 43.492188 49.800781 44.078125 49.15625 44.695312 48.539062 C 45.3125 47.921875 45.957031 47.335938 46.632812 46.785156 C 47.308594 46.230469 48.007812 45.710938 48.734375 45.226562 C 49.457031 44.742188 50.207031 44.292969 50.976562 43.882812 C 51.746094 43.46875 52.535156 43.097656 53.339844 42.765625 C 54.144531 42.429688 54.96875 42.136719 55.800781 41.882812 C 56.636719 41.628906 57.484375 41.417969 58.339844 41.25 C 59.195312 41.078125 60.058594 40.949219 60.925781 40.863281 C 61.792969 40.777344 62.664062 40.738281 63.539062 40.738281 Z M 63.539062 40.738281 "/><path style=" stroke:none;fill-rule:nonzero;fill:#ffffff;fill-opacity:1;" d="M 70.289062 197.503906 L 359.683594 197.503906 C 360.671875 197.503906 361.652344 197.601562 362.625 197.792969 C 363.59375 197.988281 364.535156 198.273438 365.449219 198.652344 C 366.363281 199.03125 367.234375 199.496094 368.054688 200.042969 C 368.878906 200.59375 369.640625 201.21875 370.339844 201.917969 C 371.039062 202.617188 371.664062 203.378906 372.214844 204.199219 C 372.761719 205.023438 373.226562 205.890625 373.605469 206.804688 C 373.984375 207.71875 374.269531 208.660156 374.464844 209.632812 C 374.65625 210.601562 374.753906 211.582031 374.753906 212.570312 L 374.753906 644.800781 C 374.753906 645.789062 374.65625 646.769531 374.464844 647.742188 C 374.269531 648.710938 373.984375 649.652344 373.605469 650.566406 C 373.226562 651.480469 372.761719 652.347656 372.214844 653.171875 C 371.664062 653.992188 371.039062 654.753906 370.339844 655.453125 C 369.640625 656.152344 368.878906 656.777344 368.054688 657.328125 C 367.234375 657.875 366.363281 658.339844 365.449219 658.71875 C 364.535156 659.097656 363.59375 659.382812 362.625 659.578125 C 361.652344 659.769531 360.671875 659.867188 359.683594 659.867188 L 70.289062 659.867188 C 69.300781 659.867188 68.320312 659.769531 67.351562 659.578125 C 66.378906 659.382812 65.4375 659.097656 64.523438 658.71875 C 63.609375 658.339844 62.742188 657.875 61.917969 657.328125 C 61.097656 656.777344 60.335938 656.152344 59.636719 655.453125 C 58.933594 654.753906 58.3125 653.992188 57.761719 653.171875 C 57.210938 652.347656 56.746094 651.480469 56.367188 650.566406 C 55.988281 649.652344 55.703125 648.710938 55.511719 647.742188 C 55.316406 646.769531 55.222656 645.789062 55.222656 644.800781 L 55.222656 212.570312 C 55.222656 211.582031 55.316406 210.601562 55.511719 209.632812 C 55.703125 208.660156 55.988281 207.71875 56.367188 206.804688 C 56.746094 205.890625 57.210938 205.023438 57.761719 204.199219 C 58.3125 203.378906 58.933594 202.617188 59.636719 201.917969 C 60.335938 201.21875 61.097656 200.59375 61.917969 200.042969 C 62.742188 199.496094 63.609375 199.03125 64.523438 198.652344 C 65.4375 198.273438 66.378906 197.988281 67.351562 197.792969 C 68.320312 197.601562 69.300781 197.503906 70.289062 197.503906 Z M 70.289062 197.503906 "/><path style=" stroke:none;fill-rule:nonzero;fill:#ffffff;fill-opacity:1;" d="M 77.183594 126.707031 C 75.09375 123.09375 76.246094 118.476562 79.789062 116.273438 L 153.722656 70.242188 C 159.414062 65.882812 167.289062 67.816406 170.109375 72.902344 C 172.863281 77.875 170.507812 85.382812 164.039062 88.058594 C 138.308594 101.855469 112.582031 115.65625 86.851562 129.453125 C 83.414062 131.296875 79.136719 130.082031 77.183594 126.707031 Z M 77.183594 126.707031 "/><path style=" stroke:none;fill-rule:nonzero;fill:#ffffff;fill-opacity:1;" d="M 123.339844 155.046875 L 114.6875 102.121094 L 139.886719 98.007812 C 138.671875 116.316406 137.453125 134.628906 136.238281 152.9375 C 131.9375 153.636719 127.640625 154.339844 123.339844 155.042969 Z M 123.339844 155.046875 "/><path style=" stroke:none;fill-rule:nonzero;fill:#ffffff;fill-opacity:1;" d="M 144.507812 112.652344 L 144.78125 113.121094 C 144.992188 113.492188 145.128906 113.886719 145.183594 114.308594 C 145.238281 114.734375 145.214844 115.148438 145.101562 115.5625 C 144.992188 115.972656 144.808594 116.347656 144.550781 116.6875 C 144.289062 117.027344 143.976562 117.300781 143.605469 117.515625 L 135.757812 122.054688 C 135.390625 122.269531 134.996094 122.40625 134.570312 122.460938 C 134.148438 122.515625 133.730469 122.488281 133.320312 122.378906 C 132.90625 122.269531 132.53125 122.085938 132.191406 121.828125 C 131.855469 121.566406 131.578125 121.253906 131.363281 120.882812 L 131.09375 120.414062 C 130.878906 120.046875 130.746094 119.652344 130.6875 119.226562 C 130.632812 118.804688 130.660156 118.386719 130.769531 117.976562 C 130.878906 117.5625 131.0625 117.1875 131.324219 116.851562 C 131.582031 116.511719 131.898438 116.234375 132.265625 116.023438 L 140.113281 111.480469 C 140.480469 111.269531 140.878906 111.132812 141.300781 111.078125 C 141.722656 111.019531 142.140625 111.046875 142.554688 111.15625 C 142.964844 111.269531 143.339844 111.453125 143.679688 111.710938 C 144.019531 111.972656 144.292969 112.285156 144.507812 112.652344 Z M 144.507812 112.652344 "/><path style=" stroke:none;fill-rule:nonzero;fill:#ffffff;fill-opacity:1;" d="M 145 128.972656 L 145.269531 129.4375 C 145.484375 129.808594 145.617188 130.203125 145.675781 130.625 C 145.730469 131.050781 145.703125 131.46875 145.59375 131.878906 C 145.484375 132.289062 145.300781 132.667969 145.039062 133.003906 C 144.78125 133.34375 144.46875 133.621094 144.097656 133.832031 L 136.25 138.375 C 135.882812 138.585938 135.484375 138.722656 135.0625 138.777344 C 134.640625 138.832031 134.222656 138.808594 133.808594 138.695312 C 133.398438 138.585938 133.023438 138.402344 132.683594 138.144531 C 132.34375 137.882812 132.070312 137.570312 131.855469 137.199219 L 131.585938 136.734375 C 131.371094 136.363281 131.234375 135.96875 131.179688 135.546875 C 131.125 135.121094 131.152344 134.703125 131.261719 134.292969 C 131.371094 133.882812 131.554688 133.503906 131.816406 133.167969 C 132.074219 132.828125 132.386719 132.550781 132.757812 132.339844 L 140.605469 127.796875 C 140.972656 127.585938 141.371094 127.449219 141.792969 127.394531 C 142.214844 127.339844 142.632812 127.363281 143.042969 127.476562 C 143.457031 127.585938 143.832031 127.769531 144.171875 128.027344 C 144.507812 128.289062 144.785156 128.601562 145 128.972656 Z M 145 128.972656 "/><path style=" stroke:none;fill-rule:nonzero;fill:#ffffff;fill-opacity:1;" d="M 75.785156 72.910156 L 117.382812 106.769531 L 133.5 86.976562 C 117.015625 78.90625 100.527344 70.84375 84.039062 62.777344 C 81.289062 66.152344 78.539062 69.53125 75.785156 72.910156 Z M 75.785156 72.910156 "/><path style=" stroke:none;fill-rule:nonzero;fill:#ffffff;fill-opacity:1;" d="M 109.695312 83.429688 L 109.425781 82.960938 C 109.210938 82.59375 109.078125 82.195312 109.019531 81.773438 C 108.964844 81.351562 108.992188 80.933594 109.101562 80.523438 C 109.210938 80.109375 109.394531 79.734375 109.65625 79.394531 C 109.914062 79.058594 110.226562 78.78125 110.597656 78.566406 L 118.445312 74.027344 C 118.8125 73.8125 119.210938 73.679688 119.632812 73.621094 C 120.054688 73.566406 120.472656 73.59375 120.886719 73.703125 C 121.296875 73.8125 121.671875 74 122.011719 74.257812 C 122.351562 74.515625 122.625 74.832031 122.839844 75.199219 L 123.109375 75.667969 C 123.324219 76.035156 123.460938 76.433594 123.515625 76.855469 C 123.570312 77.277344 123.542969 77.695312 123.433594 78.109375 C 123.324219 78.519531 123.140625 78.894531 122.878906 79.234375 C 122.621094 79.570312 122.308594 79.847656 121.9375 80.0625 L 114.089844 84.601562 C 113.722656 84.816406 113.324219 84.949219 112.902344 85.007812 C 112.480469 85.0625 112.0625 85.035156 111.652344 84.925781 C 111.238281 84.816406 110.863281 84.632812 110.523438 84.371094 C 110.1875 84.113281 109.910156 83.796875 109.695312 83.429688 Z M 109.695312 83.429688 "/><path style=" stroke:none;fill-rule:nonzero;fill:#ffffff;fill-opacity:1;" d="M 95.785156 74.875 L 95.515625 74.40625 C 95.300781 74.035156 95.164062 73.640625 95.109375 73.21875 C 95.054688 72.796875 95.078125 72.378906 95.191406 71.964844 C 95.300781 71.554688 95.484375 71.179688 95.742188 70.839844 C 96.003906 70.5 96.316406 70.226562 96.6875 70.011719 L 104.535156 65.472656 C 104.902344 65.257812 105.296875 65.125 105.722656 65.066406 C 106.144531 65.011719 106.5625 65.039062 106.972656 65.148438 C 107.386719 65.257812 107.761719 65.441406 108.101562 65.703125 C 108.4375 65.960938 108.714844 66.273438 108.929688 66.644531 L 109.199219 67.113281 C 109.414062 67.480469 109.546875 67.878906 109.605469 68.300781 C 109.660156 68.722656 109.632812 69.140625 109.523438 69.550781 C 109.414062 69.964844 109.230469 70.339844 108.96875 70.679688 C 108.710938 71.015625 108.394531 71.292969 108.027344 71.507812 L 100.179688 76.046875 C 99.8125 76.261719 99.414062 76.394531 98.992188 76.449219 C 98.570312 76.507812 98.152344 76.480469 97.738281 76.371094 C 97.328125 76.261719 96.953125 76.074219 96.613281 75.816406 C 96.273438 75.558594 96 75.242188 95.785156 74.875 Z M 95.785156 74.875 "/><path style=" stroke:none;fill-rule:nonzero;fill:#ffffff;fill-opacity:1;" d="M 78.070312 148.148438 L 76.53125 125.546875 L 89.21875 122.449219 C 87.671875 130.488281 86.117188 138.523438 84.570312 146.5625 C 82.402344 147.09375 80.242188 147.621094 78.074219 148.148438 Z M 78.070312 148.148438 "/><path style=" stroke:none;fill-rule:nonzero;fill:#ffffff;fill-opacity:1;" d="M 58.785156 114.835938 L 77.65625 127.382812 L 86.882812 117.65625 C 79.089844 115.054688 71.296875 112.453125 63.507812 109.851562 C 61.933594 111.515625 60.359375 113.171875 58.78125 114.835938 Z M 58.785156 114.835938 "/><path style=" stroke:none;fill-rule:nonzero;fill:#ffffff;fill-opacity:1;" d="M 202.453125 83.023438 L 351.652344 83.023438 C 352.410156 83.023438 353.164062 83.0625 353.917969 83.136719 C 354.671875 83.210938 355.417969 83.320312 356.160156 83.46875 C 356.902344 83.613281 357.636719 83.796875 358.359375 84.019531 C 359.082031 84.238281 359.792969 84.492188 360.492188 84.78125 C 361.191406 85.070312 361.875 85.394531 362.542969 85.75 C 363.210938 86.105469 363.859375 86.496094 364.488281 86.914062 C 365.117188 87.335938 365.722656 87.785156 366.308594 88.265625 C 366.890625 88.746094 367.453125 89.253906 367.988281 89.789062 C 368.523438 90.324219 369.03125 90.882812 369.507812 91.464844 C 369.988281 92.050781 370.441406 92.65625 370.859375 93.285156 C 371.28125 93.914062 371.667969 94.5625 372.023438 95.230469 C 372.382812 95.898438 372.703125 96.582031 372.996094 97.28125 C 373.285156 97.976562 373.539062 98.6875 373.757812 99.414062 C 373.976562 100.136719 374.160156 100.871094 374.308594 101.613281 C 374.457031 102.351562 374.566406 103.101562 374.640625 103.851562 C 374.714844 104.605469 374.753906 105.359375 374.753906 106.117188 L 374.753906 109.996094 C 374.753906 110.75 374.714844 111.503906 374.640625 112.257812 C 374.566406 113.011719 374.457031 113.757812 374.308594 114.5 C 374.160156 115.242188 373.976562 115.972656 373.757812 116.699219 C 373.539062 117.421875 373.285156 118.132812 372.996094 118.832031 C 372.703125 119.53125 372.382812 120.214844 372.023438 120.878906 C 371.667969 121.546875 371.28125 122.195312 370.859375 122.824219 C 370.441406 123.453125 369.988281 124.058594 369.507812 124.644531 C 369.03125 125.230469 368.523438 125.789062 367.988281 126.324219 C 367.453125 126.859375 366.890625 127.367188 366.308594 127.84375 C 365.722656 128.324219 365.117188 128.773438 364.488281 129.195312 C 363.859375 129.617188 363.210938 130.003906 362.542969 130.359375 C 361.875 130.71875 361.191406 131.039062 360.492188 131.328125 C 359.792969 131.617188 359.082031 131.875 358.359375 132.09375 C 357.636719 132.3125 356.902344 132.496094 356.160156 132.644531 C 355.417969 132.792969 354.671875 132.902344 353.917969 132.976562 C 353.164062 133.050781 352.410156 133.085938 351.652344 133.085938 L 202.453125 133.085938 C 201.695312 133.085938 200.941406 133.050781 200.1875 132.976562 C 199.433594 132.902344 198.6875 132.792969 197.945312 132.644531 C 197.203125 132.496094 196.46875 132.3125 195.746094 132.09375 C 195.023438 131.875 194.3125 131.617188 193.613281 131.328125 C 192.914062 131.039062 192.230469 130.71875 191.5625 130.359375 C 190.894531 130.003906 190.246094 129.617188 189.617188 129.195312 C 188.988281 128.777344 188.382812 128.324219 187.796875 127.84375 C 187.214844 127.367188 186.652344 126.859375 186.117188 126.324219 C 185.582031 125.789062 185.074219 125.230469 184.597656 124.644531 C 184.117188 124.058594 183.664062 123.453125 183.246094 122.824219 C 182.824219 122.195312 182.4375 121.546875 182.078125 120.878906 C 181.722656 120.214844 181.398438 119.53125 181.109375 118.832031 C 180.820312 118.132812 180.566406 117.421875 180.347656 116.699219 C 180.128906 115.972656 179.945312 115.242188 179.796875 114.5 C 179.648438 113.757812 179.539062 113.011719 179.464844 112.257812 C 179.390625 111.503906 179.351562 110.75 179.351562 109.996094 L 179.351562 106.117188 C 179.351562 105.359375 179.390625 104.605469 179.464844 103.851562 C 179.539062 103.101562 179.648438 102.351562 179.796875 101.613281 C 179.945312 100.871094 180.128906 100.136719 180.347656 99.414062 C 180.566406 98.6875 180.820312 97.976562 181.109375 97.28125 C 181.398438 96.582031 181.722656 95.898438 182.078125 95.230469 C 182.4375 94.5625 182.824219 93.914062 183.246094 93.285156 C 183.664062 92.65625 184.117188 92.050781 184.597656 91.464844 C 185.074219 90.882812 185.582031 90.324219 186.117188 89.789062 C 186.652344 89.253906 187.214844 88.746094 187.796875 88.265625 C 188.382812 87.785156 188.988281 87.335938 189.617188 86.914062 C 190.246094 86.496094 190.894531 86.105469 191.5625 85.75 C 192.230469 85.394531 192.914062 85.070312 193.613281 84.78125 C 194.3125 84.492188 195.023438 84.238281 195.746094 84.019531 C 196.46875 83.796875 197.203125 83.613281 197.945312 83.46875 C 198.6875 83.320312 199.433594 83.210938 200.1875 83.136719 C 200.941406 83.0625 201.695312 83.023438 202.453125 83.023438 Z M 202.453125 83.023438 "/><path style=" stroke:none;fill-rule:nonzero;fill:#d7e0e2;fill-opacity:1;" d="M 334.644531 121.160156 C 327.25 121.160156 320.265625 116.296875 318.105469 108.597656 C 315.539062 99.445312 320.867188 89.960938 330.023438 87.390625 C 339.199219 84.824219 348.667969 90.167969 351.234375 99.304688 C 354.316406 110.300781 346.035156 121.160156 334.644531 121.160156 Z M 327.074219 99.6875 C 323.296875 106.410156 329.5625 114.425781 337.019531 112.335938 C 341.65625 111.035156 344.355469 106.234375 343.054688 101.601562 C 340.964844 94.144531 330.871094 92.9375 327.074219 99.6875 Z M 327.074219 99.6875 "/><path style=" stroke:none;fill-rule:nonzero;fill:#d7e0e2;fill-opacity:1;" d="M 358.238281 127.523438 C 357.402344 127.523438 356.5625 127.277344 355.828125 126.769531 L 343.191406 118.042969 C 341.257812 116.710938 340.773438 114.066406 342.109375 112.132812 C 343.441406 110.207031 346.085938 109.722656 348.019531 111.054688 L 360.65625 119.78125 C 364.074219 122.140625 362.394531 127.519531 358.238281 127.519531 Z M 358.238281 127.523438 "/><path style=" stroke:none;fill-rule:nonzero;fill:#d7e0e2;fill-opacity:1;" d="M 126.5 305.378906 L 75.785156 305.378906 C 73.4375 305.378906 71.539062 303.480469 71.539062 301.132812 L 71.539062 250.859375 C 71.539062 248.511719 73.4375 246.613281 75.785156 246.613281 L 126.5 246.613281 C 128.847656 246.613281 130.746094 248.511719 130.746094 250.859375 L 130.746094 301.132812 C 130.746094 303.480469 128.847656 305.378906 126.5 305.378906 Z M 80.035156 296.886719 L 122.253906 296.886719 L 122.253906 255.105469 L 80.035156 255.105469 Z M 80.035156 296.886719 "/><path style=" stroke:none;fill-rule:nonzero;fill:#d7e0e2;fill-opacity:1;" d="M 193.40625 305.378906 L 142.695312 305.378906 C 140.347656 305.378906 138.449219 303.480469 138.449219 301.132812 L 138.449219 250.859375 C 138.449219 248.511719 140.347656 246.613281 142.695312 246.613281 L 193.40625 246.613281 C 195.753906 246.613281 197.65625 248.511719 197.65625 250.859375 L 197.65625 301.132812 C 197.65625 303.480469 195.753906 305.378906 193.40625 305.378906 Z M 146.941406 296.886719 L 189.160156 296.886719 L 189.160156 255.105469 L 146.941406 255.105469 Z M 146.941406 296.886719 "/><path style=" stroke:none;fill-rule:nonzero;fill:#d7e0e2;fill-opacity:1;" d="M 287.6875 305.378906 L 239.003906 305.378906 C 236.65625 305.378906 234.757812 303.480469 234.757812 301.132812 L 234.757812 250.859375 C 234.757812 248.511719 236.65625 246.613281 239.003906 246.613281 L 287.6875 246.613281 C 290.035156 246.613281 291.9375 248.511719 291.9375 250.859375 L 291.9375 301.132812 C 291.9375 303.480469 290.035156 305.378906 287.6875 305.378906 Z M 243.25 296.886719 L 283.4375 296.886719 L 283.4375 255.105469 L 243.25 255.105469 Z M 243.25 296.886719 "/><path style=" stroke:none;fill-rule:nonzero;fill:#d7e0e2;fill-opacity:1;" d="M 351.925781 305.378906 L 303.238281 305.378906 C 300.894531 305.378906 298.992188 303.480469 298.992188 301.132812 L 298.992188 250.859375 C 298.992188 248.511719 300.894531 246.613281 303.238281 246.613281 L 351.925781 246.613281 C 354.273438 246.613281 356.171875 248.511719 356.171875 250.859375 L 356.171875 301.132812 C 356.171875 303.480469 354.273438 305.378906 351.925781 305.378906 Z M 307.484375 296.886719 L 347.675781 296.886719 L 347.675781 255.105469 L 307.484375 255.105469 Z M 307.484375 296.886719 "/><path style=" stroke:none;fill-rule:nonzero;fill:#d7e0e2;fill-opacity:1;" d="M 126.5 385.738281 L 75.785156 385.738281 C 73.4375 385.738281 71.539062 383.835938 71.539062 381.492188 L 71.539062 331.214844 C 71.539062 328.867188 73.4375 326.96875 75.785156 326.96875 L 126.5 326.96875 C 128.847656 326.96875 130.746094 328.867188 130.746094 331.214844 L 130.746094 381.492188 C 130.746094 383.835938 128.847656 385.738281 126.5 385.738281 Z M 80.035156 377.246094 L 122.253906 377.246094 L 122.253906 335.460938 L 80.035156 335.460938 Z M 80.035156 377.246094 "/><path style=" stroke:none;fill-rule:nonzero;fill:#d7e0e2;fill-opacity:1;" d="M 193.40625 385.738281 L 142.695312 385.738281 C 140.347656 385.738281 138.449219 383.835938 138.449219 381.492188 L 138.449219 331.214844 C 138.449219 328.867188 140.347656 326.96875 142.695312 326.96875 L 193.40625 326.96875 C 195.753906 326.96875 197.65625 328.867188 197.65625 331.214844 L 197.65625 381.492188 C 197.65625 383.835938 195.753906 385.738281 193.40625 385.738281 Z M 146.941406 377.246094 L 189.160156 377.246094 L 189.160156 335.460938 L 146.941406 335.460938 Z M 146.941406 377.246094 "/><path style=" stroke:none;fill-rule:nonzero;fill:#d7e0e2;fill-opacity:1;" d="M 287.6875 385.738281 L 239.003906 385.738281 C 236.65625 385.738281 234.757812 383.835938 234.757812 381.492188 L 234.757812 331.214844 C 234.757812 328.867188 236.65625 326.96875 239.003906 326.96875 L 287.6875 326.96875 C 290.035156 326.96875 291.9375 328.867188 291.9375 331.214844 L 291.9375 381.492188 C 291.9375 383.835938 290.035156 385.738281 287.6875 385.738281 Z M 243.25 377.246094 L 283.4375 377.246094 L 283.4375 335.460938 L 243.25 335.460938 Z M 243.25 377.246094 "/><path style=" stroke:none;fill-rule:nonzero;fill:#d7e0e2;fill-opacity:1;" d="M 351.925781 385.738281 L 303.238281 385.738281 C 300.894531 385.738281 298.992188 383.835938 298.992188 381.492188 L 298.992188 331.214844 C 298.992188 328.867188 300.894531 326.96875 303.238281 326.96875 L 351.925781 326.96875 C 354.273438 326.96875 356.171875 328.867188 356.171875 331.214844 L 356.171875 381.492188 C 356.171875 383.835938 354.273438 385.738281 351.925781 385.738281 Z M 307.484375 377.246094 L 347.675781 377.246094 L 347.675781 335.460938 L 307.484375 335.460938 Z M 307.484375 377.246094 "/><path style=" stroke:none;fill-rule:nonzero;fill:#d7e0e2;fill-opacity:1;" d="M 126.5 466.089844 L 75.785156 466.089844 C 73.4375 466.089844 71.539062 464.191406 71.539062 461.847656 L 71.539062 411.570312 C 71.539062 409.222656 73.4375 407.324219 75.785156 407.324219 L 126.5 407.324219 C 128.847656 407.324219 130.746094 409.222656 130.746094 411.570312 L 130.746094 461.847656 C 130.746094 464.191406 128.847656 466.089844 126.5 466.089844 Z M 80.035156 457.601562 L 122.253906 457.601562 L 122.253906 415.816406 L 80.035156 415.816406 Z M 80.035156 457.601562 "/><path style=" stroke:none;fill-rule:nonzero;fill:#d7e0e2;fill-opacity:1;" d="M 193.40625 466.089844 L 142.695312 466.089844 C 140.347656 466.089844 138.449219 464.191406 138.449219 461.847656 L 138.449219 411.570312 C 138.449219 409.222656 140.347656 407.324219 142.695312 407.324219 L 193.40625 407.324219 C 195.753906 407.324219 197.65625 409.222656 197.65625 411.570312 L 197.65625 461.847656 C 197.65625 464.191406 195.753906 466.089844 193.40625 466.089844 Z M 146.941406 457.601562 L 189.160156 457.601562 L 189.160156 415.816406 L 146.941406 415.816406 Z M 146.941406 457.601562 "/><path style=" stroke:none;fill-rule:nonzero;fill:#d7e0e2;fill-opacity:1;" d="M 287.6875 466.089844 L 239.003906 466.089844 C 236.65625 466.089844 234.757812 464.191406 234.757812 461.847656 L 234.757812 411.570312 C 234.757812 409.222656 236.65625 407.324219 239.003906 407.324219 L 287.6875 407.324219 C 290.035156 407.324219 291.9375 409.222656 291.9375 411.570312 L 291.9375 461.847656 C 291.9375 464.191406 290.035156 466.089844 287.6875 466.089844 Z M 243.25 457.601562 L 283.4375 457.601562 L 283.4375 415.816406 L 243.25 415.816406 Z M 243.25 457.601562 "/><path style=" stroke:none;fill-rule:nonzero;fill:#d7e0e2;fill-opacity:1;" d="M 351.925781 466.089844 L 303.238281 466.089844 C 300.894531 466.089844 298.992188 464.191406 298.992188 461.847656 L 298.992188 411.570312 C 298.992188 409.222656 300.894531 407.324219 303.238281 407.324219 L 351.925781 407.324219 C 354.273438 407.324219 356.171875 409.222656 356.171875 411.570312 L 356.171875 461.847656 C 356.171875 464.191406 354.273438 466.089844 351.925781 466.089844 Z M 307.484375 457.601562 L 347.675781 457.601562 L 347.675781 415.816406 L 307.484375 415.816406 Z M 307.484375 457.601562 "/><path style=" stroke:none;fill-rule:nonzero;fill:#d7e0e2;fill-opacity:1;" d="M 126.5 546.449219 L 75.785156 546.449219 C 73.4375 546.449219 71.539062 544.550781 71.539062 542.203125 L 71.539062 491.925781 C 71.539062 489.582031 73.4375 487.679688 75.785156 487.679688 L 126.5 487.679688 C 128.847656 487.679688 130.746094 489.582031 130.746094 491.925781 L 130.746094 542.203125 C 130.746094 544.550781 128.847656 546.449219 126.5 546.449219 Z M 80.035156 537.957031 L 122.253906 537.957031 L 122.253906 496.171875 L 80.035156 496.171875 Z M 80.035156 537.957031 "/><path style=" stroke:none;fill-rule:nonzero;fill:#d7e0e2;fill-opacity:1;" d="M 193.40625 546.449219 L 142.695312 546.449219 C 140.347656 546.449219 138.449219 544.550781 138.449219 542.203125 L 138.449219 491.925781 C 138.449219 489.582031 140.347656 487.679688 142.695312 487.679688 L 193.40625 487.679688 C 195.753906 487.679688 197.65625 489.582031 197.65625 491.925781 L 197.65625 542.203125 C 197.65625 544.550781 195.753906 546.449219 193.40625 546.449219 Z M 146.941406 537.957031 L 189.160156 537.957031 L 189.160156 496.171875 L 146.941406 496.171875 Z M 146.941406 537.957031 "/><path style=" stroke:none;fill-rule:nonzero;fill:#d7e0e2;fill-opacity:1;" d="M 287.6875 546.449219 L 239.003906 546.449219 C 236.65625 546.449219 234.757812 544.550781 234.757812 542.203125 L 234.757812 491.925781 C 234.757812 489.582031 236.65625 487.679688 239.003906 487.679688 L 287.6875 487.679688 C 290.035156 487.679688 291.9375 489.582031 291.9375 491.925781 L 291.9375 542.203125 C 291.9375 544.550781 290.035156 546.449219 287.6875 546.449219 Z M 243.25 537.957031 L 283.4375 537.957031 L 283.4375 496.171875 L 243.25 496.171875 Z M 243.25 537.957031 "/><path style=" stroke:none;fill-rule:nonzero;fill:#d7e0e2;fill-opacity:1;" d="M 351.925781 546.449219 L 303.238281 546.449219 C 300.894531 546.449219 298.992188 544.550781 298.992188 542.203125 L 298.992188 491.925781 C 298.992188 489.582031 300.894531 487.679688 303.238281 487.679688 L 351.925781 487.679688 C 354.273438 487.679688 356.171875 489.582031 356.171875 491.925781 L 356.171875 542.203125 C 356.171875 544.550781 354.273438 546.449219 351.925781 546.449219 Z M 307.484375 537.957031 L 347.675781 537.957031 L 347.675781 496.171875 L 307.484375 496.171875 Z M 307.484375 537.957031 "/><path style=" stroke:none;fill-rule:nonzero;fill:#d7e0e2;fill-opacity:1;" d="M 126.5 626.808594 L 75.785156 626.808594 C 73.4375 626.808594 71.539062 624.90625 71.539062 622.5625 L 71.539062 572.285156 C 71.539062 569.9375 73.4375 568.039062 75.785156 568.039062 L 126.5 568.039062 C 128.847656 568.039062 130.746094 569.9375 130.746094 572.285156 L 130.746094 622.5625 C 130.746094 624.90625 128.847656 626.808594 126.5 626.808594 Z M 80.035156 618.316406 L 122.253906 618.316406 L 122.253906 576.53125 L 80.035156 576.53125 Z M 80.035156 618.316406 "/><path style=" stroke:none;fill-rule:nonzero;fill:#d7e0e2;fill-opacity:1;" d="M 193.40625 626.808594 L 142.695312 626.808594 C 140.347656 626.808594 138.449219 624.90625 138.449219 622.5625 L 138.449219 572.285156 C 138.449219 569.9375 140.347656 568.039062 142.695312 568.039062 L 193.40625 568.039062 C 195.753906 568.039062 197.65625 569.9375 197.65625 572.285156 L 197.65625 622.5625 C 197.65625 624.90625 195.753906 626.808594 193.40625 626.808594 Z M 146.941406 618.316406 L 189.160156 618.316406 L 189.160156 576.53125 L 146.941406 576.53125 Z M 146.941406 618.316406 "/><path style=" stroke:none;fill-rule:nonzero;fill:#d7e0e2;fill-opacity:1;" d="M 287.6875 626.808594 L 239.003906 626.808594 C 236.65625 626.808594 234.757812 624.90625 234.757812 622.5625 L 234.757812 572.285156 C 234.757812 569.9375 236.65625 568.039062 239.003906 568.039062 L 287.6875 568.039062 C 290.035156 568.039062 291.9375 569.9375 291.9375 572.285156 L 291.9375 622.5625 C 291.9375 624.90625 290.035156 626.808594 287.6875 626.808594 Z M 243.25 618.316406 L 283.4375 618.316406 L 283.4375 576.53125 L 243.25 576.53125 Z M 243.25 618.316406 "/><path style=" stroke:none;fill-rule:nonzero;fill:#d7e0e2;fill-opacity:1;" d="M 351.925781 626.808594 L 303.238281 626.808594 C 300.894531 626.808594 298.992188 624.90625 298.992188 622.5625 L 298.992188 572.285156 C 298.992188 569.9375 300.894531 568.039062 303.238281 568.039062 L 351.925781 568.039062 C 354.273438 568.039062 356.171875 569.9375 356.171875 572.285156 L 356.171875 622.5625 C 356.171875 624.90625 354.273438 626.808594 351.925781 626.808594 Z M 307.484375 618.316406 L 347.675781 618.316406 L 347.675781 576.53125 L 307.484375 576.53125 Z M 307.484375 618.316406 "/><path style=" stroke:none;fill-rule:nonzero;fill:#f1a17c;fill-opacity:1;" d="M 524.683594 252.710938 L 526.65625 192.257812 L 557.78125 193.273438 L 555.808594 253.726562 Z M 524.683594 252.710938 "/><path style=" stroke:none;fill-rule:nonzero;fill:#2e355c;fill-opacity:1;" d="M 548.855469 211.179688 C 548.855469 211.179688 545.945312 229.824219 525.316406 232.464844 L 526 211.503906 Z M 548.855469 211.179688 "/><path style=" stroke:none;fill-rule:nonzero;fill:#f1a17c;fill-opacity:1;" d="M 564.226562 177.199219 C 564.226562 178.175781 564.179688 179.152344 564.082031 180.121094 C 563.988281 181.09375 563.84375 182.058594 563.652344 183.015625 C 563.464844 183.972656 563.226562 184.917969 562.941406 185.855469 C 562.660156 186.789062 562.332031 187.707031 561.957031 188.609375 C 561.582031 189.511719 561.167969 190.390625 560.707031 191.253906 C 560.246094 192.113281 559.746094 192.949219 559.203125 193.761719 C 558.660156 194.574219 558.078125 195.355469 557.457031 196.113281 C 556.839844 196.867188 556.183594 197.589844 555.492188 198.28125 C 554.800781 198.96875 554.078125 199.625 553.324219 200.246094 C 552.570312 200.863281 551.785156 201.445312 550.972656 201.988281 C 550.164062 202.527344 549.324219 203.03125 548.464844 203.492188 C 547.601562 203.949219 546.722656 204.367188 545.820312 204.742188 C 544.917969 205.113281 544 205.445312 543.0625 205.726562 C 542.128906 206.011719 541.183594 206.246094 540.226562 206.4375 C 539.269531 206.628906 538.304688 206.773438 537.332031 206.867188 C 536.359375 206.960938 535.386719 207.011719 534.410156 207.011719 C 533.429688 207.011719 532.457031 206.960938 531.484375 206.867188 C 530.511719 206.769531 529.546875 206.628906 528.589844 206.4375 C 527.632812 206.246094 526.6875 206.011719 525.753906 205.726562 C 524.816406 205.445312 523.898438 205.113281 522.996094 204.742188 C 522.09375 204.367188 521.214844 203.949219 520.351562 203.492188 C 519.492188 203.03125 518.652344 202.527344 517.839844 201.988281 C 517.03125 201.445312 516.246094 200.863281 515.492188 200.246094 C 514.738281 199.625 514.015625 198.96875 513.324219 198.28125 C 512.632812 197.589844 511.976562 196.867188 511.359375 196.113281 C 510.738281 195.355469 510.15625 194.574219 509.613281 193.761719 C 509.070312 192.949219 508.570312 192.113281 508.109375 191.253906 C 507.648438 190.390625 507.234375 189.511719 506.859375 188.609375 C 506.484375 187.707031 506.15625 186.789062 505.875 185.855469 C 505.589844 184.917969 505.351562 183.972656 505.164062 183.015625 C 504.972656 182.058594 504.828125 181.09375 504.734375 180.121094 C 504.636719 179.152344 504.589844 178.175781 504.589844 177.199219 C 504.589844 176.222656 504.636719 175.25 504.734375 174.277344 C 504.828125 173.308594 504.972656 172.34375 505.164062 171.386719 C 505.351562 170.425781 505.589844 169.480469 505.875 168.546875 C 506.15625 167.613281 506.484375 166.695312 506.859375 165.792969 C 507.234375 164.890625 507.648438 164.007812 508.109375 163.148438 C 508.570312 162.289062 509.070312 161.449219 509.613281 160.640625 C 510.15625 159.828125 510.738281 159.042969 511.359375 158.289062 C 511.976562 157.535156 512.632812 156.8125 513.324219 156.121094 C 514.015625 155.429688 514.738281 154.777344 515.492188 154.15625 C 516.246094 153.539062 517.03125 152.957031 517.839844 152.414062 C 518.652344 151.871094 519.492188 151.371094 520.351562 150.910156 C 521.214844 150.449219 522.09375 150.035156 522.996094 149.660156 C 523.898438 149.285156 524.816406 148.957031 525.753906 148.675781 C 526.6875 148.390625 527.632812 148.152344 528.589844 147.964844 C 529.546875 147.773438 530.511719 147.628906 531.484375 147.535156 C 532.457031 147.4375 533.429688 147.390625 534.410156 147.390625 C 535.386719 147.390625 536.359375 147.4375 537.332031 147.535156 C 538.304688 147.628906 539.269531 147.773438 540.226562 147.964844 C 541.183594 148.152344 542.128906 148.390625 543.0625 148.675781 C 544 148.957031 544.917969 149.285156 545.820312 149.660156 C 546.722656 150.035156 547.601562 150.449219 548.464844 150.910156 C 549.324219 151.371094 550.164062 151.871094 550.972656 152.414062 C 551.785156 152.957031 552.570312 153.539062 553.324219 154.15625 C 554.078125 154.777344 554.800781 155.429688 555.492188 156.121094 C 556.183594 156.8125 556.839844 157.535156 557.457031 158.289062 C 558.078125 159.042969 558.660156 159.828125 559.203125 160.640625 C 559.746094 161.449219 560.246094 162.289062 560.707031 163.148438 C 561.167969 164.007812 561.582031 164.890625 561.957031 165.792969 C 562.332031 166.695312 562.660156 167.613281 562.941406 168.546875 C 563.226562 169.480469 563.464844 170.425781 563.652344 171.386719 C 563.84375 172.34375 563.988281 173.308594 564.082031 174.277344 C 564.179688 175.25 564.226562 176.222656 564.226562 177.199219 Z M 564.226562 177.199219 "/><path style=" stroke:none;fill-rule:nonzero;fill:#f1a17c;fill-opacity:1;" d="M 504.65625 179.15625 C 504.203125 185.074219 502.027344 217.457031 515.328125 222.496094 C 516.019531 222.753906 516.820312 222.96875 518.25 223.109375 C 532.398438 224.472656 547.828125 212.460938 555.125 206.066406 Z M 504.65625 179.15625 "/><path style=" stroke:none;fill-rule:nonzero;fill:#f0b44a;fill-opacity:1;" d="M 459.296875 468.1875 C 443.253906 550.523438 458.167969 483.878906 381.445312 810.015625 L 490.929688 810.015625 L 555.300781 562.511719 L 459.292969 468.1875 Z M 459.296875 468.1875 "/><path style=" stroke:none;fill-rule:nonzero;fill:#f8d26e;fill-opacity:1;" d="M 623.890625 468.1875 C 623.890625 468.1875 649.929688 521.8125 655.433594 579.011719 C 660.933594 636.214844 655.433594 810.015625 655.433594 810.015625 L 547.601562 810.015625 C 548.367188 734.4375 549.136719 658.859375 549.902344 583.277344 C 519.703125 544.914062 489.5 506.546875 459.296875 468.183594 L 623.890625 468.183594 Z M 623.890625 468.1875 "/><path style=" stroke:none;fill-rule:nonzero;fill:#f1a17c;fill-opacity:1;" d="M 443.363281 261.339844 C 436.75 261.613281 426.347656 263.015625 416.285156 269.386719 C 399.863281 279.78125 394.082031 297.320312 391.097656 306.816406 C 367.742188 381.109375 341.6875 463.988281 369.34375 479.023438 C 370.074219 479.425781 373.921875 481.449219 379.242188 481.226562 C 421.140625 479.460938 447.789062 342.671875 452.183594 319.367188 C 449.242188 300.023438 446.300781 280.683594 443.359375 261.335938 Z M 443.363281 261.339844 "/><path style=" stroke:none;fill-rule:nonzero;fill:#f1a17c;fill-opacity:1;" d="M 605.144531 257.28125 L 780.265625 294.511719 C 783.003906 297.839844 795.957031 314.144531 790.4375 327.347656 C 788.804688 331.25 784.363281 337.730469 768.128906 341.960938 C 725.503906 353.0625 626.671875 342.058594 605.144531 339.558594 Z M 605.144531 257.28125 "/><path style=" stroke:none;fill-rule:nonzero;fill:#f1a17c;fill-opacity:1;" d="M 724.339844 116.730469 C 752.253906 169 770.15625 214.265625 781.671875 247.652344 C 797.40625 293.242188 800.902344 315.6875 789.015625 329.773438 C 777.515625 343.40625 756.101562 343.898438 742.964844 342.890625 C 725.894531 270.921875 708.820312 198.953125 691.75 126.984375 C 702.613281 123.566406 713.476562 120.144531 724.339844 116.730469 Z M 724.339844 116.730469 "/><path style=" stroke:none;fill-rule:nonzero;fill:#fef9df;fill-opacity:1;" d="M 541.820312 238.28125 C 503.492188 246.898438 465.164062 255.515625 426.835938 264.132812 C 437.65625 332.148438 448.476562 400.167969 459.296875 468.1875 L 623.890625 468.1875 C 630.09375 401.269531 636.300781 334.351562 642.503906 267.429688 C 608.941406 257.714844 575.382812 248 541.820312 238.28125 Z M 541.820312 238.28125 "/><path style=" stroke:none;fill-rule:nonzero;fill:#fef9df;fill-opacity:1;" d="M 455.03125 258.714844 C 455.03125 258.714844 411.578125 258.226562 395.78125 287.097656 C 379.980469 315.972656 358.0625 393.082031 358.0625 393.082031 L 432.480469 417.199219 L 449.128906 372.703125 Z M 455.03125 258.714844 "/><path style=" stroke:none;fill-rule:nonzero;fill:#fef9df;fill-opacity:1;" d="M 586.613281 251.917969 L 715.488281 273.191406 C 715.277344 302.53125 715.066406 331.871094 714.851562 361.210938 C 680.007812 359.011719 645.164062 356.808594 610.320312 354.609375 C 602.414062 320.375 594.511719 286.144531 586.613281 251.917969 Z M 586.613281 251.917969 "/><path style=" stroke:none;fill-rule:nonzero;fill:#fef9df;fill-opacity:1;" d="M 642.503906 328.484375 C 642.503906 328.484375 632.050781 446.460938 633.703125 462.6875 C 635.351562 478.910156 644.699219 480.125 642.503906 495.136719 C 640.308594 510.152344 656.472656 504.488281 657.878906 528.691406 C 657.878906 528.691406 536.324219 563.339844 438.941406 531.441406 C 438.941406 531.441406 435.015625 519.378906 443.894531 510.539062 C 452.765625 501.699219 441.96875 497.921875 444.441406 483.332031 C 446.917969 468.738281 444.859375 351 444.859375 351 Z M 642.503906 328.484375 "/><path style=" stroke:none;fill-rule:nonzero;fill:#f1a17c;fill-opacity:1;" d="M 353.9375 271.488281 C 372.921875 332.023438 391.910156 392.558594 410.894531 453.097656 C 408.460938 459.164062 400.042969 478.019531 381.722656 483.699219 C 381.722656 483.699219 372.546875 486.542969 363.28125 484.617188 C 330.917969 477.894531 324.152344 317.3125 323.132812 290.554688 L 353.941406 271.488281 Z M 353.9375 271.488281 "/><path style=" stroke:none;fill-rule:nonzero;fill:#f1a17c;fill-opacity:1;" d="M 541.820312 238.28125 C 529.867188 240.96875 517.910156 243.65625 505.957031 246.34375 C 507.351562 248.164062 518.839844 262.667969 538.933594 263.03125 C 559.273438 263.398438 571.339844 248.972656 572.746094 247.230469 L 541.820312 238.277344 Z M 541.820312 238.28125 "/><path style=" stroke:none;fill-rule:nonzero;fill:#579dc4;fill-opacity:1;" d="M 478.332031 252.554688 C 478.332031 252.554688 448.433594 246.539062 443.363281 261.335938 C 438.296875 276.136719 445.660156 436.707031 445.660156 436.707031 C 463.921875 378.625 475.34375 316.851562 478.332031 252.550781 Z M 478.332031 252.554688 "/><path style=" stroke:none;fill-rule:nonzero;fill:#579dc4;fill-opacity:1;" d="M 645.890625 261.703125 C 639.777344 257.925781 619.292969 246.027344 607.75 253.773438 C 596.84375 261.097656 599.574219 282.179688 603.167969 303.457031 C 608.507812 335.136719 617.777344 379.273438 634.894531 433.441406 C 639.652344 378 643.394531 320.734375 645.890625 261.703125 Z M 645.890625 261.703125 "/><path style=" stroke:none;fill-rule:nonzero;fill:#2e355c;fill-opacity:1;" d="M 446.4375 533.746094 C 446.4375 533.746094 489.832031 551.695312 516.242188 556.828125 L 543.855469 606.539062 L 549.90625 583.277344 L 519.910156 544.699219 C 519.910156 544.699219 476.21875 541.746094 446.441406 533.746094 Z M 446.4375 533.746094 "/><path style=" stroke:none;fill-rule:nonzero;fill:#2e355c;fill-opacity:1;" d="M 519.90625 544.703125 C 519.90625 544.703125 597.058594 562.355469 651.003906 550.058594 C 651.003906 550.058594 648.488281 535.925781 646.640625 531.527344 C 606.054688 539.226562 563.75 543.820312 519.90625 544.703125 Z M 519.90625 544.703125 "/><path style=" stroke:none;fill-rule:nonzero;fill:#2e355c;fill-opacity:1;" d="M 341.433594 218.652344 L 379.941406 215.8125 C 380.535156 215.769531 381.128906 215.78125 381.71875 215.855469 C 382.308594 215.929688 382.886719 216.058594 383.453125 216.246094 C 384.019531 216.429688 384.5625 216.671875 385.078125 216.964844 C 385.597656 217.257812 386.082031 217.597656 386.53125 217.988281 C 386.984375 218.378906 387.390625 218.804688 387.757812 219.273438 C 388.125 219.746094 388.441406 220.246094 388.710938 220.777344 C 388.976562 221.308594 389.191406 221.863281 389.347656 222.433594 C 389.507812 223.007812 389.609375 223.59375 389.652344 224.1875 L 396.113281 311.691406 C 396.15625 312.285156 396.140625 312.878906 396.070312 313.46875 C 395.996094 314.058594 395.867188 314.636719 395.679688 315.203125 C 395.492188 315.765625 395.253906 316.308594 394.957031 316.828125 C 394.664062 317.34375 394.324219 317.828125 393.933594 318.28125 C 393.546875 318.730469 393.117188 319.140625 392.648438 319.507812 C 392.179688 319.871094 391.675781 320.1875 391.144531 320.457031 C 390.613281 320.722656 390.058594 320.9375 389.488281 321.097656 C 388.914062 321.253906 388.328125 321.355469 387.734375 321.402344 L 349.226562 324.242188 C 348.632812 324.285156 348.039062 324.269531 347.449219 324.199219 C 346.859375 324.125 346.28125 323.996094 345.714844 323.808594 C 345.148438 323.621094 344.605469 323.382812 344.089844 323.089844 C 343.570312 322.792969 343.085938 322.453125 342.636719 322.066406 C 342.183594 321.675781 341.773438 321.246094 341.410156 320.777344 C 341.042969 320.308594 340.726562 319.808594 340.457031 319.277344 C 340.191406 318.742188 339.976562 318.191406 339.816406 317.617188 C 339.660156 317.042969 339.558594 316.460938 339.515625 315.867188 L 333.054688 228.363281 C 333.011719 227.769531 333.027344 227.175781 333.097656 226.585938 C 333.171875 225.992188 333.300781 225.414062 333.488281 224.851562 C 333.675781 224.285156 333.914062 223.742188 334.207031 223.226562 C 334.503906 222.707031 334.84375 222.222656 335.234375 221.773438 C 335.621094 221.320312 336.050781 220.914062 336.519531 220.546875 C 336.988281 220.179688 337.488281 219.863281 338.023438 219.597656 C 338.554688 219.328125 339.105469 219.113281 339.679688 218.957031 C 340.253906 218.796875 340.839844 218.695312 341.433594 218.652344 Z M 341.433594 218.652344 "/><path style=" stroke:none;fill-rule:nonzero;fill:#ffffff;fill-opacity:1;" d="M 343.5 226.136719 L 344.21875 226.082031 C 344.5 226.0625 344.78125 226.070312 345.058594 226.105469 C 345.339844 226.140625 345.613281 226.199219 345.878906 226.289062 C 346.144531 226.375 346.402344 226.488281 346.648438 226.628906 C 346.890625 226.765625 347.121094 226.929688 347.335938 227.113281 C 347.546875 227.296875 347.742188 227.5 347.914062 227.722656 C 348.085938 227.941406 348.238281 228.179688 348.363281 228.429688 C 348.488281 228.683594 348.589844 228.941406 348.667969 229.214844 C 348.742188 229.484375 348.789062 229.761719 348.808594 230.042969 L 349.679688 241.8125 C 349.699219 242.09375 349.691406 242.375 349.65625 242.652344 C 349.625 242.933594 349.5625 243.207031 349.472656 243.472656 C 349.386719 243.742188 349.273438 243.996094 349.132812 244.242188 C 348.996094 244.488281 348.832031 244.714844 348.648438 244.929688 C 348.464844 245.140625 348.261719 245.335938 348.039062 245.507812 C 347.820312 245.679688 347.582031 245.832031 347.332031 245.957031 C 347.078125 246.085938 346.816406 246.183594 346.546875 246.261719 C 346.277344 246.335938 346 246.382812 345.71875 246.402344 L 345 246.457031 C 344.722656 246.476562 344.441406 246.46875 344.160156 246.4375 C 343.882812 246.402344 343.609375 246.339844 343.339844 246.25 C 343.074219 246.164062 342.816406 246.050781 342.574219 245.910156 C 342.328125 245.773438 342.097656 245.613281 341.886719 245.425781 C 341.671875 245.242188 341.480469 245.042969 341.304688 244.820312 C 341.132812 244.597656 340.984375 244.359375 340.855469 244.109375 C 340.730469 243.859375 340.628906 243.597656 340.554688 243.324219 C 340.480469 243.054688 340.429688 242.777344 340.410156 242.496094 L 339.542969 230.726562 C 339.519531 230.445312 339.527344 230.164062 339.5625 229.886719 C 339.597656 229.605469 339.660156 229.332031 339.746094 229.066406 C 339.835938 228.800781 339.949219 228.542969 340.085938 228.296875 C 340.226562 228.054688 340.386719 227.824219 340.570312 227.613281 C 340.753906 227.398438 340.957031 227.207031 341.179688 227.03125 C 341.402344 226.859375 341.636719 226.710938 341.890625 226.582031 C 342.140625 226.457031 342.402344 226.355469 342.671875 226.28125 C 342.945312 226.207031 343.222656 226.15625 343.5 226.136719 Z M 343.5 226.136719 "/><path style=" stroke:none;fill-rule:nonzero;fill:#f1a17c;fill-opacity:1;" d="M 323.589844 301.542969 C 323.589844 301.542969 322.074219 279.566406 324.964844 270.0625 C 327.851562 260.554688 352.617188 242.953125 357.425781 243.230469 C 362.238281 243.507812 359.253906 260.144531 353.9375 271.488281 C 348.621094 282.832031 338.023438 296.023438 338.023438 296.023438 L 323.59375 301.546875 Z M 323.589844 301.542969 "/><path style=" stroke:none;fill-rule:nonzero;fill:#2e355c;fill-opacity:1;" d="M 564.226562 189.195312 C 549.855469 196.546875 542.707031 181.097656 549.433594 167.878906 C 547.59375 168.492188 544.59375 169.230469 540.90625 168.980469 C 538.84375 168.839844 535.355469 168.601562 532.652344 166.640625 C 528.691406 163.765625 527.242188 157.769531 528.386719 151.519531 C 521.453125 150.511719 520.941406 161.523438 522.199219 168.84375 C 515.503906 169.164062 508.8125 169.488281 502.117188 169.808594 C 501.722656 166.925781 501.441406 162.691406 502.257812 157.707031 C 502.847656 154.074219 503.988281 147.109375 508.171875 142.71875 C 513.917969 136.683594 524.992188 135.953125 535.816406 140.105469 C 538.59375 139.894531 542.488281 139.78125 547.097656 140.242188 C 555.667969 141.101562 564.464844 141.980469 569.101562 147.941406 C 572.601562 152.433594 572.21875 157.867188 571.714844 164.992188 C 571.347656 170.234375 569.953125 179.09375 564.226562 189.195312 Z M 564.226562 189.195312 "/><path style=" stroke:none;fill-rule:nonzero;fill:#f1a17c;fill-opacity:1;" d="M 551.308594 194.664062 L 559.550781 189.574219 C 559.875 189.375 560.214844 189.207031 560.574219 189.074219 C 560.929688 188.941406 561.296875 188.847656 561.671875 188.785156 C 562.046875 188.722656 562.425781 188.699219 562.808594 188.714844 C 563.1875 188.726562 563.5625 188.777344 563.933594 188.867188 C 564.304688 188.953125 564.664062 189.078125 565.007812 189.234375 C 565.355469 189.394531 565.683594 189.585938 565.992188 189.808594 C 566.300781 190.03125 566.585938 190.28125 566.84375 190.558594 C 567.101562 190.835938 567.332031 191.140625 567.53125 191.460938 L 568.042969 192.292969 C 568.246094 192.613281 568.410156 192.957031 568.542969 193.3125 C 568.675781 193.667969 568.773438 194.035156 568.835938 194.410156 C 568.894531 194.785156 568.917969 195.164062 568.90625 195.546875 C 568.890625 195.925781 568.839844 196.300781 568.753906 196.671875 C 568.664062 197.042969 568.542969 197.398438 568.382812 197.746094 C 568.226562 198.09375 568.035156 198.421875 567.8125 198.730469 C 567.589844 199.039062 567.339844 199.320312 567.0625 199.582031 C 566.78125 199.839844 566.480469 200.070312 566.15625 200.269531 L 557.914062 205.355469 C 557.589844 205.554688 557.25 205.722656 556.894531 205.855469 C 556.535156 205.988281 556.171875 206.085938 555.792969 206.148438 C 555.417969 206.207031 555.039062 206.230469 554.660156 206.21875 C 554.277344 206.203125 553.902344 206.152344 553.53125 206.066406 C 553.164062 205.976562 552.804688 205.855469 552.457031 205.695312 C 552.113281 205.539062 551.785156 205.347656 551.476562 205.125 C 551.167969 204.902344 550.882812 204.652344 550.621094 204.371094 C 550.363281 204.09375 550.132812 203.792969 549.933594 203.46875 L 549.421875 202.640625 C 549.222656 202.316406 549.054688 201.976562 548.921875 201.621094 C 548.789062 201.261719 548.691406 200.898438 548.632812 200.519531 C 548.570312 200.144531 548.546875 199.765625 548.5625 199.386719 C 548.574219 199.007812 548.625 198.632812 548.714844 198.261719 C 548.800781 197.890625 548.921875 197.53125 549.082031 197.1875 C 549.242188 196.839844 549.429688 196.511719 549.652344 196.203125 C 549.875 195.894531 550.128906 195.609375 550.40625 195.351562 C 550.683594 195.09375 550.984375 194.863281 551.308594 194.664062 Z M 551.308594 194.664062 "/><path style=" stroke:none;fill-rule:nonzero;fill:#2e355c;fill-opacity:1;" d="M 395.917969 405.351562 L 421.917969 429.792969 C 423.816406 425.078125 425.617188 420.316406 427.316406 415.53125 C 416.847656 412.140625 406.382812 408.746094 395.914062 405.355469 Z M 395.917969 405.351562 "/><path style=" stroke:none;fill-rule:nonzero;fill:#2e355c;fill-opacity:1;" d="M 406.375 439.546875 C 406.011719 439.546875 405.679688 439.3125 405.566406 438.953125 L 395.109375 405.609375 C 394.96875 405.160156 395.214844 404.6875 395.667969 404.542969 C 396.117188 404.402344 396.589844 404.652344 396.730469 405.101562 L 407.1875 438.445312 C 407.359375 438.992188 406.949219 439.546875 406.378906 439.546875 Z M 406.375 439.546875 "/><path style=" stroke:none;fill-rule:nonzero;fill:#2e355c;fill-opacity:1;" d="M 634.742188 429.535156 C 634.246094 429.535156 633.855469 429.109375 633.898438 428.613281 L 639.582031 361.152344 C 639.621094 360.6875 640.039062 360.339844 640.5 360.378906 C 640.96875 360.417969 641.316406 360.828125 641.277344 361.292969 L 635.589844 428.753906 C 635.554688 429.195312 635.183594 429.535156 634.742188 429.535156 Z M 634.742188 429.535156 "/><path style=" stroke:none;fill-rule:nonzero;fill:#2e355c;fill-opacity:1;" d="M 715.488281 280.738281 L 729.722656 346.546875 C 724.800781 346.691406 719.882812 346.785156 714.957031 346.828125 C 715.136719 324.796875 715.3125 302.769531 715.488281 280.738281 Z M 715.488281 280.738281 "/><path style=" stroke:none;fill-rule:nonzero;fill:#2e355c;fill-opacity:1;" d="M 736.617188 316.992188 C 736.226562 316.992188 735.875 316.71875 735.789062 316.316406 L 728.890625 283.941406 C 728.796875 283.480469 729.085938 283.03125 729.546875 282.933594 C 730 282.832031 730.453125 283.128906 730.554688 283.585938 L 737.449219 315.964844 C 737.5625 316.488281 737.164062 316.988281 736.617188 316.988281 Z M 736.617188 316.992188 "/><path style=" stroke:none;fill-rule:nonzero;fill:#f1a17c;fill-opacity:1;" d="M 730.75 128.945312 L 724.339844 116.730469 C 724.339844 116.730469 713.109375 84.921875 708.253906 77.675781 C 703.394531 70.4375 672.675781 83.636719 671.023438 89.960938 C 669.371094 96.28125 674.785156 108.199219 676.523438 109.761719 C 678.265625 111.320312 681.476562 106.09375 681.476562 106.09375 C 681.476562 106.09375 679.375 124.683594 691.753906 126.984375 L 694.476562 138.460938 L 730.753906 128.941406 Z M 730.75 128.945312 "/><path style=" stroke:none;fill-rule:nonzero;fill:#2e355c;fill-opacity:1;" d="M 645.890625 262.550781 C 645.707031 262.550781 645.519531 262.492188 645.363281 262.367188 C 645.121094 262.175781 620.964844 243.28125 608.3125 254.410156 C 607.960938 254.71875 607.425781 254.683594 607.117188 254.335938 C 606.808594 253.984375 606.839844 253.445312 607.191406 253.136719 C 620.90625 241.070312 645.386719 260.214844 646.421875 261.039062 C 647.050781 261.539062 646.695312 262.554688 645.890625 262.554688 Z M 645.890625 262.550781 "/><path style=" stroke:none;fill-rule:nonzero;fill:#2e355c;fill-opacity:1;" d="M 477.917969 253.296875 C 473.296875 250.699219 465.253906 252.03125 465.171875 252.042969 C 464.714844 252.125 464.269531 251.8125 464.191406 251.351562 C 464.113281 250.890625 464.425781 250.449219 464.886719 250.371094 C 465.238281 250.308594 473.601562 248.925781 478.75 251.816406 C 479.730469 252.363281 478.894531 253.84375 477.917969 253.296875 Z M 477.917969 253.296875 "/></g></svg>