<svg xmlns="http://www.w3.org/2000/svg" xmlns:xlink="http://www.w3.org/1999/xlink" width="1080" zoomAndPan="magnify" viewBox="0 0 810 809.999993" height="1080" preserveAspectRatio="xMidYMid meet" version="1.2"><g id="c1e91255c9"><path style=" stroke:none;fill-rule:nonzero;fill:#aab2bd;fill-opacity:1;" d="M 692.417969 509.515625 L 731.613281 796.933594 L 600.96875 796.933594 L 640.160156 509.515625 Z M 692.417969 509.515625 "/><path style=" stroke:none;fill-rule:nonzero;fill:#ccd1d9;fill-opacity:1;" d="M 796.933594 352.742188 L 796.933594 405 C 796.933594 462.746094 750.164062 509.515625 692.417969 509.515625 L 640.160156 509.515625 C 616.382812 509.515625 594.433594 501.546875 576.929688 488.222656 C 551.84375 469.148438 535.644531 438.96875 535.644531 405 L 535.644531 352.742188 Z M 796.933594 352.742188 "/><path style=" stroke:none;fill-rule:nonzero;fill:#b27946;fill-opacity:1;" d="M 535.644531 352.742188 L 535.644531 378.871094 C 535.644531 350 512.257812 326.613281 483.386719 326.613281 L 457.257812 326.613281 L 457.257812 274.355469 L 535.644531 274.355469 Z M 535.644531 352.742188 "/><path style=" stroke:none;fill-rule:nonzero;fill:#b27946;fill-opacity:1;" d="M 91.453125 274.355469 L 91.453125 326.613281 L 65.324219 326.613281 C 50.953125 326.613281 37.886719 332.492188 28.351562 341.898438 C 18.945312 351.433594 13.066406 364.5 13.066406 378.871094 L 13.066406 274.355469 Z M 91.453125 274.355469 "/><path style=" stroke:none;fill-rule:nonzero;fill:#ff826e;fill-opacity:1;" d="M 535.644531 222.097656 L 405 222.097656 C 403.5625 160.171875 360.84375 80.476562 300.484375 65.324219 L 405 65.324219 C 477.117188 65.324219 535.644531 149.980469 535.644531 222.097656 Z M 535.644531 222.097656 "/><path style=" stroke:none;fill-rule:nonzero;fill:#ff826e;fill-opacity:1;" d="M 143.710938 65.324219 L 248.226562 65.324219 C 186.824219 80.738281 143.710938 162 143.710938 225.363281 L 143.710938 274.355469 L 13.066406 274.355469 L 13.066406 222.097656 C 13.066406 149.980469 71.59375 65.324219 143.710938 65.324219 Z M 143.710938 65.324219 "/><path style=" stroke:none;fill-rule:nonzero;fill:#fc6e51;fill-opacity:1;" d="M 300.484375 26.128906 L 300.484375 65.324219 L 248.226562 65.324219 L 248.226562 26.128906 C 248.226562 18.945312 254.105469 13.066406 261.289062 13.066406 L 287.417969 13.066406 C 294.605469 13.066406 300.484375 18.945312 300.484375 26.128906 Z M 300.484375 26.128906 "/><path style=" stroke:none;fill-rule:nonzero;fill:#fc6e51;fill-opacity:1;" d="M 405 222.097656 L 261.289062 222.097656 C 254.105469 222.097656 248.226562 227.976562 248.226562 235.160156 L 248.226562 274.355469 L 143.710938 274.355469 L 143.710938 225.363281 C 143.710938 162 186.824219 80.738281 248.226562 65.324219 L 300.484375 65.324219 C 360.84375 80.476562 403.5625 160.171875 405 222.097656 Z M 405 222.097656 "/><path style=" stroke:none;fill-rule:nonzero;fill:#fc6e51;fill-opacity:1;" d="M 614.03125 235.160156 L 614.03125 261.289062 C 614.03125 268.476562 608.152344 274.355469 600.96875 274.355469 L 248.226562 274.355469 L 248.226562 235.160156 C 248.226562 227.976562 254.105469 222.097656 261.289062 222.097656 L 600.96875 222.097656 C 608.152344 222.097656 614.03125 227.976562 614.03125 235.160156 Z M 614.03125 235.160156 "/><path style=" stroke:none;fill-rule:nonzero;fill:#fcd770;fill-opacity:1;" d="M 300.484375 692.417969 L 444.195312 692.417969 C 451.378906 692.417969 457.257812 698.296875 457.257812 705.484375 L 457.257812 783.871094 C 457.257812 791.054688 451.378906 796.933594 444.195312 796.933594 L 248.226562 796.933594 C 219.351562 796.933594 195.96875 773.550781 195.96875 744.675781 L 195.96875 640.160156 C 195.96875 625.789062 201.847656 612.726562 211.253906 603.1875 C 220.789062 593.78125 233.855469 587.902344 248.226562 587.902344 C 277.097656 587.902344 300.484375 611.289062 300.484375 640.160156 Z M 300.484375 692.417969 "/><path style=" stroke:none;fill-rule:nonzero;fill:#fcd770;fill-opacity:1;" d="M 300.484375 587.902344 C 343.726562 587.902344 378.871094 623.046875 378.871094 666.289062 L 378.871094 692.417969 L 300.484375 692.417969 L 300.484375 640.160156 C 300.484375 611.289062 277.097656 587.902344 248.226562 587.902344 Z M 300.484375 587.902344 "/><path style=" stroke:none;fill-rule:nonzero;fill:#f0d0b4;fill-opacity:1;" d="M 561.773438 718.546875 L 561.773438 770.804688 C 561.773438 785.175781 550.015625 796.933594 535.644531 796.933594 L 444.195312 796.933594 C 451.378906 796.933594 457.257812 791.054688 457.257812 783.871094 L 457.257812 718.546875 L 475.679688 700.128906 C 477.898438 697.90625 480.511719 696.078125 483.386719 694.769531 C 486.785156 693.203125 490.441406 692.417969 494.230469 692.417969 L 535.644531 692.417969 C 550.015625 692.417969 561.773438 704.175781 561.773438 718.546875 Z M 561.773438 718.546875 "/><path style=" stroke:none;fill-rule:nonzero;fill:#f0d0b4;fill-opacity:1;" d="M 483.386719 326.613281 C 512.257812 326.613281 535.644531 350 535.644531 378.871094 C 535.644531 393.242188 529.765625 406.304688 520.359375 415.84375 C 510.824219 425.25 497.757812 431.128906 483.386719 431.128906 L 457.257812 431.128906 L 457.257812 326.613281 Z M 483.386719 326.613281 "/><path style=" stroke:none;fill-rule:nonzero;fill:#f0d0b4;fill-opacity:1;" d="M 457.257812 431.128906 L 457.257812 457.257812 C 457.257812 467.449219 456.082031 477.507812 453.859375 487.046875 C 440.40625 493.183594 431.128906 506.773438 431.128906 522.582031 L 431.128906 535.644531 C 407.222656 567.390625 369.332031 587.902344 326.613281 587.902344 L 222.097656 587.902344 C 149.980469 587.902344 91.453125 529.375 91.453125 457.257812 L 91.453125 274.355469 L 457.257812 274.355469 Z M 457.257812 431.128906 "/><path style=" stroke:none;fill-rule:nonzero;fill:#f0d0b4;fill-opacity:1;" d="M 91.453125 391.933594 L 91.453125 431.128906 L 65.324219 431.128906 C 36.449219 431.128906 13.066406 407.742188 13.066406 378.871094 C 13.066406 364.5 18.945312 351.433594 28.351562 341.898438 C 37.886719 332.492188 50.953125 326.613281 65.324219 326.613281 L 91.453125 326.613281 Z M 91.453125 391.933594 "/><path style=" stroke:none;fill-rule:nonzero;fill:#ccd1d9;fill-opacity:1;" d="M 548.710938 483.386719 C 558.246094 483.386719 566.871094 486.785156 573.664062 492.402344 C 582.417969 499.457031 587.902344 510.429688 587.902344 522.582031 L 587.902344 535.644531 C 587.902344 559.683594 574.316406 581.632812 552.890625 592.34375 L 535.644531 600.96875 L 535.644531 692.417969 L 494.230469 692.417969 C 490.441406 692.417969 486.785156 693.203125 483.386719 694.769531 L 483.386719 600.96875 L 466.140625 592.34375 C 444.714844 581.632812 431.128906 559.683594 431.128906 535.644531 L 431.128906 522.582031 C 431.128906 506.773438 440.40625 493.183594 453.859375 487.046875 C 458.824219 484.695312 464.445312 483.386719 470.324219 483.386719 L 483.386719 483.386719 L 483.386719 522.582031 C 483.386719 529.765625 489.265625 535.644531 496.453125 535.644531 L 522.582031 535.644531 C 529.765625 535.644531 535.644531 529.765625 535.644531 522.582031 L 535.644531 483.386719 Z M 548.710938 483.386719 "/><path style=" stroke:none;fill-rule:nonzero;fill:#d3a06c;fill-opacity:1;" d="M 209.03125 405 L 339.675781 405 C 350.519531 405 360.320312 409.441406 367.375 416.496094 C 374.429688 423.550781 378.871094 433.351562 378.871094 444.195312 C 378.871094 455.039062 374.429688 464.835938 367.375 471.890625 C 360.320312 478.945312 350.519531 483.386719 339.675781 483.386719 C 326.089844 483.386719 314.070312 476.464844 307.015625 465.878906 C 299.960938 476.464844 288.074219 483.386719 274.355469 483.386719 C 260.636719 483.386719 248.75 476.464844 241.695312 465.878906 C 234.640625 476.464844 222.621094 483.386719 209.03125 483.386719 C 198.1875 483.386719 188.390625 478.945312 181.335938 471.890625 C 174.28125 464.835938 169.839844 455.039062 169.839844 444.195312 C 169.839844 422.507812 187.34375 405 209.03125 405 Z M 209.03125 405 "/><path style=" stroke:none;fill-rule:nonzero;fill:#000000;fill-opacity:1;" d="M 274.355469 496.453125 C 286.714844 496.453125 297.9375 491.957031 306.886719 484.773438 C 316.058594 492.191406 327.539062 496.453125 339.675781 496.453125 C 368.496094 496.453125 391.933594 473.015625 391.933594 444.195312 C 391.933594 415.375 368.496094 391.933594 339.675781 391.933594 L 209.03125 391.933594 C 180.210938 391.933594 156.773438 415.375 156.773438 444.195312 C 156.773438 473.015625 180.210938 496.453125 209.03125 496.453125 C 221.167969 496.453125 232.652344 492.191406 241.824219 484.773438 C 250.773438 491.957031 261.996094 496.453125 274.355469 496.453125 Z M 182.902344 444.195312 C 182.902344 429.785156 194.621094 418.066406 209.03125 418.066406 L 339.675781 418.066406 C 354.085938 418.066406 365.804688 429.785156 365.804688 444.195312 C 365.804688 458.605469 354.085938 470.324219 339.675781 470.324219 C 333.328125 470.324219 327.359375 467.972656 322.679688 463.933594 C 325.1875 457.832031 326.613281 451.183594 326.613281 444.195312 L 300.484375 444.195312 C 300.484375 458.605469 288.765625 470.324219 274.355469 470.324219 C 259.945312 470.324219 248.226562 458.605469 248.226562 444.195312 L 222.097656 444.195312 C 222.097656 451.183594 223.519531 457.832031 226.027344 463.933594 C 221.351562 467.972656 215.382812 470.324219 209.03125 470.324219 C 194.621094 470.324219 182.902344 458.605469 182.902344 444.195312 Z M 182.902344 444.195312 "/><path style=" stroke:none;fill-rule:nonzero;fill:#000000;fill-opacity:1;" d="M 365.804688 339.675781 C 380.214844 339.675781 391.933594 351.394531 391.933594 365.804688 L 418.066406 365.804688 C 418.066406 336.984375 394.625 313.546875 365.804688 313.546875 C 336.984375 313.546875 313.546875 336.984375 313.546875 365.804688 L 339.675781 365.804688 C 339.675781 351.394531 351.394531 339.675781 365.804688 339.675781 Z M 365.804688 339.675781 "/><path style=" stroke:none;fill-rule:nonzero;fill:#000000;fill-opacity:1;" d="M 182.902344 339.675781 C 197.3125 339.675781 209.03125 351.394531 209.03125 365.804688 L 235.160156 365.804688 C 235.160156 336.984375 211.722656 313.546875 182.902344 313.546875 C 154.082031 313.546875 130.644531 336.984375 130.644531 365.804688 L 156.773438 365.804688 C 156.773438 351.394531 168.492188 339.675781 182.902344 339.675781 Z M 182.902344 339.675781 "/><path style=" stroke:none;fill-rule:nonzero;fill:#000000;fill-opacity:1;" d="M 810 405 L 810 339.675781 L 783.871094 339.675781 L 783.871094 156.773438 C 783.871094 120.753906 754.566406 91.453125 718.546875 91.453125 C 682.53125 91.453125 653.226562 120.753906 653.226562 156.773438 L 627.097656 156.773438 L 627.097656 182.902344 L 705.484375 182.902344 L 705.484375 156.773438 L 679.355469 156.773438 C 679.355469 135.164062 696.941406 117.582031 718.546875 117.582031 C 740.15625 117.582031 757.742188 135.164062 757.742188 156.773438 L 757.742188 339.675781 L 548.710938 339.675781 L 548.710938 287.417969 L 600.96875 287.417969 C 615.378906 287.417969 627.097656 275.699219 627.097656 261.289062 L 627.097656 235.160156 C 627.097656 220.75 615.378906 209.03125 600.96875 209.03125 L 548.070312 209.03125 C 541.679688 133.78125 481.492188 52.257812 405 52.257812 L 313.546875 52.257812 L 313.546875 26.128906 C 313.546875 11.71875 301.828125 0 287.417969 0 L 261.289062 0 C 246.878906 0 235.160156 11.71875 235.160156 26.128906 L 235.160156 52.257812 L 143.710938 52.257812 C 62.773438 52.257812 0 143.554688 0 222.097656 L 0 378.871094 C 0 414.890625 29.304688 444.195312 65.324219 444.195312 L 78.386719 444.195312 L 78.386719 457.257812 C 78.386719 528.304688 130.265625 587.316406 198.097656 598.800781 C 188.757812 610.101562 182.902344 624.390625 182.902344 640.160156 L 182.902344 744.675781 C 182.902344 780.695312 212.207031 810 248.226562 810 L 810 810 L 810 783.871094 L 743.019531 783.871094 L 707.246094 521.535156 C 765.097656 514.207031 810 464.808594 810 405 Z M 692.417969 496.453125 L 640.160156 496.453125 C 594.1875 496.453125 556.128906 462.300781 549.753906 418.066406 L 782.824219 418.066406 C 776.449219 462.300781 738.394531 496.453125 692.417969 496.453125 Z M 466.496094 690.839844 L 466.0625 691.269531 C 461.398438 684.109375 453.351562 679.355469 444.195312 679.355469 L 391.933594 679.355469 L 391.933594 666.289062 C 391.933594 638.644531 379.550781 613.875 360.097656 597.085938 C 383.757812 591.496094 405.339844 579.816406 423.355469 563.304688 C 430.070312 580.691406 442.925781 595.335938 460.316406 604.050781 L 470.324219 609.042969 L 470.324219 687.691406 C 469.015625 688.695312 467.683594 689.648438 466.496094 690.839844 Z M 300.144531 600.96875 L 300.484375 600.96875 C 336.503906 600.96875 365.804688 630.269531 365.804688 666.289062 L 365.804688 679.355469 L 313.546875 679.355469 L 313.546875 640.160156 C 313.546875 625.398438 308.441406 611.914062 300.144531 600.96875 Z M 483.386719 418.066406 L 470.324219 418.066406 L 470.324219 398.925781 L 503.703125 376.675781 L 489.214844 354.9375 L 470.324219 367.53125 L 470.324219 339.675781 L 483.386719 339.675781 C 504.996094 339.675781 522.582031 357.261719 522.582031 378.871094 C 522.582031 400.480469 504.996094 418.066406 483.386719 418.066406 Z M 470.324219 457.257812 L 470.324219 444.195312 L 483.386719 444.195312 C 499.273438 444.195312 513.671875 438.261719 525.011719 428.789062 C 528.121094 443.894531 534.15625 457.925781 542.464844 470.324219 L 522.582031 470.324219 L 522.582031 522.582031 L 496.453125 522.582031 L 496.453125 470.324219 L 470.324219 470.324219 C 470.0625 470.324219 469.824219 470.386719 469.578125 470.402344 C 469.96875 466.039062 470.324219 461.660156 470.324219 457.257812 Z M 471.996094 580.664062 C 454.839844 572.082031 444.195312 554.851562 444.195312 535.683594 L 444.195312 522.582031 C 444.195312 508.171875 455.914062 496.453125 470.324219 496.453125 L 470.324219 522.582031 C 470.324219 536.992188 482.042969 548.710938 496.453125 548.710938 L 522.582031 548.710938 C 536.992188 548.710938 548.710938 536.992188 548.710938 522.582031 L 548.710938 496.453125 C 563.121094 496.453125 574.839844 508.171875 574.839844 522.582031 L 574.839844 535.683594 C 574.839844 554.851562 564.191406 572.082031 547.039062 580.664062 L 522.582031 592.894531 L 522.582031 679.355469 L 496.453125 679.355469 L 496.453125 592.894531 Z M 548.710938 681.757812 L 548.710938 609.042969 L 558.730469 604.039062 C 584.78125 590.988281 600.96875 564.792969 600.96875 535.683594 L 600.96875 522.582031 C 600.96875 520.136719 600.574219 517.8125 600.25 515.460938 C 608.257812 518.359375 616.632812 520.4375 625.332031 521.546875 L 589.5625 783.871094 L 572.433594 783.871094 C 573.898438 779.769531 574.839844 775.40625 574.839844 770.804688 L 574.839844 718.546875 C 574.839844 701.539062 563.878906 687.167969 548.710938 681.757812 Z M 783.871094 365.804688 L 783.871094 391.933594 L 548.710938 391.933594 L 548.710938 365.804688 Z M 522.582031 326.953125 C 511.632812 318.65625 498.148438 313.546875 483.386719 313.546875 L 470.324219 313.546875 L 470.324219 287.417969 L 522.582031 287.417969 Z M 600.96875 261.289062 L 261.289062 261.289062 L 261.289062 235.160156 L 600.96875 235.160156 Z M 250.171875 78.386719 L 298.539062 78.386719 C 347.882812 91.621094 384.5 154.566406 390.863281 209.03125 L 261.289062 209.03125 C 246.878906 209.03125 235.160156 220.75 235.160156 235.160156 L 235.160156 261.289062 L 156.773438 261.289062 L 156.773438 225.3125 C 156.773438 167.382812 196.648438 92.757812 250.171875 78.386719 Z M 521.875 209.03125 L 417.226562 209.03125 C 412.511719 161.816406 388.027344 109.742188 351.449219 78.386719 L 405 78.386719 C 465.828125 78.386719 515.566406 146.949219 521.875 209.03125 Z M 261.289062 26.128906 L 287.417969 26.128906 L 287.417969 52.257812 L 261.289062 52.257812 Z M 143.710938 78.386719 L 197.40625 78.386719 C 156.539062 113.558594 130.644531 174.777344 130.644531 225.3125 L 130.644531 261.289062 L 26.128906 261.289062 L 26.128906 222.097656 C 26.128906 157.007812 78.582031 78.386719 143.710938 78.386719 Z M 78.386719 313.546875 L 65.324219 313.546875 C 50.558594 313.546875 37.078125 318.65625 26.128906 326.953125 L 26.128906 287.417969 L 78.386719 287.417969 Z M 65.324219 418.066406 C 43.714844 418.066406 26.128906 400.480469 26.128906 378.871094 C 26.128906 357.261719 43.714844 339.675781 65.324219 339.675781 L 78.386719 339.675781 L 78.386719 367.53125 L 59.507812 354.9375 L 45.019531 376.675781 L 78.386719 398.925781 L 78.386719 418.066406 Z M 104.515625 457.257812 L 104.515625 287.417969 L 444.195312 287.417969 L 444.195312 457.257812 C 444.195312 464.523438 443.34375 471.695312 442.050781 478.761719 C 427.652344 488.078125 418.066406 504.199219 418.066406 522.582031 L 418.066406 530.902344 C 395.621094 558.796875 362.578125 574.839844 326.613281 574.839844 L 222.097656 574.839844 C 157.257812 574.839844 104.515625 522.097656 104.515625 457.257812 Z M 248.226562 783.871094 C 226.617188 783.871094 209.03125 766.285156 209.03125 744.675781 L 209.03125 640.160156 C 209.03125 618.550781 226.617188 600.96875 248.226562 600.96875 C 269.835938 600.96875 287.417969 618.550781 287.417969 640.160156 L 287.417969 687.011719 L 265.117188 709.3125 L 283.589844 727.785156 L 305.894531 705.484375 L 444.195312 705.484375 L 444.21875 783.871094 Z M 470.324219 783.871094 L 470.324219 723.957031 L 484.96875 709.3125 C 487.410156 706.867188 490.769531 705.484375 494.203125 705.484375 L 535.644531 705.484375 C 542.855469 705.484375 548.710938 711.335938 548.710938 718.546875 L 548.710938 770.804688 C 548.710938 778.019531 542.855469 783.871094 535.644531 783.871094 Z M 615.941406 783.871094 L 651.566406 522.582031 L 681.015625 522.582031 L 716.640625 783.871094 Z M 615.941406 783.871094 "/><path style=" stroke:none;fill-rule:nonzero;fill:#000000;fill-opacity:1;" d="M 679.355469 209.03125 L 705.484375 209.03125 L 705.484375 261.289062 L 679.355469 261.289062 Z M 679.355469 209.03125 "/><path style=" stroke:none;fill-rule:nonzero;fill:#000000;fill-opacity:1;" d="M 653.226562 287.417969 L 679.355469 287.417969 L 679.355469 313.546875 L 653.226562 313.546875 Z M 653.226562 287.417969 "/></g></svg>