<svg xmlns="http://www.w3.org/2000/svg" xmlns:xlink="http://www.w3.org/1999/xlink" width="1080" zoomAndPan="magnify" viewBox="0 0 810 809.999993" height="1080" preserveAspectRatio="xMidYMid meet" version="1.2"><defs><clipPath id="a6599de516"><path d="M 17 711 L 218 711 L 218 782.585938 L 17 782.585938 Z M 17 711 "/></clipPath><clipPath id="c670ea98fd"><path d="M 405 676 L 810 676 L 810 782.585938 L 405 782.585938 Z M 405 676 "/></clipPath><clipPath id="749e331311"><path d="M 107 27.335938 L 127 27.335938 L 127 280 L 107 280 Z M 107 27.335938 "/></clipPath></defs><g id="6f24d547c9"><path style=" stroke:none;fill-rule:nonzero;fill:#000000;fill-opacity:1;" d="M 283.246094 592.210938 C 283.277344 592.214844 283.308594 592.222656 283.335938 592.226562 L 346.15625 603.585938 C 348.253906 603.964844 350.390625 603.488281 352.160156 602.238281 C 353.761719 601.101562 354.867188 599.449219 355.402344 597.546875 L 279.070312 566.914062 C 265.304688 561.390625 254.941406 549.503906 251.347656 535.117188 L 241.09375 494.070312 L 227.011719 496.40625 C 226.644531 496.46875 226.277344 496.945312 226.363281 497.546875 L 237.671875 572.820312 C 238.699219 579.679688 243.832031 585.089844 250.4375 586.28125 Z M 283.246094 592.210938 "/><path style=" stroke:none;fill-rule:nonzero;fill:#000000;fill-opacity:1;" d="M 335.390625 482.605469 C 332.984375 484.734375 331.019531 487.351562 329.648438 490.367188 C 327.089844 496.003906 326.878906 502.304688 329.058594 508.101562 C 329.835938 510.183594 330.902344 512.101562 332.195312 513.835938 C 332.671875 514.277344 333.089844 514.765625 333.410156 515.316406 C 335.542969 517.722656 338.160156 519.691406 341.175781 521.0625 C 344.195312 522.433594 347.40625 523.109375 350.625 523.125 C 351.246094 523.007812 351.886719 523 352.527344 523.066406 C 354.6875 522.902344 356.835938 522.4375 358.914062 521.65625 C 364.714844 519.480469 369.316406 515.175781 371.878906 509.535156 C 373.242188 506.53125 373.917969 503.34375 373.945312 500.140625 C 372.0625 501.113281 369.921875 501.792969 367.582031 502.125 C 366.4375 502.289062 365.257812 502.371094 364.058594 502.371094 C 359.808594 502.371094 355.285156 501.359375 351.007812 499.414062 C 342.679688 495.628906 337.023438 489.199219 335.390625 482.605469 Z M 335.390625 482.605469 "/><path style=" stroke:none;fill-rule:nonzero;fill:#000000;fill-opacity:1;" d="M 809.34375 170.945312 L 809.34375 161.578125 C 809.234375 161.101562 809.164062 160.609375 809.164062 160.101562 C 809.164062 155.082031 807.722656 151.023438 804.988281 148.367188 C 802.679688 146.121094 799.488281 144.882812 796.003906 144.882812 C 789.664062 144.882812 782.839844 149.140625 782.839844 158.488281 L 782.839844 170.945312 C 786.746094 168.113281 791.261719 166.460938 796.09375 166.460938 C 800.921875 166.460938 805.4375 168.113281 809.34375 170.945312 Z M 809.34375 170.945312 "/><path style=" stroke:none;fill-rule:nonzero;fill:#000000;fill-opacity:1;" d="M 424.226562 633.597656 C 431.21875 639.765625 442.1875 644.496094 454.878906 643.195312 C 434.894531 621.589844 436.738281 601.535156 440.054688 590.792969 C 446.503906 569.898438 467.789062 553.09375 490.664062 550.839844 C 490.742188 550.832031 490.816406 550.824219 490.894531 550.820312 L 596.90625 544.097656 C 604.207031 543.683594 610.910156 546 615.832031 550.644531 C 620.988281 555.507812 623.828125 562.589844 623.828125 570.585938 L 623.828125 630.210938 L 691.839844 630.210938 C 655.207031 561.640625 683.863281 498.648438 705.054688 452.066406 C 714.800781 430.652344 723.210938 412.15625 723.210938 398.335938 L 723.210938 365.210938 C 723.210938 354.167969 719.664062 352.019531 714.757812 349.042969 C 713.71875 348.414062 712.710938 347.796875 711.757812 347.136719 C 706.484375 343.503906 703.335938 337.4375 703.335938 330.910156 L 703.335938 298.542969 C 703.335938 292.625 705.941406 287.058594 710.488281 283.273438 C 710.773438 283.035156 711.074219 282.824219 711.398438 282.636719 L 756.417969 256.441406 C 764.542969 251.714844 769.589844 242.9375 769.589844 233.535156 L 769.589844 158.488281 C 769.589844 141.046875 783.203125 131.636719 796.007812 131.636719 C 800.820312 131.636719 805.386719 132.890625 809.34375 135.199219 L 809.34375 126.710938 C 809.34375 113.085938 801.390625 103.96875 788.066406 102.324219 C 768.003906 99.859375 743.351562 114.710938 734.898438 147.890625 L 726.082031 207.1875 C 726.0625 207.308594 726.042969 207.429688 726.015625 207.550781 C 720.308594 235.210938 705.507812 254.8125 682.03125 265.8125 C 663.121094 274.976562 651.210938 286.492188 646.707031 300.003906 C 640.023438 320.066406 650.839844 341.027344 656.035156 351.097656 C 660.972656 360.664062 663.582031 371.375 663.582031 382.070312 C 663.582031 431.289062 632.074219 497.035156 618.933594 516.160156 C 612.617188 525.351562 602.0625 530.835938 590.699219 530.835938 L 484.691406 530.835938 C 455.640625 530.835938 437.414062 554.070312 415.765625 594.214844 C 407.78125 610.710938 414.890625 625.371094 424.226562 633.597656 Z M 424.226562 633.597656 "/><path style=" stroke:none;fill-rule:nonzero;fill:#000000;fill-opacity:1;" d="M 223.609375 662.726562 C 231.0625 666.453125 237.203125 667.652344 241.367188 666.203125 C 242.464844 665.820312 243.375 664.804688 243.683594 663.613281 C 243.902344 662.777344 243.777344 662.09375 243.320312 661.582031 C 212.207031 626.675781 200.34375 610.167969 188.871094 594.203125 L 187.988281 592.976562 C 186.121094 590.375 182.617188 589.613281 179.84375 591.199219 C 176.960938 592.847656 175.882812 596.457031 177.386719 599.417969 L 191.859375 627.097656 C 195.597656 634.457031 194.488281 643.164062 189.066406 649.347656 C 186.289062 652.515625 183.644531 655.34375 181.425781 657.644531 C 191.496094 664.152344 201.292969 671.746094 210.480469 680.574219 C 214.207031 684.160156 218.824219 686.714844 223.71875 687.992188 C 221.132812 683.105469 217.894531 677.214844 214.886719 671.929688 C 213.445312 669.394531 213.832031 666.210938 215.835938 664.097656 C 217.847656 661.976562 221 661.421875 223.609375 662.726562 Z M 223.609375 662.726562 "/><path style=" stroke:none;fill-rule:nonzero;fill:#000000;fill-opacity:1;" d="M 391.929688 708.269531 L 391.929688 691.105469 C 331.023438 673.425781 313.109375 631.664062 307.886719 610.132812 L 289.847656 606.871094 C 291.378906 615.9375 295.125 631.265625 304.207031 647.371094 C 322.027344 678.972656 351.519531 699.425781 391.929688 708.269531 Z M 391.929688 708.269531 "/><path style=" stroke:none;fill-rule:nonzero;fill:#000000;fill-opacity:1;" d="M 365.710938 489.007812 C 367.464844 488.757812 368.5 488.128906 368.71875 487.648438 C 368.980469 487.066406 368.628906 485.429688 367.101562 483.511719 C 365.167969 481.59375 362.902344 479.996094 360.347656 478.835938 C 357.785156 477.671875 355.082031 477.023438 352.351562 476.832031 C 349.925781 476.949219 348.46875 477.757812 348.207031 478.335938 C 347.632812 479.601562 349.824219 484.320312 356.484375 487.347656 C 359.65625 488.785156 363.015625 489.394531 365.710938 489.007812 Z M 365.710938 489.007812 "/><path style=" stroke:none;fill-rule:nonzero;fill:#000000;fill-opacity:1;" d="M 295.085938 544.003906 C 286.082031 540.21875 279.234375 532.707031 276.304688 523.382812 L 266.015625 490.625 C 265.910156 490.308594 265.609375 490.066406 265.289062 490.066406 C 265.257812 490.066406 265.222656 490.070312 265.1875 490.074219 L 254.207031 491.894531 L 264.203125 531.902344 C 266.769531 542.183594 274.171875 550.671875 284.003906 554.621094 L 357.671875 584.179688 L 358.679688 577.984375 C 359.332031 573.992188 357.277344 570.132812 353.683594 568.601562 Z M 295.085938 544.003906 "/><path style=" stroke:none;fill-rule:nonzero;fill:#000000;fill-opacity:1;" d="M 336.644531 547.074219 L 341.984375 535.3125 C 339.851562 534.777344 337.75 534.058594 335.699219 533.128906 C 333.640625 532.191406 331.714844 531.078125 329.921875 529.828125 L 324.421875 541.945312 Z M 336.644531 547.074219 "/><path style=" stroke:none;fill-rule:nonzero;fill:#000000;fill-opacity:1;" d="M 497.9375 597.6875 C 497.9375 598.121094 497.898438 598.554688 497.8125 598.980469 C 497.726562 599.40625 497.601562 599.820312 497.433594 600.222656 C 497.269531 600.625 497.0625 601.007812 496.824219 601.367188 C 496.582031 601.730469 496.304688 602.0625 496 602.371094 C 495.691406 602.679688 495.355469 602.953125 494.996094 603.195312 C 494.632812 603.4375 494.25 603.640625 493.847656 603.808594 C 493.445312 603.972656 493.03125 604.101562 492.605469 604.183594 C 492.179688 604.269531 491.75 604.3125 491.3125 604.3125 C 490.878906 604.3125 490.449219 604.269531 490.019531 604.183594 C 489.59375 604.101562 489.179688 603.972656 488.777344 603.808594 C 488.375 603.640625 487.996094 603.4375 487.632812 603.195312 C 487.269531 602.953125 486.9375 602.679688 486.628906 602.371094 C 486.320312 602.0625 486.046875 601.730469 485.804688 601.367188 C 485.5625 601.007812 485.359375 600.625 485.191406 600.222656 C 485.027344 599.820312 484.898438 599.40625 484.816406 598.980469 C 484.730469 598.554688 484.6875 598.121094 484.6875 597.6875 C 484.6875 597.253906 484.730469 596.820312 484.816406 596.394531 C 484.898438 595.96875 485.027344 595.554688 485.191406 595.152344 C 485.359375 594.75 485.5625 594.367188 485.804688 594.007812 C 486.046875 593.644531 486.320312 593.308594 486.628906 593.003906 C 486.9375 592.695312 487.269531 592.421875 487.632812 592.179688 C 487.996094 591.9375 488.375 591.734375 488.777344 591.566406 C 489.179688 591.398438 489.59375 591.273438 490.019531 591.1875 C 490.449219 591.105469 490.878906 591.0625 491.3125 591.0625 C 491.75 591.0625 492.179688 591.105469 492.605469 591.1875 C 493.03125 591.273438 493.445312 591.398438 493.847656 591.566406 C 494.25 591.734375 494.632812 591.9375 494.996094 592.179688 C 495.355469 592.421875 495.691406 592.695312 496 593.003906 C 496.304688 593.308594 496.582031 593.644531 496.824219 594.007812 C 497.0625 594.367188 497.269531 594.75 497.433594 595.152344 C 497.601562 595.554688 497.726562 595.96875 497.8125 596.394531 C 497.898438 596.820312 497.9375 597.253906 497.9375 597.6875 Z M 497.9375 597.6875 "/><path style=" stroke:none;fill-rule:nonzero;fill:#000000;fill-opacity:1;" d="M 557.441406 696.460938 L 716.585938 696.460938 L 716.585938 658.921875 C 716.585938 650.40625 710.65625 643.480469 703.363281 643.464844 C 703.355469 643.464844 703.351562 643.464844 703.347656 643.464844 C 703.34375 643.464844 703.339844 643.464844 703.339844 643.464844 C 703.332031 643.464844 703.324219 643.460938 703.316406 643.460938 C 703.316406 643.460938 703.316406 643.460938 703.3125 643.460938 L 579.824219 643.460938 C 583.429688 650.816406 583.121094 659.8125 578.304688 667.058594 C 571.902344 676.6875 563.953125 688.085938 557.441406 696.460938 Z M 557.441406 696.460938 "/><path style=" stroke:none;fill-rule:nonzero;fill:#000000;fill-opacity:1;" d="M 809.34375 199.585938 C 809.34375 200.238281 809.320312 200.886719 809.28125 201.535156 C 809.238281 202.183594 809.171875 202.828125 809.089844 203.464844 C 809.003906 204.101562 808.898438 204.734375 808.773438 205.355469 C 808.648438 205.980469 808.5 206.59375 808.335938 207.191406 C 808.167969 207.792969 807.984375 208.382812 807.777344 208.957031 C 807.574219 209.53125 807.351562 210.089844 807.109375 210.628906 C 806.867188 211.171875 806.609375 211.691406 806.335938 212.195312 C 806.058594 212.699219 805.769531 213.179688 805.460938 213.640625 C 805.15625 214.101562 804.832031 214.539062 804.5 214.949219 C 804.164062 215.363281 803.816406 215.75 803.453125 216.113281 C 803.09375 216.472656 802.722656 216.808594 802.339844 217.117188 C 801.957031 217.421875 801.5625 217.699219 801.164062 217.949219 C 800.761719 218.199219 800.355469 218.417969 799.9375 218.605469 C 799.523438 218.796875 799.101562 218.953125 798.675781 219.082031 C 798.25 219.207031 797.824219 219.304688 797.390625 219.367188 C 796.957031 219.429688 796.527344 219.460938 796.09375 219.460938 C 795.65625 219.460938 795.226562 219.429688 794.792969 219.367188 C 794.359375 219.304688 793.933594 219.207031 793.507812 219.082031 C 793.082031 218.953125 792.660156 218.796875 792.246094 218.605469 C 791.828125 218.417969 791.421875 218.199219 791.019531 217.949219 C 790.621094 217.699219 790.226562 217.421875 789.84375 217.117188 C 789.460938 216.808594 789.089844 216.472656 788.730469 216.113281 C 788.367188 215.75 788.019531 215.363281 787.683594 214.949219 C 787.351562 214.539062 787.027344 214.101562 786.722656 213.640625 C 786.414062 213.179688 786.125 212.699219 785.847656 212.195312 C 785.574219 211.691406 785.316406 211.171875 785.074219 210.628906 C 784.832031 210.089844 784.609375 209.53125 784.40625 208.957031 C 784.199219 208.382812 784.015625 207.792969 783.847656 207.191406 C 783.683594 206.59375 783.539062 205.980469 783.410156 205.355469 C 783.285156 204.734375 783.179688 204.101562 783.09375 203.464844 C 783.011719 202.828125 782.945312 202.183594 782.90625 201.535156 C 782.863281 200.886719 782.839844 200.238281 782.839844 199.585938 C 782.839844 198.9375 782.863281 198.289062 782.90625 197.640625 C 782.945312 196.992188 783.011719 196.347656 783.09375 195.710938 C 783.179688 195.070312 783.285156 194.441406 783.410156 193.816406 C 783.539062 193.195312 783.683594 192.582031 783.847656 191.980469 C 784.015625 191.378906 784.199219 190.792969 784.40625 190.21875 C 784.609375 189.644531 784.832031 189.085938 785.074219 188.546875 C 785.316406 188.003906 785.574219 187.480469 785.847656 186.980469 C 786.125 186.476562 786.414062 185.992188 786.722656 185.535156 C 787.027344 185.074219 787.351562 184.636719 787.683594 184.222656 C 788.019531 183.8125 788.367188 183.421875 788.730469 183.0625 C 789.089844 182.699219 789.460938 182.367188 789.84375 182.058594 C 790.226562 181.753906 790.621094 181.472656 791.019531 181.226562 C 791.421875 180.976562 791.828125 180.757812 792.246094 180.566406 C 792.660156 180.378906 793.082031 180.222656 793.507812 180.09375 C 793.933594 179.96875 794.359375 179.871094 794.792969 179.808594 C 795.226562 179.746094 795.65625 179.710938 796.09375 179.710938 C 796.527344 179.710938 796.957031 179.746094 797.390625 179.808594 C 797.824219 179.871094 798.25 179.96875 798.675781 180.09375 C 799.101562 180.222656 799.523438 180.378906 799.9375 180.566406 C 800.355469 180.757812 800.761719 180.976562 801.164062 181.226562 C 801.5625 181.472656 801.957031 181.753906 802.339844 182.058594 C 802.722656 182.367188 803.09375 182.699219 803.453125 183.0625 C 803.816406 183.421875 804.164062 183.8125 804.5 184.222656 C 804.832031 184.636719 805.15625 185.074219 805.460938 185.535156 C 805.769531 185.992188 806.058594 186.476562 806.335938 186.980469 C 806.609375 187.480469 806.867188 188.003906 807.109375 188.546875 C 807.351562 189.085938 807.574219 189.644531 807.777344 190.21875 C 807.984375 190.792969 808.167969 191.378906 808.335938 191.980469 C 808.5 192.582031 808.648438 193.195312 808.773438 193.816406 C 808.898438 194.441406 809.003906 195.070312 809.089844 195.710938 C 809.171875 196.347656 809.238281 196.992188 809.28125 197.640625 C 809.320312 198.289062 809.34375 198.9375 809.34375 199.585938 Z M 809.34375 199.585938 "/><path style=" stroke:none;fill-rule:nonzero;fill:#000000;fill-opacity:1;" d="M 583.886719 630.210938 C 583.300781 617.570312 581.375 599.480469 579.917969 592.195312 C 579.308594 589.144531 576.640625 586.917969 573.546875 586.855469 L 540.03125 588.4375 C 539.925781 588.441406 539.820312 588.445312 539.71875 588.445312 C 537.765625 588.445312 535.988281 589.253906 534.710938 590.730469 C 533.433594 592.203125 532.882812 594.078125 533.15625 596.007812 C 533.167969 596.074219 533.175781 596.140625 533.183594 596.207031 L 536.992188 630.210938 Z M 583.886719 630.210938 "/><path style=" stroke:none;fill-rule:nonzero;fill:#000000;fill-opacity:1;" d="M 809.34375 228.230469 C 805.4375 231.0625 800.921875 232.710938 796.09375 232.710938 C 791.261719 232.710938 786.746094 231.0625 782.839844 228.230469 L 782.839844 233.539062 C 782.839844 247.636719 775.269531 260.800781 763.078125 267.894531 L 718.621094 293.761719 C 717.320312 295.007812 716.585938 296.726562 716.585938 298.542969 L 716.585938 330.910156 C 716.585938 333.078125 717.589844 335.070312 719.28125 336.234375 C 720.027344 336.75 720.820312 337.226562 721.628906 337.714844 C 727.535156 341.296875 736.460938 346.710938 736.460938 365.210938 L 736.460938 398.335938 C 736.460938 415.03125 727.496094 434.738281 717.117188 457.554688 C 695.304688 505.492188 668.246094 564.96875 707.039062 630.195312 C 714.359375 629.613281 720.035156 625.59375 724.035156 621.097656 C 695.921875 583.28125 714.902344 525.902344 736.777344 459.84375 C 752.90625 411.125 769.589844 360.742188 769.589844 312.210938 C 769.589844 301.554688 763.449219 294.527344 763.386719 294.460938 C 760.96875 291.738281 761.175781 287.5625 763.875 285.121094 C 766.574219 282.679688 770.71875 282.855469 773.179688 285.535156 C 773.574219 285.964844 782.839844 296.234375 782.839844 312.210938 C 782.839844 362.878906 765.050781 416.605469 749.355469 464.003906 C 729.746094 523.230469 712.605469 575.054688 731.285156 607.949219 L 804.691406 309.738281 C 808.09375 296.816406 809.738281 283.703125 809.347656 272.699219 C 809.34375 272.621094 809.339844 272.542969 809.339844 272.460938 L 809.339844 228.230469 Z M 809.34375 228.230469 "/><path style=" stroke:none;fill-rule:nonzero;fill:#000000;fill-opacity:1;" d="M 478.0625 658.921875 L 478.0625 676.585938 L 502.003906 676.585938 C 505.894531 676.585938 509.574219 674.886719 512.097656 671.921875 L 536.304688 643.460938 L 491.3125 643.460938 C 484.003906 643.460938 478.0625 650.394531 478.0625 658.921875 Z M 478.0625 658.921875 "/><path style=" stroke:none;fill-rule:nonzero;fill:#000000;fill-opacity:1;" d="M 365.542969 422.460938 C 365.855469 425.097656 367.171875 427.453125 369.257812 429.097656 C 371.34375 430.742188 373.9375 431.484375 376.578125 431.160156 L 383.160156 430.378906 C 385.796875 430.066406 388.152344 428.746094 389.796875 426.664062 C 391.4375 424.578125 392.171875 421.980469 391.859375 419.34375 L 370.800781 241.710938 C 370.203125 236.664062 365.902344 232.941406 360.941406 232.941406 C 360.550781 232.941406 360.15625 232.964844 359.761719 233.015625 L 353.179688 233.792969 C 350.542969 234.105469 348.1875 235.425781 346.546875 237.511719 C 344.902344 239.597656 344.167969 242.195312 344.484375 244.832031 Z M 365.542969 422.460938 "/><path style=" stroke:none;fill-rule:nonzero;fill:#000000;fill-opacity:1;" d="M 451.558594 736.210938 L 741.609375 736.210938 C 739.449219 729.949219 734.117188 720.054688 720.960938 709.710938 L 545.160156 709.710938 C 534.773438 718.191406 521.457031 722.960938 507.613281 722.960938 L 451.558594 722.960938 Z M 451.558594 736.210938 "/><path style=" stroke:none;fill-rule:nonzero;fill:#000000;fill-opacity:1;" d="M 597.707031 557.324219 L 491.851562 564.035156 C 474.382812 565.808594 457.570312 578.976562 452.710938 594.699219 C 448.121094 609.582031 453.925781 624.859375 469.503906 639.054688 C 471.78125 637.992188 474.078125 636.726562 476.394531 635.214844 C 480.644531 632.0625 485.78125 630.210938 491.3125 630.210938 L 523.65625 630.210938 L 520.027344 597.773438 C 519.25 592.097656 520.953125 586.375 524.703125 582.046875 C 528.445312 577.738281 533.847656 575.246094 539.546875 575.195312 L 573.105469 573.613281 C 573.210938 573.609375 573.316406 573.605469 573.417969 573.605469 C 582.863281 573.605469 591.0625 580.332031 592.914062 589.597656 C 594.644531 598.253906 596.570312 617.339844 597.144531 630.210938 L 610.574219 630.210938 L 610.574219 570.585938 C 610.574219 566.214844 609.246094 562.652344 606.738281 560.28125 C 604.460938 558.136719 601.34375 557.113281 597.707031 557.324219 Z M 491.3125 617.5625 C 480.351562 617.5625 471.4375 608.644531 471.4375 597.6875 C 471.4375 586.726562 480.351562 577.8125 491.3125 577.8125 C 502.273438 577.8125 511.191406 586.726562 511.191406 597.6875 C 511.191406 608.644531 502.273438 617.5625 491.3125 617.5625 Z M 491.3125 617.5625 "/><path style=" stroke:none;fill-rule:nonzero;fill:#000000;fill-opacity:1;" d="M 451.558594 709.710938 L 507.613281 709.710938 C 520.328125 709.710938 532.441406 704.597656 540.859375 695.675781 C 547.121094 689.039062 559 672.160156 567.269531 659.722656 C 570.339844 655.105469 569.261719 648.871094 564.8125 645.539062 C 560.273438 642.132812 553.707031 643.058594 550.175781 647.597656 C 550.117188 647.671875 550.054688 647.746094 549.996094 647.820312 L 522.1875 680.507812 C 517.144531 686.4375 509.785156 689.835938 502 689.835938 L 451.558594 689.835938 Z M 451.558594 709.710938 "/><path style=" stroke:none;fill-rule:nonzero;fill:#000000;fill-opacity:1;" d="M 18.160156 534.488281 C 19.871094 533.800781 21.1875 532.476562 21.863281 530.757812 C 21.882812 530.707031 21.90625 530.652344 21.929688 530.597656 L 24.761719 523.90625 C 18.738281 520.992188 12.105469 517.777344 4.8125 514.242188 L 1.476562 522.1875 C 0.171875 525.394531 1.644531 529.128906 4.859375 530.621094 L 12.90625 534.351562 C 14.582031 535.125 16.449219 535.175781 18.160156 534.488281 Z M 18.160156 534.488281 "/><path style=" stroke:none;fill-rule:nonzero;fill:#000000;fill-opacity:1;" d="M 21.476562 675.003906 L 27.917969 678.222656 L 43.320312 644.234375 L 80.410156 550.683594 C 77.003906 549.113281 71.441406 546.460938 62.113281 541.96875 L 14.828125 658.191406 C 12.28125 664.609375 15.191406 672.011719 21.476562 675.003906 Z M 21.476562 675.003906 "/><g clip-rule="nonzero" clip-path="url(#a6599de516)"><path style=" stroke:none;fill-rule:nonzero;fill:#000000;fill-opacity:1;" d="M 166.660156 762.710938 L 58.960938 762.710938 C 49.464844 762.710938 44.496094 758.8125 42 755.539062 C 38.679688 751.1875 37.761719 745.453125 39.421875 739.398438 C 41.488281 731.867188 43.542969 727.71875 46.148438 722.46875 C 46.230469 722.304688 46.320312 722.121094 46.402344 721.953125 L 43.65625 721.363281 C 37.332031 720.007812 31.859375 716.433594 28.058594 711.359375 L 21.289062 727.289062 C 15.40625 741.125 16.121094 755.769531 23.195312 766.464844 C 30.074219 776.863281 42.386719 782.585938 57.871094 782.585938 L 173.285156 782.585938 C 183.207031 782.585938 209.566406 776.09375 217.683594 756.050781 C 210.082031 755.898438 202.480469 755.128906 195 753.738281 C 190.796875 757.492188 182.171875 762.710938 166.660156 762.710938 Z M 166.660156 762.710938 "/></g><path style=" stroke:none;fill-rule:nonzero;fill:#000000;fill-opacity:1;" d="M 3.195312 498.734375 C 36.023438 514.644531 85.375 538.507812 89.144531 540.207031 C 89.410156 540.300781 89.664062 540.375 89.914062 540.433594 C 90.089844 540.460938 90.269531 540.496094 90.445312 540.535156 C 93.921875 541.085938 95.722656 538.453125 96.523438 536.683594 C 97.597656 534.3125 98.035156 530.269531 95.210938 528.300781 C 95.046875 528.203125 94.898438 528.09375 94.75 527.984375 C 91.917969 526.625 70.019531 516.113281 49.035156 506.039062 C 30.171875 496.988281 12.058594 488.289062 9.199219 486.917969 C 5.199219 485.714844 3.070312 489.328125 2.328125 490.964844 C 1.328125 493.179688 0.703125 497.199219 3.195312 498.734375 Z M 3.195312 498.734375 "/><path style=" stroke:none;fill-rule:nonzero;fill:#000000;fill-opacity:1;" d="M 305.796875 727.539062 C 305.796875 725.355469 303.757812 722.230469 301.832031 721.464844 C 276.523438 711.394531 250.847656 705.9375 233.953125 703.140625 C 233.949219 703.140625 233.941406 703.140625 233.9375 703.136719 C 230.660156 702.59375 227.683594 702.144531 225.136719 701.789062 C 216.179688 700.535156 207.933594 696.503906 201.296875 690.125 C 161.09375 651.484375 108.582031 637.882812 75.019531 637.882812 C 74.457031 637.882812 73.90625 637.882812 73.355469 637.890625 C 65.65625 638 58.632812 642.570312 55.460938 649.546875 L 37.191406 689.867188 L 37.121094 690.035156 C 35.480469 693.691406 35.570312 697.832031 37.375 701.414062 C 39.1875 705.015625 42.488281 707.5625 46.429688 708.410156 L 57.441406 710.769531 C 57.449219 710.769531 57.453125 710.773438 57.460938 710.773438 L 194.070312 740.046875 C 202.726562 741.898438 211.601562 742.835938 220.449219 742.835938 L 305.792969 742.835938 L 305.792969 727.539062 Z M 305.796875 727.539062 "/><path style=" stroke:none;fill-rule:nonzero;fill:#000000;fill-opacity:1;" d="M 58.960938 749.460938 L 166.660156 749.460938 C 168.96875 749.460938 171.015625 749.304688 172.878906 749.054688 L 59.753906 724.8125 C 59.140625 726.085938 58.5625 727.257812 58.019531 728.351562 C 55.558594 733.320312 53.929688 736.601562 52.203125 742.902344 C 51.667969 744.851562 51.792969 746.527344 52.535156 747.503906 C 53.484375 748.75 55.828125 749.460938 58.960938 749.460938 Z M 58.960938 749.460938 "/><path style=" stroke:none;fill-rule:nonzero;fill:#000000;fill-opacity:1;" d="M 391.929688 749.460938 L 317.253906 749.460938 C 314.957031 753.414062 310.6875 756.085938 305.796875 756.085938 L 231.652344 756.085938 C 230.300781 761.03125 228.207031 765.433594 225.585938 769.335938 L 395.503906 769.335938 C 393.1875 765.347656 391.929688 760.820312 391.929688 756.085938 Z M 391.929688 749.460938 "/><g clip-rule="nonzero" clip-path="url(#c670ea98fd)"><path style=" stroke:none;fill-rule:nonzero;fill:#000000;fill-opacity:1;" d="M 791.46875 749.460938 L 444.933594 749.460938 C 441.273438 749.460938 438.308594 746.496094 438.308594 742.835938 L 438.308594 683.210938 C 438.308594 679.558594 435.335938 676.585938 431.683594 676.585938 L 411.804688 676.585938 C 408.152344 676.585938 405.179688 679.558594 405.179688 683.210938 L 405.179688 756.085938 C 405.179688 759.625 406.558594 762.953125 409.0625 765.457031 L 422.3125 778.707031 C 424.816406 781.210938 428.144531 782.585938 431.683594 782.585938 L 792.777344 782.585938 C 797.367188 782.585938 801.636719 780.753906 804.796875 777.421875 C 807.957031 774.097656 809.5625 769.726562 809.320312 765.125 C 808.867188 756.488281 800.855469 749.460938 791.46875 749.460938 Z M 791.46875 749.460938 "/></g><path style=" stroke:none;fill-rule:nonzero;fill:#000000;fill-opacity:1;" d="M 320.128906 345.335938 L 343.050781 345.335938 L 339.910156 318.835938 L 319.046875 318.835938 L 319.046875 343.589844 C 319.164062 343.777344 319.273438 343.960938 319.394531 344.148438 C 319.636719 344.542969 319.882812 344.941406 320.128906 345.335938 Z M 320.128906 345.335938 "/><path style=" stroke:none;fill-rule:nonzero;fill:#000000;fill-opacity:1;" d="M 46.84375 471.746094 C 40.75 468.792969 34.066406 465.554688 26.761719 462.015625 L 20.246094 477.523438 C 24.929688 479.773438 32.117188 483.222656 40.316406 487.160156 Z M 46.84375 471.746094 "/><path style=" stroke:none;fill-rule:nonzero;fill:#000000;fill-opacity:1;" d="M 149.304688 448.859375 L 197.765625 438.488281 C 207.933594 436.449219 216.726562 430.703125 222.621094 422.285156 L 250.851562 381.960938 L 235.347656 368.0625 L 212.746094 400.066406 C 204.902344 411.273438 193.171875 418.9375 179.730469 421.625 L 136.117188 431.347656 C 121.96875 434.179688 109.417969 442.070312 100.664062 453.382812 C 109.15625 457.457031 116.636719 461.046875 121.511719 463.390625 C 129.183594 455.835938 138.316406 451.054688 149.304688 448.859375 Z M 149.304688 448.859375 "/><path style=" stroke:none;fill-rule:nonzero;fill:#000000;fill-opacity:1;" d="M 93.777344 52.003906 L 60.648438 70.933594 L 60.648438 235.492188 L 93.777344 254.421875 Z M 93.777344 52.003906 "/><path style=" stroke:none;fill-rule:nonzero;fill:#000000;fill-opacity:1;" d="M 47.398438 398.234375 C 47.398438 407.558594 45.625 416.652344 42.164062 425.296875 C 45.746094 427.019531 53 430.5 61.839844 434.742188 C 65.429688 423.574219 67.273438 412.136719 67.273438 400.636719 L 67.273438 254.539062 L 56.15625 248.183594 C 53.929688 249.949219 50.949219 251.238281 47.394531 251.949219 L 47.394531 398.234375 Z M 47.398438 398.234375 "/><path style=" stroke:none;fill-rule:nonzero;fill:#000000;fill-opacity:1;" d="M 224.21875 360.847656 L 224.519531 360.421875 C 226.699219 357.335938 230.101562 355.320312 233.855469 354.894531 C 237.601562 354.46875 241.378906 355.675781 244.191406 358.195312 L 259.695312 372.097656 C 264.679688 376.566406 265.542969 384.074219 261.707031 389.558594 L 260.484375 391.304688 C 263.421875 393.601562 266.265625 395.992188 269.039062 398.34375 C 281.476562 408.90625 292.226562 418.027344 308.792969 416.070312 C 314.957031 415.34375 319.792969 409.878906 320.042969 403.359375 C 321.226562 372.230469 314.867188 361.984375 308.132812 351.136719 C 306.992188 349.300781 305.8125 347.398438 304.671875 345.402344 C 302.316406 341.277344 298.0625 338.710938 293.578125 338.710938 L 246.164062 338.710938 C 242.503906 338.710938 239.539062 335.746094 239.539062 332.085938 C 239.539062 328.429688 242.503906 325.460938 246.164062 325.460938 L 293.578125 325.460938 C 297.890625 325.460938 302.074219 326.59375 305.792969 328.628906 L 305.792969 313.269531 C 305.792969 311.402344 305.039062 309.675781 303.671875 308.40625 C 302.300781 307.140625 300.523438 306.53125 298.664062 306.664062 L 242.628906 310.972656 C 229.710938 311.96875 218.332031 318.019531 211.40625 327.570312 C 207.269531 333.285156 205.773438 338.585938 206.960938 343.332031 C 208.464844 349.324219 214.402344 355.320312 224.21875 360.847656 Z M 224.21875 360.847656 "/><g clip-rule="nonzero" clip-path="url(#749e331311)"><path style=" stroke:none;fill-rule:nonzero;fill:#000000;fill-opacity:1;" d="M 126.90625 27.335938 L 107.027344 27.335938 L 107.027344 279.085938 L 126.910156 279.085938 Z M 126.90625 27.335938 "/></g><path style=" stroke:none;fill-rule:nonzero;fill:#000000;fill-opacity:1;" d="M 28.371094 448.074219 C 61.777344 464.257812 112 488.542969 115.769531 490.242188 C 120.253906 491.835938 122.414062 488.777344 123.308594 486.804688 C 124.425781 484.335938 124.855469 480.007812 121.503906 478.082031 C 117.292969 476.058594 40.402344 439.148438 34.375 436.253906 C 30.253906 434.984375 28.101562 438.585938 27.359375 440.222656 C 26.316406 442.523438 25.75 446.476562 28.371094 448.074219 Z M 28.371094 448.074219 "/><path style=" stroke:none;fill-rule:nonzero;fill:#000000;fill-opacity:1;" d="M 54.769531 494.097656 C 58.265625 495.773438 61.785156 497.464844 65.238281 499.121094 L 71.519531 483.6875 C 67.660156 481.820312 63.425781 479.773438 58.785156 477.527344 L 52.277344 492.898438 C 53.105469 493.296875 53.9375 493.699219 54.769531 494.097656 Z M 54.769531 494.097656 "/><path style=" stroke:none;fill-rule:nonzero;fill:#000000;fill-opacity:1;" d="M 95.160156 513.488281 L 101.292969 498.023438 C 97.152344 496.054688 91.429688 493.304688 83.472656 489.46875 L 77.207031 504.867188 C 84.527344 508.382812 90.886719 511.433594 95.160156 513.488281 Z M 95.160156 513.488281 "/><path style=" stroke:none;fill-rule:nonzero;fill:#000000;fill-opacity:1;" d="M 40.773438 239.335938 C 40.773438 239.335938 40.777344 239.339844 40.78125 239.339844 C 43.414062 239.324219 46.035156 238.933594 47.398438 238.164062 L 47.398438 111.378906 C 39.042969 117.613281 34.144531 126.554688 34.144531 133.226562 L 34.144531 238.242188 C 35.523438 238.988281 38.144531 239.347656 40.765625 239.335938 C 40.765625 239.335938 40.769531 239.335938 40.773438 239.335938 Z M 40.773438 239.335938 "/></g></svg>