<svg xmlns="http://www.w3.org/2000/svg" xmlns:xlink="http://www.w3.org/1999/xlink" width="1080" zoomAndPan="magnify" viewBox="0 0 810 809.999993" height="1080" preserveAspectRatio="xMidYMid meet" version="1.2"><g id="8d9412d6ab"><path style=" stroke:none;fill-rule:evenodd;fill:#ede4ed;fill-opacity:1;" d="M 492.53125 666.0625 L 492.53125 76.789062 C 492.53125 34.601562 458.050781 0.0625 415.875 0.0625 L 76.628906 0.0625 C 34.449219 0.0625 -0.078125 34.601562 -0.078125 76.789062 L -0.078125 666.0625 Z M 492.53125 666.0625 "/><path style=" stroke:none;fill-rule:evenodd;fill:#f2eff2;fill-opacity:1;" d="M 457.476562 12.453125 C 445.472656 4.609375 431.175781 0.0625 415.871094 0.0625 L 76.628906 0.0625 C 34.449219 0.0625 -0.078125 34.601562 -0.078125 76.789062 L -0.078125 645.113281 L 471.058594 645.113281 L 471.058594 55.839844 C 471.058594 39.769531 466.035156 24.796875 457.480469 12.453125 Z M 457.476562 12.453125 "/><path style=" stroke:none;fill-rule:evenodd;fill:#3f6d91;fill-opacity:1;" d="M 358.488281 0.0664062 L 134.015625 0.0664062 L 144.582031 71.003906 C 146.207031 81.8125 155.339844 89.707031 166.292969 89.707031 L 326.210938 89.707031 C 337.160156 89.707031 346.292969 81.8125 347.917969 71.003906 Z M 358.488281 0.0664062 "/><path style=" stroke:none;fill-rule:evenodd;fill:#487ca5;fill-opacity:1;" d="M 337.734375 0.0664062 L 134.015625 0.0664062 L 144.582031 71.003906 C 144.820312 72.726562 145.25 74.351562 145.875 75.882812 C 146.449219 75.929688 147.019531 75.929688 147.597656 75.929688 L 307.558594 75.929688 C 318.460938 75.929688 327.597656 68.039062 329.222656 57.226562 Z M 337.734375 0.0664062 "/><path style=" stroke:none;fill-rule:evenodd;fill:#3f6d91;fill-opacity:1;" d="M 492.53125 683.714844 L 492.53125 666.0625 L -0.078125 666.0625 L -0.078125 733.367188 C -0.078125 775.558594 34.449219 810.09375 76.628906 810.09375 L 415.875 810.09375 C 458.050781 810.09375 492.53125 775.558594 492.53125 733.367188 Z M 492.53125 683.714844 "/><path style=" stroke:none;fill-rule:evenodd;fill:#487ca5;fill-opacity:1;" d="M 471.058594 666.0625 L -0.078125 666.0625 L -0.078125 733.367188 C -0.078125 749.441406 4.945312 764.414062 13.457031 776.753906 C 25.507812 784.550781 39.804688 789.144531 55.105469 789.144531 L 394.351562 789.144531 C 436.527344 789.144531 471.058594 754.605469 471.058594 712.417969 Z M 471.058594 666.0625 "/><path style=" stroke:none;fill-rule:nonzero;fill:#00466c;fill-opacity:1;" d="M 288.09375 749.847656 L 204.40625 749.847656 C 197.898438 749.847656 192.621094 744.566406 192.621094 738.054688 C 192.621094 731.542969 197.898438 726.265625 204.40625 726.265625 L 288.09375 726.265625 C 294.605469 726.265625 299.882812 731.542969 299.882812 738.054688 C 299.882812 744.566406 294.605469 749.847656 288.09375 749.847656 Z M 288.09375 749.847656 "/><path style=" stroke:none;fill-rule:evenodd;fill:#45dea6;fill-opacity:1;" d="M 746.175781 266.167969 L 746.175781 108.316406 C 746.175781 90.472656 731.636719 75.929688 713.800781 75.929688 L 470.4375 75.929688 C 452.648438 75.929688 438.113281 90.472656 438.113281 108.316406 L 438.113281 143.902344 L 339.792969 235.792969 L 438.113281 229.097656 L 438.113281 266.167969 C 438.113281 284.011719 452.648438 298.554688 470.4375 298.554688 L 713.800781 298.554688 C 731.636719 298.554688 746.175781 284.011719 746.175781 266.167969 Z M 746.175781 266.167969 "/><path style=" stroke:none;fill-rule:evenodd;fill:#66f2bf;fill-opacity:1;" d="M 723.078125 77.269531 L 722.933594 77.222656 C 722.742188 77.175781 722.550781 77.125 722.359375 77.078125 L 722.214844 77.03125 L 722.074219 77.03125 L 721.691406 76.886719 L 721.546875 76.886719 L 721.402344 76.839844 L 720.828125 76.699219 L 720.6875 76.652344 L 720.542969 76.652344 L 720.113281 76.554688 L 719.96875 76.507812 L 719.683594 76.460938 L 719.347656 76.410156 L 718.867188 76.316406 L 718.582031 76.265625 C 718.390625 76.265625 718.199219 76.21875 718.007812 76.21875 L 717.863281 76.171875 C 717.625 76.171875 717.386719 76.125 717.148438 76.125 L 717.101562 76.125 L 717.101562 76.078125 C 716.8125 76.078125 716.574219 76.03125 716.335938 76.03125 L 716.242188 76.03125 C 716 76.03125 715.761719 75.980469 715.523438 75.980469 L 715.425781 75.980469 C 715.1875 75.980469 714.902344 75.933594 714.660156 75.933594 L 470.4375 75.933594 C 452.648438 75.933594 438.109375 90.476562 438.109375 108.320312 L 438.109375 143.910156 L 339.789062 235.800781 L 438.109375 229.101562 L 438.109375 266.175781 C 441.601562 266.507812 438.636719 273.0625 439.6875 276.269531 C 442.652344 277.128906 445.714844 277.609375 448.964844 277.609375 L 692.28125 277.609375 C 710.117188 277.609375 724.65625 263.066406 724.65625 245.222656 L 724.65625 87.371094 C 724.65625 83.878906 724.082031 80.480469 723.078125 77.277344 Z M 723.078125 77.269531 "/><path style=" stroke:none;fill-rule:evenodd;fill:#a79ba7;fill-opacity:1;" d="M 671.09375 209.199219 C 683.191406 209.199219 693.046875 199.34375 693.046875 187.242188 C 693.046875 175.140625 683.195312 165.285156 671.09375 165.285156 C 658.996094 165.285156 649.144531 175.140625 649.144531 187.242188 C 649.144531 199.34375 658.996094 209.199219 671.09375 209.199219 Z M 671.09375 209.199219 "/><path style=" stroke:none;fill-rule:evenodd;fill:#a79ba7;fill-opacity:1;" d="M 592.140625 209.199219 C 604.238281 209.199219 614.089844 199.34375 614.089844 187.242188 C 614.089844 175.140625 604.238281 165.285156 592.140625 165.285156 C 580.042969 165.285156 570.191406 175.140625 570.191406 187.242188 C 570.191406 199.34375 580.042969 209.199219 592.140625 209.199219 Z M 592.140625 209.199219 "/><path style=" stroke:none;fill-rule:evenodd;fill:#a79ba7;fill-opacity:1;" d="M 513.140625 209.199219 C 525.238281 209.199219 535.089844 199.34375 535.089844 187.242188 C 535.089844 175.140625 525.238281 165.285156 513.140625 165.285156 C 501.042969 165.285156 491.238281 175.140625 491.238281 187.242188 C 491.238281 199.34375 501.089844 209.199219 513.140625 209.199219 Z M 513.140625 209.199219 "/><path style=" stroke:none;fill-rule:evenodd;fill:#feca5d;fill-opacity:1;" d="M 261.125 333.855469 C 217.558594 377.429688 146.972656 377.429688 103.40625 333.855469 C 59.890625 290.324219 59.890625 219.671875 103.40625 176.144531 C 146.972656 132.566406 217.558594 132.566406 261.125 176.144531 C 304.640625 219.671875 304.640625 290.324219 261.125 333.855469 Z M 261.125 333.855469 "/><path style=" stroke:none;fill-rule:evenodd;fill:#ffe177;fill-opacity:1;" d="M 104.125 334.570312 C 103.886719 334.332031 103.648438 334.09375 103.40625 333.855469 C 59.890625 290.324219 59.890625 219.671875 103.40625 176.144531 C 142 137.539062 201.777344 133.140625 245.199219 162.941406 C 245.4375 163.179688 245.675781 163.371094 245.914062 163.609375 C 289.480469 207.1875 289.480469 277.792969 245.914062 321.371094 C 207.371094 359.921875 147.546875 364.324219 104.125 334.570312 Z M 104.125 334.570312 "/><path style=" stroke:none;fill-rule:evenodd;fill:#fd7a6e;fill-opacity:1;" d="M 182.265625 284.011719 C 217.03125 284.011719 246.203125 307.878906 254.28125 340.121094 C 212.820312 375.324219 151.707031 375.324219 110.195312 340.121094 C 118.328125 307.878906 147.496094 284.011719 182.261719 284.011719 Z M 182.265625 284.011719 "/><path style=" stroke:none;fill-rule:evenodd;fill:#ff948a;fill-opacity:1;" d="M 182.265625 284.011719 C 196.660156 284.011719 210.097656 288.125 221.476562 295.203125 C 229.847656 304.195312 236.015625 315.292969 239.125 327.585938 C 202.589844 358.632812 150.796875 362.316406 110.582031 338.683594 C 119.238281 307.164062 148.023438 284.011719 182.265625 284.011719 Z M 182.265625 284.011719 "/><path style=" stroke:none;fill-rule:evenodd;fill:#ffcbbe;fill-opacity:1;" d="M 182.265625 284.011719 C 205.121094 284.011719 223.773438 265.355469 223.773438 242.488281 C 223.773438 219.625 205.121094 200.96875 182.265625 200.96875 C 159.40625 200.96875 140.753906 219.625 140.753906 242.488281 C 140.753906 265.355469 159.40625 284.011719 182.265625 284.011719 Z M 182.265625 284.011719 "/><path style=" stroke:none;fill-rule:evenodd;fill:#ffddcf;fill-opacity:1;" d="M 182.265625 200.96875 C 188.722656 200.96875 194.84375 202.453125 200.292969 205.085938 C 205.507812 212.019531 208.566406 220.632812 208.566406 229.957031 C 208.566406 252.917969 190.011719 271.480469 167.058594 271.480469 C 160.605469 271.480469 154.480469 269.996094 149.03125 267.363281 C 143.820312 260.429688 140.757812 251.816406 140.757812 242.492188 C 140.757812 219.578125 159.359375 200.96875 182.265625 200.96875 Z M 182.265625 200.96875 "/><path style=" stroke:none;fill-rule:nonzero;fill:#45dea6;fill-opacity:1;" d="M 57.40625 416.320312 L 435.097656 416.320312 L 435.097656 538.777344 L 57.40625 538.777344 Z M 57.40625 416.320312 "/><path style=" stroke:none;fill-rule:nonzero;fill:#66f2bf;fill-opacity:1;" d="M 57.40625 416.320312 L 415.15625 416.320312 L 415.15625 524.859375 L 57.40625 524.859375 Z M 57.40625 416.320312 "/><path style=" stroke:none;fill-rule:nonzero;fill:#a79ba7;fill-opacity:1;" d="M 302.25 609.210938 L 71.75 609.210938 C 65.242188 609.210938 59.964844 603.933594 59.964844 597.421875 C 59.964844 590.910156 65.242188 585.632812 71.75 585.632812 L 302.25 585.632812 C 308.761719 585.632812 314.039062 590.910156 314.039062 597.421875 C 314.039062 603.933594 308.761719 609.210938 302.25 609.210938 Z M 302.25 609.210938 "/><path style=" stroke:none;fill-rule:nonzero;fill:#ffffff;fill-opacity:1;" d="M 353.035156 489.339844 L 122.539062 489.339844 C 116.027344 489.339844 110.75 484.0625 110.75 477.546875 C 110.75 471.035156 116.027344 465.757812 122.539062 465.757812 L 353.035156 465.757812 C 359.546875 465.757812 364.824219 471.035156 364.824219 477.546875 C 364.824219 484.0625 359.546875 489.339844 353.035156 489.339844 Z M 353.035156 489.339844 "/><path style=" stroke:none;fill-rule:evenodd;fill:#5d6a85;fill-opacity:1;" d="M 531.3125 409.003906 C 517.589844 412.78125 504.582031 418.1875 492.484375 425.074219 L 457.8125 403.261719 C 449.492188 398.046875 439.5 396.328125 432.5625 403.261719 L 406.691406 429.140625 C 399.757812 436.074219 401.480469 446.074219 406.691406 454.394531 L 428.5 489.027344 C 421.660156 501.132812 416.207031 514.1875 412.429688 527.871094 L 372.5 536.957031 C 362.9375 539.160156 354.664062 544.996094 354.664062 554.800781 L 354.664062 591.394531 C 354.664062 601.246094 362.9375 607.085938 372.5 609.234375 L 412.429688 618.324219 C 416.210938 632.050781 421.660156 645.066406 428.546875 657.164062 L 406.695312 691.84375 C 401.480469 700.167969 399.761719 710.117188 406.695312 717.101562 L 432.566406 742.980469 C 439.5 749.914062 449.492188 748.195312 457.8125 742.980469 L 492.484375 721.121094 C 504.582031 728.007812 517.589844 733.460938 531.316406 737.242188 L 540.402344 777.183594 C 542.550781 786.75 548.386719 795.023438 558.1875 795.023438 L 594.820312 795.023438 C 604.625 795.023438 610.457031 786.75 612.65625 777.183594 L 621.742188 737.242188 C 635.417969 733.460938 648.425781 728.007812 660.527344 721.121094 L 695.195312 742.980469 C 703.515625 748.195312 713.511719 749.914062 720.445312 742.980469 L 746.316406 717.101562 C 753.25 710.117188 751.53125 700.167969 746.316406 691.84375 L 724.511719 657.164062 C 731.398438 645.0625 736.847656 632.050781 740.578125 618.324219 L 780.507812 609.234375 C 790.070312 607.082031 798.34375 601.246094 798.34375 591.394531 L 798.34375 554.800781 C 798.34375 544.996094 790.070312 539.160156 780.507812 536.957031 L 740.578125 527.871094 C 736.847656 514.1875 731.394531 501.128906 724.511719 489.074219 L 746.316406 454.394531 C 751.53125 446.074219 753.25 436.074219 746.316406 429.140625 L 720.445312 403.261719 C 713.511719 396.328125 703.515625 398.046875 695.195312 403.261719 L 660.527344 425.074219 C 648.476562 418.1875 635.417969 412.78125 621.742188 409.003906 L 612.65625 369.0625 C 610.457031 359.496094 604.625 351.21875 594.820312 351.21875 L 558.1875 351.21875 C 548.386719 351.21875 542.550781 359.496094 540.402344 369.0625 L 531.316406 409.003906 Z M 531.3125 409.003906 "/><path style=" stroke:none;fill-rule:evenodd;fill:#7b849b;fill-opacity:1;" d="M 556.5625 409.003906 C 534.5625 414.695312 521.414062 421.628906 505.152344 432.539062 L 457.859375 403.261719 L 431.988281 429.140625 C 425.054688 436.078125 426.726562 446.074219 431.988281 454.398438 L 453.792969 489.03125 C 446.90625 501.132812 441.457031 514.191406 437.679688 527.871094 L 397.792969 536.960938 C 388.230469 539.160156 379.957031 544.996094 379.957031 554.800781 L 379.957031 591.394531 C 379.957031 601.25 388.230469 607.085938 397.792969 609.238281 L 437.726562 618.328125 C 441.457031 632.054688 446.90625 645.066406 453.792969 657.167969 L 431.984375 691.847656 C 426.726562 700.167969 425.050781 710.121094 431.984375 717.105469 L 457.855469 742.933594 C 463.691406 739.25 500.558594 715.382812 505.246094 714.1875 C 522.652344 723.707031 536.953125 731.835938 556.558594 737.242188 L 565.644531 777.183594 C 567.796875 786.75 573.679688 795.027344 583.484375 795.027344 L 594.816406 795.027344 C 604.621094 795.027344 610.453125 786.75 612.652344 777.183594 L 621.738281 737.242188 C 635.417969 733.460938 648.421875 728.011719 660.523438 721.121094 L 695.191406 742.980469 C 703.511719 748.195312 713.507812 749.917969 720.441406 742.980469 L 746.3125 717.105469 C 751.574219 709.019531 751.527344 700.457031 746.601562 692.277344 L 724.507812 657.167969 C 731.394531 645.066406 736.84375 632.054688 740.574219 618.328125 L 780.503906 609.238281 C 790.066406 607.085938 798.339844 601.25 798.339844 591.394531 L 798.339844 554.800781 C 798.339844 544.996094 790.066406 539.160156 780.503906 536.960938 L 740.574219 527.871094 C 736.84375 514.191406 731.390625 501.132812 724.507812 489.078125 L 746.3125 454.398438 C 751.527344 446.074219 753.246094 436.078125 746.3125 429.140625 L 720.441406 403.261719 C 713.507812 396.328125 703.511719 398.050781 695.191406 403.261719 L 660.523438 425.074219 C 648.472656 418.1875 635.417969 412.78125 621.738281 409.003906 L 612.652344 369.0625 C 610.453125 359.496094 604.621094 351.222656 594.816406 351.222656 L 583.484375 351.222656 C 573.679688 351.222656 567.796875 359.496094 565.644531 369.0625 L 556.558594 409.003906 Z M 556.5625 409.003906 "/><path style=" stroke:none;fill-rule:evenodd;fill:#e8ecf9;fill-opacity:1;" d="M 576.503906 662.621094 C 625.808594 662.621094 666.023438 622.441406 666.023438 573.125 C 666.023438 523.804688 625.808594 483.578125 576.503906 483.578125 C 527.199219 483.578125 487.03125 523.804688 487.03125 573.125 C 487.03125 622.441406 527.199219 662.621094 576.503906 662.621094 Z M 576.503906 662.621094 "/><path style=" stroke:none;fill-rule:evenodd;fill:#ffffff;fill-opacity:1;" d="M 552.976562 486.734375 C 514.957031 497.066406 487.03125 531.84375 487.03125 573.125 C 487.03125 614.40625 514.957031 649.179688 552.976562 659.511719 C 590.992188 649.179688 618.921875 614.40625 618.921875 573.125 C 618.921875 531.84375 590.992188 497.066406 552.976562 486.734375 Z M 552.976562 486.734375 "/><path style=" stroke:none;fill-rule:evenodd;fill:#6ac9eb;fill-opacity:1;" d="M 509.601562 506.203125 C 472.6875 543.179688 472.6875 603.066406 509.601562 639.996094 C 546.570312 676.972656 606.441406 676.972656 643.40625 639.996094 C 680.324219 603.066406 680.324219 543.179688 643.40625 506.203125 C 606.441406 469.273438 546.566406 469.273438 509.601562 506.203125 Z M 509.601562 506.203125 "/><path style=" stroke:none;fill-rule:evenodd;fill:#8cdbf7;fill-opacity:1;" d="M 509.601562 506.203125 C 474.503906 541.359375 472.78125 597.230469 504.4375 634.398438 C 541.308594 659.894531 592.238281 656.257812 625.042969 623.445312 C 660.191406 588.285156 661.914062 532.367188 630.207031 495.199219 C 593.339844 469.703125 542.457031 473.386719 509.601562 506.203125 Z M 509.601562 506.203125 "/><path style=" stroke:none;fill-rule:nonzero;fill:#ffffff;fill-opacity:1;" d="M 608.054688 603.140625 C 606.054688 603.140625 604.03125 602.632812 602.171875 601.558594 L 570.609375 583.335938 C 566.964844 581.230469 564.714844 577.332031 564.714844 573.121094 L 564.714844 521.699219 C 564.714844 515.1875 569.992188 509.910156 576.503906 509.910156 C 583.015625 509.910156 588.289062 515.1875 588.289062 521.699219 L 588.289062 566.3125 L 613.960938 581.132812 C 619.597656 584.390625 621.527344 591.601562 618.277344 597.238281 C 616.09375 601.023438 612.128906 603.136719 608.054688 603.136719 Z M 608.054688 603.140625 "/><path style=" stroke:none;fill-rule:evenodd;fill:#45dea6;fill-opacity:1;" d="M 769.605469 628.179688 C 731.445312 590.054688 669.660156 590.054688 631.546875 628.179688 C 593.433594 666.304688 593.433594 728.105469 631.546875 766.230469 C 669.660156 804.355469 731.445312 804.355469 769.605469 766.230469 C 807.71875 728.105469 807.71875 666.304688 769.605469 628.179688 Z M 769.605469 628.179688 "/><path style=" stroke:none;fill-rule:evenodd;fill:#66f2bf;fill-opacity:1;" d="M 757.078125 617.609375 C 718.964844 590.4375 665.738281 593.980469 631.546875 628.179688 C 596.734375 663.003906 593.722656 717.632812 622.558594 755.898438 C 660.671875 783.023438 713.898438 779.480469 748.089844 745.28125 C 782.902344 710.457031 785.914062 655.828125 757.078125 617.609375 Z M 757.078125 617.609375 "/><path style=" stroke:none;fill-rule:nonzero;fill:#ffffff;fill-opacity:1;" d="M 688.933594 733.773438 C 685.917969 733.773438 682.898438 732.625 680.597656 730.320312 L 654.296875 704.011719 C 649.691406 699.40625 649.691406 691.941406 654.296875 687.335938 C 658.898438 682.730469 666.363281 682.730469 670.964844 687.335938 L 688.9375 705.3125 L 730.191406 664.082031 C 734.796875 659.480469 742.257812 659.480469 746.863281 664.089844 C 751.464844 668.699219 751.460938 676.164062 746.855469 680.765625 L 697.261719 730.324219 C 694.960938 732.621094 691.945312 733.773438 688.933594 733.773438 Z M 688.933594 733.773438 "/></g></svg>