<svg xmlns="http://www.w3.org/2000/svg" xmlns:xlink="http://www.w3.org/1999/xlink" width="1080" zoomAndPan="magnify" viewBox="0 0 810 809.999993" height="1080" preserveAspectRatio="xMidYMid meet" version="1.2"><defs><clipPath id="01c5326b1e"><path d="M 44.71875 184 L 765.46875 184 L 765.46875 329 L 44.71875 329 Z M 44.71875 184 "/></clipPath></defs><g id="8d904e6641"><path style=" stroke:none;fill-rule:nonzero;fill:#ffd2b3;fill-opacity:1;" d="M 98.332031 94.398438 L 712.875 94.398438 L 712.875 782.703125 L 98.332031 782.703125 Z M 98.332031 94.398438 "/><path style=" stroke:none;fill-rule:nonzero;fill:#e29874;fill-opacity:1;" d="M 311.613281 366.816406 L 499.597656 366.816406 L 499.597656 730.832031 L 311.613281 730.832031 Z M 311.613281 366.816406 "/><path style=" stroke:none;fill-rule:nonzero;fill:#ffffff;fill-opacity:1;" d="M 320.6875 375.160156 L 490.507812 375.160156 L 490.507812 722.113281 L 320.6875 722.113281 Z M 320.6875 375.160156 "/><path style=" stroke:none;fill-rule:nonzero;fill:#ffd2b3;fill-opacity:1;" d="M 465.03125 599.253906 L 465.03125 695.644531 L 346.144531 695.644531 L 346.144531 599.253906 L 465.03125 599.253906 M 470.007812 594.28125 L 341.167969 594.28125 L 341.167969 700.617188 L 470.039062 700.617188 L 470.039062 594.28125 Z M 470.007812 594.28125 "/><path style=" stroke:none;fill-rule:nonzero;fill:#ffd2b3;fill-opacity:1;" d="M 465.03125 400.753906 L 465.03125 555.140625 L 346.144531 555.140625 L 346.144531 400.753906 L 465.03125 400.753906 M 470.007812 395.78125 L 341.167969 395.78125 L 341.167969 560.113281 L 470.039062 560.113281 L 470.039062 395.78125 Z M 470.007812 395.78125 "/><path style=" stroke:none;fill-rule:nonzero;fill:#bfe3e8;fill-opacity:1;" d="M 407.441406 412.792969 L 453.300781 412.792969 L 453.300781 475.566406 L 407.441406 475.566406 Z M 407.441406 412.792969 "/><path style=" stroke:none;fill-rule:nonzero;fill:#bfe3e8;fill-opacity:1;" d="M 357.890625 412.792969 L 403.75 412.792969 L 403.75 475.566406 L 357.890625 475.566406 Z M 357.890625 412.792969 "/><path style=" stroke:none;fill-rule:nonzero;fill:#bfe3e8;fill-opacity:1;" d="M 407.441406 479.246094 L 453.300781 479.246094 L 453.300781 542.019531 L 407.441406 542.019531 Z M 407.441406 479.246094 "/><path style=" stroke:none;fill-rule:nonzero;fill:#bfe3e8;fill-opacity:1;" d="M 357.890625 479.246094 L 403.75 479.246094 L 403.75 542.019531 L 357.890625 542.019531 Z M 357.890625 479.246094 "/><path style=" stroke:none;fill-rule:nonzero;fill:#e29874;fill-opacity:1;" d="M 90.246094 751.386719 L 720.960938 751.386719 C 721.261719 751.386719 721.5625 751.417969 721.855469 751.476562 C 722.152344 751.535156 722.4375 751.621094 722.71875 751.738281 C 722.996094 751.851562 723.257812 751.992188 723.511719 752.160156 C 723.761719 752.328125 723.992188 752.519531 724.207031 752.730469 C 724.417969 752.945312 724.609375 753.175781 724.773438 753.425781 C 724.941406 753.675781 725.082031 753.941406 725.199219 754.21875 C 725.3125 754.496094 725.402344 754.785156 725.460938 755.078125 C 725.519531 755.375 725.546875 755.671875 725.546875 755.972656 L 725.546875 786.542969 C 725.546875 786.84375 725.519531 787.140625 725.460938 787.4375 C 725.402344 787.730469 725.3125 788.019531 725.199219 788.296875 C 725.082031 788.574219 724.941406 788.839844 724.773438 789.089844 C 724.609375 789.339844 724.417969 789.570312 724.207031 789.785156 C 723.992188 789.996094 723.761719 790.1875 723.511719 790.355469 C 723.257812 790.523438 722.996094 790.664062 722.71875 790.777344 C 722.4375 790.894531 722.152344 790.980469 721.855469 791.039062 C 721.5625 791.097656 721.261719 791.128906 720.960938 791.128906 L 90.246094 791.128906 C 89.945312 791.128906 89.648438 791.097656 89.351562 791.039062 C 89.054688 790.980469 88.769531 790.894531 88.492188 790.777344 C 88.210938 790.664062 87.949219 790.523438 87.699219 790.355469 C 87.449219 790.1875 87.214844 789.996094 87.003906 789.785156 C 86.789062 789.570312 86.601562 789.339844 86.433594 789.089844 C 86.265625 788.839844 86.125 788.574219 86.007812 788.296875 C 85.894531 788.019531 85.808594 787.730469 85.75 787.4375 C 85.6875 787.140625 85.660156 786.84375 85.660156 786.542969 L 85.660156 755.972656 C 85.660156 755.671875 85.6875 755.375 85.75 755.078125 C 85.808594 754.785156 85.894531 754.496094 86.007812 754.21875 C 86.125 753.941406 86.265625 753.675781 86.433594 753.425781 C 86.601562 753.175781 86.789062 752.945312 87.003906 752.730469 C 87.214844 752.519531 87.449219 752.328125 87.699219 752.160156 C 87.949219 751.992188 88.210938 751.851562 88.492188 751.738281 C 88.769531 751.621094 89.054688 751.535156 89.351562 751.476562 C 89.648438 751.417969 89.945312 751.386719 90.246094 751.386719 Z M 90.246094 751.386719 "/><path style=" stroke:none;fill-rule:nonzero;fill:#e29874;fill-opacity:1;" d="M 716.101562 39.578125 L 95.105469 39.578125 C 94.71875 39.574219 94.335938 39.613281 93.957031 39.6875 C 93.578125 39.761719 93.210938 39.871094 92.855469 40.019531 C 92.496094 40.167969 92.15625 40.347656 91.835938 40.5625 C 91.515625 40.777344 91.214844 41.019531 90.941406 41.292969 C 90.667969 41.566406 90.425781 41.863281 90.210938 42.1875 C 89.996094 42.507812 89.816406 42.847656 89.667969 43.203125 C 89.519531 43.5625 89.410156 43.929688 89.335938 44.308594 C 89.261719 44.6875 89.222656 45.070312 89.226562 45.457031 L 89.226562 81.808594 L 721.984375 81.808594 L 721.984375 45.457031 C 721.984375 45.070312 721.949219 44.6875 721.875 44.308594 C 721.796875 43.929688 721.6875 43.5625 721.539062 43.203125 C 721.390625 42.847656 721.210938 42.507812 720.996094 42.1875 C 720.78125 41.863281 720.539062 41.566406 720.265625 41.292969 C 719.992188 41.019531 719.695312 40.777344 719.371094 40.5625 C 719.050781 40.347656 718.710938 40.167969 718.355469 40.019531 C 717.996094 39.871094 717.628906 39.761719 717.25 39.6875 C 716.871094 39.613281 716.488281 39.574219 716.101562 39.578125 Z M 716.101562 39.578125 "/><path style=" stroke:none;fill-rule:nonzero;fill:#e29874;fill-opacity:1;" d="M 724.964844 94.398438 L 86.226562 94.398438 L 98.332031 120.414062 L 712.875 120.414062 Z M 724.964844 94.398438 "/><g clip-rule="nonzero" clip-path="url(#01c5326b1e)"><path style=" stroke:none;fill-rule:nonzero;fill:#f7ac52;fill-opacity:1;" d="M 713.492188 184.371094 L 97.488281 184.371094 C 97.488281 184.371094 44.792969 276.90625 44.792969 283.984375 C 44.792969 308.285156 70.71875 328.097656 102.773438 328.097656 C 133.347656 328.097656 158.351562 308.660156 160.523438 285.785156 L 165.953125 285.785156 C 168.125 308.625 193.125 328.097656 223.703125 328.097656 C 254.28125 328.097656 279.285156 308.660156 281.457031 285.785156 L 287.175781 285.785156 C 289.363281 308.625 314.351562 328.097656 344.925781 328.097656 C 375.503906 328.097656 400.507812 308.660156 402.695312 285.785156 L 407.558594 285.785156 C 409.746094 308.625 434.746094 328.097656 465.324219 328.097656 C 495.902344 328.097656 520.890625 308.660156 523.078125 285.785156 L 529.089844 285.785156 C 531.277344 308.625 556.261719 328.097656 586.839844 328.097656 C 617.417969 328.097656 642.421875 308.660156 644.609375 285.785156 L 649.679688 285.785156 C 651.851562 308.625 676.855469 328.097656 707.433594 328.097656 C 739.453125 328.097656 765.410156 308.351562 765.410156 283.984375 C 765.363281 275.722656 713.492188 184.371094 713.492188 184.371094 Z M 713.492188 184.371094 "/></g><path style=" stroke:none;fill-rule:nonzero;fill:#e0923d;fill-opacity:1;" d="M 757.226562 281.039062 L 648.902344 281.039062 L 620.949219 192.117188 C 620.851562 191.808594 620.703125 191.535156 620.496094 191.289062 C 620.289062 191.042969 620.042969 190.84375 619.757812 190.695312 C 619.472656 190.550781 619.171875 190.460938 618.851562 190.433594 C 618.53125 190.40625 618.21875 190.441406 617.910156 190.535156 C 617.605469 190.632812 617.328125 190.785156 617.082031 190.992188 C 616.835938 191.199219 616.640625 191.441406 616.492188 191.726562 C 616.34375 192.011719 616.257812 192.316406 616.230469 192.636719 C 616.199219 192.953125 616.234375 193.269531 616.332031 193.574219 L 643.878906 281.054688 L 528.066406 281.054688 L 515.703125 191.953125 C 515.660156 191.632812 515.554688 191.328125 515.390625 191.050781 C 515.226562 190.769531 515.015625 190.53125 514.757812 190.332031 C 514.496094 190.136719 514.210938 189.996094 513.894531 189.914062 C 513.582031 189.832031 513.261719 189.8125 512.941406 189.855469 C 512.617188 189.898438 512.316406 190.003906 512.035156 190.167969 C 511.753906 190.332031 511.515625 190.542969 511.320312 190.800781 C 511.121094 191.0625 510.984375 191.347656 510.898438 191.664062 C 510.816406 191.976562 510.796875 192.296875 510.84375 192.617188 L 523.109375 280.988281 L 407.945312 280.988281 L 407.945312 191.242188 C 407.945312 190.917969 407.882812 190.609375 407.761719 190.3125 C 407.636719 190.011719 407.460938 189.75 407.234375 189.523438 C 407.003906 189.292969 406.742188 189.121094 406.445312 188.996094 C 406.148438 188.871094 405.835938 188.8125 405.515625 188.8125 C 405.191406 188.8125 404.882812 188.871094 404.585938 188.996094 C 404.285156 189.121094 404.023438 189.292969 403.796875 189.523438 C 403.570312 189.75 403.394531 190.011719 403.269531 190.3125 C 403.144531 190.609375 403.085938 190.917969 403.085938 191.242188 L 403.085938 280.988281 L 287.320312 280.988281 L 299.589844 192.617188 C 299.632812 192.296875 299.613281 191.976562 299.53125 191.660156 C 299.449219 191.347656 299.308594 191.058594 299.113281 190.800781 C 298.917969 190.539062 298.675781 190.328125 298.394531 190.164062 C 298.113281 190 297.8125 189.894531 297.492188 189.851562 C 297.167969 189.808594 296.847656 189.828125 296.535156 189.910156 C 296.21875 189.992188 295.929688 190.132812 295.671875 190.328125 C 295.414062 190.527344 295.203125 190.765625 295.039062 191.046875 C 294.875 191.328125 294.769531 191.632812 294.726562 191.953125 L 282.363281 281.054688 L 166.679688 281.054688 L 194.226562 193.574219 C 194.324219 193.265625 194.359375 192.953125 194.332031 192.632812 C 194.304688 192.3125 194.21875 192.011719 194.070312 191.726562 C 193.921875 191.441406 193.722656 191.195312 193.476562 190.988281 C 193.230469 190.78125 192.957031 190.628906 192.648438 190.535156 C 192.34375 190.4375 192.03125 190.402344 191.710938 190.429688 C 191.390625 190.457031 191.085938 190.546875 190.800781 190.695312 C 190.515625 190.84375 190.269531 191.039062 190.0625 191.285156 C 189.859375 191.53125 189.707031 191.808594 189.609375 192.117188 L 161.59375 281.039062 L 53.285156 281.039062 C 52.960938 281.039062 52.652344 281.097656 52.355469 281.222656 C 52.054688 281.347656 51.792969 281.519531 51.566406 281.75 C 51.335938 281.976562 51.160156 282.238281 51.039062 282.539062 C 50.914062 282.835938 50.851562 283.144531 50.851562 283.46875 C 50.851562 283.789062 50.914062 284.101562 51.039062 284.398438 C 51.160156 284.695312 51.335938 284.957031 51.566406 285.1875 C 51.792969 285.414062 52.054688 285.589844 52.355469 285.710938 C 52.652344 285.835938 52.960938 285.898438 53.285156 285.898438 L 757.226562 285.898438 C 757.550781 285.898438 757.859375 285.835938 758.15625 285.710938 C 758.457031 285.589844 758.71875 285.414062 758.945312 285.1875 C 759.175781 284.957031 759.351562 284.695312 759.472656 284.398438 C 759.597656 284.101562 759.65625 283.789062 759.65625 283.46875 C 759.65625 283.144531 759.597656 282.835938 759.472656 282.539062 C 759.351562 282.238281 759.175781 281.976562 758.945312 281.75 C 758.71875 281.519531 758.457031 281.347656 758.15625 281.222656 C 757.859375 281.097656 757.550781 281.039062 757.226562 281.039062 Z M 757.226562 281.039062 "/><path style=" stroke:none;fill-rule:nonzero;fill:#f1b593;fill-opacity:1;" d="M 75.273438 73.289062 L 735.917969 73.289062 C 736.3125 73.289062 736.695312 73.363281 737.058594 73.515625 C 737.425781 73.667969 737.746094 73.882812 738.027344 74.160156 C 738.308594 74.441406 738.523438 74.765625 738.671875 75.128906 C 738.824219 75.492188 738.902344 75.875 738.902344 76.269531 L 738.902344 94.964844 C 738.902344 95.359375 738.824219 95.738281 738.671875 96.105469 C 738.523438 96.46875 738.308594 96.792969 738.027344 97.070312 C 737.746094 97.351562 737.425781 97.566406 737.058594 97.71875 C 736.695312 97.871094 736.3125 97.945312 735.917969 97.945312 L 75.273438 97.945312 C 74.878906 97.945312 74.496094 97.871094 74.132812 97.71875 C 73.765625 97.566406 73.445312 97.351562 73.164062 97.070312 C 72.886719 96.792969 72.667969 96.46875 72.519531 96.105469 C 72.367188 95.738281 72.292969 95.359375 72.292969 94.964844 L 72.292969 76.269531 C 72.292969 75.875 72.367188 75.492188 72.519531 75.128906 C 72.667969 74.765625 72.886719 74.441406 73.164062 74.160156 C 73.445312 73.882812 73.765625 73.667969 74.132812 73.515625 C 74.496094 73.363281 74.878906 73.289062 75.273438 73.289062 Z M 75.273438 73.289062 "/><path style=" stroke:none;fill-rule:nonzero;fill:#e29874;fill-opacity:1;" d="M 140.042969 413.863281 L 271.441406 413.863281 L 271.441406 599.59375 L 140.042969 599.59375 Z M 140.042969 413.863281 "/><path style=" stroke:none;fill-rule:nonzero;fill:#ffffff;fill-opacity:1;" d="M 147.121094 421.117188 L 264.34375 421.117188 L 264.34375 592.351562 L 147.121094 592.351562 Z M 147.121094 421.117188 "/><path style=" stroke:none;fill-rule:nonzero;fill:#bfe3e8;fill-opacity:1;" d="M 162.550781 436.332031 L 203.253906 436.332031 L 203.253906 479.164062 L 162.550781 479.164062 Z M 162.550781 436.332031 "/><path style=" stroke:none;fill-rule:nonzero;fill:#bfe3e8;fill-opacity:1;" d="M 208.230469 484.152344 L 248.933594 484.152344 L 248.933594 529.320312 L 208.230469 529.320312 Z M 208.230469 484.152344 "/><path style=" stroke:none;fill-rule:nonzero;fill:#bfe3e8;fill-opacity:1;" d="M 208.230469 436.332031 L 248.933594 436.332031 L 248.933594 479.164062 L 208.230469 479.164062 Z M 208.230469 436.332031 "/><path style=" stroke:none;fill-rule:nonzero;fill:#bfe3e8;fill-opacity:1;" d="M 208.230469 534.292969 L 248.933594 534.292969 L 248.933594 577.125 L 208.230469 577.125 Z M 208.230469 534.292969 "/><path style=" stroke:none;fill-rule:nonzero;fill:#bfe3e8;fill-opacity:1;" d="M 162.550781 534.292969 L 203.253906 534.292969 L 203.253906 577.125 L 162.550781 577.125 Z M 162.550781 534.292969 "/><path style=" stroke:none;fill-rule:nonzero;fill:#bfe3e8;fill-opacity:1;" d="M 162.550781 484.152344 L 203.253906 484.152344 L 203.253906 529.320312 L 162.550781 529.320312 Z M 162.550781 484.152344 "/><path style=" stroke:none;fill-rule:nonzero;fill:#e29874;fill-opacity:1;" d="M 539.75 413.863281 L 671.152344 413.863281 L 671.152344 599.59375 L 539.75 599.59375 Z M 539.75 413.863281 "/><path style=" stroke:none;fill-rule:nonzero;fill:#ffffff;fill-opacity:1;" d="M 546.847656 421.117188 L 664.070312 421.117188 L 664.070312 592.351562 L 546.847656 592.351562 Z M 546.847656 421.117188 "/><path style=" stroke:none;fill-rule:nonzero;fill:#bfe3e8;fill-opacity:1;" d="M 607.9375 484.152344 L 648.644531 484.152344 L 648.644531 529.320312 L 607.9375 529.320312 Z M 607.9375 484.152344 "/><path style=" stroke:none;fill-rule:nonzero;fill:#bfe3e8;fill-opacity:1;" d="M 562.257812 436.332031 L 602.964844 436.332031 L 602.964844 479.164062 L 562.257812 479.164062 Z M 562.257812 436.332031 "/><path style=" stroke:none;fill-rule:nonzero;fill:#bfe3e8;fill-opacity:1;" d="M 607.9375 436.332031 L 648.644531 436.332031 L 648.644531 479.164062 L 607.9375 479.164062 Z M 607.9375 436.332031 "/><path style=" stroke:none;fill-rule:nonzero;fill:#bfe3e8;fill-opacity:1;" d="M 562.257812 534.292969 L 602.964844 534.292969 L 602.964844 577.125 L 562.257812 577.125 Z M 562.257812 534.292969 "/><path style=" stroke:none;fill-rule:nonzero;fill:#bfe3e8;fill-opacity:1;" d="M 562.257812 484.152344 L 602.964844 484.152344 L 602.964844 529.320312 L 562.257812 529.320312 Z M 562.257812 484.152344 "/><path style=" stroke:none;fill-rule:nonzero;fill:#bfe3e8;fill-opacity:1;" d="M 607.9375 534.292969 L 648.644531 534.292969 L 648.644531 577.125 L 607.9375 577.125 Z M 607.9375 534.292969 "/><path style=" stroke:none;fill-rule:nonzero;fill:#f1b593;fill-opacity:1;" d="M 243.714844 730.832031 L 567.476562 730.832031 C 567.816406 730.832031 568.15625 730.863281 568.492188 730.929688 C 568.824219 730.996094 569.152344 731.097656 569.464844 731.226562 C 569.78125 731.355469 570.082031 731.515625 570.367188 731.707031 C 570.648438 731.898438 570.914062 732.113281 571.152344 732.355469 C 571.394531 732.59375 571.609375 732.859375 571.800781 733.140625 C 571.992188 733.425781 572.152344 733.726562 572.28125 734.039062 C 572.414062 734.355469 572.511719 734.679688 572.578125 735.015625 C 572.644531 735.351562 572.675781 735.6875 572.675781 736.03125 L 572.675781 770.554688 L 238.515625 770.554688 L 238.515625 736.046875 C 238.511719 735.703125 238.546875 735.367188 238.613281 735.03125 C 238.675781 734.695312 238.777344 734.367188 238.90625 734.050781 C 239.035156 733.734375 239.195312 733.433594 239.386719 733.148438 C 239.574219 732.867188 239.789062 732.601562 240.03125 732.359375 C 240.273438 732.117188 240.535156 731.902344 240.820312 731.710938 C 241.105469 731.519531 241.40625 731.359375 241.722656 731.226562 C 242.039062 731.097656 242.363281 730.996094 242.699219 730.929688 C 243.035156 730.863281 243.375 730.832031 243.714844 730.832031 Z M 243.714844 730.832031 "/><path style=" stroke:none;fill-rule:nonzero;fill:#f1b593;fill-opacity:1;" d="M 215.617188 770.261719 L 595.574219 770.261719 C 595.914062 770.261719 596.253906 770.292969 596.589844 770.363281 C 596.925781 770.429688 597.25 770.527344 597.566406 770.65625 C 597.878906 770.789062 598.179688 770.949219 598.464844 771.136719 C 598.746094 771.328125 599.011719 771.542969 599.253906 771.785156 C 599.492188 772.027344 599.710938 772.289062 599.898438 772.574219 C 600.089844 772.855469 600.25 773.15625 600.378906 773.472656 C 600.511719 773.785156 600.609375 774.113281 600.675781 774.445312 C 600.742188 774.78125 600.777344 775.121094 600.777344 775.460938 L 600.777344 810 L 210.417969 810 L 210.417969 775.476562 C 210.414062 775.136719 210.449219 774.796875 210.511719 774.460938 C 210.578125 774.125 210.675781 773.800781 210.808594 773.484375 C 210.9375 773.167969 211.097656 772.867188 211.289062 772.582031 C 211.476562 772.296875 211.691406 772.03125 211.933594 771.789062 C 212.175781 771.546875 212.4375 771.332031 212.722656 771.140625 C 213.007812 770.949219 213.308594 770.789062 213.625 770.660156 C 213.941406 770.527344 214.265625 770.429688 214.601562 770.363281 C 214.9375 770.292969 215.277344 770.261719 215.617188 770.261719 Z M 215.617188 770.261719 "/><path style=" stroke:none;fill-rule:nonzero;fill:#fff2e9;fill-opacity:1;" d="M 270.195312 0 L 541.597656 0 C 542.816406 0 544.03125 0.03125 545.25 0.0898438 C 546.464844 0.148438 547.679688 0.238281 548.890625 0.359375 C 550.101562 0.476562 551.3125 0.625 552.515625 0.804688 C 553.722656 0.984375 554.921875 1.191406 556.113281 1.429688 C 557.308594 1.667969 558.496094 1.933594 559.679688 2.230469 C 560.859375 2.523438 562.03125 2.851562 563.199219 3.203125 C 564.363281 3.558594 565.519531 3.9375 566.664062 4.347656 C 567.8125 4.757812 568.949219 5.195312 570.074219 5.664062 C 571.199219 6.128906 572.3125 6.621094 573.414062 7.140625 C 574.511719 7.664062 575.601562 8.210938 576.675781 8.785156 C 577.75 9.359375 578.808594 9.957031 579.851562 10.582031 C 580.898438 11.210938 581.925781 11.859375 582.9375 12.535156 C 583.949219 13.214844 584.945312 13.914062 585.921875 14.640625 C 586.902344 15.363281 587.863281 16.113281 588.804688 16.886719 C 589.746094 17.660156 590.667969 18.453125 591.570312 19.269531 C 592.472656 20.089844 593.351562 20.925781 594.214844 21.789062 C 595.074219 22.648438 595.914062 23.53125 596.730469 24.433594 C 597.550781 25.335938 598.34375 26.257812 599.117188 27.199219 C 599.890625 28.140625 600.640625 29.097656 601.363281 30.074219 C 602.089844 31.054688 602.789062 32.050781 603.46875 33.0625 C 604.144531 34.074219 604.796875 35.101562 605.421875 36.144531 C 606.046875 37.191406 606.648438 38.25 607.222656 39.324219 C 607.796875 40.398438 608.34375 41.484375 608.863281 42.585938 C 609.382812 43.683594 609.878906 44.796875 610.34375 45.921875 C 610.808594 47.046875 611.246094 48.183594 611.65625 49.328125 C 612.066406 50.476562 612.449219 51.632812 612.804688 52.796875 C 613.15625 53.960938 613.480469 55.132812 613.777344 56.316406 C 614.074219 57.496094 614.339844 58.683594 614.578125 59.878906 C 614.816406 61.070312 615.023438 62.269531 615.203125 63.476562 C 615.382812 64.679688 615.53125 65.886719 615.648438 67.097656 C 615.769531 68.308594 615.859375 69.523438 615.917969 70.742188 C 615.976562 71.957031 616.007812 73.171875 616.007812 74.390625 C 616.007812 75.609375 615.976562 76.824219 615.917969 78.039062 C 615.859375 79.257812 615.769531 80.46875 615.648438 81.683594 C 615.53125 82.894531 615.382812 84.101562 615.203125 85.304688 C 615.023438 86.511719 614.816406 87.710938 614.578125 88.902344 C 614.339844 90.097656 614.074219 91.285156 613.777344 92.464844 C 613.480469 93.648438 613.15625 94.820312 612.804688 95.984375 C 612.449219 97.148438 612.066406 98.304688 611.65625 99.453125 C 611.246094 100.597656 610.808594 101.734375 610.34375 102.859375 C 609.878906 103.984375 609.382812 105.097656 608.863281 106.195312 C 608.34375 107.296875 607.796875 108.382812 607.222656 109.457031 C 606.648438 110.53125 606.046875 111.589844 605.421875 112.632812 C 604.796875 113.679688 604.144531 114.707031 603.46875 115.71875 C 602.789062 116.730469 602.089844 117.726562 601.363281 118.703125 C 600.640625 119.683594 599.890625 120.640625 599.117188 121.582031 C 598.34375 122.523438 597.550781 123.445312 596.730469 124.347656 C 595.914062 125.25 595.074219 126.132812 594.214844 126.992188 C 593.351562 127.851562 592.472656 128.691406 591.570312 129.511719 C 590.667969 130.328125 589.746094 131.121094 588.804688 131.894531 C 587.863281 132.667969 586.902344 133.417969 585.921875 134.140625 C 584.945312 134.867188 583.949219 135.566406 582.9375 136.242188 C 581.925781 136.921875 580.898438 137.570312 579.851562 138.195312 C 578.808594 138.824219 577.75 139.421875 576.675781 139.996094 C 575.601562 140.570312 574.511719 141.117188 573.414062 141.636719 C 572.3125 142.160156 571.199219 142.652344 570.074219 143.117188 C 568.949219 143.585938 567.8125 144.023438 566.664062 144.433594 C 565.519531 144.84375 564.363281 145.222656 563.199219 145.578125 C 562.03125 145.929688 560.859375 146.253906 559.679688 146.550781 C 558.496094 146.847656 557.308594 147.113281 556.113281 147.351562 C 554.921875 147.589844 553.722656 147.796875 552.515625 147.976562 C 551.3125 148.152344 550.101562 148.304688 548.890625 148.421875 C 547.679688 148.542969 546.464844 148.632812 545.25 148.691406 C 544.03125 148.75 542.816406 148.78125 541.597656 148.78125 L 270.195312 148.78125 C 268.976562 148.78125 267.757812 148.75 266.542969 148.691406 C 265.328125 148.632812 264.113281 148.542969 262.898438 148.421875 C 261.6875 148.304688 260.480469 148.152344 259.277344 147.976562 C 258.070312 147.796875 256.871094 147.589844 255.675781 147.351562 C 254.484375 147.113281 253.292969 146.847656 252.113281 146.550781 C 250.933594 146.253906 249.757812 145.929688 248.59375 145.578125 C 247.429688 145.222656 246.273438 144.84375 245.125 144.433594 C 243.980469 144.023438 242.84375 143.585938 241.71875 143.117188 C 240.59375 142.652344 239.480469 142.160156 238.378906 141.636719 C 237.277344 141.117188 236.191406 140.570312 235.117188 139.996094 C 234.042969 139.421875 232.984375 138.824219 231.9375 138.195312 C 230.894531 137.570312 229.867188 136.921875 228.855469 136.242188 C 227.839844 135.566406 226.847656 134.867188 225.867188 134.140625 C 224.890625 133.417969 223.929688 132.667969 222.988281 131.894531 C 222.046875 131.121094 221.125 130.328125 220.222656 129.511719 C 219.320312 128.691406 218.4375 127.851562 217.578125 126.992188 C 216.71875 126.132812 215.878906 125.25 215.058594 124.347656 C 214.242188 123.445312 213.445312 122.523438 212.675781 121.582031 C 211.902344 120.640625 211.152344 119.683594 210.425781 118.703125 C 209.703125 117.726562 209 116.730469 208.324219 115.71875 C 207.648438 114.707031 206.996094 113.679688 206.371094 112.632812 C 205.746094 111.589844 205.144531 110.53125 204.570312 109.457031 C 203.996094 108.382812 203.449219 107.296875 202.929688 106.195312 C 202.40625 105.097656 201.914062 103.984375 201.449219 102.859375 C 200.980469 101.734375 200.542969 100.597656 200.132812 99.453125 C 199.722656 98.304688 199.339844 97.148438 198.988281 95.984375 C 198.632812 94.820312 198.308594 93.648438 198.015625 92.464844 C 197.71875 91.285156 197.453125 90.097656 197.214844 88.902344 C 196.976562 87.710938 196.769531 86.511719 196.589844 85.304688 C 196.410156 84.101562 196.261719 82.894531 196.140625 81.683594 C 196.023438 80.46875 195.933594 79.257812 195.875 78.039062 C 195.8125 76.824219 195.785156 75.609375 195.785156 74.390625 C 195.785156 73.171875 195.8125 71.957031 195.875 70.742188 C 195.933594 69.523438 196.023438 68.308594 196.140625 67.097656 C 196.261719 65.886719 196.410156 64.679688 196.589844 63.476562 C 196.769531 62.269531 196.976562 61.070312 197.214844 59.878906 C 197.453125 58.683594 197.71875 57.496094 198.015625 56.316406 C 198.308594 55.132812 198.632812 53.960938 198.988281 52.796875 C 199.339844 51.632812 199.722656 50.476562 200.132812 49.328125 C 200.542969 48.183594 200.980469 47.046875 201.449219 45.921875 C 201.914062 44.796875 202.40625 43.683594 202.929688 42.585938 C 203.449219 41.484375 203.996094 40.398438 204.570312 39.324219 C 205.144531 38.25 205.746094 37.191406 206.371094 36.144531 C 206.996094 35.101562 207.648438 34.074219 208.324219 33.0625 C 209 32.050781 209.703125 31.054688 210.425781 30.074219 C 211.152344 29.097656 211.902344 28.140625 212.675781 27.199219 C 213.445312 26.257812 214.242188 25.335938 215.058594 24.433594 C 215.878906 23.53125 216.71875 22.648438 217.578125 21.789062 C 218.4375 20.925781 219.320312 20.089844 220.222656 19.269531 C 221.125 18.453125 222.046875 17.660156 222.988281 16.886719 C 223.929688 16.113281 224.890625 15.363281 225.867188 14.640625 C 226.847656 13.914062 227.839844 13.214844 228.855469 12.535156 C 229.867188 11.859375 230.894531 11.210938 231.9375 10.582031 C 232.984375 9.957031 234.042969 9.359375 235.117188 8.785156 C 236.191406 8.210938 237.277344 7.664062 238.378906 7.140625 C 239.480469 6.621094 240.59375 6.128906 241.71875 5.664062 C 242.84375 5.195312 243.980469 4.757812 245.125 4.347656 C 246.273438 3.9375 247.429688 3.558594 248.59375 3.203125 C 249.757812 2.851562 250.933594 2.523438 252.113281 2.230469 C 253.292969 1.933594 254.484375 1.667969 255.675781 1.429688 C 256.871094 1.191406 258.070312 0.984375 259.277344 0.804688 C 260.480469 0.625 261.6875 0.476562 262.898438 0.359375 C 264.113281 0.238281 265.328125 0.148438 266.542969 0.0898438 C 267.757812 0.03125 268.976562 0 270.195312 0 Z M 270.195312 0 "/><path style=" stroke:none;fill-rule:nonzero;fill:#e29874;fill-opacity:1;" d="M 323.796875 31.347656 C 326.054688 31.347656 328.292969 31.535156 330.519531 31.90625 C 332.746094 32.273438 334.925781 32.824219 337.0625 33.550781 C 339.199219 34.277344 341.257812 35.175781 343.25 36.238281 C 345.238281 37.304688 347.125 38.527344 348.914062 39.902344 C 349.207031 40.125 349.445312 40.398438 349.628906 40.71875 C 349.808594 41.039062 349.921875 41.382812 349.964844 41.75 C 350.007812 42.113281 349.976562 42.476562 349.875 42.828125 C 349.769531 43.183594 349.601562 43.503906 349.367188 43.789062 C 349.164062 44.089844 348.90625 44.339844 348.597656 44.53125 C 348.289062 44.726562 347.953125 44.847656 347.59375 44.902344 C 347.230469 44.953125 346.875 44.929688 346.523438 44.832031 C 346.175781 44.734375 345.859375 44.570312 345.574219 44.339844 C 342.46875 41.902344 339.050781 40.035156 335.320312 38.742188 C 331.585938 37.449219 327.746094 36.796875 323.796875 36.789062 C 322.664062 36.773438 321.53125 36.8125 320.398438 36.90625 C 319.269531 37 318.144531 37.152344 317.027344 37.355469 C 315.914062 37.5625 314.808594 37.824219 313.71875 38.136719 C 312.628906 38.453125 311.554688 38.820312 310.5 39.238281 C 309.449219 39.660156 308.417969 40.132812 307.410156 40.652344 C 306.402344 41.175781 305.421875 41.746094 304.472656 42.363281 C 303.519531 42.984375 302.601562 43.648438 301.714844 44.355469 C 300.832031 45.066406 299.980469 45.816406 299.171875 46.609375 C 298.359375 47.402344 297.589844 48.234375 296.859375 49.105469 C 296.128906 49.972656 295.445312 50.878906 294.804688 51.8125 C 294.164062 52.75 293.570312 53.714844 293.027344 54.710938 C 292.484375 55.707031 291.988281 56.726562 291.542969 57.769531 C 291.101562 58.816406 290.707031 59.878906 290.371094 60.960938 C 290.03125 62.042969 289.746094 63.140625 289.515625 64.25 C 289.285156 65.363281 289.109375 66.480469 288.988281 67.609375 C 288.867188 68.738281 288.804688 69.871094 288.796875 71.003906 C 288.796875 89.570312 304.351562 104.796875 323.796875 104.796875 C 325.746094 104.824219 327.6875 104.679688 329.609375 104.367188 C 331.535156 104.050781 333.417969 103.570312 335.257812 102.921875 C 337.097656 102.273438 338.867188 101.46875 340.566406 100.507812 C 342.261719 99.546875 343.863281 98.445312 345.363281 97.199219 C 345.664062 96.976562 345.992188 96.816406 346.355469 96.730469 C 346.71875 96.640625 347.085938 96.628906 347.453125 96.691406 C 347.820312 96.753906 348.164062 96.886719 348.476562 97.089844 C 348.789062 97.296875 349.046875 97.554688 349.253906 97.863281 C 349.511719 98.136719 349.699219 98.445312 349.824219 98.800781 C 349.945312 99.152344 349.992188 99.511719 349.957031 99.882812 C 349.925781 100.257812 349.820312 100.605469 349.636719 100.929688 C 349.453125 101.257812 349.214844 101.53125 348.914062 101.753906 C 347.125 103.121094 345.234375 104.335938 343.246094 105.394531 C 341.253906 106.453125 339.191406 107.339844 337.054688 108.058594 C 334.921875 108.78125 332.738281 109.320312 330.515625 109.679688 C 328.289062 110.039062 326.050781 110.214844 323.796875 110.207031 C 301.46875 110.207031 283.285156 92.648438 283.285156 70.972656 C 283.351562 48.90625 301.46875 31.460938 323.796875 31.347656 Z M 323.796875 31.347656 "/><path style=" stroke:none;fill-rule:nonzero;fill:#e29874;fill-opacity:1;" d="M 416.957031 58.464844 L 416.957031 107.566406 C 416.984375 107.9375 416.9375 108.300781 416.816406 108.652344 C 416.691406 109.003906 416.503906 109.316406 416.253906 109.589844 C 416 109.863281 415.703125 110.074219 415.359375 110.226562 C 415.019531 110.375 414.664062 110.449219 414.289062 110.449219 C 413.917969 110.449219 413.558594 110.375 413.21875 110.226562 C 412.878906 110.074219 412.578125 109.863281 412.328125 109.589844 C 412.074219 109.316406 411.886719 109.003906 411.765625 108.652344 C 411.640625 108.300781 411.59375 107.9375 411.625 107.566406 L 411.625 99.46875 C 410.46875 101.113281 409.136719 102.597656 407.628906 103.925781 C 406.117188 105.253906 404.476562 106.386719 402.699219 107.324219 C 400.921875 108.261719 399.058594 108.976562 397.109375 109.472656 C 395.164062 109.96875 393.183594 110.230469 391.175781 110.257812 C 376.832031 110.257812 365.394531 97.914062 365.394531 83.023438 C 365.394531 68.136719 376.832031 55.808594 391.175781 55.808594 C 393.171875 55.828125 395.136719 56.078125 397.078125 56.5625 C 399.015625 57.046875 400.867188 57.746094 402.640625 58.667969 C 404.410156 59.59375 406.050781 60.707031 407.558594 62.019531 C 409.066406 63.328125 410.398438 64.792969 411.558594 66.421875 L 411.558594 58.464844 C 411.53125 58.09375 411.578125 57.734375 411.699219 57.382812 C 411.820312 57.027344 412.007812 56.714844 412.261719 56.441406 C 412.515625 56.167969 412.8125 55.957031 413.152344 55.808594 C 413.496094 55.660156 413.851562 55.585938 414.226562 55.585938 C 414.597656 55.585938 414.953125 55.660156 415.296875 55.808594 C 415.636719 55.957031 415.933594 56.167969 416.1875 56.441406 C 416.441406 56.714844 416.628906 57.027344 416.75 57.382812 C 416.871094 57.734375 416.917969 58.09375 416.890625 58.464844 Z M 411.558594 83.007812 C 411.558594 70.792969 402.339844 61.007812 391.109375 61.007812 C 379.878906 61.007812 370.660156 70.730469 370.660156 83.007812 C 370.660156 95.289062 379.992188 104.894531 391.109375 104.894531 C 402.226562 104.894531 411.558594 95.238281 411.558594 83.007812 Z M 411.558594 83.007812 "/><path style=" stroke:none;fill-rule:nonzero;fill:#e29874;fill-opacity:1;" d="M 464.09375 35.347656 C 464.089844 35.699219 464.019531 36.039062 463.882812 36.363281 C 463.746094 36.6875 463.554688 36.972656 463.308594 37.222656 C 463.058594 37.472656 462.773438 37.667969 462.449219 37.804688 C 462.125 37.941406 461.789062 38.015625 461.4375 38.019531 C 457.660156 38.019531 455.652344 38.800781 454.53125 40.128906 C 453.414062 41.457031 452.3125 44.128906 452.3125 49.117188 L 452.3125 54.902344 L 459.992188 54.902344 C 460.355469 54.902344 460.703125 54.972656 461.035156 55.109375 C 461.367188 55.246094 461.664062 55.445312 461.917969 55.699219 C 462.171875 55.953125 462.371094 56.25 462.507812 56.582031 C 462.648438 56.914062 462.714844 57.261719 462.714844 57.625 C 462.714844 57.984375 462.648438 58.332031 462.507812 58.664062 C 462.371094 59 462.171875 59.292969 461.917969 59.546875 C 461.664062 59.804688 461.367188 60 461.035156 60.136719 C 460.703125 60.277344 460.355469 60.34375 459.992188 60.34375 L 452.3125 60.34375 L 452.3125 107.679688 C 452.308594 108.035156 452.238281 108.371094 452.101562 108.695312 C 451.964844 109.019531 451.773438 109.308594 451.527344 109.554688 C 451.277344 109.804688 450.992188 110 450.667969 110.136719 C 450.34375 110.277344 450.007812 110.347656 449.65625 110.355469 C 449.292969 110.359375 448.945312 110.296875 448.605469 110.167969 C 448.269531 110.035156 447.972656 109.84375 447.710938 109.59375 C 447.449219 109.34375 447.246094 109.050781 447.101562 108.71875 C 446.953125 108.390625 446.875 108.042969 446.867188 107.679688 L 446.867188 60.34375 L 439.640625 60.34375 C 439.28125 60.34375 438.933594 60.277344 438.597656 60.136719 C 438.265625 60 437.972656 59.804688 437.714844 59.546875 C 437.460938 59.292969 437.265625 59 437.125 58.664062 C 436.988281 58.332031 436.917969 57.984375 436.917969 57.625 C 436.917969 57.261719 436.988281 56.914062 437.125 56.582031 C 437.265625 56.25 437.460938 55.953125 437.714844 55.699219 C 437.972656 55.445312 438.265625 55.246094 438.597656 55.109375 C 438.933594 54.972656 439.28125 54.902344 439.640625 54.902344 L 446.867188 54.902344 L 446.867188 49.117188 C 446.980469 43.5625 447.871094 39.398438 450.433594 36.464844 C 452.992188 33.535156 457.09375 32.5625 461.4375 32.5625 C 461.796875 32.574219 462.140625 32.652344 462.46875 32.796875 C 462.800781 32.945312 463.089844 33.148438 463.335938 33.410156 C 463.585938 33.671875 463.777344 33.96875 463.90625 34.304688 C 464.039062 34.640625 464.101562 34.988281 464.09375 35.347656 Z M 464.09375 35.347656 "/><path style=" stroke:none;fill-rule:nonzero;fill:#e29874;fill-opacity:1;" d="M 475.339844 83.121094 C 475.324219 82.242188 475.351562 81.363281 475.421875 80.484375 C 475.492188 79.605469 475.605469 78.734375 475.761719 77.867188 C 475.917969 77 476.117188 76.140625 476.359375 75.292969 C 476.597656 74.445312 476.878906 73.613281 477.203125 72.792969 C 477.527344 71.972656 477.890625 71.171875 478.289062 70.386719 C 478.691406 69.605469 479.132812 68.839844 479.609375 68.101562 C 480.085938 67.359375 480.597656 66.644531 481.144531 65.953125 C 481.695312 65.265625 482.273438 64.601562 482.886719 63.96875 C 483.5 63.335938 484.140625 62.734375 484.8125 62.164062 C 485.484375 61.59375 486.183594 61.058594 486.910156 60.558594 C 487.632812 60.054688 488.382812 59.59375 489.152344 59.164062 C 489.921875 58.738281 490.710938 58.347656 491.519531 57.996094 C 492.328125 57.648438 493.152344 57.339844 493.992188 57.070312 C 494.832031 56.800781 495.683594 56.574219 496.542969 56.390625 C 497.40625 56.203125 498.273438 56.0625 499.148438 55.960938 C 500.023438 55.863281 500.902344 55.804688 501.785156 55.792969 C 515.785156 55.792969 526.902344 66.90625 528.019531 81.128906 L 528.019531 81.566406 C 528.007812 81.90625 527.933594 82.234375 527.789062 82.542969 C 527.648438 82.855469 527.449219 83.125 527.199219 83.355469 C 526.945312 83.585938 526.660156 83.757812 526.339844 83.871094 C 526.015625 83.984375 525.6875 84.03125 525.34375 84.011719 L 480.671875 84.011719 C 480.6875 84.695312 480.734375 85.375 480.816406 86.054688 C 480.898438 86.734375 481.011719 87.40625 481.160156 88.074219 C 481.304688 88.742188 481.484375 89.398438 481.691406 90.050781 C 481.902344 90.699219 482.140625 91.339844 482.410156 91.964844 C 482.683594 92.59375 482.980469 93.207031 483.3125 93.804688 C 483.640625 94.402344 483.996094 94.984375 484.382812 95.550781 C 484.765625 96.113281 485.175781 96.660156 485.613281 97.183594 C 486.050781 97.710938 486.511719 98.210938 486.996094 98.695312 C 487.484375 99.175781 487.992188 99.632812 488.519531 100.0625 C 489.046875 100.496094 489.597656 100.902344 490.164062 101.28125 C 490.734375 101.664062 491.316406 102.015625 491.917969 102.339844 C 492.519531 102.664062 493.136719 102.957031 493.765625 103.222656 C 494.394531 103.488281 495.035156 103.722656 495.6875 103.925781 C 496.339844 104.128906 497 104.300781 497.671875 104.441406 C 498.339844 104.582031 499.011719 104.6875 499.691406 104.765625 C 500.371094 104.839844 501.050781 104.882812 501.734375 104.894531 C 503.5 104.898438 505.238281 104.675781 506.945312 104.230469 C 508.65625 103.78125 510.277344 103.128906 511.816406 102.261719 C 513.355469 101.394531 514.757812 100.347656 516.027344 99.121094 C 517.296875 97.890625 518.386719 96.523438 519.300781 95.011719 C 519.476562 94.71875 519.703125 94.46875 519.980469 94.265625 C 520.253906 94.0625 520.558594 93.917969 520.890625 93.835938 C 521.222656 93.75 521.558594 93.734375 521.898438 93.785156 C 522.238281 93.835938 522.554688 93.945312 522.851562 94.121094 C 523.152344 94.320312 523.40625 94.566406 523.613281 94.863281 C 523.820312 95.15625 523.964844 95.480469 524.046875 95.832031 C 524.128906 96.183594 524.144531 96.535156 524.09375 96.894531 C 524.039062 97.25 523.921875 97.585938 523.742188 97.898438 C 522.585938 99.777344 521.210938 101.480469 519.617188 103.011719 C 518.027344 104.539062 516.265625 105.84375 514.339844 106.925781 C 512.417969 108.007812 510.386719 108.828125 508.25 109.386719 C 506.113281 109.949219 503.945312 110.234375 501.734375 110.242188 C 500.859375 110.226562 499.988281 110.171875 499.117188 110.070312 C 498.246094 109.972656 497.382812 109.832031 496.527344 109.648438 C 495.667969 109.464844 494.824219 109.238281 493.988281 108.972656 C 493.15625 108.703125 492.335938 108.398438 491.53125 108.050781 C 490.726562 107.703125 489.941406 107.316406 489.175781 106.894531 C 488.40625 106.46875 487.664062 106.011719 486.941406 105.511719 C 486.222656 105.015625 485.527344 104.484375 484.855469 103.921875 C 484.1875 103.355469 483.546875 102.757812 482.933594 102.132812 C 482.324219 101.503906 481.746094 100.847656 481.199219 100.164062 C 480.652344 99.480469 480.140625 98.769531 479.664062 98.035156 C 479.1875 97.300781 478.746094 96.542969 478.34375 95.765625 C 477.941406 94.988281 477.578125 94.195312 477.25 93.378906 C 476.925781 92.566406 476.640625 91.738281 476.398438 90.898438 C 476.152344 90.058594 475.953125 89.207031 475.792969 88.34375 C 475.628906 87.484375 475.511719 86.617188 475.4375 85.746094 C 475.363281 84.871094 475.328125 83.996094 475.339844 83.121094 Z M 480.996094 78.796875 L 522.234375 78.796875 C 522.035156 77.585938 521.738281 76.402344 521.332031 75.246094 C 520.929688 74.089844 520.429688 72.976562 519.832031 71.90625 C 519.230469 70.835938 518.546875 69.824219 517.773438 68.875 C 516.996094 67.925781 516.144531 67.050781 515.21875 66.246094 C 514.292969 65.445312 513.300781 64.730469 512.25 64.101562 C 511.195312 63.472656 510.097656 62.941406 508.953125 62.503906 C 507.808594 62.066406 506.632812 61.730469 505.429688 61.5 C 504.226562 61.269531 503.011719 61.140625 501.785156 61.121094 C 500.546875 61.132812 499.320312 61.25 498.101562 61.476562 C 496.886719 61.699219 495.695312 62.027344 494.539062 62.460938 C 493.378906 62.890625 492.265625 63.421875 491.195312 64.046875 C 490.128906 64.671875 489.125 65.386719 488.179688 66.1875 C 487.238281 66.988281 486.371094 67.867188 485.582031 68.820312 C 484.792969 69.773438 484.089844 70.785156 483.480469 71.859375 C 482.867188 72.9375 482.351562 74.054688 481.933594 75.21875 C 481.515625 76.386719 481.203125 77.578125 480.996094 78.796875 Z M 480.996094 78.796875 "/><path style=" stroke:none;fill-rule:nonzero;fill:#e29874;fill-opacity:1;" d="M 568.1875 772.933594 L 244.265625 772.933594 C 243.917969 772.960938 243.582031 772.917969 243.253906 772.804688 C 242.921875 772.691406 242.628906 772.519531 242.375 772.28125 C 242.117188 772.046875 241.917969 771.769531 241.78125 771.449219 C 241.640625 771.128906 241.570312 770.796875 241.570312 770.449219 C 241.570312 770.097656 241.640625 769.765625 241.78125 769.445312 C 241.917969 769.128906 242.117188 768.851562 242.375 768.613281 C 242.628906 768.378906 242.921875 768.203125 243.253906 768.089844 C 243.582031 767.976562 243.917969 767.933594 244.265625 767.960938 L 568.1875 767.960938 C 568.5 767.984375 568.796875 768.066406 569.082031 768.203125 C 569.363281 768.34375 569.609375 768.527344 569.820312 768.757812 C 570.035156 768.988281 570.199219 769.246094 570.3125 769.539062 C 570.425781 769.832031 570.484375 770.132812 570.484375 770.449219 C 570.484375 770.761719 570.425781 771.0625 570.3125 771.355469 C 570.199219 771.648438 570.035156 771.910156 569.824219 772.140625 C 569.609375 772.371094 569.363281 772.554688 569.082031 772.691406 C 568.796875 772.828125 568.5 772.910156 568.1875 772.933594 Z M 568.1875 772.933594 "/><path style=" stroke:none;fill-rule:nonzero;fill:#a5614a;fill-opacity:1;" d="M 355.347656 542.699219 C 354.949219 541.6875 354.242188 540.984375 353.222656 540.59375 C 352.238281 540.199219 351.21875 540.054688 350.160156 540.15625 C 347.066406 540.335938 344.183594 541.777344 341.199219 542.617188 C 339.050781 543.238281 336.859375 543.574219 334.621094 543.625 C 334.121094 543.601562 333.625 543.542969 333.128906 543.445312 C 332.996094 543.121094 332.832031 542.816406 332.628906 542.527344 C 332.429688 542.238281 332.203125 541.972656 331.945312 541.734375 C 331.6875 541.496094 331.410156 541.289062 331.105469 541.109375 C 330.804688 540.929688 330.484375 540.789062 330.152344 540.679688 C 329.820312 540.570312 329.476562 540.496094 329.128906 540.460938 C 328.78125 540.425781 328.429688 540.425781 328.082031 540.464844 C 327.734375 540.507812 327.394531 540.582031 327.0625 540.695312 C 326.730469 540.808594 326.414062 540.957031 326.113281 541.140625 C 325.8125 541.320312 325.535156 541.535156 325.28125 541.777344 C 325.027344 542.019531 324.804688 542.285156 324.605469 542.574219 C 324.410156 542.867188 324.246094 543.175781 324.117188 543.5 C 323.988281 543.828125 323.894531 544.164062 323.839844 544.507812 C 323.78125 544.855469 323.761719 545.203125 323.78125 545.554688 C 323.800781 545.902344 323.855469 546.246094 323.949219 546.585938 C 324.042969 546.925781 324.171875 547.25 324.332031 547.558594 C 324.496094 547.871094 324.691406 548.160156 324.917969 548.425781 C 325.144531 548.695312 325.398438 548.9375 325.675781 549.148438 C 325.953125 549.363281 326.25 549.546875 326.570312 549.695312 C 326.886719 549.84375 327.214844 549.957031 327.558594 550.035156 C 327.902344 550.113281 328.246094 550.152344 328.597656 550.15625 C 328.949219 550.15625 329.296875 550.121094 329.640625 550.050781 C 329.984375 549.976562 330.316406 549.871094 330.632812 549.726562 C 330.953125 549.582031 331.253906 549.402344 331.535156 549.195312 C 331.816406 548.984375 332.074219 548.75 332.304688 548.484375 C 333.96875 549.097656 335.652344 549.160156 337.359375 548.679688 C 340.019531 547.898438 345.980469 544.222656 353.304688 544.9375 C 353.71875 545.019531 354.117188 544.96875 354.503906 544.789062 C 354.886719 544.613281 355.175781 544.335938 355.378906 543.964844 C 355.523438 543.539062 355.511719 543.117188 355.347656 542.699219 Z M 355.347656 542.699219 "/><path style=" stroke:none;fill-rule:nonzero;fill:#a5614a;fill-opacity:1;" d="M 541.613281 4.972656 C 543.320312 4.972656 545.023438 5.035156 546.722656 5.160156 C 548.421875 5.285156 550.117188 5.472656 551.800781 5.722656 C 553.488281 5.976562 555.164062 6.285156 556.828125 6.660156 C 558.492188 7.035156 560.140625 7.46875 561.769531 7.960938 C 563.402344 8.457031 565.011719 9.011719 566.605469 9.625 C 568.195312 10.238281 569.761719 10.910156 571.300781 11.636719 C 572.84375 12.367188 574.355469 13.152344 575.839844 13.992188 C 577.324219 14.832031 578.773438 15.726562 580.191406 16.671875 C 581.609375 17.617188 582.988281 18.617188 584.332031 19.664062 C 585.679688 20.714844 586.980469 21.8125 588.246094 22.957031 C 589.507812 24.101562 590.726562 25.289062 591.902344 26.523438 C 593.078125 27.757812 594.207031 29.035156 595.289062 30.351562 C 596.371094 31.671875 597.402344 33.027344 598.382812 34.417969 C 599.367188 35.8125 600.296875 37.242188 601.171875 38.703125 C 602.046875 40.164062 602.871094 41.65625 603.636719 43.179688 C 604.402344 44.703125 605.113281 46.25 605.765625 47.824219 C 606.417969 49.398438 607.011719 50.996094 607.546875 52.617188 C 608.082031 54.234375 608.554688 55.871094 608.96875 57.523438 C 609.382812 59.175781 609.738281 60.84375 610.027344 62.523438 C 610.320312 64.203125 610.550781 65.890625 610.714844 67.585938 C 610.882812 69.28125 610.988281 70.984375 611.03125 72.6875 C 611.070312 74.390625 611.050781 76.09375 610.96875 77.796875 C 610.882812 79.5 610.738281 81.195312 610.527344 82.886719 C 610.320312 84.578125 610.050781 86.261719 609.714844 87.933594 C 609.382812 89.605469 608.988281 91.261719 608.535156 92.90625 C 608.082031 94.546875 607.566406 96.171875 606.992188 97.777344 C 606.417969 99.382812 605.785156 100.964844 605.09375 102.523438 C 604.402344 104.078125 603.65625 105.609375 602.851562 107.113281 C 602.046875 108.617188 601.191406 110.089844 600.277344 111.527344 C 599.367188 112.96875 598.402344 114.375 597.386719 115.742188 C 596.371094 117.113281 595.304688 118.441406 594.191406 119.734375 C 593.078125 121.023438 591.917969 122.269531 590.714844 123.476562 C 587.496094 126.707031 583.992188 129.59375 580.203125 132.128906 C 576.414062 134.667969 572.414062 136.808594 568.199219 138.554688 C 563.984375 140.296875 559.640625 141.613281 555.167969 142.496094 C 550.691406 143.382812 546.175781 143.816406 541.613281 143.808594 L 270.210938 143.808594 C 268.503906 143.808594 266.800781 143.746094 265.101562 143.621094 C 263.402344 143.492188 261.707031 143.304688 260.019531 143.054688 C 258.335938 142.804688 256.660156 142.496094 254.996094 142.121094 C 253.332031 141.746094 251.683594 141.3125 250.054688 140.820312 C 248.421875 140.324219 246.8125 139.769531 245.21875 139.15625 C 243.628906 138.542969 242.0625 137.871094 240.523438 137.144531 C 238.980469 136.414062 237.46875 135.628906 235.984375 134.789062 C 234.5 133.949219 233.050781 133.054688 231.632812 132.109375 C 230.214844 131.160156 228.835938 130.164062 227.492188 129.117188 C 226.144531 128.066406 224.84375 126.96875 223.578125 125.824219 C 222.316406 124.679688 221.097656 123.492188 219.921875 122.257812 C 218.746094 121.023438 217.617188 119.746094 216.535156 118.429688 C 215.453125 117.109375 214.421875 115.753906 213.441406 114.363281 C 212.457031 112.96875 211.527344 111.539062 210.652344 110.078125 C 209.777344 108.617188 208.953125 107.125 208.1875 105.601562 C 207.421875 104.078125 206.710938 102.53125 206.058594 100.957031 C 205.40625 99.378906 204.8125 97.785156 204.277344 96.164062 C 203.742188 94.546875 203.269531 92.910156 202.855469 91.257812 C 202.441406 89.605469 202.085938 87.9375 201.796875 86.257812 C 201.503906 84.578125 201.273438 82.890625 201.109375 81.195312 C 200.941406 79.496094 200.835938 77.796875 200.792969 76.09375 C 200.753906 74.390625 200.773438 72.6875 200.855469 70.984375 C 200.941406 69.28125 201.085938 67.585938 201.296875 65.894531 C 201.503906 64.199219 201.773438 62.519531 202.109375 60.847656 C 202.441406 59.175781 202.832031 57.519531 203.289062 55.875 C 203.742188 54.234375 204.257812 52.609375 204.832031 51.003906 C 205.40625 49.398438 206.039062 47.816406 206.730469 46.257812 C 207.421875 44.699219 208.167969 43.171875 208.972656 41.667969 C 209.777344 40.164062 210.632812 38.691406 211.546875 37.25 C 212.457031 35.8125 213.421875 34.40625 214.4375 33.039062 C 215.453125 31.667969 216.519531 30.339844 217.632812 29.046875 C 218.746094 27.757812 219.90625 26.507812 221.109375 25.304688 C 224.328125 22.070312 227.832031 19.1875 231.617188 16.648438 C 235.40625 14.109375 239.410156 11.96875 243.625 10.222656 C 247.835938 8.476562 252.183594 7.164062 256.65625 6.28125 C 261.132812 5.394531 265.648438 4.960938 270.210938 4.972656 L 541.613281 4.972656 M 541.613281 0 L 270.210938 0 C 268.992188 0 267.773438 0.03125 266.558594 0.0898438 C 265.34375 0.148438 264.128906 0.238281 262.917969 0.359375 C 261.703125 0.476562 260.496094 0.625 259.292969 0.804688 C 258.085938 0.984375 256.886719 1.191406 255.691406 1.429688 C 254.5 1.667969 253.3125 1.933594 252.128906 2.230469 C 250.949219 2.523438 249.773438 2.851562 248.609375 3.203125 C 247.445312 3.558594 246.289062 3.9375 245.140625 4.347656 C 243.996094 4.757812 242.859375 5.195312 241.734375 5.664062 C 240.609375 6.128906 239.496094 6.621094 238.394531 7.140625 C 237.292969 7.664062 236.207031 8.210938 235.132812 8.785156 C 234.058594 9.359375 233 9.957031 231.957031 10.582031 C 230.910156 11.210938 229.882812 11.859375 228.871094 12.535156 C 227.859375 13.214844 226.863281 13.914062 225.882812 14.640625 C 224.90625 15.363281 223.945312 16.113281 223.003906 16.886719 C 222.0625 17.660156 221.140625 18.453125 220.238281 19.269531 C 219.335938 20.089844 218.457031 20.925781 217.59375 21.789062 C 216.734375 22.648438 215.894531 23.53125 215.074219 24.433594 C 214.257812 25.335938 213.464844 26.257812 212.691406 27.199219 C 211.917969 28.140625 211.167969 29.097656 210.445312 30.074219 C 209.71875 31.054688 209.015625 32.050781 208.339844 33.0625 C 207.664062 34.074219 207.011719 35.101562 206.386719 36.144531 C 205.761719 37.191406 205.160156 38.25 204.585938 39.324219 C 204.011719 40.398438 203.464844 41.484375 202.945312 42.585938 C 202.421875 43.683594 201.929688 44.796875 201.464844 45.921875 C 201 47.046875 200.558594 48.183594 200.148438 49.328125 C 199.738281 50.476562 199.359375 51.632812 199.003906 52.796875 C 198.652344 53.960938 198.324219 55.132812 198.03125 56.316406 C 197.734375 57.496094 197.46875 58.683594 197.230469 59.878906 C 196.992188 61.070312 196.785156 62.269531 196.605469 63.476562 C 196.425781 64.679688 196.277344 65.886719 196.160156 67.097656 C 196.039062 68.308594 195.949219 69.523438 195.890625 70.742188 C 195.828125 71.957031 195.800781 73.171875 195.800781 74.390625 C 195.800781 75.609375 195.828125 76.824219 195.890625 78.039062 C 195.949219 79.257812 196.039062 80.46875 196.160156 81.683594 C 196.277344 82.894531 196.425781 84.101562 196.605469 85.304688 C 196.785156 86.511719 196.992188 87.710938 197.230469 88.902344 C 197.46875 90.097656 197.734375 91.285156 198.03125 92.464844 C 198.324219 93.648438 198.652344 94.820312 199.003906 95.984375 C 199.359375 97.148438 199.738281 98.304688 200.148438 99.453125 C 200.558594 100.597656 201 101.734375 201.464844 102.859375 C 201.929688 103.984375 202.421875 105.097656 202.945312 106.195312 C 203.464844 107.296875 204.011719 108.382812 204.585938 109.457031 C 205.160156 110.53125 205.761719 111.589844 206.386719 112.632812 C 207.011719 113.679688 207.664062 114.707031 208.339844 115.71875 C 209.015625 116.730469 209.71875 117.726562 210.445312 118.703125 C 211.167969 119.683594 211.917969 120.640625 212.691406 121.582031 C 213.464844 122.523438 214.257812 123.445312 215.074219 124.347656 C 215.894531 125.25 216.734375 126.132812 217.59375 126.992188 C 218.457031 127.851562 219.335938 128.691406 220.238281 129.511719 C 221.140625 130.328125 222.0625 131.121094 223.003906 131.894531 C 223.945312 132.667969 224.90625 133.417969 225.882812 134.140625 C 226.863281 134.867188 227.859375 135.566406 228.871094 136.242188 C 229.882812 136.921875 230.910156 137.570312 231.957031 138.195312 C 233 138.824219 234.058594 139.421875 235.132812 139.996094 C 236.207031 140.570312 237.292969 141.117188 238.394531 141.636719 C 239.496094 142.160156 240.609375 142.652344 241.734375 143.117188 C 242.859375 143.585938 243.996094 144.023438 245.140625 144.433594 C 246.289062 144.84375 247.445312 145.222656 248.609375 145.578125 C 249.773438 145.929688 250.949219 146.253906 252.128906 146.550781 C 253.3125 146.847656 254.5 147.113281 255.691406 147.351562 C 256.886719 147.589844 258.085938 147.796875 259.292969 147.976562 C 260.496094 148.152344 261.703125 148.304688 262.917969 148.421875 C 264.128906 148.542969 265.34375 148.632812 266.558594 148.691406 C 267.773438 148.75 268.992188 148.78125 270.210938 148.78125 L 541.613281 148.78125 C 542.832031 148.78125 544.050781 148.75 545.265625 148.691406 C 546.480469 148.632812 547.695312 148.542969 548.90625 148.421875 C 550.121094 148.304688 551.328125 148.152344 552.53125 147.976562 C 553.738281 147.796875 554.9375 147.589844 556.128906 147.351562 C 557.324219 147.113281 558.511719 146.847656 559.695312 146.550781 C 560.875 146.253906 562.050781 145.929688 563.214844 145.578125 C 564.378906 145.222656 565.535156 144.84375 566.683594 144.433594 C 567.828125 144.023438 568.964844 143.585938 570.089844 143.117188 C 571.214844 142.652344 572.328125 142.160156 573.429688 141.636719 C 574.527344 141.117188 575.617188 140.570312 576.691406 139.996094 C 577.765625 139.421875 578.824219 138.824219 579.867188 138.195312 C 580.914062 137.570312 581.941406 136.921875 582.953125 136.242188 C 583.964844 135.566406 584.960938 134.867188 585.941406 134.140625 C 586.917969 133.417969 587.878906 132.667969 588.820312 131.894531 C 589.761719 131.121094 590.683594 130.328125 591.585938 129.511719 C 592.488281 128.691406 593.367188 127.851562 594.230469 126.992188 C 595.089844 126.132812 595.929688 125.25 596.75 124.347656 C 597.566406 123.445312 598.359375 122.523438 599.132812 121.582031 C 599.90625 120.640625 600.65625 119.683594 601.378906 118.703125 C 602.105469 117.726562 602.808594 116.730469 603.484375 115.71875 C 604.160156 114.707031 604.8125 113.679688 605.4375 112.632812 C 606.0625 111.589844 606.664062 110.53125 607.238281 109.457031 C 607.8125 108.382812 608.359375 107.296875 608.878906 106.195312 C 609.402344 105.097656 609.894531 103.984375 610.359375 102.859375 C 610.824219 101.734375 611.265625 100.597656 611.675781 99.453125 C 612.085938 98.304688 612.464844 97.148438 612.820312 95.984375 C 613.171875 94.820312 613.496094 93.648438 613.792969 92.464844 C 614.089844 91.285156 614.355469 90.097656 614.59375 88.902344 C 614.832031 87.710938 615.039062 86.511719 615.21875 85.304688 C 615.398438 84.101562 615.546875 82.894531 615.664062 81.683594 C 615.785156 80.46875 615.875 79.257812 615.933594 78.039062 C 615.992188 76.824219 616.023438 75.609375 616.023438 74.390625 C 616.023438 73.171875 615.992188 71.957031 615.933594 70.742188 C 615.875 69.523438 615.785156 68.308594 615.664062 67.097656 C 615.546875 65.886719 615.398438 64.679688 615.21875 63.476562 C 615.039062 62.269531 614.832031 61.070312 614.59375 59.878906 C 614.355469 58.683594 614.089844 57.496094 613.792969 56.316406 C 613.5 55.132812 613.171875 53.960938 612.820312 52.796875 C 612.464844 51.632812 612.085938 50.476562 611.675781 49.328125 C 611.265625 48.183594 610.824219 47.046875 610.359375 45.921875 C 609.894531 44.796875 609.402344 43.683594 608.878906 42.585938 C 608.359375 41.484375 607.8125 40.398438 607.238281 39.324219 C 606.664062 38.25 606.0625 37.191406 605.4375 36.144531 C 604.8125 35.101562 604.160156 34.074219 603.484375 33.0625 C 602.808594 32.050781 602.105469 31.054688 601.378906 30.074219 C 600.65625 29.097656 599.90625 28.140625 599.132812 27.199219 C 598.359375 26.257812 597.566406 25.335938 596.75 24.433594 C 595.929688 23.53125 595.089844 22.648438 594.230469 21.789062 C 593.367188 20.925781 592.488281 20.089844 591.585938 19.269531 C 590.683594 18.453125 589.761719 17.660156 588.820312 16.886719 C 587.878906 16.113281 586.917969 15.363281 585.941406 14.640625 C 584.960938 13.914062 583.964844 13.214844 582.953125 12.535156 C 581.941406 11.859375 580.914062 11.210938 579.867188 10.582031 C 578.824219 9.957031 577.765625 9.359375 576.691406 8.785156 C 575.617188 8.210938 574.527344 7.664062 573.429688 7.140625 C 572.328125 6.621094 571.214844 6.128906 570.089844 5.664062 C 568.964844 5.195312 567.828125 4.757812 566.683594 4.347656 C 565.535156 3.9375 564.378906 3.558594 563.214844 3.203125 C 562.050781 2.851562 560.875 2.523438 559.695312 2.230469 C 558.511719 1.933594 557.324219 1.667969 556.128906 1.429688 C 554.9375 1.191406 553.738281 0.984375 552.53125 0.804688 C 551.328125 0.625 550.121094 0.476562 548.90625 0.359375 C 547.695312 0.238281 546.480469 0.148438 545.265625 0.0898438 C 544.050781 0.03125 542.832031 0 541.613281 0 Z M 541.613281 0 "/></g></svg>