<svg xmlns="http://www.w3.org/2000/svg" xmlns:xlink="http://www.w3.org/1999/xlink" width="1080" zoomAndPan="magnify" viewBox="0 0 810 809.999993" height="1080" preserveAspectRatio="xMidYMid meet" version="1.2"><defs><clipPath id="92c084a656"><path d="M 56 3 L 755.742188 3 L 755.742188 810 L 56 810 Z M 56 3 "/></clipPath></defs><g id="3f4bac0e04"><path style=" stroke:none;fill-rule:evenodd;fill:#ffffff;fill-opacity:1;" d="M 747.304688 134.359375 C 747.304688 132.496094 745.796875 130.988281 743.933594 130.988281 L 742.410156 130.988281 C 740.375 128.992188 737.585938 127.769531 734.515625 127.769531 L 377.351562 130.652344 C 377.503906 129.539062 377.542969 128.804688 377.542969 128.804688 L 394.359375 128.449219 C 394.359375 128.449219 391.554688 122.140625 383.851562 120.03125 C 376.148438 117.921875 351.605469 117.921875 347.40625 123.175781 C 347.40625 123.175781 345.257812 126.996094 345.109375 130.894531 L 334.824219 130.96875 L 204.488281 130.96875 C 195.164062 130.96875 187.613281 138.519531 187.613281 147.839844 L 187.613281 273.765625 L 132.425781 324.339844 C 132.425781 324.339844 137.417969 347.460938 138.734375 354.820312 C 140.054688 362.183594 143.464844 363.484375 143.464844 363.484375 L 187.613281 368.210938 L 187.613281 369.226562 L 161.320312 366.269531 C 161.320312 366.269531 156.421875 377.832031 156.421875 385.53125 C 156.421875 393.230469 163.429688 402.703125 163.429688 402.703125 L 187.613281 397.507812 L 187.613281 397.730469 C 180.4375 399.710938 164.238281 404.058594 158.171875 404.453125 C 150.28125 404.980469 137.851562 411.984375 125.929688 407.957031 C 114.007812 403.925781 108.222656 400.253906 103.496094 385.53125 C 98.769531 370.828125 96.132812 360.828125 96.132812 360.828125 L 59.894531 397.128906 C 59.894531 397.128906 57.785156 403.4375 62.53125 408.691406 C 67.257812 413.945312 125.082031 472.800781 125.082031 472.800781 C 125.082031 472.800781 129.808594 478.054688 138.226562 473.855469 C 140.035156 472.953125 144.160156 469.714844 149.546875 465.175781 C 144.78125 470.617188 135.890625 479.203125 128.773438 477.019531 L 135.609375 755.511719 L 177.140625 754.984375 L 179.25 745.53125 L 207.105469 752.367188 C 207.105469 752.367188 239.164062 632.035156 240.746094 609.4375 C 242.328125 586.84375 243.890625 572.914062 239.164062 551.371094 C 239.105469 551.128906 239.050781 550.84375 238.992188 550.582031 L 546.167969 550.582031 C 551.746094 557.792969 566.679688 576.566406 572.046875 578.257812 C 578.695312 580.367188 643.1875 581.402344 643.1875 581.402344 L 678.578125 579.296875 L 684.792969 554.421875 C 685.058594 558.960938 685.265625 566.605469 683.832031 569.484375 C 681.722656 573.683594 678.578125 579.296875 678.578125 579.296875 L 725.53125 579.992188 C 725.53125 579.992188 732.898438 576.847656 731.484375 571.238281 C 730.691406 568.054688 727.433594 558.375 724.742188 550.5625 L 747.324219 550.5625 L 747.324219 134.359375 Z M 684.511719 550.902344 C 684.511719 550.902344 684.625 552.03125 684.738281 553.726562 L 683.472656 550.542969 L 694.679688 550.542969 Z M 115.605469 237.390625 C 116.660156 230.554688 124.027344 230.027344 124.027344 230.027344 L 152.9375 199.015625 C 152.9375 199.015625 169.757812 210.3125 173.695312 219.765625 C 177.628906 229.21875 177.628906 242.359375 172.375 247.085938 C 167.121094 251.8125 157.929688 252.339844 157.929688 252.339844 L 159.773438 261.527344 L 135.0625 265.199219 L 131.390625 241.023438 C 131.390625 241.0625 114.570312 244.222656 115.605469 237.390625 Z M 473.917969 48.238281 L 516.675781 37.375 L 522.984375 51.382812 L 528.238281 48.933594 C 528.238281 48.933594 536.65625 45.074219 539.105469 52.078125 C 541.554688 59.082031 527.898438 66.085938 527.898438 66.085938 L 528.597656 72.394531 L 536.65625 78.34375 C 536.65625 78.34375 531.761719 87.101562 520.894531 89.546875 C 510.023438 91.996094 509.328125 83.9375 509.328125 83.9375 C 473.917969 87.121094 473.917969 48.238281 473.917969 48.238281 Z M 611.621094 651.085938 L 641.398438 694.882812 C 641.398438 694.882812 636.144531 692.773438 628.777344 696.632812 C 621.414062 700.492188 622.828125 711.695312 622.828125 711.695312 C 622.828125 711.695312 616.515625 725.007812 608.8125 733.40625 C 601.109375 741.820312 597.945312 743.574219 595.140625 741.464844 C 592.332031 739.355469 591.277344 731.296875 591.277344 731.296875 L 598.285156 715.539062 L 595.835938 694.863281 L 582.726562 675.773438 C 581.617188 675.921875 579.207031 676.054688 574.460938 675.601562 C 567.09375 674.90625 568.847656 666.488281 568.847656 666.488281 L 555.886719 652.480469 L 580.769531 651.785156 Z M 611.621094 651.085938 "/><path style=" stroke:none;fill-rule:evenodd;fill:#f7ce4d;fill-opacity:1;" d="M 135.0625 265.238281 L 159.773438 261.566406 C 159.773438 261.566406 161 269.265625 166.613281 269.265625 C 172.222656 269.265625 193.941406 266.816406 193.941406 266.816406 L 133.667969 323.566406 C 133.667969 323.566406 135.777344 360.695312 139.980469 362.804688 C 144.179688 364.914062 161.355469 366.308594 161.355469 366.308594 C 161.355469 366.308594 152.242188 380.671875 155.742188 388.015625 C 159.246094 395.359375 163.445312 402.722656 163.445312 402.722656 C 163.445312 402.722656 137.871094 410.082031 125.949219 407.976562 C 114.023438 405.867188 109.128906 401.667969 100.707031 375.042969 C 92.289062 348.421875 87.390625 321.796875 89.503906 311.988281 C 91.613281 302.179688 92.648438 290.277344 100.371094 286.0625 C 108.09375 281.84375 130.503906 275.894531 130.503906 275.894531 C 130.503906 275.894531 138.925781 273.125 135.0625 265.238281 Z M 137.171875 807.496094 L 218.652344 806.441406 L 216.542969 801.714844 L 224.433594 799.605469 C 224.433594 799.605469 220.234375 789.101562 215.507812 784.902344 C 210.777344 780.703125 201.832031 777.011719 197.105469 770.722656 C 192.378906 764.417969 196.578125 751.273438 196.578125 751.273438 L 179.230469 745.492188 L 177.121094 754.945312 L 138.207031 754.945312 Z M 753.710938 640.582031 L 753.710938 592.945312 C 753.710938 586.65625 748.605469 581.554688 742.3125 581.554688 L 463.917969 581.554688 C 457.628906 581.554688 452.523438 586.65625 452.523438 592.945312 L 452.523438 640.582031 C 452.523438 646.871094 457.628906 651.972656 463.917969 651.972656 L 742.3125 651.972656 C 748.625 651.972656 753.710938 646.871094 753.710938 640.582031 Z M 523.324219 128.804688 L 495.992188 171.527344 L 488.988281 173.636719 C 488.988281 173.636719 492.847656 180.28125 496.351562 187.644531 C 499.855469 195.007812 495.296875 204.101562 495.296875 204.101562 C 495.296875 204.101562 500.195312 206.546875 514.226562 203.402344 C 528.238281 200.257812 533.492188 189.039062 533.492188 189.039062 C 533.492188 189.039062 578.695312 112.667969 580.449219 106.363281 C 582.199219 100.054688 579.394531 89.191406 569.582031 84.296875 C 559.769531 79.398438 536.640625 78.34375 536.640625 78.34375 C 536.640625 78.34375 530.6875 86.402344 520.875 89.546875 C 511.0625 92.691406 511.757812 82.542969 511.757812 82.542969 C 511.757812 82.542969 511.757812 82.542969 505.449219 83.597656 C 499.140625 84.652344 484.769531 79.042969 484.769531 79.042969 C 484.769531 79.042969 473.898438 82.902344 461.28125 90.960938 C 448.660156 99.019531 417.132812 128.785156 417.132812 128.785156 L 523.324219 128.785156 Z M 469.699219 25.117188 C 469.699219 25.117188 471.453125 41.574219 473.5625 45.789062 C 475.671875 50.007812 517.011719 36.339844 525.414062 30.371094 C 533.832031 24.421875 530.667969 20.203125 530.667969 20.203125 L 521.550781 6.890625 C 521.570312 6.890625 485.484375 1.300781 469.699219 25.117188 Z M 330.945312 336.519531 L 332.339844 401.667969 L 389.105469 435.992188 L 449.378906 403.0625 L 449.378906 336.503906 L 388.410156 299.371094 Z M 656.824219 232.832031 L 656.125 253.84375 L 677.144531 268.550781 L 696.074219 255.238281 L 696.773438 231.421875 L 677.144531 220.914062 Z M 656.824219 232.832031 "/><path style=" stroke:none;fill-rule:evenodd;fill:#000000;fill-opacity:1;" d="M 171.339844 187.476562 C 173.449219 199.035156 166.613281 208.488281 166.613281 208.488281 L 152.9375 199.035156 L 124.027344 230.046875 C 124.027344 230.046875 115.097656 230.046875 115.605469 237.40625 C 116.132812 244.769531 131.371094 241.078125 131.371094 241.078125 L 134.515625 252.640625 C 134.515625 252.640625 137.664062 273.652344 132.933594 263.671875 C 128.207031 253.695312 127.679688 257.894531 118.734375 253.167969 C 109.804688 248.441406 102.96875 242.132812 98.242188 233.210938 C 93.515625 224.285156 98.769531 207.472656 98.769531 207.472656 C 98.769531 207.472656 106.660156 201.164062 113.480469 195.910156 C 120.296875 190.65625 125.042969 181.203125 130.824219 178.042969 C 136.609375 174.898438 140.28125 176.988281 140.28125 176.988281 C 140.28125 176.988281 143.425781 171.207031 150.261719 172.261719 C 157.101562 173.316406 160.246094 179.625 160.246094 179.625 C 163.445312 175.914062 169.230469 175.914062 171.339844 187.476562 Z M 536.640625 48.238281 C 540.839844 51.042969 532.4375 25.8125 532.4375 25.8125 L 513.867188 36.320312 L 522.984375 51.382812 C 522.964844 51.382812 532.4375 45.433594 536.640625 48.238281 Z M 705.886719 417.445312 C 700.273438 408.332031 687.316406 391.875 683.457031 378.566406 C 679.59375 365.253906 677.503906 347.742188 674.699219 339.683594 C 671.890625 331.625 662.773438 320.421875 648.066406 322.171875 C 648.066406 322.171875 615.820312 295.550781 593.746094 330.929688 C 593.746094 330.929688 609.511719 355.445312 615.460938 355.800781 C 621.414062 356.160156 624.578125 354.050781 625.972656 356.855469 C 627.367188 359.660156 619.664062 364.554688 619.664062 364.554688 L 621.054688 378.921875 L 631.921875 378.921875 L 634.730469 373.3125 C 634.730469 373.3125 646.652344 369.113281 647.6875 365.949219 C 647.6875 365.949219 650.832031 388.375 649.441406 399.578125 C 648.046875 410.78125 642.433594 416.390625 641.378906 422.699219 C 640.324219 429.007812 640.324219 446.179688 649.441406 447.214844 C 658.554688 448.269531 662.398438 444.765625 662.398438 444.765625 C 662.398438 444.765625 669.40625 460.882812 682.722656 456.683594 C 696.039062 452.484375 692.890625 440.226562 692.890625 440.226562 C 692.890625 440.226562 695.699219 446.179688 704.097656 438.835938 C 712.5 431.492188 711.5 426.558594 705.886719 417.445312 Z M 507.199219 545.648438 L 506.503906 559.65625 C 506.503906 559.65625 478.476562 558.601562 476.726562 578.578125 C 476.726562 579.277344 487.933594 581.027344 498.441406 581.722656 C 508.953125 582.421875 558.015625 581.722656 558.015625 581.722656 L 544.003906 546.703125 Z M 624.9375 668.785156 C 596.023438 665.113281 592.351562 689.800781 592.351562 689.800781 C 592.351562 689.800781 599.1875 700.304688 598.660156 710.8125 C 598.132812 721.316406 591.296875 731.296875 591.296875 731.296875 L 592.804688 740.730469 C 591.75 737.960938 591.65625 734.441406 591.65625 734.441406 C 591.65625 734.441406 586.042969 741.804688 583.953125 750.199219 C 581.84375 758.617188 588.152344 762.121094 598.660156 761.761719 C 609.171875 761.402344 622.148438 746.699219 622.148438 746.699219 L 651.230469 713.070312 C 651.230469 713.070312 647.367188 703.621094 645.277344 700.117188 Z M 624.9375 668.785156 "/><g clip-rule="nonzero" clip-path="url(#92c084a656)"><path style=" stroke:none;fill-rule:nonzero;fill:#000000;fill-opacity:1;" d="M 207.011719 174.613281 C 207.011719 173.429688 207.992188 172.449219 209.179688 172.449219 L 365.109375 172.449219 C 366.296875 172.449219 367.277344 173.429688 367.277344 174.613281 C 367.277344 175.800781 366.296875 176.78125 365.109375 176.78125 L 209.179688 176.78125 C 207.972656 176.78125 207.011719 175.800781 207.011719 174.613281 Z M 209.179688 187.570312 L 261.386719 187.570312 C 262.574219 187.570312 263.554688 186.589844 263.554688 185.402344 C 263.554688 184.21875 262.574219 183.238281 261.386719 183.238281 L 209.179688 183.238281 C 207.992188 183.238281 207.011719 184.21875 207.011719 185.402344 C 207.011719 186.589844 207.972656 187.570312 209.179688 187.570312 Z M 365.65625 184.332031 L 313.429688 184.332031 C 312.242188 184.332031 311.261719 185.308594 311.261719 186.496094 C 311.261719 187.683594 312.242188 188.660156 313.429688 188.660156 L 365.65625 188.660156 C 366.84375 188.660156 367.824219 187.683594 367.824219 186.496094 C 367.824219 185.308594 366.84375 184.332031 365.65625 184.332031 Z M 755.140625 592.984375 L 755.140625 639.261719 C 755.140625 646.777344 749.019531 652.894531 741.503906 652.894531 L 613.972656 652.894531 C 622.167969 663.757812 648.234375 698.628906 651.53125 706.894531 C 655.261719 716.195312 649.101562 722.242188 636.839844 734.289062 C 634.597656 736.492188 632.132812 738.921875 629.457031 741.613281 C 619.25 751.933594 607.003906 764.285156 595.273438 764.285156 C 592.617188 764.285156 589.996094 763.664062 587.4375 762.230469 C 575.835938 755.792969 582.691406 742.96875 588.207031 732.691406 C 589.582031 730.128906 590.882812 727.71875 591.917969 725.421875 L 593.292969 722.429688 C 597.34375 713.65625 597.589844 713.144531 595.289062 703.316406 C 593.953125 697.574219 587.757812 686.617188 582.085938 677.335938 C 581.257812 677.449219 580.054688 677.578125 578.679688 677.578125 C 575.984375 677.578125 572.613281 677.109375 570.089844 675.226562 C 568.261719 673.851562 567.152344 671.875 566.753906 669.503906 L 553.25 652.894531 L 464.917969 652.894531 C 457.402344 652.894531 451.28125 646.777344 451.28125 639.261719 L 451.28125 592.984375 C 451.28125 585.472656 457.402344 579.351562 464.917969 579.351562 L 475.839844 579.351562 C 475.613281 576.714844 475.972656 571.914062 480.058594 566.53125 C 485.859375 558.867188 499.910156 557.566406 505.183594 557.339844 L 505.617188 552.277344 L 241.402344 552.277344 C 243.703125 571.746094 244.832031 589.179688 243.738281 601.078125 C 239.445312 647.738281 208.667969 752.894531 208.367188 753.964844 C 208.085938 754.90625 207.21875 755.53125 206.296875 755.53125 C 206.089844 755.53125 205.882812 755.511719 205.695312 755.433594 L 199.175781 753.535156 C 198.820312 754.230469 197.03125 758.035156 197.78125 764.171875 C 198.6875 771.496094 198.933594 773.472656 206.523438 776.898438 C 217.953125 782.078125 224.734375 790.136719 225.621094 799.605469 C 225.714844 800.679688 225.019531 801.660156 223.964844 801.902344 L 219.59375 802.9375 C 220.460938 805.140625 220.949219 806.761719 221.007812 806.929688 C 221.195312 807.589844 221.0625 808.285156 220.667969 808.832031 C 220.253906 809.378906 219.632812 809.699219 218.933594 809.699219 L 136.457031 810.054688 C 135.875 810.054688 135.308594 809.832031 134.914062 809.398438 C 134.5 808.984375 134.273438 808.417969 134.292969 807.835938 L 135.703125 756.601562 L 135.554688 756.601562 C 134.386719 756.601562 133.425781 755.660156 133.386719 754.492188 L 126.90625 477.996094 C 126.90625 477.714844 126.964844 477.433594 127.058594 477.167969 C 125.816406 476.585938 124.648438 475.777344 123.628906 474.757812 L 59.648438 409.914062 C 55.015625 405.226562 55.054688 397.621094 59.707031 392.96875 L 94.777344 357.910156 C 94.171875 355.367188 93.515625 352.714844 92.816406 349.945312 C 88.558594 333 83.269531 311.894531 89.765625 296.546875 C 95.660156 282.597656 116.566406 276.796875 128.507812 274.59375 C 130.9375 274.140625 132.765625 272.164062 132.972656 269.773438 C 133.027344 269.003906 133.066406 268.210938 133.085938 267.382812 C 132.992188 267.289062 132.917969 267.214844 132.839844 267.101562 L 127.640625 259.476562 C 126.210938 257.367188 124.082031 255.917969 121.691406 255.371094 C 114.117188 253.675781 96.375 247.667969 95.191406 228.390625 C 94.023438 219.898438 93.476562 207.679688 102.214844 201.464844 C 103.855469 200.296875 105.398438 199.28125 106.847656 198.320312 C 111.40625 195.289062 114.683594 193.105469 117.339844 189.09375 C 118.921875 186.683594 127.210938 174.652344 135.214844 173.992188 C 136.738281 173.863281 138.152344 174.164062 139.433594 174.859375 C 141.9375 171.300781 146.308594 167.574219 151.582031 169.53125 C 156.082031 171.207031 158.511719 174.992188 159.753906 177.777344 C 162.148438 176.082031 165.78125 174.351562 168.929688 176.402344 C 173.863281 179.605469 176.652344 193.140625 168.796875 209.222656 C 172.769531 214.398438 176.273438 221.421875 177.460938 230.667969 C 178.550781 239.253906 177.007812 245.730469 172.847656 249.929688 C 169.078125 253.714844 164.164062 254.597656 161.167969 254.75 L 162.167969 263.578125 C 162.429688 265.894531 164.40625 267.550781 166.78125 267.402344 L 186.292969 265.972656 L 186.292969 144.207031 C 186.292969 135.847656 193.09375 129.050781 201.457031 129.050781 L 343.035156 129.050781 C 343.09375 128.335938 343.1875 127.601562 343.339844 126.886719 C 344.222656 122.742188 347.59375 119.484375 351.925781 118.621094 C 356.183594 117.773438 362.34375 116.640625 367.445312 116.097656 C 376.824219 115.078125 385.378906 115.171875 395.019531 126.566406 C 395.171875 126.734375 395.265625 126.941406 395.339844 127.148438 L 416.886719 127.148438 C 416.964844 127.015625 417 126.867188 417.113281 126.753906 C 418.527344 125.078125 451.296875 86.648438 483.542969 78.121094 C 473.410156 67.445312 471.921875 49.746094 471.734375 46.601562 C 470.511719 43.964844 464.257812 29.371094 469.964844 20.109375 C 476.3125 9.789062 508.199219 0.0195312 520.894531 4.5 C 526.542969 6.496094 530.875 14.761719 533.984375 23.722656 C 534.097656 23.929688 534.171875 24.15625 534.210938 24.382812 C 537.824219 34.984375 539.746094 46.316406 540.234375 49.3125 C 541.441406 51.136719 541.894531 53.097656 541.5 55.109375 C 540.425781 60.570312 533.777344 65.144531 531.082031 66.804688 L 530.835938 70.925781 L 536.714844 75.085938 C 540.988281 75.296875 564.289062 76.839844 575.382812 86.195312 C 586.644531 95.6875 580.863281 113.460938 574.683594 125.832031 L 735.664062 125.832031 C 744.027344 125.832031 750.828125 132.628906 750.828125 140.988281 L 750.828125 552.464844 C 750.828125 553.652344 749.847656 554.628906 748.660156 554.628906 L 727.960938 554.628906 C 730.523438 561.390625 732.21875 566.078125 732.558594 567.414062 C 733.648438 571.632812 733.140625 575.320312 731.144531 578.050781 C 730.789062 578.542969 730.375 578.957031 729.941406 579.371094 L 741.503906 579.371094 C 749.039062 579.351562 755.140625 585.46875 755.140625 592.984375 Z M 571.804688 579.351562 C 565.324219 575.304688 557.847656 567.660156 552.214844 561.332031 L 559.144531 579.351562 Z M 506.316406 543.519531 L 536.449219 543.519531 L 523.738281 530.039062 L 497.160156 530.039062 C 500.964844 535.539062 504.109375 540.226562 506.316406 543.519531 Z M 547.109375 548.527344 C 547.128906 548.546875 547.148438 548.585938 547.167969 548.625 C 547.1875 548.640625 547.222656 548.660156 547.242188 548.679688 C 553.328125 556.4375 570.898438 576.828125 579.035156 577.84375 C 589.488281 579.144531 667.464844 579.519531 674.941406 578.65625 C 675.882812 578.542969 676.9375 577.636719 677.9375 576.113281 C 681.496094 570.652344 683.550781 558.246094 680.949219 549.847656 C 677.804688 539.679688 657.125 490.519531 653.414062 481.746094 L 604.21875 483.101562 L 591.277344 511.757812 C 591.015625 512.359375 590.46875 512.8125 589.828125 512.960938 C 589.660156 513 589.488281 513.019531 589.300781 513.019531 C 588.828125 513.019531 588.359375 512.867188 587.964844 512.566406 L 537.355469 473.273438 C 532.15625 475.210938 527.597656 476.492188 524.394531 476.660156 C 524.171875 476.679688 523.964844 476.679688 523.757812 476.679688 C 514.601562 476.679688 507.257812 467.453125 501.757812 457.738281 C 498.140625 457.171875 484.542969 455.78125 476.726562 465.269531 C 467.234375 476.8125 469.472656 491.742188 483.542969 510.949219 C 487.347656 516.125 490.90625 521.132812 494.128906 525.726562 L 519.632812 525.726562 L 499.382812 504.265625 C 498.554688 503.398438 498.613281 502.023438 499.476562 501.195312 C 500.34375 500.386719 501.71875 500.421875 502.546875 501.289062 L 526.054688 526.199219 C 526.222656 526.332031 526.375 526.480469 526.488281 526.667969 Z M 450.074219 405.113281 L 422.011719 420.644531 L 441.976562 440.285156 L 493.261719 440.285156 C 492.90625 439.492188 492.566406 438.796875 492.265625 438.195312 L 491.699219 437.066406 C 487.480469 428.628906 482.246094 418.140625 476.011719 412.550781 C 472.996094 409.859375 471.226562 406.109375 470.171875 402.535156 C 467.269531 402.496094 464.785156 401.121094 463.109375 398.578125 C 460.378906 394.457031 460.152344 387.414062 462.617188 383.195312 C 463.804688 381.183594 466.347656 378.828125 469.191406 376.585938 L 453.597656 369.566406 C 453.332031 369.453125 453.105469 369.28125 452.898438 369.074219 L 447.097656 362.863281 C 446.496094 362.222656 446.34375 361.28125 446.703125 360.488281 C 446.910156 360.054688 447.25 359.71875 447.664062 359.511719 C 447.605469 359.320312 447.550781 359.132812 447.550781 358.925781 L 447.550781 337.839844 L 388.863281 302.78125 L 333.074219 336.746094 L 333.074219 400.179688 L 389.292969 433.828125 L 447.984375 401.308594 C 449.039062 400.726562 450.355469 401.101562 450.921875 402.15625 C 451.488281 403.210938 451.128906 404.527344 450.074219 405.113281 Z M 228.011719 470.089844 L 322.148438 470.089844 L 358.820312 420.628906 L 329.796875 403.269531 C 329.136719 402.871094 328.742188 402.175781 328.742188 401.402344 L 328.742188 390.972656 L 265.71875 390.972656 C 265.191406 390.972656 264.703125 390.785156 264.308594 390.445312 L 249.390625 377.492188 L 243.289062 383.347656 C 244.210938 384.703125 244.664062 386.171875 244.304688 387.582031 C 243.683594 390.070312 241.179688 391.3125 236.882812 391.332031 C 240.253906 397.335938 241.722656 403.097656 240.875 406.601562 C 240.367188 408.691406 239.085938 410.121094 237.242188 410.609375 C 235.378906 411.121094 233.550781 410.875 231.96875 409.933594 C 231.589844 409.707031 231.234375 409.445312 230.894531 409.160156 C 230.460938 409.839844 229.859375 410.421875 229.046875 410.855469 C 227.578125 411.628906 226.089844 411.722656 224.734375 411.496094 C 224.585938 413.679688 223.699219 415.808594 221.25 416.542969 C 219.894531 416.957031 218.632812 416.957031 217.558594 416.75 C 217.484375 416.957031 217.371094 417.144531 217.257812 417.351562 C 217.203125 417.445312 217.125 417.503906 217.070312 417.578125 C 218.238281 422.90625 222.890625 443.75 228.011719 470.089844 Z M 213.226562 415.316406 C 213.320312 415.222656 213.414062 415.148438 213.527344 415.074219 C 213.640625 414.847656 213.527344 414.339844 213.492188 414.246094 C 213.078125 413.285156 213.398438 412.171875 214.261719 411.589844 C 215.128906 411.007812 216.277344 411.121094 217.011719 411.855469 C 217.109375 411.949219 218.238281 412.925781 219.988281 412.398438 C 220.535156 412.230469 220.554688 410.179688 220.160156 408.691406 C 219.914062 407.785156 220.273438 406.84375 221.042969 406.316406 C 221.816406 405.808594 222.832031 405.828125 223.566406 406.394531 C 223.566406 406.394531 225.488281 407.804688 227.050781 406.996094 C 227.691406 406.65625 227.691406 404.660156 227.296875 403.023438 C 227.222656 402.777344 227.183594 402.609375 227.164062 402.515625 C 226.902344 401.367188 227.578125 400.238281 228.710938 399.917969 C 229.839844 399.613281 231.007812 400.253906 231.347656 401.386719 C 231.367188 401.460938 231.421875 401.628906 231.476562 401.835938 C 231.816406 402.964844 232.757812 405.320312 234.226562 406.1875 C 234.792969 406.523438 235.414062 406.582031 236.148438 406.394531 C 236.261719 406.355469 236.507812 406.300781 236.695312 405.546875 C 237.675781 401.460938 233.136719 390.144531 223.773438 381.726562 C 222.890625 380.9375 222.8125 379.5625 223.625 378.679688 C 224.414062 377.792969 225.789062 377.71875 226.675781 378.527344 C 229.519531 381.085938 231.988281 383.910156 234.039062 386.792969 C 239.125 387.359375 240.179688 386.398438 240.199219 386.378906 C 240.125 385.945312 238.523438 383.855469 235.527344 382.6875 C 232.25 381.40625 229.785156 378.695312 227.144531 375.816406 C 224.285156 372.691406 221.328125 369.453125 217.277344 368.152344 C 210.121094 365.835938 202.585938 371.523438 202.511719 371.578125 C 202.078125 371.898438 201.53125 372.070312 201.003906 372.011719 C 199.628906 371.898438 179.023438 370.148438 162.296875 368.492188 C 160.113281 372.839844 152.242188 390.578125 164.144531 400.78125 C 164.183594 400.820312 164.199219 400.859375 164.21875 400.875 C 179.117188 397.808594 190.984375 394.796875 191.191406 394.738281 C 192.074219 394.511719 193 394.871094 193.507812 395.605469 C 200.871094 406.261719 209.347656 415.601562 211.683594 415.601562 C 212.492188 415.621094 212.964844 415.46875 213.226562 415.316406 Z M 134.386719 325.921875 C 136.476562 341.320312 139.433594 356.554688 141.75 360.902344 L 312.316406 200.917969 L 299.566406 188.753906 C 295.308594 184.6875 288.566406 184.632812 284.234375 188.605469 Z M 146.363281 362.503906 C 157.644531 363.917969 187.367188 366.570312 200.550781 367.683594 C 202.90625 366.082031 210.609375 361.507812 218.578125 364.066406 C 223.71875 365.722656 227.222656 369.566406 230.3125 372.933594 C 232.589844 375.421875 234.738281 377.773438 237.074219 378.695312 C 238.164062 379.128906 239.21875 379.695312 240.179688 380.355469 L 294.480469 328.21875 C 294.480469 328.21875 294.480469 328.21875 294.480469 328.199219 L 307.664062 315.734375 C 308.003906 315.246094 309.738281 312.269531 307.496094 307.261719 C 306.628906 305.339844 305.59375 303.535156 304.59375 301.761719 C 302.128906 297.433594 299.320312 292.539062 303.671875 289.921875 C 305.59375 288.773438 307.796875 288.601562 309.867188 289.449219 C 310.074219 289.523438 310.28125 289.636719 310.472656 289.75 C 310.566406 286.324219 311.882812 282.839844 315.800781 280.695312 C 319.679688 278.566406 323.183594 278.039062 326.234375 279.113281 C 326.40625 276.609375 327.441406 274.140625 330.304688 273.3125 C 332.1875 272.769531 334.371094 273.125 336.425781 274.332031 C 339.007812 275.816406 341.210938 278.453125 342.679688 281.65625 L 360.347656 261.660156 C 364.359375 257.121094 364.054688 250.285156 359.6875 246.105469 L 315.40625 203.875 C 315.347656 203.929688 315.332031 204.007812 315.273438 204.0625 Z M 310.960938 318.539062 C 310.90625 318.613281 310.847656 318.671875 310.773438 318.746094 L 301.429688 327.597656 C 318.003906 326.390625 330.152344 314.753906 336.972656 308.242188 C 343.808594 301.707031 342 294.871094 340.269531 288.261719 C 340.097656 287.625 339.949219 287.003906 339.777344 286.398438 C 338.6875 282.011719 336.199219 279.246094 334.257812 278.113281 C 333.222656 277.511719 332.246094 277.304688 331.492188 277.511719 C 330.171875 277.890625 330.550781 281.144531 330.832031 282.277344 C 330.851562 282.3125 330.832031 282.371094 330.832031 282.40625 C 332.074219 283.894531 333.148438 285.835938 333.996094 288.1875 C 336.707031 295.605469 338.160156 301.6875 338.214844 301.933594 C 338.496094 303.101562 337.761719 304.269531 336.59375 304.53125 C 336.425781 304.570312 336.257812 304.589844 336.105469 304.589844 C 335.125 304.589844 334.242188 303.910156 333.996094 302.914062 C 333.976562 302.855469 332.546875 296.8125 329.925781 289.65625 C 328.648438 286.171875 326.96875 284.007812 324.9375 283.253906 C 323.789062 282.820312 322.429688 282.878906 320.925781 283.273438 C 323.164062 285.515625 326.085938 289.300781 327.347656 294.628906 C 329.34375 303.007812 329.925781 307.1875 329.945312 307.355469 C 330.117188 308.542969 329.289062 309.632812 328.101562 309.785156 C 328.007812 309.804688 327.914062 309.804688 327.800781 309.804688 C 326.726562 309.804688 325.804688 309.011719 325.652344 307.9375 C 325.652344 307.902344 325.066406 303.777344 323.128906 295.644531 C 321.867188 290.335938 318.496094 286.851562 316.742188 285.328125 C 313.222656 288.414062 315.332031 294.15625 315.953125 295.605469 C 318.023438 299.109375 319.851562 303.964844 321.433594 310.179688 C 321.734375 311.347656 321.039062 312.515625 319.871094 312.816406 C 318.703125 313.117188 317.535156 312.402344 317.234375 311.253906 C 315.59375 304.832031 313.898438 300.710938 312.375 298.074219 C 312.316406 297.996094 312.242188 297.941406 312.203125 297.847656 C 312.167969 297.753906 312.128906 297.660156 312.070312 297.566406 C 310.378906 294.777344 308.964844 293.816406 308.171875 293.496094 C 307.363281 293.160156 306.589844 293.214844 305.855469 293.667969 C 305.726562 293.742188 305.707031 293.78125 305.707031 293.78125 C 305.40625 294.550781 307.230469 297.734375 308.304688 299.636719 C 309.304688 301.386719 310.453125 303.382812 311.394531 305.511719 C 315.011719 313.457031 311.128906 318.351562 310.960938 318.539062 Z M 534.738281 348.683594 L 534.738281 295.925781 L 493.863281 295.925781 L 451.921875 337.5 L 451.921875 358.925781 C 451.921875 359.078125 451.863281 359.210938 451.84375 359.339844 L 456.894531 359.511719 C 457.0625 359.511719 457.210938 359.546875 457.363281 359.585938 L 474.425781 364.066406 C 479.816406 358.796875 488.140625 359.605469 493.621094 363.257812 C 497.707031 365.96875 501.832031 369.527344 503.433594 375.4375 C 503.453125 375.4375 503.488281 375.4375 503.507812 375.457031 L 521.175781 382.199219 C 522.945312 382.875 524.339844 384.214844 525.113281 385.945312 C 525.882812 387.679688 525.902344 389.597656 525.207031 391.367188 C 524.507812 393.136719 523.152344 394.511719 521.402344 395.246094 C 520.515625 395.625 519.59375 395.8125 518.671875 395.8125 C 517.765625 395.8125 516.84375 395.625 515.976562 395.265625 L 504.5625 390.539062 C 505.035156 395.605469 505.75 400.347656 505.996094 401.929688 L 532.644531 434.257812 C 546.019531 423.980469 572.046875 404.398438 582.144531 399.558594 C 592.730469 394.476562 605.648438 392.800781 611.375 392.273438 L 606.402344 378.980469 C 602.015625 379.582031 598.132812 378.773438 594.875 376.570312 C 589.433594 372.917969 587.417969 366.476562 586.832031 364.066406 C 585.984375 363.425781 585.0625 362.5625 584.273438 361.621094 C 583.988281 361.75 583.6875 361.828125 583.367188 361.828125 L 547.636719 361.828125 C 540.519531 361.828125 534.738281 355.933594 534.738281 348.683594 Z M 690.953125 438.570312 C 691.59375 437.949219 692.535156 437.78125 693.34375 438.136719 C 693.625 438.269531 700.707031 441.207031 705.492188 436.199219 C 710.539062 430.925781 706.246094 421.683594 700.519531 414.773438 C 693.929688 406.808594 679.3125 382.652344 676.261719 358.851562 C 673.265625 335.449219 667.597656 323.097656 646.164062 324.828125 C 645.390625 324.867188 644.636719 324.527344 644.203125 323.886719 C 643.941406 323.511719 637.535156 314.433594 622.75 314.304688 C 622.695312 314.304688 622.636719 314.304688 622.582031 314.304688 C 610.058594 314.304688 598.605469 325.730469 595.214844 329.460938 C 599.714844 336.503906 609.925781 351.039062 616.007812 354.199219 C 617.910156 353.257812 621.996094 351.601562 625.125 352.863281 C 626.273438 353.335938 627.78125 354.371094 628.4375 356.742188 C 628.964844 358.644531 628.742188 360.488281 627.742188 362.050781 C 626.253906 364.425781 623.410156 365.703125 621.488281 366.328125 L 622.523438 376.757812 C 624.917969 376.585938 628.550781 376.476562 631.019531 377.078125 C 631.132812 374.59375 631.339844 372.726562 631.394531 372.183594 C 631.472656 371.597656 631.773438 371.050781 632.261719 370.695312 C 632.734375 370.335938 633.355469 370.1875 633.921875 370.300781 C 634.183594 370.335938 640.625 371.257812 645.164062 363.183594 C 645.617188 362.371094 646.539062 361.9375 647.460938 362.109375 C 648.386719 362.277344 649.082031 363.03125 649.195312 363.953125 C 649.363281 365.253906 653.261719 395.867188 649.402344 409.386719 C 647.78125 415.015625 646.21875 417.992188 644.957031 420.363281 C 643.300781 423.488281 642.300781 425.355469 642.453125 431.960938 C 642.585938 438.136719 645.804688 443.878906 650.25 445.914062 C 653.902344 447.589844 658.011719 446.6875 662.136719 443.296875 C 662.53125 442.976562 663.019531 442.808594 663.511719 442.808594 C 663.71875 442.808594 663.90625 442.84375 664.113281 442.882812 C 664.789062 443.089844 665.335938 443.597656 665.5625 444.277344 C 665.75 444.820312 670.253906 457.605469 682.324219 453.953125 C 686.355469 452.730469 689.03125 450.808594 690.253906 448.210938 C 691.914062 444.710938 690.425781 440.960938 690.40625 440.925781 C 690.140625 440.132812 690.332031 439.191406 690.953125 438.570312 Z M 657.066406 479.257812 C 659.6875 485.472656 681.722656 537.703125 685.09375 548.566406 C 685.09375 548.605469 685.113281 548.625 685.113281 548.660156 L 691.816406 548.660156 L 657.953125 473.046875 Z M 686.320312 561.503906 L 695.660156 557.246094 L 693.757812 552.992188 L 686.035156 552.992188 C 686.414062 555.683594 686.507812 558.582031 686.320312 561.503906 Z M 694.136719 543.21875 C 694.53125 543.351562 709.824219 548.546875 717.414062 539.210938 C 707.902344 514.636719 694.324219 480.183594 685.359375 457.53125 C 684.8125 457.738281 684.246094 457.945312 683.644531 458.113281 C 681.683594 458.71875 679.859375 458.980469 678.144531 458.980469 C 670.195312 458.980469 665.074219 453.199219 662.625 448.34375 C 662.210938 448.605469 661.796875 448.832031 661.382812 449.058594 C 661.382812 449.058594 661.382812 449.078125 661.382812 449.078125 L 659.066406 465.175781 C 659.140625 465.289062 659.253906 465.382812 659.308594 465.535156 Z M 631.867188 388.769531 C 631.339844 386.492188 631.09375 383.988281 631.019531 381.597656 C 630.851562 381.558594 630.679688 381.503906 630.511719 381.425781 C 629.191406 380.804688 624.464844 380.863281 620.867188 381.257812 C 620.304688 381.3125 619.71875 381.144531 619.265625 380.785156 C 618.816406 380.429688 618.53125 379.902344 618.476562 379.316406 L 617.042969 364.914062 C 616.929688 363.785156 617.703125 362.769531 618.816406 362.5625 C 619.851562 362.371094 623.089844 361.414062 624.125 359.738281 C 624.464844 359.191406 624.523438 358.625 624.316406 357.890625 C 624.089844 357.082031 623.710938 356.929688 623.542969 356.855469 C 622.109375 356.273438 618.929688 357.457031 617.214844 358.457031 C 616.667969 358.777344 615.988281 358.832031 615.386719 358.625 C 609.660156 356.554688 601.75 346.519531 596.402344 338.949219 C 594.914062 341.320312 592.9375 345.351562 592.9375 350.210938 C 592.9375 350.285156 592.9375 350.378906 592.917969 350.453125 C 592.578125 353.371094 588.867188 356.121094 586.53125 357.402344 C 587.191406 358.476562 588.566406 360.113281 589.867188 360.886719 C 590.410156 361.203125 590.789062 361.75 590.882812 362.371094 C 590.882812 362.390625 591.128906 363.632812 591.730469 365.308594 C 592.183594 365.59375 592.671875 365.855469 593.160156 366.042969 C 593.933594 366.363281 594.726562 366.550781 595.535156 366.589844 C 597.15625 366.722656 598.792969 366.195312 600.394531 365.386719 L 600.433594 365.367188 C 600.753906 365.195312 601.148438 365.328125 601.316406 365.648438 C 601.46875 365.929688 601.375 366.269531 601.148438 366.457031 C 600.375 367.078125 599.527344 367.664062 598.546875 368.019531 C 597.589844 368.433594 596.515625 368.546875 595.441406 368.546875 C 594.574219 368.511719 593.746094 368.304688 592.953125 367.984375 C 593.933594 369.789062 595.328125 371.65625 597.304688 372.972656 C 600 374.78125 603.371094 375.25 607.324219 374.402344 C 608.378906 374.179688 609.433594 374.742188 609.8125 375.757812 L 615.5 390.953125 C 618.417969 389.484375 623.996094 387.566406 631.867188 388.769531 Z M 637.648438 391.425781 C 640.550781 394.683594 644.996094 395.699219 646.765625 396 C 647.03125 386.8125 646.183594 376.210938 645.558594 369.941406 C 641.925781 373.632812 637.988281 374.496094 635.558594 374.648438 C 635.070312 380.429688 635.257812 388.75 637.648438 391.425781 Z M 719.335938 355.875 C 721.578125 355.875 723.707031 354.992188 725.304688 353.371094 C 726.984375 351.695312 727.90625 349.4375 727.886719 347.046875 L 727.433594 206.433594 C 727.417969 201.597656 723.574219 197.660156 718.882812 197.660156 L 547.621094 197.660156 C 542.910156 197.660156 539.070312 201.613281 539.070312 206.453125 L 539.070312 348.683594 C 539.070312 353.542969 542.910156 357.476562 547.621094 357.476562 L 581.957031 357.476562 C 581.859375 357.082031 581.824219 356.6875 581.859375 356.308594 C 581.992188 355.179688 582.691406 354.296875 583.761719 353.9375 C 585.214844 353.449219 588.320312 351.019531 588.621094 349.984375 C 588.679688 342.941406 591.996094 337.5 593.785156 335.089844 C 592.203125 332.738281 591.089844 330.964844 590.714844 330.363281 C 590.222656 329.574219 590.28125 328.574219 590.863281 327.859375 C 591.46875 327.125 605.648438 309.953125 622.601562 309.953125 C 622.675781 309.953125 622.734375 309.953125 622.808594 309.953125 C 637.046875 310.066406 644.675781 317.597656 647.027344 320.402344 C 672.210938 318.898438 677.597656 336.710938 680.253906 355.859375 L 719.335938 355.859375 Z M 504.542969 406.976562 L 502.285156 404.226562 C 502.039062 403.925781 501.890625 403.585938 501.8125 403.210938 C 501.71875 402.664062 499.628906 389.957031 499.796875 381.390625 C 499.949219 374.179688 496.484375 370.355469 491.210938 366.855469 C 486.972656 364.03125 480.472656 363.425781 476.800781 367.871094 C 476.648438 368.039062 476.539062 368.210938 476.441406 368.339844 C 477.574219 368.492188 479.496094 368.398438 480.4375 368.339844 C 481.09375 368.304688 481.699219 368.285156 482.167969 368.285156 C 482.339844 368.285156 482.507812 368.339844 482.675781 368.359375 C 482.675781 368.359375 482.695312 368.359375 482.695312 368.359375 C 486.351562 368.738281 490.304688 372.632812 491.097656 373.460938 C 491.925781 374.328125 491.886719 375.703125 491.039062 376.511719 C 490.171875 377.339844 488.816406 377.320312 487.96875 376.457031 C 486.574219 375.007812 484.109375 373.085938 482.621094 372.710938 C 481.605469 373.332031 480.265625 374.160156 478.796875 375.121094 L 486.613281 377.773438 C 487.742188 378.152344 488.347656 379.394531 487.96875 380.523438 C 487.667969 381.425781 486.820312 381.992188 485.917969 381.992188 C 485.691406 381.992188 485.445312 381.953125 485.21875 381.878906 L 474.597656 378.28125 C 474.523438 378.261719 474.464844 378.1875 474.371094 378.152344 C 473.730469 378.621094 473.089844 379.09375 472.46875 379.5625 L 481.527344 382.445312 C 482.675781 382.800781 483.300781 384.023438 482.941406 385.15625 C 482.640625 386.078125 481.792969 386.660156 480.871094 386.660156 C 480.644531 386.660156 480.4375 386.625 480.210938 386.566406 L 468.53125 382.859375 C 467.554688 383.78125 466.78125 384.664062 466.347656 385.417969 C 464.839844 387.996094 464.671875 393.15625 466.707031 396.226562 C 467.363281 397.203125 468.175781 397.789062 469.136719 398.050781 C 468.609375 394.757812 468.609375 392.273438 468.609375 392.027344 C 468.625 390.839844 469.664062 389.917969 470.792969 389.898438 C 471.980469 389.917969 472.941406 390.898438 472.941406 392.082031 C 472.941406 392.195312 472.863281 403.964844 478.871094 409.347656 C 481.378906 411.589844 483.695312 414.488281 485.839844 417.671875 C 488.515625 414.300781 494.917969 407.617188 504.542969 406.976562 Z M 473.183594 373.6875 C 473.804688 373.253906 474.390625 372.839844 474.972656 372.445312 C 473.691406 372.125 472.636719 371.542969 472.074219 370.410156 C 471.640625 369.546875 471.660156 368.660156 471.867188 367.871094 L 456.476562 363.820312 L 453.839844 363.726562 L 455.78125 365.800781 L 473.070312 373.59375 C 473.128906 373.632812 473.164062 373.667969 473.183594 373.6875 Z M 504.207031 385.699219 L 517.632812 391.273438 C 518.3125 391.554688 519.046875 391.554688 519.726562 391.273438 C 520.402344 390.992188 520.910156 390.464844 521.195312 389.785156 C 521.457031 389.109375 521.4375 388.375 521.15625 387.695312 C 520.855469 387.039062 520.328125 386.53125 519.648438 386.265625 L 504.128906 380.335938 C 504.148438 380.710938 504.148438 381.089844 504.148438 381.503906 C 504.109375 382.800781 504.128906 384.230469 504.207031 385.699219 Z M 498.441406 441.1875 C 503.019531 451.335938 512.472656 472.332031 523.757812 472.347656 C 523.90625 472.347656 524.039062 472.347656 524.1875 472.347656 C 538.617188 471.652344 585.570312 444.464844 586.042969 444.199219 C 587.078125 443.597656 588.398438 443.957031 589 444.992188 C 589.601562 446.027344 589.246094 447.34375 588.207031 447.949219 C 587.925781 448.117188 586.703125 448.8125 584.816406 449.886719 L 603.933594 478.789062 L 652.945312 477.433594 L 656.765625 450.773438 C 653.941406 451.355469 651.136719 451.074219 648.5 449.867188 C 642.507812 447.121094 638.347656 439.964844 638.175781 432.074219 C 638.007812 424.335938 639.34375 421.832031 641.171875 418.347656 C 642.339844 416.148438 643.789062 413.417969 645.277344 408.21875 C 645.898438 406.054688 646.292969 403.363281 646.539062 400.367188 C 644.542969 400.085938 638.476562 398.917969 634.410156 394.324219 C 634.203125 394.097656 634.035156 393.835938 633.863281 393.570312 C 622.621094 390.878906 616.421875 395.398438 615.953125 395.753906 C 615.574219 396.132812 615.066406 396.359375 614.519531 396.394531 C 614.351562 396.394531 596.964844 397.261719 584.027344 403.476562 C 570.878906 409.78125 527.597656 443.65625 527.164062 443.992188 C 526.769531 444.3125 526.296875 444.464844 525.828125 444.464844 C 525.1875 444.464844 524.546875 444.183594 524.113281 443.636719 C 523.378906 442.695312 523.546875 441.339844 524.492188 440.585938 C 524.828125 440.320312 526.542969 438.964844 529.21875 436.914062 L 508.105469 411.308594 C 508.011719 411.308594 507.933594 411.34375 507.820312 411.328125 C 496.539062 410.195312 489.4375 420.007812 488.382812 421.589844 C 491.078125 426.089844 493.46875 430.871094 495.597656 435.144531 L 496.164062 436.253906 C 496.785156 437.535156 497.558594 439.230469 498.441406 441.1875 Z M 542.042969 471.445312 L 588.453125 507.464844 L 600.339844 481.179688 L 581.050781 451.996094 C 571.859375 457.117188 555.566406 465.855469 542.042969 471.445312 Z M 728.375 568.46875 C 727.90625 566.585938 724.289062 557.003906 719.183594 543.746094 C 714.757812 547.984375 709.070312 549.167969 704.097656 549.167969 C 701.160156 549.167969 698.46875 548.753906 696.433594 548.320312 L 704.003906 565.25 C 704.492188 566.339844 704.003906 567.621094 702.910156 568.109375 C 702.628906 568.242188 702.328125 568.300781 702.027344 568.300781 C 701.199219 568.300781 700.40625 567.828125 700.050781 567.019531 L 697.449219 561.21875 L 685.753906 566.527344 C 685.488281 568.074219 685.152344 569.578125 684.753906 571.011719 C 687.582031 569.578125 691.386719 568.109375 695.171875 568.109375 C 696.359375 568.109375 697.335938 569.089844 697.335938 570.277344 C 697.335938 571.460938 696.359375 572.441406 695.171875 572.441406 C 689.292969 572.441406 682.851562 577.1875 682.777344 577.222656 C 682.570312 577.375 682.34375 577.488281 682.101562 577.5625 C 682.042969 577.675781 681.96875 577.769531 681.910156 577.882812 C 691.007812 577.996094 716.246094 578.316406 721.878906 578.015625 C 723.722656 577.921875 726.230469 577.414062 727.640625 575.472656 C 728.886719 573.816406 729.128906 571.386719 728.375 568.46875 Z M 536.46875 51.402344 C 535.039062 49.875 533.492188 49.140625 531.949219 49.292969 C 528.785156 49.59375 525.769531 53.359375 524.886719 54.789062 C 524.414062 55.542969 523.546875 55.9375 522.664062 55.769531 C 521.796875 55.621094 521.101562 54.941406 520.929688 54.074219 C 520.910156 53.980469 518.972656 44.585938 514.375 39.519531 C 514.207031 39.332031 514.09375 39.125 514.019531 38.898438 C 498.707031 45.453125 482.148438 47.503906 476.234375 48.050781 C 476.820312 53.8125 479.382812 70.097656 489.644531 77.742188 C 495.238281 81.902344 502.417969 82.902344 511.003906 80.699219 C 511.796875 80.492188 512.625 80.753906 513.171875 81.359375 C 513.71875 81.980469 513.867188 82.828125 513.566406 83.578125 C 513.566406 83.578125 512.792969 85.746094 513.71875 86.96875 C 514.527344 88.042969 516.691406 88.476562 519.820312 88.191406 C 527.917969 87.457031 531.929688 80.945312 533.363281 77.96875 L 527.410156 73.75 C 526.808594 73.316406 526.449219 72.601562 526.503906 71.867188 L 526.863281 65.390625 C 526.902344 64.65625 527.335938 63.980469 527.976562 63.621094 C 530.308594 62.320312 536.542969 58.105469 537.296875 54.261719 C 537.449219 53.226562 537.203125 52.324219 536.46875 51.402344 Z M 531.007812 28.695312 C 527.128906 32.027344 522.644531 34.777344 517.953125 37.09375 C 520.988281 40.667969 522.945312 45.546875 524.039062 49.011719 C 525.867188 47.183594 528.464844 45.28125 531.515625 44.980469 C 532.777344 44.847656 533.984375 45.019531 535.167969 45.414062 C 534.152344 40.160156 532.738281 34.230469 531.007812 28.695312 Z M 473.65625 22.386719 C 473.222656 23.101562 472.882812 23.875 472.621094 24.703125 C 476.085938 24.703125 491.867188 24.269531 508.011719 16.492188 C 509.082031 15.964844 510.382812 16.4375 510.910156 17.511719 C 511.4375 18.582031 510.984375 19.882812 509.894531 20.410156 C 493.1875 28.449219 477.214844 29.050781 472.863281 29.050781 C 472.449219 29.050781 472.148438 29.050781 471.960938 29.035156 C 471.828125 34.417969 473.789062 40.40625 475.21875 43.796875 C 482.300781 43.136719 513.132812 39.464844 529.519531 24.214844 C 526.675781 16.304688 523.210938 9.902344 519.441406 8.585938 C 517.632812 7.945312 515.394531 7.664062 512.851562 7.664062 C 499.328125 7.664062 477.722656 15.796875 473.65625 22.386719 Z M 422.539062 127.167969 L 476.347656 127.167969 L 469.945312 114.363281 C 469.417969 113.289062 469.851562 111.992188 470.90625 111.464844 C 471.980469 110.917969 473.277344 111.371094 473.804688 112.425781 L 481.171875 127.167969 L 521.742188 127.167969 L 532.003906 111.671875 C 532.664062 110.671875 534.003906 110.410156 535 111.070312 C 536 111.726562 536.261719 113.066406 535.601562 114.0625 L 497.953125 170.945312 C 502.566406 171.207031 505.46875 171.359375 505.46875 171.359375 L 505.222656 175.6875 C 505.222656 175.6875 500.964844 175.445312 494.523438 175.085938 C 494.355469 175.125 494.183594 175.140625 493.996094 175.140625 C 493.753906 175.140625 493.527344 175.085938 493.300781 175.011719 C 492.792969 174.992188 492.28125 174.953125 491.773438 174.917969 C 495.558594 180.039062 501.417969 190.394531 497.859375 201.992188 C 506.804688 202.96875 514.921875 202.875 520.855469 198.734375 C 529.558594 192.652344 549.597656 159.476562 560.371094 141.664062 C 562.574219 138.011719 564.496094 134.832031 566.003906 132.421875 C 570.636719 124.945312 584.761719 99.789062 572.574219 89.492188 C 563.269531 81.640625 543.023438 79.832031 537.390625 79.457031 C 535.734375 83.015625 530.726562 91.542969 520.160156 92.503906 C 515.335938 92.9375 511.984375 91.957031 510.195312 89.546875 C 509.234375 88.269531 508.914062 86.835938 508.875 85.574219 C 500.570312 87.0625 493.414062 85.707031 487.535156 81.546875 C 487.441406 81.582031 487.367188 81.640625 487.273438 81.660156 C 460.074219 87.363281 430.542969 118.300781 422.539062 127.167969 Z M 423.460938 194.722656 C 423.480469 193.953125 423.894531 193.253906 424.554688 192.878906 C 425.230469 192.503906 426.042969 192.503906 426.699219 192.878906 C 434.949219 197.640625 445.480469 192.839844 445.589844 192.785156 C 446.082031 192.558594 446.644531 192.519531 447.15625 192.691406 C 447.304688 192.746094 462.996094 197.679688 478.796875 199.449219 C 482.054688 199.808594 485.351562 200.296875 488.535156 200.75 C 490.210938 200.992188 491.867188 201.238281 493.527344 201.464844 C 498.273438 187.605469 486.21875 174.917969 485.9375 174.597656 C 467.929688 173.578125 442.765625 172.167969 435.0625 171.714844 C 426.492188 171.226562 418.148438 169.398438 411.464844 167.929688 C 408.300781 167.234375 405.550781 166.632812 403.34375 166.292969 C 398.375 165.519531 394.285156 168.742188 389.726562 177.082031 C 385.679688 184.480469 383.90625 191.464844 384.8125 193.367188 C 384.886719 193.519531 384.886719 193.519531 385 193.539062 C 387.089844 193.933594 387.089844 193.933594 388.429688 190.5625 C 388.765625 189.714844 389.144531 188.71875 389.632812 187.605469 C 392.96875 179.847656 398.917969 180.695312 399.164062 180.734375 C 400.21875 180.902344 400.992188 181.808594 400.992188 182.878906 C 400.992188 184.011719 400.914062 185.421875 400.839844 186.984375 C 400.632812 191.164062 400.332031 196.890625 401.441406 200.410156 C 401.648438 201.050781 401.988281 201.859375 402.574219 202.105469 C 402.800781 202.199219 403.042969 202.199219 403.308594 202.179688 C 403.25 197.738281 403.214844 185.367188 404.382812 180.152344 C 404.644531 178.984375 405.792969 178.25 406.960938 178.511719 C 408.128906 178.777344 408.863281 179.925781 408.601562 181.09375 C 407.507812 186.042969 407.601562 199.035156 407.640625 202.707031 C 408.300781 203.101562 409.769531 203.742188 412.40625 204.082031 C 412.40625 199.46875 412.535156 187.984375 414.117188 182.464844 C 414.4375 181.316406 415.644531 180.660156 416.792969 180.980469 C 417.941406 181.300781 418.601562 182.503906 418.28125 183.652344 C 416.851562 188.679688 416.71875 199.996094 416.738281 204.289062 C 423.179688 204.042969 423.441406 195.121094 423.460938 194.722656 Z M 362.34375 121.179688 C 362.324219 121.253906 362.324219 121.332031 362.285156 121.386719 C 359.988281 126.507812 361.210938 133.003906 362.285156 136.769531 C 363.207031 135.226562 363.960938 133.378906 364.394531 131.816406 C 364.414062 130.460938 364.640625 125.546875 366.222656 122.949219 C 366.84375 121.933594 368.179688 121.613281 369.199219 122.234375 C 370.214844 122.855469 370.535156 124.191406 369.914062 125.210938 C 369.105469 126.527344 368.726562 130.046875 368.726562 132.136719 C 368.726562 134.453125 369.519531 139.5 371.777344 139.5 C 372.984375 139.5 374.828125 132.722656 374.828125 124.378906 C 374.828125 123.195312 375.808594 122.214844 376.996094 122.214844 C 378.199219 122.214844 379.160156 123.175781 379.160156 124.378906 C 379.160156 125.171875 379.144531 126.132812 379.105469 127.167969 L 389.691406 127.167969 C 382.269531 119.597656 375.882812 119.5625 367.917969 120.425781 C 366.148438 120.613281 364.261719 120.878906 362.34375 121.179688 Z M 358.726562 139.859375 C 357.613281 136.5625 355.542969 128.898438 357.5 121.988281 C 356.257812 122.214844 355.054688 122.441406 353.960938 122.648438 C 351.757812 129.105469 354.921875 137.464844 355.882812 139.707031 C 356.75 139.800781 357.691406 139.859375 358.726562 139.859375 Z M 347.632812 133.4375 C 348.121094 135.546875 349.101562 137.050781 350.644531 138.085938 C 349.570312 134.753906 348.441406 129.859375 349.007812 125.019531 C 348.292969 125.8125 347.78125 126.753906 347.558594 127.808594 C 347.179688 129.652344 347.199219 131.554688 347.632812 133.4375 Z M 190.625 265.652344 L 193.695312 265.425781 C 193.789062 265.425781 193.867188 265.445312 193.941406 265.460938 L 212.925781 248.066406 L 209.421875 248.066406 C 208.234375 248.066406 207.257812 247.085938 207.257812 245.898438 C 207.257812 244.714844 208.234375 243.734375 209.421875 243.734375 L 217.652344 243.734375 L 225.902344 236.183594 L 209.421875 236.183594 C 208.234375 236.183594 207.257812 235.203125 207.257812 234.019531 C 207.257812 232.832031 208.234375 231.855469 209.421875 231.855469 L 230.613281 231.855469 C 230.628906 231.855469 230.628906 231.855469 230.648438 231.855469 L 238.316406 224.832031 L 209.722656 224.832031 C 208.539062 224.832031 207.558594 223.851562 207.558594 222.664062 C 207.558594 221.480469 208.539062 220.5 209.722656 220.5 L 243.042969 220.5 L 253.648438 210.785156 L 209.195312 210.785156 C 208.011719 210.785156 207.03125 209.804688 207.03125 208.621094 C 207.03125 207.433594 208.011719 206.453125 209.195312 206.453125 L 258.167969 206.453125 C 258.222656 206.453125 258.28125 206.492188 258.335938 206.492188 L 266.019531 199.449219 L 208.914062 199.449219 C 207.726562 199.449219 206.75 198.472656 206.75 197.285156 C 206.75 196.097656 207.726562 195.121094 208.914062 195.121094 L 270.316406 195.121094 C 270.449219 195.121094 270.542969 195.175781 270.65625 195.195312 L 281.316406 185.421875 C 287.324219 179.925781 296.664062 180 302.5625 185.628906 L 313.351562 195.929688 L 366.730469 195.929688 C 367.917969 195.929688 368.898438 196.90625 368.898438 198.09375 C 368.898438 199.28125 367.917969 200.257812 366.730469 200.257812 L 317.890625 200.257812 L 324.464844 206.527344 C 324.597656 206.511719 324.730469 206.453125 324.859375 206.453125 L 365.109375 206.453125 C 366.296875 206.453125 367.277344 207.433594 367.277344 208.621094 C 367.277344 209.804688 366.296875 210.785156 365.109375 210.785156 L 328.929688 210.785156 L 338.816406 220.21875 L 366.449219 220.21875 C 367.632812 220.21875 368.613281 221.195312 368.613281 222.382812 C 368.613281 223.570312 367.632812 224.546875 366.449219 224.546875 L 343.355469 224.546875 L 350.984375 231.835938 L 365.375 231.835938 C 366.5625 231.835938 367.539062 232.8125 367.539062 234 C 367.539062 235.1875 366.5625 236.164062 365.375 236.164062 L 355.523438 236.164062 L 362.664062 242.980469 C 368.726562 248.78125 369.140625 258.230469 363.585938 264.519531 L 344.242188 286.398438 C 344.296875 286.644531 344.375 286.871094 344.429688 287.132812 C 346.296875 294.214844 348.613281 303.042969 339.929688 311.347656 C 332.808594 318.164062 318.34375 332.003906 298.53125 332.003906 C 297.945312 332.003906 297.363281 331.964844 296.777344 331.945312 L 252.496094 374.480469 L 266.492188 386.640625 L 328.703125 386.640625 L 328.703125 335.523438 C 328.703125 334.769531 329.097656 334.074219 329.738281 333.679688 L 387.730469 298.394531 C 388.410156 297.980469 389.277344 297.980469 389.972656 298.394531 L 449.394531 333.886719 L 491.417969 292.21875 C 491.8125 291.820312 492.378906 291.597656 492.941406 291.597656 L 534.71875 291.597656 L 534.71875 206.433594 C 534.71875 199.1875 540.5 193.3125 547.601562 193.3125 L 718.863281 193.3125 C 725.945312 193.3125 731.730469 199.1875 731.746094 206.398438 L 732.199219 347.007812 C 732.21875 350.566406 730.84375 353.917969 728.359375 356.402344 C 725.929688 358.832031 722.726562 360.167969 719.316406 360.167969 L 680.855469 360.167969 C 684.285156 382.40625 697.695312 404.527344 703.855469 411.964844 C 710.746094 420.308594 715.625 431.8125 708.617188 439.15625 C 704.304688 443.65625 698.898438 443.75 695.359375 443.128906 C 695.546875 445.085938 695.398438 447.570312 694.230469 450.054688 C 693.191406 452.257812 691.515625 454.085938 689.238281 455.554688 C 693.097656 465.289062 715.230469 521.210938 726.304688 550.242188 L 746.476562 550.242188 L 746.476562 140.96875 C 746.476562 135 741.617188 130.140625 735.648438 130.140625 L 572.367188 130.140625 C 571.40625 131.855469 570.503906 133.398438 569.695312 134.699219 C 568.207031 137.109375 566.285156 140.273438 564.101562 143.90625 C 548.277344 170.097656 532.082031 196.191406 523.359375 202.292969 C 514 208.84375 501.324219 207 487.875 205.042969 C 484.730469 204.589844 481.472656 204.101562 478.289062 203.761719 C 463.898438 202.160156 450.019531 198.113281 446.589844 197.078125 C 443.972656 198.132812 435.496094 201.03125 427.398438 198.019531 C 426.472656 202.726562 423.535156 208.507812 416.625 208.636719 C 416.339844 208.636719 416.058594 208.636719 415.796875 208.636719 C 409.84375 208.636719 406.621094 207.28125 405.039062 206.246094 C 403.96875 206.566406 402.460938 206.753906 400.914062 206.152344 C 399.710938 205.683594 398.109375 204.515625 397.242188 201.726562 C 395.925781 197.472656 396.226562 191.5625 396.453125 186.796875 C 396.46875 186.363281 396.488281 185.949219 396.507812 185.554688 C 395.585938 186.101562 394.472656 187.171875 393.550781 189.339844 C 393.082031 190.414062 392.722656 191.355469 392.402344 192.183594 C 390.875 196.078125 389.746094 198.902344 384.132812 197.8125 C 382.664062 197.527344 381.496094 196.605469 380.835938 195.230469 C 378.125 189.472656 385.074219 176.480469 385.867188 175.011719 C 389.578125 168.25 394.945312 160.644531 403.949219 162.039062 C 406.285156 162.394531 409.089844 163.015625 412.328125 163.714844 C 418.882812 165.144531 427.019531 166.933594 435.25 167.402344 C 444.007812 167.914062 475.21875 169.664062 492.941406 170.660156 L 518.859375 131.496094 L 378.746094 131.496094 C 378.085938 137.410156 376.316406 143.832031 371.742188 143.832031 C 368.726562 143.832031 366.863281 141.871094 365.75 139.367188 C 364.148438 141.910156 361.832031 144.1875 358.707031 144.1875 C 355.484375 144.1875 345.65625 144.1875 343.375 134.417969 C 343.300781 134.078125 343.242188 133.738281 343.1875 133.398438 L 201.457031 133.398438 C 195.484375 133.398438 190.625 138.257812 190.625 144.226562 Z M 173.164062 231.230469 C 171.867188 221.140625 167.535156 214.042969 163.109375 209.222656 C 162.882812 209.296875 162.636719 209.355469 162.410156 209.429688 C 161.734375 209.710938 161.113281 209.992188 160.566406 210.390625 C 159.472656 211.140625 158.683594 212.195312 157.742188 213.496094 L 157.683594 213.570312 C 157.402344 213.964844 156.835938 214.0625 156.441406 213.757812 C 156.175781 213.570312 156.046875 213.269531 156.082031 212.96875 C 156.175781 212.027344 156.421875 211.066406 156.96875 210.21875 C 157.476562 209.355469 158.25 208.621094 159.132812 208.109375 C 159.792969 207.714844 160.527344 207.488281 161.261719 207.339844 C 157.984375 204.214844 154.859375 202.3125 153.125 201.390625 L 125.757812 231.855469 C 125.382812 232.269531 124.875 232.511719 124.328125 232.570312 C 123.253906 232.664062 120.183594 233.265625 118.902344 234.921875 C 118.375 235.601562 118.207031 236.410156 118.375 237.445312 C 118.46875 238.046875 118.753906 238.460938 119.296875 238.839844 C 121.992188 240.683594 128.753906 239.742188 130.902344 239.273438 C 132.03125 239.027344 133.140625 239.703125 133.460938 240.816406 C 133.613281 241.398438 136.664062 252.714844 137.285156 263.109375 L 157.289062 259.078125 L 156.574219 252.789062 C 156.496094 252.132812 156.722656 251.472656 157.195312 251.003906 C 157.664062 250.53125 158.324219 250.304688 158.984375 250.378906 C 159.039062 250.378906 165.613281 251.078125 169.777344 246.839844 C 172.957031 243.660156 174.089844 238.40625 173.164062 231.230469 Z M 131.222656 257.027344 L 132.578125 259.023438 C 131.84375 252.828125 130.488281 246.820312 129.769531 243.867188 C 126.53125 244.355469 120.410156 244.828125 116.867188 242.398438 C 115.34375 241.363281 114.402344 239.894531 114.117188 238.125 C 113.761719 235.902344 114.25 233.847656 115.53125 232.230469 C 117.660156 229.519531 121.371094 228.632812 123.121094 228.351562 L 151.035156 197.265625 C 151.65625 196.570312 152.636719 196.363281 153.484375 196.71875 C 153.9375 196.90625 159.8125 199.46875 165.6875 205.585938 C 171.960938 191.429688 168.625 181.335938 166.574219 180 C 165.105469 179.039062 161.769531 181.429688 160.300781 182.9375 C 159.738281 183.503906 158.90625 183.726562 158.15625 183.503906 C 157.382812 183.277344 156.796875 182.65625 156.628906 181.882812 C 156.609375 181.828125 155.140625 175.445312 150.074219 173.5625 C 145.722656 171.941406 141.996094 178.925781 141.957031 179.003906 C 141.636719 179.625 141.015625 180.074219 140.316406 180.167969 C 139.601562 180.261719 138.90625 180.019531 138.433594 179.492188 C 137.605469 178.585938 136.683594 178.191406 135.554688 178.304688 C 130.917969 178.683594 124.269531 186.382812 120.9375 191.464844 C 117.8125 196.230469 113.835938 198.867188 109.222656 201.933594 C 107.808594 202.875 106.300781 203.875 104.703125 205.003906 C 99.503906 208.695312 97.847656 215.980469 99.464844 227.976562 C 100.445312 243.902344 114.382812 249.328125 122.613281 251.152344 C 126.117188 251.925781 129.167969 254.015625 131.222656 257.027344 Z M 97.035156 348.871094 C 97.847656 352.09375 98.617188 355.179688 99.277344 358.097656 C 99.671875 359.792969 100.066406 361.828125 100.5 364.085938 C 103.796875 380.878906 109.316406 408.898438 130.242188 406.636719 C 139.320312 405.621094 149.605469 403.851562 159.117188 401.96875 C 149 390.710938 154.800781 374.441406 157.703125 368.097656 C 149.546875 367.269531 142.972656 366.515625 141.222656 366.0625 C 138.925781 365.496094 136.15625 363.03125 132.3125 340.871094 C 130.375 329.628906 129.074219 318.40625 129.054688 318.296875 C 128.921875 317.109375 129.769531 316.035156 130.957031 315.902344 C 132.179688 315.773438 133.21875 316.621094 133.347656 317.804688 C 133.460938 318.746094 133.574219 319.6875 133.6875 320.648438 L 188.402344 270.527344 C 188.027344 270.507812 187.6875 270.394531 187.386719 270.207031 L 167.101562 271.695312 C 162.503906 272.050781 158.398438 268.683594 157.871094 264.050781 L 157.796875 263.390625 L 137.398438 267.496094 C 137.378906 268.378906 137.34375 269.246094 137.285156 270.09375 C 136.929688 274.425781 133.632812 278.019531 129.300781 278.8125 C 120.371094 280.46875 99.070312 285.644531 93.757812 298.1875 C 87.84375 312.230469 92.949219 332.546875 97.035156 348.871094 Z M 62.738281 406.863281 L 77.144531 421.476562 L 105.285156 395.078125 C 100.292969 385.398438 97.902344 373.347656 96.246094 364.914062 C 96.113281 364.238281 95.980469 363.578125 95.847656 362.9375 L 62.777344 396.039062 C 59.800781 399.011719 59.78125 403.871094 62.738281 406.863281 Z M 126.683594 471.691406 C 129.582031 474.609375 134.234375 474.757812 137.304688 472.011719 L 202.320312 413.773438 C 197.972656 409.273438 193.5625 403.34375 190.796875 399.371094 C 183.84375 401.082031 153.539062 408.40625 130.730469 410.929688 C 119.902344 412.136719 112.59375 406.769531 107.527344 398.9375 L 80.214844 424.5625 Z M 215.882812 805.367188 C 214.320312 801.207031 211.324219 794.976562 207.597656 792.714844 C 205.128906 791.226562 201.90625 790.363281 198.515625 789.4375 C 193.601562 788.121094 188.027344 786.613281 183.429688 782.792969 C 176.179688 776.75 174.878906 763.378906 174.992188 756.566406 L 140.015625 756.566406 L 138.660156 805.6875 Z M 194.957031 752.289062 L 181.773438 748.449219 L 181.453125 754.53125 C 181.398438 755.660156 180.472656 756.546875 179.34375 756.582031 C 179.210938 763.097656 180.585938 774.808594 186.21875 779.496094 C 190.078125 782.71875 194.9375 784.015625 199.648438 785.277344 C 203.359375 786.277344 206.863281 787.21875 209.855469 789.023438 C 213.265625 791.097656 215.921875 795.164062 217.785156 798.890625 L 221.023438 798.121094 C 219.292969 789.195312 211.324219 783.808594 204.734375 780.816406 C 195.296875 776.542969 194.503906 772.984375 193.488281 764.660156 C 192.714844 758.542969 194.109375 754.230469 194.957031 752.289062 Z M 213.113281 419.835938 C 212.757812 419.894531 212.398438 419.988281 212.003906 420.007812 C 211.929688 420.007812 211.832031 420.023438 211.738281 420.023438 C 209.988281 420.023438 207.804688 418.746094 205.488281 416.769531 L 140.207031 475.25 C 137.90625 477.300781 135.042969 478.316406 132.179688 478.316406 C 131.863281 478.316406 131.542969 478.300781 131.238281 478.28125 L 137.664062 752.253906 L 177.253906 752.253906 L 192.265625 464.308594 C 192.265625 464.140625 192.300781 463.96875 192.359375 463.800781 L 197.21875 447.609375 C 197.558594 446.460938 198.78125 445.820312 199.910156 446.160156 C 201.058594 446.496094 201.699219 447.703125 201.363281 448.851562 L 196.578125 464.800781 L 182.019531 744.007812 L 204.847656 750.652344 C 209.195312 735.644531 235.546875 643.292969 239.464844 600.664062 C 243.363281 557.980469 217.257812 438.421875 213.113281 419.835938 Z M 240.875 547.945312 L 504.035156 547.945312 C 500.082031 541.957031 490.984375 528.421875 480.039062 513.507812 C 464.839844 492.777344 462.582031 475.625 473.355469 462.519531 C 481.058594 453.144531 492.90625 452.597656 499.234375 453.085938 C 497.707031 450.09375 496.371094 447.195312 495.222656 444.632812 L 441.089844 444.632812 C 440.523438 444.632812 439.980469 444.40625 439.566406 444.011719 L 418.054688 422.847656 L 390.273438 438.230469 C 389.953125 438.421875 389.578125 438.496094 389.21875 438.496094 C 388.824219 438.496094 388.445312 438.402344 388.109375 438.195312 L 362.511719 422.867188 L 324.9375 473.535156 C 324.523438 474.082031 323.882812 474.421875 323.203125 474.421875 L 228.839844 474.421875 C 233.25 497.410156 237.882812 523.976562 240.875 547.945312 Z M 548.410156 579.351562 L 554.511719 579.351562 L 543.683594 551.183594 L 540.519531 547.832031 C 540.480469 547.832031 540.445312 547.851562 540.40625 547.851562 L 509.179688 547.851562 C 509.574219 548.453125 509.800781 548.8125 509.816406 548.832031 C 510.082031 549.226562 510.195312 549.714844 510.15625 550.1875 L 509.347656 559.636719 C 509.253906 560.769531 508.3125 561.613281 507.179688 561.613281 C 507.164062 561.613281 507.179688 561.613281 507.125 561.613281 C 506.144531 561.613281 489.136719 561.726562 483.523438 569.128906 C 480.417969 573.230469 480.039062 576.753906 480.132812 578.636719 Z M 455.613281 592.984375 L 455.613281 600.496094 L 750.808594 600.496094 L 750.808594 592.984375 C 750.808594 587.863281 746.628906 583.683594 741.503906 583.683594 L 558.300781 583.683594 C 558.109375 583.738281 557.902344 583.777344 557.695312 583.777344 C 557.695312 583.777344 557.675781 583.777344 557.675781 583.777344 L 548.484375 583.683594 L 464.917969 583.683594 C 459.792969 583.683594 455.613281 587.863281 455.613281 592.984375 Z M 574.988281 652.894531 L 558.84375 652.894531 L 567.378906 663.402344 C 568.847656 659.203125 572.125 655.511719 574.988281 652.894531 Z M 579.527344 673.230469 C 576.4375 668.296875 573.78125 664.285156 572.558594 662.480469 C 571.445312 664.398438 570.765625 666.433594 570.9375 668.371094 C 571.070312 669.878906 571.632812 670.988281 572.6875 671.761719 C 574.441406 673.078125 577.265625 673.304688 579.527344 673.230469 Z M 593.273438 732.390625 C 594.40625 736.605469 596.25 740.785156 597.363281 741.652344 C 601.167969 739.203125 620.058594 716.253906 621.261719 713.296875 C 621.28125 713.128906 621.152344 711.980469 621.039062 711.152344 C 620.566406 707.214844 619.757812 700.605469 625.085938 695.597656 C 628.910156 692.003906 633.523438 691.492188 637.027344 691.8125 C 632.601562 685.429688 627.308594 678.105469 622.148438 671.101562 C 619.566406 670.800781 610.828125 670.199219 603.351562 675.320312 C 594.761719 681.195312 594.839844 690.25 594.839844 690.628906 C 594.839844 690.722656 594.800781 690.796875 594.78125 690.890625 C 597.0625 695.351562 598.832031 699.402344 599.507812 702.320312 C 602.050781 713.222656 601.636719 714.652344 597.230469 724.238281 L 595.875 727.210938 C 595.101562 728.90625 594.199219 730.65625 593.273438 732.390625 Z M 647.519531 708.515625 C 646.691406 706.425781 644.089844 702.246094 640.550781 696.972656 C 639.496094 696.597656 632.695312 694.414062 628.0625 698.761719 C 624.332031 702.28125 624.917969 707.101562 625.351562 710.640625 C 625.539062 712.167969 625.671875 713.371094 625.464844 714.371094 C 624.785156 717.535156 603.011719 744.101562 598.757812 745.8125 C 598.304688 745.984375 597.851562 746.078125 597.382812 746.078125 C 596.777344 746.078125 596.175781 745.925781 595.609375 745.644531 C 593.367188 744.515625 591.617188 740.917969 590.449219 737.773438 C 585.25 747.808594 582.878906 754.757812 589.566406 758.464844 C 599.792969 764.152344 612.316406 752.835938 626.40625 738.582031 C 629.097656 735.855469 631.585938 733.425781 633.824219 731.203125 C 646.238281 718.984375 650.042969 714.820312 647.519531 708.515625 Z M 608.550781 652.894531 L 581.859375 652.894531 C 580.148438 654.101562 577.511719 656.226562 575.25 658.789062 C 575.304688 658.84375 575.382812 658.902344 575.4375 658.957031 C 576.003906 659.785156 584.628906 672.535156 591.46875 684.714844 C 592.617188 680.78125 595.175781 675.679688 600.921875 671.761719 C 607.289062 667.394531 614.277344 666.546875 618.816406 666.566406 C 615.046875 661.5 611.488281 656.773438 608.550781 652.894531 Z M 750.808594 639.261719 L 750.808594 604.828125 L 455.613281 604.828125 L 455.613281 639.261719 C 455.613281 644.386719 459.792969 648.566406 464.917969 648.566406 L 741.503906 648.566406 C 746.644531 648.566406 750.808594 644.386719 750.808594 639.261719 Z M 694.097656 592.136719 C 694.097656 588.878906 696.753906 586.222656 700.011719 586.222656 C 703.269531 586.222656 705.925781 588.878906 705.925781 592.136719 C 705.925781 595.394531 703.269531 598.046875 700.011719 598.046875 C 696.753906 598.046875 694.097656 595.394531 694.097656 592.136719 Z M 698.429688 592.136719 C 698.429688 593.003906 699.144531 593.71875 700.011719 593.71875 C 700.878906 593.71875 701.59375 593.003906 701.59375 592.136719 C 701.59375 591.269531 700.878906 590.554688 700.011719 590.554688 C 699.125 590.554688 698.429688 591.269531 698.429688 592.136719 Z M 707.847656 592.136719 C 707.847656 588.878906 710.503906 586.222656 713.761719 586.222656 C 717.019531 586.222656 719.675781 588.878906 719.675781 592.136719 C 719.675781 595.394531 717.019531 598.046875 713.761719 598.046875 C 710.503906 598.046875 707.847656 595.394531 707.847656 592.136719 Z M 712.179688 592.136719 C 712.179688 593.003906 712.894531 593.71875 713.761719 593.71875 C 714.628906 593.71875 715.34375 593.003906 715.34375 592.136719 C 715.34375 591.269531 714.628906 590.554688 713.761719 590.554688 C 712.894531 590.554688 712.179688 591.269531 712.179688 592.136719 Z M 720.992188 592.136719 C 720.992188 588.878906 723.648438 586.222656 726.90625 586.222656 C 730.164062 586.222656 732.820312 588.878906 732.820312 592.136719 C 732.820312 595.394531 730.164062 598.046875 726.90625 598.046875 C 723.648438 598.046875 720.992188 595.394531 720.992188 592.136719 Z M 725.324219 592.136719 C 725.324219 593.003906 726.042969 593.71875 726.90625 593.71875 C 727.773438 593.71875 728.488281 593.003906 728.488281 592.136719 C 728.488281 591.269531 727.773438 590.554688 726.90625 590.554688 C 726.042969 590.554688 725.324219 591.269531 725.324219 592.136719 Z M 267.074219 217.449219 C 267.074219 213.628906 270.183594 210.539062 273.988281 210.539062 C 277.792969 210.539062 280.902344 213.644531 280.902344 217.449219 C 280.902344 221.253906 277.792969 224.359375 273.988281 224.359375 C 270.183594 224.359375 267.074219 221.253906 267.074219 217.449219 Z M 271.40625 217.449219 C 271.40625 218.878906 272.574219 220.03125 273.988281 220.03125 C 275.402344 220.03125 276.570312 218.863281 276.570312 217.449219 C 276.570312 216.039062 275.402344 214.871094 273.988281 214.871094 C 272.574219 214.871094 271.40625 216.019531 271.40625 217.449219 Z M 279.976562 204.550781 C 279.976562 200.730469 283.085938 197.640625 286.890625 197.640625 C 290.695312 197.640625 293.800781 200.75 293.800781 204.550781 C 293.800781 208.355469 290.695312 211.460938 286.890625 211.460938 C 283.085938 211.460938 279.976562 208.355469 279.976562 204.550781 Z M 284.308594 204.550781 C 284.308594 205.984375 285.476562 207.132812 286.890625 207.132812 C 288.304688 207.132812 289.46875 205.964844 289.46875 204.550781 C 289.46875 203.140625 288.304688 201.972656 286.890625 201.972656 C 285.476562 201.972656 284.308594 203.121094 284.308594 204.550781 Z M 254.191406 229.988281 C 254.191406 226.167969 257.300781 223.078125 261.105469 223.078125 C 264.910156 223.078125 268.019531 226.1875 268.019531 229.988281 C 268.019531 233.792969 264.910156 236.898438 261.105469 236.898438 C 257.300781 236.898438 254.191406 233.8125 254.191406 229.988281 Z M 258.523438 229.988281 C 258.523438 231.421875 259.691406 232.570312 261.105469 232.570312 C 262.519531 232.570312 263.6875 231.402344 263.6875 229.988281 C 263.6875 228.578125 262.519531 227.410156 261.105469 227.410156 C 259.691406 227.410156 258.523438 228.578125 258.523438 229.988281 Z M 146.835938 222.328125 C 145.628906 222.929688 145.382812 224.867188 146.289062 226.65625 C 147.191406 228.445312 148.90625 229.386719 150.113281 228.785156 C 151.316406 228.183594 151.5625 226.242188 150.660156 224.453125 C 149.753906 222.664062 148.039062 221.703125 146.835938 222.328125 Z M 162.957031 213.964844 C 161.753906 214.570312 161.507812 216.507812 162.410156 218.296875 C 163.316406 220.085938 165.03125 221.027344 166.234375 220.425781 C 167.441406 219.820312 167.683594 217.882812 166.78125 216.09375 C 165.875 214.304688 164.164062 213.363281 162.957031 213.964844 Z M 158.492188 230.460938 C 159.132812 230.574219 159.792969 230.609375 160.472656 230.554688 C 161.167969 230.480469 161.882812 230.328125 162.582031 229.933594 C 163.277344 229.574219 163.957031 228.992188 164.332031 228.21875 C 164.726562 227.429688 164.804688 226.636719 164.539062 225.753906 C 164.484375 225.566406 164.351562 225.394531 164.183594 225.28125 C 163.765625 225.019531 163.238281 225.132812 162.957031 225.527344 L 162.65625 225.980469 C 162.46875 226.28125 162.261719 226.65625 162.054688 226.902344 C 161.847656 227.144531 161.601562 227.371094 161.28125 227.578125 C 160.960938 227.785156 160.507812 227.917969 160.058594 228.070312 C 159.585938 228.183594 159.058594 228.277344 158.53125 228.40625 L 158.457031 228.425781 C 158.058594 228.519531 157.722656 228.839844 157.644531 229.273438 C 157.53125 229.820312 157.910156 230.367188 158.492188 230.460938 Z M 164.144531 236.089844 C 163.164062 236.636719 162.109375 237.03125 160.960938 237.199219 C 159.832031 237.425781 158.625 237.425781 157.402344 237.425781 L 157.308594 237.425781 C 156.894531 237.425781 156.515625 237.710938 156.421875 238.140625 C 156.308594 238.632812 156.609375 239.121094 157.101562 239.234375 C 157.757812 239.386719 158.4375 239.535156 159.132812 239.628906 C 159.832031 239.648438 160.546875 239.742188 161.242188 239.648438 C 162.675781 239.609375 164.085938 239.101562 165.40625 238.480469 C 166.707031 237.804688 167.855469 236.84375 168.757812 235.730469 C 169.664062 234.582031 170.339844 233.378906 170.734375 231.910156 C 170.847656 231.457031 170.660156 230.96875 170.246094 230.722656 C 169.738281 230.441406 169.117188 230.609375 168.835938 231.121094 L 168.757812 231.25 C 168.230469 232.171875 167.535156 233.210938 166.761719 234.039062 C 166.027344 234.867188 165.140625 235.5625 164.144531 236.089844 Z M 148.003906 218.203125 C 148.210938 218.164062 148.398438 218.015625 148.472656 217.789062 C 148.605469 217.449219 148.4375 217.074219 148.097656 216.941406 C 147.15625 216.582031 146.230469 216.488281 145.253906 216.582031 C 144.273438 216.640625 143.3125 216.960938 142.425781 217.488281 C 141.542969 217.996094 140.769531 218.730469 140.261719 219.597656 C 139.714844 220.445312 139.46875 221.402344 139.375 222.34375 C 139.359375 222.644531 139.46875 222.949219 139.734375 223.136719 C 140.128906 223.417969 140.675781 223.34375 140.976562 222.949219 L 141.035156 222.871094 C 141.976562 221.574219 142.765625 220.519531 143.859375 219.765625 C 144.40625 219.371094 145.027344 219.085938 145.703125 218.804688 C 146.382812 218.5625 147.15625 218.390625 147.890625 218.222656 Z M 502.453125 51.570312 C 501.191406 52.042969 500.722656 53.945312 501.4375 55.808594 C 502.152344 57.671875 503.734375 58.800781 504.996094 58.332031 C 506.257812 57.859375 506.730469 55.957031 506.011719 54.09375 C 505.296875 52.230469 503.714844 51.101562 502.453125 51.570312 Z M 485.390625 57.785156 C 484.128906 58.253906 483.65625 60.15625 484.371094 62.019531 C 485.089844 63.886719 486.671875 65.015625 487.933594 64.542969 C 489.195312 64.074219 489.664062 62.171875 488.949219 60.308594 C 488.234375 58.445312 486.652344 57.3125 485.390625 57.785156 Z M 494.9375 68.421875 C 495.765625 68.667969 496.652344 68.574219 497.386719 68.289062 C 498.140625 68.046875 498.742188 67.613281 499.269531 67.160156 C 499.78125 66.710938 500.195312 66.183594 500.550781 65.636719 C 500.777344 65.296875 500.777344 64.828125 500.53125 64.46875 C 500.195312 63.996094 499.554688 63.886719 499.082031 64.222656 L 499.027344 64.261719 C 498.574219 64.582031 498.160156 64.882812 497.746094 65.164062 C 497.3125 65.390625 496.917969 65.636719 496.558594 65.730469 C 496.183594 65.84375 495.863281 65.863281 495.542969 65.84375 C 495.238281 65.824219 494.808594 65.710938 494.449219 65.65625 L 493.921875 65.5625 C 493.734375 65.523438 493.527344 65.5625 493.335938 65.671875 C 492.921875 65.917969 492.773438 66.464844 493.019531 66.878906 C 493.46875 67.707031 494.109375 68.195312 494.9375 68.421875 Z M 506.445312 69.890625 L 506.371094 69.964844 C 505.542969 70.871094 504.734375 71.753906 503.792969 72.433594 C 502.886719 73.148438 501.871094 73.675781 500.816406 74.015625 C 499.761719 74.371094 498.648438 74.5625 497.5 74.542969 C 496.371094 74.5625 495.144531 74.371094 494.109375 74.128906 L 493.976562 74.089844 C 493.527344 73.976562 493.035156 74.183594 492.808594 74.617188 C 492.546875 75.125 492.734375 75.746094 493.261719 76.03125 C 494.617188 76.746094 495.957031 77.046875 497.425781 77.179688 C 498.855469 77.273438 500.34375 77.082031 501.71875 76.574219 C 503.074219 76.03125 504.394531 75.332031 505.390625 74.296875 C 505.9375 73.84375 506.351562 73.261719 506.804688 72.734375 C 507.199219 72.167969 507.558594 71.566406 507.898438 70.964844 C 508.105469 70.605469 508.046875 70.136719 507.726562 69.855469 C 507.371094 69.496094 506.785156 69.515625 506.445312 69.890625 Z M 486.652344 50.835938 C 485.671875 50.628906 484.617188 50.703125 483.636719 51.007812 C 482.660156 51.308594 481.773438 51.796875 481.058594 52.476562 C 480.34375 53.132812 479.777344 53.867188 479.398438 54.808594 C 479.324219 55.015625 479.34375 55.242188 479.476562 55.429688 C 479.683594 55.730469 480.097656 55.789062 480.378906 55.582031 L 480.472656 55.523438 C 481.078125 55.09375 481.734375 54.640625 482.375 54.300781 C 483.035156 53.980469 483.675781 53.738281 484.335938 53.585938 C 485.632812 53.285156 486.933594 53.433594 488.535156 53.605469 L 488.628906 53.625 C 488.929688 53.660156 489.230469 53.53125 489.4375 53.285156 C 489.742188 52.890625 489.664062 52.34375 489.269531 52.042969 C 488.515625 51.476562 487.648438 51.007812 486.652344 50.835938 Z M 498.628906 49.632812 L 498.722656 49.574219 C 499.328125 49.140625 499.988281 48.691406 500.625 48.351562 C 501.285156 48.03125 501.925781 47.785156 502.585938 47.636719 C 503.886719 47.335938 505.183594 47.484375 506.785156 47.65625 L 506.878906 47.671875 C 507.179688 47.710938 507.484375 47.578125 507.691406 47.335938 C 507.992188 46.9375 507.914062 46.394531 507.519531 46.09375 C 506.765625 45.527344 505.902344 45.054688 504.902344 44.886719 C 503.921875 44.679688 502.867188 44.753906 501.890625 45.054688 C 500.910156 45.359375 500.023438 45.847656 499.308594 46.523438 C 498.59375 47.183594 498.027344 47.917969 497.652344 48.859375 C 497.574219 49.066406 497.59375 49.292969 497.726562 49.480469 C 497.933594 49.78125 498.328125 49.859375 498.628906 49.632812 Z M 596.929688 350.753906 C 595.949219 350.640625 595.046875 351.734375 594.894531 353.164062 C 594.742188 354.597656 595.402344 355.859375 596.363281 355.953125 C 597.34375 356.066406 598.246094 354.972656 598.398438 353.542969 C 598.566406 352.109375 597.910156 350.867188 596.929688 350.753906 Z M 600.660156 347.234375 C 600.074219 346.800781 599.378906 346.480469 598.660156 346.367188 C 597.925781 346.273438 597.191406 346.253906 596.515625 346.480469 C 595.835938 346.667969 595.234375 346.96875 594.6875 347.460938 C 594.574219 347.554688 594.5 347.722656 594.535156 347.894531 C 594.574219 348.15625 594.820312 348.328125 595.082031 348.289062 L 595.160156 348.269531 C 595.6875 348.195312 596.269531 348.101562 596.777344 348.101562 C 597.304688 348.121094 597.796875 348.121094 598.265625 348.269531 C 598.71875 348.421875 599.1875 348.535156 599.601562 348.816406 C 600.054688 349.023438 600.46875 349.363281 600.976562 349.664062 L 601.054688 349.699219 C 601.222656 349.796875 601.449219 349.8125 601.65625 349.71875 C 601.976562 349.570312 602.109375 349.191406 601.957031 348.871094 C 601.675781 348.230469 601.242188 347.6875 600.660156 347.234375 Z M 669.894531 294.214844 C 669.480469 294.890625 668.785156 295.25 668.050781 295.25 C 667.671875 295.25 667.277344 295.15625 666.917969 294.929688 L 633.902344 274.800781 L 603.710938 292.21875 C 603.371094 292.40625 602.992188 292.5 602.617188 292.5 C 602.242188 292.5 601.863281 292.40625 601.523438 292.21875 L 571.503906 274.894531 L 561.085938 283.199219 C 560.691406 283.519531 560.199219 283.667969 559.730469 283.667969 C 559.089844 283.667969 558.46875 283.386719 558.035156 282.859375 C 557.28125 281.917969 557.433594 280.5625 558.375 279.808594 L 569.128906 271.222656 L 569.128906 236.128906 C 569.128906 235.355469 569.542969 234.640625 570.222656 234.246094 L 601.523438 216.1875 C 602.203125 215.792969 603.011719 215.792969 603.691406 216.1875 L 634.992188 234.246094 C 635.671875 234.640625 636.085938 235.335938 636.085938 236.128906 L 636.085938 271.054688 L 669.160156 291.21875 C 670.195312 291.859375 670.515625 293.195312 669.894531 294.214844 Z M 631.773438 237.40625 L 602.636719 220.59375 L 573.5 237.40625 L 573.5 271.035156 L 602.636719 287.847656 L 631.773438 271.035156 Z M 715.925781 216 C 716.71875 216.902344 716.625 218.257812 715.71875 219.050781 L 698.863281 233.792969 L 698.863281 256.179688 C 698.863281 256.953125 698.449219 257.667969 697.769531 258.0625 L 677.523438 269.753906 C 677.183594 269.945312 676.808594 270.039062 676.429688 270.039062 C 676.054688 270.039062 675.675781 269.945312 675.339844 269.753906 L 655.089844 258.0625 C 654.414062 257.667969 654 256.972656 654 256.179688 L 654 232.8125 C 654 232.042969 654.414062 231.328125 655.089844 230.929688 L 675.339844 219.238281 C 676.015625 218.84375 676.824219 218.84375 677.503906 219.238281 L 696.414062 230.140625 L 712.839844 215.773438 C 713.761719 215.003906 715.136719 215.097656 715.925781 216 Z M 694.53125 234.054688 L 676.449219 223.625 L 658.367188 234.054688 L 658.367188 254.917969 L 676.449219 265.347656 L 694.53125 254.917969 Z M 694.53125 234.054688 "/></g></g></svg>