<svg xmlns="http://www.w3.org/2000/svg" xmlns:xlink="http://www.w3.org/1999/xlink" width="1080" zoomAndPan="magnify" viewBox="0 0 810 809.999993" height="1080" preserveAspectRatio="xMidYMid meet" version="1.2"><defs><clipPath id="8ac7336df6"><path d="M 19.882812 344 L 206 344 L 206 378 L 19.882812 378 Z M 19.882812 344 "/></clipPath><clipPath id="c45a054707"><path d="M 604 344 L 790.132812 344 L 790.132812 378 L 604 378 Z M 604 344 "/></clipPath></defs><g id="aa79af8708"><path style=" stroke:none;fill-rule:nonzero;fill:#53b79a;fill-opacity:1;" d="M 621.964844 649.402344 C 629.382812 649.402344 635.429688 655.453125 635.429688 662.871094 C 635.429688 670.285156 629.382812 676.335938 621.964844 676.335938 C 614.546875 676.335938 608.5625 670.285156 608.5625 662.871094 C 608.5625 655.453125 614.546875 649.402344 621.964844 649.402344 Z M 621.964844 649.402344 "/><path style=" stroke:none;fill-rule:nonzero;fill:#53b79a;fill-opacity:1;" d="M 646.425781 444.878906 C 646.425781 445.761719 646.339844 446.636719 646.167969 447.503906 C 645.992188 448.371094 645.738281 449.214844 645.398438 450.03125 C 645.0625 450.847656 644.648438 451.625 644.15625 452.359375 C 643.664062 453.09375 643.105469 453.773438 642.480469 454.398438 C 641.855469 455.023438 641.175781 455.582031 640.441406 456.074219 C 639.707031 456.566406 638.929688 456.980469 638.113281 457.316406 C 637.296875 457.65625 636.453125 457.910156 635.585938 458.085938 C 634.71875 458.257812 633.84375 458.34375 632.960938 458.34375 C 632.074219 458.34375 631.199219 458.257812 630.332031 458.085938 C 629.464844 457.910156 628.621094 457.65625 627.804688 457.316406 C 626.988281 456.980469 626.210938 456.566406 625.476562 456.074219 C 624.742188 455.582031 624.0625 455.023438 623.4375 454.398438 C 622.8125 453.773438 622.253906 453.09375 621.761719 452.359375 C 621.269531 451.625 620.855469 450.847656 620.519531 450.03125 C 620.179688 449.214844 619.925781 448.371094 619.75 447.503906 C 619.578125 446.636719 619.492188 445.761719 619.492188 444.878906 C 619.492188 443.992188 619.578125 443.117188 619.75 442.25 C 619.925781 441.382812 620.179688 440.542969 620.519531 439.722656 C 620.855469 438.90625 621.269531 438.132812 621.761719 437.394531 C 622.253906 436.660156 622.8125 435.980469 623.4375 435.355469 C 624.0625 434.730469 624.742188 434.171875 625.476562 433.679688 C 626.210938 433.191406 626.988281 432.773438 627.804688 432.4375 C 628.621094 432.097656 629.464844 431.84375 630.332031 431.671875 C 631.199219 431.496094 632.074219 431.410156 632.960938 431.410156 C 633.84375 431.410156 634.71875 431.496094 635.585938 431.671875 C 636.453125 431.84375 637.296875 432.097656 638.113281 432.4375 C 638.929688 432.773438 639.707031 433.191406 640.441406 433.679688 C 641.175781 434.171875 641.855469 434.730469 642.480469 435.355469 C 643.105469 435.980469 643.664062 436.660156 644.15625 437.394531 C 644.648438 438.132812 645.0625 438.90625 645.398438 439.722656 C 645.738281 440.542969 645.992188 441.382812 646.167969 442.25 C 646.339844 443.117188 646.425781 443.992188 646.425781 444.878906 Z M 646.425781 444.878906 "/><path style=" stroke:none;fill-rule:nonzero;fill:#53b79a;fill-opacity:1;" d="M 188.308594 649.402344 C 195.726562 649.402344 201.710938 655.453125 201.710938 662.871094 C 201.710938 670.285156 195.726562 676.335938 188.308594 676.335938 C 180.828125 676.335938 174.84375 670.285156 174.84375 662.871094 C 174.84375 655.453125 180.828125 649.402344 188.308594 649.402344 Z M 188.308594 649.402344 "/><path style=" stroke:none;fill-rule:nonzero;fill:#53b79a;fill-opacity:1;" d="M 177.316406 431.410156 C 184.730469 431.410156 190.714844 437.460938 190.714844 444.878906 C 190.714844 452.292969 184.730469 458.34375 177.316406 458.34375 C 169.898438 458.34375 163.847656 452.292969 163.847656 444.878906 C 163.847656 437.460938 169.898438 431.410156 177.316406 431.410156 Z M 177.316406 431.410156 "/><path style=" stroke:none;fill-rule:nonzero;fill:#53b79a;fill-opacity:1;" d="M 528.414062 214.589844 C 535.832031 214.589844 541.816406 220.574219 541.816406 228.054688 C 541.816406 235.472656 535.832031 241.457031 528.414062 241.457031 C 521 241.457031 514.949219 235.472656 514.949219 228.054688 C 514.949219 220.574219 521 214.589844 528.414062 214.589844 Z M 528.414062 214.589844 "/><path style=" stroke:none;fill-rule:nonzero;fill:#53b79a;fill-opacity:1;" d="M 296.496094 176.730469 C 303.910156 176.730469 309.898438 182.714844 309.898438 190.195312 C 309.898438 197.609375 303.910156 203.597656 296.496094 203.597656 C 289.015625 203.597656 283.027344 197.609375 283.027344 190.195312 C 283.027344 182.714844 289.015625 176.730469 296.496094 176.730469 Z M 296.496094 176.730469 "/><path style=" stroke:none;fill-rule:nonzero;fill:#655f68;fill-opacity:1;" d="M 774.257812 259.867188 L 774.257812 344.242188 L 620.792969 344.242188 L 620.792969 259.867188 C 620.792969 246.011719 632.046875 234.757812 645.90625 234.757812 L 749.148438 234.757812 C 763.003906 234.757812 774.257812 246.011719 774.257812 259.867188 Z M 774.257812 259.867188 "/><path style=" stroke:none;fill-rule:nonzero;fill:#655f68;fill-opacity:1;" d="M 189.480469 259.867188 L 189.480469 344.242188 L 36.015625 344.242188 L 36.015625 259.867188 C 36.015625 246.011719 47.269531 234.757812 61.125 234.757812 L 164.367188 234.757812 C 178.226562 234.757812 189.480469 246.011719 189.480469 259.867188 Z M 189.480469 259.867188 "/><path style=" stroke:none;fill-rule:nonzero;fill:#655f68;fill-opacity:1;" d="M 481.902344 26.78125 L 481.902344 111.15625 L 328.371094 111.15625 L 328.371094 26.78125 C 328.371094 12.925781 339.625 1.671875 353.546875 1.671875 L 456.726562 1.671875 C 470.648438 1.671875 481.902344 12.925781 481.902344 26.78125 Z M 481.902344 26.78125 "/><path style=" stroke:none;fill-rule:nonzero;fill:#e15c63;fill-opacity:1;" d="M 353.09375 25.480469 L 457.179688 25.480469 L 457.179688 87.347656 L 353.09375 87.347656 Z M 353.09375 25.480469 "/><path style=" stroke:none;fill-rule:nonzero;fill:#e15c63;fill-opacity:1;" d="M 60.734375 258.566406 L 164.757812 258.566406 L 164.757812 320.429688 L 60.734375 320.429688 Z M 60.734375 258.566406 "/><path style=" stroke:none;fill-rule:nonzero;fill:#e15c63;fill-opacity:1;" d="M 645.515625 258.566406 L 749.539062 258.566406 L 749.539062 320.429688 L 645.515625 320.429688 Z M 645.515625 258.566406 "/><path style=" stroke:none;fill-rule:nonzero;fill:#6fceae;fill-opacity:1;" d="M 493.089844 221.550781 L 411.640625 221.550781 L 411.640625 143.941406 C 411.640625 140.351562 408.726562 137.4375 405.136719 137.4375 C 401.546875 137.4375 398.632812 140.351562 398.632812 143.941406 L 398.632812 183.691406 L 331.625 183.691406 C 328.035156 183.691406 325.121094 186.605469 325.121094 190.195312 C 325.121094 193.785156 328.035156 196.699219 331.625 196.699219 L 398.632812 196.699219 L 398.632812 282.960938 C 398.632812 286.550781 401.546875 289.464844 405.136719 289.464844 C 408.726562 289.464844 411.640625 286.550781 411.640625 282.960938 L 411.640625 261.558594 L 460.171875 261.558594 C 463.765625 261.558594 466.679688 258.644531 466.679688 255.054688 C 466.679688 251.460938 463.765625 248.546875 460.171875 248.546875 L 411.640625 248.546875 L 411.640625 234.5625 L 493.089844 234.5625 C 496.683594 234.5625 499.597656 231.648438 499.597656 228.054688 C 499.597656 224.464844 496.683594 221.550781 493.089844 221.550781 Z M 493.089844 221.550781 "/><path style=" stroke:none;fill-rule:nonzero;fill:#6fceae;fill-opacity:1;" d="M 244.914062 570.574219 L 183.820312 533.953125 L 183.820312 479.8125 C 183.820312 476.214844 180.90625 473.304688 177.316406 473.304688 C 173.722656 473.304688 170.808594 476.214844 170.808594 479.8125 L 170.808594 526.15625 L 148.496094 512.78125 L 148.496094 407.472656 C 148.496094 403.882812 145.582031 400.964844 141.988281 400.964844 C 138.398438 400.964844 135.484375 403.882812 135.484375 407.472656 L 135.484375 502.546875 C 125.210938 491.917969 119.285156 477.695312 119.285156 462.507812 L 119.285156 377.027344 C 119.285156 373.4375 116.371094 370.523438 112.78125 370.523438 C 109.1875 370.523438 106.273438 373.4375 106.273438 377.027344 L 106.273438 462.507812 C 106.273438 486.558594 118.304688 508.726562 138.25 521.699219 C 139.023438 522.238281 139.867188 522.777344 140.667969 523.257812 L 181.804688 547.914062 L 181.804688 626.113281 C 181.804688 629.710938 184.71875 632.621094 188.308594 632.621094 C 191.898438 632.621094 194.8125 629.710938 194.8125 626.113281 L 194.8125 555.714844 L 208.800781 564.101562 L 208.800781 604.980469 C 208.800781 608.578125 211.714844 611.484375 215.308594 611.484375 C 218.898438 611.484375 221.8125 608.578125 221.8125 604.980469 L 221.8125 571.898438 L 238.441406 581.867188 C 239.449219 582.476562 240.671875 582.796875 241.847656 582.796875 C 245.441406 582.796875 248.320312 579.886719 248.320312 576.289062 C 248.320312 573.824219 246.941406 571.679688 244.914062 570.574219 Z M 244.914062 570.574219 "/><path style=" stroke:none;fill-rule:nonzero;fill:#6fceae;fill-opacity:1;" d="M 697.492188 370.523438 C 693.902344 370.523438 690.988281 373.4375 690.988281 377.027344 L 690.988281 462.507812 C 690.988281 477.652344 685.09375 491.839844 674.789062 502.519531 L 674.789062 407.472656 C 674.789062 403.882812 671.875 400.964844 668.285156 400.964844 C 664.691406 400.964844 661.777344 403.882812 661.777344 407.472656 L 661.777344 512.765625 L 639.464844 525.90625 L 639.464844 479.8125 C 639.464844 476.214844 636.550781 473.304688 632.960938 473.304688 C 629.367188 473.304688 626.453125 476.214844 626.453125 479.8125 L 626.453125 533.570312 L 552.636719 577.046875 C 549.539062 578.867188 548.503906 582.859375 550.328125 585.953125 C 551.535156 588.011719 553.710938 589.160156 555.941406 589.160156 C 557.058594 589.160156 558.199219 588.871094 559.230469 588.261719 L 588.460938 571.042969 L 588.460938 604.964844 C 588.460938 608.5625 591.375 611.472656 594.96875 611.472656 C 598.558594 611.472656 601.472656 608.5625 601.472656 604.964844 L 601.472656 563.378906 L 615.460938 555.140625 L 615.460938 626.113281 C 615.460938 629.710938 618.375 632.621094 621.964844 632.621094 C 625.554688 632.621094 628.46875 629.710938 628.46875 626.113281 L 628.46875 547.484375 L 669.636719 523.238281 C 670.410156 522.777344 671.257812 522.238281 671.828125 521.828125 C 691.96875 508.726562 704 486.558594 704 462.507812 L 704 377.027344 C 704 373.4375 701.085938 370.523438 697.492188 370.523438 Z M 697.492188 370.523438 "/><path style=" stroke:none;fill-rule:nonzero;fill:#5d5560;fill-opacity:1;" d="M 600.820312 721.546875 C 580.589844 694.550781 513.128906 667.554688 513.128906 667.554688 C 526.007812 650.445312 544.289062 616.941406 555.933594 582.660156 C 562.570312 563.011719 567.058594 543.105469 567.058594 525.867188 C 567.058594 507.589844 557.949219 488.269531 546.828125 471.484375 C 546.828125 471.484375 553.59375 438.175781 540.125 404.414062 C 526.660156 370.652344 452.367188 282.960938 405.136719 282.960938 C 357.90625 282.960938 276.914062 357.1875 256.683594 411.179688 C 241.71875 451.121094 256.683594 478.640625 256.683594 478.640625 L 256.941406 478.769531 C 245.882812 502.90625 236.449219 530.226562 236.449219 552.867188 C 236.449219 558.914062 238.464844 567.113281 241.785156 576.285156 L 241.847656 576.285156 C 253.296875 607.898438 279.972656 651.875 290.445312 667.554688 C 290.445312 667.554688 236.449219 681.085938 202.6875 728.3125 C 192.992188 741.910156 182.128906 771.832031 171.71875 808.328125 L 632.894531 808.328125 C 628.664062 789.851562 616.890625 742.949219 600.820312 721.546875 Z M 600.820312 721.546875 "/><path style=" stroke:none;fill-rule:nonzero;fill:#504256;fill-opacity:1;" d="M 405.136719 438.175781 C 445.601562 438.175781 526.59375 458.410156 526.59375 546.101562 C 526.59375 600.550781 405.136719 681.085938 405.136719 681.085938 C 405.136719 681.085938 283.679688 600.550781 283.679688 546.101562 C 283.679688 458.410156 364.671875 438.175781 405.136719 438.175781 Z M 405.136719 438.175781 "/><path style=" stroke:none;fill-rule:nonzero;fill:#71cc75;fill-opacity:1;" d="M 404.488281 532.960938 L 386.597656 537.511719 C 374.5625 540.570312 365.128906 549.9375 362.070312 562.039062 L 357.582031 579.863281 L 353.027344 562.039062 C 349.96875 549.9375 340.601562 540.570312 328.503906 537.511719 L 310.675781 532.960938 L 328.503906 528.46875 C 340.601562 525.414062 349.96875 515.980469 353.027344 503.945312 L 357.582031 486.054688 L 362.070312 503.945312 C 365.128906 515.980469 374.5625 525.414062 386.597656 528.46875 Z M 404.488281 532.960938 "/><g clip-rule="nonzero" clip-path="url(#8ac7336df6)"><path style=" stroke:none;fill-rule:nonzero;fill:#ad6a6a;fill-opacity:1;" d="M 205.613281 359.789062 L 205.613281 377.027344 L 19.882812 377.027344 L 19.882812 359.789062 C 19.882812 351.203125 26.84375 344.242188 35.429688 344.242188 L 190.066406 344.242188 C 198.652344 344.242188 205.613281 351.203125 205.613281 359.789062 Z M 205.613281 359.789062 "/></g><path style=" stroke:none;fill-rule:nonzero;fill:#ad6a6a;fill-opacity:1;" d="M 498.035156 126.703125 L 498.035156 143.941406 L 312.238281 143.941406 L 312.238281 126.703125 C 312.238281 118.117188 319.199219 111.15625 327.785156 111.15625 L 482.488281 111.15625 C 491.074219 111.15625 498.035156 118.117188 498.035156 126.703125 Z M 498.035156 126.703125 "/><g clip-rule="nonzero" clip-path="url(#c45a054707)"><path style=" stroke:none;fill-rule:nonzero;fill:#ad6a6a;fill-opacity:1;" d="M 790.390625 359.789062 L 790.390625 377.027344 L 604.660156 377.027344 L 604.660156 359.789062 C 604.660156 351.203125 611.621094 344.242188 620.207031 344.242188 L 774.84375 344.242188 C 783.429688 344.242188 790.390625 351.203125 790.390625 359.789062 Z M 790.390625 359.789062 "/></g><path style=" stroke:none;fill-rule:nonzero;fill:#47394f;fill-opacity:1;" d="M 405.136719 438.175781 C 405.136719 438.175781 498.359375 479.84375 464.414062 566.125 C 433.515625 644.667969 322.105469 612.738281 322.105469 612.738281 C 357.691406 649.625 405.136719 681.085938 405.136719 681.085938 C 405.136719 681.085938 526.59375 600.550781 526.59375 546.101562 C 526.59375 458.410156 445.601562 438.175781 405.136719 438.175781 Z M 405.136719 438.175781 "/><path style=" stroke:none;fill-rule:nonzero;fill:#524956;fill-opacity:1;" d="M 439.648438 808.328125 L 632.894531 808.328125 C 628.664062 789.851562 616.890625 742.949219 600.820312 721.546875 C 580.589844 694.550781 513.128906 667.554688 513.128906 667.554688 C 513.128906 667.554688 622.5 771.625 439.648438 808.328125 Z M 439.648438 808.328125 "/><path style=" stroke:none;fill-rule:nonzero;fill:#524956;fill-opacity:1;" d="M 546.828125 471.484375 C 529.132812 444.878906 506.363281 424.644531 506.363281 424.644531 C 506.363281 424.644531 566.011719 536.425781 515.632812 626.113281 C 488.726562 674.007812 447.089844 735.050781 447.089844 735.050781 C 469.554688 717.359375 498.367188 687.191406 513.128906 667.617188 L 513.128906 667.554688 C 526.007812 650.445312 544.289062 616.941406 555.933594 582.660156 C 562.570312 563.011719 567.058594 543.105469 567.058594 525.867188 C 567.058594 507.589844 557.949219 488.269531 546.828125 471.484375 Z M 546.828125 471.484375 "/><path style=" stroke:none;fill-rule:nonzero;fill:#524956;fill-opacity:1;" d="M 294.054688 412.53125 C 291.0625 410.542969 287.023438 411.347656 285.03125 414.335938 C 284.5625 415.03125 273.433594 431.796875 261.171875 455.332031 C 259.511719 458.511719 260.746094 462.449219 263.933594 464.105469 C 264.890625 464.609375 265.917969 464.84375 266.933594 464.84375 C 269.28125 464.84375 271.546875 463.574219 272.710938 461.34375 C 284.636719 438.464844 295.753906 421.71875 295.863281 421.554688 C 297.847656 418.5625 297.042969 414.53125 294.054688 412.53125 Z M 294.054688 412.53125 "/><path style=" stroke:none;fill-rule:nonzero;fill:#524956;fill-opacity:1;" d="M 345.96875 742.234375 C 345.722656 742.167969 321.242188 735.761719 309.324219 717.949219 C 304.828125 711.199219 301.324219 701.453125 299.183594 689.761719 C 299.027344 688.910156 298.695312 688.128906 298.257812 687.441406 C 313.648438 703.917969 332.769531 719.265625 333.609375 719.933594 C 334.8125 720.890625 336.242188 721.359375 337.667969 721.359375 C 339.574219 721.359375 341.46875 720.519531 342.753906 718.914062 C 345 716.109375 344.539062 712.011719 341.734375 709.773438 C 341.527344 709.609375 321.015625 693.152344 306.058594 676.734375 C 303.644531 674.078125 299.535156 673.875 296.867188 676.304688 C 294.210938 678.722656 294.015625 682.835938 296.4375 685.488281 C 296.722656 685.808594 297.027344 686.121094 297.320312 686.4375 C 295.863281 684.96875 293.816406 684.128906 291.609375 684.539062 C 288.078125 685.1875 285.734375 688.570312 286.378906 692.105469 C 288.871094 705.714844 292.941406 716.835938 298.5 725.171875 C 313.253906 747.230469 341.589844 754.5625 342.789062 754.855469 C 343.320312 754.992188 343.855469 755.050781 344.375 755.050781 C 347.285156 755.050781 349.929688 753.085938 350.671875 750.136719 C 351.558594 746.65625 349.449219 743.125 345.96875 742.234375 Z M 345.96875 742.234375 "/><path style=" stroke:none;fill-rule:nonzero;fill:#524956;fill-opacity:1;" d="M 427.445312 754.710938 C 430.847656 753.558594 432.679688 749.871094 431.535156 746.460938 C 430.390625 743.066406 426.710938 741.234375 423.292969 742.371094 C 419.089844 743.789062 413.933594 744.179688 408.179688 743.671875 C 409.039062 741.792969 409.988281 739.871094 410.984375 737.894531 C 414.636719 730.609375 418.40625 723.082031 418.40625 714.847656 C 418.40625 708.71875 417.203125 700.800781 414.832031 691.3125 C 413.957031 687.824219 410.425781 685.714844 406.9375 686.582031 C 403.453125 687.453125 401.335938 690.984375 402.203125 694.472656 C 404.292969 702.804688 405.390625 709.851562 405.390625 714.847656 C 405.390625 720 402.457031 725.859375 399.347656 732.058594 C 397.855469 735.03125 396.367188 738.078125 395.097656 741.179688 C 387.050781 738.890625 381.113281 735.988281 381.039062 735.957031 C 377.820312 734.355469 373.917969 735.65625 372.316406 738.871094 C 370.710938 742.085938 372.011719 745.988281 375.21875 747.59375 C 375.5625 747.765625 382.484375 751.171875 391.964844 753.820312 C 391.9375 754.316406 391.859375 754.816406 391.859375 755.308594 C 391.859375 762.152344 393.414062 775.875 396.484375 796.089844 C 396.972656 799.3125 399.742188 801.621094 402.90625 801.621094 C 403.230469 801.621094 403.5625 801.59375 403.894531 801.542969 C 407.445312 801.003906 409.886719 797.683594 409.347656 794.132812 C 406.613281 776.152344 405.058594 762.925781 404.894531 756.449219 C 407.570312 756.773438 410.171875 756.960938 412.664062 756.960938 C 418.042969 756.960938 422.980469 756.207031 427.445312 754.710938 Z M 427.445312 754.710938 "/><path style=" stroke:none;fill-rule:nonzero;fill:#524956;fill-opacity:1;" d="M 510.910156 680.539062 C 507.460938 679.679688 503.902344 681.828125 503.050781 685.320312 C 500.675781 695.066406 497.761719 704.164062 494.390625 712.367188 C 488.855469 725.828125 482.253906 736.449219 474.765625 743.9375 C 450.214844 768.488281 425.578125 769.03125 425.367188 769.03125 C 421.777344 769.03125 418.863281 771.9375 418.863281 775.535156 C 418.863281 779.132812 421.777344 782.039062 425.367188 782.039062 C 426.585938 782.039062 455.390625 781.707031 483.964844 753.136719 C 492.675781 744.425781 500.226562 732.378906 506.425781 717.3125 C 510.050781 708.503906 513.167969 698.773438 515.691406 688.398438 C 516.542969 684.910156 514.398438 681.390625 510.910156 680.539062 Z M 510.910156 680.539062 "/></g></svg>