<svg xmlns="http://www.w3.org/2000/svg" xmlns:xlink="http://www.w3.org/1999/xlink" width="1080" zoomAndPan="magnify" viewBox="0 0 810 809.999993" height="1080" preserveAspectRatio="xMidYMid meet" version="1.2"><defs><clipPath id="876a3eb41d"><path d="M 77 2.023438 L 733 2.023438 L 733 600 L 77 600 Z M 77 2.023438 "/></clipPath><clipPath id="af8a9e7500"><path d="M 219 252 L 591 252 L 591 809.773438 L 219 809.773438 Z M 219 252 "/></clipPath></defs><g id="8648740897"><g clip-rule="nonzero" clip-path="url(#876a3eb41d)"><path style=" stroke:none;fill-rule:nonzero;fill:#000000;fill-opacity:1;" d="M 673.28125 515.78125 L 642.96875 456.296875 C 651.09375 441.015625 657.726562 425.003906 662.738281 408.59375 L 726.246094 387.972656 C 730.175781 386.699219 732.847656 383.027344 732.847656 378.894531 L 732.847656 280.722656 C 732.847656 276.589844 730.175781 272.929688 726.246094 271.660156 L 662.769531 251.035156 C 657.695312 234.515625 651.046875 218.503906 642.96875 203.320312 L 673.28125 143.800781 C 675.160156 140.113281 674.441406 135.644531 671.53125 132.71875 L 602.089844 63.3125 C 599.179688 60.386719 594.695312 59.6875 591.003906 61.566406 L 531.519531 91.902344 C 516.285156 83.761719 500.265625 77.132812 483.804688 72.105469 L 463.175781 8.617188 C 461.90625 4.671875 458.230469 2.015625 454.09375 2.015625 L 355.898438 2.015625 C 351.761719 2.015625 348.105469 4.671875 346.832031 8.617188 L 326.203125 72.105469 C 309.664062 77.148438 293.644531 83.777344 278.472656 91.902344 L 218.941406 61.566406 C 215.25 59.671875 210.78125 60.386719 207.855469 63.3125 L 138.429688 132.71875 C 135.503906 135.644531 134.804688 140.113281 136.679688 143.800781 L 167.027344 203.335938 C 158.851562 218.695312 152.21875 234.691406 147.226562 251.035156 L 83.699219 271.660156 C 79.773438 272.929688 77.117188 276.589844 77.117188 280.722656 L 77.117188 378.894531 C 77.117188 383.027344 79.773438 386.699219 83.699219 387.972656 L 147.226562 408.59375 C 152.25 425.050781 158.882812 441.0625 167.027344 456.296875 L 136.679688 515.765625 C 134.804688 519.453125 135.503906 523.9375 138.429688 526.847656 L 207.855469 596.269531 C 210.78125 599.195312 215.25 599.894531 218.941406 598.019531 L 278.472656 567.710938 C 285.488281 571.433594 292.628906 574.851562 299.878906 577.921875 C 301.835938 572.5625 303.554688 567.027344 305.035156 561.449219 C 305.207031 560.828125 305.367188 560.207031 305.527344 559.570312 C 297.957031 556.3125 290.527344 552.640625 283.261719 548.601562 C 280.492188 547.058594 277.121094 546.992188 274.289062 548.425781 L 216.460938 577.871094 L 156.832031 518.261719 L 186.320312 460.496094 C 187.765625 457.648438 187.703125 454.277344 186.144531 451.496094 C 176.761719 434.71875 169.363281 416.878906 164.132812 398.464844 C 163.273438 395.414062 160.933594 392.980469 157.914062 391.996094 L 96.203125 371.960938 L 96.203125 287.65625 L 157.914062 267.621094 C 160.933594 266.652344 163.273438 264.21875 164.132812 261.148438 C 169.316406 242.910156 176.730469 225.070312 186.160156 208.105469 C 187.703125 205.339844 187.765625 201.96875 186.320312 199.136719 L 156.832031 141.304688 L 216.441406 81.710938 L 274.289062 111.191406 C 277.136719 112.636719 280.507812 112.574219 283.292969 111.015625 C 299.992188 101.667969 317.820312 94.273438 336.320312 89.023438 C 339.390625 88.152344 341.820312 85.8125 342.792969 82.792969 L 362.832031 21.097656 L 447.160156 21.097656 L 467.199219 82.792969 C 468.1875 85.8125 470.621094 88.152344 473.675781 89.023438 C 492.078125 94.242188 509.921875 101.648438 526.71875 111.015625 C 529.5 112.574219 532.871094 112.636719 535.703125 111.191406 L 593.503906 81.710938 L 653.128906 141.320312 L 623.675781 199.152344 C 622.242188 201.984375 622.304688 205.339844 623.847656 208.121094 C 633.167969 224.816406 640.566406 242.671875 645.863281 261.179688 C 646.738281 264.234375 649.074219 266.652344 652.097656 267.621094 L 713.761719 287.65625 L 713.761719 371.960938 L 652.046875 391.996094 C 649.027344 392.980469 646.6875 395.414062 645.8125 398.464844 C 640.613281 416.816406 633.21875 434.671875 623.847656 451.511719 C 622.304688 454.292969 622.242188 457.648438 623.675781 460.480469 L 653.128906 518.261719 L 593.503906 577.871094 L 535.703125 548.425781 C 532.871094 546.992188 529.515625 547.058594 526.734375 548.601562 C 519.464844 552.640625 512.019531 556.3125 504.449219 559.585938 C 504.59375 560.175781 504.753906 560.765625 504.910156 561.351562 C 506.4375 567.058594 508.15625 572.625 510.097656 577.9375 C 517.347656 574.867188 524.507812 571.449219 531.519531 567.710938 L 591.019531 598.019531 C 592.390625 598.71875 593.867188 599.070312 595.347656 599.070312 C 597.828125 599.070312 600.261719 598.097656 602.089844 596.269531 L 671.53125 526.847656 C 674.441406 523.9375 675.160156 519.453125 673.28125 515.78125 Z M 673.28125 515.78125 "/></g><path style=" stroke:none;fill-rule:nonzero;fill:#000000;fill-opacity:1;" d="M 217.652344 329.808594 C 217.652344 226.535156 301.695312 142.515625 404.996094 142.515625 C 508.285156 142.515625 592.292969 226.535156 592.292969 329.808594 C 592.292969 398.371094 554.597656 460.90625 495.972656 493.535156 C 496.019531 495.9375 496.101562 498.320312 496.195312 500.675781 C 496.371094 505.382812 496.65625 510.007812 497.039062 514.523438 C 566.304688 479.988281 611.378906 408.5 611.378906 329.808594 C 611.378906 216.023438 518.796875 123.433594 404.996094 123.433594 C 291.179688 123.433594 198.566406 216.023438 198.566406 329.808594 C 198.566406 408.5 243.640625 479.972656 312.921875 514.523438 C 313.320312 509.851562 313.589844 505.222656 313.78125 500.691406 C 313.878906 498.339844 313.957031 495.953125 314.003906 493.535156 C 255.363281 460.90625 217.652344 398.355469 217.652344 329.808594 Z M 217.652344 329.808594 "/><g clip-rule="nonzero" clip-path="url(#af8a9e7500)"><path style=" stroke:none;fill-rule:nonzero;fill:#000000;fill-opacity:1;" d="M 554.726562 737.386719 C 557.476562 732.285156 559.035156 726.464844 559.035156 720.277344 C 559.035156 702.359375 545.945312 687.445312 528.832031 684.566406 L 528.832031 644.511719 C 528.832031 642.238281 528.023438 640.027344 526.542969 638.296875 C 513.292969 622.855469 502.875 604.632812 495.273438 583.722656 C 493.140625 577.871094 491.234375 571.796875 489.5625 565.503906 C 485.859375 551.8125 483.25 537.105469 481.691406 521.425781 C 481.039062 514.90625 480.578125 508.195312 480.308594 501.328125 C 479.449219 480.609375 480.273438 458.332031 482.789062 434.5625 C 498.675781 431.683594 510.75 417.753906 510.75 401.074219 C 510.75 395.683594 509.492188 390.578125 507.25 386.046875 L 531.996094 386.046875 C 537.277344 386.046875 541.539062 381.769531 541.539062 376.507812 L 541.539062 262.246094 C 541.539062 256.984375 537.277344 252.707031 531.996094 252.707031 L 481.816406 252.707031 C 476.554688 252.707031 472.273438 256.984375 472.273438 262.246094 L 472.273438 298.546875 L 449.53125 298.546875 L 449.53125 262.246094 C 449.53125 256.984375 445.253906 252.707031 439.988281 252.707031 L 369.972656 252.707031 C 364.695312 252.707031 360.429688 256.984375 360.429688 262.246094 L 360.429688 298.546875 L 337.71875 298.546875 L 337.71875 262.246094 C 337.71875 256.984375 333.441406 252.707031 328.175781 252.707031 L 277.949219 252.707031 C 272.683594 252.707031 268.40625 256.984375 268.40625 262.246094 L 268.40625 376.507812 C 268.40625 381.769531 272.683594 386.046875 277.949219 386.046875 L 302.742188 386.046875 C 300.5 390.578125 299.246094 395.683594 299.246094 401.074219 C 299.246094 417.738281 311.300781 431.652344 327.15625 434.542969 C 329.671875 458.316406 330.515625 480.578125 329.671875 501.3125 C 329.402344 508.195312 328.921875 514.890625 328.285156 521.425781 C 326.726562 537.105469 324.121094 551.796875 320.414062 565.484375 C 318.761719 571.78125 316.851562 577.855469 314.703125 583.722656 C 307.101562 604.632812 296.667969 622.855469 283.417969 638.296875 C 281.941406 640.027344 281.128906 642.222656 281.128906 644.511719 L 281.128906 684.566406 C 264.03125 687.429688 250.957031 702.359375 250.957031 720.277344 C 250.957031 726.464844 252.515625 732.285156 255.265625 737.386719 C 235.511719 737.640625 219.527344 753.796875 219.527344 773.59375 L 219.527344 800.242188 C 219.527344 805.503906 223.808594 809.78125 229.070312 809.78125 L 580.875 809.78125 C 586.15625 809.78125 590.417969 805.503906 590.417969 800.242188 L 590.417969 773.59375 C 590.417969 753.78125 574.449219 737.640625 554.726562 737.386719 Z M 554.726562 737.386719 "/></g><path style=" stroke:none;fill-rule:nonzero;fill:#000000;fill-opacity:1;" d="M 196.128906 663.792969 C 103.261719 597.394531 47.820312 490.015625 47.820312 376.550781 L 47.820312 112.539062 L 60.074219 124.769531 C 61.9375 126.625 64.378906 127.558594 66.816406 127.558594 C 69.261719 127.558594 71.707031 126.625 73.570312 124.757812 C 77.292969 121.027344 77.289062 114.988281 73.558594 111.265625 L 45.425781 83.183594 C 41.703125 79.46875 35.667969 79.46875 31.941406 83.183594 L 3.808594 111.265625 C 0.078125 114.988281 0.0742188 121.027344 3.796875 124.757812 C 7.523438 128.484375 13.5625 128.492188 17.292969 124.769531 L 28.734375 113.347656 L 28.734375 376.550781 C 28.734375 436.683594 43.523438 496.472656 71.5 549.449219 C 98.523438 600.628906 137.78125 645.535156 185.023438 679.3125 C 186.707031 680.515625 188.644531 681.09375 190.566406 681.09375 C 193.542969 681.09375 196.476562 679.703125 198.335938 677.101562 C 201.402344 672.816406 200.414062 666.855469 196.128906 663.792969 Z M 196.128906 663.792969 "/><path style=" stroke:none;fill-rule:nonzero;fill:#000000;fill-opacity:1;" d="M 806.191406 111.265625 L 778.058594 83.183594 C 774.332031 79.46875 768.296875 79.46875 764.570312 83.183594 L 736.4375 111.265625 C 732.710938 114.988281 732.703125 121.027344 736.429688 124.757812 C 740.152344 128.484375 746.195312 128.492188 749.921875 124.769531 L 761.769531 112.941406 L 761.769531 376.550781 C 761.769531 490.164062 706.480469 597.542969 613.867188 663.792969 C 609.582031 666.859375 608.59375 672.820312 611.660156 677.105469 C 613.523438 679.707031 616.453125 681.09375 619.429688 681.09375 C 621.351562 681.09375 623.292969 680.515625 624.976562 679.3125 C 672.15625 645.558594 711.339844 600.648438 738.285156 549.4375 C 766.136719 496.507812 780.855469 436.726562 780.855469 376.550781 L 780.855469 112.941406 L 792.703125 124.769531 C 794.566406 126.625 797.007812 127.558594 799.445312 127.558594 C 801.890625 127.558594 804.335938 126.625 806.199219 124.757812 C 809.925781 121.027344 809.921875 114.988281 806.191406 111.265625 Z M 806.191406 111.265625 "/></g></svg>