<svg xmlns="http://www.w3.org/2000/svg" xmlns:xlink="http://www.w3.org/1999/xlink" width="1080" zoomAndPan="magnify" viewBox="0 0 810 809.999993" height="1080" preserveAspectRatio="xMidYMid meet" version="1.2"><defs><clipPath id="7320e01ff4"><path d="M 49 17 L 800.835938 17 L 800.835938 465 L 49 465 Z M 49 17 "/></clipPath></defs><g id="6868f22d1b"><g clip-rule="nonzero" clip-path="url(#7320e01ff4)"><path style=" stroke:none;fill-rule:nonzero;fill:#4f9fdf;fill-opacity:1;" d="M 84.578125 125.320312 L 68.375 141.53125 L 49.285156 141.53125 L 49.285156 121.113281 L 59.976562 110.992188 L 59.976562 103.960938 C 60.867188 105.480469 62.171875 106.503906 64.152344 105.828125 C 65.753906 105.28125 65.867188 105.992188 65.667969 107.34375 C 65.371094 109.390625 65.324219 111.488281 65.734375 113.519531 C 66.296875 116.277344 67.914062 117.347656 70.667969 116.789062 C 71.460938 116.621094 72.054688 116.789062 72.699219 117.167969 C 73.492188 117.613281 74.382812 117.8125 75.222656 117.480469 C 76.773438 116.871094 77.320312 117.398438 77.535156 118.984375 C 77.914062 121.722656 75.917969 122.8125 78.804688 123.703125 C 79.347656 123.867188 81.675781 125.171875 82.996094 125.734375 C 83.324219 125.867188 83.917969 125.699219 84.578125 125.320312 Z M 173.894531 98.859375 C 174.851562 102.609375 172.261719 105.398438 168.5 104.6875 C 167.875 104.570312 167.261719 104.375 166.636719 104.257812 C 165.449219 104.042969 165.101562 104.554688 165.710938 105.5625 C 166.207031 106.371094 166.867188 107.082031 167.410156 107.855469 C 169.257812 110.449219 168.386719 112.890625 165.347656 113.683594 C 164.65625 113.867188 160.433594 116.804688 159.738281 116.769531 C 157.199219 116.65625 155.203125 114.328125 153.863281 117.347656 C 153.121094 119 154.078125 124.527344 145.515625 125.253906 C 144.078125 124.644531 147.214844 119.808594 148.15625 118.984375 C 147.429688 118.371094 146.140625 115.960938 146.140625 115.960938 C 144.03125 126.378906 140.417969 136.828125 127.976562 146.566406 C 132.332031 148.976562 136.96875 150.808594 141.488281 152.855469 C 141.636719 152.574219 141.804688 152.292969 141.933594 152.011719 C 141.933594 152.011719 182.722656 171.328125 195.496094 181.347656 C 206.796875 190.210938 208.859375 217.082031 209.191406 223.125 L 234.601562 220.582031 L 233.628906 219.609375 L 245.078125 208.152344 L 245.078125 191.730469 L 257.667969 179.132812 L 257.667969 162.03125 L 268.082031 162.03125 L 275.40625 169.363281 L 288.34375 169.363281 L 299.941406 157.757812 L 299.941406 144.269531 L 289.710938 134.039062 L 280.40625 134.039062 L 271 124.628906 L 248.578125 124.628906 L 237.40625 135.804688 L 237.40625 148.597656 L 216.597656 148.597656 L 206.105469 138.097656 L 206.105469 126.839844 L 225.195312 107.742188 L 225.195312 97.242188 L 215.640625 87.683594 L 208.5625 87.683594 L 202.277344 93.972656 L 171.453125 93.972656 C 171.386719 94.699219 171.667969 95.34375 172.246094 95.957031 C 173.023438 96.78125 173.550781 97.753906 173.832031 98.84375 L 173.894531 98.84375 Z M 234.632812 333.738281 L 252.816406 351.929688 L 252.816406 403.761719 L 243.941406 412.644531 L 243.941406 442.621094 L 250.804688 449.488281 L 244.832031 455.460938 L 254.039062 464.671875 L 265.011719 464.671875 L 271.976562 457.691406 L 271.976562 448.332031 L 265.6875 442.042969 L 265.6875 426.226562 L 294.710938 397.191406 L 294.710938 384.265625 L 307.070312 371.902344 L 318.621094 371.902344 L 328.835938 361.683594 L 328.835938 342.222656 L 342.398438 328.65625 L 342.398438 302.671875 L 327.679688 287.949219 L 313.804688 287.949219 L 308.027344 282.171875 L 285.226562 282.171875 L 277.683594 274.628906 L 243.710938 274.628906 L 226.730469 257.640625 L 226.730469 257.097656 L 213.597656 268.171875 L 242.308594 296.894531 L 234.601562 304.605469 L 234.601562 333.773438 Z M 184.835938 77.996094 C 184.636719 80.472656 183.101562 81.859375 180.992188 82.683594 C 179.851562 83.113281 179.6875 83.707031 179.804688 84.847656 C 179.886719 85.523438 179.871094 86.132812 179.835938 86.710938 L 182.707031 86.710938 L 187.9375 81.480469 L 187.9375 76.097656 L 186.371094 74.527344 C 186.253906 75.089844 186.007812 75.652344 185.527344 76.261719 C 185.148438 76.726562 184.886719 77.402344 184.835938 77.996094 Z M 184.902344 62.460938 C 184.902344 62.460938 184.753906 62.59375 184.753906 62.644531 C 184.867188 63.585938 184.820312 64.542969 184.753906 65.515625 L 185.941406 66.703125 L 197.195312 66.703125 L 209.125 54.769531 L 209.125 50.246094 L 189.207031 50.246094 L 185.183594 54.457031 C 188.085938 57.128906 187.757812 58.21875 184.867188 62.460938 Z M 195.628906 82.222656 L 200.050781 86.644531 L 206.054688 80.636719 L 206.054688 75.4375 L 201.617188 70.996094 L 195.644531 77.203125 L 195.644531 82.222656 Z M 225.804688 121.011719 L 230.230469 125.4375 L 236.234375 119.429688 L 236.234375 114.230469 L 231.796875 109.789062 L 225.824219 115.996094 L 225.824219 121.011719 Z M 398.433594 151.320312 L 398.433594 146.121094 L 393.996094 141.679688 L 388.023438 147.886719 L 388.023438 152.90625 L 392.445312 157.328125 L 398.449219 151.320312 Z M 206.417969 65.300781 L 206.417969 69.691406 L 209.949219 73.226562 L 215.03125 68.140625 L 209.289062 62.398438 L 206.433594 65.019531 L 206.433594 65.300781 Z M 233.050781 67.992188 L 239.847656 61.191406 L 239.847656 50.097656 L 245.410156 44.535156 L 253 44.535156 L 262.109375 35.425781 L 229.355469 35.339844 L 215.625 49.074219 L 215.625 59.773438 L 223.84375 67.992188 Z M 255.820312 118.585938 L 270.507812 118.585938 L 270.507812 110.945312 L 265.257812 105.695312 L 265.257812 101.667969 L 268.789062 98.132812 L 268.789062 92.125 L 251.167969 74.496094 L 231.648438 74.496094 L 222.574219 84.203125 L 230.972656 92.605469 L 240.789062 92.605469 L 244.585938 96.402344 L 244.585938 107.363281 L 255.820312 118.601562 Z M 255.539062 54.257812 L 263.691406 62.414062 L 283.738281 62.414062 L 299.382812 78.0625 L 299.382812 98.21875 L 306.082031 104.917969 L 306.082031 118.585938 L 318.636719 131.148438 L 330.816406 131.148438 L 330.816406 114.804688 L 346.558594 99.058594 L 360.433594 99.058594 L 369.226562 90.261719 L 369.226562 72.003906 L 376.273438 64.957031 L 376.273438 58.484375 L 370.746094 52.953125 L 381.042969 42.652344 L 381.042969 33.0625 L 370.167969 33.0625 L 359.574219 22.464844 L 343.109375 22.464844 L 337.746094 17.101562 L 320.929688 17.101562 L 306.578125 31.460938 L 284.863281 31.460938 L 268.921875 47.40625 L 255.523438 47.40625 L 255.523438 54.257812 Z M 369.773438 102.375 L 362.183594 110.464844 L 368.222656 116.507812 L 376.207031 116.507812 L 383.484375 109.226562 L 376.636719 102.375 C 376.636719 102.375 369.773438 102.375 369.773438 102.375 Z M 405.992188 151.121094 L 401.320312 155.792969 L 401.320312 162.082031 L 405.992188 162.082031 L 409.226562 158.847656 L 415.117188 158.847656 L 415.117188 142.753906 L 409.71875 137.355469 L 409.71875 133.246094 L 405.726562 129.25 L 405.726562 125.074219 L 400.234375 125.074219 L 400.234375 137.453125 L 405.992188 143.214844 Z M 800.699219 100.148438 L 800.699219 113.222656 L 790.632812 123.289062 L 777.613281 123.289062 L 771.527344 129.382812 L 771.527344 156.191406 L 759.679688 168.042969 L 751.558594 168.042969 L 751.558594 141.398438 L 763.109375 129.84375 L 763.109375 121.820312 L 754.710938 121.820312 L 746.839844 129.695312 L 721.414062 129.695312 L 711.941406 139.171875 L 719.5 146.730469 L 719.5 169.824219 L 707.570312 181.757812 L 697.734375 181.757812 L 691.101562 188.394531 L 698.113281 195.410156 L 691.332031 202.195312 L 678.214844 189.070312 L 669.867188 197.425781 L 683.992188 211.554688 L 683.992188 229.019531 L 677.359375 235.65625 L 669.207031 235.65625 L 659.074219 245.789062 L 647.078125 245.789062 L 647.078125 254.125 L 650.609375 257.660156 L 650.609375 269.015625 L 642.886719 269.015625 L 628.382812 254.503906 L 617.132812 254.503906 L 606.785156 244.15625 L 600.730469 244.15625 L 587.496094 257.394531 L 587.496094 270.632812 L 583.519531 274.609375 L 571.242188 262.328125 L 571.242188 245.144531 L 560.222656 234.121094 L 549.199219 234.121094 L 544.644531 229.5625 L 528.390625 229.5625 L 520.007812 221.175781 L 509.976562 221.175781 L 509.976562 228.257812 L 519.464844 237.75 L 534.875 237.75 L 534.875 250.691406 L 517.269531 268.304688 L 507.105469 268.304688 L 499.648438 260.84375 L 499.648438 247.835938 L 488.972656 237.15625 L 488.972656 225.683594 L 477.917969 225.683594 L 477.917969 238.476562 L 491.28125 251.847656 L 491.28125 272.085938 L 498.921875 272.085938 L 507.980469 281.148438 L 515.140625 281.148438 L 522.484375 273.800781 L 527.253906 273.800781 L 527.253906 285.917969 L 514.796875 298.382812 L 504.351562 298.382812 L 491.445312 311.289062 L 502.683594 322.53125 L 502.683594 341.578125 L 489.253906 355.015625 L 489.253906 372.21875 L 478.347656 383.128906 L 461.035156 383.128906 L 456.1875 387.980469 L 448.050781 387.980469 L 435.164062 375.089844 L 435.164062 338.328125 L 426.914062 330.074219 L 426.914062 291.746094 L 417.640625 282.46875 L 410.941406 282.46875 L 403.730469 289.683594 L 386.800781 289.683594 L 366.457031 269.328125 L 366.457031 243.445312 L 383.171875 226.722656 L 383.171875 214.328125 L 392.445312 205.050781 L 406.933594 205.050781 L 414.785156 197.191406 L 430.113281 197.191406 L 430.113281 211.851562 L 440.03125 221.773438 L 451.582031 221.773438 L 461.648438 211.703125 L 468.660156 211.703125 L 471.265625 214.3125 L 489.746094 214.3125 L 489.746094 204.605469 L 484.78125 199.636719 L 474.1875 199.636719 L 474.1875 190.375 L 481.398438 183.160156 L 489.847656 183.160156 L 493.640625 186.957031 L 504.828125 186.957031 L 508.757812 183.03125 L 508.757812 172.8125 L 504.417969 168.472656 L 491 168.472656 L 486.199219 173.273438 L 476.976562 173.273438 L 464.699219 185.554688 L 464.699219 195.0625 L 458.183594 195.0625 L 458.183594 184.085938 L 447.871094 173.769531 L 441.484375 173.769531 L 451.976562 184.269531 L 451.976562 193.808594 L 445.675781 200.113281 L 442.308594 200.113281 L 442.308594 189.367188 L 433.777344 180.835938 L 424.96875 180.835938 L 418.878906 186.925781 L 413.449219 186.925781 L 413.449219 191.019531 L 405.296875 199.175781 L 397.148438 199.175781 L 392.558594 194.585938 L 392.558594 179.480469 L 397.707031 174.332031 L 415.460938 174.332031 L 415.460938 166.175781 L 437.109375 144.519531 L 455.179688 144.519531 L 463.066406 136.628906 L 463.066406 118.355469 L 472.074219 109.34375 L 472.074219 104.886719 L 463.992188 104.886719 L 463.992188 108.46875 L 453.910156 118.554688 L 453.910156 136.167969 L 438.347656 136.332031 L 427.605469 125.585938 L 427.605469 110.761719 L 457.886719 80.472656 L 471.167969 80.472656 L 476.992188 86.296875 L 491.199219 86.296875 L 498.542969 93.644531 L 498.542969 99.371094 L 489.085938 99.371094 L 489.085938 103.285156 L 494.019531 108.21875 L 510.933594 108.21875 L 520.703125 98.449219 L 545.949219 98.449219 L 556.65625 87.734375 L 581.917969 87.734375 L 610.316406 59.328125 L 643.183594 59.328125 L 657.046875 73.191406 L 691.84375 73.191406 L 699.914062 81.265625 L 753.851562 81.265625 L 763.375 90.789062 L 791.34375 90.789062 L 800.683594 100.132812 L 800.699219 100.132812 Z M 533.722656 186.5625 L 526.429688 179.265625 L 526.429688 174.875 L 530.554688 170.75 L 530.554688 167.761719 L 525.570312 167.761719 L 521.03125 172.300781 L 516.542969 172.300781 L 516.542969 184.382812 L 520.867188 188.707031 L 520.867188 195.507812 L 529.414062 204.058594 L 533.722656 204.058594 Z M 658.167969 133.871094 C 658.167969 112.660156 640.90625 95.394531 619.703125 95.394531 C 598.503906 95.394531 581.242188 112.660156 581.242188 133.871094 C 581.242188 155.082031 617.113281 216.027344 618.632812 218.636719 C 618.847656 219.015625 619.257812 219.246094 619.703125 219.246094 C 620.152344 219.246094 620.546875 219.015625 620.777344 218.636719 C 622.296875 216.027344 658.167969 154.539062 658.167969 133.871094 Z M 655.691406 133.871094 C 655.691406 151.929688 625.777344 204.953125 619.703125 215.53125 C 613.632812 204.953125 583.71875 151.929688 583.71875 133.871094 C 583.71875 114.015625 599.855469 97.871094 619.703125 97.871094 C 639.554688 97.871094 655.691406 114.015625 655.691406 133.871094 Z M 641.269531 133.226562 C 641.269531 129.496094 640.332031 126 638.664062 122.945312 C 636.667969 119.28125 633.648438 116.242188 629.96875 114.246094 C 626.914062 112.578125 623.402344 111.636719 619.6875 111.636719 C 617.460938 111.636719 615.300781 111.984375 613.269531 112.609375 C 612.59375 112.824219 611.933594 113.058594 611.289062 113.335938 C 610.003906 113.882812 608.765625 114.558594 607.625 115.335938 C 607.050781 115.714844 606.503906 116.144531 605.960938 116.574219 C 604.886719 117.449219 603.914062 118.4375 603.039062 119.496094 C 602.164062 120.566406 601.371094 121.707031 600.714844 122.929688 C 599.046875 125.980469 598.105469 129.496094 598.105469 133.210938 C 598.105469 136.925781 599.046875 140.441406 600.714844 143.496094 C 601.371094 144.71875 602.148438 145.871094 603.039062 146.929688 C 603.914062 148.003906 604.902344 148.976562 605.960938 149.851562 C 606.488281 150.296875 607.050781 150.710938 607.625 151.089844 C 608.78125 151.863281 610.003906 152.523438 611.289062 153.085938 C 611.933594 153.367188 612.59375 153.597656 613.269531 153.8125 C 615.300781 154.441406 617.445312 154.785156 619.6875 154.785156 C 623.417969 154.785156 626.914062 153.84375 629.96875 152.179688 C 633.632812 150.179688 636.667969 147.160156 638.664062 143.480469 C 640.332031 140.425781 641.269531 136.910156 641.269531 133.195312 Z M 528.160156 334.582031 L 524.265625 334.582031 L 516.792969 342.058594 L 516.792969 349.222656 L 511.777344 354.242188 L 511.777344 371.144531 L 521 371.144531 L 528.160156 363.980469 Z M 621.933594 272.945312 L 621.933594 283.542969 L 632.953125 294.566406 L 632.953125 303.199219 L 641.289062 311.539062 L 641.289062 288.230469 L 633.433594 280.371094 L 629.292969 280.371094 L 629.292969 272.960938 L 621.933594 272.960938 Z M 672.175781 295.078125 C 672.539062 295.441406 672.175781 278.871094 672.175781 278.871094 L 666.847656 273.539062 L 666.847656 281.625 L 660.792969 287.683594 L 657.507812 284.398438 L 651.402344 284.398438 L 651.402344 298.148438 L 655.558594 302.308594 L 664.964844 302.308594 C 664.964844 302.308594 671.828125 294.734375 672.175781 295.097656 Z M 650.066406 278.902344 L 650.066406 274.695312 L 641.023438 274.695312 L 641.023438 279.644531 L 645.183594 283.804688 L 650.066406 278.917969 Z M 680.210938 278.753906 L 680.210938 281.707031 L 684.371094 285.867188 L 689.253906 280.984375 L 689.253906 276.773438 L 680.210938 276.773438 L 680.210938 278.769531 Z M 657.210938 322.960938 L 657.210938 326.972656 L 661.367188 331.132812 L 667.523438 331.132812 L 673.777344 324.875 L 658.347656 309.441406 L 651.054688 316.820312 L 657.210938 322.976562 Z M 673.445312 307.113281 L 673.445312 311.125 L 677.027344 311.125 L 681.78125 315.878906 L 686.398438 311.257812 L 686.398438 308.085938 L 679.4375 301.121094 Z M 719.1875 328.257812 L 733.492188 328.257812 L 737.566406 324.179688 L 737.566406 312.148438 L 730.40625 304.984375 L 718.097656 304.984375 L 707.898438 294.78125 L 696.050781 294.78125 L 696.050781 304.273438 L 702.140625 310.363281 L 713.957031 310.363281 L 713.957031 323.042969 L 719.1875 328.273438 Z M 685.410156 337.785156 L 685.410156 347.6875 L 679.898438 353.199219 L 663.628906 353.199219 L 658.332031 358.5 L 658.332031 375.203125 L 663.480469 380.355469 L 663.480469 399.453125 L 669.683594 399.453125 L 674.273438 394.863281 L 679.039062 394.863281 L 685.425781 388.476562 L 695.542969 388.476562 L 700.753906 393.691406 L 706.515625 387.933594 L 712.238281 387.933594 L 712.238281 404.785156 L 718.542969 411.089844 L 732.371094 411.089844 L 737.714844 405.742188 L 737.714844 393.90625 L 744.398438 387.222656 L 744.398438 368.125 L 734.761719 358.484375 L 734.761719 343.691406 L 728.378906 337.304688 L 724.269531 337.304688 L 724.269531 352.195312 L 717.964844 352.195312 L 707.191406 341.414062 L 707.191406 332.351562 L 700.308594 332.351562 L 694.78125 337.882812 Z M 685.410156 337.785156 "/></g><path style=" stroke:none;fill-rule:nonzero;fill:#ffdf58;fill-opacity:1;" d="M 212.671875 268.949219 C 216.566406 306.46875 211.945312 322.316406 195.015625 327.761719 C 194.820312 327.203125 194.273438 326.839844 193.679688 326.921875 C 185.480469 328.175781 177.808594 326.3125 173.152344 321.921875 C 170.28125 319.214844 168.945312 315.84375 169.292969 312.214844 C 169.292969 312.082031 169.292969 311.949219 169.257812 311.835938 C 173.269531 317.050781 179.160156 322.183594 184.058594 316.058594 C 191.207031 307.164062 187.722656 294.386719 186.601562 290.9375 L 190.265625 287.847656 C 196.832031 290.640625 201.039062 295.855469 203.035156 303.796875 C 203.183594 304.355469 203.679688 304.734375 204.242188 304.734375 C 204.339844 304.734375 204.4375 304.734375 204.539062 304.703125 C 205.199219 304.539062 205.609375 303.863281 205.429688 303.199219 C 203.367188 295.03125 198.976562 289.269531 192.375 286.066406 L 193.929688 284.761719 C 200.792969 286.199219 205.148438 289.21875 207.226562 293.972656 C 207.507812 294.601562 208.234375 294.882812 208.859375 294.601562 C 209.488281 294.320312 209.769531 293.59375 209.488281 292.964844 C 207.261719 287.882812 202.902344 284.546875 196.253906 282.78125 Z M 48.144531 327.730469 C 12.421875 315.003906 8.890625 201.714844 23.792969 182.964844 C 30.753906 169.890625 75.472656 152.03125 75.472656 152.03125 C 75.503906 152.0625 75.539062 152.078125 75.570312 152.113281 C 75.140625 152.574219 75.089844 153.285156 75.503906 153.761719 C 75.75 154.042969 76.097656 154.191406 76.445312 154.191406 C 76.726562 154.191406 77.023438 154.09375 77.253906 153.894531 C 77.253906 153.894531 77.320312 153.84375 77.367188 153.796875 C 96.046875 170.238281 131.523438 171.738281 141.507812 152.871094 C 141.65625 152.589844 141.820312 152.308594 141.953125 152.03125 C 141.953125 152.03125 182.742188 171.34375 195.511719 181.363281 C 206.816406 190.226562 208.878906 217.101562 209.207031 223.140625 L 197.855469 224.28125 C 195.394531 224.527344 193.070312 225.601562 191.289062 227.316406 L 188.53125 229.976562 C 188.054688 229.710938 187.460938 229.414062 186.882812 229.183594 C 192.359375 212.710938 191.320312 192.769531 191.269531 191.925781 C 191.238281 191.25 190.644531 190.722656 189.96875 190.753906 C 189.292969 190.789062 188.761719 191.382812 188.796875 192.058594 C 188.796875 192.257812 189.867188 212.363281 184.539062 228.390625 C 184.507812 228.492188 184.507812 228.589844 184.507812 228.6875 C 181.980469 228.640625 173.46875 228.457031 167.957031 229.941406 C 167.855469 229.628906 167.640625 229.347656 167.328125 229.183594 L 142.066406 216.671875 C 141.457031 216.375 140.714844 216.621094 140.417969 217.234375 C 140.121094 217.84375 140.367188 218.585938 140.976562 218.882812 L 165.332031 230.949219 C 159.625 234.546875 151.375 251.898438 146.109375 255.496094 C 141.324219 258.78125 122.792969 266.804688 118.027344 268.851562 C 117.894531 268.554688 117.664062 268.304688 117.347656 268.191406 C 117.167969 268.125 112.730469 266.40625 103.375 267.679688 C 97.300781 268.503906 83.128906 273.242188 73.855469 276.492188 C 72.566406 275.207031 71.050781 274.164062 69.367188 273.355469 C 70.816406 265.464844 66.03125 226.804688 57.949219 207.277344 C 57.683594 206.652344 56.957031 206.335938 56.332031 206.601562 C 55.703125 206.867188 55.40625 207.59375 55.652344 208.21875 C 64.332031 229.199219 67.832031 265.976562 67.054688 272.398438 C 55.917969 268.488281 40.09375 271.820312 39.269531 272.003906 C 38.609375 272.152344 38.179688 272.8125 38.328125 273.472656 C 38.476562 274.132812 39.136719 274.5625 39.796875 274.414062 C 39.996094 274.363281 56.792969 270.832031 67.238281 275.089844 C 67.269531 275.089844 67.304688 275.121094 67.335938 275.121094 C 68.773438 275.71875 70.09375 276.476562 71.230469 277.402344 C 67.882812 278.589844 65.585938 279.429688 65.273438 279.546875 C 64.628906 279.777344 64.300781 280.488281 64.546875 281.132812 C 64.730469 281.625 65.207031 281.941406 65.703125 281.941406 C 65.851562 281.941406 65.984375 281.941406 66.132812 281.859375 C 66.414062 281.757812 94.824219 271.292969 103.71875 270.089844 C 112.347656 268.914062 116.425781 270.433594 116.457031 270.453125 C 116.722656 270.566406 117.003906 270.550781 117.265625 270.453125 L 122.792969 288.742188 C 122.726562 291.035156 122.8125 292.769531 123.585938 294.269531 L 123.570312 294.269531 C 120.730469 299.453125 116.011719 304.222656 109.5625 308.46875 C 88.871094 321.9375 66.957031 328.621094 49.449219 326.804688 C 48.855469 326.738281 48.359375 327.121094 48.179688 327.648438 Z M 50.554688 192.621094 C 50.785156 193 51.199219 193.214844 51.613281 193.214844 C 51.824219 193.214844 52.039062 193.164062 52.238281 193.03125 C 52.832031 192.6875 53.015625 191.925781 52.667969 191.332031 C 44.796875 178.160156 31.167969 180.191406 31.035156 180.222656 C 30.359375 180.339844 29.898438 180.964844 30.011719 181.644531 C 30.113281 182.320312 30.753906 182.78125 31.429688 182.667969 C 31.925781 182.585938 43.558594 180.917969 50.539062 192.605469 L 50.554688 192.605469 Z M 199.339844 372.941406 C 199.882812 377.367188 196.734375 381.3125 192.441406 381.875 L 192.441406 381.792969 C 192.34375 381.113281 191.734375 380.636719 191.058594 380.734375 C 190.429688 380.816406 190 381.34375 190 381.957031 L 144.210938 381.957031 C 144.210938 381.28125 143.683594 380.734375 143.007812 380.71875 C 142.347656 380.75 141.753906 381.246094 141.738281 381.921875 L 141.738281 381.957031 L 49.945312 381.957031 C 49.730469 381.957031 49.515625 381.957031 49.300781 381.921875 C 49.300781 381.394531 48.9375 380.898438 48.394531 380.769531 C 47.832031 380.617188 47.289062 380.882812 47.023438 381.363281 C 43.957031 380.074219 41.941406 376.804688 42.46875 373.273438 L 49.101562 329.347656 C 49.101562 329.347656 49.136719 329.347656 49.152344 329.347656 C 51.117188 329.546875 53.128906 329.644531 55.191406 329.644531 C 72.007812 329.644531 91.824219 322.945312 110.601562 310.777344 L 164.6875 305.777344 C 164.855469 305.777344 165.003906 305.695312 165.152344 305.609375 C 165.8125 306.800781 167.03125 308.863281 168.597656 311.007812 C 168.46875 310.941406 168.300781 310.894531 168.136719 310.875 C 167.460938 310.8125 166.851562 311.304688 166.785156 312 C 166.371094 316.355469 168.023438 320.535156 171.421875 323.734375 C 175.578125 327.664062 181.800781 329.792969 188.695312 329.792969 C 190.429688 329.792969 192.195312 329.660156 193.992188 329.382812 L 199.324219 372.941406 Z M 170.214844 329.347656 C 169.886719 328.753906 169.128906 328.539062 168.535156 328.871094 C 132.398438 349.089844 94.429688 335.042969 94.050781 334.894531 C 93.40625 334.648438 92.699219 334.976562 92.449219 335.605469 C 92.203125 336.25 92.53125 336.957031 93.160156 337.207031 C 93.390625 337.289062 106.722656 342.238281 125.1875 342.238281 C 138.386719 342.238281 154.226562 339.699219 169.738281 331.015625 C 170.332031 330.683594 170.546875 329.925781 170.214844 329.332031 Z M 650.972656 471.042969 L 606.851562 471.042969 L 606.851562 564.984375 L 650.972656 564.984375 Z M 301.972656 567.460938 L 436.914062 567.460938 L 436.914062 666.289062 C 436.75 666.207031 436.582031 666.15625 436.386719 666.15625 C 435.707031 666.15625 435.148438 666.71875 435.148438 667.394531 L 435.148438 805.691406 L 237.109375 805.691406 L 237.109375 566.222656 L 300.734375 566.222656 C 300.734375 566.902344 301.296875 567.460938 301.972656 567.460938 Z M 278.9375 739.960938 C 278.9375 739.285156 278.378906 738.722656 277.699219 738.722656 L 262.191406 738.722656 C 261.511719 738.722656 260.953125 739.285156 260.953125 739.960938 L 260.953125 765.035156 C 260.953125 769.328125 264.335938 772.824219 268.574219 773.074219 L 268.574219 790.734375 C 268.574219 790.917969 268.625 791.097656 268.691406 791.246094 L 268.277344 791.246094 C 266.035156 791.246094 263.855469 791.695312 261.992188 792.519531 C 261.464844 792.75 261.167969 793.328125 261.28125 793.90625 C 261.398438 794.484375 261.910156 794.878906 262.488281 794.878906 L 277.386719 794.878906 C 277.964844 794.878906 278.476562 794.464844 278.589844 793.90625 C 278.707031 793.328125 278.410156 792.75 277.882812 792.519531 C 276 791.695312 273.824219 791.246094 271.59375 791.246094 L 270.917969 791.246094 C 270.984375 791.082031 271.035156 790.917969 271.035156 790.734375 L 271.035156 773.105469 C 275.390625 772.992188 278.921875 769.425781 278.921875 765.035156 L 278.921875 739.960938 Z M 605.628906 567.460938 L 584.707031 567.460938 L 584.707031 623.488281 L 552.167969 623.488281 L 552.167969 567.460938 L 540.765625 567.460938 L 540.765625 805.691406 L 670.492188 805.691406 L 670.492188 567.460938 Z M 415.992188 465.710938 L 383.453125 465.710938 L 383.453125 409.6875 L 301.972656 409.6875 L 301.972656 564.984375 L 501.777344 564.984375 L 501.777344 409.6875 L 415.992188 409.6875 Z M 415.992188 465.710938 "/><path style=" stroke:none;fill-rule:nonzero;fill:#000000;fill-opacity:1;" d="M 192.425781 381.792969 C 192.328125 381.113281 191.714844 380.636719 191.039062 380.734375 C 190.414062 380.816406 189.984375 381.34375 189.984375 381.957031 C 189.984375 382.003906 189.96875 382.070312 189.984375 382.121094 C 190.183594 383.589844 209.488281 528.851562 200.925781 568.054688 C 198.546875 583.953125 156.058594 626.011719 146.441406 635.355469 L 142.3125 581.972656 L 157.5625 583.65625 L 157.691406 583.65625 C 158.320312 583.65625 158.847656 583.191406 158.914062 582.550781 C 158.996094 581.871094 158.5 581.261719 157.824219 581.179688 L 145.566406 579.824219 L 158.238281 570.929688 C 158.796875 570.53125 158.929688 569.757812 158.535156 569.210938 C 158.136719 568.652344 157.363281 568.519531 156.816406 568.914062 L 142.101562 579.265625 L 131.160156 437.882812 C 138.238281 434.710938 144.90625 433.6875 151.472656 434.828125 C 152.148438 434.945312 152.792969 434.496094 152.90625 433.820312 C 153.023438 433.144531 152.578125 432.5 151.902344 432.386719 C 145.136719 431.230469 138.335938 432.152344 131.144531 435.191406 L 131.292969 427.433594 C 142.101562 424.988281 143.304688 421.703125 143.46875 414.476562 L 144.210938 381.988281 L 144.210938 381.957031 C 144.210938 381.28125 143.683594 380.734375 143.007812 380.71875 C 142.347656 380.75 141.753906 381.246094 141.738281 381.921875 L 141.738281 381.957031 L 140.996094 414.410156 C 140.863281 420.417969 140.316406 422.777344 131.339844 424.875 L 131.871094 398.726562 C 131.871094 398.050781 131.339844 397.472656 130.664062 397.457031 C 130.003906 397.457031 129.410156 397.984375 129.394531 398.660156 L 128.683594 434.167969 C 122.875 428.738281 115.351562 425.121094 106.226562 423.472656 C 105.566406 423.355469 104.90625 423.800781 104.792969 424.460938 C 104.675781 425.136719 105.121094 425.78125 105.78125 425.898438 C 115.335938 427.632812 123.023438 431.59375 128.652344 437.617188 L 144.097656 637.304688 C 144.097656 637.417969 144.144531 637.535156 144.195312 637.632812 C 144.128906 637.796875 144.097656 637.996094 144.097656 638.179688 L 149.542969 717.941406 L 109.050781 723.800781 L 100.78125 684.859375 L 91.113281 637.054688 L 48.179688 449.335938 C 43.148438 427.316406 43.527344 404.125 49.300781 382.269531 C 49.335938 382.152344 49.316406 382.039062 49.316406 381.921875 C 49.316406 381.394531 48.953125 380.898438 48.410156 380.769531 C 47.847656 380.617188 47.304688 380.882812 47.039062 381.363281 C 46.992188 381.445312 46.925781 381.542969 46.910156 381.640625 C 41.035156 403.878906 40.640625 427.484375 45.769531 449.882812 L 88.554688 636.957031 L 67.730469 658.925781 C 67.582031 659.074219 67.5 659.257812 67.453125 659.4375 C 64.859375 659.160156 46.59375 657.507812 40.886719 664.09375 C 37.171875 668.386719 37.238281 675.863281 37.320312 685.339844 C 37.371094 691.164062 37.4375 697.769531 36.53125 704.371094 C 35.441406 712.261719 34.1875 716.554688 33.179688 720.003906 C 32.042969 723.882812 31.152344 726.953125 31.152344 732.910156 C 31.152344 743.90625 38.113281 763.402344 46.363281 765.792969 C 48.542969 766.421875 51.082031 766.703125 53.65625 766.703125 C 60.175781 766.703125 66.890625 764.9375 68.441406 762.691406 C 70.242188 760.097656 70.007812 744.351562 69.878906 739.101562 L 84.496094 706.796875 C 85.023438 705.640625 85.023438 704.320312 84.496094 703.167969 C 84.101562 702.273438 83.441406 701.53125 82.597656 701.054688 L 91.410156 691.050781 L 92.21875 692.089844 C 92.433594 692.371094 92.761719 692.535156 93.109375 692.570312 C 93.472656 692.585938 93.804688 692.46875 94.050781 692.222656 L 98.835938 687.582031 L 106.886719 725.46875 C 107.003906 726.046875 107.515625 726.441406 108.09375 726.441406 L 108.273438 726.441406 L 120.203125 724.707031 L 125.121094 743.824219 C 125.21875 744.234375 125.535156 744.53125 125.894531 744.679688 C 125.335938 745.128906 124.789062 745.605469 124.261719 746.167969 C 124.097656 746.332031 124 746.546875 123.949219 746.777344 C 123.917969 746.925781 120.980469 762.0625 115.121094 769.855469 C 113.851562 771.554688 112.070312 773.320312 110.171875 775.203125 C 103.140625 782.1875 94.414062 790.867188 103.226562 804.273438 C 106.03125 808.960938 115.007812 809.835938 120.105469 809.949219 L 121.410156 809.949219 C 132.695312 809.949219 146.273438 806.929688 149.359375 802.226562 C 154.179688 796.214844 153.980469 787.566406 153.816406 785.074219 C 156.984375 782.449219 164.9375 775.535156 165.234375 772.132812 C 165.828125 764.375 158.699219 746.578125 158.402344 745.820312 C 158.203125 745.34375 157.710938 745.042969 157.230469 745.042969 L 155.433594 745.042969 C 155.597656 744.765625 155.664062 744.417969 155.5625 744.070312 L 149.078125 720.5 L 151.027344 720.21875 C 151.671875 720.117188 152.132812 719.558594 152.082031 718.914062 L 146.605469 638.589844 C 152.050781 633.375 200.660156 586.394531 203.332031 568.46875 C 211.960938 529.066406 193.367188 388.773438 192.425781 381.855469 L 192.425781 381.773438 Z M 80.421875 699.765625 C 80.339844 699.863281 80.289062 699.980469 80.238281 700.097656 C 72.929688 696.730469 72.832031 688.144531 74.597656 669.492188 L 89.859375 689.085938 L 80.4375 699.78125 Z M 93.308594 689.480469 L 70.222656 659.851562 L 89.148438 639.894531 L 98.226562 684.710938 C 98.226562 684.710938 93.308594 689.480469 93.308594 689.480469 Z M 153.171875 744.765625 C 153.171875 744.765625 153.222656 744.878906 153.253906 744.945312 C 149.855469 744.648438 146.671875 743.957031 143.765625 743.328125 C 137.695312 742.007812 132.296875 740.851562 127.511719 743.558594 C 127.511719 743.445312 127.511719 743.328125 127.496094 743.210938 L 122.644531 724.363281 L 146.605469 720.894531 L 153.171875 744.78125 Z M 265.308594 224.59375 L 226.761719 257.082031 L 213.628906 268.15625 L 212.671875 268.964844 L 196.253906 282.796875 C 202.902344 284.566406 207.242188 287.898438 209.488281 292.984375 C 209.769531 293.609375 209.488281 294.335938 208.859375 294.617188 C 208.234375 294.898438 207.507812 294.617188 207.226562 293.992188 C 205.148438 289.234375 200.792969 286.230469 193.929688 284.78125 L 192.375 286.082031 C 198.976562 289.285156 203.367188 295.046875 205.429688 303.21875 C 205.59375 303.878906 205.199219 304.554688 204.539062 304.71875 C 204.4375 304.753906 204.339844 304.753906 204.242188 304.753906 C 203.679688 304.753906 203.183594 304.375 203.035156 303.8125 C 201.023438 295.855469 196.832031 290.65625 190.265625 287.867188 L 186.601562 290.953125 L 186.550781 290.984375 C 186.320312 291.183594 186.039062 291.28125 185.761719 291.28125 C 185.527344 291.28125 185.316406 291.21875 185.117188 291.101562 C 179.40625 287.585938 179.175781 286.726562 179.0625 286.316406 C 178.847656 285.503906 179.324219 284.695312 180.628906 282.550781 C 181.914062 280.421875 183.863281 277.21875 183.945312 275.402344 C 184.09375 271.9375 180.660156 260.132812 179.425781 258.996094 C 179.359375 258.996094 178.679688 258.945312 177.675781 259.40625 C 176.253906 260.066406 174.574219 261.621094 174.0625 263.964844 C 173.121094 268.320312 172.890625 270.285156 172.890625 270.300781 C 172.855469 270.550781 172.757812 270.796875 172.59375 270.980469 C 171.980469 271.671875 170.414062 273.371094 168.765625 274.527344 C 170.578125 275.765625 172.972656 277.878906 173.382812 280.585938 C 173.484375 281.261719 173.023438 281.890625 172.34375 282.007812 L 172.148438 282.007812 C 171.554688 282.007812 171.023438 281.558594 170.925781 280.949219 C 170.53125 278.390625 166.933594 276.144531 165.578125 275.503906 L 165.546875 275.503906 C 164.886719 275.15625 164.195312 274.90625 163.386719 274.628906 C 162 274.132812 160.265625 273.523438 158.054688 272.152344 C 155.019531 270.335938 152.90625 265.84375 152.808594 265.648438 C 152.742188 265.515625 152.710938 265.382812 152.710938 265.25 C 152.609375 264.128906 152.132812 263.929688 151.949219 263.863281 C 151.058594 263.519531 149.394531 264.046875 148.269531 265.019531 C 145.613281 268.46875 147.5625 274.925781 148.402344 277.699219 C 148.996094 279.695312 154.707031 283.640625 158.566406 285.800781 C 159.160156 286.132812 159.375 286.890625 159.046875 287.488281 C 158.816406 287.882812 158.402344 288.113281 157.972656 288.113281 C 157.773438 288.113281 157.5625 288.0625 157.363281 287.949219 C 155.664062 286.992188 147.148438 282.054688 146.042969 278.390625 C 145.269531 275.832031 143.652344 270.484375 144.953125 266.191406 C 143.140625 265.878906 141.191406 265.863281 140.664062 266.375 C 139.328125 267.695312 137.726562 269.429688 137.265625 271.195312 C 137.214844 271.359375 137.199219 271.589844 137.167969 271.835938 L 137.167969 271.886719 C 136.917969 274.628906 137.511719 282.238281 138.816406 284.25 C 139.921875 285.96875 145.597656 289.21875 148.914062 290.871094 C 149.523438 291.167969 149.773438 291.910156 149.476562 292.539062 C 149.261719 292.964844 148.816406 293.230469 148.371094 293.230469 C 148.1875 293.230469 147.992188 293.199219 147.824219 293.097656 C 146.886719 292.636719 138.585938 288.445312 136.753906 285.605469 C 135.300781 283.34375 134.675781 277.464844 134.675781 273.636719 C 133.15625 274.347656 131.507812 275.402344 130.980469 276.460938 C 129.957031 278.574219 131.621094 287.71875 133.386719 289.683594 C 135.269531 291.746094 139.609375 293.394531 139.65625 293.414062 C 140.300781 293.660156 140.613281 294.371094 140.382812 295.011719 C 140.203125 295.507812 139.722656 295.824219 139.230469 295.824219 C 139.082031 295.824219 138.933594 295.789062 138.800781 295.738281 C 138.601562 295.65625 133.851562 293.859375 131.574219 291.347656 C 129.9375 289.550781 128.585938 284.332031 128.304688 280.191406 C 125.796875 281.957031 125.351562 286.695312 125.269531 288.890625 C 125.136719 293.097656 125.089844 294.535156 132.363281 297.472656 C 136.308594 298.941406 145.285156 301.816406 163.632812 301.78125 C 166.371094 301.515625 167.726562 300.625 168.152344 298.84375 C 168.320312 298.183594 168.980469 297.769531 169.65625 297.933594 C 170.316406 298.101562 170.726562 298.777344 170.5625 299.4375 C 169.820312 302.441406 167.511719 303.515625 165.695312 303.945312 C 165.894531 304.308594 165.910156 304.734375 165.730469 305.097656 C 165.613281 305.332031 165.414062 305.496094 165.199219 305.609375 C 165.050781 305.695312 164.902344 305.757812 164.738281 305.777344 L 110.648438 310.777344 C 91.871094 322.945312 72.054688 329.644531 55.242188 329.644531 C 53.179688 329.644531 51.164062 329.546875 49.203125 329.347656 C 49.1875 329.347656 49.167969 329.347656 49.152344 329.347656 C 48.507812 329.25 48.03125 328.671875 48.113281 328.011719 C 48.113281 327.914062 48.164062 327.828125 48.195312 327.746094 C 48.378906 327.21875 48.890625 326.839844 49.464844 326.90625 C 66.972656 328.722656 88.886719 322.035156 109.578125 308.566406 C 116.027344 304.339844 120.75 299.570312 123.585938 294.386719 L 123.601562 294.386719 C 122.828125 292.867188 122.746094 291.132812 122.8125 288.839844 C 123.007812 282.667969 124.957031 278.703125 128.304688 277.464844 C 128.371094 276.625 128.519531 275.914062 128.765625 275.402344 C 129.921875 273.042969 133.304688 271.492188 134.855469 270.878906 C 134.871094 270.78125 134.890625 270.664062 134.90625 270.582031 C 135.515625 268.222656 137.398438 266.160156 138.964844 264.625 C 140.648438 262.957031 144.441406 263.550781 146.09375 263.898438 C 146.207031 263.734375 146.308594 263.550781 146.441406 263.386719 C 146.472656 263.335938 146.523438 263.289062 146.570312 263.238281 C 148.15625 261.785156 150.84375 260.746094 152.890625 261.539062 C 153.351562 261.71875 154.011719 262.097656 154.523438 262.859375 L 174.390625 243.675781 C 171.355469 242.949219 168.417969 243.148438 168.367188 243.148438 C 167.675781 243.199219 167.097656 242.6875 167.03125 242.007812 C 166.984375 241.332031 167.492188 240.738281 168.171875 240.671875 C 168.402344 240.671875 172.527344 240.359375 176.4375 241.695312 L 181.503906 236.808594 C 175.808594 235.984375 168.796875 237.058594 168.714844 237.074219 C 168.054688 237.191406 167.410156 236.710938 167.296875 236.050781 C 167.179688 235.390625 167.660156 234.746094 168.320312 234.632812 C 168.699219 234.566406 177.328125 233.246094 183.664062 234.714844 L 188.546875 229.992188 L 191.304688 227.335938 C 193.085938 225.617188 195.414062 224.546875 197.871094 224.296875 L 209.222656 223.160156 L 234.632812 220.617188 L 262.453125 217.828125 C 264.003906 217.660156 265.472656 218.519531 266.101562 219.957031 L 266.296875 220.417969 C 266.925781 221.855469 266.53125 223.570312 265.324219 224.59375 Z M 31.449219 182.683594 C 30.789062 182.78125 30.144531 182.335938 30.027344 181.660156 C 29.929688 180.984375 30.375 180.355469 31.050781 180.242188 C 31.183594 180.207031 44.796875 178.175781 52.683594 191.347656 C 53.03125 191.945312 52.847656 192.703125 52.253906 193.050781 C 52.058594 193.164062 51.84375 193.230469 51.628906 193.230469 C 51.214844 193.230469 50.804688 193.015625 50.570312 192.636719 C 43.574219 180.933594 31.960938 182.617188 31.464844 182.699219 L 31.449219 182.699219 Z M 169.277344 312.214844 C 168.929688 315.863281 170.265625 319.214844 173.136719 321.921875 C 177.789062 326.3125 185.464844 328.175781 193.664062 326.921875 C 194.257812 326.824219 194.820312 327.203125 195 327.761719 C 195.015625 327.828125 195.066406 327.894531 195.066406 327.960938 C 195.164062 328.636719 194.703125 329.265625 194.027344 329.363281 L 193.992188 329.363281 C 192.195312 329.644531 190.429688 329.777344 188.695312 329.777344 C 181.800781 329.777344 175.578125 327.648438 171.421875 323.71875 C 168.023438 320.515625 166.371094 316.339844 166.785156 311.984375 C 166.851562 311.304688 167.460938 310.792969 168.136719 310.859375 C 168.300781 310.859375 168.449219 310.925781 168.597656 310.992188 C 168.914062 311.15625 169.144531 311.472656 169.226562 311.816406 C 169.257812 311.933594 169.277344 312.066406 169.257812 312.199219 L 169.277344 312.199219 Z M 188.8125 192.058594 C 188.78125 191.382812 189.292969 190.789062 189.984375 190.753906 C 190.660156 190.722656 191.253906 191.234375 191.289062 191.925781 C 191.335938 192.769531 192.394531 212.710938 186.898438 229.183594 C 186.71875 229.695312 186.238281 230.007812 185.726562 230.007812 C 185.59375 230.007812 185.464844 230.007812 185.332031 229.941406 C 184.785156 229.761719 184.472656 229.234375 184.507812 228.671875 C 184.507812 228.574219 184.507812 228.472656 184.539062 228.375 C 189.867188 212.347656 188.8125 192.242188 188.796875 192.042969 L 188.8125 192.042969 Z M 65.242188 279.597656 C 65.554688 279.480469 67.863281 278.636719 71.199219 277.449219 C 70.058594 276.527344 68.753906 275.765625 67.304688 275.171875 C 67.269531 275.171875 67.238281 275.171875 67.203125 275.140625 C 56.777344 270.863281 39.980469 274.414062 39.765625 274.460938 C 39.085938 274.609375 38.445312 274.183594 38.296875 273.519531 C 38.148438 272.859375 38.574219 272.199219 39.234375 272.050781 C 40.078125 271.871094 55.902344 268.535156 67.023438 272.449219 C 67.816406 266.027344 64.300781 229.25 55.621094 208.269531 C 55.355469 207.640625 55.652344 206.914062 56.296875 206.652344 C 56.925781 206.386719 57.652344 206.683594 57.914062 207.328125 C 66 226.871094 70.785156 265.515625 69.332031 273.40625 C 71.015625 274.214844 72.550781 275.253906 73.820312 276.542969 C 83.078125 273.289062 97.269531 268.554688 103.339844 267.726562 C 112.695312 266.457031 117.132812 268.171875 117.316406 268.238281 C 117.628906 268.371094 117.878906 268.617188 117.992188 268.898438 C 118.125 269.195312 118.125 269.527344 117.992188 269.839844 C 117.84375 270.203125 117.546875 270.449219 117.199219 270.550781 C 116.9375 270.632812 116.65625 270.648438 116.390625 270.550781 C 116.359375 270.550781 112.285156 269.03125 103.652344 270.1875 C 94.742188 271.390625 66.347656 281.859375 66.066406 281.957031 C 65.917969 282.007812 65.785156 282.039062 65.636719 282.039062 C 65.125 282.039062 64.664062 281.726562 64.480469 281.230469 C 64.25 280.585938 64.582031 279.875 65.207031 279.644531 Z M 140.398438 217.234375 C 140.699219 216.621094 141.457031 216.375 142.050781 216.671875 L 167.3125 229.183594 C 167.625 229.347656 167.839844 229.628906 167.941406 229.941406 C 168.023438 230.222656 168.023438 230.554688 167.875 230.835938 C 167.660156 231.261719 167.214844 231.527344 166.769531 231.527344 C 166.585938 231.527344 166.386719 231.496094 166.222656 231.394531 L 165.332031 230.949219 L 140.976562 218.882812 C 140.367188 218.585938 140.121094 217.84375 140.417969 217.234375 Z M 168.535156 328.886719 C 169.128906 328.554688 169.886719 328.769531 170.214844 329.363281 C 170.546875 329.960938 170.332031 330.71875 169.738281 331.046875 C 154.226562 339.730469 138.402344 342.273438 125.1875 342.273438 C 106.722656 342.273438 93.390625 337.320312 93.160156 337.238281 C 92.515625 336.992188 92.203125 336.28125 92.449219 335.636719 C 92.699219 334.992188 93.40625 334.679688 94.050781 334.925781 C 94.429688 335.078125 132.398438 349.125 168.535156 328.902344 Z M 42.402344 74.628906 C 43.476562 73.160156 44.105469 71.65625 44.335938 69.875 C 44.433594 69.113281 44.828125 68.324219 45.292969 67.710938 C 46.613281 65.980469 47.785156 64.9375 45.226562 62.609375 C 43.210938 60.796875 44.5 57.261719 46.183594 54.917969 C 47.1875 53.53125 47.550781 52.558594 46.214844 51.253906 C 45.324219 50.378906 45.359375 49.09375 45.953125 48.132812 C 47.421875 45.742188 48.574219 43.015625 51.398438 41.746094 C 53.210938 40.9375 54.152344 40.011719 52.867188 37.769531 C 51.378906 35.210938 54.203125 30.339844 57.816406 29.5625 C 60.523438 28.96875 62.238281 27.765625 63.246094 25.304688 C 63.441406 24.808594 63.804688 24.316406 64.203125 23.953125 C 65.851562 22.433594 67.203125 21.097656 66.148438 18.355469 C 65.390625 16.390625 66.925781 14.507812 68.953125 14.492188 C 71.757812 14.492188 73.722656 13.238281 76.015625 11.933594 C 79.644531 9.855469 83.804688 9.691406 87.730469 11.523438 C 89.613281 12.398438 91.148438 13.207031 91.542969 10.183594 C 91.542969 10.117188 91.59375 10.003906 91.640625 9.96875 C 93.867188 8.796875 94.230469 7 93.785156 4.65625 C 93.589844 3.632812 94.675781 2.988281 95.683594 2.839844 C 98.40625 2.441406 101.128906 2.378906 103.421875 4.210938 C 104.332031 4.9375 104.941406 4.96875 106.128906 4.574219 C 108.058594 3.929688 109.742188 3.316406 111.328125 1.800781 C 113.222656 -0.015625 117.515625 1.335938 119.199219 3.914062 C 119.726562 4.738281 119.957031 5.296875 121.144531 4.636719 C 124.558594 2.722656 126.96875 3.761719 128.191406 7.625 C 128.601562 8.929688 128.800781 9.789062 130.53125 9.195312 C 132.019531 8.683594 133.355469 9.507812 134.246094 10.746094 C 135.152344 11.984375 135.847656 12.117188 137.101562 11.078125 C 139.742188 8.878906 141.027344 9.078125 143.417969 11.472656 C 144.9375 12.972656 147.363281 13.402344 148.1875 15.832031 C 148.402344 16.457031 149.460938 15.699219 150.101562 15.46875 C 154.34375 13.980469 157.378906 16.175781 157.214844 20.699219 C 157.148438 22.269531 157.710938 23.027344 159.308594 23.242188 C 161.75 23.589844 164.472656 23.242188 166.042969 25.964844 C 166.4375 26.660156 167.34375 26.3125 168.039062 26.195312 C 169.621094 25.949219 171.191406 25.898438 172.726562 26.511719 C 175.859375 27.765625 176.636719 29.136719 175.746094 32.417969 C 175.429688 33.542969 175.644531 34.003906 176.71875 34.351562 C 179.144531 35.144531 180.777344 36.480469 180.183594 39.433594 C 179.96875 40.457031 180.910156 40.65625 181.699219 40.886719 C 184.933594 41.863281 185.429688 42.554688 185.101562 45.808594 C 185.015625 46.699219 184.984375 47.523438 185.316406 48.382812 C 186.074219 50.347656 185.5625 51.800781 183.367188 52.542969 C 183.5 52.855469 183.5 52.953125 183.550781 53.003906 C 184.191406 53.546875 184.738281 54.011719 185.199219 54.441406 C 188.101562 57.113281 187.773438 58.203125 184.886719 62.445312 C 184.835938 62.511719 184.738281 62.578125 184.738281 62.628906 C 184.851562 63.570312 184.804688 64.527344 184.738281 65.5 C 184.621094 67.28125 184.457031 69.066406 185.28125 70.617188 C 186.023438 72.035156 186.585938 73.242188 186.335938 74.511719 C 186.222656 75.074219 185.972656 75.636719 185.496094 76.246094 C 185.117188 76.707031 184.851562 77.386719 184.804688 77.980469 C 184.605469 80.457031 183.070312 81.84375 180.957031 82.667969 C 179.820312 83.097656 179.65625 83.691406 179.769531 84.828125 C 179.851562 85.507812 179.835938 86.117188 179.804688 86.695312 C 179.589844 89.632812 177.839844 91.136719 174.308594 91.433594 C 173.070312 91.53125 172.214844 91.945312 171.71875 93.117188 C 171.585938 93.414062 171.519531 93.695312 171.503906 93.972656 C 171.4375 94.699219 171.71875 95.34375 172.296875 95.957031 C 173.070312 96.78125 173.597656 97.753906 173.878906 98.84375 C 174.835938 102.589844 172.246094 105.382812 168.484375 104.671875 C 167.855469 104.554688 167.246094 104.359375 166.621094 104.242188 C 165.429688 104.027344 165.085938 104.539062 165.695312 105.546875 C 166.191406 106.355469 166.851562 107.066406 167.394531 107.839844 C 169.242188 110.433594 168.367188 112.875 165.332031 113.667969 C 164.640625 113.847656 160.414062 116.789062 159.722656 116.753906 C 157.179688 116.640625 155.183594 114.3125 153.847656 117.332031 C 153.105469 118.984375 154.0625 124.511719 145.5 125.238281 C 144.0625 124.628906 147.199219 119.792969 148.140625 118.964844 C 147.414062 118.355469 146.125 115.945312 146.125 115.945312 C 146.125 115.945312 147.90625 106.75 147.875 103.761719 C 147.84375 101.105469 146.851562 98.265625 147.957031 95.839844 C 148.503906 94.636719 148.289062 93.726562 147.199219 92.96875 C 144.921875 91.351562 144.328125 89.089844 144.855469 86.449219 C 145.070312 85.359375 145.515625 84.101562 144.855469 83.195312 C 143.304688 81.066406 142.695312 78.640625 141.96875 76.195312 C 141.703125 75.304688 141.125 74.132812 140.101562 74.347656 C 139.046875 74.5625 139.558594 75.832031 139.507812 76.640625 C 139.195312 80.800781 140.664062 85.339844 136.421875 88.90625 C 135.863281 89.335938 133.191406 89.550781 132.480469 88.445312 C 131.472656 86.894531 131.390625 85.160156 131.191406 83.425781 C 131.109375 82.699219 131.191406 81.675781 130.203125 81.460938 C 129.363281 81.28125 128.71875 81.925781 128.15625 82.484375 C 127.035156 83.609375 125.945312 84.761719 124.789062 85.851562 C 123.535156 87.042969 122.085938 87.472656 120.402344 86.859375 C 118.703125 86.25 118.273438 84.761719 118.191406 83.226562 C 118.125 82.054688 118.4375 80.867188 118.503906 79.679688 C 118.539062 79.035156 119.097656 78.09375 118.042969 77.878906 C 117.152344 77.699219 116.34375 78.195312 115.945312 79.117188 C 115.5 80.175781 115.667969 81.3125 115.601562 82.417969 C 115.453125 85.242188 114.414062 87.535156 111.753906 88.792969 C 109.777344 89.730469 107.777344 89.914062 105.996094 88.246094 C 104.230469 86.578125 103.867188 84.613281 104.742188 82.371094 C 105.089844 81.480469 105.453125 80.605469 105.75 79.695312 C 106.179688 78.441406 106.179688 77.136719 105.566406 75.980469 C 104.511719 74 103.71875 71.953125 103.339844 69.726562 C 103.242188 69.148438 103.160156 68.289062 102.285156 68.421875 C 101.359375 68.554688 101.394531 69.410156 101.425781 70.121094 C 101.460938 70.601562 101.609375 71.0625 101.65625 71.523438 C 101.972656 74.925781 103.40625 78.144531 103.257812 81.628906 C 103.09375 85.273438 99.824219 87.074219 96.757812 85.160156 C 95.980469 84.664062 95.289062 84.101562 94.480469 85.027344 C 93.292969 86.398438 91.871094 86.398438 90.371094 85.703125 C 88.441406 84.828125 86.855469 86.28125 85.222656 86.726562 C 84.199219 87.007812 85.273438 89.121094 85.488281 90.410156 C 85.601562 91.101562 85.898438 91.777344 86.128906 92.457031 C 86.445312 93.414062 86.492188 94.320312 85.832031 95.179688 C 84.746094 96.582031 84.761719 98.265625 85.222656 99.753906 C 86.871094 105 84.464844 109.707031 87.699219 112.082031 C 90.933594 114.460938 83.65625 116.605469 86.640625 119.296875 C 87.796875 120.335938 87.699219 121.605469 87.085938 122.746094 C 87.121094 123.207031 87.171875 123.886719 87.234375 124.710938 C 89.808594 133.226562 99.296875 142.390625 107.464844 145.722656 C 113.421875 148.167969 120.054688 148.25 125.648438 145.988281 C 126.277344 145.722656 127.003906 146.039062 127.265625 146.664062 C 127.53125 147.292969 127.214844 148.019531 126.589844 148.28125 C 123.601562 149.503906 120.351562 150.097656 117.050781 150.097656 C 113.519531 150.097656 109.925781 149.40625 106.542969 148.019531 C 99.660156 145.210938 91.953125 138.640625 87.597656 131.394531 C 87.765625 136.859375 87.597656 143.035156 86.296875 144.898438 C 84.234375 147.804688 78.308594 152.953125 77.367188 153.761719 C 77.300781 153.8125 77.269531 153.84375 77.253906 153.863281 C 77.023438 154.058594 76.742188 154.160156 76.445312 154.160156 C 76.097656 154.160156 75.75 154.011719 75.503906 153.730469 C 75.089844 153.234375 75.125 152.523438 75.570312 152.078125 C 75.601562 152.046875 75.621094 152.011719 75.636719 151.980469 C 75.703125 151.929688 82.253906 146.300781 84.265625 143.460938 C 85.421875 141.828125 85.289062 132.46875 84.792969 125.15625 C 84.726562 125.207031 84.660156 125.253906 84.578125 125.289062 C 83.9375 125.667969 83.34375 125.847656 82.996094 125.699219 C 81.675781 125.15625 79.347656 123.851562 78.804688 123.671875 C 75.917969 122.777344 77.914062 121.691406 77.535156 118.949219 C 77.320312 117.363281 76.773438 116.835938 75.222656 117.449219 C 74.382812 117.777344 73.492188 117.578125 72.699219 117.132812 C 72.054688 116.769531 71.460938 116.605469 70.667969 116.753906 C 67.929688 117.300781 66.3125 116.242188 65.734375 113.484375 C 65.324219 111.4375 65.371094 109.359375 65.667969 107.3125 C 65.867188 105.957031 65.769531 105.25 64.152344 105.792969 C 62.15625 106.46875 60.851562 105.445312 59.976562 103.929688 C 59.945312 103.863281 59.894531 103.8125 59.863281 103.746094 C 59.101562 102.359375 58.097656 101.863281 56.578125 101.929688 C 54.863281 101.996094 53.164062 101.816406 52.371094 99.933594 C 51.761719 98.480469 52.75 94.46875 53.886719 93.496094 C 54.136719 93.296875 54.433594 93.148438 54.664062 92.933594 C 55.109375 92.523438 55.902344 92.125 55.375 91.414062 C 54.894531 90.753906 54.234375 91.285156 53.675781 91.566406 C 49.382812 93.644531 47.402344 92.820312 47.4375 87.984375 C 47.4375 84.152344 46.148438 81.875 43.113281 79.945312 C 41.398438 78.835938 41.132812 76.328125 42.402344 74.578125 Z M 102.085938 104.917969 C 99.726562 104.851562 97.316406 104.621094 94.777344 104.160156 C 94.101562 104.042969 93.65625 103.398438 93.769531 102.722656 C 93.886719 102.046875 94.546875 101.617188 95.207031 101.714844 C 98.292969 102.277344 101.195312 102.460938 104 102.375 C 104.230469 102.3125 104.460938 102.261719 104.710938 102.261719 C 104.875 102.261719 105.039062 102.261719 105.203125 102.3125 C 106.804688 102.210938 108.390625 102.03125 109.941406 101.714844 C 110.601562 101.585938 111.261719 102.011719 111.410156 102.671875 C 111.542969 103.351562 111.113281 103.996094 110.453125 104.144531 C 109.429688 104.359375 108.390625 104.507812 107.332031 104.636719 C 107.332031 104.71875 107.367188 104.820312 107.367188 104.902344 C 107.367188 106.355469 106.179688 107.542969 104.726562 107.542969 C 103.273438 107.542969 102.085938 106.355469 102.085938 104.902344 Z M 106.691406 129.382812 C 106.160156 128.953125 106.0625 128.175781 106.492188 127.648438 C 106.921875 127.121094 107.695312 127.023438 108.222656 127.449219 C 108.585938 127.730469 116.902344 134.070312 128.207031 128.046875 C 128.800781 127.730469 129.558594 127.945312 129.875 128.558594 C 130.1875 129.167969 129.972656 129.910156 129.363281 130.222656 C 125.335938 132.371094 121.621094 133.113281 118.4375 133.113281 C 111.492188 133.113281 106.953125 129.613281 106.671875 129.382812 Z M 92.730469 94.996094 C 92.054688 95.0625 91.445312 94.570312 91.378906 93.875 C 91.3125 93.183594 91.804688 92.589844 92.484375 92.523438 C 92.910156 92.488281 103.175781 91.566406 110.832031 96.1875 C 111.410156 96.53125 111.605469 97.292969 111.242188 97.886719 C 111.011719 98.265625 110.601562 98.480469 110.1875 98.480469 C 109.972656 98.480469 109.742188 98.429688 109.542969 98.300781 C 102.597656 94.105469 92.796875 94.980469 92.699219 94.980469 L 92.730469 94.980469 Z M 125.863281 97.886719 C 125.515625 97.308594 125.699219 96.53125 126.277344 96.1875 C 133.933594 91.566406 144.195312 92.488281 144.625 92.523438 C 145.300781 92.589844 145.796875 93.199219 145.730469 93.875 C 145.664062 94.550781 145.035156 95.046875 144.375 94.996094 C 144.277344 94.996094 134.492188 94.125 127.53125 98.316406 C 127.332031 98.429688 127.117188 98.496094 126.886719 98.496094 C 126.472656 98.496094 126.0625 98.28125 125.832031 97.902344 L 125.863281 97.902344 Z M 124.03125 121.160156 C 124.511719 119.773438 122.316406 111.109375 119.988281 103.894531 C 119.773438 103.25 120.136719 102.542969 120.78125 102.34375 C 121.441406 102.128906 122.132812 102.492188 122.332031 103.136719 C 123.917969 108.039062 127.449219 119.691406 126.257812 122.21875 C 125.46875 123.917969 123.125 124.363281 120.929688 124.363281 C 119.246094 124.363281 117.628906 124.101562 116.820312 123.953125 C 116.144531 123.820312 115.714844 123.175781 115.832031 122.5 C 115.964844 121.820312 116.605469 121.375 117.285156 121.507812 C 120.386719 122.085938 123.667969 121.921875 124.015625 121.160156 Z M 141.058594 104.144531 C 139.574219 104.457031 138.058594 104.65625 136.507812 104.785156 L 136.507812 104.917969 C 136.507812 106.371094 135.316406 107.558594 133.867188 107.558594 C 132.414062 107.558594 131.226562 106.371094 131.226562 104.917969 L 131.226562 104.851562 C 129.328125 104.753906 127.382812 104.523438 125.367188 104.160156 C 124.691406 104.042969 124.246094 103.398438 124.363281 102.722656 C 124.476562 102.046875 125.136719 101.617188 125.796875 101.714844 C 128.304688 102.160156 130.699219 102.394531 133.023438 102.410156 C 133.289062 102.328125 133.570312 102.261719 133.851562 102.261719 C 134.097656 102.261719 134.34375 102.3125 134.558594 102.375 C 136.589844 102.3125 138.585938 102.113281 140.515625 101.714844 C 141.175781 101.585938 141.835938 102.011719 141.984375 102.671875 C 142.117188 103.351562 141.6875 103.996094 141.027344 104.144531 Z M 262.191406 738.722656 L 277.699219 738.722656 C 278.378906 738.722656 278.9375 739.285156 278.9375 739.960938 L 278.9375 765.035156 C 278.9375 769.425781 275.421875 772.992188 271.050781 773.105469 L 271.050781 790.734375 C 271.050781 790.917969 271 791.097656 270.933594 791.246094 L 271.613281 791.246094 C 273.855469 791.246094 276.035156 791.695312 277.898438 792.519531 C 278.425781 792.75 278.722656 793.328125 278.609375 793.90625 C 278.492188 794.484375 277.980469 794.878906 277.402344 794.878906 L 262.503906 794.878906 C 261.925781 794.878906 261.414062 794.464844 261.300781 793.90625 C 261.183594 793.328125 261.480469 792.75 262.007812 792.519531 C 263.890625 791.695312 266.066406 791.246094 268.296875 791.246094 L 268.707031 791.246094 C 268.640625 791.082031 268.59375 790.917969 268.59375 790.734375 L 268.59375 773.074219 C 264.351562 772.824219 260.96875 769.328125 260.96875 765.035156 L 260.96875 739.960938 C 260.96875 739.285156 261.53125 738.722656 262.207031 738.722656 Z M 774.347656 564.984375 L 715.6875 564.984375 L 715.6875 469.804688 C 715.6875 469.128906 715.128906 468.570312 714.449219 468.570312 L 606.867188 468.570312 L 606.867188 408.433594 C 606.867188 407.757812 606.308594 407.195312 605.628906 407.195312 L 301.972656 407.195312 C 301.296875 407.195312 300.734375 407.757812 300.734375 408.433594 C 300.734375 409.109375 301.296875 409.671875 301.972656 409.671875 L 542.582031 409.671875 L 542.582031 464.753906 C 542.582031 465.433594 543.144531 465.992188 543.820312 465.992188 L 565.105469 465.992188 C 565.78125 465.992188 566.34375 465.433594 566.34375 464.753906 L 566.34375 409.671875 L 604.394531 409.671875 L 604.394531 564.96875 L 301.972656 564.96875 C 301.296875 564.96875 300.734375 565.53125 300.734375 566.207031 C 300.734375 566.882812 301.296875 567.445312 301.972656 567.445312 L 479.253906 567.445312 L 479.253906 622.53125 C 479.253906 623.207031 479.8125 623.769531 480.492188 623.769531 L 501.777344 623.769531 C 502.453125 623.769531 503.015625 623.207031 503.015625 622.53125 L 503.015625 567.445312 L 773.109375 567.445312 L 773.109375 805.675781 L 437.621094 805.675781 L 437.621094 667.378906 C 437.621094 666.882812 437.324219 666.472656 436.914062 666.273438 C 436.75 666.191406 436.582031 666.140625 436.386719 666.140625 C 435.707031 666.140625 435.148438 666.703125 435.148438 667.378906 L 435.148438 805.675781 L 237.109375 805.675781 C 236.433594 805.675781 235.871094 806.238281 235.871094 806.914062 C 235.871094 807.589844 236.433594 808.152344 237.109375 808.152344 L 774.347656 808.152344 C 775.023438 808.152344 775.585938 807.589844 775.585938 806.914062 L 775.585938 566.207031 C 775.585938 565.53125 775.023438 564.96875 774.347656 564.96875 Z M 563.851562 463.515625 L 545.039062 463.515625 L 545.039062 409.671875 L 563.851562 409.671875 Z M 500.523438 621.308594 L 481.710938 621.308594 L 481.710938 567.460938 L 500.523438 567.460938 Z M 677.359375 471.042969 L 687.886719 471.042969 L 687.886719 502.984375 L 677.359375 502.984375 Z M 713.195312 564.984375 L 606.851562 564.984375 L 606.851562 471.042969 L 674.882812 471.042969 L 674.882812 504.222656 C 674.882812 504.902344 675.445312 505.460938 676.121094 505.460938 L 689.121094 505.460938 C 689.800781 505.460938 690.359375 504.902344 690.359375 504.222656 L 690.359375 471.042969 L 713.195312 471.042969 Z M 749.878906 790.734375 C 749.878906 790.917969 749.828125 791.097656 749.761719 791.246094 L 750.140625 791.246094 C 752.070312 791.246094 753.953125 791.695312 755.570312 792.550781 C 756.066406 792.816406 756.328125 793.394531 756.195312 793.9375 C 756.066406 794.484375 755.570312 794.878906 754.992188 794.878906 L 742.5 794.878906 C 741.941406 794.878906 741.445312 794.5 741.296875 793.9375 C 741.164062 793.394531 741.414062 792.816406 741.921875 792.550781 C 743.539062 791.695312 745.421875 791.246094 747.351562 791.246094 L 747.515625 791.246094 C 747.453125 791.082031 747.402344 790.917969 747.402344 790.734375 L 747.402344 772.992188 C 743.773438 772.347656 741.015625 769.195312 741.015625 765.382812 L 741.015625 739.960938 C 741.015625 739.285156 741.578125 738.722656 742.253906 738.722656 L 755.257812 738.722656 C 755.933594 738.722656 756.492188 739.285156 756.492188 739.960938 L 756.492188 765.382812 C 756.492188 769.261719 753.605469 772.464844 749.878906 773.007812 Z M 713.261719 792.417969 L 731.414062 792.417969 C 732.089844 792.417969 732.652344 792.980469 732.652344 793.65625 C 732.652344 794.335938 732.089844 794.894531 731.414062 794.894531 L 713.261719 794.894531 C 712.585938 794.894531 712.023438 794.335938 712.023438 793.65625 C 712.023438 792.980469 712.585938 792.417969 713.261719 792.417969 Z M 715.554688 789.300781 L 715.554688 750.707031 L 714.203125 750.707031 C 713.824219 750.707031 713.460938 750.523438 713.214844 750.226562 C 712.980469 749.914062 712.898438 749.519531 713 749.15625 L 715.589844 739.628906 C 715.738281 739.085938 716.234375 738.722656 716.777344 738.722656 C 717.320312 738.722656 717.816406 739.101562 717.964844 739.628906 L 720.554688 749.15625 C 720.65625 749.535156 720.570312 749.929688 720.339844 750.226562 C 720.109375 750.542969 719.746094 750.707031 719.351562 750.707031 L 718 750.707031 L 718 789.300781 C 718 789.976562 717.4375 790.539062 716.761719 790.539062 C 716.085938 790.539062 715.523438 789.976562 715.523438 789.300781 Z M 726.644531 789.300781 L 726.644531 750.707031 L 725.292969 750.707031 C 724.910156 750.707031 724.546875 750.523438 724.300781 750.226562 C 724.070312 749.914062 723.988281 749.519531 724.085938 749.15625 L 726.675781 739.628906 C 726.824219 739.085938 727.320312 738.722656 727.867188 738.722656 C 728.410156 738.722656 728.90625 739.101562 729.054688 739.628906 L 731.644531 749.15625 C 731.742188 749.535156 731.660156 749.929688 731.429688 750.226562 C 731.199219 750.542969 730.835938 750.707031 730.441406 750.707031 L 729.085938 750.707031 L 729.085938 789.300781 C 729.085938 789.976562 728.527344 790.539062 727.847656 790.539062 C 727.171875 790.539062 726.613281 789.976562 726.613281 789.300781 Z M 588.058594 550.03125 C 588.058594 550.210938 588.007812 550.394531 587.941406 550.542969 L 588.222656 550.542969 C 590.054688 550.542969 591.820312 551.003906 593.355469 551.863281 C 593.847656 552.144531 594.078125 552.703125 593.949219 553.25 C 593.800781 553.792969 593.320312 554.175781 592.742188 554.175781 L 581.09375 554.175781 C 580.53125 554.175781 580.039062 553.792969 579.890625 553.25 C 579.742188 552.703125 579.988281 552.128906 580.484375 551.863281 C 582.019531 550.988281 583.785156 550.542969 585.613281 550.542969 L 585.699219 550.542969 C 585.632812 550.378906 585.582031 550.210938 585.582031 550.03125 L 585.582031 532.285156 C 582.199219 531.660156 579.625 528.6875 579.625 525.121094 L 579.625 499.253906 C 579.625 498.578125 580.1875 498.015625 580.863281 498.015625 L 592.972656 498.015625 C 593.652344 498.015625 594.210938 498.578125 594.210938 499.253906 L 594.210938 525.121094 C 594.210938 528.753906 591.539062 531.757812 588.039062 532.300781 L 588.039062 550.03125 Z M 619.6875 219.246094 C 620.132812 219.246094 620.53125 219.015625 620.761719 218.636719 C 622.277344 216.027344 658.152344 154.539062 658.152344 133.871094 C 658.152344 113.207031 640.890625 95.394531 619.6875 95.394531 C 598.484375 95.394531 581.226562 112.660156 581.226562 133.871094 C 581.226562 155.082031 617.097656 216.027344 618.617188 218.636719 C 618.832031 219.015625 619.242188 219.246094 619.6875 219.246094 Z M 619.6875 97.871094 C 639.539062 97.871094 655.675781 114.015625 655.675781 133.871094 C 655.675781 151.929688 625.761719 204.953125 619.6875 215.53125 C 613.617188 204.953125 583.699219 151.929688 583.699219 133.871094 C 583.699219 114.015625 599.839844 97.871094 619.6875 97.871094 Z M 619.6875 97.871094 "/></g></svg>