<svg xmlns="http://www.w3.org/2000/svg" xmlns:xlink="http://www.w3.org/1999/xlink" width="1080" zoomAndPan="magnify" viewBox="0 0 810 809.999993" height="1080" preserveAspectRatio="xMidYMid meet" version="1.2"><g id="c855ea8ee5"><path style=" stroke:none;fill-rule:evenodd;fill:#c6d8fb;fill-opacity:1;" d="M 376.964844 370.542969 L 376.964844 86.023438 C 376.964844 81.269531 373.160156 77.46875 368.40625 77.46875 L 234.316406 77.46875 C 229.5625 77.46875 225.757812 81.269531 225.757812 86.023438 L 225.757812 288.640625 L 269.1875 300.046875 L 269.1875 241.113281 L 336.074219 241.113281 L 336.074219 300.523438 L 270.929688 300.523438 L 321.964844 313.988281 L 321.964844 370.542969 Z M 336.074219 190.894531 L 269.1875 190.894531 L 269.1875 131.488281 L 336.074219 131.488281 Z M 336.074219 190.894531 "/><path style=" stroke:none;fill-rule:evenodd;fill:#c6d8fb;fill-opacity:1;" d="M 376.964844 105.824219 L 376.964844 370.542969 L 554.003906 370.542969 L 554.003906 123.25 C 554.003906 113.746094 546.238281 105.824219 536.570312 105.824219 Z M 428.953125 323.808594 L 428.953125 264.402344 L 495.835938 264.402344 L 495.835938 323.808594 Z M 495.835938 214.183594 L 428.953125 214.183594 L 428.953125 154.777344 L 495.835938 154.777344 Z M 495.835938 214.183594 "/><path style=" stroke:none;fill-rule:nonzero;fill:#428dff;fill-opacity:1;" d="M 462.710938 699.898438 L 263.324219 699.898438 C 253.019531 699.898438 252.863281 684.054688 263.324219 684.054688 C 263.324219 684.054688 462.710938 684.054688 462.710938 684.054688 C 473.015625 684.054688 473.171875 699.898438 462.710938 699.898438 Z M 553.847656 489.832031 C 549.410156 489.832031 545.921875 486.347656 545.921875 481.914062 C 545.289062 476.367188 547.347656 470.03125 553.847656 470.03125 C 558.285156 470.03125 561.773438 473.515625 561.773438 477.953125 C 562.5625 483.496094 560.503906 489.832031 553.847656 489.832031 Z M 553.847656 378.464844 C 549.410156 378.464844 545.921875 374.980469 545.921875 370.542969 L 545.921875 123.25 C 545.921875 118.023438 541.644531 113.746094 536.414062 113.746094 L 376.964844 113.746094 C 372.527344 113.746094 369.039062 110.261719 369.039062 105.824219 C 369.039062 101.386719 372.527344 97.902344 376.964844 97.902344 L 536.570312 97.902344 C 550.519531 97.902344 561.929688 109.308594 561.929688 123.25 L 561.929688 370.542969 C 561.929688 374.980469 558.285156 378.464844 553.847656 378.464844 Z M 553.847656 378.464844 "/><path style=" stroke:none;fill-rule:nonzero;fill:#428dff;fill-opacity:1;" d="M 376.964844 378.464844 C 372.527344 378.464844 369.039062 374.980469 369.039062 370.542969 L 369.039062 86.023438 L 234.316406 85.386719 L 233.683594 288.640625 C 233.683594 298.9375 217.835938 299.097656 217.835938 288.640625 L 217.835938 86.023438 C 217.835938 76.992188 225.285156 69.546875 234.316406 69.546875 L 368.40625 69.546875 C 377.441406 69.546875 384.890625 76.992188 384.890625 86.023438 L 384.890625 370.542969 C 384.890625 374.980469 381.246094 378.464844 376.964844 378.464844 Z M 376.964844 378.464844 "/><path style=" stroke:none;fill-rule:nonzero;fill:#428dff;fill-opacity:1;" d="M 462.710938 699.898438 L 321.964844 699.898438 C 317.527344 699.898438 314.042969 696.414062 314.042969 691.976562 L 314.042969 370.542969 C 314.042969 366.109375 317.527344 362.621094 321.964844 362.621094 L 593.789062 362.621094 C 608.84375 362.621094 621.050781 374.820312 621.050781 389.871094 L 621.050781 477.160156 C 620.890625 487.617188 605.199219 487.617188 605.199219 477.160156 L 605.199219 389.871094 C 605.199219 383.535156 600.128906 378.464844 593.789062 378.464844 L 329.890625 378.464844 L 329.890625 684.054688 L 462.710938 684.054688 C 473.171875 684.054688 473.171875 699.898438 462.710938 699.898438 Z M 462.710938 699.898438 "/><path style=" stroke:none;fill-rule:nonzero;fill:#428dff;fill-opacity:1;" d="M 570.804688 485.875 L 474.597656 485.875 C 470.160156 485.875 466.675781 482.386719 466.675781 477.953125 L 466.675781 430.585938 C 466.675781 426.148438 470.160156 422.664062 474.597656 422.664062 L 570.804688 422.664062 C 575.246094 422.664062 578.730469 426.148438 578.730469 430.585938 L 578.730469 477.953125 C 578.730469 482.386719 575.246094 485.875 570.804688 485.875 Z M 482.523438 470.03125 L 562.882812 470.03125 L 562.882812 438.664062 L 482.523438 438.664062 Z M 482.523438 470.03125 "/><path style=" stroke:none;fill-rule:nonzero;fill:#428dff;fill-opacity:1;" d="M 427.207031 485.875 L 373.953125 485.875 C 369.515625 485.875 366.027344 482.386719 366.027344 477.953125 L 366.027344 430.585938 C 366.027344 426.148438 369.515625 422.664062 373.953125 422.664062 L 427.207031 422.664062 C 431.644531 422.664062 435.132812 426.148438 435.132812 430.585938 L 435.132812 477.953125 C 435.132812 482.386719 431.644531 485.875 427.207031 485.875 Z M 381.878906 470.03125 L 419.285156 470.03125 L 419.285156 438.664062 L 381.878906 438.664062 Z M 381.878906 470.03125 "/><path style=" stroke:none;fill-rule:nonzero;fill:#428dff;fill-opacity:1;" d="M 336.074219 308.441406 L 269.1875 308.441406 C 264.75 308.441406 261.261719 304.957031 261.261719 300.523438 L 261.261719 241.113281 C 261.261719 236.679688 264.75 233.195312 269.1875 233.195312 L 336.074219 233.195312 C 340.511719 233.195312 343.996094 236.679688 343.996094 241.113281 L 343.996094 300.523438 C 343.996094 304.957031 340.511719 308.441406 336.074219 308.441406 Z M 277.113281 292.601562 L 328.148438 292.601562 L 328.148438 249.035156 L 277.113281 249.035156 Z M 277.113281 292.601562 "/><path style=" stroke:none;fill-rule:nonzero;fill:#428dff;fill-opacity:1;" d="M 336.074219 198.976562 L 269.1875 198.976562 C 264.75 198.976562 261.261719 195.488281 261.261719 191.054688 L 261.261719 131.488281 C 261.261719 127.050781 264.75 123.566406 269.1875 123.566406 L 336.074219 123.566406 C 340.511719 123.566406 343.996094 127.050781 343.996094 131.488281 L 343.996094 190.894531 C 343.996094 195.332031 340.511719 198.976562 336.074219 198.976562 Z M 277.113281 182.976562 L 328.148438 182.976562 L 328.148438 139.410156 L 277.113281 139.410156 Z M 277.113281 182.976562 "/><path style=" stroke:none;fill-rule:nonzero;fill:#428dff;fill-opacity:1;" d="M 427.207031 592.015625 L 373.953125 592.015625 C 369.515625 592.015625 366.027344 588.527344 366.027344 584.09375 L 366.027344 536.726562 C 366.027344 532.289062 369.515625 528.804688 373.953125 528.804688 L 427.207031 528.804688 C 431.644531 528.804688 435.132812 532.289062 435.132812 536.726562 L 435.132812 584.09375 C 435.132812 588.371094 431.644531 592.015625 427.207031 592.015625 Z M 381.878906 576.171875 L 419.285156 576.171875 L 419.285156 544.804688 L 381.878906 544.804688 Z M 381.878906 576.171875 "/><path style=" stroke:none;fill-rule:nonzero;fill:#428dff;fill-opacity:1;" d="M 321.964844 699.898438 L 39.207031 699.898438 C 34.769531 699.898438 31.285156 696.414062 31.285156 691.976562 L 31.285156 239.53125 C 31.125 234.460938 36.355469 230.5 41.269531 231.925781 L 324.027344 306.382812 C 327.515625 307.335938 329.890625 310.503906 329.890625 313.988281 L 329.890625 691.976562 C 329.890625 696.414062 326.40625 699.898438 321.964844 699.898438 Z M 47.132812 684.054688 L 314.042969 684.054688 L 314.042969 320.167969 L 47.132812 249.828125 Z M 47.132812 684.054688 "/><path style=" stroke:none;fill-rule:nonzero;fill:#428dff;fill-opacity:1;" d="M 187.246094 493.792969 L 101.65625 493.792969 C 97.21875 493.792969 93.730469 490.308594 93.730469 485.875 L 93.730469 400.328125 C 93.730469 395.890625 97.21875 392.40625 101.65625 392.40625 L 187.246094 392.40625 C 191.683594 392.40625 195.167969 395.890625 195.167969 400.328125 L 195.167969 485.875 C 195.167969 490.152344 191.683594 493.792969 187.246094 493.792969 Z M 109.582031 477.953125 L 179.320312 477.953125 L 179.320312 408.246094 L 109.582031 408.246094 Z M 109.582031 477.953125 "/><path style=" stroke:none;fill-rule:nonzero;fill:#428dff;fill-opacity:1;" d="M 187.246094 630.511719 L 101.65625 630.511719 C 97.21875 630.511719 93.730469 627.023438 93.730469 622.589844 L 93.730469 537.042969 C 93.730469 532.605469 97.21875 529.121094 101.65625 529.121094 L 187.246094 529.121094 C 191.683594 529.121094 195.167969 532.605469 195.167969 537.042969 L 195.167969 622.589844 C 195.167969 626.867188 191.683594 630.511719 187.246094 630.511719 Z M 109.582031 614.511719 L 179.320312 614.511719 L 179.320312 544.804688 L 109.582031 544.804688 Z M 109.582031 614.511719 "/><path style=" stroke:none;fill-rule:nonzero;fill:#428dff;fill-opacity:1;" d="M 495.835938 331.730469 L 428.953125 331.730469 C 424.515625 331.730469 421.027344 328.246094 421.027344 323.808594 L 421.027344 264.402344 C 421.027344 259.964844 424.515625 256.480469 428.953125 256.480469 L 495.835938 256.480469 C 500.273438 256.480469 503.761719 259.964844 503.761719 264.402344 L 503.761719 323.808594 C 503.761719 328.246094 500.273438 331.730469 495.835938 331.730469 Z M 436.875 315.890625 L 487.914062 315.890625 L 487.914062 272.324219 L 436.875 272.324219 Z M 436.875 315.890625 "/><path style=" stroke:none;fill-rule:nonzero;fill:#428dff;fill-opacity:1;" d="M 495.835938 222.105469 L 428.953125 222.105469 C 424.515625 222.105469 421.027344 218.621094 421.027344 214.183594 L 421.027344 154.777344 C 421.027344 150.339844 424.515625 146.855469 428.953125 146.855469 L 495.835938 146.855469 C 500.273438 146.855469 503.761719 150.339844 503.761719 154.777344 L 503.761719 214.183594 C 503.761719 218.621094 500.273438 222.105469 495.835938 222.105469 Z M 436.875 206.261719 L 487.914062 206.261719 L 487.914062 162.695312 L 436.875 162.695312 Z M 436.875 206.261719 "/><path style=" stroke:none;fill-rule:nonzero;fill:#428dff;fill-opacity:1;" d="M 149.046875 213.390625 L 77.566406 213.390625 C 73.125 213.390625 69.640625 209.90625 69.640625 205.46875 L 69.640625 113.902344 L 44.914062 113.902344 C 38.734375 114.0625 34.769531 106.300781 38.417969 101.386719 L 107.363281 4.277344 C 110.375 0 117.347656 0 120.359375 4.277344 L 188.988281 101.386719 C 192.792969 106.300781 188.828125 114.0625 182.488281 113.902344 L 156.972656 113.902344 L 156.972656 205.628906 C 157.128906 209.90625 153.484375 213.390625 149.046875 213.390625 Z M 85.648438 197.550781 L 141.28125 197.550781 L 141.28125 105.824219 C 141.597656 93.941406 158.875 98.855469 167.273438 97.902344 L 113.703125 22.652344 L 60.289062 97.902344 C 68.054688 98.855469 85.171875 93.941406 85.488281 105.824219 L 85.488281 197.550781 Z M 85.648438 197.550781 "/><path style=" stroke:none;fill-rule:nonzero;fill:#428dff;fill-opacity:1;" d="M 735.484375 411.257812 L 664.003906 411.257812 C 659.5625 411.257812 656.078125 407.773438 656.078125 403.335938 L 656.078125 274.699219 L 631.351562 274.699219 C 625.171875 274.859375 621.050781 267.09375 624.855469 262.183594 C 624.855469 262.183594 693.640625 165.230469 693.640625 165.230469 C 696.652344 160.953125 703.625 160.953125 706.636719 165.230469 L 775.425781 262.183594 C 779.230469 267.09375 775.265625 274.859375 768.925781 274.699219 L 743.410156 274.699219 L 743.410156 403.335938 C 743.410156 407.613281 739.921875 411.257812 735.484375 411.257812 Z M 671.925781 395.414062 L 727.558594 395.414062 L 727.558594 266.777344 C 727.875 254.898438 745.152344 259.808594 753.554688 258.859375 L 700.140625 183.449219 L 646.726562 258.859375 C 654.492188 259.808594 671.609375 254.898438 671.925781 266.777344 Z M 671.925781 395.414062 "/><path style=" stroke:none;fill-rule:nonzero;fill:#428dff;fill-opacity:1;" d="M 615.027344 810 L 564.464844 810 C 552.261719 810 542.277344 800.019531 542.277344 787.820312 L 542.277344 776.890625 C 536.730469 774.988281 531.339844 772.769531 526.109375 770.238281 L 518.34375 778 C 509.945312 786.394531 495.363281 786.394531 486.960938 778 L 451.300781 742.355469 C 442.742188 734.117188 442.742188 719.226562 451.300781 710.988281 L 459.066406 703.226562 C 456.53125 697.996094 454.3125 692.609375 452.410156 687.066406 L 441.472656 687.066406 C 429.269531 687.066406 419.285156 677.085938 419.285156 664.886719 L 419.285156 614.351562 C 419.285156 602.152344 429.269531 592.171875 441.472656 592.171875 L 452.410156 592.171875 C 454.3125 586.628906 456.53125 581.242188 459.066406 576.015625 L 451.300781 568.25 C 442.742188 560.015625 442.742188 545.121094 451.300781 536.882812 L 486.960938 501.238281 C 495.519531 492.683594 509.625 492.683594 518.34375 501.238281 L 526.109375 509.003906 C 531.339844 506.46875 536.730469 504.25 542.277344 502.347656 L 542.277344 491.417969 C 542.277344 479.21875 552.261719 469.238281 564.464844 469.238281 L 615.027344 469.238281 C 627.230469 469.238281 637.214844 479.21875 637.214844 491.417969 L 637.214844 502.347656 C 642.765625 504.25 648.152344 506.46875 653.382812 509.003906 L 661.148438 501.238281 C 669.867188 492.527344 683.8125 492.683594 692.53125 501.238281 L 728.195312 536.882812 C 736.753906 545.121094 736.753906 560.015625 728.195312 568.25 L 720.425781 576.015625 C 722.964844 581.242188 725.183594 586.628906 727.085938 592.171875 L 738.019531 592.171875 C 750.222656 592.171875 760.210938 602.152344 760.210938 614.351562 L 760.210938 664.886719 C 760.210938 677.085938 750.222656 687.066406 738.019531 687.066406 L 727.085938 687.066406 C 725.183594 692.609375 722.964844 697.996094 720.425781 703.226562 L 728.195312 710.988281 C 736.753906 719.542969 736.753906 733.640625 728.195312 742.355469 L 692.375 778 C 684.132812 786.554688 669.234375 786.554688 660.992188 778 L 653.222656 770.238281 C 647.996094 772.769531 642.605469 774.988281 637.058594 776.890625 L 637.058594 787.820312 C 637.058594 800.019531 627.230469 810 615.027344 810 Z M 524.523438 752.652344 C 534.035156 755.1875 542.59375 761.363281 552.421875 763.582031 C 555.75 764.535156 558.125 767.703125 558.125 771.1875 L 558.125 787.820312 C 558.125 791.304688 560.980469 794 564.308594 794 L 614.867188 794 C 624.378906 793.839844 620.257812 779.109375 621.050781 771.027344 C 621.050781 767.542969 623.425781 764.375 626.753906 763.425781 C 637.214844 762.632812 651.957031 747.742188 660.355469 754.871094 C 663.050781 756.929688 672.5625 769.285156 676.523438 768.492188 C 678.265625 768.492188 679.695312 767.859375 680.960938 766.59375 L 716.78125 730.949219 C 723.597656 724.136719 709.648438 716.058594 704.894531 710.355469 C 702.359375 707.820312 701.882812 704.015625 703.46875 701.007812 C 707.589844 693.402344 710.917969 685.164062 713.453125 676.769531 C 716.78125 663.777344 742.773438 678.828125 744.042969 664.886719 L 744.042969 614.351562 C 744.042969 610.867188 741.191406 608.015625 737.703125 608.015625 L 721.0625 608.015625 C 717.574219 608.015625 714.402344 605.796875 713.453125 602.3125 C 712.503906 591.855469 697.761719 577.125 704.734375 568.726562 C 704.734375 568.726562 716.625 556.84375 716.625 556.84375 C 719 554.46875 719 550.351562 716.625 547.972656 L 680.960938 512.328125 C 678.425781 509.953125 674.464844 509.953125 672.085938 512.328125 L 660.355469 524.050781 C 657.820312 526.585938 654.015625 527.0625 651.003906 525.476562 C 643.238281 521.359375 635.15625 518.03125 626.753906 515.496094 C 623.425781 514.546875 621.050781 511.378906 621.050781 507.894531 L 621.050781 491.257812 C 621.050781 487.773438 618.195312 484.921875 614.867188 484.921875 L 564.308594 484.921875 C 554.796875 484.921875 558.917969 499.8125 558.125 507.894531 C 558.125 511.378906 555.75 514.546875 552.421875 515.496094 C 544.019531 518.03125 535.9375 521.359375 528.171875 525.476562 C 525.160156 527.0625 521.195312 526.585938 518.820312 524.050781 L 507.089844 512.328125 C 504.554688 509.953125 500.59375 509.953125 498.214844 512.328125 L 462.554688 547.972656 C 455.738281 554.785156 469.527344 562.546875 474.28125 568.570312 C 476.816406 571.101562 477.292969 574.90625 475.707031 577.914062 C 471.585938 585.675781 468.257812 593.757812 465.722656 601.996094 C 462.234375 614.984375 436.402344 599.933594 435.132812 613.875 C 435.132812 613.875 435.132812 664.414062 435.132812 664.414062 C 435.132812 667.898438 437.984375 670.589844 441.472656 670.589844 L 458.117188 670.589844 C 461.601562 670.589844 464.773438 672.96875 465.722656 676.292969 C 466.515625 686.75 481.414062 701.484375 474.28125 709.878906 C 474.28125 709.878906 462.554688 721.601562 462.554688 721.601562 C 460.175781 723.976562 460.175781 728.097656 462.554688 730.472656 L 498.214844 766.117188 C 500.59375 768.492188 504.714844 768.492188 507.089844 766.117188 C 511.054688 763.898438 519.292969 752.019531 524.523438 752.652344 Z M 524.523438 752.652344 "/><path style=" stroke:none;fill-rule:nonzero;fill:#428dff;fill-opacity:1;" d="M 589.667969 730.632812 C 469.210938 726.828125 469.367188 552.410156 589.667969 548.449219 C 710.125 552.410156 710.125 726.828125 589.667969 730.632812 Z M 589.667969 564.449219 C 490.289062 567.617188 490.289062 711.621094 589.667969 714.789062 C 689.042969 711.621094 689.042969 567.617188 589.667969 564.449219 Z M 589.667969 564.449219 "/></g></svg>