<svg xmlns="http://www.w3.org/2000/svg" xmlns:xlink="http://www.w3.org/1999/xlink" width="1080" zoomAndPan="magnify" viewBox="0 0 810 809.999993" height="1080" preserveAspectRatio="xMidYMid meet" version="1.2"><defs><clipPath id="836bcfea3d"><path d="M 0 7.085938 L 810 7.085938 L 810 810 L 0 810 Z M 0 7.085938 "/></clipPath></defs><g id="c0a061dc08"><path style=" stroke:none;fill-rule:nonzero;fill:#abe7ff;fill-opacity:1;" d="M 708.070312 415.601562 C 708.070312 580.234375 574.660156 713.699219 410.097656 713.699219 C 245.53125 713.699219 112.121094 580.234375 112.121094 415.601562 C 112.121094 250.964844 245.53125 117.5 410.097656 117.5 C 574.660156 117.5 708.070312 250.964844 708.070312 415.601562 Z M 708.070312 415.601562 "/><path style=" stroke:none;fill-rule:nonzero;fill:#ffffff;fill-opacity:1;" d="M 594.390625 527.613281 L 673.695312 527.613281 L 673.695312 613.058594 L 594.390625 613.058594 Z M 740.804688 387.238281 L 692.257812 387.238281 C 688.792969 376.199219 682.273438 366.515625 673.695312 359.171875 L 673.695312 317.058594 L 594.390625 317.058594 L 594.390625 359.175781 C 581.324219 370.371094 573.039062 386.996094 573.039062 405.558594 C 573.039062 424.121094 581.324219 440.746094 594.390625 451.941406 L 594.390625 494.054688 L 673.695312 494.054688 L 673.695312 451.933594 C 682.273438 444.585938 688.785156 434.90625 692.257812 423.863281 L 740.804688 423.863281 C 744.171875 423.863281 746.90625 426.605469 746.90625 429.96875 L 746.90625 454.378906 L 783.507812 454.378906 L 783.507812 429.96875 C 783.507812 406.410156 764.355469 387.246094 740.804688 387.246094 Z M 280.660156 466.046875 C 224.277344 466.046875 178.5625 511.78125 178.5625 568.1875 C 178.5625 624.597656 224.277344 670.332031 280.660156 670.332031 C 337.046875 670.332031 382.761719 624.597656 382.761719 568.1875 C 382.761719 511.78125 337.046875 466.046875 280.660156 466.046875 Z M 123.027344 366.566406 L 443.75 366.566406 L 443.75 314.816406 L 123.027344 314.816406 Z M 123.027344 366.566406 "/><path style=" stroke:none;fill-rule:nonzero;fill:#2db5ff;fill-opacity:1;" d="M 795.710938 554.644531 C 795.710938 571.738281 782.058594 585.59375 765.210938 585.59375 C 748.363281 585.59375 734.710938 571.738281 734.710938 554.644531 C 734.710938 527.816406 764.199219 497.101562 765.210938 497.101562 C 766.222656 497.101562 795.710938 527.816406 795.710938 554.644531 Z M 406.375 717.277344 C 392.824219 730.507812 369.667969 730.507812 356.105469 717.277344 C 353.894531 715.117188 351.421875 713.320312 348.785156 711.871094 L 348.785156 617.890625 C 348.785156 607.695312 340.523438 599.4375 330.332031 599.4375 C 320.140625 599.4375 311.886719 607.703125 311.886719 617.890625 L 311.886719 603.691406 C 311.886719 596.636719 306.167969 590.917969 299.113281 590.917969 L 293.4375 590.917969 C 286.386719 590.917969 280.667969 596.636719 280.667969 603.691406 C 280.667969 596.636719 274.953125 590.917969 267.898438 590.917969 C 260.84375 590.917969 255.128906 596.636719 255.128906 603.691406 L 255.128906 617.890625 C 255.128906 607.695312 246.867188 599.4375 236.683594 599.4375 L 231.007812 599.4375 C 220.816406 599.4375 212.558594 607.703125 212.558594 617.890625 L 212.558594 711.890625 C 209.941406 713.335938 207.492188 715.125 205.289062 717.273438 L 205.257812 717.304688 C 191.703125 730.527344 168.558594 730.527344 155 717.3125 L 154.941406 717.25 C 141.386719 704.042969 118.25 704.042969 104.691406 717.25 L 104.691406 782.558594 C 118.242188 769.351562 141.378906 769.351562 154.941406 782.558594 L 155 782.621094 C 168.558594 795.835938 191.703125 795.828125 205.257812 782.613281 L 205.289062 782.582031 C 218.84375 769.359375 241.996094 769.359375 255.546875 782.582031 L 255.582031 782.613281 C 269.132812 795.828125 292.285156 795.828125 305.835938 782.613281 L 305.859375 782.59375 C 319.417969 769.371094 342.566406 769.371094 356.121094 782.59375 C 369.671875 795.820312 392.832031 795.820312 406.390625 782.59375 C 419.941406 769.371094 443.101562 769.367188 456.660156 782.59375 L 456.660156 717.285156 C 443.101562 704.066406 419.949219 704.066406 406.390625 717.285156 Z M 397.191406 206.136719 L 397.191406 50.886719 L 345.464844 50.886719 L 345.464844 180.261719 C 345.464844 194.550781 333.882812 206.136719 319.597656 206.136719 L 123.027344 206.136719 L 123.027344 257.886719 L 345.464844 257.886719 C 374.035156 257.886719 397.191406 234.71875 397.191406 206.136719 Z M 397.191406 206.136719 "/><path style=" stroke:none;fill-rule:nonzero;fill:#cff1ff;fill-opacity:1;" d="M 688.949219 298.746094 L 688.949219 310.953125 C 688.949219 314.320312 686.214844 317.058594 682.847656 317.058594 L 583.429688 317.058594 C 580.855469 317.058594 578.5625 315.441406 577.691406 313.019531 L 554.066406 247.367188 C 552.65625 243.441406 553.96875 239.054688 557.308594 236.550781 C 560.84375 234.660156 566.378906 234.089844 569.71875 237.433594 L 624.902344 292.640625 L 682.859375 292.640625 C 686.230469 292.640625 688.960938 295.375 688.960938 298.746094 Z M 683.820312 494.046875 L 584.265625 494.046875 C 581.429688 494.046875 579.136719 496.34375 579.136719 499.179688 L 579.136719 522.488281 C 579.136719 525.324219 581.429688 527.621094 584.265625 527.621094 L 683.820312 527.621094 C 686.652344 527.621094 688.949219 525.324219 688.949219 522.488281 L 688.949219 499.179688 C 688.949219 496.34375 686.652344 494.046875 683.820312 494.046875 Z M 793.632812 454.378906 L 736.78125 454.378906 C 733.949219 454.378906 731.652344 456.675781 731.652344 459.511719 L 731.652344 473.664062 C 731.652344 476.5 733.949219 478.792969 736.78125 478.792969 L 793.632812 478.792969 C 796.46875 478.792969 798.761719 476.5 798.761719 473.664062 L 798.761719 459.511719 C 798.761719 456.675781 796.46875 454.378906 793.632812 454.378906 Z M 280.660156 440.414062 C 210.117188 440.414062 152.929688 497.625 152.929688 568.203125 C 152.929688 613.71875 176.71875 653.664062 212.53125 676.304688 L 212.53125 644.28125 C 191.675781 625.574219 178.554688 598.425781 178.554688 568.203125 C 178.554688 511.792969 224.269531 466.058594 280.65625 466.058594 C 337.039062 466.058594 382.753906 511.792969 382.753906 568.203125 C 382.753906 598.425781 369.632812 625.574219 348.777344 644.28125 L 348.777344 676.304688 C 384.589844 653.671875 408.382812 613.71875 408.382812 568.203125 C 408.382812 497.625 351.195312 440.414062 280.65625 440.414062 Z M 226.484375 149.222656 L 226.484375 314.820312 L 278.210938 314.820312 L 278.210938 128.511719 C 278.210938 99.929688 255.054688 76.761719 226.484375 76.761719 L 123.027344 76.761719 L 123.027344 128.511719 L 205.796875 128.511719 C 217.222656 128.511719 226.492188 137.777344 226.492188 149.214844 Z M 226.484375 149.222656 "/><g clip-rule="nonzero" clip-path="url(#836bcfea3d)"><path style=" stroke:none;fill-rule:nonzero;fill:#0059ab;fill-opacity:1;" d="M 65.503906 209.183594 C 56.851562 223.605469 49.042969 238.710938 42.292969 254.070312 C 41.589844 255.664062 40.03125 256.617188 38.390625 256.617188 C 37.816406 256.617188 37.238281 256.503906 36.675781 256.257812 C 34.523438 255.3125 33.542969 252.800781 34.488281 250.648438 C 41.386719 234.957031 49.359375 219.535156 58.195312 204.800781 C 59.402344 202.78125 62.019531 202.132812 64.03125 203.339844 C 66.050781 204.550781 66.703125 207.171875 65.488281 209.1875 Z M 17.738281 501.609375 C 17.238281 499.316406 14.964844 497.855469 12.667969 498.355469 C 10.375 498.855469 8.914062 501.125 9.414062 503.425781 C 13.074219 520.191406 17.839844 536.890625 23.582031 553.050781 C 24.203125 554.792969 25.84375 555.886719 27.589844 555.886719 C 28.0625 555.886719 28.542969 555.804688 29.015625 555.636719 C 31.230469 554.84375 32.390625 552.414062 31.601562 550.191406 C 25.980469 534.371094 21.316406 518.027344 17.730469 501.609375 Z M 8.820312 354.34375 C 9.050781 354.382812 9.28125 354.398438 9.511719 354.398438 C 11.5625 354.398438 13.371094 352.910156 13.707031 350.820312 C 16.394531 334.222656 20.175781 317.636719 24.933594 301.535156 C 25.601562 299.277344 24.3125 296.90625 22.058594 296.238281 C 19.804688 295.570312 17.433594 296.859375 16.765625 299.117188 C 11.90625 315.566406 8.050781 332.5 5.304688 349.449219 C 4.925781 351.769531 6.507812 353.957031 8.828125 354.335938 Z M 10.109375 451.664062 C 9.050781 439.753906 8.519531 427.617188 8.511719 415.601562 C 8.511719 410.800781 8.597656 405.929688 8.765625 401.136719 C 8.847656 398.785156 7.011719 396.816406 4.664062 396.726562 C 2.34375 396.667969 0.34375 398.484375 0.257812 400.832031 C 0.0820312 405.726562 -0.0078125 410.699219 -0.0078125 415.601562 C -0.0078125 427.875 0.539062 440.257812 1.625 452.421875 C 1.824219 454.636719 3.679688 456.300781 5.867188 456.300781 C 5.992188 456.300781 6.121094 456.300781 6.25 456.289062 C 8.59375 456.078125 10.320312 454.011719 10.109375 451.671875 Z M 51.503906 596.640625 C 50.445312 594.542969 47.878906 593.707031 45.78125 594.765625 C 43.683594 595.824219 42.84375 598.390625 43.90625 600.492188 C 51.640625 615.792969 60.425781 630.761719 70.039062 644.988281 C 70.863281 646.203125 72.207031 646.867188 73.570312 646.867188 C 74.390625 646.867188 75.214844 646.628906 75.953125 646.136719 C 77.902344 644.820312 78.414062 642.171875 77.097656 640.222656 C 67.691406 626.285156 59.078125 611.625 51.503906 596.648438 Z M 646.648438 740.277344 C 634.054688 749.472656 620.800781 758.023438 607.246094 765.679688 C 605.203125 766.832031 604.480469 769.433594 605.632812 771.480469 C 606.417969 772.863281 607.859375 773.648438 609.347656 773.648438 C 610.054688 773.648438 610.777344 773.472656 611.4375 773.09375 C 625.28125 765.273438 638.820312 756.550781 651.679688 747.152344 C 653.574219 745.765625 653.992188 743.101562 652.609375 741.203125 C 651.226562 739.304688 648.558594 738.886719 646.65625 740.277344 Z M 565.152344 786.300781 C 550.78125 792.324219 535.898438 797.558594 520.929688 801.84375 C 518.667969 802.492188 517.359375 804.847656 518.003906 807.113281 C 518.539062 808.980469 520.246094 810.199219 522.097656 810.199219 C 522.488281 810.199219 522.878906 810.144531 523.269531 810.027344 C 538.566406 805.644531 553.757812 800.304688 568.4375 794.148438 C 570.605469 793.242188 571.628906 790.742188 570.71875 788.578125 C 569.808594 786.410156 567.316406 785.382812 565.144531 786.292969 Z M 721.339844 676.191406 C 719.550781 674.660156 716.863281 674.867188 715.339844 676.65625 C 705.214844 688.492188 694.28125 699.871094 682.839844 710.464844 C 681.113281 712.066406 681.011719 714.761719 682.609375 716.480469 C 683.449219 717.386719 684.589844 717.847656 685.734375 717.847656 C 686.769531 717.847656 687.808594 717.46875 688.625 716.710938 C 700.300781 705.894531 711.464844 694.28125 721.804688 682.195312 C 723.332031 680.40625 723.128906 677.71875 721.339844 676.191406 Z M 620.988281 73.636719 C 633.75 81.53125 646.21875 90.246094 658.035156 99.539062 C 658.820312 100.152344 659.742188 100.449219 660.660156 100.449219 C 661.925781 100.449219 663.171875 99.890625 664.007812 98.824219 C 665.460938 96.972656 665.144531 94.296875 663.292969 92.839844 C 651.226562 83.351562 638.496094 74.453125 625.464844 66.390625 C 623.464844 65.15625 620.839844 65.769531 619.605469 67.777344 C 618.371094 69.773438 618.984375 72.402344 620.988281 73.636719 Z M 809.46875 321.980469 C 805.984375 307.042969 801.605469 292.148438 796.453125 277.710938 C 795.664062 275.496094 793.226562 274.34375 791.015625 275.132812 C 788.800781 275.921875 787.644531 278.359375 788.4375 280.574219 C 793.476562 294.714844 797.761719 309.296875 801.179688 323.917969 C 801.636719 325.882812 803.386719 327.210938 805.324219 327.210938 C 805.640625 327.210938 805.96875 327.179688 806.292969 327.097656 C 808.582031 326.5625 810.007812 324.273438 809.472656 321.980469 Z M 539.355469 35.109375 C 553.570312 39.941406 567.675781 45.640625 581.269531 52.0625 C 581.855469 52.339844 582.476562 52.46875 583.082031 52.46875 C 584.683594 52.46875 586.207031 51.5625 586.9375 50.023438 C 587.945312 47.898438 587.03125 45.359375 584.90625 44.351562 C 571.023438 37.796875 556.621094 31.976562 542.101562 27.039062 C 539.875 26.28125 537.457031 27.472656 536.703125 29.699219 C 535.945312 31.925781 537.132812 34.34375 539.359375 35.101562 Z M 770.878906 238.953125 C 771.617188 240.457031 773.132812 241.335938 774.707031 241.335938 C 775.335938 241.335938 775.976562 241.195312 776.578125 240.90625 C 778.6875 239.863281 779.558594 237.320312 778.527344 235.207031 C 771.785156 221.449219 764.179688 207.917969 755.917969 194.980469 C 754.648438 193.003906 752.015625 192.421875 750.039062 193.6875 C 748.054688 194.957031 747.480469 197.589844 748.742188 199.566406 C 756.835938 212.234375 764.28125 225.480469 770.878906 238.953125 Z M 722.316406 162.910156 C 723.160156 163.949219 724.390625 164.488281 725.632812 164.488281 C 726.578125 164.488281 727.523438 164.179688 728.3125 163.535156 C 730.140625 162.058594 730.417969 159.371094 728.9375 157.546875 C 719.289062 145.628906 708.859375 134.128906 697.9375 123.359375 C 696.265625 121.714844 693.566406 121.726562 691.917969 123.40625 C 690.265625 125.082031 690.285156 127.777344 691.964844 129.429688 C 702.664062 139.976562 712.875 151.242188 722.332031 162.914062 Z M 451.160156 15.925781 C 466.121094 17.445312 481.132812 19.835938 495.785156 23.015625 C 496.089844 23.082031 496.394531 23.109375 496.699219 23.109375 C 498.65625 23.109375 500.421875 21.746094 500.855469 19.753906 C 501.355469 17.457031 499.898438 15.1875 497.601562 14.6875 C 482.640625 11.433594 467.3125 8.996094 452.03125 7.445312 C 449.6875 7.199219 447.601562 8.910156 447.367188 11.253906 C 447.128906 13.59375 448.832031 15.683594 451.171875 15.917969 Z M 784.359375 513.421875 C 791.480469 523.894531 799.964844 539.550781 799.964844 554.648438 C 799.964844 574.0625 784.371094 589.863281 765.203125 589.863281 C 746.035156 589.863281 730.445312 574.070312 730.445312 554.648438 C 730.445312 539.550781 738.929688 523.898438 746.050781 513.421875 C 750.226562 507.277344 754.210938 502.460938 756.8125 499.503906 C 762.6875 492.839844 763.632812 492.839844 765.203125 492.839844 C 766.777344 492.839844 767.722656 492.839844 773.59375 499.503906 C 776.199219 502.460938 780.179688 507.277344 784.359375 513.421875 Z M 791.453125 554.648438 C 791.453125 534.007812 772.191406 510.410156 765.210938 502.941406 C 758.230469 510.410156 738.960938 534.007812 738.960938 554.648438 C 738.960938 569.371094 750.734375 581.339844 765.210938 581.339844 C 779.6875 581.339844 791.453125 569.371094 791.453125 554.648438 Z M 558.996094 613.0625 C 558.996094 610.714844 557.09375 608.804688 554.734375 608.804688 L 472.378906 608.804688 C 470.03125 608.804688 468.121094 610.707031 468.121094 613.0625 C 468.121094 615.421875 470.023438 617.324219 472.378906 617.324219 L 554.734375 617.324219 C 557.085938 617.324219 558.996094 615.421875 558.996094 613.0625 Z M 803.019531 460.480469 L 803.019531 472.691406 C 803.019531 478.402344 798.378906 483.054688 792.660156 483.054688 L 737.753906 483.054688 C 732.042969 483.054688 727.394531 478.410156 727.394531 472.691406 L 727.394531 460.480469 C 727.394531 454.769531 732.039062 450.117188 737.753906 450.117188 L 742.648438 450.117188 L 742.648438 429.960938 C 742.648438 428.941406 741.824219 428.117188 740.804688 428.117188 L 695.300781 428.117188 C 691.683594 437.949219 685.742188 446.761719 677.953125 453.851562 L 677.953125 489.789062 L 682.847656 489.789062 C 688.558594 489.789062 693.207031 494.433594 693.207031 500.152344 L 693.207031 521.507812 C 693.207031 527.222656 688.5625 531.875 682.847656 531.875 L 677.953125 531.875 L 677.953125 591.699219 C 677.953125 594.050781 676.050781 595.960938 673.695312 595.960938 C 671.339844 595.960938 669.4375 594.054688 669.4375 591.699219 L 669.4375 531.875 L 598.640625 531.875 L 598.640625 608.796875 L 798.753906 608.796875 C 801.105469 608.796875 803.015625 610.699219 803.015625 613.058594 C 803.015625 615.414062 801.109375 617.316406 798.753906 617.316406 L 576.085938 617.316406 C 573.734375 617.316406 571.824219 615.414062 571.824219 613.058594 C 571.824219 610.699219 573.730469 608.796875 576.085938 608.796875 L 590.128906 608.796875 L 590.128906 531.875 L 585.238281 531.875 C 579.527344 531.875 574.875 527.230469 574.875 521.507812 L 574.875 500.152344 C 574.875 494.441406 579.519531 489.789062 585.238281 489.789062 L 590.128906 489.789062 L 590.128906 453.851562 C 576.535156 441.480469 568.773438 423.984375 568.773438 405.550781 C 568.773438 387.117188 576.53125 369.628906 590.125 357.253906 L 590.125 321.316406 C 590.125 321.316406 583.421875 321.316406 583.421875 321.316406 C 579.066406 321.316406 575.152344 318.5625 573.675781 314.464844 L 554.601562 261.453125 C 545.914062 268.097656 540.691406 278.480469 540.691406 289.589844 L 540.691406 331.445312 C 540.691406 348.886719 533.902344 365.28125 521.578125 377.617188 L 493.253906 405.949219 C 482.539062 416.671875 476.632812 430.925781 476.632812 446.09375 L 476.632812 490.996094 C 476.632812 493.347656 474.726562 495.257812 472.371094 495.257812 C 470.015625 495.257812 468.113281 493.351562 468.113281 490.996094 L 468.113281 446.09375 C 468.113281 428.652344 474.902344 412.257812 487.226562 399.921875 L 515.550781 371.589844 C 526.265625 360.867188 532.171875 346.605469 532.171875 331.445312 L 532.171875 289.589844 C 532.171875 274.902344 539.535156 261.242188 551.605469 253.121094 L 550.050781 248.8125 C 547.992188 243.09375 549.875 236.792969 554.742188 233.144531 C 554.917969 233.019531 555.101562 232.894531 555.289062 232.796875 C 560.25 230.140625 567.816406 229.519531 572.71875 234.421875 L 583.949219 245.65625 L 629.785156 245.65625 L 629.785156 234.660156 C 629.785156 232.308594 631.6875 230.398438 634.042969 230.398438 C 636.398438 230.398438 638.300781 232.300781 638.300781 234.660156 L 638.300781 245.65625 L 673.695312 245.65625 C 676.042969 245.65625 677.953125 247.5625 677.953125 249.917969 C 677.953125 252.273438 676.050781 254.179688 673.695312 254.179688 L 638.300781 254.179688 L 638.300781 288.378906 L 682.847656 288.378906 C 688.558594 288.378906 693.207031 293.027344 693.207031 298.746094 L 693.207031 310.953125 C 693.207031 316.664062 688.5625 321.316406 682.847656 321.316406 L 677.953125 321.316406 L 677.953125 357.253906 C 685.742188 364.34375 691.683594 373.15625 695.300781 382.984375 L 740.804688 382.984375 C 766.703125 382.984375 787.765625 404.058594 787.765625 429.96875 L 787.765625 450.125 L 792.660156 450.125 C 798.371094 450.125 803.019531 454.769531 803.019531 460.488281 Z M 592.472656 254.179688 L 626.660156 288.378906 L 629.789062 288.378906 L 629.789062 254.179688 Z M 583.429688 312.796875 L 682.847656 312.796875 C 683.867188 312.796875 684.691406 311.972656 684.691406 310.953125 L 684.691406 298.746094 C 684.691406 297.726562 683.867188 296.902344 682.847656 296.902344 L 624.890625 296.902344 C 623.761719 296.902344 622.675781 296.457031 621.878906 295.652344 L 566.695312 240.445312 C 564.949219 238.695312 561.613281 239.203125 559.601562 240.15625 C 557.933594 241.566406 557.320312 243.839844 558.0625 245.921875 L 581.6875 311.566406 C 581.949219 312.296875 582.644531 312.789062 583.421875 312.789062 Z M 682.847656 498.308594 L 585.238281 498.308594 C 584.21875 498.308594 583.394531 499.140625 583.394531 500.152344 L 583.394531 521.507812 C 583.394531 522.523438 584.21875 523.351562 585.238281 523.351562 L 682.847656 523.351562 C 683.867188 523.351562 684.691406 522.523438 684.691406 521.507812 L 684.691406 500.152344 C 684.691406 499.132812 683.867188 498.308594 682.847656 498.308594 Z M 751.160156 429.96875 L 751.160156 450.125 L 779.25 450.125 L 779.25 429.96875 C 779.25 408.761719 762.003906 391.507812 740.804688 391.507812 L 692.257812 391.507812 C 690.398438 391.507812 688.753906 390.300781 688.191406 388.523438 C 685.015625 378.386719 679.039062 369.359375 670.929688 362.410156 C 669.984375 361.601562 669.4375 360.421875 669.4375 359.179688 L 669.4375 321.324219 L 598.640625 321.324219 L 598.640625 350.703125 C 609.128906 343.929688 621.421875 340.265625 634.035156 340.265625 C 636.382812 340.265625 638.292969 342.167969 638.292969 344.523438 C 638.292969 346.882812 636.390625 348.785156 634.035156 348.785156 C 620.515625 348.785156 607.414062 353.621094 597.164062 362.40625 C 597.164062 362.40625 597.164062 362.40625 597.148438 362.414062 C 584.527344 373.222656 577.285156 388.949219 577.285156 405.550781 C 577.285156 422.15625 584.527344 437.882812 597.148438 448.699219 C 598.09375 449.511719 598.640625 450.691406 598.640625 451.933594 L 598.640625 489.789062 L 669.4375 489.789062 L 669.4375 460.40625 C 658.949219 467.179688 646.65625 470.847656 634.042969 470.847656 C 631.691406 470.847656 629.78125 468.941406 629.78125 466.585938 C 629.78125 464.230469 631.6875 462.324219 634.042969 462.324219 C 647.566406 462.324219 660.667969 457.484375 670.929688 448.699219 C 670.941406 448.691406 670.949219 448.679688 670.960938 448.671875 C 670.988281 448.652344 671.007812 448.632812 671.027344 448.613281 C 679.085938 441.675781 685.019531 432.675781 688.191406 422.589844 C 688.753906 420.8125 690.394531 419.605469 692.257812 419.605469 L 740.804688 419.605469 C 746.515625 419.605469 751.164062 424.25 751.164062 429.96875 Z M 794.496094 460.480469 C 794.496094 459.460938 793.667969 458.640625 792.652344 458.640625 L 737.746094 458.640625 C 736.726562 458.640625 735.90625 459.46875 735.90625 460.480469 L 735.90625 472.691406 C 735.90625 473.703125 736.734375 474.535156 737.746094 474.535156 L 792.652344 474.535156 C 793.667969 474.535156 794.496094 473.710938 794.496094 472.691406 Z M 280.65625 436.152344 C 207.875 436.152344 148.667969 495.386719 148.667969 568.195312 C 148.667969 604.785156 164.050781 640.058594 190.867188 664.976562 C 192.589844 666.574219 195.28125 666.476562 196.886719 664.753906 C 198.488281 663.03125 198.386719 660.335938 196.664062 658.730469 C 171.578125 635.425781 157.1875 602.429688 157.1875 568.195312 C 157.1875 500.085938 212.574219 444.667969 280.660156 444.667969 C 348.75 444.667969 404.136719 500.085938 404.136719 568.195312 C 404.136719 602.515625 389.683594 635.574219 364.484375 658.898438 C 362.753906 660.5 362.652344 663.191406 364.246094 664.914062 C 365.082031 665.820312 366.230469 666.277344 367.371094 666.277344 C 368.40625 666.277344 369.445312 665.90625 370.261719 665.144531 C 397.199219 640.214844 412.648438 604.878906 412.648438 568.1875 C 412.648438 495.378906 353.441406 436.148438 280.660156 436.148438 Z M 403.398438 779.542969 C 391.59375 791.0625 370.882812 791.0625 359.078125 779.542969 C 343.84375 764.679688 318.101562 764.679688 302.847656 779.554688 C 291.042969 791.066406 270.335938 791.066406 258.496094 779.527344 C 243.261719 764.671875 217.527344 764.679688 202.261719 779.5625 C 190.460938 791.066406 169.753906 791.074219 157.957031 779.574219 L 157.882812 779.507812 C 142.65625 764.667969 116.921875 764.667969 101.695312 779.507812 C 100.007812 781.148438 99.972656 783.84375 101.613281 785.53125 C 103.253906 787.21875 105.953125 787.253906 107.632812 785.613281 C 119.429688 774.113281 140.136719 774.113281 151.929688 785.597656 L 152.003906 785.667969 C 159.617188 793.085938 169.847656 796.792969 180.089844 796.792969 C 190.328125 796.792969 200.601562 793.074219 208.234375 785.625 C 220.039062 774.121094 240.746094 774.113281 252.585938 785.652344 C 267.816406 800.507812 293.558594 800.507812 308.808594 785.632812 C 320.613281 774.121094 341.324219 774.121094 353.128906 785.632812 C 368.363281 800.496094 394.105469 800.496094 409.347656 785.632812 C 421.152344 774.113281 441.867188 774.113281 453.671875 785.632812 C 455.351562 787.273438 458.050781 787.238281 459.691406 785.558594 C 461.332031 783.871094 461.296875 781.175781 459.617188 779.535156 C 444.382812 764.671875 418.640625 764.679688 403.40625 779.535156 Z M 459.609375 714.226562 C 461.289062 715.867188 461.324219 718.570312 459.683594 720.25 C 458.042969 721.929688 455.34375 721.964844 453.664062 720.324219 C 441.859375 708.804688 421.144531 708.8125 409.339844 720.324219 C 401.71875 727.757812 391.480469 731.472656 381.234375 731.472656 C 370.988281 731.472656 360.742188 727.757812 353.128906 720.324219 C 353.101562 720.296875 353.070312 720.269531 353.035156 720.238281 L 353.035156 749.925781 C 353.035156 752.277344 351.132812 754.1875 348.777344 754.1875 C 346.421875 754.1875 344.519531 752.28125 344.519531 749.925781 L 344.519531 617.886719 C 344.519531 610.058594 338.152344 603.683594 330.324219 603.683594 C 322.496094 603.683594 316.128906 610.050781 316.128906 617.886719 L 316.128906 642.023438 C 316.128906 644.375 314.226562 646.285156 311.871094 646.285156 C 309.515625 646.285156 307.613281 644.382812 307.613281 642.023438 L 307.613281 603.691406 C 307.613281 598.992188 303.792969 595.171875 299.09375 595.171875 L 293.417969 595.171875 C 288.71875 595.171875 284.902344 598.992188 284.902344 603.691406 L 284.902344 758.453125 C 284.902344 760.804688 282.996094 762.714844 280.640625 762.714844 C 278.285156 762.714844 276.382812 760.8125 276.382812 758.453125 L 276.382812 603.691406 C 276.382812 598.992188 272.5625 595.171875 267.863281 595.171875 C 263.167969 595.171875 259.347656 598.992188 259.347656 603.691406 L 259.347656 693.140625 C 259.347656 695.488281 257.445312 697.398438 255.089844 697.398438 C 252.734375 697.398438 250.828125 695.496094 250.828125 693.140625 L 250.828125 617.890625 C 250.828125 610.066406 244.464844 603.691406 236.636719 603.691406 L 230.957031 603.691406 C 223.136719 603.691406 216.765625 610.058594 216.765625 617.890625 L 216.765625 749.933594 C 216.765625 752.28125 214.863281 754.195312 212.507812 754.195312 C 210.152344 754.195312 208.246094 752.289062 208.246094 749.933594 L 208.246094 720.285156 C 208.246094 720.285156 208.21875 720.304688 208.214844 720.316406 C 200.578125 727.765625 190.320312 731.484375 180.066406 731.484375 C 169.816406 731.484375 159.597656 727.773438 151.984375 720.359375 L 151.9375 720.3125 C 140.125 708.796875 119.425781 708.796875 107.621094 720.304688 C 105.933594 721.945312 103.238281 721.910156 101.597656 720.222656 C 99.960938 718.535156 99.992188 715.839844 101.679688 714.199219 C 116.90625 699.359375 142.640625 699.359375 157.871094 714.199219 L 157.917969 714.246094 C 169.734375 725.765625 190.441406 725.761719 202.238281 714.246094 C 204.082031 712.449219 206.09375 710.851562 208.253906 709.464844 L 208.253906 646.265625 C 186.589844 626.144531 174.1875 597.8125 174.1875 568.203125 C 174.1875 549.03125 179.285156 531.03125 188.179688 515.472656 C 188.328125 515.109375 188.53125 514.769531 188.769531 514.46875 C 198.007812 498.71875 211.167969 485.554688 226.910156 476.308594 C 227.21875 476.066406 227.5625 475.863281 227.933594 475.707031 C 243.484375 466.808594 261.472656 461.71875 280.636719 461.71875 C 299.796875 461.71875 317.796875 466.816406 333.347656 475.714844 C 333.707031 475.863281 334.042969 476.058594 334.347656 476.296875 C 350.09375 485.539062 363.261719 498.714844 372.5 514.46875 C 372.738281 514.769531 372.933594 515.101562 373.082031 515.464844 C 381.984375 531.023438 387.082031 549.023438 387.082031 568.203125 C 387.082031 597.8125 374.6875 626.148438 353.015625 646.265625 L 353.015625 709.441406 C 355.195312 710.835938 357.21875 712.4375 359.054688 714.226562 C 370.859375 725.746094 391.574219 725.746094 403.378906 714.226562 C 418.613281 699.363281 444.355469 699.359375 459.589844 714.226562 Z M 182.828125 563.933594 L 225.308594 563.933594 L 225.308594 521.339844 L 194.679688 521.339844 C 187.707031 534.097656 183.496094 548.558594 182.835938 563.933594 Z M 233.820312 563.933594 L 276.394531 563.933594 L 276.394531 521.339844 L 233.820312 521.339844 Z M 284.914062 512.820312 L 327.488281 512.820312 L 327.488281 482.175781 C 314.738281 475.203125 300.28125 470.988281 284.914062 470.328125 L 284.914062 512.824219 Z M 276.394531 470.320312 C 261.027344 470.980469 246.570312 475.195312 233.820312 482.171875 L 233.820312 512.8125 L 276.394531 512.8125 L 276.394531 470.3125 Z M 284.914062 563.925781 L 327.488281 563.925781 L 327.488281 521.335938 L 284.914062 521.335938 Z M 336.007812 563.925781 L 378.488281 563.925781 C 377.828125 548.550781 373.613281 534.089844 366.644531 521.335938 L 336.015625 521.335938 L 336.015625 563.925781 Z M 336.007812 487.417969 L 336.007812 512.820312 L 361.398438 512.820312 C 354.566406 502.878906 345.949219 494.257812 336.007812 487.417969 Z M 199.917969 512.820312 L 225.308594 512.820312 L 225.308594 487.425781 C 215.375 494.257812 206.753906 502.878906 199.917969 512.820312 Z M 353.035156 617.886719 L 353.035156 634.164062 C 368.425781 617.25 377.484375 595.386719 378.480469 572.449219 L 336.007812 572.449219 L 336.007812 579.546875 C 336.007812 581.894531 334.105469 583.804688 331.75 583.804688 C 329.394531 583.804688 327.488281 581.902344 327.488281 579.546875 L 327.488281 572.449219 L 284.914062 572.449219 L 284.914062 573.867188 C 284.914062 576.214844 283.011719 578.128906 280.65625 578.128906 C 278.300781 578.128906 276.394531 576.222656 276.394531 573.867188 L 276.394531 572.449219 L 233.820312 572.449219 L 233.820312 579.546875 C 233.820312 581.894531 231.917969 583.804688 229.5625 583.804688 C 227.207031 583.804688 225.304688 581.902344 225.304688 579.546875 L 225.304688 572.449219 L 182.828125 572.449219 C 183.828125 595.386719 192.886719 617.257812 208.273438 634.164062 L 208.273438 617.886719 C 208.273438 605.359375 218.457031 595.171875 230.980469 595.171875 L 236.65625 595.171875 C 242.167969 595.171875 247.226562 597.140625 251.160156 600.421875 C 252.683594 592.585938 259.605469 586.65625 267.878906 586.65625 C 272.960938 586.65625 277.53125 588.890625 280.648438 592.4375 C 283.773438 588.890625 288.34375 586.65625 293.417969 586.65625 L 299.09375 586.65625 C 307.371094 586.65625 314.28125 592.589844 315.8125 600.421875 C 319.746094 597.140625 324.808594 595.171875 330.316406 595.171875 C 342.835938 595.171875 353.023438 605.359375 353.023438 617.886719 Z M 259.367188 749.925781 L 259.367188 713.011719 C 259.367188 710.660156 257.464844 708.75 255.109375 708.75 C 252.753906 708.75 250.847656 710.65625 250.847656 713.011719 L 250.847656 749.925781 C 250.847656 752.277344 252.753906 754.1875 255.109375 754.1875 C 257.464844 754.1875 259.367188 752.28125 259.367188 749.925781 Z M 316.136719 749.925781 L 316.136719 670.417969 C 316.136719 668.066406 314.234375 666.15625 311.878906 666.15625 C 309.523438 666.15625 307.617188 668.0625 307.617188 670.417969 L 307.617188 749.925781 C 307.617188 752.277344 309.523438 754.1875 311.878906 754.1875 C 314.234375 754.1875 316.136719 752.28125 316.136719 749.925781 Z M 162.734375 362.304688 L 162.734375 319.070312 L 123.023438 319.070312 C 120.671875 319.070312 118.761719 317.164062 118.761719 314.808594 C 118.761719 312.453125 120.667969 310.546875 123.023438 310.546875 L 162.734375 310.546875 L 162.734375 309.628906 C 162.734375 307.28125 164.640625 305.367188 166.996094 305.367188 C 169.351562 305.367188 171.253906 307.273438 171.253906 309.628906 L 171.253906 310.546875 L 222.226562 310.546875 L 222.226562 262.140625 L 123.023438 262.140625 C 120.671875 262.140625 118.761719 260.234375 118.761719 257.878906 C 118.761719 255.523438 120.667969 253.617188 123.023438 253.617188 L 222.226562 253.617188 L 222.226562 210.382812 L 123.023438 210.382812 C 120.671875 210.382812 118.761719 208.480469 118.761719 206.125 C 118.761719 203.765625 120.667969 201.863281 123.023438 201.863281 L 222.226562 201.863281 L 222.226562 153.457031 L 221.308594 153.457031 C 218.957031 153.457031 217.046875 151.550781 217.046875 149.195312 C 217.046875 146.839844 218.953125 144.933594 221.308594 144.933594 L 221.660156 144.933594 C 220.140625 139.289062 215.691406 134.832031 210.042969 133.3125 L 210.042969 133.664062 C 210.042969 136.015625 208.140625 137.925781 205.785156 137.925781 C 203.429688 137.925781 201.523438 136.019531 201.523438 133.664062 L 201.523438 132.746094 L 123.015625 132.746094 C 120.667969 132.746094 118.757812 130.84375 118.757812 128.484375 C 118.757812 126.128906 120.660156 124.226562 123.015625 124.226562 L 201.523438 124.226562 L 201.523438 80.996094 L 123.015625 80.996094 C 120.667969 80.996094 118.757812 79.09375 118.757812 76.734375 C 118.757812 74.378906 120.660156 72.476562 123.015625 72.476562 L 201.523438 72.476562 L 201.523438 71.558594 C 201.523438 69.207031 203.429688 67.296875 205.785156 67.296875 C 208.140625 67.296875 210.042969 69.199219 210.042969 71.558594 L 210.042969 72.476562 L 226.476562 72.476562 C 257.347656 72.476562 282.464844 97.601562 282.464844 128.484375 L 282.464844 144.925781 L 283.382812 144.925781 C 285.730469 144.925781 287.640625 146.832031 287.640625 149.1875 C 287.640625 151.542969 285.738281 153.449219 283.382812 153.449219 L 282.464844 153.449219 L 282.464844 201.855469 L 315.332031 201.855469 L 315.332031 200.9375 C 315.332031 198.585938 317.238281 196.675781 319.59375 196.675781 C 321.949219 196.675781 323.851562 198.582031 323.851562 200.9375 L 323.851562 201.429688 C 332.355469 199.722656 339.070312 193.003906 340.777344 184.496094 L 340.285156 184.496094 C 337.9375 184.496094 336.027344 182.589844 336.027344 180.234375 C 336.027344 177.878906 337.929688 175.972656 340.285156 175.972656 L 341.203125 175.972656 L 341.203125 50.886719 C 341.203125 48.539062 343.109375 46.628906 345.464844 46.628906 C 347.820312 46.628906 349.722656 48.53125 349.722656 50.886719 L 349.722656 176.007812 L 392.9375 176.007812 L 392.9375 50.886719 C 392.9375 48.539062 394.84375 46.628906 397.199219 46.628906 C 399.554688 46.628906 401.457031 48.53125 401.457031 50.886719 L 401.457031 176.007812 L 402.375 176.007812 C 404.722656 176.007812 406.632812 177.914062 406.632812 180.269531 C 406.632812 182.625 404.730469 184.53125 402.375 184.53125 L 401.457031 184.53125 L 401.457031 206.144531 C 401.457031 237.027344 376.339844 262.152344 345.46875 262.152344 L 323.863281 262.152344 L 323.863281 263.070312 C 323.863281 265.421875 321.960938 267.332031 319.605469 267.332031 C 317.25 267.332031 315.347656 265.429688 315.347656 263.070312 L 315.347656 262.152344 L 282.476562 262.152344 L 282.476562 310.5625 L 395.523438 310.5625 L 395.523438 309.644531 C 395.523438 307.292969 397.425781 305.382812 399.78125 305.382812 C 402.136719 305.382812 404.042969 307.285156 404.042969 309.644531 L 404.042969 310.5625 L 443.753906 310.5625 C 446.105469 310.5625 448.015625 312.464844 448.015625 314.820312 C 448.015625 317.179688 446.109375 319.082031 443.753906 319.082031 L 404.042969 319.082031 L 404.042969 362.316406 L 443.753906 362.316406 C 446.105469 362.316406 448.015625 364.222656 448.015625 366.578125 C 448.015625 368.933594 446.109375 370.839844 443.753906 370.839844 L 404.042969 370.839844 L 404.042969 371.757812 C 404.042969 374.105469 402.136719 376.019531 399.78125 376.019531 C 397.425781 376.019531 395.523438 374.113281 395.523438 371.757812 L 395.523438 370.839844 L 171.253906 370.839844 L 171.253906 371.757812 C 171.253906 374.105469 169.351562 376.019531 166.996094 376.019531 C 164.640625 376.019531 162.734375 374.113281 162.734375 371.757812 L 162.734375 370.839844 L 123.023438 370.839844 C 120.671875 370.839844 118.761719 368.933594 118.761719 366.578125 C 118.761719 364.222656 120.667969 362.316406 123.023438 362.316406 L 162.734375 362.316406 Z M 323.851562 210.085938 L 323.851562 253.625 L 345.457031 253.625 C 371.628906 253.625 392.925781 232.324219 392.925781 206.136719 L 392.925781 184.523438 L 349.40625 184.523438 C 347.527344 197.738281 337.054688 208.210938 323.84375 210.09375 Z M 282.46875 210.390625 L 282.46875 253.625 L 315.339844 253.625 L 315.339844 210.390625 Z M 230.371094 144.949219 L 273.960938 144.949219 L 273.960938 128.503906 C 273.960938 102.320312 252.664062 81.015625 226.492188 81.015625 L 210.054688 81.015625 L 210.054688 124.617188 C 220.402344 126.40625 228.589844 134.589844 230.378906 144.949219 Z M 230.742188 310.546875 L 273.960938 310.546875 L 273.960938 153.460938 L 230.742188 153.460938 Z M 171.253906 362.296875 L 395.515625 362.296875 L 395.515625 319.0625 L 171.253906 319.0625 Z M 171.253906 362.296875 "/></g></g></svg>