<svg xmlns="http://www.w3.org/2000/svg" xmlns:xlink="http://www.w3.org/1999/xlink" width="1080" zoomAndPan="magnify" viewBox="0 0 810 809.999993" height="1080" preserveAspectRatio="xMidYMid meet" version="1.2"><defs><clipPath id="f5d26524cd"><path d="M 359 743 L 415 743 L 415 798.636719 L 359 798.636719 Z M 359 743 "/></clipPath><clipPath id="cf630d9f14"><path d="M 9 743 L 65 743 L 65 798.636719 L 9 798.636719 Z M 9 743 "/></clipPath><clipPath id="9c2d3e2923"><path d="M 173 743 L 229 743 L 229 798.636719 L 173 798.636719 Z M 173 743 "/></clipPath><clipPath id="a6b84ae0bd"><path d="M 331 11.136719 L 810 11.136719 L 810 433 L 331 433 Z M 331 11.136719 "/></clipPath><clipPath id="a4a0c85e39"><path d="M 426 653 L 649 653 L 649 798.636719 L 426 798.636719 Z M 426 653 "/></clipPath></defs><g id="4d3455e110"><path style=" stroke:none;fill-rule:nonzero;fill:#ffffff;fill-opacity:1;" d="M 234.882812 687.125 L 211.519531 687.125 L 211.519531 494.960938 L 234.882812 494.960938 Z M 234.882812 687.125 "/><path style=" stroke:none;fill-rule:nonzero;fill:#292c56;fill-opacity:1;" d="M 234.882812 688.867188 L 211.519531 688.867188 C 210.554688 688.867188 209.773438 688.085938 209.773438 687.125 L 209.773438 494.960938 C 209.773438 493.996094 210.554688 493.21875 211.519531 493.21875 L 234.882812 493.21875 C 235.84375 493.21875 236.625 493.996094 236.625 494.960938 L 236.625 687.125 C 236.625 688.085938 235.84375 688.867188 234.882812 688.867188 Z M 213.265625 685.382812 L 233.144531 685.382812 L 233.144531 496.703125 L 213.265625 496.703125 Z M 213.265625 685.382812 "/><path style=" stroke:none;fill-rule:nonzero;fill:#60afbd;fill-opacity:1;" d="M 37.226562 793.203125 C 43.117188 793.203125 47.886719 788.429688 47.886719 782.542969 L 47.886719 768.074219 C 47.886719 752.863281 58.695312 739.546875 73.582031 736.410156 L 206.53125 708.386719 C 211.113281 707.421875 215.753906 707.457031 220.320312 708.484375 L 353.339844 738.414062 C 368.214844 741.761719 378.601562 754.746094 378.601562 769.988281 L 378.601562 782.550781 C 378.601562 788.441406 383.378906 793.210938 389.265625 793.210938 C 395.15625 793.210938 399.929688 788.4375 399.929688 782.550781 L 399.929688 769.988281 C 399.929688 744.703125 382.695312 723.164062 358.019531 717.613281 L 225 687.683594 C 217.421875 685.980469 209.726562 685.925781 202.128906 687.527344 L 69.175781 715.550781 C 44.476562 720.753906 26.554688 742.847656 26.554688 768.082031 L 26.554688 782.546875 C 26.554688 788.4375 31.328125 793.207031 37.214844 793.207031 Z M 37.226562 793.203125 "/><g clip-rule="nonzero" clip-path="url(#f5d26524cd)"><path style=" stroke:none;fill-rule:nonzero;fill:#60afbd;fill-opacity:1;" d="M 414.492188 770.863281 C 414.492188 771.769531 414.445312 772.667969 414.359375 773.570312 C 414.269531 774.46875 414.136719 775.363281 413.960938 776.25 C 413.785156 777.136719 413.5625 778.011719 413.300781 778.878906 C 413.039062 779.742188 412.734375 780.59375 412.386719 781.425781 C 412.042969 782.261719 411.65625 783.078125 411.230469 783.875 C 410.804688 784.675781 410.339844 785.449219 409.835938 786.199219 C 409.335938 786.953125 408.796875 787.675781 408.222656 788.375 C 407.648438 789.074219 407.042969 789.742188 406.402344 790.382812 C 405.761719 791.023438 405.09375 791.628906 404.394531 792.203125 C 403.695312 792.777344 402.96875 793.3125 402.21875 793.816406 C 401.464844 794.320312 400.691406 794.78125 399.894531 795.210938 C 399.097656 795.636719 398.28125 796.023438 397.445312 796.367188 C 396.609375 796.714844 395.757812 797.019531 394.894531 797.28125 C 394.027344 797.542969 393.152344 797.761719 392.265625 797.9375 C 391.378906 798.113281 390.484375 798.246094 389.585938 798.335938 C 388.683594 798.425781 387.78125 798.46875 386.878906 798.46875 C 385.972656 798.46875 385.070312 798.425781 384.171875 798.335938 C 383.269531 798.246094 382.378906 798.113281 381.492188 797.9375 C 380.601562 797.761719 379.726562 797.542969 378.863281 797.28125 C 377.996094 797.019531 377.144531 796.714844 376.308594 796.367188 C 375.476562 796.023438 374.660156 795.636719 373.859375 795.210938 C 373.0625 794.78125 372.289062 794.320312 371.535156 793.816406 C 370.785156 793.3125 370.058594 792.777344 369.359375 792.203125 C 368.660156 791.628906 367.992188 791.023438 367.351562 790.382812 C 366.710938 789.742188 366.105469 789.074219 365.53125 788.375 C 364.957031 787.675781 364.421875 786.953125 363.917969 786.199219 C 363.414062 785.449219 362.953125 784.675781 362.523438 783.875 C 362.097656 783.078125 361.710938 782.261719 361.367188 781.425781 C 361.019531 780.59375 360.714844 779.742188 360.453125 778.878906 C 360.191406 778.011719 359.972656 777.136719 359.796875 776.25 C 359.617188 775.363281 359.484375 774.46875 359.398438 773.570312 C 359.308594 772.667969 359.265625 771.769531 359.265625 770.863281 C 359.265625 769.960938 359.308594 769.058594 359.398438 768.15625 C 359.484375 767.257812 359.617188 766.363281 359.796875 765.476562 C 359.972656 764.589844 360.191406 763.714844 360.453125 762.851562 C 360.714844 761.984375 361.019531 761.136719 361.367188 760.300781 C 361.710938 759.464844 362.097656 758.648438 362.523438 757.851562 C 362.953125 757.054688 363.414062 756.277344 363.917969 755.527344 C 364.421875 754.773438 364.957031 754.050781 365.53125 753.351562 C 366.105469 752.652344 366.710938 751.984375 367.351562 751.34375 C 367.992188 750.703125 368.660156 750.097656 369.359375 749.523438 C 370.058594 748.949219 370.785156 748.414062 371.535156 747.910156 C 372.289062 747.410156 373.0625 746.945312 373.859375 746.519531 C 374.660156 746.09375 375.476562 745.707031 376.308594 745.359375 C 377.144531 745.015625 377.996094 744.710938 378.863281 744.445312 C 379.726562 744.183594 380.601562 743.964844 381.492188 743.789062 C 382.378906 743.613281 383.269531 743.480469 384.171875 743.390625 C 385.070312 743.304688 385.972656 743.257812 386.878906 743.257812 C 387.78125 743.257812 388.683594 743.304688 389.585938 743.390625 C 390.484375 743.480469 391.378906 743.613281 392.265625 743.789062 C 393.152344 743.964844 394.027344 744.183594 394.894531 744.445312 C 395.757812 744.710938 396.609375 745.015625 397.445312 745.359375 C 398.28125 745.707031 399.097656 746.09375 399.894531 746.519531 C 400.691406 746.945312 401.464844 747.410156 402.21875 747.910156 C 402.96875 748.414062 403.695312 748.949219 404.394531 749.523438 C 405.09375 750.097656 405.761719 750.703125 406.402344 751.34375 C 407.042969 751.984375 407.648438 752.652344 408.222656 753.351562 C 408.796875 754.050781 409.335938 754.777344 409.835938 755.527344 C 410.339844 756.277344 410.804688 757.054688 411.230469 757.851562 C 411.65625 758.648438 412.042969 759.464844 412.386719 760.300781 C 412.734375 761.136719 413.039062 761.984375 413.300781 762.851562 C 413.5625 763.714844 413.785156 764.589844 413.960938 765.476562 C 414.136719 766.363281 414.269531 767.257812 414.359375 768.15625 C 414.445312 769.058594 414.492188 769.960938 414.492188 770.863281 Z M 414.492188 770.863281 "/></g><g clip-rule="nonzero" clip-path="url(#cf630d9f14)"><path style=" stroke:none;fill-rule:nonzero;fill:#60afbd;fill-opacity:1;" d="M 64.839844 770.863281 C 64.839844 771.769531 64.792969 772.667969 64.707031 773.570312 C 64.617188 774.46875 64.484375 775.363281 64.308594 776.25 C 64.132812 777.136719 63.910156 778.011719 63.648438 778.878906 C 63.386719 779.742188 63.082031 780.59375 62.738281 781.425781 C 62.390625 782.261719 62.003906 783.078125 61.578125 783.875 C 61.152344 784.675781 60.6875 785.449219 60.183594 786.199219 C 59.683594 786.953125 59.144531 787.675781 58.570312 788.375 C 57.996094 789.074219 57.390625 789.742188 56.75 790.382812 C 56.109375 791.023438 55.441406 791.628906 54.742188 792.203125 C 54.042969 792.777344 53.316406 793.3125 52.566406 793.816406 C 51.8125 794.320312 51.039062 794.78125 50.242188 795.210938 C 49.445312 795.636719 48.628906 796.023438 47.792969 796.367188 C 46.957031 796.714844 46.105469 797.019531 45.242188 797.28125 C 44.375 797.542969 43.5 797.761719 42.613281 797.9375 C 41.726562 798.113281 40.832031 798.246094 39.933594 798.335938 C 39.03125 798.425781 38.128906 798.46875 37.226562 798.46875 C 36.320312 798.46875 35.417969 798.425781 34.519531 798.335938 C 33.617188 798.246094 32.726562 798.113281 31.839844 797.9375 C 30.953125 797.761719 30.074219 797.542969 29.210938 797.28125 C 28.34375 797.019531 27.492188 796.714844 26.660156 796.367188 C 25.824219 796.023438 25.007812 795.636719 24.207031 795.210938 C 23.410156 794.78125 22.636719 794.320312 21.882812 793.816406 C 21.132812 793.3125 20.40625 792.777344 19.707031 792.203125 C 19.007812 791.628906 18.339844 791.023438 17.699219 790.382812 C 17.0625 789.742188 16.453125 789.074219 15.878906 788.375 C 15.304688 787.675781 14.769531 786.953125 14.265625 786.199219 C 13.761719 785.449219 13.300781 784.675781 12.871094 783.875 C 12.445312 783.078125 12.058594 782.261719 11.714844 781.425781 C 11.367188 780.59375 11.0625 779.742188 10.800781 778.878906 C 10.539062 778.011719 10.320312 777.136719 10.144531 776.25 C 9.964844 775.363281 9.835938 774.46875 9.746094 773.570312 C 9.65625 772.667969 9.613281 771.769531 9.613281 770.863281 C 9.613281 769.960938 9.65625 769.058594 9.746094 768.15625 C 9.835938 767.257812 9.964844 766.363281 10.144531 765.476562 C 10.320312 764.589844 10.539062 763.714844 10.800781 762.851562 C 11.0625 761.984375 11.367188 761.136719 11.714844 760.300781 C 12.058594 759.464844 12.445312 758.648438 12.871094 757.851562 C 13.300781 757.054688 13.761719 756.277344 14.265625 755.527344 C 14.769531 754.773438 15.304688 754.050781 15.878906 753.351562 C 16.453125 752.652344 17.0625 751.984375 17.699219 751.34375 C 18.339844 750.703125 19.007812 750.097656 19.707031 749.523438 C 20.40625 748.949219 21.132812 748.414062 21.882812 747.910156 C 22.636719 747.410156 23.410156 746.945312 24.207031 746.519531 C 25.007812 746.09375 25.824219 745.707031 26.660156 745.359375 C 27.492188 745.015625 28.34375 744.710938 29.210938 744.445312 C 30.074219 744.183594 30.953125 743.964844 31.839844 743.789062 C 32.726562 743.613281 33.617188 743.480469 34.519531 743.390625 C 35.417969 743.304688 36.320312 743.257812 37.226562 743.257812 C 38.128906 743.257812 39.03125 743.304688 39.933594 743.390625 C 40.832031 743.480469 41.726562 743.613281 42.613281 743.789062 C 43.5 743.964844 44.375 744.183594 45.242188 744.445312 C 46.105469 744.710938 46.957031 745.015625 47.792969 745.359375 C 48.628906 745.707031 49.445312 746.09375 50.242188 746.519531 C 51.039062 746.945312 51.8125 747.410156 52.566406 747.910156 C 53.316406 748.414062 54.042969 748.949219 54.742188 749.523438 C 55.441406 750.097656 56.109375 750.703125 56.75 751.34375 C 57.390625 751.984375 57.996094 752.652344 58.570312 753.351562 C 59.144531 754.050781 59.683594 754.777344 60.183594 755.527344 C 60.6875 756.277344 61.152344 757.054688 61.578125 757.851562 C 62.003906 758.648438 62.390625 759.464844 62.738281 760.300781 C 63.082031 761.136719 63.386719 761.984375 63.648438 762.851562 C 63.910156 763.714844 64.132812 764.589844 64.308594 765.476562 C 64.484375 766.363281 64.617188 767.257812 64.707031 768.15625 C 64.792969 769.058594 64.839844 769.960938 64.839844 770.863281 Z M 64.839844 770.863281 "/></g><g clip-rule="nonzero" clip-path="url(#9c2d3e2923)"><path style=" stroke:none;fill-rule:nonzero;fill:#60afbd;fill-opacity:1;" d="M 228.382812 770.863281 C 228.378906 771.769531 228.335938 772.667969 228.246094 773.570312 C 228.160156 774.46875 228.027344 775.363281 227.851562 776.25 C 227.675781 777.136719 227.453125 778.011719 227.191406 778.878906 C 226.929688 779.742188 226.625 780.59375 226.277344 781.425781 C 225.933594 782.261719 225.546875 783.078125 225.121094 783.875 C 224.695312 784.675781 224.230469 785.449219 223.726562 786.199219 C 223.226562 786.953125 222.6875 787.675781 222.113281 788.375 C 221.539062 789.074219 220.933594 789.742188 220.292969 790.382812 C 219.652344 791.023438 218.984375 791.628906 218.285156 792.203125 C 217.585938 792.777344 216.859375 793.3125 216.109375 793.816406 C 215.355469 794.320312 214.582031 794.78125 213.785156 795.210938 C 212.988281 795.636719 212.171875 796.023438 211.335938 796.367188 C 210.5 796.714844 209.648438 797.019531 208.785156 797.28125 C 207.917969 797.542969 207.042969 797.761719 206.15625 797.9375 C 205.269531 798.113281 204.375 798.246094 203.472656 798.335938 C 202.574219 798.425781 201.671875 798.46875 200.769531 798.46875 C 199.863281 798.46875 198.960938 798.425781 198.0625 798.335938 C 197.160156 798.246094 196.269531 798.113281 195.382812 797.9375 C 194.492188 797.761719 193.617188 797.542969 192.753906 797.28125 C 191.886719 797.019531 191.035156 796.714844 190.199219 796.367188 C 189.367188 796.023438 188.550781 795.636719 187.75 795.210938 C 186.953125 794.78125 186.179688 794.320312 185.425781 793.816406 C 184.675781 793.3125 183.949219 792.777344 183.25 792.203125 C 182.550781 791.628906 181.882812 791.023438 181.242188 790.382812 C 180.601562 789.742188 179.996094 789.074219 179.421875 788.375 C 178.847656 787.675781 178.3125 786.953125 177.808594 786.199219 C 177.304688 785.449219 176.839844 784.675781 176.414062 783.875 C 175.988281 783.078125 175.601562 782.261719 175.257812 781.425781 C 174.910156 780.59375 174.605469 779.742188 174.34375 778.878906 C 174.082031 778.011719 173.863281 777.136719 173.683594 776.25 C 173.507812 775.363281 173.375 774.46875 173.289062 773.570312 C 173.199219 772.667969 173.15625 771.769531 173.15625 770.863281 C 173.15625 769.960938 173.199219 769.058594 173.289062 768.15625 C 173.375 767.257812 173.507812 766.363281 173.683594 765.476562 C 173.863281 764.589844 174.082031 763.714844 174.34375 762.851562 C 174.605469 761.984375 174.910156 761.136719 175.257812 760.300781 C 175.601562 759.464844 175.988281 758.648438 176.414062 757.851562 C 176.839844 757.054688 177.304688 756.277344 177.808594 755.527344 C 178.3125 754.773438 178.847656 754.050781 179.421875 753.351562 C 179.996094 752.652344 180.601562 751.984375 181.242188 751.34375 C 181.882812 750.703125 182.550781 750.097656 183.25 749.523438 C 183.949219 748.949219 184.675781 748.414062 185.425781 747.910156 C 186.179688 747.410156 186.953125 746.945312 187.75 746.519531 C 188.550781 746.09375 189.367188 745.707031 190.199219 745.359375 C 191.035156 745.015625 191.886719 744.710938 192.753906 744.445312 C 193.617188 744.183594 194.492188 743.964844 195.382812 743.789062 C 196.269531 743.613281 197.160156 743.480469 198.0625 743.390625 C 198.960938 743.304688 199.863281 743.257812 200.769531 743.257812 C 201.671875 743.257812 202.574219 743.304688 203.472656 743.390625 C 204.375 743.480469 205.269531 743.613281 206.15625 743.789062 C 207.042969 743.964844 207.917969 744.183594 208.785156 744.445312 C 209.648438 744.710938 210.5 745.015625 211.335938 745.359375 C 212.171875 745.707031 212.988281 746.09375 213.785156 746.519531 C 214.582031 746.945312 215.355469 747.410156 216.109375 747.910156 C 216.859375 748.414062 217.585938 748.949219 218.285156 749.523438 C 218.984375 750.097656 219.652344 750.703125 220.292969 751.34375 C 220.933594 751.984375 221.539062 752.652344 222.113281 753.351562 C 222.6875 754.050781 223.226562 754.777344 223.726562 755.527344 C 224.230469 756.277344 224.695312 757.054688 225.121094 757.851562 C 225.546875 758.648438 225.933594 759.464844 226.277344 760.300781 C 226.625 761.136719 226.929688 761.984375 227.191406 762.851562 C 227.453125 763.714844 227.675781 764.589844 227.851562 765.476562 C 228.027344 766.363281 228.160156 767.257812 228.246094 768.15625 C 228.335938 769.058594 228.378906 769.960938 228.382812 770.863281 Z M 228.382812 770.863281 "/></g><path style=" stroke:none;fill-rule:nonzero;fill:#60afbd;fill-opacity:1;" d="M 197.71875 774.894531 C 202.304688 774.894531 206.546875 771.910156 207.929688 767.292969 L 227.976562 700.40625 C 229.667969 694.765625 226.464844 688.824219 220.820312 687.132812 C 215.167969 685.449219 209.234375 688.648438 207.542969 694.285156 L 187.5 761.171875 C 185.808594 766.8125 189.011719 772.753906 194.65625 774.445312 C 195.675781 774.75 196.707031 774.898438 197.71875 774.898438 Z M 197.71875 774.894531 "/><path style=" stroke:none;fill-rule:nonzero;fill:#60afbd;fill-opacity:1;" d="M 241.335938 706.105469 L 205.074219 706.105469 C 204.589844 706.105469 204.113281 706.058594 203.636719 705.964844 C 203.164062 705.871094 202.703125 705.730469 202.257812 705.546875 C 201.8125 705.359375 201.386719 705.132812 200.988281 704.867188 C 200.585938 704.597656 200.214844 704.292969 199.871094 703.949219 C 199.53125 703.609375 199.226562 703.238281 198.957031 702.835938 C 198.6875 702.433594 198.460938 702.011719 198.277344 701.566406 C 198.09375 701.121094 197.953125 700.660156 197.859375 700.1875 C 197.765625 699.710938 197.71875 699.234375 197.71875 698.75 L 197.71875 608.351562 C 197.71875 607.871094 197.765625 607.390625 197.859375 606.917969 C 197.953125 606.445312 198.09375 605.984375 198.277344 605.539062 C 198.460938 605.09375 198.6875 604.667969 198.957031 604.265625 C 199.226562 603.867188 199.53125 603.492188 199.871094 603.152344 C 200.214844 602.8125 200.585938 602.507812 200.988281 602.238281 C 201.386719 601.96875 201.8125 601.742188 202.257812 601.558594 C 202.703125 601.375 203.164062 601.234375 203.636719 601.140625 C 204.113281 601.046875 204.589844 601 205.074219 601 L 241.335938 601 C 241.820312 601 242.296875 601.046875 242.769531 601.140625 C 243.242188 601.234375 243.703125 601.375 244.148438 601.558594 C 244.597656 601.742188 245.019531 601.96875 245.421875 602.238281 C 245.824219 602.507812 246.195312 602.8125 246.535156 603.152344 C 246.878906 603.492188 247.183594 603.867188 247.453125 604.265625 C 247.71875 604.667969 247.945312 605.09375 248.132812 605.539062 C 248.316406 605.984375 248.457031 606.445312 248.550781 606.917969 C 248.644531 607.390625 248.691406 607.871094 248.691406 608.351562 L 248.691406 698.75 C 248.691406 699.234375 248.644531 699.710938 248.550781 700.1875 C 248.457031 700.660156 248.316406 701.121094 248.132812 701.566406 C 247.945312 702.011719 247.71875 702.433594 247.453125 702.835938 C 247.183594 703.238281 246.878906 703.609375 246.535156 703.949219 C 246.195312 704.292969 245.824219 704.597656 245.421875 704.867188 C 245.019531 705.132812 244.597656 705.359375 244.148438 705.546875 C 243.703125 705.730469 243.242188 705.871094 242.769531 705.964844 C 242.296875 706.058594 241.820312 706.105469 241.335938 706.105469 Z M 241.335938 706.105469 "/><path style=" stroke:none;fill-rule:nonzero;fill:#ffffff;fill-opacity:1;" d="M 346.816406 13.070312 L 795.066406 13.070312 C 795.933594 13.070312 796.796875 13.15625 797.648438 13.324219 C 798.5 13.492188 799.324219 13.746094 800.128906 14.078125 C 800.929688 14.410156 801.691406 14.816406 802.414062 15.296875 C 803.136719 15.78125 803.804688 16.328125 804.417969 16.941406 C 805.03125 17.558594 805.582031 18.226562 806.0625 18.945312 C 806.546875 19.667969 806.953125 20.429688 807.285156 21.230469 C 807.617188 22.035156 807.867188 22.859375 808.039062 23.710938 C 808.207031 24.5625 808.292969 25.421875 808.292969 26.292969 L 808.292969 417.089844 C 808.292969 417.957031 808.207031 418.816406 808.039062 419.667969 C 807.867188 420.519531 807.617188 421.347656 807.285156 422.148438 C 806.953125 422.949219 806.546875 423.710938 806.0625 424.433594 C 805.582031 425.15625 805.03125 425.824219 804.417969 426.4375 C 803.804688 427.050781 803.136719 427.601562 802.414062 428.082031 C 801.691406 428.5625 800.929688 428.972656 800.128906 429.304688 C 799.324219 429.636719 798.5 429.886719 797.648438 430.054688 C 796.796875 430.226562 795.933594 430.308594 795.066406 430.308594 L 346.816406 430.308594 C 345.945312 430.308594 345.085938 430.226562 344.234375 430.054688 C 343.382812 429.886719 342.558594 429.636719 341.753906 429.304688 C 340.953125 428.972656 340.191406 428.5625 339.46875 428.082031 C 338.746094 427.601562 338.078125 427.050781 337.464844 426.4375 C 336.851562 425.824219 336.300781 425.15625 335.820312 424.433594 C 335.335938 423.710938 334.929688 422.949219 334.597656 422.148438 C 334.265625 421.347656 334.015625 420.519531 333.84375 419.667969 C 333.675781 418.816406 333.589844 417.957031 333.589844 417.089844 L 333.589844 26.292969 C 333.589844 25.421875 333.675781 24.5625 333.84375 23.710938 C 334.015625 22.859375 334.265625 22.035156 334.597656 21.230469 C 334.929688 20.429688 335.335938 19.667969 335.820312 18.945312 C 336.300781 18.226562 336.851562 17.558594 337.464844 16.941406 C 338.078125 16.328125 338.746094 15.78125 339.46875 15.296875 C 340.191406 14.816406 340.953125 14.410156 341.753906 14.078125 C 342.558594 13.746094 343.382812 13.492188 344.234375 13.324219 C 345.085938 13.15625 345.945312 13.070312 346.816406 13.070312 Z M 346.816406 13.070312 "/><g clip-rule="nonzero" clip-path="url(#a6b84ae0bd)"><path style=" stroke:none;fill-rule:nonzero;fill:#292c56;fill-opacity:1;" d="M 795.066406 432.054688 L 346.816406 432.054688 C 338.5625 432.054688 331.847656 425.339844 331.847656 417.089844 L 331.847656 26.292969 C 331.847656 18.042969 338.5625 11.328125 346.816406 11.328125 L 795.066406 11.328125 C 803.320312 11.328125 810.035156 18.042969 810.035156 26.292969 L 810.035156 417.089844 C 810.035156 425.339844 803.320312 432.054688 795.066406 432.054688 Z M 346.816406 14.8125 C 340.484375 14.8125 335.332031 19.960938 335.332031 26.292969 L 335.332031 417.089844 C 335.332031 423.417969 340.484375 428.566406 346.816406 428.566406 L 795.066406 428.566406 C 801.398438 428.566406 806.550781 423.417969 806.550781 417.089844 L 806.550781 26.292969 C 806.550781 19.960938 801.398438 14.8125 795.066406 14.8125 Z M 346.816406 14.8125 "/></g><path style=" stroke:none;fill-rule:nonzero;fill:#292c56;fill-opacity:1;" d="M 362.0625 27.214844 L 418.476562 27.214844 C 418.910156 27.214844 419.335938 27.257812 419.757812 27.339844 C 420.183594 27.425781 420.59375 27.550781 420.992188 27.714844 C 421.390625 27.878906 421.769531 28.082031 422.128906 28.324219 C 422.488281 28.5625 422.820312 28.835938 423.125 29.140625 C 423.429688 29.445312 423.703125 29.777344 423.941406 30.132812 C 424.179688 30.492188 424.382812 30.871094 424.546875 31.269531 C 424.714844 31.667969 424.839844 32.078125 424.921875 32.503906 C 425.007812 32.925781 425.046875 33.351562 425.046875 33.785156 L 425.046875 34.042969 C 425.046875 34.472656 425.007812 34.898438 424.921875 35.324219 C 424.839844 35.746094 424.714844 36.15625 424.546875 36.554688 C 424.382812 36.953125 424.179688 37.332031 423.941406 37.691406 C 423.703125 38.050781 423.429688 38.382812 423.125 38.6875 C 422.820312 38.992188 422.488281 39.265625 422.128906 39.503906 C 421.769531 39.742188 421.390625 39.945312 420.992188 40.109375 C 420.59375 40.277344 420.183594 40.398438 419.757812 40.484375 C 419.335938 40.570312 418.910156 40.609375 418.476562 40.609375 L 362.0625 40.609375 C 361.628906 40.609375 361.203125 40.570312 360.78125 40.484375 C 360.355469 40.398438 359.945312 40.277344 359.546875 40.109375 C 359.148438 39.945312 358.769531 39.742188 358.410156 39.503906 C 358.050781 39.265625 357.722656 38.992188 357.414062 38.6875 C 357.109375 38.382812 356.839844 38.050781 356.597656 37.691406 C 356.359375 37.332031 356.15625 36.953125 355.992188 36.554688 C 355.824219 36.15625 355.703125 35.746094 355.617188 35.324219 C 355.53125 34.898438 355.492188 34.472656 355.492188 34.042969 L 355.492188 33.785156 C 355.492188 33.351562 355.53125 32.925781 355.617188 32.503906 C 355.703125 32.078125 355.824219 31.667969 355.992188 31.269531 C 356.15625 30.871094 356.359375 30.492188 356.597656 30.132812 C 356.839844 29.777344 357.109375 29.445312 357.414062 29.140625 C 357.722656 28.835938 358.050781 28.5625 358.410156 28.324219 C 358.769531 28.082031 359.148438 27.878906 359.546875 27.714844 C 359.945312 27.550781 360.355469 27.425781 360.78125 27.339844 C 361.203125 27.257812 361.628906 27.214844 362.0625 27.214844 Z M 362.0625 27.214844 "/><path style=" stroke:none;fill-rule:nonzero;fill:#ffffff;fill-opacity:1;" d="M 361.347656 72.285156 L 590.171875 72.285156 C 590.558594 72.285156 590.9375 72.320312 591.316406 72.398438 C 591.691406 72.472656 592.058594 72.582031 592.414062 72.730469 C 592.769531 72.878906 593.105469 73.058594 593.425781 73.269531 C 593.746094 73.484375 594.042969 73.726562 594.3125 74 C 594.585938 74.269531 594.828125 74.566406 595.042969 74.886719 C 595.253906 75.207031 595.4375 75.542969 595.582031 75.898438 C 595.730469 76.253906 595.839844 76.621094 595.917969 76.996094 C 595.992188 77.375 596.027344 77.753906 596.027344 78.140625 L 596.027344 205.277344 C 596.027344 205.664062 595.992188 206.042969 595.917969 206.421875 C 595.839844 206.796875 595.730469 207.164062 595.582031 207.519531 C 595.4375 207.875 595.253906 208.210938 595.042969 208.53125 C 594.828125 208.851562 594.585938 209.148438 594.3125 209.417969 C 594.042969 209.691406 593.746094 209.933594 593.425781 210.148438 C 593.105469 210.359375 592.769531 210.539062 592.414062 210.6875 C 592.058594 210.835938 591.691406 210.945312 591.316406 211.019531 C 590.9375 211.097656 590.558594 211.132812 590.171875 211.132812 L 361.347656 211.132812 C 360.960938 211.132812 360.582031 211.097656 360.203125 211.019531 C 359.828125 210.945312 359.460938 210.835938 359.105469 210.6875 C 358.75 210.539062 358.414062 210.359375 358.09375 210.148438 C 357.773438 209.933594 357.476562 209.691406 357.207031 209.417969 C 356.933594 209.148438 356.691406 208.851562 356.476562 208.53125 C 356.265625 208.210938 356.082031 207.875 355.9375 207.519531 C 355.789062 207.164062 355.679688 206.796875 355.605469 206.421875 C 355.527344 206.042969 355.492188 205.664062 355.492188 205.277344 L 355.492188 78.140625 C 355.492188 77.753906 355.527344 77.375 355.605469 76.996094 C 355.679688 76.621094 355.789062 76.253906 355.9375 75.898438 C 356.082031 75.542969 356.265625 75.207031 356.476562 74.886719 C 356.691406 74.566406 356.933594 74.269531 357.207031 74 C 357.476562 73.726562 357.773438 73.484375 358.09375 73.269531 C 358.414062 73.058594 358.75 72.878906 359.105469 72.730469 C 359.460938 72.582031 359.828125 72.472656 360.203125 72.398438 C 360.582031 72.320312 360.960938 72.285156 361.347656 72.285156 Z M 361.347656 72.285156 "/><path style=" stroke:none;fill-rule:nonzero;fill:#292c56;fill-opacity:1;" d="M 590.171875 212.875 L 361.351562 212.875 C 357.160156 212.875 353.75 209.46875 353.75 205.277344 L 353.75 78.140625 C 353.75 73.949219 357.15625 70.542969 361.351562 70.542969 L 590.171875 70.542969 C 594.363281 70.542969 597.773438 73.949219 597.773438 78.140625 L 597.773438 205.273438 C 597.773438 209.464844 594.363281 212.871094 590.171875 212.871094 Z M 361.351562 74.027344 C 359.082031 74.027344 357.234375 75.875 357.234375 78.140625 L 357.234375 205.273438 C 357.234375 207.542969 359.082031 209.386719 361.351562 209.386719 L 590.171875 209.386719 C 592.441406 209.386719 594.285156 207.539062 594.285156 205.273438 L 594.285156 78.140625 C 594.285156 75.871094 592.441406 74.027344 590.171875 74.027344 Z M 361.351562 74.027344 "/><path style=" stroke:none;fill-rule:nonzero;fill:#dce7ea;fill-opacity:1;" d="M 625.78125 72.285156 L 680.175781 72.285156 C 680.558594 72.285156 680.941406 72.320312 681.316406 72.398438 C 681.695312 72.472656 682.0625 72.582031 682.417969 72.730469 C 682.773438 72.878906 683.109375 73.058594 683.429688 73.269531 C 683.75 73.484375 684.042969 73.726562 684.316406 74 C 684.589844 74.269531 684.832031 74.566406 685.042969 74.886719 C 685.257812 75.207031 685.4375 75.542969 685.585938 75.898438 C 685.734375 76.253906 685.84375 76.621094 685.917969 76.996094 C 685.992188 77.375 686.03125 77.753906 686.03125 78.140625 L 686.03125 107.039062 C 686.03125 107.421875 685.992188 107.804688 685.917969 108.179688 C 685.84375 108.558594 685.734375 108.921875 685.585938 109.277344 C 685.4375 109.632812 685.257812 109.972656 685.042969 110.289062 C 684.832031 110.609375 684.589844 110.90625 684.316406 111.179688 C 684.042969 111.449219 683.75 111.691406 683.429688 111.90625 C 683.109375 112.121094 682.769531 112.300781 682.417969 112.445312 C 682.0625 112.59375 681.695312 112.707031 681.316406 112.78125 C 680.941406 112.855469 680.558594 112.894531 680.175781 112.894531 L 625.78125 112.894531 C 625.398438 112.894531 625.015625 112.855469 624.640625 112.78125 C 624.261719 112.707031 623.894531 112.59375 623.539062 112.445312 C 623.183594 112.300781 622.847656 112.121094 622.527344 111.90625 C 622.207031 111.691406 621.914062 111.449219 621.640625 111.179688 C 621.367188 110.90625 621.125 110.609375 620.910156 110.289062 C 620.699219 109.972656 620.519531 109.632812 620.371094 109.277344 C 620.222656 108.921875 620.113281 108.558594 620.039062 108.179688 C 619.960938 107.804688 619.925781 107.421875 619.925781 107.039062 L 619.925781 78.140625 C 619.925781 77.753906 619.960938 77.375 620.039062 76.996094 C 620.113281 76.621094 620.222656 76.253906 620.371094 75.898438 C 620.519531 75.542969 620.699219 75.207031 620.910156 74.886719 C 621.125 74.566406 621.367188 74.269531 621.640625 74 C 621.914062 73.726562 622.207031 73.484375 622.527344 73.269531 C 622.847656 73.058594 623.183594 72.878906 623.539062 72.730469 C 623.894531 72.582031 624.261719 72.472656 624.640625 72.398438 C 625.015625 72.320312 625.398438 72.285156 625.78125 72.285156 Z M 625.78125 72.285156 "/><path style=" stroke:none;fill-rule:nonzero;fill:#ffffff;fill-opacity:1;" d="M 625.78125 131.753906 L 680.175781 131.753906 C 680.558594 131.753906 680.941406 131.792969 681.316406 131.867188 C 681.695312 131.941406 682.0625 132.054688 682.417969 132.199219 C 682.773438 132.347656 683.109375 132.527344 683.429688 132.742188 C 683.75 132.957031 684.042969 133.199219 684.316406 133.46875 C 684.589844 133.742188 684.832031 134.039062 685.042969 134.355469 C 685.257812 134.675781 685.4375 135.015625 685.585938 135.367188 C 685.734375 135.722656 685.84375 136.089844 685.917969 136.46875 C 685.992188 136.84375 686.03125 137.226562 686.03125 137.609375 L 686.03125 166.507812 C 686.03125 166.894531 685.992188 167.273438 685.917969 167.652344 C 685.84375 168.027344 685.734375 168.394531 685.585938 168.75 C 685.4375 169.105469 685.257812 169.441406 685.042969 169.761719 C 684.832031 170.082031 684.589844 170.375 684.316406 170.648438 C 684.042969 170.921875 683.75 171.164062 683.429688 171.375 C 683.109375 171.589844 682.769531 171.769531 682.417969 171.917969 C 682.0625 172.066406 681.695312 172.175781 681.316406 172.25 C 680.941406 172.324219 680.558594 172.363281 680.175781 172.363281 L 625.78125 172.363281 C 625.398438 172.363281 625.015625 172.324219 624.640625 172.25 C 624.261719 172.175781 623.894531 172.066406 623.539062 171.917969 C 623.183594 171.769531 622.847656 171.589844 622.527344 171.375 C 622.207031 171.164062 621.914062 170.921875 621.640625 170.648438 C 621.367188 170.375 621.125 170.082031 620.910156 169.761719 C 620.699219 169.441406 620.519531 169.105469 620.371094 168.75 C 620.222656 168.394531 620.113281 168.027344 620.039062 167.652344 C 619.960938 167.273438 619.925781 166.894531 619.925781 166.507812 L 619.925781 137.609375 C 619.925781 137.226562 619.960938 136.84375 620.039062 136.46875 C 620.113281 136.089844 620.222656 135.722656 620.371094 135.367188 C 620.519531 135.015625 620.699219 134.675781 620.910156 134.355469 C 621.125 134.039062 621.367188 133.742188 621.640625 133.46875 C 621.914062 133.199219 622.207031 132.957031 622.527344 132.742188 C 622.847656 132.527344 623.183594 132.347656 623.539062 132.199219 C 623.894531 132.054688 624.261719 131.941406 624.640625 131.867188 C 625.015625 131.792969 625.398438 131.753906 625.78125 131.753906 Z M 625.78125 131.753906 "/><path style=" stroke:none;fill-rule:nonzero;fill:#292c56;fill-opacity:1;" d="M 680.171875 174.105469 L 625.78125 174.105469 C 621.589844 174.105469 618.179688 170.699219 618.179688 166.507812 L 618.179688 137.613281 C 618.179688 133.421875 621.585938 130.015625 625.78125 130.015625 L 680.171875 130.015625 C 684.363281 130.015625 687.773438 133.421875 687.773438 137.613281 L 687.773438 166.507812 C 687.773438 170.699219 684.367188 174.105469 680.171875 174.105469 Z M 625.78125 133.496094 C 623.511719 133.496094 621.664062 135.34375 621.664062 137.609375 L 621.664062 166.503906 C 621.664062 168.773438 623.511719 170.617188 625.78125 170.617188 L 680.171875 170.617188 C 682.441406 170.617188 684.289062 168.769531 684.289062 166.503906 L 684.289062 137.609375 C 684.289062 135.339844 682.441406 133.496094 680.171875 133.496094 Z M 625.78125 133.496094 "/><path style=" stroke:none;fill-rule:nonzero;fill:#dce7ea;fill-opacity:1;" d="M 625.78125 191.226562 L 680.175781 191.226562 C 680.558594 191.226562 680.941406 191.261719 681.316406 191.339844 C 681.695312 191.414062 682.0625 191.523438 682.417969 191.671875 C 682.773438 191.816406 683.109375 192 683.429688 192.210938 C 683.75 192.425781 684.042969 192.667969 684.316406 192.941406 C 684.589844 193.210938 684.832031 193.507812 685.042969 193.828125 C 685.257812 194.148438 685.4375 194.484375 685.585938 194.839844 C 685.734375 195.195312 685.84375 195.5625 685.917969 195.9375 C 685.992188 196.316406 686.03125 196.695312 686.03125 197.082031 L 686.03125 225.980469 C 686.03125 226.363281 685.992188 226.746094 685.917969 227.121094 C 685.84375 227.5 685.734375 227.863281 685.585938 228.21875 C 685.4375 228.574219 685.257812 228.914062 685.042969 229.230469 C 684.832031 229.550781 684.589844 229.847656 684.316406 230.117188 C 684.042969 230.390625 683.75 230.632812 683.429688 230.847656 C 683.109375 231.0625 682.769531 231.242188 682.417969 231.386719 C 682.0625 231.535156 681.695312 231.644531 681.316406 231.722656 C 680.941406 231.796875 680.558594 231.832031 680.175781 231.832031 L 625.78125 231.832031 C 625.398438 231.832031 625.015625 231.796875 624.640625 231.722656 C 624.261719 231.644531 623.894531 231.535156 623.539062 231.386719 C 623.183594 231.242188 622.847656 231.0625 622.527344 230.847656 C 622.207031 230.632812 621.914062 230.390625 621.640625 230.117188 C 621.367188 229.847656 621.125 229.550781 620.910156 229.230469 C 620.699219 228.914062 620.519531 228.574219 620.371094 228.21875 C 620.222656 227.863281 620.113281 227.5 620.039062 227.121094 C 619.960938 226.746094 619.925781 226.363281 619.925781 225.980469 L 619.925781 197.082031 C 619.925781 196.695312 619.960938 196.316406 620.039062 195.9375 C 620.113281 195.5625 620.222656 195.195312 620.371094 194.839844 C 620.519531 194.484375 620.699219 194.148438 620.910156 193.828125 C 621.125 193.507812 621.367188 193.210938 621.640625 192.941406 C 621.914062 192.667969 622.207031 192.425781 622.527344 192.210938 C 622.847656 192 623.183594 191.816406 623.539062 191.671875 C 623.894531 191.523438 624.261719 191.414062 624.640625 191.339844 C 625.015625 191.261719 625.398438 191.226562 625.78125 191.226562 Z M 625.78125 191.226562 "/><path style=" stroke:none;fill-rule:nonzero;fill:#292c56;fill-opacity:1;" d="M 787.714844 88.070312 L 702.226562 88.070312 C 701.265625 88.070312 700.484375 87.292969 700.484375 86.328125 C 700.484375 85.367188 701.265625 84.585938 702.226562 84.585938 L 787.714844 84.585938 C 788.679688 84.585938 789.460938 85.367188 789.460938 86.328125 C 789.460938 87.292969 788.679688 88.070312 787.714844 88.070312 Z M 787.714844 88.070312 "/><path style=" stroke:none;fill-rule:nonzero;fill:#292c56;fill-opacity:1;" d="M 763.027344 100.589844 L 702.226562 100.589844 C 701.265625 100.589844 700.484375 99.8125 700.484375 98.847656 C 700.484375 97.886719 701.265625 97.105469 702.226562 97.105469 L 763.027344 97.105469 C 763.988281 97.105469 764.769531 97.886719 764.769531 98.847656 C 764.769531 99.8125 763.988281 100.589844 763.027344 100.589844 Z M 763.027344 100.589844 "/><path style=" stroke:none;fill-rule:nonzero;fill:#292c56;fill-opacity:1;" d="M 787.714844 147.542969 L 702.226562 147.542969 C 701.265625 147.542969 700.484375 146.761719 700.484375 145.800781 C 700.484375 144.835938 701.265625 144.058594 702.226562 144.058594 L 787.714844 144.058594 C 788.679688 144.058594 789.460938 144.835938 789.460938 145.800781 C 789.460938 146.761719 788.679688 147.542969 787.714844 147.542969 Z M 787.714844 147.542969 "/><path style=" stroke:none;fill-rule:nonzero;fill:#292c56;fill-opacity:1;" d="M 763.027344 160.0625 L 702.226562 160.0625 C 701.265625 160.0625 700.484375 159.28125 700.484375 158.320312 C 700.484375 157.355469 701.265625 156.578125 702.226562 156.578125 L 763.027344 156.578125 C 763.988281 156.578125 764.769531 157.355469 764.769531 158.320312 C 764.769531 159.28125 763.988281 160.0625 763.027344 160.0625 Z M 763.027344 160.0625 "/><path style=" stroke:none;fill-rule:nonzero;fill:#292c56;fill-opacity:1;" d="M 787.714844 207.011719 L 702.226562 207.011719 C 701.265625 207.011719 700.484375 206.234375 700.484375 205.269531 C 700.484375 204.308594 701.265625 203.527344 702.226562 203.527344 L 787.714844 203.527344 C 788.679688 203.527344 789.460938 204.308594 789.460938 205.269531 C 789.460938 206.234375 788.679688 207.011719 787.714844 207.011719 Z M 787.714844 207.011719 "/><path style=" stroke:none;fill-rule:nonzero;fill:#292c56;fill-opacity:1;" d="M 763.027344 219.53125 L 702.226562 219.53125 C 701.265625 219.53125 700.484375 218.753906 700.484375 217.789062 C 700.484375 216.828125 701.265625 216.046875 702.226562 216.046875 L 763.027344 216.046875 C 763.988281 216.046875 764.769531 216.828125 764.769531 217.789062 C 764.769531 218.753906 763.988281 219.53125 763.027344 219.53125 Z M 763.027344 219.53125 "/><path style=" stroke:none;fill-rule:nonzero;fill:#dce7ea;fill-opacity:1;" d="M 369.457031 249.582031 L 784.621094 249.582031 C 785.058594 249.582031 785.492188 249.625 785.921875 249.707031 C 786.351562 249.792969 786.765625 249.921875 787.171875 250.085938 C 787.574219 250.253906 787.957031 250.460938 788.320312 250.703125 C 788.683594 250.945312 789.019531 251.222656 789.332031 251.53125 C 789.640625 251.839844 789.914062 252.175781 790.160156 252.539062 C 790.402344 252.902344 790.605469 253.285156 790.773438 253.691406 C 790.941406 254.09375 791.066406 254.511719 791.152344 254.9375 C 791.238281 255.367188 791.28125 255.800781 791.28125 256.238281 L 791.28125 304.796875 C 791.28125 305.234375 791.238281 305.664062 791.152344 306.09375 C 791.066406 306.523438 790.941406 306.9375 790.773438 307.34375 C 790.605469 307.746094 790.402344 308.128906 790.160156 308.492188 C 789.914062 308.855469 789.640625 309.191406 789.332031 309.503906 C 789.019531 309.8125 788.683594 310.085938 788.320312 310.328125 C 787.957031 310.574219 787.574219 310.777344 787.171875 310.945312 C 786.765625 311.113281 786.351562 311.238281 785.921875 311.324219 C 785.492188 311.410156 785.058594 311.453125 784.621094 311.453125 L 369.457031 311.453125 C 369.019531 311.453125 368.585938 311.410156 368.15625 311.324219 C 367.730469 311.238281 367.3125 311.113281 366.910156 310.945312 C 366.503906 310.777344 366.121094 310.574219 365.757812 310.328125 C 365.394531 310.085938 365.058594 309.8125 364.75 309.503906 C 364.4375 309.191406 364.164062 308.855469 363.921875 308.492188 C 363.675781 308.128906 363.472656 307.746094 363.304688 307.34375 C 363.136719 306.9375 363.011719 306.523438 362.925781 306.09375 C 362.839844 305.664062 362.796875 305.234375 362.796875 304.796875 L 362.796875 256.238281 C 362.796875 255.800781 362.839844 255.367188 362.925781 254.9375 C 363.011719 254.511719 363.136719 254.09375 363.304688 253.691406 C 363.472656 253.285156 363.675781 252.902344 363.921875 252.539062 C 364.164062 252.175781 364.4375 251.839844 364.75 251.53125 C 365.058594 251.222656 365.394531 250.945312 365.757812 250.703125 C 366.121094 250.460938 366.503906 250.253906 366.910156 250.085938 C 367.3125 249.921875 367.730469 249.792969 368.15625 249.707031 C 368.585938 249.625 369.019531 249.582031 369.457031 249.582031 Z M 369.457031 249.582031 "/><path style=" stroke:none;fill-rule:nonzero;fill:#ffffff;fill-opacity:1;" d="M 369.457031 329.398438 L 784.621094 329.398438 C 785.058594 329.398438 785.492188 329.441406 785.921875 329.527344 C 786.351562 329.613281 786.765625 329.738281 787.171875 329.90625 C 787.574219 330.074219 787.957031 330.277344 788.320312 330.519531 C 788.683594 330.765625 789.019531 331.039062 789.332031 331.347656 C 789.640625 331.65625 789.914062 331.992188 790.160156 332.359375 C 790.402344 332.722656 790.605469 333.105469 790.773438 333.507812 C 790.941406 333.910156 791.066406 334.328125 791.152344 334.757812 C 791.238281 335.1875 791.28125 335.617188 791.28125 336.054688 L 791.28125 384.613281 C 791.28125 385.050781 791.238281 385.484375 791.152344 385.914062 C 791.066406 386.339844 790.941406 386.757812 790.773438 387.160156 C 790.605469 387.566406 790.402344 387.949219 790.160156 388.3125 C 789.914062 388.675781 789.640625 389.011719 789.332031 389.320312 C 789.019531 389.628906 788.683594 389.90625 788.320312 390.148438 C 787.957031 390.390625 787.574219 390.597656 787.171875 390.761719 C 786.765625 390.929688 786.351562 391.058594 785.921875 391.140625 C 785.492188 391.226562 785.058594 391.269531 784.621094 391.269531 L 369.457031 391.269531 C 369.019531 391.269531 368.585938 391.226562 368.15625 391.140625 C 367.730469 391.058594 367.3125 390.929688 366.910156 390.761719 C 366.503906 390.597656 366.121094 390.390625 365.757812 390.148438 C 365.394531 389.90625 365.058594 389.628906 364.75 389.320312 C 364.4375 389.011719 364.164062 388.675781 363.921875 388.3125 C 363.675781 387.949219 363.472656 387.566406 363.304688 387.160156 C 363.136719 386.757812 363.011719 386.339844 362.925781 385.914062 C 362.839844 385.484375 362.796875 385.050781 362.796875 384.613281 L 362.796875 336.054688 C 362.796875 335.617188 362.839844 335.1875 362.925781 334.757812 C 363.011719 334.328125 363.136719 333.910156 363.304688 333.507812 C 363.472656 333.105469 363.675781 332.722656 363.921875 332.359375 C 364.164062 331.992188 364.4375 331.65625 364.75 331.347656 C 365.058594 331.039062 365.394531 330.765625 365.757812 330.519531 C 366.121094 330.277344 366.503906 330.074219 366.910156 329.90625 C 367.3125 329.738281 367.730469 329.613281 368.15625 329.527344 C 368.585938 329.441406 369.019531 329.398438 369.457031 329.398438 Z M 369.457031 329.398438 "/><path style=" stroke:none;fill-rule:nonzero;fill:#292c56;fill-opacity:1;" d="M 784.621094 393.011719 L 369.453125 393.011719 C 364.820312 393.011719 361.050781 389.246094 361.050781 384.613281 L 361.050781 336.054688 C 361.050781 331.425781 364.820312 327.65625 369.453125 327.65625 L 784.621094 327.65625 C 789.253906 327.65625 793.023438 331.425781 793.023438 336.054688 L 793.023438 384.613281 C 793.023438 389.246094 789.253906 393.011719 784.621094 393.011719 Z M 369.453125 331.140625 C 366.742188 331.140625 364.535156 333.347656 364.535156 336.054688 L 364.535156 384.613281 C 364.535156 387.324219 366.742188 389.527344 369.453125 389.527344 L 784.621094 389.527344 C 787.332031 389.527344 789.539062 387.324219 789.539062 384.613281 L 789.539062 336.054688 C 789.539062 333.347656 787.332031 331.140625 784.621094 331.140625 Z M 369.453125 331.140625 "/><path style=" stroke:none;fill-rule:nonzero;fill:#dce7ea;fill-opacity:1;" d="M 448.800781 141.707031 L 448.800781 120.710938 C 448.800781 113.960938 456.113281 109.742188 461.960938 113.121094 L 480.148438 123.617188 L 498.335938 134.117188 C 504.183594 137.492188 504.183594 145.929688 498.335938 149.304688 L 461.960938 170.304688 C 456.113281 173.679688 448.800781 169.457031 448.800781 162.710938 Z M 448.800781 141.707031 "/><path style=" stroke:none;fill-rule:nonzero;fill:#dce7ea;fill-opacity:1;" d="M 135.691406 75.976562 C 135.75 69.421875 135.921875 62.816406 136.925781 56.332031 C 137.898438 50.058594 139.953125 43.914062 143.957031 38.910156 C 148.105469 33.730469 154.152344 30.640625 160.464844 28.9375 C 167.355469 27.074219 174.628906 26.5625 181.71875 26.035156 C 190.15625 25.402344 198.628906 25.128906 207.09375 25.203125 C 229.144531 25.402344 240.304688 26.3125 249.542969 32.722656 C 271.246094 47.761719 274.582031 90.753906 257.289062 108.9375 C 252.484375 113.984375 246.191406 117.019531 244.25 117.953125 C 239.789062 120.105469 233.609375 122.261719 209.148438 124.152344 C 202.054688 124.703125 196.21875 125.011719 192.34375 125.1875 C 191.339844 128.921875 188.757812 136.316406 181.890625 141.84375 C 176.097656 146.507812 168.140625 149.132812 166.675781 147.230469 C 165.417969 145.601562 169.925781 141.910156 171.984375 133.703125 C 173.113281 129.199219 173.019531 125.261719 172.761719 122.65625 C 170.726562 122.339844 167.878906 121.613281 164.5 120.566406 C 152.460938 116.835938 142.242188 109.296875 138.167969 96.976562 C 135.945312 90.253906 135.628906 83 135.695312 75.972656 Z M 135.691406 75.976562 "/><path style=" stroke:none;fill-rule:nonzero;fill:#292c56;fill-opacity:1;" d="M 218.957031 93.464844 C 217.941406 93.464844 216.933594 93.023438 216.246094 92.175781 C 215.035156 90.679688 215.265625 88.484375 216.757812 87.273438 L 232.394531 74.613281 L 216.957031 63.816406 C 215.378906 62.714844 214.996094 60.539062 216.097656 58.964844 C 217.199219 57.386719 219.375 57.003906 220.953125 58.105469 L 240.179688 71.550781 C 241.078125 72.179688 241.628906 73.191406 241.667969 74.285156 C 241.707031 75.378906 241.226562 76.425781 240.375 77.117188 L 221.148438 92.6875 C 220.503906 93.210938 219.726562 93.464844 218.957031 93.464844 Z M 218.957031 93.464844 "/><path style=" stroke:none;fill-rule:nonzero;fill:#292c56;fill-opacity:1;" d="M 188.667969 93.464844 C 187.894531 93.464844 187.121094 93.210938 186.476562 92.6875 L 167.25 77.117188 C 166.402344 76.425781 165.921875 75.378906 165.960938 74.285156 C 166 73.191406 166.550781 72.179688 167.445312 71.550781 L 186.671875 58.105469 C 188.25 57.003906 190.421875 57.386719 191.527344 58.964844 C 192.628906 60.539062 192.246094 62.714844 190.667969 63.816406 L 175.230469 74.613281 L 190.863281 87.273438 C 192.359375 88.484375 192.589844 90.679688 191.378906 92.175781 C 190.6875 93.023438 189.683594 93.464844 188.667969 93.464844 Z M 188.667969 93.464844 "/><path style=" stroke:none;fill-rule:nonzero;fill:#292c56;fill-opacity:1;" d="M 210.324219 105.625 C 208.710938 105.625 207.265625 104.503906 206.917969 102.859375 L 196.828125 55.085938 C 196.433594 53.203125 197.636719 51.351562 199.523438 50.957031 C 201.414062 50.558594 203.257812 51.761719 203.652344 53.648438 L 213.738281 101.421875 C 214.136719 103.304688 212.933594 105.15625 211.046875 105.550781 C 210.804688 105.605469 210.5625 105.625 210.324219 105.625 Z M 210.324219 105.625 "/><path style=" stroke:none;fill-rule:nonzero;fill:#60afbd;fill-opacity:1;" d="M 301.894531 533.316406 L 76.449219 533.316406 C 75.753906 533.316406 75.058594 533.28125 74.363281 533.214844 C 73.667969 533.144531 72.976562 533.042969 72.292969 532.90625 C 71.609375 532.769531 70.933594 532.601562 70.265625 532.398438 C 69.597656 532.195312 68.941406 531.960938 68.296875 531.695312 C 67.652344 531.429688 67.023438 531.128906 66.40625 530.800781 C 65.789062 530.472656 65.191406 530.113281 64.613281 529.726562 C 64.03125 529.339844 63.472656 528.925781 62.933594 528.480469 C 62.394531 528.039062 61.878906 527.570312 61.382812 527.078125 C 60.890625 526.585938 60.421875 526.066406 59.980469 525.527344 C 59.535156 524.988281 59.121094 524.429688 58.734375 523.851562 C 58.347656 523.269531 57.988281 522.671875 57.660156 522.054688 C 57.332031 521.441406 57.03125 520.8125 56.765625 520.167969 C 56.496094 519.523438 56.261719 518.867188 56.0625 518.199219 C 55.859375 517.53125 55.6875 516.855469 55.550781 516.171875 C 55.417969 515.488281 55.3125 514.796875 55.246094 514.101562 C 55.175781 513.410156 55.144531 512.710938 55.144531 512.015625 L 55.144531 511.179688 C 55.144531 510.480469 55.175781 509.785156 55.246094 509.089844 C 55.3125 508.394531 55.417969 507.707031 55.550781 507.023438 C 55.6875 506.339844 55.859375 505.664062 56.0625 504.996094 C 56.261719 504.328125 56.496094 503.671875 56.765625 503.027344 C 57.03125 502.382812 57.332031 501.753906 57.660156 501.136719 C 57.988281 500.523438 58.347656 499.925781 58.734375 499.34375 C 59.121094 498.765625 59.535156 498.203125 59.980469 497.664062 C 60.421875 497.125 60.890625 496.609375 61.382812 496.117188 C 61.878906 495.621094 62.394531 495.15625 62.933594 494.710938 C 63.472656 494.269531 64.03125 493.855469 64.613281 493.46875 C 65.191406 493.078125 65.789062 492.722656 66.40625 492.390625 C 67.023438 492.0625 67.652344 491.765625 68.296875 491.5 C 68.941406 491.230469 69.597656 490.996094 70.265625 490.792969 C 70.933594 490.589844 71.609375 490.421875 72.292969 490.285156 C 72.976562 490.148438 73.667969 490.046875 74.363281 489.980469 C 75.058594 489.910156 75.753906 489.875 76.449219 489.875 L 301.894531 489.875 C 302.59375 489.875 303.289062 489.910156 303.984375 489.980469 C 304.679688 490.046875 305.367188 490.148438 306.050781 490.285156 C 306.734375 490.421875 307.414062 490.589844 308.082031 490.792969 C 308.746094 490.996094 309.402344 491.230469 310.050781 491.5 C 310.695312 491.765625 311.324219 492.0625 311.9375 492.390625 C 312.554688 492.722656 313.152344 493.078125 313.734375 493.46875 C 314.3125 493.855469 314.871094 494.269531 315.414062 494.710938 C 315.953125 495.15625 316.46875 495.621094 316.960938 496.117188 C 317.457031 496.609375 317.921875 497.125 318.367188 497.664062 C 318.808594 498.203125 319.222656 498.765625 319.613281 499.34375 C 320 499.925781 320.359375 500.523438 320.6875 501.136719 C 321.015625 501.753906 321.3125 502.382812 321.582031 503.027344 C 321.847656 503.671875 322.082031 504.328125 322.285156 504.996094 C 322.488281 505.664062 322.65625 506.339844 322.792969 507.023438 C 322.929688 507.707031 323.03125 508.394531 323.101562 509.089844 C 323.167969 509.785156 323.203125 510.480469 323.203125 511.179688 L 323.203125 512.015625 C 323.203125 512.710938 323.167969 513.410156 323.101562 514.101562 C 323.03125 514.796875 322.929688 515.488281 322.792969 516.171875 C 322.65625 516.855469 322.488281 517.53125 322.285156 518.199219 C 322.082031 518.867188 321.847656 519.523438 321.582031 520.167969 C 321.3125 520.8125 321.015625 521.441406 320.6875 522.054688 C 320.359375 522.671875 320 523.269531 319.613281 523.851562 C 319.222656 524.429688 318.808594 524.988281 318.367188 525.527344 C 317.921875 526.066406 317.457031 526.585938 316.960938 527.078125 C 316.46875 527.570312 315.953125 528.039062 315.414062 528.480469 C 314.871094 528.925781 314.3125 529.339844 313.734375 529.726562 C 313.152344 530.113281 312.554688 530.472656 311.9375 530.800781 C 311.324219 531.128906 310.695312 531.429688 310.050781 531.695312 C 309.402344 531.960938 308.746094 532.195312 308.082031 532.398438 C 307.414062 532.601562 306.734375 532.769531 306.050781 532.90625 C 305.367188 533.042969 304.679688 533.144531 303.984375 533.214844 C 303.289062 533.28125 302.59375 533.316406 301.894531 533.316406 Z M 301.894531 533.316406 "/><path style=" stroke:none;fill-rule:nonzero;fill:#60afbd;fill-opacity:1;" d="M 65.617188 489.871094 L 188.058594 489.871094 C 201.429688 489.871094 212.265625 479.035156 212.265625 465.667969 L 212.265625 267.679688 C 212.265625 254.3125 201.425781 243.476562 188.058594 243.476562 L 43.222656 243.476562 C 28.773438 243.476562 17.539062 256.050781 19.164062 270.402344 L 41.566406 468.390625 C 42.949219 480.628906 53.304688 489.875 65.621094 489.875 Z M 65.617188 489.871094 "/><path style=" stroke:none;fill-rule:nonzero;fill:#60afbd;fill-opacity:1;" d="M 443.03125 582.679688 L 499.582031 542.871094 C 499.582031 542.871094 560.511719 572.332031 610.289062 555.613281 C 660.070312 538.890625 670.027344 573.925781 670.027344 573.925781 C 635.175781 598.539062 600.320312 623.152344 565.46875 647.765625 L 520.511719 627.1875 L 543.65625 663.175781 C 527.902344 674.300781 512.148438 685.425781 496.398438 696.550781 C 478.609375 658.597656 460.824219 620.640625 443.03125 582.683594 Z M 443.03125 582.679688 "/><g clip-rule="nonzero" clip-path="url(#a4a0c85e39)"><path style=" stroke:none;fill-rule:nonzero;fill:#60afbd;fill-opacity:1;" d="M 426.570312 684.601562 L 495.859375 653.546875 C 495.859375 653.546875 543.648438 726.007812 599.402344 741.535156 C 655.15625 757.058594 647.988281 798.464844 647.988281 798.464844 L 517.195312 798.464844 C 505.304688 785.28125 493.417969 772.101562 481.523438 758.917969 C 484.277344 772.101562 487.03125 785.28125 489.785156 798.464844 L 438.515625 798.464844 C 438.515625 798.464844 426.570312 684.597656 426.570312 684.597656 Z M 426.570312 684.601562 "/></g><path style=" stroke:none;fill-rule:nonzero;fill:#292c56;fill-opacity:1;" d="M 220.222656 389.457031 C 233.574219 385.03125 253.464844 378.742188 277.894531 372.207031 C 336.78125 356.457031 366.34375 349.042969 388.613281 356.511719 C 408.285156 363.113281 418.398438 376.238281 461.746094 446.125 C 485.410156 484.277344 506.679688 519.519531 525.464844 551.230469 C 490.023438 582.148438 454.578125 613.070312 419.136719 643.996094 C 389.753906 577.460938 360.371094 510.929688 330.992188 444.398438 C 241.277344 513.28125 147.398438 522.523438 107.449219 483.152344 C 99.792969 475.605469 85.296875 457.578125 83.757812 419.183594 Z M 220.222656 389.457031 "/><path style=" stroke:none;fill-rule:nonzero;fill:#292c56;fill-opacity:1;" d="M 213.292969 501.902344 C 232.332031 479.285156 307.675781 393.648438 371.347656 412.28125 C 397 419.785156 417.519531 454.308594 458.960938 522.164062 C 490.585938 573.941406 520.058594 623.152344 547.371094 669.472656 C 501.4375 695.835938 455.511719 722.207031 409.578125 748.570312 C 367.097656 662.574219 324.625 576.578125 282.144531 490.582031 C 270.523438 492.097656 258.566406 493.859375 246.304688 495.894531 C 234.96875 497.769531 223.960938 499.785156 213.292969 501.910156 Z M 213.292969 501.902344 "/><path style=" stroke:none;fill-rule:nonzero;fill:#ffffff;fill-opacity:1;" d="M 125.738281 233.710938 C 198.285156 221.253906 209.988281 227.886719 216.066406 233.269531 C 222.953125 239.367188 227.085938 247.808594 232.058594 287.871094 C 234.996094 311.5625 237.945312 344.03125 238.179688 383.289062 C 186.863281 395.34375 135.546875 407.390625 84.222656 419.445312 C 74.863281 397.734375 62.808594 368.046875 50.390625 332.03125 C 33.828125 284 33.222656 272.855469 38.328125 263.070312 C 40.917969 258.117188 48.367188 247.003906 125.734375 233.714844 Z M 125.738281 233.710938 "/><path style=" stroke:none;fill-rule:nonzero;fill:#292c56;fill-opacity:1;" d="M 84.222656 421.183594 C 83.539062 421.183594 82.902344 420.777344 82.625 420.128906 C 70.363281 391.683594 58.964844 362.230469 48.742188 332.59375 C 32.175781 284.558594 31.226562 272.898438 36.785156 262.257812 C 39.371094 257.3125 45.421875 245.734375 125.441406 231.992188 C 196.390625 219.804688 210.023438 225.585938 217.222656 231.964844 C 224.71875 238.609375 228.894531 248.222656 233.789062 287.652344 C 237.664062 318.90625 239.726562 351.074219 239.921875 383.277344 C 239.929688 384.089844 239.371094 384.796875 238.578125 384.984375 L 84.621094 421.140625 C 84.492188 421.171875 84.355469 421.1875 84.222656 421.1875 Z M 125.738281 233.710938 L 126.035156 235.425781 C 47.714844 248.878906 41.8125 260.167969 39.878906 263.875 C 34.925781 273.363281 36.019531 284.996094 52.039062 331.460938 C 62.070312 360.550781 73.242188 389.457031 85.253906 417.410156 L 236.433594 381.910156 C 236.1875 350.308594 234.136719 318.75 230.332031 288.085938 C 225.578125 249.773438 221.734375 240.617188 214.917969 234.578125 C 207.835938 228.308594 192.171875 224.070312 126.035156 235.433594 L 125.738281 233.714844 Z M 125.738281 233.710938 "/><path style=" stroke:none;fill-rule:nonzero;fill:#292c56;fill-opacity:1;" d="M 0.0117188 366.675781 C 0.0117188 366.675781 6.210938 296.828125 23.378906 268.339844 C 40.546875 239.847656 100.386719 238.476562 100.386719 238.476562 C 100.929688 250.804688 100.980469 264.007812 100.28125 277.980469 C 98.65625 310.640625 93.402344 339.441406 87.132812 363.53125 C 58.09375 364.574219 29.050781 365.625 0.0117188 366.671875 Z M 0.0117188 366.675781 "/><path style=" stroke:none;fill-rule:nonzero;fill:#292c56;fill-opacity:1;" d="M 174.351562 226.402344 C 192.585938 256.597656 210.816406 286.800781 229.042969 316.996094 L 278.246094 290.101562 C 269.398438 275.273438 260.082031 264.683594 253.269531 257.828125 C 240.308594 244.773438 226.019531 230.382812 203.675781 225.988281 C 191.414062 223.574219 180.898438 224.992188 174.347656 226.40625 Z M 174.351562 226.402344 "/><path style=" stroke:none;fill-rule:nonzero;fill:#60afbd;fill-opacity:1;" d="M 382.65625 348.757812 L 223.574219 380.230469 L 212.996094 243.480469 L 376.5 211.132812 Z M 382.65625 348.757812 "/><path style=" stroke:none;fill-rule:nonzero;fill:#60afbd;fill-opacity:1;" d="M 162.761719 392.277344 L 383.167969 348.691406 L 385.523438 360.589844 L 165.117188 404.179688 Z M 162.761719 392.277344 "/><path style=" stroke:none;fill-rule:nonzero;fill:#ffffff;fill-opacity:1;" d="M 322.128906 298.355469 C 322.128906 298.886719 322.105469 299.417969 322.050781 299.945312 C 322 300.476562 321.921875 301 321.820312 301.519531 C 321.714844 302.042969 321.585938 302.554688 321.433594 303.0625 C 321.277344 303.570312 321.097656 304.070312 320.894531 304.5625 C 320.691406 305.050781 320.464844 305.53125 320.214844 306 C 319.964844 306.46875 319.691406 306.921875 319.398438 307.363281 C 319.101562 307.804688 318.785156 308.234375 318.449219 308.644531 C 318.113281 309.054688 317.757812 309.445312 317.378906 309.820312 C 317.003906 310.199219 316.613281 310.554688 316.199219 310.890625 C 315.789062 311.226562 315.363281 311.542969 314.921875 311.839844 C 314.480469 312.132812 314.027344 312.40625 313.558594 312.65625 C 313.089844 312.90625 312.609375 313.132812 312.117188 313.335938 C 311.628906 313.539062 311.128906 313.71875 310.621094 313.871094 C 310.113281 314.027344 309.597656 314.15625 309.078125 314.257812 C 308.554688 314.363281 308.03125 314.441406 307.503906 314.492188 C 306.972656 314.542969 306.445312 314.570312 305.914062 314.570312 C 305.382812 314.570312 304.851562 314.542969 304.324219 314.492188 C 303.792969 314.441406 303.269531 314.363281 302.75 314.257812 C 302.226562 314.15625 301.710938 314.027344 301.203125 313.871094 C 300.695312 313.71875 300.195312 313.539062 299.707031 313.335938 C 299.214844 313.132812 298.734375 312.90625 298.265625 312.65625 C 297.796875 312.40625 297.34375 312.132812 296.902344 311.839844 C 296.460938 311.542969 296.035156 311.226562 295.625 310.890625 C 295.214844 310.554688 294.820312 310.199219 294.445312 309.820312 C 294.070312 309.445312 293.710938 309.054688 293.375 308.644531 C 293.039062 308.234375 292.722656 307.804688 292.425781 307.363281 C 292.132812 306.921875 291.859375 306.46875 291.609375 306 C 291.359375 305.53125 291.132812 305.050781 290.929688 304.5625 C 290.726562 304.070312 290.546875 303.570312 290.390625 303.0625 C 290.238281 302.554688 290.109375 302.042969 290.003906 301.519531 C 289.902344 301 289.824219 300.476562 289.773438 299.945312 C 289.71875 299.417969 289.695312 298.886719 289.695312 298.355469 C 289.695312 297.824219 289.71875 297.296875 289.773438 296.769531 C 289.824219 296.238281 289.902344 295.714844 290.003906 295.195312 C 290.109375 294.671875 290.238281 294.160156 290.390625 293.652344 C 290.546875 293.140625 290.726562 292.644531 290.929688 292.152344 C 291.132812 291.660156 291.359375 291.183594 291.609375 290.714844 C 291.859375 290.246094 292.132812 289.789062 292.425781 289.347656 C 292.722656 288.90625 293.039062 288.480469 293.375 288.070312 C 293.710938 287.660156 294.070312 287.269531 294.445312 286.890625 C 294.820312 286.515625 295.214844 286.160156 295.625 285.824219 C 296.035156 285.488281 296.460938 285.171875 296.902344 284.875 C 297.34375 284.582031 297.796875 284.308594 298.265625 284.058594 C 298.734375 283.808594 299.214844 283.582031 299.707031 283.378906 C 300.195312 283.175781 300.695312 282.996094 301.203125 282.839844 C 301.710938 282.6875 302.226562 282.558594 302.75 282.453125 C 303.269531 282.351562 303.792969 282.273438 304.324219 282.222656 C 304.851562 282.167969 305.382812 282.144531 305.914062 282.144531 C 306.445312 282.144531 306.972656 282.167969 307.503906 282.222656 C 308.03125 282.273438 308.554688 282.351562 309.078125 282.453125 C 309.597656 282.558594 310.113281 282.6875 310.621094 282.839844 C 311.128906 282.996094 311.628906 283.175781 312.117188 283.378906 C 312.609375 283.582031 313.089844 283.808594 313.558594 284.058594 C 314.027344 284.308594 314.480469 284.582031 314.921875 284.875 C 315.363281 285.171875 315.789062 285.488281 316.199219 285.824219 C 316.613281 286.160156 317.003906 286.515625 317.378906 286.890625 C 317.757812 287.269531 318.113281 287.660156 318.449219 288.070312 C 318.785156 288.480469 319.101562 288.90625 319.398438 289.347656 C 319.691406 289.789062 319.964844 290.246094 320.214844 290.714844 C 320.464844 291.183594 320.691406 291.660156 320.894531 292.152344 C 321.097656 292.644531 321.277344 293.140625 321.433594 293.652344 C 321.585938 294.160156 321.714844 294.671875 321.820312 295.195312 C 321.921875 295.714844 322 296.238281 322.050781 296.769531 C 322.105469 297.296875 322.128906 297.824219 322.128906 298.355469 Z M 322.128906 298.355469 "/><path style=" stroke:none;fill-rule:nonzero;fill:#292c56;fill-opacity:1;" d="M 305.90625 316.3125 C 297.511719 316.3125 289.984375 310.378906 288.296875 301.84375 C 287.363281 297.136719 288.316406 292.351562 290.988281 288.363281 C 293.65625 284.378906 297.71875 281.667969 302.425781 280.742188 C 307.128906 279.808594 311.921875 280.765625 315.910156 283.4375 C 319.894531 286.101562 322.601562 290.167969 323.535156 294.871094 C 324.464844 299.578125 323.507812 304.363281 320.839844 308.351562 C 318.175781 312.335938 314.109375 315.046875 309.402344 315.972656 C 308.230469 316.203125 307.0625 316.316406 305.90625 316.316406 Z M 305.941406 283.882812 C 305 283.882812 304.050781 283.972656 303.101562 284.160156 C 299.304688 284.910156 296.035156 287.09375 293.882812 290.308594 C 291.730469 293.523438 290.957031 297.378906 291.710938 301.167969 C 293.257812 308.996094 300.882812 314.109375 308.722656 312.554688 C 312.515625 311.804688 315.785156 309.621094 317.9375 306.410156 C 320.089844 303.203125 320.863281 299.339844 320.109375 295.550781 C 319.359375 291.757812 317.175781 288.484375 313.964844 286.339844 C 311.554688 284.722656 308.78125 283.886719 305.941406 283.886719 Z M 305.941406 283.882812 "/><path style=" stroke:none;fill-rule:nonzero;fill:#ffffff;fill-opacity:1;" d="M 84.335938 363.8125 C 84.015625 366.554688 83.691406 369.289062 83.371094 372.027344 C 112.339844 362.886719 141.304688 353.746094 170.273438 344.601562 C 176.589844 355.515625 182.902344 366.425781 189.210938 377.339844 C 120.804688 442.828125 53.859375 472.085938 26.726562 451.65625 C 11.304688 440.039062 10.855469 413.917969 13.785156 366.355469 L 84.328125 363.8125 Z M 84.335938 363.8125 "/><path style=" stroke:none;fill-rule:nonzero;fill:#292c56;fill-opacity:1;" d="M 49.128906 459.902344 C 39.769531 459.902344 31.832031 457.671875 25.6875 453.046875 C 10.164062 441.351562 8.9375 416.820312 12.050781 366.25 C 12.105469 365.355469 12.832031 364.644531 13.730469 364.613281 L 84.273438 362.070312 C 84.769531 362.035156 85.273438 362.257812 85.617188 362.632812 C 85.964844 363.007812 86.128906 363.511719 86.066406 364.019531 L 85.417969 369.554688 L 169.75 342.9375 C 170.53125 342.699219 171.378906 343.019531 171.78125 343.726562 L 190.71875 376.464844 C 191.125 377.160156 191 378.039062 190.414062 378.59375 C 136.730469 429.988281 83.414062 459.898438 49.125 459.902344 Z M 15.433594 368.042969 C 12.515625 416.25 13.691406 439.648438 27.78125 450.261719 C 54.476562 470.367188 121.328125 439.582031 187.019531 377.019531 L 169.46875 346.683594 L 83.898438 373.6875 C 83.335938 373.867188 82.722656 373.746094 82.261719 373.371094 C 81.808594 372.992188 81.574219 372.414062 81.644531 371.824219 L 82.371094 365.628906 L 15.4375 368.042969 Z M 15.433594 368.042969 "/><path style=" stroke:none;fill-rule:nonzero;fill:#292c56;fill-opacity:1;" d="M 155.195312 227.507812 C 158.621094 236.085938 156.929688 245.660156 150.894531 251.675781 C 143.089844 259.457031 130.902344 258.429688 123.109375 253.699219 C 112.957031 247.527344 111.632812 235.878906 111.492188 234.457031 C 126.058594 232.144531 140.621094 229.824219 155.1875 227.511719 Z M 155.195312 227.507812 "/><path style=" stroke:none;fill-rule:nonzero;fill:#292c56;fill-opacity:1;" d="M 45.703125 160.832031 C 45.703125 156.226562 48.316406 152.214844 52.050781 149.898438 C 48.882812 141.890625 54.433594 132.640625 63.046875 131.136719 C 64.898438 124.414062 72.519531 120.847656 78.671875 123.507812 C 80.734375 120.890625 83.832031 119.128906 87.347656 119.082031 C 89.988281 119.046875 92.328125 119.972656 94.234375 121.464844 C 95.828125 120.011719 97.867188 119.035156 100.308594 118.882812 C 103.21875 118.699219 105.960938 119.929688 107.960938 121.910156 C 110.449219 120.421875 113.511719 119.976562 116.472656 121.222656 C 119.746094 122.597656 121.570312 125.421875 122.085938 128.527344 C 124.902344 128.761719 127.589844 130.054688 129.40625 132.539062 C 131.222656 135.023438 131.589844 138.105469 130.875 140.9375 C 133.179688 142.210938 135.027344 144.285156 135.855469 146.953125 C 136.527344 149.117188 136.417969 151.222656 135.777344 153.136719 C 138.390625 154.6875 140.40625 157.238281 140.910156 160.328125 C 141.640625 164.789062 139.339844 168.835938 135.773438 171.066406 C 136.574219 174.988281 135.351562 179.335938 132.109375 182.664062 C 125.597656 189.355469 118.5625 196.480469 109.167969 198.1875 C 106.402344 202.691406 100.585938 203.410156 96.464844 200.738281 C 93.269531 202.515625 89.441406 202.207031 86.621094 200.222656 C 85.074219 201.097656 83.269531 201.558594 81.378906 201.347656 C 76.894531 200.847656 74.054688 197.847656 72.148438 194.210938 C 69.0625 195.582031 65.410156 195.671875 62.277344 194.109375 C 58.652344 192.296875 56.691406 188.878906 56.273438 185.179688 C 52.828125 184.398438 49.871094 182.050781 48.796875 178.277344 C 47.988281 175.429688 48.632812 172.617188 50.125 170.335938 C 47.457031 167.941406 45.699219 164.5625 45.699219 160.828125 Z M 45.703125 160.832031 "/><path style=" stroke:none;fill-rule:nonzero;fill:#ffffff;fill-opacity:1;" d="M 125.308594 185.789062 L 125.859375 185.691406 C 126.777344 185.523438 127.707031 185.445312 128.640625 185.457031 C 129.574219 185.472656 130.5 185.578125 131.414062 185.773438 C 132.328125 185.972656 133.214844 186.253906 134.074219 186.625 C 134.929688 186.996094 135.746094 187.445312 136.515625 187.976562 C 137.285156 188.507812 137.996094 189.109375 138.644531 189.78125 C 139.296875 190.453125 139.875 191.179688 140.382812 191.964844 C 140.890625 192.75 141.316406 193.578125 141.660156 194.445312 C 142.007812 195.316406 142.261719 196.207031 142.429688 197.128906 L 149.148438 233.796875 C 149.320312 234.71875 149.394531 235.644531 149.382812 236.578125 C 149.367188 237.515625 149.261719 238.4375 149.066406 239.351562 C 148.871094 240.265625 148.585938 241.152344 148.214844 242.011719 C 147.84375 242.867188 147.394531 243.683594 146.863281 244.449219 C 146.332031 245.21875 145.730469 245.929688 145.058594 246.582031 C 144.386719 247.230469 143.660156 247.8125 142.875 248.320312 C 142.089844 248.828125 141.261719 249.253906 140.390625 249.597656 C 139.523438 249.941406 138.628906 250.199219 137.710938 250.367188 L 137.160156 250.464844 C 136.242188 250.636719 135.3125 250.710938 134.378906 250.699219 C 133.445312 250.683594 132.519531 250.578125 131.605469 250.382812 C 130.691406 250.1875 129.804688 249.902344 128.945312 249.53125 C 128.085938 249.160156 127.273438 248.710938 126.503906 248.179688 C 125.734375 247.648438 125.023438 247.046875 124.375 246.375 C 123.722656 245.707031 123.144531 244.976562 122.636719 244.191406 C 122.128906 243.40625 121.703125 242.582031 121.355469 241.710938 C 121.011719 240.84375 120.757812 239.949219 120.585938 239.027344 L 113.867188 202.359375 C 113.699219 201.4375 113.625 200.511719 113.636719 199.578125 C 113.652344 198.644531 113.757812 197.71875 113.953125 196.804688 C 114.148438 195.890625 114.433594 195.003906 114.804688 194.148438 C 115.175781 193.289062 115.625 192.476562 116.15625 191.707031 C 116.6875 190.9375 117.289062 190.226562 117.960938 189.574219 C 118.632812 188.925781 119.359375 188.34375 120.144531 187.839844 C 120.929688 187.332031 121.757812 186.90625 122.625 186.558594 C 123.496094 186.214844 124.390625 185.960938 125.308594 185.789062 Z M 125.308594 185.789062 "/><path style=" stroke:none;fill-rule:nonzero;fill:#292c56;fill-opacity:1;" d="M 134.570312 252.457031 C 127.003906 252.457031 120.265625 247.054688 118.855469 239.355469 L 112.140625 202.6875 C 110.554688 194.023438 116.316406 185.679688 124.984375 184.089844 L 125.539062 183.988281 C 134.1875 182.402344 142.546875 188.164062 144.132812 196.828125 L 150.847656 233.496094 C 151.621094 237.699219 150.707031 241.941406 148.28125 245.457031 C 145.855469 248.964844 142.207031 251.324219 138.011719 252.09375 L 137.460938 252.195312 C 136.492188 252.375 135.523438 252.457031 134.574219 252.457031 Z M 128.421875 187.214844 C 127.675781 187.214844 126.921875 187.277344 126.164062 187.417969 L 125.609375 187.519531 C 118.835938 188.761719 114.328125 195.28125 115.570312 202.054688 L 122.285156 238.726562 C 123.527344 245.503906 130.050781 250.011719 136.832031 248.761719 L 137.378906 248.660156 C 144.15625 247.421875 148.660156 240.898438 147.421875 234.121094 L 140.707031 197.449219 C 139.601562 191.429688 134.335938 187.203125 128.417969 187.203125 Z M 128.421875 187.214844 "/><path style=" stroke:none;fill-rule:nonzero;fill:#ffffff;fill-opacity:1;" d="M 150.558594 174.175781 C 149.179688 169.863281 146.148438 166.269531 142.128906 164.171875 C 138.230469 162.140625 132.839844 160.265625 126.5625 160.628906 C 123.699219 160.792969 117.375 161.191406 111.535156 165.871094 C 111.242188 166.113281 105.554688 170.777344 103.640625 177.632812 C 102.898438 180.28125 102.78125 183.105469 103.199219 185.976562 C 100.601562 186.429688 98.472656 187.921875 97.664062 190.191406 C 96.332031 193.921875 99.074219 198.304688 103.785156 199.984375 C 105.871094 200.730469 108 200.8125 109.832031 200.355469 C 111.40625 202.320312 113.214844 204.207031 115.265625 205.953125 C 117.949219 208.242188 121.0625 209.964844 124.390625 211.128906 C 130.050781 213.105469 139.617188 215.429688 147.925781 212.484375 C 159.582031 208.355469 156.613281 193.152344 150.558594 174.175781 Z M 150.558594 174.175781 "/><path style=" stroke:none;fill-rule:nonzero;fill:#292c56;fill-opacity:1;" d="M 139.144531 215.636719 C 133.503906 215.636719 128.03125 214.246094 123.820312 212.777344 C 120.191406 211.507812 116.9375 209.660156 114.140625 207.28125 C 112.347656 205.753906 110.675781 204.066406 109.148438 202.257812 C 107.222656 202.535156 105.148438 202.3125 103.207031 201.625 C 100.558594 200.679688 98.351562 198.957031 96.988281 196.78125 C 95.539062 194.472656 95.199219 191.921875 96.027344 189.605469 C 96.847656 187.300781 98.769531 185.527344 101.300781 184.664062 C 101.082031 182.039062 101.304688 179.519531 101.96875 177.164062 C 104.046875 169.71875 110.191406 164.722656 110.453125 164.511719 C 116.769531 159.445312 123.5625 159.054688 126.46875 158.886719 C 132.023438 158.566406 137.578125 159.820312 142.945312 162.628906 C 147.402344 164.953125 150.703125 168.863281 152.226562 173.644531 C 157.910156 191.449219 162.304688 209.238281 148.515625 214.125 C 145.464844 215.207031 142.28125 215.632812 139.148438 215.632812 Z M 109.832031 198.613281 C 110.355469 198.613281 110.855469 198.847656 111.191406 199.265625 C 112.753906 201.214844 114.5 203.019531 116.394531 204.628906 C 118.863281 206.726562 121.742188 208.359375 124.964844 209.488281 C 129.894531 211.207031 139.355469 213.667969 147.339844 210.839844 C 157.132812 207.371094 155.199219 194.441406 148.894531 174.707031 C 147.648438 170.808594 144.957031 167.613281 141.320312 165.71875 C 136.519531 163.210938 131.589844 162.078125 126.660156 162.367188 C 124.089844 162.515625 118.074219 162.863281 112.625 167.230469 C 112.574219 167.273438 107.101562 171.722656 105.320312 178.105469 C 104.660156 180.453125 104.53125 183.019531 104.925781 185.726562 C 105.066406 186.660156 104.429688 187.535156 103.5 187.695312 C 101.433594 188.054688 99.867188 189.207031 99.308594 190.78125 C 98.847656 192.074219 99.070312 193.546875 99.941406 194.9375 C 100.890625 196.453125 102.464844 197.667969 104.378906 198.347656 C 106.058594 198.949219 107.847656 199.0625 109.417969 198.671875 C 109.558594 198.636719 109.699219 198.617188 109.835938 198.617188 Z M 109.832031 198.613281 "/><path style=" stroke:none;fill-rule:nonzero;fill:#292c56;fill-opacity:1;" d="M 124.394531 211.132812 C 124.394531 211.132812 135.222656 224.109375 146.84375 221.292969 L 145.371094 213.246094 C 145.371094 213.246094 133.523438 216.304688 124.394531 211.132812 Z M 124.394531 211.132812 "/><path style=" stroke:none;fill-rule:nonzero;fill:#292c56;fill-opacity:1;" d="M 101.101562 187.230469 C 101.101562 187.230469 108.355469 192.5625 114.550781 187.230469 C 120.75 181.898438 120.214844 165.53125 120.214844 165.53125 C 120.214844 165.53125 139.574219 157.074219 150.558594 174.175781 C 150.558594 174.175781 151.367188 163.140625 145.085938 156.859375 C 138.800781 150.578125 109.332031 152.257812 109.332031 152.257812 C 109.332031 152.257812 86.765625 150.757812 86.945312 166.238281 C 87.121094 181.71875 97.332031 192.25 97.332031 192.25 Z M 101.101562 187.230469 "/><path style=" stroke:none;fill-rule:nonzero;fill:#60afbd;fill-opacity:1;" d="M 135.777344 153.136719 C 131.710938 152.574219 125.242188 152.199219 117.648438 154.03125 C 108.289062 156.292969 101.777344 160.816406 98.359375 163.585938 C 98.835938 162.507812 103.988281 151.371094 116.414062 148.902344 C 126.644531 146.867188 134.417969 152.171875 135.777344 153.136719 Z M 135.777344 153.136719 "/><path style=" stroke:none;fill-rule:nonzero;fill:#60afbd;fill-opacity:1;" d="M 490.21875 575.398438 C 489.578125 575.398438 488.964844 575.042969 488.65625 574.433594 C 487.816406 572.753906 403.929688 406.355469 356.097656 403.074219 C 308.167969 399.824219 220.726562 495.167969 219.847656 496.132812 C 219.203125 496.84375 218.097656 496.898438 217.386719 496.25 C 216.675781 495.601562 216.625 494.5 217.269531 493.789062 C 217.492188 493.542969 239.742188 469.175781 267.746094 445.546875 C 305.585938 413.621094 335.402344 398.171875 356.335938 399.597656 C 406.136719 403.015625 488.304688 565.941406 491.777344 572.875 C 492.210938 573.734375 491.859375 574.78125 490.996094 575.214844 C 490.746094 575.339844 490.480469 575.398438 490.21875 575.398438 Z M 490.21875 575.398438 "/><path style=" stroke:none;fill-rule:nonzero;fill:#ffffff;fill-opacity:1;" d="M 159.878906 347.882812 C 159.878906 347.882812 199.839844 332.746094 205.324219 333.453125 C 210.8125 334.160156 247.273438 344.25 243.910156 350.796875 C 240.546875 357.34375 212.273438 344.601562 212.273438 344.601562 C 212.273438 344.601562 237.1875 365.042969 232.761719 370.433594 C 228.335938 375.832031 210.636719 355.394531 210.636719 355.394531 C 210.636719 355.394531 227.246094 378.390625 221.390625 379.242188 C 215.535156 380.097656 204.09375 362.824219 204.09375 362.824219 C 204.09375 362.824219 200.191406 386.003906 189.222656 377.335938 L 178.585938 387.242188 L 159.882812 347.882812 Z M 159.878906 347.882812 "/><path style=" stroke:none;fill-rule:nonzero;fill:#292c56;fill-opacity:1;" d="M 178.578125 388.984375 C 178.113281 388.984375 177.648438 388.796875 177.304688 388.429688 C 176.644531 387.722656 176.683594 386.621094 177.390625 385.96875 L 188.027344 376.0625 C 188.660156 375.476562 189.621094 375.441406 190.296875 375.972656 C 193.003906 378.109375 194.550781 377.511719 195.054688 377.316406 C 198.808594 375.875 201.53125 367.484375 202.367188 362.535156 C 202.484375 361.832031 203.023438 361.269531 203.726562 361.121094 C 204.433594 360.972656 205.148438 361.269531 205.539062 361.863281 C 210.621094 369.527344 217.824219 377.535156 220.902344 377.535156 L 220.917969 377.535156 C 221.140625 375.144531 215.941406 365.722656 209.222656 356.410156 C 208.675781 355.652344 208.820312 354.605469 209.550781 354.023438 C 210.28125 353.449219 211.339844 353.546875 211.949219 354.25 C 217.097656 360.199219 226.730469 369.597656 230.707031 369.597656 C 230.722656 369.597656 230.730469 369.597656 230.742188 369.597656 C 231.160156 369.59375 231.304688 369.457031 231.410156 369.328125 C 233.148438 367.207031 223.496094 356.0625 211.160156 345.945312 C 210.484375 345.390625 210.324219 344.417969 210.785156 343.679688 C 211.246094 342.933594 212.183594 342.652344 212.980469 343.007812 C 225.640625 348.710938 240.820312 352.984375 242.355469 349.996094 C 242.375 349.949219 242.421875 349.867188 242.277344 349.59375 C 239.492188 344.292969 210.773438 335.910156 205.097656 335.179688 C 201.378906 334.691406 175.777344 343.71875 160.492188 349.511719 C 159.589844 349.855469 158.589844 349.398438 158.242188 348.5 C 157.902344 347.597656 158.355469 346.59375 159.253906 346.253906 C 165.996094 343.699219 199.894531 330.988281 205.542969 331.726562 C 210.042969 332.304688 241.460938 340.570312 245.355469 347.972656 C 246.175781 349.523438 245.863281 350.796875 245.453125 351.589844 C 242.785156 356.78125 230.746094 353.632812 221.332031 350.1875 C 229.257812 357.550781 237.734375 367.101562 234.097656 371.535156 C 233.28125 372.53125 232.136719 373.0625 230.78125 373.082031 C 230.761719 373.082031 230.738281 373.082031 230.714844 373.082031 C 227.96875 373.082031 224.289062 370.78125 220.738281 367.875 C 223.269531 372.515625 225.007812 376.925781 224.074219 379.125 C 223.644531 380.144531 222.777344 380.800781 221.632812 380.96875 C 220.542969 381.128906 214.941406 381.101562 204.90625 367.105469 C 203.671875 371.707031 201.054688 378.738281 196.300781 380.566406 C 194.078125 381.421875 191.753906 381.089844 189.355469 379.578125 L 179.757812 388.515625 C 179.421875 388.832031 178.992188 388.984375 178.566406 388.984375 Z M 178.578125 388.984375 "/><path style=" stroke:none;fill-rule:nonzero;fill:#292c56;fill-opacity:1;" d="M 55.144531 396.773438 C 54.824219 396.773438 54.507812 396.683594 54.21875 396.507812 C 53.40625 395.996094 53.15625 394.921875 53.664062 394.105469 C 63.496094 378.417969 81.929688 370.734375 82.707031 370.417969 C 83.59375 370.050781 84.617188 370.476562 84.976562 371.367188 C 85.34375 372.253906 84.917969 373.273438 84.027344 373.640625 C 83.84375 373.714844 65.839844 381.238281 56.617188 395.957031 C 56.285156 396.484375 55.71875 396.777344 55.140625 396.777344 Z M 55.144531 396.773438 "/></g></svg>