<svg xmlns="http://www.w3.org/2000/svg" xmlns:xlink="http://www.w3.org/1999/xlink" width="1080" zoomAndPan="magnify" viewBox="0 0 810 809.999993" height="1080" preserveAspectRatio="xMidYMid meet" version="1.2"><g id="4bd187f7f5"><path style=" stroke:none;fill-rule:nonzero;fill:#5981c1;fill-opacity:1;" d="M 472.5 121.5 C 472.5 122.605469 472.472656 123.707031 472.417969 124.8125 C 472.363281 125.914062 472.28125 127.015625 472.175781 128.117188 C 472.066406 129.214844 471.929688 130.3125 471.769531 131.40625 C 471.605469 132.496094 471.417969 133.585938 471.203125 134.667969 C 470.988281 135.753906 470.746094 136.828125 470.476562 137.902344 C 470.207031 138.972656 469.914062 140.039062 469.59375 141.09375 C 469.273438 142.152344 468.925781 143.199219 468.554688 144.238281 C 468.183594 145.28125 467.785156 146.308594 467.363281 147.332031 C 466.9375 148.351562 466.492188 149.363281 466.019531 150.359375 C 465.546875 151.359375 465.050781 152.34375 464.53125 153.320312 C 464.007812 154.292969 463.464844 155.253906 462.898438 156.203125 C 462.328125 157.148438 461.738281 158.082031 461.125 159 C 460.511719 159.917969 459.875 160.824219 459.214844 161.710938 C 458.558594 162.597656 457.878906 163.46875 457.179688 164.320312 C 456.476562 165.175781 455.757812 166.011719 455.015625 166.832031 C 454.273438 167.648438 453.511719 168.449219 452.730469 169.230469 C 451.949219 170.011719 451.148438 170.773438 450.332031 171.515625 C 449.511719 172.257812 448.675781 172.976562 447.820312 173.679688 C 446.96875 174.378906 446.097656 175.058594 445.210938 175.714844 C 444.324219 176.375 443.417969 177.011719 442.5 177.625 C 441.582031 178.238281 440.648438 178.828125 439.703125 179.398438 C 438.753906 179.964844 437.792969 180.507812 436.820312 181.03125 C 435.84375 181.550781 434.859375 182.046875 433.859375 182.519531 C 432.859375 182.992188 431.851562 183.4375 430.832031 183.863281 C 429.808594 184.285156 428.78125 184.683594 427.738281 185.054688 C 426.699219 185.425781 425.652344 185.773438 424.59375 186.09375 C 423.535156 186.414062 422.472656 186.707031 421.402344 186.976562 C 420.328125 187.246094 419.253906 187.488281 418.167969 187.703125 C 417.085938 187.917969 415.996094 188.105469 414.90625 188.269531 C 413.8125 188.429688 412.714844 188.566406 411.617188 188.675781 C 410.515625 188.785156 409.414062 188.863281 408.3125 188.917969 C 407.207031 188.972656 406.105469 189 405 189 C 403.894531 189 402.792969 188.972656 401.6875 188.917969 C 400.585938 188.863281 399.484375 188.785156 398.382812 188.675781 C 397.285156 188.566406 396.1875 188.429688 395.09375 188.269531 C 394.003906 188.105469 392.914062 187.917969 391.832031 187.703125 C 390.746094 187.488281 389.671875 187.246094 388.597656 186.976562 C 387.527344 186.707031 386.460938 186.414062 385.40625 186.09375 C 384.347656 185.773438 383.300781 185.425781 382.261719 185.054688 C 381.21875 184.683594 380.1875 184.285156 379.167969 183.863281 C 378.148438 183.4375 377.136719 182.992188 376.140625 182.519531 C 375.140625 182.046875 374.15625 181.550781 373.179688 181.03125 C 372.207031 180.507812 371.246094 179.964844 370.296875 179.398438 C 369.351562 178.828125 368.417969 178.238281 367.5 177.625 C 366.582031 177.011719 365.675781 176.375 364.789062 175.714844 C 363.902344 175.058594 363.03125 174.378906 362.179688 173.679688 C 361.324219 172.976562 360.488281 172.257812 359.667969 171.515625 C 358.851562 170.773438 358.050781 170.011719 357.269531 169.230469 C 356.488281 168.449219 355.726562 167.648438 354.984375 166.832031 C 354.242188 166.011719 353.523438 165.175781 352.820312 164.320312 C 352.121094 163.46875 351.441406 162.597656 350.785156 161.710938 C 350.125 160.824219 349.488281 159.917969 348.875 159 C 348.261719 158.082031 347.671875 157.148438 347.101562 156.203125 C 346.535156 155.253906 345.992188 154.292969 345.46875 153.320312 C 344.949219 152.34375 344.453125 151.359375 343.980469 150.359375 C 343.507812 149.363281 343.0625 148.351562 342.636719 147.332031 C 342.214844 146.308594 341.816406 145.28125 341.445312 144.238281 C 341.074219 143.199219 340.726562 142.152344 340.40625 141.09375 C 340.085938 140.039062 339.792969 138.972656 339.523438 137.902344 C 339.253906 136.828125 339.011719 135.753906 338.796875 134.667969 C 338.582031 133.585938 338.394531 132.496094 338.230469 131.40625 C 338.070312 130.3125 337.933594 129.214844 337.824219 128.117188 C 337.714844 127.015625 337.636719 125.914062 337.582031 124.8125 C 337.527344 123.707031 337.5 122.605469 337.5 121.5 C 337.5 120.394531 337.527344 119.292969 337.582031 118.1875 C 337.636719 117.085938 337.714844 115.984375 337.824219 114.882812 C 337.933594 113.785156 338.070312 112.6875 338.230469 111.59375 C 338.394531 110.503906 338.582031 109.414062 338.796875 108.332031 C 339.011719 107.246094 339.253906 106.171875 339.523438 105.097656 C 339.792969 104.027344 340.085938 102.964844 340.40625 101.90625 C 340.726562 100.847656 341.074219 99.800781 341.445312 98.761719 C 341.816406 97.71875 342.214844 96.691406 342.636719 95.667969 C 343.0625 94.648438 343.507812 93.636719 343.980469 92.640625 C 344.453125 91.640625 344.949219 90.65625 345.46875 89.679688 C 345.992188 88.707031 346.535156 87.746094 347.101562 86.796875 C 347.671875 85.851562 348.261719 84.917969 348.875 84 C 349.488281 83.082031 350.125 82.175781 350.785156 81.289062 C 351.441406 80.402344 352.121094 79.53125 352.820312 78.679688 C 353.523438 77.824219 354.242188 76.988281 354.984375 76.167969 C 355.726562 75.351562 356.488281 74.550781 357.269531 73.769531 C 358.050781 72.988281 358.851562 72.226562 359.667969 71.484375 C 360.488281 70.742188 361.324219 70.023438 362.179688 69.320312 C 363.03125 68.621094 363.902344 67.941406 364.789062 67.285156 C 365.675781 66.625 366.582031 65.988281 367.5 65.375 C 368.417969 64.761719 369.351562 64.171875 370.296875 63.601562 C 371.246094 63.035156 372.207031 62.492188 373.179688 61.96875 C 374.15625 61.449219 375.140625 60.953125 376.140625 60.480469 C 377.136719 60.007812 378.148438 59.5625 379.167969 59.136719 C 380.1875 58.714844 381.21875 58.316406 382.261719 57.945312 C 383.300781 57.574219 384.347656 57.226562 385.40625 56.90625 C 386.460938 56.585938 387.527344 56.292969 388.597656 56.023438 C 389.671875 55.753906 390.746094 55.511719 391.832031 55.296875 C 392.914062 55.082031 394.003906 54.894531 395.09375 54.730469 C 396.1875 54.570312 397.285156 54.433594 398.382812 54.324219 C 399.484375 54.214844 400.585938 54.136719 401.6875 54.082031 C 402.792969 54.027344 403.894531 54 405 54 C 406.105469 54 407.207031 54.027344 408.3125 54.082031 C 409.414062 54.136719 410.515625 54.214844 411.617188 54.324219 C 412.714844 54.433594 413.8125 54.570312 414.90625 54.730469 C 415.996094 54.894531 417.085938 55.082031 418.167969 55.296875 C 419.253906 55.511719 420.328125 55.753906 421.402344 56.023438 C 422.472656 56.292969 423.535156 56.585938 424.59375 56.90625 C 425.652344 57.226562 426.699219 57.574219 427.738281 57.945312 C 428.78125 58.316406 429.808594 58.714844 430.832031 59.136719 C 431.851562 59.5625 432.859375 60.007812 433.859375 60.480469 C 434.859375 60.953125 435.84375 61.449219 436.820312 61.96875 C 437.792969 62.492188 438.753906 63.035156 439.703125 63.601562 C 440.648438 64.171875 441.582031 64.761719 442.5 65.375 C 443.417969 65.988281 444.324219 66.625 445.210938 67.285156 C 446.097656 67.941406 446.96875 68.621094 447.820312 69.320312 C 448.675781 70.023438 449.511719 70.742188 450.332031 71.484375 C 451.148438 72.226562 451.949219 72.988281 452.730469 73.769531 C 453.511719 74.550781 454.273438 75.351562 455.015625 76.167969 C 455.757812 76.988281 456.476562 77.824219 457.179688 78.679688 C 457.878906 79.53125 458.558594 80.402344 459.214844 81.289062 C 459.875 82.175781 460.511719 83.082031 461.125 84 C 461.738281 84.917969 462.328125 85.851562 462.898438 86.796875 C 463.464844 87.746094 464.007812 88.707031 464.53125 89.679688 C 465.050781 90.65625 465.546875 91.640625 466.019531 92.640625 C 466.492188 93.636719 466.9375 94.648438 467.363281 95.667969 C 467.785156 96.691406 468.183594 97.71875 468.554688 98.761719 C 468.925781 99.800781 469.273438 100.847656 469.59375 101.90625 C 469.914062 102.964844 470.207031 104.027344 470.476562 105.097656 C 470.746094 106.171875 470.988281 107.246094 471.203125 108.332031 C 471.417969 109.414062 471.605469 110.503906 471.769531 111.59375 C 471.929688 112.6875 472.066406 113.785156 472.175781 114.882812 C 472.28125 115.984375 472.363281 117.085938 472.417969 118.1875 C 472.472656 119.292969 472.5 120.394531 472.5 121.5 Z M 472.5 121.5 "/><path style=" stroke:none;fill-rule:nonzero;fill:#5981c1;fill-opacity:1;" d="M 391.5 324 L 418.5 324 L 418.5 351 L 391.5 351 Z M 391.5 324 "/><path style=" stroke:none;fill-rule:nonzero;fill:#5981c1;fill-opacity:1;" d="M 391.5 459 L 418.5 459 L 418.5 499.5 L 391.5 499.5 Z M 391.5 459 "/><path style=" stroke:none;fill-rule:nonzero;fill:#5981c1;fill-opacity:1;" d="M 391.5 391.5 L 418.5 391.5 L 418.5 432 L 391.5 432 Z M 391.5 391.5 "/><path style=" stroke:none;fill-rule:nonzero;fill:#5981c1;fill-opacity:1;" d="M 229.5 297 C 229.316406 299.523438 229.3125 302.046875 229.480469 304.574219 C 229.652344 307.097656 230 309.597656 230.523438 312.074219 C 231.046875 314.546875 231.738281 316.976562 232.605469 319.355469 C 233.46875 321.730469 234.496094 324.039062 235.683594 326.273438 C 236.871094 328.507812 238.210938 330.644531 239.699219 332.691406 C 241.1875 334.738281 242.8125 336.667969 244.574219 338.488281 C 246.335938 340.304688 248.214844 341.988281 250.210938 343.542969 C 252.207031 345.09375 254.304688 346.5 256.5 347.761719 L 256.5 391.5 L 283.5 391.5 L 283.5 347.761719 C 285.695312 346.5 287.792969 345.09375 289.789062 343.542969 C 291.785156 341.988281 293.664062 340.304688 295.425781 338.488281 C 297.1875 336.667969 298.8125 334.738281 300.300781 332.691406 C 301.789062 330.644531 303.128906 328.507812 304.316406 326.273438 C 305.503906 324.039062 306.53125 321.730469 307.394531 319.355469 C 308.261719 316.976562 308.953125 314.546875 309.476562 312.074219 C 310 309.597656 310.347656 307.097656 310.519531 304.574219 C 310.6875 302.046875 310.683594 299.523438 310.5 297 C 310.5 266.761719 292.679688 243 270 243 C 247.320312 243 229.5 266.761719 229.5 297 Z M 229.5 297 "/><path style=" stroke:none;fill-rule:nonzero;fill:#5981c1;fill-opacity:1;" d="M 499.5 297 C 499.316406 299.523438 499.3125 302.046875 499.480469 304.574219 C 499.652344 307.097656 500 309.597656 500.523438 312.074219 C 501.046875 314.546875 501.738281 316.976562 502.605469 319.355469 C 503.46875 321.730469 504.496094 324.039062 505.683594 326.273438 C 506.871094 328.507812 508.210938 330.644531 509.699219 332.691406 C 511.1875 334.738281 512.8125 336.667969 514.574219 338.488281 C 516.335938 340.304688 518.214844 341.988281 520.210938 343.542969 C 522.207031 345.09375 524.304688 346.5 526.5 347.761719 L 526.5 391.5 L 553.5 391.5 L 553.5 347.761719 C 555.695312 346.5 557.792969 345.09375 559.789062 343.542969 C 561.785156 341.988281 563.664062 340.304688 565.425781 338.488281 C 567.1875 336.667969 568.8125 334.738281 570.300781 332.691406 C 571.789062 330.644531 573.128906 328.507812 574.316406 326.273438 C 575.503906 324.039062 576.53125 321.730469 577.394531 319.355469 C 578.257812 316.976562 578.953125 314.546875 579.476562 312.074219 C 580 309.597656 580.347656 307.097656 580.519531 304.574219 C 580.6875 302.046875 580.683594 299.523438 580.5 297 C 580.5 266.761719 562.679688 243 540 243 C 517.320312 243 499.5 266.761719 499.5 297 Z M 499.5 297 "/><path style=" stroke:none;fill-rule:nonzero;fill:#5981c1;fill-opacity:1;" d="M 135 135 L 189 135 L 189 162 L 135 162 Z M 135 135 "/><path style=" stroke:none;fill-rule:nonzero;fill:#5981c1;fill-opacity:1;" d="M 189 81 L 256.5 81 L 256.5 108 L 189 108 Z M 189 81 "/><path style=" stroke:none;fill-rule:nonzero;fill:#5981c1;fill-opacity:1;" d="M 135 81 L 162 81 L 162 108 L 135 108 Z M 135 81 "/><path style=" stroke:none;fill-rule:nonzero;fill:#5981c1;fill-opacity:1;" d="M 81 135 L 108 135 L 108 162 L 81 162 Z M 81 135 "/><path style=" stroke:none;fill-rule:nonzero;fill:#5981c1;fill-opacity:1;" d="M 621 135 L 675 135 L 675 162 L 621 162 Z M 621 135 "/><path style=" stroke:none;fill-rule:nonzero;fill:#5981c1;fill-opacity:1;" d="M 553.5 81 L 621 81 L 621 108 L 553.5 108 Z M 553.5 81 "/><path style=" stroke:none;fill-rule:nonzero;fill:#5981c1;fill-opacity:1;" d="M 648 81 L 675 81 L 675 108 L 648 108 Z M 648 81 "/><path style=" stroke:none;fill-rule:nonzero;fill:#5981c1;fill-opacity:1;" d="M 702 135 L 729 135 L 729 162 L 702 162 Z M 702 135 "/><path style=" stroke:none;fill-rule:nonzero;fill:#5981c1;fill-opacity:1;" d="M 405 0 C 205.875 0 0 55.351562 0 148.5 L 0 661.5 C 0 702 41.578125 739.800781 116.910156 766.800781 C 192.238281 793.800781 295.246094 810 405 810 C 514.753906 810 617.085938 794.878906 693.089844 767.339844 C 769.09375 739.800781 810 702.945312 810 661.5 L 810 148.5 C 810 55.351562 604.125 0 405 0 Z M 675 744.796875 C 653.167969 751.457031 631.105469 757.261719 608.820312 762.207031 C 586.535156 767.152344 564.089844 771.222656 541.488281 774.421875 C 518.886719 777.621094 496.195312 779.933594 473.410156 781.367188 C 450.628906 782.800781 427.824219 783.34375 405 783 C 382.175781 783.339844 359.371094 782.792969 336.589844 781.363281 C 313.804688 779.929688 291.113281 777.613281 268.511719 774.414062 C 245.910156 771.21875 223.464844 767.144531 201.179688 762.203125 C 178.894531 757.257812 156.835938 751.457031 135 744.796875 L 135 578.203125 C 165.875 568.414062 197.234375 560.570312 229.082031 554.675781 C 260.929688 548.78125 293.019531 544.878906 325.351562 542.96875 C 320.523438 547.160156 316.058594 551.703125 311.949219 556.597656 C 307.84375 561.492188 304.144531 566.679688 300.855469 572.160156 C 297.566406 577.636719 294.726562 583.339844 292.335938 589.265625 C 289.945312 595.195312 288.035156 601.273438 286.605469 607.5 L 270 607.5 L 270 661.5 L 286.605469 661.5 C 287.371094 664.816406 288.273438 668.097656 289.3125 671.339844 C 290.351562 674.582031 291.527344 677.773438 292.835938 680.914062 C 294.144531 684.058594 295.585938 687.140625 297.152344 690.164062 C 298.71875 693.183594 300.410156 696.136719 302.226562 699.015625 C 304.042969 701.894531 305.976562 704.695312 308.027344 707.410156 C 310.082031 710.128906 312.242188 712.753906 314.515625 715.289062 C 316.785156 717.828125 319.160156 720.261719 321.636719 722.597656 C 324.113281 724.933594 326.683594 727.160156 329.347656 729.28125 C 332.011719 731.402344 334.761719 733.40625 337.59375 735.296875 C 340.425781 737.183594 343.332031 738.949219 346.3125 740.59375 C 349.296875 742.238281 352.339844 743.753906 355.449219 745.144531 C 358.558594 746.53125 361.71875 747.789062 364.933594 748.910156 C 368.148438 750.035156 371.402344 751.019531 374.699219 751.867188 C 377.996094 752.71875 381.324219 753.425781 384.679688 753.996094 C 388.035156 754.566406 391.410156 754.992188 394.804688 755.277344 C 398.195312 755.566406 401.59375 755.707031 405 755.707031 C 408.40625 755.707031 411.804688 755.566406 415.195312 755.277344 C 418.589844 754.992188 421.964844 754.566406 425.320312 753.996094 C 428.675781 753.425781 432.003906 752.71875 435.300781 751.867188 C 438.597656 751.019531 441.851562 750.035156 445.066406 748.910156 C 448.28125 747.789062 451.441406 746.53125 454.550781 745.144531 C 457.660156 743.753906 460.703125 742.238281 463.6875 740.59375 C 466.667969 738.949219 469.574219 737.183594 472.40625 735.296875 C 475.238281 733.40625 477.988281 731.402344 480.652344 729.28125 C 483.316406 727.160156 485.886719 724.933594 488.363281 722.597656 C 490.839844 720.261719 493.214844 717.828125 495.484375 715.289062 C 497.757812 712.753906 499.917969 710.128906 501.972656 707.410156 C 504.023438 704.695312 505.957031 701.894531 507.773438 699.015625 C 509.589844 696.136719 511.28125 693.183594 512.847656 690.164062 C 514.414062 687.140625 515.855469 684.058594 517.164062 680.914062 C 518.472656 677.773438 519.648438 674.582031 520.6875 671.339844 C 521.726562 668.097656 522.628906 664.816406 523.394531 661.5 L 540 661.5 L 540 607.5 L 523.394531 607.5 C 521.964844 601.273438 520.054688 595.195312 517.664062 589.265625 C 515.273438 583.339844 512.433594 577.636719 509.144531 572.160156 C 505.855469 566.679688 502.15625 561.492188 498.050781 556.597656 C 493.941406 551.703125 489.476562 547.160156 484.648438 542.96875 C 516.980469 544.878906 549.070312 548.78125 580.917969 554.675781 C 612.765625 560.570312 644.125 568.414062 675 578.203125 Z M 328.726562 607.5 C 329.421875 605.546875 330.195312 603.625 331.039062 601.734375 C 331.882812 599.839844 332.800781 597.984375 333.789062 596.164062 C 334.773438 594.339844 335.832031 592.558594 336.957031 590.816406 C 338.078125 589.078125 339.269531 587.382812 340.523438 585.730469 C 341.777344 584.082031 343.09375 582.484375 344.472656 580.933594 C 345.847656 579.386719 347.28125 577.890625 348.773438 576.453125 C 350.265625 575.015625 351.8125 573.636719 353.410156 572.316406 C 355.007812 570.996094 356.652344 569.738281 358.347656 568.542969 C 360.042969 567.351562 361.777344 566.222656 363.558594 565.164062 C 365.339844 564.101562 367.160156 563.113281 369.015625 562.191406 C 370.871094 561.269531 372.761719 560.421875 374.683594 559.648438 C 376.605469 558.871094 378.554688 558.171875 380.53125 557.542969 C 382.507812 556.917969 384.503906 556.367188 386.519531 555.894531 C 388.539062 555.421875 390.570312 555.027344 392.621094 554.710938 C 394.667969 554.394531 396.726562 554.15625 398.792969 554 C 400.859375 553.839844 402.925781 553.761719 405 553.761719 C 407.074219 553.761719 409.140625 553.839844 411.207031 554 C 413.273438 554.15625 415.332031 554.394531 417.378906 554.710938 C 419.429688 555.027344 421.460938 555.421875 423.480469 555.894531 C 425.496094 556.367188 427.492188 556.917969 429.46875 557.542969 C 431.445312 558.171875 433.394531 558.871094 435.316406 559.648438 C 437.238281 560.421875 439.128906 561.269531 440.984375 562.191406 C 442.839844 563.113281 444.660156 564.101562 446.441406 565.164062 C 448.222656 566.222656 449.957031 567.351562 451.652344 568.542969 C 453.347656 569.738281 454.992188 570.996094 456.589844 572.316406 C 458.1875 573.636719 459.734375 575.015625 461.226562 576.453125 C 462.71875 577.890625 464.152344 579.386719 465.527344 580.933594 C 466.90625 582.484375 468.222656 584.082031 469.476562 585.730469 C 470.730469 587.382812 471.921875 589.078125 473.042969 590.816406 C 474.167969 592.558594 475.226562 594.339844 476.210938 596.164062 C 477.199219 597.984375 478.117188 599.839844 478.960938 601.734375 C 479.804688 603.625 480.578125 605.546875 481.273438 607.5 Z M 481.140625 661.5 C 480.136719 664.320312 478.976562 667.082031 477.667969 669.773438 C 476.355469 672.46875 474.898438 675.082031 473.300781 677.613281 C 471.699219 680.144531 469.960938 682.582031 468.089844 684.921875 C 466.21875 687.261719 464.226562 689.488281 462.109375 691.609375 C 459.988281 693.726562 457.761719 695.71875 455.421875 697.589844 C 453.082031 699.460938 450.644531 701.199219 448.113281 702.800781 C 445.582031 704.398438 442.96875 705.855469 440.273438 707.167969 C 437.582031 708.476562 434.820312 709.636719 432 710.640625 L 432 661.5 Z M 378 661.5 L 378 710.640625 C 375.179688 709.636719 372.417969 708.476562 369.726562 707.167969 C 367.03125 705.855469 364.417969 704.398438 361.886719 702.800781 C 359.355469 701.199219 356.917969 699.460938 354.578125 697.589844 C 352.238281 695.71875 350.011719 693.726562 347.890625 691.609375 C 345.773438 689.488281 343.78125 687.261719 341.910156 684.921875 C 340.039062 682.582031 338.300781 680.144531 336.699219 677.613281 C 335.101562 675.082031 333.644531 672.46875 332.332031 669.773438 C 331.023438 667.082031 329.863281 664.320312 328.859375 661.5 Z M 405 513 C 357.691406 512.96875 310.574219 515.984375 263.65625 522.046875 L 385.15625 295.246094 L 395.011719 306.179688 C 395.324219 306.527344 395.65625 306.855469 396.007812 307.167969 C 396.359375 307.480469 396.722656 307.773438 397.101562 308.050781 C 397.484375 308.324219 397.878906 308.578125 398.285156 308.8125 C 398.691406 309.042969 399.109375 309.253906 399.539062 309.445312 C 399.96875 309.636719 400.40625 309.800781 400.851562 309.945312 C 401.296875 310.089844 401.75 310.210938 402.207031 310.308594 C 402.667969 310.40625 403.128906 310.476562 403.597656 310.527344 C 404.0625 310.574219 404.53125 310.601562 405 310.601562 C 405.46875 310.601562 405.9375 310.574219 406.402344 310.527344 C 406.871094 310.476562 407.332031 310.40625 407.792969 310.308594 C 408.25 310.210938 408.703125 310.089844 409.148438 309.945312 C 409.59375 309.800781 410.03125 309.636719 410.460938 309.445312 C 410.890625 309.253906 411.308594 309.042969 411.714844 308.8125 C 412.121094 308.578125 412.515625 308.324219 412.898438 308.050781 C 413.277344 307.773438 413.640625 307.480469 413.992188 307.167969 C 414.339844 306.855469 414.675781 306.527344 414.988281 306.179688 L 424.84375 295.246094 L 546.34375 522.046875 C 499.425781 515.984375 452.308594 512.96875 405 513 Z M 230.445312 526.5 L 216 529.46875 L 216 495.585938 C 232.066406 486.675781 243 462.511719 243 432 C 243 393.523438 225.585938 364.5 202.5 364.5 C 179.414062 364.5 162 393.523438 162 432 C 162 462.511719 172.933594 486 189 495.585938 L 189 535.140625 C 169.964844 539.460938 152.011719 544.320312 135 549.71875 L 135 301.859375 L 256.5 155.519531 L 365.175781 274.183594 Z M 675 549.71875 C 657.988281 544.320312 640.035156 539.460938 621 535.140625 L 621 495.585938 C 637.066406 486.675781 648 462.511719 648 432 C 648 393.523438 630.585938 364.5 607.5 364.5 C 584.414062 364.5 567 393.523438 567 432 C 567 462.511719 577.933594 486 594 495.585938 L 594 529.46875 L 579.554688 526.5 L 444.554688 273.644531 L 553.5 155.519531 L 675 301.859375 Z M 683.910156 227.878906 C 683.261719 228.113281 682.632812 228.398438 682.03125 228.726562 C 681.425781 229.058594 680.847656 229.433594 680.300781 229.851562 C 679.753906 230.269531 679.238281 230.726562 678.761719 231.226562 C 678.285156 231.722656 677.847656 232.253906 677.453125 232.816406 C 677.054688 233.382812 676.703125 233.972656 676.398438 234.59375 C 676.09375 235.210938 675.835938 235.847656 675.628906 236.503906 C 675.421875 237.164062 675.265625 237.832031 675.160156 238.511719 C 675.054688 239.195312 675 239.878906 675 240.570312 L 675 259.738281 L 563.894531 126.359375 C 563.578125 125.996094 563.246094 125.652344 562.890625 125.324219 C 562.539062 124.996094 562.167969 124.6875 561.785156 124.398438 C 561.398438 124.109375 560.996094 123.84375 560.582031 123.597656 C 560.167969 123.351562 559.742188 123.128906 559.304688 122.929688 C 558.867188 122.730469 558.417969 122.554688 557.960938 122.402344 C 557.503906 122.25 557.039062 122.121094 556.566406 122.019531 C 556.097656 121.917969 555.621094 121.839844 555.144531 121.789062 C 554.664062 121.738281 554.183594 121.710938 553.703125 121.710938 C 553.222656 121.710938 552.742188 121.738281 552.261719 121.789062 C 551.78125 121.839844 551.308594 121.917969 550.835938 122.019531 C 550.367188 122.121094 549.902344 122.25 549.445312 122.402344 C 548.988281 122.554688 548.539062 122.730469 548.101562 122.929688 C 547.664062 123.128906 547.238281 123.351562 546.820312 123.597656 C 546.40625 123.84375 546.007812 124.109375 545.621094 124.398438 C 545.234375 124.6875 544.867188 124.996094 544.511719 125.324219 C 544.160156 125.652344 543.824219 125.996094 543.511719 126.359375 L 405 277.019531 L 266.488281 125.820312 C 265.203125 124.429688 263.6875 123.359375 261.949219 122.609375 C 260.210938 121.855469 258.394531 121.488281 256.5 121.5 C 255.53125 121.519531 254.574219 121.640625 253.632812 121.863281 C 252.691406 122.085938 251.78125 122.40625 250.90625 122.828125 C 250.035156 123.246094 249.214844 123.753906 248.453125 124.347656 C 247.6875 124.945312 246.996094 125.617188 246.375 126.359375 L 135 259.738281 L 135 240.570312 C 135 239.878906 134.945312 239.195312 134.839844 238.511719 C 134.734375 237.832031 134.578125 237.164062 134.371094 236.503906 C 134.164062 235.847656 133.90625 235.210938 133.601562 234.59375 C 133.296875 233.972656 132.945312 233.382812 132.546875 232.816406 C 132.152344 232.253906 131.714844 231.722656 131.238281 231.226562 C 130.761719 230.726562 130.246094 230.269531 129.699219 229.851562 C 129.152344 229.433594 128.574219 229.058594 127.96875 228.726562 C 127.367188 228.398438 126.738281 228.113281 126.089844 227.878906 C 63.046875 205.335938 27 176.175781 27 148.5 C 27 90.71875 182.25 27 405 27 C 627.75 27 783 90.71875 783 148.5 C 783 176.175781 746.953125 205.335938 683.910156 227.878906 Z M 683.910156 227.878906 "/></g></svg>