<svg xmlns="http://www.w3.org/2000/svg" xmlns:xlink="http://www.w3.org/1999/xlink" width="1080" zoomAndPan="magnify" viewBox="0 0 810 809.999993" height="1080" preserveAspectRatio="xMidYMid meet" version="1.2"><defs><clipPath id="723d0cffa3"><path d="M 298 30.882812 L 379 30.882812 L 379 111 L 298 111 Z M 298 30.882812 "/></clipPath></defs><g id="f93dc8048f"><path style=" stroke:none;fill-rule:nonzero;fill:#0e3f96;fill-opacity:1;" d="M 550.933594 701.25 L 116.367188 701.25 C 112.066406 701.25 108.582031 697.761719 108.582031 693.457031 L 108.582031 96.914062 C 108.582031 92.609375 112.066406 89.121094 116.367188 89.121094 L 550.933594 89.121094 C 555.234375 89.121094 558.71875 92.609375 558.71875 96.914062 L 558.71875 693.457031 C 558.722656 697.761719 555.234375 701.25 550.933594 701.25 Z M 550.933594 701.25 "/><path style=" stroke:none;fill-rule:nonzero;fill:#ebf7f6;fill-opacity:1;" d="M 138.121094 120.082031 L 531.992188 120.082031 L 531.992188 671.699219 L 138.121094 671.699219 Z M 138.121094 120.082031 "/><path style=" stroke:none;fill-rule:nonzero;fill:#ea9c34;fill-opacity:1;" d="M 248.546875 72.238281 L 422.792969 72.238281 L 422.792969 142.601562 L 248.546875 142.601562 Z M 248.546875 72.238281 "/><path style=" stroke:none;fill-rule:nonzero;fill:#faaf3b;fill-opacity:1;" d="M 248.546875 72.238281 L 422.792969 72.238281 L 422.792969 131.195312 L 248.546875 131.195312 Z M 248.546875 72.238281 "/><g clip-rule="nonzero" clip-path="url(#723d0cffa3)"><path style=" stroke:none;fill-rule:nonzero;fill:#faaf3b;fill-opacity:1;" d="M 338.835938 30.90625 C 316.820312 30.90625 298.976562 48.757812 298.976562 70.78125 C 298.976562 92.800781 316.820312 110.652344 338.835938 110.652344 C 360.847656 110.652344 378.695312 92.800781 378.695312 70.78125 C 378.695312 48.757812 360.847656 30.90625 338.835938 30.90625 Z M 338.855469 86.335938 C 327.738281 86.335938 318.726562 77.320312 318.726562 66.199219 C 318.726562 55.078125 327.738281 46.0625 338.855469 46.0625 C 349.972656 46.0625 358.984375 55.078125 358.984375 66.199219 C 358.984375 77.320312 349.972656 86.335938 338.855469 86.335938 Z M 338.855469 86.335938 "/></g><path style=" stroke:none;fill-rule:nonzero;fill:#ffffff;fill-opacity:1;" d="M 164.527344 156.246094 L 509.390625 156.246094 L 509.390625 240.59375 L 164.527344 240.59375 Z M 164.527344 156.246094 "/><path style=" stroke:none;fill-rule:nonzero;fill:#ffffff;fill-opacity:1;" d="M 163.238281 248.191406 L 508.101562 248.191406 L 508.101562 332.539062 L 163.238281 332.539062 Z M 163.238281 248.191406 "/><path style=" stroke:none;fill-rule:nonzero;fill:#ffffff;fill-opacity:1;" d="M 162.625 340.136719 L 507.492188 340.136719 L 507.492188 424.484375 L 162.625 424.484375 Z M 162.625 340.136719 "/><path style=" stroke:none;fill-rule:nonzero;fill:#ffffff;fill-opacity:1;" d="M 162.625 432.082031 L 507.492188 432.082031 L 507.492188 516.429688 L 162.625 516.429688 Z M 162.625 432.082031 "/><path style=" stroke:none;fill-rule:nonzero;fill:#ffffff;fill-opacity:1;" d="M 162.625 525.464844 L 507.492188 525.464844 L 507.492188 609.8125 L 162.625 609.8125 Z M 162.625 525.464844 "/><path style="fill:none;stroke-width:4;stroke-linecap:butt;stroke-linejoin:miter;stroke:#0071bb;stroke-opacity:1;stroke-miterlimit:10;" d="M 1239.550309 1183.106188 L 1600.265512 1183.106188 L 1600.265512 1543.827189 L 1239.550309 1543.827189 Z M 1239.550309 1183.106188 " transform="matrix(0.172682,0,0,0.172744,-38.888007,-39.01158)"/><path style="fill:none;stroke-width:4;stroke-linecap:butt;stroke-linejoin:miter;stroke:#0071bb;stroke-opacity:1;stroke-miterlimit:10;" d="M 1239.550309 1726.381141 L 1600.265512 1726.381141 L 1600.265512 2087.079529 L 1239.550309 2087.079529 Z M 1239.550309 1726.381141 " transform="matrix(0.172682,0,0,0.172744,-38.888007,-39.01158)"/><path style="fill:none;stroke-width:4;stroke-linecap:butt;stroke-linejoin:miter;stroke:#0071bb;stroke-opacity:1;stroke-miterlimit:10;" d="M 1239.550309 2258.643611 L 1600.265512 2258.643611 L 1600.265512 2619.341999 L 1239.550309 2619.341999 Z M 1239.550309 2258.643611 " transform="matrix(0.172682,0,0,0.172744,-38.888007,-39.01158)"/><path style="fill:none;stroke-width:4;stroke-linecap:butt;stroke-linejoin:miter;stroke:#0071bb;stroke-opacity:1;stroke-miterlimit:10;" d="M 1239.550309 2790.906081 L 1600.265512 2790.906081 L 1600.265512 3151.604469 L 1239.550309 3151.604469 Z M 1239.550309 2790.906081 " transform="matrix(0.172682,0,0,0.172744,-38.888007,-39.01158)"/><path style="fill:none;stroke-width:4;stroke-linecap:butt;stroke-linejoin:miter;stroke:#0071bb;stroke-opacity:1;stroke-miterlimit:10;" d="M 1239.550309 3331.490098 L 1600.265512 3331.490098 L 1600.265512 3692.188486 L 1239.550309 3692.188486 Z M 1239.550309 3331.490098 " transform="matrix(0.172682,0,0,0.172744,-38.888007,-39.01158)"/><path style=" stroke:none;fill-rule:nonzero;fill:#0071bb;fill-opacity:1;" d="M 257.472656 168.117188 L 250.847656 162.613281 L 209.308594 212.625 L 193.3125 198.433594 L 187.601562 204.875 L 210.480469 224.699219 L 210.683594 224.449219 Z M 257.472656 168.117188 "/><path style=" stroke:none;fill-rule:nonzero;fill:#0071bb;fill-opacity:1;" d="M 254.175781 259.808594 L 247.558594 254.304688 L 206.019531 304.320312 L 190.019531 290.125 L 184.308594 296.570312 L 207.191406 316.390625 L 207.394531 316.140625 Z M 254.175781 259.808594 "/><path style=" stroke:none;fill-rule:nonzero;fill:#0071bb;fill-opacity:1;" d="M 254.175781 352.511719 L 247.558594 347.007812 L 206.019531 397.023438 L 190.019531 382.832031 L 184.308594 389.273438 L 207.191406 409.097656 L 207.394531 408.84375 Z M 254.175781 352.511719 "/><path style=" stroke:none;fill-rule:nonzero;fill:#0071bb;fill-opacity:1;" d="M 254.175781 443.925781 L 247.558594 438.421875 L 206.019531 488.433594 L 190.019531 474.242188 L 184.308594 480.6875 L 207.191406 500.507812 L 207.394531 500.257812 Z M 254.175781 443.925781 "/><path style=" stroke:none;fill-rule:nonzero;fill:#0071bb;fill-opacity:1;" d="M 254.175781 538.152344 L 247.558594 532.648438 L 206.019531 582.664062 L 190.019531 568.46875 L 184.308594 574.910156 L 207.191406 594.734375 L 207.394531 594.484375 Z M 254.175781 538.152344 "/><path style=" stroke:none;fill-rule:nonzero;fill:#ebf7f6;fill-opacity:1;" d="M 264.792969 180.5625 L 489.636719 180.5625 L 489.636719 190.1875 L 264.792969 190.1875 Z M 264.792969 180.5625 "/><path style=" stroke:none;fill-rule:nonzero;fill:#ebf7f6;fill-opacity:1;" d="M 264.792969 196.519531 L 489.636719 196.519531 L 489.636719 206.144531 L 264.792969 206.144531 Z M 264.792969 196.519531 "/><path style=" stroke:none;fill-rule:nonzero;fill:#ebf7f6;fill-opacity:1;" d="M 264.792969 212.476562 L 489.636719 212.476562 L 489.636719 222.101562 L 264.792969 222.101562 Z M 264.792969 212.476562 "/><path style=" stroke:none;fill-rule:nonzero;fill:#ebf7f6;fill-opacity:1;" d="M 266.269531 269.59375 L 491.113281 269.59375 L 491.113281 279.21875 L 266.269531 279.21875 Z M 266.269531 269.59375 "/><path style=" stroke:none;fill-rule:nonzero;fill:#ebf7f6;fill-opacity:1;" d="M 266.269531 285.550781 L 491.113281 285.550781 L 491.113281 295.179688 L 266.269531 295.179688 Z M 266.269531 285.550781 "/><path style=" stroke:none;fill-rule:nonzero;fill:#ebf7f6;fill-opacity:1;" d="M 266.269531 301.507812 L 491.113281 301.507812 L 491.113281 311.132812 L 266.269531 311.132812 Z M 266.269531 301.507812 "/><path style=" stroke:none;fill-rule:nonzero;fill:#ebf7f6;fill-opacity:1;" d="M 267.75 358.625 L 492.59375 358.625 L 492.59375 368.253906 L 267.75 368.253906 Z M 267.75 358.625 "/><path style=" stroke:none;fill-rule:nonzero;fill:#ebf7f6;fill-opacity:1;" d="M 267.75 374.585938 L 492.59375 374.585938 L 492.59375 384.210938 L 267.75 384.210938 Z M 267.75 374.585938 "/><path style=" stroke:none;fill-rule:nonzero;fill:#ebf7f6;fill-opacity:1;" d="M 267.75 390.542969 L 492.59375 390.542969 L 492.59375 400.167969 L 267.75 400.167969 Z M 267.75 390.542969 "/><path style=" stroke:none;fill-rule:nonzero;fill:#ebf7f6;fill-opacity:1;" d="M 269.226562 447.660156 L 494.070312 447.660156 L 494.070312 457.285156 L 269.226562 457.285156 Z M 269.226562 447.660156 "/><path style=" stroke:none;fill-rule:nonzero;fill:#ebf7f6;fill-opacity:1;" d="M 269.226562 463.617188 L 494.070312 463.617188 L 494.070312 473.242188 L 269.226562 473.242188 Z M 269.226562 463.617188 "/><path style=" stroke:none;fill-rule:nonzero;fill:#ebf7f6;fill-opacity:1;" d="M 269.226562 479.574219 L 494.070312 479.574219 L 494.070312 489.199219 L 269.226562 489.199219 Z M 269.226562 479.574219 "/><path style=" stroke:none;fill-rule:nonzero;fill:#ebf7f6;fill-opacity:1;" d="M 270.703125 536.695312 L 495.546875 536.695312 L 495.546875 546.320312 L 270.703125 546.320312 Z M 270.703125 536.695312 "/><path style=" stroke:none;fill-rule:nonzero;fill:#ebf7f6;fill-opacity:1;" d="M 270.703125 552.652344 L 495.546875 552.652344 L 495.546875 562.277344 L 270.703125 562.277344 Z M 270.703125 552.652344 "/><path style=" stroke:none;fill-rule:nonzero;fill:#ebf7f6;fill-opacity:1;" d="M 270.703125 568.609375 L 495.546875 568.609375 L 495.546875 578.234375 L 270.703125 578.234375 Z M 270.703125 568.609375 "/><path style=" stroke:none;fill-rule:nonzero;fill:#eebe6a;fill-opacity:1;" d="M 399.574219 492.613281 L 526.121094 492.613281 L 526.121094 597.054688 L 399.574219 597.054688 Z M 399.574219 492.613281 "/><path style=" stroke:none;fill-rule:nonzero;fill:#eebe6a;fill-opacity:1;" d="M 396.210938 477.8125 L 529.449219 477.8125 L 529.449219 496.523438 L 396.210938 496.523438 Z M 396.210938 477.8125 "/><path style=" stroke:none;fill-rule:nonzero;fill:#e6e7e8;fill-opacity:1;" d="M 399.574219 503.320312 L 482.867188 597.054688 L 526.121094 597.054688 L 526.121094 496.523438 L 399.574219 496.523438 Z M 399.574219 503.320312 "/><path style=" stroke:none;fill-rule:nonzero;fill:#cf7f3d;fill-opacity:1;" d="M 409.558594 477.8125 L 423.832031 477.8125 L 423.832031 503.320312 L 409.558594 503.320312 Z M 409.558594 477.8125 "/><path style=" stroke:none;fill-rule:nonzero;fill:#cf7f3d;fill-opacity:1;" d="M 502.363281 477.8125 L 516.644531 477.8125 L 516.644531 503.320312 L 502.363281 503.320312 Z M 502.363281 477.8125 "/><path style=" stroke:none;fill-rule:nonzero;fill:#f1f2f2;fill-opacity:1;" d="M 434.289062 526.648438 L 491.410156 526.648438 L 491.410156 560.289062 L 434.289062 560.289062 Z M 434.289062 526.648438 "/><path style="fill:none;stroke-width:0.75;stroke-linecap:butt;stroke-linejoin:miter;stroke:#ed7425;stroke-opacity:1;stroke-miterlimit:10;" d="M 2756.110488 3320.771583 L 3051.654457 3320.771583 " transform="matrix(0.172682,0,0,0.172744,-38.888007,-39.01158)"/><path style="fill:none;stroke-width:0.75;stroke-linecap:butt;stroke-linejoin:miter;stroke:#ed7425;stroke-opacity:1;stroke-miterlimit:10;" d="M 2756.110488 3359.303967 L 3051.654457 3359.303967 " transform="matrix(0.172682,0,0,0.172744,-38.888007,-39.01158)"/><path style="fill:none;stroke-width:0.75;stroke-linecap:butt;stroke-linejoin:miter;stroke:#ed7425;stroke-opacity:1;stroke-miterlimit:10;" d="M 2757.761825 3397.813737 L 3053.328414 3397.813737 " transform="matrix(0.172682,0,0,0.172744,-38.888007,-39.01158)"/><path style=" stroke:none;fill-rule:nonzero;fill:#eebe6a;fill-opacity:1;" d="M 263.949219 492.613281 L 390.496094 492.613281 L 390.496094 597.054688 L 263.949219 597.054688 Z M 263.949219 492.613281 "/><path style=" stroke:none;fill-rule:nonzero;fill:#eebe6a;fill-opacity:1;" d="M 260.585938 477.8125 L 393.824219 477.8125 L 393.824219 496.523438 L 260.585938 496.523438 Z M 260.585938 477.8125 "/><path style=" stroke:none;fill-rule:nonzero;fill:#e6e7e8;fill-opacity:1;" d="M 263.949219 503.320312 L 347.242188 597.054688 L 390.496094 597.054688 L 390.496094 496.523438 L 263.949219 496.523438 Z M 263.949219 503.320312 "/><path style=" stroke:none;fill-rule:nonzero;fill:#cf7f3d;fill-opacity:1;" d="M 273.933594 477.8125 L 288.203125 477.8125 L 288.203125 503.320312 L 273.933594 503.320312 Z M 273.933594 477.8125 "/><path style=" stroke:none;fill-rule:nonzero;fill:#cf7f3d;fill-opacity:1;" d="M 366.738281 477.8125 L 381.019531 477.8125 L 381.019531 503.320312 L 366.738281 503.320312 Z M 366.738281 477.8125 "/><path style=" stroke:none;fill-rule:nonzero;fill:#f1f2f2;fill-opacity:1;" d="M 298.664062 526.648438 L 355.785156 526.648438 L 355.785156 560.289062 L 298.664062 560.289062 Z M 298.664062 526.648438 "/><path style="fill:none;stroke-width:0.75;stroke-linecap:butt;stroke-linejoin:miter;stroke:#ed7425;stroke-opacity:1;stroke-miterlimit:10;" d="M 1970.685143 3320.771583 L 2266.251733 3320.771583 " transform="matrix(0.172682,0,0,0.172744,-38.888007,-39.01158)"/><path style="fill:none;stroke-width:0.75;stroke-linecap:butt;stroke-linejoin:miter;stroke:#ed7425;stroke-opacity:1;stroke-miterlimit:10;" d="M 1970.685143 3359.303967 L 2266.251733 3359.303967 " transform="matrix(0.172682,0,0,0.172744,-38.888007,-39.01158)"/><path style="fill:none;stroke-width:0.75;stroke-linecap:butt;stroke-linejoin:miter;stroke:#ed7425;stroke-opacity:1;stroke-miterlimit:10;" d="M 1972.359101 3397.813737 L 2267.92569 3397.813737 " transform="matrix(0.172682,0,0,0.172744,-38.888007,-39.01158)"/><path style=" stroke:none;fill-rule:nonzero;fill:#eebe6a;fill-opacity:1;" d="M 537.386719 492.710938 L 663.933594 492.710938 L 663.933594 597.152344 L 537.386719 597.152344 Z M 537.386719 492.710938 "/><path style=" stroke:none;fill-rule:nonzero;fill:#eebe6a;fill-opacity:1;" d="M 534.019531 477.910156 L 667.257812 477.910156 L 667.257812 496.621094 L 534.019531 496.621094 Z M 534.019531 477.910156 "/><path style=" stroke:none;fill-rule:nonzero;fill:#e6e7e8;fill-opacity:1;" d="M 537.386719 503.417969 L 620.679688 597.152344 L 663.933594 597.152344 L 663.933594 496.621094 L 537.386719 496.621094 Z M 537.386719 503.417969 "/><path style=" stroke:none;fill-rule:nonzero;fill:#cf7f3d;fill-opacity:1;" d="M 547.371094 477.910156 L 561.640625 477.910156 L 561.640625 503.417969 L 547.371094 503.417969 Z M 547.371094 477.910156 "/><path style=" stroke:none;fill-rule:nonzero;fill:#cf7f3d;fill-opacity:1;" d="M 640.175781 477.910156 L 654.453125 477.910156 L 654.453125 503.417969 L 640.175781 503.417969 Z M 640.175781 477.910156 "/><path style=" stroke:none;fill-rule:nonzero;fill:#f1f2f2;fill-opacity:1;" d="M 572.097656 526.75 L 629.222656 526.75 L 629.222656 560.390625 L 572.097656 560.390625 Z M 572.097656 526.75 "/><path style="fill:none;stroke-width:0.75;stroke-linecap:butt;stroke-linejoin:miter;stroke:#ed7425;stroke-opacity:1;stroke-miterlimit:10;" d="M 3554.158377 3321.359518 L 3849.724967 3321.359518 " transform="matrix(0.172682,0,0,0.172744,-38.888007,-39.01158)"/><path style="fill:none;stroke-width:0.75;stroke-linecap:butt;stroke-linejoin:miter;stroke:#ed7425;stroke-opacity:1;stroke-miterlimit:10;" d="M 3554.158377 3359.869289 L 3849.724967 3359.869289 " transform="matrix(0.172682,0,0,0.172744,-38.888007,-39.01158)"/><path style="fill:none;stroke-width:0.75;stroke-linecap:butt;stroke-linejoin:miter;stroke:#ed7425;stroke-opacity:1;stroke-miterlimit:10;" d="M 3555.832335 3398.37906 L 3851.398924 3398.37906 " transform="matrix(0.172682,0,0,0.172744,-38.888007,-39.01158)"/><path style=" stroke:none;fill-rule:nonzero;fill:#eebe6a;fill-opacity:1;" d="M 399.972656 614.15625 L 526.523438 614.15625 L 526.523438 718.597656 L 399.972656 718.597656 Z M 399.972656 614.15625 "/><path style=" stroke:none;fill-rule:nonzero;fill:#eebe6a;fill-opacity:1;" d="M 396.609375 599.355469 L 529.847656 599.355469 L 529.847656 618.066406 L 396.609375 618.066406 Z M 396.609375 599.355469 "/><path style=" stroke:none;fill-rule:nonzero;fill:#e6e7e8;fill-opacity:1;" d="M 399.972656 624.859375 L 483.265625 718.597656 L 526.523438 718.597656 L 526.523438 618.066406 L 399.972656 618.066406 Z M 399.972656 624.859375 "/><path style=" stroke:none;fill-rule:nonzero;fill:#cf7f3d;fill-opacity:1;" d="M 409.957031 599.355469 L 424.226562 599.355469 L 424.226562 624.859375 L 409.957031 624.859375 Z M 409.957031 599.355469 "/><path style=" stroke:none;fill-rule:nonzero;fill:#cf7f3d;fill-opacity:1;" d="M 502.765625 599.355469 L 517.042969 599.355469 L 517.042969 624.859375 L 502.765625 624.859375 Z M 502.765625 599.355469 "/><path style=" stroke:none;fill-rule:nonzero;fill:#f1f2f2;fill-opacity:1;" d="M 434.6875 648.191406 L 491.808594 648.191406 L 491.808594 681.832031 L 434.6875 681.832031 Z M 434.6875 648.191406 "/><path style="fill:none;stroke-width:0.75;stroke-linecap:butt;stroke-linejoin:miter;stroke:#ed7425;stroke-opacity:1;stroke-miterlimit:10;" d="M 2758.417835 4024.372006 L 3053.961804 4024.372006 " transform="matrix(0.172682,0,0,0.172744,-38.888007,-39.01158)"/><path style="fill:none;stroke-width:0.75;stroke-linecap:butt;stroke-linejoin:miter;stroke:#ed7425;stroke-opacity:1;stroke-miterlimit:10;" d="M 2758.417835 4062.881776 L 3053.961804 4062.881776 " transform="matrix(0.172682,0,0,0.172744,-38.888007,-39.01158)"/><path style="fill:none;stroke-width:0.75;stroke-linecap:butt;stroke-linejoin:miter;stroke:#ed7425;stroke-opacity:1;stroke-miterlimit:10;" d="M 2760.069171 4101.41416 L 3055.635761 4101.41416 " transform="matrix(0.172682,0,0,0.172744,-38.888007,-39.01158)"/><path style=" stroke:none;fill-rule:nonzero;fill:#eebe6a;fill-opacity:1;" d="M 264.347656 614.15625 L 390.894531 614.15625 L 390.894531 718.597656 L 264.347656 718.597656 Z M 264.347656 614.15625 "/><path style=" stroke:none;fill-rule:nonzero;fill:#eebe6a;fill-opacity:1;" d="M 260.980469 599.355469 L 394.21875 599.355469 L 394.21875 618.066406 L 260.980469 618.066406 Z M 260.980469 599.355469 "/><path style=" stroke:none;fill-rule:nonzero;fill:#e6e7e8;fill-opacity:1;" d="M 264.347656 624.859375 L 347.636719 718.597656 L 390.894531 718.597656 L 390.894531 618.066406 L 264.347656 618.066406 Z M 264.347656 624.859375 "/><path style=" stroke:none;fill-rule:nonzero;fill:#cf7f3d;fill-opacity:1;" d="M 274.332031 599.355469 L 288.601562 599.355469 L 288.601562 624.859375 L 274.332031 624.859375 Z M 274.332031 599.355469 "/><path style=" stroke:none;fill-rule:nonzero;fill:#cf7f3d;fill-opacity:1;" d="M 367.136719 599.355469 L 381.414062 599.355469 L 381.414062 624.859375 L 367.136719 624.859375 Z M 367.136719 599.355469 "/><path style=" stroke:none;fill-rule:nonzero;fill:#f1f2f2;fill-opacity:1;" d="M 299.058594 648.191406 L 356.179688 648.191406 L 356.179688 681.832031 L 299.058594 681.832031 Z M 299.058594 648.191406 "/><path style="fill:none;stroke-width:0.75;stroke-linecap:butt;stroke-linejoin:miter;stroke:#ed7425;stroke-opacity:1;stroke-miterlimit:10;" d="M 1972.99249 4024.372006 L 2268.55908 4024.372006 " transform="matrix(0.172682,0,0,0.172744,-38.888007,-39.01158)"/><path style="fill:none;stroke-width:0.75;stroke-linecap:butt;stroke-linejoin:miter;stroke:#ed7425;stroke-opacity:1;stroke-miterlimit:10;" d="M 1972.99249 4062.881776 L 2268.55908 4062.881776 " transform="matrix(0.172682,0,0,0.172744,-38.888007,-39.01158)"/><path style="fill:none;stroke-width:0.75;stroke-linecap:butt;stroke-linejoin:miter;stroke:#ed7425;stroke-opacity:1;stroke-miterlimit:10;" d="M 1974.666447 4101.41416 L 2270.233037 4101.41416 " transform="matrix(0.172682,0,0,0.172744,-38.888007,-39.01158)"/><path style=" stroke:none;fill-rule:nonzero;fill:#eebe6a;fill-opacity:1;" d="M 537.785156 614.253906 L 664.332031 614.253906 L 664.332031 718.695312 L 537.785156 718.695312 Z M 537.785156 614.253906 "/><path style=" stroke:none;fill-rule:nonzero;fill:#eebe6a;fill-opacity:1;" d="M 534.417969 599.453125 L 667.65625 599.453125 L 667.65625 618.164062 L 534.417969 618.164062 Z M 534.417969 599.453125 "/><path style=" stroke:none;fill-rule:nonzero;fill:#e6e7e8;fill-opacity:1;" d="M 537.785156 624.957031 L 621.074219 718.695312 L 664.332031 718.695312 L 664.332031 618.164062 L 537.785156 618.164062 Z M 537.785156 624.957031 "/><path style=" stroke:none;fill-rule:nonzero;fill:#cf7f3d;fill-opacity:1;" d="M 547.769531 599.453125 L 562.039062 599.453125 L 562.039062 624.957031 L 547.769531 624.957031 Z M 547.769531 599.453125 "/><path style=" stroke:none;fill-rule:nonzero;fill:#cf7f3d;fill-opacity:1;" d="M 640.574219 599.453125 L 654.851562 599.453125 L 654.851562 624.957031 L 640.574219 624.957031 Z M 640.574219 599.453125 "/><path style=" stroke:none;fill-rule:nonzero;fill:#f1f2f2;fill-opacity:1;" d="M 572.496094 648.292969 L 629.617188 648.292969 L 629.617188 681.933594 L 572.496094 681.933594 Z M 572.496094 648.292969 "/><path style="fill:none;stroke-width:0.75;stroke-linecap:butt;stroke-linejoin:miter;stroke:#ed7425;stroke-opacity:1;stroke-miterlimit:10;" d="M 3556.465724 4024.959941 L 3852.032314 4024.959941 " transform="matrix(0.172682,0,0,0.172744,-38.888007,-39.01158)"/><path style="fill:none;stroke-width:0.75;stroke-linecap:butt;stroke-linejoin:miter;stroke:#ed7425;stroke-opacity:1;stroke-miterlimit:10;" d="M 3556.465724 4063.469712 L 3852.032314 4063.469712 " transform="matrix(0.172682,0,0,0.172744,-38.888007,-39.01158)"/><path style="fill:none;stroke-width:0.75;stroke-linecap:butt;stroke-linejoin:miter;stroke:#ed7425;stroke-opacity:1;stroke-miterlimit:10;" d="M 3558.139681 4101.979483 L 3853.706271 4101.979483 " transform="matrix(0.172682,0,0,0.172744,-38.888007,-39.01158)"/><path style=" stroke:none;fill-rule:nonzero;fill:#eebe6a;fill-opacity:1;" d="M 367.734375 372.925781 L 494.285156 372.925781 L 494.285156 477.367188 L 367.734375 477.367188 Z M 367.734375 372.925781 "/><path style=" stroke:none;fill-rule:nonzero;fill:#eebe6a;fill-opacity:1;" d="M 364.371094 358.125 L 497.609375 358.125 L 497.609375 376.835938 L 364.371094 376.835938 Z M 364.371094 358.125 "/><path style=" stroke:none;fill-rule:nonzero;fill:#e6e7e8;fill-opacity:1;" d="M 367.734375 383.628906 L 451.027344 477.367188 L 494.28125 477.367188 L 494.28125 376.835938 L 367.734375 376.835938 Z M 367.734375 383.628906 "/><path style=" stroke:none;fill-rule:nonzero;fill:#cf7f3d;fill-opacity:1;" d="M 377.71875 358.125 L 391.988281 358.125 L 391.988281 383.628906 L 377.71875 383.628906 Z M 377.71875 358.125 "/><path style=" stroke:none;fill-rule:nonzero;fill:#cf7f3d;fill-opacity:1;" d="M 470.523438 358.125 L 484.804688 358.125 L 484.804688 383.628906 L 470.523438 383.628906 Z M 470.523438 358.125 "/><path style=" stroke:none;fill-rule:nonzero;fill:#f1f2f2;fill-opacity:1;" d="M 402.449219 406.960938 L 459.570312 406.960938 L 459.570312 440.601562 L 402.449219 440.601562 Z M 402.449219 406.960938 "/><path style="fill:none;stroke-width:0.75;stroke-linecap:butt;stroke-linejoin:miter;stroke:#ed7425;stroke-opacity:1;stroke-miterlimit:10;" d="M 2571.70372 2627.912288 L 2867.270309 2627.912288 " transform="matrix(0.172682,0,0,0.172744,-38.888007,-39.01158)"/><path style="fill:none;stroke-width:0.75;stroke-linecap:butt;stroke-linejoin:miter;stroke:#ed7425;stroke-opacity:1;stroke-miterlimit:10;" d="M 2571.70372 2666.422059 L 2867.270309 2666.422059 " transform="matrix(0.172682,0,0,0.172744,-38.888007,-39.01158)"/><path style="fill:none;stroke-width:0.75;stroke-linecap:butt;stroke-linejoin:miter;stroke:#ed7425;stroke-opacity:1;stroke-miterlimit:10;" d="M 2573.377677 2704.954443 L 2868.944267 2704.954443 " transform="matrix(0.172682,0,0,0.172744,-38.888007,-39.01158)"/><path style=" stroke:none;fill-rule:nonzero;fill:#eebe6a;fill-opacity:1;" d="M 505.730469 372.925781 L 632.277344 372.925781 L 632.277344 477.367188 L 505.730469 477.367188 Z M 505.730469 372.925781 "/><path style=" stroke:none;fill-rule:nonzero;fill:#eebe6a;fill-opacity:1;" d="M 502.363281 358.125 L 635.601562 358.125 L 635.601562 376.835938 L 502.363281 376.835938 Z M 502.363281 358.125 "/><path style=" stroke:none;fill-rule:nonzero;fill:#e6e7e8;fill-opacity:1;" d="M 505.730469 383.628906 L 589.023438 477.367188 L 632.277344 477.367188 L 632.277344 376.835938 L 505.730469 376.835938 Z M 505.730469 383.628906 "/><path style=" stroke:none;fill-rule:nonzero;fill:#cf7f3d;fill-opacity:1;" d="M 515.714844 358.125 L 529.984375 358.125 L 529.984375 383.628906 L 515.714844 383.628906 Z M 515.714844 358.125 "/><path style=" stroke:none;fill-rule:nonzero;fill:#cf7f3d;fill-opacity:1;" d="M 608.519531 358.125 L 622.796875 358.125 L 622.796875 383.628906 L 608.519531 383.628906 Z M 608.519531 358.125 "/><path style=" stroke:none;fill-rule:nonzero;fill:#f1f2f2;fill-opacity:1;" d="M 540.441406 406.960938 L 597.566406 406.960938 L 597.566406 440.601562 L 540.441406 440.601562 Z M 540.441406 406.960938 "/><path style="fill:none;stroke-width:0.75;stroke-linecap:butt;stroke-linejoin:miter;stroke:#ed7425;stroke-opacity:1;stroke-miterlimit:10;" d="M 3370.837419 2627.912288 L 3666.404009 2627.912288 " transform="matrix(0.172682,0,0,0.172744,-38.888007,-39.01158)"/><path style="fill:none;stroke-width:0.75;stroke-linecap:butt;stroke-linejoin:miter;stroke:#ed7425;stroke-opacity:1;stroke-miterlimit:10;" d="M 3370.837419 2666.422059 L 3666.404009 2666.422059 " transform="matrix(0.172682,0,0,0.172744,-38.888007,-39.01158)"/><path style="fill:none;stroke-width:0.75;stroke-linecap:butt;stroke-linejoin:miter;stroke:#ed7425;stroke-opacity:1;stroke-miterlimit:10;" d="M 3372.511376 2704.954443 L 3668.077966 2704.954443 " transform="matrix(0.172682,0,0,0.172744,-38.888007,-39.01158)"/><path style=" stroke:none;fill-rule:nonzero;fill:#c0272d;fill-opacity:1;" d="M 607.957031 752.304688 C 604.078125 752.761719 584.695312 751.621094 588.117188 758.464844 C 591.535156 765.308594 610.695312 774.890625 629.164062 772.152344 C 647.636719 769.414062 649.578125 767.820312 654.992188 767.820312 C 660.40625 767.820312 669.074219 766.222656 669.074219 766.222656 C 669.074219 766.222656 668.617188 742.496094 664.96875 741.128906 L 639.429688 743.410156 C 639.429688 743.40625 611.832031 751.847656 607.957031 752.304688 Z M 607.957031 752.304688 "/><path style=" stroke:none;fill-rule:nonzero;fill:#c0272d;fill-opacity:1;" d="M 772.152344 738.378906 C 772.152344 738.378906 753.570312 761.199219 742.964844 763.9375 C 732.359375 766.675781 723.464844 771.855469 733.386719 775.597656 C 743.308594 779.339844 798.210938 760.539062 800.089844 759.84375 C 802.601562 758.921875 810.011719 754.359375 810.011719 754.359375 L 794.964844 731.664062 Z M 772.152344 738.378906 "/><path style=" stroke:none;fill-rule:nonzero;fill:#dd4c1f;fill-opacity:1;" d="M 694.59375 490.824219 C 694.59375 490.824219 629.167969 600.136719 629.167969 601.503906 C 629.167969 602.875 635.324219 730.859375 637.375 730.859375 C 639.429688 730.859375 666.625 730.859375 666.625 730.859375 C 666.625 730.859375 692.792969 655.070312 679.792969 615.96875 L 711.949219 588.5 Z M 694.59375 490.824219 "/><path style=" stroke:none;fill-rule:nonzero;fill:#f05a24;fill-opacity:1;" d="M 691.652344 490.972656 C 691.652344 490.972656 700.320312 609.035156 703.738281 613.140625 C 707.160156 617.246094 768.050781 731.769531 768.050781 731.769531 L 791.640625 723.414062 C 791.640625 723.414062 770.105469 630.25 762.578125 613.140625 C 755.050781 596.03125 774.902344 486.707031 774.902344 486.707031 Z M 691.652344 490.972656 "/><path style=" stroke:none;fill-rule:nonzero;fill:#e24c1e;fill-opacity:1;" d="M 694.921875 512.273438 L 771.234375 508.207031 L 772.546875 500.285156 L 692.890625 504 L 693.277344 512.273438 Z M 694.921875 512.273438 "/><path style=" stroke:none;fill-rule:nonzero;fill:#c63d18;fill-opacity:1;" d="M 683.96875 508.597656 L 693.277344 512.273438 L 692.792969 506.019531 L 692.890625 504 L 687.644531 502.445312 Z M 683.96875 508.597656 "/><path style=" stroke:none;fill-rule:nonzero;fill:#f4a67a;fill-opacity:1;" d="M 667.480469 253.828125 C 667.480469 253.828125 666.109375 263.863281 667.480469 268.65625 C 668.847656 273.445312 659.953125 278.921875 661.546875 281.429688 C 663.144531 283.941406 671.355469 283.257812 671.355469 283.257812 C 671.355469 283.257812 667.476562 301.050781 671.355469 306.070312 C 675.230469 311.089844 691.195312 311.546875 693.019531 310.632812 C 694.84375 309.722656 694.386719 328.882812 694.386719 328.882812 C 700.429688 327.421875 706.46875 325.957031 712.507812 324.496094 C 716.511719 323.523438 720.519531 322.554688 724.523438 321.585938 C 728.921875 320.519531 733.320312 319.457031 737.71875 318.390625 L 732.246094 300.140625 C 732.246094 300.140625 739.769531 286.222656 740.226562 275.273438 C 740.683594 264.320312 735.210938 250.632812 735.210938 250.632812 C 720.179688 246.898438 673.519531 236.058594 667.710938 248.40625 C 667.074219 249.765625 666.875 251.523438 667.480469 253.828125 Z M 667.480469 253.828125 "/><path style=" stroke:none;fill-rule:nonzero;fill:#e59973;fill-opacity:1;" d="M 685.574219 262.144531 C 690.664062 266.160156 694.425781 272.066406 695.085938 278.511719 C 695.199219 279.625 695.222656 280.742188 695.246094 281.859375 C 695.253906 282.15625 695.269531 282.484375 695.480469 282.695312 C 695.636719 282.855469 695.875 282.910156 696.097656 282.949219 C 698.582031 283.417969 701.566406 283.019531 702.9375 280.894531 C 703.371094 280.222656 703.597656 279.441406 703.839844 278.675781 C 704.609375 276.230469 705.609375 273.816406 707.203125 271.808594 C 708.800781 269.800781 711.0625 268.226562 713.601562 267.882812 C 713.335938 266.265625 711.644531 265.351562 710.148438 264.683594 C 704.839844 262.320312 699.515625 260 694.171875 257.726562 C 687.472656 254.875 680.507812 252.015625 673.144531 251.671875 C 671.839844 251.609375 664.917969 251.492188 667.511719 254.214844 C 669.160156 255.945312 673.667969 256.125 675.847656 256.894531 C 679.335938 258.128906 682.664062 259.851562 685.574219 262.144531 Z M 685.574219 262.144531 "/><path style=" stroke:none;fill-rule:nonzero;fill:#42210b;fill-opacity:1;" d="M 687.871094 259.828125 C 690.207031 261.167969 692.574219 262.53125 694.449219 264.460938 C 698.816406 268.949219 699.8125 275.632812 700.589844 281.84375 C 702.003906 281.777344 703.414062 281.707031 704.828125 281.640625 C 706.703125 278.992188 705.390625 275.1875 706.667969 272.207031 C 708.136719 268.792969 712.980469 267.667969 716.15625 269.609375 C 719.328125 271.546875 720.652344 275.765625 719.816406 279.390625 C 718.785156 283.875 714.945312 288.101562 716.402344 292.472656 C 717.390625 295.445312 720.496094 297.105469 723.410156 298.242188 C 727.496094 299.835938 732.3125 300.925781 736.09375 298.714844 C 739.023438 297 740.339844 294.308594 741.296875 292.203125 C 745.390625 283.171875 742.019531 273.230469 740.253906 268.03125 C 738.953125 264.1875 738.238281 262.082031 736.578125 259.644531 C 734.605469 256.742188 729.101562 250.144531 708.097656 246.652344 C 693.925781 244.300781 674.136719 243.589844 673.433594 247.664062 C 672.492188 253.132812 684.351562 257.808594 687.871094 259.828125 Z M 687.871094 259.828125 "/><path style=" stroke:none;fill-rule:nonzero;fill:#f6921e;fill-opacity:1;" d="M 742.472656 263.839844 L 742.316406 264.175781 C 741.636719 265.617188 740.9375 266.910156 740.257812 268.03125 L 680.3125 252.3125 L 672.332031 250.214844 L 665.082031 248.320312 C 665.082031 245.914062 665.601562 243.4375 666.558594 241 C 666.585938 240.9375 666.601562 240.886719 666.628906 240.824219 L 666.636719 240.824219 C 666.78125 240.460938 666.9375 240.101562 667.101562 239.738281 C 667.316406 239.253906 667.550781 238.78125 667.808594 238.308594 C 674.625 225.363281 693.238281 214.1875 710.8125 218.066406 C 751.308594 227.03125 748.40625 250.828125 742.472656 263.839844 Z M 742.472656 263.839844 "/><path style=" stroke:none;fill-rule:nonzero;fill:#f6921e;fill-opacity:1;" d="M 683.253906 251.648438 C 682.539062 251.863281 681.53125 252.089844 680.316406 252.3125 C 675.867188 253.15625 668.78125 254 664.230469 254.335938 C 647.714844 255.570312 631.84375 250.3125 632.0625 247.664062 C 632.085938 247.351562 632.328125 247.078125 634.648438 246.507812 C 637.105469 245.914062 641.898438 244.996094 651.234375 243.386719 C 657.558594 242.300781 662.859375 241.429688 666.628906 240.824219 L 666.636719 240.824219 C 669.757812 243.78125 676.265625 246.679688 680.644531 249.621094 C 681.652344 250.292969 682.539062 250.96875 683.253906 251.648438 Z M 683.253906 251.648438 "/><path style=" stroke:none;fill-rule:nonzero;fill:#faaf3b;fill-opacity:1;" d="M 695.527344 330.480469 L 688.347656 376.683594 L 684.691406 377.929688 L 671.808594 382.320312 L 658.238281 386.941406 L 640.792969 354.511719 L 675.695312 339.1875 Z M 695.527344 330.480469 "/><path style=" stroke:none;fill-rule:nonzero;fill:#f4a67a;fill-opacity:1;" d="M 638.058594 355.847656 L 521.410156 396.523438 C 521.410156 396.523438 483.4375 406.15625 483.4375 410.582031 C 483.4375 415.003906 512.855469 406.992188 514.910156 408.433594 C 516.964844 409.871094 512.171875 411.433594 524.148438 418.621094 C 536.121094 425.804688 544.957031 409.261719 544.957031 409.261719 L 657.148438 384.90625 L 640.796875 354.511719 Z M 638.058594 355.847656 "/><path style=" stroke:none;fill-rule:nonzero;fill:#ed9a2e;fill-opacity:1;" d="M 695.527344 330.480469 C 695.003906 332.539062 693.582031 334.351562 692.375 336.164062 C 688.105469 342.585938 686.203125 350.3125 685.410156 357.980469 C 684.730469 364.601562 684.839844 371.273438 684.695312 377.933594 L 671.808594 382.320312 C 672.101562 369.636719 674.09375 357.339844 675.050781 344.664062 C 675.222656 342.433594 675.28125 340.714844 675.695312 339.191406 Z M 695.527344 330.480469 "/><path style=" stroke:none;fill-rule:nonzero;fill:#f6921e;fill-opacity:1;" d="M 778.953125 499.324219 C 778.953125 499.324219 685.953125 513.933594 687.640625 502.445312 C 687.796875 501.4375 689.355469 481.570312 689.953125 463.230469 C 690.203125 455.320312 690.28125 447.699219 689.984375 441.988281 C 689.976562 441.902344 689.976562 441.816406 689.96875 441.730469 C 688.941406 422.914062 676.089844 400.511719 678.140625 368.695312 C 680.191406 336.867188 694.390625 328.882812 694.390625 328.882812 L 737.722656 318.386719 C 767.257812 328.539062 778.953125 499.324219 778.953125 499.324219 Z M 778.953125 499.324219 "/><path style=" stroke:none;fill-rule:nonzero;fill:#e07e1b;fill-opacity:1;" d="M 738.324219 431.164062 C 737.175781 431.027344 736.027344 430.894531 734.875 430.757812 C 731.398438 436.941406 723.113281 449.546875 707.390625 457.472656 C 700.921875 460.730469 694.832031 462.375 689.953125 463.230469 C 690.203125 455.324219 690.28125 447.703125 689.988281 441.992188 C 709.105469 436.027344 726.484375 422.515625 733.464844 403.777344 C 735.765625 397.613281 736.898438 391.074219 738.835938 384.78125 C 740.5 379.355469 742.773438 374.054688 743.472656 368.414062 C 744.84375 357.429688 739.75 348.28125 732.121094 340.933594 C 734.964844 341.265625 740.414062 342.324219 745.113281 346.433594 C 750.652344 351.285156 752.066406 357.691406 752.835938 361.167969 C 755.691406 374.121094 750.792969 400.050781 738.324219 431.164062 Z M 738.324219 431.164062 "/><path style=" stroke:none;fill-rule:nonzero;fill:#faaf3b;fill-opacity:1;" d="M 705.792969 351.011719 C 700.515625 370.183594 695.242188 389.351562 689.96875 408.519531 C 702.539062 414.21875 715.109375 419.917969 727.683594 425.613281 C 735.449219 405.996094 743.210938 386.378906 750.976562 366.761719 C 751.183594 356.304688 745.167969 346.785156 735.894531 342.800781 C 725.511719 338.332031 712.996094 341.644531 705.792969 351.011719 Z M 705.792969 351.011719 "/><path style=" stroke:none;fill-rule:nonzero;fill:#1a1a1a;fill-opacity:1;" d="M 572.097656 356.339844 L 556.265625 385.800781 C 555.976562 386.332031 556.265625 386.992188 556.851562 387.140625 L 639.222656 408.402344 C 639.777344 408.546875 640.328125 408.15625 640.382812 407.585938 L 643.039062 378.777344 C 643.082031 378.34375 642.8125 377.9375 642.394531 377.804688 L 573.199219 355.894531 C 572.773438 355.757812 572.308594 355.945312 572.097656 356.339844 Z M 572.097656 356.339844 "/><path style=" stroke:none;fill-rule:nonzero;fill:#333333;fill-opacity:1;" d="M 572.636719 355.003906 L 556.804688 384.453125 C 556.519531 384.988281 556.808594 385.652344 557.394531 385.800781 L 639.757812 407.058594 C 640.316406 407.203125 640.871094 406.8125 640.921875 406.242188 L 643.582031 377.4375 C 643.621094 377 643.351562 376.59375 642.933594 376.460938 L 573.742188 354.550781 C 573.316406 354.417969 572.851562 354.605469 572.636719 355.003906 Z M 572.636719 355.003906 "/><path style=" stroke:none;fill-rule:nonzero;fill:#f4a67a;fill-opacity:1;" d="M 692.40625 409.625 L 689.96875 415.003906 L 611.71875 396.867188 C 611.71875 396.867188 595.640625 369.835938 591.535156 373.257812 C 587.433594 376.679688 592.21875 384.550781 591.535156 386.601562 C 590.851562 388.65625 581.664062 392.554688 577.253906 391.992188 C 572.550781 391.394531 561.632812 388.617188 561.632812 388.617188 C 561.632812 388.617188 563.484375 394.472656 576.140625 402.34375 C 588.800781 410.214844 608.640625 404.054688 608.640625 406.449219 C 608.640625 408.84375 686.976562 449.910156 702.367188 449.566406 C 717.761719 449.222656 724.484375 424.164062 724.484375 424.164062 Z M 692.40625 409.625 "/><path style=" stroke:none;fill-rule:nonzero;fill:#f4a67a;fill-opacity:1;" d="M 639.429688 730.859375 L 639.429688 743.40625 L 664.972656 741.125 L 665.085938 730.859375 Z M 639.429688 730.859375 "/><path style=" stroke:none;fill-rule:nonzero;fill:#f4a67a;fill-opacity:1;" d="M 769.324219 731.320312 L 772.695312 738.21875 L 794.460938 731.773438 L 790.550781 723.800781 Z M 769.324219 731.320312 "/><path style=" stroke:none;fill-rule:nonzero;fill:#e59973;fill-opacity:1;" d="M 693.023438 310.632812 C 693.023438 310.632812 705.925781 308.617188 707.140625 300.703125 C 707.210938 302.683594 707.0625 305.023438 706.425781 307.5625 C 704.121094 316.765625 697.050781 321.953125 694.441406 323.679688 C 693.964844 319.332031 693.496094 314.980469 693.023438 310.632812 Z M 693.023438 310.632812 "/><path style=" stroke:none;fill-rule:nonzero;fill:#ea821b;fill-opacity:1;" d="M 742.5 263.753906 L 742.472656 263.839844 C 741.75 265.410156 740.988281 266.824219 740.257812 268.03125 L 680.3125 252.3125 C 675.867188 253.15625 668.78125 254 664.230469 254.335938 C 647.714844 255.570312 631.84375 250.3125 632.058594 247.664062 C 632.085938 247.351562 632.328125 247.078125 634.648438 246.507812 C 635.34375 247.292969 638.078125 249.878906 649.03125 250.636719 C 655.496094 251.085938 665.347656 250.644531 672.332031 250.214844 C 677.175781 249.921875 680.640625 249.621094 680.640625 249.621094 Z M 742.5 263.753906 "/><path style=" stroke:none;fill-rule:nonzero;fill:#f9a55a;fill-opacity:1;" d="M 742.472656 263.839844 L 742.316406 264.175781 C 742.265625 264.175781 742.222656 264.1875 742.171875 264.195312 C 743.015625 256.546875 741.910156 248.691406 739 241.570312 C 737.910156 238.9375 736.566406 236.378906 734.628906 234.300781 C 732.757812 232.289062 730.394531 230.796875 728.066406 229.339844 C 724.617188 227.175781 721.128906 224.996094 717.257812 223.746094 C 709.914062 221.382812 701.878906 222.605469 694.476562 224.78125 C 688.582031 226.511719 682.855469 228.824219 677.417969 231.6875 C 675.175781 232.859375 672.949219 234.160156 671.0625 235.859375 C 670.148438 236.679688 669.089844 238.25 667.804688 238.308594 C 674.621094 225.363281 693.234375 214.191406 710.808594 218.070312 C 751.308594 227.03125 748.40625 250.828125 742.472656 263.839844 Z M 742.472656 263.839844 "/><path style=" stroke:none;fill-rule:nonzero;fill:#ea821b;fill-opacity:1;" d="M 682.519531 249.386719 C 680.261719 248.683594 678.003906 247.972656 675.738281 247.265625 C 674.050781 246.742188 672.351562 246.207031 670.800781 245.363281 C 669.308594 244.550781 666.964844 242.921875 666.558594 241 C 666.585938 240.9375 666.601562 240.886719 666.628906 240.824219 L 666.636719 240.824219 C 666.78125 240.460938 666.9375 240.101562 667.101562 239.738281 C 667.429688 240.253906 667.386719 240.9375 667.800781 241.539062 C 668.410156 242.4375 669.402344 242.988281 670.378906 243.429688 C 674.082031 245.082031 678.152344 245.957031 681.652344 248.015625 C 682.160156 248.320312 682.726562 248.835938 682.519531 249.386719 Z M 682.519531 249.386719 "/><path style=" stroke:none;fill-rule:nonzero;fill:#f7b19f;fill-opacity:1;" d="M 111.84375 408.253906 L 185.265625 379.125 C 185.265625 379.125 199.496094 360.707031 199.496094 368.109375 C 199.496094 375.511719 186.976562 386.046875 186.976562 386.046875 C 186.976562 386.046875 193.882812 399.996094 185.265625 403.984375 C 176.648438 407.96875 167.621094 401.664062 167.621094 401.664062 C 167.621094 401.664062 100.460938 447.308594 93.058594 441.304688 C 85.660156 435.296875 83.59375 422.148438 83.59375 422.148438 Z M 111.84375 408.253906 "/><path style=" stroke:none;fill-rule:nonzero;fill:#f7b19f;fill-opacity:1;" d="M 31.402344 340.792969 C 27.136719 340.488281 0.00390625 393.867188 5.746094 404.808594 C 15.222656 422.867188 40.820312 451.664062 40.820312 451.664062 L 42.882812 426.011719 L 27.363281 402.132812 L 43.585938 387.296875 Z M 31.402344 340.792969 "/><path style=" stroke:none;fill-rule:nonzero;fill:#af232d;fill-opacity:1;" d="M 51.417969 710.378906 C 51.417969 710.378906 74.753906 724.234375 85.285156 723.996094 C 95.816406 723.761719 106.914062 726.890625 98.09375 732.015625 C 89.269531 737.140625 23.53125 735.714844 23.246094 732.015625 C 22.960938 728.316406 22.960938 709.242188 22.960938 709.242188 Z M 51.417969 710.378906 "/><path style=" stroke:none;fill-rule:nonzero;fill:#c0272d;fill-opacity:1;" d="M 107.269531 710.378906 C 107.269531 710.378906 135.089844 723.761719 144.480469 722.621094 C 153.875 721.484375 161.269531 732.585938 148.464844 736.289062 C 135.660156 739.988281 81.015625 734.863281 81.015625 734.011719 C 81.015625 733.15625 81.300781 710.378906 82.726562 710.378906 C 88.417969 710.378906 107.269531 710.378906 107.269531 710.378906 Z M 107.269531 710.378906 "/><path style=" stroke:none;fill-rule:nonzero;fill:#e04c1e;fill-opacity:1;" d="M 13.519531 441.304688 C 13.519531 441.304688 4.175781 463.265625 8.730469 482.910156 C 18.148438 523.535156 26.386719 540.9375 25.238281 584.304688 C 24.894531 597.210938 23.371094 596.625 21.253906 616.429688 C 17.046875 655.753906 19.851562 687.933594 22.960938 709.238281 C 32.449219 709.617188 41.933594 709.996094 51.417969 710.375 C 57.679688 652.109375 63.941406 593.84375 70.203125 535.574219 C 64.394531 529.339844 42.28125 504.167969 46.296875 472.089844 C 47.085938 465.785156 48.765625 460.132812 50.851562 455.171875 Z M 13.519531 441.304688 "/><path style=" stroke:none;fill-rule:nonzero;fill:#f05a24;fill-opacity:1;" d="M 84.714844 456.433594 C 84.714844 456.433594 111.183594 544.121094 117.445312 565.757812 C 123.707031 587.390625 107.269531 710.378906 107.269531 710.378906 L 82.726562 710.378906 C 82.726562 710.378906 69.632812 646.609375 78.171875 620.984375 C 86.707031 595.363281 86.140625 587.390625 86.140625 587.390625 C 86.140625 587.390625 3.671875 496.59375 7.492188 472.09375 C 11.3125 447.59375 13.519531 441.304688 13.519531 441.304688 Z M 84.714844 456.433594 "/><path style=" stroke:none;fill-rule:nonzero;fill:#e27e1a;fill-opacity:1;" d="M 12.191406 373.832031 L 25.425781 394.070312 L 41.363281 390.859375 L 23.726562 341.101562 Z M 12.191406 373.832031 "/><path style=" stroke:none;fill-rule:nonzero;fill:#f6921e;fill-opacity:1;" d="M 95.800781 353.878906 C 92.667969 343.335938 64.511719 328.679688 64.511719 328.679688 L 39.847656 328.679688 C 32.089844 329.964844 28.25 333.351562 26.1875 336.160156 C 17.839844 347.492188 28.273438 363.019531 25.429688 394.066406 C 24.445312 404.792969 22.476562 413.523438 21.226562 418.363281 C 16.171875 437.890625 10.238281 444.421875 9.722656 450.28125 C 9.648438 451.136719 9.6875 451.964844 9.867188 452.828125 C 11.617188 461.46875 26.710938 471.40625 90.210938 474.648438 C 89.058594 469.359375 87.378906 461.550781 85.382812 451.878906 C 83.65625 443.519531 82.785156 439.085938 83.324219 433.027344 C 83.785156 427.878906 85.066406 423.710938 86.140625 420.894531 C 89.273438 420.894531 94.558594 419.53125 99.628906 417.273438 C 104.710938 415.003906 109.5625 411.851562 111.84375 408.253906 C 111.84375 408.253906 98.933594 364.414062 95.800781 353.878906 Z M 95.800781 353.878906 "/><path style=" stroke:none;fill-rule:nonzero;fill:#f7b19f;fill-opacity:1;" d="M 99.53125 277.921875 L 98.71875 286.785156 C 95.863281 295.539062 94.644531 302.710938 94.070312 307.710938 C 93.507812 312.566406 93.53125 315.511719 91.410156 318.335938 C 87.773438 323.179688 80.664062 323.910156 75.664062 323.84375 C 75.671875 323.988281 75.671875 324.140625 75.679688 324.285156 C 75.777344 327.59375 75.863281 330.902344 75.960938 334.207031 C 75.992188 335.410156 76.035156 336.605469 76.066406 337.804688 C 76.066406 337.804688 60.117188 351.734375 47.28125 337.804688 C 47.28125 337.804688 47.722656 322.335938 47.28125 305.164062 C 46.835938 287.996094 44.621094 276.476562 51.265625 271.605469 C 57.910156 266.730469 85.808594 258.535156 99.53125 277.921875 Z M 99.53125 277.921875 "/><path style=" stroke:none;fill-rule:nonzero;fill:#e89b8b;fill-opacity:1;" d="M 98.71875 286.785156 L 98.523438 288.898438 C 98.4375 288.882812 98.304688 288.867188 98.144531 288.847656 C 94.179688 288.429688 90.921875 290.792969 88.792969 292.382812 C 83.609375 296.253906 80.554688 301.730469 79.316406 304.203125 C 79.355469 303.078125 79.722656 295.949219 85.785156 290.898438 C 91.222656 286.363281 97.421875 286.6875 98.71875 286.785156 Z M 98.71875 286.785156 "/><path style=" stroke:none;fill-rule:nonzero;fill:#42210b;fill-opacity:1;" d="M 29.34375 287.773438 C 28.910156 287.867188 21.714844 289.488281 16.058594 295.085938 C 3.910156 307.101562 7.75 328.671875 9.292969 337.335938 C 12.277344 354.09375 20.226562 366.433594 26.230469 373.902344 C 27.9375 362.445312 28.039062 353.058594 27.792969 346.472656 C 27.207031 330.78125 24.324219 322.605469 29.121094 314.355469 C 32.597656 308.378906 38.4375 305.230469 42.847656 303.503906 C 44.390625 308.597656 45.929688 313.691406 47.46875 318.785156 C 51.171875 319.820312 54.871094 320.851562 58.570312 321.886719 C 65.621094 314.03125 67.550781 307.554688 67.957031 302.992188 C 68.191406 300.371094 68.136719 296.859375 70.265625 295.507812 C 72.496094 294.09375 75.648438 295.304688 77.1875 297.453125 C 78.730469 299.605469 79.046875 302.378906 79.183594 305.019531 C 80.421875 296.308594 87.277344 288.664062 95.800781 286.492188 C 83.78125 285.332031 71.757812 284.171875 59.742188 283.011719 C 59.121094 282.953125 57.597656 282.683594 55.632812 283.011719 C 50.964844 283.785156 47.6875 287.09375 45.75 289.566406 C 43.355469 288.511719 37.0625 286.132812 29.34375 287.773438 Z M 29.34375 287.773438 "/><path style=" stroke:none;fill-rule:nonzero;fill:#f6921e;fill-opacity:1;" d="M 101.304688 287.550781 L 46.175781 287.550781 L 46.175781 282.050781 C 46.175781 268.359375 57.273438 257.269531 70.957031 257.269531 L 71.035156 257.269531 C 85.574219 257.269531 97.726562 267.53125 100.636719 281.210938 C 100.804688 281.992188 100.941406 282.785156 101.046875 283.589844 C 101.21875 284.890625 101.304688 286.210938 101.304688 287.550781 Z M 101.304688 287.550781 "/><path style=" stroke:none;fill-rule:nonzero;fill:#e5801a;fill-opacity:1;" d="M 85.382812 451.875 C 87.378906 461.546875 89.058594 469.355469 90.210938 474.648438 C 26.710938 471.40625 11.617188 461.464844 9.867188 452.828125 C 9.6875 451.964844 9.648438 451.132812 9.722656 450.277344 C 10.214844 450.414062 10.699219 450.566406 11.15625 450.730469 C 42.769531 461.824219 59.195312 465.726562 63.875 462.765625 C 71.382812 458.011719 70.203125 443.546875 68.457031 422.152344 C 66.800781 401.878906 61.789062 387.042969 67.972656 371.691406 C 68.933594 369.296875 71.902344 361.683594 75.886719 361.949219 C 77.910156 362.082031 79.996094 363.617188 81.71875 367.164062 C 88.195312 380.476562 94.714844 393.929688 98.003906 408.367188 C 98.683594 411.3125 99.207031 414.289062 99.628906 417.273438 C 94.554688 419.53125 89.273438 420.894531 86.136719 420.894531 C 85.066406 423.710938 83.785156 427.882812 83.324219 433.027344 C 82.785156 439.085938 83.65625 443.519531 85.382812 451.875 Z M 85.382812 451.875 "/><path style=" stroke:none;fill-rule:nonzero;fill:#f6921e;fill-opacity:1;" d="M 101.304688 287.550781 L 97.320312 284.226562 C 97.320312 284.226562 97.476562 284.074219 97.765625 283.808594 C 98.296875 283.300781 99.316406 282.371094 100.636719 281.210938 C 105.046875 277.378906 112.957031 271.101562 118.808594 269.835938 C 121.328125 269.296875 123.460938 269.691406 124.777344 271.601562 C 130.535156 280.023438 101.304688 287.550781 101.304688 287.550781 Z M 101.304688 287.550781 "/><path style=" stroke:none;fill-rule:nonzero;fill:#faaf3b;fill-opacity:1;" d="M 95.800781 353.875 C 95.800781 353.875 91.921875 346.757812 85.660156 348.894531 C 79.398438 351.03125 65.558594 361.277344 70.203125 371.527344 C 74.84375 381.777344 84.480469 426.171875 84.480469 426.171875 C 84.480469 426.171875 103.304688 419.355469 111.839844 408.253906 Z M 95.800781 353.875 "/><path style=" stroke:none;fill-rule:nonzero;fill:#e5801a;fill-opacity:1;" d="M 101.304688 287.550781 L 46.175781 287.550781 L 46.175781 282.945312 C 47.023438 283.066406 47.902344 283.21875 48.847656 283.355469 C 52.871094 283.929688 57.320312 283.476562 61.394531 283.535156 C 69.691406 283.65625 77.980469 283.777344 86.277344 283.898438 C 90.097656 283.953125 93.953125 284.003906 97.765625 283.808594 C 98.863281 283.761719 99.960938 283.6875 101.046875 283.59375 C 104.3125 283.300781 107.539062 282.785156 110.691406 281.90625 C 113.363281 281.15625 116.023438 280.109375 118.078125 278.253906 C 120.140625 276.398438 121.523438 273.605469 121.109375 270.863281 C 120.28125 270.695312 119.496094 270.347656 118.8125 269.839844 C 121.328125 269.300781 123.464844 269.695312 124.777344 271.605469 C 130.535156 280.023438 101.304688 287.550781 101.304688 287.550781 Z M 101.304688 287.550781 "/><path style=" stroke:none;fill-rule:nonzero;fill:#f9b673;fill-opacity:1;" d="M 52.363281 273.707031 C 52.578125 272.628906 54.054688 265.773438 60.773438 261.777344 C 67.660156 257.679688 74.570312 259.847656 75.582031 260.183594 C 73.300781 260.113281 67.542969 260.238281 61.589844 263.867188 C 56.148438 267.183594 53.4375 271.667969 52.363281 273.707031 Z M 52.363281 273.707031 "/><path style=" stroke:none;fill-rule:nonzero;fill:#e89b8b;fill-opacity:1;" d="M 75.960938 334.207031 C 75.21875 334.09375 74.496094 333.90625 73.828125 333.578125 C 72.199219 332.777344 71.054688 331.207031 70.398438 329.511719 C 69.746094 327.816406 69.527344 325.996094 69.3125 324.195312 C 69.183594 323.074219 69.054688 321.945312 69.230469 320.832031 C 69.230469 321.328125 73.785156 323.285156 75.679688 324.285156 C 75.777344 327.589844 75.867188 330.898438 75.960938 334.207031 Z M 75.960938 334.207031 "/></g></svg>