<svg xmlns="http://www.w3.org/2000/svg" xmlns:xlink="http://www.w3.org/1999/xlink" width="1080" zoomAndPan="magnify" viewBox="0 0 810 809.999993" height="1080" preserveAspectRatio="xMidYMid meet" version="1.2"><defs><clipPath id="fae54e4eee"><path d="M 607 209 L 786.542969 209 L 786.542969 389 L 607 389 Z M 607 209 "/></clipPath><clipPath id="1f1d6c1118"><path d="M 23.792969 209 L 203 209 L 203 389 L 23.792969 389 Z M 23.792969 209 "/></clipPath><clipPath id="723bd27fc5"><path d="M 315 18.5 L 495 18.5 L 495 198 L 315 198 Z M 315 18.5 "/></clipPath></defs><g id="d617ea0893"><path style=" stroke:none;fill-rule:nonzero;fill:#737ce9;fill-opacity:1;" d="M 535.027344 131.042969 C 529.261719 128.644531 526.449219 122.007812 528.847656 116.246094 C 531.246094 110.433594 537.890625 107.667969 543.65625 110.019531 C 561.691406 117.488281 579.035156 126.339844 595.503906 136.484375 C 612.109375 146.722656 627.835938 158.203125 642.503906 170.878906 C 647.257812 174.984375 647.761719 182.128906 643.65625 186.878906 C 639.554688 191.628906 632.402344 192.132812 627.652344 188.03125 C 613.859375 176.136719 599.097656 165.347656 583.554688 155.753906 C 568.195312 146.304688 551.957031 138.003906 535.027344 131.042969 Z M 745.046875 421.054688 C 744.585938 414.785156 749.335938 409.34375 755.609375 408.929688 C 761.835938 408.46875 767.28125 413.171875 767.742188 419.441406 C 768.015625 423.453125 768.25 427.878906 768.433594 432.769531 C 768.617188 437.839844 768.710938 442.3125 768.710938 446.09375 C 768.710938 508.980469 752.703125 568.183594 724.472656 619.824219 C 695.230469 673.398438 652.929688 718.765625 601.867188 751.6875 C 596.5625 755.101562 589.554688 753.578125 586.140625 748.277344 C 582.769531 743.019531 584.292969 735.964844 589.554688 732.597656 C 637.476562 701.707031 677.148438 659.152344 704.546875 608.988281 C 730.929688 560.667969 745.921875 505.15625 745.921875 446.09375 C 745.921875 441.207031 745.875 437.058594 745.738281 433.550781 C 745.601562 429.769531 745.371094 425.621094 745.046875 421.058594 Z M 174.039062 696.496094 C 178.652344 700.738281 178.925781 707.929688 174.683594 712.539062 C 170.441406 717.199219 163.246094 717.472656 158.632812 713.230469 C 121.960938 679.390625 92.253906 638.125 71.914062 591.742188 C 52.355469 547.109375 41.515625 497.824219 41.515625 446.089844 C 41.515625 442.3125 41.609375 437.839844 41.792969 432.765625 C 41.929688 427.878906 42.207031 423.453125 42.484375 419.441406 C 42.898438 413.167969 48.34375 408.46875 54.617188 408.929688 C 60.890625 409.34375 65.59375 414.785156 65.179688 421.054688 C 64.855469 425.617188 64.625 429.769531 64.488281 433.550781 C 64.351562 437.054688 64.257812 441.203125 64.257812 446.089844 C 64.257812 494.734375 74.453125 540.886719 92.761719 582.65625 C 111.765625 626.089844 139.628906 664.773438 174.039062 696.492188 Z M 182.574219 188.03125 C 177.820312 192.136719 170.671875 191.628906 166.566406 186.878906 C 162.460938 182.132812 162.96875 174.984375 167.71875 170.882812 C 182.386719 158.203125 198.117188 146.722656 214.722656 136.488281 C 231.191406 126.34375 248.488281 117.488281 266.523438 110.019531 C 272.335938 107.671875 278.976562 110.433594 281.375 116.246094 C 283.726562 122.007812 280.957031 128.648438 275.148438 131.046875 C 258.265625 138.007812 242.027344 146.308594 226.667969 155.757812 C 211.078125 165.347656 196.363281 176.140625 182.570312 188.035156 Z M 182.574219 188.03125 "/><g clip-rule="nonzero" clip-path="url(#fae54e4eee)"><path style=" stroke:none;fill-rule:evenodd;fill:#3b368a;fill-opacity:1;" d="M 697.121094 388.414062 C 746.339844 388.414062 786.421875 348.300781 786.421875 299.148438 C 786.421875 250 746.339844 209.886719 697.121094 209.886719 C 647.902344 209.886719 607.863281 250 607.863281 299.148438 C 607.863281 348.296875 647.949219 388.414062 697.121094 388.414062 Z M 697.121094 388.414062 "/></g><path style=" stroke:none;fill-rule:nonzero;fill:#a3abff;fill-opacity:1;" d="M 672.855469 276.050781 C 672.855469 282.367188 667.78125 287.4375 661.464844 287.4375 C 655.191406 287.4375 650.070312 282.367188 650.070312 276.050781 L 650.070312 266.183594 C 650.070312 259.867188 655.191406 254.792969 661.464844 254.792969 C 667.785156 254.792969 672.855469 259.867188 672.855469 266.183594 Z M 750.488281 332.578125 C 752.839844 338.386719 750.027344 345.023438 744.214844 347.375 C 738.359375 349.726562 731.761719 346.914062 729.363281 341.105469 C 725.582031 331.746094 718.707031 325.476562 710.773438 322.25 C 706.4375 320.496094 701.824219 319.621094 697.121094 319.621094 C 692.460938 319.621094 687.800781 320.496094 683.511719 322.25 C 675.578125 325.476562 668.707031 331.746094 664.878906 341.105469 C 662.527344 346.914062 655.882812 349.730469 650.070312 347.375 C 644.261719 345.023438 641.445312 338.386719 643.800781 332.578125 C 650.121094 317.085938 661.648438 306.574219 674.980469 301.175781 C 682.039062 298.273438 689.605469 296.84375 697.121094 296.84375 C 704.6875 296.84375 712.25 298.269531 719.308594 301.175781 C 732.640625 306.574219 744.171875 317.085938 750.488281 332.578125 Z M 744.171875 276.050781 C 744.171875 282.367188 739.097656 287.4375 732.777344 287.4375 C 726.503906 287.4375 721.386719 282.367188 721.386719 276.050781 L 721.386719 266.183594 C 721.386719 259.867188 726.503906 254.792969 732.777344 254.792969 C 739.097656 254.792969 744.171875 259.867188 744.171875 266.183594 Z M 744.171875 276.050781 "/><g clip-rule="nonzero" clip-path="url(#1f1d6c1118)"><path style=" stroke:none;fill-rule:evenodd;fill:#3b368a;fill-opacity:1;" d="M 113.058594 388.414062 C 162.277344 388.414062 202.363281 348.300781 202.363281 299.148438 C 202.363281 250 162.277344 209.886719 113.058594 209.886719 C 63.839844 209.886719 23.757812 250 23.757812 299.148438 C 23.757812 348.296875 63.886719 388.414062 113.058594 388.414062 Z M 113.058594 388.414062 "/></g><path style=" stroke:none;fill-rule:nonzero;fill:#a3abff;fill-opacity:1;" d="M 145.300781 314.367188 C 147.703125 308.511719 154.296875 305.699219 160.15625 308.09375 C 165.964844 310.445312 168.78125 317.085938 166.425781 322.894531 C 162.089844 333.542969 154.621094 342.625 145.117188 348.988281 C 135.9375 355.167969 124.914062 358.765625 113.058594 358.765625 C 101.203125 358.765625 90.226562 355.167969 81 348.988281 C 71.542969 342.625 64.074219 333.542969 59.738281 322.894531 C 57.382812 317.085938 60.195312 310.445312 66.007812 308.09375 C 71.820312 305.699219 78.464844 308.507812 80.816406 314.367188 C 83.445312 320.820312 87.964844 326.308594 93.640625 330.132812 C 99.171875 333.824219 105.863281 335.988281 113.058594 335.988281 C 120.300781 335.988281 126.988281 333.820312 132.476562 330.132812 C 138.199219 326.308594 142.671875 320.820312 145.300781 314.367188 Z M 88.796875 276.050781 C 88.796875 282.367188 83.722656 287.4375 77.402344 287.4375 C 71.128906 287.4375 66.011719 282.367188 66.011719 276.050781 L 66.011719 266.183594 C 66.011719 259.867188 71.128906 254.792969 77.402344 254.792969 C 83.722656 254.792969 88.796875 259.867188 88.796875 266.183594 Z M 160.109375 276.050781 C 160.109375 282.367188 155.035156 287.4375 148.714844 287.4375 C 142.445312 287.4375 137.324219 282.367188 137.324219 276.050781 L 137.324219 266.183594 C 137.324219 259.867188 142.445312 254.792969 148.714844 254.792969 C 155.035156 254.792969 160.109375 259.867188 160.109375 266.183594 Z M 160.109375 276.050781 "/><g clip-rule="nonzero" clip-path="url(#723bd27fc5)"><path style=" stroke:none;fill-rule:evenodd;fill:#3b368a;fill-opacity:1;" d="M 405.089844 18.5 C 454.445312 18.5 494.390625 58.472656 494.390625 107.761719 C 494.390625 157.050781 454.445312 197.023438 405.089844 197.023438 C 355.730469 197.023438 315.789062 157.046875 315.789062 107.761719 C 315.789062 58.476562 355.78125 18.5 405.089844 18.5 Z M 405.089844 18.5 "/></g><path style=" stroke:none;fill-rule:nonzero;fill:#a3abff;fill-opacity:1;" d="M 362.605469 142.523438 C 356.332031 142.523438 351.214844 137.453125 351.214844 131.136719 C 351.214844 124.867188 356.332031 119.75 362.605469 119.75 L 447.570312 119.75 C 453.890625 119.75 458.964844 124.867188 458.964844 131.136719 C 458.964844 137.453125 453.890625 142.523438 447.570312 142.523438 Z M 380.828125 84.707031 C 380.828125 90.976562 375.753906 96.050781 369.433594 96.050781 C 363.160156 96.050781 358.042969 90.976562 358.042969 84.707031 L 358.042969 74.796875 C 358.042969 68.476562 363.160156 63.40625 369.433594 63.40625 C 375.753906 63.40625 380.828125 68.476562 380.828125 74.796875 Z M 452.140625 84.707031 C 452.140625 90.976562 447.066406 96.050781 440.746094 96.050781 C 434.476562 96.050781 429.355469 90.976562 429.355469 84.707031 L 429.355469 74.796875 C 429.355469 68.476562 434.476562 63.40625 440.746094 63.40625 C 447.066406 63.40625 452.140625 68.476562 452.140625 74.796875 Z M 452.140625 84.707031 "/><path style=" stroke:none;fill-rule:evenodd;fill:#a3abff;fill-opacity:1;" d="M 333.730469 828.5 L 565.703125 828.5 C 506.566406 656.566406 597.578125 638.492188 624.65625 524.609375 C 678.898438 296.292969 242.675781 231.1875 215.046875 482.792969 C 214.03125 491.96875 215.785156 500.128906 220.398438 508.105469 L 222.519531 511.792969 C 226.117188 518.066406 225.886719 525.394531 221.785156 531.386719 L 183.726562 587.40625 C 179.578125 593.539062 180.039062 601.425781 184.878906 607.050781 C 189.492188 612.351562 196.457031 614.886719 207.988281 611.980469 C 211.035156 611.199219 212.003906 616.683594 211.171875 619.773438 L 205.175781 642.273438 C 204.484375 644.714844 205.175781 647.160156 206.976562 648.957031 L 216.984375 658.871094 C 219.566406 661.453125 219.707031 665.558594 217.351562 668.324219 L 211.035156 675.65625 C 208.589844 678.515625 208.863281 682.753906 211.585938 685.292969 L 219.980469 692.992188 C 222.289062 695.113281 222.886719 698.433594 221.410156 701.246094 C 199.640625 743.386719 270.535156 749.058594 307.761719 750.714844 C 318.648438 751.222656 327.644531 758.140625 330.871094 768.558594 C 336.316406 786.035156 335.300781 807.152344 333.730469 828.5 Z M 333.730469 828.5 "/><path style=" stroke:none;fill-rule:evenodd;fill:#3b368a;fill-opacity:1;" d="M 314.449219 449.964844 C 309.605469 458.539062 305.871094 467.578125 303.285156 476.890625 L 270.90625 487.585938 L 270.90625 529.589844 L 303.285156 540.285156 C 305.871094 549.597656 309.558594 558.636719 314.449219 567.210938 L 299.136719 597.6875 L 313.988281 612.535156 L 328.839844 627.378906 L 359.285156 612.027344 C 367.863281 616.914062 376.953125 620.648438 386.269531 623.183594 L 396.972656 655.550781 L 438.992188 655.550781 L 449.695312 623.183594 C 459.011719 620.648438 468.054688 616.914062 476.632812 612.027344 L 507.078125 627.378906 L 521.929688 612.535156 L 536.78125 597.6875 L 521.46875 567.210938 C 526.355469 558.636719 530.046875 549.597656 532.632812 540.285156 L 565.011719 529.589844 L 565.011719 487.585938 L 532.632812 476.890625 C 530.09375 467.578125 526.355469 458.539062 521.46875 449.917969 L 536.78125 419.488281 L 521.929688 404.640625 L 507.078125 389.796875 L 476.632812 405.105469 C 468.050781 400.261719 459.011719 396.527344 449.695312 393.945312 L 438.992188 361.578125 L 396.972656 361.578125 L 386.269531 393.945312 C 376.953125 396.527344 367.863281 400.261719 359.285156 405.105469 L 328.839844 389.796875 L 313.988281 404.640625 L 299.136719 419.488281 Z M 314.449219 449.964844 "/><path style=" stroke:none;fill-rule:evenodd;fill:#a3abff;fill-opacity:1;" d="M 417.957031 592.386719 C 464.132812 592.386719 501.820312 554.761719 501.820312 508.566406 C 501.820312 462.367188 464.132812 424.742188 417.957031 424.742188 C 371.785156 424.742188 334.101562 462.410156 334.101562 508.566406 C 334.101562 554.71875 371.789062 592.386719 417.957031 592.386719 Z M 417.957031 592.386719 "/><path style=" stroke:none;fill-rule:evenodd;fill:#3b368a;fill-opacity:1;" d="M 378.472656 476.796875 C 368.324219 486.941406 368.324219 503.539062 378.472656 513.683594 L 417.957031 553.148438 L 457.441406 513.683594 C 467.59375 503.539062 467.59375 486.941406 457.441406 476.796875 C 445.035156 464.394531 429.308594 468.128906 417.957031 479.472656 C 406.613281 468.128906 390.882812 464.394531 378.472656 476.796875 Z M 378.472656 476.796875 "/></g></svg>