<svg xmlns="http://www.w3.org/2000/svg" xmlns:xlink="http://www.w3.org/1999/xlink" width="1080" zoomAndPan="magnify" viewBox="0 0 810 809.999993" height="1080" preserveAspectRatio="xMidYMid meet" version="1.2"><defs><clipPath id="9845adedce"><path d="M 2 414 L 397 414 L 397 809.863281 L 2 809.863281 Z M 2 414 "/></clipPath><clipPath id="a9786e9114"><path d="M 484 7.363281 L 666 7.363281 L 666 155 L 484 155 Z M 484 7.363281 "/></clipPath><clipPath id="316a3ad48d"><path d="M 410 414 L 807 414 L 807 809.863281 L 410 809.863281 Z M 410 414 "/></clipPath></defs><g id="c0b8528f55"><path style=" stroke:none;fill-rule:nonzero;fill:#000000;fill-opacity:1;" d="M 16.640625 300.265625 C 18.742188 301.519531 21.34375 301.59375 23.515625 300.4375 C 39.597656 291.859375 50.183594 290.0625 56.234375 290.0625 C 69.777344 290.0625 76.046875 293.1875 82.683594 296.5 C 89.046875 299.667969 96.253906 303.265625 108.65625 303.265625 C 133.425781 303.265625 149.207031 292.195312 149.867188 291.722656 C 151.699219 290.417969 152.789062 288.304688 152.789062 286.050781 L 152.789062 223.945312 C 152.789062 221.339844 151.332031 218.96875 149.023438 217.765625 C 146.726562 216.574219 143.925781 216.757812 141.789062 218.25 C 141.65625 218.335938 128.746094 227.207031 108.65625 227.207031 C 99.539062 227.207031 94.851562 224.871094 88.910156 221.90625 C 81.484375 218.199219 73.0625 214.003906 56.234375 214.003906 C 45.113281 214.003906 31.898438 218.050781 16.949219 226.027344 C 14.671875 227.242188 13.253906 229.605469 13.253906 232.179688 L 13.253906 294.285156 C 13.253906 296.738281 14.542969 299.007812 16.640625 300.265625 Z M 27.210938 236.429688 C 41.230469 229.480469 50.660156 227.957031 56.234375 227.957031 C 69.777344 227.957031 76.046875 231.082031 82.683594 234.394531 C 89.046875 237.5625 96.253906 241.15625 108.65625 241.15625 C 121.355469 241.15625 131.691406 238.25 138.835938 235.355469 L 138.835938 282.085938 C 133.925781 284.6875 123.160156 289.3125 108.65625 289.3125 C 99.539062 289.3125 94.851562 286.976562 88.910156 284.011719 C 81.484375 280.308594 73.0625 276.109375 56.234375 276.109375 C 47.730469 276.109375 38 278.476562 27.210938 283.15625 Z M 27.210938 236.429688 "/><path style=" stroke:none;fill-rule:nonzero;fill:#000000;fill-opacity:1;" d="M 96.976562 258.636719 C 96.976562 259.554688 96.886719 260.460938 96.707031 261.359375 C 96.53125 262.257812 96.265625 263.128906 95.914062 263.976562 C 95.5625 264.824219 95.132812 265.625 94.625 266.386719 C 94.117188 267.148438 93.539062 267.855469 92.890625 268.503906 C 92.242188 269.152344 91.539062 269.730469 90.773438 270.238281 C 90.011719 270.746094 89.210938 271.175781 88.363281 271.527344 C 87.515625 271.878906 86.644531 272.140625 85.746094 272.320312 C 84.847656 272.5 83.9375 272.589844 83.023438 272.589844 C 82.105469 272.589844 81.199219 272.5 80.300781 272.320312 C 79.402344 272.140625 78.53125 271.878906 77.683594 271.527344 C 76.835938 271.175781 76.03125 270.746094 75.269531 270.238281 C 74.507812 269.730469 73.804688 269.152344 73.15625 268.503906 C 72.507812 267.855469 71.929688 267.148438 71.421875 266.386719 C 70.914062 265.625 70.484375 264.824219 70.132812 263.976562 C 69.78125 263.128906 69.515625 262.257812 69.335938 261.359375 C 69.160156 260.460938 69.070312 259.554688 69.070312 258.636719 C 69.070312 257.722656 69.160156 256.8125 69.335938 255.914062 C 69.515625 255.015625 69.78125 254.144531 70.132812 253.296875 C 70.484375 252.453125 70.914062 251.648438 71.421875 250.886719 C 71.929688 250.125 72.507812 249.421875 73.15625 248.773438 C 73.804688 248.125 74.507812 247.546875 75.269531 247.039062 C 76.03125 246.527344 76.835938 246.097656 77.683594 245.75 C 78.53125 245.398438 79.402344 245.132812 80.300781 244.953125 C 81.199219 244.777344 82.105469 244.6875 83.023438 244.6875 C 83.9375 244.6875 84.847656 244.777344 85.746094 244.953125 C 86.644531 245.132812 87.515625 245.398438 88.363281 245.75 C 89.210938 246.097656 90.011719 246.527344 90.773438 247.039062 C 91.539062 247.546875 92.242188 248.125 92.890625 248.773438 C 93.539062 249.421875 94.117188 250.125 94.625 250.886719 C 95.132812 251.648438 95.5625 252.453125 95.914062 253.296875 C 96.265625 254.144531 96.53125 255.015625 96.707031 255.914062 C 96.886719 256.8125 96.976562 257.722656 96.976562 258.636719 Z M 96.976562 258.636719 "/><path style=" stroke:none;fill-rule:nonzero;fill:#000000;fill-opacity:1;" d="M 267.90625 147.027344 C 304.453125 147.027344 334.1875 117.300781 334.1875 80.757812 C 334.1875 44.21875 304.453125 14.492188 267.90625 14.492188 C 231.359375 14.492188 201.628906 44.21875 201.628906 80.757812 C 201.628906 117.300781 231.359375 147.027344 267.90625 147.027344 Z M 267.90625 28.441406 C 296.761719 28.441406 320.234375 51.910156 320.234375 80.757812 C 320.234375 109.609375 296.761719 133.078125 267.90625 133.078125 C 239.054688 133.078125 215.582031 109.609375 215.582031 80.757812 C 215.582031 51.910156 239.054688 28.441406 267.90625 28.441406 Z M 267.90625 28.441406 "/><path style=" stroke:none;fill-rule:nonzero;fill:#000000;fill-opacity:1;" d="M 250.988281 101.84375 C 252.476562 101.84375 253.96875 101.371094 255.242188 100.398438 L 275.257812 84.996094 C 276.96875 83.679688 277.804688 81.722656 277.878906 79.71875 C 278.167969 78.953125 278.371094 78.140625 278.371094 77.273438 L 278.371094 49.367188 C 278.371094 45.511719 275.25 42.394531 271.394531 42.394531 C 267.539062 42.394531 264.417969 45.511719 264.417969 49.367188 L 264.417969 75.722656 L 246.726562 89.335938 C 243.671875 91.6875 243.105469 96.066406 245.449219 99.125 C 246.828125 100.910156 248.898438 101.84375 250.988281 101.84375 Z M 250.988281 101.84375 "/><path style=" stroke:none;fill-rule:nonzero;fill:#000000;fill-opacity:1;" d="M 670.574219 312.683594 L 697.261719 339.367188 C 698.625 340.730469 700.410156 341.410156 702.195312 341.410156 C 703.980469 341.410156 705.765625 340.730469 707.128906 339.367188 L 785.855469 260.652344 C 786.605469 259.90625 787.171875 259 787.519531 257.996094 L 801.089844 218.675781 C 801.949219 216.191406 801.335938 213.425781 799.496094 211.539062 C 797.65625 209.652344 794.910156 208.957031 792.402344 209.746094 L 752.144531 222.382812 C 751.074219 222.71875 750.097656 223.308594 749.300781 224.105469 L 670.574219 302.820312 C 667.851562 305.546875 667.851562 309.960938 670.574219 312.683594 Z M 757.953125 235.183594 L 783.390625 227.199219 L 774.851562 251.929688 L 702.195312 324.574219 L 685.375 307.753906 Z M 757.953125 235.183594 "/><g clip-rule="nonzero" clip-path="url(#9845adedce)"><path style=" stroke:none;fill-rule:nonzero;fill:#000000;fill-opacity:1;" d="M 371.003906 515.128906 L 341.515625 479.222656 C 338.425781 475.457031 333.667969 473.527344 328.808594 473.902344 C 300.625 476.058594 274.351562 489.476562 256.054688 511.3125 L 200.644531 577.433594 C 194.628906 584.613281 183.382812 583.941406 178.261719 576.09375 L 124.230469 493.253906 L 124.128906 493.300781 L 107.285156 463.628906 C 101.628906 453.664062 91.4375 447.113281 80.023438 446.101562 L 59.515625 444.289062 C 55.011719 443.886719 50.976562 441.332031 48.695312 437.425781 L 41.394531 424.917969 C 37.550781 418.339844 30.621094 414.648438 23.488281 414.648438 C 20.132812 414.648438 16.730469 415.464844 13.582031 417.183594 C 3.59375 422.636719 -0.121094 435.125 5.257812 445.152344 L 49.53125 527.625 L 140.019531 695.160156 C 148.90625 711.613281 166.105469 721.867188 184.804688 721.867188 C 198.136719 721.867188 210.933594 716.640625 220.449219 707.308594 L 245.605469 682.632812 C 238.453125 636.980469 248.226562 600.410156 248.6875 598.738281 C 249.707031 595.027344 253.539062 592.855469 257.257812 593.871094 C 260.972656 594.890625 263.15625 598.726562 262.136719 602.4375 C 262.042969 602.800781 253.894531 633.496094 258.316406 672.464844 C 261.460938 682.359375 277.667969 736.929688 271.105469 792.730469 C 270.070312 801.5625 276.726562 809.394531 285.617188 809.394531 L 396.976562 809.394531 L 396.976562 530.40625 C 387.203125 528.613281 377.921875 523.554688 371.003906 515.128906 Z M 20.269531 429.429688 C 21.277344 428.878906 22.363281 428.597656 23.488281 428.597656 C 25.929688 428.597656 28.117188 429.851562 29.34375 431.953125 L 36.644531 444.457031 C 41.199219 452.257812 49.289062 457.386719 58.285156 458.183594 L 78.792969 460 C 85.640625 460.605469 91.757812 464.535156 95.148438 470.515625 L 104.691406 487.320312 L 55.65625 509.535156 L 17.554688 438.550781 C 15.804688 435.292969 17.023438 431.199219 20.269531 429.429688 Z M 20.269531 429.429688 "/></g><path style=" stroke:none;fill-rule:nonzero;fill:#000000;fill-opacity:1;" d="M 529.523438 470.1875 C 551.9375 470.1875 557.960938 452.140625 559.570312 443.164062 C 560.097656 440.214844 561.359375 437.390625 563.519531 435.320312 C 578.414062 421.050781 570.882812 404.902344 565.355469 396.832031 C 562.96875 393.347656 562.203125 389.007812 563.320312 384.9375 C 569.605469 362.007812 567.398438 340.039062 548.304688 328.808594 C 531.4375 318.886719 522.917969 301.449219 520.230469 295.019531 C 519.953125 294.332031 519.703125 293.628906 519.414062 292.945312 C 519.320312 292.699219 519.261719 292.53125 519.261719 292.53125 C 519.261719 292.53125 519.257812 292.566406 519.25 292.605469 C 499.976562 248.011719 455.628906 216.785156 403.953125 216.785156 C 359.242188 216.785156 320.144531 240.242188 297.914062 275.433594 L 297.902344 275.417969 C 297.808594 275.582031 297.734375 275.722656 297.636719 275.886719 C 295.117188 279.917969 292.757812 284.058594 290.695312 288.378906 C 284.851562 299.132812 280.089844 307.34375 269.183594 315.644531 L 269.195312 315.660156 C 257.335938 325.324219 243.925781 342.011719 241.691406 369.058594 C 241.40625 372.511719 239.796875 375.679688 237.015625 377.746094 C 226.753906 385.371094 203.015625 407.144531 216.464844 437.554688 C 217.609375 440.140625 218.050781 442.941406 217.46875 445.707031 C 216.042969 452.519531 215.664062 466.75 234.074219 474.847656 C 249.964844 481.839844 269.683594 470.761719 277.273438 465.792969 C 279.34375 464.441406 281.746094 463.742188 284.21875 463.808594 C 294.171875 464.078125 320.007812 465.738281 330.128906 443.765625 C 350.867188 458.878906 376.324219 467.90625 403.953125 467.90625 C 429.914062 467.90625 454.03125 460.023438 474.054688 446.53125 C 484.734375 459.679688 503.714844 470.1875 529.523438 470.1875 Z M 295.175781 367.058594 C 377.863281 361.40625 413.835938 324.449219 429.46875 293.320312 C 442.546875 310.238281 467.449219 327.546875 514.574219 328.136719 C 515.171875 332.800781 515.582031 337.523438 515.582031 342.34375 C 515.582031 403.886719 465.503906 453.957031 403.953125 453.957031 C 350.90625 453.957031 306.46875 416.730469 295.175781 367.058594 Z M 295.175781 367.058594 "/><g clip-rule="nonzero" clip-path="url(#a9786e9114)"><path style=" stroke:none;fill-rule:nonzero;fill:#000000;fill-opacity:1;" d="M 485.625 150.707031 C 486.890625 152.757812 489.140625 154.003906 491.550781 154.003906 L 658.414062 154.003906 C 660.824219 154.003906 663.074219 152.757812 664.339844 150.707031 C 665.617188 148.648438 665.738281 146.085938 664.660156 143.929688 L 641.164062 96.609375 L 641.164062 14.492188 C 641.164062 10.636719 638.042969 7.515625 634.1875 7.515625 L 515.582031 7.515625 C 511.726562 7.515625 508.605469 10.636719 508.605469 14.492188 L 508.605469 97.003906 L 485.304688 143.929688 C 484.226562 146.085938 484.347656 148.648438 485.625 150.707031 Z M 522.558594 21.464844 L 627.210938 21.464844 L 627.210938 91.222656 L 522.558594 91.222656 Z M 520.125 105.175781 L 629.839844 105.175781 L 647.160156 140.050781 L 502.804688 140.050781 Z M 520.125 105.175781 "/></g><path style=" stroke:none;fill-rule:nonzero;fill:#000000;fill-opacity:1;" d="M 606.277344 112.148438 L 543.488281 112.148438 C 539.632812 112.148438 536.511719 115.269531 536.511719 119.125 C 536.511719 122.980469 539.632812 126.101562 543.488281 126.101562 L 606.277344 126.101562 C 610.136719 126.101562 613.253906 122.980469 613.253906 119.125 C 613.253906 115.269531 610.136719 112.148438 606.277344 112.148438 Z M 606.277344 112.148438 "/><g clip-rule="nonzero" clip-path="url(#316a3ad48d)"><path style=" stroke:none;fill-rule:nonzero;fill:#000000;fill-opacity:1;" d="M 796.121094 417.183594 C 792.976562 415.464844 789.574219 414.648438 786.214844 414.648438 C 779.082031 414.648438 772.15625 418.339844 768.3125 424.917969 L 761.007812 437.425781 C 758.726562 441.332031 754.695312 443.886719 750.191406 444.289062 L 729.679688 446.101562 C 718.265625 447.113281 708.078125 453.664062 702.421875 463.628906 L 685.335938 493.722656 L 685.367188 493.734375 L 631.648438 576.09375 C 626.53125 583.941406 615.285156 584.613281 609.265625 577.433594 L 553.859375 511.3125 C 535.5625 489.476562 509.289062 476.0625 481.105469 473.902344 C 476.246094 473.527344 471.488281 475.460938 468.394531 479.226562 L 438.953125 515.113281 C 431.554688 524.132812 421.453125 529.308594 410.929688 530.734375 L 410.929688 809.394531 L 524.292969 809.394531 C 533.1875 809.394531 539.84375 801.5625 538.804688 792.730469 C 533.078125 744.007812 544.714844 696.226562 549.859375 678.273438 C 555.851562 636.582031 546.890625 602.816406 546.792969 602.4375 C 545.769531 598.726562 547.957031 594.890625 551.671875 593.871094 C 555.378906 592.847656 559.21875 595.027344 560.242188 598.738281 C 560.699219 600.402344 570.355469 636.535156 563.449219 681.792969 L 589.472656 707.316406 C 598.984375 716.644531 611.773438 721.867188 625.09375 721.867188 C 643.804688 721.867188 661 711.601562 669.875 695.136719 L 760.171875 527.625 L 804.445312 445.152344 C 809.828125 435.125 806.113281 422.636719 796.121094 417.183594 Z M 501.628906 635.320312 L 459.765625 635.320312 C 455.910156 635.320312 452.789062 632.203125 452.789062 628.347656 C 452.789062 624.488281 455.910156 621.371094 459.765625 621.371094 L 501.628906 621.371094 C 505.484375 621.371094 508.605469 624.488281 508.605469 628.347656 C 508.605469 632.203125 505.484375 635.320312 501.628906 635.320312 Z M 730.910156 460 L 751.421875 458.183594 C 760.417969 457.386719 768.503906 452.257812 773.058594 444.460938 L 780.363281 431.949219 C 781.589844 429.851562 783.777344 428.597656 786.21875 428.597656 C 787.34375 428.597656 788.429688 428.878906 789.4375 429.429688 C 792.683594 431.199219 793.902344 435.292969 792.152344 438.554688 L 754.046875 509.535156 L 705.015625 487.320312 L 714.554688 470.515625 C 717.949219 464.539062 724.0625 460.605469 730.910156 460 Z M 730.910156 460 "/></g><path style=" stroke:none;fill-rule:nonzero;fill:#000000;fill-opacity:1;" d="M 762.640625 320.183594 C 761.960938 317.800781 761.292969 315.53125 760.652344 313.402344 C 759.535156 309.714844 755.652344 307.625 751.960938 308.726562 C 748.265625 309.835938 746.175781 313.734375 747.285156 317.417969 C 747.914062 319.496094 748.566406 321.710938 749.234375 324.027344 C 750.113281 327.09375 752.898438 329.082031 755.929688 329.082031 C 756.570312 329.082031 757.21875 328.992188 757.859375 328.808594 C 761.566406 327.746094 763.707031 323.882812 762.640625 320.183594 Z M 762.640625 320.183594 "/><path style=" stroke:none;fill-rule:nonzero;fill:#000000;fill-opacity:1;" d="M 769.953125 397.347656 C 770.152344 397.347656 770.355469 397.339844 770.558594 397.320312 C 774.402344 396.984375 777.242188 393.605469 776.910156 389.769531 C 776.703125 387.40625 776.453125 385.007812 776.152344 382.589844 C 775.691406 378.761719 772.234375 375.949219 768.386719 376.515625 C 764.558594 376.976562 761.839844 380.460938 762.308594 384.28125 C 762.582031 386.535156 762.820312 388.769531 763.011719 390.96875 C 763.324219 394.609375 766.371094 397.347656 769.953125 397.347656 Z M 769.953125 397.347656 "/><path style=" stroke:none;fill-rule:nonzero;fill:#000000;fill-opacity:1;" d="M 757.683594 357.414062 C 758.398438 360.683594 761.285156 362.910156 764.496094 362.910156 C 764.984375 362.910156 765.484375 362.863281 765.980469 362.753906 C 769.75 361.9375 772.140625 358.21875 771.324219 354.457031 C 770.820312 352.132812 770.308594 349.832031 769.78125 347.554688 C 768.917969 343.804688 765.171875 341.460938 761.417969 342.324219 C 757.660156 343.191406 755.320312 346.9375 756.183594 350.691406 C 756.695312 352.910156 757.191406 355.160156 757.683594 357.414062 Z M 757.683594 357.414062 "/><path style=" stroke:none;fill-rule:nonzero;fill:#000000;fill-opacity:1;" d="M 666.359375 167.65625 C 667.90625 169.335938 669.4375 171.035156 670.957031 172.742188 C 672.332031 174.289062 674.246094 175.082031 676.167969 175.082031 C 677.824219 175.082031 679.480469 174.5 680.808594 173.316406 C 683.683594 170.753906 683.941406 166.347656 681.382812 163.464844 C 679.808594 161.699219 678.21875 159.949219 676.617188 158.214844 C 674.015625 155.371094 669.585938 155.1875 666.765625 157.804688 C 663.925781 160.40625 663.75 164.820312 666.359375 167.65625 Z M 666.359375 167.65625 "/><path style=" stroke:none;fill-rule:nonzero;fill:#000000;fill-opacity:1;" d="M 692.417969 199.359375 C 693.789062 201.230469 695.90625 202.21875 698.058594 202.21875 C 699.484375 202.21875 700.929688 201.785156 702.167969 200.878906 C 705.28125 198.601562 705.957031 194.234375 703.6875 191.128906 C 702.292969 189.222656 700.878906 187.320312 699.449219 185.441406 C 697.125 182.367188 692.753906 181.757812 689.679688 184.09375 C 686.605469 186.414062 686 190.789062 688.332031 193.859375 C 689.707031 195.6875 691.078125 197.519531 692.417969 199.359375 Z M 692.417969 199.359375 "/><path style=" stroke:none;fill-rule:nonzero;fill:#000000;fill-opacity:1;" d="M 710.039062 225.890625 C 711.339844 228.078125 713.65625 229.285156 716.027344 229.285156 C 717.246094 229.285156 718.480469 228.964844 719.601562 228.289062 C 722.90625 226.3125 723.984375 222.03125 722 218.726562 L 719.570312 214.726562 C 717.550781 211.4375 713.226562 210.429688 709.96875 212.457031 C 706.691406 214.480469 705.675781 218.78125 707.699219 222.054688 Z M 710.039062 225.890625 "/><path style=" stroke:none;fill-rule:nonzero;fill:#000000;fill-opacity:1;" d="M 450.363281 56.105469 C 452.628906 56.390625 454.882812 56.699219 457.136719 57.03125 C 457.484375 57.082031 457.824219 57.109375 458.167969 57.109375 C 461.574219 57.109375 464.550781 54.613281 465.0625 51.152344 C 465.625 47.339844 462.988281 43.796875 459.179688 43.230469 C 456.832031 42.882812 454.480469 42.5625 452.121094 42.265625 C 448.273438 41.867188 444.8125 44.492188 444.320312 48.304688 C 443.839844 52.128906 446.542969 55.621094 450.363281 56.105469 Z M 450.363281 56.105469 "/><path style=" stroke:none;fill-rule:nonzero;fill:#000000;fill-opacity:1;" d="M 381.605469 53.996094 C 381.757812 53.996094 381.914062 53.988281 382.0625 53.980469 C 384.332031 53.832031 386.605469 53.714844 388.890625 53.613281 C 392.738281 53.441406 395.722656 50.1875 395.554688 46.335938 C 395.390625 42.488281 392.214844 39.339844 388.277344 39.675781 C 385.898438 39.777344 383.527344 39.90625 381.164062 40.058594 C 377.320312 40.308594 374.40625 43.625 374.648438 47.46875 C 374.886719 51.160156 377.960938 53.996094 381.605469 53.996094 Z M 381.605469 53.996094 "/><path style=" stroke:none;fill-rule:nonzero;fill:#000000;fill-opacity:1;" d="M 484.035156 62.046875 L 488.417969 63.074219 C 488.96875 63.203125 489.515625 63.265625 490.050781 63.265625 C 493.207031 63.265625 496.0625 61.113281 496.832031 57.917969 C 497.730469 54.171875 495.421875 50.40625 491.671875 49.503906 L 487.144531 48.449219 C 483.402344 47.578125 479.648438 49.933594 478.789062 53.695312 C 477.929688 57.449219 480.28125 61.1875 484.035156 62.046875 Z M 484.035156 62.046875 "/><path style=" stroke:none;fill-rule:nonzero;fill:#000000;fill-opacity:1;" d="M 346.953125 57.871094 C 347.320312 57.871094 347.691406 57.84375 348.066406 57.78125 C 350.320312 57.421875 352.582031 57.082031 354.851562 56.746094 C 358.664062 56.203125 361.308594 52.660156 360.757812 48.851562 C 360.210938 45.035156 356.648438 42.320312 352.859375 42.945312 C 350.511719 43.277344 348.179688 43.632812 345.855469 44.007812 C 342.046875 44.621094 339.460938 48.199219 340.074219 52 C 340.625 55.433594 343.589844 57.871094 346.953125 57.871094 Z M 346.953125 57.871094 "/><path style=" stroke:none;fill-rule:nonzero;fill:#000000;fill-opacity:1;" d="M 416.257812 53.414062 C 418.546875 53.492188 420.828125 53.585938 423.113281 53.703125 C 423.226562 53.707031 423.351562 53.707031 423.464844 53.707031 C 427.160156 53.707031 430.238281 50.804688 430.429688 47.082031 C 430.621094 43.230469 427.65625 39.953125 423.808594 39.765625 C 421.441406 39.648438 419.078125 39.550781 416.707031 39.476562 C 413.117188 39.152344 409.628906 42.367188 409.511719 46.222656 C 409.382812 50.070312 412.410156 53.292969 416.257812 53.414062 Z M 416.257812 53.414062 "/><path style=" stroke:none;fill-rule:nonzero;fill:#000000;fill-opacity:1;" d="M 126.949219 183.117188 C 128.945312 183.117188 130.925781 182.265625 132.308594 180.617188 C 133.769531 178.867188 135.253906 177.136719 136.746094 175.421875 C 139.28125 172.511719 138.972656 168.109375 136.070312 165.578125 C 133.183594 163.058594 128.773438 163.347656 126.226562 166.25 C 124.664062 168.035156 123.125 169.847656 121.601562 171.667969 C 119.132812 174.625 119.523438 179.023438 122.480469 181.496094 C 123.785156 182.585938 125.375 183.117188 126.949219 183.117188 Z M 126.949219 183.117188 "/><path style=" stroke:none;fill-rule:nonzero;fill:#000000;fill-opacity:1;" d="M 150.605469 157.492188 C 152.375 157.492188 154.148438 156.824219 155.507812 155.480469 C 157.128906 153.878906 158.757812 152.292969 160.414062 150.726562 C 163.214844 148.078125 163.332031 143.664062 160.679688 140.871094 C 158.035156 138.070312 153.621094 137.953125 150.820312 140.605469 C 149.097656 142.238281 147.386719 143.878906 145.699219 145.550781 C 142.960938 148.261719 142.933594 152.675781 145.636719 155.421875 C 147.007812 156.796875 148.804688 157.492188 150.605469 157.492188 Z M 150.605469 157.492188 "/><path style=" stroke:none;fill-rule:nonzero;fill:#000000;fill-opacity:1;" d="M 105.867188 210.890625 C 108.097656 210.890625 110.28125 209.828125 111.632812 207.851562 C 112.917969 205.980469 114.222656 204.113281 115.550781 202.265625 C 117.796875 199.140625 117.082031 194.78125 113.949219 192.53125 C 110.828125 190.277344 106.453125 190.992188 104.210938 194.132812 C 102.828125 196.0625 101.460938 198.007812 100.117188 199.976562 C 97.945312 203.152344 98.753906 207.5 101.9375 209.671875 C 103.144531 210.496094 104.511719 210.890625 105.867188 210.890625 Z M 105.867188 210.890625 "/><path style=" stroke:none;fill-rule:nonzero;fill:#000000;fill-opacity:1;" d="M 176.589844 134.25 C 178.128906 134.25 179.683594 133.738281 180.976562 132.6875 C 182.753906 131.25 184.539062 129.820312 186.347656 128.410156 C 189.378906 126.03125 189.910156 121.644531 187.53125 118.613281 C 185.152344 115.582031 180.765625 115.042969 177.734375 117.429688 C 175.875 118.894531 174.019531 120.363281 172.1875 121.855469 C 169.195312 124.28125 168.734375 128.675781 171.164062 131.667969 C 172.542969 133.371094 174.558594 134.25 176.589844 134.25 Z M 176.589844 134.25 "/><path style=" stroke:none;fill-rule:nonzero;fill:#000000;fill-opacity:1;" d="M 36.046875 380.070312 C 35.820312 382.421875 35.617188 384.777344 35.441406 387.140625 C 35.148438 390.984375 38.023438 394.335938 41.863281 394.628906 C 42.046875 394.640625 42.226562 394.648438 42.402344 394.648438 C 46.015625 394.648438 49.074219 391.863281 49.351562 388.203125 C 49.53125 385.921875 49.71875 383.648438 49.929688 381.378906 C 50.300781 377.542969 47.480469 374.144531 43.644531 373.78125 C 39.765625 373.332031 36.414062 376.234375 36.046875 380.070312 Z M 36.046875 380.070312 "/><path style=" stroke:none;fill-rule:nonzero;fill:#000000;fill-opacity:1;" d="M 61.023438 320.902344 C 61.636719 318.695312 62.261719 316.492188 62.910156 314.300781 C 63.992188 310.609375 61.875 306.730469 58.175781 305.640625 C 54.476562 304.558594 50.605469 306.683594 49.515625 310.375 C 48.855469 312.636719 48.199219 314.90625 47.574219 317.195312 C 46.550781 320.90625 48.730469 324.75 52.445312 325.769531 C 53.066406 325.941406 53.683594 326.023438 54.304688 326.023438 C 57.363281 326.023438 60.171875 323.992188 61.023438 320.902344 Z M 61.023438 320.902344 "/><path style=" stroke:none;fill-rule:nonzero;fill:#000000;fill-opacity:1;" d="M 53.5625 354.253906 C 53.953125 352.003906 54.367188 349.761719 54.796875 347.527344 C 55.53125 343.75 53.058594 340.082031 49.277344 339.355469 C 45.503906 338.613281 41.835938 341.089844 41.101562 344.871094 C 40.644531 347.203125 40.214844 349.539062 39.8125 351.882812 C 39.160156 355.683594 41.707031 359.285156 45.503906 359.941406 C 45.90625 360.007812 46.308594 360.042969 46.695312 360.042969 C 50.035156 360.042969 52.976562 357.644531 53.5625 354.253906 Z M 53.5625 354.253906 "/></g></svg>