<svg xmlns="http://www.w3.org/2000/svg" xmlns:xlink="http://www.w3.org/1999/xlink" width="48" zoomAndPan="magnify" viewBox="0 0 36 36.000001" height="48" preserveAspectRatio="xMidYMid meet" version="1.0"><defs><clipPath id="f3d3f3ee6b"><path d="M 28 13 L 35.511719 13 L 35.511719 21 L 28 21 Z M 28 13 " clip-rule="nonzero"/></clipPath><clipPath id="b99bcb5baf"><path d="M 21 26 L 33 26 L 33 34.277344 L 21 34.277344 Z M 21 26 " clip-rule="nonzero"/></clipPath><clipPath id="3e67dcff8e"><path d="M 15 0.710938 L 24 0.710938 L 24 9 L 15 9 Z M 15 0.710938 " clip-rule="nonzero"/></clipPath><clipPath id="17bd3bcd8c"><path d="M 0.488281 13 L 8 13 L 8 21 L 0.488281 21 Z M 0.488281 13 " clip-rule="nonzero"/></clipPath><clipPath id="dd8088ce0a"><path d="M 7 27 L 14 27 L 14 34.277344 L 7 34.277344 Z M 7 27 " clip-rule="nonzero"/></clipPath></defs><path fill="#000000" d="M 23.640625 4.078125 C 23.640625 4.269531 23.796875 4.425781 23.988281 4.425781 L 25.148438 4.425781 C 25.339844 4.425781 25.496094 4.269531 25.496094 4.078125 C 25.496094 3.882812 25.339844 3.726562 25.148438 3.726562 L 23.988281 3.726562 C 23.796875 3.726562 23.640625 3.882812 23.640625 4.078125 Z M 23.640625 4.078125 " fill-opacity="1" fill-rule="nonzero"/><path fill="#000000" d="M 23.875 3.625 C 23.949219 3.625 24.023438 3.601562 24.085938 3.554688 L 25.007812 2.855469 C 25.160156 2.738281 25.191406 2.519531 25.074219 2.367188 C 24.957031 2.210938 24.738281 2.179688 24.585938 2.296875 L 23.660156 2.996094 C 23.507812 3.113281 23.476562 3.332031 23.59375 3.488281 C 23.664062 3.578125 23.769531 3.625 23.875 3.625 Z M 23.875 3.625 " fill-opacity="1" fill-rule="nonzero"/><path fill="#000000" d="M 25.007812 5.296875 L 24.085938 4.597656 C 23.929688 4.480469 23.710938 4.511719 23.59375 4.667969 C 23.476562 4.820312 23.507812 5.039062 23.660156 5.15625 L 24.585938 5.855469 C 24.648438 5.902344 24.722656 5.925781 24.796875 5.925781 C 24.902344 5.925781 25.007812 5.878906 25.074219 5.789062 C 25.191406 5.632812 25.160156 5.414062 25.007812 5.296875 Z M 25.007812 5.296875 " fill-opacity="1" fill-rule="nonzero"/><g clip-path="url(#f3d3f3ee6b)"><path fill="#000000" d="M 35.160156 13.238281 L 31.578125 13.238281 C 31.558594 13.183594 31.539062 13.128906 31.515625 13.070312 L 31.082031 13.238281 L 29.011719 13.238281 C 28.820312 13.238281 28.660156 13.394531 28.660156 13.589844 L 28.660156 18.304688 C 28.660156 18.5 28.820312 18.65625 29.011719 18.65625 L 30.429688 18.65625 L 30.429688 20.257812 C 30.429688 20.402344 30.519531 20.53125 30.652344 20.585938 C 30.695312 20.601562 30.738281 20.609375 30.78125 20.609375 C 30.878906 20.609375 30.972656 20.570312 31.039062 20.496094 L 31.675781 19.804688 C 31.660156 19.949219 31.640625 20.097656 31.621094 20.242188 L 32.3125 20.34375 C 32.34375 20.136719 32.371094 19.925781 32.390625 19.71875 L 31.808594 19.660156 L 32.214844 19.21875 L 32.433594 19.234375 C 32.441406 19.144531 32.445312 19.054688 32.449219 18.964844 L 32.734375 18.65625 L 35.160156 18.65625 C 35.355469 18.65625 35.511719 18.5 35.511719 18.304688 L 35.511719 13.589844 C 35.511719 13.394531 35.355469 13.238281 35.160156 13.238281 Z M 34.808594 17.953125 L 32.582031 17.953125 C 32.484375 17.953125 32.390625 17.996094 32.324219 18.066406 L 31.132812 19.359375 L 31.132812 18.304688 C 31.132812 18.113281 30.972656 17.953125 30.78125 17.953125 L 29.363281 17.953125 L 29.363281 13.9375 L 34.808594 13.9375 Z M 34.808594 17.953125 " fill-opacity="1" fill-rule="nonzero"/></g><path fill="#000000" d="M 30.082031 17.621094 C 30.265625 17.6875 30.464844 17.59375 30.53125 17.410156 L 30.679688 17.007812 L 31.523438 17.007812 L 31.671875 17.410156 C 31.722656 17.554688 31.855469 17.644531 32 17.644531 C 32.039062 17.644531 32.082031 17.636719 32.121094 17.621094 C 32.300781 17.554688 32.394531 17.355469 32.328125 17.171875 L 32.308594 17.117188 C 32.46875 17.445312 32.804688 17.675781 33.195312 17.675781 C 33.355469 17.675781 33.507812 17.636719 33.640625 17.566406 C 33.703125 17.613281 33.777344 17.640625 33.859375 17.640625 C 34.050781 17.640625 34.210938 17.484375 34.210938 17.292969 L 34.210938 14.820312 C 34.210938 14.625 34.050781 14.46875 33.859375 14.46875 C 33.664062 14.46875 33.507812 14.625 33.507812 14.820312 L 33.507812 15.757812 C 33.410156 15.726562 33.304688 15.707031 33.195312 15.707031 C 32.652344 15.707031 32.210938 16.148438 32.210938 16.691406 C 32.210938 16.773438 32.222656 16.855469 32.242188 16.929688 L 31.429688 14.699219 C 31.378906 14.5625 31.25 14.46875 31.101562 14.46875 C 30.953125 14.46875 30.820312 14.5625 30.773438 14.699219 L 29.875 17.171875 C 29.808594 17.355469 29.902344 17.554688 30.082031 17.621094 Z M 33.195312 16.410156 C 33.351562 16.410156 33.476562 16.535156 33.476562 16.691406 C 33.476562 16.847656 33.351562 16.972656 33.195312 16.972656 C 33.039062 16.972656 32.914062 16.847656 32.914062 16.691406 C 32.914062 16.535156 33.039062 16.410156 33.195312 16.410156 Z M 31.101562 15.847656 L 31.269531 16.304688 L 30.933594 16.304688 Z M 31.101562 15.847656 " fill-opacity="1" fill-rule="nonzero"/><path fill="#000000" d="M 5.382812 16.621094 L 3.449219 15.503906 C 3.339844 15.441406 3.207031 15.441406 3.097656 15.503906 C 2.988281 15.566406 2.921875 15.683594 2.921875 15.808594 L 2.921875 18.039062 C 2.921875 18.164062 2.988281 18.28125 3.097656 18.34375 C 3.152344 18.375 3.210938 18.390625 3.273438 18.390625 C 3.332031 18.390625 3.394531 18.375 3.449219 18.34375 L 5.382812 17.226562 C 5.492188 17.164062 5.558594 17.046875 5.558594 16.921875 C 5.558594 16.796875 5.492188 16.683594 5.382812 16.621094 Z M 3.625 17.433594 L 3.625 16.414062 L 4.507812 16.921875 Z M 3.625 17.433594 " fill-opacity="1" fill-rule="nonzero"/><path fill="#000000" d="M 5.867188 14.507812 L 6.476562 14.507812 L 6.476562 15.054688 L 5.867188 15.054688 Z M 5.867188 14.507812 " fill-opacity="1" fill-rule="nonzero"/><path fill="#000000" d="M 1.546875 14.507812 L 2.160156 14.507812 L 2.160156 15.054688 L 1.546875 15.054688 Z M 1.546875 14.507812 " fill-opacity="1" fill-rule="nonzero"/><path fill="#000000" d="M 2.628906 14.507812 L 3.238281 14.507812 L 3.238281 15.054688 L 2.628906 15.054688 Z M 2.628906 14.507812 " fill-opacity="1" fill-rule="nonzero"/><path fill="#000000" d="M 4.789062 14.507812 L 5.398438 14.507812 L 5.398438 15.054688 L 4.789062 15.054688 Z M 4.789062 14.507812 " fill-opacity="1" fill-rule="nonzero"/><path fill="#000000" d="M 3.707031 14.507812 L 4.316406 14.507812 L 4.316406 15.054688 L 3.707031 15.054688 Z M 3.707031 14.507812 " fill-opacity="1" fill-rule="nonzero"/><path fill="#000000" d="M 3.707031 18.832031 L 4.316406 18.832031 L 4.316406 19.375 L 3.707031 19.375 Z M 3.707031 18.832031 " fill-opacity="1" fill-rule="nonzero"/><path fill="#000000" d="M 5.867188 18.832031 L 6.476562 18.832031 L 6.476562 19.375 L 5.867188 19.375 Z M 5.867188 18.832031 " fill-opacity="1" fill-rule="nonzero"/><path fill="#000000" d="M 2.628906 18.832031 L 3.238281 18.832031 L 3.238281 19.375 L 2.628906 19.375 Z M 2.628906 18.832031 " fill-opacity="1" fill-rule="nonzero"/><path fill="#000000" d="M 4.789062 18.832031 L 5.398438 18.832031 L 5.398438 19.375 L 4.789062 19.375 Z M 4.789062 18.832031 " fill-opacity="1" fill-rule="nonzero"/><path fill="#000000" d="M 1.546875 18.832031 L 2.160156 18.832031 L 2.160156 19.375 L 1.546875 19.375 Z M 1.546875 18.832031 " fill-opacity="1" fill-rule="nonzero"/><path fill="#000000" d="M 8.507812 29.796875 C 8.507812 29.96875 8.648438 30.105469 8.816406 30.105469 L 11.78125 30.105469 C 11.953125 30.105469 12.089844 29.96875 12.089844 29.796875 C 12.089844 29.625 11.953125 29.488281 11.78125 29.488281 L 8.816406 29.488281 C 8.648438 29.488281 8.507812 29.628906 8.507812 29.796875 Z M 8.507812 29.796875 " fill-opacity="1" fill-rule="nonzero"/><path fill="#000000" d="M 11.78125 30.539062 L 8.816406 30.539062 C 8.648438 30.539062 8.507812 30.675781 8.507812 30.847656 C 8.507812 31.019531 8.648438 31.15625 8.816406 31.15625 L 11.78125 31.15625 C 11.953125 31.15625 12.089844 31.019531 12.089844 30.847656 C 12.089844 30.675781 11.953125 30.539062 11.78125 30.539062 Z M 11.78125 30.539062 " fill-opacity="1" fill-rule="nonzero"/><path fill="#000000" d="M 11.78125 31.585938 L 8.816406 31.585938 C 8.648438 31.585938 8.507812 31.726562 8.507812 31.898438 C 8.507812 32.066406 8.648438 32.207031 8.816406 32.207031 L 11.78125 32.207031 C 11.953125 32.207031 12.089844 32.066406 12.089844 31.898438 C 12.089844 31.726562 11.953125 31.585938 11.78125 31.585938 Z M 11.78125 31.585938 " fill-opacity="1" fill-rule="nonzero"/><path fill="#000000" d="M 11.78125 32.636719 L 8.816406 32.636719 C 8.648438 32.636719 8.507812 32.773438 8.507812 32.945312 C 8.507812 33.117188 8.648438 33.253906 8.816406 33.253906 L 11.78125 33.253906 C 11.953125 33.253906 12.089844 33.117188 12.089844 32.945312 C 12.089844 32.773438 11.953125 32.636719 11.78125 32.636719 Z M 11.78125 32.636719 " fill-opacity="1" fill-rule="nonzero"/><g clip-path="url(#b99bcb5baf)"><path fill="#000000" d="M 32.484375 28.703125 L 31.335938 28.207031 L 31.691406 27.011719 C 31.726562 26.894531 31.691406 26.769531 31.597656 26.6875 C 31.503906 26.609375 31.375 26.589844 31.265625 26.644531 L 29.429688 27.5 C 29.351562 27.539062 29.289062 27.609375 29.265625 27.691406 L 28.871094 29.019531 L 28.355469 29.261719 C 28.234375 29.058594 28.097656 28.871094 27.9375 28.695312 C 27.980469 28.65625 28.019531 28.617188 28.0625 28.578125 L 27.574219 28.074219 C 27.519531 28.125 27.464844 28.175781 27.410156 28.230469 C 27.210938 28.085938 26.996094 27.964844 26.769531 27.871094 C 26.355469 27.695312 25.921875 27.609375 25.46875 27.609375 C 25.019531 27.609375 24.582031 27.695312 24.171875 27.871094 C 23.773438 28.039062 23.414062 28.277344 23.109375 28.585938 C 22.800781 28.890625 22.5625 29.246094 22.394531 29.644531 C 22.21875 30.054688 22.132812 30.492188 22.132812 30.941406 C 22.132812 31.058594 22.136719 31.171875 22.148438 31.285156 C 22.078125 31.304688 22.007812 31.328125 21.9375 31.347656 L 22.136719 32.019531 C 22.1875 32.003906 22.242188 31.988281 22.292969 31.972656 C 22.324219 32.0625 22.355469 32.152344 22.394531 32.242188 C 22.5625 32.636719 22.800781 32.996094 23.109375 33.300781 C 23.414062 33.609375 23.773438 33.847656 24.171875 34.015625 C 24.582031 34.191406 25.019531 34.277344 25.46875 34.277344 C 25.921875 34.277344 26.355469 34.191406 26.769531 34.015625 C 27.167969 33.847656 27.523438 33.609375 27.832031 33.300781 C 28.136719 32.996094 28.378906 32.636719 28.546875 32.242188 C 28.71875 31.828125 28.808594 31.394531 28.808594 30.941406 C 28.808594 30.558594 28.742188 30.179688 28.613281 29.824219 L 29.132812 29.582031 L 30.40625 30.128906 C 30.445312 30.144531 30.488281 30.152344 30.527344 30.152344 C 30.574219 30.152344 30.617188 30.144531 30.660156 30.125 L 32.492188 29.265625 C 32.605469 29.214844 32.671875 29.105469 32.671875 28.980469 C 32.671875 28.859375 32.597656 28.75 32.484375 28.703125 Z M 27.390625 32.863281 C 26.878906 33.375 26.195312 33.660156 25.46875 33.660156 C 24.742188 33.660156 24.058594 33.375 23.546875 32.863281 C 23.035156 32.351562 22.75 31.667969 22.75 30.941406 C 22.75 30.21875 23.035156 29.535156 23.546875 29.023438 C 24.058594 28.507812 24.742188 28.226562 25.46875 28.226562 C 26.195312 28.226562 26.878906 28.507812 27.390625 29.023438 C 27.546875 29.175781 27.679688 29.34375 27.789062 29.527344 L 27.34375 29.734375 C 27.257812 29.605469 27.160156 29.480469 27.046875 29.367188 C 26.625 28.945312 26.066406 28.714844 25.46875 28.714844 C 24.875 28.714844 24.3125 28.945312 23.894531 29.367188 C 23.472656 29.789062 23.238281 30.347656 23.238281 30.941406 C 23.238281 31.539062 23.472656 32.097656 23.894531 32.519531 C 24.3125 32.9375 24.875 33.171875 25.46875 33.171875 C 26.066406 33.171875 26.625 32.9375 27.046875 32.519531 C 27.46875 32.097656 27.699219 31.539062 27.699219 30.941406 C 27.699219 30.71875 27.667969 30.503906 27.605469 30.296875 L 28.050781 30.085938 C 28.140625 30.359375 28.1875 30.648438 28.1875 30.941406 C 28.1875 31.667969 27.90625 32.351562 27.390625 32.863281 Z M 25.210938 31.074219 C 25.265625 31.183594 25.375 31.25 25.492188 31.25 C 25.539062 31.25 25.582031 31.242188 25.625 31.222656 L 25.957031 31.066406 C 25.902344 31.285156 25.703125 31.445312 25.46875 31.445312 C 25.191406 31.445312 24.96875 31.21875 24.96875 30.941406 C 24.96875 30.667969 25.191406 30.441406 25.46875 30.441406 C 25.554688 30.441406 25.636719 30.464844 25.703125 30.5 L 25.363281 30.660156 C 25.207031 30.734375 25.140625 30.917969 25.210938 31.074219 Z M 25.46875 29.824219 C 24.851562 29.824219 24.347656 30.324219 24.347656 30.941406 C 24.347656 31.5625 24.851562 32.0625 25.46875 32.0625 C 26.085938 32.0625 26.589844 31.5625 26.589844 30.941406 C 26.589844 30.886719 26.585938 30.832031 26.578125 30.777344 L 27.035156 30.5625 C 27.0625 30.683594 27.082031 30.8125 27.082031 30.941406 C 27.082031 31.832031 26.359375 32.550781 25.46875 32.550781 C 24.582031 32.550781 23.859375 31.832031 23.859375 30.941406 C 23.859375 30.054688 24.582031 29.335938 25.46875 29.335938 C 26.003906 29.335938 26.480469 29.597656 26.773438 30 L 26.320312 30.214844 C 26.113281 29.976562 25.808594 29.824219 25.46875 29.824219 Z M 29.820312 28.003906 L 30.902344 27.496094 L 30.703125 28.164062 L 29.621094 28.667969 Z M 30.523438 29.503906 L 29.882812 29.230469 L 30.96875 28.722656 L 31.605469 29 Z M 30.523438 29.503906 " fill-opacity="1" fill-rule="nonzero"/></g><path fill="#000000" d="M 22.242188 26.246094 C 22.242188 26.042969 22.078125 25.875 21.875 25.875 L 20.230469 25.875 L 20.230469 24.359375 L 26.03125 24.359375 C 26.238281 24.359375 26.402344 24.191406 26.402344 23.988281 L 26.402344 12.335938 C 26.402344 12.132812 26.238281 11.96875 26.03125 11.96875 L 10.367188 11.96875 C 10.164062 11.96875 9.996094 12.132812 9.996094 12.335938 L 9.996094 23.988281 C 9.996094 24.191406 10.164062 24.359375 10.367188 24.359375 L 16.167969 24.359375 L 16.167969 25.878906 L 14.527344 25.878906 C 14.320312 25.878906 14.15625 26.042969 14.15625 26.246094 C 14.15625 26.449219 14.320312 26.617188 14.527344 26.617188 L 21.875 26.617188 C 22.078125 26.617188 22.242188 26.449219 22.242188 26.246094 Z M 10.738281 12.707031 L 25.664062 12.707031 L 25.664062 21.457031 L 10.738281 21.457031 Z M 19.492188 25.878906 L 16.910156 25.878906 L 16.910156 24.359375 L 19.492188 24.359375 Z M 19.859375 23.605469 L 16.539062 23.605469 C 16.503906 23.605469 16.46875 23.609375 16.4375 23.617188 L 10.738281 23.617188 L 10.738281 22.195312 L 25.664062 22.195312 L 25.664062 23.617188 L 19.960938 23.617188 C 19.929688 23.609375 19.894531 23.605469 19.859375 23.605469 Z M 19.859375 23.605469 " fill-opacity="1" fill-rule="nonzero"/><path fill="#000000" d="M 6.671875 10.671875 L 6.085938 10.285156 C 5.976562 10.453125 5.867188 10.625 5.761719 10.796875 L 6.363281 11.160156 C 6.460938 10.996094 6.566406 10.832031 6.671875 10.671875 Z M 6.671875 10.671875 " fill-opacity="1" fill-rule="nonzero"/><path fill="#000000" d="M 8.628906 8.335938 L 8.144531 7.828125 C 8 7.96875 7.855469 8.113281 7.714844 8.257812 L 8.222656 8.742188 C 8.355469 8.605469 8.492188 8.46875 8.628906 8.335938 Z M 8.628906 8.335938 " fill-opacity="1" fill-rule="nonzero"/><path fill="#000000" d="M 9.390625 7.660156 L 8.945312 7.121094 C 8.792969 7.246094 8.636719 7.378906 8.488281 7.515625 L 8.957031 8.035156 C 9.097656 7.910156 9.246094 7.78125 9.390625 7.660156 Z M 9.390625 7.660156 " fill-opacity="1" fill-rule="nonzero"/><path fill="#000000" d="M 5.671875 12.449219 L 5.039062 12.152344 C 4.953125 12.332031 4.871094 12.519531 4.792969 12.707031 L 5.441406 12.972656 C 5.515625 12.796875 5.59375 12.621094 5.671875 12.449219 Z M 5.671875 12.449219 " fill-opacity="1" fill-rule="nonzero"/><path fill="#000000" d="M 7.917969 9.066406 L 7.398438 8.597656 C 7.265625 8.746094 7.132812 8.898438 7.003906 9.054688 L 7.542969 9.5 C 7.664062 9.355469 7.792969 9.207031 7.917969 9.066406 Z M 7.917969 9.066406 " fill-opacity="1" fill-rule="nonzero"/><path fill="#000000" d="M 6.140625 11.542969 L 5.527344 11.199219 C 5.429688 11.375 5.332031 11.554688 5.242188 11.734375 L 5.867188 12.050781 C 5.953125 11.878906 6.046875 11.707031 6.140625 11.542969 Z M 6.140625 11.542969 " fill-opacity="1" fill-rule="nonzero"/><path fill="#000000" d="M 12.875 5.578125 L 12.605469 4.929688 C 12.421875 5.003906 12.234375 5.085938 12.050781 5.171875 L 12.347656 5.808594 C 12.519531 5.726562 12.695312 5.648438 12.875 5.578125 Z M 12.875 5.578125 " fill-opacity="1" fill-rule="nonzero"/><path fill="#000000" d="M 14.804688 4.945312 L 14.640625 4.265625 C 14.445312 4.3125 14.246094 4.367188 14.054688 4.421875 L 14.25 5.09375 C 14.433594 5.042969 14.621094 4.992188 14.804688 4.945312 Z M 14.804688 4.945312 " fill-opacity="1" fill-rule="nonzero"/><path fill="#000000" d="M 11.949219 6 L 11.632812 5.375 C 11.453125 5.464844 11.273438 5.558594 11.097656 5.65625 L 11.4375 6.269531 C 11.605469 6.175781 11.777344 6.085938 11.949219 6 Z M 11.949219 6 " fill-opacity="1" fill-rule="nonzero"/><path fill="#000000" d="M 7.265625 9.847656 L 6.710938 9.417969 C 6.589844 9.574219 6.464844 9.738281 6.351562 9.902344 L 6.921875 10.308594 C 7.03125 10.152344 7.148438 9.996094 7.265625 9.847656 Z M 7.265625 9.847656 " fill-opacity="1" fill-rule="nonzero"/><path fill="#000000" d="M 13.828125 5.226562 L 13.609375 4.558594 C 13.417969 4.621094 13.226562 4.6875 13.039062 4.757812 L 13.285156 5.414062 C 13.464844 5.347656 13.648438 5.285156 13.828125 5.226562 Z M 13.828125 5.226562 " fill-opacity="1" fill-rule="nonzero"/><path fill="#000000" d="M 10.203125 7.042969 L 9.796875 6.472656 C 9.632812 6.585938 9.46875 6.707031 9.3125 6.832031 L 9.738281 7.386719 C 9.890625 7.269531 10.046875 7.15625 10.203125 7.042969 Z M 10.203125 7.042969 " fill-opacity="1" fill-rule="nonzero"/><path fill="#000000" d="M 11.054688 6.488281 L 10.695312 5.886719 C 10.523438 5.992188 10.351562 6.101562 10.183594 6.210938 L 10.566406 6.796875 C 10.726562 6.691406 10.890625 6.585938 11.054688 6.488281 Z M 11.054688 6.488281 " fill-opacity="1" fill-rule="nonzero"/><g clip-path="url(#3e67dcff8e)"><path fill="#000000" d="M 15.324219 4.832031 C 15.558594 5.34375 16.054688 5.710938 16.644531 5.757812 L 16.644531 7.839844 C 16.644531 8.3125 17.027344 8.691406 17.5 8.691406 L 17.582031 8.691406 C 18.050781 8.691406 18.4375 8.3125 18.4375 7.839844 L 18.4375 5.761719 L 19.070312 5.761719 C 19.082031 5.765625 19.097656 5.769531 19.109375 5.773438 C 20.125 5.972656 21.066406 6.445312 21.832031 7.136719 L 22.238281 7.507812 C 22.304688 7.566406 22.386719 7.597656 22.472656 7.597656 C 22.523438 7.597656 22.570312 7.585938 22.617188 7.566406 C 22.742188 7.511719 22.824219 7.386719 22.824219 7.246094 L 22.824219 5.179688 C 23.242188 5.03125 23.539062 4.636719 23.539062 4.171875 C 23.539062 3.707031 23.242188 3.3125 22.824219 3.167969 L 22.824219 1.085938 C 22.824219 0.949219 22.742188 0.824219 22.617188 0.765625 C 22.488281 0.710938 22.339844 0.734375 22.238281 0.828125 L 21.832031 1.199219 C 21.066406 1.890625 20.125 2.363281 19.109375 2.5625 C 19.085938 2.566406 19.058594 2.574219 19.035156 2.582031 L 16.773438 2.582031 C 15.902344 2.582031 15.195312 3.28125 15.179688 4.144531 C 15.152344 4.148438 15.125 4.15625 15.097656 4.160156 L 15.242188 4.847656 C 15.269531 4.839844 15.296875 4.835938 15.324219 4.832031 Z M 22.824219 4.121094 C 22.824219 4.109375 22.824219 4.09375 22.824219 4.078125 L 22.824219 3.792969 C 22.929688 3.886719 22.992188 4.023438 22.992188 4.171875 C 22.992188 4.324219 22.929688 4.457031 22.824219 4.554688 L 22.824219 4.253906 C 22.824219 4.242188 22.824219 4.226562 22.824219 4.210938 Z M 19.53125 4.253906 L 19.53125 3.1875 C 20.484375 2.953125 21.371094 2.503906 22.125 1.871094 L 22.125 4.035156 C 22.121094 4.050781 22.121094 4.066406 22.121094 4.078125 L 22.121094 4.253906 C 22.121094 4.269531 22.121094 4.285156 22.125 4.296875 L 22.125 6.464844 C 21.371094 5.832031 20.484375 5.382812 19.53125 5.148438 Z M 17.734375 7.839844 C 17.734375 7.925781 17.664062 7.992188 17.582031 7.992188 L 17.5 7.992188 C 17.414062 7.992188 17.347656 7.925781 17.347656 7.839844 L 17.347656 5.765625 L 17.734375 5.765625 Z M 16.773438 3.285156 L 18.828125 3.285156 L 18.828125 4.078125 C 18.828125 4.089844 18.828125 4.101562 18.828125 4.113281 L 18.828125 4.222656 C 18.828125 4.234375 18.828125 4.246094 18.828125 4.253906 L 18.828125 5.0625 L 16.773438 5.0625 C 16.28125 5.0625 15.882812 4.664062 15.882812 4.171875 C 15.882812 3.683594 16.28125 3.285156 16.773438 3.285156 Z M 16.773438 3.285156 " fill-opacity="1" fill-rule="nonzero"/></g><path fill="#000000" d="M 4.695312 21.089844 L 4.011719 21.238281 C 4.050781 21.433594 4.101562 21.636719 4.152344 21.832031 L 4.828125 21.65625 C 4.78125 21.46875 4.738281 21.28125 4.695312 21.089844 Z M 4.695312 21.089844 " fill-opacity="1" fill-rule="nonzero"/><path fill="#000000" d="M 5.679688 24.015625 L 5.042969 24.3125 C 5.128906 24.496094 5.222656 24.679688 5.316406 24.859375 L 5.9375 24.535156 C 5.847656 24.363281 5.761719 24.1875 5.679688 24.015625 Z M 5.679688 24.015625 " fill-opacity="1" fill-rule="nonzero"/><path fill="#000000" d="M 4.949219 22.089844 L 4.277344 22.285156 C 4.332031 22.480469 4.394531 22.675781 4.460938 22.871094 L 5.125 22.644531 C 5.0625 22.460938 5.003906 22.273438 4.949219 22.089844 Z M 4.949219 22.089844 " fill-opacity="1" fill-rule="nonzero"/><path fill="#000000" d="M 5.277344 23.066406 L 4.621094 23.3125 C 4.695312 23.503906 4.769531 23.695312 4.851562 23.882812 L 5.496094 23.605469 C 5.417969 23.425781 5.347656 23.246094 5.277344 23.066406 Z M 5.277344 23.066406 " fill-opacity="1" fill-rule="nonzero"/><path fill="#000000" d="M 6.691406 25.808594 L 6.109375 26.195312 C 6.21875 26.367188 6.339844 26.535156 6.457031 26.699219 L 7.023438 26.285156 C 6.910156 26.128906 6.796875 25.96875 6.691406 25.808594 Z M 6.691406 25.808594 " fill-opacity="1" fill-rule="nonzero"/><path fill="#000000" d="M 7.296875 26.640625 L 6.742188 27.074219 C 6.867188 27.234375 7 27.394531 7.128906 27.546875 L 7.664062 27.09375 C 7.539062 26.945312 7.414062 26.792969 7.296875 26.640625 Z M 7.296875 26.640625 " fill-opacity="1" fill-rule="nonzero"/><path fill="#000000" d="M 6.152344 24.929688 L 5.539062 25.273438 C 5.640625 25.449219 5.746094 25.628906 5.851562 25.800781 L 6.449219 25.429688 C 6.347656 25.265625 6.246094 25.097656 6.152344 24.929688 Z M 6.152344 24.929688 " fill-opacity="1" fill-rule="nonzero"/><g clip-path="url(#17bd3bcd8c)"><path fill="#000000" d="M 4.585938 20.507812 L 6.503906 20.507812 C 7.144531 20.507812 7.664062 19.988281 7.664062 19.347656 L 7.664062 14.5 C 7.664062 13.859375 7.144531 13.339844 6.503906 13.339844 L 5.152344 13.339844 L 4.621094 13.136719 C 4.597656 13.203125 4.570312 13.269531 4.546875 13.339844 L 1.648438 13.339844 C 1.007812 13.339844 0.488281 13.859375 0.488281 14.5 L 0.488281 19.347656 C 0.488281 19.988281 1.007812 20.507812 1.648438 20.507812 L 3.875 20.507812 C 3.890625 20.597656 3.902344 20.6875 3.917969 20.773438 L 4.609375 20.648438 C 4.601562 20.601562 4.59375 20.554688 4.585938 20.507812 Z M 1.648438 19.808594 C 1.394531 19.808594 1.1875 19.601562 1.1875 19.347656 L 1.1875 14.5 C 1.1875 14.246094 1.394531 14.039062 1.648438 14.039062 L 6.503906 14.039062 C 6.757812 14.039062 6.964844 14.246094 6.964844 14.5 L 6.964844 14.507812 L 6.945312 14.507812 L 6.945312 15.054688 L 6.964844 15.054688 L 6.964844 18.832031 L 6.945312 18.832031 L 6.945312 19.375 L 6.960938 19.375 C 6.949219 19.617188 6.746094 19.808594 6.503906 19.808594 Z M 1.648438 19.808594 " fill-opacity="1" fill-rule="nonzero"/></g><path fill="#000000" d="M 18.082031 31.898438 C 17.996094 31.898438 17.910156 31.898438 17.828125 31.894531 L 17.816406 32.59375 C 17.902344 32.597656 17.992188 32.597656 18.082031 32.597656 C 18.199219 32.597656 18.316406 32.597656 18.433594 32.59375 L 18.417969 31.894531 C 18.304688 31.894531 18.191406 31.898438 18.082031 31.898438 Z M 18.082031 31.898438 " fill-opacity="1" fill-rule="nonzero"/><path fill="#000000" d="M 20.929688 31.601562 L 21.074219 32.285156 C 21.277344 32.242188 21.476562 32.195312 21.675781 32.144531 L 21.503906 31.464844 C 21.3125 31.515625 21.121094 31.558594 20.929688 31.601562 Z M 20.929688 31.601562 " fill-opacity="1" fill-rule="nonzero"/><path fill="#000000" d="M 19.90625 31.777344 L 19.996094 32.472656 C 20.199219 32.445312 20.40625 32.414062 20.609375 32.375 L 20.484375 31.6875 C 20.292969 31.722656 20.097656 31.75 19.90625 31.777344 Z M 19.90625 31.777344 " fill-opacity="1" fill-rule="nonzero"/><path fill="#000000" d="M 15.640625 32.390625 C 15.839844 32.425781 16.046875 32.457031 16.25 32.484375 L 16.339844 31.789062 C 16.144531 31.761719 15.949219 31.734375 15.757812 31.699219 Z M 15.640625 32.390625 " fill-opacity="1" fill-rule="nonzero"/><path fill="#000000" d="M 16.722656 32.535156 C 16.925781 32.554688 17.136719 32.570312 17.339844 32.578125 L 17.375 31.878906 C 17.179688 31.871094 16.984375 31.855469 16.789062 31.835938 Z M 16.722656 32.535156 " fill-opacity="1" fill-rule="nonzero"/><path fill="#000000" d="M 14.570312 32.167969 C 14.769531 32.214844 14.96875 32.261719 15.171875 32.304688 L 15.3125 31.617188 C 15.121094 31.578125 14.929688 31.535156 14.738281 31.488281 Z M 14.570312 32.167969 " fill-opacity="1" fill-rule="nonzero"/><path fill="#000000" d="M 18.867188 31.875 L 18.910156 32.574219 C 19.113281 32.5625 19.320312 32.546875 19.523438 32.527344 L 19.457031 31.828125 C 19.261719 31.847656 19.0625 31.863281 18.867188 31.875 Z M 18.867188 31.875 " fill-opacity="1" fill-rule="nonzero"/><path fill="#000000" d="M 13.519531 31.859375 C 13.714844 31.925781 13.910156 31.988281 14.109375 32.042969 L 14.300781 31.371094 C 14.113281 31.316406 13.925781 31.257812 13.742188 31.195312 Z M 13.519531 31.859375 " fill-opacity="1" fill-rule="nonzero"/><g clip-path="url(#dd8088ce0a)"><path fill="#000000" d="M 13.148438 29.03125 C 13.148438 28.949219 13.117188 28.871094 13.058594 28.8125 L 11.628906 27.386719 C 11.625 27.378906 11.621094 27.375 11.617188 27.371094 C 11.613281 27.371094 11.613281 27.371094 11.613281 27.367188 C 11.605469 27.363281 11.601562 27.359375 11.597656 27.355469 C 11.597656 27.355469 11.597656 27.355469 11.59375 27.355469 C 11.589844 27.351562 11.585938 27.347656 11.578125 27.34375 C 11.578125 27.34375 11.574219 27.34375 11.574219 27.339844 C 11.570312 27.339844 11.5625 27.335938 11.558594 27.332031 C 11.550781 27.328125 11.546875 27.324219 11.539062 27.324219 C 11.539062 27.320312 11.535156 27.320312 11.535156 27.320312 C 11.527344 27.316406 11.523438 27.316406 11.515625 27.3125 C 11.507812 27.3125 11.503906 27.308594 11.496094 27.308594 C 11.496094 27.304688 11.492188 27.304688 11.492188 27.304688 C 11.484375 27.304688 11.480469 27.300781 11.472656 27.300781 C 11.464844 27.300781 11.460938 27.296875 11.453125 27.296875 C 11.449219 27.296875 11.449219 27.296875 11.449219 27.296875 C 11.441406 27.296875 11.4375 27.296875 11.429688 27.296875 C 11.429688 27.296875 11.429688 27.296875 11.425781 27.296875 C 11.421875 27.292969 11.417969 27.292969 11.410156 27.292969 L 7.761719 27.292969 C 7.589844 27.292969 7.453125 27.433594 7.453125 27.605469 L 7.453125 27.894531 L 7.441406 27.902344 C 7.445312 27.902344 7.449219 27.90625 7.453125 27.910156 L 7.453125 33.964844 C 7.453125 34.136719 7.589844 34.277344 7.761719 34.277344 L 12.839844 34.277344 C 13.011719 34.277344 13.148438 34.136719 13.148438 33.964844 L 13.148438 31.492188 L 13.3125 31.046875 C 13.257812 31.023438 13.203125 31.003906 13.148438 30.980469 Z M 11.71875 28.355469 L 12.019531 28.660156 L 11.71875 28.660156 Z M 12.527344 33.65625 L 8.070312 33.65625 L 8.070312 27.914062 L 11.101562 27.914062 L 11.101562 28.96875 C 11.101562 29.140625 11.238281 29.277344 11.410156 29.277344 L 12.527344 29.277344 Z M 12.527344 33.65625 " fill-opacity="1" fill-rule="nonzero"/></g><path fill="#000000" d="M 30.789062 23.316406 L 31.4375 23.578125 C 31.515625 23.382812 31.589844 23.183594 31.660156 22.984375 L 31 22.753906 C 30.933594 22.941406 30.863281 23.132812 30.789062 23.316406 Z M 30.789062 23.316406 " fill-opacity="1" fill-rule="nonzero"/><path fill="#000000" d="M 29.84375 25.21875 L 30.445312 25.578125 C 30.554688 25.398438 30.65625 25.214844 30.757812 25.03125 L 30.140625 24.699219 C 30.046875 24.871094 29.945312 25.050781 29.84375 25.21875 Z M 29.84375 25.21875 " fill-opacity="1" fill-rule="nonzero"/><path fill="#000000" d="M 30.351562 24.285156 L 30.980469 24.597656 C 31.074219 24.410156 31.164062 24.21875 31.25 24.023438 L 30.609375 23.742188 C 30.527344 23.925781 30.441406 24.109375 30.351562 24.285156 Z M 30.351562 24.285156 " fill-opacity="1" fill-rule="nonzero"/><path fill="#000000" d="M 31.144531 22.316406 L 31.8125 22.523438 C 31.875 22.324219 31.9375 22.121094 31.988281 21.917969 L 31.3125 21.738281 C 31.261719 21.929688 31.203125 22.125 31.144531 22.316406 Z M 31.144531 22.316406 " fill-opacity="1" fill-rule="nonzero"/><path fill="#000000" d="M 32.234375 20.824219 L 31.542969 20.699219 C 31.507812 20.894531 31.46875 21.09375 31.421875 21.289062 L 32.105469 21.445312 C 32.152344 21.238281 32.195312 21.03125 32.234375 20.824219 Z M 32.234375 20.824219 " fill-opacity="1" fill-rule="nonzero"/><path fill="#000000" d="M 29.261719 26.113281 L 29.835938 26.515625 C 29.957031 26.34375 30.074219 26.167969 30.1875 25.992188 L 29.597656 25.613281 C 29.492188 25.78125 29.378906 25.949219 29.261719 26.113281 Z M 29.261719 26.113281 " fill-opacity="1" fill-rule="nonzero"/><path fill="#000000" d="M 28.613281 26.957031 L 29.152344 27.402344 C 29.289062 27.242188 29.421875 27.074219 29.546875 26.910156 L 28.988281 26.484375 C 28.867188 26.644531 28.742188 26.800781 28.613281 26.957031 Z M 28.613281 26.957031 " fill-opacity="1" fill-rule="nonzero"/><path fill="#000000" d="M 27.902344 27.746094 L 28.40625 28.234375 C 28.550781 28.085938 28.699219 27.929688 28.835938 27.773438 L 28.3125 27.304688 C 28.179688 27.457031 28.042969 27.601562 27.902344 27.746094 Z M 27.902344 27.746094 " fill-opacity="1" fill-rule="nonzero"/><path fill="#000000" d="M 25.488281 5.898438 C 25.402344 5.847656 25.3125 5.796875 25.226562 5.746094 L 24.875 6.355469 C 24.960938 6.402344 25.042969 6.453125 25.125 6.5 Z M 25.488281 5.898438 " fill-opacity="1" fill-rule="nonzero"/><path fill="#000000" d="M 29.691406 10.984375 L 30.285156 10.613281 C 30.175781 10.433594 30.054688 10.253906 29.933594 10.078125 L 29.359375 10.476562 C 29.472656 10.640625 29.585938 10.8125 29.691406 10.984375 Z M 29.691406 10.984375 " fill-opacity="1" fill-rule="nonzero"/><path fill="#000000" d="M 30.226562 11.917969 L 30.847656 11.59375 C 30.75 11.40625 30.648438 11.214844 30.539062 11.03125 L 29.933594 11.382812 C 30.035156 11.558594 30.132812 11.738281 30.226562 11.917969 Z M 30.226562 11.917969 " fill-opacity="1" fill-rule="nonzero"/><path fill="#000000" d="M 29.085938 10.09375 L 29.648438 9.675781 C 29.523438 9.507812 29.390625 9.335938 29.257812 9.171875 L 28.710938 9.613281 C 28.839844 9.769531 28.964844 9.933594 29.085938 10.09375 Z M 29.085938 10.09375 " fill-opacity="1" fill-rule="nonzero"/><path fill="#000000" d="M 30.6875 12.886719 L 31.332031 12.613281 C 31.25 12.417969 31.160156 12.222656 31.066406 12.03125 L 30.433594 12.335938 C 30.523438 12.515625 30.605469 12.703125 30.6875 12.886719 Z M 30.6875 12.886719 " fill-opacity="1" fill-rule="nonzero"/><path fill="#000000" d="M 26.875 7.75 L 27.328125 7.214844 C 27.164062 7.078125 26.996094 6.941406 26.828125 6.8125 L 26.402344 7.367188 C 26.5625 7.492188 26.722656 7.621094 26.875 7.75 Z M 26.875 7.75 " fill-opacity="1" fill-rule="nonzero"/><path fill="#000000" d="M 27.671875 8.472656 L 28.164062 7.972656 C 28.015625 7.824219 27.855469 7.675781 27.699219 7.535156 L 27.230469 8.054688 C 27.378906 8.191406 27.53125 8.332031 27.671875 8.472656 Z M 27.671875 8.472656 " fill-opacity="1" fill-rule="nonzero"/><path fill="#000000" d="M 26.433594 6.519531 C 26.261719 6.398438 26.082031 6.277344 25.90625 6.160156 L 25.523438 6.75 C 25.691406 6.859375 25.863281 6.972656 26.027344 7.089844 Z M 26.433594 6.519531 " fill-opacity="1" fill-rule="nonzero"/><path fill="#000000" d="M 28.410156 9.257812 L 28.941406 8.796875 C 28.800781 8.636719 28.65625 8.476562 28.511719 8.324219 L 28 8.804688 C 28.140625 8.953125 28.277344 9.105469 28.410156 9.257812 Z M 28.410156 9.257812 " fill-opacity="1" fill-rule="nonzero"/><path fill="#000000" d="M 21.832031 16.316406 C 21.929688 16.226562 21.960938 16.082031 21.910156 15.957031 L 21.589844 15.183594 C 21.539062 15.058594 21.414062 14.980469 21.277344 14.988281 L 20.421875 15.03125 L 20.152344 14.765625 L 20.195312 13.90625 C 20.203125 13.769531 20.125 13.648438 20 13.59375 L 19.222656 13.273438 C 19.097656 13.222656 18.957031 13.253906 18.867188 13.355469 L 18.289062 13.992188 L 17.910156 13.992188 L 17.335938 13.355469 C 17.242188 13.253906 17.101562 13.222656 16.976562 13.273438 L 16.199219 13.59375 C 16.074219 13.648438 15.996094 13.769531 16.003906 13.90625 L 16.046875 14.765625 L 15.78125 15.03125 L 14.921875 14.988281 C 14.785156 14.980469 14.660156 15.058594 14.609375 15.183594 L 14.289062 15.957031 C 14.238281 16.082031 14.269531 16.226562 14.371094 16.316406 L 15.007812 16.894531 L 15.007812 17.269531 L 14.371094 17.847656 C 14.269531 17.9375 14.238281 18.082031 14.289062 18.203125 L 14.609375 18.980469 C 14.660156 19.105469 14.785156 19.183594 14.921875 19.175781 L 15.78125 19.132812 L 16.046875 19.398438 L 16.003906 20.257812 C 15.996094 20.390625 16.074219 20.515625 16.199219 20.566406 L 16.976562 20.890625 C 17.101562 20.941406 17.242188 20.910156 17.335938 20.808594 L 17.910156 20.171875 L 18.289062 20.171875 L 18.867188 20.808594 C 18.925781 20.875 19.011719 20.914062 19.101562 20.914062 C 19.144531 20.914062 19.183594 20.90625 19.222656 20.890625 L 20 20.566406 C 20.125 20.515625 20.203125 20.390625 20.195312 20.257812 L 20.152344 19.398438 L 20.421875 19.132812 L 21.277344 19.175781 C 21.414062 19.183594 21.539062 19.105469 21.589844 18.980469 L 21.910156 18.203125 C 21.960938 18.082031 21.929688 17.9375 21.832031 17.847656 L 21.191406 17.269531 L 21.191406 16.894531 Z M 20.660156 17.648438 L 21.234375 18.167969 L 21.085938 18.527344 L 20.3125 18.488281 C 20.222656 18.484375 20.132812 18.519531 20.070312 18.582031 L 19.601562 19.050781 C 19.539062 19.113281 19.503906 19.199219 19.507812 19.292969 L 19.546875 20.066406 L 19.1875 20.214844 L 18.667969 19.640625 C 18.605469 19.574219 18.519531 19.535156 18.429688 19.535156 L 17.769531 19.535156 C 17.679688 19.535156 17.59375 19.574219 17.53125 19.640625 L 17.011719 20.214844 L 16.652344 20.066406 L 16.691406 19.292969 C 16.695312 19.199219 16.660156 19.113281 16.597656 19.050781 L 16.128906 18.582031 C 16.066406 18.519531 15.976562 18.484375 15.886719 18.488281 L 15.113281 18.527344 L 14.964844 18.167969 L 15.539062 17.648438 C 15.605469 17.589844 15.644531 17.503906 15.644531 17.414062 L 15.644531 16.75 C 15.644531 16.660156 15.605469 16.574219 15.539062 16.515625 L 14.964844 15.996094 L 15.113281 15.636719 L 15.886719 15.675781 C 15.976562 15.679688 16.066406 15.644531 16.128906 15.582031 L 16.597656 15.113281 C 16.660156 15.050781 16.695312 14.960938 16.691406 14.871094 L 16.652344 14.097656 L 17.011719 13.949219 L 17.53125 14.523438 C 17.59375 14.589844 17.679688 14.628906 17.769531 14.628906 L 18.429688 14.628906 C 18.519531 14.628906 18.605469 14.589844 18.667969 14.523438 L 19.1875 13.949219 L 19.546875 14.097656 L 19.507812 14.871094 C 19.503906 14.960938 19.539062 15.050781 19.601562 15.113281 L 20.070312 15.582031 C 20.132812 15.644531 20.222656 15.679688 20.3125 15.675781 L 21.085938 15.636719 L 21.234375 15.996094 L 20.660156 16.515625 C 20.59375 16.574219 20.554688 16.660156 20.554688 16.75 L 20.554688 17.414062 C 20.554688 17.503906 20.59375 17.589844 20.660156 17.648438 Z M 20.660156 17.648438 " fill-opacity="1" fill-rule="nonzero"/><path fill="#000000" d="M 18.101562 15.328125 C 17.132812 15.328125 16.34375 16.117188 16.34375 17.082031 C 16.34375 18.046875 17.132812 18.835938 18.101562 18.835938 C 19.066406 18.835938 19.855469 18.046875 19.855469 17.082031 C 19.855469 16.117188 19.066406 15.328125 18.101562 15.328125 Z M 18.101562 18.199219 C 17.484375 18.199219 16.984375 17.699219 16.984375 17.082031 C 16.984375 16.464844 17.484375 15.964844 18.101562 15.964844 C 18.714844 15.964844 19.214844 16.464844 19.214844 17.082031 C 19.214844 17.699219 18.714844 18.199219 18.101562 18.199219 Z M 18.101562 18.199219 " fill-opacity="1" fill-rule="nonzero"/></svg>