<svg xmlns="http://www.w3.org/2000/svg" xmlns:xlink="http://www.w3.org/1999/xlink" width="1080" zoomAndPan="magnify" viewBox="0 0 810 809.999993" height="1080" preserveAspectRatio="xMidYMid meet" version="1.2"><defs><clipPath id="282d38e24e"><path d="M 353 216 L 417 216 L 417 280 L 353 280 Z M 353 216 "/></clipPath><clipPath id="0a95fb1d3f"><path d="M 416.046875 248.28125 C 416.046875 249.308594 415.996094 250.328125 415.898438 251.347656 C 415.796875 252.371094 415.644531 253.382812 415.445312 254.386719 C 415.246094 255.390625 414.996094 256.386719 414.699219 257.367188 C 414.402344 258.347656 414.058594 259.308594 413.664062 260.257812 C 413.273438 261.203125 412.835938 262.128906 412.351562 263.03125 C 411.871094 263.9375 411.34375 264.816406 410.773438 265.667969 C 410.203125 266.519531 409.59375 267.339844 408.945312 268.132812 C 408.292969 268.925781 407.609375 269.683594 406.882812 270.410156 C 406.15625 271.132812 405.398438 271.820312 404.609375 272.46875 C 403.816406 273.121094 402.992188 273.730469 402.140625 274.300781 C 401.289062 274.871094 400.410156 275.394531 399.507812 275.878906 C 398.601562 276.363281 397.679688 276.800781 396.730469 277.191406 C 395.785156 277.582031 394.820312 277.929688 393.839844 278.226562 C 392.859375 278.523438 391.867188 278.773438 390.863281 278.972656 C 389.855469 279.171875 388.84375 279.320312 387.824219 279.421875 C 386.804688 279.523438 385.78125 279.574219 384.757812 279.574219 C 383.730469 279.574219 382.710938 279.523438 381.691406 279.421875 C 380.671875 279.320312 379.65625 279.171875 378.652344 278.972656 C 377.648438 278.773438 376.65625 278.523438 375.671875 278.226562 C 374.691406 277.929688 373.730469 277.582031 372.78125 277.191406 C 371.835938 276.800781 370.910156 276.363281 370.007812 275.878906 C 369.101562 275.394531 368.226562 274.871094 367.371094 274.300781 C 366.519531 273.730469 365.699219 273.121094 364.90625 272.46875 C 364.113281 271.820312 363.355469 271.132812 362.632812 270.410156 C 361.90625 269.683594 361.21875 268.925781 360.570312 268.132812 C 359.917969 267.339844 359.308594 266.519531 358.738281 265.667969 C 358.171875 264.816406 357.644531 263.9375 357.160156 263.03125 C 356.679688 262.128906 356.242188 261.203125 355.847656 260.257812 C 355.457031 259.308594 355.109375 258.347656 354.8125 257.367188 C 354.515625 256.386719 354.265625 255.390625 354.066406 254.386719 C 353.867188 253.382812 353.71875 252.371094 353.617188 251.347656 C 353.515625 250.328125 353.464844 249.308594 353.464844 248.28125 C 353.464844 247.257812 353.515625 246.234375 353.617188 245.214844 C 353.71875 244.195312 353.867188 243.183594 354.066406 242.179688 C 354.265625 241.171875 354.515625 240.179688 354.8125 239.199219 C 355.109375 238.21875 355.457031 237.253906 355.847656 236.308594 C 356.242188 235.363281 356.679688 234.4375 357.160156 233.53125 C 357.644531 232.628906 358.171875 231.75 358.738281 230.898438 C 359.308594 230.046875 359.917969 229.222656 360.570312 228.433594 C 361.21875 227.640625 361.90625 226.882812 362.632812 226.15625 C 363.355469 225.433594 364.113281 224.746094 364.90625 224.09375 C 365.699219 223.445312 366.519531 222.835938 367.371094 222.265625 C 368.226562 221.695312 369.101562 221.167969 370.007812 220.6875 C 370.910156 220.203125 371.835938 219.765625 372.78125 219.375 C 373.730469 218.980469 374.691406 218.636719 375.671875 218.339844 C 376.65625 218.042969 377.648438 217.792969 378.652344 217.59375 C 379.65625 217.394531 380.671875 217.242188 381.691406 217.144531 C 382.710938 217.042969 383.730469 216.992188 384.757812 216.992188 C 385.78125 216.992188 386.804688 217.042969 387.824219 217.144531 C 388.84375 217.242188 389.855469 217.394531 390.863281 217.59375 C 391.867188 217.792969 392.859375 218.042969 393.839844 218.339844 C 394.820312 218.636719 395.785156 218.980469 396.730469 219.375 C 397.679688 219.765625 398.601562 220.203125 399.507812 220.6875 C 400.410156 221.167969 401.289062 221.695312 402.140625 222.265625 C 402.992188 222.835938 403.816406 223.445312 404.609375 224.09375 C 405.398438 224.746094 406.15625 225.433594 406.882812 226.15625 C 407.609375 226.882812 408.292969 227.640625 408.945312 228.433594 C 409.59375 229.222656 410.203125 230.046875 410.773438 230.898438 C 411.34375 231.75 411.871094 232.628906 412.351562 233.53125 C 412.835938 234.4375 413.273438 235.363281 413.664062 236.308594 C 414.058594 237.253906 414.402344 238.21875 414.699219 239.199219 C 414.996094 240.179688 415.246094 241.171875 415.445312 242.179688 C 415.644531 243.183594 415.796875 244.195312 415.898438 245.214844 C 415.996094 246.234375 416.046875 247.257812 416.046875 248.28125 Z M 416.046875 248.28125 "/></clipPath><linearGradient x1="107.746769" gradientTransform="matrix(3.521739,0,0,3.521739,0.0000035,0.00002)" y1="58.282095" x2="117.423025" gradientUnits="userSpaceOnUse" y2="79.70744" id="8a4160bf2a"><stop style="stop-color:#d0f9ff;stop-opacity:1;" offset="0"/><stop style="stop-color:#d0f9ff;stop-opacity:1;" offset="0.125"/><stop style="stop-color:#d0f9ff;stop-opacity:1;" offset="0.15625"/><stop style="stop-color:#d0f9ff;stop-opacity:1;" offset="0.164062"/><stop style="stop-color:#d0f9fe;stop-opacity:1;" offset="0.171875"/><stop style="stop-color:#d0f9fd;stop-opacity:1;" offset="0.179687"/><stop style="stop-color:#d1f9fc;stop-opacity:1;" offset="0.1875"/><stop style="stop-color:#d1f9fb;stop-opacity:1;" offset="0.195312"/><stop style="stop-color:#d1f9fa;stop-opacity:1;" offset="0.203125"/><stop style="stop-color:#d1f9fa;stop-opacity:1;" offset="0.210937"/><stop style="stop-color:#d1f9f9;stop-opacity:1;" offset="0.21875"/><stop style="stop-color:#d1f8f8;stop-opacity:1;" offset="0.226562"/><stop style="stop-color:#d1f8f7;stop-opacity:1;" offset="0.234375"/><stop style="stop-color:#d2f8f6;stop-opacity:1;" offset="0.242187"/><stop style="stop-color:#d2f8f6;stop-opacity:1;" offset="0.25"/><stop style="stop-color:#d2f8f5;stop-opacity:1;" offset="0.257812"/><stop style="stop-color:#d2f8f4;stop-opacity:1;" offset="0.265625"/><stop style="stop-color:#d2f8f3;stop-opacity:1;" offset="0.273438"/><stop style="stop-color:#d2f8f2;stop-opacity:1;" offset="0.28125"/><stop style="stop-color:#d2f8f2;stop-opacity:1;" offset="0.289062"/><stop style="stop-color:#d3f8f1;stop-opacity:1;" offset="0.296875"/><stop style="stop-color:#d3f8f0;stop-opacity:1;" offset="0.304688"/><stop style="stop-color:#d3f8ef;stop-opacity:1;" offset="0.311118"/><stop style="stop-color:#d3f8ef;stop-opacity:1;" offset="0.3125"/><stop style="stop-color:#d3f8ee;stop-opacity:1;" offset="0.320312"/><stop style="stop-color:#d3f8ed;stop-opacity:1;" offset="0.328125"/><stop style="stop-color:#d3f8ed;stop-opacity:1;" offset="0.335938"/><stop style="stop-color:#d3f8ec;stop-opacity:1;" offset="0.34375"/><stop style="stop-color:#d4f8eb;stop-opacity:1;" offset="0.351562"/><stop style="stop-color:#d4f8ea;stop-opacity:1;" offset="0.359375"/><stop style="stop-color:#d4f8e9;stop-opacity:1;" offset="0.367188"/><stop style="stop-color:#d4f8e9;stop-opacity:1;" offset="0.375"/><stop style="stop-color:#d4f7e8;stop-opacity:1;" offset="0.382812"/><stop style="stop-color:#d4f7e7;stop-opacity:1;" offset="0.390625"/><stop style="stop-color:#d4f7e6;stop-opacity:1;" offset="0.398438"/><stop style="stop-color:#d5f7e5;stop-opacity:1;" offset="0.40625"/><stop style="stop-color:#d5f7e4;stop-opacity:1;" offset="0.414062"/><stop style="stop-color:#d5f7e4;stop-opacity:1;" offset="0.421875"/><stop style="stop-color:#d5f7e3;stop-opacity:1;" offset="0.429688"/><stop style="stop-color:#d5f7e2;stop-opacity:1;" offset="0.4375"/><stop style="stop-color:#d5f7e1;stop-opacity:1;" offset="0.445312"/><stop style="stop-color:#d5f7e0;stop-opacity:1;" offset="0.453125"/><stop style="stop-color:#d6f7e0;stop-opacity:1;" offset="0.460938"/><stop style="stop-color:#d6f7df;stop-opacity:1;" offset="0.46875"/><stop style="stop-color:#d6f7de;stop-opacity:1;" offset="0.476562"/><stop style="stop-color:#d6f7dd;stop-opacity:1;" offset="0.484375"/><stop style="stop-color:#d6f7dc;stop-opacity:1;" offset="0.492188"/><stop style="stop-color:#d6f7dc;stop-opacity:1;" offset="0.5"/><stop style="stop-color:#d6f7db;stop-opacity:1;" offset="0.507812"/><stop style="stop-color:#d6f7da;stop-opacity:1;" offset="0.515625"/><stop style="stop-color:#d7f7d9;stop-opacity:1;" offset="0.523437"/><stop style="stop-color:#d7f7d8;stop-opacity:1;" offset="0.53125"/><stop style="stop-color:#d7f7d7;stop-opacity:1;" offset="0.539062"/><stop style="stop-color:#d7f6d7;stop-opacity:1;" offset="0.546875"/><stop style="stop-color:#d7f6d6;stop-opacity:1;" offset="0.554687"/><stop style="stop-color:#d7f6d5;stop-opacity:1;" offset="0.5625"/><stop style="stop-color:#d7f6d4;stop-opacity:1;" offset="0.570312"/><stop style="stop-color:#d8f6d3;stop-opacity:1;" offset="0.578125"/><stop style="stop-color:#d8f6d3;stop-opacity:1;" offset="0.585938"/><stop style="stop-color:#d8f6d2;stop-opacity:1;" offset="0.59375"/><stop style="stop-color:#d8f6d1;stop-opacity:1;" offset="0.601562"/><stop style="stop-color:#d8f6d0;stop-opacity:1;" offset="0.609375"/><stop style="stop-color:#d8f6cf;stop-opacity:1;" offset="0.617187"/><stop style="stop-color:#d8f6cf;stop-opacity:1;" offset="0.625"/><stop style="stop-color:#d9f6ce;stop-opacity:1;" offset="0.632812"/><stop style="stop-color:#d9f6cd;stop-opacity:1;" offset="0.640625"/><stop style="stop-color:#d9f6cc;stop-opacity:1;" offset="0.648438"/><stop style="stop-color:#d9f6cb;stop-opacity:1;" offset="0.65625"/><stop style="stop-color:#d9f6ca;stop-opacity:1;" offset="0.664062"/><stop style="stop-color:#d9f6ca;stop-opacity:1;" offset="0.671875"/><stop style="stop-color:#d9f6c9;stop-opacity:1;" offset="0.679687"/><stop style="stop-color:#daf6c8;stop-opacity:1;" offset="0.6875"/><stop style="stop-color:#daf6c7;stop-opacity:1;" offset="0.688882"/><stop style="stop-color:#daf6c7;stop-opacity:1;" offset="0.695312"/><stop style="stop-color:#daf5c6;stop-opacity:1;" offset="0.703125"/><stop style="stop-color:#daf5c6;stop-opacity:1;" offset="0.710938"/><stop style="stop-color:#daf5c5;stop-opacity:1;" offset="0.71875"/><stop style="stop-color:#daf5c4;stop-opacity:1;" offset="0.726562"/><stop style="stop-color:#daf5c3;stop-opacity:1;" offset="0.734375"/><stop style="stop-color:#dbf5c2;stop-opacity:1;" offset="0.742187"/><stop style="stop-color:#dbf5c2;stop-opacity:1;" offset="0.75"/><stop style="stop-color:#dbf5c1;stop-opacity:1;" offset="0.757812"/><stop style="stop-color:#dbf5c0;stop-opacity:1;" offset="0.765625"/><stop style="stop-color:#dbf5bf;stop-opacity:1;" offset="0.773438"/><stop style="stop-color:#dbf5be;stop-opacity:1;" offset="0.78125"/><stop style="stop-color:#dbf5bd;stop-opacity:1;" offset="0.789062"/><stop style="stop-color:#dcf5bd;stop-opacity:1;" offset="0.796875"/><stop style="stop-color:#dcf5bc;stop-opacity:1;" offset="0.804687"/><stop style="stop-color:#dcf5bb;stop-opacity:1;" offset="0.8125"/><stop style="stop-color:#dcf5ba;stop-opacity:1;" offset="0.820312"/><stop style="stop-color:#dcf5b9;stop-opacity:1;" offset="0.828125"/><stop style="stop-color:#dcf5b9;stop-opacity:1;" offset="0.835937"/><stop style="stop-color:#dcf5b8;stop-opacity:1;" offset="0.84375"/><stop style="stop-color:#ddf5b7;stop-opacity:1;" offset="0.851562"/><stop style="stop-color:#ddf5b6;stop-opacity:1;" offset="0.859375"/><stop style="stop-color:#ddf4b5;stop-opacity:1;" offset="0.867188"/><stop style="stop-color:#ddf4b5;stop-opacity:1;" offset="0.875"/><stop style="stop-color:#ddf4b4;stop-opacity:1;" offset="0.882812"/><stop style="stop-color:#ddf4b3;stop-opacity:1;" offset="0.890625"/><stop style="stop-color:#ddf4b2;stop-opacity:1;" offset="0.898438"/><stop style="stop-color:#def4b1;stop-opacity:1;" offset="0.90625"/><stop style="stop-color:#def4b0;stop-opacity:1;" offset="0.914062"/><stop style="stop-color:#def4b0;stop-opacity:1;" offset="0.921875"/><stop style="stop-color:#def4af;stop-opacity:1;" offset="0.929687"/><stop style="stop-color:#def4ae;stop-opacity:1;" offset="0.9375"/><stop style="stop-color:#def4ae;stop-opacity:1;" offset="1"/></linearGradient><clipPath id="77f6adf7f7"><path d="M 501 216 L 564 216 L 564 280 L 501 280 Z M 501 216 "/></clipPath><clipPath id="5bf2411455"><path d="M 563.960938 248.28125 C 563.960938 249.308594 563.910156 250.328125 563.808594 251.347656 C 563.710938 252.371094 563.558594 253.382812 563.359375 254.386719 C 563.160156 255.390625 562.910156 256.386719 562.613281 257.367188 C 562.316406 258.347656 561.972656 259.308594 561.578125 260.257812 C 561.1875 261.203125 560.75 262.128906 560.265625 263.03125 C 559.78125 263.9375 559.257812 264.816406 558.6875 265.667969 C 558.117188 266.519531 557.507812 267.339844 556.859375 268.132812 C 556.207031 268.925781 555.519531 269.683594 554.796875 270.410156 C 554.070312 271.132812 553.3125 271.820312 552.519531 272.46875 C 551.726562 273.121094 550.90625 273.730469 550.054688 274.300781 C 549.203125 274.871094 548.324219 275.394531 547.421875 275.878906 C 546.515625 276.363281 545.589844 276.800781 544.644531 277.191406 C 543.699219 277.582031 542.734375 277.929688 541.753906 278.226562 C 540.773438 278.523438 539.78125 278.773438 538.773438 278.972656 C 537.769531 279.171875 536.757812 279.320312 535.738281 279.421875 C 534.71875 279.523438 533.695312 279.574219 532.671875 279.574219 C 531.644531 279.574219 530.621094 279.523438 529.601562 279.421875 C 528.582031 279.320312 527.570312 279.171875 526.566406 278.972656 C 525.558594 278.773438 524.566406 278.523438 523.585938 278.226562 C 522.605469 277.929688 521.640625 277.582031 520.695312 277.191406 C 519.75 276.800781 518.824219 276.363281 517.917969 275.878906 C 517.015625 275.394531 516.136719 274.871094 515.285156 274.300781 C 514.433594 273.730469 513.613281 273.121094 512.820312 272.46875 C 512.027344 271.820312 511.269531 271.132812 510.542969 270.410156 C 509.820312 269.683594 509.132812 268.925781 508.480469 268.132812 C 507.832031 267.339844 507.222656 266.519531 506.652344 265.667969 C 506.082031 264.816406 505.558594 263.9375 505.074219 263.03125 C 504.589844 262.128906 504.152344 261.203125 503.761719 260.257812 C 503.367188 259.308594 503.023438 258.347656 502.726562 257.367188 C 502.429688 256.386719 502.179688 255.390625 501.980469 254.386719 C 501.78125 253.382812 501.628906 252.371094 501.53125 251.347656 C 501.429688 250.328125 501.378906 249.308594 501.378906 248.28125 C 501.378906 247.257812 501.429688 246.234375 501.53125 245.214844 C 501.628906 244.195312 501.78125 243.183594 501.980469 242.179688 C 502.179688 241.171875 502.429688 240.179688 502.726562 239.199219 C 503.023438 238.21875 503.367188 237.253906 503.761719 236.308594 C 504.152344 235.363281 504.589844 234.4375 505.074219 233.53125 C 505.558594 232.628906 506.082031 231.75 506.652344 230.898438 C 507.222656 230.046875 507.832031 229.222656 508.480469 228.433594 C 509.132812 227.640625 509.820312 226.882812 510.542969 226.15625 C 511.269531 225.433594 512.027344 224.746094 512.820312 224.09375 C 513.613281 223.445312 514.433594 222.835938 515.285156 222.265625 C 516.136719 221.695312 517.015625 221.167969 517.917969 220.6875 C 518.824219 220.203125 519.75 219.765625 520.695312 219.375 C 521.640625 218.980469 522.605469 218.636719 523.585938 218.339844 C 524.566406 218.042969 525.558594 217.792969 526.566406 217.59375 C 527.570312 217.394531 528.582031 217.242188 529.601562 217.144531 C 530.621094 217.042969 531.644531 216.992188 532.671875 216.992188 C 533.695312 216.992188 534.71875 217.042969 535.738281 217.144531 C 536.757812 217.242188 537.769531 217.394531 538.773438 217.59375 C 539.78125 217.792969 540.773438 218.042969 541.753906 218.339844 C 542.734375 218.636719 543.699219 218.980469 544.644531 219.375 C 545.589844 219.765625 546.515625 220.203125 547.421875 220.6875 C 548.324219 221.167969 549.203125 221.695312 550.054688 222.265625 C 550.90625 222.835938 551.726562 223.445312 552.519531 224.09375 C 553.3125 224.746094 554.070312 225.433594 554.796875 226.15625 C 555.519531 226.882812 556.207031 227.640625 556.859375 228.433594 C 557.507812 229.222656 558.117188 230.046875 558.6875 230.898438 C 559.257812 231.75 559.78125 232.628906 560.265625 233.53125 C 560.75 234.4375 561.1875 235.363281 561.578125 236.308594 C 561.972656 237.253906 562.316406 238.21875 562.613281 239.199219 C 562.910156 240.179688 563.160156 241.171875 563.359375 242.179688 C 563.558594 243.183594 563.710938 244.195312 563.808594 245.214844 C 563.910156 246.234375 563.960938 247.257812 563.960938 248.28125 Z M 563.960938 248.28125 "/></clipPath><linearGradient x1="149.746771" gradientTransform="matrix(3.521739,0,0,3.521739,0.0000035,0.00002)" y1="58.282097" x2="159.42303" gradientUnits="userSpaceOnUse" y2="79.707451" id="09df7d21a3"><stop style="stop-color:#d0f9ff;stop-opacity:1;" offset="0"/><stop style="stop-color:#d0f9ff;stop-opacity:1;" offset="0.125"/><stop style="stop-color:#d0f9ff;stop-opacity:1;" offset="0.15625"/><stop style="stop-color:#d0f9ff;stop-opacity:1;" offset="0.164062"/><stop style="stop-color:#d0f9fe;stop-opacity:1;" offset="0.171875"/><stop style="stop-color:#d0f9fd;stop-opacity:1;" offset="0.179688"/><stop style="stop-color:#d1f9fc;stop-opacity:1;" offset="0.1875"/><stop style="stop-color:#d1f9fb;stop-opacity:1;" offset="0.195312"/><stop style="stop-color:#d1f9fa;stop-opacity:1;" offset="0.203125"/><stop style="stop-color:#d1f9fa;stop-opacity:1;" offset="0.210938"/><stop style="stop-color:#d1f9f9;stop-opacity:1;" offset="0.21875"/><stop style="stop-color:#d1f8f8;stop-opacity:1;" offset="0.226562"/><stop style="stop-color:#d1f8f7;stop-opacity:1;" offset="0.234375"/><stop style="stop-color:#d2f8f6;stop-opacity:1;" offset="0.242188"/><stop style="stop-color:#d2f8f6;stop-opacity:1;" offset="0.25"/><stop style="stop-color:#d2f8f5;stop-opacity:1;" offset="0.257812"/><stop style="stop-color:#d2f8f4;stop-opacity:1;" offset="0.265625"/><stop style="stop-color:#d2f8f3;stop-opacity:1;" offset="0.273438"/><stop style="stop-color:#d2f8f2;stop-opacity:1;" offset="0.28125"/><stop style="stop-color:#d2f8f2;stop-opacity:1;" offset="0.289062"/><stop style="stop-color:#d3f8f1;stop-opacity:1;" offset="0.296875"/><stop style="stop-color:#d3f8f0;stop-opacity:1;" offset="0.304688"/><stop style="stop-color:#d3f8ef;stop-opacity:1;" offset="0.311118"/><stop style="stop-color:#d3f8ef;stop-opacity:1;" offset="0.3125"/><stop style="stop-color:#d3f8ee;stop-opacity:1;" offset="0.320312"/><stop style="stop-color:#d3f8ed;stop-opacity:1;" offset="0.328125"/><stop style="stop-color:#d3f8ed;stop-opacity:1;" offset="0.335938"/><stop style="stop-color:#d3f8ec;stop-opacity:1;" offset="0.34375"/><stop style="stop-color:#d4f8eb;stop-opacity:1;" offset="0.351562"/><stop style="stop-color:#d4f8ea;stop-opacity:1;" offset="0.359375"/><stop style="stop-color:#d4f8e9;stop-opacity:1;" offset="0.367188"/><stop style="stop-color:#d4f8e9;stop-opacity:1;" offset="0.375"/><stop style="stop-color:#d4f7e8;stop-opacity:1;" offset="0.382812"/><stop style="stop-color:#d4f7e7;stop-opacity:1;" offset="0.390625"/><stop style="stop-color:#d4f7e6;stop-opacity:1;" offset="0.398438"/><stop style="stop-color:#d5f7e5;stop-opacity:1;" offset="0.40625"/><stop style="stop-color:#d5f7e4;stop-opacity:1;" offset="0.414063"/><stop style="stop-color:#d5f7e4;stop-opacity:1;" offset="0.421875"/><stop style="stop-color:#d5f7e3;stop-opacity:1;" offset="0.429688"/><stop style="stop-color:#d5f7e2;stop-opacity:1;" offset="0.4375"/><stop style="stop-color:#d5f7e1;stop-opacity:1;" offset="0.445313"/><stop style="stop-color:#d5f7e0;stop-opacity:1;" offset="0.453125"/><stop style="stop-color:#d6f7e0;stop-opacity:1;" offset="0.460938"/><stop style="stop-color:#d6f7df;stop-opacity:1;" offset="0.46875"/><stop style="stop-color:#d6f7de;stop-opacity:1;" offset="0.476563"/><stop style="stop-color:#d6f7dd;stop-opacity:1;" offset="0.484375"/><stop style="stop-color:#d6f7dc;stop-opacity:1;" offset="0.492187"/><stop style="stop-color:#d6f7dc;stop-opacity:1;" offset="0.5"/><stop style="stop-color:#d6f7db;stop-opacity:1;" offset="0.507812"/><stop style="stop-color:#d6f7da;stop-opacity:1;" offset="0.515625"/><stop style="stop-color:#d7f7d9;stop-opacity:1;" offset="0.523438"/><stop style="stop-color:#d7f7d8;stop-opacity:1;" offset="0.53125"/><stop style="stop-color:#d7f7d7;stop-opacity:1;" offset="0.539062"/><stop style="stop-color:#d7f6d7;stop-opacity:1;" offset="0.546875"/><stop style="stop-color:#d7f6d6;stop-opacity:1;" offset="0.554688"/><stop style="stop-color:#d7f6d5;stop-opacity:1;" offset="0.5625"/><stop style="stop-color:#d7f6d4;stop-opacity:1;" offset="0.570312"/><stop style="stop-color:#d8f6d3;stop-opacity:1;" offset="0.578125"/><stop style="stop-color:#d8f6d3;stop-opacity:1;" offset="0.585938"/><stop style="stop-color:#d8f6d2;stop-opacity:1;" offset="0.59375"/><stop style="stop-color:#d8f6d1;stop-opacity:1;" offset="0.601562"/><stop style="stop-color:#d8f6d0;stop-opacity:1;" offset="0.609375"/><stop style="stop-color:#d8f6cf;stop-opacity:1;" offset="0.617188"/><stop style="stop-color:#d8f6cf;stop-opacity:1;" offset="0.625"/><stop style="stop-color:#d9f6ce;stop-opacity:1;" offset="0.632812"/><stop style="stop-color:#d9f6cd;stop-opacity:1;" offset="0.640625"/><stop style="stop-color:#d9f6cc;stop-opacity:1;" offset="0.648438"/><stop style="stop-color:#d9f6cb;stop-opacity:1;" offset="0.65625"/><stop style="stop-color:#d9f6ca;stop-opacity:1;" offset="0.664062"/><stop style="stop-color:#d9f6ca;stop-opacity:1;" offset="0.671875"/><stop style="stop-color:#d9f6c9;stop-opacity:1;" offset="0.679688"/><stop style="stop-color:#daf6c8;stop-opacity:1;" offset="0.6875"/><stop style="stop-color:#daf6c7;stop-opacity:1;" offset="0.688882"/><stop style="stop-color:#daf6c7;stop-opacity:1;" offset="0.695312"/><stop style="stop-color:#daf5c6;stop-opacity:1;" offset="0.703125"/><stop style="stop-color:#daf5c6;stop-opacity:1;" offset="0.710938"/><stop style="stop-color:#daf5c5;stop-opacity:1;" offset="0.71875"/><stop style="stop-color:#daf5c4;stop-opacity:1;" offset="0.726562"/><stop style="stop-color:#daf5c3;stop-opacity:1;" offset="0.734375"/><stop style="stop-color:#dbf5c2;stop-opacity:1;" offset="0.742188"/><stop style="stop-color:#dbf5c2;stop-opacity:1;" offset="0.75"/><stop style="stop-color:#dbf5c1;stop-opacity:1;" offset="0.757812"/><stop style="stop-color:#dbf5c0;stop-opacity:1;" offset="0.765625"/><stop style="stop-color:#dbf5bf;stop-opacity:1;" offset="0.773437"/><stop style="stop-color:#dbf5be;stop-opacity:1;" offset="0.78125"/><stop style="stop-color:#dbf5bd;stop-opacity:1;" offset="0.789062"/><stop style="stop-color:#dcf5bd;stop-opacity:1;" offset="0.796875"/><stop style="stop-color:#dcf5bc;stop-opacity:1;" offset="0.804687"/><stop style="stop-color:#dcf5bb;stop-opacity:1;" offset="0.8125"/><stop style="stop-color:#dcf5ba;stop-opacity:1;" offset="0.820312"/><stop style="stop-color:#dcf5b9;stop-opacity:1;" offset="0.828125"/><stop style="stop-color:#dcf5b9;stop-opacity:1;" offset="0.835937"/><stop style="stop-color:#dcf5b8;stop-opacity:1;" offset="0.84375"/><stop style="stop-color:#ddf5b7;stop-opacity:1;" offset="0.851562"/><stop style="stop-color:#ddf5b6;stop-opacity:1;" offset="0.859375"/><stop style="stop-color:#ddf4b5;stop-opacity:1;" offset="0.867187"/><stop style="stop-color:#ddf4b5;stop-opacity:1;" offset="0.875"/><stop style="stop-color:#ddf4b4;stop-opacity:1;" offset="0.882812"/><stop style="stop-color:#ddf4b3;stop-opacity:1;" offset="0.890625"/><stop style="stop-color:#ddf4b2;stop-opacity:1;" offset="0.898437"/><stop style="stop-color:#def4b1;stop-opacity:1;" offset="0.90625"/><stop style="stop-color:#def4b0;stop-opacity:1;" offset="0.914062"/><stop style="stop-color:#def4b0;stop-opacity:1;" offset="0.921875"/><stop style="stop-color:#def4af;stop-opacity:1;" offset="0.929688"/><stop style="stop-color:#def4ae;stop-opacity:1;" offset="0.9375"/><stop style="stop-color:#def4ae;stop-opacity:1;" offset="1"/></linearGradient></defs><g id="d2bbbedb2a"><path style=" stroke:none;fill-rule:nonzero;fill:#96c9dc;fill-opacity:1;" d="M 656.292969 688.34375 C 679.40625 670.152344 707.300781 689.699219 718.355469 701.742188 C 712.050781 719.367188 726.714844 729.363281 734.886719 729.296875 C 738.234375 791.570312 693.527344 803.636719 670.753906 801.886719 C 714.199219 746.910156 679.214844 703.289062 656.292969 688.34375 Z M 656.292969 688.34375 "/><path style=" stroke:none;fill-rule:nonzero;fill:#2a2e39;fill-opacity:1;" d="M 54.976562 451.550781 C 54.53125 451.148438 54.109375 450.722656 53.707031 450.277344 C 53.300781 449.832031 52.921875 449.367188 52.5625 448.886719 C 52.207031 448.402344 51.875 447.902344 51.566406 447.386719 C 51.253906 446.871094 50.972656 446.34375 50.714844 445.800781 C 50.460938 445.257812 50.230469 444.703125 50.027344 444.136719 C 49.828125 443.570312 49.652344 442.996094 49.507812 442.410156 C 49.359375 441.828125 49.246094 441.242188 49.15625 440.644531 C 49.070312 440.050781 49.011719 439.453125 48.980469 438.855469 C 48.953125 438.253906 48.953125 437.652344 48.980469 437.054688 C 49.011719 436.453125 49.070312 435.855469 49.160156 435.261719 C 49.246094 434.667969 49.363281 434.078125 49.511719 433.496094 C 49.65625 432.914062 49.832031 432.339844 50.035156 431.773438 C 50.238281 431.207031 50.46875 430.652344 50.726562 430.109375 C 50.980469 429.566406 51.265625 429.039062 51.574219 428.523438 C 51.882812 428.007812 52.21875 427.507812 52.574219 427.023438 C 52.933594 426.542969 53.316406 426.078125 53.71875 425.632812 C 54.121094 425.1875 54.546875 424.765625 54.992188 424.363281 C 55.4375 423.957031 55.902344 423.578125 56.386719 423.21875 C 56.867188 422.863281 57.367188 422.527344 57.882812 422.21875 C 58.398438 421.910156 58.929688 421.628906 59.472656 421.371094 C 60.015625 421.117188 60.570312 420.886719 61.136719 420.683594 C 61.703125 420.480469 62.277344 420.308594 62.859375 420.164062 C 63.441406 420.015625 64.03125 419.898438 64.625 419.8125 C 65.21875 419.722656 65.816406 419.664062 66.417969 419.636719 C 67.015625 419.609375 67.617188 419.609375 68.21875 419.636719 C 68.816406 419.667969 69.414062 419.726562 70.007812 419.816406 C 70.605469 419.902344 71.191406 420.019531 71.777344 420.167969 C 72.359375 420.3125 72.933594 420.488281 73.5 420.691406 C 74.0625 420.894531 74.617188 421.125 75.160156 421.382812 C 75.703125 421.636719 76.234375 421.921875 76.75 422.230469 C 77.265625 422.539062 77.761719 422.875 78.246094 423.230469 C 78.726562 423.589844 79.191406 423.972656 79.636719 424.375 C 80.082031 424.777344 80.507812 425.203125 80.910156 425.648438 C 81.3125 426.09375 81.691406 426.558594 82.050781 427.042969 C 82.410156 427.523438 82.742188 428.023438 83.050781 428.539062 C 83.359375 429.054688 83.640625 429.585938 83.898438 430.128906 C 84.15625 430.671875 84.382812 431.226562 84.585938 431.792969 C 84.789062 432.359375 84.960938 432.933594 85.109375 433.515625 C 85.253906 434.097656 85.371094 434.6875 85.457031 435.28125 C 85.546875 435.875 85.605469 436.472656 85.632812 437.074219 C 85.664062 437.671875 85.664062 438.273438 85.632812 438.875 C 85.601562 439.472656 85.542969 440.070312 85.457031 440.664062 C 85.367188 441.261719 85.25 441.847656 85.101562 442.429688 C 84.957031 443.015625 84.78125 443.589844 84.578125 444.15625 C 84.378906 444.71875 84.148438 445.273438 83.890625 445.816406 C 83.632812 446.359375 83.347656 446.890625 83.039062 447.40625 C 82.730469 447.921875 82.398438 448.417969 82.039062 448.902344 C 81.679688 449.382812 81.300781 449.847656 80.894531 450.292969 C 80.492188 450.738281 80.066406 451.160156 79.621094 451.566406 C 79.175781 451.96875 78.710938 452.347656 78.230469 452.707031 C 77.746094 453.066406 77.246094 453.398438 76.730469 453.707031 C 76.214844 454.015625 75.6875 454.296875 75.144531 454.554688 C 74.601562 454.8125 74.046875 455.039062 73.480469 455.242188 C 72.914062 455.445312 72.339844 455.617188 71.757812 455.765625 C 71.171875 455.910156 70.585938 456.027344 69.988281 456.113281 C 69.394531 456.203125 68.796875 456.261719 68.199219 456.289062 C 67.597656 456.320312 66.996094 456.320312 66.398438 456.289062 C 65.796875 456.257812 65.199219 456.199219 64.605469 456.113281 C 64.011719 456.023438 63.421875 455.90625 62.839844 455.757812 C 62.257812 455.613281 61.683594 455.4375 61.117188 455.234375 C 60.550781 455.03125 59.996094 454.804688 59.453125 454.546875 C 58.910156 454.289062 58.382812 454.003906 57.867188 453.695312 C 57.351562 453.386719 56.851562 453.054688 56.371094 452.695312 C 55.886719 452.335938 55.421875 451.957031 54.976562 451.550781 Z M 54.976562 451.550781 "/><path style=" stroke:none;fill-rule:nonzero;fill:#2a2e39;fill-opacity:1;" d="M 720.585938 726.246094 C 720.140625 725.84375 719.71875 725.417969 719.3125 724.972656 C 718.910156 724.527344 718.53125 724.0625 718.171875 723.582031 C 717.816406 723.097656 717.480469 722.597656 717.171875 722.082031 C 716.863281 721.566406 716.582031 721.039062 716.324219 720.496094 C 716.070312 719.953125 715.839844 719.398438 715.636719 718.832031 C 715.433594 718.265625 715.261719 717.691406 715.117188 717.109375 C 714.96875 716.523438 714.851562 715.9375 714.765625 715.339844 C 714.675781 714.746094 714.617188 714.148438 714.589844 713.550781 C 714.558594 712.949219 714.5625 712.347656 714.589844 711.75 C 714.621094 711.148438 714.679688 710.550781 714.769531 709.957031 C 714.855469 709.363281 714.972656 708.773438 715.121094 708.191406 C 715.265625 707.609375 715.441406 707.035156 715.644531 706.46875 C 715.847656 705.902344 716.078125 705.347656 716.332031 704.804688 C 716.589844 704.261719 716.875 703.734375 717.183594 703.21875 C 717.492188 702.703125 717.828125 702.203125 718.183594 701.722656 C 718.542969 701.238281 718.925781 700.773438 719.328125 700.328125 C 719.730469 699.882812 720.15625 699.460938 720.601562 699.058594 C 721.046875 698.652344 721.511719 698.273438 721.996094 697.914062 C 722.476562 697.558594 722.976562 697.226562 723.492188 696.917969 C 724.007812 696.609375 724.535156 696.324219 725.082031 696.066406 C 725.625 695.8125 726.179688 695.582031 726.746094 695.378906 C 727.308594 695.179688 727.882812 695.003906 728.46875 694.859375 C 729.050781 694.710938 729.640625 694.597656 730.234375 694.507812 C 730.828125 694.421875 731.425781 694.363281 732.027344 694.332031 C 732.625 694.304688 733.226562 694.304688 733.828125 694.332031 C 734.425781 694.363281 735.023438 694.421875 735.617188 694.511719 C 736.210938 694.597656 736.800781 694.71875 737.382812 694.863281 C 737.96875 695.007812 738.542969 695.183594 739.105469 695.386719 C 739.671875 695.589844 740.226562 695.820312 740.769531 696.078125 C 741.3125 696.335938 741.84375 696.617188 742.359375 696.925781 C 742.875 697.234375 743.371094 697.570312 743.855469 697.925781 C 744.335938 698.285156 744.800781 698.667969 745.246094 699.070312 C 745.691406 699.472656 746.113281 699.898438 746.519531 700.34375 C 746.921875 700.789062 747.300781 701.253906 747.660156 701.738281 C 748.015625 702.21875 748.351562 702.71875 748.660156 703.234375 C 748.96875 703.75 749.25 704.28125 749.507812 704.824219 C 749.765625 705.367188 749.992188 705.921875 750.195312 706.488281 C 750.398438 707.054688 750.570312 707.628906 750.71875 708.210938 C 750.863281 708.792969 750.980469 709.382812 751.066406 709.976562 C 751.15625 710.570312 751.214844 711.167969 751.242188 711.769531 C 751.273438 712.367188 751.273438 712.96875 751.242188 713.570312 C 751.210938 714.167969 751.152344 714.765625 751.0625 715.363281 C 750.976562 715.957031 750.859375 716.542969 750.710938 717.128906 C 750.566406 717.710938 750.390625 718.285156 750.1875 718.851562 C 749.984375 719.414062 749.753906 719.96875 749.5 720.511719 C 749.242188 721.054688 748.957031 721.585938 748.648438 722.101562 C 748.339844 722.617188 748.003906 723.113281 747.648438 723.597656 C 747.289062 724.078125 746.910156 724.542969 746.503906 724.988281 C 746.101562 725.433594 745.675781 725.859375 745.230469 726.261719 C 744.785156 726.664062 744.320312 727.042969 743.839844 727.402344 C 743.355469 727.761719 742.855469 728.09375 742.339844 728.402344 C 741.824219 728.710938 741.296875 728.992188 740.753906 729.25 C 740.207031 729.507812 739.652344 729.734375 739.089844 729.9375 C 738.523438 730.140625 737.949219 730.3125 737.363281 730.460938 C 736.78125 730.605469 736.191406 730.722656 735.597656 730.808594 C 735.003906 730.898438 734.40625 730.957031 733.804688 730.984375 C 733.207031 731.015625 732.605469 731.015625 732.003906 730.984375 C 731.40625 730.953125 730.808594 730.894531 730.214844 730.808594 C 729.621094 730.71875 729.03125 730.601562 728.449219 730.453125 C 727.867188 730.308594 727.292969 730.132812 726.726562 729.929688 C 726.160156 729.730469 725.605469 729.5 725.0625 729.242188 C 724.519531 728.984375 723.988281 728.699219 723.476562 728.390625 C 722.960938 728.082031 722.460938 727.75 721.976562 727.390625 C 721.496094 727.03125 721.03125 726.652344 720.585938 726.246094 Z M 720.585938 726.246094 "/><path style=" stroke:none;fill-rule:nonzero;fill:#96c9dc;fill-opacity:1;" d="M 735.171875 711.390625 C 754.539062 721.957031 776.21875 670.140625 802.082031 619.824219 C 802.082031 619.824219 793.277344 630.390625 779.191406 626.871094 C 765.105469 623.347656 761.582031 612.78125 761.582031 612.78125 C 747.066406 643.953125 711.367188 698.40625 735.171875 711.390625 Z M 735.171875 711.390625 "/><path style=" stroke:none;fill-rule:nonzero;fill:#96c9dc;fill-opacity:1;" d="M 66.902344 436.160156 C 46.0625 443.40625 69.867188 494.28125 89.75 547.246094 C 89.75 547.246094 87.84375 533.625 99.917969 525.558594 C 111.992188 517.496094 122.179688 521.984375 122.179688 521.984375 C 108.851562 490.289062 92.511719 427.257812 66.902344 436.160156 Z M 66.902344 436.160156 "/><path style=" stroke:none;fill-rule:nonzero;fill:#2a2e39;fill-opacity:1;" d="M 809.125 605.738281 C 809.125 606.546875 809.085938 607.351562 809.007812 608.15625 C 808.929688 608.957031 808.808594 609.757812 808.652344 610.546875 C 808.496094 611.339844 808.300781 612.121094 808.066406 612.894531 C 807.832031 613.667969 807.558594 614.425781 807.25 615.171875 C 806.941406 615.917969 806.597656 616.648438 806.214844 617.359375 C 805.835938 618.070312 805.421875 618.765625 804.972656 619.433594 C 804.523438 620.105469 804.042969 620.753906 803.53125 621.378906 C 803.019531 622.003906 802.476562 622.601562 801.90625 623.171875 C 801.335938 623.742188 800.738281 624.285156 800.113281 624.796875 C 799.488281 625.308594 798.839844 625.789062 798.171875 626.238281 C 797.5 626.683594 796.808594 627.101562 796.09375 627.480469 C 795.382812 627.859375 794.652344 628.207031 793.910156 628.515625 C 793.164062 628.824219 792.402344 629.09375 791.628906 629.328125 C 790.859375 629.5625 790.074219 629.761719 789.285156 629.917969 C 788.492188 630.074219 787.695312 630.195312 786.890625 630.273438 C 786.085938 630.351562 785.28125 630.390625 784.472656 630.390625 C 783.667969 630.390625 782.863281 630.351562 782.058594 630.273438 C 781.253906 630.195312 780.457031 630.074219 779.664062 629.917969 C 778.871094 629.761719 778.089844 629.5625 777.316406 629.328125 C 776.546875 629.09375 775.785156 628.824219 775.039062 628.515625 C 774.292969 628.207031 773.566406 627.859375 772.851562 627.480469 C 772.140625 627.101562 771.449219 626.683594 770.777344 626.238281 C 770.105469 625.789062 769.460938 625.308594 768.835938 624.796875 C 768.210938 624.285156 767.613281 623.742188 767.042969 623.171875 C 766.472656 622.601562 765.929688 622.003906 765.417969 621.378906 C 764.90625 620.753906 764.425781 620.105469 763.976562 619.433594 C 763.527344 618.765625 763.113281 618.070312 762.734375 617.359375 C 762.351562 616.648438 762.007812 615.917969 761.699219 615.171875 C 761.390625 614.425781 761.117188 613.667969 760.882812 612.894531 C 760.648438 612.121094 760.453125 611.339844 760.296875 610.546875 C 760.136719 609.757812 760.019531 608.957031 759.941406 608.15625 C 759.863281 607.351562 759.820312 606.546875 759.820312 605.738281 C 759.820312 604.933594 759.863281 604.125 759.941406 603.324219 C 760.019531 602.519531 760.136719 601.722656 760.296875 600.929688 C 760.453125 600.136719 760.648438 599.355469 760.882812 598.582031 C 761.117188 597.808594 761.390625 597.050781 761.699219 596.304688 C 762.007812 595.558594 762.351562 594.832031 762.734375 594.117188 C 763.113281 593.40625 763.527344 592.714844 763.976562 592.042969 C 764.425781 591.371094 764.90625 590.722656 765.417969 590.101562 C 765.929688 589.476562 766.472656 588.878906 767.042969 588.308594 C 767.613281 587.738281 768.210938 587.195312 768.835938 586.683594 C 769.460938 586.171875 770.105469 585.691406 770.777344 585.242188 C 771.449219 584.792969 772.140625 584.378906 772.851562 583.996094 C 773.566406 583.617188 774.292969 583.273438 775.039062 582.964844 C 775.785156 582.65625 776.546875 582.382812 777.316406 582.148438 C 778.089844 581.914062 778.875 581.71875 779.664062 581.5625 C 780.457031 581.402344 781.253906 581.285156 782.058594 581.207031 C 782.863281 581.125 783.667969 581.085938 784.472656 581.085938 C 785.28125 581.085938 786.085938 581.125 786.890625 581.207031 C 787.695312 581.285156 788.492188 581.402344 789.285156 581.5625 C 790.074219 581.71875 790.859375 581.914062 791.628906 582.148438 C 792.402344 582.382812 793.164062 582.65625 793.910156 582.964844 C 794.652344 583.273438 795.382812 583.617188 796.09375 583.996094 C 796.808594 584.378906 797.5 584.792969 798.171875 585.242188 C 798.839844 585.691406 799.488281 586.171875 800.113281 586.683594 C 800.738281 587.195312 801.335938 587.738281 801.90625 588.308594 C 802.476562 588.878906 803.019531 589.476562 803.53125 590.101562 C 804.042969 590.722656 804.523438 591.371094 804.972656 592.042969 C 805.421875 592.714844 805.835938 593.40625 806.214844 594.117188 C 806.597656 594.832031 806.941406 595.558594 807.25 596.304688 C 807.558594 597.050781 807.832031 597.808594 808.066406 598.582031 C 808.300781 599.355469 808.496094 600.136719 808.652344 600.929688 C 808.808594 601.722656 808.929688 602.519531 809.007812 603.324219 C 809.085938 604.125 809.125 604.933594 809.125 605.738281 Z M 809.125 605.738281 "/><path style=" stroke:none;fill-rule:nonzero;fill:#2a2e39;fill-opacity:1;" d="M 95.449219 561.929688 C 94.851562 561.386719 94.28125 560.816406 93.742188 560.21875 C 93.199219 559.617188 92.6875 558.996094 92.207031 558.347656 C 91.726562 557.699219 91.277344 557.027344 90.863281 556.335938 C 90.449219 555.640625 90.070312 554.929688 89.726562 554.199219 C 89.378906 553.46875 89.070312 552.726562 88.800781 551.964844 C 88.527344 551.203125 88.296875 550.433594 88.097656 549.648438 C 87.902344 548.867188 87.746094 548.074219 87.628906 547.277344 C 87.511719 546.476562 87.433594 545.675781 87.394531 544.867188 C 87.355469 544.0625 87.355469 543.253906 87.394531 542.449219 C 87.433594 541.640625 87.515625 540.839844 87.632812 540.042969 C 87.75 539.242188 87.910156 538.453125 88.105469 537.667969 C 88.300781 536.886719 88.535156 536.113281 88.808594 535.355469 C 89.082031 534.59375 89.390625 533.847656 89.738281 533.121094 C 90.082031 532.390625 90.460938 531.679688 90.878906 530.988281 C 91.292969 530.292969 91.742188 529.625 92.222656 528.976562 C 92.703125 528.328125 93.214844 527.703125 93.757812 527.105469 C 94.300781 526.507812 94.871094 525.9375 95.46875 525.398438 C 96.070312 524.855469 96.691406 524.34375 97.339844 523.863281 C 97.992188 523.382812 98.660156 522.933594 99.355469 522.519531 C 100.046875 522.105469 100.757812 521.726562 101.488281 521.382812 C 102.21875 521.035156 102.964844 520.726562 103.722656 520.457031 C 104.484375 520.183594 105.253906 519.949219 106.039062 519.753906 C 106.824219 519.558594 107.613281 519.402344 108.414062 519.285156 C 109.210938 519.167969 110.011719 519.089844 110.820312 519.050781 C 111.625 519.007812 112.433594 519.011719 113.238281 519.050781 C 114.046875 519.089844 114.847656 519.167969 115.648438 519.289062 C 116.445312 519.40625 117.234375 519.566406 118.019531 519.761719 C 118.800781 519.957031 119.574219 520.191406 120.332031 520.464844 C 121.09375 520.738281 121.839844 521.046875 122.566406 521.390625 C 123.296875 521.738281 124.007812 522.117188 124.703125 522.535156 C 125.394531 522.949219 126.0625 523.398438 126.710938 523.878906 C 127.359375 524.359375 127.984375 524.871094 128.582031 525.414062 C 129.179688 525.957031 129.75 526.527344 130.292969 527.125 C 130.832031 527.726562 131.34375 528.347656 131.824219 528.996094 C 132.304688 529.644531 132.753906 530.316406 133.167969 531.011719 C 133.582031 531.703125 133.960938 532.414062 134.308594 533.144531 C 134.652344 533.875 134.960938 534.621094 135.230469 535.378906 C 135.503906 536.140625 135.738281 536.910156 135.933594 537.695312 C 136.128906 538.480469 136.285156 539.269531 136.402344 540.066406 C 136.519531 540.867188 136.601562 541.667969 136.640625 542.476562 C 136.679688 543.28125 136.679688 544.089844 136.636719 544.894531 C 136.597656 545.703125 136.519531 546.503906 136.398438 547.300781 C 136.28125 548.101562 136.121094 548.890625 135.925781 549.675781 C 135.730469 550.457031 135.496094 551.230469 135.222656 551.988281 C 134.949219 552.75 134.640625 553.496094 134.296875 554.222656 C 133.949219 554.953125 133.570312 555.664062 133.152344 556.355469 C 132.738281 557.050781 132.289062 557.71875 131.808594 558.367188 C 131.328125 559.015625 130.816406 559.640625 130.273438 560.238281 C 129.730469 560.835938 129.160156 561.40625 128.5625 561.945312 C 127.960938 562.488281 127.339844 563 126.691406 563.480469 C 126.042969 563.960938 125.371094 564.410156 124.679688 564.824219 C 123.984375 565.238281 123.273438 565.617188 122.542969 565.964844 C 121.8125 566.308594 121.070312 566.617188 120.308594 566.886719 C 119.546875 567.160156 118.777344 567.394531 117.992188 567.589844 C 117.210938 567.785156 116.417969 567.941406 115.621094 568.058594 C 114.820312 568.175781 114.019531 568.257812 113.210938 568.296875 C 112.40625 568.335938 111.597656 568.332031 110.792969 568.292969 C 109.988281 568.253906 109.183594 568.175781 108.386719 568.054688 C 107.585938 567.9375 106.796875 567.777344 106.011719 567.582031 C 105.230469 567.386719 104.457031 567.152344 103.699219 566.878906 C 102.9375 566.605469 102.191406 566.296875 101.464844 565.953125 C 100.734375 565.605469 100.023438 565.226562 99.332031 564.808594 C 98.636719 564.394531 97.96875 563.945312 97.320312 563.464844 C 96.671875 562.984375 96.046875 562.472656 95.449219 561.929688 Z M 95.449219 561.929688 "/><path style=" stroke:none;fill-rule:nonzero;fill:#96c9dc;fill-opacity:1;" d="M 780.953125 602.21875 C 808.917969 567.257812 723.433594 525.328125 675.300781 491.28125 L 654.171875 545.871094 C 684.105469 565.238281 762.640625 625.109375 780.953125 602.21875 Z M 780.953125 602.21875 "/><path style=" stroke:none;fill-rule:nonzero;fill:#96c9dc;fill-opacity:1;" d="M 116.992188 543.429688 C 124.085938 587.632812 212.585938 552.496094 270.140625 539.730469 L 243.914062 487.402344 C 209.453125 496.554688 112.34375 514.484375 116.992188 543.429688 Z M 116.992188 543.429688 "/><path style="fill:none;stroke-width:2;stroke-linecap:round;stroke-linejoin:miter;stroke:#2a2e39;stroke-opacity:1;stroke-miterlimit:4;" d="M 91.751553 10.000381 L 107.252375 31.499661 M 168.752093 10.000381 L 152.752139 31.499661 " transform="matrix(3.521739,0,0,3.521739,0.0000035,0.00002)"/><path style=" stroke:none;fill-rule:nonzero;fill:#2a2e39;fill-opacity:1;" d="M 255.542969 220.578125 C 257.945312 203.152344 272.839844 190.175781 290.429688 190.175781 L 620.984375 190.175781 C 638.125 190.175781 652.777344 202.515625 655.6875 219.40625 L 661.152344 251.101562 C 664.867188 272.628906 648.289062 292.304688 626.445312 292.304688 L 286.058594 292.304688 C 264.695312 292.304688 248.25 273.4375 251.171875 252.273438 Z M 255.542969 220.578125 "/><path style=" stroke:none;fill-rule:nonzero;fill:#2a2e39;fill-opacity:1;" d="M 250.542969 535.132812 C 252.238281 549.296875 264.25 559.957031 278.515625 559.957031 L 643.183594 559.957031 C 657.03125 559.957031 668.832031 549.886719 671.003906 536.207031 L 677.164062 497.464844 C 679.882812 480.359375 666.660156 464.871094 649.339844 464.871094 L 273.875 464.871094 C 256.988281 464.871094 243.894531 479.625 245.902344 496.394531 Z M 250.542969 535.132812 "/><path style=" stroke:none;fill-rule:nonzero;fill:#96c9dc;fill-opacity:1;" d="M 285.714844 238.207031 C 298.101562 153.980469 370.363281 91.566406 455.5 91.566406 C 538.039062 91.566406 608.878906 150.320312 624.152344 231.429688 L 638.460938 307.449219 C 646.621094 350.808594 613.363281 390.914062 569.238281 390.914062 L 344.808594 390.914062 C 301.828125 390.914062 268.867188 352.75 275.121094 310.230469 Z M 285.714844 238.207031 "/><path style=" stroke:none;fill-rule:nonzero;fill:#96c9dc;fill-opacity:1;" d="M 631.714844 582.355469 C 619.324219 666.585938 547.0625 729 461.929688 729 C 379.390625 729 308.546875 670.246094 293.277344 589.132812 L 278.96875 513.117188 C 270.804688 469.753906 304.066406 429.652344 348.1875 429.652344 L 572.621094 429.652344 C 615.601562 429.652344 648.558594 467.8125 642.304688 510.335938 Z M 631.714844 582.355469 "/><path style=" stroke:none;fill-rule:nonzero;fill:#a9d6e6;fill-opacity:1;" d="M 331.402344 225.300781 C 334.785156 208.945312 349.191406 197.21875 365.890625 197.21875 L 548.015625 197.21875 C 564.714844 197.21875 579.117188 208.945312 582.503906 225.300781 L 589.058594 256.996094 C 593.582031 278.851562 576.890625 299.347656 554.570312 299.347656 L 359.332031 299.347656 C 337.015625 299.347656 320.324219 278.851562 324.847656 256.996094 Z M 331.402344 225.300781 "/><path style=" stroke:none;fill-rule:nonzero;fill:#a9d6e6;fill-opacity:1;" d="M 336.238281 575.746094 C 338.824219 592.988281 353.632812 605.738281 371.066406 605.738281 L 549.882812 605.738281 C 567.316406 605.738281 582.125 592.988281 584.714844 575.746094 L 595.28125 505.308594 C 598.46875 484.015625 581.980469 464.871094 560.449219 464.871094 L 360.5 464.871094 C 338.96875 464.871094 322.476562 484.015625 325.671875 505.308594 Z M 336.238281 575.746094 "/><path style=" stroke:none;fill-rule:nonzero;fill:#96c9dc;fill-opacity:1;" d="M 332.882812 18.964844 C 332.882812 19.585938 332.851562 20.207031 332.789062 20.824219 C 332.730469 21.441406 332.636719 22.054688 332.515625 22.664062 C 332.394531 23.273438 332.246094 23.875 332.066406 24.46875 C 331.886719 25.0625 331.675781 25.648438 331.4375 26.222656 C 331.199219 26.796875 330.933594 27.355469 330.640625 27.90625 C 330.351562 28.453125 330.03125 28.984375 329.6875 29.5 C 329.339844 30.015625 328.972656 30.515625 328.578125 30.996094 C 328.183594 31.476562 327.765625 31.933594 327.328125 32.375 C 326.886719 32.8125 326.429688 33.230469 325.949219 33.625 C 325.46875 34.019531 324.96875 34.386719 324.453125 34.734375 C 323.9375 35.078125 323.40625 35.398438 322.855469 35.691406 C 322.308594 35.984375 321.75 36.246094 321.175781 36.484375 C 320.601562 36.722656 320.015625 36.933594 319.421875 37.113281 C 318.828125 37.292969 318.226562 37.445312 317.617188 37.566406 C 317.007812 37.6875 316.394531 37.777344 315.777344 37.835938 C 315.15625 37.898438 314.539062 37.929688 313.917969 37.929688 C 313.296875 37.929688 312.675781 37.898438 312.058594 37.835938 C 311.441406 37.777344 310.828125 37.6875 310.21875 37.566406 C 309.609375 37.445312 309.007812 37.292969 308.410156 37.113281 C 307.816406 36.933594 307.234375 36.722656 306.660156 36.484375 C 306.085938 36.246094 305.523438 35.984375 304.976562 35.691406 C 304.429688 35.398438 303.898438 35.078125 303.382812 34.734375 C 302.863281 34.386719 302.367188 34.019531 301.886719 33.625 C 301.40625 33.230469 300.945312 32.8125 300.507812 32.375 C 300.066406 31.933594 299.652344 31.476562 299.257812 30.996094 C 298.863281 30.515625 298.492188 30.015625 298.148438 29.5 C 297.804688 28.984375 297.484375 28.453125 297.191406 27.90625 C 296.898438 27.355469 296.632812 26.796875 296.394531 26.222656 C 296.160156 25.648438 295.949219 25.0625 295.769531 24.46875 C 295.589844 23.875 295.4375 23.273438 295.316406 22.664062 C 295.195312 22.054688 295.105469 21.441406 295.042969 20.824219 C 294.984375 20.207031 294.953125 19.585938 294.953125 18.964844 C 294.953125 18.34375 294.984375 17.722656 295.042969 17.105469 C 295.105469 16.488281 295.195312 15.875 295.316406 15.265625 C 295.4375 14.65625 295.589844 14.054688 295.769531 13.460938 C 295.949219 12.863281 296.160156 12.28125 296.394531 11.707031 C 296.632812 11.132812 296.898438 10.574219 297.191406 10.023438 C 297.484375 9.476562 297.804688 8.945312 298.148438 8.429688 C 298.492188 7.910156 298.863281 7.414062 299.257812 6.933594 C 299.652344 6.453125 300.066406 5.992188 300.507812 5.554688 C 300.945312 5.117188 301.40625 4.699219 301.886719 4.304688 C 302.367188 3.910156 302.863281 3.542969 303.382812 3.195312 C 303.898438 2.851562 304.429688 2.53125 304.976562 2.238281 C 305.523438 1.945312 306.085938 1.679688 306.660156 1.445312 C 307.234375 1.207031 307.816406 0.996094 308.410156 0.816406 C 309.007812 0.636719 309.609375 0.484375 310.21875 0.363281 C 310.828125 0.242188 311.441406 0.152344 312.058594 0.0898438 C 312.675781 0.03125 313.296875 0 313.917969 0 C 314.539062 0 315.15625 0.03125 315.777344 0.0898438 C 316.394531 0.152344 317.007812 0.242188 317.617188 0.363281 C 318.226562 0.484375 318.828125 0.636719 319.421875 0.816406 C 320.015625 0.996094 320.601562 1.207031 321.175781 1.445312 C 321.75 1.679688 322.308594 1.945312 322.855469 2.238281 C 323.40625 2.53125 323.9375 2.851562 324.453125 3.195312 C 324.96875 3.542969 325.46875 3.910156 325.949219 4.304688 C 326.429688 4.699219 326.886719 5.117188 327.328125 5.554688 C 327.765625 5.992188 328.183594 6.453125 328.578125 6.933594 C 328.972656 7.414062 329.339844 7.910156 329.6875 8.429688 C 330.03125 8.945312 330.351562 9.476562 330.640625 10.023438 C 330.933594 10.574219 331.199219 11.132812 331.4375 11.707031 C 331.675781 12.28125 331.886719 12.863281 332.066406 13.460938 C 332.246094 14.054688 332.394531 14.65625 332.515625 15.265625 C 332.636719 15.875 332.730469 16.488281 332.789062 17.105469 C 332.851562 17.722656 332.882812 18.34375 332.882812 18.964844 Z M 332.882812 18.964844 "/><path style=" stroke:none;fill-rule:nonzero;fill:#a9d6e6;fill-opacity:1;" d="M 313.917969 14.222656 C 313.917969 14.65625 313.875 15.089844 313.789062 15.515625 C 313.703125 15.945312 313.578125 16.359375 313.410156 16.761719 C 313.246094 17.164062 313.039062 17.546875 312.796875 17.910156 C 312.554688 18.269531 312.28125 18.605469 311.972656 18.914062 C 311.664062 19.222656 311.328125 19.5 310.96875 19.742188 C 310.605469 19.984375 310.222656 20.1875 309.820312 20.355469 C 309.417969 20.519531 309 20.648438 308.574219 20.730469 C 308.144531 20.816406 307.714844 20.859375 307.277344 20.859375 C 306.84375 20.859375 306.410156 20.816406 305.984375 20.730469 C 305.554688 20.648438 305.140625 20.519531 304.738281 20.355469 C 304.335938 20.1875 303.953125 19.984375 303.589844 19.742188 C 303.226562 19.5 302.894531 19.222656 302.585938 18.914062 C 302.277344 18.605469 302 18.269531 301.757812 17.910156 C 301.515625 17.546875 301.3125 17.164062 301.144531 16.761719 C 300.980469 16.359375 300.851562 15.945312 300.769531 15.515625 C 300.683594 15.089844 300.640625 14.65625 300.640625 14.222656 C 300.640625 13.785156 300.683594 13.351562 300.769531 12.925781 C 300.851562 12.5 300.980469 12.082031 301.144531 11.679688 C 301.3125 11.277344 301.515625 10.894531 301.757812 10.53125 C 302 10.171875 302.277344 9.835938 302.585938 9.527344 C 302.894531 9.21875 303.226562 8.941406 303.589844 8.699219 C 303.953125 8.457031 304.335938 8.253906 304.738281 8.085938 C 305.140625 7.921875 305.554688 7.792969 305.984375 7.710938 C 306.410156 7.625 306.84375 7.582031 307.277344 7.582031 C 307.714844 7.582031 308.144531 7.625 308.574219 7.710938 C 309 7.792969 309.417969 7.921875 309.820312 8.085938 C 310.222656 8.253906 310.605469 8.457031 310.96875 8.699219 C 311.328125 8.941406 311.664062 9.21875 311.972656 9.527344 C 312.28125 9.835938 312.554688 10.171875 312.796875 10.53125 C 313.039062 10.894531 313.246094 11.277344 313.410156 11.679688 C 313.578125 12.082031 313.703125 12.5 313.789062 12.925781 C 313.875 13.351562 313.917969 13.785156 313.917969 14.222656 Z M 313.917969 14.222656 "/><path style=" stroke:none;fill-rule:nonzero;fill:#96c9dc;fill-opacity:1;" d="M 618.144531 18.964844 C 618.144531 19.585938 618.113281 20.207031 618.050781 20.824219 C 617.992188 21.441406 617.898438 22.054688 617.777344 22.664062 C 617.65625 23.273438 617.507812 23.875 617.324219 24.46875 C 617.144531 25.0625 616.9375 25.648438 616.699219 26.222656 C 616.460938 26.796875 616.195312 27.355469 615.902344 27.90625 C 615.609375 28.453125 615.292969 28.984375 614.945312 29.5 C 614.601562 30.015625 614.230469 30.515625 613.839844 30.996094 C 613.445312 31.476562 613.027344 31.933594 612.589844 32.375 C 612.148438 32.8125 611.6875 33.230469 611.210938 33.625 C 610.730469 34.019531 610.230469 34.386719 609.714844 34.734375 C 609.199219 35.078125 608.664062 35.398438 608.117188 35.691406 C 607.570312 35.984375 607.007812 36.246094 606.433594 36.484375 C 605.863281 36.722656 605.277344 36.933594 604.683594 37.113281 C 604.089844 37.292969 603.488281 37.445312 602.878906 37.566406 C 602.269531 37.6875 601.65625 37.777344 601.035156 37.835938 C 600.417969 37.898438 599.800781 37.929688 599.179688 37.929688 C 598.558594 37.929688 597.9375 37.898438 597.320312 37.835938 C 596.699219 37.777344 596.085938 37.6875 595.476562 37.566406 C 594.867188 37.445312 594.265625 37.292969 593.671875 37.113281 C 593.078125 36.933594 592.496094 36.722656 591.921875 36.484375 C 591.347656 36.246094 590.785156 35.984375 590.238281 35.691406 C 589.691406 35.398438 589.160156 35.078125 588.640625 34.734375 C 588.125 34.386719 587.628906 34.019531 587.148438 33.625 C 586.667969 33.230469 586.207031 32.8125 585.769531 32.375 C 585.328125 31.933594 584.914062 31.476562 584.519531 30.996094 C 584.125 30.515625 583.753906 30.015625 583.410156 29.5 C 583.066406 28.984375 582.746094 28.453125 582.453125 27.90625 C 582.160156 27.355469 581.894531 26.796875 581.65625 26.222656 C 581.417969 25.648438 581.210938 25.0625 581.03125 24.46875 C 580.851562 23.875 580.699219 23.273438 580.578125 22.664062 C 580.457031 22.054688 580.367188 21.441406 580.304688 20.824219 C 580.242188 20.207031 580.214844 19.585938 580.214844 18.964844 C 580.214844 18.34375 580.242188 17.722656 580.304688 17.105469 C 580.367188 16.488281 580.457031 15.875 580.578125 15.265625 C 580.699219 14.65625 580.851562 14.054688 581.03125 13.460938 C 581.210938 12.863281 581.417969 12.28125 581.65625 11.707031 C 581.894531 11.132812 582.160156 10.574219 582.453125 10.023438 C 582.746094 9.476562 583.066406 8.945312 583.410156 8.429688 C 583.753906 7.910156 584.125 7.414062 584.519531 6.933594 C 584.914062 6.453125 585.328125 5.992188 585.769531 5.554688 C 586.207031 5.117188 586.667969 4.699219 587.148438 4.304688 C 587.628906 3.910156 588.125 3.542969 588.640625 3.195312 C 589.160156 2.851562 589.691406 2.53125 590.238281 2.238281 C 590.785156 1.945312 591.347656 1.679688 591.921875 1.445312 C 592.496094 1.207031 593.078125 0.996094 593.671875 0.816406 C 594.265625 0.636719 594.867188 0.484375 595.476562 0.363281 C 596.085938 0.242188 596.699219 0.152344 597.320312 0.0898438 C 597.9375 0.03125 598.558594 0 599.179688 0 C 599.800781 0 600.417969 0.03125 601.035156 0.0898438 C 601.65625 0.152344 602.269531 0.242188 602.878906 0.363281 C 603.488281 0.484375 604.089844 0.636719 604.683594 0.816406 C 605.277344 0.996094 605.863281 1.207031 606.433594 1.445312 C 607.007812 1.679688 607.570312 1.945312 608.117188 2.238281 C 608.664062 2.53125 609.199219 2.851562 609.714844 3.195312 C 610.230469 3.542969 610.730469 3.910156 611.210938 4.304688 C 611.6875 4.699219 612.148438 5.117188 612.589844 5.554688 C 613.027344 5.992188 613.445312 6.453125 613.835938 6.933594 C 614.230469 7.414062 614.601562 7.910156 614.945312 8.429688 C 615.292969 8.945312 615.609375 9.476562 615.902344 10.023438 C 616.195312 10.574219 616.460938 11.132812 616.699219 11.707031 C 616.9375 12.28125 617.144531 12.863281 617.324219 13.460938 C 617.507812 14.054688 617.65625 14.65625 617.777344 15.265625 C 617.898438 15.875 617.992188 16.488281 618.050781 17.105469 C 618.113281 17.722656 618.144531 18.34375 618.144531 18.964844 Z M 618.144531 18.964844 "/><path style=" stroke:none;fill-rule:nonzero;fill:#a9d6e6;fill-opacity:1;" d="M 599.179688 14.222656 C 599.179688 14.65625 599.136719 15.089844 599.050781 15.515625 C 598.964844 15.945312 598.839844 16.359375 598.671875 16.761719 C 598.507812 17.164062 598.300781 17.546875 598.058594 17.910156 C 597.816406 18.269531 597.542969 18.605469 597.234375 18.914062 C 596.925781 19.222656 596.589844 19.5 596.226562 19.742188 C 595.863281 19.984375 595.484375 20.1875 595.078125 20.355469 C 594.675781 20.519531 594.261719 20.648438 593.835938 20.730469 C 593.40625 20.816406 592.976562 20.859375 592.539062 20.859375 C 592.105469 20.859375 591.671875 20.816406 591.246094 20.730469 C 590.816406 20.648438 590.402344 20.519531 590 20.355469 C 589.597656 20.1875 589.214844 19.984375 588.851562 19.742188 C 588.488281 19.5 588.152344 19.222656 587.84375 18.914062 C 587.539062 18.605469 587.261719 18.269531 587.019531 17.910156 C 586.777344 17.546875 586.574219 17.164062 586.40625 16.761719 C 586.238281 16.359375 586.113281 15.945312 586.027344 15.515625 C 585.945312 15.089844 585.902344 14.65625 585.902344 14.222656 C 585.902344 13.785156 585.945312 13.351562 586.027344 12.925781 C 586.113281 12.5 586.238281 12.082031 586.40625 11.679688 C 586.574219 11.277344 586.777344 10.894531 587.019531 10.53125 C 587.261719 10.171875 587.539062 9.835938 587.84375 9.527344 C 588.152344 9.21875 588.488281 8.941406 588.851562 8.699219 C 589.214844 8.457031 589.597656 8.253906 590 8.085938 C 590.402344 7.921875 590.816406 7.792969 591.246094 7.710938 C 591.671875 7.625 592.105469 7.582031 592.539062 7.582031 C 592.976562 7.582031 593.40625 7.625 593.835938 7.710938 C 594.261719 7.792969 594.675781 7.921875 595.078125 8.085938 C 595.484375 8.253906 595.863281 8.457031 596.226562 8.699219 C 596.589844 8.941406 596.925781 9.21875 597.234375 9.527344 C 597.542969 9.835938 597.816406 10.171875 598.058594 10.53125 C 598.300781 10.894531 598.507812 11.277344 598.671875 11.679688 C 598.839844 12.082031 598.964844 12.5 599.050781 12.925781 C 599.136719 13.351562 599.179688 13.785156 599.179688 14.222656 Z M 599.179688 14.222656 "/><path style=" stroke:none;fill-rule:nonzero;fill:#242424;fill-opacity:1;" d="M 421.734375 248.28125 C 421.734375 249.492188 421.675781 250.703125 421.558594 251.90625 C 421.4375 253.113281 421.261719 254.308594 421.023438 255.496094 C 420.789062 256.683594 420.496094 257.859375 420.144531 259.015625 C 419.792969 260.175781 419.382812 261.316406 418.921875 262.433594 C 418.457031 263.550781 417.941406 264.644531 417.367188 265.714844 C 416.796875 266.78125 416.175781 267.820312 415.503906 268.828125 C 414.832031 269.832031 414.109375 270.804688 413.339844 271.742188 C 412.574219 272.675781 411.761719 273.574219 410.90625 274.429688 C 410.046875 275.285156 409.152344 276.097656 408.214844 276.867188 C 407.28125 277.636719 406.308594 278.355469 405.300781 279.027344 C 404.292969 279.703125 403.257812 280.324219 402.1875 280.894531 C 401.121094 281.464844 400.027344 281.984375 398.90625 282.445312 C 397.789062 282.910156 396.648438 283.316406 395.492188 283.667969 C 394.332031 284.019531 393.160156 284.3125 391.972656 284.550781 C 390.785156 284.785156 389.585938 284.964844 388.382812 285.082031 C 387.175781 285.203125 385.96875 285.261719 384.757812 285.261719 C 383.546875 285.261719 382.335938 285.203125 381.132812 285.082031 C 379.925781 284.964844 378.730469 284.785156 377.542969 284.550781 C 376.355469 284.3125 375.183594 284.019531 374.023438 283.667969 C 372.863281 283.316406 371.726562 282.910156 370.605469 282.445312 C 369.488281 281.984375 368.394531 281.464844 367.324219 280.894531 C 366.257812 280.324219 365.21875 279.703125 364.214844 279.027344 C 363.207031 278.355469 362.234375 277.636719 361.296875 276.867188 C 360.363281 276.097656 359.464844 275.285156 358.609375 274.429688 C 357.753906 273.574219 356.941406 272.675781 356.171875 271.742188 C 355.402344 270.804688 354.683594 269.832031 354.011719 268.828125 C 353.335938 267.820312 352.714844 266.78125 352.144531 265.714844 C 351.574219 264.644531 351.058594 263.550781 350.59375 262.433594 C 350.128906 261.316406 349.722656 260.175781 349.371094 259.015625 C 349.019531 257.859375 348.726562 256.683594 348.488281 255.496094 C 348.253906 254.308594 348.074219 253.113281 347.957031 251.90625 C 347.839844 250.703125 347.777344 249.492188 347.777344 248.28125 C 347.777344 247.070312 347.839844 245.863281 347.957031 244.65625 C 348.074219 243.453125 348.253906 242.257812 348.488281 241.070312 C 348.726562 239.878906 349.019531 238.707031 349.371094 237.546875 C 349.722656 236.390625 350.128906 235.25 350.59375 234.132812 C 351.058594 233.011719 351.574219 231.917969 352.144531 230.851562 C 352.714844 229.78125 353.335938 228.746094 354.011719 227.738281 C 354.683594 226.730469 355.402344 225.761719 356.171875 224.824219 C 356.941406 223.886719 357.753906 222.992188 358.609375 222.136719 C 359.464844 221.277344 360.363281 220.464844 361.296875 219.699219 C 362.234375 218.929688 363.207031 218.210938 364.214844 217.535156 C 365.21875 216.863281 366.257812 216.242188 367.324219 215.671875 C 368.394531 215.101562 369.488281 214.582031 370.605469 214.117188 C 371.726562 213.65625 372.863281 213.25 374.023438 212.898438 C 375.183594 212.546875 376.355469 212.25 377.542969 212.015625 C 378.730469 211.777344 379.925781 211.601562 381.132812 211.480469 C 382.335938 211.363281 383.546875 211.304688 384.757812 211.304688 C 385.96875 211.304688 387.175781 211.363281 388.382812 211.480469 C 389.585938 211.601562 390.785156 211.777344 391.972656 212.015625 C 393.160156 212.25 394.332031 212.546875 395.492188 212.898438 C 396.648438 213.25 397.789062 213.65625 398.90625 214.117188 C 400.027344 214.582031 401.121094 215.101562 402.1875 215.671875 C 403.257812 216.242188 404.292969 216.863281 405.300781 217.535156 C 406.308594 218.210938 407.28125 218.929688 408.214844 219.699219 C 409.152344 220.464844 410.046875 221.277344 410.90625 222.136719 C 411.761719 222.992188 412.574219 223.886719 413.339844 224.824219 C 414.109375 225.761719 414.832031 226.730469 415.503906 227.738281 C 416.175781 228.746094 416.796875 229.78125 417.367188 230.851562 C 417.941406 231.917969 418.457031 233.011719 418.921875 234.132812 C 419.382812 235.25 419.792969 236.390625 420.144531 237.546875 C 420.496094 238.707031 420.789062 239.878906 421.023438 241.070312 C 421.261719 242.257812 421.4375 243.453125 421.558594 244.65625 C 421.675781 245.863281 421.734375 247.070312 421.734375 248.28125 Z M 421.734375 248.28125 "/><g clip-rule="nonzero" clip-path="url(#282d38e24e)"><g clip-rule="nonzero" clip-path="url(#0a95fb1d3f)"><path style=" stroke:none;fill-rule:nonzero;fill:url(#linear0);" d="M 353.464844 216.992188 L 353.464844 279.574219 L 416.046875 279.574219 L 416.046875 216.992188 Z M 353.464844 216.992188 "/></g></g><path style=" stroke:none;fill-rule:nonzero;fill:#242424;fill-opacity:1;" d="M 402.773438 247.335938 C 402.773438 247.957031 402.742188 248.574219 402.683594 249.195312 C 402.621094 249.8125 402.53125 250.425781 402.410156 251.035156 C 402.289062 251.644531 402.136719 252.246094 401.957031 252.839844 C 401.777344 253.433594 401.566406 254.019531 401.332031 254.59375 C 401.09375 255.167969 400.828125 255.726562 400.535156 256.273438 C 400.242188 256.824219 399.921875 257.355469 399.578125 257.871094 C 399.234375 258.386719 398.863281 258.886719 398.46875 259.367188 C 398.074219 259.847656 397.660156 260.304688 397.21875 260.746094 C 396.78125 261.183594 396.320312 261.601562 395.839844 261.996094 C 395.359375 262.390625 394.863281 262.757812 394.347656 263.105469 C 393.828125 263.449219 393.296875 263.769531 392.75 264.058594 C 392.203125 264.351562 391.640625 264.617188 391.066406 264.855469 C 390.492188 265.09375 389.910156 265.304688 389.316406 265.484375 C 388.71875 265.664062 388.117188 265.8125 387.507812 265.933594 C 386.898438 266.054688 386.285156 266.148438 385.667969 266.207031 C 385.050781 266.269531 384.429688 266.300781 383.808594 266.300781 C 383.1875 266.300781 382.570312 266.269531 381.949219 266.207031 C 381.332031 266.148438 380.71875 266.054688 380.109375 265.933594 C 379.5 265.8125 378.898438 265.664062 378.304688 265.484375 C 377.710938 265.304688 377.125 265.09375 376.550781 264.855469 C 375.976562 264.617188 375.417969 264.351562 374.871094 264.058594 C 374.320312 263.769531 373.789062 263.449219 373.273438 263.105469 C 372.757812 262.757812 372.257812 262.390625 371.777344 261.996094 C 371.296875 261.601562 370.839844 261.183594 370.398438 260.746094 C 369.960938 260.304688 369.542969 259.847656 369.148438 259.367188 C 368.753906 258.886719 368.386719 258.386719 368.042969 257.871094 C 367.695312 257.355469 367.378906 256.824219 367.085938 256.273438 C 366.792969 255.726562 366.527344 255.167969 366.289062 254.59375 C 366.050781 254.019531 365.84375 253.433594 365.660156 252.839844 C 365.480469 252.246094 365.332031 251.644531 365.210938 251.035156 C 365.089844 250.425781 364.996094 249.8125 364.9375 249.195312 C 364.875 248.574219 364.84375 247.957031 364.84375 247.335938 C 364.84375 246.714844 364.875 246.09375 364.9375 245.476562 C 364.996094 244.859375 365.089844 244.246094 365.210938 243.636719 C 365.332031 243.027344 365.480469 242.425781 365.660156 241.832031 C 365.84375 241.234375 366.050781 240.652344 366.289062 240.078125 C 366.527344 239.503906 366.792969 238.941406 367.085938 238.394531 C 367.378906 237.847656 367.695312 237.316406 368.042969 236.800781 C 368.386719 236.28125 368.753906 235.785156 369.148438 235.304688 C 369.542969 234.824219 369.960938 234.363281 370.398438 233.925781 C 370.839844 233.484375 371.296875 233.070312 371.777344 232.675781 C 372.257812 232.28125 372.757812 231.910156 373.273438 231.566406 C 373.789062 231.222656 374.320312 230.902344 374.871094 230.609375 C 375.417969 230.316406 375.976562 230.050781 376.550781 229.8125 C 377.125 229.578125 377.710938 229.367188 378.304688 229.1875 C 378.898438 229.007812 379.5 228.855469 380.109375 228.734375 C 380.71875 228.613281 381.332031 228.523438 381.949219 228.460938 C 382.570312 228.402344 383.1875 228.371094 383.808594 228.371094 C 384.429688 228.371094 385.050781 228.402344 385.667969 228.460938 C 386.285156 228.523438 386.898438 228.613281 387.507812 228.734375 C 388.117188 228.855469 388.71875 229.007812 389.316406 229.1875 C 389.910156 229.367188 390.492188 229.578125 391.066406 229.8125 C 391.640625 230.050781 392.203125 230.316406 392.75 230.609375 C 393.296875 230.902344 393.828125 231.222656 394.347656 231.566406 C 394.863281 231.910156 395.359375 232.28125 395.839844 232.675781 C 396.320312 233.070312 396.78125 233.484375 397.21875 233.925781 C 397.660156 234.363281 398.074219 234.824219 398.46875 235.304688 C 398.863281 235.785156 399.234375 236.28125 399.578125 236.800781 C 399.921875 237.316406 400.242188 237.847656 400.535156 238.394531 C 400.828125 238.941406 401.09375 239.503906 401.332031 240.078125 C 401.566406 240.652344 401.777344 241.234375 401.957031 241.828125 C 402.136719 242.425781 402.289062 243.027344 402.410156 243.636719 C 402.53125 244.246094 402.621094 244.859375 402.683594 245.476562 C 402.742188 246.09375 402.773438 246.714844 402.773438 247.335938 Z M 402.773438 247.335938 "/><path style=" stroke:none;fill-rule:nonzero;fill:#ffffff;fill-opacity:1;" d="M 383.808594 242.59375 C 383.808594 243.03125 383.765625 243.460938 383.683594 243.890625 C 383.597656 244.316406 383.472656 244.734375 383.304688 245.136719 C 383.136719 245.539062 382.933594 245.921875 382.691406 246.28125 C 382.449219 246.644531 382.171875 246.980469 381.863281 247.289062 C 381.558594 247.597656 381.222656 247.871094 380.859375 248.113281 C 380.496094 248.355469 380.113281 248.5625 379.710938 248.726562 C 379.308594 248.894531 378.894531 249.019531 378.464844 249.105469 C 378.039062 249.191406 377.605469 249.234375 377.171875 249.234375 C 376.734375 249.234375 376.304688 249.191406 375.875 249.105469 C 375.449219 249.019531 375.035156 248.894531 374.628906 248.726562 C 374.226562 248.5625 373.84375 248.355469 373.484375 248.113281 C 373.121094 247.871094 372.785156 247.597656 372.476562 247.289062 C 372.167969 246.980469 371.894531 246.644531 371.652344 246.28125 C 371.410156 245.921875 371.203125 245.539062 371.039062 245.136719 C 370.871094 244.734375 370.746094 244.316406 370.660156 243.890625 C 370.574219 243.460938 370.53125 243.03125 370.53125 242.59375 C 370.53125 242.160156 370.574219 241.726562 370.660156 241.300781 C 370.746094 240.871094 370.871094 240.457031 371.039062 240.054688 C 371.203125 239.652344 371.410156 239.269531 371.652344 238.90625 C 371.894531 238.542969 372.167969 238.210938 372.476562 237.902344 C 372.785156 237.59375 373.121094 237.316406 373.484375 237.074219 C 373.84375 236.832031 374.226562 236.628906 374.628906 236.460938 C 375.035156 236.296875 375.449219 236.167969 375.875 236.085938 C 376.304688 236 376.734375 235.957031 377.171875 235.957031 C 377.605469 235.957031 378.039062 236 378.464844 236.085938 C 378.894531 236.167969 379.308594 236.296875 379.710938 236.460938 C 380.113281 236.628906 380.496094 236.832031 380.859375 237.074219 C 381.222656 237.316406 381.558594 237.59375 381.863281 237.902344 C 382.171875 238.210938 382.449219 238.542969 382.691406 238.90625 C 382.933594 239.269531 383.136719 239.652344 383.304688 240.054688 C 383.472656 240.457031 383.597656 240.871094 383.683594 241.300781 C 383.765625 241.726562 383.808594 242.160156 383.808594 242.59375 Z M 383.808594 242.59375 "/><path style=" stroke:none;fill-rule:nonzero;fill:#242424;fill-opacity:1;" d="M 569.648438 248.28125 C 569.648438 249.492188 569.589844 250.703125 569.46875 251.90625 C 569.351562 253.113281 569.175781 254.308594 568.9375 255.496094 C 568.703125 256.683594 568.40625 257.859375 568.054688 259.015625 C 567.703125 260.175781 567.296875 261.316406 566.832031 262.433594 C 566.371094 263.550781 565.851562 264.644531 565.28125 265.714844 C 564.710938 266.78125 564.089844 267.820312 563.417969 268.828125 C 562.742188 269.832031 562.023438 270.804688 561.253906 271.742188 C 560.484375 272.675781 559.675781 273.574219 558.816406 274.429688 C 557.960938 275.285156 557.066406 276.097656 556.128906 276.867188 C 555.191406 277.636719 554.222656 278.355469 553.214844 279.027344 C 552.207031 279.703125 551.167969 280.324219 550.101562 280.894531 C 549.035156 281.464844 547.941406 281.984375 546.820312 282.445312 C 545.703125 282.910156 544.5625 283.316406 543.402344 283.667969 C 542.246094 284.019531 541.070312 284.3125 539.882812 284.550781 C 538.695312 284.785156 537.5 284.964844 536.292969 285.082031 C 535.089844 285.203125 533.882812 285.261719 532.671875 285.261719 C 531.457031 285.261719 530.25 285.203125 529.046875 285.082031 C 527.839844 284.964844 526.644531 284.785156 525.457031 284.550781 C 524.269531 284.3125 523.09375 284.019531 521.9375 283.667969 C 520.777344 283.316406 519.636719 282.910156 518.519531 282.445312 C 517.398438 281.984375 516.304688 281.464844 515.238281 280.894531 C 514.171875 280.324219 513.132812 279.703125 512.125 279.027344 C 511.117188 278.355469 510.148438 277.636719 509.210938 276.867188 C 508.273438 276.097656 507.378906 275.285156 506.523438 274.429688 C 505.667969 273.574219 504.855469 272.675781 504.085938 271.742188 C 503.316406 270.804688 502.597656 269.832031 501.921875 268.828125 C 501.25 267.820312 500.628906 266.78125 500.058594 265.714844 C 499.488281 264.644531 498.96875 263.550781 498.507812 262.433594 C 498.042969 261.316406 497.636719 260.175781 497.285156 259.015625 C 496.933594 257.859375 496.636719 256.683594 496.402344 255.496094 C 496.164062 254.308594 495.988281 253.113281 495.871094 251.90625 C 495.75 250.703125 495.691406 249.492188 495.691406 248.28125 C 495.691406 247.070312 495.75 245.863281 495.871094 244.65625 C 495.988281 243.453125 496.164062 242.257812 496.402344 241.070312 C 496.636719 239.878906 496.933594 238.707031 497.285156 237.546875 C 497.636719 236.390625 498.042969 235.25 498.507812 234.132812 C 498.96875 233.011719 499.488281 231.917969 500.058594 230.851562 C 500.628906 229.78125 501.25 228.746094 501.921875 227.738281 C 502.597656 226.730469 503.316406 225.761719 504.085938 224.824219 C 504.855469 223.886719 505.667969 222.992188 506.523438 222.136719 C 507.378906 221.277344 508.273438 220.464844 509.210938 219.699219 C 510.148438 218.929688 511.117188 218.210938 512.125 217.535156 C 513.132812 216.863281 514.171875 216.242188 515.238281 215.671875 C 516.304688 215.101562 517.398438 214.582031 518.519531 214.117188 C 519.636719 213.65625 520.777344 213.25 521.9375 212.898438 C 523.09375 212.546875 524.269531 212.25 525.457031 212.015625 C 526.644531 211.777344 527.839844 211.601562 529.046875 211.480469 C 530.25 211.363281 531.457031 211.304688 532.671875 211.304688 C 533.882812 211.304688 535.089844 211.363281 536.292969 211.480469 C 537.5 211.601562 538.695312 211.777344 539.882812 212.015625 C 541.070312 212.25 542.246094 212.546875 543.402344 212.898438 C 544.5625 213.25 545.703125 213.65625 546.820312 214.117188 C 547.941406 214.582031 549.035156 215.101562 550.101562 215.671875 C 551.167969 216.242188 552.207031 216.863281 553.214844 217.535156 C 554.222656 218.210938 555.191406 218.929688 556.128906 219.699219 C 557.066406 220.464844 557.960938 221.277344 558.816406 222.136719 C 559.675781 222.992188 560.484375 223.886719 561.253906 224.824219 C 562.023438 225.761719 562.742188 226.730469 563.417969 227.738281 C 564.089844 228.746094 564.710938 229.78125 565.28125 230.851562 C 565.851562 231.917969 566.371094 233.011719 566.832031 234.132812 C 567.296875 235.25 567.703125 236.390625 568.054688 237.546875 C 568.40625 238.707031 568.703125 239.878906 568.9375 241.070312 C 569.175781 242.257812 569.351562 243.453125 569.46875 244.65625 C 569.589844 245.863281 569.648438 247.070312 569.648438 248.28125 Z M 569.648438 248.28125 "/><g clip-rule="nonzero" clip-path="url(#77f6adf7f7)"><g clip-rule="nonzero" clip-path="url(#5bf2411455)"><path style=" stroke:none;fill-rule:nonzero;fill:url(#linear1);" d="M 501.378906 216.992188 L 501.378906 279.574219 L 563.960938 279.574219 L 563.960938 216.992188 Z M 501.378906 216.992188 "/></g></g><path style=" stroke:none;fill-rule:nonzero;fill:#242424;fill-opacity:1;" d="M 550.6875 247.335938 C 550.6875 247.957031 550.65625 248.574219 550.597656 249.195312 C 550.535156 249.8125 550.445312 250.425781 550.324219 251.035156 C 550.203125 251.644531 550.050781 252.246094 549.871094 252.839844 C 549.691406 253.433594 549.480469 254.019531 549.242188 254.59375 C 549.007812 255.167969 548.742188 255.726562 548.449219 256.273438 C 548.15625 256.824219 547.835938 257.355469 547.492188 257.871094 C 547.144531 258.386719 546.777344 258.886719 546.382812 259.367188 C 545.988281 259.847656 545.570312 260.304688 545.132812 260.746094 C 544.695312 261.183594 544.234375 261.601562 543.753906 261.996094 C 543.273438 262.390625 542.773438 262.757812 542.257812 263.105469 C 541.742188 263.449219 541.210938 263.769531 540.664062 264.058594 C 540.113281 264.351562 539.554688 264.617188 538.980469 264.855469 C 538.40625 265.09375 537.820312 265.304688 537.226562 265.484375 C 536.632812 265.664062 536.03125 265.8125 535.421875 265.933594 C 534.8125 266.054688 534.199219 266.148438 533.582031 266.207031 C 532.964844 266.269531 532.34375 266.300781 531.722656 266.300781 C 531.101562 266.300781 530.480469 266.269531 529.863281 266.207031 C 529.246094 266.148438 528.632812 266.054688 528.023438 265.933594 C 527.414062 265.8125 526.8125 265.664062 526.21875 265.484375 C 525.625 265.304688 525.039062 265.09375 524.464844 264.855469 C 523.890625 264.617188 523.332031 264.351562 522.78125 264.058594 C 522.234375 263.769531 521.703125 263.449219 521.1875 263.105469 C 520.671875 262.757812 520.171875 262.390625 519.691406 261.996094 C 519.210938 261.601562 518.75 261.183594 518.3125 260.746094 C 517.875 260.304688 517.457031 259.847656 517.0625 259.367188 C 516.667969 258.886719 516.300781 258.386719 515.953125 257.871094 C 515.609375 257.355469 515.289062 256.824219 514.996094 256.273438 C 514.703125 255.726562 514.4375 255.167969 514.203125 254.59375 C 513.964844 254.019531 513.753906 253.433594 513.574219 252.839844 C 513.394531 252.246094 513.242188 251.644531 513.121094 251.035156 C 513 250.425781 512.910156 249.8125 512.847656 249.195312 C 512.789062 248.574219 512.757812 247.957031 512.757812 247.335938 C 512.757812 246.714844 512.789062 246.09375 512.847656 245.476562 C 512.910156 244.859375 513 244.246094 513.121094 243.636719 C 513.242188 243.027344 513.394531 242.425781 513.574219 241.832031 C 513.753906 241.234375 513.964844 240.652344 514.203125 240.078125 C 514.4375 239.503906 514.703125 238.941406 514.996094 238.394531 C 515.289062 237.847656 515.609375 237.316406 515.953125 236.800781 C 516.300781 236.28125 516.667969 235.785156 517.0625 235.304688 C 517.457031 234.824219 517.875 234.363281 518.3125 233.925781 C 518.75 233.484375 519.210938 233.070312 519.691406 232.675781 C 520.171875 232.28125 520.671875 231.910156 521.1875 231.566406 C 521.703125 231.222656 522.234375 230.902344 522.78125 230.609375 C 523.332031 230.316406 523.890625 230.050781 524.464844 229.8125 C 525.039062 229.578125 525.625 229.367188 526.21875 229.1875 C 526.8125 229.007812 527.414062 228.855469 528.023438 228.734375 C 528.632812 228.613281 529.246094 228.523438 529.863281 228.460938 C 530.480469 228.402344 531.101562 228.371094 531.722656 228.371094 C 532.34375 228.371094 532.964844 228.402344 533.582031 228.460938 C 534.199219 228.523438 534.8125 228.613281 535.421875 228.734375 C 536.03125 228.855469 536.632812 229.007812 537.226562 229.1875 C 537.820312 229.367188 538.40625 229.578125 538.980469 229.8125 C 539.554688 230.050781 540.113281 230.316406 540.664062 230.609375 C 541.210938 230.902344 541.742188 231.222656 542.257812 231.566406 C 542.773438 231.910156 543.273438 232.28125 543.753906 232.675781 C 544.234375 233.070312 544.695312 233.484375 545.132812 233.925781 C 545.570312 234.363281 545.988281 234.824219 546.382812 235.304688 C 546.777344 235.785156 547.144531 236.28125 547.492188 236.800781 C 547.835938 237.316406 548.15625 237.847656 548.449219 238.394531 C 548.742188 238.941406 549.007812 239.503906 549.242188 240.078125 C 549.480469 240.652344 549.691406 241.234375 549.871094 241.828125 C 550.050781 242.425781 550.203125 243.027344 550.324219 243.636719 C 550.445312 244.246094 550.535156 244.859375 550.597656 245.476562 C 550.65625 246.09375 550.6875 246.714844 550.6875 247.335938 Z M 550.6875 247.335938 "/><path style=" stroke:none;fill-rule:nonzero;fill:#ffffff;fill-opacity:1;" d="M 531.722656 242.59375 C 531.722656 243.03125 531.679688 243.460938 531.59375 243.890625 C 531.511719 244.316406 531.382812 244.734375 531.21875 245.136719 C 531.050781 245.539062 530.847656 245.921875 530.605469 246.28125 C 530.363281 246.644531 530.085938 246.980469 529.777344 247.289062 C 529.46875 247.597656 529.136719 247.871094 528.773438 248.113281 C 528.410156 248.355469 528.027344 248.5625 527.625 248.726562 C 527.222656 248.894531 526.808594 249.019531 526.378906 249.105469 C 525.953125 249.191406 525.519531 249.234375 525.085938 249.234375 C 524.648438 249.234375 524.214844 249.191406 523.789062 249.105469 C 523.363281 249.019531 522.945312 248.894531 522.542969 248.726562 C 522.140625 248.5625 521.757812 248.355469 521.394531 248.113281 C 521.035156 247.871094 520.699219 247.597656 520.390625 247.289062 C 520.082031 246.980469 519.808594 246.644531 519.566406 246.28125 C 519.324219 245.921875 519.117188 245.539062 518.949219 245.136719 C 518.785156 244.734375 518.660156 244.316406 518.574219 243.890625 C 518.488281 243.460938 518.445312 243.03125 518.445312 242.59375 C 518.445312 242.160156 518.488281 241.726562 518.574219 241.300781 C 518.660156 240.871094 518.785156 240.457031 518.949219 240.054688 C 519.117188 239.652344 519.324219 239.269531 519.566406 238.90625 C 519.808594 238.542969 520.082031 238.210938 520.390625 237.902344 C 520.699219 237.59375 521.035156 237.316406 521.394531 237.074219 C 521.757812 236.832031 522.140625 236.628906 522.542969 236.460938 C 522.945312 236.296875 523.363281 236.167969 523.789062 236.085938 C 524.214844 236 524.648438 235.957031 525.085938 235.957031 C 525.519531 235.957031 525.953125 236 526.378906 236.085938 C 526.808594 236.167969 527.222656 236.296875 527.625 236.460938 C 528.027344 236.628906 528.410156 236.832031 528.773438 237.074219 C 529.136719 237.316406 529.46875 237.59375 529.777344 237.902344 C 530.085938 238.210938 530.363281 238.542969 530.605469 238.90625 C 530.847656 239.269531 531.050781 239.652344 531.21875 240.054688 C 531.382812 240.457031 531.511719 240.871094 531.59375 241.300781 C 531.679688 241.726562 531.722656 242.160156 531.722656 242.59375 Z M 531.722656 242.59375 "/><path style="fill:none;stroke-width:2;stroke-linecap:round;stroke-linejoin:miter;stroke:#242424;stroke-opacity:1;stroke-miterlimit:4;" d="M 121.751605 92.000005 C 122.562417 93.667106 124.811839 96.499958 130.252378 96.499958 C 134.75233 96.499958 138.42816 93.667106 138.752041 92.000005 " transform="matrix(3.521739,0,0,3.521739,0.0000035,0.00002)"/><path style=" stroke:none;fill-rule:nonzero;fill:#a9d6e6;fill-opacity:1;" d="M 438.246094 109.390625 C 438.441406 109.742188 438.554688 110.140625 438.59375 110.578125 C 438.628906 111.019531 438.585938 111.496094 438.460938 112.019531 C 438.339844 112.539062 438.136719 113.097656 437.855469 113.695312 C 437.574219 114.292969 437.214844 114.925781 436.777344 115.59375 C 436.339844 116.261719 435.828125 116.964844 435.238281 117.699219 C 434.652344 118.429688 433.988281 119.191406 433.257812 119.984375 C 432.523438 120.773438 431.71875 121.589844 430.84375 122.429688 C 429.972656 123.269531 429.035156 124.128906 428.03125 125.011719 C 427.027344 125.894531 425.964844 126.792969 424.839844 127.707031 C 423.71875 128.625 422.539062 129.550781 421.304688 130.492188 C 420.070312 131.429688 418.789062 132.378906 417.457031 133.332031 C 416.125 134.289062 414.753906 135.246094 413.335938 136.207031 C 411.917969 137.167969 410.464844 138.128906 408.980469 139.085938 C 407.492188 140.046875 405.972656 141 404.429688 141.945312 C 402.882812 142.890625 401.316406 143.824219 399.730469 144.75 C 398.144531 145.675781 396.542969 146.585938 394.929688 147.476562 C 393.3125 148.371094 391.695312 149.246094 390.066406 150.101562 C 388.441406 150.957031 386.820312 151.789062 385.195312 152.597656 C 383.574219 153.40625 381.964844 154.1875 380.363281 154.941406 C 378.761719 155.695312 377.175781 156.417969 375.609375 157.105469 C 374.042969 157.796875 372.503906 158.453125 370.988281 159.078125 C 369.472656 159.699219 367.988281 160.285156 366.539062 160.832031 C 365.085938 161.378906 363.675781 161.886719 362.304688 162.355469 C 360.929688 162.820312 359.605469 163.246094 358.324219 163.628906 C 357.046875 164.011719 355.816406 164.351562 354.644531 164.644531 C 353.46875 164.9375 352.351562 165.1875 351.289062 165.390625 C 350.230469 165.59375 349.234375 165.75 348.300781 165.859375 C 347.367188 165.972656 346.5 166.035156 345.703125 166.050781 C 344.90625 166.066406 344.175781 166.035156 343.519531 165.957031 C 342.867188 165.878906 342.285156 165.753906 341.777344 165.582031 C 341.269531 165.410156 340.839844 165.191406 340.488281 164.925781 C 340.136719 164.664062 339.859375 164.355469 339.664062 164.003906 C 339.46875 163.648438 339.351562 163.253906 339.316406 162.8125 C 339.28125 162.375 339.324219 161.894531 339.445312 161.375 C 339.570312 160.851562 339.773438 160.292969 340.054688 159.695312 C 340.335938 159.097656 340.695312 158.464844 341.132812 157.796875 C 341.566406 157.128906 342.082031 156.429688 342.667969 155.695312 C 343.257812 154.960938 343.917969 154.199219 344.652344 153.410156 C 345.386719 152.621094 346.191406 151.804688 347.0625 150.964844 C 347.9375 150.125 348.875 149.261719 349.878906 148.378906 C 350.882812 147.5 351.945312 146.601562 353.070312 145.683594 C 354.191406 144.769531 355.371094 143.839844 356.605469 142.902344 C 357.839844 141.960938 359.121094 141.015625 360.453125 140.058594 C 361.785156 139.105469 363.15625 138.144531 364.574219 137.183594 C 365.992188 136.222656 367.441406 135.261719 368.929688 134.304688 C 370.417969 133.347656 371.933594 132.394531 373.480469 131.449219 C 375.027344 130.503906 376.589844 129.566406 378.179688 128.644531 C 379.765625 127.71875 381.367188 126.808594 382.980469 125.914062 C 384.597656 125.019531 386.214844 124.144531 387.839844 123.289062 C 389.46875 122.433594 391.089844 121.601562 392.710938 120.792969 C 394.332031 119.984375 395.945312 119.207031 397.546875 118.453125 C 399.148438 117.699219 400.730469 116.976562 402.296875 116.285156 C 403.863281 115.59375 405.40625 114.9375 406.921875 114.316406 C 408.4375 113.691406 409.921875 113.109375 411.371094 112.5625 C 412.824219 112.011719 414.234375 111.507812 415.605469 111.039062 C 416.976562 110.570312 418.304688 110.148438 419.585938 109.765625 C 420.863281 109.382812 422.089844 109.042969 423.265625 108.75 C 424.441406 108.453125 425.558594 108.207031 426.617188 108.003906 C 427.679688 107.800781 428.675781 107.640625 429.609375 107.53125 C 430.542969 107.421875 431.40625 107.359375 432.207031 107.34375 C 433.003906 107.328125 433.730469 107.359375 434.386719 107.4375 C 435.042969 107.515625 435.625 107.640625 436.132812 107.8125 C 436.640625 107.984375 437.070312 108.203125 437.421875 108.464844 C 437.773438 108.730469 438.046875 109.039062 438.246094 109.390625 Z M 438.246094 109.390625 "/><path style="fill:none;stroke-width:2;stroke-linecap:butt;stroke-linejoin:miter;stroke:#2a2e39;stroke-opacity:1;stroke-miterlimit:4;" d="M 80.251552 56.000387 C 83.25189 41.500048 94.25165 19.999659 129.752137 19.999659 C 162.752526 19.999659 175.251901 42.000289 178.252239 56.000387 " transform="matrix(3.521739,0,0,3.521739,0.0000035,0.00002)"/><path style="fill:none;stroke-width:2;stroke-linecap:butt;stroke-linejoin:miter;stroke:#2a2e39;stroke-opacity:1;stroke-miterlimit:4;" d="M 74.752226 78.999281 C 105.25252 101.500151 82.752758 116.499623 128.252522 116.499623 " transform="matrix(3.521739,0,0,3.521739,0.0000035,0.00002)"/><path style=" stroke:none;fill-rule:nonzero;fill:#2a2e39;fill-opacity:1;" d="M 416.363281 408.765625 C 417.144531 400.636719 423.976562 394.433594 432.136719 394.433594 L 488.386719 394.433594 C 496.40625 394.433594 503.164062 400.425781 504.121094 408.386719 C 505.257812 417.824219 497.890625 426.128906 488.386719 426.128906 L 432.136719 426.128906 C 422.789062 426.128906 415.464844 418.074219 416.363281 408.765625 Z M 416.363281 408.765625 "/><path style=" stroke:none;fill-rule:nonzero;fill:#96c9dc;fill-opacity:1;" d="M 117.105469 373.304688 C 125.558594 401.476562 97.148438 420.257812 81.886719 426.128906 C 67.800781 413.804688 53.125 423.78125 50.191406 431.414062 C -8.972656 411.691406 -3.808594 365.671875 6.171875 345.128906 C 41.386719 405.703125 94.800781 389.152344 117.105469 373.304688 Z M 117.105469 373.304688 "/><path style=" stroke:none;fill-rule:evenodd;fill:#dbf5bd;fill-opacity:1;" d="M 82.03125 109.175781 C 59.695312 109.175781 40.148438 124.191406 34.390625 145.773438 L 18.425781 205.644531 C 10.082031 236.945312 33.671875 267.652344 66.066406 267.652344 L 104.023438 267.652344 C 129.378906 319.773438 167.414062 315.195312 183.261719 306.390625 C 152.269531 303.574219 149.21875 279.390625 151.566406 267.652344 L 172.019531 267.652344 C 198.820312 267.652344 220.714844 246.238281 221.3125 219.441406 L 222.640625 159.574219 C 223.253906 131.921875 201.007812 109.175781 173.347656 109.175781 Z M 82.03125 109.175781 "/><path style=" stroke:none;fill-rule:nonzero;fill:#242424;fill-opacity:1;" d="M 94.214844 190.175781 C 94.214844 191.097656 94.125 192.015625 93.941406 192.921875 C 93.761719 193.828125 93.496094 194.710938 93.140625 195.566406 C 92.789062 196.417969 92.351562 197.230469 91.839844 198 C 91.324219 198.769531 90.742188 199.480469 90.085938 200.136719 C 89.433594 200.789062 88.722656 201.371094 87.953125 201.886719 C 87.183594 202.402344 86.371094 202.835938 85.515625 203.1875 C 84.664062 203.542969 83.78125 203.808594 82.875 203.988281 C 81.96875 204.171875 81.050781 204.261719 80.125 204.261719 C 79.203125 204.261719 78.285156 204.171875 77.378906 203.988281 C 76.472656 203.808594 75.589844 203.542969 74.734375 203.1875 C 73.882812 202.835938 73.070312 202.402344 72.300781 201.886719 C 71.53125 201.371094 70.820312 200.789062 70.164062 200.136719 C 69.511719 199.480469 68.925781 198.769531 68.414062 198 C 67.898438 197.230469 67.464844 196.417969 67.113281 195.566406 C 66.757812 194.710938 66.492188 193.828125 66.308594 192.921875 C 66.128906 192.015625 66.039062 191.097656 66.039062 190.175781 C 66.039062 189.25 66.128906 188.332031 66.308594 187.425781 C 66.492188 186.519531 66.757812 185.636719 67.113281 184.78125 C 67.464844 183.929688 67.898438 183.117188 68.414062 182.347656 C 68.925781 181.578125 69.511719 180.867188 70.164062 180.214844 C 70.820312 179.558594 71.53125 178.976562 72.300781 178.460938 C 73.070312 177.945312 73.882812 177.511719 74.734375 177.160156 C 75.589844 176.804688 76.472656 176.539062 77.378906 176.359375 C 78.285156 176.175781 79.203125 176.085938 80.125 176.085938 C 81.050781 176.085938 81.96875 176.175781 82.875 176.359375 C 83.78125 176.539062 84.664062 176.804688 85.515625 177.160156 C 86.371094 177.511719 87.183594 177.945312 87.953125 178.460938 C 88.722656 178.976562 89.433594 179.558594 90.085938 180.214844 C 90.742188 180.867188 91.324219 181.578125 91.839844 182.347656 C 92.351562 183.117188 92.789062 183.929688 93.140625 184.78125 C 93.496094 185.636719 93.761719 186.519531 93.941406 187.425781 C 94.125 188.332031 94.214844 189.25 94.214844 190.175781 Z M 94.214844 190.175781 "/><path style=" stroke:none;fill-rule:nonzero;fill:#242424;fill-opacity:1;" d="M 136.472656 190.175781 C 136.472656 191.097656 136.382812 192.015625 136.203125 192.921875 C 136.023438 193.828125 135.757812 194.710938 135.402344 195.566406 C 135.046875 196.417969 134.613281 197.230469 134.101562 198 C 133.585938 198.769531 133.003906 199.480469 132.347656 200.136719 C 131.695312 200.789062 130.984375 201.371094 130.214844 201.886719 C 129.445312 202.402344 128.632812 202.835938 127.777344 203.1875 C 126.921875 203.542969 126.042969 203.808594 125.136719 203.988281 C 124.226562 204.171875 123.3125 204.261719 122.386719 204.261719 C 121.460938 204.261719 120.546875 204.171875 119.640625 203.988281 C 118.730469 203.808594 117.851562 203.542969 116.996094 203.1875 C 116.140625 202.835938 115.332031 202.402344 114.5625 201.886719 C 113.792969 201.371094 113.082031 200.789062 112.425781 200.136719 C 111.773438 199.480469 111.1875 198.769531 110.675781 198 C 110.160156 197.230469 109.726562 196.417969 109.371094 195.566406 C 109.019531 194.710938 108.75 193.828125 108.570312 192.921875 C 108.390625 192.015625 108.300781 191.097656 108.300781 190.175781 C 108.300781 189.25 108.390625 188.332031 108.570312 187.425781 C 108.75 186.519531 109.019531 185.636719 109.371094 184.78125 C 109.726562 183.929688 110.160156 183.117188 110.675781 182.347656 C 111.1875 181.578125 111.773438 180.867188 112.425781 180.214844 C 113.082031 179.558594 113.792969 178.976562 114.5625 178.460938 C 115.332031 177.945312 116.140625 177.511719 116.996094 177.160156 C 117.851562 176.804688 118.730469 176.539062 119.640625 176.359375 C 120.546875 176.175781 121.460938 176.085938 122.386719 176.085938 C 123.3125 176.085938 124.226562 176.175781 125.136719 176.359375 C 126.042969 176.539062 126.921875 176.804688 127.777344 177.160156 C 128.632812 177.511719 129.445312 177.945312 130.214844 178.460938 C 130.984375 178.976562 131.695312 179.558594 132.347656 180.214844 C 133.003906 180.867188 133.585938 181.578125 134.101562 182.347656 C 134.613281 183.117188 135.046875 183.929688 135.402344 184.78125 C 135.757812 185.636719 136.023438 186.519531 136.203125 187.425781 C 136.382812 188.332031 136.472656 189.25 136.472656 190.175781 Z M 136.472656 190.175781 "/><path style=" stroke:none;fill-rule:nonzero;fill:#242424;fill-opacity:1;" d="M 178.734375 190.175781 C 178.734375 191.097656 178.644531 192.015625 178.464844 192.921875 C 178.285156 193.828125 178.015625 194.710938 177.664062 195.566406 C 177.308594 196.417969 176.875 197.230469 176.359375 198 C 175.847656 198.769531 175.261719 199.480469 174.609375 200.136719 C 173.957031 200.789062 173.242188 201.371094 172.476562 201.886719 C 171.707031 202.402344 170.894531 202.835938 170.039062 203.1875 C 169.183594 203.542969 168.304688 203.808594 167.398438 203.988281 C 166.488281 204.171875 165.574219 204.261719 164.648438 204.261719 C 163.722656 204.261719 162.808594 204.171875 161.898438 203.988281 C 160.992188 203.808594 160.113281 203.542969 159.257812 203.1875 C 158.402344 202.835938 157.589844 202.402344 156.820312 201.886719 C 156.054688 201.371094 155.339844 200.789062 154.6875 200.136719 C 154.035156 199.480469 153.449219 198.769531 152.933594 198 C 152.421875 197.230469 151.988281 196.417969 151.632812 195.566406 C 151.28125 194.710938 151.011719 193.828125 150.832031 192.921875 C 150.652344 192.015625 150.5625 191.097656 150.5625 190.175781 C 150.5625 189.25 150.652344 188.332031 150.832031 187.425781 C 151.011719 186.519531 151.28125 185.636719 151.632812 184.78125 C 151.988281 183.929688 152.421875 183.117188 152.933594 182.347656 C 153.449219 181.578125 154.035156 180.867188 154.6875 180.214844 C 155.339844 179.558594 156.054688 178.976562 156.820312 178.460938 C 157.589844 177.945312 158.402344 177.511719 159.257812 177.160156 C 160.113281 176.804688 160.992188 176.539062 161.898438 176.359375 C 162.808594 176.175781 163.722656 176.085938 164.648438 176.085938 C 165.574219 176.085938 166.488281 176.175781 167.398438 176.359375 C 168.304688 176.539062 169.183594 176.804688 170.039062 177.160156 C 170.894531 177.511719 171.707031 177.945312 172.476562 178.460938 C 173.242188 178.976562 173.957031 179.558594 174.609375 180.214844 C 175.261719 180.867188 175.847656 181.578125 176.359375 182.347656 C 176.875 183.117188 177.308594 183.929688 177.664062 184.78125 C 178.015625 185.636719 178.285156 186.519531 178.464844 187.425781 C 178.644531 188.332031 178.734375 189.25 178.734375 190.175781 Z M 178.734375 190.175781 "/><path style="fill:none;stroke-width:1;stroke-linecap:butt;stroke-linejoin:miter;stroke:#000000;stroke-opacity:1;stroke-miterlimit:4;" d="M 123.355483 141.000349 L 110.751845 166.000207 L 116.232314 166.000207 L 118.422949 161.408193 L 133.766267 161.408193 L 135.958011 166.000207 L 141.985308 166.000207 L 128.833734 141.000349 Z M 123.355483 141.000349 " transform="matrix(3.521739,0,0,3.521739,0.0000035,0.00002)"/><path style="fill:none;stroke-width:1;stroke-linecap:butt;stroke-linejoin:miter;stroke:#000000;stroke-opacity:1;stroke-miterlimit:4;" d="M 145.272924 141.000349 L 150.752284 141.000349 L 150.752284 166.000207 L 145.272924 166.000207 Z M 145.272924 141.000349 " transform="matrix(3.521739,0,0,3.521739,0.0000035,0.00002)"/></g></svg>