<svg xmlns="http://www.w3.org/2000/svg" xmlns:xlink="http://www.w3.org/1999/xlink" width="1080" zoomAndPan="magnify" viewBox="0 0 810 809.999993" height="1080" preserveAspectRatio="xMidYMid meet" version="1.2"><defs><clipPath id="c7cbd55436"><path d="M 4.417969 0 L 474 0 L 474 439 L 4.417969 439 Z M 4.417969 0 "/></clipPath><clipPath id="fb33c77674"><path d="M 69 42 L 805.417969 42 L 805.417969 810 L 69 810 Z M 69 42 "/></clipPath></defs><g id="02d00cb7a5"><path style=" stroke:none;fill-rule:nonzero;fill:#ffd788;fill-opacity:1;" d="M 498.042969 262.40625 C 480.800781 276.199219 463.878906 274.945312 463.878906 274.945312 L 452.527344 256.523438 L 451.339844 257.078125 C 451.339844 257.078125 451.460938 256.363281 451.683594 255.152344 L 444.757812 243.917969 L 454.316406 242.992188 C 457.175781 231.507812 461.941406 217.148438 467.949219 216.960938 C 475.035156 216.738281 473.832031 232.148438 472.511719 241.226562 L 473.84375 241.097656 C 473.84375 241.097656 491.140625 245.800781 497.410156 238.902344 C 503.679688 232.007812 515.273438 221.34375 519.347656 223.542969 C 523.421875 225.746094 515.277344 248.613281 498.042969 262.40625 Z M 325.285156 115.636719 L 298.574219 122.886719 L 292.015625 177.441406 C 291.886719 178.933594 292.019531 180.402344 292.414062 181.851562 C 292.808594 183.296875 293.441406 184.628906 294.3125 185.847656 L 284.417969 188.144531 C 284.417969 188.144531 278.550781 228.542969 307.546875 228.542969 C 336.546875 228.542969 333.441406 215.078125 333.441406 215.078125 L 333.488281 195.703125 C 377.460938 192.160156 350.355469 115.636719 350.355469 115.636719 Z M 325.285156 115.636719 "/><path style=" stroke:none;fill-rule:nonzero;fill:#fb8500;fill-opacity:1;" d="M 558.214844 181.535156 C 542.238281 199.402344 488.328125 254.882812 488.328125 254.882812 L 297.664062 254.882812 L 404.023438 168.996094 L 404.023438 54.738281 C 404.023438 53.90625 404.105469 53.078125 404.269531 52.261719 C 404.429688 51.445312 404.671875 50.648438 404.992188 49.878906 C 405.308594 49.109375 405.699219 48.378906 406.164062 47.683594 C 406.625 46.992188 407.152344 46.351562 407.742188 45.761719 C 408.332031 45.171875 408.972656 44.644531 409.664062 44.183594 C 410.359375 43.71875 411.089844 43.328125 411.859375 43.007812 C 412.628906 42.691406 413.425781 42.449219 414.242188 42.285156 C 415.058594 42.125 415.882812 42.042969 416.71875 42.042969 L 559.9375 42.042969 C 560.769531 42.042969 561.597656 42.125 562.414062 42.285156 C 563.230469 42.449219 564.023438 42.691406 564.792969 43.007812 C 565.566406 43.328125 566.296875 43.71875 566.988281 44.183594 C 567.683594 44.644531 568.324219 45.171875 568.914062 45.761719 C 569.503906 46.351562 570.027344 46.992188 570.492188 47.683594 C 570.953125 48.378906 571.34375 49.109375 571.664062 49.878906 C 571.984375 50.648438 572.222656 51.445312 572.386719 52.261719 C 572.550781 53.078125 572.628906 53.90625 572.628906 54.738281 L 572.628906 156.304688 C 572.628906 156.304688 574.195312 163.667969 558.214844 181.535156 Z M 286.417969 418.390625 L 272.828125 408.402344 C 268.21875 411.332031 264.230469 414.945312 260.855469 419.238281 L 260.71875 419.238281 L 260.71875 419.398438 C 252.492188 429.554688 243.804688 447.304688 247.894531 474.945312 C 250.785156 494.460938 257.191406 508.207031 263.816406 517.660156 L 266.363281 598.46875 L 260.714844 764.789062 C 283.316406 776.902344 326.1875 764.789062 326.1875 764.789062 C 358.5625 776.09375 395.519531 764.789062 395.519531 764.789062 L 411.109375 594.433594 L 411.109375 416.378906 L 358.617188 416.007812 Z M 527.1875 317.421875 L 488.753906 317.421875 C 488.347656 317.421875 487.945312 317.464844 487.550781 317.542969 C 487.152344 317.621094 486.765625 317.738281 486.390625 317.894531 C 486.019531 318.046875 485.664062 318.238281 485.324219 318.464844 C 484.988281 318.6875 484.675781 318.945312 484.390625 319.230469 C 484.105469 319.515625 483.847656 319.828125 483.625 320.164062 C 483.398438 320.503906 483.207031 320.859375 483.054688 321.230469 C 482.898438 321.605469 482.78125 321.992188 482.703125 322.390625 C 482.625 322.785156 482.585938 323.1875 482.585938 323.59375 L 482.585938 444.371094 C 482.585938 444.777344 482.625 445.175781 482.703125 445.574219 C 482.78125 445.972656 482.898438 446.355469 483.054688 446.730469 C 483.207031 447.105469 483.398438 447.460938 483.625 447.796875 C 483.847656 448.136719 484.105469 448.445312 484.390625 448.734375 C 484.675781 449.019531 484.988281 449.273438 485.324219 449.5 C 485.664062 449.726562 486.019531 449.914062 486.390625 450.070312 C 486.765625 450.226562 487.152344 450.34375 487.550781 450.421875 C 487.945312 450.5 488.347656 450.539062 488.753906 450.539062 L 527.1875 450.539062 C 527.59375 450.539062 527.996094 450.5 528.390625 450.421875 C 528.789062 450.34375 529.175781 450.226562 529.550781 450.070312 C 529.925781 449.914062 530.28125 449.726562 530.617188 449.5 C 530.953125 449.273438 531.265625 449.019531 531.550781 448.734375 C 531.835938 448.445312 532.09375 448.136719 532.316406 447.796875 C 532.542969 447.460938 532.734375 447.105469 532.886719 446.730469 C 533.042969 446.355469 533.160156 445.972656 533.238281 445.574219 C 533.316406 445.175781 533.359375 444.777344 533.359375 444.371094 L 533.359375 323.59375 C 533.359375 323.191406 533.320312 322.789062 533.238281 322.390625 C 533.160156 321.992188 533.042969 321.609375 532.890625 321.234375 C 532.734375 320.859375 532.542969 320.503906 532.320312 320.167969 C 532.09375 319.828125 531.839844 319.519531 531.550781 319.230469 C 531.265625 318.945312 530.953125 318.6875 530.617188 318.464844 C 530.28125 318.238281 529.925781 318.046875 529.550781 317.894531 C 529.175781 317.738281 528.789062 317.621094 528.394531 317.542969 C 527.996094 317.464844 527.59375 317.421875 527.1875 317.421875 Z M 615.425781 249.746094 L 576.988281 249.746094 C 576.585938 249.746094 576.183594 249.785156 575.785156 249.863281 C 575.390625 249.945312 575.003906 250.058594 574.628906 250.214844 C 574.253906 250.371094 573.898438 250.558594 573.5625 250.785156 C 573.226562 251.011719 572.914062 251.265625 572.628906 251.554688 C 572.339844 251.839844 572.085938 252.152344 571.859375 252.488281 C 571.636719 252.824219 571.445312 253.179688 571.289062 253.554688 C 571.136719 253.929688 571.019531 254.316406 570.941406 254.710938 C 570.859375 255.109375 570.820312 255.511719 570.820312 255.914062 L 570.820312 444.371094 C 570.820312 444.777344 570.859375 445.179688 570.941406 445.574219 C 571.019531 445.972656 571.136719 446.359375 571.289062 446.734375 C 571.445312 447.105469 571.636719 447.460938 571.859375 447.800781 C 572.085938 448.136719 572.339844 448.449219 572.628906 448.734375 C 572.914062 449.019531 573.226562 449.277344 573.5625 449.503906 C 573.898438 449.726562 574.253906 449.917969 574.628906 450.070312 C 575.003906 450.226562 575.390625 450.34375 575.785156 450.421875 C 576.183594 450.503906 576.585938 450.542969 576.988281 450.542969 L 615.425781 450.542969 C 615.832031 450.542969 616.230469 450.503906 616.628906 450.421875 C 617.027344 450.34375 617.414062 450.226562 617.785156 450.070312 C 618.160156 449.917969 618.515625 449.726562 618.851562 449.503906 C 619.191406 449.277344 619.5 449.019531 619.789062 448.734375 C 620.074219 448.449219 620.328125 448.136719 620.554688 447.800781 C 620.78125 447.460938 620.96875 447.105469 621.125 446.734375 C 621.28125 446.359375 621.398438 445.972656 621.476562 445.574219 C 621.554688 445.179688 621.59375 444.777344 621.59375 444.371094 L 621.59375 255.917969 C 621.59375 255.511719 621.554688 255.109375 621.476562 254.714844 C 621.398438 254.316406 621.28125 253.929688 621.125 253.554688 C 620.96875 253.179688 620.78125 252.824219 620.554688 252.488281 C 620.332031 252.152344 620.074219 251.839844 619.789062 251.554688 C 619.503906 251.265625 619.191406 251.011719 618.855469 250.785156 C 618.515625 250.5625 618.160156 250.371094 617.785156 250.214844 C 617.414062 250.058594 617.027344 249.945312 616.628906 249.863281 C 616.230469 249.785156 615.832031 249.746094 615.425781 249.746094 Z M 703.660156 140.585938 L 665.226562 140.585938 C 664.820312 140.585938 664.417969 140.625 664.023438 140.703125 C 663.625 140.78125 663.238281 140.898438 662.863281 141.054688 C 662.492188 141.210938 662.136719 141.398438 661.796875 141.625 C 661.460938 141.851562 661.148438 142.105469 660.863281 142.394531 C 660.578125 142.679688 660.320312 142.992188 660.097656 143.328125 C 659.871094 143.664062 659.679688 144.019531 659.527344 144.394531 C 659.371094 144.769531 659.253906 145.15625 659.175781 145.550781 C 659.097656 145.949219 659.054688 146.351562 659.054688 146.753906 L 659.054688 444.371094 C 659.054688 444.777344 659.097656 445.179688 659.175781 445.574219 C 659.253906 445.972656 659.371094 446.359375 659.527344 446.734375 C 659.679688 447.105469 659.871094 447.460938 660.097656 447.800781 C 660.320312 448.136719 660.578125 448.449219 660.863281 448.734375 C 661.148438 449.019531 661.460938 449.277344 661.796875 449.503906 C 662.132812 449.726562 662.488281 449.917969 662.863281 450.070312 C 663.238281 450.226562 663.625 450.34375 664.023438 450.421875 C 664.417969 450.503906 664.820312 450.542969 665.226562 450.542969 L 703.660156 450.542969 C 704.066406 450.542969 704.46875 450.503906 704.863281 450.421875 C 705.261719 450.34375 705.648438 450.226562 706.023438 450.070312 C 706.394531 449.917969 706.75 449.726562 707.089844 449.503906 C 707.425781 449.277344 707.738281 449.019531 708.023438 448.734375 C 708.308594 448.449219 708.566406 448.136719 708.789062 447.800781 C 709.015625 447.460938 709.207031 447.105469 709.359375 446.734375 C 709.515625 446.359375 709.632812 445.972656 709.710938 445.574219 C 709.789062 445.179688 709.828125 444.777344 709.828125 444.371094 L 709.828125 146.753906 C 709.832031 146.347656 709.789062 145.945312 709.710938 145.546875 C 709.632812 145.152344 709.515625 144.765625 709.359375 144.390625 C 709.207031 144.015625 709.015625 143.660156 708.792969 143.324219 C 708.566406 142.984375 708.3125 142.675781 708.023438 142.386719 C 707.738281 142.101562 707.425781 141.84375 707.089844 141.621094 C 706.753906 141.394531 706.398438 141.203125 706.023438 141.050781 C 705.648438 140.894531 705.261719 140.777344 704.863281 140.699219 C 704.46875 140.617188 704.066406 140.578125 703.660156 140.578125 Z M 703.660156 140.585938 "/><g clip-rule="nonzero" clip-path="url(#c7cbd55436)"><path style=" stroke:none;fill-rule:nonzero;fill:#219ebc;fill-opacity:1;" d="M 471.871094 280.679688 C 463.386719 296.746094 438.664062 352.46875 412.433594 359.046875 C 411.800781 391.597656 411.113281 416.378906 411.113281 416.378906 C 411.113281 416.378906 405.261719 438.476562 363.3125 438.476562 C 321.363281 438.476562 256.457031 442.273438 245.753906 427.425781 C 235.054688 412.582031 248.171875 396.351562 250.585938 388.410156 C 251.171875 386.496094 250.789062 380 249.875 371.253906 C 206.15625 385.570312 203.292969 341.796875 203.292969 341.796875 L 203.292969 269.023438 L 30.859375 269.023438 C 30.003906 269.023438 29.152344 268.980469 28.300781 268.898438 C 27.449219 268.8125 26.601562 268.6875 25.761719 268.519531 C 24.925781 268.355469 24.09375 268.144531 23.277344 267.898438 C 22.457031 267.648438 21.652344 267.359375 20.863281 267.035156 C 20.070312 266.707031 19.296875 266.339844 18.542969 265.9375 C 17.789062 265.535156 17.054688 265.09375 16.34375 264.617188 C 15.632812 264.144531 14.945312 263.632812 14.285156 263.089844 C 13.625 262.546875 12.988281 261.972656 12.386719 261.371094 C 11.78125 260.765625 11.207031 260.128906 10.664062 259.46875 C 10.121094 258.808594 9.609375 258.121094 9.136719 257.410156 C 8.660156 256.699219 8.21875 255.964844 7.816406 255.210938 C 7.414062 254.453125 7.046875 253.683594 6.71875 252.890625 C 6.390625 252.101562 6.105469 251.296875 5.855469 250.476562 C 5.605469 249.65625 5.398438 248.828125 5.230469 247.988281 C 5.066406 247.148438 4.941406 246.304688 4.855469 245.453125 C 4.773438 244.601562 4.730469 243.746094 4.730469 242.890625 L 4.730469 26.136719 C 4.730469 25.28125 4.769531 24.425781 4.855469 23.574219 C 4.9375 22.722656 5.066406 21.878906 5.230469 21.039062 C 5.398438 20.199219 5.605469 19.367188 5.855469 18.550781 C 6.101562 17.730469 6.390625 16.925781 6.71875 16.132812 C 7.046875 15.34375 7.410156 14.570312 7.816406 13.816406 C 8.21875 13.0625 8.65625 12.328125 9.132812 11.617188 C 9.609375 10.902344 10.117188 10.21875 10.660156 9.554688 C 11.203125 8.894531 11.777344 8.261719 12.382812 7.65625 C 12.988281 7.050781 13.621094 6.476562 14.285156 5.933594 C 14.945312 5.390625 15.632812 4.878906 16.34375 4.40625 C 17.054688 3.929688 17.789062 3.488281 18.542969 3.085938 C 19.296875 2.683594 20.070312 2.316406 20.859375 1.988281 C 21.652344 1.660156 22.457031 1.375 23.277344 1.125 C 24.09375 0.878906 24.921875 0.667969 25.761719 0.503906 C 26.601562 0.335938 27.449219 0.210938 28.300781 0.125 C 29.152344 0.0429688 30.003906 0 30.859375 0 L 307.40625 0 C 308.261719 0 309.113281 0.0429688 309.964844 0.125 C 310.816406 0.210938 311.664062 0.335938 312.503906 0.503906 C 313.34375 0.667969 314.171875 0.878906 314.988281 1.125 C 315.808594 1.375 316.613281 1.660156 317.40625 1.988281 C 318.195312 2.316406 318.96875 2.683594 319.722656 3.085938 C 320.476562 3.488281 321.210938 3.929688 321.921875 4.40625 C 322.632812 4.878906 323.320312 5.390625 323.980469 5.933594 C 324.644531 6.476562 325.277344 7.050781 325.882812 7.65625 C 326.488281 8.261719 327.0625 8.894531 327.605469 9.554688 C 328.148438 10.21875 328.65625 10.902344 329.132812 11.617188 C 329.609375 12.328125 330.046875 13.0625 330.449219 13.816406 C 330.855469 14.570312 331.21875 15.34375 331.546875 16.132812 C 331.875 16.925781 332.164062 17.730469 332.410156 18.550781 C 332.660156 19.367188 332.867188 20.199219 333.035156 21.039062 C 333.199219 21.878906 333.328125 22.722656 333.410156 23.574219 C 333.496094 24.425781 333.535156 25.28125 333.535156 26.136719 L 333.535156 115.636719 L 325.285156 115.636719 L 298.574219 122.886719 L 292.015625 177.441406 C 291.886719 178.933594 292.019531 180.402344 292.414062 181.851562 C 292.808594 183.296875 293.441406 184.628906 294.3125 185.847656 L 284.417969 188.144531 C 283.6875 194.179688 283.78125 200.203125 284.710938 206.214844 C 284.722656 206.234375 294.394531 220.945312 308.734375 218.527344 C 313.210938 217.710938 317.535156 216.398438 321.707031 214.59375 C 325.882812 212.785156 329.800781 210.53125 333.457031 207.828125 L 333.457031 207.652344 C 333.484375 207.644531 333.511719 207.636719 333.535156 207.625 L 333.535156 207.824219 L 333.835938 207.8125 L 338.640625 207.8125 C 356.367188 208.234375 413.53125 213.664062 413.53125 266.179688 C 413.53125 268.214844 413.53125 270.277344 413.53125 272.367188 C 426.613281 255.914062 443.730469 235.445312 447.175781 236.484375 C 452.886719 238.210938 481.539062 262.378906 471.871094 280.679688 Z M 471.871094 280.679688 "/></g><path style=" stroke:none;fill-rule:nonzero;fill:#8ecae6;fill-opacity:1;" d="M 558.324219 63.597656 L 558.324219 145.589844 C 558.304688 146.28125 558.21875 146.964844 558.066406 147.636719 C 557.914062 148.3125 557.699219 148.964844 557.417969 149.59375 C 557.136719 150.226562 556.796875 150.824219 556.398438 151.390625 C 556 151.953125 555.550781 152.472656 555.050781 152.949219 C 554.546875 153.425781 554.007812 153.847656 553.421875 154.214844 C 552.839844 154.585938 552.222656 154.894531 551.578125 155.144531 C 550.933594 155.390625 550.273438 155.574219 549.589844 155.691406 C 548.910156 155.808594 548.226562 155.859375 547.535156 155.84375 L 425.800781 155.84375 C 425.109375 155.859375 424.425781 155.808594 423.746094 155.691406 C 423.0625 155.574219 422.402344 155.390625 421.757812 155.144531 C 421.113281 154.894531 420.496094 154.585938 419.914062 154.21875 C 419.328125 153.847656 418.789062 153.425781 418.285156 152.949219 C 417.785156 152.472656 417.335938 151.953125 416.9375 151.390625 C 416.539062 150.824219 416.199219 150.226562 415.917969 149.597656 C 415.636719 148.964844 415.421875 148.3125 415.269531 147.636719 C 415.117188 146.964844 415.03125 146.28125 415.011719 145.589844 L 415.011719 63.597656 C 415.03125 62.90625 415.117188 62.226562 415.269531 61.550781 C 415.421875 60.875 415.636719 60.222656 415.917969 59.59375 C 416.199219 58.960938 416.539062 58.363281 416.9375 57.800781 C 417.335938 57.234375 417.785156 56.714844 418.285156 56.238281 C 418.789062 55.761719 419.328125 55.339844 419.914062 54.972656 C 420.496094 54.601562 421.113281 54.292969 421.757812 54.046875 C 422.402344 53.796875 423.0625 53.613281 423.746094 53.496094 C 424.425781 53.378906 425.109375 53.328125 425.800781 53.347656 L 547.535156 53.347656 C 548.226562 53.328125 548.910156 53.378906 549.589844 53.496094 C 550.273438 53.613281 550.933594 53.796875 551.578125 54.046875 C 552.222656 54.292969 552.839844 54.601562 553.421875 54.972656 C 554.007812 55.339844 554.546875 55.765625 555.050781 56.238281 C 555.550781 56.714844 556 57.234375 556.398438 57.800781 C 556.796875 58.363281 557.136719 58.960938 557.417969 59.59375 C 557.699219 60.222656 557.914062 60.878906 558.066406 61.550781 C 558.21875 62.226562 558.304688 62.90625 558.324219 63.597656 Z M 295.394531 20.726562 L 42.871094 20.726562 C 42.03125 20.726562 41.199219 20.808594 40.371094 20.972656 C 39.546875 21.136719 38.746094 21.378906 37.96875 21.703125 C 37.191406 22.023438 36.453125 22.421875 35.753906 22.886719 C 35.054688 23.355469 34.40625 23.886719 33.8125 24.484375 C 33.21875 25.078125 32.6875 25.726562 32.21875 26.425781 C 31.753906 27.125 31.359375 27.863281 31.035156 28.640625 C 30.714844 29.417969 30.472656 30.222656 30.308594 31.046875 C 30.144531 31.871094 30.0625 32.707031 30.0625 33.546875 L 30.0625 235.484375 C 30.0625 236.328125 30.144531 237.160156 30.308594 237.988281 C 30.472656 238.8125 30.714844 239.613281 31.035156 240.390625 C 31.359375 241.171875 31.753906 241.910156 32.222656 242.609375 C 32.6875 243.308594 33.21875 243.957031 33.816406 244.550781 C 34.410156 245.148438 35.058594 245.679688 35.757812 246.148438 C 36.457031 246.617188 37.195312 247.011719 37.972656 247.332031 C 38.753906 247.65625 39.554688 247.898438 40.378906 248.0625 C 41.207031 248.226562 42.039062 248.308594 42.878906 248.308594 L 206.070312 248.308594 C 215.808594 216.5625 247.898438 210.585938 247.898438 210.585938 L 284.710938 206.214844 C 283.78125 200.203125 283.683594 194.179688 284.417969 188.144531 L 294.3125 185.847656 C 293.441406 184.628906 292.808594 183.296875 292.410156 181.851562 C 292.015625 180.402344 291.882812 178.933594 292.011719 177.441406 L 298.570312 122.886719 L 308.210938 120.269531 L 308.210938 33.539062 C 308.210938 32.699219 308.128906 31.863281 307.964844 31.039062 C 307.800781 30.214844 307.554688 29.414062 307.234375 28.636719 C 306.910156 27.859375 306.515625 27.117188 306.050781 26.417969 C 305.582031 25.71875 305.050781 25.074219 304.453125 24.476562 C 303.859375 23.882812 303.210938 23.351562 302.511719 22.882812 C 301.8125 22.417969 301.074219 22.023438 300.296875 21.699219 C 299.519531 21.378906 298.71875 21.136719 297.894531 20.972656 C 297.066406 20.808594 296.234375 20.726562 295.394531 20.726562 Z M 295.394531 20.726562 "/><g clip-rule="nonzero" clip-path="url(#fb33c77674)"><path style=" stroke:none;fill-rule:nonzero;fill:#023047;fill-opacity:1;" d="M 283.929688 196.046875 C 270.960938 191.597656 242.300781 168.460938 248.863281 122.539062 C 253.847656 87.628906 288.140625 87.242188 304.3125 89.0625 C 331.609375 78.636719 360.316406 84.308594 363.128906 108.382812 C 366.234375 134.972656 328.609375 136.703125 328.609375 136.703125 C 328.609375 136.703125 315.488281 126.34375 310.308594 138.773438 C 305.132812 151.203125 325.285156 157.414062 325.285156 157.414062 L 317.355469 184.800781 C 317.046875 185.871094 316.609375 186.894531 316.054688 187.863281 C 315.496094 188.828125 314.832031 189.71875 314.0625 190.527344 C 313.289062 191.335938 312.433594 192.039062 311.496094 192.640625 C 310.554688 193.246094 309.554688 193.726562 308.5 194.089844 C 301.90625 196.367188 291.871094 198.773438 283.929688 196.046875 Z M 402.140625 746.976562 C 400.277344 746.976562 398.5625 747 397.050781 747.039062 L 396.28125 747.058594 L 394.71875 764.128906 C 382.871094 767.292969 370.816406 768.902344 358.554688 768.957031 C 348.375 769.066406 338.417969 767.640625 328.675781 764.683594 C 328.777344 764.386719 328.820312 764.082031 328.808594 763.769531 L 317.746094 518.835938 L 317.703125 517.871094 L 317.039062 517.167969 C 303.246094 502.613281 304.089844 489.527344 304.101562 489.398438 C 304.128906 489.054688 304.089844 488.722656 303.988281 488.394531 C 303.882812 488.066406 303.71875 487.769531 303.5 487.507812 C 303.277344 487.246094 303.011719 487.035156 302.707031 486.878906 C 302.402344 486.71875 302.078125 486.625 301.738281 486.597656 C 301.394531 486.566406 301.058594 486.605469 300.734375 486.707031 C 300.40625 486.8125 300.109375 486.976562 299.847656 487.195312 C 299.585938 487.417969 299.375 487.679688 299.214844 487.984375 C 299.058594 488.289062 298.960938 488.613281 298.933594 488.957031 C 298.878906 489.570312 297.804688 503.9375 312.613281 520.023438 L 323.628906 764.003906 C 323.636719 764.1875 323.667969 764.367188 323.714844 764.542969 C 311.90625 767.496094 299.914062 769.082031 287.746094 769.308594 C 284.546875 769.316406 281.355469 769.148438 278.175781 768.808594 L 277.269531 768.710938 L 277.21875 769.621094 C 276.742188 778.15625 277.21875 793.828125 285.8125 802.925781 C 290.242188 807.617188 296.304688 809.996094 303.808594 809.996094 C 309.738281 809.996094 315.597656 809.335938 321.378906 808.011719 C 327.164062 806.691406 332.726562 804.742188 338.066406 802.164062 C 341.09375 807.363281 346.019531 809.996094 352.707031 809.996094 C 373.875 809.996094 445.347656 785.4375 448.324219 764.300781 C 448.570312 762.804688 448.476562 761.324219 448.050781 759.867188 C 447.625 758.410156 446.902344 757.117188 445.890625 755.988281 C 439.003906 748.054688 417.242188 746.976562 402.140625 746.976562 Z M 418.332031 170.726562 L 548.777344 170.726562 C 549.007812 170.726562 549.226562 170.683594 549.441406 170.597656 C 549.652344 170.507812 549.839844 170.382812 550.003906 170.222656 C 550.164062 170.058594 550.289062 169.871094 550.378906 169.660156 C 550.464844 169.449219 550.511719 169.226562 550.511719 168.996094 C 550.511719 168.769531 550.464844 168.546875 550.378906 168.335938 C 550.289062 168.121094 550.164062 167.933594 550.003906 167.773438 C 549.839844 167.609375 549.652344 167.484375 549.441406 167.398438 C 549.226562 167.3125 549.007812 167.265625 548.777344 167.269531 L 418.332031 167.269531 C 418.105469 167.269531 417.882812 167.3125 417.671875 167.402344 C 417.460938 167.488281 417.273438 167.613281 417.113281 167.777344 C 416.953125 167.9375 416.828125 168.125 416.738281 168.335938 C 416.652344 168.546875 416.609375 168.769531 416.609375 168.996094 C 416.609375 169.226562 416.652344 169.445312 416.738281 169.65625 C 416.828125 169.871094 416.953125 170.054688 417.113281 170.21875 C 417.273438 170.378906 417.460938 170.503906 417.671875 170.59375 C 417.882812 170.679688 418.105469 170.726562 418.332031 170.726562 Z M 410.1875 183.003906 L 426.191406 183.003906 C 426.425781 183.011719 426.652344 182.972656 426.871094 182.886719 C 427.089844 182.804688 427.28125 182.679688 427.449219 182.515625 C 427.617188 182.355469 427.746094 182.164062 427.835938 181.949219 C 427.929688 181.734375 427.972656 181.511719 427.972656 181.277344 C 427.972656 181.042969 427.929688 180.816406 427.835938 180.601562 C 427.746094 180.386719 427.617188 180.199219 427.449219 180.035156 C 427.28125 179.871094 427.089844 179.75 426.871094 179.664062 C 426.652344 179.578125 426.425781 179.539062 426.191406 179.546875 L 410.1875 179.546875 C 409.964844 179.554688 409.75 179.601562 409.542969 179.695312 C 409.335938 179.785156 409.15625 179.910156 409 180.070312 C 408.84375 180.234375 408.722656 180.417969 408.640625 180.625 C 408.554688 180.835938 408.511719 181.050781 408.511719 181.277344 C 408.511719 181.5 408.554688 181.71875 408.640625 181.925781 C 408.722656 182.132812 408.84375 182.320312 409 182.480469 C 409.15625 182.640625 409.335938 182.769531 409.542969 182.859375 C 409.75 182.949219 409.964844 182.996094 410.1875 183.003906 Z M 397.824219 192.828125 L 415.644531 192.828125 C 415.878906 192.835938 416.105469 192.796875 416.324219 192.710938 C 416.539062 192.625 416.734375 192.503906 416.902344 192.339844 C 417.070312 192.175781 417.199219 191.988281 417.289062 191.773438 C 417.382812 191.558594 417.425781 191.332031 417.425781 191.097656 C 417.425781 190.867188 417.382812 190.640625 417.289062 190.425781 C 417.199219 190.210938 417.070312 190.019531 416.902344 189.859375 C 416.734375 189.695312 416.539062 189.570312 416.324219 189.488281 C 416.105469 189.402344 415.878906 189.363281 415.644531 189.371094 L 397.824219 189.371094 C 397.597656 189.378906 397.382812 189.425781 397.175781 189.515625 C 396.972656 189.609375 396.789062 189.734375 396.632812 189.894531 C 396.476562 190.054688 396.355469 190.242188 396.273438 190.449219 C 396.1875 190.65625 396.144531 190.875 396.144531 191.097656 C 396.144531 191.324219 396.1875 191.539062 396.273438 191.75 C 396.355469 191.957031 396.476562 192.140625 396.632812 192.304688 C 396.789062 192.464844 396.972656 192.589844 397.175781 192.679688 C 397.382812 192.773438 397.597656 192.820312 397.824219 192.828125 Z M 385.453125 204.375 L 406.738281 204.375 C 406.972656 204.382812 407.195312 204.34375 407.414062 204.261719 C 407.632812 204.175781 407.824219 204.050781 407.992188 203.890625 C 408.160156 203.726562 408.289062 203.535156 408.382812 203.320312 C 408.472656 203.105469 408.519531 202.882812 408.519531 202.648438 C 408.519531 202.414062 408.472656 202.191406 408.382812 201.972656 C 408.289062 201.757812 408.160156 201.570312 407.992188 201.40625 C 407.824219 201.242188 407.632812 201.121094 407.414062 201.035156 C 407.195312 200.953125 406.972656 200.914062 406.738281 200.917969 L 385.453125 200.917969 C 385.222656 200.914062 384.996094 200.953125 384.777344 201.035156 C 384.558594 201.121094 384.367188 201.242188 384.199219 201.40625 C 384.03125 201.570312 383.902344 201.757812 383.808594 201.972656 C 383.71875 202.191406 383.675781 202.414062 383.675781 202.648438 C 383.675781 202.882812 383.71875 203.105469 383.808594 203.320312 C 383.902344 203.535156 384.03125 203.726562 384.199219 203.890625 C 384.367188 204.050781 384.558594 204.175781 384.777344 204.261719 C 384.996094 204.34375 385.222656 204.382812 385.453125 204.375 Z M 458.933594 183.003906 C 459.160156 182.996094 459.375 182.949219 459.578125 182.859375 C 459.785156 182.769531 459.964844 182.640625 460.121094 182.480469 C 460.277344 182.320312 460.398438 182.132812 460.484375 181.925781 C 460.570312 181.71875 460.609375 181.5 460.609375 181.277344 C 460.609375 181.050781 460.570312 180.835938 460.484375 180.625 C 460.398438 180.417969 460.277344 180.234375 460.121094 180.074219 C 459.964844 179.910156 459.785156 179.785156 459.578125 179.695312 C 459.375 179.601562 459.160156 179.554688 458.933594 179.546875 L 442.925781 179.546875 C 442.695312 179.539062 442.46875 179.578125 442.25 179.664062 C 442.03125 179.75 441.839844 179.871094 441.671875 180.035156 C 441.503906 180.199219 441.375 180.386719 441.28125 180.601562 C 441.191406 180.816406 441.144531 181.042969 441.144531 181.277344 C 441.144531 181.511719 441.191406 181.734375 441.28125 181.949219 C 441.375 182.164062 441.503906 182.355469 441.671875 182.515625 C 441.839844 182.679688 442.03125 182.804688 442.25 182.886719 C 442.46875 182.972656 442.695312 183.011719 442.925781 183.003906 Z M 450.113281 191.101562 C 450.113281 190.871094 450.070312 190.648438 449.980469 190.4375 C 449.894531 190.226562 449.769531 190.039062 449.609375 189.878906 C 449.445312 189.714844 449.257812 189.589844 449.046875 189.503906 C 448.835938 189.414062 448.613281 189.371094 448.386719 189.371094 L 430.558594 189.371094 C 430.324219 189.363281 430.101562 189.402344 429.882812 189.488281 C 429.664062 189.570312 429.472656 189.695312 429.304688 189.859375 C 429.136719 190.019531 429.007812 190.210938 428.914062 190.425781 C 428.824219 190.640625 428.777344 190.867188 428.777344 191.097656 C 428.777344 191.332031 428.824219 191.558594 428.914062 191.773438 C 429.007812 191.988281 429.136719 192.175781 429.304688 192.339844 C 429.472656 192.503906 429.664062 192.625 429.882812 192.710938 C 430.101562 192.796875 430.324219 192.835938 430.558594 192.828125 L 448.382812 192.828125 C 448.613281 192.828125 448.832031 192.785156 449.046875 192.695312 C 449.257812 192.609375 449.445312 192.484375 449.605469 192.320312 C 449.765625 192.160156 449.890625 191.972656 449.980469 191.761719 C 450.066406 191.550781 450.113281 191.328125 450.113281 191.101562 Z M 441.203125 202.648438 C 441.203125 202.417969 441.160156 202.199219 441.070312 201.988281 C 440.984375 201.777344 440.859375 201.589844 440.699219 201.425781 C 440.535156 201.265625 440.351562 201.140625 440.140625 201.050781 C 439.929688 200.964844 439.707031 200.917969 439.480469 200.917969 L 418.191406 200.917969 C 417.96875 200.925781 417.753906 200.972656 417.546875 201.0625 C 417.339844 201.15625 417.160156 201.28125 417.003906 201.441406 C 416.847656 201.605469 416.726562 201.789062 416.640625 201.996094 C 416.558594 202.203125 416.515625 202.421875 416.515625 202.644531 C 416.515625 202.871094 416.558594 203.085938 416.640625 203.296875 C 416.726562 203.503906 416.847656 203.6875 417.003906 203.851562 C 417.160156 204.011719 417.339844 204.136719 417.546875 204.226562 C 417.753906 204.320312 417.96875 204.367188 418.191406 204.375 L 439.480469 204.375 C 439.707031 204.375 439.925781 204.328125 440.136719 204.242188 C 440.347656 204.152344 440.535156 204.027344 440.695312 203.867188 C 440.859375 203.703125 440.980469 203.519531 441.070312 203.308594 C 441.15625 203.097656 441.199219 202.875 441.199219 202.648438 Z M 491.671875 179.550781 L 475.664062 179.550781 C 475.429688 179.542969 475.203125 179.582031 474.988281 179.667969 C 474.769531 179.75 474.574219 179.875 474.40625 180.039062 C 474.242188 180.199219 474.109375 180.390625 474.019531 180.605469 C 473.929688 180.820312 473.882812 181.046875 473.882812 181.28125 C 473.882812 181.511719 473.929688 181.738281 474.019531 181.953125 C 474.109375 182.167969 474.242188 182.359375 474.40625 182.519531 C 474.574219 182.683594 474.769531 182.808594 474.988281 182.890625 C 475.203125 182.976562 475.429688 183.015625 475.664062 183.007812 L 491.675781 183.007812 C 491.902344 183 492.117188 182.953125 492.320312 182.863281 C 492.527344 182.769531 492.707031 182.644531 492.863281 182.484375 C 493.019531 182.320312 493.140625 182.136719 493.226562 181.929688 C 493.308594 181.722656 493.351562 181.503906 493.351562 181.28125 C 493.351562 181.054688 493.308594 180.839844 493.226562 180.628906 C 493.140625 180.421875 493.019531 180.238281 492.863281 180.074219 C 492.707031 179.914062 492.527344 179.789062 492.320312 179.699219 C 492.117188 179.605469 491.902344 179.558594 491.675781 179.550781 Z M 461.570312 191.101562 C 461.570312 191.328125 461.613281 191.550781 461.699219 191.761719 C 461.789062 191.972656 461.914062 192.160156 462.074219 192.320312 C 462.238281 192.484375 462.425781 192.609375 462.636719 192.695312 C 462.847656 192.785156 463.070312 192.828125 463.296875 192.828125 L 481.121094 192.828125 C 481.355469 192.835938 481.582031 192.796875 481.800781 192.710938 C 482.019531 192.625 482.210938 192.503906 482.378906 192.339844 C 482.546875 192.175781 482.675781 191.988281 482.765625 191.773438 C 482.859375 191.558594 482.902344 191.332031 482.902344 191.097656 C 482.902344 190.867188 482.859375 190.640625 482.765625 190.425781 C 482.675781 190.210938 482.546875 190.019531 482.378906 189.859375 C 482.210938 189.695312 482.019531 189.570312 481.800781 189.488281 C 481.582031 189.402344 481.355469 189.363281 481.121094 189.371094 L 463.296875 189.371094 C 463.066406 189.371094 462.847656 189.414062 462.636719 189.503906 C 462.421875 189.589844 462.234375 189.714844 462.074219 189.878906 C 461.914062 190.039062 461.789062 190.226562 461.699219 190.4375 C 461.613281 190.648438 461.566406 190.871094 461.566406 191.101562 Z M 450.933594 204.375 L 472.210938 204.375 C 472.433594 204.367188 472.648438 204.320312 472.855469 204.226562 C 473.0625 204.136719 473.242188 204.011719 473.398438 203.851562 C 473.554688 203.6875 473.675781 203.503906 473.757812 203.296875 C 473.84375 203.085938 473.886719 202.871094 473.886719 202.644531 C 473.886719 202.421875 473.84375 202.203125 473.757812 201.996094 C 473.675781 201.789062 473.554688 201.605469 473.398438 201.441406 C 473.242188 201.28125 473.0625 201.15625 472.855469 201.0625 C 472.648438 200.972656 472.433594 200.925781 472.210938 200.917969 L 450.929688 200.917969 C 450.695312 200.910156 450.472656 200.949219 450.253906 201.035156 C 450.035156 201.117188 449.84375 201.242188 449.675781 201.40625 C 449.507812 201.566406 449.378906 201.757812 449.285156 201.972656 C 449.195312 202.1875 449.148438 202.414062 449.148438 202.644531 C 449.148438 202.878906 449.195312 203.105469 449.285156 203.320312 C 449.378906 203.535156 449.507812 203.726562 449.675781 203.886719 C 449.84375 204.050781 450.035156 204.175781 450.253906 204.257812 C 450.472656 204.34375 450.695312 204.382812 450.929688 204.375 Z M 524.410156 183.003906 C 524.640625 183.011719 524.867188 182.972656 525.085938 182.886719 C 525.304688 182.804688 525.496094 182.679688 525.664062 182.515625 C 525.832031 182.355469 525.960938 182.164062 526.054688 181.949219 C 526.144531 181.734375 526.191406 181.511719 526.191406 181.277344 C 526.191406 181.042969 526.144531 180.816406 526.054688 180.601562 C 525.960938 180.386719 525.832031 180.199219 525.664062 180.035156 C 525.496094 179.871094 525.304688 179.75 525.085938 179.664062 C 524.867188 179.578125 524.640625 179.539062 524.410156 179.546875 L 508.402344 179.546875 C 508.175781 179.554688 507.960938 179.601562 507.757812 179.695312 C 507.550781 179.785156 507.371094 179.910156 507.210938 180.070312 C 507.054688 180.234375 506.9375 180.417969 506.851562 180.625 C 506.765625 180.835938 506.726562 181.050781 506.726562 181.277344 C 506.726562 181.5 506.765625 181.71875 506.851562 181.925781 C 506.9375 182.132812 507.054688 182.320312 507.210938 182.480469 C 507.371094 182.640625 507.550781 182.769531 507.757812 182.859375 C 507.960938 182.949219 508.175781 182.996094 508.402344 183.003906 Z M 494.308594 191.101562 C 494.308594 191.328125 494.351562 191.550781 494.4375 191.761719 C 494.527344 191.972656 494.652344 192.160156 494.8125 192.320312 C 494.976562 192.484375 495.164062 192.609375 495.375 192.695312 C 495.585938 192.785156 495.804688 192.828125 496.035156 192.828125 L 513.859375 192.828125 C 514.09375 192.835938 514.316406 192.796875 514.535156 192.710938 C 514.753906 192.625 514.945312 192.503906 515.113281 192.339844 C 515.28125 192.175781 515.410156 191.988281 515.503906 191.773438 C 515.59375 191.558594 515.640625 191.332031 515.640625 191.097656 C 515.640625 190.867188 515.59375 190.640625 515.503906 190.425781 C 515.410156 190.210938 515.28125 190.019531 515.113281 189.859375 C 514.945312 189.695312 514.753906 189.570312 514.535156 189.488281 C 514.316406 189.402344 514.09375 189.363281 513.859375 189.371094 L 496.035156 189.371094 C 495.804688 189.371094 495.585938 189.414062 495.371094 189.503906 C 495.160156 189.589844 494.972656 189.714844 494.8125 189.878906 C 494.648438 190.039062 494.523438 190.226562 494.4375 190.4375 C 494.351562 190.648438 494.304688 190.871094 494.304688 191.101562 Z M 481.9375 202.648438 C 481.9375 202.878906 481.984375 203.097656 482.070312 203.308594 C 482.160156 203.523438 482.285156 203.707031 482.445312 203.871094 C 482.609375 204.03125 482.792969 204.15625 483.007812 204.246094 C 483.21875 204.332031 483.4375 204.375 483.667969 204.375 L 504.945312 204.375 C 505.179688 204.382812 505.40625 204.34375 505.625 204.261719 C 505.84375 204.175781 506.035156 204.050781 506.203125 203.890625 C 506.371094 203.726562 506.5 203.535156 506.589844 203.320312 C 506.683594 203.105469 506.726562 202.882812 506.726562 202.648438 C 506.726562 202.414062 506.683594 202.191406 506.589844 201.972656 C 506.5 201.757812 506.371094 201.570312 506.203125 201.40625 C 506.035156 201.242188 505.84375 201.121094 505.625 201.035156 C 505.40625 200.953125 505.179688 200.914062 504.945312 200.917969 L 483.667969 200.917969 C 483.4375 200.917969 483.214844 200.964844 483.003906 201.050781 C 482.792969 201.140625 482.605469 201.261719 482.445312 201.425781 C 482.28125 201.585938 482.15625 201.773438 482.070312 201.984375 C 481.980469 202.199219 481.9375 202.417969 481.9375 202.648438 Z M 354.972656 277.597656 C 354.996094 277.253906 354.957031 276.921875 354.847656 276.59375 C 354.738281 276.269531 354.574219 275.976562 354.347656 275.714844 C 354.125 275.457031 353.859375 275.25 353.554688 275.09375 C 353.246094 274.941406 352.921875 274.847656 352.582031 274.824219 C 352.238281 274.796875 351.902344 274.839844 351.578125 274.945312 C 351.25 275.050781 350.957031 275.21875 350.699219 275.441406 C 350.4375 275.664062 350.230469 275.929688 350.074219 276.234375 C 349.917969 276.542969 349.828125 276.867188 349.800781 277.207031 C 349.597656 279.890625 345.160156 343.121094 372.757812 362.335938 C 375.382812 364.15625 378.222656 365.53125 381.28125 366.464844 C 384.335938 367.394531 387.460938 367.835938 390.65625 367.785156 C 398.6875 367.527344 406.300781 365.617188 413.503906 362.050781 C 413.816406 361.90625 414.089844 361.710938 414.320312 361.457031 C 414.554688 361.207031 414.734375 360.917969 414.851562 360.597656 C 414.972656 360.273438 415.027344 359.941406 415.011719 359.597656 C 415 359.253906 414.921875 358.925781 414.777344 358.613281 C 414.636719 358.300781 414.4375 358.027344 414.1875 357.792969 C 413.933594 357.558594 413.648438 357.382812 413.324219 357.261719 C 413.003906 357.144531 412.667969 357.089844 412.324219 357.101562 C 411.980469 357.117188 411.652344 357.191406 411.339844 357.335938 C 396.660156 364.066406 384.675781 364.316406 375.722656 358.082031 C 350.542969 340.554688 354.921875 278.222656 354.96875 277.597656 Z M 411.832031 311.699219 C 412.027344 311.746094 412.222656 311.769531 412.421875 311.769531 C 412.714844 311.769531 413 311.71875 413.277344 311.625 C 413.550781 311.527344 413.804688 311.386719 414.035156 311.207031 C 414.261719 311.023438 414.457031 310.808594 414.613281 310.5625 C 414.769531 310.316406 414.878906 310.050781 414.945312 309.765625 C 418.496094 294.578125 416.199219 273 416.101562 272.085938 C 416.070312 271.742188 415.972656 271.414062 415.808594 271.105469 C 415.648438 270.796875 415.429688 270.535156 415.160156 270.3125 C 414.890625 270.09375 414.589844 269.933594 414.257812 269.832031 C 413.921875 269.734375 413.582031 269.703125 413.238281 269.742188 C 412.890625 269.777344 412.566406 269.882812 412.261719 270.050781 C 411.957031 270.21875 411.695312 270.441406 411.480469 270.714844 C 411.265625 270.988281 411.113281 271.292969 411.019531 271.628906 C 410.925781 271.964844 410.902344 272.304688 410.949219 272.652344 C 410.96875 272.863281 413.246094 294.265625 409.898438 308.585938 C 409.820312 308.917969 409.808594 309.257812 409.863281 309.59375 C 409.917969 309.933594 410.039062 310.25 410.21875 310.542969 C 410.402344 310.832031 410.628906 311.078125 410.910156 311.28125 C 411.1875 311.480469 411.496094 311.621094 411.832031 311.699219 Z M 247.90625 285.957031 C 247.945312 285.613281 247.917969 285.277344 247.824219 284.949219 C 247.730469 284.617188 247.574219 284.316406 247.363281 284.046875 C 247.148438 283.78125 246.890625 283.5625 246.589844 283.394531 C 246.289062 283.226562 245.96875 283.125 245.625 283.085938 C 245.285156 283.046875 244.949219 283.074219 244.617188 283.167969 C 244.289062 283.261719 243.988281 283.417969 243.71875 283.632812 C 243.449219 283.84375 243.230469 284.101562 243.066406 284.402344 C 242.898438 284.703125 242.796875 285.023438 242.757812 285.367188 C 242.515625 287.472656 236.972656 337.386719 247.394531 372.003906 C 247.472656 372.273438 247.59375 372.519531 247.753906 372.746094 C 247.914062 372.976562 248.105469 373.171875 248.328125 373.339844 C 248.554688 373.503906 248.796875 373.632812 249.0625 373.71875 C 249.324219 373.808594 249.597656 373.851562 249.875 373.851562 C 250.128906 373.851562 250.378906 373.8125 250.625 373.742188 C 250.953125 373.640625 251.253906 373.484375 251.519531 373.265625 C 251.785156 373.046875 252 372.789062 252.164062 372.484375 C 252.328125 372.179688 252.425781 371.859375 252.460938 371.515625 C 252.496094 371.175781 252.464844 370.839844 252.363281 370.507812 C 242.25 336.921875 247.847656 286.460938 247.90625 285.957031 Z M 301.234375 237.015625 C 329.390625 237.015625 343.625 225.464844 350.984375 208.714844 C 345.160156 207.976562 339.316406 207.679688 333.453125 207.828125 C 329.792969 210.53125 325.878906 212.785156 321.703125 214.59375 C 317.527344 216.398438 313.203125 217.710938 308.726562 218.527344 C 294.378906 220.945312 284.703125 206.214844 284.703125 206.214844 L 267.074219 208.308594 C 268.851562 215.238281 276.402344 237.015625 301.234375 237.015625 Z M 249.039062 67.472656 C 249.105469 67.230469 249.152344 66.980469 249.1875 66.730469 C 249.21875 66.476562 249.234375 66.226562 249.234375 65.972656 C 249.234375 65.71875 249.21875 65.464844 249.1875 65.214844 C 249.152344 64.964844 249.105469 64.714844 249.039062 64.46875 C 248.972656 64.226562 248.890625 63.984375 248.792969 63.75 C 248.699219 63.515625 248.585938 63.289062 248.457031 63.070312 C 248.332031 62.851562 248.191406 62.640625 248.039062 62.441406 C 247.882812 62.238281 247.714844 62.046875 247.535156 61.871094 C 247.359375 61.691406 247.167969 61.523438 246.964844 61.367188 C 246.765625 61.214844 246.554688 61.074219 246.335938 60.945312 C 246.117188 60.820312 245.890625 60.707031 245.65625 60.613281 C 245.421875 60.515625 245.179688 60.433594 244.9375 60.367188 C 244.691406 60.300781 244.445312 60.253906 244.191406 60.21875 C 243.941406 60.1875 243.6875 60.167969 243.433594 60.167969 C 243.179688 60.167969 242.929688 60.1875 242.679688 60.21875 C 242.425781 60.253906 242.179688 60.300781 241.933594 60.367188 L 213.609375 67.960938 C 213.117188 68.09375 212.648438 68.285156 212.207031 68.539062 C 211.765625 68.796875 211.367188 69.101562 211.007812 69.460938 C 210.644531 69.824219 210.339844 70.222656 210.085938 70.664062 C 209.828125 71.105469 209.636719 71.570312 209.503906 72.0625 C 209.371094 72.554688 209.304688 73.058594 209.304688 73.566406 C 209.304688 74.074219 209.371094 74.574219 209.503906 75.066406 C 209.636719 75.558594 209.828125 76.027344 210.082031 76.46875 C 210.339844 76.910156 210.644531 77.308594 211.007812 77.667969 L 218.632812 85.296875 L 175.179688 133.332031 C 174.199219 132.777344 173.164062 132.367188 172.070312 132.097656 C 170.972656 131.828125 169.863281 131.710938 168.738281 131.75 C 167.613281 131.785156 166.511719 131.972656 165.4375 132.3125 C 164.363281 132.648438 163.355469 133.128906 162.410156 133.742188 L 128.847656 108.917969 C 128.988281 108.429688 129.097656 107.9375 129.175781 107.433594 C 129.257812 106.933594 129.304688 106.425781 129.320312 105.917969 C 129.335938 105.410156 129.324219 104.90625 129.277344 104.398438 C 129.230469 103.890625 129.152344 103.390625 129.046875 102.894531 C 128.9375 102.398438 128.800781 101.910156 128.632812 101.429688 C 128.460938 100.949219 128.265625 100.484375 128.039062 100.027344 C 127.8125 99.574219 127.558594 99.132812 127.28125 98.710938 C 127 98.285156 126.695312 97.882812 126.363281 97.496094 C 126.035156 97.109375 125.679688 96.746094 125.304688 96.402344 C 124.929688 96.058594 124.535156 95.742188 124.121094 95.449219 C 123.707031 95.152344 123.273438 94.886719 122.828125 94.648438 C 122.378906 94.40625 121.917969 94.195312 121.445312 94.011719 C 120.972656 93.828125 120.488281 93.671875 119.996094 93.550781 C 119.503906 93.425781 119.003906 93.332031 118.5 93.269531 C 117.996094 93.207031 117.488281 93.175781 116.980469 93.179688 C 116.472656 93.179688 115.96875 93.210938 115.464844 93.273438 C 114.960938 93.335938 114.460938 93.429688 113.96875 93.554688 C 113.476562 93.679688 112.992188 93.832031 112.519531 94.015625 C 112.046875 94.199219 111.585938 94.414062 111.136719 94.652344 C 110.691406 94.894531 110.261719 95.164062 109.847656 95.457031 C 109.433594 95.75 109.039062 96.070312 108.664062 96.414062 C 108.289062 96.757812 107.933594 97.121094 107.605469 97.507812 C 107.277344 97.894531 106.972656 98.300781 106.691406 98.722656 C 106.410156 99.148438 106.160156 99.585938 105.933594 100.042969 C 105.707031 100.5 105.511719 100.964844 105.34375 101.445312 C 105.175781 101.925781 105.039062 102.414062 104.929688 102.910156 C 104.824219 103.40625 104.746094 103.90625 104.703125 104.414062 C 104.65625 104.921875 104.640625 105.425781 104.660156 105.933594 C 104.675781 106.441406 104.726562 106.949219 104.804688 107.449219 C 104.882812 107.953125 104.996094 108.445312 105.136719 108.933594 C 105.277344 109.421875 105.445312 109.902344 105.644531 110.367188 C 105.84375 110.835938 106.074219 111.289062 106.328125 111.726562 L 70.519531 155.488281 C 70.34375 155.707031 70.1875 155.941406 70.054688 156.191406 C 69.925781 156.441406 69.816406 156.703125 69.738281 156.972656 C 69.65625 157.246094 69.601562 157.519531 69.578125 157.804688 C 69.550781 158.085938 69.550781 158.367188 69.582031 158.648438 C 69.609375 158.929688 69.664062 159.203125 69.746094 159.476562 C 69.832031 159.746094 69.9375 160.003906 70.074219 160.253906 C 70.207031 160.503906 70.363281 160.738281 70.542969 160.957031 C 70.722656 161.175781 70.921875 161.371094 71.140625 161.550781 C 71.359375 161.730469 71.59375 161.886719 71.84375 162.019531 C 72.09375 162.152344 72.355469 162.261719 72.625 162.34375 C 72.894531 162.425781 73.171875 162.480469 73.453125 162.507812 C 73.734375 162.535156 74.015625 162.535156 74.296875 162.507812 C 74.578125 162.480469 74.855469 162.425781 75.125 162.347656 C 75.394531 162.265625 75.65625 162.15625 75.90625 162.023438 C 76.15625 161.890625 76.390625 161.734375 76.609375 161.558594 C 76.828125 161.378906 77.027344 161.179688 77.207031 160.960938 L 113.011719 117.203125 C 113.894531 117.507812 114.800781 117.707031 115.730469 117.804688 C 116.65625 117.898438 117.585938 117.890625 118.511719 117.773438 C 119.441406 117.660156 120.339844 117.441406 121.21875 117.117188 C 122.097656 116.796875 122.925781 116.382812 123.707031 115.871094 L 157.273438 140.691406 C 157.140625 141.15625 157.035156 141.628906 156.957031 142.105469 C 156.878906 142.582031 156.828125 143.0625 156.808594 143.546875 C 156.785156 144.03125 156.792969 144.511719 156.828125 144.996094 C 156.863281 145.476562 156.925781 145.953125 157.019531 146.429688 C 157.109375 146.90625 157.226562 147.371094 157.375 147.832031 C 157.519531 148.292969 157.695312 148.746094 157.894531 149.183594 C 158.09375 149.625 158.316406 150.050781 158.566406 150.464844 C 158.816406 150.878906 159.089844 151.277344 159.386719 151.660156 C 159.683594 152.042969 160 152.40625 160.339844 152.75 C 160.679688 153.09375 161.035156 153.417969 161.414062 153.722656 C 161.789062 154.023438 162.183594 154.304688 162.59375 154.558594 C 163.003906 154.816406 163.425781 155.046875 163.863281 155.253906 C 164.300781 155.460938 164.75 155.640625 165.207031 155.792969 C 165.664062 155.949219 166.132812 156.074219 166.605469 156.171875 C 167.078125 156.273438 167.554688 156.34375 168.035156 156.386719 C 168.519531 156.429688 169 156.445312 169.484375 156.429688 C 169.964844 156.417969 170.449219 156.375 170.925781 156.304688 C 171.402344 156.234375 171.875 156.136719 172.34375 156.011719 C 172.808594 155.882812 173.269531 155.730469 173.714844 155.550781 C 174.164062 155.371094 174.601562 155.167969 175.027344 154.9375 C 175.453125 154.703125 175.859375 154.449219 176.253906 154.171875 C 176.648438 153.890625 177.027344 153.589844 177.386719 153.265625 C 177.746094 152.941406 178.085938 152.597656 178.402344 152.234375 C 178.722656 151.871094 179.019531 151.492188 179.292969 151.09375 C 179.566406 150.695312 179.816406 150.28125 180.042969 149.855469 C 180.269531 149.425781 180.46875 148.988281 180.644531 148.539062 C 180.816406 148.085938 180.964844 147.625 181.082031 147.15625 C 181.203125 146.691406 181.296875 146.214844 181.359375 145.738281 C 181.425781 145.257812 181.460938 144.777344 181.46875 144.292969 C 181.476562 143.808594 181.457031 143.328125 181.40625 142.847656 C 181.359375 142.363281 181.28125 141.886719 181.175781 141.417969 C 181.070312 140.945312 180.9375 140.480469 180.777344 140.023438 L 224.75 91.417969 L 231.75 98.417969 C 232.109375 98.777344 232.511719 99.085938 232.953125 99.339844 C 233.394531 99.59375 233.859375 99.789062 234.351562 99.917969 C 234.84375 100.050781 235.34375 100.117188 235.851562 100.117188 C 236.363281 100.117188 236.863281 100.050781 237.355469 99.917969 C 237.847656 99.789062 238.3125 99.59375 238.753906 99.339844 C 239.195312 99.085938 239.59375 98.777344 239.953125 98.417969 C 240.316406 98.058594 240.621094 97.65625 240.875 97.214844 C 241.132812 96.773438 241.324219 96.308594 241.457031 95.816406 Z M 483.65625 252.132812 L 465.101562 252.132812 C 465.808594 253.027344 466.488281 253.945312 467.140625 254.882812 L 488.328125 254.882812 C 488.328125 254.882812 542.230469 199.402344 558.214844 181.535156 C 574.195312 163.667969 572.628906 156.304688 572.628906 156.304688 L 572.628906 54.738281 C 572.628906 54.074219 572.578125 53.410156 572.472656 52.753906 C 572.371094 52.09375 572.214844 51.449219 572.007812 50.816406 C 571.800781 50.183594 571.546875 49.570312 571.246094 48.976562 C 570.945312 48.382812 570.597656 47.816406 570.207031 47.28125 C 569.8125 46.742188 569.382812 46.234375 568.914062 45.765625 C 568.441406 45.292969 567.9375 44.863281 567.398438 44.472656 C 566.859375 44.082031 566.292969 43.734375 565.699219 43.429688 C 565.109375 43.128906 564.496094 42.875 563.863281 42.667969 C 565.167969 43.867188 566.175781 45.277344 566.890625 46.898438 C 567.601562 48.519531 567.957031 50.21875 567.957031 51.992188 L 567.957031 153.554688 C 567.957031 153.554688 569.523438 160.921875 553.542969 178.785156 C 537.558594 196.652344 483.65625 252.132812 483.65625 252.132812 Z M 430.191406 252.132812 L 411.976562 252.132812 C 412.183594 253.027344 412.351562 253.957031 412.519531 254.882812 L 427.835938 254.882812 C 428.628906 253.949219 429.414062 253.03125 430.191406 252.132812 Z M 795.132812 445.546875 L 718.347656 445.546875 L 718.347656 140.578125 L 703.660156 140.578125 L 703.660156 445.546875 L 628.941406 445.546875 L 628.941406 249.746094 L 614.261719 249.746094 L 614.261719 445.546875 L 540.710938 445.546875 L 540.710938 317.421875 L 526.023438 317.421875 L 526.023438 445.546875 L 411.113281 445.546875 L 411.113281 465.816406 L 795.132812 465.816406 C 795.796875 465.816406 796.457031 465.75 797.109375 465.621094 C 797.761719 465.492188 798.394531 465.300781 799.011719 465.046875 C 799.625 464.789062 800.207031 464.476562 800.761719 464.109375 C 801.316406 463.738281 801.828125 463.320312 802.296875 462.847656 C 802.769531 462.378906 803.1875 461.867188 803.558594 461.3125 C 803.925781 460.757812 804.238281 460.175781 804.492188 459.558594 C 804.75 458.945312 804.941406 458.3125 805.070312 457.660156 C 805.199219 457.007812 805.265625 456.347656 805.265625 455.683594 C 805.265625 455.015625 805.199219 454.359375 805.070312 453.703125 C 804.941406 453.050781 804.75 452.417969 804.492188 451.804688 C 804.238281 451.1875 803.925781 450.605469 803.558594 450.050781 C 803.1875 449.5 802.769531 448.984375 802.296875 448.515625 C 801.828125 448.046875 801.316406 447.625 800.761719 447.253906 C 800.207031 446.886719 799.625 446.574219 799.011719 446.320312 C 798.394531 446.0625 797.761719 445.871094 797.109375 445.742188 C 796.457031 445.613281 795.796875 445.546875 795.132812 445.546875 Z M 795.132812 445.546875 "/></g></g></svg>