<svg xmlns="http://www.w3.org/2000/svg" xmlns:xlink="http://www.w3.org/1999/xlink" width="1080" zoomAndPan="magnify" viewBox="0 0 810 809.999993" height="1080" preserveAspectRatio="xMidYMid meet" version="1.2"><defs><filter x="0%" y="0%" width="100%" filterUnits="objectBoundingBox" id="8341b8ec32" height="100%"><feColorMatrix values="0 0 0 0 1 0 0 0 0 1 0 0 0 0 1 0 0 0 1 0" type="matrix" in="SourceGraphic"/></filter><clipPath id="aadf457f82"><rect x="0" width="466" y="0" height="466"/></clipPath></defs><g id="72e68a1686"><path style=" stroke:none;fill-rule:nonzero;fill:#ffd900;fill-opacity:1;" d="M 806.316406 576.203125 C 806.316406 703.292969 703.292969 806.316406 576.203125 806.316406 C 449.117188 806.316406 346.089844 703.292969 346.089844 576.203125 C 346.089844 449.117188 449.117188 346.089844 576.203125 346.089844 C 703.292969 346.089844 806.316406 449.117188 806.316406 576.203125 Z M 806.316406 576.203125 "/><path style=" stroke:none;fill-rule:nonzero;fill:#22b960;fill-opacity:1;" d="M 784.226562 155.558594 C 784.226562 224.183594 728.59375 279.816406 659.964844 279.816406 C 591.339844 279.816406 535.703125 224.183594 535.703125 155.558594 C 535.703125 86.929688 591.339844 31.296875 659.964844 31.296875 C 728.59375 31.296875 784.226562 86.929688 784.226562 155.558594 Z M 784.226562 155.558594 "/><path style=" stroke:none;fill-rule:nonzero;fill:#ffffff;fill-opacity:0.5;" d="M 552.917969 347.253906 L 576.207031 576.203125 L 481.882812 366.246094 C 467.609375 372.671875 454.109375 380.503906 441.5625 389.574219 L 576.207031 576.203125 L 389.570312 441.5625 C 380.503906 454.109375 372.671875 467.609375 366.25 481.882812 L 576.207031 576.203125 L 347.253906 552.917969 C 346.484375 560.574219 346.089844 568.34375 346.089844 576.203125 C 346.089844 584.066406 346.484375 591.835938 347.253906 599.492188 L 576.207031 576.203125 L 366.25 670.527344 C 372.671875 684.800781 380.503906 698.300781 389.574219 710.847656 L 576.207031 576.203125 L 441.5625 762.835938 C 454.109375 771.90625 467.609375 779.738281 481.882812 786.160156 L 576.207031 576.203125 L 552.917969 805.15625 C 560.574219 805.925781 568.34375 806.316406 576.203125 806.316406 C 584.066406 806.316406 591.835938 805.925781 599.492188 805.152344 L 576.207031 576.203125 L 670.527344 786.160156 C 684.800781 779.738281 698.300781 771.902344 710.847656 762.835938 L 576.207031 576.203125 L 762.835938 710.847656 C 771.90625 698.300781 779.738281 684.800781 786.160156 670.527344 L 576.207031 576.203125 L 805.15625 599.492188 C 805.925781 591.835938 806.316406 584.066406 806.316406 576.203125 C 806.316406 568.34375 805.925781 560.574219 805.15625 552.917969 L 576.207031 576.203125 L 786.160156 481.882812 C 779.738281 467.609375 771.90625 454.109375 762.835938 441.5625 L 576.207031 576.203125 L 710.847656 389.574219 C 698.300781 380.503906 684.800781 372.671875 670.527344 366.25 L 576.207031 576.203125 L 599.492188 347.253906 C 591.835938 346.484375 584.066406 346.089844 576.203125 346.089844 C 568.34375 346.089844 560.574219 346.484375 552.917969 347.253906 Z M 552.917969 347.253906 "/><path style=" stroke:none;fill-rule:evenodd;fill:#663aff;fill-opacity:1;" d="M 235.636719 3.683594 C 363.742188 3.683594 467.589844 107.53125 467.589844 235.636719 L 467.589844 467.589844 L 235.636719 467.589844 C 107.53125 467.589844 3.683594 363.742188 3.683594 235.636719 C 3.683594 107.53125 107.53125 3.683594 235.636719 3.683594 Z M 235.636719 3.683594 "/><g mask="url(#0f19529559)" transform="matrix(1,0,0,1,3,3)"><g clip-path="url(#aadf457f82)"><path style=" stroke:none;fill-rule:nonzero;fill:#ffffff;fill-opacity:1;" d="M 48.4375 373.628906 C 40.179688 362.859375 32.84375 351.339844 26.554688 339.195312 L 57.808594 307.9375 C 65.566406 300.179688 78.160156 300.195312 85.9375 307.96875 C 93.714844 315.746094 93.730469 328.339844 85.972656 336.097656 Z M 48.4375 373.628906 "/><path style=" stroke:none;fill-rule:nonzero;fill:#ffffff;fill-opacity:1;" d="M 187.210938 460.144531 C 172.234375 457.171875 157.773438 452.753906 143.988281 447.050781 L 170.453125 420.582031 C 178.210938 412.824219 190.804688 412.835938 198.582031 420.613281 C 206.359375 428.390625 206.371094 440.984375 198.613281 448.742188 Z M 187.210938 460.144531 "/><path style=" stroke:none;fill-rule:nonzero;fill:#ffffff;fill-opacity:1;" d="M 295.410156 464.59375 L 239.085938 464.59375 L 281.09375 422.585938 C 288.851562 414.828125 301.445312 414.839844 309.222656 422.617188 C 317 430.394531 317.011719 442.988281 309.253906 450.746094 Z M 295.410156 464.59375 "/><path style=" stroke:none;fill-rule:nonzero;fill:#ffffff;fill-opacity:1;" d="M 408.054688 464.59375 L 351.730469 464.59375 L 392.203125 424.121094 C 399.960938 416.363281 412.554688 416.378906 420.332031 424.152344 C 428.105469 431.929688 428.121094 444.523438 420.363281 452.28125 Z M 408.054688 464.59375 "/><path style=" stroke:none;fill-rule:nonzero;fill:#ffffff;fill-opacity:1;" d="M 464.589844 351.730469 L 464.589844 403.191406 C 458.34375 404.371094 451.632812 402.539062 446.789062 397.695312 C 439.011719 389.921875 438.996094 377.328125 446.753906 369.570312 Z M 464.589844 351.730469 "/><path style=" stroke:none;fill-rule:nonzero;fill:#ffffff;fill-opacity:1;" d="M 464.589844 239.085938 L 464.589844 292.0625 C 457.808594 294.09375 450.148438 292.421875 444.785156 287.058594 C 437.007812 279.28125 436.992188 266.6875 444.75 258.929688 Z M 464.589844 239.085938 "/><path style=" stroke:none;fill-rule:nonzero;fill:#ffffff;fill-opacity:1;" d="M 447.050781 143.988281 C 452.054688 156.082031 456.070312 168.695312 458.984375 181.722656 C 453.355469 182.1875 447.5625 180.261719 443.246094 175.949219 C 435.472656 168.171875 435.457031 155.578125 443.214844 147.820312 Z M 447.050781 143.988281 "/><path style=" stroke:none;fill-rule:nonzero;fill:#ffffff;fill-opacity:1;" d="M 339.195312 26.554688 C 351.339844 32.84375 362.859375 40.179688 373.628906 48.4375 L 358.730469 63.335938 C 350.972656 71.09375 338.378906 71.082031 330.605469 63.304688 C 322.828125 55.527344 322.8125 42.933594 330.570312 35.175781 Z M 339.195312 26.554688 "/><path style=" stroke:none;fill-rule:nonzero;fill:#ffffff;fill-opacity:1;" d="M 251.652344 1.453125 C 268 2.777344 283.871094 5.800781 299.085938 10.339844 L 247.625 61.800781 C 239.867188 69.558594 227.273438 69.546875 219.496094 61.769531 C 211.71875 53.992188 211.703125 41.398438 219.460938 33.640625 Z M 251.652344 1.453125 "/><path style=" stroke:none;fill-rule:nonzero;fill:#ffffff;fill-opacity:1;" d="M 103.953125 39.625 C 130.203125 22.085938 160.238281 9.761719 192.570312 4.132812 C 192.242188 4.511719 191.898438 4.882812 191.535156 5.246094 L 136.984375 59.796875 C 129.226562 67.554688 116.632812 67.542969 108.855469 59.765625 C 103.402344 54.3125 101.765625 46.488281 103.953125 39.625 Z M 103.953125 39.625 "/><path style=" stroke:none;fill-rule:nonzero;fill:#ffffff;fill-opacity:1;" d="M 8.1875 173.894531 C 15.914062 144.28125 29.351562 116.972656 47.246094 93.214844 L 54.269531 86.1875 C 62.027344 78.429688 74.621094 78.445312 82.398438 86.222656 C 90.175781 94 90.191406 106.59375 82.429688 114.351562 L 27.878906 168.902344 C 22.550781 174.230469 14.949219 175.890625 8.1875 173.894531 Z M 8.1875 173.894531 "/><path style=" stroke:none;fill-rule:nonzero;fill:#ffffff;fill-opacity:1;" d="M 1.453125 251.652344 L 55.804688 197.296875 C 63.566406 189.539062 76.15625 189.554688 83.933594 197.332031 C 91.710938 205.105469 91.726562 217.699219 83.96875 225.457031 L 29.414062 280.011719 C 23.167969 286.257812 13.785156 287.464844 6.308594 283.640625 C 3.972656 273.222656 2.335938 262.542969 1.453125 251.652344 Z M 1.453125 251.652344 "/><path style=" stroke:none;fill-rule:nonzero;fill:#ffffff;fill-opacity:1;" d="M 110.390625 170.875 C 102.613281 163.097656 102.601562 150.503906 110.359375 142.746094 L 164.910156 88.191406 C 172.667969 80.433594 185.261719 80.449219 193.039062 88.226562 C 200.816406 96.003906 200.828125 108.597656 193.070312 116.355469 L 138.519531 170.90625 C 130.761719 178.664062 118.167969 178.648438 110.390625 170.875 Z M 110.390625 170.875 "/><path style=" stroke:none;fill-rule:nonzero;fill:#ffffff;fill-opacity:1;" d="M 113.898438 364.492188 C 106.140625 372.25 106.152344 384.84375 113.929688 392.621094 C 121.707031 400.398438 134.300781 400.414062 142.058594 392.65625 L 196.609375 338.101562 C 204.371094 330.34375 204.355469 317.75 196.578125 309.972656 C 188.800781 302.199219 176.207031 302.183594 168.449219 309.941406 Z M 113.898438 364.492188 "/><path style=" stroke:none;fill-rule:nonzero;fill:#ffffff;fill-opacity:1;" d="M 223.035156 283.515625 C 215.257812 275.742188 215.242188 263.148438 223 255.390625 L 277.554688 200.835938 C 285.3125 193.078125 297.90625 193.09375 305.683594 200.871094 C 313.457031 208.644531 313.472656 221.238281 305.714844 228.996094 L 251.164062 283.550781 C 243.40625 291.308594 230.8125 291.292969 223.035156 283.515625 Z M 223.035156 283.515625 "/><path style=" stroke:none;fill-rule:nonzero;fill:#ffffff;fill-opacity:1;" d="M 332.105469 146.285156 C 324.347656 154.042969 324.363281 166.636719 332.140625 174.414062 C 339.917969 182.1875 352.507812 182.203125 360.265625 174.445312 L 414.820312 119.894531 C 422.578125 112.136719 422.5625 99.542969 414.785156 91.765625 C 407.011719 83.988281 394.417969 83.972656 386.660156 91.730469 Z M 332.105469 146.285156 "/><path style=" stroke:none;fill-rule:nonzero;fill:#ffffff;fill-opacity:1;" d="M 335.679688 396.160156 C 327.902344 388.382812 327.886719 375.792969 335.644531 368.035156 L 390.199219 313.480469 C 397.957031 305.722656 410.550781 305.738281 418.328125 313.515625 C 426.101562 321.289062 426.117188 333.882812 418.359375 341.640625 L 363.808594 396.195312 C 356.050781 403.953125 343.457031 403.9375 335.679688 396.160156 Z M 335.679688 396.160156 "/><path style=" stroke:none;fill-rule:nonzero;fill:#ffffff;fill-opacity:1;" d="M 112.394531 281.511719 C 104.617188 273.738281 104.605469 261.144531 112.363281 253.386719 L 166.914062 198.832031 C 174.671875 191.074219 187.265625 191.089844 195.042969 198.867188 C 202.820312 206.640625 202.832031 219.234375 195.074219 226.992188 L 140.523438 281.546875 C 132.765625 289.304688 120.171875 289.289062 112.394531 281.511719 Z M 112.394531 281.511719 "/><path style=" stroke:none;fill-rule:nonzero;fill:#ffffff;fill-opacity:1;" d="M 221.464844 144.28125 C 213.707031 152.039062 213.722656 164.632812 221.5 172.410156 C 229.277344 180.183594 241.871094 180.199219 249.628906 172.441406 L 304.179688 117.890625 C 311.9375 110.132812 311.921875 97.539062 304.148438 89.761719 C 296.371094 81.984375 283.777344 81.96875 276.019531 89.726562 Z M 221.464844 144.28125 "/><path style=" stroke:none;fill-rule:nonzero;fill:#ffffff;fill-opacity:1;" d="M 225.039062 394.15625 C 217.261719 386.378906 217.246094 373.789062 225.003906 366.03125 L 279.558594 311.476562 C 287.316406 303.71875 299.910156 303.734375 307.6875 311.511719 C 315.460938 319.285156 315.476562 331.878906 307.71875 339.636719 L 253.167969 394.191406 C 245.410156 401.949219 232.816406 401.933594 225.039062 394.15625 Z M 225.039062 394.15625 "/><path style=" stroke:none;fill-rule:nonzero;fill:#ffffff;fill-opacity:1;" d="M 334.109375 256.925781 C 326.351562 264.683594 326.367188 277.277344 334.144531 285.054688 C 341.921875 292.828125 354.511719 292.84375 362.269531 285.085938 L 416.824219 230.53125 C 424.582031 222.777344 424.566406 210.183594 416.789062 202.40625 C 409.015625 194.628906 396.421875 194.613281 388.664062 202.371094 Z M 334.109375 256.925781 "/></g><mask id="0f19529559"><g filter="url(#8341b8ec32)"><rect x="0" width="810" y="0" height="809.999993" style="fill:#000000;fill-opacity:0.3;stroke:none;"/></g></mask></g><path style=" stroke:none;fill-rule:nonzero;fill:#ffffff;fill-opacity:1;" d="M 609.90625 131.074219 L 587.25 154.636719 L 643.894531 213.546875 L 734.523438 119.289062 L 711.867188 95.726562 L 643.894531 166.417969 Z M 609.90625 131.074219 "/><path style=" stroke:none;fill-rule:nonzero;fill:#ffffff;fill-opacity:1;" d="M 576.984375 425.25 L 625.753906 523.675781 L 734.207031 539.753906 L 655.886719 616.695312 L 674.117188 725.070312 L 576.945312 674.199219 L 479.757812 725.097656 L 498.019531 616.71875 L 419.726562 539.800781 L 528.183594 523.6875 Z M 576.984375 425.25 "/><path style=" stroke:none;fill-rule:nonzero;fill:#ffffff;fill-opacity:1;" d="M 127.199219 139.980469 C 156.890625 110.429688 205.027344 110.429688 234.714844 139.980469 C 264.40625 110.429688 312.542969 110.429688 342.230469 139.980469 C 371.921875 169.53125 371.921875 217.441406 342.230469 246.992188 C 331.839844 257.335938 321.535156 267.796875 311.226562 278.265625 C 286.03125 303.847656 260.800781 329.46875 234.175781 353.453125 C 208.90625 328.328125 183.648438 303.183594 158.394531 278.042969 C 147.996094 267.691406 137.597656 257.339844 127.199219 246.992188 C 97.507812 217.441406 97.507812 169.53125 127.199219 139.980469 Z M 127.199219 139.980469 "/><path style=" stroke:none;fill-rule:evenodd;fill:#000000;fill-opacity:1;" d="M 628.199219 520.316406 L 576.984375 416.957031 L 525.742188 520.328125 L 411.871094 537.246094 L 494.070312 618 L 474.898438 731.800781 L 576.945312 678.355469 L 678.976562 731.769531 L 659.839844 617.976562 L 742.0625 537.195312 Z M 530.628906 527.046875 L 576.984375 433.542969 L 623.308594 527.035156 L 726.347656 542.308594 L 651.941406 615.414062 L 669.257812 718.371094 L 576.945312 670.042969 L 484.621094 718.394531 L 501.972656 615.4375 L 427.582031 542.355469 Z M 530.628906 527.046875 "/><path style=" stroke:none;fill-rule:evenodd;fill:#000000;fill-opacity:1;" d="M 124.601562 137.371094 C 154.875 107.238281 203.441406 106.414062 234.714844 134.898438 C 265.992188 106.414062 314.554688 107.238281 344.828125 137.371094 C 375.964844 168.359375 375.964844 218.613281 344.828125 249.601562 C 334.496094 259.886719 324.222656 270.316406 313.933594 280.769531 C 288.707031 306.382812 263.351562 332.128906 236.640625 356.191406 L 234.050781 358.523438 L 231.578125 356.066406 C 206.359375 330.984375 181.148438 305.890625 155.941406 280.796875 L 155.804688 280.664062 C 145.40625 270.308594 135.003906 259.953125 124.601562 249.601562 C 93.464844 218.613281 93.464844 168.359375 124.601562 137.371094 Z M 129.796875 142.589844 C 158.050781 114.46875 203.863281 114.46875 232.117188 142.589844 L 234.714844 145.175781 L 237.3125 142.589844 C 265.566406 114.46875 311.382812 114.46875 339.636719 142.589844 C 367.878906 170.699219 367.878906 216.269531 339.636719 244.382812 C 329.1875 254.78125 318.847656 265.277344 308.523438 275.765625 L 308.519531 275.765625 C 284.175781 300.484375 259.882812 325.152344 234.296875 348.382812 C 210.007812 324.226562 185.734375 300.0625 161.457031 275.898438 L 160.925781 275.367188 C 150.546875 265.039062 140.171875 254.710938 129.796875 244.382812 C 101.554688 216.269531 101.554688 170.699219 129.796875 142.589844 Z M 129.796875 142.589844 "/><path style=" stroke:none;fill-rule:evenodd;fill:#000000;fill-opacity:1;" d="M 471.273438 235.636719 C 471.273438 105.496094 365.773438 0 235.636719 0 C 105.496094 0 0 105.496094 0 235.636719 C 0 365.773438 105.496094 471.273438 235.636719 471.273438 L 367.222656 471.273438 C 351.347656 502.828125 342.410156 538.472656 342.410156 576.203125 C 342.410156 705.324219 447.082031 810 576.203125 810 C 705.324219 810 810 705.324219 810 576.203125 C 810 447.082031 705.324219 342.410156 576.203125 342.410156 C 538.472656 342.410156 502.828125 351.347656 471.273438 367.222656 Z M 349.773438 576.203125 C 349.773438 538.335938 359.070312 502.640625 375.503906 471.273438 L 471.273438 471.273438 L 471.273438 375.503906 C 502.640625 359.070312 538.335938 349.773438 576.203125 349.773438 C 701.257812 349.773438 802.636719 451.148438 802.636719 576.203125 C 802.636719 701.257812 701.257812 802.636719 576.203125 802.636719 C 451.148438 802.636719 349.773438 701.257812 349.773438 576.203125 Z M 235.636719 7.363281 C 361.707031 7.363281 463.910156 109.566406 463.910156 235.636719 L 463.910156 463.910156 L 235.636719 463.910156 C 109.566406 463.910156 7.363281 361.707031 7.363281 235.636719 C 7.363281 109.566406 109.566406 7.363281 235.636719 7.363281 Z M 235.636719 7.363281 "/><path style=" stroke:none;fill-rule:evenodd;fill:#000000;fill-opacity:1;" d="M 711.867188 90.417969 L 739.628906 119.292969 L 643.894531 218.859375 L 582.140625 154.636719 L 609.90625 125.761719 L 643.894531 161.105469 Z M 711.867188 101.042969 L 643.894531 171.730469 L 609.90625 136.386719 L 592.359375 154.636719 L 643.894531 208.234375 L 729.414062 119.292969 Z M 711.867188 101.042969 "/><path style=" stroke:none;fill-rule:evenodd;fill:#000000;fill-opacity:1;" d="M 659.964844 27.613281 C 589.304688 27.613281 532.023438 84.894531 532.023438 155.558594 C 532.023438 226.21875 589.304688 283.5 659.964844 283.5 C 730.628906 283.5 787.910156 226.21875 787.910156 155.558594 C 787.910156 84.894531 730.628906 27.613281 659.964844 27.613281 Z M 539.386719 155.558594 C 539.386719 88.960938 593.371094 34.976562 659.964844 34.976562 C 726.558594 34.976562 780.546875 88.960938 780.546875 155.558594 C 780.546875 222.152344 726.558594 276.136719 659.964844 276.136719 C 593.371094 276.136719 539.386719 222.152344 539.386719 155.558594 Z M 539.386719 155.558594 "/><path style=" stroke:none;fill-rule:evenodd;fill:#000000;fill-opacity:1;" d="M 274.949219 716.976562 C 276.96875 717.21875 278.40625 719.050781 278.164062 721.070312 C 277.921875 723.089844 276.089844 724.53125 274.070312 724.285156 C 206.667969 716.179688 169.160156 699.476562 152.195312 679.0625 C 143.601562 668.71875 140.339844 657.484375 141.179688 646.265625 C 141.328125 644.304688 141.597656 642.355469 141.984375 640.417969 C 138.753906 639.847656 135.546875 639.210938 132.363281 638.511719 C 96.652344 630.664062 63.355469 614.503906 49.433594 588.804688 C 35.164062 562.453125 42.121094 528.085938 82.25 486.292969 C 83.65625 484.828125 85.988281 484.777344 87.453125 486.1875 C 88.921875 487.59375 88.96875 489.925781 87.558594 491.394531 C 48.289062 532.296875 43.929688 563.175781 55.910156 585.296875 C 68.238281 608.0625 98.765625 623.585938 133.945312 631.320312 C 137.25 632.046875 140.582031 632.699219 143.929688 633.285156 C 146.183594 626.761719 149.652344 620.457031 153.957031 614.539062 C 168.144531 595.027344 191.964844 578.894531 214.464844 571.914062 C 225.726562 568.421875 236.957031 567.125 246.652344 569.097656 C 256.480469 571.09375 264.742188 576.46875 269.507812 586.085938 C 275.746094 598.679688 274.792969 609.890625 267.976562 618.964844 C 261.414062 627.703125 249.808594 633.917969 235.871094 638 C 212.222656 644.921875 180.257812 646.144531 149.257812 641.59375 C 148.898438 643.339844 148.652344 645.082031 148.523438 646.816406 C 147.828125 656.085938 150.453125 665.445312 157.859375 674.355469 C 172.898438 692.453125 207.859375 708.90625 274.949219 716.976562 Z M 159.914062 618.867188 C 156.222656 623.941406 153.304688 629.179688 151.332031 634.457031 C 181.171875 638.707031 211.617188 637.425781 233.804688 630.933594 C 247.125 627.03125 256.921875 621.414062 262.089844 614.542969 C 266.996094 608.007812 268.097656 599.832031 262.90625 589.355469 C 259.304688 582.078125 253.140625 577.929688 245.1875 576.3125 C 237.101562 574.671875 227.191406 575.675781 216.644531 578.949219 C 195.535156 585.5 173.089844 600.75 159.914062 618.867188 Z M 159.914062 618.867188 "/></g></svg>