<svg xmlns="http://www.w3.org/2000/svg" xmlns:xlink="http://www.w3.org/1999/xlink" width="1080" zoomAndPan="magnify" viewBox="0 0 810 809.999993" height="1080" preserveAspectRatio="xMidYMid meet" version="1.2"><g id="6b3b318b11"><path style=" stroke:none;fill-rule:nonzero;fill:#ff695a;fill-opacity:1;" d="M 6.953125 601.0625 C 7.796875 601.34375 8.59375 601.4375 9.34375 601.4375 C 12.90625 601.4375 16.234375 599.140625 17.3125 595.53125 L 37.792969 527.527344 C 91.316406 682.753906 238.25 789.332031 404.160156 789.941406 C 408.753906 789.941406 412.457031 786.238281 412.457031 781.691406 C 412.457031 777.097656 408.800781 773.398438 404.207031 773.398438 C 243.964844 772.785156 102.28125 669.019531 52.085938 518.34375 L 115.546875 559.585938 C 119.386719 562.023438 124.496094 560.945312 126.984375 557.148438 C 129.515625 553.304688 128.4375 548.199219 124.546875 545.710938 L 42.199219 492.140625 C 42.105469 492.097656 42.058594 492.046875 42.011719 492 C 41.871094 491.957031 41.777344 491.90625 41.636719 491.863281 C 41.308594 491.625 40.839844 491.441406 40.417969 491.300781 C 40.371094 491.300781 40.324219 491.253906 40.324219 491.253906 C 39.902344 491.113281 39.433594 491.019531 39.011719 490.972656 C 38.964844 490.925781 38.824219 490.925781 38.730469 490.878906 C 38.261719 490.832031 37.792969 490.832031 37.417969 490.832031 C 37.277344 490.832031 37.183594 490.832031 37.042969 490.878906 C 36.574219 490.878906 36.105469 490.972656 35.636719 491.113281 L 35.589844 491.113281 C 35.496094 491.113281 35.449219 491.160156 35.449219 491.160156 C 35.265625 491.207031 35.027344 491.253906 34.84375 491.347656 C 34.5625 491.441406 34.28125 491.535156 34.089844 491.675781 C 34.0625 491.675781 34.015625 491.691406 33.949219 491.722656 C 33.574219 491.90625 33.152344 492.1875 32.730469 492.472656 C 32.6875 492.519531 32.59375 492.566406 32.546875 492.660156 C 32.21875 492.9375 31.890625 493.265625 31.515625 493.597656 C 31.46875 493.640625 31.46875 493.734375 31.417969 493.832031 C 31.042969 494.15625 30.808594 494.53125 30.527344 494.953125 L 30.527344 495 C 30.339844 495.375 30.105469 495.796875 29.964844 496.21875 C 29.917969 496.359375 29.917969 496.410156 29.824219 496.5 C 29.824219 496.59375 29.78125 496.640625 29.78125 496.6875 L 1.425781 590.800781 C 0.113281 595.15625 2.597656 599.75 6.957031 601.0625 Z M 6.953125 601.0625 "/><path style=" stroke:none;fill-rule:nonzero;fill:#ff695a;fill-opacity:1;" d="M 24.574219 407.125 L 24.671875 407.125 C 29.167969 407.125 32.871094 403.421875 32.871094 398.875 C 33.480469 238.210938 137.949219 96.15625 289.332031 46.335938 L 250.058594 112.699219 C 247.761719 116.589844 249.027344 121.699219 252.964844 123.996094 C 254.324219 124.792969 255.726562 125.167969 257.230469 125.167969 C 260.042969 125.167969 262.761719 123.714844 264.304688 121.089844 L 314.265625 36.539062 C 314.359375 36.539062 314.359375 36.492188 314.359375 36.492188 C 314.359375 36.464844 314.375 36.429688 314.40625 36.398438 C 314.640625 36.023438 314.828125 35.601562 314.96875 35.179688 C 314.96875 35.085938 315.015625 35.039062 315.015625 34.945312 C 315.15625 34.523438 315.296875 34.054688 315.34375 33.632812 C 315.34375 33.539062 315.34375 33.398438 315.4375 33.304688 C 315.4375 32.839844 315.484375 32.367188 315.4375 31.902344 L 315.4375 31.714844 C 315.4375 31.246094 315.296875 30.777344 315.203125 30.308594 C 315.15625 30.261719 315.15625 30.210938 315.15625 30.210938 L 315.15625 30.167969 C 315.109375 29.839844 314.96875 29.464844 314.828125 29.183594 C 314.734375 29.042969 314.6875 28.949219 314.640625 28.808594 C 314.640625 28.714844 314.546875 28.621094 314.5 28.527344 C 314.265625 28.105469 314.078125 27.730469 313.796875 27.355469 C 313.75 27.261719 313.65625 27.214844 313.609375 27.121094 C 313.328125 26.792969 313 26.417969 312.671875 26.089844 L 312.578125 26.089844 C 312.25 25.761719 311.875 25.527344 311.453125 25.246094 C 311.359375 25.199219 311.3125 25.152344 311.265625 25.152344 C 310.84375 24.917969 310.425781 24.730469 309.953125 24.542969 C 309.90625 24.542969 309.8125 24.496094 309.765625 24.496094 C 309.582031 24.402344 309.4375 24.355469 309.207031 24.308594 L 214.015625 0.03125 C 213.875 -0.015625 213.734375 -0.015625 213.59375 -0.0664062 L 210.40625 -0.0664062 C 207.359375 0.542969 204.785156 2.84375 203.988281 6.027344 C 202.816406 10.433594 205.535156 14.933594 209.984375 16.058594 L 276.773438 33.117188 C 122.625 87.296875 16.984375 233.664062 16.375 398.828125 C 16.375 403.375 19.984375 407.121094 24.574219 407.121094 Z M 24.574219 407.125 "/><path style=" stroke:none;fill-rule:nonzero;fill:#ff695a;fill-opacity:1;" d="M 407.394531 27.539062 C 567.824219 28.101562 709.691406 132.199219 759.75 283.207031 L 694.929688 242.851562 C 691.085938 240.414062 685.933594 241.589844 683.542969 245.476562 C 681.152344 249.367188 682.324219 254.476562 686.214844 256.867188 L 769.589844 308.839844 C 769.683594 308.886719 769.730469 308.9375 769.871094 308.980469 C 770.011719 309.078125 770.152344 309.171875 770.339844 309.21875 C 770.574219 309.359375 770.761719 309.453125 771.042969 309.542969 C 771.183594 309.589844 771.371094 309.636719 771.511719 309.730469 C 771.792969 309.777344 771.980469 309.871094 772.261719 309.917969 C 772.355469 309.917969 772.589844 309.964844 772.730469 310.011719 C 773.058594 310.058594 773.386719 310.058594 773.714844 310.058594 C 773.808594 310.058594 773.855469 310.105469 773.949219 310.105469 C 774.417969 310.105469 774.886719 310.058594 775.261719 309.964844 C 775.402344 309.964844 775.542969 309.917969 775.683594 309.917969 C 775.824219 309.871094 775.964844 309.871094 776.105469 309.820312 C 776.246094 309.777344 776.339844 309.726562 776.480469 309.679688 C 776.621094 309.636719 776.761719 309.585938 776.949219 309.542969 C 777.183594 309.445312 777.324219 309.351562 777.511719 309.304688 C 777.558594 309.261719 777.652344 309.210938 777.699219 309.164062 C 778.121094 308.976562 778.496094 308.742188 778.917969 308.464844 C 779.011719 308.367188 779.058594 308.324219 779.105469 308.226562 C 779.527344 307.945312 779.855469 307.667969 780.136719 307.289062 C 780.183594 307.246094 780.277344 307.195312 780.277344 307.148438 C 780.605469 306.773438 780.792969 306.449219 781.074219 306.070312 C 781.074219 306.027344 781.167969 305.976562 781.167969 305.933594 C 781.355469 305.511719 781.542969 305.089844 781.683594 304.667969 C 781.777344 304.574219 781.777344 304.480469 781.824219 304.386719 C 781.824219 304.246094 781.871094 304.152344 781.871094 304.058594 L 808.492188 209.480469 C 809.710938 205.074219 807.132812 200.527344 802.726562 199.308594 C 798.273438 198.042969 793.773438 200.621094 792.460938 205.027344 L 773.574219 272.5625 C 719.769531 117.804688 573.074219 11.601562 407.441406 10.992188 C 402.847656 10.992188 399.148438 14.648438 399.148438 19.242188 C 399.148438 23.789062 402.847656 27.488281 407.394531 27.535156 Z M 407.394531 27.539062 "/><path style=" stroke:none;fill-rule:nonzero;fill:#ff695a;fill-opacity:1;" d="M 787.074219 393.8125 C 782.480469 393.71875 778.777344 397.46875 778.777344 402.0625 C 778.167969 561.554688 675.246094 702.765625 525.59375 753.523438 L 568.855469 693.910156 C 571.480469 690.207031 570.636719 685.050781 566.933594 682.378906 C 563.277344 679.707031 558.121094 680.503906 555.402344 684.207031 L 497.804688 763.742188 C 497.664062 763.929688 497.523438 764.117188 497.382812 764.351562 C 497.335938 764.394531 497.335938 764.445312 497.242188 764.492188 C 497.054688 764.910156 496.867188 765.332031 496.726562 765.753906 C 496.632812 765.847656 496.632812 765.941406 496.585938 766.035156 C 496.445312 766.457031 496.398438 766.925781 496.304688 767.347656 C 496.257812 767.441406 496.257812 767.535156 496.257812 767.628906 C 496.257812 768.050781 496.164062 768.519531 496.257812 768.941406 L 496.257812 769.132812 C 496.257812 769.597656 496.304688 770.070312 496.445312 770.535156 L 496.445312 770.726562 C 496.492188 770.773438 496.492188 770.820312 496.492188 770.867188 C 496.492188 770.914062 496.492188 770.960938 496.585938 771.054688 C 496.632812 771.378906 496.773438 771.664062 496.914062 771.988281 C 496.960938 772.085938 497.054688 772.179688 497.054688 772.226562 C 497.195312 772.507812 497.335938 772.789062 497.523438 773.066406 C 497.570312 773.164062 497.664062 773.304688 497.710938 773.394531 C 497.945312 773.675781 498.179688 773.957031 498.414062 774.191406 C 498.460938 774.242188 498.460938 774.285156 498.460938 774.285156 C 498.742188 774.566406 499.070312 774.847656 499.351562 775.082031 C 499.492188 775.132812 499.539062 775.222656 499.632812 775.273438 C 499.867188 775.460938 500.148438 775.648438 500.429688 775.789062 C 500.476562 775.835938 500.570312 775.882812 500.710938 775.929688 C 501.039062 776.117188 501.320312 776.257812 501.695312 776.398438 L 594.117188 809.4375 C 595.054688 809.765625 596.039062 809.953125 596.882812 809.953125 C 600.351562 809.953125 603.492188 807.84375 604.710938 804.472656 C 606.257812 800.160156 604.054688 795.425781 599.742188 793.878906 L 530.796875 769.226562 C 687.148438 716.21875 794.710938 568.726562 795.320312 402.109375 C 795.320312 397.5625 791.617188 393.816406 787.074219 393.816406 Z M 787.074219 393.8125 "/><path style=" stroke:none;fill-rule:nonzero;fill:#243260;fill-opacity:1;" d="M 408.003906 201.046875 C 519.316406 201.046875 609.863281 291.59375 609.863281 402.859375 C 609.863281 514.125 519.3125 604.671875 408.003906 604.671875 C 296.695312 604.671875 206.144531 514.125 206.144531 402.859375 C 206.144531 291.59375 296.742188 201.046875 408.003906 201.046875 Z M 234.21875 145.835938 C 218.609375 136.554688 199.675781 138.898438 186.925781 151.742188 L 156.839844 181.738281 C 144.089844 194.53125 141.792969 213.558594 151.027344 229.027344 L 175.585938 270.175781 C 164.382812 289.769531 155.667969 310.625 149.714844 332.324219 L 103.363281 344.039062 C 85.832031 348.492188 74.023438 363.585938 74.023438 381.628906 L 74.023438 424.089844 C 74.023438 442.136719 85.835938 457.273438 103.363281 461.679688 L 149.714844 473.394531 C 155.667969 495.097656 164.386719 515.953125 175.585938 535.542969 L 151.027344 576.691406 C 141.792969 592.207031 144.089844 611.234375 156.882812 623.984375 L 186.925781 653.980469 C 199.582031 666.773438 218.609375 669.164062 234.21875 659.882812 L 275.367188 635.324219 C 295.003906 646.574219 315.8125 655.199219 337.511719 661.101562 L 349.183594 707.550781 C 353.636719 725.078125 368.726562 736.84375 386.816406 736.84375 L 429.230469 736.84375 C 447.324219 736.84375 462.414062 725.078125 466.820312 707.550781 L 478.539062 661.101562 C 500.238281 655.199219 521.046875 646.574219 540.683594 635.324219 L 581.835938 659.882812 C 597.347656 669.164062 616.375 666.773438 629.125 653.980469 L 659.167969 623.984375 C 671.914062 611.234375 674.257812 592.207031 665.023438 576.691406 L 640.464844 535.542969 C 651.664062 516.046875 660.289062 495.191406 666.242188 473.394531 L 712.734375 461.679688 C 730.21875 457.273438 741.933594 442.136719 741.933594 424.089844 L 741.933594 381.628906 C 741.933594 363.585938 730.21875 348.492188 712.734375 344.085938 L 666.242188 332.320312 C 660.289062 310.574219 651.664062 289.71875 640.464844 270.175781 L 665.023438 229.027344 C 674.351562 213.511719 672.007812 194.53125 659.167969 181.734375 L 629.125 151.738281 C 616.378906 138.898438 597.347656 136.554688 581.835938 145.832031 L 540.683594 170.394531 C 521.140625 159.191406 500.285156 150.566406 478.539062 144.613281 L 466.820312 98.167969 C 462.414062 80.6875 447.324219 68.921875 429.230469 68.921875 L 386.816406 68.921875 C 368.726562 68.921875 353.636719 80.6875 349.183594 98.167969 L 337.511719 144.613281 C 315.8125 150.472656 295.003906 159.144531 275.367188 170.394531 L 234.21875 145.832031 Z M 234.21875 145.835938 "/><path style=" stroke:none;fill-rule:nonzero;fill:#243260;fill-opacity:1;" d="M 283.382812 405.765625 L 283.710938 405.578125 C 283.054688 394.988281 288.164062 384.441406 297.957031 378.769531 L 314.21875 369.398438 C 314.21875 369.351562 314.265625 369.304688 314.265625 369.257812 C 314.359375 369.257812 314.40625 369.257812 314.40625 369.210938 L 344.496094 351.871094 C 365.492188 335.183594 377.773438 315.453125 382.039062 291.691406 C 379.601562 286.019531 379.039062 279.691406 380.726562 273.554688 C 382.648438 266.382812 387.195312 260.382812 393.613281 256.679688 C 406.832031 249.039062 423.84375 253.632812 431.484375 266.851562 L 513.925781 409.609375 C 521.515625 422.875 517.019531 439.886719 503.800781 447.574219 C 499.394531 450.058594 494.707031 451.230469 489.976562 451.230469 C 481.398438 451.230469 473.007812 447.246094 467.710938 440.121094 C 444.886719 431.871094 421.6875 432.667969 396.800781 442.511719 L 391.925781 445.324219 L 428.625 508.925781 C 432.464844 515.671875 433.542969 523.546875 431.527344 531.09375 C 429.511719 538.640625 424.734375 544.917969 417.984375 548.808594 C 413.390625 551.480469 408.328125 552.746094 403.410156 552.746094 C 393.332031 552.746094 383.492188 547.496094 378.054688 538.167969 L 340.371094 472.882812 C 338.917969 473.070312 337.511719 473.210938 336.058594 473.210938 C 333.527344 473.210938 330.949219 472.882812 328.46875 472.175781 C 325.328125 471.335938 322.515625 469.976562 319.890625 468.242188 L 319.609375 468.382812 C 313.9375 471.710938 307.753906 473.253906 301.613281 473.253906 C 289.050781 473.253906 276.910156 466.789062 270.160156 455.210938 C 260.226562 437.914062 266.175781 415.699219 283.378906 405.765625 Z M 465.933594 296.140625 L 474.230469 265.347656 C 475.398438 260.941406 479.902344 258.316406 484.351562 259.488281 C 488.757812 260.660156 491.382812 265.207031 490.164062 269.613281 L 481.917969 300.40625 C 480.929688 304.109375 477.605469 306.546875 473.996094 306.546875 C 473.246094 306.546875 472.542969 306.449219 471.839844 306.265625 C 467.433594 305.089844 464.808594 300.546875 465.933594 296.140625 Z M 495.785156 319.574219 L 523.441406 303.6875 C 527.328125 301.4375 532.390625 302.796875 534.6875 306.734375 C 536.984375 310.714844 535.625 315.78125 531.640625 318.074219 L 504.082031 333.964844 C 502.722656 334.667969 501.320312 335.042969 499.957031 335.042969 C 497.054688 335.042969 494.285156 333.542969 492.742188 330.871094 C 490.445312 326.933594 491.851562 321.871094 495.785156 319.574219 Z M 544.53125 363.820312 C 548.9375 364.988281 551.5625 369.535156 550.34375 373.941406 C 549.40625 377.644531 546.03125 380.082031 542.375 380.082031 C 541.625 380.082031 540.96875 379.988281 540.21875 379.800781 L 509.519531 371.550781 C 505.066406 370.382812 502.441406 365.835938 503.660156 361.382812 C 504.789062 357.023438 509.378906 354.398438 513.785156 355.570312 Z M 408.003906 588.128906 C 510.222656 588.128906 593.320312 505.03125 593.320312 402.859375 C 593.320312 300.6875 510.222656 217.589844 408.003906 217.589844 C 305.785156 217.589844 222.734375 300.6875 222.734375 402.859375 C 222.734375 505.035156 305.832031 588.128906 408.003906 588.128906 Z M 408.003906 588.128906 "/><path style=" stroke:none;fill-rule:nonzero;fill:#ff695a;fill-opacity:1;" d="M 355.652344 466.273438 L 392.398438 529.871094 C 395.914062 535.917969 403.695312 537.980469 409.691406 534.464844 C 412.597656 532.824219 414.660156 530.105469 415.550781 526.824219 C 416.441406 523.542969 415.972656 520.121094 414.285156 517.214844 L 377.632812 453.617188 Z M 355.652344 466.273438 "/><path style=" stroke:none;fill-rule:nonzero;fill:#ff695a;fill-opacity:1;" d="M 480.226562 429.105469 C 481.726562 431.683594 484.117188 433.511719 486.976562 434.304688 C 489.882812 435.101562 492.929688 434.683594 495.507812 433.183594 C 500.847656 430.136719 502.722656 423.246094 499.632812 417.902344 L 417.191406 275.144531 C 415.691406 272.566406 413.253906 270.691406 410.347656 269.941406 C 409.410156 269.660156 408.378906 269.519531 407.441406 269.519531 C 405.519531 269.519531 403.597656 270.035156 401.863281 271.019531 C 399.289062 272.519531 397.457031 274.910156 396.664062 277.863281 C 395.914062 280.769531 396.335938 283.769531 397.789062 286.34375 L 480.230469 429.105469 Z M 480.226562 429.105469 "/><path style=" stroke:none;fill-rule:nonzero;fill:#ff695a;fill-opacity:1;" d="M 309.019531 455.164062 L 289.566406 421.511719 C 281.882812 427.371094 279.539062 438.292969 284.554688 446.914062 C 289.476562 455.539062 300.066406 458.914062 309.019531 455.164062 Z M 309.019531 455.164062 "/><path style=" stroke:none;fill-rule:nonzero;fill:#ff695a;fill-opacity:1;" d="M 300.769531 407.359375 C 301.050781 408.109375 301.378906 408.859375 301.800781 409.609375 L 325.46875 450.570312 C 327.015625 453.382812 329.6875 455.351562 332.78125 456.195312 C 335.921875 457.085938 339.25 456.664062 342.015625 455.023438 L 351.199219 449.726562 L 315.441406 387.769531 L 306.253906 393.0625 C 301.191406 395.972656 299.035156 401.96875 300.769531 407.265625 Z M 300.769531 407.359375 "/><path style=" stroke:none;fill-rule:nonzero;fill:#ff695a;fill-opacity:1;" d="M 389.023438 427.886719 C 389.351562 427.652344 389.773438 427.511719 390.097656 427.324219 C 412.5 418.417969 434.433594 415.886719 455.761719 419.777344 L 393.613281 312.214844 C 386.394531 332.511719 373.179688 350.273438 354.292969 365.222656 C 353.960938 365.460938 353.636719 365.691406 353.261719 365.878906 L 329.730469 379.472656 L 365.539062 441.476562 L 389.019531 427.886719 Z M 389.023438 427.886719 "/></g></svg>