<svg xmlns="http://www.w3.org/2000/svg" xmlns:xlink="http://www.w3.org/1999/xlink" width="1080" zoomAndPan="magnify" viewBox="0 0 810 809.999993" height="1080" preserveAspectRatio="xMidYMid meet" version="1.2"><g id="885c8a8b93"><path style=" stroke:none;fill-rule:nonzero;fill:#c3b6ce;fill-opacity:1;" d="M 462.664062 717.171875 L 324.6875 796.8125 C 301.84375 810 261.574219 808.332031 235.199219 793.109375 L 75.882812 701.144531 C 61.496094 692.839844 54.09375 682.148438 54.046875 672.003906 C 54.007812 663.550781 54.316406 648.996094 54.316406 634.570312 L 207.429688 569.84375 C 230.273438 556.664062 270.542969 558.332031 296.917969 573.554688 L 478.070312 658.636719 C 478.070312 671.238281 477.964844 684.429688 478.070312 694.542969 C 478.15625 703.035156 473.089844 711.148438 462.664062 717.171875 "/><path style=" stroke:none;fill-rule:nonzero;fill:#1e1c1b;fill-opacity:1;" d="M 56.960938 636.324219 C 56.949219 643.273438 56.875 650.1875 56.804688 656.378906 C 56.734375 662.53125 56.671875 667.953125 56.695312 671.988281 C 56.742188 681.558594 64.21875 691.355469 77.207031 698.851562 L 236.523438 790.816406 C 262.230469 805.652344 301.195312 807.324219 323.371094 794.523438 L 461.339844 714.878906 C 470.503906 709.59375 475.503906 702.378906 475.425781 694.566406 C 475.355469 687.875 475.375 679.835938 475.402344 671.511719 L 475.425781 660.308594 L 295.792969 575.949219 C 269.871094 561 230.917969 559.347656 208.757812 572.132812 Z M 285.828125 808.339844 C 267.75 808.339844 248.707031 803.953125 233.878906 795.398438 L 74.558594 703.433594 C 59.898438 694.96875 51.457031 683.515625 51.402344 672.019531 C 51.382812 667.960938 51.441406 662.5 51.511719 656.324219 C 51.589844 649.625 51.671875 642.078125 51.671875 634.570312 C 51.671875 633.507812 52.304688 632.550781 53.285156 632.136719 L 206.402344 567.410156 C 229.75 553.925781 271.070312 555.585938 298.238281 571.265625 L 479.195312 656.242188 C 480.125 656.671875 480.714844 657.605469 480.714844 658.632812 L 480.695312 671.523438 C 480.667969 679.828125 480.644531 687.839844 480.714844 694.511719 C 480.820312 704.3125 474.882812 713.175781 463.984375 719.464844 L 326.015625 799.105469 C 315.277344 805.300781 300.882812 808.339844 285.828125 808.339844 "/><path style=" stroke:none;fill-rule:nonzero;fill:#ffffff;fill-opacity:1;" d="M 462.664062 682.839844 L 324.6875 762.480469 C 301.84375 775.664062 261.574219 773.996094 235.199219 758.773438 L 75.882812 666.808594 C 49.503906 651.585938 46.617188 628.339844 69.457031 615.152344 L 207.429688 535.511719 C 230.273438 522.328125 270.542969 523.996094 296.917969 539.21875 L 456.238281 631.1875 C 482.613281 646.410156 485.507812 669.652344 462.664062 682.839844 "/><path style=" stroke:none;fill-rule:nonzero;fill:#1e1c1b;fill-opacity:1;" d="M 462.664062 682.839844 L 462.730469 682.839844 Z M 246.296875 529.195312 C 232.199219 529.195312 218.769531 532.023438 208.757812 537.804688 L 70.777344 617.445312 C 61.695312 622.6875 56.695312 629.835938 56.695312 637.570312 C 56.695312 647.171875 64.167969 656.992188 77.207031 664.519531 L 236.523438 756.480469 C 262.246094 771.328125 301.195312 772.984375 323.371094 760.191406 L 461.339844 680.550781 C 470.421875 675.304688 475.425781 668.15625 475.425781 660.421875 C 475.425781 650.820312 467.945312 641 454.914062 633.472656 L 295.59375 541.507812 C 281.496094 533.371094 263.402344 529.195312 246.296875 529.195312 Z M 285.835938 774.003906 C 267.75 774.003906 248.707031 769.625 233.878906 761.0625 L 74.558594 669.101562 C 59.84375 660.605469 51.402344 649.113281 51.402344 637.570312 C 51.402344 627.867188 57.34375 619.089844 68.132812 612.867188 L 206.113281 533.222656 C 229.738281 519.582031 271.070312 521.242188 298.238281 536.929688 L 457.558594 628.898438 C 472.273438 637.390625 480.714844 648.875 480.714844 660.421875 C 480.714844 670.125 474.777344 678.898438 463.984375 685.128906 L 326.015625 764.773438 C 315.277344 770.96875 300.882812 774.003906 285.835938 774.003906 "/><path style=" stroke:none;fill-rule:nonzero;fill:#c3b6ce;fill-opacity:1;" d="M 740.648438 564.351562 L 602.671875 643.996094 C 579.835938 657.179688 539.566406 655.507812 513.191406 640.285156 L 353.871094 548.320312 C 339.484375 540.015625 332.082031 529.324219 332.039062 519.183594 C 332 510.730469 332.304688 496.175781 332.304688 481.753906 L 485.421875 417.027344 C 508.261719 403.839844 548.53125 405.511719 574.902344 420.730469 L 756.058594 505.8125 C 756.058594 518.417969 755.953125 531.613281 756.054688 541.71875 C 756.144531 550.210938 751.078125 558.332031 740.648438 564.351562 "/><path style=" stroke:none;fill-rule:nonzero;fill:#1e1c1b;fill-opacity:1;" d="M 334.949219 483.503906 C 334.933594 490.539062 334.859375 497.546875 334.789062 503.804688 C 334.722656 509.847656 334.667969 515.1875 334.679688 519.175781 C 334.730469 528.742188 342.207031 538.535156 355.191406 546.03125 L 514.515625 637.992188 C 540.226562 652.839844 579.1875 654.507812 601.351562 641.703125 L 739.328125 562.0625 C 748.488281 556.769531 753.492188 549.5625 753.410156 541.75 C 753.347656 535.136719 753.371094 527.210938 753.390625 518.996094 L 753.414062 507.492188 L 573.785156 423.128906 C 547.863281 408.1875 508.925781 406.519531 486.738281 419.316406 Z M 563.820312 655.519531 C 545.734375 655.519531 526.699219 651.136719 511.867188 642.574219 L 352.546875 550.613281 C 337.882812 542.152344 329.445312 530.699219 329.390625 519.199219 C 329.378906 515.191406 329.433594 509.816406 329.5 503.742188 C 329.574219 496.984375 329.65625 489.351562 329.65625 481.753906 C 329.65625 480.6875 330.292969 479.726562 331.269531 479.316406 L 484.390625 414.59375 C 507.734375 401.097656 549.058594 402.761719 576.230469 418.445312 L 757.1875 503.417969 C 758.113281 503.855469 758.710938 504.789062 758.710938 505.8125 L 758.679688 519.011719 C 758.65625 527.207031 758.640625 535.109375 758.699219 541.699219 C 758.804688 551.496094 752.863281 560.355469 741.972656 566.640625 L 603.996094 646.285156 C 593.265625 652.480469 578.875 655.519531 563.820312 655.519531 "/><path style=" stroke:none;fill-rule:nonzero;fill:#ffffff;fill-opacity:1;" d="M 740.652344 530.015625 L 602.679688 609.660156 C 579.839844 622.839844 539.570312 621.171875 513.191406 605.949219 L 353.875 513.984375 C 327.496094 498.761719 324.605469 475.515625 347.445312 462.332031 L 485.425781 382.6875 C 508.269531 369.503906 548.535156 371.171875 574.910156 386.394531 L 734.234375 478.363281 C 760.605469 493.585938 763.496094 516.828125 740.652344 530.015625 "/><path style=" stroke:none;fill-rule:nonzero;fill:#1e1c1b;fill-opacity:1;" d="M 740.652344 530.015625 L 740.722656 530.015625 Z M 524.269531 376.375 C 510.183594 376.375 496.761719 379.199219 486.742188 384.976562 L 348.773438 464.621094 C 339.691406 469.863281 334.679688 477.015625 334.679688 484.753906 C 334.679688 494.351562 342.15625 504.175781 355.191406 511.695312 L 514.511719 603.660156 C 540.230469 618.5 579.191406 620.171875 601.355469 607.367188 L 739.332031 527.722656 C 748.414062 522.476562 753.421875 515.332031 753.421875 507.597656 C 753.421875 497.996094 745.941406 488.175781 732.910156 480.652344 L 573.59375 388.6875 C 559.484375 380.546875 541.394531 376.375 524.269531 376.375 Z M 563.820312 621.183594 C 545.742188 621.183594 526.691406 616.800781 511.867188 608.242188 L 352.546875 516.273438 C 337.832031 507.78125 329.390625 496.292969 329.390625 484.753906 C 329.390625 475.046875 335.335938 466.265625 346.125 460.039062 L 484.101562 380.398438 C 507.730469 366.753906 549.042969 368.417969 576.234375 384.105469 L 735.550781 476.070312 C 750.265625 484.566406 758.710938 496.058594 758.710938 507.597656 C 758.710938 517.300781 752.761719 526.078125 741.972656 532.304688 L 603.996094 611.949219 C 593.269531 618.144531 578.875 621.183594 563.820312 621.183594 "/><path style=" stroke:none;fill-rule:nonzero;fill:#1e1c1b;fill-opacity:1;" d="M 740.652344 482.761719 L 740.722656 482.761719 Z M 524.269531 329.121094 C 510.183594 329.121094 496.761719 331.949219 486.742188 337.730469 L 348.773438 417.371094 C 339.691406 422.617188 334.679688 429.765625 334.679688 437.503906 C 334.679688 447.101562 342.15625 456.921875 355.191406 464.441406 L 514.511719 556.410156 C 540.234375 571.261719 579.179688 572.914062 601.355469 560.117188 L 739.332031 480.476562 C 748.414062 475.230469 753.421875 468.082031 753.421875 460.34375 C 753.421875 450.742188 745.941406 440.925781 732.910156 433.402344 L 573.59375 341.4375 C 559.484375 333.300781 541.394531 329.121094 524.269531 329.121094 Z M 563.820312 573.933594 C 545.742188 573.933594 526.691406 569.554688 511.867188 560.988281 L 352.546875 469.027344 C 337.832031 460.535156 329.390625 449.039062 329.390625 437.503906 C 329.390625 427.796875 335.335938 419.019531 346.125 412.789062 L 484.101562 333.152344 C 507.730469 319.507812 549.042969 321.167969 576.234375 336.859375 L 735.550781 428.820312 C 750.265625 437.3125 758.710938 448.804688 758.710938 460.34375 C 758.710938 470.054688 752.761719 478.828125 741.972656 485.058594 L 603.996094 564.699219 C 593.269531 570.898438 578.878906 573.933594 563.820312 573.933594 "/><path style=" stroke:none;fill-rule:nonzero;fill:#1e1c1b;fill-opacity:1;" d="M 740.652344 424.78125 L 740.722656 424.78125 Z M 524.28125 271.136719 C 510.183594 271.136719 496.761719 273.964844 486.742188 279.746094 L 348.773438 359.386719 C 339.691406 364.632812 334.679688 371.78125 334.679688 379.519531 C 334.679688 389.113281 342.15625 398.941406 355.191406 406.460938 L 514.511719 498.421875 C 540.230469 513.269531 579.191406 514.933594 601.355469 502.132812 L 739.332031 422.488281 C 748.414062 417.242188 753.421875 410.097656 753.421875 402.359375 C 753.421875 392.757812 745.941406 382.941406 732.910156 375.417969 L 573.59375 283.453125 C 559.484375 275.3125 541.398438 271.136719 524.28125 271.136719 Z M 563.820312 515.949219 C 545.742188 515.949219 526.703125 511.566406 511.867188 503.007812 L 352.546875 411.039062 C 337.832031 402.546875 329.390625 391.058594 329.390625 379.519531 C 329.390625 369.808594 335.335938 361.03125 346.125 354.808594 L 484.101562 275.164062 C 507.730469 261.519531 549.0625 263.1875 576.234375 278.871094 L 735.550781 370.835938 C 750.265625 379.324219 758.710938 390.816406 758.710938 402.359375 C 758.710938 412.066406 752.761719 420.84375 741.972656 427.070312 L 603.996094 506.714844 C 593.269531 512.910156 578.878906 515.949219 563.820312 515.949219 "/><path style=" stroke:none;fill-rule:nonzero;fill:#4e4f51;fill-opacity:1;" d="M 477.242188 415.816406 C 481.601562 409.4375 479.941406 400.648438 473.558594 396.289062 L 395.839844 343.246094 C 389.457031 338.886719 380.667969 340.542969 376.308594 346.921875 C 371.949219 353.308594 373.605469 362.09375 379.988281 366.457031 L 457.710938 419.5 C 464.09375 423.859375 472.886719 422.199219 477.242188 415.816406 "/><path style=" stroke:none;fill-rule:nonzero;fill:#1e1c1b;fill-opacity:1;" d="M 387.960938 343.449219 C 387.242188 343.449219 386.527344 343.523438 385.804688 343.65625 C 382.800781 344.226562 380.203125 345.914062 378.496094 348.417969 C 376.785156 350.925781 376.152344 353.953125 376.722656 356.960938 C 377.289062 359.964844 378.972656 362.5625 381.484375 364.269531 L 459.203125 417.316406 C 461.710938 419.023438 464.742188 419.648438 467.746094 419.089844 C 470.75 418.519531 473.347656 416.828125 475.058594 414.328125 C 476.765625 411.820312 477.398438 408.792969 476.828125 405.78125 C 476.261719 402.78125 474.570312 400.1875 472.070312 398.476562 L 394.34375 345.425781 C 392.441406 344.125 390.234375 343.449219 387.960938 343.449219 Z M 465.578125 424.582031 C 462.25 424.582031 459.011719 423.59375 456.222656 421.6875 L 378.496094 368.636719 C 374.828125 366.136719 372.351562 362.335938 371.519531 357.9375 C 370.695312 353.546875 371.621094 349.105469 374.125 345.433594 C 376.625 341.765625 380.429688 339.28125 384.824219 338.457031 C 389.203125 337.625 393.652344 338.550781 397.335938 341.058594 L 475.050781 394.105469 C 478.722656 396.609375 481.195312 400.410156 482.03125 404.804688 C 482.855469 409.195312 481.9375 413.636719 479.425781 417.308594 C 476.925781 420.980469 473.121094 423.457031 468.726562 424.289062 C 467.679688 424.484375 466.625 424.582031 465.578125 424.582031 "/><path style=" stroke:none;fill-rule:nonzero;fill:#4e4f51;fill-opacity:1;" d="M 555.152344 346.898438 C 550.792969 340.519531 542.003906 338.867188 535.617188 343.226562 L 457.925781 396.316406 C 451.546875 400.671875 449.886719 409.464844 454.253906 415.84375 C 458.613281 422.226562 467.402344 423.875 473.789062 419.515625 L 551.480469 366.429688 C 557.859375 362.070312 559.515625 353.28125 555.152344 346.898438 "/><path style=" stroke:none;fill-rule:nonzero;fill:#1e1c1b;fill-opacity:1;" d="M 543.53125 343.429688 C 541.3125 343.429688 539.074219 344.070312 537.109375 345.410156 L 459.417969 398.5 C 454.222656 402.046875 452.890625 409.160156 456.4375 414.351562 C 458.144531 416.851562 460.742188 418.546875 463.753906 419.109375 C 466.738281 419.679688 469.789062 419.042969 472.285156 417.332031 L 549.984375 364.242188 C 552.492188 362.53125 554.183594 359.933594 554.75 356.929688 C 555.316406 353.929688 554.679688 350.894531 552.96875 348.390625 C 550.765625 345.164062 547.175781 343.429688 543.53125 343.429688 Z M 465.910156 424.605469 C 464.867188 424.605469 463.820312 424.507812 462.773438 424.308594 C 458.378906 423.484375 454.574219 421.007812 452.066406 417.335938 C 446.871094 409.730469 448.828125 399.328125 456.429688 394.132812 L 534.121094 341.046875 C 541.734375 335.839844 552.144531 337.808594 557.339844 345.410156 C 559.847656 349.078125 560.769531 353.523438 559.945312 357.910156 C 559.117188 362.304688 556.640625 366.105469 552.96875 368.613281 L 475.277344 421.699219 C 472.480469 423.613281 469.234375 424.605469 465.910156 424.605469 "/><path style=" stroke:none;fill-rule:nonzero;fill:#ffffff;fill-opacity:1;" d="M 563.441406 354.492188 C 560.152344 364.902344 546.921875 378.292969 534.613281 374.832031 C 522.304688 371.375 521.984375 355.46875 535.046875 325.714844 C 548.113281 295.957031 552.003906 278.925781 562.636719 287.417969 C 573.277344 295.917969 553.335938 328.082031 553.335938 328.082031 C 553.335938 328.082031 567.523438 341.574219 563.441406 354.492188 "/><path style=" stroke:none;fill-rule:nonzero;fill:#1e1c1b;fill-opacity:1;" d="M 557.609375 287.878906 C 557.351562 287.878906 557.167969 287.925781 557.058594 287.949219 C 553.316406 288.917969 549.148438 298.972656 543.863281 311.703125 C 541.976562 316.246094 539.878906 321.300781 537.476562 326.777344 C 526.574219 351.589844 527.011719 362.566406 529.296875 367.398438 C 530.46875 369.878906 532.445312 371.472656 535.332031 372.285156 C 545.777344 375.230469 557.90625 363.238281 560.917969 353.699219 C 560.917969 353.699219 560.917969 353.699219 560.917969 353.691406 C 564.464844 342.476562 551.644531 330.117188 551.511719 329.992188 C 550.609375 329.132812 550.429688 327.753906 551.09375 326.6875 C 557.191406 316.84375 567.632812 294.792969 560.984375 289.484375 C 559.296875 288.132812 558.230469 287.878906 557.609375 287.878906 Z M 538.761719 378.046875 C 537.148438 378.046875 535.523438 377.835938 533.902344 377.378906 C 529.511719 376.144531 526.355469 373.550781 524.515625 369.660156 C 520.453125 361.058594 523.105469 346.335938 532.625 324.652344 C 535.015625 319.207031 537.101562 314.191406 538.972656 309.675781 C 545.503906 293.945312 549.445312 284.445312 555.738281 282.828125 C 558.484375 282.109375 561.28125 282.949219 564.292969 285.351562 C 575.226562 294.085938 561.109375 320.128906 556.652344 327.707031 C 560.421875 331.828125 569.679688 343.519531 565.957031 355.289062 C 562.707031 365.589844 551.132812 378.046875 538.761719 378.046875 "/><path style=" stroke:none;fill-rule:nonzero;fill:#ffffff;fill-opacity:1;" d="M 560.558594 314.273438 C 560.558594 314.273438 574.148438 322.011719 563.886719 338.757812 C 553.621094 355.507812 546.304688 338.230469 553.335938 328.082031 C 560.363281 317.933594 560.558594 314.273438 560.558594 314.273438 "/><path style=" stroke:none;fill-rule:nonzero;fill:#1e1c1b;fill-opacity:1;" d="M 561.847656 318.796875 C 560.78125 321.210938 558.890625 324.710938 555.511719 329.582031 C 552.820312 333.472656 552.667969 338.746094 554.078125 341.59375 C 554.347656 342.144531 554.921875 343.078125 555.679688 343.113281 C 555.691406 343.113281 555.710938 343.113281 555.734375 343.113281 C 556.84375 343.113281 559.03125 341.613281 561.632812 337.375 C 564.679688 332.40625 565.710938 327.898438 564.699219 323.980469 C 564.125 321.75 562.953125 320.019531 561.847656 318.796875 Z M 555.738281 348.398438 C 555.644531 348.398438 555.542969 348.398438 555.441406 348.394531 C 552.910156 348.28125 550.683594 346.65625 549.34375 343.945312 C 547.21875 339.671875 547.171875 332.335938 551.160156 326.574219 C 557.394531 317.570312 557.917969 314.054688 557.925781 314.023438 C 558.042969 313.152344 558.585938 312.34375 559.378906 311.953125 C 560.160156 311.570312 561.089844 311.535156 561.867188 311.972656 C 562.113281 312.121094 567.992188 315.527344 569.824219 322.664062 C 571.199219 328.023438 569.964844 333.902344 566.140625 340.136719 C 562.78125 345.625 559.28125 348.398438 555.738281 348.398438 "/><path style=" stroke:none;fill-rule:nonzero;fill:#ffffff;fill-opacity:1;" d="M 570.597656 325.65625 C 570.597656 325.65625 584.1875 333.386719 573.921875 350.136719 C 563.65625 366.886719 556.34375 349.609375 563.375 339.464844 C 570.402344 329.308594 570.597656 325.65625 570.597656 325.65625 "/><path style=" stroke:none;fill-rule:nonzero;fill:#1e1c1b;fill-opacity:1;" d="M 571.882812 330.179688 C 570.824219 332.589844 568.925781 336.09375 565.550781 340.964844 C 562.859375 344.855469 562.703125 350.132812 564.113281 352.976562 C 564.386719 353.527344 564.957031 354.457031 565.71875 354.496094 C 565.71875 354.496094 565.753906 354.496094 565.773438 354.496094 C 566.878906 354.496094 569.0625 353 571.671875 348.757812 C 574.714844 343.785156 575.746094 339.28125 574.730469 335.367188 C 574.164062 333.128906 572.988281 331.402344 571.882812 330.179688 Z M 565.777344 359.78125 C 565.683594 359.78125 565.582031 359.777344 565.472656 359.773438 C 562.949219 359.664062 560.722656 358.042969 559.378906 355.324219 C 557.253906 351.054688 557.203125 343.714844 561.199219 337.960938 C 567.433594 328.957031 567.953125 325.441406 567.960938 325.40625 C 568.078125 324.53125 568.621094 323.726562 569.410156 323.332031 C 570.195312 322.953125 571.125 322.917969 571.90625 323.355469 C 572.152344 323.5 578.027344 326.910156 579.859375 334.046875 C 581.238281 339.402344 580 345.285156 576.175781 351.519531 C 572.820312 357.003906 569.320312 359.78125 565.777344 359.78125 "/><path style=" stroke:none;fill-rule:nonzero;fill:#ffffff;fill-opacity:1;" d="M 537.398438 341.433594 C 537.398438 341.433594 558.398438 336.707031 568.070312 349.898438 C 577.929688 363.335938 559.796875 362.417969 556.589844 361.652344 C 550.195312 360.128906 545.066406 359.601562 537.988281 360.703125 L 537.398438 341.433594 "/><path style=" stroke:none;fill-rule:nonzero;fill:#1e1c1b;fill-opacity:1;" d="M 561.03125 364.683594 C 558.671875 364.683594 556.714844 364.402344 555.976562 364.226562 C 550.109375 362.824219 545.367188 362.222656 538.390625 363.320312 C 536.882812 363.539062 535.597656 362.546875 535.375 361.109375 C 535.148438 359.664062 536.132812 358.3125 537.578125 358.089844 C 545.367188 356.875 550.855469 357.566406 557.203125 359.078125 C 559.722656 359.6875 566.703125 359.5625 568.101562 357.457031 C 568.769531 356.457031 567.957031 354.214844 565.9375 351.460938 C 557.375 339.800781 538.175781 343.972656 537.980469 344.015625 C 536.566406 344.335938 535.136719 343.441406 534.816406 342.015625 C 534.5 340.589844 535.394531 339.175781 536.820312 338.855469 C 537.746094 338.640625 559.613281 333.90625 570.210938 348.332031 C 573.796875 353.222656 574.570312 357.28125 572.507812 360.382812 C 570.195312 363.875 565.035156 364.683594 561.03125 364.683594 "/><path style=" stroke:none;fill-rule:nonzero;fill:#a25eb5;fill-opacity:1;" d="M 369.988281 319.320312 L 286.886719 271.355469 C 278.425781 266.46875 270.640625 266.027344 264.566406 269.234375 L 146.097656 337.921875 L 276 703.96875 L 392.136719 636.894531 C 400.007812 632.847656 405.054688 622.726562 405.054688 608.191406 L 405.054688 386.300781 C 405.054688 360.59375 389.273438 330.453125 369.988281 319.320312 "/><path style=" stroke:none;fill-rule:nonzero;fill:#1e1c1b;fill-opacity:1;" d="M 149.324219 339.105469 L 277.429688 700.085938 L 390.816406 634.605469 C 398.21875 630.785156 402.410156 621.183594 402.410156 608.191406 L 402.410156 386.300781 C 402.410156 361.378906 387.273438 332.355469 368.664062 321.609375 L 285.5625 273.640625 C 278.15625 269.363281 271.328125 268.65625 265.800781 271.574219 Z M 276 706.613281 C 275.6875 706.613281 275.375 706.558594 275.082031 706.453125 C 274.34375 706.183594 273.765625 705.597656 273.503906 704.855469 L 143.597656 338.808594 C 143.171875 337.605469 143.660156 336.273438 144.761719 335.636719 L 263.238281 266.945312 C 270.449219 263.125 279.285156 263.914062 288.207031 269.0625 L 371.308594 317.027344 C 391.382812 328.613281 407.703125 359.691406 407.703125 386.300781 L 407.703125 608.191406 C 407.703125 623.234375 402.472656 634.550781 393.347656 639.246094 L 277.320312 706.261719 C 276.914062 706.496094 276.460938 706.613281 276 706.613281 "/><path style=" stroke:none;fill-rule:nonzero;fill:#8e4bab;fill-opacity:1;" d="M 250.949219 703.632812 L 167.84375 655.667969 C 148.5625 644.535156 132.78125 614.394531 132.78125 588.683594 L 132.78125 366.792969 C 132.78125 341.085938 148.5625 329.15625 167.84375 340.289062 L 250.949219 388.257812 C 270.230469 399.390625 286.011719 429.535156 286.011719 455.238281 L 286.011719 677.132812 C 286.011719 702.839844 270.230469 714.765625 250.949219 703.632812 "/><path style=" stroke:none;fill-rule:nonzero;fill:#1e1c1b;fill-opacity:1;" d="M 252.269531 701.34375 C 259.796875 705.699219 266.992188 706.335938 272.523438 703.144531 C 279.410156 699.171875 283.363281 689.683594 283.363281 677.132812 L 283.363281 455.242188 C 283.363281 430.3125 268.226562 401.285156 249.621094 390.546875 L 166.523438 342.582031 C 158.996094 338.226562 151.796875 337.597656 146.265625 340.78125 C 139.375 344.757812 135.425781 354.234375 135.425781 366.789062 L 135.425781 588.6875 C 135.425781 613.613281 150.5625 642.640625 169.167969 653.378906 Z M 264.800781 710.453125 C 259.992188 710.453125 254.839844 708.9375 249.621094 705.925781 L 166.523438 657.957031 C 146.457031 646.378906 130.136719 615.300781 130.136719 588.6875 L 130.136719 366.789062 C 130.136719 352.296875 135.046875 341.144531 143.617188 336.199219 C 150.851562 332.027344 159.921875 332.660156 169.167969 338 L 252.269531 385.96875 C 272.332031 397.546875 288.65625 428.625 288.65625 455.242188 L 288.65625 677.132812 C 288.65625 691.628906 283.742188 702.777344 275.171875 707.726562 C 272.015625 709.546875 268.515625 710.453125 264.800781 710.453125 "/><path style=" stroke:none;fill-rule:nonzero;fill:#4e4f51;fill-opacity:1;" d="M 232.648438 210.792969 L 232.648438 330.5 C 232.648438 341.15625 248.886719 349.792969 268.917969 349.792969 C 288.949219 349.792969 305.1875 341.15625 305.1875 330.5 L 305.1875 210.792969 L 232.648438 210.792969 "/><path style=" stroke:none;fill-rule:nonzero;fill:#1e1c1b;fill-opacity:1;" d="M 235.289062 213.441406 L 235.289062 330.503906 C 235.289062 339.535156 250.691406 347.148438 268.914062 347.148438 C 287.144531 347.148438 302.546875 339.535156 302.546875 330.503906 L 302.546875 213.441406 Z M 268.914062 352.445312 C 247.09375 352.445312 230 342.800781 230 330.503906 L 230 210.792969 C 230 209.332031 231.183594 208.148438 232.644531 208.148438 L 305.191406 208.148438 C 306.652344 208.148438 307.835938 209.332031 307.835938 210.792969 L 307.835938 330.503906 C 307.835938 342.800781 290.742188 352.445312 268.914062 352.445312 "/><path style=" stroke:none;fill-rule:nonzero;fill:#ffffff;fill-opacity:1;" d="M 404.683594 153.089844 C 404.683594 177.09375 385.214844 196.554688 361.207031 196.554688 C 337.195312 196.554688 317.730469 177.09375 317.730469 153.089844 C 317.730469 129.082031 337.195312 109.621094 361.207031 109.621094 C 385.214844 109.621094 404.683594 129.082031 404.683594 153.089844 "/><path style=" stroke:none;fill-rule:nonzero;fill:#1e1c1b;fill-opacity:1;" d="M 361.207031 112.261719 C 338.691406 112.261719 320.378906 130.578125 320.378906 153.085938 C 320.378906 175.589844 338.691406 193.90625 361.207031 193.90625 C 383.726562 193.90625 402.035156 175.589844 402.035156 153.085938 C 402.035156 130.578125 383.726562 112.261719 361.207031 112.261719 Z M 361.207031 199.195312 C 335.777344 199.195312 315.085938 178.511719 315.085938 153.085938 C 315.085938 127.65625 335.777344 106.972656 361.207031 106.972656 C 386.640625 106.972656 407.332031 127.65625 407.332031 153.085938 C 407.332031 178.511719 386.640625 199.195312 361.207031 199.195312 "/><path style=" stroke:none;fill-rule:nonzero;fill:#a25eb5;fill-opacity:1;" d="M 273.855469 324.417969 L 401.234375 151.992188 L 300.75 93.230469 C 295.847656 89.789062 290.1875 88.128906 284.542969 88.128906 C 278.5 88.128906 272.324219 89.925781 266.183594 93.476562 L 194.496094 134.847656 C 173.324219 147.074219 156.738281 178.308594 156.738281 205.964844 L 156.738281 229.871094 C 156.738281 247.339844 163.113281 258.59375 171.71875 264.449219 L 172.125 264.710938 C 172.925781 265.234375 173.738281 265.714844 174.570312 266.144531 L 273.855469 324.417969 "/><path style=" stroke:none;fill-rule:nonzero;fill:#1e1c1b;fill-opacity:1;" d="M 173.414062 262.410156 C 174.460938 263.0625 175.121094 263.449219 175.789062 263.796875 L 273.140625 320.929688 L 397.351562 152.785156 L 299.410156 95.507812 C 290.179688 89.074219 278.699219 89.304688 267.503906 95.761719 L 195.820312 137.140625 C 175.390625 148.9375 159.382812 179.164062 159.382812 205.960938 L 159.382812 229.871094 C 159.382812 244.699219 164.296875 256.203125 173.214844 262.261719 C 173.28125 262.308594 173.351562 262.359375 173.414062 262.410156 Z M 273.855469 327.058594 C 273.394531 327.058594 272.933594 326.945312 272.519531 326.695312 L 173.234375 268.421875 C 172.441406 268.015625 171.539062 267.492188 170.671875 266.917969 C 170.53125 266.824219 170.394531 266.71875 170.265625 266.59375 C 159.855469 259.519531 154.09375 246.5 154.09375 229.871094 L 154.09375 205.960938 C 154.09375 177.453125 171.253906 145.207031 193.175781 132.558594 L 264.855469 91.179688 C 277.832031 83.6875 291.757812 83.6875 302.265625 91.066406 L 402.570312 149.703125 C 403.21875 150.085938 403.671875 150.722656 403.824219 151.457031 C 403.980469 152.191406 403.8125 152.957031 403.359375 153.558594 L 275.984375 325.988281 C 275.46875 326.683594 274.667969 327.058594 273.855469 327.058594 "/><path style=" stroke:none;fill-rule:nonzero;fill:#ffffff;fill-opacity:1;" d="M 288.3125 328.269531 C 272.964844 328.269531 257.480469 316.0625 257.480469 288.808594 L 257.480469 264.898438 C 257.480469 237.25 274.066406 206.011719 295.238281 193.789062 L 366.925781 152.414062 C 373.0625 148.863281 379.242188 147.066406 385.285156 147.066406 C 400.640625 147.066406 416.121094 159.269531 416.121094 186.527344 L 416.121094 210.433594 C 416.121094 238.089844 399.539062 269.320312 378.359375 281.546875 L 306.675781 322.925781 C 300.53125 326.46875 294.355469 328.269531 288.320312 328.269531 L 288.3125 328.269531 "/><path style=" stroke:none;fill-rule:nonzero;fill:#1e1c1b;fill-opacity:1;" d="M 385.289062 149.308594 C 379.636719 149.308594 373.84375 151.007812 368.050781 154.351562 L 296.355469 195.730469 C 275.820312 207.59375 259.730469 237.976562 259.730469 264.902344 L 259.730469 288.804688 C 259.730469 314.515625 274.082031 326.023438 288.308594 326.023438 C 293.960938 326.023438 299.753906 324.332031 305.550781 320.980469 L 377.242188 279.597656 C 397.785156 267.742188 413.871094 237.363281 413.871094 210.4375 L 413.871094 186.53125 C 413.871094 160.820312 399.515625 149.308594 385.289062 149.308594 Z M 288.316406 330.511719 C 271.859375 330.511719 255.238281 317.617188 255.238281 288.804688 L 255.238281 264.902344 C 255.238281 236.523438 272.3125 204.4375 294.113281 191.847656 L 365.804688 150.46875 C 372.289062 146.71875 378.847656 144.820312 385.289062 144.820312 C 401.753906 144.820312 418.363281 157.71875 418.363281 186.53125 L 418.363281 210.4375 C 418.363281 238.820312 401.289062 270.90625 379.484375 283.488281 L 307.792969 324.871094 C 301.3125 328.609375 294.757812 330.511719 288.316406 330.511719 "/><path style=" stroke:none;fill-rule:nonzero;fill:#a25eb5;fill-opacity:1;" d="M 386.375 166.195312 C 381.699219 164.75 376.09375 165.550781 370.078125 169.019531 L 303.882812 207.230469 C 287.609375 216.625 274.292969 242.0625 274.292969 263.753906 L 274.292969 285.828125 C 274.292969 296.53125 277.542969 304.386719 282.78125 308.492188 C 288.160156 312.699219 295.636719 312.953125 303.882812 308.195312 L 370.078125 269.980469 C 386.359375 260.585938 399.664062 235.152344 399.664062 213.460938 L 399.664062 191.382812 C 399.664062 177.707031 394.367188 168.667969 386.375 166.195312 "/><path style=" stroke:none;fill-rule:nonzero;fill:#1e1c1b;fill-opacity:1;" d="M 381.730469 168.15625 C 378.535156 168.15625 375.03125 169.21875 371.40625 171.308594 L 305.207031 209.519531 C 289.617188 218.515625 276.941406 242.84375 276.941406 263.75 L 276.941406 285.828125 C 276.941406 295.324219 279.59375 302.628906 284.417969 306.40625 C 289.152344 310.105469 295.59375 309.933594 302.558594 305.902344 L 368.761719 267.6875 C 384.347656 258.695312 397.023438 234.363281 397.023438 213.457031 L 397.023438 191.382812 C 397.023438 179.40625 392.75 170.933594 385.597656 168.722656 C 384.371094 168.34375 383.074219 168.15625 381.730469 168.15625 Z M 292.210938 314.335938 C 288.136719 314.335938 284.363281 313.082031 281.152344 310.574219 C 275.027344 305.769531 271.652344 296.984375 271.652344 285.828125 L 271.652344 263.75 C 271.652344 241.160156 285.511719 214.777344 302.558594 204.9375 L 368.761719 166.726562 C 375.210938 163 381.570312 161.933594 387.160156 163.667969 C 396.648438 166.601562 402.3125 176.964844 402.3125 191.382812 L 402.3125 213.457031 C 402.3125 236.046875 388.449219 262.429688 371.40625 272.269531 L 305.207031 310.484375 C 300.761719 313.046875 296.335938 314.335938 292.210938 314.335938 "/><path style=" stroke:none;fill-rule:nonzero;fill:#ffffff;fill-opacity:1;" d="M 233.992188 257.179688 C 233.992188 236.378906 221.34375 212.21875 205.738281 203.214844 C 199.535156 199.628906 193.816406 199.027344 189.15625 200.855469 C 189.132812 200.863281 189.09375 200.84375 189.074219 200.855469 C 188.90625 200.921875 188.757812 201.019531 188.59375 201.089844 C 188.144531 201.289062 187.710938 201.5 187.285156 201.746094 C 172.328125 208.726562 161.753906 223.269531 161.753906 240.875 C 161.753906 265.15625 181.449219 284.847656 205.738281 284.847656 C 211.25 284.847656 216.523438 283.25 221.394531 281.25 C 228.984375 278.886719 233.992188 270.257812 233.992188 257.179688 "/><path style=" stroke:none;fill-rule:nonzero;fill:#1e1c1b;fill-opacity:1;" d="M 189.851562 203.402344 C 189.265625 203.691406 188.933594 203.84375 188.617188 204.027344 C 173.597656 211.054688 164.398438 225.121094 164.398438 240.867188 C 164.398438 263.65625 182.945312 282.199219 205.738281 282.199219 C 210.109375 282.199219 214.761719 281.117188 220.386719 278.800781 C 227.328125 276.628906 231.34375 268.570312 231.34375 257.175781 C 231.34375 237.246094 219.265625 214.066406 204.417969 205.5 C 199.160156 202.460938 194.207031 201.714844 190.121094 203.3125 C 190.03125 203.347656 189.941406 203.378906 189.851562 203.402344 Z M 205.738281 287.488281 C 180.027344 287.488281 159.109375 266.574219 159.109375 240.867188 C 159.109375 223.046875 169.480469 207.136719 186.171875 199.34375 C 186.457031 199.167969 186.980469 198.914062 187.503906 198.675781 C 187.550781 198.65625 188.085938 198.394531 188.140625 198.375 C 188.289062 198.316406 188.445312 198.277344 188.605469 198.25 C 194.316406 196.246094 200.601562 197.191406 207.0625 200.917969 C 223.371094 210.324219 236.636719 235.5625 236.636719 257.175781 C 236.636719 271.007812 231.234375 280.953125 222.179688 283.773438 C 216.117188 286.28125 210.816406 287.488281 205.738281 287.488281 "/><path style=" stroke:none;fill-rule:nonzero;fill:#ffffff;fill-opacity:1;" d="M 295.074219 256.394531 L 285.757812 261.773438 L 285.757812 249.359375 L 295.074219 243.984375 L 295.074219 256.394531 "/><path style=" stroke:none;fill-rule:nonzero;fill:#ffffff;fill-opacity:1;" d="M 304.386719 238.605469 L 295.074219 243.980469 L 295.074219 231.566406 L 304.386719 226.191406 L 304.386719 238.605469 "/><path style=" stroke:none;fill-rule:nonzero;fill:#ffffff;fill-opacity:1;" d="M 313.699219 233.226562 L 304.386719 238.605469 L 304.386719 226.191406 L 313.699219 220.8125 L 313.699219 233.226562 "/><path style=" stroke:none;fill-rule:nonzero;fill:#ffffff;fill-opacity:1;" d="M 323.011719 240.269531 L 313.695312 245.648438 L 313.695312 233.230469 L 323.011719 227.859375 L 323.011719 240.269531 "/><path style=" stroke:none;fill-rule:nonzero;fill:#ffffff;fill-opacity:1;" d="M 359.902344 218.976562 L 350.589844 224.351562 L 350.589844 211.9375 L 359.902344 206.558594 L 359.902344 218.976562 "/><path style=" stroke:none;fill-rule:nonzero;fill:#ffffff;fill-opacity:1;" d="M 369.21875 201.183594 L 359.902344 206.558594 L 359.902344 194.148438 L 369.21875 188.769531 L 369.21875 201.183594 "/><path style=" stroke:none;fill-rule:nonzero;fill:#ffffff;fill-opacity:1;" d="M 378.53125 195.808594 L 369.21875 201.183594 L 369.21875 188.765625 L 378.53125 183.394531 L 378.53125 195.808594 "/><path style=" stroke:none;fill-rule:nonzero;fill:#ffffff;fill-opacity:1;" d="M 387.839844 202.851562 L 378.527344 208.226562 L 378.527344 195.808594 L 387.839844 190.433594 L 387.839844 202.851562 "/><path style=" stroke:none;fill-rule:nonzero;fill:#ffffff;fill-opacity:1;" d="M 346.292969 245.53125 L 355.609375 240.160156 L 355.609375 252.570312 L 346.292969 257.949219 L 346.292969 245.53125 "/><path style=" stroke:none;fill-rule:nonzero;fill:#ffffff;fill-opacity:1;" d="M 336.980469 263.324219 L 346.292969 257.949219 L 346.292969 270.359375 L 336.980469 275.738281 L 336.980469 263.324219 "/><path style=" stroke:none;fill-rule:nonzero;fill:#ffffff;fill-opacity:1;" d="M 327.671875 268.703125 L 336.980469 263.324219 L 336.980469 275.738281 L 327.671875 281.117188 L 327.671875 268.703125 "/><path style=" stroke:none;fill-rule:nonzero;fill:#ffffff;fill-opacity:1;" d="M 318.359375 261.660156 L 327.671875 256.285156 L 327.671875 268.703125 L 318.359375 274.074219 L 318.359375 261.660156 "/><path style=" stroke:none;fill-rule:nonzero;fill:#ffffff;fill-opacity:1;" d="M 208.601562 444.417969 C 208.601562 462.160156 197.8125 470.320312 184.503906 462.632812 C 171.191406 454.953125 160.402344 434.339844 160.402344 416.59375 C 160.402344 398.847656 171.191406 390.691406 184.503906 398.378906 C 197.8125 406.058594 208.601562 426.675781 208.601562 444.417969 "/><path style=" stroke:none;fill-rule:nonzero;fill:#1e1c1b;fill-opacity:1;" d="M 174.929688 398.144531 C 173.148438 398.144531 171.511719 398.5625 170.054688 399.398438 C 165.605469 401.96875 163.050781 408.234375 163.050781 416.589844 C 163.050781 433.464844 173.265625 453.09375 185.828125 460.347656 C 190.769531 463.199219 195.425781 463.652344 198.953125 461.613281 C 203.40625 459.042969 205.960938 452.773438 205.960938 444.417969 C 205.960938 427.542969 195.742188 407.914062 183.179688 400.671875 C 180.273438 398.992188 177.464844 398.144531 174.929688 398.144531 Z M 194.089844 468.171875 C 190.628906 468.171875 186.925781 467.085938 183.179688 464.925781 C 169.160156 456.832031 157.757812 435.152344 157.757812 416.589844 C 157.757812 406.292969 161.28125 398.359375 167.410156 394.816406 C 172.640625 391.800781 179.175781 392.25 185.828125 396.085938 C 199.847656 404.175781 211.253906 425.859375 211.253906 444.417969 C 211.253906 454.714844 207.730469 462.652344 201.597656 466.195312 C 199.3125 467.515625 196.777344 468.171875 194.089844 468.171875 "/><path style=" stroke:none;fill-rule:nonzero;fill:#ffffff;fill-opacity:1;" d="M 278.988281 124.816406 C 298.15625 124.816406 313.695312 133.046875 313.695312 143.195312 C 313.695312 153.351562 298.15625 161.582031 278.988281 161.582031 C 259.820312 161.582031 244.277344 153.351562 244.277344 143.195312 C 244.277344 133.046875 259.820312 124.816406 278.988281 124.816406 "/><path style=" stroke:none;fill-rule:nonzero;fill:#1e1c1b;fill-opacity:1;" d="M 278.984375 127.464844 C 261.601562 127.464844 246.921875 134.667969 246.921875 143.203125 C 246.921875 151.734375 261.601562 158.941406 278.984375 158.941406 C 296.371094 158.941406 311.050781 151.734375 311.050781 143.203125 C 311.050781 134.667969 296.371094 127.464844 278.984375 127.464844 Z M 278.984375 164.230469 C 258.042969 164.230469 241.628906 154.992188 241.628906 143.203125 C 241.628906 131.414062 258.042969 122.175781 278.984375 122.175781 C 299.933594 122.175781 316.34375 131.414062 316.34375 143.203125 C 316.34375 154.992188 299.933594 164.230469 278.984375 164.230469 "/><path style=" stroke:none;fill-rule:nonzero;fill:#4e4f51;fill-opacity:1;" d="M 196.589844 536.96875 C 204.167969 535.4375 209.117188 527.988281 207.589844 520.414062 L 188.972656 428.191406 C 187.441406 420.613281 179.992188 415.667969 172.414062 417.195312 C 164.835938 418.722656 159.886719 426.167969 161.417969 433.746094 L 180.035156 525.972656 C 181.5625 533.546875 189.011719 538.496094 196.589844 536.96875 "/><path style=" stroke:none;fill-rule:nonzero;fill:#1e1c1b;fill-opacity:1;" d="M 175.195312 419.558594 C 174.445312 419.558594 173.6875 419.636719 172.9375 419.785156 C 169.96875 420.386719 167.398438 422.117188 165.699219 424.667969 C 164.011719 427.214844 163.40625 430.253906 164.003906 433.226562 L 182.625 525.449219 C 183.871094 531.613281 189.886719 535.632812 196.066406 534.371094 C 199.035156 533.773438 201.605469 532.042969 203.300781 529.492188 C 204.988281 526.945312 205.59375 523.910156 204.996094 520.9375 L 186.378906 428.710938 C 185.78125 425.738281 184.042969 423.171875 181.492188 421.480469 C 179.59375 420.214844 177.414062 419.558594 175.195312 419.558594 Z M 193.804688 539.890625 C 186.019531 539.890625 179.035156 534.410156 177.441406 526.496094 L 158.824219 434.269531 C 157.941406 429.914062 158.820312 425.464844 161.292969 421.742188 C 163.765625 418.015625 167.535156 415.476562 171.890625 414.601562 C 180.941406 412.796875 189.746094 418.644531 191.558594 427.667969 L 210.175781 519.890625 C 211.058594 524.246094 210.183594 528.695312 207.710938 532.421875 C 205.238281 536.144531 201.46875 538.679688 197.113281 539.5625 C 196.003906 539.785156 194.894531 539.890625 193.804688 539.890625 "/><path style=" stroke:none;fill-rule:nonzero;fill:#4e4f51;fill-opacity:1;" d="M 288.421875 469.214844 C 284.558594 462.519531 275.921875 460.203125 269.226562 464.070312 L 187.726562 511.109375 C 181.03125 514.976562 178.71875 523.617188 182.585938 530.308594 C 186.449219 537.003906 195.089844 539.316406 201.785156 535.449219 L 283.28125 488.410156 C 289.976562 484.546875 292.289062 475.90625 288.421875 469.214844 "/><path style=" stroke:none;fill-rule:nonzero;fill:#1e1c1b;fill-opacity:1;" d="M 276.234375 464.835938 C 274.304688 464.835938 272.339844 465.328125 270.546875 466.363281 L 189.050781 513.402344 C 186.425781 514.917969 184.539062 517.382812 183.753906 520.335938 C 182.960938 523.285156 183.359375 526.363281 184.875 528.984375 C 188.019531 534.425781 194.996094 536.296875 200.460938 533.160156 L 281.957031 486.121094 C 284.582031 484.601562 286.472656 482.140625 287.253906 479.1875 C 288.050781 476.230469 287.648438 473.160156 286.132812 470.539062 C 284.023438 466.878906 280.179688 464.835938 276.234375 464.835938 Z M 194.785156 539.976562 C 189.003906 539.976562 183.382812 536.980469 180.289062 531.628906 C 175.6875 523.660156 178.425781 513.425781 186.40625 508.820312 L 267.902344 461.777344 C 275.886719 457.175781 286.117188 459.921875 290.722656 467.890625 C 292.941406 471.738281 293.527344 476.238281 292.367188 480.558594 C 291.210938 484.875 288.457031 488.476562 284.601562 490.695312 L 203.109375 537.742188 C 200.484375 539.257812 197.617188 539.976562 194.785156 539.976562 "/><path style=" stroke:none;fill-rule:nonzero;fill:#ffffff;fill-opacity:1;" d="M 244.1875 429.96875 C 243.863281 417.183594 251.886719 419.160156 257.582031 425.6875 C 263.273438 432.210938 272.523438 446.253906 272.523438 446.253906 C 272.523438 446.253906 258.867188 407.882812 271.769531 402.007812 C 284.675781 396.132812 282.128906 415.136719 283.632812 421.867188 C 285.140625 428.597656 288.472656 437.726562 288.472656 437.726562 C 288.472656 437.726562 288.945312 399.363281 300.824219 400.816406 C 308.539062 401.761719 306.035156 413.773438 304.453125 422.582031 C 303.152344 429.839844 301.238281 434.996094 302.957031 440.382812 C 303.394531 441.761719 319.796875 416.425781 325.472656 423.894531 C 328.21875 427.5 329.972656 436.449219 320.71875 452.382812 C 316.824219 459.097656 316.277344 466.242188 316.074219 468.265625 C 314.988281 479.195312 300.882812 495.132812 288.574219 489.199219 C 266.847656 478.734375 244.511719 442.753906 244.1875 429.96875 "/><path style=" stroke:none;fill-rule:nonzero;fill:#1e1c1b;fill-opacity:1;" d="M 246.832031 429.90625 C 247.121094 441.441406 268.824219 476.75 289.722656 486.816406 C 293.945312 488.847656 298.109375 487.4375 300.855469 485.898438 C 307.167969 482.355469 312.8125 474.328125 313.445312 468 C 313.703125 465.332031 314.40625 457.996094 318.433594 451.058594 C 328.476562 433.761719 324.304688 426.730469 323.371094 425.492188 C 323.292969 425.488281 323.210938 425.480469 323.121094 425.480469 C 318.957031 425.480469 311.210938 434.964844 308.257812 438.582031 C 305.089844 442.46875 304.328125 443.363281 302.511719 443.035156 C 301.558594 442.847656 300.726562 442.101562 300.4375 441.179688 C 298.894531 436.332031 299.84375 431.816406 300.953125 426.589844 C 301.25 425.1875 301.566406 423.699219 301.847656 422.113281 L 302.050781 421.015625 C 303.089844 415.234375 304.523438 407.320312 302.414062 404.453125 C 302.117188 404.054688 301.636719 403.582031 300.5 403.441406 C 299.996094 403.390625 299.265625 403.398438 298.355469 404.203125 C 293.332031 408.585938 291.253906 427.113281 291.121094 437.757812 C 291.105469 439.035156 290.175781 440.117188 288.921875 440.332031 C 287.640625 440.550781 286.429688 439.832031 285.988281 438.632812 C 285.851562 438.253906 282.578125 429.261719 281.046875 422.445312 C 280.675781 420.753906 280.53125 418.527344 280.378906 416.175781 C 280.097656 411.824219 279.675781 405.253906 277.3125 403.839844 C 276.167969 403.164062 274.273438 403.777344 272.871094 404.414062 C 264.785156 408.09375 270.824219 433.597656 275.011719 445.367188 C 275.460938 446.628906 274.894531 448.023438 273.695312 448.621094 C 272.5 449.21875 271.042969 448.828125 270.308594 447.707031 C 270.214844 447.570312 261.09375 433.738281 255.589844 427.425781 C 252.777344 424.210938 249.753906 422.824219 248.5625 423.300781 C 247.695312 423.636719 246.722656 425.566406 246.832031 429.90625 Z M 294.175781 493.140625 C 291.84375 493.140625 289.585938 492.621094 287.421875 491.582031 C 265.167969 480.863281 241.90625 444.347656 241.542969 430.03125 C 241.339844 422.109375 244.199219 419.316406 246.640625 418.371094 C 250.386719 416.910156 255.320312 419.058594 259.570312 423.945312 C 261.390625 426.027344 263.53125 428.824219 265.628906 431.683594 C 262.933594 419.382812 261.585938 403.742188 270.679688 399.601562 C 274.386719 397.90625 277.535156 397.8125 280.035156 399.300781 C 284.773438 402.136719 285.246094 409.417969 285.65625 415.835938 C 285.796875 417.980469 285.925781 420 286.214844 421.289062 C 286.382812 422.046875 286.582031 422.835938 286.789062 423.640625 C 287.855469 414.800781 290.117188 404.378906 294.871094 400.21875 C 296.695312 398.617188 298.867188 397.910156 301.148438 398.195312 C 303.460938 398.476562 305.378906 399.558594 306.671875 401.316406 C 310.136719 406.011719 308.609375 414.484375 307.257812 421.957031 L 307.058594 423.046875 C 306.761719 424.691406 306.4375 426.230469 306.128906 427.683594 C 305.605469 430.15625 305.15625 432.277344 304.992188 434.226562 C 311.097656 426.816406 317.429688 419.871094 322.808594 419.871094 C 322.84375 419.871094 322.875 419.871094 322.910156 419.871094 C 324.785156 419.902344 326.398438 420.734375 327.582031 422.292969 C 329.910156 425.355469 334.136719 434.554688 323.011719 453.714844 C 319.566406 459.652344 318.945312 466.121094 318.738281 468.25 C 317.90625 476.628906 311.34375 486.082031 303.449219 490.511719 C 300.324219 492.257812 297.199219 493.140625 294.175781 493.140625 "/><path style=" stroke:none;fill-rule:nonzero;fill:#ffffff;fill-opacity:1;" d="M 335.253906 459.996094 L 334.03125 417.609375 L 370.015625 396.84375 L 368.800781 440.628906 L 363.6875 542.71875 L 340.359375 556.1875 Z M 330.386719 610.859375 C 330.386719 593.691406 339.625 575.402344 352.023438 568.25 C 364.417969 561.089844 373.65625 568.71875 373.65625 585.882812 C 373.65625 602.734375 364.417969 621.023438 352.023438 628.179688 C 339.625 635.335938 330.386719 627.710938 330.386719 610.859375 "/><path style=" stroke:none;fill-rule:nonzero;fill:#1e1c1b;fill-opacity:1;" d="M 337.898438 459.890625 L 342.773438 551.742188 L 361.117188 541.148438 L 366.15625 440.5 L 367.234375 401.5 L 336.71875 419.109375 Z M 340.359375 558.832031 C 339.925781 558.832031 339.488281 558.726562 339.097656 558.511719 C 338.28125 558.074219 337.769531 557.246094 337.71875 556.328125 L 332.613281 460.136719 C 332.609375 460.121094 332.609375 460.09375 332.609375 460.074219 L 331.386719 417.6875 C 331.359375 416.714844 331.867188 415.808594 332.710938 415.320312 L 368.691406 394.558594 C 369.519531 394.070312 370.542969 394.082031 371.371094 394.574219 C 372.1875 395.066406 372.683594 395.960938 372.660156 396.917969 L 371.445312 440.703125 L 366.332031 542.851562 C 366.285156 543.75 365.789062 544.5625 365.011719 545.011719 L 341.679688 558.476562 C 341.273438 558.714844 340.8125 558.832031 340.359375 558.832031 Z M 360.742188 568.214844 C 358.070312 568.214844 355.40625 569.347656 353.347656 570.539062 C 341.761719 577.222656 333.035156 594.558594 333.035156 610.859375 C 333.035156 618.949219 335.300781 624.894531 339.253906 627.179688 C 343.054688 629.363281 347.574219 627.683594 350.699219 625.886719 C 362.28125 619.207031 371.011719 602.011719 371.011719 585.882812 C 371.011719 577.613281 368.726562 571.550781 364.734375 569.25 C 363.460938 568.511719 362.097656 568.214844 360.742188 568.214844 Z M 343.261719 633.496094 C 340.867188 633.496094 338.621094 632.921875 336.609375 631.757812 C 330.890625 628.460938 327.742188 621.035156 327.742188 610.859375 C 327.742188 592.820312 337.609375 573.511719 350.699219 565.957031 C 356.796875 562.441406 362.722656 561.972656 367.382812 564.667969 C 373.132812 567.988281 376.304688 575.523438 376.304688 585.882812 C 376.304688 603.746094 366.4375 622.914062 353.347656 630.472656 C 349.859375 632.488281 346.425781 633.496094 343.261719 633.496094 "/><path style=" stroke:none;fill-rule:nonzero;fill:#c3b6ce;fill-opacity:1;" d="M 467.71875 202.539062 C 470.625 203.808594 475.136719 206.8125 478.671875 208.074219 C 492.402344 188.625 494.96875 150.953125 494.96875 150.953125 C 498.292969 149.53125 501.695312 147.824219 505.160156 145.824219 C 541.910156 124.613281 571.703125 78.402344 571.703125 42.617188 C 571.703125 33.058594 576.367188 22.789062 570.960938 18.214844 C 566.472656 14.417969 559.160156 11.421875 554.644531 9.140625 C 542.464844 2.984375 524.804688 4.886719 505.160156 16.222656 C 468.410156 37.4375 438.625 83.640625 438.625 119.433594 C 438.625 132.582031 442.648438 142.492188 449.550781 148.722656 C 454.34375 153.035156 467.71875 158.953125 467.71875 158.953125 L 467.71875 202.539062 "/><path style=" stroke:none;fill-rule:nonzero;fill:#1e1c1b;fill-opacity:1;" d="M 470.367188 200.882812 C 471.261719 201.34375 472.234375 201.878906 473.242188 202.445312 C 474.675781 203.238281 476.246094 204.113281 477.679688 204.792969 C 489.796875 185.714844 492.304688 151.132812 492.328125 150.773438 C 492.394531 149.78125 493.011719 148.90625 493.933594 148.519531 C 497.175781 147.136719 500.503906 145.453125 503.835938 143.53125 C 539.804688 122.777344 569.054688 77.503906 569.054688 42.613281 C 569.054688 39.238281 569.582031 35.910156 570.089844 32.691406 C 570.976562 27.132812 571.730469 22.328125 569.25 20.238281 C 566.019531 17.503906 560.925781 15.082031 556.839844 13.144531 C 555.613281 12.5625 554.464844 12.011719 553.453125 11.503906 C 541.660156 5.527344 524.539062 8.097656 506.480469 18.515625 C 470.519531 39.273438 441.269531 84.546875 441.269531 119.433594 C 441.269531 131.378906 444.75 140.824219 451.332031 146.753906 C 454.992188 150.0625 465.171875 154.933594 468.78125 156.535156 C 469.738281 156.960938 470.359375 157.910156 470.359375 158.953125 Z M 478.667969 210.722656 C 478.371094 210.722656 478.066406 210.671875 477.769531 210.566406 C 475.496094 209.753906 472.933594 208.324219 470.667969 207.070312 C 469.1875 206.242188 467.796875 205.460938 466.660156 204.960938 C 465.695312 204.546875 465.074219 203.59375 465.074219 202.542969 L 465.070312 160.660156 C 461.304688 158.914062 451.863281 154.363281 447.789062 150.683594 C 440.0625 143.726562 435.976562 132.921875 435.976562 119.433594 C 435.976562 82.863281 466.421875 35.539062 503.835938 13.9375 C 523.476562 2.617188 542.429688 -0.0078125 555.835938 6.777344 C 556.816406 7.273438 557.9375 7.800781 559.109375 8.367188 C 563.480469 10.4375 568.902344 13.019531 572.664062 16.195312 C 577.421875 20.214844 576.359375 26.972656 575.320312 33.515625 C 574.84375 36.535156 574.347656 39.65625 574.347656 42.613281 C 574.347656 79.1875 543.902344 126.515625 506.480469 148.113281 C 503.472656 149.855469 500.445312 151.40625 497.476562 152.738281 C 496.816406 160.292969 493.355469 191.859375 480.832031 209.601562 C 480.320312 210.320312 479.511719 210.722656 478.667969 210.722656 "/><path style=" stroke:none;fill-rule:nonzero;fill:#ffffff;fill-opacity:1;" d="M 478.667969 208.078125 C 498.542969 187.183594 505.917969 156.488281 505.917969 156.488281 C 509.238281 155.070312 512.644531 153.363281 516.105469 151.359375 C 552.855469 130.148438 582.644531 83.941406 582.644531 48.152344 C 582.644531 12.363281 552.855469 0.550781 516.105469 21.765625 C 479.359375 42.972656 449.570312 89.183594 449.570312 124.972656 C 449.570312 147.230469 461.101562 160.21875 478.664062 161.746094 L 478.667969 208.078125 "/><path style=" stroke:none;fill-rule:nonzero;fill:#1e1c1b;fill-opacity:1;" d="M 550.003906 13.855469 C 540.34375 13.855469 529.125 17.300781 517.433594 24.050781 C 481.472656 44.808594 452.21875 90.078125 452.21875 124.96875 C 452.21875 145.1875 461.941406 157.632812 478.890625 159.109375 C 480.257812 159.226562 481.308594 160.375 481.308594 161.742188 L 481.316406 201.011719 C 497.070312 181.328125 503.28125 156.140625 503.347656 155.867188 C 503.542969 155.054688 504.109375 154.386719 504.875 154.058594 C 508.125 152.667969 511.460938 150.988281 514.789062 149.070312 C 550.746094 128.316406 580 83.039062 580 48.152344 C 580 33.863281 574.910156 23.058594 565.675781 17.722656 C 561.183594 15.132812 555.882812 13.855469 550.003906 13.855469 Z M 478.667969 210.722656 C 478.339844 210.722656 478.011719 210.660156 477.691406 210.527344 C 476.6875 210.132812 476.023438 209.15625 476.023438 208.078125 L 476.011719 164.097656 C 457.746094 161.421875 446.929688 146.976562 446.929688 124.96875 C 446.929688 88.390625 477.371094 41.066406 514.789062 19.464844 C 535.273438 7.644531 554.785156 5.328125 568.320312 13.140625 C 579.261719 19.457031 585.292969 31.890625 585.292969 48.152344 C 585.292969 84.726562 554.855469 132.050781 517.433594 153.648438 C 514.320312 155.441406 511.210938 157.03125 508.160156 158.394531 C 506.503906 164.574219 498.636719 190.921875 480.582031 209.902344 C 480.078125 210.433594 479.378906 210.722656 478.667969 210.722656 "/><path style=" stroke:none;fill-rule:nonzero;fill:#a25eb5;fill-opacity:1;" d="M 538.523438 75.453125 C 538.523438 81.515625 542.210938 84.300781 546.757812 81.675781 C 551.304688 79.050781 554.992188 72.011719 554.992188 65.945312 C 554.992188 59.886719 551.304688 57.101562 546.757812 59.726562 C 542.210938 62.351562 538.523438 69.390625 538.523438 75.453125 "/><path style=" stroke:none;fill-rule:nonzero;fill:#1e1c1b;fill-opacity:1;" d="M 550.023438 61.386719 C 549.308594 61.386719 548.554688 61.746094 548.082031 62.015625 C 544.328125 64.175781 541.167969 70.332031 541.167969 75.453125 C 541.167969 78.027344 541.957031 79.390625 542.691406 79.820312 C 543.570312 80.324219 544.789062 79.761719 545.4375 79.382812 C 549.1875 77.222656 552.347656 71.074219 552.347656 65.945312 C 552.347656 63.375 551.558594 62.007812 550.824219 61.585938 C 550.578125 61.441406 550.304688 61.386719 550.023438 61.386719 Z M 543.488281 85.3125 C 542.261719 85.3125 541.109375 85.007812 540.046875 84.402344 C 537.398438 82.875 535.878906 79.609375 535.878906 75.453125 C 535.878906 68.441406 540.074219 60.527344 545.4375 57.4375 C 548.269531 55.792969 551.113281 55.644531 553.46875 57.003906 C 556.109375 58.53125 557.636719 61.792969 557.636719 65.945312 C 557.636719 72.960938 553.441406 80.871094 548.082031 83.96875 C 546.523438 84.863281 544.960938 85.3125 543.488281 85.3125 "/><path style=" stroke:none;fill-rule:nonzero;fill:#a25eb5;fill-opacity:1;" d="M 512.570312 90.492188 C 512.570312 96.558594 516.253906 99.34375 520.800781 96.71875 C 525.347656 94.09375 529.035156 87.054688 529.035156 80.988281 C 529.035156 74.929688 525.347656 72.144531 520.800781 74.765625 C 516.253906 77.394531 512.570312 84.433594 512.570312 90.492188 "/><path style=" stroke:none;fill-rule:nonzero;fill:#1e1c1b;fill-opacity:1;" d="M 524.070312 76.429688 C 523.351562 76.429688 522.589844 76.789062 522.128906 77.058594 C 518.375 79.21875 515.210938 85.375 515.210938 90.496094 C 515.210938 93.070312 516.003906 94.433594 516.734375 94.863281 C 517.617188 95.371094 518.828125 94.804688 519.480469 94.429688 C 523.230469 92.269531 526.390625 86.113281 526.390625 80.992188 C 526.390625 78.417969 525.601562 77.050781 524.871094 76.625 C 524.617188 76.484375 524.347656 76.429688 524.070312 76.429688 Z M 517.527344 100.359375 C 516.308594 100.359375 515.152344 100.050781 514.09375 99.441406 C 511.445312 97.917969 509.925781 94.652344 509.925781 90.496094 C 509.925781 83.488281 514.121094 75.570312 519.480469 72.480469 C 522.308594 70.832031 525.15625 70.6875 527.511719 72.042969 C 530.15625 73.570312 531.679688 76.835938 531.679688 80.992188 C 531.679688 88 527.488281 95.917969 522.128906 99.007812 C 520.566406 99.910156 519.011719 100.359375 517.527344 100.359375 "/><path style=" stroke:none;fill-rule:nonzero;fill:#a25eb5;fill-opacity:1;" d="M 485.902344 104.925781 C 485.902344 110.984375 489.582031 113.769531 494.132812 111.148438 C 498.679688 108.523438 502.359375 101.480469 502.359375 95.421875 C 502.359375 89.359375 498.679688 86.574219 494.132812 89.199219 C 489.582031 91.820312 485.902344 98.863281 485.902344 104.925781 "/><path style=" stroke:none;fill-rule:nonzero;fill:#1e1c1b;fill-opacity:1;" d="M 497.402344 90.855469 C 496.679688 90.855469 495.921875 91.21875 495.453125 91.488281 C 491.707031 93.648438 488.546875 99.800781 488.546875 104.921875 C 488.546875 107.488281 489.332031 108.863281 490.0625 109.28125 C 490.929688 109.792969 492.152344 109.226562 492.808594 108.847656 C 496.558594 106.6875 499.722656 100.535156 499.722656 95.414062 C 499.722656 92.847656 498.9375 91.472656 498.195312 91.050781 C 497.945312 90.90625 497.683594 90.855469 497.402344 90.855469 Z M 490.851562 114.78125 C 489.644531 114.78125 488.476562 114.480469 487.421875 113.867188 C 484.765625 112.339844 483.253906 109.074219 483.253906 104.921875 C 483.253906 97.910156 487.449219 90 492.808594 86.902344 C 495.648438 85.257812 498.496094 85.109375 500.847656 86.46875 C 503.492188 87.996094 505.011719 91.257812 505.011719 95.414062 C 505.011719 102.425781 500.816406 110.335938 495.453125 113.433594 C 493.902344 114.328125 492.335938 114.78125 490.851562 114.78125 "/></g></svg>