<svg xmlns="http://www.w3.org/2000/svg" xmlns:xlink="http://www.w3.org/1999/xlink" width="1080" zoomAndPan="magnify" viewBox="0 0 810 809.999993" height="1080" preserveAspectRatio="xMidYMid meet" version="1.2"><defs><clipPath id="ccbf990955"><path d="M 222 13.164062 L 590 13.164062 L 590 389 L 222 389 Z M 222 13.164062 "/></clipPath><clipPath id="fb36450bf4"><path d="M 258 635 L 551 635 L 551 796.914062 L 258 796.914062 Z M 258 635 "/></clipPath></defs><g id="75f1a73ce3"><path style=" stroke:none;fill-rule:evenodd;fill:#4b708a;fill-opacity:1;" d="M 194.132812 211.890625 L 45.429688 211.890625 C 39.507812 211.890625 34.242188 206.625 34.242188 200.699219 C 34.242188 194.777344 39.507812 189.511719 45.429688 189.511719 L 194.132812 189.511719 C 200.054688 189.511719 205.320312 194.777344 205.320312 200.699219 C 205.320312 206.625 200.710938 211.890625 194.132812 211.890625 Z M 194.132812 211.890625 "/><path style=" stroke:none;fill-rule:evenodd;fill:#4b708a;fill-opacity:1;" d="M 84.246094 250.714844 C 81.609375 250.714844 78.324219 249.394531 76.347656 247.425781 L 37.527344 208.601562 C 33.578125 204.652344 33.578125 197.410156 37.527344 192.804688 L 76.347656 153.980469 C 80.953125 149.375 87.535156 149.375 92.140625 153.980469 C 96.746094 158.585938 96.746094 165.167969 92.140625 169.773438 L 61.210938 200.707031 L 92.140625 231.636719 C 96.746094 236.242188 96.746094 242.824219 92.140625 247.429688 C 90.167969 249.40625 86.875 250.71875 84.246094 250.71875 Z M 84.246094 250.714844 "/><path style=" stroke:none;fill-rule:evenodd;fill:#4b708a;fill-opacity:1;" d="M 764.605469 211.890625 L 609.320312 211.890625 C 603.398438 211.890625 598.132812 206.625 598.132812 200.699219 C 598.132812 194.777344 603.398438 189.511719 609.320312 189.511719 L 764.605469 189.511719 C 770.527344 189.511719 775.792969 194.777344 775.792969 200.699219 C 775.792969 206.625 770.527344 211.890625 764.605469 211.890625 Z M 764.605469 211.890625 "/><path style=" stroke:none;fill-rule:evenodd;fill:#4b708a;fill-opacity:1;" d="M 725.78125 250.714844 C 723.148438 250.714844 719.859375 249.394531 717.882812 247.425781 C 713.277344 242.820312 713.277344 236.238281 717.882812 231.628906 L 748.8125 200.699219 L 717.882812 169.769531 C 713.277344 165.164062 713.277344 158.582031 717.882812 153.976562 C 722.488281 149.371094 729.070312 149.371094 733.675781 153.976562 L 772.496094 192.800781 C 777.105469 197.40625 777.105469 203.988281 772.496094 208.59375 L 733.675781 247.421875 C 731.042969 249.394531 728.414062 250.714844 725.78125 250.714844 Z M 725.78125 250.714844 "/><g clip-rule="nonzero" clip-path="url(#ccbf990955)"><path style=" stroke:none;fill-rule:evenodd;fill:#76c2f2;fill-opacity:1;" d="M 440.875 388.90625 L 368.496094 388.90625 C 363.230469 388.90625 357.96875 384.960938 357.308594 379.035156 L 350.726562 329.023438 C 339.539062 324.417969 329.671875 318.492188 319.800781 311.257812 L 273.085938 331 C 267.820312 332.972656 261.898438 331 259.269531 326.390625 L 224.394531 263.21875 C 221.761719 258.613281 223.078125 252.03125 227.03125 248.742188 L 267.167969 218.472656 C 266.507812 212.546875 265.851562 206.625 265.851562 200.707031 C 265.851562 194.78125 266.507812 188.859375 267.167969 182.941406 L 227.03125 152.667969 C 222.421875 149.378906 221.105469 143.457031 224.394531 138.191406 L 260.585938 75.675781 C 263.21875 71.070312 269.136719 69.09375 274.402344 71.070312 L 321.117188 90.8125 C 330.328125 83.570312 340.859375 77.652344 352.042969 73.046875 L 358.625 23.035156 C 359.285156 17.769531 363.890625 13.164062 369.8125 13.164062 L 442.191406 13.164062 C 447.457031 13.164062 452.71875 17.109375 453.378906 23.035156 L 459.960938 73.046875 C 471.148438 77.652344 481.015625 83.578125 490.886719 90.8125 L 537.601562 71.070312 C 542.867188 69.09375 548.789062 71.070312 551.417969 75.675781 L 587.609375 138.191406 C 590.242188 142.796875 588.925781 149.378906 584.976562 152.667969 L 544.835938 182.941406 C 545.496094 188.863281 546.152344 194.785156 546.152344 200.707031 C 546.152344 206.628906 545.496094 212.550781 544.835938 218.472656 L 584.976562 248.742188 C 589.582031 252.03125 590.898438 257.953125 587.609375 263.21875 L 551.417969 325.734375 C 548.785156 330.339844 542.867188 332.316406 537.601562 330.339844 L 490.886719 310.597656 C 481.675781 317.839844 471.148438 323.757812 459.960938 328.363281 L 453.378906 378.378906 C 451.402344 384.300781 446.796875 388.90625 440.875 388.90625 Z M 404.6875 286.25 C 357.972656 286.25 319.808594 248.082031 319.808594 201.359375 C 319.808594 154.640625 357.972656 116.46875 404.6875 116.46875 C 451.402344 116.46875 489.570312 154.632812 489.570312 201.359375 C 489.570312 248.078125 452.0625 286.25 404.6875 286.25 Z M 404.6875 137.53125 C 369.816406 137.53125 341.519531 165.828125 341.519531 200.707031 C 341.519531 235.582031 369.8125 263.878906 404.6875 263.878906 C 439.5625 263.878906 467.855469 235.582031 467.855469 200.707031 C 467.855469 165.828125 439.5625 137.53125 404.6875 137.53125 Z M 404.6875 137.53125 "/></g><path style=" stroke:none;fill-rule:evenodd;fill:#4b708a;fill-opacity:1;" d="M 146.757812 453.390625 C 106.621094 453.390625 74.378906 420.492188 74.378906 381.007812 C 74.378906 341.523438 107.277344 308.621094 146.757812 308.621094 C 186.894531 308.621094 219.136719 341.523438 219.136719 381.007812 C 219.136719 420.484375 186.894531 453.390625 146.757812 453.390625 Z M 146.757812 453.390625 "/><path style=" stroke:none;fill-rule:evenodd;fill:#4b708a;fill-opacity:1;" d="M 281.644531 620.539062 L 236.898438 620.539062 L 236.898438 553.417969 C 236.898438 547.496094 231.636719 542.230469 225.710938 542.230469 C 219.789062 542.230469 214.523438 547.496094 214.523438 553.417969 L 214.523438 620.539062 L 76.347656 620.539062 L 76.347656 553.414062 C 76.347656 547.492188 71.082031 542.226562 65.160156 542.226562 C 59.238281 542.226562 53.972656 547.492188 53.972656 553.414062 L 53.972656 620.539062 L 11.863281 620.539062 C 5.941406 620.539062 0.675781 615.273438 0.675781 609.351562 L 0.675781 601.453125 C 0.675781 548.808594 0.015625 460.628906 101.347656 458.652344 C 102.664062 458.652344 104.632812 458.652344 105.953125 459.3125 L 146.75 475.765625 L 187.546875 459.3125 C 188.863281 458.652344 190.179688 458.652344 192.152344 458.652344 C 293.480469 461.285156 293.480469 548.808594 292.820312 601.453125 L 292.820312 609.351562 C 292.820312 615.273438 287.554688 620.539062 281.632812 620.539062 Z M 281.644531 620.539062 "/><path style=" stroke:none;fill-rule:evenodd;fill:#4b708a;fill-opacity:1;" d="M 404.6875 629.757812 C 364.554688 629.757812 332.308594 596.855469 332.308594 557.371094 C 332.308594 517.886719 365.207031 484.984375 404.6875 484.984375 C 444.824219 484.984375 477.066406 517.886719 477.066406 557.371094 C 477.066406 596.855469 444.824219 629.757812 404.6875 629.757812 Z M 404.6875 629.757812 "/><g clip-rule="nonzero" clip-path="url(#fb36450bf4)"><path style=" stroke:none;fill-rule:evenodd;fill:#4b708a;fill-opacity:1;" d="M 539.574219 796.898438 L 495.488281 796.898438 L 495.488281 729.777344 C 495.488281 723.855469 490.222656 718.589844 484.300781 718.589844 C 478.378906 718.589844 473.113281 723.855469 473.113281 729.777344 L 473.113281 796.898438 L 334.933594 796.898438 L 334.933594 729.777344 C 334.933594 723.855469 329.671875 718.589844 323.746094 718.589844 C 317.824219 718.589844 312.558594 723.855469 312.558594 729.777344 L 312.558594 796.898438 L 269.792969 796.898438 C 263.871094 796.898438 258.605469 791.632812 258.605469 785.710938 L 258.605469 777.808594 C 258.605469 725.167969 257.945312 636.988281 359.273438 635.011719 C 360.59375 635.011719 362.5625 635.011719 363.882812 635.671875 L 404.671875 652.125 L 445.46875 635.671875 C 446.785156 635.011719 448.105469 635.011719 450.074219 635.011719 C 551.402344 637.644531 551.402344 725.167969 550.746094 777.808594 L 550.746094 785.710938 C 550.746094 792.292969 546.140625 796.898438 539.558594 796.898438 Z M 539.574219 796.898438 "/></g><path style=" stroke:none;fill-rule:evenodd;fill:#4b708a;fill-opacity:1;" d="M 798.160156 620.539062 L 754.074219 620.539062 L 754.074219 553.414062 C 754.074219 547.492188 748.8125 542.226562 742.886719 542.226562 C 736.964844 542.226562 731.703125 547.492188 731.703125 553.414062 L 731.703125 620.539062 L 592.863281 620.539062 L 592.863281 553.414062 C 592.863281 546.832031 588.257812 542.226562 582.335938 542.226562 C 576.414062 542.226562 571.148438 547.492188 571.148438 553.414062 L 571.148438 620.539062 L 528.378906 620.539062 C 522.457031 620.539062 517.195312 615.273438 517.195312 609.351562 L 517.195312 601.453125 C 517.195312 548.808594 516.535156 460.628906 617.863281 458.652344 C 619.179688 458.652344 621.152344 458.652344 622.46875 459.3125 L 663.265625 475.765625 L 704.0625 459.3125 C 705.378906 458.652344 706.695312 458.652344 708.667969 458.652344 C 809.996094 461.285156 809.996094 548.808594 809.339844 601.453125 L 809.339844 609.351562 C 809.339844 615.273438 804.074219 620.539062 798.152344 620.539062 Z M 798.160156 620.539062 "/><path style=" stroke:none;fill-rule:evenodd;fill:#4b708a;fill-opacity:1;" d="M 663.277344 453.390625 C 623.136719 453.390625 590.898438 420.492188 590.898438 381.007812 C 590.898438 341.523438 623.796875 308.621094 663.277344 308.621094 C 702.753906 308.621094 735.652344 341.523438 735.652344 381.007812 C 735.652344 420.484375 703.414062 453.390625 663.277344 453.390625 Z M 663.277344 453.390625 "/></g></svg>