<svg xmlns="http://www.w3.org/2000/svg" xmlns:xlink="http://www.w3.org/1999/xlink" width="1080" zoomAndPan="magnify" viewBox="0 0 810 809.999993" height="1080" preserveAspectRatio="xMidYMid meet" version="1.2"><defs><clipPath id="29a1a15aa2"><path d="M 737.109375 489.300781 L 810 489.300781 L 810 561.347656 L 737.109375 561.347656 Z M 737.109375 489.300781 "/></clipPath><clipPath id="71968e06e0"><path d="M 588.574219 700.40625 L 636.761719 700.40625 L 636.761719 777.644531 L 588.574219 777.644531 Z M 588.574219 700.40625 "/></clipPath><clipPath id="db1567c419"><path d="M 695.804688 700.40625 L 743.992188 700.40625 L 743.992188 777.644531 L 695.804688 777.644531 Z M 695.804688 700.40625 "/></clipPath><clipPath id="bbc3aa0018"><path d="M 14 32.398438 L 61 32.398438 L 61 79 L 14 79 Z M 14 32.398438 "/></clipPath><clipPath id="717d6e3850"><path d="M 121 32.398438 L 168 32.398438 L 168 79 L 121 79 Z M 121 32.398438 "/></clipPath><clipPath id="dd9c3dbcb0"><path d="M 228 32.398438 L 275 32.398438 L 275 79 L 228 79 Z M 228 32.398438 "/></clipPath><clipPath id="ecefa13fde"><path d="M 335 32.398438 L 383 32.398438 L 383 79 L 335 79 Z M 335 32.398438 "/></clipPath></defs><g id="23d186995e"><path style=" stroke:none;fill-rule:nonzero;fill:#dcf8ff;fill-opacity:1;" d="M 714.871094 237.742188 C 747.460938 290.316406 766.296875 352.316406 766.296875 418.730469 C 766.296875 604.390625 619.234375 755.667969 435.292969 762.394531 L 433.558594 418.730469 L 714.871094 237.742188 "/><path style=" stroke:none;fill-rule:nonzero;fill:#ffedc5;fill-opacity:1;" d="M 402.265625 403.996094 L 106.273438 596.46875 C 69.128906 541.542969 47.4375 475.304688 47.4375 403.996094 C 47.4375 214.054688 201.355469 60.074219 391.222656 60.074219 C 514.703125 60.074219 622.960938 125.214844 683.578125 223.007812 L 402.265625 403.996094 "/><path style=" stroke:none;fill-rule:nonzero;fill:#ffb0c5;fill-opacity:1;" d="M 404 747.660156 C 399.757812 747.816406 395.503906 747.925781 391.222656 747.925781 C 272.632812 747.925781 168.070312 687.851562 106.273438 596.46875 L 402.265625 403.996094 L 404 747.660156 "/><path style=" stroke:none;fill-rule:nonzero;fill:#aee8ff;fill-opacity:1;" d="M 595.453125 561.117188 L 522.664062 561.117188 L 522.664062 508.75 C 522.664062 498.070312 531.398438 489.328125 542.070312 489.328125 L 576.042969 489.328125 C 586.71875 489.328125 595.453125 498.070312 595.453125 508.75 L 595.453125 561.117188 "/><path style=" stroke:none;fill-rule:nonzero;fill:#aee8ff;fill-opacity:1;" d="M 583.015625 469.652344 C 583.015625 482.429688 572.664062 492.785156 559.890625 492.785156 C 547.121094 492.785156 536.765625 482.429688 536.765625 469.652344 C 536.765625 456.875 547.121094 446.519531 559.890625 446.519531 C 572.664062 446.519531 583.015625 456.875 583.015625 469.652344 "/><path style=" stroke:none;fill-rule:nonzero;fill:#aee8ff;fill-opacity:1;" d="M 583.015625 609.011719 L 535.054688 609.011719 L 535.054688 531.898438 L 583.015625 531.898438 L 583.015625 609.011719 "/><path style=" stroke:none;fill-rule:nonzero;fill:#aee8ff;fill-opacity:1;" d="M 702.730469 561.117188 L 629.941406 561.117188 L 629.941406 508.75 C 629.941406 498.070312 638.675781 489.328125 649.351562 489.328125 L 683.320312 489.328125 C 693.996094 489.328125 702.730469 498.070312 702.730469 508.75 L 702.730469 561.117188 "/><path style=" stroke:none;fill-rule:nonzero;fill:#aee8ff;fill-opacity:1;" d="M 690.292969 469.652344 C 690.292969 482.429688 679.941406 492.785156 667.167969 492.785156 C 654.398438 492.785156 644.042969 482.429688 644.042969 469.652344 C 644.042969 456.875 654.398438 446.519531 667.167969 446.519531 C 679.941406 446.519531 690.292969 456.875 690.292969 469.652344 "/><path style=" stroke:none;fill-rule:nonzero;fill:#aee8ff;fill-opacity:1;" d="M 690.292969 609.011719 L 642.335938 609.011719 L 642.335938 531.898438 L 690.292969 531.898438 L 690.292969 609.011719 "/><g clip-rule="nonzero" clip-path="url(#29a1a15aa2)"><path style=" stroke:none;fill-rule:nonzero;fill:#aee8ff;fill-opacity:1;" d="M 810.011719 561.117188 L 737.222656 561.117188 L 737.222656 508.75 C 737.222656 498.070312 745.957031 489.328125 756.632812 489.328125 L 790.601562 489.328125 C 801.277344 489.328125 810.011719 498.070312 810.011719 508.75 L 810.011719 561.117188 "/></g><path style=" stroke:none;fill-rule:nonzero;fill:#aee8ff;fill-opacity:1;" d="M 797.574219 469.652344 C 797.574219 482.429688 787.222656 492.785156 774.449219 492.785156 C 761.675781 492.785156 751.324219 482.429688 751.324219 469.652344 C 751.324219 456.875 761.675781 446.519531 774.449219 446.519531 C 787.222656 446.519531 797.574219 456.875 797.574219 469.652344 "/><path style=" stroke:none;fill-rule:nonzero;fill:#aee8ff;fill-opacity:1;" d="M 797.574219 609.011719 L 749.617188 609.011719 L 749.617188 531.898438 L 797.574219 531.898438 L 797.574219 609.011719 "/><path style=" stroke:none;fill-rule:nonzero;fill:#aee8ff;fill-opacity:1;" d="M 649.089844 729.742188 L 576.300781 729.742188 L 576.300781 677.378906 C 576.300781 666.695312 585.035156 657.957031 595.710938 657.957031 L 629.679688 657.957031 C 640.355469 657.957031 649.089844 666.695312 649.089844 677.378906 L 649.089844 729.742188 "/><path style=" stroke:none;fill-rule:nonzero;fill:#aee8ff;fill-opacity:1;" d="M 636.65625 638.28125 C 636.65625 651.058594 626.300781 661.417969 613.53125 661.417969 C 600.757812 661.417969 590.40625 651.058594 590.40625 638.28125 C 590.40625 625.503906 600.757812 615.148438 613.53125 615.148438 C 626.300781 615.148438 636.65625 625.503906 636.65625 638.28125 "/><g clip-rule="nonzero" clip-path="url(#71968e06e0)"><path style=" stroke:none;fill-rule:nonzero;fill:#aee8ff;fill-opacity:1;" d="M 636.65625 777.644531 L 588.699219 777.644531 L 588.699219 700.527344 L 636.65625 700.527344 L 636.65625 777.644531 "/></g><path style=" stroke:none;fill-rule:nonzero;fill:#aee8ff;fill-opacity:1;" d="M 756.371094 729.742188 L 683.578125 729.742188 L 683.578125 677.378906 C 683.578125 666.695312 692.316406 657.957031 702.992188 657.957031 L 736.957031 657.957031 C 747.636719 657.957031 756.371094 666.695312 756.371094 677.378906 L 756.371094 729.742188 "/><path style=" stroke:none;fill-rule:nonzero;fill:#aee8ff;fill-opacity:1;" d="M 743.9375 638.28125 C 743.9375 651.058594 733.582031 661.417969 720.8125 661.417969 C 708.039062 661.417969 697.683594 651.058594 697.683594 638.28125 C 697.683594 625.503906 708.039062 615.148438 720.8125 615.148438 C 733.582031 615.148438 743.9375 625.503906 743.9375 638.28125 "/><g clip-rule="nonzero" clip-path="url(#db1567c419)"><path style=" stroke:none;fill-rule:nonzero;fill:#aee8ff;fill-opacity:1;" d="M 743.9375 777.644531 L 695.976562 777.644531 L 695.976562 700.527344 L 743.9375 700.527344 L 743.9375 777.644531 "/></g><path style=" stroke:none;fill-rule:nonzero;fill:#e54a6e;fill-opacity:1;" d="M 240.40625 726.675781 L 167.617188 726.675781 L 167.617188 674.308594 C 167.617188 663.628906 176.351562 654.890625 187.027344 654.890625 L 220.996094 654.890625 C 231.671875 654.890625 240.40625 663.628906 240.40625 674.308594 L 240.40625 726.675781 "/><path style=" stroke:none;fill-rule:nonzero;fill:#e54a6e;fill-opacity:1;" d="M 227.972656 635.214844 C 227.972656 647.992188 217.617188 658.347656 204.84375 658.347656 C 192.074219 658.347656 181.722656 647.992188 181.722656 635.214844 C 181.722656 622.4375 192.074219 612.082031 204.84375 612.082031 C 217.617188 612.082031 227.972656 622.4375 227.972656 635.214844 "/><path style=" stroke:none;fill-rule:nonzero;fill:#e54a6e;fill-opacity:1;" d="M 227.972656 774.574219 L 180.011719 774.574219 L 180.011719 697.460938 L 227.972656 697.460938 L 227.972656 774.574219 "/><path style=" stroke:none;fill-rule:nonzero;fill:#e54a6e;fill-opacity:1;" d="M 347.6875 726.675781 L 274.898438 726.675781 L 274.898438 674.308594 C 274.898438 663.628906 283.632812 654.890625 294.304688 654.890625 L 328.277344 654.890625 C 338.953125 654.890625 347.6875 663.628906 347.6875 674.308594 L 347.6875 726.675781 "/><path style=" stroke:none;fill-rule:nonzero;fill:#e54a6e;fill-opacity:1;" d="M 335.25 635.214844 C 335.25 647.992188 324.898438 658.347656 312.125 658.347656 C 299.351562 658.347656 289 647.992188 289 635.214844 C 289 622.4375 299.351562 612.082031 312.125 612.082031 C 324.898438 612.082031 335.25 622.4375 335.25 635.214844 "/><path style=" stroke:none;fill-rule:nonzero;fill:#e54a6e;fill-opacity:1;" d="M 335.25 774.574219 L 287.292969 774.574219 L 287.292969 697.460938 L 335.25 697.460938 L 335.25 774.574219 "/><path style=" stroke:none;fill-rule:nonzero;fill:#ffd65a;fill-opacity:1;" d="M 72.789062 147.253906 L 0 147.253906 L 0 94.886719 C 0 84.207031 8.734375 75.46875 19.410156 75.46875 L 53.378906 75.46875 C 64.054688 75.46875 72.789062 84.207031 72.789062 94.886719 L 72.789062 147.253906 "/><g clip-rule="nonzero" clip-path="url(#bbc3aa0018)"><path style=" stroke:none;fill-rule:nonzero;fill:#ffd65a;fill-opacity:1;" d="M 60.355469 55.789062 C 60.355469 68.566406 50 78.925781 37.230469 78.925781 C 24.457031 78.925781 14.105469 68.566406 14.105469 55.789062 C 14.105469 43.011719 24.457031 32.65625 37.230469 32.65625 C 50 32.65625 60.355469 43.011719 60.355469 55.789062 "/></g><path style=" stroke:none;fill-rule:nonzero;fill:#ffd65a;fill-opacity:1;" d="M 60.355469 195.152344 L 12.394531 195.152344 L 12.394531 118.035156 L 60.355469 118.035156 L 60.355469 195.152344 "/><path style=" stroke:none;fill-rule:nonzero;fill:#ffd65a;fill-opacity:1;" d="M 180.070312 147.253906 L 107.277344 147.253906 L 107.277344 94.886719 C 107.277344 84.207031 116.015625 75.46875 126.691406 75.46875 L 160.660156 75.46875 C 171.335938 75.46875 180.070312 84.207031 180.070312 94.886719 L 180.070312 147.253906 "/><g clip-rule="nonzero" clip-path="url(#717d6e3850)"><path style=" stroke:none;fill-rule:nonzero;fill:#ffd65a;fill-opacity:1;" d="M 167.632812 55.789062 C 167.632812 68.566406 157.28125 78.925781 144.507812 78.925781 C 131.738281 78.925781 121.382812 68.566406 121.382812 55.789062 C 121.382812 43.011719 131.738281 32.65625 144.507812 32.65625 C 157.28125 32.65625 167.632812 43.011719 167.632812 55.789062 "/></g><path style=" stroke:none;fill-rule:nonzero;fill:#ffd65a;fill-opacity:1;" d="M 167.632812 195.152344 L 119.675781 195.152344 L 119.675781 118.035156 L 167.632812 118.035156 L 167.632812 195.152344 "/><path style=" stroke:none;fill-rule:nonzero;fill:#ffd65a;fill-opacity:1;" d="M 287.347656 147.253906 L 214.558594 147.253906 L 214.558594 94.886719 C 214.558594 84.207031 223.292969 75.46875 233.96875 75.46875 L 267.9375 75.46875 C 278.613281 75.46875 287.347656 84.207031 287.347656 94.886719 L 287.347656 147.253906 "/><g clip-rule="nonzero" clip-path="url(#dd9c3dbcb0)"><path style=" stroke:none;fill-rule:nonzero;fill:#ffd65a;fill-opacity:1;" d="M 274.914062 55.789062 C 274.914062 68.566406 264.558594 78.925781 251.789062 78.925781 C 239.015625 78.925781 228.664062 68.566406 228.664062 55.789062 C 228.664062 43.011719 239.015625 32.65625 251.789062 32.65625 C 264.558594 32.65625 274.914062 43.011719 274.914062 55.789062 "/></g><path style=" stroke:none;fill-rule:nonzero;fill:#ffd65a;fill-opacity:1;" d="M 274.914062 195.152344 L 226.953125 195.152344 L 226.953125 118.035156 L 274.914062 118.035156 L 274.914062 195.152344 "/><path style=" stroke:none;fill-rule:nonzero;fill:#ffd65a;fill-opacity:1;" d="M 394.628906 147.253906 L 321.839844 147.253906 L 321.839844 94.886719 C 321.839844 84.207031 330.574219 75.46875 341.25 75.46875 L 375.21875 75.46875 C 385.894531 75.46875 394.628906 84.207031 394.628906 94.886719 L 394.628906 147.253906 "/><g clip-rule="nonzero" clip-path="url(#ecefa13fde)"><path style=" stroke:none;fill-rule:nonzero;fill:#ffd65a;fill-opacity:1;" d="M 382.195312 55.789062 C 382.195312 68.566406 371.835938 78.925781 359.070312 78.925781 C 346.296875 78.925781 335.941406 68.566406 335.941406 55.789062 C 335.941406 43.011719 346.296875 32.65625 359.070312 32.65625 C 371.835938 32.65625 382.195312 43.011719 382.195312 55.789062 "/></g><path style=" stroke:none;fill-rule:nonzero;fill:#ffd65a;fill-opacity:1;" d="M 382.195312 195.152344 L 334.234375 195.152344 L 334.234375 118.035156 L 382.195312 118.035156 L 382.195312 195.152344 "/><path style=" stroke:none;fill-rule:nonzero;fill:#ffd65a;fill-opacity:1;" d="M 72.789062 318.507812 L 0 318.507812 L 0 266.136719 C 0 255.457031 8.734375 246.722656 19.410156 246.722656 L 53.378906 246.722656 C 64.054688 246.722656 72.789062 255.457031 72.789062 266.136719 L 72.789062 318.507812 "/><path style=" stroke:none;fill-rule:nonzero;fill:#ffd65a;fill-opacity:1;" d="M 60.355469 227.046875 C 60.355469 239.824219 50 250.179688 37.230469 250.179688 C 24.457031 250.179688 14.105469 239.824219 14.105469 227.046875 C 14.105469 214.265625 24.457031 203.910156 37.230469 203.910156 C 50 203.910156 60.355469 214.265625 60.355469 227.046875 "/><path style=" stroke:none;fill-rule:nonzero;fill:#ffd65a;fill-opacity:1;" d="M 60.355469 366.402344 L 12.394531 366.402344 L 12.394531 289.292969 L 60.355469 289.292969 L 60.355469 366.402344 "/><path style=" stroke:none;fill-rule:nonzero;fill:#ffd65a;fill-opacity:1;" d="M 180.070312 318.507812 L 107.277344 318.507812 L 107.277344 266.136719 C 107.277344 255.457031 116.015625 246.722656 126.691406 246.722656 L 160.660156 246.722656 C 171.335938 246.722656 180.070312 255.457031 180.070312 266.136719 L 180.070312 318.507812 "/><path style=" stroke:none;fill-rule:nonzero;fill:#ffd65a;fill-opacity:1;" d="M 167.632812 227.046875 C 167.632812 239.824219 157.28125 250.179688 144.507812 250.179688 C 131.738281 250.179688 121.382812 239.824219 121.382812 227.046875 C 121.382812 214.265625 131.738281 203.910156 144.507812 203.910156 C 157.28125 203.910156 167.632812 214.265625 167.632812 227.046875 "/><path style=" stroke:none;fill-rule:nonzero;fill:#ffd65a;fill-opacity:1;" d="M 167.632812 366.402344 L 119.675781 366.402344 L 119.675781 289.292969 L 167.632812 289.292969 L 167.632812 366.402344 "/><path style=" stroke:none;fill-rule:nonzero;fill:#ffd65a;fill-opacity:1;" d="M 287.347656 318.507812 L 214.558594 318.507812 L 214.558594 266.136719 C 214.558594 255.457031 223.292969 246.722656 233.96875 246.722656 L 267.9375 246.722656 C 278.613281 246.722656 287.347656 255.457031 287.347656 266.136719 L 287.347656 318.507812 "/><path style=" stroke:none;fill-rule:nonzero;fill:#ffd65a;fill-opacity:1;" d="M 274.914062 227.046875 C 274.914062 239.824219 264.558594 250.179688 251.789062 250.179688 C 239.015625 250.179688 228.664062 239.824219 228.664062 227.046875 C 228.664062 214.265625 239.015625 203.910156 251.789062 203.910156 C 264.558594 203.910156 274.914062 214.265625 274.914062 227.046875 "/><path style=" stroke:none;fill-rule:nonzero;fill:#ffd65a;fill-opacity:1;" d="M 274.914062 366.402344 L 226.953125 366.402344 L 226.953125 289.292969 L 274.914062 289.292969 L 274.914062 366.402344 "/><path style=" stroke:none;fill-rule:nonzero;fill:#ffd65a;fill-opacity:1;" d="M 394.628906 318.507812 L 321.839844 318.507812 L 321.839844 266.136719 C 321.839844 255.457031 330.574219 246.722656 341.25 246.722656 L 375.21875 246.722656 C 385.894531 246.722656 394.628906 255.457031 394.628906 266.136719 L 394.628906 318.507812 "/><path style=" stroke:none;fill-rule:nonzero;fill:#ffd65a;fill-opacity:1;" d="M 382.195312 227.046875 C 382.195312 239.824219 371.835938 250.179688 359.070312 250.179688 C 346.296875 250.179688 335.941406 239.824219 335.941406 227.046875 C 335.941406 214.265625 346.296875 203.910156 359.070312 203.910156 C 371.835938 203.910156 382.195312 214.265625 382.195312 227.046875 "/><path style=" stroke:none;fill-rule:nonzero;fill:#ffd65a;fill-opacity:1;" d="M 382.195312 366.402344 L 334.234375 366.402344 L 334.234375 289.292969 L 382.195312 289.292969 L 382.195312 366.402344 "/></g></svg>