<svg xmlns="http://www.w3.org/2000/svg" xmlns:xlink="http://www.w3.org/1999/xlink" width="1080" zoomAndPan="magnify" viewBox="0 0 810 809.999993" height="1080" preserveAspectRatio="xMidYMid meet" version="1.2"><defs><clipPath id="fe62e238d0"><path d="M 779 781 L 809.25 781 L 809.25 809 L 779 809 Z M 779 781 "/></clipPath></defs><g id="b27c5bbe8e"><rect x="0" width="810" y="0" height="809.999993" style="fill:#ffffff;fill-opacity:1;stroke:none;"/><rect x="0" width="810" y="0" height="809.999993" style="fill:#ffffff;fill-opacity:1;stroke:none;"/><path style=" stroke:none;fill-rule:nonzero;fill:#ffab00;fill-opacity:1;" d="M 416.742188 568.710938 C 421.203125 568.710938 425.660156 568.601562 430.117188 568.382812 C 434.570312 568.164062 439.019531 567.835938 443.457031 567.402344 C 447.898438 566.964844 452.324219 566.417969 456.734375 565.761719 C 461.148438 565.109375 465.539062 564.347656 469.914062 563.476562 C 474.289062 562.605469 478.640625 561.628906 482.96875 560.546875 C 487.296875 559.464844 491.59375 558.273438 495.859375 556.980469 C 500.128906 555.6875 504.363281 554.289062 508.5625 552.785156 C 512.761719 551.285156 516.921875 549.679688 521.042969 547.972656 C 525.164062 546.265625 529.242188 544.460938 533.273438 542.554688 C 537.308594 540.648438 541.289062 538.644531 545.222656 536.539062 C 549.15625 534.4375 553.039062 532.242188 556.863281 529.949219 C 560.6875 527.65625 564.457031 525.273438 568.164062 522.792969 C 571.875 520.316406 575.519531 517.75 579.101562 515.09375 C 582.683594 512.4375 586.199219 509.695312 589.648438 506.867188 C 593.097656 504.039062 596.472656 501.125 599.777344 498.132812 C 603.082031 495.136719 606.3125 492.0625 609.46875 488.910156 C 612.621094 485.757812 615.695312 482.527344 618.691406 479.226562 C 621.6875 475.921875 624.597656 472.546875 627.429688 469.097656 C 630.257812 465.652344 633.003906 462.136719 635.660156 458.554688 C 638.316406 454.976562 640.882812 451.332031 643.363281 447.621094 C 645.839844 443.914062 648.226562 440.148438 650.519531 436.324219 C 652.8125 432.5 655.011719 428.621094 657.113281 424.6875 C 659.214844 420.757812 661.21875 416.773438 663.128906 412.742188 C 665.035156 408.710938 666.84375 404.636719 668.550781 400.519531 C 670.253906 396.398438 671.859375 392.238281 673.363281 388.042969 C 674.867188 383.84375 676.265625 379.609375 677.558594 375.34375 C 678.855469 371.074219 680.042969 366.78125 681.128906 362.453125 C 682.210938 358.128906 683.1875 353.78125 684.058594 349.40625 C 684.929688 345.03125 685.691406 340.640625 686.347656 336.230469 C 687 331.820312 687.546875 327.394531 687.984375 322.957031 C 688.421875 318.519531 688.75 314.074219 688.96875 309.621094 C 689.1875 305.167969 689.296875 300.710938 689.296875 296.25 C 689.292969 291.039062 689.144531 285.828125 688.84375 280.621094 C 688.542969 275.414062 688.089844 270.222656 687.492188 265.042969 C 686.894531 259.863281 686.144531 254.703125 685.25 249.566406 C 684.355469 244.429688 683.3125 239.320312 682.125 234.242188 C 680.933594 229.167969 679.601562 224.128906 678.125 219.125 C 676.644531 214.125 675.023438 209.171875 673.261719 204.261719 C 671.5 199.355469 669.597656 194.5 667.554688 189.703125 C 665.511719 184.902344 663.335938 180.167969 661.023438 175.496094 C 658.710938 170.820312 656.261719 166.21875 653.683594 161.683594 C 651.105469 157.152344 648.402344 152.695312 645.566406 148.316406 C 642.734375 143.9375 639.777344 139.644531 636.695312 135.4375 C 633.617188 131.230469 630.417969 127.113281 627.101562 123.085938 C 623.78125 119.0625 620.351562 115.136719 616.8125 111.308594 C 613.269531 107.480469 609.617188 103.757812 605.863281 100.140625 C 602.105469 96.523438 598.25 93.015625 594.292969 89.617188 C 590.335938 86.21875 586.28125 82.9375 582.136719 79.773438 L 416.742188 296.25 Z M 416.742188 568.710938 "/><path style=" stroke:none;fill-rule:nonzero;fill:#376187;fill-opacity:1;" d="M 401.128906 544.921875 L 401.128906 272.460938 L 566.523438 55.984375 C 560.632812 51.488281 554.574219 47.234375 548.339844 43.230469 C 542.105469 39.226562 535.714844 35.484375 529.175781 32 C 522.636719 28.515625 515.964844 25.304688 509.164062 22.367188 C 502.359375 19.425781 495.449219 16.769531 488.433594 14.394531 C 481.414062 12.015625 474.308594 9.929688 467.121094 8.132812 C 459.929688 6.335938 452.679688 4.835938 445.367188 3.632812 C 438.058594 2.425781 430.707031 1.519531 423.324219 0.914062 C 415.9375 0.308594 408.539062 0.00390625 401.128906 0 C 396.667969 0 392.210938 0.109375 387.753906 0.328125 C 383.300781 0.546875 378.851562 0.875 374.414062 1.3125 C 369.976562 1.75 365.550781 2.292969 361.136719 2.949219 C 356.726562 3.601562 352.332031 4.367188 347.957031 5.234375 C 343.582031 6.105469 339.230469 7.082031 334.90625 8.164062 C 330.578125 9.25 326.28125 10.4375 322.011719 11.730469 C 317.742188 13.027344 313.507812 14.425781 309.308594 15.925781 C 305.109375 17.429688 300.949219 19.035156 296.828125 20.738281 C 292.707031 22.445312 288.628906 24.253906 284.597656 26.160156 C 280.566406 28.066406 276.582031 30.070312 272.648438 32.171875 C 268.714844 34.273438 264.835938 36.472656 261.007812 38.761719 C 257.183594 41.054688 253.417969 43.441406 249.707031 45.917969 C 246 48.394531 242.351562 50.960938 238.769531 53.617188 C 235.1875 56.273438 231.671875 59.015625 228.222656 61.847656 C 224.777344 64.675781 221.398438 67.585938 218.09375 70.582031 C 214.789062 73.574219 211.558594 76.648438 208.40625 79.800781 C 205.25 82.957031 202.175781 86.183594 199.183594 89.488281 C 196.1875 92.792969 193.273438 96.167969 190.445312 99.613281 C 187.613281 103.0625 184.871094 106.574219 182.214844 110.15625 C 179.554688 113.738281 176.988281 117.382812 174.511719 121.089844 C 172.03125 124.796875 169.648438 128.5625 167.355469 132.386719 C 165.0625 136.214844 162.863281 140.089844 160.761719 144.023438 C 158.65625 147.957031 156.652344 151.9375 154.746094 155.96875 C 152.839844 160 151.03125 164.074219 149.324219 168.195312 C 147.617188 172.316406 146.011719 176.472656 144.507812 180.671875 C 143.007812 184.871094 141.609375 189.101562 140.3125 193.371094 C 139.019531 197.636719 137.828125 201.933594 136.746094 206.257812 C 135.660156 210.585938 134.683594 214.933594 133.816406 219.308594 C 132.945312 223.679688 132.183594 228.074219 131.527344 232.484375 C 130.871094 236.894531 130.328125 241.316406 129.890625 245.753906 C 129.453125 250.191406 129.125 254.640625 128.90625 259.09375 C 128.6875 263.546875 128.578125 268.003906 128.578125 272.460938 C 128.578125 276.921875 128.6875 281.378906 128.90625 285.832031 C 129.125 290.285156 129.453125 294.730469 129.890625 299.167969 C 130.328125 303.605469 130.875 308.027344 131.527344 312.441406 C 132.183594 316.851562 132.945312 321.242188 133.816406 325.617188 C 134.683594 329.988281 135.660156 334.339844 136.746094 338.664062 C 137.828125 342.988281 139.019531 347.285156 140.3125 351.554688 C 141.609375 355.820312 143.007812 360.050781 144.511719 364.25 C 146.011719 368.449219 147.617188 372.609375 149.324219 376.726562 C 151.03125 380.847656 152.839844 384.921875 154.746094 388.953125 C 156.652344 392.984375 158.65625 396.964844 160.761719 400.898438 C 162.863281 404.832031 165.0625 408.710938 167.355469 412.535156 C 169.648438 416.359375 172.03125 420.125 174.511719 423.832031 C 176.988281 427.539062 179.558594 431.183594 182.214844 434.765625 C 184.871094 438.347656 187.613281 441.863281 190.445312 445.308594 C 193.273438 448.757812 196.1875 452.132812 199.183594 455.433594 C 202.175781 458.738281 205.253906 461.96875 208.40625 465.121094 C 211.558594 468.273438 214.789062 471.347656 218.09375 474.34375 C 221.398438 477.335938 224.777344 480.246094 228.222656 483.078125 C 231.671875 485.90625 235.1875 488.648438 238.769531 491.304688 C 242.351562 493.960938 246 496.527344 249.707031 499.003906 C 253.417969 501.480469 257.183594 503.867188 261.011719 506.160156 C 264.835938 508.453125 268.714844 510.648438 272.648438 512.75 C 276.582031 514.851562 280.566406 516.855469 284.597656 518.761719 C 288.628906 520.667969 292.707031 522.476562 296.828125 524.183594 C 300.949219 525.890625 305.109375 527.492188 309.308594 528.996094 C 313.507812 530.496094 317.742188 531.894531 322.011719 533.191406 C 326.28125 534.484375 330.578125 535.671875 334.90625 536.757812 C 339.230469 537.839844 343.582031 538.816406 347.957031 539.6875 C 352.332031 540.558594 356.726562 541.320312 361.136719 541.972656 C 365.550781 542.628906 369.976562 543.171875 374.414062 543.609375 C 378.851562 544.046875 383.300781 544.375 387.753906 544.59375 C 392.210938 544.8125 396.667969 544.921875 401.128906 544.921875 Z M 401.128906 544.921875 "/><path style=" stroke:none;fill-rule:nonzero;fill:#f9f9f9;fill-opacity:1;" d="M 308.449219 449.253906 L 518.496094 449.253906 L 518.496094 580.882812 L 308.449219 580.882812 Z M 308.449219 449.253906 "/><path style=" stroke:none;fill-rule:nonzero;fill:#3f88c5;fill-opacity:1;" d="M 308.453125 449.253906 L 308.453125 462.652344 L 518.496094 462.652344 L 518.496094 449.253906 Z M 308.453125 449.253906 "/><path style=" stroke:none;fill-rule:nonzero;fill:#1c3144;fill-opacity:1;" d="M 307.953125 448.753906 L 307.953125 581.378906 L 518.996094 581.378906 L 518.996094 448.753906 Z M 308.949219 449.753906 L 517.996094 449.753906 L 517.996094 580.382812 L 308.949219 580.382812 Z M 308.949219 449.753906 "/><path style=" stroke:none;fill-rule:nonzero;fill:#f9f9f9;fill-opacity:1;" d="M 504.984375 455.535156 C 504.984375 455.875 504.917969 456.207031 504.789062 456.519531 C 504.65625 456.835938 504.472656 457.117188 504.230469 457.359375 C 503.988281 457.601562 503.707031 457.785156 503.390625 457.917969 C 503.074219 458.046875 502.746094 458.113281 502.40625 458.113281 C 502.0625 458.113281 501.734375 458.046875 501.417969 457.917969 C 501.101562 457.785156 500.820312 457.601562 500.578125 457.359375 C 500.335938 457.117188 500.152344 456.835938 500.019531 456.519531 C 499.890625 456.207031 499.824219 455.875 499.824219 455.535156 C 499.824219 455.191406 499.890625 454.863281 500.019531 454.546875 C 500.152344 454.230469 500.335938 453.953125 500.578125 453.710938 C 500.820312 453.46875 501.101562 453.28125 501.417969 453.152344 C 501.734375 453.019531 502.0625 452.953125 502.40625 452.953125 C 502.746094 452.953125 503.074219 453.019531 503.390625 453.152344 C 503.707031 453.28125 503.988281 453.46875 504.230469 453.710938 C 504.472656 453.953125 504.65625 454.230469 504.789062 454.546875 C 504.917969 454.863281 504.984375 455.191406 504.984375 455.535156 Z M 504.984375 455.535156 "/><path style=" stroke:none;fill-rule:nonzero;fill:#f9f9f9;fill-opacity:1;" d="M 514.667969 455.535156 C 514.667969 455.875 514.601562 456.207031 514.472656 456.519531 C 514.339844 456.835938 514.152344 457.117188 513.910156 457.359375 C 513.667969 457.601562 513.390625 457.785156 513.074219 457.917969 C 512.757812 458.046875 512.429688 458.113281 512.085938 458.113281 C 511.746094 458.113281 511.414062 458.046875 511.097656 457.917969 C 510.785156 457.785156 510.503906 457.601562 510.261719 457.359375 C 510.019531 457.117188 509.832031 456.835938 509.703125 456.519531 C 509.570312 456.207031 509.507812 455.875 509.507812 455.535156 C 509.507812 455.191406 509.570312 454.863281 509.703125 454.546875 C 509.832031 454.230469 510.019531 453.953125 510.261719 453.710938 C 510.503906 453.46875 510.785156 453.28125 511.097656 453.152344 C 511.414062 453.019531 511.746094 452.953125 512.085938 452.953125 C 512.429688 452.953125 512.757812 453.019531 513.074219 453.152344 C 513.390625 453.28125 513.667969 453.46875 513.910156 453.710938 C 514.152344 453.953125 514.339844 454.230469 514.472656 454.546875 C 514.601562 454.863281 514.667969 455.191406 514.667969 455.535156 Z M 514.667969 455.535156 "/><path style=" stroke:none;fill-rule:nonzero;fill:#f9f9f9;fill-opacity:1;" d="M 495.300781 455.535156 C 495.300781 455.875 495.238281 456.207031 495.105469 456.519531 C 494.976562 456.835938 494.789062 457.117188 494.546875 457.359375 C 494.304688 457.601562 494.027344 457.785156 493.710938 457.917969 C 493.394531 458.046875 493.0625 458.113281 492.722656 458.113281 C 492.378906 458.113281 492.050781 458.046875 491.734375 457.917969 C 491.417969 457.785156 491.140625 457.601562 490.898438 457.359375 C 490.65625 457.117188 490.46875 456.835938 490.339844 456.519531 C 490.207031 456.207031 490.140625 455.875 490.140625 455.535156 C 490.140625 455.191406 490.207031 454.863281 490.339844 454.546875 C 490.46875 454.230469 490.65625 453.953125 490.898438 453.710938 C 491.140625 453.46875 491.417969 453.28125 491.734375 453.152344 C 492.050781 453.019531 492.378906 452.953125 492.722656 452.953125 C 493.0625 452.953125 493.394531 453.019531 493.710938 453.152344 C 494.027344 453.28125 494.304688 453.46875 494.546875 453.710938 C 494.789062 453.953125 494.976562 454.230469 495.105469 454.546875 C 495.238281 454.863281 495.300781 455.191406 495.300781 455.535156 Z M 495.300781 455.535156 "/><path style=" stroke:none;fill-rule:nonzero;fill:#3f88c5;fill-opacity:1;" d="M 401.128906 0 C 394.859375 0.015625 388.597656 0.242188 382.34375 0.691406 C 376.089844 1.136719 369.859375 1.796875 363.648438 2.671875 C 357.441406 3.546875 351.269531 4.636719 345.136719 5.9375 C 339.003906 7.238281 332.921875 8.75 326.894531 10.472656 C 320.863281 12.191406 314.902344 14.121094 309.007812 16.25 C 303.109375 18.382812 297.296875 20.71875 291.558594 23.25 C 285.824219 25.785156 280.183594 28.511719 274.636719 31.433594 C 269.09375 34.359375 263.652344 37.46875 258.320312 40.765625 C 252.988281 44.0625 247.777344 47.542969 242.6875 51.199219 C 237.59375 54.855469 232.632812 58.683594 227.808594 62.683594 C 222.980469 66.683594 218.296875 70.847656 213.757812 75.167969 C 209.214844 79.492188 204.832031 83.964844 200.597656 88.589844 C 196.367188 93.214844 192.300781 97.980469 188.398438 102.886719 C 184.496094 107.792969 180.769531 112.828125 177.214844 117.992188 C 173.660156 123.15625 170.285156 128.433594 167.097656 133.832031 C 163.90625 139.226562 160.90625 144.726562 158.09375 150.328125 L 401.128906 272.460938 L 566.523438 55.984375 C 560.632812 51.488281 554.574219 47.234375 548.339844 43.230469 C 542.105469 39.226562 535.714844 35.484375 529.175781 32 C 522.636719 28.515625 515.964844 25.304688 509.164062 22.367188 C 502.359375 19.425781 495.449219 16.769531 488.433594 14.394531 C 481.414062 12.015625 474.308594 9.929688 467.121094 8.132812 C 459.929688 6.335938 452.679688 4.835938 445.367188 3.632812 C 438.058594 2.425781 430.707031 1.519531 423.324219 0.914062 C 415.9375 0.308594 408.539062 0.00390625 401.128906 0 Z M 401.128906 0 "/><path style=" stroke:none;fill-rule:nonzero;fill:#1c3144;fill-opacity:1;" d="M 147.523438 791.304688 L 167.234375 808.964844 L 131.746094 807.101562 L 132.589844 791.027344 Z M 147.523438 791.304688 "/><path style=" stroke:none;fill-rule:nonzero;fill:#1c3144;fill-opacity:1;" d="M 73.816406 792.34375 L 93.527344 810 L 58.039062 808.136719 L 58.882812 792.066406 Z M 73.816406 792.34375 "/><path style=" stroke:none;fill-rule:nonzero;fill:#ffab00;fill-opacity:1;" d="M 43.730469 532.789062 L 110.59375 534.835938 L 93.460938 669.679688 C 93.375 670.558594 93.316406 671.214844 93.199219 672.421875 L 81.761719 790.9375 C 81.761719 790.9375 82.808594 796.867188 69.03125 795.792969 C 55.253906 794.714844 56.449219 790.3125 56.449219 790.3125 L 52.316406 670.820312 C 52.242188 670.039062 52.21875 669.257812 52.234375 668.476562 C 52.261719 668.125 52.292969 667.773438 52.335938 667.421875 Z M 43.730469 532.789062 "/><path style=" stroke:none;fill-rule:nonzero;fill:#ffab00;fill-opacity:1;" d="M 154.070312 526.496094 L 164.121094 661.136719 C 164.34375 663.058594 164.375 664.5625 164.402344 665.984375 L 155.808594 790.480469 C 155.808594 790.480469 156.835938 794.921875 143.03125 795.492188 C 129.222656 796.0625 130.484375 790.171875 130.484375 790.171875 L 123.578125 668.945312 L 88.128906 537.734375 Z M 154.070312 526.496094 "/><path style=" stroke:none;fill-rule:nonzero;fill:#f5987c;fill-opacity:1;" d="M 262.734375 294.988281 C 262.734375 294.988281 272.457031 305.472656 273.21875 306.171875 C 273.828125 306.730469 279.148438 298.027344 281.246094 294.359375 C 285.523438 295.515625 294.371094 284.355469 294.632812 281.515625 C 295.066406 278.191406 293.707031 277.648438 292.6875 277.667969 C 292.6875 277.667969 293.480469 275.625 292.445312 274.691406 C 291.414062 273.757812 290.476562 274.03125 290.476562 274.03125 C 290.476562 274.03125 291.492188 272.011719 290.390625 270.640625 C 288.914062 268.808594 287.46875 269.5625 287.46875 269.5625 C 287.46875 269.5625 288.523438 269.058594 287.652344 268.128906 C 286.785156 267.195312 285.632812 267.195312 285.09375 267.433594 C 284.191406 267.832031 282.253906 268.378906 282.273438 268.378906 C 282.273438 268.378906 276.648438 270.132812 274.9375 272.796875 C 273.222656 275.460938 271.421875 283.507812 271.449219 284.953125 C 271.441406 285.15625 271.542969 285.484375 271.707031 285.886719 Z M 262.734375 294.988281 "/><path style=" stroke:none;fill-rule:nonzero;fill:#1c3144;fill-opacity:1;" d="M 292.515625 277.28125 C 292.339844 277.265625 292.183594 277.316406 292.046875 277.429688 C 292.046875 277.429688 291.109375 278.226562 290.148438 279.125 C 289.671875 279.574219 289.1875 280.046875 288.800781 280.472656 C 288.609375 280.6875 288.441406 280.890625 288.304688 281.085938 C 288.171875 281.28125 288.046875 281.445312 288.003906 281.761719 C 287.9375 282.300781 288.199219 282.773438 288.574219 283.113281 C 288.949219 283.453125 289.46875 283.6875 290.074219 283.746094 C 291.285156 283.863281 292.792969 283.253906 294.175781 281.457031 C 294.285156 281.316406 294.324219 281.160156 294.304688 280.984375 C 294.28125 280.808594 294.199219 280.667969 294.058594 280.5625 C 293.921875 280.453125 293.761719 280.414062 293.589844 280.433594 C 293.414062 280.457031 293.273438 280.539062 293.164062 280.679688 C 291.964844 282.238281 290.890625 282.542969 290.199219 282.476562 C 289.851562 282.441406 289.585938 282.304688 289.433594 282.167969 C 289.28125 282.03125 289.273438 281.914062 289.273438 281.921875 C 289.257812 282.046875 289.269531 281.941406 289.355469 281.816406 C 289.441406 281.691406 289.582031 281.515625 289.75 281.324219 C 290.09375 280.945312 290.558594 280.488281 291.019531 280.054688 C 291.949219 279.183594 292.871094 278.40625 292.871094 278.40625 C 293.003906 278.292969 293.078125 278.148438 293.09375 277.972656 C 293.109375 277.796875 293.0625 277.644531 292.949219 277.507812 C 292.835938 277.371094 292.691406 277.296875 292.515625 277.28125 Z M 292.515625 277.28125 "/><path style=" stroke:none;fill-rule:nonzero;fill:#1c3144;fill-opacity:1;" d="M 289.867188 273.859375 C 289.867188 273.859375 288.730469 274.953125 287.527344 276.117188 C 286.328125 277.285156 285.117188 278.460938 284.785156 278.824219 C 284.539062 279.09375 284.535156 279.371094 284.546875 279.597656 C 284.554688 279.824219 284.609375 280.042969 284.691406 280.269531 C 284.855469 280.726562 285.140625 281.207031 285.5625 281.617188 C 285.984375 282.027344 286.570312 282.367188 287.269531 282.40625 C 287.96875 282.449219 288.738281 282.1875 289.492188 281.574219 C 289.628906 281.464844 289.707031 281.320312 289.726562 281.144531 C 289.746094 280.96875 289.699219 280.8125 289.585938 280.675781 C 289.476562 280.539062 289.332031 280.460938 289.15625 280.441406 C 288.980469 280.425781 288.824219 280.472656 288.6875 280.582031 C 288.113281 281.046875 287.683594 281.15625 287.34375 281.136719 C 287.007812 281.113281 286.714844 280.953125 286.453125 280.703125 C 286.195312 280.449219 285.988281 280.105469 285.894531 279.835938 C 285.851562 279.722656 285.839844 279.644531 285.835938 279.585938 C 286.085938 279.320312 287.265625 278.15625 288.417969 277.035156 C 289.617188 275.871094 290.753906 274.773438 290.753906 274.773438 C 290.882812 274.652344 290.945312 274.503906 290.949219 274.328125 C 290.953125 274.152344 290.894531 274 290.773438 273.875 C 290.648438 273.746094 290.5 273.683594 290.324219 273.679688 C 290.148438 273.675781 289.996094 273.734375 289.867188 273.859375 Z M 289.867188 273.859375 "/><path style=" stroke:none;fill-rule:nonzero;fill:#f5987c;fill-opacity:1;" d="M 287.378906 270.222656 C 287.386719 269.773438 293.734375 260.820312 295.085938 258.457031 C 295.28125 258.113281 295.585938 257.441406 294.699219 256.507812 C 294.070312 255.847656 293.199219 255.59375 292.503906 256.003906 C 291.371094 256.667969 279.746094 269.351562 279.746094 269.351562 Z M 287.378906 270.222656 "/><path style=" stroke:none;fill-rule:nonzero;fill:#1c3144;fill-opacity:1;" d="M 287.6875 269.457031 C 287.511719 269.464844 287.363281 269.53125 287.242188 269.660156 C 287.242188 269.660156 285.835938 271.167969 284.371094 272.800781 C 283.636719 273.621094 282.894531 274.464844 282.300781 275.175781 C 282.003906 275.53125 281.742188 275.851562 281.539062 276.125 C 281.335938 276.398438 281.191406 276.582031 281.085938 276.835938 C 280.136719 279.089844 283.308594 281.585938 285.761719 279.679688 C 285.902344 279.570312 285.984375 279.425781 286.003906 279.253906 C 286.027344 279.078125 285.984375 278.917969 285.875 278.78125 C 285.765625 278.640625 285.625 278.5625 285.449219 278.542969 C 285.273438 278.519531 285.117188 278.5625 284.980469 278.671875 C 283.320312 279.960938 281.878906 278.246094 282.261719 277.335938 C 282.261719 277.335938 282.261719 277.335938 282.261719 277.332031 C 282.257812 277.34375 282.382812 277.136719 282.5625 276.894531 C 282.746094 276.648438 282.992188 276.339844 283.277344 275.996094 C 283.855469 275.304688 284.59375 274.464844 285.320312 273.652344 C 286.773438 272.035156 288.175781 270.53125 288.175781 270.53125 C 288.296875 270.402344 288.355469 270.25 288.351562 270.074219 C 288.34375 269.898438 288.277344 269.75 288.148438 269.628906 C 288.019531 269.507812 287.863281 269.449219 287.6875 269.457031 Z M 287.6875 269.457031 "/><path style=" stroke:none;fill-rule:nonzero;fill:#f5987c;fill-opacity:1;" d="M 279.859375 275.460938 L 280.070312 276.695312 L 280.128906 281.984375 C 280.128906 281.984375 275.433594 282.0625 275.375 281.539062 C 275.320312 281.019531 275.800781 272.941406 275.800781 272.941406 L 279.425781 272.386719 Z M 279.859375 275.460938 "/><path style=" stroke:none;fill-rule:nonzero;fill:#f5987c;fill-opacity:1;" d="M 278.511719 270.464844 C 279.578125 270.160156 280.9375 269.933594 281.910156 270.316406 C 283.757812 271.050781 287.933594 275.105469 286.058594 276.128906 C 283.324219 277.621094 281.003906 276.09375 280.347656 275.71875 C 279.890625 277.527344 284.066406 279.671875 282.765625 286.160156 "/><path style=" stroke:none;fill-rule:nonzero;fill:#1c3144;fill-opacity:1;" d="M 282.144531 269.726562 C 280.902344 269.234375 279.460938 269.53125 278.339844 269.851562 C 278.167969 269.898438 278.042969 270 277.957031 270.15625 C 277.871094 270.308594 277.851562 270.46875 277.898438 270.640625 C 277.945312 270.808594 278.046875 270.9375 278.203125 271.023438 C 278.355469 271.109375 278.519531 271.128906 278.6875 271.078125 C 279.699219 270.792969 280.972656 270.632812 281.675781 270.910156 C 282.375 271.191406 283.914062 272.367188 284.890625 273.523438 C 285.378906 274.101562 285.734375 274.6875 285.847656 275.070312 C 285.902344 275.257812 285.898438 275.382812 285.882812 275.433594 C 285.867188 275.488281 285.867188 275.507812 285.753906 275.566406 C 283.3125 276.902344 281.40625 275.585938 280.667969 275.164062 C 280.582031 275.113281 280.488281 275.085938 280.386719 275.078125 C 280.289062 275.074219 280.191406 275.089844 280.097656 275.128906 C 280.007812 275.167969 279.925781 275.226562 279.863281 275.300781 C 279.796875 275.378906 279.753906 275.464844 279.726562 275.5625 C 279.550781 276.265625 279.824219 276.90625 280.15625 277.507812 C 280.488281 278.109375 280.914062 278.730469 281.304688 279.480469 C 282.089844 280.976562 282.761719 282.933594 282.136719 286.035156 C 282.105469 286.207031 282.136719 286.367188 282.234375 286.515625 C 282.328125 286.660156 282.464844 286.75 282.636719 286.785156 C 282.808594 286.820312 282.96875 286.789062 283.117188 286.691406 C 283.261719 286.59375 283.355469 286.460938 283.390625 286.289062 C 284.066406 282.902344 283.300781 280.539062 282.4375 278.886719 C 282.003906 278.0625 281.554688 277.40625 281.273438 276.894531 C 281.242188 276.835938 281.265625 276.832031 281.242188 276.78125 C 282.410156 277.324219 284.152344 277.898438 286.367188 276.6875 C 286.722656 276.496094 287 276.164062 287.109375 275.796875 C 287.214844 275.425781 287.175781 275.058594 287.074219 274.714844 C 286.875 274.023438 286.421875 273.355469 285.867188 272.703125 C 284.761719 271.394531 283.289062 270.179688 282.144531 269.726562 Z M 282.144531 269.726562 "/><path style=" stroke:none;fill-rule:nonzero;fill:#3f88c5;fill-opacity:1;" d="M 270.945312 281.933594 C 269.480469 281.976562 268.390625 282.460938 267.769531 282.835938 L 208.914062 331.914062 C 184.308594 344.644531 160.613281 359.851562 133.652344 366.78125 C 117.078125 370.285156 72.292969 369.679688 35.117188 394.304688 C 4.617188 415.277344 1.378906 458.109375 0.167969 492.804688 C 1.550781 509.023438 19.644531 507.9375 26.335938 505.484375 L 32.371094 503.035156 C 31.207031 528.945312 32.605469 550.929688 38.855469 555.421875 C 54.296875 566.515625 72.832031 566.050781 106.78125 565.714844 C 134.726562 565.441406 164.929688 563.816406 166.816406 540.394531 C 168.425781 520.40625 161.550781 453.589844 152.886719 419.5625 C 179.167969 403.40625 201.851562 380.089844 225.453125 360.003906 L 230.171875 354.703125 L 282.484375 298.910156 C 282.875 298.21875 287.433594 295.777344 280.921875 287.925781 C 276.847656 283.019531 273.378906 281.867188 270.945312 281.933594 Z M 270.945312 281.933594 "/><path style=" stroke:none;fill-rule:nonzero;fill:#f5987c;fill-opacity:1;" d="M 69.324219 362.917969 C 69.324219 362.917969 70.722656 378.476562 73.101562 382.46875 C 75.484375 386.46875 93.046875 391.320312 97.210938 379.277344 L 97.308594 360.402344 Z M 69.324219 362.917969 "/><path style=" stroke:none;fill-rule:nonzero;fill:#1c3144;fill-opacity:1;" d="M 97.28125 366.136719 L 75.136719 369.355469 C 75.136719 369.355469 84.308594 383.4375 97.21875 377.835938 Z M 97.28125 366.136719 "/><path style=" stroke:none;fill-rule:nonzero;fill:#f5987c;fill-opacity:1;" d="M 97.519531 329.203125 C 97.519531 329.203125 107.414062 356.984375 104.476562 366.394531 C 101.539062 375.804688 91.957031 381.039062 78.105469 372.585938 C 64.25 364.132812 55.074219 340.609375 55.074219 340.609375 L 71.609375 327.441406 L 84.339844 326.070312 Z M 97.519531 329.203125 "/><path style=" stroke:none;fill-rule:nonzero;fill:#f5987c;fill-opacity:1;" d="M 62.261719 353.144531 C 62.261719 353.144531 56.273438 350.863281 54.570312 354.898438 C 52.867188 358.9375 61.101562 365.21875 69.765625 363.246094 Z M 62.261719 353.144531 "/><path style=" stroke:none;fill-rule:nonzero;fill:#1c3144;fill-opacity:1;" d="M 58.542969 352.746094 C 58.542969 352.746094 54.199219 352.0625 50.136719 346.011719 C 46.078125 339.960938 51.75 332.757812 51.75 332.757812 C 51.75 332.757812 45.824219 317.671875 57.601562 317.128906 C 57.601562 317.128906 58.589844 306.316406 68.433594 310.246094 C 68.433594 310.246094 70.894531 301.28125 80.542969 308.585938 C 80.542969 308.585938 87.59375 303.207031 93.050781 311.691406 C 93.050781 311.691406 102.578125 320.777344 99.769531 328.527344 C 96.964844 336.277344 91.457031 330 91.457031 330 C 91.457031 330 88.011719 335.136719 82.261719 332.722656 C 82.261719 332.722656 79.238281 338.492188 73.59375 336.410156 C 67.949219 334.332031 60.664062 348.136719 62.667969 352.234375 C 63.960938 355.511719 60.09375 353.429688 58.542969 352.746094 Z M 58.542969 352.746094 "/><path style=" stroke:none;fill-rule:nonzero;fill:#2e5171;fill-opacity:1;" d="M 123.710938 405.421875 C 123.316406 405.5 122.945312 405.640625 122.597656 405.847656 C 122.25 406.054688 121.949219 406.3125 121.6875 406.621094 C 121.429688 406.933594 121.230469 407.277344 121.089844 407.652344 C 120.949219 408.03125 120.878906 408.421875 120.871094 408.828125 L 120.832031 411.363281 L 118.960938 411.734375 C 117.949219 411.9375 117.292969 412.917969 117.496094 413.929688 L 117.648438 414.6875 L 105.859375 417.042969 L 118.347656 479.582031 L 166.742188 469.925781 L 154.25 407.382812 L 142.460938 409.738281 L 142.308594 408.976562 C 142.109375 407.964844 141.128906 407.3125 140.117188 407.515625 L 139.363281 407.664062 L 138.351562 405.335938 C 138.191406 404.96875 137.972656 404.636719 137.699219 404.339844 C 137.421875 404.042969 137.105469 403.804688 136.75 403.617188 C 136.390625 403.429688 136.011719 403.308594 135.613281 403.25 C 135.214844 403.191406 134.816406 403.203125 134.421875 403.28125 Z M 129.226562 405.164062 C 130.136719 404.984375 131.023438 405.574219 131.203125 406.480469 C 131.382812 407.390625 130.792969 408.273438 129.886719 408.457031 C 128.976562 408.636719 128.09375 408.046875 127.910156 407.140625 C 127.730469 406.230469 128.320312 405.347656 129.226562 405.164062 Z M 129.226562 405.164062 "/><path style=" stroke:none;fill-rule:nonzero;fill:#f5987c;fill-opacity:1;" d="M 128.988281 437.65625 C 128.15625 438.207031 116.6875 445.054688 114.402344 446.375 C 112.464844 447.492188 111.382812 446.871094 111.871094 446.097656 C 112.355469 445.324219 113.523438 442.300781 112.957031 440.210938 C 112.558594 438.738281 111.695312 438.507812 111.21875 438.5 C 111.035156 438.5 110.8125 438.667969 110.738281 438.835938 C 106.226562 448.0625 101.3125 449.953125 98.960938 454.367188 C 98.796875 454.679688 98.664062 454.992188 98.554688 455.308594 L 90.945312 455.804688 L 98.023438 476.457031 L 105.300781 468.351562 C 111.859375 469.933594 121.300781 465.070312 122.089844 464.832031 C 123.761719 464.328125 130.4375 460.613281 131.949219 459.8125 C 132.578125 459.480469 132.964844 458.988281 132.964844 458.394531 C 132.976562 457.792969 132.621094 457.0625 131.738281 456.972656 C 130.855469 456.878906 124.710938 460.382812 123.851562 460.039062 C 122.992188 459.695312 123.355469 459.148438 123.945312 458.835938 C 124.539062 458.527344 134.882812 452.917969 135.382812 452.652344 C 137.421875 451.570312 137.722656 450.402344 137.203125 449.558594 C 136.777344 448.863281 135.703125 448.585938 134.472656 449.21875 C 131.28125 450.871094 123.882812 454.734375 122.878906 454.625 C 121.746094 454.496094 121.769531 453.734375 122.21875 453.378906 C 123.214844 452.589844 133.71875 446.261719 136.066406 444.882812 C 137.429688 444.082031 137.125 443.0625 136.78125 442.304688 C 136.339844 441.324219 135.230469 441.480469 134.273438 441.84375 C 133.324219 442.199219 123.859375 447.578125 121.90625 448.328125 C 119.953125 449.078125 119.546875 449.371094 119.582031 448.601562 C 119.609375 447.828125 130.289062 441.292969 131.152344 440.359375 C 132.015625 439.429688 132.332031 438.566406 131.550781 437.613281 C 130.832031 436.867188 129.941406 437.09375 128.988281 437.65625 Z M 128.988281 437.65625 "/><path style=" stroke:none;fill-rule:nonzero;fill:#3f88c5;fill-opacity:1;" d="M 102.910156 470.097656 L 93.496094 463.542969 L 97.957031 476.824219 L 103.152344 471.003906 Z M 102.910156 470.097656 "/><path style=" stroke:none;fill-rule:nonzero;fill:#3f88c5;fill-opacity:1;" d="M 49.765625 433.339844 L 44.105469 468.65625 L 91.664062 455.074219 C 97.09375 453.144531 103.589844 462.925781 102.75 470.25 "/><path style=" stroke:none;fill-rule:nonzero;fill:#1c3144;fill-opacity:1;" d="M 49.871094 432.6875 C 49.691406 432.660156 49.527344 432.699219 49.382812 432.804688 C 49.234375 432.914062 49.144531 433.058594 49.117188 433.238281 L 43.453125 468.550781 C 43.4375 468.664062 43.445312 468.773438 43.484375 468.878906 C 43.519531 468.984375 43.582031 469.074219 43.667969 469.152344 C 43.75 469.226562 43.847656 469.277344 43.957031 469.300781 C 44.070312 469.324219 44.179688 469.320312 44.285156 469.289062 L 91.84375 455.707031 C 91.855469 455.703125 91.871094 455.695312 91.882812 455.691406 C 93.035156 455.28125 94.238281 455.480469 95.480469 456.175781 C 96.722656 456.871094 97.964844 458.074219 99.019531 459.570312 C 101.128906 462.570312 102.492188 466.738281 102.097656 470.175781 C 102.074219 470.359375 102.121094 470.519531 102.234375 470.664062 C 102.347656 470.804688 102.496094 470.886719 102.675781 470.90625 C 102.855469 470.925781 103.019531 470.878906 103.160156 470.765625 C 103.304688 470.65625 103.386719 470.507812 103.40625 470.328125 C 103.851562 466.441406 102.378906 462.058594 100.09375 458.8125 C 98.953125 457.191406 97.601562 455.855469 96.125 455.027344 C 94.652344 454.203125 93.011719 453.902344 91.453125 454.453125 L 44.917969 467.738281 L 50.417969 433.445312 C 50.445312 433.265625 50.40625 433.101562 50.300781 432.953125 C 50.195312 432.804688 50.050781 432.71875 49.871094 432.6875 Z M 49.871094 432.6875 "/><path style=" stroke:none;fill-rule:nonzero;fill:#1c3144;fill-opacity:1;" d="M 98.792969 476.5625 L 31.714844 503.214844 L 31.703125 503.308594 L 32.371094 503.035156 C 32.171875 507.503906 32.082031 511.785156 32.042969 515.953125 C 44.179688 508.308594 98.792969 476.5625 98.792969 476.5625 Z M 98.792969 476.5625 "/><path style=" stroke:none;fill-rule:nonzero;fill:#1c3144;fill-opacity:1;" d="M 43.871094 468.003906 L 25.746094 473.023438 C 25.570312 473.074219 25.4375 473.175781 25.347656 473.335938 C 25.257812 473.492188 25.238281 473.660156 25.285156 473.835938 C 25.335938 474.007812 25.4375 474.140625 25.597656 474.230469 C 25.753906 474.320312 25.921875 474.339844 26.097656 474.289062 L 44.222656 469.269531 C 44.398438 469.222656 44.53125 469.121094 44.621094 468.960938 C 44.710938 468.804688 44.730469 468.636719 44.683594 468.460938 C 44.632812 468.285156 44.53125 468.15625 44.371094 468.066406 C 44.214844 467.976562 44.046875 467.957031 43.871094 468.003906 Z M 43.871094 468.003906 "/><path style=" stroke:none;fill-rule:nonzero;fill:#2e5171;fill-opacity:1;" d="M 110.078125 438.179688 L 111.785156 446.722656 L 114.875 443.441406 L 113.035156 437.699219 Z M 110.078125 438.179688 "/><path style=" stroke:none;fill-rule:nonzero;fill:#f5987c;fill-opacity:1;" d="M 570.046875 406.007812 C 570.707031 406.761719 579.953125 416.394531 581.808594 418.269531 C 583.382812 419.863281 584.589844 419.550781 584.324219 418.675781 C 584.0625 417.796875 583.734375 414.574219 584.832031 412.707031 C 585.605469 411.394531 586.5 411.398438 586.960938 411.519531 C 587.140625 411.566406 587.308594 411.785156 587.335938 411.96875 C 589.25 422.058594 593.484375 425.183594 594.585938 430.058594 C 594.664062 430.402344 594.707031 430.742188 594.734375 431.074219 L 601.9375 433.5625 L 589.652344 451.613281 L 584.777344 441.871094 C 578.035156 441.664062 570.210938 434.480469 569.511719 434.042969 C 568.035156 433.113281 562.578125 427.765625 561.332031 426.597656 C 560.816406 426.109375 560.570312 425.53125 560.726562 424.960938 C 560.875 424.378906 561.410156 423.765625 562.289062 423.914062 C 563.164062 424.058594 568.164062 429.058594 569.082031 428.953125 C 570 428.851562 569.796875 428.226562 569.308594 427.769531 C 568.820312 427.3125 560.328125 419.171875 559.914062 418.78125 C 558.234375 417.203125 558.253906 415.996094 558.976562 415.320312 C 559.570312 414.761719 560.683594 414.777344 561.699219 415.714844 C 564.339844 418.148438 570.457031 423.832031 571.453125 423.988281 C 572.578125 424.164062 572.757812 423.421875 572.417969 422.960938 C 571.667969 421.9375 563.207031 413.058594 561.308594 411.109375 C 560.203125 409.980469 560.769531 409.074219 561.300781 408.433594 C 561.984375 407.605469 563.015625 408.050781 563.84375 408.652344 C 564.664062 409.246094 572.371094 416.933594 574.054688 418.175781 C 575.742188 419.414062 576.054688 419.804688 576.226562 419.050781 C 576.402344 418.296875 567.828125 409.175781 567.246094 408.046875 C 566.660156 406.921875 566.578125 406.003906 567.585938 405.292969 C 568.480469 404.761719 569.277344 405.214844 570.046875 406.007812 Z M 570.046875 406.007812 "/><path style=" stroke:none;fill-rule:nonzero;fill:#3f88c5;fill-opacity:1;" d="M 732.058594 407.433594 C 726.53125 407.070312 721.0625 408.710938 716.648438 412.050781 C 715.453125 412.976562 714.355469 414.019531 713.367188 415.160156 L 660.507812 465.246094 L 602.667969 430.097656 C 601.910156 429.855469 598.582031 425.898438 592.234375 433.882812 C 585.886719 441.867188 588.625 446.375 589.949219 447.796875 L 650.085938 495.296875 C 655.847656 500.742188 664.273438 503.554688 672.835938 498.480469 L 744.4375 448.738281 C 754.574219 441.066406 756.566406 426.636719 748.894531 416.503906 C 744.863281 411.183594 738.71875 407.875 732.058594 407.433594 Z M 732.058594 407.433594 "/><path style=" stroke:none;fill-rule:nonzero;fill:#2e5171;fill-opacity:1;" d="M 547.992188 390.664062 L 562.113281 383.667969 L 637.253906 535.195312 L 623.132812 542.195312 Z M 547.992188 390.664062 "/><path style=" stroke:none;fill-rule:nonzero;fill:#2e5171;fill-opacity:1;" d="M 490.878906 169.9375 C 488.914062 170.199219 486.957031 170.507812 485.003906 170.863281 C 483.054688 171.222656 481.113281 171.628906 479.183594 172.082031 C 477.253906 172.535156 475.335938 173.035156 473.429688 173.582031 C 471.523438 174.128906 469.632812 174.722656 467.753906 175.363281 C 465.878906 176 464.019531 176.6875 462.175781 177.417969 C 460.332031 178.148438 458.507812 178.925781 456.703125 179.746094 C 454.898438 180.566406 453.113281 181.429688 451.351562 182.339844 C 449.589844 183.246094 447.847656 184.199219 446.132812 185.191406 C 444.417969 186.1875 442.726562 187.222656 441.0625 188.296875 C 439.398438 189.375 437.757812 190.492188 436.148438 191.648438 C 434.539062 192.804688 432.957031 194 431.40625 195.234375 C 429.855469 196.46875 428.335938 197.742188 426.847656 199.050781 C 425.359375 200.359375 423.902344 201.707031 422.480469 203.085938 C 421.054688 204.464844 419.667969 205.882812 418.3125 207.328125 C 416.960938 208.777344 415.644531 210.257812 414.363281 211.773438 C 413.082031 213.285156 411.839844 214.832031 410.632812 216.40625 C 409.429688 217.980469 408.265625 219.582031 407.136719 221.214844 C 406.011719 222.84375 404.925781 224.503906 403.882812 226.1875 C 402.835938 227.875 401.835938 229.582031 400.875 231.316406 C 399.914062 233.050781 398.996094 234.808594 398.121094 236.585938 C 397.246094 238.367188 396.417969 240.164062 395.628906 241.984375 C 394.84375 243.804688 394.101562 245.644531 393.40625 247.5 C 392.710938 249.355469 392.0625 251.226562 391.457031 253.117188 C 390.855469 255.003906 390.296875 256.90625 389.785156 258.820312 C 389.277344 260.738281 388.8125 262.664062 388.398438 264.601562 C 387.980469 266.539062 387.613281 268.488281 387.292969 270.445312 C 386.972656 272.402344 386.699219 274.363281 386.476562 276.332031 C 386.253906 278.304688 386.078125 280.277344 385.949219 282.253906 C 385.824219 284.234375 385.746094 286.214844 385.714844 288.195312 C 385.6875 290.179688 385.707031 292.160156 385.773438 294.140625 C 385.839844 296.121094 385.957031 298.101562 386.121094 300.074219 C 386.289062 302.050781 386.5 304.019531 386.761719 305.984375 C 387.023438 307.949219 387.335938 309.910156 387.691406 311.859375 C 388.050781 313.808594 388.457031 315.746094 388.910156 317.675781 C 389.359375 319.605469 389.863281 321.523438 390.410156 323.429688 C 390.957031 325.335938 391.550781 327.226562 392.191406 329.101562 C 392.828125 330.976562 393.515625 332.835938 394.246094 334.679688 C 394.980469 336.523438 395.753906 338.347656 396.574219 340.152344 C 397.398438 341.957031 398.261719 343.738281 399.171875 345.5 C 400.078125 347.261719 401.03125 349 402.023438 350.714844 C 403.019531 352.429688 404.054688 354.121094 405.128906 355.785156 C 406.207031 357.449219 407.324219 359.085938 408.480469 360.695312 C 409.640625 362.304688 410.835938 363.886719 412.070312 365.4375 C 413.304688 366.988281 414.578125 368.507812 415.886719 369.996094 C 417.195312 371.484375 418.542969 372.941406 419.921875 374.363281 C 421.304688 375.785156 422.71875 377.171875 424.167969 378.527344 C 425.617188 379.878906 427.097656 381.195312 428.613281 382.476562 C 430.128906 383.757812 431.671875 385 433.246094 386.203125 C 434.820312 387.40625 436.425781 388.574219 438.058594 389.699219 C 439.6875 390.824219 441.347656 391.910156 443.03125 392.953125 C 444.71875 394 446.429688 395 448.164062 395.960938 C 449.898438 396.921875 451.65625 397.839844 453.433594 398.714844 C 455.214844 399.585938 457.015625 400.417969 458.835938 401.203125 C 460.65625 401.988281 462.496094 402.730469 464.351562 403.425781 C 466.207031 404.121094 468.082031 404.769531 469.96875 405.375 C 471.859375 405.976562 473.761719 406.535156 475.675781 407.042969 C 477.59375 407.554688 479.519531 408.019531 481.460938 408.433594 C 483.398438 408.847656 485.347656 409.21875 487.304688 409.539062 C 489.261719 409.859375 491.222656 410.128906 493.195312 410.351562 C 495.164062 410.578125 497.140625 410.753906 499.117188 410.878906 C 501.097656 411.003906 503.078125 411.082031 505.058594 411.113281 C 507.042969 411.144531 509.023438 411.125 511.007812 411.054688 C 512.988281 410.988281 514.96875 410.871094 516.945312 410.707031 C 518.917969 410.542969 520.890625 410.328125 522.855469 410.066406 C 524.820312 409.804688 526.78125 409.496094 528.730469 409.140625 C 530.679688 408.78125 532.621094 408.375 534.550781 407.921875 C 536.480469 407.46875 538.398438 406.96875 540.304688 406.421875 C 542.210938 405.875 544.101562 405.28125 545.980469 404.640625 C 547.855469 404.003906 549.71875 403.316406 551.558594 402.585938 C 553.402344 401.855469 555.226562 401.078125 557.03125 400.257812 C 558.835938 399.4375 560.621094 398.574219 562.382812 397.664062 C 564.144531 396.757812 565.886719 395.804688 567.601562 394.8125 C 569.316406 393.816406 571.007812 392.78125 572.671875 391.707031 C 574.335938 390.628906 575.976562 389.511719 577.585938 388.355469 C 579.195312 387.199219 580.777344 386.003906 582.328125 384.769531 C 583.878906 383.535156 585.398438 382.261719 586.886719 380.953125 C 588.378906 379.644531 589.832031 378.300781 591.257812 376.917969 C 592.679688 375.539062 594.066406 374.125 595.421875 372.675781 C 596.773438 371.226562 598.089844 369.746094 599.371094 368.230469 C 600.652344 366.71875 601.894531 365.175781 603.101562 363.601562 C 604.304688 362.023438 605.46875 360.421875 606.597656 358.789062 C 607.722656 357.160156 608.808594 355.5 609.851562 353.816406 C 610.898438 352.132812 611.902344 350.421875 612.859375 348.6875 C 613.820312 346.953125 614.738281 345.195312 615.613281 343.417969 C 616.488281 341.640625 617.320312 339.839844 618.105469 338.019531 C 618.890625 336.199219 619.632812 334.363281 620.328125 332.503906 C 621.023438 330.648438 621.671875 328.777344 622.277344 326.886719 C 622.882812 325 623.4375 323.097656 623.949219 321.183594 C 624.460938 319.269531 624.921875 317.339844 625.339844 315.402344 C 625.753906 313.464844 626.121094 311.515625 626.441406 309.5625 C 626.761719 307.605469 627.035156 305.640625 627.257812 303.671875 C 627.480469 301.703125 627.65625 299.726562 627.785156 297.75 C 627.910156 295.773438 627.988281 293.792969 628.019531 291.808594 C 628.046875 289.828125 628.027344 287.847656 627.960938 285.863281 C 627.894531 283.882812 627.777344 281.90625 627.613281 279.929688 C 627.449219 277.953125 627.234375 275.984375 626.972656 274.019531 C 626.710938 272.054688 626.402344 270.097656 626.042969 268.148438 C 625.6875 266.199219 625.28125 264.257812 624.828125 262.328125 C 624.375 260.398438 623.875 258.480469 623.328125 256.574219 C 622.78125 254.671875 622.1875 252.777344 621.546875 250.902344 C 620.90625 249.027344 620.21875 247.167969 619.488281 245.324219 C 618.757812 243.484375 617.980469 241.660156 617.160156 239.855469 C 616.339844 238.050781 615.472656 236.265625 614.566406 234.503906 C 613.65625 232.742188 612.707031 231.003906 611.710938 229.289062 C 610.71875 227.574219 609.683594 225.882812 608.605469 224.21875 C 607.527344 222.554688 606.410156 220.917969 605.253906 219.308594 C 604.097656 217.699219 602.902344 216.117188 601.664062 214.566406 C 600.429688 213.015625 599.160156 211.496094 597.847656 210.007812 C 596.539062 208.519531 595.195312 207.0625 593.8125 205.640625 C 592.433594 204.21875 591.015625 202.832031 589.566406 201.476562 C 588.117188 200.125 586.636719 198.808594 585.121094 197.527344 C 583.609375 196.25 582.066406 195.003906 580.488281 193.800781 C 578.914062 192.597656 577.3125 191.429688 575.679688 190.304688 C 574.046875 189.179688 572.386719 188.09375 570.703125 187.050781 C 569.015625 186.007812 567.308594 185.003906 565.574219 184.042969 C 563.835938 183.082031 562.082031 182.164062 560.300781 181.292969 C 558.519531 180.417969 556.722656 179.585938 554.902344 178.800781 C 553.078125 178.015625 551.242188 177.273438 549.382812 176.578125 C 547.527344 175.882812 545.65625 175.234375 543.765625 174.628906 C 541.878906 174.027344 539.976562 173.46875 538.058594 172.960938 C 536.140625 172.449219 534.214844 171.984375 532.277344 171.570312 C 530.335938 171.15625 528.390625 170.785156 526.433594 170.464844 C 524.476562 170.144531 522.511719 169.875 520.542969 169.652344 C 518.570312 169.425781 516.597656 169.25 514.617188 169.125 C 512.640625 169 510.65625 168.921875 508.675781 168.890625 C 506.691406 168.859375 504.710938 168.878906 502.726562 168.949219 C 500.746094 169.015625 498.769531 169.132812 496.792969 169.296875 C 494.816406 169.460938 492.84375 169.675781 490.878906 169.9375 Z M 494.464844 196.855469 C 495.988281 196.652344 497.519531 196.488281 499.050781 196.359375 C 500.582031 196.230469 502.117188 196.140625 503.65625 196.089844 C 505.195312 196.035156 506.730469 196.023438 508.269531 196.046875 C 509.808594 196.066406 511.34375 196.128906 512.878906 196.226562 C 514.414062 196.324219 515.945312 196.460938 517.476562 196.636719 C 519.003906 196.808594 520.527344 197.019531 522.046875 197.269531 C 523.5625 197.515625 525.074219 197.800781 526.578125 198.125 C 528.082031 198.445312 529.578125 198.804688 531.066406 199.203125 C 532.550781 199.597656 534.027344 200.03125 535.492188 200.496094 C 536.957031 200.964844 538.410156 201.46875 539.851562 202.011719 C 541.292969 202.550781 542.71875 203.125 544.132812 203.734375 C 545.542969 204.34375 546.941406 204.988281 548.320312 205.664062 C 549.703125 206.34375 551.0625 207.054688 552.410156 207.800781 C 553.753906 208.546875 555.082031 209.324219 556.390625 210.132812 C 557.699219 210.945312 558.984375 211.785156 560.25 212.660156 C 561.515625 213.53125 562.761719 214.4375 563.984375 215.371094 C 565.203125 216.304688 566.402344 217.269531 567.578125 218.261719 C 568.75 219.253906 569.902344 220.277344 571.023438 221.328125 C 572.148438 222.375 573.246094 223.453125 574.320312 224.554688 C 575.390625 225.660156 576.433594 226.789062 577.449219 227.945312 C 578.464844 229.097656 579.453125 230.277344 580.410156 231.480469 C 581.367188 232.683594 582.296875 233.910156 583.195312 235.160156 C 584.09375 236.40625 584.960938 237.675781 585.792969 238.96875 C 586.628906 240.261719 587.433594 241.570312 588.203125 242.902344 C 588.976562 244.230469 589.714844 245.582031 590.417969 246.949219 C 591.125 248.316406 591.792969 249.699219 592.429688 251.097656 C 593.066406 252.5 593.671875 253.914062 594.238281 255.34375 C 594.804688 256.773438 595.335938 258.214844 595.832031 259.667969 C 596.332031 261.125 596.789062 262.59375 597.214844 264.070312 C 597.640625 265.546875 598.027344 267.035156 598.378906 268.53125 C 598.730469 270.03125 599.046875 271.535156 599.324219 273.046875 C 599.601562 274.558594 599.839844 276.078125 600.042969 277.601562 C 600.246094 279.128906 600.410156 280.65625 600.539062 282.1875 C 600.667969 283.722656 600.757812 285.257812 600.8125 286.792969 C 600.863281 288.328125 600.878906 289.867188 600.855469 291.40625 C 600.832031 292.941406 600.769531 294.480469 600.671875 296.011719 C 600.574219 297.546875 600.4375 299.078125 600.265625 300.605469 C 600.089844 302.136719 599.878906 303.65625 599.632812 305.175781 C 599.382812 306.695312 599.097656 308.203125 598.777344 309.707031 C 598.453125 311.210938 598.09375 312.707031 597.699219 314.191406 C 597.300781 315.679688 596.871094 317.152344 596.402344 318.617188 C 595.933594 320.082031 595.429688 321.535156 594.886719 322.976562 C 594.347656 324.414062 593.773438 325.839844 593.164062 327.253906 C 592.554688 328.664062 591.910156 330.0625 591.230469 331.441406 C 590.554688 332.820312 589.839844 334.183594 589.097656 335.53125 C 588.351562 336.875 587.574219 338.203125 586.761719 339.507812 C 585.953125 340.816406 585.109375 342.101562 584.234375 343.367188 C 583.363281 344.632812 582.457031 345.875 581.523438 347.097656 C 580.589844 348.320312 579.625 349.515625 578.632812 350.691406 C 577.636719 351.867188 576.617188 353.015625 575.566406 354.136719 C 574.515625 355.261719 573.4375 356.359375 572.335938 357.429688 C 571.230469 358.503906 570.101562 359.546875 568.945312 360.5625 C 567.792969 361.578125 566.613281 362.5625 565.410156 363.519531 C 564.203125 364.480469 562.980469 365.40625 561.730469 366.304688 C 560.480469 367.203125 559.210938 368.066406 557.917969 368.902344 C 556.625 369.738281 555.316406 370.542969 553.984375 371.3125 C 552.652344 372.082031 551.304688 372.820312 549.9375 373.527344 C 548.570312 374.230469 547.183594 374.902344 545.785156 375.539062 C 544.382812 376.175781 542.96875 376.777344 541.539062 377.34375 C 540.109375 377.910156 538.667969 378.441406 537.210938 378.9375 C 535.753906 379.433594 534.289062 379.894531 532.808594 380.320312 C 531.332031 380.746094 529.84375 381.132812 528.34375 381.484375 C 526.847656 381.835938 525.339844 382.148438 523.828125 382.425781 C 522.316406 382.703125 520.796875 382.945312 519.269531 383.148438 C 517.746094 383.351562 516.21875 383.515625 514.683594 383.644531 C 513.152344 383.773438 511.617188 383.863281 510.078125 383.914062 C 508.542969 383.96875 507.003906 383.980469 505.464844 383.957031 C 503.925781 383.9375 502.390625 383.875 500.855469 383.777344 C 499.320312 383.679688 497.789062 383.542969 496.257812 383.367188 C 494.730469 383.195312 493.207031 382.984375 491.691406 382.734375 C 490.171875 382.488281 488.660156 382.203125 487.15625 381.878906 C 485.652344 381.558594 484.15625 381.199219 482.671875 380.800781 C 481.183594 380.40625 479.707031 379.972656 478.242188 379.507812 C 476.777344 379.039062 475.324219 378.535156 473.882812 377.996094 C 472.445312 377.453125 471.015625 376.878906 469.605469 376.269531 C 468.191406 375.660156 466.796875 375.015625 465.414062 374.339844 C 464.035156 373.660156 462.671875 372.949219 461.324219 372.203125 C 459.980469 371.457031 458.652344 370.679688 457.347656 369.871094 C 456.039062 369.0625 454.75 368.21875 453.484375 367.34375 C 452.21875 366.472656 450.976562 365.566406 449.753906 364.632812 C 448.53125 363.699219 447.332031 362.734375 446.160156 361.742188 C 444.984375 360.75 443.835938 359.726562 442.710938 358.679688 C 441.585938 357.628906 440.488281 356.550781 439.417969 355.449219 C 438.34375 354.34375 437.300781 353.214844 436.285156 352.0625 C 435.269531 350.90625 434.28125 349.726562 433.324219 348.523438 C 432.367188 347.320312 431.4375 346.09375 430.539062 344.847656 C 429.644531 343.597656 428.777344 342.328125 427.941406 341.035156 C 427.105469 339.746094 426.300781 338.433594 425.53125 337.101562 C 424.761719 335.773438 424.023438 334.425781 423.316406 333.058594 C 422.613281 331.691406 421.941406 330.308594 421.304688 328.90625 C 420.667969 327.507812 420.066406 326.09375 419.5 324.664062 C 418.929688 323.234375 418.398438 321.792969 417.902344 320.335938 C 417.40625 318.878906 416.945312 317.414062 416.519531 315.933594 C 416.097656 314.457031 415.707031 312.96875 415.355469 311.472656 C 415.003906 309.976562 414.691406 308.46875 414.414062 306.957031 C 414.136719 305.445312 413.894531 303.925781 413.691406 302.402344 C 413.488281 300.878906 413.324219 299.347656 413.195312 297.816406 C 413.066406 296.285156 412.976562 294.75 412.925781 293.210938 C 412.871094 291.675781 412.855469 290.136719 412.878906 288.601562 C 412.902344 287.0625 412.964844 285.527344 413.0625 283.992188 C 413.160156 282.457031 413.296875 280.925781 413.46875 279.398438 C 413.644531 277.871094 413.855469 276.347656 414.101562 274.828125 C 414.351562 273.3125 414.636719 271.800781 414.960938 270.296875 C 415.28125 268.792969 415.640625 267.300781 416.039062 265.8125 C 416.433594 264.328125 416.867188 262.851562 417.335938 261.386719 C 417.800781 259.921875 418.304688 258.46875 418.847656 257.03125 C 419.386719 255.589844 419.960938 254.164062 420.570312 252.75 C 421.179688 251.339844 421.824219 249.945312 422.503906 248.5625 C 423.179688 247.183594 423.894531 245.820312 424.640625 244.476562 C 425.382812 243.128906 426.160156 241.804688 426.972656 240.496094 C 427.78125 239.1875 428.625 237.902344 429.5 236.636719 C 430.371094 235.371094 431.277344 234.128906 432.210938 232.90625 C 433.144531 231.683594 434.109375 230.488281 435.105469 229.3125 C 436.097656 228.140625 437.117188 226.988281 438.167969 225.867188 C 439.21875 224.742188 440.296875 223.644531 441.398438 222.574219 C 442.503906 221.503906 443.632812 220.460938 444.789062 219.441406 C 445.941406 218.425781 447.121094 217.441406 448.324219 216.484375 C 449.53125 215.527344 450.757812 214.597656 452.003906 213.699219 C 453.253906 212.800781 454.523438 211.9375 455.816406 211.101562 C 457.109375 210.265625 458.417969 209.460938 459.75 208.691406 C 461.082031 207.921875 462.429688 207.183594 463.796875 206.480469 C 465.164062 205.773438 466.550781 205.105469 467.949219 204.464844 C 469.351562 203.828125 470.765625 203.226562 472.195312 202.660156 C 473.625 202.09375 475.066406 201.5625 476.523438 201.066406 C 477.980469 200.570312 479.449219 200.109375 480.925781 199.683594 C 482.40625 199.257812 483.894531 198.871094 485.390625 198.519531 C 486.886719 198.167969 488.394531 197.855469 489.90625 197.578125 C 491.421875 197.300781 492.9375 197.058594 494.464844 196.855469 Z M 494.464844 196.855469 "/><path style=" stroke:none;fill-rule:nonzero;fill:#2e5171;fill-opacity:1;" d="M 575.429688 438.96875 L 583.417969 435.007812 C 590.980469 431.261719 600.085938 434.332031 603.832031 441.890625 L 656.304688 547.703125 C 660.054688 555.261719 656.984375 564.363281 649.425781 568.109375 L 641.433594 572.070312 C 633.875 575.816406 624.769531 572.75 621.023438 565.191406 L 568.550781 459.375 C 564.800781 451.816406 567.871094 442.714844 575.429688 438.96875 Z M 575.429688 438.96875 "/><path style=" stroke:none;fill-rule:nonzero;fill:#f2f2f2;fill-opacity:1;" d="M 544.164062 219.457031 C 544.0625 220.191406 543.847656 220.90625 543.507812 221.597656 C 543.167969 222.285156 542.71875 222.941406 542.152344 223.558594 C 541.585938 224.175781 540.917969 224.742188 540.148438 225.261719 C 539.378906 225.785156 538.523438 226.246094 537.578125 226.648438 C 536.632812 227.054688 535.617188 227.390625 534.53125 227.660156 C 533.449219 227.933594 532.316406 228.132812 531.132812 228.261719 C 529.953125 228.390625 528.746094 228.445312 527.511719 228.425781 C 526.277344 228.40625 525.042969 228.316406 523.804688 228.148438 C 522.566406 227.984375 521.347656 227.746094 520.152344 227.441406 C 518.960938 227.132812 517.808594 226.761719 516.703125 226.328125 C 515.597656 225.894531 514.554688 225.402344 513.582031 224.855469 C 512.609375 224.308594 511.71875 223.714844 510.910156 223.078125 C 510.105469 222.4375 509.402344 221.765625 508.792969 221.0625 C 508.1875 220.359375 507.695312 219.632812 507.3125 218.890625 C 506.929688 218.144531 506.667969 217.394531 506.523438 216.640625 C 506.378906 215.886719 506.355469 215.140625 506.453125 214.402344 C 506.550781 213.667969 506.769531 212.953125 507.109375 212.261719 C 507.449219 211.574219 507.898438 210.917969 508.464844 210.300781 C 509.027344 209.683594 509.695312 209.117188 510.464844 208.597656 C 511.238281 208.074219 512.09375 207.613281 513.039062 207.210938 C 513.984375 206.804688 515 206.46875 516.082031 206.199219 C 517.167969 205.925781 518.300781 205.726562 519.484375 205.597656 C 520.664062 205.46875 521.871094 205.414062 523.105469 205.433594 C 524.339844 205.453125 525.574219 205.542969 526.8125 205.710938 C 528.050781 205.875 529.265625 206.113281 530.460938 206.417969 C 531.65625 206.726562 532.808594 207.097656 533.914062 207.53125 C 535.019531 207.964844 536.058594 208.457031 537.035156 209.003906 C 538.007812 209.550781 538.898438 210.144531 539.703125 210.78125 C 540.511719 211.421875 541.214844 212.09375 541.820312 212.796875 C 542.425781 213.5 542.921875 214.226562 543.304688 214.96875 C 543.6875 215.714844 543.949219 216.464844 544.09375 217.21875 C 544.238281 217.972656 544.261719 218.71875 544.164062 219.457031 Z M 544.164062 219.457031 "/><path style=" stroke:none;fill-rule:nonzero;fill:#1c3144;fill-opacity:1;" d="M 673.039062 788.398438 L 654.558594 804.546875 L 687.492188 803.226562 L 686.890625 788.3125 Z M 673.039062 788.398438 "/><path style=" stroke:none;fill-rule:nonzero;fill:#ffab00;fill-opacity:1;" d="M 691.277344 543.152344 L 660.496094 664.5625 C 659.566406 666.839844 659.09375 669.210938 659.078125 671.671875 L 665.820312 787.535156 C 665.820312 787.535156 664.8125 791.644531 677.613281 792.332031 C 690.410156 793.019531 689.308594 787.542969 689.308594 787.542969 L 696.988281 676.808594 L 749.714844 563.992188 Z M 691.277344 543.152344 "/><g clip-rule="nonzero" clip-path="url(#fe62e238d0)"><path style=" stroke:none;fill-rule:nonzero;fill:#1c3144;fill-opacity:1;" d="M 790.070312 786.984375 L 779.15625 808.964844 L 809.089844 795.175781 L 802.839844 781.617188 Z M 790.070312 786.984375 "/></g><path style=" stroke:none;fill-rule:nonzero;fill:#1c3144;fill-opacity:1;" d="M 716.152344 575.402344 L 717.894531 632.074219 L 728.617188 609.132812 Z M 716.152344 575.402344 "/><path style=" stroke:none;fill-rule:nonzero;fill:#ffab00;fill-opacity:1;" d="M 774.832031 550.484375 L 712.859375 553.523438 L 730.773438 677.488281 C 730.78125 679.945312 731.25 682.316406 732.175781 684.59375 L 782.648438 789.113281 C 782.648438 789.113281 783.289062 793.296875 795.378906 789.046875 C 807.472656 784.796875 804.359375 780.15625 804.359375 780.15625 L 769.175781 674.878906 Z M 774.832031 550.484375 "/><path style=" stroke:none;fill-rule:nonzero;fill:#3f88c5;fill-opacity:1;" d="M 707.847656 386.59375 C 708.6875 386.886719 684.03125 423.066406 682.789062 568.945312 C 712.480469 575.625 747.546875 578.519531 777.925781 570.296875 C 784.304688 553.445312 778.292969 332.648438 707.847656 386.59375 Z M 707.847656 386.59375 "/><path style=" stroke:none;fill-rule:nonzero;fill:#1c3144;fill-opacity:1;" d="M 732 407.214844 C 721.480469 406.910156 708.980469 413.71875 708.417969 431.964844 L 707.710938 504.773438 L 684.804688 510.773438 C 684.265625 519.457031 683.78125 528.5 683.445312 538.34375 L 722.082031 533.148438 C 730.246094 531.820312 738.273438 529.476562 740.214844 519.007812 L 754.164062 432.972656 C 755.6875 420.355469 746.695312 408.890625 734.074219 407.367188 C 733.394531 407.285156 732.699219 407.234375 732 407.214844 Z M 732 407.214844 "/><path style=" stroke:none;fill-rule:nonzero;fill:#f5987c;fill-opacity:1;" d="M 602.601562 522.085938 C 603.601562 522.132812 616.957031 522.15625 619.597656 522.121094 C 621.835938 522.09375 622.449219 521.007812 621.632812 520.589844 C 620.820312 520.171875 618.269531 518.171875 617.6875 516.085938 C 617.277344 514.617188 617.902344 513.980469 618.308594 513.730469 C 618.464844 513.632812 618.742188 513.664062 618.890625 513.773438 C 627.488281 519.394531 632.675781 518.507812 636.957031 521.101562 C 637.257812 521.285156 637.53125 521.488281 637.789062 521.699219 L 644.578125 518.238281 L 651.621094 537.65625 L 638.660156 536.359375 C 633.835938 541.070312 623.230469 541.71875 622.429688 541.917969 C 620.734375 542.335938 613.097656 542.554688 611.390625 542.640625 C 610.679688 542.675781 610.09375 542.449219 609.792969 541.941406 C 609.472656 541.429688 609.40625 540.621094 610.121094 540.089844 C 610.832031 539.5625 617.902344 539.429688 618.464844 538.695312 C 619.027344 537.960938 618.4375 537.675781 617.769531 537.710938 C 617.101562 537.746094 605.34375 538.210938 604.777344 538.242188 C 602.472656 538.355469 601.617188 537.503906 601.632812 536.515625 C 601.644531 535.699219 602.421875 534.910156 603.804688 534.828125 C 607.390625 534.613281 615.726562 534.152344 616.535156 533.542969 C 617.441406 532.855469 617.03125 532.214844 616.460938 532.136719 C 615.203125 531.96875 602.941406 531.898438 600.214844 531.914062 C 598.636719 531.925781 598.375 530.894531 598.28125 530.0625 C 598.160156 528.996094 599.195312 528.5625 600.203125 528.382812 C 601.203125 528.207031 612.085938 527.992188 614.148438 527.636719 C 616.210938 527.285156 616.707031 527.328125 616.285156 526.683594 C 615.863281 526.035156 603.34375 525.878906 602.128906 525.515625 C 600.910156 525.15625 600.195312 524.578125 600.382812 523.359375 C 600.617188 522.347656 601.496094 522.089844 602.601562 522.085938 Z M 602.601562 522.085938 "/><path style=" stroke:none;fill-rule:nonzero;fill:#3f88c5;fill-opacity:1;" d="M 707.777344 428.121094 L 707.070312 500.933594 L 641.589844 518.082031 C 640.890625 518.457031 636.691406 519.539062 638.023438 529.652344 C 639.355469 539.765625 643.542969 539.484375 645.484375 539.523438 L 721.441406 529.304688 C 729.605469 527.980469 737.628906 525.636719 739.574219 515.167969 L 753.523438 429.128906 C 755.046875 416.511719 746.054688 405.050781 733.433594 403.523438 C 722.558594 402.214844 708.378906 408.660156 707.777344 428.121094 Z M 707.777344 428.121094 "/><path style=" stroke:none;fill-rule:nonzero;fill:#1c3144;fill-opacity:1;" d="M 708.683594 438.1875 C 708.503906 438.183594 708.347656 438.242188 708.214844 438.367188 C 708.082031 438.492188 708.011719 438.644531 708.007812 438.824219 L 706.21875 500.296875 L 685.523438 506.042969 C 685.347656 506.089844 685.214844 506.195312 685.125 506.351562 C 685.035156 506.511719 685.015625 506.679688 685.066406 506.851562 C 685.113281 507.027344 685.21875 507.160156 685.375 507.25 C 685.535156 507.339844 685.699219 507.359375 685.875 507.308594 L 707.039062 501.433594 C 707.179688 501.398438 707.292969 501.320312 707.382812 501.207031 C 707.46875 501.09375 707.515625 500.964844 707.519531 500.820312 L 709.324219 438.863281 C 709.328125 438.683594 709.269531 438.527344 709.144531 438.394531 C 709.019531 438.261719 708.867188 438.191406 708.683594 438.1875 Z M 708.683594 438.1875 "/><path style=" stroke:none;fill-rule:nonzero;fill:#f5987c;fill-opacity:1;" d="M 733.929688 356.714844 L 733.039062 381.191406 C 726.921875 383.953125 723.519531 385.800781 710.351562 388.007812 L 711.496094 367.214844 Z M 733.929688 356.714844 "/><path style=" stroke:none;fill-rule:nonzero;fill:#1c3144;fill-opacity:1;" d="M 730.914062 365.207031 L 713.535156 366.261719 L 711.496094 367.214844 L 711.492188 367.25 L 710.699219 381.628906 C 721.683594 379.890625 730.914062 365.207031 730.914062 365.207031 Z M 730.914062 365.207031 "/><path style=" stroke:none;fill-rule:nonzero;fill:#f5987c;fill-opacity:1;" d="M 738.636719 359.246094 C 738.636719 359.246094 722.8125 375.90625 711.539062 374.617188 C 700.265625 373.328125 698.816406 333.753906 708.273438 324.984375 C 717.734375 316.214844 742.921875 328.0625 742.921875 328.0625 Z M 738.636719 359.246094 "/><path style=" stroke:none;fill-rule:nonzero;fill:#1c3144;fill-opacity:1;" d="M 720.433594 337.121094 C 720.433594 337.121094 704.277344 344.625 699.984375 334.171875 C 695.6875 323.71875 716.558594 307.046875 734.742188 320.253906 C 734.714844 320.304688 746.417969 320.65625 749.128906 329.8125 C 752.417969 340.921875 748.058594 355.050781 734.980469 363.023438 C 734.980469 363.023438 732.113281 359.179688 729.847656 355.621094 C 726.617188 350.546875 722.90625 345.09375 723.878906 348.464844 Z M 720.433594 337.121094 "/><path style=" stroke:none;fill-rule:nonzero;fill:#f5987c;fill-opacity:1;" d="M 732.851562 350.152344 C 732.644531 350.726562 732.410156 351.285156 732.148438 351.828125 C 731.882812 352.367188 731.597656 352.882812 731.285156 353.371094 C 730.972656 353.859375 730.644531 354.308594 730.296875 354.722656 C 729.949219 355.140625 729.589844 355.511719 729.222656 355.835938 C 728.851562 356.164062 728.476562 356.4375 728.097656 356.664062 C 727.71875 356.886719 727.34375 357.058594 726.972656 357.171875 C 726.601562 357.289062 726.238281 357.347656 725.886719 357.347656 C 725.535156 357.347656 725.199219 357.292969 724.882812 357.179688 C 724.5625 357.066406 724.269531 356.898438 723.996094 356.675781 C 723.726562 356.453125 723.480469 356.179688 723.265625 355.851562 C 723.050781 355.527344 722.871094 355.160156 722.71875 354.746094 C 722.570312 354.332031 722.453125 353.882812 722.375 353.394531 C 722.296875 352.910156 722.253906 352.394531 722.246094 351.855469 C 722.242188 351.316406 722.273438 350.757812 722.339844 350.183594 C 722.40625 349.609375 722.511719 349.027344 722.652344 348.441406 C 722.789062 347.855469 722.960938 347.277344 723.167969 346.703125 C 723.375 346.128906 723.609375 345.570312 723.871094 345.027344 C 724.132812 344.488281 724.421875 343.972656 724.734375 343.484375 C 725.042969 342.996094 725.375 342.546875 725.722656 342.128906 C 726.070312 341.714844 726.429688 341.34375 726.796875 341.019531 C 727.167969 340.691406 727.542969 340.417969 727.921875 340.191406 C 728.296875 339.96875 728.675781 339.796875 729.046875 339.679688 C 729.417969 339.566406 729.78125 339.507812 730.132812 339.507812 C 730.484375 339.507812 730.820312 339.5625 731.136719 339.675781 C 731.457031 339.789062 731.75 339.957031 732.023438 340.179688 C 732.292969 340.402344 732.535156 340.675781 732.753906 341.003906 C 732.96875 341.328125 733.148438 341.695312 733.300781 342.109375 C 733.449219 342.523438 733.566406 342.972656 733.644531 343.460938 C 733.722656 343.945312 733.765625 344.460938 733.773438 345 C 733.777344 345.539062 733.746094 346.097656 733.679688 346.671875 C 733.613281 347.246094 733.507812 347.828125 733.367188 348.414062 C 733.230469 349 733.054688 349.578125 732.851562 350.152344 Z M 732.851562 350.152344 "/><path style=" stroke:none;fill-rule:nonzero;fill:#f9f9f9;fill-opacity:1;" d="M 117.636719 52.023438 L 327.683594 52.023438 L 327.683594 183.652344 L 117.636719 183.652344 Z M 117.636719 52.023438 "/><path style=" stroke:none;fill-rule:nonzero;fill:#376187;fill-opacity:1;" d="M 117.636719 52.023438 L 117.636719 65.421875 L 327.683594 65.421875 L 327.683594 52.023438 Z M 117.636719 52.023438 "/><path style=" stroke:none;fill-rule:nonzero;fill:#1c3144;fill-opacity:1;" d="M 116.980469 51.363281 L 116.980469 184.308594 L 328.339844 184.308594 L 328.339844 51.363281 Z M 118.292969 52.683594 L 327.027344 52.683594 L 327.027344 182.992188 L 118.292969 182.992188 Z M 118.292969 52.683594 "/><path style=" stroke:none;fill-rule:nonzero;fill:#3f88c5;fill-opacity:1;" d="M 440.253906 485.386719 C 438.613281 485.535156 436.902344 485.851562 435.105469 486.355469 C 427.878906 488.382812 423.023438 492.886719 419.5625 498.40625 C 416.101562 503.929688 413.96875 510.472656 411.984375 516.820312 C 410.003906 523.164062 408.160156 529.320312 405.445312 534.023438 C 402.730469 538.730469 399.28125 541.957031 393.777344 542.875 C 388.246094 543.796875 384.011719 542.0625 380.191406 538.886719 C 376.371094 535.707031 373.0625 531.050781 369.808594 526.332031 C 366.550781 521.617188 363.34375 516.847656 359.503906 513.453125 C 355.667969 510.0625 351.050781 508.078125 345.457031 509.246094 C 334.441406 511.550781 327.210938 521.523438 322.695312 530.738281 C 318.179688 539.953125 316.328125 548.601562 316.328125 548.601562 L 318.472656 549.0625 C 318.472656 549.0625 320.28125 540.644531 324.664062 531.703125 C 329.046875 522.761719 335.957031 513.476562 345.90625 511.394531 C 350.796875 510.371094 354.527344 511.984375 358.050781 515.09375 C 361.574219 518.207031 364.738281 522.851562 368.003906 527.578125 C 371.269531 532.308594 374.636719 537.125 378.785156 540.574219 C 382.933594 544.023438 387.964844 546.066406 394.136719 545.039062 C 400.335938 544.003906 404.4375 540.164062 407.347656 535.117188 C 410.257812 530.074219 412.105469 523.800781 414.082031 517.472656 C 416.058594 511.144531 418.164062 504.773438 421.421875 499.570312 C 424.683594 494.367188 429.03125 490.339844 435.699219 488.46875 C 442.414062 486.585938 447.558594 487.476562 452.382812 489.855469 C 457.210938 492.230469 461.6875 496.164062 466.6875 500.339844 C 476.695312 508.695312 488.945312 517.9375 510.621094 516.695312 L 510.496094 514.507812 C 489.476562 515.710938 478.042969 506.960938 468.09375 498.65625 C 463.121094 494.503906 458.550781 490.445312 453.351562 487.886719 C 449.453125 485.964844 445.175781 484.933594 440.253906 485.386719 Z M 440.253906 485.386719 "/><path style=" stroke:none;fill-rule:nonzero;fill:#2e5171;fill-opacity:1;" d="M 353.972656 510.566406 C 353.972656 510.917969 353.9375 511.265625 353.867188 511.613281 C 353.800781 511.957031 353.699219 512.292969 353.5625 512.617188 C 353.429688 512.941406 353.261719 513.25 353.066406 513.542969 C 352.871094 513.835938 352.648438 514.109375 352.402344 514.355469 C 352.152344 514.605469 351.878906 514.828125 351.585938 515.023438 C 351.292969 515.21875 350.984375 515.382812 350.660156 515.519531 C 350.335938 515.652344 350 515.753906 349.652344 515.824219 C 349.308594 515.894531 348.960938 515.925781 348.609375 515.925781 C 348.253906 515.925781 347.90625 515.894531 347.5625 515.824219 C 347.214844 515.753906 346.878906 515.652344 346.554688 515.519531 C 346.230469 515.382812 345.921875 515.21875 345.628906 515.023438 C 345.335938 514.828125 345.0625 514.605469 344.816406 514.355469 C 344.566406 514.109375 344.34375 513.835938 344.148438 513.542969 C 343.953125 513.25 343.785156 512.941406 343.652344 512.617188 C 343.515625 512.292969 343.414062 511.957031 343.347656 511.613281 C 343.277344 511.265625 343.242188 510.917969 343.242188 510.566406 C 343.242188 510.214844 343.277344 509.863281 343.347656 509.519531 C 343.414062 509.175781 343.515625 508.839844 343.652344 508.511719 C 343.785156 508.1875 343.953125 507.878906 344.148438 507.585938 C 344.34375 507.292969 344.566406 507.023438 344.816406 506.773438 C 345.0625 506.523438 345.335938 506.304688 345.628906 506.105469 C 345.921875 505.910156 346.230469 505.746094 346.554688 505.613281 C 346.878906 505.476562 347.214844 505.375 347.5625 505.304688 C 347.90625 505.238281 348.253906 505.203125 348.609375 505.203125 C 348.960938 505.203125 349.308594 505.238281 349.652344 505.304688 C 350 505.375 350.335938 505.476562 350.660156 505.613281 C 350.984375 505.746094 351.296875 505.910156 351.585938 506.105469 C 351.878906 506.304688 352.152344 506.523438 352.402344 506.773438 C 352.648438 507.023438 352.871094 507.292969 353.066406 507.585938 C 353.261719 507.878906 353.429688 508.1875 353.5625 508.511719 C 353.699219 508.839844 353.800781 509.175781 353.867188 509.519531 C 353.9375 509.863281 353.972656 510.214844 353.972656 510.566406 Z M 353.972656 510.566406 "/><path style=" stroke:none;fill-rule:nonzero;fill:#2e5171;fill-opacity:1;" d="M 395.90625 543.226562 C 395.90625 543.578125 395.871094 543.925781 395.804688 544.269531 C 395.734375 544.617188 395.632812 544.953125 395.496094 545.277344 C 395.363281 545.601562 395.199219 545.910156 395 546.203125 C 394.804688 546.496094 394.582031 546.765625 394.335938 547.015625 C 394.085938 547.265625 393.816406 547.488281 393.523438 547.683594 C 393.230469 547.878906 392.921875 548.042969 392.59375 548.179688 C 392.269531 548.3125 391.933594 548.414062 391.589844 548.484375 C 391.242188 548.550781 390.894531 548.585938 390.542969 548.585938 C 390.191406 548.585938 389.839844 548.550781 389.496094 548.484375 C 389.148438 548.414062 388.816406 548.3125 388.488281 548.179688 C 388.164062 548.042969 387.855469 547.878906 387.5625 547.683594 C 387.269531 547.488281 387 547.265625 386.75 547.015625 C 386.5 546.765625 386.277344 546.496094 386.082031 546.203125 C 385.886719 545.910156 385.722656 545.601562 385.585938 545.277344 C 385.453125 544.953125 385.351562 544.617188 385.28125 544.269531 C 385.210938 543.925781 385.179688 543.578125 385.179688 543.226562 C 385.179688 542.871094 385.210938 542.523438 385.28125 542.179688 C 385.351562 541.832031 385.453125 541.5 385.585938 541.171875 C 385.722656 540.847656 385.886719 540.539062 386.082031 540.246094 C 386.277344 539.953125 386.5 539.683594 386.75 539.433594 C 387 539.183594 387.269531 538.960938 387.5625 538.765625 C 387.855469 538.570312 388.164062 538.40625 388.488281 538.269531 C 388.816406 538.136719 389.148438 538.035156 389.496094 537.964844 C 389.839844 537.898438 390.191406 537.863281 390.542969 537.863281 C 390.894531 537.863281 391.242188 537.898438 391.589844 537.964844 C 391.933594 538.035156 392.269531 538.136719 392.59375 538.269531 C 392.921875 538.40625 393.230469 538.570312 393.523438 538.765625 C 393.816406 538.960938 394.085938 539.183594 394.335938 539.433594 C 394.585938 539.683594 394.804688 539.953125 395.003906 540.246094 C 395.199219 540.539062 395.363281 540.847656 395.496094 541.171875 C 395.632812 541.5 395.734375 541.832031 395.804688 542.179688 C 395.871094 542.523438 395.90625 542.871094 395.90625 543.226562 Z M 395.90625 543.226562 "/><path style=" stroke:none;fill-rule:nonzero;fill:#2e5171;fill-opacity:1;" d="M 447.347656 486.4375 C 447.347656 486.789062 447.3125 487.136719 447.246094 487.484375 C 447.175781 487.828125 447.074219 488.164062 446.941406 488.488281 C 446.804688 488.8125 446.640625 489.121094 446.445312 489.414062 C 446.25 489.707031 446.027344 489.980469 445.777344 490.226562 C 445.527344 490.476562 445.257812 490.699219 444.964844 490.894531 C 444.671875 491.089844 444.363281 491.253906 444.039062 491.390625 C 443.710938 491.523438 443.375 491.628906 443.03125 491.695312 C 442.6875 491.765625 442.335938 491.796875 441.984375 491.796875 C 441.632812 491.796875 441.285156 491.765625 440.9375 491.695312 C 440.59375 491.628906 440.257812 491.523438 439.933594 491.390625 C 439.605469 491.253906 439.296875 491.089844 439.003906 490.894531 C 438.710938 490.699219 438.441406 490.476562 438.191406 490.226562 C 437.941406 489.980469 437.71875 489.707031 437.523438 489.414062 C 437.328125 489.121094 437.164062 488.8125 437.027344 488.488281 C 436.894531 488.164062 436.792969 487.828125 436.722656 487.484375 C 436.65625 487.136719 436.621094 486.789062 436.621094 486.4375 C 436.621094 486.085938 436.65625 485.734375 436.722656 485.390625 C 436.792969 485.046875 436.894531 484.710938 437.027344 484.386719 C 437.164062 484.058594 437.328125 483.75 437.523438 483.457031 C 437.71875 483.164062 437.941406 482.894531 438.191406 482.644531 C 438.441406 482.394531 438.710938 482.175781 439.003906 481.976562 C 439.296875 481.78125 439.605469 481.617188 439.933594 481.484375 C 440.257812 481.347656 440.59375 481.246094 440.9375 481.179688 C 441.285156 481.109375 441.632812 481.074219 441.984375 481.074219 C 442.335938 481.074219 442.6875 481.109375 443.03125 481.179688 C 443.375 481.246094 443.710938 481.347656 444.039062 481.484375 C 444.363281 481.617188 444.671875 481.78125 444.964844 481.976562 C 445.257812 482.175781 445.527344 482.394531 445.777344 482.644531 C 446.027344 482.894531 446.25 483.164062 446.445312 483.457031 C 446.640625 483.75 446.804688 484.058594 446.941406 484.386719 C 447.074219 484.710938 447.175781 485.046875 447.246094 485.390625 C 447.3125 485.734375 447.347656 486.085938 447.347656 486.4375 Z M 447.347656 486.4375 "/><path style=" stroke:none;fill-rule:nonzero;fill:#2e5171;fill-opacity:1;" d="M 494.40625 512.027344 C 494.40625 512.378906 494.371094 512.730469 494.300781 513.074219 C 494.234375 513.417969 494.132812 513.753906 493.996094 514.078125 C 493.863281 514.40625 493.695312 514.714844 493.5 515.007812 C 493.304688 515.300781 493.082031 515.570312 492.832031 515.820312 C 492.585938 516.066406 492.3125 516.289062 492.019531 516.484375 C 491.726562 516.683594 491.417969 516.847656 491.09375 516.980469 C 490.769531 517.117188 490.433594 517.21875 490.085938 517.285156 C 489.742188 517.355469 489.394531 517.390625 489.039062 517.390625 C 488.6875 517.390625 488.339844 517.355469 487.996094 517.285156 C 487.648438 517.21875 487.3125 517.117188 486.988281 516.980469 C 486.664062 516.847656 486.355469 516.683594 486.0625 516.484375 C 485.769531 516.289062 485.496094 516.066406 485.25 515.820312 C 485 515.570312 484.777344 515.300781 484.582031 515.007812 C 484.386719 514.714844 484.21875 514.40625 484.085938 514.078125 C 483.949219 513.753906 483.847656 513.417969 483.78125 513.074219 C 483.710938 512.730469 483.675781 512.378906 483.675781 512.027344 C 483.675781 511.675781 483.710938 511.328125 483.78125 510.980469 C 483.847656 510.636719 483.949219 510.300781 484.085938 509.976562 C 484.21875 509.652344 484.386719 509.339844 484.582031 509.050781 C 484.777344 508.757812 485 508.484375 485.246094 508.238281 C 485.496094 507.988281 485.769531 507.765625 486.0625 507.570312 C 486.355469 507.375 486.664062 507.207031 486.988281 507.074219 C 487.3125 506.9375 487.648438 506.835938 487.996094 506.769531 C 488.339844 506.699219 488.6875 506.664062 489.039062 506.664062 C 489.394531 506.664062 489.742188 506.699219 490.085938 506.769531 C 490.433594 506.835938 490.769531 506.9375 491.09375 507.074219 C 491.417969 507.207031 491.726562 507.375 492.019531 507.570312 C 492.3125 507.765625 492.585938 507.988281 492.832031 508.238281 C 493.082031 508.484375 493.304688 508.757812 493.5 509.050781 C 493.695312 509.339844 493.863281 509.652344 493.996094 509.976562 C 494.132812 510.300781 494.234375 510.636719 494.300781 510.980469 C 494.371094 511.328125 494.40625 511.675781 494.40625 512.027344 Z M 494.40625 512.027344 "/><path style=" stroke:none;fill-rule:nonzero;fill:#3f88c5;fill-opacity:1;" d="M 149.332031 118.75 L 168.441406 118.75 L 168.441406 166.949219 L 149.332031 166.949219 Z M 149.332031 118.75 "/><path style=" stroke:none;fill-rule:nonzero;fill:#ffab00;fill-opacity:1;" d="M 191.847656 101.90625 L 210.957031 101.90625 L 210.957031 166.949219 L 191.847656 166.949219 Z M 191.847656 101.90625 "/><path style=" stroke:none;fill-rule:nonzero;fill:#3f88c5;fill-opacity:1;" d="M 234.359375 92.816406 L 253.472656 92.816406 L 253.472656 166.949219 L 234.359375 166.949219 Z M 234.359375 92.816406 "/><path style=" stroke:none;fill-rule:nonzero;fill:#ffab00;fill-opacity:1;" d="M 276.875 82.941406 L 295.988281 82.941406 L 295.988281 166.949219 L 276.875 166.949219 Z M 276.875 82.941406 "/><path style=" stroke:none;fill-rule:nonzero;fill:#376187;fill-opacity:1;" d="M 140.300781 166.800781 L 140.300781 168.117188 L 305.015625 168.117188 L 305.015625 166.800781 Z M 140.300781 166.800781 "/><path style=" stroke:none;fill-rule:nonzero;fill:#f9f9f9;fill-opacity:1;" d="M 314.171875 58.304688 C 314.171875 58.644531 314.105469 58.976562 313.972656 59.289062 C 313.84375 59.605469 313.65625 59.886719 313.414062 60.128906 C 313.171875 60.371094 312.894531 60.554688 312.578125 60.6875 C 312.261719 60.816406 311.933594 60.882812 311.589844 60.882812 C 311.246094 60.882812 310.917969 60.816406 310.601562 60.6875 C 310.285156 60.554688 310.007812 60.371094 309.765625 60.128906 C 309.523438 59.886719 309.335938 59.605469 309.207031 59.289062 C 309.074219 58.976562 309.007812 58.644531 309.007812 58.304688 C 309.007812 57.960938 309.074219 57.632812 309.207031 57.316406 C 309.335938 57 309.523438 56.722656 309.765625 56.480469 C 310.007812 56.238281 310.285156 56.050781 310.601562 55.921875 C 310.917969 55.789062 311.246094 55.722656 311.589844 55.722656 C 311.933594 55.722656 312.261719 55.789062 312.578125 55.921875 C 312.894531 56.050781 313.171875 56.238281 313.414062 56.480469 C 313.65625 56.722656 313.84375 57 313.972656 57.316406 C 314.105469 57.632812 314.171875 57.960938 314.171875 58.304688 Z M 314.171875 58.304688 "/><path style=" stroke:none;fill-rule:nonzero;fill:#f9f9f9;fill-opacity:1;" d="M 323.851562 58.304688 C 323.851562 58.644531 323.789062 58.976562 323.65625 59.289062 C 323.527344 59.605469 323.339844 59.886719 323.097656 60.128906 C 322.855469 60.371094 322.578125 60.554688 322.261719 60.6875 C 321.945312 60.816406 321.613281 60.882812 321.273438 60.882812 C 320.929688 60.882812 320.601562 60.816406 320.285156 60.6875 C 319.96875 60.554688 319.691406 60.371094 319.449219 60.128906 C 319.207031 59.886719 319.019531 59.605469 318.886719 59.289062 C 318.757812 58.976562 318.691406 58.644531 318.691406 58.304688 C 318.691406 57.960938 318.757812 57.632812 318.886719 57.316406 C 319.019531 57 319.207031 56.722656 319.449219 56.480469 C 319.691406 56.238281 319.96875 56.050781 320.285156 55.921875 C 320.601562 55.789062 320.929688 55.722656 321.273438 55.722656 C 321.613281 55.722656 321.945312 55.789062 322.261719 55.921875 C 322.578125 56.050781 322.855469 56.238281 323.097656 56.480469 C 323.339844 56.722656 323.527344 57 323.65625 57.316406 C 323.789062 57.632812 323.851562 57.960938 323.851562 58.304688 Z M 323.851562 58.304688 "/><path style=" stroke:none;fill-rule:nonzero;fill:#f9f9f9;fill-opacity:1;" d="M 304.488281 58.304688 C 304.488281 58.644531 304.421875 58.976562 304.292969 59.289062 C 304.160156 59.605469 303.972656 59.886719 303.730469 60.128906 C 303.492188 60.371094 303.210938 60.554688 302.894531 60.6875 C 302.578125 60.816406 302.25 60.882812 301.90625 60.882812 C 301.566406 60.882812 301.238281 60.816406 300.921875 60.6875 C 300.605469 60.554688 300.324219 60.371094 300.082031 60.128906 C 299.839844 59.886719 299.65625 59.605469 299.523438 59.289062 C 299.394531 58.976562 299.328125 58.644531 299.328125 58.304688 C 299.328125 57.960938 299.394531 57.632812 299.523438 57.316406 C 299.65625 57 299.839844 56.722656 300.082031 56.480469 C 300.324219 56.238281 300.605469 56.050781 300.921875 55.921875 C 301.238281 55.789062 301.566406 55.722656 301.90625 55.722656 C 302.25 55.722656 302.578125 55.789062 302.894531 55.921875 C 303.210938 56.050781 303.492188 56.238281 303.730469 56.480469 C 303.972656 56.722656 304.160156 57 304.292969 57.316406 C 304.421875 57.632812 304.488281 57.960938 304.488281 58.304688 Z M 304.488281 58.304688 "/><path style=" stroke:none;fill-rule:nonzero;fill:#2e5171;fill-opacity:1;" d="M 348.609375 511.445312 C 348.425781 511.445312 348.269531 511.511719 348.144531 511.636719 C 348.015625 511.765625 347.949219 511.921875 347.949219 512.101562 L 347.949219 567.039062 C 347.949219 567.222656 348.011719 567.378906 348.140625 567.507812 C 348.269531 567.636719 348.425781 567.703125 348.609375 567.703125 C 348.789062 567.703125 348.945312 567.636719 349.074219 567.507812 C 349.203125 567.378906 349.265625 567.222656 349.265625 567.039062 L 349.265625 512.101562 C 349.265625 511.921875 349.199219 511.765625 349.074219 511.640625 C 348.945312 511.511719 348.789062 511.445312 348.609375 511.445312 Z M 348.609375 511.445312 "/><path style=" stroke:none;fill-rule:nonzero;fill:#2e5171;fill-opacity:1;" d="M 390.542969 541.285156 C 390.363281 541.285156 390.207031 541.347656 390.078125 541.476562 C 389.949219 541.605469 389.882812 541.761719 389.882812 541.941406 L 389.882812 567.039062 C 389.882812 567.222656 389.945312 567.378906 390.074219 567.507812 C 390.203125 567.636719 390.359375 567.703125 390.542969 567.703125 C 390.726562 567.703125 390.882812 567.636719 391.007812 567.507812 C 391.136719 567.378906 391.203125 567.222656 391.203125 567.039062 L 391.203125 541.941406 C 391.203125 541.761719 391.136719 541.605469 391.007812 541.476562 C 390.878906 541.351562 390.726562 541.285156 390.542969 541.285156 Z M 390.542969 541.285156 "/><path style=" stroke:none;fill-rule:nonzero;fill:#2e5171;fill-opacity:1;" d="M 441.984375 488.019531 C 441.800781 488.019531 441.648438 488.082031 441.519531 488.210938 C 441.390625 488.339844 441.328125 488.496094 441.328125 488.679688 L 441.328125 567.039062 C 441.328125 567.222656 441.390625 567.378906 441.519531 567.507812 C 441.648438 567.636719 441.800781 567.703125 441.984375 567.703125 C 442.167969 567.703125 442.320312 567.636719 442.449219 567.507812 C 442.578125 567.378906 442.644531 567.222656 442.640625 567.039062 L 442.640625 488.679688 C 442.644531 488.496094 442.578125 488.339844 442.449219 488.210938 C 442.320312 488.082031 442.167969 488.019531 441.984375 488.019531 Z M 441.984375 488.019531 "/><path style=" stroke:none;fill-rule:nonzero;fill:#2e5171;fill-opacity:1;" d="M 489.039062 511.445312 C 488.859375 511.445312 488.703125 511.511719 488.574219 511.636719 C 488.445312 511.765625 488.382812 511.921875 488.382812 512.101562 L 488.382812 567.039062 C 488.378906 567.222656 488.445312 567.378906 488.574219 567.507812 C 488.703125 567.636719 488.855469 567.703125 489.039062 567.703125 C 489.222656 567.703125 489.378906 567.636719 489.507812 567.507812 C 489.636719 567.378906 489.699219 567.222656 489.699219 567.039062 L 489.699219 512.101562 C 489.699219 511.921875 489.636719 511.765625 489.507812 511.636719 C 489.378906 511.507812 489.222656 511.445312 489.039062 511.445312 Z M 489.039062 511.445312 "/></g></svg>