<svg xmlns="http://www.w3.org/2000/svg" xmlns:xlink="http://www.w3.org/1999/xlink" width="1080" zoomAndPan="magnify" viewBox="0 0 810 809.999993" height="1080" preserveAspectRatio="xMidYMid meet" version="1.2"><defs><clipPath id="7683f7425f"><path d="M 282 60.242188 L 810 60.242188 L 810 588 L 282 588 Z M 282 60.242188 "/></clipPath></defs><g id="9b4baa6c23"><path style=" stroke:none;fill-rule:evenodd;fill:#ff695a;fill-opacity:1;" d="M 56.210938 539.007812 C 60.867188 536.332031 66.816406 537.902344 69.488281 542.554688 C 72.207031 547.210938 70.59375 553.15625 65.9375 555.832031 L 42.976562 569.105469 C 38.320312 571.824219 32.371094 570.210938 29.652344 565.554688 C 26.980469 560.945312 28.546875 554.953125 33.203125 552.28125 Z M 56.210938 539.007812 "/><path style=" stroke:none;fill-rule:evenodd;fill:#ff695a;fill-opacity:1;" d="M 236.484375 264.6875 C 236.484375 270.035156 232.105469 274.414062 226.710938 274.414062 C 221.316406 274.414062 216.980469 270.035156 216.980469 264.6875 L 216.980469 238.140625 C 216.980469 232.746094 221.316406 228.371094 226.710938 228.371094 C 232.105469 228.371094 236.484375 232.746094 236.484375 238.140625 Z M 236.484375 264.6875 "/><path style=" stroke:none;fill-rule:evenodd;fill:#ff695a;fill-opacity:1;" d="M 140.351562 284.550781 C 143.074219 289.207031 141.460938 295.152344 136.800781 297.871094 C 132.144531 300.542969 126.199219 298.976562 123.523438 294.324219 L 110.246094 271.324219 C 107.523438 266.667969 109.136719 260.722656 113.796875 258.003906 C 118.453125 255.332031 124.398438 256.898438 127.074219 261.554688 Z M 140.351562 284.550781 "/><path style=" stroke:none;fill-rule:evenodd;fill:#ff695a;fill-opacity:1;" d="M 67.089844 349.8125 C 71.75 352.488281 73.316406 358.433594 70.6875 363.089844 C 68.011719 367.742188 62.066406 369.355469 57.410156 366.683594 L 34.402344 353.410156 C 29.746094 350.734375 28.132812 344.789062 30.804688 340.136719 C 33.480469 335.480469 39.429688 333.867188 44.085938 336.539062 Z M 67.089844 349.8125 "/><path style=" stroke:none;fill-rule:evenodd;fill:#ff695a;fill-opacity:1;" d="M 36.292969 442.914062 C 41.6875 442.914062 46.066406 447.292969 46.066406 452.683594 C 46.066406 458.074219 41.6875 462.453125 36.292969 462.453125 L 9.734375 462.453125 C 4.386719 462.453125 0.0078125 458.078125 0.0078125 452.683594 C 0.0078125 447.289062 4.386719 442.914062 9.734375 442.914062 Z M 36.292969 442.914062 "/><path style=" stroke:none;fill-rule:evenodd;fill:#2e3760;fill-opacity:1;" d="M 271.339844 686.214844 L 179.773438 686.214844 C 165.019531 686.214844 152.941406 674.09375 152.941406 659.34375 L 152.941406 630.492188 L 298.175781 630.492188 L 298.175781 659.34375 C 298.175781 674.09375 286.09375 686.214844 271.339844 686.214844 Z M 271.339844 686.214844 "/><path style=" stroke:none;fill-rule:evenodd;fill:#2e3760;fill-opacity:1;" d="M 176.179688 711.792969 L 176.179688 705.570312 C 177.378906 705.664062 178.574219 705.707031 179.773438 705.707031 L 271.339844 705.707031 C 272.539062 705.707031 273.738281 705.664062 274.9375 705.570312 L 274.9375 711.792969 C 274.9375 749.585938 176.179688 749.585938 176.179688 711.792969 Z M 176.179688 711.792969 "/><path style=" stroke:none;fill-rule:evenodd;fill:#ff695a;fill-opacity:1;" d="M 298.175781 610.996094 C 309.515625 582.144531 325.054688 560.484375 344.925781 528.957031 C 358.664062 507.203125 366.59375 481.441406 366.59375 453.835938 C 366.59375 375.992188 303.429688 312.847656 225.558594 312.847656 C 147.683594 312.847656 84.519531 375.988281 84.519531 453.835938 C 84.519531 481.441406 92.449219 507.203125 106.191406 528.957031 C 126.0625 560.484375 141.554688 582.144531 152.941406 610.996094 L 188.074219 610.996094 L 188.074219 492.78125 L 167.601562 492.78125 C 132.101562 492.78125 114.214844 449.644531 139.339844 424.523438 C 164.46875 399.40625 207.625 417.289062 207.625 452.777344 L 207.625 473.238281 L 243.492188 473.238281 L 243.492188 452.777344 C 243.492188 417.289062 286.648438 399.40625 311.773438 424.523438 C 336.902344 449.644531 319.011719 492.78125 283.511719 492.78125 L 263.042969 492.78125 L 263.042969 610.996094 Z M 298.175781 610.996094 "/><path style=" stroke:none;fill-rule:nonzero;fill:#ff695a;fill-opacity:1;" d="M 207.621094 492.78125 L 243.492188 492.78125 L 243.492188 610.996094 L 207.621094 610.996094 Z M 207.621094 492.78125 "/><path style=" stroke:none;fill-rule:evenodd;fill:#ff695a;fill-opacity:1;" d="M 263.039062 452.777344 L 263.039062 473.238281 L 283.511719 473.238281 C 301.675781 473.238281 310.851562 451.164062 297.988281 438.304688 C 285.125 425.445312 263.039062 434.617188 263.039062 452.777344 Z M 263.039062 452.777344 "/><path style=" stroke:none;fill-rule:evenodd;fill:#ff695a;fill-opacity:1;" d="M 167.601562 473.238281 L 188.074219 473.238281 L 188.074219 452.777344 C 188.074219 434.617188 165.988281 425.445312 153.125 438.304688 C 140.261719 451.164062 149.433594 473.238281 167.601562 473.238281 Z M 167.601562 473.238281 "/><path style=" stroke:none;fill-rule:evenodd;fill:#ff695a;fill-opacity:1;" d="M 634.375 235.882812 C 585.640625 187.167969 506.617188 187.167969 457.882812 235.882812 C 409.148438 284.597656 409.148438 363.550781 457.882812 412.308594 C 506.617188 461.027344 585.640625 461.027344 634.375 412.308594 C 683.109375 363.546875 683.109375 284.597656 634.375 235.882812 Z M 629.394531 309.71875 C 626.121094 319.074219 612.519531 318.015625 610.632812 308.335938 L 558.851562 360.09375 C 555.027344 363.917969 548.851562 363.917969 545.066406 360.09375 L 516.988281 332.070312 L 467.378906 381.664062 C 463.550781 385.488281 457.375 385.488281 453.546875 381.664062 C 449.765625 377.882812 449.765625 371.707031 453.546875 367.882812 L 510.117188 311.375 C 513.898438 307.550781 520.078125 307.550781 523.902344 311.375 L 551.933594 339.398438 L 597.394531 293.957031 C 587.066406 292.894531 585.410156 278.242188 595.414062 275.015625 L 628.195312 264.324219 C 636.445312 261.328125 644.054688 268.929688 640.734375 277.320312 L 629.390625 309.71875 Z M 629.394531 309.71875 "/><g clip-rule="nonzero" clip-path="url(#7683f7425f)"><path style=" stroke:none;fill-rule:evenodd;fill:#2e3760;fill-opacity:1;" d="M 791.320312 270.679688 L 765.132812 270.679688 C 759.738281 248.511719 750.976562 227.035156 738.804688 207.03125 L 757.246094 188.550781 C 764.53125 181.269531 764.53125 169.378906 757.246094 162.097656 L 708.144531 113.011719 C 700.90625 105.777344 689.011719 105.777344 681.726562 113.011719 L 663.238281 131.492188 C 643.226562 119.328125 621.699219 110.570312 599.566406 105.175781 L 599.566406 79 C 599.566406 68.722656 591.128906 60.332031 580.847656 60.332031 L 511.414062 60.332031 C 501.132812 60.332031 492.742188 68.722656 492.742188 79 L 492.742188 105.175781 C 470.5625 110.523438 449.035156 119.324219 429.023438 131.492188 L 410.535156 113.011719 C 403.25 105.777344 391.402344 105.777344 384.117188 113.011719 L 335.015625 162.097656 C 327.730469 169.378906 327.730469 181.269531 335.015625 188.550781 L 353.503906 207.03125 C 341.285156 227.035156 332.527344 248.511719 327.132812 270.679688 L 300.988281 270.679688 C 290.660156 270.679688 282.269531 279.066406 282.269531 289.394531 L 282.269531 303.679688 C 369.546875 336.632812 410.765625 437.289062 370.976562 522 L 384.117188 535.136719 C 391.402344 542.417969 403.25 542.417969 410.535156 535.136719 L 429.023438 516.652344 C 449.035156 528.867188 470.5625 537.625 492.742188 543.015625 L 492.742188 569.148438 C 492.742188 579.425781 501.132812 587.863281 511.414062 587.863281 L 580.847656 587.863281 C 591.128906 587.863281 599.566406 579.472656 599.566406 569.148438 L 599.566406 543.015625 C 621.699219 537.625 643.230469 528.820312 663.238281 516.652344 L 681.726562 535.136719 C 689.011719 542.417969 700.90625 542.417969 708.144531 535.136719 L 732.71875 510.570312 L 757.246094 486.050781 C 764.53125 478.769531 764.53125 466.878906 757.246094 459.644531 L 738.757812 441.160156 C 750.976562 421.113281 759.734375 399.636719 765.132812 377.46875 L 791.320312 377.46875 C 801.601562 377.46875 809.992188 369.078125 809.992188 358.800781 L 809.992188 289.394531 C 809.992188 279.066406 801.601562 270.679688 791.320312 270.679688 Z M 648.160156 426.089844 C 591.820312 482.410156 500.441406 482.410156 444.097656 426.089844 C 387.710938 369.769531 387.710938 278.421875 444.097656 222.054688 C 500.441406 165.738281 591.820312 165.738281 648.160156 222.054688 C 704.546875 278.421875 704.546875 369.769531 648.160156 426.089844 Z M 648.160156 426.089844 "/></g></g></svg>