<svg xmlns="http://www.w3.org/2000/svg" xmlns:xlink="http://www.w3.org/1999/xlink" width="1080" zoomAndPan="magnify" viewBox="0 0 810 809.999993" height="1080" preserveAspectRatio="xMidYMid meet" version="1.2"><g id="ba24ed634e"><path style=" stroke:none;fill-rule:nonzero;fill:#333652;fill-opacity:1;" d="M 13.144531 461.222656 C 13.542969 461.222656 13.941406 461.199219 14.335938 461.152344 C 15 461.074219 15.652344 460.933594 16.292969 460.730469 C 16.929688 460.523438 17.542969 460.257812 18.128906 459.933594 C 18.714844 459.605469 19.261719 459.226562 19.773438 458.792969 C 20.285156 458.355469 20.75 457.878906 21.164062 457.351562 C 21.582031 456.824219 21.941406 456.265625 22.25 455.667969 C 22.554688 455.070312 22.800781 454.449219 22.980469 453.804688 C 23.164062 453.160156 23.285156 452.503906 23.339844 451.835938 C 23.390625 451.167969 23.378906 450.5 23.304688 449.835938 C 21.574219 434.941406 20.707031 419.996094 20.703125 405 C 20.703125 395.855469 21.027344 386.621094 21.671875 377.554688 C 21.71875 376.886719 21.699219 376.21875 21.613281 375.554688 C 21.53125 374.890625 21.382812 374.238281 21.167969 373.605469 C 20.957031 372.96875 20.683594 372.359375 20.351562 371.777344 C 20.019531 371.199219 19.632812 370.652344 19.195312 370.148438 C 18.753906 369.640625 18.269531 369.183594 17.742188 368.773438 C 17.210938 368.363281 16.648438 368.007812 16.046875 367.710938 C 15.449219 367.410156 14.828125 367.171875 14.179688 366.996094 C 13.535156 366.820312 12.878906 366.707031 12.207031 366.660156 C 11.539062 366.613281 10.875 366.628906 10.210938 366.714844 C 9.546875 366.796875 8.894531 366.945312 8.261719 367.160156 C 7.625 367.371094 7.015625 367.640625 6.433594 367.972656 C 5.851562 368.304688 5.308594 368.691406 4.800781 369.128906 C 4.296875 369.570312 3.835938 370.050781 3.425781 370.582031 C 3.015625 371.109375 2.660156 371.675781 2.359375 372.273438 C 2.0625 372.871094 1.824219 373.496094 1.644531 374.140625 C 1.46875 374.789062 1.355469 375.445312 1.308594 376.113281 C 0.628906 385.660156 0.289062 395.378906 0.289062 405 C 0.285156 420.785156 1.191406 436.515625 3.007812 452.195312 C 3.082031 452.8125 3.207031 453.414062 3.390625 454.007812 C 3.570312 454.601562 3.804688 455.175781 4.089844 455.722656 C 4.378906 456.273438 4.710938 456.792969 5.09375 457.285156 C 5.472656 457.773438 5.894531 458.226562 6.359375 458.636719 C 6.820312 459.050781 7.320312 459.417969 7.847656 459.738281 C 8.378906 460.0625 8.933594 460.332031 9.515625 460.554688 C 10.09375 460.773438 10.6875 460.941406 11.300781 461.054688 C 11.910156 461.164062 12.523438 461.222656 13.144531 461.222656 Z M 13.144531 461.222656 "/><path style=" stroke:none;fill-rule:nonzero;fill:#333652;fill-opacity:1;" d="M 782.324219 516.320312 C 781.6875 516.117188 781.035156 515.972656 780.371094 515.898438 C 779.703125 515.820312 779.039062 515.808594 778.371094 515.863281 C 777.703125 515.914062 777.046875 516.035156 776.402344 516.21875 C 775.757812 516.402344 775.136719 516.644531 774.539062 516.949219 C 773.945312 517.257812 773.382812 517.617188 772.855469 518.03125 C 772.332031 518.449219 771.851562 518.914062 771.417969 519.421875 C 770.984375 519.933594 770.605469 520.480469 770.277344 521.066406 C 769.953125 521.652344 769.683594 522.261719 769.480469 522.902344 C 767.140625 530.144531 764.585938 537.3125 761.816406 544.402344 C 759.050781 551.492188 756.074219 558.496094 752.890625 565.410156 C 749.707031 572.324219 746.320312 579.136719 742.730469 585.851562 C 739.140625 592.5625 735.355469 599.164062 731.371094 605.648438 C 727.386719 612.136719 723.21875 618.5 718.855469 624.738281 C 714.496094 630.976562 709.953125 637.082031 705.226562 643.050781 C 700.503906 649.019531 695.605469 654.839844 690.535156 660.519531 C 685.464844 666.195312 680.230469 671.714844 674.828125 677.082031 C 669.429688 682.449219 663.875 687.648438 658.167969 692.683594 C 652.457031 697.71875 646.605469 702.578125 640.605469 707.265625 C 634.609375 711.953125 628.476562 716.457031 622.210938 720.777344 C 615.941406 725.097656 609.554688 729.230469 603.042969 733.171875 C 596.53125 737.113281 589.90625 740.859375 583.171875 744.40625 C 576.4375 747.953125 569.601562 751.296875 562.667969 754.4375 C 555.734375 757.578125 548.710938 760.507812 541.605469 763.230469 C 534.496094 765.953125 527.3125 768.460938 520.054688 770.757812 C 512.796875 773.054688 505.476562 775.128906 498.097656 776.988281 C 490.714844 778.847656 483.285156 780.488281 475.804688 781.90625 C 468.328125 783.324219 460.8125 784.515625 453.261719 785.488281 C 445.710938 786.457031 438.140625 787.203125 430.546875 787.722656 C 422.953125 788.242188 415.347656 788.535156 407.738281 788.601562 C 400.125 788.667969 392.519531 788.507812 384.914062 788.121094 C 377.3125 787.738281 369.730469 787.125 362.164062 786.289062 C 354.597656 785.453125 347.0625 784.390625 339.5625 783.105469 C 332.058594 781.820312 324.601562 780.3125 317.1875 778.582031 C 309.773438 776.851562 302.417969 774.90625 295.121094 772.738281 C 287.824219 770.570312 280.597656 768.1875 273.445312 765.59375 C 266.289062 762.996094 259.214844 760.1875 252.226562 757.167969 C 245.238281 754.152344 238.347656 750.929688 231.550781 747.5 C 224.753906 744.074219 218.066406 740.445312 211.484375 736.621094 C 204.90625 732.792969 198.445312 728.773438 192.101562 724.5625 C 185.761719 720.355469 179.550781 715.957031 173.472656 711.378906 L 282.394531 631.375 C 283.199219 630.785156 283.902344 630.089844 284.503906 629.292969 C 285.105469 628.492188 285.578125 627.628906 285.925781 626.691406 C 286.273438 625.753906 286.476562 624.789062 286.539062 623.789062 C 286.601562 622.792969 286.519531 621.808594 286.292969 620.835938 C 286.066406 619.863281 285.707031 618.945312 285.210938 618.078125 C 284.714844 617.210938 284.101562 616.433594 283.378906 615.746094 C 282.652344 615.058594 281.847656 614.492188 280.957031 614.042969 C 280.0625 613.589844 279.125 613.277344 278.144531 613.101562 L 193.480469 597.953125 L 300.84375 395.449219 C 303.335938 398.753906 306.0625 401.847656 309.023438 404.734375 C 325.808594 421.015625 348.082031 430.726562 379.113281 435.300781 L 418.808594 441.144531 C 434.730469 443.523438 440.042969 446.878906 443.128906 449.835938 C 448.855469 455.363281 450.058594 464.011719 450.058594 470.292969 C 450.058594 496.417969 423.46875 501.902344 401.160156 501.902344 C 377.507812 501.902344 364.050781 496.929688 342.855469 485.792969 C 330.511719 479.273438 321.890625 475.738281 311.695312 475.738281 C 309.335938 475.671875 306.996094 475.84375 304.671875 476.257812 C 302.351562 476.671875 300.09375 477.320312 297.90625 478.199219 C 295.71875 479.078125 293.640625 480.171875 291.679688 481.480469 C 289.714844 482.792969 287.90625 484.285156 286.253906 485.96875 C 284.421875 487.867188 282.78125 489.921875 281.332031 492.125 C 279.882812 494.332031 278.652344 496.652344 277.636719 499.089844 C 276.621094 501.523438 275.84375 504.035156 275.296875 506.613281 C 274.75 509.195312 274.449219 511.808594 274.390625 514.445312 C 274.390625 541.085938 294.53125 552.832031 313.292969 561.691406 C 321.867188 566.015625 330.753906 569.558594 339.953125 572.316406 C 349.152344 575.070312 358.523438 577.003906 368.0625 578.109375 L 368.0625 587.09375 C 368.0625 599.863281 368.53125 606.742188 372.824219 614.648438 C 378.734375 625.429688 390.289062 631.863281 403.734375 631.863281 C 417.175781 631.863281 428.738281 625.429688 434.667969 614.605469 C 438.9375 606.722656 439.402344 599.847656 439.402344 587.085938 L 439.402344 575.746094 C 498.148438 563.496094 534.242188 523.09375 534.242188 468.648438 C 534.242188 451.328125 531.671875 436.03125 526.53125 422.761719 L 639.734375 209.246094 C 639.921875 208.890625 640.085938 208.527344 640.230469 208.15625 C 640.375 207.78125 640.5 207.402344 640.597656 207.011719 C 640.699219 206.625 640.777344 206.234375 640.828125 205.835938 C 640.882812 205.441406 640.914062 205.042969 640.921875 204.640625 C 640.929688 204.242188 640.910156 203.839844 640.871094 203.441406 C 640.832031 203.042969 640.769531 202.648438 640.679688 202.257812 C 640.59375 201.867188 640.484375 201.484375 640.351562 201.105469 C 640.222656 200.726562 640.066406 200.359375 639.894531 199.996094 C 639.71875 199.636719 639.523438 199.289062 639.304688 198.953125 C 639.089844 198.613281 638.855469 198.292969 638.597656 197.984375 C 638.34375 197.671875 638.074219 197.378906 637.785156 197.101562 C 637.496094 196.824219 637.191406 196.566406 636.871094 196.324219 C 636.550781 196.082031 636.21875 195.859375 635.875 195.660156 C 635.527344 195.457031 635.171875 195.273438 634.804688 195.113281 C 634.4375 194.953125 634.0625 194.816406 633.679688 194.699219 C 633.296875 194.582031 632.910156 194.488281 632.515625 194.417969 L 557.5 180.992188 L 762.929688 30.117188 L 785.847656 283.964844 L 726.117188 236.625 C 725.804688 236.375 725.476562 236.144531 725.136719 235.9375 C 724.796875 235.726562 724.445312 235.535156 724.082031 235.367188 C 723.71875 235.199219 723.34375 235.050781 722.964844 234.925781 C 722.585938 234.800781 722.199219 234.699219 721.804688 234.621094 C 721.414062 234.539062 721.015625 234.484375 720.617188 234.453125 C 720.21875 234.417969 719.820312 234.410156 719.417969 234.421875 C 719.019531 234.4375 718.621094 234.476562 718.226562 234.535156 C 717.828125 234.597656 717.4375 234.679688 717.050781 234.789062 C 716.667969 234.894531 716.289062 235.023438 715.917969 235.175781 C 715.546875 235.328125 715.1875 235.5 714.835938 235.695312 C 714.484375 235.886719 714.148438 236.101562 713.824219 236.335938 C 713.496094 236.570312 713.1875 236.820312 712.890625 237.089844 C 712.597656 237.363281 712.316406 237.648438 712.054688 237.953125 C 711.792969 238.253906 711.550781 238.570312 711.328125 238.902344 C 711.101562 239.234375 710.898438 239.578125 710.714844 239.933594 C 710.53125 240.289062 710.367188 240.65625 710.226562 241.03125 L 616.367188 490.53125 C 616.128906 491.160156 615.957031 491.800781 615.847656 492.464844 C 615.738281 493.125 615.695312 493.789062 615.71875 494.460938 C 615.738281 495.128906 615.828125 495.792969 615.980469 496.445312 C 616.132812 497.097656 616.34375 497.726562 616.621094 498.339844 C 616.898438 498.949219 617.234375 499.527344 617.621094 500.070312 C 618.011719 500.617188 618.453125 501.117188 618.941406 501.574219 C 619.429688 502.03125 619.960938 502.4375 620.53125 502.792969 C 621.097656 503.144531 621.699219 503.441406 622.324219 503.675781 C 622.953125 503.914062 623.597656 504.085938 624.257812 504.195312 C 624.917969 504.304688 625.582031 504.347656 626.253906 504.324219 C 626.921875 504.304688 627.585938 504.214844 628.238281 504.0625 C 628.890625 503.910156 629.519531 503.695312 630.132812 503.421875 C 630.742188 503.144531 631.320312 502.808594 631.863281 502.417969 C 632.410156 502.027344 632.910156 501.589844 633.367188 501.101562 C 633.828125 500.609375 634.230469 500.082031 634.585938 499.511719 C 634.941406 498.941406 635.234375 498.34375 635.46875 497.71875 L 724.398438 261.3125 L 791.800781 314.738281 C 792.582031 315.355469 793.4375 315.851562 794.363281 316.21875 C 795.292969 316.585938 796.253906 316.816406 797.246094 316.902344 C 798.242188 316.988281 799.226562 316.929688 800.203125 316.726562 C 801.179688 316.527344 802.109375 316.1875 802.988281 315.714844 C 803.863281 315.238281 804.65625 314.648438 805.359375 313.941406 C 806.066406 313.234375 806.652344 312.441406 807.125 311.5625 C 807.597656 310.683594 807.933594 309.753906 808.132812 308.777344 C 808.332031 307.800781 808.386719 306.8125 808.300781 305.820312 L 781.628906 10.261719 C 781.546875 9.359375 781.351562 8.484375 781.035156 7.636719 C 780.722656 6.789062 780.304688 5.996094 779.78125 5.257812 C 779.257812 4.519531 778.644531 3.863281 777.945312 3.289062 C 777.246094 2.714844 776.484375 2.242188 775.660156 1.871094 C 774.835938 1.5 773.976562 1.242188 773.085938 1.097656 C 772.191406 0.953125 771.296875 0.929688 770.398438 1.023438 C 769.496094 1.117188 768.625 1.328125 767.78125 1.652344 C 766.9375 1.980469 766.152344 2.410156 765.421875 2.945312 L 652.308594 86.019531 C 643.515625 79.195312 634.457031 72.746094 625.128906 66.667969 C 615.804688 60.589844 606.246094 54.90625 596.453125 49.617188 C 586.65625 44.328125 576.664062 39.453125 566.464844 34.988281 C 556.269531 30.523438 545.910156 26.484375 535.378906 22.875 C 524.851562 19.265625 514.191406 16.09375 503.402344 13.359375 C 492.609375 10.628906 481.726562 8.34375 470.75 6.511719 C 459.769531 4.675781 448.734375 3.296875 437.640625 2.371094 C 426.550781 1.445312 415.4375 0.980469 404.308594 0.972656 C 210.90625 0.972656 44.054688 138.601562 7.570312 328.21875 C 7.433594 328.882812 7.367188 329.550781 7.363281 330.222656 C 7.363281 330.898438 7.425781 331.566406 7.554688 332.230469 C 7.6875 332.890625 7.878906 333.535156 8.136719 334.15625 C 8.398438 334.78125 8.714844 335.375 9.089844 335.933594 C 9.464844 336.496094 9.890625 337.011719 10.367188 337.488281 C 10.847656 337.964844 11.367188 338.390625 11.929688 338.761719 C 12.492188 339.136719 13.085938 339.449219 13.710938 339.707031 C 14.335938 339.960938 14.976562 340.152344 15.640625 340.277344 C 16.304688 340.40625 16.972656 340.46875 17.648438 340.464844 C 18.320312 340.457031 18.988281 340.386719 19.648438 340.25 C 20.308594 340.113281 20.949219 339.910156 21.570312 339.644531 C 22.191406 339.382812 22.78125 339.058594 23.335938 338.675781 C 23.894531 338.296875 24.410156 337.863281 24.878906 337.378906 C 25.351562 336.898438 25.769531 336.371094 26.136719 335.804688 C 26.503906 335.238281 26.808594 334.640625 27.058594 334.015625 C 27.308594 333.386719 27.492188 332.742188 27.613281 332.078125 C 62.265625 152.050781 220.6875 21.382812 404.320312 21.382812 C 414.644531 21.394531 424.953125 21.816406 435.246094 22.65625 C 445.539062 23.496094 455.777344 24.75 465.96875 26.414062 C 476.160156 28.078125 486.265625 30.148438 496.292969 32.625 C 506.316406 35.105469 516.222656 37.980469 526.015625 41.257812 C 535.808594 44.535156 545.453125 48.199219 554.949219 52.253906 C 564.445312 56.304688 573.765625 60.734375 582.90625 65.539062 C 592.046875 70.339844 600.976562 75.503906 609.703125 81.027344 C 618.425781 86.550781 626.914062 92.414062 635.167969 98.621094 L 526.242188 178.625 C 525.4375 179.214844 524.734375 179.910156 524.136719 180.707031 C 523.535156 181.507812 523.058594 182.375 522.714844 183.308594 C 522.367188 184.246094 522.164062 185.210938 522.101562 186.210938 C 522.039062 187.207031 522.121094 188.191406 522.347656 189.164062 C 522.574219 190.136719 522.933594 191.054688 523.429688 191.921875 C 523.925781 192.789062 524.535156 193.566406 525.261719 194.253906 C 525.984375 194.941406 526.792969 195.507812 527.683594 195.957031 C 528.574219 196.410156 529.511719 196.722656 530.496094 196.898438 L 615.15625 212.046875 L 514.761719 401.394531 C 511.925781 397.632812 508.785156 394.136719 505.34375 390.914062 C 489.433594 375.8125 468.058594 366.988281 436.023438 362.3125 L 397.085938 356.710938 C 383.136719 354.601562 376.804688 351.078125 371.625 346.4375 C 367.285156 342.351562 365.351562 336.8125 365.351562 328.492188 C 365.351562 310.007812 381.042969 298.523438 406.304688 298.523438 C 414.671875 298.375 422.914062 299.316406 431.035156 301.34375 C 439.15625 303.367188 446.875 306.410156 454.195312 310.472656 C 465.445312 316.253906 474.917969 319.074219 483.160156 319.074219 C 485.734375 319.105469 488.277344 318.851562 490.796875 318.316406 C 493.316406 317.785156 495.746094 316.980469 498.085938 315.910156 C 500.425781 314.84375 502.621094 313.53125 504.675781 311.976562 C 506.726562 310.421875 508.582031 308.660156 510.246094 306.695312 C 510.328125 306.601562 510.414062 306.503906 510.488281 306.40625 C 512.007812 304.546875 513.367188 302.574219 514.558594 300.488281 C 515.75 298.402344 516.757812 296.230469 517.585938 293.976562 C 518.417969 291.722656 519.054688 289.414062 519.496094 287.050781 C 519.941406 284.691406 520.183594 282.308594 520.230469 279.90625 C 520.230469 262.957031 508.363281 247.742188 487.652344 238.160156 C 472.296875 230.839844 456.214844 225.871094 439.40625 223.253906 L 439.40625 222.914062 C 439.40625 210.402344 438.949219 203.621094 434.75 195.550781 C 434.71875 195.484375 434.683594 195.417969 434.644531 195.351562 C 428.738281 184.574219 417.183594 178.136719 403.734375 178.136719 C 390.289062 178.136719 378.730469 184.570312 372.828125 195.351562 C 372.792969 195.414062 372.757812 195.480469 372.722656 195.546875 C 368.527344 203.609375 368.070312 210.390625 368.070312 222.914062 L 368.070312 225.648438 C 314.800781 238.71875 282.101562 278.902344 282.101562 332.238281 C 281.988281 339.367188 282.519531 346.445312 283.691406 353.472656 C 284.867188 360.503906 286.664062 367.367188 289.085938 374.070312 L 168.90625 600.753906 C 168.71875 601.109375 168.550781 601.472656 168.40625 601.84375 C 168.261719 602.21875 168.140625 602.597656 168.039062 602.988281 C 167.941406 603.375 167.863281 603.765625 167.808594 604.164062 C 167.753906 604.558594 167.726562 604.957031 167.71875 605.359375 C 167.710938 605.757812 167.726562 606.160156 167.769531 606.558594 C 167.808594 606.957031 167.871094 607.351562 167.957031 607.742188 C 168.042969 608.132812 168.152344 608.515625 168.285156 608.894531 C 168.417969 609.273438 168.570312 609.640625 168.746094 610.003906 C 168.921875 610.363281 169.117188 610.710938 169.332031 611.046875 C 169.550781 611.386719 169.785156 611.707031 170.039062 612.019531 C 170.292969 612.328125 170.566406 612.621094 170.855469 612.898438 C 171.144531 613.175781 171.449219 613.433594 171.765625 613.675781 C 172.085938 613.917969 172.417969 614.140625 172.765625 614.339844 C 173.109375 614.542969 173.464844 614.726562 173.832031 614.886719 C 174.199219 615.046875 174.574219 615.183594 174.957031 615.300781 C 175.34375 615.417969 175.730469 615.511719 176.125 615.582031 L 251.136719 629.007812 L 45.714844 779.894531 L 22.792969 526.035156 L 82.519531 573.375 C 82.835938 573.625 83.160156 573.851562 83.503906 574.0625 C 83.84375 574.273438 84.195312 574.464844 84.558594 574.632812 C 84.921875 574.800781 85.292969 574.949219 85.675781 575.074219 C 86.054688 575.199219 86.441406 575.300781 86.832031 575.378906 C 87.226562 575.460938 87.621094 575.515625 88.019531 575.546875 C 88.421875 575.582031 88.820312 575.589844 89.21875 575.578125 C 89.621094 575.5625 90.019531 575.523438 90.414062 575.464844 C 90.808594 575.402344 91.199219 575.320312 91.585938 575.210938 C 91.972656 575.105469 92.351562 574.976562 92.722656 574.824219 C 93.09375 574.671875 93.453125 574.5 93.804688 574.304688 C 94.152344 574.113281 94.492188 573.898438 94.816406 573.664062 C 95.140625 573.429688 95.453125 573.179688 95.746094 572.910156 C 96.042969 572.636719 96.320312 572.351562 96.582031 572.046875 C 96.84375 571.746094 97.089844 571.429688 97.3125 571.097656 C 97.539062 570.765625 97.742188 570.421875 97.925781 570.066406 C 98.109375 569.710938 98.273438 569.34375 98.414062 568.96875 L 192.265625 319.46875 C 192.5 318.839844 192.671875 318.199219 192.78125 317.535156 C 192.890625 316.875 192.933594 316.210938 192.910156 315.539062 C 192.890625 314.871094 192.800781 314.210938 192.648438 313.558594 C 192.496094 312.90625 192.28125 312.273438 192.003906 311.664062 C 191.730469 311.054688 191.394531 310.476562 191.003906 309.933594 C 190.613281 309.386719 190.175781 308.886719 189.683594 308.429688 C 189.195312 307.972656 188.667969 307.566406 188.097656 307.210938 C 187.527344 306.859375 186.929688 306.5625 186.304688 306.328125 C 185.675781 306.089844 185.03125 305.917969 184.371094 305.808594 C 183.710938 305.699219 183.046875 305.65625 182.375 305.679688 C 181.707031 305.703125 181.046875 305.789062 180.394531 305.941406 C 179.742188 306.09375 179.109375 306.308594 178.5 306.582031 C 177.890625 306.859375 177.3125 307.191406 176.765625 307.582031 C 176.222656 307.972656 175.722656 308.414062 175.261719 308.902344 C 174.804688 309.390625 174.398438 309.917969 174.046875 310.488281 C 173.691406 311.058594 173.394531 311.65625 173.160156 312.28125 L 84.242188 548.6875 L 16.839844 495.261719 C 16.058594 494.644531 15.203125 494.148438 14.273438 493.78125 C 13.347656 493.414062 12.386719 493.183594 11.390625 493.097656 C 10.398438 493.011719 9.414062 493.070312 8.433594 493.273438 C 7.457031 493.472656 6.53125 493.8125 5.652344 494.285156 C 4.773438 494.761719 3.984375 495.351562 3.277344 496.058594 C 2.574219 496.765625 1.984375 497.558594 1.511719 498.4375 C 1.042969 499.316406 0.707031 500.246094 0.503906 501.222656 C 0.304688 502.199219 0.25 503.1875 0.339844 504.179688 L 27.011719 799.738281 C 27.09375 800.640625 27.289062 801.511719 27.601562 802.363281 C 27.917969 803.210938 28.335938 804.003906 28.859375 804.742188 C 29.382812 805.476562 29.996094 806.132812 30.691406 806.707031 C 31.390625 807.28125 32.152344 807.753906 32.976562 808.128906 C 33.800781 808.5 34.660156 808.757812 35.554688 808.902344 C 36.445312 809.046875 37.34375 809.070312 38.242188 808.976562 C 39.140625 808.882812 40.015625 808.671875 40.855469 808.34375 C 41.699219 808.019531 42.488281 807.585938 43.214844 807.050781 L 156.332031 723.980469 C 165.125 730.800781 174.183594 737.253906 183.507812 743.332031 C 192.835938 749.40625 202.394531 755.089844 212.1875 760.378906 C 221.980469 765.667969 231.976562 770.546875 242.171875 775.011719 C 252.367188 779.476562 262.730469 783.511719 273.257812 787.125 C 283.789062 790.734375 294.449219 793.90625 305.238281 796.636719 C 316.027344 799.371094 326.914062 801.652344 337.890625 803.488281 C 348.871094 805.320312 359.90625 806.703125 370.996094 807.625 C 382.089844 808.550781 393.199219 809.019531 404.332031 809.027344 C 409.628906 809.027344 414.925781 808.921875 420.21875 808.714844 C 425.511719 808.503906 430.800781 808.191406 436.078125 807.777344 C 441.359375 807.359375 446.632812 806.839844 451.894531 806.214844 C 457.152344 805.59375 462.398438 804.867188 467.632812 804.035156 C 472.863281 803.207031 478.078125 802.273438 483.273438 801.238281 C 488.46875 800.203125 493.640625 799.066406 498.792969 797.828125 C 503.945312 796.589844 509.066406 795.25 514.167969 793.8125 C 519.265625 792.371094 524.332031 790.832031 529.371094 789.195312 C 534.40625 787.554688 539.410156 785.816406 544.378906 783.980469 C 549.351562 782.144531 554.28125 780.210938 559.175781 778.183594 C 564.066406 776.152344 568.917969 774.027344 573.730469 771.808594 C 578.539062 769.585938 583.304688 767.273438 588.023438 764.867188 C 592.742188 762.457031 597.410156 759.957031 602.03125 757.367188 C 606.652344 754.773438 611.21875 752.09375 615.734375 749.324219 C 620.25 746.550781 624.707031 743.691406 629.109375 740.746094 C 633.511719 737.800781 637.855469 734.769531 642.140625 731.652344 C 646.421875 728.535156 650.644531 725.335938 654.800781 722.050781 C 658.957031 718.769531 663.050781 715.40625 667.074219 711.960938 C 671.101562 708.515625 675.058594 704.996094 678.945312 701.394531 C 682.832031 697.796875 686.644531 694.121094 690.386719 690.375 C 694.128906 686.625 697.796875 682.800781 701.390625 678.910156 C 704.980469 675.015625 708.496094 671.050781 711.933594 667.019531 C 715.371094 662.988281 718.726562 658.890625 722 654.726562 C 725.277344 650.5625 728.46875 646.335938 731.578125 642.046875 C 734.6875 637.757812 737.710938 633.410156 740.648438 629 C 743.585938 624.59375 746.4375 620.128906 749.199219 615.609375 C 751.960938 611.089844 754.632812 606.515625 757.214844 601.890625 C 759.800781 597.265625 762.289062 592.589844 764.6875 587.867188 C 767.089844 583.144531 769.394531 578.375 771.605469 573.5625 C 773.816406 568.746094 775.933594 563.890625 777.953125 558.996094 C 779.972656 554.097656 781.898438 549.164062 783.722656 544.191406 C 785.550781 539.21875 787.277344 534.210938 788.90625 529.171875 C 789.113281 528.53125 789.253906 527.878906 789.332031 527.214844 C 789.410156 526.550781 789.421875 525.882812 789.367188 525.214844 C 789.3125 524.546875 789.195312 523.890625 789.011719 523.242188 C 788.828125 522.597656 788.585938 521.980469 788.277344 521.382812 C 787.972656 520.785156 787.613281 520.222656 787.195312 519.699219 C 786.78125 519.171875 786.316406 518.695312 785.804688 518.257812 C 785.292969 517.824219 784.746094 517.445312 784.160156 517.117188 C 783.574219 516.792969 782.964844 516.527344 782.324219 516.320312 Z M 380.136719 243.917969 C 380.71875 243.8125 381.285156 243.652344 381.839844 243.445312 C 382.394531 243.242188 382.925781 242.988281 383.4375 242.6875 C 383.945312 242.390625 384.425781 242.046875 384.878906 241.664062 C 385.328125 241.28125 385.742188 240.863281 386.121094 240.410156 C 386.5 239.953125 386.835938 239.46875 387.128906 238.957031 C 387.425781 238.445312 387.671875 237.910156 387.871094 237.351562 C 388.074219 236.796875 388.226562 236.226562 388.328125 235.644531 C 388.429688 235.0625 388.480469 234.472656 388.480469 233.882812 L 388.480469 222.90625 C 388.480469 211.265625 388.972656 208.566406 390.777344 205.066406 C 393.101562 200.917969 397.816406 198.539062 403.734375 198.539062 C 409.65625 198.539062 414.375 200.921875 416.699219 205.066406 C 418.503906 208.574219 418.996094 211.273438 418.996094 222.90625 L 418.996094 232.25 C 418.996094 232.875 419.050781 233.496094 419.167969 234.113281 C 419.28125 234.726562 419.449219 235.328125 419.675781 235.914062 C 419.902344 236.496094 420.175781 237.054688 420.503906 237.589844 C 420.832031 238.125 421.207031 238.621094 421.625 239.085938 C 422.046875 239.550781 422.503906 239.976562 423.003906 240.355469 C 423.5 240.734375 424.027344 241.066406 424.585938 241.351562 C 425.144531 241.632812 425.726562 241.863281 426.324219 242.039062 C 426.925781 242.21875 427.539062 242.335938 428.160156 242.402344 C 437.003906 243.285156 445.703125 244.929688 454.257812 247.328125 C 462.8125 249.726562 471.09375 252.847656 479.109375 256.6875 C 485.335938 259.570312 499.820312 267.601562 499.820312 279.902344 C 499.730469 282.371094 499.25 284.765625 498.378906 287.082031 C 497.507812 289.398438 496.289062 291.515625 494.726562 293.433594 C 494.023438 294.277344 493.234375 295.03125 492.359375 295.699219 C 491.484375 296.363281 490.546875 296.921875 489.546875 297.375 C 488.542969 297.828125 487.503906 298.164062 486.425781 298.378906 C 485.347656 298.59375 484.261719 298.6875 483.160156 298.65625 C 479.828125 298.65625 473.71875 297.558594 463.621094 292.363281 C 459.25 289.964844 454.746094 287.855469 450.105469 286.039062 C 445.460938 284.222656 440.722656 282.714844 435.886719 281.511719 C 431.046875 280.308594 426.152344 279.421875 421.203125 278.851562 C 416.25 278.28125 411.28125 278.035156 406.296875 278.109375 C 363.90625 278.109375 344.933594 303.410156 344.933594 328.488281 C 344.933594 342.589844 349.128906 353.363281 357.753906 361.414062 L 357.894531 361.539062 C 367.148438 369.875 377.953125 374.457031 394.101562 376.898438 L 433.089844 382.511719 C 460.6875 386.542969 478.640625 393.707031 491.308594 405.738281 L 491.371094 405.796875 C 506.273438 419.71875 513.824219 440.867188 513.824219 468.65625 C 513.824219 515.640625 481.597656 548.726562 427.613281 557.152344 C 427.019531 557.246094 426.433594 557.390625 425.863281 557.585938 C 425.292969 557.785156 424.742188 558.03125 424.21875 558.324219 C 423.691406 558.617188 423.191406 558.957031 422.726562 559.339844 C 422.257812 559.722656 421.828125 560.140625 421.4375 560.601562 C 421.042969 561.058594 420.695312 561.546875 420.386719 562.070312 C 420.082031 562.589844 419.824219 563.132812 419.617188 563.699219 C 419.40625 564.265625 419.25 564.84375 419.144531 565.441406 C 419.035156 566.035156 418.984375 566.632812 418.984375 567.234375 L 418.984375 587.089844 C 418.984375 598.90625 418.472656 601.636719 416.734375 604.84375 C 414.433594 609.046875 409.691406 611.460938 403.726562 611.460938 C 397.761719 611.460938 393.023438 609.050781 390.738281 604.886719 C 388.980469 601.644531 388.46875 598.914062 388.46875 587.09375 L 388.46875 568.871094 C 388.46875 568.238281 388.410156 567.605469 388.292969 566.980469 C 388.175781 566.355469 388 565.746094 387.769531 565.15625 C 387.535156 564.5625 387.25 563.996094 386.914062 563.457031 C 386.578125 562.917969 386.191406 562.414062 385.761719 561.949219 C 385.328125 561.480469 384.855469 561.058594 384.347656 560.675781 C 383.835938 560.296875 383.292969 559.96875 382.722656 559.691406 C 382.148438 559.414062 381.554688 559.191406 380.941406 559.023438 C 380.328125 558.859375 379.703125 558.75 379.070312 558.699219 C 369.152344 558.105469 359.398438 556.507812 349.808594 553.914062 C 340.21875 551.320312 330.988281 547.78125 322.125 543.296875 C 301.179688 533.402344 294.796875 526.660156 294.796875 514.445312 C 294.90625 511.828125 295.464844 509.3125 296.476562 506.898438 C 297.488281 504.480469 298.890625 502.316406 300.679688 500.40625 C 301.386719 499.671875 302.167969 499.027344 303.015625 498.464844 C 303.867188 497.902344 304.765625 497.4375 305.71875 497.070312 C 306.667969 496.703125 307.648438 496.441406 308.652344 496.285156 C 309.660156 496.132812 310.671875 496.085938 311.691406 496.152344 C 316.378906 496.152344 321.007812 497.34375 333.339844 503.855469 C 356.644531 516.101562 373.53125 522.316406 401.15625 522.316406 C 444.554688 522.316406 470.464844 502.867188 470.464844 470.296875 C 470.464844 455.617188 465.914062 443.46875 457.285156 435.136719 C 449.597656 427.757812 438.992188 423.515625 421.796875 420.953125 L 382.089844 415.113281 C 355.5 411.199219 336.796875 403.238281 323.234375 390.089844 C 309.289062 376.542969 302.503906 357.617188 302.503906 332.234375 C 302.511719 285.941406 331.53125 252.933594 380.136719 243.917969 Z M 380.136719 243.917969 "/><path style=" stroke:none;fill-rule:nonzero;fill:#333652;fill-opacity:1;" d="M 803.6875 343.445312 C 803.59375 342.773438 803.4375 342.121094 803.210938 341.480469 C 802.988281 340.84375 802.707031 340.230469 802.363281 339.648438 C 802.019531 339.066406 801.621094 338.527344 801.167969 338.023438 C 800.71875 337.519531 800.21875 337.066406 799.679688 336.660156 C 799.136719 336.257812 798.558594 335.910156 797.949219 335.621094 C 797.335938 335.332031 796.703125 335.105469 796.046875 334.941406 C 795.390625 334.777344 794.726562 334.679688 794.050781 334.648438 C 793.375 334.617188 792.703125 334.652344 792.035156 334.753906 C 791.367188 334.855469 790.714844 335.023438 790.078125 335.253906 C 789.445312 335.484375 788.835938 335.777344 788.261719 336.128906 C 787.683594 336.484375 787.144531 336.886719 786.648438 337.347656 C 786.152344 337.804688 785.707031 338.308594 785.308594 338.859375 C 784.914062 339.40625 784.574219 339.988281 784.292969 340.601562 C 784.011719 341.21875 783.792969 341.855469 783.640625 342.511719 C 783.484375 343.171875 783.398438 343.835938 783.375 344.511719 C 783.355469 345.1875 783.398438 345.859375 783.511719 346.527344 C 786.460938 365.890625 787.933594 385.367188 787.9375 404.957031 C 787.9375 424.542969 786.46875 444.019531 783.523438 463.382812 C 783.421875 464.046875 783.386719 464.710938 783.414062 465.382812 C 783.445312 466.050781 783.539062 466.710938 783.699219 467.363281 C 783.859375 468.011719 784.082031 468.640625 784.367188 469.25 C 784.652344 469.855469 784.992188 470.429688 785.386719 470.96875 C 785.785156 471.507812 786.230469 472.003906 786.726562 472.457031 C 787.21875 472.910156 787.753906 473.308594 788.328125 473.65625 C 788.902344 474.003906 789.503906 474.292969 790.132812 474.519531 C 790.761719 474.75 791.410156 474.914062 792.070312 475.015625 C 792.734375 475.117188 793.398438 475.152344 794.070312 475.121094 C 794.738281 475.089844 795.398438 474.996094 796.050781 474.835938 C 796.699219 474.675781 797.328125 474.453125 797.9375 474.171875 C 798.542969 473.886719 799.117188 473.546875 799.65625 473.148438 C 800.195312 472.75 800.691406 472.304688 801.144531 471.8125 C 801.597656 471.316406 801.996094 470.78125 802.34375 470.210938 C 802.691406 469.636719 802.976562 469.035156 803.207031 468.40625 C 803.433594 467.773438 803.601562 467.128906 803.703125 466.464844 C 806.800781 446.078125 808.351562 425.574219 808.347656 404.957031 C 808.34375 384.335938 806.789062 363.832031 803.6875 343.445312 Z M 803.6875 343.445312 "/><path style=" stroke:none;fill-rule:nonzero;fill:#333652;fill-opacity:1;" d="M 227.988281 115.125 C 227.316406 115.125 226.652344 115.191406 225.996094 115.324219 C 225.339844 115.453125 224.699219 115.648438 224.082031 115.902344 C 223.460938 116.160156 222.875 116.472656 222.316406 116.847656 C 221.761719 117.21875 221.246094 117.640625 220.769531 118.117188 C 220.296875 118.589844 219.875 119.105469 219.5 119.664062 C 219.128906 120.21875 218.816406 120.808594 218.558594 121.425781 C 218.300781 122.046875 218.109375 122.683594 217.976562 123.339844 C 217.847656 124 217.78125 124.664062 217.78125 125.332031 L 217.78125 149.054688 L 194.058594 149.054688 C 193.386719 149.054688 192.722656 149.121094 192.066406 149.25 C 191.410156 149.378906 190.773438 149.574219 190.152344 149.832031 C 189.535156 150.085938 188.945312 150.402344 188.386719 150.773438 C 187.832031 151.144531 187.316406 151.570312 186.839844 152.042969 C 186.367188 152.515625 185.945312 153.03125 185.570312 153.589844 C 185.199219 154.148438 184.886719 154.734375 184.628906 155.355469 C 184.371094 155.972656 184.179688 156.613281 184.046875 157.269531 C 183.917969 157.925781 183.851562 158.589844 183.851562 159.257812 C 183.851562 159.929688 183.917969 160.59375 184.046875 161.25 C 184.179688 161.90625 184.371094 162.546875 184.628906 163.164062 C 184.886719 163.785156 185.199219 164.371094 185.570312 164.929688 C 185.945312 165.488281 186.367188 166.003906 186.839844 166.476562 C 187.316406 166.949219 187.832031 167.375 188.386719 167.746094 C 188.945312 168.117188 189.535156 168.433594 190.152344 168.6875 C 190.773438 168.945312 191.410156 169.140625 192.066406 169.269531 C 192.722656 169.398438 193.386719 169.464844 194.058594 169.464844 L 217.78125 169.464844 L 217.78125 193.1875 C 217.78125 193.855469 217.84375 194.519531 217.976562 195.179688 C 218.105469 195.835938 218.300781 196.472656 218.554688 197.09375 C 218.8125 197.710938 219.128906 198.300781 219.5 198.855469 C 219.871094 199.414062 220.296875 199.929688 220.769531 200.402344 C 221.242188 200.878906 221.757812 201.300781 222.316406 201.671875 C 222.871094 202.046875 223.460938 202.359375 224.078125 202.617188 C 224.699219 202.871094 225.335938 203.066406 225.996094 203.195312 C 226.652344 203.328125 227.316406 203.394531 227.984375 203.394531 C 228.65625 203.394531 229.320312 203.328125 229.976562 203.195312 C 230.632812 203.066406 231.273438 202.871094 231.890625 202.617188 C 232.511719 202.359375 233.097656 202.046875 233.65625 201.671875 C 234.210938 201.300781 234.726562 200.878906 235.203125 200.402344 C 235.675781 199.929688 236.097656 199.414062 236.472656 198.855469 C 236.84375 198.300781 237.15625 197.710938 237.414062 197.09375 C 237.671875 196.472656 237.863281 195.835938 237.996094 195.179688 C 238.125 194.519531 238.191406 193.855469 238.191406 193.1875 L 238.191406 169.464844 L 261.910156 169.464844 C 262.582031 169.464844 263.246094 169.398438 263.902344 169.269531 C 264.558594 169.140625 265.199219 168.945312 265.816406 168.6875 C 266.4375 168.433594 267.023438 168.117188 267.582031 167.746094 C 268.136719 167.375 268.652344 166.949219 269.128906 166.476562 C 269.601562 166.003906 270.023438 165.488281 270.398438 164.929688 C 270.769531 164.371094 271.082031 163.785156 271.339844 163.164062 C 271.597656 162.546875 271.789062 161.90625 271.921875 161.25 C 272.050781 160.59375 272.117188 159.929688 272.117188 159.261719 C 272.117188 158.589844 272.050781 157.925781 271.921875 157.269531 C 271.789062 156.613281 271.597656 155.972656 271.339844 155.355469 C 271.082031 154.734375 270.769531 154.148438 270.398438 153.589844 C 270.023438 153.03125 269.601562 152.515625 269.128906 152.042969 C 268.652344 151.570312 268.136719 151.144531 267.582031 150.773438 C 267.023438 150.402344 266.4375 150.085938 265.816406 149.832031 C 265.199219 149.574219 264.558594 149.378906 263.902344 149.25 C 263.246094 149.121094 262.582031 149.054688 261.910156 149.054688 L 238.191406 149.054688 L 238.191406 125.332031 C 238.191406 124.664062 238.128906 124 237.996094 123.339844 C 237.867188 122.683594 237.671875 122.046875 237.417969 121.425781 C 237.160156 120.808594 236.84375 120.21875 236.472656 119.664062 C 236.101562 119.105469 235.675781 118.589844 235.203125 118.117188 C 234.730469 117.640625 234.214844 117.21875 233.65625 116.847656 C 233.101562 116.472656 232.511719 116.160156 231.894531 115.902344 C 231.273438 115.648438 230.636719 115.453125 229.976562 115.324219 C 229.320312 115.191406 228.65625 115.125 227.988281 115.125 Z M 227.988281 115.125 "/><path style=" stroke:none;fill-rule:nonzero;fill:#333652;fill-opacity:1;" d="M 580.652344 694.875 C 581.324219 694.875 581.988281 694.808594 582.644531 694.679688 C 583.300781 694.546875 583.941406 694.355469 584.558594 694.097656 C 585.179688 693.84375 585.765625 693.527344 586.324219 693.15625 C 586.878906 692.78125 587.394531 692.359375 587.871094 691.886719 C 588.34375 691.414062 588.765625 690.898438 589.140625 690.339844 C 589.511719 689.78125 589.824219 689.195312 590.082031 688.574219 C 590.339844 687.957031 590.53125 687.316406 590.664062 686.660156 C 590.792969 686.003906 590.859375 685.339844 590.859375 684.667969 L 590.859375 660.949219 L 614.582031 660.949219 C 615.25 660.949219 615.914062 660.882812 616.570312 660.75 C 617.230469 660.621094 617.867188 660.425781 618.488281 660.171875 C 619.105469 659.914062 619.695312 659.601562 620.25 659.226562 C 620.808594 658.855469 621.324219 658.433594 621.796875 657.957031 C 622.269531 657.484375 622.695312 656.96875 623.066406 656.410156 C 623.4375 655.855469 623.753906 655.265625 624.011719 654.648438 C 624.265625 654.027344 624.460938 653.390625 624.589844 652.734375 C 624.722656 652.074219 624.785156 651.410156 624.785156 650.742188 C 624.785156 650.070312 624.722656 649.40625 624.589844 648.75 C 624.460938 648.09375 624.265625 647.457031 624.011719 646.835938 C 623.753906 646.21875 623.4375 645.628906 623.066406 645.070312 C 622.695312 644.515625 622.269531 644 621.796875 643.523438 C 621.324219 643.050781 620.808594 642.628906 620.25 642.257812 C 619.695312 641.882812 619.105469 641.570312 618.488281 641.3125 C 617.867188 641.054688 617.230469 640.863281 616.570312 640.730469 C 615.914062 640.601562 615.25 640.535156 614.582031 640.535156 L 590.859375 640.535156 L 590.859375 616.8125 C 590.859375 616.144531 590.792969 615.480469 590.664062 614.820312 C 590.53125 614.164062 590.339844 613.527344 590.082031 612.90625 C 589.824219 612.289062 589.511719 611.699219 589.140625 611.144531 C 588.765625 610.585938 588.34375 610.070312 587.871094 609.597656 C 587.394531 609.121094 586.878906 608.699219 586.324219 608.328125 C 585.765625 607.953125 585.179688 607.640625 584.558594 607.382812 C 583.941406 607.128906 583.300781 606.933594 582.644531 606.804688 C 581.988281 606.671875 581.324219 606.605469 580.652344 606.605469 C 579.984375 606.605469 579.320312 606.671875 578.664062 606.804688 C 578.003906 606.933594 577.367188 607.128906 576.746094 607.382812 C 576.128906 607.640625 575.539062 607.953125 574.984375 608.328125 C 574.425781 608.699219 573.910156 609.121094 573.4375 609.597656 C 572.964844 610.070312 572.539062 610.585938 572.167969 611.144531 C 571.796875 611.699219 571.480469 612.289062 571.222656 612.90625 C 570.96875 613.527344 570.773438 614.164062 570.644531 614.820312 C 570.511719 615.480469 570.449219 616.144531 570.449219 616.8125 L 570.449219 640.535156 L 546.726562 640.535156 C 546.054688 640.535156 545.390625 640.601562 544.734375 640.730469 C 544.078125 640.859375 543.441406 641.054688 542.820312 641.3125 C 542.203125 641.566406 541.613281 641.882812 541.054688 642.253906 C 540.5 642.625 539.984375 643.050781 539.507812 643.523438 C 539.035156 643.996094 538.613281 644.511719 538.242188 645.070312 C 537.867188 645.628906 537.554688 646.214844 537.296875 646.835938 C 537.039062 647.453125 536.847656 648.09375 536.714844 648.75 C 536.585938 649.40625 536.519531 650.070312 536.519531 650.742188 C 536.519531 651.410156 536.585938 652.074219 536.714844 652.730469 C 536.847656 653.386719 537.039062 654.027344 537.296875 654.644531 C 537.554688 655.265625 537.867188 655.851562 538.242188 656.410156 C 538.613281 656.96875 539.035156 657.484375 539.507812 657.957031 C 539.984375 658.429688 540.5 658.855469 541.054688 659.226562 C 541.613281 659.597656 542.203125 659.914062 542.820312 660.167969 C 543.441406 660.425781 544.078125 660.617188 544.734375 660.75 C 545.390625 660.878906 546.054688 660.945312 546.726562 660.945312 L 570.449219 660.945312 L 570.449219 684.667969 C 570.449219 685.339844 570.511719 686 570.644531 686.660156 C 570.773438 687.316406 570.96875 687.953125 571.222656 688.574219 C 571.480469 689.191406 571.796875 689.78125 572.167969 690.339844 C 572.539062 690.894531 572.960938 691.410156 573.4375 691.886719 C 573.910156 692.359375 574.425781 692.78125 574.984375 693.15625 C 575.539062 693.527344 576.128906 693.84375 576.746094 694.097656 C 577.367188 694.355469 578.003906 694.546875 578.664062 694.679688 C 579.320312 694.808594 579.984375 694.875 580.652344 694.875 Z M 580.652344 694.875 "/></g></svg>