<svg xmlns="http://www.w3.org/2000/svg" xmlns:xlink="http://www.w3.org/1999/xlink" width="1080" zoomAndPan="magnify" viewBox="0 0 810 809.999993" height="1080" preserveAspectRatio="xMidYMid meet" version="1.2"><defs><clipPath id="e5bb8698bb"><path d="M 0 511 L 587 511 L 587 795.675781 L 0 795.675781 Z M 0 511 "/></clipPath><clipPath id="d529c02c79"><path d="M 184 14.175781 L 318 14.175781 L 318 147 L 184 147 Z M 184 14.175781 "/></clipPath></defs><g id="019b916425"><rect x="0" width="810" y="0" height="809.999993" style="fill:#ffffff;fill-opacity:1;stroke:none;"/><rect x="0" width="810" y="0" height="809.999993" style="fill:#ffffff;fill-opacity:1;stroke:none;"/><path style=" stroke:none;fill-rule:nonzero;fill:#10a4de;fill-opacity:1;" d="M 564.734375 171.054688 C 564.734375 202.257812 520.261719 224.953125 457.019531 238.714844 C 460.445312 252.980469 462.738281 267.644531 463.875 282.597656 C 463.894531 282.746094 463.910156 282.878906 463.910156 283.03125 C 464.445312 290.222656 464.746094 297.480469 464.746094 304.769531 C 464.746094 372.679688 441.199219 435.761719 401.003906 477.667969 C 420.558594 483.789062 440.929688 486.882812 461.351562 486.898438 C 507.078125 486.898438 553.027344 471.414062 590.660156 439.691406 C 675.242188 368.316406 686 241.441406 614.628906 156.839844 C 563.714844 96.550781 484.582031 73.792969 412.695312 91.570312 L 413.730469 95.832031 C 464.882812 103.140625 564.734375 123.511719 564.734375 171.054688 Z M 564.734375 171.054688 "/><path style=" stroke:none;fill-rule:nonzero;fill:#10a4de;fill-opacity:1;" d="M 392.992188 109.730469 C 392.859375 109.261719 392.726562 108.796875 392.660156 108.308594 L 390.28125 98.527344 C 369.507812 106.355469 349.6875 117.777344 331.757812 132.878906 C 326.742188 137.125 321.992188 141.558594 317.492188 146.171875 L 401.789062 146.171875 Z M 392.992188 109.730469 "/><path style=" stroke:none;fill-rule:nonzero;fill:#10a4de;fill-opacity:1;" d="M 293.304688 230.921875 C 361.648438 230.921875 425.757812 223.632812 473.832031 210.386719 C 523.640625 196.65625 541.320312 180.621094 541.320312 171.054688 C 541.320312 158.296875 507.917969 134.164062 419.65625 120.382812 L 428.050781 155.117188 C 428.886719 158.613281 428.085938 162.292969 425.859375 165.117188 C 423.652344 167.945312 420.257812 169.585938 416.660156 169.585938 L 297.875 169.585938 C 284.476562 188.347656 274.640625 209 268.4375 230.574219 C 276.632812 230.804688 284.941406 230.921875 293.304688 230.921875 Z M 293.304688 230.921875 "/><path style=" stroke:none;fill-rule:nonzero;fill:#10a4de;fill-opacity:1;" d="M 437.933594 262.546875 C 436.863281 256.007812 435.578125 249.550781 434.023438 243.179688 C 391.289062 250.574219 342.179688 254.335938 293.304688 254.335938 C 283.171875 254.335938 273.082031 254.183594 263.214844 253.867188 C 262.929688 255.621094 262.664062 257.363281 262.429688 259.136719 L 416.054688 259.136719 C 423.601562 259.132812 431.011719 260.320312 437.933594 262.546875 Z M 437.933594 262.546875 "/><path style=" stroke:none;fill-rule:nonzero;fill:#10a4de;fill-opacity:1;" d="M 300.867188 352.332031 L 331.859375 378.535156 L 416.054688 378.535156 C 421.425781 378.535156 426.679688 377.683594 431.511719 376.042969 C 437.902344 353.703125 441.3125 329.621094 441.3125 304.769531 C 441.3125 299.703125 441.148438 294.671875 440.863281 289.671875 C 434.105469 285.121094 425.304688 282.546875 416.054688 282.546875 L 260.621094 282.546875 C 260.101562 309.117188 264.820312 335.839844 274.921875 361.042969 L 285.945312 352.164062 C 290.328125 348.652344 296.566406 348.71875 300.867188 352.332031 Z M 333.816406 329.320312 C 334.851562 326.761719 336.945312 324.769531 339.554688 323.851562 L 406.125 300.453125 C 410.722656 298.832031 415.789062 300.890625 417.964844 305.238281 C 422.632812 314.585938 423.046875 325.019531 419.152344 334.636719 C 414.769531 345.421875 405.320312 354.054688 393.195312 358.300781 C 387.492188 360.308594 381.621094 361.257812 375.867188 361.257812 C 358.222656 361.257812 341.628906 352.3125 334.117188 337.261719 C 332.878906 334.789062 332.78125 331.894531 333.816406 329.320312 Z M 333.816406 329.320312 "/><path style=" stroke:none;fill-rule:nonzero;fill:#10a4de;fill-opacity:1;" d="M 416.058594 401.949219 L 327.578125 401.949219 C 324.816406 401.949219 322.125 400.976562 320.015625 399.191406 L 293.121094 376.464844 L 285.210938 382.816406 C 291.515625 394.289062 299.039062 405.308594 307.789062 415.695312 C 327.339844 438.871094 351.09375 456.515625 376.984375 468.441406 C 396.152344 450.78125 411.605469 427.886719 422.5625 401.648438 C 420.40625 401.832031 418.230469 401.949219 416.058594 401.949219 Z M 416.058594 401.949219 "/><path style=" stroke:none;fill-rule:nonzero;fill:#203b72;fill-opacity:1;" d="M 266.863281 573.609375 C 293.925781 581.1875 329.335938 576.554688 349.921875 557.304688 C 330.320312 549.3125 311.46875 539.125 293.742188 526.800781 C 293.589844 526.800781 293.441406 526.816406 293.308594 526.816406 C 271.097656 526.816406 249.570312 521.417969 229.597656 511.132812 L 219.8125 511.132812 L 219.8125 517.238281 C 219.8125 556.21875 252.710938 569.644531 266.863281 573.609375 Z M 266.863281 573.609375 "/><path style=" stroke:none;fill-rule:nonzero;fill:#203b72;fill-opacity:1;" d="M 175.136719 222.980469 C 179.152344 204.75 184.90625 186.859375 192.382812 169.582031 L 169.9375 169.582031 C 166.339844 169.582031 162.945312 167.941406 160.738281 165.117188 C 158.511719 162.292969 157.710938 158.613281 158.546875 155.132812 L 166.941406 120.382812 C 78.695312 134.148438 45.296875 158.296875 45.296875 171.054688 C 45.292969 184.265625 80.785156 209.46875 175.136719 222.980469 Z M 175.136719 222.980469 "/><g clip-rule="nonzero" clip-path="url(#e5bb8698bb)"><path style=" stroke:none;fill-rule:nonzero;fill:#203b72;fill-opacity:1;" d="M 461.453125 579.195312 C 431.796875 579.195312 402.226562 574.714844 373.808594 565.882812 C 354.839844 589.898438 323.078125 600.46875 292.972656 600.46875 C 281.664062 600.46875 270.609375 598.976562 260.539062 596.152344 C 220.363281 584.898438 196.394531 555.398438 196.394531 517.238281 L 196.394531 511.132812 L 142.238281 511.132812 C 63.808594 511.132812 0 574.898438 0 653.292969 L 0 795.503906 L 108.917969 795.503906 L 108.917969 679.882812 C 108.917969 673.410156 114.152344 668.175781 120.628906 668.175781 C 127.101562 668.175781 132.335938 673.410156 132.335938 679.882812 L 132.335938 795.503906 L 454.210938 795.503906 L 454.210938 679.882812 C 454.210938 673.410156 459.464844 668.175781 465.9375 668.175781 C 472.394531 668.175781 477.644531 673.410156 477.644531 679.882812 L 477.644531 795.503906 L 586.597656 795.503906 L 586.597656 653.292969 C 586.597656 620.703125 575.324219 589.296875 554.769531 563.992188 C 524.460938 574.160156 492.914062 579.195312 461.453125 579.195312 Z M 461.453125 579.195312 "/></g><path style=" stroke:none;fill-rule:nonzero;fill:#203b72;fill-opacity:1;" d="M 803.128906 650.9375 L 669.457031 492.488281 C 663.367188 498.640625 656.980469 504.578125 650.238281 510.261719 C 637.507812 520.984375 624.144531 530.429688 610.261719 538.625 L 745.84375 699.246094 C 750.527344 704.816406 757.132812 708.226562 764.441406 708.847656 C 771.753906 709.464844 778.859375 707.222656 784.445312 702.542969 L 799.820312 689.53125 C 805.40625 684.832031 808.800781 678.226562 809.421875 670.902344 C 810.054688 663.578125 807.8125 656.488281 803.128906 650.9375 Z M 803.128906 650.9375 "/><path style=" stroke:none;fill-rule:nonzero;fill:#203b72;fill-opacity:1;" d="M 221.703125 161.992188 C 221.402344 162.808594 221.019531 163.597656 220.53125 164.296875 C 208.957031 187.140625 200.679688 211.640625 195.976562 237.261719 C 195.976562 237.34375 195.976562 237.429688 195.960938 237.527344 C 195.910156 237.960938 195.808594 238.398438 195.710938 238.832031 C 194.273438 246.941406 193.183594 255.167969 192.480469 263.496094 C 188.917969 305.457031 195.058594 346.746094 210.027344 384.820312 C 210.410156 385.542969 210.710938 386.3125 210.929688 387.113281 C 221.519531 413.300781 236.320312 437.933594 255.070312 460.140625 C 308.34375 523.269531 384.644531 555.78125 461.433594 555.78125 C 522.867188 555.796875 584.605469 534.976562 635.132812 492.367188 C 748.789062 396.460938 763.238281 226.019531 667.347656 112.421875 C 614.078125 49.292969 537.789062 16.765625 460.984375 16.765625 C 399.566406 16.765625 337.8125 37.566406 287.285156 80.160156 C 259.871094 103.308594 237.757812 131.085938 221.703125 161.992188 Z M 316.65625 114.984375 C 340.207031 95.117188 366.699219 80.953125 394.433594 72.355469 C 394.902344 72.171875 395.386719 72.003906 395.902344 71.871094 C 395.988281 71.855469 396.085938 71.855469 396.171875 71.820312 C 479.25 46.785156 573.097656 71.351562 632.523438 141.738281 C 712.222656 236.207031 700.214844 377.898438 605.761719 457.601562 C 563.746094 493.003906 512.429688 510.292969 461.367188 510.292969 C 432.148438 510.292969 403.011719 504.609375 375.746094 493.421875 C 374.996094 493.203125 374.277344 492.902344 373.574219 492.535156 C 342.164062 479.257812 313.34375 458.589844 289.894531 430.777344 C 277.902344 416.597656 268.015625 401.3125 260.140625 385.355469 C 259.988281 385.089844 259.855469 384.804688 259.738281 384.519531 C 242.34375 348.882812 235.117188 309.820312 237.675781 271.421875 C 237.65625 271.238281 237.640625 271.039062 237.640625 270.835938 C 237.640625 270.019531 237.726562 269.214844 237.894531 268.429688 C 238.628906 259.148438 239.933594 249.917969 241.824219 240.789062 C 241.910156 239.714844 242.125 238.695312 242.492188 237.742188 C 247.613281 214.566406 256.410156 192.105469 268.785156 171.320312 C 281.164062 150.535156 297.152344 131.4375 316.65625 114.984375 Z M 316.65625 114.984375 "/><g clip-rule="nonzero" clip-path="url(#d529c02c79)"><path style=" stroke:none;fill-rule:nonzero;fill:#203b72;fill-opacity:1;" d="M 272.179688 62.273438 L 272.199219 62.273438 C 286.53125 50.183594 301.71875 39.710938 317.507812 30.832031 C 285.34375 34.914062 251.890625 29.429688 216.617188 14.34375 L 184.804688 146.171875 L 203.753906 146.171875 C 220.664062 115.03125 243.511719 86.46875 272.179688 62.273438 Z M 272.179688 62.273438 "/></g><path style=" stroke:none;fill-rule:nonzero;fill:#203b72;fill-opacity:1;" d="M 145.230469 304.769531 C 145.230469 329.890625 148.726562 353.917969 155.097656 376.0625 C 159.917969 377.683594 165.152344 378.535156 170.503906 378.535156 L 183 378.535156 C 172.695312 347.382812 167.8125 314.9375 168.230469 282.628906 C 159.816406 283.015625 151.902344 285.488281 145.699219 289.671875 C 145.414062 294.671875 145.230469 299.722656 145.230469 304.769531 Z M 145.230469 304.769531 "/><path style=" stroke:none;fill-rule:nonzero;fill:#203b72;fill-opacity:1;" d="M 215.0625 473.339844 C 215.449219 473.625 215.816406 473.925781 216.167969 474.257812 C 223.140625 479.996094 230.484375 484.960938 238.144531 489.09375 C 238.175781 489.109375 238.210938 489.144531 238.246094 489.160156 C 244.734375 492.65625 251.441406 495.546875 258.347656 497.789062 C 250.972656 490.730469 243.898438 483.222656 237.171875 475.261719 C 218.054688 452.605469 203.003906 427.886719 191.878906 401.949219 L 170.503906 401.949219 C 168.34375 401.949219 166.203125 401.832031 164.078125 401.648438 C 176.308594 430.894531 193.902344 455.597656 215.0625 473.339844 Z M 215.0625 473.339844 "/><path style=" stroke:none;fill-rule:nonzero;fill:#203b72;fill-opacity:1;" d="M 171.007812 246.039062 C 165.320312 245.203125 159.128906 244.214844 152.589844 243.078125 C 151.019531 249.484375 149.714844 255.972656 148.644531 262.527344 C 155.25 260.421875 162.308594 259.25 169.5 259.148438 C 169.902344 254.769531 170.402344 250.390625 171.007812 246.039062 Z M 171.007812 246.039062 "/></g></svg>