<svg xmlns="http://www.w3.org/2000/svg" xmlns:xlink="http://www.w3.org/1999/xlink" width="1080" zoomAndPan="magnify" viewBox="0 0 810 809.999993" height="1080" preserveAspectRatio="xMidYMid meet" version="1.2"><defs><clipPath id="5d251d74ba"><path d="M 8.4375 0 L 678 0 L 678 810 L 8.4375 810 Z M 8.4375 0 "/></clipPath></defs><g id="c0db4ec549"><path style=" stroke:none;fill-rule:evenodd;fill:#129cd8;fill-opacity:1;" d="M 336.054688 285.121094 C 359.746094 259.402344 379.421875 229.058594 397.089844 199.375 L 516.246094 405.707031 C 481.988281 406.167969 447.375 409.230469 413.363281 418.472656 C 412.789062 416.699219 412.023438 414.957031 411.054688 413.28125 L 340.167969 290.53125 C 339.003906 288.515625 337.617188 286.707031 336.054688 285.121094 Z M 532.777344 211.648438 C 549.304688 209.160156 566.414062 216.777344 575.277344 232.121094 C 584.136719 247.464844 582.175781 266.085938 571.761719 279.152344 Z M 801.761719 360.152344 C 803.976562 360.152344 806.105469 361.03125 807.671875 362.601562 C 809.238281 364.167969 810.121094 366.292969 810.121094 368.511719 L 810.121094 801.152344 C 810.121094 803.367188 809.238281 805.492188 807.671875 807.0625 C 806.105469 808.628906 803.976562 809.507812 801.761719 809.507812 L 699.527344 809.507812 C 697.308594 809.507812 695.183594 808.628906 693.613281 807.0625 C 692.046875 805.492188 691.164062 803.367188 691.164062 801.152344 L 691.164062 368.511719 C 691.164062 366.292969 692.046875 364.167969 693.613281 362.601562 C 695.183594 361.03125 697.308594 360.152344 699.527344 360.152344 Z M 434.835938 602.402344 C 439.453125 602.402344 443.195312 606.144531 443.195312 610.761719 L 443.195312 801.152344 C 443.195312 805.765625 439.453125 809.507812 434.835938 809.507812 L 332.601562 809.507812 C 327.980469 809.507812 324.238281 805.765625 324.238281 801.152344 L 324.238281 610.761719 C 324.238281 606.144531 327.980469 602.402344 332.601562 602.402344 Z M 434.835938 602.402344 "/><g clip-rule="nonzero" clip-path="url(#5d251d74ba)"><path style=" stroke:none;fill-rule:evenodd;fill:#204185;fill-opacity:1;" d="M 190.542969 408.308594 C 113.96875 408.308594 42.203125 408.308594 17.03125 408.308594 C 14.605469 408.308594 12.296875 407.253906 10.707031 405.417969 C 9.121094 403.582031 8.410156 401.148438 8.757812 398.746094 C 24.34375 297.664062 111.691406 220.246094 217.121094 220.246094 C 258.269531 220.246094 296.664062 232.027344 329.105469 252.402344 C 320.445312 263.023438 311.191406 273.050781 301.203125 282.140625 C 301.199219 282.144531 239.125 317.972656 239.125 317.972656 C 206.183594 336.988281 188.53125 372.628906 190.542969 408.308594 Z M 217.121094 213.625 C 158.425781 213.625 110.585938 165.738281 110.585938 107.058594 C 110.585938 48.378906 158.425781 0.492188 217.121094 0.492188 C 275.871094 0.492188 323.710938 48.378906 323.710938 107.058594 C 323.710938 165.738281 275.871094 213.625 217.121094 213.625 Z M 401.261719 449.816406 L 452.539062 538.609375 L 440.730469 545.429688 C 422.164062 556.144531 398.242188 549.738281 387.523438 531.175781 L 355.71875 476.105469 Z M 596 374.621094 C 600.042969 381.617188 599.945312 389.640625 595.757812 396.53125 C 591.570312 403.417969 584.554688 407.207031 576.464844 406.890625 C 566.785156 406.515625 557.03125 406.121094 547.238281 405.878906 L 412.625 172.777344 C 417.703125 163.949219 422.714844 155.351562 427.554688 147.121094 C 431.59375 140.316406 438.328125 136.492188 446.203125 136.546875 C 454.078125 136.601562 460.796875 140.496094 464.726562 147.300781 Z M 387.886719 426.652344 L 323.386719 463.882812 C 289.605469 483.382812 246.03125 471.664062 226.558594 437.941406 C 207.082031 404.21875 218.722656 360.632812 252.503906 341.136719 L 317 303.90625 Z M 568.734375 170.234375 C 566.824219 177.363281 559.480469 181.601562 552.351562 179.691406 C 545.21875 177.78125 540.980469 170.441406 542.894531 163.3125 L 553.390625 124.144531 C 555.300781 117.015625 562.640625 112.777344 569.773438 114.6875 C 576.902344 116.597656 581.140625 123.9375 579.230469 131.066406 Z M 621.101562 299.316406 C 613.96875 297.402344 609.738281 290.058594 611.65625 282.929688 C 613.574219 275.800781 620.917969 271.574219 628.050781 273.492188 L 667.253906 284.035156 C 674.382812 285.949219 678.613281 293.292969 676.695312 300.421875 C 674.777344 307.546875 667.433594 311.78125 660.304688 309.863281 Z M 621.636719 223.976562 C 615.246094 227.667969 607.058594 225.472656 603.367188 219.082031 C 599.675781 212.691406 601.871094 204.503906 608.261719 200.8125 L 643.453125 180.5 C 649.847656 176.8125 658.035156 179.003906 661.722656 185.398438 C 665.414062 191.789062 663.222656 199.972656 656.828125 203.664062 Z M 618.296875 498.777344 C 620.515625 498.777344 622.640625 499.65625 624.207031 501.226562 C 625.777344 502.792969 626.65625 504.917969 626.65625 507.136719 L 626.65625 801.152344 C 626.65625 803.367188 625.777344 805.492188 624.207031 807.0625 C 622.640625 808.628906 620.515625 809.507812 618.296875 809.507812 L 516.0625 809.507812 C 513.847656 809.507812 511.71875 808.628906 510.152344 807.0625 C 508.582031 805.492188 507.703125 803.367188 507.703125 801.152344 L 507.703125 507.136719 C 507.703125 504.917969 508.582031 502.792969 510.152344 501.226562 C 511.71875 499.65625 513.847656 498.777344 516.0625 498.777344 Z M 251.371094 679.304688 C 253.589844 679.304688 255.714844 680.1875 257.285156 681.753906 C 258.851562 683.320312 259.730469 685.445312 259.730469 687.664062 L 259.730469 801.152344 C 259.730469 803.367188 258.851562 805.492188 257.285156 807.0625 C 255.714844 808.628906 253.589844 809.507812 251.371094 809.507812 L 149.136719 809.507812 C 146.921875 809.507812 144.792969 808.628906 143.226562 807.0625 C 141.660156 805.492188 140.777344 803.367188 140.777344 801.152344 L 140.777344 687.664062 C 140.777344 685.445312 141.660156 683.320312 143.226562 681.753906 C 144.792969 680.1875 146.921875 679.304688 149.136719 679.304688 Z M 251.371094 679.304688 "/></g></g></svg>