<svg xmlns="http://www.w3.org/2000/svg" xmlns:xlink="http://www.w3.org/1999/xlink" width="1080" zoomAndPan="magnify" viewBox="0 0 810 809.999993" height="1080" preserveAspectRatio="xMidYMid meet" version="1.2"><defs><clipPath id="ec4c069d6c"><path d="M 125 28.855469 L 810 28.855469 L 810 515 L 125 515 Z M 125 28.855469 "/></clipPath><clipPath id="1ad65db28b"><path d="M 0 411 L 370 411 L 370 781.105469 L 0 781.105469 Z M 0 411 "/></clipPath><clipPath id="5bca0c1229"><path d="M 349 411 L 720 411 L 720 781.105469 L 349 781.105469 Z M 349 411 "/></clipPath></defs><g id="8af5e10e9f"><path style=" stroke:none;fill-rule:evenodd;fill:#0c9dbd;fill-opacity:1;" d="M 315.238281 331.230469 L 315.238281 669.042969 L 221.695312 669.042969 L 221.695312 424.949219 Z M 650.90625 195.964844 L 650.90625 669.042969 L 557.363281 669.042969 L 557.363281 289.5 L 563.480469 283.382812 Z M 483.070312 325.65625 L 483.070312 669.042969 L 389.53125 669.042969 L 389.53125 271.152344 L 409.136719 251.546875 Z M 483.070312 325.65625 "/><g clip-rule="nonzero" clip-path="url(#ec4c069d6c)"><path style=" stroke:none;fill-rule:evenodd;fill:#d04d4d;fill-opacity:1;" d="M 409.136719 175.816406 L 508.433594 275.289062 L 669.972656 113.757812 L 634.175781 77.964844 L 721.960938 53.5 L 809.746094 28.855469 L 785.28125 116.636719 L 760.636719 204.417969 L 724.839844 168.621094 L 563.480469 330.152344 L 508.433594 385.015625 L 409.136719 285.542969 L 180.320312 514.347656 L 125.457031 459.304688 Z M 409.136719 175.816406 "/></g><path style=" stroke:none;fill-rule:evenodd;fill:#fcb13b;fill-opacity:1;" d="M 44.6875 428.183594 L 86.421875 469.917969 C 78.867188 475.851562 71.492188 482.328125 64.65625 489.164062 C 57.640625 496.179688 51.34375 503.375 45.40625 510.929688 L 3.671875 469.199219 Z M 324.949219 428.183594 L 283.21875 469.917969 C 290.773438 475.851562 298.148438 482.328125 304.984375 489.164062 C 312 496.179688 318.472656 503.375 324.230469 510.929688 L 365.964844 469.199219 Z M 324.949219 428.183594 "/><path style=" stroke:none;fill-rule:evenodd;fill:#fcb13b;fill-opacity:1;" d="M 141.464844 328.53125 L 227.992188 328.53125 C 241.84375 328.53125 253.175781 339.867188 253.175781 353.714844 C 253.175781 367.566406 241.84375 378.898438 227.992188 378.898438 L 141.464844 378.898438 C 127.613281 378.898438 116.28125 367.566406 116.28125 353.714844 C 116.28125 339.867188 127.613281 328.53125 141.464844 328.53125 Z M 141.464844 328.53125 "/><path style=" stroke:none;fill-rule:evenodd;fill:#ffcd05;fill-opacity:1;" d="M 208.5625 378.898438 L 208.5625 427.105469 C 200.828125 426.207031 192.914062 425.667969 184.820312 425.667969 C 176.722656 425.667969 168.808594 426.207031 161.074219 427.105469 L 161.074219 378.898438 Z M 208.5625 378.898438 "/><g clip-rule="nonzero" clip-path="url(#1ad65db28b)"><path style=" stroke:none;fill-rule:evenodd;fill:#ffcd05;fill-opacity:1;" d="M 184.820312 411.996094 C 286.632812 411.996094 369.382812 494.558594 369.382812 596.550781 C 369.382812 698.542969 286.816406 781.105469 184.820312 781.105469 C 82.824219 781.105469 0.253906 698.363281 0.253906 596.550781 C 0.253906 494.558594 82.824219 411.996094 184.820312 411.996094 Z M 184.820312 411.996094 "/></g><path style=" stroke:none;fill-rule:evenodd;fill:#ffffff;fill-opacity:1;" d="M 184.820312 458.40625 C 260.910156 458.40625 322.792969 520.28125 322.792969 596.371094 C 322.792969 672.640625 260.910156 734.339844 184.820312 734.339844 C 108.546875 734.339844 46.847656 672.460938 46.847656 596.371094 C 46.847656 520.28125 108.546875 458.40625 184.820312 458.40625 Z M 184.820312 458.40625 "/><path style=" stroke:none;fill-rule:nonzero;fill:#d04d4d;fill-opacity:1;" d="M 177.625 481.789062 C 177.625 477.832031 180.863281 474.59375 184.820312 474.59375 C 188.777344 474.59375 192.015625 477.832031 192.015625 481.789062 L 192.015625 490.601562 C 192.015625 494.558594 188.777344 497.796875 184.820312 497.796875 C 180.863281 497.796875 177.625 494.558594 177.625 490.601562 Z M 287.714844 647.636719 C 291.132812 649.617188 292.390625 653.933594 290.230469 657.53125 C 288.253906 660.949219 283.9375 662.207031 280.519531 660.046875 L 272.785156 655.550781 C 269.367188 653.574219 268.105469 649.253906 270.265625 645.835938 C 272.242188 642.421875 276.5625 641.160156 279.980469 643.320312 Z M 299.40625 589.355469 C 303.363281 589.355469 306.601562 592.59375 306.601562 596.550781 C 306.601562 600.507812 303.363281 603.746094 299.40625 603.746094 L 290.59375 603.746094 C 286.632812 603.746094 283.398438 600.507812 283.398438 596.550781 C 283.398438 592.59375 286.632812 589.355469 290.59375 589.355469 Z M 280.519531 532.875 C 283.9375 530.894531 288.253906 531.976562 290.230469 535.574219 C 292.210938 538.992188 291.132812 543.308594 287.714844 545.285156 L 279.980469 549.601562 C 276.5625 551.582031 272.0625 550.503906 270.265625 547.085938 C 268.285156 543.667969 269.367188 539.351562 272.785156 537.371094 Z M 121.320312 500.855469 C 119.339844 497.4375 120.417969 493.121094 124.015625 491.144531 C 127.433594 489.164062 131.753906 490.242188 133.730469 493.660156 L 138.226562 501.394531 C 140.207031 504.8125 138.949219 509.128906 135.53125 511.109375 C 132.113281 513.085938 127.796875 512.007812 125.816406 508.410156 Z M 81.925781 545.464844 C 78.507812 543.488281 77.246094 539.171875 79.226562 535.753906 C 81.203125 532.335938 85.523438 531.074219 88.941406 533.054688 L 96.675781 537.550781 C 100.09375 539.53125 101.351562 543.847656 99.371094 547.265625 C 97.394531 550.683594 93.078125 551.941406 89.660156 549.78125 Z M 70.230469 603.746094 C 66.273438 603.746094 63.035156 600.507812 63.035156 596.550781 C 63.035156 592.59375 66.273438 589.355469 70.230469 589.355469 L 79.046875 589.355469 C 83.003906 589.355469 86.242188 592.59375 86.242188 596.550781 C 86.242188 600.507812 83.003906 603.746094 79.046875 603.746094 Z M 89.121094 660.046875 C 85.703125 662.027344 81.382812 660.769531 79.40625 657.351562 C 77.425781 653.933594 78.6875 649.617188 82.105469 647.636719 L 89.839844 643.320312 C 93.257812 641.339844 97.574219 642.421875 99.554688 645.835938 C 101.53125 649.253906 100.273438 653.753906 96.855469 655.550781 Z M 133.730469 699.261719 C 131.753906 702.679688 127.433594 703.9375 124.015625 701.960938 C 120.597656 699.980469 119.339844 695.484375 121.5 692.066406 L 125.816406 684.332031 C 127.796875 680.914062 132.113281 679.65625 135.710938 681.8125 C 139.128906 683.792969 140.386719 688.109375 138.226562 691.527344 Z M 192.015625 711.132812 C 192.015625 715.089844 188.777344 718.328125 184.820312 718.328125 C 180.863281 718.328125 177.625 715.089844 177.625 711.132812 L 177.625 702.320312 C 177.625 698.363281 180.863281 695.125 184.820312 695.125 C 188.777344 695.125 192.015625 698.363281 192.015625 702.320312 Z M 248.320312 692.066406 C 250.296875 695.484375 249.21875 699.980469 245.800781 701.960938 C 242.382812 703.9375 238.066406 702.859375 236.085938 699.261719 L 231.589844 691.527344 C 229.609375 688.109375 230.691406 683.792969 234.109375 681.8125 C 237.527344 679.835938 242.023438 680.914062 244 684.332031 Z M 235.90625 493.660156 C 237.886719 490.242188 242.203125 488.984375 245.621094 491.144531 C 249.039062 493.121094 250.296875 497.4375 248.140625 500.855469 L 243.820312 508.589844 C 241.84375 512.007812 237.527344 513.269531 233.929688 511.109375 C 230.511719 509.128906 229.25 504.8125 231.410156 501.394531 Z M 235.90625 493.660156 "/><path style=" stroke:none;fill-rule:nonzero;fill:#d04d4d;fill-opacity:1;" d="M 177.625 515.605469 C 177.625 511.648438 180.863281 508.410156 184.820312 508.410156 C 188.777344 508.410156 192.015625 511.648438 192.015625 515.605469 L 192.195312 592.59375 L 240.402344 623.53125 C 243.640625 625.691406 244.722656 630.1875 242.5625 633.425781 C 240.402344 636.84375 235.90625 637.742188 232.667969 635.585938 L 181.042969 602.488281 C 179.0625 601.226562 177.804688 599.070312 177.804688 596.550781 Z M 177.625 515.605469 "/><path style=" stroke:none;fill-rule:evenodd;fill:#d04d4d;fill-opacity:1;" d="M 184.820312 568.308594 C 200.289062 568.308594 213.0625 580.902344 213.0625 596.550781 C 213.0625 612.199219 200.46875 624.792969 184.820312 624.792969 C 169.167969 624.792969 156.578125 612.199219 156.578125 596.550781 C 156.578125 580.902344 169.167969 568.308594 184.820312 568.308594 Z M 184.820312 568.308594 "/><g clip-rule="nonzero" clip-path="url(#5bca0c1229)"><path style=" stroke:none;fill-rule:evenodd;fill:#686868;fill-opacity:1;" d="M 534.519531 411.996094 C 636.515625 411.996094 719.082031 494.558594 719.082031 596.550781 C 719.082031 698.542969 636.515625 781.105469 534.519531 781.105469 C 432.523438 781.105469 349.953125 698.542969 349.953125 596.550781 C 350.132812 494.558594 432.703125 411.996094 534.519531 411.996094 Z M 534.519531 411.996094 "/></g><path style=" stroke:none;fill-rule:evenodd;fill:#b3b4b4;fill-opacity:1;" d="M 562.941406 499.417969 C 578.769531 504.09375 592.980469 512.367188 604.675781 523.519531 L 635.433594 513.449219 L 657.199219 551.042969 L 633.097656 572.449219 C 637.054688 588.277344 637.054688 604.824219 633.097656 620.65625 L 657.199219 642.242188 L 635.253906 679.65625 L 604.492188 669.582031 C 592.980469 680.734375 578.589844 689.007812 562.761719 693.683594 L 556.105469 725.34375 C 541.535156 725.34375 527.144531 725.34375 512.570312 725.34375 L 505.917969 693.683594 C 490.085938 689.007812 475.875 680.734375 464.183594 669.582031 L 433.421875 679.65625 L 412.195312 642.058594 L 436.300781 620.476562 C 432.34375 604.644531 432.34375 588.097656 436.300781 572.269531 L 412.195312 551.042969 L 433.960938 513.449219 L 464.722656 523.519531 C 476.234375 512.367188 490.625 504.09375 506.457031 499.417969 L 513.113281 467.757812 C 527.683594 467.757812 542.074219 467.757812 556.644531 467.757812 Z M 534.519531 540.789062 C 565.277344 540.789062 590.101562 565.613281 590.101562 596.371094 C 590.101562 627.128906 565.277344 651.953125 534.519531 651.953125 C 503.757812 651.953125 478.933594 627.128906 478.933594 596.371094 C 478.933594 565.792969 503.757812 540.789062 534.519531 540.789062 Z M 534.519531 540.789062 "/></g></svg>