<svg xmlns="http://www.w3.org/2000/svg" xmlns:xlink="http://www.w3.org/1999/xlink" width="1080" zoomAndPan="magnify" viewBox="0 0 810 809.999993" height="1080" preserveAspectRatio="xMidYMid meet" version="1.2"><defs><clipPath id="2f3f8b94fc"><path d="M 23 673 L 746 673 L 746 778.96875 L 23 778.96875 Z M 23 673 "/></clipPath><clipPath id="074923195c"><path d="M 427 31.21875 L 784 31.21875 L 784 288 L 427 288 Z M 427 31.21875 "/></clipPath></defs><g id="cc350502c2"><path style=" stroke:none;fill-rule:nonzero;fill:#64d4f2;fill-opacity:1;" d="M 177.394531 342.578125 C 177.394531 342.578125 179.753906 322.269531 190.136719 318.175781 C 200.523438 314.085938 257.804688 328.878906 263.789062 333.28125 C 269.769531 337.6875 271.035156 356.570312 271.035156 356.570312 C 271.035156 356.570312 333.675781 371.363281 348.152344 399.078125 C 362.628906 426.789062 406.855469 560.265625 406.855469 560.265625 L 517.8125 576.792969 L 517.8125 647.167969 L 362.957031 647.167969 L 382.789062 776.882812 L 65.5 776.882812 L 84.378906 608.753906 C 84.378906 608.753906 21.429688 604.347656 17.648438 579.152344 C 13.871094 553.953125 82.492188 390.890625 98.234375 374.519531 C 113.976562 358.148438 177.394531 342.558594 177.394531 342.558594 Z M 177.394531 342.578125 "/><path style=" stroke:none;fill-rule:nonzero;fill:#363634;fill-opacity:1;" d="M 295.273438 776.882812 L 39.0625 776.882812 L 2.757812 598.609375 C 0.0351562 585.308594 10.210938 572.855469 23.785156 572.855469 L 244.820312 572.855469 C 255.378906 572.855469 264.359375 580.558594 266.007812 590.980469 L 295.253906 776.863281 Z M 295.273438 776.882812 "/><path style=" stroke:none;fill-rule:nonzero;fill:#363634;fill-opacity:1;" d="M 362.941406 648.898438 C 362.941406 648.898438 362.851562 648.898438 362.800781 648.898438 C 361.777344 648.8125 337.59375 646.855469 323.203125 636.292969 C 304.773438 622.785156 274.988281 482.089844 274.691406 480.667969 C 264.480469 432.113281 299.746094 412.238281 300.109375 412.046875 C 300.941406 411.597656 302 411.910156 302.46875 412.742188 C 302.933594 413.574219 302.625 414.632812 301.773438 415.101562 C 300.402344 415.84375 268.417969 434.003906 278.089844 479.957031 C 289.535156 534.339844 312.46875 624.101562 325.265625 633.5 C 338.859375 643.472656 362.851562 645.433594 363.09375 645.449219 C 364.050781 645.519531 364.761719 646.351562 364.691406 647.304688 C 364.621094 648.207031 363.859375 648.902344 362.957031 648.902344 Z M 362.941406 648.898438 "/><path style=" stroke:none;fill-rule:nonzero;fill:#363634;fill-opacity:1;" d="M 374.589844 581.214844 C 374.207031 581.214844 373.808594 581.078125 373.480469 580.816406 C 372.734375 580.210938 372.648438 579.117188 373.253906 578.371094 C 382.601562 567.101562 406.683594 559.15625 407.703125 558.828125 C 408.625 558.53125 409.59375 559.035156 409.890625 559.9375 C 410.183594 560.855469 409.679688 561.828125 408.78125 562.121094 C 408.535156 562.210938 384.628906 570.082031 375.925781 580.574219 C 375.578125 580.992188 375.09375 581.199219 374.589844 581.199219 Z M 374.589844 581.214844 "/><path style=" stroke:none;fill-rule:nonzero;fill:#363634;fill-opacity:1;" d="M 492.3125 648.898438 C 492.3125 648.898438 492.222656 648.898438 492.171875 648.898438 C 491.21875 648.832031 490.507812 648 490.578125 647.042969 L 496.28125 573.722656 C 496.351562 572.769531 497.199219 572.078125 498.136719 572.128906 C 499.089844 572.199219 499.800781 573.03125 499.730469 573.984375 L 494.027344 647.304688 C 493.957031 648.207031 493.195312 648.898438 492.292969 648.898438 Z M 492.3125 648.898438 "/><path style=" stroke:none;fill-rule:nonzero;fill:#363634;fill-opacity:1;" d="M 107.664062 575.597656 C 106.761719 575.597656 106 574.902344 105.929688 573.984375 C 102.203125 522.828125 84.746094 451.847656 84.570312 451.136719 C 84.347656 450.199219 84.902344 449.261719 85.835938 449.039062 C 86.757812 448.8125 87.710938 449.367188 87.933594 450.304688 C 88.109375 451.015625 105.636719 522.273438 109.382812 573.742188 C 109.449219 574.695312 108.738281 575.527344 107.785156 575.597656 C 107.75 575.597656 107.699219 575.597656 107.664062 575.597656 Z M 107.664062 575.597656 "/><path style=" stroke:none;fill-rule:nonzero;fill:#363634;fill-opacity:1;" d="M 271.035156 358.324219 C 270.859375 358.324219 270.6875 358.289062 270.515625 358.238281 C 242.828125 349.480469 177.914062 344.347656 177.257812 344.292969 C 176.304688 344.222656 175.59375 343.390625 175.660156 342.4375 C 175.730469 341.484375 176.582031 340.773438 177.515625 340.84375 C 180.203125 341.050781 243.484375 346.0625 271.539062 354.925781 C 272.457031 355.21875 272.957031 356.191406 272.664062 357.09375 C 272.4375 357.835938 271.746094 358.304688 271.015625 358.304688 Z M 271.035156 358.324219 "/><path style=" stroke:none;fill-rule:nonzero;fill:#363634;fill-opacity:1;" d="M 539.851562 642.3125 C 523.96875 642.3125 517.171875 638.199219 516.878906 638.027344 L 516.0625 637.523438 L 516.0625 585.5 L 517.519531 585.257812 C 518.578125 585.082031 543.542969 580.972656 553.0625 581.457031 C 563.097656 581.960938 584.425781 583.660156 593.160156 586.503906 C 601.222656 589.125 632.65625 615.363281 636.054688 625.125 C 636.59375 626.703125 636.539062 628.003906 635.863281 629.027344 C 632.136719 634.628906 617.730469 630.484375 611.503906 628.367188 C 610.933594 631.003906 608.78125 634.140625 603.164062 635.425781 C 596.925781 636.847656 586.347656 634.679688 579.34375 633.242188 C 576.707031 632.703125 574.4375 632.234375 573.398438 632.164062 C 572.445312 632.132812 569.914062 633.398438 567.449219 634.628906 C 561.453125 637.628906 552.402344 642.15625 541.183594 642.328125 C 540.734375 642.328125 540.285156 642.328125 539.832031 642.328125 Z M 519.53125 635.496094 C 521.75 636.5 528.511719 639.050781 541.148438 638.84375 C 551.570312 638.6875 560.203125 634.367188 565.90625 631.507812 C 569.425781 629.738281 571.75 628.558594 573.621094 628.679688 C 574.90625 628.75 577.175781 629.21875 580.074219 629.824219 C 586.78125 631.210938 596.90625 633.292969 602.421875 632.027344 C 608.957031 630.535156 608.226562 626.441406 608.195312 626.269531 L 607.585938 623.21875 L 610.5 624.308594 C 618.351562 627.257812 630.941406 630.1875 633.003906 627.101562 C 634.199219 622.59375 601.742188 592.921875 592.121094 589.800781 C 583.714844 587.078125 562.804688 585.414062 552.90625 584.925781 C 545.035156 584.546875 525.09375 587.582031 519.546875 588.445312 L 519.546875 635.496094 Z M 519.53125 635.496094 "/><path style=" stroke:none;fill-rule:nonzero;fill:#363634;fill-opacity:1;" d="M 609.859375 627.65625 C 609.441406 627.65625 609.027344 627.5 608.695312 627.207031 C 608.558594 627.085938 594.84375 614.5625 585.5 610.019531 C 576.328125 605.546875 559.113281 606.171875 558.9375 606.1875 C 557.949219 606.222656 557.167969 605.476562 557.136719 604.523438 C 557.101562 603.570312 557.847656 602.753906 558.800781 602.71875 C 559.542969 602.683594 577.054688 602.042969 587.007812 606.917969 C 596.804688 611.683594 610.445312 624.136719 611.019531 624.675781 C 611.730469 625.316406 611.78125 626.425781 611.125 627.121094 C 610.777344 627.5 610.308594 627.675781 609.839844 627.675781 Z M 609.859375 627.65625 "/><path style=" stroke:none;fill-rule:nonzero;fill:#363634;fill-opacity:1;" d="M 619.515625 609.949219 C 619.117188 609.949219 618.71875 609.8125 618.40625 609.550781 C 605.4375 598.660156 574.507812 593.683594 574.195312 593.632812 C 573.242188 593.476562 572.601562 592.59375 572.757812 591.65625 C 572.910156 590.71875 573.796875 590.078125 574.734375 590.214844 C 576.03125 590.425781 606.945312 595.402344 620.640625 606.898438 C 621.371094 607.523438 621.472656 608.617188 620.851562 609.34375 C 620.503906 609.761719 620.015625 609.96875 619.515625 609.96875 Z M 619.515625 609.949219 "/><path style=" stroke:none;fill-rule:nonzero;fill:#363634;fill-opacity:1;" d="M 780.613281 676.613281 L 367.621094 676.613281 C 366.667969 676.613281 365.886719 675.832031 365.886719 674.878906 C 365.886719 673.925781 366.667969 673.144531 367.621094 673.144531 L 777.144531 673.144531 L 777.144531 648.898438 L 517.796875 648.898438 C 516.84375 648.898438 516.0625 648.121094 516.0625 647.167969 C 516.0625 646.210938 516.84375 645.433594 517.796875 645.433594 L 780.613281 645.433594 Z M 780.613281 676.613281 "/><g clip-rule="nonzero" clip-path="url(#2f3f8b94fc)"><path style=" stroke:none;fill-rule:nonzero;fill:#363634;fill-opacity:1;" d="M 745.679688 778.617188 L 25.191406 778.617188 C 24.238281 778.617188 23.457031 777.835938 23.457031 776.882812 C 23.457031 775.929688 24.238281 775.148438 25.191406 775.148438 L 742.210938 775.148438 L 742.210938 674.878906 C 742.210938 673.925781 742.992188 673.144531 743.945312 673.144531 C 744.898438 673.144531 745.679688 673.925781 745.679688 674.878906 Z M 745.679688 778.617188 "/></g><path style=" stroke:none;fill-rule:nonzero;fill:#363634;fill-opacity:1;" d="M 770.070312 565.15625 L 458.46875 565.15625 C 454.375 565.15625 450.699219 563.5625 448.082031 560.664062 C 445.449219 557.753906 444.25 553.867188 444.667969 549.757812 L 467.640625 331.183594 C 468.507812 322.894531 475.980469 316.132812 484.265625 316.132812 L 795.871094 316.132812 C 799.960938 316.132812 803.636719 317.726562 806.253906 320.621094 C 808.890625 323.535156 810.105469 327.421875 809.671875 331.53125 L 786.699219 550.105469 C 785.832031 558.394531 778.359375 565.15625 770.070312 565.15625 Z M 484.265625 319.582031 C 477.695312 319.582031 471.785156 324.941406 471.089844 331.53125 L 448.117188 550.105469 C 447.789062 553.226562 448.691406 556.15625 450.648438 558.324219 C 452.589844 560.492188 455.363281 561.671875 458.46875 561.671875 L 770.070312 561.671875 C 776.644531 561.671875 782.554688 556.3125 783.25 549.722656 L 806.21875 331.148438 C 806.550781 328.027344 805.648438 325.097656 803.6875 322.929688 C 801.746094 320.761719 798.972656 319.582031 795.886719 319.582031 Z M 484.265625 319.582031 "/><path style=" stroke:none;fill-rule:nonzero;fill:#363634;fill-opacity:1;" d="M 785.96875 332.015625 L 491.21875 332.015625 C 488.046875 332.015625 485.21875 334.601562 484.890625 337.773438 L 466.703125 510.808594 L 772.898438 510.808594 L 791.085938 337.773438 C 791.414062 334.601562 789.109375 332.015625 785.96875 332.015625 Z M 766.378906 359.46875 L 753.359375 483.355469 C 752.925781 487.554688 749.164062 490.953125 744.984375 490.953125 L 650.394531 490.953125 C 646.195312 490.953125 643.144531 487.554688 643.597656 483.355469 L 656.617188 359.46875 C 657.050781 355.289062 660.8125 351.890625 664.992188 351.890625 L 759.582031 351.890625 C 763.777344 351.890625 766.828125 355.289062 766.378906 359.46875 Z M 766.378906 359.46875 "/><path style=" stroke:none;fill-rule:nonzero;fill:#363634;fill-opacity:1;" d="M 763.136719 550.988281 L 468.386719 550.988281 C 466.355469 550.988281 464.535156 550.191406 463.234375 548.753906 C 461.9375 547.296875 461.328125 545.386719 461.535156 543.339844 L 465.144531 509.074219 L 774.839844 509.074219 L 771.199219 543.707031 C 770.78125 547.710938 767.160156 550.988281 763.15625 550.988281 Z M 468.265625 512.542969 L 464.988281 543.707031 C 464.882812 544.746094 465.179688 545.71875 465.820312 546.429688 C 466.460938 547.140625 467.363281 547.519531 468.386719 547.519531 L 763.136719 547.519531 C 765.390625 547.519531 767.507812 545.613281 767.730469 543.339844 L 770.972656 512.542969 Z M 468.265625 512.542969 "/><path style=" stroke:none;fill-rule:nonzero;fill:#64d4f2;fill-opacity:1;" d="M 559.007812 361.167969 L 513.460938 361.167969 C 512.507812 361.167969 511.730469 360.386719 511.730469 359.433594 C 511.730469 358.480469 512.507812 357.699219 513.460938 357.699219 L 559.007812 357.699219 C 559.960938 357.699219 560.742188 358.480469 560.742188 359.433594 C 560.742188 360.386719 559.960938 361.167969 559.007812 361.167969 Z M 559.007812 361.167969 "/><path style=" stroke:none;fill-rule:nonzero;fill:#64d4f2;fill-opacity:1;" d="M 556.683594 383.328125 L 511.140625 383.328125 C 510.1875 383.328125 509.40625 382.550781 509.40625 381.597656 C 509.40625 380.640625 510.1875 379.863281 511.140625 379.863281 L 556.683594 379.863281 C 557.636719 379.863281 558.417969 380.640625 558.417969 381.597656 C 558.417969 382.550781 557.636719 383.328125 556.683594 383.328125 Z M 556.683594 383.328125 "/><path style=" stroke:none;fill-rule:nonzero;fill:#64d4f2;fill-opacity:1;" d="M 554.34375 405.511719 L 508.796875 405.511719 C 507.84375 405.511719 507.066406 404.730469 507.066406 403.777344 C 507.066406 402.820312 507.84375 402.042969 508.796875 402.042969 L 554.34375 402.042969 C 555.296875 402.042969 556.078125 402.820312 556.078125 403.777344 C 556.078125 404.730469 555.296875 405.511719 554.34375 405.511719 Z M 554.34375 405.511719 "/><path style=" stroke:none;fill-rule:nonzero;fill:#64d4f2;fill-opacity:1;" d="M 597.652344 361.167969 L 571.976562 361.167969 C 571.023438 361.167969 570.242188 360.386719 570.242188 359.433594 C 570.242188 358.480469 571.023438 357.699219 571.976562 357.699219 L 597.652344 357.699219 C 598.605469 357.699219 599.386719 358.480469 599.386719 359.433594 C 599.386719 360.386719 598.605469 361.167969 597.652344 361.167969 Z M 597.652344 361.167969 "/><path style=" stroke:none;fill-rule:nonzero;fill:#ffa15a;fill-opacity:1;" d="M 595.328125 383.328125 L 569.652344 383.328125 C 568.699219 383.328125 567.917969 382.550781 567.917969 381.597656 C 567.917969 380.640625 568.699219 379.863281 569.652344 379.863281 L 595.328125 379.863281 C 596.28125 379.863281 597.0625 380.640625 597.0625 381.597656 C 597.0625 382.550781 596.28125 383.328125 595.328125 383.328125 Z M 595.328125 383.328125 "/><path style=" stroke:none;fill-rule:nonzero;fill:#ffa15a;fill-opacity:1;" d="M 593.007812 405.511719 L 567.328125 405.511719 C 566.375 405.511719 565.59375 404.730469 565.59375 403.777344 C 565.59375 402.820312 566.375 402.042969 567.328125 402.042969 L 593.007812 402.042969 C 593.960938 402.042969 594.738281 402.820312 594.738281 403.777344 C 594.738281 404.730469 593.960938 405.511719 593.007812 405.511719 Z M 593.007812 405.511719 "/><path style=" stroke:none;fill-rule:nonzero;fill:#64d4f2;fill-opacity:1;" d="M 545.988281 485.125 L 500.441406 485.125 C 499.488281 485.125 498.707031 484.34375 498.707031 483.390625 C 498.707031 482.4375 499.488281 481.65625 500.441406 481.65625 L 545.988281 481.65625 C 546.941406 481.65625 547.722656 482.4375 547.722656 483.390625 C 547.722656 484.34375 546.941406 485.125 545.988281 485.125 Z M 545.988281 485.125 "/><path style=" stroke:none;fill-rule:nonzero;fill:#64d4f2;fill-opacity:1;" d="M 584.632812 485.125 L 558.957031 485.125 C 558 485.125 557.222656 484.34375 557.222656 483.390625 C 557.222656 482.4375 558 481.65625 558.957031 481.65625 L 584.632812 481.65625 C 585.585938 481.65625 586.367188 482.4375 586.367188 483.390625 C 586.367188 484.34375 585.585938 485.125 584.632812 485.125 Z M 584.632812 485.125 "/><path style=" stroke:none;fill-rule:nonzero;fill:#ffa15a;fill-opacity:1;" d="M 557.414062 434.226562 L 531.734375 434.226562 C 530.78125 434.226562 530.003906 433.449219 530.003906 432.492188 C 530.003906 431.539062 530.78125 430.757812 531.734375 430.757812 L 557.414062 430.757812 C 558.367188 430.757812 559.144531 431.539062 559.144531 432.492188 C 559.144531 433.449219 558.367188 434.226562 557.414062 434.226562 Z M 557.414062 434.226562 "/><path style=" stroke:none;fill-rule:nonzero;fill:#ffa15a;fill-opacity:1;" d="M 555.070312 456.40625 L 529.394531 456.40625 C 528.441406 456.40625 527.660156 455.628906 527.660156 454.671875 C 527.660156 453.71875 528.441406 452.9375 529.394531 452.9375 L 555.070312 452.9375 C 556.027344 452.9375 556.804688 453.71875 556.804688 454.671875 C 556.804688 455.628906 556.027344 456.40625 555.070312 456.40625 Z M 555.070312 456.40625 "/><path style=" stroke:none;fill-rule:nonzero;fill:#64d4f2;fill-opacity:1;" d="M 595.503906 434.226562 L 569.824219 434.226562 C 568.871094 434.226562 568.09375 433.449219 568.09375 432.492188 C 568.09375 431.539062 568.871094 430.757812 569.824219 430.757812 L 595.503906 430.757812 C 596.457031 430.757812 597.234375 431.539062 597.234375 432.492188 C 597.234375 433.449219 596.457031 434.226562 595.503906 434.226562 Z M 595.503906 434.226562 "/><path style=" stroke:none;fill-rule:nonzero;fill:#64d4f2;fill-opacity:1;" d="M 618.578125 456.40625 L 567.503906 456.40625 C 566.550781 456.40625 565.769531 455.628906 565.769531 454.671875 C 565.769531 453.71875 566.550781 452.9375 567.503906 452.9375 L 618.578125 452.9375 C 619.53125 452.9375 620.3125 453.71875 620.3125 454.671875 C 620.3125 455.628906 619.53125 456.40625 618.578125 456.40625 Z M 618.578125 456.40625 "/><path style=" stroke:none;fill-rule:nonzero;fill:#363634;fill-opacity:1;" d="M 744.984375 492.6875 L 650.390625 492.6875 C 647.859375 492.6875 645.589844 491.699219 643.960938 489.894531 C 642.332031 488.089844 641.601562 485.699219 641.863281 483.167969 L 654.882812 359.277344 C 655.402344 354.246094 659.929688 350.136719 664.972656 350.136719 L 759.566406 350.136719 C 762.097656 350.136719 764.367188 351.125 765.996094 352.929688 C 767.609375 354.734375 768.355469 357.109375 768.09375 359.625 L 755.074219 483.511719 C 754.554688 488.558594 750.03125 492.667969 744.984375 492.667969 Z M 664.992188 353.625 C 661.730469 353.625 658.679688 356.382812 658.351562 359.640625 L 645.328125 483.53125 C 645.15625 485.074219 645.605469 486.496094 646.5625 487.570312 C 647.515625 488.628906 648.882812 489.21875 650.410156 489.21875 L 745.003906 489.21875 C 748.332031 489.21875 751.3125 486.511719 751.660156 483.183594 L 764.679688 359.277344 C 764.835938 357.75 764.402344 356.328125 763.449219 355.269531 C 762.496094 354.214844 761.125 353.625 759.601562 353.625 Z M 664.992188 353.625 "/><path style=" stroke:none;fill-rule:nonzero;fill:#363634;fill-opacity:1;" d="M 702.648438 445.5 C 698.105469 445.5 694.011719 443.730469 691.117188 440.503906 C 688.207031 437.261719 686.851562 432.960938 687.339844 428.402344 L 690.789062 395.519531 C 691.757812 386.296875 700.0625 378.785156 709.289062 378.785156 C 713.828125 378.785156 717.921875 380.554688 720.816406 383.78125 C 723.730469 387.023438 725.082031 391.324219 724.597656 395.886719 L 721.144531 428.765625 C 720.175781 437.992188 711.871094 445.5 702.648438 445.5 Z M 709.289062 382.253906 C 701.78125 382.253906 695.035156 388.359375 694.238281 395.886719 L 690.789062 428.765625 C 690.40625 432.335938 691.449219 435.683594 693.699219 438.183594 C 695.9375 440.660156 699.109375 442.03125 702.648438 442.03125 C 710.152344 442.03125 716.898438 435.925781 717.695312 428.402344 L 721.144531 395.519531 C 721.527344 391.949219 720.488281 388.601562 718.234375 386.105469 C 715.996094 383.625 712.824219 382.253906 709.289062 382.253906 Z M 709.289062 382.253906 "/><path style=" stroke:none;fill-rule:nonzero;fill:#363634;fill-opacity:1;" d="M 720.382812 421.046875 L 690.027344 421.046875 C 689.070312 421.046875 688.292969 420.269531 688.292969 419.3125 C 688.292969 418.359375 689.070312 417.578125 690.027344 417.578125 L 720.382812 417.578125 C 721.335938 417.578125 722.117188 418.359375 722.117188 419.3125 C 722.117188 420.269531 721.335938 421.046875 720.382812 421.046875 Z M 720.382812 421.046875 "/><path style=" stroke:none;fill-rule:nonzero;fill:#363634;fill-opacity:1;" d="M 699.976562 470.800781 C 699.976562 470.800781 699.855469 470.800781 699.785156 470.800781 C 698.832031 470.699219 698.140625 469.847656 698.242188 468.894531 L 700.894531 443.59375 C 701 442.636719 701.851562 441.960938 702.804688 442.050781 C 703.757812 442.152344 704.449219 443.003906 704.347656 443.957031 L 701.695312 469.257812 C 701.605469 470.140625 700.84375 470.820312 699.976562 470.820312 Z M 699.976562 470.800781 "/><path style=" stroke:none;fill-rule:nonzero;fill:#363634;fill-opacity:1;" d="M 721.476562 470.800781 L 678.480469 470.800781 C 677.527344 470.800781 676.746094 470.019531 676.746094 469.066406 C 676.746094 468.113281 677.527344 467.332031 678.480469 467.332031 L 721.476562 467.332031 C 722.429688 467.332031 723.210938 468.113281 723.210938 469.066406 C 723.210938 470.019531 722.429688 470.800781 721.476562 470.800781 Z M 721.476562 470.800781 "/><path style=" stroke:none;fill-rule:nonzero;fill:#363634;fill-opacity:1;" d="M 666.515625 648.898438 C 665.734375 648.898438 665.023438 648.378906 664.835938 647.582031 L 644.0625 563.839844 C 643.839844 562.902344 644.394531 561.964844 645.328125 561.742188 C 646.25 561.515625 647.203125 562.070312 647.429688 563.007812 L 668.199219 646.75 C 668.421875 647.6875 667.867188 648.621094 666.933594 648.847656 C 666.792969 648.882812 666.65625 648.898438 666.515625 648.898438 Z M 666.515625 648.898438 "/><path style=" stroke:none;fill-rule:nonzero;fill:#363634;fill-opacity:1;" d="M 572.546875 584.875 C 571.800781 584.875 571.109375 584.390625 570.882812 583.625 L 565.109375 563.910156 C 564.832031 562.988281 565.371094 562.019531 566.289062 561.757812 C 567.207031 561.480469 568.179688 562.019531 568.4375 562.9375 L 574.210938 582.65625 C 574.488281 583.574219 573.953125 584.546875 573.035156 584.804688 C 572.878906 584.859375 572.703125 584.875 572.546875 584.875 Z M 572.546875 584.875 "/><path style=" stroke:none;fill-rule:nonzero;fill:#363634;fill-opacity:1;" d="M 518.75 647.167969 L 707.832031 647.167969 L 707.832031 633 L 566.773438 633 C 566.773438 633 556.058594 638.964844 544.722656 640.351562 C 533.382812 641.738281 518.75 637.019531 518.75 637.019531 Z M 518.75 647.167969 "/><path style=" stroke:none;fill-rule:nonzero;fill:#363634;fill-opacity:1;" d="M 261.167969 333.664062 C 261.167969 333.664062 261.136719 333.664062 261.117188 333.664062 C 260.164062 333.628906 259.402344 332.832031 259.4375 331.878906 L 259.851562 317.796875 L 261.984375 318.386719 C 262.105469 318.421875 274.398438 321.75 283.066406 316.773438 C 286.933594 314.554688 289.550781 310.964844 290.851562 306.089844 C 296.207031 285.886719 295.929688 221.183594 295.929688 220.542969 C 295.929688 219.589844 296.695312 218.808594 297.648438 218.792969 C 298.636719 218.828125 299.382812 219.554688 299.398438 220.507812 C 299.398438 223.179688 299.691406 286.320312 294.214844 306.957031 C 292.671875 312.765625 289.5 317.085938 284.78125 319.773438 C 277.085938 324.175781 267.429688 323.015625 263.199219 322.183594 L 262.902344 331.945312 C 262.867188 332.882812 262.105469 333.628906 261.167969 333.628906 Z M 261.167969 333.664062 "/><path style=" stroke:none;fill-rule:nonzero;fill:#363634;fill-opacity:1;" d="M 192.027344 319.425781 C 191.925781 319.425781 191.820312 319.425781 191.714844 319.390625 C 190.78125 319.21875 190.15625 318.316406 190.328125 317.378906 L 191.265625 312.265625 C 191.4375 311.328125 192.339844 310.703125 193.277344 310.875 C 194.210938 311.050781 194.835938 311.953125 194.664062 312.886719 L 193.726562 318.003906 C 193.570312 318.835938 192.84375 319.425781 192.027344 319.425781 Z M 192.027344 319.425781 "/><path style=" stroke:none;fill-rule:nonzero;fill:#363634;fill-opacity:1;" d="M 261.515625 321.800781 C 261.324219 321.800781 261.136719 321.765625 260.960938 321.714844 L 239.082031 314.242188 C 238.179688 313.929688 237.695312 312.941406 238.007812 312.039062 C 238.320312 311.136719 239.308594 310.652344 240.207031 310.964844 L 262.089844 318.4375 C 262.988281 318.75 263.476562 319.738281 263.164062 320.640625 C 262.921875 321.367188 262.246094 321.820312 261.515625 321.820312 Z M 261.515625 321.800781 "/><path style=" stroke:none;fill-rule:nonzero;fill:#363634;fill-opacity:1;" d="M 230.429688 267.210938 C 229.996094 267.210938 229.546875 267.035156 229.21875 266.707031 C 227.898438 265.40625 216.351562 253.71875 217.601562 242.203125 C 218.121094 237.417969 220.773438 233.496094 225.472656 230.550781 C 229.441406 228.050781 233.5 227.429688 237.519531 228.660156 C 247.335938 231.675781 253.28125 244.976562 253.542969 245.53125 C 253.921875 246.417969 253.542969 247.441406 252.65625 247.820312 C 251.789062 248.222656 250.765625 247.820312 250.367188 246.9375 C 250.316406 246.816406 244.804688 234.519531 236.5 231.972656 C 233.445312 231.035156 230.449219 231.539062 227.328125 233.496094 C 223.511719 235.890625 221.46875 238.855469 221.066406 242.585938 C 220.203125 250.597656 227.328125 259.960938 231.660156 264.226562 C 232.335938 264.902344 232.355469 265.996094 231.679688 266.671875 C 231.332031 267.019531 230.898438 267.191406 230.449219 267.191406 Z M 230.429688 267.210938 "/><path style=" stroke:none;fill-rule:nonzero;fill:#363634;fill-opacity:1;" d="M 242.859375 255.261719 C 242.773438 255.261719 242.671875 255.261719 242.582031 255.246094 C 241.648438 255.089844 240.988281 254.203125 241.144531 253.25 C 243.070312 241.40625 232.214844 237.296875 231.765625 237.121094 C 230.863281 236.792969 230.394531 235.804688 230.726562 234.902344 C 231.054688 234 232.042969 233.550781 232.945312 233.863281 C 233.082031 233.914062 246.933594 239.152344 244.558594 253.804688 C 244.421875 254.65625 243.695312 255.261719 242.84375 255.261719 Z M 242.859375 255.261719 "/><path style=" stroke:none;fill-rule:nonzero;fill:#363634;fill-opacity:1;" d="M 231.574219 254.257812 C 231.574219 254.257812 231.453125 254.257812 231.382812 254.257812 C 230.429688 254.152344 229.738281 253.300781 229.839844 252.347656 C 229.875 252.070312 230.585938 245.636719 234.746094 242.742188 C 236.742188 241.355469 239.097656 241.007812 241.785156 241.683594 C 242.722656 241.925781 243.277344 242.863281 243.035156 243.800781 C 242.792969 244.71875 241.855469 245.289062 240.917969 245.046875 C 239.238281 244.613281 237.867188 244.789062 236.722656 245.585938 C 234.347656 247.234375 233.429688 251.289062 233.273438 252.710938 C 233.167969 253.597656 232.425781 254.257812 231.558594 254.257812 Z M 231.574219 254.257812 "/><path style=" stroke:none;fill-rule:nonzero;fill:#363634;fill-opacity:1;" d="M 304.980469 218.792969 C 302.136719 221.550781 297.714844 223.179688 291.25 222.816406 L 291.199219 222.816406 C 280.308594 224.566406 268.988281 224.289062 268.988281 224.289062 C 268.988281 224.289062 263.371094 260.167969 262.3125 261.695312 C 261.273438 263.238281 256.003906 262.925781 253.210938 260.550781 C 252.03125 259.546875 252.050781 253.265625 252.464844 246.367188 C 250.488281 243.121094 236.429688 221.410156 224.242188 233.585938 C 211.082031 246.746094 227.5 262.269531 227.5 262.269531 C 227.5 262.269531 225.4375 303.386719 224.65625 305.292969 C 223.894531 307.183594 179.476562 319.566406 173.773438 314.308594 C 168.066406 309.054688 176.214844 291.9375 176.214844 291.9375 C 176.214844 291.9375 163.003906 296.671875 159.574219 293.414062 C 156.140625 290.171875 165.015625 281.050781 166.941406 270.382812 C 168.867188 259.71875 162.328125 254.011719 149.933594 229.71875 C 137.554688 205.421875 161.738281 185.167969 161.738281 185.167969 C 161.738281 185.167969 155.742188 173.132812 172.089844 155.945312 C 188.421875 138.777344 212.085938 148.4375 225.109375 149.234375 C 225.785156 149.285156 226.53125 149.269531 227.34375 149.199219 C 227.414062 149.199219 227.449219 149.199219 227.519531 149.199219 C 227.519531 149.199219 227.519531 149.199219 227.550781 149.199219 C 227.550781 149.199219 227.605469 149.199219 227.640625 149.199219 C 228.210938 149.097656 230.8125 148.574219 234.679688 148.003906 C 246.328125 146.253906 269.40625 143.789062 283.050781 149.148438 C 285.355469 150.066406 287.382812 151.175781 289.066406 152.582031 C 290.539062 153.8125 291.753906 155.097656 292.742188 156.398438 C 301.980469 168.640625 291.597656 183.257812 291.597656 183.257812 C 291.597656 183.257812 303.835938 186.675781 307.652344 197.496094 C 308.03125 198.554688 308.34375 199.664062 308.585938 200.792969 C 308.847656 201.902344 309.039062 203.027344 309.175781 204.191406 C 309.765625 209.636719 308.742188 215.21875 304.964844 218.863281 Z M 304.980469 218.792969 "/><g clip-rule="nonzero" clip-path="url(#074923195c)"><path style=" stroke:none;fill-rule:nonzero;fill:#363634;fill-opacity:1;" d="M 595.832031 287.414062 C 595.226562 287.414062 594.617188 287.359375 594.011719 287.257812 C 590.613281 286.632812 587.804688 284.359375 586.523438 281.136719 L 577.765625 259.371094 C 576.761719 256.875 574.386719 255.261719 571.699219 255.261719 L 450.058594 255.261719 C 444.773438 255.261719 440.386719 251.132812 440.074219 245.84375 L 427.851562 42.132812 C 427.675781 39.339844 428.648438 36.703125 430.554688 34.660156 C 432.460938 32.613281 435.0625 31.503906 437.835938 31.503906 L 773.972656 31.503906 C 776.800781 31.503906 779.503906 32.699219 781.410156 34.8125 C 783.300781 36.914062 784.21875 39.738281 783.941406 42.546875 L 762.980469 246.261719 C 762.460938 251.378906 758.179688 255.246094 753.03125 255.246094 L 632.585938 255.246094 C 630.75 255.246094 629 256.023438 627.765625 257.359375 L 603.234375 284.136719 C 601.3125 286.234375 598.65625 287.378906 595.882812 287.378906 Z M 443.523438 245.636719 C 443.730469 249.089844 446.59375 251.792969 450.058594 251.792969 L 571.699219 251.792969 C 575.808594 251.792969 579.449219 254.257812 580.992188 258.070312 L 589.746094 279.835938 C 590.597656 281.933594 592.417969 283.425781 594.652344 283.824219 C 596.871094 284.222656 599.125 283.476562 600.652344 281.8125 L 625.183594 255.035156 C 627.074219 252.972656 629.761719 251.792969 632.570312 251.792969 L 753.011719 251.792969 C 756.375 251.792969 759.183594 249.261719 759.511719 245.914062 L 780.472656 42.203125 C 780.664062 40.328125 780.074219 38.542969 778.828125 37.136719 C 777.578125 35.75 775.84375 34.96875 773.972656 34.96875 L 437.835938 34.96875 C 436.015625 34.96875 434.316406 35.699219 433.070312 37.035156 C 431.820312 38.371094 431.195312 40.101562 431.300781 41.90625 L 443.523438 245.621094 Z M 443.523438 245.636719 "/></g><path style=" stroke:none;fill-rule:nonzero;fill:#363634;fill-opacity:1;" d="M 687.894531 169.734375 L 510.238281 169.734375 C 499.871094 169.734375 491.445312 161.304688 491.445312 150.933594 L 491.445312 80.542969 C 491.445312 70.175781 499.871094 61.746094 510.238281 61.746094 L 687.894531 61.746094 C 698.261719 61.746094 706.6875 70.175781 706.6875 80.542969 L 706.6875 150.933594 C 706.6875 161.304688 698.261719 169.734375 687.894531 169.734375 Z M 510.238281 65.214844 C 501.792969 65.214844 494.910156 72.097656 494.910156 80.542969 L 494.910156 150.933594 C 494.910156 159.378906 501.792969 166.265625 510.238281 166.265625 L 687.894531 166.265625 C 696.335938 166.265625 703.21875 159.378906 703.21875 150.933594 L 703.21875 80.542969 C 703.21875 72.097656 696.335938 65.214844 687.894531 65.214844 Z M 510.238281 65.214844 "/><path style=" stroke:none;fill-rule:nonzero;fill:#363634;fill-opacity:1;" d="M 675.550781 77.335938 L 522.582031 77.335938 C 516.667969 77.335938 511.882812 82.121094 511.882812 88.019531 L 511.882812 138.101562 C 511.882812 143.996094 516.667969 148.785156 522.582031 148.785156 L 675.550781 148.785156 C 681.460938 148.785156 686.246094 143.996094 686.246094 138.101562 L 686.246094 88.019531 C 686.246094 82.121094 681.460938 77.335938 675.550781 77.335938 Z M 566.894531 124.402344 C 560.378906 124.402344 555.089844 117.65625 555.089844 109.296875 C 555.089844 100.9375 560.378906 94.191406 566.894531 94.191406 C 573.414062 94.191406 578.703125 100.957031 578.703125 109.296875 C 578.703125 117.636719 573.414062 124.402344 566.894531 124.402344 Z M 631.234375 124.402344 C 624.734375 124.402344 619.445312 117.65625 619.445312 109.296875 C 619.445312 100.9375 624.734375 94.191406 631.234375 94.191406 C 637.734375 94.191406 643.042969 100.957031 643.042969 109.296875 C 643.042969 117.636719 637.769531 124.402344 631.234375 124.402344 Z M 631.234375 124.402344 "/><path style=" stroke:none;fill-rule:nonzero;fill:#363634;fill-opacity:1;" d="M 643.042969 109.296875 C 643.042969 117.65625 637.769531 124.402344 631.234375 124.402344 C 624.699219 124.402344 619.445312 117.65625 619.445312 109.296875 C 619.445312 100.9375 624.734375 94.191406 631.234375 94.191406 C 637.734375 94.191406 643.042969 100.957031 643.042969 109.296875 Z M 643.042969 109.296875 "/><path style=" stroke:none;fill-rule:nonzero;fill:#64d4f2;fill-opacity:1;" d="M 578.703125 109.296875 C 578.703125 110.289062 578.628906 111.269531 578.476562 112.242188 C 578.324219 113.214844 578.101562 114.160156 577.804688 115.078125 C 577.507812 115.992188 577.144531 116.863281 576.710938 117.6875 C 576.28125 118.511719 575.792969 119.277344 575.246094 119.976562 C 574.695312 120.679688 574.101562 121.304688 573.457031 121.855469 C 572.8125 122.40625 572.128906 122.871094 571.414062 123.25 C 570.699219 123.632812 569.960938 123.917969 569.199219 124.109375 C 568.4375 124.304688 567.671875 124.402344 566.894531 124.402344 C 566.121094 124.402344 565.351562 124.304688 564.59375 124.109375 C 563.832031 123.917969 563.09375 123.632812 562.378906 123.25 C 561.660156 122.871094 560.980469 122.40625 560.335938 121.855469 C 559.691406 121.304688 559.09375 120.679688 558.546875 119.976562 C 558 119.277344 557.507812 118.511719 557.078125 117.6875 C 556.648438 116.863281 556.285156 115.992188 555.988281 115.078125 C 555.691406 114.160156 555.46875 113.214844 555.316406 112.242188 C 555.164062 111.269531 555.089844 110.289062 555.089844 109.296875 C 555.089844 108.304688 555.164062 107.324219 555.316406 106.351562 C 555.46875 105.378906 555.691406 104.433594 555.988281 103.515625 C 556.285156 102.601562 556.648438 101.730469 557.078125 100.90625 C 557.507812 100.082031 558 99.316406 558.546875 98.617188 C 559.09375 97.914062 559.691406 97.289062 560.335938 96.738281 C 560.980469 96.1875 561.660156 95.722656 562.378906 95.34375 C 563.09375 94.960938 563.832031 94.675781 564.59375 94.484375 C 565.351562 94.289062 566.121094 94.191406 566.894531 94.191406 C 567.671875 94.191406 568.4375 94.289062 569.199219 94.484375 C 569.960938 94.675781 570.699219 94.960938 571.414062 95.34375 C 572.128906 95.722656 572.8125 96.1875 573.457031 96.738281 C 574.101562 97.289062 574.695312 97.914062 575.246094 98.617188 C 575.792969 99.316406 576.28125 100.082031 576.710938 100.90625 C 577.144531 101.730469 577.507812 102.601562 577.804688 103.515625 C 578.101562 104.433594 578.324219 105.378906 578.476562 106.351562 C 578.628906 107.324219 578.703125 108.304688 578.703125 109.296875 Z M 578.703125 109.296875 "/><path style=" stroke:none;fill-rule:nonzero;fill:#363634;fill-opacity:1;" d="M 566.894531 126.136719 C 559.441406 126.136719 553.371094 118.574219 553.371094 109.296875 C 553.371094 100.019531 559.441406 92.457031 566.894531 92.457031 C 574.351562 92.457031 580.453125 100.019531 580.453125 109.296875 C 580.453125 118.574219 574.367188 126.136719 566.894531 126.136719 Z M 566.894531 95.910156 C 561.347656 95.910156 556.839844 101.910156 556.839844 109.28125 C 556.839844 116.648438 561.347656 122.648438 566.894531 122.648438 C 572.445312 122.648438 576.984375 116.648438 576.984375 109.28125 C 576.984375 101.910156 572.460938 95.910156 566.894531 95.910156 Z M 566.894531 95.910156 "/><path style=" stroke:none;fill-rule:nonzero;fill:#64d4f2;fill-opacity:1;" d="M 643.023438 109.296875 C 643.023438 110.289062 642.949219 111.269531 642.796875 112.242188 C 642.648438 113.214844 642.421875 114.160156 642.125 115.078125 C 641.832031 115.992188 641.46875 116.863281 641.039062 117.6875 C 640.605469 118.511719 640.117188 119.277344 639.570312 119.976562 C 639.023438 120.679688 638.429688 121.304688 637.785156 121.855469 C 637.140625 122.40625 636.460938 122.871094 635.746094 123.25 C 635.03125 123.632812 634.292969 123.917969 633.535156 124.109375 C 632.777344 124.304688 632.007812 124.402344 631.234375 124.402344 C 630.460938 124.402344 629.695312 124.304688 628.933594 124.109375 C 628.175781 123.917969 627.4375 123.632812 626.722656 123.25 C 626.007812 122.871094 625.328125 122.40625 624.683594 121.855469 C 624.042969 121.304688 623.445312 120.679688 622.898438 119.976562 C 622.351562 119.277344 621.863281 118.511719 621.433594 117.6875 C 621.003906 116.863281 620.640625 115.992188 620.34375 115.078125 C 620.046875 114.160156 619.824219 113.214844 619.671875 112.242188 C 619.519531 111.269531 619.445312 110.289062 619.445312 109.296875 C 619.445312 108.304688 619.519531 107.324219 619.671875 106.351562 C 619.824219 105.378906 620.046875 104.433594 620.34375 103.515625 C 620.640625 102.601562 621.003906 101.730469 621.433594 100.90625 C 621.863281 100.082031 622.351562 99.316406 622.898438 98.617188 C 623.445312 97.914062 624.042969 97.289062 624.683594 96.738281 C 625.328125 96.1875 626.007812 95.722656 626.722656 95.34375 C 627.4375 94.960938 628.175781 94.675781 628.933594 94.484375 C 629.695312 94.289062 630.460938 94.191406 631.234375 94.191406 C 632.007812 94.191406 632.777344 94.289062 633.535156 94.484375 C 634.292969 94.675781 635.03125 94.960938 635.746094 95.34375 C 636.460938 95.722656 637.140625 96.1875 637.785156 96.738281 C 638.429688 97.289062 639.023438 97.914062 639.570312 98.617188 C 640.117188 99.316406 640.605469 100.082031 641.039062 100.90625 C 641.46875 101.730469 641.832031 102.601562 642.125 103.515625 C 642.421875 104.433594 642.648438 105.378906 642.796875 106.351562 C 642.949219 107.324219 643.023438 108.304688 643.023438 109.296875 Z M 643.023438 109.296875 "/><path style=" stroke:none;fill-rule:nonzero;fill:#363634;fill-opacity:1;" d="M 534.855469 168 L 663.273438 168 L 663.273438 191.460938 L 534.855469 191.460938 Z M 534.855469 168 "/><path style=" stroke:none;fill-rule:nonzero;fill:#363634;fill-opacity:1;" d="M 480.019531 255.261719 C 479.066406 255.261719 478.285156 254.480469 478.285156 253.527344 C 478.285156 202.871094 533.902344 189.882812 534.476562 189.761719 C 535.410156 189.554688 536.332031 190.144531 536.539062 191.082031 C 536.746094 192.015625 536.15625 192.9375 535.21875 193.144531 C 534.683594 193.265625 481.753906 205.664062 481.753906 253.527344 C 481.753906 254.480469 480.972656 255.261719 480.019531 255.261719 Z M 480.019531 255.261719 "/><path style=" stroke:none;fill-rule:nonzero;fill:#363634;fill-opacity:1;" d="M 717.503906 254.257812 C 716.636719 254.257812 715.875 253.597656 715.789062 252.710938 C 709.875 198.328125 665.023438 193.371094 663.117188 193.179688 C 662.164062 193.089844 661.472656 192.242188 661.558594 191.289062 C 661.644531 190.335938 662.492188 189.640625 663.449219 189.726562 C 663.949219 189.78125 713.015625 195.085938 719.238281 252.347656 C 719.34375 253.300781 718.648438 254.152344 717.695312 254.257812 C 717.625 254.257812 717.574219 254.257812 717.503906 254.257812 Z M 717.503906 254.257812 "/><path style=" stroke:none;fill-rule:nonzero;fill:#363634;fill-opacity:1;" d="M 729.15625 137.929688 L 703.21875 137.929688 L 703.21875 88.644531 L 729.15625 88.644531 Z M 706.6875 134.460938 L 725.6875 134.460938 L 725.6875 92.109375 L 706.6875 92.109375 Z M 706.6875 134.460938 "/><path style=" stroke:none;fill-rule:nonzero;fill:#363634;fill-opacity:1;" d="M 494.910156 137.929688 L 468.976562 137.929688 L 468.976562 88.644531 L 494.910156 88.644531 Z M 472.441406 134.460938 L 491.445312 134.460938 L 491.445312 92.109375 L 472.441406 92.109375 Z M 472.441406 134.460938 "/><path style=" stroke:none;fill-rule:nonzero;fill:#ffa15a;fill-opacity:1;" d="M 137.8125 78.0625 C 139.410156 93.152344 133.636719 106.972656 123.632812 116.335938 C 117.6875 121.921875 114.410156 129.777344 114.410156 137.929688 L 114.410156 151.507812 L 70.476562 151.507812 L 70.476562 137.945312 C 70.476562 129.585938 66.851562 121.75 60.835938 115.957031 C 52.203125 107.648438 46.8125 95.976562 46.8125 83.042969 C 46.8125 56.144531 70.09375 34.660156 97.59375 37.660156 C 118.65625 39.964844 135.59375 56.976562 137.8125 78.0625 Z M 137.8125 78.0625 "/><path style=" stroke:none;fill-rule:nonzero;fill:#363634;fill-opacity:1;" d="M 70.5625 151.507812 L 114.460938 151.507812 C 114.460938 162.554688 105.496094 171.5 94.472656 171.5 L 90.554688 171.5 C 79.507812 171.5 70.5625 162.535156 70.5625 151.507812 Z M 70.5625 151.507812 "/><path style=" stroke:none;fill-rule:nonzero;fill:#363634;fill-opacity:1;" d="M 99.066406 153.242188 C 98.113281 153.242188 97.332031 152.460938 97.332031 151.507812 L 97.332031 105.898438 L 88.402344 105.898438 L 88.402344 151.507812 C 88.402344 152.460938 87.621094 153.242188 86.667969 153.242188 C 85.714844 153.242188 84.9375 152.460938 84.9375 151.507812 L 84.9375 105.898438 L 79.769531 105.898438 C 77.1875 105.898438 75.070312 103.800781 75.070312 101.199219 C 75.070312 98.597656 77.167969 96.5 79.769531 96.5 L 83.703125 96.5 C 86.289062 96.5 88.402344 98.597656 88.402344 101.199219 L 88.402344 102.429688 L 97.332031 102.429688 L 97.332031 101.199219 C 97.332031 98.613281 99.429688 96.5 102.03125 96.5 L 105.6875 96.5 C 108.273438 96.5 110.386719 98.597656 110.386719 101.199219 C 110.386719 103.800781 108.289062 105.898438 105.6875 105.898438 L 100.800781 105.898438 L 100.800781 151.507812 C 100.800781 152.460938 100.019531 153.242188 99.066406 153.242188 Z M 100.800781 102.429688 L 105.6875 102.429688 C 106.363281 102.429688 106.917969 101.875 106.917969 101.199219 C 106.917969 100.523438 106.363281 99.96875 105.6875 99.96875 L 102.03125 99.96875 C 101.355469 99.96875 100.800781 100.523438 100.800781 101.199219 Z M 79.769531 99.984375 C 79.09375 99.984375 78.539062 100.539062 78.539062 101.214844 C 78.539062 101.890625 79.09375 102.445312 79.769531 102.445312 L 84.9375 102.445312 L 84.9375 101.214844 C 84.9375 100.539062 84.378906 99.984375 83.703125 99.984375 Z M 79.769531 99.984375 "/></g></svg>