<svg xmlns="http://www.w3.org/2000/svg" xmlns:xlink="http://www.w3.org/1999/xlink" width="1080" zoomAndPan="magnify" viewBox="0 0 810 809.999993" height="1080" preserveAspectRatio="xMidYMid meet" version="1.2"><defs><clipPath id="6c2a796e96"><path d="M 0 0 L 804 0 L 804 810 L 0 810 Z M 0 0 "/></clipPath><clipPath id="d94b671396"><path d="M 304.324219 22.347656 C 303.785156 20.109375 305.164062 17.855469 307.402344 17.3125 C 324.902344 13.089844 342.886719 10.027344 360.851562 8.199219 C 363.144531 7.964844 365.195312 9.636719 365.425781 11.929688 C 365.660156 14.222656 363.988281 16.273438 361.695312 16.503906 C 344.105469 18.292969 326.496094 21.292969 309.359375 25.425781 C 309.03125 25.503906 308.703125 25.542969 308.378906 25.542969 C 306.496094 25.542969 304.785156 24.261719 304.324219 22.347656 Z M 414.769531 14.671875 C 432.472656 15.234375 450.25 16.996094 467.605469 19.910156 C 467.839844 19.949219 468.074219 19.964844 468.300781 19.964844 C 470.304688 19.964844 472.070312 18.523438 472.414062 16.484375 C 472.792969 14.210938 471.261719 12.058594 468.988281 11.675781 C 451.265625 8.703125 433.113281 6.902344 415.035156 6.328125 C 412.664062 6.214844 410.804688 8.0625 410.730469 10.367188 C 410.65625 12.671875 412.464844 14.597656 414.769531 14.671875 Z M 4.382812 421.625 C 6.6875 421.570312 8.511719 419.660156 8.460938 417.355469 C 8.390625 414.265625 8.351562 411.171875 8.355469 408.066406 C 8.355469 395.117188 8.988281 382.054688 10.242188 369.242188 C 10.46875 366.949219 8.792969 364.90625 6.496094 364.683594 C 4.203125 364.464844 2.160156 366.136719 1.9375 368.429688 C 0.65625 381.511719 0.0078125 394.847656 0.0078125 408.066406 C 0.0078125 411.234375 0.0429688 414.394531 0.117188 417.546875 C 0.167969 419.820312 2.027344 421.625 4.285156 421.625 C 4.320312 421.625 4.351562 421.625 4.382812 421.625 Z M 12.488281 465.332031 C 12.15625 463.050781 10.035156 461.46875 7.757812 461.804688 C 5.476562 462.136719 3.894531 464.253906 4.226562 466.535156 C 6.589844 482.730469 9.976562 498.921875 14.296875 514.660156 C 14.804688 516.511719 16.484375 517.730469 18.316406 517.730469 C 18.683594 517.730469 19.054688 517.679688 19.425781 517.578125 C 21.648438 516.96875 22.953125 514.671875 22.347656 512.449219 C 18.117188 497.039062 14.800781 481.1875 12.488281 465.332031 Z M 28.730469 270.113281 C 26.5625 269.328125 24.171875 270.464844 23.398438 272.632812 C 17.890625 288.019531 13.289062 303.914062 9.714844 319.871094 C 9.210938 322.121094 10.628906 324.351562 12.875 324.855469 C 13.183594 324.921875 13.488281 324.957031 13.792969 324.957031 C 15.703125 324.957031 17.425781 323.636719 17.859375 321.695312 C 21.359375 306.070312 25.867188 290.511719 31.253906 275.445312 C 32.03125 273.277344 30.902344 270.886719 28.730469 270.113281 Z M 73.34375 183.824219 C 71.429688 182.542969 68.835938 183.058594 67.558594 184.976562 C 58.464844 198.578125 50.128906 212.867188 42.785156 227.445312 C 41.746094 229.503906 42.574219 232.015625 44.632812 233.050781 C 45.234375 233.355469 45.875 233.5 46.507812 233.5 C 48.03125 233.5 49.503906 232.65625 50.238281 231.203125 C 57.433594 216.921875 65.59375 202.933594 74.496094 189.613281 C 75.777344 187.699219 75.261719 185.105469 73.34375 183.824219 Z M 100.484375 152.742188 C 101.65625 152.742188 102.820312 152.25 103.644531 151.292969 C 114.089844 139.171875 125.390625 127.566406 137.234375 116.796875 C 138.9375 115.246094 139.0625 112.605469 137.515625 110.902344 C 135.964844 109.199219 133.324219 109.070312 131.617188 110.621094 C 119.523438 121.617188 107.984375 133.46875 97.324219 145.847656 C 95.816406 147.589844 96.015625 150.226562 97.761719 151.730469 C 98.546875 152.410156 99.519531 152.742188 100.484375 152.742188 Z M 518.832031 784.035156 C 502.253906 789.183594 485.148438 793.261719 467.996094 796.15625 C 465.722656 796.539062 464.191406 798.691406 464.574219 800.964844 C 464.917969 803.003906 466.683594 804.445312 468.683594 804.445312 C 468.914062 804.445312 469.148438 804.425781 469.382812 804.386719 C 486.902344 801.429688 504.375 797.261719 521.308594 792.007812 C 523.507812 791.324219 524.742188 788.988281 524.058594 786.785156 C 523.375 784.582031 521.035156 783.355469 518.832031 784.035156 Z M 415.984375 801.417969 C 398.628906 802.023438 380.960938 801.492188 363.730469 799.828125 C 361.457031 799.625 359.398438 801.289062 359.175781 803.582031 C 358.957031 805.875 360.636719 807.914062 362.929688 808.136719 C 375.824219 809.378906 388.964844 810.011719 401.992188 810.011719 C 406.738281 810.011719 411.546875 809.925781 416.28125 809.757812 C 418.582031 809.679688 420.382812 807.746094 420.304688 805.441406 C 420.222656 803.140625 418.320312 801.367188 415.984375 801.417969 Z M 755.402344 234.519531 C 756.128906 235.996094 757.609375 236.855469 759.148438 236.855469 C 759.769531 236.855469 760.394531 236.714844 760.988281 236.421875 C 763.058594 235.40625 763.910156 232.90625 762.890625 230.835938 C 756.382812 217.613281 749.0625 204.601562 741.121094 192.160156 C 739.882812 190.21875 737.300781 189.648438 735.359375 190.886719 C 733.414062 192.125 732.84375 194.707031 734.082031 196.648438 C 741.859375 208.832031 749.03125 221.574219 755.402344 234.519531 Z M 708.71875 161.347656 C 709.542969 162.375 710.753906 162.90625 711.972656 162.90625 C 712.890625 162.90625 713.816406 162.601562 714.585938 161.984375 C 716.382812 160.535156 716.667969 157.910156 715.222656 156.113281 C 705.972656 144.632812 695.980469 133.535156 685.515625 123.125 C 683.882812 121.503906 681.242188 121.507812 679.613281 123.140625 C 677.988281 124.777344 677.996094 127.417969 679.628906 129.042969 C 689.875 139.234375 699.664062 150.105469 708.71875 161.347656 Z M 796.214844 354.246094 C 793.929688 354.53125 792.304688 356.617188 792.589844 358.902344 C 794.371094 373.191406 795.378906 387.785156 795.589844 402.269531 C 795.625 404.554688 797.484375 406.382812 799.761719 406.382812 C 799.78125 406.382812 799.804688 406.382812 799.824219 406.382812 C 802.128906 406.347656 803.96875 404.453125 803.9375 402.148438 C 803.722656 387.359375 802.691406 372.464844 800.875 357.871094 C 800.585938 355.582031 798.492188 353.964844 796.214844 354.246094 Z M 611.734375 74.933594 C 623.945312 82.636719 635.867188 91.109375 647.171875 100.121094 C 647.941406 100.730469 648.859375 101.03125 649.769531 101.03125 C 650.996094 101.03125 652.210938 100.492188 653.035156 99.457031 C 654.472656 97.65625 654.175781 95.027344 652.375 93.59375 C 640.832031 84.394531 628.65625 75.738281 616.1875 67.875 C 614.234375 66.644531 611.65625 67.226562 610.429688 69.175781 C 609.203125 71.125 609.785156 73.703125 611.734375 74.933594 Z M 784.835938 316.136719 C 785.296875 318.050781 787.007812 319.339844 788.890625 319.339844 C 789.214844 319.339844 789.542969 319.300781 789.867188 319.222656 C 792.109375 318.6875 793.492188 316.433594 792.957031 314.195312 C 789.523438 299.847656 785.246094 285.542969 780.246094 271.683594 C 779.460938 269.515625 777.066406 268.390625 774.902344 269.171875 C 772.734375 269.953125 771.613281 272.34375 772.390625 274.511719 C 777.289062 288.085938 781.476562 302.089844 784.835938 316.136719 Z M 276.085938 529.519531 C 276.085938 564.136719 247.921875 592.300781 213.300781 592.300781 C 178.679688 592.300781 150.515625 564.136719 150.515625 529.519531 C 150.515625 494.902344 178.679688 466.738281 213.300781 466.738281 C 247.921875 466.738281 276.085938 494.902344 276.085938 529.519531 Z M 213.300781 583.953125 C 243.320312 583.953125 267.742188 559.535156 267.742188 529.519531 C 267.742188 499.503906 243.320312 475.085938 213.300781 475.085938 C 183.28125 475.085938 158.859375 499.503906 158.859375 529.519531 C 158.859375 559.535156 183.28125 583.953125 213.300781 583.953125 Z M 379.992188 678.703125 C 379.992188 685.742188 379.050781 692.566406 377.308594 699.066406 C 368.304688 732.65625 337.613281 757.464844 301.21875 757.464844 C 280.117188 757.464844 260.941406 749.109375 246.785156 735.550781 C 244.386719 735.9375 241.992188 736.273438 239.59375 736.558594 C 231.039062 738.015625 222.265625 738.820312 213.300781 738.820312 C 185.394531 738.820312 159.199219 731.417969 136.507812 718.535156 C 123.222656 711.59375 111.949219 703.144531 103.609375 693.746094 C 103.585938 693.722656 103.5625 693.695312 103.539062 693.667969 C 103.46875 693.585938 103.429688 693.488281 103.367188 693.402344 C 74.914062 665.125 57.265625 625.988281 57.265625 582.800781 C 57.265625 534.058594 79.75 490.480469 114.875 461.847656 C 141.746094 439.945312 176.007812 426.78125 213.300781 426.78125 C 299.339844 426.78125 369.335938 496.769531 369.335938 582.800781 C 369.335938 598.90625 366.882812 614.445312 362.328125 629.070312 C 373.363281 642.628906 379.992188 659.902344 379.992188 678.703125 Z M 240.09375 728.3125 C 229.070312 714.757812 222.449219 697.492188 222.449219 678.703125 C 222.449219 651.683594 236.128906 627.804688 256.921875 613.613281 L 186.65625 613.613281 C 144.886719 613.613281 110.902344 647.59375 110.902344 689.359375 C 110.902344 689.363281 110.902344 689.363281 110.902344 689.367188 C 132.632812 712.746094 183.488281 735.785156 240.09375 728.3125 Z M 360.988281 582.800781 C 360.988281 501.371094 294.734375 435.128906 213.300781 435.128906 C 131.867188 435.128906 65.613281 501.371094 65.613281 582.800781 C 65.613281 620.402344 79.765625 654.75 102.996094 680.851562 C 107.277344 638.464844 143.15625 605.265625 186.660156 605.265625 L 272.796875 605.265625 C 281.621094 601.839844 291.199219 599.9375 301.21875 599.9375 C 322.34375 599.9375 341.539062 608.3125 355.695312 621.890625 C 359.121094 609.433594 360.988281 596.332031 360.988281 582.800781 Z M 301.21875 749.121094 C 340.054688 749.121094 371.644531 717.53125 371.644531 678.703125 C 371.644531 639.871094 340.054688 608.285156 301.21875 608.285156 C 262.386719 608.285156 230.796875 639.871094 230.796875 678.703125 C 230.796875 717.53125 262.386719 749.121094 301.21875 749.121094 Z M 319.871094 720.171875 C 322.175781 720.171875 324.042969 718.304688 324.042969 716 C 324.042969 713.691406 322.175781 711.824219 319.871094 711.824219 L 308.058594 711.824219 L 308.058594 668.046875 C 308.058594 665.742188 306.191406 663.875 303.882812 663.875 L 279.90625 663.875 C 277.601562 663.875 275.734375 665.742188 275.734375 668.046875 C 275.734375 670.351562 277.601562 672.21875 279.90625 672.21875 L 299.710938 672.21875 L 299.710938 711.824219 L 282.570312 711.824219 C 280.265625 711.824219 278.398438 713.691406 278.398438 716 C 278.398438 718.304688 280.265625 720.171875 282.570312 720.171875 Z M 291.71875 641.40625 C 291.71875 636.167969 295.980469 631.90625 301.21875 631.90625 C 306.460938 631.90625 310.722656 636.167969 310.722656 641.40625 C 310.722656 646.644531 306.460938 650.90625 301.21875 650.90625 C 295.980469 650.90625 291.71875 646.644531 291.71875 641.40625 Z M 300.066406 641.40625 C 300.066406 642.042969 300.582031 642.5625 301.21875 642.5625 C 301.855469 642.5625 302.375 642.042969 302.375 641.40625 C 302.375 640.769531 301.855469 640.253906 301.21875 640.253906 C 300.582031 640.253906 300.066406 640.769531 300.066406 641.40625 Z M 163.476562 260.757812 C 160.179688 257.464844 157.976562 253.496094 156.820312 249.292969 C 154.425781 240.566406 156.628906 230.828125 163.476562 223.984375 L 197.730469 189.734375 C 191.742188 178.023438 188.550781 164.992188 188.550781 151.460938 C 188.550781 128.964844 197.3125 107.816406 213.222656 91.910156 C 229.132812 76 250.285156 67.238281 272.78125 67.238281 C 295.28125 67.238281 316.433594 76 332.34375 91.910156 C 335.851562 95.417969 338.992188 99.191406 341.785156 103.167969 L 523.292969 103.167969 L 530.957031 52.316406 C 531.089844 51.433594 531.503906 50.617188 532.132812 49.988281 L 580.503906 1.632812 C 582.136719 0 584.777344 0 586.40625 1.632812 C 588.035156 3.261719 588.035156 5.902344 586.40625 7.53125 L 539.007812 54.917969 L 525.664062 143.433594 L 506.613281 269.828125 C 519.960938 272.125 530.160156 283.753906 530.160156 297.75 C 530.160156 313.375 517.445312 326.097656 501.820312 326.109375 L 497.953125 326.109375 C 504.714844 332.136719 509.003906 340.882812 509.003906 350.628906 C 509.003906 368.761719 494.25 383.511719 476.113281 383.511719 C 457.980469 383.511719 443.226562 368.761719 443.226562 350.628906 C 443.226562 340.898438 447.5 332.171875 454.238281 326.144531 L 356.015625 326.21875 C 362.707031 332.246094 366.941406 340.941406 366.941406 350.628906 C 366.941406 368.761719 352.1875 383.511719 334.054688 383.511719 C 315.921875 383.511719 301.167969 368.761719 301.167969 350.628906 C 301.167969 340.957031 305.390625 332.277344 312.058594 326.253906 L 281.164062 326.277344 C 281.164062 326.277344 281.160156 326.277344 281.160156 326.277344 C 278.855469 326.277344 276.988281 324.410156 276.988281 322.109375 C 276.984375 319.804688 278.851562 317.933594 281.15625 317.933594 L 331.113281 317.894531 C 332.085938 317.808594 333.0625 317.746094 334.054688 317.746094 C 335.019531 317.746094 335.964844 317.808594 336.90625 317.890625 L 475.363281 317.78125 C 475.613281 317.777344 475.859375 317.746094 476.113281 317.746094 C 476.359375 317.746094 476.597656 317.777344 476.839844 317.78125 L 501.8125 317.761719 C 512.839844 317.753906 521.8125 308.777344 521.8125 297.75 C 521.8125 286.710938 512.835938 277.734375 501.796875 277.734375 L 313.652344 277.734375 C 306.992188 277.734375 300.898438 274.371094 297.339844 268.742188 L 276.425781 235.59375 C 275.214844 235.648438 274 235.683594 272.78125 235.683594 C 259.25 235.683594 246.21875 232.492188 234.507812 226.507812 L 200.253906 260.757812 C 195.34375 265.667969 188.8125 268.375 181.863281 268.375 C 174.917969 268.375 168.386719 265.667969 163.476562 260.757812 Z M 334.054688 326.089844 C 320.523438 326.089844 309.515625 337.097656 309.515625 350.628906 C 309.515625 364.160156 320.523438 375.167969 334.054688 375.167969 C 347.585938 375.167969 358.59375 364.160156 358.59375 350.628906 C 358.59375 337.097656 347.585938 326.089844 334.054688 326.089844 Z M 476.113281 326.089844 C 462.582031 326.089844 451.574219 337.097656 451.574219 350.628906 C 451.574219 364.160156 462.582031 375.167969 476.113281 375.167969 C 489.644531 375.167969 500.65625 364.160156 500.65625 350.628906 C 500.65625 337.097656 489.644531 326.089844 476.113281 326.089844 Z M 164.207031 242.371094 C 164.207031 247.085938 166.042969 251.523438 169.378906 254.855469 C 172.714844 258.191406 177.148438 260.03125 181.863281 260.03125 C 186.582031 260.03125 191.015625 258.191406 194.351562 254.855469 L 227.027344 222.183594 C 222.105469 218.988281 217.472656 215.265625 213.222656 211.015625 C 208.972656 206.765625 205.25 202.132812 202.054688 197.210938 L 169.378906 229.882812 C 166.042969 233.21875 164.207031 237.652344 164.207031 242.371094 Z M 272.78125 75.585938 C 252.511719 75.585938 233.457031 83.480469 219.125 97.808594 C 189.539062 127.394531 189.539062 175.53125 219.125 205.113281 C 248.714844 234.699219 296.851562 234.699219 326.441406 205.113281 C 356.027344 175.53125 356.027344 127.394531 326.441406 97.808594 C 312.109375 83.480469 293.050781 75.585938 272.78125 75.585938 Z M 313.652344 269.390625 L 498.21875 269.390625 L 504.910156 223.335938 L 316.722656 223.335938 C 307.261719 229.140625 296.765625 233 285.722656 234.691406 L 304.402344 264.289062 C 306.417969 267.480469 309.875 269.390625 313.652344 269.390625 Z M 513.257812 165.914062 L 355.761719 165.914062 C 352.835938 182.910156 344.789062 198.570312 332.34375 211.015625 C 330.957031 212.402344 329.519531 213.710938 328.054688 214.988281 L 506.125 214.988281 Z M 521.160156 111.511719 L 346.972656 111.515625 C 353.527344 123.648438 357.015625 137.285156 357.015625 151.460938 C 357.015625 153.511719 356.917969 155.542969 356.773438 157.566406 L 514.46875 157.566406 Z M 580.84375 655.457031 C 611.617188 652.800781 635.71875 626.5 635.71875 595.582031 C 635.71875 593.277344 633.851562 591.40625 631.546875 591.40625 C 629.238281 591.40625 627.371094 593.277344 627.371094 595.582031 C 627.371094 622.207031 606.621094 644.855469 580.125 647.140625 C 575.859375 647.507812 571.855469 649.367188 568.851562 652.367188 L 502.773438 718.441406 L 497.152344 724.058594 C 495.523438 725.6875 495.523438 728.332031 497.152344 729.960938 C 497.96875 730.773438 499.035156 731.183594 500.105469 731.183594 C 501.171875 731.183594 502.238281 730.773438 503.054688 729.960938 L 509.558594 723.457031 L 574.753906 658.269531 C 576.367188 656.65625 578.53125 655.65625 580.84375 655.457031 Z M 608.558594 505.449219 C 609.773438 503.488281 609.164062 500.917969 607.207031 499.703125 C 597.734375 493.839844 586.808594 490.742188 575.613281 490.742188 C 542.46875 490.742188 515.507812 517.699219 515.507812 550.839844 L 515.507812 584 C 515.507812 590.351562 513.03125 596.328125 508.539062 600.820312 L 491.5625 617.796875 C 489.929688 619.425781 489.929688 622.070312 491.5625 623.699219 C 492.375 624.515625 493.445312 624.921875 494.511719 624.921875 C 495.578125 624.921875 496.648438 624.515625 497.460938 623.699219 L 514.441406 606.722656 C 520.511719 600.652344 523.855469 592.582031 523.855469 584 L 523.855469 550.839844 C 523.855469 522.304688 547.074219 499.085938 575.613281 499.085938 C 585.253906 499.085938 594.660156 501.753906 602.8125 506.800781 C 604.773438 508.015625 607.34375 507.40625 608.558594 505.449219 Z M 452.40625 662.847656 C 453.222656 663.664062 454.289062 664.070312 455.359375 664.070312 C 456.425781 664.070312 457.492188 663.664062 458.308594 662.847656 L 462.652344 658.503906 L 481.847656 639.3125 C 483.476562 637.683594 483.476562 635.039062 481.847656 633.410156 C 480.214844 631.78125 477.574219 631.78125 475.945312 633.410156 L 460.359375 648.996094 L 452.40625 656.945312 C 450.777344 658.574219 450.777344 661.21875 452.40625 662.847656 Z M 575.613281 686.441406 C 607.0625 686.441406 635.839844 670.527344 652.597656 643.875 C 653.824219 641.921875 653.234375 639.347656 651.285156 638.121094 C 649.335938 636.894531 646.757812 637.480469 645.53125 639.433594 C 630.3125 663.640625 604.175781 678.09375 575.613281 678.09375 C 573.308594 678.09375 571.441406 679.960938 571.441406 682.269531 C 571.441406 684.574219 573.308594 686.441406 575.613281 686.441406 Z M 493.089844 576.007812 L 493.089844 550.839844 C 493.089844 513.324219 518.40625 480.5 554.652344 471.011719 C 556.882812 470.425781 558.21875 468.144531 557.632812 465.917969 C 557.050781 463.6875 554.773438 462.355469 552.539062 462.9375 C 512.621094 473.382812 484.746094 509.53125 484.746094 550.839844 L 484.746094 576.007812 C 484.746094 578.3125 486.613281 580.179688 488.917969 580.179688 C 491.222656 580.179688 493.089844 578.3125 493.089844 576.007812 Z M 671.558594 663.472656 C 669.730469 662.074219 667.109375 662.425781 665.710938 664.257812 C 644.066406 692.601562 611.230469 708.855469 575.613281 708.855469 L 547.648438 708.855469 C 545.339844 708.855469 543.472656 710.722656 543.472656 713.027344 C 543.472656 715.332031 545.339844 717.199219 547.648438 717.199219 L 575.613281 717.199219 C 613.851562 717.199219 649.109375 699.75 672.34375 669.320312 C 673.742188 667.492188 673.390625 664.871094 671.558594 663.472656 Z M 634.984375 444.667969 C 616.941406 434.5625 596.414062 429.21875 575.613281 429.21875 C 508.542969 429.21875 453.980469 483.777344 453.980469 550.839844 L 453.980469 617.953125 C 453.980469 620.257812 455.851562 622.125 458.15625 622.125 C 460.460938 622.125 462.328125 620.257812 462.328125 617.953125 L 462.328125 550.839844 C 462.328125 488.378906 513.148438 437.566406 575.613281 437.566406 C 594.988281 437.566406 614.105469 442.539062 630.902344 451.949219 C 632.894531 453.066406 635.398438 452.371094 636.539062 450.410156 C 636.554688 450.386719 636.570312 450.371094 636.582031 450.347656 C 637.710938 448.335938 636.996094 445.792969 634.984375 444.667969 Z M 600.78125 599.753906 C 603.085938 599.753906 604.957031 597.886719 604.957031 595.582031 L 604.957031 573.210938 C 604.957031 570.90625 603.085938 569.039062 600.78125 569.039062 C 598.476562 569.039062 596.609375 570.90625 596.609375 573.210938 L 596.609375 595.582031 C 596.609375 597.886719 598.476562 599.753906 600.78125 599.753906 Z M 539.46875 637.621094 C 549.238281 627.855469 554.617188 614.871094 554.617188 601.058594 L 554.617188 550.839844 C 554.617188 539.265625 564.035156 529.847656 575.613281 529.847656 C 587.191406 529.847656 596.609375 539.265625 596.609375 550.839844 C 596.609375 553.144531 598.476562 555.011719 600.78125 555.011719 C 603.085938 555.011719 604.957031 553.144531 604.957031 550.839844 C 604.957031 534.660156 591.792969 521.5 575.613281 521.5 C 559.433594 521.5 546.269531 534.660156 546.269531 550.839844 L 546.269531 601.058594 C 546.269531 612.640625 541.757812 623.53125 533.566406 631.722656 L 476.285156 688.996094 L 474.160156 691.125 L 471.984375 693.300781 C 470.355469 694.929688 470.355469 697.570312 471.984375 699.199219 C 472.800781 700.015625 473.867188 700.421875 474.933594 700.421875 C 476.003906 700.421875 477.070312 700.015625 477.886719 699.199219 L 481.070312 696.019531 Z M 523.785156 730.011719 C 522.699219 729.59375 521.550781 729.65625 520.574219 730.097656 C 519.605469 730.53125 518.800781 731.332031 518.386719 732.402344 C 517.558594 734.550781 518.628906 736.964844 520.777344 737.796875 C 538.261719 744.539062 556.710938 747.960938 575.613281 747.960938 C 606.617188 747.960938 636.453125 738.707031 661.898438 721.199219 C 663.796875 719.894531 664.277344 717.292969 662.972656 715.394531 C 661.664062 713.496094 659.0625 713.015625 657.167969 714.324219 C 651.917969 717.9375 646.457031 721.152344 640.84375 724.011719 C 620.742188 734.246094 598.523438 739.613281 575.613281 739.613281 C 557.742188 739.613281 540.304688 736.382812 523.785156 730.011719 Z M 800.71875 520.082031 C 800.71875 559.914062 774.9375 593.816406 739.195312 606.050781 L 739.195312 665.996094 C 739.195312 682.171875 726.03125 695.335938 709.851562 695.335938 C 697.078125 695.335938 686.214844 687.117188 682.191406 675.699219 C 681.121094 672.65625 680.507812 669.398438 680.507812 665.996094 L 680.507812 606.050781 C 644.765625 593.816406 618.984375 559.914062 618.984375 520.082031 C 618.984375 495.230469 629.019531 472.6875 645.242188 456.265625 C 658.015625 443.339844 674.621094 434.230469 693.199219 430.777344 C 698.601562 429.769531 704.160156 429.21875 709.851562 429.21875 C 759.957031 429.21875 800.71875 469.980469 800.71875 520.082031 Z M 709.851562 686.988281 C 721.429688 686.988281 730.847656 677.570312 730.847656 665.996094 L 730.847656 608.464844 C 724.101562 610.066406 717.078125 610.9375 709.851562 610.9375 C 702.625 610.9375 695.601562 610.066406 688.855469 608.464844 L 688.855469 665.996094 C 688.855469 677.570312 698.273438 686.988281 709.851562 686.988281 Z M 792.371094 520.082031 C 792.371094 474.582031 755.351562 437.566406 709.851562 437.566406 C 664.347656 437.566406 627.328125 474.582031 627.328125 520.082031 C 627.328125 565.578125 664.347656 602.59375 709.851562 602.59375 C 755.355469 602.59375 792.371094 565.578125 792.371094 520.082031 Z M 651.949219 501.53125 C 650.699219 499.59375 648.113281 499.042969 646.179688 500.296875 C 644.246094 501.550781 643.691406 504.132812 644.941406 506.066406 C 653.574219 519.398438 658.132812 534.882812 658.132812 550.839844 L 658.132812 564.820312 C 658.132812 567.125 660.003906 568.992188 662.308594 568.992188 C 664.613281 568.992188 666.480469 567.125 666.480469 564.820312 L 666.480469 550.839844 C 666.480469 533.269531 661.457031 516.21875 651.949219 501.53125 Z M 697.246094 550.839844 C 697.246094 521.574219 686.699219 493.296875 667.550781 471.214844 C 666.039062 469.46875 663.402344 469.28125 661.664062 470.792969 C 659.925781 472.304688 659.734375 474.9375 661.246094 476.679688 C 679.078125 497.246094 688.898438 523.585938 688.898438 550.839844 L 688.898438 581.601562 C 688.898438 583.90625 690.765625 585.773438 693.070312 585.773438 C 695.375 585.773438 697.246094 583.90625 697.246094 581.601562 Z M 697.246094 550.839844 "/></clipPath><linearGradient x1="556.292048" gradientTransform="matrix(0.279406,0,0,0.279378,-156.840495,-153.545999)" y1="554.669994" x2="3444.639041" gradientUnits="userSpaceOnUse" y2="3443.017276" id="ea0d4ef5eb"><stop style="stop-color:#1ed6ff;stop-opacity:1;" offset="0"/><stop style="stop-color:#1ed6ff;stop-opacity:1;" offset="0.125"/><stop style="stop-color:#1ed6ff;stop-opacity:1;" offset="0.140625"/><stop style="stop-color:#1ed6ff;stop-opacity:1;" offset="0.148438"/><stop style="stop-color:#1ed5ff;stop-opacity:1;" offset="0.152344"/><stop style="stop-color:#1fd5ff;stop-opacity:1;" offset="0.15625"/><stop style="stop-color:#1fd4ff;stop-opacity:1;" offset="0.160156"/><stop style="stop-color:#1fd3ff;stop-opacity:1;" offset="0.164063"/><stop style="stop-color:#20d2ff;stop-opacity:1;" offset="0.167969"/><stop style="stop-color:#20d2ff;stop-opacity:1;" offset="0.171875"/><stop style="stop-color:#20d1ff;stop-opacity:1;" offset="0.175781"/><stop style="stop-color:#21d0ff;stop-opacity:1;" offset="0.179688"/><stop style="stop-color:#21cfff;stop-opacity:1;" offset="0.183594"/><stop style="stop-color:#21cfff;stop-opacity:1;" offset="0.1875"/><stop style="stop-color:#22ceff;stop-opacity:1;" offset="0.191406"/><stop style="stop-color:#22cdff;stop-opacity:1;" offset="0.195313"/><stop style="stop-color:#22ccff;stop-opacity:1;" offset="0.199219"/><stop style="stop-color:#23ccff;stop-opacity:1;" offset="0.203125"/><stop style="stop-color:#23cbff;stop-opacity:1;" offset="0.207031"/><stop style="stop-color:#23caff;stop-opacity:1;" offset="0.210938"/><stop style="stop-color:#24c9ff;stop-opacity:1;" offset="0.214844"/><stop style="stop-color:#24c9ff;stop-opacity:1;" offset="0.21875"/><stop style="stop-color:#24c8ff;stop-opacity:1;" offset="0.222656"/><stop style="stop-color:#25c7ff;stop-opacity:1;" offset="0.226563"/><stop style="stop-color:#25c6ff;stop-opacity:1;" offset="0.230469"/><stop style="stop-color:#25c6ff;stop-opacity:1;" offset="0.234375"/><stop style="stop-color:#26c5ff;stop-opacity:1;" offset="0.238281"/><stop style="stop-color:#26c4ff;stop-opacity:1;" offset="0.242188"/><stop style="stop-color:#26c3ff;stop-opacity:1;" offset="0.246094"/><stop style="stop-color:#27c3ff;stop-opacity:1;" offset="0.25"/><stop style="stop-color:#27c2ff;stop-opacity:1;" offset="0.253906"/><stop style="stop-color:#27c1ff;stop-opacity:1;" offset="0.257813"/><stop style="stop-color:#28c0ff;stop-opacity:1;" offset="0.261719"/><stop style="stop-color:#28c0ff;stop-opacity:1;" offset="0.265625"/><stop style="stop-color:#28bfff;stop-opacity:1;" offset="0.269531"/><stop style="stop-color:#29beff;stop-opacity:1;" offset="0.273438"/><stop style="stop-color:#29bdff;stop-opacity:1;" offset="0.277344"/><stop style="stop-color:#29bdff;stop-opacity:1;" offset="0.28125"/><stop style="stop-color:#2abcff;stop-opacity:1;" offset="0.285156"/><stop style="stop-color:#2abbff;stop-opacity:1;" offset="0.289063"/><stop style="stop-color:#2abaff;stop-opacity:1;" offset="0.292969"/><stop style="stop-color:#2bbaff;stop-opacity:1;" offset="0.296875"/><stop style="stop-color:#2bb9ff;stop-opacity:1;" offset="0.300781"/><stop style="stop-color:#2bb8ff;stop-opacity:1;" offset="0.304688"/><stop style="stop-color:#2cb7ff;stop-opacity:1;" offset="0.308594"/><stop style="stop-color:#2cb7ff;stop-opacity:1;" offset="0.3125"/><stop style="stop-color:#2db6ff;stop-opacity:1;" offset="0.316406"/><stop style="stop-color:#2db5ff;stop-opacity:1;" offset="0.320313"/><stop style="stop-color:#2db4ff;stop-opacity:1;" offset="0.324219"/><stop style="stop-color:#2eb4ff;stop-opacity:1;" offset="0.328125"/><stop style="stop-color:#2eb3ff;stop-opacity:1;" offset="0.332031"/><stop style="stop-color:#2eb2ff;stop-opacity:1;" offset="0.335938"/><stop style="stop-color:#2fb1ff;stop-opacity:1;" offset="0.339844"/><stop style="stop-color:#2fb1ff;stop-opacity:1;" offset="0.34375"/><stop style="stop-color:#2fb0ff;stop-opacity:1;" offset="0.347656"/><stop style="stop-color:#30afff;stop-opacity:1;" offset="0.351563"/><stop style="stop-color:#30aeff;stop-opacity:1;" offset="0.355469"/><stop style="stop-color:#30aeff;stop-opacity:1;" offset="0.359375"/><stop style="stop-color:#31adff;stop-opacity:1;" offset="0.363281"/><stop style="stop-color:#31acff;stop-opacity:1;" offset="0.367188"/><stop style="stop-color:#31abff;stop-opacity:1;" offset="0.371094"/><stop style="stop-color:#32abff;stop-opacity:1;" offset="0.375"/><stop style="stop-color:#32aaff;stop-opacity:1;" offset="0.378906"/><stop style="stop-color:#32a9ff;stop-opacity:1;" offset="0.382813"/><stop style="stop-color:#33a8ff;stop-opacity:1;" offset="0.386719"/><stop style="stop-color:#33a8ff;stop-opacity:1;" offset="0.390625"/><stop style="stop-color:#33a7ff;stop-opacity:1;" offset="0.394531"/><stop style="stop-color:#34a6ff;stop-opacity:1;" offset="0.398438"/><stop style="stop-color:#34a5ff;stop-opacity:1;" offset="0.402344"/><stop style="stop-color:#34a5ff;stop-opacity:1;" offset="0.40625"/><stop style="stop-color:#35a4ff;stop-opacity:1;" offset="0.410156"/><stop style="stop-color:#35a3ff;stop-opacity:1;" offset="0.414063"/><stop style="stop-color:#35a2ff;stop-opacity:1;" offset="0.417969"/><stop style="stop-color:#36a2ff;stop-opacity:1;" offset="0.421875"/><stop style="stop-color:#36a1ff;stop-opacity:1;" offset="0.425781"/><stop style="stop-color:#36a0ff;stop-opacity:1;" offset="0.429688"/><stop style="stop-color:#379fff;stop-opacity:1;" offset="0.433594"/><stop style="stop-color:#379fff;stop-opacity:1;" offset="0.4375"/><stop style="stop-color:#379eff;stop-opacity:1;" offset="0.441406"/><stop style="stop-color:#389dff;stop-opacity:1;" offset="0.445313"/><stop style="stop-color:#389cff;stop-opacity:1;" offset="0.449219"/><stop style="stop-color:#389cff;stop-opacity:1;" offset="0.453125"/><stop style="stop-color:#399bff;stop-opacity:1;" offset="0.457031"/><stop style="stop-color:#399aff;stop-opacity:1;" offset="0.460938"/><stop style="stop-color:#3999ff;stop-opacity:1;" offset="0.464844"/><stop style="stop-color:#3a99ff;stop-opacity:1;" offset="0.46875"/><stop style="stop-color:#3a98ff;stop-opacity:1;" offset="0.472656"/><stop style="stop-color:#3a97ff;stop-opacity:1;" offset="0.476563"/><stop style="stop-color:#3b96ff;stop-opacity:1;" offset="0.480469"/><stop style="stop-color:#3b96ff;stop-opacity:1;" offset="0.484375"/><stop style="stop-color:#3b95ff;stop-opacity:1;" offset="0.488281"/><stop style="stop-color:#3c94ff;stop-opacity:1;" offset="0.492188"/><stop style="stop-color:#3c93ff;stop-opacity:1;" offset="0.496094"/><stop style="stop-color:#3c93ff;stop-opacity:1;" offset="0.5"/><stop style="stop-color:#3d92ff;stop-opacity:1;" offset="0.503906"/><stop style="stop-color:#3d91ff;stop-opacity:1;" offset="0.507812"/><stop style="stop-color:#3d90ff;stop-opacity:1;" offset="0.511719"/><stop style="stop-color:#3e90ff;stop-opacity:1;" offset="0.515625"/><stop style="stop-color:#3e8fff;stop-opacity:1;" offset="0.519531"/><stop style="stop-color:#3e8eff;stop-opacity:1;" offset="0.523438"/><stop style="stop-color:#3f8dff;stop-opacity:1;" offset="0.527344"/><stop style="stop-color:#3f8dff;stop-opacity:1;" offset="0.53125"/><stop style="stop-color:#3f8cff;stop-opacity:1;" offset="0.535156"/><stop style="stop-color:#408bff;stop-opacity:1;" offset="0.539063"/><stop style="stop-color:#408aff;stop-opacity:1;" offset="0.542969"/><stop style="stop-color:#408aff;stop-opacity:1;" offset="0.546875"/><stop style="stop-color:#4189ff;stop-opacity:1;" offset="0.550781"/><stop style="stop-color:#4188ff;stop-opacity:1;" offset="0.554688"/><stop style="stop-color:#4187ff;stop-opacity:1;" offset="0.558594"/><stop style="stop-color:#4287ff;stop-opacity:1;" offset="0.5625"/><stop style="stop-color:#4286ff;stop-opacity:1;" offset="0.566406"/><stop style="stop-color:#4285ff;stop-opacity:1;" offset="0.570313"/><stop style="stop-color:#4384ff;stop-opacity:1;" offset="0.574219"/><stop style="stop-color:#4384ff;stop-opacity:1;" offset="0.578125"/><stop style="stop-color:#4383ff;stop-opacity:1;" offset="0.582031"/><stop style="stop-color:#4482ff;stop-opacity:1;" offset="0.585938"/><stop style="stop-color:#4481ff;stop-opacity:1;" offset="0.589844"/><stop style="stop-color:#4481ff;stop-opacity:1;" offset="0.59375"/><stop style="stop-color:#4580ff;stop-opacity:1;" offset="0.597656"/><stop style="stop-color:#457fff;stop-opacity:1;" offset="0.601563"/><stop style="stop-color:#457eff;stop-opacity:1;" offset="0.605469"/><stop style="stop-color:#467eff;stop-opacity:1;" offset="0.609375"/><stop style="stop-color:#467dff;stop-opacity:1;" offset="0.613281"/><stop style="stop-color:#477cff;stop-opacity:1;" offset="0.617188"/><stop style="stop-color:#477bff;stop-opacity:1;" offset="0.621094"/><stop style="stop-color:#477bff;stop-opacity:1;" offset="0.625"/><stop style="stop-color:#487aff;stop-opacity:1;" offset="0.628906"/><stop style="stop-color:#4879ff;stop-opacity:1;" offset="0.632813"/><stop style="stop-color:#4878ff;stop-opacity:1;" offset="0.636719"/><stop style="stop-color:#4978ff;stop-opacity:1;" offset="0.640625"/><stop style="stop-color:#4977ff;stop-opacity:1;" offset="0.644531"/><stop style="stop-color:#4976ff;stop-opacity:1;" offset="0.648438"/><stop style="stop-color:#4a75ff;stop-opacity:1;" offset="0.652344"/><stop style="stop-color:#4a75ff;stop-opacity:1;" offset="0.65625"/><stop style="stop-color:#4a74ff;stop-opacity:1;" offset="0.660156"/><stop style="stop-color:#4b73ff;stop-opacity:1;" offset="0.664063"/><stop style="stop-color:#4b72ff;stop-opacity:1;" offset="0.667969"/><stop style="stop-color:#4b72ff;stop-opacity:1;" offset="0.671875"/><stop style="stop-color:#4c71ff;stop-opacity:1;" offset="0.675781"/><stop style="stop-color:#4c70ff;stop-opacity:1;" offset="0.679688"/><stop style="stop-color:#4c6fff;stop-opacity:1;" offset="0.683594"/><stop style="stop-color:#4d6fff;stop-opacity:1;" offset="0.6875"/><stop style="stop-color:#4d6eff;stop-opacity:1;" offset="0.691406"/><stop style="stop-color:#4d6dff;stop-opacity:1;" offset="0.695313"/><stop style="stop-color:#4e6cff;stop-opacity:1;" offset="0.699219"/><stop style="stop-color:#4e6cff;stop-opacity:1;" offset="0.703125"/><stop style="stop-color:#4e6bff;stop-opacity:1;" offset="0.707031"/><stop style="stop-color:#4f6aff;stop-opacity:1;" offset="0.710938"/><stop style="stop-color:#4f69ff;stop-opacity:1;" offset="0.714844"/><stop style="stop-color:#4f69ff;stop-opacity:1;" offset="0.71875"/><stop style="stop-color:#5068ff;stop-opacity:1;" offset="0.722656"/><stop style="stop-color:#5067ff;stop-opacity:1;" offset="0.726563"/><stop style="stop-color:#5066ff;stop-opacity:1;" offset="0.730469"/><stop style="stop-color:#5166ff;stop-opacity:1;" offset="0.734375"/><stop style="stop-color:#5165ff;stop-opacity:1;" offset="0.738281"/><stop style="stop-color:#5164ff;stop-opacity:1;" offset="0.742188"/><stop style="stop-color:#5263ff;stop-opacity:1;" offset="0.746094"/><stop style="stop-color:#5263ff;stop-opacity:1;" offset="0.75"/><stop style="stop-color:#5262ff;stop-opacity:1;" offset="0.753906"/><stop style="stop-color:#5361ff;stop-opacity:1;" offset="0.757812"/><stop style="stop-color:#5360ff;stop-opacity:1;" offset="0.761719"/><stop style="stop-color:#5360ff;stop-opacity:1;" offset="0.765625"/><stop style="stop-color:#545fff;stop-opacity:1;" offset="0.769531"/><stop style="stop-color:#545eff;stop-opacity:1;" offset="0.773438"/><stop style="stop-color:#545dff;stop-opacity:1;" offset="0.777344"/><stop style="stop-color:#555dff;stop-opacity:1;" offset="0.78125"/><stop style="stop-color:#555cff;stop-opacity:1;" offset="0.785156"/><stop style="stop-color:#555bff;stop-opacity:1;" offset="0.789063"/><stop style="stop-color:#565aff;stop-opacity:1;" offset="0.792969"/><stop style="stop-color:#565aff;stop-opacity:1;" offset="0.796875"/><stop style="stop-color:#5659ff;stop-opacity:1;" offset="0.800781"/><stop style="stop-color:#5758ff;stop-opacity:1;" offset="0.804688"/><stop style="stop-color:#5757ff;stop-opacity:1;" offset="0.808594"/><stop style="stop-color:#5757ff;stop-opacity:1;" offset="0.8125"/><stop style="stop-color:#5856ff;stop-opacity:1;" offset="0.816406"/><stop style="stop-color:#5855ff;stop-opacity:1;" offset="0.820312"/><stop style="stop-color:#5854ff;stop-opacity:1;" offset="0.824219"/><stop style="stop-color:#5954ff;stop-opacity:1;" offset="0.828125"/><stop style="stop-color:#5953ff;stop-opacity:1;" offset="0.832031"/><stop style="stop-color:#5952ff;stop-opacity:1;" offset="0.835938"/><stop style="stop-color:#5a51ff;stop-opacity:1;" offset="0.839844"/><stop style="stop-color:#5a51ff;stop-opacity:1;" offset="0.84375"/><stop style="stop-color:#5a50ff;stop-opacity:1;" offset="0.847656"/><stop style="stop-color:#5b4fff;stop-opacity:1;" offset="0.851563"/><stop style="stop-color:#5b4eff;stop-opacity:1;" offset="0.855469"/><stop style="stop-color:#5b4eff;stop-opacity:1;" offset="0.859375"/><stop style="stop-color:#5c4dff;stop-opacity:1;" offset="0.863281"/><stop style="stop-color:#5c4cff;stop-opacity:1;" offset="0.867188"/><stop style="stop-color:#5c4bff;stop-opacity:1;" offset="0.871094"/><stop style="stop-color:#5d4bff;stop-opacity:1;" offset="0.875"/><stop style="stop-color:#5d4aff;stop-opacity:1;" offset="1"/></linearGradient></defs><g id="43d1cbd1e0"><g clip-rule="nonzero" clip-path="url(#6c2a796e96)"><g clip-rule="nonzero" clip-path="url(#d94b671396)"><path style=" stroke:none;fill-rule:nonzero;fill:url(#linear0);" d="M 0.0078125 0 L 0.0078125 810 L 803.96875 810 L 803.96875 0 Z M 0.0078125 0 "/></g></g></g></svg>