<svg xmlns="http://www.w3.org/2000/svg" xmlns:xlink="http://www.w3.org/1999/xlink" width="1080" zoomAndPan="magnify" viewBox="0 0 810 809.999993" height="1080" preserveAspectRatio="xMidYMid meet" version="1.2"><defs><clipPath id="716ec04907"><path d="M 48.09375 201 L 752 201 L 752 810 L 48.09375 810 Z M 48.09375 201 "/></clipPath></defs><g id="e9408fda9c"><rect x="0" width="810" y="0" height="809.999993" style="fill:#ffffff;fill-opacity:1;stroke:none;"/><rect x="0" width="810" y="0" height="809.999993" style="fill:#ffffff;fill-opacity:1;stroke:none;"/><g clip-rule="nonzero" clip-path="url(#716ec04907)"><path style=" stroke:none;fill-rule:nonzero;fill:#27276d;fill-opacity:1;" d="M 745.839844 510.578125 L 701.308594 445.015625 C 698.921875 441.535156 698.78125 437.59375 700.9375 433.871094 L 703.378906 429.609375 C 710.007812 418.160156 712.511719 406.242188 711.039062 393.207031 C 707.898438 364.613281 700.285156 338.253906 688.417969 314.875 C 685.652344 309.417969 678.984375 307.238281 673.527344 310.007812 C 668.070312 312.777344 665.890625 319.441406 668.660156 324.898438 C 679.3125 345.894531 686.164062 369.691406 689.015625 395.660156 C 689.953125 403.957031 688.425781 411.21875 684.175781 418.554688 L 681.734375 422.8125 C 675.371094 433.792969 675.871094 447.105469 683.007812 457.503906 L 727.515625 523.035156 C 729.566406 526.046875 729.34375 529.789062 726.941406 532.566406 C 725.492188 534.246094 722.472656 537.734375 711.136719 534.875 C 706.429688 533.644531 701.566406 534.960938 698.125 538.402344 C 693.0625 543.464844 692.355469 551.855469 693.859375 557.574219 L 700.488281 582.195312 L 689.949219 592.648438 C 682.875 599.722656 682.429688 611.179688 688.953125 618.753906 L 694.457031 625.125 L 686.792969 632.1875 C 680.421875 638.035156 678.757812 647.480469 682.742188 655.128906 C 688.570312 666.378906 685.652344 671.421875 684.695312 673.078125 C 679.40625 682.234375 658.871094 693.796875 591.140625 696.863281 C 573.769531 697.59375 559.183594 708.828125 553.976562 725.488281 C 548.132812 744.261719 548.074219 765.589844 549.359375 787.84375 L 305.125 787.84375 C 335.238281 692.363281 324.277344 638.101562 305.285156 595.574219 C 355.75 565.886719 389.703125 511.019531 389.703125 448.363281 C 389.703125 373.753906 341.5625 310.175781 274.703125 287.03125 C 306.171875 256.074219 351.011719 233.597656 402.941406 223.0625 C 408.9375 221.847656 412.8125 216 411.597656 210.003906 C 410.378906 204.007812 404.527344 200.136719 398.535156 201.351562 C 337.414062 213.753906 285.058594 241.78125 250.257812 280.5625 C 240.113281 278.679688 229.660156 277.683594 218.976562 277.683594 C 124.835938 277.683594 48.25 354.25 48.25 448.363281 C 48.25 542.480469 124.835938 619.046875 218.976562 619.046875 C 242.550781 619.046875 265.019531 614.246094 285.464844 605.570312 C 303.210938 645.984375 312.601562 698.652344 279.332031 795.316406 C 278.164062 798.703125 278.707031 802.441406 280.789062 805.355469 C 282.867188 808.269531 286.226562 810 289.804688 810 L 561.191406 810 C 564.269531 810 567.207031 808.71875 569.300781 806.46875 C 571.398438 804.222656 572.464844 801.199219 572.242188 798.128906 C 570.496094 773.820312 569.402344 750.476562 575.132812 732.089844 C 577.550781 724.351562 584.039062 719.335938 592.105469 718.996094 C 635.921875 717.011719 688.226562 711.257812 703.882812 684.164062 C 708.246094 676.617188 711.582031 664.140625 703.429688 646.984375 L 711.550781 639.5 C 719.253906 632.441406 719.945312 620.730469 713.121094 612.835938 L 707.550781 606.394531 L 717.242188 596.78125 C 722.238281 591.890625 724.148438 584.9375 722.34375 578.140625 L 716.9375 558.0625 C 728.003906 558.53125 736.988281 554.835938 743.714844 547.046875 C 752.734375 536.605469 753.585938 521.945312 745.84375 510.578125 Z M 70.40625 448.363281 C 70.40625 366.464844 137.054688 299.835938 218.976562 299.835938 C 300.894531 299.835938 367.542969 366.464844 367.542969 448.363281 C 367.542969 530.265625 300.894531 596.890625 218.976562 596.890625 C 137.054688 596.890625 70.40625 530.265625 70.40625 448.363281 Z M 334.796875 508.59375 C 334.796875 502.476562 329.835938 497.515625 323.714844 497.515625 L 319.457031 497.515625 L 319.457031 369.480469 C 319.457031 363.363281 314.496094 358.40625 308.375 358.40625 L 246.472656 358.40625 C 240.351562 358.40625 235.390625 363.363281 235.390625 369.480469 L 235.390625 397.554688 L 184.570312 397.554688 C 178.449219 397.554688 173.488281 402.515625 173.488281 408.632812 L 173.488281 435.628906 L 122.710938 435.628906 C 116.589844 435.628906 111.628906 440.585938 111.628906 446.707031 L 111.628906 497.515625 L 107.371094 497.515625 C 101.25 497.515625 96.289062 502.476562 96.289062 508.59375 C 96.289062 514.710938 101.25 519.671875 107.371094 519.671875 L 323.714844 519.671875 C 329.835938 519.671875 334.796875 514.710938 334.796875 508.59375 Z M 257.554688 380.5625 L 297.296875 380.5625 L 297.296875 497.515625 L 257.554688 497.515625 Z M 195.648438 419.710938 L 235.390625 419.710938 L 235.390625 497.515625 L 195.648438 497.515625 Z M 133.792969 457.785156 L 173.488281 457.785156 L 173.488281 497.515625 L 133.792969 497.515625 Z M 133.792969 457.785156 "/></g><path style=" stroke:none;fill-rule:nonzero;fill:#fd5c70;fill-opacity:1;" d="M 528.535156 54.398438 L 528.535156 11.078125 C 528.535156 4.960938 533.496094 0 539.613281 0 C 545.734375 0 550.695312 4.960938 550.695312 11.078125 L 550.695312 54.398438 C 550.695312 60.515625 545.734375 65.476562 539.613281 65.476562 C 533.496094 65.476562 528.535156 60.515625 528.535156 54.398438 Z M 632.449219 86.910156 C 634.195312 87.914062 636.097656 88.394531 637.976562 88.394531 C 641.808594 88.394531 645.53125 86.402344 647.582031 82.847656 L 669.25 45.3125 C 672.308594 40.015625 670.492188 33.238281 665.191406 30.183594 C 659.886719 27.125 653.117188 28.941406 650.054688 34.238281 L 628.390625 71.777344 C 625.332031 77.074219 627.148438 83.847656 632.449219 86.90625 Z M 758.871094 119.128906 C 755.808594 113.832031 749.035156 112.023438 743.734375 115.082031 L 706.230469 136.742188 C 700.933594 139.800781 699.121094 146.578125 702.179688 151.875 C 704.234375 155.425781 707.953125 157.414062 711.785156 157.414062 C 713.664062 157.414062 715.570312 156.929688 717.316406 155.925781 L 754.816406 134.265625 C 760.117188 131.203125 761.929688 124.429688 758.867188 119.128906 Z M 379.402344 147.859375 L 341.898438 126.242188 C 336.601562 123.183594 329.824219 125.007812 326.765625 130.304688 C 323.710938 135.605469 325.53125 142.378906 330.832031 145.433594 L 368.332031 167.050781 C 370.074219 168.054688 371.976562 168.535156 373.855469 168.535156 C 377.6875 168.535156 381.414062 166.542969 383.464844 162.988281 C 386.519531 157.6875 384.699219 150.914062 379.398438 147.859375 Z M 433.351562 89.269531 C 435.40625 92.820312 439.128906 94.804688 442.957031 94.804688 C 444.835938 94.804688 446.742188 94.328125 448.488281 93.320312 C 453.789062 90.257812 455.601562 83.484375 452.539062 78.1875 L 430.875 40.695312 C 427.816406 35.394531 421.035156 33.582031 415.738281 36.644531 C 410.4375 39.703125 408.625 46.480469 411.6875 51.773438 Z M 707.113281 249.566406 C 707.113281 288.621094 692.914062 326.332031 667.132812 355.75 C 652.378906 372.542969 645.210938 391.554688 645.210938 413.882812 L 645.210938 442.582031 C 655.753906 450.328125 662.613281 462.800781 662.613281 476.84375 C 662.613281 498.890625 645.761719 517.070312 624.257812 519.195312 L 624.257812 534.246094 C 624.257812 560.753906 602.6875 582.324219 576.171875 582.324219 L 515.882812 582.324219 C 489.367188 582.324219 467.796875 560.753906 467.796875 534.246094 L 467.796875 519.195312 C 446.296875 517.070312 429.441406 498.890625 429.441406 476.84375 C 429.441406 462.78125 436.320312 450.296875 446.890625 442.550781 L 446.890625 413.882812 C 446.890625 391.554688 439.722656 372.542969 424.976562 355.761719 C 399.1875 326.390625 384.988281 288.679688 384.988281 249.566406 C 384.988281 160.792969 457.230469 88.570312 546.027344 88.570312 C 634.824219 88.570312 707.109375 160.792969 707.109375 249.566406 Z M 602.101562 534.242188 L 602.101562 519.402344 L 489.957031 519.402344 L 489.957031 534.242188 C 489.957031 548.539062 501.589844 560.164062 515.886719 560.164062 L 576.171875 560.164062 C 590.46875 560.164062 602.101562 548.539062 602.101562 534.242188 Z M 640.453125 476.84375 C 640.453125 465.617188 631.296875 456.484375 620.042969 456.484375 L 472.015625 456.484375 C 460.757812 456.484375 451.601562 465.617188 451.601562 476.84375 C 451.601562 488.070312 460.757812 497.25 472.015625 497.25 L 620.042969 497.25 C 631.296875 497.25 640.453125 488.097656 640.453125 476.84375 Z M 684.953125 249.566406 C 684.953125 173.007812 622.632812 110.726562 546.03125 110.726562 C 469.425781 110.726562 407.152344 173.007812 407.152344 249.566406 C 407.152344 283.296875 419.394531 315.820312 441.628906 341.144531 C 460.082031 362.140625 469.054688 385.933594 469.054688 413.878906 L 469.054688 434.441406 C 470.03125 434.375 471.015625 434.328125 472.015625 434.328125 L 620.042969 434.328125 C 621.054688 434.328125 622.054688 434.375 623.046875 434.445312 L 623.046875 413.878906 C 623.046875 385.933594 632.019531 362.140625 650.472656 341.140625 C 672.703125 315.773438 684.949219 283.246094 684.949219 249.566406 Z M 662.613281 249.429688 C 662.613281 280.734375 650.179688 309.171875 630.023438 330.132812 C 629.640625 330.605469 629.222656 331.050781 628.761719 331.457031 C 607.625 352.765625 578.34375 365.984375 546.03125 365.984375 C 513.714844 365.984375 484.433594 352.761719 463.292969 331.457031 C 462.835938 331.050781 462.417969 330.605469 462.035156 330.132812 C 441.875 309.171875 429.445312 280.734375 429.445312 249.429688 C 429.445312 185.136719 481.746094 132.832031 546.03125 132.832031 C 610.316406 132.832031 662.613281 185.136719 662.613281 249.429688 Z M 546.03125 343.832031 C 569.859375 343.832031 591.644531 334.941406 608.277344 320.324219 C 596.949219 296.46875 572.753906 280.871094 546.03125 280.871094 C 519.304688 280.871094 495.152344 296.472656 483.789062 320.332031 C 500.421875 334.941406 522.199219 343.832031 546.03125 343.832031 Z M 546.03125 258.714844 C 563.21875 258.714844 577.203125 244.730469 577.203125 227.546875 C 577.203125 210.359375 563.21875 196.378906 546.03125 196.378906 C 528.839844 196.378906 514.855469 210.359375 514.855469 227.546875 C 514.855469 244.730469 528.839844 258.714844 546.03125 258.714844 Z M 640.453125 249.429688 C 640.453125 197.355469 598.09375 154.988281 546.027344 154.988281 C 493.960938 154.988281 451.601562 197.355469 451.601562 249.429688 C 451.601562 269.191406 457.71875 287.546875 468.140625 302.722656 C 477.957031 286.542969 492.515625 273.910156 509.5625 266.40625 C 499.191406 256.671875 492.691406 242.859375 492.691406 227.546875 C 492.691406 198.144531 516.617188 174.226562 546.027344 174.226562 C 575.433594 174.226562 599.359375 198.144531 599.359375 227.546875 C 599.359375 242.851562 592.867188 256.664062 582.5 266.398438 C 599.558594 273.898438 614.117188 286.527344 623.921875 302.707031 C 634.339844 287.53125 640.449219 269.183594 640.449219 249.429688 Z M 640.453125 249.429688 "/></g></svg>