<svg xmlns="http://www.w3.org/2000/svg" xmlns:xlink="http://www.w3.org/1999/xlink" width="1080" zoomAndPan="magnify" viewBox="0 0 810 809.999993" height="1080" preserveAspectRatio="xMidYMid meet" version="1.2"><defs><clipPath id="d5fd50430b"><path d="M 14.679688 15 L 794 15 L 794 810 L 14.679688 810 Z M 14.679688 15 "/></clipPath></defs><g id="3e3f324a9a"><g clip-rule="nonzero" clip-path="url(#d5fd50430b)"><path style=" stroke:none;fill-rule:evenodd;fill:#000000;fill-opacity:1;" d="M 599.207031 630.515625 L 143.773438 809.699219 L 143.773438 747.726562 L 599.207031 568.546875 Z M 130.808594 746.871094 L 130.808594 807.414062 L 14.640625 733.542969 L 14.640625 673.003906 Z M 101.671875 631.371094 L 101.671875 664.652344 C 101.671875 675.917969 108.847656 684.890625 120.289062 690.582031 C 135.011719 697.910156 157.042969 699.6875 175.210938 694.839844 C 209.628906 685.65625 220.160156 668.652344 220.160156 651.519531 L 220.160156 584.753906 L 247.679688 573.925781 L 247.679688 608.964844 C 247.679688 620.226562 254.855469 629.199219 266.292969 634.890625 C 281.019531 642.21875 303.050781 643.996094 321.21875 639.148438 C 355.632812 629.964844 366.167969 612.960938 366.167969 595.828125 L 366.167969 527.3125 L 393.6875 516.484375 L 393.6875 554.632812 C 393.6875 565.898438 400.863281 574.871094 412.300781 580.5625 C 427.027344 587.890625 449.058594 589.667969 467.222656 584.820312 C 501.640625 575.632812 512.171875 558.628906 512.171875 541.5 L 512.171875 507.246094 L 591.460938 557.660156 L 137.988281 736.074219 L 22.386719 662.566406 Z M 260.644531 457.179688 C 270.921875 462.0625 287.800781 465.445312 306.921875 465.445312 C 326.046875 465.445312 342.925781 462.0625 353.203125 457.179688 L 353.203125 522.78125 C 353.203125 522.859375 353.203125 522.9375 353.203125 523.019531 L 353.203125 595.828125 C 353.203125 608.691406 343.710938 619.726562 317.871094 626.625 C 302.726562 630.664062 284.347656 629.394531 272.070312 623.285156 C 265.503906 620.019531 260.644531 615.429688 260.644531 608.964844 L 260.644531 564.527344 C 260.644531 564.445312 260.644531 564.367188 260.644531 564.289062 Z M 353.203125 441.414062 C 353.203125 442.070312 352.433594 442.410156 351.734375 442.984375 C 350.464844 444.027344 348.796875 444.976562 346.820312 445.875 C 337.824219 449.953125 323.289062 452.480469 306.921875 452.480469 C 290.558594 452.480469 276.023438 449.953125 267.027344 445.875 C 265.050781 444.976562 263.382812 444.027344 262.113281 442.984375 C 261.414062 442.410156 260.644531 442.070312 260.644531 441.414062 C 260.644531 440.761719 261.414062 440.421875 262.113281 439.847656 C 263.382812 438.804688 265.050781 437.855469 267.027344 436.957031 C 276.023438 432.878906 290.558594 430.351562 306.921875 430.351562 C 323.289062 430.351562 337.824219 432.878906 346.820312 436.957031 C 348.796875 437.855469 350.464844 438.804688 351.734375 439.847656 C 352.433594 440.421875 353.203125 440.761719 353.203125 441.414062 Z M 114.636719 411.183594 C 124.914062 416.066406 141.792969 419.449219 160.914062 419.449219 C 180.039062 419.449219 196.917969 416.066406 207.195312 411.183594 L 207.195312 580.226562 C 207.191406 580.304688 207.191406 580.382812 207.195312 580.460938 L 207.195312 651.519531 C 207.195312 664.382812 197.703125 675.417969 171.867188 682.316406 C 156.722656 686.359375 138.339844 685.085938 126.0625 678.976562 C 119.496094 675.710938 114.636719 671.121094 114.636719 664.652344 L 114.636719 621.96875 C 114.636719 621.890625 114.636719 621.8125 114.636719 621.730469 Z M 207.195312 395.421875 C 207.195312 396.074219 206.425781 396.414062 205.726562 396.988281 C 204.457031 398.03125 202.789062 398.980469 200.8125 399.878906 C 191.816406 403.957031 177.28125 406.484375 160.914062 406.484375 C 144.550781 406.484375 130.015625 403.957031 121.019531 399.878906 C 119.046875 398.980469 117.375 398.03125 116.105469 396.988281 C 115.40625 396.414062 114.636719 396.074219 114.636719 395.421875 C 114.636719 394.765625 115.40625 394.425781 116.105469 393.855469 C 117.375 392.808594 119.046875 391.859375 121.019531 390.964844 C 130.015625 386.882812 144.550781 384.355469 160.914062 384.355469 C 177.28125 384.355469 191.816406 386.882812 200.8125 390.964844 C 202.789062 391.859375 204.457031 392.808594 205.726562 393.855469 C 206.425781 394.425781 207.195312 394.765625 207.195312 395.421875 Z M 214.023438 305.910156 C 215.054688 303.828125 215.96875 301.679688 216.753906 299.46875 L 275.453125 325.84375 C 277.28125 326.8125 277.1875 328.980469 276.574219 330.648438 C 276.078125 332.007812 275.195312 333.554688 273.726562 333.253906 C 273.722656 333.253906 230.671875 313.535156 214.023438 305.910156 Z M 160.914062 233.375 C 186.457031 233.375 207.195312 254.105469 207.195312 279.644531 C 207.195312 305.183594 186.457031 325.914062 160.914062 325.914062 C 135.375 325.914062 114.636719 305.183594 114.636719 279.644531 C 114.636719 254.105469 135.375 233.375 160.914062 233.375 Z M 586.421875 281.082031 L 608.203125 302.859375 C 607.703125 303.308594 607.210938 303.773438 606.730469 304.253906 L 587.863281 323.117188 C 587.378906 323.601562 586.917969 324.089844 586.464844 324.589844 L 564.683594 302.8125 C 568.585938 299.554688 572.375 296.097656 576.039062 292.433594 C 579.703125 288.769531 583.164062 284.980469 586.421875 281.082031 Z M 615.898438 313.421875 C 625.222656 304.097656 640.34375 304.097656 649.671875 313.421875 L 786.132812 449.863281 C 795.460938 459.1875 795.460938 474.304688 786.132812 483.628906 L 767.265625 502.496094 C 757.941406 511.820312 742.820312 511.820312 733.492188 502.496094 L 597.03125 366.054688 C 587.703125 356.726562 587.703125 341.609375 597.03125 332.285156 Z M 503.820312 321.742188 C 503.757812 321.761719 503.691406 321.78125 503.628906 321.800781 C 470.710938 332.261719 435.015625 331.613281 402.441406 319.847656 C 402.394531 319.832031 402.347656 319.8125 402.300781 319.796875 C 381.371094 312.214844 361.730469 300.035156 344.960938 283.265625 C 283.71875 222.035156 283.71875 122.617188 344.960938 61.386719 C 406.199219 0.15625 505.632812 0.15625 566.871094 61.386719 C 628.109375 122.617188 628.109375 222.035156 566.871094 283.265625 C 548.582031 301.550781 526.886719 314.378906 503.820312 321.742188 Z M 365.703125 82.125 C 315.910156 131.910156 315.910156 212.742188 365.703125 262.527344 C 415.492188 312.3125 496.339844 312.3125 546.128906 262.527344 C 595.921875 212.742188 595.921875 131.910156 546.128906 82.125 C 496.339844 32.34375 415.492188 32.34375 365.703125 82.125 Z M 406.652344 275.824219 L 406.652344 260.53125 C 416.929688 265.417969 433.808594 268.796875 452.929688 268.796875 C 472.050781 268.796875 488.933594 265.417969 499.210938 260.53125 L 499.210938 278.457031 C 469.511719 290.535156 435.757812 289.660156 406.652344 275.824219 Z M 499.210938 244.769531 C 499.210938 245.425781 498.4375 245.765625 497.742188 246.335938 C 496.472656 247.378906 494.800781 248.332031 492.828125 249.226562 C 483.832031 253.308594 469.292969 255.835938 452.929688 255.835938 C 436.566406 255.835938 422.027344 253.308594 413.035156 249.226562 C 411.058594 248.332031 409.390625 247.378906 408.121094 246.335938 C 407.421875 245.765625 406.652344 245.425781 406.652344 244.769531 C 406.652344 244.113281 407.421875 243.773438 408.121094 243.203125 C 409.390625 242.160156 411.058594 241.207031 413.035156 240.3125 C 422.027344 236.230469 436.566406 233.703125 452.929688 233.703125 C 469.292969 233.703125 483.832031 236.230469 492.828125 240.3125 C 494.800781 241.207031 496.472656 242.160156 497.742188 243.203125 C 498.4375 243.773438 499.210938 244.113281 499.210938 244.769531 Z M 412.75 169.535156 C 408.871094 162.769531 406.652344 154.929688 406.652344 146.578125 C 406.652344 121.039062 427.390625 100.304688 452.929688 100.304688 C 478.472656 100.304688 499.210938 121.039062 499.210938 146.578125 C 499.210938 172.113281 478.472656 192.847656 452.929688 192.847656 C 447.960938 192.847656 443.175781 192.0625 438.6875 190.609375 L 445.976562 181.183594 C 446.046875 181.09375 446.113281 181.003906 446.175781 180.910156 C 451.609375 173.074219 448.574219 164.066406 442.058594 159.039062 C 435.59375 154.054688 426.160156 153.230469 419.605469 160.886719 C 419.550781 160.949219 419.5 161.011719 419.449219 161.078125 Z M 368.433594 246.375 L 429.515625 169.25 C 430.886719 167.746094 432.816406 168.285156 434.140625 169.304688 C 435.410156 170.285156 436.550781 171.886719 435.59375 173.417969 C 435.589844 173.421875 388.972656 233.699219 374.25 252.738281 C 372.21875 250.675781 370.277344 248.550781 368.433594 246.375 Z M 406.652344 334.894531 C 436.746094 343.96875 468.867188 344.53125 499.210938 336.574219 L 499.210938 541.5 C 499.210938 554.359375 489.71875 565.398438 463.878906 572.292969 C 448.738281 576.335938 430.355469 575.066406 418.078125 568.957031 C 411.511719 565.6875 406.652344 561.097656 406.652344 554.632812 L 406.652344 507.082031 C 406.652344 507.003906 406.652344 506.921875 406.652344 506.84375 Z M 261.640625 341.980469 L 268.757812 345.238281 C 268.976562 345.339844 269.203125 345.425781 269.429688 345.503906 C 278.261719 348.414062 285.875 342.957031 288.75 335.109375 C 291.523438 327.542969 289.625 318.375 281.109375 314.179688 C 281.042969 314.144531 280.972656 314.113281 280.902344 314.082031 L 267.550781 308.082031 C 275.714844 294.910156 290.300781 286.125 306.921875 286.125 C 314.082031 286.125 320.863281 287.753906 326.914062 290.660156 C 332.828125 293.5 338.046875 297.5625 342.246094 302.515625 C 349.078125 310.578125 353.203125 321.011719 353.203125 332.398438 C 353.203125 357.933594 332.464844 378.667969 306.921875 378.667969 C 284.667969 378.667969 266.058594 362.925781 261.640625 341.980469 Z M 261.640625 341.980469 "/></g></g></svg>