<svg xmlns="http://www.w3.org/2000/svg" xmlns:xlink="http://www.w3.org/1999/xlink" width="1080" zoomAndPan="magnify" viewBox="0 0 810 809.999993" height="1080" preserveAspectRatio="xMidYMid meet" version="1.2"><defs><clipPath id="2dea8c6db3"><path d="M 10.632812 0 L 799.632812 0 L 799.632812 809 L 10.632812 809 Z M 10.632812 0 "/></clipPath><clipPath id="ad3e2f6b80"><path d="M 10.632812 0 L 304 0 L 304 393 L 10.632812 393 Z M 10.632812 0 "/></clipPath><clipPath id="d0655138e4"><path d="M 506 0 L 799.632812 0 L 799.632812 393 L 506 393 Z M 506 0 "/></clipPath><clipPath id="733135cbae"><path d="M 10.632812 422 L 295 422 L 295 809 L 10.632812 809 Z M 10.632812 422 "/></clipPath><clipPath id="564a1d7346"><path d="M 515 422 L 799.632812 422 L 799.632812 809 L 515 809 Z M 515 422 "/></clipPath></defs><g id="59e9be9d3d"><g clip-rule="nonzero" clip-path="url(#2dea8c6db3)"><path style=" stroke:none;fill-rule:nonzero;fill:#ffffff;fill-opacity:1;" d="M 797.066406 423.316406 L 797.003906 423.253906 C 796.941406 423.253906 796.941406 423.191406 796.878906 423.191406 L 785.074219 416.3125 C 783.871094 415.617188 782.230469 415.746094 780.398438 416.816406 L 650.09375 491.980469 L 623.828125 446.476562 C 623.890625 446.164062 624.015625 445.847656 624.015625 445.53125 L 624.144531 426.28125 L 662.464844 448.117188 L 695.546875 429.058594 L 695.546875 424.894531 L 688.414062 420.789062 L 656.847656 438.964844 L 637.339844 427.921875 L 665.558594 411.636719 L 665.496094 407.472656 L 658.425781 403.304688 L 626.796875 421.546875 L 624.207031 420.09375 L 624.335938 404.695312 C 624.335938 403.621094 623.828125 402.484375 623.007812 401.476562 L 635.507812 394.21875 L 635.507812 390.054688 L 628.375 385.886719 L 612.78125 394.914062 L 593.398438 383.742188 L 605.523438 376.796875 L 605.457031 372.632812 L 598.324219 368.46875 L 582.664062 377.554688 L 563.285156 366.382812 L 575.46875 359.378906 L 575.46875 355.214844 L 568.335938 351.046875 L 552.550781 360.199219 L 533.167969 349.027344 L 545.417969 341.957031 L 545.417969 337.792969 L 538.285156 333.625 L 522.375 342.839844 L 503.054688 331.667969 L 515.429688 324.539062 L 515.429688 320.371094 L 508.296875 316.207031 L 502.863281 319.363281 C 503.9375 317.910156 504.824219 316.585938 505.453125 315.574219 C 506.210938 314.1875 506.652344 313.367188 506.652344 313.367188 C 526.097656 306.992188 535.253906 296.199219 538.660156 283.890625 C 541.378906 273.542969 539.796875 262.179688 536.390625 251.390625 L 780.464844 392.253906 C 782.863281 393.644531 784.824219 393.203125 785.960938 391.6875 C 785.707031 392.066406 785.453125 392.507812 785.074219 392.699219 L 797.066406 385.695312 C 798.269531 385 799.027344 383.609375 799.027344 381.589844 L 799.59375 168.648438 C 799.65625 164.484375 796.6875 159.433594 793.089844 157.351562 L 523.003906 1.539062 C 521.171875 0.464844 519.59375 0.339844 518.394531 1.03125 L 506.460938 7.976562 L 506.398438 7.976562 C 506.398438 7.976562 506.398438 8.039062 506.335938 8.039062 C 505.199219 8.734375 504.441406 10.121094 504.441406 12.207031 L 503.9375 190.433594 C 500.023438 186.394531 495.730469 182.734375 492.886719 180.460938 C 490.742188 178.886719 489.542969 177.875 489.542969 177.875 C 488.40625 175.539062 486.636719 173.269531 484.429688 170.933594 C 474.832031 161.085938 456.964844 152 448 147.769531 C 444.65625 146.320312 442.632812 145.433594 442.632812 145.433594 C 441.558594 144.929688 440.550781 144.300781 439.414062 143.796875 C 378.109375 113.878906 339.726562 130.039062 322.300781 142.21875 C 315.101562 147.203125 311.503906 151.558594 311.503906 151.558594 C 311.503906 151.558594 309.988281 151.683594 307.652344 152.378906 C 307.214844 152.566406 306.707031 152.757812 306.203125 152.945312 L 305.824219 12.207031 C 305.824219 10.125 305.066406 8.734375 303.929688 8.039062 L 303.867188 8.039062 L 303.867188 7.976562 L 303.804688 7.976562 L 291.871094 1.03125 C 290.671875 0.339844 289.09375 0.464844 287.199219 1.539062 L 17.113281 157.359375 C 13.578125 159.445312 10.609375 164.492188 10.671875 168.65625 L 11.242188 381.597656 C 11.242188 383.621094 12 385.007812 13.199219 385.703125 L 25.191406 392.707031 C 24.816406 392.519531 24.5625 392.078125 24.246094 391.699219 C 25.445312 393.210938 27.402344 393.65625 29.800781 392.265625 L 285.367188 244.773438 C 292.4375 253.484375 300.773438 259.097656 305.320312 261.8125 L 304.875 329.785156 L 292.1875 337.105469 L 286.125 333.632812 L 278.992188 337.800781 L 278.992188 341.964844 L 281.453125 343.351562 L 262.199219 354.589844 L 256.136719 351.054688 L 249.003906 355.21875 L 249.003906 359.386719 L 251.464844 360.773438 L 232.144531 372.007812 L 226.085938 368.476562 L 218.953125 372.640625 L 218.953125 376.804688 L 221.414062 378.195312 L 202.160156 389.429688 L 196.097656 385.894531 L 188.964844 390.058594 L 188.964844 394.226562 L 191.425781 395.679688 L 185.175781 399.273438 C 182.714844 400.726562 181.515625 402.621094 181.453125 404.449219 L 181.453125 404.765625 L 181.386719 412.210938 L 166.046875 403.3125 L 158.914062 407.476562 L 158.914062 411.644531 L 181.261719 424.519531 L 181.199219 431.273438 L 167.625 438.972656 L 136.058594 420.796875 L 128.925781 424.898438 L 128.863281 429.0625 L 161.945312 448.125 L 181.199219 437.207031 L 181.074219 445.347656 C 181.074219 446.863281 181.769531 448.316406 183.222656 449.640625 C 183.664062 450.082031 184.292969 450.460938 184.925781 450.839844 L 194.773438 456.519531 L 170.785156 498.109375 L 29.867188 416.816406 C 28.035156 415.742188 26.394531 415.617188 25.195312 416.3125 L 13.390625 423.191406 C 13.324219 423.191406 13.324219 423.253906 13.261719 423.253906 L 13.199219 423.316406 C 12 424.011719 11.304688 425.464844 11.242188 427.484375 L 10.671875 640.421875 C 10.671875 644.527344 13.578125 649.574219 17.175781 651.65625 L 287.261719 807.542969 C 289.660156 808.933594 291.683594 808.554688 292.816406 806.976562 C 292.503906 807.355469 292.316406 807.796875 291.933594 807.988281 L 303.929688 801.042969 C 305.128906 800.347656 305.824219 798.898438 305.824219 796.878906 L 306.328125 617.953125 L 319.269531 610.441406 L 354.816406 548.847656 L 375.207031 560.585938 L 340.671875 620.414062 L 309.042969 638.71875 L 309.042969 642.886719 L 316.175781 646.988281 L 349.324219 627.863281 L 384.933594 566.203125 L 394.148438 571.503906 C 399.136719 574.34375 407.46875 574.34375 412.457031 571.503906 L 434.996094 558.441406 L 435.058594 558.441406 L 475.152344 627.863281 L 504 644.523438 L 504.445312 796.878906 C 504.445312 798.898438 505.136719 800.347656 506.339844 801.042969 L 518.332031 807.988281 C 517.953125 807.796875 517.699219 807.355469 517.449219 806.976562 C 518.585938 808.554688 520.605469 808.933594 523.003906 807.542969 L 793.089844 651.65625 C 796.6875 649.574219 799.59375 644.527344 799.59375 640.421875 L 798.960938 427.484375 C 798.960938 425.464844 798.265625 424.011719 797.066406 423.316406 Z M 180.5 503.722656 L 204.492188 462.132812 L 224.886719 473.871094 L 200.832031 515.460938 Z M 210.554688 521.078125 L 234.546875 479.488281 L 254.9375 491.226562 L 230.945312 532.816406 Z M 240.605469 538.433594 L 264.660156 496.84375 L 284.992188 508.582031 L 261 550.171875 Z M 291.050781 567.527344 L 270.660156 555.789062 L 294.710938 514.136719 L 315.039062 525.9375 Z M 310.683594 602.996094 L 306.328125 605.523438 L 306.390625 583.9375 C 306.453125 580.085938 303.929688 575.542969 300.707031 573.269531 L 324.761719 531.492188 L 345.15625 543.230469 Z M 483.734375 620.417969 L 444.71875 552.757812 L 465.046875 541.023438 L 465.109375 541.023438 L 503.9375 608.296875 L 504 632.089844 Z M 510.3125 572.640625 C 506.714844 574.722656 503.808594 579.773438 503.875 583.9375 L 503.875 585.832031 L 474.765625 535.34375 L 495.035156 523.539062 L 495.097656 523.601562 L 520.164062 566.960938 Z M 529.820312 561.40625 L 504.757812 517.921875 L 525.085938 506.121094 L 525.148438 506.183594 L 550.214844 549.605469 Z M 559.9375 544.050781 L 534.808594 500.503906 L 555.078125 488.703125 L 555.203125 488.765625 L 580.269531 532.3125 Z M 589.988281 526.695312 L 564.796875 483.085938 L 585.128906 471.28125 L 585.191406 471.34375 L 610.382812 514.957031 Z M 620.042969 509.339844 L 594.851562 465.664062 L 615.117188 453.863281 L 615.242188 453.925781 L 640.433594 497.601562 Z M 620.042969 509.339844 "/></g><g clip-rule="nonzero" clip-path="url(#ad3e2f6b80)"><path style=" stroke:none;fill-rule:nonzero;fill:#9ad898;fill-opacity:1;" d="M 303.917969 8.03125 C 302.726562 7.339844 301.070312 7.414062 299.261719 8.457031 L 29.171875 164.351562 C 25.550781 166.429688 22.664062 171.46875 22.664062 175.628906 L 23.277344 388.519531 C 23.277344 390.597656 24.011719 392.023438 25.164062 392.710938 L 13.171875 385.730469 C 11.980469 385.039062 11.25 383.613281 11.25 381.574219 L 10.671875 168.644531 C 10.632812 164.488281 13.558594 159.449219 17.140625 157.371094 L 287.230469 1.511719 C 289.078125 0.433594 290.695312 0.355469 291.886719 1.050781 Z M 303.917969 8.03125 "/></g><path style=" stroke:none;fill-rule:nonzero;fill:#75ca75;fill-opacity:1;" d="M 299.25 8.472656 C 302.863281 6.386719 305.796875 8.058594 305.808594 12.207031 L 306.414062 225.113281 C 306.425781 229.234375 303.507812 234.285156 299.898438 236.371094 L 29.800781 392.257812 C 26.210938 394.328125 23.277344 392.65625 23.269531 388.535156 L 22.664062 175.628906 C 22.652344 171.476562 25.566406 166.429688 29.15625 164.359375 Z M 299.25 8.472656 "/><path style=" stroke:none;fill-rule:nonzero;fill:#ffffff;fill-opacity:1;" d="M 40.222656 176.671875 C 40.285156 176.484375 40.773438 175.644531 41.109375 175.359375 L 287.980469 32.898438 L 288.519531 223.878906 C 288.457031 224.042969 287.964844 224.886719 287.628906 225.164062 L 40.765625 367.625 Z M 40.222656 176.671875 "/><path style=" stroke:none;fill-rule:nonzero;fill:#d4dae8;fill-opacity:1;" d="M 120.257812 299.4375 C 120.257812 301.289062 118.96875 303.546875 117.355469 304.511719 L 74.53125 329.230469 C 72.917969 330.117188 71.628906 329.390625 71.628906 327.457031 L 71.226562 251.734375 C 71.226562 249.882812 72.515625 247.628906 74.128906 246.742188 L 116.871094 222.023438 C 118.566406 221.058594 119.851562 221.78125 119.851562 223.71875 Z M 120.257812 299.4375 "/><path style=" stroke:none;fill-rule:nonzero;fill:#d4dae8;fill-opacity:1;" d="M 198.414062 253.316406 C 198.414062 255.167969 197.125 257.421875 195.511719 258.390625 L 152.6875 283.105469 C 151.074219 283.992188 149.785156 283.269531 149.785156 281.335938 L 149.382812 205.609375 C 149.382812 203.761719 150.671875 201.503906 152.285156 200.621094 L 195.027344 175.902344 C 196.722656 174.933594 198.007812 175.660156 198.007812 177.59375 Z M 198.414062 253.316406 "/><path style=" stroke:none;fill-rule:nonzero;fill:#d4dae8;fill-opacity:1;" d="M 276.570312 207.195312 C 276.570312 209.042969 275.28125 211.300781 273.667969 212.265625 L 230.84375 236.984375 C 229.234375 237.871094 227.941406 237.144531 227.941406 235.214844 L 227.539062 159.488281 C 227.539062 157.636719 228.828125 155.382812 230.441406 154.496094 L 273.1875 129.777344 C 274.878906 128.8125 276.167969 129.539062 276.167969 131.472656 Z M 276.570312 207.195312 "/><path style=" stroke:none;fill-rule:nonzero;fill:#4c7891;fill-opacity:1;" d="M 168.5625 146.496094 C 169.140625 147.0625 169.394531 148.105469 169.398438 149.621094 C 169.402344 151.132812 169.160156 152.457031 168.582031 153.691406 C 168.007812 154.925781 167.1875 155.828125 166.03125 156.492188 C 164.917969 157.136719 164.050781 157.207031 163.511719 156.617188 C 162.933594 156.050781 162.644531 155.035156 162.636719 153.519531 C 162.632812 152.003906 162.917969 150.65625 163.492188 149.421875 C 164.027344 148.210938 164.890625 147.285156 166.003906 146.644531 C 167.15625 145.980469 167.984375 145.929688 168.5625 146.496094 Z M 167.550781 153.292969 C 167.878906 152.441406 168.039062 151.492188 168.035156 150.402344 C 168.035156 149.316406 167.867188 148.558594 167.535156 148.085938 C 167.242188 147.636719 166.707031 147.613281 166.007812 148.019531 C 165.304688 148.425781 164.8125 149.039062 164.484375 149.894531 C 164.15625 150.699219 163.992188 151.695312 163.996094 152.734375 C 164 153.824219 164.167969 154.582031 164.5 155.007812 C 164.832031 155.480469 165.328125 155.523438 166.027344 155.117188 C 166.730469 154.714844 167.265625 154.078125 167.550781 153.292969 "/><path style=" stroke:none;fill-rule:nonzero;fill:#4562ef;fill-opacity:1;" d="M 164.097656 128.144531 C 163.914062 128.734375 163.804688 129.328125 163.808594 129.890625 C 163.8125 130.667969 164.015625 131.277344 164.359375 131.695312 C 156.71875 137.539062 150.683594 147.988281 149.464844 157.488281 C 148.933594 157.398438 148.300781 157.527344 147.621094 157.921875 C 147.132812 158.203125 146.671875 158.589844 146.253906 159.046875 C 147.601562 147.664062 154.886719 135.054688 164.097656 128.144531 Z M 164.097656 128.144531 "/><path style=" stroke:none;fill-rule:nonzero;fill:#4c7891;fill-opacity:1;" d="M 161.59375 149.429688 L 161.597656 150.847656 L 158.117188 160.964844 L 156.589844 161.847656 L 159.988281 151.777344 L 157.019531 153.488281 L 157.023438 154.816406 L 155.789062 155.527344 L 155.78125 152.78125 Z M 161.59375 149.429688 "/><path style=" stroke:none;fill-rule:nonzero;fill:#4c7891;fill-opacity:1;" d="M 178.425781 145.640625 C 178.757812 145.875 178.925781 146.300781 178.929688 146.871094 C 178.929688 147.488281 178.765625 148.101562 178.4375 148.71875 C 178.109375 149.335938 177.65625 149.785156 177.160156 150.070312 C 176.625 150.378906 176.210938 150.429688 175.878906 150.191406 C 175.550781 149.957031 175.34375 149.558594 175.339844 148.941406 C 175.339844 148.371094 175.542969 147.734375 175.871094 147.117188 C 176.199219 146.5 176.652344 146 177.148438 145.714844 C 177.640625 145.429688 178.097656 145.40625 178.425781 145.640625 Z M 177.652344 148.363281 L 177.855469 147.535156 L 177.648438 146.992188 L 177.152344 146.992188 L 176.65625 147.5625 L 176.492188 148.320312 L 176.703125 148.910156 L 177.199219 148.910156 Z M 177.652344 148.363281 "/><path style=" stroke:none;fill-rule:nonzero;fill:#4c7891;fill-opacity:1;" d="M 177.011719 140.53125 L 178.535156 139.648438 L 172.460938 152.6875 L 170.9375 153.566406 Z M 177.011719 140.53125 "/><path style=" stroke:none;fill-rule:nonzero;fill:#4c7891;fill-opacity:1;" d="M 172.40625 147.316406 C 171.910156 147.601562 171.5 147.601562 171.125 147.386719 C 170.792969 147.15625 170.628906 146.773438 170.625 146.160156 C 170.625 145.542969 170.789062 144.925781 171.15625 144.289062 C 171.488281 143.671875 171.898438 143.246094 172.433594 142.933594 C 172.929688 142.648438 173.339844 142.601562 173.714844 142.8125 C 174.046875 143.046875 174.210938 143.472656 174.214844 144.089844 C 174.214844 144.65625 174.050781 145.273438 173.722656 145.890625 C 173.351562 146.53125 172.941406 147.003906 172.40625 147.316406 Z M 171.902344 144.757812 L 171.738281 145.515625 L 171.945312 146.109375 L 172.441406 146.105469 L 172.894531 145.558594 L 173.097656 144.730469 L 172.890625 144.1875 L 172.394531 144.1875 Z M 171.902344 144.757812 "/><path style=" stroke:none;fill-rule:nonzero;fill:#576cfb;fill-opacity:1;" d="M 167.261719 123.964844 C 179.996094 116.613281 190.417969 122.550781 190.460938 137.179688 C 190.5 151.855469 180.148438 169.738281 167.410156 177.085938 C 154.632812 184.464844 144.253906 178.546875 144.214844 163.871094 C 144.207031 162.253906 145.046875 160.363281 146.25 159.046875 C 146.671875 158.589844 147.132812 158.203125 147.621094 157.917969 C 148.300781 157.527344 148.933594 157.398438 149.464844 157.488281 C 150.417969 157.652344 151.046875 158.523438 151.054688 159.921875 C 151.082031 170.242188 158.402344 174.414062 167.386719 169.226562 C 176.371094 164.042969 183.644531 151.449219 183.613281 141.128906 C 183.585938 130.808594 176.265625 126.683594 167.28125 131.871094 C 166.058594 132.574219 164.976562 132.449219 164.359375 131.699219 C 164.011719 131.277344 163.808594 130.667969 163.804688 129.894531 C 163.804688 129.332031 163.910156 128.738281 164.09375 128.148438 C 164.632812 126.445312 165.855469 124.773438 167.261719 123.964844 Z M 167.261719 123.964844 "/><path style=" stroke:none;fill-rule:nonzero;fill:#416e84;fill-opacity:1;" d="M 88.6875 192.59375 C 89.265625 193.160156 89.519531 194.203125 89.523438 195.714844 C 89.527344 197.183594 89.285156 198.558594 88.707031 199.789062 C 88.136719 201.023438 87.3125 201.925781 86.15625 202.589844 C 85.042969 203.234375 84.175781 203.304688 83.636719 202.714844 C 83.058594 202.148438 82.765625 201.082031 82.761719 199.617188 C 82.757812 198.101562 83.042969 196.75 83.617188 195.519531 C 84.152344 194.308594 85.015625 193.335938 86.128906 192.695312 C 87.28125 192.027344 88.109375 192.027344 88.6875 192.59375 Z M 87.675781 199.34375 C 88.003906 198.539062 88.164062 197.542969 88.164062 196.503906 C 88.160156 195.414062 87.992188 194.65625 87.660156 194.183594 C 87.371094 193.6875 86.832031 193.710938 86.132812 194.117188 C 85.472656 194.496094 84.9375 195.089844 84.613281 195.945312 C 84.28125 196.796875 84.121094 197.746094 84.125 198.835938 C 84.128906 199.875 84.292969 200.632812 84.625 201.105469 C 84.960938 201.578125 85.496094 201.601562 86.152344 201.21875 C 86.851562 200.8125 87.386719 200.171875 87.675781 199.34375 "/><path style=" stroke:none;fill-rule:nonzero;fill:#4c7891;fill-opacity:1;" d="M 98.554688 191.738281 C 98.882812 191.925781 99.050781 192.351562 99.050781 192.96875 C 99.054688 193.585938 98.890625 194.152344 98.5625 194.769531 C 98.230469 195.386719 97.78125 195.882812 97.285156 196.167969 C 96.75 196.476562 96.335938 196.527344 96.003906 196.289062 C 95.675781 196.054688 95.46875 195.652344 95.464844 195.039062 C 95.464844 194.46875 95.667969 193.828125 95.996094 193.210938 C 96.324219 192.59375 96.777344 192.097656 97.273438 191.8125 C 97.808594 191.5 98.222656 191.5 98.554688 191.738281 Z M 97.777344 194.460938 L 97.980469 193.632812 L 97.773438 193.085938 L 97.277344 193.089844 L 96.78125 193.65625 L 96.617188 194.417969 L 96.828125 195.007812 L 97.320312 195.003906 Z M 97.777344 194.460938 "/><path style=" stroke:none;fill-rule:nonzero;fill:#416e84;fill-opacity:1;" d="M 97.136719 186.578125 L 98.660156 185.699219 L 92.585938 198.785156 L 91.0625 199.664062 Z M 97.136719 186.578125 "/><path style=" stroke:none;fill-rule:nonzero;fill:#416e84;fill-opacity:1;" d="M 92.570312 193.339844 C 92.035156 193.648438 91.621094 193.699219 91.292969 193.460938 C 90.917969 193.25 90.753906 192.824219 90.75 192.257812 C 90.75 191.640625 90.914062 191.023438 91.28125 190.382812 C 91.609375 189.765625 92.023438 189.292969 92.558594 188.984375 C 93.054688 188.699219 93.464844 188.695312 93.839844 188.910156 C 94.167969 189.144531 94.335938 189.570312 94.339844 190.140625 C 94.339844 190.757812 94.175781 191.371094 93.847656 191.988281 C 93.476562 192.625 93.0625 193.054688 92.570312 193.339844 Z M 92.066406 190.785156 L 91.863281 191.613281 L 92.070312 192.15625 L 92.566406 192.15625 L 93.019531 191.609375 L 93.222656 190.828125 L 93.015625 190.238281 L 92.519531 190.238281 Z M 92.066406 190.785156 "/><path style=" stroke:none;fill-rule:nonzero;fill:#6eba6e;fill-opacity:1;" d="M 84.175781 174.261719 C 83.996094 174.851562 83.890625 175.445312 83.894531 176.011719 C 83.894531 176.789062 84.09375 177.398438 84.433594 177.8125 C 76.78125 183.652344 70.734375 194.113281 69.507812 203.621094 C 68.972656 203.539062 68.339844 203.671875 67.664062 204.0625 C 67.175781 204.34375 66.710938 204.734375 66.292969 205.1875 C 67.648438 193.792969 74.949219 181.160156 84.175781 174.261719 Z M 84.175781 174.261719 "/><path style=" stroke:none;fill-rule:nonzero;fill:#75ca75;fill-opacity:1;" d="M 87.304688 170.105469 C 100.082031 162.730469 110.503906 168.621094 110.542969 183.296875 C 110.585938 197.929688 100.230469 215.855469 87.453125 223.230469 C 74.71875 230.582031 64.296875 224.644531 64.253906 210.015625 C 64.25 208.398438 65.085938 206.507812 66.292969 205.191406 C 66.710938 204.734375 67.175781 204.34375 67.664062 204.0625 C 68.339844 203.671875 68.972656 203.539062 69.507812 203.625 C 70.476562 203.777344 71.132812 204.640625 71.136719 206.042969 C 71.164062 216.316406 78.445312 220.558594 87.429688 215.371094 C 96.414062 210.183594 103.6875 197.546875 103.660156 187.273438 C 103.628906 176.949219 96.308594 172.78125 87.324219 177.964844 C 86.105469 178.667969 85.042969 178.558594 84.433594 177.8125 C 84.09375 177.398438 83.894531 176.789062 83.890625 176.011719 C 83.890625 175.445312 83.992188 174.851562 84.175781 174.261719 C 84.703125 172.574219 85.898438 170.917969 87.304688 170.105469 Z M 87.304688 170.105469 "/><path style=" stroke:none;fill-rule:nonzero;fill:#4c7891;fill-opacity:1;" d="M 256.824219 94.492188 C 257.15625 94.726562 257.320312 95.152344 257.324219 95.722656 C 257.324219 96.335938 257.160156 96.953125 256.792969 97.59375 C 256.464844 98.210938 256.050781 98.636719 255.515625 98.945312 C 255.019531 99.234375 254.609375 99.28125 254.238281 99.066406 C 253.90625 98.832031 253.738281 98.40625 253.738281 97.789062 C 253.734375 97.222656 253.898438 96.605469 254.226562 95.988281 C 254.597656 95.351562 255.007812 94.875 255.542969 94.566406 C 256.039062 94.28125 256.449219 94.277344 256.824219 94.492188 Z M 256.046875 97.214844 L 256.210938 96.410156 L 256.042969 95.84375 L 255.546875 95.84375 L 255.054688 96.414062 L 254.847656 97.195312 L 255.058594 97.785156 L 255.554688 97.785156 Z M 256.046875 97.214844 "/><path style=" stroke:none;fill-rule:nonzero;fill:#4c7891;fill-opacity:1;" d="M 255.363281 89.40625 L 256.890625 88.523438 L 250.855469 101.539062 L 249.332031 102.417969 Z M 255.363281 89.40625 "/><path style=" stroke:none;fill-rule:nonzero;fill:#4c7891;fill-opacity:1;" d="M 246.917969 95.371094 C 247.496094 95.9375 247.789062 96.953125 247.792969 98.46875 C 247.796875 99.984375 247.511719 101.335938 246.9375 102.570312 C 246.40625 103.777344 245.539062 104.703125 244.429688 105.347656 C 243.273438 106.011719 242.449219 106.0625 241.867188 105.496094 C 241.328125 104.90625 241.039062 103.886719 241.03125 102.371094 C 241.027344 100.859375 241.3125 99.507812 241.847656 98.300781 C 242.421875 97.066406 243.246094 96.164062 244.398438 95.496094 C 245.511719 94.855469 246.378906 94.78125 246.917969 95.371094 Z M 245.945312 102.144531 C 246.273438 101.289062 246.394531 100.367188 246.390625 99.277344 C 246.390625 98.1875 246.261719 97.40625 245.933594 96.933594 C 245.601562 96.507812 245.101562 96.464844 244.402344 96.871094 C 243.703125 97.273438 243.167969 97.914062 242.882812 98.742188 C 242.554688 99.550781 242.390625 100.542969 242.394531 101.585938 C 242.398438 102.675781 242.5625 103.429688 242.894531 103.855469 C 243.1875 104.351562 243.722656 104.375 244.421875 103.96875 C 245.125 103.566406 245.617188 102.949219 245.945312 102.144531 "/><path style=" stroke:none;fill-rule:nonzero;fill:#4c7891;fill-opacity:1;" d="M 238.433594 103.445312 C 239.261719 103.582031 239.632812 104.175781 239.636719 105.214844 C 239.640625 106.066406 239.351562 106.898438 238.816406 107.777344 C 238.242188 108.628906 237.5 109.34375 236.554688 109.886719 C 235.648438 110.410156 234.90625 110.554688 234.324219 110.367188 C 233.746094 110.132812 233.457031 109.636719 233.453125 108.785156 C 233.449219 107.742188 233.859375 106.699219 234.640625 105.632812 C 234.0625 105.398438 233.730469 104.972656 233.730469 104.214844 C 233.726562 103.503906 234.015625 102.722656 234.550781 101.941406 C 235.085938 101.15625 235.742188 100.539062 236.523438 100.085938 C 237.347656 99.613281 238.007812 99.46875 238.546875 99.632812 C 239.042969 99.820312 239.332031 100.269531 239.335938 100.980469 C 239.335938 101.738281 239.050781 102.519531 238.433594 103.445312 Z M 237.703125 107.421875 C 238.074219 106.972656 238.277344 106.472656 238.277344 105.953125 C 238.273438 105.480469 238.066406 105.171875 237.738281 105.125 C 237.367188 105.054688 236.992188 105.128906 236.539062 105.390625 C 236.085938 105.652344 235.714844 106.007812 235.347656 106.503906 C 235.015625 106.933594 234.851562 107.453125 234.855469 107.925781 C 234.855469 108.449219 235.023438 108.734375 235.394531 108.753906 L 236.550781 108.515625 Z M 235.5 102.339844 L 235.050781 103.59375 L 235.503906 104.375 L 236.539062 104.207031 L 237.609375 103.164062 L 238.019531 101.882812 L 237.601562 101.125 L 236.53125 101.316406 Z M 235.5 102.339844 "/><path style=" stroke:none;fill-rule:nonzero;fill:#f9bb4a;fill-opacity:1;" d="M 245.203125 73.074219 C 257.980469 65.699219 268.402344 71.636719 268.441406 86.265625 C 268.484375 100.945312 258.128906 118.824219 245.355469 126.199219 C 232.617188 133.550781 222.195312 127.660156 222.15625 112.980469 C 222.148438 110.804688 223.667969 108.125 225.5625 107.03125 C 227.429688 105.953125 229.03125 106.8125 229.039062 109.011719 C 229.066406 119.332031 236.386719 123.5 245.332031 118.335938 C 254.316406 113.152344 261.589844 100.558594 261.558594 90.238281 C 261.527344 79.917969 254.210938 75.792969 245.226562 80.980469 C 243.320312 82.082031 241.800781 81.132812 241.792969 78.976562 C 241.785156 76.832031 243.285156 74.179688 245.203125 73.074219 Z M 245.203125 73.074219 "/><path style=" stroke:none;fill-rule:nonzero;fill:#efac41;fill-opacity:1;" d="M 242.074219 77.234375 C 241.890625 77.824219 241.789062 78.414062 241.792969 78.980469 C 241.792969 79.753906 241.992188 80.367188 242.328125 80.789062 C 234.675781 86.625 228.628906 97.085938 227.40625 106.59375 C 226.871094 106.511719 226.238281 106.644531 225.5625 107.03125 C 225.089844 107.304688 224.640625 107.675781 224.234375 108.113281 C 225.589844 96.722656 232.859375 84.121094 242.074219 77.234375 Z M 242.074219 77.234375 "/><path style=" stroke:none;fill-rule:nonzero;fill:#4c7891;fill-opacity:1;" d="M 250.800781 96.164062 C 250.304688 96.453125 249.851562 96.476562 249.519531 96.238281 C 249.1875 96.003906 249.023438 95.625 249.019531 95.007812 C 249.019531 94.394531 249.183594 93.777344 249.511719 93.164062 C 249.839844 92.546875 250.292969 92.09375 250.789062 91.808594 C 251.324219 91.5 251.734375 91.449219 252.066406 91.6875 C 252.398438 91.921875 252.605469 92.324219 252.609375 92.941406 C 252.609375 93.507812 252.40625 94.148438 252.074219 94.765625 C 251.746094 95.378906 251.292969 95.878906 250.800781 96.164062 Z M 250.296875 93.609375 L 250.09375 94.390625 L 250.300781 94.980469 L 250.796875 94.980469 L 251.292969 94.410156 L 251.457031 93.605469 L 251.289062 93.039062 L 250.792969 93.039062 Z M 250.296875 93.609375 "/><path style=" stroke:none;fill-rule:nonzero;fill:#416e84;fill-opacity:1;" d="M 80.976562 195.90625 L 80.980469 197.371094 L 77.476562 199.394531 L 77.484375 201.714844 C 77.8125 201.335938 78.222656 201.003906 78.636719 200.765625 C 79.417969 200.3125 80.078125 200.167969 80.660156 200.402344 C 81.238281 200.589844 81.488281 201.160156 81.492188 202.105469 C 81.492188 203.007812 81.207031 203.929688 80.632812 204.875 C 80.054688 205.828125 79.316406 206.539062 78.488281 207.015625 C 77.378906 207.65625 76.46875 207.753906 75.804688 207.28125 L 76.546875 205.671875 L 76.792969 205.8125 L 77.453125 205.808594 L 78.566406 205.402344 L 79.636719 204.40625 C 79.964844 203.929688 80.132812 203.457031 80.128906 202.9375 C 80.128906 202.417969 79.964844 202.085938 79.589844 202.015625 C 79.257812 201.921875 78.804688 202.042969 78.308594 202.328125 C 77.773438 202.636719 77.28125 203.066406 76.789062 203.632812 L 76.207031 203.257812 L 76.195312 198.664062 Z M 80.976562 195.90625 "/><g clip-rule="nonzero" clip-path="url(#d0655138e4)"><path style=" stroke:none;fill-rule:nonzero;fill:#f9607f;fill-opacity:1;" d="M 506.339844 8.03125 C 507.53125 7.339844 509.1875 7.414062 510.996094 8.457031 L 781.085938 164.351562 C 784.707031 166.429688 787.59375 171.46875 787.59375 175.628906 L 786.980469 388.519531 C 786.980469 390.597656 786.246094 392.023438 785.09375 392.710938 L 797.085938 385.730469 C 798.277344 385.039062 799.007812 383.613281 799.007812 381.574219 L 799.585938 168.644531 C 799.625 164.488281 796.699219 159.449219 793.117188 157.371094 L 523.027344 1.511719 C 521.179688 0.433594 519.5625 0.355469 518.371094 1.050781 Z M 506.339844 8.03125 "/></g><path style=" stroke:none;fill-rule:nonzero;fill:#f34858;fill-opacity:1;" d="M 511.007812 8.472656 C 507.394531 6.386719 504.457031 8.058594 504.445312 12.207031 L 503.84375 225.113281 C 503.832031 229.234375 506.746094 234.285156 510.359375 236.371094 L 780.453125 392.253906 C 784.042969 394.328125 786.976562 392.65625 786.988281 388.53125 L 787.59375 175.628906 C 787.605469 171.476562 784.6875 166.429688 781.101562 164.359375 Z M 511.007812 8.472656 "/><path style=" stroke:none;fill-rule:nonzero;fill:#ffffff;fill-opacity:1;" d="M 770.035156 176.671875 C 769.972656 176.484375 769.484375 175.644531 769.148438 175.359375 L 522.277344 32.898438 L 521.738281 223.878906 C 521.800781 224.042969 522.292969 224.886719 522.628906 225.164062 L 769.492188 367.628906 Z M 770.035156 176.671875 "/><path style=" stroke:none;fill-rule:nonzero;fill:#748bfd;fill-opacity:1;" d="M 585.597656 104.019531 C 585.578125 110.695312 581.378906 113.835938 575.886719 111.882812 L 575.625 203.816406 L 575.621094 204.519531 L 571.113281 201.917969 L 571.121094 198.527344 L 571.375 109.277344 C 565.847656 104.875 561.71875 96.925781 561.738281 90.25 C 561.757812 82.683594 567.140625 79.617188 573.6875 83.394531 C 580.273438 87.195312 585.621094 96.457031 585.597656 104.019531 Z M 573.625 105.667969 C 577.730469 108.039062 581.074219 106.132812 581.085938 101.417969 C 581.101562 96.703125 577.777344 90.949219 573.671875 88.578125 C 569.609375 86.230469 566.265625 88.136719 566.25 92.855469 C 566.238281 97.566406 569.558594 103.320312 573.625 105.667969 "/><path style=" stroke:none;fill-rule:nonzero;fill:#e4e8f4;fill-opacity:1;" d="M 642.101562 136.632812 C 642.082031 143.308594 637.921875 146.472656 632.386719 144.496094 L 632.117188 239.625 L 632.074219 255.296875 L 627.5625 252.691406 L 627.617188 232.628906 L 627.878906 141.890625 C 622.390625 137.507812 618.222656 129.535156 618.238281 122.855469 C 618.261719 115.292969 623.644531 112.226562 630.230469 116.027344 C 636.773438 119.804688 642.121094 129.066406 642.101562 136.632812 Z M 630.167969 138.300781 C 634.230469 140.648438 637.574219 138.742188 637.589844 134.027344 C 637.601562 129.3125 634.28125 123.558594 630.214844 121.210938 C 626.109375 118.84375 622.804688 120.773438 622.792969 125.484375 C 622.78125 130.203125 626.0625 135.929688 630.167969 138.300781 "/><path style=" stroke:none;fill-rule:nonzero;fill:#f9607f;fill-opacity:1;" d="M 698.644531 169.265625 C 698.625 175.941406 694.421875 179.082031 688.929688 177.128906 L 688.628906 284.351562 L 688.617188 287.929688 L 684.105469 285.324219 L 684.148438 269.941406 L 684.421875 174.523438 C 678.9375 170.140625 674.765625 162.167969 674.78125 155.492188 C 674.804688 147.925781 680.148438 144.835938 686.730469 148.636719 C 693.316406 152.441406 698.664062 161.699219 698.644531 169.265625 Z M 686.667969 170.910156 C 690.777344 173.28125 694.078125 171.351562 694.089844 166.636719 C 694.105469 161.921875 690.824219 156.1875 686.71875 153.820312 C 682.652344 151.476562 679.308594 153.382812 679.296875 158.097656 C 679.28125 162.8125 682.605469 168.566406 686.667969 170.910156 "/><path style=" stroke:none;fill-rule:nonzero;fill:#9ad898;fill-opacity:1;" d="M 755.148438 201.875 C 755.128906 208.554688 750.925781 211.691406 745.433594 209.738281 L 745.132812 316.15625 L 745.105469 325.675781 L 740.59375 323.074219 L 740.609375 318.253906 L 740.921875 207.132812 C 735.4375 202.753906 731.269531 194.777344 731.285156 188.101562 C 731.308594 180.539062 736.6875 177.46875 743.273438 181.269531 C 749.820312 185.050781 755.167969 194.308594 755.148438 201.875 Z M 743.214844 203.546875 C 747.277344 205.894531 750.621094 203.984375 750.636719 199.273438 C 750.648438 194.554688 747.328125 188.800781 743.261719 186.457031 C 739.15625 184.085938 735.8125 185.992188 735.796875 190.707031 C 735.785156 195.421875 739.105469 201.175781 743.214844 203.546875 "/><path style=" stroke:none;fill-rule:nonzero;fill:#9ad898;fill-opacity:1;" d="M 761.933594 350.472656 L 527.671875 215.296875 C 529.695312 209.621094 531.796875 184.1875 533.820312 178.511719 C 535.21875 174.621094 536.699219 170.5 539.578125 168.242188 C 544.089844 164.742188 551.324219 166.6875 558.40625 170.8125 C 560.425781 171.976562 562.449219 173.300781 564.316406 174.699219 C 578.554688 185.199219 591.859375 201.453125 601.195312 219.34375 C 603.683594 224.398438 606.484375 230.074219 610.453125 232.796875 C 610.6875 232.953125 610.84375 233.03125 610.996094 233.1875 C 614.652344 235.285156 617.84375 233.808594 620.644531 232.332031 C 624.925781 229.839844 629.28125 227.507812 633.484375 224.863281 C 635.503906 223.695312 637.605469 222.609375 640.328125 223.074219 C 641.574219 223.230469 642.820312 223.699219 643.984375 224.398438 C 649.742188 227.742188 655.265625 236.140625 658.457031 243.921875 C 662.347656 253.410156 664.292969 263.050781 669.347656 272.074219 C 670.28125 274.019531 671.527344 275.804688 672.925781 276.664062 C 673.160156 276.742188 673.316406 276.894531 673.550781 276.972656 C 675.339844 277.828125 676.507812 276.582031 677.441406 275.261719 C 680.398438 271.296875 683.277344 267.25 686.230469 263.285156 C 687.628906 261.417969 689.265625 259.394531 691.519531 259.164062 C 693 259.085938 694.558594 259.628906 696.113281 260.484375 C 698.523438 261.882812 700.9375 264.296875 702.957031 267.015625 C 706.382812 271.527344 708.636719 276.894531 710.972656 281.949219 C 714.476562 289.804688 717.820312 297.582031 721.476562 305.515625 C 722.953125 308.78125 724.820312 312.75 727.777344 314.769531 C 731.046875 316.636719 733.378906 313.679688 734.3125 310.492188 C 735.015625 307.148438 735.167969 302.871094 737.503906 301.160156 C 739.058594 300.070312 741.238281 300.457031 743.570312 301.78125 C 745.828125 303.105469 748.160156 305.359375 749.949219 307.925781 C 753.683594 313.136719 755.707031 319.28125 757.265625 325.117188 C 758.585938 331.027344 759.597656 344.640625 761.933594 350.472656 Z M 761.933594 350.472656 "/><path style=" stroke:none;fill-rule:nonzero;fill:#e4e8f4;fill-opacity:1;" d="M 695.554688 424.902344 L 688.421875 420.761719 L 656.832031 438.996094 L 663.960938 443.136719 Z M 695.554688 424.902344 "/><path style=" stroke:none;fill-rule:nonzero;fill:#666970;fill-opacity:1;" d="M 663.960938 443.136719 L 656.832031 438.996094 L 616.453125 415.992188 L 623.585938 420.136719 Z M 663.960938 443.136719 "/><path style=" stroke:none;fill-rule:nonzero;fill:#9ca0ab;fill-opacity:1;" d="M 606.335938 430.089844 L 599.207031 425.949219 L 599.21875 430.105469 L 606.347656 434.246094 Z M 606.335938 430.089844 "/><path style=" stroke:none;fill-rule:nonzero;fill:#e4e8f4;fill-opacity:1;" d="M 623.585938 420.136719 L 616.453125 415.992188 L 599.203125 425.949219 L 606.335938 430.089844 Z M 623.585938 420.136719 "/><path style=" stroke:none;fill-rule:nonzero;fill:#cad0dd;fill-opacity:1;" d="M 606.335938 430.089844 L 606.347656 434.246094 L 622.109375 425.148438 L 662.488281 448.152344 L 695.5625 429.0625 L 695.554688 424.90625 L 663.960938 443.136719 L 623.585938 420.136719 Z M 606.335938 430.089844 "/><path style=" stroke:none;fill-rule:nonzero;fill:#e4e8f4;fill-opacity:1;" d="M 665.527344 407.480469 L 658.398438 403.339844 L 626.804688 421.570312 L 633.9375 425.714844 Z M 665.527344 407.480469 "/><path style=" stroke:none;fill-rule:nonzero;fill:#666970;fill-opacity:1;" d="M 633.9375 425.714844 L 626.804688 421.570312 L 586.429688 398.570312 L 593.558594 402.710938 Z M 633.9375 425.714844 "/><path style=" stroke:none;fill-rule:nonzero;fill:#9ca0ab;fill-opacity:1;" d="M 576.308594 412.667969 L 569.179688 408.523438 L 569.191406 412.679688 L 576.320312 416.824219 Z M 576.308594 412.667969 "/><path style=" stroke:none;fill-rule:nonzero;fill:#e4e8f4;fill-opacity:1;" d="M 593.558594 402.710938 L 586.429688 398.570312 L 569.179688 408.523438 L 576.308594 412.667969 Z M 593.558594 402.710938 "/><path style=" stroke:none;fill-rule:nonzero;fill:#cad0dd;fill-opacity:1;" d="M 576.308594 412.667969 L 576.320312 416.824219 L 592.085938 407.726562 L 632.460938 430.726562 L 665.539062 411.636719 L 665.523438 407.480469 L 633.9375 425.714844 L 593.558594 402.710938 Z M 576.308594 412.667969 "/><path style=" stroke:none;fill-rule:nonzero;fill:#e4e8f4;fill-opacity:1;" d="M 635.5 390.058594 L 628.371094 385.914062 L 596.78125 404.148438 L 603.914062 408.289062 Z M 635.5 390.058594 "/><path style=" stroke:none;fill-rule:nonzero;fill:#666970;fill-opacity:1;" d="M 603.914062 408.289062 L 596.78125 404.148438 L 556.402344 381.144531 L 563.535156 385.289062 Z M 603.914062 408.289062 "/><path style=" stroke:none;fill-rule:nonzero;fill:#9ca0ab;fill-opacity:1;" d="M 546.285156 395.246094 L 539.152344 391.101562 L 539.167969 395.257812 L 546.296875 399.398438 Z M 546.285156 395.246094 "/><path style=" stroke:none;fill-rule:nonzero;fill:#e4e8f4;fill-opacity:1;" d="M 563.535156 385.289062 L 556.402344 381.144531 L 539.152344 391.101562 L 546.285156 395.246094 Z M 563.535156 385.289062 "/><path style=" stroke:none;fill-rule:nonzero;fill:#cad0dd;fill-opacity:1;" d="M 546.285156 395.246094 L 546.296875 399.398438 L 562.0625 390.300781 L 602.4375 413.304688 L 635.515625 394.214844 L 635.5 390.058594 L 603.910156 408.289062 L 563.535156 385.289062 Z M 546.285156 395.246094 "/><path style=" stroke:none;fill-rule:nonzero;fill:#e4e8f4;fill-opacity:1;" d="M 605.476562 372.636719 L 598.347656 368.492188 L 566.757812 386.722656 L 573.886719 390.867188 Z M 605.476562 372.636719 "/><path style=" stroke:none;fill-rule:nonzero;fill:#666970;fill-opacity:1;" d="M 573.886719 390.867188 L 566.757812 386.722656 L 526.378906 363.722656 L 533.507812 367.863281 Z M 573.886719 390.867188 "/><path style=" stroke:none;fill-rule:nonzero;fill:#9ca0ab;fill-opacity:1;" d="M 516.257812 377.820312 L 509.128906 373.679688 L 509.140625 377.832031 L 516.269531 381.976562 Z M 516.257812 377.820312 "/><path style=" stroke:none;fill-rule:nonzero;fill:#e4e8f4;fill-opacity:1;" d="M 533.507812 367.863281 L 526.378906 363.722656 L 509.128906 373.679688 L 516.257812 377.820312 Z M 533.507812 367.863281 "/><path style=" stroke:none;fill-rule:nonzero;fill:#cad0dd;fill-opacity:1;" d="M 516.257812 377.820312 L 516.269531 381.976562 L 532.035156 372.878906 L 572.410156 395.878906 L 605.488281 376.789062 L 605.476562 372.636719 L 573.882812 390.867188 L 533.507812 367.863281 Z M 516.257812 377.820312 "/><path style=" stroke:none;fill-rule:nonzero;fill:#e4e8f4;fill-opacity:1;" d="M 575.449219 355.210938 L 568.320312 351.066406 L 536.730469 369.300781 L 543.859375 373.445312 Z M 575.449219 355.210938 "/><path style=" stroke:none;fill-rule:nonzero;fill:#666970;fill-opacity:1;" d="M 543.859375 373.445312 L 536.730469 369.300781 L 496.351562 346.296875 L 503.484375 350.441406 Z M 543.859375 373.445312 "/><path style=" stroke:none;fill-rule:nonzero;fill:#9ca0ab;fill-opacity:1;" d="M 486.234375 360.398438 L 479.105469 356.253906 L 479.117188 360.410156 L 486.246094 364.554688 Z M 486.234375 360.398438 "/><path style=" stroke:none;fill-rule:nonzero;fill:#e4e8f4;fill-opacity:1;" d="M 503.484375 350.441406 L 496.351562 346.296875 L 479.105469 356.253906 L 486.234375 360.398438 Z M 503.484375 350.441406 "/><path style=" stroke:none;fill-rule:nonzero;fill:#cad0dd;fill-opacity:1;" d="M 486.234375 360.398438 L 486.246094 364.554688 L 502.007812 355.457031 L 542.386719 378.457031 L 575.464844 359.367188 L 575.449219 355.210938 L 543.859375 373.445312 L 503.484375 350.441406 Z M 486.234375 360.398438 "/><path style=" stroke:none;fill-rule:nonzero;fill:#e4e8f4;fill-opacity:1;" d="M 545.425781 337.789062 L 538.296875 333.644531 L 506.707031 351.875 L 513.835938 356.019531 Z M 545.425781 337.789062 "/><path style=" stroke:none;fill-rule:nonzero;fill:#666970;fill-opacity:1;" d="M 513.835938 356.019531 L 506.707031 351.875 L 466.328125 328.875 L 473.460938 333.019531 Z M 513.835938 356.019531 "/><path style=" stroke:none;fill-rule:nonzero;fill:#9ca0ab;fill-opacity:1;" d="M 456.210938 342.972656 L 449.078125 338.832031 L 449.09375 342.988281 L 456.222656 347.128906 Z M 456.210938 342.972656 "/><path style=" stroke:none;fill-rule:nonzero;fill:#e4e8f4;fill-opacity:1;" d="M 473.457031 333.019531 L 466.328125 328.875 L 449.078125 338.832031 L 456.210938 342.972656 Z M 473.457031 333.019531 "/><path style=" stroke:none;fill-rule:nonzero;fill:#cad0dd;fill-opacity:1;" d="M 456.210938 342.972656 L 456.222656 347.128906 L 471.984375 338.03125 L 512.363281 361.035156 L 545.4375 341.941406 L 545.425781 337.789062 L 513.835938 356.019531 L 473.460938 333.019531 Z M 456.210938 342.972656 "/><path style=" stroke:none;fill-rule:nonzero;fill:#e4e8f4;fill-opacity:1;" d="M 515.402344 320.363281 L 508.269531 316.222656 L 476.679688 334.453125 L 483.808594 338.597656 Z M 515.402344 320.363281 "/><path style=" stroke:none;fill-rule:nonzero;fill:#666970;fill-opacity:1;" d="M 483.808594 338.597656 L 476.679688 334.453125 L 436.300781 311.453125 L 443.433594 315.59375 Z M 483.808594 338.597656 "/><path style=" stroke:none;fill-rule:nonzero;fill:#9ca0ab;fill-opacity:1;" d="M 426.183594 325.546875 L 419.054688 321.40625 L 419.066406 325.5625 L 426.195312 329.707031 Z M 426.183594 325.546875 "/><path style=" stroke:none;fill-rule:nonzero;fill:#e4e8f4;fill-opacity:1;" d="M 443.433594 315.59375 L 436.300781 311.453125 L 419.054688 321.40625 L 426.183594 325.550781 Z M 443.433594 315.59375 "/><path style=" stroke:none;fill-rule:nonzero;fill:#cad0dd;fill-opacity:1;" d="M 426.183594 325.546875 L 426.195312 329.707031 L 441.957031 320.609375 L 482.335938 343.609375 L 515.410156 324.519531 L 515.402344 320.363281 L 483.808594 338.597656 L 443.433594 315.59375 Z M 426.183594 325.546875 "/><path style=" stroke:none;fill-rule:nonzero;fill:#416e84;fill-opacity:1;" d="M 624.324219 404.640625 L 623.992188 445.511719 C 623.992188 447.503906 622.824219 449.332031 620.332031 450.832031 L 412.441406 571.53125 C 407.453125 574.359375 399.136719 574.359375 394.148438 571.53125 L 184.925781 450.832031 C 182.265625 449.332031 181.101562 447.339844 181.101562 445.34375 L 181.433594 404.472656 C 181.433594 406.46875 182.597656 408.460938 185.257812 409.792969 L 620.664062 409.792969 C 623.160156 408.464844 624.324219 406.46875 624.324219 404.640625 Z M 624.324219 404.640625 "/><path style=" stroke:none;fill-rule:nonzero;fill:#e4e8f4;fill-opacity:1;" d="M 419.328125 545.207031 L 426.460938 541.066406 L 443.707031 551.023438 L 436.578125 555.164062 Z M 419.328125 545.207031 "/><path style=" stroke:none;fill-rule:nonzero;fill:#d4dae8;fill-opacity:1;" d="M 436.574219 555.164062 L 443.707031 551.023438 L 483.753906 620.445312 L 476.625 624.585938 Z M 436.574219 555.164062 "/><path style=" stroke:none;fill-rule:nonzero;fill:#9ca0ab;fill-opacity:1;" d="M 508.28125 642.855469 L 515.410156 638.710938 L 515.402344 642.867188 L 508.269531 647.011719 Z M 508.28125 642.855469 "/><path style=" stroke:none;fill-rule:nonzero;fill:#e4e8f4;fill-opacity:1;" d="M 476.628906 624.585938 L 483.757812 620.445312 L 515.410156 638.710938 L 508.28125 642.855469 Z M 476.628906 624.585938 "/><path style=" stroke:none;fill-rule:nonzero;fill:#cad0dd;fill-opacity:1;" d="M 436.574219 555.164062 L 476.625 624.585938 L 508.28125 642.855469 L 508.265625 647.011719 L 475.125 627.882812 L 435.078125 558.460938 L 419.316406 549.363281 L 419.324219 545.207031 Z M 436.574219 555.164062 "/><path style=" stroke:none;fill-rule:nonzero;fill:#e4e8f4;fill-opacity:1;" d="M 128.894531 424.902344 L 136.027344 420.761719 L 167.617188 438.996094 L 160.484375 443.136719 Z M 128.894531 424.902344 "/><path style=" stroke:none;fill-rule:nonzero;fill:#666970;fill-opacity:1;" d="M 160.484375 443.136719 L 167.617188 438.996094 L 207.992188 415.992188 L 200.863281 420.136719 Z M 160.484375 443.136719 "/><path style=" stroke:none;fill-rule:nonzero;fill:#9ca0ab;fill-opacity:1;" d="M 218.113281 430.089844 L 225.242188 425.949219 L 225.230469 430.105469 L 218.101562 434.246094 Z M 218.113281 430.089844 "/><path style=" stroke:none;fill-rule:nonzero;fill:#e4e8f4;fill-opacity:1;" d="M 200.863281 420.136719 L 207.996094 415.992188 L 225.246094 425.949219 L 218.113281 430.089844 Z M 200.863281 420.136719 "/><path style=" stroke:none;fill-rule:nonzero;fill:#cad0dd;fill-opacity:1;" d="M 218.113281 430.089844 L 218.101562 434.246094 L 202.335938 425.148438 L 161.960938 448.152344 L 128.882812 429.0625 L 128.894531 424.90625 L 160.484375 443.136719 L 200.863281 420.136719 Z M 218.113281 430.089844 "/><path style=" stroke:none;fill-rule:nonzero;fill:#e4e8f4;fill-opacity:1;" d="M 449.351562 527.785156 L 456.484375 523.644531 L 473.730469 533.597656 L 466.601562 537.742188 Z M 449.351562 527.785156 "/><path style=" stroke:none;fill-rule:nonzero;fill:#d4dae8;fill-opacity:1;" d="M 466.601562 537.738281 L 473.730469 533.597656 L 513.78125 603.019531 L 506.652344 607.160156 Z M 466.601562 537.738281 "/><path style=" stroke:none;fill-rule:nonzero;fill:#9ca0ab;fill-opacity:1;" d="M 538.304688 625.433594 L 545.4375 621.289062 L 545.425781 625.445312 L 538.292969 629.585938 Z M 538.304688 625.433594 "/><path style=" stroke:none;fill-rule:nonzero;fill:#e4e8f4;fill-opacity:1;" d="M 506.652344 607.164062 L 513.78125 603.019531 L 545.4375 621.289062 L 538.304688 625.433594 Z M 506.652344 607.164062 "/><path style=" stroke:none;fill-rule:nonzero;fill:#cad0dd;fill-opacity:1;" d="M 466.601562 537.738281 L 506.652344 607.160156 L 538.304688 625.429688 L 538.292969 629.585938 L 505.152344 610.460938 L 465.101562 541.039062 L 449.339844 531.9375 L 449.351562 527.785156 Z M 466.601562 537.738281 "/><path style=" stroke:none;fill-rule:nonzero;fill:#e4e8f4;fill-opacity:1;" d="M 158.921875 407.480469 L 166.050781 403.339844 L 197.640625 421.570312 L 190.511719 425.714844 Z M 158.921875 407.480469 "/><path style=" stroke:none;fill-rule:nonzero;fill:#666970;fill-opacity:1;" d="M 190.511719 425.714844 L 197.644531 421.570312 L 238.019531 398.570312 L 230.890625 402.710938 Z M 190.511719 425.714844 "/><path style=" stroke:none;fill-rule:nonzero;fill:#9ca0ab;fill-opacity:1;" d="M 248.136719 412.667969 L 255.269531 408.523438 L 255.257812 412.679688 L 248.125 416.824219 Z M 248.136719 412.667969 "/><path style=" stroke:none;fill-rule:nonzero;fill:#e4e8f4;fill-opacity:1;" d="M 230.890625 402.710938 L 238.019531 398.570312 L 255.269531 408.523438 L 248.136719 412.667969 Z M 230.890625 402.710938 "/><path style=" stroke:none;fill-rule:nonzero;fill:#cad0dd;fill-opacity:1;" d="M 248.136719 412.667969 L 248.125 416.824219 L 232.363281 407.726562 L 191.984375 430.726562 L 158.910156 411.636719 L 158.921875 407.480469 L 190.511719 425.714844 L 230.890625 402.710938 Z M 248.136719 412.667969 "/><path style=" stroke:none;fill-rule:nonzero;fill:#e4e8f4;fill-opacity:1;" d="M 479.378906 510.363281 L 486.507812 506.21875 L 503.757812 516.175781 L 496.628906 520.316406 Z M 479.378906 510.363281 "/><path style=" stroke:none;fill-rule:nonzero;fill:#d4dae8;fill-opacity:1;" d="M 496.625 520.316406 L 503.757812 516.171875 L 543.808594 585.597656 L 536.675781 589.738281 Z M 496.625 520.316406 "/><path style=" stroke:none;fill-rule:nonzero;fill:#9ca0ab;fill-opacity:1;" d="M 568.332031 608.007812 L 575.464844 603.867188 L 575.449219 608.023438 L 568.320312 612.164062 Z M 568.332031 608.007812 "/><path style=" stroke:none;fill-rule:nonzero;fill:#e4e8f4;fill-opacity:1;" d="M 536.675781 589.738281 L 543.808594 585.597656 L 575.464844 603.867188 L 568.332031 608.007812 Z M 536.675781 589.738281 "/><path style=" stroke:none;fill-rule:nonzero;fill:#cad0dd;fill-opacity:1;" d="M 496.625 520.316406 L 536.675781 589.738281 L 568.332031 608.007812 L 568.320312 612.164062 L 535.175781 593.035156 L 495.128906 523.613281 L 479.363281 514.515625 L 479.375 510.359375 Z M 496.625 520.316406 "/><path style=" stroke:none;fill-rule:nonzero;fill:#e4e8f4;fill-opacity:1;" d="M 188.945312 390.058594 L 196.078125 385.914062 L 227.667969 404.148438 L 220.535156 408.289062 Z M 188.945312 390.058594 "/><path style=" stroke:none;fill-rule:nonzero;fill:#666970;fill-opacity:1;" d="M 220.535156 408.289062 L 227.667969 404.148438 L 268.042969 381.144531 L 260.914062 385.289062 Z M 220.535156 408.289062 "/><path style=" stroke:none;fill-rule:nonzero;fill:#9ca0ab;fill-opacity:1;" d="M 278.160156 395.246094 L 285.292969 391.101562 L 285.28125 395.257812 L 278.152344 399.398438 Z M 278.160156 395.246094 "/><path style=" stroke:none;fill-rule:nonzero;fill:#e4e8f4;fill-opacity:1;" d="M 260.914062 385.289062 L 268.042969 381.144531 L 285.292969 391.101562 L 278.160156 395.246094 Z M 260.914062 385.289062 "/><path style=" stroke:none;fill-rule:nonzero;fill:#cad0dd;fill-opacity:1;" d="M 278.160156 395.246094 L 278.152344 399.398438 L 262.386719 390.300781 L 222.011719 413.304688 L 188.933594 394.214844 L 188.945312 390.058594 L 220.535156 408.289062 L 260.914062 385.289062 Z M 278.160156 395.246094 "/><path style=" stroke:none;fill-rule:nonzero;fill:#e4e8f4;fill-opacity:1;" d="M 509.402344 492.9375 L 516.535156 488.796875 L 533.78125 498.75 L 526.652344 502.894531 Z M 509.402344 492.9375 "/><path style=" stroke:none;fill-rule:nonzero;fill:#d4dae8;fill-opacity:1;" d="M 526.652344 502.894531 L 533.78125 498.75 L 573.832031 568.171875 L 566.703125 572.3125 Z M 526.652344 502.894531 "/><path style=" stroke:none;fill-rule:nonzero;fill:#9ca0ab;fill-opacity:1;" d="M 598.355469 590.585938 L 605.488281 586.441406 L 605.476562 590.597656 L 598.34375 594.742188 Z M 598.355469 590.585938 "/><path style=" stroke:none;fill-rule:nonzero;fill:#e4e8f4;fill-opacity:1;" d="M 566.703125 572.316406 L 573.832031 568.171875 L 605.488281 586.441406 L 598.355469 590.585938 Z M 566.703125 572.316406 "/><path style=" stroke:none;fill-rule:nonzero;fill:#cad0dd;fill-opacity:1;" d="M 526.652344 502.894531 L 566.703125 572.3125 L 598.355469 590.585938 L 598.34375 594.742188 L 565.203125 575.613281 L 525.152344 506.191406 L 509.390625 497.09375 L 509.402344 492.9375 Z M 526.652344 502.894531 "/><path style=" stroke:none;fill-rule:nonzero;fill:#e4e8f4;fill-opacity:1;" d="M 218.972656 372.636719 L 226.101562 368.492188 L 257.691406 386.722656 L 250.5625 390.867188 Z M 218.972656 372.636719 "/><path style=" stroke:none;fill-rule:nonzero;fill:#666970;fill-opacity:1;" d="M 250.5625 390.867188 L 257.691406 386.722656 L 298.070312 363.722656 L 290.9375 367.863281 Z M 250.5625 390.867188 "/><path style=" stroke:none;fill-rule:nonzero;fill:#9ca0ab;fill-opacity:1;" d="M 308.1875 377.820312 L 315.320312 373.679688 L 315.308594 377.832031 L 308.175781 381.976562 Z M 308.1875 377.820312 "/><path style=" stroke:none;fill-rule:nonzero;fill:#e4e8f4;fill-opacity:1;" d="M 290.941406 367.863281 L 298.070312 363.722656 L 315.320312 373.679688 L 308.1875 377.820312 Z M 290.941406 367.863281 "/><path style=" stroke:none;fill-rule:nonzero;fill:#cad0dd;fill-opacity:1;" d="M 308.1875 377.820312 L 308.175781 381.976562 L 292.414062 372.878906 L 252.035156 395.878906 L 218.960938 376.789062 L 218.972656 372.636719 L 250.5625 390.867188 L 290.9375 367.863281 Z M 308.1875 377.820312 "/><path style=" stroke:none;fill-rule:nonzero;fill:#e4e8f4;fill-opacity:1;" d="M 539.429688 475.515625 L 546.558594 471.371094 L 563.808594 481.328125 L 556.679688 485.46875 Z M 539.429688 475.515625 "/><path style=" stroke:none;fill-rule:nonzero;fill:#d4dae8;fill-opacity:1;" d="M 556.675781 485.46875 L 563.804688 481.328125 L 603.859375 550.75 L 596.726562 554.890625 Z M 556.675781 485.46875 "/><path style=" stroke:none;fill-rule:nonzero;fill:#9ca0ab;fill-opacity:1;" d="M 628.382812 573.160156 L 635.515625 569.019531 L 635.5 573.175781 L 628.371094 577.320312 Z M 628.382812 573.160156 "/><path style=" stroke:none;fill-rule:nonzero;fill:#e4e8f4;fill-opacity:1;" d="M 596.726562 554.894531 L 603.859375 550.75 L 635.515625 569.019531 L 628.382812 573.160156 Z M 596.726562 554.894531 "/><path style=" stroke:none;fill-rule:nonzero;fill:#cad0dd;fill-opacity:1;" d="M 556.675781 485.46875 L 596.726562 554.890625 L 628.378906 573.160156 L 628.371094 577.316406 L 595.230469 558.1875 L 555.175781 488.765625 L 539.414062 479.667969 L 539.425781 475.511719 Z M 556.675781 485.46875 "/><path style=" stroke:none;fill-rule:nonzero;fill:#e4e8f4;fill-opacity:1;" d="M 248.996094 355.210938 L 256.128906 351.066406 L 287.71875 369.300781 L 280.585938 373.445312 Z M 248.996094 355.210938 "/><path style=" stroke:none;fill-rule:nonzero;fill:#666970;fill-opacity:1;" d="M 280.585938 373.445312 L 287.71875 369.300781 L 328.09375 346.296875 L 320.964844 350.441406 Z M 280.585938 373.445312 "/><path style=" stroke:none;fill-rule:nonzero;fill:#9ca0ab;fill-opacity:1;" d="M 338.214844 360.398438 L 345.34375 356.253906 L 345.332031 360.410156 L 338.199219 364.554688 Z M 338.214844 360.398438 "/><path style=" stroke:none;fill-rule:nonzero;fill:#e4e8f4;fill-opacity:1;" d="M 320.964844 350.441406 L 328.09375 346.296875 L 345.34375 356.253906 L 338.214844 360.398438 Z M 320.964844 350.441406 "/><path style=" stroke:none;fill-rule:nonzero;fill:#cad0dd;fill-opacity:1;" d="M 338.214844 360.398438 L 338.199219 364.554688 L 322.4375 355.457031 L 282.0625 378.457031 L 248.984375 359.367188 L 248.996094 355.210938 L 280.585938 373.445312 L 320.964844 350.441406 Z M 338.214844 360.398438 "/><path style=" stroke:none;fill-rule:nonzero;fill:#e4e8f4;fill-opacity:1;" d="M 569.453125 458.089844 L 576.585938 453.949219 L 593.832031 463.902344 L 586.703125 468.046875 Z M 569.453125 458.089844 "/><path style=" stroke:none;fill-rule:nonzero;fill:#d4dae8;fill-opacity:1;" d="M 586.703125 468.046875 L 593.832031 463.902344 L 633.882812 533.324219 L 626.75 537.46875 Z M 586.703125 468.046875 "/><path style=" stroke:none;fill-rule:nonzero;fill:#9ca0ab;fill-opacity:1;" d="M 658.40625 555.738281 L 665.539062 551.597656 L 665.523438 555.753906 L 658.394531 559.894531 Z M 658.40625 555.738281 "/><path style=" stroke:none;fill-rule:nonzero;fill:#e4e8f4;fill-opacity:1;" d="M 626.75 537.46875 L 633.882812 533.328125 L 665.539062 551.597656 L 658.40625 555.738281 Z M 626.75 537.46875 "/><path style=" stroke:none;fill-rule:nonzero;fill:#cad0dd;fill-opacity:1;" d="M 586.703125 468.046875 L 626.75 537.46875 L 658.40625 555.738281 L 658.394531 559.894531 L 625.253906 540.765625 L 585.203125 471.34375 L 569.441406 462.246094 L 569.453125 458.089844 Z M 586.703125 468.046875 "/><path style=" stroke:none;fill-rule:nonzero;fill:#e4e8f4;fill-opacity:1;" d="M 279.019531 337.789062 L 286.152344 333.644531 L 317.742188 351.875 L 310.613281 356.019531 Z M 279.019531 337.789062 "/><path style=" stroke:none;fill-rule:nonzero;fill:#666970;fill-opacity:1;" d="M 310.613281 356.019531 L 317.742188 351.875 L 358.121094 328.875 L 350.988281 333.019531 Z M 310.613281 356.019531 "/><path style=" stroke:none;fill-rule:nonzero;fill:#9ca0ab;fill-opacity:1;" d="M 368.238281 342.972656 L 375.371094 338.832031 L 375.359375 342.988281 L 368.226562 347.128906 Z M 368.238281 342.972656 "/><path style=" stroke:none;fill-rule:nonzero;fill:#e4e8f4;fill-opacity:1;" d="M 350.988281 333.019531 L 358.121094 328.875 L 375.371094 338.832031 L 368.238281 342.972656 Z M 350.988281 333.019531 "/><path style=" stroke:none;fill-rule:nonzero;fill:#cad0dd;fill-opacity:1;" d="M 368.238281 342.972656 L 368.226562 347.128906 L 352.464844 338.03125 L 312.089844 361.035156 L 279.011719 341.941406 L 279.023438 337.789062 L 310.613281 356.019531 L 350.988281 333.019531 Z M 368.238281 342.972656 "/><path style=" stroke:none;fill-rule:nonzero;fill:#e4e8f4;fill-opacity:1;" d="M 599.480469 440.667969 L 606.609375 436.523438 L 623.859375 446.480469 L 616.726562 450.625 Z M 599.480469 440.667969 "/><path style=" stroke:none;fill-rule:nonzero;fill:#d4dae8;fill-opacity:1;" d="M 616.726562 450.625 L 623.859375 446.480469 L 663.90625 515.902344 L 656.777344 520.046875 Z M 616.726562 450.625 "/><path style=" stroke:none;fill-rule:nonzero;fill:#9ca0ab;fill-opacity:1;" d="M 688.433594 538.316406 L 695.5625 534.171875 L 695.554688 538.328125 L 688.421875 542.472656 Z M 688.433594 538.316406 "/><path style=" stroke:none;fill-rule:nonzero;fill:#e4e8f4;fill-opacity:1;" d="M 656.777344 520.046875 L 663.910156 515.90625 L 695.5625 534.171875 L 688.433594 538.316406 Z M 656.777344 520.046875 "/><path style=" stroke:none;fill-rule:nonzero;fill:#cad0dd;fill-opacity:1;" d="M 616.726562 450.625 L 656.777344 520.046875 L 688.433594 538.316406 L 688.417969 542.46875 L 655.277344 523.34375 L 615.226562 453.921875 L 599.464844 444.824219 L 599.476562 440.664062 Z M 616.726562 450.625 "/><path style=" stroke:none;fill-rule:nonzero;fill:#e4e8f4;fill-opacity:1;" d="M 309.046875 320.363281 L 316.179688 316.222656 L 347.769531 334.453125 L 340.636719 338.597656 Z M 309.046875 320.363281 "/><path style=" stroke:none;fill-rule:nonzero;fill:#666970;fill-opacity:1;" d="M 340.636719 338.597656 L 347.769531 334.453125 L 388.144531 311.453125 L 381.015625 315.59375 Z M 340.636719 338.597656 "/><path style=" stroke:none;fill-rule:nonzero;fill:#9ca0ab;fill-opacity:1;" d="M 398.265625 325.546875 L 405.394531 321.40625 L 405.382812 325.5625 L 398.25 329.707031 Z M 398.265625 325.546875 "/><path style=" stroke:none;fill-rule:nonzero;fill:#e4e8f4;fill-opacity:1;" d="M 381.015625 315.59375 L 388.144531 311.453125 L 405.394531 321.40625 L 398.265625 325.550781 Z M 381.015625 315.59375 "/><path style=" stroke:none;fill-rule:nonzero;fill:#cad0dd;fill-opacity:1;" d="M 398.265625 325.546875 L 398.25 329.707031 L 382.488281 320.609375 L 342.113281 343.609375 L 309.035156 324.519531 L 309.046875 320.363281 L 340.636719 338.597656 L 381.015625 315.59375 Z M 398.265625 325.546875 "/><path style=" stroke:none;fill-rule:nonzero;fill:#4c7891;fill-opacity:1;" d="M 620.5 410.039062 L 412.730469 530.679688 C 407.597656 533.488281 399.414062 533.488281 394.40625 530.679688 L 185.167969 410.039062 C 180.160156 406.988281 180.160156 402.222656 185.167969 399.296875 L 393.0625 278.53125 C 398.070312 275.601562 406.132812 275.601562 411.261719 278.777344 L 620.378906 399.296875 C 625.632812 402.347656 625.632812 406.988281 620.5 410.039062 Z M 620.5 410.039062 "/><path style=" stroke:none;fill-rule:nonzero;fill:#416e84;fill-opacity:1;" d="M 321.023438 488.289062 L 185.257812 409.792969 C 182.597656 408.464844 181.433594 406.46875 181.433594 404.476562 L 181.101562 445.34375 C 181.101562 447.339844 182.265625 449.332031 184.925781 450.832031 L 321.023438 529.347656 Z M 321.023438 488.289062 "/><path style=" stroke:none;fill-rule:nonzero;fill:#e4e8f4;fill-opacity:1;" d="M 405.121094 545.207031 L 397.988281 541.066406 L 380.738281 551.023438 L 387.871094 555.164062 Z M 405.121094 545.207031 "/><path style=" stroke:none;fill-rule:nonzero;fill:#d4dae8;fill-opacity:1;" d="M 387.875 555.164062 L 380.742188 551.023438 L 340.691406 620.445312 L 347.820312 624.585938 Z M 387.875 555.164062 "/><path style=" stroke:none;fill-rule:nonzero;fill:#9ca0ab;fill-opacity:1;" d="M 316.164062 642.855469 L 309.035156 638.710938 L 309.046875 642.867188 L 316.179688 647.011719 Z M 316.164062 642.855469 "/><path style=" stroke:none;fill-rule:nonzero;fill:#e4e8f4;fill-opacity:1;" d="M 347.820312 624.585938 L 340.691406 620.445312 L 309.035156 638.710938 L 316.164062 642.855469 Z M 347.820312 624.585938 "/><path style=" stroke:none;fill-rule:nonzero;fill:#cad0dd;fill-opacity:1;" d="M 387.875 555.164062 L 347.820312 624.585938 L 316.167969 642.855469 L 316.179688 647.011719 L 349.320312 627.882812 L 389.371094 558.460938 L 405.132812 549.363281 L 405.121094 545.207031 Z M 387.875 555.164062 "/><path style=" stroke:none;fill-rule:nonzero;fill:#e4e8f4;fill-opacity:1;" d="M 375.097656 527.785156 L 367.964844 523.644531 L 350.714844 533.597656 L 357.847656 537.742188 Z M 375.097656 527.785156 "/><path style=" stroke:none;fill-rule:nonzero;fill:#d4dae8;fill-opacity:1;" d="M 357.847656 537.738281 L 350.714844 533.597656 L 310.667969 603.019531 L 317.796875 607.160156 Z M 357.847656 537.738281 "/><path style=" stroke:none;fill-rule:nonzero;fill:#9ca0ab;fill-opacity:1;" d="M 286.140625 625.433594 L 279.011719 621.289062 L 279.023438 625.445312 L 286.15625 629.585938 Z M 286.140625 625.433594 "/><path style=" stroke:none;fill-rule:nonzero;fill:#e4e8f4;fill-opacity:1;" d="M 317.796875 607.164062 L 310.667969 603.019531 L 279.011719 621.289062 L 286.140625 625.433594 Z M 317.796875 607.164062 "/><path style=" stroke:none;fill-rule:nonzero;fill:#cad0dd;fill-opacity:1;" d="M 357.847656 537.738281 L 317.796875 607.160156 L 286.140625 625.429688 L 286.15625 629.585938 L 319.296875 610.460938 L 359.34375 541.039062 L 375.109375 531.9375 L 375.097656 527.785156 Z M 357.847656 537.738281 "/><path style=" stroke:none;fill-rule:nonzero;fill:#e4e8f4;fill-opacity:1;" d="M 345.070312 510.363281 L 337.941406 506.21875 L 320.691406 516.175781 L 327.820312 520.316406 Z M 345.070312 510.363281 "/><path style=" stroke:none;fill-rule:nonzero;fill:#d4dae8;fill-opacity:1;" d="M 327.824219 520.316406 L 320.691406 516.171875 L 280.640625 585.597656 L 287.769531 589.738281 Z M 327.824219 520.316406 "/><path style=" stroke:none;fill-rule:nonzero;fill:#9ca0ab;fill-opacity:1;" d="M 256.117188 608.007812 L 248.984375 603.867188 L 248.996094 608.023438 L 256.128906 612.164062 Z M 256.117188 608.007812 "/><path style=" stroke:none;fill-rule:nonzero;fill:#e4e8f4;fill-opacity:1;" d="M 287.769531 589.738281 L 280.640625 585.597656 L 248.984375 603.867188 L 256.117188 608.007812 Z M 287.769531 589.738281 "/><path style=" stroke:none;fill-rule:nonzero;fill:#cad0dd;fill-opacity:1;" d="M 327.824219 520.316406 L 287.773438 589.738281 L 256.117188 608.007812 L 256.128906 612.164062 L 289.269531 593.035156 L 329.320312 523.613281 L 345.085938 514.515625 L 345.070312 510.359375 Z M 327.824219 520.316406 "/><path style=" stroke:none;fill-rule:nonzero;fill:#e4e8f4;fill-opacity:1;" d="M 315.046875 492.9375 L 307.914062 488.796875 L 290.664062 498.75 L 297.796875 502.894531 Z M 315.046875 492.9375 "/><path style=" stroke:none;fill-rule:nonzero;fill:#d4dae8;fill-opacity:1;" d="M 297.796875 502.894531 L 290.664062 498.75 L 250.617188 568.171875 L 257.746094 572.3125 Z M 297.796875 502.894531 "/><path style=" stroke:none;fill-rule:nonzero;fill:#9ca0ab;fill-opacity:1;" d="M 226.089844 590.585938 L 218.960938 586.441406 L 218.972656 590.597656 L 226.101562 594.742188 Z M 226.089844 590.585938 "/><path style=" stroke:none;fill-rule:nonzero;fill:#e4e8f4;fill-opacity:1;" d="M 257.746094 572.316406 L 250.617188 568.171875 L 218.960938 586.441406 L 226.089844 590.585938 Z M 257.746094 572.316406 "/><path style=" stroke:none;fill-rule:nonzero;fill:#cad0dd;fill-opacity:1;" d="M 297.796875 502.894531 L 257.746094 572.3125 L 226.089844 590.585938 L 226.101562 594.742188 L 259.246094 575.613281 L 299.292969 506.191406 L 315.058594 497.09375 L 315.046875 492.9375 Z M 297.796875 502.894531 "/><path style=" stroke:none;fill-rule:nonzero;fill:#e4e8f4;fill-opacity:1;" d="M 285.019531 475.515625 L 277.890625 471.371094 L 260.640625 481.328125 L 267.769531 485.46875 Z M 285.019531 475.515625 "/><path style=" stroke:none;fill-rule:nonzero;fill:#d4dae8;fill-opacity:1;" d="M 267.769531 485.46875 L 260.640625 481.328125 L 220.589844 550.75 L 227.722656 554.890625 Z M 267.769531 485.46875 "/><path style=" stroke:none;fill-rule:nonzero;fill:#9ca0ab;fill-opacity:1;" d="M 196.066406 573.160156 L 188.933594 569.019531 L 188.945312 573.175781 L 196.078125 577.320312 Z M 196.066406 573.160156 "/><path style=" stroke:none;fill-rule:nonzero;fill:#e4e8f4;fill-opacity:1;" d="M 227.71875 554.894531 L 220.589844 550.75 L 188.933594 569.019531 L 196.066406 573.160156 Z M 227.71875 554.894531 "/><path style=" stroke:none;fill-rule:nonzero;fill:#cad0dd;fill-opacity:1;" d="M 267.769531 485.46875 L 227.722656 554.890625 L 196.066406 573.160156 L 196.078125 577.316406 L 229.21875 558.1875 L 269.269531 488.765625 L 285.03125 479.667969 L 285.019531 475.511719 Z M 267.769531 485.46875 "/><path style=" stroke:none;fill-rule:nonzero;fill:#e4e8f4;fill-opacity:1;" d="M 254.996094 458.089844 L 247.863281 453.949219 L 230.613281 463.902344 L 237.746094 468.046875 Z M 254.996094 458.089844 "/><path style=" stroke:none;fill-rule:nonzero;fill:#d4dae8;fill-opacity:1;" d="M 237.746094 468.046875 L 230.613281 463.902344 L 190.5625 533.324219 L 197.695312 537.46875 Z M 237.746094 468.046875 "/><path style=" stroke:none;fill-rule:nonzero;fill:#9ca0ab;fill-opacity:1;" d="M 166.042969 555.738281 L 158.910156 551.597656 L 158.921875 555.753906 L 166.050781 559.894531 Z M 166.042969 555.738281 "/><path style=" stroke:none;fill-rule:nonzero;fill:#e4e8f4;fill-opacity:1;" d="M 197.695312 537.46875 L 190.5625 533.328125 L 158.910156 551.597656 L 166.042969 555.738281 Z M 197.695312 537.46875 "/><path style=" stroke:none;fill-rule:nonzero;fill:#cad0dd;fill-opacity:1;" d="M 237.746094 468.046875 L 197.695312 537.46875 L 166.042969 555.738281 L 166.050781 559.894531 L 199.191406 540.765625 L 239.242188 471.34375 L 255.007812 462.246094 L 254.996094 458.089844 Z M 237.746094 468.046875 "/><path style=" stroke:none;fill-rule:nonzero;fill:#e4e8f4;fill-opacity:1;" d="M 224.972656 440.667969 L 217.839844 436.523438 L 200.589844 446.480469 L 207.722656 450.625 Z M 224.972656 440.667969 "/><path style=" stroke:none;fill-rule:nonzero;fill:#d4dae8;fill-opacity:1;" d="M 207.722656 450.625 L 200.589844 446.480469 L 160.539062 515.902344 L 167.671875 520.046875 Z M 207.722656 450.625 "/><path style=" stroke:none;fill-rule:nonzero;fill:#9ca0ab;fill-opacity:1;" d="M 136.015625 538.316406 L 128.882812 534.171875 L 128.894531 538.328125 L 136.027344 542.472656 Z M 136.015625 538.316406 "/><path style=" stroke:none;fill-rule:nonzero;fill:#e4e8f4;fill-opacity:1;" d="M 167.667969 520.046875 L 160.539062 515.90625 L 128.882812 534.171875 L 136.015625 538.316406 Z M 167.667969 520.046875 "/><path style=" stroke:none;fill-rule:nonzero;fill:#cad0dd;fill-opacity:1;" d="M 207.722656 450.625 L 167.671875 520.046875 L 136.015625 538.316406 L 136.027344 542.46875 L 169.167969 523.34375 L 209.21875 453.921875 L 224.980469 444.824219 L 224.972656 440.664062 Z M 207.722656 450.625 "/><path style=" stroke:none;fill-rule:nonzero;fill:#31323d;fill-opacity:1;" d="M 472.304688 364.65625 C 433.347656 342.109375 371.09375 342.480469 333.070312 364.65625 C 312.195312 376.765625 302.875 392.976562 305.296875 408.816406 C 307.535156 396.519531 316.855469 384.40625 333.070312 374.902344 C 371.09375 352.730469 433.347656 352.359375 472.304688 374.902344 C 488.894531 384.59375 498.210938 396.703125 500.449219 409.375 C 502.871094 393.351562 493.550781 376.765625 472.304688 364.65625 Z M 472.304688 364.65625 "/><path style=" stroke:none;fill-rule:nonzero;fill:#464957;fill-opacity:1;" d="M 472.304688 374.902344 C 433.347656 352.359375 371.09375 352.726562 333.070312 374.902344 C 316.855469 384.40625 307.53125 396.515625 305.296875 408.8125 L 305.296875 409 C 305.667969 410.675781 306.042969 412.167969 306.414062 413.65625 C 309.585938 425.023438 318.902344 435.832031 334.371094 444.773438 C 372.582031 466.761719 434.09375 466.761719 472.117188 444.773438 C 486.84375 436.203125 495.976562 425.394531 499.332031 414.21875 C 499.890625 412.726562 500.265625 411.050781 500.449219 409.375 C 498.210938 396.703125 488.890625 384.589844 472.304688 374.902344 Z M 472.304688 374.902344 "/><path style=" stroke:none;fill-rule:nonzero;fill:#d4dae8;fill-opacity:1;" d="M 472.921875 202.136719 C 511.144531 224.195312 510.617188 260.257812 472.640625 282.320312 C 434.664062 304.378906 373.121094 304.382812 334.894531 282.320312 C 295.933594 259.835938 295.734375 224.195312 333.710938 202.136719 C 371.6875 180.074219 433.964844 179.648438 472.921875 202.136719 Z M 472.921875 202.136719 "/><path style=" stroke:none;fill-rule:nonzero;fill:#cad0dd;fill-opacity:0.4;" d="M 501.398438 242.136719 L 500.335938 404.527344 C 500.21875 419.046875 490.65625 433.679688 471.53125 444.773438 C 433.632812 466.722656 372.007812 466.722656 333.875 444.773438 C 314.160156 433.324219 304.359375 418.574219 304.359375 403.9375 L 305.421875 241.546875 C 305.421875 256.179688 315.21875 270.933594 334.9375 282.261719 C 373.070312 304.332031 434.695312 304.332031 472.59375 282.261719 C 491.71875 271.285156 501.28125 256.652344 501.398438 242.136719 Z M 501.398438 242.136719 "/><path style=" stroke:none;fill-rule:nonzero;fill:#fed57a;fill-opacity:1;" d="M 308.628906 263.632812 C 321.433594 300.296875 383.972656 315.085938 383.972656 315.085938 C 402.371094 344.539062 441.535156 332.980469 441.535156 332.980469 C 461.925781 343.296875 477.464844 339.695312 488.277344 332.980469 C 497.355469 327.265625 503.074219 319.433594 505.4375 315.582031 C 506.183594 314.214844 506.679688 313.347656 506.679688 313.347656 C 526.074219 307.007812 535.273438 296.195312 538.632812 283.890625 C 546.589844 254.0625 518.738281 215.285156 513.890625 208.824219 C 513.390625 208.203125 513.144531 207.828125 513.144531 207.828125 C 513.390625 206.589844 513.265625 205.21875 512.894531 203.726562 C 510.535156 195.402344 498.722656 185.085938 492.878906 180.484375 C 490.765625 178.871094 489.523438 177.878906 489.523438 177.878906 C 488.40625 175.515625 486.664062 173.277344 484.425781 170.914062 C 474.851562 161.097656 456.949219 152.023438 447.996094 147.800781 C 444.640625 146.308594 442.652344 145.4375 442.652344 145.4375 C 441.53125 144.9375 440.539062 144.316406 439.417969 143.820312 C 378.125 113.871094 339.710938 130.027344 322.300781 142.203125 C 315.09375 147.175781 311.488281 151.527344 311.488281 151.527344 C 311.488281 151.527344 309.996094 151.648438 307.632812 152.394531 C 303.902344 153.636719 297.808594 156.746094 291.71875 163.953125 C 285.75 170.664062 279.785156 181.105469 275.308594 197.386719 C 263.003906 241.882812 308.628906 263.632812 308.628906 263.632812 Z M 308.628906 263.632812 "/><path style=" stroke:none;fill-rule:nonzero;fill:#f9bb4a;fill-opacity:1;" d="M 348.289062 155.753906 C 362.085938 147.550781 383.96875 162.714844 391.550781 166.441406 C 399.261719 170.171875 420.023438 188.316406 423.878906 192.542969 C 427.605469 196.765625 426.363281 208.199219 425.121094 210.9375 C 423.875 213.671875 407.09375 218.515625 406.097656 220.503906 C 404.980469 222.617188 407.46875 235.667969 412.3125 236.664062 C 417.039062 237.65625 409.457031 227.839844 409.457031 221.5 C 409.457031 215.160156 424.625 217.648438 429.597656 215.785156 C 434.445312 213.917969 429.597656 218.765625 435.3125 220.628906 C 440.910156 222.496094 441.28125 223.734375 446.128906 223.363281 C 451.105469 222.867188 440.164062 218.519531 435.066406 212.800781 C 430.09375 206.957031 434.695312 193.90625 434.695312 193.90625 C 445.511719 198.507812 476.839844 239.644531 478.332031 240.515625 C 479.453125 241.261719 480.195312 245.488281 480.320312 246.480469 C 480.320312 245.488281 464.160156 249.589844 464.90625 253.6875 C 465.652344 257.667969 468.140625 250.957031 472.363281 252.074219 C 476.714844 253.191406 486.660156 252.574219 486.660156 252.574219 C 495.488281 259.035156 504.8125 291.347656 504.8125 291.347656 C 504.8125 291.347656 498.097656 289.605469 496.484375 288.363281 C 494.867188 286.996094 488.277344 273.449219 486.539062 275.8125 C 484.921875 278.050781 491.511719 290.976562 491.511719 290.976562 C 491.511719 290.976562 484.800781 298.804688 484.300781 303.277344 C 483.929688 307.753906 491.882812 295.949219 491.882812 295.949219 C 510.285156 286.253906 504.066406 314.589844 504.066406 314.589844 L 505.4375 315.585938 C 506.183594 314.214844 506.679688 313.347656 506.679688 313.347656 C 526.074219 307.007812 535.273438 296.199219 538.632812 283.890625 L 536.144531 289.859375 C 536.144531 285.417969 519.253906 254.304688 530.800781 283.148438 C 531.542969 285.011719 526.199219 282.152344 521.472656 282.03125 C 516.875 281.90625 525.203125 286.503906 525.203125 286.503906 C 525.203125 286.503906 533.785156 286.007812 531.792969 292.84375 C 529.679688 299.804688 514.015625 306.140625 514.015625 306.140625 C 514.015625 306.140625 501.953125 270.96875 501.953125 265.003906 C 501.953125 259.160156 505.0625 253.570312 508.296875 250.585938 C 511.402344 247.480469 517.992188 255.683594 521.972656 253.074219 C 526.074219 250.460938 512.273438 246.609375 514.761719 244 C 517.371094 241.390625 514.136719 231.074219 512.523438 228.589844 C 510.90625 226.101562 509.167969 226.851562 509.664062 228.089844 C 510.285156 229.457031 513.269531 239.773438 509.417969 242.632812 C 505.4375 245.492188 496.734375 255.808594 496.734375 255.808594 L 474.980469 221.253906 C 474.980469 221.253906 475.226562 215.910156 476.71875 209.820312 C 478.085938 203.730469 473.113281 202.613281 473.363281 196.273438 C 473.734375 189.8125 484.179688 199.007812 485.050781 193.664062 C 485.917969 188.195312 472.988281 189.191406 472.988281 189.191406 L 472.742188 190.308594 C 472.109375 189.832031 475.378906 189.554688 460.808594 181.609375 C 473.382812 194.179688 465.285156 196.175781 470.257812 216.65625 L 435.570312 182.476562 C 436.316406 181.109375 434.328125 175.394531 434.574219 170.671875 C 434.699219 165.949219 447.257812 174.523438 449.617188 167.8125 C 451.980469 161.101562 434.824219 166.074219 434.824219 165.328125 C 434.824219 164.457031 438.800781 159.113281 439.921875 157.746094 C 441.039062 156.503906 440.792969 156.253906 440.792969 156.253906 C 430.347656 154.636719 429.230469 178.003906 429.230469 178.003906 C 429.230469 178.003906 396.28125 158.742188 394.417969 157 C 392.425781 155.386719 392.550781 152.648438 392.925781 147.058594 C 393.421875 141.589844 404.363281 145.816406 411.574219 143.578125 C 418.910156 141.214844 393.296875 138.605469 393.296875 138.605469 C 392.550781 135.25 385.964844 133.632812 385.964844 133.632812 C 385.964844 133.632812 384.84375 131.644531 382.730469 133.011719 C 380.492188 134.503906 387.828125 140.34375 387.828125 140.34375 C 386.210938 143.949219 386.335938 153.144531 386.335938 153.144531 C 359.605469 138.605469 322.929688 142.332031 322.929688 142.332031 L 322.308594 142.207031 C 315.097656 147.179688 311.492188 151.53125 311.492188 151.53125 C 311.492188 151.53125 310 151.652344 307.636719 152.398438 L 307.886719 152.894531 C 307.886719 152.894531 338.84375 148.671875 344.3125 148.421875 C 353.773438 147.992188 315.898438 174.886719 348.289062 155.753906 Z M 348.289062 155.753906 "/><path style=" stroke:none;fill-rule:nonzero;fill:#f9bb4a;fill-opacity:1;" d="M 308.628906 263.632812 C 321.433594 300.296875 383.96875 315.085938 383.96875 315.085938 C 402.371094 344.539062 441.53125 332.980469 441.53125 332.980469 C 461.921875 343.296875 477.460938 339.695312 488.277344 332.980469 C 477.710938 332.234375 448.992188 326.890625 444.390625 318.8125 C 439.792969 310.609375 440.289062 306.882812 443.644531 293.832031 C 447 280.90625 458.8125 288.859375 467.890625 282.398438 C 476.964844 275.933594 458.5625 279.289062 451.851562 278.421875 C 445.261719 277.425781 442.402344 269.84375 438.921875 263.632812 C 435.441406 257.292969 442.773438 244.367188 442.773438 244.367188 C 421.265625 243.25 432.207031 279.289062 432.207031 279.289062 C 427.855469 293.085938 410.699219 270.714844 410.699219 270.714844 C 403.859375 274.441406 415.671875 289.730469 425.246094 291.34375 C 434.941406 292.960938 433.945312 294.578125 429.71875 301.910156 C 425.492188 309.242188 434.816406 326.019531 434.816406 326.019531 C 386.453125 328.011719 382.972656 290.105469 383.097656 278.792969 C 383.097656 267.609375 389.3125 268.726562 396.898438 264.625 C 404.480469 260.523438 398.886719 245.488281 396.273438 242.378906 C 393.789062 239.144531 393.292969 246.851562 396.027344 251.324219 C 398.761719 255.800781 397.519531 258.90625 391.925781 259.777344 C 386.328125 260.769531 377.75 270.464844 374.519531 270.464844 C 371.410156 270.464844 371.535156 257.664062 368.300781 254.308594 C 364.945312 250.828125 368.300781 246.851562 367.558594 242.503906 C 366.933594 238.027344 357.980469 251.324219 357.488281 255.925781 C 356.863281 260.523438 339.335938 261.765625 338.589844 265.121094 C 337.839844 268.601562 353.507812 263.753906 360.96875 260.398438 C 368.550781 257.042969 378 302.03125 378 302.03125 C 378 302.03125 349.28125 287.492188 334.609375 283.886719 C 319.816406 280.285156 312.355469 260.769531 313.472656 248.46875 C 314.714844 236.039062 335.355469 245.484375 335.355469 243.246094 C 335.355469 240.882812 315.710938 236.285156 313.101562 234.667969 C 310.488281 233.179688 316.707031 222.488281 321.554688 218.515625 C 326.527344 214.660156 325.160156 199 329.015625 196.015625 C 332.742188 193.160156 338.464844 195.519531 342.070312 191.171875 C 345.675781 186.820312 357.238281 185.703125 357.238281 187.691406 C 357.238281 189.679688 360.839844 196.761719 360.839844 204.839844 C 360.839844 212.921875 366.0625 221 369.792969 221.621094 C 373.523438 222.121094 374.640625 218.761719 370.042969 215.777344 C 365.441406 212.921875 365.441406 204.34375 367.429688 199.996094 C 371.003906 192.640625 349.332031 186.292969 373.398438 188.558594 C 383.964844 189.554688 385.832031 198.128906 393.789062 195.890625 C 401.621094 193.78125 366.0625 179.984375 353.632812 179.984375 C 341.199219 179.984375 330.628906 188.683594 329.015625 189.800781 C 327.398438 191.042969 321.308594 177.996094 315.214844 174.640625 C 309.125 171.28125 314.222656 158.109375 308.5 158.109375 C 302.78125 158.109375 312.230469 177.996094 319.6875 187.191406 C 327.273438 196.511719 315.214844 211.304688 312.851562 218.386719 C 310.488281 225.472656 307.753906 220.75 303.402344 224.101562 C 299.050781 227.335938 306.136719 253.183594 301.785156 254.179688 C 297.433594 255.175781 284.253906 224.476562 282.515625 207.820312 C 280.773438 191.292969 290.097656 194.152344 294.949219 186.570312 C 299.796875 179.113281 282.515625 188.0625 282.515625 188.0625 L 291.714844 163.953125 C 285.746094 170.664062 279.78125 181.101562 275.304688 197.382812 C 263 241.882812 308.628906 263.632812 308.628906 263.632812 Z M 308.628906 263.632812 "/><path style=" stroke:none;fill-rule:nonzero;fill:#f9bb4a;fill-opacity:1;" d="M 496.984375 222.617188 C 498.0625 223.5625 500.699219 223.746094 501.707031 223.238281 C 503.722656 221.902344 502.660156 214.707031 503.324219 213.050781 C 503.976562 211.308594 508.222656 208.730469 510.535156 208.574219 C 511.652344 208.449219 512.773438 208.824219 513.890625 208.824219 C 513.394531 208.203125 513.144531 207.828125 513.144531 207.828125 C 513.394531 206.589844 513.269531 205.21875 512.898438 203.726562 C 512.648438 203.851562 512.398438 203.976562 512.273438 204.101562 C 500.535156 209.3125 502.511719 204.496094 497.855469 209.816406 C 496.984375 210.808594 496.113281 211.925781 495.617188 213.171875 C 494.980469 214.761719 494.632812 220.8125 496.984375 222.617188 Z M 496.984375 222.617188 "/><path style=" stroke:none;fill-rule:nonzero;fill:#f9bb4a;fill-opacity:1;" d="M 464.660156 168.804688 C 464.90625 168.679688 465.15625 168.679688 465.40625 168.554688 C 469.21875 168.355469 485.226562 181.582031 492.882812 180.484375 C 490.769531 178.871094 489.523438 177.878906 489.523438 177.878906 C 488.40625 175.515625 486.664062 173.277344 484.425781 170.914062 C 477.769531 169.347656 470.144531 157.726562 463.167969 164.703125 C 460.421875 167.441406 463.691406 170.734375 464.660156 168.804688 Z M 464.660156 168.804688 "/><path style=" stroke:none;fill-rule:nonzero;fill:#f9bb4a;fill-opacity:1;" d="M 424.253906 149.042969 C 425.125 149.289062 425.871094 148.421875 426.738281 148.171875 C 427.464844 147.882812 431.519531 148.167969 433.078125 149.414062 C 434.320312 150.246094 434.140625 150.53125 436.0625 150.53125 C 441.46875 150.53125 446.617188 150.566406 448 147.800781 C 437.90625 143.3125 441.929688 144.9375 439.417969 143.824219 C 439.292969 144.070312 439.171875 144.445312 438.921875 144.691406 C 435.789062 144.3125 425.492188 144.003906 423.753906 146.433594 C 423.007812 147.300781 423.257812 148.792969 424.253906 149.042969 Z M 424.253906 149.042969 "/><path style=" stroke:none;fill-rule:nonzero;fill:#748bfd;fill-opacity:1;" d="M 13.164062 423.324219 C 14.355469 422.628906 16.011719 422.707031 17.824219 423.746094 L 287.914062 579.640625 C 291.53125 581.722656 294.417969 586.761719 294.417969 590.917969 L 293.804688 803.808594 C 293.804688 805.886719 293.074219 807.3125 291.917969 808.003906 L 303.910156 801.023438 C 305.105469 800.328125 305.835938 798.90625 305.835938 796.867188 L 306.410156 583.9375 C 306.449219 579.78125 303.523438 574.738281 299.945312 572.660156 L 29.851562 416.800781 C 28.003906 415.726562 26.386719 415.648438 25.195312 416.339844 Z M 13.164062 423.324219 "/><g clip-rule="nonzero" clip-path="url(#733135cbae)"><path style=" stroke:none;fill-rule:nonzero;fill:#4562ef;fill-opacity:1;" d="M 17.832031 423.765625 C 14.21875 421.679688 11.285156 423.351562 11.273438 427.5 L 10.667969 640.40625 C 10.65625 644.527344 13.574219 649.578125 17.183594 651.660156 L 287.28125 807.546875 C 290.867188 809.621094 293.800781 807.949219 293.8125 803.828125 L 294.417969 590.917969 C 294.429688 586.769531 291.511719 581.722656 287.925781 579.652344 Z M 17.832031 423.765625 "/></g><path style=" stroke:none;fill-rule:nonzero;fill:#ffffff;fill-opacity:1;" d="M 276.859375 591.964844 C 276.796875 591.777344 276.308594 590.933594 275.976562 590.652344 L 29.105469 448.1875 L 28.5625 639.167969 C 28.625 639.335938 29.117188 640.175781 29.453125 640.453125 L 276.320312 782.917969 Z M 276.859375 591.964844 "/><path style=" stroke:none;fill-rule:nonzero;fill:#5b5e71;fill-opacity:1;" d="M 63.921875 504.53125 L 63.609375 638.273438 L 46.90625 628.632812 L 47.214844 494.890625 Z M 63.921875 504.53125 "/><path style=" stroke:none;fill-rule:nonzero;fill:#3e60dd;fill-opacity:1;" d="M 102.699219 559.019531 L 102.480469 660.707031 L 85.777344 651.066406 L 85.996094 549.378906 Z M 102.699219 559.019531 "/><path style=" stroke:none;fill-rule:nonzero;fill:#75ca75;fill-opacity:1;" d="M 141.660156 549.398438 L 141.351562 683.140625 L 124.648438 673.5 L 124.957031 539.757812 Z M 141.660156 549.398438 "/><path style=" stroke:none;fill-rule:nonzero;fill:#f9607f;fill-opacity:1;" d="M 180.351562 635.90625 L 180.222656 705.578125 L 163.519531 695.9375 L 163.644531 626.265625 Z M 180.351562 635.90625 "/><path style=" stroke:none;fill-rule:nonzero;fill:#efac41;fill-opacity:1;" d="M 219.402344 594.265625 L 219.09375 728.011719 L 202.390625 718.371094 L 202.699219 584.625 Z M 219.402344 594.265625 "/><path style=" stroke:none;fill-rule:nonzero;fill:#afb5bf;fill-opacity:1;" d="M 258.179688 648.757812 L 257.960938 750.445312 L 241.257812 740.804688 L 241.476562 639.117188 Z M 258.179688 648.757812 "/><path style=" stroke:none;fill-rule:nonzero;fill:#5b5e71;fill-opacity:1;" d="M 797.09375 423.324219 C 795.898438 422.628906 794.246094 422.707031 792.433594 423.746094 L 522.34375 579.640625 C 518.726562 581.722656 515.835938 586.761719 515.835938 590.917969 L 516.453125 803.808594 C 516.453125 805.886719 517.183594 807.3125 518.339844 808.003906 L 506.347656 801.023438 C 505.152344 800.328125 504.421875 798.90625 504.421875 796.867188 L 503.847656 583.9375 C 503.808594 579.78125 506.734375 574.738281 510.3125 572.660156 L 780.40625 416.800781 C 782.253906 415.726562 783.871094 415.648438 785.0625 416.339844 Z M 797.09375 423.324219 "/><g clip-rule="nonzero" clip-path="url(#564a1d7346)"><path style=" stroke:none;fill-rule:nonzero;fill:#474b59;fill-opacity:1;" d="M 792.425781 423.765625 C 796.039062 421.679688 798.972656 423.351562 798.984375 427.5 L 799.589844 640.40625 C 799.601562 644.527344 796.683594 649.578125 793.074219 651.660156 L 522.976562 807.546875 C 519.390625 809.621094 516.457031 807.949219 516.441406 803.828125 L 515.839844 590.917969 C 515.828125 586.769531 518.746094 581.722656 522.332031 579.652344 Z M 792.425781 423.765625 "/></g><path style=" stroke:none;fill-rule:nonzero;fill:#ffffff;fill-opacity:1;" d="M 533.398438 591.964844 C 533.460938 591.777344 533.949219 590.933594 534.28125 590.652344 L 781.152344 448.1875 L 781.695312 639.167969 C 781.632812 639.335938 781.140625 640.175781 780.804688 640.453125 L 533.9375 782.917969 Z M 533.398438 591.964844 "/><path style=" stroke:none;fill-rule:nonzero;fill:#f9bb4a;fill-opacity:1;" d="M 707.800781 516.34375 C 739.238281 498.203125 764.820312 512.773438 764.921875 548.886719 L 707.984375 581.75 Z M 707.800781 516.34375 "/><path style=" stroke:none;fill-rule:nonzero;fill:#6eba6e;fill-opacity:1;" d="M 697.972656 533.425781 L 698.15625 598.765625 L 755.09375 565.90625 C 755.195312 602.015625 729.78125 646.027344 698.34375 664.167969 C 666.90625 682.3125 641.324219 667.742188 641.21875 631.625 C 641.117188 595.515625 666.535156 551.570312 697.972656 533.425781 Z M 697.972656 533.425781 "/><path style=" stroke:none;fill-rule:nonzero;fill:#748bfd;fill-opacity:1;" d="M 615.867188 708.003906 C 615.867188 709.859375 614.578125 712.113281 612.964844 713.078125 L 553.832031 747.226562 C 552.222656 748.113281 550.929688 747.386719 550.929688 745.457031 L 550.527344 606.695312 C 550.527344 604.84375 551.816406 602.589844 553.429688 601.703125 L 612.480469 567.554688 C 614.171875 566.589844 615.460938 567.316406 615.460938 569.25 Z M 615.867188 708.003906 "/><path style=" stroke:none;fill-rule:nonzero;fill:#ffffff;fill-opacity:1;" d="M 606.566406 678.097656 L 606.578125 681.082031 L 559.976562 707.980469 L 559.96875 704.996094 Z M 606.566406 678.097656 "/><path style=" stroke:none;fill-rule:nonzero;fill:#ffffff;fill-opacity:1;" d="M 606.5 654.289062 L 606.507812 657.332031 L 559.910156 684.226562 L 559.902344 681.183594 Z M 606.5 654.289062 "/><path style=" stroke:none;fill-rule:nonzero;fill:#ffffff;fill-opacity:1;" d="M 606.398438 618.601562 L 606.410156 621.644531 L 559.808594 648.542969 L 559.800781 645.496094 Z M 606.398438 618.601562 "/><path style=" stroke:none;fill-rule:nonzero;fill:#ffffff;fill-opacity:1;" d="M 606.332031 594.851562 L 606.339844 597.835938 L 559.742188 624.730469 L 559.734375 621.75 Z M 606.332031 594.851562 "/><path style=" stroke:none;fill-rule:nonzero;fill:#ffffff;fill-opacity:1;" d="M 606.296875 582.917969 L 606.308594 585.960938 L 559.707031 612.855469 L 559.699219 609.8125 Z M 606.296875 582.917969 "/><path style=" stroke:none;fill-rule:nonzero;fill:#ffffff;fill-opacity:1;" d="M 606.636719 701.851562 L 606.644531 704.894531 L 560.042969 731.789062 L 560.035156 728.746094 Z M 606.636719 701.851562 "/><path style=" stroke:none;fill-rule:nonzero;fill:#ffffff;fill-opacity:1;" d="M 606.601562 689.976562 L 606.613281 693.019531 L 560.011719 719.914062 L 560.003906 716.867188 Z M 606.601562 689.976562 "/><path style=" stroke:none;fill-rule:nonzero;fill:#ffffff;fill-opacity:1;" d="M 606.535156 666.164062 L 606.542969 669.207031 L 559.945312 696.101562 L 559.933594 693.058594 Z M 606.535156 666.164062 "/><path style=" stroke:none;fill-rule:nonzero;fill:#ffffff;fill-opacity:1;" d="M 606.46875 642.414062 L 606.476562 645.457031 L 559.878906 672.355469 L 559.867188 669.308594 Z M 606.46875 642.414062 "/><path style=" stroke:none;fill-rule:nonzero;fill:#ffffff;fill-opacity:1;" d="M 606.433594 630.480469 L 606.441406 633.523438 L 559.84375 660.417969 L 559.835938 657.375 Z M 606.433594 630.480469 "/><path style=" stroke:none;fill-rule:nonzero;fill:#ffffff;fill-opacity:1;" d="M 606.367188 606.726562 L 606.375 609.773438 L 559.773438 636.667969 L 559.765625 633.621094 Z M 606.367188 606.726562 "/></g></svg>