<svg xmlns="http://www.w3.org/2000/svg" xmlns:xlink="http://www.w3.org/1999/xlink" width="1080" zoomAndPan="magnify" viewBox="0 0 810 809.999993" height="1080" preserveAspectRatio="xMidYMid meet" version="1.2"><g id="f931dbf2c9"><path style=" stroke:none;fill-rule:nonzero;fill:#fdda7f;fill-opacity:1;" d="M 809.367188 405 C 809.367188 411.617188 809.207031 418.230469 808.882812 424.839844 C 808.554688 431.453125 808.070312 438.050781 807.421875 444.636719 C 806.773438 451.222656 805.960938 457.785156 804.992188 464.332031 C 804.019531 470.878906 802.890625 477.398438 801.597656 483.886719 C 800.308594 490.378906 798.859375 496.832031 797.25 503.253906 C 795.640625 509.671875 793.878906 516.050781 791.957031 522.382812 C 790.035156 528.714844 787.960938 534.996094 785.730469 541.226562 C 783.5 547.457031 781.121094 553.632812 778.585938 559.746094 C 776.054688 565.859375 773.375 571.90625 770.542969 577.890625 C 767.714844 583.871094 764.742188 589.78125 761.621094 595.617188 C 758.5 601.453125 755.242188 607.210938 751.839844 612.886719 C 748.4375 618.5625 744.894531 624.152344 741.21875 629.65625 C 737.542969 635.15625 733.734375 640.566406 729.792969 645.882812 C 725.847656 651.195312 721.777344 656.414062 717.582031 661.527344 C 713.382812 666.644531 709.0625 671.652344 704.617188 676.558594 C 700.171875 681.460938 695.609375 686.253906 690.929688 690.929688 C 686.253906 695.609375 681.460938 700.171875 676.558594 704.617188 C 671.652344 709.0625 666.644531 713.382812 661.527344 717.582031 C 656.414062 721.777344 651.195312 725.847656 645.882812 729.792969 C 640.566406 733.734375 635.15625 737.542969 629.65625 741.21875 C 624.152344 744.894531 618.5625 748.4375 612.886719 751.839844 C 607.210938 755.242188 601.453125 758.5 595.617188 761.621094 C 589.78125 764.742188 583.871094 767.714844 577.890625 770.542969 C 571.90625 773.375 565.859375 776.054688 559.746094 778.585938 C 553.632812 781.121094 547.457031 783.5 541.226562 785.730469 C 534.996094 787.960938 528.714844 790.035156 522.382812 791.957031 C 516.050781 793.878906 509.671875 795.640625 503.253906 797.25 C 496.832031 798.859375 490.378906 800.308594 483.886719 801.597656 C 477.398438 802.890625 470.878906 804.019531 464.332031 804.992188 C 457.785156 805.960938 451.222656 806.773438 444.636719 807.421875 C 438.050781 808.070312 431.453125 808.554688 424.839844 808.882812 C 418.230469 809.207031 411.617188 809.367188 405 809.367188 C 398.382812 809.367188 391.769531 809.207031 385.160156 808.882812 C 378.546875 808.554688 371.949219 808.070312 365.363281 807.421875 C 358.777344 806.773438 352.214844 805.960938 345.667969 804.992188 C 339.121094 804.019531 332.601562 802.890625 326.113281 801.597656 C 319.621094 800.308594 313.164062 798.859375 306.746094 797.25 C 300.328125 795.640625 293.949219 793.878906 287.617188 791.957031 C 281.285156 790.035156 275.003906 787.960938 268.773438 785.730469 C 262.542969 783.5 256.367188 781.121094 250.253906 778.585938 C 244.140625 776.054688 238.09375 773.375 232.109375 770.542969 C 226.128906 767.714844 220.21875 764.742188 214.382812 761.621094 C 208.546875 758.5 202.789062 755.242188 197.113281 751.839844 C 191.4375 748.4375 185.847656 744.894531 180.34375 741.21875 C 174.84375 737.542969 169.433594 733.734375 164.117188 729.792969 C 158.800781 725.847656 153.585938 721.777344 148.472656 717.582031 C 143.355469 713.382812 138.347656 709.0625 133.441406 704.617188 C 128.539062 700.171875 123.746094 695.609375 119.070312 690.929688 C 114.390625 686.253906 109.828125 681.460938 105.382812 676.558594 C 100.9375 671.652344 96.617188 666.644531 92.417969 661.527344 C 88.222656 656.414062 84.152344 651.195312 80.207031 645.882812 C 76.265625 640.566406 72.457031 635.15625 68.78125 629.65625 C 65.101562 624.152344 61.5625 618.5625 58.160156 612.886719 C 54.757812 607.210938 51.5 601.453125 48.378906 595.617188 C 45.257812 589.78125 42.285156 583.871094 39.457031 577.890625 C 36.625 571.90625 33.945312 565.859375 31.414062 559.746094 C 28.878906 553.632812 26.5 547.457031 24.269531 541.226562 C 22.039062 534.996094 19.964844 528.714844 18.042969 522.382812 C 16.121094 516.050781 14.359375 509.671875 12.75 503.253906 C 11.140625 496.832031 9.691406 490.378906 8.402344 483.886719 C 7.109375 477.398438 5.980469 470.878906 5.007812 464.332031 C 4.039062 457.785156 3.226562 451.222656 2.578125 444.636719 C 1.929688 438.050781 1.445312 431.453125 1.117188 424.839844 C 0.792969 418.230469 0.632812 411.617188 0.632812 405 C 0.632812 398.382812 0.792969 391.769531 1.117188 385.160156 C 1.445312 378.546875 1.929688 371.949219 2.578125 365.363281 C 3.226562 358.777344 4.039062 352.214844 5.007812 345.667969 C 5.980469 339.121094 7.109375 332.601562 8.402344 326.113281 C 9.691406 319.621094 11.140625 313.164062 12.75 306.746094 C 14.359375 300.328125 16.121094 293.949219 18.042969 287.617188 C 19.964844 281.285156 22.039062 275.003906 24.269531 268.773438 C 26.5 262.542969 28.878906 256.367188 31.414062 250.253906 C 33.945312 244.140625 36.625 238.09375 39.457031 232.109375 C 42.285156 226.128906 45.257812 220.21875 48.378906 214.382812 C 51.5 208.546875 54.757812 202.789062 58.160156 197.113281 C 61.5625 191.4375 65.101562 185.847656 68.78125 180.34375 C 72.457031 174.84375 76.265625 169.433594 80.207031 164.117188 C 84.152344 158.800781 88.222656 153.585938 92.417969 148.472656 C 96.617188 143.355469 100.9375 138.347656 105.382812 133.441406 C 109.828125 128.539062 114.390625 123.746094 119.070312 119.070312 C 123.746094 114.390625 128.539062 109.828125 133.441406 105.382812 C 138.347656 100.9375 143.355469 96.617188 148.472656 92.417969 C 153.585938 88.222656 158.800781 84.152344 164.117188 80.207031 C 169.433594 76.265625 174.84375 72.457031 180.34375 68.78125 C 185.847656 65.101562 191.4375 61.5625 197.113281 58.160156 C 202.789062 54.757812 208.546875 51.5 214.382812 48.378906 C 220.21875 45.257812 226.128906 42.285156 232.109375 39.457031 C 238.09375 36.625 244.140625 33.945312 250.253906 31.414062 C 256.367188 28.878906 262.542969 26.5 268.773438 24.269531 C 275.003906 22.039062 281.285156 19.964844 287.617188 18.042969 C 293.949219 16.121094 300.328125 14.359375 306.746094 12.75 C 313.164062 11.140625 319.621094 9.691406 326.113281 8.402344 C 332.601562 7.109375 339.121094 5.980469 345.667969 5.007812 C 352.214844 4.039062 358.777344 3.226562 365.363281 2.578125 C 371.949219 1.929688 378.546875 1.445312 385.160156 1.117188 C 391.769531 0.792969 398.382812 0.632812 405 0.632812 C 411.617188 0.632812 418.230469 0.792969 424.839844 1.117188 C 431.453125 1.445312 438.050781 1.929688 444.636719 2.578125 C 451.222656 3.226562 457.785156 4.039062 464.332031 5.007812 C 470.878906 5.980469 477.398438 7.109375 483.886719 8.402344 C 490.378906 9.691406 496.832031 11.140625 503.253906 12.75 C 509.671875 14.359375 516.050781 16.121094 522.382812 18.042969 C 528.714844 19.964844 534.996094 22.039062 541.226562 24.269531 C 547.457031 26.5 553.632812 28.878906 559.746094 31.414062 C 565.859375 33.945312 571.90625 36.625 577.890625 39.457031 C 583.871094 42.285156 589.78125 45.257812 595.617188 48.378906 C 601.453125 51.5 607.210938 54.757812 612.886719 58.160156 C 618.5625 61.5625 624.152344 65.105469 629.65625 68.78125 C 635.15625 72.457031 640.566406 76.265625 645.882812 80.207031 C 651.195312 84.152344 656.414062 88.222656 661.527344 92.417969 C 666.644531 96.617188 671.652344 100.9375 676.558594 105.382812 C 681.460938 109.828125 686.253906 114.390625 690.929688 119.070312 C 695.609375 123.746094 700.171875 128.539062 704.617188 133.441406 C 709.0625 138.347656 713.382812 143.355469 717.582031 148.472656 C 721.777344 153.585938 725.847656 158.800781 729.792969 164.117188 C 733.734375 169.433594 737.542969 174.84375 741.21875 180.34375 C 744.894531 185.847656 748.4375 191.4375 751.839844 197.113281 C 755.242188 202.789062 758.5 208.546875 761.621094 214.382812 C 764.742188 220.21875 767.714844 226.128906 770.542969 232.109375 C 773.375 238.09375 776.054688 244.140625 778.585938 250.253906 C 781.121094 256.367188 783.5 262.542969 785.730469 268.773438 C 787.960938 275.003906 790.035156 281.285156 791.957031 287.617188 C 793.878906 293.949219 795.640625 300.328125 797.25 306.746094 C 798.859375 313.167969 800.308594 319.621094 801.597656 326.113281 C 802.890625 332.601562 804.019531 339.121094 804.992188 345.667969 C 805.960938 352.214844 806.773438 358.777344 807.421875 365.363281 C 808.070312 371.949219 808.554688 378.546875 808.882812 385.160156 C 809.207031 391.769531 809.367188 398.382812 809.367188 405 Z M 809.367188 405 "/><path style=" stroke:none;fill-rule:nonzero;fill:#464e58;fill-opacity:1;" d="M 89.128906 725.726562 L 208.410156 0.0195312 L 721.519531 84.355469 L 602.238281 810.0625 Z M 89.128906 725.726562 "/><path style=" stroke:none;fill-rule:nonzero;fill:#f2f2f2;fill-opacity:1;" d="M 145.320312 37.277344 L 665.3125 37.277344 L 665.3125 772.722656 L 145.320312 772.722656 Z M 145.320312 37.277344 "/><path style=" stroke:none;fill-rule:nonzero;fill:#464e58;fill-opacity:1;" d="M 482.082031 178.175781 C 481.449219 178.175781 437.855469 159.21875 437.222656 159.21875 C 436.589844 159.21875 435.960938 158.589844 420.796875 132.683594 L 423.324219 131.417969 C 428.378906 140.265625 437.222656 154.796875 438.488281 156.691406 C 442.277344 158.589844 481.449219 175.015625 482.714844 175.648438 Z M 482.082031 178.175781 "/><path style=" stroke:none;fill-rule:nonzero;fill:#464e58;fill-opacity:1;" d="M 541.472656 141.527344 L 540.210938 139 L 576.855469 121.941406 L 593.285156 100.460938 L 595.8125 102.355469 L 578.121094 124.46875 Z M 541.472656 141.527344 "/><path style=" stroke:none;fill-rule:nonzero;fill:#fdda7f;fill-opacity:1;" d="M 372.144531 204.078125 C 372.144531 204.078125 372.144531 203.449219 372.144531 204.078125 L 414.476562 204.078125 C 414.476562 260.3125 368.984375 305.804688 312.753906 305.804688 L 312.753906 263.472656 C 345.609375 263.472656 372.144531 236.300781 372.144531 204.078125 Z M 372.144531 204.078125 "/><path style=" stroke:none;fill-rule:nonzero;fill:#7ccedc;fill-opacity:1;" d="M 244.515625 190.8125 C 244.515625 223.667969 271.054688 250.203125 303.90625 250.203125 L 303.90625 292.535156 C 247.675781 292.535156 202.183594 247.042969 202.183594 190.8125 Z M 244.515625 190.8125 "/><path style=" stroke:none;fill-rule:nonzero;fill:#464e58;fill-opacity:1;" d="M 405.632812 190.8125 L 363.300781 190.8125 C 363.300781 157.957031 336.761719 131.417969 303.90625 131.417969 C 287.480469 131.417969 272.949219 138.371094 261.574219 149.109375 L 231.246094 118.78125 C 249.570312 100.460938 275.476562 89.085938 303.277344 89.085938 C 360.140625 89.085938 405.632812 134.578125 405.632812 190.8125 Z M 405.632812 190.8125 "/><path style=" stroke:none;fill-rule:nonzero;fill:#f37c5a;fill-opacity:1;" d="M 244.515625 190.8125 L 202.183594 190.8125 C 202.183594 162.378906 213.558594 137.105469 231.878906 118.78125 L 262.207031 149.109375 C 250.835938 159.21875 244.515625 174.382812 244.515625 190.8125 Z M 244.515625 190.8125 "/><path style=" stroke:none;fill-rule:nonzero;fill:#7ccedc;fill-opacity:1;" d="M 513.675781 195.234375 L 513.675781 119.414062 C 471.972656 119.414062 437.855469 153.535156 437.855469 195.234375 C 437.855469 217.980469 447.964844 238.199219 463.757812 252.097656 Z M 513.675781 195.234375 "/><path style=" stroke:none;fill-rule:nonzero;fill:#464e58;fill-opacity:1;" d="M 593.285156 202.183594 C 593.285156 221.140625 586.332031 238.828125 574.328125 252.097656 C 560.429688 267.894531 540.210938 278.003906 517.464844 278.003906 C 498.511719 278.003906 480.820312 271.054688 467.550781 259.046875 L 517.464844 202.183594 L 581.910156 163.011719 C 588.859375 174.382812 593.285156 187.652344 593.285156 202.183594 Z M 593.285156 202.183594 "/><path style=" stroke:none;fill-rule:nonzero;fill:#fdda7f;fill-opacity:1;" d="M 520.625 116.886719 L 520.625 192.707031 L 585.070312 153.535156 C 571.800781 131.417969 547.792969 116.886719 520.625 116.886719 Z M 520.625 116.886719 "/><path style=" stroke:none;fill-rule:nonzero;fill:#464e58;fill-opacity:1;" d="M 274.210938 177.542969 C 274.210938 172.488281 275.476562 168.699219 277.371094 166.171875 C 279.265625 163.644531 282.425781 162.378906 286.21875 162.378906 C 290.007812 162.378906 293.167969 163.644531 295.0625 166.171875 C 296.957031 168.699219 298.222656 172.488281 298.222656 177.542969 C 298.222656 182.597656 296.957031 186.386719 295.0625 188.914062 C 293.167969 191.441406 290.007812 192.707031 286.21875 192.707031 C 282.425781 192.707031 279.265625 191.441406 277.371094 188.914062 C 275.476562 186.386719 274.210938 182.597656 274.210938 177.542969 Z M 283.058594 177.542969 C 283.058594 181.332031 283.691406 183.859375 284.320312 185.125 C 284.953125 185.757812 285.585938 186.386719 286.847656 186.386719 C 288.113281 186.386719 288.746094 185.757812 289.375 185.125 C 290.007812 183.859375 290.640625 181.332031 290.640625 177.542969 C 290.640625 173.753906 290.007812 171.226562 289.375 169.960938 C 288.746094 169.328125 288.113281 168.699219 286.847656 168.699219 C 285.585938 168.699219 284.953125 169.328125 284.320312 169.960938 C 283.058594 171.855469 283.058594 173.753906 283.058594 177.542969 Z M 295.0625 221.769531 L 286.847656 221.769531 L 316.542969 163.011719 L 324.125 163.011719 Z M 312.121094 207.238281 C 312.121094 202.183594 313.386719 198.394531 315.28125 195.867188 C 317.175781 193.339844 320.335938 192.074219 324.125 192.074219 C 327.917969 192.074219 331.078125 193.339844 332.972656 195.867188 C 334.867188 198.394531 336.132812 202.183594 336.132812 207.238281 C 336.132812 212.292969 334.867188 216.085938 332.972656 218.613281 C 331.078125 221.140625 327.917969 222.402344 324.125 222.402344 C 320.335938 222.402344 317.175781 221.140625 315.28125 218.613281 C 313.386719 216.085938 312.121094 212.292969 312.121094 207.238281 Z M 320.335938 207.238281 C 320.335938 211.03125 320.96875 213.558594 321.597656 214.820312 C 322.230469 215.453125 322.863281 216.085938 324.125 216.085938 C 325.390625 216.085938 326.023438 215.453125 326.652344 214.820312 C 327.285156 213.558594 327.917969 211.03125 327.917969 207.238281 C 327.917969 203.449219 327.285156 200.921875 326.652344 199.65625 C 326.023438 199.023438 325.390625 198.394531 324.125 198.394531 C 322.863281 198.394531 322.230469 199.023438 321.597656 199.65625 C 320.96875 200.921875 320.335938 203.449219 320.335938 207.238281 Z M 320.335938 207.238281 "/><path style=" stroke:none;fill-rule:nonzero;fill:#464e58;fill-opacity:1;" d="M 608.449219 276.738281 L 574.960938 276.738281 L 545.898438 240.09375 L 548.425781 238.199219 L 576.855469 273.582031 L 608.449219 273.582031 Z M 608.449219 276.738281 "/><path style=" stroke:none;fill-rule:nonzero;fill:#464e58;fill-opacity:1;" d="M 204.078125 458.074219 L 200.289062 451.753906 L 274.210938 406.894531 L 340.554688 432.800781 L 447.332031 379.09375 L 490.296875 415.742188 L 605.921875 357.613281 L 609.078125 364.5625 L 489.664062 424.585938 L 446.070312 387.941406 L 341.1875 441.015625 L 274.84375 414.476562 Z M 204.078125 458.074219 "/><path style=" stroke:none;fill-rule:nonzero;fill:#dad9d8;fill-opacity:1;" d="M 202.851562 440.109375 C 203.847656 440.144531 204.828125 440.28125 205.796875 440.511719 C 206.765625 440.742188 207.703125 441.066406 208.609375 441.480469 C 209.511719 441.894531 210.367188 442.394531 211.175781 442.980469 C 211.980469 443.5625 212.722656 444.21875 213.398438 444.949219 C 214.078125 445.679688 214.675781 446.46875 215.199219 447.316406 C 215.71875 448.164062 216.152344 449.054688 216.5 449.988281 C 216.847656 450.921875 217.097656 451.882812 217.253906 452.867188 C 217.414062 453.847656 217.472656 454.835938 217.433594 455.832031 C 217.398438 456.828125 217.261719 457.808594 217.03125 458.777344 C 216.800781 459.746094 216.476562 460.683594 216.0625 461.585938 C 215.648438 462.492188 215.148438 463.347656 214.5625 464.15625 C 213.980469 464.960938 213.324219 465.703125 212.59375 466.378906 C 211.863281 467.058594 211.074219 467.65625 210.226562 468.179688 C 209.375 468.699219 208.484375 469.132812 207.550781 469.480469 C 206.617188 469.824219 205.660156 470.078125 204.675781 470.234375 C 203.695312 470.390625 202.703125 470.453125 201.710938 470.414062 C 200.714844 470.375 199.734375 470.242188 198.765625 470.011719 C 197.796875 469.78125 196.859375 469.457031 195.953125 469.042969 C 195.050781 468.625 194.195312 468.128906 193.386719 467.542969 C 192.582031 466.960938 191.839844 466.300781 191.164062 465.570312 C 190.484375 464.84375 189.886719 464.054688 189.363281 463.203125 C 188.84375 462.355469 188.410156 461.464844 188.0625 460.53125 C 187.71875 459.597656 187.464844 458.640625 187.308594 457.65625 C 187.152344 456.675781 187.089844 455.683594 187.128906 454.691406 C 187.164062 453.695312 187.300781 452.714844 187.53125 451.746094 C 187.761719 450.777344 188.085938 449.839844 188.5 448.933594 C 188.914062 448.03125 189.414062 447.175781 190 446.367188 C 190.582031 445.5625 191.242188 444.820312 191.96875 444.140625 C 192.699219 443.464844 193.488281 442.867188 194.335938 442.34375 C 195.1875 441.824219 196.078125 441.390625 197.011719 441.042969 C 197.945312 440.695312 198.902344 440.445312 199.886719 440.289062 C 200.867188 440.128906 201.859375 440.070312 202.851562 440.109375 Z M 202.851562 440.109375 "/><path style=" stroke:none;fill-rule:nonzero;fill:#dad9d8;fill-opacity:1;" d="M 343.15625 420.335938 C 344.152344 420.371094 345.132812 420.507812 346.101562 420.738281 C 347.070312 420.96875 348.007812 421.289062 348.914062 421.707031 C 349.816406 422.121094 350.671875 422.621094 351.480469 423.207031 C 352.285156 423.789062 353.027344 424.445312 353.707031 425.175781 C 354.382812 425.90625 354.980469 426.695312 355.503906 427.542969 C 356.023438 428.390625 356.457031 429.28125 356.804688 430.214844 C 357.152344 431.148438 357.402344 432.109375 357.558594 433.089844 C 357.71875 434.074219 357.777344 435.0625 357.738281 436.058594 C 357.703125 437.054688 357.566406 438.035156 357.335938 439.003906 C 357.105469 439.972656 356.78125 440.910156 356.367188 441.8125 C 355.953125 442.71875 355.453125 443.574219 354.867188 444.382812 C 354.285156 445.1875 353.628906 445.929688 352.898438 446.605469 C 352.167969 447.285156 351.378906 447.882812 350.53125 448.40625 C 349.683594 448.925781 348.792969 449.359375 347.859375 449.707031 C 346.925781 450.050781 345.964844 450.304688 344.984375 450.460938 C 344 450.617188 343.011719 450.679688 342.015625 450.640625 C 341.019531 450.601562 340.039062 450.46875 339.070312 450.238281 C 338.101562 450.007812 337.164062 449.683594 336.261719 449.269531 C 335.355469 448.851562 334.5 448.355469 333.691406 447.769531 C 332.886719 447.1875 332.144531 446.527344 331.46875 445.796875 C 330.789062 445.070312 330.191406 444.28125 329.667969 443.429688 C 329.148438 442.582031 328.714844 441.691406 328.367188 440.757812 C 328.023438 439.824219 327.769531 438.867188 327.613281 437.882812 C 327.457031 436.898438 327.394531 435.910156 327.433594 434.917969 C 327.472656 433.921875 327.605469 432.941406 327.835938 431.972656 C 328.066406 431.003906 328.390625 430.066406 328.804688 429.160156 C 329.222656 428.257812 329.71875 427.398438 330.304688 426.59375 C 330.886719 425.789062 331.546875 425.046875 332.277344 424.367188 C 333.003906 423.691406 333.792969 423.09375 334.644531 422.570312 C 335.492188 422.050781 336.382812 421.617188 337.316406 421.269531 C 338.25 420.921875 339.207031 420.671875 340.191406 420.515625 C 341.171875 420.355469 342.164062 420.296875 343.15625 420.335938 Z M 343.15625 420.335938 "/><path style=" stroke:none;fill-rule:nonzero;fill:#dad9d8;fill-opacity:1;" d="M 491.917969 402.933594 C 492.910156 402.96875 493.894531 403.105469 494.863281 403.335938 C 495.832031 403.566406 496.765625 403.890625 497.671875 404.304688 C 498.578125 404.71875 499.433594 405.21875 500.238281 405.804688 C 501.046875 406.386719 501.785156 407.042969 502.464844 407.773438 C 503.140625 408.503906 503.738281 409.292969 504.261719 410.140625 C 504.785156 410.988281 505.21875 411.878906 505.5625 412.8125 C 505.910156 413.746094 506.160156 414.707031 506.320312 415.6875 C 506.476562 416.671875 506.535156 417.660156 506.5 418.65625 C 506.460938 419.652344 506.328125 420.632812 506.09375 421.601562 C 505.863281 422.570312 505.542969 423.507812 505.125 424.410156 C 504.710938 425.316406 504.210938 426.171875 503.628906 426.980469 C 503.042969 427.785156 502.386719 428.527344 501.65625 429.203125 C 500.925781 429.882812 500.136719 430.480469 499.289062 431.003906 C 498.441406 431.523438 497.550781 431.957031 496.617188 432.304688 C 495.683594 432.648438 494.722656 432.902344 493.742188 433.058594 C 492.757812 433.214844 491.769531 433.277344 490.773438 433.238281 C 489.777344 433.199219 488.796875 433.066406 487.828125 432.835938 C 486.859375 432.605469 485.921875 432.28125 485.019531 431.867188 C 484.113281 431.449219 483.257812 430.953125 482.453125 430.367188 C 481.644531 429.785156 480.902344 429.125 480.226562 428.394531 C 479.550781 427.667969 478.949219 426.878906 478.429688 426.027344 C 477.90625 425.179688 477.472656 424.289062 477.125 423.355469 C 476.78125 422.421875 476.527344 421.464844 476.371094 420.480469 C 476.214844 419.5 476.15625 418.507812 476.191406 417.515625 C 476.230469 416.519531 476.363281 415.539062 476.59375 414.570312 C 476.824219 413.601562 477.148438 412.664062 477.5625 411.757812 C 477.980469 410.855469 478.480469 410 479.0625 409.191406 C 479.648438 408.386719 480.304688 407.644531 481.035156 406.964844 C 481.765625 406.289062 482.554688 405.691406 483.402344 405.167969 C 484.25 404.648438 485.140625 404.214844 486.074219 403.867188 C 487.007812 403.519531 487.964844 403.269531 488.949219 403.113281 C 489.933594 402.953125 490.921875 402.894531 491.917969 402.933594 Z M 491.917969 402.933594 "/><path style=" stroke:none;fill-rule:nonzero;fill:#7ccedc;fill-opacity:1;" d="M 274.433594 394.605469 C 275.429688 394.644531 276.410156 394.777344 277.378906 395.007812 C 278.347656 395.238281 279.285156 395.5625 280.191406 395.980469 C 281.09375 396.394531 281.949219 396.894531 282.757812 397.476562 C 283.5625 398.0625 284.304688 398.71875 284.980469 399.449219 C 285.660156 400.179688 286.257812 400.96875 286.78125 401.816406 C 287.300781 402.664062 287.734375 403.554688 288.082031 404.488281 C 288.425781 405.421875 288.679688 406.378906 288.835938 407.363281 C 288.992188 408.347656 289.054688 409.335938 289.015625 410.332031 C 288.980469 411.324219 288.84375 412.308594 288.613281 413.277344 C 288.382812 414.246094 288.058594 415.179688 287.644531 416.085938 C 287.230469 416.992188 286.730469 417.847656 286.144531 418.652344 C 285.5625 419.460938 284.902344 420.203125 284.171875 420.878906 C 283.445312 421.554688 282.65625 422.15625 281.804688 422.675781 C 280.957031 423.199219 280.066406 423.632812 279.132812 423.976562 C 278.199219 424.324219 277.242188 424.574219 276.257812 424.734375 C 275.277344 424.890625 274.285156 424.949219 273.292969 424.914062 C 272.296875 424.875 271.316406 424.742188 270.347656 424.511719 C 269.378906 424.28125 268.441406 423.957031 267.535156 423.539062 C 266.632812 423.125 265.777344 422.625 264.96875 422.042969 C 264.164062 421.457031 263.421875 420.800781 262.742188 420.070312 C 262.066406 419.339844 261.46875 418.550781 260.945312 417.703125 C 260.425781 416.855469 259.992188 415.964844 259.644531 415.03125 C 259.296875 414.097656 259.046875 413.140625 258.890625 412.15625 C 258.730469 411.171875 258.671875 410.183594 258.710938 409.1875 C 258.746094 408.195312 258.882812 407.210938 259.113281 406.242188 C 259.34375 405.273438 259.667969 404.339844 260.082031 403.433594 C 260.496094 402.527344 260.996094 401.671875 261.582031 400.867188 C 262.164062 400.058594 262.820312 399.316406 263.550781 398.640625 C 264.28125 397.964844 265.070312 397.363281 265.917969 396.84375 C 266.765625 396.320312 267.65625 395.886719 268.589844 395.542969 C 269.523438 395.195312 270.484375 394.945312 271.46875 394.785156 C 272.449219 394.628906 273.4375 394.570312 274.433594 394.605469 Z M 274.433594 394.605469 "/><path style=" stroke:none;fill-rule:nonzero;fill:#7ccedc;fill-opacity:1;" d="M 447.539062 368 C 448.53125 368.039062 449.515625 368.171875 450.480469 368.402344 C 451.449219 368.632812 452.386719 368.957031 453.292969 369.371094 C 454.199219 369.789062 455.054688 370.289062 455.859375 370.871094 C 456.664062 371.457031 457.40625 372.113281 458.085938 372.84375 C 458.761719 373.574219 459.359375 374.363281 459.882812 375.210938 C 460.402344 376.058594 460.839844 376.949219 461.183594 377.882812 C 461.53125 378.816406 461.78125 379.773438 461.9375 380.757812 C 462.097656 381.742188 462.15625 382.730469 462.117188 383.722656 C 462.082031 384.71875 461.949219 385.703125 461.714844 386.667969 C 461.484375 387.636719 461.164062 388.574219 460.746094 389.480469 C 460.332031 390.386719 459.832031 391.242188 459.246094 392.046875 C 458.664062 392.851562 458.007812 393.59375 457.277344 394.273438 C 456.546875 394.949219 455.757812 395.546875 454.910156 396.070312 C 454.0625 396.589844 453.171875 397.027344 452.238281 397.371094 C 451.304688 397.71875 450.34375 397.96875 449.363281 398.125 C 448.378906 398.285156 447.390625 398.34375 446.394531 398.304688 C 445.398438 398.269531 444.417969 398.136719 443.449219 397.902344 C 442.480469 397.671875 441.542969 397.351562 440.640625 396.933594 C 439.734375 396.519531 438.878906 396.019531 438.070312 395.433594 C 437.265625 394.851562 436.523438 394.195312 435.847656 393.464844 C 435.171875 392.734375 434.570312 391.945312 434.050781 391.097656 C 433.527344 390.25 433.09375 389.359375 432.746094 388.425781 C 432.402344 387.492188 432.148438 386.53125 431.992188 385.550781 C 431.835938 384.566406 431.773438 383.578125 431.8125 382.582031 C 431.851562 381.585938 431.984375 380.605469 432.214844 379.636719 C 432.445312 378.667969 432.769531 377.730469 433.183594 376.828125 C 433.601562 375.921875 434.101562 375.066406 434.683594 374.257812 C 435.269531 373.453125 435.925781 372.710938 436.65625 372.035156 C 437.386719 371.355469 438.175781 370.757812 439.023438 370.238281 C 439.871094 369.714844 440.761719 369.28125 441.695312 368.933594 C 442.628906 368.589844 443.585938 368.335938 444.570312 368.179688 C 445.554688 368.023438 446.542969 367.960938 447.539062 368 Z M 447.539062 368 "/><path style=" stroke:none;fill-rule:nonzero;fill:#7ccedc;fill-opacity:1;" d="M 605.230469 346.113281 C 606.222656 346.152344 607.207031 346.285156 608.175781 346.519531 C 609.140625 346.75 610.078125 347.070312 610.984375 347.488281 C 611.890625 347.902344 612.746094 348.402344 613.550781 348.988281 C 614.355469 349.570312 615.097656 350.226562 615.777344 350.957031 C 616.453125 351.6875 617.050781 352.476562 617.574219 353.324219 C 618.09375 354.171875 618.53125 355.0625 618.875 355.996094 C 619.222656 356.929688 619.472656 357.890625 619.628906 358.871094 C 619.789062 359.855469 619.847656 360.84375 619.808594 361.839844 C 619.773438 362.835938 619.640625 363.816406 619.40625 364.785156 C 619.175781 365.753906 618.855469 366.691406 618.4375 367.59375 C 618.023438 368.5 617.523438 369.355469 616.9375 370.160156 C 616.355469 370.96875 615.699219 371.710938 614.96875 372.386719 C 614.238281 373.0625 613.449219 373.664062 612.601562 374.183594 C 611.753906 374.707031 610.863281 375.140625 609.929688 375.488281 C 608.996094 375.832031 608.035156 376.085938 607.054688 376.242188 C 606.070312 376.398438 605.082031 376.460938 604.085938 376.421875 C 603.089844 376.382812 602.109375 376.25 601.140625 376.019531 C 600.171875 375.789062 599.234375 375.464844 598.332031 375.050781 C 597.425781 374.632812 596.570312 374.132812 595.765625 373.550781 C 594.957031 372.964844 594.214844 372.308594 593.539062 371.578125 C 592.863281 370.847656 592.261719 370.058594 591.742188 369.210938 C 591.21875 368.363281 590.785156 367.472656 590.4375 366.539062 C 590.09375 365.605469 589.839844 364.648438 589.683594 363.664062 C 589.527344 362.679688 589.464844 361.691406 589.503906 360.695312 C 589.542969 359.703125 589.675781 358.71875 589.90625 357.75 C 590.136719 356.785156 590.460938 355.847656 590.875 354.941406 C 591.292969 354.035156 591.792969 353.179688 592.375 352.375 C 592.960938 351.566406 593.617188 350.828125 594.347656 350.148438 C 595.078125 349.472656 595.867188 348.875 596.714844 348.351562 C 597.5625 347.828125 598.453125 347.394531 599.386719 347.050781 C 600.320312 346.703125 601.277344 346.453125 602.261719 346.292969 C 603.246094 346.136719 604.234375 346.078125 605.230469 346.113281 Z M 605.230469 346.113281 "/><path style=" stroke:none;fill-rule:nonzero;fill:#f37c5a;fill-opacity:1;" d="M 556.636719 450.492188 L 595.8125 450.492188 L 595.8125 603.394531 L 556.636719 603.394531 Z M 556.636719 450.492188 "/><path style=" stroke:none;fill-rule:nonzero;fill:#464e58;fill-opacity:1;" d="M 507.988281 490.929688 L 547.160156 490.929688 L 547.160156 603.394531 L 507.988281 603.394531 Z M 507.988281 490.929688 "/><path style=" stroke:none;fill-rule:nonzero;fill:#464e58;fill-opacity:1;" d="M 312.121094 509.882812 L 351.292969 509.882812 L 351.292969 604.023438 L 312.121094 604.023438 Z M 312.121094 509.882812 "/><path style=" stroke:none;fill-rule:nonzero;fill:#464e58;fill-opacity:1;" d="M 410.054688 482.714844 L 449.226562 482.714844 L 449.226562 604.023438 L 410.054688 604.023438 Z M 410.054688 482.714844 "/><path style=" stroke:none;fill-rule:nonzero;fill:#f37c5a;fill-opacity:1;" d="M 360.773438 564.21875 L 399.945312 564.21875 L 399.945312 603.394531 L 360.773438 603.394531 Z M 360.773438 564.21875 "/><path style=" stroke:none;fill-rule:nonzero;fill:#f37c5a;fill-opacity:1;" d="M 458.707031 533.261719 L 497.878906 533.261719 L 497.878906 604.023438 L 458.707031 604.023438 Z M 458.707031 533.261719 "/><path style=" stroke:none;fill-rule:nonzero;fill:#f37c5a;fill-opacity:1;" d="M 263.472656 477.660156 L 302.644531 477.660156 L 302.644531 603.394531 L 263.472656 603.394531 Z M 263.472656 477.660156 "/><path style=" stroke:none;fill-rule:nonzero;fill:#464e58;fill-opacity:1;" d="M 214.1875 549.6875 L 253.363281 549.6875 L 253.363281 603.394531 L 214.1875 603.394531 Z M 214.1875 549.6875 "/><path style=" stroke:none;fill-rule:nonzero;fill:#dad9d8;fill-opacity:1;" d="M 187.652344 715.226562 L 605.289062 715.226562 L 605.289062 726.597656 L 187.652344 726.597656 Z M 187.652344 715.226562 "/><path style=" stroke:none;fill-rule:nonzero;fill:#dad9d8;fill-opacity:1;" d="M 187.652344 685.53125 L 605.289062 685.53125 L 605.289062 696.902344 L 187.652344 696.902344 Z M 187.652344 685.53125 "/><path style=" stroke:none;fill-rule:nonzero;fill:#7ccedc;fill-opacity:1;" d="M 187.652344 655.203125 L 343.714844 655.203125 L 343.714844 666.574219 L 187.652344 666.574219 Z M 187.652344 655.203125 "/></g></svg>