<svg xmlns="http://www.w3.org/2000/svg" xmlns:xlink="http://www.w3.org/1999/xlink" width="1080" zoomAndPan="magnify" viewBox="0 0 810 809.999993" height="1080" preserveAspectRatio="xMidYMid meet" version="1.2"><defs><clipPath id="d9f386d63e"><path d="M 55.6875 786 L 754.6875 786 L 754.6875 810 L 55.6875 810 Z M 55.6875 786 "/></clipPath></defs><g id="f45b8e9669"><rect x="0" width="810" y="0" height="809.999993" style="fill:#ffffff;fill-opacity:1;stroke:none;"/><rect x="0" width="810" y="0" height="809.999993" style="fill:#ffffff;fill-opacity:1;stroke:none;"/><path style=" stroke:none;fill-rule:nonzero;fill:#ffe177;fill-opacity:1;" d="M 676.179688 393.136719 L 588.480469 408.957031 L 494 393.136719 C 471.617188 393.136719 453.441406 374.992188 453.441406 352.59375 L 453.441406 237.105469 C 453.441406 214.710938 471.617188 196.566406 494 196.566406 L 576.609375 180.746094 L 676.179688 196.566406 C 698.589844 196.566406 716.742188 214.710938 716.742188 237.105469 L 716.742188 352.59375 C 716.742188 374.992188 698.589844 393.136719 676.179688 393.136719 Z M 676.179688 393.136719 "/><path style=" stroke:none;fill-rule:nonzero;fill:#ffd15b;fill-opacity:1;" d="M 679.347656 196.566406 L 576.609375 180.746094 L 548.390625 186.160156 L 616.03125 196.566406 C 638.441406 196.566406 656.59375 214.710938 656.59375 237.105469 L 656.59375 352.59375 C 656.59375 374.992188 638.441406 393.136719 616.03125 393.136719 L 556.203125 403.542969 L 588.480469 408.957031 L 679.347656 393.136719 C 701.753906 393.136719 719.910156 374.992188 719.910156 352.59375 L 719.910156 237.105469 C 719.910156 214.710938 701.753906 196.566406 679.347656 196.566406 Z M 679.347656 196.566406 "/><path style=" stroke:none;fill-rule:nonzero;fill:#8db9ff;fill-opacity:1;" d="M 674.597656 786.269531 L 588.480469 798.136719 L 494 786.269531 C 471.617188 786.269531 453.441406 768.125 453.441406 745.730469 L 453.441406 630.242188 C 453.441406 607.847656 471.617188 589.703125 494 589.703125 L 586.675781 573.882812 L 674.597656 589.703125 C 697.007812 589.703125 715.160156 607.847656 715.160156 630.242188 L 715.160156 745.730469 C 715.160156 768.125 697.007812 786.269531 674.597656 786.269531 Z M 674.597656 786.269531 "/><path style=" stroke:none;fill-rule:nonzero;fill:#70abf2;fill-opacity:1;" d="M 679.347656 589.703125 L 586.675781 573.882812 L 555.015625 579.296875 L 616.03125 589.703125 C 638.441406 589.703125 656.59375 607.847656 656.59375 630.242188 L 656.59375 745.730469 C 656.59375 768.125 638.441406 786.269531 616.03125 786.269531 L 640.914062 795.910156 L 679.347656 786.269531 C 701.753906 786.269531 719.910156 768.125 719.910156 745.730469 L 719.910156 630.242188 C 719.910156 607.847656 701.753906 589.703125 679.347656 589.703125 Z M 679.347656 589.703125 "/><path style=" stroke:none;fill-rule:nonzero;fill:#ff7e7b;fill-opacity:1;" d="M 676.179688 193.402344 L 619.199219 196.566406 L 494 196.566406 C 471.617188 196.566406 453.441406 178.421875 453.441406 156.027344 L 453.441406 40.539062 C 453.441406 18.144531 471.617188 0 494 0 L 619.199219 0 L 676.179688 3.164062 C 698.589844 3.164062 716.742188 21.308594 716.742188 43.703125 L 716.742188 152.863281 C 716.742188 175.257812 698.589844 193.402344 676.179688 193.402344 Z M 676.179688 193.402344 "/><path style=" stroke:none;fill-rule:nonzero;fill:#ff6464;fill-opacity:1;" d="M 679.347656 0 L 616.03125 0 C 638.441406 0 656.59375 18.144531 656.59375 40.539062 L 656.59375 156.027344 C 656.59375 178.421875 638.441406 196.566406 616.03125 196.566406 L 679.347656 196.566406 C 701.753906 196.566406 719.910156 178.421875 719.910156 156.027344 L 719.910156 40.539062 C 719.910156 18.144531 701.753906 0 679.347656 0 Z M 679.347656 0 "/><path style=" stroke:none;fill-rule:nonzero;fill:#c9ef6c;fill-opacity:1;" d="M 676.179688 586.539062 L 619.199219 589.703125 L 494 589.703125 C 471.617188 589.703125 453.441406 571.558594 453.441406 549.164062 L 453.441406 433.675781 C 453.441406 411.277344 471.617188 393.136719 494 393.136719 L 619.199219 393.136719 L 676.179688 396.300781 C 698.589844 396.300781 716.742188 414.441406 716.742188 436.839844 L 716.742188 546 C 716.742188 568.394531 698.589844 586.539062 676.179688 586.539062 Z M 676.179688 586.539062 "/><path style=" stroke:none;fill-rule:nonzero;fill:#b7e261;fill-opacity:1;" d="M 679.347656 393.136719 L 616.03125 393.136719 C 638.441406 393.136719 656.59375 411.277344 656.59375 433.675781 L 656.59375 549.164062 C 656.59375 571.558594 638.441406 589.703125 616.03125 589.703125 L 679.347656 589.703125 C 701.753906 589.703125 719.910156 571.558594 719.910156 549.164062 L 719.910156 433.675781 C 719.910156 411.277344 701.753906 393.136719 679.347656 393.136719 Z M 679.347656 393.136719 "/><path style=" stroke:none;fill-rule:nonzero;fill:#f5f8f9;fill-opacity:1;" d="M 575.199219 685.664062 L 623.105469 641.660156 C 627.929688 637.238281 628.25 629.722656 623.824219 624.902344 C 619.371094 620.082031 611.878906 619.761719 607.054688 624.183594 L 566.148438 661.757812 L 566.148438 631.503906 C 566.148438 624.953125 560.828125 619.636719 554.273438 619.636719 C 547.722656 619.636719 542.402344 624.953125 542.402344 631.503906 L 542.402344 744.46875 C 542.402344 751.019531 547.722656 756.335938 554.273438 756.335938 C 560.828125 756.335938 566.148438 751.019531 566.148438 744.46875 L 566.148438 709.910156 L 610.839844 753.023438 C 613.136719 755.222656 616.132812 756.335938 619.097656 756.335938 C 622.191406 756.335938 625.308594 755.125 627.632812 752.699219 C 632.183594 748.003906 632.058594 740.488281 627.335938 735.941406 Z M 575.199219 685.664062 "/><path style=" stroke:none;fill-rule:nonzero;fill:#f5f8f9;fill-opacity:1;" d="M 576.609375 238.441406 L 576.609375 351.410156 C 576.609375 357.960938 581.925781 363.273438 588.480469 363.273438 C 595.035156 363.273438 600.351562 357.960938 600.351562 351.410156 L 600.351562 238.441406 C 600.351562 231.890625 595.035156 226.578125 588.480469 226.578125 C 581.925781 226.578125 576.609375 231.890625 576.609375 238.441406 Z M 576.609375 238.441406 "/><path style=" stroke:none;fill-rule:nonzero;fill:#f5f8f9;fill-opacity:1;" d="M 605.25 481.085938 L 603.566406 480.492188 C 588.035156 475.226562 580.960938 472.804688 574.902344 468.972656 C 571.636719 466.898438 570.03125 463.1875 570.574219 459.109375 C 570.921875 456.636719 572.625 450.632812 581.109375 448.0625 C 598.25 442.917969 613.90625 455.351562 614.300781 455.675781 C 619.320312 459.851562 626.765625 459.183594 630.96875 454.191406 C 635.199219 449.171875 634.558594 441.683594 629.535156 437.457031 C 628.496094 436.589844 603.988281 416.394531 574.257812 425.34375 C 559.46875 429.792969 549.03125 441.511719 547.054688 455.871094 C 545.222656 469.21875 551.011719 481.902344 562.1875 488.996094 C 570.625 494.359375 579.058594 497.226562 595.898438 502.960938 L 597.605469 503.53125 C 608.414062 507.238281 613.929688 513.566406 612.71875 520.910156 C 611.507812 528.25 603.691406 536.035156 591.621094 536.035156 C 579.75 536.035156 568.324219 531.242188 561.027344 523.183594 C 556.625 518.335938 549.105469 517.96875 544.257812 522.367188 C 539.386719 526.765625 539.015625 534.28125 543.417969 539.125 C 555.140625 552.054688 573.171875 559.765625 591.621094 559.765625 C 614.054688 559.765625 632.777344 545.058594 636.140625 524.789062 C 638.539062 510.304688 631.886719 490.15625 605.25 481.085938 Z M 605.25 481.085938 "/><path style=" stroke:none;fill-rule:nonzero;fill:#f5f8f9;fill-opacity:1;" d="M 556.15625 166.632812 C 562.707031 166.632812 568.027344 161.316406 568.027344 154.765625 L 568.027344 116.722656 L 608.265625 162.601562 C 610.617188 165.273438 613.90625 166.632812 617.195312 166.632812 C 619.988281 166.632812 622.785156 165.667969 625.035156 163.691406 C 629.957031 159.363281 630.449219 151.875 626.121094 146.957031 L 595.109375 111.605469 C 614.5 107.628906 629.066406 91.015625 629.066406 71.167969 C 629.066406 48.425781 609.824219 29.933594 586.15625 29.933594 L 556.15625 29.933594 C 549.601562 29.933594 544.28125 35.25 544.28125 41.800781 L 544.28125 154.765625 C 544.28125 161.316406 549.601562 166.632812 556.15625 166.632812 Z M 568.027344 53.664062 L 586.15625 53.664062 C 596.542969 53.664062 605.324219 61.675781 605.324219 71.167969 C 605.324219 80.734375 596.542969 88.792969 586.15625 88.792969 L 568.027344 88.792969 Z M 568.027344 53.664062 "/><path style=" stroke:none;fill-rule:nonzero;fill:#5e6577;fill-opacity:1;" d="M 162.289062 24.25 C 162.289062 11.171875 151.679688 0.570312 138.570312 0.570312 C 125.488281 0.570312 114.878906 11.171875 114.878906 24.25 L 114.878906 798.136719 L 162.289062 798.136719 L 162.289062 353.089844 L 182.621094 310.226562 L 162.289062 252.40625 Z M 162.289062 24.25 "/><g clip-rule="nonzero" clip-path="url(#d9f386d63e)"><path style=" stroke:none;fill-rule:nonzero;fill:#73788c;fill-opacity:1;" d="M 742.664062 810 L 67.710938 810 C 61.132812 810 55.839844 804.683594 55.839844 798.136719 C 55.839844 791.585938 61.132812 786.269531 67.710938 786.269531 L 742.664062 786.269531 C 749.214844 786.269531 754.535156 791.585938 754.535156 798.136719 C 754.535156 804.683594 749.214844 810 742.664062 810 Z M 742.664062 810 "/></g><path style=" stroke:none;fill-rule:nonzero;fill:#73788c;fill-opacity:1;" d="M 510.671875 287.707031 L 329.457031 165.148438 C 314.246094 154.941406 293.816406 165.839844 293.816406 184.160156 L 290.652344 196.445312 L 290.652344 210.460938 C 290.652344 214.835938 287.113281 218.371094 282.738281 218.371094 L 95.460938 218.371094 C 89.054688 218.371094 83.839844 223.5625 83.839844 229.988281 L 83.839844 263.753906 C 83.839844 270.15625 89.054688 275.347656 95.460938 275.347656 L 159.125 275.347656 C 160.878906 275.347656 162.289062 276.757812 162.289062 278.511719 L 162.289062 334.921875 C 162.289062 336.675781 160.878906 338.085938 159.125 338.085938 L 95.460938 338.085938 C 89.054688 338.085938 83.839844 343.277344 83.839844 349.679688 L 83.839844 383.445312 C 83.839844 389.871094 89.054688 395.0625 95.460938 395.0625 L 282.738281 395.0625 C 287.113281 395.0625 290.652344 398.597656 290.652344 402.972656 L 290.652344 429.273438 C 290.652344 447.589844 311.082031 458.492188 326.289062 448.285156 L 510.671875 325.726562 C 524.175781 316.652344 524.175781 296.777344 510.671875 287.707031 Z M 510.671875 287.707031 "/><path style=" stroke:none;fill-rule:nonzero;fill:#5e6577;fill-opacity:1;" d="M 513.835938 287.707031 L 326.289062 161.984375 C 311.082031 151.777344 290.652344 162.675781 290.652344 180.996094 L 290.652344 196.445312 L 391.140625 263.828125 C 421.660156 284.296875 421.660156 329.136719 391.140625 349.605469 L 290.652344 416.988281 L 290.652344 432.4375 C 290.652344 450.753906 311.082031 461.65625 326.289062 451.449219 L 513.835938 325.726562 C 527.339844 316.652344 527.339844 296.777344 513.835938 287.707031 Z M 513.835938 287.707031 "/></g></svg>