<svg xmlns="http://www.w3.org/2000/svg" xmlns:xlink="http://www.w3.org/1999/xlink" width="1080" zoomAndPan="magnify" viewBox="0 0 810 809.999993" height="1080" preserveAspectRatio="xMidYMid meet" version="1.2"><g id="c0bc51c24d"><path style=" stroke:none;fill-rule:nonzero;fill:#f5f6f7;fill-opacity:1;" d="M 776.105469 792.300781 C 776.105469 792.300781 774.800781 789.976562 767.761719 784.417969 C 760.71875 778.855469 705.933594 751.527344 705.933594 751.527344 L 700.625 724.476562 L 716.15625 721.449219 L 695.855469 567.441406 C 695.855469 567.441406 689.722656 516.921875 682.757812 505.660156 L 737.492188 505.660156 C 739.597656 505.660156 741.304688 503.953125 741.304688 501.851562 L 741.304688 380.625 C 741.304688 378.519531 739.597656 376.816406 737.492188 376.816406 L 607.574219 376.816406 L 596.917969 315.785156 C 596.917969 315.785156 590.550781 282.066406 581.0625 261.589844 C 571.574219 241.113281 551.160156 233.710938 532 226.300781 C 523.621094 223.570312 522.804688 223.304688 522.746094 223.285156 L 522.21875 201.617188 C 522.21875 201.617188 531.238281 203.34375 536.121094 202.03125 C 541.003906 200.71875 544.660156 203.21875 549.023438 191.097656 C 553.390625 178.980469 554.867188 176.839844 554.867188 176.839844 C 554.867188 176.839844 561.503906 175.359375 561.65625 171.746094 C 561.8125 168.132812 555.882812 159.351562 555.882812 159.351562 C 555.882812 159.351562 557.085938 139.292969 554.867188 133.742188 C 545.132812 133.527344 520.304688 133 520.304688 133 C 520.304688 133 518.53125 120.445312 514.40625 118.308594 C 514.15625 129.234375 514.144531 141.6875 508.082031 150.628906 C 503.519531 155.96875 499.894531 152.875 498.546875 151.925781 C 497.195312 150.972656 491.777344 145.089844 481.441406 151.0625 C 476.328125 154.015625 473.183594 165.960938 481.441406 172.078125 C 489.699219 178.191406 496.160156 175.339844 496.160156 175.339844 L 495.386719 201.363281 L 480.449219 201.699219 L 480.449219 221.890625 C 480.449219 221.890625 462.835938 226.851562 444.160156 235.554688 C 437.71875 238.558594 420.640625 250.507812 417.011719 259.351562 C 414.484375 264.289062 411.476562 289.921875 411.375 291.21875 C 411.273438 292.511719 409.851562 325.15625 409.851562 325.15625 L 409.851562 363.796875 L 410.511719 395.925781 L 412.136719 435.769531 L 424.800781 436.136719 C 424.800781 436.136719 426.597656 459.6875 429.378906 469.796875 C 432.160156 479.910156 434.082031 491.613281 441.671875 498.292969 C 449.261719 504.96875 454.054688 507.953125 454.054688 507.953125 L 372.691406 507.953125 C 378.769531 507.953125 383.695312 503.027344 383.695312 496.953125 L 383.695312 451.386719 C 383.695312 450.675781 383.117188 450.097656 382.402344 450.097656 L 339.710938 450.097656 C 338.996094 450.097656 338.417969 450.675781 338.417969 451.386719 L 338.417969 456.164062 L 328.550781 456.164062 C 319.339844 456.164062 311.847656 465.285156 311.847656 476.5 C 311.847656 487.714844 319.339844 496.839844 328.550781 496.839844 L 338.417969 496.839844 L 338.417969 496.953125 C 338.417969 503.027344 343.34375 507.953125 349.421875 507.953125 L 192.839844 507.953125 C 192.839844 507.953125 185.550781 507.203125 182.753906 508.832031 C 179.957031 510.460938 175.003906 513.109375 175.910156 522.949219 C 178.117188 530.984375 185.828125 531.984375 190.539062 531.984375 C 195.246094 531.984375 198.789062 531.984375 198.789062 531.984375 L 198.789062 620.875 L 190.4375 621.382812 C 190.4375 621.382812 183.320312 619.351562 177.863281 625.523438 C 172.410156 631.695312 176.984375 642.726562 183.710938 643.867188 C 171.421875 646.511719 160.242188 649.230469 156.585938 652.816406 C 152.929688 656.40625 139.507812 665.332031 133.199219 694.164062 C 126.890625 722.996094 131.433594 758.132812 135.832031 769.0625 C 140.230469 779.996094 149.722656 805.117188 181.421875 808.957031 C 209.066406 808.957031 447.332031 808.957031 447.332031 808.957031 L 767.929688 808.957031 C 767.929688 808.957031 777.050781 809.40625 776.625 801.234375 C 776.203125 793.0625 776.105469 792.300781 776.105469 792.300781 Z M 338.417969 491.132812 L 328.550781 491.132812 C 322.488281 491.132812 317.558594 484.566406 317.558594 476.5 C 317.558594 468.433594 322.488281 461.867188 328.550781 461.867188 L 338.417969 461.867188 Z M 677.328125 284 L 677.328125 320.894531 L 697.457031 287.589844 C 729.488281 287.589844 755.453125 261.636719 755.453125 229.625 C 755.453125 210.261719 745.957031 193.117188 731.363281 182.589844 L 719.550781 176.007812 C 717.992188 175.367188 716.402344 174.792969 714.785156 174.285156 C 709.3125 172.578125 703.492188 171.65625 697.457031 171.65625 C 665.429688 171.65625 639.464844 197.609375 639.464844 229.625 C 639.464844 254.5625 655.222656 275.820312 677.328125 284 Z M 738.429688 167.386719 C 740.175781 163.230469 737.65625 161.050781 737.65625 161.050781 C 737.65625 161.050781 734.804688 159.496094 731.710938 158.921875 C 728.621094 158.347656 727.71875 160.902344 727.578125 161.050781 C 727.433594 161.199219 721.910156 171.65625 721.910156 171.65625 L 734.09375 177.214844 C 734.09375 177.214844 736.679688 171.542969 738.429688 167.386719 Z M 321.832031 301.371094 L 321.832031 51.796875 L 373.714844 51.796875 L 373.714844 26.839844 C 373.714844 26.839844 373.445312 14.289062 363.367188 7.191406 C 353.289062 0.0976562 338.117188 1.941406 338.117188 1.941406 L 128.03125 1.941406 C 128.03125 1.941406 113.824219 1.753906 106.460938 13.3125 C 102.851562 17.664062 101.890625 23.671875 101.890625 31.179688 C 101.890625 38.6875 101.890625 121.429688 101.890625 121.429688 L 101.890625 274.042969 L 50.222656 274.042969 C 50.222656 274.042969 50.222656 298.9375 50.222656 303.429688 C 50.222656 307.921875 53.808594 327.5 75.75 327.5 L 295.691406 327.5 C 310.128906 327.5 321.832031 315.804688 321.832031 301.371094 Z M 53.324219 77.023438 C 53.324219 77.023438 51.226562 73.6875 45.414062 74.984375 C 39.605469 76.28125 33.195312 82.386719 33.894531 88.695312 C 34.597656 95 48.199219 108.824219 48.199219 108.824219 L 66.644531 94.25 Z M 53.324219 77.023438 "/><path style=" stroke:none;fill-rule:nonzero;fill:#01c892;fill-opacity:1;" d="M 361.882812 324.332031 C 361.578125 326.824219 361.089844 329.261719 360.429688 331.628906 L 370.558594 335.875 L 365.792969 347.238281 L 355.664062 342.992188 C 354.496094 345.027344 353.191406 346.96875 351.757812 348.808594 L 359.523438 356.570312 L 350.808594 365.28125 L 343.054688 357.53125 C 341.097656 359.058594 339.027344 360.445312 336.855469 361.675781 L 341 371.804688 L 329.59375 376.46875 L 325.457031 366.363281 C 323.214844 366.972656 320.910156 367.421875 318.554688 367.714844 L 318.554688 378.636719 L 306.226562 378.636719 L 306.226562 367.714844 C 303.726562 367.40625 301.28125 366.910156 298.90625 366.242188 L 294.679688 376.316406 L 283.3125 371.550781 L 287.546875 361.457031 C 285.515625 360.28125 283.570312 358.96875 281.730469 357.53125 L 273.976562 365.28125 L 265.261719 356.570312 L 273.027344 348.808594 C 271.503906 346.851562 270.121094 344.78125 268.898438 342.609375 L 258.734375 346.765625 L 254.070312 335.363281 L 264.234375 331.207031 C 263.917969 330.03125 263.652344 328.839844 263.421875 327.632812 L 278.410156 327.632812 C 282.535156 342.539062 296.1875 353.527344 312.390625 353.527344 C 331.847656 353.527344 347.675781 337.707031 347.675781 318.257812 C 347.675781 302.125 336.769531 288.519531 321.945312 284.339844 L 321.945312 269.359375 C 323.253906 269.609375 324.542969 269.902344 325.8125 270.257812 L 330.101562 260.027344 L 341.46875 264.792969 L 337.175781 275.027344 C 339.195312 276.1875 341.125 277.484375 342.957031 278.910156 L 350.808594 271.058594 L 359.523438 279.773438 L 351.679688 287.609375 C 353.203125 289.550781 354.578125 291.609375 355.804688 293.765625 L 366.046875 289.574219 L 370.714844 300.980469 L 360.503906 305.15625 C 361.113281 307.382812 361.566406 309.671875 361.859375 312.011719 L 372.886719 312.011719 L 372.886719 324.332031 Z M 532.757812 691.503906 L 510.222656 678.890625 L 487.6875 691.503906 L 487.6875 588.191406 L 532.757812 588.191406 Z M 171.304688 242.773438 L 169.394531 250.324219 L 161.621094 250.054688 L 159.839844 257.765625 L 48.199219 108.824219 L 67.582031 94.253906 L 179.097656 243.027344 Z M 480.449219 221.890625 L 469.058594 225.390625 C 469.058594 225.390625 475.445312 240.195312 483.773438 247.785156 C 492.101562 255.378906 508.546875 263.40625 513.996094 243.625 C 520.648438 253.125 525.472656 255.019531 532 252.496094 C 538.523438 249.972656 532 226.300781 532 226.300781 L 523.269531 223.8125 C 523.269531 223.8125 524.101562 238 511.03125 238.957031 C 497.960938 239.910156 480.449219 221.890625 480.449219 221.890625 Z M 721.910156 171.65625 L 719.550781 176.007812 L 731.710938 181.867188 L 734.09375 176.8125 Z M 645.15625 78.527344 L 648.886719 95.40625 C 649.734375 99.234375 652.003906 102.226562 654.90625 103.339844 L 667.710938 108.261719 L 654.90625 113.179688 C 652.003906 114.292969 649.734375 117.285156 648.886719 121.113281 L 645.15625 137.992188 L 641.425781 121.113281 C 640.578125 117.285156 638.308594 114.292969 635.40625 113.179688 L 622.601562 108.261719 L 635.40625 103.339844 C 638.308594 102.226562 640.578125 99.234375 641.425781 95.40625 Z M 460.179688 727.890625 L 294.199219 726.589844 L 375.523438 755.175781 Z M 460.179688 727.890625 "/><path style=" stroke:none;fill-rule:nonzero;fill:#0a0147;fill-opacity:1;" d="M 777.804688 801.234375 C 777.804688 801.210938 777.792969 801.1875 777.789062 801.164062 C 777.828125 797.933594 777.664062 794.890625 777.269531 792.132812 C 776.070312 783.734375 720.253906 756.769531 707.609375 750.761719 L 702.53125 725.398438 L 716.386719 722.601562 C 716.988281 722.480469 717.394531 721.917969 717.324219 721.3125 C 716.402344 713.402344 695.183594 532.167969 685.128906 506.835938 L 737.496094 506.835938 C 740.242188 506.835938 742.480469 504.601562 742.480469 501.851562 L 742.480469 380.621094 C 742.480469 377.875 740.242188 375.636719 737.496094 375.636719 L 608.527344 375.636719 C 607.992188 373.089844 606.496094 365.574219 605.433594 357.074219 C 605.019531 354.101562 595.121094 284.046875 579.691406 256.257812 C 567.570312 234.421875 530.6875 224.4375 524.40625 222.875 L 523.460938 203.375 C 525.15625 203.570312 528.03125 203.839844 531.175781 203.839844 C 536.199219 203.839844 541.859375 203.152344 544.253906 200.371094 C 549.125 194.726562 552.511719 187.722656 554.601562 178.972656 C 556.734375 178.1875 562.902344 175.574219 562.835938 171.726562 C 562.773438 168.125 558.21875 161.191406 557.058594 159.480469 C 557.472656 143.964844 557.007812 140.429688 556.222656 134.9375 L 562.378906 135.070312 C 562.71875 135.070312 563.015625 134.949219 563.246094 134.714844 C 563.472656 134.484375 563.59375 134.167969 563.582031 133.84375 C 563.558594 133.394531 563.042969 122.6875 557.433594 110.800781 C 549.632812 94.273438 526.230469 87.691406 506.542969 88.527344 C 464.476562 90.285156 453.867188 105.253906 445.074219 146.539062 C 438.769531 176.164062 448.570312 193.25 448.988281 193.964844 C 449.117188 194.179688 449.308594 194.347656 449.539062 194.445312 C 460.621094 199.226562 471.109375 201.324219 479.273438 202.199219 L 479.273438 220.984375 C 472.511719 222.8125 431.398438 234.679688 417.347656 256.183594 C 402.53125 278.867188 410.632812 429.785156 410.984375 436.199219 C 411.015625 436.824219 411.53125 437.3125 412.15625 437.3125 L 424.332031 437.3125 C 424.460938 444.847656 425.957031 485.429688 443.488281 501.953125 C 445.121094 503.492188 447.296875 505.109375 449.878906 506.773438 L 379.824219 506.773438 C 382.867188 504.558594 384.871094 500.996094 384.871094 496.953125 L 384.871094 451.386719 C 384.871094 450.027344 383.765625 448.917969 382.402344 448.917969 L 339.710938 448.917969 C 338.347656 448.917969 337.238281 450.027344 337.238281 451.386719 L 337.238281 454.984375 L 328.550781 454.984375 C 318.691406 454.984375 310.671875 464.636719 310.671875 476.5 C 310.671875 488.363281 318.691406 498.011719 328.550781 498.011719 L 337.285156 498.011719 C 337.597656 501.625 339.527344 504.753906 342.308594 506.773438 L 187.222656 506.773438 C 180.085938 506.773438 174.277344 512.578125 174.277344 519.710938 C 174.277344 526.847656 180.085938 532.652344 187.222656 532.652344 L 197.613281 532.652344 L 197.613281 619.699219 L 187.222656 619.699219 C 180.085938 619.699219 174.277344 625.503906 174.277344 632.636719 C 174.277344 637.28125 176.746094 641.351562 180.433594 643.632812 C 138.144531 648.105469 128.957031 690.652344 128.957031 726.679688 C 128.957031 764.75 139.191406 810.132812 187.9375 810.132812 L 769.132812 810.132812 C 773.824219 810.132812 777.710938 806.308594 777.796875 801.605469 C 777.800781 801.496094 777.789062 801.402344 777.792969 801.296875 C 777.792969 801.273438 777.804688 801.257812 777.804688 801.234375 Z M 151.742188 726.679688 C 151.742188 691.742188 153.863281 666.011719 178.851562 661.253906 L 178.851562 792.105469 C 153.863281 787.347656 151.742188 761.617188 151.742188 726.679688 Z M 181.207031 792.207031 L 181.207031 727.765625 L 292.007812 727.765625 L 292 727.789062 L 374.328125 756.285156 C 374.453125 756.328125 374.582031 756.351562 374.710938 756.351562 C 374.832031 756.351562 374.953125 756.332031 375.070312 756.292969 L 464.609375 727.710938 C 465.164062 727.535156 465.503906 726.984375 465.414062 726.410156 C 465.324219 725.835938 464.832031 725.414062 464.253906 725.414062 L 181.207031 725.414062 L 181.207031 683.070312 L 386.515625 683.070312 L 386.515625 680.71875 L 181.207031 680.71875 L 181.207031 660.976562 L 180.574219 660.976562 C 182.851562 660.640625 185.289062 660.453125 187.9375 660.453125 L 486.511719 660.453125 L 486.511719 693.511719 L 510.222656 680.238281 L 533.933594 693.507812 L 533.933594 660.449219 L 578.066406 660.449219 L 596.769531 745.5625 C 596.886719 746.109375 597.375 746.484375 597.914062 746.484375 C 597.992188 746.484375 598.070312 746.476562 598.148438 746.460938 L 618.902344 742.273438 L 621.289062 757.796875 L 621.289062 769.074219 L 216.667969 769.074219 L 216.667969 771.425781 L 621.289062 771.425781 L 621.289062 792.90625 L 187.9375 792.90625 C 184.816406 792.90625 181.960938 792.667969 179.351562 792.207031 Z M 299.128906 727.765625 L 456.699219 727.765625 L 374.726562 753.933594 Z M 574.28125 643.226562 L 533.933594 643.226562 L 533.933594 622.050781 L 569.628906 622.050781 Z M 533.933594 645.578125 L 574.796875 645.578125 L 577.550781 658.097656 L 533.933594 658.097656 Z M 488.863281 589.367188 L 531.582031 589.367188 L 531.582031 689.5 L 510.222656 677.542969 L 488.863281 689.496094 Z M 665.816406 732.808594 L 669.617188 751.800781 C 669.691406 752.164062 669.929688 752.472656 670.265625 752.632812 C 677.34375 755.988281 685.5625 760.027344 693.808594 764.25 L 673.035156 784.886719 L 623.636719 784.886719 L 623.628906 757.621094 L 621.210938 741.808594 Z M 705.417969 751.800781 C 705.492188 752.164062 705.730469 752.472656 706.066406 752.632812 C 713.144531 755.988281 721.363281 760.027344 729.605469 764.246094 L 718.828125 774.957031 C 701.445312 764.996094 679.21875 754.28125 671.808594 750.761719 L 668.121094 732.339844 L 700.226562 725.863281 Z M 740.125 380.625 L 740.125 501.851562 C 740.125 503.304688 738.945312 504.484375 737.492188 504.484375 L 586.402344 504.484375 C 584.953125 504.484375 583.773438 503.300781 583.773438 501.851562 L 583.773438 380.625 C 583.773438 379.171875 584.953125 377.992188 586.402344 377.992188 L 737.492188 377.992188 C 738.945312 377.992188 740.125 379.171875 740.125 380.625 Z M 456.261719 407.496094 C 450.65625 393.964844 441.15625 345.625 439.511719 337.152344 L 484.367188 332.839844 L 494.914062 379.277344 C 495.65625 382.542969 497.78125 385.285156 500.746094 386.792969 C 523.949219 398.59375 544.355469 406.59375 556.722656 408.738281 C 564.457031 410.082031 570.96875 409.914062 577.265625 409.75 C 578.667969 409.714844 580.042969 409.6875 581.417969 409.667969 L 581.417969 445.410156 C 580.074219 444.351562 578.996094 443.511719 577.9375 442.742188 C 577.695312 442.558594 577.382812 442.484375 577.085938 442.527344 C 576.933594 442.542969 561.703125 444.527344 552.160156 438.023438 C 551.992188 437.90625 551.792969 437.839844 551.589844 437.824219 C 550.734375 437.753906 465.917969 430.816406 456.261719 407.496094 Z M 581.871094 503.898438 L 497.484375 456.195312 C 496.183594 455.457031 495.984375 454.179688 496.234375 453.234375 C 496.484375 452.285156 497.285156 451.273438 498.78125 451.273438 L 581.417969 451.273438 L 581.417969 501.851562 C 581.417969 502.582031 581.585938 503.269531 581.871094 503.898438 Z M 606.121094 375.636719 L 586.402344 375.636719 C 583.65625 375.636719 581.417969 377.875 581.417969 380.625 L 581.417969 407.316406 C 580.023438 407.335938 578.628906 407.363281 577.203125 407.398438 C 573.800781 407.488281 570.332031 407.566406 566.652344 407.414062 L 566.652344 332.761719 L 598.367188 329.203125 C 601.371094 345.144531 603.058594 357.09375 603.101562 357.378906 C 604.109375 365.472656 605.515625 372.683594 606.121094 375.636719 Z M 508.976562 250.558594 C 506.894531 253.085938 503.558594 254.324219 498.824219 254.246094 C 484.539062 253.996094 473.199219 231.519531 470.671875 226.105469 C 475.40625 224.515625 478.902344 223.527344 480.195312 223.175781 C 483.425781 225.605469 501.707031 239.0625 511.273438 239.992188 C 511.53125 241.972656 511.847656 247.074219 508.976562 250.558594 Z M 524.265625 225.273438 C 525.6875 225.644531 528.234375 226.347656 531.472656 227.386719 C 532.371094 230.308594 536.316406 244.089844 532.851562 249.917969 C 532.078125 251.214844 530.996094 251.972656 529.542969 252.234375 C 519.222656 254.101562 514.996094 243.722656 513.816406 239.960938 C 521.441406 238.796875 523.691406 228.953125 524.265625 225.273438 Z M 489.625 202.777344 C 493.300781 202.777344 495.457031 202.539062 495.523438 202.53125 C 496.117188 202.460938 496.5625 201.957031 496.5625 201.363281 L 496.5625 175.4375 C 496.5625 175.101562 496.417969 174.78125 496.167969 174.558594 C 495.917969 174.335938 495.585938 174.230469 495.246094 174.269531 C 486.097656 175.375 480.550781 170.972656 478.429688 166.484375 C 476.234375 161.859375 477.160156 156.628906 480.777344 153.167969 C 488.816406 145.460938 497.421875 152.515625 497.804688 152.839844 C 501.4375 155.769531 504.300781 155.171875 506.0625 154.15625 C 513.238281 150.007812 515.792969 131.425781 515.691406 121.136719 C 518.050781 126.234375 519.128906 133.089844 519.140625 133.175781 C 519.230469 133.742188 519.710938 134.164062 520.28125 134.175781 L 553.839844 134.886719 L 553.863281 135.066406 C 554.652344 140.605469 555.128906 143.945312 554.695312 159.796875 C 554.691406 159.84375 554.714844 159.882812 554.71875 159.929688 C 554.722656 160.007812 554.734375 160.082031 554.757812 160.160156 C 554.78125 160.238281 554.8125 160.308594 554.851562 160.382812 C 554.875 160.421875 554.878906 160.460938 554.902344 160.5 C 556.4375 162.71875 560.433594 169.066406 560.480469 171.765625 C 560.515625 173.683594 556.265625 175.957031 553.234375 176.964844 C 552.84375 177.09375 552.550781 177.414062 552.457031 177.816406 C 550.464844 186.476562 547.199219 193.351562 542.472656 198.835938 C 539.378906 202.421875 526.921875 201.519531 522.386719 200.867188 C 522.355469 200.863281 522.324219 200.875 522.292969 200.871094 C 522.246094 200.871094 522.210938 200.851562 522.160156 200.855469 C 522.121094 200.859375 522.085938 200.878906 522.046875 200.886719 C 521.964844 200.898438 521.890625 200.917969 521.816406 200.945312 C 521.746094 200.972656 521.679688 201 521.617188 201.039062 C 521.550781 201.078125 521.496094 201.121094 521.4375 201.175781 C 521.382812 201.222656 521.335938 201.277344 521.289062 201.335938 C 521.246094 201.398438 521.207031 201.460938 521.171875 201.53125 C 521.140625 201.597656 521.117188 201.667969 521.097656 201.742188 C 521.085938 201.785156 521.058594 201.820312 521.054688 201.863281 C 521.046875 201.90625 521.0625 201.941406 521.0625 201.984375 C 521.058594 202.019531 521.042969 202.050781 521.042969 202.089844 L 522.09375 223.769531 C 522.019531 224.5 520.527344 237.730469 512.292969 237.730469 C 503.890625 237.730469 484.722656 223.621094 481.625 221.304688 L 481.625 202.425781 C 484.738281 202.6875 487.453125 202.777344 489.625 202.777344 Z M 419.320312 257.472656 C 429.117188 242.476562 453.496094 232.078125 468.429688 226.871094 C 470.882812 232.257812 482.738281 256.316406 498.785156 256.597656 C 498.941406 256.601562 499.097656 256.601562 499.253906 256.601562 C 504.429688 256.601562 508.316406 255.070312 510.804688 252.042969 C 512.476562 250.007812 513.261719 247.597656 513.589844 245.386719 C 516.214844 250.3125 521.234375 256.117188 529.960938 254.546875 C 532.097656 254.164062 533.75 253.007812 534.875 251.117188 C 538.398438 245.191406 535.589844 233.242188 534.191406 228.285156 C 547.578125 232.855469 569.234375 242.269531 577.632812 257.398438 C 586.394531 273.183594 593.472656 303.695312 597.925781 326.886719 L 565.347656 330.542969 C 564.75 330.609375 564.300781 331.113281 564.300781 331.710938 L 564.300781 407.28125 C 562.007812 407.117188 559.632812 406.859375 557.125 406.421875 C 544.980469 404.3125 524.816406 396.394531 501.8125 384.695312 C 499.476562 383.503906 497.796875 381.339844 497.210938 378.753906 L 486.429688 331.308594 C 486.300781 330.734375 485.789062 330.351562 485.171875 330.398438 L 438 334.933594 C 437.671875 334.964844 437.371094 335.132812 437.171875 335.398438 C 436.972656 335.664062 436.894531 336 436.957031 336.324219 C 437.402344 338.648438 447.875 393.402344 454.085938 408.398438 C 459.773438 422.136719 488.261719 430.339844 512.976562 434.960938 L 413.273438 434.960938 C 412.546875 420.871094 405.566406 278.523438 419.320312 257.472656 Z M 426.691406 437.3125 L 527.085938 437.3125 C 539.457031 439.140625 549.011719 439.972656 551.097656 440.144531 C 560.5 446.359375 574.152344 445.226562 576.921875 444.914062 C 578.199219 445.859375 579.550781 446.929688 581.417969 448.410156 L 581.417969 448.917969 L 498.78125 448.917969 C 496.484375 448.917969 494.542969 450.414062 493.960938 452.632812 C 493.375 454.855469 494.324219 457.109375 496.328125 458.242188 L 581.144531 506.191406 C 581.988281 506.667969 583.363281 506.835938 586.402344 506.835938 L 682.574219 506.835938 C 691.816406 526.035156 713.019531 704.875 714.859375 720.507812 L 598.816406 743.925781 L 576.71875 643.355469 L 576.71875 643.226562 L 576.691406 643.226562 L 555.546875 547.011719 C 555.457031 546.601562 555.152344 546.269531 554.746094 546.140625 C 554.304688 546.003906 532.765625 539.253906 508.621094 530.371094 L 508.621094 530.300781 L 508.429688 530.300781 C 482.90625 520.902344 454.535156 509.128906 445.101562 500.238281 C 428.511719 484.601562 426.855469 444.644531 426.691406 437.3125 Z M 339.59375 496.835938 L 339.59375 495.660156 L 328.550781 495.660156 C 319.992188 495.660156 313.027344 487.066406 313.027344 476.5 C 313.027344 465.933594 319.992188 457.335938 328.550781 457.335938 L 339.59375 457.335938 L 339.59375 451.386719 L 339.710938 451.273438 L 382.519531 451.386719 L 382.519531 496.953125 C 382.519531 502.367188 378.109375 506.773438 372.691406 506.773438 L 349.421875 506.773438 C 344 506.773438 339.59375 502.367188 339.59375 496.835938 Z M 176.632812 519.714844 C 176.632812 513.875 181.382812 509.128906 187.222656 509.128906 L 453.746094 509.128906 C 465.742188 516.0625 483.925781 523.652344 501.558594 530.300781 L 187.222656 530.300781 C 181.382812 530.300781 176.632812 525.550781 176.632812 519.714844 Z M 507.882812 532.652344 C 529.6875 540.671875 549.316406 546.902344 553.394531 548.183594 L 569.109375 619.699219 L 533.933594 619.699219 L 533.933594 587.011719 L 199.96875 587.011719 L 199.96875 560.65625 L 329.453125 560.65625 L 380.089844 577.292969 C 380.210938 577.332031 380.332031 577.351562 380.457031 577.351562 C 380.582031 577.351562 380.710938 577.332031 380.832031 577.292969 L 430.972656 560.597656 C 431.519531 560.414062 431.855469 559.863281 431.761719 559.292969 C 431.667969 558.722656 431.175781 558.304688 430.601562 558.304688 L 199.96875 558.304688 L 199.96875 532.652344 Z M 199.96875 589.367188 L 486.511719 589.367188 L 486.511719 619.699219 L 199.96875 619.699219 Z M 187.222656 643.226562 C 181.382812 643.226562 176.632812 638.476562 176.632812 632.636719 C 176.632812 626.800781 181.382812 622.050781 187.222656 622.050781 L 486.511719 622.050781 L 486.511719 643.226562 Z M 187.9375 807.78125 C 141.136719 807.78125 131.3125 763.679688 131.3125 726.679688 C 131.3125 689.683594 141.136719 645.578125 187.9375 645.578125 L 486.511719 645.578125 L 486.511719 658.097656 L 187.9375 658.097656 C 152.230469 658.097656 149.390625 687.824219 149.390625 726.679688 C 149.390625 765.539062 152.230469 795.257812 187.9375 795.257812 L 621.289062 795.257812 L 621.289062 800.644531 C 621.289062 800.78125 621.320312 800.90625 621.328125 801.039062 C 621.316406 801.105469 621.289062 801.164062 621.289062 801.234375 C 621.289062 801.410156 621.328125 801.570312 621.394531 801.71875 C 621.671875 804.136719 622.84375 806.261719 624.59375 807.78125 Z M 731.570312 807.78125 L 630.78125 807.78125 C 627.457031 807.78125 624.683594 805.488281 623.890625 802.410156 L 739.546875 802.410156 C 739.089844 805.476562 736.519531 807.78125 733.335938 807.78125 Z M 769.136719 807.78125 L 739.214844 807.78125 C 740.691406 806.402344 741.664062 804.519531 741.902344 802.410156 L 775.347656 802.410156 C 774.886719 805.476562 772.320312 807.78125 769.136719 807.78125 Z M 286.378906 75.847656 L 141.550781 75.847656 C 140.902344 75.847656 140.375 76.375 140.375 77.023438 C 140.375 77.675781 140.902344 78.203125 141.550781 78.203125 L 286.375 78.203125 C 287.027344 78.203125 287.554688 77.675781 287.554688 77.023438 C 287.554688 76.375 287.027344 75.847656 286.378906 75.847656 Z M 286.378906 107.082031 L 141.550781 107.082031 C 140.902344 107.082031 140.375 107.609375 140.375 108.257812 C 140.375 108.910156 140.902344 109.433594 141.550781 109.433594 L 286.375 109.433594 C 287.027344 109.433594 287.554688 108.910156 287.554688 108.257812 C 287.554688 107.609375 287.027344 107.082031 286.378906 107.082031 Z M 286.378906 138.316406 L 141.550781 138.316406 C 140.902344 138.316406 140.375 138.84375 140.375 139.496094 C 140.375 140.144531 140.902344 140.671875 141.550781 140.671875 L 286.375 140.671875 C 287.027344 140.671875 287.554688 140.144531 287.554688 139.496094 C 287.554688 138.84375 287.027344 138.316406 286.378906 138.316406 Z M 286.378906 169.550781 L 141.550781 169.550781 C 140.902344 169.550781 140.375 170.078125 140.375 170.726562 C 140.375 171.378906 140.902344 171.90625 141.550781 171.90625 L 286.375 171.90625 C 287.027344 171.90625 287.554688 171.378906 287.554688 170.726562 C 287.554688 170.078125 287.027344 169.550781 286.378906 169.550781 Z M 533.648438 189.222656 C 534.152344 189.292969 534.652344 189.324219 535.144531 189.324219 C 539.5 189.324219 543.347656 186.757812 544.316406 184.082031 C 544.480469 183.632812 544.359375 183.136719 544.007812 182.8125 C 537.691406 177.007812 530.847656 172.824219 527.332031 170.847656 C 526.421875 170.335938 525.363281 170.355469 524.5 170.902344 C 523.589844 171.480469 523.082031 172.535156 523.160156 173.664062 C 524.09375 186.527344 530.804688 188.828125 533.648438 189.222656 Z M 525.761719 172.890625 C 525.820312 172.851562 525.886719 172.832031 525.953125 172.832031 C 526.023438 172.832031 526.097656 172.855469 526.175781 172.898438 C 529.484375 174.757812 535.804688 178.617188 541.757812 183.949219 C 540.546875 185.773438 537.257812 187.347656 533.96875 186.890625 C 529.089844 186.214844 526.085938 181.457031 525.511719 173.492188 C 525.480469 173.097656 525.695312 172.933594 525.761719 172.890625 Z M 638.289062 229.625 C 638.289062 242.496094 642.5625 254.707031 649.90625 264.675781 C 649.988281 264.921875 650.140625 265.125 650.347656 265.269531 C 656.863281 273.886719 665.695312 280.773438 676.152344 284.8125 L 676.152344 320.894531 C 676.152344 321.421875 676.503906 321.886719 677.015625 322.027344 C 677.117188 322.058594 677.222656 322.070312 677.328125 322.070312 C 677.734375 322.070312 678.121094 321.863281 678.335938 321.503906 L 698.125 288.765625 C 730.445312 288.40625 756.628906 262.011719 756.628906 229.625 C 756.628906 221.191406 754.800781 212.964844 751.421875 205.445312 C 751.382812 205.3125 751.328125 205.191406 751.25 205.078125 C 747.164062 196.148438 740.882812 188.253906 732.839844 182.238281 L 738.707031 170.042969 C 739.660156 168.089844 740.058594 165.996094 739.828125 164.144531 C 739.578125 162.105469 738.609375 160.578125 737.101562 159.84375 L 733.703125 158.1875 C 730.730469 156.738281 726.761719 158.9375 724.675781 163.210938 L 721.230469 170.351562 C 721.195312 170.402344 721.152344 170.4375 721.125 170.492188 C 721.097656 170.546875 721.09375 170.609375 721.078125 170.671875 L 719.171875 174.621094 C 717.839844 174.097656 716.496094 173.589844 715.136719 173.164062 C 709.433594 171.382812 703.488281 170.480469 697.460938 170.480469 C 664.832031 170.480469 638.289062 197.011719 638.289062 229.625 Z M 697.460938 286.414062 C 697.046875 286.414062 696.664062 286.628906 696.453125 286.980469 L 678.507812 316.671875 L 678.507812 284 C 678.507812 283.507812 678.199219 283.066406 677.738281 282.894531 C 668.050781 279.3125 659.75 273.207031 653.472656 265.5 L 684.410156 265.5 C 684.554688 265.5 684.699219 265.46875 684.835938 265.414062 C 684.894531 265.394531 684.941406 265.355469 684.992188 265.324219 C 685.050781 265.289062 685.117188 265.265625 685.171875 265.21875 L 697.800781 254.449219 C 697.921875 254.34375 698.023438 254.214844 698.09375 254.070312 L 698.652344 252.925781 C 703.617188 252.835938 707.332031 252.386719 709.933594 251.535156 C 714.582031 250.007812 715.949219 246.542969 716.101562 244.160156 C 732.25 243.261719 738.601562 243.378906 738.703125 243.382812 L 747.222656 243.378906 C 749.664062 243.160156 751.488281 243.109375 752.644531 243.101562 C 746.574219 267.929688 724.140625 286.414062 697.460938 286.414062 Z M 683.152344 254.769531 C 681.375 254.40625 679.539062 252.914062 677.796875 250.429688 C 679.484375 250.320312 681.570312 250.019531 683.898438 249.601562 C 683.886719 249.65625 683.859375 249.710938 683.855469 249.769531 L 683.632812 255 C 683.492188 254.894531 683.335938 254.808594 683.152344 254.769531 Z M 709.035156 244.582031 C 710.683594 244.480469 712.222656 244.386719 713.71875 244.296875 C 713.550781 245.714844 712.742188 248.136719 709.199219 249.300781 C 707.066406 249.996094 703.882812 250.398438 699.820312 250.53125 L 702.164062 245.726562 C 705.039062 245.128906 707.496094 244.679688 709.035156 244.582031 Z M 753.171875 240.746094 C 752.035156 240.738281 749.976562 240.773438 747.117188 241.03125 L 738.726562 241.03125 C 738.644531 241.03125 730.402344 240.871094 708.886719 242.234375 C 706.074219 242.414062 700.75 243.597656 695.105469 244.851562 C 687.882812 246.460938 679.65625 248.273438 676.074219 248.125 C 673.972656 248.035156 672.597656 247.089844 672.3125 245.53125 C 671.96875 243.671875 673.292969 241.0625 676.488281 239.683594 C 679.394531 238.429688 684.765625 236.601562 690.453125 234.667969 C 697.664062 232.21875 705.121094 229.679688 709.582031 227.664062 C 711.15625 226.949219 715.351562 224.402344 715.527344 224.292969 C 716.082031 223.953125 716.257812 223.230469 715.921875 222.675781 C 715.582031 222.121094 714.855469 221.945312 714.304688 222.28125 C 714.292969 222.289062 713.871094 222.546875 713.28125 222.898438 L 724.222656 200.148438 C 737.878906 203.546875 747.148438 206.097656 749.429688 206.730469 C 752.578125 213.863281 754.273438 221.652344 754.273438 229.625 C 754.273438 233.429688 753.890625 237.148438 753.171875 240.746094 Z M 690.996094 196.136719 C 691.046875 196.101562 691.074219 196.050781 691.117188 196.011719 C 692.863281 195.027344 694.582031 194.40625 696.210938 194.40625 C 696.332031 194.40625 696.453125 194.410156 696.574219 194.417969 C 698.804688 194.535156 702.867188 195.234375 708.628906 196.480469 L 701.136719 212.015625 C 700.09375 210.6875 698.480469 209.15625 696.503906 209.054688 C 696.304688 209.042969 696.082031 209.089844 695.894531 209.1875 C 693.464844 210.464844 684.023438 217.246094 683.949219 221.3125 C 683.894531 224.445312 683.949219 234.308594 683.949219 234.40625 C 683.949219 234.40625 683.953125 234.40625 683.953125 234.40625 C 680.511719 235.597656 677.515625 236.679688 675.558594 237.523438 C 674.488281 237.984375 673.558594 238.589844 672.757812 239.28125 C 670.339844 231.261719 669.609375 222.660156 671.179688 219.457031 C 672.203125 217.371094 678.964844 206.214844 686.359375 199.511719 C 689.082031 197.457031 690.9375 196.175781 690.996094 196.136719 Z M 722.761719 172.597656 L 732.566406 177.375 L 731.230469 180.15625 L 721.421875 175.371094 Z M 686.300781 233.597656 C 686.289062 231.207031 686.257812 223.96875 686.304688 221.355469 C 686.339844 219.179688 693.214844 213.394531 696.671875 211.441406 C 697.988281 211.726562 699.292969 213.375 699.96875 214.433594 L 691.59375 231.792969 C 690.957031 232.011719 690.320312 232.230469 689.695312 232.441406 C 688.542969 232.832031 687.410156 233.21875 686.300781 233.597656 Z M 669.066406 218.421875 C 666.847656 222.960938 668.367188 233.507812 670.957031 241.386719 C 670.953125 241.394531 670.953125 241.398438 670.949219 241.402344 C 666.824219 235.253906 661.867188 225.621094 665.929688 219.265625 C 668.15625 215.78125 671.65625 212.078125 675.339844 208.671875 C 671.585938 213.875 669.121094 218.3125 669.066406 218.421875 Z M 748.09375 203.921875 C 744.25 202.871094 736.195312 200.707031 725.265625 197.984375 L 731.796875 184.40625 C 738.703125 189.65625 744.25 196.355469 748.09375 203.921875 Z M 726.792969 164.238281 C 728.246094 161.257812 730.925781 159.457031 732.675781 160.300781 L 736.070312 161.957031 C 737.105469 162.460938 737.40625 163.722656 737.492188 164.429688 C 737.667969 165.835938 737.34375 167.464844 736.589844 169.019531 L 733.585938 175.257812 L 723.78125 170.480469 Z M 697.460938 172.832031 C 703.25 172.832031 708.960938 173.699219 714.433594 175.410156 C 715.683594 175.800781 716.917969 176.273438 718.144531 176.75 L 709.679688 194.300781 C 703.5 192.953125 699.121094 192.199219 696.703125 192.066406 C 696.542969 192.058594 696.386719 192.054688 696.226562 192.054688 C 692.566406 192.054688 688.730469 194.304688 685.128906 197.480469 C 679.148438 201.980469 668.835938 210.351562 663.949219 218 C 658.828125 226.007812 665.390625 237.65625 669.980469 244.144531 C 669.902344 244.746094 669.886719 245.355469 669.996094 245.957031 C 670.4375 248.332031 672.328125 249.960938 675.015625 250.375 C 675.042969 250.464844 675.0625 250.558594 675.117188 250.640625 C 677.4375 254.359375 679.984375 256.523438 682.679688 257.074219 C 682.761719 257.089844 682.839844 257.097656 682.917969 257.097656 C 683.148438 257.097656 683.363281 257.019531 683.550781 256.898438 L 683.28125 263.148438 L 651.699219 263.148438 C 644.703125 253.601562 640.644531 241.925781 640.644531 229.625 C 640.644531 198.308594 666.132812 172.832031 697.460938 172.832031 Z M 262.839844 330.507812 L 252.535156 334.722656 L 258.09375 348.300781 L 268.394531 344.089844 C 269.332031 345.675781 270.359375 347.222656 271.464844 348.703125 L 263.597656 356.570312 L 273.976562 366.945312 L 281.832031 359.089844 C 283.199219 360.113281 284.617188 361.070312 286.066406 361.945312 L 281.773438 372.179688 L 295.3125 377.855469 L 299.59375 367.644531 C 301.386719 368.109375 303.214844 368.476562 305.050781 368.742188 L 305.050781 379.8125 L 319.730469 379.8125 L 319.730469 368.742188 C 321.425781 368.496094 323.109375 368.167969 324.753906 367.757812 L 328.949219 378 L 342.535156 372.449219 L 338.332031 362.179688 C 339.917969 361.238281 341.464844 360.207031 342.953125 359.089844 L 350.808594 366.945312 L 361.1875 356.570312 L 353.320312 348.707031 C 354.332031 347.347656 355.28125 345.929688 356.160156 344.472656 L 366.421875 348.777344 L 372.101562 335.246094 L 361.832031 330.9375 C 362.289062 329.15625 362.648438 327.335938 362.914062 325.507812 L 374.0625 325.507812 L 374.0625 310.832031 L 362.886719 310.832031 C 362.640625 309.152344 362.3125 307.484375 361.902344 305.851562 L 372.25 301.621094 L 366.691406 288.039062 L 356.308594 292.289062 C 355.371094 290.714844 354.34375 289.183594 353.242188 287.714844 L 361.1875 279.769531 L 350.808594 269.394531 L 342.851562 277.351562 C 341.503906 276.347656 340.101562 275.402344 338.660156 274.535156 L 343.011719 264.164062 L 329.472656 258.488281 L 325.125 268.855469 C 324.457031 268.6875 323.730469 268.539062 323.007812 268.386719 L 323.007812 52.972656 L 373.714844 52.972656 C 374.363281 52.972656 374.890625 52.445312 374.890625 51.796875 L 374.890625 28.011719 C 374.890625 12.953125 362.636719 0.707031 347.574219 0.707031 C 347.46875 0.707031 347.371094 0.738281 347.273438 0.765625 C 347.273438 0.765625 347.273438 0.765625 347.269531 0.765625 L 128.8125 0.765625 C 128.417969 0.75 128.03125 0.707031 127.632812 0.707031 C 127.464844 0.707031 127.304688 0.746094 127.160156 0.808594 C 112.5 1.277344 100.714844 13.308594 100.714844 28.070312 L 100.714844 136.898438 L 68.25 93.753906 C 68.25 93.753906 68.25 93.753906 68.25 93.75 L 64.5 88.769531 C 64.5 88.765625 64.5 88.765625 64.496094 88.765625 L 55.71875 77.101562 C 54.183594 75.058594 51.917969 73.757812 49.339844 73.4375 C 46.78125 73.128906 44.210938 73.816406 42.117188 75.390625 L 36.585938 79.546875 C 34.492188 81.121094 33.113281 83.394531 32.707031 85.941406 C 32.296875 88.507812 32.917969 91.042969 34.457031 93.085938 L 43.234375 104.75 C 43.234375 104.753906 43.234375 104.753906 43.234375 104.753906 C 43.234375 104.757812 43.238281 104.757812 43.238281 104.757812 L 46.984375 109.734375 C 46.984375 109.734375 46.984375 109.738281 46.984375 109.738281 L 100.714844 181.144531 L 100.714844 272.867188 L 49.609375 272.867188 C 48.960938 272.867188 48.433594 273.390625 48.433594 274.042969 L 48.433594 301.375 C 48.433594 316.429688 60.6875 328.679688 75.75 328.679688 L 262.445312 328.679688 C 262.570312 329.289062 262.695312 329.902344 262.839844 330.507812 Z M 323.121094 270.800781 C 323.953125 270.984375 324.738281 271.179688 325.496094 271.390625 L 326.496094 271.667969 L 330.734375 261.566406 L 339.929688 265.421875 L 335.691406 275.53125 L 336.589844 276.046875 C 338.554688 277.175781 340.453125 278.453125 342.234375 279.835938 L 343.054688 280.472656 L 350.808594 272.722656 L 357.859375 279.773438 L 350.113281 287.515625 L 350.753906 288.335938 C 352.242188 290.234375 353.59375 292.257812 354.78125 294.34375 L 355.289062 295.246094 L 365.40625 291.109375 L 369.179688 300.335938 L 359.09375 304.460938 L 359.367188 305.464844 C 359.960938 307.636719 360.40625 309.890625 360.691406 312.15625 L 360.820312 313.1875 L 371.707031 313.1875 L 371.707031 323.152344 L 360.839844 323.152344 L 360.714844 324.1875 C 360.421875 326.59375 359.941406 328.988281 359.296875 331.3125 L 359.015625 332.3125 L 369.019531 336.503906 L 365.164062 345.699219 L 355.164062 341.503906 L 354.644531 342.40625 C 353.507812 344.382812 352.226562 346.296875 350.832031 348.085938 L 350.191406 348.90625 L 357.859375 356.570312 L 350.808594 363.621094 L 343.152344 355.964844 L 342.328125 356.605469 C 340.410156 358.105469 338.371094 359.464844 336.273438 360.648438 L 335.371094 361.160156 L 339.464844 371.160156 L 330.238281 374.933594 L 326.152344 364.953125 L 325.148438 365.226562 C 322.960938 365.820312 320.691406 366.261719 318.410156 366.546875 L 317.378906 366.671875 L 317.378906 377.460938 L 307.40625 377.460938 L 307.40625 366.671875 L 306.375 366.546875 C 303.960938 366.25 301.558594 365.765625 299.226562 365.109375 L 298.222656 364.828125 L 294.050781 374.777344 L 284.855469 370.921875 L 289.035156 360.953125 L 288.136719 360.4375 C 286.171875 359.304688 284.257812 358.011719 282.457031 356.601562 L 281.636719 355.960938 L 273.976562 363.621094 L 266.925781 356.570312 L 274.59375 348.90625 L 273.957031 348.085938 C 272.464844 346.171875 271.109375 344.136719 269.925781 342.035156 L 269.414062 341.128906 L 259.378906 345.230469 L 255.605469 336.007812 L 265.644531 331.902344 L 265.375 330.898438 C 265.1875 330.207031 265.019531 329.511719 264.863281 328.808594 L 277.53125 328.808594 C 282.167969 344.101562 296.375 354.703125 312.394531 354.703125 C 332.496094 354.703125 348.855469 338.355469 348.855469 318.257812 C 348.855469 302.332031 338.316406 288.148438 323.125 283.460938 L 323.125 270.800781 Z M 346.5 318.257812 C 346.5 337.058594 331.199219 352.351562 312.390625 352.351562 C 297.609375 352.351562 284.5 342.679688 279.984375 328.679688 L 295.691406 328.679688 C 310.753906 328.679688 323.007812 316.429688 323.007812 301.375 L 323.007812 285.925781 C 336.902344 290.492188 346.5 303.570312 346.5 318.257812 Z M 347.269531 3.117188 C 347.375 3.117188 347.472656 3.085938 347.570312 3.058594 C 347.570312 3.058594 347.570312 3.058594 347.574219 3.058594 C 361.339844 3.058594 372.535156 14.25 372.535156 28.011719 L 372.535156 50.621094 L 154.949219 50.621094 L 154.949219 28.011719 C 154.949219 16.933594 148.304688 7.394531 138.800781 3.117188 Z M 176.683594 241.773438 L 171.910156 241.617188 L 64.101562 98.34375 L 67.078125 96.105469 Z M 49.574219 109.261719 L 52.535156 107.035156 L 160.339844 250.3125 L 159.175781 254.925781 Z M 45.824219 104.28125 L 63.328125 91.121094 L 65.664062 94.226562 L 61.75 97.167969 C 61.75 97.167969 61.746094 97.167969 61.746094 97.167969 C 61.742188 97.171875 61.742188 97.171875 61.742188 97.171875 L 52.0625 104.449219 L 48.160156 107.382812 Z M 162.222656 248.898438 L 54.414062 105.621094 L 62.21875 99.753906 L 170.027344 243.03125 L 168.488281 249.117188 Z M 162.527344 251.265625 L 169.355469 251.5 C 169.941406 251.523438 170.398438 251.148438 170.535156 250.613281 L 172.214844 243.980469 L 178.082031 244.171875 L 178.625 258.46875 L 174.6875 261.429688 L 161.09375 256.941406 Z M 178.789062 262.785156 L 177.40625 262.328125 L 178.734375 261.328125 Z M 50.789062 301.375 L 50.789062 275.21875 L 100.714844 275.21875 L 100.714844 301.375 C 100.714844 315.132812 89.515625 326.324219 75.75 326.324219 C 61.988281 326.324219 50.789062 315.132812 50.789062 301.375 Z M 103.066406 301.375 L 103.066406 184.273438 L 158.898438 258.472656 C 159.042969 258.664062 159.242188 258.808594 159.46875 258.882812 L 172.714844 263.257812 L 141.550781 263.257812 C 140.902344 263.257812 140.375 263.78125 140.375 264.433594 C 140.375 265.082031 140.902344 265.609375 141.550781 265.609375 L 180.027344 265.609375 C 180.269531 265.609375 180.480469 265.519531 180.667969 265.394531 C 180.6875 265.382812 180.714844 265.386719 180.734375 265.371094 C 180.753906 265.359375 180.761719 265.335938 180.777344 265.320312 C 180.882812 265.230469 180.964844 265.125 181.035156 265.007812 C 181.054688 264.976562 181.082031 264.949219 181.097656 264.917969 C 181.164062 264.769531 181.207031 264.605469 181.207031 264.433594 C 181.207031 264.421875 181.199219 264.414062 181.199219 264.40625 C 181.199219 264.398438 181.203125 264.394531 181.203125 264.386719 L 180.398438 243.148438 C 180.390625 242.910156 180.308594 242.679688 180.164062 242.488281 L 174.058594 234.375 L 286.375 234.375 C 287.027344 234.375 287.554688 233.847656 287.554688 233.199219 C 287.554688 232.546875 287.027344 232.019531 286.375 232.019531 L 172.4375 232.019531 C 172.390625 232.019531 172.351562 232.042969 172.308594 232.046875 L 150.558594 203.140625 L 286.378906 203.140625 C 287.027344 203.140625 287.554688 202.613281 287.554688 201.964844 C 287.554688 201.3125 287.027344 200.785156 286.378906 200.785156 L 148.785156 200.785156 L 102.984375 139.914062 C 103.035156 139.78125 103.066406 139.644531 103.066406 139.496094 L 103.066406 28.070312 C 103.066406 14.3125 114.265625 3.117188 128.03125 3.117188 L 128.8125 3.117188 C 142.027344 3.738281 152.597656 14.648438 152.597656 28.011719 L 152.597656 51.796875 C 152.597656 52.445312 153.121094 52.972656 153.773438 52.972656 L 320.652344 52.972656 L 320.652344 301.375 C 320.652344 315.132812 309.457031 326.324219 295.691406 326.324219 L 86.796875 326.324219 C 96.367188 322.074219 103.066406 312.5 103.066406 301.375 Z M 622.175781 109.355469 L 634.980469 114.277344 C 637.496094 115.242188 639.523438 117.957031 640.277344 121.367188 L 644.007812 138.246094 C 644.125 138.785156 644.605469 139.167969 645.15625 139.167969 C 645.707031 139.167969 646.183594 138.785156 646.304688 138.246094 L 650.039062 121.367188 C 650.792969 117.957031 652.820312 115.238281 655.328125 114.277344 L 668.132812 109.355469 C 668.585938 109.183594 668.886719 108.746094 668.886719 108.257812 C 668.886719 107.773438 668.585938 107.335938 668.132812 107.160156 L 655.328125 102.242188 C 652.820312 101.28125 650.792969 98.5625 650.039062 95.152344 L 646.304688 78.273438 C 646.183594 77.734375 645.707031 77.351562 645.15625 77.351562 C 644.605469 77.351562 644.125 77.734375 644.007812 78.273438 L 640.277344 95.152344 C 639.523438 98.5625 637.496094 101.277344 634.980469 102.242188 L 622.175781 107.160156 C 621.726562 107.335938 621.421875 107.773438 621.421875 108.257812 C 621.421875 108.746094 621.726562 109.183594 622.175781 109.355469 Z M 635.828125 104.4375 C 639.113281 103.175781 641.640625 99.894531 642.574219 95.660156 L 645.15625 83.980469 L 647.738281 95.660156 C 648.675781 99.894531 651.195312 103.175781 654.484375 104.4375 L 664.429688 108.257812 L 654.484375 112.082031 C 651.195312 113.34375 648.675781 116.625 647.738281 120.859375 L 645.15625 132.539062 L 642.574219 120.859375 C 641.636719 116.625 639.113281 113.34375 635.828125 112.082031 L 625.878906 108.257812 Z M 316.382812 476.5 C 316.382812 485.21875 321.839844 492.308594 328.550781 492.308594 L 339.59375 492.308594 L 339.59375 460.691406 L 328.550781 460.691406 C 321.839844 460.691406 316.382812 467.785156 316.382812 476.5 Z M 337.238281 489.957031 L 328.550781 489.957031 C 323.136719 489.957031 318.734375 483.921875 318.734375 476.5 C 318.734375 469.078125 323.136719 463.042969 328.550781 463.042969 L 337.238281 463.042969 Z M 352.351562 436.136719 C 352.351562 436.785156 352.878906 437.3125 353.53125 437.3125 C 354.179688 437.3125 354.707031 436.785156 354.707031 436.136719 C 354.707031 433.800781 355.667969 432.671875 356.78125 431.363281 C 358.015625 429.914062 359.414062 428.269531 359.414062 425.066406 C 359.414062 421.867188 358.015625 420.222656 356.78125 418.769531 C 355.667969 417.460938 354.707031 416.332031 354.707031 414 C 354.707031 413.347656 354.179688 412.820312 353.53125 412.820312 C 352.878906 412.820312 352.351562 413.347656 352.351562 414 C 352.351562 417.199219 353.753906 418.84375 354.988281 420.296875 C 356.101562 421.601562 357.0625 422.734375 357.0625 425.066406 C 357.0625 427.402344 356.101562 428.53125 354.988281 429.839844 C 353.753906 431.292969 352.351562 432.9375 352.351562 436.136719 Z M 364.90625 432.628906 C 364.90625 433.28125 365.433594 433.808594 366.082031 433.808594 C 366.734375 433.808594 367.261719 433.28125 367.261719 432.628906 C 367.261719 429.253906 368.265625 427.664062 369.429688 425.824219 C 370.621094 423.945312 371.96875 421.816406 371.96875 417.757812 C 371.96875 413.695312 370.621094 411.570312 369.429688 409.691406 C 368.265625 407.851562 367.261719 406.261719 367.261719 402.882812 C 367.261719 402.230469 366.734375 401.707031 366.082031 401.707031 C 365.433594 401.707031 364.90625 402.230469 364.90625 402.882812 C 364.90625 406.941406 366.253906 409.070312 367.441406 410.949219 C 368.609375 412.789062 369.613281 414.378906 369.613281 417.757812 C 369.613281 421.132812 368.605469 422.722656 367.441406 424.566406 C 366.253906 426.445312 364.90625 428.570312 364.90625 432.628906 Z M 364.90625 432.628906 "/></g></svg>