<svg xmlns="http://www.w3.org/2000/svg" xmlns:xlink="http://www.w3.org/1999/xlink" width="1080" zoomAndPan="magnify" viewBox="0 0 810 809.999993" height="1080" preserveAspectRatio="xMidYMid meet" version="1.2"><g id="3fb0620b09"><path style=" stroke:none;fill-rule:nonzero;fill:#f5f5f5;fill-opacity:1;" d="M 87.96875 90.949219 L 599.085938 90.949219 L 599.085938 602.082031 L 87.96875 602.082031 Z M 87.96875 90.949219 "/><path style="fill:none;stroke-width:16;stroke-linecap:butt;stroke-linejoin:miter;stroke:#5e6175;stroke-opacity:1;stroke-miterlimit:10;" d="M 137.120699 137.780038 L 137.120699 311.430814 L 223.429038 224.609753 L 309.73954 224.609753 L 309.73954 137.780038 " transform="matrix(1.805617,0,0,1.805617,-59.224249,-59.043668)"/><path style=" stroke:none;fill-rule:nonzero;fill:#e1830e;fill-opacity:1;" d="M 158.171875 159.5625 L 218.535156 159.5625 L 218.535156 219.925781 L 158.171875 219.925781 Z M 158.171875 159.5625 "/><path style=" stroke:none;fill-rule:nonzero;fill:#e1830e;fill-opacity:1;" d="M 314.015625 159.5625 L 374.375 159.5625 L 374.375 219.925781 L 314.015625 219.925781 Z M 314.015625 159.5625 "/><path style=" stroke:none;fill-rule:nonzero;fill:#e1830e;fill-opacity:1;" d="M 469.859375 159.5625 L 530.21875 159.5625 L 530.21875 219.925781 L 469.859375 219.925781 Z M 469.859375 159.5625 "/><path style=" stroke:none;fill-rule:nonzero;fill:#e1830e;fill-opacity:1;" d="M 158.171875 473.109375 L 218.535156 473.109375 L 218.535156 533.46875 L 158.171875 533.46875 Z M 158.171875 473.109375 "/><path style=" stroke:none;fill-rule:nonzero;fill:#e1830e;fill-opacity:1;" d="M 314.015625 473.109375 L 374.375 473.109375 L 374.375 533.46875 L 314.015625 533.46875 Z M 314.015625 473.109375 "/><path style=" stroke:none;fill-rule:nonzero;fill:#e1830e;fill-opacity:1;" d="M 469.859375 473.109375 L 530.21875 473.109375 L 530.21875 533.46875 L 469.859375 533.46875 Z M 469.859375 473.109375 "/><path style=" stroke:none;fill-rule:nonzero;fill:#e1830e;fill-opacity:1;" d="M 158.171875 316.324219 L 218.535156 316.324219 L 218.535156 376.6875 L 158.171875 376.6875 Z M 158.171875 316.324219 "/><path style=" stroke:none;fill-rule:nonzero;fill:#e1830e;fill-opacity:1;" d="M 314.015625 316.324219 L 374.375 316.324219 L 374.375 376.6875 L 314.015625 376.6875 Z M 314.015625 316.324219 "/><path style=" stroke:none;fill-rule:nonzero;fill:#e1830e;fill-opacity:1;" d="M 469.859375 316.324219 L 530.21875 316.324219 L 530.21875 376.6875 L 469.859375 376.6875 Z M 469.859375 316.324219 "/><path style=" stroke:none;fill-rule:nonzero;fill:#5e6175;fill-opacity:1;" d="M 223.949219 225.339844 L 152.753906 225.339844 L 152.753906 154.144531 L 223.949219 154.144531 Z M 163.589844 214.507812 L 213.117188 214.507812 L 213.117188 164.980469 L 163.589844 164.980469 Z M 163.589844 214.507812 "/><path style=" stroke:none;fill-rule:nonzero;fill:#5e6175;fill-opacity:1;" d="M 379.792969 225.339844 L 308.597656 225.339844 L 308.597656 154.144531 L 379.792969 154.144531 Z M 319.433594 214.507812 L 368.960938 214.507812 L 368.960938 164.980469 L 319.433594 164.980469 Z M 319.433594 214.507812 "/><path style=" stroke:none;fill-rule:nonzero;fill:#5e6175;fill-opacity:1;" d="M 535.636719 225.339844 L 464.441406 225.339844 L 464.441406 154.144531 L 535.636719 154.144531 Z M 475.273438 214.507812 L 524.804688 214.507812 L 524.804688 164.980469 L 475.273438 164.980469 Z M 475.273438 214.507812 "/><path style=" stroke:none;fill-rule:nonzero;fill:#5e6175;fill-opacity:1;" d="M 223.949219 538.886719 L 152.753906 538.886719 L 152.753906 467.691406 L 223.949219 467.691406 Z M 163.589844 528.054688 L 213.117188 528.054688 L 213.117188 478.523438 L 163.589844 478.523438 Z M 163.589844 528.054688 "/><path style=" stroke:none;fill-rule:nonzero;fill:#5e6175;fill-opacity:1;" d="M 379.792969 538.886719 L 308.597656 538.886719 L 308.597656 467.691406 L 379.792969 467.691406 Z M 319.433594 528.054688 L 368.960938 528.054688 L 368.960938 478.523438 L 319.433594 478.523438 Z M 319.433594 528.054688 "/><path style=" stroke:none;fill-rule:nonzero;fill:#5e6175;fill-opacity:1;" d="M 535.636719 538.886719 L 464.441406 538.886719 L 464.441406 467.691406 L 535.636719 467.691406 Z M 475.273438 528.054688 L 524.804688 528.054688 L 524.804688 478.523438 L 475.273438 478.523438 Z M 475.273438 528.054688 "/><path style=" stroke:none;fill-rule:nonzero;fill:#5e6175;fill-opacity:1;" d="M 223.949219 382.105469 L 152.753906 382.105469 L 152.753906 310.910156 L 223.949219 310.910156 Z M 163.589844 371.269531 L 213.117188 371.269531 L 213.117188 321.742188 L 163.589844 321.742188 Z M 163.589844 371.269531 "/><path style=" stroke:none;fill-rule:nonzero;fill:#5e6175;fill-opacity:1;" d="M 379.792969 382.105469 L 308.597656 382.105469 L 308.597656 310.910156 L 379.792969 310.910156 Z M 319.433594 371.269531 L 368.960938 371.269531 L 368.960938 321.742188 L 319.433594 321.742188 Z M 319.433594 371.269531 "/><path style=" stroke:none;fill-rule:nonzero;fill:#5e6175;fill-opacity:1;" d="M 535.636719 382.105469 L 464.441406 382.105469 L 464.441406 310.910156 L 535.636719 310.910156 Z M 475.273438 371.269531 L 524.804688 371.269531 L 524.804688 321.742188 L 475.273438 321.742188 Z M 475.273438 371.269531 "/><path style=" stroke:none;fill-rule:nonzero;fill:#5e6175;fill-opacity:1;" d="M 93.40625 159.582031 L 82.570312 159.582031 L 82.570312 85.53125 L 156.601562 85.53125 L 156.601562 96.367188 L 93.40625 96.367188 Z M 93.40625 159.582031 "/><path style=" stroke:none;fill-rule:nonzero;fill:#5e6175;fill-opacity:1;" d="M 156.601562 607.5 L 82.570312 607.5 L 82.570312 533.453125 L 93.40625 533.453125 L 93.40625 596.667969 L 156.601562 596.667969 Z M 156.601562 607.5 "/><path style=" stroke:none;fill-rule:nonzero;fill:#5e6175;fill-opacity:1;" d="M 604.519531 159.5625 L 593.6875 159.5625 L 593.6875 96.367188 L 530.492188 96.367188 L 530.492188 85.53125 L 604.519531 85.53125 Z M 604.519531 159.5625 "/><path style=" stroke:none;fill-rule:nonzero;fill:#5e6175;fill-opacity:1;" d="M 604.519531 607.5 L 530.492188 607.5 L 530.492188 596.667969 L 593.6875 596.667969 L 593.6875 533.453125 L 604.519531 533.453125 Z M 604.519531 607.5 "/><path style=" stroke:none;fill-rule:nonzero;fill:#5e6175;fill-opacity:1;" d="M 334.09375 602.082031 L 358.578125 602.082031 L 358.578125 687.054688 L 334.09375 687.054688 Z M 334.09375 602.082031 "/><path style=" stroke:none;fill-rule:nonzero;fill:#5e6175;fill-opacity:1;" d="M 363.976562 692.472656 L 328.660156 692.472656 L 328.660156 596.667969 L 363.976562 596.667969 Z M 339.492188 681.636719 L 353.144531 681.636719 L 353.144531 607.5 L 339.492188 607.5 Z M 339.492188 681.636719 "/><path style=" stroke:none;fill-rule:nonzero;fill:#5e6175;fill-opacity:1;" d="M 334.09375 5.976562 L 358.578125 5.976562 L 358.578125 90.949219 L 334.09375 90.949219 Z M 334.09375 5.976562 "/><path style=" stroke:none;fill-rule:nonzero;fill:#5e6175;fill-opacity:1;" d="M 363.976562 96.367188 L 328.660156 96.367188 L 328.660156 0.558594 L 363.976562 0.558594 Z M 339.492188 85.53125 L 353.144531 85.53125 L 353.144531 11.394531 L 339.492188 11.394531 Z M 339.492188 85.53125 "/><path style=" stroke:none;fill-rule:nonzero;fill:#5e6175;fill-opacity:1;" d="M 5.796875 334.273438 L 90.769531 334.273438 L 90.769531 358.757812 L 5.796875 358.757812 Z M 5.796875 334.273438 "/><path style=" stroke:none;fill-rule:nonzero;fill:#5e6175;fill-opacity:1;" d="M 96.183594 364.175781 L 0.378906 364.175781 L 0.378906 328.855469 L 96.183594 328.855469 Z M 11.210938 353.339844 L 85.351562 353.339844 L 85.351562 339.691406 L 11.210938 339.691406 Z M 11.210938 353.339844 "/><path style=" stroke:none;fill-rule:nonzero;fill:#5e6175;fill-opacity:1;" d="M 601.882812 334.273438 L 686.855469 334.273438 L 686.855469 358.757812 L 601.882812 358.757812 Z M 601.882812 334.273438 "/><path style=" stroke:none;fill-rule:nonzero;fill:#5e6175;fill-opacity:1;" d="M 692.292969 364.175781 L 596.484375 364.175781 L 596.484375 328.855469 L 692.292969 328.855469 Z M 607.320312 353.339844 L 681.457031 353.339844 L 681.457031 339.691406 L 607.320312 339.691406 Z M 607.320312 353.339844 "/><path style=" stroke:none;fill-rule:nonzero;fill:#f5f5f5;fill-opacity:1;" d="M 601.722656 599.554688 C 576.695312 625.320312 541.792969 633.410156 510.464844 624.507812 C 497.210938 620.734375 486.308594 613.929688 475.5625 605.566406 C 436.109375 571.207031 433.761719 508.914062 470.816406 471.863281 C 506.078125 436.597656 564.871094 436.597656 600.132812 471.863281 C 637.003906 508.734375 633.953125 567.308594 601.722656 599.539062 Z M 601.722656 599.554688 "/><path style=" stroke:none;fill-rule:nonzero;fill:#dee1ec;fill-opacity:1;" d="M 582.472656 422.984375 C 538.578125 404.800781 485.277344 413 448.625 449.652344 C 400.628906 497.644531 400.59375 575.324219 448.625 623.351562 C 489.898438 664.628906 555.804688 672.792969 608.765625 635.070312 L 635.070312 661.378906 C 634.765625 662.570312 634.511719 663.761719 634.332031 664.953125 L 647.820312 678.441406 L 677.648438 648.613281 L 663.691406 634.65625 C 662.515625 634.875 661.363281 635.179688 660.207031 635.503906 L 634.277344 609.578125 L 636.082031 607.046875 L 636.046875 607.011719 C 681.675781 542.171875 654.230469 452.6875 582.492188 422.984375 Z M 601.722656 599.554688 C 576.695312 625.320312 541.792969 633.410156 510.464844 624.507812 C 497.214844 620.734375 486.308594 613.929688 475.5625 605.566406 C 436.109375 571.207031 433.761719 508.914062 470.816406 471.863281 C 506.078125 436.597656 564.871094 436.597656 600.132812 471.863281 C 637.003906 508.734375 633.953125 567.308594 601.722656 599.539062 Z M 601.722656 599.554688 "/><path style=" stroke:none;fill-rule:nonzero;fill:#5e6175;fill-opacity:1;" d="M 647.800781 686.117188 L 628.554688 666.867188 C 628.96875 664.089844 628.988281 663.871094 629.132812 663.113281 L 608.113281 642.09375 C 553.601562 678.40625 486.777344 669.179688 444.777344 627.179688 C 394.652344 577.074219 394.671875 495.949219 444.777344 445.824219 C 494.433594 396.152344 575.558594 395.285156 626.097656 445.824219 C 669.214844 488.941406 676.003906 555.734375 643 606.328125 L 643.070312 606.398438 L 641.28125 608.960938 L 661.792969 629.472656 C 662.425781 629.347656 662.570312 629.3125 665.441406 628.789062 L 685.25 648.597656 L 647.765625 686.082031 Z M 640.199219 663.183594 L 647.800781 670.785156 L 669.972656 648.613281 L 661.976562 640.613281 C 661.613281 640.722656 663.09375 640.289062 658.617188 641.589844 L 627.179688 610.152344 L 631.605469 603.890625 C 675.464844 541.578125 648.703125 456.261719 580.414062 427.984375 C 538.382812 410.5625 487.445312 418.507812 452.46875 453.480469 C 406.589844 499.363281 406.570312 573.625 452.46875 619.507812 C 491.652344 658.6875 554.59375 667.011719 605.640625 630.648438 L 609.378906 627.992188 L 641.101562 659.71875 C 640.34375 662.699219 640.328125 662.75 640.21875 663.167969 Z M 535.5625 633.375 C 510.25 633.375 491.488281 624.796875 472.242188 609.828125 C 453.949219 594.753906 440.066406 568.460938 439.070312 539.734375 C 437.175781 484.589844 480.203125 439.992188 535.457031 439.992188 C 581.679688 439.992188 619.019531 471.265625 629.421875 512.886719 C 637.472656 545.316406 628.101562 580.832031 605.550781 603.382812 C 586.246094 623.261719 561.347656 633.375 535.546875 633.375 Z M 479.011719 601.378906 C 491.183594 610.824219 501.039062 616.183594 511.945312 619.289062 C 541.269531 627.613281 574.078125 620.230469 597.839844 595.78125 C 628.371094 565.25 630.902344 510.304688 596.304688 475.707031 C 563.335938 442.738281 507.613281 442.738281 474.644531 475.707031 C 439.867188 510.484375 442.050781 569.09375 479.011719 601.398438 Z M 479.011719 601.378906 "/><path style=" stroke:none;fill-rule:nonzero;fill:#5e6175;fill-opacity:1;" d="M 695.6875 644.371094 L 789.613281 738.300781 C 803.824219 752.507812 803.824219 775.550781 789.613281 789.757812 C 775.40625 803.96875 752.363281 803.96875 738.15625 789.757812 L 644.570312 696.175781 C 630.378906 681.980469 630.324219 658.960938 644.570312 644.714844 C 658.6875 630.59375 681.457031 630.523438 695.6875 644.371094 Z M 695.6875 644.371094 "/><path style=" stroke:none;fill-rule:nonzero;fill:#5e6175;fill-opacity:1;" d="M 734.328125 793.585938 L 640.742188 700 C 628.03125 687.289062 625.304688 668.621094 632.128906 653.378906 C 644.027344 626.929688 678.625 620.210938 699.460938 640.507812 C 712.335938 653.378906 780.042969 721.089844 793.441406 734.488281 C 809.746094 750.792969 809.746094 777.300781 793.441406 793.605469 C 777.136719 809.910156 750.667969 809.945312 734.328125 793.605469 Z M 642.003906 657.804688 C 636.949219 669.109375 638.988281 682.921875 648.398438 692.347656 L 741.980469 785.929688 C 754.0625 798.011719 773.707031 798.011719 785.769531 785.929688 C 797.867188 773.832031 797.867188 754.242188 785.769531 742.144531 L 691.875 648.253906 C 676.601562 633.429688 650.925781 637.996094 642.003906 657.824219 Z M 642.003906 657.804688 "/><path style=" stroke:none;fill-rule:nonzero;fill:#a9afc4;fill-opacity:1;" d="M 53.699219 237.726562 L 42.867188 237.726562 L 42.867188 226.894531 L 53.699219 226.894531 Z M 53.699219 208.835938 L 42.867188 208.835938 L 42.867188 198.003906 L 53.699219 198.003906 Z M 53.699219 179.949219 L 42.867188 179.949219 L 42.867188 169.113281 L 53.699219 169.113281 Z M 53.699219 151.058594 L 42.867188 151.058594 L 42.867188 140.222656 L 53.699219 140.222656 Z M 53.699219 122.167969 L 42.867188 122.167969 L 42.867188 111.335938 L 53.699219 111.335938 Z M 53.914062 93.820312 L 43.136719 92.753906 C 43.535156 88.765625 44.363281 84.808594 45.609375 81.019531 L 55.902344 84.394531 C 54.910156 87.445312 54.242188 90.605469 53.914062 93.820312 Z M 63.558594 70.347656 L 55.125 63.539062 C 57.636719 60.433594 60.507812 57.582031 63.628906 55.089844 L 70.382812 63.558594 C 67.875 65.5625 65.578125 67.855469 63.558594 70.347656 Z M 84.484375 55.972656 L 81.179688 45.664062 C 84.972656 44.4375 88.925781 43.640625 92.933594 43.261719 L 93.929688 54.042969 C 90.714844 54.332031 87.535156 54.980469 84.484375 55.972656 Z M 122.292969 53.863281 L 111.460938 53.863281 L 111.460938 43.027344 L 122.292969 43.027344 Z M 122.292969 53.863281 "/><path style=" stroke:none;fill-rule:nonzero;fill:#5e6175;fill-opacity:1;" d="M 698.085938 132.460938 C 679.039062 132.460938 669.359375 109.492188 682.542969 95.84375 C 686.515625 91.726562 692.003906 89.25 698.085938 89.25 C 710.238281 89.25 719.699219 99.328125 719.699219 110.484375 C 719.917969 122.476562 710.292969 132.476562 698.085938 132.476562 Z M 690.324219 103.371094 C 683.679688 110.25 688.699219 121.824219 698.269531 121.625 C 704.226562 121.519531 708.957031 116.625 708.867188 110.667969 C 708.703125 101.007812 696.933594 96.527344 690.324219 103.371094 Z M 690.324219 103.371094 "/><path style=" stroke:none;fill-rule:nonzero;fill:#5e6175;fill-opacity:1;" d="M 610.351562 38.820312 C 595.65625 38.820312 588.199219 21.109375 598.363281 10.582031 C 608.601562 -0.0195312 626.746094 7.003906 627.019531 21.867188 C 627.179688 31.164062 619.707031 38.820312 610.351562 38.820312 Z M 606.144531 18.109375 C 602.589844 21.8125 605.242188 27.988281 610.351562 27.988281 C 613.601562 27.988281 616.238281 25.332031 616.183594 22.066406 C 616.09375 16.863281 609.738281 14.410156 606.144531 18.109375 Z M 606.144531 18.109375 "/><path style=" stroke:none;fill-rule:nonzero;fill:#e1830e;fill-opacity:1;" d="M 535.617188 501.835938 C 513.175781 501.835938 490.75 511.785156 474.300781 529.535156 C 473.125 530.796875 471.953125 532.117188 470.886719 533.523438 C 470.886719 533.523438 494.414062 565.121094 535.671875 565.066406 C 556.292969 565.066406 572.472656 557.125 583.503906 549.214844 C 594.535156 541.289062 600.386719 533.378906 600.386719 533.378906 C 600.386719 533.378906 576.859375 501.78125 535.601562 501.835938 Z M 535.671875 553.386719 C 524.660156 553.386719 515.71875 544.484375 515.703125 533.46875 C 515.703125 522.457031 524.316406 513.519531 535.328125 513.5 C 546.34375 513.5 555.570312 522.402344 555.589844 533.414062 C 555.589844 544.429688 546.6875 553.367188 535.671875 553.386719 Z M 535.671875 553.386719 "/><path style=" stroke:none;fill-rule:nonzero;fill:#5e6175;fill-opacity:1;" d="M 697.292969 524.0625 L 734.074219 524.0625 L 734.074219 534.894531 L 697.292969 534.894531 Z M 697.292969 524.0625 "/><path style=" stroke:none;fill-rule:nonzero;fill:#5e6175;fill-opacity:1;" d="M 685.644531 490.566406 L 711.648438 464.558594 L 719.3125 472.21875 L 693.304688 498.226562 Z M 685.644531 490.566406 "/><path style=" stroke:none;fill-rule:nonzero;fill:#5e6175;fill-opacity:1;" d="M 687.925781 567.519531 L 695.585938 559.859375 L 721.59375 585.867188 L 713.933594 593.527344 Z M 687.925781 567.519531 "/></g></svg>