<svg xmlns="http://www.w3.org/2000/svg" xmlns:xlink="http://www.w3.org/1999/xlink" width="500" zoomAndPan="magnify" viewBox="0 0 375 374.999991" height="500" preserveAspectRatio="xMidYMid meet" version="1.0"><path fill="#53c1de" d="M 220.984375 187.246094 C 220.984375 169.3125 205.996094 154.769531 187.5 154.769531 C 169.007812 154.769531 154.015625 169.3125 154.015625 187.246094 C 154.015625 205.183594 169.007812 219.722656 187.5 219.722656 C 205.996094 219.722656 220.984375 205.183594 220.984375 187.246094 Z M 220.984375 187.246094 " fill-opacity="1" fill-rule="nonzero"/><path fill="#53c1de" d="M 296.253906 126.953125 C 303.328125 99.082031 312.214844 47.402344 280.878906 29.882812 C 249.691406 12.4375 209.105469 45.863281 187.671875 65.929688 C 166.304688 46.0625 124.578125 12.78125 93.269531 30.355469 C 62.09375 47.859375 71.707031 98.683594 78.9375 126.726562 C 49.855469 134.738281 0 151.992188 0 187.246094 C 0 222.398438 49.800781 241.171875 78.710938 249.175781 C 71.457031 277.375 62.324219 327.46875 93.539062 344.933594 C 124.964844 362.507812 166.5625 330.015625 188.191406 309.730469 C 209.761719 329.914062 249.957031 362.621094 281.152344 345.105469 C 312.445312 327.539062 304.296875 276.550781 297.066406 248.34375 C 325.089844 240.324219 375 221.960938 375 187.246094 C 375 152.332031 324.878906 134.9375 296.253906 126.953125 Z M 292.703125 233.398438 C 287.957031 218.824219 281.550781 203.328125 273.714844 187.324219 C 281.195312 171.695312 287.351562 156.398438 291.964844 141.921875 C 312.949219 147.820312 358.980469 161.304688 358.980469 187.246094 C 358.980469 213.429688 314.808594 227.042969 292.703125 233.398438 Z M 273.125 331.660156 C 249.851562 344.726562 215.277344 313.449219 199.347656 298.585938 C 209.914062 287.378906 220.476562 274.347656 230.78125 259.878906 C 248.910156 258.316406 266.039062 255.769531 281.570312 252.285156 C 286.65625 272.238281 296.503906 318.535156 273.125 331.660156 Z M 101.546875 331.472656 C 78.269531 318.457031 88.90625 273.753906 94.246094 252.980469 C 109.605469 256.277344 126.609375 258.648438 144.78125 260.078125 C 155.152344 274.234375 166.019531 287.25 176.96875 298.648438 C 163.441406 311.339844 124.929688 344.550781 101.546875 331.472656 Z M 16.019531 187.246094 C 16.019531 160.964844 61.777344 147.578125 83.238281 141.691406 C 87.929688 156.496094 94.085938 171.972656 101.515625 187.625 C 93.992188 203.507812 87.746094 219.230469 83.011719 234.210938 C 62.546875 228.527344 16.019531 213.542969 16.019531 187.246094 Z M 101.296875 43.800781 C 124.667969 30.683594 160.933594 62.636719 176.449219 77.019531 C 165.554688 88.363281 154.789062 101.28125 144.503906 115.359375 C 126.867188 116.945312 109.984375 119.488281 94.464844 122.902344 C 88.640625 100.28125 77.949219 56.910156 101.296875 43.800781 Z M 242.242188 132.246094 C 254.207031 133.710938 265.671875 135.65625 276.433594 138.042969 C 273.203125 148.085938 269.175781 158.589844 264.429688 169.359375 C 257.554688 156.703125 250.171875 144.304688 242.242188 132.246094 Z M 187.679688 88.121094 C 195.066406 95.882812 202.46875 104.554688 209.746094 113.957031 C 194.980469 113.28125 180.191406 113.277344 165.425781 113.949219 C 172.710938 104.628906 180.175781 95.972656 187.679688 88.121094 Z M 110.707031 169.347656 C 106.042969 158.617188 102.050781 148.066406 98.789062 137.878906 C 109.488281 135.554688 120.898438 133.65625 132.789062 132.21875 C 124.832031 144.25 117.464844 156.644531 110.707031 169.347656 Z M 133.128906 243.382812 C 120.847656 242.054688 109.265625 240.253906 98.570312 237.992188 C 101.878906 227.625 105.960938 216.847656 110.722656 205.886719 C 117.574219 218.722656 125.054688 231.234375 133.128906 243.382812 Z M 188.121094 287.46875 C 180.53125 279.523438 172.957031 270.734375 165.558594 261.28125 C 180.410156 261.84375 195.289062 261.847656 210.136719 261.203125 C 202.835938 270.828125 195.460938 279.628906 188.121094 287.46875 Z M 264.582031 205.328125 C 269.597656 216.410156 273.820312 227.128906 277.175781 237.320312 C 266.304688 239.726562 254.566406 241.667969 242.195312 243.105469 C 250.1875 230.816406 257.6875 218.226562 264.582031 205.328125 Z M 221.839844 244.988281 C 199.125 246.5625 176.269531 246.546875 153.546875 245.117188 C 140.636719 226.824219 129.140625 207.589844 119.222656 187.621094 C 129.09375 167.691406 140.503906 148.492188 153.355469 130.230469 C 176.09375 128.5625 198.972656 128.558594 221.710938 130.238281 C 234.453125 148.5 245.84375 167.648438 255.945312 187.398438 C 245.964844 207.316406 234.492188 226.554688 221.839844 244.988281 Z M 272.878906 43.339844 C 296.257812 56.417969 285.851562 102.863281 280.742188 123.0625 C 265.1875 119.578125 248.292969 116.988281 230.605469 115.378906 C 220.296875 101.148438 209.621094 88.210938 198.90625 77.011719 C 214.617188 62.320312 249.726562 30.390625 272.878906 43.339844 Z M 272.878906 43.339844 " fill-opacity="1" fill-rule="evenodd"/></svg>