<svg xmlns="http://www.w3.org/2000/svg" xmlns:xlink="http://www.w3.org/1999/xlink" width="500" zoomAndPan="magnify" viewBox="0 0 375 374.999991" height="500" preserveAspectRatio="xMidYMid meet" version="1.0"><path fill="#00678c" d="M -0.691406 268.054688 L 11.625 268.054688 L 11.625 219.339844 L 30.863281 261.8125 C 33.042969 266.917969 36.171875 268.8125 42.230469 268.8125 C 48.292969 268.8125 51.238281 266.917969 53.488281 261.8125 L 72.628906 219.339844 L 72.628906 268.054688 L 85.039062 268.054688 L 85.039062 219.339844 C 85.039062 214.609375 83.144531 212.335938 79.164062 211.105469 C 69.785156 208.269531 63.53125 210.730469 60.6875 217.0625 L 41.835938 259.066406 L 23.640625 217.0625 C 20.894531 210.730469 14.542969 208.269531 5.070312 211.105469 C 1.183594 212.335938 -0.710938 214.609375 -0.710938 219.339844 L -0.710938 268.054688 Z M 95.292969 228.421875 L 107.707031 228.421875 L 107.707031 255.191406 C 107.613281 256.703125 108.179688 260.113281 114.925781 260.203125 C 118.429688 260.296875 141.644531 260.203125 141.832031 260.203125 L 141.832031 228.230469 L 154.246094 228.230469 L 154.246094 272.03125 C 154.246094 282.8125 140.867188 285.175781 134.632812 285.273438 L 95.597656 285.273438 L 95.597656 277.046875 L 134.730469 277.046875 C 142.691406 276.195312 141.742188 272.222656 141.742188 270.898438 L 141.742188 267.679688 L 115.496094 267.679688 C 103.273438 267.582031 95.40625 262.191406 95.316406 256.042969 L 95.316406 228.414062 Z M 361.535156 197.390625 C 353.957031 197.199219 348.078125 197.957031 343.152344 200.039062 C 341.734375 200.613281 339.457031 200.613281 339.269531 202.40625 C 340.027344 203.160156 340.117188 204.390625 340.785156 205.433594 C 341.917969 207.328125 343.910156 209.878906 345.710938 211.203125 C 347.703125 212.71875 349.691406 214.230469 351.773438 215.554688 C 355.46875 217.824219 359.636719 219.148438 363.238281 221.417969 C 365.324219 222.746094 367.40625 224.445312 369.492188 225.867188 C 370.554688 226.625 371.195312 227.855469 372.523438 228.328125 L 372.523438 228.039062 C 371.859375 227.191406 371.667969 225.960938 371.007812 225.011719 C 370.058594 224.070312 369.113281 223.214844 368.164062 222.269531 C 365.417969 218.582031 362.003906 215.363281 358.308594 212.71875 C 355.277344 210.636719 348.648438 207.796875 347.414062 204.300781 L 347.230469 204.109375 C 349.308594 203.917969 351.773438 203.160156 353.765625 202.59375 C 356.988281 201.746094 359.925781 201.933594 363.238281 201.082031 C 364.753906 200.699219 366.269531 200.230469 367.789062 199.757812 L 367.789062 198.90625 C 366.082031 197.207031 364.851562 194.933594 363.050781 193.328125 C 358.222656 189.164062 352.910156 185.097656 347.414062 181.691406 C 344.480469 179.800781 340.6875 178.570312 337.5625 176.964844 C 336.421875 176.394531 334.53125 176.109375 333.867188 175.164062 C 332.15625 173.085938 331.210938 170.34375 329.980469 167.878906 C 327.234375 162.675781 324.582031 156.90625 322.210938 151.421875 C 320.507812 147.730469 319.460938 144.042969 317.382812 140.636719 C 307.621094 124.554688 297.007812 114.8125 280.710938 105.257812 C 277.207031 103.269531 273.039062 102.414062 268.605469 101.375 L 261.5 100.996094 C 259.980469 100.332031 258.46875 98.535156 257.140625 97.683594 C 251.738281 94.277344 237.8125 86.898438 233.828125 96.644531 C 231.269531 102.792969 237.621094 108.84375 239.773438 111.96875 C 241.390625 114.144531 243.46875 116.605469 244.609375 119.0625 C 245.246094 120.671875 245.460938 122.375 246.125 124.078125 C 247.640625 128.238281 249.0625 132.875 251.050781 136.757812 C 252.113281 138.742188 253.226562 140.828125 254.554688 142.625 C 255.3125 143.664062 256.640625 144.136719 256.921875 145.839844 C 255.597656 147.734375 255.503906 150.566406 254.746094 152.9375 C 251.335938 163.625 252.660156 176.871094 257.492188 184.71875 C 259.011719 187.082031 262.589844 192.289062 267.445312 190.300781 C 271.707031 188.597656 270.757812 183.207031 271.988281 178.476562 C 272.273438 177.339844 272.085938 176.582031 272.652344 175.824219 L 272.652344 176.015625 L 276.539062 183.867188 C 279.472656 188.5 284.59375 193.328125 288.855469 196.546875 C 291.125 198.25 292.925781 201.183594 295.769531 202.222656 L 295.769531 201.9375 L 295.582031 201.9375 C 295.011719 201.085938 294.160156 200.707031 293.402344 200.042969 C 291.695312 198.34375 289.800781 196.261719 288.472656 194.367188 C 284.496094 189.070312 280.992188 183.207031 277.863281 177.152344 C 276.347656 174.21875 275.019531 171.003906 273.792969 168.070312 C 273.21875 166.933594 273.21875 165.230469 272.273438 164.664062 C 270.851562 166.742188 268.769531 168.546875 267.722656 171.097656 C 265.921875 175.164062 265.734375 180.179688 265.070312 185.382812 C 264.691406 185.476562 264.859375 185.382812 264.691406 185.574219 C 261.660156 184.820312 260.617188 181.695312 259.480469 179.046875 C 256.640625 172.332031 256.164062 161.546875 258.625 153.789062 C 259.289062 151.800781 262.136719 145.558594 261 143.667969 C 260.425781 141.867188 258.535156 140.828125 257.492188 139.410156 C 256.257812 137.609375 254.9375 135.34375 254.082031 133.355469 C 251.808594 128.054688 250.671875 122.191406 248.207031 116.894531 C 247.066406 114.433594 245.082031 111.878906 243.46875 109.609375 C 241.667969 107.054688 239.683594 105.257812 238.257812 102.234375 C 237.785156 101.195312 237.121094 99.488281 237.882812 98.351562 C 238.066406 97.59375 238.449219 97.3125 239.203125 97.121094 C 240.4375 96.082031 243.945312 97.40625 245.175781 97.972656 C 248.679688 99.390625 251.617188 100.714844 254.554688 102.699219 C 255.882812 103.644531 257.304688 105.441406 259.007812 105.917969 L 261 105.917969 C 264.035156 106.578125 267.441406 106.109375 270.28125 106.957031 C 275.304688 108.566406 279.851562 110.929688 283.929688 113.488281 C 296.339844 121.339844 306.574219 132.5 313.488281 145.84375 C 314.625 148.015625 315.097656 150.003906 316.144531 152.273438 C 318.136719 156.910156 320.597656 161.640625 322.585938 166.183594 C 324.578125 170.628906 326.46875 175.171875 329.3125 178.863281 C 330.734375 180.851562 336.417969 181.890625 338.972656 182.929688 C 340.871094 183.777344 343.804688 184.542969 345.515625 185.582031 C 348.734375 187.566406 351.957031 189.835938 354.988281 192.011719 C 356.5 193.144531 361.242188 195.511719 361.523438 197.398438 Z M 264.910156 115.183594 C 263.59375 115.171875 262.300781 115.328125 261.027344 115.65625 L 261.027344 115.847656 L 261.214844 115.847656 C 261.972656 117.359375 263.296875 118.402344 264.246094 119.726562 L 266.425781 124.269531 L 266.613281 124.078125 C 267.941406 123.132812 268.605469 121.617188 268.605469 119.347656 C 268.035156 118.6875 267.941406 118.023438 267.46875 117.363281 C 266.898438 116.417969 265.667969 115.941406 264.910156 115.1875 Z M 264.910156 115.183594 " fill-opacity="1" fill-rule="evenodd"/><path fill="#ce8b2c" d="M 163.703125 268.054688 L 199.332031 268.054688 C 203.5 268.054688 207.480469 267.207031 210.699219 265.691406 C 216.101562 263.234375 218.660156 259.925781 218.660156 255.570312 L 218.660156 246.492188 C 218.660156 242.992188 215.722656 239.679688 209.851562 237.410156 C 206.820312 236.277344 203.027344 235.613281 199.332031 235.613281 L 184.359375 235.613281 C 179.339844 235.613281 176.96875 234.097656 176.304688 230.789062 C 176.210938 230.410156 176.210938 230.03125 176.210938 229.652344 L 176.210938 224.070312 C 176.210938 223.785156 176.210938 223.410156 176.304688 223.03125 C 176.96875 220.476562 178.296875 219.8125 182.675781 219.34375 L 219.15625 219.34375 L 219.15625 211.109375 L 184.476562 211.109375 C 179.453125 211.109375 176.800781 211.398438 174.429688 212.152344 C 167.132812 214.421875 163.914062 218.019531 163.914062 224.351562 L 163.914062 231.546875 C 163.914062 237.125 170.167969 241.859375 180.777344 242.992188 C 181.914062 243.089844 183.144531 243.089844 184.378906 243.089844 L 197.171875 243.089844 C 197.644531 243.089844 198.117188 243.089844 198.492188 243.183594 C 202.378906 243.5625 204.085938 244.222656 205.222656 245.640625 C 205.980469 246.394531 206.171875 247.058594 206.171875 247.910156 L 206.171875 255.097656 C 206.171875 255.949219 205.601562 257.089844 204.464844 258.03125 C 203.328125 258.976562 201.523438 259.640625 199.15625 259.734375 C 198.683594 259.734375 198.402344 259.828125 197.925781 259.828125 L 163.703125 259.828125 Z M 295.785156 253.773438 C 295.785156 262.191406 302.15625 266.917969 314.832031 267.871094 C 316.066406 267.964844 317.199219 268.054688 318.433594 268.054688 L 350.648438 268.054688 L 350.648438 259.828125 L 318.148438 259.828125 C 310.945312 259.828125 308.199219 258.03125 308.199219 253.679688 L 308.199219 211.109375 L 295.753906 211.109375 L 295.753906 253.777344 Z M 226.519531 254.148438 L 226.519531 224.828125 C 226.519531 217.351562 231.828125 212.808594 242.15625 211.390625 C 243.292969 211.296875 244.429688 211.203125 245.46875 211.203125 L 268.964844 211.203125 C 270.199219 211.203125 271.242188 211.296875 272.476562 211.390625 C 282.800781 212.808594 288.011719 217.351562 288.011719 224.828125 L 288.011719 254.148438 C 288.011719 260.203125 285.835938 263.421875 280.714844 265.597656 L 292.839844 276.570312 L 278.535156 276.570312 L 268.683594 267.679688 L 258.730469 268.246094 L 245.464844 268.246094 C 243.027344 268.234375 240.625 267.921875 238.265625 267.304688 C 230.40625 265.125 226.519531 260.964844 226.519531 254.148438 Z M 239.878906 253.492188 C 239.878906 253.871094 240.089844 254.246094 240.164062 254.722656 C 240.828125 258.125 244.046875 260.019531 248.976562 260.019531 L 260.15625 260.019531 L 249.925781 250.746094 L 264.230469 250.746094 L 273.230469 258.882812 C 274.941406 257.9375 275.980469 256.609375 276.359375 254.910156 C 276.453125 254.53125 276.453125 254.058594 276.453125 253.679688 L 276.453125 225.582031 C 276.453125 225.203125 276.453125 224.828125 276.359375 224.445312 C 275.695312 221.230469 272.476562 219.4375 267.644531 219.4375 L 248.976562 219.4375 C 243.480469 219.4375 239.882812 221.800781 239.882812 225.582031 Z M 239.878906 253.492188 " fill-opacity="1" fill-rule="evenodd"/></svg>