<svg xmlns="http://www.w3.org/2000/svg" xmlns:xlink="http://www.w3.org/1999/xlink" width="500" zoomAndPan="magnify" viewBox="0 0 375 374.999991" height="500" preserveAspectRatio="xMidYMid meet" version="1.0"><defs><clipPath id="0d4321b2fe"><path d="M 102.1875 0 L 273.1875 0 L 273.1875 323 L 102.1875 323 Z M 102.1875 0 " clip-rule="nonzero"/></clipPath></defs><g clip-path="url(#0d4321b2fe)"><path fill="#689f38" d="M 273.101562 204.546875 C 273.101562 93.75 187.6875 0 187.6875 0 C 187.6875 0 102.273438 93.75 102.273438 204.546875 C 102.273438 295.722656 160.082031 317.625 180.5625 322.527344 L 187.6875 59.660156 L 194.8125 322.527344 C 215.292969 317.625 273.101562 295.722656 273.101562 204.546875 Z M 273.101562 204.546875 " fill-opacity="1" fill-rule="nonzero"/></g><path fill="#689f38" d="M 180.5625 322.527344 L 179.144531 375 L 196.230469 375 L 194.8125 322.527344 C 190.402344 323.582031 187.6875 323.863281 187.6875 323.863281 C 187.6875 323.863281 184.972656 323.582031 180.5625 322.527344 Z M 180.5625 322.527344 " fill-opacity="1" fill-rule="nonzero"/></svg>