<svg xmlns="http://www.w3.org/2000/svg" xmlns:xlink="http://www.w3.org/1999/xlink" width="500" zoomAndPan="magnify" viewBox="0 0 375 374.999991" height="500" preserveAspectRatio="xMidYMid meet" version="1.0"><defs><clipPath id="3d5f552bd6"><path d="M 10 0 L 366.984375 0 L 366.984375 372 L 10 372 Z M 10 0 " clip-rule="nonzero"/></clipPath></defs><path fill="#ffffff" d="M 342.535156 231.152344 C 342.535156 231.171875 342.527344 231.183594 342.503906 231.183594 C 342.484375 231.183594 342.472656 231.171875 342.472656 231.152344 C 342.472656 231.132812 342.484375 231.121094 342.503906 231.121094 C 342.527344 231.121094 342.535156 231.132812 342.535156 231.152344 Z M 342.535156 231.152344 " fill-opacity="1" fill-rule="nonzero"/><path fill="#32648d" d="M 296.605469 228.207031 L 296.636719 228.238281 L 296.636719 228.253906 L 296.589844 228.269531 C 294.34375 229.089844 292.484375 229.433594 290.917969 230.128906 C 289.324219 230.765625 288.039062 231.925781 287.277344 233.414062 L 287.261719 233.445312 C 286.300781 235.226562 285.464844 238.386719 285.710938 243.765625 C 286.347656 244.230469 287.121094 244.585938 287.914062 244.835938 L 287.976562 244.851562 C 290.59375 245.65625 294.980469 246.183594 299.875 246.105469 C 309.636719 245.996094 321.664062 243.6875 328.046875 240.683594 C 333.546875 238.0625 338.257812 234.902344 342.457031 231.152344 C 321.136719 235.613281 309.097656 234.421875 301.703125 231.335938 C 299.78125 230.5 298.09375 229.460938 296.605469 228.207031 Z M 296.605469 228.207031 " fill-opacity="1" fill-rule="nonzero"/><path fill="#32648d" d="M 274.742188 64.324219 L 274.835938 64.460938 L 274.941406 64.585938 Z M 274.742188 64.324219 " fill-opacity="1" fill-rule="nonzero"/><path fill="#32648d" d="M 193.1875 299.054688 C 193.171875 298.667969 193.1875 298.265625 193.171875 297.878906 C 193.171875 297.722656 193.15625 297.613281 193.15625 297.457031 Z M 193.1875 299.054688 " fill-opacity="1" fill-rule="nonzero"/><path fill="#32648d" d="M 176.839844 230.671875 C 175.941406 230.222656 174.886719 229.898438 173.753906 229.742188 L 173.707031 229.742188 L 173.707031 229.710938 L 173.382812 229.710938 C 172.578125 229.789062 171.398438 230.066406 169.105469 232.625 C 163.777344 238.667969 161.917969 242.464844 157.515625 246.011719 C 153.113281 249.546875 147.414062 251.4375 136.007812 253.808594 C 132.398438 254.550781 130.320312 255.371094 128.957031 256.039062 C 129.40625 256.410156 129.359375 256.503906 130.027344 256.859375 C 131.699219 257.789062 133.835938 258.609375 135.574219 259.058594 C 140.46875 260.300781 148.527344 261.742188 156.925781 260.300781 C 165.324219 258.84375 174.066406 254.765625 181.519531 244.183594 C 182.804688 242.355469 182.945312 239.660156 181.890625 236.761719 C 180.835938 233.863281 178.480469 231.367188 176.839844 230.671875 Z M 176.839844 230.671875 " fill-opacity="1" fill-rule="nonzero"/><path fill="#32648d" d="M 239.410156 23.273438 L 238.527344 23.445312 C 238.824219 23.382812 239.148438 23.351562 239.441406 23.289062 C 239.425781 23.289062 239.425781 23.273438 239.410156 23.273438 Z M 239.410156 23.273438 " fill-opacity="1" fill-rule="nonzero"/><path fill="#32648d" d="M 282.519531 106.921875 C 272.121094 107.0625 266.296875 109.773438 263.226562 113.320312 C 258.890625 118.355469 258.488281 127.191406 261.183594 138.066406 C 263.863281 148.960938 269.394531 161.140625 274.601562 171.261719 C 277.207031 176.328125 279.730469 180.882812 281.761719 184.585938 C 283.808594 188.304688 285.308594 190.941406 286.222656 193.1875 C 287.0625 195.261719 288.007812 197.09375 288.953125 198.796875 C 292.980469 190.195312 293.691406 181.75 293.289062 172.949219 C 292.761719 162.054688 290.253906 150.914062 290.625 139.632812 C 291.042969 126.445312 293.617188 117.863281 293.832031 107.664062 C 290.4375 107.199219 286.503906 106.921875 282.519531 106.921875 Z M 284.441406 114.761719 L 284.425781 114.886719 C 284.425781 114.933594 284.425781 114.980469 284.425781 115.042969 C 284.425781 115.753906 284.226562 116.4375 283.867188 116.992188 L 283.882812 116.976562 C 283.402344 117.863281 282.847656 118.636719 282.195312 119.300781 C 280.675781 120.992188 278.648438 122.167969 276.351562 122.574219 L 276.292969 122.585938 C 275.964844 122.632812 275.59375 122.648438 275.207031 122.648438 C 273.253906 122.648438 271.457031 122.03125 269.984375 120.976562 L 270.015625 120.992188 C 269.257812 120.464844 268.589844 119.859375 268.046875 119.179688 L 268.03125 119.164062 C 267.550781 118.636719 267.210938 117.953125 267.070312 117.226562 L 267.070312 117.195312 C 267.070312 117.117188 267.054688 117.039062 267.054688 116.960938 C 267.054688 116.296875 267.304688 115.675781 267.722656 115.210938 C 268.21875 114.636719 268.808594 114.171875 269.488281 113.832031 L 269.519531 113.816406 C 270.992188 112.980469 272.976562 112.359375 275.222656 112.019531 C 276.058594 111.894531 276.894531 111.832031 277.671875 111.816406 L 277.671875 111.863281 L 278.429688 111.863281 C 279.4375 111.894531 280.367188 112.003906 281.1875 112.207031 C 282.007812 112.390625 282.722656 112.671875 283.296875 113.058594 C 283.867188 113.445312 284.300781 114.035156 284.441406 114.761719 Z M 284.441406 114.761719 " fill-opacity="1" fill-rule="nonzero"/><path fill="#32648d" d="M 111.988281 175.210938 C 111.988281 172.421875 112.207031 169.695312 112.609375 167.015625 L 112.578125 167.308594 C 114.15625 155.855469 114.375 145.148438 114.1875 136.6875 C 114.003906 128.445312 113.414062 122.960938 113.414062 119.535156 C 113.414062 119.488281 113.414062 119.441406 113.414062 119.394531 C 113.414062 119.347656 113.414062 119.289062 113.414062 119.242188 L 113.414062 119.164062 L 113.398438 119.070312 L 113.398438 119.054688 C 113.398438 119.023438 113.398438 119.007812 113.398438 118.976562 C 113.398438 100.628906 116.621094 83.042969 122.464844 66.726562 C 126.757812 55.195312 133.140625 43.496094 142.703125 34.011719 C 133.296875 30.882812 116.621094 26.109375 98.554688 25.210938 C 96.816406 25.117188 94.789062 25.058594 92.757812 25.058594 L 92.742188 25.058594 L 92.742188 25.074219 C 90.804688 25.074219 88.851562 25.132812 86.933594 25.242188 C 71.46875 26.140625 56.839844 30.683594 46.394531 41.902344 C 35.917969 53.121094 29.023438 71.511719 30.527344 101.960938 C 30.820312 107.726562 33.300781 123.875 37.546875 143.058594 C 41.808594 162.242188 47.804688 184.820312 55.027344 204.761719 C 62.261719 224.707031 71.03125 242.0625 79.371094 250.273438 C 83.570312 254.378906 87.210938 256.039062 90.511719 255.898438 C 93.828125 255.742188 97.824219 253.808594 102.707031 247.871094 C 112.296875 236.1875 121.363281 225.851562 130.722656 215.8125 L 130.414062 216.136719 C 119.101562 206.140625 111.988281 191.527344 111.988281 175.210938 Z M 111.988281 175.210938 " fill-opacity="1" fill-rule="nonzero"/><path fill="#32648d" d="M 194.410156 24.296875 L 194.410156 24.265625 C 176.3125 24.3125 163.34375 29.84375 153.488281 38.136719 C 143.335938 46.703125 136.535156 58.433594 132.054688 70.445312 C 126.742188 84.699219 124.925781 98.492188 124.199219 107.851562 L 124.402344 107.726562 C 129.871094 104.628906 137.046875 101.527344 144.730469 99.730469 C 152.417969 97.933594 160.691406 97.390625 168.191406 100.335938 C 175.691406 103.28125 181.890625 110.207031 184.136719 120.710938 C 194.90625 171.183594 180.789062 189.949219 175.582031 204.113281 C 173.925781 208.1875 172.207031 213.425781 170.765625 218.769531 L 170.515625 219.808594 C 171.167969 219.652344 171.832031 219.46875 172.484375 219.40625 C 176.15625 219.097656 179.039062 220.335938 180.742188 221.078125 C 185.980469 223.28125 189.578125 227.898438 191.511719 233.167969 C 192.023438 234.546875 192.382812 236.03125 192.597656 237.566406 C 192.800781 238.09375 192.90625 238.714844 192.90625 239.347656 C 192.90625 239.410156 192.90625 239.472656 192.90625 239.535156 C 192.660156 247.28125 192.503906 256.378906 192.503906 265.523438 C 192.503906 276.351562 192.722656 287.136719 193.125 297.878906 C 193.480469 306.027344 193.992188 313.25 194.628906 318.9375 C 195.292969 324.730469 196.222656 329.117188 196.8125 330.605469 C 198.765625 335.5625 201.632812 342.054688 206.808594 346.472656 C 211.984375 350.871094 219.40625 353.816406 232.964844 350.871094 C 244.726562 348.316406 251.976562 344.765625 256.828125 339.667969 C 261.679688 334.570312 264.5625 327.472656 266.40625 316.613281 C 269.179688 300.339844 274.742188 253.15625 275.421875 244.277344 C 275.113281 237.582031 276.089844 232.4375 278.210938 228.515625 C 280.382812 224.488281 283.761719 222.023438 286.65625 220.691406 C 288.113281 220.027344 289.476562 219.578125 290.59375 219.25 C 289.230469 217.28125 288.007812 215.640625 286.734375 214.042969 L 286.875 214.214844 C 282.863281 209.316406 279.4375 203.691406 276.847656 197.632812 L 276.679688 197.183594 C 275.113281 193.945312 273.796875 191.496094 272.417969 189.097656 L 272.742188 189.699219 C 270.710938 185.980469 268.140625 181.332031 265.445312 176.109375 C 260.050781 165.652344 254.195312 152.976562 251.140625 140.625 C 248.105469 128.289062 247.671875 115.523438 255.449219 106.519531 C 262.328125 98.523438 274.433594 95.207031 292.578125 97.066406 C 292.050781 95.4375 291.726562 94.089844 290.8125 91.921875 C 286.394531 81.539062 281.078125 72.582031 274.773438 64.460938 C 259.386719 44.597656 234.515625 24.933594 196.117188 24.296875 Z M 194.410156 24.296875 " fill-opacity="1" fill-rule="nonzero"/><path fill="#32648d" d="M 123.980469 120.402344 L 124.011719 120.386719 L 124.058594 120.339844 Z M 123.980469 120.402344 " fill-opacity="1" fill-rule="nonzero"/><path fill="#32648d" d="M 146.761719 109.914062 L 146.917969 109.898438 L 147.039062 109.851562 Z M 146.761719 109.914062 " fill-opacity="1" fill-rule="nonzero"/><path fill="#32648d" d="M 165.960938 200.46875 C 172.175781 183.515625 184.402344 171.152344 174.113281 122.898438 C 172.421875 114.996094 169.089844 111.800781 164.503906 110.003906 C 162.273438 109.183594 159.683594 108.703125 156.972656 108.703125 C 156.800781 108.703125 156.617188 108.703125 156.445312 108.703125 L 156.476562 108.703125 C 153.175781 108.734375 149.984375 109.152344 146.917969 109.898438 C 140.40625 111.539062 134.675781 113.863281 129.34375 116.839844 C 127.34375 117.9375 125.625 119.085938 124.011719 120.371094 L 123.71875 120.652344 C 123.8125 122.914062 124.246094 128.398438 124.433594 136.472656 C 124.617188 145.304688 124.402344 156.570312 122.710938 168.765625 C 119.054688 195.261719 138.050781 217.207031 160.367188 217.238281 C 161.683594 211.796875 163.824219 206.28125 165.960938 200.46875 Z M 152.773438 123.472656 C 152.046875 122.726562 151.457031 121.890625 150.976562 120.976562 L 150.945312 120.914062 C 150.542969 120.261719 150.308594 119.472656 150.308594 118.621094 C 150.308594 118.464844 150.324219 118.3125 150.339844 118.15625 L 150.339844 118.171875 C 150.574219 116.496094 151.9375 115.628906 153.253906 115.148438 C 154.476562 114.746094 155.84375 114.515625 157.296875 114.515625 C 157.515625 114.515625 157.734375 114.515625 157.980469 114.53125 L 157.964844 114.46875 C 158.769531 114.46875 159.636719 114.546875 160.507812 114.667969 C 162.847656 114.996094 164.9375 115.628906 166.519531 116.558594 C 167.308594 116.992188 167.992188 117.535156 168.53125 118.1875 L 168.546875 118.203125 C 169.074219 118.808594 169.386719 119.597656 169.386719 120.480469 C 169.386719 120.605469 169.386719 120.726562 169.371094 120.851562 L 169.371094 120.835938 C 169.214844 121.765625 168.796875 122.574219 168.222656 123.222656 C 167.585938 123.996094 166.875 124.664062 166.070312 125.222656 L 166.039062 125.238281 C 164.472656 126.382812 162.503906 127.066406 160.382812 127.066406 C 159.964844 127.066406 159.546875 127.035156 159.140625 126.988281 L 159.1875 126.988281 C 156.617188 126.554688 154.417969 125.285156 152.773438 123.472656 Z M 152.773438 123.472656 " fill-opacity="1" fill-rule="nonzero"/><path fill="#32648d" d="M 129.035156 116.992188 C 129.140625 116.933594 129.25 116.902344 129.34375 116.839844 C 129.359375 116.839844 129.375 116.824219 129.390625 116.808594 Z M 129.035156 116.992188 " fill-opacity="1" fill-rule="nonzero"/><path fill="#32648d" d="M 283.03125 58.140625 C 289.742188 66.742188 295.550781 76.535156 300.03125 87.039062 L 300.355469 87.890625 C 302.046875 91.984375 303.175781 95.4375 303.8125 98.121094 C 304.136719 99.46875 304.355469 100.597656 304.433594 101.777344 C 304.460938 102.367188 304.492188 102.96875 304.246094 104.007812 C 304.246094 104.054688 304.167969 104.164062 304.152344 104.210938 C 304.617188 117.785156 301.285156 126.988281 300.898438 139.941406 C 300.589844 149.332031 302.960938 160.367188 303.546875 172.40625 C 304.105469 183.71875 302.757812 196.148438 295.492188 208.34375 C 296.109375 209.085938 296.652344 209.828125 297.242188 210.574219 C 316.441406 179.96875 330.277344 146.109375 337.65625 117.242188 C 341.605469 101.699219 343.699219 87.613281 343.882812 76.457031 C 344.039062 65.300781 341.976562 57.210938 339.375 53.832031 C 318.828125 27.242188 291.042969 20.46875 267.738281 20.285156 L 267.738281 20.300781 L 265.507812 20.300781 C 256.519531 20.4375 247.839844 21.476562 239.457031 23.289062 C 258.488281 31.84375 272.898438 45.015625 283.03125 58.140625 Z M 283.03125 58.140625 " fill-opacity="1" fill-rule="nonzero"/><g clip-path="url(#3d5f552bd6)"><path fill="#ffffff" d="M 196.96875 3.996094 L 196.8125 3.996094 C 178.777344 3.6875 163.296875 8.121094 150.789062 15.496094 C 138.488281 11.171875 112.964844 3.71875 86.046875 5.207031 C 67.3125 6.246094 46.859375 12.007812 31.703125 28.203125 C 16.597656 44.394531 8.617188 69.453125 10.289062 103.542969 C 10.753906 112.949219 13.402344 128.289062 17.789062 148.15625 C 22.191406 168.023438 28.359375 191.28125 36.058594 212.496094 C 43.761719 233.722656 52.191406 252.785156 65.378906 265.738281 C 71.960938 272.230469 81.027344 277.6875 91.703125 277.238281 C 99.203125 276.925781 105.976562 273.59375 111.832031 268.683594 C 114.683594 272.480469 117.722656 274.136719 120.496094 275.671875 C 123.980469 277.609375 127.375 278.925781 130.894531 279.792969 C 137.214844 281.390625 148.03125 283.527344 160.707031 281.34375 C 165.03125 280.613281 169.570312 279.1875 174.097656 277.160156 C 174.265625 282.273438 174.46875 287.277344 174.652344 292.34375 C 175.289062 308.398438 175.675781 323.226562 180.433594 336.230469 C 181.191406 338.351562 183.300781 349.292969 191.558594 358.945312 C 199.820312 368.617188 216.027344 374.644531 234.46875 370.644531 C 247.484375 367.824219 264.019531 362.742188 275.019531 346.90625 C 285.882812 331.253906 290.78125 308.800781 291.757812 272.386719 C 292.003906 270.417969 292.296875 268.746094 292.59375 267.179688 L 295.179688 267.414062 L 295.492188 267.414062 C 309.375 268.046875 324.4375 266.046875 337.019531 260.128906 C 348.160156 254.90625 356.589844 249.621094 362.742188 240.246094 C 364.277344 237.921875 365.949219 235.117188 366.414062 230.285156 C 366.878906 225.449219 364.136719 217.886719 359.582031 214.402344 C 350.46875 207.398438 344.753906 210.0625 338.617188 211.347656 C 333.144531 212.632812 326.824219 213.441406 320.347656 213.609375 L 320.222656 213.609375 C 337.917969 183.441406 350.609375 151.394531 357.847656 123.039062 C 362.136719 106.300781 364.539062 90.867188 364.726562 77.371094 C 364.925781 63.875 363.84375 51.925781 355.847656 41.589844 C 330.882812 9.296875 295.785156 0.371094 268.621094 0.0625 C 267.785156 0.046875 266.933594 0.03125 266.09375 0.046875 L 266.09375 0 C 251.3125 0.125 237.085938 2.355469 223.621094 6.335938 L 222.984375 6.554688 C 215.207031 5.097656 206.171875 4.167969 196.96875 3.996094 Z M 233.675781 13.867188 C 243.160156 11.527344 254.070312 10.117188 265.289062 9.980469 L 265.382812 9.980469 L 265.398438 9.917969 C 291.089844 9.667969 323.894531 16.96875 347.464844 47.449219 C 352.761719 54.296875 354.34375 64.308594 354.15625 76.640625 C 353.957031 88.960938 351.710938 103.714844 347.585938 119.875 C 339.59375 151.175781 324.5 187.671875 303.238281 220.414062 C 303.9375 220.925781 304.742188 221.375 305.578125 221.714844 L 305.65625 221.746094 C 310.085938 223.605469 320.207031 225.203125 340.398438 221.003906 C 345.480469 219.917969 349.199219 219.1875 353.058594 222.164062 C 354.792969 223.652344 355.878906 225.851562 355.878906 228.316406 C 355.878906 228.472656 355.878906 228.625 355.863281 228.78125 L 355.863281 228.765625 C 355.628906 230.734375 354.933594 232.5 353.863281 233.972656 C 349.957031 239.90625 342.257812 245.53125 332.402344 250.164062 C 323.664062 254.289062 311.125 256.441406 300.015625 256.566406 C 294.4375 256.628906 289.308594 256.191406 284.9375 254.8125 L 284.660156 254.707031 C 282.96875 271.132812 279.097656 303.5625 276.570312 318.363281 C 274.554688 330.292969 271.023438 339.777344 264.265625 346.875 C 257.527344 353.972656 247.996094 358.25 235.164062 361.039062 C 219.28125 364.492188 207.691406 360.773438 200.222656 354.40625 C 192.769531 348.050781 189.359375 339.621094 187.296875 334.460938 C 185.886719 330.898438 185.160156 326.28125 184.449219 320.113281 C 183.734375 313.945312 183.222656 306.398438 182.867188 297.890625 C 182.527344 289.246094 182.339844 279.082031 182.339844 268.867188 C 182.339844 265.507812 182.371094 262.160156 182.402344 258.796875 C 176.003906 264.746094 167.914062 268.929688 158.925781 270.527344 L 158.648438 270.574219 C 148.09375 272.386719 138.6875 270.605469 133.0625 269.179688 C 130.074219 268.417969 127.46875 267.351562 125.019531 266.015625 C 122.449219 264.621094 120 263.027344 118.355469 259.914062 C 117.707031 258.71875 117.320312 257.277344 117.320312 255.757812 C 117.320312 255.15625 117.382812 254.550781 117.503906 253.992188 C 118.0625 251.917969 119.226562 250.148438 120.820312 248.910156 L 120.835938 248.894531 C 123.875 246.398438 127.871094 245.003906 133.929688 243.734375 C 144.933594 241.441406 148.777344 239.875 151.117188 238 C 153.097656 236.390625 155.363281 233.136719 159.328125 228.363281 C 159.3125 228.222656 159.296875 227.992188 159.28125 227.773438 L 159.28125 227.726562 C 151.78125 227.511719 144.792969 225.480469 138.6875 222.054688 L 138.921875 222.179688 C 136.628906 224.628906 124.898438 237.179688 110.609375 254.597656 C 104.597656 261.878906 97.949219 266.0625 90.945312 266.359375 C 83.941406 266.652344 77.601562 263.089844 72.210938 257.804688 C 61.441406 247.222656 52.855469 229.011719 45.371094 208.433594 C 37.902344 187.855469 31.828125 164.9375 27.503906 145.414062 C 23.167969 125.886719 20.625 110.144531 20.253906 102.550781 C 18.640625 70.289062 26.09375 48.546875 38.878906 34.835938 C 51.679688 21.121094 69.21875 15.929688 86.3125 14.9375 C 117.007812 13.15625 146.140625 23.988281 152.046875 26.3125 C 163.417969 18.503906 178.0625 13.636719 196.332031 13.945312 C 205.539062 14.085938 214.386719 15.308594 222.847656 17.496094 L 222.070312 17.324219 L 222.382812 17.183594 C 225.339844 16.070312 229.121094 14.9375 232.996094 14.007812 Z M 233.675781 13.867188 " fill-opacity="1" fill-rule="nonzero"/></g></svg>