<svg xmlns="http://www.w3.org/2000/svg" xmlns:xlink="http://www.w3.org/1999/xlink" width="500" zoomAndPan="magnify" viewBox="0 0 375 374.999991" height="500" preserveAspectRatio="xMidYMid meet" version="1.0"><path fill="#b3b3b3" d="M 186.941406 3.003906 L 13.339844 64.101562 L 40.769531 291.554688 L 187.128906 371.992188 L 334.238281 290.464844 L 361.660156 63.019531 Z M 186.941406 3.003906 " fill-opacity="1" fill-rule="nonzero"/><path fill="#a6120d" d="M 344.34375 76.164062 L 186.539062 22.351562 L 186.539062 352.773438 L 318.789062 279.582031 Z M 344.34375 76.164062 " fill-opacity="1" fill-rule="nonzero"/><path fill="#dd1b16" d="M 32.816406 77.136719 L 56.328125 280.554688 L 186.535156 352.773438 L 186.535156 22.34375 Z M 32.816406 77.136719 " fill-opacity="1" fill-rule="nonzero"/><path fill="#f2f2f2" d="M 229.976562 198.25 L 186.539062 218.566406 L 140.753906 218.566406 L 119.230469 272.394531 L 79.199219 273.140625 L 186.539062 34.347656 Z M 225.777344 188.023438 L 186.828125 110.910156 L 154.875 186.695312 L 186.535156 186.695312 Z M 225.777344 188.023438 " fill-opacity="1" fill-rule="nonzero"/><path fill="#b3b3b3" d="M 186.535156 34.347656 L 186.824219 110.910156 L 223.078125 186.753906 L 186.613281 186.753906 L 186.535156 218.515625 L 236.953125 218.566406 L 260.511719 273.144531 L 298.816406 273.855469 Z M 186.535156 34.347656 " fill-opacity="1" fill-rule="nonzero"/></svg>