<svg xmlns="http://www.w3.org/2000/svg" xmlns:xlink="http://www.w3.org/1999/xlink" width="500" zoomAndPan="magnify" viewBox="0 0 375 374.999991" height="500" preserveAspectRatio="xMidYMid meet" version="1.0"><defs><clipPath id="e603cb1dcd"><path d="M 5.15625 0 L 154 0 L 154 93 L 5.15625 93 Z M 5.15625 0 " clip-rule="nonzero"/></clipPath><clipPath id="bc4baf6d45"><path d="M 5.15625 41 L 156 41 L 156 375 L 5.15625 375 Z M 5.15625 41 " clip-rule="nonzero"/></clipPath><clipPath id="7b74b9da9f"><path d="M 288 82 L 369.65625 82 L 369.65625 215 L 288 215 Z M 288 82 " clip-rule="nonzero"/></clipPath><clipPath id="c209f2f958"><path d="M 216 42 L 369.65625 42 L 369.65625 133 L 216 133 Z M 216 42 " clip-rule="nonzero"/></clipPath></defs><g clip-path="url(#e603cb1dcd)"><path fill="#ef0a1b" d="M 80.804688 92.066406 C 79.914062 92.066406 79.082031 91.84375 78.308594 91.394531 L 77.820312 91.113281 L 7.742188 50.464844 C 7.558594 50.359375 7.378906 50.238281 7.207031 50.105469 C 7.035156 49.976562 6.875 49.832031 6.722656 49.679688 C 6.570312 49.527344 6.425781 49.367188 6.296875 49.195312 C 6.164062 49.023438 6.042969 48.84375 5.933594 48.65625 C 5.828125 48.472656 5.730469 48.277344 5.648438 48.078125 C 5.566406 47.878906 5.496094 47.675781 5.4375 47.46875 C 5.378906 47.257812 5.335938 47.046875 5.308594 46.835938 C 5.277344 46.621094 5.261719 46.40625 5.261719 46.1875 C 5.261719 45.972656 5.273438 45.757812 5.300781 45.542969 C 5.324219 45.328125 5.367188 45.117188 5.421875 44.910156 C 5.472656 44.699219 5.542969 44.496094 5.621094 44.296875 C 5.703125 44.09375 5.796875 43.902344 5.902344 43.710938 C 6.007812 43.523438 6.125 43.34375 6.253906 43.171875 C 6.382812 42.996094 6.523438 42.835938 6.675781 42.679688 C 6.824219 42.523438 6.984375 42.378906 7.152344 42.246094 C 7.324219 42.113281 7.5 41.992188 7.6875 41.878906 L 76.109375 0.945312 C 76.898438 0.476562 77.75 0.242188 78.667969 0.242188 C 79.585938 0.242188 80.4375 0.476562 81.226562 0.949219 L 150.953125 42.769531 C 151.136719 42.882812 151.3125 43.003906 151.480469 43.136719 C 151.648438 43.269531 151.808594 43.414062 151.957031 43.566406 C 152.109375 43.722656 152.246094 43.882812 152.375 44.054688 C 152.503906 44.226562 152.621094 44.40625 152.726562 44.59375 C 152.832031 44.78125 152.925781 44.972656 153.007812 45.171875 C 153.089844 45.371094 153.15625 45.578125 153.210938 45.785156 C 153.265625 45.992188 153.304688 46.203125 153.332031 46.414062 C 153.359375 46.628906 153.371094 46.84375 153.371094 47.058594 C 153.371094 47.273438 153.355469 47.488281 153.328125 47.699219 C 153.300781 47.914062 153.257812 48.121094 153.203125 48.332031 C 153.148438 48.539062 153.078125 48.742188 152.996094 48.941406 C 152.914062 49.140625 152.820312 49.332031 152.714844 49.519531 C 152.609375 49.703125 152.488281 49.882812 152.359375 50.054688 C 152.230469 50.226562 152.089844 50.386719 151.941406 50.539062 C 151.789062 50.695312 151.628906 50.835938 151.460938 50.96875 C 151.289062 51.101562 151.113281 51.222656 150.929688 51.332031 L 83.339844 91.371094 C 82.558594 91.835938 81.710938 92.066406 80.804688 92.066406 Z M 20.058594 46.089844 L 80.777344 81.308594 L 138.664062 47.015625 L 78.660156 11.03125 Z M 20.058594 46.089844 " fill-opacity="1" fill-rule="nonzero"/></g><g clip-path="url(#bc4baf6d45)"><path fill="#ef0a1b" d="M 150.382812 375 C 149.523438 375 148.71875 374.792969 147.96875 374.375 L 7.824219 296.535156 C 7.035156 296.09375 6.410156 295.484375 5.949219 294.707031 C 5.492188 293.925781 5.261719 293.082031 5.261719 292.179688 L 5.261719 46.15625 C 5.261719 45.265625 5.484375 44.433594 5.929688 43.660156 C 6.375 42.890625 6.984375 42.28125 7.753906 41.835938 C 8.527344 41.390625 9.359375 41.171875 10.25 41.171875 C 11.140625 41.171875 11.96875 41.398438 12.738281 41.84375 L 82.8125 82.488281 C 83.578125 82.933594 84.183594 83.542969 84.628906 84.3125 C 85.070312 85.082031 85.292969 85.910156 85.292969 86.796875 L 85.292969 247.992188 L 152.890625 287.390625 C 153.65625 287.839844 154.261719 288.445312 154.703125 289.214844 C 155.144531 289.984375 155.363281 290.8125 155.363281 291.699219 L 155.363281 370.015625 C 155.363281 370.34375 155.332031 370.667969 155.269531 370.988281 C 155.207031 371.308594 155.109375 371.621094 154.984375 371.921875 C 154.859375 372.226562 154.707031 372.511719 154.527344 372.785156 C 154.34375 373.058594 154.136719 373.308594 153.90625 373.539062 C 153.675781 373.773438 153.421875 373.976562 153.152344 374.160156 C 152.878906 374.34375 152.59375 374.496094 152.289062 374.621094 C 151.988281 374.746094 151.675781 374.839844 151.355469 374.902344 C 151.035156 374.96875 150.710938 375 150.386719 375 Z M 15.222656 289.246094 L 145.40625 361.550781 L 145.40625 294.5625 L 77.804688 255.160156 C 77.039062 254.714844 76.4375 254.109375 75.996094 253.339844 C 75.554688 252.570312 75.332031 251.742188 75.332031 250.855469 L 75.332031 89.667969 L 15.222656 54.804688 Z M 15.222656 289.246094 " fill-opacity="1" fill-rule="nonzero"/></g><path fill="#ef0a1b" d="M 80.3125 255.839844 C 79.984375 255.839844 79.660156 255.808594 79.339844 255.742188 C 79.019531 255.679688 78.710938 255.585938 78.40625 255.460938 C 78.105469 255.335938 77.816406 255.179688 77.546875 255 C 77.273438 254.816406 77.023438 254.609375 76.792969 254.378906 C 76.558594 254.148438 76.355469 253.898438 76.171875 253.625 C 75.992188 253.351562 75.835938 253.066406 75.710938 252.761719 C 75.585938 252.460938 75.492188 252.148438 75.429688 251.828125 C 75.363281 251.507812 75.332031 251.183594 75.332031 250.855469 L 75.332031 86.800781 C 75.332031 86.175781 75.445312 85.574219 75.671875 84.992188 C 75.898438 84.410156 76.222656 83.890625 76.644531 83.429688 C 77.066406 82.96875 77.558594 82.601562 78.117188 82.328125 C 78.675781 82.050781 79.265625 81.886719 79.890625 81.835938 L 145.855469 42.757812 C 146.042969 42.644531 146.234375 42.546875 146.4375 42.460938 C 146.636719 42.375 146.839844 42.304688 147.050781 42.246094 C 147.261719 42.1875 147.472656 42.140625 147.6875 42.113281 C 147.902344 42.082031 148.117188 42.0625 148.335938 42.0625 C 148.554688 42.058594 148.769531 42.070312 148.988281 42.097656 C 149.203125 42.121094 149.414062 42.164062 149.625 42.214844 C 149.835938 42.269531 150.042969 42.339844 150.246094 42.417969 C 150.449219 42.5 150.644531 42.59375 150.832031 42.699219 C 151.023438 42.808594 151.203125 42.925781 151.378906 43.054688 C 151.550781 43.1875 151.71875 43.328125 151.871094 43.480469 C 152.027344 43.632812 152.171875 43.792969 152.308594 43.964844 C 152.441406 44.136719 152.566406 44.3125 152.675781 44.5 C 152.785156 44.6875 152.886719 44.882812 152.972656 45.082031 C 153.054688 45.28125 153.128906 45.488281 153.1875 45.695312 C 153.246094 45.90625 153.292969 46.117188 153.320312 46.332031 C 153.351562 46.546875 153.371094 46.765625 153.371094 46.984375 L 155.363281 208.996094 C 155.375 209.882812 155.164062 210.714844 154.730469 211.492188 C 154.296875 212.265625 153.699219 212.882812 152.933594 213.335938 L 82.863281 255.136719 C 82.078125 255.605469 81.226562 255.839844 80.3125 255.839844 Z M 85.292969 90.214844 L 85.292969 242.082031 L 145.371094 206.246094 L 143.519531 55.71875 Z M 85.292969 90.214844 " fill-opacity="1" fill-rule="nonzero"/><path fill="#ef0a1b" d="M 150.386719 375 C 150.058594 375 149.734375 374.96875 149.414062 374.902344 C 149.09375 374.839844 148.78125 374.746094 148.480469 374.621094 C 148.175781 374.496094 147.890625 374.34375 147.617188 374.160156 C 147.347656 373.976562 147.09375 373.773438 146.863281 373.539062 C 146.632812 373.308594 146.425781 373.058594 146.242188 372.785156 C 146.0625 372.511719 145.910156 372.226562 145.785156 371.925781 C 145.660156 371.621094 145.5625 371.308594 145.5 370.988281 C 145.4375 370.667969 145.40625 370.34375 145.40625 370.015625 L 145.40625 291.699219 C 145.40625 290.804688 145.628906 289.972656 146.078125 289.199219 C 146.523438 288.425781 147.136719 287.816406 147.910156 287.375 L 290.542969 205.691406 C 290.730469 205.582031 290.925781 205.488281 291.125 205.40625 C 291.328125 205.324219 291.53125 205.253906 291.742188 205.199219 C 291.953125 205.144531 292.164062 205.101562 292.378906 205.074219 C 292.597656 205.046875 292.8125 205.03125 293.03125 205.03125 C 293.246094 205.035156 293.460938 205.046875 293.679688 205.078125 C 293.894531 205.105469 294.105469 205.148438 294.316406 205.207031 C 294.523438 205.261719 294.730469 205.332031 294.929688 205.417969 C 295.132812 205.5 295.324219 205.597656 295.511719 205.703125 C 295.703125 205.8125 295.882812 205.933594 296.054688 206.066406 C 296.226562 206.199219 296.386719 206.34375 296.542969 206.496094 C 296.695312 206.652344 296.839844 206.8125 296.96875 206.988281 C 297.101562 207.160156 297.222656 207.339844 297.332031 207.527344 C 297.4375 207.714844 297.535156 207.910156 297.617188 208.113281 C 297.699219 208.3125 297.769531 208.519531 297.828125 208.726562 C 297.882812 208.9375 297.925781 209.152344 297.953125 209.367188 C 297.980469 209.582031 297.996094 209.796875 297.996094 210.015625 L 297.996094 291.699219 C 297.996094 292.609375 297.765625 293.453125 297.300781 294.234375 C 296.839844 295.019531 296.207031 295.628906 295.410156 296.066406 L 152.78125 374.386719 C 152.035156 374.796875 151.234375 375 150.386719 375 Z M 155.363281 294.585938 L 155.363281 361.597656 L 288.035156 288.75 L 288.035156 218.609375 Z M 155.363281 294.585938 " fill-opacity="1" fill-rule="nonzero"/><path fill="#ef0a1b" d="M 150.382812 296.679688 C 149.488281 296.679688 148.652344 296.453125 147.878906 296.003906 L 77.804688 255.160156 C 77.621094 255.054688 77.441406 254.933594 77.269531 254.800781 C 77.101562 254.667969 76.9375 254.527344 76.785156 254.375 C 76.632812 254.222656 76.492188 254.058594 76.359375 253.886719 C 76.230469 253.714844 76.109375 253.539062 76 253.351562 C 75.894531 253.164062 75.796875 252.96875 75.714844 252.769531 C 75.632812 252.570312 75.5625 252.367188 75.507812 252.160156 C 75.449219 251.953125 75.40625 251.738281 75.378906 251.527344 C 75.347656 251.3125 75.335938 251.097656 75.332031 250.882812 C 75.332031 250.664062 75.34375 250.449219 75.371094 250.238281 C 75.398438 250.023438 75.4375 249.8125 75.492188 249.601562 C 75.546875 249.394531 75.617188 249.1875 75.695312 248.988281 C 75.777344 248.789062 75.871094 248.59375 75.976562 248.40625 C 76.082031 248.21875 76.199219 248.039062 76.332031 247.867188 C 76.460938 247.691406 76.601562 247.53125 76.75 247.375 C 76.902344 247.21875 77.0625 247.078125 77.230469 246.941406 C 77.398438 246.808594 77.578125 246.6875 77.761719 246.578125 L 147.835938 204.777344 C 147.886719 204.746094 147.941406 204.714844 147.996094 204.683594 L 219.070312 165.765625 C 219.820312 165.355469 220.625 165.148438 221.480469 165.152344 C 222.335938 165.15625 223.136719 165.367188 223.882812 165.78125 L 295.441406 205.664062 C 296.222656 206.097656 296.84375 206.703125 297.300781 207.476562 C 297.761719 208.25 297.992188 209.085938 297.996094 209.984375 C 298 210.886719 297.78125 211.722656 297.332031 212.503906 C 296.882812 213.28125 296.269531 213.894531 295.492188 214.339844 L 152.859375 296.023438 C 152.09375 296.460938 151.269531 296.679688 150.382812 296.679688 Z M 90.121094 250.808594 L 150.40625 285.945312 L 282.886719 210.074219 L 221.4375 175.828125 L 152.855469 213.382812 Z M 90.121094 250.808594 " fill-opacity="1" fill-rule="nonzero"/><path fill="#ef0a1b" d="M 293.015625 214.996094 C 292.152344 215 291.34375 214.789062 290.59375 214.367188 L 219.035156 174.488281 C 218.246094 174.046875 217.621094 173.4375 217.164062 172.652344 C 216.703125 171.871094 216.476562 171.027344 216.480469 170.121094 L 216.71875 87.070312 C 216.722656 86.851562 216.734375 86.636719 216.765625 86.421875 C 216.792969 86.207031 216.835938 85.992188 216.890625 85.785156 C 216.949219 85.574219 217.019531 85.371094 217.101562 85.167969 C 217.1875 84.96875 217.28125 84.773438 217.390625 84.585938 C 217.5 84.398438 217.621094 84.21875 217.75 84.046875 C 217.882812 83.875 218.027344 83.714844 218.179688 83.558594 C 218.332031 83.40625 218.496094 83.261719 218.667969 83.132812 C 218.839844 83 219.019531 82.878906 219.207031 82.769531 C 219.394531 82.660156 219.589844 82.566406 219.789062 82.480469 C 219.988281 82.398438 220.195312 82.328125 220.402344 82.273438 C 220.613281 82.214844 220.824219 82.171875 221.039062 82.144531 C 221.253906 82.117188 221.46875 82.101562 221.6875 82.101562 C 221.90625 82.101562 222.121094 82.113281 222.335938 82.140625 C 222.550781 82.167969 222.761719 82.210938 222.972656 82.265625 C 223.183594 82.320312 223.386719 82.390625 223.589844 82.472656 C 223.789062 82.554688 223.984375 82.648438 224.171875 82.757812 L 295.484375 123.527344 C 296.261719 123.972656 296.875 124.582031 297.324219 125.355469 C 297.769531 126.128906 297.996094 126.960938 297.996094 127.855469 L 297.996094 210.015625 C 297.996094 210.34375 297.964844 210.667969 297.898438 210.988281 C 297.835938 211.308594 297.742188 211.621094 297.617188 211.921875 C 297.492188 212.226562 297.339844 212.511719 297.15625 212.785156 C 296.972656 213.054688 296.769531 213.308594 296.535156 213.539062 C 296.304688 213.769531 296.054688 213.976562 295.78125 214.160156 C 295.511719 214.339844 295.222656 214.496094 294.921875 214.621094 C 294.617188 214.746094 294.308594 214.839844 293.988281 214.902344 C 293.667969 214.96875 293.34375 215 293.015625 215 Z M 226.449219 167.210938 L 288.035156 201.535156 L 288.035156 130.746094 L 226.65625 95.65625 L 226.449219 167.214844 Z M 226.449219 167.210938 " fill-opacity="1" fill-rule="nonzero"/><g clip-path="url(#7b74b9da9f)"><path fill="#ef0a1b" d="M 293.015625 214.996094 C 292.6875 215 292.363281 214.964844 292.042969 214.902344 C 291.722656 214.839844 291.410156 214.742188 291.109375 214.617188 C 290.808594 214.492188 290.519531 214.339844 290.25 214.160156 C 289.976562 213.976562 289.726562 213.769531 289.492188 213.539062 C 289.261719 213.308594 289.054688 213.054688 288.875 212.785156 C 288.691406 212.511719 288.539062 212.222656 288.414062 211.921875 C 288.289062 211.621094 288.195312 211.308594 288.128906 210.988281 C 288.066406 210.667969 288.035156 210.34375 288.035156 210.015625 L 288.035156 127.855469 C 288.035156 126.960938 288.261719 126.125 288.710938 125.351562 C 289.160156 124.578125 289.773438 123.96875 290.550781 123.527344 L 362.105469 82.753906 C 362.292969 82.648438 362.488281 82.550781 362.691406 82.46875 C 362.890625 82.386719 363.097656 82.320312 363.308594 82.265625 C 363.515625 82.210938 363.730469 82.167969 363.945312 82.140625 C 364.160156 82.113281 364.375 82.101562 364.59375 82.101562 C 364.808594 82.101562 365.027344 82.117188 365.242188 82.148438 C 365.457031 82.175781 365.667969 82.21875 365.878906 82.277344 C 366.085938 82.332031 366.292969 82.402344 366.492188 82.488281 C 366.691406 82.570312 366.886719 82.667969 367.074219 82.777344 C 367.261719 82.886719 367.441406 83.007812 367.613281 83.140625 C 367.785156 83.269531 367.945312 83.414062 368.101562 83.570312 C 368.253906 83.722656 368.394531 83.886719 368.527344 84.058594 C 368.660156 84.230469 368.777344 84.410156 368.886719 84.597656 C 368.996094 84.789062 369.089844 84.980469 369.175781 85.183594 C 369.257812 85.382812 369.328125 85.589844 369.382812 85.796875 C 369.4375 86.007812 369.480469 86.21875 369.507812 86.433594 C 369.535156 86.652344 369.550781 86.867188 369.550781 87.082031 L 369.550781 170.136719 C 369.550781 171.039062 369.324219 171.882812 368.863281 172.660156 C 368.40625 173.441406 367.785156 174.050781 366.996094 174.488281 L 295.4375 214.367188 C 294.683594 214.789062 293.878906 215 293.015625 215 Z M 297.996094 130.75 L 297.996094 201.535156 L 359.589844 167.207031 L 359.589844 95.65625 Z M 297.996094 130.75 " fill-opacity="1" fill-rule="nonzero"/></g><g clip-path="url(#c209f2f958)"><path fill="#ef0a1b" d="M 293.015625 132.835938 C 292.132812 132.835938 291.308594 132.617188 290.542969 132.179688 L 219.230469 91.410156 C 218.453125 90.964844 217.835938 90.351562 217.390625 89.574219 C 216.941406 88.796875 216.71875 87.960938 216.722656 87.0625 C 216.722656 86.167969 216.953125 85.332031 217.410156 84.558594 C 217.863281 83.785156 218.480469 83.175781 219.265625 82.738281 L 290.578125 42.699219 C 291.332031 42.273438 292.144531 42.0625 293.011719 42.0625 C 293.878906 42.0625 294.691406 42.273438 295.445312 42.695312 L 367 82.734375 C 367.785156 83.171875 368.40625 83.78125 368.863281 84.554688 C 369.316406 85.328125 369.546875 86.164062 369.550781 87.0625 C 369.554688 87.960938 369.332031 88.800781 368.882812 89.578125 C 368.429688 90.355469 367.816406 90.96875 367.035156 91.414062 L 295.480469 132.183594 C 294.714844 132.621094 293.894531 132.835938 293.015625 132.835938 Z M 231.808594 87.121094 L 293.019531 122.117188 L 354.4375 87.121094 L 293.019531 52.757812 Z M 231.808594 87.121094 " fill-opacity="1" fill-rule="nonzero"/></g></svg>