<svg xmlns="http://www.w3.org/2000/svg" xmlns:xlink="http://www.w3.org/1999/xlink" width="500" zoomAndPan="magnify" viewBox="0 0 375 374.999991" height="500" preserveAspectRatio="xMidYMid meet" version="1.0"><path fill="#68bd45" d="M 331.222656 28.992188 C 326.269531 40.867188 319.992188 52 312.394531 62.382812 C 310.335938 60.316406 308.226562 58.300781 306.066406 56.335938 C 303.90625 54.371094 301.699219 52.464844 299.445312 50.609375 C 297.191406 48.753906 294.890625 46.957031 292.550781 45.214844 C 290.207031 43.476562 287.820312 41.792969 285.394531 40.171875 C 282.96875 38.550781 280.503906 36.988281 278 35.488281 C 275.496094 33.988281 272.953125 32.550781 270.378906 31.175781 C 267.804688 29.800781 265.195312 28.492188 262.554688 27.246094 C 259.917969 26 257.246094 24.820312 254.546875 23.710938 C 251.851562 22.597656 249.125 21.550781 246.375 20.574219 C 243.625 19.59375 240.851562 18.6875 238.054688 17.84375 C 235.261719 17.003906 232.445312 16.234375 229.613281 15.53125 C 226.78125 14.832031 223.929688 14.203125 221.066406 13.640625 C 218.199219 13.082031 215.324219 12.59375 212.433594 12.175781 C 209.546875 11.757812 206.648438 11.414062 203.742188 11.140625 C 200.835938 10.867188 197.925781 10.664062 195.007812 10.535156 C 192.09375 10.40625 189.175781 10.347656 186.253906 10.363281 C 183.335938 10.378906 180.417969 10.464844 177.503906 10.625 C 174.589844 10.785156 171.683594 11.015625 168.777344 11.320312 C 165.875 11.625 162.980469 12 160.097656 12.445312 C 157.210938 12.894531 154.339844 13.410156 151.480469 14 C 148.621094 14.589844 145.78125 15.25 142.953125 15.980469 C 140.128906 16.710938 137.320312 17.511719 134.535156 18.378906 C 131.75 19.25 128.984375 20.1875 126.246094 21.195312 C 123.503906 22.199219 120.792969 23.273438 118.105469 24.414062 C 115.417969 25.554688 112.761719 26.761719 110.132812 28.035156 C 107.507812 29.304688 104.914062 30.644531 102.351562 32.042969 C 99.789062 33.445312 97.265625 34.90625 94.777344 36.433594 C 92.289062 37.960938 89.839844 39.546875 87.429688 41.195312 C 85.019531 42.839844 82.652344 44.546875 80.328125 46.3125 C 78.003906 48.078125 75.722656 49.898438 73.488281 51.777344 C 71.253906 53.652344 69.066406 55.585938 66.925781 57.570312 C 64.789062 59.558594 62.699219 61.59375 60.660156 63.683594 C 58.621094 65.773438 56.636719 67.914062 54.703125 70.101562 C 52.773438 72.289062 50.894531 74.523438 49.074219 76.804688 C 47.25 79.085938 45.488281 81.410156 43.78125 83.777344 C 42.074219 86.144531 40.429688 88.554688 38.839844 91.003906 C 37.253906 93.453125 35.730469 95.941406 34.265625 98.46875 C 32.800781 100.992188 31.402344 103.554688 30.0625 106.148438 C 28.726562 108.742188 27.457031 111.371094 26.25 114.027344 C 25.042969 116.6875 23.902344 119.371094 22.828125 122.085938 C 21.753906 124.800781 20.75 127.539062 19.8125 130.304688 C 18.871094 133.070312 18.003906 135.855469 17.203125 138.660156 C 16.402344 141.46875 15.675781 144.292969 15.015625 147.136719 C 14.355469 149.980469 13.765625 152.839844 13.246094 155.710938 C 12.730469 158.585938 12.28125 161.46875 11.90625 164.363281 C 11.53125 167.257812 11.226562 170.160156 10.996094 173.070312 C 10.765625 175.980469 10.605469 178.894531 10.519531 181.8125 C 10.429688 184.730469 10.417969 187.648438 10.472656 190.566406 C 10.53125 193.484375 10.660156 196.398438 10.863281 199.3125 C 11.0625 202.222656 11.339844 205.128906 11.683594 208.027344 C 12.03125 210.925781 12.445312 213.8125 12.9375 216.691406 C 13.425781 219.570312 13.984375 222.433594 14.617188 225.28125 C 15.246094 228.132812 15.949219 230.964844 16.71875 233.78125 C 17.488281 236.597656 18.332031 239.390625 19.238281 242.164062 C 20.148438 244.9375 21.128906 247.6875 22.171875 250.414062 C 23.21875 253.136719 24.332031 255.835938 25.511719 258.503906 C 26.691406 261.175781 27.9375 263.816406 29.246094 266.421875 C 30.558594 269.03125 31.929688 271.605469 33.367188 274.144531 C 34.808594 276.6875 36.308594 279.191406 37.867188 281.65625 C 39.429688 284.121094 41.054688 286.546875 42.734375 288.933594 C 44.417969 291.320312 46.15625 293.660156 47.957031 295.960938 C 49.753906 298.261719 51.609375 300.511719 53.515625 302.722656 C 55.425781 304.929688 57.390625 307.085938 59.40625 309.199219 C 61.425781 311.308594 63.492188 313.367188 65.609375 315.375 L 72.140625 321.140625 C 75.238281 323.75 78.421875 326.25 81.691406 328.640625 C 84.960938 331.03125 88.304688 333.304688 91.730469 335.464844 C 95.15625 337.625 98.652344 339.667969 102.21875 341.585938 C 105.785156 343.507812 109.410156 345.300781 113.101562 346.972656 C 116.789062 348.644531 120.53125 350.183594 124.324219 351.597656 C 128.121094 353.011719 131.960938 354.292969 135.84375 355.441406 C 139.726562 356.589844 143.644531 357.605469 147.597656 358.484375 C 151.550781 359.363281 155.527344 360.105469 159.53125 360.710938 C 163.535156 361.320312 167.558594 361.785156 171.59375 362.117188 C 175.628906 362.445312 179.671875 362.636719 183.722656 362.6875 C 187.769531 362.738281 191.816406 362.652344 195.859375 362.425781 C 199.902344 362.199219 203.933594 361.832031 207.953125 361.328125 C 211.972656 360.824219 215.96875 360.183594 219.941406 359.40625 C 223.914062 358.625 227.859375 357.710938 231.769531 356.660156 C 235.679688 355.613281 239.550781 354.429688 243.378906 353.113281 C 247.210938 351.796875 250.988281 350.351562 254.71875 348.773438 C 258.449219 347.199219 262.121094 345.496094 265.734375 343.667969 C 269.347656 341.839844 272.894531 339.886719 276.375 337.816406 C 279.855469 335.742188 283.257812 333.554688 286.585938 331.246094 C 289.914062 328.941406 293.160156 326.523438 296.320312 323.992188 C 299.484375 321.464844 302.554688 318.828125 305.539062 316.085938 C 308.519531 313.347656 311.402344 310.503906 314.1875 307.566406 C 316.972656 304.628906 319.652344 301.59375 322.230469 298.472656 C 324.808594 295.347656 327.277344 292.140625 329.632812 288.847656 C 331.988281 285.554688 334.230469 282.183594 336.355469 278.734375 C 338.480469 275.289062 340.484375 271.769531 342.367188 268.1875 C 344.25 264.601562 346.007812 260.953125 347.636719 257.25 C 349.269531 253.542969 350.773438 249.785156 352.148438 245.976562 C 353.519531 242.164062 354.761719 238.3125 355.871094 234.417969 C 356.980469 230.523438 357.953125 226.59375 358.792969 222.632812 C 359.628906 218.671875 360.332031 214.6875 360.898438 210.675781 C 361.460938 206.664062 361.886719 202.640625 362.175781 198.601562 C 366.992188 153.613281 353.78125 96.675781 331.226562 28.996094 Z M 90.75 316.398438 C 90.125 317.171875 89.429688 317.875 88.667969 318.507812 C 87.90625 319.144531 87.085938 319.695312 86.214844 320.171875 C 85.34375 320.644531 84.433594 321.027344 83.484375 321.324219 C 82.539062 321.617188 81.570312 321.816406 80.582031 321.921875 C 79.597656 322.023438 78.609375 322.03125 77.621094 321.941406 C 76.632812 321.847656 75.664062 321.664062 74.710938 321.378906 C 73.761719 321.097656 72.84375 320.726562 71.964844 320.265625 C 71.089844 319.800781 70.265625 319.257812 69.492188 318.632812 C 68.722656 318.011719 68.019531 317.316406 67.382812 316.550781 C 66.75 315.789062 66.195312 314.972656 65.722656 314.097656 C 65.25 313.226562 64.867188 312.316406 64.570312 311.371094 C 64.277344 310.421875 64.078125 309.453125 63.976562 308.46875 C 63.871094 307.480469 63.867188 306.492188 63.957031 305.503906 C 64.046875 304.515625 64.234375 303.546875 64.515625 302.59375 C 64.800781 301.644531 65.171875 300.730469 65.632812 299.851562 C 66.097656 298.972656 66.640625 298.148438 67.265625 297.378906 C 67.890625 296.605469 68.585938 295.902344 69.347656 295.269531 C 70.113281 294.636719 70.929688 294.082031 71.800781 293.609375 C 72.675781 293.136719 73.585938 292.753906 74.53125 292.460938 C 75.480469 292.164062 76.449219 291.96875 77.4375 291.863281 C 78.421875 291.761719 79.410156 291.753906 80.398438 291.847656 C 81.386719 291.9375 82.355469 292.125 83.308594 292.410156 C 84.257812 292.691406 85.171875 293.0625 86.050781 293.527344 C 86.929688 293.992188 87.753906 294.535156 88.523438 295.160156 C 89.292969 295.785156 89.996094 296.476562 90.628906 297.242188 C 91.261719 298.003906 91.816406 298.820312 92.289062 299.691406 C 92.757812 300.5625 93.144531 301.472656 93.4375 302.417969 C 93.730469 303.367188 93.929688 304.332031 94.03125 305.320312 C 94.132812 306.304688 94.140625 307.292969 94.050781 308.277344 C 93.957031 309.265625 93.773438 310.234375 93.492188 311.183594 C 93.210938 312.136719 92.839844 313.050781 92.375 313.925781 C 91.914062 314.804688 91.371094 315.628906 90.75 316.398438 Z M 330.496094 263.480469 C 286.882812 321.574219 193.765625 301.972656 134.0625 304.789062 C 134.0625 304.789062 123.480469 305.414062 112.824219 307.160156 C 112.824219 307.160156 116.84375 305.453125 121.980469 303.507812 C 163.910156 288.914062 183.726562 286.105469 209.195312 273 C 257.148438 248.625 304.582031 195.238281 314.4375 139.742188 C 296.195312 193.128906 240.796875 239.035156 190.375 257.683594 C 155.816406 270.417969 93.382812 282.824219 93.382812 282.824219 L 90.863281 281.476562 C 48.386719 260.824219 47.074219 168.828125 124.328125 139.15625 C 158.15625 126.128906 190.519531 133.28125 227.046875 124.566406 C 266.058594 115.296875 311.1875 86.074219 329.554688 47.933594 C 350.09375 108.949219 374.839844 204.445312 330.46875 263.519531 Z M 330.496094 263.480469 " fill-opacity="1" fill-rule="nonzero"/></svg>