<svg xmlns="http://www.w3.org/2000/svg" xmlns:xlink="http://www.w3.org/1999/xlink" width="500" zoomAndPan="magnify" viewBox="0 0 375 374.999991" height="500" preserveAspectRatio="xMidYMid meet" version="1.0"><path fill="#0d2e1e" d="M 331.066406 94.6875 L 331.066406 94.671875 L 270.214844 94.671875 L 270.214844 215.71875 C 270.214844 269.0625 267.449219 289.375 258.75 306.890625 C 250.460938 324.015625 237.40625 335.171875 210.53125 347.90625 L 267.042969 375 C 293.917969 361.46875 306.957031 349.125 316.839844 329.609375 C 327.503906 309.3125 331.066406 285.8125 331.066406 236.84375 Z M 331.066406 94.6875 " fill-opacity="1" fill-rule="nonzero"/><path fill="#0d2e1e" d="M 234.234375 283.84375 L 234.234375 0 L 173.382812 0 L 173.382812 93.5 C 164.296875 91.109375 156.785156 90.3125 146.917969 90.3125 C 83.285156 90.3125 42.183594 130.921875 42.183594 193.4375 C 42.183594 258.34375 80.910156 292.1875 155.207031 292.1875 C 180.097656 292.203125 203.019531 289.8125 234.234375 283.84375 Z M 104.222656 192.25 C 104.222656 158.796875 121.996094 139.6875 152.835938 139.6875 L 152.773438 139.6875 C 153.210938 139.65625 153.628906 139.65625 154.050781 139.65625 C 160.96875 139.65625 167.605469 140.828125 173.367188 142.859375 L 173.367188 241.203125 C 164.6875 242.40625 159.144531 242.796875 152.429688 242.796875 C 121.230469 242.8125 104.222656 224.90625 104.222656 192.25 Z M 104.222656 192.25 " fill-opacity="1" fill-rule="nonzero"/><path fill="#0d2e1e" d="M 270.214844 0.328125 L 331.066406 0.328125 L 331.066406 63.234375 L 270.214844 63.234375 Z M 270.214844 0.328125 " fill-opacity="1" fill-rule="nonzero"/></svg>