<svg xmlns="http://www.w3.org/2000/svg" xmlns:xlink="http://www.w3.org/1999/xlink" width="500" zoomAndPan="magnify" viewBox="0 0 375 374.999991" height="500" preserveAspectRatio="xMidYMid meet" version="1.0"><defs><clipPath id="af10d3249a"><path d="M 16 75.683594 L 359 75.683594 L 359 193 L 16 193 Z M 16 75.683594 " clip-rule="nonzero"/></clipPath></defs><g clip-path="url(#af10d3249a)"><path fill="#252f3e" d="M 106.222656 156.664062 C 106.222656 161.246094 106.71875 164.960938 107.585938 167.6875 C 108.574219 170.410156 109.816406 173.382812 111.550781 176.601562 C 112.167969 177.59375 112.417969 178.582031 112.417969 179.449219 C 112.417969 180.6875 111.671875 181.925781 110.0625 183.164062 L 102.257812 188.367188 C 101.140625 189.109375 100.027344 189.480469 99.035156 189.480469 C 97.796875 189.480469 96.558594 188.859375 95.320312 187.746094 C 93.585938 185.890625 92.097656 183.90625 90.859375 181.925781 C 89.621094 179.820312 88.378906 177.46875 87.015625 174.621094 C 77.351562 186.011719 65.210938 191.707031 50.589844 191.707031 C 40.183594 191.707031 31.882812 188.738281 25.8125 182.792969 C 19.738281 176.847656 16.644531 168.925781 16.644531 159.019531 C 16.644531 148.492188 20.359375 139.949219 27.917969 133.507812 C 35.476562 127.070312 45.511719 123.851562 58.273438 123.851562 C 62.484375 123.851562 66.820312 124.222656 71.40625 124.839844 C 75.992188 125.460938 80.699219 126.453125 85.65625 127.566406 L 85.65625 118.527344 C 85.65625 109.117188 83.671875 102.550781 79.832031 98.714844 C 75.867188 94.875 69.175781 93.019531 59.636719 93.019531 C 55.300781 93.019531 50.839844 93.511719 46.253906 94.628906 C 41.671875 95.742188 37.210938 97.105469 32.875 98.835938 C 30.890625 99.703125 29.402344 100.199219 28.535156 100.449219 C 27.667969 100.695312 27.050781 100.820312 26.554688 100.820312 C 24.820312 100.820312 23.953125 99.582031 23.953125 96.980469 L 23.953125 90.914062 C 23.953125 88.929688 24.199219 87.445312 24.820312 86.578125 C 25.441406 85.710938 26.554688 84.84375 28.289062 83.976562 C 32.625 81.75 37.828125 79.890625 43.902344 78.40625 C 49.972656 76.796875 56.414062 76.054688 63.230469 76.054688 C 77.972656 76.054688 88.753906 79.398438 95.691406 86.082031 C 102.503906 92.769531 105.972656 102.925781 105.972656 116.546875 L 105.972656 156.664062 Z M 55.917969 175.488281 C 60.007812 175.488281 64.21875 174.746094 68.679688 173.257812 C 73.140625 171.773438 77.105469 169.046875 80.449219 165.332031 C 82.433594 162.980469 83.921875 160.378906 84.664062 157.410156 C 85.40625 154.4375 85.902344 150.84375 85.902344 146.636719 L 85.902344 141.433594 C 82.308594 140.566406 78.46875 139.824219 74.503906 139.328125 C 70.539062 138.835938 66.699219 138.585938 62.855469 138.585938 C 54.554688 138.585938 48.484375 140.195312 44.394531 143.539062 C 40.308594 146.882812 38.324219 151.589844 38.324219 157.78125 C 38.324219 163.601562 39.8125 167.933594 42.910156 170.90625 C 45.882812 174 50.21875 175.488281 55.917969 175.488281 Z M 155.410156 188.859375 C 153.179688 188.859375 151.691406 188.488281 150.703125 187.621094 C 149.710938 186.878906 148.84375 185.144531 148.101562 182.792969 L 118.984375 87.074219 C 118.238281 84.597656 117.867188 82.988281 117.867188 82.121094 C 117.867188 80.140625 118.859375 79.023438 120.84375 79.023438 L 132.984375 79.023438 C 135.339844 79.023438 136.949219 79.398438 137.816406 80.261719 C 138.808594 81.007812 139.550781 82.738281 140.292969 85.09375 L 161.109375 167.066406 L 180.4375 85.09375 C 181.058594 82.617188 181.800781 81.007812 182.792969 80.261719 C 183.78125 79.519531 185.519531 79.023438 187.746094 79.023438 L 197.660156 79.023438 C 200.015625 79.023438 201.625 79.398438 202.617188 80.261719 C 203.605469 81.007812 204.472656 82.738281 204.96875 85.09375 L 224.546875 168.058594 L 245.980469 85.09375 C 246.722656 82.617188 247.589844 81.007812 248.457031 80.261719 C 249.449219 79.519531 251.058594 79.023438 253.289062 79.023438 L 264.8125 79.023438 C 266.796875 79.023438 267.910156 80.015625 267.910156 82.121094 C 267.910156 82.738281 267.785156 83.359375 267.664062 84.101562 C 267.539062 84.84375 267.292969 85.835938 266.796875 87.199219 L 236.9375 182.917969 C 236.191406 185.394531 235.324219 187.003906 234.332031 187.746094 C 233.34375 188.488281 231.730469 188.984375 229.625 188.984375 L 218.96875 188.984375 C 216.617188 188.984375 215.003906 188.613281 214.015625 187.746094 C 213.023438 186.878906 212.15625 185.269531 211.660156 182.792969 L 192.457031 102.925781 L 173.375 182.667969 C 172.757812 185.144531 172.011719 186.753906 171.019531 187.621094 C 170.03125 188.488281 168.296875 188.859375 166.066406 188.859375 Z M 314.621094 192.203125 C 308.179688 192.203125 301.734375 191.460938 295.539062 189.976562 C 289.34375 188.488281 284.511719 186.878906 281.292969 185.023438 C 279.308594 183.90625 277.945312 182.667969 277.449219 181.554688 C 276.957031 180.441406 276.707031 179.203125 276.707031 178.085938 L 276.707031 171.773438 C 276.707031 169.171875 277.699219 167.933594 279.558594 167.933594 C 280.300781 167.933594 281.042969 168.058594 281.789062 168.304688 C 282.53125 168.554688 283.644531 169.046875 284.886719 169.542969 C 289.097656 171.402344 293.683594 172.886719 298.515625 173.878906 C 303.46875 174.867188 308.300781 175.363281 313.257812 175.363281 C 321.0625 175.363281 327.132812 174 331.347656 171.277344 C 335.558594 168.554688 337.789062 164.589844 337.789062 159.511719 C 337.789062 156.046875 336.675781 153.199219 334.445312 150.84375 C 332.214844 148.492188 328.003906 146.386719 321.929688 144.40625 L 303.964844 138.835938 C 294.921875 135.984375 288.230469 131.777344 284.140625 126.203125 C 280.054688 120.753906 277.945312 114.6875 277.945312 108.25 C 277.945312 103.046875 279.0625 98.464844 281.292969 94.503906 C 283.523438 90.542969 286.496094 87.074219 290.210938 84.351562 C 293.929688 81.5 298.140625 79.398438 303.097656 77.910156 C 308.054688 76.425781 313.257812 75.804688 318.710938 75.804688 C 321.433594 75.804688 324.285156 75.929688 327.011719 76.300781 C 329.859375 76.671875 332.460938 77.167969 335.0625 77.664062 C 337.542969 78.28125 339.894531 78.902344 342.125 79.644531 C 344.355469 80.386719 346.089844 81.128906 347.332031 81.875 C 349.066406 82.863281 350.304688 83.855469 351.046875 84.96875 C 351.789062 85.960938 352.164062 87.320312 352.164062 89.054688 L 352.164062 94.875 C 352.164062 97.476562 351.171875 98.835938 349.3125 98.835938 C 348.320312 98.835938 346.710938 98.34375 344.605469 97.351562 C 337.542969 94.132812 329.613281 92.523438 320.816406 92.523438 C 313.753906 92.523438 308.179688 93.636719 304.335938 95.988281 C 300.496094 98.34375 298.515625 101.933594 298.515625 107.011719 C 298.515625 110.476562 299.753906 113.449219 302.230469 115.800781 C 304.707031 118.15625 309.292969 120.507812 315.859375 122.613281 L 333.453125 128.183594 C 342.375 131.03125 348.816406 134.996094 352.65625 140.074219 C 356.5 145.148438 358.355469 150.96875 358.355469 157.410156 C 358.355469 162.734375 357.242188 167.5625 355.136719 171.773438 C 352.90625 175.984375 349.933594 179.699219 346.089844 182.667969 C 342.25 185.765625 337.667969 187.992188 332.339844 189.605469 C 326.761719 191.335938 320.941406 192.203125 314.621094 192.203125 Z M 314.621094 192.203125 " fill-opacity="1" fill-rule="nonzero"/></g><path fill="#ff9900" d="M 338.039062 252.382812 C 297.273438 282.476562 238.050781 298.449219 187.128906 298.449219 C 115.761719 298.449219 51.457031 272.074219 2.890625 228.238281 C -0.949219 224.769531 2.519531 220.066406 7.101562 222.789062 C 59.636719 253.25 124.433594 271.703125 191.464844 271.703125 C 236.6875 271.703125 286.371094 262.289062 332.089844 242.972656 C 338.90625 239.878906 344.726562 247.429688 338.039062 252.382812 Z M 355.011719 233.066406 C 349.808594 226.378906 320.566406 229.847656 307.3125 231.457031 C 303.347656 231.953125 302.726562 228.484375 306.320312 225.886719 C 329.613281 209.539062 367.898438 214.246094 372.359375 219.695312 C 376.820312 225.265625 371.117188 263.527344 349.3125 281.855469 C 345.96875 284.703125 342.746094 283.21875 344.234375 279.503906 C 349.1875 267.242188 360.214844 239.628906 355.011719 233.066406 Z M 355.011719 233.066406 " fill-opacity="1" fill-rule="nonzero"/></svg>