<svg xmlns="http://www.w3.org/2000/svg" xmlns:xlink="http://www.w3.org/1999/xlink" width="500" zoomAndPan="magnify" viewBox="0 0 375 374.999991" height="500" preserveAspectRatio="xMidYMid meet" version="1.0"><defs><clipPath id="f43df7b4ee"><path d="M 51 43.265625 L 281 43.265625 L 281 148 L 51 148 Z M 51 43.265625 " clip-rule="nonzero"/></clipPath><clipPath id="f871889fdc"><path d="M 179 78 L 367.269531 78 L 367.269531 332 L 179 332 Z M 179 78 " clip-rule="nonzero"/></clipPath><clipPath id="6c8ecfcfcf"><path d="M 8.019531 129 L 190 129 L 190 312 L 8.019531 312 Z M 8.019531 129 " clip-rule="nonzero"/></clipPath></defs><g clip-path="url(#f43df7b4ee)"><path fill="#ea4335" d="M 246.859375 122.90625 L 278.046875 91.714844 L 280.125 78.582031 C 223.292969 26.894531 132.953125 32.757812 81.722656 90.808594 C 67.492188 106.933594 56.933594 127.035156 51.304688 147.792969 L 62.476562 146.21875 L 124.847656 135.929688 L 129.664062 131.003906 C 157.410156 100.53125 204.320312 96.429688 236.355469 122.359375 Z M 246.859375 122.90625 " fill-opacity="1" fill-rule="nonzero"/></g><g clip-path="url(#f871889fdc)"><path fill="#4285f4" d="M 322.476562 146.875 C 315.304688 120.472656 300.589844 96.738281 280.125 78.582031 L 236.355469 122.359375 C 254.839844 137.464844 265.367188 160.21875 264.917969 184.085938 L 264.917969 191.855469 C 286.429688 191.855469 303.871094 209.300781 303.871094 230.820312 C 303.871094 252.335938 286.429688 269.34375 264.917969 269.34375 L 186.894531 269.34375 L 179.234375 277.660156 L 179.234375 324.394531 L 186.894531 331.726562 L 264.917969 331.726562 C 320.878906 332.164062 366.597656 287.582031 367.03125 231.613281 C 367.296875 197.6875 350.570312 165.882812 322.476562 146.875 " fill-opacity="1" fill-rule="nonzero"/></g><path fill="#34a853" d="M 108.980469 331.726562 L 186.894531 331.726562 L 186.894531 269.34375 L 108.980469 269.34375 C 103.429688 269.34375 98.054688 268.148438 93.007812 265.84375 L 81.953125 269.234375 L 50.546875 300.425781 L 47.8125 311.042969 C 65.421875 324.34375 86.914062 331.824219 108.980469 331.726562 " fill-opacity="1" fill-rule="nonzero"/><g clip-path="url(#6c8ecfcfcf)"><path fill="#fbbc05" d="M 108.980469 129.363281 C 53.019531 129.699219 7.925781 175.34375 8.257812 231.3125 C 8.445312 262.566406 23.039062 291.988281 47.8125 311.042969 L 93.007812 265.84375 C 73.398438 256.980469 64.683594 233.902344 73.542969 214.292969 C 82.402344 194.683594 105.476562 185.96875 125.082031 194.828125 C 133.722656 198.730469 140.640625 205.652344 144.546875 214.292969 L 189.742188 169.09375 C 170.511719 143.949219 140.632812 129.25 108.980469 129.363281 " fill-opacity="1" fill-rule="nonzero"/></g></svg>