<svg xmlns="http://www.w3.org/2000/svg" xmlns:xlink="http://www.w3.org/1999/xlink" width="500" zoomAndPan="magnify" viewBox="0 0 375 374.999991" height="500" preserveAspectRatio="xMidYMid meet" version="1.0"><defs><clipPath id="74f29825c1"><path d="M 2 72.320312 L 373 72.320312 L 373 302.570312 L 2 302.570312 Z M 2 72.320312 " clip-rule="nonzero"/></clipPath></defs><g clip-path="url(#74f29825c1)"><path fill="#00bcf2" d="M 71.015625 302.039062 C 49.507812 299.550781 27.109375 286.054688 15.613281 268.648438 C 5.621094 253.519531 1.367188 238.511719 2.109375 221.007812 C 2.996094 200.140625 9.867188 184.34375 24.4375 169.667969 C 35.992188 158.027344 45.902344 152.246094 61.429688 148.082031 C 67.59375 146.429688 69.910156 146.191406 80.113281 146.175781 C 89.699219 146.175781 92.785156 146.429688 97.578125 147.695312 C 100.78125 148.542969 103.90625 149.4375 104.523438 149.679688 C 105.386719 150.019531 106.207031 148.726562 108.0625 144.101562 C 122.332031 108.574219 152.441406 83.238281 190.972656 74.339844 C 199.085938 72.464844 219.941406 71.6875 229.171875 72.914062 C 279.886719 79.664062 319.851562 118.949219 328.027344 170.085938 C 329.890625 181.734375 328.777344 203.570312 325.789062 213.914062 L 325.109375 216.277344 L 329.605469 216.277344 C 346.1875 216.332031 361.585938 225.839844 368.546875 240.34375 C 372.230469 248.015625 373.339844 253.664062 372.867188 262.292969 C 371.867188 280.398438 360.226562 294.921875 341.746094 301.125 C 337.917969 302.410156 332.046875 302.472656 207.109375 302.5625 C 135.257812 302.613281 74.015625 302.371094 71.015625 302.023438 Z M 195.644531 233.699219 C 197.140625 233.28125 199.515625 231.761719 200.917969 230.320312 L 203.46875 227.695312 L 203.46875 233.738281 L 214.386719 233.738281 L 214.386719 196.636719 L 203.46875 196.636719 L 203.46875 208.535156 C 203.46875 219.714844 203.367188 220.578125 201.808594 222.902344 C 200.375 225.03125 199.683594 225.402344 196.792969 225.589844 C 193.890625 225.78125 193.238281 225.539062 191.90625 223.855469 C 190.476562 222.039062 190.367188 221.023438 190.367188 209.269531 L 190.367188 196.636719 L 178.535156 196.636719 L 178.898438 210.640625 C 179.113281 218.964844 179.613281 225.527344 180.132812 226.828125 C 182.617188 233.035156 188.550781 235.667969 195.640625 233.699219 Z M 280.792969 232.925781 C 283.496094 232.046875 283.523438 232 283.523438 228.160156 C 283.523438 226.027344 283.402344 224.28125 283.25 224.28125 C 283.09375 224.28125 281.796875 224.773438 280.359375 225.371094 C 276.921875 226.808594 269.511719 226.78125 266.691406 225.320312 C 264.898438 224.394531 262.417969 220.632812 262.417969 218.84375 C 262.417969 218.632812 267.820312 218.457031 274.425781 218.457031 L 286.433594 218.457031 L 286.433594 213.183594 C 286.382812 202.425781 280.234375 195.914062 270.074219 195.914062 C 258.015625 195.914062 249.882812 206.710938 252.085938 219.792969 C 253.339844 227.234375 257.527344 231.992188 264.316406 233.695312 C 267.789062 234.566406 277.085938 234.128906 280.808594 232.921875 Z M 262.875 211.335938 C 262.144531 210.152344 265.152344 204.957031 267.074219 204.082031 C 269.496094 202.976562 270.585938 202.960938 272.855469 203.996094 C 274.839844 204.898438 276.246094 207.445312 276.246094 210.132812 C 276.246094 211.894531 276.160156 211.917969 269.738281 211.917969 C 266.160156 211.917969 263.070312 211.65625 262.875 211.339844 Z M 101.511719 227.714844 L 103.34375 222.058594 L 112.789062 222.261719 L 122.234375 222.460938 L 124.0625 228.101562 L 125.894531 233.738281 L 131.980469 233.738281 C 137.960938 233.738281 138.058594 233.683594 137.554688 232.101562 C 137.273438 231.199219 133.199219 219.660156 128.503906 206.457031 L 119.972656 182.453125 L 113.066406 182.246094 L 106.164062 182.039062 L 96.957031 207.34375 C 91.894531 221.257812 87.75 232.90625 87.753906 233.222656 C 87.753906 233.539062 90.4375 233.703125 93.714844 233.585938 L 99.675781 233.375 L 101.511719 227.71875 Z M 105.949219 212.824219 C 105.949219 212.527344 107.230469 208.351562 108.792969 203.550781 C 110.359375 198.75 111.871094 193.839844 112.15625 192.636719 C 112.617188 190.6875 112.84375 191.109375 114.355469 196.640625 C 115.285156 200.039062 116.722656 204.753906 117.546875 207.117188 C 119.804688 213.582031 119.972656 213.371094 112.496094 213.371094 C 108.894531 213.371094 105.949219 213.125 105.949219 212.824219 Z M 172.902344 229.738281 L 172.902344 225.734375 L 164.574219 225.734375 C 159.996094 225.734375 156.105469 225.492188 155.929688 225.191406 C 155.753906 224.886719 159.5 219.589844 164.257812 213.414062 C 171.820312 203.585938 172.902344 201.832031 172.902344 199.410156 L 172.902344 196.640625 L 141.609375 196.640625 L 141.609375 204.640625 L 149.976562 204.640625 C 154.582031 204.640625 158.339844 204.882812 158.332031 205.1875 C 158.332031 205.488281 154.230469 210.96875 149.238281 217.371094 C 141.875 226.808594 140.15625 229.457031 140.15625 231.375 L 140.15625 233.738281 L 172.90625 233.738281 L 172.90625 229.738281 Z M 235.605469 223.007812 C 235.816406 213.785156 236.0625 211.921875 237.347656 209.734375 C 239.394531 206.242188 242.101562 205.023438 245.746094 205.945312 L 248.589844 206.667969 L 248.589844 201.738281 C 248.589844 196.1875 247.792969 195.429688 243.296875 196.703125 C 240.136719 197.601562 239.621094 198 237.402344 201.285156 L 235.492188 204.117188 L 235.492188 196.640625 L 224.574219 196.640625 L 224.574219 233.738281 L 235.355469 233.738281 Z M 235.605469 223.007812 " fill-opacity="1" fill-rule="nonzero"/></g></svg>