<svg xmlns="http://www.w3.org/2000/svg" xmlns:xlink="http://www.w3.org/1999/xlink" width="500" zoomAndPan="magnify" viewBox="0 0 375 374.999991" height="500" preserveAspectRatio="xMidYMid meet" version="1.0"><path fill="#1d63ed" d="M 292.171875 171.230469 C 280.460938 159.644531 277.257812 125.132812 292.171875 109.847656 L 296.609375 104.671875 L 301.046875 109.109375 C 315.34375 120.449219 323.476562 133.265625 325.449219 147.566406 C 345.339844 141.515625 359.949219 145.472656 375 154.960938 C 365.242188 175.347656 350.203125 188.132812 316.574219 186.761719 C 286.128906 262.597656 220.679688 308.046875 123.554688 308.785156 C 72.277344 308.785156 35.546875 290.296875 13.363281 251.839844 C 1.03125 229.1875 -1.578125 212.863281 0.789062 181.582031 L 33.328125 181.582031 L 33.328125 142.386719 L 71.785156 142.386719 L 71.785156 103.929688 L 148.699219 103.929688 L 148.699219 66.214844 L 194.550781 66.214844 L 194.550781 142.386719 L 233.007812 142.386719 L 233.007812 181.582031 C 259.367188 182.347656 275.742188 180.71875 292.171875 171.230469 Z M 68.089844 151.261719 L 70.304688 151.261719 L 70.304688 179.363281 L 68.089844 179.363281 Z M 62.910156 151.261719 L 65.871094 151.261719 L 65.871094 179.363281 L 62.910156 179.363281 Z M 57.734375 151.261719 L 60.691406 151.261719 L 60.691406 179.363281 L 57.734375 179.363281 Z M 52.558594 151.261719 L 55.515625 151.261719 L 55.515625 179.363281 L 52.558594 179.363281 Z M 48.121094 151.261719 L 50.339844 151.261719 L 50.339844 179.363281 L 48.121094 179.363281 Z M 42.945312 151.261719 L 45.160156 151.261719 L 45.160156 179.363281 L 42.945312 179.363281 Z M 39.984375 149.042969 L 39.984375 182.324219 L 73.265625 182.324219 L 73.265625 149.042969 Z M 106.542969 113.546875 L 108.761719 113.546875 L 108.761719 140.910156 L 106.542969 140.910156 Z M 101.367188 113.546875 L 103.585938 113.546875 L 103.585938 140.910156 L 101.367188 140.910156 Z M 96.191406 113.546875 L 99.148438 113.546875 L 99.148438 140.910156 L 96.191406 140.910156 Z M 91.015625 113.546875 L 93.972656 113.546875 L 93.972656 140.910156 L 91.015625 140.910156 Z M 85.835938 113.546875 L 88.796875 113.546875 L 88.796875 140.910156 L 85.835938 140.910156 Z M 81.398438 113.546875 L 83.617188 113.546875 L 83.617188 140.910156 L 81.398438 140.910156 Z M 78.441406 110.585938 L 78.441406 143.867188 L 111.722656 143.867188 L 111.722656 110.585938 Z M 106.542969 151.261719 L 108.761719 151.261719 L 108.761719 179.363281 L 106.542969 179.363281 Z M 101.367188 151.261719 L 103.585938 151.261719 L 103.585938 179.363281 L 101.367188 179.363281 Z M 96.191406 151.261719 L 99.148438 151.261719 L 99.148438 179.363281 L 96.191406 179.363281 Z M 91.015625 151.261719 L 93.972656 151.261719 L 93.972656 179.363281 L 91.015625 179.363281 Z M 85.835938 151.261719 L 88.796875 151.261719 L 88.796875 179.363281 L 85.835938 179.363281 Z M 81.398438 151.261719 L 83.617188 151.261719 L 83.617188 179.363281 L 81.398438 179.363281 Z M 78.441406 149.042969 L 78.441406 182.324219 L 111.722656 182.324219 L 111.722656 149.042969 Z M 144.261719 151.261719 L 147.21875 151.261719 L 147.21875 179.363281 L 144.261719 179.363281 Z M 139.824219 151.261719 L 142.042969 151.261719 L 142.042969 179.363281 L 139.824219 179.363281 Z M 134.648438 151.261719 L 136.867188 151.261719 L 136.867188 179.363281 L 134.648438 179.363281 Z M 129.46875 151.261719 L 132.429688 151.261719 L 132.429688 179.363281 L 129.46875 179.363281 Z M 124.292969 151.261719 L 127.25 151.261719 L 127.25 179.363281 L 124.292969 179.363281 Z M 119.117188 151.261719 L 122.074219 151.261719 L 122.074219 179.363281 L 119.117188 179.363281 Z M 116.898438 149.042969 L 116.898438 182.324219 L 150.175781 182.324219 L 150.175781 149.042969 Z M 144.261719 113.546875 L 147.21875 113.546875 L 147.21875 140.910156 L 144.261719 140.910156 Z M 139.824219 113.546875 L 142.042969 113.546875 L 142.042969 140.910156 L 139.824219 140.910156 Z M 134.648438 113.546875 L 136.867188 113.546875 L 136.867188 140.910156 L 134.648438 140.910156 Z M 129.46875 113.546875 L 132.429688 113.546875 L 132.429688 140.910156 L 129.46875 140.910156 Z M 124.292969 113.546875 L 127.25 113.546875 L 127.25 140.910156 L 124.292969 140.910156 Z M 119.117188 113.546875 L 122.074219 113.546875 L 122.074219 140.910156 L 119.117188 140.910156 Z M 116.898438 110.585938 L 116.898438 143.867188 L 150.175781 143.867188 L 150.175781 110.585938 Z M 182.71875 151.261719 L 185.675781 151.261719 L 185.675781 179.363281 L 182.71875 179.363281 Z M 177.539062 151.261719 L 180.5 151.261719 L 180.5 179.363281 L 177.539062 179.363281 Z M 173.105469 151.261719 L 175.324219 151.261719 L 175.324219 179.363281 L 173.105469 179.363281 Z M 167.925781 151.261719 L 170.144531 151.261719 L 170.144531 179.363281 L 167.925781 179.363281 Z M 162.75 151.261719 L 165.707031 151.261719 L 165.707031 179.363281 L 162.75 179.363281 Z M 157.574219 151.261719 L 160.53125 151.261719 L 160.53125 179.363281 L 157.574219 179.363281 Z M 155.355469 149.042969 L 155.355469 182.324219 L 187.894531 182.324219 L 187.894531 149.042969 Z M 182.71875 113.546875 L 185.675781 113.546875 L 185.675781 140.910156 L 182.71875 140.910156 Z M 177.539062 113.546875 L 180.5 113.546875 L 180.5 140.910156 L 177.539062 140.910156 Z M 173.105469 113.546875 L 175.324219 113.546875 L 175.324219 140.910156 L 173.105469 140.910156 Z M 167.925781 113.546875 L 170.144531 113.546875 L 170.144531 140.910156 L 167.925781 140.910156 Z M 162.75 113.546875 L 165.707031 113.546875 L 165.707031 140.910156 L 162.75 140.910156 Z M 157.574219 113.546875 L 160.53125 113.546875 L 160.53125 140.910156 L 157.574219 140.910156 Z M 155.355469 110.585938 L 155.355469 143.867188 L 187.894531 143.867188 L 187.894531 110.585938 Z M 182.71875 75.089844 L 185.675781 75.089844 L 185.675781 102.453125 L 182.71875 102.453125 Z M 177.539062 75.089844 L 180.5 75.089844 L 180.5 102.453125 L 177.539062 102.453125 Z M 173.105469 75.089844 L 175.324219 75.089844 L 175.324219 102.453125 L 173.105469 102.453125 Z M 167.925781 75.089844 L 170.144531 75.089844 L 170.144531 102.453125 L 167.925781 102.453125 Z M 162.75 75.089844 L 165.707031 75.089844 L 165.707031 102.453125 L 162.75 102.453125 Z M 157.574219 75.089844 L 160.53125 75.089844 L 160.53125 102.453125 L 157.574219 102.453125 Z M 155.355469 72.128906 L 155.355469 105.410156 L 187.894531 105.410156 L 187.894531 72.128906 Z M 221.175781 151.261719 L 223.394531 151.261719 L 223.394531 179.363281 L 221.175781 179.363281 Z M 215.996094 151.261719 L 218.957031 151.261719 L 218.957031 179.363281 L 215.996094 179.363281 Z M 210.820312 151.261719 L 213.777344 151.261719 L 213.777344 179.363281 L 210.820312 179.363281 Z M 206.382812 151.261719 L 208.601562 151.261719 L 208.601562 179.363281 L 206.382812 179.363281 Z M 201.207031 151.261719 L 203.425781 151.261719 L 203.425781 179.363281 L 201.207031 179.363281 Z M 196.03125 151.261719 L 198.988281 151.261719 L 198.988281 179.363281 L 196.03125 179.363281 Z M 193.070312 149.042969 L 193.070312 182.324219 L 226.351562 182.324219 L 226.351562 149.042969 Z M 109.503906 235.570312 C 107.039062 235.570312 104.941406 236.554688 103.214844 238.527344 C 101.492188 240.5 100.628906 242.71875 100.628906 245.183594 C 100.628906 247.648438 101.492188 249.746094 103.214844 251.472656 C 104.941406 253.195312 107.039062 254.058594 109.503906 254.058594 C 111.96875 254.058594 114.0625 253.195312 115.789062 251.472656 C 117.515625 249.746094 118.378906 247.648438 118.378906 245.183594 C 118.378906 243.210938 118.007812 241.609375 117.269531 240.378906 C 116.527344 239.144531 115.417969 238.035156 113.941406 237.050781 C 112.460938 236.0625 110.980469 235.570312 109.503906 235.570312 Z M 109.503906 238.527344 C 110.488281 238.527344 111.226562 238.773438 111.722656 239.269531 C 110.734375 239.761719 110.242188 240.5 110.242188 241.488281 C 110.242188 242.964844 111.226562 243.707031 113.199219 243.707031 C 114.1875 243.707031 114.925781 243.210938 115.417969 242.226562 C 115.910156 243.210938 116.160156 244.199219 116.160156 245.183594 C 116.160156 249.621094 113.941406 251.839844 109.503906 251.839844 C 105.066406 251.839844 102.847656 249.621094 102.847656 245.183594 C 102.847656 240.746094 105.066406 238.527344 109.503906 238.527344 Z M 133.90625 302.128906 C 113.695312 292.269531 99.640625 278.464844 91.753906 260.714844 C 83.371094 263.179688 73.265625 264.660156 61.433594 265.152344 L 29.632812 265.152344 C 54.28125 289.3125 85.589844 301.636719 123.554688 302.128906 Z M 133.90625 302.128906 " fill-opacity="1" fill-rule="nonzero"/></svg>