<svg xmlns="http://www.w3.org/2000/svg" xmlns:xlink="http://www.w3.org/1999/xlink" width="500" zoomAndPan="magnify" viewBox="0 0 375 374.999991" height="500" preserveAspectRatio="xMidYMid meet" version="1.0"><path fill="#3286f3" d="M 187.390625 375 C 186.511719 375 185.414062 374.78125 184.535156 374.339844 L 20.871094 289.761719 C 18.671875 288.445312 17.355469 286.246094 17.355469 283.832031 L 17.355469 91.609375 C 17.355469 89.191406 18.671875 86.773438 20.871094 85.675781 L 184.535156 1.097656 C 186.292969 0 188.488281 0 190.464844 1.097656 L 354.128906 85.675781 C 356.328125 86.773438 357.644531 89.191406 357.644531 91.609375 L 357.644531 283.832031 C 357.644531 286.246094 356.328125 288.445312 354.128906 289.761719 L 190.464844 374.339844 C 189.585938 374.78125 188.488281 375 187.390625 375 Z M 187.390625 375 " fill-opacity="1" fill-rule="evenodd"/><path fill="#ffffff" d="M 187.390625 286.027344 C 133.128906 286.027344 88.972656 241.871094 88.972656 187.609375 C 88.972656 133.347656 133.128906 89.191406 187.390625 89.191406 C 241.652344 89.191406 285.808594 133.347656 285.808594 187.609375 C 285.808594 241.871094 241.652344 286.027344 187.390625 286.027344 Z M 187.390625 286.027344 " fill-opacity="1" fill-rule="evenodd"/><path fill="#3286f3" d="M 187.390625 259.886719 C 147.628906 259.886719 115.332031 227.371094 115.332031 187.609375 C 115.332031 147.847656 147.628906 115.554688 187.390625 115.554688 C 227.152344 115.554688 259.667969 147.847656 259.667969 187.609375 C 259.667969 227.371094 227.152344 259.886719 187.390625 259.886719 Z M 187.390625 259.886719 " fill-opacity="1" fill-rule="evenodd"/><path fill="#ffffff" d="M 301.1875 194.199219 L 222.757812 194.199219 C 219.023438 194.199219 216.167969 191.34375 216.167969 187.609375 C 216.167969 184.09375 219.023438 181.019531 222.757812 181.019531 L 301.1875 181.019531 C 304.921875 181.019531 307.777344 184.09375 307.777344 187.609375 C 307.777344 191.34375 304.921875 194.199219 301.1875 194.199219 Z M 301.1875 194.199219 " fill-opacity="1" fill-rule="evenodd"/><path fill="#296dc5" d="M 313.050781 206.0625 C 302.945312 206.0625 294.597656 197.933594 294.597656 187.609375 C 294.597656 177.503906 302.945312 169.15625 313.050781 169.15625 C 323.15625 169.15625 331.503906 177.503906 331.503906 187.609375 C 331.503906 197.933594 323.15625 206.0625 313.050781 206.0625 Z M 313.050781 206.0625 " fill-opacity="1" fill-rule="evenodd"/><path fill="#ffffff" d="M 267.792969 274.605469 C 266.257812 274.605469 264.5 273.945312 263.179688 272.847656 L 207.601562 217.265625 C 205.183594 214.632812 205.183594 210.457031 207.601562 207.820312 C 210.238281 205.402344 214.410156 205.402344 217.046875 207.820312 L 272.628906 263.402344 C 275.042969 266.035156 275.042969 270.210938 272.628906 272.847656 C 271.308594 273.945312 269.550781 274.605469 267.792969 274.605469 Z M 267.792969 274.605469 " fill-opacity="1" fill-rule="evenodd"/><path fill="#ffffff" d="M 187.390625 307.996094 C 183.875 307.996094 180.800781 305.140625 180.800781 301.40625 L 180.800781 222.980469 C 180.800781 219.246094 183.875 216.386719 187.390625 216.386719 C 191.125 216.386719 193.980469 219.246094 193.980469 222.980469 L 193.980469 301.40625 C 193.980469 305.140625 191.125 307.996094 187.390625 307.996094 Z M 187.390625 307.996094 " fill-opacity="1" fill-rule="evenodd"/><path fill="#ffffff" d="M 152.242188 194.199219 L 73.8125 194.199219 C 70.078125 194.199219 67.222656 191.34375 67.222656 187.609375 C 67.222656 184.09375 70.078125 181.019531 73.8125 181.019531 L 152.242188 181.019531 C 155.976562 181.019531 158.832031 184.09375 158.832031 187.609375 C 158.832031 191.34375 155.976562 194.199219 152.242188 194.199219 Z M 152.242188 194.199219 " fill-opacity="1" fill-rule="evenodd"/><path fill="#ffffff" d="M 162.566406 169.375 C 160.808594 169.375 159.269531 168.71875 157.953125 167.398438 L 102.371094 112.039062 C 99.738281 109.402344 99.738281 105.226562 102.371094 102.59375 C 105.007812 99.957031 109.183594 99.957031 111.820312 102.59375 L 167.179688 158.171875 C 169.816406 160.808594 169.816406 164.980469 167.179688 167.398438 C 165.859375 168.71875 164.324219 169.375 162.566406 169.375 Z M 162.566406 169.375 " fill-opacity="1" fill-rule="evenodd"/><path fill="#ffffff" d="M 212.433594 169.375 C 210.675781 169.375 208.917969 168.71875 207.601562 167.398438 C 205.183594 164.980469 205.183594 160.808594 207.601562 158.171875 L 263.179688 102.59375 C 265.816406 99.957031 269.992188 99.957031 272.628906 102.59375 C 275.042969 105.226562 275.042969 109.402344 272.628906 112.039062 L 217.046875 167.398438 C 215.730469 168.71875 213.972656 169.375 212.433594 169.375 Z M 212.433594 169.375 " fill-opacity="1" fill-rule="evenodd"/><path fill="#ffffff" d="M 187.390625 159.050781 C 183.875 159.050781 180.800781 156.195312 180.800781 152.460938 L 180.800781 74.035156 C 180.800781 70.296875 183.875 67.441406 187.390625 67.441406 C 191.125 67.441406 193.980469 70.296875 193.980469 74.035156 L 193.980469 152.460938 C 193.980469 156.195312 191.125 159.050781 187.390625 159.050781 Z M 187.390625 159.050781 " fill-opacity="1" fill-rule="evenodd"/><path fill="#ffffff" d="M 106.984375 274.605469 C 105.449219 274.605469 103.691406 273.945312 102.371094 272.847656 C 99.738281 270.210938 99.738281 266.035156 102.371094 263.402344 L 157.953125 207.820312 C 160.589844 205.402344 164.761719 205.402344 167.179688 207.820312 C 169.816406 210.457031 169.816406 214.632812 167.179688 217.265625 L 111.820312 272.847656 C 110.5 273.945312 108.742188 274.605469 106.984375 274.605469 Z M 106.984375 274.605469 " fill-opacity="1" fill-rule="evenodd"/><path fill="#296dc5" d="M 276.140625 117.3125 C 266.035156 117.3125 257.910156 108.964844 257.910156 98.859375 C 257.910156 88.753906 266.035156 80.402344 276.140625 80.402344 C 286.46875 80.402344 294.597656 88.753906 294.597656 98.859375 C 294.597656 108.964844 286.46875 117.3125 276.140625 117.3125 Z M 276.140625 117.3125 " fill-opacity="1" fill-rule="evenodd"/><path fill="#296dc5" d="M 276.140625 294.816406 C 266.035156 294.816406 257.910156 286.6875 257.910156 276.363281 C 257.910156 266.257812 266.035156 258.128906 276.140625 258.128906 C 286.46875 258.128906 294.597656 266.257812 294.597656 276.363281 C 294.597656 286.6875 286.46875 294.816406 276.140625 294.816406 Z M 276.140625 294.816406 " fill-opacity="1" fill-rule="evenodd"/><path fill="#296dc5" d="M 187.390625 331.722656 C 177.285156 331.722656 168.9375 323.375 168.9375 313.269531 C 168.9375 303.164062 177.285156 294.816406 187.390625 294.816406 C 197.714844 294.816406 205.84375 303.164062 205.84375 313.269531 C 205.84375 323.375 197.714844 331.722656 187.390625 331.722656 Z M 187.390625 331.722656 " fill-opacity="1" fill-rule="evenodd"/><path fill="#296dc5" d="M 98.636719 294.816406 C 88.53125 294.816406 80.183594 286.6875 80.183594 276.363281 C 80.183594 266.257812 88.53125 258.128906 98.636719 258.128906 C 108.742188 258.128906 117.089844 266.257812 117.089844 276.363281 C 117.089844 286.6875 108.742188 294.816406 98.636719 294.816406 Z M 98.636719 294.816406 " fill-opacity="1" fill-rule="evenodd"/><path fill="#296dc5" d="M 61.949219 206.0625 C 51.84375 206.0625 43.496094 197.933594 43.496094 187.609375 C 43.496094 177.503906 51.84375 169.15625 61.949219 169.15625 C 72.054688 169.15625 80.402344 177.503906 80.402344 187.609375 C 80.402344 197.933594 72.054688 206.0625 61.949219 206.0625 Z M 61.949219 206.0625 " fill-opacity="1" fill-rule="evenodd"/><path fill="#296dc5" d="M 98.636719 117.3125 C 88.53125 117.3125 80.183594 108.964844 80.183594 98.859375 C 80.183594 88.753906 88.53125 80.402344 98.636719 80.402344 C 108.742188 80.402344 117.089844 88.753906 117.089844 98.859375 C 117.089844 108.964844 108.742188 117.3125 98.636719 117.3125 Z M 98.636719 117.3125 " fill-opacity="1" fill-rule="evenodd"/><path fill="#296dc5" d="M 187.390625 80.625 C 177.285156 80.625 168.9375 72.277344 168.9375 62.171875 C 168.9375 52.066406 177.285156 43.71875 187.390625 43.71875 C 197.714844 43.71875 205.84375 52.066406 205.84375 62.171875 C 205.84375 72.277344 197.714844 80.625 187.390625 80.625 Z M 187.390625 80.625 " fill-opacity="1" fill-rule="evenodd"/><path fill="#296dc5" d="M 187.390625 229.570312 C 164.324219 229.570312 145.648438 210.675781 145.648438 187.609375 C 145.648438 164.542969 164.324219 145.871094 187.390625 145.871094 C 210.457031 145.871094 229.351562 164.542969 229.351562 187.609375 C 229.351562 210.675781 210.457031 229.570312 187.390625 229.570312 Z M 187.390625 229.570312 " fill-opacity="1" fill-rule="evenodd"/></svg>