<svg xmlns="http://www.w3.org/2000/svg" xmlns:xlink="http://www.w3.org/1999/xlink" width="500" zoomAndPan="magnify" viewBox="0 0 375 374.999991" height="500" preserveAspectRatio="xMidYMid meet" version="1.0"><path fill="#201d1e" d="M 186.402344 374.488281 C 182.078125 373.972656 175.339844 372.730469 171.679688 371.703125 L 167.871094 370.605469 L 165.820312 364.964844 C 164.648438 361.816406 161.863281 353.171875 159.667969 345.703125 L 155.566406 332.152344 L 149.78125 331.714844 C 140.917969 331.054688 135.863281 329.441406 121.289062 322.703125 C 114.039062 319.335938 107.007812 316.1875 105.6875 315.746094 C 104.445312 315.234375 102.683594 313.988281 101.734375 313.035156 C 100.195312 311.351562 99.976562 310.328125 99.390625 299.195312 L 98.804688 287.109375 L 94.703125 283.300781 C 72.144531 262.058594 56.984375 232.691406 52.367188 201.34375 C 50.902344 191.160156 50.902344 171.386719 52.367188 161.207031 C 56.910156 130.152344 72.070312 100.632812 94.042969 80.054688 L 100.195312 74.265625 L 101.074219 68.1875 C 102.464844 57.789062 106.199219 50.242188 111.695312 46.726562 C 113.304688 45.628906 114.625 43.871094 115.429688 41.746094 C 119.3125 31.640625 125.609375 26.148438 146.484375 14.648438 C 160.109375 7.105469 173.070312 2.5625 185.667969 0.730469 C 192.480469 -0.21875 206.835938 -0.21875 213.355469 0.804688 C 232.03125 3.589844 242.503906 8.863281 255.90625 22.191406 C 264.988281 31.273438 270.191406 38.453125 273.265625 46.433594 C 275.828125 53.027344 278.613281 65.625 279.417969 73.902344 L 279.929688 79.320312 L 286.890625 87.085938 C 310.402344 113.304688 322.996094 146.265625 322.996094 181.273438 C 322.996094 203.539062 318.015625 224.851562 308.277344 244.042969 L 304.539062 251.441406 L 306.8125 253.199219 C 310.179688 255.835938 312.378906 260.15625 316.039062 271.289062 C 318.75 279.417969 319.335938 282.277344 319.335938 286.597656 C 319.335938 295.53125 316.113281 304.90625 311.425781 309.300781 C 307.542969 312.964844 297.289062 314.429688 285.058594 313.035156 C 281.03125 312.597656 280.222656 312.230469 278.832031 310.328125 L 277.222656 308.203125 L 270.996094 308.570312 C 263.378906 309.082031 259.277344 310.328125 259.277344 312.085938 C 259.277344 314.5 258.324219 315.746094 255.542969 317.210938 C 252.832031 318.53125 252.683594 318.824219 252.683594 321.898438 C 252.683594 323.730469 253.492188 329.003906 254.515625 333.691406 C 258.105469 350.316406 256.640625 353.394531 243.601562 356.324219 C 241.554688 356.761719 241.554688 356.761719 241.992188 361.082031 C 242.945312 369.433594 238.550781 372.800781 224.925781 374.195312 C 218.042969 374.925781 191.601562 375.144531 186.402344 374.488281 Z M 186.402344 374.488281 " fill-opacity="1" fill-rule="nonzero"/><path fill="#335061" d="M 150.511719 322.925781 C 142.96875 321.898438 132.640625 318.015625 119.824219 311.425781 C 110.523438 306.664062 107.375 304.6875 107.226562 303.589844 C 107.152344 302.78125 106.859375 297.875 106.640625 292.601562 C 105.394531 266.382812 99.609375 237.816406 91.113281 216.429688 C 89.28125 211.742188 87.890625 207.789062 88.039062 207.640625 C 88.109375 207.566406 92.359375 204.417969 97.414062 200.683594 C 107.738281 193.066406 121.070312 184.9375 128.980469 181.492188 L 134.253906 179.148438 L 140.550781 185.816406 C 147.289062 193.066406 150.878906 195.484375 163.332031 201.488281 L 171.167969 205.222656 L 172.484375 210.863281 C 173.21875 213.941406 174.902344 219.945312 176.222656 224.265625 C 178.199219 230.417969 179.222656 232.46875 180.980469 233.933594 C 183.398438 235.984375 184.863281 236.277344 187.792969 235.105469 C 190.285156 234.15625 190.210938 234.8125 187.132812 239.0625 C 184.132812 243.238281 183.910156 245.945312 186.253906 248.070312 C 187.867188 249.609375 207.054688 259.351562 212.769531 261.546875 L 215.699219 262.71875 L 208.742188 263.160156 C 204.933594 263.453125 196.582031 263.964844 190.136719 264.402344 C 179.808594 265.136719 167.066406 266.382812 157.324219 267.773438 C 154.027344 268.210938 153.882812 268.210938 153.296875 266.160156 C 152.636719 263.746094 152.5625 251.878906 153.078125 240.085938 C 153.441406 232.175781 152.929688 230.125 150.953125 231.371094 C 149.269531 232.398438 148.828125 237.671875 149.632812 247.410156 C 150.441406 257.519531 149.855469 264.988281 148.316406 265.574219 C 147.804688 265.796875 145.605469 264.769531 143.410156 263.378906 C 141.285156 261.914062 139.308594 260.742188 139.015625 260.742188 C 137.914062 260.742188 138.429688 263.523438 139.894531 265.355469 C 140.699219 266.382812 141.359375 267.699219 141.359375 268.359375 C 141.359375 269.605469 139.160156 270.996094 137.109375 270.996094 C 135.570312 270.996094 132.789062 273.632812 133.59375 274.4375 C 133.8125 274.730469 137.402344 274.878906 141.578125 274.804688 C 145.679688 274.730469 149.414062 274.878906 149.925781 275.242188 C 150.441406 275.535156 151.171875 279.273438 151.613281 283.886719 C 152.050781 288.355469 153.371094 298.902344 154.542969 307.324219 C 156.519531 321.824219 156.59375 323.875 155.421875 323.65625 C 155.128906 323.582031 152.929688 323.289062 150.511719 322.925781 Z M 150.511719 322.925781 " fill-opacity="1" fill-rule="nonzero"/><path fill="#335061" d="M 235.546875 310.328125 C 234.59375 303.148438 233.496094 273.046875 234.230469 272.3125 C 234.59375 271.949219 237.160156 271.582031 239.941406 271.507812 L 244.921875 271.363281 L 245.800781 275.316406 C 246.3125 277.515625 247.265625 285.71875 247.925781 293.628906 C 248.582031 301.539062 249.167969 308.640625 249.242188 309.449219 C 249.390625 310.914062 247.851562 311.425781 238.695312 312.964844 C 235.984375 313.328125 235.984375 313.328125 235.546875 310.328125 Z M 235.546875 310.328125 " fill-opacity="1" fill-rule="nonzero"/><path fill="#335061" d="M 240.746094 260.230469 C 241.84375 258.25 244.847656 253.269531 247.484375 249.023438 C 250.121094 244.773438 254.664062 237.230469 257.59375 232.25 L 263.011719 223.167969 L 260.886719 220.53125 C 257.738281 216.578125 257.738281 216.429688 259.058594 213.425781 C 259.9375 211.304688 260.304688 208.375 260.304688 202.148438 C 260.304688 192.1875 258.984375 186.621094 255.46875 182.664062 C 253.417969 180.394531 252.832031 180.101562 250.34375 180.320312 C 248.804688 180.46875 247.632812 180.394531 247.703125 180.101562 C 247.851562 179.808594 249.976562 177.90625 252.390625 175.855469 L 256.933594 172.117188 L 265.355469 179.957031 C 269.96875 184.351562 275.464844 189.402344 277.515625 191.308594 C 282.128906 195.554688 282.203125 196.214844 278.761719 210.425781 C 275.097656 225.660156 266.089844 251.367188 262.207031 257.664062 C 260.304688 260.742188 258.984375 261.179688 249.902344 261.765625 C 245.726562 261.988281 241.699219 262.5 240.96875 262.9375 C 238.695312 264.183594 238.625 263.816406 240.746094 260.230469 Z M 240.746094 260.230469 " fill-opacity="1" fill-rule="nonzero"/><path fill="#335061" d="M 236.9375 257.152344 C 238.328125 252.757812 239.648438 244.1875 240.671875 232.910156 C 242.066406 218.699219 242.210938 218.261719 247.046875 218.261719 C 250.5625 218.261719 254.003906 219.800781 256.714844 222.65625 L 258.765625 224.78125 L 254.152344 232.691406 C 247.925781 243.382812 237.890625 258.542969 237.085938 258.542969 C 236.792969 258.542969 236.644531 257.957031 236.9375 257.152344 Z M 236.9375 257.152344 " fill-opacity="1" fill-rule="nonzero"/><path fill="#d33833" d="M 93.457031 270.191406 C 51.195312 223.609375 47.753906 152.125 85.398438 102.097656 C 89.941406 96.09375 100.121094 84.960938 101.148438 84.960938 C 101.441406 84.960938 101.953125 86.058594 102.171875 87.378906 C 102.539062 89.28125 102.097656 90.820312 100.195312 94.480469 C 97.851562 99.097656 97.777344 99.316406 97.851562 108.324219 C 97.851562 116.601562 98.070312 118.140625 99.902344 123.046875 C 103.859375 133.59375 109.9375 140.113281 118.214844 142.894531 L 121.875 144.140625 L 123.195312 149.488281 C 123.925781 152.34375 125.976562 157.46875 127.808594 160.765625 C 131.398438 167.359375 131.835938 169.773438 129.859375 171.605469 C 129.125 172.191406 122.753906 176.074219 115.722656 180.175781 C 108.691406 184.351562 100.195312 189.476562 96.828125 191.601562 C 93.53125 193.796875 89.136719 196.363281 87.230469 197.386719 C 82.472656 199.804688 79.835938 202.953125 79.835938 206.46875 C 79.835938 209.03125 86.058594 228.003906 90.601562 239.5 C 91.847656 242.503906 93.53125 247.777344 94.335938 251.21875 C 96.09375 258.542969 98.363281 272.828125 98 274 C 97.851562 274.511719 95.800781 272.753906 93.457031 270.191406 Z M 93.457031 270.191406 " fill-opacity="1" fill-rule="nonzero"/><path fill="#d33833" d="M 268.796875 258.765625 C 268.796875 258.472656 270.777344 252.539062 273.265625 245.433594 C 280.589844 224.195312 287.914062 199.878906 288.355469 195.554688 C 288.792969 190.429688 287.695312 188.671875 278.320312 180.320312 C 264.84375 168.308594 262.207031 165.527344 262.207031 163.550781 C 262.207031 162.523438 263.746094 158.863281 265.574219 155.492188 C 269.238281 148.753906 271.582031 142.457031 274.363281 131.761719 C 276.488281 123.484375 279.050781 106.785156 279.050781 101 C 279.050781 98.730469 279.273438 95.800781 279.492188 94.554688 L 280.003906 92.210938 L 281.835938 93.894531 C 289.601562 101.148438 301.757812 121.507812 306.8125 135.789062 C 312.453125 151.683594 314.429688 163.769531 314.429688 181.273438 C 314.429688 194.824219 313.621094 202.292969 310.839844 213.207031 C 308.203125 223.753906 305.054688 232.25 300.21875 241.84375 L 295.824219 250.339844 L 291.136719 251.148438 C 286.449219 251.953125 280.664062 253.929688 273.046875 257.300781 C 270.703125 258.324219 268.800781 258.984375 268.800781 258.765625 Z M 268.796875 258.765625 " fill-opacity="1" fill-rule="nonzero"/><path fill="#d33833" d="M 182.078125 228.367188 C 181.566406 227.417969 179.957031 223.535156 178.636719 219.726562 C 176.367188 213.28125 176.148438 212.109375 176.148438 203.613281 C 176.148438 193.503906 177.171875 190.136719 180.46875 189.257812 C 183.398438 188.523438 193.726562 191.820312 202.734375 196.363281 C 207.421875 198.777344 211.742188 200.683594 212.257812 200.683594 C 213.355469 200.683594 213.429688 202.585938 212.328125 203.320312 C 211.890625 203.613281 209.984375 204.199219 208.082031 204.710938 C 204.566406 205.664062 204.640625 205.808594 210.425781 207.273438 C 213.722656 208.152344 213.867188 208.300781 213.867188 210.9375 C 213.867188 213.425781 213.429688 213.941406 207.863281 218.40625 C 199.730469 224.851562 197.609375 226.023438 190.941406 228.148438 C 183.910156 230.417969 183.398438 230.417969 182.082031 228.367188 Z M 182.078125 228.367188 " fill-opacity="1" fill-rule="nonzero"/><path fill="#d33833" d="M 238.402344 213.425781 C 230.417969 212.035156 230.710938 212.253906 230.710938 208.082031 C 230.710938 204.050781 231.8125 202.878906 235.472656 202.878906 C 236.570312 202.878906 237.230469 202.585938 236.9375 202.148438 C 236.71875 201.78125 235.105469 201.414062 233.421875 201.414062 C 230.640625 201.414062 230.199219 201.195312 229.46875 199.21875 C 228.660156 197.09375 228.660156 197.019531 234.519531 193.359375 C 250.34375 183.179688 253.492188 184.277344 255.613281 200.902344 C 256.273438 206.394531 255.980469 210.9375 254.734375 213.355469 C 253.929688 214.890625 247.117188 214.964844 238.402344 213.425781 Z M 238.402344 213.425781 " fill-opacity="1" fill-rule="nonzero"/><path fill="#d33833" d="M 218.628906 209.910156 C 217.527344 209.105469 217.234375 207.933594 217.164062 204.636719 C 217.164062 200.464844 217.234375 200.390625 219.507812 199.730469 C 225.730469 197.898438 228.882812 207.421875 222.949219 210.132812 C 220.605469 211.15625 220.3125 211.15625 218.628906 209.910156 Z M 218.628906 209.910156 " fill-opacity="1" fill-rule="nonzero"/><path fill="#6f6c6e" d="M 189.332031 366.136719 C 186.914062 365.769531 182.007812 364.746094 178.34375 363.867188 L 171.753906 362.183594 L 168.75 351.929688 C 162.890625 332.300781 158.421875 310.179688 155.347656 286.375 C 154.613281 280.515625 154.246094 275.464844 154.539062 275.171875 C 155.417969 274.144531 178.5625 271.140625 192.039062 270.261719 C 201.488281 269.675781 207.640625 269.675781 214.746094 270.191406 C 227.269531 271.214844 228.660156 271.65625 229.320312 274.292969 C 229.6875 275.390625 230.273438 283.8125 230.710938 292.894531 C 231.226562 301.976562 231.664062 309.667969 231.882812 309.886719 C 232.03125 310.105469 232.46875 318.675781 232.910156 328.929688 C 233.640625 346.140625 234.59375 358.960938 235.546875 361.960938 C 235.984375 363.425781 233.570312 364.304688 224.78125 365.84375 C 217.96875 367.015625 196.875 367.234375 189.332031 366.136719 Z M 189.332031 366.136719 " fill-opacity="1" fill-rule="nonzero"/><path fill="#6f6c6e" d="M 237.011719 343.726562 C 236.792969 340.574219 236.425781 334.058594 236.132812 329.148438 C 235.621094 319.1875 235.328125 319.773438 241.550781 318.894531 L 245.066406 318.457031 L 247.046875 328.5625 C 248.144531 334.203125 249.023438 340.574219 249.023438 342.847656 L 249.023438 346.949219 L 244.773438 348.191406 C 237.523438 350.242188 237.523438 350.242188 237.011719 343.726562 Z M 237.011719 343.726562 " fill-opacity="1" fill-rule="nonzero"/><path fill="#6f6c6e" d="M 284.179688 307.691406 C 282.496094 306.445312 284.105469 305.785156 291.722656 304.246094 C 301.683594 302.34375 298.386719 301.390625 283.738281 302.050781 L 271.800781 302.488281 L 271.433594 299.414062 C 271.214844 297.65625 270.628906 292.820312 270.191406 288.574219 C 269.824219 284.324219 268.945312 278.464844 268.359375 275.464844 C 267.332031 270.554688 267.332031 269.96875 268.433594 268.796875 C 270.042969 267.039062 274.949219 264.769531 282.347656 262.207031 C 285.570312 261.109375 289.597656 259.496094 291.285156 258.617188 C 298.753906 254.882812 304.46875 258.617188 307.910156 269.382812 C 313.621094 287.476562 313.695312 295.898438 308.351562 302.710938 C 305.421875 306.371094 301.539062 307.761719 292.96875 308.128906 C 288.207031 308.347656 284.839844 308.128906 284.179688 307.691406 Z M 297.363281 289.234375 C 294.726562 288.132812 285.570312 287.546875 282.273438 288.207031 L 279.417969 288.867188 L 281.980469 289.304688 C 283.375 289.597656 287.839844 289.890625 291.871094 289.890625 C 297.507812 289.964844 298.753906 289.746094 297.363281 289.234375 Z M 293.40625 280.003906 C 296.777344 279.492188 296.851562 279.417969 294.800781 278.980469 C 290.992188 278.101562 283.886719 278.320312 281.617188 279.417969 C 279.492188 280.371094 279.636719 280.371094 284.617188 280.445312 C 287.476562 280.515625 291.429688 280.296875 293.40625 280.003906 Z M 286.375 271.582031 C 291.429688 268.652344 292.089844 268.066406 290.039062 268.433594 C 284.617188 269.457031 280.589844 271.140625 277.878906 273.632812 L 275.023438 276.195312 L 277.585938 275.683594 C 278.980469 275.464844 282.933594 273.632812 286.375 271.582031 Z M 286.375 271.582031 " fill-opacity="1" fill-rule="nonzero"/><path fill="#6f6c6e" d="M 257.519531 304.613281 C 257.371094 304.027344 256.714844 299.488281 256.054688 294.433594 C 255.394531 289.378906 254.371094 281.980469 253.710938 278.027344 C 253.050781 273.707031 252.90625 270.484375 253.269531 270.117188 C 253.636719 269.75 255.542969 269.53125 257.519531 269.675781 L 261.109375 269.898438 L 262.867188 274.292969 C 265.210938 280.222656 266.527344 288.28125 266.601562 296.484375 C 266.601562 303.222656 266.601562 303.296875 264.625 304.027344 C 260.960938 305.417969 257.886719 305.710938 257.519531 304.613281 Z M 257.519531 304.613281 " fill-opacity="1" fill-rule="nonzero"/><path fill="#6f6c6e" d="M 216.429688 255.320312 C 211.230469 253.199219 203.171875 249.609375 198.632812 247.265625 C 191.234375 243.457031 190.429688 242.871094 190.867188 241.480469 C 192.480469 236.277344 197.242188 230.933594 204.859375 225.730469 C 207.421875 224.046875 209.621094 222.65625 209.765625 222.65625 C 211.15625 222.65625 220.753906 241.039062 226.246094 254.003906 C 228.148438 258.542969 228.296875 259.277344 227.195312 259.277344 C 226.539062 259.277344 221.703125 257.519531 216.429688 255.320312 Z M 216.429688 255.320312 " fill-opacity="1" fill-rule="nonzero"/><path fill="#6f6c6e" d="M 236.9375 257.152344 C 238.328125 252.757812 239.648438 244.1875 240.671875 232.910156 C 241.625 223.316406 242.210938 219.871094 243.019531 219.214844 C 245.800781 216.941406 253.199219 218.921875 256.933594 222.875 L 258.617188 224.632812 L 256.785156 227.855469 C 252.757812 235.105469 249.535156 240.378906 243.75 249.242188 C 238.109375 257.886719 235.839844 260.523438 236.9375 257.152344 Z M 236.9375 257.152344 " fill-opacity="1" fill-rule="nonzero"/><path fill="#6f6c6e" d="M 232.398438 255.25 C 231.589844 253.636719 229.320312 248.730469 227.417969 244.261719 C 222.65625 233.203125 220.09375 228.148438 216.648438 223.167969 C 213.867188 219.066406 213.792969 218.773438 215.039062 217.457031 C 215.769531 216.652344 217.308594 216.066406 218.554688 216.066406 C 219.800781 215.992188 221.628906 215.550781 222.65625 214.964844 C 225.367188 213.429688 227.125 213.648438 230.933594 216.066406 C 232.835938 217.238281 235.253906 218.480469 236.277344 218.703125 L 238.257812 219.214844 L 237.742188 230.859375 C 237.230469 242.285156 235.914062 252.6875 234.519531 256.347656 C 233.863281 258.179688 233.863281 258.179688 232.398438 255.25 Z M 233.277344 237.671875 C 233.277344 235.839844 232.984375 235.472656 231.445312 235.472656 C 230.273438 235.472656 229.539062 235.914062 229.394531 236.792969 C 228.953125 238.988281 229.835938 240.378906 231.589844 240.085938 C 232.910156 239.941406 233.277344 239.429688 233.277344 237.671875 Z M 231.003906 225.953125 C 231.664062 224.121094 230.640625 222.65625 228.808594 222.65625 C 227.78125 222.65625 226.832031 223.167969 226.609375 223.753906 C 225.878906 225.585938 226.902344 227.050781 228.808594 227.050781 C 229.761719 227.050781 230.710938 226.539062 231.003906 225.953125 Z M 231.003906 225.953125 " fill-opacity="1" fill-rule="nonzero"/><path fill="#6f6c6e" d="M 164.429688 197.09375 C 159.226562 195.261719 155.125 193.066406 153.515625 191.234375 C 151.90625 189.402344 152.417969 187.058594 154.394531 187.867188 C 156.664062 188.816406 160.695312 189.550781 166.480469 190.0625 C 172.703125 190.574219 172.777344 190.648438 171.3125 195.777344 C 170.507812 198.851562 169.847656 199 164.429688 197.09375 Z M 164.429688 197.09375 " fill-opacity="1" fill-rule="nonzero"/><path fill="#6f6c6e" d="M 214.890625 194.898438 C 212.402344 194.238281 206.542969 191.160156 206.542969 190.429688 C 206.542969 190.136719 208.960938 190.0625 211.890625 190.28125 C 215.84375 190.503906 219.214844 190.136719 224.339844 188.964844 C 228.296875 188.085938 231.8125 187.5 232.175781 187.644531 C 232.617188 187.792969 230.710938 189.625 228.003906 191.75 C 222.875 195.777344 220.75 196.289062 214.890625 194.898438 Z M 214.890625 194.898438 " fill-opacity="1" fill-rule="nonzero"/><path fill="#6f6c6e" d="M 166.625 186.765625 C 159.667969 186.035156 151.832031 183.617188 147.800781 180.90625 C 143.996094 178.34375 140.257812 173.21875 136.890625 165.746094 C 133.59375 158.496094 130.371094 148.902344 129.933594 144.507812 C 129.492188 140.917969 129.566406 140.550781 132.128906 137.402344 C 133.960938 135.277344 134.765625 133.519531 134.617188 132.421875 C 134.328125 130.222656 132.640625 130.515625 128.6875 133.375 C 123.484375 137.109375 116.820312 135.9375 111.839844 130.445312 C 106.640625 124.660156 102.757812 114.476562 103.492188 108.324219 C 104.808594 97.117188 116.164062 89.28125 125.023438 93.457031 C 127.734375 94.777344 131.25 100.121094 132.566406 104.957031 C 133.300781 107.519531 133.519531 107.664062 136.304688 107.664062 C 137.914062 107.664062 140.332031 107.152344 141.722656 106.640625 C 144.871094 105.320312 145.019531 103.636719 142.675781 94.996094 C 140.625 87.160156 140.699219 80.347656 143.117188 68.921875 C 145.167969 59.253906 145.53125 51.710938 144.214844 46.507812 C 143.40625 43.433594 143.554688 42.992188 145.679688 39.699219 C 152.269531 29.445312 171.898438 15.089844 186.035156 10.179688 C 192.113281 8.128906 205.371094 7.910156 214.085938 9.816406 C 226.539062 12.523438 240.085938 18.382812 246.53125 23.878906 C 249.609375 26.515625 261.472656 41.015625 261.472656 42.1875 C 261.472656 42.335938 260.230469 42.335938 258.691406 42.042969 C 252.757812 41.089844 246.824219 44.53125 246.824219 48.851562 C 246.824219 50.539062 246.898438 50.539062 248.4375 49.511719 C 251.292969 47.460938 257.300781 47.972656 262.351562 50.683594 C 269.96875 54.710938 272.679688 60.058594 274 73.683594 C 275.242188 86.207031 274.4375 111.183594 272.605469 120.265625 C 269.53125 134.765625 264.84375 146.558594 257.300781 158.203125 C 251.292969 167.433594 248.582031 170.507812 243.089844 174.097656 C 232.46875 180.910156 221.410156 184.570312 211.304688 184.570312 C 204.050781 184.570312 199.4375 183.25 190.867188 178.855469 C 183.03125 174.828125 173.730469 166.332031 166.40625 156.59375 C 163.769531 153.078125 161.5 150.292969 161.28125 150.441406 C 160.472656 151.320312 163.183594 156.664062 166.992188 161.71875 C 171.972656 168.382812 182.375 178.566406 186.695312 180.980469 C 188.304688 181.933594 189.695312 183.03125 189.695312 183.324219 C 189.695312 183.691406 187.9375 183.691406 185.816406 183.472656 C 181.199219 182.886719 176.585938 183.984375 174.683594 186.035156 C 173.949219 186.839844 172.996094 187.425781 172.558594 187.425781 C 172.117188 187.351562 169.480469 187.058594 166.625 186.769531 Z M 236.058594 161.132812 C 237.523438 160.691406 239.429688 159.59375 240.308594 158.714844 L 241.773438 157.105469 L 229.46875 156.664062 C 212.476562 156.078125 207.933594 154.613281 201.929688 147.949219 C 200.023438 145.898438 198.046875 144.285156 197.386719 144.433594 C 196.65625 144.578125 197.753906 146.484375 201.34375 150.878906 C 208.007812 159.082031 209.546875 160.398438 213.648438 161.570312 C 217.75 162.742188 231.738281 162.449219 236.058594 161.132812 Z M 237.011719 145.238281 C 236.792969 143.699219 236.570312 141.941406 236.570312 141.285156 C 236.570312 140.257812 234.960938 140.039062 224.707031 139.671875 C 213.941406 139.378906 209.03125 138.648438 203.246094 136.523438 C 200.535156 135.570312 206.6875 141.359375 210.277344 143.261719 C 215.40625 145.824219 224.195312 147.65625 232.835938 147.875 L 237.523438 147.949219 Z M 247.410156 146.117188 C 252.171875 144.652344 257.519531 140.40625 260.886719 135.425781 C 262.351562 133.226562 263.453125 131.394531 263.304688 131.25 C 263.230469 131.101562 260.15625 132.496094 256.492188 134.324219 C 252.90625 136.15625 248.363281 138.0625 246.386719 138.5 C 244.410156 138.941406 242.359375 139.453125 241.917969 139.597656 C 241.332031 139.746094 240.964844 141.210938 240.964844 143.554688 C 240.964844 147.800781 241.257812 147.875 247.410156 146.117188 Z M 237.523438 132.640625 C 243.382812 131.101562 246.605469 129.710938 253.785156 125.390625 C 257.957031 122.972656 258.324219 122.535156 259.496094 118.578125 C 260.15625 116.234375 260.742188 113.964844 260.742188 113.453125 C 260.742188 113.011719 257.886719 109.644531 254.441406 105.980469 C 243.824219 94.628906 237.304688 85.253906 233.203125 75.074219 C 232.691406 73.976562 232.542969 74.414062 232.324219 76.976562 C 231.882812 83.570312 236.570312 92.578125 247.046875 105.175781 C 254.441406 113.964844 255.46875 116.160156 254.078125 119.53125 C 253.34375 121.4375 251.878906 122.386719 245.800781 125.316406 C 237.011719 129.417969 233.789062 130.371094 228.808594 130.371094 C 224.414062 130.371094 222.144531 128.464844 221.410156 124.144531 C 221.042969 121.949219 220.824219 121.65625 220.238281 122.679688 C 219.214844 124.585938 219.507812 129.199219 220.824219 131.761719 C 221.921875 133.960938 222.144531 134.03125 226.976562 134.03125 C 229.6875 134.03125 234.449219 133.375 237.523438 132.640625 Z M 117.699219 115.210938 C 117.917969 108.910156 119.164062 106.199219 121.875 106.199219 C 123.851562 106.199219 125.171875 107.59375 127.515625 112.058594 C 129.199219 115.355469 129.273438 115.355469 129.492188 113.230469 C 129.859375 110.011719 127.660156 105.101562 124.4375 102.246094 C 122.09375 100.046875 120.996094 99.609375 118.359375 99.609375 C 115.648438 99.609375 114.84375 99.976562 113.230469 101.878906 C 110.886719 104.664062 110.816406 105.835938 113.085938 104.371094 C 115.136719 102.976562 117.554688 103.636719 116.675781 105.394531 C 115.503906 107.664062 116.089844 120.847656 117.332031 120.847656 C 117.480469 120.847656 117.625 118.359375 117.699219 115.210938 Z M 210.71875 94.777344 C 212.914062 93.089844 213.574219 91.554688 213.132812 88.625 C 213.0625 88.035156 211.742188 86.207031 210.203125 84.59375 C 208.59375 82.984375 206.175781 79.175781 204.710938 76.171875 L 202.148438 70.679688 L 202.367188 73.976562 C 202.660156 77.34375 204.492188 81.738281 207.347656 86.277344 C 208.8125 88.550781 208.886719 88.84375 207.714844 89.941406 C 206.761719 90.894531 205.445312 91.113281 201.929688 90.964844 C 190.941406 90.378906 191.527344 90.378906 191.308594 91.992188 C 190.574219 97.046875 205.078125 99.097656 210.71875 94.777344 Z M 265.503906 91.625 C 267.113281 90.894531 269.019531 89.648438 269.675781 88.84375 C 270.921875 87.523438 270.777344 87.085938 266.601562 78.882812 C 262.71875 71.335938 262.207031 70.605469 262.207031 72.875 C 262.207031 74.269531 263.085938 77.5625 264.183594 80.199219 C 265.648438 83.714844 265.941406 85.179688 265.355469 85.765625 C 264.84375 86.277344 261.914062 86.867188 258.765625 87.230469 C 255.617188 87.523438 252.980469 87.816406 252.90625 87.816406 C 252.320312 87.964844 252.832031 90.015625 253.855469 91.40625 C 254.738281 92.726562 255.6875 93.019531 258.765625 93.019531 C 260.886719 93.019531 263.890625 92.359375 265.503906 91.625 Z M 174.316406 59.765625 C 178.710938 53.832031 183.03125 51.636719 189.917969 51.710938 C 194.824219 51.710938 194.898438 51.710938 194.675781 49.878906 C 194.3125 46.949219 190.0625 44.457031 186.472656 45.042969 C 180.101562 45.996094 172.046875 52.441406 169.480469 58.519531 C 167.722656 62.621094 168.457031 68.703125 170.289062 65.480469 C 170.652344 64.820312 172.484375 62.257812 174.316406 59.765625 Z M 174.316406 59.765625 " fill-opacity="1" fill-rule="nonzero"/><path fill="#6f6c6e" d="M 137.476562 101.292969 C 137.183594 101.074219 136.960938 100.046875 136.960938 99.097656 C 136.960938 94.480469 131.46875 88.332031 125.464844 86.351562 C 121.949219 85.179688 113.160156 85.839844 111.402344 87.449219 C 110.742188 88.109375 109.863281 88.402344 109.644531 88.109375 C 109.351562 87.890625 109.132812 83.277344 109.132812 78.003906 C 109.132812 65.550781 110.15625 61.960938 115.210938 56.617188 C 120.335938 51.195312 129.273438 46.726562 135.277344 46.582031 L 139.527344 46.507812 L 140.1875 51.5625 C 140.773438 55.515625 140.550781 59.03125 139.308594 68.40625 C 137.328125 83.128906 137.328125 84.519531 139.308594 92.796875 C 140.625 98.363281 140.699219 99.683594 139.964844 100.632812 C 138.867188 101.878906 138.207031 102.097656 137.476562 101.292969 Z M 137.476562 101.292969 " fill-opacity="1" fill-rule="nonzero"/><path fill="#6f6c6e" d="M 122.09375 41.601562 C 124.585938 37.28125 131.324219 30.6875 137.621094 26.511719 C 148.753906 19.042969 163.695312 13.550781 163.695312 16.84375 C 163.695312 17.429688 163.039062 18.238281 162.230469 18.675781 C 156.296875 21.679688 150.074219 27.613281 146.851562 33.105469 C 145.75 35.007812 143.996094 37.574219 142.820312 38.816406 C 140.917969 40.867188 140.40625 41.015625 136.082031 40.941406 C 133.082031 40.867188 130.003906 41.382812 127.148438 42.40625 C 121.070312 44.605469 120.484375 44.457031 122.09375 41.601562 Z M 122.09375 41.601562 " fill-opacity="1" fill-rule="nonzero"/><path fill="#4a738d" d="M 109.128906 305.933594 C 108.105469 305.347656 107.375 304.613281 107.445312 304.246094 C 107.664062 303.003906 106.273438 282.566406 105.46875 275.757812 C 103.785156 261.546875 100.339844 243.898438 97.339844 234.007812 C 95.066406 226.320312 92.871094 219.875 92.210938 218.261719 C 91.699219 217.238281 91.113281 215.773438 90.746094 214.964844 C 88.109375 208.519531 87.890625 207.640625 88.621094 207.421875 C 89.0625 207.277344 91.40625 205.589844 93.75 203.6875 C 103.125 196.289062 117.625 186.914062 125.976562 183.03125 C 128.613281 181.789062 131.542969 180.394531 132.496094 179.957031 C 134.105469 179.152344 134.546875 179.445312 138.867188 184.203125 C 141.429688 186.988281 143.554688 189.476562 143.554688 189.699219 C 143.554688 190.210938 143.992188 189.992188 119.019531 201.050781 C 109.351562 205.371094 101.292969 208.960938 101.21875 209.105469 C 101.074219 209.253906 101.804688 213.28125 102.90625 218.042969 C 107.078125 236.574219 110.300781 255.542969 112.058594 271.582031 C 113.378906 283.667969 112.9375 306.886719 111.402344 306.886719 C 111.179688 306.886719 110.15625 306.445312 109.128906 305.933594 Z M 109.128906 305.933594 " fill-opacity="1" fill-rule="nonzero"/><path fill="#4a738d" d="M 234.226562 283.007812 C 233.496094 282.347656 233.496094 277.878906 234.082031 274.804688 C 234.59375 272.242188 235.546875 271.726562 240.894531 271.433594 C 244.410156 271.140625 244.554688 271.214844 245.289062 273.414062 C 245.726562 274.585938 246.09375 276.707031 246.09375 278.101562 C 246.09375 280.296875 245.726562 280.738281 243.382812 281.761719 C 240.160156 283.082031 234.960938 283.8125 234.226562 283.007812 Z M 234.226562 283.007812 " fill-opacity="1" fill-rule="nonzero"/><path fill="#4a738d" d="M 143.554688 280.515625 C 138.425781 279.636719 135.789062 278.757812 133.445312 277.222656 C 131.324219 275.828125 130.589844 274.949219 131.25 274.585938 C 131.6875 274.292969 132.496094 274.21875 132.933594 274.511719 C 133.300781 274.804688 137.183594 275.023438 141.503906 275.023438 C 146.265625 275.023438 149.632812 275.316406 150.144531 275.828125 C 150.585938 276.269531 150.878906 277.808594 150.730469 279.199219 L 150.511719 281.6875 Z M 143.554688 280.515625 " fill-opacity="1" fill-rule="nonzero"/><path fill="#4a738d" d="M 153.515625 266.894531 C 152.929688 265.355469 152.929688 247.339844 153.515625 238.914062 L 154.027344 232.25 L 156.8125 235.765625 L 159.667969 239.355469 L 159.667969 253.34375 C 159.667969 261.035156 159.449219 267.332031 159.15625 267.40625 C 158.789062 267.40625 157.542969 267.554688 156.226562 267.699219 C 154.613281 267.917969 153.808594 267.699219 153.515625 266.894531 Z M 153.515625 266.894531 " fill-opacity="1" fill-rule="nonzero"/><path fill="#4a738d" d="M 218.335938 255.980469 C 210.425781 252.832031 193.285156 244.628906 191.382812 243.015625 C 189.992188 241.84375 193.285156 236.058594 197.828125 231.8125 C 202.953125 226.976562 208.59375 223.167969 209.839844 223.609375 C 211.597656 224.339844 218.113281 235.839844 223.023438 246.898438 C 227.710938 257.738281 228.296875 259.277344 227.269531 259.277344 C 226.902344 259.277344 222.949219 257.738281 218.335938 255.980469 Z M 218.335938 255.980469 " fill-opacity="1" fill-rule="nonzero"/><path fill="#4a738d" d="M 236.9375 257.445312 C 238.914062 251.734375 240.671875 239.867188 241.40625 227.929688 C 241.917969 220.019531 241.992188 219.582031 243.675781 218.921875 C 247.851562 217.382812 253.34375 218.996094 256.933594 222.875 L 258.617188 224.632812 L 256.785156 227.855469 C 247.851562 243.894531 235.105469 262.792969 236.9375 257.445312 Z M 236.9375 257.445312 " fill-opacity="1" fill-rule="nonzero"/><path fill="#4a738d" d="M 269.382812 193.726562 C 263.453125 189.332031 257.445312 184.496094 256.128906 183.179688 C 254.734375 181.785156 252.613281 180.25 251.292969 179.808594 L 248.949219 179.078125 L 252.90625 175.632812 L 256.859375 172.191406 L 263.746094 178.929688 C 267.554688 182.664062 272.828125 187.574219 275.535156 189.917969 C 280.664062 194.3125 282.054688 197.09375 280.738281 200.316406 C 280.222656 201.636719 279.125 201.050781 269.382812 193.726562 Z M 269.382812 193.726562 " fill-opacity="1" fill-rule="nonzero"/><path fill="#83b3c7" d="M 190.429688 365.917969 C 180.980469 364.453125 173.070312 362.546875 172.265625 361.597656 C 171.238281 360.351562 167.503906 347.167969 164.136719 333.179688 C 159.449219 314.136719 153.589844 276.707031 155.054688 275.390625 C 155.859375 274.585938 174.167969 271.949219 186.035156 270.921875 C 200.171875 269.675781 227.050781 270.777344 228.882812 272.605469 C 229.101562 272.753906 229.761719 281.617188 230.347656 292.308594 C 230.933594 302.929688 231.589844 312.964844 231.8125 314.574219 C 232.03125 316.1875 232.542969 325.339844 232.910156 334.863281 C 233.277344 344.382812 234.007812 354.566406 234.449219 357.496094 C 235.105469 361.667969 235.035156 362.839844 234.300781 363.355469 C 229.90625 366.0625 202 367.675781 190.429688 365.917969 Z M 190.429688 365.917969 " fill-opacity="1" fill-rule="nonzero"/><path fill="#83b3c7" d="M 237.671875 348.632812 C 237.523438 348.414062 237.15625 341.894531 236.863281 334.277344 L 236.351562 320.359375 L 240.160156 319.480469 C 244.554688 318.457031 245.359375 318.75 245.359375 321.09375 C 245.359375 322.046875 246.019531 325.855469 246.824219 329.664062 C 247.632812 333.472656 248.511719 338.746094 248.730469 341.453125 C 249.242188 346.363281 249.242188 346.363281 247.117188 347.242188 C 244.261719 348.339844 238.035156 349.292969 237.671875 348.632812 Z M 237.671875 348.632812 " fill-opacity="1" fill-rule="nonzero"/><path fill="#83b3c7" d="M 286.011719 307.691406 C 283.152344 307.175781 283.152344 307.105469 284.910156 306.371094 C 285.9375 305.933594 287.914062 305.421875 289.304688 305.125 C 297.289062 303.589844 298.902344 303.003906 298.09375 302.195312 C 297.507812 301.683594 293.335938 301.464844 284.617188 301.609375 L 272.019531 301.832031 L 270.777344 290.257812 C 270.042969 283.886719 269.019531 276.707031 268.433594 274.292969 L 267.40625 269.898438 L 269.382812 268.285156 C 270.484375 267.335938 273.707031 265.722656 276.488281 264.699219 C 279.34375 263.597656 284.398438 261.621094 287.839844 260.15625 C 295.3125 257.078125 298.386719 256.859375 301.683594 259.277344 C 304.90625 261.546875 307.03125 266.382812 309.8125 277.585938 C 312.15625 287.402344 312.523438 292.234375 311.132812 296.851562 C 309.886719 300.953125 305.125 305.785156 301.390625 306.738281 C 297.214844 307.835938 289.453125 308.277344 286.011719 307.691406 Z M 298.242188 289.234375 C 294.359375 287.695312 286.964844 287.035156 283.007812 287.839844 C 276.195312 289.304688 278.539062 290.039062 289.527344 289.964844 C 296.703125 289.964844 299.414062 289.746094 298.242188 289.234375 Z M 296.851562 279.859375 C 298.167969 279.34375 297.875 279.125 294.800781 278.613281 C 287.402344 277.367188 279.054688 278.464844 279.054688 280.738281 C 279.054688 281.542969 294.289062 280.808594 296.851562 279.859375 Z M 286.890625 271.65625 C 290.699219 269.605469 293.699219 267.847656 293.554688 267.699219 C 293.042969 267.1875 286.15625 268.871094 282.789062 270.261719 C 280.808594 271.140625 278.246094 272.828125 277.148438 274.070312 L 275.023438 276.34375 L 277.515625 275.828125 C 278.832031 275.609375 283.082031 273.707031 286.890625 271.65625 Z M 286.890625 271.65625 " fill-opacity="1" fill-rule="nonzero"/><path fill="#83b3c7" d="M 257.8125 304.6875 C 257.8125 303.882812 253.710938 275.683594 253.050781 272.3125 C 252.757812 270.261719 252.757812 270.261719 256.785156 270.261719 L 260.816406 270.261719 L 262.28125 273.558594 C 264.476562 278.464844 265.796875 285.644531 266.382812 294.871094 L 266.820312 303.003906 L 263.304688 304.246094 C 259.203125 305.566406 257.8125 305.710938 257.8125 304.6875 Z M 257.8125 304.6875 " fill-opacity="1" fill-rule="nonzero"/><path fill="#83b3c7" d="M 225.21875 258.324219 C 215.113281 255.027344 191.160156 243.824219 191.160156 242.359375 C 191.160156 238.550781 197.605469 230.933594 204.785156 226.246094 L 209.621094 223.167969 L 211.304688 225.292969 C 214.597656 229.246094 228.589844 258.105469 227.636719 258.910156 C 227.488281 258.984375 226.464844 258.765625 225.21875 258.324219 Z M 225.21875 258.324219 " fill-opacity="1" fill-rule="nonzero"/><path fill="#83b3c7" d="M 237.597656 256.714844 C 238.988281 252.976562 241.550781 233.714844 241.773438 224.265625 L 241.917969 219.726562 L 244.554688 218.992188 C 248.292969 218.042969 252.394531 219.140625 255.324219 221.996094 C 256.714844 223.316406 257.8125 224.707031 257.8125 225.074219 C 257.8125 226.023438 248 242.503906 242.578125 250.707031 C 238.183594 257.375 236.574219 259.277344 237.597656 256.714844 Z M 237.597656 256.714844 " fill-opacity="1" fill-rule="nonzero"/><path fill="#83b3c7" d="M 231.957031 253.636719 C 231.007812 251.734375 228.148438 245.433594 225.660156 239.792969 C 223.167969 234.082031 219.652344 227.195312 217.820312 224.414062 C 214.890625 219.871094 214.597656 219.214844 215.476562 217.675781 C 216.0625 216.503906 216.796875 216.0625 217.75 216.355469 C 218.554688 216.578125 220.824219 216.0625 222.800781 215.257812 L 226.390625 213.867188 L 231.003906 216.429688 C 233.570312 217.820312 236.132812 218.992188 236.792969 218.992188 C 238.257812 218.992188 238.257812 218.335938 237.304688 233.347656 C 236.644531 243.824219 235.035156 255.980469 234.082031 256.859375 C 233.863281 257.078125 232.910156 255.613281 231.957031 253.636719 Z M 233.714844 239.0625 C 234.960938 237.523438 233.714844 235.472656 231.445312 235.472656 C 229.175781 235.472656 227.929688 237.523438 229.175781 239.0625 C 229.761719 239.722656 230.710938 240.234375 231.445312 240.234375 C 232.175781 240.234375 233.128906 239.722656 233.714844 239.0625 Z M 231.003906 226.171875 C 231.957031 224.632812 230.859375 222.4375 229.101562 222.070312 C 227.929688 221.851562 225.585938 223.753906 225.585938 224.851562 C 225.585938 225.953125 227.929688 227.855469 229.101562 227.636719 C 229.6875 227.488281 230.566406 226.832031 231.003906 226.171875 Z M 231.003906 226.171875 " fill-opacity="1" fill-rule="nonzero"/><path fill="#83b3c7" d="M 164.429688 196.726562 C 159.667969 195.191406 153.953125 192.039062 153.074219 190.429688 C 151.832031 188.160156 152.785156 187.5 155.566406 188.597656 C 156.882812 189.183594 160.984375 189.84375 164.722656 190.136719 C 168.382812 190.429688 171.53125 190.867188 171.753906 191.160156 C 171.898438 191.382812 171.679688 192.992188 171.238281 194.675781 C 170.359375 198.121094 169.554688 198.339844 164.429688 196.726562 Z M 164.429688 196.726562 " fill-opacity="1" fill-rule="nonzero"/><path fill="#83b3c7" d="M 213.867188 194.3125 C 211.375 193.433594 206.542969 190.867188 206.542969 190.429688 C 206.542969 190.136719 208.226562 190.28125 210.277344 190.722656 C 213.425781 191.382812 215.40625 191.160156 223.09375 189.625 C 228.074219 188.523438 232.175781 187.792969 232.175781 187.9375 C 232.175781 188.011719 230.199219 189.625 227.855469 191.453125 C 223.753906 194.605469 223.242188 194.824219 219.214844 194.75 C 216.871094 194.75 214.453125 194.53125 213.867188 194.3125 Z M 213.867188 194.3125 " fill-opacity="1" fill-rule="nonzero"/><path fill="#83b3c7" d="M 165.160156 186.253906 C 161.425781 185.886719 152.785156 183.324219 149.339844 181.640625 C 145.605469 179.734375 142.164062 175.5625 138.648438 168.824219 C 135.351562 162.378906 130.808594 149.488281 130.003906 144.214844 C 129.566406 141.0625 129.636719 140.699219 132.496094 137.402344 C 135.644531 133.8125 135.9375 132.933594 134.765625 131.101562 C 134.179688 130.152344 133.667969 130.222656 131.324219 131.617188 C 124.585938 135.496094 124.070312 135.71875 120.554688 135.203125 C 115.210938 134.398438 111.546875 131.03125 107.738281 123.632812 C 104.882812 118.140625 104.441406 116.527344 104.148438 111.546875 C 103.859375 106.566406 104.078125 105.25 105.46875 102.464844 C 109.128906 95.140625 113.964844 92.503906 122.605469 92.945312 C 125.683594 93.089844 129.710938 97.632812 131.46875 102.90625 C 132.203125 105.320312 133.082031 107.59375 133.375 107.886719 C 134.253906 108.984375 141.429688 107.519531 143.40625 105.835938 L 145.3125 104.222656 L 143.335938 95.875 C 140.84375 85.253906 140.84375 81.738281 143.554688 68.628906 C 146.046875 56.542969 146.191406 53.320312 144.726562 47.605469 L 143.628906 43.578125 L 145.972656 39.625 C 152.125 29.371094 175.414062 12.964844 188.234375 9.960938 C 205.738281 5.785156 235.179688 13.550781 247.777344 25.5625 C 251.222656 28.855469 260.742188 40.796875 260.742188 41.894531 C 260.742188 41.96875 258.617188 42.113281 256.054688 42.113281 C 252.027344 42.113281 251.074219 42.40625 249.390625 43.945312 C 247.265625 45.921875 245.875 48.777344 246.460938 49.804688 C 246.679688 50.171875 248 49.949219 249.390625 49.363281 C 254.296875 47.3125 260.667969 48.777344 265.796875 53.246094 C 272.023438 58.59375 273.707031 65.039062 274.367188 86.425781 C 275.171875 112.132812 271.582031 130.808594 262.5 148.902344 C 260.375 153.003906 252.90625 164.5 249.902344 168.089844 C 243.898438 175.339844 226.539062 183.25 214.308594 184.277344 C 207.421875 184.863281 201.855469 183.691406 193.726562 179.882812 C 182.445312 174.535156 174.902344 167.871094 165.308594 154.613281 C 162.816406 151.246094 160.695312 148.828125 160.546875 149.339844 C 160.109375 150.585938 163.84375 158.203125 166.917969 162.230469 C 171.242188 167.945312 181.640625 178.269531 185.523438 180.761719 L 189.039062 182.960938 L 183.179688 183.179688 C 178.34375 183.398438 177.027344 183.765625 175.632812 185.15625 C 173.804688 186.769531 172.410156 186.914062 165.160156 186.253906 Z M 235.546875 161.5 C 238.695312 160.546875 242.429688 157.910156 242.429688 156.738281 C 242.429688 156.445312 237.597656 156.226562 231.664062 156.226562 C 214.453125 156.296875 206.6875 153.953125 201.5625 147.214844 C 200.171875 145.386719 198.632812 143.847656 198.121094 143.699219 C 195.996094 143.1875 196.363281 145.164062 198.777344 148.167969 C 200.242188 149.851562 202.808594 153.003906 204.492188 155.199219 C 208.007812 159.59375 211.304688 161.644531 216.578125 162.597656 C 221.042969 163.402344 231.226562 162.816406 235.546875 161.5 Z M 237.160156 144.140625 L 236.9375 140.257812 L 226.683594 139.746094 C 215.625 139.234375 208.449219 138.207031 204.417969 136.523438 C 203.027344 135.9375 201.78125 135.570312 201.710938 135.71875 C 201.5625 135.863281 202.441406 137.183594 203.6875 138.648438 C 208.082031 143.921875 219.433594 147.800781 231.300781 147.875 L 237.378906 147.949219 Z M 251.585938 144.726562 C 253.34375 143.699219 255.980469 141.578125 257.445312 139.964844 C 260.449219 136.816406 264.550781 130.957031 264.039062 130.519531 C 263.890625 130.371094 261.328125 131.542969 258.398438 133.082031 C 252.757812 136.15625 244.921875 139.160156 242.433594 139.160156 C 241.113281 139.160156 240.96875 139.671875 240.96875 143.261719 L 240.96875 147.4375 L 244.703125 146.996094 C 246.753906 146.703125 249.828125 145.679688 251.585938 144.726562 Z M 238.039062 132.789062 C 242.945312 131.542969 248.4375 129.050781 254.222656 125.535156 C 258.105469 123.195312 258.617188 122.605469 259.644531 119.238281 C 261.328125 113.378906 261.109375 112.644531 256.496094 107.886719 C 246.460938 97.777344 235.546875 82.175781 234.082031 76.023438 C 233.863281 74.851562 233.128906 73.972656 232.542969 73.972656 C 229.835938 73.972656 232.691406 84.886719 237.304688 92.578125 C 238.695312 94.847656 242.210938 99.609375 244.996094 102.976562 C 254.882812 115.0625 255.324219 115.941406 253.34375 120.335938 C 251.734375 123.925781 232.25 131.101562 226.832031 130.078125 C 223.683594 129.492188 222.582031 128.171875 221.996094 124.660156 C 221.484375 121.507812 220.386719 121.214844 219.433594 123.925781 C 218.480469 126.5625 219.582031 130.957031 221.628906 133.082031 C 223.386719 134.839844 223.753906 134.914062 228.734375 134.398438 C 231.664062 134.105469 235.839844 133.375 238.039062 132.789062 Z M 119.679688 107.738281 C 120.484375 106.859375 121.4375 106.199219 121.949219 106.199219 C 123.195312 106.199219 125.539062 108.984375 127.515625 112.792969 L 129.273438 116.089844 L 129.492188 112.644531 C 129.785156 108.542969 127.882812 104.371094 124.511719 101.511719 C 120.042969 97.851562 115.136719 98.21875 112.28125 102.464844 C 110.15625 105.617188 110.15625 106.640625 112.207031 105.175781 C 113.085938 104.515625 114.476562 104.003906 115.210938 104.003906 C 116.382812 104.003906 116.457031 104.371094 115.941406 106.421875 C 115.0625 109.863281 115.355469 117.261719 116.527344 119.75 C 117.40625 121.875 117.480469 121.65625 117.921875 115.574219 C 118.214844 110.816406 118.652344 108.835938 119.679688 107.738281 Z M 211.378906 94.480469 C 214.820312 91.039062 214.671875 88.988281 210.570312 84.375 C 208.742188 82.324219 206.03125 78.074219 204.492188 74.925781 C 202.148438 69.871094 201.78125 69.433594 201.5625 71.335938 C 201.269531 73.535156 203.832031 81.589844 205.445312 83.496094 C 205.957031 84.082031 206.910156 85.621094 207.496094 86.863281 C 208.667969 89.207031 208.667969 89.207031 206.542969 90.085938 C 205.003906 90.746094 202.734375 90.820312 198.707031 90.378906 C 195.558594 90.085938 192.699219 89.792969 192.261719 89.722656 C 190.941406 89.722656 191.015625 93.089844 192.335938 94.554688 C 194.238281 96.679688 197.460938 97.410156 203.46875 97.117188 C 208.375 96.898438 209.035156 96.679688 211.378906 94.480469 Z M 267.113281 91.1875 C 268.871094 90.085938 270.558594 88.769531 270.777344 88.257812 C 271.070312 87.304688 262.425781 68.847656 261.621094 68.847656 C 260.667969 68.847656 262.28125 77.050781 264.039062 80.859375 C 266.308594 85.984375 266.164062 86.132812 259.277344 86.792969 C 256.640625 87.085938 254.078125 87.378906 253.636719 87.523438 C 252.027344 88.035156 252.613281 90.671875 254.738281 92.285156 C 256.347656 93.601562 257.300781 93.824219 260.304688 93.457031 C 262.207031 93.238281 265.28125 92.210938 267.113281 91.1875 Z M 172.046875 63.425781 C 174.683594 58.960938 179.152344 54.566406 182.8125 53.027344 C 184.132812 52.441406 187.355469 52 189.992188 52 C 192.625 52 194.972656 51.636719 195.191406 51.269531 C 196.65625 48.851562 191.75 44.675781 187.355469 44.675781 C 183.984375 44.675781 177.980469 47.753906 174.242188 51.488281 C 171.167969 54.566406 167.726562 60.71875 167.726562 63.207031 C 167.726562 64.527344 168.96875 67.382812 169.554688 67.382812 C 169.703125 67.382812 170.800781 65.625 172.046875 63.425781 Z M 172.046875 63.425781 " fill-opacity="1" fill-rule="nonzero"/><path fill="#83b3c7" d="M 109.421875 83.789062 C 108.835938 78.808594 109.421875 68.042969 110.59375 64.304688 C 113.011719 56.105469 124.144531 48.265625 135.9375 46.433594 C 138.648438 46.070312 139.011719 46.140625 139.378906 47.679688 C 140.113281 50.316406 140.039062 50.535156 138.207031 50.535156 C 135.351562 50.535156 127.292969 53.464844 123.632812 55.808594 C 114.84375 61.375 109.644531 72.800781 111.035156 83.421875 C 111.328125 85.621094 111.183594 87.15625 110.742188 87.449219 C 110.230469 87.742188 109.789062 86.351562 109.425781 83.789062 Z M 109.421875 83.789062 " fill-opacity="1" fill-rule="nonzero"/><path fill="#83b3c7" d="M 121.582031 43.210938 C 121.582031 42.917969 123.121094 40.648438 124.953125 38.160156 C 128.90625 32.886719 137.109375 26.511719 145.605469 22.117188 C 152.269531 18.675781 161.644531 15.160156 162.671875 15.820312 C 163.988281 16.550781 163.257812 18.089844 161.207031 19.117188 C 145.605469 26.734375 140.257812 30.25 133.375 37.425781 C 130.152344 40.722656 128.394531 41.894531 125.464844 42.773438 C 123.339844 43.359375 121.582031 43.578125 121.582031 43.210938 Z M 121.582031 43.210938 " fill-opacity="1" fill-rule="nonzero"/><path fill="#f1d8b9" d="M 213.867188 194.164062 C 211.304688 193.359375 207.421875 191.308594 206.910156 190.429688 C 206.617188 189.917969 207.128906 189.917969 208.375 190.429688 C 211.375 191.527344 215.699219 191.308594 224.339844 189.402344 C 228.660156 188.453125 232.175781 187.792969 232.175781 187.867188 C 232.175781 187.9375 230.199219 189.550781 227.855469 191.453125 C 223.902344 194.53125 223.167969 194.824219 219.582031 194.75 C 217.457031 194.75 214.894531 194.457031 213.867188 194.164062 Z M 213.867188 194.164062 " fill-opacity="1" fill-rule="nonzero"/><path fill="#f1d8b9" d="M 164.28125 185.960938 C 158.347656 185.230469 150.730469 182.59375 147.289062 180.175781 C 143.335938 177.320312 139.453125 171.238281 135.644531 162.15625 C 132.789062 155.199219 129.640625 144.652344 129.640625 142.015625 C 129.640625 141.285156 130.957031 139.160156 132.640625 137.253906 C 135.71875 133.738281 136.230469 130.957031 133.886719 130.515625 C 133.226562 130.371094 130.8125 131.46875 128.613281 133.007812 C 125.097656 135.351562 124.144531 135.644531 121.507812 135.277344 C 116.527344 134.617188 112.0625 131.324219 108.910156 125.976562 C 101.515625 113.230469 102.539062 101.441406 111.621094 95.433594 C 114.699219 93.308594 115.796875 93.015625 119.75 93.015625 C 123.339844 93.015625 124.730469 93.382812 126.34375 94.628906 C 128.394531 96.238281 132.570312 104.078125 132.570312 106.421875 C 132.570312 107.152344 133.082031 107.886719 133.667969 108.105469 C 135.71875 108.910156 141.359375 107.59375 143.335938 105.90625 L 145.238281 104.222656 L 143.335938 95.726562 C 140.84375 84.960938 140.84375 81.882812 143.554688 68.921875 C 146.046875 57.128906 146.265625 52.441406 144.652344 47.167969 C 143.628906 43.726562 143.703125 43.503906 145.386719 40.574219 C 149.855469 32.957031 160.402344 23.875 173.585938 16.40625 C 183.398438 10.914062 187.867188 9.449219 197.023438 9.007812 C 209.914062 8.347656 222.582031 11.277344 237.011719 18.308594 C 243.382812 21.386719 245.140625 22.632812 249.464844 27.320312 C 252.246094 30.320312 255.910156 34.789062 257.667969 37.28125 L 260.816406 41.746094 L 256.640625 41.746094 C 251.953125 41.746094 249.097656 43.140625 247.265625 46.140625 C 245.65625 48.925781 245.726562 50.828125 247.414062 50.171875 C 253.273438 47.679688 257.886719 48.191406 263.820312 51.929688 C 270.996094 56.46875 272.828125 61.816406 274.074219 81.226562 C 275.609375 106.128906 272.242188 127.585938 264.039062 145.53125 C 260.742188 152.710938 252.027344 165.964844 248.144531 169.628906 C 242.578125 174.976562 232.398438 180.175781 222.65625 182.738281 C 216.066406 184.496094 205.8125 184.496094 200.683594 182.8125 C 188.011719 178.5625 177.613281 170.582031 167.433594 157.25 C 163.84375 152.5625 160.765625 148.828125 160.546875 148.972656 C 159.886719 149.632812 162.746094 156.519531 165.015625 159.8125 C 169.117188 165.746094 179.957031 176.953125 184.71875 180.175781 L 189.257812 183.179688 L 185.375 182.886719 C 180.6875 182.445312 177.613281 183.253906 175.414062 185.304688 C 173.730469 186.914062 172.558594 186.914062 164.28125 185.960938 Z M 233.570312 162.085938 C 238.035156 161.132812 242.429688 158.421875 242.429688 156.589844 C 242.429688 156.296875 237.597656 156.003906 231.664062 156.003906 C 219.214844 156.078125 215.699219 155.640625 210.351562 153.660156 C 205.882812 151.976562 202.878906 149.632812 200.683594 146.117188 C 199.730469 144.652344 198.484375 143.554688 197.679688 143.554688 C 195.117188 143.554688 195.554688 144.214844 205.152344 156.226562 C 206.394531 157.761719 208.152344 159.519531 209.179688 160.105469 C 213.867188 163.257812 224.195312 164.0625 233.570312 162.085938 Z M 237.304688 144.507812 C 237.304688 142.015625 236.9375 140.476562 236.425781 140.257812 C 235.914062 140.113281 231.226562 139.820312 225.953125 139.527344 C 213.941406 139.011719 207.933594 137.988281 202.585938 135.863281 C 201.414062 135.351562 201.34375 135.496094 202.074219 136.742188 C 205.515625 143.335938 219.214844 148.242188 234.226562 148.386719 L 237.304688 148.386719 Z M 250.195312 145.386719 C 252.320312 144.507812 255.320312 142.382812 257.007812 140.699219 C 259.789062 137.914062 264.625 131.03125 264.109375 130.515625 C 263.964844 130.445312 260.523438 131.980469 256.421875 133.960938 C 252.320312 135.9375 247.191406 137.988281 244.996094 138.425781 L 240.964844 139.234375 L 240.964844 148.09375 L 243.75 147.582031 C 245.214844 147.363281 248.144531 146.339844 250.195312 145.386719 Z M 238.914062 132.859375 C 243.238281 131.542969 248.070312 129.273438 254.296875 125.535156 C 257.8125 123.414062 258.617188 122.460938 259.570312 119.605469 C 261.402344 114.332031 261.109375 111.695312 258.546875 109.714844 C 251.878906 104.515625 237.011719 84.449219 234.742188 77.636719 C 234.007812 75.367188 233.128906 73.972656 232.398438 73.972656 C 231.445312 73.972656 231.300781 74.632812 231.738281 78.222656 C 232.472656 84.375 237.597656 94.1875 244.261719 102.171875 C 252.90625 112.5 254.152344 114.332031 254.152344 116.527344 C 254.152344 120.703125 252.980469 121.800781 244.703125 125.464844 C 236.207031 129.199219 231.957031 130.222656 227.492188 129.859375 C 223.828125 129.566406 222.730469 128.613281 222.21875 125.097656 C 221.632812 121.726562 220.824219 120.996094 219.800781 122.972656 C 218.1875 125.976562 218.996094 130.296875 221.851562 133.59375 C 222.875 134.765625 223.753906 134.839844 229.027344 134.472656 C 232.324219 134.179688 236.792969 133.445312 238.914062 132.859375 Z M 119.972656 107.519531 C 121.4375 106.054688 121.582031 106.054688 123.339844 107.226562 C 124.367188 107.886719 126.125 110.15625 127.222656 112.28125 L 129.273438 116.089844 L 129.492188 112.644531 C 130.078125 103.855469 120.484375 95.800781 114.40625 100.046875 C 112.648438 101.21875 110.230469 105.320312 110.890625 105.980469 C 111.109375 106.199219 111.769531 105.835938 112.425781 105.175781 C 113.085938 104.515625 114.257812 104.003906 115.136719 104.003906 C 116.382812 104.003906 116.527344 104.296875 115.941406 106.421875 C 115.0625 110.007812 115.355469 118.066406 116.527344 120.117188 C 117.480469 121.800781 117.554688 121.507812 117.992188 115.503906 C 118.359375 110.300781 118.726562 108.691406 119.972656 107.519531 Z M 209.179688 96.238281 C 214.894531 93.53125 215.332031 89.429688 210.570312 84.300781 C 208.8125 82.398438 206.105469 78.222656 204.566406 75 C 202.148438 69.871094 201.78125 69.433594 201.5625 71.335938 C 201.195312 74.046875 203.175781 80.125 205.882812 84.300781 C 207.054688 86.132812 208.007812 88.035156 208.007812 88.476562 C 208.007812 90.820312 201.707031 91.332031 193.945312 89.648438 C 191.601562 89.136719 190.722656 90.453125 191.453125 93.308594 C 192.332031 96.972656 203.6875 98.804688 209.179688 96.238281 Z M 266.75 91.40625 C 271.730469 88.621094 271.730469 88.476562 266.601562 78.148438 C 264.113281 73.023438 261.914062 68.847656 261.695312 68.847656 C 260.667969 68.847656 262.28125 77.125 264.039062 80.933594 C 266.164062 85.621094 265.871094 86.351562 261.839844 86.5 C 258.984375 86.570312 254.738281 87.085938 253.636719 87.523438 C 252.027344 88.109375 252.613281 90.671875 254.738281 92.285156 C 256.347656 93.601562 257.300781 93.824219 260.230469 93.457031 C 262.207031 93.238281 265.136719 92.285156 266.746094 91.40625 Z M 171.679688 64.234375 C 172.484375 62.546875 174.828125 59.472656 176.808594 57.421875 C 181.128906 53.171875 185.375 51.636719 191.164062 52.148438 C 194.238281 52.441406 194.898438 52.292969 195.191406 51.195312 C 196.214844 48.121094 191.96875 44.675781 187.355469 44.675781 C 181.347656 44.675781 172.707031 51.195312 169.484375 58.082031 C 167.578125 62.253906 167.359375 63.867188 168.457031 65.992188 C 169.554688 68.042969 170.140625 67.75 171.679688 64.234375 Z M 171.679688 64.234375 " fill-opacity="1" fill-rule="nonzero"/><path fill="#f6f5f5" d="M 195.554688 366.503906 C 194.53125 366.355469 191.234375 365.84375 188.230469 365.40625 C 181.492188 364.453125 173.4375 362.546875 172.558594 361.742188 C 171.019531 360.351562 164.503906 336.402344 161.207031 319.921875 C 158.789062 308.128906 155.421875 285.351562 155.125 279.050781 L 154.90625 275.097656 L 158.203125 274.511719 C 177.320312 271.070312 205.296875 269.382812 219.359375 270.921875 C 223.828125 271.4375 227.855469 272.242188 228.296875 272.679688 C 229.175781 273.558594 230.492188 290.917969 232.175781 325.195312 C 232.984375 341.601562 234.226562 358.152344 234.8125 361.15625 C 235.253906 362.988281 235.035156 363.132812 230.492188 364.234375 C 221.703125 366.429688 203.394531 367.601562 195.554688 366.503906 Z M 195.554688 366.503906 " fill-opacity="1" fill-rule="nonzero"/><path fill="#f6f5f5" d="M 237.085938 339.402344 C 236.792969 334.203125 236.570312 327.832031 236.570312 325.121094 L 236.570312 320.359375 L 240.453125 319.554688 C 242.503906 319.117188 244.410156 318.894531 244.554688 318.96875 C 245.066406 319.480469 248.949219 341.089844 249.023438 343.726562 C 249.023438 346.875 247.632812 347.753906 241.257812 348.414062 L 237.523438 348.777344 Z M 237.085938 339.402344 " fill-opacity="1" fill-rule="nonzero"/><path fill="#f6f5f5" d="M 286.960938 307.835938 C 285.425781 307.691406 284.179688 307.25 284.179688 306.8125 C 284.179688 306.445312 284.324219 306.152344 284.472656 306.152344 C 284.839844 306.152344 294.726562 304.175781 297.289062 303.515625 C 298.679688 303.222656 298.828125 302.929688 298.167969 302.269531 C 297.507812 301.609375 293.699219 301.464844 284.691406 301.609375 L 272.023438 301.757812 L 270.777344 289.890625 C 270.042969 283.300781 269.019531 276.121094 268.433594 273.925781 L 267.332031 269.898438 L 269.3125 268.285156 C 270.410156 267.332031 275.171875 265.28125 279.785156 263.597656 C 284.398438 261.914062 289.820312 259.714844 291.722656 258.765625 C 297.144531 256.054688 302.5625 258.03125 305.417969 263.671875 C 307.46875 267.625 312.011719 285.789062 312.011719 289.890625 C 312.011719 298.09375 307.542969 305.199219 301.390625 306.738281 C 297.730469 307.691406 290.476562 308.203125 286.960938 307.835938 Z M 300.144531 289.671875 C 299.925781 289.453125 297.144531 288.792969 293.992188 288.132812 C 287.035156 286.816406 279.050781 287.476562 279.050781 289.378906 C 279.050781 289.746094 283.886719 290.039062 289.820312 290.039062 C 295.679688 290.039062 300.367188 289.890625 300.148438 289.671875 Z M 297.363281 279.785156 C 298.609375 279.050781 292.894531 278.027344 287.476562 277.953125 C 283.667969 277.953125 279.050781 279.417969 279.050781 280.738281 C 279.050781 281.542969 295.605469 280.738281 297.363281 279.785156 Z M 282.789062 273.925781 C 284.984375 272.679688 288.5 270.847656 290.625 269.824219 C 292.75 268.796875 294.359375 267.773438 294.214844 267.625 C 294.066406 267.40625 291.503906 267.773438 288.5 268.359375 C 283.300781 269.457031 275.390625 273.707031 275.390625 275.390625 C 275.390625 276.78125 278.90625 276.121094 282.789062 273.925781 Z M 282.789062 273.925781 " fill-opacity="1" fill-rule="nonzero"/><path fill="#f6f5f5" d="M 257.445312 301.246094 C 257.226562 298.902344 256.199219 291.871094 255.175781 285.644531 C 254.222656 279.417969 253.417969 273.414062 253.417969 272.3125 C 253.417969 270.335938 253.5625 270.261719 257.152344 270.261719 C 260.816406 270.261719 260.816406 270.261719 262.28125 273.558594 C 264.402344 278.394531 265.796875 285.570312 266.308594 294.871094 L 266.820312 302.929688 L 262.941406 304.175781 C 260.816406 304.832031 258.839844 305.421875 258.546875 305.421875 C 258.253906 305.421875 257.738281 303.515625 257.445312 301.246094 Z M 257.445312 301.246094 " fill-opacity="1" fill-rule="nonzero"/><path fill="#f6f5f5" d="M 231.296875 251.953125 C 229.832031 248.949219 226.976562 242.578125 224.851562 237.890625 C 222.800781 233.203125 219.578125 227.125 217.820312 224.414062 C 216.0625 221.703125 214.597656 219.359375 214.597656 219.140625 C 214.597656 218.113281 217.015625 216.210938 217.894531 216.503906 C 218.40625 216.722656 220.019531 216.355469 221.558594 215.769531 C 225.511719 214.085938 227.710938 214.304688 231.445312 216.796875 C 233.277344 217.96875 235.472656 218.992188 236.425781 218.992188 C 238.035156 218.992188 238.035156 219.066406 237.671875 227.269531 C 237.085938 238.769531 235.839844 249.753906 234.742188 253.929688 L 233.789062 257.445312 Z M 233.714844 239.0625 C 234.960938 237.523438 233.714844 235.472656 231.445312 235.472656 C 229.175781 235.472656 227.929688 237.523438 229.175781 239.0625 C 229.761719 239.722656 230.710938 240.234375 231.445312 240.234375 C 232.175781 240.234375 233.128906 239.722656 233.714844 239.0625 Z M 231.003906 226.171875 C 231.957031 224.632812 230.859375 222.4375 229.101562 222.070312 C 227.929688 221.851562 225.585938 223.753906 225.585938 224.851562 C 225.585938 225.953125 227.929688 227.855469 229.101562 227.636719 C 229.6875 227.488281 230.566406 226.832031 231.003906 226.171875 Z M 231.003906 226.171875 " fill-opacity="1" fill-rule="nonzero"/><path fill="#f6f5f5" d="M 163.476562 196.289062 C 156.078125 193.652344 151.464844 190.210938 152.710938 188.230469 C 152.929688 187.867188 154.175781 188.011719 155.492188 188.597656 C 156.738281 189.109375 160.914062 189.84375 164.648438 190.28125 C 168.382812 190.648438 171.605469 191.089844 171.753906 191.308594 C 171.898438 191.453125 171.679688 192.992188 171.238281 194.675781 C 170.359375 198.265625 169.480469 198.484375 163.476562 196.289062 Z M 163.476562 196.289062 " fill-opacity="1" fill-rule="nonzero"/><path fill="#f6f5f5" d="M 148.902344 180.90625 C 145.53125 178.929688 145.898438 178.417969 149.265625 180.320312 C 152.636719 182.300781 152.785156 182.371094 151.90625 182.371094 C 151.539062 182.371094 150.148438 181.714844 148.902344 180.90625 Z M 148.902344 180.90625 " fill-opacity="1" fill-rule="nonzero"/><path fill="#f6f5f5" d="M 138.71875 168.382812 C 137.695312 166.332031 136.960938 164.5 137.109375 164.355469 C 137.253906 164.207031 138.28125 165.894531 139.378906 168.089844 C 140.476562 170.289062 141.210938 172.117188 140.992188 172.117188 C 140.769531 172.117188 139.820312 170.433594 138.71875 168.382812 Z M 138.71875 168.382812 " fill-opacity="1" fill-rule="nonzero"/><path fill="#f6f5f5" d="M 130.371094 140.550781 C 130.371094 139.964844 131.324219 138.867188 132.421875 138.132812 L 134.398438 136.742188 L 132.566406 138.867188 C 131.542969 140.039062 130.664062 141.136719 130.589844 141.285156 C 130.445312 141.429688 130.371094 141.136719 130.371094 140.550781 Z M 130.371094 140.550781 " fill-opacity="1" fill-rule="nonzero"/><path fill="#f6f5f5" d="M 104.222656 110.230469 C 104.222656 108.617188 104.371094 108.03125 104.515625 108.984375 C 104.664062 109.863281 104.664062 111.179688 104.515625 111.914062 C 104.296875 112.574219 104.148438 111.839844 104.222656 110.230469 Z M 104.222656 110.230469 " fill-opacity="1" fill-rule="nonzero"/><path fill="#f6f5f5" d="M 109.128906 97.777344 C 110.523438 96.386719 111.769531 95.214844 111.988281 95.214844 C 112.207031 95.214844 111.253906 96.386719 109.863281 97.777344 C 108.472656 99.167969 107.226562 100.339844 107.007812 100.339844 C 106.789062 100.339844 107.738281 99.167969 109.128906 97.777344 Z M 109.128906 97.777344 " fill-opacity="1" fill-rule="nonzero"/><path fill="#f6f5f5" d="M 127.660156 97.191406 C 127.367188 96.679688 126.269531 95.652344 125.242188 94.996094 C 124.292969 94.335938 123.707031 93.75 124 93.75 C 125.023438 93.75 128.027344 96.019531 128.46875 97.117188 C 128.980469 98.4375 128.46875 98.4375 127.660156 97.191406 Z M 127.660156 97.191406 " fill-opacity="1" fill-rule="nonzero"/><path fill="#f6f5f5" d="M 118.507812 93.238281 C 119.382812 93.089844 120.703125 93.089844 121.433594 93.238281 C 122.09375 93.457031 121.363281 93.601562 119.75 93.53125 C 118.140625 93.53125 117.554688 93.382812 118.507812 93.238281 Z M 118.507812 93.238281 " fill-opacity="1" fill-rule="nonzero"/><path fill="#f6f5f5" d="M 109.496094 83.054688 C 108.765625 76.609375 109.496094 67.96875 111.035156 63.355469 C 113.453125 56.394531 122.828125 49.511719 133.226562 47.167969 C 136.15625 46.507812 138.648438 46.140625 138.792969 46.289062 C 139.015625 46.433594 139.234375 47.3125 139.308594 48.265625 C 139.527344 49.730469 139.015625 50.097656 134.179688 51.34375 C 127.003906 53.171875 122.167969 55.882812 117.921875 60.570312 C 112.941406 66.0625 111.109375 71.042969 110.960938 79.980469 C 110.890625 83.933594 110.667969 87.304688 110.449219 87.597656 C 110.15625 87.816406 109.789062 85.765625 109.496094 83.054688 Z M 109.496094 83.054688 " fill-opacity="1" fill-rule="nonzero"/><path fill="#f6f5f5" d="M 170.433594 54.566406 C 171.3125 53.394531 173.070312 51.414062 174.390625 50.171875 C 176.21875 48.558594 176 48.925781 173.65625 51.636719 C 169.335938 56.542969 168.675781 57.128906 170.433594 54.566406 Z M 170.433594 54.566406 " fill-opacity="1" fill-rule="nonzero"/><path fill="#f6f5f5" d="M 121.582031 43.578125 C 121.582031 42.480469 125.171875 37.792969 128.6875 34.203125 C 135.496094 27.320312 145.3125 21.3125 156.664062 17.285156 C 160.398438 15.894531 162.304688 15.527344 162.890625 16.113281 C 164.136719 17.359375 162.597656 18.457031 153.367188 22.925781 C 145.75 26.585938 139.453125 31.054688 134.03125 36.621094 C 131.394531 39.332031 128.613281 41.746094 127.808594 41.96875 C 127 42.1875 125.242188 42.699219 124 43.066406 C 122.679688 43.503906 121.582031 43.726562 121.582031 43.578125 Z M 121.582031 43.578125 " fill-opacity="1" fill-rule="nonzero"/><path fill="#f6f5f5" d="M 258.542969 40.28125 C 258.105469 39.476562 258.03125 38.816406 258.324219 38.816406 C 258.691406 38.816406 259.351562 39.476562 259.863281 40.28125 C 260.375 41.089844 260.449219 41.746094 260.011719 41.746094 C 259.644531 41.746094 258.984375 41.089844 258.546875 40.28125 Z M 258.542969 40.28125 " fill-opacity="1" fill-rule="nonzero"/><path fill="#f6f5f5" d="M 152.710938 32.226562 C 155.492188 29.441406 157.984375 27.097656 158.128906 27.097656 C 158.347656 27.097656 156.226562 29.441406 153.441406 32.226562 C 150.660156 35.082031 148.167969 37.351562 148.023438 37.351562 C 147.800781 37.351562 149.925781 35.082031 152.710938 32.226562 Z M 152.710938 32.226562 " fill-opacity="1" fill-rule="nonzero"/><path fill="#f6f5f5" d="M 159.226562 26.511719 C 159.8125 25.5625 164.0625 22.410156 164.0625 22.925781 C 164.0625 23.144531 162.816406 24.167969 161.351562 25.34375 C 159.886719 26.441406 158.933594 27.027344 159.230469 26.511719 Z M 159.226562 26.511719 " fill-opacity="1" fill-rule="nonzero"/><path fill="#f6f5f5" d="M 232.910156 17.210938 C 231.882812 16.625 231.445312 16.1875 231.8125 16.1875 C 232.25 16.1875 233.347656 16.625 234.375 17.210938 C 235.398438 17.796875 235.914062 18.238281 235.472656 18.238281 C 235.105469 18.238281 233.933594 17.796875 232.910156 17.210938 Z M 232.910156 17.210938 " fill-opacity="1" fill-rule="nonzero"/><path fill="#f6f5f5" d="M 175.78125 15.746094 C 175.78125 15.234375 181.714844 12.304688 182.078125 12.597656 C 182.226562 12.816406 180.835938 13.621094 179.078125 14.5 C 177.246094 15.382812 175.78125 15.964844 175.78125 15.746094 Z M 175.78125 15.746094 " fill-opacity="1" fill-rule="nonzero"/><path fill="#f6f5f5" d="M 198.339844 9.007812 C 199.21875 8.863281 200.683594 8.863281 201.636719 9.007812 C 202.515625 9.15625 201.78125 9.300781 199.949219 9.300781 C 198.121094 9.300781 197.386719 9.15625 198.339844 9.007812 Z M 198.339844 9.007812 " fill-opacity="1" fill-rule="nonzero"/></svg>