<svg xmlns="http://www.w3.org/2000/svg" xmlns:xlink="http://www.w3.org/1999/xlink" width="500" zoomAndPan="magnify" viewBox="0 0 375 374.999991" height="500" preserveAspectRatio="xMidYMid meet" version="1.0"><path fill="#231f20" d="M 187.5 15.625 C 184.71875 15.597656 181.933594 15.636719 179.152344 15.746094 C 176.371094 15.851562 173.59375 16.03125 170.824219 16.273438 C 168.050781 16.519531 165.285156 16.832031 162.527344 17.210938 C 159.769531 17.589844 157.023438 18.039062 154.289062 18.554688 C 151.554688 19.070312 148.832031 19.652344 146.125 20.300781 C 143.417969 20.949219 140.730469 21.660156 138.058594 22.441406 C 135.386719 23.222656 132.738281 24.066406 130.105469 24.980469 C 127.476562 25.890625 124.871094 26.863281 122.289062 27.902344 C 119.707031 28.941406 117.148438 30.042969 114.621094 31.207031 C 112.09375 32.371094 109.59375 33.59375 107.125 34.882812 C 104.660156 36.167969 102.222656 37.511719 99.820312 38.917969 C 97.417969 40.324219 95.054688 41.789062 92.722656 43.3125 C 90.390625 44.832031 88.101562 46.410156 85.847656 48.046875 C 83.59375 49.679688 81.382812 51.371094 79.214844 53.113281 C 77.042969 54.855469 74.917969 56.648438 72.835938 58.496094 C 70.753906 60.34375 68.71875 62.242188 66.730469 64.1875 C 64.742188 66.136719 62.800781 68.132812 60.910156 70.171875 C 59.019531 72.214844 57.179688 74.304688 55.390625 76.4375 C 53.601562 78.570312 51.867188 80.746094 50.1875 82.960938 C 48.503906 85.179688 46.878906 87.4375 45.308594 89.734375 C 43.738281 92.03125 42.222656 94.367188 40.765625 96.738281 C 39.308594 99.109375 37.914062 101.515625 36.574219 103.957031 C 35.238281 106.398438 33.957031 108.871094 32.742188 111.375 C 31.523438 113.875 30.371094 116.40625 29.277344 118.96875 C 28.183594 121.527344 27.15625 124.113281 26.1875 126.722656 C 25.222656 129.332031 24.320312 131.964844 23.484375 134.621094 C 22.648438 137.273438 21.878906 139.949219 21.171875 142.640625 C 20.464844 145.332031 19.828125 148.042969 19.253906 150.765625 C 18.683594 153.488281 18.175781 156.226562 17.738281 158.972656 C 17.300781 161.722656 16.929688 164.480469 16.625 167.246094 C 16.324219 170.011719 16.089844 172.785156 15.921875 175.5625 C 15.753906 178.34375 15.65625 181.125 15.625 183.90625 C 15.648438 188.328125 15.839844 192.742188 16.210938 197.144531 C 16.578125 201.550781 17.121094 205.9375 17.832031 210.296875 C 18.546875 214.660156 19.429688 218.988281 20.484375 223.285156 C 21.539062 227.578125 22.761719 231.820312 24.148438 236.019531 C 25.535156 240.21875 27.085938 244.351562 28.800781 248.429688 C 30.515625 252.503906 32.386719 256.507812 34.414062 260.433594 C 36.441406 264.363281 38.621094 268.203125 40.953125 271.960938 C 43.28125 275.71875 45.757812 279.378906 48.375 282.941406 C 50.996094 286.5 53.75 289.957031 56.640625 293.300781 C 59.527344 296.644531 62.546875 299.875 65.691406 302.980469 C 68.835938 306.089844 72.09375 309.070312 75.472656 311.921875 C 78.851562 314.773438 82.335938 317.488281 85.929688 320.0625 C 89.519531 322.640625 93.207031 325.074219 96.992188 327.359375 C 100.777344 329.648438 104.644531 331.785156 108.59375 333.765625 C 112.546875 335.75 116.570312 337.574219 120.664062 339.242188 C 124.757812 340.90625 128.910156 342.410156 133.125 343.75 C 141.71875 345.3125 144.84375 340.15625 144.84375 335.625 C 144.84375 331.09375 144.84375 321.09375 144.84375 307.03125 C 97.03125 317.1875 86.875 284.53125 86.875 284.53125 C 86.085938 281.988281 85.078125 279.535156 83.847656 277.175781 C 82.621094 274.8125 81.195312 272.578125 79.566406 270.46875 C 77.941406 268.363281 76.140625 266.417969 74.164062 264.632812 C 72.191406 262.847656 70.074219 261.25 67.8125 259.84375 C 52.1875 249.53125 69.0625 249.6875 69.0625 249.6875 C 71.761719 250.046875 74.390625 250.707031 76.941406 251.664062 C 79.492188 252.617188 81.902344 253.847656 84.175781 255.347656 C 86.449219 256.851562 88.527344 258.585938 90.40625 260.558594 C 92.285156 262.53125 93.921875 264.6875 95.3125 267.03125 C 95.910156 268.070312 96.558594 269.078125 97.257812 270.050781 C 97.953125 271.027344 98.695312 271.96875 99.484375 272.871094 C 100.269531 273.773438 101.101562 274.636719 101.972656 275.460938 C 102.84375 276.285156 103.753906 277.0625 104.703125 277.796875 C 105.648438 278.53125 106.628906 279.21875 107.644531 279.859375 C 108.660156 280.496094 109.703125 281.085938 110.773438 281.625 C 111.84375 282.164062 112.941406 282.648438 114.058594 283.078125 C 115.175781 283.511719 116.3125 283.886719 117.46875 284.207031 C 118.625 284.53125 119.792969 284.792969 120.972656 285.003906 C 122.152344 285.210938 123.339844 285.359375 124.535156 285.453125 C 125.730469 285.542969 126.929688 285.578125 128.128906 285.554688 C 129.328125 285.53125 130.519531 285.449219 131.710938 285.308594 C 132.902344 285.167969 134.085938 284.972656 135.253906 284.71875 C 136.425781 284.464844 137.582031 284.152344 138.726562 283.785156 C 139.867188 283.417969 140.988281 282.996094 142.089844 282.523438 C 143.1875 282.046875 144.261719 281.519531 145.3125 280.9375 C 145.527344 278.816406 145.929688 276.726562 146.511719 274.675781 C 147.097656 272.621094 147.855469 270.636719 148.789062 268.71875 C 149.722656 266.800781 150.8125 264.976562 152.066406 263.25 C 153.320312 261.523438 154.714844 259.917969 156.25 258.4375 C 118.125 254.21875 78.125 239.84375 78.125 175.3125 C 78.039062 171.144531 78.355469 167.003906 79.070312 162.894531 C 79.785156 158.789062 80.882812 154.785156 82.371094 150.890625 C 83.855469 146.992188 85.699219 143.273438 87.902344 139.734375 C 90.109375 136.195312 92.628906 132.898438 95.46875 129.84375 C 94.175781 126.265625 93.238281 122.59375 92.652344 118.832031 C 92.070312 115.074219 91.851562 111.292969 92 107.488281 C 92.144531 103.6875 92.65625 99.933594 93.527344 96.226562 C 94.402344 92.523438 95.621094 88.9375 97.1875 85.46875 C 97.1875 85.46875 111.71875 80.9375 144.0625 102.65625 C 151.070312 100.789062 158.171875 99.382812 165.363281 98.441406 C 172.554688 97.5 179.777344 97.03125 187.03125 97.03125 C 194.285156 97.03125 201.507812 97.5 208.699219 98.441406 C 215.890625 99.382812 222.992188 100.789062 230 102.65625 C 262.8125 80.9375 276.875 85.46875 276.875 85.46875 C 278.441406 88.9375 279.660156 92.523438 280.535156 96.226562 C 281.40625 99.933594 281.917969 103.6875 282.0625 107.488281 C 282.210938 111.292969 281.992188 115.074219 281.410156 118.832031 C 280.824219 122.59375 279.886719 126.265625 278.59375 129.84375 C 281.5 132.839844 284.089844 136.089844 286.371094 139.585938 C 288.648438 143.085938 290.570312 146.769531 292.136719 150.640625 C 293.703125 154.507812 294.882812 158.492188 295.683594 162.589844 C 296.480469 166.6875 296.875 170.824219 296.875 175 C 296.875 239.6875 256.5625 253.90625 218.75 258.125 C 220.820312 260.136719 222.644531 262.347656 224.226562 264.761719 C 225.804688 267.175781 227.101562 269.734375 228.113281 272.433594 C 229.128906 275.136719 229.832031 277.917969 230.230469 280.773438 C 230.628906 283.632812 230.707031 286.5 230.46875 289.375 L 230.46875 335.46875 C 230.46875 335.46875 233.59375 345.3125 242.1875 343.59375 C 246.390625 342.246094 250.53125 340.734375 254.613281 339.0625 C 258.695312 337.390625 262.707031 335.558594 266.648438 333.570312 C 270.585938 331.582031 274.441406 329.445312 278.210938 327.15625 C 281.984375 324.863281 285.660156 322.429688 289.242188 319.851562 C 292.820312 317.273438 296.296875 314.558594 299.664062 311.707031 C 303.03125 308.855469 306.28125 305.878906 309.414062 302.773438 C 312.550781 299.667969 315.554688 296.441406 318.4375 293.101562 C 321.320312 289.757812 324.0625 286.308594 326.675781 282.753906 C 329.285156 279.195312 331.753906 275.539062 334.078125 271.789062 C 336.398438 268.039062 338.574219 264.203125 340.597656 260.28125 C 342.621094 256.359375 344.484375 252.367188 346.195312 248.300781 C 347.90625 244.230469 349.453125 240.101562 350.839844 235.914062 C 352.222656 231.726562 353.445312 227.488281 354.496094 223.203125 C 355.550781 218.917969 356.433594 214.597656 357.148438 210.246094 C 357.863281 205.890625 358.40625 201.515625 358.777344 197.121094 C 359.148438 192.722656 359.347656 188.320312 359.375 183.90625 C 359.34375 181.125 359.246094 178.34375 359.078125 175.5625 C 358.910156 172.785156 358.675781 170.011719 358.375 167.246094 C 358.070312 164.480469 357.699219 161.722656 357.261719 158.972656 C 356.824219 156.226562 356.316406 153.488281 355.746094 150.765625 C 355.171875 148.042969 354.535156 145.332031 353.828125 142.640625 C 353.121094 139.949219 352.351562 137.273438 351.515625 134.621094 C 350.679688 131.964844 349.777344 129.332031 348.8125 126.722656 C 347.84375 124.113281 346.816406 121.527344 345.722656 118.96875 C 344.628906 116.40625 343.476562 113.875 342.257812 111.375 C 341.042969 108.871094 339.761719 106.398438 338.425781 103.957031 C 337.085938 101.515625 335.691406 99.109375 334.234375 96.738281 C 332.777344 94.367188 331.261719 92.03125 329.691406 89.734375 C 328.121094 87.4375 326.496094 85.179688 324.8125 82.960938 C 323.132812 80.746094 321.398438 78.570312 319.609375 76.4375 C 317.820312 74.304688 315.980469 72.214844 314.089844 70.171875 C 312.199219 68.132812 310.257812 66.136719 308.269531 64.1875 C 306.28125 62.242188 304.246094 60.34375 302.164062 58.496094 C 300.082031 56.648438 297.957031 54.855469 295.785156 53.113281 C 293.617188 51.371094 291.40625 49.679688 289.152344 48.046875 C 286.898438 46.410156 284.609375 44.832031 282.277344 43.3125 C 279.945312 41.789062 277.582031 40.324219 275.179688 38.917969 C 272.777344 37.511719 270.339844 36.167969 267.875 34.882812 C 265.40625 33.59375 262.90625 32.371094 260.378906 31.207031 C 257.851562 30.042969 255.292969 28.941406 252.710938 27.902344 C 250.128906 26.863281 247.523438 25.890625 244.894531 24.980469 C 242.261719 24.066406 239.613281 23.222656 236.941406 22.441406 C 234.269531 21.660156 231.582031 20.949219 228.875 20.300781 C 226.167969 19.652344 223.445312 19.070312 220.710938 18.554688 C 217.976562 18.039062 215.230469 17.589844 212.472656 17.210938 C 209.714844 16.832031 206.949219 16.519531 204.175781 16.273438 C 201.40625 16.03125 198.628906 15.851562 195.847656 15.746094 C 193.066406 15.636719 190.28125 15.597656 187.5 15.625 " fill-opacity="1" fill-rule="nonzero"/></svg>