<svg xmlns="http://www.w3.org/2000/svg" xmlns:xlink="http://www.w3.org/1999/xlink" width="500" zoomAndPan="magnify" viewBox="0 0 375 374.999991" height="500" preserveAspectRatio="xMidYMid meet" version="1.0"><defs><clipPath id="ee3aa4b9eb"><path d="M 0 20.507812 L 375 20.507812 L 375 354 L 0 354 Z M 0 20.507812 " clip-rule="nonzero"/></clipPath></defs><g clip-path="url(#ee3aa4b9eb)"><path fill="#00d8ff" d="M 308.324219 128.570312 C 304.433594 127.234375 300.402344 125.96875 296.253906 124.769531 C 296.9375 121.988281 297.5625 119.242188 298.117188 116.542969 C 307.257812 72.21875 301.28125 36.507812 280.878906 24.75 C 261.316406 13.476562 229.324219 25.230469 197.011719 53.332031 C 193.902344 56.035156 190.789062 58.894531 187.671875 61.894531 C 185.597656 59.910156 183.527344 57.992188 181.460938 56.160156 C 147.597656 26.113281 113.652344 13.449219 93.269531 25.242188 C 73.726562 36.546875 67.9375 70.117188 76.164062 112.125 C 76.957031 116.183594 77.886719 120.328125 78.9375 124.539062 C 74.132812 125.902344 69.496094 127.355469 65.058594 128.898438 C 25.355469 142.730469 0 164.410156 0 186.898438 C 0 210.121094 27.21875 233.414062 68.570312 247.539062 C 71.835938 248.652344 75.222656 249.707031 78.710938 250.707031 C 77.578125 255.265625 76.59375 259.730469 75.765625 264.085938 C 67.921875 305.363281 74.046875 338.140625 93.539062 349.375 C 113.671875 360.976562 147.464844 349.050781 180.367188 320.3125 C 182.96875 318.039062 185.578125 315.628906 188.191406 313.105469 C 191.582031 316.367188 194.964844 319.453125 198.328125 322.347656 C 230.199219 349.753906 261.675781 360.820312 281.152344 349.554688 C 301.265625 337.917969 307.800781 302.707031 299.316406 259.867188 C 298.667969 256.597656 297.914062 253.253906 297.066406 249.851562 C 299.4375 249.152344 301.769531 248.425781 304.039062 247.675781 C 347.03125 233.441406 375 210.429688 375 186.898438 C 375 164.328125 348.828125 142.503906 308.324219 128.570312 Z M 299 232.480469 C 296.949219 233.15625 294.847656 233.8125 292.703125 234.449219 C 287.957031 219.433594 281.550781 203.46875 273.714844 186.976562 C 281.191406 170.871094 287.351562 155.113281 291.964844 140.195312 C 295.800781 141.304688 299.523438 142.472656 303.109375 143.707031 C 337.8125 155.648438 358.980469 173.296875 358.980469 186.898438 C 358.980469 201.382812 336.121094 220.1875 299 232.480469 Z M 283.597656 262.976562 C 287.351562 281.921875 287.886719 299.046875 285.402344 312.433594 C 283.167969 324.464844 278.675781 332.488281 273.125 335.699219 C 261.304688 342.535156 236.03125 333.648438 208.777344 310.210938 C 205.652344 307.523438 202.503906 304.65625 199.347656 301.621094 C 209.914062 290.070312 220.476562 276.644531 230.78125 261.734375 C 248.910156 260.128906 266.039062 257.5 281.570312 253.914062 C 282.335938 256.996094 283.015625 260.019531 283.597656 262.976562 Z M 127.847656 334.519531 C 116.300781 338.59375 107.105469 338.710938 101.542969 335.507812 C 89.714844 328.6875 84.796875 302.371094 91.507812 267.070312 C 92.273438 263.027344 93.1875 258.875 94.242188 254.628906 C 109.605469 258.023438 126.605469 260.464844 144.777344 261.9375 C 155.15625 276.527344 166.019531 289.9375 176.96875 301.679688 C 174.578125 303.988281 172.195312 306.1875 169.824219 308.257812 C 155.273438 320.964844 140.695312 329.984375 127.847656 334.519531 Z M 73.753906 232.390625 C 55.46875 226.144531 40.367188 218.027344 30.015625 209.171875 C 20.714844 201.210938 16.019531 193.308594 16.019531 186.898438 C 16.019531 173.25 36.378906 155.847656 70.332031 144.015625 C 74.449219 142.582031 78.761719 141.230469 83.238281 139.957031 C 87.929688 155.210938 94.085938 171.160156 101.515625 187.285156 C 93.992188 203.652344 87.746094 219.855469 83.007812 235.285156 C 79.820312 234.371094 76.726562 233.40625 73.753906 232.390625 Z M 91.886719 109.050781 C 84.839844 73.058594 89.519531 45.910156 101.296875 39.097656 C 113.84375 31.835938 141.582031 42.1875 170.824219 68.128906 C 172.691406 69.789062 174.566406 71.523438 176.449219 73.320312 C 165.554688 85.011719 154.789062 98.320312 144.503906 112.824219 C 126.867188 114.457031 109.984375 117.082031 94.464844 120.59375 C 93.488281 116.671875 92.621094 112.820312 91.886719 109.050781 Z M 253.644531 148.964844 C 249.933594 142.558594 246.125 136.308594 242.238281 130.222656 C 254.203125 131.734375 265.667969 133.742188 276.433594 136.199219 C 273.203125 146.546875 269.171875 157.371094 264.429688 168.464844 C 261.03125 162.011719 257.433594 155.503906 253.644531 148.964844 Z M 187.679688 84.761719 C 195.066406 92.761719 202.46875 101.691406 209.746094 111.382812 C 202.410156 111.035156 194.988281 110.855469 187.5 110.855469 C 180.085938 110.855469 172.714844 111.03125 165.425781 111.371094 C 172.710938 101.773438 180.175781 92.851562 187.679688 84.761719 Z M 121.292969 149.074219 C 117.585938 155.5 114.054688 161.96875 110.707031 168.453125 C 106.039062 157.398438 102.050781 146.527344 98.789062 136.027344 C 109.488281 133.636719 120.898438 131.679688 132.789062 130.195312 C 128.847656 136.335938 125.007812 142.632812 121.292969 149.074219 Z M 133.128906 244.738281 C 120.847656 243.371094 109.265625 241.515625 98.570312 239.1875 C 101.882812 228.503906 105.960938 217.398438 110.722656 206.105469 C 114.082031 212.582031 117.625 219.058594 121.355469 225.496094 C 125.15625 232.050781 129.089844 238.476562 133.128906 244.738281 Z M 188.121094 290.160156 C 180.53125 281.976562 172.957031 272.917969 165.558594 263.179688 C 172.738281 263.460938 180.058594 263.605469 187.5 263.605469 C 195.144531 263.605469 202.699219 263.433594 210.136719 263.101562 C 202.835938 273.019531 195.460938 282.085938 188.121094 290.160156 Z M 264.585938 205.527344 C 269.597656 216.945312 273.820312 227.992188 277.175781 238.492188 C 266.304688 240.972656 254.566406 242.96875 242.195312 244.453125 C 246.089844 238.289062 249.929688 231.925781 253.707031 225.382812 C 257.527344 218.765625 261.15625 212.136719 264.585938 205.527344 Z M 239.832031 217.386719 C 233.96875 227.542969 227.949219 237.238281 221.839844 246.390625 C 210.714844 247.1875 199.21875 247.597656 187.5 247.597656 C 175.832031 247.597656 164.480469 247.234375 153.546875 246.523438 C 147.191406 237.253906 141.042969 227.527344 135.21875 217.472656 C 129.410156 207.445312 124.0625 197.335938 119.21875 187.28125 C 124.0625 177.203125 129.394531 167.082031 135.171875 157.070312 L 135.167969 157.074219 C 140.960938 147.039062 147.054688 137.359375 153.351562 128.144531 C 164.503906 127.304688 175.941406 126.863281 187.5 126.863281 C 199.109375 126.863281 210.5625 127.308594 221.710938 128.15625 C 227.910156 137.304688 233.964844 146.949219 239.777344 156.988281 C 245.65625 167.136719 251.058594 177.191406 255.945312 187.054688 C 251.074219 197.085938 245.683594 207.242188 239.832031 217.386719 Z M 272.878906 38.621094 C 285.433594 45.855469 290.320312 75.042969 282.429688 113.3125 C 281.925781 115.753906 281.359375 118.242188 280.742188 120.761719 C 265.1875 117.175781 248.292969 114.503906 230.601562 112.847656 C 220.300781 98.183594 209.621094 84.851562 198.902344 73.3125 C 201.785156 70.542969 204.664062 67.902344 207.527344 65.40625 C 235.214844 41.332031 261.089844 31.824219 272.878906 38.621094 Z M 187.5 153.433594 C 205.992188 153.433594 220.984375 168.414062 220.984375 186.898438 C 220.984375 205.378906 205.992188 220.359375 187.5 220.359375 C 169.007812 220.359375 154.015625 205.378906 154.015625 186.898438 C 154.015625 168.414062 169.007812 153.433594 187.5 153.433594 Z M 187.5 153.433594 " fill-opacity="1" fill-rule="nonzero"/></g></svg>