<svg xmlns="http://www.w3.org/2000/svg" xmlns:xlink="http://www.w3.org/1999/xlink" width="500" zoomAndPan="magnify" viewBox="0 0 375 374.999991" height="500" preserveAspectRatio="xMidYMid meet" version="1.0"><defs><clipPath id="40523574c4"><path d="M 23.117188 1 L 351 1 L 351 375 L 23.117188 375 Z M 23.117188 1 " clip-rule="nonzero"/></clipPath></defs><g clip-path="url(#40523574c4)"><path fill="#95bf46" d="M 310.261719 73.640625 C 310.007812 71.765625 308.363281 70.730469 307.007812 70.617188 C 305.65625 70.5 277.003906 68.375 277.003906 68.375 C 277.003906 68.375 257.105469 48.605469 254.921875 46.417969 C 252.734375 44.230469 248.46875 44.894531 246.8125 45.382812 C 246.566406 45.457031 242.464844 46.722656 235.675781 48.824219 C 229.027344 29.683594 217.296875 12.09375 196.660156 12.09375 C 196.089844 12.09375 195.503906 12.117188 194.917969 12.148438 C 189.046875 4.378906 181.777344 1.007812 175.496094 1.007812 C 127.421875 1.007812 104.453125 61.152344 97.253906 91.714844 C 78.570312 97.507812 65.300781 101.628906 63.605469 102.160156 C 53.179688 105.433594 52.847656 105.761719 51.480469 115.597656 C 50.445312 123.039062 23.164062 334.203125 23.164062 334.203125 L 235.761719 374.066406 L 350.957031 349.125 C 350.957031 349.125 310.519531 75.519531 310.261719 73.640625 Z M 223.925781 52.464844 C 218.585938 54.117188 212.515625 55.996094 205.9375 58.035156 C 205.941406 56.765625 205.949219 55.515625 205.949219 54.152344 C 205.949219 42.253906 204.296875 32.675781 201.652344 25.082031 C 212.285156 26.421875 219.367188 38.527344 223.925781 52.464844 Z M 188.460938 27.441406 C 191.414062 34.855469 193.339844 45.496094 193.339844 59.851562 C 193.339844 60.585938 193.332031 61.257812 193.328125 61.9375 C 181.625 65.566406 168.914062 69.503906 156.171875 73.453125 C 163.328125 45.820312 176.738281 32.476562 188.460938 27.441406 Z M 174.175781 13.910156 C 176.25 13.910156 178.339844 14.613281 180.34375 15.992188 C 164.933594 23.25 148.417969 41.523438 141.445312 78.019531 C 131.253906 81.175781 121.289062 84.261719 112.078125 87.121094 C 120.246094 59.285156 139.644531 13.910156 174.175781 13.910156 Z M 174.175781 13.910156 " fill-opacity="1" fill-rule="nonzero"/></g><path fill="#5e8e3e" d="M 307.007812 70.617188 C 305.65625 70.5 277.003906 68.375 277.003906 68.375 C 277.003906 68.375 257.105469 48.605469 254.921875 46.417969 C 254.105469 45.601562 253 45.1875 251.847656 45.007812 L 235.773438 374.0625 L 350.957031 349.125 C 350.957031 349.125 310.519531 75.519531 310.261719 73.640625 C 310.007812 71.765625 308.363281 70.730469 307.007812 70.617188 " fill-opacity="1" fill-rule="nonzero"/><path fill="#ffffff" d="M 196.660156 134.316406 L 182.457031 176.597656 C 182.457031 176.597656 170.011719 169.949219 154.757812 169.949219 C 132.394531 169.949219 131.265625 183.996094 131.265625 187.535156 C 131.265625 206.847656 181.570312 214.246094 181.570312 259.484375 C 181.570312 295.070312 159.015625 317.988281 128.601562 317.988281 C 92.105469 317.988281 73.445312 295.257812 73.445312 295.257812 L 83.214844 262.949219 C 83.214844 262.949219 102.398438 279.429688 118.589844 279.429688 C 129.164062 279.429688 133.46875 271.097656 133.46875 265.007812 C 133.46875 239.8125 92.199219 238.691406 92.199219 197.296875 C 92.199219 162.457031 117.1875 128.742188 167.625 128.742188 C 187.058594 128.742188 196.660156 134.316406 196.660156 134.316406 " fill-opacity="1" fill-rule="nonzero"/></svg>