<svg xmlns="http://www.w3.org/2000/svg" xmlns:xlink="http://www.w3.org/1999/xlink" width="500" zoomAndPan="magnify" viewBox="0 0 375 374.999991" height="500" preserveAspectRatio="xMidYMid meet" version="1.0"><defs><clipPath id="71c522be55"><path d="M 0 75.4375 L 375 75.4375 L 375 299 L 0 299 Z M 0 75.4375 " clip-rule="nonzero"/></clipPath></defs><g clip-path="url(#71c522be55)"><path fill="#9b5c8f" d="M 34.800781 75.4375 L 340.046875 75.4375 C 359.363281 75.4375 375 91.085938 375 110.414062 L 375 226.996094 C 375 246.328125 359.363281 261.972656 340.046875 261.972656 L 230.582031 261.972656 L 245.605469 298.789062 L 179.527344 261.972656 L 34.957031 261.972656 C 15.640625 261.972656 0 246.328125 0 226.996094 L 0 110.414062 C -0.152344 91.238281 15.484375 75.4375 34.804688 75.4375 Z M 34.800781 75.4375 " fill-opacity="1" fill-rule="nonzero"/></g><path fill="#ffffff" d="M 21.355469 107.316406 C 23.488281 104.417969 26.691406 102.894531 30.957031 102.589844 C 38.734375 101.980469 43.152344 105.640625 44.21875 113.570312 C 48.945312 145.449219 54.128906 172.445312 59.617188 194.5625 L 93 130.960938 C 96.050781 125.164062 99.859375 122.113281 104.433594 121.808594 C 111.140625 121.351562 115.257812 125.621094 116.933594 134.621094 C 120.746094 154.90625 125.625 172.140625 131.414062 186.785156 C 135.378906 148.042969 142.085938 120.128906 151.539062 102.894531 C 153.824219 98.625 157.179688 96.488281 161.597656 96.183594 C 165.105469 95.878906 168.304688 96.945312 171.203125 99.234375 C 174.097656 101.523438 175.625 104.417969 175.929688 107.925781 C 176.082031 110.671875 175.625 112.960938 174.402344 115.25 C 168.457031 126.230469 163.582031 144.6875 159.617188 170.3125 C 155.804688 195.171875 154.433594 214.542969 155.347656 228.421875 C 155.652344 232.238281 155.042969 235.59375 153.519531 238.492188 C 151.691406 241.847656 148.945312 243.675781 145.441406 243.980469 C 141.476562 244.285156 137.359375 242.457031 133.398438 238.339844 C 119.21875 223.847656 107.941406 202.1875 99.707031 173.363281 C 89.800781 192.886719 82.484375 207.527344 77.757812 217.289062 C 68.761719 234.523438 61.140625 243.371094 54.738281 243.828125 C 50.625 244.132812 47.117188 240.625 44.066406 233.304688 C 36.292969 213.324219 27.910156 174.734375 18.914062 117.535156 C 18.304688 113.570312 19.21875 110.0625 21.355469 107.316406 Z M 348.945312 131.265625 C 343.457031 121.65625 335.378906 115.859375 324.554688 113.570312 C 321.660156 112.960938 318.914062 112.65625 316.324219 112.65625 C 301.691406 112.65625 289.800781 120.28125 280.5 135.535156 C 272.574219 148.5 268.609375 162.835938 268.609375 178.546875 C 268.609375 190.292969 271.050781 200.359375 275.929688 208.746094 C 281.414062 218.355469 289.496094 224.152344 300.316406 226.441406 C 303.214844 227.050781 305.957031 227.355469 308.550781 227.355469 C 323.335938 227.355469 335.226562 219.730469 344.371094 204.476562 C 352.300781 191.359375 356.261719 177.023438 356.261719 161.3125 C 356.414062 149.414062 353.824219 139.5 348.945312 131.265625 Z M 329.738281 173.515625 C 327.605469 183.582031 323.792969 191.054688 318.152344 196.089844 C 313.734375 200.054688 309.617188 201.730469 305.804688 200.96875 C 302.148438 200.207031 299.097656 197.003906 296.8125 191.054688 C 294.984375 186.328125 294.066406 181.597656 294.066406 177.175781 C 294.066406 173.363281 294.375 169.546875 295.136719 166.039062 C 296.507812 159.785156 299.097656 153.6875 303.214844 147.890625 C 308.246094 140.414062 313.582031 137.367188 319.066406 138.433594 C 322.726562 139.195312 325.777344 142.398438 328.0625 148.347656 C 329.890625 153.074219 330.804688 157.804688 330.804688 162.226562 C 330.804688 166.191406 330.5 170.007812 329.738281 173.515625 Z M 253.519531 131.265625 C 248.03125 121.65625 239.800781 115.859375 229.128906 113.570312 C 226.234375 112.960938 223.488281 112.65625 220.898438 112.65625 C 206.261719 112.65625 194.375 120.28125 185.074219 135.535156 C 177.148438 148.5 173.183594 162.835938 173.183594 178.546875 C 173.183594 190.292969 175.625 200.359375 180.5 208.746094 C 185.988281 218.355469 194.066406 224.152344 204.890625 226.441406 C 207.789062 227.050781 210.53125 227.355469 213.125 227.355469 C 227.910156 227.355469 239.800781 219.730469 248.945312 204.476562 C 256.875 191.359375 260.835938 177.023438 260.835938 161.3125 C 260.835938 149.414062 258.398438 139.5 253.519531 131.265625 Z M 234.160156 173.515625 C 232.027344 183.582031 228.214844 191.054688 222.574219 196.089844 C 218.152344 200.054688 214.039062 201.730469 210.226562 200.96875 C 206.566406 200.207031 203.519531 197.003906 201.234375 191.054688 C 199.402344 186.328125 198.488281 181.597656 198.488281 177.175781 C 198.488281 173.363281 198.792969 169.546875 199.554688 166.039062 C 200.929688 159.785156 203.519531 153.6875 207.636719 147.890625 C 212.664062 140.414062 218 137.367188 223.488281 138.433594 C 227.148438 139.195312 230.195312 142.398438 232.484375 148.347656 C 234.3125 153.074219 235.226562 157.804688 235.226562 162.226562 C 235.378906 166.191406 234.921875 170.007812 234.160156 173.515625 Z M 234.160156 173.515625 " fill-opacity="1" fill-rule="nonzero"/></svg>