<svg xmlns="http://www.w3.org/2000/svg" xmlns:xlink="http://www.w3.org/1999/xlink" width="500" zoomAndPan="magnify" viewBox="0 0 375 374.999991" height="500" preserveAspectRatio="xMidYMid meet" version="1.0"><path fill="#00749a" d="M 26.652344 187.492188 C 26.652344 251.164062 63.652344 306.183594 117.304688 332.257812 L 40.578125 122.035156 C 31.378906 142.628906 26.632812 164.9375 26.652344 187.492188 Z M 296.085938 179.378906 C 296.085938 193.148438 290.792969 209.125 283.835938 231.375 L 267.796875 284.988281 L 209.667969 112.082031 C 219.347656 111.570312 228.078125 110.546875 228.078125 110.546875 C 236.742188 109.519531 235.722656 96.785156 227.046875 97.296875 C 227.046875 97.296875 201 99.339844 184.179688 99.339844 C 168.375 99.339844 141.8125 97.296875 141.8125 97.296875 C 133.144531 96.785156 132.128906 110.039062 140.792969 110.546875 C 140.792969 110.546875 149 111.570312 157.660156 112.082031 L 182.726562 180.738281 L 147.523438 286.308594 L 88.949219 112.082031 C 98.644531 111.574219 107.359375 110.550781 107.359375 110.550781 C 116.019531 109.523438 114.996094 96.789062 106.324219 97.300781 C 106.324219 97.300781 80.285156 99.339844 63.460938 99.339844 C 60.441406 99.339844 56.882812 99.265625 53.109375 99.152344 C 81.867188 55.484375 131.308594 26.652344 187.5 26.652344 C 229.375 26.652344 267.5 42.660156 296.121094 68.875 C 295.421875 68.835938 294.746094 68.746094 294.035156 68.746094 C 278.238281 68.746094 267.027344 82.511719 267.027344 97.296875 C 267.027344 110.546875 274.667969 121.765625 282.820312 135.015625 C 288.945312 145.730469 296.085938 159.5 296.085938 179.378906 Z M 190.320312 201.5625 L 239.769531 337.019531 C 240.082031 337.789062 240.464844 338.53125 240.914062 339.234375 C 224.195312 345.109375 206.230469 348.351562 187.5 348.351562 C 172.117188 348.351562 156.816406 346.144531 142.0625 341.796875 Z M 328.636719 110.324219 C 341.605469 133.972656 348.386719 160.519531 348.34375 187.492188 C 348.34375 246.835938 316.179688 298.644531 268.359375 326.527344 L 317.492188 184.476562 C 326.671875 161.535156 329.722656 143.183594 329.722656 126.863281 C 329.722656 120.949219 329.328125 115.445312 328.636719 110.324219 Z M 187.5 0 C 290.882812 0 375.007812 84.109375 375.007812 187.492188 C 375.007812 290.894531 290.882812 375 187.5 375 C 84.113281 375 0 290.890625 0 187.492188 C 0 84.109375 84.113281 0 187.5 0 Z M 187.5 366.402344 C 286.136719 366.402344 366.394531 286.144531 366.394531 187.492188 C 366.394531 88.851562 286.140625 8.601562 187.5 8.601562 C 88.851562 8.601562 8.597656 88.851562 8.597656 187.492188 C 8.597656 286.144531 88.855469 366.402344 187.5 366.402344 Z M 187.5 366.402344 " fill-opacity="1" fill-rule="nonzero"/></svg>