<svg xmlns="http://www.w3.org/2000/svg" xmlns:xlink="http://www.w3.org/1999/xlink" width="500" zoomAndPan="magnify" viewBox="0 0 375 374.999991" height="500" preserveAspectRatio="xMidYMid meet" version="1.0"><path fill="#0073ba" d="M 195.804688 296.464844 L 181.128906 296.464844 L 181.15625 323.921875 C 181.15625 331.945312 177.71875 338.4375 169.691406 338.4375 C 161.667969 338.4375 158.195312 331.945312 158.195312 323.921875 L 158.195312 296.492188 L 143.558594 296.492188 L 143.558594 323.921875 C 143.558594 339.777344 153.75 352.625 169.605469 352.625 C 185.457031 352.625 195.800781 339.777344 195.800781 323.921875 Z M 328.109375 279.738281 L 342.710938 279.738281 L 342.710938 351.207031 L 328.109375 351.207031 Z M 131.628906 295.871094 C 119.042969 292.964844 111.101562 305.46875 110.773438 306.140625 C 110.609375 306.46875 110.605469 306.660156 110.042969 306.648438 C 109.585938 306.636719 109.53125 306.140625 109.53125 306.140625 L 107.96875 296.570312 L 94.894531 296.570312 L 94.894531 351.15625 L 109.554688 351.15625 L 109.554688 321.613281 C 109.554688 319.203125 116.054688 307.625 128.652344 310.605469 C 135.027344 312.109375 137.726562 314.8125 137.726562 314.8125 L 137.726562 298.183594 C 135.367188 296.957031 133.75 296.359375 131.628906 295.871094 Z M 215.699219 369.140625 L 215.699219 349.5 L 215.707031 349.503906 L 215.707031 342.148438 C 215.707031 342.148438 215.730469 341.558594 216.261719 341.550781 C 216.730469 341.546875 216.835938 341.863281 216.953125 342.148438 C 218.066406 344.910156 224.179688 355.453125 237.746094 352.144531 C 249.890625 348.722656 258.800781 337.570312 258.800781 324.328125 C 258.800781 308.371094 245.859375 295.429688 229.898438 295.429688 C 213.9375 295.429688 201 308.371094 201 324.328125 L 201 369.136719 Z M 229.914062 309.707031 C 237.992188 309.707031 244.542969 316.253906 244.542969 324.328125 C 244.542969 332.410156 237.996094 338.960938 229.914062 338.960938 C 221.832031 338.960938 215.285156 332.414062 215.285156 324.328125 C 215.285156 316.253906 221.832031 309.707031 229.914062 309.707031 Z M 307.480469 351.1875 L 322.183594 351.1875 L 322.183594 324.328125 C 322.183594 308.371094 309.25 295.433594 293.285156 295.433594 C 277.324219 295.433594 264.382812 308.371094 264.382812 324.328125 C 264.382812 337.574219 273.296875 348.722656 285.4375 352.144531 C 299.007812 355.453125 305.117188 344.914062 306.230469 342.148438 C 306.347656 341.863281 306.449219 341.546875 306.925781 341.554688 C 307.457031 341.558594 307.476562 342.148438 307.476562 342.148438 M 307.898438 324.328125 C 307.898438 332.410156 301.347656 338.960938 293.269531 338.960938 C 285.191406 338.960938 278.640625 332.414062 278.640625 324.328125 C 278.640625 316.253906 285.191406 309.707031 293.269531 309.707031 C 301.351562 309.707031 307.898438 316.253906 307.898438 324.328125 Z M 48.964844 351.074219 L 32.289062 351.074219 L 32.289062 279.710938 L 50.183594 279.710938 C 71.851562 279.710938 88.285156 283.6875 88.285156 315.390625 C 88.285156 346.792969 70.875 351.074219 48.964844 351.074219 Z M 52.949219 292.082031 L 47.054688 292.082031 L 47.054688 338.6875 L 53.105469 338.84375 C 65.523438 338.84375 73.515625 337.714844 73.515625 315.386719 C 73.515625 293.980469 66.460938 292.082031 52.949219 292.082031 Z M 52.949219 292.082031 " fill-opacity="1" fill-rule="nonzero"/><path fill="#00598e" d="M 244.742188 60.660156 C 231.324219 52.304688 218.664062 49.015625 206.007812 40.664062 C 198.160156 35.347656 187.273438 22.6875 178.160156 11.800781 C 176.390625 29.265625 171.074219 36.359375 164.996094 41.417969 C 152.085938 51.546875 143.980469 54.585938 132.84375 60.660156 C 123.476562 65.472656 72.59375 95.851562 72.59375 161.164062 C 72.59375 226.480469 127.53125 274.582031 188.539062 274.582031 C 249.554688 274.582031 302.464844 230.277344 302.464844 163.191406 C 302.464844 96.105469 252.84375 65.726562 244.742188 60.660156 Z M 244.742188 60.660156 " fill-opacity="1" fill-rule="nonzero"/><path fill="#ffffff" d="M 224.179688 217.84375 C 228.226562 217.84375 232.535156 218.097656 235.574219 220.121094 C 238.609375 222.144531 240.382812 226.707031 241.394531 229.234375 C 242.40625 231.765625 241.394531 233.285156 239.371094 234.296875 C 237.601562 235.3125 237.34375 234.804688 235.574219 231.519531 C 233.800781 228.226562 232.28125 224.933594 223.421875 224.933594 C 214.5625 224.933594 211.773438 227.96875 207.472656 231.519531 C 203.167969 235.0625 201.648438 236.328125 200.128906 234.296875 C 198.613281 232.273438 199.117188 230.25 201.898438 227.714844 C 204.683594 225.183594 209.242188 221.136719 213.542969 219.359375 C 217.851562 217.59375 220.128906 217.84375 224.179688 217.84375 Z M 182.15625 246.707031 C 187.222656 250.753906 194.8125 254.046875 211.015625 254.046875 C 227.21875 254.046875 238.609375 249.488281 243.671875 245.691406 C 245.953125 243.917969 246.964844 245.441406 247.21875 246.449219 C 247.46875 247.46875 247.976562 248.984375 246.203125 250.753906 C 244.9375 252.023438 233.292969 260.125 219.625 261.390625 C 205.949219 262.65625 187.472656 263.417969 176.332031 253.289062 C 174.5625 251.515625 175.070312 248.984375 176.332031 247.972656 C 177.601562 246.960938 178.613281 246.203125 180.128906 246.203125 C 181.644531 246.199219 181.398438 246.199219 182.15625 246.707031 Z M 182.15625 246.707031 " fill-opacity="1" fill-rule="nonzero"/><path fill="#0073ba" d="M 120.132812 227.464844 C 139.371094 227.214844 142.914062 223.921875 159.875 216.332031 C 251.523438 175.316406 268.480469 137.847656 271.773438 129.238281 C 275.0625 120.632812 279.871094 106.707031 274.808594 91.265625 C 273.835938 88.28125 273.117188 85.890625 272.605469 83.960938 C 260.425781 70.347656 248.335938 62.914062 244.683594 60.636719 C 231.519531 52.277344 218.609375 48.984375 205.949219 40.632812 C 198.101562 35.570312 187.214844 22.65625 178.105469 11.773438 C 176.328125 29.234375 171.269531 36.582031 164.9375 41.386719 C 152.027344 51.519531 143.925781 54.554688 132.785156 60.632812 C 123.417969 65.691406 72.535156 95.816406 72.535156 161.136719 C 72.535156 181.984375 78.136719 201.085938 87.746094 217.429688 L 90.253906 217.335938 C 95.574219 222.148438 103.929688 227.71875 120.132812 227.46875 Z M 120.132812 227.464844 " fill-opacity="1" fill-rule="nonzero"/><path fill="#004975" d="M 244.6875 60.636719 C 231.519531 52.277344 218.613281 48.984375 205.949219 40.632812 C 198.105469 35.570312 187.21875 22.65625 178.105469 11.773438 C 176.332031 29.234375 171.273438 36.582031 164.9375 41.386719 C 152.03125 51.519531 143.929688 54.554688 132.789062 60.632812 C 123.421875 65.691406 72.535156 95.816406 72.535156 161.136719 C 72.535156 181.984375 78.136719 201.085938 87.746094 217.429688 C 108.238281 252.265625 146.949219 274.550781 188.480469 274.550781 C 249.496094 274.550781 302.40625 230.25 302.40625 163.164062 C 302.40625 126.320312 287.441406 100.554688 272.605469 83.960938 C 260.429688 70.347656 248.339844 62.917969 244.6875 60.636719 Z M 275.457031 90.269531 C 292.078125 111.050781 300.507812 135.578125 300.507812 163.164062 C 300.507812 179.175781 297.457031 194.296875 291.445312 208.117188 C 285.742188 221.226562 277.527344 232.835938 267.03125 242.628906 C 246.28125 261.996094 218.386719 272.65625 188.484375 272.65625 C 173.691406 272.65625 159.179688 269.828125 145.339844 264.257812 C 131.746094 258.785156 119.5 250.945312 108.9375 240.960938 C 86.6875 219.929688 74.4375 191.582031 74.4375 161.140625 C 74.4375 134.023438 83.238281 109.929688 100.597656 89.523438 C 113.859375 73.9375 128.160156 65.300781 133.691406 62.308594 C 136.378906 60.84375 138.898438 59.546875 141.335938 58.300781 C 148.972656 54.378906 156.191406 50.675781 166.117188 42.890625 C 171.40625 38.871094 177.042969 32.5 179.441406 16.324219 C 187.808594 26.273438 197.511719 37.445312 204.925781 42.234375 C 211.507812 46.578125 218.257812 49.621094 224.789062 52.566406 C 230.960938 55.351562 237.351562 58.230469 243.671875 62.242188 L 243.910156 62.386719 C 262.378906 73.914062 272.21875 86.226562 275.457031 90.269531 Z M 275.457031 90.269531 " fill-opacity="1" fill-rule="nonzero"/><path fill="#93c5e4" d="M 179.371094 16.835938 C 182.910156 27.214844 182.40625 32.53125 182.40625 34.8125 C 182.40625 37.089844 181.140625 43.167969 177.089844 46.203125 C 175.316406 47.472656 174.8125 48.480469 174.8125 48.738281 C 174.8125 49.746094 177.089844 50.507812 177.089844 52.785156 C 177.089844 55.570312 175.828125 61.140625 162.410156 74.558594 C 148.992188 87.976562 129.753906 99.875 114.8125 107.210938 C 99.878906 114.554688 92.792969 114.050781 90.765625 110.507812 C 88.738281 106.960938 91.527344 99.113281 100.890625 88.734375 C 110.257812 78.351562 139.878906 63.417969 139.878906 63.417969 L 176.84375 37.597656 L 178.867188 27.722656 " fill-opacity="1" fill-rule="nonzero"/><path fill="#ffffff" d="M 179.371094 16.578125 C 177.089844 33.289062 172.027344 38.359375 165.191406 43.667969 C 153.800781 52.277344 142.664062 57.589844 140.128906 58.859375 C 133.546875 62.148438 109.75 75.316406 97.34375 94.304688 C 93.546875 100.128906 97.34375 102.40625 98.101562 102.914062 C 98.863281 103.421875 107.46875 104.433594 125.949219 93.296875 C 144.433594 82.152344 152.535156 75.574219 162.914062 64.6875 C 168.484375 58.863281 169.242188 55.574219 169.242188 54.050781 C 169.242188 52.28125 167.976562 51.523438 165.953125 51.015625 C 164.933594 50.761719 164.6875 50.253906 165.953125 49.496094 C 167.21875 48.738281 172.53125 46.203125 173.800781 45.191406 C 175.066406 44.175781 181.140625 40.128906 181.394531 33.542969 C 181.644531 26.960938 181.140625 22.402344 179.371094 16.578125 Z M 122.40625 200.628906 C 122.660156 180.882812 141.144531 162.402344 164.433594 162.144531 C 194.054688 161.898438 214.558594 191.511719 229.496094 191.261719 C 242.152344 191.007812 266.457031 166.199219 278.359375 166.199219 C 291.015625 166.199219 294.5625 179.367188 294.5625 187.210938 C 294.5625 195.0625 292.027344 209.238281 285.953125 218.097656 C 279.875 226.957031 276.078125 230.25 268.992188 229.742188 C 259.878906 228.984375 241.648438 200.628906 230.003906 200.125 C 215.324219 199.621094 183.421875 230.757812 158.359375 230.757812 C 143.171875 230.757812 138.613281 228.484375 133.550781 225.1875 C 125.953125 219.871094 122.15625 211.765625 122.40625 200.628906 Z M 122.40625 200.628906 " fill-opacity="1" fill-rule="nonzero"/></svg>