<svg xmlns="http://www.w3.org/2000/svg" xmlns:xlink="http://www.w3.org/1999/xlink" width="500" zoomAndPan="magnify" viewBox="0 0 375 374.999991" height="500" preserveAspectRatio="xMidYMid meet" version="1.0"><defs><clipPath id="dea6eaae5a"><path d="M 112 2 L 372.953125 2 L 372.953125 183 L 112 183 Z M 112 2 " clip-rule="nonzero"/></clipPath><clipPath id="cad43f3537"><path d="M 193 113 L 372.953125 113 L 372.953125 375 L 193 375 Z M 193 113 " clip-rule="nonzero"/></clipPath></defs><g clip-path="url(#dea6eaae5a)"><path fill="#f9ae41" d="M 372.472656 51.871094 C 372.472656 24.863281 350.597656 2.96875 323.613281 2.96875 C 298.976562 2.96875 278.605469 21.222656 275.25 44.957031 C 274.9375 44.792969 274.753906 44.699219 274.753906 44.699219 C 234.800781 26.660156 201.140625 58.609375 201.140625 58.609375 L 112.113281 148.15625 L 147.289062 182.0625 L 218.949219 111.597656 C 252.410156 78.105469 270.628906 100.773438 270.628906 100.773438 C 295.820312 122.074219 271.496094 147.289062 271.496094 147.289062 L 307.546875 182.0625 C 336.980469 150.242188 338.6875 122.46875 329.742188 100.378906 C 353.832031 97.359375 372.472656 76.800781 372.472656 51.871094 " fill-opacity="1" fill-rule="nonzero"/></g><g clip-path="url(#cad43f3537)"><path fill="#ee4035" d="M 330.195312 276.777344 C 330.359375 276.464844 330.453125 276.285156 330.453125 276.285156 C 348.476562 236.289062 316.554688 202.601562 316.554688 202.601562 L 227.089844 113.488281 L 193.214844 148.699219 L 263.613281 220.425781 C 297.078125 253.917969 274.429688 272.15625 274.429688 272.15625 C 253.148438 297.367188 227.960938 273.023438 227.960938 273.023438 L 193.214844 309.101562 C 225.003906 338.566406 252.753906 340.273438 274.824219 331.320312 C 277.839844 355.429688 298.382812 374.089844 323.289062 374.089844 C 350.273438 374.089844 372.144531 352.195312 372.144531 325.1875 C 372.144531 300.527344 353.90625 280.140625 330.195312 276.777344 " fill-opacity="1" fill-rule="nonzero"/></g><path fill="#4f91cd" d="M 227.851562 193.363281 L 156.191406 263.828125 C 122.730469 297.324219 104.507812 274.65625 104.507812 274.65625 C 79.320312 253.355469 103.640625 228.140625 103.640625 228.140625 L 67.59375 193.367188 C 38.160156 225.183594 36.453125 252.957031 45.398438 275.050781 C 21.308594 278.070312 2.667969 298.625 2.667969 323.558594 C 2.667969 350.566406 24.542969 372.460938 51.527344 372.460938 C 76.164062 372.460938 96.53125 354.207031 99.886719 330.472656 C 100.203125 330.636719 100.382812 330.730469 100.382812 330.730469 C 140.339844 348.773438 173.996094 316.820312 173.996094 316.820312 L 263.027344 227.269531 Z M 227.851562 193.363281 " fill-opacity="1" fill-rule="nonzero"/><path fill="#7ac043" d="M 111.523438 155.003906 C 78.0625 121.511719 100.707031 103.273438 100.707031 103.273438 C 121.988281 78.058594 147.179688 102.40625 147.179688 102.40625 L 181.921875 66.328125 C 150.132812 36.863281 122.386719 35.15625 100.3125 44.109375 C 97.296875 19.996094 76.757812 1.339844 51.847656 1.339844 C 24.867188 1.339844 2.992188 23.234375 2.992188 50.242188 C 2.992188 74.902344 21.230469 95.289062 44.941406 98.648438 C 44.777344 98.964844 44.683594 99.144531 44.683594 99.144531 C 26.65625 139.136719 58.582031 172.824219 58.582031 172.824219 L 148.050781 261.9375 L 181.925781 226.726562 Z M 111.523438 155.003906 " fill-opacity="1" fill-rule="nonzero"/></svg>