<svg xmlns="http://www.w3.org/2000/svg" xmlns:xlink="http://www.w3.org/1999/xlink" width="500" zoomAndPan="magnify" viewBox="0 0 375 374.999991" height="500" preserveAspectRatio="xMidYMid meet" version="1.0"><path fill="#ffffff" d="M 56.25 0 L 318.75 0 C 320.59375 0 322.429688 0.0898438 324.261719 0.269531 C 326.097656 0.453125 327.917969 0.722656 329.722656 1.082031 C 331.53125 1.441406 333.316406 1.886719 335.078125 2.421875 C 336.839844 2.957031 338.574219 3.578125 340.277344 4.28125 C 341.976562 4.988281 343.640625 5.773438 345.265625 6.640625 C 346.890625 7.511719 348.46875 8.457031 350 9.480469 C 351.53125 10.503906 353.011719 11.597656 354.433594 12.769531 C 355.859375 13.9375 357.222656 15.171875 358.523438 16.476562 C 359.828125 17.777344 361.0625 19.140625 362.230469 20.566406 C 363.402344 21.988281 364.496094 23.46875 365.519531 25 C 366.542969 26.53125 367.488281 28.109375 368.359375 29.734375 C 369.226562 31.359375 370.011719 33.023438 370.71875 34.722656 C 371.421875 36.425781 372.042969 38.160156 372.578125 39.921875 C 373.113281 41.683594 373.558594 43.46875 373.917969 45.277344 C 374.277344 47.082031 374.546875 48.902344 374.730469 50.738281 C 374.910156 52.570312 375 54.40625 375 56.25 L 375 318.75 C 375 320.59375 374.910156 322.429688 374.730469 324.261719 C 374.546875 326.097656 374.277344 327.917969 373.917969 329.722656 C 373.558594 331.53125 373.113281 333.316406 372.578125 335.078125 C 372.042969 336.839844 371.421875 338.574219 370.71875 340.277344 C 370.011719 341.976562 369.226562 343.640625 368.359375 345.265625 C 367.488281 346.890625 366.542969 348.46875 365.519531 350 C 364.496094 351.53125 363.402344 353.011719 362.230469 354.433594 C 361.0625 355.859375 359.828125 357.222656 358.523438 358.523438 C 357.222656 359.828125 355.859375 361.0625 354.433594 362.230469 C 353.011719 363.402344 351.53125 364.496094 350 365.519531 C 348.46875 366.542969 346.890625 367.488281 345.265625 368.359375 C 343.640625 369.226562 341.976562 370.011719 340.277344 370.71875 C 338.574219 371.421875 336.839844 372.042969 335.078125 372.578125 C 333.316406 373.113281 331.53125 373.558594 329.722656 373.917969 C 327.917969 374.277344 326.097656 374.546875 324.261719 374.730469 C 322.429688 374.910156 320.59375 375 318.75 375 L 56.25 375 C 54.40625 375 52.570312 374.910156 50.738281 374.730469 C 48.902344 374.546875 47.082031 374.277344 45.277344 373.917969 C 43.46875 373.558594 41.683594 373.113281 39.921875 372.578125 C 38.160156 372.042969 36.425781 371.421875 34.722656 370.71875 C 33.023438 370.011719 31.359375 369.226562 29.734375 368.359375 C 28.109375 367.488281 26.53125 366.542969 25 365.519531 C 23.46875 364.496094 21.988281 363.402344 20.566406 362.230469 C 19.140625 361.0625 17.777344 359.828125 16.476562 358.523438 C 15.171875 357.222656 13.9375 355.859375 12.769531 354.433594 C 11.597656 353.011719 10.503906 351.53125 9.480469 350 C 8.457031 348.46875 7.511719 346.890625 6.640625 345.265625 C 5.773438 343.640625 4.988281 341.976562 4.28125 340.277344 C 3.578125 338.574219 2.957031 336.839844 2.421875 335.078125 C 1.886719 333.316406 1.441406 331.53125 1.082031 329.722656 C 0.722656 327.917969 0.453125 326.097656 0.269531 324.261719 C 0.0898438 322.429688 0 320.59375 0 318.75 L 0 56.25 C 0 54.40625 0.0898438 52.570312 0.269531 50.738281 C 0.453125 48.902344 0.722656 47.082031 1.082031 45.277344 C 1.441406 43.46875 1.886719 41.683594 2.421875 39.921875 C 2.957031 38.160156 3.578125 36.425781 4.28125 34.722656 C 4.988281 33.023438 5.773438 31.359375 6.640625 29.734375 C 7.511719 28.109375 8.457031 26.53125 9.480469 25 C 10.503906 23.46875 11.597656 21.988281 12.769531 20.566406 C 13.9375 19.140625 15.171875 17.777344 16.476562 16.476562 C 17.777344 15.171875 19.140625 13.9375 20.566406 12.769531 C 21.988281 11.597656 23.46875 10.503906 25 9.480469 C 26.53125 8.457031 28.109375 7.511719 29.734375 6.640625 C 31.359375 5.773438 33.023438 4.988281 34.722656 4.28125 C 36.425781 3.578125 38.160156 2.957031 39.921875 2.421875 C 41.683594 1.886719 43.46875 1.441406 45.277344 1.082031 C 47.082031 0.722656 48.902344 0.453125 50.738281 0.269531 C 52.570312 0.0898438 54.40625 0 56.25 0 Z M 56.25 0 " fill-opacity="1" fill-rule="nonzero"/><path fill="#333333" d="M 140.625 150.878906 C 136.230469 161.132812 105.46875 193.359375 108.398438 225.585938 C 120.117188 360.351562 161.132812 269.53125 222.65625 303.222656 C 222.65625 303.222656 332.519531 241.699219 244.628906 142.089844 C 219.726562 106.933594 241.699219 79.101562 225.585938 55.664062 C 209.472656 32.226562 181.640625 30.761719 161.132812 52.734375 C 140.625 74.707031 169.921875 106.933594 140.625 150.878906 " fill-opacity="1" fill-rule="nonzero"/><path fill="#eeeeee" d="M 249.023438 218.261719 C 249.023438 218.261719 262.207031 191.894531 237.304688 172.851562 C 260.742188 197.753906 246.09375 219.726562 246.09375 219.726562 L 241.699219 219.726562 C 240.234375 168.457031 227.050781 196.289062 208.007812 105.46875 C 229.980469 80.566406 187.5 58.59375 187.5 99.609375 L 174.316406 99.609375 C 175.78125 64.453125 145.019531 82.03125 162.597656 106.933594 C 161.132812 161.132812 128.90625 183.105469 128.90625 221.191406 C 118.652344 194.824219 137.695312 174.316406 137.695312 174.316406 C 137.695312 174.316406 111.328125 196.289062 127.441406 228.515625 C 143.554688 260.742188 172.851562 253.417969 152.34375 268.066406 C 184.570312 290.039062 234.375 275.390625 232.910156 228.515625 C 234.375 216.796875 265.136719 221.191406 268.066406 224.121094 C 270.996094 227.050781 263.671875 218.261719 249.023438 218.261719 M 166.992188 104.003906 C 156.738281 101.074219 159.667969 87.890625 164.0625 87.890625 C 168.457031 87.890625 175.78125 98.144531 166.992188 104.003906 M 194.824219 105.46875 C 187.5 95.214844 193.359375 84.960938 200.683594 86.425781 C 208.007812 87.890625 208.007812 105.46875 194.824219 105.46875 " fill-opacity="1" fill-rule="nonzero"/><path stroke-linecap="butt" transform="matrix(1.464844, 0, 0, 1.464844, 187.499992, 187.499988)" fill-opacity="1" fill="#ffcc22" fill-rule="nonzero" stroke-linejoin="miter" d="M -40.999998 31.000011 L -19.999996 61.000013 C -8.999995 68.000013 -14.999996 96.000015 -44.999998 82.000014 C -61.999999 77.000014 -76 78.000014 -78 69.000013 C -80 60.000013 -74 59.000013 -75 55.000012 C -79 33.000011 -60.999999 44.000011 -55.999999 33.000011 C -50.999998 22.00001 -50.999998 17.00001 -40.999998 31.000011 M 71.00001 45.000012 C 67.00001 39.000011 71.00001 28.00001 57.000009 29.00001 C 51.000009 41.000011 34.000008 53.000012 33.000008 29.00001 C 23.000007 29.00001 30.000007 53.000012 26.000007 64.000013 C 17.000007 91.000015 43.000008 93.000015 54.000009 80.000014 L 80.000011 62.000013 C 82.000011 59.000013 85.000011 56.000012 71.00001 45.000012 M -20.999996 -46.999995 C -23.999996 -52.999995 -9.999995 -60.999996 -4.999995 -60.999996 C 0.00000533333 -60.999996 7.000006 -56.999996 14.000006 -54.999995 C 21.000007 -52.999995 18.000007 -45.999995 16.000006 -44.999995 C 14.000006 -43.999995 3.000006 -34.999994 -4.999995 -34.999994 C -12.999996 -34.999994 -14.999996 -42.999995 -20.999996 -46.999995 " stroke="#333333" stroke-width="1" stroke-opacity="1" stroke-miterlimit="4"/><path stroke-linecap="butt" transform="matrix(1.464844, 0, 0, 1.464844, 187.499992, 187.499988)" fill-opacity="1" fill="#ffcc22" fill-rule="nonzero" stroke-linejoin="miter" d="M -20.999996 -47.999995 C -12.999996 -41.999995 -3.999995 -36.999994 14.000006 -50.999995 " stroke="#333333" stroke-width="1" stroke-opacity="1" stroke-miterlimit="4"/><path fill="#333333" d="M 172.851562 108.398438 C 169.921875 108.398438 174.316406 105.46875 175.78125 106.933594 M 186.035156 108.398438 C 187.5 106.933594 184.570312 105.46875 181.640625 106.933594 " fill-opacity="1" fill-rule="nonzero"/></svg>