<svg xmlns="http://www.w3.org/2000/svg" xmlns:xlink="http://www.w3.org/1999/xlink" width="500" zoomAndPan="magnify" viewBox="0 0 375 374.999991" height="500" preserveAspectRatio="xMidYMid meet" version="1.0"><path fill="#ffffff" d="M 56.25 0 L 318.75 0 C 320.59375 0 322.429688 0.0898438 324.261719 0.269531 C 326.097656 0.453125 327.917969 0.722656 329.722656 1.082031 C 331.53125 1.441406 333.316406 1.886719 335.078125 2.421875 C 336.839844 2.957031 338.574219 3.578125 340.277344 4.28125 C 341.976562 4.988281 343.640625 5.773438 345.265625 6.640625 C 346.890625 7.511719 348.46875 8.457031 350 9.480469 C 351.53125 10.503906 353.011719 11.597656 354.433594 12.769531 C 355.859375 13.9375 357.222656 15.171875 358.523438 16.476562 C 359.828125 17.777344 361.0625 19.140625 362.230469 20.566406 C 363.402344 21.988281 364.496094 23.46875 365.519531 25 C 366.542969 26.53125 367.488281 28.109375 368.359375 29.734375 C 369.226562 31.359375 370.011719 33.023438 370.71875 34.722656 C 371.421875 36.425781 372.042969 38.160156 372.578125 39.921875 C 373.113281 41.683594 373.558594 43.46875 373.917969 45.277344 C 374.277344 47.082031 374.546875 48.902344 374.730469 50.738281 C 374.910156 52.570312 375 54.40625 375 56.25 L 375 318.75 C 375 320.59375 374.910156 322.429688 374.730469 324.261719 C 374.546875 326.097656 374.277344 327.917969 373.917969 329.722656 C 373.558594 331.53125 373.113281 333.316406 372.578125 335.078125 C 372.042969 336.839844 371.421875 338.574219 370.71875 340.277344 C 370.011719 341.976562 369.226562 343.640625 368.359375 345.265625 C 367.488281 346.890625 366.542969 348.46875 365.519531 350 C 364.496094 351.53125 363.402344 353.011719 362.230469 354.433594 C 361.0625 355.859375 359.828125 357.222656 358.523438 358.523438 C 357.222656 359.828125 355.859375 361.0625 354.433594 362.230469 C 353.011719 363.402344 351.53125 364.496094 350 365.519531 C 348.46875 366.542969 346.890625 367.488281 345.265625 368.359375 C 343.640625 369.226562 341.976562 370.011719 340.277344 370.71875 C 338.574219 371.421875 336.839844 372.042969 335.078125 372.578125 C 333.316406 373.113281 331.53125 373.558594 329.722656 373.917969 C 327.917969 374.277344 326.097656 374.546875 324.261719 374.730469 C 322.429688 374.910156 320.59375 375 318.75 375 L 56.25 375 C 54.40625 375 52.570312 374.910156 50.738281 374.730469 C 48.902344 374.546875 47.082031 374.277344 45.277344 373.917969 C 43.46875 373.558594 41.683594 373.113281 39.921875 372.578125 C 38.160156 372.042969 36.425781 371.421875 34.722656 370.71875 C 33.023438 370.011719 31.359375 369.226562 29.734375 368.359375 C 28.109375 367.488281 26.53125 366.542969 25 365.519531 C 23.46875 364.496094 21.988281 363.402344 20.566406 362.230469 C 19.140625 361.0625 17.777344 359.828125 16.476562 358.523438 C 15.171875 357.222656 13.9375 355.859375 12.769531 354.433594 C 11.597656 353.011719 10.503906 351.53125 9.480469 350 C 8.457031 348.46875 7.511719 346.890625 6.640625 345.265625 C 5.773438 343.640625 4.988281 341.976562 4.28125 340.277344 C 3.578125 338.574219 2.957031 336.839844 2.421875 335.078125 C 1.886719 333.316406 1.441406 331.53125 1.082031 329.722656 C 0.722656 327.917969 0.453125 326.097656 0.269531 324.261719 C 0.0898438 322.429688 0 320.59375 0 318.75 L 0 56.25 C 0 54.40625 0.0898438 52.570312 0.269531 50.738281 C 0.453125 48.902344 0.722656 47.082031 1.082031 45.277344 C 1.441406 43.46875 1.886719 41.683594 2.421875 39.921875 C 2.957031 38.160156 3.578125 36.425781 4.28125 34.722656 C 4.988281 33.023438 5.773438 31.359375 6.640625 29.734375 C 7.511719 28.109375 8.457031 26.53125 9.480469 25 C 10.503906 23.46875 11.597656 21.988281 12.769531 20.566406 C 13.9375 19.140625 15.171875 17.777344 16.476562 16.476562 C 17.777344 15.171875 19.140625 13.9375 20.566406 12.769531 C 21.988281 11.597656 23.46875 10.503906 25 9.480469 C 26.53125 8.457031 28.109375 7.511719 29.734375 6.640625 C 31.359375 5.773438 33.023438 4.988281 34.722656 4.28125 C 36.425781 3.578125 38.160156 2.957031 39.921875 2.421875 C 41.683594 1.886719 43.46875 1.441406 45.277344 1.082031 C 47.082031 0.722656 48.902344 0.453125 50.738281 0.269531 C 52.570312 0.0898438 54.40625 0 56.25 0 Z M 56.25 0 " fill-opacity="1" fill-rule="nonzero"/><path fill="#000000" d="M 206.542969 124.511719 L 206.542969 121.582031 C 168.457031 121.582031 202.878906 146.484375 206.542969 124.511719 Z M 224.121094 111.328125 C 229.246094 95.945312 255.613281 94.480469 258.542969 113.523438 L 251.21875 113.523438 C 249.023438 102.539062 230.710938 101.804688 230.710938 121.582031 C 230.710938 132.566406 247.558594 139.160156 251.21875 125.976562 L 258.542969 125.976562 C 254.148438 150.144531 215.332031 141.355469 224.121094 111.328125 Z M 117.1875 99.609375 L 124.511719 99.609375 L 124.511719 106.199219 C 128.171875 97.410156 144.285156 96.679688 147.214844 106.933594 C 152.34375 95.945312 172.851562 96.679688 172.851562 112.058594 L 172.851562 139.160156 L 164.792969 139.160156 L 164.792969 114.257812 C 164.792969 103.269531 148.679688 103.269531 148.679688 114.988281 L 148.679688 139.160156 L 140.625 139.160156 L 140.625 113.523438 C 138.832031 106.667969 129.699219 105.300781 125.976562 111.328125 L 124.511719 114.988281 L 124.511719 139.160156 L 117.1875 139.160156 Z M 134.03125 289.304688 C 99.609375 289.304688 78.367188 265.136719 78.367188 226.316406 C 78.367188 187.5 99.609375 164.0625 134.03125 164.0625 C 168.457031 164.0625 190.429688 188.230469 190.429688 226.316406 C 190.429688 264.402344 169.1875 289.304688 134.03125 289.304688 Z M 198.484375 139.160156 C 177.246094 144.285156 174.316406 117.1875 196.289062 116.453125 L 206.542969 115.722656 L 206.542969 112.792969 C 207.273438 104.003906 192.625 103.269531 190.429688 111.328125 L 183.105469 111.328125 C 183.132812 109.488281 183.621094 107.777344 184.570312 106.199219 C 190.429688 95.945312 214.597656 95.945312 214.597656 112.058594 L 214.597656 139.160156 L 207.273438 139.160156 L 207.273438 132.566406 C 206.359375 134.253906 205.136719 135.671875 203.601562 136.824219 C 202.066406 137.972656 200.359375 138.753906 198.484375 139.160156 Z M 248.289062 289.304688 C 221.921875 287.839844 203.613281 275.390625 202.148438 253.417969 L 219.726562 253.417969 C 236.570312 306.152344 326.660156 249.753906 238.035156 231.445312 C 224.121094 228.515625 213.867188 221.921875 209.472656 213.867188 C 181.640625 159.667969 289.304688 143.554688 292.234375 199.21875 L 275.390625 199.21875 C 270.261719 163.328125 203.613281 183.105469 227.78125 208.007812 C 238.035156 218.261719 259.277344 217.527344 274.65625 224.121094 C 311.277344 240.964844 293.699219 290.769531 248.289062 289.304688 Z M 134.03125 179.441406 C 110.59375 179.441406 95.945312 197.753906 95.945312 226.316406 C 95.945312 254.882812 110.59375 273.191406 134.03125 273.191406 C 157.46875 273.191406 172.851562 255.613281 172.851562 226.316406 C 172.851562 197.019531 158.203125 179.441406 134.03125 179.441406 Z M 134.03125 179.441406 " fill-opacity="1" fill-rule="nonzero"/></svg>