<svg xmlns="http://www.w3.org/2000/svg" xmlns:xlink="http://www.w3.org/1999/xlink" width="500" zoomAndPan="magnify" viewBox="0 0 375 374.999991" height="500" preserveAspectRatio="xMidYMid meet" version="1.0"><defs><clipPath id="683742de2b"><path d="M 0 37.5 L 375 37.5 L 375 360.75 L 0 360.75 Z M 0 37.5 " clip-rule="nonzero"/></clipPath><clipPath id="4c760922a9"><path d="M 74 37.5 L 300 37.5 L 300 233 L 74 233 Z M 74 37.5 " clip-rule="nonzero"/></clipPath></defs><g clip-path="url(#683742de2b)"><path fill="#41b883" d="M 299.808594 37.5 L 374.679688 37.5 L 187.5 360.457031 L 0.320312 37.5 L 143.511719 37.5 L 187.5 112.390625 L 230.550781 37.5 Z M 299.808594 37.5 " fill-opacity="1" fill-rule="nonzero"/><path fill="#41b883" d="M 0.320312 37.5 L 187.5 360.457031 L 374.679688 37.5 L 299.808594 37.5 L 187.5 231.273438 L 74.253906 37.5 Z M 0.320312 37.5 " fill-opacity="1" fill-rule="nonzero"/></g><g clip-path="url(#4c760922a9)"><path fill="#35495e" d="M 74.253906 37.5 L 187.5 232.210938 L 299.808594 37.5 L 230.550781 37.5 L 187.5 112.390625 L 143.511719 37.5 Z M 74.253906 37.5 " fill-opacity="1" fill-rule="nonzero"/></g></svg>