<svg xmlns="http://www.w3.org/2000/svg" xmlns:xlink="http://www.w3.org/1999/xlink" width="500" zoomAndPan="magnify" viewBox="0 0 375 374.999991" height="500" preserveAspectRatio="xMidYMid meet" version="1.0"><path fill="#ffca28" d="M 23.4375 23.4375 L 351.5625 23.4375 L 351.5625 351.5625 L 23.4375 351.5625 Z M 23.4375 23.4375 " fill-opacity="1" fill-rule="nonzero"/><path fill="#3e3e3e" d="M 222.65625 296.34375 L 246.816406 280.355469 C 248.707031 286.304688 260.699219 300.429688 275.839844 300.429688 C 290.984375 300.429688 298.015625 292.160156 298.015625 286.675781 C 298.015625 271.730469 282.554688 266.464844 275.125 263.933594 C 273.914062 263.519531 272.917969 263.179688 272.234375 262.882812 C 271.886719 262.730469 271.355469 262.527344 270.679688 262.269531 C 262.417969 259.113281 231.941406 247.46875 231.941406 213.71875 C 231.941406 176.542969 267.816406 172.269531 275.933594 172.269531 C 281.238281 172.269531 306.761719 172.917969 319.46875 196.804688 L 296.03125 213.160156 C 290.894531 202.753906 282.359375 199.3125 277.105469 199.3125 C 264.125 199.3125 261.417969 208.828125 261.417969 213.160156 C 261.417969 225.316406 275.523438 230.765625 287.429688 235.363281 C 290.546875 236.566406 293.511719 237.710938 296.03125 238.90625 C 309.015625 245.039062 328.125 255.078125 328.125 286.675781 C 328.125 302.503906 314.851562 328.128906 281.429688 328.128906 C 236.539062 328.128906 224.640625 301.175781 222.65625 296.34375 Z M 222.65625 296.34375 " fill-opacity="1" fill-rule="nonzero"/><path fill="#3e3e3e" d="M 105.46875 299.515625 L 130.648438 283.539062 C 132.621094 289.484375 140.289062 300.445312 151.410156 300.445312 C 162.535156 300.445312 168.230469 289.019531 168.230469 283.539062 L 168.230469 175.785156 L 199.199219 175.785156 L 199.199219 283.539062 C 199.699219 298.402344 191.457031 328.128906 155.078125 328.128906 C 121.628906 328.128906 107.722656 308.25 105.46875 299.515625 Z M 105.46875 299.515625 " fill-opacity="1" fill-rule="nonzero"/></svg>