<svg xmlns="http://www.w3.org/2000/svg" xmlns:xlink="http://www.w3.org/1999/xlink" width="500" zoomAndPan="magnify" viewBox="0 0 375 374.999991" height="500" preserveAspectRatio="xMidYMid meet" version="1.0"><path fill="#1572b6" d="M 69.164062 318.761719 L 42.84375 23.4375 L 332.15625 23.4375 L 305.800781 318.714844 L 187.324219 351.5625 Z M 69.164062 318.761719 " fill-opacity="1" fill-rule="nonzero"/><path fill="#33a9dc" d="M 187.5 326.460938 L 283.242188 299.917969 L 305.765625 47.589844 L 187.5 47.589844 Z M 187.5 326.460938 " fill-opacity="1" fill-rule="nonzero"/><path fill="#ffffff" d="M 187.5 154.582031 L 235.429688 154.582031 L 238.734375 117.492188 L 187.5 117.492188 L 187.5 81.269531 L 278.320312 81.269531 L 277.453125 90.984375 L 268.558594 190.804688 L 187.5 190.804688 Z M 187.5 154.582031 " fill-opacity="1" fill-rule="nonzero"/><path fill="#ebebeb" d="M 187.722656 248.648438 L 187.558594 248.695312 L 147.222656 237.796875 L 144.644531 208.910156 L 108.28125 208.910156 L 113.355469 265.78125 L 187.546875 286.382812 L 187.722656 286.335938 Z M 187.722656 248.648438 " fill-opacity="1" fill-rule="nonzero"/><path fill="#ffffff" d="M 232.347656 189.269531 L 227.988281 237.773438 L 187.59375 248.671875 L 187.59375 286.359375 L 261.84375 265.78125 L 262.394531 259.664062 L 268.6875 189.269531 Z M 232.347656 189.269531 " fill-opacity="1" fill-rule="nonzero"/><path fill="#ebebeb" d="M 187.628906 81.269531 L 187.628906 117.492188 L 100.136719 117.492188 L 99.410156 109.347656 L 97.757812 90.984375 L 96.890625 81.269531 Z M 187.628906 81.269531 " fill-opacity="1" fill-rule="nonzero"/><path fill="#ebebeb" d="M 187.5 154.582031 L 187.5 190.804688 L 147.667969 190.804688 L 146.941406 182.660156 L 145.300781 164.296875 L 144.433594 154.582031 Z M 187.5 154.582031 " fill-opacity="1" fill-rule="nonzero"/></svg>