<svg xmlns="http://www.w3.org/2000/svg" xmlns:xlink="http://www.w3.org/1999/xlink" width="500" zoomAndPan="magnify" viewBox="0 0 375 374.999991" height="500" preserveAspectRatio="xMidYMid meet" version="1.0"><path fill="#e44f26" d="M 69.164062 318.761719 L 42.832031 23.4375 L 332.167969 23.4375 L 305.800781 318.714844 L 187.324219 351.5625 Z M 69.164062 318.761719 " fill-opacity="1" fill-rule="nonzero"/><path fill="#f1662a" d="M 187.5 326.460938 L 283.242188 299.917969 L 305.765625 47.589844 L 187.5 47.589844 Z M 187.5 326.460938 " fill-opacity="1" fill-rule="nonzero"/><path fill="#ebebeb" d="M 187.5 157.113281 L 139.570312 157.113281 L 136.265625 120.023438 L 187.5 120.023438 L 187.5 83.800781 L 96.679688 83.800781 L 97.546875 93.527344 L 106.441406 193.335938 L 187.5 193.335938 Z M 187.5 157.113281 " fill-opacity="1" fill-rule="nonzero"/><path fill="#ebebeb" d="M 187.5 251.179688 L 187.335938 251.226562 L 147 240.339844 L 144.421875 211.453125 L 108.058594 211.453125 L 113.132812 268.3125 L 187.335938 288.914062 L 187.5 288.867188 Z M 187.5 251.179688 " fill-opacity="1" fill-rule="nonzero"/><path fill="#ffffff" d="M 187.371094 157.113281 L 187.371094 193.335938 L 231.972656 193.335938 L 227.777344 240.316406 L 187.371094 251.214844 L 187.371094 288.902344 L 261.632812 268.3125 L 262.171875 262.195312 L 270.679688 166.839844 L 271.570312 157.113281 Z M 187.371094 157.113281 " fill-opacity="1" fill-rule="nonzero"/><path fill="#ffffff" d="M 187.371094 83.800781 L 187.371094 120.023438 L 274.863281 120.023438 L 275.589844 111.890625 L 277.242188 93.527344 L 278.109375 83.800781 Z M 187.371094 83.800781 " fill-opacity="1" fill-rule="nonzero"/></svg>