<svg xmlns="http://www.w3.org/2000/svg" xmlns:xlink="http://www.w3.org/1999/xlink" width="500" zoomAndPan="magnify" viewBox="0 0 375 374.999991" height="500" preserveAspectRatio="xMidYMid meet" version="1.0"><path fill="#000000" d="M 371.101562 288.398438 C 357.742188 291.796875 349.480469 288.542969 342.070312 277.410156 C 325.429688 252.480469 307.058594 228.691406 289.335938 204.460938 C 287.050781 201.328125 284.675781 198.25 281.71875 194.355469 C 260.742188 222.65625 239.792969 249.609375 220.136719 277.644531 C 213.105469 287.664062 205.722656 292.03125 192.597656 288.484375 L 271.464844 182.636719 L 198.046875 87.039062 C 210.671875 84.578125 219.402344 85.839844 227.136719 97.148438 C 244.21875 122.109375 263.054688 145.867188 281.835938 171.003906 C 300.730469 145.957031 319.335938 122.167969 336.914062 97.441406 C 343.972656 87.421875 351.5625 83.613281 364.246094 87.304688 C 354.636719 100.046875 345.234375 112.585938 335.769531 125.039062 C 322.996094 141.824219 310.457031 158.816406 297.214844 175.253906 C 292.5 181.113281 293.261719 184.921875 297.480469 190.457031 C 321.972656 222.65625 346.171875 255.175781 371.101562 288.398438 Z M 371.101562 288.398438 " fill-opacity="1" fill-rule="nonzero"/><path fill="#000000" d="M 3.898438 180.878906 C 6.007812 170.300781 7.414062 159.519531 10.34375 149.152344 C 27.921875 86.367188 99.992188 60.265625 149.5 99.171875 C 178.503906 121.992188 185.710938 154.160156 184.277344 190.429688 L 20.800781 190.429688 C 18.339844 255.5 65.183594 294.785156 124.890625 274.746094 C 145.839844 267.714844 158.171875 251.308594 164.355469 230.800781 C 167.488281 220.515625 172.675781 218.90625 182.34375 221.835938 C 177.390625 247.5 166.171875 268.945312 142.734375 282.363281 C 107.578125 302.460938 57.390625 295.957031 30.996094 268.035156 C 15.410156 251.632812 8.789062 231.210938 5.859375 209.152344 C 5.417969 205.636719 4.511719 202.179688 3.808594 198.691406 C 3.867188 192.753906 3.894531 186.816406 3.894531 180.878906 Z M 21.09375 176.511719 L 168.835938 176.511719 C 167.871094 129.460938 138.574219 96.035156 98.527344 95.742188 C 54.582031 95.390625 23 128.027344 21.09375 176.511719 Z M 21.09375 176.511719 " fill-opacity="1" fill-rule="nonzero"/></svg>