<svg xmlns="http://www.w3.org/2000/svg" xmlns:xlink="http://www.w3.org/1999/xlink" width="1080" zoomAndPan="magnify" viewBox="0 0 810 809.999993" height="1080" preserveAspectRatio="xMidYMid meet" version="1.2"><g id="cd77b011e0"><path style=" stroke:none;fill-rule:nonzero;fill:#b04190;fill-opacity:1;" d="M 455.707031 377.710938 L 785.132812 377.710938 C 799.019531 377.710938 810 365.757812 808.546875 352.035156 C 789.332031 167.296875 642.703125 20.667969 457.964844 1.453125 C 444.242188 0 432.289062 10.980469 432.289062 24.867188 L 432.289062 354.292969 C 432.289062 367.214844 442.785156 377.710938 455.707031 377.710938 Z M 455.707031 377.710938 "/><path style=" stroke:none;fill-rule:nonzero;fill:#f59f00;fill-opacity:1;" d="M 377.710938 377.710938 L 377.710938 48.121094 C 377.710938 34.234375 365.757812 23.253906 352.035156 24.707031 C 167.296875 44.085938 20.667969 190.710938 1.453125 375.449219 C 0 389.175781 10.980469 401.125 24.867188 401.125 L 354.292969 401.125 C 367.214844 401.125 377.710938 390.628906 377.710938 377.710938 Z M 377.710938 377.710938 "/><path style=" stroke:none;fill-rule:nonzero;fill:#009ee2;fill-opacity:1;" d="M 408.875 455.707031 L 408.875 785.132812 C 408.875 799.019531 420.824219 810 434.550781 808.546875 C 619.289062 789.332031 765.914062 642.703125 785.132812 457.964844 C 786.585938 444.242188 775.605469 432.289062 761.714844 432.289062 L 432.289062 432.289062 C 419.371094 432.289062 408.875 442.785156 408.875 455.707031 Z M 408.875 455.707031 "/><path style=" stroke:none;fill-rule:nonzero;fill:#e5007e;fill-opacity:1;" d="M 354.292969 432.289062 L 24.867188 432.289062 C 10.980469 432.289062 0 444.242188 1.453125 457.964844 C 20.667969 642.703125 167.296875 789.332031 352.035156 808.546875 C 365.757812 810 377.710938 799.019531 377.710938 785.132812 L 377.710938 455.707031 C 377.710938 442.785156 367.214844 432.289062 354.292969 432.289062 Z M 354.292969 432.289062 "/><path style=" stroke:none;fill-rule:nonzero;fill:#ffffff;fill-opacity:1;" d="M 595.066406 189.742188 C 581.824219 189.742188 571.167969 200.238281 570.519531 213.320312 L 596.84375 206.214844 C 598.941406 205.730469 601.039062 206.214844 602.492188 207.667969 C 603.949219 209.121094 604.59375 211.21875 603.949219 213.320312 L 597.164062 238.832031 C 609.921875 237.863281 620.09375 227.367188 620.09375 214.449219 C 619.773438 200.886719 608.792969 189.742188 595.066406 189.742188 Z M 595.066406 189.742188 "/><path style=" stroke:none;fill-rule:nonzero;fill:#ffffff;fill-opacity:1;" d="M 587.960938 250.300781 L 598.296875 212.027344 L 559.863281 222.199219 L 567.773438 230.113281 L 524.011719 273.875 L 511.417969 270.324219 L 481.058594 301.003906 L 499.953125 306.496094 L 502.699219 309.242188 L 508.347656 328.132812 L 538.871094 297.453125 L 535.640625 286.792969 L 580.046875 242.386719 Z M 587.960938 250.300781 "/><path style=" stroke:none;fill-rule:nonzero;fill:#ffffff;fill-opacity:1;" d="M 595.066406 153.730469 C 561.476562 153.730469 534.347656 181.023438 534.347656 214.609375 C 534.347656 226.238281 537.738281 237.058594 543.550781 246.421875 L 556.308594 233.667969 C 553.402344 227.851562 551.789062 221.394531 551.789062 214.609375 C 551.789062 190.710938 571.328125 171.171875 595.226562 171.171875 C 619.125 171.171875 638.667969 190.710938 638.667969 214.609375 C 638.667969 238.511719 619.125 258.050781 595.226562 258.050781 C 588.605469 258.050781 582.46875 256.433594 576.980469 253.851562 L 564.222656 266.609375 C 573.265625 272.097656 583.921875 275.328125 595.226562 275.328125 C 628.816406 275.328125 655.945312 248.039062 655.945312 214.609375 C 655.785156 181.023438 628.492188 153.730469 595.066406 153.730469 Z M 595.066406 153.730469 "/><path style=" stroke:none;fill-rule:nonzero;fill:#ffffff;fill-opacity:1;" d="M 595.066406 120.949219 C 543.390625 120.949219 501.40625 162.9375 501.40625 214.609375 C 501.40625 235.441406 508.347656 254.335938 519.976562 270 L 532.25 257.726562 C 523.851562 245.453125 518.847656 230.597656 518.847656 214.609375 C 518.847656 172.464844 553.082031 138.230469 595.226562 138.230469 C 637.375 138.230469 671.609375 172.464844 671.609375 214.609375 C 671.609375 256.757812 637.375 290.992188 595.226562 290.992188 C 579.5625 290.992188 565.03125 286.148438 552.757812 278.074219 L 540.484375 290.347656 C 555.824219 301.488281 574.71875 308.273438 595.226562 308.273438 C 646.902344 308.273438 688.886719 266.285156 688.886719 214.609375 C 688.566406 162.9375 646.578125 120.949219 595.066406 120.949219 Z M 595.066406 120.949219 "/><path style=" stroke:none;fill-rule:nonzero;fill:#ffffff;fill-opacity:1;" d="M 537.738281 578.433594 L 481.382812 535.964844 L 482.351562 519.007812 L 534.832031 558.730469 L 581.5 495.914062 L 592.804688 504.3125 Z M 537.738281 578.433594 "/><path style=" stroke:none;fill-rule:nonzero;fill:#ffffff;fill-opacity:1;" d="M 554.371094 568.582031 C 554.371094 578.59375 546.296875 586.667969 536.285156 586.667969 C 526.273438 586.667969 518.199219 578.59375 518.199219 568.582031 C 518.199219 558.570312 526.273438 550.496094 536.285156 550.496094 C 546.296875 550.496094 554.371094 558.570312 554.371094 568.582031 Z M 554.371094 568.582031 "/><path style=" stroke:none;fill-rule:nonzero;fill:#ffffff;fill-opacity:1;" d="M 608.792969 500.113281 C 608.792969 510.125 600.71875 518.199219 590.707031 518.199219 C 580.695312 518.199219 572.621094 510.125 572.621094 500.113281 C 572.621094 490.101562 580.695312 482.027344 590.707031 482.027344 C 600.71875 481.867188 608.792969 490.101562 608.792969 500.113281 Z M 608.792969 500.113281 "/><path style=" stroke:none;fill-rule:nonzero;fill:#ffffff;fill-opacity:1;" d="M 500.113281 527.566406 C 500.113281 537.578125 492.039062 545.652344 482.027344 545.652344 C 472.015625 545.652344 463.941406 537.578125 463.941406 527.566406 C 463.941406 517.554688 472.015625 509.480469 482.027344 509.480469 C 491.878906 509.316406 500.113281 517.554688 500.113281 527.566406 Z M 500.113281 527.566406 "/><path style=" stroke:none;fill-rule:nonzero;fill:#ffffff;fill-opacity:1;" d="M 463.617188 565.835938 L 500.113281 565.835938 L 500.113281 670.316406 L 463.617188 670.316406 Z M 463.617188 565.835938 "/><path style=" stroke:none;fill-rule:nonzero;fill:#ffffff;fill-opacity:1;" d="M 517.390625 602.492188 L 553.886719 602.492188 L 553.886719 669.1875 L 517.390625 669.1875 Z M 517.390625 602.492188 "/><path style=" stroke:none;fill-rule:nonzero;fill:#ffffff;fill-opacity:1;" d="M 572.457031 539.355469 L 608.953125 539.355469 L 608.953125 670.15625 L 572.457031 670.15625 Z M 572.457031 539.355469 "/><path style=" stroke:none;fill-rule:nonzero;fill:#ffffff;fill-opacity:1;" d="M 290.023438 512.546875 L 290.023438 493.332031 C 290.023438 488.324219 285.824219 484.125 280.820312 484.125 L 201.855469 484.125 C 201.53125 484.125 201.371094 484.289062 201.207031 484.289062 C 200.402344 484.289062 199.59375 484.449219 198.785156 484.773438 C 198.464844 484.933594 198.140625 484.933594 197.816406 485.097656 C 197.007812 485.417969 196.363281 485.902344 195.71875 486.550781 C 195.554688 486.710938 195.394531 486.871094 195.234375 487.035156 C 195.234375 487.035156 195.070312 487.035156 195.070312 487.195312 L 152.925781 531.925781 C 152.601562 532.25 152.441406 532.734375 152.117188 533.054688 C 151.792969 533.539062 151.308594 534.1875 150.988281 534.832031 C 150.664062 535.476562 150.664062 536.285156 150.503906 536.933594 C 150.503906 537.253906 150.179688 537.738281 150.179688 538.222656 L 150.179688 656.105469 C 150.179688 661.273438 154.378906 665.3125 159.382812 665.3125 L 280.65625 665.3125 C 285.664062 665.3125 289.863281 661.273438 289.863281 656.105469 L 289.863281 635.597656 C 283.726562 636.40625 277.429688 636.082031 271.453125 634.953125 L 271.453125 646.902344 L 168.75 646.902344 L 168.75 547.429688 L 201.691406 547.429688 C 206.699219 547.429688 210.898438 543.230469 210.898438 538.222656 L 210.898438 502.699219 L 271.453125 502.699219 L 271.453125 513.515625 C 277.75 512.0625 283.886719 511.902344 290.023438 512.546875 Z M 290.023438 512.546875 "/><path style=" stroke:none;fill-rule:nonzero;fill:#ffffff;fill-opacity:1;" d="M 223.167969 559.863281 C 221.714844 565.835938 221.230469 572.136719 221.714844 578.273438 L 192.8125 578.273438 C 187.804688 578.273438 183.605469 574.074219 183.605469 569.066406 C 183.605469 564.0625 187.804688 559.863281 192.8125 559.863281 Z M 223.167969 559.863281 "/><path style=" stroke:none;fill-rule:nonzero;fill:#ffffff;fill-opacity:1;" d="M 230.273438 605.886719 L 192.8125 605.886719 C 187.804688 605.886719 183.605469 601.6875 183.605469 596.679688 C 183.605469 591.675781 187.804688 587.476562 192.8125 587.476562 L 223.007812 587.476562 C 224.460938 593.773438 226.882812 600.070312 230.273438 605.886719 Z M 230.273438 605.886719 "/><path style=" stroke:none;fill-rule:nonzero;fill:#ffffff;fill-opacity:1;" d="M 255.464844 629.300781 C 253.851562 631.722656 250.945312 633.5 247.714844 633.5 L 192.8125 633.5 C 187.804688 633.5 183.605469 629.300781 183.605469 624.292969 C 183.605469 619.289062 187.804688 615.089844 192.8125 615.089844 L 236.894531 615.089844 C 242.226562 621.066406 248.683594 625.910156 255.464844 629.300781 Z M 255.464844 629.300781 "/><path style=" stroke:none;fill-rule:nonzero;fill:#ffffff;fill-opacity:1;" d="M 339.113281 628.652344 L 315.859375 595.875 C 313.277344 599.75 310.046875 603.140625 306.011719 606.046875 C 301.972656 608.953125 297.613281 610.730469 293.253906 611.859375 L 316.507812 644.640625 C 319.253906 648.515625 323.449219 650.453125 327.8125 650.453125 C 330.554688 650.453125 333.300781 649.648438 335.722656 647.871094 C 342.023438 643.671875 343.476562 634.953125 339.113281 628.652344 Z M 339.113281 628.652344 "/><path style=" stroke:none;fill-rule:nonzero;fill:#ffffff;fill-opacity:1;" d="M 283.566406 622.679688 C 280.820312 622.679688 278.074219 622.519531 275.328125 622.035156 C 262.570312 619.773438 251.429688 612.828125 243.839844 602.171875 C 236.410156 591.511719 233.34375 578.757812 235.605469 566 C 237.863281 553.242188 244.808594 542.097656 255.464844 534.507812 C 277.265625 519.007812 307.625 524.175781 323.128906 546.136719 C 330.554688 556.792969 333.625 569.550781 331.363281 582.308594 C 329.101562 595.066406 322.160156 606.207031 311.5 613.796875 C 303.265625 619.609375 293.578125 622.679688 283.566406 622.679688 Z M 283.402344 544.035156 C 277.429688 544.035156 271.292969 545.8125 266.125 549.527344 C 259.503906 554.210938 255.144531 561.15625 253.851562 569.066406 C 252.558594 576.980469 254.335938 584.890625 259.019531 591.511719 C 263.703125 598.132812 270.644531 602.492188 278.558594 603.785156 C 286.472656 605.238281 294.382812 603.300781 301.003906 598.617188 C 307.625 593.933594 311.984375 586.992188 313.277344 579.078125 C 314.570312 571.167969 312.792969 563.253906 308.109375 556.632812 C 302.136719 548.398438 292.769531 544.035156 283.402344 544.035156 Z M 283.402344 544.035156 "/><path style=" stroke:none;fill-rule:nonzero;fill:#ffffff;fill-opacity:1;" d="M 160.351562 188.449219 C 158.578125 190.226562 155.507812 190.226562 153.730469 188.449219 L 139.359375 174.078125 C 137.582031 172.300781 137.582031 169.234375 139.359375 167.457031 C 141.136719 165.683594 144.203125 165.683594 145.980469 167.457031 L 160.351562 181.832031 C 162.289062 183.769531 162.289062 186.675781 160.351562 188.449219 Z M 160.351562 188.449219 "/><path style=" stroke:none;fill-rule:nonzero;fill:#ffffff;fill-opacity:1;" d="M 133.546875 240.125 C 132.578125 241.09375 131.125 241.742188 129.507812 241.417969 L 109.164062 238.511719 C 106.578125 238.1875 104.800781 235.765625 105.125 233.183594 C 105.449219 230.597656 107.871094 228.820312 110.453125 229.144531 L 130.800781 232.050781 C 133.386719 232.375 135.160156 234.796875 134.839844 237.378906 C 134.839844 238.511719 134.355469 239.480469 133.546875 240.125 Z M 133.546875 240.125 "/><path style=" stroke:none;fill-rule:nonzero;fill:#ffffff;fill-opacity:1;" d="M 141.945312 296.804688 C 141.621094 297.128906 141.296875 297.453125 140.8125 297.613281 L 122.40625 307.140625 C 120.144531 308.273438 117.238281 307.464844 116.105469 305.203125 C 114.976562 302.941406 115.785156 300.035156 118.042969 298.90625 L 136.453125 289.378906 C 138.714844 288.246094 141.621094 289.054688 142.75 291.316406 C 143.71875 293.253906 143.398438 295.351562 141.945312 296.804688 Z M 141.945312 296.804688 "/><path style=" stroke:none;fill-rule:nonzero;fill:#ffffff;fill-opacity:1;" d="M 327.328125 201.046875 C 327.003906 201.371094 326.519531 201.691406 326.035156 201.855469 L 307.464844 211.058594 C 305.203125 212.1875 302.296875 211.21875 301.167969 208.960938 C 300.035156 206.699219 301.003906 203.792969 303.265625 202.660156 L 321.835938 193.457031 C 324.097656 192.328125 327.003906 193.296875 328.132812 195.554688 C 329.265625 197.332031 328.78125 199.59375 327.328125 201.046875 Z M 327.328125 201.046875 "/><path style=" stroke:none;fill-rule:nonzero;fill:#ffffff;fill-opacity:1;" d="M 268.707031 170.042969 C 267.253906 171.496094 264.992188 171.816406 263.21875 170.847656 C 260.957031 169.71875 259.988281 166.8125 261.28125 164.550781 L 271.128906 145.496094 C 272.261719 143.234375 275.167969 142.265625 277.429688 143.558594 C 279.6875 144.6875 280.65625 147.597656 279.367188 149.855469 L 269.515625 168.910156 C 269.355469 169.394531 269.03125 169.71875 268.707031 170.042969 Z M 268.707031 170.042969 "/><path style=" stroke:none;fill-rule:nonzero;fill:#ffffff;fill-opacity:1;" d="M 172.949219 355.585938 C 171.496094 357.039062 169.394531 357.363281 167.457031 356.554688 C 165.199219 355.425781 164.066406 352.519531 165.359375 350.257812 L 174.402344 331.6875 C 175.53125 329.265625 178.4375 328.296875 180.699219 329.585938 C 182.960938 330.71875 184.089844 333.625 182.800781 335.886719 L 173.757812 354.457031 C 173.59375 354.777344 173.273438 355.261719 172.949219 355.585938 Z M 172.949219 355.585938 "/><path style=" stroke:none;fill-rule:nonzero;fill:#ffffff;fill-opacity:1;" d="M 212.027344 161.804688 C 211.382812 162.453125 210.414062 162.9375 209.445312 163.097656 C 206.859375 163.421875 204.4375 161.644531 204.113281 159.0625 L 201.207031 138.714844 C 200.886719 136.128906 202.660156 133.707031 205.246094 133.386719 C 207.828125 133.0625 210.25 134.839844 210.574219 137.421875 L 213.480469 157.769531 C 213.480469 159.222656 212.996094 160.675781 212.027344 161.804688 Z M 212.027344 161.804688 "/><path style=" stroke:none;fill-rule:nonzero;fill:#ffffff;fill-opacity:1;" d="M 166.167969 195.554688 C 150.339844 211.382812 140.8125 230.757812 139.199219 250.300781 C 137.421875 271.613281 145.011719 291.316406 161 307.300781 C 179.085938 325.390625 207.023438 337.5 234.152344 338.953125 L 237.542969 339.113281 C 240.773438 339.113281 244 338.953125 247.390625 338.792969 C 251.105469 338.792969 253.851562 339.4375 256.433594 340.566406 L 256.433594 341.050781 L 260.796875 343.3125 C 263.863281 346.058594 267.738281 347.511719 271.613281 347.1875 C 275.492188 347.027344 279.203125 345.25 281.789062 342.507812 L 313.277344 311.015625 L 313.601562 310.695312 C 317.636719 305.847656 318.285156 299.230469 315.375 293.253906 C 315.054688 292.609375 314.730469 291.960938 314.246094 291.476562 L 313.117188 289.863281 C 310.210938 285.503906 309.402344 281.949219 309.402344 277.914062 C 312.46875 247.390625 300.035156 212.351562 278.558594 190.550781 C 246.90625 158.898438 200.886719 160.835938 166.167969 195.554688 Z M 264.1875 204.597656 C 281.625 222.199219 291.960938 251.589844 289.378906 276.296875 L 289.378906 277.429688 C 289.539062 283.402344 290.347656 291.316406 296 300.035156 L 270.324219 325.550781 C 261.441406 319.738281 253.207031 318.929688 246.90625 318.929688 L 246.101562 318.929688 C 244.324219 319.089844 242.546875 319.253906 240.773438 319.253906 L 237.542969 319.253906 C 214.773438 318.769531 190.226562 308.59375 175.046875 293.414062 C 163.421875 281.625 157.769531 267.417969 159.0625 252.074219 C 160.191406 237.21875 167.78125 222.199219 180.375 209.605469 C 206.535156 183.285156 241.09375 181.347656 264.1875 204.597656 Z M 264.1875 204.597656 "/><path style=" stroke:none;fill-rule:nonzero;fill:#ffffff;fill-opacity:1;" d="M 290.832031 358.332031 L 328.617188 320.707031 C 331.039062 318.285156 330.878906 314.246094 328.296875 311.664062 L 327.164062 310.53125 C 324.582031 307.949219 320.542969 307.785156 318.121094 310.210938 L 280.335938 347.835938 C 277.914062 350.257812 278.074219 354.292969 280.65625 356.878906 L 281.789062 358.007812 C 284.371094 360.59375 288.410156 360.753906 290.832031 358.332031 Z M 290.832031 358.332031 "/><path style=" stroke:none;fill-rule:nonzero;fill:#ffffff;fill-opacity:1;" d="M 320.058594 333.785156 L 321.996094 335.722656 C 325.066406 338.792969 325.066406 343.476562 322.320312 346.21875 L 316.507812 352.035156 C 313.761719 354.777344 308.917969 354.617188 306.011719 351.710938 L 304.074219 349.773438 Z M 320.058594 333.785156 "/><path style=" stroke:none;fill-rule:nonzero;fill:#ffffff;fill-opacity:1;" d="M 248.683594 227.046875 C 242.710938 229.628906 240.773438 236.574219 241.742188 242.226562 C 242.546875 247.230469 244.324219 252.074219 246.261719 256.597656 C 243.839844 259.828125 241.417969 262.894531 238.832031 265.476562 L 238.347656 265.964844 C 238.027344 266.285156 237.863281 266.449219 237.542969 266.769531 C 237.21875 267.09375 236.734375 267.578125 236.410156 267.902344 C 233.667969 270.484375 230.757812 272.90625 227.53125 275.328125 C 224.300781 274.035156 221.070312 273.066406 218.003906 272.097656 C 210.574219 269.675781 204.761719 270.324219 200.722656 274.199219 C 196.363281 278.234375 195.878906 284.695312 199.753906 289.378906 C 204.4375 295.03125 211.382812 296 220.261719 292.125 C 220.746094 291.960938 221.394531 291.800781 222.039062 291.476562 C 222.523438 291.15625 223.167969 290.832031 223.65625 290.507812 L 224.300781 290.183594 C 225.914062 289.378906 227.53125 288.410156 229.304688 287.117188 C 235.925781 290.023438 242.871094 293.738281 250.785156 298.421875 C 262.734375 305.6875 274.035156 314.570312 284.210938 324.742188 C 284.371094 324.90625 284.695312 325.066406 284.855469 325.390625 L 285.664062 326.035156 L 297.289062 314.40625 L 296.644531 313.601562 C 296.484375 313.4375 296.320312 313.117188 296 312.953125 C 285.664062 302.941406 276.78125 291.640625 269.515625 279.6875 C 264.832031 271.9375 261.117188 264.992188 258.210938 258.535156 C 265.640625 247.390625 267.253906 238.832031 263.054688 232.214844 C 260.148438 227.691406 254.335938 224.460938 248.683594 227.046875 Z M 254.496094 241.257812 C 254.335938 242.546875 253.851562 243.839844 253.207031 245.453125 C 252.882812 244.324219 252.558594 243.195312 252.238281 242.0625 C 251.753906 240.449219 251.753906 237.542969 252.398438 236.734375 C 252.398438 236.734375 252.558594 236.574219 253.042969 236.574219 C 254.660156 237.058594 254.820312 239.800781 254.496094 241.257812 Z M 251.105469 267.738281 C 253.207031 272.261719 255.628906 276.78125 258.050781 281.140625 C 261.601562 287.117188 265.476562 293.09375 269.675781 298.742188 C 259.828125 291.476562 249.492188 285.339844 238.671875 280.335938 C 239.800781 279.367188 240.933594 278.234375 242.226562 277.105469 C 243.03125 276.460938 243.679688 275.652344 244.484375 275.007812 L 245.453125 274.035156 C 247.390625 271.9375 249.332031 269.839844 251.105469 267.738281 Z M 216.386719 282.59375 C 214.773438 283.242188 213.480469 283.726562 212.1875 283.886719 C 210.734375 284.210938 207.992188 284.050781 207.667969 282.59375 C 207.507812 282.109375 207.667969 281.949219 207.828125 281.949219 C 208.636719 281.140625 211.382812 281.304688 213.15625 281.789062 C 214.125 281.949219 215.257812 282.273438 216.386719 282.59375 Z M 216.386719 282.59375 "/></g></svg>