<svg xmlns="http://www.w3.org/2000/svg" xmlns:xlink="http://www.w3.org/1999/xlink" width="2000" zoomAndPan="magnify" viewBox="0 0 1500 1499.999933" height="2000" preserveAspectRatio="xMidYMid meet" version="1.2"><g id="e40af97f7a"><path style=" stroke:none;fill-rule:nonzero;fill:#003378;fill-opacity:1;" d="M 843.898438 699.460938 L 1453.949219 699.460938 C 1479.664062 699.460938 1500 677.332031 1497.308594 651.914062 C 1461.722656 309.808594 1190.191406 38.277344 848.085938 2.691406 C 822.667969 0 800.539062 20.335938 800.539062 46.050781 L 800.539062 656.101562 C 800.539062 680.023438 819.976562 699.460938 843.898438 699.460938 Z M 843.898438 699.460938 "/><path style=" stroke:none;fill-rule:nonzero;fill:#003378;fill-opacity:1;" d="M 699.460938 699.460938 L 699.460938 89.113281 C 699.460938 63.398438 677.332031 43.0625 651.914062 45.753906 C 309.808594 81.640625 38.277344 353.167969 2.691406 695.273438 C 0 720.695312 20.335938 742.824219 46.050781 742.824219 L 656.101562 742.824219 C 680.023438 742.824219 699.460938 723.386719 699.460938 699.460938 Z M 699.460938 699.460938 "/><path style=" stroke:none;fill-rule:nonzero;fill:#003378;fill-opacity:1;" d="M 757.175781 843.898438 L 757.175781 1453.945312 C 757.175781 1479.664062 779.304688 1500 804.726562 1497.308594 C 1146.832031 1461.722656 1418.359375 1190.191406 1453.949219 848.085938 C 1456.636719 822.667969 1436.304688 800.539062 1410.585938 800.539062 L 800.539062 800.539062 C 776.613281 800.539062 757.175781 819.976562 757.175781 843.898438 Z M 757.175781 843.898438 "/><path style=" stroke:none;fill-rule:nonzero;fill:#003378;fill-opacity:1;" d="M 656.101562 800.539062 L 46.050781 800.539062 C 20.335938 800.539062 0 822.667969 2.691406 848.085938 C 38.277344 1190.191406 309.808594 1461.722656 651.914062 1497.308594 C 677.332031 1500 699.460938 1479.664062 699.460938 1453.945312 L 699.460938 843.898438 C 699.460938 819.976562 680.023438 800.539062 656.101562 800.539062 Z M 656.101562 800.539062 "/><path style=" stroke:none;fill-rule:nonzero;fill:#ffffff;fill-opacity:1;" d="M 1101.972656 351.375 C 1077.453125 351.375 1057.714844 370.8125 1056.519531 395.035156 L 1105.261719 381.878906 C 1109.152344 380.980469 1113.039062 381.878906 1115.730469 384.570312 C 1118.421875 387.261719 1119.617188 391.148438 1118.421875 395.035156 L 1105.859375 442.285156 C 1129.484375 440.492188 1148.324219 421.050781 1148.324219 397.128906 C 1147.726562 372.007812 1127.390625 351.375 1101.972656 351.375 Z M 1101.972656 351.375 "/><path style=" stroke:none;fill-rule:nonzero;fill:#ffffff;fill-opacity:1;" d="M 1088.816406 463.515625 L 1107.953125 392.644531 L 1036.78125 411.484375 L 1051.433594 426.136719 L 970.394531 507.175781 L 947.070312 500.597656 L 890.847656 557.417969 L 925.835938 567.582031 L 930.921875 572.667969 L 941.386719 607.65625 L 997.90625 550.835938 L 991.925781 531.101562 L 1074.164062 448.863281 Z M 1088.816406 463.515625 "/><path style=" stroke:none;fill-rule:nonzero;fill:#ffffff;fill-opacity:1;" d="M 1101.972656 284.6875 C 1039.773438 284.6875 989.535156 335.226562 989.535156 397.429688 C 989.535156 418.960938 995.8125 438.996094 1006.578125 456.339844 L 1030.203125 432.714844 C 1024.820312 421.949219 1021.832031 409.988281 1021.832031 397.429688 C 1021.832031 353.167969 1058.015625 316.984375 1102.273438 316.984375 C 1146.53125 316.984375 1182.714844 353.167969 1182.714844 397.429688 C 1182.714844 441.6875 1146.53125 477.871094 1102.273438 477.871094 C 1090.011719 477.871094 1078.648438 474.878906 1068.480469 470.09375 L 1044.855469 493.71875 C 1061.601562 503.886719 1081.339844 509.867188 1102.273438 509.867188 C 1164.472656 509.867188 1214.714844 459.328125 1214.714844 397.429688 C 1214.414062 335.226562 1163.875 284.6875 1101.972656 284.6875 Z M 1101.972656 284.6875 "/><path style=" stroke:none;fill-rule:nonzero;fill:#ffffff;fill-opacity:1;" d="M 1101.972656 223.984375 C 1006.28125 223.984375 928.527344 301.734375 928.527344 397.429688 C 928.527344 436.003906 941.386719 470.992188 962.917969 500 L 985.644531 477.273438 C 970.09375 454.546875 960.824219 427.035156 960.824219 397.429688 C 960.824219 319.378906 1024.222656 255.980469 1102.273438 255.980469 C 1180.324219 255.980469 1243.71875 319.378906 1243.71875 397.429688 C 1243.71875 475.476562 1180.324219 538.875 1102.273438 538.875 C 1073.265625 538.875 1046.351562 529.902344 1023.625 514.953125 L 1000.898438 537.679688 C 1029.304688 558.3125 1064.292969 570.875 1102.273438 570.875 C 1197.964844 570.875 1275.71875 493.121094 1275.71875 397.429688 C 1275.121094 301.734375 1197.367188 223.984375 1101.972656 223.984375 Z M 1101.972656 223.984375 "/><path style=" stroke:none;fill-rule:nonzero;fill:#ffffff;fill-opacity:1;" d="M 995.8125 1071.171875 L 891.449219 992.523438 L 893.242188 961.125 L 990.429688 1034.6875 L 1076.855469 918.359375 L 1097.785156 933.910156 Z M 995.8125 1071.171875 "/><path style=" stroke:none;fill-rule:nonzero;fill:#ffffff;fill-opacity:1;" d="M 1026.613281 1052.929688 C 1026.613281 1071.472656 1011.664062 1086.421875 993.121094 1086.421875 C 974.582031 1086.421875 959.628906 1071.472656 959.628906 1052.929688 C 959.628906 1034.390625 974.582031 1019.4375 993.121094 1019.4375 C 1011.664062 1019.4375 1026.613281 1034.390625 1026.613281 1052.929688 Z M 1026.613281 1052.929688 "/><path style=" stroke:none;fill-rule:nonzero;fill:#ffffff;fill-opacity:1;" d="M 1127.390625 926.136719 C 1127.390625 944.675781 1112.441406 959.628906 1093.898438 959.628906 C 1075.359375 959.628906 1060.40625 944.675781 1060.40625 926.136719 C 1060.40625 907.59375 1075.359375 892.644531 1093.898438 892.644531 C 1112.441406 892.34375 1127.390625 907.59375 1127.390625 926.136719 Z M 1127.390625 926.136719 "/><path style=" stroke:none;fill-rule:nonzero;fill:#ffffff;fill-opacity:1;" d="M 926.136719 976.972656 C 926.136719 995.515625 911.183594 1010.464844 892.644531 1010.464844 C 874.101562 1010.464844 859.152344 995.515625 859.152344 976.972656 C 859.152344 958.433594 874.101562 943.480469 892.644531 943.480469 C 910.886719 943.183594 926.136719 958.433594 926.136719 976.972656 Z M 926.136719 976.972656 "/><path style=" stroke:none;fill-rule:nonzero;fill:#ffffff;fill-opacity:1;" d="M 858.550781 1047.847656 L 926.136719 1047.847656 L 926.136719 1241.328125 L 858.550781 1241.328125 Z M 858.550781 1047.847656 "/><path style=" stroke:none;fill-rule:nonzero;fill:#ffffff;fill-opacity:1;" d="M 958.132812 1115.730469 L 1025.71875 1115.730469 L 1025.71875 1239.234375 L 958.132812 1239.234375 Z M 958.132812 1115.730469 "/><path style=" stroke:none;fill-rule:nonzero;fill:#ffffff;fill-opacity:1;" d="M 1060.109375 998.804688 L 1127.691406 998.804688 L 1127.691406 1241.027344 L 1060.109375 1241.027344 Z M 1060.109375 998.804688 "/><path style=" stroke:none;fill-rule:nonzero;fill:#ffffff;fill-opacity:1;" d="M 537.082031 949.164062 L 537.082031 913.578125 C 537.082031 904.304688 529.304688 896.53125 520.035156 896.53125 L 373.804688 896.53125 C 373.207031 896.53125 372.90625 896.832031 372.609375 896.832031 C 371.113281 896.832031 369.617188 897.128906 368.121094 897.726562 C 367.523438 898.027344 366.925781 898.027344 366.328125 898.324219 C 364.832031 898.921875 363.636719 899.820312 362.441406 901.015625 C 362.140625 901.316406 361.84375 901.613281 361.542969 901.914062 C 361.542969 901.914062 361.242188 901.914062 361.242188 902.210938 L 283.195312 985.046875 C 282.597656 985.644531 282.296875 986.542969 281.699219 987.140625 C 281.101562 988.039062 280.203125 989.234375 279.605469 990.429688 C 279.007812 991.625 279.007812 993.121094 278.707031 994.316406 C 278.707031 994.917969 278.109375 995.8125 278.109375 996.710938 L 278.109375 1215.011719 C 278.109375 1224.582031 285.886719 1232.058594 295.15625 1232.058594 L 519.738281 1232.058594 C 529.007812 1232.058594 536.78125 1224.582031 536.78125 1215.011719 L 536.78125 1177.035156 C 525.417969 1178.527344 513.757812 1177.929688 502.691406 1175.835938 L 502.691406 1197.964844 L 312.5 1197.964844 L 312.5 1013.753906 L 373.503906 1013.753906 C 382.773438 1013.753906 390.550781 1005.980469 390.550781 996.710938 L 390.550781 930.921875 L 502.691406 930.921875 L 502.691406 950.957031 C 514.355469 948.265625 525.71875 947.964844 537.082031 949.164062 Z M 537.082031 949.164062 "/><path style=" stroke:none;fill-rule:nonzero;fill:#ffffff;fill-opacity:1;" d="M 413.277344 1036.78125 C 410.585938 1047.847656 409.6875 1059.507812 410.585938 1070.875 L 357.058594 1070.875 C 347.785156 1070.875 340.011719 1063.097656 340.011719 1053.828125 C 340.011719 1044.558594 347.785156 1036.78125 357.058594 1036.78125 Z M 413.277344 1036.78125 "/><path style=" stroke:none;fill-rule:nonzero;fill:#ffffff;fill-opacity:1;" d="M 426.433594 1122.007812 L 357.058594 1122.007812 C 347.789062 1122.007812 340.011719 1114.234375 340.011719 1104.964844 C 340.011719 1095.695312 347.789062 1087.917969 357.058594 1087.917969 L 412.976562 1087.917969 C 415.667969 1099.582031 420.15625 1111.242188 426.433594 1122.007812 Z M 426.433594 1122.007812 "/><path style=" stroke:none;fill-rule:nonzero;fill:#ffffff;fill-opacity:1;" d="M 473.085938 1165.371094 C 470.09375 1169.855469 464.714844 1173.144531 458.730469 1173.144531 L 357.058594 1173.144531 C 347.785156 1173.144531 340.011719 1165.371094 340.011719 1156.101562 C 340.011719 1146.828125 347.785156 1139.054688 357.058594 1139.054688 L 438.695312 1139.054688 C 448.566406 1150.121094 460.527344 1159.089844 473.085938 1165.371094 Z M 473.085938 1165.371094 "/><path style=" stroke:none;fill-rule:nonzero;fill:#ffffff;fill-opacity:1;" d="M 627.992188 1164.175781 L 584.929688 1103.46875 C 580.144531 1110.644531 574.164062 1116.925781 566.6875 1122.308594 C 559.210938 1127.691406 551.136719 1130.980469 543.0625 1133.074219 L 586.125 1193.78125 C 591.207031 1200.957031 598.984375 1204.546875 607.058594 1204.546875 C 612.140625 1204.546875 617.226562 1203.050781 621.710938 1199.761719 C 633.375 1191.984375 636.066406 1175.835938 627.992188 1164.175781 Z M 627.992188 1164.175781 "/><path style=" stroke:none;fill-rule:nonzero;fill:#ffffff;fill-opacity:1;" d="M 525.121094 1153.109375 C 520.035156 1153.109375 514.953125 1152.8125 509.867188 1151.914062 C 486.242188 1147.726562 465.609375 1134.867188 451.554688 1115.132812 C 437.800781 1095.394531 432.117188 1071.769531 436.304688 1048.144531 C 440.492188 1024.523438 453.347656 1003.886719 473.085938 989.832031 C 513.457031 961.125 569.675781 970.695312 598.386719 1011.363281 C 612.140625 1031.101562 617.824219 1054.726562 613.636719 1078.347656 C 609.449219 1101.972656 596.589844 1122.609375 576.855469 1136.664062 C 561.601562 1147.429688 543.660156 1153.109375 525.121094 1153.109375 Z M 524.820312 1007.476562 C 513.757812 1007.476562 502.390625 1010.765625 492.824219 1017.644531 C 480.5625 1026.316406 472.488281 1039.175781 470.09375 1053.828125 C 467.703125 1068.480469 470.992188 1083.132812 479.664062 1095.394531 C 488.335938 1107.65625 501.195312 1115.730469 515.847656 1118.121094 C 530.503906 1120.8125 545.15625 1117.226562 557.417969 1108.550781 C 569.675781 1099.878906 577.75 1087.019531 580.144531 1072.367188 C 582.535156 1057.714844 579.246094 1043.0625 570.574219 1030.800781 C 559.507812 1015.550781 542.164062 1007.476562 524.820312 1007.476562 Z M 524.820312 1007.476562 "/><path style=" stroke:none;fill-rule:nonzero;fill:#ffffff;fill-opacity:1;" d="M 296.949219 348.984375 C 293.660156 352.273438 287.976562 352.273438 284.6875 348.984375 L 258.074219 322.367188 C 254.785156 319.078125 254.785156 313.398438 258.074219 310.109375 C 261.363281 306.816406 267.046875 306.816406 270.335938 310.109375 L 296.949219 336.722656 C 300.539062 340.3125 300.539062 345.695312 296.949219 348.984375 Z M 296.949219 348.984375 "/><path style=" stroke:none;fill-rule:nonzero;fill:#ffffff;fill-opacity:1;" d="M 247.308594 444.675781 C 245.515625 446.472656 242.824219 447.667969 239.832031 447.070312 L 202.152344 441.6875 C 197.367188 441.089844 194.078125 436.601562 194.675781 431.816406 C 195.273438 427.035156 199.761719 423.742188 204.546875 424.34375 L 242.226562 429.726562 C 247.007812 430.324219 250.300781 434.808594 249.699219 439.59375 C 249.699219 441.6875 248.804688 443.480469 247.308594 444.675781 Z M 247.308594 444.675781 "/><path style=" stroke:none;fill-rule:nonzero;fill:#ffffff;fill-opacity:1;" d="M 262.859375 549.640625 C 262.261719 550.238281 261.664062 550.835938 260.765625 551.136719 L 226.675781 568.78125 C 222.488281 570.875 217.105469 569.378906 215.011719 565.191406 C 212.917969 561.003906 214.414062 555.621094 218.601562 553.527344 L 252.691406 535.886719 C 256.878906 533.792969 262.261719 535.285156 264.355469 539.472656 C 266.148438 543.0625 265.550781 546.949219 262.859375 549.640625 Z M 262.859375 549.640625 "/><path style=" stroke:none;fill-rule:nonzero;fill:#ffffff;fill-opacity:1;" d="M 606.160156 372.308594 C 605.5625 372.90625 604.664062 373.503906 603.769531 373.804688 L 569.378906 390.847656 C 565.191406 392.941406 559.808594 391.148438 557.714844 386.960938 C 555.621094 382.773438 557.417969 377.390625 561.601562 375.300781 L 595.992188 358.253906 C 600.179688 356.160156 605.5625 357.953125 607.65625 362.140625 C 609.75 365.429688 608.851562 369.617188 606.160156 372.308594 Z M 606.160156 372.308594 "/><path style=" stroke:none;fill-rule:nonzero;fill:#ffffff;fill-opacity:1;" d="M 497.609375 314.890625 C 494.917969 317.582031 490.730469 318.183594 487.441406 316.386719 C 483.253906 314.292969 481.460938 308.910156 483.851562 304.726562 L 502.09375 269.4375 C 504.1875 265.25 509.570312 263.457031 513.757812 265.847656 C 517.941406 267.941406 519.738281 273.324219 517.34375 277.511719 L 499.101562 312.800781 C 498.804688 313.695312 498.207031 314.292969 497.609375 314.890625 Z M 497.609375 314.890625 "/><path style=" stroke:none;fill-rule:nonzero;fill:#ffffff;fill-opacity:1;" d="M 320.273438 658.492188 C 317.582031 661.183594 313.695312 661.78125 310.109375 660.285156 C 305.921875 658.195312 303.828125 652.8125 306.21875 648.625 L 322.964844 614.234375 C 325.058594 609.75 330.441406 607.953125 334.628906 610.347656 C 338.816406 612.441406 340.910156 617.824219 338.515625 622.007812 L 321.769531 656.398438 C 321.472656 656.996094 320.875 657.894531 320.273438 658.492188 Z M 320.273438 658.492188 "/><path style=" stroke:none;fill-rule:nonzero;fill:#ffffff;fill-opacity:1;" d="M 392.644531 299.640625 C 391.449219 300.835938 389.652344 301.734375 387.859375 302.035156 C 383.074219 302.632812 378.589844 299.34375 377.992188 294.558594 L 372.609375 256.878906 C 372.007812 252.09375 375.300781 247.609375 380.082031 247.007812 C 384.867188 246.410156 389.355469 249.699219 389.953125 254.484375 L 395.335938 292.164062 C 395.335938 294.855469 394.4375 297.546875 392.644531 299.640625 Z M 392.644531 299.640625 "/><path style=" stroke:none;fill-rule:nonzero;fill:#ffffff;fill-opacity:1;" d="M 307.714844 362.140625 C 278.410156 391.449219 260.765625 427.332031 257.773438 463.515625 C 254.484375 502.992188 268.539062 539.472656 298.144531 569.078125 C 331.640625 602.570312 383.375 625 433.613281 627.691406 L 439.890625 627.992188 C 445.875 627.992188 451.855469 627.691406 458.132812 627.390625 C 465.011719 627.390625 470.097656 628.589844 474.878906 630.683594 L 474.878906 631.578125 L 482.953125 635.765625 C 488.636719 640.847656 495.8125 643.539062 502.992188 642.941406 C 510.167969 642.644531 517.046875 639.355469 521.832031 634.269531 L 580.742188 575.359375 C 588.21875 566.386719 589.414062 554.125 584.03125 543.0625 C 583.433594 541.867188 582.835938 540.667969 581.9375 539.773438 L 579.84375 536.78125 C 574.460938 528.707031 572.964844 522.128906 572.964844 514.652344 C 578.648438 458.132812 555.621094 393.242188 515.847656 352.871094 C 457.238281 294.257812 372.007812 297.847656 307.714844 362.140625 Z M 489.234375 378.886719 C 521.53125 411.484375 540.667969 465.910156 535.886719 511.664062 L 535.886719 513.757812 C 536.183594 524.820312 537.679688 539.472656 548.144531 555.621094 L 500.597656 602.871094 C 484.152344 592.105469 468.898438 590.609375 457.238281 590.609375 L 455.742188 590.609375 C 452.453125 590.910156 449.164062 591.207031 445.875 591.207031 L 439.890625 591.207031 C 397.726562 590.3125 352.273438 571.472656 324.164062 543.359375 C 302.632812 521.53125 292.164062 495.214844 294.558594 466.804688 C 296.652344 439.292969 310.707031 411.484375 334.03125 388.15625 C 382.476562 339.414062 446.472656 335.824219 489.234375 378.886719 Z M 489.234375 378.886719 "/><path style=" stroke:none;fill-rule:nonzero;fill:#ffffff;fill-opacity:1;" d="M 538.578125 663.578125 L 608.550781 593.898438 C 613.039062 589.414062 612.738281 581.9375 607.953125 577.152344 L 605.859375 575.058594 C 601.078125 570.273438 593.601562 569.976562 589.113281 574.460938 L 519.140625 644.140625 C 514.652344 648.625 514.953125 656.101562 519.738281 660.886719 L 521.832031 662.976562 C 526.613281 667.761719 534.089844 668.0625 538.578125 663.578125 Z M 538.578125 663.578125 "/><path style=" stroke:none;fill-rule:nonzero;fill:#ffffff;fill-opacity:1;" d="M 592.703125 618.121094 L 596.292969 621.710938 C 601.972656 627.390625 601.972656 636.066406 596.890625 641.148438 L 586.125 651.914062 C 581.039062 656.996094 572.070312 656.699219 566.6875 651.316406 L 563.097656 647.726562 Z M 592.703125 618.121094 "/><path style=" stroke:none;fill-rule:nonzero;fill:#ffffff;fill-opacity:1;" d="M 460.527344 420.453125 C 449.460938 425.238281 445.875 438.097656 447.667969 448.566406 C 449.164062 457.835938 452.453125 466.804688 456.039062 475.179688 C 451.554688 481.160156 447.070312 486.84375 442.285156 491.625 L 441.386719 492.523438 C 440.789062 493.121094 440.492188 493.421875 439.890625 494.019531 C 439.292969 494.617188 438.398438 495.515625 437.800781 496.113281 C 432.714844 500.898438 427.332031 505.382812 421.351562 509.867188 C 415.371094 507.476562 409.390625 505.683594 403.707031 503.886719 C 389.953125 499.402344 379.1875 500.597656 371.710938 507.773438 C 363.636719 515.25 362.738281 527.210938 369.917969 535.886719 C 378.589844 546.351562 391.449219 548.144531 407.894531 540.96875 C 408.792969 540.667969 409.988281 540.371094 411.183594 539.773438 C 412.082031 539.175781 413.277344 538.578125 414.175781 537.976562 L 415.371094 537.378906 C 418.359375 535.886719 421.351562 534.089844 424.640625 531.699219 C 436.902344 537.082031 449.761719 543.960938 464.414062 552.632812 C 486.542969 566.089844 507.476562 582.535156 526.316406 601.375 C 526.613281 601.675781 527.214844 601.972656 527.511719 602.570312 L 529.007812 603.769531 L 550.539062 582.238281 L 549.34375 580.742188 C 549.042969 580.441406 548.742188 579.84375 548.144531 579.546875 C 529.007812 561.003906 512.558594 540.070312 499.101562 517.941406 C 490.429688 503.589844 483.550781 490.730469 478.167969 478.769531 C 491.925781 458.132812 494.917969 442.285156 487.140625 430.023438 C 481.757812 421.652344 470.992188 415.667969 460.527344 420.453125 Z M 471.292969 446.769531 C 470.992188 449.164062 470.097656 451.554688 468.898438 454.546875 C 468.300781 452.453125 467.703125 450.359375 467.105469 448.265625 C 466.207031 445.273438 466.207031 439.890625 467.40625 438.398438 C 467.40625 438.398438 467.703125 438.097656 468.601562 438.097656 C 471.589844 438.996094 471.890625 444.078125 471.292969 446.769531 Z M 465.011719 495.8125 C 468.898438 504.1875 473.386719 512.558594 477.871094 520.632812 C 484.449219 531.699219 491.625 542.761719 499.402344 553.230469 C 481.160156 539.773438 462.023438 528.410156 441.984375 519.140625 C 444.078125 517.34375 446.171875 515.25 448.566406 513.15625 C 450.058594 511.960938 451.257812 510.464844 452.75 509.269531 L 454.546875 507.476562 C 458.132812 503.589844 461.722656 499.699219 465.011719 495.8125 Z M 400.71875 523.324219 C 397.726562 524.519531 395.335938 525.417969 392.941406 525.71875 C 390.25 526.316406 385.167969 526.015625 384.570312 523.324219 C 384.269531 522.429688 384.570312 522.128906 384.867188 522.128906 C 386.363281 520.632812 391.449219 520.933594 394.738281 521.832031 C 396.53125 522.128906 398.625 522.726562 400.71875 523.324219 Z M 400.71875 523.324219 "/></g></svg>