<svg xmlns="http://www.w3.org/2000/svg" xmlns:xlink="http://www.w3.org/1999/xlink" width="500" zoomAndPan="magnify" viewBox="0 0 375 374.999991" height="500" preserveAspectRatio="xMidYMid meet" version="1.0"><defs><filter x="0%" y="0%" width="100%" height="100%" id="3f25dffc9b"><feColorMatrix values="0 0 0 0 1 0 0 0 0 1 0 0 0 0 1 0 0 0 1 0" color-interpolation-filters="sRGB"/></filter><mask id="4da3ce4d22"><g filter="url(#3f25dffc9b)"><rect x="-37.5" width="450" fill="#000000" y="-37.499999" height="449.999989" fill-opacity="0.2"/></g></mask><clipPath id="39b511c4e1"><path d="M 70 209 L 179 209 L 179 251.71875 L 70 251.71875 Z M 70 209 " clip-rule="nonzero"/></clipPath><clipPath id="d7fa029a74"><rect x="0" width="249" y="0" height="252"/></clipPath><clipPath id="9d7f9a92fd"><path d="M 25.078125 93 L 78 93 L 78 138 L 25.078125 138 Z M 25.078125 93 " clip-rule="nonzero"/></clipPath><clipPath id="fe9530d7cf"><path d="M 25.078125 237 L 78 237 L 78 282 L 25.078125 282 Z M 25.078125 237 " clip-rule="nonzero"/></clipPath><clipPath id="9360054d97"><path d="M 165 319 L 210 319 L 210 374.96875 L 165 374.96875 Z M 165 319 " clip-rule="nonzero"/></clipPath><clipPath id="d1a8912bb6"><path d="M 297 237 L 349.722656 237 L 349.722656 282 L 297 282 Z M 297 237 " clip-rule="nonzero"/></clipPath><clipPath id="38ad626527"><path d="M 297 93 L 349.722656 93 L 349.722656 138 L 297 138 Z M 297 93 " clip-rule="nonzero"/></clipPath><clipPath id="141f8fab49"><path d="M 102.429688 102.429688 L 272.421875 102.429688 L 272.421875 272.421875 L 102.429688 272.421875 Z M 102.429688 102.429688 " clip-rule="nonzero"/></clipPath></defs><rect x="-37.5" width="450" fill="#ffffff" y="-37.499999" height="449.999989" fill-opacity="1"/><rect x="-37.5" width="450" fill="#ffffff" y="-37.499999" height="449.999989" fill-opacity="1"/><g mask="url(#4da3ce4d22)"><g transform="matrix(1, 0, 0, 1, 63, 61)"><g clip-path="url(#d7fa029a74)"><path fill="#cad0d9" d="M 71.105469 31.699219 C 67.78125 22.609375 72.433594 12.523438 81.632812 9.195312 C 94.925781 4.320312 109.441406 1.660156 124.402344 1.660156 C 139.359375 1.660156 153.761719 4.320312 167.167969 9.195312 C 176.253906 12.523438 181.019531 22.609375 177.695312 31.699219 C 174.371094 40.792969 164.289062 45.558594 155.203125 42.230469 C 145.675781 38.683594 135.257812 36.800781 124.511719 36.800781 C 113.652344 36.800781 103.347656 38.683594 93.820312 42.230469 C 91.824219 43.007812 89.832031 43.339844 87.835938 43.339844 C 80.414062 43.230469 73.652344 38.796875 71.105469 31.699219 Z M 71.105469 31.699219 " fill-opacity="1" fill-rule="nonzero"/><path fill="#477197" d="M 15.707031 125.152344 C 6.175781 123.492188 -0.25 114.402344 1.414062 104.867188 C 3.851562 90.898438 8.835938 77.042969 16.257812 64.070312 C 23.792969 51.101562 33.324219 39.90625 44.179688 30.8125 C 51.605469 24.605469 62.683594 25.605469 68.890625 33.03125 C 75.09375 40.457031 74.097656 51.542969 66.671875 57.753906 C 58.917969 64.292969 52.046875 72.273438 46.617188 81.699219 C 41.191406 91.121094 37.644531 100.988281 35.980469 111.074219 C 34.542969 119.609375 27.117188 125.597656 18.695312 125.597656 C 17.8125 125.484375 16.703125 125.375 15.707031 125.152344 Z M 15.707031 125.152344 " fill-opacity="1" fill-rule="nonzero"/><path fill="#588da9" d="M 44.179688 222.152344 C 33.324219 213.0625 23.792969 201.867188 16.257812 188.894531 C 8.726562 175.925781 3.851562 162.070312 1.414062 148.101562 C -0.25 138.566406 6.175781 129.476562 15.707031 127.8125 C 25.234375 126.152344 34.320312 132.582031 35.980469 142.113281 C 37.753906 152.203125 41.300781 162.070312 46.617188 171.492188 C 52.046875 180.914062 58.808594 188.894531 66.671875 195.4375 C 74.097656 201.644531 75.09375 212.730469 68.890625 220.15625 C 65.453125 224.261719 60.46875 226.476562 55.371094 226.476562 C 51.492188 226.253906 47.503906 224.925781 44.179688 222.152344 Z M 44.179688 222.152344 " fill-opacity="1" fill-rule="nonzero"/><g clip-path="url(#39b511c4e1)"><path fill="#67a4c5" d="M 124.402344 251.199219 C 109.441406 251.199219 94.925781 248.539062 81.632812 243.660156 C 72.546875 240.335938 67.78125 230.246094 71.105469 221.15625 C 74.429688 212.066406 84.511719 207.296875 93.597656 210.625 C 103.125 214.171875 113.542969 216.054688 124.289062 216.054688 C 135.148438 216.054688 145.453125 214.171875 154.980469 210.625 C 164.066406 207.296875 174.148438 211.953125 177.472656 221.15625 C 180.796875 230.246094 176.144531 240.335938 166.949219 243.660156 C 153.761719 248.539062 139.359375 251.199219 124.402344 251.199219 Z M 124.402344 251.199219 " fill-opacity="1" fill-rule="nonzero"/></g><path fill="#a2c3dd" d="M 179.691406 219.9375 C 173.484375 212.507812 174.480469 201.421875 181.90625 195.214844 C 189.660156 188.675781 196.53125 180.691406 201.960938 171.269531 C 207.390625 161.847656 210.933594 151.980469 212.597656 141.894531 C 214.257812 132.359375 223.34375 125.929688 232.875 127.59375 C 242.402344 129.253906 248.828125 138.34375 247.167969 147.878906 C 244.730469 161.847656 239.742188 175.703125 232.320312 188.675781 C 224.785156 201.644531 215.257812 212.839844 204.398438 221.933594 C 201.074219 224.703125 197.085938 226.035156 193.097656 226.035156 C 188.222656 226.253906 183.234375 224.039062 179.691406 219.9375 Z M 179.691406 219.9375 " fill-opacity="1" fill-rule="nonzero"/><path fill="#aab3c2" d="M 212.597656 110.964844 C 210.824219 100.875 207.277344 91.007812 201.960938 81.585938 C 196.53125 72.164062 189.773438 64.183594 181.90625 57.640625 C 174.480469 51.433594 173.484375 40.347656 179.691406 32.921875 C 185.894531 25.492188 196.976562 24.496094 204.398438 30.703125 C 215.257812 39.792969 224.785156 50.988281 232.320312 63.960938 C 239.855469 76.929688 244.730469 90.789062 247.167969 104.757812 C 248.828125 114.289062 242.402344 123.378906 232.875 125.152344 C 231.875 125.375 230.878906 125.375 229.773438 125.375 C 221.574219 125.484375 214.148438 119.5 212.597656 110.964844 Z M 212.597656 110.964844 " fill-opacity="1" fill-rule="nonzero"/></g></g></g><path fill="#cad0d9" d="M 140.089844 90.484375 C 137.984375 84.609375 140.976562 78.179688 146.738281 76.074219 C 159.367188 71.417969 173.105469 68.867188 187.289062 68.867188 C 201.472656 68.867188 215.210938 71.417969 227.84375 76.074219 C 233.714844 78.179688 236.707031 84.609375 234.492188 90.484375 C 232.386719 96.359375 225.960938 99.351562 220.085938 97.136719 C 209.78125 93.367188 198.8125 91.371094 187.179688 91.371094 C 175.542969 91.371094 164.574219 93.367188 154.269531 97.136719 C 153.050781 97.578125 151.722656 97.800781 150.394531 97.800781 C 145.960938 97.910156 141.75 95.027344 140.089844 90.484375 Z M 140.089844 90.484375 " fill-opacity="1" fill-rule="nonzero"/><path fill="#477197" d="M 79.8125 179.945312 C 73.71875 178.835938 69.621094 173.074219 70.726562 166.976562 C 73.054688 153.671875 77.707031 140.589844 84.800781 128.175781 C 91.890625 115.871094 100.976562 105.226562 111.28125 96.582031 C 116.046875 92.589844 123.136719 93.253906 127.125 98.023438 C 131.113281 102.789062 130.449219 109.882812 125.683594 113.875 C 117.265625 120.859375 110.0625 129.394531 104.191406 139.484375 C 98.429688 149.570312 94.660156 160.101562 92.777344 170.855469 C 91.78125 176.289062 87.125 180.167969 81.695312 180.167969 C 81.144531 180.167969 80.476562 180.054688 79.8125 179.945312 Z M 79.8125 179.945312 " fill-opacity="1" fill-rule="nonzero"/><path fill="#588da9" d="M 111.28125 278.277344 C 100.976562 269.628906 91.890625 258.988281 84.800781 246.679688 C 77.707031 234.375 73.054688 221.183594 70.726562 207.882812 C 69.621094 201.785156 73.71875 195.910156 79.8125 194.910156 C 85.90625 193.800781 91.78125 197.90625 92.777344 204 C 94.660156 214.753906 98.429688 225.398438 104.191406 235.375 C 109.949219 245.460938 117.265625 254 125.683594 260.980469 C 130.449219 264.972656 131.113281 272.066406 127.125 276.835938 C 124.910156 279.496094 121.695312 280.824219 118.484375 280.824219 C 115.933594 280.9375 113.386719 280.050781 111.28125 278.277344 Z M 111.28125 278.277344 " fill-opacity="1" fill-rule="nonzero"/><path fill="#67a4c5" d="M 187.402344 305.878906 C 173.21875 305.878906 159.480469 303.328125 146.847656 298.671875 C 140.976562 296.566406 137.984375 290.136719 140.199219 284.261719 C 142.304688 278.386719 148.730469 275.394531 154.605469 277.609375 C 164.90625 281.378906 175.878906 283.375 187.511719 283.375 C 199.144531 283.375 210.113281 281.378906 220.417969 277.609375 C 226.292969 275.503906 232.71875 278.496094 234.824219 284.261719 C 236.929688 290.136719 233.9375 296.566406 228.175781 298.671875 C 215.320312 303.328125 201.582031 305.878906 187.402344 305.878906 Z M 187.402344 305.878906 " fill-opacity="1" fill-rule="nonzero"/><path fill="#a2c3dd" d="M 247.566406 276.835938 C 243.578125 272.066406 244.242188 264.972656 249.003906 260.980469 C 257.425781 254 264.628906 245.460938 270.5 235.375 C 276.261719 225.285156 280.03125 214.753906 281.914062 204 C 283.019531 197.90625 288.78125 193.800781 294.875 194.910156 C 300.972656 196.019531 305.070312 201.785156 303.960938 207.882812 C 301.636719 221.183594 296.980469 234.265625 289.890625 246.679688 C 282.800781 258.988281 273.714844 269.628906 263.410156 278.277344 C 261.304688 280.050781 258.757812 280.9375 256.207031 280.9375 C 252.996094 280.9375 249.78125 279.496094 247.566406 276.835938 Z M 247.566406 276.835938 " fill-opacity="1" fill-rule="nonzero"/><path fill="#aab3c2" d="M 281.914062 170.855469 C 280.03125 160.101562 276.261719 149.460938 270.5 139.484375 C 264.738281 129.394531 257.425781 120.859375 249.003906 113.875 C 244.242188 109.882812 243.578125 102.789062 247.566406 98.023438 C 251.554688 93.253906 258.644531 92.589844 263.410156 96.582031 C 273.714844 105.226562 282.800781 115.871094 289.890625 128.175781 C 296.980469 140.480469 301.636719 153.671875 303.960938 166.976562 C 305.070312 173.074219 300.972656 178.949219 294.875 179.945312 C 294.210938 180.054688 293.546875 180.167969 292.882812 180.167969 C 287.5625 180.167969 282.800781 176.289062 281.914062 170.855469 Z M 281.914062 170.855469 " fill-opacity="1" fill-rule="nonzero"/><path fill="#477197" d="M 77.496094 113.542969 L 68.410156 129.289062 L 55.933594 122.082031 L 65.019531 106.335938 Z M 77.496094 113.542969 " fill-opacity="1" fill-rule="nonzero"/><g clip-path="url(#9d7f9a92fd)"><path fill="#477197" d="M 25.078125 93.808594 L 77.597656 98.132812 L 69.507812 108 C 70.949219 109.328125 73.496094 111.214844 77.488281 113.542969 C 77.488281 113.542969 68.402344 129.285156 68.402344 129.285156 C 64.855469 127.175781 62.195312 126.070312 60.3125 125.402344 C 60.089844 125.292969 59.871094 125.183594 59.535156 125.183594 L 55.105469 137.15625 Z M 25.078125 93.808594 " fill-opacity="1" fill-rule="nonzero"/></g><path fill="#588da9" d="M 77.527344 261.488281 L 65.054688 268.695312 L 55.96875 252.949219 L 68.441406 245.742188 Z M 77.527344 261.488281 " fill-opacity="1" fill-rule="nonzero"/><g clip-path="url(#fe9530d7cf)"><path fill="#588da9" d="M 55.214844 237.925781 L 59.648438 249.898438 C 59.871094 249.785156 60.089844 249.785156 60.421875 249.675781 C 62.308594 249.007812 64.964844 247.789062 68.511719 245.792969 C 68.511719 245.792969 71.835938 251.558594 71.835938 251.558594 L 77.597656 261.535156 C 77.488281 261.535156 77.488281 261.648438 77.375 261.648438 C 73.71875 263.753906 71.28125 265.527344 69.839844 266.859375 C 69.730469 266.96875 69.621094 267.078125 69.507812 267.078125 L 77.597656 276.945312 L 25.078125 281.269531 Z M 55.214844 237.925781 " fill-opacity="1" fill-rule="nonzero"/></g><path fill="#67a4c5" d="M 178.316406 319.515625 L 196.484375 319.515625 L 196.484375 333.925781 L 178.316406 333.925781 Z M 178.316406 319.515625 " fill-opacity="1" fill-rule="nonzero"/><g clip-path="url(#9360054d97)"><path fill="#67a4c5" d="M 165.128906 327.496094 L 177.539062 329.382812 C 177.539062 329.160156 177.648438 328.9375 177.648438 328.714844 C 178.09375 326.832031 178.316406 323.839844 178.316406 319.625 C 178.316406 319.625 196.484375 319.625 196.484375 319.625 C 196.484375 319.738281 196.484375 319.738281 196.484375 319.847656 C 196.484375 324.390625 196.929688 327.496094 197.371094 329.382812 L 209.894531 327.386719 L 187.402344 374.945312 Z M 165.128906 327.496094 " fill-opacity="1" fill-rule="nonzero"/></g><path fill="#a2c3dd" d="M 318.664062 252.863281 L 309.574219 268.609375 L 297.101562 261.402344 L 306.1875 245.65625 Z M 318.664062 252.863281 " fill-opacity="1" fill-rule="nonzero"/><g clip-path="url(#d1a8912bb6)"><path fill="#a2c3dd" d="M 297.09375 276.945312 L 305.179688 267.078125 C 303.742188 265.75 301.304688 263.863281 297.3125 261.535156 C 297.3125 261.535156 297.203125 261.535156 297.203125 261.425781 L 306.289062 245.683594 C 309.835938 247.789062 312.492188 248.898438 314.378906 249.5625 C 314.597656 249.675781 314.929688 249.785156 315.152344 249.785156 L 319.585938 237.925781 L 349.613281 281.269531 Z M 297.09375 276.945312 " fill-opacity="1" fill-rule="nonzero"/></g><path fill="#aab3c2" d="M 318.730469 122.144531 L 306.257812 129.351562 L 297.171875 113.609375 L 309.644531 106.402344 Z M 318.730469 122.144531 " fill-opacity="1" fill-rule="nonzero"/><g clip-path="url(#38ad626527)"><path fill="#aab3c2" d="M 315.152344 125.183594 C 314.929688 125.292969 314.710938 125.292969 314.378906 125.402344 C 312.492188 126.070312 309.835938 127.289062 306.289062 129.285156 C 306.289062 129.285156 300.75 119.640625 300.75 119.640625 L 297.203125 113.542969 C 297.3125 113.542969 297.3125 113.429688 297.425781 113.429688 C 301.082031 111.324219 303.519531 109.550781 304.960938 108.222656 C 305.070312 108.109375 305.179688 108 305.292969 108 L 297.203125 98.132812 L 349.722656 93.808594 L 319.695312 137.15625 Z M 315.152344 125.183594 " fill-opacity="1" fill-rule="nonzero"/></g><path fill="#cad0d9" d="M 178.09375 40.929688 L 196.265625 40.929688 L 196.265625 55.34375 L 178.09375 55.34375 Z M 178.09375 40.929688 " fill-opacity="1" fill-rule="nonzero"/><path fill="#cad0d9" d="M 178.09375 55.34375 C 178.09375 55.34375 178.09375 55.230469 178.09375 55.230469 C 178.09375 50.6875 177.648438 47.582031 177.207031 45.699219 L 164.574219 47.914062 L 187.179688 0.0234375 L 209.671875 47.691406 L 197.152344 45.585938 C 197.152344 45.808594 197.039062 46.03125 197.039062 46.25 C 196.597656 48.136719 196.375 51.128906 196.375 55.34375 Z M 178.09375 55.34375 " fill-opacity="1" fill-rule="nonzero"/><path fill="#003378" d="M 216.363281 167.894531 C 210.382812 159.023438 200.851562 153.503906 190.21875 152.757812 L 190.246094 152.382812 C 201 153.136719 210.632812 158.71875 216.675781 167.6875 Z M 216.363281 167.894531 " fill-opacity="1" fill-rule="nonzero"/><path fill="#003378" d="M 222.316406 191.703125 L 221.945312 191.652344 C 222.136719 190.167969 222.234375 188.644531 222.234375 187.136719 C 222.234375 182.144531 221.191406 177.324219 219.128906 172.816406 L 219.46875 172.660156 C 221.550781 177.214844 222.605469 182.082031 222.605469 187.132812 C 222.605469 188.660156 222.511719 190.195312 222.316406 191.703125 Z M 222.316406 191.703125 " fill-opacity="1" fill-rule="nonzero"/><path fill="#003378" d="M 206.207031 216.707031 L 206.003906 216.386719 C 213.3125 211.816406 218.625 204.75 220.949219 196.488281 L 221.308594 196.589844 C 218.964844 204.945312 213.597656 212.085938 206.207031 216.707031 Z M 206.207031 216.707031 " fill-opacity="1" fill-rule="nonzero"/><path fill="#003378" d="M 187.769531 221.980469 C 182.902344 221.980469 178.195312 221 173.769531 219.058594 L 173.921875 218.710938 C 178.289062 220.632812 182.949219 221.609375 187.769531 221.609375 C 192.328125 221.609375 196.753906 220.730469 200.929688 219.007812 L 201.074219 219.355469 C 196.851562 221.097656 192.375 221.980469 187.769531 221.980469 Z M 187.769531 221.980469 " fill-opacity="1" fill-rule="nonzero"/><path fill="#003378" d="M 153.398438 184.566406 L 153.023438 184.539062 C 153.140625 182.976562 153.363281 181.414062 153.6875 179.882812 L 154.054688 179.960938 C 153.730469 181.46875 153.507812 183.015625 153.398438 184.566406 Z M 153.398438 184.566406 " fill-opacity="1" fill-rule="nonzero"/><path fill="#003378" d="M 155.644531 174.621094 L 155.292969 174.484375 C 160.105469 162.132812 171.734375 153.46875 184.929688 152.40625 L 184.957031 152.777344 C 171.914062 153.835938 160.410156 162.410156 155.644531 174.621094 Z M 155.644531 174.621094 " fill-opacity="1" fill-rule="nonzero"/><path fill="#003378" d="M 223.0625 171.488281 C 218.914062 162.148438 211.066406 154.699219 201.523438 151.0625 L 201.675781 150.667969 C 211.324219 154.347656 219.253906 161.878906 223.449219 171.316406 Z M 223.0625 171.488281 " fill-opacity="1" fill-rule="nonzero"/><path fill="#003378" d="M 214.515625 215.542969 L 214.226562 215.238281 C 222.054688 207.867188 226.363281 197.882812 226.363281 187.136719 C 226.363281 186.441406 226.339844 185.734375 226.308594 185.035156 L 226.730469 185.015625 C 226.761719 185.71875 226.785156 186.433594 226.785156 187.136719 C 226.789062 198 222.433594 208.089844 214.515625 215.542969 Z M 214.515625 215.542969 " fill-opacity="1" fill-rule="nonzero"/><path fill="#003378" d="M 187.769531 226.15625 C 183.097656 226.15625 178.519531 225.34375 174.175781 223.722656 L 174.320312 223.328125 C 178.617188 224.925781 183.136719 225.738281 187.765625 225.738281 C 190.667969 225.738281 193.558594 225.410156 196.367188 224.773438 L 196.460938 225.183594 C 193.628906 225.832031 190.703125 226.15625 187.769531 226.15625 Z M 187.769531 226.15625 " fill-opacity="1" fill-rule="nonzero"/><path fill="#003378" d="M 160.171875 214.726562 C 152.800781 207.355469 148.742188 197.558594 148.742188 187.136719 L 149.164062 187.136719 C 149.164062 197.449219 153.183594 207.140625 160.472656 214.429688 Z M 160.171875 214.726562 " fill-opacity="1" fill-rule="nonzero"/><path fill="#003378" d="M 156.820312 164.0625 L 156.480469 163.8125 C 162.738281 155.425781 172.253906 149.832031 182.570312 148.457031 L 182.625 148.871094 C 172.417969 150.234375 163.007812 155.773438 156.820312 164.0625 Z M 156.820312 164.0625 " fill-opacity="1" fill-rule="nonzero"/><path fill="#003378" d="M 187.769531 232.597656 C 162.703125 232.597656 142.304688 212.203125 142.304688 187.132812 C 142.304688 162.058594 162.699219 141.667969 187.769531 141.667969 C 212.84375 141.667969 233.234375 162.058594 233.234375 187.132812 C 233.234375 212.203125 212.835938 232.597656 187.769531 232.597656 Z M 187.769531 142.164062 C 162.972656 142.164062 142.796875 162.339844 142.796875 187.136719 C 142.796875 211.933594 162.972656 232.113281 187.769531 232.113281 C 212.566406 232.113281 232.746094 211.933594 232.746094 187.136719 C 232.746094 162.339844 212.566406 142.164062 187.769531 142.164062 Z M 187.769531 142.164062 " fill-opacity="1" fill-rule="nonzero"/><path fill="#003378" d="M 152.132812 148.414062 L 151.746094 147.992188 C 161.585938 138.929688 174.382812 133.933594 187.769531 133.933594 C 196.765625 133.933594 205.660156 136.222656 213.488281 140.554688 L 213.210938 141.058594 C 205.472656 136.777344 196.675781 134.507812 187.769531 134.507812 C 174.523438 134.507812 161.867188 139.453125 152.132812 148.414062 Z M 152.132812 148.414062 " fill-opacity="1" fill-rule="nonzero"/><path fill="#003378" d="M 205.636719 237.257812 L 205.445312 236.71875 C 226.347656 229.261719 240.390625 209.339844 240.390625 187.136719 C 240.390625 181.800781 239.597656 176.539062 238.027344 171.488281 L 238.574219 171.316406 C 240.164062 176.421875 240.964844 181.746094 240.964844 187.136719 C 240.964844 209.582031 226.769531 229.726562 205.636719 237.257812 Z M 205.636719 237.257812 " fill-opacity="1" fill-rule="nonzero"/><path fill="#003378" d="M 155.941406 229.769531 C 142.359375 219.609375 134.574219 204.074219 134.574219 187.136719 C 134.574219 182.394531 135.199219 177.691406 136.429688 173.15625 L 136.980469 173.308594 C 135.765625 177.796875 135.148438 182.449219 135.148438 187.136719 C 135.148438 203.890625 142.851562 219.265625 156.289062 229.3125 Z M 155.941406 229.769531 " fill-opacity="1" fill-rule="nonzero"/><path fill="#003378" d="M 241.878906 164.5 C 235.980469 150.421875 224.53125 138.957031 210.453125 133.042969 L 210.699219 132.457031 C 224.929688 138.429688 236.507812 150.019531 242.472656 164.257812 Z M 241.878906 164.5 " fill-opacity="1" fill-rule="nonzero"/><path fill="#003378" d="M 187.769531 246.417969 C 155.085938 246.417969 128.488281 219.824219 128.488281 187.136719 C 128.488281 185.824219 128.53125 184.496094 128.621094 183.195312 L 129.257812 183.238281 C 129.175781 184.53125 129.132812 185.839844 129.132812 187.136719 C 129.132812 219.472656 155.4375 245.777344 187.769531 245.777344 C 194.773438 245.777344 201.628906 244.550781 208.140625 242.136719 L 208.363281 242.738281 C 201.78125 245.179688 194.851562 246.417969 187.769531 246.417969 Z M 187.769531 246.417969 " fill-opacity="1" fill-rule="nonzero"/><path fill="#003378" d="M 132.929688 166.324219 L 132.335938 166.097656 C 134.914062 159.304688 138.683594 153.101562 143.550781 147.660156 L 144.027344 148.089844 C 139.207031 153.46875 135.480469 159.609375 132.929688 166.324219 Z M 132.929688 166.324219 " fill-opacity="1" fill-rule="nonzero"/><path fill="#003378" d="M 226.070312 214.652344 L 222.925781 212.390625 C 228.234375 205 231.042969 196.265625 231.042969 187.136719 C 231.042969 173.164062 224.230469 159.96875 212.828125 151.851562 L 215.078125 148.691406 C 227.496094 157.535156 234.914062 171.90625 234.914062 187.132812 C 234.921875 197.089844 231.859375 206.597656 226.070312 214.652344 Z M 226.070312 214.652344 " fill-opacity="1" fill-rule="nonzero"/><path fill="#003378" d="M 187.769531 234.289062 C 185.972656 234.289062 184.160156 234.1875 182.378906 233.984375 C 165.226562 232.035156 150.542969 220.863281 144.046875 204.832031 L 147.644531 203.375 C 153.605469 218.089844 167.082031 228.34375 182.820312 230.132812 C 184.453125 230.320312 186.117188 230.410156 187.769531 230.410156 Z M 187.769531 234.289062 " fill-opacity="1" fill-rule="nonzero"/><path fill="#003378" d="M 144.492188 187.136719 L 140.613281 187.136719 C 140.613281 167.914062 152.105469 150.78125 169.890625 143.492188 L 171.363281 147.082031 C 155.035156 153.765625 144.492188 169.5 144.492188 187.136719 Z M 144.492188 187.136719 " fill-opacity="1" fill-rule="nonzero"/><path fill="#00265b" d="M 184.671875 193.996094 L 174.472656 193.996094 L 172.632812 199.09375 L 166.570312 199.09375 L 176.769531 172.789062 L 182.867188 172.789062 L 193.066406 199.09375 L 186.511719 199.09375 Z M 182.867188 188.894531 L 179.578125 179.730469 L 176.285156 188.894531 Z M 182.867188 188.894531 " fill-opacity="1" fill-rule="nonzero"/><path fill="#00265b" d="M 195.707031 172.789062 L 201.578125 172.789062 L 201.578125 199.09375 L 195.707031 199.09375 Z M 195.707031 172.789062 " fill-opacity="1" fill-rule="nonzero"/><g clip-path="url(#141f8fab49)"><path fill="#003378" d="M 187.425781 272.417969 C 140.554688 272.417969 102.429688 234.289062 102.429688 187.429688 C 102.429688 140.558594 140.554688 102.429688 187.425781 102.429688 C 234.292969 102.429688 272.421875 140.558594 272.421875 187.429688 C 272.414062 234.289062 234.285156 272.417969 187.425781 272.417969 Z M 187.425781 106.675781 C 142.902344 106.675781 106.671875 142.902344 106.671875 187.429688 C 106.671875 231.953125 142.902344 268.179688 187.425781 268.179688 C 231.949219 268.179688 268.175781 231.953125 268.175781 187.429688 C 268.167969 142.902344 231.949219 106.675781 187.425781 106.675781 Z M 187.425781 106.675781 " fill-opacity="1" fill-rule="nonzero"/></g><path fill="#003378" d="M 187.425781 263.796875 C 187.003906 263.796875 186.582031 263.789062 186.167969 263.789062 L 186.230469 260.027344 C 187.042969 260.039062 187.867188 260.039062 188.683594 260.027344 L 188.746094 263.789062 C 188.304688 263.796875 187.867188 263.796875 187.425781 263.796875 Z M 183.585938 263.707031 C 182.730469 263.664062 181.867188 263.609375 181.015625 263.53125 L 181.324219 259.785156 C 182.136719 259.855469 182.957031 259.910156 183.773438 259.945312 Z M 191.316406 263.699219 L 191.132812 259.945312 C 191.941406 259.902344 192.761719 259.847656 193.578125 259.777344 L 193.890625 263.527344 C 193.039062 263.601562 192.175781 263.65625 191.316406 263.699219 Z M 178.449219 263.277344 C 177.597656 263.179688 176.742188 263.0625 175.890625 262.929688 L 176.457031 259.210938 C 177.265625 259.335938 178.082031 259.4375 178.886719 259.535156 Z M 196.457031 263.269531 L 196.011719 259.535156 C 196.820312 259.4375 197.636719 259.328125 198.441406 259.210938 L 199.007812 262.929688 C 198.171875 263.046875 197.3125 263.167969 196.457031 263.269531 Z M 173.347656 262.503906 C 172.503906 262.34375 171.652344 262.171875 170.824219 261.992188 L 171.636719 258.320312 C 172.433594 258.492188 173.234375 258.65625 174.039062 258.808594 Z M 201.558594 262.488281 L 200.867188 258.789062 C 201.664062 258.636719 202.472656 258.472656 203.265625 258.296875 L 204.082031 261.96875 C 203.246094 262.164062 202.394531 262.335938 201.558594 262.488281 Z M 168.3125 261.390625 C 167.488281 261.175781 166.652344 260.945312 165.828125 260.703125 L 166.886719 257.09375 C 167.675781 257.324219 168.472656 257.542969 169.253906 257.746094 Z M 206.59375 261.367188 L 205.652344 257.722656 C 206.433594 257.523438 207.230469 257.300781 208.015625 257.066406 L 209.082031 260.675781 C 208.253906 260.925781 207.414062 261.160156 206.59375 261.367188 Z M 163.363281 259.929688 C 162.550781 259.660156 161.730469 259.375 160.921875 259.074219 L 162.226562 255.546875 C 163 255.828125 163.777344 256.105469 164.550781 256.363281 Z M 211.535156 259.910156 L 210.347656 256.339844 C 211.121094 256.085938 211.894531 255.808594 212.65625 255.523438 L 213.964844 259.050781 C 213.167969 259.347656 212.351562 259.640625 211.535156 259.910156 Z M 158.515625 258.132812 C 157.726562 257.808594 156.921875 257.46875 156.136719 257.109375 L 157.675781 253.679688 C 158.425781 254.019531 159.183594 254.34375 159.9375 254.648438 Z M 216.378906 258.117188 L 214.953125 254.632812 C 215.699219 254.328125 216.453125 254.003906 217.199219 253.664062 L 218.742188 257.09375 C 217.953125 257.453125 217.160156 257.792969 216.378906 258.117188 Z M 153.796875 256.015625 C 153.023438 255.636719 152.25 255.242188 151.496094 254.839844 L 153.265625 251.523438 C 153.984375 251.902344 154.71875 252.28125 155.449219 252.640625 Z M 221.066406 256.003906 L 219.40625 252.628906 C 220.132812 252.269531 220.863281 251.894531 221.585938 251.515625 L 223.355469 254.832031 C 222.601562 255.234375 221.832031 255.628906 221.066406 256.003906 Z M 225.609375 253.582031 L 223.71875 250.324219 C 224.425781 249.917969 225.132812 249.496094 225.816406 249.066406 L 227.808594 252.261719 C 227.09375 252.703125 226.347656 253.152344 225.609375 253.582031 Z M 149.234375 253.582031 C 148.488281 253.152344 147.742188 252.703125 147.023438 252.253906 L 149.011719 249.058594 C 149.699219 249.488281 150.410156 249.917969 151.117188 250.324219 Z M 229.980469 250.851562 L 227.875 247.726562 C 228.554688 247.269531 229.230469 246.800781 229.890625 246.328125 L 232.09375 249.378906 C 231.394531 249.882812 230.683594 250.375 229.980469 250.851562 Z M 144.855469 250.84375 C 144.152344 250.367188 143.441406 249.875 142.742188 249.371094 L 144.941406 246.320312 C 145.605469 246.800781 146.28125 247.277344 146.953125 247.726562 Z M 234.15625 247.835938 L 231.851562 244.863281 C 232.488281 244.371094 233.132812 243.851562 233.761719 243.328125 L 236.167969 246.226562 C 235.496094 246.777344 234.824219 247.316406 234.15625 247.835938 Z M 140.675781 247.820312 C 140.003906 247.296875 139.324219 246.757812 138.660156 246.203125 L 141.066406 243.308594 C 141.699219 243.832031 142.339844 244.34375 142.984375 244.84375 Z M 238.117188 244.542969 L 235.621094 241.730469 C 236.230469 241.191406 236.839844 240.628906 237.425781 240.070312 L 240.019531 242.800781 C 239.398438 243.390625 238.761719 243.976562 238.117188 244.542969 Z M 136.703125 244.523438 C 136.0625 243.957031 135.425781 243.367188 134.804688 242.78125 L 137.394531 240.058594 C 137.984375 240.617188 138.59375 241.175781 139.199219 241.714844 Z M 241.859375 240.996094 L 239.175781 238.355469 C 239.742188 237.78125 240.308594 237.1875 240.871094 236.578125 L 243.636719 239.128906 C 243.046875 239.757812 242.453125 240.390625 241.859375 240.996094 Z M 132.964844 240.96875 C 132.355469 240.355469 131.761719 239.726562 131.1875 239.101562 L 133.960938 236.558594 C 134.507812 237.152344 135.074219 237.746094 135.648438 238.335938 Z M 245.351562 237.199219 L 242.496094 234.746094 C 243.027344 234.125 243.550781 233.496094 244.0625 232.859375 L 246.996094 235.214844 C 246.464844 235.878906 245.910156 236.550781 245.351562 237.199219 Z M 129.480469 237.179688 C 128.917969 236.523438 128.367188 235.859375 127.832031 235.195312 L 130.765625 232.835938 C 131.269531 233.46875 131.796875 234.101562 132.328125 234.726562 Z M 248.578125 233.175781 L 245.570312 230.921875 C 246.054688 230.273438 246.539062 229.601562 247.007812 228.929688 L 250.09375 231.082031 C 249.601562 231.785156 249.089844 232.492188 248.578125 233.175781 Z M 126.25 233.15625 C 125.738281 232.472656 125.234375 231.773438 124.742188 231.066406 L 127.828125 228.917969 C 128.296875 229.589844 128.773438 230.25 129.265625 230.902344 Z M 251.53125 228.945312 L 248.371094 226.898438 C 248.816406 226.214844 249.25 225.515625 249.671875 224.816406 L 252.894531 226.757812 C 252.457031 227.484375 252.003906 228.226562 251.53125 228.945312 Z M 123.304688 228.929688 C 122.832031 228.210938 122.378906 227.472656 121.941406 226.746094 L 125.164062 224.808594 C 125.578125 225.5 126.015625 226.199219 126.464844 226.882812 Z M 120.648438 224.519531 C 120.226562 223.765625 119.820312 223.003906 119.429688 222.25 L 122.777344 220.535156 C 123.144531 221.253906 123.53125 221.980469 123.933594 222.695312 Z M 254.199219 224.519531 L 250.910156 222.6875 C 251.304688 221.976562 251.699219 221.25 252.070312 220.523438 L 255.417969 222.238281 C 255.023438 223.003906 254.617188 223.765625 254.199219 224.519531 Z M 118.296875 219.941406 C 117.9375 219.179688 117.578125 218.386719 117.238281 217.597656 L 120.695312 216.109375 C 121.023438 216.863281 121.359375 217.613281 121.699219 218.335938 Z M 256.558594 219.921875 L 253.15625 218.316406 C 253.503906 217.578125 253.839844 216.824219 254.167969 216.078125 L 257.625 217.5625 C 257.277344 218.34375 256.925781 219.140625 256.558594 219.921875 Z M 116.265625 215.21875 C 115.945312 214.417969 115.648438 213.601562 115.367188 212.796875 L 118.914062 211.554688 C 119.183594 212.316406 119.464844 213.089844 119.761719 213.851562 Z M 258.597656 215.171875 L 255.09375 213.800781 C 255.390625 213.039062 255.675781 212.265625 255.945312 211.5 L 259.496094 212.742188 C 259.214844 213.550781 258.910156 214.367188 258.597656 215.171875 Z M 114.550781 210.351562 C 114.292969 209.535156 114.046875 208.707031 113.816406 207.875 L 117.441406 206.871094 C 117.65625 207.652344 117.890625 208.449219 118.136719 209.222656 Z M 260.3125 210.289062 L 256.726562 209.167969 C 256.96875 208.386719 257.203125 207.59375 257.417969 206.816406 L 261.046875 207.820312 C 260.820312 208.628906 260.570312 209.464844 260.3125 210.289062 Z M 113.171875 205.378906 C 112.972656 204.542969 112.78125 203.691406 112.613281 202.863281 L 116.300781 202.109375 C 116.457031 202.898438 116.636719 203.707031 116.832031 204.5 Z M 261.691406 205.316406 L 258.03125 204.4375 C 258.21875 203.652344 258.398438 202.847656 258.5625 202.046875 L 262.25 202.800781 C 262.078125 203.636719 261.882812 204.488281 261.691406 205.316406 Z M 112.136719 200.332031 C 111.992188 199.480469 111.859375 198.625 111.75 197.78125 L 115.476562 197.273438 C 115.585938 198.078125 115.710938 198.886719 115.851562 199.695312 Z M 262.71875 200.261719 L 259.007812 199.632812 C 259.144531 198.832031 259.269531 198.015625 259.375 197.210938 L 263.101562 197.71875 C 262.996094 198.554688 262.867188 199.417969 262.71875 200.261719 Z M 111.445312 195.214844 C 111.363281 194.363281 111.285156 193.5 111.230469 192.648438 L 114.984375 192.394531 C 115.039062 193.203125 115.109375 194.023438 115.191406 194.835938 Z M 263.410156 195.144531 L 259.664062 194.765625 C 259.746094 193.957031 259.816406 193.140625 259.871094 192.324219 L 263.625 192.574219 C 263.5625 193.4375 263.496094 194.300781 263.410156 195.144531 Z M 111.097656 190.070312 C 111.070312 189.210938 111.058594 188.347656 111.050781 187.492188 L 114.8125 187.484375 C 114.8125 188.300781 114.828125 189.121094 114.855469 189.9375 Z M 263.75 190.007812 L 259.988281 189.882812 C 260.015625 189.074219 260.03125 188.25 260.03125 187.429688 L 260.03125 187.296875 L 263.792969 187.296875 L 263.792969 187.429688 C 263.792969 188.285156 263.777344 189.148438 263.75 190.007812 Z M 114.855469 185.035156 L 111.09375 184.917969 C 111.121094 184.054688 111.160156 183.191406 111.21875 182.339844 L 114.972656 182.589844 C 114.917969 183.398438 114.882812 184.21875 114.855469 185.035156 Z M 259.988281 184.84375 C 259.960938 184.019531 259.917969 183.195312 259.863281 182.394531 L 263.617188 182.136719 C 263.675781 182.980469 263.722656 183.851562 263.75 184.710938 Z M 115.171875 180.148438 L 111.425781 179.773438 C 111.507812 178.929688 111.609375 178.066406 111.722656 177.214844 L 115.449219 177.714844 C 115.351562 178.523438 115.253906 179.339844 115.171875 180.148438 Z M 259.648438 179.945312 C 259.566406 179.144531 259.46875 178.320312 259.359375 177.511719 L 263.085938 177 C 263.203125 177.851562 263.308594 178.714844 263.390625 179.558594 Z M 115.820312 175.285156 L 112.109375 174.664062 C 112.253906 173.820312 112.414062 172.960938 112.578125 172.125 L 116.265625 172.871094 C 116.113281 173.667969 115.960938 174.476562 115.820312 175.285156 Z M 258.984375 175.09375 C 258.847656 174.289062 258.695312 173.472656 258.53125 172.679688 L 262.214844 171.917969 C 262.386719 172.753906 262.546875 173.605469 262.691406 174.449219 Z M 116.804688 170.480469 L 113.144531 169.609375 C 113.347656 168.777344 113.5625 167.933594 113.789062 167.113281 L 117.417969 168.109375 C 117.199219 168.890625 116.992188 169.691406 116.804688 170.480469 Z M 257.996094 170.285156 C 257.804688 169.5 257.597656 168.695312 257.382812 167.914062 L 261.003906 166.90625 C 261.234375 167.726562 261.453125 168.570312 261.65625 169.402344 Z M 118.105469 165.75 L 114.507812 164.628906 C 114.765625 163.820312 115.035156 162.992188 115.324219 162.175781 L 118.878906 163.421875 C 118.601562 164.195312 118.347656 164.984375 118.105469 165.75 Z M 256.683594 165.5625 C 256.433594 164.78125 256.171875 164 255.910156 163.242188 L 259.457031 161.988281 C 259.738281 162.789062 260.015625 163.613281 260.273438 164.4375 Z M 119.730469 161.109375 L 116.222656 159.75 C 116.535156 158.953125 116.859375 158.152344 117.199219 157.355469 L 120.65625 158.835938 C 120.335938 159.589844 120.019531 160.355469 119.730469 161.109375 Z M 255.050781 160.945312 C 254.753906 160.191406 254.441406 159.429688 254.125 158.683594 L 257.582031 157.191406 C 257.921875 157.976562 258.253906 158.773438 258.5625 159.570312 Z M 121.664062 156.59375 L 118.257812 154.996094 C 118.621094 154.222656 119.003906 153.441406 119.398438 152.675781 L 122.75 154.390625 C 122.378906 155.117188 122.011719 155.855469 121.664062 156.59375 Z M 253.117188 156.457031 C 252.769531 155.722656 252.402344 154.984375 252.035156 154.265625 L 255.382812 152.542969 C 255.769531 153.304688 256.15625 154.078125 256.523438 154.851562 Z M 123.90625 152.226562 L 120.613281 150.394531 C 121.027344 149.644531 121.464844 148.890625 121.90625 148.160156 L 125.136719 150.09375 C 124.707031 150.800781 124.300781 151.511719 123.90625 152.226562 Z M 250.875 152.109375 C 250.480469 151.394531 250.066406 150.683594 249.644531 149.992188 L 252.867188 148.046875 C 253.308594 148.78125 253.738281 149.527344 254.160156 150.273438 Z M 126.429688 148.015625 L 123.269531 145.96875 C 123.734375 145.246094 124.214844 144.527344 124.707031 143.824219 L 127.796875 145.972656 C 127.335938 146.644531 126.871094 147.328125 126.429688 148.015625 Z M 248.351562 147.910156 C 247.910156 147.226562 247.445312 146.542969 246.980469 145.878906 L 250.066406 143.71875 C 250.558594 144.417969 251.042969 145.136719 251.503906 145.855469 Z M 129.238281 143.984375 L 126.222656 141.726562 C 126.742188 141.035156 127.273438 140.351562 127.804688 139.6875 L 130.746094 142.039062 C 130.234375 142.675781 129.726562 143.324219 129.238281 143.984375 Z M 245.542969 143.898438 C 245.054688 143.25 244.546875 142.601562 244.042969 141.964844 L 246.976562 139.605469 C 247.515625 140.269531 248.039062 140.953125 248.558594 141.636719 Z M 132.308594 140.160156 L 129.449219 137.703125 C 130.011719 137.054688 130.585938 136.402344 131.167969 135.773438 L 133.9375 138.320312 C 133.386719 138.921875 132.839844 139.535156 132.308594 140.160156 Z M 242.472656 140.074219 C 241.941406 139.460938 241.394531 138.84375 240.839844 138.242188 L 243.609375 135.691406 C 244.1875 136.320312 244.761719 136.972656 245.324219 137.613281 Z M 135.625 136.542969 L 132.941406 133.90625 C 133.542969 133.300781 134.160156 132.691406 134.78125 132.097656 L 137.375 134.820312 C 136.78125 135.386719 136.191406 135.960938 135.625 136.542969 Z M 239.148438 136.472656 C 238.582031 135.890625 237.992188 135.320312 237.398438 134.757812 L 239.992188 132.027344 C 240.613281 132.613281 241.234375 133.222656 241.832031 133.832031 Z M 139.171875 133.160156 L 136.671875 130.347656 C 137.304688 129.78125 137.964844 129.21875 138.621094 128.667969 L 141.027344 131.558594 C 140.402344 132.089844 139.78125 132.628906 139.171875 133.160156 Z M 235.59375 133.09375 C 234.992188 132.550781 234.363281 132.019531 233.734375 131.496094 L 236.132812 128.597656 C 236.796875 129.148438 237.453125 129.710938 238.089844 130.277344 Z M 142.949219 130.027344 L 140.640625 127.054688 C 141.316406 126.53125 142.007812 126.011719 142.699219 125.511719 L 144.90625 128.5625 C 144.25 129.039062 143.585938 129.53125 142.949219 130.027344 Z M 231.8125 129.964844 C 231.167969 129.46875 230.511719 128.976562 229.847656 128.5 L 232.046875 125.449219 C 232.746094 125.957031 233.441406 126.472656 234.113281 126.992188 Z M 146.910156 127.160156 L 144.816406 124.035156 C 145.527344 123.554688 146.253906 123.078125 146.972656 122.628906 L 148.972656 125.816406 C 148.28125 126.253906 147.589844 126.703125 146.910156 127.160156 Z M 227.835938 127.089844 C 227.164062 126.640625 226.464844 126.191406 225.773438 125.753906 L 227.765625 122.5625 C 228.5 123.015625 229.226562 123.488281 229.9375 123.964844 Z M 151.066406 124.558594 L 149.179688 121.300781 C 149.917969 120.875 150.671875 120.453125 151.425781 120.050781 L 153.203125 123.371094 C 152.484375 123.757812 151.765625 124.152344 151.066406 124.558594 Z M 223.664062 124.496094 C 222.96875 124.089844 222.242188 123.695312 221.523438 123.308594 L 223.292969 119.988281 C 224.050781 120.394531 224.8125 120.816406 225.554688 121.238281 Z M 155.382812 122.25 L 153.722656 118.875 C 154.484375 118.5 155.269531 118.128906 156.046875 117.777344 L 157.59375 121.207031 C 156.847656 121.542969 156.109375 121.898438 155.382812 122.25 Z M 219.328125 122.1875 C 218.597656 121.828125 217.851562 121.476562 217.101562 121.144531 L 218.644531 117.707031 C 219.425781 118.058594 220.214844 118.425781 220.984375 118.804688 Z M 159.835938 120.242188 L 158.402344 116.765625 C 159.199219 116.441406 160.007812 116.121094 160.804688 115.824219 L 162.117188 119.351562 C 161.355469 119.628906 160.589844 119.933594 159.835938 120.242188 Z M 214.847656 120.175781 C 214.089844 119.863281 213.3125 119.566406 212.554688 119.28125 L 213.859375 115.75 C 214.65625 116.046875 215.472656 116.359375 216.273438 116.683594 Z M 164.433594 118.527344 L 163.242188 114.960938 C 164.054688 114.691406 164.882812 114.429688 165.707031 114.1875 L 166.777344 117.796875 C 165.988281 118.03125 165.199219 118.273438 164.433594 118.527344 Z M 210.238281 118.472656 C 209.457031 118.21875 208.675781 117.96875 207.898438 117.742188 L 208.957031 114.132812 C 209.773438 114.375 210.601562 114.628906 211.417969 114.898438 Z M 169.136719 117.140625 L 168.1875 113.496094 C 169.019531 113.28125 169.859375 113.074219 170.699219 112.886719 L 171.515625 116.558594 C 170.71875 116.746094 169.921875 116.9375 169.136719 117.140625 Z M 205.527344 117.089844 C 204.734375 116.882812 203.929688 116.695312 203.140625 116.523438 L 203.953125 112.84375 C 204.773438 113.023438 205.617188 113.226562 206.460938 113.445312 Z M 173.914062 116.074219 L 173.214844 112.375 C 174.050781 112.214844 174.910156 112.070312 175.757812 111.9375 L 176.328125 115.660156 C 175.523438 115.785156 174.714844 115.921875 173.914062 116.074219 Z M 200.742188 116.03125 C 199.941406 115.878906 199.125 115.75 198.324219 115.625 L 198.882812 111.90625 C 199.726562 112.03125 200.578125 112.175781 201.425781 112.332031 Z M 178.761719 115.328125 L 178.316406 111.59375 C 179.175781 111.488281 180.039062 111.40625 180.882812 111.332031 L 181.203125 115.078125 C 180.398438 115.148438 179.578125 115.230469 178.761719 115.328125 Z M 195.894531 115.308594 C 195.085938 115.210938 194.261719 115.132812 193.453125 115.066406 L 193.765625 111.316406 C 194.617188 111.386719 195.480469 111.476562 196.332031 111.574219 Z M 183.648438 114.914062 L 183.457031 111.15625 C 184.300781 111.117188 185.171875 111.082031 186.035156 111.066406 L 186.105469 114.828125 C 185.28125 114.84375 184.453125 114.871094 183.648438 114.914062 Z M 191.007812 114.90625 C 190.191406 114.863281 189.367188 114.835938 188.550781 114.828125 L 188.605469 111.066406 C 189.457031 111.082031 190.328125 111.109375 191.1875 111.152344 Z M 191.007812 114.90625 " fill-opacity="1" fill-rule="nonzero"/></svg>