<svg xmlns="http://www.w3.org/2000/svg" xmlns:xlink="http://www.w3.org/1999/xlink" width="1080" zoomAndPan="magnify" viewBox="0 0 810 809.999993" height="1080" preserveAspectRatio="xMidYMid meet" version="1.2"><defs><clipPath id="4b7fdb5f98"><path d="M 0 128.863281 L 810 128.863281 L 810 680.863281 L 0 680.863281 Z M 0 128.863281 "/></clipPath></defs><g id="e4666c1609"><g clip-rule="nonzero" clip-path="url(#4b7fdb5f98)"><path style=" stroke:none;fill-rule:nonzero;fill:#54b5b3;fill-opacity:1;" d="M 623.964844 607.855469 L 623.964844 337.039062 L 615.378906 334.125 L 615.378906 605.753906 C 609.550781 604.296875 603.71875 603 597.726562 601.707031 L 597.726562 327.972656 L 589.144531 325.058594 L 589.144531 599.925781 C 583.3125 598.628906 577.484375 597.496094 571.492188 596.363281 L 571.492188 318.90625 L 562.90625 315.992188 L 562.90625 594.90625 C 555.457031 593.613281 548.007812 592.316406 540.558594 591.183594 L 540.558594 255.9375 L 477.070312 300.777344 L 477.070312 583.898438 C 468 583.25 458.769531 582.605469 449.539062 582.117188 L 449.539062 226.960938 L 440.953125 224.046875 L 440.953125 581.796875 C 435.125 581.632812 429.292969 581.472656 423.300781 581.308594 L 423.300781 218.058594 L 414.71875 215.144531 L 414.71875 581.308594 C 411.316406 581.308594 407.914062 581.308594 404.515625 581.308594 C 389.9375 581.308594 375.523438 581.632812 361.109375 582.28125 L 361.109375 128.863281 L 283.855469 187.464844 L 283.855469 331.210938 L 316.894531 345.777344 L 315.277344 585.355469 C 310.257812 585.84375 305.074219 586.328125 300.050781 586.976562 L 300.050781 397.09375 L 291.46875 393.695312 L 291.46875 587.945312 C 285.636719 588.753906 279.644531 589.402344 273.816406 590.375 L 273.816406 386.734375 L 265.230469 383.335938 L 265.230469 591.667969 C 259.402344 592.640625 253.410156 593.613281 247.578125 594.582031 L 247.578125 376.210938 L 238.996094 372.8125 L 238.996094 596.039062 C 232.191406 597.335938 225.390625 598.628906 218.75 600.085938 L 218.75 308.707031 L 151.699219 355.976562 L 151.699219 617.085938 C 97.609375 633.433594 46.269531 654.964844 0.109375 680.863281 C 119.472656 641.851562 257.621094 619.511719 405 619.511719 C 552.378906 619.511719 690.527344 641.851562 809.890625 680.863281 C 754.5 649.785156 691.824219 624.855469 623.964844 607.855469 Z M 623.964844 607.855469 "/></g><path style=" stroke:none;fill-rule:nonzero;fill:#54b5b3;fill-opacity:1;" d="M 397.550781 208.992188 L 389.128906 206.078125 L 389.128906 581.148438 L 397.550781 581.148438 Z M 397.550781 208.992188 "/></g></svg>