<svg xmlns="http://www.w3.org/2000/svg" xmlns:xlink="http://www.w3.org/1999/xlink" width="1080" zoomAndPan="magnify" viewBox="0 0 810 809.999993" height="1080" preserveAspectRatio="xMidYMid meet" version="1.2"><defs><clipPath id="ccc25ce8d3"><path d="M 0 46.070312 L 810 46.070312 L 810 763.820312 L 0 763.820312 Z M 0 46.070312 "/></clipPath></defs><g id="04847f7dff"><g clip-rule="nonzero" clip-path="url(#ccc25ce8d3)"><path style=" stroke:none;fill-rule:nonzero;fill:#000000;fill-opacity:1;" d="M 145.390625 103.074219 C 145.390625 109.191406 140.429688 114.152344 134.3125 114.152344 L 133.820312 114.152344 C 127.699219 114.152344 122.742188 109.191406 122.742188 103.074219 C 122.742188 96.960938 127.703125 92 133.820312 92 L 134.3125 92 C 140.429688 92 145.390625 96.960938 145.390625 103.074219 Z M 602.992188 92 L 299.746094 92 C 293.628906 92 288.671875 96.960938 288.671875 103.074219 C 288.671875 109.191406 293.628906 114.152344 299.746094 114.152344 L 602.992188 114.152344 C 609.113281 114.152344 614.070312 109.191406 614.070312 103.074219 C 614.070312 96.960938 609.109375 92 602.992188 92 Z M 168.84375 92 L 168.351562 92 C 162.230469 92 157.273438 96.960938 157.273438 103.074219 C 157.273438 109.191406 162.234375 114.152344 168.351562 114.152344 L 168.84375 114.152344 C 174.960938 114.152344 179.917969 109.191406 179.917969 103.074219 C 179.917969 96.960938 174.960938 92 168.84375 92 Z M 203.375 92 L 202.878906 92 C 196.761719 92 191.804688 96.960938 191.804688 103.074219 C 191.804688 109.191406 196.761719 114.152344 202.878906 114.152344 L 203.375 114.152344 C 209.492188 114.152344 214.449219 109.191406 214.449219 103.074219 C 214.449219 96.960938 209.492188 92 203.375 92 Z M 810 540.078125 C 810 634.648438 733.03125 711.585938 638.417969 711.585938 C 591.1875 711.585938 548.351562 692.398438 517.300781 661.410156 L 467.15625 661.410156 L 467.15625 741.449219 L 526.84375 741.449219 C 532.960938 741.449219 537.921875 746.40625 537.921875 752.523438 C 537.921875 758.640625 532.960938 763.597656 526.84375 763.597656 L 210.007812 763.597656 C 203.890625 763.597656 198.933594 758.640625 198.933594 752.523438 C 198.933594 746.40625 203.890625 741.449219 210.007812 741.449219 L 269.652344 741.449219 L 269.652344 661.410156 L 11.078125 661.410156 C 4.957031 661.410156 0 656.453125 0 650.335938 L 0 184.773438 C 0 178.65625 4.960938 173.699219 11.078125 173.699219 L 58.34375 173.699219 L 58.34375 57.207031 C 58.34375 51.089844 63.304688 46.132812 69.421875 46.132812 L 667.433594 46.132812 C 673.550781 46.132812 678.511719 51.089844 678.511719 57.207031 L 678.511719 173.699219 L 725.777344 173.699219 C 731.894531 173.699219 736.855469 178.65625 736.855469 184.773438 L 736.855469 399.644531 C 781.054688 430.710938 810 482.074219 810 540.078125 Z M 678.511719 195.847656 L 678.511719 373.261719 C 691.175781 376.304688 703.296875 380.757812 714.703125 386.441406 L 714.703125 195.847656 Z M 638.417969 368.523438 C 644.476562 368.523438 650.460938 368.84375 656.355469 369.457031 L 656.355469 160.019531 L 80.5 160.019531 L 80.5 513.710938 L 468.910156 513.710938 C 481.628906 431.585938 552.800781 368.523438 638.417969 368.523438 Z M 80.5 137.871094 L 656.355469 137.871094 L 656.355469 68.28125 L 80.5 68.28125 Z M 22.15625 195.847656 L 22.15625 581.507812 L 471.957031 581.507812 C 468.652344 568.234375 466.886719 554.359375 466.886719 540.074219 C 466.886719 538.664062 466.902344 537.261719 466.9375 535.859375 L 69.421875 535.859375 C 63.304688 535.859375 58.34375 530.902344 58.34375 524.785156 L 58.34375 195.847656 Z M 22.15625 639.257812 L 498.550781 639.257812 C 490.738281 628.277344 484.191406 616.335938 479.113281 603.65625 L 22.15625 603.65625 Z M 445 661.410156 L 291.8125 661.410156 L 291.8125 741.445312 L 445 741.445312 Z M 787.84375 540.078125 C 787.84375 457.695312 720.8125 390.671875 638.417969 390.671875 C 556.050781 390.671875 489.039062 457.695312 489.039062 540.078125 C 489.039062 622.433594 556.050781 689.433594 638.417969 689.433594 C 720.8125 689.433594 787.84375 622.433594 787.84375 540.078125 Z M 588.898438 486.421875 C 584.570312 482.09375 577.558594 482.09375 573.230469 486.421875 L 527.398438 532.242188 C 525.320312 534.320312 524.15625 537.140625 524.15625 540.078125 C 524.15625 543.015625 525.324219 545.835938 527.40625 547.910156 L 573.234375 593.691406 C 575.398438 595.851562 578.230469 596.929688 581.066406 596.929688 C 583.902344 596.929688 586.738281 595.847656 588.902344 593.683594 C 593.226562 589.355469 593.222656 582.34375 588.894531 578.023438 L 550.902344 540.070312 L 588.898438 502.082031 C 593.222656 497.757812 593.222656 490.746094 588.898438 486.421875 Z M 749.488281 532.242188 L 703.65625 486.421875 C 699.328125 482.097656 692.316406 482.09375 687.988281 486.421875 C 683.664062 490.746094 683.664062 497.757812 687.988281 502.082031 L 725.988281 540.070312 L 687.996094 578.023438 C 683.667969 582.34375 683.664062 589.355469 687.988281 593.683594 C 690.148438 595.847656 692.984375 596.929688 695.824219 596.929688 C 698.65625 596.929688 701.488281 595.851562 703.652344 593.691406 L 749.484375 547.910156 C 751.5625 545.835938 752.734375 543.015625 752.734375 540.078125 C 752.734375 537.140625 751.566406 534.320312 749.488281 532.242188 Z M 665.167969 480.007812 C 659.582031 477.519531 653.03125 480.035156 650.542969 485.621094 L 606.101562 585.480469 C 603.617188 591.066406 606.132812 597.613281 611.71875 600.101562 C 613.183594 600.753906 614.710938 601.058594 616.214844 601.058594 C 620.457031 601.058594 624.507812 598.609375 626.34375 594.484375 L 670.78125 494.628906 C 673.269531 489.039062 670.753906 482.496094 665.167969 480.007812 Z M 506.710938 287.054688 L 467.46875 307.019531 L 506.710938 326.996094 C 510.425781 328.886719 512.765625 332.699219 512.765625 336.871094 C 512.761719 341.035156 510.421875 344.847656 506.710938 346.738281 L 467.4375 366.714844 L 506.707031 386.675781 C 510.421875 388.566406 512.761719 392.378906 512.765625 396.546875 C 512.765625 400.714844 510.425781 404.53125 506.710938 406.417969 L 373.425781 474.214844 C 371.851562 475.019531 370.128906 475.421875 368.402344 475.421875 C 366.679688 475.421875 364.960938 475.019531 363.378906 474.214844 L 230.097656 406.417969 C 226.382812 404.527344 224.042969 400.714844 224.042969 396.546875 C 224.046875 392.378906 226.386719 388.5625 230.105469 386.675781 L 269.382812 366.722656 L 230.097656 346.738281 C 226.382812 344.847656 224.042969 341.035156 224.042969 336.867188 C 224.042969 332.699219 226.382812 328.886719 230.097656 326.996094 L 269.355469 307.027344 L 230.097656 287.058594 C 226.382812 285.167969 224.042969 281.355469 224.042969 277.1875 C 224.042969 273.019531 226.382812 269.207031 230.097656 267.316406 L 363.378906 199.519531 C 366.535156 197.914062 370.269531 197.914062 373.425781 199.519531 L 506.707031 267.316406 C 510.421875 269.207031 512.761719 273.019531 512.761719 277.1875 C 512.765625 281.351562 510.421875 285.167969 506.710938 287.054688 Z M 443.007812 379.140625 L 373.425781 414.535156 C 371.851562 415.335938 370.128906 415.738281 368.402344 415.738281 C 366.679688 415.738281 364.960938 415.335938 363.378906 414.535156 L 293.824219 379.152344 L 259.566406 396.554688 L 368.402344 451.917969 L 477.25 396.550781 Z M 443.046875 319.441406 L 373.429688 354.851562 C 371.851562 355.65625 370.128906 356.058594 368.40625 356.058594 C 366.683594 356.058594 364.960938 355.65625 363.382812 354.851562 L 293.785156 319.453125 L 259.550781 336.867188 L 368.40625 392.238281 L 477.265625 336.863281 Z M 477.257812 277.183594 L 368.40625 221.816406 L 259.554688 277.183594 L 298.089844 296.789062 C 298.585938 296.992188 299.0625 297.242188 299.527344 297.519531 L 368.40625 332.554688 L 437.527344 297.394531 C 437.851562 297.210938 438.175781 297.042969 438.515625 296.894531 Z M 477.257812 277.183594 "/></g></g></svg>