<svg xmlns="http://www.w3.org/2000/svg" xmlns:xlink="http://www.w3.org/1999/xlink" width="1080" zoomAndPan="magnify" viewBox="0 0 810 809.999993" height="1080" preserveAspectRatio="xMidYMid meet" version="1.2"><defs><clipPath id="6de53a94e6"><path d="M 595 56 L 807 56 L 807 273 L 595 273 Z M 595 56 "/></clipPath></defs><g id="875633afb1"><path style=" stroke:none;fill-rule:nonzero;fill:#047aff;fill-opacity:1;" d="M 319.519531 787.109375 C 318.308594 786.90625 318.378906 788.011719 313.261719 785.519531 C 307.464844 782.695312 303.046875 777.3125 301.339844 770.941406 C 301.328125 770.90625 143.0625 181.175781 143.0625 181.175781 C 141.820312 176.546875 142.039062 171.542969 143.671875 167.046875 C 145.214844 162.8125 147.054688 160.277344 150.484375 157.570312 C 151.210938 156.992188 152.027344 156.070312 151.59375 155.238281 C 150.425781 155.230469 149.332031 155.785156 148.3125 156.371094 C 142.730469 159.554688 137.875 163.910156 133.203125 168.386719 C 126.632812 174.683594 116.335938 183.679688 119.296875 194.132812 C 120.902344 199.804688 125.644531 220.378906 128.449219 229.035156 C 171.253906 388.535156 202.785156 506.03125 245.308594 664.480469 C 250.304688 683.097656 265.902344 741.222656 271.476562 761.984375 C 271.476562 762.304688 274.144531 773.960938 276.914062 777.527344 C 282.207031 784.347656 284.214844 782.308594 306.480469 787.058594 C 311.226562 788.070312 316.214844 789.417969 321.042969 788.15625 C 321.050781 788.15625 319.824219 787.160156 319.519531 787.109375 Z M 178.863281 373.722656 L 156.925781 297.070312 C 156.570312 295.824219 157.261719 294.515625 158.472656 294.148438 C 159.675781 293.785156 160.953125 294.492188 161.3125 295.742188 L 183.25 372.394531 C 183.605469 373.640625 182.910156 374.949219 181.699219 375.316406 C 180.519531 375.679688 179.226562 374.992188 178.863281 373.722656 Z M 196.007812 434.101562 C 195 434.101562 194.078125 433.414062 193.800781 432.367188 L 182.550781 389.789062 C 182.222656 388.535156 182.9375 387.242188 184.15625 386.902344 C 185.394531 386.550781 186.632812 387.300781 186.960938 388.554688 L 198.210938 431.132812 C 198.605469 432.621094 197.519531 434.101562 196.007812 434.101562 Z M 196.007812 434.101562 "/><path style=" stroke:none;fill-rule:nonzero;fill:#047aff;fill-opacity:1;" d="M 130.675781 496.375 C 130.675781 497.621094 130.601562 498.867188 130.457031 500.109375 C 130.3125 501.355469 130.097656 502.585938 129.808594 503.8125 C 129.519531 505.035156 129.160156 506.246094 128.730469 507.441406 C 128.300781 508.636719 127.804688 509.808594 127.238281 510.964844 C 126.671875 512.117188 126.039062 513.246094 125.339844 514.34375 C 124.644531 515.445312 123.882812 516.515625 123.0625 517.554688 C 122.238281 518.59375 121.359375 519.59375 120.421875 520.558594 C 119.480469 521.523438 118.488281 522.449219 117.445312 523.332031 C 116.398438 524.214844 115.300781 525.050781 114.160156 525.84375 C 113.015625 526.636719 111.828125 527.378906 110.597656 528.074219 C 109.367188 528.765625 108.101562 529.40625 106.796875 529.996094 C 105.488281 530.585938 104.152344 531.117188 102.789062 531.597656 C 101.421875 532.074219 100.027344 532.496094 98.613281 532.855469 C 97.195312 533.21875 95.761719 533.523438 94.3125 533.765625 C 92.859375 534.007812 91.398438 534.191406 89.925781 534.316406 C 88.453125 534.4375 86.976562 534.5 85.5 534.5 C 84.019531 534.5 82.542969 534.4375 81.070312 534.316406 C 79.597656 534.191406 78.136719 534.007812 76.683594 533.765625 C 75.234375 533.523438 73.800781 533.21875 72.382812 532.855469 C 70.96875 532.496094 69.578125 532.074219 68.210938 531.597656 C 66.84375 531.117188 65.507812 530.585938 64.203125 529.996094 C 62.898438 529.40625 61.628906 528.765625 60.398438 528.074219 C 59.167969 527.378906 57.984375 526.636719 56.839844 525.84375 C 55.695312 525.050781 54.601562 524.214844 53.554688 523.332031 C 52.507812 522.449219 51.515625 521.523438 50.578125 520.558594 C 49.636719 519.59375 48.757812 518.59375 47.933594 517.554688 C 47.113281 516.515625 46.355469 515.445312 45.65625 514.34375 C 44.957031 513.246094 44.328125 512.117188 43.761719 510.964844 C 43.195312 509.808594 42.695312 508.636719 42.265625 507.441406 C 41.835938 506.246094 41.476562 505.035156 41.191406 503.8125 C 40.902344 502.585938 40.683594 501.355469 40.539062 500.109375 C 40.394531 498.867188 40.320312 497.621094 40.320312 496.375 C 40.320312 495.125 40.394531 493.878906 40.539062 492.636719 C 40.683594 491.394531 40.902344 490.160156 41.191406 488.9375 C 41.476562 487.710938 41.835938 486.503906 42.265625 485.308594 C 42.695312 484.113281 43.195312 482.9375 43.761719 481.785156 C 44.328125 480.632812 44.957031 479.503906 45.65625 478.402344 C 46.355469 477.300781 47.113281 476.230469 47.933594 475.195312 C 48.757812 474.15625 49.636719 473.152344 50.578125 472.1875 C 51.515625 471.222656 52.507812 470.300781 53.554688 469.417969 C 54.601562 468.535156 55.695312 467.695312 56.839844 466.902344 C 57.984375 466.113281 59.167969 465.367188 60.398438 464.675781 C 61.628906 463.980469 62.898438 463.339844 64.203125 462.75 C 65.507812 462.164062 66.84375 461.628906 68.210938 461.152344 C 69.578125 460.675781 70.96875 460.253906 72.382812 459.890625 C 73.800781 459.53125 75.234375 459.226562 76.683594 458.984375 C 78.136719 458.738281 79.597656 458.554688 81.070312 458.433594 C 82.542969 458.3125 84.019531 458.25 85.5 458.25 C 86.976562 458.25 88.453125 458.3125 89.925781 458.433594 C 91.398438 458.554688 92.859375 458.738281 94.3125 458.984375 C 95.761719 459.226562 97.195312 459.53125 98.613281 459.890625 C 100.027344 460.253906 101.421875 460.675781 102.789062 461.152344 C 104.152344 461.628906 105.488281 462.164062 106.796875 462.75 C 108.101562 463.339844 109.367188 463.980469 110.597656 464.675781 C 111.828125 465.367188 113.015625 466.113281 114.160156 466.902344 C 115.300781 467.695312 116.398438 468.535156 117.445312 469.417969 C 118.488281 470.300781 119.480469 471.222656 120.421875 472.1875 C 121.359375 473.152344 122.238281 474.15625 123.0625 475.195312 C 123.882812 476.230469 124.644531 477.300781 125.339844 478.402344 C 126.039062 479.503906 126.671875 480.632812 127.238281 481.785156 C 127.804688 482.9375 128.300781 484.113281 128.730469 485.308594 C 129.160156 486.503906 129.519531 487.710938 129.808594 488.9375 C 130.097656 490.160156 130.3125 491.394531 130.457031 492.636719 C 130.601562 493.878906 130.675781 495.125 130.675781 496.375 Z M 130.675781 496.375 "/><path style=" stroke:none;fill-rule:nonzero;fill:#000000;fill-opacity:1;" d="M 632.960938 556.851562 C 632.886719 557.28125 632.800781 557.710938 632.71875 558.144531 L 598.191406 698.976562 C 597.59375 697.804688 597.0625 696.597656 596.464844 695.421875 L 559.78125 570.582031 C 566.988281 556.566406 565.480469 555.363281 566.777344 553.917969 C 567.433594 553.191406 568.488281 553.089844 569.398438 552.777344 C 576.160156 550.480469 576.015625 544.6875 583.992188 546.910156 C 592.367188 549.238281 601.300781 549.703125 609.933594 550.753906 C 617.335938 551.660156 626.296875 551.433594 633.335938 553.871094 C 633.285156 554.875 633.140625 555.863281 632.960938 556.851562 Z M 632.960938 556.851562 "/><g clip-rule="nonzero" clip-path="url(#6de53a94e6)"><path style=" stroke:none;fill-rule:nonzero;fill:#000000;fill-opacity:1;" d="M 595.375 118.621094 C 599.503906 81.417969 631.507812 54.078125 667.714844 56.648438 C 691.335938 58.328125 713.164062 73.164062 726.128906 93.5625 C 745.644531 124.261719 745.871094 164.359375 764.996094 195.273438 C 774.539062 210.695312 789.589844 223.566406 807.234375 225.703125 C 801.101562 231.824219 792.960938 235.613281 784.527344 236.769531 C 778.566406 237.589844 765.609375 237.996094 761.453125 232.195312 C 767.65625 240.941406 777.878906 246.519531 788.394531 246.894531 C 790.335938 246.964844 792.414062 246.902344 794.046875 247.988281 C 775.039062 282.277344 727.289062 277.015625 702.207031 253.632812 C 684.394531 237.027344 675.375 211.253906 677.863281 186.648438 C 679.058594 174.820312 682.707031 162.8125 679.898438 151.28125 C 677.117188 139.863281 667.546875 130.429688 656.289062 128.378906 C 645.03125 126.328125 632.742188 131.96875 626.960938 142.125 "/></g><path style=" stroke:none;fill-rule:nonzero;fill:#047aff;fill-opacity:1;" d="M 696.75 367.773438 C 691.636719 379.085938 685.167969 389.757812 681.777344 401.710938 L 641.917969 525.535156 C 640.109375 532.367188 638.46875 539.230469 636.660156 546.035156 C 634.515625 554.152344 635.363281 553.976562 628.273438 553.976562 C 621.320312 553.976562 613.808594 551.882812 606.914062 550.894531 C 597.511719 549.546875 584.925781 545.171875 575.824219 549.402344 C 588.09375 543.667969 601.046875 539.488281 614.300781 536.992188 C 608.144531 526.035156 603.792969 514.007812 601.480469 501.574219 C 567.832031 498.859375 566.949219 489.972656 557.453125 485.589844 C 553.9375 483.964844 549.476562 483.664062 546.496094 486.175781 C 552.125 491.691406 557.113281 497.898438 561.324219 504.625 C 557.121094 494.21875 546.378906 486.875 535.429688 486.875 L 482.136719 307.195312 C 481.429688 306.964844 481.242188 305.953125 481.425781 305.214844 C 481.605469 304.476562 482.132812 303.886719 482.640625 303.328125 C 500.242188 284.015625 515.507812 268.273438 541.628906 265.261719 C 552.304688 264.042969 560.808594 267.445312 571.035156 269.21875 C 577.675781 270.351562 584.285156 271.515625 590.898438 272.707031 C 591.234375 275.90625 591.660156 279.078125 591.96875 282.304688 C 592.367188 286.433594 592.027344 290.796875 594.539062 294.082031 C 597.027344 297.339844 600.417969 299.984375 604.089844 300.945312 C 617.59375 304.464844 632.453125 298.9375 641.40625 287.074219 C 641.210938 285.386719 641.039062 283.730469 640.84375 282.042969 C 650.703125 284.3125 660.449219 287.160156 670.054688 291.027344 C 679.828125 294.984375 689.179688 300.769531 695.5625 309.378906 C 708.277344 326.507812 705.027344 349.566406 696.75 367.773438 Z M 696.75 367.773438 "/><path style=" stroke:none;fill-rule:nonzero;fill:#000000;fill-opacity:1;" d="M 603.496094 303.222656 C 599.515625 302.179688 595.671875 299.441406 592.671875 295.507812 C 590.234375 292.324219 590.003906 288.429688 589.800781 284.996094 C 589.324219 276.679688 588.167969 274.558594 587.949219 261.785156 C 587.929688 260.484375 588.964844 259.414062 590.261719 259.390625 C 591.507812 259.394531 592.632812 260.40625 592.65625 261.703125 C 592.863281 274.277344 593.972656 275.796875 594.5 284.71875 C 594.675781 287.75 594.847656 290.609375 596.410156 292.652344 C 598.746094 295.714844 601.761719 297.90625 604.683594 298.671875 C 616.910156 301.855469 630.570312 296.925781 638.964844 286.386719 C 638.898438 285.804688 634.359375 244.785156 634.296875 244.195312 C 634.15625 242.902344 635.09375 241.746094 636.386719 241.609375 C 637.675781 241.449219 638.835938 242.40625 638.972656 243.699219 C 643.742188 288.632812 644.324219 287.117188 643.285156 288.492188 C 633.980469 300.816406 618.058594 307.019531 603.496094 303.222656 Z M 603.496094 303.222656 "/><path style=" stroke:none;fill-rule:nonzero;fill:#000000;fill-opacity:1;" d="M 635.082031 245.890625 C 634.117188 245.023438 634.035156 243.535156 634.902344 242.570312 C 640.578125 236.242188 644.1875 228.492188 645.929688 218.878906 L 646.03125 218.308594 C 646.320312 216.597656 648.324219 215.753906 649.753906 216.8125 C 651.898438 218.40625 655.3125 218.933594 658.449219 218.164062 C 661.308594 217.464844 663.824219 215.433594 665.183594 212.734375 C 666.539062 210.042969 666.882812 206.582031 666.203125 202.445312 C 665.242188 196.601562 662.289062 190.984375 656.414062 190.855469 C 653.449219 190.785156 650.300781 192.222656 647.929688 194.679688 C 647.023438 195.617188 645.539062 195.640625 644.601562 194.738281 C 643.667969 193.835938 643.640625 192.347656 644.542969 191.410156 C 653.410156 182.234375 668.027344 184.523438 670.84375 201.683594 C 671.6875 206.820312 671.199219 211.253906 669.386719 214.851562 C 665.714844 222.140625 657.1875 224.914062 650.050781 222.253906 C 647.992188 231.59375 644.167969 239.289062 638.40625 245.710938 C 637.539062 246.675781 636.054688 246.757812 635.082031 245.890625 Z M 635.082031 245.890625 "/><path style=" stroke:none;fill-rule:nonzero;fill:#000000;fill-opacity:1;" d="M 568.683594 249.269531 C 558.222656 236.59375 551.445312 216.820312 550.558594 196.378906 C 549.789062 178.605469 555.449219 157.828125 567.023438 144.609375 C 567.875 143.632812 569.363281 143.53125 570.339844 144.386719 C 571.320312 145.246094 571.417969 146.730469 570.5625 147.707031 C 559.808594 159.988281 554.535156 179.511719 555.261719 196.175781 C 556.09375 215.398438 562.824219 238.011719 576.5625 250.808594 C 584.203125 257.933594 593.742188 261.582031 602.738281 260.855469 C 607.28125 260.484375 612.324219 258.964844 617.324219 256.460938 C 618.492188 255.878906 619.898438 256.347656 620.480469 257.507812 C 621.0625 258.671875 620.59375 260.085938 619.433594 260.664062 C 613.898438 263.4375 608.257812 265.125 603.125 265.546875 C 589.859375 266.640625 577.289062 259.699219 568.683594 249.269531 Z M 568.683594 249.269531 "/><path style=" stroke:none;fill-rule:nonzero;fill:#000000;fill-opacity:1;" d="M 551.25 197.636719 C 550.261719 196.792969 550.144531 195.308594 550.988281 194.320312 C 552.4375 192.621094 554.410156 191.890625 556.144531 191.339844 C 560.753906 189.882812 564.5625 189.289062 568.15625 189.46875 C 569.453125 189.535156 570.449219 190.640625 570.386719 191.9375 C 570.320312 193.234375 569.261719 194.242188 567.917969 194.167969 C 564.914062 194.007812 561.617188 194.542969 557.566406 195.824219 C 556.402344 196.195312 555.210938 196.617188 554.566406 197.375 C 553.726562 198.359375 552.242188 198.484375 551.25 197.636719 Z M 551.25 197.636719 "/><path style=" stroke:none;fill-rule:nonzero;fill:#000000;fill-opacity:1;" d="M 648.957031 157.175781 C 645.808594 145.597656 641.640625 134.351562 632.675781 126.234375 C 624.570312 118.898438 612.335938 117.773438 602.621094 122.492188 C 602.117188 122.738281 601.585938 123.011719 601.007812 123.066406 C 599.464844 123.175781 598.363281 121.648438 597.402344 120.421875 C 592.660156 114.574219 584.179688 112.972656 577.03125 114.988281 C 571.3125 116.601562 566.460938 119.398438 562.359375 123.035156 C 562.6875 123.644531 563.007812 124.214844 563.320312 124.660156 C 564.582031 126.460938 565.078125 128.039062 567.589844 127.898438 C 569.410156 127.792969 570.609375 124.972656 571.957031 124.851562 C 573.679688 122.925781 576.445312 120.90625 578.515625 122.429688 C 579.527344 123.191406 579.710938 124.007812 583.53125 131.824219 C 583.800781 132.371094 584.070312 132.945312 584.574219 133.300781 C 585.636719 134.058594 587.128906 133.382812 588.105469 132.464844 C 589.054688 131.554688 589.894531 130.363281 591.136719 129.964844 C 593.457031 129.242188 595.5625 131.507812 596.984375 133.519531 C 601.082031 139.339844 605.152344 145.136719 609.253906 150.929688 C 605.117188 148.59375 600.984375 146.285156 596.820312 143.949219 C 594.253906 142.46875 591.4375 140.984375 588.507812 141.417969 C 585.003906 141.933594 581.820312 145.21875 578.402344 144.160156 C 578.105469 140.703125 577.289062 137.296875 575.9375 134.109375 C 575.167969 132.285156 574.140625 132.578125 572.917969 134.152344 C 570.949219 136.726562 568.230469 138.6875 565.210938 139.644531 C 564.398438 139.886719 563.5 140.085938 562.695312 139.757812 C 561.730469 139.382812 561.628906 139.023438 555.660156 130.730469 C 547.757812 142.445312 548.835938 150.914062 543.261719 157.972656 C 539.839844 162.304688 533.179688 164.652344 528.933594 161.171875 C 534.039062 170.511719 540.179688 180.707031 550.261719 183.378906 C 558.003906 185.433594 566.347656 182.304688 572.582031 177.152344 C 578.816406 171.996094 583.328125 165.015625 587.738281 158.148438 C 595.707031 175.234375 615.546875 183.089844 632.722656 175.425781 C 633.175781 175.222656 633.648438 175.003906 634.140625 175.054688 C 635.3125 175.175781 635.820312 176.617188 636.0625 177.800781 C 637.832031 186.382812 639.148438 195.730469 641.585938 204.09375 C 641.402344 203.460938 644.652344 199.429688 645.121094 198.519531 C 646.351562 196.152344 647.328125 193.554688 648.285156 191.058594 C 653.320312 177.960938 652.617188 170.625 648.957031 157.175781 Z M 648.957031 157.175781 "/><path style=" stroke:none;fill-rule:nonzero;fill:#000000;fill-opacity:1;" d="M 655.714844 205.453125 C 655.605469 204.125 655.4375 202.746094 654.917969 201.636719 C 654.488281 200.714844 653.808594 200.039062 653.136719 199.878906 C 652.675781 199.769531 652.125 200.011719 652.019531 200.28125 C 651.542969 201.492188 650.175781 202.085938 648.96875 201.609375 C 647.761719 201.132812 647.164062 199.765625 647.640625 198.558594 C 648.621094 196.070312 651.515625 194.640625 654.25 195.308594 C 656.339844 195.816406 658.136719 197.398438 659.183594 199.652344 C 660.011719 201.429688 660.261719 203.308594 660.402344 205.074219 C 660.507812 206.367188 659.542969 207.503906 658.25 207.609375 C 656.890625 207.707031 655.816406 206.699219 655.714844 205.453125 Z M 655.714844 205.453125 "/><path style=" stroke:none;fill-rule:nonzero;fill:#000000;fill-opacity:1;" d="M 577.621094 219.382812 C 575.464844 215.390625 577.9375 211.1875 579.140625 208.023438 C 580.492188 204.476562 580.378906 200.296875 578.839844 196.566406 C 578.34375 195.363281 578.914062 193.988281 580.117188 193.492188 C 581.320312 193 582.691406 193.574219 583.1875 194.769531 C 585.183594 199.601562 585.308594 205.039062 583.539062 209.695312 C 582.546875 212.3125 580.804688 215.378906 581.761719 217.148438 C 582.464844 218.449219 584.640625 218.898438 588.21875 218.464844 C 589.515625 218.304688 590.679688 219.234375 590.832031 220.523438 C 590.988281 221.8125 590.066406 222.984375 588.777344 223.136719 C 584.375 223.667969 579.730469 223.285156 577.621094 219.382812 Z M 577.621094 219.382812 "/><path style=" stroke:none;fill-rule:nonzero;fill:#000000;fill-opacity:1;" d="M 589.335938 238.175781 C 588.09375 237.800781 587.386719 236.488281 587.765625 235.246094 C 588.140625 234 589.453125 233.300781 590.695312 233.671875 C 593.046875 234.386719 595.886719 233.226562 597.152344 231.042969 C 597.804688 229.917969 599.246094 229.539062 600.371094 230.1875 C 601.492188 230.839844 601.875 232.277344 601.222656 233.402344 C 598.871094 237.460938 593.761719 239.507812 589.335938 238.175781 Z M 589.335938 238.175781 "/><path style=" stroke:none;fill-rule:nonzero;fill:#000000;fill-opacity:1;" d="M 608.042969 199.148438 C 608.121094 199.589844 608.175781 200.03125 608.210938 200.472656 C 608.242188 200.914062 608.253906 201.34375 608.242188 201.765625 C 608.230469 202.191406 608.195312 202.59375 608.140625 202.984375 C 608.082031 203.375 608.003906 203.738281 607.902344 204.078125 C 607.804688 204.417969 607.683594 204.726562 607.542969 205.003906 C 607.40625 205.28125 607.25 205.519531 607.078125 205.726562 C 606.902344 205.929688 606.71875 206.09375 606.519531 206.21875 C 606.316406 206.34375 606.109375 206.425781 605.890625 206.464844 C 605.671875 206.5 605.445312 206.496094 605.214844 206.449219 C 604.984375 206.398438 604.753906 206.308594 604.519531 206.175781 C 604.289062 206.042969 604.058594 205.871094 603.835938 205.65625 C 603.609375 205.441406 603.390625 205.195312 603.179688 204.910156 C 602.972656 204.625 602.773438 204.308594 602.585938 203.960938 C 602.398438 203.617188 602.230469 203.246094 602.074219 202.855469 C 601.917969 202.460938 601.78125 202.050781 601.660156 201.625 C 601.542969 201.199219 601.441406 200.765625 601.363281 200.324219 C 601.289062 199.882812 601.230469 199.441406 601.199219 199 C 601.164062 198.558594 601.152344 198.128906 601.164062 197.707031 C 601.179688 197.28125 601.210938 196.875 601.269531 196.488281 C 601.328125 196.097656 601.40625 195.734375 601.503906 195.394531 C 601.605469 195.054688 601.726562 194.746094 601.863281 194.46875 C 602.003906 194.191406 602.160156 193.949219 602.332031 193.746094 C 602.503906 193.542969 602.691406 193.378906 602.890625 193.253906 C 603.089844 193.128906 603.300781 193.046875 603.519531 193.007812 C 603.738281 192.96875 603.964844 192.976562 604.191406 193.023438 C 604.421875 193.070312 604.65625 193.164062 604.886719 193.296875 C 605.121094 193.429688 605.347656 193.601562 605.574219 193.816406 C 605.800781 194.027344 606.015625 194.277344 606.226562 194.5625 C 606.4375 194.847656 606.636719 195.164062 606.820312 195.507812 C 607.007812 195.855469 607.179688 196.226562 607.335938 196.617188 C 607.492188 197.011719 607.628906 197.421875 607.746094 197.847656 C 607.867188 198.273438 607.964844 198.707031 608.042969 199.148438 Z M 608.042969 199.148438 "/><path style=" stroke:none;fill-rule:nonzero;fill:#000000;fill-opacity:1;" d="M 568.902344 206.601562 C 568.980469 207.042969 569.039062 207.484375 569.070312 207.921875 C 569.105469 208.363281 569.117188 208.796875 569.101562 209.21875 C 569.089844 209.640625 569.058594 210.046875 569 210.4375 C 568.941406 210.824219 568.863281 211.191406 568.765625 211.527344 C 568.664062 211.867188 568.542969 212.175781 568.40625 212.453125 C 568.265625 212.730469 568.109375 212.972656 567.9375 213.179688 C 567.765625 213.382812 567.578125 213.546875 567.378906 213.671875 C 567.179688 213.796875 566.96875 213.875 566.75 213.914062 C 566.53125 213.953125 566.304688 213.949219 566.074219 213.902344 C 565.84375 213.851562 565.613281 213.761719 565.382812 213.628906 C 565.148438 213.496094 564.921875 213.320312 564.695312 213.109375 C 564.46875 212.894531 564.25 212.644531 564.042969 212.359375 C 563.832031 212.074219 563.632812 211.761719 563.445312 211.414062 C 563.261719 211.070312 563.089844 210.699219 562.933594 210.304688 C 562.777344 209.914062 562.640625 209.503906 562.519531 209.078125 C 562.402344 208.652344 562.304688 208.21875 562.226562 207.777344 C 562.148438 207.335938 562.09375 206.894531 562.058594 206.453125 C 562.023438 206.011719 562.015625 205.582031 562.027344 205.15625 C 562.039062 204.734375 562.074219 204.328125 562.128906 203.941406 C 562.1875 203.550781 562.265625 203.1875 562.367188 202.847656 C 562.464844 202.507812 562.585938 202.199219 562.722656 201.921875 C 562.863281 201.644531 563.019531 201.402344 563.191406 201.199219 C 563.363281 200.992188 563.550781 200.828125 563.75 200.707031 C 563.949219 200.582031 564.160156 200.5 564.378906 200.460938 C 564.597656 200.421875 564.824219 200.425781 565.054688 200.476562 C 565.285156 200.523438 565.515625 200.613281 565.746094 200.75 C 565.980469 200.882812 566.207031 201.054688 566.433594 201.269531 C 566.660156 201.480469 566.878906 201.730469 567.089844 202.015625 C 567.296875 202.300781 567.496094 202.617188 567.683594 202.960938 C 567.871094 203.308594 568.039062 203.675781 568.195312 204.070312 C 568.351562 204.464844 568.488281 204.875 568.609375 205.300781 C 568.726562 205.726562 568.824219 206.160156 568.902344 206.601562 Z M 568.902344 206.601562 "/><path style=" stroke:none;fill-rule:nonzero;fill:#000000;fill-opacity:1;" d="M 617.355469 190.933594 C 611.375 187.425781 603.089844 187.28125 596.75 190.574219 C 595.601562 191.175781 594.179688 190.730469 593.582031 189.574219 C 592.980469 188.417969 593.429688 187 594.582031 186.402344 C 602.425781 182.324219 612.296875 182.511719 619.734375 186.875 C 620.855469 187.53125 621.230469 188.972656 620.574219 190.09375 C 619.914062 191.21875 618.472656 191.585938 617.355469 190.933594 Z M 617.355469 190.933594 "/><path style=" stroke:none;fill-rule:nonzero;fill:#047aff;fill-opacity:1;" d="M 633.917969 131.890625 C 624.171875 121.6875 609.136719 117.253906 595.625 120.582031 C 594.375 120.898438 593.089844 120.125 592.777344 118.863281 C 592.464844 117.601562 593.234375 116.324219 594.496094 116.015625 C 609.617188 112.28125 626.425781 117.238281 637.320312 128.640625 C 638.21875 129.578125 638.183594 131.066406 637.246094 131.964844 C 636.308594 132.859375 634.816406 132.832031 633.917969 131.890625 Z M 633.917969 131.890625 "/><path style=" stroke:none;fill-rule:nonzero;fill:#000000;fill-opacity:1;" d="M 547.230469 493.027344 C 547.230469 489.9375 551.90625 489.933594 551.90625 493.027344 C 551.90625 493.714844 551.742188 494.113281 551.246094 494.691406 C 549.832031 496.105469 547.230469 495.234375 547.230469 493.027344 Z M 547.230469 493.027344 "/><path style=" stroke:none;fill-rule:nonzero;fill:#000000;fill-opacity:1;" d="M 553.3125 421.550781 C 540.269531 413.640625 531.503906 399.808594 530.441406 385.457031 C 528.503906 359.292969 551.96875 341.957031 562.578125 347.582031 C 567.921875 350.414062 569.964844 358.671875 570.078125 364.621094 C 571.675781 363.316406 573.5625 362.117188 575.734375 361.035156 C 580.714844 358.542969 588.152344 356.105469 595.355469 358.601562 C 602.847656 361.203125 608.339844 368.882812 609.019531 377.710938 C 609.597656 385.214844 606.78125 393.304688 601.289062 399.898438 C 596.984375 405.066406 591.015625 409.519531 583.039062 413.511719 C 581.882812 414.09375 580.46875 413.621094 579.882812 412.457031 C 579.304688 411.296875 579.773438 409.882812 580.9375 409.300781 C 588.316406 405.609375 593.792969 401.546875 597.675781 396.890625 C 602.390625 391.226562 604.816406 384.367188 604.328125 378.074219 C 603.796875 371.191406 599.472656 365.011719 593.8125 363.042969 C 588.164062 361.078125 582.007812 363.152344 577.835938 365.242188 C 573 367.660156 569.949219 370.609375 568.769531 373.996094 C 568.351562 375.203125 567.046875 375.859375 565.820312 375.460938 C 564.601562 375.066406 563.925781 373.765625 564.296875 372.542969 C 565.832031 367.492188 565.730469 361.96875 564.019531 356.984375 C 562.09375 351.371094 558.933594 349.621094 552.765625 352.539062 C 541.546875 357.835938 534.128906 371.535156 535.132812 385.109375 C 536.085938 397.96875 543.988281 410.390625 555.753906 417.53125 C 556.863281 418.203125 557.21875 419.648438 556.542969 420.761719 C 555.867188 421.875 554.417969 422.222656 553.3125 421.550781 Z M 553.3125 421.550781 "/><path style=" stroke:none;fill-rule:nonzero;fill:#047aff;fill-opacity:0.45;" d="M 627.835938 725.734375 C 619.996094 697.621094 588.914062 596.859375 577.136719 549.726562 C 577.59375 549.164062 576.347656 549.039062 575.734375 549.414062 C 566.597656 555.308594 564.25 568.386719 555.78125 575.257812 C 553.128906 577.421875 549.992188 578.894531 546.855469 580.242188 C 522.367188 590.765625 510.042969 588.773438 491.832031 576.324219 L 492.835938 578.894531 L 495.457031 590.75 C 497.773438 600.941406 491.738281 610.632812 482.019531 612.390625 L 367.769531 633.058594 C 358.050781 634.8125 348.300781 627.976562 346.015625 617.785156 C 346.015625 617.785156 322.585938 513.597656 322.554688 513.441406 C 320.117188 502.621094 326.914062 493.621094 337.027344 492.019531 C 338.988281 491.707031 435.683594 477.203125 447.988281 475.367188 C 451.1875 475.367188 454.355469 476.683594 456.761719 478.878906 C 459.960938 481.796875 461.578125 486.15625 462.917969 490.359375 C 466.175781 500.550781 468.585938 510.996094 470.136719 521.59375 L 471.355469 524.667969 C 472.789062 516.421875 476.019531 508.582031 481.59375 502.558594 C 485.097656 498.761719 489.394531 495.847656 493.75 493.148438 C 514.125 480.410156 524.757812 481.582031 548.4375 489.324219 C 548.835938 485.027344 554.777344 482.675781 557.882812 485.527344 C 556.328125 474.363281 552.035156 463.511719 548.621094 452.722656 C 524.804688 377.175781 536.085938 413.675781 518.398438 353.742188 C 495.980469 277.289062 457.371094 146.707031 457.371094 146.21875 C 454.203125 135.398438 443.875 128.625 433.03125 130.195312 L 188.042969 165.632812 C 174.933594 167.5 166.125 180.917969 169.734375 194.359375 L 328.007812 784.128906 C 331.054688 795.453125 341.964844 802.570312 353.207031 800.5625 C 360.050781 799.347656 304.097656 809.285156 610.347656 754.898438 C 623.507812 752.546875 631.703125 738.875 627.835938 725.734375 Z M 465.78125 372.25 L 480.984375 434.03125 C 483.605469 444.601562 477.90625 454.292969 468.25 455.671875 L 400.796875 465.394531 C 391.136719 466.773438 381.234375 459.339844 378.644531 448.773438 L 363.414062 386.957031 C 360.824219 376.417969 366.519531 366.726562 376.179688 365.347656 L 443.632812 355.625 C 453.257812 354.246094 463.191406 361.679688 465.78125 372.25 Z M 342.117188 250.8125 L 409.601562 241.089844 C 419.226562 239.710938 429.160156 247.144531 431.75 257.714844 L 446.953125 319.496094 C 449.542969 330.066406 443.84375 339.757812 434.21875 341.136719 L 366.734375 350.859375 C 357.105469 352.238281 347.203125 344.804688 344.582031 334.238281 L 329.382812 272.421875 C 326.789062 261.882812 332.488281 252.191406 342.117188 250.8125 Z M 225.609375 352.363281 L 210.40625 290.582031 C 207.785156 280.011719 213.515625 270.320312 223.140625 268.941406 L 290.597656 259.21875 C 300.253906 257.839844 310.15625 265.269531 312.777344 275.839844 L 327.980469 337.625 C 330.570312 348.191406 324.871094 357.882812 315.242188 359.265625 L 247.761719 368.988281 C 238.132812 370.367188 228.199219 362.933594 225.609375 352.363281 Z M 261.773438 468.246094 L 246.542969 406.433594 C 243.953125 395.863281 249.648438 386.203125 259.308594 384.792969 L 326.761719 375.101562 C 336.386719 373.722656 346.320312 381.15625 348.910156 391.722656 L 364.113281 453.507812 C 366.734375 464.078125 361.035156 473.769531 351.378906 475.148438 L 283.925781 484.839844 C 274.265625 486.21875 264.363281 478.785156 261.773438 468.246094 Z M 261.773438 468.246094 "/><path style=" stroke:none;fill-rule:nonzero;fill:#047aff;fill-opacity:1;" d="M 126.558594 133.066406 C 115.539062 128.492188 103.777344 123.3125 92.160156 116.367188 C 79.496094 131.597656 56.925781 132.074219 43.667969 117.824219 C 41.839844 115.847656 41.980469 115.914062 38.863281 116.433594 C 19.554688 119.742188 0.753906 97.425781 2.019531 77.496094 C 2.628906 68.441406 6.679688 60.910156 12.957031 56.996094 C 12.675781 46.773438 17.144531 35.980469 25.839844 30.4375 C 30.800781 27.308594 36.226562 26.199219 39.847656 24.964844 C 41.390625 24.4375 43.074219 23.859375 44.800781 23.625 C 46.398438 14.742188 54.414062 8.71875 61.191406 6.164062 C 75.046875 0.941406 91.253906 4.441406 101.917969 14.847656 C 126.308594 11.488281 144.515625 17.355469 146.546875 41.988281 C 147.519531 53.832031 144.125 63.730469 137.40625 69.011719 C 140.730469 76.25 139.898438 85.300781 135.136719 91.738281 C 130.914062 97.445312 124.5 102.296875 117.3125 102.296875 C 120.570312 111.773438 124.667969 120.996094 129.519531 129.757812 C 130.589844 131.695312 128.613281 133.917969 126.558594 133.066406 Z M 92.816406 111.265625 C 102.652344 117.3125 112.679688 122.039062 122.296875 126.167969 C 118.0625 117.789062 114.488281 109.054688 111.636719 100.125 C 111.0625 98.324219 112.738281 96.617188 114.550781 97.15625 C 121.039062 99.101562 127.652344 93.9375 131.355469 88.9375 C 135.390625 83.480469 135.808594 75.292969 132.34375 69.46875 C 131.683594 68.363281 132.039062 66.933594 133.136719 66.257812 C 140.632812 61.667969 142.558594 50.910156 141.855469 42.375 C 141.351562 36.242188 139.875 31.558594 137.347656 28.050781 C 129.816406 17.589844 114.175781 17.820312 101.414062 19.671875 C 100.664062 19.773438 99.90625 19.519531 99.382812 18.972656 C 90.179688 9.382812 75.15625 5.929688 62.851562 10.5625 C 56.863281 12.824219 49.707031 18.226562 49.242188 26.03125 C 49.167969 27.304688 48.074219 28.332031 46.707031 28.234375 C 44.566406 28.074219 41.625 29.429688 39.042969 30.164062 C 35.402344 31.199219 31.582031 32.375 28.359375 34.410156 C 20.757812 39.257812 17.097656 49.128906 17.722656 58.160156 C 17.789062 59.097656 17.289062 59.980469 16.457031 60.414062 C 10.976562 63.246094 7.246094 69.90625 6.714844 77.800781 C 5.632812 94.855469 21.9375 114.566406 38.113281 111.789062 L 38.769531 111.683594 C 42.660156 111.03125 44.308594 111.578125 46.914062 114.410156 C 59.324219 127.75 79.582031 125.863281 89.679688 111.894531 C 90.398438 110.898438 91.761719 110.621094 92.816406 111.265625 Z M 92.816406 111.265625 "/><path style=" stroke:none;fill-rule:nonzero;fill:#000000;fill-opacity:1;" d="M 299.066406 771.554688 L 140.789062 181.78125 C 136.8125 166.960938 146.519531 152.183594 161.042969 150.117188 L 406.019531 114.679688 C 418.132812 112.945312 429.445312 120.371094 432.957031 132.371094 L 536.511719 484.414062 C 536.875 485.660156 536.164062 486.964844 534.917969 487.335938 C 533.679688 487.695312 532.363281 486.988281 531.996094 485.738281 L 428.445312 133.695312 C 425.59375 123.964844 416.449219 117.941406 406.695312 119.332031 L 161.707031 154.773438 C 149.945312 156.449219 142.09375 168.488281 145.335938 180.5625 L 303.609375 770.332031 C 306.355469 780.53125 316.039062 786.867188 326.121094 785.058594 L 583.265625 739.398438 C 595.230469 737.257812 602.324219 724.828125 598.90625 713.210938 L 557.433594 572.21875 C 557.066406 570.972656 557.78125 569.664062 559.027344 569.296875 C 560.269531 568.9375 561.582031 569.644531 561.949219 570.890625 L 603.417969 711.882812 C 607.695312 726.398438 598.578125 741.4375 584.089844 744.027344 L 326.945312 789.691406 C 314.511719 791.917969 302.46875 784.195312 299.066406 771.554688 Z M 299.066406 771.554688 "/><path style=" stroke:none;fill-rule:nonzero;fill:#000000;fill-opacity:1;" d="M 483.410156 573.695312 C 468.089844 558.238281 463.589844 529.859375 473.585938 511.722656 C 489.484375 482.863281 526.660156 471.832031 552.992188 493.242188 C 554 494.066406 554.15625 495.546875 553.335938 496.554688 C 552.511719 497.5625 551.03125 497.710938 550.027344 496.894531 C 526.085938 477.421875 492.253906 487.589844 477.703125 513.992188 C 468.789062 530.175781 473.015625 556.527344 486.75 570.382812 C 504.320312 588.105469 540.660156 590.695312 556.964844 570.539062 C 557.78125 569.527344 559.265625 569.371094 560.273438 570.1875 C 561.285156 571.003906 561.441406 572.484375 560.625 573.496094 C 542.578125 595.808594 502.996094 593.457031 483.410156 573.695312 Z M 483.410156 573.695312 "/><path style=" stroke:none;fill-rule:nonzero;fill:#000000;fill-opacity:1;" d="M 557.316406 573.84375 C 556.304688 573.03125 556.148438 571.546875 556.964844 570.539062 C 559.910156 566.898438 562.316406 562.742188 564.125 558.183594 C 564.605469 556.972656 565.96875 556.378906 567.179688 556.863281 C 568.386719 557.34375 568.976562 558.707031 568.5 559.917969 C 566.515625 564.917969 563.867188 569.484375 560.625 573.496094 C 559.816406 574.496094 558.339844 574.671875 557.316406 573.84375 Z M 557.316406 573.84375 "/><path style=" stroke:none;fill-rule:nonzero;fill:#047aff;fill-opacity:1;" d="M 519.757812 564.832031 C 528.191406 568.179688 535.183594 567.519531 542.90625 560.089844 C 543.109375 559.898438 546 556.710938 545.78125 556.652344 C 542.699219 555.820312 540.679688 551.714844 542.914062 546.796875 C 539.578125 547.703125 535.878906 547.085938 532.992188 545.140625 C 530.746094 548.851562 525.472656 547.683594 522.398438 546.105469 C 517.707031 543.699219 513.179688 539.355469 509.859375 535.25 C 507.550781 532.394531 505.789062 527.941406 506.269531 524.179688 C 506.839844 519.710938 512.839844 518.433594 512.730469 514.105469 C 512.691406 512.566406 511.652344 511.273438 510.644531 510.136719 C 509.101562 508.394531 507.511719 506.691406 505.878906 505.035156 C 502.175781 501.277344 498.996094 499.488281 494.570312 502.417969 C 489.125 506.019531 487.003906 513.101562 486.042969 519.691406 C 485.644531 522.402344 486.617188 525.445312 487.445312 528.035156 C 492.949219 545.21875 503.242188 558.28125 519.757812 564.832031 Z M 519.757812 564.832031 "/><path style=" stroke:none;fill-rule:nonzero;fill:#000000;fill-opacity:1;" d="M 550.269531 558.15625 C 545.054688 557.195312 541.449219 552.992188 542.355469 548.015625 C 536.972656 548.144531 532.742188 544.375 533.699219 539.554688 C 530.171875 538.53125 527.515625 535.335938 527.4375 531.664062 C 527.363281 528.359375 529.390625 525.203125 532.226562 523.484375 C 529.851562 519.257812 532.023438 514.046875 535.863281 511.152344 C 539.503906 508.3125 544.226562 507.5625 547.875 506.421875 C 550.214844 505.710938 554.984375 504.386719 557.703125 504.019531 C 556.625 502.363281 554.722656 500.488281 553.5 498.847656 L 545.082031 487.539062 C 544.265625 486.449219 544.546875 484.894531 545.695312 484.152344 C 554.660156 478.386719 566.058594 487.484375 574.308594 492.429688 C 581.957031 497.03125 595.628906 502.269531 603.511719 498.042969 C 604.472656 497.527344 605.65625 497.742188 606.378906 498.550781 C 607.042969 499.296875 607.160156 500.367188 606.699219 501.230469 C 608.449219 508.785156 610.949219 515.601562 614.375 524.007812 L 615.960938 527.984375 C 616.804688 530.121094 617.664062 532.296875 618.492188 534.285156 C 618.777344 534.960938 618.726562 535.734375 618.359375 536.367188 C 617.988281 537.003906 617.347656 537.429688 616.621094 537.523438 C 597.195312 539.992188 578.195312 553.425781 558.390625 557.640625 C 556.6875 558.015625 552.980469 558.621094 550.269531 558.15625 Z M 548.109375 546.941406 C 546.949219 547.722656 546.671875 549.648438 547.199219 550.847656 C 547.78125 552.183594 549.238281 553.179688 551.09375 553.523438 C 557.6875 554.652344 574.101562 547.683594 580.183594 545.042969 C 590.992188 540.328125 601.902344 535.300781 613.015625 533.316406 C 612.539062 532.128906 612.058594 530.914062 611.585938 529.710938 L 610.015625 525.777344 C 607.265625 519.023438 604.429688 511.769531 602.414062 503.546875 C 593.191406 506.253906 580.046875 501.371094 571.886719 496.460938 C 565.453125 492.601562 557.050781 486.09375 550.6875 487.1875 C 558.113281 497.054688 556.664062 495.417969 558.871094 497.953125 C 561.175781 500.601562 564.09375 503.941406 562.480469 506.625 C 561.207031 508.738281 558.3125 508.566406 556.871094 508.894531 C 552.878906 509.78125 548.949219 511.039062 546.503906 511.703125 C 543.71875 512.457031 540.839844 513.238281 538.722656 514.886719 C 536.996094 516.191406 535.910156 518.101562 535.929688 519.78125 C 535.957031 520.867188 536.652344 521.96875 537.511719 522.257812 C 538.601562 522.621094 539.269531 523.71875 539.089844 524.855469 C 538.910156 525.992188 537.9375 526.832031 536.789062 526.839844 C 535.699219 526.847656 534.480469 527.4375 533.535156 528.414062 C 530.023438 532.03125 533.9375 536.125 537.109375 535.011719 C 538.269531 534.601562 539.546875 535.148438 540.046875 536.269531 C 540.546875 537.390625 540.097656 538.710938 539.019531 539.296875 C 538.457031 539.597656 538.105469 540.707031 538.34375 541.414062 C 538.734375 542.523438 540.054688 543.09375 541.0625 543.242188 C 542.65625 543.480469 544.425781 543.097656 546.304688 542.691406 C 548.855469 542.148438 550.230469 545.515625 548.109375 546.941406 Z M 548.109375 546.941406 "/><path style=" stroke:none;fill-rule:nonzero;fill:#000000;fill-opacity:1;" d="M 538.96875 527.058594 C 537.675781 526.929688 536.726562 525.777344 536.855469 524.488281 C 536.980469 523.195312 538.132812 522.257812 539.425781 522.375 C 544.5625 522.898438 550.304688 519.785156 556.390625 519.167969 C 557.679688 519.019531 558.835938 519.980469 558.964844 521.273438 C 559.097656 522.566406 558.15625 523.71875 556.863281 523.847656 C 551.113281 524.433594 545.417969 527.679688 538.96875 527.058594 Z M 538.96875 527.058594 "/><path style=" stroke:none;fill-rule:nonzero;fill:#000000;fill-opacity:1;" d="M 537 537.535156 C 536.851562 536.246094 537.777344 535.078125 539.066406 534.929688 C 544.214844 534.335938 549.238281 532.824219 554.003906 530.4375 C 555.171875 529.855469 556.578125 530.328125 557.160156 531.488281 C 557.742188 532.648438 557.273438 534.0625 556.109375 534.644531 C 550.851562 537.277344 545.300781 538.945312 539.605469 539.601562 C 538.332031 539.75 537.152344 538.839844 537 537.535156 Z M 537 537.535156 "/><path style=" stroke:none;fill-rule:nonzero;fill:#000000;fill-opacity:1;" d="M 545.273438 545.621094 C 544.726562 544.445312 545.238281 543.046875 546.417969 542.5 C 551.234375 540.273438 556.191406 538.230469 561.148438 536.425781 C 562.367188 535.980469 563.71875 536.609375 564.164062 537.832031 C 564.605469 539.054688 563.976562 540.402344 562.753906 540.847656 C 557.921875 542.605469 553.089844 544.597656 548.394531 546.769531 C 547.230469 547.308594 545.824219 546.8125 545.273438 545.621094 Z M 545.273438 545.621094 "/><path style=" stroke:none;fill-rule:nonzero;fill:#047aff;fill-opacity:1;" d="M 676.757812 296.148438 C 693.46875 301.722656 705.128906 317.007812 715.042969 331.933594 C 736.179688 363.753906 754.292969 397.699219 769.042969 433.128906 C 782.414062 465.246094 772.234375 484.433594 755.851562 492.28125 C 753 493.644531 772.449219 484.164062 620.457031 558.484375 L 590.40625 493.050781 L 689.796875 447.84375 L 659.75 400.253906 "/><path style=" stroke:none;fill-rule:nonzero;fill:#000000;fill-opacity:1;" d="M 589.019531 491.457031 C 588.523438 490.257812 589.09375 488.878906 590.292969 488.382812 L 662.691406 458.34375 C 663.894531 457.839844 665.269531 458.414062 665.769531 459.613281 C 666.265625 460.8125 665.695312 462.191406 664.496094 462.6875 L 592.097656 492.726562 C 590.910156 493.21875 589.523438 492.667969 589.019531 491.457031 Z M 589.019531 491.457031 "/><path style=" stroke:none;fill-rule:nonzero;fill:#000000;fill-opacity:1;" d="M 672.050781 425.757812 C 669.296875 421.460938 666.957031 416.863281 665.097656 412.089844 C 664.625 410.878906 665.226562 409.515625 666.433594 409.042969 C 667.644531 408.570312 669.007812 409.171875 669.480469 410.378906 C 671.230469 414.867188 673.425781 419.183594 676.011719 423.21875 C 676.710938 424.3125 676.394531 425.765625 675.300781 426.46875 C 674.203125 427.171875 672.75 426.84375 672.050781 425.757812 Z M 672.050781 425.757812 "/><path style=" stroke:none;fill-rule:nonzero;fill:#000000;fill-opacity:1;" d="M 254.238281 162.671875 C 254.039062 161.390625 254.917969 160.1875 256.199219 159.988281 L 322.390625 149.6875 C 323.675781 149.503906 324.878906 150.367188 325.078125 151.648438 C 325.277344 152.933594 324.398438 154.136719 323.113281 154.335938 L 256.925781 164.636719 C 255.613281 164.832031 254.433594 163.933594 254.238281 162.671875 Z M 254.238281 162.671875 "/><path style=" stroke:none;fill-rule:nonzero;fill:#000000;fill-opacity:1;" d="M 62.191406 85.605469 C 53.4375 88.710938 48.320312 80.871094 45.722656 71.914062 C 43.433594 64.039062 45.035156 54.402344 53.019531 51.570312 C 56.628906 50.289062 59.90625 50.875 62.84375 53.328125 C 65.382812 55.453125 67.226562 58.488281 68.371094 62.433594 C 71.167969 72.070312 71.652344 82.25 62.191406 85.605469 Z M 54.1875 55.671875 C 48.84375 57.570312 48.058594 64.761719 49.617188 70.160156 C 51.464844 76.511719 54.777344 83.742188 61.007812 81.535156 C 67.199219 79.339844 66.300781 70.96875 64.480469 64.675781 C 62.808594 58.921875 59.855469 53.660156 54.1875 55.671875 Z M 54.1875 55.671875 "/><path style=" stroke:none;fill-rule:nonzero;fill:#000000;fill-opacity:1;" d="M 85.519531 76.445312 C 80.175781 78.265625 78.484375 79.351562 77.84375 77.15625 C 77.429688 75.726562 78.304688 74.632812 80.457031 73.867188 L 81.453125 73.539062 L 82.308594 73.28125 C 81.019531 68.832031 80.609375 70.683594 78.316406 59.046875 C 77.570312 55.335938 76.917969 52.546875 76.367188 50.6875 C 74.953125 52.808594 73.992188 53.960938 73.484375 54.140625 C 72.351562 54.542969 71.148438 53.84375 70.835938 52.761719 C 70.640625 52.097656 71 51.082031 71.90625 49.71875 C 74.628906 45.972656 75.066406 43.660156 77.21875 42.894531 C 78.136719 42.570312 78.757812 42.949219 79.070312 44.039062 C 79.320312 44.890625 79.433594 46.226562 79.667969 47.03125 C 79.980469 48.117188 80.664062 49.941406 81.042969 51.226562 C 81.511719 52.839844 82.046875 55.300781 82.640625 58.613281 C 84.371094 68.179688 85.015625 67.65625 86.289062 71.726562 L 88.441406 70.917969 C 90.359375 70.242188 91.71875 72.316406 90.886719 73.914062 C 90.230469 75.171875 89.171875 75 85.519531 76.445312 Z M 85.519531 76.445312 "/><path style=" stroke:none;fill-rule:nonzero;fill:#000000;fill-opacity:1;" d="M 104.515625 69.710938 C 99.308594 71.476562 97.484375 72.644531 96.835938 70.421875 C 96.0625 67.753906 100.085938 67 100.449219 66.804688 L 101.300781 66.546875 C 100.054688 62.234375 99.621094 63.992188 97.308594 52.3125 C 96.5625 48.601562 95.914062 45.8125 95.359375 43.953125 C 93.945312 46.074219 92.988281 47.226562 92.476562 47.40625 C 91.320312 47.8125 90.140625 47.089844 89.832031 46.027344 C 89.636719 45.363281 89.992188 44.347656 90.898438 42.984375 C 93.601562 39.296875 94.046875 36.929688 96.214844 36.160156 C 97.824219 35.589844 98.117188 37.21875 98.363281 38.800781 C 99.03125 43.113281 99.65625 40.855469 101.632812 51.878906 C 103.410156 61.695312 103.964844 60.726562 105.28125 64.992188 L 107.429688 64.1875 C 109.351562 63.503906 110.707031 65.574219 109.882812 67.179688 C 109.613281 67.691406 108.175781 68.261719 104.515625 69.710938 Z M 104.515625 69.710938 "/><path style=" stroke:none;fill-rule:nonzero;fill:#047aff;fill-opacity:1;" d="M 266.765625 383.894531 C 267.082031 384.441406 267.375 385.003906 267.644531 385.578125 C 267.910156 386.152344 268.152344 386.738281 268.367188 387.332031 C 268.578125 387.929688 268.765625 388.53125 268.921875 389.140625 C 269.078125 389.753906 269.207031 390.367188 269.304688 390.988281 C 269.40625 391.609375 269.476562 392.230469 269.515625 392.855469 C 269.554688 393.476562 269.566406 394.097656 269.550781 394.71875 C 269.53125 395.339844 269.480469 395.957031 269.40625 396.570312 C 269.328125 397.183594 269.222656 397.789062 269.085938 398.386719 C 268.949219 398.984375 268.785156 399.570312 268.59375 400.148438 C 268.398438 400.726562 268.179688 401.292969 267.933594 401.84375 C 267.683594 402.394531 267.410156 402.933594 267.109375 403.453125 C 266.8125 403.972656 266.484375 404.476562 266.136719 404.960938 C 265.785156 405.445312 265.414062 405.910156 265.015625 406.355469 C 264.621094 406.796875 264.203125 407.21875 263.761719 407.617188 C 263.324219 408.015625 262.867188 408.390625 262.386719 408.742188 C 261.910156 409.09375 261.417969 409.414062 260.90625 409.714844 C 260.394531 410.011719 259.871094 410.28125 259.328125 410.523438 C 258.789062 410.765625 258.238281 410.980469 257.675781 411.164062 C 257.109375 411.351562 256.539062 411.507812 255.957031 411.632812 C 255.375 411.757812 254.785156 411.855469 254.191406 411.917969 C 253.597656 411.984375 253 412.019531 252.398438 412.023438 C 251.796875 412.027344 251.195312 412 250.59375 411.945312 C 249.992188 411.886719 249.390625 411.800781 248.792969 411.683594 C 248.195312 411.566406 247.605469 411.417969 247.015625 411.242188 C 246.429688 411.066406 245.851562 410.859375 245.28125 410.625 C 244.710938 410.390625 244.148438 410.128906 243.601562 409.835938 C 243.050781 409.546875 242.515625 409.230469 241.992188 408.886719 C 241.46875 408.546875 240.964844 408.179688 240.472656 407.785156 C 239.980469 407.394531 239.511719 406.980469 239.054688 406.539062 C 238.601562 406.101562 238.167969 405.644531 237.757812 405.164062 C 237.34375 404.6875 236.953125 404.1875 236.585938 403.671875 C 236.21875 403.15625 235.875 402.625 235.554688 402.078125 C 235.234375 401.527344 234.941406 400.96875 234.675781 400.394531 C 234.40625 399.820312 234.167969 399.234375 233.953125 398.636719 C 233.738281 398.042969 233.554688 397.441406 233.398438 396.828125 C 233.242188 396.21875 233.113281 395.601562 233.011719 394.984375 C 232.914062 394.363281 232.84375 393.742188 232.804688 393.117188 C 232.761719 392.492188 232.75 391.871094 232.769531 391.25 C 232.789062 390.628906 232.835938 390.011719 232.914062 389.402344 C 232.992188 388.789062 233.097656 388.183594 233.234375 387.585938 C 233.371094 386.988281 233.535156 386.398438 233.726562 385.820312 C 233.917969 385.242188 234.136719 384.679688 234.386719 384.128906 C 234.632812 383.574219 234.90625 383.039062 235.207031 382.519531 C 235.507812 381.996094 235.832031 381.496094 236.183594 381.011719 C 236.535156 380.523438 236.90625 380.0625 237.304688 379.617188 C 237.699219 379.171875 238.117188 378.75 238.554688 378.351562 C 238.996094 377.953125 239.453125 377.578125 239.929688 377.230469 C 240.40625 376.878906 240.902344 376.554688 241.414062 376.257812 C 241.925781 375.960938 242.449219 375.691406 242.988281 375.445312 C 243.527344 375.203125 244.082031 374.992188 244.644531 374.804688 C 245.207031 374.621094 245.78125 374.464844 246.363281 374.339844 C 246.945312 374.214844 247.53125 374.117188 248.125 374.050781 C 248.71875 373.988281 249.316406 373.953125 249.917969 373.949219 C 250.519531 373.941406 251.121094 373.96875 251.726562 374.027344 C 252.328125 374.082031 252.925781 374.171875 253.523438 374.289062 C 254.121094 374.40625 254.714844 374.550781 255.300781 374.730469 C 255.886719 374.90625 256.46875 375.113281 257.039062 375.347656 C 257.609375 375.582031 258.167969 375.84375 258.71875 376.132812 C 259.269531 376.421875 259.804688 376.738281 260.328125 377.082031 C 260.847656 377.425781 261.355469 377.792969 261.847656 378.183594 C 262.335938 378.578125 262.808594 378.992188 263.261719 379.429688 C 263.714844 379.867188 264.148438 380.328125 264.5625 380.804688 C 264.976562 381.285156 265.367188 381.78125 265.734375 382.296875 C 266.101562 382.816406 266.445312 383.347656 266.765625 383.894531 Z M 266.765625 383.894531 "/><path style=" stroke:none;fill-rule:nonzero;fill:#000000;fill-opacity:1;" d="M 247.890625 402.996094 C 246.695312 402.496094 246.128906 401.117188 246.628906 399.917969 L 253.75 382.855469 C 254.25 381.660156 255.625 381.09375 256.824219 381.59375 C 258.023438 382.09375 258.589844 383.472656 258.089844 384.671875 L 250.96875 401.730469 C 250.46875 402.929688 249.089844 403.492188 247.890625 402.996094 Z M 247.890625 402.996094 "/><path style=" stroke:none;fill-rule:nonzero;fill:#000000;fill-opacity:1;" d="M 258.433594 400.5 L 242.980469 389.246094 C 241.929688 388.480469 241.699219 387.007812 242.460938 385.960938 C 243.226562 384.90625 244.699219 384.675781 245.75 385.441406 L 261.203125 396.695312 C 262.25 397.460938 262.484375 398.933594 261.71875 399.980469 C 260.957031 401.027344 259.492188 401.265625 258.433594 400.5 Z M 258.433594 400.5 "/><path style=" stroke:none;fill-rule:nonzero;fill:#047aff;fill-opacity:1;" d="M 349.699219 242.65625 C 350.007812 243.1875 350.292969 243.730469 350.550781 244.285156 C 350.808594 244.839844 351.042969 245.40625 351.25 245.984375 C 351.457031 246.558594 351.636719 247.144531 351.785156 247.734375 C 351.9375 248.324219 352.0625 248.921875 352.160156 249.519531 C 352.253906 250.121094 352.324219 250.722656 352.363281 251.324219 C 352.402344 251.929688 352.410156 252.53125 352.394531 253.128906 C 352.375 253.730469 352.328125 254.328125 352.253906 254.921875 C 352.179688 255.511719 352.078125 256.097656 351.945312 256.675781 C 351.8125 257.253906 351.65625 257.824219 351.46875 258.382812 C 351.28125 258.941406 351.070312 259.488281 350.832031 260.023438 C 350.589844 260.554688 350.324219 261.074219 350.035156 261.578125 C 349.746094 262.082031 349.429688 262.570312 349.089844 263.039062 C 348.753906 263.507812 348.390625 263.957031 348.007812 264.386719 C 347.625 264.816406 347.21875 265.222656 346.796875 265.609375 C 346.371094 265.996094 345.929688 266.359375 345.464844 266.695312 C 345.003906 267.035156 344.527344 267.347656 344.03125 267.636719 C 343.539062 267.925781 343.027344 268.1875 342.507812 268.421875 C 341.984375 268.65625 341.449219 268.863281 340.90625 269.042969 C 340.359375 269.21875 339.804688 269.371094 339.242188 269.492188 C 338.679688 269.613281 338.109375 269.707031 337.535156 269.769531 C 336.960938 269.832031 336.382812 269.867188 335.800781 269.871094 C 335.21875 269.875 334.636719 269.851562 334.054688 269.796875 C 333.472656 269.742188 332.890625 269.65625 332.3125 269.542969 C 331.734375 269.429688 331.164062 269.285156 330.59375 269.117188 C 330.027344 268.945312 329.464844 268.746094 328.914062 268.519531 C 328.359375 268.292969 327.820312 268.039062 327.289062 267.757812 C 326.757812 267.476562 326.238281 267.171875 325.734375 266.839844 C 325.226562 266.507812 324.738281 266.152344 324.261719 265.773438 C 323.789062 265.394531 323.332031 264.992188 322.890625 264.566406 C 322.453125 264.144531 322.035156 263.699219 321.632812 263.238281 C 321.234375 262.773438 320.859375 262.292969 320.5 261.792969 C 320.144531 261.292969 319.8125 260.777344 319.503906 260.25 C 319.195312 259.71875 318.914062 259.175781 318.652344 258.621094 C 318.394531 258.0625 318.160156 257.5 317.957031 256.921875 C 317.75 256.347656 317.570312 255.761719 317.417969 255.171875 C 317.265625 254.582031 317.140625 253.984375 317.046875 253.386719 C 316.949219 252.785156 316.882812 252.183594 316.84375 251.582031 C 316.804688 250.976562 316.792969 250.375 316.8125 249.777344 C 316.828125 249.175781 316.875 248.578125 316.949219 247.984375 C 317.023438 247.394531 317.128906 246.808594 317.257812 246.230469 C 317.390625 245.652344 317.550781 245.082031 317.734375 244.523438 C 317.921875 243.964844 318.136719 243.417969 318.375 242.882812 C 318.613281 242.351562 318.878906 241.832031 319.167969 241.328125 C 319.460938 240.824219 319.773438 240.335938 320.113281 239.867188 C 320.453125 239.398438 320.8125 238.949219 321.195312 238.519531 C 321.578125 238.089844 321.984375 237.683594 322.410156 237.296875 C 322.832031 236.910156 323.277344 236.546875 323.738281 236.210938 C 324.199219 235.871094 324.679688 235.558594 325.171875 235.269531 C 325.667969 234.980469 326.175781 234.71875 326.699219 234.484375 C 327.21875 234.25 327.753906 234.042969 328.300781 233.863281 C 328.84375 233.6875 329.398438 233.535156 329.960938 233.414062 C 330.523438 233.292969 331.09375 233.199219 331.667969 233.136719 C 332.242188 233.074219 332.820312 233.039062 333.402344 233.035156 C 333.984375 233.03125 334.566406 233.054688 335.148438 233.109375 C 335.734375 233.164062 336.3125 233.25 336.890625 233.363281 C 337.46875 233.476562 338.042969 233.621094 338.609375 233.789062 C 339.179688 233.960938 339.738281 234.160156 340.289062 234.386719 C 340.84375 234.613281 341.386719 234.867188 341.917969 235.148438 C 342.449219 235.429688 342.964844 235.734375 343.472656 236.066406 C 343.976562 236.398438 344.46875 236.753906 344.941406 237.132812 C 345.417969 237.511719 345.875 237.914062 346.3125 238.339844 C 346.75 238.761719 347.171875 239.207031 347.570312 239.667969 C 347.96875 240.132812 348.347656 240.613281 348.703125 241.113281 C 349.058594 241.613281 349.390625 242.128906 349.699219 242.65625 Z M 349.699219 242.65625 "/><path style=" stroke:none;fill-rule:nonzero;fill:#000000;fill-opacity:1;" d="M 331.410156 261.207031 C 330.214844 260.710938 329.648438 259.332031 330.148438 258.132812 L 337.039062 241.625 C 337.539062 240.425781 338.910156 239.859375 340.113281 240.363281 C 341.3125 240.859375 341.878906 242.238281 341.378906 243.4375 L 334.488281 259.945312 C 333.984375 261.144531 332.609375 261.707031 331.410156 261.207031 Z M 331.410156 261.207031 "/><path style=" stroke:none;fill-rule:nonzero;fill:#000000;fill-opacity:1;" d="M 341.59375 258.785156 L 326.644531 247.898438 C 325.59375 247.132812 325.363281 245.660156 326.125 244.613281 C 326.890625 243.558594 328.363281 243.332031 329.414062 244.09375 L 344.363281 254.980469 C 345.414062 255.746094 345.644531 257.21875 344.878906 258.269531 C 344.117188 259.3125 342.652344 259.554688 341.59375 258.785156 Z M 341.59375 258.785156 "/><path style=" stroke:none;fill-rule:nonzero;fill:#047aff;fill-opacity:1;" d="M 355.582031 323.953125 L 345.847656 281.683594 C 345.457031 279.992188 345.777344 278.226562 346.722656 276.835938 C 347.636719 275.492188 349.023438 274.617188 350.628906 274.375 C 412.476562 265.03125 406.683594 265.859375 410.632812 265.324219 C 412.261719 265.101562 413.890625 264.882812 415.484375 264.589844 C 416.140625 264.472656 417.503906 264.21875 418.878906 265.0625 C 420.308594 265.9375 420.832031 267.347656 421.1875 268.851562 C 430.871094 310.777344 431.390625 309.941406 431.324219 314.144531 C 431.273438 316.832031 429.699219 318.03125 427.011719 318.429688 L 362.621094 328.851562 C 359.394531 329.375 356.328125 327.1875 355.582031 323.953125 Z M 416.414062 269.207031 C 411.488281 269.992188 435.507812 266.332031 351.332031 279.027344 C 350.609375 279.136719 350.261719 279.890625 350.429688 280.628906 L 360.164062 322.894531 C 360.355469 323.726562 361.144531 324.339844 361.871094 324.207031 C 450.601562 309.851562 420 314.816406 426.617188 313.730469 C 426.605469 312.804688 426.515625 311.964844 426.351562 311.136719 C 415.25 264.179688 416.527344 269.496094 416.414062 269.207031 Z M 416.414062 269.207031 "/><path style=" stroke:none;fill-rule:nonzero;fill:#047aff;fill-opacity:1;" d="M 389.480469 298.425781 C 388.429688 298.285156 390.832031 299.078125 349.226562 281.046875 C 348.03125 280.53125 347.488281 279.144531 348.007812 277.953125 C 348.527344 276.765625 349.914062 276.222656 351.101562 276.738281 L 389.230469 293.34375 L 415.710938 267.574219 C 416.644531 266.667969 418.136719 266.6875 419.039062 267.617188 C 419.945312 268.550781 419.925781 270.039062 418.992188 270.945312 L 391.417969 297.777344 C 390.917969 298.265625 390.214844 298.515625 389.480469 298.425781 Z M 389.480469 298.425781 "/><path style=" stroke:none;fill-rule:nonzero;fill:#047aff;fill-opacity:1;" d="M 357.988281 326.496094 C 356.953125 325.714844 356.746094 324.238281 357.53125 323.203125 L 379.933594 293.5625 C 380.71875 292.523438 382.195312 292.316406 383.230469 293.105469 C 384.265625 293.886719 384.472656 295.359375 383.6875 296.398438 L 361.285156 326.039062 C 360.496094 327.078125 359.019531 327.277344 357.988281 326.496094 Z M 357.988281 326.496094 "/><path style=" stroke:none;fill-rule:nonzero;fill:#047aff;fill-opacity:1;" d="M 425.167969 314.746094 L 394.613281 294.222656 C 393.53125 293.5 393.246094 292.039062 393.96875 290.960938 C 394.695312 289.878906 396.164062 289.597656 397.234375 290.320312 L 427.789062 310.839844 C 428.871094 311.5625 429.15625 313.023438 428.429688 314.101562 C 427.703125 315.191406 426.234375 315.464844 425.167969 314.746094 Z M 425.167969 314.746094 "/><path style=" stroke:none;fill-rule:nonzero;fill:#000000;fill-opacity:1;" d="M 77.367188 511.0625 C 65.21875 485.207031 65.085938 485.605469 65.140625 482.902344 C 65.175781 480.894531 66.433594 478.757812 68.363281 478.476562 C 70.914062 478.101562 72.75 480.851562 73.917969 483.214844 C 77.238281 489.949219 80.558594 496.683594 83.882812 503.417969 C 83.773438 503.199219 86.386719 500.503906 86.664062 500.179688 C 113.476562 468.824219 119.492188 458.753906 130.78125 452.273438 C 134.449219 450.167969 135.898438 451.417969 134.632812 453.648438 C 133.511719 455.613281 132.964844 456.253906 124.019531 468.226562 C 122.433594 470.34375 120.558594 472.363281 118.890625 474.445312 C 83.902344 518.175781 86.011719 515.898438 84.523438 516.609375 C 82.761719 517.449219 80.582031 516.71875 79.183594 515.324219 C 77.789062 513.933594 78.214844 512.863281 77.367188 511.0625 Z M 77.367188 511.0625 "/><path style=" stroke:none;fill-rule:nonzero;fill:#000000;fill-opacity:1;" d="M 84.496094 593.445312 C 79.039062 574.527344 92.644531 553.621094 114.828125 546.839844 C 136.378906 540.246094 159.398438 549.332031 165.042969 568.886719 C 170.503906 587.800781 156.898438 608.707031 134.714844 615.492188 C 113.164062 622.085938 90.140625 613 84.496094 593.445312 Z M 116.203125 551.339844 C 96.460938 557.375 84.265625 575.679688 89.019531 592.140625 C 91.015625 599.0625 95.882812 604.917969 102.71875 608.621094 C 111.523438 613.390625 122.683594 614.257812 133.339844 610.992188 C 153.082031 604.957031 165.277344 586.652344 160.523438 570.191406 C 155.539062 552.921875 134.941406 545.605469 116.203125 551.339844 Z M 116.203125 551.339844 "/><path style=" stroke:none;fill-rule:nonzero;fill:#047aff;fill-opacity:1;" d="M 121.496094 595.617188 C 104.960938 576.945312 104.972656 577.320312 104.371094 575.066406 C 103.914062 573.367188 104.453125 571.246094 106.007812 570.511719 C 108.066406 569.542969 110.273438 571.382812 111.832031 573.074219 C 116.261719 577.882812 120.691406 582.695312 125.121094 587.503906 C 124.976562 587.351562 126.523438 584.410156 126.675781 584.066406 C 141.425781 551.21875 144.199219 540.804688 152.164062 532.40625 C 154.746094 529.683594 156.261719 530.378906 155.738281 532.570312 C 155.273438 534.515625 154.957031 535.214844 150.347656 547.570312 C 149.53125 549.757812 148.441406 551.9375 147.542969 554.121094 C 128.722656 599.921875 129.945312 597.460938 128.863281 598.441406 C 127.585938 599.601562 125.574219 599.546875 124.0625 598.734375 C 122.550781 597.921875 122.648438 596.914062 121.496094 595.617188 Z M 121.496094 595.617188 "/><path style=" stroke:none;fill-rule:nonzero;fill:#047aff;fill-opacity:1;" d="M 42.417969 307.144531 C 19.933594 285.988281 14.257812 253.5 19.886719 237.335938 C 0.101562 211.976562 3.152344 170.652344 26.496094 148.703125 C 27.441406 147.8125 28.933594 147.855469 29.820312 148.804688 C 30.710938 149.75 30.664062 151.238281 29.71875 152.128906 C 8.636719 171.953125 5.382812 208.796875 22.132812 232.46875 C 29.09375 220.746094 44.066406 218.566406 50.558594 229.667969 C 52.589844 233.144531 53.007812 237.078125 51.710938 240.46875 C 49.09375 247.3125 41.078125 249.859375 34.839844 248.363281 C 30.917969 247.425781 27.199219 245.175781 23.5625 241.527344 C 22.738281 244.988281 22.449219 248.996094 22.683594 253.625 C 24.6875 293.558594 57.675781 324.324219 96.070312 322.738281 C 97.363281 322.675781 98.460938 323.703125 98.511719 325 C 98.5625 326.296875 97.550781 327.390625 96.253906 327.441406 C 76.242188 328.230469 56.703125 320.582031 42.417969 307.144531 Z M 25.304688 236.507812 C 28.84375 240.539062 32.335938 242.929688 35.9375 243.789062 C 40.105469 244.785156 45.644531 243.15625 47.316406 238.785156 C 49.160156 233.972656 44.847656 227.972656 39.785156 227.21875 C 34.714844 226.480469 29.035156 229.777344 25.953125 235.261719 C 25.726562 235.667969 25.507812 236.082031 25.304688 236.507812 Z M 25.304688 236.507812 "/><path style=" stroke:none;fill-rule:nonzero;fill:#000000;fill-opacity:1;" d="M 307.902344 397.160156 C 285.726562 394.320312 269.46875 417.09375 278.585938 439.695312 C 280.4375 444.277344 283.859375 448.066406 287.417969 451.363281 C 291.992188 455.601562 297.476562 458 303.441406 458.761719 C 319.742188 460.851562 333.976562 448.746094 335.207031 431.734375 C 336.441406 414.722656 324.203125 399.25 307.902344 397.160156 Z M 301.984375 441.683594 L 295.402344 421.1875 L 320.742188 424.285156 Z M 301.984375 441.683594 "/><path style=" stroke:none;fill-rule:nonzero;fill:#047aff;fill-opacity:1;" d="M 501.21875 640.570312 C 506.875 639.53125 512.515625 643.574219 513.734375 649.523438 C 514.925781 655.316406 511.453125 660.746094 505.9375 661.71875 C 505.9375 661.71875 359.679688 687.554688 359.597656 687.570312 C 356.6875 688.085938 353.578125 687.238281 351.164062 685.273438 C 348.273438 682.929688 345.703125 677.707031 347.359375 674.226562 C 351.261719 666.019531 359.421875 666.582031 370.15625 664.601562 C 404.734375 658.234375 466.917969 646.84375 501.21875 640.570312 Z M 501.21875 640.570312 "/><path style=" stroke:none;fill-rule:nonzero;fill:#000000;fill-opacity:1;" d="M 445.453125 655.894531 C 448.652344 655.308594 451.847656 657.597656 452.539062 660.960938 C 453.210938 664.242188 451.246094 667.316406 448.125 667.867188 C 448.125 667.867188 365.335938 682.488281 365.289062 682.5 C 363.640625 682.789062 361.882812 682.308594 360.515625 681.199219 C 358.878906 679.871094 357.425781 676.914062 358.363281 674.945312 C 360.582031 670.277344 365.238281 670.609375 371.265625 669.5 C 388.699219 666.285156 418.082031 660.902344 435.675781 657.683594 C 438.933594 657.085938 442.191406 656.488281 445.453125 655.894531 Z M 445.453125 655.894531 "/><path style=" stroke:none;fill-rule:nonzero;fill:#047aff;fill-opacity:1;" d="M 279.363281 290.980469 C 279.640625 291.457031 279.898438 291.945312 280.128906 292.445312 C 280.363281 292.945312 280.570312 293.453125 280.757812 293.96875 C 280.941406 294.488281 281.105469 295.011719 281.238281 295.542969 C 281.375 296.074219 281.488281 296.609375 281.574219 297.148438 C 281.660156 297.6875 281.722656 298.226562 281.757812 298.769531 C 281.792969 299.3125 281.800781 299.851562 281.785156 300.394531 C 281.769531 300.933594 281.726562 301.46875 281.660156 302 C 281.59375 302.535156 281.5 303.058594 281.382812 303.578125 C 281.265625 304.097656 281.121094 304.609375 280.953125 305.113281 C 280.785156 305.617188 280.59375 306.105469 280.378906 306.585938 C 280.164062 307.066406 279.925781 307.53125 279.664062 307.984375 C 279.40625 308.4375 279.121094 308.875 278.816406 309.296875 C 278.511719 309.71875 278.1875 310.121094 277.84375 310.507812 C 277.5 310.894531 277.136719 311.261719 276.753906 311.609375 C 276.371094 311.953125 275.972656 312.28125 275.558594 312.585938 C 275.144531 312.890625 274.714844 313.171875 274.269531 313.429688 C 273.824219 313.6875 273.367188 313.921875 272.898438 314.132812 C 272.429688 314.34375 271.949219 314.53125 271.460938 314.691406 C 270.96875 314.851562 270.472656 314.988281 269.964844 315.097656 C 269.460938 315.207031 268.949219 315.289062 268.433594 315.347656 C 267.914062 315.402344 267.394531 315.433594 266.871094 315.4375 C 266.351562 315.441406 265.828125 315.417969 265.304688 315.371094 C 264.777344 315.320312 264.257812 315.246094 263.738281 315.144531 C 263.21875 315.039062 262.703125 314.914062 262.191406 314.757812 C 261.683594 314.605469 261.179688 314.425781 260.683594 314.222656 C 260.1875 314.019531 259.699219 313.789062 259.222656 313.539062 C 258.742188 313.285156 258.277344 313.011719 257.824219 312.714844 C 257.371094 312.414062 256.929688 312.09375 256.503906 311.753906 C 256.074219 311.414062 255.664062 311.054688 255.269531 310.671875 C 254.875 310.292969 254.5 309.894531 254.140625 309.476562 C 253.78125 309.058594 253.441406 308.625 253.121094 308.179688 C 252.804688 307.730469 252.503906 307.265625 252.226562 306.789062 C 251.949219 306.3125 251.695312 305.828125 251.460938 305.328125 C 251.230469 304.828125 251.019531 304.320312 250.835938 303.800781 C 250.648438 303.285156 250.488281 302.757812 250.351562 302.226562 C 250.214844 301.699219 250.101562 301.164062 250.015625 300.625 C 249.929688 300.085938 249.871094 299.542969 249.835938 299 C 249.800781 298.460938 249.789062 297.917969 249.804688 297.378906 C 249.820312 296.839844 249.863281 296.300781 249.929688 295.769531 C 250 295.238281 250.089844 294.710938 250.207031 294.191406 C 250.328125 293.671875 250.46875 293.160156 250.636719 292.65625 C 250.804688 292.15625 250.996094 291.664062 251.210938 291.183594 C 251.425781 290.703125 251.664062 290.238281 251.925781 289.785156 C 252.1875 289.332031 252.46875 288.894531 252.773438 288.472656 C 253.078125 288.050781 253.402344 287.648438 253.746094 287.261719 C 254.09375 286.875 254.457031 286.511719 254.835938 286.164062 C 255.21875 285.816406 255.617188 285.492188 256.03125 285.1875 C 256.449219 284.882812 256.878906 284.601562 257.320312 284.339844 C 257.765625 284.082031 258.222656 283.847656 258.691406 283.636719 C 259.160156 283.425781 259.640625 283.238281 260.132812 283.078125 C 260.621094 282.917969 261.121094 282.78125 261.625 282.671875 C 262.132812 282.5625 262.640625 282.480469 263.160156 282.421875 C 263.675781 282.367188 264.195312 282.335938 264.71875 282.332031 C 265.242188 282.328125 265.765625 282.351562 266.289062 282.402344 C 266.8125 282.449219 267.332031 282.527344 267.851562 282.628906 C 268.371094 282.730469 268.886719 282.859375 269.398438 283.011719 C 269.910156 283.164062 270.414062 283.34375 270.910156 283.546875 C 271.40625 283.753906 271.890625 283.980469 272.371094 284.234375 C 272.847656 284.484375 273.3125 284.761719 273.769531 285.058594 C 274.222656 285.355469 274.664062 285.675781 275.089844 286.015625 C 275.515625 286.359375 275.925781 286.71875 276.320312 287.097656 C 276.714844 287.480469 277.09375 287.878906 277.449219 288.292969 C 277.808594 288.710938 278.148438 289.144531 278.46875 289.59375 C 278.789062 290.042969 279.085938 290.503906 279.363281 290.980469 Z M 279.363281 290.980469 "/><path style=" stroke:none;fill-rule:nonzero;fill:#047aff;fill-opacity:1;" d="M 301.339844 327.941406 C 296.976562 322.359375 291.496094 317.457031 285.222656 314.3125 C 277.878906 310.632812 268.878906 309.824219 262.316406 314.105469 C 258.269531 316.746094 255.519531 321.011719 253.257812 325.382812 C 251.4375 328.898438 249.246094 333.042969 248.828125 337.125 C 248.738281 337.992188 248.746094 338.914062 249.132812 339.71875 C 250.085938 341.703125 253.136719 341.371094 254.820312 341.425781 C 257.328125 341.507812 259.832031 341.4375 262.320312 341.246094 C 273.867188 340.351562 289.703125 335.667969 299.832031 332.042969 C 300.542969 331.789062 301.839844 331.546875 302.1875 330.785156 C 302.628906 329.8125 301.992188 328.777344 301.339844 327.941406 Z M 301.339844 327.941406 "/><path style=" stroke:none;fill-rule:nonzero;fill:#047aff;fill-opacity:1;" d="M 231.71875 263.144531 C 232.039062 263.691406 232.332031 264.253906 232.597656 264.828125 C 232.867188 265.402344 233.105469 265.984375 233.320312 266.582031 C 233.535156 267.175781 233.71875 267.78125 233.875 268.390625 C 234.035156 269 234.160156 269.617188 234.261719 270.238281 C 234.359375 270.855469 234.429688 271.476562 234.472656 272.101562 C 234.511719 272.726562 234.523438 273.347656 234.503906 273.96875 C 234.484375 274.589844 234.4375 275.207031 234.359375 275.820312 C 234.28125 276.429688 234.175781 277.035156 234.039062 277.632812 C 233.90625 278.230469 233.742188 278.820312 233.546875 279.398438 C 233.355469 279.976562 233.136719 280.539062 232.886719 281.09375 C 232.640625 281.644531 232.367188 282.179688 232.066406 282.699219 C 231.765625 283.222656 231.441406 283.726562 231.089844 284.210938 C 230.742188 284.695312 230.367188 285.160156 229.972656 285.601562 C 229.574219 286.046875 229.15625 286.46875 228.71875 286.867188 C 228.28125 287.265625 227.820312 287.640625 227.34375 287.988281 C 226.867188 288.339844 226.371094 288.664062 225.863281 288.960938 C 225.351562 289.257812 224.824219 289.53125 224.285156 289.773438 C 223.746094 290.015625 223.195312 290.230469 222.628906 290.414062 C 222.066406 290.597656 221.492188 290.753906 220.910156 290.878906 C 220.332031 291.007812 219.742188 291.101562 219.148438 291.167969 C 218.554688 291.234375 217.957031 291.265625 217.355469 291.273438 C 216.753906 291.277344 216.152344 291.25 215.550781 291.191406 C 214.945312 291.136719 214.347656 291.050781 213.75 290.933594 C 213.152344 290.8125 212.558594 290.667969 211.972656 290.492188 C 211.386719 290.3125 210.808594 290.109375 210.234375 289.875 C 209.664062 289.636719 209.105469 289.375 208.554688 289.085938 C 208.007812 288.796875 207.46875 288.480469 206.949219 288.136719 C 206.425781 287.792969 205.917969 287.425781 205.429688 287.035156 C 204.9375 286.640625 204.464844 286.226562 204.011719 285.789062 C 203.558594 285.351562 203.125 284.894531 202.710938 284.414062 C 202.300781 283.933594 201.910156 283.4375 201.539062 282.921875 C 201.171875 282.40625 200.828125 281.871094 200.511719 281.324219 C 200.191406 280.777344 199.898438 280.214844 199.628906 279.640625 C 199.363281 279.066406 199.121094 278.480469 198.910156 277.886719 C 198.695312 277.292969 198.511719 276.6875 198.351562 276.078125 C 198.195312 275.464844 198.066406 274.851562 197.96875 274.230469 C 197.867188 273.609375 197.800781 272.988281 197.757812 272.367188 C 197.71875 271.742188 197.707031 271.121094 197.726562 270.5 C 197.742188 269.878906 197.792969 269.261719 197.871094 268.648438 C 197.945312 268.035156 198.054688 267.429688 198.1875 266.832031 C 198.324219 266.234375 198.488281 265.648438 198.679688 265.070312 C 198.875 264.492188 199.09375 263.925781 199.339844 263.375 C 199.589844 262.824219 199.863281 262.289062 200.164062 261.765625 C 200.464844 261.246094 200.789062 260.742188 201.136719 260.257812 C 201.488281 259.773438 201.863281 259.308594 202.257812 258.863281 C 202.65625 258.421875 203.070312 258 203.511719 257.601562 C 203.949219 257.203125 204.410156 256.828125 204.886719 256.476562 C 205.363281 256.128906 205.855469 255.804688 206.367188 255.507812 C 206.878906 255.207031 207.40625 254.9375 207.945312 254.695312 C 208.484375 254.453125 209.035156 254.238281 209.601562 254.054688 C 210.164062 253.867188 210.734375 253.714844 211.316406 253.585938 C 211.898438 253.460938 212.488281 253.367188 213.082031 253.300781 C 213.675781 253.234375 214.273438 253.199219 214.875 253.195312 C 215.476562 253.191406 216.078125 253.21875 216.679688 253.273438 C 217.28125 253.332031 217.882812 253.417969 218.480469 253.535156 C 219.078125 253.652344 219.667969 253.800781 220.257812 253.976562 C 220.84375 254.152344 221.421875 254.359375 221.992188 254.59375 C 222.566406 254.828125 223.125 255.089844 223.675781 255.382812 C 224.222656 255.671875 224.757812 255.988281 225.28125 256.332031 C 225.804688 256.671875 226.3125 257.042969 226.800781 257.433594 C 227.292969 257.824219 227.765625 258.242188 228.21875 258.679688 C 228.671875 259.117188 229.105469 259.574219 229.519531 260.054688 C 229.929688 260.535156 230.320312 261.03125 230.6875 261.546875 C 231.054688 262.0625 231.398438 262.59375 231.71875 263.144531 Z M 231.71875 263.144531 "/><path style=" stroke:none;fill-rule:nonzero;fill:#000000;fill-opacity:1;" d="M 212.84375 282.242188 C 211.648438 281.742188 211.082031 280.363281 211.582031 279.164062 L 218.703125 262.105469 C 219.207031 260.90625 220.578125 260.339844 221.78125 260.839844 C 222.980469 261.339844 223.546875 262.71875 223.046875 263.917969 L 215.921875 280.976562 C 215.421875 282.179688 214.042969 282.742188 212.84375 282.242188 Z M 212.84375 282.242188 "/><path style=" stroke:none;fill-rule:nonzero;fill:#000000;fill-opacity:1;" d="M 223.386719 279.746094 L 207.933594 268.492188 C 206.882812 267.726562 206.652344 266.253906 207.417969 265.207031 C 208.183594 264.15625 209.652344 263.925781 210.703125 264.6875 L 226.15625 275.941406 C 227.207031 276.707031 227.4375 278.179688 226.671875 279.230469 C 225.910156 280.273438 224.445312 280.515625 223.386719 279.746094 Z M 223.386719 279.746094 "/></g></svg>