<svg xmlns="http://www.w3.org/2000/svg" xmlns:xlink="http://www.w3.org/1999/xlink" width="500" zoomAndPan="magnify" viewBox="0 0 375 374.999991" height="500" preserveAspectRatio="xMidYMid meet" version="1.0"><defs><g/><clipPath id="6c7bd9135d"><path d="M 66 64.347656 L 118 64.347656 L 118 246 L 66 246 Z M 66 64.347656 " clip-rule="nonzero"/></clipPath></defs><rect x="-37.5" width="450" fill="#ffffff" y="-37.499999" height="449.999989" fill-opacity="1"/><rect x="-37.5" width="450" fill="#ffffff" y="-37.499999" height="449.999989" fill-opacity="1"/><path fill="#35359e" d="M 42.472656 164.875 C 36.375 208.824219 70.316406 225.886719 102.613281 250.246094 C 134.910156 274.605469 112.953125 310.644531 112.953125 310.644531 C 125.507812 269.824219 84.269531 268.492188 42.160156 235.742188 C 0.0546875 202.996094 42.472656 164.875 42.472656 164.875 " fill-opacity="1" fill-rule="nonzero"/><path fill="#1414a5" d="M 41.171875 87.746094 C 41.171875 87.746094 103.804688 96.972656 76.089844 168.457031 C 76.089844 168.457031 59.828125 206.816406 94.847656 238.753906 C 94.847656 238.753906 35.425781 202.808594 49.773438 160.324219 C 64.121094 117.839844 57.804688 99.828125 41.171875 87.746094 " fill-opacity="1" fill-rule="nonzero"/><g clip-path="url(#6c7bd9135d)"><path fill="#7a80d7" d="M 105.316406 245.054688 C 105.316406 245.054688 70.234375 210.605469 79.808594 178.292969 C 93.3125 132.722656 98.042969 107.121094 66.742188 64.347656 C 66.742188 64.347656 148.988281 112.597656 104.1875 204.0625 C 104.1875 204.0625 92.425781 228.988281 105.316406 245.054688 " fill-opacity="1" fill-rule="nonzero"/></g><g fill="#35359e" fill-opacity="1"><g transform="translate(123.700148, 214.791331)"><g><path d="M 21.585938 -26.589844 L 21.585938 -20.652344 L 14.332031 -20.652344 L 14.332031 0 L 7.761719 0 L 7.761719 -20.652344 L 0.507812 -20.652344 L 0.507812 -26.589844 Z M 21.585938 -26.589844 "/></g></g></g><g fill="#35359e" fill-opacity="1"><g transform="translate(148.419429, 214.791331)"><g><path d="M 20.355469 -6.148438 L 20.355469 0 L 2.035156 0 L 2.035156 -26.589844 L 19.972656 -26.589844 L 19.972656 -20.652344 L 8.609375 -20.652344 L 8.609375 -16.242188 L 18.402344 -16.242188 L 18.402344 -10.730469 L 8.609375 -10.730469 L 8.609375 -6.148438 Z M 20.355469 -6.148438 "/></g></g></g><g fill="#35359e" fill-opacity="1"><g transform="translate(172.460319, 214.791331)"><g><path d="M 13.570312 -5.726562 C 14.699219 -5.726562 15.929688 -5.84375 17.257812 -6.085938 C 18.589844 -6.324219 19.773438 -6.644531 20.820312 -7.039062 L 20.820312 -1.230469 C 19.265625 -0.609375 17.867188 -0.175781 16.625 0.0625 C 15.378906 0.304688 14.078125 0.425781 12.722656 0.425781 C 10.261719 0.425781 8.296875 0.140625 6.828125 -0.425781 C 5.355469 -0.988281 4.183594 -1.894531 3.308594 -3.136719 C 2.574219 -4.210938 2.027344 -5.582031 1.675781 -7.25 C 1.320312 -8.917969 1.144531 -10.941406 1.144531 -13.316406 C 1.144531 -18.066406 2.167969 -21.535156 4.21875 -23.726562 C 6.269531 -25.917969 9.527344 -27.011719 13.992188 -27.011719 C 15.292969 -27.011719 16.453125 -26.984375 17.472656 -26.929688 C 18.488281 -26.871094 19.40625 -26.773438 20.226562 -26.632812 L 20.226562 -20.90625 C 19.292969 -20.960938 18.328125 -21.003906 17.324219 -21.035156 C 16.320312 -21.0625 15.210938 -21.074219 13.992188 -21.074219 C 12.4375 -21.074219 11.285156 -20.925781 10.539062 -20.628906 C 9.789062 -20.332031 9.230469 -19.816406 8.863281 -19.082031 C 8.523438 -18.515625 8.285156 -17.769531 8.140625 -16.835938 C 8 -15.902344 7.929688 -14.730469 7.929688 -13.316406 C 7.929688 -11.988281 7.992188 -10.878906 8.121094 -9.988281 C 8.246094 -9.097656 8.453125 -8.355469 8.734375 -7.761719 C 9.101562 -7.023438 9.640625 -6.503906 10.347656 -6.191406 C 11.054688 -5.878906 12.128906 -5.726562 13.570312 -5.726562 Z M 13.570312 -5.726562 "/></g></g></g><g fill="#35359e" fill-opacity="1"><g transform="translate(196.628411, 214.791331)"><g><path d="M 8.609375 0 L 2.035156 0 L 2.035156 -26.589844 L 8.609375 -26.589844 L 8.609375 -16.453125 L 17.9375 -16.453125 L 17.9375 -26.589844 L 24.511719 -26.589844 L 24.511719 0 L 17.9375 0 L 17.9375 -10.515625 L 8.609375 -10.515625 Z M 8.609375 0 "/></g></g></g><g fill="#35359e" fill-opacity="1"><g transform="translate(225.799586, 214.791331)"><g><path d="M 9.117188 0 L -0.0859375 -26.589844 L 7.25 -26.589844 L 11.195312 -13.441406 C 11.449219 -12.566406 11.761719 -11.398438 12.128906 -9.945312 C 12.496094 -8.488281 12.847656 -7.039062 13.1875 -5.597656 C 13.808594 -8.171875 14.253906 -9.980469 14.523438 -11.027344 C 14.792969 -12.070312 14.996094 -12.863281 15.140625 -13.398438 L 19.039062 -26.589844 L 26.164062 -26.589844 L 17.003906 0 Z M 9.117188 0 "/></g></g></g><g fill="#35359e" fill-opacity="1"><g transform="translate(254.504378, 214.791331)"><g><path d="M 20.355469 -6.148438 L 20.355469 0 L 2.035156 0 L 2.035156 -26.589844 L 19.972656 -26.589844 L 19.972656 -20.652344 L 8.609375 -20.652344 L 8.609375 -16.242188 L 18.402344 -16.242188 L 18.402344 -10.730469 L 8.609375 -10.730469 L 8.609375 -6.148438 Z M 20.355469 -6.148438 "/></g></g></g><g fill="#35359e" fill-opacity="1"><g transform="translate(278.545268, 214.791331)"><g><path d="M 8.609375 -8.566406 L 8.609375 0 L 2.035156 0 L 2.035156 -26.589844 L 11.746094 -26.589844 C 15.847656 -26.589844 18.757812 -25.894531 20.480469 -24.511719 C 22.207031 -23.125 23.070312 -20.820312 23.070312 -17.597656 C 23.070312 -15.421875 22.609375 -13.648438 21.691406 -12.277344 C 20.773438 -10.90625 19.378906 -9.910156 17.515625 -9.285156 L 24 0 L 16.113281 0 L 10.601562 -8.566406 Z M 16.410156 -17.597656 C 16.410156 -18.730469 16.070312 -19.519531 15.394531 -19.972656 C 14.714844 -20.425781 13.5 -20.652344 11.746094 -20.652344 L 8.609375 -20.652344 L 8.609375 -13.867188 L 11.746094 -13.867188 C 13.5 -13.867188 14.714844 -14.140625 15.394531 -14.695312 C 16.070312 -15.246094 16.410156 -16.214844 16.410156 -17.597656 Z M 16.410156 -17.597656 "/></g></g></g><g fill="#35359e" fill-opacity="1"><g transform="translate(305.638889, 214.791331)"><g><path d="M 12.128906 -9.921875 L 6.742188 -11.195312 C 4.59375 -11.703125 3.132812 -12.480469 2.355469 -13.527344 C 1.574219 -14.574219 1.1875 -16.070312 1.1875 -18.023438 C 1.1875 -21.105469 2 -23.371094 3.625 -24.828125 C 5.25 -26.285156 7.773438 -27.011719 11.195312 -27.011719 C 12.609375 -27.011719 13.867188 -26.957031 14.96875 -26.84375 C 16.070312 -26.730469 17.089844 -26.53125 18.023438 -26.25 L 18.023438 -20.355469 C 15.875 -20.722656 14.398438 -20.933594 13.589844 -20.992188 C 12.785156 -21.046875 11.945312 -21.074219 11.066406 -21.074219 C 9.878906 -21.074219 9.019531 -20.878906 8.480469 -20.480469 C 7.945312 -20.085938 7.675781 -19.421875 7.675781 -18.488281 C 7.675781 -18.035156 7.761719 -17.691406 7.929688 -17.449219 C 8.097656 -17.210938 8.425781 -17.03125 8.90625 -16.921875 L 13.992188 -15.734375 C 15.464844 -15.394531 16.523438 -15.0625 17.175781 -14.734375 C 17.824219 -14.410156 18.347656 -13.992188 18.742188 -13.484375 C 19.195312 -12.949219 19.527344 -12.253906 19.738281 -11.40625 C 19.953125 -10.558594 20.058594 -9.527344 20.058594 -8.3125 C 20.058594 -5.230469 19.238281 -3.003906 17.597656 -1.632812 C 15.957031 -0.261719 13.414062 0.425781 9.964844 0.425781 C 8.210938 0.425781 6.542969 0.316406 4.960938 0.105469 C 3.378906 -0.105469 2.148438 -0.367188 1.273438 -0.679688 L 1.273438 -6.914062 C 2.402344 -6.542969 3.746094 -6.253906 5.300781 -6.042969 C 6.855469 -5.832031 8.410156 -5.726562 9.964844 -5.726562 C 11.210938 -5.726562 12.070312 -5.878906 12.550781 -6.191406 C 13.03125 -6.503906 13.273438 -7.125 13.273438 -8.058594 C 13.273438 -8.652344 13.195312 -9.082031 13.039062 -9.351562 C 12.882812 -9.617188 12.582031 -9.808594 12.128906 -9.921875 Z M 12.128906 -9.921875 "/></g></g></g><g fill="#35359e" fill-opacity="1"><g transform="translate(329.001403, 214.791331)"><g><path d="M 20.355469 -6.148438 L 20.355469 0 L 2.035156 0 L 2.035156 -26.589844 L 19.972656 -26.589844 L 19.972656 -20.652344 L 8.609375 -20.652344 L 8.609375 -16.242188 L 18.402344 -16.242188 L 18.402344 -10.730469 L 8.609375 -10.730469 L 8.609375 -6.148438 Z M 20.355469 -6.148438 "/></g></g></g><g fill="#35359e" fill-opacity="1"><g transform="translate(215.000938, 243.392929)"><g><path d="M 10.074219 -3.90625 C 10.074219 -2.636719 9.617188 -1.636719 8.703125 -0.90625 C 7.789062 -0.171875 6.515625 0.191406 4.886719 0.191406 C 3.386719 0.191406 2.058594 -0.0898438 0.90625 -0.652344 L 0.90625 -3.425781 C 1.851562 -3 2.65625 -2.703125 3.3125 -2.53125 C 3.972656 -2.355469 4.574219 -2.269531 5.117188 -2.269531 C 5.773438 -2.269531 6.273438 -2.394531 6.625 -2.644531 C 6.972656 -2.894531 7.148438 -3.269531 7.148438 -3.761719 C 7.148438 -4.039062 7.070312 -4.28125 6.917969 -4.496094 C 6.761719 -4.710938 6.535156 -4.917969 6.238281 -5.117188 C 5.941406 -5.316406 5.332031 -5.632812 4.414062 -6.070312 C 3.554688 -6.472656 2.910156 -6.863281 2.480469 -7.234375 C 2.050781 -7.605469 1.710938 -8.039062 1.453125 -8.53125 C 1.195312 -9.027344 1.066406 -9.605469 1.066406 -10.265625 C 1.066406 -11.507812 1.488281 -12.488281 2.332031 -13.199219 C 3.175781 -13.910156 4.34375 -14.265625 5.828125 -14.265625 C 6.5625 -14.265625 7.257812 -14.179688 7.921875 -14.007812 C 8.585938 -13.832031 9.28125 -13.589844 10.003906 -13.277344 L 9.042969 -10.957031 C 8.292969 -11.265625 7.671875 -11.480469 7.179688 -11.601562 C 6.691406 -11.722656 6.207031 -11.785156 5.734375 -11.785156 C 5.167969 -11.785156 4.738281 -11.652344 4.433594 -11.390625 C 4.132812 -11.128906 3.984375 -10.785156 3.984375 -10.359375 C 3.984375 -10.097656 4.042969 -9.867188 4.164062 -9.671875 C 4.289062 -9.476562 4.480469 -9.289062 4.746094 -9.105469 C 5.015625 -8.921875 5.644531 -8.59375 6.636719 -8.121094 C 7.953125 -7.492188 8.855469 -6.859375 9.339844 -6.230469 C 9.828125 -5.597656 10.074219 -4.824219 10.074219 -3.90625 Z M 10.074219 -3.90625 "/></g></g></g><g fill="#35359e" fill-opacity="1"><g transform="translate(228.669013, 243.392929)"><g><path d="M 14.535156 -7.050781 C 14.535156 -4.722656 13.960938 -2.933594 12.804688 -1.683594 C 11.648438 -0.433594 9.996094 0.191406 7.839844 0.191406 C 5.6875 0.191406 4.03125 -0.433594 2.875 -1.683594 C 1.722656 -2.933594 1.144531 -4.730469 1.144531 -7.070312 C 1.144531 -9.410156 1.722656 -11.199219 2.882812 -12.433594 C 4.039062 -13.667969 5.699219 -14.285156 7.859375 -14.285156 C 10.019531 -14.285156 11.675781 -13.664062 12.820312 -12.417969 C 13.964844 -11.175781 14.535156 -9.386719 14.535156 -7.050781 Z M 4.269531 -7.050781 C 4.269531 -5.480469 4.570312 -4.296875 5.167969 -3.5 C 5.761719 -2.707031 6.652344 -2.308594 7.839844 -2.308594 C 10.21875 -2.308594 11.410156 -3.890625 11.410156 -7.050781 C 11.410156 -10.21875 10.226562 -11.804688 7.859375 -11.804688 C 6.671875 -11.804688 5.777344 -11.40625 5.175781 -10.605469 C 4.574219 -9.808594 4.269531 -8.621094 4.269531 -7.050781 Z M 4.269531 -7.050781 "/></g></g></g><g fill="#35359e" fill-opacity="1"><g transform="translate(247.16588, 243.392929)"><g><path d="M 1.769531 0 L 1.769531 -14.066406 L 4.753906 -14.066406 L 4.753906 -2.460938 L 10.457031 -2.460938 L 10.457031 0 Z M 1.769531 0 "/></g></g></g><g fill="#35359e" fill-opacity="1"><g transform="translate(261.11291, 243.392929)"><g><path d="M 13.21875 -14.066406 L 13.21875 -4.964844 C 13.21875 -3.925781 12.984375 -3.015625 12.519531 -2.230469 C 12.054688 -1.449219 11.382812 -0.851562 10.503906 -0.433594 C 9.625 -0.015625 8.585938 0.191406 7.386719 0.191406 C 5.578125 0.191406 4.175781 -0.269531 3.175781 -1.199219 C 2.175781 -2.125 1.675781 -3.394531 1.675781 -5.003906 L 1.675781 -14.066406 L 4.648438 -14.066406 L 4.648438 -5.453125 C 4.648438 -4.371094 4.863281 -3.574219 5.300781 -3.070312 C 5.738281 -2.5625 6.457031 -2.308594 7.464844 -2.308594 C 8.441406 -2.308594 9.148438 -2.5625 9.585938 -3.074219 C 10.027344 -3.582031 10.246094 -4.382812 10.246094 -5.472656 L 10.246094 -14.066406 Z M 13.21875 -14.066406 "/></g></g></g><g fill="#35359e" fill-opacity="1"><g transform="translate(278.82101, 243.392929)"><g><path d="M 7.195312 0 L 4.214844 0 L 4.214844 -11.582031 L 0.394531 -11.582031 L 0.394531 -14.066406 L 11.015625 -14.066406 L 11.015625 -11.582031 L 7.195312 -11.582031 Z M 7.195312 0 "/></g></g></g><g fill="#35359e" fill-opacity="1"><g transform="translate(293.046994, 243.392929)"><g><path d="M 1.769531 -14.066406 L 4.753906 -14.066406 L 4.753906 0 L 1.769531 0 Z M 1.769531 -14.066406 "/></g></g></g><g fill="#35359e" fill-opacity="1"><g transform="translate(302.386472, 243.392929)"><g><path d="M 14.535156 -7.050781 C 14.535156 -4.722656 13.960938 -2.933594 12.804688 -1.683594 C 11.648438 -0.433594 9.996094 0.191406 7.839844 0.191406 C 5.6875 0.191406 4.03125 -0.433594 2.875 -1.683594 C 1.722656 -2.933594 1.144531 -4.730469 1.144531 -7.070312 C 1.144531 -9.410156 1.722656 -11.199219 2.882812 -12.433594 C 4.039062 -13.667969 5.699219 -14.285156 7.859375 -14.285156 C 10.019531 -14.285156 11.675781 -13.664062 12.820312 -12.417969 C 13.964844 -11.175781 14.535156 -9.386719 14.535156 -7.050781 Z M 4.269531 -7.050781 C 4.269531 -5.480469 4.570312 -4.296875 5.167969 -3.5 C 5.761719 -2.707031 6.652344 -2.308594 7.839844 -2.308594 C 10.21875 -2.308594 11.410156 -3.890625 11.410156 -7.050781 C 11.410156 -10.21875 10.226562 -11.804688 7.859375 -11.804688 C 6.671875 -11.804688 5.777344 -11.40625 5.175781 -10.605469 C 4.574219 -9.808594 4.269531 -8.621094 4.269531 -7.050781 Z M 4.269531 -7.050781 "/></g></g></g><g fill="#35359e" fill-opacity="1"><g transform="translate(320.883339, 243.392929)"><g><path d="M 14.246094 0 L 10.457031 0 L 4.339844 -10.640625 L 4.253906 -10.640625 C 4.375 -8.761719 4.433594 -7.421875 4.433594 -6.617188 L 4.433594 0 L 1.769531 0 L 1.769531 -14.066406 L 5.53125 -14.066406 L 11.640625 -3.53125 L 11.707031 -3.53125 C 11.613281 -5.359375 11.5625 -6.652344 11.5625 -7.40625 L 11.5625 -14.066406 L 14.246094 -14.066406 Z M 14.246094 0 "/></g></g></g><g fill="#35359e" fill-opacity="1"><g transform="translate(339.716875, 243.392929)"><g><path d="M 10.074219 -3.90625 C 10.074219 -2.636719 9.617188 -1.636719 8.703125 -0.90625 C 7.789062 -0.171875 6.515625 0.191406 4.886719 0.191406 C 3.386719 0.191406 2.058594 -0.0898438 0.90625 -0.652344 L 0.90625 -3.425781 C 1.851562 -3 2.65625 -2.703125 3.3125 -2.53125 C 3.972656 -2.355469 4.574219 -2.269531 5.117188 -2.269531 C 5.773438 -2.269531 6.273438 -2.394531 6.625 -2.644531 C 6.972656 -2.894531 7.148438 -3.269531 7.148438 -3.761719 C 7.148438 -4.039062 7.070312 -4.28125 6.917969 -4.496094 C 6.761719 -4.710938 6.535156 -4.917969 6.238281 -5.117188 C 5.941406 -5.316406 5.332031 -5.632812 4.414062 -6.070312 C 3.554688 -6.472656 2.910156 -6.863281 2.480469 -7.234375 C 2.050781 -7.605469 1.710938 -8.039062 1.453125 -8.53125 C 1.195312 -9.027344 1.066406 -9.605469 1.066406 -10.265625 C 1.066406 -11.507812 1.488281 -12.488281 2.332031 -13.199219 C 3.175781 -13.910156 4.34375 -14.265625 5.828125 -14.265625 C 6.5625 -14.265625 7.257812 -14.179688 7.921875 -14.007812 C 8.585938 -13.832031 9.28125 -13.589844 10.003906 -13.277344 L 9.042969 -10.957031 C 8.292969 -11.265625 7.671875 -11.480469 7.179688 -11.601562 C 6.691406 -11.722656 6.207031 -11.785156 5.734375 -11.785156 C 5.167969 -11.785156 4.738281 -11.652344 4.433594 -11.390625 C 4.132812 -11.128906 3.984375 -10.785156 3.984375 -10.359375 C 3.984375 -10.097656 4.042969 -9.867188 4.164062 -9.671875 C 4.289062 -9.476562 4.480469 -9.289062 4.746094 -9.105469 C 5.015625 -8.921875 5.644531 -8.59375 6.636719 -8.121094 C 7.953125 -7.492188 8.855469 -6.859375 9.339844 -6.230469 C 9.828125 -5.597656 10.074219 -4.824219 10.074219 -3.90625 Z M 10.074219 -3.90625 "/></g></g></g></svg>