<svg xmlns="http://www.w3.org/2000/svg" xmlns:xlink="http://www.w3.org/1999/xlink" width="48" zoomAndPan="magnify" viewBox="0 0 36 36.000001" height="48" preserveAspectRatio="xMidYMid meet" version="1.0"><defs><clipPath id="87d2c079ae"><path d="M 0.488281 0 L 35.511719 0 L 35.511719 35 L 0.488281 35 Z M 0.488281 0 " clip-rule="nonzero"/></clipPath></defs><path fill="#000000" d="M 27.765625 5.484375 C 27.914062 5.484375 28.035156 5.363281 28.035156 5.214844 L 28.035156 1.652344 C 28.035156 0.71875 27.277344 -0.0390625 26.347656 -0.0390625 L 19.980469 -0.0390625 C 19.832031 -0.0390625 19.710938 0.0820312 19.710938 0.230469 C 19.710938 0.378906 19.832031 0.5 19.980469 0.5 L 26.347656 0.5 C 26.980469 0.5 27.496094 1.015625 27.496094 1.652344 L 27.496094 5.214844 C 27.496094 5.363281 27.617188 5.484375 27.765625 5.484375 Z M 27.765625 5.484375 " fill-opacity="1" fill-rule="nonzero"/><path fill="#000000" d="M 15.644531 31.617188 C 15.644531 31.765625 15.765625 31.882812 15.914062 31.882812 L 21.390625 31.882812 C 21.539062 31.882812 21.660156 31.765625 21.660156 31.617188 C 21.660156 31.464844 21.539062 31.347656 21.390625 31.347656 L 15.914062 31.347656 C 15.765625 31.347656 15.644531 31.464844 15.644531 31.617188 Z M 15.644531 31.617188 " fill-opacity="1" fill-rule="nonzero"/><path fill="#000000" d="M 21.164062 2.894531 C 21.164062 2.597656 20.925781 2.359375 20.628906 2.359375 L 15.636719 2.359375 C 15.34375 2.359375 15.105469 2.597656 15.105469 2.898438 C 15.105469 3.195312 15.34375 3.433594 15.636719 3.433594 L 20.628906 3.433594 C 20.925781 3.433594 21.164062 3.195312 21.164062 2.894531 Z M 21.164062 2.894531 " fill-opacity="1" fill-rule="nonzero"/><path fill="#000000" d="M 32.085938 10.285156 C 32.085938 10.433594 32.203125 10.554688 32.351562 10.554688 C 32.5 10.554688 32.621094 10.433594 32.621094 10.285156 L 32.621094 6.972656 C 32.621094 6.820312 32.5 6.703125 32.351562 6.703125 C 32.203125 6.703125 32.085938 6.820312 32.085938 6.972656 Z M 32.085938 10.285156 " fill-opacity="1" fill-rule="nonzero"/><path fill="#000000" d="M 29.457031 7.796875 L 29.457031 10.285156 C 29.457031 10.433594 29.578125 10.554688 29.726562 10.554688 C 29.875 10.554688 29.996094 10.433594 29.996094 10.285156 L 29.996094 7.796875 C 29.996094 7.648438 29.875 7.527344 29.726562 7.527344 C 29.578125 7.527344 29.457031 7.648438 29.457031 7.796875 Z M 29.457031 7.796875 " fill-opacity="1" fill-rule="nonzero"/><path fill="#000000" d="M 26.832031 8.871094 L 26.832031 10.285156 C 26.832031 10.433594 26.953125 10.554688 27.101562 10.554688 C 27.25 10.554688 27.371094 10.433594 27.371094 10.285156 L 27.371094 8.871094 C 27.371094 8.722656 27.25 8.601562 27.101562 8.601562 C 26.953125 8.601562 26.832031 8.722656 26.832031 8.871094 Z M 26.832031 8.871094 " fill-opacity="1" fill-rule="nonzero"/><path fill="#000000" d="M 22.8125 22.769531 C 22.378906 22.699219 21.972656 23.007812 21.90625 23.441406 C 21.84375 23.878906 22.144531 24.285156 22.578125 24.347656 C 23.207031 24.449219 23.738281 23.769531 23.367188 23.152344 L 24.234375 22.191406 C 24.339844 22.226562 24.328125 22.25 24.488281 22.25 C 24.582031 22.25 24.671875 22.230469 24.757812 22.199219 L 25.910156 23.222656 C 25.8125 23.921875 26.609375 24.394531 27.171875 23.972656 C 27.425781 23.785156 27.5625 23.460938 27.457031 23.105469 L 28.582031 21.839844 C 28.691406 21.882812 28.722656 21.910156 28.878906 21.910156 C 28.957031 21.910156 29.035156 21.894531 29.113281 21.871094 L 30.914062 23.496094 C 30.964844 23.542969 31.027344 23.566406 31.09375 23.566406 C 31.167969 23.566406 31.238281 23.535156 31.292969 23.476562 C 31.390625 23.367188 31.382812 23.195312 31.273438 23.097656 L 29.542969 21.539062 C 29.863281 21.03125 29.542969 20.402344 28.992188 20.320312 C 28.402344 20.226562 27.847656 20.84375 28.183594 21.476562 L 27.128906 22.667969 C 26.828125 22.472656 26.476562 22.503906 26.222656 22.691406 C 26.203125 22.703125 26.195312 22.726562 26.175781 22.742188 L 25.175781 21.851562 C 25.226562 21.765625 25.261719 21.671875 25.277344 21.566406 C 25.339844 21.132812 25.042969 20.726562 24.605469 20.660156 C 23.984375 20.5625 23.445312 21.230469 23.8125 21.851562 L 22.945312 22.816406 C 22.902344 22.800781 22.859375 22.777344 22.8125 22.769531 Z M 22.953125 23.597656 C 22.917969 23.828125 22.625 23.898438 22.488281 23.714844 C 22.398438 23.59375 22.429688 23.433594 22.539062 23.351562 C 22.722656 23.214844 22.984375 23.363281 22.953125 23.597656 Z M 29.082031 20.957031 C 29.125 21.011719 29.140625 21.082031 29.132812 21.148438 C 29.097656 21.375 28.804688 21.453125 28.667969 21.265625 C 28.625 21.210938 28.609375 21.140625 28.617188 21.074219 C 28.652344 20.84375 28.945312 20.769531 29.082031 20.957031 Z M 26.953125 23.371094 C 26.945312 23.441406 26.910156 23.5 26.851562 23.542969 C 26.667969 23.679688 26.40625 23.523438 26.441406 23.292969 C 26.453125 23.226562 26.488281 23.164062 26.542969 23.125 C 26.726562 22.984375 26.988281 23.140625 26.953125 23.371094 Z M 24.488281 21.191406 C 24.648438 21.191406 24.769531 21.332031 24.746094 21.488281 C 24.722656 21.628906 24.589844 21.726562 24.449219 21.707031 C 24.308594 21.6875 24.210938 21.554688 24.230469 21.414062 C 24.25 21.285156 24.359375 21.191406 24.488281 21.191406 Z M 24.488281 21.191406 " fill-opacity="1" fill-rule="nonzero"/><path fill="#000000" d="M 18.96875 8.796875 C 18.96875 8.648438 18.847656 8.527344 18.699219 8.527344 L 12.046875 8.527344 C 11.898438 8.527344 11.777344 8.648438 11.777344 8.796875 C 11.777344 8.945312 11.898438 9.066406 12.046875 9.066406 L 18.699219 9.066406 C 18.847656 9.066406 18.96875 8.945312 18.96875 8.796875 Z M 18.96875 8.796875 " fill-opacity="1" fill-rule="nonzero"/><path fill="#000000" d="M 12.046875 10.679688 C 11.898438 10.679688 11.777344 10.800781 11.777344 10.949219 C 11.777344 11.097656 11.898438 11.21875 12.046875 11.21875 L 16.121094 11.21875 C 16.269531 11.21875 16.390625 11.097656 16.390625 10.949219 C 16.390625 10.800781 16.269531 10.679688 16.121094 10.679688 Z M 12.046875 10.679688 " fill-opacity="1" fill-rule="nonzero"/><g clip-path="url(#87d2c079ae)"><path fill="#000000" d="M 0.585938 24.378906 L 1.515625 26.855469 C 1.566406 26.996094 1.667969 27.109375 1.804688 27.171875 C 1.941406 27.234375 2.097656 27.242188 2.238281 27.1875 L 3.152344 26.84375 C 3.5 27.320312 3.914062 27.746094 4.375 28.117188 L 3.972656 28.996094 C 3.847656 29.277344 3.972656 29.613281 4.253906 29.742188 L 6.65625 30.828125 C 6.9375 30.957031 7.269531 30.832031 7.398438 30.550781 L 7.835938 29.597656 C 8.300781 29.65625 8.789062 29.667969 9.28125 29.628906 C 9.28125 29.800781 9.28125 33.425781 9.28125 33.277344 C 9.28125 34.207031 10.039062 34.960938 10.96875 34.960938 L 26.34375 34.960938 C 27.269531 34.960938 28.019531 34.207031 28.019531 33.277344 C 28.035156 29.4375 28.027344 30.902344 28.03125 26.074219 L 30.574219 26.074219 C 31.933594 26.074219 33.039062 24.96875 33.039062 23.613281 L 33.039062 21.304688 C 33.039062 19.945312 31.933594 18.835938 30.574219 18.835938 L 28.03125 18.835938 L 28.03125 12.320312 L 33.140625 12.320312 C 34.414062 12.320312 35.449219 11.277344 35.449219 10 L 35.449219 7.859375 C 35.449219 6.582031 34.414062 5.542969 33.140625 5.542969 L 32.652344 5.542969 C 32.503906 5.542969 32.382812 5.664062 32.382812 5.8125 C 32.382812 5.960938 32.503906 6.082031 32.652344 6.082031 L 33.140625 6.082031 C 34.117188 6.082031 34.914062 6.878906 34.914062 7.859375 L 34.914062 10 C 34.914062 10.980469 34.117188 11.78125 33.140625 11.78125 L 26.699219 11.78125 C 26.417969 11.78125 26.144531 11.898438 25.945312 12.109375 L 24.539062 13.65625 L 24.539062 7.859375 C 24.539062 6.878906 25.335938 6.082031 26.3125 6.082031 L 31.230469 6.082031 C 31.378906 6.082031 31.496094 5.960938 31.496094 5.8125 C 31.496094 5.664062 31.378906 5.542969 31.230469 5.542969 L 26.3125 5.542969 C 25.039062 5.542969 24 6.582031 24 7.859375 L 24 13.835938 C 24 14.265625 24.515625 14.46875 24.8125 14.152344 L 26.339844 12.476562 C 26.4375 12.375 26.566406 12.320312 26.699219 12.320312 L 27.492188 12.320312 L 27.492188 18.835938 L 23.234375 18.835938 C 21.878906 18.835938 20.773438 19.945312 20.773438 21.304688 L 20.773438 22.703125 C 20.773438 22.851562 20.894531 22.972656 21.042969 22.972656 C 21.191406 22.972656 21.3125 22.851562 21.3125 22.703125 L 21.3125 21.304688 C 21.3125 20.242188 22.175781 19.375 23.234375 19.375 L 30.574219 19.375 C 31.636719 19.375 32.5 20.242188 32.5 21.304688 L 32.5 23.613281 C 32.5 24.671875 31.636719 25.535156 30.574219 25.535156 L 23.648438 25.535156 C 23.351562 25.535156 23.0625 25.664062 22.886719 25.863281 L 21.3125 27.136719 L 21.3125 24.261719 C 21.3125 24.113281 21.191406 23.992188 21.042969 23.992188 C 20.894531 23.992188 20.773438 24.113281 20.773438 24.261719 L 20.773438 27.25 C 20.773438 27.71875 21.355469 27.875 21.578125 27.605469 L 23.257812 26.253906 C 23.359375 26.136719 23.503906 26.074219 23.648438 26.074219 L 27.492188 26.074219 L 27.496094 32.085938 C 27.488281 32.109375 27.484375 32.132812 27.484375 32.152344 C 27.449219 32.738281 26.9375 33.214844 26.34375 33.214844 L 10.96875 33.214844 C 10.335938 33.214844 9.820312 32.703125 9.820312 32.074219 L 9.820312 30.757812 C 9.917969 30.84375 10.039062 30.902344 10.171875 30.902344 C 10.367188 30.902344 10.335938 30.867188 12.84375 29.933594 C 12.984375 29.882812 13.097656 29.777344 13.160156 29.640625 C 13.222656 29.503906 13.226562 29.347656 13.175781 29.207031 L 12.832031 28.300781 C 13.296875 27.953125 13.71875 27.554688 14.085938 27.105469 L 15.03125 27.53125 C 15.3125 27.660156 15.648438 27.535156 15.777344 27.253906 L 16.867188 24.84375 C 16.996094 24.5625 16.871094 24.226562 16.589844 24.097656 L 15.597656 23.644531 C 15.664062 23.144531 15.679688 22.640625 15.636719 22.140625 L 16.589844 21.785156 C 16.730469 21.730469 16.84375 21.625 16.90625 21.488281 C 16.96875 21.351562 16.972656 21.195312 16.917969 21.054688 L 15.992188 18.582031 C 15.882812 18.292969 15.554688 18.144531 15.269531 18.257812 L 14.332031 18.609375 C 14.039062 18.203125 13.699219 17.828125 13.316406 17.488281 L 13.75 16.523438 C 13.875 16.242188 13.75 15.90625 13.46875 15.777344 L 11.066406 14.691406 C 10.789062 14.5625 10.464844 14.683594 10.324219 14.972656 L 9.925781 15.847656 C 9.890625 15.84375 9.855469 15.84375 9.820312 15.835938 L 9.820312 1.652344 C 9.820312 1.015625 10.335938 0.5 10.96875 0.5 L 17.628906 0.5 C 17.777344 0.5 17.898438 0.378906 17.898438 0.230469 C 17.898438 0.0820312 17.777344 -0.0390625 17.628906 -0.0390625 L 10.96875 -0.0390625 C 10.039062 -0.0390625 9.28125 0.71875 9.28125 1.652344 L 9.28125 5.566406 C 9.230469 5.554688 9.183594 5.535156 9.132812 5.535156 C 8.773438 5.535156 8.484375 5.828125 8.484375 6.1875 L 8.484375 10.417969 C 8.484375 10.777344 8.773438 11.066406 9.132812 11.066406 L 9.15625 11.066406 C 9.203125 11.066406 9.242188 11.050781 9.28125 11.042969 L 9.28125 15.777344 C 8.96875 15.75 8.652344 15.742188 8.34375 15.757812 L 7.976562 14.78125 C 7.867188 14.492188 7.542969 14.347656 7.253906 14.457031 L 4.78125 15.386719 C 4.488281 15.5 4.339844 15.816406 4.453125 16.109375 L 4.777344 16.980469 C 4.296875 17.3125 3.863281 17.699219 3.484375 18.136719 L 2.59375 17.730469 C 2.460938 17.671875 2.308594 17.664062 2.164062 17.71875 C 2.023438 17.773438 1.914062 17.875 1.851562 18.011719 L 0.761719 20.421875 C 0.632812 20.703125 0.757812 21.039062 1.039062 21.167969 L 1.878906 21.546875 C 1.78125 22.125 1.757812 22.71875 1.8125 23.324219 L 0.917969 23.660156 C 0.617188 23.773438 0.476562 24.09375 0.585938 24.378906 Z M 2.195312 23.753906 C 2.3125 23.710938 2.382812 23.59375 2.367188 23.46875 C 2.285156 22.777344 2.308594 22.09375 2.445312 21.445312 C 2.46875 21.320312 2.40625 21.195312 2.292969 21.144531 L 1.25 20.644531 L 2.371094 18.222656 L 3.449219 18.710938 C 3.558594 18.761719 3.691406 18.730469 3.769531 18.636719 C 4.183594 18.125 4.683594 17.679688 5.25 17.316406 C 5.355469 17.246094 5.402344 17.113281 5.355469 16.992188 L 4.972656 15.890625 L 7.472656 14.972656 L 7.910156 16.136719 C 7.953125 16.25 8.070312 16.320312 8.1875 16.308594 C 8.792969 16.257812 9.414062 16.292969 10.03125 16.414062 C 10.15625 16.441406 10.277344 16.378906 10.328125 16.261719 L 10.847656 15.183594 L 13.261719 16.300781 L 12.746094 17.449219 C 12.695312 17.558594 12.726562 17.691406 12.816406 17.765625 C 13.277344 18.152344 13.679688 18.597656 14.011719 19.085938 C 14.078125 19.1875 14.210938 19.230469 14.328125 19.1875 L 15.488281 18.769531 L 16.402344 21.28125 L 15.257812 21.710938 C 15.144531 21.753906 15.070312 21.871094 15.085938 21.992188 C 15.148438 22.578125 15.132812 23.171875 15.035156 23.765625 C 15.015625 23.882812 15.082031 24.003906 15.191406 24.050781 L 16.378906 24.621094 L 15.253906 27.039062 L 14.117188 26.53125 C 14.003906 26.480469 13.871094 26.511719 13.796875 26.609375 C 13.386719 27.136719 12.902344 27.597656 12.355469 27.984375 C 12.253906 28.054688 12.214844 28.183594 12.257812 28.296875 L 12.671875 29.398438 C 12.675781 29.410156 12.667969 29.425781 12.65625 29.429688 L 10.152344 30.347656 L 9.738281 29.246094 C 9.699219 29.140625 9.597656 29.070312 9.488281 29.070312 C 9.378906 29.070312 8.664062 29.1875 7.714844 29.035156 C 7.59375 29.019531 7.480469 29.082031 7.429688 29.191406 L 6.878906 30.335938 L 4.460938 29.21875 L 4.953125 28.148438 C 5.007812 28.035156 4.972656 27.898438 4.871094 27.820312 C 4.324219 27.410156 3.855469 26.921875 3.46875 26.367188 C 3.398438 26.265625 3.269531 26.222656 3.15625 26.265625 L 2.015625 26.667969 L 1.105469 24.164062 Z M 2.195312 23.753906 " fill-opacity="1" fill-rule="nonzero"/></g><path fill="#000000" d="M 8.871094 23.746094 C 9.023438 23.636719 9.695312 22.90625 10.878906 21.578125 C 11.113281 21.3125 10.808594 20.890625 10.480469 21.035156 C 8.03125 22.117188 7.863281 22.242188 7.804688 22.28125 C 7.453125 22.539062 7.402344 23.078125 7.695312 23.484375 C 7.992188 23.898438 8.519531 24 8.871094 23.746094 Z M 8.871094 23.746094 " fill-opacity="1" fill-rule="nonzero"/><path fill="#000000" d="M 4.082031 22.960938 C 4.109375 23.421875 4.183594 23.886719 4.351562 24.339844 C 4.792969 25.515625 5.664062 26.449219 6.804688 26.96875 C 9.925781 28.386719 13.550781 26.078125 13.40625 22.503906 C 13.414062 22.480469 13.429688 22.46875 13.429688 22.445312 C 13.429688 22.414062 13.40625 22.394531 13.398438 22.367188 C 13.367188 21.917969 13.292969 21.46875 13.128906 21.035156 C 12.691406 19.863281 11.820312 18.929688 10.679688 18.410156 C 7.605469 17.011719 3.976562 19.269531 4.074219 22.828125 C 4.070312 22.847656 4.050781 22.863281 4.050781 22.882812 C 4.050781 22.914062 4.074219 22.933594 4.082031 22.960938 Z M 8.574219 18.542969 L 8.574219 19.230469 C 8.574219 19.378906 8.695312 19.5 8.84375 19.5 C 8.992188 19.5 9.113281 19.378906 9.113281 19.230469 L 9.113281 18.566406 C 11.214844 18.757812 12.621094 20.320312 12.851562 22.175781 L 12.085938 22.175781 C 11.9375 22.175781 11.816406 22.296875 11.816406 22.445312 C 11.816406 22.59375 11.9375 22.714844 12.085938 22.714844 L 12.878906 22.714844 C 12.867188 24.722656 11.402344 26.609375 9.113281 26.816406 L 9.113281 26.035156 C 9.113281 25.886719 8.992188 25.765625 8.84375 25.765625 C 8.695312 25.765625 8.574219 25.886719 8.574219 26.035156 L 8.574219 26.847656 C 6.636719 26.765625 4.871094 25.324219 4.628906 23.152344 L 5.394531 23.152344 C 5.542969 23.152344 5.664062 23.035156 5.664062 22.882812 C 5.664062 22.734375 5.542969 22.617188 5.394531 22.617188 L 4.597656 22.617188 C 4.640625 20.507812 6.261719 18.636719 8.574219 18.542969 Z M 8.574219 18.542969 " fill-opacity="1" fill-rule="nonzero"/></svg>